ply
format ascii 1.0
element vertex 512
property float x
property float y
property float z
property float nx
property float ny
property float nz
end_header
0.676176 0.174721 0.271935 -0.658526 -0.731760 0.357492
0.581181 -0.055675 0.979827 0.560885 0.210667 -0.848792
0.646517 -0.059643 -0.241864 -1.033577 0.154371 0.037541
0.817737 -0.007833 0.811652 -1.039527 -0.047029 0.086172
-0.115605 -0.208972 -0.334110 -0.024121 0.780720 -0.694588
0.257189 0.149075 -0.644108 1.025115 -0.206043 0.121224
0.584301 -0.217633 0.848084 0.350970 0.931141 -0.312104
0.294136 -0.289766 -0.312285 0.336603 0.955386 -0.259326
0.274932 -0.079093 -0.788376 0.986646 0.307118 0.204164
0.826801 0.076676 0.751596 -0.941771 -0.430029 0.084952
0.661889 -0.248509 0.810136 -0.144904 1.030142 -0.141273
-0.005613 -0.181415 -0.460967 0.273400 0.661945 0.769205
-0.324657 -0.207442 -0.326607 -0.307079 0.668321 -0.743796
0.382096 -0.257144 -0.746716 0.524552 0.900445 0.108815
-0.744664 -0.093694 0.510631 0.960121 0.415139 -0.037759
0.257936 -0.200133 -0.608938 0.639482 0.794704 0.248300
-0.784055 0.080701 -0.195458 0.967708 -0.404481 -0.023237
0.290743 0.214508 -0.660563 0.954764 -0.433555 0.060673
0.467642 0.289321 -0.291892 -0.095980 -1.047612 0.022699
-0.677473 0.205411 0.742473 0.660698 -0.814569 -0.040962
-0.587084 0.227151 0.156129 -0.652981 -0.756499 0.313477
0.609375 0.258085 0.491155 -0.076599 -1.041720 -0.096934
-0.051822 0.042097 -0.539596 -0.009092 -0.210551 1.028585
-0.638726 -0.031555 -0.493608 0.560448 0.038678 0.891355
0.444705 0.200023 -0.866677 -0.143535 -0.721857 0.751940
0.766379 0.097869 0.990232 -0.647568 -0.234447 -0.784740
-0.249116 0.082788 -0.276497 -0.008092 -0.095968 -1.039643
-0.514643 0.186923 0.635166 -0.800593 -0.673606 0.116676
-0.740797 -0.175063 0.148075 0.825466 0.639005 -0.030048
0.444952 0.154890 0.619884 0.862481 -0.586296 -0.105056
0.454107 -0.170818 0.542940 0.952953 0.298913 -0.317149
-0.555666 -0.237743 0.788658 -0.401826 0.971734 0.097613
0.626540 -0.206953 0.163334 -0.728397 0.751241 0.064296
0.456878 -0.221921 -0.852022 -0.450140 0.751017 0.582169
0.564693 0.208440 0.826009 0.935573 -0.437082 -0.138743
0.685407 0.205016 0.940019 -0.410667 -0.774367 -0.561309
0.581999 0.262967 0.467730 0.079355 -1.044527 -0.063247
0.452761 -0.303868 -0.534173 -0.548273 0.890934 0.103195
0.609878 0.169044 -0.295266 -0.992729 -0.319051 0.030060
-0.763582 0.134523 -0.386289 0.405370 -0.431410 0.867336
0.008216 0.049527 -0.223816 0.132389 -0.136733 -1.025963
-0.800877 -0.038143 -0.176938 1.018114 -0.261043 0.014712
0.752009 0.095568 0.429471 -1.022323 -0.045419 0.205949
0.264347 0.048810 -0.810291 1.050408 -0.111092 0.063609
0.531001 -0.200425 0.763754 0.743665 0.729205 -0.112826
0.550241 0.095159 0.926017 0.920219 -0.309239 -0.389402
-0.508471 0.205942 0.720405 -0.804520 -0.671552 0.083223
-0.493518 0.205156 -0.291335 -0.470585 -0.706697 -0.608415
-0.447380 -0.056436 0.649543 -1.029855 0.131623 0.158755
-0.759257 -0.157670 0.022846 0.823716 0.642538 -0.029521
0.775858 -0.181685 0.802057 -0.877616 0.529228 0.192485
0.612006 -0.092171 -0.570776 -1.037914 0.133238 0.057474
0.141125 -0.164396 -0.493571 -0.049150 0.477506 0.932687
-0.531290 -0.237049 0.846182 -0.486447 0.727062 -0.577321
-0.597599 0.069814 -0.506711 0.095199 -0.400582 0.964281
0.810016 0.013171 0.644980 -1.002831 0.253606 0.132336
-0.494033 -0.158605 -0.480471 0.054877 0.414786 0.963415
0.497393 -0.060998 0.861458 0.960039 0.236326 -0.346782
-0.411640 0.245240 -0.412562 -0.107917 -1.026140 0.201075
0.591584 0.247007 0.286368 -0.353961 -0.949361 0.285059
-0.507326 0.194601 0.601424 -0.797888 -0.675688 0.097249
0.651164 -0.162519 0.114239 -0.869760 0.575437 0.068812
-0.408418 0.234805 -0.348929 -0.247915 -1.004540 -0.184700
0.500208 -0.072559 -0.927130 -0.731733 0.168484 0.735375
0.367144 -0.016077 0.304144 1.045748 0.053783 -0.064948
0.550107 -0.224353 -0.561832 -0.712663 0.766426 0.096868
0.216219 0.273779 -0.315279 0.155859 -0.967159 -0.365028
-0.638249 -0.248741 0.456613 -0.020428 1.052666 -0.036981
0.625038 -0.232607 0.319193 -0.482543 0.922256 0.129010
-0.380016 0.165435 -0.494319 0.081360 -0.577467 0.872301
-0.289692 -0.115478 -0.507374 0.030177 0.475311 0.936424
0.380206 0.313780 -0.446601 0.210153 -1.029140 0.058685
-0.490958 0.178579 0.752891 -0.838943 -0.624866 0.097617
-0.482338 0.093742 0.320898 -0.948914 -0.263295 0.354907
0.305095 -0.022034 -0.104247 0.426041 0.135342 -0.940866
-0.487222 0.084652 0.908167 -0.851597 -0.044923 -0.604150
0.709075 0.010755 0.995089 -0.022247 -0.066027 -1.039731
-0.461684 -0.118183 0.787817 -0.990426 0.347166 -0.020922
0.498367 -0.270198 -0.171765 -0.055214 1.050954 0.009442
0.617695 0.092808 -0.577072 -1.032664 -0.115428 0.117331
0.803564 -0.023306 0.668838 -1.031609 0.101141 0.083757
0.676987 0.231758 0.512155 -0.456060 -0.942388 -0.022128
-0.562879 0.228883 -0.211281 -0.927925 -0.475430 -0.110946
-0.497205 0.165069 0.860994 -0.914655 -0.380805 -0.335540
0.529108 0.191051 0.809059 0.808574 -0.628601 -0.217972
-0.635866 -0.246645 0.411943 -0.018459 1.048739 -0.043974
-0.431390 0.044947 0.732433 -1.011827 -0.273624 -0.032053
0.288163 -0.128881 -0.808452 1.014359 0.211744 0.212809
0.734015 0.209753 0.800045 -0.688427 -0.776717 -0.110044
-0.521856 -0.036944 0.086909 -1.007215 0.106846 0.292905
0.672191 0.168682 0.232155 -0.657089 -0.733494 0.355637
0.300827 -0.160422 -0.785708 1.001307 0.278115 0.189113
-0.521756 -0.071591 0.929858 -0.489333 0.288150 -0.873942
0.473205 0.008059 0.807615 0.980108 0.223639 -0.296386
-0.538349 0.210058 0.316743 -0.782437 -0.685419 0.115035
-0.732601 -0.042358 0.696207 1.012411 0.244823 -0.026780
0.355977 -0.141386 -0.062440 0.956846 0.383410 -0.156498
0.560052 0.234514 -0.354282 -0.750910 -0.724527 0.042701
-0.435595 0.200544 -0.460021 0.062455 -0.700693 0.779530
-0.605453 0.113586 -0.494977 0.103649 -0.430918 0.948476
0.257827 0.113875 -0.677889 1.033074 -0.197029 0.102074
0.396102 0.033023 0.480456 1.051027 0.032770 -0.052873
0.419024 -0.046384 -0.937682 0.140696 0.273007 1.008290
0.256204 0.295646 -0.409373 0.185273 -1.030169 0.056089
0.098372 0.258727 -0.372623 0.197626 -0.926063 -0.435933
-0.632606 -0.153572 -0.451318 0.324777 0.637547 0.771169
0.741082 -0.212398 0.878488 -0.499371 0.860471 -0.310162
-0.548678 -0.251492 -0.349291 -0.235345 1.027037 0.021127
0.750569 0.121888 0.459261 -0.945446 -0.371894 0.229632
0.251702 0.057217 -0.715104 1.023211 -0.221223 0.128330
0.538980 -0.224859 -0.627813 -0.701186 0.776876 0.091900
0.408782 -0.197300 0.157681 0.954996 0.396708 -0.131909
-0.629449 -0.256940 -0.170610 -0.164818 1.005535 -0.247089
-0.751043 -0.014008 0.551667 1.042811 -0.009779 -0.064797
-0.735205 0.093657 0.544299 0.993590 -0.264885 -0.164172
-0.470359 0.187278 -0.265188 -0.467916 -0.708725 -0.606581
0.581722 -0.257231 0.625930 -0.036799 1.038014 -0.156563
0.687080 0.112554 1.000783 -0.052299 -0.106614 -1.033176
0.828723 0.023597 0.829439 -1.036933 0.003214 0.011445
-0.483556 -0.108390 -0.504561 0.035539 0.448747 0.950604
0.527810 -0.263520 -0.237074 -0.758522 0.729084 0.033704
-0.565228 -0.205816 0.127545 -0.896972 0.478151 0.272329
-0.059852 0.203160 -0.467060 0.040234 -0.711365 0.768524
0.321164 -0.280983 -0.522139 0.215064 0.970915 0.346543
0.476285 -0.024529 0.798826 1.040846 0.122957 -0.114481
-0.518836 -0.250278 -0.309972 -0.132057 0.885304 -0.532735
-0.614648 0.256741 0.797596 0.640895 -0.827821 -0.044281
0.396110 0.129857 0.301424 0.967171 -0.370937 -0.144676
0.508794 0.218623 -0.816919 -0.803195 -0.660046 0.122779
0.565224 -0.142218 -0.755008 -0.993279 0.321812 0.099093
0.415646 -0.210603 0.145923 0.963389 0.383676 -0.123218
0.490277 -0.255419 -0.701366 -0.724619 0.759917 0.081401
-0.777069 -0.066245 -0.345544 0.997328 0.293085 0.130515
0.097115 -0.129144 -0.510372 -0.045346 0.463995 0.938965
0.654779 -0.202274 0.228576 -0.486257 0.915752 0.161559
-0.739201 -0.179922 0.271656 0.992370 0.321769 -0.014632
0.604744 0.208728 -0.048787 -0.749884 -0.723905 -0.017830
0.104599 -0.027722 -0.548077 -0.030660 0.129658 1.041632
0.603472 0.097186 -0.638312 -1.043719 -0.028097 0.115703
-0.735987 0.135763 0.350930 1.029272 -0.075459 -0.094868
-0.749796 0.178420 -0.249921 0.966208 -0.403351 -0.017972
0.422110 0.174852 0.438245 0.887614 -0.534546 -0.145444
-0.648813 -0.242615 0.434078 -0.014475 1.052101 -0.034803
-0.491762 0.022785 -0.146948 -0.931255 -0.192450 -0.445081
-0.364555 -0.030716 -0.253032 -0.461654 0.022975 -0.940149
-0.484875 0.102322 0.335519 -0.952844 -0.420057 0.076380
-0.569014 -0.055551 0.940133 0.058585 0.273353 -0.998227
-0.686723 -0.116418 0.868118 0.943538 0.408164 -0.155438
0.369446 0.287609 -0.621954 0.439332 -0.941696 0.152176
0.808955 -0.066209 0.748158 -1.011303 0.236323 0.129401
0.652116 -0.051621 -0.181502 -1.030426 0.165969 0.041877
-0.451346 0.090023 0.642813 -1.012629 -0.284735 -0.059986
0.599166 -0.194312 -0.296831 -0.972288 0.378424 0.080113
0.805881 0.111303 0.695311 -0.938756 -0.411986 0.184507
-0.766281 -0.058573 0.448638 1.043094 -0.018533 -0.084776
-0.771242 -0.146629 -0.062811 0.856441 0.600248 -0.027414
0.501416 0.124746 -0.896364 -0.469674 -0.505681 0.789948
0.805939 0.100823 0.925863 -0.941334 -0.442558 0.057728
0.499569 0.221811 0.686620 0.721279 -0.757950 -0.083289
0.330286 0.230936 -0.850057 0.032954 -0.998003 0.354297
-0.510192 0.187458 -0.470762 0.060707 -0.703361 0.777649
-0.715095 -0.202177 0.159273 0.801316 0.667807 -0.031910
0.109573 0.058184 -0.543688 -0.018279 -0.244461 1.020419
-0.749255 -0.018488 0.520345 1.042906 -0.005964 -0.086302
-0.489152 -0.144985 0.387305 -1.004197 0.303354 0.066221
0.574948 0.180134 -0.576734 -0.972643 -0.373756 0.055488
0.395710 0.251598 -0.187768 0.503615 -0.657288 -0.632472
0.372859 0.157073 -0.907069 -0.040691 -0.743185 0.740296
-0.523717 -0.202385 0.470938 -0.738431 0.749309 0.076741
-0.804411 -0.024440 -0.215582 1.044925 0.080586 -0.016116
-0.176118 0.216294 -0.369967 0.063589 -0.911888 -0.504956
-0.450771 -0.058686 0.617948 -1.051988 0.061331 0.042420
-0.783813 -0.009796 0.193682 1.043931 -0.002756 -0.068488
0.258672 -0.094367 -0.707541 1.008933 0.258294 0.163876
-0.679866 0.113688 -0.451304 0.454243 -0.378919 0.867842
0.825291 -0.048919 0.748335 -1.013223 0.214833 0.134580
0.440679 0.241724 0.082443 0.765346 -0.708957 -0.078411
0.565604 0.265161 0.423929 -0.063671 -1.034209 0.179544
-0.635315 -0.230585 0.734280 0.632312 0.836595 -0.013273
0.606084 0.092206 -0.603012 -0.972845 -0.375783 0.065486
0.556518 0.236623 -0.386257 -0.747182 -0.727765 0.045124
-0.523704 0.206096 0.490551 -0.795567 -0.675145 0.101234
0.499272 -0.261725 0.075724 -0.072974 1.049649 -0.011964
-0.782556 0.089339 -0.194442 0.971092 -0.398028 -0.022477
0.347248 -0.295447 -0.498766 0.205695 0.971092 0.349724
0.455438 -0.281837 -0.704262 -0.684267 0.793188 0.075972
-0.706824 -0.104740 0.834394 0.943042 0.387869 -0.205581
0.208793 -0.072284 -0.166681 0.129237 0.208399 -1.018776
0.081400 -0.092185 -0.523937 -0.043812 0.462695 0.940503
0.751922 0.208327 0.769414 -0.813199 -0.597344 0.259863
-0.671662 -0.166656 0.881586 0.644149 0.737756 -0.362032
0.408405 -0.174916 0.250759 0.955171 0.401521 -0.135613
0.332512 -0.005447 0.033948 1.024565 0.193823 -0.067055
0.571757 -0.221506 0.802229 0.295886 0.940670 -0.344933
-0.439947 0.137862 -0.262777 -0.583083 -0.553055 -0.666322
0.269445 0.061416 -0.822526 1.013089 -0.290220 0.056938
0.455817 0.037136 0.723306 1.043675 0.108815 -0.105128
-0.488745 0.196399 -0.461248 0.059755 -0.698475 0.782798
0.696020 -0.044409 0.168640 -1.032426 0.106034 0.109278
-0.659389 0.207507 0.786496 0.677360 -0.799248 -0.049240
0.781628 -0.152362 0.644651 -0.861846 0.403181 0.425435
-0.674336 0.226531 0.369942 0.718220 -0.753945 -0.072910
-0.730868 0.194093 0.179373 0.700671 -0.772120 -0.075070
0.379748 0.196334 -0.021844 0.761820 -0.710528 -0.080201
-0.668858 -0.020040 0.956721 0.014113 0.061553 -1.038401
-0.174742 0.174856 -0.483640 0.042904 -0.681535 0.796969
0.065383 0.083436 -0.532156 -0.013391 -0.202122 1.030276
0.659739 0.040038 -0.067341 -1.040744 0.045355 0.058286
-0.665287 0.218575 0.578884 0.713099 -0.762085 -0.079684
0.616758 -0.260306 0.555616 -0.167921 1.018915 0.199108
-0.583347 -0.237375 -0.122985 -0.684093 0.798956 -0.067268
-0.767512 0.012012 0.352558 1.033627 -0.068038 -0.103242
0.108532 0.086115 -0.535990 -0.014517 -0.253774 1.017141
-0.716399 -0.217272 -0.228128 0.674697 0.794435 0.111803
-0.585284 -0.180816 0.881258 -0.018890 0.629040 -0.830826
0.249487 0.097128 -0.660620 1.029343 -0.208709 0.102229
0.516939 0.013525 0.924078 0.965735 0.249569 -0.313112
-0.711506 0.082153 0.814470 1.030190 -0.080519 -0.122687
0.387714 0.055086 -0.935637 0.036986 -0.334458 0.997435
0.398902 -0.262704 -0.775049 0.531837 0.898458 0.106155
0.636593 -0.076640 -0.320628 -1.033251 0.160909 0.037811
0.033132 0.038666 -0.543959 -0.017043 -0.247235 1.018893
0.265736 -0.269458 -0.286067 0.398440 0.827647 -0.497152
-0.793388 -0.083695 0.023377 1.048990 0.042652 -0.043713
0.806560 0.059077 0.727544 -1.027835 -0.156659 0.059386
0.602955 0.174219 -0.298641 -0.966945 -0.376016 0.088304
-0.452845 0.098548 0.451030 -0.956547 -0.261862 0.335779
0.425471 0.037361 0.627029 1.042963 0.112197 -0.082315
-0.282170 0.074083 -0.526168 -0.000739 -0.193972 1.032096
0.402200 -0.220613 0.007794 0.833432 0.623494 -0.087527
0.475240 0.284962 -0.253963 -0.095847 -1.047501 0.019456
0.278786 -0.277630 -0.492857 0.243295 0.967507 0.331002
-0.555492 0.214444 0.174871 -0.739825 -0.724037 0.148840
0.367960 0.003306 0.332972 1.020900 0.225699 -0.083269
0.687210 0.090263 0.156280 -1.010776 -0.239510 0.104573
-0.188975 -0.106856 -0.511813 0.005290 0.463056 0.942301
-0.476154 -0.120908 0.435492 -0.955466 0.296663 0.331966
-0.527186 0.221685 0.620018 -0.803397 -0.669811 0.101512
0.604924 -0.258762 0.659802 0.169714 1.034485 0.060155
-0.797172 -0.070441 -0.180053 1.046983 0.068013 -0.022608
0.659544 0.138114 0.099313 -1.013652 -0.227492 0.097263
0.369917 0.244298 -0.193540 0.373969 -0.662154 -0.713583
-0.742085 0.012421 0.558066 1.040806 -0.018375 -0.073520
0.777827 0.141094 0.940441 -0.845713 -0.455312 -0.395164
0.587328 0.013271 -0.800226 -1.032924 -0.156041 0.067623
0.362471 0.082231 -0.924369 0.036637 -0.320978 1.000409
0.350282 -0.145929 -0.003227 0.844888 0.608273 -0.089449
0.764424 0.126050 0.520917 -0.935130 -0.380565 0.252492
0.092701 -0.214740 -0.287205 0.327802 0.806472 -0.572565
-0.309078 0.122089 -0.518300 0.105330 -0.426524 0.953212
-0.170618 0.158397 -0.301060 -0.096119 -0.398921 -0.958866
0.517195 -0.258480 -0.492400 -0.713389 0.766297 0.104434
0.324124 -0.225994 -0.729693 0.896736 0.502349 0.224242
0.669237 0.019113 0.007839 -1.037115 0.079360 0.089264
0.589689 -0.005316 -0.737045 -1.043625 0.090289 0.071071
-0.453516 -0.032908 -0.209690 -0.492873 0.003212 -0.922960
0.800861 -0.074883 0.601760 -0.996570 0.143072 0.279480
-0.605306 -0.249924 0.610901 0.141771 1.035770 0.117829
0.670418 -0.010183 0.028907 -1.036545 0.001493 0.118227
-0.767898 0.008654 0.314671 1.036853 0.002279 -0.116060
-0.734293 0.154769 -0.386683 0.705348 -0.732419 0.251700
-0.349701 0.159336 -0.497665 0.119071 -0.430012 0.949214
0.562319 -0.167726 -0.747902 -1.019364 0.235325 0.070636
0.709932 -0.032937 0.232077 -1.032443 0.111513 0.108448
-0.709323 0.242780 -0.210738 0.141632 -1.026248 -0.160593
-0.602078 -0.250635 -0.103401 -0.252267 1.019837 0.050149
0.137153 0.195112 -0.487594 -0.137164 -0.421428 0.947406
-0.615026 -0.234338 0.058543 -0.289412 0.995531 0.191154
-0.611466 -0.247238 -0.124853 -0.244105 1.022879 0.045198
0.510910 -0.021616 0.928770 0.971645 0.240329 -0.304605
-0.580521 -0.225492 0.291466 -0.388354 0.957399 0.217322
0.345691 -0.009723 0.174964 1.019378 0.220907 -0.070227
0.156444 0.037166 -0.176698 0.072557 -0.153578 -1.033167
-0.763005 0.086707 0.320814 1.010389 -0.209975 -0.131110
-0.242717 0.046076 -0.267326 -0.010280 -0.088574 -1.040838
0.250709 0.292299 -0.359975 0.220464 -1.027385 -0.023856
-0.617550 0.109062 0.939737 -0.094792 -0.202325 -1.008898
0.675637 -0.022657 0.060155 -1.034345 0.112968 0.085078
-0.588094 -0.186652 0.885846 -0.028407 0.601007 -0.854552
0.823675 0.017264 0.947161 -1.043301 -0.080717 0.059608
-0.795361 -0.092706 0.017464 1.003397 0.293300 0.053440
0.373648 0.141053 -0.903579 0.381728 -0.508868 0.839640
-0.716240 -0.103619 0.860109 1.009794 0.272282 -0.032158
0.303159 -0.288411 -0.491506 0.248048 0.965450 0.335429
0.645753 0.013642 -0.341065 -1.043672 0.041335 0.037893
-0.285476 -0.152086 -0.285541 -0.003954 0.273069 -1.011289
-0.794856 -0.037611 0.104653 1.045501 -0.013093 -0.050651
-0.448116 -0.150200 -0.490975 0.042178 0.479262 0.934345
0.274103 -0.087983 -0.794620 1.015629 0.199232 0.218993
0.420345 0.216111 -0.857483 -0.052799 -0.740818 0.742080
0.132099 -0.069477 -0.184971 0.110808 0.204800 -1.021599
0.801649 -0.048041 0.567800 -0.991227 0.152777 0.278379
-0.611720 -0.225616 -0.388395 0.354078 0.874520 0.462600
-0.596874 0.251979 0.459218 -0.345149 -0.989849 0.107880
0.358427 0.036399 0.239174 1.036526 -0.112425 -0.101502
0.504806 -0.146588 -0.899221 -0.325755 0.610894 0.791715
0.265720 0.114275 -0.732158 0.974760 -0.397198 0.050119
-0.460432 0.097110 0.820670 -1.006475 -0.298642 -0.065023
0.467977 -0.193860 0.607569 0.855769 0.237486 -0.539609
0.377255 -0.055297 0.431221 1.020995 0.225819 -0.087588
-0.761227 -0.161335 -0.121857 0.855127 0.602507 -0.027097
0.640257 -0.054899 -0.332375 -1.034487 0.153531 0.032182
-0.632205 -0.247645 0.436558 -0.022077 1.051305 -0.038220
0.135597 -0.148772 -0.208561 0.110037 0.466182 -0.931062
-0.019841 0.011694 -0.545164 -0.011497 -0.187284 1.034765
0.351994 -0.307168 -0.391515 0.138688 1.041499 0.059108
0.647610 -0.112008 -0.091083 -1.012782 0.252555 0.037245
0.517079 0.069821 0.893898 0.932674 -0.295513 -0.369402
-0.719735 0.067142 0.725676 1.034376 -0.064768 -0.085637
0.369834 0.278986 -0.678825 0.213937 -1.027868 0.054481
0.606258 -0.009812 -0.695666 -1.036021 -0.118839 0.107142
0.626692 0.121654 -0.387354 -0.983356 -0.343806 0.058428
-0.762794 -0.013839 0.347377 1.041827 -0.008229 -0.081838
0.770486 0.007600 0.440140 -1.022212 -0.049882 0.203194
-0.180151 -0.129394 -0.281768 0.007682 0.274072 -1.011459
-0.718346 0.015373 0.868153 1.024324 -0.130035 -0.166214
-0.656091 0.223784 0.716217 0.678233 -0.794149 -0.055444
-0.454397 -0.031059 0.375294 -1.008512 0.307145 0.090992
0.843219 0.003919 0.880767 -1.035345 -0.100656 0.088337
0.381768 0.275778 -0.710619 0.216539 -1.026431 0.061986
0.572248 0.144394 -0.695175 -0.972202 -0.378948 0.060673
-0.800660 -0.026563 -0.119547 1.046705 0.073636 -0.013522
0.632400 0.069356 -0.481685 -1.032929 -0.099191 0.123778
0.592070 -0.226965 0.802281 0.409879 0.904869 -0.311096
-0.686201 0.218057 0.306650 0.718020 -0.755080 -0.071691
0.037255 -0.161966 -0.262368 0.222731 0.601449 -0.822355
0.183605 0.209098 -0.512872 0.336700 -0.270294 0.961026
-0.789231 -0.001373 0.181402 1.044327 0.009856 -0.065809
-0.467487 -0.139751 0.793626 -1.004524 0.310197 -0.001086
0.662281 0.144321 0.127324 -0.929451 -0.468889 0.057341
0.507857 0.036476 0.885687 0.942962 -0.283715 -0.355108
-0.421537 -0.204977 -0.457004 0.022213 0.539274 0.906278
0.319622 0.130486 -0.081877 0.828326 -0.473113 -0.431801
-0.717200 -0.089498 0.894095 0.936801 0.393161 -0.229981
0.655685 -0.049602 -0.139057 -1.041738 0.075145 0.055262
-0.406469 0.198252 -0.463035 0.067644 -0.695298 0.784052
-0.543059 0.241969 -0.296501 -0.420512 -0.959370 -0.066585
0.671787 -0.099016 0.095484 -1.030274 0.143235 0.092830
0.814485 0.021585 0.663561 -1.024679 -0.094997 0.171183
-0.503581 -0.149815 0.289534 -0.876752 0.522656 0.255782
0.661271 0.053425 -0.082791 -1.019100 -0.216354 0.096277
-0.519945 -0.122496 -0.503616 0.030026 0.497242 0.925853
-0.439439 -0.018224 0.631453 -1.045041 0.064123 0.095800
0.508608 0.230136 0.581753 0.679493 -0.799075 -0.015620
-0.698260 0.221764 0.176489 0.713310 -0.757953 -0.074134
0.585278 -0.220335 0.835823 0.146939 1.007797 -0.228740
0.279665 0.199965 -0.630672 0.957455 -0.429612 0.054942
0.116148 0.058996 -0.191388 0.079751 -0.150371 -1.032536
-0.715936 -0.197703 0.315249 0.782655 0.692097 -0.032828
0.056726 0.088169 -0.219328 0.287461 -0.136575 -0.990911
0.639992 -0.098816 -0.210101 -1.029339 0.177316 0.041865
0.822517 0.046244 0.799540 -1.032517 -0.110079 0.101154
-0.460505 0.075293 0.843924 -1.034798 -0.202498 0.011462
-0.486375 0.118369 0.885015 -0.905737 -0.392682 -0.340147
-0.660939 0.213200 0.760311 0.655567 -0.816948 -0.056500
0.104972 -0.077158 -0.201598 0.472627 0.091132 -0.925743
-0.471942 -0.097109 0.373912 -0.952045 0.315100 0.320870
-0.472775 0.004356 0.895147 -0.858484 0.013709 -0.601970
-0.619168 -0.224496 -0.380834 0.351394 0.871983 0.470168
0.585003 0.231783 0.185416 -0.345684 -0.954389 0.269723
0.575964 -0.129423 -0.695397 -0.985938 0.332207 0.120295
-0.768289 0.082547 0.329733 0.981590 -0.246084 -0.250220
0.565688 0.198030 0.898195 0.949983 -0.387892 -0.188311
-0.770386 -0.086037 -0.350631 1.002496 0.282329 0.119739
0.651211 -0.070570 1.006790 0.430342 0.254575 -0.909009
-0.465572 0.077197 0.401614 -0.955977 -0.268007 0.336248
-0.533144 -0.211132 0.806114 -0.636323 0.834428 -0.069627
-0.785782 0.069303 -0.067687 0.960970 -0.415657 -0.012518
-0.641257 0.173070 0.919663 0.052600 -0.598708 -0.849669
0.170674 -0.191623 -0.487217 -0.056564 0.487245 0.927900
-0.319914 0.225307 -0.428210 0.023774 -0.871104 0.586065
-0.474835 -0.108525 -0.267776 -0.588659 0.614886 -0.608949
0.584858 -0.166980 -0.582971 -0.904235 0.434372 0.309756
0.739669 0.197395 0.852943 -0.687311 -0.780183 -0.102222
-0.792175 0.004460 -0.238780 1.018275 -0.253401 0.018648
0.396649 0.179079 0.193258 0.775175 -0.697788 -0.079104
-0.708360 0.173392 0.762321 0.718577 -0.766629 -0.042753
0.770508 -0.116333 0.564604 -0.999577 0.278115 0.109191
0.367029 0.303149 -0.517965 0.272127 -1.006487 0.105692
-0.727242 -0.207039 -0.162471 0.795722 0.679018 0.022494
0.710026 0.104126 0.261500 -0.987512 -0.313232 0.095591
0.346042 0.066534 -0.922557 0.036353 -0.362142 0.982340
0.374708 -0.202007 -0.863953 0.322161 0.821100 0.575568
-0.591004 0.053866 0.966330 0.055408 0.071579 -1.026381
-0.489180 -0.059886 0.916221 -0.477389 0.272186 -0.889190
-0.736375 -0.060022 0.815434 1.014252 0.233527 -0.025838
-0.279525 0.182765 -0.319620 -0.146615 -0.672798 -0.781900
0.601755 -0.106220 -0.634236 -0.950545 0.365741 0.243578
0.356279 -0.286972 -0.547797 0.212129 0.973850 0.341656
-0.505381 0.097996 0.072568 -1.046378 0.034344 0.030851
-0.230603 0.118748 -0.286360 -0.118074 -0.377658 -0.965617
-0.680968 -0.122346 -0.452522 0.719463 0.379813 0.662471
0.531163 0.165168 0.848068 0.885575 -0.372485 -0.397739
-0.681800 0.222610 0.359339 0.714961 -0.756633 -0.070656
0.742977 0.055746 1.001742 -0.618791 -0.035487 -0.835284
-0.253593 0.086143 -0.546434 0.008564 0.052115 1.046634
0.476587 -0.221374 0.512831 0.830756 0.623018 -0.135256
0.476613 -0.256903 -0.744380 -0.621328 0.842919 0.090774
0.383129 -0.001897 0.445285 1.045013 0.090939 -0.074457
-0.742028 -0.183139 -0.080338 0.855046 0.602373 -0.030337
-0.743141 -0.066895 0.565697 1.036725 0.079889 -0.060463
0.132797 0.119093 -0.525730 0.341683 -0.272061 0.958772
0.033430 0.136366 -0.239990 0.067980 -0.188991 -1.023666
-0.363414 -0.086211 -0.520429 0.042305 0.452220 0.948290
0.287755 -0.251752 -0.552853 0.642908 0.793495 0.245843
0.457896 -0.249209 0.141948 0.619444 0.839333 -0.039163
-0.604013 0.255024 0.642549 0.075141 -1.048888 -0.056658
0.474657 0.127013 -0.908853 -0.460638 -0.496070 0.802570
-0.673951 0.205573 0.744452 0.710830 -0.767232 -0.051084
0.807398 -0.083314 0.821612 -1.011073 0.236455 0.116724
0.775904 -0.164789 0.735290 -0.873218 0.538287 0.183335
0.632323 0.157626 0.969441 0.330424 -0.491742 -0.849333
-0.784620 0.052992 -0.267465 1.020371 -0.246538 0.008706
0.588903 0.094064 0.953620 0.758266 -0.159583 -0.686259
0.366124 0.174592 0.031221 0.765309 -0.707541 -0.077617
0.336090 0.045452 0.083814 1.032963 -0.133499 -0.081509
0.647242 -0.246700 0.529688 -0.454273 0.943166 0.008094
0.057273 0.177053 -0.279056 0.580730 -0.591540 -0.635028
0.513248 -0.263691 -0.011781 -0.071112 1.049254 -0.012800
0.077969 -0.120183 -0.512984 -0.041169 0.466855 0.937850
0.625167 -0.162491 -0.098861 -0.888290 0.553301 0.034900
0.503467 0.258662 -0.587186 -0.660686 -0.803033 0.085799
-0.311588 -0.147568 -0.281976 -0.011282 0.283791 -1.007563
-0.538619 -0.088890 0.925113 0.107751 0.129280 -1.017101
-0.734349 0.102868 0.549868 1.004438 -0.251696 -0.126246
0.666281 0.239814 0.874656 -0.433818 -0.885568 -0.334738
-0.610494 -0.254589 -0.300908 -0.211947 1.030302 0.055151
0.571527 0.057218 0.955964 0.718182 -0.148970 -0.741016
0.625371 0.247120 0.851130 -0.049147 -1.029716 -0.216248
-0.647860 0.259226 0.172968 -0.175048 -1.031962 -0.075229
-0.549513 -0.239012 0.774133 -0.629472 0.835977 -0.114478
-0.700061 -0.152887 -0.418903 0.305776 0.641533 0.777607
-0.295156 0.181919 -0.323291 -0.140170 -0.659848 -0.794167
-0.765983 0.038621 0.505857 0.998922 -0.263310 -0.166574
0.490872 0.219433 0.546035 0.682458 -0.795313 -0.019915
0.642656 0.058556 -0.290762 -1.042520 0.071153 0.032790
0.554962 -0.229108 -0.465896 -0.685928 0.790553 0.086336
-0.450337 -0.086828 0.844757 -0.991905 0.343364 -0.041383
0.116445 0.000345 -0.539040 0.449507 0.034776 0.958994
-0.773803 -0.137931 -0.299081 0.820622 0.651738 0.030295
-0.307109 -0.073529 -0.525161 0.029713 0.471171 0.939322
-0.544092 0.244693 0.793428 -0.554261 -0.836146 -0.295263
-0.621775 -0.239813 0.059250 -0.261889 1.016738 0.070252
-0.637604 0.157654 0.912553 0.052329 -0.591256 -0.854083
0.580669 -0.075217 0.958381 0.552048 0.203314 -0.859580
0.321077 0.257979 -0.229075 0.301619 -0.828992 -0.553641
0.240217 -0.048008 -0.673413 1.019503 0.242670 0.108365
0.294299 0.302131 -0.426254 0.204999 -1.028152 0.047328
-0.637181 0.215871 -0.391725 0.278263 -0.821337 0.592524
0.800226 -0.044418 0.602549 -1.009125 0.194455 0.184059
0.465506 0.194216 0.616926 0.681561 -0.796378 -0.018088
0.586117 0.025253 0.972666 0.731758 -0.211040 -0.708229
-0.632058 0.008025 0.960769 0.036415 0.058554 -1.038813
-0.696908 -0.179644 0.802328 0.618585 0.850954 -0.011375
0.479516 -0.210358 -0.848001 -0.358674 0.716809 0.682222
0.250689 0.268945 -0.491423 0.618524 -0.833337 0.138925
0.791921 0.005419 0.995592 -0.687861 0.049069 -0.770909
-0.643252 -0.198191 0.875636 0.463612 0.818749 -0.449825
-0.465426 0.096124 -0.519912 0.071654 -0.393577 0.970691
-0.728823 -0.187852 0.337621 0.795500 0.681815 -0.031154
0.521991 -0.221024 -0.752379 -0.843465 0.620786 0.072671
-0.663516 -0.207884 0.772885 0.618229 0.848862 -0.014009
0.633613 0.112395 -0.215541 -1.005771 -0.279006 0.042247
0.361772 -0.031321 -0.927383 0.076191 -0.050847 1.045921
0.498559 -0.026006 0.884461 0.971073 0.241222 -0.313844
0.275362 0.193605 -0.183855 0.346432 -0.691624 -0.696170
-0.352338 -0.236582 -0.394258 -0.148912 1.005271 -0.261896
-0.364055 -0.031861 -0.538979 0.040345 0.453145 0.949673
-0.690316 -0.211471 0.410403 0.739716 0.739562 -0.031001
-0.476234 -0.139142 0.457042 -0.957452 0.302452 0.317265
0.738807 -0.199773 0.663277 -0.867919 0.538530 0.206461
-0.794474 -0.003003 -0.170636 1.055475 -0.038493 -0.027340
0.626062 -0.149544 -0.165591 -1.022338 0.211842 0.059522
-0.433327 0.124492 -0.509560 0.099172 -0.461454 0.935898
-0.553840 0.244495 -0.305584 -0.424298 -0.962249 -0.066317
0.509126 0.064335 0.854250 0.947977 -0.342645 -0.273312
-0.447362 0.030875 -0.537882 -0.012648 0.032615 1.049895
0.172846 -0.208570 -0.485140 0.284712 0.620044 0.801166
0.369305 0.224534 -0.165832 0.426078 -0.666738 -0.674035
0.514074 -0.101312 -0.904970 -0.610697 0.431801 0.738490
0.596616 0.052031 -0.740305 -1.045324 0.057041 0.066613
0.210474 -0.223626 -0.243486 0.384879 0.831485 -0.497782
-0.665049 0.261350 -0.203031 0.134975 -1.026051 0.192691
0.707637 0.216844 0.893370 -0.669168 -0.792047 -0.144295
0.278559 -0.088405 -0.817849 1.021504 0.203529 0.196959
0.395826 -0.047374 0.503300 1.026005 0.206221 -0.096540
0.813923 0.104737 0.903279 -0.931776 -0.460244 0.052713
-0.731737 0.047165 0.612845 1.041099 -0.007257 -0.075913
-0.462361 0.099776 0.815743 -1.008839 -0.289939 -0.068086
-0.625527 0.139344 0.908260 0.049136 -0.581765 -0.859379
0.628122 0.149764 -0.154160 -0.934804 -0.451158 0.092913
0.641311 0.019696 -0.446616 -1.040805 -0.070633 0.072463
-0.211090 0.055861 -0.534403 -0.004958 -0.227123 1.024514
0.810457 -0.093624 0.714747 -1.011401 0.235423 0.116294
0.120603 -0.209303 -0.463754 0.018771 0.881736 0.573162
0.463497 0.204613 0.511285 0.680221 -0.795123 -0.020303
-0.533658 -0.056720 -0.523189 0.103347 0.391561 0.968244
0.738949 0.205561 0.796870 -0.685750 -0.779513 -0.102825
-0.377927 0.239554 -0.374789 -0.130111 -0.701657 -0.755515
0.579735 0.047466 0.979712 0.671658 -0.187765 -0.773959
0.545865 0.216744 -0.617774 -0.694348 -0.692570 0.377235
-0.661602 -0.225998 0.607903 0.700857 0.780155 -0.010471
0.309776 0.048779 -0.923574 0.404721 0.018548 0.975435
-0.681653 -0.243283 0.040515 0.445892 0.943059 -0.061113
0.452932 0.023460 0.724512 1.035538 0.138966 -0.108035
-0.749135 -0.097046 0.478636 1.017726 0.219684 -0.051454
-0.515368 -0.118078 0.112306 -0.956537 0.429399 -0.101690
0.210061 -0.221433 -0.536864 0.449053 0.883145 0.354740
0.652250 -0.241439 0.503880 -0.463174 0.937922 0.015413
-0.487045 -0.202983 0.485109 -1.010054 0.297020 0.024328
-0.266443 0.055277 -0.269993 -0.007527 -0.115386 -1.036341
-0.170130 -0.081571 -0.523451 0.008782 0.462202 0.943133
