ply
format ascii 1.0
element vertex 512
property float x
property float y
property float z
property float nx
property float ny
property float nz
end_header
0.303419 0.272305 -0.588228 -0.187273 -0.902517 0.484258
0.248395 -0.116407 -0.738806 -0.153586 0.166500 1.015752
0.709451 0.110063 -0.491274 -0.589454 -0.403886 0.758356
0.635473 -0.252841 -0.403566 -0.155728 0.996031 0.253386
0.637674 -0.115565 -0.167274 -0.419972 0.448736 -0.838560
-0.062328 -0.205645 0.691266 0.796932 0.647385 -0.119575
0.260432 -0.186559 0.803039 -0.890113 0.532725 0.065954
-0.527705 0.091095 -0.714515 0.756668 -0.404376 0.590106
-0.011517 -0.006265 -0.177509 0.753481 -0.005452 -0.702866
0.311948 0.286513 -0.566280 -0.182043 -0.879840 0.529038
0.281981 -0.165370 0.911957 -0.897715 0.521766 -0.002001
-0.017893 0.091074 -0.200990 0.753637 -0.192673 -0.678846
0.255602 -0.114068 1.086233 -0.425847 0.543099 -0.771798
0.706111 -0.170712 -0.300386 -0.687495 0.531962 -0.583434
-0.056097 -0.232589 0.619260 0.835530 0.593844 -0.154330
0.590494 0.248379 -0.289478 -0.481604 -0.776874 -0.504932
0.464541 0.314263 -0.391545 -0.166749 -1.002766 -0.243324
-0.394378 0.235418 -0.123747 0.475024 -0.855766 -0.339266
-0.617366 -0.082079 -0.518834 1.012487 0.169240 0.125370
-0.307299 -0.086518 0.170932 0.923620 0.240997 -0.393161
-0.610149 -0.118646 -0.517996 0.955372 0.388763 0.043048
-0.483163 0.013962 -0.043815 0.880799 -0.062745 -0.533405
-0.050114 0.262655 0.463584 0.171928 -1.025274 0.020213
0.794221 -0.033625 -0.427082 -0.848671 0.260250 0.549152
0.621481 -0.033898 -0.573760 -0.559026 0.301566 0.825188
-0.281069 -0.238404 -0.205594 -0.778490 0.689926 -0.040198
0.225217 0.146847 -0.735901 -0.047408 -0.551530 0.880306
-0.577578 0.142986 -0.607024 0.731940 -0.396234 0.625460
-0.268060 -0.128900 -0.772231 0.088377 0.553618 0.877094
0.195952 0.016464 -0.115800 -0.013274 0.072800 -1.036961
0.061897 0.105215 -0.757458 -0.060953 -0.135545 1.030874
0.271052 0.202997 0.962336 -0.918964 -0.474006 0.008504
-0.067158 -0.088382 -0.262274 0.707462 0.200684 -0.722659
-0.492865 -0.178756 -0.144904 0.691952 0.538844 -0.544997
-0.602303 0.113495 -0.593239 1.013983 -0.116526 0.164063
-0.072540 -0.092127 0.842580 0.996081 0.024909 -0.271629
0.460426 0.296988 -0.324751 -0.146509 -1.016340 -0.188171
-0.206884 -0.257655 -0.669214 -0.022538 0.824605 0.635709
0.129353 0.235544 -0.677356 -0.085200 -0.818298 0.635349
-0.328569 -0.257452 -0.324888 -0.470213 0.829193 -0.413639
0.605237 -0.222608 -0.248609 -0.664083 0.532996 -0.601951
-0.402336 -0.292083 -0.383865 0.233551 1.005003 -0.109845
0.612582 -0.253655 -0.327004 -0.291508 0.960232 -0.270919
-0.605088 -0.150291 -0.442549 0.947334 0.403826 0.060684
0.198340 -0.188424 1.055744 -0.246043 0.732670 -0.680427
0.062468 0.086282 1.092816 0.547073 -0.178569 -0.844762
0.254695 0.311152 -0.312214 0.058431 -0.898895 -0.518305
-0.551105 -0.175258 -0.221504 0.785506 0.499334 -0.456726
0.323097 0.299999 -0.298414 0.057196 -0.903047 -0.514611
-0.478494 0.195644 -0.160265 0.641555 -0.581138 -0.572153
-0.004172 0.038895 -0.175539 0.755728 -0.026027 -0.699867
-0.244516 0.144433 -0.748116 0.019578 -0.507348 0.909155
0.201529 0.251459 0.719071 -0.637271 -0.781836 0.245401
-0.009784 -0.179416 0.260956 -0.526021 0.701573 0.559498
0.371248 0.179076 -0.668128 -0.519367 -0.516777 0.742733
0.466465 -0.203564 -0.586072 -0.584490 0.505933 0.701518
0.227946 0.082696 -0.751846 -0.084884 -0.111163 1.034958
-0.282056 -0.235131 -0.327068 -0.468694 0.822622 -0.423134
0.262421 0.183160 -0.706183 -0.169284 -0.742242 0.711920
0.540174 0.290619 -0.360084 -0.208230 -0.997196 -0.231635
-0.042162 0.185554 0.852059 0.871725 -0.285817 -0.455801
0.058836 0.078533 0.276616 -0.888043 -0.375119 0.378458
-0.240123 0.215671 -0.339270 -0.436649 -0.855010 -0.390188
-0.421075 -0.020934 0.025779 0.798083 0.142076 -0.640498
0.156442 -0.033465 -0.116573 0.005494 0.092441 -1.032195
-0.060271 -0.040246 0.898350 1.017345 -0.032703 -0.174605
0.005278 0.274196 0.543674 0.177561 -1.024945 0.013423
0.280031 -0.216419 -0.193688 -0.021231 0.727582 -0.738588
-0.051777 -0.058804 0.131297 -0.873082 0.355631 0.438545
-0.123129 0.146121 0.599143 1.004361 -0.212323 -0.154176
0.276861 -0.031120 1.098291 -0.639713 0.123571 -0.804495
-0.218952 -0.288799 -0.626578 -0.006900 0.877875 0.559510
0.204986 -0.339538 -0.380654 0.160661 0.889361 -0.500388
0.017928 -0.116735 0.253826 -0.856532 0.559374 0.184634
0.303659 0.145883 0.864726 -0.921689 -0.473205 0.058682
0.250770 -0.181977 1.059622 -0.528772 0.607038 -0.644722
-0.052106 0.112660 -0.254610 0.783891 -0.230701 -0.631458
-0.388005 0.138982 -0.745162 0.124079 -0.535814 0.882254
0.232548 -0.053059 0.520467 -0.818771 0.334303 0.542705
-0.626038 0.027875 -0.368642 0.979306 -0.327862 -0.096033
-0.079882 0.033311 0.839951 0.974379 -0.002417 -0.335562
-0.058903 0.122610 0.854661 0.865493 -0.288979 -0.469286
-0.148774 -0.076505 0.575151 0.980908 0.276721 -0.186359
-0.033582 -0.083826 0.153943 -0.700549 0.394800 0.660698
-0.461519 0.240969 -0.222228 0.425872 -0.883451 -0.343508
0.021923 0.127516 -0.751080 -0.054798 -0.135964 1.031090
-0.532026 0.255986 -0.437665 0.466151 -0.894784 0.262472
0.249253 -0.198127 0.777164 -0.903129 0.510691 0.048865
-0.394211 0.142831 -0.739193 0.105010 -0.584690 0.853106
0.526981 0.196469 -0.192512 -0.119560 -0.640644 -0.810149
0.310578 -0.119695 1.009675 -0.917162 0.481189 -0.060529
-0.102101 0.155101 -0.741222 0.013899 -0.537398 0.891602
0.359498 -0.283488 -0.553194 -0.269926 0.874761 0.497515
0.376916 -0.302004 -0.302140 -0.015878 0.880030 -0.545186
-0.249827 0.237240 -0.686479 0.084548 -0.611256 0.838640
0.257944 0.061801 1.111594 -0.513294 -0.183988 -0.877323
-0.100341 0.177445 0.114195 -0.909819 -0.432982 0.242755
0.118847 -0.238889 -0.678066 -0.053334 0.741678 0.729531
-0.165238 -0.295974 -0.478954 0.178678 0.821040 -0.607455
0.135443 -0.207934 1.056817 0.059542 0.695582 -0.754182
-0.513249 0.177262 -0.672620 0.583566 -0.543832 0.665352
-0.045783 -0.283247 -0.419172 0.414702 0.864695 -0.383841
-0.543058 0.108575 -0.154155 0.691705 -0.477126 -0.606181
-0.357233 -0.214167 -0.029015 0.582534 0.795633 -0.302484
-0.129228 -0.106568 -0.028223 -0.897196 0.353492 0.390761
0.150309 0.279036 0.869417 -0.093014 -1.034014 -0.022422
-0.053780 0.073753 -0.241474 0.771890 -0.214772 -0.650306
0.345346 0.146122 -0.700549 -0.522229 -0.505105 0.748485
0.385414 0.031031 -0.720961 -0.480997 -0.181635 0.911861
-0.069387 0.225911 0.240121 -0.387967 -0.872281 0.397755
-0.026420 -0.332503 -0.497113 0.111536 1.012546 -0.189606
0.265068 -0.197468 0.983912 -0.917668 0.486116 -0.036787
0.300713 -0.230619 -0.643637 -0.244013 0.743546 0.691384
-0.501437 0.252593 -0.347308 0.388866 -0.903807 -0.346164
-0.032084 0.158361 0.207429 -0.621302 -0.503812 0.660086
-0.593642 -0.125696 -0.257311 1.006388 0.223402 -0.100058
0.009985 0.061209 -0.772525 -0.061686 -0.118300 1.033782
0.192325 -0.316878 -0.335593 0.058532 0.874210 -0.550782
0.279191 -0.060915 0.656388 -1.026815 0.186266 0.055645
0.257400 -0.146243 1.065038 -0.449438 0.553863 -0.739627
-0.016264 -0.338169 -0.514179 0.110423 1.008637 -0.215047
-0.170795 0.174021 0.418785 0.715130 -0.729069 -0.173957
0.698874 0.077026 -0.518876 -0.576699 -0.424303 0.753933
-0.418453 -0.293797 -0.499211 0.250182 1.007003 -0.013052
-0.301508 0.096743 -0.775225 0.095501 -0.552837 0.874927
0.327947 0.060531 0.859910 -0.993067 -0.295900 0.109202
-0.162938 0.094961 -0.134162 -0.956077 -0.227877 0.337681
-0.250817 -0.128712 0.244188 0.918127 0.249834 -0.401489
-0.082761 0.041396 0.817549 1.013335 -0.010241 -0.205365
-0.080309 0.254861 0.456577 0.180473 -1.024266 0.011768
0.045631 0.181429 1.031455 0.483173 -0.687782 -0.592968
0.226816 -0.204005 0.672206 -0.873017 0.555038 0.081939
-0.606796 0.098883 -0.315249 0.933699 -0.416591 -0.180876
0.406481 0.253559 -0.234622 0.002496 -0.745940 -0.723003
0.530873 0.151703 -0.578389 -0.563545 -0.471146 0.737345
0.180201 -0.245381 0.632759 -0.589091 0.754816 0.402101
-0.342942 -0.251987 -0.104435 0.340344 0.861026 -0.464875
-0.136931 0.140503 0.580394 1.018790 -0.165586 -0.141727
-0.104503 -0.105126 -0.314438 0.729511 0.219729 -0.694459
0.425263 0.197091 -0.183985 -0.045119 -0.601951 -0.845197
0.466473 -0.037113 -0.673974 -0.587842 0.237124 0.828945
-0.442864 0.065132 -0.780260 0.463285 0.125743 0.924856
-0.199407 0.180787 0.330412 0.572405 -0.808064 -0.296689
-0.440771 0.114824 -0.749388 0.143843 -0.572817 0.854834
-0.063715 0.078403 0.861553 1.012982 -0.013996 -0.200039
0.118961 0.121737 0.395789 -0.803506 -0.209251 0.621881
-0.392719 0.281327 -0.284501 0.008558 -1.041792 -0.064658
0.533305 0.132283 -0.584430 -0.572381 -0.443067 0.748859
0.623808 0.268006 -0.395122 -0.289376 -0.978128 -0.233992
-0.543526 0.166113 -0.646516 0.729731 -0.413231 0.614590
0.297364 -0.133504 1.037704 -0.913614 0.493798 -0.035222
0.308216 0.129964 0.983442 -0.905021 -0.485880 -0.114385
0.409503 0.051363 -0.700381 -0.427976 -0.207819 0.930758
-0.100278 -0.129613 0.703792 0.986064 0.284498 -0.142580
-0.032902 -0.006777 -0.204066 0.761528 -0.034454 -0.694082
0.003059 -0.195236 0.291940 -0.630092 0.673785 0.474942
-0.118653 -0.087185 -0.012667 -0.892247 0.349215 0.401848
0.064921 -0.213483 1.008284 0.542458 0.825840 -0.304871
0.302534 -0.261715 -0.606116 -0.268411 0.834194 0.564621
0.674749 0.222203 -0.341410 -0.537319 -0.794963 -0.412734
0.693290 -0.119658 -0.249162 -0.712252 0.446710 -0.621446
-0.459840 0.085043 -0.762766 0.151518 -0.085485 1.023053
0.361275 0.159598 -0.157052 -0.030008 -0.587004 -0.857273
0.026576 -0.226020 0.930552 0.554529 0.813228 -0.318461
-0.516824 0.257285 -0.382155 0.398266 -0.917511 -0.297940
-0.067752 0.076153 0.863874 0.983707 -0.249765 -0.185250
-0.031333 -0.275186 0.418874 0.218953 1.015797 -0.005490
-0.051891 -0.329493 -0.504106 0.108600 1.008367 -0.222498
0.084767 -0.311490 -0.588052 -0.187144 0.892478 0.499563
-0.071860 -0.009384 -0.256378 0.763333 -0.024893 -0.693074
-0.194899 -0.165491 -0.145712 -0.787303 0.624146 0.284412
0.002286 -0.296068 -0.401446 0.444490 0.819335 -0.451840
-0.526809 0.225088 -0.561099 0.527014 -0.849167 0.290045
0.324359 -0.037131 0.992665 -1.002860 0.190385 -0.205635
0.049792 -0.280135 0.529654 0.023646 1.025751 0.185983
0.008519 0.266370 0.686700 0.284030 -0.998576 -0.041983
-0.159754 0.145873 -0.074496 -0.888290 -0.460304 0.279726
-0.297128 -0.226681 -0.700310 0.233590 0.705641 0.731768
-0.384885 -0.155949 0.016086 0.819398 0.424511 -0.462483
0.157641 -0.336321 -0.531591 -0.216947 0.904648 0.471793
0.032104 0.264919 -0.653882 -0.076178 -0.804760 0.655127
0.075713 0.140212 1.077836 0.286225 -0.439215 -0.880962
-0.616643 -0.113909 -0.439101 0.958215 0.383868 0.033332
0.123250 0.049417 0.359273 -0.810951 -0.206704 0.616541
-0.053491 0.103748 0.895621 0.978932 -0.259016 -0.192143
-0.050238 0.058448 0.913801 1.019284 -0.019112 -0.189773
0.189666 0.086503 0.471610 -0.801926 -0.218740 0.622105
-0.031199 -0.136257 -0.753555 -0.067047 0.327243 0.984044
-0.094262 0.045331 -0.280876 0.766503 -0.104954 -0.678567
0.308292 0.070325 1.061711 -0.886460 -0.137013 -0.512180
0.150352 0.065046 1.122630 -0.053340 -0.130150 -1.017014
0.775135 0.107117 -0.422053 -0.854636 -0.400028 0.441092
0.729111 -0.158861 -0.441305 -0.636205 0.613577 0.558619
-0.036140 0.312185 -0.593233 -0.042333 -0.962539 0.393256
-0.381859 0.226497 -0.686966 0.126283 -0.620067 0.824952
0.564492 0.271738 -0.314691 -0.568566 -0.782615 -0.387705
0.355904 0.028508 0.876151 -0.889940 -0.082389 0.499160
0.292050 0.051525 0.659673 -0.971653 -0.335112 0.139913
-0.140418 -0.204306 -0.371989 -0.127867 0.553093 -0.863822
0.622369 0.217899 -0.266304 -0.437358 -0.762192 -0.562980
0.281748 0.172088 0.972682 -0.916288 -0.482940 -0.003401
0.198507 -0.288551 -0.604885 -0.236155 0.894587 0.477205
0.615682 0.212565 -0.262834 -0.455093 -0.773773 -0.533329
-0.543036 -0.036133 -0.727969 0.630309 0.218053 0.801537
-0.062310 -0.297728 -0.616976 -0.031305 0.812428 0.648895
-0.293437 0.265294 -0.667636 0.092083 -0.606163 0.839503
0.486935 -0.295137 -0.337115 -0.167033 0.942188 -0.399526
-0.088804 0.017653 0.797250 0.978464 0.006742 -0.328093
0.100682 0.350665 -0.503080 -0.003888 -1.041616 -0.014335
0.000015 -0.329126 -0.470532 0.415545 0.872453 -0.363632
0.186267 -0.267814 0.777881 -0.583183 0.820622 0.249507
-0.061779 -0.297500 -0.617333 -0.011728 0.882334 0.551502
-0.489277 0.263944 -0.361039 0.396000 -0.907133 -0.321780
-0.455953 -0.136669 -0.059308 0.789471 0.467333 -0.471040
0.321647 -0.218861 -0.194766 -0.030065 0.728730 -0.736149
0.462766 -0.308622 -0.348881 -0.294568 0.964070 -0.252020
-0.397139 -0.255541 -0.160412 0.159342 1.014714 -0.132311
0.030588 0.249686 0.418090 -0.522456 -0.769777 0.455276
0.355180 -0.271370 -0.567883 -0.256864 0.904535 0.449593
0.154646 0.162257 0.458236 -0.677860 -0.589724 0.517357
0.439630 -0.064203 -0.674505 -0.569107 0.194921 0.855444
0.321237 0.218245 -0.670178 -0.513789 -0.513064 0.748787
0.262706 -0.276468 -0.603177 -0.245657 0.893250 0.475971
0.078698 0.277627 -0.323957 0.373184 -0.806540 -0.537857
-0.272425 -0.233610 -0.182006 -0.652013 0.796096 0.166036
0.781257 -0.046611 -0.303965 -0.823646 0.265206 -0.589791
0.682485 0.041933 -0.535919 -0.557397 -0.148270 0.872281
-0.192221 -0.123692 -0.207346 -0.936264 0.456771 0.037522
-0.222410 -0.200636 -0.100458 -0.783239 0.684605 -0.009215
0.803529 0.017269 -0.419594 -0.860978 -0.046613 0.589274
0.200104 -0.314543 -0.562096 -0.232847 0.895951 0.480384
0.264620 -0.143279 -0.723515 -0.105043 0.323636 0.982950
-0.544438 -0.138224 -0.685468 0.924756 0.367843 0.285028
-0.023811 -0.140841 0.199232 -0.511702 0.702550 0.570655
-0.411336 0.048974 0.040619 0.860179 -0.051920 -0.568594
0.399848 0.132091 -0.142872 -0.030793 -0.575972 -0.864523
0.124576 -0.287464 0.773966 -0.233130 1.010017 0.034845
-0.614239 0.112683 -0.389977 0.931077 -0.436510 -0.125029
0.534740 0.282074 -0.286872 -0.438979 -0.761833 -0.557812
-0.031343 -0.269301 -0.651793 -0.046358 0.744373 0.726621
0.202880 0.253362 -0.644724 -0.157333 -0.874545 0.538657
-0.174008 -0.306290 -0.601023 -0.008593 0.870122 0.570718
-0.217161 -0.236644 0.006879 -0.189267 1.020772 0.030606
-0.374971 0.260938 -0.149386 0.012374 -1.039653 -0.058204
0.073989 -0.268877 0.891086 0.393324 0.916737 -0.269393
-0.220075 -0.167221 -0.288434 -0.822241 0.622523 -0.136588
0.752781 -0.036114 -0.493618 -0.610734 0.301898 0.790719
0.081668 -0.207218 0.419517 -0.685754 0.635359 0.453342
-0.375547 -0.212158 -0.697662 0.246100 0.714687 0.719172
0.215146 0.165486 1.073095 -0.236509 -0.522392 -0.859445
0.015407 -0.213096 0.937512 0.608582 0.788230 -0.275822
-0.037789 -0.205574 -0.713462 -0.025160 0.492955 0.913961
0.176005 0.045749 -0.762256 -0.071148 -0.113360 1.034945
0.319953 -0.213516 -0.657437 -0.239540 0.739264 0.699161
-0.513063 -0.232140 -0.558167 0.716773 0.712765 0.234084
-0.237342 0.196082 -0.198187 -0.689198 -0.717246 0.298127
-0.585218 -0.169804 -0.531353 0.724064 0.708130 0.243017
0.183837 0.024925 1.136553 -0.074797 -0.047699 -1.021492
0.569682 -0.007928 -0.122693 -0.123845 0.080524 -1.029761
0.189034 0.271618 0.765295 -0.848926 -0.591106 0.044403
-0.623535 0.006037 -0.569138 1.012133 -0.189502 0.061943
0.089429 -0.291652 0.683631 -0.114045 1.026426 0.133940
-0.160285 0.121531 0.494838 1.004701 -0.198147 -0.175791
-0.143091 -0.085433 0.610761 0.982812 0.028985 -0.326839
-0.597057 0.080383 -0.245480 0.940075 -0.398447 -0.184866
-0.069785 -0.225380 0.585500 0.849668 0.561235 -0.164982
-0.344921 -0.099896 0.104854 0.828797 0.311749 -0.529481
0.242140 0.173519 1.058721 -0.320224 -0.596119 -0.779015
-0.253248 0.006066 -0.792139 -0.000795 0.073962 1.036604
-0.045059 0.264434 0.511067 0.174615 -1.026312 0.022343
-0.365600 -0.304438 -0.447757 -0.108342 0.977401 -0.333478
-0.117372 -0.044096 0.699076 1.000795 0.018882 -0.272355
-0.568641 -0.213815 -0.440186 0.549188 0.872911 0.118597
0.744291 0.101571 -0.474250 -0.577673 -0.414408 0.761183
-0.243157 -0.206457 -0.314513 -0.833621 0.612136 -0.130924
0.253442 -0.234657 -0.212700 -0.010398 0.711962 -0.755126
-0.026524 0.020322 -0.780342 -0.099272 -0.209787 1.012492
0.188094 0.239865 -0.219867 0.049109 -0.742695 -0.723219
0.186429 -0.021604 -0.115527 -0.007172 0.051799 -1.038051
-0.190870 0.320248 -0.577359 -0.004689 -1.039831 0.057094
-0.440346 -0.265857 -0.242137 0.147885 1.020723 -0.127434
0.041895 -0.273589 -0.643262 -0.033754 0.789269 0.678102
0.266525 -0.038829 1.098176 -0.648388 0.082184 -0.808967
0.431190 -0.178894 -0.630414 -0.594246 0.505402 0.694387
-0.244888 0.215133 -0.172545 -0.687258 -0.721291 0.295589
-0.541161 0.226087 -0.328674 0.396349 -0.902531 -0.337194
-0.351097 -0.221641 -0.693952 0.204486 0.677330 0.768099
0.318022 0.178760 -0.694175 -0.518694 -0.516030 0.743306
0.812744 -0.062971 -0.370054 -0.854482 0.253175 -0.559839
-0.283496 0.241764 -0.343711 -0.426933 -0.858935 -0.398099
-0.190093 -0.114738 0.411495 0.967430 0.239961 -0.292436
-0.107323 -0.307821 -0.598786 -0.011806 0.890547 0.537972
0.071984 -0.083986 0.304894 -0.774347 0.357968 0.592987
0.655817 -0.214659 -0.288979 -0.690177 0.534866 -0.575360
-0.173274 -0.027624 -0.271660 -0.915104 0.317103 -0.371881
-0.034527 -0.122243 -0.230018 0.722794 0.401007 -0.615255
-0.037968 0.236681 -0.359511 0.458498 -0.798730 -0.474547
-0.374784 0.094336 0.078171 0.824791 -0.346820 -0.510160
-0.089256 -0.039752 0.027141 -1.001323 0.124964 0.255812
0.327687 0.242409 -0.636479 -0.349277 -0.914026 0.347967
-0.336285 -0.211153 -0.707741 0.221559 0.695103 0.746839
-0.419794 -0.288895 -0.367645 0.164222 1.019987 -0.096748
0.268863 -0.319446 -0.527579 -0.274537 0.884977 0.477912
-0.591799 0.055732 -0.217158 0.963114 -0.339488 -0.186475
-0.625957 -0.029816 -0.526446 1.023146 0.028137 0.162638
0.266032 -0.284619 -0.591498 -0.239119 0.904845 0.457201
-0.068824 0.340226 -0.520270 0.309696 -0.916446 -0.375435
0.699877 0.135858 -0.492425 -0.580950 -0.420120 0.754614
0.082968 0.221531 1.022209 0.478982 -0.798322 -0.442126
-0.328664 -0.305655 -0.596511 0.263623 1.004549 -0.028593
0.082463 -0.287284 0.617381 -0.030408 1.027223 0.176824
0.146358 0.348354 -0.464929 0.008428 -1.039097 0.098329
-0.245338 -0.183458 -0.735108 0.067018 0.542827 0.885281
-0.060321 0.025187 0.893467 0.965116 0.008048 -0.360088
0.733499 0.068205 -0.266752 -0.743745 -0.348237 -0.651175
0.322686 0.230361 -0.203980 -0.178535 -0.718677 -0.731015
0.684842 0.144283 -0.258138 -0.718038 -0.461020 -0.605517
-0.031524 -0.240260 0.679843 0.802614 0.639632 -0.116560
-0.055731 -0.215367 0.681668 0.809966 0.628926 -0.117392
-0.211562 -0.232993 0.161035 0.260252 0.981977 -0.201738
0.172747 0.341608 -0.519462 -0.110315 -0.964034 0.375575
-0.114934 -0.181262 0.095528 -0.749854 0.649684 0.312121
-0.050421 0.012802 -0.782391 -0.048270 -0.024581 1.039544
-0.550161 0.092153 -0.676540 0.686141 -0.433461 0.649599
-0.063433 0.150786 -0.285015 0.778900 -0.233839 -0.635085
0.044323 -0.220103 0.972722 0.553903 0.811019 -0.324763
-0.636404 -0.029899 -0.456567 1.033488 0.034379 0.080896
0.572753 0.049821 -0.118380 -0.118586 -0.018160 -1.035340
0.190860 0.321320 -0.358673 0.121047 -0.915057 -0.479765
0.247424 0.351798 -0.442179 -0.119316 -1.026911 -0.114564
-0.089741 -0.217807 0.539253 0.853949 0.558560 -0.171939
-0.544951 -0.193628 -0.581593 0.713652 0.715434 0.251385
-0.049163 -0.336570 -0.536062 0.106928 1.007758 -0.225800
0.479800 -0.308542 -0.416676 -0.349027 0.978173 0.036993
-0.616565 0.110974 -0.428211 0.944410 -0.410609 -0.126761
0.662901 0.153690 -0.247232 -0.694352 -0.508241 -0.592175
-0.012885 0.016212 -0.782001 -0.052665 0.028499 1.039375
-0.264506 0.251176 0.023491 -0.066419 -1.036649 -0.005921
-0.523572 -0.052264 -0.732598 0.576356 0.201229 0.846056
-0.040604 0.023540 0.969076 1.017075 -0.012001 -0.188981
0.113266 -0.288282 0.678598 -0.098495 1.026020 0.149313
-0.030486 0.178994 -0.726457 -0.005491 -0.524508 0.897985
-0.591995 0.012705 -0.667404 1.004802 0.045487 0.244219
0.127625 -0.290335 0.815394 -0.090235 1.031684 0.030409
0.243985 -0.211661 -0.681815 -0.215634 0.686404 0.756216
-0.019482 0.160334 0.954848 0.977569 -0.239169 -0.210548
-0.260469 -0.101234 -0.772034 0.013724 0.176229 1.022254
0.275242 -0.170954 0.917526 -0.881229 0.550419 -0.012937
-0.377535 -0.052753 -0.777732 0.075544 0.170869 1.020851
-0.255339 -0.111899 0.248960 0.931247 0.248269 -0.372196
0.167850 -0.302166 -0.316869 0.064505 0.874077 -0.551743
0.112647 0.140861 -0.741916 -0.020717 -0.529793 0.893925
0.088079 -0.193202 0.407584 -0.691997 0.628824 0.449469
-0.453558 -0.027866 -0.769443 0.086043 0.095785 1.031491
-0.124148 -0.163372 0.555730 0.853099 0.559336 -0.166583
-0.332950 0.196224 0.041017 0.772039 -0.486574 -0.478976
0.197752 -0.253766 0.819657 -0.647647 0.808670 0.036980
-0.084079 -0.326929 -0.516407 0.107840 1.006432 -0.235825
0.249976 -0.316011 -0.323085 0.025793 0.862685 -0.573167
-0.051302 -0.267597 0.435997 0.209535 1.018858 -0.007029
0.509099 -0.018144 -0.637678 -0.597320 0.196246 0.834455
0.066648 0.167829 -0.189025 0.400188 -0.562082 -0.767651
-0.513789 -0.250440 -0.481426 0.552309 0.873685 0.109000
0.234515 0.126183 -0.139418 -0.063071 -0.440782 -0.937119
-0.282844 -0.252801 -0.103515 -0.658655 0.792759 0.161387
0.004156 -0.214003 0.324611 -0.590394 0.690425 0.504742
0.245078 -0.095585 0.561455 -0.837687 0.329570 0.514964
-0.346058 0.298652 -0.603284 0.081719 -0.983963 0.332143
-0.006123 0.204307 -0.706353 0.003525 -0.566343 0.872886
0.223060 -0.135455 -0.732241 -0.102193 0.312383 0.988314
-0.065727 -0.104708 -0.261539 0.742465 0.369479 -0.613017
0.662927 -0.054538 -0.538869 -0.601969 0.272778 0.807610
0.119428 -0.122961 -0.749687 -0.169474 0.344339 0.965018
-0.466727 0.082507 -0.036941 0.773917 -0.415910 -0.547511
-0.042423 0.180165 0.217648 -0.624840 -0.495787 0.661734
-0.165226 0.033402 -0.230074 -0.982544 -0.334076 -0.023304
-0.087917 -0.015340 0.028544 -0.999649 0.126083 0.261819
0.198919 0.102074 -0.751256 -0.124972 -0.322935 0.981876
-0.404601 0.244587 -0.654849 0.381333 -0.804281 0.538421
-0.637601 -0.028163 -0.328075 0.986187 -0.011456 -0.311709
0.216990 0.177504 0.583908 -0.902948 -0.499989 0.088629
0.219242 0.227131 0.993806 -0.473246 -0.876881 -0.279318
0.685188 0.227438 -0.397737 -0.547733 -0.870579 0.181913
0.031650 0.194200 -0.211453 0.355648 -0.841718 -0.499876
0.134815 0.295905 -0.314248 0.354644 -0.809328 -0.545383
0.101046 -0.286734 0.646979 -0.112084 1.026086 0.131674
-0.405015 -0.212426 -0.686340 0.168153 0.639621 0.805348
-0.397515 -0.301363 -0.521460 0.240767 1.009609 -0.023297
-0.468437 0.247334 -0.597878 0.494458 -0.842578 0.347839
-0.007121 0.009011 1.026694 0.846358 0.035104 -0.574351
-0.058481 0.124537 0.152047 -0.913190 -0.435835 0.226572
0.121173 -0.087024 -0.763000 -0.130063 0.171807 1.017046
0.242776 0.226850 0.872249 -0.874155 -0.555402 0.063546
0.601909 -0.093032 -0.556786 -0.580318 0.284371 0.819192
-0.061286 0.294910 -0.443552 0.456022 -0.789805 -0.491357
-0.186597 -0.081218 -0.273733 -0.904105 0.191272 -0.467414
-0.129501 -0.119878 -0.015929 -0.899176 0.351747 0.385352
0.430216 0.003775 -0.113120 -0.097442 0.036068 -1.038067
0.081771 0.273903 0.866897 0.152285 -1.007468 -0.201412
-0.365193 -0.303620 -0.554579 0.255835 1.006110 -0.025995
0.281656 0.109410 -0.133691 -0.038583 -0.508713 -0.901801
0.333745 -0.038053 0.981196 -1.010282 0.198085 -0.152617
-0.189788 -0.198114 0.291305 0.816033 0.547778 -0.322837
-0.238861 -0.090700 0.302654 0.933059 0.259030 -0.359609
0.392945 -0.171749 -0.680351 -0.278895 0.828983 0.568831
0.368456 -0.129678 -0.140521 0.209224 0.351640 -0.949982
-0.456561 0.058979 -0.770046 0.136731 -0.050550 1.029554
0.010914 -0.222780 0.912316 0.664206 0.762708 -0.207046
-0.048742 0.048202 0.926324 1.014743 -0.065439 -0.174587
0.164430 -0.062107 0.426367 -0.822015 0.325397 0.545608
0.282052 0.047034 -0.753207 -0.101830 -0.099725 1.035146
0.408607 0.311938 -0.346666 -0.141880 -1.012115 -0.212400
-0.514685 0.220166 -0.596295 0.540679 -0.839203 0.290416
-0.418474 -0.253436 -0.630791 0.285875 0.837344 0.549133
0.311760 -0.017635 1.066206 -0.971723 0.154649 -0.332281
0.064330 0.287298 0.679658 -0.055458 -1.024909 0.171900
0.707755 0.114881 -0.268009 -0.708134 -0.468097 -0.612484
0.175103 -0.050254 0.441791 -0.811282 0.318005 0.565466
-0.518455 0.109459 -0.122534 0.731337 -0.435994 -0.583690
0.342211 0.006830 0.997555 -1.001467 0.178388 -0.221228
-0.082322 0.198084 0.622196 0.732171 -0.695867 -0.223626
-0.441829 -0.268344 -0.256145 0.153175 1.020300 -0.126525
-0.027092 -0.025856 0.988049 0.889286 0.044148 -0.505228
0.730083 -0.144298 -0.458522 -0.494209 0.620108 0.678709
0.682953 0.132832 -0.245949 -0.696183 -0.499557 -0.598331
-0.028866 -0.270208 0.425999 0.011922 1.040705 0.054965
-0.209901 -0.214677 0.209999 0.640414 0.760286 -0.277196
0.591564 0.274343 -0.358932 -0.285310 -0.979766 -0.225555
0.254828 -0.207894 0.928768 -0.907315 0.504590 -0.016260
0.084958 -0.079489 0.317405 -0.806961 0.310529 0.577181
-0.522834 0.254153 -0.460125 0.582822 -0.829767 0.229555
-0.159949 0.055965 -0.152465 -0.960934 -0.230032 0.323751
-0.471503 -0.280974 -0.401475 0.182248 1.020061 -0.078477
-0.138861 -0.176516 0.487004 0.840819 0.550165 -0.241489
0.486756 0.278243 -0.474890 -0.294431 -0.953244 0.305481
-0.159620 0.230903 0.106793 -0.674424 -0.774138 0.137094
-0.459517 0.282210 -0.364422 0.429561 -0.947975 -0.054244
0.758978 -0.045296 -0.276867 -0.793295 0.309618 -0.604851
-0.435692 0.130648 -0.039794 0.657528 -0.590091 -0.542945
0.092328 0.275329 -0.309256 0.340811 -0.831663 -0.522030
-0.055647 0.002274 0.914057 0.993444 -0.027723 -0.279716
-0.475842 0.256846 -0.568931 0.528172 -0.848068 0.293592
0.116269 0.037153 0.351822 -0.806796 -0.200154 0.626612
-0.180218 0.213857 0.006445 -0.675801 -0.771011 0.151615
0.036212 -0.280536 -0.354415 0.436616 0.829497 -0.443688
-0.071088 0.182315 0.709230 0.899114 -0.470075 -0.189466
-0.079800 -0.088204 0.843774 0.991344 0.005949 -0.290046
-0.556564 -0.208276 -0.275394 0.797129 0.503687 -0.425366
-0.131239 0.214319 -0.704821 0.065252 -0.650506 0.810595
0.084783 -0.272469 -0.641613 -0.030560 0.844050 0.607591
0.281724 -0.165173 0.904901 -0.912327 0.494569 -0.007547
-0.053421 -0.221397 0.669928 0.821738 0.614146 -0.124569
-0.598905 0.050509 -0.236810 0.976214 -0.027299 -0.336877
0.269311 0.149788 0.741913 -0.903819 -0.505786 0.067585
0.137692 -0.255806 0.586311 -0.564647 0.786161 0.373346
-0.098525 -0.010905 0.779277 1.001495 0.012925 -0.261296
0.115404 -0.126442 0.387831 -0.817210 0.307626 0.560474
0.256341 -0.032721 -0.118747 -0.027149 0.070087 -1.038091
-0.049906 0.011735 0.931799 0.892174 -0.040278 -0.501289
-0.464835 -0.222451 -0.643103 0.292896 0.821909 0.570827
-0.008301 0.323678 -0.572076 -0.041933 -0.951786 0.420469
0.054100 -0.074478 1.104532 0.411615 0.306781 -0.882600
0.676732 -0.215063 -0.311634 -0.691816 0.525996 -0.583774
-0.139256 -0.298075 -0.620833 -0.003060 0.888044 0.542940
-0.247041 0.231192 -0.362655 -0.432734 -0.857009 -0.392469
-0.237038 -0.051719 -0.784495 -0.001081 0.078003 1.035582
0.314176 -0.320015 -0.515051 -0.266210 0.907087 0.451314
0.152885 0.162228 1.077125 -0.165601 -0.557046 -0.853801
0.119593 0.292255 -0.316859 0.347520 -0.818319 -0.535257
-0.409448 -0.305898 -0.441080 -0.105298 0.976163 -0.338352
-0.166080 0.174662 -0.729829 0.033668 -0.571574 0.869312
-0.561639 -0.218816 -0.431177 0.569499 0.859879 0.121115
0.194172 -0.266775 0.772890 -0.648577 0.805849 0.028175
-0.483852 -0.266926 -0.331599 0.338501 0.975575 -0.114427
-0.390864 -0.256250 -0.639896 0.280254 0.836454 0.553431
0.100334 0.259728 0.928914 0.151623 -1.010963 -0.196102
-0.239577 -0.236640 -0.034933 -0.660883 0.790832 0.157392
-0.017872 -0.242734 -0.681719 -0.027746 0.499449 0.910021
0.269903 -0.165996 1.062218 -0.919269 0.478010 -0.012762
-0.562745 -0.024958 -0.711053 0.920277 0.087718 0.458946
0.086961 0.329927 -0.557727 -0.056539 -0.965769 0.385029
0.239680 -0.289399 -0.603510 -0.239362 0.894659 0.478312
0.307679 0.342377 -0.408875 -0.122632 -1.026064 -0.135584
-0.235301 0.210935 0.191488 0.515437 -0.844230 -0.301576
0.741838 0.080028 -0.296709 -0.757478 -0.359923 -0.627549
-0.357327 -0.228282 -0.050043 0.273999 0.974688 -0.219903
0.311593 -0.113266 -0.726928 -0.116815 0.338277 0.977941
0.285237 -0.205560 -0.679341 -0.227188 0.736108 0.703904
0.702911 -0.083296 -0.501766 -0.614977 0.290123 0.794000
0.220871 0.240105 0.769213 -0.891022 -0.524131 0.069592
-0.468706 -0.089508 -0.043637 0.799375 0.137377 -0.643459
-0.289825 -0.252584 -0.250914 -0.413990 0.942618 -0.120908
-0.366440 0.195784 -0.013914 0.686431 -0.571987 -0.516144
0.201623 0.236007 0.999278 -0.606778 -0.827737 -0.148601
0.255443 0.167647 0.706798 -0.897790 -0.516206 0.071907
-0.110553 0.086100 -0.316533 0.772948 -0.206960 -0.650236
-0.620658 0.075154 -0.330291 0.933617 -0.417612 -0.182168
-0.195071 -0.222802 -0.372037 -0.282730 0.760704 -0.636009
0.031128 -0.263212 0.812752 0.616609 0.815999 -0.160845
-0.234254 -0.094185 0.307503 0.928368 0.253935 -0.372991
-0.634548 0.073826 -0.448841 1.031928 -0.047887 0.007120
-0.100386 0.026751 0.757670 0.996939 0.012571 -0.276748
0.309216 0.190932 -0.180733 -0.019717 -0.577934 -0.858933
-0.219484 0.063585 0.374353 0.935758 -0.183225 -0.401568
0.259697 0.191562 0.826601 -0.905943 -0.499610 0.077683
0.315794 0.112695 1.049395 -0.884178 -0.487594 -0.217202
-0.204282 -0.014041 -0.787589 -0.011688 0.059237 1.037492
0.211690 0.246541 0.938520 -0.615293 -0.821153 -0.127805
-0.080769 0.253548 0.210332 -0.234268 -0.969232 -0.285145
-0.104868 0.186520 0.607275 0.990200 -0.247471 -0.159635
0.172097 0.056167 0.432039 -0.805314 -0.215681 0.619158
0.262220 -0.238118 -0.217567 -0.001496 0.699868 -0.766932
