ply
format ascii 1.0
element vertex 512
property float x
property float y
property float z
property float nx
property float ny
property float nz
end_header
-0.148655 -0.160508 0.483489 -0.403782 0.419034 0.813247
-0.206788 -0.175297 -0.492519 -0.965539 0.260127 0.008288
0.281899 0.242894 0.295106 0.374476 -0.903763 -0.207316
-0.008267 -0.156774 0.575159 -0.625797 0.419448 0.657603
-0.197267 0.232875 0.466940 -0.116235 -0.915338 0.385546
0.261676 -0.205495 0.485523 0.571780 0.425550 0.701409
-0.347959 -0.178544 -0.290110 0.641106 0.648447 -0.410487
-0.152326 0.256507 -0.147300 0.224269 -0.973670 -0.040866
-0.168369 -0.090441 -0.478317 -0.687205 0.287446 0.667176
-0.099935 -0.227776 0.619611 -0.194059 0.974854 -0.109544
0.413669 -0.064371 -0.672834 -0.943178 -0.032730 -0.330672
0.858026 0.041075 0.476522 -0.972500 -0.109566 0.205521
0.274488 0.217170 0.575956 0.207046 -0.810935 0.547281
0.202119 0.242230 0.078411 0.259443 -0.964166 -0.055439
0.472283 0.245939 0.544595 -0.076788 -0.909692 -0.408123
0.498128 0.273439 0.478436 -0.076788 -0.909692 -0.408123
-0.213545 0.042745 -0.890806 0.484150 0.528710 0.697183
0.054819 -0.273145 -0.290035 -0.182089 0.972093 0.147916
-0.225470 0.189788 -0.491310 -0.748972 -0.391580 0.534515
0.368215 0.120574 -0.642017 -0.765865 -0.587558 -0.261203
0.598663 -0.069476 0.661480 -0.042028 0.298779 -0.953396
-0.444645 0.012002 -0.275883 0.848884 -0.307942 -0.429614
-0.235493 -0.230335 -0.716315 -0.050086 0.991817 -0.117433
-0.418290 0.169841 0.169951 0.502834 -0.723170 0.473480
0.089878 -0.075420 0.122428 0.673991 0.237996 -0.699352
0.852280 -0.072536 0.551893 -0.993559 0.113313 -0.000134
-0.075511 0.107821 -0.942845 0.189346 -0.511354 0.838251
0.069167 -0.145731 -0.689673 0.443521 0.132359 -0.886437
0.201737 -0.239217 -0.042718 -0.284635 0.953390 0.100149
0.092139 -0.146379 -0.556063 0.494907 0.690579 0.527416
-0.100017 0.224730 -0.847946 0.207025 -0.822119 0.530340
0.168946 0.232874 -0.733608 0.772865 -0.631938 0.057738
-0.031186 0.152522 -0.432140 0.543236 -0.418019 0.728118
0.130288 0.248904 -0.223312 -0.540693 -0.834421 -0.106736
-0.388749 -0.208870 0.489970 0.559874 0.647855 -0.516551
0.154029 0.194363 0.697697 -0.015970 -0.784251 -0.620238
0.727756 0.186229 0.221191 -0.513610 -0.621638 0.591414
0.564797 -0.223335 0.143651 -0.084186 0.842003 0.532864
0.296175 0.202586 -0.651083 -0.104084 -0.952123 -0.287451
0.369785 -0.202234 0.651695 -0.164585 0.851593 -0.497696
0.441158 0.241447 0.560245 -0.124525 -0.650159 -0.749524
0.187730 -0.047856 0.771682 -0.014377 0.021516 -0.999665
-0.178746 0.174922 -0.436729 -0.748972 -0.391580 0.534515
0.369132 0.088975 -0.617102 -0.809278 -0.318423 -0.493635
0.719525 0.226399 0.439562 -0.533245 -0.838768 0.110085
0.199550 0.203712 0.584365 0.207046 -0.810935 0.547281
0.142918 0.204239 -0.698615 0.772865 -0.631938 0.057738
-0.075026 0.005193 -0.647179 -0.600204 -0.106428 -0.792735
-0.493043 0.057680 0.243296 0.992032 0.058310 0.111682
0.215245 0.070055 -0.968550 -0.009200 0.017700 0.999801
-0.305955 -0.232108 0.197700 -0.246851 0.966626 0.068553
0.663934 0.243627 0.301547 -0.533245 -0.838768 0.110085
-0.175595 0.201399 -0.845597 0.413844 -0.843547 0.342290
0.148769 0.126522 0.222871 0.921820 -0.097066 -0.375268
0.231636 -0.257527 0.052534 -0.021056 0.999410 0.027123
0.395724 0.077086 -0.846635 -0.894482 -0.276095 0.351673
0.542813 -0.255481 0.532388 -0.211723 0.919641 -0.330807
0.839614 0.033410 0.598683 -0.577402 0.079666 -0.812564
0.231661 -0.219978 0.653527 -0.068771 0.852187 -0.518698
0.382849 0.052955 -0.029981 -0.705127 -0.000594 0.709080
-0.303205 -0.223519 -0.348904 0.143760 0.989445 0.018230
0.678230 -0.232826 0.200434 -0.419881 0.899321 0.122151
0.155372 0.148753 0.735118 -0.037609 -0.516999 -0.855159
-0.107966 0.149951 -0.419181 0.016813 -0.264897 0.964130
0.457877 -0.160348 0.642724 -0.434923 0.403820 -0.804843
-0.189976 0.196948 0.673379 0.289420 -0.386788 -0.875575
0.754586 -0.119208 0.184283 -0.705096 0.420831 0.570737
-0.300143 -0.244510 0.437392 -0.085493 0.980859 0.174946
0.086751 -0.268040 -0.276800 -0.422382 0.906283 0.015619
0.159108 -0.144168 0.538404 0.749679 0.101233 0.654013
-0.068708 -0.166601 -0.897981 0.063732 0.523449 0.849670
-0.213524 -0.209213 -0.656014 -0.488230 0.779245 -0.392947
-0.354571 0.063685 -0.037019 0.772916 -0.299639 0.559300
0.214866 0.109380 -0.256666 -0.925265 -0.315396 -0.210735
-0.176664 -0.015593 0.268417 -0.955034 -0.075851 -0.286629
-0.278137 0.204430 -0.205135 0.689803 -0.478898 -0.542981
0.257851 0.236561 0.622294 -0.130258 -0.898032 -0.420204
0.152507 -0.251041 -0.070081 -0.284635 0.953390 0.100149
0.150665 -0.230728 -0.377283 -0.723059 0.596869 -0.347756
-0.343564 0.205689 -0.377801 0.785952 -0.609796 -0.102117
-0.141338 0.002419 0.184680 -0.577209 0.325180 -0.749058
0.031118 -0.204134 0.588861 -0.160752 0.887192 0.432492
0.298652 -0.257062 0.087426 -0.021056 0.999410 0.027123
0.366221 0.089702 -0.911771 -0.894482 -0.276095 0.351673
0.842474 0.070766 0.536699 -0.795507 -0.597468 -0.100999
0.509276 -0.026614 0.667908 0.147535 -0.312929 -0.938248
-0.476235 -0.066208 0.181934 0.871374 0.361320 0.331895
0.209080 0.012825 0.367609 0.866009 0.292470 -0.405574
-0.274929 0.240716 0.075216 0.087046 -0.994435 -0.059341
0.412391 -0.157320 0.668823 -0.434923 0.403820 -0.804843
0.259260 0.217040 -0.685594 -0.104084 -0.952123 -0.287451
-0.252465 0.221870 0.171385 -0.622334 -0.640930 -0.449342
-0.205553 0.192215 -0.644974 -0.279500 -0.825608 -0.490155
-0.256734 0.215623 0.218573 -0.919583 -0.343825 0.190135
0.120349 -0.220735 -0.700810 0.730484 0.420129 -0.538409
-0.062438 -0.154559 -0.437170 0.053958 0.616817 0.785255
-0.290013 0.218419 -0.500584 -0.218696 -0.944385 0.245577
0.204254 0.183267 -0.437215 -0.860938 -0.505234 -0.059365
0.211052 -0.148838 -0.348274 -0.994083 0.108572 -0.003227
0.785752 0.123101 0.612660 -0.578147 -0.312481 -0.753725
0.339941 0.144417 0.727614 -0.314898 -0.412989 -0.854564
0.194171 0.181949 -0.186202 -0.771759 -0.289094 0.566403
-0.399747 0.151718 0.122579 0.502834 -0.723170 0.473480
-0.339438 -0.209071 -0.369867 0.723393 0.687912 -0.058994
-0.111005 0.235189 -0.005445 -0.230568 -0.829658 -0.508436
-0.212757 0.246002 0.595476 0.365235 -0.842099 -0.396829
0.472896 0.282505 0.462975 -0.076788 -0.909692 -0.408123
0.285626 0.118935 -0.483068 -0.720296 -0.487601 -0.493375
-0.296342 -0.224484 -0.350648 0.143760 0.989445 0.018230
0.598455 0.291234 0.347101 -0.533245 -0.838768 0.110085
0.105705 0.231178 0.657435 -0.089461 -0.671719 -0.735384
-0.172551 0.078612 -0.498588 -0.749890 -0.390815 0.533787
0.420419 -0.026737 -0.712210 -0.989026 -0.037515 -0.142896
0.802144 0.125092 0.337742 -0.779221 -0.603308 0.169807
-0.053973 -0.065777 -0.947235 0.060078 0.227450 0.971935
-0.339219 0.158815 0.615176 0.510154 -0.565616 -0.647937
0.048949 -0.039550 -0.537512 0.711368 0.099072 0.695802
-0.139038 -0.028015 -0.616419 -0.486103 0.256588 -0.835384
-0.430494 0.056926 -0.412956 0.934187 -0.356714 0.007005
-0.177104 0.115222 -0.913268 0.234170 -0.490553 0.839358
0.188155 -0.077596 0.494803 0.749679 0.101233 0.654013
-0.250646 0.184633 -0.788084 0.729191 -0.072750 0.680432
0.571225 -0.167914 0.104278 -0.265139 0.146931 0.952950
-0.341821 0.240254 0.393202 0.193322 -0.979800 0.051173
-0.256409 -0.185186 -0.762228 0.538905 0.550262 0.637804
0.735467 0.184232 0.555683 -0.234329 -0.886838 -0.398256
0.623689 -0.265497 0.471238 -0.112051 0.936554 -0.332132
0.055480 0.275702 -0.137372 -0.045914 -0.998376 -0.033720
0.683858 -0.250040 0.377141 -0.446258 0.890224 0.091406
-0.178594 0.034515 0.322623 -0.848631 0.142065 0.509552
0.852592 -0.069776 0.571674 -0.993559 0.113313 -0.000134
0.083052 -0.194865 0.050453 0.254553 0.800445 -0.542670
-0.510298 0.024736 0.439509 0.993838 0.057885 0.094532
-0.059456 -0.019042 0.471732 -0.561744 0.308583 0.767607
-0.199249 0.165792 -0.610585 -0.730703 -0.330344 -0.597449
0.146933 0.095072 0.539554 0.310888 -0.353713 0.882177
0.269860 0.260028 0.080488 -0.174666 -0.923122 0.342545
-0.150267 0.218827 -0.368876 0.009343 -0.775214 0.631630
-0.159164 -0.264180 -0.132451 0.399769 0.881510 -0.251248
-0.083076 0.212588 -0.728085 -0.028771 -0.933139 -0.358362
0.846525 0.069520 0.512165 -0.795507 -0.597468 -0.100999
-0.079374 -0.172805 0.529618 -0.457784 0.814056 0.357416
-0.509768 0.055898 0.436158 0.995121 -0.096057 0.022540
0.334268 0.143455 -0.889327 -0.607395 -0.599343 0.521401
0.188991 0.240344 -0.681216 -0.467049 -0.881876 -0.064503
-0.435585 -0.046339 -0.490890 0.956476 0.283441 0.069389
-0.077099 0.029720 0.122144 -0.671748 -0.320994 -0.667621
-0.158494 0.008238 -0.916203 0.643202 0.171695 0.746198
-0.075713 -0.245535 -0.810601 -0.010414 0.961835 -0.273432
0.005163 -0.071687 -0.492548 0.476741 0.313914 0.821082
0.643685 0.011797 0.673781 0.393119 -0.093345 -0.914737
0.526024 -0.063783 0.662804 -0.330677 -0.009170 -0.943699
0.392689 -0.011454 -0.618230 -0.943178 -0.032730 -0.330672
-0.162132 -0.140843 0.746594 0.044556 0.340907 -0.939041
0.389897 0.009159 0.750436 -0.430976 -0.020621 -0.902128
0.280239 -0.164735 0.398958 0.813826 0.580984 0.012015
0.230804 0.249719 0.026992 0.260607 -0.965035 0.028142
0.127021 0.151277 -0.928152 0.021437 -0.432646 0.901309
0.537442 0.106151 0.089295 -0.253356 -0.103086 0.961865
0.415676 0.038884 -0.696604 -0.989026 -0.037515 -0.142896
0.083215 0.163340 0.068622 0.400158 -0.287530 -0.870172
-0.005572 0.126864 0.061173 -0.126545 -0.283006 -0.950733
-0.169784 0.063487 -0.556943 -0.914633 -0.400542 -0.054882
-0.409405 -0.117805 -0.665470 0.982654 0.177580 0.053438
0.535440 0.254058 0.207517 -0.307829 -0.855428 0.416515
-0.500720 0.053651 0.484839 0.880911 -0.196567 -0.430531
0.642504 0.274919 0.463761 -0.507132 -0.859941 0.057606
-0.206887 0.168022 0.373817 -0.926714 -0.332150 0.175720
-0.018458 0.118932 0.529082 -0.560088 -0.320171 0.764063
-0.412432 -0.131518 -0.414379 0.815345 0.578878 0.010614
0.570508 0.081171 0.095328 -0.253356 -0.103086 0.961865
-0.478673 -0.088819 0.459317 0.948616 0.297461 -0.107910
0.223410 -0.057239 0.430343 0.884206 0.333815 0.326722
0.283633 -0.018534 -0.107833 -0.900994 -0.076750 0.426989
0.283225 -0.065889 -0.115798 -0.818148 0.102688 0.565765
-0.423093 0.213162 0.466673 0.611438 -0.770204 -0.181462
0.486983 -0.312851 0.352270 -0.104779 0.980636 0.165454
-0.413031 -0.126154 -0.571050 0.982654 0.177580 0.053438
0.005685 0.279965 -0.195778 -0.045914 -0.998376 -0.033720
-0.225101 0.243591 -0.217209 0.218964 -0.973463 -0.066512
0.303136 -0.246166 0.579214 0.300904 0.951069 0.070172
0.308995 -0.241780 0.255256 0.653221 0.654908 -0.379998
-0.248775 -0.228891 -0.462014 0.119909 0.992097 0.036944
0.149229 -0.053209 0.202032 0.859464 0.252400 -0.444539
0.200674 -0.202410 -0.141792 -0.694450 0.537471 0.478397
-0.138986 -0.212953 0.079124 -0.376096 0.810358 -0.449301
0.049148 0.100909 0.750625 0.063563 -0.199465 -0.977841
0.099383 0.211063 -0.893423 -0.044374 -0.521369 0.852177
-0.196365 0.126527 0.350871 -0.926714 -0.332150 0.175720
0.087237 -0.267549 -0.286901 -0.182089 0.972093 0.147916
0.483461 -0.156917 0.066161 -0.626910 0.204286 0.751832
-0.208355 0.247703 -0.222267 0.218964 -0.973463 -0.066512
0.719939 -0.165607 0.623945 -0.224640 0.778901 -0.585533
0.581605 0.057928 0.095760 -0.253356 -0.103086 0.961865
-0.250129 0.205060 0.231415 -0.919583 -0.343825 0.190135
-0.273860 -0.121450 0.669683 0.510149 0.317556 -0.799316
0.426016 -0.022438 -0.795326 -0.947616 0.296467 0.118873
-0.309670 -0.222754 -0.339455 0.143760 0.989445 0.018230
0.379461 -0.267702 0.429406 0.363155 0.913891 -0.181442
0.082615 -0.016656 0.534681 0.156705 0.231119 0.960223
-0.419037 -0.217288 0.434001 0.620185 0.672164 -0.404433
0.309763 -0.135824 -0.554315 -0.837036 0.362293 -0.410018
-0.390761 -0.210319 0.206567 0.706499 0.682590 0.186894
-0.321385 -0.245671 0.378299 -0.165785 0.985582 0.033822
0.213324 -0.126219 -0.287034 -0.994083 0.108572 -0.003227
0.821471 0.076040 0.604772 -0.578147 -0.312481 -0.753725
0.107723 0.220863 0.055752 0.351586 -0.842726 -0.407676
0.678656 -0.204454 0.577095 -0.072228 0.891028 -0.448165
-0.206335 0.177577 0.394789 -0.926714 -0.332150 0.175720
-0.081209 0.205561 -0.881934 0.189346 -0.511354 0.838251
-0.152299 0.118129 -0.441204 -0.749890 -0.390815 0.533787
-0.464091 0.096914 0.133975 0.805133 -0.118706 0.581094
-0.039131 0.013812 0.099293 -0.126545 -0.283006 -0.950733
0.020302 0.107068 -0.946834 0.021437 -0.432646 0.901309
0.643798 -0.272598 0.401257 -0.446258 0.890224 0.091406
0.439786 0.297801 0.364567 0.415766 -0.895010 -0.161542
0.175377 -0.037321 -0.967016 -0.009200 0.017700 0.999801
-0.239262 0.222139 -0.433887 -0.484001 -0.837974 0.252076
0.726379 -0.159360 0.179043 -0.705096 0.420831 0.570737
0.028428 -0.074336 0.090671 0.085358 0.292961 -0.952307
-0.422441 -0.041259 0.051282 0.796663 -0.103947 0.595418
-0.181719 -0.081710 -0.559926 -0.964049 0.265694 0.004082
0.301465 -0.024050 -0.955210 -0.298677 0.016043 0.954219
-0.275625 -0.222972 0.177170 -0.360361 0.881625 -0.304759
-0.043737 -0.268709 -0.310667 0.176036 0.884812 0.431416
-0.378935 -0.205989 0.146048 0.706499 0.682590 0.186894
0.219290 -0.143978 0.269610 0.653221 0.654908 -0.379998
-0.042610 0.276318 -0.136638 0.012251 -0.996278 -0.085320
-0.042463 -0.225117 0.621945 0.093954 0.949969 0.297878
0.192987 0.196951 -0.390267 -0.860938 -0.505234 -0.059365
-0.136284 -0.176898 -0.673979 -0.413724 0.640654 -0.646835
0.241081 -0.247169 -0.006376 -0.120351 0.919176 0.375008
0.149553 -0.065322 0.195782 0.859464 0.252400 -0.444539
-0.410758 -0.119272 -0.635708 0.982654 0.177580 0.053438
0.167960 -0.231591 -0.532891 -0.117644 0.990560 -0.070363
0.445428 -0.155887 0.651689 -0.434923 0.403820 -0.804843
-0.005503 -0.188754 -0.889074 0.063732 0.523449 0.849670
0.189260 -0.134461 0.233294 0.859464 0.252400 -0.444539
-0.243446 0.067334 -0.885931 0.801097 -0.218985 0.557036
-0.294694 -0.213632 -0.685365 0.559889 0.779163 0.281830
-0.483817 -0.074694 0.230459 0.992032 0.058310 0.111682
0.341412 0.155334 -0.641620 -0.765865 -0.587558 -0.261203
-0.099712 0.242717 -0.811891 -0.144138 -0.988714 0.040839
-0.108659 -0.215789 0.695748 -0.025064 0.853472 -0.520535
0.241983 -0.031604 0.771252 -0.014377 0.021516 -0.999665
0.218400 0.102594 -0.262028 -0.925265 -0.315396 -0.210735
0.105978 0.092982 0.549320 0.072514 -0.199668 0.977177
0.202582 -0.098876 0.279256 0.859464 0.252400 -0.444539
0.059860 0.061902 0.546391 0.072514 -0.199668 0.977177
0.322611 -0.215884 -0.811141 -0.687641 0.654336 0.314633
0.229534 0.034097 -0.218693 -0.980069 0.179359 -0.085416
0.061148 -0.029694 -0.682961 0.674332 -0.044472 -0.737088
-0.198829 -0.266348 -0.212213 0.286351 0.949974 0.124713
-0.191371 0.158708 -0.879501 0.675018 -0.506190 0.536770
0.205830 0.005265 0.355217 0.866009 0.292470 -0.405574
-0.300723 0.135713 -0.072844 0.772916 -0.299639 0.559300
-0.489212 0.093851 0.218438 0.969264 -0.074532 0.234462
0.412355 0.060438 -0.681440 -0.943178 -0.032730 -0.330672
-0.401617 -0.238973 0.383282 0.276558 0.960408 0.033635
0.377262 -0.159851 -0.689405 -0.777227 0.482187 -0.404245
0.341366 -0.257185 0.571609 -0.156122 0.825708 -0.542063
0.475925 -0.306564 0.313753 0.243971 0.951468 0.187581
-0.062082 -0.188486 0.728590 -0.052147 0.349111 -0.935629
-0.317478 0.186973 -0.239718 0.689803 -0.478898 -0.542981
-0.088241 0.057561 0.469549 -0.505800 -0.204889 0.837966
0.590744 -0.269358 0.471462 -0.112051 0.936554 -0.332132
-0.468906 0.088927 0.528969 0.797227 -0.011099 -0.603577
-0.098661 -0.080299 -0.444900 0.163718 0.159286 0.973563
0.120489 0.041078 -0.968909 -0.009200 0.017700 0.999801
-0.256307 -0.117185 0.682580 0.510149 0.317556 -0.799316
0.259618 0.213313 0.355421 0.750746 -0.566631 -0.339572
0.146123 -0.201968 -0.651198 0.730484 0.420129 -0.538409
-0.397599 0.138554 -0.573475 0.888863 -0.458074 -0.009528
-0.014675 -0.295709 -0.224412 -0.121396 0.984731 0.124769
-0.026343 0.191432 0.553682 -0.560088 -0.320171 0.764063
-0.144279 0.184450 -0.409069 0.016813 -0.264897 0.964130
0.538559 0.143334 0.106521 -0.221365 -0.526020 0.821158
0.337821 0.207962 -0.758037 -0.822158 -0.555828 -0.122927
-0.175546 0.227629 -0.781014 0.413844 -0.843547 0.342290
0.721334 0.207976 0.307960 -0.533245 -0.838768 0.110085
-0.261666 0.257064 0.526986 0.365235 -0.842099 -0.396829
0.103694 0.150534 -0.656415 0.957025 -0.283963 -0.058898
-0.300831 -0.241163 0.347694 -0.165785 0.985582 0.033822
-0.002578 -0.067111 0.526482 -0.480828 0.308296 0.820828
-0.376133 0.049291 -0.013241 0.892028 -0.089132 0.443105
-0.108362 0.201724 0.692257 0.202564 -0.606643 -0.768734
-0.405309 0.123173 0.594253 0.510154 -0.565616 -0.647937
0.713560 0.140258 0.161774 -0.335654 -0.693052 0.637978
0.343947 0.218653 0.633877 -0.130258 -0.898032 -0.420204
-0.104220 -0.181444 0.091408 -0.509755 0.243494 -0.825143
-0.176293 -0.023888 0.263599 -0.961761 0.273889 -0.000427
0.364614 -0.099163 -0.043095 -0.537757 0.318105 0.780786
-0.359396 0.235949 0.476002 0.294263 -0.952210 -0.081883
0.154640 0.243756 -0.029892 -0.124436 -0.948975 -0.289763
-0.253865 0.243319 0.467609 -0.401173 -0.887223 0.227804
0.370922 0.232974 0.594909 -0.130258 -0.898032 -0.420204
-0.092372 0.238485 0.667460 0.202564 -0.606643 -0.768734
-0.186151 0.125662 0.164828 -0.947794 -0.285737 -0.141563
0.219210 -0.072794 -0.302719 -0.994083 0.108572 -0.003227
-0.237175 -0.243930 -0.301521 0.228225 0.965481 0.125538
-0.342115 -0.213978 -0.559518 0.119909 0.992097 0.036944
-0.369578 0.187360 -0.468566 0.785952 -0.609796 -0.102117
0.081833 -0.232047 -0.761893 0.730484 0.420129 -0.538409
-0.122301 -0.224947 0.043526 -0.376096 0.810358 -0.449301
-0.092075 -0.041195 0.770432 0.063563 -0.199465 -0.977841
0.452885 -0.273387 0.183501 -0.378246 0.793269 0.477131
-0.091275 -0.096947 -0.937635 0.060078 0.227450 0.971935
-0.044342 0.272834 -0.096202 0.012251 -0.996278 -0.085320
0.639934 0.107693 0.640577 0.101037 -0.334019 -0.937136
0.368844 -0.052873 -0.907857 -0.489750 0.511672 0.705930
0.307475 -0.078124 -0.090477 -0.630803 0.011869 0.775853
-0.294379 0.131394 -0.083926 0.772916 -0.299639 0.559300
0.337455 0.279975 0.205211 0.305484 -0.951838 -0.026142
-0.376128 -0.009049 -0.024986 0.892028 -0.089132 0.443105
0.304202 -0.243293 -0.782587 -0.435178 0.897370 0.073122
0.045507 0.164933 0.730168 -0.037609 -0.516999 -0.855159
0.252782 0.245454 0.231353 0.374476 -0.903763 -0.207316
-0.301551 0.223389 -0.369060 0.402122 -0.910170 -0.099439
0.715212 -0.234704 0.433039 -0.552474 0.831257 0.061522
-0.467345 0.017846 0.532338 0.797227 -0.011099 -0.603577
0.620272 -0.259319 0.229495 -0.221515 0.945432 0.238934
0.245884 0.234411 -0.738288 -0.104084 -0.952123 -0.287451
-0.190730 0.211192 0.663081 0.202564 -0.606643 -0.768734
0.285918 -0.241077 0.598489 0.413742 0.904288 0.105264
-0.383532 0.156630 0.111275 0.664790 -0.646778 0.373808
-0.009893 -0.214636 0.595159 -0.160752 0.887192 0.432492
-0.305954 -0.187798 0.606138 0.559874 0.647855 -0.516551
0.256111 -0.224695 -0.046509 -0.446458 0.721585 0.529141
0.138168 -0.218344 0.668608 -0.068771 0.852187 -0.518698
0.842907 -0.054168 0.414034 -0.875473 0.362173 0.319966
0.023130 0.274838 -0.109920 0.012251 -0.996278 -0.085320
0.442685 0.299360 0.271831 -0.130897 -0.920930 0.367089
0.418548 -0.104744 0.703889 -0.573440 0.797472 -0.187629
0.138097 0.015798 0.517815 0.156705 0.231119 0.960223
-0.183873 -0.050503 0.267064 -0.961761 0.273889 -0.000427
-0.153105 0.184494 -0.878546 0.189346 -0.511354 0.838251
0.096713 0.061498 -0.651948 0.962250 0.022052 0.271271
0.480977 -0.126303 0.648583 -0.060847 0.395840 -0.916301
-0.421464 0.057260 0.067175 0.796663 -0.103947 0.595418
0.432722 0.225421 0.098334 -0.244373 -0.818261 0.520318
-0.081046 -0.285982 -0.264174 0.123937 0.964550 0.232987
-0.270710 -0.026989 0.709221 0.510149 0.317556 -0.799316
0.139537 -0.230326 -0.334402 -0.691460 0.717443 0.084602
0.539266 -0.266031 0.207083 -0.084186 0.842003 0.532864
0.142355 0.231771 -0.754431 0.133684 -0.710509 -0.690874
0.322559 -0.073493 0.769192 -0.014377 0.021516 -0.999665
0.354527 0.086616 0.750173 -0.314898 -0.412989 -0.854564
-0.353637 0.216914 0.162415 0.664790 -0.646778 0.373808
0.202616 -0.216738 -0.122876 -0.694450 0.537471 0.478397
-0.474760 -0.019718 0.127450 0.871374 0.361320 0.331895
0.582854 0.268402 0.272017 -0.307829 -0.855428 0.416515
0.700487 0.225996 0.344274 -0.533245 -0.838768 0.110085
0.274360 -0.098765 -0.459563 -0.815509 0.065174 -0.575063
0.034821 -0.169100 0.730423 -0.052147 0.349111 -0.935629
0.232236 0.019107 -0.204960 -0.818148 0.102688 0.565765
0.078588 -0.147360 0.087065 0.673991 0.237996 -0.699352
0.240796 0.024113 -0.368876 -0.980069 0.179359 -0.085416
0.096279 -0.087128 0.549232 0.113759 0.211390 0.970759
0.323605 0.190140 -0.667701 -0.765865 -0.587558 -0.261203
0.483498 0.086497 0.644977 -0.651093 -0.174874 -0.738578
0.642551 -0.217952 0.160753 -0.337727 0.461780 0.820183
0.358394 -0.147403 -0.027725 -0.537757 0.318105 0.780786
-0.480599 -0.008548 0.167341 0.992032 0.058310 0.111682
0.125933 -0.158582 0.561317 0.113759 0.211390 0.970759
-0.360327 0.238031 0.420551 0.193322 -0.979800 0.051173
0.058634 -0.033925 -0.548214 0.711368 0.099072 0.695802
0.256234 0.172619 0.384347 0.822037 -0.317905 -0.472433
-0.342563 -0.088583 -0.191539 0.362721 0.049243 -0.930596
0.153108 -0.220175 -0.364250 -0.723059 0.596869 -0.347756
0.134669 0.224253 0.043973 0.260607 -0.965035 0.028142
-0.165636 0.222875 0.493851 -0.592614 -0.671027 0.445568
0.369676 -0.264484 0.102734 -0.378246 0.793269 0.477131
-0.372754 0.235884 0.426388 0.193322 -0.979800 0.051173
0.606850 0.068441 0.103536 -0.253356 -0.103086 0.961865
-0.201593 -0.112698 0.283663 -0.961761 0.273889 -0.000427
-0.487143 -0.031839 0.237627 0.992032 0.058310 0.111682
-0.333052 -0.138507 -0.733786 0.551047 0.450919 0.702153
0.362144 -0.134445 -0.852786 -0.449333 0.561158 0.695127
-0.113312 0.042278 -0.962981 0.643202 0.171695 0.746198
0.312421 0.221418 0.518090 0.260938 -0.964511 -0.040361
-0.158114 0.218062 0.059584 -0.338803 -0.864788 -0.370614
-0.091257 -0.030815 0.453191 -0.561744 0.308583 0.767607
-0.159401 -0.237872 0.610455 0.360400 0.914653 -0.183087
-0.138390 0.151873 -0.901769 0.189346 -0.511354 0.838251
0.108816 0.259932 -0.200759 -0.540693 -0.834421 -0.106736
0.795282 0.137296 0.361631 -0.740815 -0.663062 0.107434
0.791049 -0.012008 0.173708 -0.993936 0.013798 0.109095
0.688967 -0.059079 0.128336 -0.332922 0.001484 0.942953
-0.157552 -0.124830 -0.622451 -0.768883 0.153251 -0.620752
0.183202 -0.030815 0.280883 0.866009 0.292470 -0.405574
-0.324945 0.080790 -0.068796 0.772916 -0.299639 0.559300
-0.219214 0.234628 0.464485 -0.116235 -0.915338 0.385546
0.385816 0.219168 0.615450 -0.397857 -0.788840 -0.468446
-0.202936 -0.193615 -0.800137 0.538905 0.550262 0.637804
-0.220752 0.231698 -0.366571 -0.484001 -0.837974 0.252076
0.204352 0.211112 0.236908 0.750746 -0.566631 -0.339572
-0.167141 0.053614 -0.499426 -0.510618 0.105316 0.853333
0.000475 0.063431 -0.682210 -0.160726 -0.133099 -0.977984
0.328025 0.184116 0.706146 -0.037609 -0.516999 -0.855159
0.177350 0.052527 0.485576 0.855047 -0.455941 0.247008
0.776052 -0.206611 0.532174 -0.731139 0.680054 0.054425
-0.241901 0.228205 -0.686058 -0.288065 -0.865079 -0.410678
-0.508680 0.003288 0.449432 0.948616 0.297461 -0.107910
0.762255 0.050201 0.137355 -0.004278 -0.000260 0.999991
0.338972 -0.012526 -0.943664 -0.298677 0.016043 0.954219
-0.198550 0.188522 -0.843498 0.729191 -0.072750 0.680432
0.165223 -0.252648 -0.018637 -0.284635 0.953390 0.100149
-0.399267 -0.143918 -0.343773 0.723393 0.687912 -0.058994
0.234361 0.135837 0.442004 0.855047 -0.455941 0.247008
0.328170 0.114491 -0.916565 -0.362361 -0.471472 0.803996
0.001469 -0.233451 0.637980 -0.160752 0.887192 0.432492
0.337909 -0.024230 -0.528405 -0.758478 0.104671 -0.643238
-0.071032 0.093322 -0.951261 0.021437 -0.432646 0.901309
0.799887 -0.071225 0.612418 -0.530926 0.132797 -0.836948
0.007852 -0.023294 0.516135 -0.480828 0.308296 0.820828
0.080807 -0.269486 -0.046505 -0.017566 0.960606 -0.277358
0.199025 -0.222948 0.601586 0.128373 0.685340 0.716820
-0.173358 0.016528 -0.905298 0.643202 0.171695 0.746198
0.529085 0.261240 0.217569 -0.307829 -0.855428 0.416515
0.684739 -0.246550 0.347443 -0.446258 0.890224 0.091406
0.107277 -0.125780 -0.620185 0.996681 0.054641 -0.060345
-0.205125 0.224756 0.081329 -0.117840 -0.930336 -0.347260
-0.272744 -0.232504 0.146189 -0.360361 0.881625 -0.304759
-0.060229 -0.292325 -0.248986 0.123937 0.964550 0.232987
-0.054509 -0.196831 -0.406620 0.288533 0.482266 0.827145
0.196091 0.227768 -0.560683 -0.467049 -0.881876 -0.064503
-0.329596 -0.215252 -0.597153 0.005620 0.992137 -0.125034
-0.319997 0.044662 -0.784752 0.801097 -0.218985 0.557036
0.301643 0.068178 0.772542 -0.014377 0.021516 -0.999665
-0.249544 -0.206151 0.364906 -0.916949 0.386754 -0.098114
0.467300 -0.015525 0.687945 -0.784164 -0.200425 -0.587296
0.591680 -0.266192 0.480074 -0.112051 0.936554 -0.332132
-0.380152 0.221340 0.222884 0.682329 -0.671143 0.289818
0.213874 -0.204015 -0.120827 -0.694450 0.537471 0.478397
0.416027 -0.180069 0.655444 -0.434923 0.403820 -0.804843
0.025188 0.075784 0.754192 0.063563 -0.199465 -0.977841
0.132131 -0.045469 0.183769 0.726063 0.307143 -0.615220
-0.351231 -0.236405 0.172770 0.541482 0.785655 0.299238
0.205510 -0.021553 0.771993 -0.014377 0.021516 -0.999665
0.224317 0.170331 0.330350 0.822037 -0.317905 -0.472433
0.321244 -0.175647 -0.038274 -0.440962 0.392492 0.807157
0.792456 0.146818 0.470739 -0.803416 -0.593027 -0.053317
0.441608 0.107666 0.680207 -0.784164 -0.200425 -0.587296
0.839307 0.073767 0.571360 -0.759103 -0.650913 -0.008635
-0.197805 -0.200914 -0.798175 0.538905 0.550262 0.637804
0.546613 0.312996 0.417497 0.157267 -0.852851 -0.497908
-0.426425 -0.085918 -0.458463 0.982654 0.177580 0.053438
0.024005 -0.173697 -0.737564 -0.186142 0.550121 -0.814075
0.122028 0.075481 0.189005 0.819147 -0.131659 -0.558270
0.718724 0.074035 0.137175 -0.004278 -0.000260 0.999991
-0.042688 0.051057 -0.673432 -0.160726 -0.133099 -0.977984
-0.319879 0.169010 -0.007567 0.704874 -0.675962 0.215007
-0.046889 -0.219583 0.598558 -0.194059 0.974854 -0.109544
-0.169319 -0.212883 -0.688491 -0.413724 0.640654 -0.646835
0.553687 0.274592 0.263174 -0.307829 -0.855428 0.416515
0.430673 0.224802 0.096398 -0.244373 -0.818261 0.520318
-0.001577 -0.052767 -0.495868 0.476741 0.313914 0.821082
0.371652 -0.263059 0.437162 0.363155 0.913891 -0.181442
0.190187 0.000392 0.318301 0.866009 0.292470 -0.405574
0.118217 0.239297 0.000352 -0.124436 -0.948975 -0.289763
-0.365062 -0.236611 0.205444 0.706499 0.682590 0.186894
-0.022247 -0.193866 -0.419603 0.288533 0.482266 0.827145
0.129108 -0.192312 0.584816 0.128373 0.685340 0.716820
0.349892 -0.213549 -0.700834 -0.777227 0.482187 -0.404245
0.433354 -0.224805 0.594439 -0.156122 0.825708 -0.542063
0.345113 0.174999 -0.696704 -0.765865 -0.587558 -0.261203
-0.125585 0.096718 -0.938308 0.189346 -0.511354 0.838251
0.307181 -0.089876 -0.508444 -0.837036 0.362293 -0.410018
-0.019221 0.137975 -0.449419 0.543236 -0.418019 0.728118
0.352915 -0.014147 -0.939272 -0.298677 0.016043 0.954219
0.328568 -0.238765 0.385357 0.835413 0.546612 -0.057457
-0.162301 0.048127 0.195669 -0.505176 -0.457557 -0.731737
-0.139928 0.209907 -0.716539 -0.028771 -0.933139 -0.358362
0.203506 0.218341 -0.485489 -0.467049 -0.881876 -0.064503
0.450009 -0.290931 0.453605 0.363155 0.913891 -0.181442
-0.323404 -0.199699 -0.666848 0.559889 0.779163 0.281830
0.195873 0.184970 -0.330156 -0.860938 -0.505234 -0.059365
-0.196158 0.122497 0.344347 -0.926714 -0.332150 0.175720
-0.090998 -0.228183 0.600163 -0.194059 0.974854 -0.109544
-0.073762 0.230572 -0.011620 -0.020190 -0.858609 -0.512233
0.164776 0.223984 -0.581259 0.640879 -0.766796 -0.036025
0.767748 -0.153234 0.272815 -0.868124 0.442265 0.225304
-0.300292 -0.224825 0.559666 0.349597 0.808228 -0.473865
-0.185295 -0.120802 0.393670 -0.840456 0.395253 0.370687
0.226026 -0.221506 -0.529714 -0.222891 0.973062 -0.058905
-0.176651 -0.025138 0.268323 -0.961761 0.273889 -0.000427
-0.045823 0.051243 -0.970619 -0.009200 0.017700 0.999801
0.076928 -0.178297 -0.499997 0.494907 0.690579 0.527416
0.318168 -0.213932 -0.816112 -0.449426 0.568543 0.689039
0.213662 -0.168521 0.217637 0.653221 0.654908 -0.379998
-0.043954 0.232420 -0.320299 -0.170870 -0.884714 0.433688
0.265602 -0.144772 0.425069 0.813826 0.580984 0.012015
-0.438573 -0.186267 0.277203 0.720343 0.615803 0.319207
0.086075 0.029508 -0.611614 0.962250 0.022052 0.271271
0.499656 -0.070253 0.056117 -0.626910 0.204286 0.751832
0.230779 -0.178459 0.229935 0.653221 0.654908 -0.379998
0.464187 -0.244948 0.554875 -0.156122 0.825708 -0.542063
0.709937 -0.135970 0.143106 -0.572138 0.499089 0.650821
0.309162 -0.206084 0.439311 0.813826 0.580984 0.012015
0.220374 0.088051 0.378857 0.822037 -0.317905 -0.472433
0.589905 0.103758 0.102858 -0.253356 -0.103086 0.961865
0.177122 -0.054818 0.255047 0.859464 0.252400 -0.444539
0.491141 0.309263 0.353060 0.061466 -0.998073 0.008468
0.019077 -0.043332 0.774205 -0.014377 0.021516 -0.999665
0.190668 0.166621 -0.236094 -0.925265 -0.315396 -0.210735
0.337198 0.075630 -0.548127 -0.895624 -0.375640 -0.238226
0.100125 0.165945 -0.920471 0.021437 -0.432646 0.901309
0.602186 0.042340 0.099510 -0.253356 -0.103086 0.961865
0.220344 0.090925 -0.253098 -0.925265 -0.315396 -0.210735
0.230973 0.232950 -0.024850 -0.425209 -0.840811 0.335014
0.012290 0.200630 0.578268 0.072514 -0.199668 0.977177
0.217891 -0.083532 -0.272128 -0.994953 0.099969 -0.008596
