ply
format ascii 1.0
element vertex 630
property float x
property float y
property float z
element face 1234
property list uchar int vertex_indices
end_header
-0.386732 -0.075000 0.375000
-0.377153 0.000000 0.375000
-0.375000 -0.102597 0.375000
-0.340858 -0.150000 0.375000
-0.313227 -0.150000 0.450000
-0.375000 -0.075000 0.361370
-0.375000 -0.075000 0.416158
-0.359976 -0.075000 0.450000
-0.375000 0.000000 0.372343
-0.375000 0.000000 0.382585
-0.375000 0.005648 0.375000
-0.351408 0.000000 0.450000
-0.325477 0.075000 0.375000
-0.327019 0.075000 0.450000
-0.235658 -0.225000 -0.675000
-0.236725 -0.225000 -0.600000
-0.232845 -0.225000 -0.525000
-0.227365 -0.225000 -0.450000
-0.300000 -0.188598 0.375000
-0.300000 -0.164364 0.450000
-0.228062 -0.225000 0.450000
-0.231689 -0.150000 -0.825000
-0.263334 -0.150000 -0.750000
-0.272067 -0.150000 -0.675000
-0.276136 -0.150000 -0.600000
-0.273410 -0.150000 -0.525000
-0.270320 -0.150000 -0.450000
-0.264901 -0.150000 -0.375000
-0.244777 -0.150000 -0.300000
-0.300000 -0.150000 0.349210
-0.300000 -0.150000 0.460570
-0.229671 -0.150000 0.525000
-0.252451 -0.075000 -0.825000
-0.281647 -0.075000 -0.750000
-0.293033 -0.075000 -0.675000
-0.289905 -0.075000 -0.600000
-0.287303 -0.075000 -0.525000
-0.284355 -0.075000 -0.450000
-0.283327 -0.075000 -0.375000
-0.266901 -0.075000 -0.300000
-0.239349 -0.075000 -0.225000
-0.300000 -0.075000 0.322137
-0.300000 -0.075000 0.492590
-0.259643 -0.075000 0.525000
-0.226235 0.000000 -0.900000
-0.253114 0.000000 -0.825000
-0.281787 0.000000 -0.750000
-0.292758 0.000000 -0.675000
-0.289680 0.000000 -0.600000
-0.292161 0.000000 -0.525000
-0.288820 0.000000 -0.450000
-0.288065 0.000000 -0.375000
-0.267819 0.000000 -0.300000
-0.238353 0.000000 -0.225000
-0.300000 0.000000 0.323028
-0.300000 0.000000 0.499114
-0.270122 0.000000 0.525000
-0.235709 0.075000 -0.825000
-0.268770 0.075000 -0.750000
-0.275554 0.075000 -0.675000
-0.274323 0.075000 -0.600000
-0.272403 0.075000 -0.525000
-0.267913 0.075000 -0.450000
-0.263860 0.075000 -0.375000
-0.243758 0.075000 -0.300000
-0.300000 0.075000 0.358425
-0.300000 0.096259 0.375000
-0.300000 0.075000 0.473647
-0.300000 0.105493 0.450000
-0.232304 0.075000 0.525000
-0.225443 0.150000 -0.750000
-0.232744 0.150000 -0.675000
-0.233446 0.150000 -0.600000
-0.236106 0.150000 -0.525000
-0.235343 0.150000 -0.450000
-0.229546 0.150000 -0.375000
-0.236864 0.150000 0.450000
-0.225000 -0.234322 -0.675000
-0.225000 -0.235137 -0.600000
-0.225000 -0.232638 -0.525000
-0.225000 -0.227568 -0.450000
-0.225000 -0.226520 0.450000
-0.154401 -0.225000 -0.900000
-0.225000 -0.162662 -0.825000
-0.176749 -0.225000 -0.825000
-0.225000 -0.225000 -0.734771
-0.225000 -0.220800 -0.750000
-0.219121 -0.225000 -0.750000
-0.225000 -0.225000 -0.397542
-0.225000 -0.223390 -0.375000
-0.223731 -0.225000 -0.375000
-0.225000 -0.187506 -0.300000
-0.199225 -0.225000 -0.300000
-0.174950 -0.225000 -0.225000
-0.155315 -0.225000 -0.150000
-0.225000 -0.225000 0.445282
-0.225000 -0.186852 0.375000
-0.225000 -0.225000 0.454537
-0.225000 -0.159500 0.525000
-0.187102 -0.225000 0.525000
-0.164355 -0.150000 -0.975000
-0.225000 -0.150000 -0.841971
-0.201341 -0.150000 -0.900000
-0.225000 -0.150000 -0.241326
-0.225000 -0.130054 -0.225000
-0.219483 -0.150000 -0.225000
-0.197461 -0.150000 -0.150000
-0.182923 -0.150000 -0.075000
-0.170641 -0.150000 0.000000
-0.155247 -0.150000 0.075000
-0.225000 -0.150000 0.353346
-0.225000 -0.150000 0.529026
-0.166437 -0.075000 -1.050000
-0.198643 -0.075000 -0.975000
-0.225000 -0.075000 -0.899658
-0.225000 -0.068114 -0.900000
-0.224879 -0.075000 -0.900000
-0.225000 -0.075000 -0.170944
-0.219640 -0.075000 -0.150000
-0.206250 -0.075000 -0.075000
-0.191016 -0.075000 0.000000
-0.179252 -0.075000 0.075000
-0.225000 -0.075000 0.325660
-0.225000 -0.075000 0.554721
-0.168422 -0.075000 0.600000
-0.182117 0.000000 -1.050000
-0.225000 0.000000 -0.904380
-0.206170 0.000000 -0.975000
-0.225000 0.006426 -0.900000
-0.225000 0.000000 -0.179078
-0.225000 0.051001 -0.225000
-0.217040 0.000000 -0.150000
-0.207255 0.000000 -0.075000
-0.196571 0.000000 0.000000
-0.180685 0.000000 0.075000
-0.225000 0.000000 0.327284
-0.225000 0.000000 0.562646
-0.171242 0.000000 0.600000
-0.184947 0.075000 -0.975000
-0.225000 0.075000 -0.857478
-0.210645 0.075000 -0.900000
-0.225000 0.092743 -0.825000
-0.225000 0.075000 -0.244040
-0.225000 0.111673 -0.300000
-0.218608 0.075000 -0.225000
-0.199275 0.075000 -0.150000
-0.191058 0.075000 -0.075000
-0.180873 0.075000 0.000000
-0.162902 0.075000 0.075000
-0.225000 0.075000 0.347742
-0.225000 0.115774 0.375000
-0.225000 0.075000 0.530568
-0.225000 0.083629 0.525000
-0.151201 0.150000 -0.900000
-0.225000 0.150000 -0.750862
-0.173663 0.150000 -0.825000
-0.225000 0.150388 -0.750000
-0.225000 0.156953 -0.675000
-0.225000 0.158186 -0.600000
-0.225000 0.161229 -0.525000
-0.225000 0.161020 -0.450000
-0.225000 0.150000 -0.361784
-0.225000 0.155029 -0.375000
-0.200403 0.150000 -0.300000
-0.176549 0.150000 -0.225000
-0.164357 0.150000 -0.150000
-0.158374 0.150000 -0.075000
-0.151278 0.150000 0.000000
-0.225000 0.150000 0.435466
-0.225000 0.150000 0.459906
-0.225000 0.155114 0.450000
-0.155109 0.150000 0.525000
-0.150000 -0.228824 -0.900000
-0.150000 -0.242720 -0.825000
-0.150000 -0.252734 -0.750000
-0.150000 -0.265515 -0.675000
-0.150000 -0.272213 -0.600000
-0.150000 -0.276543 -0.525000
-0.150000 -0.280520 -0.450000
-0.150000 -0.280775 -0.375000
-0.150000 -0.268067 -0.300000
-0.150000 -0.250299 -0.225000
-0.150000 -0.230433 -0.150000
-0.150000 -0.244011 0.450000
-0.150000 -0.247799 0.525000
-0.150000 -0.225000 -0.909251
-0.150000 -0.174365 -0.975000
-0.084888 -0.225000 -0.975000
-0.150000 -0.225000 -0.090434
-0.150000 -0.222450 -0.075000
-0.148122 -0.225000 -0.075000
-0.150000 -0.203413 0.000000
-0.137731 -0.225000 0.000000
-0.150000 -0.165506 0.075000
-0.117356 -0.225000 0.075000
-0.150000 -0.225000 0.421229
-0.150000 -0.173269 0.375000
-0.150000 -0.225000 0.553631
-0.150000 -0.150000 -0.997669
-0.150000 -0.098329 -1.050000
-0.150000 -0.150000 0.086600
-0.109010 -0.150000 0.150000
-0.150000 -0.150000 0.360867
-0.098055 -0.150000 0.375000
-0.150000 -0.150000 0.592607
-0.150000 -0.124815 0.600000
-0.132763 -0.150000 0.600000
-0.150000 -0.075000 -1.062872
-0.150000 -0.075000 0.131176
-0.136888 -0.075000 0.150000
-0.150000 -0.075000 0.341077
-0.150000 -0.075000 0.611863
-0.150000 0.000000 -1.073286
-0.150000 0.061431 -1.050000
-0.150000 0.000000 0.134151
-0.139065 0.000000 0.150000
-0.150000 0.000000 0.340021
-0.150000 0.000000 0.613441
-0.150000 0.031651 0.600000
-0.150000 0.075000 -1.039457
-0.150000 0.118550 -0.975000
-0.150000 0.075000 0.098859
-0.150000 0.121849 0.075000
-0.112582 0.075000 0.150000
-0.150000 0.075000 0.360075
-0.150000 0.103294 0.375000
-0.097952 0.075000 0.375000
-0.150000 0.075000 0.577994
-0.119238 0.075000 0.600000
-0.150000 0.150000 -0.902720
-0.084722 0.150000 -0.975000
-0.150000 0.150848 -0.900000
-0.150000 0.164880 -0.825000
-0.150000 0.181039 -0.750000
-0.150000 0.189039 -0.675000
-0.150000 0.200438 -0.600000
-0.150000 0.207975 -0.525000
-0.150000 0.205292 -0.450000
-0.150000 0.200801 -0.375000
-0.150000 0.191407 -0.300000
-0.150000 0.174776 -0.225000
-0.150000 0.164475 -0.150000
-0.150000 0.159020 -0.075000
-0.150000 0.150000 0.010402
-0.150000 0.151568 0.000000
-0.136780 0.150000 0.075000
-0.150000 0.150000 0.415631
-0.150000 0.169190 0.450000
-0.150000 0.150000 0.528344
-0.150000 0.152697 0.525000
-0.075000 -0.229225 -0.975000
-0.075000 -0.245764 -0.900000
-0.075000 -0.247430 -0.825000
-0.075000 -0.244416 -0.750000
-0.075000 -0.241699 -0.675000
-0.075000 -0.238310 -0.600000
-0.075000 -0.245125 -0.525000
-0.075000 -0.269231 -0.450000
-0.075000 -0.277168 -0.375000
-0.075000 -0.284690 -0.300000
-0.075000 -0.286367 -0.225000
-0.075000 -0.279604 -0.150000
-0.075000 -0.274475 -0.075000
-0.075000 -0.271073 0.000000
-0.075000 -0.253802 0.075000
-0.075000 -0.248880 0.450000
-0.075000 -0.274784 0.525000
-0.075000 -0.225000 -0.979718
-0.059110 -0.225000 -0.975000
-0.028599 -0.225000 -0.900000
-0.034083 -0.225000 -0.825000
-0.048437 -0.225000 -0.750000
-0.055607 -0.225000 -0.675000
-0.061304 -0.225000 -0.600000
-0.049142 -0.225000 -0.525000
-0.017099 -0.225000 -0.450000
-0.075000 -0.225000 0.136500
-0.075000 -0.210435 0.150000
-0.061684 -0.225000 0.150000
-0.075000 -0.225000 0.423074
-0.004965 -0.225000 0.375000
-0.075000 -0.225000 0.588923
-0.075000 -0.202303 0.600000
-0.075000 -0.150000 -1.031914
-0.075000 -0.103369 -1.050000
-0.019074 -0.150000 -0.675000
-0.029002 -0.150000 -0.600000
-0.003232 -0.150000 -0.525000
-0.075000 -0.150000 0.180943
-0.027560 -0.150000 0.225000
-0.005919 -0.150000 0.300000
-0.075000 -0.150000 0.381119
-0.075000 -0.103787 0.375000
-0.066155 -0.150000 0.375000
-0.075000 -0.150000 0.619713
-0.075000 -0.075000 -1.060121
-0.015222 -0.075000 -0.675000
-0.021675 -0.075000 -0.600000
-0.075000 -0.075000 0.214066
-0.065104 -0.075000 0.225000
-0.075000 -0.075000 0.369924
-0.019266 -0.075000 0.300000
-0.075000 -0.075000 0.633822
-0.075000 0.000000 -1.068756
-0.075000 0.050542 -1.050000
-0.020254 0.000000 -0.675000
-0.018960 0.000000 -0.600000
-0.075000 0.000000 0.211508
-0.063288 0.000000 0.225000
-0.075000 0.000000 0.359747
-0.031134 0.000000 0.300000
-0.075000 0.047142 0.375000
-0.075000 0.000000 0.645209
-0.075000 0.075000 -1.040858
-0.019688 0.075000 -0.750000
-0.031596 0.075000 -0.675000
-0.029854 0.075000 -0.600000
-0.010272 0.075000 -0.525000
-0.075000 0.075000 0.188828
-0.075000 0.144835 0.150000
-0.043670 0.075000 0.225000
-0.014771 0.075000 0.300000
-0.075000 0.075000 0.381558
-0.066151 0.075000 0.375000
-0.075000 0.075000 0.628451
-0.075000 0.129292 0.600000
-0.075000 0.150000 -0.980479
-0.075000 0.153237 -0.975000
-0.064315 0.150000 -0.975000
-0.075000 0.164867 -0.900000
-0.049212 0.150000 -0.900000
-0.075000 0.157697 -0.825000
-0.060914 0.150000 -0.825000
-0.075000 0.159001 -0.750000
-0.062819 0.150000 -0.750000
-0.075000 0.160816 -0.675000
-0.061598 0.150000 -0.675000
-0.075000 0.161690 -0.600000
-0.061361 0.150000 -0.600000
-0.075000 0.173564 -0.525000
-0.047614 0.150000 -0.525000
-0.075000 0.196008 -0.450000
-0.015044 0.150000 -0.450000
-0.075000 0.208303 -0.375000
-0.075000 0.214672 -0.300000
-0.075000 0.211635 -0.225000
-0.075000 0.204357 -0.150000
-0.075000 0.204149 -0.075000
-0.075000 0.202975 0.000000
-0.075000 0.150000 0.145976
-0.075000 0.187365 0.075000
-0.069758 0.150000 0.150000
-0.075000 0.150000 0.413008
-0.030284 0.150000 0.375000
-0.075000 0.179423 0.450000
-0.075000 0.150000 0.583457
-0.075000 0.185131 0.525000
0.000000 -0.233573 -0.375000
0.000000 -0.254525 -0.300000
0.000000 -0.268932 -0.225000
0.000000 -0.275737 -0.150000
0.000000 -0.280655 -0.075000
0.000000 -0.279205 0.000000
0.000000 -0.275529 0.075000
0.000000 -0.252207 0.150000
0.000000 -0.228266 0.375000
0.000000 -0.271896 0.450000
0.000000 -0.291052 0.525000
0.000000 -0.206799 -0.975000
0.000000 -0.204299 -0.900000
0.000000 -0.189712 -0.825000
0.000000 -0.161748 -0.750000
0.000000 -0.225000 -0.403708
0.000000 -0.197751 -0.450000
0.007487 -0.225000 -0.375000
0.025400 -0.225000 -0.300000
0.042901 -0.225000 -0.225000
0.061475 -0.225000 -0.150000
0.073780 -0.225000 -0.075000
0.000000 -0.225000 0.202698
0.000000 -0.197735 0.225000
0.020374 -0.225000 0.225000
0.000000 -0.225000 0.366868
0.000000 -0.165030 0.300000
0.028613 -0.225000 0.300000
0.000000 -0.225000 0.589701
0.000000 -0.202247 0.600000
0.000000 -0.150000 -1.032855
0.000000 -0.104216 -1.050000
0.051300 -0.150000 -0.975000
0.034307 -0.150000 -0.900000
0.021875 -0.150000 -0.825000
0.000000 -0.150000 -0.732339
0.005970 -0.150000 -0.750000
0.000000 -0.150000 -0.515045
0.000000 -0.129372 -0.525000
0.021508 -0.150000 -0.450000
0.039483 -0.150000 -0.375000
0.061828 -0.150000 -0.300000
0.000000 -0.150000 0.622356
0.000000 -0.075000 -1.058412
0.060494 -0.075000 -1.050000
0.072340 -0.075000 -0.975000
0.050156 -0.075000 -0.900000
0.030204 -0.075000 -0.825000
0.000000 -0.075000 -0.729053
0.006237 -0.075000 -0.750000
0.000000 -0.075000 -0.545225
0.008126 -0.075000 -0.525000
0.032758 -0.075000 -0.450000
0.053582 -0.075000 -0.375000
0.000000 -0.075000 0.637828
0.000000 0.000000 -1.068040
0.000000 0.050918 -1.050000
0.055694 0.000000 -0.900000
0.031775 0.000000 -0.825000
0.000000 0.000000 -0.740902
0.000000 0.009676 -0.750000
0.002942 0.000000 -0.750000
0.000000 0.000000 -0.537902
0.000000 0.022049 -0.525000
0.004197 0.000000 -0.525000
0.033082 0.000000 -0.450000
0.054582 0.000000 -0.375000
0.000000 0.000000 0.648332
0.000000 0.075000 -1.036421
0.000000 0.124151 -0.975000
0.050279 0.075000 -0.975000
0.000000 0.106676 -0.900000
0.024556 0.075000 -0.900000
0.000000 0.075000 -0.815992
0.000000 0.080506 -0.825000
0.002806 0.075000 -0.825000
0.000000 0.075000 -0.496504
0.000000 0.121114 -0.450000
0.016844 0.075000 -0.450000
0.040894 0.075000 -0.375000
0.068526 0.075000 -0.300000
0.000000 0.141917 0.225000
0.000000 0.107918 0.300000
0.000000 0.075000 0.635694
0.000000 0.148821 0.600000
0.000000 0.150000 -0.414871
0.000000 0.164790 -0.375000
0.012543 0.150000 -0.375000
0.000000 0.188418 -0.300000
0.035704 0.150000 -0.300000
0.000000 0.200487 -0.225000
0.059407 0.150000 -0.225000
0.000000 0.205192 -0.150000
0.071144 0.150000 -0.150000
0.000000 0.206111 -0.075000
0.000000 0.205680 0.000000
0.000000 0.198401 0.075000
0.000000 0.150000 0.214689
0.000000 0.177453 0.150000
0.012167 0.150000 0.225000
0.000000 0.150000 0.336435
0.023527 0.150000 0.300000
0.000000 0.171055 0.375000
0.000000 0.194847 0.450000
0.000000 0.150000 0.599227
0.000000 0.207712 0.525000
0.051280 0.150000 0.600000
0.075000 -0.230531 0.000000
0.075000 -0.237101 0.075000
0.075000 -0.242166 0.150000
0.075000 -0.254706 0.225000
0.075000 -0.260990 0.300000
0.075000 -0.273575 0.375000
0.075000 -0.292232 0.450000
0.075000 -0.292668 0.525000
0.075000 -0.170090 -0.225000
0.075000 -0.205485 -0.150000
0.075000 -0.225000 -0.063769
0.075000 -0.223441 -0.075000
0.080485 -0.225000 0.000000
0.087960 -0.225000 0.075000
0.099370 -0.225000 0.150000
0.147257 -0.225000 0.225000
0.075000 -0.225000 0.590380
0.075000 -0.205745 0.600000
0.075000 -0.150000 -0.258047
0.075000 -0.089218 -0.300000
0.084540 -0.150000 -0.225000
0.102098 -0.150000 -0.150000
0.112160 -0.150000 -0.075000
0.119417 -0.150000 0.000000
0.130923 -0.150000 0.075000
0.075000 -0.150000 0.624785
0.075000 -0.045985 -1.050000
0.075000 -0.051929 -0.975000
0.075000 -0.075000 -0.308512
0.077814 -0.075000 -0.300000
0.098051 -0.075000 -0.225000
0.116093 -0.075000 -0.150000
0.127130 -0.075000 -0.075000
0.137973 -0.075000 0.000000
0.075000 -0.075000 0.640335
0.075000 0.000000 -1.053681
0.075000 0.007818 -1.050000
0.078510 0.000000 -1.050000
0.075000 0.000000 -0.955883
0.075000 0.018491 -0.975000
0.080974 0.000000 -0.975000
0.075000 0.000000 -0.320899
0.075000 0.042898 -0.300000
0.082947 0.000000 -0.300000
0.096860 0.000000 -0.225000
0.114143 0.000000 -0.150000
0.126903 0.000000 -0.075000
0.138118 0.000000 0.000000
0.075000 0.000000 0.645671
0.075000 0.075000 -0.279107
0.075000 0.118904 -0.225000
0.090121 0.075000 -0.225000
0.075000 0.143586 -0.150000
0.101683 0.075000 -0.150000
0.111948 0.075000 -0.075000
0.119051 0.075000 0.000000
0.130918 0.075000 0.075000
0.146939 0.075000 0.150000
0.075000 0.075000 0.633550
0.075000 0.150000 -0.109483
0.075000 0.152597 -0.075000
0.077407 0.150000 -0.075000
0.075000 0.156429 0.000000
0.080789 0.150000 0.000000
0.075000 0.160541 0.075000
0.085859 0.150000 0.075000
0.075000 0.162678 0.150000
0.093232 0.150000 0.150000
0.075000 0.171689 0.225000
0.124652 0.150000 0.225000
0.075000 0.190597 0.300000
0.075000 0.209500 0.375000
0.075000 0.214788 0.450000
0.075000 0.219884 0.525000
0.075000 0.150000 0.600289
0.075000 0.150427 0.600000
0.095719 0.150000 0.600000
0.150000 -0.259547 0.300000
0.150000 -0.287681 0.375000
0.150000 -0.291535 0.450000
0.150000 -0.275399 0.525000
0.150000 -0.157680 0.150000
0.150000 -0.225000 0.227709
0.150000 -0.223011 0.225000
0.194888 -0.225000 0.300000
0.150000 -0.225000 0.592369
0.150000 -0.213304 0.600000
0.150000 -0.150000 0.136984
0.150000 -0.080398 0.075000
0.154451 -0.150000 0.150000
0.197209 -0.150000 0.225000
0.150000 -0.150000 0.626704
0.150000 -0.075000 0.067245
0.151420 -0.075000 0.075000
0.178015 -0.075000 0.150000
0.221119 -0.075000 0.225000
0.150000 -0.075000 0.640411
0.150000 0.000000 0.058952
0.150000 0.011570 0.075000
0.153324 0.000000 0.075000
0.150000 0.067975 0.150000
0.180759 0.000000 0.150000
0.150000 0.000000 0.638133
0.150000 0.075000 0.156063
0.150000 0.130194 0.225000
0.194509 0.075000 0.225000
0.150000 0.075000 0.626255
0.150000 0.148037 0.600000
0.150000 0.150000 0.252528
0.150000 0.173624 0.300000
0.180790 0.150000 0.300000
0.150000 0.207759 0.375000
0.150000 0.209453 0.450000
0.150000 0.150000 0.598874
0.150000 0.202170 0.525000
0.225000 -0.238632 0.375000
0.225000 -0.261230 0.450000
0.225000 -0.243941 0.525000
0.225000 -0.225000 0.349745
0.225000 -0.186758 0.300000
0.237298 -0.225000 0.375000
0.254590 -0.225000 0.450000
0.225000 -0.225000 0.552789
0.246457 -0.225000 0.525000
0.225000 -0.180970 0.600000
0.225000 -0.150000 0.266753
0.245093 -0.150000 0.300000
0.272888 -0.150000 0.375000
0.279388 -0.150000 0.450000
0.279043 -0.150000 0.525000
0.225000 -0.150000 0.618505
0.246380 -0.150000 0.600000
0.225000 -0.075000 0.231622
0.225000 -0.022134 0.225000
0.260705 -0.075000 0.300000
0.278203 -0.075000 0.375000
0.280871 -0.075000 0.450000
0.278570 -0.075000 0.525000
0.225000 -0.075000 0.627339
0.263163 -0.075000 0.600000
0.225000 0.000000 0.222325
0.225000 0.004649 0.225000
0.226549 0.000000 0.225000
0.264155 0.000000 0.300000
0.278103 0.000000 0.375000
0.279658 0.000000 0.450000
0.279239 0.000000 0.525000
0.225000 0.000000 0.619476
0.256293 0.000000 0.600000
0.225000 0.075000 0.261736
0.225000 0.108403 0.300000
0.249257 0.075000 0.300000
0.280452 0.075000 0.375000
0.282589 0.075000 0.450000
0.277797 0.075000 0.525000
0.225000 0.075000 0.601874
0.225000 0.078842 0.600000
0.227782 0.075000 0.600000
0.225000 0.150000 0.357698
0.225000 0.162029 0.375000
0.237220 0.150000 0.375000
0.225000 0.176703 0.450000
0.252659 0.150000 0.450000
0.225000 0.150000 0.546703
0.225000 0.166717 0.525000
0.245675 0.150000 0.525000
3 5 2 0
3 2 6 0
3 8 5 0
3 1 8 0
3 6 9 1
3 0 6 1
3 29 18 3
3 18 19 4
3 3 18 4
3 19 30 4
3 3 2 5
3 3 5 29
3 29 5 41
3 2 7 6
3 2 3 7
3 3 4 7
3 30 42 7
3 4 30 7
3 41 5 54
3 54 5 8
3 11 6 7
3 9 6 11
3 42 55 11
3 7 42 11
3 10 12 65
3 10 65 8
3 8 65 54
3 9 12 10
3 9 11 12
3 11 13 12
3 55 67 13
3 11 55 13
3 65 12 66
3 12 13 68
3 66 12 68
3 13 67 68
3 85 77 14
3 77 78 15
3 14 77 15
3 78 79 16
3 15 78 16
3 79 80 17
3 16 79 17
3 80 88 17
3 95 81 20
3 81 97 20
3 101 83 21
3 83 86 22
3 21 83 22
3 86 85 14
3 86 14 22
3 22 14 23
3 14 15 23
3 15 24 23
3 15 16 24
3 16 25 24
3 16 17 25
3 17 26 25
3 88 89 27
3 88 27 17
3 17 27 26
3 89 91 28
3 27 89 28
3 91 103 28
3 29 110 96
3 18 29 96
3 20 96 95
3 20 19 96
3 19 18 96
3 19 31 30
3 20 31 19
3 20 98 31
3 20 97 98
3 98 111 31
3 114 101 21
3 32 114 21
3 21 22 32
3 22 33 32
3 22 23 33
3 23 34 33
3 23 24 34
3 24 35 34
3 24 25 35
3 25 36 35
3 25 26 36
3 26 37 36
3 26 27 37
3 27 38 37
3 27 28 38
3 28 39 38
3 103 104 40
3 103 40 28
3 28 40 39
3 104 117 40
3 110 29 122
3 122 29 41
3 43 30 31
3 42 30 43
3 111 123 43
3 31 111 43
3 115 114 32
3 115 32 44
3 44 32 45
3 32 33 45
3 33 46 45
3 33 34 46
3 34 47 46
3 34 35 47
3 35 48 47
3 35 36 48
3 36 49 48
3 36 37 49
3 37 50 49
3 37 38 50
3 38 51 50
3 38 39 51
3 39 52 51
3 39 40 52
3 40 53 52
3 117 129 53
3 40 117 53
3 122 41 135
3 135 41 54
3 56 42 43
3 55 42 56
3 123 136 56
3 43 123 56
3 139 128 44
3 139 44 57
3 57 44 45
3 45 46 57
3 46 58 57
3 46 47 58
3 47 59 58
3 47 48 59
3 48 60 59
3 48 49 60
3 49 61 60
3 49 50 61
3 50 62 61
3 50 51 62
3 51 63 62
3 51 52 63
3 52 64 63
3 130 142 64
3 130 64 53
3 53 64 52
3 53 129 130
3 135 54 149
3 149 54 65
3 69 55 56
3 67 55 69
3 136 151 69
3 56 136 69
3 139 57 141
3 154 141 57
3 154 57 70
3 70 57 58
3 58 59 70
3 59 71 70
3 59 60 71
3 60 72 71
3 60 61 72
3 61 73 72
3 61 62 73
3 62 74 73
3 62 63 74
3 63 75 74
3 143 161 75
3 143 75 64
3 64 75 63
3 64 142 143
3 149 65 66
3 150 149 66
3 168 68 76
3 168 150 68
3 150 66 68
3 76 152 169
3 68 152 76
3 68 69 152
3 68 67 69
3 69 151 152
3 70 71 157
3 156 70 157
3 71 72 158
3 157 71 158
3 72 73 159
3 158 72 159
3 73 74 160
3 159 73 160
3 74 75 162
3 160 74 162
3 75 161 162
3 168 76 170
3 76 169 170
3 185 172 82
3 172 173 84
3 82 172 84
3 173 174 87
3 84 173 87
3 85 87 174
3 85 174 77
3 77 174 175
3 175 176 77
3 77 176 78
3 176 177 78
3 78 177 79
3 177 178 79
3 79 178 80
3 90 88 80
3 90 80 179
3 179 80 178
3 179 180 92
3 90 179 92
3 180 181 93
3 92 180 93
3 181 182 94
3 93 181 94
3 182 188 94
3 95 195 183
3 81 95 183
3 99 97 81
3 99 81 184
3 184 81 183
3 184 197 99
3 198 186 100
3 186 185 82
3 186 82 100
3 100 82 102
3 101 84 83
3 101 102 84
3 102 82 84
3 87 83 84
3 86 83 87
3 87 85 86
3 90 89 88
3 92 89 90
3 91 89 92
3 91 105 103
3 91 92 105
3 92 93 105
3 93 94 105
3 94 106 105
3 188 189 107
3 188 107 94
3 94 107 106
3 189 191 108
3 107 189 108
3 191 193 109
3 108 191 109
3 193 200 109
3 110 202 196
3 96 110 196
3 196 95 96
3 195 95 196
3 99 98 97
3 98 99 197
3 98 197 111
3 111 197 204
3 207 199 112
3 199 198 100
3 199 100 112
3 112 100 113
3 100 102 113
3 102 116 113
3 102 114 116
3 101 114 102
3 105 104 103
3 104 118 117
3 104 105 118
3 105 106 118
3 106 107 118
3 107 119 118
3 107 108 119
3 108 120 119
3 108 109 120
3 109 121 120
3 200 208 121
3 109 200 121
3 202 110 210
3 210 110 122
3 124 204 205
3 124 123 204
3 123 111 204
3 205 211 124
3 212 207 112
3 125 212 112
3 112 113 125
3 113 127 125
3 126 116 115
3 126 127 116
3 127 113 116
3 116 114 115
3 131 117 118
3 129 117 131
3 118 119 131
3 119 132 131
3 119 120 132
3 120 133 132
3 120 121 133
3 121 134 133
3 208 214 134
3 121 208 134
3 210 122 216
3 216 122 135
3 137 123 124
3 136 123 137
3 211 217 137
3 124 211 137
3 212 125 213
3 219 213 125
3 219 125 138
3 138 125 127
3 128 127 126
3 128 140 127
3 140 138 127
3 128 139 140
3 130 144 142
3 129 144 130
3 129 131 144
3 131 145 144
3 131 132 145
3 132 146 145
3 132 133 146
3 133 147 146
3 133 134 147
3 134 148 147
3 214 221 148
3 134 214 148
3 216 135 224
3 224 135 149
3 218 136 137
3 218 227 136
3 227 151 136
3 137 217 218
3 219 138 220
3 229 220 138
3 229 138 153
3 153 138 140
3 141 140 139
3 141 155 140
3 155 153 140
3 141 154 155
3 143 163 161
3 142 163 143
3 142 144 163
3 144 164 163
3 144 145 164
3 145 165 164
3 145 146 165
3 146 166 165
3 146 147 166
3 147 167 166
3 222 243 167
3 222 167 148
3 148 167 147
3 148 221 222
3 224 149 150
3 225 224 150
3 150 246 225
3 168 246 150
3 152 171 169
3 171 152 151
3 171 151 248
3 248 151 227
3 229 153 231
3 153 155 232
3 231 153 232
3 155 154 156
3 155 156 232
3 232 156 233
3 233 156 234
3 156 157 234
3 234 157 235
3 157 158 235
3 235 158 236
3 158 159 236
3 236 159 237
3 159 160 237
3 237 160 238
3 160 162 238
3 161 163 239
3 161 239 162
3 162 239 238
3 163 164 240
3 239 163 240
3 164 165 241
3 240 164 241
3 165 166 242
3 241 165 242
3 166 167 244
3 242 166 244
3 167 243 244
3 246 168 170
3 247 246 170
3 169 171 249
3 169 249 170
3 170 249 247
3 267 250 187
3 185 187 250
3 185 250 172
3 172 250 251
3 251 252 172
3 172 252 173
3 252 253 173
3 173 253 174
3 253 254 174
3 174 254 175
3 254 255 175
3 175 255 176
3 255 256 176
3 176 256 177
3 256 257 177
3 177 257 178
3 257 258 178
3 178 258 179
3 258 259 179
3 179 259 180
3 259 260 180
3 180 260 181
3 260 261 181
3 181 261 182
3 190 188 182
3 190 182 262
3 262 182 261
3 262 263 192
3 190 262 192
3 263 264 194
3 192 263 194
3 264 276 194
3 195 279 265
3 183 195 265
3 265 266 183
3 183 266 184
3 184 266 281
3 197 184 281
3 187 186 198
3 187 198 267
3 267 198 283
3 187 185 186
3 190 189 188
3 192 189 190
3 191 189 192
3 194 191 192
3 193 191 194
3 193 201 200
3 194 201 193
3 194 277 201
3 194 276 277
3 277 288 201
3 203 195 196
3 203 291 195
3 291 279 195
3 206 281 282
3 206 204 281
3 204 197 281
3 282 294 206
3 207 295 284
3 199 207 284
3 284 198 199
3 283 198 284
3 209 200 201
3 208 200 209
3 288 298 209
3 201 288 209
3 292 203 202
3 292 202 300
3 300 202 210
3 203 292 291
3 206 205 204
3 205 206 294
3 205 294 211
3 211 294 302
3 295 207 303
3 303 207 212
3 215 208 209
3 214 208 215
3 298 307 215
3 209 298 215
3 300 210 309
3 309 210 216
3 302 312 211
3 312 217 211
3 303 212 213
3 304 303 213
3 213 313 304
3 219 313 213
3 223 214 215
3 221 214 223
3 307 318 223
3 215 307 223
3 226 311 309
3 226 309 224
3 224 309 216
3 311 226 322
3 218 228 227
3 228 218 217
3 228 217 324
3 324 217 312
3 220 230 326
3 220 326 219
3 219 326 313
3 220 229 230
3 222 245 243
3 245 319 349
3 222 319 245
3 222 223 319
3 222 221 223
3 223 318 319
3 226 224 225
3 225 322 226
3 225 246 322
3 246 352 322
3 325 227 228
3 325 355 227
3 355 248 227
3 228 324 325
3 326 230 327
3 230 229 231
3 230 231 327
3 327 231 329
3 329 231 331
3 231 232 331
3 331 232 333
3 232 233 333
3 333 233 335
3 233 234 335
3 335 234 337
3 234 235 337
3 337 235 339
3 235 236 339
3 339 236 341
3 236 237 341
3 341 237 343
3 237 238 343
3 343 238 344
3 238 239 344
3 344 239 345
3 239 240 345
3 345 240 346
3 240 241 346
3 346 241 347
3 241 242 347
3 347 242 348
3 242 244 348
3 243 245 350
3 243 350 244
3 244 350 348
3 245 349 350
3 352 246 247
3 354 352 247
3 354 247 356
3 247 249 356
3 356 249 248
3 355 356 248
3 250 267 268
3 251 250 268
3 269 251 268
3 252 251 269
3 270 252 269
3 253 252 270
3 271 253 270
3 254 253 271
3 272 254 271
3 256 255 273
3 274 256 273
3 257 256 274
3 275 257 274
3 275 372 357
3 275 357 257
3 257 357 258
3 357 358 258
3 258 358 259
3 358 359 259
3 259 359 260
3 359 360 260
3 260 360 261
3 360 361 261
3 261 361 262
3 361 362 262
3 262 362 263
3 362 363 263
3 263 363 264
3 278 276 264
3 278 264 364
3 364 264 363
3 364 379 278
3 382 365 280
3 279 280 365
3 279 365 265
3 265 365 366
3 366 367 265
3 265 367 266
3 266 367 385
3 281 266 385
3 368 268 267
3 368 267 387
3 387 267 283
3 268 369 269
3 368 369 268
3 269 370 270
3 369 370 269
3 270 371 271
3 370 371 270
3 392 271 371
3 392 285 271
3 285 272 271
3 272 285 273
3 273 285 286
3 273 286 274
3 274 286 287
3 373 287 394
3 373 275 287
3 275 274 287
3 275 373 372
3 278 277 276
3 277 289 288
3 278 289 277
3 278 380 289
3 278 379 380
3 380 383 290
3 289 380 290
3 383 382 280
3 383 280 290
3 290 280 293
3 280 291 293
3 279 291 280
3 385 282 281
3 386 282 385
3 282 386 399
3 294 282 399
3 295 400 388
3 284 295 388
3 388 283 284
3 387 283 388
3 405 285 392
3 296 285 405
3 285 296 286
3 286 296 297
3 395 297 407
3 395 287 297
3 287 286 297
3 287 395 394
3 299 288 289
3 298 288 299
3 289 290 299
3 290 301 299
3 300 293 292
3 300 301 293
3 301 290 293
3 293 291 292
3 399 411 294
3 411 302 294
3 400 295 412
3 412 295 303
3 416 296 405
3 305 296 416
3 296 305 297
3 297 305 306
3 407 306 419
3 297 306 407
3 299 301 308
3 301 310 308
3 301 309 310
3 300 309 301
3 411 424 302
3 424 312 302
3 412 303 304
3 413 412 304
3 304 425 413
3 313 425 304
3 430 314 417
3 417 305 416
3 417 314 305
3 314 315 305
3 305 315 306
3 306 315 316
3 419 317 420
3 419 306 317
3 306 316 317
3 420 317 433
3 320 307 308
3 318 307 320
3 308 310 320
3 310 321 320
3 311 310 309
3 311 323 310
3 323 321 310
3 311 322 323
3 424 440 312
3 440 324 312
3 328 426 425
3 328 425 326
3 326 425 313
3 426 330 428
3 328 330 426
3 428 332 431
3 330 332 428
3 431 314 430
3 431 332 314
3 332 334 314
3 314 334 315
3 315 334 336
3 315 336 316
3 316 336 338
3 316 338 317
3 317 338 340
3 433 342 434
3 433 317 342
3 317 340 342
3 434 342 442
3 351 438 454
3 319 438 351
3 319 320 438
3 319 318 320
3 320 321 439
3 438 320 439
3 457 439 321
3 457 321 353
3 353 321 323
3 323 352 353
3 322 352 323
3 355 441 461
3 325 441 355
3 441 325 324
3 440 441 324
3 328 326 327
3 330 328 327
3 329 330 327
3 332 330 329
3 331 332 329
3 334 332 331
3 333 334 331
3 336 334 333
3 335 336 333
3 340 338 337
3 339 340 337
3 342 340 339
3 341 342 339
3 442 342 341
3 442 341 443
3 443 341 343
3 443 343 445
3 343 344 445
3 445 344 447
3 344 345 447
3 447 345 449
3 345 346 449
3 449 346 451
3 346 347 451
3 451 347 452
3 347 348 452
3 452 348 453
3 348 350 453
3 349 351 455
3 349 455 350
3 350 455 453
3 351 454 455
3 457 353 459
3 353 352 354
3 353 354 459
3 459 354 460
3 460 354 462
3 354 356 462
3 462 356 355
3 461 462 355
3 357 372 374
3 358 357 374
3 375 358 374
3 359 358 375
3 376 359 375
3 360 359 376
3 377 360 376
3 361 360 377
3 378 361 377
3 378 474 464
3 378 464 361
3 361 464 362
3 464 465 362
3 362 465 363
3 465 466 363
3 363 466 364
3 381 379 364
3 381 364 467
3 467 364 466
3 467 468 384
3 381 467 384
3 382 384 468
3 382 468 365
3 365 468 469
3 469 470 365
3 365 470 366
3 470 471 366
3 366 471 367
3 367 471 480
3 385 367 480
3 368 387 389
3 369 368 389
3 390 369 389
3 370 369 390
3 391 370 390
3 371 370 391
3 393 371 391
3 371 393 392
3 373 394 396
3 372 373 396
3 372 396 374
3 374 396 397
3 374 397 375
3 375 397 398
3 472 398 482
3 472 376 398
3 376 375 398
3 376 473 377
3 472 473 376
3 377 475 378
3 473 475 377
3 378 475 474
3 384 380 381
3 383 380 384
3 384 382 383
3 480 386 385
3 481 386 480
3 386 481 489
3 399 386 489
3 388 400 401
3 387 388 401
3 387 401 389
3 389 401 402
3 389 402 390
3 390 402 403
3 390 403 391
3 391 403 404
3 391 404 393
3 393 404 406
3 393 406 405
3 392 393 405
3 395 407 408
3 394 395 408
3 394 408 396
3 396 408 409
3 396 409 397
3 397 409 410
3 483 410 492
3 483 398 410
3 398 397 410
3 398 483 482
3 489 498 399
3 498 411 399
3 490 401 400
3 490 400 499
3 499 400 412
3 401 491 402
3 490 491 401
3 502 402 491
3 502 414 402
3 414 403 402
3 403 414 404
3 404 414 415
3 404 415 406
3 406 415 418
3 406 418 416
3 405 406 416
3 421 408 407
3 419 421 407
3 408 421 409
3 409 421 422
3 409 422 410
3 410 422 423
3 492 423 505
3 410 423 492
3 498 512 411
3 512 424 411
3 499 412 413
3 500 499 413
3 427 413 425
3 427 503 413
3 503 500 413
3 503 414 502
3 503 427 414
3 427 429 414
3 414 429 415
3 415 429 432
3 430 417 418
3 430 418 432
3 432 418 415
3 418 417 416
3 421 419 420
3 420 433 435
3 420 435 421
3 421 435 422
3 422 435 423
3 423 435 436
3 505 437 506
3 505 423 437
3 423 436 437
3 506 437 513
3 512 522 424
3 522 440 424
3 427 425 426
3 429 427 426
3 428 429 426
3 432 429 428
3 431 432 428
3 432 431 430
3 435 433 434
3 434 442 444
3 434 444 435
3 435 444 436
3 436 444 437
3 437 444 446
3 513 448 514
3 513 437 448
3 437 446 448
3 514 450 516
3 448 450 514
3 516 450 523
3 439 456 438
3 458 456 439
3 439 457 458
3 463 441 440
3 463 440 538
3 538 440 522
3 444 442 443
3 446 444 443
3 445 446 443
3 448 446 445
3 447 448 445
3 450 448 447
3 449 450 447
3 523 450 449
3 523 449 524
3 524 449 451
3 524 451 526
3 451 452 526
3 526 452 528
3 452 453 528
3 528 453 530
3 453 455 530
3 454 456 532
3 454 532 455
3 455 532 530
3 456 458 534
3 532 456 534
3 458 457 459
3 458 459 534
3 534 459 535
3 535 459 536
3 459 460 536
3 536 460 537
3 460 462 537
3 461 463 539
3 461 539 462
3 462 539 537
3 463 538 539
3 465 464 476
3 477 465 476
3 466 465 477
3 478 466 477
3 467 466 478
3 479 467 478
3 479 546 541
3 479 541 467
3 467 541 468
3 541 542 468
3 468 542 469
3 542 543 469
3 469 543 470
3 543 544 470
3 470 544 471
3 471 544 549
3 480 471 549
3 472 482 484
3 473 472 484
3 485 473 484
3 475 473 485
3 486 475 485
3 474 475 486
3 474 486 476
3 476 486 487
3 476 487 477
3 477 487 488
3 545 488 551
3 545 478 488
3 478 477 488
3 478 547 479
3 545 547 478
3 479 547 546
3 549 481 480
3 550 481 549
3 481 550 555
3 489 481 555
3 483 492 493
3 482 483 493
3 482 493 484
3 484 493 494
3 484 494 485
3 485 494 495
3 485 495 486
3 486 495 496
3 486 496 487
3 487 496 497
3 552 497 556
3 552 488 497
3 488 487 497
3 488 552 551
3 555 560 489
3 560 498 489
3 490 499 501
3 491 490 501
3 504 491 501
3 491 504 502
3 507 493 492
3 505 507 492
3 493 507 494
3 494 507 508
3 494 508 495
3 495 508 509
3 495 509 496
3 496 509 510
3 496 510 497
3 497 510 511
3 556 511 561
3 497 511 556
3 560 566 498
3 566 512 498
3 501 499 500
3 504 501 500
3 503 504 500
3 504 503 502
3 507 505 506
3 506 513 515
3 506 515 507
3 507 515 508
3 508 515 509
3 509 515 517
3 509 517 510
3 510 517 518
3 510 518 511
3 511 518 519
3 561 520 562
3 561 511 520
3 511 519 520
3 562 521 564
3 520 521 562
3 566 570 512
3 570 522 512
3 515 513 514
3 517 515 514
3 516 517 514
3 516 523 525
3 516 525 517
3 517 525 518
3 518 525 519
3 519 525 527
3 519 527 520
3 520 527 529
3 520 529 521
3 521 529 531
3 567 533 568
3 567 521 533
3 521 531 533
3 568 533 572
3 577 540 571
3 571 540 538
3 571 538 570
3 570 538 522
3 527 525 524
3 526 527 524
3 529 527 526
3 528 529 526
3 531 529 528
3 530 531 528
3 533 531 530
3 532 533 530
3 572 533 532
3 572 532 573
3 573 532 534
3 573 534 575
3 534 535 575
3 575 535 576
3 535 536 576
3 576 536 578
3 536 537 578
3 540 577 578
3 540 578 539
3 539 578 537
3 540 539 538
3 541 546 548
3 548 582 579
3 548 579 541
3 541 579 542
3 579 580 542
3 542 580 543
3 580 581 543
3 543 581 544
3 544 581 586
3 549 544 586
3 545 551 553
3 547 545 553
3 554 547 553
3 554 589 583
3 547 554 583
3 547 583 548
3 547 548 546
3 548 583 582
3 586 550 549
3 588 550 586
3 550 588 594
3 555 550 594
3 551 552 557
3 551 557 553
3 553 557 558
3 553 558 554
3 554 558 559
3 589 559 596
3 554 559 589
3 594 602 555
3 602 560 555
3 563 557 556
3 561 563 556
3 557 563 558
3 558 563 565
3 597 565 604
3 597 559 565
3 559 558 565
3 559 597 596
3 602 611 560
3 611 566 560
3 563 561 562
3 565 563 562
3 564 565 562
3 564 567 569
3 565 564 569
3 565 569 605
3 565 605 604
3 605 569 613
3 611 619 566
3 619 570 566
3 569 567 568
3 568 572 574
3 569 568 574
3 569 574 614
3 569 614 613
3 614 574 622
3 577 620 627
3 571 620 577
3 620 571 570
3 619 620 570
3 574 572 573
3 622 574 573
3 622 573 623
3 623 573 575
3 623 575 625
3 575 576 625
3 625 576 628
3 576 578 628
3 628 578 577
3 627 628 577
3 579 582 584
3 580 579 584
3 585 580 584
3 581 580 585
3 587 581 585
3 581 587 586
3 583 589 590
3 582 583 590
3 582 590 584
3 584 590 591
3 584 591 585
3 585 591 592
3 585 592 587
3 587 592 593
3 588 586 587
3 588 587 595
3 595 587 593
3 588 595 594
3 598 590 589
3 596 598 589
3 590 598 591
3 591 598 599
3 591 599 592
3 592 599 600
3 592 600 593
3 593 600 601
3 593 601 595
3 595 601 603
3 595 603 602
3 594 595 602
3 597 604 606
3 596 597 606
3 596 606 598
3 598 606 607
3 598 607 599
3 599 607 608
3 599 608 600
3 600 608 609
3 600 609 601
3 601 609 610
3 601 610 603
3 603 610 612
3 603 612 611
3 602 603 611
3 606 604 605
3 605 613 615
3 605 615 606
3 606 615 607
3 607 615 608
3 608 615 616
3 608 616 609
3 609 616 617
3 609 617 610
3 610 617 618
3 610 618 612
3 612 618 621
3 612 621 619
3 611 612 619
3 615 613 614
3 614 622 624
3 614 624 615
3 615 624 616
3 616 624 617
3 617 624 626
3 617 626 618
3 618 626 629
3 627 620 621
3 627 621 629
3 629 621 618
3 621 620 619
3 626 624 623
3 625 626 623
3 629 626 625
3 628 629 625
3 629 628 627
