ply
format ascii 1.0
element vertex 512
property float x
property float y
property float z
property float nx
property float ny
property float nz
end_header
-0.237587 0.115852 0.742319 0.443532 -0.430580 -0.786054
-0.297366 -0.129784 -0.840813 0.223376 0.237899 0.945255
0.503424 -0.069601 0.759536 -0.845701 0.036811 -0.532386
-0.437041 0.057500 -0.811044 0.282911 -0.076017 0.956129
0.504842 0.076415 0.755988 -0.855686 -0.309160 -0.414995
0.174792 0.252182 -0.049125 -0.119669 -0.959397 0.255414
0.390583 -0.222446 -0.580821 0.091695 0.990358 -0.103839
-0.296513 0.144761 0.007430 0.737835 -0.432258 0.518414
-0.273849 0.121750 0.675826 0.846093 -0.435488 -0.307369
0.314030 -0.169719 -0.578511 0.884616 0.452310 -0.113449
0.129613 -0.051816 -0.881012 0.070117 0.069779 0.995095
-0.328098 -0.064545 -0.842250 0.162720 0.050942 0.985356
0.352477 -0.218639 0.514155 0.590043 0.807247 -0.014185
-0.426317 -0.116486 -0.798863 0.276421 0.470692 0.837878
-0.119094 0.205558 0.140673 0.385113 -0.382538 -0.839853
0.024510 -0.109002 0.618412 -0.067166 0.518900 0.852192
-0.017380 -0.223564 -0.070522 0.125792 0.711596 0.691236
-0.025981 0.156248 -0.843944 0.071076 -0.325444 0.942886
0.205842 0.240772 0.216219 -0.113705 -0.991880 0.056960
-0.420247 -0.005854 -0.822158 0.455046 -0.046514 0.889252
0.138668 0.229481 0.729629 0.081622 -0.718933 0.690271
0.296366 -0.199434 -0.069494 -0.573109 0.631713 -0.522000
0.435870 -0.103520 -0.730659 -0.725507 0.250098 0.641164
-0.249257 0.039355 -0.860642 0.162720 0.050942 0.985356
0.273765 0.141886 -0.864590 -0.456618 -0.320392 0.829969
0.342333 -0.232479 0.670901 0.281055 0.944965 0.167478
0.437542 -0.132626 -0.717413 -0.725507 0.250098 0.641164
-0.473120 -0.101290 -0.579167 -0.603628 0.339013 -0.721597
-0.084901 -0.062808 0.839081 0.391261 0.168389 -0.904743
0.491015 -0.204278 -0.400657 -0.462543 0.886293 -0.023215
0.129139 -0.211274 -0.775333 -0.041340 0.970898 0.235900
0.254625 0.043305 -0.391723 0.804278 -0.023300 0.593796
0.201230 0.028037 -0.883837 0.045345 -0.051004 0.997669
0.383689 0.226873 0.635710 0.052466 -0.998594 0.007523
-0.003154 -0.245823 0.106593 0.160182 0.827386 -0.538307
0.457640 0.201227 0.567246 -0.877761 -0.465527 0.113224
-0.258551 -0.020400 0.467714 -0.291311 -0.068143 0.954198
-0.631478 0.012708 -0.484001 -0.117207 -0.095395 -0.988515
0.523651 -0.004439 -0.245236 -0.842143 0.024740 -0.538686
-0.018057 0.245661 0.127770 0.221936 -0.838181 -0.498193
-0.205641 0.111112 0.762923 0.320716 -0.432775 -0.842524
-0.330340 0.183783 -0.787742 0.434434 -0.725258 0.534105
0.229872 0.158760 -0.861708 0.044306 -0.208187 0.977085
-0.177803 0.086453 0.526825 -0.638487 -0.244631 0.729719
0.094350 0.183065 0.669619 -0.056237 -0.854790 0.515918
0.155590 -0.035595 -0.883980 0.070117 0.069779 0.995095
0.277415 0.146462 0.089142 -0.817485 -0.564856 0.112498
-0.050215 0.138414 -0.649425 0.003645 -0.492543 -0.870281
0.234936 -0.124942 0.618272 0.228412 0.582430 0.780131
-0.214095 -0.184555 -0.662994 -0.029454 0.904975 -0.424445
0.183725 0.199790 -0.229415 0.426325 -0.779857 0.458334
0.406812 0.176940 -0.706818 -0.572102 -0.669411 0.473908
-0.304804 0.156272 0.036478 0.622472 -0.750863 0.220757
-0.228995 -0.066039 -0.854746 0.070117 0.069779 0.995095
-0.079565 -0.261898 0.059148 0.160182 0.827386 -0.538307
0.427326 -0.231299 -0.315355 -0.440028 0.849270 -0.291747
-0.009809 -0.090525 0.604456 -0.067166 0.518900 0.852192
0.045230 -0.170460 0.828611 0.020969 0.636801 -0.770743
-0.320833 0.091100 -0.843150 0.072442 -0.346488 0.935253
0.089413 0.231824 0.204226 0.268583 -0.822675 -0.501067
0.073606 -0.188352 -0.691055 -0.029454 0.904975 -0.424445
0.127086 0.224259 -0.780185 -0.039902 -0.994958 0.092016
-0.569563 0.198358 -0.678073 0.220657 -0.933855 0.281471
0.060973 0.117988 0.266456 0.574191 -0.376183 -0.727180
-0.103461 -0.099237 0.824275 0.391261 0.168389 -0.904743
0.024428 -0.179581 0.210125 0.368277 0.433764 -0.822326
0.514039 -0.056190 -0.232586 -0.842143 0.024740 -0.538686
-0.407600 0.184313 -0.743935 0.102141 -0.639780 0.761741
0.348017 -0.089673 0.201460 -0.810128 0.154723 0.565467
0.456219 0.028966 0.834454 -0.801442 -0.135734 -0.582466
-0.564253 0.010127 -0.501550 -0.519304 -0.089537 -0.849886
-0.077991 0.222948 -0.039561 0.368790 -0.852784 0.369802
-0.003690 0.055620 -0.625950 -0.003426 -0.041163 -0.999147
0.338949 -0.051098 0.177348 -0.816075 0.169287 0.552597
0.412285 -0.104693 0.286560 -0.689318 0.199583 0.696424
0.127062 -0.180998 0.288892 0.602392 0.364818 -0.709952
0.111002 -0.200706 0.704089 -0.107045 0.885786 0.451581
0.467754 0.192714 -0.276927 -0.643268 -0.658763 -0.390176
0.422067 0.211234 -0.238850 -0.404971 -0.821909 -0.400580
0.500734 0.131701 -0.641975 -0.823021 -0.130194 0.552888
-0.150161 0.057987 0.804212 0.251880 -0.383139 -0.888685
0.251843 0.038883 0.501322 0.974866 0.054610 -0.215995
-0.206449 -0.048768 0.786931 0.537275 -0.008879 -0.843360
0.164616 0.256224 -0.009068 -0.443175 -0.877290 -0.184279
-0.280042 0.150398 -0.011313 0.737835 -0.432258 0.518414
0.333822 0.114057 -0.842045 -0.688098 -0.085366 0.720579
0.321997 -0.210612 -0.351484 0.582616 0.774959 0.244943
0.368047 0.179291 0.826523 -0.229651 -0.436927 -0.869687
0.526573 -0.088392 0.579181 -0.916258 0.394235 0.071066
0.396282 -0.228955 0.685529 -0.223038 0.963525 0.147900
-0.092657 -0.164083 0.800811 0.413105 0.732579 -0.540992
0.286567 0.108951 -0.533717 0.995122 -0.076739 -0.061996
0.418929 0.003286 0.862838 -0.174129 -0.044571 -0.983714
0.163234 -0.148392 0.658991 -0.221917 0.268046 0.937499
-0.049770 0.157572 0.189877 0.246856 -0.312130 -0.917408
-0.039525 -0.017333 0.863122 0.288707 -0.128506 -0.948754
-0.667522 0.064610 -0.493906 0.091648 -0.259856 -0.961289
-0.211503 0.135533 0.746256 0.443532 -0.430580 -0.786054
0.513553 -0.079019 0.426590 -0.870604 0.416353 0.262106
0.197589 -0.234579 0.026759 -0.493395 0.866986 -0.069985
0.525464 0.030582 0.523395 -0.908569 -0.416815 0.027697
0.315743 -0.192195 0.491068 0.590043 0.807247 -0.014185
0.001927 0.220497 -0.093445 0.204529 -0.756413 0.621294
-0.206408 -0.173669 -0.053292 0.233790 0.563469 0.792367
0.269673 -0.014599 0.875720 0.027825 -0.025505 -0.999287
0.409260 -0.227079 -0.628703 0.051005 0.997347 -0.051938
0.404123 -0.214909 -0.232649 -0.440028 0.849270 -0.291747
0.480111 -0.196311 -0.586471 -0.564966 0.776216 0.279826
0.608948 -0.040112 -0.454172 -0.963540 0.076173 0.256493
0.383221 0.240071 -0.384754 0.095896 -0.978443 -0.182902
0.112641 0.193581 -0.175737 0.424663 -0.737341 0.525347
0.088907 0.205117 -0.826840 -0.040053 -0.794817 0.605526
-0.226616 -0.118829 -0.647145 -0.029856 0.181465 -0.982944
0.390195 0.237996 -0.414195 0.195926 -0.971808 0.131156
0.490841 0.136245 0.596612 -0.970645 -0.227207 0.078896
0.268296 -0.061670 -0.477680 0.875403 0.475197 -0.088645
-0.202510 0.071537 0.500626 -0.374966 -0.222439 0.899956
-0.188938 -0.116454 -0.647851 -0.029856 0.181465 -0.982944
0.160318 -0.097031 0.379256 0.662939 0.441332 -0.604763
-0.037205 -0.114506 0.615466 -0.478358 0.515012 0.711292
0.365373 0.025700 0.871303 -0.174129 -0.044571 -0.983714
0.138230 0.145235 0.843822 0.057900 -0.415880 -0.907574
-0.653432 0.071114 -0.674612 0.781821 -0.209996 0.587075
0.145245 -0.262149 0.057331 -0.488901 0.865767 0.106881
-0.037496 -0.022118 -0.622631 -0.003426 -0.041163 -0.999147
0.095787 0.082432 -0.627395 -0.003426 -0.041163 -0.999147
0.027576 0.212378 0.710907 -0.056237 -0.854790 0.515918
0.188460 0.239024 0.254257 -0.058410 -0.992188 -0.110234
-0.005589 0.041112 -0.873768 0.045345 -0.051004 0.997669
-0.085872 -0.084751 0.834578 0.391261 0.168389 -0.904743
0.330015 0.194109 -0.776575 -0.580698 -0.661597 0.474425
-0.203138 -0.123591 -0.849603 0.039743 0.279932 0.959197
0.359184 -0.004999 0.193715 -0.821466 -0.161983 0.546768
0.007977 -0.218092 -0.080770 0.125792 0.711596 0.691236
0.439061 -0.065532 -0.741865 -0.725507 0.250098 0.641164
0.436692 -0.162445 -0.196156 -0.718676 0.437497 -0.540463
0.177368 -0.108928 -0.643217 0.039127 0.363001 -0.930967
-0.046583 -0.249523 0.087983 0.160182 0.827386 -0.538307
-0.354127 0.184101 -0.678907 -0.215842 -0.910933 -0.351587
0.424227 -0.202257 0.758014 -0.295855 0.840119 -0.454610
0.226522 -0.165658 0.651133 0.228412 0.582430 0.780131
-0.283931 -0.163067 -0.002417 0.696657 0.514637 0.499819
-0.642703 -0.213971 -0.595482 0.471055 0.651164 0.595057
0.226657 0.057835 -0.354570 0.644119 -0.044591 0.763624
0.252229 -0.187771 0.009347 -0.805820 0.523248 -0.277247
-0.043656 0.177625 0.184700 0.246856 -0.312130 -0.917408
0.211199 -0.245508 -0.142093 0.010363 0.998612 0.051641
-0.051479 -0.142896 0.626422 -0.478358 0.515012 0.711292
0.052467 -0.266402 0.110151 0.307936 0.855573 -0.416137
-0.009574 0.148785 0.833070 -0.077072 -0.318390 -0.944822
0.026142 0.090617 -0.632676 0.041902 -0.266296 -0.962980
0.503756 -0.107596 0.756257 -0.899823 0.054438 -0.432846
0.091775 0.020562 -0.879244 0.045345 -0.051004 0.997669
0.261021 0.170460 0.120649 -0.758597 -0.651526 -0.006661
0.433620 0.229634 -0.300673 -0.093808 -0.995249 0.026068
0.319888 -0.203044 0.259754 -0.638440 0.639159 0.428801
0.259386 0.232284 -0.252749 0.608301 -0.661495 0.438628
0.180688 -0.185543 -0.238576 0.277154 0.824563 0.493236
0.289035 0.055681 -0.886353 0.044306 -0.208187 0.977085
0.172485 0.208370 -0.699529 0.058070 -0.772183 -0.632741
-0.180988 -0.068568 0.511843 -0.451717 0.179036 0.874013
-0.346251 0.152409 -0.810363 0.253101 -0.424783 0.869195
-0.525945 -0.175693 -0.567135 -0.627643 0.298868 -0.718848
-0.442530 -0.197294 -0.704012 -0.237922 0.960491 -0.144393
-0.299596 0.184602 -0.685082 0.019019 -0.854331 -0.519381
-0.342697 0.055424 0.007818 0.960724 -0.276572 -0.022756
-0.146533 0.109883 -0.850860 0.071076 -0.325444 0.942886
0.153117 -0.070517 0.390711 0.662939 0.441332 -0.604763
0.152040 0.226037 -0.750134 -0.039902 -0.994958 0.092016
-0.540936 -0.021420 -0.512475 -0.519304 -0.089537 -0.849886
0.300526 0.208731 0.424696 0.398494 -0.836211 -0.376769
0.111350 0.116697 0.855184 0.057900 -0.415880 -0.907574
0.314212 0.174640 0.208462 -0.630349 -0.582812 0.512825
0.363010 0.225733 0.628550 0.052466 -0.998594 0.007523
0.045434 0.060603 0.281837 0.728307 -0.010158 -0.685176
-0.021834 -0.220241 -0.764882 -0.041340 0.970898 0.235900
0.121722 -0.253327 -0.072914 -0.112708 0.986962 0.114901
0.333930 -0.116863 -0.812372 -0.511479 0.535993 0.671640
0.215298 -0.011490 -0.886497 0.045345 -0.051004 0.997669
0.015717 0.184784 -0.837238 0.071076 -0.325444 0.942886
0.198251 -0.201489 -0.222693 0.344687 0.788263 0.509737
0.394621 -0.162822 0.312289 -0.700044 0.590562 0.401467
0.324127 0.182906 -0.467088 0.895295 -0.445226 -0.014861
0.224331 0.210437 0.340027 0.402150 -0.834115 -0.377529
0.117415 0.179597 -0.202095 0.426325 -0.779857 0.458334
0.415790 -0.230696 0.477272 -0.084806 0.989487 0.117143
0.281427 0.039119 -0.529786 0.995122 -0.076739 -0.061996
0.311396 0.082731 0.147908 -0.821466 -0.161983 0.546768
-0.461846 0.049882 -0.568313 -0.519304 -0.089537 -0.849886
0.162549 0.259871 -0.025982 -0.119669 -0.959397 0.255414
-0.477372 0.024007 -0.801773 0.282911 -0.076017 0.956129
0.274410 0.055331 0.567373 0.944269 -0.014051 -0.328874
0.311787 0.156580 -0.421831 0.895295 -0.445226 -0.014861
-0.216315 0.105073 -0.847260 0.071076 -0.325444 0.942886
0.211986 0.033489 0.613095 0.383852 -0.107949 0.917063
-0.253129 0.005824 -0.858085 0.070117 0.069779 0.995095
0.471565 -0.170474 0.627221 -0.800711 0.598197 -0.031968
0.150802 0.169885 0.314527 0.637370 -0.443885 -0.629861
0.296635 0.000997 0.088168 -0.954533 -0.136979 -0.264771
0.547878 0.076313 -0.581843 -0.871965 -0.139383 0.469307
0.378417 -0.134765 0.257350 -0.810128 0.154723 0.565467
-0.009422 0.201424 0.688725 -0.056237 -0.854790 0.515918
0.350131 0.237403 -0.304500 -0.093808 -0.995249 0.026068
0.300122 -0.169494 0.188603 -0.640981 0.593973 0.486147
0.274339 -0.191147 0.168012 -0.836943 0.441646 0.323226
0.070981 -0.165732 -0.664843 -0.029856 0.181465 -0.982944
-0.265736 -0.045324 0.746868 0.657065 0.442239 -0.610484
0.206605 -0.132304 0.640864 0.608157 0.201205 0.767895
0.484424 -0.156334 0.569713 -0.800711 0.598197 -0.031968
0.218891 0.219503 0.035225 -0.443175 -0.877290 -0.184279
0.079614 -0.061588 0.316653 0.662939 0.441332 -0.604763
0.490142 0.128435 0.565515 -0.970645 -0.227207 0.078896
0.164239 -0.127598 0.361248 0.662939 0.441332 -0.604763
-0.148140 0.097931 0.178028 0.298049 -0.409288 -0.862352
0.474555 0.188896 0.658342 -0.599832 -0.797816 -0.060746
0.305486 0.144609 -0.442756 0.895295 -0.445226 -0.014861
0.047514 0.226376 -0.791794 -0.039902 -0.994958 0.092016
0.250933 -0.215004 0.140002 -0.836943 0.441646 0.323226
0.534446 -0.050456 0.470249 -0.916258 0.394235 0.071066
0.194259 0.034587 0.872365 0.027825 -0.025505 -0.999287
0.329346 -0.214731 -0.718750 0.069173 0.989093 0.130040
-0.269851 -0.089210 0.496858 0.725810 0.486537 0.486293
0.228839 -0.033634 -0.361752 0.644119 -0.044591 0.763624
0.314977 0.220845 0.653460 0.466864 -0.812337 0.349495
0.169248 -0.064190 -0.301187 0.610405 0.330021 0.720064
0.235764 0.224939 -0.698648 -0.091645 -0.994934 0.041315
-0.567982 0.201223 -0.669807 0.220657 -0.933855 0.281471
-0.705636 0.027882 -0.532388 0.880768 -0.191708 -0.433008
0.515715 0.060113 0.648028 -0.908569 -0.416815 0.027697
-0.420673 0.123270 -0.796436 0.434434 -0.725258 0.534105
-0.548836 0.082749 -0.771520 0.327467 -0.140081 0.934421
0.261832 -0.125460 0.468328 0.647738 0.459641 -0.607591
0.579380 -0.136798 -0.479717 -0.723083 0.671128 0.163517
-0.256161 -0.012575 0.754881 0.537275 -0.008879 -0.843360
0.439231 0.184787 -0.216518 -0.643268 -0.658763 -0.390176
0.108568 -0.186468 -0.686693 0.069405 0.710291 -0.700478
0.567270 0.078846 -0.545062 -0.871965 -0.139383 0.469307
-0.618297 0.054455 -0.722688 0.775985 -0.120052 0.619222
0.063348 -0.272824 0.089293 -0.040625 0.987383 -0.153047
0.192025 -0.186643 0.682136 0.084044 0.726804 0.681684
0.275657 -0.019309 -0.516229 0.988712 -0.144992 0.037752
-0.335843 -0.022540 -0.019004 0.989968 0.141272 -0.002556
0.289585 -0.093577 0.069274 -0.997834 0.040367 0.051946
-0.042431 0.109304 -0.640828 0.041902 -0.266296 -0.962980
-0.071385 -0.185824 -0.090331 0.328299 0.575780 0.748797
-0.224441 -0.052494 -0.093370 0.213687 0.144670 0.966131
-0.108266 -0.252247 0.028911 0.133497 0.969100 0.207420
0.209803 0.152396 0.649030 0.527360 -0.242152 0.814404
0.447718 -0.198353 0.702819 -0.800711 0.598197 -0.031968
0.099071 0.193243 0.686996 -0.056237 -0.854790 0.515918
0.235924 0.038819 0.484470 0.718923 0.027032 -0.694564
0.207131 -0.066516 -0.617126 0.535004 0.197486 -0.821444
-0.016570 0.174586 0.193614 0.266835 -0.307830 -0.913258
-0.118651 -0.201325 0.148240 0.089062 0.868926 -0.486864
-0.244544 -0.059702 0.160859 0.320137 -0.004452 -0.947361
0.049722 -0.181698 -0.825575 -0.017431 0.814945 0.579276
0.240568 -0.094131 -0.601987 0.535004 0.197486 -0.821444
-0.330111 -0.058375 0.087246 0.992807 0.052620 -0.107545
0.309925 -0.228076 0.695371 0.120035 0.922319 0.367313
0.162692 0.002058 -0.883413 0.045345 -0.051004 0.997669
0.602504 -0.013252 -0.416222 -0.918384 -0.255795 -0.301894
-0.227269 -0.208850 0.007186 0.315371 0.888462 0.333432
0.050133 -0.198678 0.214532 0.602392 0.364818 -0.709952
-0.620869 -0.035126 -0.720959 0.746956 0.293571 0.596551
0.043883 -0.117829 0.251411 0.368277 0.433764 -0.822326
-0.076931 0.143808 0.187251 0.246856 -0.312130 -0.917408
-0.055200 0.023653 0.571609 -0.515793 0.032969 0.856078
0.138157 0.181988 -0.217319 0.426325 -0.779857 0.458334
-0.211465 0.182310 0.585560 -0.208650 -0.860912 0.464000
-0.135999 -0.202013 0.642379 -0.179513 0.795547 0.578689
0.207916 -0.112256 0.420322 0.662939 0.441332 -0.604763
0.564520 0.018677 -0.324444 -0.928526 -0.245763 -0.278281
-0.102712 -0.198223 0.749082 0.323828 0.739677 -0.589927
0.311242 -0.071360 0.142638 -0.816075 0.169287 0.552597
-0.344911 -0.072424 -0.634985 -0.029856 0.181465 -0.982944
0.302659 -0.070504 0.033253 -0.759796 0.184139 -0.623540
0.318480 0.032846 0.025861 -0.774581 -0.137469 -0.617355
0.152113 0.013449 0.395931 0.728307 -0.010158 -0.685176
-0.688104 -0.029869 -0.486209 0.843291 0.194661 -0.500967
0.506654 0.191179 -0.403870 -0.617012 -0.780906 -0.097373
-0.483702 0.032995 -0.799186 0.282911 -0.076017 0.956129
0.462743 0.197711 0.659201 -0.599832 -0.797816 -0.060746
0.304896 0.033048 -0.879264 -0.688098 -0.085366 0.720579
0.193617 0.056276 0.437916 0.637370 -0.443885 -0.629861
-0.477370 -0.147965 -0.764337 0.276421 0.470692 0.837878
-0.574062 -0.189175 -0.678481 0.463898 0.673512 0.575482
0.306814 0.107837 0.023467 -0.758456 -0.375942 -0.532365
0.175797 0.246191 -0.131112 0.017140 -0.994644 0.101924
-0.100605 -0.208778 0.666140 -0.131137 0.981559 0.139088
-0.213511 0.220729 0.036768 0.167155 -0.852770 0.494816
0.491994 0.086117 -0.664624 -0.762350 -0.130789 0.633811
0.498971 -0.080767 -0.215160 -0.843934 0.266788 -0.465402
0.327125 -0.180588 0.557046 0.841274 0.482286 -0.244248
0.276829 -0.152680 0.121898 -0.836943 0.441646 0.323226
0.041606 0.112064 0.632334 -0.052176 -0.352051 0.934525
0.373069 0.238409 -0.385556 0.195926 -0.971808 0.131156
-0.178429 0.239441 0.057633 0.275894 -0.869059 -0.410632
0.107704 0.101843 -0.235580 0.672277 -0.160118 0.722776
-0.187180 0.157556 0.550752 -0.213738 -0.859249 0.464765
-0.441269 0.076331 -0.808296 0.282911 -0.076017 0.956129
-0.323864 -0.086058 0.087531 0.950271 0.311387 -0.004786
-0.006822 -0.079516 0.860744 0.050995 0.177114 -0.982868
-0.260312 -0.054318 0.746191 0.657065 0.442239 -0.610484
0.192894 0.060071 0.870862 0.071780 -0.140152 -0.987525
-0.306422 0.069339 0.497182 0.774064 -0.140042 0.617424
0.501299 0.035699 -0.663797 -0.823319 -0.130485 0.552376
0.437240 -0.059880 -0.746130 -0.725507 0.250098 0.641164
0.152219 -0.261908 0.087282 -0.488901 0.865767 0.106881
0.336323 0.200836 -0.759472 -0.580698 -0.661597 0.474425
0.121265 0.125804 -0.242806 0.615200 -0.288073 0.733855
0.420296 0.210920 -0.642627 -0.580698 -0.661597 0.474425
0.237665 -0.161878 -0.847803 -0.017431 0.814945 0.579276
-0.582972 0.151282 -0.716822 0.620334 -0.486542 0.615193
0.397829 -0.230188 0.459980 -0.084806 0.989487 0.117143
-0.458401 -0.092924 -0.587548 -0.603628 0.339013 -0.721597
0.279609 -0.180499 0.167108 -0.836943 0.441646 0.323226
0.211428 -0.153407 0.646406 0.228412 0.582430 0.780131
-0.055737 -0.057201 0.852737 0.391261 0.168389 -0.904743
-0.119584 0.190748 -0.824981 0.071076 -0.325444 0.942886
0.164874 0.169677 -0.262142 0.615200 -0.288073 0.733855
-0.125854 0.155524 0.160363 0.385113 -0.382538 -0.839853
0.363643 -0.117757 -0.062845 -0.718676 0.437497 -0.540463
-0.120552 -0.209159 0.656994 -0.179513 0.795547 0.578689
-0.530012 0.145686 -0.741655 0.253993 -0.553014 0.793513
-0.280823 0.112442 -0.652069 0.041902 -0.266296 -0.962980
0.160760 -0.047106 -0.883537 0.070117 0.069779 0.995095
0.295787 -0.224292 0.331021 -0.093261 0.988355 0.120233
-0.273077 0.116501 -0.837439 0.072442 -0.346488 0.935253
0.309258 -0.164552 -0.595116 0.884616 0.452310 -0.113449
-0.430898 -0.029543 -0.587277 -0.574048 -0.009846 -0.818762
-0.190494 -0.060141 -0.637407 -0.029856 0.181465 -0.982944
0.301984 -0.025799 0.053468 -0.946404 0.195179 -0.257341
0.380923 -0.227036 0.740004 -0.283670 0.851723 -0.440566
0.184555 -0.152509 0.839214 -0.022538 0.508590 -0.860714
0.468675 -0.038234 0.323328 -0.689318 0.199583 0.696424
0.298358 0.130841 -0.459719 0.895295 -0.445226 -0.014861
0.040229 0.219608 0.785975 0.180523 -0.963986 -0.195302
-0.107742 0.034963 0.833602 0.542044 -0.367534 -0.755716
-0.277066 0.140486 -0.022279 0.695697 -0.394857 0.600078
0.490431 0.141248 0.737403 -0.855686 -0.309160 -0.414995
0.329124 0.191209 -0.100357 -0.544903 -0.661010 -0.515893
-0.300282 -0.034875 0.487915 0.725810 0.486537 0.486293
0.110190 0.081744 -0.872691 0.044306 -0.208187 0.977085
-0.034144 0.163613 0.192177 0.266835 -0.307830 -0.913258
0.462018 0.036551 0.824706 -0.801442 -0.135734 -0.582466
0.578420 0.090860 -0.440996 -0.957441 -0.272061 -0.096385
0.482461 -0.157636 0.594521 -0.800711 0.598197 -0.031968
0.418274 -0.220205 0.453370 -0.675438 0.688227 0.264815
-0.132361 -0.081248 -0.860489 0.070117 0.069779 0.995095
0.226045 0.212655 0.701772 0.081622 -0.718933 0.690271
0.186625 0.135718 0.374856 0.637370 -0.443885 -0.629861
0.482406 -0.139642 0.767200 -0.694912 0.647121 -0.313579
0.168463 0.117253 -0.867767 0.044306 -0.208187 0.977085
0.325220 0.217926 -0.671094 0.021843 -0.999732 0.007624
0.488058 0.191510 -0.579187 -0.607736 -0.708968 0.357802
0.162856 -0.189279 -0.684164 0.069405 0.710291 -0.700478
-0.012940 -0.085018 0.600856 -0.067166 0.518900 0.852192
0.282816 0.218067 -0.759770 -0.091645 -0.994934 0.041315
-0.005388 -0.123352 0.624793 -0.067166 0.518900 0.852192
-0.227276 0.146791 0.126655 0.332482 -0.431999 -0.838351
0.540505 -0.016554 0.559515 -0.985016 -0.168454 -0.036966
0.556328 0.158992 -0.527495 -0.893418 -0.213147 0.395440
0.510692 0.124938 -0.628743 -0.823021 -0.130194 0.552888
0.527739 0.021405 0.459927 -0.908569 -0.416815 0.027697
0.494052 0.095329 0.467347 -0.908569 -0.416815 0.027697
0.130482 -0.178684 0.669193 -0.067166 0.518900 0.852192
-0.336897 0.018137 0.062036 0.992807 0.052620 -0.107545
0.345672 -0.222401 0.354178 -0.093261 0.988355 0.120233
-0.526410 -0.133803 -0.549312 -0.627643 0.298868 -0.718848
0.134110 0.195822 0.283941 0.574191 -0.376183 -0.727180
0.091226 0.089745 -0.870126 0.044306 -0.208187 0.977085
0.328357 -0.221993 -0.662989 0.069173 0.989093 0.130040
0.572186 -0.047914 -0.329091 -0.843934 0.266788 -0.465402
0.401023 0.213617 0.390390 -0.746422 -0.523177 0.411266
0.367045 -0.197781 0.322121 -0.638440 0.639159 0.428801
0.322031 -0.197155 0.470349 0.590043 0.807247 -0.014185
0.428854 0.194809 0.420145 -0.781672 -0.564604 0.264975
0.418145 -0.229943 -0.338387 0.021415 0.970583 0.239813
-0.069771 0.019632 -0.871949 0.045345 -0.051004 0.997669
0.341769 0.226222 -0.183655 -0.424736 -0.854711 -0.298442
0.103612 0.052466 0.865452 0.071780 -0.140152 -0.987525
0.504185 -0.057389 -0.671351 -0.725507 0.250098 0.641164
-0.084114 -0.223966 -0.760467 -0.041340 0.970898 0.235900
0.151139 0.084599 0.374971 0.637370 -0.443885 -0.629861
0.600186 -0.051100 -0.483823 -0.963540 0.076173 0.256493
-0.324791 0.021978 0.536091 0.992006 -0.110800 0.060392
0.482879 -0.083122 -0.193361 -0.718676 0.437497 -0.540463
0.093096 -0.002618 0.333436 0.728307 -0.010158 -0.685176
0.495550 0.118720 0.743631 -0.855686 -0.309160 -0.414995
0.405284 -0.229205 0.518583 0.111670 0.993340 -0.028394
-0.019055 -0.213002 0.770120 0.086251 0.960020 -0.266311
0.190390 0.144468 0.847501 0.057900 -0.415880 -0.907574
0.216314 0.153475 -0.862219 0.044306 -0.208187 0.977085
-0.146470 0.124490 0.776587 0.251880 -0.383139 -0.888685
-0.302175 0.001159 0.695593 0.840800 -0.090055 -0.533803
0.359456 0.156215 0.251343 -0.739153 -0.439533 0.510356
-0.636127 -0.215546 -0.593021 0.145650 0.975880 0.162617
-0.093223 -0.077985 -0.642524 0.039127 0.363001 -0.930967
-0.002105 -0.254913 -0.039088 0.162782 0.970798 0.176218
-0.032935 0.242032 -0.042534 0.386744 -0.855454 0.344424
0.598043 0.004575 -0.417757 -0.918384 -0.255795 -0.301894
0.387089 0.168946 -0.741921 -0.572102 -0.669411 0.473908
-0.535233 0.098094 -0.528550 -0.519304 -0.089537 -0.849886
-0.374848 0.029441 -0.843543 0.455046 -0.046514 0.889252
0.042913 0.278857 -0.014280 -0.142345 -0.948484 0.283049
-0.026352 -0.129681 -0.132930 0.412546 0.314650 0.854869
-0.045932 -0.110911 -0.651171 -0.029856 0.181465 -0.982944
0.277282 0.105089 0.573495 0.944269 -0.014051 -0.328874
-0.161257 0.125829 -0.844246 0.071076 -0.325444 0.942886
0.367743 -0.230818 0.443286 -0.090144 0.989342 0.114356
-0.158024 -0.107311 -0.099851 0.213687 0.144670 0.966131
-0.174932 0.044859 0.183891 0.320137 -0.004452 -0.947361
-0.007126 0.162339 0.648553 -0.052176 -0.352051 0.934525
0.252743 0.139873 -0.621036 0.473705 -0.523208 -0.708419
-0.314437 0.178572 -0.675707 0.019019 -0.854331 -0.519381
-0.133933 -0.111118 -0.856111 0.039743 0.279932 0.959197
0.481949 0.015282 0.358331 -0.711044 -0.354949 0.606983
-0.106475 -0.170456 0.781833 0.323828 0.739677 -0.589927
-0.038650 -0.087119 0.594665 -0.478358 0.515012 0.711292
0.047850 0.218616 -0.811837 -0.040053 -0.794817 0.605526
-0.088752 0.185152 -0.678266 0.019019 -0.854331 -0.519381
0.506187 0.068603 0.463234 -0.908569 -0.416815 0.027697
0.155980 0.209715 -0.188126 0.424663 -0.737341 0.525347
0.297294 -0.038144 0.061356 -0.946404 0.195179 -0.257341
0.153305 -0.195436 -0.206650 0.277154 0.824563 0.493236
-0.077678 -0.123557 -0.854811 0.039743 0.279932 0.959197
-0.316949 -0.060283 -0.633593 -0.029856 0.181465 -0.982944
0.295562 -0.186045 -0.052408 -0.573109 0.631713 -0.522000
-0.629658 -0.027625 -0.480325 -0.117207 -0.095395 -0.988515
-0.097490 0.193218 -0.825794 0.071076 -0.325444 0.942886
-0.173172 0.045826 0.517258 -0.638487 -0.244631 0.729719
0.067312 0.079605 0.293665 0.637370 -0.443885 -0.629861
-0.185851 -0.124912 -0.649506 -0.029856 0.181465 -0.982944
0.423837 -0.030368 -0.762472 -0.735447 -0.076362 0.673266
0.129729 -0.215354 0.251132 0.272089 0.812862 -0.514998
-0.633558 -0.002805 -0.482258 -0.117207 -0.095395 -0.988515
0.395270 -0.189970 -0.706571 -0.493949 0.596752 0.632378
-0.341700 0.021746 0.019470 0.992807 0.052620 -0.107545
0.329480 0.031425 0.012376 -0.774581 -0.137469 -0.617355
-0.297584 -0.071990 0.120721 0.633878 0.064507 -0.770738
0.157295 0.102868 -0.281480 0.672277 -0.160118 0.722776
0.061880 -0.205585 -0.710703 0.069405 0.710291 -0.700478
0.294519 0.014247 0.099539 -0.999850 -0.008472 -0.015086
-0.022875 0.206227 0.704786 0.221504 -0.953376 0.204963
0.268608 -0.000073 -0.412364 0.804278 -0.023300 0.593796
0.253154 -0.200527 -0.265671 0.527731 0.724302 0.443719
0.005575 -0.274776 0.064689 0.160182 0.827386 -0.538307
0.313583 0.182055 0.612833 0.608607 -0.551971 0.570023
0.085586 -0.031662 0.607235 -0.221917 0.268046 0.937499
0.113624 0.194667 -0.838922 -0.040053 -0.794817 0.605526
-0.009846 -0.033699 0.597169 -0.102453 -0.074345 0.991956
0.131632 0.152324 -0.241086 0.615200 -0.288073 0.733855
-0.199434 -0.223783 -0.747651 -0.029454 0.904975 -0.424445
0.131326 0.264676 0.083199 -0.288842 -0.952856 -0.092927
-0.107689 0.042782 0.550663 -0.392186 -0.471025 0.790143
-0.244363 -0.128586 0.139042 0.342980 0.416548 -0.841934
0.047370 0.176249 0.225575 0.574191 -0.376183 -0.727180
0.217306 -0.109012 0.864059 -0.022538 0.508590 -0.860714
-0.234100 -0.087541 0.488241 0.006936 0.618591 0.785682
0.331337 -0.210063 0.608636 0.690150 0.455190 0.562578
0.252908 -0.202911 -0.021200 -0.805820 0.523248 -0.277247
-0.203607 0.018051 0.787894 0.513034 -0.013068 -0.858269
-0.186134 0.161719 0.744353 0.320716 -0.432775 -0.842524
-0.083867 -0.143416 -0.846516 0.048654 0.446725 0.893348
-0.051982 -0.207007 0.151725 0.160182 0.827386 -0.538307
-0.024939 0.221462 -0.078314 0.307629 -0.766914 0.563212
0.268989 -0.161155 -0.355567 0.757140 0.302670 0.578904
-0.395166 0.156481 -0.772087 0.434434 -0.725258 0.534105
0.121954 -0.150967 -0.220137 0.612578 0.341381 0.712887
0.358903 0.020865 -0.827593 -0.735447 -0.076362 0.673266
0.288557 -0.136583 0.601663 0.690150 0.455190 0.562578
0.543837 0.163945 -0.421070 -0.617012 -0.780906 -0.097373
-0.119923 0.056411 -0.114111 0.467050 -0.335852 0.817966
-0.150771 -0.053206 0.524313 -0.451717 0.179036 0.874013
-0.366993 0.201597 -0.716339 -0.215842 -0.910933 -0.351587
0.579494 -0.029715 -0.543165 -0.922988 0.066615 0.379020
-0.443546 -0.109850 -0.796907 0.276421 0.470692 0.837878
-0.117199 0.180667 -0.673620 0.003645 -0.492543 -0.870281
0.196123 0.052362 0.442133 0.728307 -0.010158 -0.685176
0.371276 -0.223318 0.590795 0.111670 0.993340 -0.028394
0.206054 0.169255 0.657005 0.285935 -0.617020 0.733163
-0.183701 0.199905 0.717138 0.107691 -0.962096 -0.250547
0.456196 -0.221576 -0.367297 -0.462543 0.886293 -0.023215
-0.392009 -0.197885 -0.735672 0.143375 0.987990 -0.057615
0.233283 0.202847 0.111772 -0.758597 -0.651526 -0.006661
0.313673 0.238547 -0.281537 0.042430 -0.997822 0.050513
0.289016 -0.107839 0.069431 -0.997834 0.040367 0.051946
-0.018206 -0.108424 0.853323 0.319948 0.232292 -0.918517
0.075455 0.178504 -0.843909 0.071076 -0.325444 0.942886
0.447647 -0.223972 -0.334051 -0.552500 0.815494 -0.172375
-0.090974 -0.240523 -0.036993 0.133497 0.969100 0.207420
-0.264164 0.159124 0.582028 0.687574 -0.721325 0.083265
0.444534 -0.058217 -0.738525 -0.725507 0.250098 0.641164
0.178038 -0.213784 0.793234 0.033759 0.942729 -0.331847
0.231852 0.147899 -0.640461 0.259382 -0.411882 -0.873541
0.441597 0.165092 -0.681562 -0.572102 -0.669411 0.473908
0.413406 0.236904 -0.456964 0.195926 -0.971808 0.131156
-0.100574 -0.185775 0.765864 0.323828 0.739677 -0.589927
0.444204 0.216937 0.527678 -0.877761 -0.465527 0.113224
-0.104788 -0.227291 -0.750404 -0.041340 0.970898 0.235900
-0.281484 -0.118596 -0.043371 0.567410 0.420922 0.707722
0.563784 -0.134902 -0.406164 -0.897370 0.342862 -0.277800
0.250563 -0.224338 -0.223721 0.527731 0.724302 0.443719
-0.587955 0.011792 -0.489073 -0.117207 -0.095395 -0.988515
0.413310 -0.164791 -0.166962 -0.718676 0.437497 -0.540463
0.196767 -0.120296 0.857929 -0.022538 0.508590 -0.860714
-0.180372 0.202077 -0.709462 0.019019 -0.854331 -0.519381
-0.302185 0.117264 0.533363 0.687574 -0.721325 0.083265
0.077213 0.219452 0.796932 -0.012408 -0.963449 -0.267605
-0.674060 -0.040282 -0.647474 0.801098 0.149545 0.579550
0.419142 -0.079257 -0.111269 -0.759796 0.184139 -0.623540
-0.390788 0.053659 -0.605786 -0.435354 -0.252815 -0.864032
