ply
format ascii 1.0
element vertex 880
property float x
property float y
property float z
element face 1729
property list uchar int vertex_indices
end_header
-0.601715 -0.075000 0.375000
-0.611549 -0.075000 0.450000
-0.600336 0.000000 0.375000
-0.620105 0.000000 0.450000
-0.531409 -0.225000 0.375000
-0.531759 -0.225000 0.450000
-0.530277 -0.225000 0.525000
-0.530359 -0.150000 0.075000
-0.534297 -0.150000 0.150000
-0.541110 -0.150000 0.225000
-0.561003 -0.150000 0.300000
-0.600000 -0.080859 0.375000
-0.579644 -0.150000 0.375000
-0.600000 -0.111513 0.450000
-0.587497 -0.150000 0.450000
-0.563564 -0.150000 0.525000
-0.530830 -0.075000 -0.075000
-0.546307 -0.075000 0.000000
-0.552742 -0.075000 0.075000
-0.558801 -0.075000 0.150000
-0.568870 -0.075000 0.225000
-0.600000 -0.075000 0.367567
-0.584615 -0.075000 0.300000
-0.600000 -0.075000 0.483004
-0.583199 -0.075000 0.525000
-0.529228 0.000000 -0.075000
-0.548059 0.000000 0.000000
-0.549471 0.000000 0.075000
-0.553110 0.000000 0.150000
-0.562408 0.000000 0.225000
-0.600000 0.000000 0.373689
-0.581254 0.000000 0.300000
-0.600000 0.001307 0.375000
-0.600000 0.000000 0.501921
-0.600000 0.048780 0.450000
-0.589439 0.000000 0.525000
-0.527045 0.075000 0.075000
-0.530659 0.075000 0.150000
-0.538086 0.075000 0.225000
-0.555285 0.075000 0.300000
-0.578997 0.075000 0.375000
-0.589058 0.075000 0.450000
-0.562543 0.075000 0.525000
-0.525559 0.150000 0.375000
-0.539216 0.150000 0.450000
-0.535165 0.150000 0.525000
-0.525000 -0.230439 0.375000
-0.525000 -0.229995 0.450000
-0.525000 -0.229100 0.525000
-0.468216 -0.225000 -0.075000
-0.483462 -0.225000 0.000000
-0.525000 -0.159931 0.075000
-0.480591 -0.225000 0.075000
-0.525000 -0.166260 0.150000
-0.478031 -0.225000 0.150000
-0.525000 -0.178746 0.225000
-0.488565 -0.225000 0.225000
-0.525000 -0.225000 0.347918
-0.525000 -0.210290 0.300000
-0.507442 -0.225000 0.300000
-0.493691 -0.225000 0.450000
-0.525000 -0.225000 0.529756
-0.515565 -0.225000 0.525000
-0.481618 -0.150000 -0.150000
-0.525000 -0.099348 -0.075000
-0.511697 -0.150000 -0.075000
-0.525000 -0.150000 0.015576
-0.525000 -0.145366 0.000000
-0.523502 -0.150000 0.000000
-0.525000 -0.150000 0.573865
-0.473264 -0.075000 -0.225000
-0.525000 -0.075000 -0.093350
-0.505736 -0.075000 -0.150000
-0.525000 -0.075000 0.582537
-0.474968 0.000000 -0.225000
-0.525000 0.000000 -0.088894
-0.506154 0.000000 -0.150000
-0.525000 0.014902 -0.075000
-0.525000 0.066831 0.000000
-0.525000 0.000000 0.583081
-0.456952 0.075000 -0.225000
-0.491091 0.075000 -0.150000
-0.507166 0.075000 -0.075000
-0.525000 0.075000 0.044000
-0.521861 0.075000 0.000000
-0.525000 0.078393 0.075000
-0.525000 0.084230 0.150000
-0.525000 0.095082 0.225000
-0.525000 0.117517 0.300000
-0.525000 0.075000 0.562805
-0.466570 0.150000 -0.075000
-0.472378 0.150000 0.000000
-0.473164 0.150000 0.075000
-0.476397 0.150000 0.150000
-0.480519 0.150000 0.225000
-0.525000 0.150000 0.373510
-0.487260 0.150000 0.300000
-0.525000 0.150463 0.375000
-0.525000 0.158890 0.450000
-0.484643 0.150000 0.450000
-0.525000 0.150000 0.534320
-0.525000 0.158010 0.525000
-0.505910 0.150000 0.525000
-0.450000 -0.245785 -0.075000
-0.450000 -0.261211 0.000000
-0.450000 -0.254886 0.075000
-0.450000 -0.248967 0.150000
-0.450000 -0.252326 0.225000
-0.450000 -0.251658 0.300000
-0.450000 -0.242551 0.375000
-0.400465 -0.225000 -0.225000
-0.450000 -0.225000 -0.117341
-0.450000 -0.203979 -0.150000
-0.433213 -0.225000 -0.150000
-0.397351 -0.225000 0.300000
-0.450000 -0.225000 0.430547
-0.428261 -0.225000 0.375000
-0.450000 -0.212490 0.450000
-0.450000 -0.167753 0.525000
-0.402099 -0.150000 -0.300000
-0.450000 -0.150000 -0.218546
-0.450000 -0.141810 -0.225000
-0.446870 -0.150000 -0.225000
-0.379958 -0.150000 0.375000
-0.412096 -0.150000 0.450000
-0.450000 -0.150000 0.538059
-0.439640 -0.150000 0.525000
-0.450000 -0.075000 -0.266567
-0.426087 -0.075000 -0.300000
-0.385948 -0.075000 0.450000
-0.450000 -0.075000 0.557798
-0.414501 -0.075000 0.525000
-0.450000 0.000000 -0.271048
-0.427624 0.000000 -0.300000
-0.380471 0.000000 0.450000
-0.450000 0.000000 0.562799
-0.408634 0.000000 0.525000
-0.450000 0.075000 -0.234892
-0.386191 0.075000 -0.300000
-0.450000 0.088256 -0.225000
-0.450000 0.143817 -0.150000
-0.386267 0.075000 0.375000
-0.450000 0.136631 0.450000
-0.407972 0.075000 0.450000
-0.450000 0.075000 0.538300
-0.450000 0.098980 0.525000
-0.435393 0.075000 0.525000
-0.401350 0.150000 -0.225000
-0.450000 0.150000 -0.135971
-0.444860 0.150000 -0.150000
-0.450000 0.170959 -0.075000
-0.450000 0.174825 0.000000
-0.450000 0.173931 0.075000
-0.450000 0.174581 0.150000
-0.450000 0.175416 0.225000
-0.383034 0.150000 0.225000
-0.450000 0.171675 0.300000
-0.410182 0.150000 0.300000
-0.450000 0.150000 0.412583
-0.450000 0.157383 0.375000
-0.440209 0.150000 0.375000
-0.375000 -0.244296 -0.225000
-0.375000 -0.267386 -0.150000
-0.375000 -0.268292 -0.075000
-0.375000 -0.259910 0.000000
-0.375000 -0.251457 0.075000
-0.375000 -0.243577 0.150000
-0.375000 -0.235151 0.225000
-0.375000 -0.225000 -0.261271
-0.375000 -0.189998 -0.300000
-0.312641 -0.225000 -0.300000
-0.324884 -0.225000 0.000000
-0.340079 -0.225000 0.075000
-0.352689 -0.225000 0.150000
-0.375000 -0.225000 0.258171
-0.364753 -0.225000 0.225000
-0.375000 -0.198533 0.300000
-0.375000 -0.150000 -0.323299
-0.309287 -0.150000 0.150000
-0.329428 -0.150000 0.225000
-0.375000 -0.150000 0.362570
-0.351816 -0.150000 0.300000
-0.375000 -0.133199 0.375000
-0.375000 -0.075000 -0.341746
-0.311420 -0.075000 0.225000
-0.332760 -0.075000 0.300000
-0.375000 -0.075000 0.417533
-0.360288 -0.075000 0.375000
-0.375000 0.000000 -0.335089
-0.311796 0.000000 0.225000
-0.332091 0.000000 0.300000
-0.375000 0.000000 0.431901
-0.375000 0.048035 0.375000
-0.357166 0.000000 0.375000
-0.375000 0.075000 -0.307993
-0.375000 0.088530 -0.300000
-0.305352 0.075000 0.075000
-0.323687 0.075000 0.150000
-0.375000 0.144370 0.225000
-0.338003 0.075000 0.225000
-0.375000 0.075000 0.344617
-0.375000 0.107217 0.300000
-0.359539 0.075000 0.300000
-0.375000 0.150000 -0.249360
-0.375000 0.168043 -0.225000
-0.375000 0.203761 -0.150000
-0.375000 0.208451 -0.075000
-0.375000 0.192742 0.000000
-0.318231 0.150000 0.000000
-0.375000 0.172974 0.075000
-0.348532 0.150000 0.075000
-0.375000 0.150000 0.199776
-0.375000 0.156768 0.150000
-0.368157 0.150000 0.150000
-0.300000 -0.229509 -0.300000
-0.300000 -0.276078 -0.225000
-0.300000 -0.259064 -0.150000
-0.300000 -0.229774 -0.075000
-0.300000 -0.225000 -0.304442
-0.300000 -0.225000 -0.059440
-0.292157 -0.225000 -0.075000
-0.300000 -0.196876 0.000000
-0.300000 -0.167428 0.075000
-0.300000 -0.150000 -0.348560
-0.270239 -0.150000 0.000000
-0.300000 -0.150000 0.111995
-0.291259 -0.150000 0.075000
-0.300000 -0.102637 0.150000
-0.300000 -0.075000 -0.362322
-0.233090 -0.075000 -0.375000
-0.257309 -0.075000 0.000000
-0.277872 -0.075000 0.075000
-0.300000 -0.075000 0.173131
-0.294876 -0.075000 0.150000
-0.300000 0.000000 -0.357665
-0.255042 0.000000 0.000000
-0.300000 0.059423 0.075000
-0.279938 0.000000 0.075000
-0.300000 0.000000 0.177322
-0.300000 0.017473 0.150000
-0.293445 0.000000 0.150000
-0.300000 0.075000 -0.337225
-0.300000 0.141288 -0.300000
-0.300000 0.075000 0.063544
-0.300000 0.127258 0.000000
-0.267377 0.075000 0.000000
-0.300000 0.150000 -0.293278
-0.278919 0.150000 -0.300000
-0.300000 0.201282 -0.225000
-0.300000 0.193376 -0.150000
-0.300000 0.150000 -0.041290
-0.300000 0.163933 -0.075000
-0.283777 0.150000 -0.075000
-0.225000 -0.238292 -0.300000
-0.225000 -0.267706 -0.225000
-0.225000 -0.237172 -0.150000
-0.225000 -0.225000 -0.315370
-0.225000 -0.225000 -0.133515
-0.198671 -0.225000 -0.150000
-0.225000 -0.164383 -0.075000
-0.225000 -0.150000 -0.365771
-0.225000 -0.086779 -0.375000
-0.225000 -0.150000 -0.061987
-0.213542 -0.150000 -0.075000
-0.225000 -0.075000 -0.376538
-0.225000 -0.025562 -0.375000
-0.225000 -0.075000 -0.043213
-0.193528 -0.075000 -0.075000
-0.225000 0.000000 -0.374188
-0.220770 0.000000 -0.375000
-0.225000 0.000000 -0.043619
-0.194823 0.000000 -0.075000
-0.225000 0.075000 -0.356773
-0.225000 0.075000 -0.057516
-0.225000 0.092606 -0.075000
-0.207951 0.075000 -0.075000
-0.225000 0.150000 -0.313238
-0.225000 0.164024 -0.300000
-0.225000 0.200594 -0.225000
-0.225000 0.150000 -0.128638
-0.225000 0.168942 -0.150000
-0.168610 0.150000 -0.150000
-0.150000 -0.248136 -0.300000
-0.150000 -0.263484 -0.225000
-0.150000 -0.225000 -0.329040
-0.150000 -0.225000 -0.174613
-0.150000 -0.185799 -0.150000
-0.150000 -0.150000 -0.374577
-0.150000 -0.147901 -0.375000
-0.148032 -0.150000 -0.375000
-0.150000 -0.150000 -0.130089
-0.150000 -0.075000 -0.388515
-0.150000 -0.075000 -0.104653
-0.150000 0.000000 -0.388433
-0.150000 0.065507 -0.375000
-0.150000 0.000000 -0.105005
-0.150000 0.075000 -0.372802
-0.136310 0.075000 -0.375000
-0.150000 0.075000 -0.117636
-0.150000 0.139319 -0.150000
-0.150000 0.150000 -0.323907
-0.150000 0.173749 -0.300000
-0.150000 0.150000 -0.157954
-0.150000 0.192369 -0.225000
-0.129165 0.150000 -0.150000
-0.075000 -0.259390 -0.300000
-0.075000 -0.269418 -0.225000
-0.075000 -0.225000 -0.347710
-0.075000 -0.183719 -0.375000
-0.033493 -0.225000 -0.375000
-0.075000 -0.225000 -0.164579
-0.075000 -0.204691 -0.150000
-0.053348 -0.225000 -0.150000
-0.006054 -0.150000 -0.825000
-0.010582 -0.150000 -0.750000
-0.009003 -0.150000 -0.675000
-0.012410 -0.150000 -0.600000
-0.014103 -0.150000 -0.525000
-0.075000 -0.150000 -0.391804
-0.013990 -0.150000 -0.450000
-0.075000 -0.150000 -0.118149
-0.028574 -0.150000 -0.075000
-0.011448 -0.150000 0.000000
-0.000923 -0.150000 0.075000
-0.026477 -0.075000 -0.825000
-0.026247 -0.075000 -0.750000
-0.024557 -0.075000 -0.675000
-0.028727 -0.075000 -0.600000
-0.031198 -0.075000 -0.525000
-0.075000 -0.075000 -0.409624
-0.036512 -0.075000 -0.450000
-0.075000 -0.075000 -0.094322
-0.054094 -0.075000 -0.075000
-0.031481 -0.075000 0.000000
-0.018498 -0.075000 0.075000
-0.004403 -0.075000 0.150000
-0.026750 0.000000 -0.825000
-0.028161 0.000000 -0.750000
-0.024585 0.000000 -0.675000
-0.026506 0.000000 -0.600000
-0.028894 0.000000 -0.525000
-0.075000 0.000000 -0.406380
-0.031761 0.000000 -0.450000
-0.075000 0.000000 -0.082381
-0.067514 0.000000 -0.075000
-0.039172 0.000000 0.000000
-0.025284 0.000000 0.075000
-0.007552 0.000000 0.150000
-0.007760 0.075000 -0.750000
-0.010584 0.075000 -0.675000
-0.013424 0.075000 -0.600000
-0.017153 0.075000 -0.525000
-0.075000 0.075000 -0.387297
-0.021503 0.075000 -0.450000
-0.075000 0.090535 -0.375000
-0.075000 0.075000 -0.100429
-0.043543 0.075000 -0.075000
-0.018685 0.075000 0.000000
-0.009965 0.075000 0.075000
-0.075000 0.150000 -0.329395
-0.016189 0.150000 -0.375000
-0.075000 0.177477 -0.300000
-0.075000 0.198269 -0.225000
-0.075000 0.150000 -0.132186
-0.075000 0.164899 -0.150000
-0.009831 0.150000 -0.075000
0.000000 -0.242780 -0.375000
0.000000 -0.283187 -0.300000
0.000000 -0.293874 -0.225000
0.031618 -0.300000 -0.225000
0.000000 -0.262523 -0.150000
0.054645 -0.300000 -0.150000
0.000000 -0.160558 -0.825000
0.067594 -0.225000 -0.825000
0.000000 -0.177688 -0.750000
0.034362 -0.225000 -0.750000
0.000000 -0.175032 -0.675000
0.028837 -0.225000 -0.675000
0.000000 -0.184210 -0.600000
0.022087 -0.225000 -0.600000
0.000000 -0.191020 -0.525000
0.017420 -0.225000 -0.525000
0.000000 -0.225000 -0.411837
0.000000 -0.182770 -0.450000
0.022476 -0.225000 -0.450000
0.000000 -0.225000 -0.103075
0.000000 -0.195276 -0.075000
0.016996 -0.225000 -0.075000
0.000000 -0.174199 0.000000
0.028512 -0.225000 0.000000
0.000000 -0.152073 0.075000
0.040218 -0.225000 0.075000
0.059249 -0.225000 0.150000
0.000000 -0.150000 -0.836403
0.046212 -0.150000 -0.900000
0.000000 -0.150000 0.079846
0.000000 -0.094032 0.150000
0.014009 -0.150000 0.150000
0.035498 -0.150000 0.225000
0.059708 -0.150000 0.300000
0.066221 -0.150000 0.375000
0.069675 -0.150000 0.450000
0.074814 -0.150000 0.525000
0.000000 -0.075000 -0.883167
0.012058 -0.075000 -0.900000
0.000000 -0.075000 0.168167
0.013931 -0.075000 0.225000
0.035467 -0.075000 0.300000
0.042975 -0.075000 0.375000
0.039280 -0.075000 0.450000
0.045423 -0.075000 0.525000
0.064806 -0.075000 0.600000
0.000000 0.000000 -0.875875
0.018408 0.000000 -0.900000
0.000000 0.068502 -0.825000
0.000000 0.000000 0.173292
0.000000 0.040189 0.150000
0.016640 0.000000 0.225000
0.033886 0.000000 0.300000
0.038678 0.000000 0.375000
0.039028 0.000000 0.450000
0.047782 0.000000 0.525000
0.065450 0.000000 0.600000
0.046799 0.075000 -0.900000
0.000000 0.075000 -0.807035
0.002956 0.075000 -0.825000
0.000000 0.091121 -0.750000
0.000000 0.096276 -0.675000
0.000000 0.103222 -0.600000
0.000000 0.112494 -0.525000
0.000000 0.117233 -0.450000
0.000000 0.127607 0.000000
0.000000 0.075000 0.119648
0.000000 0.095764 0.075000
0.006985 0.075000 0.150000
0.032946 0.075000 0.225000
0.057067 0.075000 0.300000
0.060704 0.075000 0.375000
0.061170 0.075000 0.450000
0.074261 0.075000 0.525000
0.067985 0.150000 -0.825000
0.042567 0.150000 -0.750000
0.038345 0.150000 -0.675000
0.032176 0.150000 -0.600000
0.025273 0.150000 -0.525000
0.000000 0.150000 -0.404889
0.020061 0.150000 -0.450000
0.000000 0.162953 -0.375000
0.000000 0.211846 -0.300000
0.000000 0.222411 -0.225000
0.000000 0.196122 -0.150000
0.000000 0.150000 -0.041041
0.000000 0.157776 -0.075000
0.010619 0.150000 0.000000
0.036020 0.150000 0.075000
0.061041 0.150000 0.150000
0.051674 0.225000 -0.300000
0.008755 0.225000 -0.225000
0.058481 0.225000 -0.150000
0.075000 -0.308056 -0.225000
0.075000 -0.308791 -0.150000
0.075000 -0.228935 -0.825000
0.075000 -0.248086 -0.750000
0.075000 -0.257887 -0.675000
0.075000 -0.265970 -0.600000
0.075000 -0.268932 -0.525000
0.075000 -0.266192 -0.450000
0.075000 -0.276437 -0.375000
0.075000 -0.300000 -0.278736
0.075000 -0.296753 -0.300000
0.075000 -0.300000 -0.090104
0.075000 -0.296705 -0.075000
0.082484 -0.300000 -0.075000
0.075000 -0.275530 0.000000
0.129639 -0.300000 0.000000
0.075000 -0.259542 0.075000
0.075000 -0.240604 0.150000
0.075000 -0.225000 -0.833857
0.075000 -0.180771 -0.900000
0.101081 -0.225000 -0.825000
0.075000 -0.225000 0.196121
0.075000 -0.210696 0.225000
0.088335 -0.225000 0.225000
0.075000 -0.174832 0.300000
0.115373 -0.225000 0.300000
0.075000 -0.165606 0.375000
0.120766 -0.225000 0.375000
0.075000 -0.159745 0.450000
0.127156 -0.225000 0.450000
0.075000 -0.150383 0.525000
0.135296 -0.225000 0.525000
0.075000 -0.150000 -0.926450
0.075000 -0.150000 0.525920
0.075000 -0.105554 0.600000
0.091633 -0.150000 0.600000
0.144251 -0.150000 0.675000
0.075000 -0.075000 -0.948545
0.136680 -0.075000 -0.975000
0.075000 -0.075000 0.621267
0.106584 -0.075000 0.675000
0.075000 0.000000 -0.945818
0.147199 0.000000 -0.975000
0.075000 0.000000 0.619858
0.075000 0.025582 0.600000
0.111369 0.000000 0.675000
0.075000 0.075000 -0.928790
0.075000 0.106074 -0.900000
0.075000 0.140968 0.225000
0.075000 0.112807 0.300000
0.075000 0.106060 0.375000
0.075000 0.102354 0.450000
0.075000 0.075000 0.527788
0.075000 0.076441 0.525000
0.095889 0.075000 0.600000
0.075000 0.150000 -0.833808
0.075000 0.154594 -0.825000
0.094211 0.150000 -0.825000
0.075000 0.172863 -0.750000
0.075000 0.179294 -0.675000
0.075000 0.185150 -0.600000
0.075000 0.190963 -0.525000
0.075000 0.195724 -0.450000
0.075000 0.207951 -0.375000
0.075000 0.213170 -0.075000
0.075000 0.199823 0.000000
0.075000 0.182279 0.075000
0.075000 0.150000 0.199572
0.075000 0.162212 0.150000
0.085273 0.150000 0.225000
0.103704 0.150000 0.300000
0.106287 0.150000 0.375000
0.108064 0.150000 0.450000
0.117059 0.150000 0.525000
0.147750 0.150000 0.600000
0.075000 0.225000 -0.317970
0.075000 0.229934 -0.300000
0.110107 0.225000 -0.300000
0.075000 0.243680 -0.225000
0.075000 0.225000 -0.119336
0.075000 0.232117 -0.150000
0.104513 0.225000 -0.075000
0.142643 0.225000 0.000000
0.150000 -0.309321 -0.225000
0.150000 -0.324033 -0.150000
0.150000 -0.319949 -0.075000
0.150000 -0.306742 0.000000
0.150000 -0.234438 -0.750000
0.150000 -0.242369 -0.675000
0.150000 -0.246595 -0.600000
0.150000 -0.250396 -0.525000
0.150000 -0.247077 -0.450000
0.150000 -0.268069 -0.375000
0.150000 -0.300000 -0.258568
0.150000 -0.288046 -0.300000
0.169687 -0.300000 -0.225000
0.208679 -0.300000 -0.150000
0.150000 -0.300000 0.029622
0.201893 -0.300000 0.000000
0.150000 -0.289387 0.075000
0.150000 -0.273395 0.150000
0.150000 -0.262005 0.225000
0.150000 -0.252213 0.300000
0.150000 -0.249568 0.375000
0.150000 -0.243893 0.450000
0.150000 -0.235031 0.525000
0.150000 -0.182992 -0.900000
0.150000 -0.225000 -0.793385
0.150000 -0.213411 -0.825000
0.160732 -0.225000 -0.750000
0.167576 -0.225000 -0.675000
0.170039 -0.225000 -0.600000
0.174089 -0.225000 -0.525000
0.169527 -0.225000 -0.450000
0.199324 -0.225000 -0.375000
0.150000 -0.225000 0.596522
0.150000 -0.224392 0.600000
0.150000 -0.156935 0.675000
0.150000 -0.150000 -0.948136
0.150000 -0.094545 -0.975000
0.179266 -0.150000 -0.900000
0.189976 -0.150000 -0.825000
0.197348 -0.150000 -0.750000
0.204273 -0.150000 -0.675000
0.210451 -0.150000 -0.600000
0.213658 -0.150000 -0.525000
0.213663 -0.150000 -0.450000
0.150000 -0.150000 0.680662
0.156196 -0.075000 -0.975000
0.207314 -0.075000 -0.900000
0.215220 -0.075000 -0.825000
0.218883 -0.075000 -0.750000
0.150000 -0.075000 0.717385
0.150000 0.004154 -0.975000
0.151427 0.000000 -0.975000
0.207258 0.000000 -0.900000
0.212404 0.000000 -0.825000
0.217524 0.000000 -0.750000
0.223538 0.000000 -0.675000
0.150000 0.000000 0.709821
0.150000 0.073100 0.675000
0.150000 0.075000 -0.947965
0.150000 0.112633 -0.900000
0.183144 0.075000 -0.900000
0.150000 0.133841 -0.825000
0.195508 0.075000 -0.825000
0.202909 0.075000 -0.750000
0.208365 0.075000 -0.675000
0.209024 0.075000 -0.600000
0.207141 0.075000 -0.525000
0.219152 0.075000 -0.450000
0.150000 0.075000 0.673868
0.159355 0.075000 0.675000
0.150000 0.150000 -0.758169
0.150000 0.151563 -0.750000
0.151832 0.150000 -0.750000
0.150000 0.164145 -0.675000
0.164917 0.150000 -0.675000
0.150000 0.170783 -0.600000
0.169162 0.150000 -0.600000
0.150000 0.177791 -0.525000
0.173411 0.150000 -0.525000
0.150000 0.180256 -0.450000
0.173107 0.150000 -0.450000
0.150000 0.199816 -0.375000
0.198514 0.150000 -0.375000
0.150000 0.218423 -0.300000
0.150000 0.211768 0.075000
0.150000 0.194059 0.150000
0.150000 0.185002 0.225000
0.150000 0.179524 0.300000
0.150000 0.182669 0.375000
0.150000 0.185349 0.450000
0.150000 0.183183 0.525000
0.150000 0.150000 0.603084
0.150000 0.151980 0.600000
0.179839 0.150000 0.600000
0.150000 0.225000 -0.269566
0.150000 0.233658 -0.225000
0.167158 0.225000 -0.225000
0.150000 0.246516 -0.150000
0.205048 0.225000 -0.150000
0.150000 0.240987 -0.075000
0.150000 0.225000 0.011912
0.150000 0.227494 0.000000
0.178505 0.225000 0.000000
0.225000 -0.303744 -0.075000
0.225000 -0.239923 -0.300000
0.225000 -0.272480 -0.225000
0.225000 -0.300000 -0.101961
0.225000 -0.292553 -0.150000
0.225000 -0.300000 -0.033337
0.236145 -0.300000 -0.075000
0.225000 -0.296328 0.000000
0.225000 -0.256641 0.075000
0.225000 -0.239614 0.150000
0.225000 -0.242750 0.225000
0.225000 -0.253081 0.300000
0.225000 -0.254233 0.375000
0.225000 -0.251087 0.450000
0.225000 -0.240279 0.525000
0.225000 -0.225000 -0.325220
0.225000 -0.177047 -0.375000
0.238356 -0.225000 -0.300000
0.282014 -0.225000 -0.225000
0.263100 -0.225000 0.075000
0.239382 -0.225000 0.150000
0.244257 -0.225000 0.225000
0.265047 -0.225000 0.300000
0.268639 -0.225000 0.375000
0.266034 -0.225000 0.450000
0.225000 -0.225000 0.565148
0.252317 -0.225000 0.525000
0.225000 -0.209424 0.600000
0.225000 -0.165817 0.675000
0.225000 -0.075386 -0.675000
0.225000 -0.091586 -0.600000
0.225000 -0.108304 -0.525000
0.225000 -0.150000 -0.415488
0.225000 -0.108940 -0.450000
0.238274 -0.150000 -0.375000
0.278761 -0.150000 -0.300000
0.276370 -0.150000 0.150000
0.280885 -0.150000 0.600000
0.225000 -0.150000 0.687033
0.241121 -0.150000 0.675000
0.225000 -0.075000 -0.676140
0.225000 -0.070386 -0.675000
0.225094 -0.075000 -0.675000
0.228930 -0.075000 -0.600000
0.233963 -0.075000 -0.525000
0.233548 -0.075000 -0.450000
0.256953 -0.075000 -0.375000
0.296601 -0.075000 -0.300000
0.292952 -0.075000 0.150000
0.225000 -0.075000 0.720924
0.278255 -0.075000 0.675000
0.225000 0.000000 -0.638017
0.225000 0.007013 -0.600000
0.226491 0.000000 -0.600000
0.225000 0.012860 -0.525000
0.228664 0.000000 -0.525000
0.225000 0.042802 -0.450000
0.232492 0.000000 -0.450000
0.258354 0.000000 -0.375000
0.295571 0.000000 -0.300000
0.289600 0.000000 0.150000
0.225000 0.000000 0.721507
0.282614 0.000000 0.675000
0.225000 0.075000 -0.431953
0.225000 0.109450 -0.375000
0.243628 0.075000 -0.375000
0.273710 0.075000 -0.300000
0.270924 0.075000 0.150000
0.295657 0.075000 0.225000
0.225000 0.146757 0.600000
0.290931 0.075000 0.600000
0.225000 0.075000 0.680818
0.225000 0.082351 0.675000
0.234775 0.075000 0.675000
0.225000 0.150000 -0.319164
0.225000 0.160066 -0.300000
0.233882 0.150000 -0.300000
0.225000 0.192965 -0.225000
0.276842 0.150000 -0.225000
0.225000 0.216025 -0.150000
0.225000 0.220298 0.000000
0.225000 0.182594 0.075000
0.263314 0.150000 0.075000
0.225000 0.155796 0.150000
0.231713 0.150000 0.150000
0.225000 0.167774 0.225000
0.245317 0.150000 0.225000
0.225000 0.174656 0.300000
0.256847 0.150000 0.300000
0.225000 0.189755 0.375000
0.271143 0.150000 0.375000
0.225000 0.187640 0.450000
0.272258 0.150000 0.450000
0.225000 0.150000 0.592195
0.225000 0.174287 0.525000
0.262609 0.150000 0.525000
0.225000 0.225000 -0.107182
0.225000 0.225000 -0.030730
0.225000 0.231005 -0.075000
0.239547 0.225000 -0.075000
0.300000 -0.250837 -0.150000
0.300000 -0.275500 -0.075000
0.300000 -0.260369 0.000000
0.300000 -0.225000 -0.195922
0.300000 -0.196368 -0.225000
0.331562 -0.225000 -0.150000
0.300000 -0.225000 0.039564
0.300000 -0.164533 0.075000
0.300000 -0.154809 0.225000
0.300000 -0.180895 0.300000
0.300000 -0.188623 0.375000
0.300000 -0.190139 0.450000
0.300000 -0.179528 0.525000
0.300000 -0.150000 -0.266367
0.327890 -0.150000 -0.225000
0.300000 -0.150000 0.090947
0.325181 -0.150000 0.075000
0.300000 -0.150000 0.215932
0.303313 -0.150000 0.225000
0.317704 -0.150000 0.300000
0.323475 -0.150000 0.375000
0.325624 -0.150000 0.450000
0.300000 -0.150000 0.562513
0.316488 -0.150000 0.525000
0.300000 -0.097653 0.600000
0.300000 -0.075000 -0.294730
0.350193 -0.075000 -0.225000
0.300000 -0.075000 0.137172
0.300000 -0.075000 0.168832
0.321694 -0.075000 0.225000
0.341960 -0.075000 0.300000
0.349493 -0.075000 0.375000
0.347828 -0.075000 0.450000
0.332282 -0.075000 0.525000
0.300000 -0.075000 0.621872
0.307012 -0.075000 0.600000
0.300000 0.000000 -0.293183
0.347565 0.000000 -0.225000
0.300000 0.000000 0.133154
0.300000 0.000000 0.178912
0.300000 0.060518 0.225000
0.317578 0.000000 0.225000
0.344713 0.000000 0.300000
0.349364 0.000000 0.375000
0.347335 0.000000 0.450000
0.334437 0.000000 0.525000
0.300000 0.000000 0.629909
0.300000 0.038857 0.600000
0.308647 0.000000 0.600000
0.300000 0.075000 -0.257059
0.300000 0.114002 -0.225000
0.322948 0.075000 -0.225000
0.300000 0.075000 0.097805
0.300000 0.099064 0.075000
0.356258 0.075000 0.075000
0.300000 0.075000 0.240951
0.300000 0.098555 0.300000
0.316035 0.075000 0.300000
0.300000 0.109723 0.375000
0.320541 0.075000 0.375000
0.300000 0.112374 0.450000
0.322776 0.075000 0.450000
0.300000 0.075000 0.572107
0.300000 0.103141 0.525000
0.313442 0.075000 0.525000
0.300000 0.150000 -0.190573
0.300000 0.172348 -0.150000
0.330391 0.150000 -0.150000
0.300000 0.198837 -0.075000
0.300000 0.150000 0.037927
0.300000 0.184108 0.000000
0.375000 -0.233141 -0.075000
0.375000 -0.235886 0.000000
0.375000 -0.225000 -0.089091
0.375000 -0.165006 -0.150000
0.386088 -0.225000 -0.075000
0.375000 -0.225000 0.011494
0.421987 -0.225000 0.000000
0.375000 -0.150000 -0.162435
0.384844 -0.150000 -0.150000
0.448081 -0.150000 -0.075000
0.375000 -0.150000 0.063058
0.375000 -0.095699 0.075000
0.422532 -0.150000 0.075000
0.375000 -0.075000 -0.194200
0.413842 -0.075000 -0.150000
0.375000 -0.075000 0.079841
0.375000 0.000000 -0.189391
0.406585 0.000000 -0.150000
0.375000 0.000000 0.093492
0.375000 0.061193 0.075000
0.375000 0.075000 -0.157438
0.375000 0.085144 -0.150000
0.380721 0.075000 -0.150000
0.437185 0.075000 -0.075000
0.375000 0.075000 0.070742
0.394806 0.075000 0.075000
0.375000 0.150000 -0.093334
0.375000 0.160690 -0.075000
0.389363 0.150000 -0.075000
0.375000 0.150000 0.021427
0.375000 0.167836 0.000000
0.445903 0.150000 0.000000
0.450000 -0.217106 0.000000
0.450000 -0.161108 0.075000
0.450000 -0.150000 -0.072762
0.450000 -0.144734 -0.075000
0.497978 -0.150000 0.000000
0.450000 -0.150000 0.082566
0.493719 -0.150000 0.075000
0.450000 -0.075000 -0.104085
0.472025 -0.075000 -0.075000
0.450000 -0.075000 0.112218
0.450000 0.000000 -0.090479
0.450000 0.034678 -0.075000
0.460853 0.000000 -0.075000
0.450000 0.000000 0.116433
0.450000 0.075000 -0.058098
0.450000 0.148138 0.000000
0.496327 0.075000 0.000000
0.450000 0.075000 0.087892
0.450000 0.097604 0.075000
0.489508 0.075000 0.075000
0.525000 -0.088719 0.000000
0.525000 -0.134364 0.075000
0.525000 -0.075000 -0.008554
0.531172 -0.075000 0.000000
0.525000 -0.075000 0.100056
0.546368 -0.075000 0.075000
0.525000 0.000000 -0.001365
0.525000 0.003182 0.000000
0.526224 0.000000 0.000000
0.525000 0.000000 0.097480
0.525000 0.050009 0.075000
0.546281 0.000000 0.075000
3 21 11 0
3 11 13 1
3 0 11 1
3 13 23 1
3 30 21 0
3 2 30 0
3 0 1 2
3 1 3 2
3 23 33 3
3 1 23 3
3 30 2 32
3 2 3 34
3 32 2 34
3 3 33 34
3 57 46 4
3 46 47 5
3 4 46 5
3 47 48 6
3 5 47 6
3 48 61 6
3 66 51 7
3 51 53 8
3 7 51 8
3 53 55 9
3 8 53 9
3 55 58 10
3 9 55 10
3 58 57 4
3 58 4 10
3 10 4 12
3 4 5 12
3 5 14 12
3 5 6 14
3 6 15 14
3 61 69 15
3 6 61 15
3 71 64 16
3 64 67 17
3 16 64 17
3 67 66 7
3 67 7 17
3 17 7 18
3 7 8 18
3 8 19 18
3 8 9 19
3 9 20 19
3 9 10 20
3 10 22 20
3 21 12 11
3 21 22 12
3 22 10 12
3 14 11 12
3 13 11 14
3 13 24 23
3 13 14 24
3 14 15 24
3 69 73 24
3 15 69 24
3 75 71 16
3 25 75 16
3 16 17 25
3 17 26 25
3 17 18 26
3 18 27 26
3 18 19 27
3 19 28 27
3 19 20 28
3 20 29 28
3 20 22 29
3 22 31 29
3 22 30 31
3 21 30 22
3 35 23 24
3 33 23 35
3 73 79 35
3 24 73 35
3 75 25 77
3 25 26 78
3 77 25 78
3 83 78 26
3 83 26 36
3 36 26 27
3 27 28 36
3 28 37 36
3 28 29 37
3 29 38 37
3 29 31 38
3 31 39 38
3 32 31 30
3 32 40 31
3 40 39 31
3 34 40 32
3 41 40 34
3 33 41 34
3 33 35 41
3 35 42 41
3 79 89 42
3 35 79 42
3 83 36 85
3 36 37 86
3 85 36 86
3 37 38 87
3 86 37 87
3 38 39 88
3 87 38 88
3 95 88 39
3 95 39 43
3 43 39 40
3 40 41 43
3 41 44 43
3 41 42 44
3 42 45 44
3 89 100 45
3 42 89 45
3 95 43 97
3 43 44 98
3 97 43 98
3 44 45 101
3 98 44 101
3 45 100 101
3 111 103 49
3 103 104 50
3 49 103 50
3 104 105 52
3 50 104 52
3 105 106 54
3 52 105 54
3 106 107 56
3 54 106 56
3 107 108 59
3 56 107 59
3 57 59 108
3 57 108 46
3 46 108 109
3 115 60 47
3 115 47 109
3 109 47 46
3 48 47 60
3 62 48 60
3 48 62 61
3 120 112 63
3 112 111 49
3 112 49 63
3 63 49 65
3 49 50 65
3 50 68 65
3 66 52 51
3 66 68 52
3 68 50 52
3 54 51 52
3 53 51 54
3 56 53 54
3 55 53 56
3 59 55 56
3 58 55 59
3 59 57 58
3 60 118 62
3 117 118 60
3 62 118 125
3 62 125 61
3 61 125 69
3 127 121 70
3 121 120 63
3 121 63 70
3 70 63 72
3 71 65 64
3 71 72 65
3 72 63 65
3 68 64 65
3 67 64 68
3 68 66 67
3 125 130 69
3 130 73 69
3 132 127 70
3 74 132 70
3 70 72 74
3 72 76 74
3 72 75 76
3 71 75 72
3 130 135 73
3 135 79 73
3 137 132 74
3 80 137 74
3 74 76 80
3 76 81 80
3 77 76 75
3 77 82 76
3 82 81 76
3 78 82 77
3 84 82 78
3 78 83 84
3 135 144 79
3 144 89 79
3 137 80 139
3 80 81 140
3 139 80 140
3 148 140 81
3 148 81 90
3 90 81 82
3 82 84 90
3 84 91 90
3 85 84 83
3 85 92 84
3 92 91 84
3 86 92 85
3 93 92 86
3 87 93 86
3 94 93 87
3 88 94 87
3 96 94 88
3 88 95 96
3 158 99 142
3 142 102 145
3 99 102 142
3 145 102 100
3 145 100 144
3 144 100 89
3 148 90 150
3 90 91 151
3 150 90 151
3 91 92 152
3 151 91 152
3 92 93 153
3 152 92 153
3 93 94 154
3 153 93 154
3 94 96 156
3 154 94 156
3 96 95 97
3 96 97 156
3 156 97 159
3 99 158 159
3 99 159 98
3 98 159 97
3 102 99 98
3 101 102 98
3 102 101 100
3 168 161 110
3 161 162 113
3 110 161 113
3 111 113 162
3 111 162 103
3 103 162 163
3 163 164 103
3 103 164 104
3 164 165 104
3 104 165 105
3 165 166 105
3 105 166 106
3 166 167 106
3 106 167 107
3 174 114 108
3 174 108 167
3 167 108 107
3 109 108 114
3 116 109 114
3 109 116 115
3 177 169 119
3 169 168 110
3 169 110 119
3 119 110 122
3 120 113 112
3 120 122 113
3 122 110 113
3 113 111 112
3 174 176 114
3 180 114 176
3 180 123 114
3 123 116 114
3 117 115 116
3 117 116 124
3 124 116 123
3 118 117 124
3 126 118 124
3 118 126 125
3 183 177 119
3 128 183 119
3 127 122 121
3 127 128 122
3 128 119 122
3 122 120 121
3 180 182 123
3 186 123 182
3 186 129 123
3 129 124 123
3 124 129 126
3 126 129 131
3 126 131 130
3 125 126 130
3 188 183 128
3 133 188 128
3 128 132 133
3 127 132 128
3 191 129 186
3 134 129 191
3 129 134 131
3 131 134 136
3 131 136 135
3 130 131 135
3 194 188 133
3 138 194 133
3 133 137 138
3 132 137 133
3 200 141 192
3 192 134 191
3 192 141 134
3 141 143 134
3 134 143 136
3 136 143 146
3 136 146 144
3 135 136 144
3 194 138 195
3 203 139 147
3 195 139 203
3 195 137 139
3 195 138 137
3 140 147 139
3 149 147 140
3 140 148 149
3 211 155 198
3 198 157 201
3 155 157 198
3 201 141 200
3 201 157 141
3 157 160 141
3 158 142 143
3 158 143 160
3 160 143 141
3 146 143 142
3 145 146 142
3 146 145 144
3 203 147 204
3 147 149 205
3 204 147 205
3 149 148 150
3 149 150 205
3 205 150 206
3 206 150 207
3 150 151 207
3 207 151 209
3 151 152 209
3 209 152 212
3 152 153 212
3 155 211 212
3 155 212 154
3 154 212 153
3 157 155 154
3 156 157 154
3 160 157 156
3 159 160 156
3 160 159 158
3 218 214 170
3 168 170 214
3 168 214 161
3 161 214 215
3 215 216 161
3 161 216 162
3 216 217 162
3 162 217 163
3 219 171 164
3 219 164 217
3 217 164 163
3 165 164 171
3 172 165 171
3 166 165 172
3 173 166 172
3 167 166 173
3 175 167 173
3 167 175 174
3 170 169 177
3 170 177 218
3 218 177 223
3 170 168 169
3 219 221 171
3 171 222 172
3 221 222 171
3 225 172 222
3 225 178 172
3 178 173 172
3 173 178 175
3 175 178 179
3 176 174 175
3 176 175 181
3 181 175 179
3 176 181 180
3 223 177 228
3 228 177 183
3 225 227 178
3 232 178 227
3 232 184 178
3 184 179 178
3 179 184 181
3 181 184 185
3 182 180 181
3 182 181 187
3 187 181 185
3 182 187 186
3 228 183 234
3 234 183 188
3 238 184 232
3 189 184 238
3 184 189 185
3 185 189 190
3 185 190 187
3 187 190 193
3 187 193 191
3 186 187 191
3 234 188 241
3 241 188 194
3 243 196 236
3 236 197 239
3 196 197 236
3 239 189 238
3 239 197 189
3 197 199 189
3 189 199 190
3 190 199 202
3 200 192 193
3 200 193 202
3 202 193 190
3 193 192 191
3 241 194 195
3 242 241 195
3 195 246 242
3 203 246 195
3 250 208 244
3 244 196 243
3 244 208 196
3 208 210 196
3 196 210 197
3 197 210 213
3 211 198 199
3 211 199 213
3 213 199 197
3 202 199 198
3 201 202 198
3 202 201 200
3 246 203 204
3 248 246 204
3 248 204 249
3 204 205 249
3 249 205 251
3 205 206 251
3 208 250 251
3 208 251 207
3 207 251 206
3 210 208 207
3 209 210 207
3 213 210 209
3 212 213 209
3 218 256 253
3 214 218 253
3 253 254 214
3 214 254 215
3 254 255 215
3 215 255 216
3 257 220 217
3 257 217 255
3 255 217 216
3 217 220 219
3 256 218 260
3 260 218 223
3 257 259 220
3 262 224 221
3 259 262 221
3 259 221 219
3 259 219 220
3 222 221 224
3 226 222 224
3 222 226 225
3 264 261 229
3 261 228 229
3 261 260 228
3 260 223 228
3 266 224 262
3 230 224 266
3 224 230 226
3 226 230 231
3 227 225 226
3 227 226 233
3 233 226 231
3 264 229 265
3 229 268 265
3 229 228 268
3 228 234 268
3 270 230 266
3 235 230 270
3 230 235 231
3 231 235 237
3 231 237 233
3 233 237 240
3 268 234 272
3 272 234 241
3 273 235 270
3 245 235 273
3 243 236 237
3 243 237 245
3 245 237 235
3 240 237 236
3 239 240 236
3 242 247 276
3 242 276 241
3 241 276 272
3 242 246 247
3 279 252 274
3 245 250 244
3 273 250 245
3 273 252 250
3 273 274 252
3 245 244 243
3 276 247 277
3 247 246 248
3 247 248 277
3 277 248 278
3 278 248 280
3 248 249 280
3 252 279 280
3 252 280 251
3 251 280 249
3 252 251 250
3 256 284 282
3 253 256 282
3 282 283 253
3 253 283 254
3 285 258 255
3 285 255 283
3 283 255 254
3 284 256 287
3 287 256 260
3 285 286 258
3 290 263 259
3 286 290 259
3 286 259 257
3 286 257 258
3 259 263 262
3 264 291 288
3 261 264 288
3 288 260 261
3 287 260 288
3 292 263 290
3 267 263 292
3 263 267 266
3 262 263 266
3 265 269 293
3 265 293 264
3 264 293 291
3 265 268 269
3 295 267 292
3 271 267 295
3 267 271 270
3 266 267 270
3 293 269 294
3 269 296 294
3 269 268 296
3 268 272 296
3 298 271 295
3 275 271 298
3 271 275 273
3 270 271 273
3 296 272 300
3 300 272 276
3 302 281 299
3 275 279 274
3 298 279 275
3 298 281 279
3 298 299 281
3 275 274 273
3 300 276 277
3 301 300 277
3 301 277 303
3 277 278 303
3 281 302 303
3 281 303 280
3 280 303 278
3 281 280 279
3 284 307 305
3 282 284 305
3 305 306 282
3 282 306 283
3 283 306 310
3 285 283 310
3 318 308 289
3 308 287 289
3 308 307 287
3 307 284 287
3 310 286 285
3 311 286 310
3 286 311 320
3 290 286 320
3 289 288 291
3 289 291 318
3 318 291 329
3 320 331 290
3 331 292 290
3 329 291 341
3 341 291 293
3 331 343 292
3 343 295 292
3 294 297 352
3 294 352 293
3 293 352 341
3 294 296 297
3 343 355 295
3 355 298 295
3 352 297 354
3 297 359 354
3 297 296 359
3 296 300 359
3 299 304 302
3 304 299 298
3 304 298 363
3 363 298 355
3 359 300 301
3 361 359 301
3 361 301 362
3 301 303 362
3 302 304 364
3 302 364 303
3 303 364 362
3 382 366 309
3 307 309 366
3 307 366 305
3 305 366 367
3 367 368 305
3 305 368 306
3 312 310 306
3 312 306 370
3 370 306 368
3 370 385 312
3 393 372 313
3 372 374 314
3 313 372 314
3 374 376 315
3 314 374 315
3 376 378 316
3 315 376 316
3 378 380 317
3 316 378 317
3 380 383 319
3 317 380 319
3 309 308 318
3 382 309 318
3 382 318 319
3 382 319 383
3 309 307 308
3 312 311 310
3 311 321 320
3 312 321 311
3 312 386 321
3 312 385 386
3 386 388 322
3 321 386 322
3 388 390 323
3 322 388 323
3 403 393 313
3 324 403 313
3 313 314 324
3 314 325 324
3 314 315 325
3 315 326 325
3 315 316 326
3 316 327 326
3 316 317 327
3 317 328 327
3 317 319 328
3 319 330 328
3 319 329 330
3 318 329 319
3 332 320 321
3 331 320 332
3 321 322 332
3 322 333 332
3 322 323 333
3 323 334 333
3 395 396 335
3 395 335 323
3 323 335 334
3 396 405 335
3 412 403 324
3 336 412 324
3 324 325 336
3 325 337 336
3 325 326 337
3 326 338 337
3 326 327 338
3 327 339 338
3 327 328 339
3 328 340 339
3 328 330 340
3 330 342 340
3 330 341 342
3 329 341 330
3 344 331 332
3 343 331 344
3 332 333 344
3 333 345 344
3 333 334 345
3 334 346 345
3 334 335 346
3 335 347 346
3 405 415 347
3 335 405 347
3 412 336 414
3 424 414 336
3 424 336 348
3 348 336 337
3 337 338 348
3 338 349 348
3 338 339 349
3 339 350 349
3 339 340 350
3 340 351 350
3 340 342 351
3 342 353 351
3 342 352 353
3 341 352 342
3 356 343 344
3 355 343 356
3 344 345 356
3 345 357 356
3 345 346 357
3 346 358 357
3 416 432 358
3 416 358 347
3 347 358 346
3 347 415 416
3 424 348 426
3 348 349 427
3 426 348 427
3 349 350 428
3 427 349 428
3 350 351 429
3 428 350 429
3 351 353 430
3 429 351 430
3 445 354 360
3 430 354 445
3 430 352 354
3 430 353 352
3 354 359 360
3 365 355 356
3 363 355 365
3 431 451 365
3 431 365 357
3 357 365 356
3 357 358 433
3 431 357 433
3 358 432 433
3 445 360 447
3 360 359 361
3 360 361 447
3 447 361 448
3 448 361 449
3 361 362 449
3 449 362 450
3 362 364 450
3 363 365 452
3 363 452 364
3 364 452 450
3 365 451 452
3 468 459 369
3 459 460 371
3 369 459 371
3 460 470 371
3 477 461 373
3 461 462 375
3 373 461 375
3 462 463 377
3 375 462 377
3 463 464 379
3 377 463 379
3 464 465 381
3 379 464 381
3 465 466 384
3 381 465 384
3 382 384 466
3 382 466 366
3 366 466 467
3 467 469 366
3 366 469 367
3 369 469 468
3 369 368 469
3 368 367 469
3 371 368 369
3 370 368 371
3 370 387 385
3 371 387 370
3 371 471 387
3 371 470 471
3 471 473 389
3 387 471 389
3 473 475 391
3 389 473 391
3 475 476 392
3 391 475 392
3 476 480 392
3 491 478 394
3 373 372 393
3 477 373 393
3 477 393 394
3 477 394 478
3 375 372 373
3 374 372 375
3 377 374 375
3 376 374 377
3 379 376 377
3 378 376 379
3 381 378 379
3 380 378 381
3 384 380 381
3 383 380 384
3 384 382 383
3 387 386 385
3 389 386 387
3 388 386 389
3 391 388 389
3 390 388 391
3 390 397 395
3 390 391 397
3 391 392 397
3 480 481 398
3 480 398 392
3 392 398 397
3 481 483 399
3 398 481 399
3 483 485 400
3 399 483 400
3 485 487 401
3 400 485 401
3 487 489 402
3 401 487 402
3 496 491 394
3 404 496 394
3 394 403 404
3 393 403 394
3 397 396 395
3 396 406 405
3 396 397 406
3 397 398 406
3 398 399 406
3 399 407 406
3 399 400 407
3 400 408 407
3 400 401 408
3 401 409 408
3 401 402 409
3 402 410 409
3 492 493 411
3 492 411 402
3 402 411 410
3 493 498 411
3 500 496 404
3 413 500 404
3 404 412 413
3 403 412 404
3 417 405 406
3 415 405 417
3 406 407 417
3 407 418 417
3 407 408 418
3 408 419 418
3 408 409 419
3 409 420 419
3 409 410 420
3 410 421 420
3 410 411 421
3 411 422 421
3 498 502 422
3 411 498 422
3 505 500 413
3 423 505 413
3 414 413 412
3 414 425 413
3 425 423 413
3 414 424 425
3 416 434 432
3 415 434 416
3 415 417 434
3 417 435 434
3 417 418 435
3 418 436 435
3 418 419 436
3 419 437 436
3 419 420 437
3 420 438 437
3 420 421 438
3 421 439 438
3 503 511 439
3 503 439 422
3 422 439 421
3 422 502 503
3 505 423 506
3 514 506 423
3 514 423 440
3 440 423 425
3 426 425 424
3 426 441 425
3 441 440 425
3 427 441 426
3 442 441 427
3 428 442 427
3 443 442 428
3 429 443 428
3 444 443 429
3 430 444 429
3 446 444 430
3 430 445 446
3 431 453 451
3 433 453 431
3 454 453 433
3 432 454 433
3 432 434 454
3 434 455 454
3 507 526 455
3 507 455 435
3 435 455 434
3 435 436 508
3 507 435 508
3 436 437 509
3 508 436 509
3 437 438 510
3 509 437 510
3 438 439 512
3 510 438 512
3 439 511 512
3 440 441 517
3 515 440 517
3 441 442 518
3 517 441 518
3 442 443 519
3 518 442 519
3 443 444 520
3 519 443 520
3 444 446 521
3 520 444 521
3 446 445 447
3 446 447 521
3 521 447 522
3 534 448 456
3 534 522 448
3 522 447 448
3 449 456 448
3 457 456 449
3 450 457 449
3 458 457 450
3 458 523 538
3 458 450 523
3 450 452 523
3 451 453 524
3 451 524 452
3 452 524 523
3 453 454 525
3 524 453 525
3 454 455 527
3 525 454 527
3 455 526 527
3 534 456 535
3 456 457 537
3 535 456 537
3 457 458 539
3 537 457 539
3 458 538 539
3 468 552 542
3 459 468 542
3 542 543 459
3 459 543 460
3 472 470 460
3 472 460 544
3 544 460 543
3 544 545 474
3 472 544 474
3 545 556 474
3 461 477 479
3 479 566 546
3 479 546 461
3 461 546 462
3 546 547 462
3 462 547 463
3 547 548 463
3 463 548 464
3 548 549 464
3 464 549 465
3 549 550 465
3 465 550 466
3 550 551 466
3 466 551 467
3 551 553 467
3 467 553 469
3 553 468 469
3 552 468 553
3 472 471 470
3 474 471 472
3 473 471 474
3 556 473 474
3 556 558 473
3 558 475 473
3 558 559 475
3 475 559 476
3 482 480 476
3 482 476 560
3 560 476 559
3 560 561 484
3 482 560 484
3 561 562 486
3 484 561 486
3 562 563 488
3 486 562 488
3 563 564 490
3 488 563 490
3 564 574 490
3 491 577 565
3 478 491 565
3 477 567 479
3 477 478 567
3 478 565 567
3 479 567 566
3 482 481 480
3 484 481 482
3 483 481 484
3 486 483 484
3 485 483 486
3 488 485 486
3 487 485 488
3 490 487 488
3 489 487 490
3 489 494 492
3 490 494 489
3 490 575 494
3 490 574 575
3 575 576 495
3 494 575 495
3 576 586 495
3 578 496 497
3 578 577 496
3 577 491 496
3 494 493 492
3 493 499 498
3 493 494 499
3 494 495 499
3 586 591 499
3 495 586 499
3 497 500 501
3 496 500 497
3 504 498 499
3 502 498 504
3 591 598 504
3 499 591 504
3 501 600 592
3 501 500 600
3 500 505 600
3 503 513 511
3 513 599 610
3 503 599 513
3 503 504 599
3 503 502 504
3 504 598 599
3 600 505 506
3 601 600 506
3 516 506 514
3 516 603 506
3 603 601 506
3 603 516 612
3 507 528 526
3 508 528 507
3 529 528 508
3 509 529 508
3 530 529 509
3 510 530 509
3 531 530 510
3 512 531 510
3 532 531 512
3 511 532 512
3 511 513 532
3 513 533 532
3 610 633 533
3 513 610 533
3 612 516 515
3 612 515 613
3 613 515 517
3 613 517 615
3 517 518 615
3 615 518 617
3 518 519 617
3 617 519 619
3 519 520 619
3 619 520 621
3 520 521 621
3 621 521 623
3 521 522 623
3 536 522 534
3 536 625 522
3 625 623 522
3 625 536 636
3 523 540 538
3 524 540 523
3 541 540 524
3 541 626 642
3 541 524 626
3 524 525 626
3 626 525 627
3 525 527 627
3 526 528 628
3 526 628 527
3 527 628 627
3 528 529 629
3 628 528 629
3 529 530 630
3 629 529 630
3 530 531 631
3 630 530 631
3 531 532 632
3 631 531 632
3 532 533 634
3 632 532 634
3 533 633 634
3 536 534 535
3 636 536 535
3 636 535 637
3 637 535 537
3 637 537 639
3 537 539 639
3 538 540 641
3 538 641 539
3 539 641 639
3 540 541 643
3 641 540 643
3 541 642 643
3 542 552 554
3 543 542 554
3 555 543 554
3 555 648 645
3 555 645 543
3 543 645 544
3 650 557 545
3 650 545 645
3 645 545 544
3 545 557 556
3 546 566 568
3 547 546 568
3 569 547 568
3 548 547 569
3 570 548 569
3 549 548 570
3 571 549 570
3 550 549 571
3 572 550 571
3 551 550 572
3 573 551 572
3 573 660 646
3 573 646 551
3 551 646 553
3 552 647 554
3 552 553 647
3 553 646 647
3 554 649 555
3 647 649 554
3 555 649 648
3 650 652 557
3 557 558 556
3 557 652 558
3 652 653 558
3 653 654 558
3 558 654 559
3 654 655 559
3 559 655 560
3 655 656 560
3 560 656 561
3 656 657 561
3 561 657 562
3 657 658 562
3 562 658 563
3 658 659 563
3 563 659 564
3 564 659 670
3 574 564 670
3 565 577 579
3 567 565 579
3 580 567 579
3 566 567 580
3 566 580 568
3 568 580 581
3 568 581 569
3 569 581 582
3 569 582 570
3 570 582 583
3 570 583 571
3 571 583 584
3 571 584 572
3 572 584 585
3 661 585 677
3 661 573 585
3 573 572 585
3 573 661 660
3 670 575 574
3 672 575 670
3 672 673 575
3 575 673 576
3 576 673 683
3 586 576 683
3 577 578 587
3 577 587 579
3 579 587 588
3 579 588 580
3 580 588 589
3 580 589 581
3 581 589 590
3 674 590 685
3 674 582 590
3 582 581 590
3 582 675 583
3 674 675 582
3 583 676 584
3 675 676 583
3 584 678 585
3 676 678 584
3 585 678 677
3 683 694 586
3 694 591 586
3 587 593 588
3 588 593 594
3 588 594 589
3 589 594 595
3 589 595 590
3 590 595 596
3 685 597 686
3 685 590 597
3 590 596 597
3 686 597 696
3 694 706 591
3 706 598 591
3 592 600 602
3 592 602 593
3 593 602 594
3 594 602 595
3 595 602 604
3 595 604 596
3 596 604 605
3 596 605 597
3 597 605 606
3 696 607 697
3 696 597 607
3 597 606 607
3 697 608 699
3 607 608 697
3 699 609 701
3 608 609 699
3 701 609 708
3 611 599 598
3 611 598 716
3 716 598 706
3 602 600 601
3 604 602 601
3 603 604 601
3 603 612 614
3 603 614 604
3 604 614 605
3 605 614 606
3 606 614 616
3 606 616 607
3 607 616 618
3 607 618 608
3 608 618 620
3 608 620 609
3 609 620 622
3 708 624 709
3 708 609 624
3 609 622 624
3 709 624 719
3 738 635 714
3 635 717 714
3 635 610 717
3 635 633 610
3 611 717 610
3 611 716 717
3 616 614 613
3 615 616 613
3 618 616 615
3 617 618 615
3 620 618 617
3 619 620 617
3 622 620 619
3 621 622 619
3 624 622 621
3 623 624 621
3 719 624 623
3 719 623 720
3 720 623 625
3 638 625 636
3 638 722 625
3 722 720 625
3 722 640 724
3 638 640 722
3 724 640 741
3 742 644 725
3 642 725 644
3 642 626 725
3 626 726 725
3 726 626 728
3 626 627 728
3 728 627 730
3 627 628 730
3 730 628 732
3 628 629 732
3 732 629 734
3 629 630 734
3 734 630 736
3 630 631 736
3 736 631 739
3 631 632 739
3 635 738 739
3 635 739 634
3 634 739 632
3 635 634 633
3 638 636 637
3 640 638 637
3 639 640 637
3 741 640 639
3 741 639 743
3 743 639 641
3 644 742 743
3 644 743 643
3 643 743 641
3 644 643 642
3 645 648 651
3 645 651 650
3 646 660 662
3 647 646 662
3 663 647 662
3 663 748 745
3 663 745 647
3 647 745 649
3 648 746 651
3 648 649 746
3 649 745 746
3 651 652 650
3 651 746 652
3 746 747 652
3 751 664 653
3 751 653 747
3 747 653 652
3 654 653 664
3 665 654 664
3 655 654 665
3 666 655 665
3 656 655 666
3 667 656 666
3 657 656 667
3 668 657 667
3 658 657 668
3 669 658 668
3 659 658 669
3 671 659 669
3 659 671 670
3 661 677 679
3 660 661 679
3 660 679 662
3 662 679 680
3 749 680 758
3 749 663 680
3 663 662 680
3 663 749 748
3 751 752 664
3 760 664 752
3 760 681 664
3 681 665 664
3 753 681 762
3 753 666 681
3 666 665 681
3 666 754 667
3 753 754 666
3 667 755 668
3 754 755 667
3 668 756 669
3 755 756 668
3 669 757 671
3 756 757 669
3 767 682 672
3 757 767 672
3 757 672 670
3 757 670 671
3 673 672 682
3 684 673 682
3 673 684 683
3 675 674 687
3 688 675 687
3 676 675 688
3 689 676 688
3 678 676 689
3 690 678 689
3 677 678 690
3 677 690 679
3 679 690 691
3 679 691 680
3 680 691 692
3 758 692 770
3 680 692 758
3 772 681 760
3 693 681 772
3 762 693 773
3 681 693 762
3 767 769 682
3 779 682 769
3 779 695 682
3 695 684 682
3 684 695 694
3 683 684 694
3 686 696 698
3 686 698 687
3 687 698 688
3 688 698 689
3 689 698 700
3 689 700 690
3 690 700 702
3 690 702 691
3 691 702 703
3 691 703 692
3 692 703 704
3 770 704 781
3 692 704 770
3 791 695 779
3 707 695 791
3 695 707 706
3 694 695 706
3 698 696 697
3 700 698 697
3 699 700 697
3 702 700 699
3 701 702 699
3 701 708 710
3 701 710 702
3 702 710 703
3 703 710 704
3 704 710 711
3 781 711 794
3 704 711 781
3 797 705 783
3 712 705 797
3 784 713 785
3 784 705 713
3 705 712 713
3 785 713 800
3 807 715 792
3 792 707 791
3 792 715 707
3 715 718 707
3 707 718 716
3 706 707 716
3 710 708 709
3 709 719 721
3 709 721 710
3 710 721 711
3 794 723 795
3 794 711 723
3 711 721 723
3 795 723 810
3 814 727 798
3 798 712 797
3 798 727 712
3 727 729 712
3 712 729 713
3 713 729 731
3 800 733 801
3 800 713 733
3 713 731 733
3 801 735 803
3 733 735 801
3 803 737 805
3 735 737 803
3 805 740 808
3 737 740 805
3 715 738 714
3 807 738 715
3 807 740 738
3 807 808 740
3 718 715 714
3 717 718 714
3 718 717 716
3 721 719 720
3 723 721 720
3 722 723 720
3 810 723 722
3 810 722 811
3 811 722 724
3 744 724 741
3 744 813 724
3 813 811 724
3 742 813 744
3 742 725 813
3 725 815 813
3 727 814 815
3 727 815 726
3 726 815 725
3 729 727 726
3 728 729 726
3 731 729 728
3 730 731 728
3 733 731 730
3 732 733 730
3 735 733 732
3 734 735 732
3 737 735 734
3 736 737 734
3 740 737 736
3 739 740 736
3 740 739 738
3 744 741 743
3 744 743 742
3 745 748 750
3 750 818 816
3 750 816 745
3 745 816 746
3 816 817 746
3 746 817 747
3 747 817 821
3 751 747 821
3 749 758 759
3 759 823 819
3 749 759 819
3 749 819 750
3 749 750 748
3 750 819 818
3 752 826 761
3 752 751 826
3 751 821 826
3 752 761 760
3 753 762 763
3 754 753 763
3 764 754 763
3 755 754 764
3 765 755 764
3 756 755 765
3 766 756 765
3 757 756 766
3 768 757 766
3 757 768 767
3 771 759 758
3 770 771 758
3 823 771 829
3 759 771 823
3 826 827 761
3 761 827 831
3 761 831 760
3 760 831 772
3 774 763 762
3 773 774 762
3 763 774 764
3 764 774 775
3 764 775 765
3 765 775 776
3 765 776 766
3 766 776 777
3 766 777 768
3 768 777 778
3 769 767 768
3 769 768 780
3 780 768 778
3 769 780 779
3 782 771 770
3 781 782 770
3 829 782 832
3 771 782 829
3 831 834 772
3 834 783 772
3 786 774 773
3 784 786 773
3 774 786 775
3 775 786 787
3 775 787 776
3 776 787 788
3 776 788 777
3 777 788 789
3 777 789 778
3 778 789 790
3 778 790 780
3 780 790 793
3 780 793 791
3 779 780 791
3 796 782 781
3 794 796 781
3 832 796 836
3 782 796 832
3 840 799 835
3 835 799 797
3 835 797 834
3 834 797 783
3 786 784 785
3 785 800 802
3 785 802 786
3 786 802 787
3 787 802 788
3 788 802 804
3 788 804 789
3 789 804 806
3 789 806 790
3 790 806 809
3 807 792 793
3 807 793 809
3 809 793 790
3 793 792 791
3 796 794 795
3 795 810 812
3 796 795 812
3 796 812 837
3 796 837 836
3 837 812 842
3 799 814 798
3 799 840 814
3 840 845 814
3 799 798 797
3 804 802 801
3 803 804 801
3 806 804 803
3 805 806 803
3 809 806 805
3 808 809 805
3 809 808 807
3 812 810 811
3 842 812 811
3 842 811 843
3 843 811 813
3 843 813 846
3 813 815 846
3 846 815 814
3 845 846 814
3 816 818 820
3 817 816 820
3 822 817 820
3 817 822 821
3 819 823 824
3 818 819 824
3 818 824 820
3 820 824 825
3 848 825 850
3 848 822 825
3 822 820 825
3 822 826 821
3 822 849 826
3 822 848 849
3 849 828 826
3 849 853 828
3 830 824 823
3 829 830 823
3 851 830 855
3 851 825 830
3 825 824 830
3 828 827 826
3 827 828 853
3 827 853 831
3 831 853 857
3 833 830 829
3 832 833 829
3 855 833 858
3 830 833 855
3 857 861 831
3 861 834 831
3 838 833 832
3 836 838 832
3 858 839 859
3 858 833 839
3 833 838 839
3 859 839 862
3 835 841 840
3 841 835 834
3 841 834 865
3 865 834 861
3 838 836 837
3 837 842 844
3 837 844 838
3 838 844 839
3 862 847 863
3 862 839 847
3 839 844 847
3 847 866 863
3 847 840 866
3 847 845 840
3 841 866 840
3 841 865 866
3 844 842 843
3 847 844 843
3 846 847 843
3 847 846 845
3 848 850 852
3 849 848 852
3 854 849 852
3 849 854 853
3 851 855 856
3 856 870 868
3 851 856 868
3 851 868 852
3 851 852 850
3 852 869 854
3 868 869 852
3 854 869 872
3 854 872 853
3 853 872 857
3 860 856 855
3 858 860 855
3 870 860 874
3 856 860 870
3 872 877 857
3 877 861 857
3 860 858 859
3 859 862 864
3 860 859 864
3 860 864 875
3 860 875 874
3 875 867 878
3 864 867 875
3 878 867 865
3 878 865 877
3 877 865 861
3 864 862 863
3 867 864 863
3 866 867 863
3 867 866 865
3 868 870 871
3 869 868 871
3 873 869 871
3 869 873 872
3 876 871 870
3 874 876 870
3 871 876 873
3 873 876 879
3 873 879 877
3 872 873 877
3 876 874 875
3 879 876 875
3 878 879 875
3 879 878 877
