ply
format ascii 1.0
element vertex 1280
property float x
property float y
property float z
element face 2492
property list uchar int vertex_indices
end_header
-0.538136 0.000000 0.375000
-0.527275 0.075000 0.375000
-0.450730 -0.225000 0.225000
-0.462596 -0.225000 0.300000
-0.466490 -0.225000 0.375000
-0.466455 -0.150000 0.075000
-0.484836 -0.150000 0.150000
-0.496517 -0.150000 0.225000
-0.506875 -0.150000 0.300000
-0.515210 -0.150000 0.375000
-0.492919 -0.150000 0.450000
-0.454371 -0.075000 -0.525000
-0.458997 -0.075000 -0.450000
-0.465512 -0.075000 -0.375000
-0.467569 -0.075000 -0.300000
-0.472934 -0.075000 0.075000
-0.488840 -0.075000 0.150000
-0.500322 -0.075000 0.225000
-0.507673 -0.075000 0.300000
-0.525000 -0.045265 0.375000
-0.516696 -0.075000 0.375000
-0.500963 -0.075000 0.450000
-0.459375 0.000000 -0.525000
-0.464951 0.000000 -0.450000
-0.469516 0.000000 -0.375000
-0.467729 0.000000 -0.300000
-0.450280 0.000000 0.000000
-0.470036 0.000000 0.075000
-0.486720 0.000000 0.150000
-0.502076 0.000000 0.225000
-0.525000 0.000000 0.317977
-0.520959 0.000000 0.300000
-0.525000 0.000000 0.426796
-0.517447 0.000000 0.450000
-0.453903 0.075000 -0.375000
-0.455508 0.075000 0.075000
-0.472394 0.075000 0.150000
-0.495141 0.075000 0.225000
-0.525000 0.075000 0.362644
-0.513613 0.075000 0.300000
-0.525000 0.075000 0.384381
-0.525000 0.081558 0.375000
-0.504050 0.075000 0.450000
-0.451100 0.150000 0.225000
-0.474998 0.150000 0.300000
-0.491806 0.150000 0.375000
-0.455040 0.150000 0.450000
-0.450000 -0.225716 0.225000
-0.450000 -0.236926 0.300000
-0.450000 -0.239049 0.375000
-0.383069 -0.225000 -0.675000
-0.406826 -0.225000 -0.600000
-0.412640 -0.225000 -0.525000
-0.408108 -0.225000 -0.450000
-0.396256 -0.225000 -0.375000
-0.450000 -0.174377 0.075000
-0.400085 -0.225000 0.075000
-0.450000 -0.225000 0.222048
-0.450000 -0.202736 0.150000
-0.426052 -0.225000 0.150000
-0.450000 -0.225000 0.415547
-0.450000 -0.208393 0.450000
-0.432044 -0.225000 0.450000
-0.422665 -0.150000 -0.675000
-0.438948 -0.150000 -0.600000
-0.450000 -0.098286 -0.525000
-0.439821 -0.150000 -0.525000
-0.450000 -0.112789 -0.450000
-0.440919 -0.150000 -0.450000
-0.450000 -0.128077 -0.375000
-0.442842 -0.150000 -0.375000
-0.450000 -0.110548 -0.300000
-0.426065 -0.150000 -0.300000
-0.450000 -0.150000 0.040215
-0.424057 -0.150000 0.000000
-0.450000 -0.150000 0.500878
-0.424152 -0.150000 0.525000
-0.389222 -0.075000 -0.750000
-0.441057 -0.075000 -0.675000
-0.450000 -0.075000 -0.589240
-0.449270 -0.075000 -0.600000
-0.450000 -0.075000 -0.269014
-0.415781 -0.075000 -0.225000
-0.394931 -0.075000 -0.075000
-0.450000 -0.075000 0.003161
-0.450000 -0.015640 0.000000
-0.448849 -0.075000 0.000000
-0.450000 -0.075000 0.517937
-0.443848 -0.075000 0.525000
-0.392195 0.000000 -0.750000
-0.431154 0.000000 -0.675000
-0.450000 0.000000 -0.595417
-0.449381 0.000000 -0.600000
-0.450000 0.036437 -0.525000
-0.450000 0.065787 -0.450000
-0.450000 0.000000 -0.271428
-0.450000 0.041546 -0.300000
-0.406474 0.000000 -0.225000
-0.450000 0.000000 -0.000397
-0.450000 0.001080 0.000000
-0.450000 0.000000 0.524076
-0.449147 0.000000 0.525000
-0.378100 0.000000 0.600000
-0.379128 0.075000 -0.750000
-0.420568 0.075000 -0.675000
-0.432243 0.075000 -0.600000
-0.438909 0.075000 -0.525000
-0.450000 0.075000 -0.423483
-0.447535 0.075000 -0.450000
-0.450000 0.075000 -0.358776
-0.450000 0.081451 -0.375000
-0.426713 0.075000 -0.300000
-0.450000 0.075000 0.057669
-0.420757 0.075000 0.000000
-0.450000 0.086491 0.075000
-0.450000 0.112438 0.150000
-0.450000 0.075000 0.509793
-0.435052 0.075000 0.525000
-0.384769 0.150000 -0.675000
-0.386795 0.150000 -0.600000
-0.388080 0.150000 -0.525000
-0.392511 0.150000 -0.450000
-0.392954 0.150000 -0.375000
-0.404437 0.150000 0.075000
-0.450000 0.150000 0.222302
-0.416545 0.150000 0.150000
-0.450000 0.150979 0.225000
-0.450000 0.172788 0.300000
-0.450000 0.182777 0.375000
-0.450000 0.150000 0.455200
-0.450000 0.154321 0.450000
-0.375000 -0.232361 -0.675000
-0.375000 -0.253715 -0.600000
-0.375000 -0.259604 -0.525000
-0.375000 -0.256778 -0.450000
-0.375000 -0.245909 -0.375000
-0.375000 -0.246011 0.075000
-0.375000 -0.256325 0.150000
-0.375000 -0.256384 0.225000
-0.375000 -0.259236 0.300000
-0.375000 -0.274493 0.375000
-0.375000 -0.262853 0.450000
-0.375000 -0.225000 -0.687171
-0.310722 -0.225000 -0.750000
-0.375000 -0.225000 -0.315725
-0.375000 -0.216818 -0.300000
-0.367863 -0.225000 -0.300000
-0.319339 -0.225000 -0.225000
-0.302405 -0.225000 -0.075000
-0.375000 -0.225000 0.015409
-0.375000 -0.216759 0.000000
-0.367649 -0.225000 0.000000
-0.305660 -0.225000 0.225000
-0.375000 -0.225000 0.502378
-0.375000 -0.202344 0.525000
-0.349211 -0.225000 0.525000
-0.375000 -0.150000 -0.742624
-0.375000 -0.124718 -0.750000
-0.367204 -0.150000 -0.750000
-0.375000 -0.150000 -0.234691
-0.375000 -0.137110 -0.225000
-0.367175 -0.150000 -0.225000
-0.315765 -0.150000 -0.150000
-0.375000 -0.150000 -0.050988
-0.375000 -0.109585 -0.075000
-0.349423 -0.150000 -0.075000
-0.375000 -0.150000 0.568959
-0.339399 -0.150000 0.600000
-0.375000 -0.075000 -0.761552
-0.304179 -0.075000 -0.825000
-0.375000 -0.075000 -0.181378
-0.375000 -0.075000 -0.106077
-0.352044 -0.075000 -0.150000
-0.375000 -0.025234 -0.075000
-0.375000 -0.075000 0.597649
-0.375000 -0.043583 0.600000
-0.372798 -0.075000 0.600000
-0.375000 0.000000 -0.770726
-0.324404 0.000000 -0.825000
-0.375000 0.000000 -0.191627
-0.375000 0.046032 -0.225000
-0.347704 0.000000 -0.150000
-0.375000 0.000000 -0.066288
-0.366870 0.000000 -0.075000
-0.375000 0.000000 0.602975
-0.375000 0.009018 0.600000
-0.375000 0.075000 -0.755541
-0.315558 0.075000 -0.825000
-0.375000 0.082755 -0.750000
-0.375000 0.075000 -0.246941
-0.375000 0.134610 -0.300000
-0.357100 0.075000 -0.225000
-0.314943 0.075000 -0.150000
-0.375000 0.075000 -0.035768
-0.333408 0.075000 -0.075000
-0.375000 0.144926 0.000000
-0.375000 0.075000 0.578651
-0.375000 0.148980 0.525000
-0.347205 0.075000 0.600000
-0.375000 0.150000 -0.691366
-0.324038 0.150000 -0.750000
-0.375000 0.160328 -0.675000
-0.375000 0.163782 -0.600000
-0.375000 0.165573 -0.525000
-0.375000 0.170022 -0.450000
-0.375000 0.150000 -0.328734
-0.375000 0.166863 -0.375000
-0.362503 0.150000 -0.300000
-0.309089 0.150000 -0.225000
-0.375000 0.150000 0.007176
-0.369873 0.150000 0.000000
-0.375000 0.172651 0.075000
-0.375000 0.177338 0.150000
-0.375000 0.183198 0.225000
-0.375000 0.190559 0.300000
-0.375000 0.198300 0.375000
-0.375000 0.150000 0.523911
-0.375000 0.188962 0.450000
-0.373662 0.150000 0.525000
-0.300000 -0.231022 -0.750000
-0.300000 -0.260142 -0.675000
-0.300000 -0.254287 -0.600000
-0.300000 -0.253782 -0.525000
-0.300000 -0.260742 -0.450000
-0.300000 -0.277600 -0.375000
-0.300000 -0.271817 -0.300000
-0.300000 -0.247081 -0.225000
-0.300000 -0.227253 -0.075000
-0.300000 -0.273862 0.000000
-0.300000 -0.284352 0.075000
-0.300000 -0.260166 0.150000
-0.300000 -0.231152 0.300000
-0.300000 -0.261208 0.375000
-0.300000 -0.277096 0.450000
-0.300000 -0.254342 0.525000
-0.300000 -0.225000 -0.756331
-0.258061 -0.225000 -0.600000
-0.259924 -0.225000 -0.525000
-0.300000 -0.225000 -0.188074
-0.300000 -0.225000 -0.082058
-0.300000 -0.185055 -0.150000
-0.281854 -0.225000 -0.150000
-0.300000 -0.225000 0.217673
-0.265167 -0.225000 0.150000
-0.300000 -0.225000 0.253219
-0.300000 -0.220381 0.225000
-0.293916 -0.225000 0.300000
-0.235158 -0.225000 0.375000
-0.300000 -0.225000 0.571375
-0.300000 -0.195388 0.600000
-0.257991 -0.225000 0.600000
-0.300000 -0.150000 -0.802889
-0.300000 -0.086270 -0.825000
-0.263352 -0.150000 -0.825000
-0.247840 -0.150000 0.225000
-0.249407 -0.150000 0.300000
-0.300000 -0.150000 0.634210
-0.239141 -0.150000 0.675000
-0.300000 -0.075000 -0.829133
-0.233755 -0.075000 0.225000
-0.238020 -0.075000 0.300000
-0.300000 -0.075000 0.663082
-0.277957 -0.075000 0.675000
-0.300000 0.000000 -0.849296
-0.239629 0.000000 -0.900000
-0.247902 0.000000 0.225000
-0.240478 0.000000 0.300000
-0.300000 0.000000 0.663441
-0.278089 0.000000 0.675000
-0.300000 0.075000 -0.843021
-0.240223 0.075000 -0.900000
-0.300000 0.093548 -0.825000
-0.228690 0.075000 -0.600000
-0.300000 0.099796 -0.150000
-0.300000 0.133704 -0.075000
-0.260839 0.075000 0.225000
-0.253856 0.075000 0.300000
-0.300000 0.075000 0.634028
-0.300000 0.134564 0.600000
-0.300000 0.150000 -0.771791
-0.232522 0.150000 -0.825000
-0.300000 0.165126 -0.750000
-0.300000 0.184608 -0.675000
-0.300000 0.176430 -0.600000
-0.271723 0.150000 -0.600000
-0.300000 0.177473 -0.525000
-0.264595 0.150000 -0.525000
-0.300000 0.184299 -0.450000
-0.300000 0.199575 -0.375000
-0.300000 0.192149 -0.300000
-0.300000 0.150000 -0.210251
-0.300000 0.160119 -0.225000
-0.265670 0.150000 -0.150000
-0.300000 0.150000 -0.060130
-0.286916 0.150000 -0.075000
-0.300000 0.183884 0.000000
-0.300000 0.185047 0.075000
-0.300000 0.179072 0.150000
-0.267014 0.150000 0.150000
-0.300000 0.152809 0.225000
-0.298150 0.150000 0.225000
-0.300000 0.158600 0.300000
-0.292843 0.150000 0.300000
-0.300000 0.189520 0.375000
-0.300000 0.205565 0.450000
-0.300000 0.150000 0.585943
-0.300000 0.183476 0.525000
-0.277796 0.150000 0.600000
-0.225000 -0.253681 -0.750000
-0.225000 -0.239081 -0.675000
-0.225000 -0.240894 -0.450000
-0.225000 -0.284913 -0.375000
-0.225000 -0.295029 -0.300000
-0.199559 -0.300000 -0.300000
-0.225000 -0.292220 -0.225000
-0.189292 -0.300000 -0.225000
-0.225000 -0.280559 -0.150000
-0.170687 -0.300000 -0.150000
-0.225000 -0.278739 -0.075000
-0.225000 -0.285485 0.000000
-0.225000 -0.248654 0.075000
-0.225000 -0.259092 0.450000
-0.225000 -0.271117 0.525000
-0.225000 -0.239050 0.600000
-0.225000 -0.225000 -0.790306
-0.225000 -0.181181 -0.825000
-0.161818 -0.225000 -0.825000
-0.225000 -0.225000 -0.651106
-0.198222 -0.225000 -0.675000
-0.225000 -0.183208 -0.600000
-0.225000 -0.225000 -0.474176
-0.225000 -0.185109 -0.525000
-0.164690 -0.225000 -0.450000
-0.225000 -0.225000 0.104843
-0.179627 -0.225000 0.075000
-0.225000 -0.174363 0.150000
-0.225000 -0.225000 0.386122
-0.225000 -0.214088 0.375000
-0.225000 -0.225000 0.619490
-0.225000 -0.161967 0.675000
-0.225000 -0.150000 -0.850248
-0.201719 -0.150000 -0.600000
-0.198485 -0.150000 -0.525000
-0.225000 -0.150000 0.182580
-0.202207 -0.150000 0.150000
-0.225000 -0.150000 0.329854
-0.192183 -0.150000 0.375000
-0.225000 -0.150000 0.683125
-0.225000 -0.075000 -0.896742
-0.225000 -0.058224 -0.900000
-0.220185 -0.075000 -0.900000
-0.194429 -0.075000 -0.600000
-0.194771 -0.075000 -0.525000
-0.225000 -0.075000 0.205371
-0.188279 -0.075000 0.150000
-0.225000 -0.075000 0.320383
-0.180592 -0.075000 0.375000
-0.225000 -0.075000 0.699500
-0.225000 0.000000 -0.910067
-0.225000 0.064643 -0.600000
-0.199329 0.000000 -0.600000
-0.189464 0.000000 -0.525000
-0.225000 0.000000 0.189664
-0.187707 0.000000 0.150000
-0.225000 0.000000 0.320439
-0.170269 0.000000 0.375000
-0.225000 0.000000 0.696323
-0.225000 0.050060 0.675000
-0.225000 0.075000 -0.909892
-0.225000 0.088468 -0.900000
-0.225000 0.075000 -0.605290
-0.225000 0.075000 -0.585292
-0.225000 0.097232 -0.525000
-0.208375 0.075000 -0.525000
-0.225000 0.075000 0.167455
-0.225000 0.092845 0.150000
-0.209726 0.075000 0.150000
-0.225000 0.075000 0.333051
-0.175925 0.075000 0.375000
-0.225000 0.075000 0.663031
-0.225000 0.150000 -0.831333
-0.225000 0.153919 -0.825000
-0.225000 0.174985 -0.750000
-0.225000 0.150000 -0.673276
-0.225000 0.151355 -0.675000
-0.222794 0.150000 -0.675000
-0.225000 0.150000 -0.464428
-0.225000 0.161357 -0.450000
-0.169130 0.150000 -0.450000
-0.225000 0.200287 -0.375000
-0.225000 0.213461 -0.300000
-0.225000 0.202282 -0.225000
-0.225000 0.187899 -0.150000
-0.225000 0.187734 -0.075000
-0.225000 0.196810 0.000000
-0.225000 0.150000 0.104489
-0.225000 0.174024 0.075000
-0.178163 0.150000 0.075000
-0.225000 0.150000 0.371344
-0.225000 0.153402 0.375000
-0.220829 0.150000 0.375000
-0.225000 0.185973 0.450000
-0.162544 0.150000 0.450000
-0.225000 0.195982 0.525000
-0.225000 0.150000 0.621657
-0.225000 0.168161 0.600000
-0.150000 -0.309523 -0.300000
-0.150000 -0.308192 -0.225000
-0.150000 -0.306473 -0.150000
-0.150000 -0.231038 -0.825000
-0.150000 -0.254104 -0.750000
-0.150000 -0.300000 -0.339054
-0.150000 -0.289954 -0.375000
-0.150000 -0.300000 -0.084598
-0.150000 -0.298973 -0.075000
-0.150000 -0.258958 0.000000
-0.150000 -0.228131 0.450000
-0.150000 -0.272011 0.525000
-0.150000 -0.251522 0.600000
-0.150000 -0.225000 -0.831348
-0.150000 -0.225000 -0.706467
-0.150000 -0.181965 -0.675000
-0.150000 -0.225000 -0.446395
-0.150000 -0.219134 -0.450000
-0.150000 -0.225000 0.050960
-0.080072 -0.225000 0.000000
-0.150000 -0.202375 0.075000
-0.150000 -0.225000 0.446557
-0.144268 -0.225000 0.450000
-0.150000 -0.225000 0.641109
-0.150000 -0.194448 0.675000
-0.150000 -0.150000 -0.899185
-0.150000 -0.148935 -0.900000
-0.148103 -0.150000 -0.900000
-0.150000 -0.150000 -0.655380
-0.111730 -0.150000 -0.675000
-0.150000 -0.150000 -0.484427
-0.150000 -0.150000 0.110660
-0.100620 -0.150000 0.075000
-0.150000 -0.150000 0.421211
-0.088228 -0.150000 0.450000
-0.150000 -0.150000 0.705753
-0.150000 -0.075000 -0.942605
-0.150000 -0.075000 -0.643353
-0.092712 -0.075000 -0.675000
-0.150000 -0.075000 -0.492581
-0.150000 -0.075000 0.121739
-0.150000 -0.075000 0.402758
-0.150000 -0.075000 0.711657
-0.150000 0.000000 -0.951737
-0.086789 0.000000 -0.975000
-0.150000 0.000000 -0.650020
-0.110738 0.000000 -0.675000
-0.150000 0.000000 -0.490949
-0.150000 0.000000 0.120533
-0.092724 0.000000 0.075000
-0.150000 0.000000 0.392537
-0.150000 0.000000 0.700315
-0.150000 0.074295 0.675000
-0.150000 0.075000 -0.946861
-0.150000 0.126541 -0.900000
-0.150000 0.075000 -0.674935
-0.150000 0.075115 -0.675000
-0.149899 0.075000 -0.675000
-0.150000 0.075000 -0.472405
-0.150000 0.141406 -0.450000
-0.150000 0.075000 0.097068
-0.150000 0.117484 0.075000
-0.121547 0.075000 0.075000
-0.150000 0.075000 0.397726
-0.150000 0.139998 0.450000
-0.087556 0.075000 0.450000
-0.150000 0.075000 0.674748
-0.145395 0.075000 0.675000
-0.150000 0.150000 -0.863842
-0.078856 0.150000 -0.900000
-0.150000 0.170869 -0.825000
-0.150000 0.150000 -0.736508
-0.150000 0.158646 -0.750000
-0.128372 0.150000 -0.750000
-0.150000 0.150000 -0.446348
-0.150000 0.207181 -0.375000
-0.150000 0.221303 -0.300000
-0.150000 0.210308 -0.225000
-0.150000 0.214216 -0.150000
-0.150000 0.215319 -0.075000
-0.150000 0.150000 0.055175
-0.150000 0.190654 0.000000
-0.150000 0.150000 0.463217
-0.150000 0.180074 0.525000
-0.150000 0.150000 0.633471
-0.150000 0.176478 0.600000
-0.097134 0.225000 -0.300000
-0.080829 0.225000 -0.225000
-0.100880 0.225000 -0.150000
-0.075000 -0.314563 -0.300000
-0.075000 -0.313322 -0.225000
-0.075000 -0.307701 -0.150000
-0.075000 -0.249475 -0.825000
-0.075000 -0.235974 -0.750000
-0.075000 -0.300000 -0.345249
-0.075000 -0.289948 -0.375000
-0.075000 -0.300000 -0.112313
-0.075000 -0.289916 -0.075000
-0.075000 -0.252474 0.525000
-0.075000 -0.255947 0.600000
-0.075000 -0.225000 -0.858067
-0.075000 -0.182178 -0.900000
-0.075000 -0.225000 -0.736399
-0.025586 -0.225000 -0.750000
-0.075000 -0.225000 -0.448781
-0.075000 -0.222919 -0.450000
-0.070256 -0.225000 -0.450000
-0.075000 -0.225000 -0.002714
-0.075000 -0.221547 0.000000
-0.059218 -0.225000 0.000000
-0.075000 -0.225000 0.492912
-0.075000 -0.225000 0.647211
-0.075000 -0.197979 0.675000
-0.075000 -0.150000 -0.926324
-0.075000 -0.150000 -0.690410
-0.075000 -0.150000 -0.489948
-0.007620 -0.150000 -0.525000
-0.075000 -0.150000 0.054463
-0.075000 -0.084707 0.075000
-0.075000 -0.150000 0.455408
-0.075000 -0.123730 0.450000
-0.075000 -0.150000 0.708430
-0.075000 -0.075000 -0.964781
-0.075000 -0.020865 -0.975000
-0.075000 -0.075000 -0.682838
-0.075000 -0.075000 -0.511367
-0.053673 -0.075000 -0.525000
-0.075000 -0.075000 0.077414
-0.075000 -0.062930 0.075000
-0.075000 -0.075000 0.440092
-0.060830 -0.075000 0.450000
-0.075000 -0.075000 0.720013
-0.075000 0.000000 -0.978847
-0.075000 0.019728 -0.975000
-0.075000 0.000000 -0.695029
-0.075000 0.000000 -0.488918
-0.012800 0.000000 -0.525000
-0.075000 0.000000 0.062103
-0.009284 0.000000 0.075000
-0.075000 0.000000 0.443727
-0.075000 0.029733 0.450000
-0.065992 0.000000 0.450000
-0.075000 0.000000 0.705258
-0.075000 0.075000 -0.962342
-0.075000 0.075000 -0.723997
-0.075000 0.114466 -0.750000
-0.075000 0.075000 -0.477166
-0.075000 0.149909 -0.450000
-0.075000 0.075000 0.045074
-0.075000 0.075000 0.460681
-0.075000 0.075000 0.678961
-0.075000 0.084689 0.675000
-0.075000 0.150000 -0.901334
-0.075000 0.151133 -0.900000
-0.075000 0.150000 -0.777206
-0.075000 0.183042 -0.825000
-0.075000 0.150000 -0.449956
-0.074859 0.150000 -0.450000
-0.075000 0.209327 -0.375000
-0.075000 0.214727 -0.075000
-0.075000 0.150000 0.013194
-0.075000 0.162515 0.000000
-0.075000 0.150000 0.501821
-0.075000 0.169424 0.525000
-0.075000 0.150000 0.638592
-0.075000 0.180927 0.600000
-0.075000 0.225000 -0.307792
-0.075000 0.226564 -0.300000
-0.075000 0.226212 -0.225000
-0.075000 0.225000 -0.121395
-0.075000 0.230584 -0.150000
0.000000 -0.309936 -0.300000
0.000000 -0.307037 -0.225000
0.000000 -0.303461 -0.150000
0.000000 -0.255948 -0.825000
0.000000 -0.246309 -0.450000
0.000000 -0.300000 -0.339870
0.000000 -0.291111 -0.375000
0.021029 -0.300000 -0.300000
0.013964 -0.300000 -0.225000
0.000000 -0.300000 -0.124233
0.008900 -0.300000 -0.150000
0.000000 -0.291808 -0.075000
0.000000 -0.233707 0.000000
0.000000 -0.239949 0.525000
0.000000 -0.256926 0.600000
0.000000 -0.225000 -0.876302
0.000000 -0.201885 -0.900000
0.000000 -0.225000 -0.760788
0.000000 -0.210781 -0.750000
0.027371 -0.225000 -0.750000
0.070220 -0.225000 -0.675000
0.072030 -0.225000 -0.600000
0.000000 -0.225000 -0.477940
0.000000 -0.159177 -0.525000
0.057839 -0.225000 -0.525000
0.000000 -0.225000 0.010352
0.000000 -0.225000 0.511857
0.000000 -0.225000 0.647632
0.000000 -0.197973 0.675000
0.000000 -0.150000 -0.935959
0.000000 -0.150000 -0.721240
0.035411 -0.150000 -0.675000
0.000000 -0.150000 -0.531573
0.038389 -0.150000 -0.600000
0.000000 -0.150000 0.062038
0.000000 -0.076323 0.075000
0.028426 -0.150000 0.075000
0.000000 -0.150000 0.488771
0.000000 -0.150000 0.709651
0.000000 -0.075000 -0.966652
0.000000 -0.032988 -0.975000
0.000000 -0.075000 -0.706331
0.023165 -0.075000 -0.675000
0.000000 -0.075000 -0.575037
0.015913 -0.075000 -0.600000
0.000000 -0.075000 0.075229
0.000000 -0.075000 0.491340
0.000000 -0.075000 0.726483
0.000000 0.000000 -0.981646
0.000000 0.030722 -0.975000
0.000000 0.000000 -0.720592
0.033589 0.000000 -0.675000
0.000000 0.000000 -0.543159
0.022595 0.000000 -0.600000
0.000000 0.040883 -0.525000
0.000000 0.000000 0.076898
0.000000 0.009642 0.075000
0.000000 0.000000 0.490523
0.000000 0.000000 0.714311
0.000000 0.075000 -0.964759
0.000000 0.075000 -0.737569
0.000000 0.090873 -0.750000
0.044725 0.075000 -0.675000
0.038504 0.075000 -0.600000
0.000000 0.075000 -0.518164
0.007424 0.075000 -0.525000
0.000000 0.075000 0.062609
0.027409 0.075000 0.075000
0.000000 0.075000 0.497447
0.000000 0.075000 0.687591
0.000000 0.102668 0.675000
0.000000 0.150000 -0.917598
0.000000 0.165807 -0.900000
0.000000 0.150000 -0.792342
0.000000 0.177511 -0.825000
0.065648 0.150000 -0.600000
0.000000 0.150000 -0.480539
0.057568 0.150000 -0.525000
0.000000 0.168818 -0.450000
0.000000 0.207711 -0.375000
0.000000 0.214733 -0.075000
0.000000 0.150000 0.018047
0.000000 0.164078 0.000000
0.000000 0.150000 0.519033
0.000000 0.157369 0.525000
0.000000 0.150000 0.644118
0.000000 0.183811 0.600000
0.000000 0.225000 -0.305276
0.000000 0.226218 -0.300000
0.003067 0.225000 -0.300000
0.000000 0.229040 -0.225000
0.007722 0.225000 -0.225000
0.000000 0.225000 -0.131371
0.000000 0.228017 -0.150000
0.006928 0.225000 -0.150000
0.075000 -0.255095 -0.825000
0.075000 -0.234633 -0.750000
0.075000 -0.229185 -0.675000
0.075000 -0.227764 -0.600000
0.075000 -0.233461 -0.525000
0.075000 -0.262265 -0.450000
0.075000 -0.284349 -0.375000
0.075000 -0.269052 -0.300000
0.075000 -0.263503 -0.225000
0.075000 -0.271358 -0.150000
0.075000 -0.283215 -0.075000
0.075000 -0.249932 0.000000
0.075000 -0.232457 0.525000
0.075000 -0.257721 0.600000
0.075000 -0.225000 -0.882970
0.075000 -0.211648 -0.900000
0.148149 -0.225000 -0.375000
0.127864 -0.225000 -0.300000
0.120970 -0.225000 -0.225000
0.075000 -0.225000 0.039019
0.075000 -0.186855 0.075000
0.109419 -0.225000 0.075000
0.075000 -0.225000 0.519464
0.075000 -0.225000 0.647090
0.075000 -0.197066 0.675000
0.075000 -0.150000 -0.940204
0.075000 -0.150000 0.097324
0.127366 -0.150000 0.150000
0.075000 -0.150000 0.494768
0.075000 -0.150000 0.709407
0.075000 -0.075000 -0.967067
0.075000 -0.037003 -0.975000
0.075000 -0.075000 0.119123
0.105328 -0.075000 0.150000
0.133848 -0.075000 0.225000
0.075000 -0.075000 0.481699
0.120800 -0.075000 0.450000
0.075000 -0.075000 0.731074
0.075000 0.000000 -0.982804
0.075000 0.030612 -0.975000
0.075000 0.000000 0.132022
0.091318 0.000000 0.150000
0.130035 0.000000 0.225000
0.075000 0.000000 0.480740
0.117618 0.000000 0.450000
0.075000 0.000000 0.724179
0.075000 0.075000 -0.963225
0.075000 0.142828 -0.750000
0.075000 0.148184 -0.675000
0.075000 0.075000 0.102598
0.075000 0.122482 0.075000
0.111195 0.075000 0.150000
0.139043 0.075000 0.225000
0.075000 0.075000 0.497297
0.075000 0.075000 0.696466
0.075000 0.115328 0.675000
0.075000 0.150000 -0.923335
0.075000 0.172859 -0.900000
0.075000 0.150000 -0.772463
0.075000 0.164665 -0.825000
0.084664 0.150000 -0.750000
0.075000 0.150000 -0.668168
0.076260 0.150000 -0.675000
0.075000 0.158704 -0.600000
0.075000 0.159103 -0.525000
0.075000 0.190737 -0.450000
0.075000 0.208344 -0.375000
0.075000 0.187955 -0.300000
0.118254 0.150000 -0.300000
0.075000 0.177752 -0.225000
0.109398 0.150000 -0.225000
0.075000 0.190807 -0.150000
0.075000 0.210940 -0.075000
0.075000 0.150000 0.055408
0.075000 0.183032 0.000000
0.097701 0.150000 0.075000
0.147553 0.150000 0.150000
0.075000 0.150000 0.520307
0.075000 0.156071 0.525000
0.075000 0.150000 0.647955
0.075000 0.183367 0.600000
0.150000 -0.259010 -0.825000
0.150000 -0.272543 -0.750000
0.150000 -0.273955 -0.675000
0.150000 -0.268386 -0.600000
0.150000 -0.259916 -0.525000
0.150000 -0.239408 -0.450000
0.150000 -0.233032 -0.150000
0.150000 -0.266531 -0.075000
0.150000 -0.280248 0.000000
0.150000 -0.253304 0.075000
0.150000 -0.241321 0.525000
0.150000 -0.256241 0.600000
0.150000 -0.225000 -0.898223
0.150000 -0.223500 -0.900000
0.197397 -0.225000 -0.525000
0.150000 -0.225000 -0.383102
0.163483 -0.225000 -0.450000
0.150000 -0.222143 -0.375000
0.150000 -0.187788 -0.300000
0.150000 -0.225000 -0.168988
0.150000 -0.192263 -0.225000
0.158434 -0.225000 -0.150000
0.150000 -0.225000 0.136983
0.150000 -0.209938 0.150000
0.157841 -0.225000 0.150000
0.213601 -0.225000 0.225000
0.222404 -0.225000 0.375000
0.150000 -0.225000 0.501452
0.193306 -0.225000 0.450000
0.150000 -0.225000 0.644228
0.150000 -0.194764 0.675000
0.150000 -0.150000 -0.942732
0.216201 -0.150000 -0.450000
0.183858 -0.150000 -0.375000
0.165611 -0.150000 -0.300000
0.177718 -0.150000 -0.225000
0.195223 -0.150000 -0.150000
0.150000 -0.150000 0.209445
0.150000 -0.131329 0.225000
0.156448 -0.150000 0.225000
0.183131 -0.150000 0.300000
0.175217 -0.150000 0.375000
0.150000 -0.150000 0.452994
0.150000 -0.143346 0.450000
0.152047 -0.150000 0.450000
0.150000 -0.150000 0.708289
0.150000 -0.075000 -0.965328
0.150000 -0.025282 -0.975000
0.205736 -0.075000 -0.375000
0.189101 -0.075000 -0.300000
0.190665 -0.075000 -0.225000
0.220257 -0.075000 -0.150000
0.150000 -0.075000 0.266374
0.162971 -0.075000 0.300000
0.150000 -0.075000 0.396324
0.157278 -0.075000 0.375000
0.150000 -0.075000 0.733468
0.150000 0.000000 -0.979943
0.150000 0.018077 -0.975000
0.191957 0.000000 -0.975000
0.209336 0.000000 -0.375000
0.192820 0.000000 -0.300000
0.194608 0.000000 -0.225000
0.150000 0.000000 0.270770
0.161889 0.000000 0.300000
0.150000 0.000000 0.399564
0.159470 0.000000 0.375000
0.150000 0.066594 0.450000
0.150000 0.000000 0.731984
0.150000 0.075000 -0.958620
0.211139 0.075000 -0.450000
0.185563 0.075000 -0.375000
0.150000 0.113817 -0.300000
0.174243 0.075000 -0.300000
0.150000 0.112654 -0.225000
0.178019 0.075000 -0.225000
0.212732 0.075000 -0.150000
0.150000 0.075000 0.264085
0.150000 0.098186 0.225000
0.160354 0.075000 0.300000
0.171424 0.075000 0.375000
0.150000 0.075000 0.453423
0.152799 0.075000 0.450000
0.150000 0.075000 0.703627
0.150000 0.123779 0.675000
0.150000 0.150000 -0.917437
0.150000 0.169012 -0.900000
0.222036 0.150000 -0.900000
0.150000 0.180060 -0.825000
0.150000 0.189352 -0.750000
0.150000 0.194875 -0.675000
0.150000 0.190315 -0.600000
0.150000 0.188489 -0.525000
0.199736 0.150000 -0.525000
0.150000 0.177906 -0.450000
0.177837 0.150000 -0.450000
0.150000 0.150000 -0.364111
0.150000 0.154500 -0.375000
0.154356 0.150000 -0.375000
0.150000 0.150000 -0.162364
0.150000 0.155908 -0.150000
0.157499 0.150000 -0.150000
0.150000 0.191149 -0.075000
0.150000 0.205455 0.000000
0.150000 0.178145 0.075000
0.150000 0.150000 0.156742
0.150000 0.153210 0.150000
0.176274 0.150000 0.225000
0.198229 0.150000 0.300000
0.204660 0.150000 0.375000
0.150000 0.150000 0.500238
0.206890 0.150000 0.450000
0.150000 0.172586 0.525000
0.150000 0.150000 0.650144
0.150000 0.179694 0.600000
0.225000 -0.255301 -0.825000
0.225000 -0.276974 -0.750000
0.225000 -0.267771 -0.675000
0.225000 -0.241170 -0.600000
0.225000 -0.235567 -0.075000
0.225000 -0.281136 0.000000
0.225000 -0.284753 0.075000
0.225000 -0.272141 0.150000
0.225000 -0.235346 0.225000
0.225000 -0.228466 0.375000
0.225000 -0.246413 0.450000
0.225000 -0.273439 0.525000
0.225000 -0.254135 0.600000
0.225000 -0.225000 -0.885686
0.225000 -0.210340 -0.900000
0.295032 -0.225000 -0.825000
0.279995 -0.225000 -0.675000
0.225000 -0.225000 -0.569950
0.241079 -0.225000 -0.600000
0.225000 -0.190211 -0.525000
0.225000 -0.225000 -0.085454
0.244010 -0.225000 -0.075000
0.225000 -0.225000 0.283574
0.225000 -0.225000 0.337641
0.225000 -0.221009 0.300000
0.227729 -0.225000 0.300000
0.225000 -0.225000 0.642006
0.225000 -0.191163 0.675000
0.225000 -0.150000 -0.931557
0.283592 -0.150000 -0.900000
0.293109 -0.150000 -0.600000
0.225000 -0.150000 -0.469523
0.253267 -0.150000 -0.525000
0.225000 -0.106897 -0.450000
0.225000 -0.150000 -0.122018
0.225000 -0.150000 0.703920
0.225000 -0.075000 -0.958815
0.271598 -0.075000 -0.525000
0.225000 -0.075000 -0.432357
0.231154 -0.075000 -0.450000
0.225000 -0.075000 -0.144987
0.225000 -0.056481 -0.150000
0.225000 -0.075000 0.730778
0.225000 0.000000 -0.970898
0.275481 0.000000 -0.525000
0.225000 0.000000 -0.425362
0.225000 0.028430 -0.450000
0.233598 0.000000 -0.450000
0.225000 0.000000 -0.174518
0.225000 0.043334 -0.150000
0.245662 0.000000 -0.150000
0.225000 0.000000 0.734772
0.225000 0.075000 -0.945319
0.225000 0.148841 -0.900000
0.291062 0.075000 -0.600000
0.225000 0.075000 -0.477631
0.225000 0.114528 -0.525000
0.250296 0.075000 -0.525000
0.225000 0.075000 -0.137967
0.225000 0.075000 0.707395
0.225000 0.125876 0.675000
0.225000 0.150000 -0.898666
0.225000 0.183909 -0.825000
0.285435 0.150000 -0.825000
0.225000 0.185354 -0.750000
0.290544 0.150000 -0.750000
0.225000 0.176385 -0.675000
0.261298 0.150000 -0.675000
0.225000 0.150000 -0.582522
0.225000 0.157044 -0.600000
0.232356 0.150000 -0.600000
0.225000 0.150000 -0.084046
0.225000 0.157781 -0.075000
0.237794 0.150000 -0.075000
0.225000 0.204728 0.000000
0.225000 0.217240 0.075000
0.225000 0.208467 0.150000
0.225000 0.196773 0.225000
0.225000 0.180338 0.300000
0.225000 0.172217 0.375000
0.225000 0.165335 0.450000
0.225000 0.203290 0.525000
0.225000 0.150000 0.646543
0.225000 0.173313 0.600000
0.276839 0.225000 0.150000
0.285733 0.225000 0.225000
0.295424 0.225000 0.300000
0.297822 0.225000 0.375000
0.300000 -0.232273 -0.750000
0.300000 -0.252061 0.000000
0.300000 -0.288090 0.075000
0.300000 -0.292461 0.150000
0.365390 -0.300000 0.150000
0.300000 -0.289387 0.225000
0.329069 -0.300000 0.225000
0.300000 -0.285304 0.300000
0.334925 -0.300000 0.300000
0.300000 -0.285675 0.375000
0.340678 -0.300000 0.375000
0.300000 -0.277748 0.450000
0.300000 -0.274957 0.525000
0.300000 -0.249107 0.600000
0.300000 -0.225000 -0.804973
0.300000 -0.221464 -0.825000
0.300000 -0.225000 -0.727658
0.306812 -0.225000 -0.750000
0.300000 -0.201751 -0.675000
0.300000 -0.225000 -0.033285
0.300000 -0.173174 -0.075000
0.349399 -0.225000 0.000000
0.300000 -0.225000 0.630250
0.357824 -0.225000 0.600000
0.300000 -0.167108 0.675000
0.300000 -0.150000 -0.888045
0.300000 -0.127470 -0.900000
0.347583 -0.150000 -0.825000
0.354515 -0.150000 -0.750000
0.300000 -0.150000 -0.611337
0.335172 -0.150000 -0.675000
0.300000 -0.131459 -0.600000
0.300000 -0.150000 -0.088222
0.318751 -0.150000 -0.075000
0.300000 -0.150000 0.685011
0.321975 -0.150000 0.675000
0.300000 -0.075000 -0.922316
0.322533 -0.075000 -0.900000
0.360250 -0.075000 -0.825000
0.370396 -0.075000 -0.750000
0.361624 -0.075000 -0.675000
0.300000 -0.075000 -0.570954
0.318246 -0.075000 -0.600000
0.300000 -0.075000 -0.103888
0.349248 -0.075000 -0.075000
0.300000 -0.075000 0.703622
0.357323 -0.075000 0.675000
0.300000 0.000000 -0.940265
0.340390 0.000000 -0.900000
0.353786 0.000000 -0.825000
0.359428 0.000000 -0.750000
0.359433 0.000000 -0.675000
0.300000 0.000000 -0.571636
0.300000 0.049479 -0.600000
0.315093 0.000000 -0.600000
0.300000 0.000000 -0.108686
0.349950 0.000000 -0.075000
0.300000 0.000000 0.703869
0.354831 0.000000 0.675000
0.300000 0.075000 -0.916007
0.300000 0.096275 -0.900000
0.316772 0.075000 -0.900000
0.300000 0.136706 -0.825000
0.341236 0.075000 -0.825000
0.300000 0.140910 -0.750000
0.343379 0.075000 -0.750000
0.300000 0.075000 -0.617004
0.300000 0.109894 -0.675000
0.331946 0.075000 -0.675000
0.300000 0.075000 -0.089674
0.300000 0.096570 -0.075000
0.321494 0.075000 -0.075000
0.300000 0.075000 0.687267
0.300000 0.098673 0.675000
0.325902 0.075000 0.675000
0.300000 0.150000 -0.026888
0.300000 0.170958 0.000000
0.336134 0.150000 0.000000
0.300000 0.214815 0.075000
0.300000 0.213227 0.450000
0.300000 0.199370 0.525000
0.300000 0.150000 0.630696
0.300000 0.166955 0.600000
0.300000 0.225000 0.117601
0.300000 0.231866 0.150000
0.300000 0.231001 0.225000
0.300000 0.227504 0.300000
0.300000 0.225000 0.382999
0.300000 0.226401 0.375000
0.375000 -0.301129 0.150000
0.375000 -0.313803 0.225000
0.375000 -0.316713 0.300000
0.375000 -0.312359 0.375000
0.375000 -0.300000 0.145303
0.375000 -0.276272 0.075000
0.411720 -0.300000 0.150000
0.375000 -0.300000 0.429340
0.375000 -0.295449 0.450000
0.424535 -0.300000 0.450000
0.375000 -0.274643 0.525000
0.375000 -0.225000 0.016954
0.375000 -0.199007 0.000000
0.375000 -0.225000 0.590082
0.375000 -0.213829 0.600000
0.375000 -0.150000 -0.027569
0.418737 -0.150000 0.000000
0.375000 -0.150000 0.646251
0.434556 -0.150000 0.600000
0.375000 -0.075000 -0.058152
0.375000 -0.075000 0.664624
0.375000 0.000000 -0.056593
0.447142 0.000000 0.000000
0.375000 0.000000 0.663388
0.375000 0.075000 -0.031490
0.375000 0.116062 0.000000
0.408857 0.075000 0.000000
0.375000 0.075000 0.649758
0.429489 0.075000 0.600000
0.375000 0.150000 0.028621
0.375000 0.192492 0.075000
0.441806 0.150000 0.075000
0.375000 0.219420 0.450000
0.375000 0.188230 0.525000
0.375000 0.150000 0.604356
0.375000 0.154070 0.600000
0.381595 0.150000 0.600000
0.375000 0.225000 0.137850
0.375000 0.229352 0.150000
0.416773 0.225000 0.150000
0.375000 0.248880 0.225000
0.375000 0.251753 0.300000
0.375000 0.225000 0.435631
0.375000 0.248129 0.375000
0.450000 -0.319199 0.225000
0.450000 -0.326841 0.300000
0.450000 -0.327141 0.375000
0.450000 -0.302520 0.450000
0.450000 -0.239939 0.075000
0.450000 -0.300000 0.154203
0.450000 -0.298558 0.150000
0.450000 -0.300000 0.454237
0.464385 -0.300000 0.450000
0.450000 -0.252152 0.525000
0.450000 -0.225000 0.060440
0.476683 -0.225000 0.075000
0.450000 -0.225000 0.555745
0.519720 -0.225000 0.525000
0.450000 -0.150000 0.017221
0.450000 -0.084897 0.000000
0.450000 -0.150000 0.589175
0.450000 -0.108938 0.600000
0.450000 -0.075000 -0.002686
0.450000 -0.033134 0.000000
0.453533 -0.075000 0.000000
0.450000 -0.075000 0.609192
0.469096 -0.075000 0.600000
0.450000 0.000000 0.002154
0.450000 0.000000 0.606999
0.450000 0.019989 0.600000
0.464443 0.000000 0.600000
0.450000 0.075000 0.032199
0.450000 0.143077 0.075000
0.450000 0.075000 0.580724
0.450000 0.150000 0.080464
0.450000 0.219744 0.150000
0.450000 0.217305 0.450000
0.450000 0.150000 0.554815
0.450000 0.176051 0.525000
0.450000 0.225000 0.158614
0.450000 0.251394 0.225000
0.450000 0.259957 0.300000
0.450000 0.225000 0.434834
0.450000 0.253228 0.375000
0.525000 -0.310358 0.225000
0.525000 -0.333988 0.300000
0.525000 -0.326594 0.375000
0.525000 -0.300000 0.204137
0.525000 -0.269455 0.150000
0.549081 -0.300000 0.225000
0.590979 -0.300000 0.300000
0.525000 -0.300000 0.430001
0.525000 -0.288816 0.450000
0.525000 -0.225000 0.101971
0.525000 -0.184956 0.075000
0.525000 -0.225000 0.522827
0.525000 -0.220216 0.525000
0.535067 -0.225000 0.525000
0.525000 -0.150000 0.056212
0.579349 -0.150000 0.075000
0.525000 -0.150000 0.551842
0.525000 -0.075000 0.047230
0.592344 -0.075000 0.075000
0.525000 -0.075000 0.575201
0.525000 0.000000 0.047266
0.598141 0.000000 0.075000
0.525000 0.000000 0.575203
0.525000 0.075000 0.069273
0.525000 0.084716 0.075000
0.550281 0.075000 0.075000
0.525000 0.075000 0.554154
0.525000 0.150000 0.124858
0.525000 0.176415 0.150000
0.525000 0.210110 0.450000
0.525000 0.150000 0.534009
0.525000 0.159771 0.525000
0.525000 0.225000 0.201390
0.525000 0.242048 0.225000
0.554628 0.225000 0.225000
0.525000 0.260637 0.300000
0.525000 0.225000 0.427012
0.525000 0.254170 0.375000
0.600000 -0.308299 0.375000
0.600000 -0.238318 0.150000
0.600000 -0.278366 0.225000
0.600000 -0.300000 0.326343
0.600000 -0.295276 0.300000
0.600000 -0.300000 0.419068
0.620837 -0.300000 0.375000
0.600000 -0.293182 0.450000
0.600000 -0.238120 0.525000
0.600000 -0.225000 0.136451
0.629974 -0.225000 0.150000
0.600000 -0.225000 0.537265
0.600000 -0.150000 0.083097
0.600000 -0.150000 0.567773
0.600000 -0.075000 0.078079
0.600000 -0.075000 0.588924
0.600000 0.000000 0.075675
0.600000 0.000000 0.596992
0.618185 0.000000 0.600000
0.600000 0.075000 0.088337
0.600000 0.075000 0.569886
0.600000 0.150000 0.147811
0.600000 0.152343 0.150000
0.604696 0.150000 0.150000
0.600000 0.196539 0.225000
0.669051 0.150000 0.225000
0.600000 0.213304 0.450000
0.600000 0.150000 0.537854
0.600000 0.162797 0.525000
0.600000 0.225000 0.298771
0.600000 0.225472 0.300000
0.600637 0.225000 0.300000
0.600000 0.225000 0.420983
0.600000 0.241174 0.375000
0.627660 0.225000 0.375000
0.675000 -0.246830 0.225000
0.675000 -0.265563 0.300000
0.675000 -0.274202 0.375000
0.675000 -0.263268 0.450000
0.675000 -0.234491 0.525000
0.675000 -0.225000 0.184680
0.675000 -0.194754 0.150000
0.696139 -0.225000 0.225000
0.719133 -0.225000 0.300000
0.737436 -0.225000 0.375000
0.729485 -0.225000 0.450000
0.675000 -0.225000 0.533192
0.687532 -0.225000 0.525000
0.675000 -0.150000 0.121388
0.701884 -0.150000 0.150000
0.730452 -0.150000 0.225000
0.675000 -0.150000 0.566693
0.675000 -0.075000 0.111422
0.719801 -0.075000 0.150000
0.675000 -0.075000 0.589375
0.675000 -0.035312 0.600000
0.675000 0.000000 0.107826
0.722584 0.000000 0.150000
0.749646 0.000000 0.225000
0.675000 0.000000 0.609451
0.675000 0.021859 0.600000
0.694596 0.000000 0.600000
0.675000 0.075000 0.120679
0.675000 0.108775 0.150000
0.701109 0.075000 0.150000
0.675000 0.145715 0.225000
0.732912 0.075000 0.225000
0.675000 0.075000 0.573551
0.740876 0.075000 0.525000
0.675000 0.150000 0.237737
0.675000 0.169618 0.300000
0.698918 0.150000 0.300000
0.675000 0.193296 0.375000
0.730010 0.150000 0.375000
0.675000 0.184317 0.450000
0.718608 0.150000 0.450000
0.675000 0.150000 0.533499
0.675000 0.158778 0.525000
0.684384 0.150000 0.525000
0.750000 -0.151346 0.300000
0.750000 -0.194039 0.375000
0.750000 -0.186371 0.450000
0.750000 -0.163900 0.525000
0.750000 -0.150000 0.298073
0.750000 -0.091373 0.225000
0.750495 -0.150000 0.300000
0.762237 -0.150000 0.375000
0.761095 -0.150000 0.450000
0.750000 -0.150000 0.534926
0.759357 -0.150000 0.525000
0.750000 -0.075000 0.211717
0.750000 -0.004904 0.225000
0.755259 -0.075000 0.225000
0.777254 -0.075000 0.300000
0.793431 -0.075000 0.375000
0.785858 -0.075000 0.450000
0.750000 -0.075000 0.566079
0.786583 -0.075000 0.525000
0.750000 0.000000 0.226438
0.768232 0.000000 0.300000
0.785835 0.000000 0.375000
0.789581 0.000000 0.450000
0.750000 0.000000 0.565014
0.750000 0.062965 0.525000
0.782895 0.000000 0.525000
0.750000 0.075000 0.289790
0.750000 0.080135 0.300000
0.752616 0.075000 0.300000
0.750000 0.116306 0.375000
0.767302 0.075000 0.375000
0.750000 0.075000 0.499250
0.750000 0.101676 0.450000
0.762124 0.075000 0.450000
3 30 19 0
3 19 32 0
3 38 30 0
3 1 38 0
3 32 40 1
3 0 32 1
3 38 1 41
3 1 40 41
3 57 47 2
3 47 48 3
3 2 47 3
3 48 49 4
3 3 48 4
3 49 60 4
3 73 55 5
3 55 58 6
3 5 55 6
3 58 57 2
3 58 2 6
3 6 2 7
3 2 3 7
3 3 8 7
3 3 4 8
3 4 9 8
3 60 61 10
3 60 10 4
3 4 10 9
3 61 75 10
3 79 65 11
3 65 67 12
3 11 65 12
3 67 69 13
3 12 67 13
3 69 71 14
3 13 69 14
3 71 81 14
3 84 73 5
3 15 84 5
3 5 6 15
3 6 16 15
3 6 7 16
3 7 17 16
3 7 8 17
3 8 18 17
3 8 9 18
3 9 20 18
3 9 10 20
3 10 21 20
3 75 87 21
3 10 75 21
3 91 79 11
3 22 91 11
3 11 12 22
3 12 23 22
3 12 13 23
3 13 24 23
3 13 14 24
3 14 25 24
3 81 95 25
3 14 81 25
3 85 84 15
3 85 15 26
3 26 15 27
3 15 16 27
3 16 28 27
3 16 17 28
3 17 29 28
3 17 18 29
3 18 31 29
3 30 20 19
3 30 31 20
3 31 18 20
3 19 33 32
3 19 20 33
3 20 21 33
3 87 100 33
3 21 87 33
3 91 22 93
3 22 23 94
3 93 22 94
3 107 94 23
3 107 23 34
3 34 23 24
3 96 109 34
3 96 34 25
3 25 34 24
3 25 95 96
3 112 99 26
3 112 26 35
3 35 26 27
3 27 28 35
3 28 36 35
3 28 29 36
3 29 37 36
3 29 31 37
3 31 39 37
3 31 38 39
3 30 38 31
3 42 32 33
3 40 32 42
3 100 116 42
3 33 100 42
3 112 35 114
3 35 36 115
3 114 35 115
3 124 115 36
3 124 36 43
3 43 36 37
3 37 39 43
3 39 44 43
3 41 39 38
3 41 45 39
3 45 44 39
3 40 45 41
3 40 42 45
3 42 46 45
3 116 129 46
3 42 116 46
3 124 43 126
3 43 44 127
3 126 43 127
3 44 45 128
3 127 44 128
3 45 46 130
3 128 45 130
3 46 129 130
3 131 132 51
3 50 131 51
3 132 133 52
3 51 132 52
3 133 134 53
3 52 133 53
3 134 135 54
3 53 134 54
3 135 144 54
3 149 136 56
3 136 137 59
3 56 136 59
3 57 59 137
3 57 137 47
3 47 137 138
3 138 139 47
3 47 139 48
3 139 140 48
3 48 140 49
3 62 60 49
3 62 49 141
3 141 49 140
3 141 153 62
3 156 142 50
3 63 156 50
3 50 51 63
3 51 64 63
3 51 52 64
3 52 66 64
3 52 53 66
3 53 68 66
3 53 54 68
3 54 70 68
3 144 145 72
3 144 72 54
3 54 72 70
3 145 159 72
3 163 150 74
3 56 55 73
3 149 56 73
3 149 73 74
3 149 74 150
3 59 55 56
3 58 55 59
3 59 57 58
3 62 61 60
3 61 76 75
3 62 76 61
3 62 154 76
3 62 153 154
3 154 166 76
3 168 157 77
3 157 156 63
3 157 63 77
3 77 63 78
3 63 64 78
3 64 80 78
3 79 66 65
3 79 80 66
3 80 64 66
3 68 65 66
3 67 65 68
3 70 67 68
3 69 67 70
3 72 69 70
3 71 69 72
3 71 82 81
3 72 82 71
3 72 160 82
3 72 159 160
3 160 170 82
3 171 164 83
3 164 163 74
3 164 74 83
3 83 74 86
3 74 84 86
3 73 84 74
3 88 75 76
3 87 75 88
3 166 174 88
3 76 166 88
3 177 168 77
3 89 177 77
3 77 78 89
3 78 90 89
3 78 80 90
3 80 92 90
3 80 91 92
3 79 91 80
3 97 81 82
3 95 81 97
3 170 179 97
3 82 170 97
3 171 83 173
3 173 98 182
3 173 86 98
3 173 83 86
3 85 98 86
3 86 84 85
3 101 87 88
3 100 87 101
3 174 175 102
3 174 102 88
3 88 102 101
3 175 184 102
3 186 177 89
3 103 186 89
3 89 90 103
3 90 104 103
3 90 92 104
3 92 105 104
3 93 92 91
3 93 106 92
3 106 105 92
3 94 106 93
3 108 106 94
3 94 107 108
3 96 111 109
3 111 180 189
3 96 180 111
3 96 97 180
3 96 95 97
3 97 179 180
3 99 113 193
3 99 193 98
3 98 193 182
3 99 112 113
3 117 100 101
3 116 100 117
3 185 196 117
3 185 117 102
3 102 117 101
3 102 184 185
3 199 188 103
3 199 103 118
3 118 103 104
3 104 105 118
3 105 119 118
3 105 106 119
3 106 120 119
3 106 108 120
3 108 121 120
3 110 108 107
3 110 122 108
3 122 121 108
3 122 190 205
3 110 190 122
3 110 111 190
3 110 109 111
3 111 189 190
3 193 113 195
3 209 114 123
3 195 114 209
3 195 112 114
3 195 113 112
3 115 123 114
3 125 123 115
3 115 124 125
3 197 116 117
3 197 216 116
3 216 129 116
3 117 196 197
3 199 118 201
3 118 119 202
3 201 118 202
3 119 120 203
3 202 119 203
3 120 121 204
3 203 120 204
3 121 122 206
3 204 121 206
3 122 205 206
3 209 123 211
3 123 125 212
3 211 123 212
3 125 124 126
3 125 126 212
3 212 126 213
3 213 126 214
3 126 127 214
3 214 127 215
3 127 128 215
3 215 128 217
3 128 130 217
3 217 130 129
3 216 217 129
3 235 219 143
3 142 143 219
3 142 219 131
3 131 219 220
3 220 221 131
3 131 221 132
3 221 222 132
3 132 222 133
3 222 223 133
3 133 223 134
3 223 224 134
3 134 224 135
3 146 144 135
3 146 135 225
3 225 135 224
3 225 226 147
3 146 225 147
3 226 238 147
3 239 227 148
3 227 228 151
3 148 227 151
3 149 151 228
3 149 228 136
3 136 228 229
3 229 230 136
3 136 230 137
3 242 152 138
3 242 138 230
3 230 138 137
3 152 244 231
3 152 231 138
3 138 231 139
3 231 232 139
3 139 232 140
3 232 233 140
3 140 233 141
3 155 153 141
3 155 141 234
3 234 141 233
3 234 248 155
3 251 235 143
3 158 251 143
3 143 156 158
3 142 156 143
3 146 145 144
3 145 161 159
3 145 146 161
3 146 147 161
3 238 240 162
3 238 162 147
3 147 162 161
3 240 239 148
3 240 148 162
3 162 148 165
3 163 151 150
3 163 165 151
3 165 148 151
3 151 149 150
3 155 154 153
3 154 167 166
3 155 167 154
3 155 249 167
3 155 248 249
3 249 256 167
3 158 157 168
3 251 158 168
3 251 168 169
3 251 169 252
3 158 156 157
3 161 160 159
3 160 172 170
3 160 161 172
3 161 162 172
3 171 165 164
3 171 172 165
3 172 162 165
3 165 163 164
3 176 166 167
3 174 166 176
3 256 261 176
3 167 256 176
3 263 258 169
3 178 263 169
3 169 177 178
3 168 177 169
3 181 170 172
3 179 170 181
3 173 172 171
3 173 183 172
3 183 181 172
3 176 175 174
3 175 176 261
3 175 261 184
3 184 261 267
3 269 263 178
3 187 269 178
3 178 186 187
3 177 186 178
3 180 191 189
3 179 191 180
3 179 181 191
3 181 192 191
3 181 183 192
3 183 194 192
3 183 193 194
3 182 193 183
3 185 198 196
3 198 185 184
3 198 184 277
3 277 184 267
3 269 187 271
3 279 188 200
3 271 188 279
3 271 186 188
3 271 187 186
3 188 199 200
3 190 207 205
3 189 207 190
3 189 191 207
3 191 208 207
3 273 290 208
3 273 208 192
3 192 208 191
3 192 194 274
3 273 192 274
3 293 195 210
3 274 195 293
3 274 193 195
3 274 194 193
3 195 209 210
3 197 218 216
3 218 278 305
3 197 278 218
3 197 198 278
3 197 196 198
3 198 277 278
3 279 200 281
3 200 199 201
3 200 201 281
3 281 201 282
3 282 201 283
3 201 202 283
3 283 202 285
3 202 203 285
3 285 203 287
3 203 204 287
3 287 204 288
3 204 206 288
3 205 207 289
3 205 289 206
3 206 289 288
3 207 208 291
3 289 207 291
3 208 290 291
3 293 210 295
3 210 209 211
3 210 211 295
3 295 211 296
3 296 211 297
3 211 212 297
3 297 212 299
3 212 213 299
3 299 213 301
3 213 214 301
3 301 214 303
3 214 215 303
3 303 215 304
3 215 217 304
3 216 218 306
3 216 306 217
3 217 306 304
3 218 305 306
3 235 324 308
3 219 235 308
3 308 309 219
3 219 309 220
3 327 236 221
3 327 221 309
3 309 221 220
3 222 221 236
3 237 222 236
3 237 330 310
3 237 310 222
3 222 310 223
3 310 311 223
3 223 311 224
3 311 312 224
3 224 312 225
3 312 314 225
3 225 314 226
3 241 238 226
3 241 226 316
3 316 226 314
3 239 241 316
3 239 316 227
3 227 316 318
3 318 319 227
3 227 319 228
3 319 320 228
3 228 320 229
3 333 243 230
3 333 230 320
3 320 230 229
3 230 243 242
3 231 244 246
3 232 231 246
3 247 232 246
3 247 336 321
3 247 321 232
3 232 321 233
3 321 322 233
3 233 322 234
3 250 248 234
3 250 234 323
3 323 234 322
3 323 338 250
3 340 325 253
3 325 251 253
3 325 324 251
3 324 235 251
3 327 329 236
3 236 331 237
3 329 331 236
3 237 331 330
3 241 240 238
3 241 239 240
3 333 335 243
3 343 254 245
3 335 343 245
3 335 245 242
3 335 242 243
3 244 245 254
3 244 254 246
3 246 254 255
3 337 255 345
3 337 247 255
3 247 246 255
3 247 337 336
3 250 249 248
3 249 257 256
3 250 257 249
3 250 339 257
3 250 338 339
3 339 347 257
3 253 252 258
3 253 258 340
3 340 258 348
3 253 251 252
3 353 254 343
3 259 254 353
3 254 259 255
3 255 259 260
3 345 260 355
3 255 260 345
3 262 256 257
3 261 256 262
3 347 357 262
3 257 347 262
3 358 349 264
3 349 263 264
3 349 348 263
3 348 258 263
3 268 261 262
3 267 261 268
3 357 366 268
3 262 357 268
3 368 358 264
3 270 368 264
3 264 269 270
3 263 269 264
3 359 272 371
3 374 265 362
3 275 265 374
3 265 275 266
3 266 275 276
3 367 267 268
3 367 379 267
3 379 277 267
3 268 366 367
3 368 270 369
3 380 271 280
3 369 271 380
3 369 269 271
3 369 270 269
3 271 279 280
3 383 272 370
3 284 272 383
3 371 286 372
3 371 272 286
3 272 284 286
3 372 286 386
3 273 292 290
3 274 292 273
3 294 292 274
3 395 298 375
3 375 275 374
3 375 298 275
3 298 300 275
3 275 300 276
3 276 300 302
3 377 302 398
3 276 302 377
3 278 307 305
3 307 278 277
3 307 277 404
3 404 277 379
3 380 280 381
3 280 279 281
3 280 281 381
3 381 281 382
3 382 281 384
3 281 282 384
3 284 383 384
3 284 384 283
3 283 384 282
3 286 284 283
3 285 286 283
3 386 286 285
3 386 285 387
3 387 285 287
3 387 287 389
3 287 288 389
3 389 288 390
3 288 289 390
3 390 289 391
3 289 291 391
3 290 292 392
3 290 392 291
3 291 392 391
3 292 294 393
3 392 292 393
3 294 293 295
3 294 295 393
3 393 295 394
3 394 295 396
3 295 296 396
3 298 395 396
3 298 396 297
3 297 396 296
3 300 298 297
3 299 300 297
3 302 300 299
3 301 302 299
3 398 302 301
3 398 301 399
3 399 301 303
3 399 303 401
3 303 304 401
3 401 304 403
3 304 306 403
3 305 307 405
3 305 405 306
3 306 405 403
3 307 404 405
3 411 406 313
3 406 407 315
3 313 406 315
3 407 408 317
3 315 407 317
3 408 413 317
3 419 409 326
3 324 326 409
3 324 409 308
3 308 409 410
3 420 328 309
3 420 309 410
3 410 309 308
3 309 328 327
3 332 422 412
3 332 412 310
3 310 412 311
3 313 412 411
3 313 312 412
3 312 311 412
3 315 312 313
3 314 312 315
3 317 314 315
3 316 314 317
3 413 316 317
3 413 414 316
3 414 318 316
3 414 415 318
3 318 415 319
3 424 334 320
3 424 320 415
3 415 320 319
3 320 334 333
3 336 427 416
3 321 336 416
3 416 417 321
3 321 417 322
3 417 418 322
3 322 418 323
3 323 418 429
3 338 323 429
3 326 325 340
3 326 340 419
3 419 340 431
3 326 324 325
3 420 421 328
3 434 341 329
3 421 434 329
3 421 329 327
3 421 327 328
3 331 329 341
3 342 331 341
3 342 436 423
3 331 342 423
3 331 423 332
3 331 332 330
3 332 423 422
3 424 426 334
3 437 344 335
3 426 437 335
3 426 335 333
3 426 333 334
3 337 345 346
3 346 336 337
3 346 439 336
3 439 427 336
3 429 339 338
3 430 339 429
3 339 430 441
3 347 339 441
3 442 432 350
3 432 348 350
3 432 431 348
3 431 340 348
3 443 341 434
3 351 341 443
3 341 351 342
3 342 351 352
3 436 352 445
3 342 352 436
3 446 344 437
3 354 344 446
3 344 354 353
3 343 344 353
3 356 346 345
3 355 356 345
3 439 356 447
3 346 356 439
3 441 448 347
3 448 357 347
3 350 349 358
3 350 358 442
3 442 358 449
3 350 348 349
3 451 351 443
3 360 351 451
3 351 360 352
3 352 360 361
3 445 361 453
3 352 361 445
3 454 354 446
3 363 354 454
3 354 363 362
3 353 354 362
3 365 356 355
3 364 365 355
3 447 365 456
3 356 365 447
3 448 457 357
3 457 366 357
3 449 358 459
3 459 358 368
3 360 370 359
3 360 451 370
3 451 461 370
3 359 371 373
3 359 373 360
3 360 373 361
3 453 373 464
3 361 373 453
3 466 363 454
3 376 363 466
3 363 376 374
3 362 363 374
3 378 365 364
3 377 378 364
3 456 378 469
3 365 378 456
3 379 458 472
3 367 458 379
3 458 367 366
3 457 458 366
3 459 368 369
3 460 459 369
3 369 474 460
3 380 474 369
3 477 385 462
3 462 385 383
3 462 383 461
3 461 383 370
3 373 371 372
3 372 386 388
3 373 372 388
3 373 388 465
3 373 465 464
3 465 388 480
3 486 397 467
3 376 395 375
3 466 395 376
3 466 397 395
3 466 467 397
3 376 375 374
3 400 378 377
3 398 400 377
3 469 402 470
3 469 378 402
3 378 400 402
3 470 402 488
3 472 490 379
3 490 404 379
3 474 380 381
3 476 474 381
3 476 381 478
3 381 382 478
3 385 477 478
3 385 478 384
3 384 478 382
3 385 384 383
3 388 386 387
3 480 388 387
3 480 387 481
3 481 387 389
3 481 389 482
3 389 390 482
3 482 390 483
3 390 391 483
3 483 391 484
3 391 392 484
3 484 392 485
3 392 393 485
3 485 393 487
3 393 394 487
3 397 486 487
3 397 487 396
3 396 487 394
3 397 396 395
3 400 398 399
3 402 400 399
3 401 402 399
3 488 402 401
3 488 401 489
3 489 401 403
3 489 403 491
3 403 405 491
3 491 405 404
3 490 491 404
3 411 500 495
3 406 411 495
3 495 496 406
3 406 496 407
3 496 497 407
3 407 497 408
3 408 497 502
3 413 408 502
3 419 506 498
3 409 419 498
3 498 499 409
3 409 499 410
3 410 499 508
3 420 410 508
3 422 510 501
3 412 422 501
3 501 411 412
3 500 411 501
3 502 414 413
3 503 414 502
3 513 425 415
3 513 415 503
3 503 415 414
3 415 425 424
3 428 516 504
3 428 504 416
3 416 504 417
3 504 505 417
3 417 505 418
3 418 505 517
3 429 418 517
3 519 507 433
3 507 431 433
3 507 506 431
3 506 419 431
3 421 520 435
3 421 420 520
3 420 508 520
3 421 435 434
3 436 521 511
3 423 436 511
3 511 422 423
3 510 422 511
3 513 514 425
3 523 438 426
3 514 523 426
3 514 426 424
3 514 424 425
3 426 438 437
3 440 428 427
3 439 440 427
3 516 440 525
3 428 440 516
3 517 430 429
3 518 430 517
3 430 518 527
3 441 430 527
3 433 432 442
3 433 442 519
3 519 442 528
3 530 435 520
3 444 435 530
3 435 444 443
3 434 435 443
3 521 436 531
3 531 436 445
3 523 524 438
3 438 524 533
3 438 533 437
3 437 533 446
3 526 440 439
3 526 439 535
3 535 439 447
3 440 526 525
3 527 537 441
3 537 448 441
3 538 529 450
3 529 449 450
3 529 528 449
3 528 442 449
3 540 444 530
3 452 444 540
3 444 452 451
3 443 444 451
3 531 445 541
3 541 445 453
3 543 455 534
3 534 455 454
3 534 454 533
3 533 454 446
3 535 447 545
3 545 447 456
3 537 548 448
3 548 457 448
3 538 450 539
3 450 549 539
3 450 449 549
3 449 459 549
3 550 452 540
3 463 452 550
3 452 463 461
3 451 452 461
3 541 453 552
3 552 453 464
3 554 455 543
3 468 455 554
3 455 468 466
3 454 455 466
3 471 546 545
3 471 545 469
3 469 545 456
3 546 471 555
3 458 473 472
3 473 458 457
3 473 457 556
3 556 457 548
3 460 475 558
3 460 558 459
3 459 558 549
3 460 474 475
3 463 477 462
3 550 477 463
3 550 479 477
3 550 551 479
3 463 462 461
3 552 464 465
3 553 552 465
3 465 562 553
3 480 562 465
3 468 486 467
3 468 554 486
3 554 566 486
3 468 467 466
3 471 469 470
3 470 555 471
3 470 488 555
3 488 568 555
3 557 472 473
3 557 570 472
3 570 490 472
3 473 556 557
3 558 475 559
3 475 474 476
3 475 476 559
3 559 476 561
3 479 560 561
3 479 561 478
3 478 561 476
3 479 478 477
3 562 480 481
3 564 562 481
3 572 482 492
3 572 564 482
3 564 481 482
3 483 492 482
3 493 492 483
3 484 493 483
3 494 493 484
3 494 565 575
3 494 484 565
3 484 485 565
3 565 485 567
3 485 487 567
3 567 487 486
3 566 567 486
3 568 488 489
3 569 568 489
3 569 489 571
3 489 491 571
3 571 491 490
3 570 571 490
3 492 493 574
3 573 492 574
3 493 494 576
3 574 493 576
3 494 575 576
3 500 582 577
3 495 500 577
3 577 578 495
3 495 578 496
3 578 579 496
3 496 579 497
3 497 579 586
3 502 497 586
3 506 592 580
3 498 506 580
3 594 509 499
3 594 499 580
3 580 499 498
3 599 581 512
3 510 512 581
3 510 581 501
3 501 581 583
3 583 500 501
3 582 500 583
3 586 503 502
3 588 503 586
3 515 513 503
3 515 503 589
3 589 503 588
3 589 602 515
3 516 603 590
3 504 516 590
3 590 591 504
3 504 591 505
3 505 591 604
3 517 505 604
3 519 606 593
3 507 519 593
3 593 506 507
3 592 506 593
3 594 595 509
3 509 595 607
3 509 607 508
3 508 607 520
3 609 600 522
3 512 511 521
3 599 512 521
3 599 521 522
3 599 522 600
3 512 510 511
3 515 514 513
3 514 515 602
3 514 602 523
3 523 602 611
3 603 516 614
3 614 516 525
3 604 518 517
3 605 518 604
3 518 605 615
3 527 518 615
3 606 519 616
3 616 519 528
3 607 618 520
3 618 530 520
3 620 609 522
3 532 620 522
3 522 531 532
3 521 531 522
3 611 524 523
3 612 524 611
3 526 535 536
3 536 525 526
3 536 623 525
3 623 614 525
3 615 624 527
3 624 537 527
3 538 625 617
3 529 538 617
3 617 528 529
3 616 528 617
3 618 627 530
3 627 540 530
3 629 620 532
3 542 629 532
3 532 541 542
3 531 541 532
3 534 544 543
3 547 536 535
3 545 547 535
3 623 547 634
3 536 547 623
3 624 635 537
3 635 548 537
3 625 538 539
3 626 625 539
3 539 636 626
3 549 636 539
3 627 637 540
3 637 550 540
3 629 542 631
3 542 641 631
3 542 541 641
3 541 552 641
3 633 543 544
3 633 643 543
3 643 554 543
3 547 545 546
3 546 634 547
3 546 555 634
3 555 645 634
3 635 646 548
3 646 556 548
3 636 549 648
3 648 549 558
3 560 638 650
3 551 638 560
3 638 551 550
3 637 638 550
3 553 563 653
3 553 653 552
3 552 653 641
3 553 562 563
3 643 658 554
3 658 566 554
3 645 555 660
3 660 555 568
3 570 647 662
3 557 647 570
3 647 557 556
3 646 647 556
3 648 558 559
3 649 648 559
3 649 559 651
3 559 561 651
3 651 561 560
3 650 651 560
3 653 563 655
3 563 562 564
3 563 564 655
3 655 564 656
3 564 664 656
3 572 664 564
3 575 657 669
3 565 657 575
3 657 565 659
3 565 567 659
3 659 567 566
3 658 659 566
3 660 568 569
3 661 660 569
3 661 569 663
3 569 571 663
3 663 571 570
3 662 663 570
3 664 572 573
3 665 664 573
3 665 573 667
3 573 574 667
3 667 574 670
3 574 576 670
3 670 576 575
3 669 670 575
3 577 582 584
3 578 577 584
3 585 578 584
3 579 578 585
3 587 579 585
3 579 587 586
3 592 686 672
3 580 592 672
3 596 594 580
3 596 580 673
3 673 580 672
3 673 674 597
3 596 673 597
3 675 676 601
3 598 675 601
3 599 601 676
3 599 676 581
3 581 676 677
3 677 678 581
3 581 678 583
3 582 679 584
3 582 583 679
3 583 678 679
3 584 680 585
3 679 680 584
3 585 681 587
3 680 681 585
3 587 588 586
3 587 681 588
3 681 682 588
3 682 683 588
3 588 683 589
3 589 683 691
3 602 589 691
3 603 694 684
3 590 603 684
3 684 685 590
3 590 685 591
3 591 685 695
3 604 591 695
3 606 697 687
3 593 606 687
3 687 592 593
3 686 592 687
3 596 595 594
3 595 608 607
3 595 596 608
3 596 597 608
3 597 598 608
3 598 610 608
3 609 601 600
3 609 610 601
3 610 598 601
3 601 599 600
3 613 691 692
3 613 611 691
3 611 602 691
3 692 698 613
3 694 603 700
3 700 603 614
3 695 605 604
3 696 605 695
3 605 696 701
3 615 605 701
3 697 606 702
3 702 606 616
3 619 607 608
3 618 607 619
3 608 610 619
3 610 621 619
3 610 620 621
3 609 620 610
3 613 612 611
3 612 613 698
3 612 698 622
3 622 698 704
3 700 614 707
3 707 614 623
3 701 709 615
3 709 624 615
3 625 710 703
3 617 625 703
3 703 616 617
3 702 616 703
3 628 618 619
3 627 618 628
3 619 621 628
3 621 630 628
3 621 629 630
3 620 629 621
3 704 712 622
3 712 632 622
3 707 623 715
3 715 623 634
3 709 717 624
3 717 635 624
3 710 625 626
3 711 710 626
3 626 718 711
3 636 718 626
3 639 627 628
3 637 627 639
3 628 630 639
3 630 640 639
3 631 630 629
3 631 642 630
3 642 640 630
3 633 644 643
3 644 633 632
3 644 632 721
3 721 632 712
3 715 634 725
3 725 634 645
3 717 726 635
3 726 646 635
3 718 636 728
3 728 636 648
3 650 719 730
3 638 719 650
3 637 639 720
3 637 720 638
3 638 720 719
3 733 720 639
3 733 639 652
3 652 639 640
3 640 642 652
3 642 654 652
3 642 653 654
3 641 653 642
3 722 643 644
3 722 745 643
3 745 658 643
3 644 721 722
3 725 645 749
3 749 645 660
3 662 727 751
3 647 727 662
3 727 647 646
3 726 727 646
3 728 648 649
3 729 728 649
3 729 649 731
3 649 651 731
3 731 651 650
3 730 731 650
3 652 654 736
3 735 652 736
3 654 653 655
3 654 655 736
3 736 655 737
3 737 655 738
3 655 656 738
3 666 656 664
3 666 739 656
3 739 738 656
3 739 668 741
3 666 668 739
3 741 671 743
3 668 671 741
3 669 743 671
3 669 657 743
3 657 744 743
3 744 657 746
3 657 659 746
3 746 659 658
3 745 746 658
3 749 660 661
3 750 749 661
3 750 661 752
3 661 663 752
3 752 663 662
3 751 752 662
3 666 664 665
3 668 666 665
3 667 668 665
3 671 668 667
3 670 671 667
3 671 670 669
3 686 765 753
3 672 686 753
3 753 754 672
3 672 754 673
3 754 755 673
3 673 755 674
3 755 756 674
3 674 756 675
3 756 757 675
3 675 757 676
3 757 758 676
3 676 758 677
3 768 688 678
3 768 678 758
3 758 678 677
3 679 678 688
3 689 679 688
3 680 679 689
3 690 680 689
3 690 772 759
3 690 759 680
3 680 759 681
3 759 760 681
3 681 760 682
3 760 761 682
3 682 761 683
3 693 691 683
3 693 683 762
3 762 683 761
3 762 775 693
3 694 780 763
3 684 694 763
3 763 764 684
3 684 764 685
3 685 764 782
3 695 685 782
3 697 784 766
3 687 697 766
3 768 770 688
3 688 771 689
3 770 771 688
3 689 773 690
3 771 773 689
3 690 773 772
3 693 692 691
3 692 699 698
3 693 699 692
3 693 776 699
3 693 775 776
3 776 790 699
3 780 694 795
3 795 694 700
3 782 696 695
3 783 696 782
3 696 783 798
3 701 696 798
3 784 697 799
3 799 697 702
3 705 698 699
3 704 698 705
3 790 791 706
3 790 706 699
3 699 706 705
3 791 805 706
3 807 796 708
3 796 707 708
3 796 795 707
3 795 700 707
3 798 809 701
3 809 709 701
3 710 810 800
3 703 710 800
3 800 702 703
3 799 702 800
3 713 704 705
3 712 704 713
3 705 706 713
3 706 714 713
3 805 816 714
3 706 805 714
3 818 807 708
3 716 818 708
3 708 715 716
3 707 715 708
3 809 821 709
3 821 717 709
3 810 710 711
3 811 810 711
3 711 822 811
3 718 822 711
3 723 712 713
3 721 712 723
3 713 714 723
3 714 724 723
3 816 830 724
3 714 816 724
3 818 716 820
3 716 834 820
3 716 715 834
3 715 725 834
3 821 836 717
3 836 726 717
3 822 718 838
3 838 718 728
3 720 732 719
3 734 732 720
3 720 733 734
3 849 740 825
3 825 742 827
3 740 742 825
3 827 742 852
3 722 747 745
3 721 747 722
3 721 723 747
3 723 748 747
3 831 858 748
3 831 748 724
3 724 748 723
3 724 830 831
3 834 725 863
3 863 725 749
3 751 837 866
3 727 837 751
3 837 727 726
3 836 837 726
3 838 728 729
3 839 838 729
3 839 729 841
3 729 731 841
3 730 732 842
3 730 842 731
3 731 842 841
3 732 734 843
3 842 732 843
3 734 733 735
3 734 735 843
3 843 735 844
3 844 735 845
3 735 736 845
3 845 736 847
3 736 737 847
3 847 737 850
3 737 738 850
3 740 849 850
3 740 850 739
3 739 850 738
3 742 740 739
3 741 742 739
3 852 742 741
3 852 741 853
3 853 741 743
3 853 743 855
3 743 744 855
3 855 744 856
3 744 746 856
3 745 747 857
3 745 857 746
3 746 857 856
3 747 748 859
3 857 747 859
3 748 858 859
3 863 749 750
3 865 863 750
3 865 750 867
3 750 752 867
3 867 752 751
3 866 867 751
3 765 881 868
3 753 765 868
3 868 869 753
3 753 869 754
3 869 870 754
3 754 870 755
3 870 871 755
3 755 871 756
3 885 767 757
3 885 757 871
3 871 757 756
3 758 757 767
3 769 758 767
3 758 769 768
3 759 772 774
3 774 888 872
3 774 872 759
3 759 872 760
3 872 873 760
3 760 873 761
3 873 874 761
3 761 874 762
3 777 775 762
3 777 762 875
3 875 762 874
3 875 876 778
3 777 875 778
3 876 890 778
3 877 878 781
3 779 877 781
3 780 781 878
3 780 878 763
3 763 878 879
3 879 880 763
3 763 880 764
3 764 880 894
3 782 764 894
3 784 896 882
3 766 784 882
3 882 765 766
3 881 765 882
3 885 887 767
3 899 767 887
3 899 785 767
3 785 769 767
3 770 768 769
3 770 769 786
3 786 769 785
3 771 770 786
3 787 771 786
3 773 771 787
3 788 773 787
3 772 773 788
3 772 788 774
3 774 788 789
3 888 789 902
3 774 789 888
3 777 776 775
3 776 792 790
3 776 777 792
3 777 778 792
3 890 892 793
3 890 793 778
3 778 793 792
3 892 891 779
3 892 779 793
3 793 779 794
3 779 781 794
3 781 797 794
3 781 795 797
3 780 795 781
3 894 783 782
3 895 783 894
3 783 895 903
3 798 783 903
3 896 784 904
3 904 784 799
3 899 901 785
3 906 785 901
3 906 801 785
3 801 786 785
3 786 801 787
3 787 801 802
3 787 802 788
3 788 802 803
3 788 803 789
3 789 803 804
3 902 804 908
3 789 804 902
3 792 791 790
3 791 806 805
3 791 792 806
3 792 793 806
3 793 794 806
3 794 808 806
3 807 797 796
3 807 808 797
3 808 794 797
3 903 910 798
3 910 809 798
3 800 810 812
3 812 799 800
3 812 911 799
3 911 904 799
3 913 801 906
3 813 801 913
3 801 813 802
3 802 813 814
3 802 814 803
3 803 814 815
3 909 815 916
3 909 804 815
3 804 803 815
3 817 805 806
3 816 805 817
3 806 808 817
3 808 819 817
3 808 818 819
3 807 818 808
3 910 919 809
3 919 821 809
3 812 810 811
3 811 911 812
3 811 822 911
3 822 920 911
3 923 823 914
3 914 813 913
3 914 823 813
3 823 824 813
3 813 824 814
3 814 824 826
3 814 826 815
3 815 826 828
3 916 829 917
3 916 815 829
3 815 828 829
3 917 829 926
3 832 816 817
3 830 816 832
3 817 819 832
3 819 833 832
3 820 819 818
3 820 835 819
3 835 833 819
3 820 834 835
3 919 927 821
3 927 836 821
3 840 921 920
3 840 920 838
3 838 920 822
3 936 846 924
3 924 823 923
3 924 846 823
3 846 848 823
3 823 848 824
3 824 848 851
3 849 825 826
3 849 826 851
3 851 826 824
3 828 826 825
3 827 828 825
3 827 852 854
3 827 854 828
3 828 854 829
3 926 854 939
3 829 854 926
3 831 860 858
3 830 860 831
3 830 832 860
3 832 861 860
3 832 833 861
3 833 862 861
3 833 835 862
3 835 864 862
3 835 863 864
3 834 863 835
3 866 928 950
3 837 928 866
3 928 837 836
3 927 928 836
3 840 838 839
3 929 840 839
3 929 839 930
3 930 839 841
3 930 841 932
3 841 842 932
3 932 842 934
3 842 843 934
3 934 843 937
3 843 844 937
3 846 936 937
3 846 937 845
3 845 937 844
3 848 846 845
3 847 848 845
3 851 848 847
3 850 851 847
3 854 852 853
3 939 854 853
3 939 853 940
3 940 853 855
3 940 855 942
3 855 856 942
3 942 856 943
3 856 857 943
3 943 857 944
3 857 859 944
3 858 860 945
3 858 945 859
3 859 945 944
3 860 861 946
3 945 860 946
3 861 862 947
3 946 861 947
3 862 864 948
3 947 862 948
3 864 863 865
3 864 865 948
3 948 865 949
3 949 865 951
3 865 867 951
3 951 867 866
3 950 951 866
3 868 881 883
3 883 970 956
3 883 956 868
3 868 956 869
3 972 884 870
3 972 870 956
3 956 870 869
3 871 870 884
3 886 871 884
3 871 886 885
3 872 888 889
3 889 975 957
3 889 957 872
3 872 957 873
3 957 958 873
3 873 958 874
3 958 959 874
3 874 959 875
3 959 961 875
3 875 961 876
3 893 890 876
3 893 876 963
3 963 876 961
3 891 893 963
3 891 963 877
3 877 963 965
3 965 967 877
3 877 967 878
3 967 968 878
3 878 968 879
3 968 969 879
3 879 969 880
3 880 969 978
3 894 880 978
3 882 896 897
3 897 981 971
3 882 897 971
3 882 971 883
3 882 883 881
3 883 971 970
3 972 974 884
3 985 884 974
3 985 898 884
3 898 886 884
3 887 885 886
3 887 886 900
3 900 886 898
3 887 900 899
3 976 889 888
3 976 888 988
3 988 888 902
3 889 976 975
3 893 892 890
3 893 891 892
3 978 895 894
3 980 895 978
3 895 980 990
3 903 895 990
3 982 897 896
3 982 896 992
3 992 896 904
3 897 982 981
3 985 987 898
3 997 898 987
3 997 905 898
3 905 900 898
3 901 899 900
3 901 900 907
3 907 900 905
3 988 902 999
3 999 902 908
3 990 1001 903
3 1001 910 903
3 992 904 1003
3 1003 904 911
3 1008 905 997
3 912 905 1008
3 905 912 907
3 907 912 915
3 909 916 918
3 918 908 909
3 918 1011 908
3 1011 999 908
3 1001 1013 910
3 1013 919 910
3 1003 911 1015
3 1015 911 920
3 1022 922 1009
3 1009 912 1008
3 1009 922 912
3 922 925 912
3 923 914 915
3 923 915 925
3 925 915 912
3 918 916 917
3 917 1011 918
3 917 926 1011
3 926 1025 1011
3 1013 1028 919
3 1028 927 919
3 1015 920 921
3 1016 1015 921
3 931 921 929
3 931 1018 921
3 1018 1016 921
3 1018 933 1020
3 931 933 1018
3 1020 935 1023
3 933 935 1020
3 1023 922 1022
3 1023 935 922
3 935 938 922
3 936 924 925
3 936 925 938
3 938 925 922
3 925 924 923
3 941 1026 1025
3 941 1025 939
3 939 1025 926
3 1026 941 1031
3 950 1029 1037
3 928 1029 950
3 1029 928 927
3 1028 1029 927
3 931 929 930
3 933 931 930
3 932 933 930
3 935 933 932
3 934 935 932
3 938 935 934
3 937 938 934
3 941 939 940
3 1031 941 940
3 1031 940 1032
3 1032 940 942
3 1032 942 1034
3 942 943 1034
3 1039 944 952
3 1039 1034 944
3 1034 943 944
3 945 952 944
3 953 952 945
3 946 953 945
3 954 953 946
3 947 954 946
3 955 954 947
3 955 1035 1043
3 955 947 1035
3 947 948 1035
3 1035 948 1036
3 948 949 1036
3 1036 949 1038
3 949 951 1038
3 1038 951 950
3 1037 1038 950
3 1039 952 1040
3 952 953 1041
3 1040 952 1041
3 953 954 1042
3 1041 953 1042
3 1049 1045 960
3 1045 1046 962
3 960 1045 962
3 1046 1047 964
3 962 1046 964
3 1047 1048 966
3 964 1047 966
3 1048 1052 966
3 956 970 973
3 956 973 972
3 957 975 977
3 977 1056 1050
3 977 1050 957
3 957 1050 958
3 960 1050 1049
3 960 959 1050
3 959 958 1050
3 962 959 960
3 961 959 962
3 964 961 962
3 963 961 964
3 966 963 964
3 965 963 966
3 1052 965 966
3 1052 1053 965
3 1053 967 965
3 1053 1055 967
3 967 1055 968
3 1058 979 969
3 1058 969 1055
3 1055 969 968
3 969 979 978
3 971 981 983
3 970 971 983
3 970 983 973
3 973 983 984
3 974 972 973
3 974 973 986
3 986 973 984
3 974 986 985
3 976 988 989
3 989 1060 1057
3 976 989 1057
3 976 1057 977
3 976 977 975
3 977 1057 1056
3 1058 1059 979
3 1062 991 980
3 1059 1062 980
3 1059 980 978
3 1059 978 979
3 980 991 990
3 982 992 993
3 981 982 993
3 981 993 983
3 983 993 994
3 983 994 984
3 984 994 995
3 984 995 986
3 986 995 996
3 987 985 986
3 987 986 998
3 998 986 996
3 987 998 997
3 1000 989 988
3 999 1000 988
3 1060 1000 1064
3 989 1000 1060
3 1065 991 1062
3 1002 991 1065
3 991 1002 1001
3 990 991 1001
3 1004 993 992
3 1003 1004 992
3 993 1004 994
3 994 1004 1005
3 994 1005 995
3 995 1005 1006
3 995 1006 996
3 996 1006 1007
3 996 1007 998
3 998 1007 1010
3 998 1010 1008
3 997 998 1008
3 1012 1000 999
3 1011 1012 999
3 1064 1012 1066
3 1000 1012 1064
3 1068 1002 1065
3 1014 1002 1068
3 1002 1014 1013
3 1001 1002 1013
3 1017 1004 1003
3 1015 1017 1003
3 1004 1017 1005
3 1005 1017 1019
3 1005 1019 1006
3 1006 1019 1021
3 1006 1021 1007
3 1007 1021 1024
3 1022 1009 1010
3 1022 1010 1024
3 1024 1010 1007
3 1010 1009 1008
3 1027 1012 1011
3 1025 1027 1011
3 1066 1027 1069
3 1012 1027 1066
3 1072 1014 1068
3 1030 1014 1072
3 1014 1030 1028
3 1013 1014 1028
3 1017 1015 1016
3 1019 1017 1016
3 1018 1019 1016
3 1021 1019 1018
3 1020 1021 1018
3 1024 1021 1020
3 1023 1024 1020
3 1024 1023 1022
3 1027 1025 1026
3 1026 1031 1033
3 1027 1026 1033
3 1027 1033 1070
3 1027 1070 1069
3 1070 1033 1074
3 1030 1037 1029
3 1030 1072 1037
3 1072 1079 1037
3 1030 1029 1028
3 1033 1031 1032
3 1074 1033 1032
3 1074 1032 1075
3 1075 1032 1034
3 1034 1082 1075
3 1039 1082 1034
3 1043 1077 1087
3 1035 1077 1043
3 1077 1035 1078
3 1035 1036 1078
3 1078 1036 1080
3 1036 1038 1080
3 1080 1038 1037
3 1079 1080 1037
3 1082 1039 1040
3 1083 1082 1040
3 1083 1040 1085
3 1040 1041 1085
3 1085 1041 1086
3 1041 1042 1086
3 1086 1042 1088
3 1042 1044 1088
3 1088 1044 1043
3 1087 1088 1043
3 1045 1049 1051
3 1051 1094 1089
3 1051 1089 1045
3 1045 1089 1046
3 1089 1090 1046
3 1046 1090 1047
3 1090 1091 1047
3 1047 1091 1048
3 1054 1052 1048
3 1054 1048 1092
3 1092 1048 1091
3 1092 1096 1054
3 1056 1099 1093
3 1050 1056 1093
3 1049 1095 1051
3 1049 1050 1095
3 1050 1093 1095
3 1051 1095 1094
3 1096 1053 1054
3 1096 1098 1053
3 1098 1055 1053
3 1055 1098 1101
3 1058 1055 1101
3 1057 1060 1061
3 1061 1056 1057
3 1061 1103 1056
3 1103 1099 1056
3 1059 1105 1063
3 1059 1058 1105
3 1058 1101 1105
3 1059 1063 1062
3 1104 1061 1060
3 1104 1060 1107
3 1107 1060 1064
3 1061 1104 1103
3 1105 1106 1063
3 1063 1106 1110
3 1063 1110 1062
3 1062 1110 1065
3 1067 1108 1107
3 1067 1107 1066
3 1066 1107 1064
3 1108 1067 1112
3 1110 1113 1065
3 1113 1068 1065
3 1071 1067 1066
3 1069 1071 1066
3 1112 1071 1116
3 1067 1071 1112
3 1118 1073 1114
3 1114 1073 1072
3 1114 1072 1113
3 1113 1072 1068
3 1071 1069 1070
3 1070 1074 1076
3 1071 1070 1076
3 1071 1076 1117
3 1071 1117 1116
3 1117 1076 1119
3 1122 1073 1118
3 1081 1073 1122
3 1073 1081 1079
3 1072 1073 1079
3 1076 1074 1075
3 1075 1082 1084
3 1076 1075 1084
3 1076 1084 1120
3 1076 1120 1119
3 1120 1084 1124
3 1087 1121 1127
3 1077 1121 1087
3 1121 1077 1123
3 1077 1078 1123
3 1081 1122 1123
3 1081 1123 1080
3 1080 1123 1078
3 1084 1082 1083
3 1124 1084 1083
3 1124 1083 1125
3 1125 1083 1085
3 1125 1085 1126
3 1085 1086 1126
3 1126 1086 1128
3 1086 1088 1128
3 1128 1088 1087
3 1127 1128 1087
3 1094 1132 1129
3 1089 1094 1129
3 1129 1130 1089
3 1089 1130 1090
3 1130 1131 1090
3 1090 1131 1091
3 1136 1097 1092
3 1136 1092 1131
3 1131 1092 1091
3 1092 1097 1096
3 1093 1099 1100
3 1100 1138 1133
3 1100 1133 1093
3 1093 1133 1095
3 1133 1094 1095
3 1132 1094 1133
3 1136 1137 1097
3 1140 1102 1098
3 1137 1140 1098
3 1137 1098 1096
3 1137 1096 1097
3 1098 1102 1101
3 1139 1100 1099
3 1139 1099 1143
3 1143 1099 1103
3 1100 1139 1138
3 1102 1141 1145
3 1102 1145 1101
3 1101 1145 1105
3 1109 1103 1104
3 1109 1146 1103
3 1146 1143 1103
3 1106 1148 1111
3 1106 1105 1148
3 1105 1145 1148
3 1106 1111 1110
3 1108 1146 1109
3 1108 1112 1146
3 1112 1149 1146
3 1151 1111 1148
3 1115 1111 1151
3 1111 1115 1113
3 1110 1111 1113
3 1149 1112 1152
3 1152 1112 1116
3 1115 1118 1114
3 1115 1151 1118
3 1151 1155 1118
3 1152 1116 1117
3 1153 1152 1117
3 1117 1156 1153
3 1119 1156 1117
3 1155 1159 1118
3 1159 1122 1118
3 1156 1119 1120
3 1157 1156 1120
3 1120 1161 1157
3 1124 1161 1120
3 1127 1158 1165
3 1121 1158 1127
3 1158 1121 1160
3 1121 1123 1160
3 1160 1123 1122
3 1159 1160 1122
3 1161 1124 1125
3 1162 1161 1125
3 1162 1125 1164
3 1125 1126 1164
3 1164 1126 1166
3 1126 1128 1166
3 1166 1128 1127
3 1165 1166 1127
3 1129 1132 1134
3 1130 1129 1134
3 1135 1130 1134
3 1135 1170 1167
3 1135 1167 1130
3 1130 1167 1131
3 1131 1167 1172
3 1136 1131 1172
3 1138 1176 1168
3 1133 1138 1168
3 1132 1169 1134
3 1132 1133 1169
3 1133 1168 1169
3 1134 1171 1135
3 1169 1171 1134
3 1135 1171 1170
3 1172 1137 1136
3 1174 1137 1172
3 1142 1140 1137
3 1142 1137 1175
3 1175 1137 1174
3 1175 1178 1142
3 1139 1143 1144
3 1144 1138 1139
3 1144 1179 1138
3 1179 1176 1138
3 1141 1142 1178
3 1141 1178 1145
3 1145 1178 1180
3 1147 1144 1143
3 1146 1147 1143
3 1179 1147 1181
3 1144 1147 1179
3 1180 1182 1145
3 1182 1148 1145
3 1150 1147 1146
3 1149 1150 1146
3 1181 1150 1183
3 1147 1150 1181
3 1182 1184 1148
3 1184 1151 1148
3 1154 1150 1149
3 1152 1154 1149
3 1183 1154 1186
3 1150 1154 1183
3 1184 1187 1151
3 1187 1155 1151
3 1154 1152 1153
3 1153 1186 1154
3 1153 1156 1186
3 1156 1188 1186
3 1187 1194 1155
3 1194 1159 1155
3 1188 1156 1157
3 1189 1188 1157
3 1163 1157 1161
3 1163 1191 1157
3 1191 1189 1157
3 1191 1163 1196
3 1165 1193 1199
3 1158 1193 1165
3 1193 1158 1195
3 1158 1160 1195
3 1195 1160 1159
3 1194 1195 1159
3 1196 1163 1162
3 1196 1162 1197
3 1197 1162 1164
3 1197 1164 1200
3 1164 1166 1200
3 1200 1166 1165
3 1199 1200 1165
3 1168 1176 1177
3 1177 1207 1202
3 1177 1202 1168
3 1168 1202 1169
3 1202 1203 1169
3 1169 1203 1171
3 1170 1204 1173
3 1170 1171 1204
3 1171 1203 1204
3 1173 1174 1172
3 1173 1204 1174
3 1204 1205 1174
3 1205 1206 1174
3 1174 1206 1175
3 1175 1206 1213
3 1178 1175 1213
3 1208 1177 1176
3 1208 1176 1215
3 1215 1176 1179
3 1177 1208 1207
3 1213 1218 1178
3 1218 1180 1178
3 1215 1179 1219
3 1219 1179 1181
3 1218 1221 1180
3 1221 1182 1180
3 1219 1181 1223
3 1223 1181 1183
3 1185 1221 1222
3 1185 1184 1221
3 1184 1182 1221
3 1222 1226 1185
3 1223 1183 1229
3 1229 1183 1186
3 1227 1184 1185
3 1227 1234 1184
3 1234 1187 1184
3 1185 1226 1227
3 1190 1230 1229
3 1190 1229 1188
3 1188 1229 1186
3 1230 1192 1232
3 1190 1192 1230
3 1232 1192 1236
3 1234 1243 1187
3 1243 1194 1187
3 1190 1188 1189
3 1192 1190 1189
3 1191 1192 1189
3 1191 1196 1198
3 1192 1191 1198
3 1192 1198 1237
3 1192 1237 1236
3 1237 1201 1239
3 1198 1201 1237
3 1199 1239 1201
3 1199 1193 1239
3 1193 1241 1239
3 1241 1193 1244
3 1193 1195 1244
3 1244 1195 1194
3 1243 1244 1194
3 1202 1207 1209
3 1203 1202 1209
3 1210 1203 1209
3 1204 1203 1210
3 1211 1204 1210
3 1205 1204 1211
3 1212 1205 1211
3 1206 1205 1212
3 1214 1206 1212
3 1206 1214 1213
3 1208 1215 1216
3 1207 1208 1216
3 1207 1216 1209
3 1209 1216 1217
3 1246 1217 1250
3 1246 1210 1217
3 1210 1209 1217
3 1210 1247 1211
3 1246 1247 1210
3 1211 1248 1212
3 1247 1248 1211
3 1212 1249 1214
3 1248 1249 1212
3 1214 1249 1255
3 1214 1255 1213
3 1213 1255 1218
3 1220 1216 1215
3 1219 1220 1215
3 1251 1220 1257
3 1251 1217 1220
3 1217 1216 1220
3 1217 1251 1250
3 1255 1263 1218
3 1263 1221 1218
3 1224 1220 1219
3 1223 1224 1219
3 1257 1225 1258
3 1257 1220 1225
3 1220 1224 1225
3 1222 1269 1228
3 1222 1221 1269
3 1221 1263 1269
3 1222 1228 1226
3 1231 1224 1223
3 1229 1231 1223
3 1224 1231 1225
3 1225 1231 1233
3 1265 1233 1272
3 1225 1233 1265
3 1277 1235 1270
3 1228 1234 1227
3 1269 1234 1228
3 1269 1235 1234
3 1269 1270 1235
3 1228 1227 1226
3 1231 1229 1230
3 1233 1231 1230
3 1232 1233 1230
3 1232 1236 1238
3 1233 1232 1238
3 1233 1238 1273
3 1233 1273 1272
3 1273 1240 1275
3 1238 1240 1273
3 1275 1242 1278
3 1240 1242 1275
3 1278 1235 1277
3 1278 1242 1235
3 1242 1245 1235
3 1235 1245 1243
3 1234 1235 1243
3 1238 1236 1237
3 1240 1238 1237
3 1239 1240 1237
3 1242 1240 1239
3 1241 1242 1239
3 1245 1242 1241
3 1244 1245 1241
3 1247 1246 1252
3 1253 1247 1252
3 1248 1247 1253
3 1254 1248 1253
3 1249 1248 1254
3 1256 1249 1254
3 1249 1256 1255
3 1251 1257 1259
3 1250 1251 1259
3 1250 1259 1252
3 1252 1259 1260
3 1252 1260 1253
3 1253 1260 1261
3 1253 1261 1254
3 1254 1261 1262
3 1254 1262 1256
3 1256 1262 1264
3 1256 1264 1263
3 1255 1256 1263
3 1259 1257 1258
3 1258 1265 1266
3 1258 1266 1259
3 1259 1266 1260
3 1260 1266 1261
3 1261 1266 1267
3 1261 1267 1262
3 1262 1267 1268
3 1262 1268 1264
3 1264 1268 1271
3 1264 1271 1269
3 1263 1264 1269
3 1274 1266 1265
3 1272 1274 1265
3 1266 1274 1267
3 1267 1274 1276
3 1267 1276 1268
3 1268 1276 1279
3 1277 1270 1271
3 1277 1271 1279
3 1279 1271 1268
3 1271 1270 1269
3 1276 1274 1273
3 1275 1276 1273
3 1279 1276 1275
3 1278 1279 1275
