ply
format ascii 1.0
element vertex 512
property float x
property float y
property float z
property float nx
property float ny
property float nz
end_header
0.159888 0.252295 0.353919 -0.032365 -1.001515 0.023118
0.688543 -0.088975 -0.067551 -0.749466 0.272732 0.605950
-0.206856 -0.263756 0.314098 -0.092178 0.907130 0.416249
0.399094 -0.170113 -0.457188 -0.660480 0.569331 0.492218
0.263376 0.154350 -0.709952 -0.698464 -0.560436 0.448720
0.661614 -0.039286 0.499715 -0.087072 0.205820 -0.977399
-0.280943 -0.107738 0.155900 -0.084536 0.339528 0.939768
0.701069 0.098251 0.484285 -0.539298 -0.391092 -0.748448
-0.877470 -0.225656 0.269490 0.495803 0.872281 0.001936
0.048997 0.235081 0.431814 -0.182816 -0.771304 -0.615236
0.405472 -0.126594 -0.498499 -0.661155 0.569318 0.492176
0.053926 0.070414 -0.379501 0.822516 -0.054237 -0.570735
-0.136726 0.094122 0.180276 -0.026847 -0.460295 0.890056
0.626578 -0.297653 0.241895 -0.084488 0.993079 -0.102336
-0.339644 -0.169253 0.530746 -0.020183 0.318336 -0.950700
0.280399 0.188574 0.241088 -0.039017 -0.415725 0.910884
-0.975095 0.033375 0.228967 0.912733 -0.195993 0.369470
-0.261648 -0.207882 -1.077373 0.257072 0.840156 0.482034
0.226574 0.142158 -0.151650 0.696953 -0.353036 -0.628523
0.217477 0.157020 -0.813708 -0.609197 -0.732053 0.309892
0.460540 -0.270417 -0.164388 -0.276202 0.948969 0.165603
-0.300743 0.126904 -1.099542 0.955876 -0.214638 0.213564
0.585116 0.103447 -0.227100 -0.747010 -0.360551 0.562364
0.812368 -0.006642 0.401575 -0.685064 0.057686 -0.729184
0.537566 0.177929 0.507576 0.013490 -0.588534 -0.811194
0.086486 -0.119867 -0.364565 0.851111 0.284496 -0.447646
0.124906 0.095638 -0.270515 0.899302 -0.119300 -0.426481
-0.123462 -0.189388 0.238027 -0.194084 0.676224 0.713468
0.213326 -0.102565 -0.158141 0.716730 0.365922 -0.598919
-0.496837 -0.219091 0.197140 -0.180917 0.617072 0.768878
0.563130 -0.284683 -0.001586 0.040545 1.000011 0.044496
0.322807 -0.236659 0.297692 0.093443 0.850282 0.521471
0.608778 0.302840 0.200433 -0.148804 -0.978936 -0.151309
-0.734385 0.135716 0.118852 -0.075061 -0.418401 0.907734
0.707974 -0.193656 0.399056 -0.355605 0.727378 -0.590473
0.178982 -0.042305 -0.933146 -0.718841 0.318681 0.621052
0.372176 0.167711 0.189166 0.617313 -0.708141 0.350173
0.144377 0.044228 0.178714 -0.042291 0.031249 1.000521
-0.766777 -0.181736 0.136025 0.095675 0.653334 0.754875
-0.077897 0.244585 -1.033184 -0.060832 -0.827574 0.560764
-0.728297 -0.277005 0.426907 0.021439 0.934165 -0.364723
0.483780 0.254364 0.200890 0.659101 -0.746412 -0.117622
0.296669 0.191321 -0.611755 -0.657788 -0.618792 0.434394
-0.358186 0.050910 0.138347 -0.068608 -0.094067 0.995166
0.119345 0.065567 -1.013784 -0.892596 -0.035793 0.453005
-0.696513 0.269685 0.244980 -0.028464 -0.894546 0.452556
-0.816076 0.215345 0.166092 -0.052843 -0.652757 0.759063
0.014970 0.157504 -1.093280 -0.618889 -0.490424 0.615937
0.812394 -0.162171 0.267721 -0.964264 0.219081 0.156758
0.530396 -0.287007 0.075248 0.039713 1.000087 0.044165
0.170475 0.189366 0.236918 -0.039175 -0.413111 0.911881
0.534136 -0.280330 0.356196 0.010168 0.949836 -0.317158
0.063956 0.216583 -0.952575 -0.554650 -0.779201 0.297275
0.329640 -0.244863 -0.437186 -0.496914 0.785208 0.374481
-0.899717 -0.224084 0.439914 0.403850 0.819296 -0.415159
0.306824 -0.270801 -0.342267 -0.007535 0.989631 0.154917
-0.005772 -0.251807 0.293852 -0.118556 0.980618 0.167962
-0.323901 -0.281522 0.330291 -0.022069 0.993698 0.127568
0.083314 0.224590 -0.898597 -0.584047 -0.762580 0.284379
0.645696 0.082369 -0.144997 -0.862079 -0.120492 0.495201
0.285208 0.121460 -0.717309 -0.699418 -0.559455 0.447919
0.539483 -0.059720 -0.316617 -0.798689 0.234614 0.556797
0.642795 -0.042120 -0.145337 -0.864311 0.195825 0.467142
0.226492 0.127760 0.211889 -0.025208 -0.456356 0.891007
0.542472 0.294315 0.234731 0.377365 -0.928549 0.006626
-0.114480 0.032832 -0.610157 0.773016 -0.260177 -0.582942
-0.160867 -0.034575 0.169737 -0.041150 0.057374 0.999561
0.026698 0.253269 -0.695083 0.092622 -0.989322 -0.129616
-0.287332 0.086910 -0.932034 0.928223 -0.338687 -0.170742
-0.727132 0.117080 0.560526 -0.023063 -0.485286 -0.878341
-0.731991 -0.219724 0.499989 0.001229 0.589545 -0.811424
0.581674 0.097141 -0.233454 -0.741736 -0.338580 0.582135
0.723990 -0.254687 0.250193 -0.511378 0.857741 0.081230
0.701134 -0.071655 -0.056355 -0.811712 0.155353 0.565673
0.349048 -0.149676 0.507991 -0.012710 0.509402 -0.863495
-0.327802 0.053904 0.140527 -0.068443 -0.093927 0.995698
-0.500638 -0.286389 0.345209 -0.020583 0.997985 0.095217
0.086414 0.104142 -1.053927 -0.759777 -0.064760 0.649377
0.052743 -0.248085 -0.703334 -0.056074 0.950703 -0.310287
-0.054036 0.259595 -1.005400 -0.071050 -0.889338 0.456079
-0.759126 0.093305 0.094860 -0.076395 -0.070525 0.997162
0.235142 0.247388 0.397831 0.203894 -0.918977 -0.342926
-0.796402 -0.174904 0.526809 0.005083 0.526637 -0.853961
0.342356 0.244374 0.291396 0.144001 -0.911837 0.390387
-0.270469 0.173075 -0.959462 0.904680 -0.431822 -0.008529
-0.252234 0.219726 -1.052014 0.904860 -0.431529 -0.010340
-0.633630 0.288265 0.353130 0.019116 -1.002212 -0.031143
-0.951521 0.132106 0.376655 0.920564 -0.401316 0.003585
0.384506 0.110256 0.093323 0.895742 -0.427537 -0.145320
-0.566409 -0.291227 0.390694 -0.019086 0.997708 0.097515
-0.216873 0.079330 0.153890 -0.121845 -0.102350 0.989801
-0.202261 0.131160 -1.147026 0.213105 -0.523276 0.827744
-0.194256 -0.033775 0.574212 -0.009312 -0.016329 -1.003266
0.272638 0.222283 -0.611435 -0.716633 -0.553056 0.428248
0.113897 0.013436 0.560013 -0.281245 -0.089758 -0.958874
0.328301 0.224222 -0.496825 -0.570279 -0.747176 0.346081
0.367022 0.129289 0.022602 0.756847 -0.227496 -0.616739
0.019181 0.185577 0.510588 -0.077650 -0.477398 -0.878062
0.589025 -0.099679 0.494102 -0.086668 0.206429 -0.977453
-0.318224 0.043934 0.140699 -0.067335 -0.094135 0.995438
-0.928582 -0.175028 0.295243 0.726993 0.637046 0.269710
0.303515 0.165246 0.508167 0.122528 -0.536857 -0.838008
-0.087242 0.277553 0.377901 -0.050863 -0.982495 -0.191882
0.279601 0.238898 -0.209261 0.440630 -0.823976 -0.363505
-0.291264 0.132208 -0.990926 0.904893 -0.431410 -0.009288
-0.421352 0.251166 0.448738 -0.019602 -0.732185 -0.685973
0.231158 -0.122685 0.206280 -0.042839 0.409081 0.913734
0.327964 0.274091 0.370770 0.169784 -0.920246 -0.359360
0.528998 -0.248890 -0.151443 -0.605689 0.680165 0.415680
0.783472 0.196617 0.258755 -0.888834 -0.461132 0.024395
-0.212225 -0.228727 -1.066191 0.065880 0.901005 0.433181
0.105710 0.054231 0.179459 -0.031313 -0.008309 1.001558
-0.003064 0.220442 -0.627336 0.384015 -0.864966 -0.331322
0.319708 0.138853 0.529377 -0.032616 -0.107792 -0.996423
-0.281026 0.122295 -0.959499 0.928546 -0.337941 -0.170509
0.374796 0.117183 0.529914 -0.033183 -0.107999 -0.996439
-0.241636 -0.195012 -0.917306 0.646320 0.637958 -0.424411
0.523092 -0.129741 0.501872 -0.186079 0.495604 -0.851232
0.132031 0.129531 -0.970325 -0.833784 -0.312273 0.458800
-0.249682 0.069678 -1.150912 0.207365 -0.040357 0.979672
-0.115170 -0.229199 -1.078551 0.066842 0.900694 0.433467
-0.105659 0.253483 0.444953 -0.029373 -0.758788 -0.654815
-0.903201 -0.210490 0.336595 0.578073 0.819730 0.037055
0.128795 -0.257225 0.423391 0.063527 0.973614 -0.230645
-0.980482 -0.112088 0.472527 0.800295 0.282905 -0.536219
-0.138778 0.176625 0.520771 -0.034734 -0.474511 -0.882927
-0.694932 -0.037818 0.571353 -0.006731 -0.016877 -1.003674
0.270052 -0.159692 -0.681753 -0.726229 0.570876 0.386199
-0.824046 0.119485 0.096418 0.136110 -0.534594 0.837363
0.547963 0.258581 0.442415 -0.150734 -0.690676 -0.711096
-0.169373 -0.098299 -1.144769 0.008481 0.181677 0.984698
0.071903 -0.049472 0.179782 -0.046842 0.050899 0.999933
0.323669 -0.115349 -0.034376 0.695803 0.489082 -0.531227
-0.016109 -0.039653 -0.479427 0.810546 0.074332 -0.585835
0.180314 0.077625 0.185177 -0.024731 -0.457251 0.890881
-0.567490 0.153478 0.537642 -0.021793 -0.487056 -0.876936
-0.006948 0.125593 0.548317 -0.101062 -0.480807 -0.874614
-0.463712 -0.294383 0.385050 -0.040263 0.976829 -0.223567
0.129341 0.081430 -0.262723 0.830024 -0.044158 -0.560758
-0.947237 0.008157 0.529813 0.731456 -0.079948 -0.684910
0.634797 -0.152137 -0.104764 -0.749496 0.272518 0.605357
0.122391 -0.260285 -0.664325 -0.168609 0.982598 0.095296
-0.685307 0.091950 0.101580 -0.076938 -0.071617 0.996534
-0.307430 0.098692 -1.095892 0.956169 -0.214416 0.214818
0.331188 0.065932 0.156666 0.726695 0.038256 0.688961
0.298333 -0.238004 -0.197929 0.423159 0.861419 -0.288441
0.355454 0.212929 -0.068364 0.646624 -0.513733 -0.567969
0.070227 0.075770 -0.348492 0.809630 0.076165 -0.587064
0.320610 0.283520 -0.265167 -0.095387 -0.992056 0.102250
0.753491 0.188397 0.379271 -0.469456 -0.673680 -0.573862
0.390398 0.272580 -0.275066 -0.317945 -0.933617 0.176120
-0.580291 -0.192072 0.156321 -0.203457 0.607396 0.771232
-0.005768 -0.224458 0.481549 -0.022339 0.694499 -0.723212
-0.063511 0.200665 0.505692 -0.034418 -0.473560 -0.883790
0.142674 -0.210214 -0.868738 -0.531083 0.803524 0.275941
0.131855 -0.235129 -0.413689 0.641242 0.667756 -0.384180
-0.802698 0.115107 0.090539 0.135594 -0.534954 0.837223
0.603149 0.292802 0.050398 -0.177212 -0.981511 0.092864
-0.411109 0.190546 0.185995 -0.231245 -0.487672 0.844007
-0.072310 -0.168736 -0.659046 0.678576 0.667223 -0.315464
-0.717232 -0.272431 0.235034 0.018805 0.998015 0.086727
0.305004 0.243689 -0.494021 -0.571087 -0.746580 0.346466
0.256102 0.274626 -0.390017 -0.062217 -0.994210 0.109247
-0.649871 0.128460 0.552686 -0.032555 -0.446861 -0.897217
0.633329 0.205552 0.460002 -0.469773 -0.672751 -0.573770
-0.578995 0.044806 0.109569 -0.147038 -0.114219 0.985206
-0.212629 -0.246720 -1.023056 0.384670 0.841961 0.382232
-0.276539 0.083600 0.148677 -0.229420 -0.444398 0.869011
0.043005 0.167104 -1.057382 -0.619056 -0.490371 0.615851
-0.018453 -0.054406 -0.485357 0.810591 0.074666 -0.586086
0.769101 -0.186139 0.172026 -0.717892 0.613988 0.332841
-0.004114 -0.184691 -0.547404 0.676517 0.668376 -0.317711
0.075690 -0.102459 -0.375028 0.850732 0.284560 -0.447485
0.655091 0.113267 -0.114394 -0.795795 -0.255203 0.551880
0.333587 0.277416 -0.316225 -0.062460 -0.993398 0.109968
-0.217000 -0.232363 -1.047220 0.324860 0.863982 0.389491
0.256867 0.244258 0.414757 0.175916 -0.920994 -0.353685
0.220759 0.117169 0.515301 0.180820 -0.179728 -0.970077
-0.167489 -0.027531 0.575069 -0.018971 -0.153059 -0.991686
0.061193 0.246841 -0.887336 -0.584438 -0.762749 0.282434
-0.264565 -0.171235 0.186215 -0.241457 0.744456 0.625700
-0.216762 -0.070209 -0.763459 0.757051 0.206123 -0.624258
-0.134420 -0.022271 -1.159197 0.009472 0.182656 0.984856
-0.433061 -0.169662 0.534351 0.002883 0.495119 -0.873546
-0.023659 -0.236735 -0.743484 0.463148 0.867865 -0.192628
0.000788 0.218639 0.467101 -0.183301 -0.771248 -0.615079
-0.038528 -0.002832 -1.158819 -0.317344 -0.000392 0.950014
0.695127 -0.054602 -0.068579 -0.811509 0.155926 0.565917
-0.355542 0.184097 0.518867 -0.016654 -0.720685 -0.697072
0.495370 -0.282393 -0.002993 0.039946 1.000417 0.043463
-0.853182 -0.161566 0.131199 0.620168 0.569817 0.545168
0.552323 0.299032 0.131084 0.186023 -0.983882 0.036368
-0.074992 0.054327 0.558225 -0.014799 -0.171798 -0.988415
-0.679413 -0.261119 0.232825 -0.059122 0.866225 0.501229
0.189805 -0.253885 0.440117 -0.015655 0.769953 -0.641673
0.061980 -0.243357 0.294006 -0.118867 0.980877 0.168022
0.824915 -0.079215 0.251992 -0.983655 0.190805 -0.010525
0.612674 0.116352 -0.170502 -0.744787 -0.293055 0.602117
0.354073 -0.062007 -0.618023 -0.750962 0.317716 0.581283
0.226833 0.240791 -0.623686 -0.325199 -0.895657 0.308461
-0.001904 0.250781 -0.924069 -0.475398 -0.882195 0.001716
0.646868 0.039771 -0.154573 -0.862473 -0.121802 0.495133
-0.922693 0.028977 0.119115 0.527160 -0.121795 0.844856
-0.267926 -0.176671 -1.103614 0.418284 0.593409 0.691074
-0.318137 -0.116170 -1.072663 0.953077 0.303821 -0.074840
0.028932 -0.262165 -0.834116 -0.050569 1.000493 -0.016900
0.359746 -0.106557 0.022031 0.696070 0.487435 -0.531769
0.270541 0.060744 -0.786197 -0.871169 -0.223192 0.441316
0.430305 0.200621 -0.376045 -0.569742 -0.746740 0.347857
0.348097 -0.138489 -0.565962 -0.726259 0.571258 0.386983
0.431823 0.262005 -0.257914 -0.319211 -0.933067 0.176335
-0.227609 -0.262657 0.456426 -0.031550 0.689688 -0.727400
0.012363 0.038812 0.559748 -0.018635 -0.144106 -0.992440
-0.052901 -0.276294 0.376567 -0.040000 0.976004 -0.226367
-0.466386 -0.267599 0.465678 -0.031354 0.689718 -0.728241
0.034732 -0.124697 -0.435709 0.775112 0.301870 -0.560465
-0.780126 -0.057038 0.084311 -0.061852 0.312620 0.950954
0.203664 0.142635 -0.177661 0.696259 -0.353248 -0.629192
0.375720 -0.108981 0.042982 0.949335 0.320644 -0.043613
0.029750 -0.034043 -0.415850 0.806471 0.076409 -0.591835
-0.128775 -0.245155 0.282242 -0.098505 0.921903 0.381012
-0.741683 0.134940 0.550861 -0.022608 -0.487049 -0.877397
0.075123 -0.265788 0.395528 -0.037980 0.975776 -0.225198
0.194742 0.012895 0.181272 -0.041283 0.029261 1.000533
-0.006801 -0.060170 -0.469015 0.807292 0.075699 -0.590189
0.821102 -0.109357 0.251903 -0.997888 0.077398 0.031324
0.355881 -0.271153 -0.322858 -0.102025 0.993139 0.083795
-0.280558 0.157800 -1.052263 0.904759 -0.431451 -0.009180
-0.236420 -0.197755 -0.910718 0.646754 0.637542 -0.424150
-0.841056 0.120726 0.100611 0.135929 -0.534936 0.837139
-0.301710 0.168215 0.527557 -0.031904 -0.444624 -0.898945
0.257767 0.253596 -0.270070 0.440005 -0.824039 -0.363365
-0.517147 -0.260969 0.252983 -0.060952 0.867470 0.498566
0.353199 -0.232931 -0.113863 0.561873 0.676063 -0.481869
0.830052 -0.033590 0.262729 -1.000632 -0.037705 0.029127
-0.802654 -0.202626 0.160561 0.157779 0.691845 0.708945
-0.021484 0.111348 -0.506715 0.793853 -0.387050 -0.474282
-0.279452 0.259371 0.271872 -0.047693 -0.814415 0.582793
0.263980 -0.253955 0.436968 -0.016303 0.770734 -0.641164
-0.616879 -0.293005 0.400630 -0.035709 0.991853 -0.145293
-0.069812 0.121781 -1.141490 -0.166725 -0.420120 0.893817
0.820476 0.123239 0.241089 -0.888797 -0.461220 0.023864
0.187390 0.188677 0.237712 0.029232 -0.662933 0.750753
-0.277826 -0.257381 0.464757 -0.031309 0.689735 -0.727534
-0.969684 0.087220 0.326359 0.921671 -0.398333 0.005585
0.060887 -0.237198 -0.933906 -0.493626 0.839697 0.234800
-0.676661 -0.266152 0.245409 -0.059433 0.866172 0.501519
0.289754 -0.268230 0.353365 0.133262 0.875651 0.467845
-0.127514 0.204049 -0.755642 0.625511 -0.585545 -0.520020
0.378682 0.189508 0.221617 0.618041 -0.707890 0.350473
0.450008 0.079402 -0.468518 -0.826377 -0.244010 0.509801
-0.227582 -0.002035 -1.159404 0.207661 -0.040987 0.979563
0.282307 -0.130966 -0.092105 0.717935 0.332790 -0.615799
-0.831026 -0.153216 0.540115 0.004600 0.528558 -0.853365
0.631404 0.018202 -0.187652 -0.861519 -0.110698 0.498535
0.746174 -0.181197 0.111790 -0.717393 0.613560 0.332961
0.353843 -0.002986 0.054614 0.996886 -0.032366 -0.107037
-0.328830 -0.154749 0.543496 0.005769 0.530030 -0.851310
0.562035 -0.071652 -0.277094 -0.796556 0.233218 0.560286
-0.387149 -0.173961 0.531050 0.004971 0.530629 -0.851309
0.215510 0.007898 -0.136801 0.743113 -0.076217 -0.670449
0.196402 0.088198 0.190034 -0.025708 -0.456096 0.891422
0.147918 0.264944 -0.501536 0.128823 -0.991208 -0.071095
0.647628 0.172013 -0.095134 -0.793080 -0.256187 0.555162
-0.734563 -0.239051 0.195074 -0.034020 0.787483 0.619887
-0.049625 -0.103895 0.189292 -0.046391 0.431790 0.902905
-0.010987 0.264880 -0.803436 -0.186493 -0.982887 0.057308
-0.131851 -0.240636 0.471881 -0.032011 0.689943 -0.727611
0.482675 0.153919 0.523328 0.013111 -0.588343 -0.811464
-0.284966 0.240884 0.458042 -0.016459 -0.724193 -0.694099
-0.819034 0.051052 0.574151 0.002551 -0.045576 -1.002559
-0.207555 -0.247509 -0.989278 0.291692 0.956372 -0.058934
0.049976 0.263842 0.332268 -0.085304 -0.804259 0.591682
0.527840 -0.009044 -0.347043 -0.857481 0.044286 0.514858
-0.256989 0.136185 -1.130765 0.212369 -0.522942 0.828211
0.716507 -0.058260 0.489545 -0.086789 0.205564 -0.977251
0.828821 -0.049501 0.308772 -0.983639 0.190379 -0.011159
0.028374 0.116016 0.547994 -0.034304 -0.473376 -0.883541
-0.831415 -0.232105 0.490093 0.408574 0.816948 -0.416471
0.304787 -0.161075 0.500032 0.124886 0.523407 -0.846613
-0.224142 -0.080976 -0.776533 0.757422 0.204213 -0.625084
0.697546 0.240377 0.085843 -0.753268 -0.595755 0.285124
0.205784 0.216766 0.250049 0.041622 -0.899944 0.438144
-0.147470 0.263993 -0.925161 0.242730 -0.971635 -0.028007
0.427469 0.213222 0.036213 0.675205 -0.496952 -0.549468
0.509619 -0.269463 -0.111487 -0.185888 0.976492 0.124181
0.399464 0.243401 -0.074393 0.695202 -0.682370 -0.236813
-0.747311 0.252534 0.206690 -0.029282 -0.894476 0.452542
-0.669982 0.168758 0.139909 -0.074419 -0.418887 0.907763
-0.009786 0.168845 -0.549304 0.680425 -0.615165 -0.406507
0.422580 -0.239070 0.265863 0.517298 0.753788 0.410561
0.361418 -0.055352 0.116755 0.944119 0.293196 0.166773
-0.130704 -0.202476 -0.782230 0.265676 0.901605 -0.347471
-0.776626 -0.159004 0.536567 -0.002504 0.246802 -0.972617
-0.551733 0.190083 0.515924 -0.018898 -0.733016 -0.684851
0.189007 0.025863 0.538105 -0.280676 -0.089562 -0.958663
-0.695566 -0.170768 0.122754 -0.054757 0.644706 0.765666
-0.858343 0.148072 0.122017 0.135247 -0.534658 0.837329
0.666166 0.054828 -0.116581 -0.862347 -0.120410 0.494276
0.168154 -0.117539 -0.225780 0.715847 0.364704 -0.599315
-0.461667 0.204948 0.191937 -0.126877 -0.581668 0.806451
-0.254267 -0.031701 0.147257 -0.230182 0.005666 0.975464
0.154362 -0.261237 0.361752 0.091150 0.990974 0.120767
0.515923 0.291845 0.336841 0.065195 -0.999981 0.015206
-0.451205 0.119775 0.556963 -0.036309 -0.470093 -0.886011
-0.631195 -0.136708 0.551628 0.004811 0.531149 -0.851828
0.676517 -0.195125 0.417569 -0.355799 0.727037 -0.590321
-0.688731 -0.238834 0.196044 -0.035004 0.786985 0.620120
0.312039 0.264147 -0.435152 -0.570267 -0.747042 0.346622
-0.130134 0.098395 -0.661402 0.773080 -0.260581 -0.583090
0.065995 0.200875 -0.989178 -0.554205 -0.779319 0.296650
0.586907 0.166628 0.515066 0.013498 -0.588240 -0.811019
0.100766 0.228289 0.283558 0.041182 -0.899873 0.438963
0.066032 -0.143649 0.531673 -0.134202 0.491541 -0.864245
0.211141 -0.219769 -0.270326 0.381179 0.882345 -0.283951
0.458241 0.278145 -0.028853 0.510881 -0.841054 -0.190429
0.114383 0.258255 -0.546429 0.557316 -0.792620 -0.256312
-0.645209 -0.183617 0.138201 -0.054801 0.644807 0.765480
-0.110685 0.128074 -1.146709 -0.166729 -0.420239 0.893995
0.214641 0.246774 -0.631770 -0.582246 -0.746244 0.328289
0.394798 -0.092728 -0.543437 -0.825098 0.238591 0.514502
0.307395 0.025075 0.531772 -0.052156 -0.030783 -1.001204
0.298035 -0.128591 0.211584 -0.042551 0.407331 0.914234
0.737848 0.142689 0.434169 -0.539462 -0.392223 -0.748108
0.280334 -0.215333 0.462960 0.123935 0.524050 -0.845411
-0.289066 -0.185314 0.198212 -0.102290 0.644480 0.760761
-0.135958 0.024810 -0.643060 0.849381 -0.039042 -0.530845
-0.510904 -0.058838 0.116544 -0.235953 0.208540 0.951728
0.452984 -0.251809 0.008101 0.494873 0.790358 -0.367662
-0.982112 -0.005267 0.494409 0.731039 -0.078930 -0.685265
0.632992 0.134844 0.501588 -0.365347 -0.303799 -0.882859
0.178713 0.185756 -0.817180 -0.609575 -0.732398 0.309184
-0.495029 0.291091 0.362478 0.018520 -1.001958 -0.031016
-0.587556 -0.277445 0.264641 0.025391 0.998541 0.083743
-0.117125 -0.164253 -0.708343 0.597252 0.589034 -0.550079
-0.914704 0.210613 0.388900 0.876847 -0.489463 -0.036462
0.092923 0.200816 -0.425787 0.531388 -0.774055 -0.351495
-0.559176 0.059416 0.115380 -0.147573 -0.113699 0.985145
-0.157229 0.254128 -0.908735 0.489598 -0.820065 -0.303920
-0.945751 0.145589 0.433892 0.918302 -0.405032 -0.001103
-0.127820 -0.238455 -1.057760 0.066522 0.901061 0.434180
0.337740 -0.052869 0.010197 0.829976 0.068412 -0.559241
-0.224642 -0.100266 -0.782551 0.757453 0.203884 -0.624527
-0.727686 -0.116346 0.564366 0.004010 0.515192 -0.861315
-0.224533 0.069036 0.162660 -0.028644 -0.460166 0.890196
0.287582 -0.004949 -0.055152 0.743051 -0.075384 -0.670119
-0.263430 -0.022849 0.150626 -0.427911 0.044832 0.904338
0.171699 0.218473 0.255541 0.041054 -0.899605 0.438765
0.570844 -0.157838 0.483300 -0.086508 0.206932 -0.977228
0.312488 -0.032034 -0.714383 -0.897555 0.085841 0.436009
0.189288 -0.176237 -0.834116 -0.748728 0.412506 0.522876
-0.307580 0.028101 -0.930077 0.928641 -0.338297 -0.170720
0.394881 -0.137873 0.127536 0.802934 0.538547 -0.264000
0.202831 0.267049 -0.433306 0.128593 -0.991125 -0.071037
0.627522 -0.112802 -0.144215 -0.863618 0.195883 0.467693
0.568663 -0.280622 0.345414 -0.252035 0.899239 -0.363686
-0.041186 -0.240416 -1.041939 -0.135720 0.794836 0.594276
0.486498 -0.273105 0.241324 0.503934 0.815286 0.290598
0.652826 -0.184940 -0.056522 -0.707776 0.589264 0.391370
-0.172257 0.257947 -0.941871 0.242108 -0.971913 -0.027138
0.247701 -0.227104 -0.616148 -0.580009 0.775179 0.256019
-0.913639 0.211903 0.398700 0.876873 -0.488488 -0.036725
0.408631 -0.033191 -0.551488 -0.834137 0.259764 0.491350
0.081346 -0.231351 0.292017 -0.042123 0.808249 0.590431
-0.565669 -0.102080 0.112679 -0.062344 0.313530 0.950338
0.255268 0.045597 -0.819017 -0.841212 -0.146544 0.523999
-0.276908 0.092681 0.567891 -0.033981 -0.475424 -0.882593
0.264103 -0.079501 -0.776048 -0.883346 0.340721 0.326315
-0.025194 0.260305 -0.785741 0.093046 -0.989291 -0.129795
0.548121 -0.011640 -0.312598 -0.857243 0.043792 0.516007
0.398968 0.155634 0.521455 0.013701 -0.588442 -0.811222
0.307798 0.030558 0.163341 0.512429 -0.101693 0.854802
0.360227 -0.069982 -0.605550 -0.751196 0.318185 0.580633
0.806368 0.024247 0.109520 -0.897545 0.181900 0.406539
0.649313 -0.002138 -0.145289 -0.728935 0.054690 0.683693
-0.106319 0.241033 -0.793349 0.489409 -0.828716 -0.279545
0.702311 -0.040151 -0.061554 -0.811851 0.155911 0.565679
-0.995006 -0.036068 0.278402 0.996922 -0.106300 0.052785
0.819849 0.101780 0.178245 -0.880049 -0.390559 0.275255
0.424920 -0.085892 -0.497951 -0.826489 0.240758 0.511916
-0.999739 -0.039859 0.361928 0.997038 -0.106344 0.052828
0.049429 -0.230749 0.289571 -0.041394 0.807507 0.591195
-0.117941 0.236543 -0.795723 0.489476 -0.828508 -0.279424
-0.899934 0.121904 0.537019 0.394273 -0.668523 -0.636759
-0.994213 -0.119030 0.434370 0.934183 0.355043 0.096289
-0.031541 -0.064086 0.567375 0.005978 0.374533 -0.930689
-0.997025 0.022695 0.360269 0.921823 -0.398163 0.005406
-0.222719 0.226614 0.473216 -0.016848 -0.723027 -0.694983
-0.747470 0.169208 0.533119 -0.029618 -0.478878 -0.881788
0.063835 -0.234258 -0.564679 0.420270 0.895697 -0.161104
0.471201 -0.148510 -0.380835 -0.821198 0.296372 0.491259
-0.502747 -0.096201 0.126711 -0.241588 0.209221 0.950587
0.516423 0.052467 -0.341059 -0.926282 -0.127941 0.358239
-0.028675 0.264374 -0.897858 -0.474980 -0.881944 0.001420
0.048377 -0.260696 -0.791748 -0.051191 1.000473 -0.019052
-0.879897 -0.222821 0.460506 0.408410 0.816349 -0.416608
0.416921 0.168282 0.121833 0.894536 -0.428653 -0.147762
0.633992 0.127617 -0.138817 -0.744913 -0.292941 0.601893
-0.997684 0.022458 0.357882 0.921659 -0.398677 0.005437
-0.560328 -0.171674 0.143991 -0.204223 0.607518 0.771075
-0.109997 -0.137276 -0.669686 0.684167 0.535092 -0.501590
-0.225716 -0.195083 -0.892337 0.646784 0.637953 -0.423835
-0.190148 -0.040988 -0.721876 0.757074 0.204454 -0.625092
0.206691 -0.165577 0.500034 -0.202247 0.526175 -0.829656
-0.827507 0.048812 0.573915 0.002111 -0.045431 -1.002866
-0.156147 0.276353 0.397871 -0.051842 -0.982719 -0.191919
0.349242 -0.275686 -0.276960 -0.103209 0.993269 0.082436
0.267307 -0.186126 -0.646236 -0.726478 0.570809 0.385966
0.077142 -0.105808 0.194943 -0.046096 0.432577 0.902712
0.058375 -0.246335 0.309474 -0.118821 0.980371 0.168067
0.237019 0.246552 0.310094 0.042140 -0.899862 0.439117
0.409083 0.227651 -0.353094 -0.570081 -0.746722 0.347291
-0.368378 0.091291 0.141754 -0.068553 -0.094951 0.995407
-0.325650 -0.030281 -0.981327 0.975138 0.231198 0.020938
0.825467 0.109578 0.272162 -0.997772 -0.077106 -0.037235
-0.578720 -0.187637 0.153372 -0.164936 0.646356 0.748474
-0.793882 -0.205935 0.511421 0.007431 0.463225 -0.890802
-0.526912 0.282208 0.412972 -0.007637 -0.753137 -0.664253
0.606048 0.302596 0.122854 -0.192609 -0.982696 -0.011238
0.739165 0.229126 0.320668 -0.470178 -0.871515 -0.154238
0.523907 -0.272216 0.173368 0.504970 0.815775 0.289603
0.398663 0.075419 0.537717 0.063112 -0.258245 -0.966935
-0.950616 0.063385 0.173861 0.913829 -0.283707 0.303721
-0.911098 -0.047824 0.117887 0.673511 0.093711 0.738267
-0.027926 -0.244538 -0.758822 0.471457 0.847155 -0.253009
0.017346 0.194325 -1.062122 -0.618559 -0.490845 0.615760
0.424228 -0.263231 0.323615 0.085849 0.896782 0.438552
0.437506 -0.202451 0.123466 0.804296 0.537796 -0.264128
-0.464023 0.290571 0.380839 -0.011602 -0.996380 -0.113418
0.372682 0.105730 0.121319 0.983804 -0.124876 -0.152080
0.407381 -0.066514 -0.535619 -0.833916 0.260559 0.491553
0.641102 -0.286279 0.154776 -0.310192 0.951949 0.039006
0.033304 -0.261648 0.423333 -0.040012 0.975771 -0.224887
-0.668914 -0.292408 0.393046 0.021686 0.934259 -0.364338
0.412451 -0.219066 0.465945 0.027277 0.738472 -0.676824
0.409781 -0.195485 0.045497 0.804465 0.537229 -0.262899
-0.015191 0.030588 0.175874 -0.030896 -0.007261 1.001640
0.181370 -0.265603 -0.430638 0.200660 0.979576 -0.063980
-0.832607 -0.253831 0.234144 0.243656 0.973006 -0.009479
-0.449801 0.119173 0.143500 -0.081921 -0.430177 0.901983
0.585653 -0.151844 0.475360 -0.186672 0.495142 -0.851064
0.044951 0.258175 -0.719459 0.092669 -0.989334 -0.129735
0.247084 0.229800 -0.227392 0.440837 -0.824045 -0.362852
-0.454345 0.282115 0.413804 -0.007932 -0.752884 -0.663692
-0.159586 0.029151 -0.679201 0.850065 -0.037958 -0.530714
-0.611476 0.169345 0.139954 -0.051167 -0.654020 0.757744
0.512780 0.033579 -0.367390 -0.826396 -0.095914 0.556673
0.383984 0.281677 -0.240993 -0.059268 -0.993679 0.110328
0.452676 -0.220988 0.130809 0.833972 0.496286 -0.252428
-0.275427 0.179394 0.522650 -0.016648 -0.720935 -0.697658
0.125773 0.034442 0.179224 -0.034748 -0.047896 1.000125
-0.448121 -0.217601 0.205266 -0.105909 0.647611 0.757948
-0.211431 -0.125596 0.164415 -0.134073 0.607013 0.785810
0.368492 -0.162769 0.192462 0.384545 0.721066 0.581395
-0.222399 -0.281284 0.396896 -0.039352 0.976134 -0.225007
-0.201582 -0.017804 -0.732692 0.743891 0.157535 -0.652542
-0.968205 -0.125557 0.304237 0.867872 0.440106 0.245969
-0.602376 0.285218 0.285707 -0.046790 -0.998232 0.080850
-0.026436 -0.181318 0.239208 -0.038239 0.542276 0.841695
-0.066286 0.257396 -1.012765 -0.061577 -0.828055 0.560380
-0.066166 0.067424 0.174158 -0.031239 -0.008469 1.001770
0.550480 -0.002052 0.534881 -0.059698 -0.001131 -1.000540
0.444755 -0.202656 -0.336251 -0.768129 0.592826 0.249472
0.580994 0.147748 -0.201735 -0.737437 -0.331766 0.589794
0.463203 0.182193 -0.349698 -0.741290 -0.370314 0.562034
-0.552786 0.233076 0.469411 -0.016524 -0.724600 -0.693942
0.235142 -0.154870 -0.165650 0.716208 0.364718 -0.599683
-0.100797 0.169266 0.522826 -0.035626 -0.473706 -0.882914
-0.278382 0.014335 -0.840712 0.848045 -0.010703 -0.535333
0.598537 -0.077542 -0.216205 -0.862699 0.196866 0.468744
0.408030 -0.227079 0.266537 0.093635 0.850267 0.521782
-0.019521 -0.192680 -0.594961 0.676152 0.668574 -0.316807
-0.997379 -0.092463 0.369037 0.934538 0.355294 0.095736
0.770825 0.200748 0.199576 -0.790527 -0.527719 0.316602
-0.788671 0.072484 0.088990 -0.158797 -0.310441 0.940047
-0.127075 0.079126 0.173679 -0.026726 -0.459960 0.889840
0.032816 -0.154306 -0.454539 0.774427 0.302156 -0.559824
-0.915515 0.159121 0.172348 0.825221 -0.394121 0.414835
0.603999 -0.132520 -0.174135 -0.735337 0.406178 0.546097
0.219214 0.262656 -0.568151 -0.325345 -0.895705 0.308881
-0.735565 0.103931 0.571165 0.001906 -0.044866 -1.002511
0.815674 0.132233 0.375038 -0.973184 -0.137813 -0.194080
-0.789700 0.159644 0.120970 -0.051395 -0.654663 0.757882
0.019322 0.200125 -1.055058 -0.618631 -0.490764 0.616058
-0.078285 0.013759 -0.552956 0.773657 -0.260448 -0.583450
0.788844 0.018444 0.424448 -0.686685 0.058154 -0.728067
-0.186605 0.226410 -0.876085 0.606175 -0.672742 -0.431756
-0.539172 -0.189045 0.522461 0.007872 0.464131 -0.889470
-0.608796 0.230048 0.191468 -0.052037 -0.653640 0.758261
0.335099 0.258031 0.327539 0.144030 -0.911633 0.390275
-0.129539 0.159629 -1.130150 0.063962 -0.618634 0.785845
-0.289215 -0.003385 0.139692 -0.229959 0.005568 0.975184
0.230442 -0.201136 -0.696752 -0.726362 0.570806 0.386285
-0.979867 -0.136457 0.366843 0.934301 0.355180 0.096199
0.079747 -0.020350 -0.326665 0.860425 0.254096 -0.446913
0.059676 -0.241426 -0.611612 0.425062 0.891045 -0.172231
0.674154 0.289508 0.173223 -0.192747 -0.982808 -0.010559
-0.418603 -0.285927 0.415938 -0.040212 0.976643 -0.224243
0.601979 -0.246337 -0.045297 -0.626194 0.627188 0.467233
0.193866 0.251899 0.357859 -0.032873 -1.001123 0.023404
-0.648007 0.178828 0.525651 -0.017604 -0.718971 -0.699564
-0.480169 0.057881 0.572144 0.000005 -0.046322 -1.002939
-0.252498 0.194283 0.209130 -0.159141 -0.726890 0.671280
0.172280 -0.211656 -0.307376 0.641000 0.667140 -0.386463
0.665261 -0.275085 0.290722 -0.251668 0.899132 -0.362072
-0.263291 0.193121 -1.039926 0.904540 -0.431816 -0.009166
-0.962310 -0.107739 0.504168 0.754609 0.464147 -0.471793
-0.072647 -0.236353 -0.809100 0.451900 0.844339 -0.296911
-0.483355 0.063732 0.571486 -0.000460 -0.047024 -1.002432
-0.751463 -0.276516 0.361369 0.085376 0.996172 0.078844
-0.218865 0.215796 0.485132 -0.019159 -0.735016 -0.682456
-0.674448 -0.141793 0.549571 0.002768 0.493881 -0.874011
