ply
format ascii 1.0
element vertex 512
property float x
property float y
property float z
property float nx
property float ny
property float nz
end_header
0.206179 0.193046 -0.241234 0.485346 -0.836214 0.259228
0.909652 -0.080333 0.746372 -0.129268 0.503178 -0.855271
-0.294239 -0.257901 0.213442 0.256015 0.896208 0.365041
0.210067 -0.293443 0.523172 -0.029997 0.937212 0.350685
0.330855 0.026495 -0.884541 -0.021325 0.033808 1.000801
-0.128507 0.244094 0.127243 0.219385 -0.829356 0.516753
0.073950 -0.275279 0.119414 -0.318674 0.841826 -0.439036
0.857450 -0.069735 0.460172 -0.109213 0.441691 0.891411
0.321271 -0.196317 0.408580 -0.338718 0.770919 0.540515
-0.090490 0.010388 -0.943751 -0.328325 -0.101856 0.940852
0.354626 0.184602 0.417181 -0.146261 -0.370745 0.918446
0.938750 0.041478 0.588634 -0.994731 -0.087235 0.072622
-0.682756 0.017167 -0.634857 0.943625 -0.147294 0.303355
-0.028040 -0.012698 -0.582990 -0.015570 0.073488 -0.998859
0.860579 0.176160 0.713013 -0.776880 -0.530931 -0.343351
0.504949 0.064337 -0.809635 -0.682195 -0.200061 0.705729
0.526117 0.216581 0.470910 -0.106290 -0.771754 0.628685
0.385251 0.276601 0.630550 0.001392 -0.919120 -0.396300
-0.024004 -0.184326 -0.626866 -0.042773 0.390930 -0.920757
0.722401 -0.256460 0.610455 -0.154172 0.988427 -0.003138
0.124403 -0.228136 -0.663144 0.021836 0.868254 -0.497317
0.171995 -0.206607 -0.141342 0.511112 0.808564 0.295134
0.890875 0.152106 0.604614 -0.725004 -0.690455 0.021683
0.556794 -0.250552 -0.515247 -0.467887 0.873686 0.141183
0.402924 0.309875 -0.392061 0.144860 -0.990385 -0.018862
-0.499961 0.006293 0.347715 0.996157 -0.064366 -0.075470
-0.426997 -0.131608 0.142415 0.736002 0.358716 0.576274
0.412696 0.072708 0.376155 -0.258942 -0.389576 0.885081
-0.372120 -0.270044 -0.773282 0.263961 0.800104 0.541610
-0.273788 -0.273879 0.238075 0.254885 0.896944 0.364385
0.151409 0.037559 -0.888590 -0.020644 0.033858 1.000931
0.361510 -0.294746 -0.404668 0.320661 0.945360 -0.075122
-0.044869 0.311079 0.346244 -0.163616 -0.932942 0.325109
-0.202031 0.222435 0.628969 0.118372 -0.840305 -0.531592
0.237313 -0.078155 0.328590 -0.264033 0.200604 0.944816
0.366496 -0.282905 -0.663387 -0.146722 0.915798 0.374594
0.390819 -0.131745 0.024315 -0.562723 0.343472 -0.753895
-0.016552 -0.261703 0.109149 -0.087978 0.933615 0.350972
0.116544 0.274637 0.637804 -0.068042 -0.800120 -0.598100
-0.141146 -0.229485 -0.657924 -0.041344 0.824948 -0.565596
0.401979 -0.093391 0.754380 0.008852 0.236840 -0.972547
0.466320 0.104321 0.752479 0.007241 -0.175103 -0.985053
0.500868 -0.281304 0.615409 -0.058243 0.994622 -0.091759
0.193805 0.127848 -0.318205 0.793961 -0.609828 -0.011632
-0.422653 -0.129274 0.125480 0.847679 0.222705 0.484567
0.036158 0.116156 -0.051707 0.836382 -0.135002 0.533707
0.686395 -0.035425 0.764910 0.009571 0.237223 -0.972323
-0.251430 0.306794 0.301659 -0.047216 -0.879558 0.476563
0.327580 -0.000880 0.772304 0.006510 -0.179173 -0.985033
0.541627 0.199786 -0.216762 -0.667199 -0.335406 -0.667089
0.479296 -0.137881 -0.804320 -0.608072 0.588589 0.535322
0.198599 -0.085632 -0.349533 0.966425 0.222750 -0.136502
0.441255 -0.311218 -0.542412 -0.171041 0.925190 0.341688
0.891655 -0.159221 0.585411 -0.783351 0.620633 -0.059797
-0.123742 0.283876 0.550656 0.109239 -0.865900 -0.490889
0.280516 0.144234 0.102779 -0.613849 -0.461611 -0.643102
-0.380108 0.181612 0.157625 0.124177 -0.639271 0.760863
-0.422459 -0.039171 -0.484430 -0.298285 0.243371 -0.924528
0.201338 0.233847 -0.606912 0.514657 -0.523169 -0.681850
0.075241 -0.194295 0.275138 -0.717075 0.431349 0.549678
0.329022 0.242176 -0.057820 -0.295055 -0.868999 -0.401280
-0.255551 0.220932 0.616419 0.110849 -0.879635 -0.464957
0.330176 0.280427 -0.363569 0.599867 -0.801143 -0.012780
-0.691194 -0.102872 -0.584336 0.993370 0.127058 0.015498
0.165753 -0.245413 0.104652 -0.322456 0.845401 -0.428986
0.402587 -0.293731 -0.610130 -0.171776 0.924939 0.342063
0.245539 -0.199323 -0.426302 0.839057 0.544682 -0.034753
0.621786 -0.007510 -0.631948 -0.904681 -0.199673 0.379587
0.208403 -0.259778 -0.660204 0.469748 0.855857 -0.219760
-0.131475 -0.161236 0.708545 0.310565 0.488153 -0.816198
0.199749 0.127858 0.175504 -0.501297 -0.116785 -0.859495
0.123399 -0.074608 -0.534541 0.458508 0.482973 -0.746591
0.416613 -0.244160 0.682226 0.012958 0.560443 -0.829419
0.566975 0.216015 -0.284728 -0.801490 -0.517729 -0.305653
-0.168786 0.310339 0.490951 0.210745 -0.908389 -0.362923
-0.224845 -0.075882 0.738915 0.050029 0.049245 -0.998771
-0.143022 0.314001 0.314508 -0.016113 -0.862930 0.507006
0.217320 -0.051634 0.316832 -0.263961 0.200272 0.945011
-0.057953 0.293776 0.238540 -0.045810 -0.938492 0.346669
0.747162 -0.246177 0.571463 -0.110583 0.786506 0.609113
-0.369318 0.051481 0.062281 0.162710 -0.384454 0.910060
0.228404 -0.165437 -0.284381 0.836902 0.387316 0.389804
-0.652386 -0.047862 -0.465773 0.437191 0.077768 -0.897465
-0.625633 -0.017543 -0.752733 0.634926 0.117349 0.766156
0.475304 -0.191771 -0.749808 -0.587096 0.649065 0.485993
0.625790 -0.018048 -0.628337 -0.904923 -0.198332 0.379717
0.626315 0.270334 0.618843 -0.130451 -0.992796 -0.017499
0.292813 0.031302 0.332753 -0.270148 -0.069531 0.961654
0.150690 -0.241305 0.125769 -0.318477 0.842020 -0.438833
-0.001072 -0.271868 0.121845 0.273700 0.803825 0.530292
0.353675 0.082487 -0.875816 -0.041897 -0.315834 0.949530
0.532153 -0.229015 0.496159 -0.126367 0.717485 0.686420
0.272737 0.105173 0.348119 -0.259479 -0.388266 0.885813
-0.113673 0.263962 -0.706640 -0.042846 -0.926007 -0.378411
0.159776 -0.185393 -0.560911 0.515682 0.785837 -0.344143
0.081745 -0.239191 0.179286 -0.318674 0.841453 -0.439550
0.294839 0.223918 0.005286 -0.294486 -0.868504 -0.401989
0.873177 0.167771 0.551111 -0.724874 -0.690768 0.021152
-0.002333 -0.098640 -0.004387 0.816152 0.048207 0.578356
0.402661 -0.311946 -0.501505 -0.201195 0.978590 0.064361
-0.483248 -0.258761 -0.605859 -0.082854 0.929551 -0.363877
0.409940 0.072936 0.775030 0.035311 -0.408121 -0.913360
0.651594 0.118301 -0.493656 -0.926902 -0.155483 0.346260
0.273081 0.123688 0.748215 0.035910 -0.408211 -0.913268
0.006945 0.200526 -0.841598 -0.427961 -0.694925 0.581448
-0.516226 -0.100629 -0.829699 0.612265 0.142468 0.779440
-0.600329 0.065273 -0.774538 0.628915 -0.066821 0.777116
-0.077086 -0.177622 0.716885 0.356599 0.472144 -0.807195
0.021196 0.048460 0.762014 0.006258 -0.179287 -0.985013
-0.478495 0.262836 -0.684018 0.303551 -0.872577 0.388176
0.533981 -0.172926 -0.703965 -0.586310 0.648613 0.487650
-0.065023 0.045196 0.003497 0.075572 -0.276784 0.958985
-0.352783 -0.257471 0.492394 0.603790 0.795111 -0.073835
0.111364 0.146812 -0.136656 0.642195 -0.629176 0.440619
0.409164 0.278715 -0.656613 -0.461782 -0.809908 0.365540
0.782825 0.060962 0.436910 -0.103474 -0.337429 0.936451
0.634997 -0.172687 -0.496981 -0.892319 0.414212 0.187378
-0.370460 0.190191 0.552309 0.752196 -0.320588 -0.577125
0.433202 -0.187250 -0.044883 -0.751371 0.381572 -0.539676
-0.503641 -0.013522 -0.855531 0.613006 0.141988 0.778961
-0.087234 0.281685 0.209405 0.091163 -0.980195 0.186694
0.596940 0.020438 0.767723 0.007424 -0.180287 -0.984717
0.611420 0.203819 -0.437656 -0.548823 -0.834784 0.066061
-0.163537 0.250916 -0.668104 -0.044781 -0.926167 -0.379095
0.162357 -0.059926 0.262173 -0.990220 0.147645 -0.017081
-0.257866 -0.208115 0.115538 0.367763 0.452298 0.814163
0.532944 0.066957 -0.782498 -0.700759 -0.023320 0.715116
0.338862 0.290966 -0.462994 0.600376 -0.800813 -0.012689
0.685818 0.259249 0.587778 -0.201526 -0.964675 0.175161
0.079132 -0.297559 0.439617 -0.114743 0.972341 0.205565
0.383184 0.247895 0.477030 -0.134944 -0.892799 0.430888
0.593963 -0.000690 0.771698 0.008391 -0.180602 -0.984067
0.326248 -0.169634 0.735544 0.015155 0.346554 -0.939684
-0.469921 0.151267 0.354601 0.765269 -0.643068 0.059152
0.746556 -0.127099 0.470311 -0.095373 0.400134 0.912586
-0.484672 -0.055517 0.436969 0.884091 0.174161 -0.434809
0.280669 0.243414 -0.017776 -0.355608 -0.821421 -0.448892
0.545772 -0.183891 0.472350 -0.051187 0.570611 0.820897
0.365705 -0.246233 0.682425 0.060970 0.722313 -0.690190
0.585727 0.066734 -0.686760 -0.892458 -0.161872 0.423681
0.604266 0.177439 -0.319167 -0.806293 -0.523686 -0.281553
-0.572410 0.044479 -0.799484 0.629031 -0.067019 0.776969
0.056595 -0.005201 -0.099485 0.844215 0.124874 0.523948
0.758453 -0.074986 0.450405 -0.106161 0.437118 0.892955
0.412230 -0.279977 -0.643115 -0.171524 0.925095 0.341733
0.118836 -0.235698 0.674027 0.061231 0.722476 -0.689988
0.661791 -0.214890 0.511247 -0.290442 0.674555 0.679189
0.080776 -0.278988 0.625725 -0.031114 0.806815 -0.591501
-0.343182 0.128347 -0.556129 -0.341239 -0.386058 -0.858506
0.248038 -0.101505 0.333750 -0.332902 0.166017 0.929675
-0.495073 0.222229 -0.549974 -0.214121 -0.698121 -0.686952
-0.468681 -0.095243 0.192472 0.847838 0.222330 0.483967
0.657457 0.036132 0.422341 -0.304590 0.088246 0.949815
0.053458 0.169574 -0.857268 -0.046557 -0.384794 0.923676
-0.291799 0.129290 0.693664 0.125131 -0.485539 -0.866400
0.805671 0.183313 0.480136 -0.124277 -0.747680 0.653027
0.276943 0.248027 -0.570721 0.599676 -0.801423 -0.013334
-0.448650 -0.199990 0.327433 0.624049 0.781549 -0.039314
0.795399 0.154162 0.744121 0.015277 -0.217593 -0.976433
0.336791 0.291026 -0.507126 0.600317 -0.800763 -0.012749
-0.444308 0.125702 0.168020 0.626897 -0.582979 0.519512
0.489568 0.217050 -0.676419 -0.682647 -0.587444 0.438057
-0.442834 -0.031501 0.540641 0.895569 0.230960 -0.383390
0.331046 0.288341 -0.560614 0.600267 -0.801133 -0.012850
-0.113687 -0.248450 -0.820401 -0.035343 0.745056 0.668443
0.682107 0.050798 -0.449884 -0.981839 -0.162113 0.113478
-0.317742 0.032571 0.685787 0.582972 -0.205968 -0.787603
0.465573 -0.189884 -0.087851 -0.729613 0.432716 -0.531538
-0.388748 -0.070497 0.622548 0.706617 0.449713 -0.547704
0.287875 -0.273317 -0.173462 0.510216 0.809122 0.295284
-0.374532 0.018392 0.646179 0.577709 0.076850 -0.813717
0.161591 -0.248911 0.102493 -0.318527 0.842190 -0.438584
-0.481501 -0.266377 -0.623924 -0.065566 0.932275 -0.360586
0.129172 -0.253615 -0.781808 0.081032 0.872021 0.485619
0.511478 -0.135135 0.441813 -0.080738 0.387449 0.919831
0.320516 0.244184 0.680677 0.023649 -0.736631 -0.677478
0.142816 0.079666 0.755157 0.018738 -0.224268 -0.975376
0.309127 -0.132374 0.371422 -0.483888 0.423547 0.767572
0.034179 0.159806 -0.028096 0.761569 -0.299914 0.576740
0.214395 0.261293 -0.057037 0.300409 -0.910536 0.286892
-0.105974 0.146146 0.049053 0.186955 -0.577519 0.796291
0.870342 -0.161673 0.526254 -0.547053 0.527451 0.651376
-0.289020 0.125340 -0.568766 -0.274196 -0.446886 -0.853281
0.857324 -0.197182 0.561928 -0.670306 0.741997 0.046057
-0.420510 0.011645 0.570510 0.826061 -0.021296 -0.564512
-0.315682 -0.276518 0.341991 0.360618 0.934152 -0.005069
0.651958 -0.150889 0.458291 -0.051133 0.570438 0.820764
0.190343 0.218006 0.104225 -0.327971 -0.896155 -0.305464
0.381838 -0.292459 -0.241989 0.076553 0.994379 -0.083072
-0.279769 0.191012 0.660556 0.124892 -0.486645 -0.866540
0.376779 0.194222 0.728807 0.017676 -0.219907 -0.976094
0.170407 0.035706 -0.259369 0.804402 0.045522 0.594352
-0.436177 -0.089018 0.520409 0.895769 0.230896 -0.382328
-0.248134 0.094572 -0.957021 0.036611 -0.107213 0.995609
0.251846 -0.234630 -0.815758 -0.260015 0.807000 0.532893
-0.489405 0.014667 0.423946 0.988796 -0.027650 -0.153748
0.668559 0.100089 -0.411288 -0.853551 -0.496150 -0.166485
0.203788 -0.156487 -0.493585 0.632826 0.536070 -0.559722
-0.089058 0.062388 -0.948639 -0.213786 -0.418605 0.884687
0.322523 -0.072203 0.354522 -0.387455 0.179081 0.905585
0.198321 -0.246679 0.669738 0.060619 0.722781 -0.690634
0.245293 -0.177116 0.733287 0.013975 0.352144 -0.936985
0.393863 0.144187 0.741455 0.017710 -0.219412 -0.977055
-0.656881 0.163947 -0.594906 0.916481 -0.397689 0.078323
0.323585 -0.293790 0.589875 -0.058864 0.995291 -0.091623
0.527991 -0.177363 -0.705925 -0.587257 0.649155 0.486032
-0.165734 0.328472 0.434317 0.257421 -0.928011 -0.270637
0.245351 -0.270106 -0.034322 0.005952 1.001320 -0.007308
0.238889 -0.252175 -0.142003 0.510692 0.808827 0.295168
0.063431 0.023272 -0.111789 0.832692 0.095525 0.546985
0.554866 -0.118218 0.439137 -0.081053 0.387551 0.919464
0.533185 -0.131741 -0.155546 -0.709324 0.346940 -0.615619
-0.197659 0.292418 0.518621 0.210759 -0.909146 -0.363532
0.658158 -0.260414 0.669771 0.013732 0.560358 -0.829693
0.566556 -0.254769 -0.331874 -0.423702 0.854533 -0.304438
0.249738 -0.238366 -0.550700 0.549821 0.797587 -0.251264
0.056090 -0.266623 0.337604 -0.625257 0.579333 0.525498
0.425744 -0.283598 0.637784 -0.058018 0.994606 -0.091825
0.137143 0.174658 -0.142528 0.537961 -0.632064 0.560234
-0.672822 -0.069431 -0.686831 0.890032 0.239995 0.392043
-0.389254 -0.241985 -0.606037 -0.221895 0.909106 -0.355859
-0.246757 -0.247883 0.616271 0.017764 0.923883 -0.386129
0.313195 -0.281978 -0.689227 -0.148083 0.916843 0.373579
0.022976 -0.002225 -0.046601 0.815835 0.047027 0.577828
-0.150591 0.124255 0.039585 0.067349 -0.584986 0.809808
0.592395 -0.113029 -0.216930 -0.709028 0.347593 -0.616335
0.553957 -0.063450 -0.762478 -0.822275 -0.112186 0.560671
0.162021 0.270356 -0.736974 0.180791 -0.934257 0.314123
0.070955 0.089137 -0.112109 0.761428 -0.299891 0.576862
-0.070201 -0.312957 0.329987 -0.171832 0.986019 0.034669
0.623240 0.156773 -0.321729 -0.757456 -0.463930 -0.462255
0.451717 0.051256 -0.861540 -0.700312 -0.023218 0.715702
-0.502591 -0.066856 0.296789 0.921325 0.390517 -0.019521
-0.156361 -0.066485 -0.954161 -0.321612 0.286590 0.903909
-0.045375 0.272961 0.594996 0.170197 -0.828328 -0.536746
-0.007314 0.065620 0.757772 0.005885 -0.180125 -0.985031
-0.203491 -0.000776 0.014872 0.171577 -0.145327 0.975655
-0.209710 -0.215533 -0.860058 -0.035494 0.744558 0.670086
-0.581510 0.103404 -0.776175 0.490190 -0.261523 0.834084
0.781281 0.209734 0.508559 -0.124799 -0.748261 0.652951
-0.044082 0.245529 0.108183 -0.060037 -0.875628 0.481521
0.463394 -0.034396 -0.015857 -0.762896 -0.052683 -0.647483
0.041986 -0.267407 0.636335 0.158335 0.922678 -0.354869
-0.262341 -0.137785 -0.584652 -0.394929 0.601307 -0.695696
0.260197 0.078454 0.146574 -0.505949 -0.115634 -0.856525
-0.440712 -0.111596 0.499367 0.895038 0.230747 -0.382860
-0.252210 0.169020 0.677370 0.124710 -0.486331 -0.866476
0.671094 0.048678 -0.487443 -0.982424 -0.089810 0.171979
-0.052965 -0.264040 -0.774207 -0.209120 0.932873 0.299138
-0.031495 0.121616 -0.607993 0.022549 -0.497936 -0.868788
0.551178 -0.128490 0.443434 -0.080970 0.387189 0.919680
-0.428262 -0.123053 0.528047 0.707492 0.449280 -0.547577
-0.210778 -0.223071 -0.869940 -0.201580 0.689932 0.697600
-0.443358 -0.048332 0.118306 0.605180 0.122212 0.788465
0.044645 -0.245538 0.266440 -0.655520 0.738366 -0.165804
0.651082 0.168803 0.737788 0.015915 -0.218674 -0.976698
-0.540337 -0.229814 -0.535803 0.143844 0.899719 -0.416206
0.299400 -0.198843 0.402071 -0.319010 0.769528 0.554926
-0.080383 0.148216 0.721850 0.035406 -0.407954 -0.913732
-0.235922 -0.019727 0.019818 0.117384 0.195711 0.975069
0.808071 -0.061327 0.756500 0.009658 0.237326 -0.972410
0.410283 -0.314096 -0.437540 0.321106 0.945117 -0.075339
0.307390 -0.265710 0.489000 -0.109565 0.887254 0.450801
-0.149120 0.109055 -0.939826 -0.213873 -0.418608 0.884601
0.087605 0.190539 0.712989 0.035595 -0.408920 -0.913424
0.591853 -0.136004 -0.237942 -0.765430 0.458361 -0.455732
-0.379089 0.201367 0.517961 0.534002 -0.798237 -0.280866
-0.424456 -0.107101 0.127599 0.281015 0.293964 0.915150
0.298946 0.260092 -0.410872 0.600176 -0.801156 -0.012962
-0.614619 -0.174430 -0.742390 0.435007 0.749084 0.503349
0.654866 -0.010511 -0.556511 -0.904714 -0.198374 0.380407
0.137653 -0.088279 -0.200620 0.802394 0.045315 0.596404
-0.043255 -0.185237 -0.887520 -0.035383 0.744671 0.669305
-0.189189 -0.125957 -0.605098 -0.019299 0.292877 -0.957488
0.123928 -0.229579 0.166783 -0.318799 0.841145 -0.439004
-0.346957 0.199863 0.582521 0.856134 -0.287486 -0.433279
-0.681322 0.049029 -0.621562 0.957907 -0.103015 0.273857
0.204456 0.142897 -0.422071 0.794818 -0.608811 -0.011194
0.420017 -0.295347 -0.245077 0.077270 0.994479 -0.085157
-0.285294 -0.297857 0.401393 0.139599 0.950799 -0.279063
0.415862 0.169612 -0.822038 -0.365343 -0.732787 0.575840
0.202593 0.287498 0.612044 0.026715 -0.922050 -0.390656
-0.619231 0.205993 -0.582793 0.602529 -0.799562 0.025727
0.621779 -0.233624 0.516754 -0.229596 0.662189 0.714619
-0.215589 -0.275960 -0.699804 -0.302248 0.945026 -0.136655
0.511537 0.119581 -0.100105 -0.608799 -0.611114 -0.508963
0.457986 0.075433 -0.848566 -0.361555 -0.288789 0.888277
0.531452 0.253522 -0.474210 -0.548891 -0.834770 0.066440
-0.168463 0.289608 0.245217 0.198050 -0.883841 0.426344
-0.666122 0.026373 -0.674149 0.957437 -0.103001 0.273542
0.828516 0.228262 0.582479 -0.201483 -0.965071 0.175841
0.884842 0.141135 0.714072 -0.776649 -0.530269 -0.343205
0.561274 -0.185605 -0.222466 -0.709418 0.347121 -0.615524
0.236443 0.280919 0.485807 -0.169349 -0.886270 0.433877
0.709429 0.096249 0.441726 -0.104046 -0.337847 0.936226
0.215413 0.200699 -0.235564 0.485353 -0.836486 0.258143
-0.398687 -0.240418 0.344606 0.624206 0.781585 -0.039871
0.035356 0.195049 0.708809 0.035857 -0.407870 -0.913631
0.868561 -0.187008 0.560368 -0.671009 0.741477 0.045999
0.230955 0.178944 0.722785 0.035945 -0.408469 -0.913364
-0.458911 -0.024692 -0.469056 -0.298484 0.243216 -0.924799
-0.245965 -0.015591 -0.544918 -0.233413 -0.232183 -0.946315
0.184886 -0.243598 -0.806897 0.080560 0.871721 0.485837
0.171899 0.127911 -0.547088 0.514457 -0.523059 -0.681119
0.160170 -0.072818 -0.503524 0.699979 0.370301 -0.612226
0.390341 -0.259710 -0.099624 -0.303056 0.927610 -0.223251
0.348280 0.229277 -0.795989 -0.160596 -0.638039 0.755110
0.183982 -0.269205 -0.029347 0.006230 1.001073 -0.007145
-0.409353 -0.184573 -0.872066 0.334418 0.793307 0.511674
0.666405 -0.244718 0.553245 -0.110391 0.786390 0.609461
0.150952 0.312330 0.580551 -0.085887 -0.996519 0.045506
-0.134131 -0.271059 0.570418 0.016583 0.923458 -0.385747
0.313684 0.078164 0.349843 -0.260412 -0.388925 0.884930
0.030040 -0.028676 -0.054378 0.815061 0.058728 0.578310
0.182987 0.263972 -0.761063 0.133481 -0.926473 0.354145
-0.606125 -0.123037 -0.448486 0.434579 0.079373 -0.898440
0.539780 0.243946 -0.505201 -0.549382 -0.834878 0.066221
0.075368 -0.285757 0.604496 0.158219 0.922451 -0.355740
-0.467178 0.069043 -0.478544 -0.341913 -0.383841 -0.860370
0.027997 -0.314743 0.527501 -0.116220 0.990085 0.087472
0.126725 0.211241 0.704686 0.035601 -0.408028 -0.913574
-0.124186 0.300876 0.514977 0.223971 -0.825262 -0.520024
0.199346 -0.243017 0.085485 -0.318537 0.842023 -0.438146
-0.384893 -0.168932 0.544085 0.706851 0.449711 -0.547789
0.033647 0.152172 -0.037223 0.836247 -0.134403 0.533852
0.493152 0.265496 0.657897 0.001797 -0.919294 -0.397076
0.597093 -0.251072 0.538355 -0.187966 0.836437 0.516234
-0.421009 0.187866 0.201589 0.658225 -0.743932 0.126027
-0.373228 0.084654 0.607722 0.856146 -0.287146 -0.432958
-0.282120 0.102316 0.063634 0.169425 -0.391246 0.905954
-0.147891 -0.298132 0.246677 -0.018962 0.927804 0.376275
-0.657637 0.100701 -0.501750 0.711215 -0.263696 -0.653638
-0.373994 -0.252621 0.388802 0.360552 0.933587 -0.005014
0.927466 -0.049253 0.549091 -0.929341 0.337227 0.157841
0.113603 -0.072666 -0.538888 0.458471 0.483521 -0.746535
0.515221 -0.266686 -0.552691 -0.467634 0.874095 0.140884
-0.174965 0.294804 0.258445 0.198888 -0.883978 0.426415
-0.201583 0.006356 0.728939 0.223206 -0.084929 -0.972161
-0.231341 -0.264019 -0.702405 -0.041283 0.825062 -0.565124
-0.197292 -0.061102 0.733342 0.190316 -0.033659 -0.982372
0.288456 -0.087233 0.764965 0.015329 0.346053 -0.939136
0.459760 0.184586 0.731765 0.018256 -0.218671 -0.976551
0.092640 0.241990 -0.802076 0.017385 -0.782469 0.624939
-0.230835 -0.274066 0.555607 0.017360 0.923783 -0.385385
0.019156 0.010945 -0.042386 0.815733 0.046811 0.578328
0.585976 -0.040896 -0.188949 -0.680887 0.151937 -0.718388
0.474329 0.250346 -0.208011 -0.438115 -0.790489 -0.430924
-0.113463 -0.228286 -0.658730 -0.040671 0.825171 -0.565549
0.761848 -0.108977 0.463970 -0.094424 0.400609 0.912054
0.142956 -0.152449 0.325411 -0.716700 0.543529 0.439778
0.463682 -0.120450 -0.824202 -0.500212 0.303878 0.812247
0.337005 -0.232022 0.004896 -0.392028 0.767567 -0.509211
-0.362035 0.268318 -0.691952 -0.025222 -0.928541 -0.376072
0.639355 -0.269233 0.569550 -0.154700 0.988965 -0.003960
0.576333 0.220928 -0.499288 -0.549040 -0.834634 0.065715
0.227389 -0.034880 0.193845 -0.480366 -0.269011 -0.836372
-0.154926 -0.218244 -0.859340 -0.201571 0.690554 0.697274
0.159044 -0.261872 0.067520 -0.360800 0.889416 -0.284397
0.600381 0.135536 -0.605238 -0.915344 -0.194972 0.354212
0.068682 0.230386 0.048160 0.484793 -0.810521 0.332484
0.294563 0.257223 -0.441454 0.600243 -0.800954 -0.013694
0.605381 0.218515 0.714708 0.017274 -0.751864 -0.660890
-0.390332 -0.253813 -0.787513 0.263443 0.799460 0.543193
0.527647 -0.265086 0.672752 0.060909 0.722476 -0.689798
0.404116 -0.138574 0.743135 0.009337 0.236233 -0.972409
0.214340 -0.127239 -0.305854 0.966119 0.222541 -0.136362
0.019952 0.246325 0.666244 0.024069 -0.737406 -0.677092
-0.081364 0.256401 0.609557 0.171523 -0.828347 -0.536580
-0.188456 -0.319368 0.327738 0.069778 0.984620 0.166421
0.819064 0.037771 0.767108 0.007939 -0.181123 -0.984154
0.679280 -0.084987 -0.432974 -0.903121 0.148564 -0.406123
-0.315154 -0.281204 0.286291 0.255295 0.896869 0.363985
-0.456200 -0.264729 -0.636748 -0.116306 0.903314 -0.416528
0.572250 0.223450 -0.504731 -0.549218 -0.834693 0.066571
0.140624 0.260384 -0.741884 -0.070425 -0.904958 -0.423391
0.028759 -0.248646 0.081233 -0.088192 0.933275 0.351729
0.768627 0.087178 0.444934 -0.103854 -0.337380 0.936611
0.690000 -0.230092 0.538956 -0.110374 0.786148 0.609248
0.081535 0.095124 -0.123249 0.761448 -0.300043 0.576806
-0.378079 0.177991 -0.563482 -0.340917 -0.384147 -0.859634
0.934272 0.024691 0.516923 -0.994750 -0.086551 0.072547
-0.011596 0.291989 0.576899 0.171739 -0.827393 -0.537271
0.097981 0.039257 0.765282 0.006793 -0.179058 -0.985040
-0.332155 0.263050 0.391454 0.540045 -0.827555 -0.160739
-0.071481 0.164236 -0.633555 0.023195 -0.497984 -0.868794
0.901707 0.134030 0.506719 -0.628539 -0.616395 0.476359
-0.335675 -0.268209 0.393712 0.361059 0.933468 -0.005323
-0.079635 0.333850 0.477946 0.224631 -0.825429 -0.520847
-0.176405 0.272070 -0.794504 0.121615 -0.890761 0.442397
0.201183 0.121828 0.746937 0.035921 -0.407704 -0.913294
0.540434 -0.172514 0.454565 -0.259968 0.362539 0.896390
0.534019 -0.135784 -0.153067 -0.736197 0.369917 -0.568146
0.607831 0.045593 0.762290 0.007842 -0.179443 -0.984918
-0.569060 -0.098754 -0.787602 0.634360 0.116275 0.766893
0.374612 0.306609 -0.432316 0.145038 -0.990504 -0.018831
-0.034269 0.179285 -0.865790 -0.325229 -0.435228 0.841666
0.354316 -0.066472 0.761585 0.008870 0.236886 -0.972713
0.122145 -0.240484 0.147873 -0.318564 0.841459 -0.438874
-0.227651 0.284100 -0.730246 0.069826 -0.994963 -0.089978
-0.171049 0.298108 0.285363 -0.016707 -0.863338 0.507260
0.128874 0.072659 -0.887539 -0.049967 -0.292573 0.956314
0.119539 -0.064161 -0.546092 0.700035 0.370036 -0.611857
-0.554879 0.212902 -0.731821 0.308307 -0.867142 0.396157
0.383618 0.056720 -0.881936 -0.051856 -0.093597 0.995923
0.641590 -0.137905 -0.328431 -0.798424 0.478828 -0.368669
-0.591563 -0.070278 -0.772575 0.635680 0.116062 0.765420
-0.391452 0.129299 0.558155 0.752675 -0.320165 -0.577496
0.609505 -0.058261 -0.216192 -0.680474 0.151697 -0.718422
0.292422 -0.160513 0.090938 -0.589664 0.274200 -0.761661
-0.317595 0.026629 -0.522040 -0.335761 -0.348923 -0.877142
-0.440098 -0.206885 0.339292 0.623980 0.781861 -0.039508
0.801504 -0.122925 0.480619 -0.108328 0.440868 0.892067
0.481289 0.158506 -0.109278 -0.608745 -0.610963 -0.509128
0.001882 -0.282064 0.155008 -0.138463 0.989365 0.067236
0.455697 0.230401 -0.157368 -0.500597 -0.797660 -0.340880
-0.331480 0.151423 -0.940593 0.339829 -0.627476 0.702910
0.819434 0.087572 0.459041 -0.461649 -0.227780 0.858281
0.302919 -0.259284 -0.750934 -0.148064 0.916973 0.374601
-0.253414 -0.289137 0.259957 0.255240 0.896896 0.364088
0.137501 0.142543 0.232972 -0.911165 -0.411314 0.060257
-0.060756 -0.278137 0.172434 0.129072 0.971348 0.205605
0.871176 0.172460 0.586412 -0.725259 -0.690045 0.021408
-0.331287 -0.136524 0.644992 0.417703 0.468292 -0.779762
0.348638 0.299958 -0.500539 0.674195 -0.739695 0.041047
0.120155 0.213808 0.174512 -0.683170 -0.486671 -0.547575
0.095421 -0.171882 -0.603828 0.280743 0.323490 -0.904710
-0.496053 -0.059231 -0.466297 -0.298693 0.243152 -0.924845
0.915693 -0.119124 0.688697 -0.783656 0.620146 -0.059967
0.533065 -0.229266 0.691798 0.013481 0.560359 -0.829498
0.213836 -0.224561 0.110046 -0.318383 0.842190 -0.438422
0.179853 -0.013264 0.283977 -0.866653 0.249296 0.435191
-0.522500 0.171787 -0.778569 0.499498 -0.644532 0.582110
0.411153 0.132634 0.008481 -0.524038 -0.566278 -0.639241
0.034163 0.258686 0.249080 -0.679190 -0.732609 -0.066509
0.466846 0.111502 0.397468 -0.248279 -0.560817 0.790849
-0.493988 0.076416 0.385438 0.984499 -0.181217 0.017560
-0.299487 -0.282986 0.356944 0.360758 0.933466 -0.004524
0.296062 0.252178 0.669629 0.023736 -0.737289 -0.677564
0.372852 0.180011 -0.001915 -0.509376 -0.644486 -0.573428
-0.581342 -0.055590 -0.429361 0.426721 0.081128 -0.902293
-0.155096 -0.266478 -0.803642 -0.141186 0.828585 0.545244
0.382817 -0.305143 -0.570725 0.193927 0.975711 0.111469
-0.150839 -0.313062 0.283652 -0.020064 0.927570 0.376779
0.572356 0.228752 -0.388454 -0.615902 -0.788587 -0.033404
0.207281 -0.280254 0.618753 -0.035461 0.824190 -0.565524
0.274921 0.156550 0.734968 0.035895 -0.408374 -0.913637
0.525762 0.263076 -0.414463 -0.548483 -0.835174 0.065856
0.039909 -0.262187 -0.718654 -0.040684 0.826583 -0.563426
-0.644274 0.076070 -0.476316 0.711248 -0.264105 -0.654117
0.645052 -0.055512 0.760026 0.010465 0.235390 -0.972751
0.418743 -0.306667 -0.566407 -0.170772 0.924835 0.341718
0.087909 0.274348 0.405197 -0.197225 -0.875866 0.443060
-0.429348 -0.142640 0.141216 0.280821 0.294409 0.915107
-0.386750 0.229563 0.219033 0.627010 -0.583274 0.519511
0.622839 -0.003009 0.413136 -0.169314 0.053041 0.985264
0.189096 0.309631 0.566913 -0.085795 -0.996260 0.045667
0.583731 0.075816 -0.192455 -0.761187 -0.094839 -0.643638
0.543331 0.213537 -0.243453 -0.548851 -0.594454 -0.590229
-0.349874 0.007507 0.661208 0.577170 0.076931 -0.813923
0.092180 0.267134 0.654708 0.027323 -0.921306 -0.391130
-0.366316 0.243312 0.295193 0.698305 -0.715395 -0.051150
0.484621 0.285194 0.612974 0.000951 -0.919260 -0.396447
0.837923 0.014973 0.449266 -0.159679 -0.013205 0.987752
0.659220 0.250613 0.536539 -0.106805 -0.769774 0.630850
-0.312073 0.080210 0.060472 0.168579 -0.390565 0.906325
-0.446464 -0.018460 0.539750 0.895304 0.230684 -0.383261
-0.433619 0.151606 -0.878775 0.498781 -0.645224 0.581983
-0.470506 -0.144525 0.267219 0.921306 0.390303 -0.019421
0.047001 0.250655 0.210887 -0.679113 -0.733061 -0.066618
0.256816 -0.212491 -0.292827 0.528730 0.825259 0.203657
-0.404950 -0.161242 -0.530571 -0.350379 0.375533 -0.860053
0.495384 0.197684 0.448648 -0.116403 -0.338912 0.934731
-0.160826 0.200441 0.678123 0.085730 -0.455877 -0.887969
0.375106 -0.284076 -0.263526 0.547996 0.837470 0.015986
-0.411407 -0.096597 -0.914267 0.368566 0.476924 0.800716
0.704025 -0.192032 0.715314 0.013302 0.560136 -0.829159
-0.279051 0.098056 0.696084 0.641109 -0.205372 -0.741093
0.815179 0.227174 0.676509 -0.196268 -0.968272 -0.158634
-0.536976 -0.253554 -0.688496 0.294209 0.858051 0.423214
0.075513 0.143452 -0.088755 0.642959 -0.629122 0.440587
0.588682 -0.275552 0.616240 -0.058405 0.995193 -0.092100
0.197348 -0.190972 0.156747 -0.589529 0.274115 -0.762090
-0.479467 -0.178100 -0.827505 0.561927 0.609786 0.562188
0.542284 -0.063304 -0.779989 -0.822205 -0.113776 0.560779
0.656870 0.125534 0.445618 -0.104961 -0.337941 0.936221
0.092122 -0.275436 0.414936 -0.416704 0.813940 0.407389
-0.442817 -0.081263 0.137718 0.847933 0.222242 0.484014
-0.075422 0.245213 -0.670870 -0.069426 -0.917238 -0.394761
0.404183 -0.254101 -0.094245 -0.303208 0.927086 -0.223490
0.681608 -0.017976 -0.322484 -0.943137 0.270923 -0.197440
-0.284627 0.127205 0.683886 0.633615 -0.207067 -0.746404
0.095274 -0.052643 0.773240 -0.020449 0.216596 -0.977256
-0.275248 0.084454 -0.957377 0.036461 -0.106824 0.995603
0.596228 -0.064734 0.421106 -0.082093 0.388335 0.918756
0.802968 0.043118 0.443942 -0.230897 -0.043352 0.973113
-0.492804 -0.249155 -0.578213 -0.084114 0.929044 -0.365631
0.502899 -0.282391 -0.340371 -0.403373 0.905107 -0.143337
0.520310 -0.170116 -0.725145 -0.615682 0.610418 0.499973
0.210643 -0.176738 0.733315 0.014040 0.351623 -0.937288
-0.075040 -0.071301 0.749792 0.048304 0.049401 -0.998409
0.671868 -0.104260 -0.496658 -0.915635 0.399569 0.063908
-0.103887 -0.150991 -0.615363 -0.019815 0.292667 -0.957647
-0.662224 -0.107032 -0.689033 0.889687 0.240386 0.392206
0.269684 -0.064066 -0.883063 -0.020813 0.034721 1.000695
-0.409099 0.171813 -0.896589 0.256648 -0.849421 0.465649
0.432795 -0.023492 0.020353 -0.510407 -0.084866 -0.857356
-0.033143 -0.117146 -0.005372 0.241900 0.451594 0.860437
0.732660 0.101512 0.754157 0.016550 -0.220432 -0.975851
0.672978 -0.101223 0.748889 0.010945 0.232817 -0.973313
-0.457987 0.011781 -0.897379 0.616002 0.133348 0.778472
0.354052 0.155199 0.401916 -0.159339 -0.379789 0.912589
0.171480 0.253876 0.007862 -0.049553 -0.989691 0.143420
