ply
format ascii 1.0
element vertex 512
property float x
property float y
property float z
property float nx
property float ny
property float nz
end_header
-0.374369 0.257801 0.149882 -0.061824 -0.984099 -0.162330
-0.116925 -0.243451 -0.188673 0.133206 0.767547 -0.624781
0.515861 -0.186017 0.212623 -0.805912 0.587591 0.065079
-0.244562 -0.159342 -0.369859 0.103697 0.437275 0.891965
-0.249649 -0.175520 0.272627 -0.502034 0.808277 -0.303896
0.417397 -0.233301 0.583403 0.342793 0.905530 -0.249209
0.573376 0.068083 0.232778 -0.957230 -0.285375 0.020878
-0.373738 -0.135089 0.326828 0.720014 0.234738 -0.654390
0.524627 -0.272916 0.571184 0.126359 0.990901 -0.045323
-0.426402 0.113846 0.289046 0.717874 -0.253020 -0.648101
0.344307 0.169206 0.569043 0.885248 -0.399248 -0.242403
0.113667 -0.228768 -0.820219 -0.198530 0.685989 0.698385
0.561642 0.098189 0.190948 -0.958808 -0.285372 0.021320
-0.314534 0.102015 0.406697 0.038696 -0.350478 -0.934971
-0.193045 0.082399 0.210394 -0.925087 -0.358250 -0.119679
0.090383 -0.251281 -0.769949 0.192422 0.881455 0.429793
-0.335735 0.186055 0.348371 0.380783 -0.487878 -0.786943
0.210277 -0.111478 -0.876503 -0.821394 0.203082 0.532178
0.665344 -0.132618 0.778590 -0.649727 0.296356 -0.700261
-0.660486 -0.104251 -0.050314 0.895230 0.267694 -0.357189
0.340070 0.206159 0.329925 0.686985 -0.723113 -0.062751
0.278589 -0.279895 -0.251929 -0.143266 0.981005 0.131420
0.481253 0.229227 0.131852 -0.466511 -0.882683 -0.010734
0.390719 -0.265465 -0.112294 -0.549146 0.828976 0.091886
0.499057 0.235999 0.318073 -0.399265 -0.865591 0.299775
-0.160430 0.016505 0.027544 -0.976820 -0.175052 -0.118996
0.550297 -0.253667 0.696921 0.249108 0.944386 -0.211330
-0.582743 0.132491 -0.290099 0.540062 -0.296538 0.787704
0.541974 0.257332 0.688274 -0.079201 -0.989741 -0.114694
-0.035527 -0.143208 -0.087128 0.270473 0.199210 -0.941206
-0.472095 -0.296688 -0.122824 0.073958 0.995848 -0.037542
0.277123 -0.257959 -0.359542 -0.404170 0.874875 0.262252
-0.536334 -0.176767 0.135768 0.538091 0.727823 -0.420871
0.339303 0.209371 -0.326445 -0.569978 -0.712062 0.408895
-0.553001 -0.007805 -0.327862 0.431961 0.087363 0.898309
-0.398690 -0.239351 -0.269397 0.019132 0.845921 0.529203
0.616542 -0.128041 0.352689 -0.801799 0.242420 0.544142
-0.178102 -0.095845 0.102996 -0.911054 0.313666 -0.266855
0.116400 -0.213635 -0.061868 0.386195 0.760125 -0.518984
0.335636 -0.011247 -0.564119 -0.964019 -0.043655 0.260067
0.307280 0.127684 0.495866 0.920245 -0.344558 -0.187136
-0.650351 -0.191764 -0.132376 0.903734 0.426030 -0.007539
0.424276 0.261652 0.308858 0.027150 -0.998947 0.031330
0.617300 0.253515 0.593176 -0.566984 -0.787563 0.239939
-0.214538 -0.148732 0.163517 -0.910421 0.313409 -0.266477
0.557780 0.016878 0.847981 0.068152 -0.168318 -0.982797
-0.170841 -0.016497 0.135475 -0.970768 0.150794 -0.183191
0.587153 0.224411 0.751172 -0.161239 -0.714242 -0.681300
-0.680538 -0.040982 -0.053188 0.893953 0.268449 -0.357366
-0.204129 0.238653 -0.301396 0.058094 -0.865875 0.495244
-0.112041 -0.009279 -0.802440 0.993024 -0.082193 0.085244
0.289049 -0.209393 -0.549700 -0.466077 0.870989 0.152686
0.053679 -0.258139 -0.170377 0.345116 0.775208 -0.526597
-0.445200 -0.278679 0.032739 0.387059 0.900474 -0.190804
0.154420 -0.037885 -0.916134 -0.310744 0.025356 0.949965
0.450486 -0.103484 -0.294377 -0.836548 0.156513 0.527247
-0.288571 0.135063 -0.383103 0.130796 -0.388545 0.911538
0.061471 -0.245590 -0.772091 0.192402 0.881909 0.430105
0.339944 0.035955 -0.539080 -0.961863 -0.039752 0.268879
-0.237797 0.224598 -0.034720 -0.695023 -0.706951 -0.126159
-0.252634 0.141814 -0.382600 0.092344 -0.392505 0.915059
-0.019969 -0.007402 -0.903602 0.554370 0.099789 0.826057
-0.336447 0.206438 0.317632 0.277640 -0.849434 -0.448188
-0.358077 -0.205327 -0.327824 0.087177 0.765934 0.635342
-0.647924 -0.133188 -0.218979 0.738794 0.456914 0.495165
0.498279 -0.274458 0.521154 -0.080683 0.994909 0.041686
0.438234 0.045863 0.819924 0.647084 -0.289662 -0.705373
0.169586 0.023084 -0.912625 -0.309966 0.025869 0.949640
0.431877 0.191968 0.688801 0.559773 -0.387792 -0.732434
0.429693 0.239183 0.609043 0.596329 -0.729140 -0.335393
0.687395 0.115242 0.692292 -0.965148 -0.232704 -0.118657
0.109094 0.291279 -0.233312 0.199576 -0.977172 -0.062936
0.619242 -0.202742 0.473184 -0.692511 0.611784 0.380229
-0.685666 0.034207 -0.055086 0.907477 -0.057020 -0.416322
-0.382748 0.013322 0.358375 0.731511 -0.090381 -0.674868
0.466624 0.179128 -0.160677 -0.801436 -0.555193 0.220084
0.574671 -0.023916 0.072726 -0.949472 0.307814 0.046677
-0.355286 0.230378 -0.309256 0.029898 -0.848292 0.527742
0.477696 -0.060919 -0.264777 -0.835002 0.155976 0.526515
0.537753 -0.155167 0.840094 0.501283 0.423517 -0.753209
-0.505189 0.274589 -0.072499 0.381075 -0.909487 -0.165710
-0.345895 -0.304394 -0.097656 0.073951 0.994956 -0.037517
0.049637 0.011331 -0.929629 -0.066879 -0.195257 0.979042
-0.169048 0.193738 -0.101073 -0.470966 -0.514219 -0.715775
-0.643243 0.180468 -0.083451 0.818754 -0.475327 -0.321047
0.284388 -0.288143 -0.249665 -0.404234 0.875600 0.262436
0.252150 0.297539 -0.170854 -0.117128 -0.988432 0.087306
-0.169363 -0.104886 -0.023435 -0.971672 0.199054 -0.125970
0.646496 0.190902 0.483554 -0.729366 -0.624333 0.275834
-0.017594 -0.266333 -0.289798 0.025989 0.995474 0.081332
-0.021372 -0.096560 -0.074054 0.270958 0.199222 -0.942397
0.072154 -0.270475 -0.190785 0.310119 0.876839 -0.361843
0.481186 0.229103 0.170317 -0.466162 -0.884045 -0.010720
0.095228 0.215567 -0.093189 0.488617 -0.710694 -0.504166
0.677323 -0.112353 0.496726 -0.898641 0.342482 0.273668
0.031747 0.184538 -0.109708 0.582970 -0.413852 -0.698763
-0.048707 0.048806 -0.430235 0.340102 -0.176051 0.923441
0.355105 -0.233461 -0.306045 -0.762606 0.582602 0.280169
-0.425994 -0.060794 -0.372795 0.263982 0.114186 0.957099
0.023444 -0.135086 -0.066779 0.435482 0.264635 -0.861071
-0.363677 0.250859 0.185693 -0.082433 -0.984149 -0.153563
0.630696 0.179850 0.417890 -0.730012 -0.626009 0.275576
0.012825 -0.272297 -0.236307 0.239206 0.968833 -0.051226
0.692459 -0.106953 0.534944 -0.957462 0.289055 0.018153
-0.369644 0.293635 -0.179339 0.050508 -0.989620 0.131304
-0.165464 -0.054872 0.045620 -0.972929 0.147148 -0.177102
0.621216 0.249849 0.597804 -0.364575 -0.926037 0.089887
0.255883 0.096424 -0.808386 -0.957092 -0.198288 0.212049
0.384987 0.244763 0.357517 0.687338 -0.723371 -0.062879
-0.042714 0.072775 -0.603303 0.891085 -0.406689 -0.202919
0.289128 -0.214547 -0.505597 -0.470161 0.827837 0.303995
0.657630 -0.013123 0.394205 -0.913671 -0.053949 0.401664
0.220604 0.211592 0.047889 0.802550 -0.578484 -0.141702
0.048061 -0.167725 -0.868795 0.044181 0.635511 0.770453
0.149834 0.297719 -0.205867 0.199687 -0.976678 -0.063248
-0.103680 0.073181 -0.753032 0.916528 -0.184428 -0.357102
0.296311 -0.258643 -0.334956 -0.404598 0.876299 0.262291
-0.040374 -0.141614 -0.416566 0.442431 0.506688 0.739715
0.430381 0.265513 0.396492 0.264645 -0.960944 0.075713
-0.183957 -0.019118 0.217201 -0.970546 0.150633 -0.183543
0.671619 0.185070 0.690921 -0.965397 -0.234094 -0.114732
0.110743 -0.266947 -0.480009 0.480913 0.875023 0.033809
-0.108023 0.034985 -0.787779 0.992333 -0.135368 0.003747
-0.167521 -0.070904 0.004223 -0.981807 0.125917 -0.135321
0.704017 0.017005 0.596997 -0.985426 -0.162653 -0.038852
-0.464484 -0.074217 -0.358642 0.273217 0.149192 0.950004
-0.553976 -0.129226 -0.298676 0.331295 0.488408 0.805478
-0.522542 0.027093 0.207471 0.732839 -0.090809 -0.674337
-0.200350 -0.140112 0.117425 -0.865742 0.432901 -0.249629
0.504541 -0.252613 0.380530 -0.324016 0.876067 0.357981
-0.676131 0.085550 -0.241264 0.609585 -0.038534 0.791375
0.595958 -0.166413 0.363083 -0.713732 0.614888 0.334227
-0.144972 -0.157074 -0.105657 -0.199186 0.347961 -0.915584
-0.454992 -0.295949 -0.067129 0.072860 0.996240 -0.037551
-0.419724 -0.142736 0.276241 0.719846 0.233302 -0.652206
-0.173051 0.114691 -0.016089 -0.931747 -0.323022 -0.165087
-0.067412 -0.147715 -0.767698 0.873837 0.472042 -0.112046
-0.355799 -0.270037 0.129352 -0.095685 0.985786 -0.136519
0.096928 0.093942 -0.903445 -0.056368 -0.319153 0.946098
-0.525450 0.210000 0.106155 0.426958 -0.842401 -0.325368
0.514566 -0.274255 0.555301 -0.080154 0.994351 0.042050
-0.526225 0.101587 0.192971 0.698518 -0.348798 -0.624722
0.251130 -0.240613 0.070454 0.542055 0.689237 -0.478302
-0.447691 0.042223 0.286628 0.731197 -0.089522 -0.674403
0.695506 -0.086822 0.634972 -0.986513 0.161052 -0.026623
-0.530879 0.246638 -0.213988 0.361996 -0.742822 0.562902
-0.037795 0.053021 -0.467012 0.873539 -0.087852 0.479417
0.684206 -0.147107 0.661607 -0.957183 0.289377 0.017255
-0.562723 0.048905 0.162014 0.730743 -0.089001 -0.675780
-0.618330 -0.154122 -0.243794 0.738789 0.457442 0.494490
0.322160 0.160377 -0.478839 -0.903721 -0.310966 0.290634
-0.652639 -0.088020 -0.236794 0.783528 0.280093 0.553933
-0.087926 -0.055104 -0.709474 0.917411 0.034850 -0.396943
-0.050595 -0.180142 -0.775076 0.873597 0.472690 -0.112791
-0.617723 0.039587 -0.284966 0.651815 -0.034025 0.757900
-0.045751 -0.199225 -0.381392 0.127369 0.359059 0.923898
0.348959 0.200645 0.484117 0.686786 -0.723558 -0.063627
0.310706 0.213045 -0.385008 -0.674208 -0.666147 0.315854
-0.350622 0.211545 0.297895 0.277584 -0.849478 -0.448201
0.134295 -0.276085 -0.460962 -0.001258 0.994342 0.096964
-0.176311 -0.234727 -0.317539 0.153413 0.664922 0.730063
-0.579072 0.216064 0.018559 0.427334 -0.841818 -0.328281
0.472528 0.234536 0.685954 0.586307 -0.709040 -0.392136
-0.642866 0.199258 -0.174566 0.679800 -0.590076 0.435208
-0.246077 -0.164621 0.237866 -0.865191 0.433298 -0.247619
0.087807 0.259474 -0.390084 0.592613 -0.803786 -0.043833
0.192864 0.220484 -0.742216 -0.739291 -0.668437 0.076275
0.576146 0.008703 -0.014781 -0.926036 -0.303977 0.225241
-0.057456 0.182986 -0.362801 0.424461 -0.623434 0.656534
0.554499 0.062882 -0.027843 -0.927040 -0.303580 0.223306
0.456975 0.245631 0.010819 -0.837633 -0.536249 0.094773
0.566533 -0.242243 0.463345 -0.344947 0.919355 0.189095
0.409862 -0.263369 0.259111 -0.112763 0.991306 0.052824
-0.509937 -0.154740 -0.303365 0.333180 0.490222 0.805432
-0.162819 -0.056699 0.003255 -0.971696 0.199949 -0.126240
0.456213 -0.095341 -0.296444 -0.808411 0.443117 0.385275
-0.449498 0.144909 0.249969 0.716226 -0.255462 -0.649229
0.435196 -0.097792 -0.320492 -0.835778 0.156602 0.525647
-0.228185 -0.066507 -0.411314 0.109256 0.328749 0.938047
-0.177776 0.149882 -0.051101 -0.968455 -0.216746 -0.116910
0.626905 0.243662 0.646496 -0.451929 -0.862711 -0.225099
-0.609424 -0.195025 -0.031599 0.681111 0.644761 -0.344824
0.445307 0.143999 -0.249309 -0.723473 -0.512982 0.462518
-0.525420 -0.048055 0.205981 0.787333 0.141972 -0.599107
0.221345 0.289146 -0.314434 -0.127558 -0.987517 0.081926
0.339163 0.055010 -0.528187 -0.897409 -0.306580 0.316291
-0.207693 -0.082483 -0.407977 0.108449 0.328789 0.937523
0.016199 0.122727 -0.897768 -0.056822 -0.319447 0.945483
-0.545377 -0.104815 0.163800 0.698864 0.264012 -0.661785
0.528587 0.002511 -0.179914 -0.902685 0.023309 0.430167
-0.380938 0.256524 0.159266 -0.061402 -0.984071 -0.162920
-0.154504 -0.258367 -0.229374 -0.201185 0.977438 -0.051277
0.117411 0.060215 0.028297 0.895493 -0.078321 -0.440424
0.512967 -0.003714 -0.213086 -0.901356 0.022779 0.429574
0.099757 -0.025291 0.017103 0.888370 0.182352 -0.421804
0.232923 0.164005 0.134059 0.529948 -0.682047 -0.503729
0.334465 0.148422 -0.452224 -0.902348 -0.314180 0.293271
-0.382143 0.025955 0.358338 0.731798 -0.089930 -0.674785
0.192841 -0.265485 -0.518798 -0.246476 0.953341 0.170485
-0.613031 -0.095905 0.072473 0.836602 0.354005 -0.415990
0.565301 0.081975 0.151358 -0.957571 -0.285002 0.021374
0.166028 -0.293933 -0.383593 0.341577 0.932595 0.114000
0.132406 0.284023 -0.511151 0.299295 -0.953541 0.003855
-0.383356 0.082340 -0.386937 0.286008 -0.062284 0.955987
0.489706 0.178726 -0.067593 -0.838765 -0.537409 0.096144
0.283227 -0.150147 -0.656757 -0.807445 0.461165 0.367087
-0.217551 -0.125329 0.209887 -0.865682 0.434955 -0.247179
-0.544183 0.228470 -0.239985 0.290222 -0.833678 0.468970
0.260363 -0.095672 -0.767178 -0.902530 0.394190 0.176108
0.453620 0.260977 0.578483 0.425748 -0.868369 -0.252116
-0.277746 0.237963 0.080930 -0.601055 -0.784483 -0.143641
0.679193 0.094480 0.478558 -0.939794 -0.095421 0.328043
0.312136 -0.004320 -0.647054 -0.964960 -0.043585 0.259725
-0.122799 -0.251280 -0.282688 0.203808 0.977083 -0.035643
0.337600 -0.235403 0.228498 0.570588 0.796265 -0.196463
0.534538 0.060255 -0.117555 -0.925727 -0.304205 0.223963
-0.153914 0.238672 -0.155669 -0.571494 -0.529775 -0.627119
0.390851 -0.268662 0.143570 -0.011529 0.997846 -0.049794
-0.516765 -0.191874 0.134180 0.539036 0.728812 -0.421529
0.641853 -0.109547 0.401482 -0.855260 0.396910 0.330122
0.581567 -0.027955 0.193878 -0.949560 0.308362 0.046976
-0.666253 0.129995 -0.068278 0.819605 -0.475398 -0.320896
0.119660 -0.060807 0.031980 0.938146 0.144453 -0.312519
0.021597 -0.256964 -0.293437 0.342736 0.931181 0.113285
0.651654 -0.058349 0.813547 -0.607061 0.145325 -0.780799
-0.354909 0.219214 0.280037 0.277511 -0.849603 -0.448145
0.270438 0.285088 -0.027067 0.219047 -0.923201 -0.315401
-0.430202 -0.279753 0.059269 0.387611 0.900777 -0.190826
-0.456667 -0.279263 0.001934 0.386532 0.900135 -0.191049
0.374647 -0.057227 -0.459944 -0.911054 0.195922 0.361834
0.426377 0.266019 0.449772 0.574757 -0.816494 -0.056817
0.265623 -0.038404 0.364607 0.991984 0.039727 -0.123449
0.132494 -0.126418 -0.893611 0.020051 0.517529 0.855015
-0.518690 -0.071735 -0.338205 0.431316 0.087090 0.897774
0.432498 0.190443 0.704667 0.585755 -0.708924 -0.392592
-0.359793 -0.265530 0.165202 -0.095646 0.984657 -0.136616
-0.166103 0.043436 0.031896 -0.976776 -0.174717 -0.120615
0.045732 -0.221224 -0.520783 0.660222 0.715783 0.225525
0.265857 0.196034 -0.586662 -0.640972 -0.732344 0.225798
-0.635337 0.051972 -0.274534 0.608594 -0.039163 0.793714
-0.087465 -0.241246 -0.328972 0.153001 0.665809 0.730855
-0.479829 0.058860 0.249396 0.732357 -0.090575 -0.674603
0.153165 -0.295645 -0.257476 0.096372 0.970075 -0.218741
0.302483 -0.121533 -0.650709 -0.808440 0.461202 0.368488
0.348923 0.138917 -0.418756 -0.898953 -0.313657 0.302887
0.429766 0.194837 -0.217733 -0.722854 -0.512650 0.462298
0.348081 -0.101199 0.642774 0.900000 0.115589 -0.422024
-0.209202 -0.036196 0.317651 -0.902414 0.336603 -0.266695
0.246055 0.116325 0.206620 0.932668 -0.328857 -0.152192
0.577241 -0.248081 0.517393 -0.344353 0.918307 0.189756
-0.622994 0.115529 0.034574 0.823176 -0.405674 -0.396439
0.670618 0.197188 0.567994 -0.921744 -0.289915 0.257434
-0.456621 0.122959 0.257124 0.699295 -0.348488 -0.623474
0.461116 0.221247 -0.072945 -0.837240 -0.536238 0.096113
-0.083289 -0.123046 -0.791081 0.873412 0.473482 -0.113181
0.096834 0.232368 -0.830411 -0.249586 -0.714291 0.652809
-0.217898 -0.104693 -0.399607 0.102774 0.438610 0.891510
0.008932 -0.006977 -0.923649 0.554587 0.099800 0.826520
0.294813 -0.245979 -0.378887 -0.404397 0.875372 0.262038
0.504029 0.214490 0.751895 0.478346 -0.796819 -0.367916
-0.180477 0.230432 -0.318349 0.057561 -0.866034 0.496617
-0.267745 -0.271860 -0.231814 0.071336 0.868045 0.490824
0.683662 -0.098908 0.490133 -0.857903 0.396042 0.326442
-0.303468 -0.049160 -0.404687 0.167232 0.088760 0.982070
-0.688637 0.105002 -0.092804 0.819492 -0.475550 -0.321036
0.198473 -0.140916 -0.867508 -0.485496 0.455327 0.745996
0.329972 0.061203 -0.548679 -0.897388 -0.306991 0.315946
0.098619 -0.249145 -0.127011 0.387721 0.759538 -0.519421
0.263705 0.170936 -0.651270 -0.692416 -0.699602 0.176346
0.062811 0.121202 -0.041383 0.583238 -0.414262 -0.698637
0.127245 0.294839 -0.244760 0.199544 -0.976477 -0.062750
0.338362 0.254748 0.146096 0.685232 -0.709898 -0.165461
-0.114336 -0.017456 -0.759071 0.916914 0.036450 -0.395449
0.585973 0.171665 0.340009 -0.821122 -0.339233 0.460829
-0.072329 0.159603 -0.774123 0.746522 -0.665521 -0.069216
0.373728 0.221682 0.502474 0.687387 -0.723852 -0.063452
0.282973 -0.253705 0.091510 0.541351 0.689823 -0.479118
0.141424 -0.296275 -0.226280 0.217052 0.970974 -0.090505
0.512045 -0.187269 0.180092 -0.805919 0.585667 0.063864
0.197502 0.290118 -0.390691 -0.466882 -0.869249 0.153254
0.694510 -0.036061 0.771860 -0.874953 0.074024 -0.477818
0.473503 -0.015602 -0.281063 -0.868988 0.009097 0.494294
0.205603 -0.285600 -0.094063 0.565484 0.797349 -0.200227
0.084222 0.257553 -0.488288 0.558691 -0.828237 -0.045598
0.242579 0.069176 -0.856853 -0.888996 -0.093562 0.447870
0.345170 0.241162 -0.266892 -0.569869 -0.712231 0.408558
-0.599933 0.182394 0.016148 0.739934 -0.619699 -0.259842
0.631374 0.243825 0.560105 -0.728997 -0.625728 0.275425
0.504378 -0.124937 -0.166475 -0.807365 0.444919 0.387951
-0.408246 0.289817 -0.014149 -0.012258 -0.989711 -0.138971
0.443607 -0.186354 -0.212445 -0.725335 0.626315 0.282633
0.482670 0.219623 0.089341 -0.836914 -0.537084 0.097901
-0.530721 0.260479 -0.055927 0.380662 -0.909654 -0.166115
0.233830 -0.159370 0.152754 0.706166 0.510444 -0.488469
0.050659 0.276059 -0.305434 0.216215 -0.949308 0.225661
0.241619 0.293116 -0.226281 -0.126240 -0.987016 0.084350
-0.243527 0.007991 -0.419563 0.172436 0.089783 0.980228
0.665091 0.107264 0.443499 -0.939653 -0.084999 0.332459
-0.690156 -0.032237 -0.209218 0.785489 0.277635 0.553717
0.421008 -0.028868 -0.361988 -0.831968 -0.024966 0.552209
-0.387231 -0.120776 -0.370447 0.300430 0.449189 0.841311
-0.303778 -0.231881 0.217879 -0.717097 0.675612 -0.166707
-0.322594 0.189157 0.343767 0.044135 -0.806734 -0.588801
0.266104 0.303009 -0.112107 0.036622 -0.967384 -0.246501
0.525213 0.138633 0.016466 -0.838444 -0.537107 0.098042
-0.424418 0.293741 -0.165520 0.231459 -0.957602 0.166848
0.570596 0.061511 0.131896 -0.957481 -0.284934 0.021818
0.133710 -0.046238 0.070611 0.909850 0.159660 -0.381568
-0.693397 0.010140 -0.070699 0.906879 -0.056475 -0.416244
0.706827 -0.057852 0.560916 -0.953999 -0.091129 0.283289
0.232148 -0.087328 -0.849650 -0.863554 0.220879 0.453271
-0.438574 -0.190858 0.239189 0.538167 0.728503 -0.421553
-0.069193 -0.178395 -0.386860 0.127083 0.359429 0.923854
-0.404988 0.040373 0.331786 0.733024 -0.089985 -0.675352
0.325016 -0.158717 0.529265 0.951565 0.296044 -0.087169
0.281708 0.276535 -0.291865 -0.349877 -0.909081 0.220306
-0.015771 0.216120 -0.359529 0.424563 -0.623985 0.655984
-0.090845 0.018539 -0.429721 0.100007 0.039953 0.994723
-0.594447 -0.076625 -0.299335 0.431542 0.086755 0.897541
-0.556610 -0.177654 0.093346 0.623186 0.688758 -0.368235
-0.177377 -0.262004 -0.202642 -0.200920 0.977135 -0.051385
-0.545230 -0.237278 -0.213548 0.471423 0.740432 0.479088
0.501753 0.059889 -0.200092 -0.870055 -0.317401 0.374912
-0.533959 -0.182051 -0.276620 0.334559 0.492401 0.804614
0.308850 0.170019 0.383313 0.936786 -0.319991 -0.145111
0.118041 -0.137241 -0.003125 0.787057 0.487911 -0.375185
0.263818 -0.298384 -0.050436 0.270859 0.930765 -0.238463
-0.037494 -0.008038 -0.518489 0.997368 -0.069232 0.039078
-0.557622 0.164748 0.121015 0.823479 -0.406716 -0.396199
-0.330760 0.255261 0.131632 -0.086028 -0.986241 -0.137769
-0.715510 0.041746 -0.164415 0.993581 -0.001957 -0.116680
0.291260 0.023798 -0.718021 -0.956108 -0.198344 0.211236
-0.462072 -0.237202 0.125512 0.537218 0.730395 -0.421040
-0.024167 -0.129775 -0.871464 0.642029 0.397402 0.655184
0.352699 -0.196801 0.476534 0.623996 0.765411 -0.157248
0.350093 0.287370 -0.013266 -0.047101 -0.989705 -0.131335
-0.085933 -0.099162 -0.702166 0.873252 0.472898 -0.112855
0.496491 -0.092121 -0.227333 -0.835463 0.156271 0.525594
0.319053 0.291229 -0.150217 -0.124730 -0.987892 0.084253
0.278566 -0.042103 -0.728029 -0.916435 0.162777 0.364192
-0.578471 0.224268 -0.212220 0.362032 -0.743844 0.562959
-0.709262 0.049809 -0.121230 0.990713 0.014053 -0.136645
-0.374903 0.251499 -0.276848 0.017466 -0.822606 0.567430
0.525843 0.230025 0.335673 -0.399494 -0.865970 0.300216
0.091190 -0.261443 -0.150850 0.343922 0.775962 -0.526142
-0.114165 -0.037788 -0.426811 0.098664 0.041023 0.994524
0.128108 0.269894 -0.135410 0.468082 -0.742951 -0.477799
0.344621 -0.099831 0.636640 0.898903 0.114981 -0.422232
-0.126633 -0.259104 -0.227553 0.118047 0.991032 0.041387
-0.359703 -0.225531 0.265557 0.325682 0.745372 -0.579931
-0.247594 -0.236857 -0.098617 -0.552529 0.622464 -0.551771
-0.480649 -0.291422 -0.168787 0.087311 0.993395 0.042382
0.301956 0.272688 0.034742 0.264018 -0.938110 -0.220915
-0.092003 0.015748 -0.694983 0.915400 -0.184252 -0.356836
0.533788 -0.230767 0.762158 0.263745 0.939381 -0.215440
0.144631 0.289507 -0.463268 0.299108 -0.953706 0.003527
-0.248230 0.220821 0.045763 -0.694692 -0.707534 -0.127016
-0.064366 0.166855 -0.768345 0.744601 -0.663860 -0.069286
-0.227753 0.171763 0.183412 -0.908319 -0.391324 -0.142226
-0.171965 0.144673 -0.388386 0.092378 -0.392203 0.914336
-0.178806 0.259984 -0.265727 0.058381 -0.866576 0.495535
0.371318 0.130065 -0.389570 -0.870158 -0.289156 0.401995
0.199092 0.226389 -0.698684 -0.308293 -0.919893 0.240509
-0.014771 0.194442 -0.380392 0.424440 -0.623397 0.655922
0.236398 0.175076 -0.747739 -0.730085 -0.671091 0.123186
-0.034325 -0.159000 -0.624619 0.772201 0.586849 -0.241391
0.034406 -0.271854 -0.209309 0.229538 0.970245 -0.057507
0.244704 -0.087569 -0.852741 -0.897822 0.401705 0.175471
-0.051888 0.219195 -0.151195 0.052866 -0.625440 -0.778105
-0.334271 -0.271096 -0.234092 0.031035 0.815012 0.577661
-0.114448 -0.025647 -0.768352 0.985144 0.126890 -0.114533
-0.026370 0.182729 -0.832899 0.609386 -0.659817 0.438956
0.135639 0.269196 -0.128610 0.487728 -0.709153 -0.508468
0.215268 -0.265345 -0.008017 0.541838 0.689197 -0.478851
0.249156 -0.222561 -0.598832 -0.466081 0.871247 0.152516
-0.174897 0.227986 -0.323015 0.091583 -0.873308 0.475919
-0.454007 -0.270941 -0.211590 0.072914 0.863471 0.497506
-0.003335 0.213272 -0.704663 0.697508 -0.644018 -0.316014
-0.564724 0.257239 -0.099784 0.403575 -0.875443 -0.265382
-0.057236 0.190881 -0.357772 0.423618 -0.623309 0.656678
-0.106358 0.261171 -0.197221 -0.000998 -0.964426 -0.261136
-0.048154 0.180023 -0.735834 0.802320 -0.500345 -0.326498
0.237212 -0.239832 -0.543816 -0.464723 0.871806 0.152263
0.541016 -0.027513 -0.142340 -0.966924 0.095005 0.234960
-0.436573 -0.201781 0.222209 0.537796 0.727952 -0.421356
-0.180618 -0.071921 0.143005 -0.911303 0.313103 -0.266138
0.591857 -0.094278 0.290249 -0.832722 0.400930 0.380969
-0.583310 0.172470 0.060134 0.823574 -0.406640 -0.396493
-0.174683 0.047204 0.106795 -0.976551 -0.174673 -0.120773
-0.083030 -0.054050 -0.846968 0.832276 0.061811 0.550808
0.080546 -0.268435 -0.361855 0.343460 0.931395 0.114403
0.038386 -0.196507 -0.843739 0.044700 0.634945 0.771184
0.594653 0.122488 0.320640 -0.820357 -0.339465 0.460654
0.588766 0.267493 0.572509 -0.567329 -0.788118 0.240329
0.081676 -0.089184 -0.015819 0.705851 0.136501 -0.695091
-0.670368 -0.034860 -0.021416 0.893018 0.271841 -0.357104
-0.484045 0.008635 -0.364364 0.431710 0.087457 0.898043
0.628271 0.211908 0.736452 -0.398739 -0.848744 -0.346933
-0.428602 0.255104 -0.268134 0.289222 -0.832946 0.469644
0.589023 -0.058076 0.283445 -0.846588 0.163865 0.504833
0.485183 0.276638 0.492574 -0.133307 -0.986239 0.091594
0.005378 -0.186308 -0.552367 0.792437 0.559714 -0.239407
0.369521 -0.289448 -0.038620 -0.408968 0.911347 -0.039782
0.340145 -0.017649 -0.546766 -0.924937 0.049778 0.376119
-0.414714 0.013924 0.321091 0.732341 -0.088097 -0.675800
0.704745 -0.023820 0.551957 -0.988899 0.144156 -0.029168
0.645046 0.004293 0.825805 -0.651323 -0.052896 -0.755869
-0.097564 0.265643 -0.264236 0.057414 -0.865334 0.495493
-0.344022 0.057469 -0.400310 0.286018 -0.062701 0.956505
0.346333 0.213795 0.311566 0.687050 -0.723218 -0.063072
0.006248 -0.186016 -0.517839 0.660041 0.716172 0.225682
0.424769 0.264014 0.251639 0.014263 -0.999155 -0.027988
-0.376413 0.222406 0.261107 0.277457 -0.849223 -0.448396
-0.039177 0.219314 -0.150037 0.052704 -0.623644 -0.778345
-0.097281 -0.020885 -0.427685 0.100301 0.039731 0.994316
-0.490400 -0.128103 0.212851 0.700385 0.264285 -0.663041
-0.619404 -0.199431 -0.197357 0.471795 0.739494 0.478704
-0.326094 0.291480 -0.113495 -0.237058 -0.951000 -0.192564
-0.306775 -0.041730 0.405971 0.107333 0.211153 -0.970087
0.358010 -0.026971 -0.489535 -0.959828 -0.034331 0.280457
-0.496955 0.010106 0.236166 0.733594 -0.090463 -0.672342
-0.336788 -0.274769 -0.220414 0.051171 0.857850 0.509824
0.362857 0.225295 -0.270263 -0.570622 -0.713181 0.408255
-0.674118 0.106252 -0.053784 0.819118 -0.475682 -0.321133
-0.423653 0.257304 0.120443 0.427333 -0.842792 -0.325023
0.098758 -0.183648 -0.859315 0.044413 0.636077 0.770450
-0.568187 -0.118612 0.123263 0.762881 0.210880 -0.611158
-0.306199 -0.054815 -0.402064 0.173627 0.090039 0.981440
0.293964 -0.256902 -0.344294 -0.404429 0.875763 0.262373
-0.067579 0.061077 -0.673223 0.890178 -0.407214 -0.201848
-0.099247 0.106430 -0.408301 0.074288 -0.309999 0.947358
-0.388260 -0.160308 -0.351701 0.280353 0.501619 0.818749
-0.286971 -0.251638 0.051885 -0.615248 0.785630 -0.050460
0.078850 -0.228728 -0.110279 0.387292 0.759816 -0.519235
0.521478 0.269359 0.619297 -0.078489 -0.990026 -0.114802
0.665284 -0.049692 0.424768 -0.924140 0.139932 0.356663
-0.232438 0.266032 -0.203347 -0.354992 -0.914237 0.194142
0.479355 -0.229390 0.182664 -0.798213 0.595665 0.072731
-0.204931 0.109039 0.203247 -0.898949 -0.406158 -0.160803
0.414267 0.131163 0.744273 0.761602 -0.577338 -0.299438
-0.405247 0.300947 -0.105309 0.049852 -0.989120 0.130798
0.660886 -0.169443 0.518839 -0.860139 0.394982 0.324754
-0.097510 -0.062180 -0.815508 0.949580 0.285081 0.125737
0.665510 -0.022895 0.414147 -0.923059 0.138698 0.355939
0.107884 0.255278 -0.605127 0.116253 -0.979258 0.163630
0.511784 0.243996 0.358041 -0.399800 -0.866164 0.299854
-0.610075 -0.039489 0.092161 0.803775 0.083499 -0.587740
0.157101 -0.183104 0.021507 0.787680 0.487559 -0.375071
0.201557 0.223872 -0.682986 -0.648336 -0.727513 0.220864
-0.104841 0.032978 -0.734405 0.918324 0.036909 -0.394158
0.173334 0.068497 -0.903528 -0.165962 -0.146979 0.974536
-0.457045 -0.281566 -0.004876 0.362101 0.884561 -0.290892
-0.165513 -0.237642 -0.305580 0.103139 0.798657 0.590756
0.690508 -0.112612 0.566829 -0.957059 0.288011 0.019195
-0.541982 0.130090 -0.319967 0.538749 -0.297359 0.787300
-0.292086 0.269571 -0.247147 0.029080 -0.848096 0.526866
0.477905 0.059096 -0.262296 -0.843324 -0.153172 0.515696
0.154442 -0.216381 -0.819107 -0.199603 0.686609 0.697780
-0.582470 -0.084674 0.119623 0.786159 0.143378 -0.600057
-0.459361 -0.171095 0.245869 0.537372 0.728184 -0.421371
-0.495248 0.036777 0.234190 0.732239 -0.090212 -0.674966
0.434052 0.255107 -0.114217 -0.837912 -0.536822 0.095757
-0.286408 -0.079126 0.399724 0.107049 0.210681 -0.970925
-0.304756 0.283646 -0.107532 -0.591023 -0.805347 -0.032808
-0.212834 0.095404 -0.404934 0.092580 -0.392087 0.914914
-0.317252 -0.195014 0.324511 -0.269628 0.879764 -0.388424
0.537930 0.110017 0.829000 0.002965 -0.457937 -0.889552
0.473683 0.231832 0.075747 -0.838243 -0.537672 0.097042
-0.495667 -0.221040 0.102467 0.567628 0.694420 -0.439737
-0.177882 0.017956 0.197164 -0.891104 -0.326000 -0.312603
0.712075 -0.036865 0.639406 -0.985715 -0.162683 -0.038421
-0.155324 -0.006807 -0.042993 -0.720269 -0.165849 -0.672726
0.561427 0.089990 0.128154 -0.956900 -0.284852 0.021048
-0.314748 -0.205400 0.298795 -0.269707 0.879889 -0.388262
0.558543 -0.242421 0.448841 -0.345698 0.919624 0.188448
0.676312 0.185351 0.572670 -0.922128 -0.289562 0.257669
-0.131885 0.225019 -0.146109 -0.106000 -0.421664 -0.899647
0.016309 -0.245290 -0.727252 0.618926 0.751020 -0.226277
0.423427 0.259813 0.016319 -0.466032 -0.883340 -0.010775
0.253316 -0.284966 -0.244913 -0.143326 0.980022 0.131837
-0.153090 -0.239300 -0.307679 0.103360 0.799592 0.591683
-0.271642 0.242797 -0.291361 0.018636 -0.822857 0.566521
0.628412 -0.179585 0.452727 -0.691684 0.612173 0.381886
0.211821 0.298828 -0.217780 -0.127716 -0.988193 0.081991
-0.165109 0.123504 -0.074277 -0.928361 -0.327229 -0.169628
0.446751 -0.268833 0.491943 0.621700 0.779545 -0.078113
0.367019 -0.157156 -0.414952 -0.841376 0.385137 0.378843
-0.595946 0.028886 -0.310222 0.432537 0.088045 0.897258
0.670476 -0.165789 0.759922 -0.647976 0.296116 -0.699748
-0.560492 0.217572 0.039336 0.420571 -0.863001 -0.280826
-0.438806 -0.296559 -0.060387 0.074321 0.995292 -0.037610
0.007817 0.194309 -0.625371 0.896013 -0.391652 -0.210829
0.140846 0.249756 -0.094630 0.489022 -0.717772 -0.496062
-0.356684 0.214776 -0.331571 0.059487 -0.788660 0.610494
0.260367 0.109096 -0.775038 -0.956669 -0.198315 0.212421
0.297470 0.015888 0.529074 0.974891 -0.118553 -0.189644
0.506960 0.160076 0.804572 0.003025 -0.457168 -0.888293
-0.168617 -0.142829 -0.390339 0.109101 0.325255 0.938764
-0.558333 -0.242180 -0.034651 0.446798 0.802517 -0.391390
0.519193 -0.175061 0.160812 -0.807081 0.586153 0.063755
0.333837 -0.048728 -0.578604 -0.963604 -0.044137 0.259813
0.337537 0.080074 0.642751 0.798529 -0.400927 -0.450603
0.083288 0.252392 -0.599841 0.116405 -0.978596 0.163767
0.664298 0.118823 0.455880 -0.914511 -0.332680 0.227517
0.039095 -0.267591 -0.307595 0.238603 0.949185 0.200404
-0.073736 -0.131066 -0.403773 0.127302 0.359886 0.924807
0.150451 -0.287711 -0.409701 0.341615 0.932119 0.114383
0.250092 0.262991 -0.010662 0.478580 -0.713479 -0.511203
-0.539648 -0.196828 -0.260560 0.413462 0.634478 0.652687
0.462837 0.226786 0.686194 0.586079 -0.708616 -0.391807
-0.419642 -0.231447 0.191234 0.537818 0.729979 -0.421395
-0.217064 0.237511 -0.101118 -0.570392 -0.528613 -0.628741
