ply
format ascii 1.0
element vertex 1062
property float x
property float y
property float z
element face 2066
property list uchar int vertex_indices
end_header
-0.686410 -0.150000 -0.600000
-0.695409 -0.150000 -0.525000
-0.677815 -0.075000 -0.675000
-0.704753 -0.075000 -0.600000
-0.707074 -0.075000 -0.525000
-0.690300 0.000000 -0.675000
-0.707611 0.000000 -0.600000
-0.713053 0.000000 -0.525000
-0.690200 0.075000 -0.600000
-0.692654 0.075000 -0.525000
-0.602186 -0.225000 -0.675000
-0.675000 -0.176516 -0.600000
-0.675000 -0.170966 -0.525000
-0.675000 -0.150000 -0.634346
-0.675000 -0.087756 -0.675000
-0.657800 -0.150000 -0.675000
-0.675000 -0.150000 -0.500054
-0.617671 -0.150000 -0.525000
-0.675000 -0.075000 -0.679308
-0.612987 -0.075000 -0.750000
-0.675000 -0.075000 -0.480751
-0.675000 0.000000 -0.693733
-0.605681 0.000000 -0.750000
-0.675000 0.039979 -0.675000
-0.675000 0.000000 -0.478836
-0.604089 0.000000 -0.525000
-0.675000 0.075000 -0.641073
-0.655777 0.075000 -0.675000
-0.675000 0.099434 -0.600000
-0.675000 0.075000 -0.504829
-0.675000 0.093254 -0.525000
-0.648108 0.075000 -0.525000
-0.600000 -0.226126 -0.675000
-0.600000 -0.225000 -0.676743
-0.600000 -0.225000 -0.663796
-0.600000 -0.215611 -0.600000
-0.600000 -0.150000 -0.729753
-0.600000 -0.102131 -0.750000
-0.564104 -0.150000 -0.750000
-0.600000 -0.150000 -0.533265
-0.600000 -0.118863 -0.525000
-0.600000 -0.075000 -0.761649
-0.600000 -0.075000 -0.516671
-0.600000 -0.016730 -0.525000
-0.586374 -0.075000 -0.525000
-0.600000 0.000000 -0.754564
-0.600000 0.008769 -0.750000
-0.600000 0.000000 -0.527590
-0.600000 0.075000 -0.718314
-0.533321 0.075000 -0.750000
-0.600000 0.144858 -0.675000
-0.600000 0.075000 -0.561156
-0.600000 0.122704 -0.600000
-0.531757 0.075000 -0.600000
-0.531764 0.150000 -0.675000
-0.525000 -0.229734 -0.675000
-0.525000 -0.225000 -0.687715
-0.525000 -0.182555 -0.750000
-0.525000 -0.225000 -0.665857
-0.497700 -0.225000 -0.675000
-0.525000 -0.156017 -0.600000
-0.525000 -0.150000 -0.771331
-0.525000 -0.150000 -0.595968
-0.516573 -0.150000 -0.600000
-0.525000 -0.075000 -0.806174
-0.466192 -0.075000 -0.825000
-0.525000 -0.075000 -0.564964
-0.462526 -0.075000 -0.600000
-0.525000 0.000000 -0.804083
-0.474964 0.000000 -0.825000
-0.525000 0.000000 -0.572917
-0.525000 0.066791 -0.600000
-0.470031 0.000000 -0.600000
-0.525000 0.075000 -0.754211
-0.525000 0.081251 -0.750000
-0.525000 0.075000 -0.603119
-0.525000 0.150000 -0.675541
-0.525000 0.150000 -0.674461
-0.525000 0.150265 -0.675000
-0.450000 -0.223903 -0.750000
-0.433305 -0.225000 -0.750000
-0.450000 -0.211797 -0.675000
-0.450000 -0.150000 -0.813632
-0.450000 -0.099921 -0.825000
-0.403515 -0.150000 -0.825000
-0.450000 -0.150000 -0.628327
-0.450000 -0.075000 -0.829816
-0.450000 -0.075000 -0.606030
-0.450000 0.000000 -0.833321
-0.450000 0.023614 -0.825000
-0.450000 0.000000 -0.608449
-0.450000 0.075000 -0.803072
-0.394979 0.075000 -0.825000
-0.450000 0.142396 -0.750000
-0.450000 0.075000 -0.630665
-0.450000 0.150000 -0.704820
-0.425915 0.150000 -0.750000
-0.450000 0.150000 -0.670864
-0.450000 0.153339 -0.675000
-0.428403 0.150000 -0.675000
-0.375000 -0.227785 -0.750000
-0.375000 -0.225000 -0.756705
-0.375000 -0.162893 -0.825000
-0.375000 -0.225000 -0.739981
-0.375000 -0.191949 -0.675000
-0.308110 -0.225000 0.000000
-0.375000 -0.150000 -0.831502
-0.375000 -0.150000 -0.647861
-0.308764 -0.150000 -0.075000
-0.338378 -0.150000 0.000000
-0.329360 -0.150000 0.075000
-0.330660 -0.150000 0.525000
-0.332715 -0.150000 0.600000
-0.375000 -0.075000 -0.846939
-0.375000 -0.075000 -0.617757
-0.331460 -0.075000 -0.075000
-0.359700 -0.075000 0.000000
-0.363445 -0.075000 0.075000
-0.317971 -0.075000 0.450000
-0.360634 -0.075000 0.525000
-0.358781 -0.075000 0.600000
-0.301283 -0.075000 0.675000
-0.375000 0.000000 -0.852334
-0.375000 0.000000 -0.619036
-0.324033 0.000000 -0.075000
-0.360187 0.000000 0.000000
-0.353080 0.000000 0.075000
-0.311109 0.000000 0.450000
-0.364572 0.000000 0.525000
-0.356775 0.000000 0.600000
-0.306459 0.000000 0.675000
-0.375000 0.075000 -0.831661
-0.375000 0.090045 -0.825000
-0.375000 0.075000 -0.642767
-0.375000 0.134630 -0.675000
-0.305766 0.075000 -0.075000
-0.337011 0.075000 0.000000
-0.327760 0.075000 0.075000
-0.335303 0.075000 0.525000
-0.330645 0.075000 0.600000
-0.375000 0.150000 -0.771387
-0.375000 0.150000 -0.707677
-0.375000 0.160569 -0.750000
-0.300000 -0.238506 -0.750000
-0.300000 -0.234464 0.000000
-0.300000 -0.225000 -0.789778
-0.300000 -0.199088 -0.825000
-0.300000 -0.225000 -0.721289
-0.300000 -0.193769 -0.675000
-0.300000 -0.225000 -0.021723
-0.300000 -0.167711 -0.075000
-0.253272 -0.225000 -0.075000
-0.300000 -0.225000 0.025941
-0.300000 -0.197564 0.075000
-0.266660 -0.225000 0.075000
-0.300000 -0.189286 0.525000
-0.300000 -0.185910 0.600000
-0.257699 -0.225000 0.600000
-0.227223 -0.225000 0.675000
-0.300000 -0.150000 -0.849938
-0.300000 -0.150000 -0.642473
-0.300000 -0.150000 -0.081339
-0.300000 -0.150000 0.105027
-0.300000 -0.150000 0.482095
-0.300000 -0.098234 0.450000
-0.300000 -0.150000 0.640842
-0.300000 -0.078696 0.675000
-0.272398 -0.150000 0.675000
-0.300000 -0.075000 -0.865794
-0.300000 -0.075000 -0.616533
-0.300000 -0.075000 -0.096005
-0.300000 -0.075000 0.138946
-0.251706 -0.075000 0.150000
-0.300000 -0.075000 0.440183
-0.279560 -0.075000 0.450000
-0.300000 -0.075000 0.676817
-0.240388 -0.075000 0.750000
-0.300000 0.000000 -0.868726
-0.300000 0.000000 -0.619053
-0.300000 0.000000 -0.090184
-0.300000 0.000000 0.126564
-0.234368 0.000000 0.150000
-0.300000 0.000000 0.444699
-0.300000 0.035333 0.450000
-0.290165 0.000000 0.450000
-0.300000 0.000000 0.683574
-0.300000 0.027210 0.675000
-0.244861 0.000000 0.750000
-0.300000 0.075000 -0.848661
-0.300000 0.132884 -0.825000
-0.300000 0.075000 -0.643421
-0.300000 0.131266 -0.675000
-0.300000 0.075000 -0.079596
-0.300000 0.087153 -0.075000
-0.300000 0.135833 0.000000
-0.300000 0.075000 0.099611
-0.300000 0.109213 0.075000
-0.300000 0.075000 0.461086
-0.300000 0.118105 0.525000
-0.300000 0.075000 0.652976
-0.300000 0.145701 0.600000
-0.284460 0.075000 0.675000
-0.300000 0.150000 -0.801620
-0.244636 0.150000 -0.825000
-0.300000 0.150000 -0.705268
-0.300000 0.165557 -0.750000
-0.260412 0.150000 -0.075000
-0.287552 0.150000 0.000000
-0.248800 0.150000 0.075000
-0.284965 0.150000 0.600000
-0.229403 0.150000 0.675000
-0.225000 -0.246696 -0.750000
-0.225000 -0.240289 -0.075000
-0.225000 -0.282583 0.000000
-0.225000 -0.249862 0.075000
-0.225000 -0.249066 0.600000
-0.225000 -0.226933 0.675000
-0.225000 -0.225000 -0.820376
-0.225000 -0.222507 -0.825000
-0.225000 -0.225000 -0.710145
-0.225000 -0.195236 -0.675000
-0.225000 -0.225000 -0.088090
-0.225000 -0.225000 0.096059
-0.225000 -0.225000 0.535081
-0.225000 -0.218450 0.525000
-0.225000 -0.225000 0.677626
-0.225000 -0.150000 -0.865103
-0.225000 -0.150000 -0.647227
-0.225000 -0.150000 -0.117951
-0.225000 -0.150000 0.135361
-0.225000 -0.094639 0.150000
-0.175379 -0.150000 0.150000
-0.225000 -0.150000 0.486015
-0.225000 -0.150000 0.727264
-0.225000 -0.106436 0.750000
-0.195948 -0.150000 0.750000
-0.225000 -0.075000 -0.877157
-0.225000 -0.075000 -0.622884
-0.225000 -0.075000 -0.131955
-0.176258 -0.075000 -0.150000
-0.225000 -0.075000 0.155276
-0.225000 -0.075000 0.476149
-0.225000 -0.075000 0.763509
-0.225000 0.000000 -0.878223
-0.225000 0.000000 -0.624938
-0.225000 0.000000 -0.130474
-0.181024 0.000000 -0.150000
-0.225000 0.000000 0.152725
-0.225000 0.012849 0.150000
-0.225000 0.000000 0.485417
-0.225000 0.000000 0.767007
-0.225000 0.040989 0.750000
-0.225000 0.075000 -0.858788
-0.225000 0.075000 -0.648422
-0.225000 0.127882 -0.675000
-0.225000 0.075000 -0.120079
-0.171569 0.075000 -0.150000
-0.225000 0.075000 0.135767
-0.185582 0.075000 0.150000
-0.225000 0.075000 0.495570
-0.225000 0.116388 0.525000
-0.166654 0.075000 0.525000
-0.225000 0.075000 0.730779
-0.193786 0.075000 0.750000
-0.225000 0.150000 -0.827754
-0.225000 0.152597 -0.825000
-0.225000 0.150000 -0.703811
-0.225000 0.167616 -0.750000
-0.225000 0.150000 -0.098894
-0.225000 0.178362 -0.075000
-0.225000 0.197623 0.000000
-0.225000 0.150000 0.088164
-0.225000 0.163713 0.075000
-0.225000 0.150000 0.584175
-0.225000 0.156248 0.600000
-0.225000 0.150000 0.677906
-0.225000 0.152368 0.675000
-0.150000 -0.248206 -0.750000
-0.150000 -0.263263 -0.075000
-0.150000 -0.294697 0.000000
-0.106950 -0.300000 0.000000
-0.150000 -0.266018 0.075000
-0.150000 -0.253283 0.600000
-0.150000 -0.256622 0.675000
-0.150000 -0.225000 -0.815297
-0.150000 -0.220551 -0.825000
-0.150000 -0.225000 -0.707757
-0.150000 -0.196775 -0.675000
-0.150000 -0.225000 -0.117487
-0.088330 -0.225000 -0.150000
-0.150000 -0.225000 0.118905
-0.150000 -0.167386 0.150000
-0.150000 -0.225000 0.561322
-0.150000 -0.168153 0.525000
-0.150000 -0.225000 0.726637
-0.150000 -0.197729 0.750000
-0.094980 -0.225000 0.750000
-0.150000 -0.150000 -0.872102
-0.150000 -0.150000 -0.650404
-0.150000 -0.150000 -0.145692
-0.150000 -0.126649 -0.150000
-0.139373 -0.150000 -0.150000
-0.150000 -0.150000 0.157348
-0.150000 -0.150000 0.516083
-0.121809 -0.150000 0.525000
-0.150000 -0.150000 0.778872
-0.150000 -0.075000 -0.885225
-0.150000 -0.075000 -0.628705
-0.150000 -0.075000 -0.159881
-0.150000 -0.075000 0.177851
-0.150000 -0.075000 0.504661
-0.150000 -0.075000 0.808760
-0.150000 0.000000 -0.882220
-0.150000 0.000000 -0.628031
-0.150000 0.000000 -0.163340
-0.150000 0.000000 0.180211
-0.150000 0.000000 0.512478
-0.150000 0.046447 0.525000
-0.150000 0.000000 0.802868
-0.150000 0.075000 -0.863923
-0.150000 0.075000 -0.649544
-0.150000 0.123098 -0.675000
-0.150000 0.075000 -0.161017
-0.150000 0.110659 -0.150000
-0.150000 0.075000 0.162038
-0.150000 0.098209 0.150000
-0.150000 0.075000 0.532682
-0.150000 0.075000 0.770709
-0.150000 0.107644 0.750000
-0.150000 0.150000 -0.831876
-0.150000 0.156323 -0.825000
-0.150000 0.150000 -0.703909
-0.150000 0.172110 -0.750000
-0.150000 0.150000 -0.134417
-0.119950 0.150000 -0.150000
-0.150000 0.209308 -0.075000
-0.150000 0.222671 0.000000
-0.150000 0.150000 0.117561
-0.150000 0.188411 0.075000
-0.082190 0.150000 0.150000
-0.150000 0.150000 0.580698
-0.150000 0.160240 0.600000
-0.150000 0.150000 0.706995
-0.150000 0.169036 0.675000
-0.094961 0.225000 -0.075000
-0.138281 0.225000 0.000000
-0.075000 -0.304073 0.000000
-0.075000 -0.255145 -0.750000
-0.075000 -0.231045 -0.150000
-0.075000 -0.300000 -0.028833
-0.075000 -0.291553 -0.075000
-0.026486 -0.300000 -0.075000
-0.075000 -0.300000 0.011781
-0.075000 -0.276242 0.075000
-0.075000 -0.241276 0.600000
-0.075000 -0.257974 0.675000
-0.075000 -0.230308 0.750000
-0.075000 -0.225000 -0.814093
-0.075000 -0.219112 -0.825000
-0.075000 -0.225000 -0.699462
-0.075000 -0.196199 -0.675000
-0.075000 -0.225000 -0.155099
-0.075000 -0.225000 0.145482
-0.075000 -0.215815 0.150000
-0.061170 -0.225000 0.150000
-0.075000 -0.225000 0.579825
-0.021622 -0.225000 0.600000
-0.075000 -0.225000 0.756611
-0.075000 -0.150000 -0.876100
-0.075000 -0.150000 -0.655524
-0.075000 -0.150000 -0.180203
-0.075000 -0.150000 0.173295
-0.075000 -0.150000 0.539360
-0.075000 -0.089992 0.525000
-0.075000 -0.150000 0.805715
-0.075000 -0.075000 -0.888943
-0.075000 -0.075000 -0.636471
-0.075000 -0.075000 -0.197751
-0.016992 -0.075000 -0.225000
-0.075000 -0.075000 0.202149
-0.018441 -0.075000 0.225000
-0.075000 -0.075000 0.521519
-0.061421 -0.075000 0.525000
-0.075000 -0.075000 0.813344
-0.075000 0.000000 -0.884775
-0.075000 0.000000 -0.633139
-0.075000 0.000000 -0.196707
-0.011879 0.000000 -0.225000
-0.075000 0.000000 0.207412
-0.022557 0.000000 0.225000
-0.075000 0.000000 0.524004
-0.075000 0.008145 0.525000
-0.070921 0.000000 0.525000
-0.075000 0.000000 0.811519
-0.075000 0.075000 -0.867695
-0.075000 0.075000 -0.651381
-0.075000 0.119524 -0.675000
-0.075000 0.075000 -0.189708
-0.018676 0.075000 -0.225000
-0.075000 0.075000 0.190293
-0.075000 0.075000 0.533356
-0.075000 0.075000 0.785909
-0.075000 0.134602 0.750000
-0.075000 0.150000 -0.836526
-0.075000 0.161039 -0.825000
-0.075000 0.150000 -0.700312
-0.075000 0.180020 -0.750000
-0.075000 0.150000 -0.169195
-0.075000 0.171741 -0.150000
-0.075000 0.205831 0.075000
-0.075000 0.150000 0.153104
-0.075000 0.153362 0.150000
-0.075000 0.150000 0.577150
-0.075000 0.169434 0.600000
-0.075000 0.150000 0.734111
-0.075000 0.182792 0.675000
-0.006628 0.150000 0.750000
-0.075000 0.225000 -0.081809
-0.075000 0.229231 -0.075000
-0.075000 0.225000 0.031709
-0.075000 0.237304 0.000000
0.000000 -0.303790 -0.075000
0.000000 -0.313819 0.000000
0.000000 -0.261351 -0.750000
0.000000 -0.300000 -0.081693
0.000000 -0.258899 -0.150000
0.000000 -0.300000 0.040156
0.000000 -0.287265 0.075000
0.000000 -0.241913 0.150000
0.000000 -0.258487 0.675000
0.000000 -0.229869 0.750000
0.000000 -0.225000 -0.823357
0.000000 -0.224023 -0.825000
0.008544 -0.225000 -0.825000
0.000000 -0.225000 -0.692398
0.000000 -0.197911 -0.675000
0.000000 -0.225000 -0.183440
0.000000 -0.225000 0.165568
0.000000 -0.225000 0.611282
0.000000 -0.212250 0.600000
0.000000 -0.225000 0.756596
0.000000 -0.150000 -0.878829
0.000000 -0.150000 -0.658628
0.000000 -0.150000 -0.214680
0.000000 -0.108204 -0.225000
0.018375 -0.150000 -0.225000
0.000000 -0.150000 0.201302
0.000000 -0.094014 0.225000
0.034943 -0.150000 0.225000
0.000000 -0.150000 0.568410
0.000000 -0.150000 0.808172
0.000000 -0.075000 -0.889752
0.000000 -0.075000 -0.644880
0.000000 -0.075000 -0.233399
0.000000 -0.075000 0.233293
0.000000 -0.075000 0.541447
0.000000 -0.075000 0.816477
0.000000 0.000000 -0.886005
0.000000 0.000000 -0.640958
0.000000 0.000000 -0.230909
0.000000 0.000000 0.233379
0.000000 0.046327 0.225000
0.000000 0.000000 0.542398
0.000000 0.000000 0.816117
0.000000 0.075000 -0.869916
0.000000 0.075000 -0.656189
0.000000 0.116082 -0.675000
0.000000 0.075000 -0.237308
0.000000 0.100648 -0.225000
0.000000 0.075000 0.220121
0.007557 0.075000 0.225000
0.000000 0.075000 0.545474
0.000000 0.075000 0.797195
0.000000 0.150000 -0.837899
0.000000 0.162346 -0.825000
0.000000 0.150000 -0.696982
0.000000 0.187783 -0.750000
0.000000 0.150000 -0.197923
0.054596 0.150000 -0.225000
0.000000 0.189053 -0.150000
0.000000 0.216319 0.075000
0.000000 0.150000 0.177553
0.000000 0.171981 0.150000
0.000000 0.150000 0.588549
0.000000 0.161680 0.600000
0.051186 0.150000 0.600000
0.000000 0.189055 0.675000
0.000000 0.150000 0.750884
0.000000 0.150871 0.750000
0.000000 0.225000 -0.091230
0.000000 0.234410 -0.075000
0.000000 0.225000 0.055604
0.000000 0.246335 0.000000
0.075000 -0.309913 -0.075000
0.075000 -0.306638 0.000000
0.075000 -0.230832 -0.825000
0.075000 -0.263151 -0.750000
0.075000 -0.300000 -0.102188
0.075000 -0.280751 -0.150000
0.125271 -0.300000 -0.075000
0.075000 -0.300000 0.031324
0.095484 -0.300000 0.000000
0.075000 -0.290567 0.075000
0.075000 -0.261909 0.150000
0.075000 -0.252907 0.675000
0.075000 -0.227672 0.750000
0.075000 -0.225000 -0.832027
0.075000 -0.225000 -0.686956
0.075000 -0.197779 -0.675000
0.109249 -0.225000 -0.675000
0.075000 -0.225000 -0.217760
0.075000 -0.213120 -0.225000
0.084460 -0.225000 -0.225000
0.075000 -0.225000 0.204036
0.075000 -0.197458 0.225000
0.109006 -0.225000 0.225000
0.075000 -0.225000 0.632950
0.075000 -0.179150 0.600000
0.075000 -0.225000 0.753940
0.075000 -0.150000 -0.879222
0.075000 -0.150000 -0.662173
0.075000 -0.150000 -0.258523
0.139822 -0.150000 -0.300000
0.075000 -0.150000 0.258020
0.126757 -0.150000 0.300000
0.075000 -0.150000 0.586381
0.075000 -0.150000 0.809862
0.075000 -0.075000 -0.889918
0.075000 -0.075000 -0.647033
0.075000 -0.075000 -0.275109
0.109195 -0.075000 -0.300000
0.075000 -0.075000 0.284430
0.095144 -0.075000 0.300000
0.075000 -0.075000 0.560266
0.075000 -0.075000 0.819035
0.075000 0.000000 -0.888471
0.075000 0.000000 -0.655943
0.075000 0.000000 -0.277690
0.109997 0.000000 -0.300000
0.075000 0.000000 0.286458
0.092005 0.000000 0.300000
0.075000 0.000000 0.559429
0.075000 0.000000 0.820614
0.075000 0.075000 -0.871794
0.075000 0.075000 -0.670028
0.075000 0.088560 -0.675000
0.075000 0.075000 -0.280325
0.115368 0.075000 -0.300000
0.075000 0.075000 0.273138
0.075000 0.148805 0.225000
0.117700 0.075000 0.300000
0.075000 0.075000 0.564722
0.075000 0.141545 0.600000
0.075000 0.075000 0.804203
0.075000 0.150000 -0.838070
0.075000 0.162126 -0.825000
0.075000 0.150000 -0.702047
0.075000 0.192950 -0.750000
0.075000 0.150000 -0.235231
0.075000 0.159263 -0.225000
0.075000 0.201223 -0.150000
0.075000 0.214585 0.075000
0.075000 0.150000 0.223114
0.075000 0.175590 0.150000
0.077641 0.150000 0.225000
0.075000 0.150000 0.607512
0.075000 0.191249 0.675000
0.075000 0.150000 0.758263
0.075000 0.157506 0.750000
0.075000 0.225000 -0.079765
0.075000 0.226525 -0.075000
0.081852 0.225000 -0.075000
0.075000 0.225000 0.037204
0.075000 0.234056 0.000000
0.093263 0.225000 0.000000
0.150000 -0.225589 -0.825000
0.150000 -0.262795 -0.750000
0.150000 -0.234424 -0.675000
0.150000 -0.270711 -0.225000
0.150000 -0.297687 -0.150000
0.150000 -0.294148 -0.075000
0.150000 -0.276546 0.000000
0.150000 -0.277443 0.075000
0.150000 -0.265486 0.150000
0.150000 -0.243086 0.225000
0.150000 -0.250138 0.675000
0.150000 -0.227677 0.750000
0.150000 -0.225000 -0.825582
0.151178 -0.225000 -0.825000
0.150000 -0.225000 -0.663263
0.150000 -0.225000 -0.279985
0.150000 -0.171783 -0.300000
0.177737 -0.225000 -0.300000
0.209478 -0.225000 0.000000
0.150000 -0.225000 0.254636
0.150000 -0.176081 0.300000
0.201258 -0.225000 0.300000
0.150000 -0.225000 0.643368
0.150000 -0.154650 0.600000
0.150000 -0.225000 0.753791
0.150000 -0.150000 -0.872936
0.150000 -0.150000 -0.631489
0.194791 -0.150000 -0.600000
0.150000 -0.150000 -0.308429
0.208944 -0.150000 -0.375000
0.150000 -0.150000 0.321935
0.192981 -0.150000 0.375000
0.222757 -0.150000 0.450000
0.150000 -0.150000 0.597578
0.150000 -0.150000 0.808339
0.150000 -0.075000 -0.884609
0.150000 -0.075000 -0.623276
0.179836 -0.075000 -0.600000
0.150000 -0.075000 -0.335881
0.185071 -0.075000 -0.375000
0.150000 -0.075000 0.345797
0.178294 -0.075000 0.375000
0.206903 -0.075000 0.450000
0.150000 -0.075000 0.571687
0.216582 -0.075000 0.525000
0.150000 -0.075000 0.820067
0.150000 0.000000 -0.887117
0.150000 0.000000 -0.621896
0.173780 0.000000 -0.600000
0.150000 0.000000 -0.328876
0.196359 0.000000 -0.375000
0.150000 0.000000 0.347746
0.176493 0.000000 0.375000
0.214010 0.000000 0.450000
0.150000 0.000000 0.571889
0.219851 0.000000 0.525000
0.150000 0.000000 0.823476
0.181032 0.000000 0.825000
0.150000 0.075000 -0.869975
0.150000 0.075000 -0.629842
0.150000 0.141261 -0.675000
0.181075 0.075000 -0.600000
0.150000 0.075000 -0.317410
0.217413 0.075000 -0.375000
0.150000 0.106043 -0.300000
0.150000 0.075000 0.323359
0.150000 0.109439 0.300000
0.199463 0.075000 0.375000
0.150000 0.075000 0.582746
0.150000 0.118748 0.600000
0.150000 0.075000 0.808509
0.150000 0.150000 -0.829319
0.150000 0.154290 -0.825000
0.158130 0.150000 -0.825000
0.150000 0.150000 -0.682083
0.150000 0.194192 -0.750000
0.161239 0.150000 -0.675000
0.150000 0.150000 -0.267154
0.201415 0.150000 -0.300000
0.150000 0.183084 -0.225000
0.150000 0.214060 -0.150000
0.150000 0.207436 -0.075000
0.150000 0.193583 0.000000
0.203270 0.150000 0.000000
0.150000 0.188782 0.075000
0.150000 0.196327 0.150000
0.150000 0.150000 0.260367
0.150000 0.169734 0.225000
0.196754 0.150000 0.300000
0.150000 0.150000 0.617616
0.192490 0.150000 0.600000
0.150000 0.190806 0.675000
0.150000 0.150000 0.761697
0.150000 0.160404 0.750000
0.225000 -0.250353 -0.750000
0.225000 -0.256655 -0.675000
0.225000 -0.253543 -0.300000
0.225000 -0.289769 -0.225000
0.225000 -0.270366 -0.150000
0.225000 -0.239398 -0.075000
0.225000 -0.228108 0.075000
0.225000 -0.249079 0.150000
0.225000 -0.249139 0.225000
0.225000 -0.237252 0.300000
0.225000 -0.259313 0.675000
0.225000 -0.228957 0.750000
0.225000 -0.225000 -0.782266
0.225000 -0.166456 -0.825000
0.297433 -0.225000 -0.750000
0.225000 -0.225000 -0.611069
0.225000 -0.209809 -0.600000
0.236435 -0.225000 -0.600000
0.297529 -0.225000 -0.450000
0.225000 -0.225000 -0.344634
0.225000 -0.182377 -0.375000
0.256720 -0.225000 -0.375000
0.290299 -0.225000 -0.150000
0.225000 -0.225000 -0.036983
0.239102 -0.225000 -0.075000
0.225000 -0.225000 0.059996
0.225000 -0.204102 0.000000
0.228902 -0.225000 0.075000
0.257364 -0.225000 0.150000
0.295843 -0.225000 0.225000
0.225000 -0.225000 0.326213
0.225000 -0.189532 0.375000
0.259872 -0.225000 0.375000
0.225000 -0.154537 0.450000
0.269217 -0.225000 0.450000
0.274872 -0.225000 0.525000
0.225000 -0.225000 0.610025
0.225000 -0.215057 0.600000
0.233753 -0.225000 0.600000
0.225000 -0.225000 0.754950
0.225000 -0.150000 -0.834983
0.242498 -0.150000 -0.825000
0.225000 -0.150000 -0.574979
0.277114 -0.150000 -0.525000
0.225000 -0.150000 -0.395791
0.265437 -0.150000 -0.450000
0.286831 -0.150000 -0.075000
0.255359 -0.150000 0.000000
0.287732 -0.150000 0.075000
0.225000 -0.150000 0.464051
0.225000 -0.150000 0.541137
0.225000 -0.101976 0.525000
0.235670 -0.150000 0.525000
0.225000 -0.150000 0.806967
0.225000 -0.075000 -0.853878
0.284330 -0.075000 -0.825000
0.225000 -0.075000 -0.557704
0.255168 -0.075000 -0.525000
0.225000 -0.075000 -0.417625
0.251507 -0.075000 -0.450000
0.293528 -0.075000 -0.075000
0.266451 -0.075000 0.000000
0.225000 -0.075000 0.820920
0.225000 -0.026096 0.825000
0.225000 0.000000 -0.856427
0.294668 0.000000 -0.825000
0.225000 0.000000 -0.549706
0.245963 0.000000 -0.525000
0.225000 0.000000 -0.412406
0.249691 0.000000 -0.450000
0.291771 0.000000 -0.075000
0.257519 0.000000 0.000000
0.295437 0.000000 0.075000
0.225000 0.070479 0.450000
0.225000 0.025796 0.525000
0.225000 0.000000 0.827118
0.225000 0.011551 0.825000
0.225000 0.075000 -0.835112
0.225000 0.090827 -0.825000
0.243227 0.075000 -0.825000
0.225000 0.075000 -0.549577
0.225000 0.149721 -0.600000
0.241262 0.075000 -0.525000
0.225000 0.075000 -0.385346
0.262740 0.075000 -0.450000
0.225000 0.087499 -0.375000
0.276222 0.075000 -0.075000
0.225000 0.108904 0.000000
0.240180 0.075000 0.000000
0.274567 0.075000 0.075000
0.225000 0.075000 0.447447
0.225000 0.111161 0.375000
0.225680 0.075000 0.450000
0.225000 0.075000 0.534669
0.231650 0.075000 0.525000
0.225000 0.075000 0.812250
0.225000 0.150000 -0.781030
0.225000 0.176404 -0.750000
0.273026 0.150000 -0.750000
0.225000 0.150000 -0.600349
0.225000 0.174330 -0.675000
0.225506 0.150000 -0.600000
0.284797 0.150000 -0.525000
0.292995 0.150000 -0.450000
0.225000 0.150000 -0.319401
0.264634 0.150000 -0.375000
0.225000 0.163376 -0.300000
0.225000 0.206381 -0.225000
0.225000 0.198219 -0.150000
0.225000 0.150000 -0.051149
0.225000 0.159465 -0.075000
0.235787 0.150000 -0.075000
0.225000 0.150000 0.069088
0.225000 0.151638 0.075000
0.226747 0.150000 0.075000
0.225000 0.177254 0.150000
0.261657 0.150000 0.150000
0.225000 0.182723 0.225000
0.225000 0.150000 0.327544
0.225000 0.163526 0.300000
0.264811 0.150000 0.375000
0.274733 0.150000 0.450000
0.225000 0.150000 0.582055
0.271424 0.150000 0.525000
0.225000 0.159986 0.600000
0.225000 0.193380 0.675000
0.225000 0.150000 0.763275
0.225000 0.161479 0.750000
0.300000 -0.264838 -0.675000
0.300000 -0.255621 -0.600000
0.300000 -0.227278 -0.450000
0.300000 -0.250803 -0.375000
0.300000 -0.272212 -0.300000
0.300000 -0.258783 -0.225000
0.300000 -0.243699 0.300000
0.300000 -0.249286 0.375000
0.300000 -0.249080 0.450000
0.300000 -0.248881 0.525000
0.300000 -0.266575 0.600000
0.300000 -0.269717 0.675000
0.300000 -0.230528 0.750000
0.300000 -0.225000 -0.748473
0.300000 -0.223270 -0.750000
0.300000 -0.225000 -0.537809
0.300000 -0.225000 -0.468799
0.300000 -0.206326 -0.525000
0.311149 -0.225000 -0.525000
0.300000 -0.225000 -0.162166
0.352247 -0.225000 -0.225000
0.300000 -0.215921 -0.150000
0.300000 -0.184074 0.150000
0.300000 -0.225000 0.230501
0.300000 -0.222795 0.225000
0.329659 -0.225000 0.300000
0.359878 -0.225000 0.375000
0.300000 -0.225000 0.756168
0.345103 -0.225000 0.750000
0.300000 -0.150000 -0.791319
0.360402 -0.150000 -0.750000
0.300000 -0.150000 -0.089770
0.356498 -0.150000 -0.150000
0.300000 -0.150000 0.100187
0.300000 -0.082262 0.075000
0.323577 -0.150000 0.150000
0.356814 -0.150000 0.225000
0.300000 -0.150000 0.803798
0.300000 -0.075000 -0.816788
0.300000 -0.075000 -0.083190
0.365154 -0.075000 -0.150000
0.300000 -0.075000 0.072348
0.300000 -0.058607 0.075000
0.301249 -0.075000 0.075000
0.334037 -0.075000 0.150000
0.370908 -0.075000 0.225000
0.300000 -0.075000 0.820907
0.300000 -0.047099 0.825000
0.300000 0.000000 -0.822214
0.300000 0.000000 -0.085674
0.358260 0.000000 -0.150000
0.300000 0.000000 0.083297
0.336655 0.000000 0.150000
0.371644 0.000000 0.225000
0.300000 0.000000 0.831815
0.300000 0.028090 0.825000
0.316630 0.000000 0.825000
0.300000 0.075000 -0.789889
0.300000 0.127862 -0.750000
0.353281 0.075000 -0.750000
0.300000 0.075000 -0.107812
0.339756 0.075000 -0.150000
0.300000 0.075000 0.118525
0.300000 0.102962 0.150000
0.316781 0.075000 0.150000
0.350596 0.075000 0.225000
0.300000 0.075000 0.811451
0.300000 0.150000 -0.726032
0.300000 0.175408 -0.675000
0.369612 0.150000 -0.675000
0.300000 0.166533 -0.600000
0.300000 0.160577 -0.525000
0.300000 0.156866 -0.450000
0.300000 0.174633 -0.375000
0.300000 0.190260 -0.300000
0.300000 0.182486 -0.225000
0.351672 0.150000 -0.225000
0.300000 0.150000 -0.145800
0.300000 0.153232 -0.150000
0.303913 0.150000 -0.150000
0.300000 0.150000 0.223735
0.300000 0.150517 0.225000
0.300611 0.150000 0.225000
0.300000 0.162486 0.300000
0.318459 0.150000 0.300000
0.300000 0.168821 0.375000
0.364268 0.150000 0.375000
0.300000 0.166440 0.450000
0.300000 0.170828 0.525000
0.300000 0.187512 0.600000
0.300000 0.193295 0.675000
0.300000 0.150000 0.755224
0.300000 0.154918 0.750000
0.314530 0.150000 0.750000
0.375000 -0.231742 -0.675000
0.375000 -0.261115 -0.600000
0.375000 -0.256170 -0.525000
0.375000 -0.254102 -0.450000
0.375000 -0.256956 -0.375000
0.375000 -0.244499 -0.300000
0.375000 -0.236281 0.450000
0.375000 -0.246434 0.525000
0.375000 -0.250441 0.600000
0.375000 -0.255087 0.675000
0.375000 -0.225000 -0.683915
0.383202 -0.225000 -0.675000
0.427055 -0.225000 -0.600000
0.426900 -0.225000 -0.375000
0.375000 -0.225000 -0.258497
0.396988 -0.225000 -0.300000
0.375000 -0.206481 -0.225000
0.375000 -0.179123 0.300000
0.375000 -0.225000 0.406471
0.375000 -0.216003 0.375000
0.386450 -0.225000 0.450000
0.395169 -0.225000 0.525000
0.398315 -0.225000 0.600000
0.375000 -0.225000 0.742113
0.405873 -0.225000 0.675000
0.375000 -0.218235 0.750000
0.375000 -0.150000 -0.738411
0.375000 -0.122014 -0.750000
0.440374 -0.150000 -0.675000
0.375000 -0.150000 -0.169306
0.425107 -0.150000 -0.225000
0.375000 -0.150000 0.259720
0.397798 -0.150000 0.300000
0.448114 -0.150000 0.375000
0.448836 -0.150000 0.675000
0.375000 -0.150000 0.784585
0.412571 -0.150000 0.750000
0.375000 -0.075000 -0.766465
0.392779 -0.075000 -0.750000
0.375000 -0.075000 -0.159245
0.438918 -0.075000 -0.225000
0.375000 -0.075000 0.232988
0.419960 -0.075000 0.300000
0.375000 -0.075000 0.798266
0.428752 -0.075000 0.750000
0.375000 0.000000 -0.766480
0.375000 0.039707 -0.750000
0.394068 0.000000 -0.750000
0.375000 0.000000 -0.167743
0.423560 0.000000 -0.225000
0.375000 0.000000 0.231816
0.413702 0.000000 0.300000
0.375000 0.000000 0.795976
0.422964 0.000000 0.750000
0.375000 0.075000 -0.732328
0.375000 0.146280 -0.675000
0.426792 0.075000 -0.675000
0.447130 0.075000 -0.300000
0.375000 0.075000 -0.186318
0.375000 0.126306 -0.225000
0.407722 0.075000 -0.225000
0.375000 0.075000 0.282651
0.375000 0.086752 0.300000
0.384428 0.075000 0.300000
0.375000 0.145821 0.375000
0.447122 0.075000 0.375000
0.375000 0.075000 0.778918
0.375000 0.119848 0.750000
0.405312 0.075000 0.750000
0.375000 0.150000 -0.665054
0.375000 0.162875 -0.600000
0.410449 0.150000 -0.600000
0.375000 0.162614 -0.525000
0.425594 0.150000 -0.525000
0.375000 0.163629 -0.450000
0.421994 0.150000 -0.450000
0.375000 0.166975 -0.375000
0.408682 0.150000 -0.375000
0.375000 0.150000 -0.265208
0.375000 0.162507 -0.300000
0.391304 0.150000 -0.300000
0.375000 0.150000 0.386746
0.375000 0.168231 0.450000
0.405368 0.150000 0.450000
0.375000 0.182530 0.525000
0.417790 0.150000 0.525000
0.375000 0.185480 0.600000
0.414605 0.150000 0.600000
0.375000 0.150000 0.720087
0.375000 0.177966 0.675000
0.405022 0.150000 0.675000
0.450000 -0.228527 -0.525000
0.450000 -0.228620 -0.450000
0.450000 -0.225000 -0.536349
0.450000 -0.202112 -0.600000
0.453480 -0.225000 -0.525000
0.450000 -0.225000 -0.438334
0.453054 -0.225000 -0.450000
0.450000 -0.191040 -0.375000
0.450000 -0.161233 -0.300000
0.450000 -0.153133 0.450000
0.450000 -0.157489 0.525000
0.450000 -0.160485 0.600000
0.450000 -0.150000 -0.663638
0.450000 -0.119054 -0.675000
0.496674 -0.150000 -0.600000
0.500622 -0.150000 -0.525000
0.485829 -0.150000 -0.450000
0.468718 -0.150000 -0.375000
0.450000 -0.150000 -0.280668
0.456979 -0.150000 -0.300000
0.450000 -0.150000 0.402094
0.450000 -0.146643 0.375000
0.452439 -0.150000 0.450000
0.455094 -0.150000 0.525000
0.450000 -0.150000 0.664224
0.456727 -0.150000 0.600000
0.450000 -0.143892 0.675000
0.450000 -0.075000 -0.688126
0.461136 -0.075000 -0.675000
0.510514 -0.075000 -0.600000
0.518743 -0.075000 -0.525000
0.499085 -0.075000 -0.450000
0.479320 -0.075000 -0.375000
0.450000 -0.075000 -0.251562
0.466066 -0.075000 -0.300000
0.450000 -0.075000 0.333465
0.475249 -0.075000 0.375000
0.472974 -0.075000 0.450000
0.468315 -0.075000 0.525000
0.465428 -0.075000 0.600000
0.450000 -0.075000 0.707383
0.461325 -0.075000 0.675000
0.450000 0.000000 -0.687939
0.450000 0.024095 -0.675000
0.459626 0.000000 -0.675000
0.500176 0.000000 -0.600000
0.513337 0.000000 -0.525000
0.497716 0.000000 -0.450000
0.473702 0.000000 -0.375000
0.450000 0.000000 -0.283505
0.450000 0.052341 -0.300000
0.456293 0.000000 -0.300000
0.450000 0.000000 0.347837
0.450000 0.066687 0.375000
0.467102 0.000000 0.375000
0.470995 0.000000 0.450000
0.467031 0.000000 0.525000
0.462696 0.000000 0.600000
0.450000 0.000000 0.703614
0.463038 0.000000 0.675000
0.450000 0.075000 -0.642130
0.450000 0.120096 -0.600000
0.477584 0.075000 -0.600000
0.450000 0.140679 -0.525000
0.496206 0.075000 -0.525000
0.450000 0.133382 -0.450000
0.480995 0.075000 -0.450000
0.450000 0.075000 -0.310907
0.450000 0.107072 -0.375000
0.465712 0.075000 -0.375000
0.450000 0.075000 0.393115
0.450000 0.090867 0.450000
0.456530 0.075000 0.450000
0.450000 0.098636 0.525000
0.459824 0.075000 0.525000
0.450000 0.098576 0.600000
0.462228 0.075000 0.600000
0.450000 0.075000 0.681043
0.450000 0.080882 0.675000
0.453189 0.075000 0.675000
3 13 11 0
3 11 12 1
3 0 11 1
3 12 16 1
3 18 14 2
3 14 13 0
3 14 0 2
3 2 0 3
3 0 1 3
3 1 4 3
3 16 20 4
3 1 16 4
3 21 18 2
3 5 21 2
3 2 3 5
3 3 6 5
3 3 4 6
3 4 7 6
3 20 24 7
3 4 20 7
3 21 5 23
3 26 23 5
3 26 5 8
3 8 5 6
3 6 7 8
3 7 9 8
3 24 29 9
3 7 24 9
3 26 8 28
3 8 9 30
3 28 8 30
3 9 29 30
3 33 32 10
3 32 34 10
3 36 33 10
3 15 36 10
3 34 35 11
3 34 11 15
3 34 15 10
3 15 11 13
3 39 17 12
3 39 12 35
3 35 12 11
3 12 17 16
3 41 37 19
3 15 14 18
3 36 15 18
3 36 18 19
3 36 19 37
3 15 13 14
3 17 40 42
3 17 42 16
3 16 42 20
3 45 41 19
3 22 45 19
3 19 21 22
3 18 21 19
3 43 25 24
3 43 24 42
3 42 24 20
3 48 23 27
3 46 23 48
3 46 21 23
3 46 22 21
3 23 26 27
3 51 25 47
3 31 25 51
3 25 31 29
3 24 25 29
3 48 27 50
3 27 26 28
3 27 28 50
3 50 28 52
3 31 51 52
3 31 52 30
3 30 52 28
3 33 56 55
3 32 33 55
3 32 55 58
3 34 32 58
3 61 57 38
3 57 36 38
3 57 56 36
3 56 33 36
3 58 35 34
3 60 35 58
3 35 60 62
3 39 35 62
3 38 37 41
3 38 41 61
3 61 41 64
3 38 36 37
3 40 66 44
3 40 39 66
3 39 62 66
3 40 44 42
3 64 41 68
3 68 41 45
3 44 47 43
3 44 66 47
3 66 70 47
3 44 43 42
3 46 49 73
3 46 73 45
3 45 73 68
3 46 48 49
3 75 53 71
3 71 53 51
3 71 51 70
3 70 51 47
3 73 49 74
3 76 50 54
3 74 50 76
3 74 48 50
3 74 49 48
3 54 75 77
3 54 52 75
3 54 50 52
3 52 53 75
3 53 52 51
3 76 54 78
3 54 77 78
3 55 56 59
3 55 59 58
3 61 82 79
3 57 61 79
3 56 81 59
3 56 57 81
3 57 79 81
3 85 63 60
3 81 85 60
3 81 60 58
3 81 58 59
3 83 64 65
3 83 82 64
3 82 61 64
3 87 63 85
3 67 63 87
3 63 67 66
3 62 63 66
3 88 86 65
3 69 88 65
3 65 68 69
3 64 68 65
3 90 67 87
3 72 67 90
3 67 72 70
3 66 67 70
3 88 69 89
3 69 91 89
3 69 68 91
3 68 73 91
3 72 75 71
3 72 90 75
3 90 94 75
3 72 71 70
3 91 73 74
3 93 91 74
3 74 95 93
3 76 95 74
3 94 97 75
3 97 77 75
3 95 76 78
3 98 95 78
3 98 78 77
3 97 98 77
3 101 100 80
3 100 103 80
3 106 102 84
3 80 79 82
3 101 80 82
3 101 82 84
3 101 84 102
3 103 79 80
3 103 104 79
3 104 81 79
3 81 104 107
3 85 81 107
3 84 83 86
3 84 86 106
3 106 86 113
3 84 82 83
3 107 114 85
3 114 87 85
3 113 86 122
3 122 86 88
3 114 123 87
3 123 90 87
3 89 92 131
3 89 131 88
3 88 131 122
3 89 91 92
3 123 133 90
3 133 94 90
3 131 92 132
3 140 93 96
3 132 93 140
3 132 91 93
3 132 92 91
3 96 93 95
3 141 99 134
3 134 99 97
3 134 97 133
3 133 97 94
3 140 96 142
3 99 141 142
3 99 142 98
3 96 95 142
3 95 98 142
3 99 98 97
3 101 145 143
3 100 101 143
3 100 143 147
3 103 100 147
3 149 144 105
3 144 152 105
3 106 159 146
3 102 106 146
3 146 101 102
3 145 101 146
3 147 104 103
3 148 104 147
3 104 148 160
3 107 104 160
3 161 150 108
3 150 149 105
3 150 105 108
3 108 105 109
3 152 153 110
3 152 110 105
3 105 110 109
3 153 162 110
3 163 155 111
3 155 156 112
3 111 155 112
3 156 165 112
3 159 106 168
3 168 106 113
3 160 169 107
3 169 114 107
3 170 161 108
3 115 170 108
3 108 109 115
3 109 116 115
3 109 110 116
3 110 117 116
3 162 171 117
3 110 162 117
3 173 164 118
3 164 163 111
3 164 111 118
3 118 111 119
3 111 112 119
3 112 120 119
3 165 166 121
3 165 121 112
3 112 121 120
3 166 175 121
3 168 113 177
3 177 113 122
3 169 178 114
3 178 123 114
3 179 170 115
3 124 179 115
3 115 116 124
3 116 125 124
3 116 117 125
3 117 126 125
3 171 180 126
3 117 171 126
3 182 173 118
3 127 182 118
3 118 119 127
3 119 128 127
3 119 120 128
3 120 129 128
3 120 121 129
3 121 130 129
3 175 185 130
3 121 175 130
3 177 122 188
3 188 122 131
3 178 190 123
3 190 133 123
3 192 179 124
3 135 192 124
3 124 125 135
3 125 136 135
3 125 126 136
3 126 137 136
3 180 195 137
3 126 180 137
3 182 127 183
3 197 183 127
3 197 127 138
3 138 127 128
3 128 129 138
3 129 139 138
3 186 199 139
3 186 139 130
3 130 139 129
3 130 185 186
3 188 131 132
3 189 188 132
3 132 202 189
3 140 202 132
3 141 191 204
3 134 191 141
3 191 134 133
3 190 191 133
3 192 135 193
3 135 136 194
3 193 135 194
3 136 137 196
3 194 136 196
3 137 195 196
3 197 138 198
3 138 139 200
3 198 138 200
3 139 199 200
3 202 140 142
3 205 202 142
3 205 142 141
3 204 205 141
3 145 217 211
3 143 145 211
3 143 211 219
3 147 143 219
3 221 212 151
3 149 151 212
3 149 212 144
3 144 212 213
3 154 152 144
3 154 144 214
3 214 144 213
3 214 222 154
3 223 215 157
3 215 216 158
3 157 215 158
3 216 225 158
3 159 226 218
3 146 159 218
3 218 145 146
3 217 145 218
3 219 148 147
3 220 148 219
3 148 220 227
3 160 148 227
3 151 150 161
3 151 161 221
3 221 161 228
3 151 149 150
3 154 153 152
3 153 154 222
3 153 222 162
3 162 222 229
3 163 232 224
3 155 163 224
3 157 224 223
3 157 156 224
3 156 155 224
3 156 167 165
3 156 157 167
3 157 158 167
3 225 233 167
3 158 225 167
3 226 159 236
3 236 159 168
3 227 237 160
3 237 169 160
3 228 161 238
3 238 161 170
3 172 229 230
3 172 171 229
3 171 162 229
3 230 240 172
3 164 173 174
3 174 163 164
3 174 241 163
3 241 232 163
3 167 166 165
3 166 176 175
3 167 176 166
3 167 234 176
3 167 233 234
3 234 242 176
3 236 168 243
3 243 168 177
3 237 244 169
3 244 178 169
3 238 170 245
3 245 170 179
3 181 171 172
3 180 171 181
3 240 247 181
3 172 240 181
3 184 174 173
3 182 184 173
3 241 184 249
3 174 184 241
3 187 175 176
3 185 175 187
3 242 250 187
3 176 242 187
3 243 177 252
3 252 177 188
3 244 253 178
3 253 190 178
3 245 179 255
3 255 179 192
3 248 180 181
3 248 257 180
3 257 195 180
3 181 247 248
3 184 182 183
3 183 249 184
3 183 197 249
3 197 259 249
3 186 201 199
3 201 251 262
3 186 251 201
3 186 187 251
3 186 185 187
3 187 250 251
3 189 203 264
3 189 264 188
3 188 264 252
3 189 202 203
3 204 254 266
3 191 254 204
3 254 191 190
3 253 254 190
3 193 206 268
3 193 268 192
3 192 268 255
3 194 206 193
3 207 206 194
3 196 207 194
3 208 207 196
3 208 196 195
3 208 195 271
3 271 195 257
3 259 197 198
3 260 259 198
3 273 200 209
3 273 260 200
3 260 198 200
3 199 209 200
3 199 201 209
3 201 210 209
3 262 275 210
3 201 262 210
3 264 203 265
3 203 202 205
3 203 205 265
3 265 205 267
3 267 205 204
3 266 267 204
3 268 206 269
3 206 207 270
3 269 206 270
3 207 208 272
3 270 207 272
3 208 271 272
3 273 209 274
3 209 210 276
3 274 209 276
3 210 275 276
3 217 284 277
3 211 217 277
3 211 277 286
3 219 211 286
3 221 288 278
3 212 221 278
3 278 279 212
3 212 279 213
3 279 281 213
3 213 281 214
3 214 281 290
3 222 214 290
3 223 292 282
3 215 223 282
3 282 283 215
3 215 283 216
3 216 283 294
3 225 216 294
3 226 297 285
3 218 226 285
3 286 220 219
3 287 220 286
3 220 287 298
3 227 220 298
3 288 221 299
3 299 221 228
3 231 290 291
3 231 229 290
3 229 222 290
3 232 303 293
3 224 232 293
3 293 223 224
3 292 223 293
3 235 294 295
3 235 233 294
3 233 225 294
3 295 305 235
3 297 226 306
3 306 226 236
3 298 307 227
3 307 237 227
3 308 300 239
3 300 238 239
3 300 299 238
3 299 228 238
3 231 230 229
3 230 231 302
3 230 302 240
3 240 302 309
3 303 232 310
3 310 232 241
3 235 234 233
3 234 235 305
3 234 305 242
3 242 305 311
3 306 236 312
3 312 236 243
3 307 313 237
3 313 244 237
3 314 308 239
3 246 314 239
3 239 245 246
3 238 245 239
3 309 315 240
3 315 247 240
3 310 241 316
3 316 241 249
3 311 318 242
3 318 250 242
3 312 243 319
3 319 243 252
3 313 320 244
3 320 253 244
3 322 314 246
3 256 322 246
3 246 255 256
3 245 255 246
3 248 258 257
3 258 248 247
3 258 247 324
3 324 247 315
3 261 317 316
3 261 316 259
3 259 316 249
3 251 263 262
3 263 251 250
3 263 250 327
3 327 250 318
3 319 252 329
3 329 252 264
3 266 321 331
3 254 321 266
3 321 254 253
3 320 321 253
3 322 256 323
3 256 333 323
3 256 255 333
3 255 268 333
3 325 257 258
3 325 337 257
3 337 271 257
3 258 324 325
3 261 259 260
3 260 326 261
3 260 273 326
3 273 340 326
3 328 262 263
3 328 342 262
3 342 275 262
3 263 327 328
3 329 264 265
3 330 329 265
3 330 265 332
3 265 267 332
3 332 267 266
3 331 332 266
3 333 268 269
3 335 333 269
3 335 269 336
3 269 270 336
3 336 270 338
3 270 272 338
3 338 272 271
3 337 338 271
3 340 273 274
3 341 340 274
3 341 274 343
3 274 276 343
3 343 276 275
3 342 343 275
3 284 357 347
3 277 284 347
3 277 347 359
3 286 277 359
3 361 348 289
3 288 289 348
3 288 348 278
3 278 348 350
3 280 350 349
3 280 279 350
3 279 278 350
3 352 279 280
3 352 353 279
3 353 281 279
3 281 353 362
3 290 281 362
3 292 365 354
3 282 292 354
3 354 355 282
3 282 355 283
3 296 294 283
3 296 283 356
3 356 283 355
3 356 367 296
3 297 368 358
3 285 297 358
3 359 287 286
3 360 287 359
3 287 360 369
3 298 287 369
3 370 361 289
3 301 370 289
3 289 299 301
3 288 299 289
3 362 291 290
3 363 291 362
3 291 363 371
3 302 291 371
3 293 303 304
3 304 292 293
3 304 372 292
3 372 365 292
3 296 295 294
3 295 296 367
3 295 367 305
3 305 367 374
3 368 297 375
3 375 297 306
3 369 376 298
3 376 307 298
3 301 300 308
3 301 308 370
3 370 308 377
3 301 299 300
3 371 379 302
3 379 309 302
3 373 304 303
3 373 303 381
3 381 303 310
3 304 373 372
3 374 383 305
3 383 311 305
3 375 306 384
3 384 306 312
3 376 385 307
3 385 313 307
3 377 308 386
3 386 308 314
3 379 388 309
3 388 315 309
3 381 310 390
3 390 310 316
3 383 393 311
3 393 318 311
3 384 312 394
3 394 312 319
3 385 395 313
3 395 320 313
3 386 314 397
3 397 314 322
3 388 399 315
3 399 324 315
3 390 316 317
3 391 390 317
3 317 400 391
3 326 400 317
3 393 401 318
3 401 327 318
3 394 319 403
3 403 319 329
3 331 396 405
3 321 396 331
3 396 321 320
3 395 396 320
3 323 334 407
3 323 407 322
3 322 407 397
3 323 333 334
3 325 339 337
3 339 325 324
3 339 324 410
3 410 324 399
3 400 326 412
3 412 326 340
3 342 402 414
3 328 402 342
3 402 328 327
3 401 402 327
3 403 329 330
3 404 403 330
3 404 330 406
3 330 332 406
3 406 332 331
3 405 406 331
3 417 335 344
3 408 335 417
3 408 333 335
3 408 334 333
3 336 344 335
3 345 344 336
3 345 409 419
3 345 336 409
3 336 338 409
3 337 339 411
3 337 411 338
3 338 411 409
3 339 410 411
3 412 340 341
3 413 412 341
3 413 341 415
3 341 343 415
3 415 343 342
3 414 415 342
3 344 345 420
3 418 344 420
3 345 419 420
3 424 421 351
3 349 351 421
3 349 421 346
3 346 421 422
3 346 422 426
3 352 346 426
3 357 431 423
3 347 357 423
3 347 423 434
3 359 347 434
3 361 436 425
3 348 361 425
3 351 425 424
3 351 350 425
3 350 348 425
3 351 349 350
3 426 353 352
3 427 353 426
3 364 362 353
3 364 353 428
3 428 353 427
3 428 437 364
3 354 365 366
3 366 438 429
3 366 429 354
3 354 429 355
3 429 430 355
3 355 430 356
3 356 430 440
3 367 356 440
3 368 441 432
3 358 368 432
3 434 360 359
3 435 360 434
3 360 435 442
3 369 360 442
3 436 361 443
3 443 361 370
3 364 363 362
3 363 364 437
3 363 437 371
3 371 437 446
3 439 366 365
3 439 365 449
3 449 365 372
3 366 439 438
3 440 450 367
3 450 374 367
3 441 368 451
3 451 368 375
3 442 452 369
3 452 376 369
3 444 377 378
3 444 443 377
3 443 370 377
3 380 446 447
3 380 379 446
3 379 371 446
3 373 381 382
3 382 372 373
3 382 455 372
3 455 449 372
3 450 456 374
3 456 383 374
3 451 375 457
3 457 375 384
3 452 458 376
3 458 385 376
3 378 386 387
3 377 386 378
3 389 379 380
3 388 379 389
3 454 460 389
3 380 454 389
3 392 382 381
3 390 392 381
3 455 392 462
3 382 392 455
3 456 463 383
3 463 393 383
3 457 384 464
3 464 384 394
3 458 465 385
3 465 395 385
3 387 397 398
3 386 397 387
3 461 388 389
3 461 469 388
3 469 399 388
3 389 460 461
3 392 390 391
3 391 462 392
3 391 400 462
3 400 471 462
3 463 472 393
3 472 401 393
3 464 394 473
3 473 394 403
3 405 466 475
3 396 466 405
3 466 396 395
3 465 466 395
3 467 398 468
3 398 477 468
3 398 397 477
3 397 407 477
3 469 481 399
3 481 410 399
3 471 400 483
3 483 400 412
3 402 416 414
3 416 402 401
3 416 401 487
3 487 401 472
3 473 403 404
3 474 473 404
3 474 404 476
3 404 406 476
3 476 406 405
3 475 476 405
3 477 407 408
3 479 477 408
3 408 489 479
3 417 489 408
3 419 480 491
3 409 480 419
3 480 409 482
3 409 411 482
3 482 411 410
3 481 482 410
3 483 412 413
3 484 483 413
3 484 413 486
3 413 415 486
3 414 416 488
3 414 488 415
3 415 488 486
3 489 417 418
3 490 489 418
3 490 418 492
3 418 420 492
3 492 420 419
3 491 492 419
3 424 497 493
3 421 424 493
3 493 494 421
3 421 494 422
3 422 494 500
3 426 422 500
3 506 495 433
3 431 433 495
3 431 495 423
3 423 495 496
3 423 496 507
3 434 423 507
3 436 510 498
3 425 436 498
3 498 424 425
3 497 424 498
3 500 427 426
3 502 427 500
3 502 503 427
3 427 503 428
3 428 503 513
3 437 428 513
3 438 516 504
3 429 438 504
3 504 505 429
3 429 505 430
3 430 505 518
3 440 430 518
3 433 432 441
3 433 441 506
3 506 441 519
3 507 435 434
3 508 435 507
3 435 508 520
3 442 435 520
3 521 511 445
3 511 443 445
3 511 510 443
3 510 436 443
3 448 513 514
3 448 446 513
3 446 437 513
3 514 523 448
3 449 525 517
3 439 449 517
3 517 438 439
3 516 438 517
3 518 526 440
3 526 450 440
3 519 441 527
3 527 441 451
3 520 528 442
3 528 452 442
3 445 444 453
3 445 453 521
3 521 453 529
3 445 443 444
3 448 447 446
3 447 448 523
3 447 523 454
3 454 523 531
3 525 449 533
3 533 449 455
3 526 534 450
3 534 456 450
3 527 451 535
3 535 451 457
3 528 536 452
3 536 458 452
3 529 453 537
3 537 453 459
3 531 539 454
3 539 460 454
3 533 455 541
3 541 455 462
3 534 542 456
3 542 463 456
3 535 457 543
3 543 457 464
3 536 544 458
3 544 465 458
3 537 459 546
3 546 459 467
3 461 470 469
3 470 461 460
3 470 460 548
3 548 460 539
3 541 462 551
3 551 462 471
3 542 553 463
3 553 472 463
3 543 464 554
3 554 464 473
3 475 545 556
3 466 545 475
3 545 466 465
3 544 545 465
3 468 478 558
3 468 558 467
3 467 558 546
3 468 477 478
3 549 469 470
3 549 562 469
3 562 481 469
3 470 548 549
3 485 552 551
3 485 551 483
3 483 551 471
3 552 485 565
3 553 567 472
3 567 487 472
3 554 473 474
3 555 554 474
3 555 474 557
3 474 476 557
3 557 476 475
3 556 557 475
3 478 477 479
3 478 479 559
3 559 479 560
3 479 569 560
3 489 569 479
3 491 561 572
3 480 561 491
3 561 480 563
3 480 482 563
3 563 482 481
3 562 563 481
3 565 485 484
3 565 484 566
3 566 484 486
3 566 486 568
3 486 488 568
3 568 488 487
3 567 568 487
3 569 489 490
3 570 569 490
3 570 490 573
3 490 492 573
3 573 492 491
3 572 573 491
3 493 497 499
3 494 493 499
3 501 494 499
3 494 501 500
3 506 587 575
3 495 506 575
3 575 576 495
3 495 576 496
3 509 507 496
3 509 496 577
3 577 496 576
3 577 589 509
3 590 578 512
3 510 512 578
3 510 578 498
3 498 578 579
3 497 580 499
3 497 498 580
3 498 579 580
3 499 581 501
3 580 581 499
3 501 502 500
3 501 581 502
3 581 582 502
3 582 583 502
3 502 583 503
3 515 513 503
3 515 503 584
3 584 503 583
3 584 594 515
3 516 597 585
3 504 516 585
3 585 586 504
3 504 586 505
3 505 586 599
3 518 505 599
3 587 506 600
3 600 506 519
3 509 508 507
3 508 509 589
3 508 589 520
3 520 589 601
3 603 591 522
3 512 511 521
3 590 512 521
3 590 521 522
3 590 522 591
3 512 510 511
3 515 514 513
3 514 524 523
3 515 524 514
3 515 595 524
3 515 594 595
3 595 605 524
3 525 608 598
3 517 525 598
3 598 516 517
3 597 516 598
3 599 609 518
3 609 526 518
3 600 519 610
3 610 519 527
3 601 611 520
3 611 528 520
3 613 603 522
3 530 613 522
3 522 529 530
3 521 529 522
3 532 523 524
3 531 523 532
3 605 615 532
3 524 605 532
3 608 525 618
3 618 525 533
3 609 620 526
3 620 534 526
3 610 527 621
3 621 527 535
3 611 622 528
3 622 536 528
3 624 613 530
3 538 624 530
3 530 537 538
3 529 537 530
3 540 531 532
3 539 531 540
3 615 626 540
3 532 615 540
3 618 533 629
3 629 533 541
3 620 631 534
3 631 542 534
3 621 535 633
3 633 535 543
3 622 634 536
3 634 544 536
3 637 624 538
3 547 637 538
3 538 546 547
3 537 546 538
3 550 539 540
3 548 539 550
3 626 640 550
3 540 626 550
3 629 541 643
3 643 541 551
3 631 645 542
3 645 553 542
3 633 543 646
3 646 543 554
3 556 635 649
3 545 635 556
3 635 545 544
3 634 635 544
3 637 547 639
3 547 652 639
3 547 546 652
3 546 558 652
3 549 564 562
3 564 641 661
3 549 641 564
3 549 550 641
3 549 548 550
3 550 640 641
3 643 551 552
3 644 643 552
3 552 664 644
3 565 664 552
3 645 667 553
3 667 567 553
3 646 554 555
3 647 646 555
3 647 555 650
3 555 557 650
3 650 557 556
3 649 650 556
3 652 558 559
3 654 652 559
3 654 559 655
3 559 560 655
3 571 560 569
3 571 656 560
3 656 655 560
3 656 574 657
3 571 574 656
3 572 657 574
3 572 561 657
3 561 659 657
3 659 561 660
3 561 563 660
3 562 564 662
3 562 662 563
3 563 662 660
3 564 661 662
3 664 565 566
3 666 664 566
3 666 566 668
3 566 568 668
3 668 568 567
3 667 668 567
3 571 569 570
3 574 571 570
3 573 574 570
3 588 681 669
3 588 669 575
3 575 669 576
3 669 670 576
3 576 670 577
3 577 670 684
3 589 577 684
3 688 671 592
3 590 592 671
3 590 671 578
3 578 671 672
3 672 673 578
3 578 673 579
3 673 674 579
3 579 674 580
3 692 593 581
3 692 581 674
3 674 581 580
3 593 694 675
3 593 675 581
3 581 675 582
3 675 676 582
3 582 676 583
3 676 677 583
3 583 677 584
3 596 594 584
3 596 584 678
3 678 584 677
3 678 699 596
3 597 705 679
3 585 597 679
3 679 680 585
3 585 680 586
3 586 680 708
3 599 586 708
3 682 588 587
3 682 587 709
3 709 587 600
3 588 682 681
3 602 684 685
3 602 601 684
3 601 589 684
3 685 711 602
3 713 689 604
3 592 591 603
3 688 592 603
3 688 603 604
3 688 604 689
3 592 590 591
3 692 695 593
3 593 695 694
3 596 595 594
3 595 606 605
3 596 606 595
3 596 700 606
3 596 699 700
3 700 702 607
3 606 700 607
3 608 719 706
3 598 608 706
3 706 597 598
3 705 597 706
3 708 722 599
3 722 609 599
3 709 600 723
3 723 600 610
3 612 601 602
3 611 601 612
3 711 725 612
3 602 711 612
3 727 713 604
3 614 727 604
3 604 613 614
3 603 613 604
3 616 605 606
3 615 605 616
3 606 607 616
3 607 617 616
3 720 618 619
3 720 719 618
3 719 608 618
3 722 731 609
3 731 620 609
3 723 610 733
3 733 610 621
3 623 611 612
3 622 611 623
3 725 735 623
3 612 725 623
3 737 727 614
3 625 737 614
3 614 624 625
3 613 624 614
3 627 615 616
3 626 615 627
3 616 617 627
3 617 628 627
3 619 629 630
3 618 629 619
3 632 731 732
3 632 631 731
3 631 620 731
3 732 744 632
3 733 621 746
3 746 621 633
3 636 622 623
3 634 622 636
3 735 749 636
3 623 735 636
3 752 737 625
3 638 752 625
3 625 637 638
3 624 637 625
3 642 626 627
3 640 626 642
3 742 759 642
3 742 642 628
3 628 642 627
3 630 762 743
3 630 629 762
3 629 643 762
3 745 631 632
3 745 764 631
3 764 645 631
3 648 747 746
3 648 746 646
3 646 746 633
3 747 648 765
3 635 651 649
3 651 750 768
3 635 750 651
3 635 636 750
3 635 634 636
3 636 749 750
3 752 638 754
3 773 639 653
3 754 639 773
3 754 637 639
3 754 638 637
3 639 652 653
3 778 658 756
3 641 663 661
3 663 760 787
3 641 760 663
3 641 642 760
3 641 640 642
3 642 759 760
3 644 665 791
3 644 791 643
3 643 791 762
3 644 664 665
3 764 795 645
3 795 667 645
3 765 648 647
3 765 647 766
3 766 647 650
3 649 651 769
3 649 769 650
3 650 769 766
3 651 768 769
3 773 653 775
3 653 652 654
3 653 654 775
3 775 654 776
3 776 654 777
3 654 655 777
3 777 655 779
3 655 656 779
3 658 778 779
3 658 779 657
3 657 779 656
3 781 658 657
3 781 657 782
3 782 657 659
3 782 659 784
3 659 660 784
3 784 660 786
3 660 662 786
3 661 663 788
3 661 788 662
3 662 788 786
3 663 787 788
3 665 664 666
3 665 666 793
3 793 666 794
3 794 666 796
3 666 668 796
3 796 668 667
3 795 796 667
3 669 681 683
3 683 810 797
3 683 797 669
3 669 797 670
3 686 684 670
3 686 670 798
3 798 670 797
3 798 812 686
3 813 799 687
3 799 800 690
3 687 799 690
3 688 690 800
3 688 800 671
3 671 800 801
3 801 802 671
3 671 802 672
3 816 691 673
3 816 673 802
3 802 673 672
3 674 673 691
3 693 674 691
3 674 693 692
3 675 694 696
3 676 675 696
3 697 676 696
3 677 676 697
3 698 677 697
3 698 820 803
3 698 803 677
3 677 803 678
3 701 699 678
3 701 678 804
3 804 678 803
3 804 805 703
3 701 804 703
3 805 806 704
3 703 805 704
3 806 807 707
3 704 806 707
3 705 707 807
3 705 807 679
3 679 807 808
3 808 809 679
3 679 809 680
3 680 809 824
3 708 680 824
3 682 709 710
3 710 826 811
3 682 710 811
3 682 811 683
3 682 683 681
3 686 685 684
3 685 712 711
3 686 712 685
3 686 814 712
3 686 812 814
3 814 813 687
3 814 687 712
3 712 687 714
3 713 690 689
3 713 714 690
3 714 687 690
3 690 688 689
3 816 818 691
3 828 691 818
3 828 715 691
3 715 693 691
3 695 692 693
3 695 693 716
3 716 693 715
3 694 695 716
3 694 716 696
3 696 716 717
3 819 717 830
3 819 697 717
3 697 696 717
3 697 821 698
3 819 821 697
3 701 700 699
3 703 700 701
3 702 700 703
3 702 721 718
3 702 703 721
3 703 704 721
3 719 707 706
3 719 721 707
3 721 704 707
3 707 705 706
3 824 834 708
3 834 722 708
3 724 710 709
3 723 724 709
3 826 724 835
3 710 724 826
3 726 711 712
3 725 711 726
3 712 714 726
3 714 728 726
3 714 727 728
3 713 727 714
3 836 715 828
3 729 715 836
3 715 729 716
3 716 729 730
3 831 730 838
3 831 717 730
3 717 716 730
3 717 831 830
3 721 720 718
3 721 719 720
3 834 843 722
3 843 731 722
3 734 724 723
3 733 734 723
3 835 734 845
3 724 734 835
3 736 725 726
3 735 725 736
3 726 728 736
3 728 738 736
3 728 737 738
3 727 737 728
3 729 739 730
3 730 739 740
3 838 741 839
3 838 730 741
3 730 740 741
3 839 741 848
3 843 732 731
3 844 732 843
3 732 844 851
3 744 732 851
3 748 734 733
3 746 748 733
3 845 748 854
3 734 748 845
3 751 735 736
3 749 735 751
3 736 738 751
3 738 753 751
3 738 752 753
3 737 752 738
3 857 739 846
3 755 739 857
3 739 755 740
3 740 755 757
3 740 757 741
3 741 757 758
3 848 758 859
3 741 758 848
3 742 761 759
3 743 761 742
3 763 761 743
3 743 762 763
3 764 852 863
3 745 852 764
3 852 745 744
3 851 852 744
3 748 746 747
3 747 765 767
3 748 747 767
3 748 767 855
3 748 855 854
3 855 767 864
3 750 770 768
3 749 770 750
3 749 751 770
3 751 771 770
3 751 753 771
3 753 772 771
3 754 753 752
3 754 774 753
3 774 772 753
3 754 773 774
3 874 755 857
3 780 755 874
3 778 756 757
3 778 757 780
3 780 757 755
3 756 781 783
3 756 783 757
3 757 783 758
3 859 785 860
3 859 758 785
3 758 783 785
3 860 785 877
3 760 789 787
3 759 789 760
3 759 761 789
3 761 790 789
3 761 763 790
3 763 792 790
3 763 791 792
3 762 791 763
3 863 888 764
3 888 795 764
3 767 765 766
3 864 767 766
3 864 766 865
3 865 766 769
3 768 770 867
3 768 867 769
3 769 867 865
3 770 771 868
3 867 770 868
3 771 772 869
3 868 771 869
3 772 774 870
3 869 772 870
3 774 773 775
3 774 775 870
3 870 775 871
3 871 775 872
3 775 776 872
3 872 776 875
3 776 777 875
3 780 874 875
3 780 875 779
3 779 875 777
3 780 779 778
3 783 781 782
3 785 783 782
3 784 785 782
3 877 785 784
3 877 784 878
3 878 784 786
3 878 786 880
3 786 788 880
3 787 789 882
3 787 882 788
3 788 882 880
3 789 790 884
3 882 789 884
3 790 792 885
3 884 790 885
3 792 791 793
3 792 793 885
3 885 793 886
3 886 793 887
3 793 794 887
3 887 794 889
3 794 796 889
3 889 796 795
3 888 889 795
3 810 901 891
3 797 810 891
3 891 892 797
3 797 892 798
3 815 812 798
3 815 798 893
3 893 798 892
3 813 815 893
3 813 893 799
3 799 893 894
3 894 895 799
3 799 895 800
3 895 896 800
3 800 896 801
3 905 817 802
3 905 802 896
3 896 802 801
3 802 817 816
3 803 820 822
3 804 803 822
3 823 804 822
3 823 909 897
3 823 897 804
3 804 897 805
3 897 898 805
3 805 898 806
3 898 899 806
3 806 899 807
3 899 900 807
3 807 900 808
3 914 825 809
3 914 809 900
3 900 809 808
3 809 825 824
3 811 826 827
3 827 810 811
3 827 917 810
3 917 901 810
3 905 907 817
3 920 829 818
3 907 920 818
3 907 818 816
3 907 816 817
3 818 829 828
3 819 830 832
3 821 819 832
3 833 821 832
3 833 922 908
3 821 833 908
3 821 908 822
3 821 822 820
3 822 910 823
3 908 910 822
3 823 910 909
3 914 916 825
3 825 916 926
3 825 926 824
3 824 926 834
3 918 827 826
3 918 826 928
3 928 826 835
3 827 918 917
3 930 829 920
3 837 829 930
3 829 837 836
3 828 829 836
3 830 831 840
3 830 840 832
3 832 840 841
3 832 841 833
3 833 841 842
3 922 842 932
3 833 842 922
3 926 934 834
3 934 843 834
3 928 835 936
3 936 835 845
3 939 837 930
3 847 837 939
3 837 847 846
3 836 837 846
3 839 848 849
3 839 849 840
3 840 849 841
3 841 849 842
3 842 849 850
3 932 850 941
3 842 850 932
3 844 943 853
3 844 843 943
3 843 934 943
3 844 853 851
3 856 937 936
3 856 936 854
3 854 936 845
3 937 856 945
3 949 847 939
3 858 847 949
3 847 858 857
3 846 847 857
3 861 849 848
3 859 861 848
3 849 861 850
3 850 861 862
3 941 862 952
3 850 862 941
3 853 863 852
3 853 943 863
3 943 957 863
3 853 852 851
3 856 854 855
3 855 864 866
3 856 855 866
3 856 866 946
3 856 946 945
3 946 866 960
3 969 873 950
3 950 858 949
3 950 873 858
3 873 876 858
3 858 876 874
3 857 858 874
3 861 859 860
3 860 877 879
3 860 879 861
3 861 879 862
3 952 881 953
3 952 862 881
3 862 879 881
3 953 883 955
3 881 883 953
3 955 883 972
3 979 890 958
3 958 890 888
3 958 888 957
3 957 888 863
3 866 864 865
3 960 866 865
3 960 865 961
3 961 865 867
3 961 867 963
3 867 868 963
3 963 868 965
3 868 869 965
3 965 869 967
3 869 870 967
3 967 870 970
3 870 871 970
3 873 969 970
3 873 970 872
3 872 970 871
3 876 873 872
3 875 876 872
3 879 877 878
3 881 879 878
3 880 881 878
3 883 881 880
3 882 883 880
3 972 883 882
3 972 882 973
3 973 882 884
3 973 884 975
3 884 885 975
3 975 885 977
3 885 886 977
3 977 886 980
3 886 887 980
3 890 979 980
3 890 980 889
3 889 980 887
3 890 889 888
3 891 901 902
3 892 891 902
3 903 892 902
3 903 984 982
3 903 982 892
3 892 982 893
3 982 983 893
3 893 983 894
3 987 904 895
3 987 895 983
3 983 895 894
3 896 895 904
3 906 896 904
3 896 906 905
3 897 909 911
3 898 897 911
3 912 898 911
3 899 898 912
3 913 899 912
3 900 899 913
3 915 900 913
3 900 915 914
3 919 902 901
3 917 919 901
3 985 919 994
3 985 903 919
3 903 902 919
3 903 985 984
3 987 989 904
3 904 990 906
3 989 990 904
3 1000 921 907
3 990 1000 907
3 990 907 905
3 990 905 906
3 907 921 920
3 908 922 923
3 910 908 923
3 924 910 923
3 924 1002 991
3 910 924 991
3 910 991 911
3 910 911 909
3 911 992 912
3 991 992 911
3 912 993 913
3 992 993 912
3 1006 913 993
3 1006 925 913
3 925 915 913
3 916 914 915
3 916 915 927
3 927 915 925
3 916 927 926
3 918 928 929
3 929 1009 995
3 918 929 995
3 918 995 919
3 918 919 917
3 919 995 994
3 1015 921 1000
3 931 921 1015
3 921 931 930
3 920 921 930
3 933 923 922
3 932 933 922
3 1003 933 1017
3 1003 924 933
3 924 923 933
3 924 1003 1002
3 1006 1008 925
3 1022 925 1008
3 1022 935 925
3 935 927 925
3 927 935 934
3 926 927 934
3 938 929 928
3 936 938 928
3 1009 938 1024
3 929 938 1009
3 1031 931 1015
3 940 931 1031
3 931 940 939
3 930 931 939
3 942 933 932
3 941 942 932
3 1017 942 1034
3 933 942 1017
3 1040 935 1022
3 944 935 1040
3 935 944 943
3 934 935 943
3 938 936 937
3 937 945 947
3 938 937 947
3 938 947 1025
3 938 1025 1024
3 1025 947 1042
3 1049 948 1032
3 1032 940 1031
3 1032 948 940
3 948 951 940
3 940 951 949
3 939 940 949
3 954 942 941
3 952 954 941
3 1034 956 1035
3 1034 942 956
3 942 954 956
3 1035 956 1052
3 1059 944 1040
3 959 944 1059
3 944 959 957
3 943 944 957
3 947 945 946
3 946 960 962
3 947 946 962
3 947 962 1043
3 947 1043 1042
3 1043 964 1045
3 962 964 1043
3 1045 966 1047
3 964 966 1045
3 1047 968 1050
3 966 968 1047
3 1050 948 1049
3 1050 968 948
3 968 971 948
3 969 950 951
3 969 951 971
3 971 951 948
3 951 950 949
3 956 954 953
3 955 956 953
3 955 972 974
3 956 955 974
3 956 974 1053
3 956 1053 1052
3 1053 976 1055
3 974 976 1053
3 1055 978 1057
3 976 978 1055
3 1057 981 1060
3 978 981 1057
3 959 979 958
3 1059 979 959
3 1059 981 979
3 1059 1060 981
3 959 958 957
3 962 960 961
3 964 962 961
3 963 964 961
3 966 964 963
3 965 966 963
3 968 966 965
3 967 968 965
3 971 968 967
3 970 971 967
3 971 970 969
3 974 972 973
3 976 974 973
3 975 976 973
3 978 976 975
3 977 978 975
3 981 978 977
3 980 981 977
3 981 980 979
3 982 984 986
3 983 982 986
3 988 983 986
3 983 988 987
3 985 994 996
3 984 985 996
3 984 996 986
3 986 996 997
3 986 997 988
3 988 997 998
3 989 987 988
3 989 988 999
3 999 988 998
3 990 989 999
3 1001 990 999
3 990 1001 1000
3 991 1002 1004
3 992 991 1004
3 1005 992 1004
3 993 992 1005
3 1007 993 1005
3 995 1009 1010
3 994 995 1010
3 994 1010 996
3 996 1010 1011
3 996 1011 997
3 997 1011 1012
3 997 1012 998
3 998 1012 1013
3 998 1013 999
3 999 1013 1014
3 999 1014 1001
3 1001 1014 1016
3 1001 1016 1015
3 1000 1001 1015
3 1003 1017 1018
3 1002 1003 1018
3 1002 1018 1004
3 1004 1018 1019
3 1004 1019 1005
3 1005 1019 1020
3 1005 1020 1007
3 1007 1020 1021
3 1008 1006 1007
3 1008 1007 1023
3 1023 1007 1021
3 1008 1023 1022
3 1026 1010 1009
3 1024 1026 1009
3 1010 1026 1011
3 1011 1026 1027
3 1011 1027 1012
3 1012 1027 1028
3 1012 1028 1013
3 1013 1028 1029
3 1013 1029 1014
3 1014 1029 1030
3 1014 1030 1016
3 1016 1030 1033
3 1016 1033 1031
3 1015 1016 1031
3 1036 1018 1017
3 1034 1036 1017
3 1018 1036 1019
3 1019 1036 1037
3 1019 1037 1020
3 1020 1037 1038
3 1020 1038 1021
3 1021 1038 1039
3 1021 1039 1023
3 1023 1039 1041
3 1023 1041 1040
3 1022 1023 1040
3 1026 1024 1025
3 1025 1042 1044
3 1025 1044 1026
3 1026 1044 1027
3 1027 1044 1028
3 1028 1044 1046
3 1028 1046 1029
3 1029 1046 1048
3 1029 1048 1030
3 1030 1048 1051
3 1049 1032 1033
3 1049 1033 1051
3 1051 1033 1030
3 1033 1032 1031
3 1036 1034 1035
3 1035 1052 1054
3 1035 1054 1036
3 1036 1054 1037
3 1037 1054 1038
3 1038 1054 1056
3 1038 1056 1039
3 1039 1056 1058
3 1039 1058 1041
3 1041 1058 1061
3 1041 1061 1059
3 1040 1041 1059
3 1044 1042 1043
3 1046 1044 1043
3 1045 1046 1043
3 1048 1046 1045
3 1047 1048 1045
3 1051 1048 1047
3 1050 1051 1047
3 1051 1050 1049
3 1056 1054 1053
3 1055 1056 1053
3 1058 1056 1055
3 1057 1058 1055
3 1061 1058 1057
3 1060 1061 1057
3 1061 1060 1059
