ply
format ascii 1.0
element vertex 512
property float x
property float y
property float z
property float nx
property float ny
property float nz
end_header
-0.356415 0.164295 -0.659614 -0.210176 -0.448648 -0.868643
-0.240618 0.062771 0.482581 -0.374966 -0.222439 0.899956
0.133879 -0.001779 -0.882300 0.045345 -0.051004 0.997669
-0.322538 -0.159445 -0.651730 -0.029856 0.181465 -0.982944
0.051881 -0.059070 0.867474 0.050995 0.177114 -0.982868
0.288625 0.136161 0.118885 -0.817485 -0.564856 0.112498
0.063516 -0.034572 0.870489 0.027825 -0.025505 -0.999287
0.234276 -0.074297 0.603751 0.608157 0.201205 0.767895
0.461004 -0.189869 -0.257226 -0.510876 0.810108 -0.287629
0.519635 -0.001422 -0.238819 -0.842143 0.024740 -0.538686
0.296144 0.125761 -0.440912 0.895295 -0.445226 -0.014861
0.386195 0.000301 0.868768 -0.174129 -0.044571 -0.983714
-0.448263 0.009897 -0.575577 -0.574048 -0.009846 -0.818762
0.416254 -0.042484 0.272660 -0.689318 0.199583 0.696424
-0.521350 0.150560 -0.566519 -0.522268 -0.422546 -0.740737
0.256071 0.055280 0.597207 0.383852 -0.107949 0.917063
0.066035 0.149946 0.253921 0.574191 -0.376183 -0.727180
0.295483 -0.034182 0.071021 -0.946404 0.195179 -0.257341
0.505515 -0.197610 -0.434957 -0.462543 0.886293 -0.023215
-0.277743 -0.130356 0.597198 0.805975 0.585545 0.086843
0.248045 0.245709 -0.149804 0.034024 -0.994171 0.102304
0.165514 -0.142711 -0.859298 0.039743 0.279932 0.959197
-0.568824 -0.117502 -0.744586 0.385155 0.297978 0.873421
0.565343 -0.147901 -0.496219 -0.723083 0.671128 0.163517
-0.399349 0.060434 -0.829384 0.455046 -0.046514 0.889252
0.479728 0.167474 -0.254053 -0.643268 -0.658763 -0.390176
-0.032198 0.204230 0.179055 0.266835 -0.307830 -0.913258
-0.695196 0.130125 -0.580313 0.924530 -0.321329 -0.204918
-0.581955 0.195317 -0.549320 -0.522268 -0.422546 -0.740737
-0.320730 0.047546 0.516294 0.992006 -0.110800 0.060392
0.407454 0.214512 -0.653336 -0.580698 -0.661597 0.474425
0.329742 -0.222134 0.339626 -0.093261 0.988355 0.120233
0.517427 -0.101945 0.721485 -0.824652 0.564989 -0.027139
0.276011 -0.096272 0.584437 0.690150 0.455190 0.562578
-0.191098 0.187748 0.729093 0.320716 -0.432775 -0.842524
0.282626 0.039296 -0.473663 0.988712 -0.144992 0.037752
0.430788 -0.221052 0.594456 -0.744108 0.668056 0.002163
0.208557 0.189614 -0.269827 0.426325 -0.779857 0.458334
-0.231067 0.041281 0.481249 -0.374966 -0.222439 0.899956
-0.326490 0.006482 0.622042 0.986706 0.160445 -0.025856
0.219528 -0.231425 -0.022643 -0.402500 0.906536 -0.127228
0.565148 -0.099980 -0.367468 -0.897370 0.342862 -0.277800
-0.054052 0.230858 -0.787378 -0.039902 -0.994958 0.092016
0.489471 -0.041640 0.783633 -0.845701 0.036811 -0.532386
0.351101 -0.105312 0.210157 -0.810128 0.154723 0.565467
0.313848 0.049377 0.027992 -0.774581 -0.137469 -0.617355
0.305109 -0.155900 -0.592972 0.884616 0.452310 -0.113449
0.388026 0.206047 0.357170 -0.746422 -0.523177 0.411266
0.447463 -0.225600 -0.346923 -0.462543 0.886293 -0.023215
-0.197532 -0.084131 0.792163 0.657065 0.442239 -0.610484
-0.487119 0.124675 -0.577081 -0.535970 -0.400440 -0.743225
-0.214372 -0.223259 0.073792 0.377847 0.908768 -0.177123
0.072774 -0.222605 -0.738575 -0.041340 0.970898 0.235900
0.408307 0.185124 0.367363 -0.746422 -0.523177 0.411266
-0.124777 0.179018 0.150155 0.385113 -0.382538 -0.839853
-0.228943 0.186344 -0.685361 0.019019 -0.854331 -0.519381
0.008103 0.012607 -0.624218 -0.003426 -0.041163 -0.999147
-0.394774 -0.058629 -0.615920 -0.378033 0.360250 -0.852825
0.326711 -0.000982 0.022320 -0.796529 0.026036 -0.604040
-0.157409 -0.227786 -0.757592 -0.041340 0.970898 0.235900
-0.244005 0.170089 0.569605 0.411364 -0.905334 0.105595
0.169957 -0.073823 0.406758 0.662939 0.441332 -0.604763
0.385371 0.233012 -0.345353 -0.093808 -0.995249 0.026068
-0.399015 -0.089827 -0.826848 0.223376 0.237899 0.945255
0.449129 -0.136101 0.371976 -0.748124 0.512296 0.421738
-0.313970 0.209934 -0.731712 0.066388 -0.875045 -0.479468
0.243830 0.145815 -0.865099 0.044306 -0.208187 0.977085
0.008756 0.019817 -0.175558 0.358219 -0.142239 0.922739
0.041352 -0.001766 -0.196817 0.672277 -0.160118 0.722776
-0.236210 0.073968 -0.856497 0.071076 -0.325444 0.942886
-0.561985 -0.184805 -0.549133 -0.393759 0.767282 -0.506194
-0.604838 0.186922 -0.535470 -0.038341 -0.445886 -0.894268
-0.312754 -0.209755 -0.741994 0.143375 0.987990 -0.057615
-0.074056 0.013803 0.560627 -0.515793 0.032969 0.856078
-0.342419 0.098125 -0.838008 0.253101 -0.424783 0.869195
-0.080933 0.030101 -0.137865 0.284713 -0.073671 0.955778
-0.136766 -0.202990 -0.800561 -0.015185 0.857976 0.513465
0.017555 -0.119142 0.238927 0.368277 0.433764 -0.822326
0.574381 0.112462 -0.461318 -0.957603 -0.270216 -0.099898
-0.286893 -0.079056 0.689044 0.709929 0.471899 -0.522793
-0.074760 -0.192634 0.775815 0.413105 0.732579 -0.540992
-0.092947 0.188954 0.769950 0.655386 -0.233414 -0.718322
-0.417880 0.137230 -0.782101 0.102141 -0.639780 0.761741
0.100717 -0.006980 -0.623729 -0.003426 -0.041163 -0.999147
0.442649 0.020694 -0.129631 -0.796529 0.026036 -0.604040
-0.225565 -0.171124 0.125655 0.342980 0.416548 -0.841934
0.392772 0.036367 -0.788837 -0.735447 -0.076362 0.673266
0.009721 0.232907 -0.080903 0.204529 -0.756413 0.621294
0.297331 -0.191891 -0.061424 -0.573109 0.631713 -0.522000
-0.541032 0.090920 -0.524251 -0.519304 -0.089537 -0.849886
0.196338 -0.072472 0.436663 0.662939 0.441332 -0.604763
0.173911 0.220226 0.715823 0.081622 -0.718933 0.690271
0.423767 -0.226623 -0.389291 0.256737 0.964544 0.061170
0.382558 0.018543 0.233520 -0.797842 -0.115917 0.591618
-0.005225 0.158138 0.829563 -0.077072 -0.318390 -0.944822
0.014578 0.157884 0.648086 -0.052176 -0.352051 0.934525
0.062752 0.158071 -0.660077 0.003645 -0.492543 -0.870281
0.507662 -0.197999 -0.492618 -0.462543 0.886293 -0.023215
0.196451 -0.138401 -0.861837 0.039743 0.279932 0.959197
0.024001 -0.219549 -0.759698 -0.041340 0.970898 0.235900
0.333896 -0.239753 -0.239021 -0.016642 0.998125 0.058900
0.151439 -0.260423 0.031963 -0.493395 0.866986 -0.069985
-0.285670 0.079175 0.703608 0.846093 -0.435488 -0.307369
-0.123682 -0.202331 0.646636 -0.179513 0.795547 0.578689
0.184525 -0.094584 0.648468 0.608157 0.201205 0.767895
0.064627 -0.214528 0.720207 -0.107045 0.885786 0.451581
-0.183367 -0.042053 -0.104018 0.213687 0.144670 0.966131
0.212841 0.242242 -0.048545 -0.374790 -0.900966 -0.218617
0.238773 -0.138295 -0.327514 0.787094 0.272261 0.553495
0.268124 -0.052660 -0.447044 0.988712 -0.144992 0.037752
-0.076947 0.113360 -0.115267 0.467050 -0.335852 0.817966
0.355957 0.229730 0.436717 0.398494 -0.836211 -0.376769
0.321462 -0.223031 -0.653936 0.327980 0.784438 -0.526390
0.248874 -0.230291 0.313866 0.382585 0.763101 -0.520870
0.114597 0.066591 0.864246 0.071780 -0.140152 -0.987525
-0.315182 -0.152420 -0.650656 -0.029856 0.181465 -0.982944
0.208325 0.025237 0.613655 0.383852 -0.107949 0.917063
0.477923 -0.105339 0.385687 -0.748124 0.512296 0.421738
0.153716 -0.025286 -0.623156 -0.003426 -0.041163 -0.999147
-0.706571 0.059863 -0.607870 0.781821 -0.209996 0.587075
0.015559 0.243319 -0.070148 0.204529 -0.756413 0.621294
-0.581138 -0.191813 -0.544858 -0.393759 0.767282 -0.506194
-0.593524 0.204852 -0.637743 0.220657 -0.933855 0.281471
-0.434819 0.192211 -0.685080 0.175298 -0.984266 -0.022147
-0.272396 0.113040 -0.045753 0.695697 -0.394857 0.600078
0.306475 -0.218853 0.790056 0.004653 0.980455 -0.196690
0.257713 -0.157694 -0.633779 0.215827 0.539742 -0.813693
-0.101981 0.025595 0.543348 -0.515793 0.032969 0.856078
-0.244669 -0.203773 -0.802445 -0.015185 0.857976 0.513465
0.245109 -0.144081 -0.333263 0.757140 0.302670 0.578904
0.146093 0.163552 -0.662831 0.003645 -0.492543 -0.870281
0.254941 -0.158358 -0.634955 0.215827 0.539742 -0.813693
-0.286067 -0.092656 0.525423 0.861403 0.477466 0.173238
0.468114 -0.201372 -0.302250 -0.510876 0.810108 -0.287629
0.423282 -0.229147 0.591388 0.111670 0.993340 -0.028394
0.572694 -0.030298 -0.559623 -0.922988 0.066615 0.379020
-0.181626 0.149085 0.142176 0.298049 -0.409288 -0.862352
0.366302 0.236475 -0.281761 -0.093808 -0.995249 0.026068
-0.431527 -0.097873 -0.807600 0.276421 0.470692 0.837878
-0.441518 -0.155249 -0.630952 -0.603628 0.339013 -0.721597
0.330165 -0.047914 0.878255 0.027825 -0.025505 -0.999287
0.351159 0.178055 -0.106778 -0.544903 -0.661010 -0.515893
-0.559919 0.147558 -0.730778 0.253993 -0.553014 0.793513
0.379885 0.089750 -0.067863 -0.758456 -0.375942 -0.532365
-0.491705 -0.183732 -0.732754 0.319120 0.683463 0.656538
-0.138709 0.198166 -0.048222 0.236544 -0.886339 0.398058
0.046485 -0.174222 -0.836190 -0.017431 0.814945 0.579276
-0.531714 -0.197749 -0.698715 0.319120 0.683463 0.656538
-0.117599 -0.250466 0.026599 0.133497 0.969100 0.207420
-0.274408 -0.199851 0.065824 0.377847 0.908768 -0.177123
0.499696 0.186096 -0.508574 -0.594203 -0.797945 0.101027
0.164191 0.007973 0.408849 0.728307 -0.010158 -0.685176
0.398471 -0.088153 0.268147 -0.689318 0.199583 0.696424
0.086957 0.100893 0.630658 -0.052176 -0.352051 0.934525
0.127658 0.019905 -0.272292 0.672277 -0.160118 0.722776
-0.358085 0.189051 -0.689301 -0.215842 -0.910933 -0.351587
0.056334 0.204562 0.701091 -0.056237 -0.854790 0.515918
-0.333847 0.044274 -0.017712 0.734181 -0.052299 0.676936
0.007518 -0.066464 0.863840 0.050995 0.177114 -0.982868
0.375432 0.091093 0.238125 -0.797842 -0.115917 0.591618
0.573536 -0.068011 -0.355108 -0.897370 0.342862 -0.277800
-0.128446 -0.176705 -0.074136 0.233790 0.563469 0.792367
0.136385 0.143415 -0.651475 0.003645 -0.492543 -0.870281
-0.502524 0.017798 -0.794824 0.282911 -0.076017 0.956129
-0.302876 -0.150565 0.057800 0.950271 0.311387 -0.004786
-0.089074 0.225189 -0.812267 -0.040053 -0.794817 0.605526
0.380435 -0.224655 0.580039 0.111670 0.993340 -0.028394
-0.165886 0.134776 0.553452 -0.638487 -0.244631 0.729719
0.158702 0.155793 -0.262418 0.615200 -0.288073 0.733855
0.481981 0.066339 0.790298 -0.801442 -0.135734 -0.582466
-0.645740 0.031961 -0.484168 -0.117207 -0.095395 -0.988515
0.456502 0.037921 -0.717259 -0.762350 -0.130789 0.633811
0.412699 -0.097382 -0.759271 -0.725507 0.250098 0.641164
0.246508 -0.233569 0.268953 -0.428613 0.899588 0.083852
-0.588975 -0.079297 -0.739156 0.746956 0.293571 0.596551
-0.317103 -0.074333 -0.041138 0.567410 0.420922 0.707722
0.335161 0.204603 -0.452386 0.895295 -0.445226 -0.014861
0.143182 0.254681 0.141058 -0.273978 -0.950244 -0.148232
0.206574 -0.150339 -0.293150 0.612578 0.341381 0.712887
-0.317320 -0.012866 0.657978 0.905316 0.149941 -0.397392
0.220240 0.195067 -0.671651 0.150508 -0.800788 -0.579729
0.088580 0.279323 0.055390 -0.174301 -0.983881 -0.039973
0.095684 0.006436 0.611077 -0.102453 -0.074345 0.991956
-0.354522 0.085208 -0.840796 0.253101 -0.424783 0.869195
-0.332614 -0.027775 0.079117 0.992807 0.052620 -0.107545
-0.320450 0.187087 -0.791300 0.434434 -0.725258 0.534105
-0.009768 0.221362 -0.732111 0.058070 -0.772183 -0.632741
0.410484 -0.134902 0.301968 -0.748124 0.512296 0.421738
0.521280 -0.162174 -0.302524 -0.897370 0.342862 -0.277800
-0.114939 -0.165584 -0.086799 0.328299 0.575780 0.748797
0.281496 -0.214642 0.240618 -0.093261 0.988355 0.120233
-0.279790 -0.141600 -0.030291 0.696657 0.514637 0.499819
0.344039 0.221579 -0.426133 0.895295 -0.445226 -0.014861
-0.465977 -0.103701 -0.792961 0.276421 0.470692 0.837878
-0.495569 0.021065 -0.796623 0.282911 -0.076017 0.956129
-0.099002 0.137976 0.611722 -0.392186 -0.471025 0.790143
-0.116622 0.198741 0.667274 -0.295173 -0.954646 0.039024
0.273664 -0.040970 -0.555251 0.995122 -0.076739 -0.061996
-0.394052 -0.125132 -0.643223 -0.029856 0.181465 -0.982944
0.503944 -0.180939 -0.310910 -0.552500 0.815494 -0.172375
0.505383 -0.120127 0.708942 -0.824652 0.564989 -0.027139
0.288409 -0.232104 0.712517 0.120035 0.922319 0.367313
0.068341 0.224553 -0.802477 -0.039902 -0.994958 0.092016
-0.308970 0.095739 0.575207 0.879542 -0.455431 -0.137802
0.029561 -0.213662 -0.777811 -0.015185 0.857976 0.513465
0.201890 0.249410 -0.084592 0.001760 -0.999083 0.042790
0.094555 0.207421 0.709993 -0.056237 -0.854790 0.515918
0.535543 -0.006669 0.427086 -0.838034 -0.333394 0.431911
0.010260 0.040531 0.860360 0.071780 -0.140152 -0.987525
0.561010 -0.165851 -0.435176 -0.907768 0.402865 -0.116863
0.148907 -0.156825 0.658010 -0.221917 0.268046 0.937499
0.485726 0.201367 -0.352962 -0.617012 -0.780906 -0.097373
0.538391 -0.052258 0.531109 -0.916258 0.394235 0.071066
-0.058494 0.051397 -0.625588 -0.003426 -0.041163 -0.999147
-0.208734 -0.225856 0.072494 0.377847 0.908768 -0.177123
-0.312287 -0.135379 -0.835878 0.223376 0.237899 0.945255
0.488223 0.186144 -0.589539 -0.607736 -0.708968 0.357802
0.026777 -0.195563 -0.126190 0.310058 0.368381 0.876447
0.087073 0.047160 0.617080 -0.132821 -0.242404 0.961040
-0.575764 -0.124341 -0.733531 0.746956 0.293571 0.596551
0.300518 0.042469 0.875122 0.027825 -0.025505 -0.999287
-0.312528 0.061258 0.655059 0.846093 -0.435488 -0.307369
0.507634 -0.142329 -0.267728 -0.698431 0.426161 -0.574961
0.140645 0.149049 -0.858990 0.071076 -0.325444 0.942886
0.487315 -0.201399 -0.555941 -0.608015 0.778502 0.155731
0.281681 0.038888 -0.525420 0.995122 -0.076739 -0.061996
0.253403 -0.222243 -0.699797 -0.105251 0.973991 0.200660
0.051643 -0.267837 0.106589 0.307936 0.855573 -0.416137
-0.304593 0.085348 0.113928 0.616675 -0.362895 -0.698583
0.334027 0.199409 0.601354 0.812640 -0.572939 -0.106574
0.480654 0.194558 -0.310677 -0.693439 -0.685113 -0.223074
0.338270 0.210491 -0.441486 0.895295 -0.445226 -0.014861
0.105886 -0.219852 -0.720810 0.069405 0.710291 -0.700478
-0.167361 0.051108 -0.865904 0.045345 -0.051004 0.997669
0.046720 0.165984 -0.846064 0.071076 -0.325444 0.942886
0.061252 -0.222160 0.757556 0.033759 0.942729 -0.331847
-0.691199 0.045175 -0.633130 0.775985 -0.120052 0.619222
0.124722 0.189232 0.822547 0.008869 -0.508583 -0.860967
0.071094 0.086989 -0.204819 0.672277 -0.160118 0.722776
0.026935 -0.125235 -0.858656 0.039743 0.279932 0.959197
0.323302 0.170474 -0.815762 -0.464634 -0.607808 0.643960
0.344879 0.194612 -0.757679 -0.580698 -0.661597 0.474425
0.579866 0.073790 -0.421108 -0.918384 -0.255795 -0.301894
-0.706925 -0.022485 -0.606639 0.801098 0.149545 0.579550
0.247405 0.140755 -0.625257 0.473705 -0.523208 -0.708419
-0.156704 -0.024198 -0.624220 0.039127 0.363001 -0.930967
0.290370 -0.112608 -0.532750 0.875403 0.475197 -0.088645
0.267860 0.076375 0.873348 0.027825 -0.025505 -0.999287
0.024295 0.039904 0.269621 0.505943 -0.023083 -0.862258
0.456471 0.170545 0.449911 -0.781672 -0.564604 0.264975
0.196240 -0.211564 0.798759 0.020969 0.636801 -0.770743
0.534754 -0.041605 -0.264301 -0.842143 0.024740 -0.538686
0.417594 0.079419 0.303279 -0.867284 -0.078093 0.491649
0.005499 -0.221217 0.730874 0.065242 0.970751 0.231055
0.431681 0.241754 -0.448329 0.195926 -0.971808 0.131156
0.333066 -0.122584 -0.808464 -0.511479 0.535993 0.671640
0.078910 0.142632 -0.856551 0.071076 -0.325444 0.942886
-0.152023 -0.087487 0.187399 0.278152 0.032761 -0.959978
-0.681080 -0.042235 -0.637267 0.801098 0.149545 0.579550
-0.364669 -0.148000 -0.820323 0.223376 0.237899 0.945255
0.444718 0.053958 -0.137228 -0.774581 -0.137469 -0.617355
-0.214665 -0.109792 -0.645840 -0.029856 0.181465 -0.982944
0.019771 0.212916 -0.719093 0.058070 -0.772183 -0.632741
0.143607 -0.105898 -0.643454 0.039127 0.363001 -0.930967
-0.149468 0.171630 -0.061157 0.299369 -0.415204 0.859060
0.479468 -0.079659 -0.186022 -0.718676 0.437497 -0.540463
0.181143 0.007774 -0.319102 0.644119 -0.044591 0.763624
-0.078932 0.052697 0.570847 -0.392186 -0.471025 0.790143
0.018647 0.091017 -0.633113 0.041902 -0.266296 -0.962980
-0.127624 0.198372 0.140034 0.385113 -0.382538 -0.839853
-0.325410 -0.114068 -0.838140 0.223376 0.237899 0.945255
0.361271 -0.167739 -0.102397 -0.573109 0.631713 -0.522000
0.491843 0.117114 0.752470 -0.855686 -0.309160 -0.414995
0.484488 0.049348 -0.188360 -0.758456 -0.375942 -0.532365
0.120082 -0.107318 -0.867744 0.039743 0.279932 0.959197
-0.104979 0.196177 0.692598 -0.295173 -0.954646 0.039024
-0.155032 0.211039 0.677571 -0.295173 -0.954646 0.039024
-0.508387 0.152113 -0.744332 0.283678 -0.584408 0.760259
-0.105502 0.061070 0.562650 -0.392186 -0.471025 0.790143
0.386589 0.003163 0.236472 -0.867284 -0.078093 0.491649
0.143253 0.228002 -0.152171 0.424663 -0.737341 0.525347
-0.040780 -0.243558 0.098879 0.160182 0.827386 -0.538307
0.252640 -0.022904 0.499369 0.718923 0.027032 -0.694564
0.268873 0.209558 0.389382 0.398494 -0.836211 -0.376769
-0.088900 -0.156939 0.810004 0.274017 0.562843 -0.779822
-0.099460 0.000515 -0.623351 -0.003426 -0.041163 -0.999147
0.323089 -0.191164 -0.593367 0.884616 0.452310 -0.113449
-0.083324 -0.079281 0.564513 -0.451717 0.179036 0.874013
0.395020 0.234054 -0.450616 0.195926 -0.971808 0.131156
-0.054881 0.023590 0.852907 0.288707 -0.128506 -0.948754
0.303710 0.010137 0.876036 0.027825 -0.025505 -0.999287
-0.245929 -0.210303 -0.715685 -0.029454 0.904975 -0.424445
0.201515 -0.175704 -0.266726 0.277154 0.824563 0.493236
-0.147611 -0.061995 -0.638575 0.039127 0.363001 -0.930967
-0.157317 -0.124678 -0.097407 0.213687 0.144670 0.966131
0.173670 0.208370 -0.205462 0.426325 -0.779857 0.458334
-0.582434 -0.094622 -0.739804 0.746956 0.293571 0.596551
0.174624 -0.176443 -0.829210 -0.017431 0.814945 0.579276
0.523252 0.011838 -0.636713 -0.823319 -0.130485 0.552376
-0.285039 0.099441 0.676632 0.846093 -0.435488 -0.307369
0.226122 0.221742 -0.764454 -0.039902 -0.994958 0.092016
0.506498 0.111541 0.718089 -0.970645 -0.227207 0.078896
0.296505 0.227771 -0.123672 -0.424736 -0.854711 -0.298442
0.192645 -0.119922 -0.867073 0.039743 0.279932 0.959197
0.342159 -0.238021 0.702462 0.281055 0.944965 0.167478
0.226514 0.245386 -0.147503 0.017140 -0.994644 0.101924
0.052596 0.209228 -0.711580 0.058070 -0.772183 -0.632741
0.058398 0.054060 -0.200305 0.672277 -0.160118 0.722776
-0.007716 -0.129952 -0.855844 0.039743 0.279932 0.959197
0.258749 -0.215093 -0.681181 0.327980 0.784438 -0.526390
0.318114 0.051062 0.148619 -0.821466 -0.161983 0.546768
0.065661 -0.094641 -0.642341 0.039127 0.363001 -0.930967
0.447591 0.209942 0.648181 -0.599832 -0.797816 -0.060746
0.345385 0.054135 0.873552 -0.174129 -0.044571 -0.983714
-0.140347 0.004054 -0.865908 0.070117 0.069779 0.995095
0.284027 0.110133 -0.575947 0.995122 -0.076739 -0.061996
-0.111980 0.142579 0.172620 0.385113 -0.382538 -0.839853
0.172146 -0.250581 0.199584 -0.064227 0.990391 -0.122473
0.022467 -0.250642 -0.049898 0.125792 0.711596 0.691236
0.420345 0.206695 0.758057 -0.481920 -0.751619 -0.450357
-0.109244 -0.170527 0.607581 -0.478358 0.515012 0.711292
0.022898 -0.118155 0.855323 0.050995 0.177114 -0.982868
0.360298 0.044029 -0.823441 -0.735447 -0.076362 0.673266
0.101620 -0.175363 -0.190981 0.612578 0.341381 0.712887
0.115792 -0.006588 0.357620 0.728307 -0.010158 -0.685176
0.590415 0.032573 -0.418276 -0.918384 -0.255795 -0.301894
-0.193255 0.227983 0.042427 0.167155 -0.852770 0.494816
0.406507 -0.065233 0.858200 -0.360808 0.221902 -0.905857
0.085753 0.137462 -0.207272 0.672277 -0.160118 0.722776
0.374202 -0.062360 0.231500 -0.810128 0.154723 0.565467
-0.339855 -0.205623 -0.738591 0.143375 0.987990 -0.057615
0.193190 -0.188435 -0.240765 0.277154 0.824563 0.493236
-0.304491 -0.148401 -0.830907 0.077905 0.452816 0.888194
0.115134 -0.179977 -0.200385 0.612578 0.341381 0.712887
0.537215 -0.124067 -0.592269 -0.837299 0.205494 0.506658
0.371325 -0.136964 -0.088607 -0.718676 0.437497 -0.540463
0.028965 -0.159748 -0.142018 0.310058 0.368381 0.876447
-0.022531 -0.206170 0.793624 0.086251 0.960020 -0.266311
0.002600 -0.187787 -0.120906 0.310058 0.368381 0.876447
0.266204 -0.195756 0.153243 -0.836943 0.441646 0.323226
-0.028579 -0.218403 0.728674 0.065242 0.970751 0.231055
-0.054741 0.004318 -0.871958 0.070117 0.069779 0.995095
0.416057 -0.200733 -0.209382 -0.440028 0.849270 -0.291747
-0.071300 -0.252532 0.006452 0.133497 0.969100 0.207420
0.511346 0.090757 0.717880 -0.970645 -0.227207 0.078896
0.435225 0.003200 -0.120595 -0.796529 0.026036 -0.604040
-0.109648 -0.103387 -0.116476 0.409505 0.140250 0.901463
-0.524897 0.106020 -0.539787 -0.535970 -0.400440 -0.743225
-0.146285 -0.195645 0.144503 0.238072 0.383166 -0.892472
0.290254 0.190273 0.641856 0.285935 -0.617020 0.733163
0.445323 -0.204606 0.515299 -0.744108 0.668056 0.002163
0.440643 0.226509 -0.536706 -0.594203 -0.797945 0.101027
0.257375 -0.034512 0.507731 0.974866 0.054610 -0.215995
0.114841 0.079951 -0.873283 0.044306 -0.208187 0.977085
-0.073460 0.233599 -0.019518 0.368790 -0.852784 0.369802
0.451435 -0.093775 -0.160172 -0.718676 0.437497 -0.540463
0.306961 -0.180845 0.614899 0.690150 0.455190 0.562578
0.477138 -0.006988 0.805619 -0.845701 0.036811 -0.532386
0.083733 0.163836 0.654190 -0.052176 -0.352051 0.934525
-0.167869 0.220372 -0.811116 0.071076 -0.325444 0.942886
0.431507 -0.219905 0.487693 -0.744108 0.668056 0.002163
0.444232 -0.206003 0.571473 -0.744108 0.668056 0.002163
0.106046 0.031247 -0.625322 -0.003426 -0.041163 -0.999147
-0.102378 0.042701 -0.869288 0.045345 -0.051004 0.997669
0.340073 0.209023 0.465874 0.398494 -0.836211 -0.376769
-0.315489 0.179948 -0.678010 0.019019 -0.854331 -0.519381
-0.209770 0.115327 -0.649775 0.041902 -0.266296 -0.962980
0.257782 -0.073664 -0.587194 0.479015 -0.052054 -0.876262
-0.638218 0.071435 -0.492957 0.091648 -0.259856 -0.961289
-0.049995 -0.211621 0.706229 0.065242 0.970751 0.231055
0.368698 0.213752 0.801546 -0.481920 -0.751619 -0.450357
-0.003270 -0.031731 -0.175588 0.457952 -0.066529 0.886484
0.208843 -0.246676 -0.119027 0.010363 0.998612 0.051641
-0.684120 -0.116823 -0.605814 0.746962 0.144819 0.648903
-0.118513 -0.146642 0.172950 0.238072 0.383166 -0.892472
0.363881 -0.032971 -0.030264 -0.759796 0.184139 -0.623540
-0.471717 0.151283 -0.758653 0.283678 -0.584408 0.760259
-0.365882 0.178998 -0.664917 -0.210176 -0.448648 -0.868643
-0.252557 -0.099932 0.498159 0.006936 0.618591 0.785682
0.337997 -0.005875 0.007226 -0.796529 0.026036 -0.604040
-0.117196 0.174604 0.614457 -0.213738 -0.859249 0.464765
-0.069371 0.201206 -0.081628 0.307629 -0.766914 0.563212
0.337531 0.229283 0.745481 -0.057627 -0.969983 -0.236247
-0.133387 0.048481 -0.627966 0.041902 -0.266296 -0.962980
0.255960 -0.184508 0.004662 -0.805820 0.523248 -0.277247
0.126971 -0.156909 -0.851252 0.048654 0.446725 0.893348
-0.307563 -0.039668 -0.050092 0.625865 0.016668 0.779754
0.072521 -0.116529 0.275742 0.602392 0.364818 -0.709952
0.436693 0.208782 0.729742 -0.597618 -0.709177 -0.374059
-0.093237 0.075845 0.205987 0.246856 -0.312130 -0.917408
0.049957 0.223021 0.775589 0.018739 -0.983025 -0.182513
0.367137 0.232058 0.716798 -0.078611 -0.994002 0.076032
0.531152 -0.054184 -0.630633 -0.837299 0.205494 0.506658
-0.143567 -0.157177 0.161405 0.273766 0.367743 -0.888717
0.156522 0.099624 -0.281479 0.672277 -0.160118 0.722776
-0.180064 -0.014256 0.802459 0.513034 -0.013068 -0.858269
0.484746 0.170051 0.649198 -0.877761 -0.465527 0.113224
0.416765 -0.226788 0.466631 -0.675438 0.688227 0.264815
0.288001 -0.132374 0.108989 -0.802398 0.584319 0.121363
-0.145172 -0.132828 -0.652203 -0.029856 0.181465 -0.982944
0.452536 -0.001235 -0.143613 -0.796529 0.026036 -0.604040
-0.476705 0.004843 -0.803494 0.282911 -0.076017 0.956129
-0.277970 0.111851 0.497097 0.466244 -0.544222 0.697452
0.081018 -0.005541 0.320642 0.728307 -0.010158 -0.685176
0.332203 0.040203 0.166571 -0.821466 -0.161983 0.546768
-0.415087 -0.193531 -0.718446 0.143375 0.987990 -0.057615
0.289418 -0.164457 -0.626743 0.320768 0.522026 -0.790314
-0.093136 0.204025 -0.709472 0.019019 -0.854331 -0.519381
-0.285550 0.095227 -0.844354 0.072442 -0.346488 0.935253
0.253449 0.180913 0.140902 -0.630349 -0.582812 0.512825
0.449272 -0.172489 0.772842 -0.694912 0.647121 -0.313579
-0.502810 -0.016217 -0.797444 0.282911 -0.076017 0.956129
-0.335774 -0.003950 -0.844647 0.109749 0.122781 0.986347
0.176637 0.136865 -0.863959 0.044306 -0.208187 0.977085
-0.033608 0.008404 -0.623902 -0.003426 -0.041163 -0.999147
0.197703 0.077394 0.868753 0.071780 -0.140152 -0.987525
-0.204110 -0.021080 -0.859653 0.070117 0.069779 0.995095
0.462917 -0.220670 -0.466609 -0.462543 0.886293 -0.023215
-0.340054 0.023855 -0.012558 0.734181 -0.052299 0.676936
-0.308358 -0.208889 -0.716212 0.143375 0.987990 -0.057615
-0.213988 0.211417 0.082532 0.406448 -0.743431 -0.531141
0.523078 0.016915 0.421106 -0.838034 -0.333394 0.431911
-0.577300 0.023949 -0.770360 0.327467 -0.140081 0.934421
-0.137227 0.241587 0.080773 0.275894 -0.869059 -0.410632
-0.106224 -0.201154 -0.802726 -0.015185 0.857976 0.513465
0.198933 0.250370 -0.061119 -0.354979 -0.920437 -0.163663
0.119071 0.007255 0.870969 0.027825 -0.025505 -0.999287
0.259176 0.105823 -0.385792 0.839543 -0.325271 0.435162
0.437864 -0.129302 -0.718345 -0.725507 0.250098 0.641164
0.215246 0.080722 0.869556 0.071780 -0.140152 -0.987525
-0.258397 0.040109 -0.080202 0.321868 -0.031624 0.946256
0.314298 -0.196849 -0.376716 0.582616 0.774959 0.244943
0.151174 0.257465 -0.040348 -0.119669 -0.959397 0.255414
-0.664550 0.183347 -0.560050 0.738317 -0.639122 -0.215430
-0.580551 -0.119808 -0.729768 0.746956 0.293571 0.596551
0.227249 0.215587 -0.803946 -0.040053 -0.794817 0.605526
0.033164 0.226985 -0.791435 -0.039902 -0.994958 0.092016
-0.257322 -0.062590 0.743416 0.657065 0.442239 -0.610484
0.065361 -0.122285 -0.861109 0.039743 0.279932 0.959197
-0.185802 0.235453 0.052782 0.167155 -0.852770 0.494816
-0.348131 0.186840 -0.689685 -0.215842 -0.910933 -0.351587
0.326177 -0.227579 0.382501 -0.090144 0.989342 0.114356
-0.186707 0.207857 0.108391 0.406448 -0.743431 -0.531141
0.342617 0.218020 -0.708560 0.021843 -0.999732 0.007624
0.291370 0.232112 0.709566 0.363314 -0.859977 0.358388
-0.289262 -0.110793 -0.041776 0.567410 0.420922 0.707722
0.279512 -0.130285 -0.385471 0.757140 0.302670 0.578904
0.161788 0.223655 0.261271 0.393023 -0.772263 -0.499143
0.150405 -0.195029 -0.205702 0.277154 0.824563 0.493236
0.343257 -0.001546 0.000476 -0.796529 0.026036 -0.604040
-0.078609 -0.205751 0.665518 -0.131137 0.981559 0.139088
-0.240254 -0.047689 -0.089308 0.321868 -0.031624 0.946256
-0.425698 -0.154145 -0.777912 0.276421 0.470692 0.837878
-0.522264 0.148427 -0.564657 -0.522268 -0.422546 -0.740737
-0.622009 0.138689 -0.510685 -0.038341 -0.445886 -0.894268
0.077004 -0.172578 0.827725 0.020969 0.636801 -0.770743
-0.129328 0.190368 -0.824377 0.071076 -0.325444 0.942886
0.505340 0.087775 0.635400 -0.970645 -0.227207 0.078896
0.298444 0.206674 0.652464 0.285935 -0.617020 0.733163
0.056807 0.190330 -0.681453 0.019019 -0.854331 -0.519381
-0.096669 -0.139253 0.181949 0.238072 0.383166 -0.892472
-0.130345 0.013405 -0.623776 -0.003426 -0.041163 -0.999147
-0.176842 0.206474 -0.716564 0.019019 -0.854331 -0.519381
0.242164 -0.006733 -0.599743 0.444168 -0.069165 -0.893270
0.284776 -0.178468 -0.364649 0.582616 0.774959 0.244943
0.001858 0.002622 -0.623785 -0.003426 -0.041163 -0.999147
0.178850 -0.145564 0.364153 0.662939 0.441332 -0.604763
0.446877 -0.066745 -0.141370 -0.759796 0.184139 -0.623540
0.432843 0.211369 -0.626761 -0.572102 -0.669411 0.473908
-0.073793 0.062145 0.579029 -0.392186 -0.471025 0.790143
-0.601571 0.006689 -0.752909 0.775985 -0.120052 0.619222
0.183993 0.151260 0.656732 -0.132821 -0.242404 0.961040
0.489147 0.143437 0.738420 -0.855686 -0.309160 -0.414995
0.379702 -0.208367 0.356744 -0.638440 0.639159 0.428801
-0.114257 -0.166631 -0.833252 0.048654 0.446725 0.893348
0.170895 -0.248468 -0.086357 0.009751 0.997538 0.069451
-0.692618 -0.102565 -0.522261 0.836685 0.290971 -0.463999
0.411174 -0.000664 -0.772936 -0.735447 -0.076362 0.673266
-0.255228 -0.070954 0.155643 0.633878 0.064507 -0.770738
-0.466811 -0.180621 -0.748093 0.319120 0.683463 0.656538
-0.112435 0.197685 0.673119 -0.295173 -0.954646 0.039024
-0.111167 0.221687 0.125797 0.151276 -0.838641 -0.523256
0.489267 -0.198064 -0.563123 -0.564966 0.776216 0.279826
0.039262 -0.150619 0.844135 -0.022538 0.508590 -0.860714
0.160201 -0.147719 0.658080 -0.221917 0.268046 0.937499
0.498037 0.101310 0.584532 -0.970645 -0.227207 0.078896
-0.084588 0.132412 -0.847754 0.071076 -0.325444 0.942886
0.356454 -0.233275 -0.214214 -0.440028 0.849270 -0.291747
0.374683 0.226024 0.466228 0.588780 -0.804277 0.080474
0.067358 -0.161485 0.248260 0.602392 0.364818 -0.709952
-0.227932 -0.164110 -0.828322 0.048654 0.446725 0.893348
0.426384 -0.226300 0.700462 -0.744108 0.668056 0.002163
-0.653511 -0.044286 -0.475592 -0.137711 -0.124178 -0.982657
0.091831 0.142815 0.646723 -0.052176 -0.352051 0.934525
-0.467345 0.127518 -0.592873 -0.535970 -0.400440 -0.743225
-0.331250 -0.168885 -0.818117 0.077905 0.452816 0.888194
-0.195918 -0.201551 0.650126 0.260477 0.900277 -0.348788
-0.039183 -0.137178 -0.852069 0.048654 0.446725 0.893348
-0.031940 0.042919 -0.625329 -0.003426 -0.041163 -0.999147
0.561664 -0.078922 -0.568979 -0.851097 0.204243 0.483652
0.100499 -0.159558 0.277370 0.602392 0.364818 -0.709952
0.295961 -0.229542 0.747621 0.131412 0.946250 -0.295537
-0.219179 -0.022206 0.778542 0.537275 -0.008879 -0.843360
0.270355 -0.139597 -0.618059 0.320768 0.522026 -0.790314
-0.316163 0.089908 0.518998 0.992006 -0.110800 0.060392
0.208307 -0.248011 -0.081031 -0.409482 0.891862 -0.192110
0.502403 0.129674 0.719936 -0.970645 -0.227207 0.078896
0.229527 0.207600 0.074689 -0.758597 -0.651526 -0.006661
-0.039544 0.103431 0.620641 -0.392186 -0.471025 0.790143
0.281127 -0.110316 0.534197 0.893820 0.416617 -0.165880
0.101990 0.186857 0.263217 0.574191 -0.376183 -0.727180
0.151709 -0.246630 -0.110070 0.009751 0.997538 0.069451
