ply
format ascii 1.0
element vertex 801
property float x
property float y
property float z
element face 1571
property list uchar int vertex_indices
end_header
-0.777923 -0.150000 0.300000
-0.783488 -0.150000 0.375000
-0.786636 -0.150000 0.450000
-0.751105 -0.150000 0.525000
-0.807798 -0.075000 0.300000
-0.806131 -0.075000 0.375000
-0.806634 -0.075000 0.450000
-0.775644 -0.075000 0.525000
-0.801622 0.000000 0.300000
-0.807131 0.000000 0.375000
-0.805174 0.000000 0.450000
-0.780962 0.000000 0.525000
-0.778832 0.075000 0.300000
-0.795136 0.075000 0.375000
-0.785147 0.075000 0.450000
-0.768667 0.075000 0.525000
-0.750615 0.150000 0.375000
-0.756404 0.150000 0.450000
-0.750000 -0.196166 0.300000
-0.700154 -0.225000 0.300000
-0.750000 -0.216044 0.375000
-0.740739 -0.225000 0.375000
-0.750000 -0.223393 0.450000
-0.748821 -0.225000 0.450000
-0.750000 -0.152079 0.525000
-0.702498 -0.225000 0.525000
-0.750000 -0.150000 0.267461
-0.750000 -0.150000 0.526662
-0.700299 -0.150000 0.600000
-0.750000 -0.075000 0.233516
-0.750000 -0.075000 0.562603
-0.725839 -0.075000 0.600000
-0.750000 0.000000 0.243195
-0.750000 0.000000 0.566698
-0.722541 0.000000 0.600000
-0.750000 0.075000 0.270993
-0.750000 0.115494 0.300000
-0.750000 0.075000 0.547426
-0.750000 0.108099 0.525000
-0.688419 0.075000 0.600000
-0.750000 0.150000 0.373045
-0.750000 0.150620 0.375000
-0.750000 0.150000 0.467598
-0.750000 0.157646 0.450000
-0.714929 0.150000 0.525000
-0.675000 -0.232945 0.300000
-0.675000 -0.260269 0.375000
-0.675000 -0.277867 0.450000
-0.675000 -0.247489 0.525000
-0.675000 -0.225000 0.291823
-0.646380 -0.225000 0.300000
-0.675000 -0.225000 0.558782
-0.675000 -0.185668 0.600000
-0.675000 -0.150000 0.253308
-0.675000 -0.150000 0.622498
-0.675000 -0.075000 0.241891
-0.675000 -0.075000 0.642937
-0.675000 0.000000 0.241095
-0.675000 0.000000 0.638254
-0.675000 0.075000 0.257287
-0.675000 0.139227 0.300000
-0.675000 0.075000 0.610039
-0.675000 0.091022 0.600000
-0.675000 0.150000 0.312108
-0.675000 0.186966 0.375000
-0.675000 0.204902 0.450000
-0.675000 0.150000 0.557542
-0.675000 0.176844 0.525000
-0.600000 -0.253948 0.375000
-0.600000 -0.280635 0.450000
-0.600000 -0.278106 0.525000
-0.600000 -0.225000 0.323623
-0.600000 -0.191416 0.300000
-0.554227 -0.225000 0.375000
-0.600000 -0.225000 0.581739
-0.600000 -0.202571 0.600000
-0.600000 -0.150000 0.279091
-0.576692 -0.150000 0.300000
-0.600000 -0.150000 0.631689
-0.600000 -0.075000 0.259104
-0.552212 -0.075000 0.300000
-0.600000 -0.075000 0.646628
-0.600000 0.000000 0.267243
-0.556478 0.000000 0.300000
-0.600000 0.000000 0.645488
-0.600000 0.075000 0.294191
-0.600000 0.083142 0.300000
-0.592777 0.075000 0.300000
-0.600000 0.075000 0.620317
-0.600000 0.119936 0.600000
-0.600000 0.150000 0.356490
-0.600000 0.164510 0.375000
-0.577451 0.150000 0.375000
-0.600000 0.205706 0.450000
-0.600000 0.150000 0.583786
-0.600000 0.199526 0.525000
-0.525000 -0.265518 0.450000
-0.525000 -0.283073 0.525000
-0.525000 -0.225000 0.399229
-0.525000 -0.192423 0.375000
-0.525000 -0.225000 0.585159
-0.525000 -0.204838 0.600000
-0.525000 -0.150000 0.345147
-0.478422 -0.150000 0.375000
-0.525000 -0.150000 0.631858
-0.525000 -0.075000 0.323208
-0.525000 -0.075000 0.649591
-0.525000 0.000000 0.324593
-0.454105 0.000000 0.375000
-0.525000 0.000000 0.645922
-0.525000 0.075000 0.349176
-0.525000 0.108038 0.375000
-0.490128 0.075000 0.375000
-0.525000 0.075000 0.618702
-0.525000 0.118833 0.600000
-0.525000 0.150000 0.411189
-0.525000 0.186268 0.450000
-0.525000 0.150000 0.584515
-0.525000 0.202598 0.525000
-0.450000 -0.242505 0.450000
-0.450000 -0.281661 0.525000
-0.450000 -0.225000 0.434184
-0.450000 -0.225000 0.585718
-0.450000 -0.204893 0.600000
-0.450000 -0.150000 0.390797
-0.450000 -0.079723 0.375000
-0.450000 -0.150000 0.631569
-0.450000 -0.075000 0.373967
-0.450000 -0.054066 0.375000
-0.446628 -0.075000 0.375000
-0.450000 -0.075000 0.650107
-0.450000 0.000000 0.377434
-0.450000 0.000000 0.646104
-0.450000 0.075000 0.402583
-0.450000 0.075000 0.619174
-0.450000 0.121534 0.600000
-0.450000 0.150000 0.437965
-0.450000 0.163298 0.450000
-0.450000 0.150000 0.585986
-0.450000 0.201814 0.525000
-0.375000 -0.234563 0.450000
-0.375000 -0.281120 0.525000
-0.375000 -0.225000 0.442155
-0.375000 -0.225000 0.585692
-0.375000 -0.205632 0.600000
-0.375000 -0.150000 0.409434
-0.375000 -0.150000 0.632996
-0.375000 -0.075000 0.393949
-0.375000 -0.075000 0.650843
-0.375000 0.000000 0.395081
-0.375000 0.000000 0.646102
-0.375000 0.075000 0.413139
-0.375000 0.075000 0.620783
-0.375000 0.125358 0.600000
-0.375000 0.150000 0.444448
-0.375000 0.156189 0.450000
-0.375000 0.150000 0.587217
-0.375000 0.203293 0.525000
-0.300000 -0.235144 0.450000
-0.300000 -0.282169 0.525000
-0.300000 -0.225000 0.441631
-0.300000 -0.225000 0.587653
-0.300000 -0.208223 0.600000
-0.300000 -0.150000 0.410661
-0.300000 -0.150000 0.634083
-0.300000 -0.075000 0.399862
-0.300000 -0.075000 0.654692
-0.300000 0.000000 0.398588
-0.300000 0.000000 0.648460
-0.300000 0.075000 0.413726
-0.300000 0.075000 0.623286
-0.300000 0.131173 0.600000
-0.300000 0.150000 0.444057
-0.300000 0.156799 0.450000
-0.300000 0.150000 0.590059
-0.300000 0.204192 0.525000
-0.225000 -0.241135 0.450000
-0.225000 -0.282269 0.525000
-0.225000 -0.225000 0.434769
-0.225000 -0.225000 0.589459
-0.225000 -0.210507 0.600000
-0.225000 -0.150000 0.396765
-0.187264 -0.150000 0.375000
-0.225000 -0.150000 0.633322
-0.225000 -0.075000 0.384131
-0.210898 -0.075000 0.375000
-0.225000 -0.075000 0.653106
-0.225000 0.000000 0.381773
-0.214087 0.000000 0.375000
-0.225000 0.000000 0.648826
-0.225000 0.075000 0.399172
-0.178314 0.075000 0.375000
-0.225000 0.075000 0.624201
-0.225000 0.128619 0.600000
-0.225000 0.150000 0.444836
-0.225000 0.155350 0.450000
-0.225000 0.150000 0.587808
-0.225000 0.205699 0.525000
-0.150000 -0.265772 0.450000
-0.150000 -0.283764 0.525000
-0.150000 -0.225000 0.401542
-0.150000 -0.186396 0.375000
-0.100667 -0.225000 0.375000
-0.150000 -0.225000 0.590407
-0.150000 -0.211201 0.600000
-0.113500 -0.150000 -0.975000
-0.113930 -0.150000 -0.900000
-0.103244 -0.150000 -0.825000
-0.085560 -0.150000 -0.750000
-0.150000 -0.150000 0.353170
-0.150000 -0.150000 0.631648
-0.101878 -0.075000 -1.050000
-0.131840 -0.075000 -0.975000
-0.131447 -0.075000 -0.900000
-0.123509 -0.075000 -0.825000
-0.106294 -0.075000 -0.750000
-0.150000 -0.075000 0.331894
-0.106564 -0.075000 0.300000
-0.150000 -0.075000 0.651103
-0.103162 0.000000 -1.050000
-0.129244 0.000000 -0.975000
-0.124393 0.000000 -0.900000
-0.118015 0.000000 -0.825000
-0.104273 0.000000 -0.750000
-0.077109 0.000000 -0.675000
-0.150000 0.000000 0.331151
-0.105289 0.000000 0.300000
-0.150000 0.000000 0.648472
-0.098547 0.075000 -0.975000
-0.102351 0.075000 -0.900000
-0.101421 0.075000 -0.825000
-0.090481 0.075000 -0.750000
-0.150000 0.075000 0.359176
-0.150000 0.098584 0.375000
-0.150000 0.075000 0.624769
-0.150000 0.130682 0.600000
-0.150000 0.150000 0.411514
-0.082278 0.150000 0.375000
-0.150000 0.185687 0.450000
-0.150000 0.150000 0.589316
-0.150000 0.211672 0.525000
-0.075000 -0.236492 0.375000
-0.075000 -0.279470 0.450000
-0.075000 -0.279272 0.525000
-0.075000 -0.209496 -0.975000
-0.058513 -0.225000 -0.975000
-0.075000 -0.220219 -0.900000
-0.071535 -0.225000 -0.900000
-0.075000 -0.200986 -0.825000
-0.058236 -0.225000 -0.825000
-0.075000 -0.170430 -0.750000
-0.036228 -0.225000 -0.750000
-0.005707 -0.225000 -0.675000
-0.075000 -0.225000 0.361996
-0.006681 -0.225000 0.300000
-0.075000 -0.225000 0.587512
-0.075000 -0.203563 0.600000
-0.075000 -0.150000 -1.036835
-0.075000 -0.128662 -1.050000
-0.019407 -0.150000 -1.050000
-0.075000 -0.150000 -0.723750
-0.056929 -0.150000 -0.675000
-0.027564 -0.150000 -0.600000
-0.006591 -0.150000 0.150000
-0.028734 -0.150000 0.225000
-0.075000 -0.150000 0.310374
-0.075000 -0.127884 0.300000
-0.063894 -0.150000 0.300000
-0.075000 -0.150000 0.622461
-0.075000 -0.075000 -1.066847
-0.075000 -0.075000 -0.676885
-0.075000 -0.054159 -0.675000
-0.074185 -0.075000 -0.675000
-0.047894 -0.075000 -0.600000
-0.016080 -0.075000 -0.525000
-0.010451 -0.075000 0.075000
-0.027471 -0.075000 0.150000
-0.075000 -0.075000 0.265265
-0.052395 -0.075000 0.225000
-0.075000 -0.075000 0.641858
-0.075000 0.000000 -1.065590
-0.075000 0.054934 -1.050000
-0.075000 0.000000 -0.670804
-0.075000 0.008346 -0.675000
-0.037762 0.000000 -0.600000
-0.006758 0.000000 -0.525000
-0.001411 0.000000 0.075000
-0.024096 0.000000 0.150000
-0.075000 0.000000 0.268952
-0.048407 0.000000 0.225000
-0.075000 0.044582 0.300000
-0.075000 0.000000 0.644000
-0.075000 0.075000 -1.033728
-0.015766 0.075000 -1.050000
-0.075000 0.122468 -0.975000
-0.075000 0.130114 -0.900000
-0.075000 0.133163 -0.825000
-0.075000 0.075000 -0.714536
-0.075000 0.110050 -0.750000
-0.052666 0.075000 -0.675000
-0.001966 0.075000 -0.600000
-0.005923 0.075000 0.150000
-0.027626 0.075000 0.225000
-0.075000 0.075000 0.316493
-0.059302 0.075000 0.300000
-0.075000 0.075000 0.621753
-0.075000 0.127268 0.600000
-0.053118 0.150000 -0.975000
-0.063374 0.150000 -0.900000
-0.063724 0.150000 -0.825000
-0.048656 0.150000 -0.750000
-0.008789 0.150000 -0.675000
-0.075000 0.150000 0.370915
-0.000533 0.150000 0.300000
-0.075000 0.153735 0.375000
-0.075000 0.209982 0.450000
-0.075000 0.150000 0.587549
-0.075000 0.209672 0.525000
0.000000 -0.259878 -0.975000
0.000000 -0.282052 -0.900000
0.000000 -0.272947 -0.825000
0.000000 -0.252254 -0.750000
0.000000 -0.228836 -0.675000
0.000000 -0.231011 0.300000
0.000000 -0.263756 0.375000
0.000000 -0.287010 0.450000
0.000000 -0.256769 0.525000
0.000000 -0.225000 -1.009679
0.000000 -0.154849 -1.050000
0.000000 -0.225000 -0.664124
0.000000 -0.192534 -0.600000
0.034305 -0.225000 -0.600000
0.066650 -0.225000 0.075000
0.000000 -0.161369 0.150000
0.044781 -0.225000 0.150000
0.000000 -0.225000 0.283889
0.000000 -0.193915 0.225000
0.022820 -0.225000 0.225000
0.000000 -0.225000 0.562868
0.051850 -0.225000 0.525000
0.000000 -0.151523 0.600000
0.000000 -0.150000 -1.052348
0.014893 -0.150000 -1.050000
0.000000 -0.150000 -0.541912
0.000000 -0.125697 -0.525000
0.009271 -0.150000 -0.525000
0.036403 -0.150000 -0.450000
0.045427 -0.150000 -0.375000
0.049168 -0.150000 -0.300000
0.049784 -0.150000 -0.225000
0.046344 -0.150000 -0.150000
0.042984 -0.150000 -0.075000
0.034281 -0.150000 0.000000
0.000000 -0.150000 0.126269
0.000000 -0.108578 0.075000
0.015086 -0.150000 0.075000
0.000000 -0.150000 0.600596
0.000897 -0.150000 0.600000
0.000000 -0.075000 -1.067627
0.000000 -0.075000 -0.493510
0.021751 -0.075000 -0.450000
0.034799 -0.075000 -0.375000
0.034604 -0.075000 -0.300000
0.032327 -0.075000 -0.225000
0.025826 -0.075000 -0.150000
0.019404 -0.075000 -0.075000
0.000000 -0.075000 0.034820
0.009652 -0.075000 0.000000
0.000000 -0.075000 0.625093
0.040106 -0.075000 0.600000
0.000000 0.000000 -1.067615
0.000000 0.000000 -0.510617
0.000000 0.016220 -0.525000
0.027903 0.000000 -0.450000
0.036992 0.000000 -0.375000
0.037668 0.000000 -0.300000
0.035213 0.000000 -0.225000
0.029602 0.000000 -0.150000
0.024310 0.000000 -0.075000
0.000000 0.000000 0.068851
0.016017 0.000000 0.000000
0.000000 0.004187 0.075000
0.000000 0.000000 0.626732
0.037621 0.000000 0.600000
0.000000 0.075000 -1.051625
0.000000 0.078495 -1.050000
0.009156 0.075000 -1.050000
0.000000 0.075000 -0.595081
0.000000 0.078785 -0.600000
0.028234 0.075000 -0.525000
0.051635 0.075000 -0.450000
0.057950 0.075000 -0.375000
0.059004 0.075000 -0.300000
0.057366 0.075000 -0.225000
0.052401 0.075000 -0.150000
0.048102 0.075000 -0.075000
0.040858 0.075000 0.000000
0.000000 0.075000 0.134957
0.024447 0.075000 0.075000
0.000000 0.084947 0.150000
0.000000 0.114782 0.225000
0.000000 0.075000 0.607691
0.000000 0.090753 0.600000
0.011461 0.075000 0.600000
0.000000 0.150000 -1.011203
0.000000 0.185774 -0.975000
0.000000 0.209797 -0.900000
0.000000 0.203256 -0.825000
0.000000 0.185205 -0.750000
0.000000 0.150000 -0.661871
0.000000 0.157317 -0.675000
0.044644 0.150000 -0.600000
0.070119 0.150000 0.075000
0.048211 0.150000 0.150000
0.000000 0.150000 0.298763
0.027540 0.150000 0.225000
0.000000 0.150450 0.300000
0.000000 0.181216 0.375000
0.000000 0.208263 0.450000
0.000000 0.150000 0.559421
0.000000 0.177971 0.525000
0.048269 0.150000 0.525000
0.075000 -0.242458 -0.975000
0.075000 -0.280323 -0.900000
0.075000 -0.297861 -0.825000
0.075000 -0.290914 -0.750000
0.147563 -0.300000 -0.750000
0.075000 -0.280228 -0.675000
0.075000 -0.254300 -0.600000
0.075000 -0.232944 0.075000
0.075000 -0.254318 0.150000
0.075000 -0.271420 0.225000
0.075000 -0.281247 0.300000
0.075000 -0.285146 0.375000
0.075000 -0.260520 0.450000
0.075000 -0.225000 -0.996365
0.096469 -0.225000 -0.975000
0.075000 -0.225000 -0.531671
0.075000 -0.221920 -0.525000
0.078158 -0.225000 -0.525000
0.075000 -0.210698 -0.450000
0.086606 -0.225000 -0.450000
0.075000 -0.201877 -0.375000
0.093228 -0.225000 -0.375000
0.075000 -0.195635 -0.300000
0.098796 -0.225000 -0.300000
0.075000 -0.193619 -0.225000
0.101073 -0.225000 -0.225000
0.075000 -0.198019 -0.150000
0.100050 -0.225000 -0.150000
0.075000 -0.202891 -0.075000
0.096063 -0.225000 -0.075000
0.075000 -0.225000 0.043704
0.075000 -0.211325 0.000000
0.088905 -0.225000 0.000000
0.075000 -0.225000 0.502982
0.118398 -0.225000 0.450000
0.075000 -0.193940 0.525000
0.075000 -0.150000 -1.038350
0.075000 -0.113887 -1.050000
0.149000 -0.150000 -0.975000
0.075000 -0.150000 0.545500
0.103977 -0.150000 0.525000
0.075000 -0.075000 -1.060692
0.090219 -0.075000 -1.050000
0.075000 -0.075000 0.571394
0.130744 -0.075000 0.525000
0.075000 0.000000 -1.059182
0.075000 0.032843 -1.050000
0.088039 0.000000 -1.050000
0.075000 0.000000 0.567565
0.126282 0.000000 0.525000
0.075000 0.075000 -1.033798
0.139366 0.075000 -0.975000
0.075000 0.135166 -0.525000
0.075000 0.109577 -0.450000
0.075000 0.102187 -0.375000
0.075000 0.101664 -0.300000
0.075000 0.105921 -0.225000
0.075000 0.115109 -0.150000
0.075000 0.120288 -0.075000
0.075000 0.127280 0.000000
0.075000 0.075000 0.545935
0.075000 0.116140 0.525000
0.100899 0.075000 0.525000
0.075000 0.150000 -0.983529
0.075000 0.158508 -0.975000
0.085009 0.150000 -0.975000
0.075000 0.205188 -0.900000
0.075000 0.222597 -0.825000
0.075000 0.217366 -0.750000
0.075000 0.202387 -0.675000
0.075000 0.150000 -0.548444
0.075000 0.174254 -0.600000
0.089313 0.150000 -0.525000
0.104796 0.150000 -0.450000
0.110350 0.150000 -0.375000
0.111308 0.150000 -0.300000
0.106486 0.150000 -0.225000
0.100998 0.150000 -0.150000
0.099206 0.150000 -0.075000
0.075000 0.150000 0.059437
0.095151 0.150000 0.000000
0.075000 0.154862 0.075000
0.075000 0.177390 0.150000
0.075000 0.192942 0.225000
0.075000 0.197842 0.300000
0.075000 0.200855 0.375000
0.075000 0.150000 0.498415
0.075000 0.178416 0.450000
0.117413 0.150000 0.450000
0.150000 -0.233661 -0.900000
0.150000 -0.300000 -0.750809
0.150000 -0.269728 -0.825000
0.150000 -0.300000 -0.679839
0.150577 -0.300000 -0.750000
0.150000 -0.299981 -0.675000
0.150000 -0.291957 -0.600000
0.150000 -0.283994 -0.525000
0.215210 -0.300000 -0.525000
0.150000 -0.280041 -0.450000
0.150000 -0.278981 -0.375000
0.150000 -0.275501 -0.300000
0.150000 -0.268040 -0.225000
0.150000 -0.265715 -0.150000
0.150000 -0.268509 -0.075000
0.150000 -0.275073 0.000000
0.150000 -0.288448 0.075000
0.150000 -0.290567 0.150000
0.150000 -0.288402 0.225000
0.150000 -0.278473 0.300000
0.150000 -0.250588 0.375000
0.150000 -0.225000 -0.911625
0.158355 -0.225000 -0.900000
0.198403 -0.225000 -0.825000
0.150000 -0.225000 0.409111
0.176554 -0.225000 0.375000
0.150000 -0.188691 0.450000
0.150000 -0.150000 -0.973828
0.150000 -0.147556 -0.975000
0.206952 -0.150000 -0.900000
0.150000 -0.150000 0.484040
0.179137 -0.150000 0.450000
0.150000 -0.075000 -1.000524
0.176924 -0.075000 -0.975000
0.150000 -0.075000 0.507507
0.202514 -0.075000 0.450000
0.150000 0.000000 -0.997698
0.150000 0.054618 -0.975000
0.173703 0.000000 -0.975000
0.150000 0.000000 0.503707
0.202635 0.000000 0.450000
0.150000 0.075000 -0.963815
0.204997 0.075000 -0.900000
0.150000 0.075000 0.481663
0.150000 0.115952 0.450000
0.176807 0.075000 0.450000
0.150000 0.150000 -0.903622
0.150000 0.152850 -0.900000
0.152754 0.150000 -0.900000
0.150000 0.195035 -0.825000
0.199811 0.150000 -0.825000
0.150000 0.220338 -0.750000
0.150000 0.222555 -0.675000
0.150000 0.212445 -0.600000
0.150000 0.199163 -0.525000
0.150000 0.197486 -0.450000
0.150000 0.199008 -0.375000
0.150000 0.197603 -0.300000
0.150000 0.200450 -0.225000
0.150000 0.197910 -0.150000
0.150000 0.194008 -0.075000
0.150000 0.196558 0.000000
0.150000 0.208783 0.075000
0.150000 0.217940 0.150000
0.150000 0.213373 0.225000
0.150000 0.203096 0.300000
0.150000 0.150000 0.413384
0.150000 0.174389 0.375000
0.178642 0.150000 0.375000
0.213789 0.225000 -0.525000
0.225000 -0.248663 -0.750000
0.225000 -0.288523 -0.675000
0.225000 -0.300000 -0.558658
0.225000 -0.297018 -0.600000
0.225000 -0.300000 -0.483456
0.228227 -0.300000 -0.525000
0.225000 -0.298202 -0.450000
0.225000 -0.296067 -0.375000
0.225000 -0.294108 -0.300000
0.225000 -0.292411 -0.225000
0.225000 -0.289789 -0.150000
0.225000 -0.283524 -0.075000
0.225000 -0.283850 0.000000
0.225000 -0.285354 0.075000
0.225000 -0.272999 0.150000
0.225000 -0.248774 0.225000
0.225000 -0.225418 0.300000
0.225000 -0.225000 -0.783291
0.225000 -0.189919 -0.825000
0.247466 -0.225000 -0.750000
0.296859 -0.225000 -0.675000
0.276982 -0.225000 0.150000
0.248321 -0.225000 0.225000
0.225000 -0.225000 0.300708
0.225423 -0.225000 0.300000
0.225000 -0.171305 0.375000
0.225000 -0.150000 -0.872410
0.225000 -0.105440 -0.900000
0.253391 -0.150000 -0.825000
0.296059 -0.150000 -0.750000
0.289489 -0.150000 0.300000
0.225000 -0.150000 0.394854
0.242560 -0.150000 0.375000
0.225000 -0.075000 -0.915348
0.235323 -0.075000 -0.900000
0.278755 -0.075000 -0.825000
0.225000 -0.075000 0.425868
0.266174 -0.075000 0.375000
0.225000 0.000000 -0.907553
0.225000 0.017877 -0.900000
0.230230 0.000000 -0.900000
0.276698 0.000000 -0.825000
0.225000 0.000000 0.423046
0.260404 0.000000 0.375000
0.225000 0.075000 -0.874224
0.225000 0.120636 -0.825000
0.256668 0.075000 -0.825000
0.278447 0.075000 0.300000
0.225000 0.075000 0.383989
0.225000 0.086090 0.375000
0.231691 0.075000 0.375000
0.225000 0.150000 -0.792939
0.225000 0.180820 -0.750000
0.256677 0.150000 -0.750000
0.225000 0.216484 -0.675000
0.225000 0.223837 -0.600000
0.225000 0.223833 -0.450000
0.225000 0.222395 -0.375000
0.225000 0.219705 -0.300000
0.225000 0.216972 -0.225000
0.225000 0.212549 -0.150000
0.225000 0.208832 -0.075000
0.225000 0.203884 0.000000
0.225000 0.204749 0.075000
0.225000 0.198996 0.150000
0.280555 0.150000 0.150000
0.225000 0.179224 0.225000
0.253851 0.150000 0.225000
0.225000 0.150000 0.305686
0.225000 0.153346 0.300000
0.228202 0.150000 0.300000
0.225000 0.225000 -0.582094
0.225000 0.225000 -0.467743
0.231883 0.225000 -0.525000
0.300000 -0.237744 -0.600000
0.300000 -0.240876 -0.525000
0.300000 -0.244557 -0.450000
0.300000 -0.245121 -0.375000
0.300000 -0.241809 -0.300000
0.300000 -0.242394 -0.225000
0.300000 -0.240381 -0.150000
0.300000 -0.239303 -0.075000
0.300000 -0.237321 0.000000
0.300000 -0.239673 0.075000
0.300000 -0.225000 -0.660486
0.300000 -0.220578 -0.675000
0.313523 -0.225000 -0.600000
0.318008 -0.225000 -0.525000
0.321739 -0.225000 -0.450000
0.321569 -0.225000 -0.375000
0.317458 -0.225000 -0.300000
0.317245 -0.225000 -0.225000
0.315039 -0.225000 -0.150000
0.313534 -0.225000 -0.075000
0.310957 -0.225000 0.000000
0.300000 -0.225000 0.105235
0.315054 -0.225000 0.075000
0.300000 -0.197131 0.150000
0.300000 -0.159565 0.225000
0.300000 -0.150000 -0.744361
0.300000 -0.139811 -0.750000
0.343040 -0.150000 -0.675000
0.366767 -0.150000 -0.600000
0.368058 -0.150000 -0.525000
0.373462 -0.150000 -0.450000
0.374350 -0.150000 -0.375000
0.371058 -0.150000 -0.300000
0.373867 -0.150000 0.000000
0.370500 -0.150000 0.075000
0.335614 -0.150000 0.150000
0.300000 -0.150000 0.254793
0.306405 -0.150000 0.225000
0.300000 -0.114657 0.300000
0.300000 -0.075000 -0.787594
0.321523 -0.075000 -0.750000
0.362305 -0.075000 -0.675000
0.365477 -0.075000 0.150000
0.334576 -0.075000 0.225000
0.300000 -0.075000 0.318470
0.310338 -0.075000 0.300000
0.300000 0.000000 -0.785483
0.320331 0.000000 -0.750000
0.360473 0.000000 -0.675000
0.370302 0.000000 0.150000
0.338538 0.000000 0.225000
0.300000 0.000000 0.314187
0.300000 0.023016 0.300000
0.308050 0.000000 0.300000
0.300000 0.075000 -0.753961
0.300000 0.079560 -0.750000
0.302378 0.075000 -0.750000
0.344131 0.075000 -0.675000
0.362168 0.075000 -0.600000
0.364147 0.075000 -0.525000
0.365870 0.075000 -0.450000
0.364908 0.075000 -0.375000
0.365391 0.075000 -0.300000
0.367566 0.075000 -0.225000
0.366939 0.075000 -0.150000
0.368827 0.075000 -0.075000
0.365591 0.075000 0.000000
0.356738 0.075000 0.075000
0.300000 0.123125 0.150000
0.335265 0.075000 0.150000
0.300000 0.075000 0.238150
0.300000 0.081831 0.225000
0.304439 0.075000 0.225000
0.300000 0.150000 -0.690527
0.300000 0.162573 -0.675000
0.309524 0.150000 -0.675000
0.300000 0.180276 -0.600000
0.327909 0.150000 -0.600000
0.300000 0.178853 -0.525000
0.325674 0.150000 -0.525000
0.300000 0.178670 -0.450000
0.325535 0.150000 -0.450000
0.300000 0.173782 -0.375000
0.321124 0.150000 -0.375000
0.300000 0.173235 -0.300000
0.318699 0.150000 -0.300000
0.300000 0.171573 -0.225000
0.317606 0.150000 -0.225000
0.300000 0.170370 -0.150000
0.318001 0.150000 -0.150000
0.300000 0.170251 -0.075000
0.318589 0.150000 -0.075000
0.300000 0.168828 0.000000
0.317629 0.150000 0.000000
0.300000 0.150000 0.095848
0.300000 0.158118 0.075000
0.306848 0.150000 0.075000
0.375000 -0.150404 -0.225000
0.375000 -0.152495 -0.150000
0.375000 -0.151026 -0.075000
0.375000 -0.120272 -0.600000
0.375000 -0.124466 -0.525000
0.375000 -0.142874 -0.450000
0.375000 -0.146822 -0.375000
0.375000 -0.150000 -0.229359
0.375000 -0.134079 -0.300000
0.375239 -0.150000 -0.225000
0.376591 -0.150000 -0.150000
0.375000 -0.150000 -0.043909
0.375691 -0.150000 -0.075000
0.375000 -0.146493 0.000000
0.375000 -0.133125 0.075000
0.375000 -0.075000 -0.637676
0.386546 -0.075000 -0.600000
0.388222 -0.075000 -0.525000
0.388934 -0.075000 -0.450000
0.389689 -0.075000 -0.375000
0.389498 -0.075000 -0.300000
0.393436 -0.075000 -0.225000
0.392185 -0.075000 -0.150000
0.392480 -0.075000 -0.075000
0.393857 -0.075000 0.000000
0.375000 -0.075000 0.118967
0.387427 -0.075000 0.075000
0.375000 0.000000 -0.626872
0.375000 0.027836 -0.600000
0.382496 0.000000 -0.600000
0.375000 0.036148 -0.525000
0.385083 0.000000 -0.525000
0.375000 0.045097 -0.450000
0.388603 0.000000 -0.450000
0.375000 0.045153 -0.375000
0.389576 0.000000 -0.375000
0.375000 0.037825 -0.300000
0.384289 0.000000 -0.300000
0.375000 0.051813 -0.225000
0.389577 0.000000 -0.225000
0.375000 0.047100 -0.150000
0.386932 0.000000 -0.150000
0.375000 0.050579 -0.075000
0.385757 0.000000 -0.075000
0.375000 0.043208 0.000000
0.385673 0.000000 0.000000
0.375000 0.000000 0.126208
0.375000 0.028624 0.075000
0.383903 0.000000 0.075000
3 26 18 0
3 18 20 1
3 0 18 1
3 20 22 2
3 1 20 2
3 22 24 3
3 2 22 3
3 24 27 3
3 29 26 0
3 4 29 0
3 0 1 4
3 1 5 4
3 1 2 5
3 2 6 5
3 2 3 6
3 3 7 6
3 27 30 7
3 3 27 7
3 32 29 4
3 8 32 4
3 4 5 8
3 5 9 8
3 5 6 9
3 6 10 9
3 6 7 10
3 7 11 10
3 30 33 11
3 7 30 11
3 35 32 8
3 12 35 8
3 8 9 12
3 9 13 12
3 9 10 13
3 10 14 13
3 10 11 14
3 11 15 14
3 33 37 15
3 11 33 15
3 35 12 36
3 40 36 12
3 40 12 16
3 16 12 13
3 13 14 16
3 14 17 16
3 38 42 17
3 38 17 15
3 15 17 14
3 15 37 38
3 49 45 19
3 45 46 21
3 19 45 21
3 46 47 23
3 21 46 23
3 47 48 25
3 23 47 25
3 48 51 25
3 19 18 26
3 19 26 49
3 49 26 53
3 21 18 19
3 20 18 21
3 23 20 21
3 22 20 23
3 25 22 23
3 24 22 25
3 24 28 27
3 25 28 24
3 25 52 28
3 25 51 52
3 52 54 28
3 53 26 55
3 55 26 29
3 31 27 28
3 30 27 31
3 54 56 31
3 28 54 31
3 55 29 57
3 57 29 32
3 34 30 31
3 33 30 34
3 56 58 34
3 31 56 34
3 57 32 59
3 59 32 35
3 39 33 34
3 37 33 39
3 58 61 39
3 34 58 39
3 59 35 36
3 60 59 36
3 36 63 60
3 40 63 36
3 38 44 42
3 44 62 66
3 38 62 44
3 38 39 62
3 38 37 39
3 39 61 62
3 63 40 41
3 64 63 41
3 64 41 65
3 41 43 65
3 42 44 67
3 42 67 43
3 43 67 65
3 44 66 67
3 45 49 50
3 50 71 68
3 50 68 45
3 45 68 46
3 68 69 46
3 46 69 47
3 69 70 47
3 47 70 48
3 48 70 74
3 51 48 74
3 72 50 49
3 72 49 76
3 76 49 53
3 50 72 71
3 74 52 51
3 75 52 74
3 52 75 78
3 54 52 78
3 76 53 79
3 79 53 55
3 78 81 54
3 81 56 54
3 79 55 82
3 82 55 57
3 81 84 56
3 84 58 56
3 82 57 85
3 85 57 59
3 84 88 58
3 88 61 58
3 85 59 60
3 86 85 60
3 60 90 86
3 63 90 60
3 66 89 94
3 62 89 66
3 89 62 61
3 88 89 61
3 90 63 64
3 91 90 64
3 91 64 93
3 64 65 93
3 93 65 95
3 65 67 95
3 95 67 66
3 94 95 66
3 68 71 73
3 73 98 96
3 73 96 68
3 68 96 69
3 96 97 69
3 69 97 70
3 70 97 100
3 74 70 100
3 72 76 77
3 77 102 99
3 72 77 99
3 72 99 73
3 72 73 71
3 73 99 98
3 100 75 74
3 101 75 100
3 75 101 104
3 78 75 104
3 80 77 76
3 79 80 76
3 102 80 105
3 77 80 102
3 104 106 78
3 106 81 78
3 83 80 79
3 82 83 79
3 105 83 107
3 80 83 105
3 106 109 81
3 109 84 81
3 87 83 82
3 85 87 82
3 107 87 110
3 83 87 107
3 109 113 84
3 113 88 84
3 86 90 92
3 87 86 92
3 87 92 111
3 87 111 110
3 111 92 115
3 94 114 117
3 89 114 94
3 114 89 88
3 113 114 88
3 92 90 91
3 115 92 91
3 115 91 116
3 116 91 93
3 116 93 118
3 93 95 118
3 118 95 94
3 117 118 94
3 98 121 119
3 96 98 119
3 119 120 96
3 96 120 97
3 97 120 122
3 100 97 122
3 99 102 103
3 103 98 99
3 103 124 98
3 124 121 98
3 122 101 100
3 123 101 122
3 101 123 126
3 104 101 126
3 125 103 102
3 125 102 127
3 127 102 105
3 103 125 124
3 126 130 104
3 130 106 104
3 108 128 127
3 108 127 107
3 107 127 105
3 128 108 131
3 130 132 106
3 132 109 106
3 112 108 107
3 110 112 107
3 131 112 133
3 108 112 131
3 132 134 109
3 134 113 109
3 112 110 111
3 111 133 112
3 111 115 133
3 115 136 133
3 117 135 138
3 114 135 117
3 135 114 113
3 134 135 113
3 136 115 116
3 137 136 116
3 137 116 139
3 116 118 139
3 139 118 117
3 138 139 117
3 121 142 140
3 119 121 140
3 140 141 119
3 119 141 120
3 120 141 143
3 122 120 143
3 142 121 145
3 145 121 124
3 143 123 122
3 144 123 143
3 123 144 146
3 126 123 146
3 129 124 125
3 129 147 124
3 147 145 124
3 146 148 126
3 148 130 126
3 128 147 129
3 128 131 147
3 131 149 147
3 148 150 130
3 150 132 130
3 149 131 151
3 151 131 133
3 150 152 132
3 152 134 132
3 151 133 154
3 154 133 136
3 138 153 156
3 135 153 138
3 153 135 134
3 152 153 134
3 154 136 137
3 155 154 137
3 155 137 157
3 137 139 157
3 157 139 138
3 156 157 138
3 142 160 158
3 140 142 158
3 158 159 140
3 140 159 141
3 141 159 161
3 143 141 161
3 160 142 163
3 163 142 145
3 161 144 143
3 162 144 161
3 144 162 164
3 146 144 164
3 163 145 165
3 165 145 147
3 164 166 146
3 166 148 146
3 165 147 167
3 167 147 149
3 166 168 148
3 168 150 148
3 167 149 169
3 169 149 151
3 168 170 150
3 170 152 150
3 169 151 172
3 172 151 154
3 156 171 174
3 153 171 156
3 171 153 152
3 170 171 152
3 172 154 155
3 173 172 155
3 173 155 175
3 155 157 175
3 175 157 156
3 174 175 156
3 160 178 176
3 158 160 176
3 176 177 158
3 158 177 159
3 159 177 179
3 161 159 179
3 178 160 181
3 181 160 163
3 179 162 161
3 180 162 179
3 162 180 183
3 164 162 183
3 181 163 184
3 184 163 165
3 183 186 164
3 186 166 164
3 184 165 187
3 187 165 167
3 186 189 166
3 189 168 166
3 187 167 190
3 190 167 169
3 189 192 168
3 192 170 168
3 190 169 194
3 194 169 172
3 174 193 196
3 171 193 174
3 193 171 170
3 192 193 170
3 194 172 173
3 195 194 173
3 195 173 197
3 173 175 197
3 197 175 174
3 196 197 174
3 178 200 198
3 176 178 198
3 198 199 176
3 176 199 177
3 177 199 203
3 179 177 203
3 209 201 182
3 201 181 182
3 201 200 181
3 200 178 181
3 203 180 179
3 204 180 203
3 180 204 210
3 183 180 210
3 216 209 182
3 185 216 182
3 182 184 185
3 181 184 182
3 210 218 183
3 218 186 183
3 225 216 185
3 188 225 185
3 185 187 188
3 184 187 185
3 218 227 186
3 227 189 186
3 232 225 188
3 191 232 188
3 188 190 191
3 187 190 188
3 227 234 189
3 234 192 189
3 232 191 233
3 191 236 233
3 191 190 236
3 190 194 236
3 196 235 239
3 193 235 196
3 235 193 192
3 234 235 192
3 236 194 195
3 238 236 195
3 238 195 240
3 195 197 240
3 240 197 196
3 239 240 196
3 253 241 202
3 200 202 241
3 200 241 198
3 198 241 242
3 242 243 198
3 198 243 199
3 199 243 255
3 203 199 255
3 257 244 205
3 244 246 206
3 205 244 206
3 246 248 207
3 206 246 207
3 248 250 208
3 207 248 208
3 250 260 208
3 202 201 209
3 202 209 253
3 253 209 265
3 202 200 201
3 255 204 203
3 256 204 255
3 204 256 268
3 210 204 268
3 269 258 211
3 258 257 205
3 258 205 211
3 211 205 212
3 205 206 212
3 206 213 212
3 206 207 213
3 207 214 213
3 207 208 214
3 208 215 214
3 260 270 215
3 208 260 215
3 277 266 217
3 266 216 217
3 266 265 216
3 265 209 216
3 268 279 210
3 279 218 210
3 280 269 211
3 219 280 211
3 211 212 219
3 212 220 219
3 212 213 220
3 213 221 220
3 213 214 221
3 214 222 221
3 214 215 222
3 215 223 222
3 270 271 224
3 270 224 215
3 215 224 223
3 271 282 224
3 288 277 217
3 226 288 217
3 217 225 226
3 216 225 217
3 279 291 218
3 291 227 218
3 280 219 281
3 292 281 219
3 292 219 228
3 228 219 220
3 220 221 228
3 221 229 228
3 221 222 229
3 222 230 229
3 222 223 230
3 223 231 230
3 283 297 231
3 283 231 224
3 224 231 223
3 224 282 283
3 288 226 290
3 226 303 290
3 226 225 303
3 225 232 303
3 291 305 227
3 305 234 227
3 292 228 294
3 228 229 295
3 294 228 295
3 229 230 296
3 295 229 296
3 230 231 298
3 296 230 298
3 231 297 298
3 233 237 312
3 233 312 232
3 232 312 303
3 233 236 237
3 239 306 316
3 235 306 239
3 306 235 234
3 305 306 234
3 312 237 314
3 237 236 238
3 237 238 314
3 314 238 315
3 315 238 317
3 238 240 317
3 317 240 239
3 316 317 239
3 327 318 245
3 318 319 247
3 245 318 247
3 319 320 249
3 247 319 249
3 320 321 251
3 249 320 251
3 321 322 252
3 251 321 252
3 322 329 252
3 335 323 254
3 253 254 323
3 253 323 241
3 241 323 324
3 324 325 241
3 241 325 242
3 325 326 242
3 242 326 243
3 243 326 338
3 255 243 338
3 341 328 259
3 245 244 257
3 327 245 257
3 327 257 259
3 327 259 328
3 247 244 245
3 246 244 247
3 249 246 247
3 248 246 249
3 251 248 249
3 250 248 251
3 250 261 260
3 250 251 261
3 251 252 261
3 329 330 262
3 329 262 252
3 252 262 261
3 330 343 262
3 353 333 263
3 333 336 264
3 263 333 264
3 336 335 254
3 336 254 264
3 264 254 267
3 254 265 267
3 253 265 254
3 338 256 255
3 340 256 338
3 256 340 356
3 268 256 356
3 259 258 269
3 259 269 341
3 341 269 358
3 259 257 258
3 272 260 261
3 270 260 272
3 261 262 272
3 262 273 272
3 343 344 274
3 343 274 262
3 262 274 273
3 344 359 274
3 366 354 275
3 354 353 263
3 354 263 275
3 275 263 276
3 263 264 276
3 264 278 276
3 277 267 266
3 277 278 267
3 278 264 267
3 267 265 266
3 356 368 268
3 368 279 268
3 358 269 370
3 370 269 280
3 271 284 282
3 271 272 284
3 272 273 284
3 273 274 284
3 274 285 284
3 359 371 285
3 274 359 285
3 379 366 275
3 286 379 275
3 275 276 286
3 276 287 286
3 276 278 287
3 278 289 287
3 278 288 289
3 277 288 278
3 368 382 279
3 382 291 279
3 281 293 384
3 281 384 280
3 280 384 370
3 281 292 293
3 283 299 297
3 282 299 283
3 282 284 299
3 284 300 299
3 372 387 300
3 372 300 285
3 285 300 284
3 285 371 372
3 397 381 286
3 397 286 301
3 301 286 287
3 287 289 301
3 289 302 301
3 290 289 288
3 290 304 289
3 304 302 289
3 290 303 304
3 382 401 291
3 401 305 291
3 404 294 307
3 385 294 404
3 385 292 294
3 385 293 292
3 295 307 294
3 308 307 295
3 296 308 295
3 309 308 296
3 298 309 296
3 310 309 298
3 297 310 298
3 297 299 310
3 299 311 310
3 388 409 311
3 388 311 300
3 300 311 299
3 300 387 388
3 301 302 400
3 399 301 400
3 414 400 302
3 414 302 313
3 313 302 304
3 304 312 313
3 303 312 304
3 316 402 419
3 306 402 316
3 402 306 305
3 401 402 305
3 404 307 405
3 307 308 406
3 405 307 406
3 308 309 407
3 406 308 407
3 309 310 408
3 407 309 408
3 310 311 410
3 408 310 410
3 311 409 410
3 414 313 416
3 313 312 314
3 313 314 416
3 416 314 417
3 417 314 418
3 314 315 418
3 418 315 420
3 315 317 420
3 420 317 316
3 419 420 316
3 327 435 422
3 318 327 422
3 422 423 318
3 318 423 319
3 423 424 319
3 319 424 320
3 424 425 320
3 320 425 321
3 425 427 321
3 321 427 322
3 331 329 322
3 331 322 428
3 428 322 427
3 428 437 331
3 452 429 332
3 429 430 334
3 332 429 334
3 430 431 337
3 334 430 337
3 335 337 431
3 335 431 323
3 323 431 432
3 432 433 323
3 323 433 324
3 433 434 324
3 324 434 325
3 455 339 326
3 455 326 434
3 434 326 325
3 326 339 338
3 328 341 342
3 342 327 328
3 342 458 327
3 458 435 327
3 331 330 329
3 330 345 343
3 331 345 330
3 331 438 345
3 331 437 438
3 438 440 346
3 345 438 346
3 440 442 347
3 346 440 347
3 442 444 348
3 347 442 348
3 444 446 349
3 348 444 349
3 446 448 350
3 349 446 350
3 448 450 351
3 350 448 351
3 450 453 352
3 351 450 352
3 453 452 332
3 453 332 352
3 352 332 355
3 353 334 333
3 353 355 334
3 355 332 334
3 337 333 334
3 336 333 337
3 337 335 336
3 455 457 339
3 461 357 340
3 457 461 340
3 457 340 338
3 457 338 339
3 340 357 356
3 459 342 341
3 459 341 463
3 463 341 358
3 342 459 458
3 345 344 343
3 344 360 359
3 344 345 360
3 345 346 360
3 346 347 360
3 347 361 360
3 347 348 361
3 348 362 361
3 348 349 362
3 349 363 362
3 349 350 363
3 350 364 363
3 350 351 364
3 351 365 364
3 351 352 365
3 352 367 365
3 366 355 354
3 366 367 355
3 367 352 355
3 355 353 354
3 465 357 461
3 369 357 465
3 357 369 368
3 356 357 368
3 463 358 467
3 467 358 370
3 373 359 360
3 371 359 373
3 360 361 373
3 361 374 373
3 361 362 374
3 362 375 374
3 362 363 375
3 363 376 375
3 363 364 376
3 364 377 376
3 364 365 377
3 365 378 377
3 365 367 378
3 367 380 378
3 367 379 380
3 366 379 367
3 470 369 465
3 383 369 470
3 369 383 382
3 368 369 382
3 386 468 467
3 386 467 384
3 384 467 370
3 468 386 472
3 372 389 387
3 371 389 372
3 371 373 389
3 373 390 389
3 373 374 390
3 374 391 390
3 374 375 391
3 375 392 391
3 375 376 392
3 376 393 392
3 376 377 393
3 377 394 393
3 377 378 394
3 378 395 394
3 378 380 395
3 380 396 395
3 381 380 379
3 381 398 380
3 398 396 380
3 381 397 398
3 482 383 470
3 403 383 482
3 383 403 401
3 382 383 401
3 385 472 386
3 385 404 472
3 404 485 472
3 388 411 409
3 411 474 492
3 388 474 411
3 388 389 474
3 388 387 389
3 389 390 475
3 474 389 475
3 390 391 476
3 475 390 476
3 391 392 477
3 476 391 477
3 392 393 478
3 477 392 478
3 393 394 479
3 478 393 479
3 394 395 480
3 479 394 480
3 395 396 481
3 480 395 481
3 501 481 396
3 501 396 412
3 412 396 398
3 399 398 397
3 399 413 398
3 413 412 398
3 400 413 399
3 415 413 400
3 400 414 415
3 508 421 483
3 403 419 402
3 482 419 403
3 482 421 419
3 482 483 421
3 403 402 401
3 485 404 405
3 486 485 405
3 486 405 488
3 405 406 488
3 488 406 489
3 406 407 489
3 489 407 490
3 407 408 490
3 490 408 491
3 408 410 491
3 409 411 493
3 409 493 410
3 410 493 491
3 411 492 493
3 501 412 503
3 412 413 504
3 503 412 504
3 413 415 505
3 504 413 505
3 415 414 416
3 415 416 505
3 505 416 506
3 506 416 507
3 416 417 507
3 507 417 509
3 417 418 509
3 421 508 509
3 421 509 420
3 420 509 418
3 421 420 419
3 422 435 436
3 436 532 511
3 436 511 422
3 422 511 423
3 511 513 423
3 423 513 424
3 426 513 512
3 426 425 513
3 425 424 513
3 514 425 426
3 514 516 425
3 516 427 425
3 516 517 427
3 427 517 428
3 439 437 428
3 439 428 518
3 518 428 517
3 518 520 441
3 439 518 441
3 520 521 443
3 441 520 443
3 521 522 445
3 443 521 445
3 522 523 447
3 445 522 447
3 523 524 449
3 447 523 449
3 524 525 451
3 449 524 451
3 525 526 454
3 451 525 454
3 452 454 526
3 452 526 429
3 429 526 527
3 527 528 429
3 429 528 430
3 528 529 430
3 430 529 431
3 529 530 431
3 431 530 432
3 530 531 432
3 432 531 433
3 535 456 434
3 535 434 531
3 531 434 433
3 434 456 455
3 460 436 435
3 458 460 435
3 532 460 538
3 436 460 532
3 439 438 437
3 441 438 439
3 440 438 441
3 443 440 441
3 442 440 443
3 445 442 443
3 444 442 445
3 447 444 445
3 446 444 447
3 449 446 447
3 448 446 449
3 451 448 449
3 450 448 451
3 454 450 451
3 453 450 454
3 454 452 453
3 535 537 456
3 541 462 457
3 537 541 457
3 537 457 455
3 537 455 456
3 457 462 461
3 459 463 464
3 464 543 539
3 459 464 539
3 459 539 460
3 459 460 458
3 545 462 541
3 466 462 545
3 462 466 465
3 461 462 465
3 469 464 463
3 467 469 463
3 543 469 547
3 464 469 543
3 550 466 545
3 471 466 550
3 466 471 470
3 465 466 470
3 469 467 468
3 468 472 473
3 469 468 473
3 469 473 548
3 469 548 547
3 548 473 552
3 554 471 550
3 484 471 554
3 471 484 482
3 470 471 482
3 487 473 472
3 485 487 472
3 552 487 557
3 473 487 552
3 474 494 492
3 475 494 474
3 495 494 475
3 476 495 475
3 496 495 476
3 477 496 476
3 497 496 477
3 478 497 477
3 498 497 478
3 479 498 478
3 499 498 479
3 480 499 479
3 500 499 480
3 481 500 480
3 502 500 481
3 481 501 502
3 577 510 555
3 484 508 483
3 554 508 484
3 554 510 508
3 554 555 510
3 484 483 482
3 487 485 486
3 557 487 486
3 557 486 558
3 558 486 488
3 558 488 560
3 488 489 560
3 560 489 562
3 489 490 562
3 562 490 563
3 490 491 563
3 563 491 564
3 491 493 564
3 492 494 565
3 492 565 493
3 493 565 564
3 494 495 566
3 565 494 566
3 495 496 567
3 566 495 567
3 496 497 568
3 567 496 568
3 497 498 569
3 568 497 569
3 498 499 570
3 569 498 570
3 499 500 571
3 570 499 571
3 500 502 572
3 571 500 572
3 502 501 503
3 502 503 572
3 572 503 573
3 573 503 574
3 503 504 574
3 574 504 575
3 504 505 575
3 575 505 576
3 505 506 576
3 576 506 578
3 506 507 578
3 510 577 578
3 510 578 509
3 509 578 507
3 510 509 508
3 511 532 533
3 513 511 533
3 534 513 533
3 534 598 581
3 513 534 581
3 513 581 515
3 513 515 512
3 515 516 514
3 515 581 516
3 581 582 516
3 582 584 516
3 516 584 517
3 519 584 583
3 519 518 584
3 518 517 584
3 585 518 519
3 585 587 518
3 587 520 518
3 587 588 520
3 520 588 521
3 588 589 521
3 521 589 522
3 589 590 522
3 522 590 523
3 590 591 523
3 523 591 524
3 591 592 524
3 524 592 525
3 592 593 525
3 525 593 526
3 593 594 526
3 526 594 527
3 594 595 527
3 527 595 528
3 595 596 528
3 528 596 529
3 596 597 529
3 529 597 530
3 604 536 531
3 604 531 597
3 597 531 530
3 531 536 535
3 540 533 532
3 538 540 532
3 599 540 607
3 599 534 540
3 534 533 540
3 534 599 598
3 604 606 536
3 612 542 537
3 606 612 537
3 606 537 535
3 606 535 536
3 537 542 541
3 539 543 544
3 544 614 608
3 539 544 608
3 539 608 540
3 539 540 538
3 540 608 607
3 617 542 612
3 546 542 617
3 542 546 545
3 541 542 545
3 549 544 543
3 547 549 543
3 614 549 619
3 544 549 614
3 623 546 617
3 551 546 623
3 546 551 550
3 545 546 550
3 549 547 548
3 548 552 553
3 549 548 553
3 549 553 620
3 549 620 619
3 620 553 625
3 629 551 623
3 556 551 629
3 551 556 554
3 550 551 554
3 559 553 552
3 557 559 552
3 625 561 626
3 625 553 561
3 553 559 561
3 626 561 632
3 649 579 630
3 556 577 555
3 629 577 556
3 629 579 577
3 629 630 579
3 556 555 554
3 559 557 558
3 561 559 558
3 560 561 558
3 632 561 560
3 632 560 633
3 633 560 562
3 633 562 635
3 562 563 635
3 635 563 636
3 563 564 636
3 652 565 580
3 652 636 565
3 636 564 565
3 580 637 653
3 580 565 637
3 565 566 637
3 637 566 638
3 566 567 638
3 638 567 639
3 567 568 639
3 639 568 640
3 568 569 640
3 640 569 641
3 569 570 641
3 641 570 642
3 570 571 642
3 642 571 643
3 571 572 643
3 643 572 644
3 572 573 644
3 644 573 645
3 573 574 645
3 645 574 647
3 574 575 647
3 647 575 650
3 575 576 650
3 579 649 650
3 579 650 578
3 578 650 576
3 579 578 577
3 581 598 600
3 582 581 600
3 601 582 600
3 601 665 655
3 601 655 582
3 582 655 584
3 583 656 586
3 583 584 656
3 584 655 656
3 586 587 585
3 586 656 587
3 656 657 587
3 657 658 587
3 587 658 588
3 658 659 588
3 588 659 589
3 659 660 589
3 589 660 590
3 660 661 590
3 590 661 591
3 661 662 591
3 591 662 592
3 662 663 592
3 592 663 593
3 663 664 593
3 593 664 594
3 676 602 595
3 676 595 664
3 664 595 594
3 596 595 602
3 603 596 602
3 597 596 603
3 605 597 603
3 599 607 609
3 598 599 609
3 598 609 600
3 600 609 610
3 666 610 680
3 666 601 610
3 601 600 610
3 601 666 665
3 676 678 602
3 602 679 603
3 678 679 602
3 691 603 679
3 691 611 603
3 611 605 603
3 606 604 605
3 606 605 613
3 613 605 611
3 606 613 612
3 608 614 615
3 607 608 615
3 607 615 609
3 609 615 616
3 681 616 694
3 681 610 616
3 610 609 616
3 610 681 680
3 691 693 611
3 699 611 693
3 699 618 611
3 618 613 611
3 613 618 617
3 612 613 617
3 621 615 614
3 619 621 614
3 615 621 616
3 616 621 622
3 694 622 701
3 616 622 694
3 706 618 699
3 624 618 706
3 618 624 623
3 617 618 623
3 621 619 620
3 620 625 627
3 620 627 621
3 621 627 622
3 701 627 709
3 622 627 701
3 725 628 707
3 707 624 706
3 707 628 624
3 628 631 624
3 624 631 629
3 623 624 629
3 627 625 626
3 626 632 634
3 627 626 634
3 627 634 710
3 627 710 709
3 710 634 728
3 749 646 723
3 723 648 726
3 646 648 723
3 726 628 725
3 726 648 628
3 648 651 628
3 649 630 631
3 649 631 651
3 651 631 628
3 634 632 633
3 728 634 633
3 728 633 729
3 729 633 635
3 729 635 731
3 635 636 731
3 654 636 652
3 654 733 636
3 733 731 636
3 653 733 654
3 653 637 733
3 637 735 733
3 735 637 737
3 637 638 737
3 737 638 739
3 638 639 739
3 739 639 741
3 639 640 741
3 741 640 743
3 640 641 743
3 743 641 745
3 641 642 745
3 745 642 747
3 642 643 747
3 747 643 750
3 643 644 750
3 646 749 750
3 646 750 645
3 645 750 644
3 648 646 645
3 647 648 645
3 651 648 647
3 650 651 647
3 651 650 649
3 655 665 667
3 656 655 667
3 668 656 667
3 657 656 668
3 669 657 668
3 658 657 669
3 670 658 669
3 659 658 670
3 671 659 670
3 660 659 671
3 672 660 671
3 661 660 672
3 673 661 672
3 662 661 673
3 674 662 673
3 663 662 674
3 675 663 674
3 664 663 675
3 677 664 675
3 664 677 676
3 666 680 682
3 665 666 682
3 665 682 667
3 667 682 683
3 667 683 668
3 668 683 684
3 668 684 669
3 669 684 685
3 669 685 670
3 670 685 686
3 670 686 671
3 671 686 687
3 752 687 759
3 752 672 687
3 672 671 687
3 672 753 673
3 752 753 672
3 673 754 674
3 753 754 673
3 763 674 754
3 763 688 674
3 688 675 674
3 675 688 677
3 677 688 689
3 678 676 677
3 678 677 690
3 690 677 689
3 679 678 690
3 692 679 690
3 679 692 691
3 681 694 695
3 680 681 695
3 680 695 682
3 682 695 696
3 755 696 767
3 755 683 696
3 683 682 696
3 683 756 684
3 755 756 683
3 684 757 685
3 756 757 684
3 685 758 686
3 757 758 685
3 687 760 759
3 763 765 688
3 688 766 689
3 765 766 688
3 777 689 766
3 777 697 689
3 697 690 689
3 690 697 692
3 692 697 698
3 693 691 692
3 693 692 700
3 700 692 698
3 693 700 699
3 702 695 694
3 701 702 694
3 695 702 696
3 696 702 703
3 767 703 779
3 696 703 767
3 798 697 777
3 704 697 798
3 697 704 698
3 698 704 705
3 698 705 700
3 700 705 708
3 700 708 706
3 699 700 706
3 711 702 701
3 709 711 701
3 702 711 703
3 703 711 712
3 779 713 780
3 779 703 713
3 703 712 713
3 780 714 782
3 713 714 780
3 782 715 784
3 714 715 782
3 784 716 786
3 715 716 784
3 786 717 788
3 716 717 786
3 788 718 790
3 717 718 788
3 790 719 792
3 718 719 790
3 792 720 794
3 719 720 792
3 794 721 796
3 720 721 794
3 796 722 799
3 721 722 796
3 799 704 798
3 799 722 704
3 722 724 704
3 704 724 705
3 705 724 727
3 725 707 708
3 725 708 727
3 727 708 705
3 708 707 706
3 711 709 710
3 710 728 730
3 710 730 711
3 711 730 712
3 712 730 713
3 713 730 732
3 713 732 714
3 714 732 734
3 714 734 715
3 715 734 736
3 715 736 716
3 716 736 738
3 716 738 717
3 717 738 740
3 717 740 718
3 718 740 742
3 718 742 719
3 719 742 744
3 719 744 720
3 720 744 746
3 720 746 721
3 721 746 748
3 721 748 722
3 722 748 751
3 749 723 724
3 749 724 751
3 751 724 722
3 727 724 723
3 726 727 723
3 727 726 725
3 730 728 729
3 732 730 729
3 731 732 729
3 734 732 731
3 733 734 731
3 736 734 733
3 735 736 733
3 738 736 735
3 737 738 735
3 740 738 737
3 739 740 737
3 742 740 739
3 741 742 739
3 744 742 741
3 743 744 741
3 746 744 743
3 745 746 743
3 748 746 745
3 747 748 745
3 751 748 747
3 750 751 747
3 751 750 749
3 752 759 761
3 754 764 763
3 755 767 768
3 756 755 768
3 769 756 768
3 757 756 769
3 770 757 769
3 758 757 770
3 771 758 770
3 760 758 771
3 772 760 771
3 759 760 772
3 759 772 761
3 761 772 773
3 761 773 762
3 762 773 774
3 762 774 764
3 764 774 775
3 765 763 764
3 765 764 776
3 776 764 775
3 766 765 776
3 778 766 776
3 766 778 777
3 781 768 767
3 779 781 767
3 768 781 769
3 769 781 783
3 769 783 770
3 770 783 785
3 770 785 771
3 771 785 787
3 771 787 772
3 772 787 789
3 772 789 773
3 773 789 791
3 773 791 774
3 774 791 793
3 774 793 775
3 775 793 795
3 775 795 776
3 776 795 797
3 776 797 778
3 778 797 800
3 778 800 798
3 777 778 798
3 781 779 780
3 783 781 780
3 782 783 780
3 785 783 782
3 784 785 782
3 787 785 784
3 786 787 784
3 789 787 786
3 788 789 786
3 791 789 788
3 790 791 788
3 793 791 790
3 792 793 790
3 795 793 792
3 794 795 792
3 797 795 794
3 796 797 794
3 800 797 796
3 799 800 796
3 800 799 798
