ply
format ascii 1.0
element vertex 252
property float x
property float y
property float z
element face 500
property list uchar int vertex_indices
end_header
-0.425722 -0.089549 -0.980513
-0.446662 -0.048498 -0.902878
-0.412457 0.000924 -1.034595
-0.446574 0.035482 -0.971889
-0.426131 0.089589 -0.891978
-0.339719 -0.206933 -0.966940
-0.341368 -0.200194 -0.892544
-0.411997 -0.115944 -0.884090
-0.365685 -0.125233 -1.042380
-0.357573 -0.117103 -0.824873
-0.425531 -0.027463 -0.848423
-0.381797 -0.051277 -0.814491
-0.337677 -0.065781 0.518338
-0.335471 -0.053566 0.671912
-0.372075 -0.002947 0.634121
-0.416097 0.075829 -0.847958
-0.379178 0.078412 -0.825984
-0.354383 0.036344 0.524883
-0.410194 0.135410 -0.974131
-0.352919 0.138422 -1.027626
-0.342990 0.070787 0.644454
-0.355380 0.193357 -0.901745
-0.338874 0.220663 -0.956520
-0.282524 -0.207503 0.584837
-0.268105 -0.209603 0.508982
-0.264234 -0.194631 0.646485
-0.339168 -0.036161 -1.070536
-0.281361 -0.094520 0.402881
-0.317816 0.028697 0.434684
-0.312766 0.120214 0.490378
-0.269696 0.122303 0.400004
-0.286885 0.146168 -0.794778
-0.256147 0.212788 0.596604
-0.274391 0.171428 0.661413
-0.274326 -0.228628 -0.961648
-0.261315 -0.232083 -0.884887
-0.194897 -0.257315 0.557258
-0.291694 -0.154197 -1.033717
-0.206590 -0.233602 0.430351
-0.299377 -0.156399 -0.814783
-0.178392 -0.206143 0.364091
-0.265235 -0.119913 0.696633
-0.156259 -0.175821 -0.709008
-0.262430 -0.031427 -1.064613
-0.191996 -0.089255 -1.028819
-0.277885 -0.072111 -0.754241
-0.249351 -0.068372 0.338529
-0.193878 -0.091285 0.298196
-0.267824 -0.046141 0.709876
-0.190974 -0.005286 -1.040019
-0.199789 -0.005334 0.282547
-0.265435 0.018066 0.352842
-0.268227 0.035077 -0.735427
-0.265276 0.071804 0.697568
-0.277453 0.114461 -1.041596
-0.205417 0.076956 -1.034469
-0.189614 0.077880 0.287638
-0.131440 0.139641 -0.637489
-0.240681 0.111502 0.350628
-0.153976 0.194442 -0.712580
-0.193037 0.179547 0.349737
-0.204474 0.226986 0.431996
-0.282222 0.222827 -0.964633
-0.265920 0.232969 -0.884091
-0.177902 0.262271 0.557145
-0.193191 -0.236211 -0.906768
-0.116535 -0.274249 0.438905
-0.151140 -0.178531 -0.957319
-0.089722 -0.222265 -0.717760
-0.132234 -0.191394 0.659374
-0.103957 -0.099736 -0.978994
-0.111855 -0.121121 -0.625461
-0.119954 -0.094858 0.704237
-0.136380 -0.053843 0.246429
-0.135252 -0.057682 -0.623735
-0.061658 0.025970 0.696659
-0.103760 0.117805 0.696198
-0.110784 0.088004 -0.983613
-0.128374 0.178597 -0.941675
-0.182585 0.208486 0.646289
-0.184475 0.238528 -0.901366
-0.095480 0.224947 -0.725418
-0.110871 0.273552 0.434025
-0.116790 -0.286220 0.521631
-0.097633 -0.254964 0.585660
-0.111534 -0.218987 -0.880757
-0.116855 -0.235184 -0.824459
-0.053613 -0.256630 0.343296
-0.020083 -0.191945 -0.809425
-0.116879 -0.187753 0.299737
-0.041565 -0.178432 -0.585471
-0.036895 -0.122606 0.195208
-0.107496 -0.020521 -0.993254
0.020043 -0.059479 0.117698
-0.123541 0.045499 0.228077
-0.113358 0.143824 0.258847
0.017924 0.189061 -0.521727
-0.115440 0.220932 -0.888049
-0.106508 0.229577 -0.828927
-0.129910 0.233099 0.349616
-0.039553 0.260604 0.343025
-0.115683 0.284061 0.519196
-0.105102 0.254105 0.585006
0.025658 -0.274921 0.423764
-0.038142 -0.277078 0.503211
-0.061165 -0.228272 -0.758297
0.053912 -0.262442 0.282019
-0.067965 -0.180468 -0.900568
0.042727 -0.219733 -0.556042
0.035164 -0.222317 0.212882
-0.034654 -0.173861 0.648916
0.043332 -0.196755 -0.495687
0.048893 -0.149729 -0.429231
-0.052683 -0.128866 -0.922642
-0.014548 -0.105043 -0.504349
-0.042457 -0.101534 0.687980
-0.035848 -0.030163 -0.931445
0.036402 -0.075949 -0.831063
0.083350 -0.135257 0.090397
0.013584 0.004621 -0.437612
0.051221 -0.071805 0.644882
0.058399 0.003253 -0.816490
-0.026565 0.003797 -0.493136
0.046507 0.091546 0.645465
-0.056878 0.093420 -0.939343
0.014736 0.085087 -0.852697
-0.011115 0.098288 -0.490547
0.056062 0.161997 -0.428715
-0.042783 0.157071 0.659137
-0.056249 0.177009 -0.877720
-0.010502 0.185900 -0.797416
-0.045145 0.227536 0.281198
-0.038702 0.221652 -0.754706
0.054045 0.260872 0.279328
0.036253 0.269158 0.430511
-0.037952 0.276719 0.503715
0.033853 -0.274511 0.354619
0.055115 -0.253476 0.494209
0.080939 -0.229351 -0.598117
0.127264 -0.263393 0.221981
0.138174 -0.236795 0.423807
0.122071 -0.232916 -0.507592
0.118724 -0.223654 -0.423267
0.037979 -0.208313 0.573766
0.110723 -0.206357 0.523110
0.104166 -0.172649 -0.347352
0.206874 -0.215610 0.041823
0.155090 -0.170971 -0.244634
0.209445 -0.140277 -0.586142
0.121979 -0.059017 -0.201600
0.052731 -0.004467 -0.354447
0.111314 0.006914 -0.206930
0.168581 0.045397 -0.045868
0.080254 0.121648 -0.322307
0.130635 0.077206 -0.200508
0.190092 0.147221 -0.032976
0.126451 0.154481 -0.267031
0.048215 0.197691 0.580790
0.088838 0.199351 -0.669644
0.096326 0.184987 -0.357739
0.182435 0.221242 0.069446
0.085405 0.228889 -0.597657
0.068191 0.229900 -0.549115
0.108276 0.229146 -0.499009
0.137064 0.229989 -0.412422
0.116183 0.200253 0.509702
0.150260 0.265187 0.208591
0.035060 0.272166 0.352624
0.039684 0.258928 0.499718
0.115998 -0.268664 0.271043
0.094312 -0.269678 0.342722
0.200395 -0.257417 0.136616
0.182110 -0.204116 -0.548456
0.174938 -0.231945 -0.353406
0.215870 -0.234803 -0.291326
0.112499 -0.153459 0.570360
0.225025 -0.186142 -0.119781
0.160836 -0.154816 0.503756
0.146129 -0.056107 0.577788
0.186336 -0.118416 -0.103194
0.193299 -0.129923 -0.043799
0.164489 -0.004535 -0.115802
0.196043 -0.010666 0.494683
0.117641 -0.064946 0.612142
0.237996 -0.042029 -0.578403
0.113700 0.067949 0.611579
0.143198 0.087517 0.572144
0.208878 0.086614 -0.599557
0.212539 0.155895 -0.119877
0.160584 0.135453 0.505568
0.178309 0.148513 0.465424
0.108203 0.160939 0.577996
0.190228 0.216641 -0.280009
0.144473 0.228357 0.416667
0.217088 0.257329 0.127609
0.115242 0.268309 0.271152
0.093653 0.267480 0.340686
0.198848 -0.268612 0.193441
0.183679 -0.265203 0.255368
0.201430 -0.230378 -0.437345
0.274646 -0.246994 -0.267015
0.278178 -0.231223 -0.155674
0.262957 -0.219979 -0.035994
0.248300 -0.152595 -0.504662
0.275504 -0.193274 -0.432787
0.350170 -0.138621 0.289573
0.198657 -0.116484 0.473260
0.289161 0.012588 -0.507022
0.405695 -0.014968 0.268262
0.222816 0.026912 0.461534
0.252326 0.131779 -0.521657
0.189925 0.196878 -0.536281
0.280568 0.188748 -0.441720
0.241212 0.200612 -0.049103
0.195398 0.235759 -0.448170
0.271712 0.235549 -0.213538
0.281210 0.227542 -0.103237
0.197424 0.268413 0.193773
0.176736 0.264347 0.258929
0.264868 -0.248742 0.078651
0.271929 -0.258461 0.166390
0.267420 -0.243782 -0.344376
0.351372 -0.237200 0.111849
0.358772 -0.209396 0.204303
0.289458 -0.122886 -0.472554
0.363701 -0.115717 -0.421087
0.406904 0.084419 0.261565
0.367494 0.104534 -0.424129
0.364249 0.133475 0.279043
0.272430 0.239741 -0.346401
0.262702 0.242964 0.055639
0.337999 0.214885 0.213658
0.355354 0.239430 0.114221
0.273650 0.256702 0.166855
0.341292 -0.205636 -0.360360
0.329985 -0.235436 -0.251992
0.395327 -0.208989 0.119507
0.415361 -0.123972 -0.340789
0.417967 -0.125575 0.183196
0.364581 -0.013578 -0.454533
0.426648 -0.034166 -0.406400
0.417995 0.042840 -0.413296
0.416827 0.123103 -0.339092
0.392183 0.202878 -0.278550
0.417105 0.135568 0.189541
0.356957 0.205449 -0.352141
0.383922 0.223119 0.120073
0.344753 0.236501 -0.247936
0.450249 -0.048687 -0.340782
0.446863 -0.004667 0.180022
0.446732 0.026515 -0.355474
0.440927 0.068655 0.198162
3 0 1 7
3 7 1 10
3 2 3 0
3 0 3 1
3 1 3 4
3 10 4 15
3 1 4 10
3 18 3 2
3 18 4 3
3 6 5 7
3 6 7 9
3 8 0 5
3 7 5 0
3 11 9 7
3 10 11 7
3 8 26 2
3 8 2 0
3 12 14 13
3 16 11 10
3 15 16 10
3 12 17 14
3 13 14 20
3 2 26 19
3 2 19 18
3 14 17 20
3 29 20 17
3 4 21 16
3 4 16 15
3 4 18 21
3 22 18 19
3 18 22 21
3 5 34 37
3 34 5 35
3 5 6 35
3 37 8 5
3 35 6 39
3 39 6 9
3 12 24 27
3 24 12 23
3 25 23 13
3 25 13 41
3 26 37 43
3 8 37 26
3 23 12 13
3 39 9 45
3 45 9 11
3 13 48 41
3 51 27 46
3 28 27 51
3 27 28 12
3 45 11 52
3 52 11 16
3 12 28 17
3 48 13 53
3 53 13 20
3 43 54 26
3 54 19 26
3 52 16 31
3 29 17 28
3 29 28 30
3 16 21 31
3 29 32 20
3 20 32 33
3 20 33 53
3 54 62 19
3 62 22 19
3 31 21 63
3 32 29 61
3 62 63 22
3 22 63 21
3 34 35 65
3 38 24 36
3 36 24 23
3 23 25 36
3 67 37 34
3 34 65 67
3 35 39 42
3 41 69 25
3 38 40 27
3 24 38 27
3 69 41 72
3 37 44 43
3 44 37 67
3 45 42 39
3 46 40 47
3 46 27 40
3 49 43 44
3 47 50 46
3 46 50 51
3 75 48 53
3 55 43 49
3 54 43 55
3 50 56 51
3 75 53 76
3 31 57 52
3 58 51 56
3 51 58 30
3 28 51 30
3 54 55 78
3 59 57 31
3 60 58 56
3 58 60 30
3 30 60 61
3 30 61 29
3 76 53 79
3 79 53 33
3 62 54 78
3 78 80 62
3 31 63 59
3 33 32 79
3 80 63 62
3 64 32 61
3 64 79 32
3 66 36 83
3 36 84 83
3 85 65 86
3 65 35 86
3 68 86 35
3 66 40 38
3 36 66 38
3 84 36 69
3 69 36 25
3 67 65 85
3 42 68 35
3 44 67 70
3 45 71 42
3 73 47 89
3 89 47 40
3 70 92 44
3 74 71 45
3 72 41 48
3 92 49 44
3 52 74 45
3 73 50 47
3 72 48 75
3 73 94 50
3 92 77 49
3 77 55 49
3 94 56 50
3 56 94 95
3 78 55 77
3 56 95 60
3 80 78 97
3 63 81 59
3 60 95 99
3 97 98 80
3 80 98 63
3 63 98 81
3 99 82 61
3 99 61 60
3 64 61 82
3 102 79 64
3 82 101 64
3 101 102 64
3 66 103 87
3 103 66 104
3 66 83 104
3 104 83 84
3 88 85 86
3 88 86 105
3 86 68 105
3 87 89 40
3 87 109 89
3 87 40 66
3 107 67 85
3 107 85 88
3 68 42 90
3 110 84 69
3 107 113 67
3 113 70 67
3 71 90 42
3 91 89 109
3 110 69 115
3 115 69 72
3 91 73 89
3 70 116 92
3 113 116 70
3 71 74 114
3 114 74 122
3 91 93 73
3 115 72 75
3 73 93 94
3 116 124 92
3 124 77 92
3 122 52 126
3 74 52 122
3 52 57 126
3 75 76 128
3 124 78 77
3 124 129 78
3 59 96 57
3 128 76 79
3 97 78 129
3 129 130 98
3 97 129 98
3 130 132 98
3 59 81 96
3 95 131 99
3 79 102 128
3 132 81 98
3 99 131 100
3 100 82 99
3 100 134 82
3 134 135 82
3 82 135 101
3 102 101 135
3 87 136 106
3 136 87 103
3 103 104 137
3 105 68 138
3 108 138 68
3 87 106 109
3 84 143 104
3 104 143 137
3 105 138 88
3 108 68 90
3 108 90 111
3 143 84 110
3 114 111 90
3 71 114 90
3 111 114 112
3 91 109 118
3 120 143 110
3 115 120 110
3 107 88 113
3 88 117 113
3 112 114 119
3 112 119 150
3 118 93 91
3 113 117 116
3 117 121 116
3 114 122 119
3 120 75 123
3 115 75 120
3 116 125 124
3 116 121 125
3 122 126 119
3 119 126 127
3 119 127 150
3 75 128 123
3 129 124 125
3 125 130 129
3 128 157 123
3 96 126 57
3 126 96 127
3 130 158 132
3 157 128 102
3 161 81 132
3 81 162 96
3 81 161 162
3 133 131 160
3 131 133 100
3 102 135 157
3 157 135 168
3 133 167 100
3 167 134 100
3 134 168 135
3 106 169 139
3 169 106 170
3 106 136 170
3 170 103 140
3 170 136 103
3 137 140 103
3 141 138 108
3 106 139 109
3 144 140 137
3 137 143 144
3 88 138 172
3 141 108 111
3 142 141 111
3 112 142 111
3 142 112 145
3 144 143 175
3 172 148 88
3 109 146 118
3 175 143 120
3 117 88 148
3 147 145 149
3 150 145 112
3 145 150 149
3 175 120 183
3 149 150 151
3 183 120 185
3 185 120 123
3 93 152 94
3 127 153 150
3 150 153 151
3 151 153 154
3 152 155 94
3 154 153 156
3 155 95 94
3 185 123 157
3 159 153 127
3 156 153 159
3 160 95 155
3 95 160 131
3 185 157 191
3 158 161 132
3 96 162 163
3 127 96 163
3 164 127 163
3 127 164 159
3 157 165 191
3 162 161 163
3 160 166 133
3 196 193 134
3 193 165 134
3 134 165 168
3 157 168 165
3 166 195 133
3 195 196 133
3 133 196 167
3 134 167 196
3 139 197 171
3 197 139 198
3 139 169 198
3 198 169 170
3 138 141 172
3 172 141 199
3 141 142 199
3 173 199 142
3 109 171 146
3 139 171 109
3 198 170 140
3 173 142 145
3 145 147 173
3 173 147 174
3 174 147 176
3 144 177 140
3 176 147 179
3 118 146 180
3 144 175 177
3 175 178 177
3 147 149 179
3 179 149 181
3 179 181 180
3 118 180 93
3 182 206 177
3 177 178 182
3 175 183 178
3 184 117 148
3 121 117 184
3 149 151 181
3 180 181 152
3 180 152 93
3 178 186 182
3 178 185 186
3 183 185 178
3 187 121 184
3 125 121 187
3 151 154 181
3 181 154 188
3 181 188 152
3 190 209 182
3 189 190 182
3 182 186 189
3 130 125 187
3 188 154 156
3 188 155 152
3 158 130 187
3 187 211 158
3 190 189 165
3 189 186 165
3 186 191 165
3 185 191 186
3 158 211 161
3 156 159 192
3 188 156 192
3 193 190 165
3 211 163 161
3 211 214 163
3 163 214 164
3 164 192 159
3 160 194 166
3 218 193 196
3 194 217 166
3 217 218 166
3 166 218 195
3 196 195 218
3 219 171 220
3 171 197 220
3 220 197 198
3 199 221 204
3 199 173 221
3 200 221 174
3 174 221 173
3 200 174 176
3 200 176 201
3 202 146 219
3 219 146 171
3 220 198 223
3 223 198 140
3 172 199 203
3 199 204 203
3 201 176 202
3 202 176 180
3 180 146 202
3 205 223 140
3 140 177 205
3 172 203 148
3 204 224 203
3 176 179 180
3 205 177 206
3 148 203 184
3 203 207 184
3 203 224 207
3 182 205 206
3 184 207 187
3 182 209 208
3 207 210 187
3 207 212 210
3 228 209 190
3 187 210 211
3 155 188 213
3 210 212 211
3 212 214 211
3 212 229 214
3 188 192 215
3 188 215 216
3 188 216 213
3 160 155 213
3 231 228 190
3 193 231 190
3 229 164 214
3 229 192 164
3 213 230 160
3 216 230 213
3 160 230 194
3 233 231 218
3 231 193 218
3 192 229 215
3 230 233 194
3 194 233 217
3 218 217 233
3 220 222 219
3 221 234 204
3 221 200 235
3 221 235 234
3 200 201 235
3 201 202 235
3 235 202 222
3 202 219 222
3 222 220 223
3 204 225 224
3 225 204 234
3 225 239 224
3 239 207 224
3 208 209 226
3 239 227 207
3 227 212 207
3 209 228 226
3 212 227 245
3 245 229 212
3 247 229 245
3 215 229 247
3 215 247 216
3 247 232 216
3 216 232 230
3 232 231 233
3 233 230 232
3 222 236 235
3 223 236 222
3 234 235 237
3 235 236 237
3 223 238 236
3 223 205 238
3 225 234 237
3 236 238 237
3 239 225 240
3 225 237 240
3 208 238 205
3 205 182 208
3 249 238 208
3 241 239 240
3 251 249 208
3 226 251 208
3 227 239 241
3 241 242 227
3 243 242 244
3 244 251 226
3 244 226 228
3 245 227 242
3 244 246 243
3 244 231 246
3 231 244 228
3 242 243 245
3 243 247 245
3 243 246 247
3 232 247 246
3 231 232 246
3 238 248 237
3 240 237 248
3 238 249 248
3 250 240 248
3 241 240 250
3 248 249 250
3 242 241 250
3 250 249 251
3 251 242 250
3 244 242 251
