ply
format ascii 1.0
element vertex 252
property float x
property float y
property float z
element face 500
property list uchar int vertex_indices
end_header
-0.425267 -0.057068 0.439205
-0.399660 -0.119799 0.561924
-0.423350 0.018531 0.578853
-0.431949 0.058449 0.432590
-0.409834 0.124031 0.547652
-0.329113 -0.221791 0.420866
-0.340524 -0.218818 0.511717
-0.384649 -0.158185 0.428918
-0.374698 -0.118819 0.349632
-0.394018 -0.062811 0.654229
-0.348891 -0.040336 -0.190595
-0.364349 -0.073635 0.270712
-0.396326 0.001334 0.343015
-0.334119 -0.084365 0.801286
-0.372004 0.004203 0.260753
-0.384879 0.023702 0.700693
-0.342167 0.019293 0.832569
-0.329491 0.072342 -0.188237
-0.364215 0.066897 0.268793
-0.331468 0.105029 0.809306
-0.375655 0.121004 0.355306
-0.408663 0.133076 0.434276
-0.364189 0.137131 0.661345
-0.342182 0.216226 0.524157
-0.355706 0.190816 0.596243
-0.338869 0.207325 0.427428
-0.264629 -0.207766 -0.205972
-0.264591 -0.216862 -0.111280
-0.292236 -0.221314 0.331467
-0.327018 -0.193615 0.337571
-0.341931 -0.204058 0.593940
-0.282679 -0.235621 0.612348
-0.261114 -0.193986 0.799028
-0.331075 -0.108728 -0.189922
-0.320878 -0.157758 -0.122018
-0.319308 -0.177437 0.261031
-0.341069 -0.165703 0.672712
-0.252863 -0.118886 0.904201
-0.269794 -0.135944 -0.307193
-0.303000 -0.028444 -0.320099
-0.299764 -0.014139 0.903368
-0.291868 0.068683 -0.316995
-0.283415 0.072683 0.910673
-0.274223 0.192070 -0.203454
-0.303791 0.181353 -0.114704
-0.296142 0.195870 0.276053
-0.258850 0.157716 0.889631
-0.263899 0.199342 0.798842
-0.270444 0.221970 -0.118413
-0.288381 0.228991 0.383984
-0.276639 0.240204 0.616603
-0.270728 0.261400 0.488412
-0.278317 -0.251250 0.470469
-0.199311 -0.239574 -0.110553
-0.230621 -0.254053 0.443569
-0.213473 -0.232201 -0.262000
-0.183286 -0.204748 -0.361215
-0.195334 -0.188635 0.862929
-0.207629 -0.144199 -0.408768
-0.229789 -0.072080 -0.426642
-0.212588 0.006075 0.963765
-0.241254 -0.000883 -0.430169
-0.232687 0.078360 -0.423229
-0.252890 0.153566 -0.314464
-0.203476 0.144352 -0.421492
-0.163650 0.215746 -0.365558
-0.207036 0.183499 0.882747
-0.235581 0.262308 0.414502
-0.052933 -0.277761 -0.341316
-0.187927 -0.252433 -0.195985
-0.198539 -0.236669 0.723626
-0.106284 -0.190258 -0.493920
-0.133771 -0.226482 -0.131273
-0.152522 -0.211139 -0.041469
-0.170540 -0.229089 0.696899
-0.160864 -0.116962 0.941741
-0.131938 -0.140827 0.876814
-0.126482 0.001968 0.969463
-0.110590 0.041435 -0.609960
-0.171584 0.101541 0.954666
-0.070843 0.176154 -0.586878
-0.143354 0.208163 -0.026318
-0.147465 0.206449 0.685795
-0.190391 0.223912 0.726884
-0.130365 0.130509 0.870858
-0.100517 0.211583 -0.479108
-0.160784 0.256636 -0.257469
-0.188633 0.247977 -0.166977
-0.115480 0.221014 -0.138752
-0.039318 -0.278369 -0.252555
-0.111950 -0.259340 -0.195580
-0.016883 -0.277266 -0.437382
-0.040635 -0.246596 -0.181951
-0.051448 -0.218961 -0.563873
-0.026790 -0.175706 -0.662392
-0.073098 -0.169161 -0.584771
-0.100486 -0.150481 -0.047762
-0.045047 -0.173071 -0.100411
-0.116182 -0.092597 0.942351
-0.119282 -0.038429 -0.582843
-0.085425 -0.084241 -0.029158
-0.069647 -0.007458 -0.664490
-0.096988 -0.014061 0.889004
-0.078735 0.003434 -0.051110
-0.088429 0.087394 -0.029886
-0.114150 0.069547 0.957810
-0.055804 0.113828 -0.672223
-0.107979 0.160846 -0.048521
-0.020224 0.201580 -0.644808
-0.048314 0.140428 -0.094690
0.025424 0.276328 -0.514095
-0.019301 0.278297 -0.414523
-0.121368 0.265435 -0.212976
-0.038644 0.247159 -0.184300
-0.047097 0.285441 -0.341295
-0.041663 0.284120 -0.271412
0.033977 -0.284201 -0.526698
0.018383 -0.228152 -0.660332
0.053839 -0.231842 -0.136119
0.032952 -0.185716 -0.727811
0.086293 -0.151822 0.021572
-0.055093 -0.075042 -0.062988
0.061039 -0.059896 -0.775618
0.063204 0.053156 0.032197
0.051184 0.065443 -0.770994
0.024909 0.177851 -0.713886
0.051560 0.173496 -0.047362
0.047683 0.227108 -0.127201
0.049472 0.277580 -0.565694
0.028432 0.262406 -0.208353
0.035702 0.277165 -0.346385
0.105501 -0.278910 -0.598077
0.046682 -0.279512 -0.432261
0.029880 -0.275725 -0.353417
0.043686 -0.271711 -0.272650
0.037338 -0.262089 -0.208296
0.102220 -0.246302 -0.189815
0.140013 -0.247894 -0.102638
0.134836 -0.145357 0.114034
0.100278 -0.032801 0.126484
0.132732 0.120906 0.107654
0.107437 0.165584 0.038618
0.111093 0.226893 -0.041300
0.104634 0.273892 -0.614710
0.035065 0.290942 -0.443675
0.112503 0.285443 -0.503076
0.095910 0.249715 -0.189141
0.137736 0.253104 -0.113764
0.131841 -0.285110 -0.509706
0.260336 -0.266349 -0.572579
0.107238 -0.227985 -0.355304
0.118244 -0.221452 -0.273656
0.210389 -0.282745 -0.048583
0.102118 -0.191006 -0.739791
0.184715 -0.243882 0.038135
0.195955 -0.147298 -0.328215
0.122012 -0.040213 0.156200
0.179990 0.009497 -0.794901
0.125572 0.024102 0.156966
0.125691 0.195121 -0.745013
0.126451 0.214625 -0.354075
0.207234 0.156077 -0.288716
0.120072 0.225019 -0.268280
0.175103 0.231714 0.047112
0.232927 0.276341 -0.577353
0.203075 0.275534 -0.032706
0.261750 -0.292349 -0.020565
0.178876 -0.213560 -0.404027
0.185951 -0.221289 -0.197416
0.199553 -0.204181 -0.714217
0.213857 -0.194787 0.115507
0.194862 -0.106963 -0.778270
0.284179 -0.147302 -0.725149
0.214633 -0.139631 -0.295362
0.261673 -0.161641 -0.336125
0.301787 -0.044421 -0.752956
0.172535 -0.083462 0.163052
0.195744 0.053770 0.167191
0.189899 0.156331 -0.761071
0.300472 0.089683 -0.742003
0.200261 0.144060 -0.335755
0.199734 0.221127 -0.428763
0.246987 0.151768 -0.336884
0.276521 0.167000 -0.289428
0.210221 0.202767 0.102461
0.191493 0.230525 -0.707469
0.180041 0.237899 -0.178271
0.228860 0.269338 -0.504688
0.257300 0.275218 -0.110039
0.286101 0.293248 -0.024840
0.270495 -0.267681 -0.508005
0.258697 -0.274149 -0.112402
0.267498 -0.268896 0.045660
0.292005 -0.216280 -0.661387
0.285589 -0.234223 -0.437883
0.342746 -0.236805 -0.515408
0.290584 -0.232047 -0.204324
0.344618 -0.259225 -0.172844
0.355102 -0.219390 -0.364002
0.352164 -0.219519 -0.272011
0.261010 -0.165438 -0.271017
0.335717 -0.030286 0.175675
0.358534 0.082382 0.174569
0.346608 0.188274 0.118644
0.283502 0.213867 -0.679137
0.291718 0.228139 -0.434253
0.360878 0.215675 -0.340601
0.275520 0.227410 -0.201588
0.363189 0.233856 -0.246743
0.351371 0.224176 -0.594824
0.330964 0.244823 -0.510386
0.341671 0.261557 -0.168446
0.260683 0.268259 0.041857
0.352398 -0.274596 -0.033627
0.335862 -0.227759 -0.598753
0.364318 -0.228363 -0.429919
0.397921 -0.256030 -0.168826
0.449827 -0.231381 -0.055231
0.339070 -0.187816 -0.660525
0.358223 -0.190663 0.107867
0.394022 -0.129941 -0.638515
0.421803 -0.187179 -0.491831
0.437356 -0.157644 0.109579
0.453772 -0.130815 -0.521247
0.366462 0.163568 -0.667421
0.419299 0.120651 -0.618832
0.454054 0.128061 -0.508211
0.409475 0.197909 -0.502733
0.367520 0.228540 -0.429561
0.398533 0.253675 -0.171135
0.362980 0.273160 -0.046400
0.344960 0.267808 0.035285
0.412270 -0.219320 -0.331015
0.435708 -0.213243 0.047565
0.488520 -0.144575 -0.344815
0.479799 -0.150916 0.047697
0.439680 -0.028099 -0.645381
0.505772 -0.071656 -0.427333
0.452511 -0.051317 0.134775
0.403989 0.021321 -0.694734
0.471984 -0.000347 -0.527460
0.449469 0.098584 0.136400
0.516921 0.056677 0.074118
0.515962 0.034246 -0.414182
0.422111 0.218427 -0.362365
0.486778 0.151209 -0.366579
0.490707 0.162099 0.007882
0.445914 0.193061 0.076372
0.425455 0.227265 -0.277502
0.531222 -0.036107 -0.364508
0.524155 -0.038742 0.000680
0.538086 0.053291 -0.309418
3 0 1 7
3 0 2 1
3 3 0 12
3 0 3 2
3 2 3 4
3 21 4 3
3 7 5 29
3 5 7 6
3 30 6 1
3 6 7 1
3 30 1 36
3 8 7 29
3 0 7 8
3 1 9 36
3 11 12 8
3 8 12 0
3 2 9 1
3 10 14 11
3 11 14 12
3 9 15 13
3 13 15 16
3 15 9 2
3 10 17 14
3 14 17 18
3 14 18 12
3 15 19 16
3 20 12 18
3 12 20 3
3 22 15 2
3 4 22 2
3 19 15 22
3 21 3 20
3 4 24 22
3 21 23 4
3 4 23 24
3 21 25 23
3 52 6 31
3 5 28 29
3 5 52 28
3 6 52 5
3 6 30 31
3 33 26 38
3 26 33 27
3 27 33 34
3 27 34 35
3 27 35 28
3 28 35 29
3 30 36 31
3 31 36 32
3 8 29 35
3 32 36 13
3 32 13 37
3 34 33 35
3 35 33 11
3 8 35 11
3 36 9 13
3 33 38 39
3 11 33 10
3 33 39 10
3 40 37 13
3 16 40 13
3 39 41 17
3 10 39 17
3 42 40 16
3 19 42 16
3 63 43 41
3 43 17 41
3 17 43 44
3 17 44 18
3 18 44 45
3 18 45 20
3 42 19 46
3 19 22 47
3 46 19 47
3 44 43 48
3 44 48 45
3 20 45 49
3 20 49 25
3 21 20 25
3 22 24 50
3 22 50 47
3 49 51 25
3 51 23 25
3 23 51 50
3 23 50 24
3 52 31 54
3 26 69 55
3 53 69 27
3 27 69 26
3 53 27 54
3 27 28 54
3 28 52 54
3 54 31 70
3 31 32 70
3 70 32 57
3 56 38 55
3 26 55 38
3 56 58 38
3 57 32 37
3 37 75 57
3 59 38 58
3 38 59 39
3 60 75 37
3 59 61 39
3 40 60 37
3 39 61 41
3 61 62 41
3 42 60 40
3 41 62 63
3 79 60 42
3 62 64 63
3 79 42 46
3 65 63 64
3 66 79 46
3 66 46 47
3 65 86 63
3 63 86 43
3 86 87 43
3 87 48 43
3 87 67 48
3 48 67 45
3 45 67 49
3 49 67 51
3 50 67 83
3 50 83 47
3 83 66 47
3 67 50 51
3 68 55 69
3 71 56 68
3 56 55 68
3 53 72 69
3 72 90 69
3 73 72 53
3 54 73 53
3 74 73 54
3 70 74 54
3 57 74 70
3 58 56 71
3 96 72 73
3 76 74 57
3 57 75 76
3 73 74 96
3 96 74 76
3 76 75 98
3 59 71 99
3 58 71 59
3 61 59 99
3 75 77 98
3 75 60 77
3 78 61 99
3 77 60 79
3 61 78 62
3 105 77 79
3 78 80 62
3 62 80 64
3 105 79 84
3 85 64 80
3 81 107 82
3 83 82 84
3 84 79 66
3 65 64 85
3 88 107 81
3 81 82 83
3 66 83 84
3 112 88 87
3 87 88 81
3 67 87 81
3 83 67 81
3 86 112 87
3 69 89 68
3 89 69 90
3 89 90 92
3 91 93 71
3 91 71 68
3 90 72 92
3 94 95 93
3 95 71 93
3 72 97 92
3 72 96 97
3 71 95 99
3 121 97 96
3 100 121 96
3 96 76 100
3 101 94 122
3 94 101 95
3 95 101 99
3 76 102 100
3 76 98 102
3 103 121 100
3 100 102 103
3 98 77 102
3 99 101 78
3 109 121 103
3 104 109 103
3 103 102 104
3 77 105 102
3 106 101 124
3 101 106 78
3 78 106 80
3 102 84 104
3 102 105 84
3 107 109 104
3 104 84 107
3 106 108 80
3 82 107 84
3 110 85 80
3 109 88 113
3 109 107 88
3 110 111 85
3 85 111 65
3 113 88 112
3 111 114 65
3 86 65 114
3 115 86 114
3 115 113 112
3 115 112 86
3 91 132 116
3 91 68 133
3 91 133 132
3 68 89 134
3 133 68 134
3 89 92 135
3 89 135 134
3 117 93 116
3 116 93 91
3 92 118 135
3 117 119 94
3 93 117 94
3 97 118 92
3 118 97 120
3 121 120 97
3 94 119 122
3 124 101 122
3 109 123 121
3 124 125 106
3 126 123 109
3 106 125 108
3 127 109 113
3 109 127 126
3 128 80 108
3 110 80 128
3 113 129 127
3 110 144 111
3 130 111 144
3 115 130 129
3 115 129 113
3 130 114 111
3 115 114 130
3 148 131 116
3 148 116 132
3 136 134 135
3 131 153 117
3 131 117 116
3 132 133 150
3 133 134 151
3 150 133 151
3 151 134 136
3 137 136 118
3 135 118 136
3 153 119 117
3 120 137 118
3 153 122 119
3 138 120 139
3 138 139 156
3 123 120 121
3 120 123 139
3 157 124 122
3 156 139 158
3 139 123 140
3 139 140 158
3 124 159 125
3 141 123 126
3 123 141 140
3 126 142 141
3 127 142 126
3 108 125 143
3 125 159 143
3 108 143 128
3 145 160 130
3 160 162 130
3 130 162 146
3 129 146 127
3 147 127 146
3 127 147 142
3 143 145 128
3 128 145 110
3 144 110 145
3 130 144 145
3 129 130 146
3 148 149 131
3 136 137 168
3 149 169 131
3 169 153 131
3 167 148 132
3 167 132 150
3 151 136 168
3 152 137 154
3 153 169 171
3 155 167 150
3 150 151 155
3 168 173 151
3 120 154 137
3 170 154 138
3 138 154 120
3 171 122 153
3 155 151 173
3 170 138 176
3 176 138 156
3 171 157 122
3 176 156 177
3 177 156 158
3 157 178 124
3 177 158 140
3 178 159 124
3 181 180 160
3 160 180 161
3 177 140 184
3 185 159 178
3 161 162 160
3 161 186 162
3 163 141 142
3 184 140 163
3 140 141 163
3 164 143 185
3 143 159 185
3 145 187 181
3 160 145 181
3 186 146 162
3 142 147 165
3 142 165 163
3 145 164 187
3 186 147 146
3 188 147 186
3 147 188 165
3 164 145 143
3 149 148 190
3 148 194 190
3 168 191 196
3 137 191 168
3 166 191 152
3 152 191 137
3 166 152 154
3 166 154 192
3 149 193 169
3 194 148 167
3 154 170 192
3 169 172 171
3 172 169 193
3 194 167 174
3 196 200 168
3 200 173 168
3 174 173 200
3 175 171 172
3 174 167 155
3 173 174 155
3 175 157 171
3 175 179 157
3 201 177 202
3 178 157 179
3 180 181 182
3 161 180 182
3 183 161 182
3 202 177 203
3 203 177 184
3 179 204 178
3 185 178 204
3 182 181 205
3 183 207 161
3 207 186 161
3 204 164 185
3 181 187 205
3 163 212 184
3 212 203 184
3 207 188 186
3 188 189 165
3 165 189 212
3 165 212 163
3 195 149 190
3 190 194 195
3 196 191 197
3 191 213 197
3 213 191 166
3 213 166 192
3 193 214 218
3 193 149 214
3 214 149 195
3 195 194 215
3 198 215 194
3 197 199 196
3 213 192 219
3 219 192 170
3 174 198 194
3 198 174 199
3 199 174 200
3 196 199 200
3 218 172 193
3 220 175 172
3 219 170 201
3 201 170 176
3 201 176 177
3 224 204 179
3 205 206 182
3 182 206 183
3 183 206 208
3 183 208 207
3 204 209 164
3 204 224 209
3 205 210 228
3 205 228 206
3 208 211 207
3 231 203 212
3 210 164 209
3 187 164 210
3 210 205 187
3 211 188 207
3 188 211 230
3 189 230 231
3 212 189 231
3 230 189 188
3 216 197 213
3 213 217 216
3 215 232 221
3 215 198 232
3 198 199 232
3 197 216 199
3 199 216 232
3 217 213 233
3 213 219 233
3 214 220 218
3 214 195 220
3 195 221 220
3 215 221 195
3 219 222 233
3 172 218 220
3 220 221 223
3 222 219 238
3 238 219 201
3 239 175 220
3 239 179 175
3 238 201 241
3 241 201 202
3 225 224 239
3 224 179 239
3 241 202 203
3 226 227 225
3 247 241 203
3 224 225 209
3 225 227 209
3 227 210 209
3 227 244 228
3 227 228 210
3 244 206 228
3 244 248 206
3 206 248 208
3 229 211 208
3 229 208 248
3 230 247 231
3 247 203 231
3 211 229 230
3 217 232 216
3 232 234 221
3 232 217 234
3 233 235 217
3 233 222 235
3 234 237 223
3 234 223 221
3 234 217 235
3 223 236 220
3 238 235 222
3 250 235 238
3 239 220 236
3 223 240 236
3 237 243 240
3 223 237 240
3 242 250 238
3 225 239 236
3 236 240 225
3 240 226 225
3 240 243 226
3 238 241 242
3 243 245 226
3 241 246 242
3 226 245 227
3 246 241 247
3 244 227 245
3 245 246 248
3 248 244 245
3 246 229 248
3 230 229 246
3 247 230 246
3 234 249 237
3 234 250 249
3 234 235 250
3 237 249 243
3 249 251 243
3 249 250 251
3 250 242 251
3 245 243 251
3 251 246 245
3 251 242 246
