ply
format ascii 1.0
element vertex 248
property float x
property float y
property float z
element face 500
property list uchar int vertex_indices
end_header
-0.765469 -0.182602 -0.610442
-0.800628 -0.202486 -0.327939
-0.871145 -0.131607 -0.372110
-0.872082 -0.056087 -0.657730
-0.850118 -0.091412 -0.273545
-0.882208 0.023515 -0.377280
-0.849754 0.061565 -0.272563
-0.866687 0.083491 -0.669834
-0.809796 0.167705 -0.622619
-0.787483 0.200904 -0.352228
-0.685674 -0.245591 -0.541630
-0.745334 -0.244516 -0.463455
-0.673660 -0.191049 -0.119668
-0.831054 -0.088241 -0.698692
-0.733477 -0.138616 -0.134449
-0.735790 0.059243 -0.114635
-0.797215 0.060028 -0.704649
-0.783743 0.150171 -0.216975
-0.718829 0.247943 -0.555157
-0.722265 0.244549 -0.422148
-0.690633 -0.224068 -0.310430
-0.469770 -0.080883 -0.699655
-0.685357 -0.035885 -0.040991
-0.624231 0.143671 -0.055927
-0.678979 0.209389 -0.144205
-0.666551 0.223299 -0.282365
-0.670652 -0.205929 -0.441771
-0.601818 -0.229571 -0.116624
-0.575351 -0.204266 -0.511687
-0.433740 -0.192268 -0.116866
-0.607008 -0.110293 -0.339466
-0.623307 -0.068087 -0.022595
-0.587623 0.011745 -0.428193
-0.399876 0.057094 -0.691403
-0.583150 0.087898 -0.322164
-0.644098 0.195288 -0.425136
-0.513162 0.189091 -0.657113
-0.571904 0.207702 -0.502483
-0.565745 0.237592 -0.543815
-0.586651 0.234918 -0.109309
-0.511850 -0.237131 -0.584773
-0.415912 -0.177474 -0.653587
-0.562743 -0.209193 -0.075896
-0.442609 -0.059426 -0.194143
-0.438374 0.020768 0.010756
-0.403888 0.209564 -0.051108
-0.437438 0.210528 -0.126424
-0.379038 -0.209681 -0.504296
-0.442524 -0.068998 -0.451914
-0.372620 0.050117 -0.179643
-0.379222 0.179130 -0.491182
-0.305788 -0.204198 -0.591668
-0.390384 -0.187300 -0.038065
-0.301147 -0.051210 -0.666240
-0.340610 -0.121607 -0.424168
-0.303059 -0.073174 0.048555
-0.314070 0.081466 0.043612
-0.327807 0.012505 -0.406258
-0.302239 0.181540 -0.607767
-0.240961 -0.207848 -0.434466
-0.273725 -0.183089 0.020587
-0.343811 -0.083324 -0.158239
-0.227950 0.182877 0.050728
-0.169601 0.235763 -0.430259
-0.196293 -0.250488 -0.507492
-0.182074 -0.222216 0.001495
-0.266069 -0.229964 -0.075016
-0.050705 -0.199203 -0.150991
-0.228034 -0.070213 -0.364594
-0.184531 0.120853 -0.359100
-0.068879 0.162317 -0.147856
-0.249911 0.236284 -0.071983
-0.144792 0.257424 -0.506413
-0.206541 0.233315 0.006656
-0.065869 -0.161431 -0.319819
-0.195343 -0.141166 0.092529
-0.054225 -0.187506 0.185981
-0.121932 -0.106383 0.210195
-0.074454 -0.151779 0.310905
-0.100159 -0.053413 0.332497
-0.057483 -0.043258 -0.667924
-0.097209 -0.012683 -0.295899
-0.039141 -0.037976 -0.198843
-0.210914 0.017056 0.111908
-0.117604 0.073005 0.278324
-0.087107 0.087502 0.341033
-0.070260 0.115560 -0.645083
-0.140681 0.059687 0.199338
0.094063 -0.293324 -0.411307
-0.031679 -0.218616 -0.600277
-0.008238 -0.233613 -0.122467
-0.039045 -0.122702 0.400921
-0.045228 0.013930 0.424768
-0.032333 0.129994 0.402158
-0.057700 0.180548 0.188765
-0.046986 0.215512 -0.596899
0.021944 0.218110 -0.125915
-0.016821 0.273546 -0.402123
-0.015187 0.209980 -0.290818
0.043016 -0.287842 -0.528859
0.016360 -0.237366 -0.071934
-0.006054 -0.177853 0.088034
0.114777 -0.264097 -0.606123
0.004853 -0.203693 0.344218
0.085023 -0.157750 -0.726753
0.021448 -0.171060 -0.670640
0.033980 -0.200793 -0.213932
-0.023758 -0.036115 -0.235369
0.057280 -0.145393 0.198560
0.013778 -0.027895 -0.736546
0.061187 0.019063 0.147928
-0.037427 0.115197 -0.268006
0.030814 0.172770 -0.184737
0.030092 0.147689 -0.686859
-0.010606 0.180373 0.097118
0.009482 0.179699 0.181051
0.028244 0.201454 0.360415
0.075778 0.276879 -0.529463
0.000594 0.235216 -0.061307
0.067547 -0.226804 0.292219
0.196526 -0.202454 -0.094566
0.033331 -0.172097 0.431182
0.054882 -0.044202 -0.770709
0.105058 -0.173539 0.497659
0.138561 -0.111019 0.556820
0.035922 -0.018644 0.483865
0.200270 -0.006194 -0.018130
0.087794 0.077429 -0.767674
0.018089 0.146121 0.433630
0.147908 0.111377 0.568074
0.109597 0.199281 0.470432
0.144584 0.207079 -0.715601
0.058885 0.213580 0.269873
0.114401 0.243828 -0.187649
0.193787 -0.301613 -0.445972
0.167027 -0.243877 -0.161668
0.153580 -0.248460 0.409086
0.197826 -0.211483 0.537953
0.189942 -0.238422 0.341736
0.105058 -0.008770 0.188359
0.151121 0.142651 0.250835
0.188082 0.210248 -0.103947
0.214408 0.207171 0.576085
0.174745 0.243152 0.387266
0.220417 0.251209 0.500849
0.220120 0.274498 -0.424355
0.241474 -0.244549 -0.643424
0.292634 -0.267202 -0.214480
0.312796 -0.235882 -0.381266
0.357060 -0.276280 0.542903
0.251302 -0.186540 -0.740259
0.226294 -0.037159 0.253375
0.239661 0.016154 0.652146
0.265162 0.102238 -0.778476
0.236485 0.145787 0.631690
0.329445 0.101524 0.295265
0.245224 0.210454 -0.684799
0.235389 0.250015 -0.168650
0.182067 0.270053 -0.636617
0.328147 0.195538 -0.421923
0.311596 -0.269499 0.415765
0.380507 -0.192884 -0.322580
0.330020 -0.238245 -0.128542
0.311401 -0.118877 -0.714188
0.353985 -0.144071 -0.400796
0.324498 -0.164151 -0.070286
0.310739 -0.210756 0.353411
0.319186 -0.103978 0.684647
0.395722 -0.205554 0.667798
0.262816 -0.068349 -0.784076
0.325474 0.139094 -0.056151
0.319223 0.059808 -0.737677
0.371592 0.055014 -0.447128
0.392189 0.161965 -0.335370
0.321176 0.228605 -0.122985
0.314022 0.216315 0.352676
0.360104 0.242027 -0.225298
0.410745 -0.251189 -0.180152
0.455692 -0.190550 0.392080
0.356743 -0.030592 0.293621
0.467133 -0.006436 -0.308784
0.408549 -0.016631 0.007457
0.373216 0.042802 0.719785
0.450292 0.177022 0.376447
0.388483 0.195281 0.685162
0.545437 0.258022 0.658765
0.486680 0.265017 0.473744
0.452137 -0.254015 -0.102736
0.595447 -0.271650 0.535932
0.477450 -0.220707 -0.035097
0.646940 -0.187001 0.198058
0.414098 -0.105122 0.733212
0.566060 -0.208165 0.722212
0.426255 0.016323 0.322400
0.535700 -0.066301 0.362267
0.522153 0.091827 0.362406
0.444410 0.113254 0.016783
0.536011 0.179903 0.735468
0.469712 0.202487 -0.022866
0.634763 0.178618 0.190925
0.579751 0.239069 -0.085948
0.580978 -0.243960 -0.069814
0.567416 -0.266396 0.655682
0.568068 -0.166613 -0.179285
0.511755 -0.040975 0.763017
0.602568 0.017407 0.190676
0.551850 0.182403 -0.191048
0.680436 -0.243197 0.129193
0.582179 -0.209927 0.426691
0.674065 -0.207144 0.671720
0.655078 -0.190924 -0.095068
0.703024 -0.222230 0.015625
0.678038 -0.237920 0.430355
0.659572 -0.148479 0.295763
0.596673 -0.088372 0.350809
0.599157 0.028011 -0.209123
0.680617 -0.041889 -0.126762
0.624682 0.034159 0.272597
0.596529 0.085086 0.338896
0.632186 0.060628 0.766708
0.563551 0.204610 0.409708
0.654428 0.182392 0.725037
0.653594 0.246722 0.412364
0.641402 0.191808 -0.115972
0.705398 0.198007 -0.005151
0.639549 0.244034 0.038971
0.634482 0.279404 0.566230
0.748268 -0.243184 0.382231
0.764551 -0.238932 0.496595
0.635860 -0.155222 0.741487
0.729359 -0.083402 -0.055462
0.703697 -0.004817 0.737201
0.752540 0.039587 0.674646
0.682929 0.223567 0.657066
0.723185 0.244171 0.196572
0.748792 0.244615 0.449909
0.821598 -0.158568 0.115819
0.845098 -0.091823 0.527272
0.848409 0.059017 0.114841
0.834225 0.106428 0.479596
0.818934 0.187820 0.111091
0.800852 -0.215795 0.190580
0.828513 -0.201103 0.431372
0.865514 -0.121052 0.205062
0.884145 -0.054661 0.434003
0.882498 0.053514 0.216124
0.817101 0.198173 0.198345
0.805124 0.214092 0.431080
3 0 2 1
3 0 3 2
3 1 2 4
3 3 0 13
3 16 3 13
3 2 3 5
3 2 5 4
3 4 5 6
3 7 3 16
3 3 7 5
3 8 7 16
3 7 8 5
3 5 8 9
3 17 6 9
3 6 5 9
3 11 10 0
3 1 11 0
3 11 1 20
3 1 12 20
3 12 1 14
3 21 13 0
3 1 4 14
3 15 14 4
3 6 15 4
3 17 15 6
3 9 8 18
3 19 9 18
3 10 11 26
3 26 11 20
3 12 14 22
3 12 22 31
3 21 16 13
3 14 15 22
3 21 33 16
3 31 22 23
3 22 15 23
3 15 17 24
3 15 24 23
3 8 36 18
3 19 35 25
3 9 24 17
3 38 35 19
3 25 9 19
3 9 25 24
3 19 18 38
3 26 28 10
3 10 28 40
3 29 20 27
3 20 12 27
3 27 12 42
3 30 26 20
3 20 29 30
3 12 31 42
3 32 28 26
3 26 30 32
3 44 31 23
3 32 34 35
3 36 8 16
3 37 32 35
3 34 25 35
3 24 39 23
3 37 35 38
3 24 25 39
3 36 38 18
3 10 40 0
3 40 41 0
3 47 40 28
3 48 28 32
3 34 32 30
3 30 43 34
3 33 36 16
3 50 32 37
3 34 46 25
3 39 46 45
3 23 39 45
3 50 37 38
3 46 39 25
3 27 42 29
3 29 42 52
3 31 52 42
3 41 21 0
3 30 29 43
3 47 28 48
3 52 31 44
3 43 49 34
3 48 32 50
3 44 23 45
3 46 34 49
3 38 36 58
3 58 50 38
3 40 51 41
3 40 47 51
3 21 41 53
3 41 51 53
3 29 61 43
3 48 54 47
3 44 55 52
3 33 21 53
3 54 48 57
3 61 49 43
3 56 55 44
3 50 57 48
3 56 44 45
3 33 58 36
3 51 47 64
3 64 47 59
3 66 52 65
3 65 52 60
3 47 54 59
3 29 66 67
3 52 66 29
3 67 61 29
3 55 60 52
3 68 54 57
3 68 57 69
3 53 58 33
3 50 69 57
3 45 62 56
3 50 63 69
3 70 46 49
3 71 45 46
3 58 72 50
3 50 72 63
3 71 73 45
3 45 73 62
3 60 75 65
3 68 59 54
3 75 60 55
3 80 53 51
3 75 55 83
3 82 49 61
3 83 55 56
3 82 70 49
3 86 58 53
3 83 56 62
3 70 71 46
3 89 51 64
3 88 64 59
3 59 74 88
3 90 66 65
3 68 74 59
3 65 75 76
3 74 68 81
3 77 76 75
3 82 61 67
3 79 78 77
3 86 53 80
3 77 83 87
3 75 83 77
3 87 79 77
3 84 79 87
3 79 84 85
3 69 81 68
3 62 87 83
3 95 58 86
3 96 71 70
3 63 72 97
3 62 73 94
3 88 99 64
3 99 89 64
3 100 90 65
3 101 100 65
3 66 90 67
3 101 65 76
3 76 78 103
3 103 78 91
3 89 80 51
3 107 74 81
3 76 77 78
3 78 79 91
3 92 91 79
3 85 92 79
3 107 81 111
3 93 92 85
3 111 81 69
3 84 87 94
3 85 84 94
3 62 94 87
3 93 85 116
3 98 69 63
3 98 111 69
3 94 116 85
3 95 72 58
3 97 98 63
3 96 118 71
3 118 73 71
3 73 118 114
3 114 94 73
3 102 89 99
3 74 106 88
3 76 103 119
3 102 105 89
3 90 106 67
3 100 101 120
3 91 121 103
3 89 105 80
3 107 106 74
3 76 108 101
3 76 119 108
3 106 107 82
3 67 106 82
3 91 125 121
3 109 104 122
3 104 109 105
3 105 109 80
3 108 110 101
3 125 91 92
3 127 109 122
3 112 82 107
3 111 112 107
3 82 112 70
3 125 92 128
3 113 109 127
3 109 113 80
3 80 113 86
3 114 126 110
3 128 92 93
3 111 98 112
3 110 115 114
3 86 113 95
3 115 94 114
3 128 93 116
3 113 117 95
3 112 96 70
3 94 115 132
3 95 117 72
3 132 116 94
3 117 97 72
3 102 99 88
3 135 88 106
3 90 135 106
3 135 90 100
3 119 103 136
3 102 104 105
3 135 100 120
3 121 136 103
3 136 121 123
3 121 125 123
3 139 110 108
3 101 110 126
3 123 125 124
3 124 125 129
3 139 140 110
3 140 115 110
3 125 128 130
3 125 130 129
3 131 113 127
3 133 141 118
3 141 114 118
3 140 132 115
3 130 128 116
3 117 113 131
3 112 98 133
3 112 133 96
3 118 96 133
3 132 143 116
3 130 116 143
3 97 133 98
3 97 117 133
3 88 134 102
3 146 102 134
3 134 88 147
3 88 135 147
3 146 150 102
3 150 104 102
3 119 136 138
3 108 119 138
3 136 123 137
3 137 123 124
3 126 120 101
3 108 138 151
3 108 151 139
3 152 124 129
3 151 140 139
3 152 129 154
3 114 141 126
3 153 131 127
3 142 129 130
3 142 154 129
3 133 157 141
3 140 143 132
3 142 130 144
3 156 158 131
3 143 144 130
3 131 158 117
3 145 117 158
3 145 157 133
3 145 133 117
3 136 149 160
3 146 134 148
3 135 162 147
3 136 160 138
3 137 149 136
3 120 162 135
3 124 167 137
3 150 169 104
3 120 165 162
3 169 122 104
3 165 120 126
3 151 138 166
3 167 124 152
3 169 127 122
3 169 153 127
3 155 140 151
3 170 126 141
3 174 170 141
3 155 175 140
3 153 156 131
3 174 141 157
3 175 143 140
3 158 156 145
3 145 156 159
3 176 145 159
3 176 157 145
3 148 134 147
3 166 138 160
3 149 137 168
3 150 146 163
3 146 148 163
3 148 164 163
3 148 161 164
3 137 167 168
3 169 150 163
3 179 151 166
3 126 181 165
3 163 171 169
3 171 153 169
3 167 152 182
3 170 181 126
3 179 155 151
3 154 182 152
3 172 159 171
3 172 173 159
3 156 153 171
3 171 159 156
3 182 154 184
3 173 176 159
3 142 184 154
3 176 174 157
3 185 142 144
3 142 185 184
3 175 186 143
3 143 186 144
3 185 144 186
3 160 188 178
3 160 149 188
3 148 147 177
3 162 187 177
3 147 162 177
3 162 189 187
3 166 160 178
3 148 177 161
3 189 162 165
3 189 165 181
3 191 168 167
3 178 179 166
3 161 180 164
3 193 179 178
3 163 172 171
3 163 164 172
3 164 180 172
3 191 167 182
3 172 180 173
3 196 181 170
3 179 193 155
3 155 193 183
3 196 170 198
3 170 174 198
3 175 155 183
3 200 174 176
3 200 198 174
3 203 161 177
3 168 191 192
3 181 190 189
3 192 191 204
3 161 203 180
3 190 181 205
3 193 178 194
3 191 182 204
3 195 193 194
3 204 182 197
3 183 193 195
3 180 206 173
3 184 197 182
3 198 199 196
3 206 176 173
3 176 206 200
3 175 183 186
3 184 185 197
3 202 188 149
3 177 201 203
3 177 187 201
3 187 189 201
3 201 189 207
3 208 178 188
3 202 149 168
3 168 192 202
3 189 190 207
3 208 194 178
3 215 180 203
3 208 214 194
3 214 218 194
3 218 195 194
3 181 196 205
3 219 204 197
3 215 206 180
3 196 199 205
3 218 220 195
3 219 197 221
3 220 183 195
3 198 225 199
3 198 200 225
3 183 220 186
3 185 221 197
3 186 226 185
3 208 188 212
3 209 188 202
3 201 210 203
3 201 211 210
3 201 207 211
3 202 192 209
3 209 192 229
3 213 214 212
3 212 214 208
3 216 203 210
3 215 203 216
3 229 192 204
3 190 205 213
3 213 205 217
3 213 217 214
3 214 217 218
3 229 204 219
3 217 205 199
3 217 199 218
3 215 223 206
3 222 218 199
3 218 222 220
3 221 185 233
3 223 200 206
3 223 224 200
3 224 225 200
3 186 220 222
3 226 233 185
3 226 186 222
3 228 212 188
3 207 190 227
3 227 212 228
3 230 210 211
3 211 236 230
3 190 213 227
3 213 212 227
3 228 188 209
3 237 228 209
3 229 231 209
3 210 230 216
3 209 231 232
3 229 219 231
3 230 224 216
3 231 221 232
3 231 219 221
3 223 215 216
3 216 224 223
3 232 221 233
3 222 199 234
3 225 234 199
3 225 224 234
3 222 234 235
3 233 226 235
3 222 235 226
3 211 207 241
3 207 227 241
3 241 227 242
3 242 227 228
3 211 241 236
3 236 238 230
3 209 232 237
3 224 230 238
3 239 232 233
3 224 238 240
3 240 246 224
3 247 239 235
3 239 233 235
3 246 234 224
3 246 247 235
3 234 246 235
3 241 243 236
3 241 242 243
3 228 237 242
3 242 244 243
3 242 237 244
3 236 243 238
3 243 245 238
3 243 244 245
3 237 239 244
3 237 232 239
3 244 239 245
3 245 246 238
3 245 239 246
3 239 247 246
3 238 246 240
