ply
format ascii 1.0
element vertex 252
property float x
property float y
property float z
element face 500
property list uchar int vertex_indices
end_header
-0.496487 -0.029632 -0.812207
-0.451949 -0.142914 -0.817118
-0.410383 -0.162789 -0.895594
-0.462316 -0.100380 -0.722886
-0.404037 -0.140185 -0.603049
-0.479481 -0.014365 -0.887062
-0.426546 -0.044981 -0.584476
-0.481672 0.009361 -0.728836
-0.485609 0.074885 -0.829191
-0.428008 0.043821 -0.585866
-0.464779 0.082587 -0.904647
-0.457125 0.109764 -0.722165
-0.408125 0.134999 -0.605073
-0.431598 0.166025 -0.881162
-0.416854 0.194778 -0.817211
-0.287929 -0.283752 -0.794994
-0.384218 -0.209968 -0.693197
-0.322286 -0.216432 -0.569728
-0.335240 -0.170083 -0.984202
-0.289468 -0.126677 -0.424075
-0.355668 -0.053028 -1.032732
-0.346682 -0.066778 0.436350
-0.346576 -0.040441 0.662528
-0.353488 0.027437 0.414681
-0.336428 0.052105 0.663088
-0.294790 0.116007 -0.425867
-0.356100 0.158053 -0.978393
-0.379532 0.215785 -0.694089
-0.320921 0.220735 -0.568515
-0.351618 0.234988 -0.896507
-0.286940 0.287580 -0.793497
-0.289010 -0.251443 -0.919609
-0.273913 -0.290556 -0.664173
-0.284152 -0.213397 -0.978750
-0.205372 -0.224983 -0.413109
-0.265738 -0.225490 0.598786
-0.274318 -0.189493 0.444112
-0.324785 -0.129366 0.650049
-0.250121 -0.189327 0.658574
-0.276747 -0.126925 -1.036193
-0.282883 -0.068697 0.334544
-0.307183 -0.008733 -0.411125
-0.361710 0.035986 -1.033688
-0.293306 0.090772 0.343027
-0.338137 0.113969 0.446325
-0.305338 0.151721 0.645814
-0.310249 0.189187 0.574717
-0.275918 0.192137 0.434205
-0.276726 0.250369 -0.933374
-0.265971 0.221012 0.599050
-0.251421 0.292218 -0.642214
-0.121800 -0.303549 -0.486346
-0.206314 -0.258561 0.504302
-0.185684 -0.261783 0.577601
-0.181110 -0.197193 -0.339763
-0.181509 -0.205546 0.382325
-0.288665 -0.097062 0.699094
-0.250389 -0.082820 -0.345297
-0.258400 -0.022812 -1.071886
-0.213634 -0.032875 -0.281847
-0.190891 -0.113264 0.302562
-0.195867 0.034744 0.291346
-0.287198 -0.000091 0.711981
-0.258284 0.043550 -0.351229
-0.259890 0.129490 -1.039559
-0.180728 0.129690 -0.277479
-0.263196 0.089242 0.704040
-0.231730 0.149131 -0.354443
-0.186215 0.190554 0.370350
-0.196799 0.211207 -0.375176
-0.143466 0.291458 -0.471878
-0.202333 0.259864 0.505924
-0.178632 0.262791 0.581098
-0.175591 -0.297948 -0.784160
-0.187608 -0.312553 -0.667959
-0.212972 -0.291851 -0.876614
-0.067981 -0.271392 -0.653345
-0.187163 -0.242951 -0.961041
-0.079695 -0.292897 -0.388592
-0.160562 -0.127910 -0.234326
-0.068955 -0.116587 -1.027979
-0.108500 -0.001278 -0.125833
-0.083999 0.069540 -1.073694
-0.092686 0.157731 -1.027869
-0.102262 0.152170 -0.174914
-0.187753 0.202205 0.655189
-0.190589 0.237973 -0.968571
-0.053064 0.227572 -0.191412
-0.204641 0.292927 -0.832310
-0.183827 0.300885 -0.698572
-0.130229 -0.259954 -0.909833
-0.027823 -0.210424 -0.743725
-0.051385 -0.302139 -0.513919
-0.098113 -0.221636 -0.970212
-0.039360 -0.166975 -0.944383
-0.037278 -0.216061 -0.143219
-0.127285 -0.163188 0.339732
-0.028529 -0.177780 -0.056248
-0.076531 -0.137574 -0.107044
-0.057488 -0.082037 -0.038514
-0.136643 -0.074493 0.297509
-0.040640 -0.087514 0.350430
0.349056 -0.103168 0.696090
-0.039620 -0.026414 -1.057774
-0.112077 0.021253 0.302206
-0.059145 0.037494 -0.035683
-0.023418 0.058038 0.345437
-0.069367 0.144458 -0.113442
-0.022242 0.174079 -0.056092
-0.128006 0.130048 0.327702
0.341555 0.122860 0.697910
-0.112214 0.231188 -0.924408
-0.041794 0.140199 -0.958524
-0.031453 0.221113 -0.720947
-0.128091 0.277274 -0.767381
-0.031483 0.302262 -0.334595
-0.083655 0.268504 0.492668
-0.064748 0.287435 -0.541078
0.023939 -0.296523 -0.396502
0.029839 -0.296642 -0.250041
0.002632 -0.259926 0.477126
0.070195 -0.201376 -0.559761
0.087623 -0.293436 -0.135686
-0.038076 -0.212757 0.413788
0.055848 -0.242089 -0.021389
0.172641 -0.286281 0.555616
0.025263 -0.179349 0.045271
0.055486 -0.158490 0.120201
0.340928 -0.189992 0.655775
0.035078 -0.118831 -0.744061
-0.009151 -0.045603 -0.992146
-0.014783 -0.037993 0.054773
0.037685 -0.017881 -0.770632
0.015935 -0.031591 0.116606
0.051237 0.096257 -0.711694
0.014439 0.075574 0.096260
-0.040345 0.082299 -1.049955
-0.011759 0.095984 0.039413
-0.029677 0.197101 0.404947
0.035348 0.185410 0.048169
0.062660 0.168379 0.115158
0.352220 0.200965 0.641743
0.060376 0.221677 -0.585456
0.074009 0.286763 -0.113068
0.064224 0.301099 -0.195468
-0.013328 0.307477 -0.389973
0.139545 -0.300051 -0.210317
0.158153 -0.170395 -0.463412
0.097228 -0.223407 0.104664
0.045443 -0.199109 0.415360
0.112030 -0.170393 0.349455
0.119954 -0.191629 0.196231
0.121828 -0.145414 0.270360
0.131756 -0.063541 -0.585042
0.067745 -0.008494 0.190180
0.090927 0.002406 0.273276
0.046275 -0.006626 0.341447
0.147232 0.083962 -0.572051
0.113330 0.165838 0.200948
0.114667 0.146908 0.286621
0.048616 0.132806 0.361864
0.104196 0.170937 -0.590222
0.053637 0.207671 0.411881
0.141504 0.231287 0.382616
0.103319 0.232837 -0.465699
0.108790 0.242446 0.081915
0.111241 0.272206 0.490628
0.161453 0.292705 0.556509
0.118737 0.280974 -0.277247
0.136691 0.301255 -0.160702
0.180145 -0.253643 -0.301974
0.183038 -0.293274 -0.006793
0.180240 -0.291409 0.485244
0.170687 -0.238125 0.304109
0.110144 -0.241850 0.422811
0.184168 -0.263784 0.144458
0.181663 -0.035486 -0.512418
0.170307 0.125969 -0.497376
0.354732 0.042757 0.708953
0.182574 0.202957 -0.375692
0.177149 0.248685 0.213534
0.197157 0.303651 0.015958
0.280582 -0.242470 -0.202298
0.274757 -0.288010 -0.068237
0.273802 -0.296241 0.116250
0.292961 -0.314077 0.424114
0.282646 -0.136412 -0.303233
0.208746 -0.104828 -0.440489
0.225651 -0.001259 -0.423752
0.279387 0.032357 -0.331799
0.220630 0.116753 -0.394737
0.267113 0.176980 -0.280239
0.264011 0.241793 -0.211904
0.217618 0.306605 0.512600
0.326749 0.237342 -0.131291
0.285688 0.301154 0.123507
0.269417 0.308754 0.420866
0.262670 -0.310839 0.513482
0.341439 -0.238348 -0.117411
0.344773 -0.275245 0.064675
0.343028 -0.294462 0.522988
0.336392 -0.017683 -0.284147
0.340711 0.049137 -0.270612
0.337162 0.207898 -0.188659
0.369415 0.245254 0.065638
0.278303 0.310072 0.528456
0.271557 0.298775 0.000157
0.357822 0.294718 0.233130
0.362544 -0.293862 0.245556
0.353093 -0.313756 0.439821
0.488174 -0.246308 0.457776
0.437656 -0.227730 0.205942
0.357201 -0.180913 -0.204034
0.413649 -0.199475 0.049201
0.481025 -0.199920 0.599922
0.431165 -0.132612 0.668204
0.416770 -0.132035 -0.163293
0.449804 -0.111744 0.003500
0.395118 0.119006 -0.163962
0.455106 0.108363 0.040128
0.424964 0.105774 0.681244
0.502722 0.189854 0.586617
0.433736 0.231439 0.207315
0.367474 0.294778 0.493566
0.465296 0.261897 0.401848
0.536742 -0.172262 0.353960
0.488887 -0.135589 0.182923
0.432839 -0.034923 -0.230241
0.452432 -0.029292 -0.212137
0.469385 0.016794 0.023750
0.420454 0.003333 0.694418
0.479489 0.099664 0.125237
0.522997 0.185470 0.337876
0.506204 0.245172 0.492027
0.575345 -0.172112 0.460541
0.560150 -0.206261 0.523645
0.523225 -0.126054 0.260894
0.483955 -0.073786 0.117038
0.585082 -0.045896 0.349578
0.517593 -0.128807 0.626881
0.539063 -0.011686 0.237687
0.519150 0.054726 0.641152
0.582565 0.054033 0.345178
0.516865 0.123426 0.234403
0.567570 0.170969 0.458823
0.575004 -0.143958 0.557270
0.606721 -0.011778 0.422773
0.603082 0.021815 0.564917
0.579658 -0.032026 0.608538
0.581766 0.057689 0.609101
0.573171 0.148242 0.566493
0.561564 0.202931 0.524251
3 5 2 20
3 2 5 1
3 1 5 0
3 1 0 3
3 4 3 6
3 0 7 3
3 3 7 6
3 7 9 6
3 8 0 5
3 8 5 10
3 0 8 7
3 7 8 11
3 7 11 9
3 9 11 12
3 10 13 8
3 14 8 13
3 8 14 11
3 31 2 15
3 2 1 15
3 15 1 16
3 18 2 31
3 16 4 17
3 3 16 1
3 16 3 4
3 20 2 18
3 6 19 4
3 21 22 37
3 5 20 42
3 21 23 22
3 22 23 24
3 10 5 42
3 26 10 42
3 12 25 9
3 10 26 13
3 14 27 11
3 11 27 12
3 12 27 28
3 29 13 26
3 14 13 29
3 30 14 29
3 27 14 30
3 15 16 32
3 16 17 32
3 18 33 39
3 31 33 18
3 34 17 19
3 35 37 38
3 17 4 19
3 35 36 37
3 38 37 56
3 40 21 36
3 36 21 37
3 20 39 58
3 18 39 20
3 6 41 19
3 22 56 37
3 56 22 62
3 42 20 58
3 9 41 6
3 57 41 63
3 40 43 23
3 21 40 23
3 62 22 24
3 64 42 58
3 62 24 66
3 25 41 9
3 41 25 63
3 23 43 44
3 24 23 44
3 45 24 44
3 45 66 24
3 42 64 26
3 44 46 45
3 25 12 28
3 47 44 43
3 44 47 46
3 48 26 64
3 26 48 29
3 46 47 49
3 45 46 49
3 28 27 50
3 48 30 29
3 50 27 30
3 15 73 75
3 32 74 15
3 74 73 15
3 32 51 74
3 31 75 77
3 75 31 15
3 17 51 32
3 51 17 34
3 77 33 31
3 55 36 52
3 52 36 35
3 53 52 35
3 35 38 53
3 77 39 33
3 34 19 54
3 54 19 57
3 54 57 79
3 40 55 60
3 36 55 40
3 39 80 58
3 79 57 59
3 41 57 19
3 60 61 40
3 57 63 59
3 40 61 43
3 82 64 58
3 59 63 65
3 82 83 64
3 25 67 63
3 63 67 65
3 43 61 68
3 43 68 47
3 85 66 45
3 83 86 64
3 86 48 64
3 69 25 28
3 67 25 69
3 67 69 65
3 45 49 85
3 28 50 70
3 28 70 69
3 68 71 47
3 49 47 71
3 72 49 71
3 72 85 49
3 88 48 86
3 30 48 88
3 30 89 50
3 30 88 89
3 76 73 74
3 75 90 77
3 75 73 90
3 90 73 91
3 91 73 76
3 51 34 78
3 90 93 77
3 34 54 78
3 93 80 77
3 80 39 77
3 55 96 60
3 96 100 60
3 103 58 80
3 81 79 59
3 100 104 61
3 60 100 61
3 103 82 58
3 65 81 59
3 84 81 65
3 61 104 109
3 109 68 61
3 110 66 85
3 65 69 87
3 65 87 84
3 111 86 83
3 111 88 86
3 111 114 88
3 88 114 89
3 115 69 70
3 116 71 68
3 116 72 71
3 117 50 89
3 50 117 70
3 74 92 76
3 74 51 92
3 78 118 51
3 118 92 51
3 52 120 55
3 120 52 53
3 90 94 93
3 90 91 94
3 120 123 55
3 125 53 38
3 94 80 93
3 79 95 54
3 96 55 123
3 79 98 95
3 95 98 97
3 97 98 99
3 100 96 101
3 96 123 101
3 128 38 56
3 81 98 79
3 98 81 99
3 104 100 101
3 99 81 105
3 99 105 131
3 106 104 101
3 131 105 137
3 136 83 82
3 84 107 81
3 81 107 105
3 105 107 108
3 105 108 137
3 109 104 106
3 106 138 109
3 136 112 83
3 111 83 112
3 107 84 87
3 109 138 68
3 112 113 111
3 113 114 111
3 68 138 116
3 89 114 113
3 113 117 89
3 69 115 87
3 115 70 145
3 70 117 145
3 119 118 78
3 92 121 76
3 119 78 54
3 120 53 125
3 119 54 95
3 119 95 122
3 122 95 124
3 149 123 120
3 91 76 121
3 97 124 95
3 124 97 126
3 128 125 38
3 91 129 94
3 91 121 129
3 99 126 97
3 149 101 123
3 94 130 80
3 94 129 130
3 131 126 99
3 126 131 127
3 127 131 133
3 127 133 154
3 149 156 101
3 80 130 103
3 129 132 130
3 133 131 135
3 133 135 154
3 156 106 101
3 136 82 103
3 103 130 136
3 131 137 135
3 130 112 136
3 130 132 112
3 132 134 112
3 154 135 140
3 156 160 106
3 160 138 106
3 134 113 112
3 134 161 113
3 139 137 108
3 137 139 135
3 135 139 140
3 160 162 138
3 113 161 142
3 108 107 87
3 143 108 87
3 108 143 139
3 142 117 113
3 143 87 144
3 138 162 166
3 116 138 166
3 87 115 144
3 166 167 116
3 116 167 72
3 167 85 72
3 141 85 167
3 118 121 92
3 147 121 118
3 118 170 147
3 118 119 146
3 170 118 146
3 122 146 119
3 120 172 174
3 172 120 125
3 174 149 120
3 148 124 126
3 127 148 126
3 127 151 148
3 150 149 174
3 129 121 153
3 132 129 153
3 154 151 127
3 151 154 152
3 152 154 155
3 152 155 150
3 150 155 156
3 149 150 156
3 102 56 62
3 134 132 153
3 157 134 153
3 178 62 66
3 140 158 154
3 154 158 155
3 155 158 159
3 155 159 156
3 156 159 160
3 178 66 110
3 134 157 161
3 163 160 159
3 160 163 162
3 142 161 164
3 139 143 165
3 140 139 165
3 165 158 140
3 142 164 117
3 166 162 163
3 164 145 117
3 164 168 145
3 169 144 168
3 143 144 169
3 115 145 168
3 168 144 115
3 171 146 122
3 146 182 170
3 171 122 124
3 148 171 124
3 171 148 175
3 173 174 172
3 150 174 173
3 151 175 148
3 175 151 173
3 152 173 151
3 173 152 150
3 102 128 56
3 121 147 153
3 147 176 153
3 147 187 176
3 153 176 157
3 176 177 157
3 157 177 161
3 190 179 177
3 180 159 158
3 159 180 163
3 164 161 177
3 177 179 164
3 164 179 168
3 165 181 180
3 165 180 158
3 168 192 169
3 165 143 181
3 163 193 166
3 166 193 167
3 143 169 181
3 146 171 183
3 183 171 184
3 184 173 185
3 172 197 185
3 182 146 183
3 184 171 175
3 184 175 173
3 172 185 173
3 197 172 125
3 170 186 147
3 170 182 186
3 147 186 187
3 176 187 188
3 187 186 188
3 186 189 188
3 178 102 62
3 177 176 188
3 190 177 188
3 188 189 190
3 189 191 190
3 190 191 179
3 110 85 141
3 191 168 179
3 191 192 168
3 192 194 169
3 181 206 195
3 180 181 195
3 180 195 196
3 163 180 196
3 193 163 196
3 167 193 205
3 205 141 167
3 206 169 194
3 206 181 169
3 196 205 193
3 184 185 208
3 208 185 209
3 209 185 200
3 185 197 200
3 183 198 182
3 183 199 198
3 183 184 199
3 184 208 199
3 125 200 197
3 182 198 212
3 200 125 128
3 212 186 182
3 189 186 201
3 202 189 201
3 191 189 202
3 191 202 218
3 218 203 191
3 203 192 191
3 203 194 192
3 194 204 206
3 204 195 206
3 207 195 204
3 141 205 223
3 207 196 195
3 207 223 196
3 196 223 205
3 210 208 209
3 200 210 209
3 211 199 208
3 211 208 210
3 213 198 199
3 211 213 199
3 200 128 214
3 214 128 215
3 212 198 216
3 198 213 216
3 213 217 216
3 128 102 215
3 216 227 212
3 227 186 212
3 227 201 186
3 215 102 230
3 227 202 201
3 230 102 178
3 227 218 202
3 230 178 220
3 220 178 110
3 218 219 204
3 141 221 220
3 220 110 141
3 203 218 194
3 218 204 194
3 221 141 223
3 207 204 222
3 207 222 224
3 223 207 224
3 234 225 210
3 210 225 211
3 200 214 210
3 211 226 213
3 226 211 236
3 211 225 236
3 239 214 215
3 217 213 237
3 213 226 237
3 228 227 216
3 216 217 228
3 217 229 228
3 217 237 229
3 241 239 215
3 230 241 215
3 237 231 229
3 218 227 228
3 228 229 218
3 229 219 218
3 229 231 219
3 220 241 230
3 204 219 231
3 243 222 231
3 231 222 204
3 243 232 222
3 241 220 221
3 244 224 232
3 232 224 222
3 224 244 233
3 233 221 223
3 223 224 233
3 235 234 210
3 235 210 214
3 235 214 245
3 225 238 236
3 225 234 238
3 245 214 239
3 226 240 237
3 226 236 240
3 245 239 248
3 236 238 240
3 248 239 241
3 237 240 231
3 238 242 240
3 248 241 249
3 240 242 243
3 240 243 231
3 243 242 232
3 242 244 232
3 249 241 250
3 250 241 221
3 244 251 233
3 221 233 251
3 221 251 250
3 235 245 234
3 238 234 246
3 234 245 246
3 245 247 246
3 245 248 247
3 242 238 246
3 248 249 247
3 244 242 246
3 246 247 244
3 247 250 244
3 247 249 250
3 244 250 251
