ply
format ascii 1.0
element vertex 250
property float x
property float y
property float z
element face 500
property list uchar int vertex_indices
end_header
-0.659544 -0.171512 -0.912312
-0.693284 -0.073726 -0.894519
-0.649150 -0.122109 -0.736236
-0.632418 -0.101039 -0.941623
-0.677674 0.049509 -0.762719
-0.647276 0.082908 -0.929543
-0.703904 0.078954 -0.895213
-0.652083 0.183055 -0.853099
-0.578356 0.171928 -0.691638
-0.549592 -0.227313 -0.889401
-0.594334 -0.225753 -0.824111
-0.570794 -0.172763 -0.677810
-0.529787 -0.182011 -0.036881
-0.590685 -0.164247 0.320937
-0.587064 -0.076996 -0.045896
-0.653006 -0.065390 0.337896
-0.591509 -0.066981 0.440326
-0.601643 0.024657 -0.648988
-0.609387 0.039566 -0.019422
-0.640074 0.067717 0.339143
-0.581427 0.122762 0.419563
-0.555467 0.175581 0.007975
-0.569222 0.191644 0.331696
-0.122198 0.003737 -0.985883
-0.381547 -0.055610 0.692435
-0.389034 0.053188 0.681296
-0.559391 0.230036 -0.877176
-0.569586 0.250748 -0.827040
-0.451582 -0.282236 0.125409
-0.396570 -0.298399 0.386170
-0.377208 -0.268938 -0.714775
-0.384328 -0.275490 -0.055857
-0.434263 -0.244382 0.491671
-0.500012 -0.171995 -0.640573
-0.258252 -0.261363 -0.184507
-0.523516 -0.026201 -0.605990
-0.420144 -0.041399 -0.577934
-0.500817 0.150358 -0.622872
-0.422961 0.098960 -0.578879
-0.462914 0.173904 -0.176579
-0.339822 0.199414 0.655246
-0.500884 0.236666 0.417812
-0.330104 0.281808 -0.718401
-0.412661 0.242212 -0.124608
-0.419618 0.277704 0.417712
-0.401167 0.271921 0.094205
-0.360870 -0.287989 0.025199
-0.117112 -0.126174 -0.956046
-0.342494 -0.160479 -0.604610
-0.208117 -0.165631 -0.418349
-0.325872 -0.032062 0.756168
-0.333235 0.133874 0.726226
-0.134596 0.131608 -0.961573
-0.336700 0.188440 -0.602992
-0.303908 0.300110 -0.799468
-0.307207 0.275667 -0.096236
-0.326521 -0.302738 0.274583
-0.333511 -0.300470 -0.799839
-0.258976 -0.229168 0.051063
-0.230069 -0.243023 0.240365
-0.214741 -0.296725 0.647444
-0.315594 -0.206302 0.678279
-0.238722 -0.216294 0.724264
-0.319738 -0.042356 -0.549496
-0.237410 -0.084035 -0.507143
-0.233432 0.119887 -0.480756
-0.311975 0.077413 -0.549438
-0.099251 0.219715 -0.889902
-0.170608 0.204109 -0.431597
-0.189925 0.290227 -0.198807
-0.269527 0.226600 0.073312
-0.213823 0.255312 0.263686
-0.317912 0.287608 0.181363
-0.241629 0.309765 0.409903
-0.285706 -0.265327 -0.075159
-0.144075 -0.263236 -0.852068
-0.134185 -0.214377 -0.437639
-0.176900 -0.190901 -0.030208
-0.197298 -0.139282 0.119552
-0.248363 -0.106397 0.778423
-0.186929 -0.106782 0.038244
-0.268685 -0.039162 0.790370
-0.248019 0.028157 0.789015
-0.259395 0.194402 0.745233
-0.186581 0.198909 -0.565749
-0.194441 0.121401 0.031507
-0.198978 0.146147 0.119608
-0.245464 0.238735 -0.033945
-0.134157 0.279781 -0.646546
-0.183222 0.291797 0.608145
-0.101699 -0.307047 -0.740366
-0.140429 -0.319467 0.595143
-0.129752 -0.269487 -0.619053
-0.121045 -0.298808 -0.197830
-0.160298 -0.263327 -0.128350
-0.130746 -0.258214 0.408440
-0.122249 -0.161441 0.304581
-0.111187 -0.220797 -0.490074
-0.130839 -0.036821 0.205400
-0.174590 0.004125 0.109665
-0.129551 0.042610 0.205957
-0.114854 0.222630 -0.517150
-0.099628 0.167227 0.328820
-0.170129 0.243131 0.740041
-0.182109 0.269409 -0.115602
-0.079078 0.274283 0.473042
-0.068414 0.296915 -0.755503
0.033643 -0.341814 -0.383782
-0.000178 -0.194193 -0.865312
0.034535 -0.336616 -0.523069
-0.027841 -0.305614 0.655581
-0.109906 -0.038230 -0.003616
-0.043219 -0.008968 0.341661
0.520122 0.064238 0.795095
-0.104466 0.176747 -0.041500
0.053166 0.209451 -0.823660
-0.078624 0.274244 -0.594319
-0.031668 0.299554 0.639681
0.029360 0.327124 -0.412400
-0.083836 0.298259 -0.177200
0.017364 -0.338006 -0.637480
0.057099 -0.277464 0.554856
0.085133 -0.159019 -0.091707
0.003461 -0.167947 0.431977
0.107809 -0.224948 0.509811
0.524366 -0.187199 0.719306
-0.042512 -0.063573 -0.965934
0.052170 -0.023322 -0.916885
-0.030430 0.090254 -0.947293
0.065480 0.087738 -0.899196
0.092697 0.053853 -0.033147
0.011599 0.148053 0.429074
0.479778 0.140259 0.782573
0.017857 0.252369 -0.127643
0.115123 0.245675 0.518134
0.044091 0.312815 -0.655099
0.053818 0.331316 -0.548370
0.103164 0.333323 -0.301247
0.039086 0.292281 0.561677
0.107257 -0.367968 -0.426448
0.048984 -0.318954 -0.244125
0.044002 -0.323103 -0.675963
0.155179 -0.291699 -0.215823
0.138727 -0.084275 0.450233
0.033928 -0.019181 0.405359
0.128675 -0.071951 -0.855720
0.131441 0.080405 0.452588
0.119673 0.154135 -0.063027
0.143756 0.338433 -0.574149
0.157189 0.359036 -0.441852
0.141248 -0.359417 -0.352077
0.121496 -0.337875 -0.570286
0.090458 -0.212498 -0.803775
0.266277 -0.203156 -0.686407
0.256275 -0.165781 -0.108711
0.566868 -0.028549 0.781540
0.231024 0.014307 -0.061449
0.121892 0.072535 -0.863635
0.199259 0.197111 -0.121914
0.258386 0.228859 -0.686614
0.236973 -0.350316 -0.454930
0.375041 -0.297715 0.582004
0.427808 -0.293675 0.636317
0.333352 -0.222257 0.483017
0.311286 -0.054232 -0.745792
0.269066 0.048639 0.448049
0.279749 0.065398 -0.764353
0.329009 0.202019 0.485443
0.540322 0.191879 0.746673
0.379155 0.286962 0.548643
0.456240 0.279103 0.650292
0.365438 -0.282248 -0.525403
0.308731 -0.288985 -0.221068
0.365659 -0.210192 -0.106554
0.320939 -0.039084 0.433495
0.390051 0.062025 0.400315
0.308821 0.148493 -0.104061
0.321830 0.270153 -0.194655
0.368667 0.308727 -0.485818
0.420643 -0.321661 -0.338416
0.453043 -0.217765 -0.013380
0.499377 -0.206917 0.299736
0.407857 -0.109351 0.035846
0.431286 -0.089773 -0.657687
0.342711 -0.052451 -0.040229
0.424485 -0.084143 0.373067
0.411143 0.033644 -0.682743
0.400507 0.027469 0.034597
0.377305 0.187764 -0.648773
0.417359 0.209644 -0.072784
0.441811 0.170832 0.039579
0.485795 0.218948 0.332330
0.399961 0.328117 -0.276298
0.494443 -0.304910 -0.184227
0.570792 -0.296446 0.424597
0.615222 -0.251740 -0.361011
0.544504 -0.174225 -0.521325
0.482026 -0.207518 0.113963
0.438945 -0.076499 0.128126
0.455665 -0.014777 0.283368
0.446714 0.094505 0.129530
0.508687 0.244835 0.088066
0.686264 0.216669 -0.276440
0.569546 0.298725 0.403033
0.546358 -0.284289 0.615850
0.586598 -0.295709 0.168193
0.744652 -0.035123 -0.376114
0.587776 0.113555 -0.516847
0.580528 0.299982 -0.077660
0.596173 0.295914 0.167426
0.572920 0.298439 0.559441
0.574401 0.311236 -0.262347
0.598651 -0.298570 -0.244392
0.586000 -0.302970 -0.088352
0.669127 -0.293469 0.126923
0.669819 -0.269641 0.556121
0.675368 -0.213684 0.677580
0.675367 -0.045087 0.746690
0.597099 0.086384 0.776667
0.775051 0.088237 -0.330026
0.655262 0.197173 0.685050
0.675602 0.283936 0.054949
0.695151 0.286105 0.209455
0.672126 -0.291864 0.359310
0.718828 -0.196203 -0.247738
0.779308 -0.200265 0.077815
0.770100 -0.194546 0.439295
0.726320 -0.173788 0.663494
0.772375 0.197384 0.022573
0.780395 0.186424 0.409152
0.717272 0.194489 0.633525
0.665229 0.287200 0.401970
0.659546 0.266531 0.597570
0.766094 0.242534 0.172963
0.792290 -0.197260 0.222979
0.807977 -0.126503 -0.006007
0.777846 -0.063154 0.634000
0.795604 -0.074185 -0.287495
0.823683 -0.013241 0.430113
0.747277 0.025003 0.703294
0.805298 0.004333 -0.280296
0.834403 0.017083 0.040183
0.774896 0.065712 0.644118
0.786678 0.119224 -0.259516
0.785293 0.223895 0.267828
0.819342 -0.130318 0.093797
0.842581 -0.099820 0.287369
0.856954 -0.019259 0.156322
0.852903 0.088440 0.254987
0.839749 0.132667 0.164779
3 0 1 10
3 10 1 2
3 3 1 0
3 1 4 2
3 3 5 1
3 1 5 6
3 1 6 4
3 4 6 7
3 4 7 8
3 7 6 5
3 9 3 0
3 10 9 0
3 10 2 11
3 12 14 13
3 13 14 15
3 13 15 16
3 17 11 2
3 23 5 3
3 4 17 2
3 14 18 15
3 15 18 19
3 15 19 16
3 16 19 20
3 4 8 17
3 18 21 19
3 21 22 19
3 19 22 20
3 7 5 26
3 26 27 7
3 27 8 7
3 30 10 11
3 11 33 30
3 33 11 35
3 35 11 17
3 25 24 16
3 20 25 16
3 35 17 37
3 37 17 8
3 18 39 21
3 37 8 42
3 22 41 20
3 27 42 8
3 22 44 41
3 31 12 28
3 13 28 12
3 29 28 13
3 13 32 29
3 31 34 12
3 47 3 9
3 16 32 13
3 35 36 33
3 38 36 35
3 37 38 35
3 52 26 5
3 20 40 25
3 39 43 21
3 41 40 20
3 27 26 54
3 43 45 21
3 22 21 45
3 44 22 45
3 28 46 31
3 46 28 56
3 28 29 56
3 10 57 9
3 30 57 10
3 33 48 30
3 12 34 49
3 36 48 33
3 32 16 61
3 36 63 48
3 12 49 14
3 16 24 61
3 63 36 66
3 18 14 65
3 24 25 50
3 66 36 38
3 50 25 51
3 37 53 38
3 38 53 66
3 53 37 42
3 54 42 27
3 55 45 43
3 72 73 45
3 45 73 44
3 9 57 75
3 31 74 34
3 74 46 58
3 74 31 46
3 46 56 58
3 56 59 58
3 29 32 60
3 60 32 61
3 49 64 14
3 24 50 61
3 61 50 62
3 62 50 79
3 50 81 79
3 65 14 64
3 81 50 82
3 51 83 50
3 83 82 50
3 25 40 51
3 84 66 53
3 39 68 43
3 83 51 40
3 26 67 54
3 43 69 55
3 88 53 42
3 55 87 45
3 70 45 87
3 45 70 72
3 70 71 72
3 41 44 40
3 57 90 75
3 30 90 57
3 30 92 90
3 56 91 95
3 56 29 91
3 60 91 29
3 92 30 48
3 93 34 94
3 34 74 94
3 56 95 59
3 77 94 74
3 58 77 74
3 61 62 60
3 75 47 9
3 48 64 92
3 34 76 49
3 59 78 58
3 59 96 78
3 80 77 58
3 58 78 80
3 64 48 63
3 64 63 66
3 64 66 65
3 65 66 84
3 65 68 39
3 18 65 39
3 70 87 85
3 85 86 70
3 52 67 26
3 84 53 88
3 68 69 43
3 71 70 86
3 83 40 89
3 89 103 83
3 69 104 55
3 87 55 104
3 72 71 73
3 40 44 89
3 106 42 54
3 88 42 106
3 44 73 89
3 60 110 91
3 95 96 59
3 110 60 62
3 92 64 97
3 97 49 76
3 49 97 64
3 96 98 78
3 3 47 23
3 111 77 80
3 78 99 80
3 78 98 99
3 113 81 82
3 85 111 80
3 80 99 85
3 98 100 99
3 23 52 5
3 114 111 85
3 99 86 85
3 99 100 86
3 65 101 68
3 100 102 86
3 84 101 65
3 114 85 87
3 86 102 71
3 102 105 71
3 116 84 88
3 84 116 101
3 114 87 104
3 106 54 67
3 69 119 104
3 73 71 105
3 103 89 117
3 105 89 73
3 90 92 120
3 34 93 107
3 91 110 121
3 75 90 108
3 92 109 120
3 107 76 34
3 95 121 123
3 91 121 95
3 92 97 109
3 97 76 107
3 97 107 109
3 108 47 75
3 96 95 123
3 108 126 47
3 125 62 79
3 123 112 96
3 47 126 23
3 96 112 98
3 126 128 23
3 98 112 100
3 128 52 23
3 130 111 114
3 100 112 102
3 112 131 102
3 113 82 132
3 132 82 83
3 115 67 128
3 67 52 128
3 102 131 105
3 132 83 103
3 115 106 67
3 133 114 104
3 101 118 68
3 118 69 68
3 106 135 88
3 88 135 116
3 118 137 69
3 137 119 69
3 107 93 140
3 120 141 90
3 90 141 108
3 140 93 94
3 94 122 140
3 121 124 123
3 122 94 77
3 127 126 108
3 144 112 123
3 122 77 111
3 126 127 128
3 127 129 128
3 144 131 112
3 129 115 128
3 130 114 147
3 106 115 135
3 131 134 105
3 136 101 116
3 118 101 136
3 104 119 133
3 134 138 105
3 116 135 136
3 137 133 119
3 138 89 105
3 138 117 89
3 151 109 139
3 139 109 107
3 139 107 150
3 142 150 140
3 150 107 140
3 120 151 141
3 120 109 151
3 108 141 152
3 142 140 122
3 123 124 143
3 152 145 108
3 145 127 108
3 144 123 143
3 155 79 81
3 146 144 143
3 145 157 127
3 122 111 130
3 129 127 157
3 131 144 146
3 146 134 131
3 157 115 129
3 114 133 147
3 148 136 135
3 148 149 136
3 149 118 136
3 149 137 118
3 139 160 151
3 161 121 110
3 141 153 152
3 141 151 153
3 142 122 154
3 161 163 121
3 163 124 121
3 124 163 143
3 125 110 62
3 152 153 145
3 156 154 122
3 122 130 156
3 143 165 146
3 147 158 156
3 156 130 147
3 165 167 146
3 167 134 146
3 157 159 115
3 159 135 115
3 159 148 135
3 158 147 133
3 167 169 134
3 169 138 134
3 168 103 170
3 158 133 137
3 169 117 138
3 170 103 117
3 160 139 150
3 151 160 171
3 172 150 142
3 171 153 151
3 154 172 142
3 164 145 153
3 163 174 143
3 164 166 145
3 174 165 143
3 145 166 157
3 176 156 158
3 159 157 166
3 158 177 176
3 148 159 178
3 177 158 137
3 148 178 149
3 160 179 171
3 160 150 179
3 179 150 172
3 161 110 162
3 125 162 110
3 173 172 154
3 154 184 173
3 155 125 79
3 184 154 156
3 164 186 166
3 174 175 165
3 184 156 176
3 186 188 166
3 188 159 166
3 175 167 165
3 168 132 103
3 159 188 178
3 169 170 117
3 178 192 149
3 149 192 137
3 192 177 137
3 179 172 193
3 172 173 193
3 153 171 196
3 153 196 183
3 184 180 173
3 163 181 185
3 183 164 153
3 180 184 182
3 174 163 185
3 183 186 164
3 182 184 187
3 182 187 198
3 198 187 200
3 174 185 175
3 155 81 113
3 189 184 176
3 184 189 187
3 187 189 190
3 187 190 200
3 167 175 191
3 176 177 189
3 191 169 167
3 189 177 192
3 171 179 195
3 173 180 193
3 161 194 163
3 204 161 162
3 194 181 163
3 204 162 125
3 171 195 196
3 180 182 197
3 198 197 182
3 197 198 181
3 181 199 185
3 181 198 199
3 198 200 199
3 185 199 175
3 199 200 191
3 199 191 175
3 188 186 207
3 190 201 200
3 201 191 200
3 178 188 202
3 189 201 190
3 191 203 169
3 192 208 189
3 189 208 201
3 178 211 192
3 170 169 210
3 179 193 212
3 213 212 193
3 193 180 213
3 213 180 205
3 161 204 194
3 179 212 195
3 180 197 205
3 205 197 181
3 181 194 205
3 196 206 183
3 186 183 206
3 218 155 113
3 207 186 206
3 206 219 207
3 218 113 132
3 207 202 188
3 218 132 168
3 191 201 209
3 220 170 210
3 220 168 170
3 202 211 178
3 208 209 201
3 209 203 191
3 192 211 208
3 203 210 169
3 215 194 204
3 213 205 214
3 223 214 205
3 223 205 194
3 223 194 215
3 204 216 215
3 204 125 216
3 217 216 125
3 125 155 217
3 155 218 217
3 217 218 220
3 218 168 220
3 211 202 208
3 221 222 209
3 222 231 209
3 209 231 203
3 203 231 210
3 210 231 232
3 220 210 232
3 221 209 208
3 213 224 212
3 214 224 213
3 214 234 225
3 234 214 223
3 224 195 212
3 224 214 225
3 234 223 226
3 223 215 226
3 215 227 226
3 215 216 227
3 196 195 224
3 196 224 206
3 227 216 217
3 227 217 239
3 239 217 220
3 207 219 202
3 239 220 230
3 228 221 202
3 228 233 221
3 244 229 231
3 229 230 231
3 230 232 231
3 230 220 232
3 221 208 202
3 233 244 222
3 244 231 222
3 233 222 221
3 235 224 225
3 225 245 235
3 225 234 245
3 224 235 237
3 224 237 206
3 227 236 226
3 245 241 235
3 226 236 238
3 227 239 236
3 237 240 206
3 237 235 240
3 235 241 240
3 236 242 238
3 236 239 242
3 206 240 219
3 240 243 219
3 240 241 243
3 241 228 243
3 238 242 229
3 219 243 202
3 242 230 229
3 239 230 242
3 228 202 243
3 228 249 233
3 226 246 234
3 234 247 245
3 234 246 247
3 226 238 246
3 241 245 247
3 246 248 247
3 246 238 248
3 247 248 249
3 249 241 247
3 228 241 249
3 248 244 249
3 248 229 244
3 238 229 248
3 233 249 244
