ply
format ascii 1.0
element vertex 254
property float x
property float y
property float z
element face 500
property list uchar int vertex_indices
end_header
-0.795207 -0.148795 0.527025
-0.817061 -0.133404 0.556152
-0.843525 -0.084038 0.510548
-0.858887 -0.043056 0.558786
-0.859194 0.053861 0.519722
-0.848225 0.086419 0.557260
-0.815870 0.135584 0.528272
-0.785942 0.133640 0.560950
-0.796041 -0.088497 0.476530
-0.763019 -0.114842 0.564611
-0.810847 -0.007956 0.597591
-0.815390 0.033225 0.477699
-0.737034 0.104251 0.558610
-0.763141 0.121980 0.521654
-0.748576 -0.103499 0.515014
-0.758211 -0.016734 0.472243
-0.719566 -0.025216 0.563677
-0.720340 0.023490 0.518843
-0.750241 0.031415 0.598810
-0.492322 -0.159796 -0.975506
-0.510313 -0.142112 -0.825915
-0.533808 -0.060933 -0.967972
-0.478624 -0.088586 -0.714840
-0.475410 -0.081043 -1.038067
-0.543602 0.031720 -0.828595
-0.497739 0.069489 -1.021010
-0.536375 0.068546 -0.974767
-0.510309 0.070120 -0.738241
-0.496469 0.152325 -0.961079
-0.504442 0.147729 -0.798954
-0.421772 -0.216204 -0.972898
-0.433524 -0.235909 -0.881311
-0.429193 -0.203489 -0.739551
-0.286850 -0.089310 -0.489071
-0.296057 -0.000251 -0.475339
-0.294712 0.084972 -0.495295
-0.461662 0.153666 -0.718959
-0.429779 0.219748 -0.972597
-0.419086 0.239803 -0.899166
-0.351124 -0.253495 -0.784760
-0.434573 -0.139190 -1.040104
-0.328512 -0.185280 -0.594907
-0.346111 -0.050018 -1.068447
-0.371062 0.049535 -1.068340
-0.421447 0.159955 -1.024540
-0.358014 0.244602 -0.752661
-0.340865 0.259082 -0.854413
-0.360148 -0.236837 -0.924621
-0.265147 -0.222389 -0.843020
-0.297564 -0.228912 -0.634950
-0.347284 -0.143412 -1.030751
-0.270418 -0.151310 -0.965919
-0.268456 -0.043526 -1.029994
-0.289290 0.036653 -1.048011
-0.336130 0.127803 -1.039053
-0.260895 0.141910 -0.970078
-0.270131 0.214325 -0.595719
-0.361179 0.221351 -0.959577
-0.271293 0.248181 -0.772551
-0.258338 -0.249843 -0.708597
-0.207204 -0.206432 -0.523132
-0.179480 -0.208974 0.341918
-0.173741 -0.206986 0.560584
-0.205356 -0.135930 -0.891488
-0.177353 -0.162129 -0.808358
-0.173299 -0.208567 -0.440896
-0.185118 -0.164607 0.247190
-0.238625 -0.136060 0.306023
-0.241859 -0.108434 0.597623
-0.243677 -0.085322 -0.423722
-0.201142 -0.064235 -0.319131
-0.200752 -0.092640 0.208152
-0.285783 -0.050496 0.478087
-0.197257 -0.043608 -0.937756
-0.254025 -0.047828 0.245251
-0.215250 0.001737 0.198013
-0.244595 0.011668 0.597944
-0.209891 0.040848 -0.962594
-0.256423 0.049109 -0.427620
-0.193946 0.089297 -0.315637
-0.250716 0.055709 0.284915
-0.177669 0.105255 0.210589
-0.198775 0.130999 -0.894833
-0.203854 0.202380 -0.501702
-0.184322 0.195840 -0.416452
-0.197856 0.174968 0.280439
-0.239072 0.152646 0.431320
-0.190528 0.182112 0.553430
-0.183663 0.168762 -0.809969
-0.267042 0.212142 -0.886726
-0.251682 0.247453 -0.680181
-0.184256 0.214911 0.358730
-0.200667 -0.221851 -0.734548
-0.185497 -0.225507 -0.653114
-0.126437 -0.242499 -0.488964
-0.107277 -0.249170 0.411370
-0.110605 -0.262902 0.506090
-0.116931 -0.234428 -0.407414
-0.134917 -0.150028 -0.729445
-0.182203 -0.161138 -0.362186
-0.120372 -0.186988 -0.282180
-0.113140 -0.182158 0.655709
-0.110199 -0.114590 -0.185935
-0.139142 -0.056096 -0.815922
-0.134127 0.005234 0.204588
-0.140664 0.057934 -0.826913
-0.138359 0.035798 -0.191743
-0.114046 0.124291 0.685396
-0.116855 0.145705 -0.205882
-0.119697 0.195422 0.646705
-0.127346 0.135665 -0.737251
-0.183819 0.219716 -0.640627
-0.108773 0.218990 -0.313199
-0.202028 0.222835 -0.721756
-0.097782 0.255269 0.443731
-0.105803 0.259279 0.533132
-0.112277 -0.227276 -0.566225
-0.051470 -0.241397 -0.457386
-0.031493 -0.243183 -0.313908
-0.130653 -0.197430 0.295520
-0.050228 -0.263399 0.566060
-0.025970 -0.221098 -0.201626
-0.028113 -0.238684 0.413862
-0.091553 -0.149157 -0.657421
0.027983 -0.171003 -0.493240
-0.112571 -0.102205 0.691884
0.026761 -0.183574 -0.040736
-0.128524 -0.128799 0.234792
0.025871 -0.195294 0.390708
0.053381 -0.052205 0.343767
-0.096664 0.022225 -0.737368
-0.054349 0.013220 -0.670527
-0.110066 0.012654 0.709253
-0.024183 -0.026460 -0.022790
-0.083122 0.121892 -0.670525
0.055435 0.088260 0.344181
-0.125003 0.115874 0.218598
0.003516 0.157511 -0.051589
-0.109224 0.216655 -0.563028
0.011992 0.184290 -0.486913
-0.135304 0.187723 0.282616
-0.125517 0.235873 -0.443439
-0.034804 0.225369 -0.194003
-0.048508 0.229666 -0.486944
-0.038895 0.240646 -0.389454
-0.030209 0.262259 0.573395
-0.051428 -0.272305 0.503579
0.056424 -0.236285 -0.197441
0.046985 -0.230852 -0.122616
0.050517 -0.144796 0.045482
0.056873 -0.086241 -0.507047
0.011806 0.019738 0.035249
0.059416 0.169236 0.034009
-0.035649 0.204246 0.663471
-0.030303 0.246434 -0.281153
0.046372 0.228119 -0.124046
0.037333 0.237816 -0.230485
-0.058194 0.279340 0.510864
0.094097 -0.255649 0.483177
0.039593 -0.221342 -0.362101
0.026558 -0.242457 -0.267024
0.104450 -0.235040 -0.046845
0.089525 -0.211541 -0.267920
0.143164 -0.207707 -0.178601
0.107615 -0.219420 0.029458
0.409081 -0.192318 0.670420
0.092160 -0.120184 -0.417191
0.112042 -0.177111 0.115145
0.143403 -0.143583 0.211320
0.097608 -0.041459 0.184113
0.094822 -0.008590 -0.450896
0.064268 0.005157 0.115970
0.439015 -0.020767 0.725750
0.050530 0.058651 -0.515388
0.126520 0.121592 0.190361
0.408780 0.099173 0.708269
0.079370 0.128834 -0.425677
0.109834 0.182108 0.116132
0.144266 0.131579 -0.279631
0.043862 0.216202 -0.347308
0.039671 0.223700 0.417917
0.101661 0.207195 -0.260097
0.133606 0.200773 -0.185675
0.107163 0.231386 -0.043779
0.119364 0.230273 0.041979
0.076525 0.268236 0.489018
0.291346 -0.278988 0.569698
0.120100 -0.238168 -0.117650
0.178066 -0.248055 -0.025545
0.192949 -0.247233 0.091476
0.120588 -0.190599 0.417742
0.231176 -0.228867 -0.054902
0.174993 -0.219267 0.166794
0.160899 -0.118221 0.290361
0.197812 -0.192485 0.357785
0.459575 -0.121509 0.709050
0.146220 0.011150 -0.338449
0.186580 -0.088515 -0.238845
0.125159 -0.018345 0.258344
0.116362 -0.017277 0.339606
0.224463 0.007512 -0.210137
0.166811 0.127936 0.286344
0.132996 0.103297 0.351502
0.224235 0.079530 -0.189441
0.196272 0.176330 0.337684
0.404398 0.190873 0.661944
0.147934 0.210382 0.415030
0.225980 0.234488 -0.036972
0.192576 0.228222 0.140724
0.181774 0.251682 -0.000308
0.296961 0.282731 0.563551
0.286073 -0.287145 0.483748
0.276207 -0.247542 0.069000
0.261361 -0.234539 0.256092
0.196387 -0.245033 0.430781
0.281426 -0.255326 0.356213
0.373893 -0.117074 0.036894
0.388046 0.119616 0.051925
0.277041 0.239576 0.270459
0.271580 0.245489 0.358324
0.270168 0.248287 0.046036
0.286765 0.254298 0.161675
0.284260 0.285687 0.486621
0.352998 -0.197075 0.053601
0.344598 0.206991 0.046352
0.347722 0.228925 0.124703
0.359819 -0.287499 0.521875
0.356511 -0.251528 0.362462
0.369670 -0.210906 0.200095
0.430299 -0.248622 0.516340
0.419116 -0.248542 0.594759
0.444886 -0.153863 0.321714
0.434233 -0.139503 0.253762
0.397474 0.172912 0.097908
0.434394 0.160276 0.276915
0.334074 0.246032 0.243028
0.357062 0.250108 0.363038
0.361105 0.288920 0.521175
0.434082 0.248188 0.514102
0.422407 0.250916 0.589487
0.481963 -0.155970 0.419628
0.489522 -0.151822 0.646445
0.467816 -0.051501 0.263621
0.503551 -0.041821 0.363053
0.411798 0.004304 0.053290
0.476262 0.038015 0.273294
0.492971 0.075787 0.351815
0.480937 0.152336 0.431892
0.488915 0.129884 0.655425
0.524114 -0.082250 0.447908
0.534300 -0.056957 0.656452
0.513588 -0.049501 0.702907
0.524505 0.009298 0.432574
0.532209 0.056981 0.633989
3 2 0 8
3 0 2 1
3 1 2 3
3 1 3 10
3 11 2 8
3 4 2 11
3 2 4 3
3 3 4 5
3 3 5 10
3 6 4 11
3 10 5 7
3 4 6 5
3 5 6 7
3 14 8 0
3 14 0 9
3 9 0 1
3 14 15 8
3 9 1 10
3 9 10 18
3 15 11 8
3 15 13 11
3 13 6 11
3 18 10 7
3 12 18 7
3 13 12 7
3 7 6 13
3 9 16 14
3 17 15 14
3 14 16 17
3 9 18 16
3 13 15 17
3 16 12 17
3 16 18 12
3 13 17 12
3 21 19 23
3 19 21 20
3 21 24 20
3 20 24 22
3 23 25 21
3 21 25 26
3 21 26 24
3 22 24 27
3 28 26 25
3 26 28 24
3 24 28 29
3 27 24 29
3 19 30 40
3 30 19 31
3 31 20 32
3 19 40 23
3 20 31 19
3 20 22 32
3 32 22 41
3 22 33 41
3 40 42 23
3 34 33 22
3 42 43 23
3 43 25 23
3 27 34 22
3 35 34 27
3 43 44 25
3 25 44 28
3 27 29 36
3 27 36 35
3 37 28 44
3 28 37 38
3 28 38 29
3 45 36 29
3 29 38 45
3 31 39 47
3 31 47 30
3 39 31 32
3 39 32 49
3 47 50 30
3 50 40 30
3 32 41 49
3 40 50 42
3 54 44 43
3 54 57 44
3 57 37 44
3 46 38 57
3 57 38 37
3 38 46 45
3 48 47 39
3 39 59 48
3 39 49 59
3 50 47 51
3 47 48 51
3 50 52 42
3 52 50 51
3 53 42 52
3 43 42 53
3 34 35 78
3 54 43 53
3 53 55 54
3 36 56 35
3 35 56 83
3 57 54 55
3 55 89 57
3 45 90 56
3 45 56 36
3 57 89 46
3 46 89 58
3 58 45 46
3 45 58 90
3 48 59 92
3 92 59 93
3 49 93 59
3 49 60 93
3 51 48 63
3 48 64 63
3 48 92 64
3 49 41 60
3 66 67 61
3 61 67 62
3 62 67 68
3 65 60 69
3 65 69 99
3 67 66 71
3 33 60 41
3 60 33 69
3 99 69 70
3 67 72 68
3 52 51 73
3 51 63 73
3 67 71 74
3 67 74 72
3 34 69 33
3 71 75 74
3 68 72 76
3 77 52 73
3 53 52 77
3 78 69 34
3 69 78 70
3 70 78 79
3 74 75 80
3 74 80 72
3 72 80 76
3 75 81 80
3 55 53 77
3 77 82 55
3 35 83 78
3 78 83 84
3 79 78 84
3 85 80 81
3 80 85 86
3 80 86 76
3 76 86 87
3 107 87 109
3 76 87 107
3 89 55 82
3 82 88 89
3 88 58 89
3 88 113 58
3 85 91 86
3 86 91 87
3 90 58 113
3 90 113 111
3 90 111 56
3 111 83 56
3 94 116 60
3 60 116 93
3 94 60 65
3 94 65 97
3 95 119 61
3 96 95 61
3 62 96 61
3 64 92 98
3 92 93 98
3 116 123 93
3 65 99 97
3 97 99 100
3 61 119 66
3 62 68 101
3 98 93 123
3 100 99 70
3 100 70 102
3 119 127 66
3 127 71 66
3 64 103 63
3 64 98 103
3 101 68 125
3 63 103 73
3 71 127 104
3 103 105 73
3 102 70 106
3 104 75 71
3 125 76 132
3 68 76 125
3 73 105 77
3 103 130 105
3 70 79 106
3 76 107 132
3 77 105 82
3 130 110 105
3 81 75 104
3 104 136 81
3 82 105 88
3 105 110 88
3 106 79 108
3 110 134 111
3 134 138 111
3 84 112 79
3 108 79 112
3 136 140 81
3 140 85 81
3 113 88 110
3 110 111 113
3 140 91 85
3 138 83 111
3 83 141 84
3 141 112 84
3 140 114 91
3 87 91 114
3 115 87 114
3 87 115 109
3 83 138 141
3 95 146 122
3 95 96 146
3 120 146 96
3 116 94 117
3 94 97 117
3 118 117 97
3 118 97 100
3 100 121 118
3 119 95 122
3 120 96 62
3 62 101 120
3 123 116 124
3 116 117 124
3 123 124 150
3 121 100 102
3 121 102 126
3 127 119 128
3 119 122 128
3 129 127 128
3 104 127 129
3 130 103 98
3 98 123 130
3 123 131 130
3 123 150 131
3 133 102 106
3 129 135 104
3 131 134 130
3 136 104 135
3 130 134 110
3 137 133 106
3 108 137 106
3 134 139 138
3 153 107 109
3 139 143 138
3 108 112 142
3 108 142 137
3 144 141 143
3 112 141 144
3 112 144 154
3 154 142 112
3 109 115 145
3 145 153 109
3 143 141 138
3 157 115 114
3 115 157 145
3 146 158 122
3 158 146 120
3 159 117 118
3 159 118 160
3 147 160 121
3 121 160 118
3 147 121 148
3 158 128 122
3 117 159 124
3 148 121 126
3 165 101 125
3 133 126 102
3 126 133 149
3 149 133 151
3 150 173 131
3 172 125 132
3 131 173 134
3 133 137 151
3 151 137 152
3 151 152 171
3 175 132 107
3 134 173 139
3 140 136 135
3 135 180 140
3 139 179 144
3 139 144 143
3 142 155 137
3 154 144 179
3 154 179 156
3 156 142 154
3 142 156 155
3 180 114 140
3 114 180 185
3 185 157 114
3 185 145 157
3 158 120 186
3 162 159 160
3 147 162 160
3 147 163 162
3 147 187 163
3 147 148 187
3 161 187 148
3 190 128 158
3 186 120 101
3 161 148 126
3 164 161 126
3 149 164 126
3 149 167 164
3 124 159 166
3 159 162 166
3 195 165 125
3 124 166 150
3 168 167 169
3 168 169 198
3 190 129 128
3 166 170 150
3 166 196 170
3 171 167 149
3 151 171 149
3 167 171 169
3 190 199 129
3 195 125 172
3 150 170 173
3 198 169 174
3 169 171 174
3 199 135 129
3 170 176 173
3 196 178 176
3 170 196 176
3 152 177 171
3 171 177 174
3 199 202 135
3 173 176 139
3 205 107 153
3 178 179 176
3 178 181 179
3 202 206 135
3 206 180 135
3 176 179 139
3 137 155 183
3 152 137 183
3 184 152 183
3 184 177 152
3 156 179 181
3 181 182 156
3 182 155 156
3 155 182 183
3 180 206 185
3 185 210 145
3 210 153 145
3 211 158 186
3 187 191 163
3 187 188 191
3 187 161 188
3 189 188 164
3 161 164 188
3 214 190 158
3 211 214 158
3 167 189 164
3 189 167 192
3 192 167 168
3 192 168 213
3 214 194 190
3 168 193 213
3 193 194 213
3 162 197 166
3 162 163 197
3 198 193 168
3 194 193 199
3 194 199 190
3 166 197 196
3 197 200 196
3 193 198 199
3 200 178 196
3 200 203 178
3 201 198 174
3 198 201 199
3 199 201 202
3 203 182 178
3 202 201 204
3 175 107 205
3 178 182 181
3 202 204 206
3 184 208 177
3 177 208 174
3 174 208 201
3 207 183 182
3 207 209 183
3 184 183 209
3 184 209 208
3 222 185 206
3 222 210 185
3 189 212 188
3 189 213 212
3 215 214 211
3 188 212 191
3 192 213 189
3 165 186 101
3 215 213 194
3 214 215 194
3 163 191 216
3 197 163 216
3 197 216 200
3 182 203 217
3 207 182 217
3 208 218 201
3 201 218 204
3 204 218 219
3 204 219 206
3 207 220 209
3 208 221 218
3 205 153 210
3 220 221 208
3 220 208 209
3 219 222 206
3 211 227 215
3 226 227 211
3 226 211 186
3 212 223 191
3 212 228 223
3 212 213 228
3 228 213 227
3 213 215 227
3 191 223 216
3 172 132 175
3 217 224 207
3 224 220 207
3 224 225 220
3 225 235 221
3 218 221 235
3 235 236 218
3 218 236 219
3 225 221 220
3 236 222 219
3 237 222 236
3 222 237 210
3 226 229 227
3 186 230 226
3 230 229 226
3 231 228 227
3 227 240 231
3 227 229 240
3 230 186 165
3 228 216 223
3 228 232 216
3 228 231 232
3 216 244 200
3 200 244 203
3 244 217 203
3 224 217 233
3 233 217 234
3 224 233 225
3 233 234 225
3 234 235 225
3 236 235 234
3 234 247 236
3 236 247 238
3 239 205 210
3 236 238 237
3 237 239 210
3 237 238 239
3 241 229 230
3 230 165 241
3 229 241 240
3 165 195 241
3 232 242 216
3 240 243 231
3 241 195 251
3 232 231 242
3 231 243 242
3 251 195 172
3 216 242 244
3 244 242 245
3 242 243 245
3 243 246 245
3 251 172 248
3 248 172 175
3 244 245 217
3 245 234 217
3 245 246 234
3 248 175 205
3 246 247 234
3 247 248 238
3 248 239 238
3 205 239 248
3 241 249 240
3 243 240 249
3 241 250 249
3 241 251 250
3 252 243 249
3 249 250 252
3 246 243 252
3 252 250 253
3 250 251 253
3 247 246 252
3 252 253 247
3 251 248 253
3 253 248 247
