ply
format ascii 1.0
element vertex 252
property float x
property float y
property float z
element face 500
property list uchar int vertex_indices
end_header
-0.651784 -0.175603 -0.574474
-0.614470 -0.200862 -0.418231
-0.697411 -0.116227 -0.435224
-0.701299 -0.090943 -0.559630
-0.723897 -0.029968 -0.443328
-0.677522 0.074068 -0.576437
-0.707812 0.048946 -0.410460
-0.648856 0.179073 -0.450634
-0.629339 0.199187 -0.575863
-0.511943 -0.282233 -0.524863
-0.543983 -0.241031 -0.611096
-0.570520 -0.181887 -0.655345
-0.604314 -0.077412 -0.667451
-0.681969 -0.001646 -0.353348
-0.654872 0.091691 -0.347051
-0.579885 0.171647 -0.647350
-0.602323 0.196594 -0.365901
-0.516681 0.292869 -0.492507
-0.448764 -0.087039 -0.151880
-0.572424 0.065859 -0.687420
-0.507007 0.277617 -0.388645
-0.494229 0.271670 -0.585359
-0.448613 -0.307316 -0.434006
-0.405844 -0.287798 -0.332559
-0.415185 -0.187792 -0.184713
-0.461650 -0.006442 -0.733830
-0.410457 0.056206 -0.122303
-0.418918 0.124537 -0.724958
-0.425304 0.172601 -0.192252
-0.380916 -0.300272 -0.482302
-0.356466 -0.282734 -0.579676
-0.399598 -0.225770 -0.674468
-0.420127 -0.118749 -0.731000
-0.345458 -0.149639 -0.112684
-0.363152 -0.009427 -0.764229
-0.365397 -0.036799 0.823602
-0.335038 -0.096585 0.893145
-0.348567 0.005667 0.896510
-0.351419 0.068476 0.815437
-0.331345 0.108506 0.886596
-0.299893 0.170373 -0.103577
-0.421269 0.227127 -0.669177
-0.292127 0.244045 -0.199912
-0.417995 0.307791 -0.403491
-0.412539 0.304906 -0.498108
-0.358011 -0.297588 -0.384377
-0.269240 -0.242229 -0.419629
-0.248074 -0.251111 -0.341984
-0.314421 -0.244612 -0.190825
-0.283034 -0.188950 0.829433
-0.264429 -0.191685 -0.743850
-0.270376 -0.144153 -0.075251
-0.278430 -0.199045 0.887353
-0.236523 -0.134521 0.750668
-0.330537 -0.021328 0.742469
-0.235948 -0.088291 0.934873
-0.291963 -0.021697 -0.057126
-0.254892 0.094801 0.929224
-0.299526 0.115742 -0.070301
-0.252755 0.130620 0.762750
-0.270879 0.197175 0.837458
-0.261782 0.209611 -0.715721
-0.274957 0.188494 0.885585
-0.347964 0.273706 -0.606520
-0.267405 0.256353 -0.469782
-0.337713 0.290318 -0.406123
-0.209164 -0.270996 -0.581713
-0.239220 -0.241497 -0.496980
-0.236334 -0.271886 -0.245633
-0.227682 -0.268514 -0.642824
-0.143418 -0.206828 -0.289613
-0.140304 -0.239288 -0.094947
-0.187693 -0.155947 -0.047945
-0.271986 -0.103285 -0.778684
-0.262084 -0.002537 0.711870
-0.276664 0.047809 -0.771520
-0.198953 0.148331 -0.041900
-0.207647 0.209984 -0.358704
-0.183873 0.260515 -0.675340
-0.239484 0.256523 -0.279828
-0.171876 -0.236416 0.828606
-0.211669 -0.232902 0.871298
-0.098836 -0.219489 -0.522955
-0.195548 -0.176234 -0.371767
-0.204482 -0.163813 -0.777813
-0.174331 -0.138597 -0.417695
-0.180147 -0.070700 -0.010124
-0.125025 -0.039349 -0.377619
0.183526 -0.049959 0.695914
0.362307 -0.049203 0.968776
0.718117 -0.034670 -0.796156
-0.102512 -0.014496 -0.424734
-0.180807 0.037077 0.001903
0.342430 0.066193 0.972118
0.712069 0.084530 -0.784954
-0.173986 0.149154 -0.418098
-0.130075 0.114522 -0.353014
0.201470 0.100030 0.713902
-0.200163 0.221946 0.868923
-0.003435 0.249978 -0.698042
-0.168343 0.212243 -0.481475
-0.134703 0.238838 -0.106099
-0.179310 0.230818 0.830467
-0.112796 0.256019 -0.575962
-0.094962 0.253921 -0.172327
-0.052484 -0.251459 -0.582767
0.063703 -0.242481 -0.610706
-0.106944 -0.193813 -0.024761
-0.036692 -0.256719 -0.051980
-0.106323 -0.150546 -0.466044
-0.050449 -0.196972 0.034959
0.007229 -0.207094 0.106743
0.201534 -0.165890 0.739158
-0.070801 -0.060816 0.102817
-0.126755 -0.053527 0.034116
-0.057085 -0.102738 -0.312010
-0.031070 0.027663 -0.307993
-0.117567 0.100594 0.041445
-0.065794 0.074131 0.118408
-0.121842 0.144205 -0.456245
0.650340 0.161129 -0.772311
-0.114415 0.197786 -0.026348
-0.006340 0.188417 0.106518
0.338812 0.156565 0.942324
-0.053247 0.204595 0.032913
-0.078119 0.190598 -0.262779
-0.028426 0.250651 -0.046656
0.265505 0.224972 0.794144
-0.061983 -0.262818 -0.135251
0.029954 -0.266260 -0.088259
0.029230 -0.265870 0.010884
0.289518 -0.233886 0.800741
0.306590 -0.234497 0.871494
-0.013586 -0.200843 -0.222754
0.053168 -0.118407 0.241732
0.332968 -0.166296 0.931314
0.652680 -0.091526 -0.800499
0.036483 -0.000425 -0.471427
0.016337 -0.019778 0.227179
0.143484 0.038021 -0.198593
0.031618 0.083622 -0.485589
0.089753 0.065775 0.291502
-0.004765 0.187960 -0.519733
0.109651 0.223811 -0.134838
0.021645 0.255434 0.031182
-0.017249 0.255793 -0.644869
-0.055894 0.262928 -0.116099
0.028074 0.261740 -0.098843
0.140014 -0.285201 0.103937
0.023820 -0.196200 -0.536288
0.107876 -0.200425 -0.559779
0.111015 -0.222312 -0.128956
0.026588 -0.099602 -0.485813
0.108864 -0.088893 -0.213207
0.142097 -0.132826 -0.527410
0.113464 0.008612 -0.507141
0.130379 0.175714 -0.555360
0.128677 0.178245 -0.165677
0.276361 0.177926 0.420332
0.308718 0.231068 0.872635
0.093701 0.271059 -0.032850
0.131370 0.294418 0.078633
0.127409 -0.275190 -0.014933
0.188659 -0.282587 0.056058
0.265771 -0.208817 0.399661
0.250872 -0.096611 0.477547
0.187105 0.180130 -0.110296
0.177943 0.285811 0.029359
0.211194 -0.290231 0.117932
0.244089 -0.205987 -0.038011
0.284549 -0.252980 0.108852
0.316881 -0.238742 0.414379
0.190855 -0.180384 -0.116489
0.283229 -0.203520 0.747748
0.260692 -0.107740 -0.108809
0.197718 -0.029441 -0.168804
0.193397 -0.000692 -0.524216
0.277653 -0.119476 0.654325
0.276130 0.040670 0.540813
0.251962 0.007406 0.657809
0.222165 0.092902 -0.541961
0.281308 0.120672 0.659663
0.282339 0.009395 -0.107994
0.279290 0.193860 0.743800
0.254658 0.213241 -0.021678
0.334584 0.247756 0.419221
0.221150 0.295986 0.115142
0.296808 0.215462 0.056743
0.719421 -0.222038 -0.665780
0.395558 -0.263096 0.420582
0.306752 -0.197413 0.042759
0.699966 -0.178625 -0.597700
0.343088 -0.213024 0.528520
0.357233 -0.238471 0.741267
0.335354 -0.067150 -0.035982
0.376072 -0.080916 0.026830
0.720629 -0.029792 -0.537862
0.737345 0.061021 -0.562106
0.318322 0.079334 -0.046600
0.387854 0.032111 0.041636
0.358437 0.224468 0.510354
0.354665 0.237079 0.725928
0.412687 0.214082 0.219724
0.391936 0.270153 0.449386
0.461530 -0.230332 0.322106
0.447484 -0.271024 0.711911
0.431731 -0.261864 0.798528
0.498631 -0.204190 0.850417
0.438524 -0.164732 0.183919
0.474721 0.158480 0.242906
0.417876 0.185265 0.186644
0.724725 0.179699 -0.609326
0.532062 0.186454 0.840757
0.429831 0.258895 0.788125
0.444581 0.270452 0.679273
0.521629 -0.166175 0.299383
0.429887 -0.109117 0.936121
0.525460 -0.064276 0.897821
0.422919 0.008923 0.955582
0.529474 0.100422 0.892273
0.511497 0.040746 0.216041
0.425847 0.110269 0.944005
0.494130 0.241880 0.463544
0.493755 -0.257817 0.491894
0.507578 -0.255855 0.757647
0.557046 -0.181000 0.445657
0.569604 -0.186116 0.806421
0.568490 -0.111409 0.337703
0.739828 -0.102467 -0.549112
0.495609 -0.071839 0.198641
0.582569 0.003099 0.332523
0.562242 0.127191 0.349914
0.749261 0.163801 -0.727063
0.638091 0.227133 -0.653675
0.579711 0.175466 0.475656
0.571673 0.214481 0.746264
0.514847 0.254347 0.750298
0.616036 -0.092662 0.807899
0.596393 -0.087710 0.853589
0.606443 -0.046470 0.429431
0.623412 0.007445 0.805924
0.589842 0.083318 0.856429
0.606316 0.078310 0.432898
0.604027 0.141045 0.790441
0.674194 -0.211913 -0.711454
0.762264 -0.120747 -0.754944
0.791420 -0.173438 -0.669701
0.813318 -0.062799 -0.584936
0.823937 0.001170 -0.745462
0.780476 0.196177 -0.656691
0.858672 -0.068288 -0.675069
0.840365 0.063540 -0.645918
3 0 2 1
3 3 0 12
3 0 3 2
3 2 3 4
3 2 4 13
3 5 3 12
3 3 5 4
3 4 5 6
3 4 6 13
3 13 6 14
3 6 5 7
3 6 7 14
3 5 8 7
3 10 0 9
3 9 0 1
3 10 11 0
3 11 12 0
3 1 2 18
3 18 2 13
3 5 12 19
3 15 5 19
3 5 15 8
3 7 16 14
3 17 7 8
3 20 7 17
3 7 20 16
3 9 1 22
3 22 1 23
3 23 1 24
3 25 19 12
3 25 27 19
3 27 15 19
3 8 15 21
3 8 21 17
3 9 29 30
3 22 29 9
3 30 10 9
3 30 31 10
3 31 11 10
3 31 32 11
3 32 12 11
3 18 24 1
3 32 25 12
3 13 26 18
3 14 26 13
3 14 28 26
3 16 28 14
3 41 15 27
3 16 20 28
3 41 21 15
3 17 21 44
3 17 43 20
3 17 44 43
3 29 22 45
3 23 45 22
3 23 24 48
3 24 33 48
3 18 33 24
3 32 34 25
3 33 18 56
3 56 18 26
3 36 35 37
3 56 26 58
3 35 38 37
3 37 38 39
3 25 34 27
3 40 26 28
3 26 40 58
3 28 20 42
3 42 40 28
3 20 43 42
3 63 21 41
3 21 63 44
3 44 65 43
3 30 66 69
3 29 67 30
3 30 67 66
3 67 29 46
3 46 29 45
3 47 46 45
3 47 45 68
3 45 23 68
3 48 68 23
3 31 69 50
3 69 31 30
3 51 71 33
3 33 71 48
3 32 50 73
3 31 50 32
3 52 49 36
3 32 73 34
3 53 54 49
3 52 36 55
3 51 33 56
3 74 54 53
3 35 49 54
3 36 49 35
3 37 55 36
3 73 75 34
3 57 55 37
3 35 54 38
3 39 57 37
3 75 27 34
3 59 54 74
3 38 54 59
3 27 75 61
3 38 59 60
3 38 60 39
3 57 39 62
3 27 61 41
3 39 60 62
3 63 41 61
3 44 63 64
3 44 64 65
3 79 43 65
3 43 79 42
3 68 70 47
3 48 71 68
3 52 81 49
3 81 80 49
3 73 50 84
3 85 67 46
3 83 46 47
3 47 70 83
3 72 71 51
3 80 53 49
3 52 55 81
3 46 83 85
3 56 72 51
3 72 56 86
3 88 74 53
3 90 75 73
3 86 56 92
3 89 55 93
3 93 55 57
3 58 76 56
3 56 76 92
3 94 61 75
3 97 59 74
3 98 57 62
3 95 77 64
3 40 76 58
3 100 95 64
3 40 101 76
3 102 60 59
3 63 61 78
3 61 99 78
3 65 64 77
3 77 79 65
3 101 40 42
3 60 98 62
3 60 102 98
3 78 103 63
3 64 103 100
3 64 63 103
3 104 42 79
3 69 66 105
3 106 50 69
3 67 82 66
3 66 82 105
3 82 67 109
3 67 85 109
3 107 71 72
3 70 87 83
3 107 72 86
3 112 53 80
3 83 87 85
3 107 86 114
3 91 109 85
3 85 87 91
3 114 86 92
3 90 94 75
3 87 96 95
3 91 87 95
3 114 92 117
3 119 91 95
3 117 92 76
3 120 61 94
3 117 76 121
3 93 57 123
3 123 57 98
3 95 96 77
3 120 99 61
3 119 95 100
3 77 96 125
3 76 101 121
3 127 102 59
3 125 79 77
3 79 125 104
3 42 104 101
3 106 69 105
3 68 71 128
3 70 128 133
3 70 68 128
3 108 128 71
3 131 80 132
3 80 81 132
3 133 115 70
3 108 71 107
3 108 107 110
3 135 81 55
3 115 87 70
3 111 110 113
3 136 73 84
3 114 110 107
3 110 114 113
3 115 116 87
3 137 91 140
3 96 87 116
3 114 117 113
3 113 117 118
3 113 118 138
3 97 74 88
3 140 91 119
3 118 117 122
3 116 125 96
3 124 117 121
3 117 124 122
3 142 119 100
3 121 101 126
3 121 126 124
3 142 100 103
3 126 101 146
3 145 78 99
3 145 103 78
3 146 101 104
3 129 108 130
3 105 149 106
3 105 82 149
3 128 129 133
3 128 108 129
3 108 110 130
3 130 110 111
3 109 149 82
3 149 109 152
3 111 113 134
3 152 109 91
3 134 113 138
3 152 91 137
3 138 118 141
3 116 157 125
3 122 141 118
3 140 119 142
3 125 157 143
3 144 122 124
3 145 156 103
3 156 142 103
3 143 104 125
3 104 147 146
3 143 147 104
3 146 147 126
3 124 126 144
3 102 159 98
3 147 160 126
3 160 144 126
3 162 130 148
3 130 162 129
3 106 149 150
3 129 151 133
3 151 129 162
3 148 130 111
3 148 111 164
3 150 149 154
3 111 134 164
3 152 154 149
3 115 133 153
3 133 151 153
3 112 88 53
3 154 152 155
3 134 138 165
3 152 137 155
3 116 115 153
3 139 116 153
3 137 140 155
3 155 140 156
3 116 139 157
3 142 156 140
3 122 158 141
3 59 97 127
3 147 143 160
3 144 161 122
3 127 159 102
3 160 161 144
3 162 148 163
3 162 163 169
3 163 148 168
3 169 172 162
3 172 151 162
3 148 164 171
3 131 112 80
3 132 81 135
3 172 153 151
3 172 175 153
3 89 135 55
3 176 154 155
3 175 139 153
3 165 141 178
3 138 141 165
3 176 155 180
3 180 155 156
3 175 166 139
3 166 157 139
3 141 158 178
3 166 143 157
3 160 143 166
3 122 161 185
3 166 167 160
3 161 167 186
3 167 161 160
3 170 163 168
3 171 189 148
3 189 168 148
3 191 106 150
3 169 163 190
3 190 163 170
3 173 112 131
3 172 169 174
3 173 177 112
3 175 172 174
3 165 164 134
3 177 88 112
3 196 154 176
3 174 182 175
3 165 178 177
3 177 178 179
3 177 179 88
3 197 176 180
3 179 178 181
3 179 181 97
3 88 179 97
3 166 175 182
3 97 181 183
3 97 183 127
3 159 123 98
3 184 167 166
3 184 187 167
3 185 158 122
3 186 167 187
3 161 186 203
3 161 203 185
3 131 193 173
3 131 206 193
3 206 131 132
3 164 192 171
3 193 192 177
3 177 173 193
3 174 169 194
3 169 190 194
3 165 192 164
3 190 195 194
3 192 165 177
3 174 194 182
3 194 198 182
3 166 182 198
3 199 187 198
3 199 210 187
3 158 200 178
3 178 200 181
3 184 166 198
3 198 187 184
3 181 200 201
3 181 201 183
3 185 200 158
3 183 201 127
3 201 213 127
3 213 159 127
3 202 186 187
3 168 204 170
3 168 189 204
3 171 192 189
3 189 192 205
3 205 193 206
3 188 106 191
3 205 192 193
3 190 170 208
3 170 204 208
3 207 206 132
3 132 135 207
3 195 190 208
3 207 135 216
3 216 135 89
3 136 90 73
3 195 199 194
3 218 216 89
3 93 218 89
3 194 199 198
3 221 218 93
3 199 220 209
3 210 199 209
3 221 93 123
3 212 221 123
3 159 213 212
3 123 159 212
3 210 202 187
3 203 200 185
3 214 200 203
3 201 200 214
3 222 186 202
3 222 203 186
3 201 214 213
3 204 189 223
3 189 205 223
3 223 205 224
3 206 224 205
3 204 223 225
3 207 224 206
3 204 215 208
3 204 225 215
3 191 150 154
3 207 216 217
3 215 229 208
3 228 154 196
3 195 208 229
3 229 220 199
3 195 229 199
3 216 218 217
3 217 218 219
3 218 221 219
3 211 180 156
3 219 221 212
3 232 99 120
3 156 233 211
3 210 209 202
3 231 222 209
3 209 222 202
3 231 234 222
3 233 145 99
3 233 156 145
3 213 236 212
3 203 222 214
3 222 236 214
3 236 213 214
3 223 224 225
3 224 226 225
3 207 226 224
3 215 225 227
3 226 207 238
3 238 207 217
3 215 227 229
3 227 230 229
3 229 230 220
3 238 217 241
3 241 217 219
3 230 231 220
3 220 231 209
3 197 180 211
3 241 219 212
3 232 233 99
3 234 235 222
3 235 236 222
3 236 235 212
3 244 106 188
3 84 244 245
3 50 244 84
3 244 50 106
3 228 191 154
3 225 226 237
3 226 238 237
3 245 136 84
3 239 227 225
3 225 237 239
3 230 227 239
3 237 240 239
3 237 238 240
3 238 241 240
3 196 176 197
3 242 230 239
3 239 240 242
3 240 243 242
3 240 241 243
3 231 230 242
3 234 231 242
3 242 243 234
3 241 212 243
3 235 234 243
3 212 235 243
3 246 244 188
3 188 191 246
3 245 90 136
3 232 120 94
3 233 232 249
3 249 211 233
3 244 246 245
3 247 246 191
3 191 228 247
3 228 196 247
3 248 90 245
3 94 90 248
3 196 197 247
3 232 94 248
3 211 251 197
3 249 251 211
3 245 246 250
3 246 247 250
3 248 245 250
3 250 251 248
3 250 247 251
3 247 197 251
3 232 248 251
3 249 232 251
