ply
format ascii 1.0
element vertex 252
property float x
property float y
property float z
element face 500
property list uchar int vertex_indices
end_header
-0.950138 -0.109048 -0.336099
-0.980661 -0.056230 -0.192159
-0.972712 0.043661 -0.337353
-0.969746 0.092529 -0.201257
-0.842433 -0.239464 -0.323237
-0.905775 -0.206215 -0.197316
-0.841315 -0.192156 -0.096379
-0.923923 -0.100887 -0.099131
-0.883016 -0.114824 -0.434585
-0.930766 0.035247 -0.409948
-0.942943 0.062311 -0.112011
-0.867904 0.217225 -0.176825
-0.881690 0.185557 -0.344768
-0.816556 0.048541 -0.025375
-0.824025 0.149775 -0.455890
-0.814955 0.171146 -0.062445
-0.714928 -0.264536 -0.188019
-0.666307 -0.193878 -0.550476
-0.824296 -0.108033 -0.035754
-0.808744 -0.019698 -0.508043
-0.672529 0.160852 -0.561547
-0.662166 0.241975 -0.503872
-0.736314 0.301960 -0.296428
-0.728243 0.277781 -0.172541
-0.607836 -0.320793 -0.371605
-0.693347 -0.105349 -0.045495
-0.586832 0.224073 -0.142050
-0.538412 -0.207844 -0.157888
-0.586177 -0.146895 -0.084492
-0.599804 -0.041679 -0.632210
-0.695684 0.141849 -0.050272
-0.556554 0.305020 -0.456282
-0.594399 0.310570 -0.282635
-0.469854 -0.302348 -0.335817
-0.443865 -0.292509 -0.512665
-0.589549 -0.185998 -0.615774
-0.496061 -0.163300 -0.646281
-0.467720 -0.022747 -0.688527
-0.567080 0.036296 -0.067708
-0.599517 0.181934 -0.595726
-0.469241 0.208242 -0.608477
-0.385578 -0.178600 -0.251006
-0.482167 -0.040849 -0.122480
-0.404802 -0.066065 0.424814
-0.392624 -0.135192 0.578121
-0.414766 -0.007524 0.582726
-0.414512 0.113553 0.470411
-0.494910 0.143294 -0.140814
-0.365775 0.162773 0.564714
-0.506762 0.250681 -0.216565
-0.354908 -0.197410 0.444332
-0.346142 -0.214827 0.568261
-0.316557 -0.138462 -0.710946
-0.308249 -0.168601 0.287048
-0.326153 -0.074420 -0.033573
-0.327554 0.062975 0.010933
-0.316300 -0.050186 -0.247584
-0.327106 0.076369 -0.037657
-0.306580 0.121046 0.233710
-0.329565 0.075793 -0.238289
-0.270008 0.068383 0.745945
-0.339763 0.213147 -0.302199
-0.345396 0.212647 0.432519
-0.326310 0.296425 -0.479811
-0.206583 -0.290512 -0.583267
-0.195507 -0.314177 0.527077
-0.164626 -0.276178 0.256618
-0.247802 -0.192032 -0.055409
-0.278472 -0.161239 0.032233
-0.326995 -0.016375 -0.741472
-0.299958 -0.043029 0.190823
-0.284425 -0.044989 -0.094095
-0.293444 -0.001761 0.122796
-0.311889 0.169113 -0.693178
-0.191017 0.088004 -0.770640
-0.227921 0.165027 -0.112040
-0.222363 0.216122 -0.037902
-0.200888 0.260579 0.252592
-0.260942 0.284409 -0.595866
-0.245886 -0.173920 -0.340423
-0.242163 -0.182052 0.149853
-0.176994 -0.186302 -0.737401
-0.196552 -0.150248 -0.139760
-0.187698 -0.215132 0.701818
-0.216060 -0.059316 0.772350
-0.199779 -0.005861 -0.319119
-0.228355 0.208915 0.084229
-0.140152 0.222402 -0.412567
-0.204962 0.194921 0.704412
-0.196988 0.316610 0.501874
-0.013517 0.296852 -0.652406
-0.135386 0.310159 -0.516630
-0.167085 -0.277660 -0.466914
-0.060932 -0.292235 0.029930
-0.126137 -0.334943 0.495059
-0.129483 -0.261395 -0.678457
-0.102144 -0.118405 -0.374718
-0.206900 -0.065057 -0.773479
-0.070032 0.045460 -0.362719
-0.145970 0.062420 -0.184573
-0.183735 0.078712 0.793252
-0.190303 0.225911 -0.696393
-0.071626 0.270686 0.165204
-0.003724 0.297366 0.060123
-0.078753 0.280430 0.334115
-0.096865 -0.325811 0.580754
-0.019186 -0.305328 0.495184
-0.014752 -0.291736 0.147085
-0.032034 -0.203794 -0.759600
-0.105063 -0.202832 -0.150482
-0.102046 -0.089848 -0.210336
-0.017874 -0.101645 -0.229545
-0.058423 -0.146426 0.810320
-0.051061 0.039328 -0.826801
-0.047038 0.028695 0.838975
-0.062633 0.190649 -0.757592
-0.137480 0.215423 -0.136052
-0.014275 0.199465 -0.170908
-0.061449 0.213442 0.752979
-0.101614 0.332438 0.594848
-0.129811 0.350442 0.518331
0.132462 -0.313790 -0.591144
0.063672 -0.308981 0.589034
-0.058368 -0.284406 0.305316
-0.010810 -0.265294 0.724028
0.056762 -0.223290 -0.166978
0.032367 -0.232270 0.310545
0.104207 -0.194793 -0.814554
0.091776 -0.192948 0.813562
-0.032767 0.038092 -0.230981
0.256089 0.211847 -0.397549
0.082269 0.194667 -0.789646
0.098678 0.194053 0.800097
0.036223 0.206839 0.270812
0.053355 0.206198 0.350495
0.034261 0.313323 -0.043604
0.055070 0.310612 0.680303
0.076352 0.317328 0.564194
0.198847 -0.323343 0.057208
0.185816 -0.220280 -0.440443
0.064263 -0.067893 -0.858616
0.121382 -0.167762 0.322166
0.201129 0.010818 -0.341295
0.033629 -0.061061 0.860487
0.055217 0.038585 0.867425
0.046037 0.054028 -0.861600
0.123730 0.186362 0.302195
0.345205 0.326232 -0.581239
0.173007 -0.301316 -0.692742
0.270284 -0.330871 -0.029485
0.184343 -0.279414 0.722981
0.126367 -0.215672 0.222012
0.092448 -0.243038 0.451536
0.269442 -0.245702 -0.203033
0.174285 -0.188220 0.326571
0.260828 -0.097001 -0.857071
0.249988 0.074246 -0.858707
0.214636 0.081670 -0.298352
0.088193 0.210888 0.215990
0.140838 0.216770 0.402798
0.245489 0.215633 -0.218584
0.197996 0.239259 0.218153
0.179297 0.297971 -0.702355
0.293564 0.334280 -0.046971
0.289970 -0.317168 0.583348
0.262920 -0.301387 0.481467
0.248359 -0.257955 0.211627
0.281526 -0.194804 0.806233
0.270623 -0.234487 -0.777824
0.318407 -0.288553 0.325480
0.215800 -0.119830 -0.287831
0.266422 -0.170922 -0.357918
0.236778 0.000395 0.865584
0.261385 0.143794 -0.337659
0.284370 0.231713 -0.773072
0.261275 0.252876 0.353080
0.296136 0.199508 0.777844
0.273383 0.345275 0.050390
0.295333 0.315067 0.502543
0.161391 0.303909 0.697513
0.295291 0.317976 0.608357
0.361066 -0.308210 -0.607207
0.418038 -0.327993 0.174630
0.304586 -0.278483 -0.442688
0.427676 -0.342028 0.373082
0.329170 -0.239847 -0.276461
0.372140 -0.119949 0.819592
0.348072 0.255899 -0.306162
0.411862 0.345918 -0.511300
0.401878 0.321908 -0.136126
0.421547 0.350316 0.207542
0.410851 0.339847 0.408420
0.409406 -0.313513 -0.136531
0.492808 -0.312448 -0.017436
0.478357 -0.323345 0.474284
0.446840 -0.234727 0.685211
0.418731 -0.182683 -0.788518
0.529530 -0.090829 0.727042
0.426591 0.010501 -0.836546
0.350559 0.027919 0.845567
0.424675 0.175961 -0.788854
0.460297 0.237743 0.671608
0.429890 0.344028 0.040768
0.484672 -0.306006 -0.214036
0.555746 -0.225661 -0.714915
0.486156 0.154903 0.727789
0.448306 0.323741 0.497686
0.456208 0.321758 -0.166200
0.504363 0.332121 -0.512695
0.563676 -0.301286 -0.549861
0.540914 -0.333577 0.333514
0.603758 -0.303533 -0.388268
0.698415 -0.185967 -0.633191
0.598039 -0.121463 -0.765845
0.577818 0.095586 -0.776353
0.566427 0.229831 -0.708128
0.591171 0.149364 0.639339
0.611059 0.228097 -0.063126
0.607455 0.264293 0.089846
0.496516 0.350231 0.182215
0.589430 0.299656 -0.313379
0.513651 0.345735 0.305805
0.674189 -0.245084 0.159590
0.650055 -0.278054 -0.516498
0.722342 -0.206043 0.405414
0.679520 -0.170846 -0.036170
0.580872 -0.190558 0.636796
0.608411 -0.084372 0.675414
0.727243 -0.033300 -0.715853
0.766072 0.002892 0.530261
0.705152 0.053376 -0.014523
0.667533 0.202535 -0.688045
0.661600 0.268807 -0.569558
0.717729 0.204008 0.217236
0.698442 0.225285 0.447526
0.709943 -0.201702 -0.262684
0.763037 -0.137097 0.178687
0.755618 -0.119867 0.513335
0.763087 -0.118179 -0.201311
0.759168 -0.003636 0.104311
0.751447 0.031456 -0.178534
0.729579 0.136993 0.110937
0.774468 0.128171 0.448895
0.727895 0.184342 -0.629026
0.713303 0.186771 -0.290000
0.784610 -0.075685 -0.284179
0.765957 -0.092556 -0.655938
0.803040 -0.062641 0.426940
0.775738 0.025886 -0.648207
0.789548 0.056363 0.198707
0.752162 0.094775 -0.694007
0.780377 0.070773 -0.283420
3 0 2 1
3 1 2 3
3 1 3 10
3 4 0 5
3 8 0 4
3 6 5 7
3 5 0 1
3 5 1 7
3 8 9 0
3 10 7 1
3 7 10 13
3 0 9 2
3 12 9 14
3 12 2 9
3 13 10 15
3 10 3 11
3 10 11 15
3 2 12 3
3 3 12 11
3 6 7 18
3 19 9 8
3 7 13 18
3 19 14 9
3 22 11 12
3 4 16 24
3 24 17 4
3 5 16 4
3 5 6 16
3 4 17 8
3 25 16 6
3 25 6 18
3 17 19 8
3 19 20 14
3 21 14 20
3 14 21 12
3 21 22 12
3 23 11 22
3 23 15 11
3 19 17 29
3 20 19 29
3 25 18 13
3 25 13 30
3 30 13 15
3 30 15 23
3 30 23 26
3 32 26 23
3 23 22 32
3 24 16 33
3 16 27 33
3 34 35 17
3 16 28 27
3 16 25 28
3 35 29 17
3 38 28 25
3 30 38 25
3 29 39 20
3 26 38 30
3 20 39 21
3 21 31 22
3 31 32 22
3 34 17 24
3 34 36 35
3 27 28 42
3 36 37 29
3 35 36 29
3 42 28 38
3 42 38 47
3 40 29 37
3 29 40 39
3 47 38 26
3 39 40 21
3 47 26 49
3 49 26 32
3 24 33 34
3 41 33 27
3 42 41 27
3 52 37 36
3 43 45 44
3 43 46 45
3 47 59 42
3 45 46 48
3 40 31 21
3 63 49 32
3 32 31 63
3 64 36 34
3 51 50 44
3 42 56 41
3 43 50 53
3 44 50 43
3 54 55 68
3 43 53 70
3 69 37 52
3 54 57 55
3 58 43 70
3 69 73 37
3 42 59 56
3 43 58 46
3 48 60 45
3 73 40 37
3 59 47 61
3 47 49 61
3 62 46 58
3 48 46 62
3 73 78 40
3 40 78 63
3 31 40 63
3 61 49 63
3 52 36 64
3 79 33 41
3 51 65 50
3 50 66 53
3 54 67 71
3 67 54 68
3 68 55 72
3 45 84 44
3 45 60 84
3 54 71 57
3 69 74 73
3 85 56 59
3 71 75 57
3 72 55 86
3 76 57 75
3 57 76 55
3 76 86 55
3 58 77 62
3 62 89 48
3 34 92 64
3 92 34 33
3 65 66 50
3 52 95 81
3 95 52 64
3 92 33 79
3 67 68 93
3 68 80 93
3 65 51 83
3 66 80 53
3 51 44 83
3 67 82 71
3 84 83 44
3 52 81 97
3 79 41 56
3 72 80 68
3 80 72 70
3 53 80 70
3 52 97 69
3 56 85 79
3 82 99 71
3 97 74 69
3 84 60 100
3 99 75 71
3 72 58 70
3 85 59 87
3 72 86 58
3 58 86 77
3 87 59 61
3 48 88 60
3 60 88 100
3 74 101 73
3 78 73 101
3 48 89 88
3 78 101 90
3 91 63 78
3 90 91 78
3 87 61 63
3 87 63 91
3 77 89 62
3 94 65 105
3 94 66 65
3 83 105 65
3 95 108 81
3 67 109 82
3 66 93 80
3 96 92 79
3 109 110 82
3 112 83 84
3 108 97 81
3 108 113 97
3 96 85 98
3 79 85 96
3 110 99 82
3 112 84 114
3 113 74 97
3 114 84 100
3 85 87 98
3 99 116 75
3 118 100 88
3 115 101 74
3 75 116 76
3 102 77 86
3 89 119 88
3 119 118 88
3 103 86 76
3 102 86 103
3 102 104 77
3 104 89 77
3 104 120 89
3 89 120 119
3 94 105 106
3 64 121 95
3 64 92 121
3 106 105 122
3 67 93 109
3 66 107 93
3 107 66 123
3 94 123 66
3 123 94 106
3 105 124 122
3 124 105 83
3 83 112 124
3 109 111 110
3 129 110 111
3 99 110 129
3 113 115 74
3 130 98 87
3 117 99 129
3 114 100 118
3 99 117 116
3 136 118 119
3 90 101 115
3 135 76 116
3 103 76 135
3 119 120 137
3 136 119 137
3 95 121 108
3 125 109 93
3 126 107 123
3 106 126 123
3 139 92 96
3 124 112 128
3 108 127 140
3 125 111 109
3 128 112 143
3 113 108 140
3 142 96 98
3 143 114 144
3 112 114 143
3 145 113 140
3 142 98 130
3 144 114 132
3 131 113 145
3 113 131 115
3 132 114 118
3 102 133 104
3 133 134 104
3 132 118 136
3 131 90 115
3 147 87 91
3 117 135 116
3 104 134 137
3 137 120 104
3 108 121 148
3 93 149 125
3 93 138 149
3 138 107 151
3 138 93 107
3 106 122 152
3 122 124 150
3 148 127 108
3 92 139 121
3 125 149 153
3 124 128 150
3 126 151 107
3 106 152 126
3 141 126 152
3 127 155 140
3 141 151 126
3 155 156 140
3 156 145 140
3 157 160 129
3 160 117 129
3 133 158 146
3 146 134 133
3 146 159 134
3 102 103 158
3 158 133 102
3 134 159 137
3 130 87 147
3 163 135 117
3 131 162 90
3 122 165 152
3 151 166 138
3 167 150 128
3 170 125 153
3 166 151 154
3 165 154 152
3 154 141 152
3 139 96 142
3 170 111 125
3 154 151 141
3 170 157 111
3 157 129 111
3 156 131 145
3 161 146 158
3 172 144 132
3 158 103 161
3 160 163 117
3 161 103 177
3 178 137 159
3 179 132 136
3 147 91 90
3 137 179 136
3 135 177 103
3 121 181 148
3 165 122 164
3 164 122 150
3 181 168 148
3 139 183 121
3 169 165 184
3 168 127 148
3 183 139 171
3 166 154 169
3 165 169 154
3 168 155 127
3 142 171 139
3 167 128 172
3 172 128 143
3 171 142 170
3 170 142 157
3 172 143 144
3 174 131 156
3 173 142 130
3 142 173 157
3 176 172 132
3 146 161 175
3 146 175 159
3 131 174 162
3 176 132 179
3 175 178 159
3 179 180 176
3 147 90 162
3 178 180 137
3 137 180 179
3 163 177 135
3 182 149 138
3 182 138 166
3 165 194 184
3 194 165 164
3 168 181 196
3 192 153 149
3 164 150 195
3 150 167 195
3 171 185 183
3 153 185 170
3 167 186 195
3 170 185 171
3 196 155 168
3 186 167 172
3 186 172 199
3 200 174 156
3 199 172 176
3 187 157 173
3 130 187 173
3 157 187 160
3 130 188 187
3 187 189 160
3 174 147 162
3 174 200 147
3 189 163 160
3 161 190 175
3 175 190 191
3 201 176 180
3 188 130 147
3 177 190 161
3 175 191 178
3 163 202 177
3 193 149 182
3 182 169 184
3 121 183 181
3 149 193 192
3 192 193 203
3 169 182 166
3 195 194 164
3 196 181 204
3 185 153 192
3 195 186 197
3 196 198 155
3 199 197 186
3 156 155 198
3 200 156 198
3 176 205 199
3 201 180 206
3 163 189 202
3 202 189 207
3 191 206 178
3 180 178 206
3 177 202 190
3 203 209 181
3 182 184 210
3 210 184 194
3 203 181 183
3 185 203 183
3 185 192 203
3 209 204 181
3 196 204 213
3 213 198 196
3 199 205 197
3 214 200 198
3 214 215 200
3 216 205 201
3 205 176 201
3 215 147 200
3 216 201 206
3 207 217 202
3 217 218 202
3 218 219 202
3 208 147 215
3 188 147 208
3 187 188 208
3 207 187 208
3 187 207 189
3 219 190 202
3 219 221 190
3 190 221 191
3 221 206 191
3 211 209 203
3 182 222 193
3 222 182 210
3 204 209 212
3 225 203 193
3 193 222 225
3 194 195 226
3 226 195 197
3 226 197 227
3 213 214 198
3 227 197 216
3 216 197 205
3 215 231 208
3 220 217 207
3 221 234 206
3 216 206 234
3 207 208 220
3 211 223 209
3 224 222 210
3 194 224 210
3 209 223 212
3 211 203 235
3 224 194 226
3 235 203 225
3 225 222 236
3 212 228 213
3 204 212 213
3 227 237 226
3 236 239 225
3 225 239 230
3 214 213 228
3 231 214 228
3 227 216 229
3 217 240 230
3 230 241 217
3 214 231 215
3 232 208 231
3 218 233 219
3 220 208 232
3 221 219 233
3 234 221 233
3 235 223 211
3 223 235 212
3 237 224 226
3 238 235 225
3 227 229 237
3 240 238 225
3 225 230 240
3 250 231 228
3 241 230 239
3 229 216 242
3 250 243 231
3 244 240 217
3 217 241 218
3 241 233 218
3 234 242 216
3 232 231 243
3 243 244 232
3 244 220 232
3 220 244 217
3 228 212 246
3 235 245 212
3 238 245 235
3 212 245 246
3 222 224 236
3 224 247 236
3 224 237 247
3 237 229 247
3 246 245 248
3 238 240 245
3 236 249 239
3 236 247 249
3 248 228 246
3 250 228 248
3 245 251 248
3 245 240 251
3 247 242 249
3 247 229 242
3 243 250 248
3 239 249 241
3 248 251 243
3 249 233 241
3 249 242 233
3 242 234 233
3 251 244 243
3 244 251 240
