ply
format ascii 1.0
element vertex 248
property float x
property float y
property float z
element face 500
property list uchar int vertex_indices
end_header
-0.571167 -0.134872 -0.895785
-0.552277 -0.169176 -0.739819
-0.552109 -0.158636 0.331581
-0.594787 -0.173809 0.430481
-0.608983 -0.039369 0.488259
-0.547534 -0.160288 0.524929
-0.604246 -0.028863 -0.750798
-0.593908 0.007233 -0.972597
-0.622684 0.036275 -0.884206
-0.636562 0.036051 0.368628
-0.585548 -0.044652 0.270009
-0.593373 0.063619 0.286142
-0.578497 0.137188 -0.779310
-0.574690 0.142533 0.479854
-0.552842 0.163779 -0.917189
-0.543880 0.174981 0.340632
-0.436610 -0.287201 -0.830853
-0.474225 -0.226693 -0.953067
-0.540329 -0.130582 -0.637104
-0.462764 -0.148550 -0.502351
-0.507749 -0.020201 -0.507320
-0.442550 -0.069295 0.677538
-0.503208 -0.103828 -1.021254
-0.343954 -0.070608 0.052736
-0.568812 0.059731 -0.644972
-0.324749 0.010519 0.027387
-0.469085 0.094566 -1.017956
-0.468551 0.154809 -0.513204
-0.441360 0.091787 0.672049
-0.505066 0.204970 -0.660341
-0.452764 0.231901 -0.947312
-0.369554 -0.324775 0.433144
-0.454665 -0.262227 -0.708657
-0.384318 -0.270063 -0.590999
-0.324462 -0.174263 0.639947
-0.349368 -0.096579 -0.337936
-0.283833 0.163723 0.065220
-0.462243 0.206946 0.584648
-0.439558 0.285142 -0.883212
-0.403092 0.301121 -0.765013
-0.396455 0.274187 -0.573009
-0.385339 0.237099 -0.477888
-0.405647 0.297776 0.460142
-0.334563 -0.310934 -0.875600
-0.294424 -0.360810 0.362132
-0.376860 -0.176127 -1.024771
-0.308139 -0.300124 0.250644
-0.271815 -0.213435 -0.369382
-0.255245 -0.192467 0.084579
-0.219338 -0.022677 -1.074689
-0.335893 0.010644 -0.313934
-0.297901 0.173079 -0.356882
-0.343758 0.209265 0.629320
-0.332901 0.271091 0.214929
-0.292509 0.353830 0.347534
-0.313844 0.320332 -0.850003
-0.316568 -0.339644 -0.763383
-0.271897 -0.341452 -0.632878
-0.220088 -0.290585 -0.467514
-0.188646 -0.106037 -1.060072
-0.348864 -0.032946 0.717601
-0.222620 -0.136411 -0.269474
-0.210780 0.043329 -0.204812
-0.337540 0.105836 0.707073
-0.191251 0.111656 -1.054485
-0.220063 0.221423 -0.967785
-0.198997 0.280064 -0.462230
-0.288949 0.336108 -0.631344
-0.232391 -0.356597 0.425842
-0.199227 -0.343458 0.291090
-0.050841 -0.194718 0.615093
-0.226024 -0.062498 -0.047439
-0.206459 0.114442 -0.053835
-0.080685 0.156893 0.657988
-0.220484 0.273034 0.145247
-0.238469 0.359940 0.420970
-0.198766 0.341586 -0.715994
-0.177994 -0.329757 -0.792351
-0.205850 -0.344704 -0.657911
-0.073450 -0.297740 -0.662547
-0.158578 -0.190127 -0.972836
-0.142764 -0.247823 -0.332644
-0.124773 -0.193681 -0.196529
-0.177943 -0.193919 0.018699
-0.122692 -0.215838 -0.042309
-0.130204 -0.061242 -1.049226
-0.056241 -0.091483 0.685464
-0.045454 0.032405 0.687593
-0.103874 0.088533 -1.022153
-0.157178 0.247417 -0.344279
-0.101619 0.228713 -0.222171
-0.120293 0.226594 -0.033402
-0.189019 0.201095 0.020767
-0.120861 0.263022 0.088175
-0.100703 0.259872 0.568605
-0.161117 0.321412 -0.823937
-0.005243 0.228789 -0.869985
-0.080406 0.247149 -0.514269
-0.150606 0.341226 0.328549
-0.119431 -0.330583 0.271478
-0.090891 -0.324329 0.403752
0.026131 -0.274210 -0.768611
-0.111800 -0.264145 -0.460861
-0.114015 -0.267150 0.076602
-0.033245 -0.281475 0.229212
-0.002734 -0.233959 -0.853462
0.000606 -0.288359 -0.210923
-0.036472 -0.277828 -0.080698
0.037653 -0.139282 -0.456575
0.038352 -0.065425 -0.925660
0.058638 0.126849 -0.896311
-0.107508 0.257133 -0.409592
0.026707 0.281498 -0.747917
0.032078 0.307956 -0.168871
-0.036465 0.262376 0.037771
-0.036787 0.283938 -0.644999
-0.027276 0.296148 0.490283
0.003672 -0.258781 -0.340704
-0.031553 -0.279099 0.045759
0.091337 -0.260105 0.432280
0.054208 -0.234306 0.552989
-0.010229 -0.174831 -0.517094
0.030701 -0.230566 0.108145
0.029390 -0.080311 0.651135
0.044165 -0.008085 -0.502692
0.034706 0.134627 0.631273
-0.027916 0.188525 -0.501393
0.051542 0.139780 -0.447352
0.054656 0.177499 0.135089
0.044611 0.228196 0.265836
-0.009152 0.280628 -0.295608
0.037871 0.272132 -0.010934
0.055273 0.285678 0.419923
0.067873 -0.290905 -0.079688
0.111001 -0.244775 -0.627869
0.114625 -0.239205 -0.383110
0.056226 -0.181187 0.236730
0.048010 -0.168936 -0.554659
0.109546 -0.188203 -0.502623
0.112393 -0.208773 0.047369
0.158004 -0.017531 0.290432
0.060481 -0.044501 -0.497225
0.124620 -0.006963 0.153721
0.097718 0.021188 0.209561
0.127624 -0.000468 -0.879531
0.035376 0.203935 -0.575833
0.091158 0.137981 -0.511511
0.123243 0.104041 0.273419
0.016856 0.253868 -0.348344
0.122338 0.172237 -0.821319
0.125387 0.223528 -0.588142
0.110908 0.210053 0.048298
0.070293 0.261293 -0.662542
0.082595 0.264873 -0.333437
0.110914 -0.299440 -0.222545
0.194294 -0.260146 -0.002664
0.172805 -0.245593 0.539539
0.187108 -0.237898 -0.471231
0.136074 -0.134060 -0.831587
0.213862 -0.211429 -0.649370
0.096221 -0.177016 0.593022
0.223443 -0.105850 0.354117
0.176587 -0.152024 0.111575
0.211756 -0.067963 0.197694
0.185230 -0.102942 0.654245
0.130222 0.042873 0.650037
0.230659 0.021265 0.231217
0.206970 0.044201 0.689288
0.223216 0.117938 0.174444
0.169215 0.147684 0.106757
0.179619 0.153445 0.352973
0.134632 0.200570 0.594375
0.236394 0.224130 -0.626023
0.164885 0.232637 -0.458411
0.225893 0.244060 0.047335
0.194139 0.254929 0.530234
0.177654 0.250626 -0.640677
0.117240 0.314809 -0.117211
0.123079 0.316735 -0.209508
0.197385 -0.281109 -0.270388
0.250134 -0.281473 -0.119653
0.263966 -0.183374 0.152217
0.279943 -0.180492 0.646949
0.291829 -0.098224 -0.623696
0.203365 0.001175 -0.814469
0.271573 0.033285 0.337146
0.290108 0.104132 -0.648793
0.252678 0.171501 0.649901
0.235493 0.220963 0.428569
0.315098 0.268969 -0.144962
0.236880 0.300084 -0.065852
0.322229 0.265750 0.495848
0.349795 -0.277868 0.073983
0.365151 -0.280980 0.493758
0.274010 -0.233719 -0.329925
0.282102 -0.223052 0.427705
0.385154 -0.275600 0.568776
0.353604 -0.169825 -0.239100
0.299159 -0.044711 0.299421
0.302219 -0.064269 0.341633
0.282243 -0.045107 0.700768
0.307858 0.095364 0.283377
0.304616 0.096452 0.702195
0.385541 0.144574 -0.226794
0.368945 0.192335 0.350610
0.323875 0.209128 0.177042
0.489981 -0.198411 -0.056717
0.385489 -0.233812 0.247359
0.405268 -0.235051 0.363075
0.402238 -0.036178 -0.243354
0.569757 0.181111 0.639181
0.491458 0.209389 -0.043204
0.406634 0.226167 0.262480
0.366677 0.251538 0.435034
0.387814 0.276679 0.101328
0.417011 0.263465 0.580747
0.477506 -0.261363 0.012523
0.532141 -0.284786 0.516558
0.489325 -0.284209 0.309319
0.536835 -0.190788 0.641164
0.477474 0.023024 -0.111299
0.583948 -0.010451 0.679667
0.484452 0.265755 0.033967
0.488621 0.271680 0.313024
0.507793 0.271720 0.513329
0.582893 -0.258497 0.208694
0.587721 0.267065 0.280125
0.594281 -0.281738 0.470959
0.554359 -0.151329 -0.026612
0.580920 -0.190572 0.028910
0.648327 -0.197893 0.152805
0.698330 -0.168942 0.389090
0.641951 -0.170417 0.584031
0.622904 0.027890 0.006467
0.649029 0.023730 0.039308
0.560700 0.123452 -0.022822
0.678520 0.081158 0.602890
0.602041 0.178218 0.062381
0.694787 0.167766 0.257674
0.705928 0.164101 0.398481
0.643721 0.205912 0.561702
0.705605 -0.145300 0.259532
0.685460 -0.086790 0.140082
0.738665 -0.005196 0.433685
0.691477 0.074797 0.143130
0.747020 0.071548 0.343248
0.752269 -0.041627 0.346530
0.742178 0.010328 0.267903
3 3 2 4
3 3 4 5
3 1 0 6
3 7 8 0
3 0 8 6
3 9 2 10
3 2 9 4
3 10 11 9
3 14 8 7
3 6 8 12
3 4 9 13
3 8 14 12
3 15 9 11
3 9 15 13
3 0 16 17
3 1 16 0
3 0 17 22
3 19 18 20
3 23 10 2
3 4 21 5
3 22 7 0
3 6 18 1
3 24 18 6
3 18 24 20
3 25 10 23
3 22 26 7
3 10 25 11
3 20 24 27
3 26 14 7
3 12 24 6
3 24 12 29
3 24 29 27
3 13 28 4
3 30 14 26
3 30 38 14
3 14 39 12
3 38 39 14
3 12 39 29
3 15 42 13
3 13 42 37
3 46 2 44
3 44 2 31
3 2 3 31
3 16 1 32
3 3 5 31
3 31 5 34
3 1 18 32
3 32 18 33
3 33 18 19
3 45 22 17
3 19 20 35
3 5 21 34
3 23 2 48
3 45 49 22
3 49 26 22
3 28 21 4
3 20 27 50
3 11 36 15
3 37 28 13
3 27 29 40
3 27 40 41
3 53 54 15
3 42 15 54
3 16 56 43
3 32 56 16
3 32 33 56
3 43 17 16
3 43 45 17
3 46 48 2
3 19 47 33
3 19 35 47
3 21 60 34
3 59 49 45
3 50 35 20
3 60 21 28
3 60 28 63
3 27 51 50
3 36 11 25
3 64 65 26
3 65 30 26
3 37 52 28
3 28 52 63
3 27 41 51
3 53 15 36
3 38 30 55
3 30 65 55
3 38 55 39
3 29 39 40
3 42 52 37
3 31 68 44
3 33 57 56
3 58 57 33
3 34 68 31
3 58 33 47
3 23 48 71
3 47 35 61
3 50 61 35
3 23 71 25
3 71 72 25
3 62 50 51
3 36 25 72
3 73 63 52
3 74 53 36
3 41 66 51
3 41 40 66
3 74 54 53
3 75 52 42
3 39 67 40
3 40 67 66
3 55 76 39
3 76 67 39
3 54 75 42
3 77 56 78
3 56 57 78
3 69 44 68
3 43 56 77
3 57 58 78
3 69 46 44
3 77 80 43
3 69 48 46
3 70 68 34
3 43 80 45
3 81 58 47
3 80 59 45
3 81 47 61
3 83 71 48
3 62 61 50
3 86 60 87
3 87 60 63
3 49 64 26
3 87 63 73
3 89 62 51
3 72 92 36
3 74 36 92
3 51 66 89
3 55 65 95
3 74 98 54
3 95 76 55
3 66 67 76
3 98 75 54
3 99 69 100
3 69 68 100
3 77 78 79
3 69 99 103
3 79 78 102
3 78 58 102
3 81 102 58
3 103 48 69
3 100 68 70
3 84 83 103
3 103 83 48
3 61 82 81
3 70 34 86
3 85 59 80
3 84 82 71
3 84 71 83
3 86 34 60
3 85 49 59
3 62 82 61
3 82 62 71
3 85 88 49
3 71 62 72
3 64 49 88
3 62 90 72
3 62 89 90
3 72 90 91
3 88 65 64
3 72 91 92
3 65 88 96
3 91 93 92
3 52 94 73
3 92 93 74
3 96 95 65
3 66 97 111
3 66 111 89
3 52 75 94
3 115 97 66
3 115 66 76
3 98 74 93
3 75 116 94
3 98 116 75
3 79 101 77
3 104 99 100
3 77 105 80
3 77 101 105
3 102 81 117
3 106 117 81
3 107 103 118
3 103 99 104
3 103 104 118
3 120 100 70
3 102 117 108
3 106 81 82
3 106 82 107
3 107 82 84
3 84 103 107
3 79 102 121
3 121 102 108
3 80 105 109
3 85 80 109
3 109 110 88
3 85 109 88
3 110 96 88
3 97 126 111
3 90 113 91
3 91 113 114
3 93 91 114
3 112 95 96
3 130 89 111
3 89 130 90
3 130 113 90
3 98 93 129
3 129 93 114
3 129 132 98
3 112 76 95
3 115 76 112
3 98 132 116
3 106 107 133
3 119 104 100
3 101 79 134
3 133 107 118
3 119 100 120
3 79 137 134
3 122 133 118
3 118 104 122
3 137 79 121
3 122 104 136
3 123 120 70
3 86 123 70
3 124 137 121
3 121 108 124
3 123 87 125
3 86 87 123
3 108 127 124
3 126 145 124
3 124 127 126
3 87 73 125
3 145 126 97
3 111 126 127
3 111 127 148
3 116 125 94
3 125 73 94
3 97 115 145
3 145 115 152
3 130 111 148
3 131 128 114
3 128 129 114
3 112 152 115
3 113 131 114
3 154 106 133
3 135 117 154
3 154 117 106
3 119 120 156
3 105 101 158
3 137 138 134
3 133 139 155
3 133 122 139
3 136 104 119
3 156 120 160
3 158 109 105
3 138 108 135
3 117 135 108
3 136 161 140
3 160 120 123
3 141 138 137
3 124 141 137
3 141 108 138
3 142 139 122
3 122 136 142
3 158 144 109
3 136 143 142
3 136 140 143
3 160 123 165
3 165 123 125
3 110 109 144
3 146 141 124
3 145 146 124
3 141 146 127
3 108 141 127
3 144 149 110
3 143 128 142
3 143 147 128
3 128 151 142
3 165 125 171
3 149 96 110
3 150 146 145
3 128 147 129
3 116 175 171
3 125 116 171
3 149 112 96
3 150 145 152
3 148 127 153
3 151 131 177
3 151 128 131
3 148 153 130
3 175 116 132
3 153 178 130
3 130 178 113
3 178 177 113
3 177 131 113
3 179 154 180
3 154 133 180
3 135 179 157
3 154 179 135
3 180 133 155
3 101 159 158
3 101 134 159
3 157 134 138
3 138 135 157
3 139 162 155
3 136 119 161
3 160 164 156
3 142 162 139
3 184 144 158
3 162 142 163
3 165 164 160
3 163 142 166
3 167 164 165
3 140 147 143
3 149 144 184
3 166 142 168
3 151 169 142
3 168 142 169
3 187 167 165
3 187 165 171
3 150 173 146
3 127 146 173
3 174 169 151
3 129 147 170
3 170 188 129
3 172 112 149
3 172 176 112
3 150 176 173
3 127 173 153
3 174 151 177
3 188 132 129
3 175 132 188
3 176 152 112
3 176 150 152
3 178 153 173
3 177 178 190
3 174 177 190
3 191 175 188
3 180 155 192
3 134 157 159
3 159 157 194
3 157 179 194
3 194 179 180
3 195 119 156
3 193 195 156
3 162 181 155
3 195 161 119
3 156 164 182
3 158 159 183
3 181 162 163
3 199 161 195
3 164 200 182
3 198 163 166
3 199 185 161
3 200 164 167
3 185 140 161
3 198 166 201
3 147 140 185
3 200 167 202
3 184 186 149
3 201 166 168
3 170 147 185
3 170 185 188
3 187 202 167
3 172 149 186
3 169 174 168
3 201 168 205
3 205 168 174
3 173 176 172
3 173 172 189
3 173 189 178
3 171 175 187
3 178 189 190
3 181 192 155
3 192 181 207
3 196 193 156
3 197 194 180
3 180 206 197
3 156 182 196
3 159 194 183
3 194 197 183
3 207 181 198
3 198 181 163
3 184 158 183
3 183 186 184
3 199 198 185
3 198 201 185
3 186 209 203
3 185 201 204
3 185 204 188
3 210 202 187
3 186 203 172
3 203 189 172
3 203 211 189
3 204 213 188
3 174 214 205
3 191 188 213
3 175 215 187
3 189 214 190
3 190 214 174
3 175 191 215
3 180 192 216
3 193 217 208
3 217 193 196
3 180 216 206
3 208 195 193
3 207 198 208
3 208 198 199
3 195 208 199
3 209 197 206
3 206 220 209
3 183 197 209
3 183 209 186
3 209 220 203
3 221 200 202
3 221 202 210
3 212 201 205
3 201 212 204
3 211 222 189
3 205 214 212
3 222 214 189
3 213 224 191
3 224 215 191
3 216 192 225
3 225 192 218
3 192 207 218
3 217 218 208
3 208 218 207
3 217 196 219
3 219 196 182
3 219 182 200
3 219 200 221
3 220 211 203
3 187 215 210
3 204 212 223
3 204 223 213
3 222 226 214
3 226 223 214
3 214 223 212
3 223 224 213
3 225 218 227
3 218 217 227
3 206 216 229
3 206 229 228
3 216 225 229
3 228 220 206
3 228 235 220
3 235 211 220
3 222 211 237
3 237 211 235
3 215 224 210
3 237 226 222
3 224 223 226
3 241 230 225
3 225 227 231
3 241 225 231
3 227 232 231
3 217 232 227
3 225 230 229
3 232 217 219
3 230 242 229
3 228 229 233
3 229 234 233
3 229 242 234
3 232 219 221
3 235 228 233
3 221 210 236
3 234 237 233
3 233 237 235
3 240 236 210
3 240 210 224
3 237 238 226
3 238 239 226
3 239 240 226
3 240 224 226
3 230 241 242
3 241 247 242
3 243 246 231
3 231 232 243
3 232 236 243
3 232 221 236
3 234 242 244
3 242 247 244
3 245 246 243
3 247 238 244
3 239 245 243
3 243 236 239
3 237 234 244
3 237 244 238
3 245 239 238
3 239 236 240
3 246 241 231
3 241 246 247
3 246 245 247
3 247 245 238
