ply
format ascii 1.0
element vertex 252
property float x
property float y
property float z
element face 500
property list uchar int vertex_indices
end_header
-0.405300 -0.127393 -0.190709
-0.404208 -0.120171 0.020633
-0.450673 -0.032584 -0.193423
-0.430669 0.009188 0.013627
-0.417218 0.097725 -0.168520
-0.400339 0.133139 0.022711
-0.337286 -0.217392 -0.135722
-0.345772 -0.223228 -0.029635
-0.354655 -0.182585 -0.188855
-0.424090 -0.021535 -0.240604
-0.357228 -0.141389 0.147876
-0.399618 -0.007562 0.110084
-0.373093 -0.026441 0.196700
-0.327433 -0.113846 0.347093
-0.348054 0.021355 0.353031
-0.367376 0.107389 0.144187
-0.387401 0.187984 -0.096923
-0.360059 0.168227 -0.186376
-0.325890 0.216871 -0.124431
-0.350591 0.220540 -0.020709
-0.355677 -0.202754 0.055237
-0.276748 -0.242857 0.090653
-0.262565 -0.224019 0.311646
-0.351471 -0.088076 -0.237482
-0.284965 -0.197275 -0.141769
-0.272332 -0.174556 0.418468
-0.320821 -0.041790 0.435742
-0.354622 0.007229 -0.264909
-0.354012 0.096344 -0.237332
-0.326664 0.071104 0.421610
-0.322012 0.134500 0.352871
-0.287760 0.175599 -0.171931
-0.279328 0.168219 0.419896
-0.355947 0.199688 0.049899
-0.297606 0.227299 0.093575
-0.252473 0.228660 0.322733
-0.269905 -0.244958 -0.040854
-0.188224 -0.265057 0.178164
-0.193484 -0.267892 0.287245
-0.190464 -0.246371 0.362783
-0.187241 -0.179947 0.505034
-0.184982 -0.146165 0.571802
-0.254105 -0.084244 -0.191667
-0.240020 -0.075530 0.568728
-0.272328 -0.094886 0.508878
-0.270167 0.036891 -0.215538
-0.275143 0.051167 0.518049
-0.233218 0.039265 0.589250
-0.183039 0.149785 0.562769
-0.202348 0.182633 0.506078
-0.271386 0.227552 -0.112037
-0.268466 0.244485 -0.040012
-0.192773 0.245219 0.363948
-0.210198 0.254160 0.098471
-0.174345 0.266478 0.262141
-0.203168 -0.227467 -0.035905
-0.180369 -0.236523 0.049054
-0.110922 -0.232688 0.161000
-0.117558 -0.249578 0.346984
-0.143958 -0.159330 -0.036984
-0.091475 -0.139204 0.034410
-0.197952 -0.039409 0.605827
-0.103746 -0.052711 -0.040164
-0.099191 0.082904 -0.035866
-0.175485 0.088389 0.606676
-0.131895 0.146850 -0.053465
-0.184876 0.218846 -0.028504
-0.119905 0.230723 0.139080
-0.116435 0.252552 0.344625
-0.125486 -0.259919 0.268633
-0.040895 -0.203028 0.240030
-0.114043 -0.212530 0.421381
-0.038499 -0.220017 0.353897
-0.016369 -0.179691 -0.984237
-0.049277 -0.134488 0.130981
-0.102528 -0.138412 0.498693
-0.146406 -0.128724 0.567385
-0.027848 -0.117540 -1.109499
-0.064847 -0.115140 -0.988023
-0.036537 -0.160758 0.446957
-0.066830 -0.023365 0.023759
-0.103940 -0.024568 0.566130
-0.074546 -0.035012 -1.113595
-0.074594 -0.001673 -0.950874
-0.042038 -0.120357 -0.908528
-0.074268 0.049241 0.506077
-0.140801 0.019175 0.607538
-0.075015 0.027273 -1.116364
-0.069834 0.095533 -0.990778
-0.047724 0.118990 -0.909641
-0.088418 0.137863 0.026080
-0.135279 0.114269 0.574852
-0.023543 0.136948 -1.083159
-0.019543 0.176265 -0.961219
-0.044848 0.133661 0.141332
-0.027687 0.138098 0.459651
-0.125552 0.179256 0.489521
-0.040422 0.207919 0.262744
-0.037965 0.220205 0.355975
-0.118723 0.260244 0.286336
0.033765 -0.200268 -0.900281
0.040261 -0.174272 -0.797592
0.061468 -0.175121 -0.525407
0.006820 -0.108640 0.230908
0.041366 -0.209119 0.428154
0.026365 -0.167065 0.504300
0.047921 -0.159663 0.572190
0.027473 -0.081795 -0.509657
0.053778 -0.022942 0.276653
0.017014 -0.003020 0.589328
-0.044802 0.014752 -1.151914
-0.032984 -0.041489 -0.810237
-0.019836 -0.000786 0.489238
0.019861 0.012115 -0.505254
-0.034581 0.027819 0.114158
-0.002940 0.034254 0.187746
-0.042182 -0.004124 0.477931
-0.016052 0.107491 -0.792448
0.067537 0.175056 -0.521002
0.039935 0.083874 0.273881
0.045194 0.180751 0.509181
0.040451 0.144477 0.580454
0.034264 0.203885 0.416186
0.124217 -0.228510 -0.593177
0.020418 -0.149540 -1.090818
0.037588 -0.204065 -0.972288
0.085494 -0.216080 -0.615521
0.129951 -0.190529 -0.732953
0.116064 -0.212218 -0.508716
0.037820 -0.193972 0.351890
0.107546 -0.215768 0.431416
0.076911 -0.217937 0.510738
0.082571 -0.137056 -1.024013
0.097664 -0.163280 -0.432196
0.124756 -0.153142 -0.338201
0.141919 -0.149715 -0.058100
0.112739 -0.113034 0.328886
0.066983 -0.035922 -1.116971
0.115684 -0.081628 -0.042217
0.067466 -0.080592 0.614946
0.024465 -0.013085 -1.153349
0.100226 -0.045082 -1.059151
0.050764 -0.048747 -0.419618
0.067001 -0.027856 -0.354203
0.116123 0.008194 -0.047294
0.056195 0.037570 0.618171
0.095169 0.055622 -1.068785
0.056158 0.047296 -0.414926
0.074880 0.045169 -0.336918
0.061857 0.069763 -1.127224
0.035596 0.120910 -1.105215
0.154467 0.136533 -0.071575
0.129492 0.101035 0.328971
0.116828 0.109205 -0.974158
0.116905 0.148624 -0.346464
0.036745 0.192218 -0.972575
0.037827 0.189894 -0.856636
0.070983 0.212245 -0.660256
0.036858 0.189951 0.359133
0.117914 0.225463 -0.594683
0.119788 0.212080 -0.492424
0.095002 0.210106 0.427505
0.148121 -0.237572 0.506551
0.075491 -0.195610 -0.885191
0.195573 -0.167905 -0.678742
0.205375 -0.221905 -0.198013
0.203841 -0.221821 -0.108404
0.089999 -0.195113 0.568474
0.199886 -0.192789 -0.033023
0.148613 -0.098825 -0.885818
0.203397 -0.062027 -0.753637
0.138156 -0.015172 -0.973519
0.181521 -0.142109 0.061030
0.174348 -0.093339 0.284479
0.141673 -0.041829 0.050157
0.350542 -0.058900 0.625031
0.208891 0.048363 -0.737855
0.122680 -0.009697 0.311225
0.162475 0.014191 0.271587
0.163847 0.038734 -0.888141
0.172817 0.079220 -0.817925
0.157344 0.071314 0.051681
0.195837 0.126914 0.260268
0.116672 0.195464 0.565220
0.108779 0.166123 -0.877755
0.138730 0.180471 -0.737170
0.115750 0.182417 -0.424953
0.174773 0.204775 -0.644346
0.211513 0.218966 -0.197868
0.214128 0.209463 -0.064548
0.121095 0.230926 0.500318
0.254079 0.246085 0.491065
0.175151 -0.207616 -0.576878
0.191073 -0.227342 0.415417
0.257398 -0.242603 0.405926
0.167374 -0.194979 -0.424894
0.208570 -0.205128 -0.337438
0.302729 -0.210107 0.144075
0.210679 -0.181263 0.335625
0.268752 -0.186562 0.036904
0.186549 -0.172160 0.351153
0.338573 -0.175569 0.578836
0.234120 -0.115330 -0.632322
0.250472 -0.159216 -0.414074
0.283773 -0.064179 -0.443237
0.244452 -0.011559 -0.646386
0.286554 0.004657 -0.438451
0.267437 0.115177 -0.430172
0.213735 0.128547 -0.659478
0.352595 0.127869 0.621676
0.212205 0.174814 0.044673
0.199334 0.191159 0.347659
0.178876 0.206979 -0.561186
0.188058 0.196637 -0.421301
0.196846 0.202511 -0.342956
0.253404 0.184076 -0.341431
0.277002 0.214668 0.240644
0.183843 0.237938 0.435959
0.258634 0.240735 0.387626
0.294890 -0.247696 0.509261
0.251574 -0.209033 -0.277373
0.241468 -0.218274 -0.121396
0.308748 -0.150195 -0.229897
0.347929 -0.139349 0.033207
0.331073 -0.065857 -0.283255
0.391518 -0.028406 0.012509
0.335845 0.032901 -0.271843
0.309558 0.138474 -0.261246
0.369292 0.110034 0.020889
0.255256 0.214359 -0.142173
0.279809 0.200613 0.047750
0.253190 0.207705 -0.267017
0.343877 -0.217418 0.204508
0.346719 -0.230362 0.482104
0.348670 -0.185144 0.123622
0.398248 -0.167110 0.196405
0.412303 -0.169250 0.524643
0.410048 -0.096154 0.113873
0.439591 -0.084548 0.202403
0.426983 -0.103530 0.585478
0.410536 0.106172 0.112307
0.412946 0.131771 0.211580
0.415941 0.089242 0.594676
0.367843 0.169537 0.114473
0.359621 0.218816 0.509833
0.353122 0.185191 0.591156
0.341463 0.211276 0.181290
0.323500 0.242629 0.383321
0.454880 -0.024038 0.551345
0.431045 0.024346 0.116634
0.450096 0.018492 0.195535
0.449792 0.052652 0.543755
3 2 0 9
3 0 2 1
3 1 2 3
3 1 3 11
3 4 2 9
3 2 4 3
3 3 4 5
3 3 5 11
3 8 0 6
3 6 0 7
3 7 0 1
3 20 7 1
3 20 1 10
3 0 8 23
3 0 23 9
3 11 10 1
3 10 11 12
3 23 27 9
3 13 12 14
3 27 28 9
3 28 4 9
3 12 11 15
3 12 15 14
3 5 15 11
3 5 4 16
3 17 4 28
3 4 17 16
3 15 5 33
3 18 16 17
3 16 18 19
3 33 5 19
3 5 16 19
3 24 6 36
3 6 7 36
3 20 21 7
3 21 36 7
3 8 6 24
3 20 10 21
3 22 13 25
3 24 23 8
3 21 10 22
3 22 10 13
3 42 23 24
3 25 13 26
3 25 26 44
3 13 10 12
3 42 45 23
3 45 27 23
3 14 26 13
3 44 26 46
3 45 28 27
3 29 26 14
3 26 29 46
3 30 14 15
3 14 30 29
3 31 28 45
3 29 30 32
3 29 32 46
3 17 28 31
3 33 34 15
3 15 34 30
3 32 30 35
3 17 31 18
3 18 31 50
3 30 34 35
3 50 51 18
3 18 51 19
3 33 19 34
3 19 51 34
3 24 36 55
3 55 36 56
3 36 21 56
3 37 56 21
3 22 37 21
3 38 37 22
3 39 38 22
3 25 39 22
3 39 25 40
3 41 40 43
3 42 24 59
3 44 40 25
3 40 44 43
3 41 43 61
3 59 62 42
3 42 62 45
3 44 46 43
3 62 63 45
3 43 46 47
3 43 47 61
3 61 47 64
3 63 65 45
3 47 46 48
3 47 48 64
3 31 45 65
3 32 49 46
3 46 49 48
3 31 66 50
3 35 52 32
3 49 32 52
3 66 51 50
3 66 53 51
3 51 53 34
3 35 34 53
3 54 35 53
3 52 35 54
3 57 37 69
3 37 38 69
3 58 69 39
3 69 38 39
3 37 57 56
3 58 39 71
3 24 55 59
3 55 56 59
3 56 60 59
3 57 60 56
3 71 39 40
3 71 40 75
3 40 41 76
3 75 40 76
3 76 41 61
3 76 61 86
3 86 61 64
3 86 64 91
3 65 90 66
3 90 67 66
3 96 91 48
3 49 96 48
3 91 64 48
3 66 31 65
3 96 49 52
3 66 67 53
3 96 52 68
3 54 53 67
3 99 54 67
3 68 52 99
3 52 54 99
3 69 70 57
3 58 72 69
3 72 70 69
3 58 71 72
3 57 74 60
3 57 70 74
3 77 78 73
3 73 78 84
3 79 72 71
3 75 79 71
3 59 60 62
3 60 80 62
3 74 80 60
3 76 81 75
3 82 77 110
3 77 82 78
3 78 82 83
3 78 83 84
3 74 114 80
3 116 79 75
3 85 116 75
3 75 81 85
3 76 86 81
3 87 82 110
3 82 87 83
3 83 87 88
3 83 88 89
3 62 80 63
3 80 90 63
3 80 114 90
3 95 116 85
3 81 91 85
3 81 86 91
3 92 87 110
3 87 92 88
3 88 93 89
3 63 90 65
3 114 94 90
3 95 85 96
3 85 91 96
3 88 92 93
3 90 94 67
3 67 94 97
3 98 95 96
3 67 97 99
3 68 99 98
3 99 97 98
3 98 96 68
3 73 124 77
3 124 73 125
3 100 125 73
3 101 102 126
3 103 70 129
3 70 72 129
3 104 129 72
3 84 100 73
3 100 84 101
3 79 104 72
3 104 79 105
3 101 107 102
3 102 107 133
3 70 103 74
3 106 105 109
3 106 109 139
3 124 140 77
3 140 110 77
3 84 111 101
3 101 111 107
3 133 107 142
3 112 105 79
3 105 112 109
3 83 111 84
3 111 113 107
3 107 113 142
3 74 103 114
3 103 115 114
3 103 108 115
3 116 112 79
3 139 109 145
3 142 113 147
3 117 111 83
3 89 117 83
3 111 117 113
3 108 119 115
3 95 112 116
3 140 150 110
3 150 92 110
3 113 117 118
3 113 118 147
3 120 112 95
3 112 120 109
3 109 120 121
3 109 121 145
3 114 115 94
3 115 119 94
3 119 97 94
3 119 158 97
3 98 122 95
3 95 122 120
3 150 155 92
3 92 155 93
3 93 156 89
3 93 155 156
3 89 156 117
3 156 157 117
3 117 157 118
3 158 98 97
3 98 158 122
3 127 126 123
3 123 126 128
3 130 131 162
3 162 131 167
3 125 132 124
3 132 125 163
3 125 100 163
3 100 101 163
3 163 101 127
3 101 126 127
3 102 128 126
3 102 133 128
3 129 104 130
3 131 130 104
3 105 131 104
3 131 105 106
3 131 106 167
3 103 129 136
3 129 130 136
3 106 139 167
3 124 132 137
3 135 134 138
3 108 103 136
3 140 124 137
3 132 141 137
3 132 171 141
3 133 142 134
3 134 142 143
3 134 143 138
3 138 143 144
3 136 177 108
3 175 139 145
3 141 146 137
3 171 153 146
3 141 171 146
3 142 147 143
3 143 147 148
3 143 148 144
3 149 140 137
3 137 146 149
3 177 152 119
3 108 177 119
3 150 140 149
3 144 148 151
3 183 145 121
3 149 146 150
3 148 147 154
3 148 154 151
3 146 153 150
3 153 155 150
3 153 184 155
3 186 147 118
3 186 154 147
3 158 119 152
3 152 161 158
3 184 156 155
3 184 185 156
3 185 157 156
3 118 157 159
3 160 118 159
3 160 186 118
3 158 161 122
3 120 122 161
3 120 183 121
3 159 157 185
3 161 190 120
3 120 190 183
3 127 192 164
3 127 123 192
3 192 123 128
3 162 193 130
3 128 133 195
3 128 195 192
3 195 134 196
3 133 134 195
3 196 134 165
3 193 200 130
3 132 163 169
3 163 127 169
3 127 170 169
3 127 164 170
3 135 165 134
3 166 165 135
3 166 135 168
3 168 135 172
3 200 136 130
3 201 167 139
3 132 169 171
3 135 138 172
3 173 136 200
3 174 172 138
3 172 174 173
3 144 174 138
3 173 174 178
3 173 178 177
3 136 173 177
3 169 179 171
3 169 170 179
3 170 180 179
3 170 176 180
3 181 174 144
3 174 181 178
3 171 179 153
3 178 181 182
3 178 182 152
3 177 178 152
3 151 181 144
3 209 145 183
3 153 179 184
3 179 180 184
3 176 185 180
3 151 210 181
3 180 185 184
3 182 211 152
3 152 211 161
3 160 212 213
3 160 213 186
3 186 214 154
3 213 214 186
3 214 188 154
3 154 188 151
3 151 188 189
3 151 189 210
3 211 217 161
3 187 159 185
3 187 212 159
3 212 160 159
3 191 190 217
3 217 190 161
3 191 183 190
3 162 219 194
3 165 220 196
3 220 165 221
3 165 166 221
3 168 221 166
3 194 198 193
3 194 193 162
3 219 162 201
3 201 162 167
3 199 221 168
3 197 172 194
3 194 172 198
3 193 198 200
3 170 164 202
3 164 192 202
3 195 203 192
3 196 203 195
3 196 220 203
3 172 199 168
3 199 172 197
3 192 203 202
3 203 204 202
3 198 172 173
3 198 173 200
3 205 170 202
3 176 170 205
3 202 204 205
3 204 206 205
3 206 207 205
3 208 176 205
3 205 207 208
3 185 176 208
3 182 181 210
3 187 185 208
3 208 212 187
3 208 207 212
3 207 213 212
3 207 215 213
3 214 213 215
3 214 215 231
3 210 189 230
3 189 229 230
3 230 216 210
3 210 216 182
3 182 216 211
3 211 216 218
3 211 218 217
3 231 188 214
3 231 229 188
3 188 229 189
3 217 218 191
3 197 232 234
3 197 194 232
3 194 233 232
3 194 219 233
3 219 201 233
3 220 221 222
3 221 223 222
3 199 223 221
3 199 197 234
3 220 222 203
3 234 237 223
3 199 234 223
3 222 224 203
3 222 225 224
3 222 223 225
3 201 139 175
3 224 204 203
3 226 206 204
3 204 224 226
3 209 175 145
3 207 206 226
3 226 227 207
3 226 228 227
3 215 207 227
3 227 228 229
3 228 230 229
3 228 243 230
3 231 215 227
3 227 229 231
3 230 243 246
3 191 244 245
3 183 191 245
3 245 209 183
3 246 216 230
3 246 247 216
3 216 247 218
3 247 244 191
3 218 247 191
3 233 235 232
3 232 235 234
3 233 236 235
3 201 236 233
3 234 235 237
3 235 238 237
3 235 236 238
3 201 239 236
3 238 236 239
3 201 175 239
3 225 223 237
3 237 249 225
3 224 225 226
3 239 175 242
3 242 175 209
3 225 228 226
3 225 249 228
3 228 249 240
3 243 228 240
3 240 241 243
3 241 242 244
3 242 245 244
3 242 209 245
3 243 241 246
3 241 247 246
3 241 244 247
3 239 248 238
3 237 238 249
3 238 250 249
3 238 248 250
3 248 251 250
3 248 242 251
3 239 242 248
3 249 241 240
3 249 250 241
3 250 251 241
3 251 242 241
