ply
format ascii 1.0
element vertex 252
property float x
property float y
property float z
element face 500
property list uchar int vertex_indices
end_header
-0.778987 -0.225685 -0.595359
-0.825371 -0.186663 -0.258565
-0.872433 -0.105028 -0.317958
-0.852949 -0.090280 -0.677702
-0.857022 -0.070321 -0.188698
-0.875858 0.014908 -0.660225
-0.878935 0.015143 -0.268421
-0.854088 0.050917 -0.181119
-0.861381 0.122864 -0.632119
-0.810151 0.188601 -0.274279
-0.787380 0.178097 -0.130073
-0.798157 0.214090 -0.623857
-0.704180 -0.280792 -0.574258
-0.746347 -0.259748 -0.303761
-0.742292 -0.197134 -0.730706
-0.803537 -0.153539 -0.140047
-0.720359 -0.169488 -0.004357
-0.808613 0.001454 -0.076767
-0.741927 0.010246 0.066503
-0.724266 0.176634 0.005720
-0.757723 0.172698 -0.727782
-0.742738 0.248927 -0.161166
-0.706627 0.271676 -0.591655
-0.732437 0.273416 -0.343511
-0.661599 -0.260320 -0.685241
-0.656046 -0.288372 -0.219642
-0.599086 -0.290041 0.005581
-0.775992 -0.034577 -0.771809
-0.650842 0.134408 0.195466
-0.620898 0.261266 -0.671322
-0.686826 0.287845 -0.218467
-0.638197 0.277654 -0.036418
-0.650716 -0.276516 -0.584653
-0.654681 -0.268355 -0.446861
-0.582942 -0.261316 -0.271505
-0.658851 -0.194673 -0.778667
-0.578037 -0.211964 -0.524900
-0.574813 -0.206813 -0.802445
-0.624313 -0.203181 0.151888
-0.565928 -0.171901 0.277383
-0.649723 -0.050016 0.229537
-0.663437 0.042164 -0.833445
-0.596211 -0.067310 0.336019
-0.568684 0.032276 0.378345
-0.579035 0.164997 0.283843
-0.644008 0.219766 -0.761131
-0.522680 0.201723 -0.800634
-0.589443 0.219943 0.186480
-0.577816 0.205185 -0.526906
-0.662534 0.271909 -0.400435
-0.654836 0.275572 -0.565654
-0.577804 0.280319 -0.150638
-0.548982 -0.307003 -0.061198
-0.527769 -0.249157 -0.744850
-0.579245 -0.189817 -0.415817
-0.519527 -0.302040 0.074591
-0.524791 -0.195628 -0.286969
-0.435328 -0.194063 0.367816
-0.569221 -0.098172 -0.853544
-0.526582 -0.031324 -0.502184
-0.518622 -0.011801 -0.393353
-0.522494 -0.068199 0.396391
-0.564273 0.006581 -0.878053
-0.486816 0.041339 0.431574
-0.582508 0.067999 -0.865901
-0.579552 0.184786 -0.419785
-0.518296 0.185322 -0.280568
-0.496260 0.133759 0.398217
-0.487834 0.205143 0.342540
-0.545123 0.254351 -0.737716
-0.502465 0.296434 0.097211
-0.466049 0.224987 -0.670262
-0.572350 0.303376 -0.013311
-0.437255 0.277152 0.219039
-0.520534 0.308299 0.018777
-0.447935 -0.302356 0.032911
-0.415012 -0.310779 0.182709
-0.481827 -0.233214 -0.661192
-0.479634 -0.221953 -0.190800
-0.419023 -0.278348 0.265879
-0.433855 -0.119101 -0.614884
-0.404599 -0.053878 -0.223035
-0.425724 0.022750 -0.609215
-0.403422 0.059503 -0.225399
-0.460723 0.210861 -0.168630
-0.418808 0.294556 0.088690
-0.361269 -0.284798 0.236883
-0.123203 -0.219276 -0.804744
-0.293522 -0.176546 -0.642348
-0.229720 -0.105575 0.069279
-0.200025 0.101177 0.035233
-0.290617 0.173251 -0.649918
-0.275276 0.255536 -0.724941
-0.324345 0.280130 0.220816
-0.182237 -0.262650 -0.740475
-0.305821 -0.216797 0.067059
-0.338717 -0.235470 0.348950
-0.261970 -0.196654 0.324779
-0.290302 -0.112180 0.413986
-0.107775 -0.038521 -0.885112
-0.355544 -0.025507 -0.618284
-0.138164 0.110271 -0.873870
-0.281632 0.093203 0.418726
-0.312918 0.220553 0.338494
-0.080333 0.215822 -0.807931
-0.303520 0.248117 0.106422
-0.253587 0.227361 0.268806
-0.209178 -0.078464 -0.570206
-0.168951 -0.180919 -0.588678
-0.195539 -0.099259 0.375766
-0.188249 -0.017302 0.405134
-0.205018 0.094331 -0.576527
-0.201792 0.110279 0.342132
-0.175330 0.194307 -0.603688
-0.066104 -0.262321 -0.685279
-0.163670 -0.022551 0.341370
-0.183939 0.036659 0.029379
-0.105178 0.269592 -0.657049
-0.067360 -0.217884 -0.546254
-0.136288 -0.123870 -0.528624
-0.135675 0.032756 -0.515651
-0.085279 0.187897 -0.540038
0.045571 0.102044 -0.356861
-0.019294 0.278548 -0.709514
0.019823 -0.200576 -0.778996
-0.028896 -0.090905 -0.864894
0.044125 -0.017060 -0.834624
-0.036381 0.081622 -0.866398
0.036499 0.195146 -0.781448
0.099170 -0.264435 -0.643297
0.125415 -0.279470 -0.503433
0.236021 -0.188624 -0.212788
0.247155 0.248427 -0.317083
0.098929 0.287355 -0.546357
0.122028 -0.197558 -0.711981
0.241164 -0.257065 -0.365837
0.304314 -0.077381 -0.588899
0.116616 -0.006723 -0.769417
0.106580 0.216627 -0.712206
0.249903 0.176331 -0.189431
0.143477 0.279831 -0.576048
0.258510 -0.254827 -0.445402
0.262223 -0.203485 -0.560175
0.331195 -0.241061 -0.230083
0.231438 -0.023029 -0.117031
0.317756 -0.099366 0.035695
0.300702 -0.100901 0.808809
0.309288 0.041994 0.038523
0.295627 0.052764 0.827402
0.314945 0.111086 -0.563293
0.292066 0.148927 -0.091122
0.297439 0.032298 0.697782
0.242730 0.220100 -0.570586
0.318282 0.235682 -0.393974
0.356567 -0.237240 -0.342948
0.378300 -0.140296 -0.466435
0.332151 -0.200687 -0.079270
0.369671 -0.198768 0.744125
0.372851 -0.212542 0.021628
0.371184 -0.189313 0.808023
0.356045 -0.124417 0.684794
0.385196 -0.037938 0.205394
0.357375 0.171597 0.687140
0.386536 0.200027 0.035177
0.337149 0.189044 0.742856
0.389853 0.187302 0.803310
0.336144 0.233318 -0.161864
0.426939 -0.241070 -0.202561
0.460603 -0.253881 0.004971
0.474328 -0.217150 0.188261
0.359939 -0.118202 0.861829
0.355584 0.026583 0.642948
0.339424 -0.018737 0.879057
0.378243 0.015660 -0.520926
0.335554 0.054689 0.873383
0.410960 0.109990 -0.449271
0.410766 0.080830 0.233072
0.443112 0.244996 -0.192835
0.479380 0.258045 -0.002458
0.433978 0.233125 0.735856
0.515611 -0.196649 -0.193070
0.479672 -0.140723 -0.326993
0.463842 -0.078161 0.433645
0.503771 -0.175389 0.642601
0.490823 -0.085834 0.512364
0.433427 -0.004515 -0.462139
0.490254 -0.036440 0.605301
0.490603 0.071257 0.476816
0.494377 0.170770 0.643614
0.498991 0.241121 0.141344
0.466262 0.160373 -0.331834
0.523025 0.178939 -0.201767
0.539915 0.221126 0.407848
0.529413 -0.235711 -0.080665
0.645726 -0.251358 0.701247
0.530201 -0.264727 0.104256
0.576465 -0.246148 0.035223
0.575458 -0.264731 0.151591
0.590524 -0.270736 0.320801
0.522072 -0.188324 0.451988
0.725506 -0.177405 0.819543
0.563519 -0.202651 0.586983
0.560985 -0.029146 -0.208323
0.479323 -0.004716 -0.403190
0.509441 -0.026850 0.587579
0.729380 -0.064467 0.884748
0.528289 0.022530 -0.320051
0.729685 0.073062 0.865030
0.556780 0.202881 0.575444
0.531546 0.239961 -0.081694
0.678809 0.235062 0.775289
0.578931 0.263300 0.168808
0.638025 0.274253 0.399023
0.666723 -0.275682 0.434517
0.674102 -0.277970 0.625514
0.560970 -0.174397 -0.119597
0.591595 -0.189269 -0.042800
0.605822 0.008400 -0.095744
0.661495 0.034463 -0.030290
0.562801 0.176065 -0.111799
0.584998 0.221950 0.009952
0.668158 0.275132 0.560348
0.619346 0.258125 0.690259
0.693441 0.271652 0.290068
0.710940 -0.199536 0.103293
0.685955 -0.262936 0.265324
0.748131 -0.275510 0.467267
0.665553 -0.180730 0.020463
0.787201 -0.189864 0.237009
0.683188 0.191300 0.031298
0.707382 0.202703 0.095294
0.749014 0.231342 0.254176
0.728906 0.264448 0.688030
0.746363 0.248285 0.390208
0.777564 -0.235964 0.353274
0.711775 -0.280539 0.621301
0.727675 -0.157191 0.045679
0.801564 -0.194581 0.705941
0.774661 -0.071666 0.054602
0.822314 -0.058098 0.171565
0.825672 -0.063084 0.846044
0.743800 -0.015351 0.013670
0.780096 0.048662 0.062696
0.816135 0.109326 0.210747
0.719157 0.146569 0.031735
0.848863 0.057953 0.820036
0.805880 0.181919 0.740904
0.853796 -0.119822 0.343337
0.875000 -0.039211 0.743288
0.876123 0.011194 0.339634
0.874315 0.083145 0.718394
0.854371 0.120341 0.384842
3 0 2 1
3 0 3 2
3 1 2 4
3 3 5 2
3 2 5 6
3 2 6 4
3 4 6 7
3 4 7 17
3 5 8 6
3 6 8 9
3 6 9 7
3 7 9 10
3 7 10 17
3 8 11 9
3 14 0 24
3 12 24 0
3 13 12 0
3 1 13 0
3 16 13 15
3 13 1 15
3 3 14 27
3 0 14 3
3 1 4 15
3 17 15 4
3 15 17 16
3 16 17 18
3 3 27 5
3 20 5 27
3 18 17 19
3 5 20 8
3 17 10 19
3 8 20 11
3 10 9 21
3 21 19 10
3 20 22 11
3 23 11 22
3 9 11 23
3 9 23 21
3 12 32 24
3 32 12 33
3 12 13 33
3 33 13 25
3 24 35 14
3 13 16 25
3 25 16 26
3 35 27 14
3 38 16 40
3 35 41 27
3 16 18 40
3 40 18 28
3 41 20 27
3 18 19 28
3 41 45 20
3 19 47 28
3 22 20 29
3 20 45 29
3 21 30 31
3 19 21 31
3 19 31 47
3 29 50 22
3 50 49 22
3 22 49 23
3 49 30 23
3 23 30 21
3 34 33 25
3 34 25 52
3 26 52 25
3 37 35 53
3 53 35 24
3 36 32 33
3 54 33 34
3 26 16 38
3 36 33 54
3 35 37 58
3 38 40 39
3 39 40 42
3 41 35 58
3 62 41 58
3 42 40 43
3 64 41 62
3 40 28 44
3 40 44 43
3 46 41 64
3 41 46 45
3 48 65 49
3 47 44 28
3 46 69 45
3 45 69 29
3 48 49 50
3 49 65 51
3 31 70 47
3 30 49 51
3 51 31 30
3 31 72 70
3 51 72 31
3 52 26 55
3 26 38 55
3 53 24 77
3 77 32 36
3 77 24 32
3 56 54 34
3 34 78 56
3 78 34 52
3 55 39 79
3 55 38 39
3 79 39 57
3 57 39 61
3 59 80 36
3 36 54 59
3 39 42 61
3 54 60 59
3 54 56 60
3 43 61 42
3 63 61 43
3 60 65 59
3 60 66 65
3 43 67 63
3 59 65 48
3 44 67 43
3 68 67 44
3 48 50 29
3 48 29 71
3 51 65 66
3 66 84 51
3 47 70 73
3 44 47 73
3 44 73 68
3 69 71 29
3 74 72 51
3 72 74 70
3 55 75 52
3 76 75 55
3 76 55 79
3 87 37 53
3 87 58 37
3 80 77 36
3 78 81 56
3 80 59 82
3 56 81 60
3 81 83 60
3 83 66 60
3 59 48 82
3 71 82 48
3 83 84 66
3 69 46 92
3 71 69 92
3 51 85 74
3 85 73 70
3 85 70 74
3 86 75 76
3 76 79 86
3 79 96 86
3 94 87 53
3 94 53 77
3 52 75 78
3 57 96 79
3 77 88 94
3 77 80 88
3 81 78 89
3 87 99 58
3 98 57 61
3 99 62 58
3 88 80 100
3 100 80 82
3 98 61 63
3 99 101 62
3 101 64 62
3 100 82 91
3 102 63 67
3 101 46 64
3 91 82 71
3 84 83 90
3 102 67 103
3 101 104 46
3 103 67 68
3 91 71 92
3 84 85 51
3 68 73 103
3 103 73 93
3 93 73 85
3 86 95 75
3 86 96 97
3 75 95 78
3 95 86 97
3 78 95 89
3 97 96 98
3 98 96 57
3 107 88 100
3 98 63 102
3 111 100 91
3 84 90 105
3 46 104 92
3 105 85 84
3 105 106 93
3 85 105 93
3 106 103 93
3 88 107 108
3 95 97 89
3 97 109 89
3 97 98 109
3 110 109 98
3 89 116 81
3 107 100 111
3 81 116 83
3 110 98 102
3 112 110 102
3 83 116 90
3 91 113 111
3 90 106 105
3 90 112 106
3 112 103 106
3 102 103 112
3 114 94 88
3 88 108 114
3 108 118 114
3 108 119 118
3 119 108 107
3 89 109 115
3 119 107 120
3 89 115 116
3 109 110 115
3 120 107 111
3 116 115 112
3 110 112 115
3 116 112 90
3 120 111 121
3 121 111 113
3 92 104 123
3 91 92 117
3 117 113 91
3 117 121 113
3 92 123 117
3 87 114 124
3 87 94 114
3 124 125 87
3 125 99 87
3 125 127 99
3 127 101 99
3 121 122 120
3 127 104 101
3 130 129 114
3 130 114 118
3 124 114 129
3 125 124 126
3 127 125 126
3 128 127 126
3 104 127 128
3 128 123 104
3 121 117 133
3 117 123 133
3 134 124 129
3 130 118 135
3 118 131 135
3 119 131 118
3 134 137 124
3 137 126 124
3 137 128 126
3 137 138 128
3 123 128 138
3 121 133 132
3 140 133 123
3 129 130 141
3 137 134 136
3 131 119 144
3 119 120 144
3 120 122 144
3 144 122 139
3 121 139 122
3 138 140 123
3 141 130 135
3 129 142 134
3 129 141 142
3 143 135 131
3 134 142 136
3 145 144 147
3 148 146 151
3 149 137 136
3 144 150 147
3 138 137 149
3 150 144 139
3 152 138 149
3 121 132 139
3 152 140 138
3 140 152 153
3 133 140 153
3 153 132 133
3 155 142 141
3 141 154 155
3 141 135 154
3 135 143 154
3 131 156 143
3 142 155 136
3 144 156 131
3 156 144 145
3 156 145 158
3 158 145 169
3 157 160 146
3 157 146 159
3 159 146 170
3 151 160 171
3 151 146 160
3 146 172 170
3 147 161 145
3 172 146 148
3 172 148 174
3 162 151 171
3 173 175 149
3 147 150 163
3 151 162 164
3 151 164 148
3 148 164 165
3 148 165 174
3 175 153 149
3 149 153 152
3 150 139 166
3 163 150 166
3 132 166 139
3 153 166 132
3 143 167 154
3 156 167 143
3 168 167 156
3 168 156 158
3 168 158 169
3 183 160 157
3 169 145 161
3 183 186 160
3 186 171 160
3 155 173 136
3 155 185 173
3 136 173 149
3 185 175 173
3 176 161 147
3 186 188 171
3 188 162 171
3 147 163 176
3 163 189 176
3 188 179 162
3 179 164 162
3 190 153 175
3 177 153 190
3 178 166 177
3 166 178 163
3 164 179 165
3 177 166 153
3 167 168 193
3 167 193 180
3 168 169 195
3 194 183 157
3 194 157 159
3 200 194 159
3 155 154 181
3 154 167 181
3 169 182 199
3 200 159 170
3 181 167 180
3 169 161 182
3 199 182 184
3 203 185 155
3 155 181 203
3 205 170 172
3 161 176 182
3 182 176 187
3 182 187 184
3 184 187 204
3 207 172 174
3 203 175 185
3 203 190 175
3 176 189 187
3 189 192 187
3 208 187 192
3 207 174 165
3 177 190 191
3 191 209 177
3 165 179 210
3 209 178 177
3 163 178 189
3 196 193 168
3 196 168 195
3 198 199 213
3 195 197 196
3 169 197 195
3 197 169 198
3 198 169 199
3 201 183 194
3 180 193 215
3 215 193 216
3 193 196 216
3 180 215 202
3 199 184 201
3 180 202 181
3 204 201 184
3 201 204 183
3 183 204 186
3 181 206 203
3 181 202 206
3 203 206 190
3 202 191 206
3 202 219 191
3 186 204 188
3 206 191 190
3 208 204 187
3 204 208 188
3 191 219 209
3 219 220 209
3 220 178 209
3 189 178 220
3 211 189 220
3 189 211 192
3 192 211 212
3 208 192 212
3 188 222 179
3 179 222 210
3 224 197 225
3 213 225 198
3 198 225 197
3 194 214 201
3 196 197 224
3 213 199 201
3 213 201 214
3 216 196 227
3 196 224 227
3 200 170 205
3 202 215 217
3 215 216 217
3 227 218 216
3 216 218 217
3 207 205 172
3 219 202 217
3 218 220 217
3 218 229 220
3 217 220 219
3 210 207 165
3 229 230 220
3 220 230 211
3 188 208 222
3 222 208 221
3 230 223 211
3 211 223 212
3 212 221 208
3 225 213 234
3 234 213 226
3 226 213 235
3 213 214 235
3 235 214 194
3 225 228 224
3 225 234 228
3 227 224 236
3 236 241 227
3 241 218 227
3 241 244 218
3 244 229 218
3 230 229 244
3 231 223 230
3 231 233 223
3 210 222 232
3 221 233 232
3 221 232 222
3 212 223 233
3 233 221 212
3 237 234 226
3 226 235 237
3 237 235 194
3 194 200 237
3 236 224 238
3 224 239 238
3 224 228 239
3 200 205 240
3 241 236 238
3 240 205 207
3 242 241 238
3 238 239 242
3 240 207 245
3 239 243 242
3 244 241 242
3 242 230 244
3 242 243 230
3 243 231 230
3 245 207 246
3 243 233 231
3 246 207 210
3 233 246 232
3 246 210 232
3 234 247 228
3 234 237 247
3 237 248 247
3 228 247 239
3 237 240 248
3 200 240 237
3 247 249 239
3 247 248 249
3 240 245 248
3 239 249 243
3 248 250 249
3 248 245 250
3 249 251 243
3 249 250 251
3 245 246 250
3 251 233 243
3 250 246 251
3 246 233 251
