ply
format ascii 1.0
element vertex 250
property float x
property float y
property float z
element face 500
property list uchar int vertex_indices
end_header
-0.449385 -0.015361 -0.965438
-0.445476 -0.059207 -0.894810
-0.406810 -0.000415 -1.032849
-0.449151 0.034555 -0.905406
-0.417283 0.099372 -0.978187
-0.407634 0.126102 -0.884641
-0.337365 -0.189968 -0.962071
-0.346166 -0.199466 -0.895186
-0.347759 -0.178328 -0.814961
-0.412207 -0.123376 -0.964373
-0.415270 -0.131770 -0.886332
-0.352561 -0.114334 -1.021132
-0.414829 -0.086487 -0.825557
-0.388092 -0.027768 -0.722245
-0.330801 -0.069392 -0.585505
-0.430196 0.003626 -0.829911
-0.334901 0.039965 -0.589130
-0.351832 0.111037 -1.028895
-0.374212 0.087799 -0.728451
-0.337879 0.188467 -0.820589
-0.351195 0.178035 -0.952916
-0.348146 0.199270 -0.887030
-0.252476 -0.220259 -0.649223
-0.277506 -0.155391 -0.972222
-0.276768 -0.206439 -0.743068
-0.314077 -0.155331 -0.600945
-0.358787 -0.123357 -0.722025
-0.271775 -0.039713 -1.025081
-0.339044 0.015023 -1.060794
-0.148581 -0.002104 -0.339598
-0.288672 0.057998 -1.038699
-0.309643 0.141188 -0.595424
-0.281074 0.203159 -0.743787
-0.272946 0.145839 -0.969343
-0.247463 0.198762 -0.553275
-0.256005 0.220582 -0.653436
-0.272581 -0.203249 -0.893390
-0.281017 -0.212208 -0.823405
-0.258145 -0.190787 -0.552463
-0.208065 -0.185902 -0.803454
-0.203103 -0.127615 -0.901783
-0.212513 -0.065400 -0.964531
-0.209700 0.030505 -0.961200
-0.205428 0.144942 -0.884267
-0.278436 0.198807 -0.864786
-0.199548 0.177374 -0.805684
-0.219164 0.218296 -0.722941
-0.214340 -0.218283 -0.722560
-0.170221 -0.218411 -0.660885
-0.123437 -0.214496 -0.541591
-0.139883 -0.150415 -0.734702
-0.095085 -0.201808 -0.444570
-0.111124 -0.144299 0.445742
-0.095266 -0.201176 0.599661
-0.090312 -0.165939 0.665317
-0.125749 -0.115784 -0.341802
-0.149403 -0.131851 0.660302
-0.138564 -0.063622 -0.813974
-0.167942 -0.047081 0.666894
-0.177017 -0.038578 -0.916399
-0.161280 -0.034976 0.443330
-0.141819 0.063635 -0.826366
-0.124656 -0.035582 0.342232
-0.159721 0.038186 0.408649
-0.173768 0.034619 0.641464
-0.129862 0.064472 -0.324584
-0.150470 0.116106 0.453652
-0.152961 0.107501 0.684432
-0.095254 0.165310 -0.337608
-0.127592 0.137876 -0.732474
-0.173735 0.218575 -0.663164
-0.091078 0.209105 -0.442070
-0.105806 0.166870 0.434930
-0.123898 0.167212 0.637308
-0.122236 0.215985 -0.539734
-0.107571 -0.207946 -0.591928
-0.091419 -0.138653 -0.654748
-0.061957 -0.176715 -0.559672
-0.029260 -0.197916 -0.338135
-0.020037 -0.183185 -0.263143
-0.038764 -0.146013 0.205391
-0.060711 -0.149620 0.345982
-0.011937 -0.153771 0.128131
-0.070306 -0.133754 0.285974
-0.088132 -0.124964 0.331988
-0.028086 -0.142380 -0.206481
-0.044491 -0.041522 0.114523
-0.127441 -0.077174 0.698115
-0.056014 -0.032677 -0.204596
-0.087570 -0.053624 0.259267
-0.095904 0.016483 -0.740423
-0.065328 0.055425 -0.668668
-0.133207 0.036341 0.704711
-0.046613 0.077153 -0.199920
-0.067454 0.082597 0.184759
-0.098506 0.043648 0.274555
-0.107777 0.110048 0.334453
-0.044989 0.089659 0.106151
-0.081437 0.107782 0.249591
-0.105198 0.133494 0.696600
-0.102713 0.164085 -0.658125
-0.039414 0.145190 -0.220023
-0.018953 0.149871 0.135300
-0.107756 0.207438 -0.587692
-0.056215 0.157120 -0.564895
-0.018689 0.194195 -0.262606
-0.042613 0.144488 0.212305
-0.062483 0.152559 0.362496
-0.079264 0.203873 0.583127
-0.049681 -0.215322 0.590627
-0.035382 -0.170237 -0.490445
-0.043172 -0.206493 -0.411470
-0.051345 -0.175267 0.509332
0.020721 -0.168232 0.574565
-0.010071 -0.211149 0.619460
0.002373 -0.192742 -0.370651
0.050562 -0.199020 -0.185452
0.027898 -0.163189 -0.114798
0.002039 -0.139780 0.033300
0.022950 -0.173858 0.103016
-0.018967 -0.121200 0.258087
0.048938 -0.109312 -0.408989
-0.018496 -0.148649 0.180855
-0.022445 -0.076096 -0.578165
0.018237 -0.036174 -0.516843
-0.008742 -0.059884 0.415879
0.017024 -0.052560 0.513010
-0.014739 -0.010913 -0.095235
-0.020334 -0.036911 0.026685
0.030067 -0.017569 0.195214
0.003601 -0.034543 0.273665
-0.010143 0.037853 -0.573461
-0.020400 0.056574 0.027234
-0.013129 0.092101 0.274879
0.008512 0.085238 -0.511453
0.009154 0.066582 0.486714
0.026047 0.165637 -0.118958
0.017344 0.169556 0.042601
-0.014472 0.143145 0.177221
0.041985 0.111155 -0.416480
-0.036859 0.176311 0.514045
-0.048001 0.181402 -0.490993
-0.035613 0.197014 -0.417363
-0.038355 0.202766 -0.348666
0.039124 0.184001 0.109850
-0.035591 0.196395 0.629206
-0.043451 0.207874 0.587623
0.123049 -0.228790 0.023384
0.037127 -0.189965 -0.281780
0.057123 -0.201264 0.006858
0.114353 -0.195795 -0.109556
0.120263 -0.224197 0.094811
0.017515 -0.140078 0.151853
0.114943 -0.178581 0.189959
0.151979 -0.156898 0.297987
0.104295 -0.086480 -0.312394
0.117290 -0.083163 0.295985
0.048899 -0.022521 0.533947
0.053203 -0.035266 0.198704
0.065960 -0.001679 -0.427049
0.119979 0.018964 -0.312152
0.117761 0.012543 0.315915
0.064544 0.054733 0.203559
0.020612 0.142945 0.151695
0.044188 0.101102 0.539237
0.104016 0.121862 -0.282330
0.108515 0.179680 0.177612
0.145107 0.138953 0.294748
0.017737 0.184447 0.580278
0.022685 0.181973 -0.346187
0.034309 0.198151 -0.272700
0.059856 0.204161 -0.190369
0.072398 0.207788 -0.045466
0.122384 0.222416 0.030034
0.118737 0.217395 0.115596
0.097496 -0.187744 -0.196052
0.189052 -0.173263 -0.054255
0.152206 -0.225695 0.130963
0.186038 -0.200601 0.258140
0.120052 -0.181803 0.588074
0.213165 -0.214638 0.584537
0.215835 -0.189397 0.351390
0.329757 -0.186205 0.646949
0.162118 -0.071215 -0.193644
0.200991 -0.083431 -0.115907
0.172366 -0.088602 0.419095
0.114206 -0.079271 0.545034
0.178635 -0.130848 0.509605
0.357388 -0.080163 0.702554
0.203989 0.034597 -0.127031
0.159899 0.036557 0.499656
0.156094 0.080574 -0.202047
0.164340 0.050868 0.429296
0.105598 0.033694 0.540422
0.192947 0.139122 0.430832
0.124205 0.163313 0.576932
0.350184 0.107035 0.700900
0.122079 0.186009 -0.112564
0.103418 0.180410 -0.196705
0.208372 0.191135 0.331611
0.249036 0.205127 0.635275
0.175373 0.205469 -0.025360
0.183584 0.208030 0.128515
0.193741 0.196071 0.241037
0.215920 0.211120 0.570510
0.182898 -0.207571 0.053859
0.190046 -0.213487 0.176187
0.248678 -0.197973 0.270683
0.277978 -0.223090 0.508191
0.208722 -0.220304 0.615536
0.242831 -0.173903 0.144899
0.227520 -0.180293 0.431061
0.233416 -0.106583 -0.026905
0.275918 -0.076791 0.097724
0.249075 -0.009380 -0.036621
0.286206 0.016885 0.093436
0.343512 0.004317 0.723939
0.231073 0.100984 -0.026906
0.262427 0.124318 0.115509
0.203151 0.176608 0.502996
0.197156 0.202184 0.036985
0.268658 0.168285 0.213974
0.278584 0.210531 0.414704
0.281398 0.231360 0.521838
0.282518 -0.232596 0.595577
0.275210 -0.209745 0.394105
0.340135 -0.169695 0.347094
0.303981 -0.110907 0.201314
0.404895 -0.067412 0.346510
0.319297 0.023922 0.190141
0.368638 0.118590 0.322050
0.252431 0.203506 0.295448
0.331297 0.186884 0.347542
0.277838 0.236098 0.585981
0.334329 -0.216323 0.453217
0.349206 -0.220129 0.564223
0.417467 -0.137326 0.443437
0.414442 -0.162574 0.618961
0.433179 -0.098799 0.632957
0.404453 0.044365 0.348432
0.400419 0.128120 0.428070
0.422049 0.100312 0.663100
0.349352 0.218339 0.506164
0.361108 0.182159 0.649329
0.348482 0.209011 0.423262
0.318710 0.234647 0.585158
0.442372 -0.083401 0.422167
0.440337 -0.021538 0.427559
0.456359 0.018102 0.660079
0.434320 0.012743 0.699714
3 9 1 10
3 0 1 9
3 10 1 12
3 2 0 9
3 12 1 15
3 1 0 3
3 1 3 15
3 4 0 2
3 0 4 3
3 15 3 5
3 3 4 5
3 9 6 11
3 6 9 7
3 7 9 10
3 7 10 8
3 10 12 8
3 11 28 2
3 11 2 9
3 12 15 13
3 14 13 16
3 2 28 17
3 2 17 4
3 5 18 15
3 15 18 13
3 13 18 16
3 18 5 19
3 18 19 32
3 20 4 17
3 4 20 5
3 5 20 21
3 5 21 19
3 6 23 11
3 23 6 36
3 6 7 36
3 36 7 37
3 7 8 37
3 24 37 8
3 24 25 22
3 38 22 25
3 26 24 8
3 24 26 25
3 27 11 23
3 12 26 8
3 25 26 14
3 26 12 13
3 14 26 13
3 28 11 27
3 16 29 14
3 30 28 27
3 17 28 30
3 30 33 17
3 31 16 18
3 18 32 31
3 33 20 17
3 33 44 20
3 44 21 20
3 21 44 19
3 19 44 32
3 35 31 32
3 34 31 35
3 24 22 47
3 22 48 47
3 38 49 22
3 49 48 22
3 39 36 37
3 39 24 47
3 39 37 24
3 36 40 23
3 39 40 36
3 38 25 55
3 40 41 23
3 25 14 55
3 27 23 41
3 40 59 41
3 42 27 41
3 30 27 42
3 41 59 42
3 33 30 42
3 42 43 33
3 31 65 16
3 65 31 68
3 31 34 68
3 43 44 33
3 45 44 43
3 45 32 44
3 45 46 32
3 34 74 71
3 46 35 32
3 46 70 35
3 34 35 74
3 35 70 74
3 48 49 75
3 39 47 50
3 47 48 50
3 75 76 48
3 49 38 51
3 50 48 76
3 55 51 38
3 52 56 53
3 53 56 54
3 39 57 40
3 39 50 57
3 56 52 58
3 54 56 87
3 40 57 59
3 62 52 84
3 60 52 62
3 52 60 58
3 56 58 87
3 57 61 59
3 14 29 55
3 87 58 92
3 59 61 42
3 57 90 61
3 62 63 60
3 60 63 64
3 60 64 58
3 58 64 92
3 29 16 65
3 62 96 63
3 42 61 43
3 90 69 61
3 66 63 96
3 63 66 64
3 64 66 67
3 92 67 99
3 64 67 92
3 43 61 45
3 61 69 45
3 72 66 96
3 69 100 70
3 100 103 70
3 66 72 73
3 66 73 67
3 67 73 99
3 46 45 69
3 69 70 46
3 71 68 34
3 72 108 73
3 103 74 70
3 76 75 77
3 110 77 49
3 49 77 75
3 49 51 110
3 110 51 111
3 78 111 51
3 81 52 112
3 53 109 112
3 53 112 52
3 109 53 114
3 114 53 54
3 55 78 51
3 78 55 79
3 79 55 85
3 80 83 81
3 81 83 84
3 52 81 84
3 77 123 76
3 82 86 80
3 85 55 88
3 80 86 89
3 80 89 83
3 83 89 84
3 84 89 62
3 90 57 50
3 50 76 90
3 76 91 90
3 76 123 91
3 29 88 55
3 123 131 91
3 89 86 94
3 89 94 95
3 89 95 62
3 65 88 29
3 88 65 93
3 86 97 94
3 96 62 95
3 131 104 91
3 95 94 98
3 95 98 96
3 90 91 69
3 91 100 69
3 91 104 100
3 65 68 93
3 93 68 101
3 97 102 94
3 100 104 103
3 101 68 105
3 106 94 102
3 94 106 98
3 98 106 96
3 96 106 107
3 96 107 72
3 141 74 104
3 104 74 103
3 71 74 141
3 71 141 142
3 68 71 143
3 71 142 143
3 143 105 68
3 107 140 72
3 146 108 140
3 140 108 72
3 108 145 73
3 99 73 145
3 108 146 145
3 115 110 111
3 111 78 115
3 115 78 148
3 78 79 148
3 116 148 79
3 117 118 149
3 118 119 149
3 81 120 80
3 112 109 113
3 113 109 114
3 115 121 110
3 85 116 79
3 116 85 117
3 82 119 118
3 80 122 82
3 122 152 82
3 152 119 82
3 80 120 122
3 77 110 123
3 110 124 123
3 121 124 110
3 85 88 117
3 82 118 86
3 81 125 120
3 81 112 125
3 112 126 125
3 113 157 126
3 112 113 126
3 127 117 88
3 117 127 118
3 118 127 128
3 118 128 86
3 129 152 122
3 122 120 129
3 120 130 129
3 120 125 130
3 121 159 124
3 123 124 131
3 93 127 88
3 128 127 132
3 128 132 86
3 130 133 129
3 130 125 133
3 124 134 131
3 124 159 134
3 86 132 97
3 125 135 133
3 125 126 135
3 157 164 135
3 126 157 135
3 131 134 104
3 159 139 134
3 136 127 93
3 127 136 132
3 132 136 137
3 132 137 97
3 138 163 129
3 129 133 138
3 93 101 136
3 97 137 102
3 133 135 107
3 135 140 107
3 164 168 140
3 135 164 140
3 104 134 141
3 134 139 141
3 139 142 141
3 139 169 142
3 101 105 136
3 102 137 144
3 144 163 102
3 163 138 102
3 138 106 102
3 138 133 106
3 133 107 106
3 169 143 142
3 169 170 143
3 143 170 105
3 105 170 171
3 171 136 105
3 136 172 137
3 140 168 146
3 145 146 168
3 150 149 147
3 147 149 151
3 148 116 175
3 175 116 150
3 116 117 150
3 149 150 117
3 119 151 149
3 119 153 151
3 179 113 114
3 115 148 121
3 152 153 119
3 179 186 113
3 182 114 54
3 121 148 155
3 148 175 155
3 154 153 156
3 186 157 113
3 182 54 188
3 188 54 87
3 158 153 152
3 153 158 156
3 121 155 159
3 155 160 159
3 129 158 152
3 156 158 161
3 162 158 129
3 158 162 161
3 186 193 157
3 159 160 139
3 163 162 129
3 193 164 157
3 166 162 163
3 161 162 167
3 193 195 164
3 196 92 99
3 160 165 139
3 162 166 167
3 195 168 164
3 139 165 169
3 166 163 144
3 196 99 200
3 200 99 145
3 170 169 165
3 198 170 165
3 198 171 170
3 198 197 171
3 171 197 136
3 197 172 136
3 173 137 172
3 144 137 173
3 174 144 173
3 174 166 144
3 195 145 168
3 173 172 197
3 150 205 176
3 150 147 205
3 205 151 177
3 205 147 151
3 205 177 206
3 177 151 153
3 177 153 206
3 206 153 178
3 153 154 178
3 178 154 181
3 180 179 209
3 209 179 114
3 114 182 209
3 175 150 183
3 150 184 183
3 176 212 184
3 150 176 184
3 154 156 185
3 154 185 181
3 180 187 179
3 187 186 179
3 155 175 183
3 155 183 160
3 184 189 183
3 187 185 190
3 187 190 186
3 188 87 216
3 216 87 92
3 183 191 160
3 183 189 191
3 156 161 185
3 185 161 192
3 185 192 190
3 186 190 193
3 216 92 196
3 160 191 165
3 161 167 192
3 192 167 194
3 192 194 190
3 193 190 195
3 189 197 191
3 194 219 190
3 190 219 195
3 198 165 191
3 191 197 198
3 194 167 199
3 202 203 166
3 202 166 174
3 203 167 166
3 199 167 203
3 195 219 204
3 204 200 195
3 195 200 145
3 201 173 197
3 201 220 173
3 202 174 173
3 220 202 173
3 180 224 208
3 180 209 224
3 206 210 205
3 207 210 206
3 206 178 207
3 207 178 181
3 207 181 225
3 225 211 208
3 225 181 211
3 176 205 212
3 207 227 210
3 185 211 181
3 208 211 187
3 180 208 187
3 205 213 212
3 205 210 213
3 210 227 213
3 187 211 185
3 214 184 212
3 189 184 214
3 212 213 214
3 213 215 214
3 217 189 214
3 214 215 217
3 215 218 217
3 197 189 217
3 217 218 220
3 201 197 217
3 217 220 201
3 218 202 220
3 218 221 202
3 203 202 221
3 221 231 203
3 203 231 199
3 199 231 222
3 199 222 194
3 194 222 219
3 219 222 223
3 219 223 204
3 223 233 204
3 200 204 233
3 208 234 225
3 234 208 235
3 208 224 235
3 224 182 235
3 209 182 224
3 226 207 225
3 226 225 234
3 226 227 207
3 227 226 228
3 229 213 227
3 215 213 229
3 227 228 229
3 228 239 229
3 218 215 229
3 239 230 229
3 221 218 229
3 229 230 221
3 230 232 221
3 243 196 200
3 232 231 221
3 222 231 232
3 222 232 244
3 244 242 222
3 222 242 223
3 242 245 223
3 223 245 233
3 245 200 233
3 243 200 245
3 226 234 236
3 234 235 236
3 235 237 236
3 182 237 235
3 182 238 237
3 236 246 228
3 236 228 226
3 236 237 238
3 182 188 238
3 246 247 228
3 238 188 249
3 249 188 216
3 228 247 239
3 247 240 239
3 249 216 196
3 239 240 230
3 241 249 196
3 230 240 232
3 240 241 242
3 241 243 242
3 196 243 241
3 244 232 240
3 240 242 244
3 245 242 243
3 238 246 236
3 246 238 247
3 238 248 247
3 238 249 248
3 247 248 240
3 248 241 240
3 248 249 241
