ply
format ascii 1.0
element vertex 250
property float x
property float y
property float z
element face 500
property list uchar int vertex_indices
end_header
-0.575526 -0.165512 0.382092
-0.556708 -0.133845 0.468939
-0.621459 -0.066202 0.417874
-0.615329 -0.035939 0.338040
-0.572179 -0.069499 0.295901
-0.614330 0.030576 0.504007
-0.589987 0.059389 0.308224
-0.612088 0.089396 0.386690
-0.568866 0.150161 0.479506
-0.539220 0.175252 0.346719
-0.573899 0.186943 0.421150
-0.513214 -0.210181 0.343574
-0.505506 -0.232026 0.396496
-0.559608 -0.021797 0.531739
-0.492402 -0.101402 0.243304
-0.577152 0.072894 0.529489
-0.524344 0.041263 0.251367
-0.510692 0.227580 0.412070
-0.375828 -0.229256 0.240267
-0.413358 0.143582 0.205405
-0.412190 -0.257450 0.351913
-0.368252 -0.123181 0.529349
-0.382580 -0.002930 0.114624
-0.358129 0.013621 0.559008
-0.309794 -0.076456 0.049572
-0.322489 0.043959 0.050427
-0.335121 0.122640 0.099363
-0.360256 0.252200 0.430273
-0.413176 0.244847 0.349232
-0.283140 0.218908 0.177627
-0.274537 -0.268419 0.348204
-0.268379 -0.255191 0.221203
-0.354522 -0.240762 0.439114
-0.283824 -0.203096 0.124010
-0.251822 -0.167545 0.042894
-0.306582 0.186483 0.515314
-0.252746 0.168875 0.057086
-0.187399 -0.239754 0.274254
-0.220848 -0.216791 0.497975
-0.180045 -0.175821 0.562713
-0.273661 -0.072016 0.572355
-0.210675 -0.004871 -0.032487
-0.263450 0.057357 0.579015
-0.213409 0.171913 0.557587
-0.272686 0.269144 0.351563
-0.183861 0.238881 0.256877
-0.216204 -0.255317 0.412645
-0.190017 -0.239142 0.145113
-0.193626 -0.199338 0.029630
-0.121500 -0.191214 0.188474
-0.128483 -0.229634 0.410067
-0.165598 -0.097658 -0.900639
-0.126548 -0.151599 -0.425894
-0.104589 -0.184190 -0.097607
-0.150477 -0.161208 -0.049621
-0.144841 -0.063972 -0.117884
-0.189197 -0.062590 0.607385
-0.123929 -0.118982 -0.983072
-0.149279 -0.032141 -0.447803
-0.116021 -0.074788 -0.329687
-0.149387 -0.004736 -0.986378
-0.179079 0.015077 -0.926758
-0.112828 0.056725 -0.293957
-0.136680 0.079836 -0.123116
-0.179284 0.056885 0.608354
-0.138933 0.104825 -0.966247
-0.166882 0.090706 -0.865696
-0.138266 0.090510 -0.411784
-0.185368 0.198529 0.022002
-0.125566 0.206774 -0.021547
-0.103318 0.181149 -0.438158
-0.111771 0.190164 -0.887238
-0.091726 0.206725 -0.096136
-0.109543 0.190711 0.192120
-0.174875 0.228613 0.067088
-0.119880 0.175002 0.321861
-0.174229 0.239963 0.497800
-0.208621 0.253360 0.420901
-0.100909 0.249348 0.500466
-0.104617 -0.235792 0.500514
-0.054046 -0.271060 -0.808533
-0.032982 -0.272989 -0.512658
-0.016812 -0.248909 -0.061794
-0.123510 -0.224882 0.006907
-0.084985 -0.233701 0.057536
-0.057865 -0.206092 -0.971982
-0.111958 -0.199642 -0.861226
-0.101380 -0.209947 -0.433653
-0.057525 -0.200744 -0.307368
-0.044612 -0.221636 -0.186007
-0.113898 -0.149388 0.271072
-0.097906 -0.110671 -0.190897
-0.079751 -0.081666 0.190926
-0.037799 -0.130395 0.360225
-0.067012 -0.184918 0.592528
-0.013212 -0.137743 -1.035750
-0.100812 -0.042985 -0.248127
-0.047350 -0.044148 0.658005
-0.062305 -0.030824 -1.044691
-0.090315 -0.006114 0.275428
-0.029085 0.055124 0.346620
-0.110225 0.040460 -0.202843
-0.016329 0.131759 -1.027808
-0.068084 0.081035 0.176548
-0.058815 0.202952 -0.297354
-0.052627 0.212516 -0.183980
-0.071363 0.176951 0.593244
-0.038555 0.230658 -0.955362
-0.093327 0.236170 0.062080
-0.082392 0.241717 0.445637
-0.043347 0.275334 -0.848594
-0.030050 0.276281 -0.516215
-0.028267 0.251282 -0.050094
0.012384 -0.291256 -0.820134
0.042134 -0.282222 -0.349413
0.032307 -0.270014 -0.236373
-0.043476 -0.230503 0.444830
0.004363 -0.199772 0.051607
0.072887 -0.178077 0.634332
0.047319 -0.057175 0.125776
-0.036440 0.172874 0.385959
0.026172 0.073387 0.689318
0.075531 0.188869 0.639135
0.026372 0.277516 -0.326581
0.044163 0.279218 -0.125168
0.054217 -0.311698 -0.528666
0.085989 -0.254769 -0.019440
0.052382 -0.249484 0.537968
0.053088 -0.238548 -0.970571
0.091749 -0.251745 0.581737
0.125496 -0.189312 0.092559
0.208831 -0.204818 0.409514
0.190759 -0.130185 -1.040552
0.172229 -0.009385 -1.073162
0.211096 -0.032226 0.338591
0.067361 -0.026895 0.699770
0.055128 0.083088 0.124921
0.199770 0.118128 -1.043224
0.194144 0.110896 0.377326
0.030259 0.213765 0.068962
0.028594 0.239162 -0.988859
0.068172 0.275397 -0.035034
0.018134 0.248379 0.550873
0.131756 0.262869 0.575119
0.118644 0.296074 -0.876371
0.025299 0.311739 -0.784534
0.057426 0.318783 -0.524781
0.134609 -0.297658 -0.859897
0.122514 -0.319692 -0.653284
0.124509 -0.295347 -0.462806
0.176059 -0.304580 -0.789421
0.198950 -0.275763 -0.564399
0.101806 -0.278680 -0.293972
0.118311 -0.274016 -0.147873
0.208580 -0.215924 -0.969413
0.267792 -0.260934 0.103236
0.352810 -0.245865 0.246432
0.220726 0.018336 0.273903
0.096220 0.084994 0.702716
0.275356 0.164583 0.273402
0.160646 0.219769 -0.982705
0.365034 0.247983 0.258872
0.243453 0.220777 0.416507
0.102920 0.304011 -0.454776
0.126079 0.270803 -0.284149
0.201264 0.234559 -0.194527
0.171076 0.276549 -0.066806
0.283907 0.277737 0.478749
0.188483 0.295582 -0.794536
0.123479 0.311023 -0.591548
0.257854 -0.225250 -0.886829
0.206363 -0.229522 -0.409298
0.245117 -0.270169 0.007018
0.279713 -0.278869 0.567190
0.197341 -0.226659 -0.229802
0.266903 -0.198013 -0.522248
0.444148 -0.182910 0.656344
0.279015 -0.153029 -0.978980
0.246527 -0.142126 -0.303840
0.287876 -0.123903 -0.192006
0.290561 -0.095509 -0.414893
0.259423 -0.127513 0.284536
0.274206 -0.155403 0.342511
0.247101 -0.053448 -1.052626
0.273523 -0.001206 -0.308800
0.247627 0.031093 -1.053724
0.248949 0.116385 -0.310379
0.262428 0.125948 0.346834
0.270080 0.123333 -0.406927
0.267422 0.126903 -0.213098
0.289141 0.133376 -0.971902
0.204381 0.202928 -0.306764
0.252658 0.199411 -0.514481
0.192768 0.239428 -0.423760
0.328286 0.275554 0.573438
0.320489 0.264243 0.134406
0.314801 -0.224567 -0.037649
0.328246 -0.287683 0.489842
0.337319 -0.237065 0.364012
0.319654 -0.147588 -0.899740
0.326448 -0.098754 -0.518857
0.412016 -0.125292 -0.020595
0.321375 -0.041295 -0.972667
0.355135 -0.053774 -0.876959
0.399203 -0.071681 0.716141
0.307359 0.009792 -0.190449
0.311775 0.025313 -0.425384
0.325146 0.146597 -0.904400
0.321639 0.086712 -0.516832
0.438652 0.045406 0.716473
0.394598 0.117658 -0.035364
0.259252 0.221801 -0.877832
0.341366 0.205876 -0.025611
0.349947 0.240643 0.341327
0.427141 0.198377 0.647398
0.356934 -0.255048 0.125535
0.423176 -0.249128 0.229334
0.430391 -0.279205 0.411533
0.430098 -0.184052 0.085796
0.419491 -0.036568 -0.044695
0.338495 -0.018861 -0.499614
0.352002 0.040868 -0.886395
0.417595 0.174096 0.047522
0.416608 0.233872 0.177790
0.357524 0.252569 0.105968
0.431648 0.256700 0.325866
0.430174 -0.276868 0.534443
0.512160 -0.251198 0.385595
0.517972 -0.254242 0.473855
0.521164 -0.180733 0.239723
0.507524 -0.159100 0.664691
0.461257 -0.011509 0.026116
0.497051 0.099561 0.119490
0.522900 0.169598 0.226455
0.503277 0.148240 0.676463
0.438851 0.273591 0.525554
0.514181 0.254727 0.453980
0.545320 -0.172577 0.570668
0.570817 -0.178297 0.368837
0.515259 -0.053590 0.127745
0.568551 -0.098312 0.242173
0.514457 -0.051316 0.686293
0.557322 0.038559 0.195412
0.531273 0.086996 0.680058
0.599929 0.121342 0.347293
0.564991 0.196183 0.356408
0.548739 0.180724 0.570572
0.610270 -0.040772 0.369693
0.605002 -0.033640 0.578205
0.600800 0.059720 0.577325
3 1 0 2
3 3 0 4
3 0 3 2
3 1 2 5
3 1 5 13
3 4 6 3
3 2 3 7
3 2 7 5
3 13 5 15
3 7 3 6
3 5 7 8
3 5 8 15
3 9 7 6
3 7 9 10
3 8 7 10
3 12 11 0
3 1 12 0
3 11 4 0
3 11 14 4
3 14 16 4
3 16 6 4
3 16 9 6
3 17 10 9
3 17 8 10
3 20 11 12
3 18 11 20
3 18 14 11
3 21 1 13
3 21 13 23
3 22 16 14
3 23 13 15
3 22 19 16
3 16 19 9
3 19 28 9
3 27 8 17
3 28 17 9
3 31 20 30
3 30 20 32
3 31 18 20
3 32 20 12
3 14 18 33
3 32 12 1
3 21 32 1
3 22 14 33
3 24 25 22
3 26 22 25
3 22 26 19
3 23 15 35
3 35 15 8
3 8 27 35
3 19 29 28
3 28 27 17
3 33 18 31
3 21 38 32
3 21 40 38
3 34 24 33
3 24 22 33
3 40 21 23
3 34 41 24
3 41 25 24
3 40 23 42
3 42 23 35
3 36 25 41
3 25 36 26
3 26 36 29
3 26 29 19
3 29 44 28
3 28 44 27
3 31 30 37
3 37 30 46
3 30 32 46
3 33 47 48
3 33 31 47
3 31 37 47
3 38 46 32
3 48 34 33
3 40 39 38
3 48 41 34
3 39 40 56
3 56 42 64
3 40 42 56
3 64 42 43
3 68 36 41
3 35 43 42
3 36 68 74
3 29 36 74
3 35 76 43
3 74 45 29
3 76 35 77
3 77 35 27
3 45 44 29
3 45 77 44
3 44 77 27
3 48 47 83
3 47 84 83
3 84 47 49
3 37 49 47
3 46 50 37
3 38 79 50
3 46 38 50
3 38 39 79
3 51 52 86
3 86 52 87
3 53 54 83
3 83 54 48
3 57 51 86
3 53 55 54
3 49 37 90
3 37 50 90
3 94 39 56
3 52 51 58
3 52 58 59
3 91 55 53
3 94 56 97
3 54 55 41
3 48 54 41
3 57 60 51
3 51 60 61
3 51 61 58
3 101 55 91
3 59 58 62
3 63 55 101
3 55 63 41
3 97 56 64
3 60 65 61
3 61 65 66
3 61 66 58
3 58 66 67
3 58 67 62
3 41 63 69
3 41 69 68
3 67 66 70
3 62 67 70
3 64 43 106
3 71 66 65
3 66 71 70
3 63 72 69
3 73 75 45
3 69 74 68
3 43 76 106
3 73 45 108
3 45 74 108
3 109 77 75
3 75 77 45
3 77 109 76
3 78 76 109
3 78 106 76
3 85 86 113
3 113 86 80
3 80 86 81
3 81 86 87
3 81 87 88
3 89 53 82
3 53 83 82
3 82 83 84
3 116 50 79
3 94 79 39
3 87 52 88
3 117 84 49
3 57 85 95
3 86 85 57
3 59 88 52
3 89 88 91
3 89 91 53
3 90 92 49
3 50 93 90
3 50 116 93
3 88 59 96
3 88 96 91
3 95 98 57
3 90 99 92
3 90 93 99
3 93 100 99
3 57 98 60
3 91 96 101
3 98 102 60
3 62 96 59
3 92 99 103
3 60 102 65
3 96 62 101
3 99 75 103
3 99 100 75
3 97 64 106
3 70 104 62
3 62 104 101
3 101 104 105
3 101 105 63
3 107 65 102
3 65 107 71
3 63 105 72
3 75 73 103
3 100 120 75
3 75 120 109
3 107 110 71
3 71 110 111
3 71 111 70
3 70 111 104
3 105 112 72
3 112 69 72
3 69 112 108
3 69 108 74
3 113 81 125
3 80 81 113
3 125 81 114
3 113 128 85
3 81 88 114
3 114 88 115
3 115 88 89
3 89 82 115
3 84 117 82
3 82 117 126
3 127 116 79
3 118 127 94
3 94 127 79
3 128 95 85
3 92 117 49
3 119 117 92
3 97 118 94
3 132 133 95
3 134 100 93
3 118 97 135
3 133 98 95
3 92 103 119
3 135 97 121
3 133 102 98
3 136 119 103
3 138 120 100
3 106 121 97
3 139 136 103
3 73 139 103
3 122 121 106
3 102 140 107
3 139 73 108
3 104 111 123
3 104 123 105
3 105 123 124
3 112 105 124
3 108 112 139
3 139 112 141
3 78 109 142
3 122 106 142
3 142 106 78
3 124 141 112
3 107 145 110
3 110 145 111
3 145 146 111
3 111 146 123
3 147 113 148
3 113 125 148
3 148 125 149
3 114 149 125
3 113 147 128
3 147 154 128
3 149 114 152
3 114 115 152
3 152 115 153
3 115 82 153
3 153 82 126
3 130 126 117
3 129 127 118
3 119 130 117
3 119 136 157
3 158 135 121
3 159 136 139
3 158 121 122
3 137 160 102
3 160 140 102
3 162 109 120
3 142 109 167
3 122 142 143
3 107 140 144
3 140 160 144
3 163 164 123
3 123 164 124
3 164 166 124
3 166 141 124
3 142 167 143
3 144 145 107
3 144 169 145
3 145 169 146
3 169 163 146
3 163 123 146
3 148 150 147
3 151 150 148
3 149 151 148
3 170 154 147
3 170 147 150
3 151 149 171
3 153 126 172
3 155 172 126
3 127 129 173
3 149 152 171
3 171 152 174
3 152 153 174
3 155 126 130
3 155 130 156
3 131 116 127
3 173 129 118
3 154 132 128
3 176 173 118
3 132 95 128
3 131 93 116
3 131 134 93
3 133 137 102
3 136 159 157
3 134 138 100
3 138 162 120
3 139 161 159
3 193 191 164
3 163 193 164
3 164 191 165
3 139 195 161
3 109 162 167
3 194 122 143
3 169 193 163
3 165 166 164
3 141 195 139
3 141 166 195
3 169 144 168
3 151 170 150
3 153 172 196
3 197 127 173
3 170 151 175
3 175 151 171
3 174 153 196
3 197 131 127
3 132 154 177
3 154 170 177
3 171 174 178
3 174 196 179
3 156 130 181
3 180 175 171
3 171 178 180
3 174 179 178
3 183 132 177
3 119 181 130
3 182 181 134
3 131 182 134
3 176 118 204
3 204 118 135
3 133 132 183
3 184 180 178
3 179 205 184
3 178 179 184
3 157 181 119
3 181 157 134
3 185 133 183
3 137 133 185
3 185 190 137
3 188 206 184
3 186 188 184
3 184 189 186
3 134 157 187
3 134 187 138
3 157 159 187
3 186 191 188
3 186 189 191
3 138 187 162
3 160 137 190
3 190 211 160
3 192 188 193
3 188 191 193
3 189 165 191
3 189 212 165
3 122 194 214
3 160 211 144
3 144 211 168
3 211 192 168
3 169 168 192
3 193 169 192
3 212 166 165
3 196 172 215
3 172 155 215
3 215 155 156
3 198 131 197
3 177 170 199
3 170 175 199
3 175 200 199
3 179 196 201
3 156 181 198
3 198 181 182
3 131 198 182
3 175 180 200
3 183 177 202
3 177 199 202
3 199 203 202
3 199 200 203
3 179 219 205
3 220 200 180
3 206 220 180
3 180 184 206
3 209 204 135
3 185 183 202
3 203 221 202
3 209 135 158
3 190 185 202
3 202 221 190
3 208 220 206
3 221 207 190
3 221 208 207
3 208 206 188
3 189 184 205
3 192 208 188
3 214 209 158
3 207 208 211
3 212 189 210
3 213 187 159
3 214 158 122
3 211 190 207
3 208 192 211
3 159 161 213
3 187 213 162
3 213 167 162
3 224 166 212
3 224 195 166
3 167 194 143
3 197 226 217
3 217 198 197
3 226 197 173
3 215 218 196
3 215 216 218
3 156 216 215
3 217 216 156
3 198 217 156
3 226 173 176
3 196 218 201
3 179 201 219
3 203 200 220
3 203 220 221
3 220 208 221
3 219 210 205
3 205 210 189
3 212 210 222
3 212 222 224
3 222 223 224
3 223 195 224
3 223 225 161
3 223 161 195
3 213 161 225
3 213 225 167
3 214 194 235
3 225 235 167
3 194 167 235
3 227 216 217
3 217 228 227
3 217 226 228
3 228 226 237
3 226 176 237
3 216 229 218
3 227 229 216
3 176 230 237
3 229 239 218
3 231 201 218
3 218 239 231
3 230 176 241
3 241 176 204
3 201 231 219
3 241 204 209
3 219 231 210
3 239 232 231
3 241 209 243
3 231 222 210
3 231 232 222
3 243 209 234
3 234 209 214
3 223 222 232
3 232 233 223
3 234 214 246
3 223 233 225
3 233 245 225
3 245 236 225
3 236 246 235
3 246 214 235
3 236 235 225
3 229 227 238
3 227 228 238
3 238 228 237
3 229 240 239
3 229 238 240
3 241 237 230
3 248 237 241
3 240 242 239
3 239 242 232
3 249 248 241
3 243 249 241
3 232 242 233
3 242 244 233
3 246 249 243
3 234 246 243
3 244 245 233
3 236 245 246
3 247 240 238
3 238 237 247
3 237 248 247
3 240 247 242
3 248 249 247
3 242 247 244
3 247 249 244
3 249 246 244
3 244 246 245
