ply
format ascii 1.0
element vertex 252
property float x
property float y
property float z
element face 500
property list uchar int vertex_indices
end_header
-0.514011 -0.076372 -0.734130
-0.513445 -0.137878 -0.531894
-0.491841 -0.152971 0.192544
-0.517708 -0.138378 0.423379
-0.493667 -0.089658 0.113730
-0.530966 -0.016727 0.194010
-0.480031 -0.121699 0.522349
-0.500184 0.008566 0.102524
-0.544756 -0.047056 0.447907
-0.530710 0.005214 0.495195
-0.542329 0.004205 -0.552444
-0.503984 0.053186 -0.760914
-0.541767 0.065293 0.424874
-0.473953 0.166305 -0.712682
-0.503685 0.093810 0.125805
-0.489319 0.155927 0.194915
-0.488276 0.110141 0.517749
-0.492961 0.131597 -0.505368
-0.499520 0.163027 0.422579
-0.413763 -0.252624 -0.713460
-0.429101 -0.249636 -0.619867
-0.423225 -0.233440 0.223833
-0.461032 -0.202499 0.432871
-0.475171 -0.168599 -0.732916
-0.503359 -0.058116 -0.459753
-0.348313 -0.123319 -0.927911
-0.286652 -0.000213 0.764605
-0.349092 0.126031 -0.924750
-0.430258 0.136818 0.118960
-0.469692 0.176934 0.488799
-0.426374 0.253805 -0.621461
-0.416945 0.252576 -0.713280
-0.429230 0.227941 0.180538
-0.421883 0.253736 0.265395
-0.341091 -0.288938 -0.699875
-0.338030 -0.292507 0.399942
-0.284974 -0.217428 0.652258
-0.263955 -0.211291 -0.887286
-0.443761 -0.184493 -0.499337
-0.439083 -0.157885 0.125716
-0.408193 -0.087041 -0.449133
-0.427081 -0.055615 0.081716
-0.364684 -0.006017 -0.937856
-0.435365 0.092687 -0.458936
-0.200996 0.110852 0.779286
-0.284383 0.210377 0.657090
-0.425294 0.207540 -0.519113
-0.302389 0.213569 -0.876626
-0.393005 0.257148 0.430365
-0.335136 0.294003 -0.695390
-0.329765 0.302776 0.346032
-0.331514 -0.272467 -0.608738
-0.353349 -0.255761 0.220456
-0.179916 -0.291595 0.618104
-0.277553 -0.190025 -0.514881
-0.294014 -0.148887 0.117030
-0.271101 -0.070708 -0.975221
-0.267405 0.054217 -0.978301
-0.220066 0.008584 0.101009
-0.300142 0.022957 -0.461478
-0.274201 0.156821 -0.511645
-0.380607 0.251508 0.202803
-0.321427 0.280609 -0.613241
-0.186300 0.283580 0.626879
-0.277431 -0.312314 0.382393
-0.237641 -0.258652 0.263824
-0.048747 -0.197983 0.355588
-0.278334 -0.156480 -0.952563
-0.126997 -0.145056 -0.516280
-0.152139 -0.219718 0.731335
-0.255160 -0.094474 -0.477918
-0.204081 -0.113840 0.777321
-0.267267 0.160769 0.140540
-0.181903 0.087947 0.122934
-0.257482 0.152033 -0.955700
-0.168027 0.214696 0.735443
-0.257670 0.297169 0.325642
-0.067135 0.225402 0.352567
0.012828 0.292557 0.492172
-0.190921 -0.298692 -0.705072
-0.175602 -0.305421 -0.779607
-0.183418 -0.232740 -0.584951
-0.195455 -0.132103 0.148290
-0.115967 -0.168970 -0.094576
-0.076928 -0.198125 0.045029
-0.128465 -0.092138 0.036107
-0.089936 -0.040675 0.199397
-0.194698 0.005374 -0.487278
-0.156464 -0.000236 -0.107125
-0.183873 0.003182 0.818966
0.200971 -0.019292 -0.981011
-0.107826 0.040294 -0.488914
-0.133754 0.089548 0.035226
0.178797 0.105704 -0.970106
-0.126842 0.166624 -0.086057
-0.079695 0.042982 0.208873
-0.112255 0.222692 -0.570208
-0.078691 0.201461 0.044190
-0.147104 0.298698 -0.798902
-0.133999 0.310071 -0.703981
-0.055135 -0.300689 0.545886
-0.087663 -0.247100 -0.608999
-0.099277 -0.296513 0.652886
0.020949 -0.272207 -0.068148
0.031572 -0.196530 -0.446252
-0.006775 -0.212022 -0.243674
-0.070993 -0.188742 -0.189798
-0.020297 -0.089646 -0.417910
-0.056708 -0.099790 -0.284543
-0.113675 -0.094605 -0.203070
-0.088579 0.072030 -0.249106
-0.039404 0.076056 -0.409171
-0.014890 -0.006073 0.268286
-0.079377 0.191028 -0.188639
-0.014433 0.202418 -0.255612
0.103371 0.222548 -0.912498
-0.048255 0.255891 -0.064491
-0.063214 0.288786 0.669969
-0.078978 0.321074 0.564542
0.011389 -0.313168 -0.682022
0.084330 -0.330987 -0.750986
0.194583 -0.232395 -0.848115
0.042228 -0.228683 0.147979
0.171159 -0.121389 -0.951548
0.044095 -0.192810 -0.365791
0.025473 -0.151784 0.206976
0.040980 -0.082227 0.347046
0.022393 -0.035027 0.240661
0.352623 -0.070517 0.800432
0.047832 0.038779 0.341478
0.351672 0.057843 0.802774
-0.011265 0.145415 -0.355672
0.035166 0.084590 0.223056
0.023644 0.208878 0.411732
0.017805 0.192020 -0.432341
0.075232 0.204467 0.174931
0.031178 0.308782 -0.635934
0.077850 0.310865 0.038732
0.098017 0.319475 -0.751297
0.139336 -0.347176 -0.674585
0.161951 -0.310320 -0.301979
0.067826 -0.229468 0.444670
0.235869 -0.292446 0.662152
0.107133 -0.267541 -0.447073
0.106026 -0.199499 0.218272
0.340150 -0.196904 0.733293
0.046727 0.210611 -0.367591
0.328818 0.198835 0.715575
0.182377 0.314287 -0.472070
0.103372 0.337462 -0.055042
0.212298 0.307295 0.585082
0.201213 -0.349117 -0.080836
0.194502 -0.337209 -0.507635
0.204927 -0.309939 0.091194
0.248736 -0.307689 0.568908
0.120286 -0.187378 0.406033
0.221935 -0.219865 0.274501
0.229649 -0.231806 0.366415
0.108171 -0.024524 0.289960
0.119107 -0.036177 0.345148
0.191749 0.168321 0.350926
0.155141 0.166041 0.243745
0.181673 0.156696 0.277691
0.105800 0.194211 0.424279
0.201151 0.269296 0.464720
0.209915 0.328034 -0.322769
0.168479 0.338568 -0.659160
0.200331 0.358448 -0.033355
0.215152 -0.330439 -0.667409
0.267708 -0.341059 -0.401553
0.198017 -0.263576 0.455439
0.292952 -0.155030 -0.877315
0.222187 0.205382 -0.879402
0.296346 0.268227 0.325322
0.253030 0.317813 0.117046
0.205462 0.322250 -0.707728
0.270622 0.331591 -0.419647
0.274685 -0.348918 -0.080178
0.290866 -0.332827 0.084108
0.343022 -0.221938 -0.748005
0.322178 -0.307262 0.479291
0.332066 -0.314771 0.197538
0.352836 -0.303656 0.329596
0.396285 -0.221032 -0.654185
0.289837 -0.069591 -0.926299
0.275832 0.044533 -0.940184
0.375697 -0.002508 -0.835211
0.412567 0.113051 -0.746810
0.266352 0.267625 0.397613
0.345699 0.235726 -0.719712
0.283491 0.305663 -0.610952
0.316849 0.309765 0.489392
0.292769 0.336162 -0.276701
0.282587 0.354357 0.008330
0.343464 -0.305863 -0.488812
0.358775 -0.320133 -0.149549
0.395715 -0.314904 0.096171
0.359900 -0.296507 0.600479
0.405085 -0.256550 -0.481771
0.457935 -0.253036 -0.050884
0.413729 -0.122101 -0.742431
0.447568 -0.141685 -0.677103
0.465733 0.128324 -0.670867
0.409671 0.204814 -0.673505
0.388853 0.262182 -0.482701
0.466332 0.247350 -0.027727
0.351851 0.333177 0.057354
0.365617 0.301442 0.581842
0.421894 -0.325106 0.297853
0.445192 -0.307613 0.446567
0.545742 -0.175069 0.579427
0.518910 -0.238833 0.088434
0.570401 -0.247597 0.457688
0.466327 -0.137368 -0.551290
0.523960 -0.167343 -0.013873
0.418229 -0.113516 0.768828
0.472543 -0.006658 -0.671013
0.437848 -0.017169 0.775014
0.439186 0.088022 0.759444
0.481230 0.154630 -0.571347
0.520868 0.172509 -0.060841
0.563575 0.161669 0.588471
0.526622 0.291192 0.253183
0.432783 0.309005 0.453022
0.485072 0.248168 0.580416
0.438932 0.327449 0.294028
0.513251 -0.297030 0.314671
0.635715 -0.179628 0.245938
0.648050 -0.175542 0.358976
0.587872 -0.181156 0.122617
0.565239 -0.155261 0.060029
0.558777 -0.003861 -0.064559
0.502296 0.074255 -0.578041
0.557771 0.084930 -0.045820
0.557638 0.159854 0.048668
0.580236 0.219331 0.487543
0.510481 0.311722 0.344947
0.627181 -0.167231 0.481584
0.645998 -0.046429 0.511410
0.639638 -0.042319 0.135108
0.586074 0.008945 0.035071
0.598086 0.011147 0.593356
0.625630 0.140832 0.161367
0.639787 0.120954 0.496081
0.680738 0.081293 0.422560
0.641101 0.199180 0.368668
0.656475 0.185770 0.281838
0.692894 -0.071870 0.271492
0.686029 -0.050260 0.213249
0.676032 -0.050548 0.434310
0.694669 0.063883 0.339892
0.686285 0.059664 0.229043
3 23 0 1
3 4 5 2
3 2 5 3
3 4 7 5
3 5 8 3
3 3 8 6
3 6 8 9
3 0 10 1
3 1 10 24
3 0 11 10
3 24 10 17
3 8 5 12
3 8 12 9
3 11 13 10
3 7 14 5
3 5 14 15
3 5 15 12
3 9 12 16
3 10 13 17
3 12 15 18
3 16 12 18
3 2 22 21
3 19 23 20
3 20 23 1
3 38 20 1
3 2 21 39
3 22 2 3
3 1 24 38
3 24 40 38
3 39 4 2
3 3 6 22
3 22 6 36
3 23 25 0
3 39 41 4
3 41 7 4
3 9 26 6
3 42 0 25
3 11 0 42
3 40 24 43
3 43 24 17
3 41 28 7
3 27 11 42
3 28 14 7
3 16 26 9
3 11 27 13
3 14 28 15
3 16 18 29
3 29 45 16
3 17 13 30
3 46 43 17
3 13 31 30
3 46 17 30
3 32 15 28
3 15 33 18
3 32 33 15
3 33 48 18
3 18 48 29
3 19 20 34
3 34 20 51
3 52 21 35
3 35 21 22
3 22 36 35
3 20 38 51
3 38 54 51
3 21 52 39
3 23 37 25
3 19 37 23
3 54 38 40
3 55 41 39
3 55 58 41
3 59 40 43
3 16 44 26
3 59 43 60
3 16 45 44
3 60 43 46
3 47 13 27
3 13 47 31
3 61 32 28
3 30 62 46
3 61 33 32
3 29 48 45
3 49 30 31
3 62 30 49
3 50 33 61
3 48 33 50
3 52 64 65
3 35 64 52
3 35 53 64
3 34 37 19
3 36 53 35
3 52 65 55
3 25 37 67
3 70 54 40
3 55 39 52
3 67 56 25
3 6 71 36
3 26 71 6
3 56 57 42
3 25 56 42
3 70 40 59
3 42 57 27
3 58 28 41
3 58 72 28
3 57 74 27
3 61 28 72
3 47 27 74
3 60 46 62
3 61 72 76
3 47 49 31
3 50 61 76
3 63 45 48
3 50 63 48
3 34 79 80
3 79 34 51
3 80 37 34
3 79 51 81
3 53 36 69
3 54 81 51
3 54 68 81
3 82 55 65
3 65 66 82
3 54 70 68
3 71 69 36
3 55 82 58
3 68 70 87
3 90 57 56
3 87 70 59
3 89 71 26
3 87 59 60
3 72 58 73
3 44 89 26
3 45 75 44
3 73 77 72
3 96 60 62
3 72 77 76
3 49 47 98
3 99 96 62
3 77 78 76
3 45 63 75
3 99 49 98
3 62 49 99
3 65 64 100
3 100 64 53
3 101 79 81
3 69 102 53
3 81 68 101
3 84 83 85
3 58 82 86
3 88 83 109
3 83 88 85
3 91 68 87
3 110 88 109
3 85 88 92
3 86 95 58
3 58 95 73
3 87 60 91
3 94 88 110
3 88 94 92
3 93 74 57
3 91 60 96
3 92 94 97
3 95 77 73
3 93 115 74
3 115 47 74
3 117 75 63
3 78 118 76
3 118 50 76
3 118 63 50
3 80 119 120
3 79 119 80
3 79 101 119
3 53 102 100
3 37 120 121
3 80 120 37
3 65 100 66
3 106 83 103
3 83 84 103
3 103 84 122
3 123 67 37
3 101 68 104
3 107 104 68
3 105 108 106
3 106 108 109
3 106 109 83
3 84 85 125
3 82 66 86
3 125 85 127
3 128 71 89
3 68 91 107
3 109 108 110
3 128 89 130
3 107 91 111
3 107 111 108
3 108 111 110
3 85 92 127
3 86 112 95
3 92 132 127
3 131 110 111
3 130 89 44
3 91 96 111
3 114 110 131
3 110 113 94
3 92 97 132
3 110 114 113
3 136 96 99
3 113 116 94
3 137 97 116
3 97 94 116
3 115 98 47
3 138 98 115
3 118 117 63
3 102 142 100
3 119 101 104
3 106 103 105
3 100 141 66
3 142 102 69
3 122 84 125
3 71 145 69
3 104 107 124
3 86 66 126
3 66 141 126
3 123 56 67
3 124 107 108
3 105 124 108
3 86 126 112
3 126 129 112
3 95 112 129
3 133 95 129
3 134 111 96
3 111 134 131
3 135 132 97
3 77 95 133
3 134 146 131
3 146 114 131
3 136 134 96
3 116 113 114
3 97 137 135
3 77 133 78
3 138 99 98
3 99 138 136
3 116 149 137
3 150 118 78
3 150 117 118
3 139 120 119
3 139 119 143
3 105 103 140
3 103 122 153
3 100 154 141
3 100 142 154
3 119 104 143
3 124 105 140
3 122 144 153
3 121 123 37
3 124 143 104
3 122 125 144
3 144 125 158
3 158 125 127
3 155 126 141
3 145 71 128
3 155 159 126
3 159 129 126
3 158 127 132
3 158 132 161
3 159 163 129
3 161 132 135
3 163 133 129
3 134 148 146
3 78 133 163
3 136 148 134
3 164 78 163
3 149 116 114
3 164 150 78
3 138 166 136
3 139 168 120
3 152 168 139
3 103 151 140
3 151 103 153
3 152 139 143
3 141 154 170
3 168 121 120
3 140 152 143
3 124 140 143
3 144 156 153
3 170 155 141
3 145 142 69
3 170 157 155
3 158 156 144
3 157 156 159
3 157 159 155
3 156 158 159
3 123 90 56
3 93 57 90
3 159 158 160
3 161 162 158
3 158 162 160
3 159 160 163
3 147 44 75
3 172 115 93
3 160 164 163
3 147 75 117
3 172 138 115
3 138 172 175
3 165 146 148
3 114 146 165
3 174 135 137
3 161 135 174
3 117 150 147
3 136 166 148
3 149 114 165
3 167 174 137
3 175 166 138
3 165 167 149
3 149 167 137
3 169 140 177
3 140 151 177
3 151 153 177
3 177 153 178
3 168 152 169
3 140 169 152
3 178 153 181
3 170 154 180
3 121 168 179
3 181 153 156
3 157 170 180
3 123 121 171
3 121 179 171
3 171 184 123
3 90 123 184
3 184 185 90
3 90 185 93
3 185 172 93
3 147 130 44
3 161 173 162
3 162 173 160
3 161 174 173
3 173 188 160
3 188 164 160
3 172 189 175
3 189 190 175
3 175 190 166
3 148 166 190
3 148 190 176
3 176 165 148
3 193 174 167
3 188 191 164
3 164 191 150
3 176 192 165
3 165 192 167
3 193 167 192
3 168 169 194
3 194 169 195
3 169 177 195
3 177 178 196
3 195 177 196
3 181 196 178
3 180 154 197
3 142 197 154
3 168 183 179
3 168 194 183
3 181 156 182
3 182 156 157
3 157 180 182
3 197 142 145
3 185 184 186
3 186 187 185
3 185 187 172
3 187 189 172
3 203 190 189
3 203 204 190
3 150 207 147
3 204 176 190
3 204 192 176
3 192 206 193
3 193 206 174
3 173 191 188
3 191 207 150
3 196 181 208
3 181 182 208
3 208 182 209
3 182 180 209
3 209 180 197
3 194 198 183
3 194 195 198
3 195 199 198
3 196 199 195
3 209 197 210
3 197 145 210
3 171 179 200
3 179 183 200
3 183 201 200
3 200 184 171
3 215 145 128
3 184 200 186
3 215 128 217
3 217 128 130
3 217 130 218
3 218 130 147
3 202 203 187
3 221 218 147
3 187 203 189
3 224 221 147
3 204 205 192
3 205 206 192
3 223 224 207
3 224 147 207
3 206 225 174
3 174 225 173
3 225 223 173
3 173 223 191
3 207 191 223
3 196 208 226
3 226 208 209
3 196 226 211
3 226 209 212
3 210 212 209
3 199 196 211
3 183 213 201
3 183 198 213
3 198 199 213
3 199 214 213
3 211 214 199
3 210 145 215
3 213 216 201
3 201 216 200
3 187 186 200
3 200 216 187
3 216 202 187
3 216 232 202
3 232 219 202
3 219 203 202
3 203 219 204
3 219 220 204
3 220 205 204
3 205 222 206
3 236 235 223
3 222 225 206
3 222 236 225
3 223 225 236
3 226 227 211
3 226 228 227
3 212 228 226
3 227 229 211
3 214 211 230
3 229 230 211
3 237 212 210
3 217 210 215
3 213 214 231
3 230 240 214
3 241 210 217
3 232 216 213
3 213 231 232
3 214 240 231
3 231 233 232
3 231 240 233
3 218 241 217
3 240 234 233
3 221 241 218
3 232 233 219
3 233 234 220
3 220 219 233
3 205 220 234
3 234 242 222
3 234 222 205
3 235 221 224
3 224 223 235
3 228 212 237
3 237 210 238
3 229 239 230
3 227 248 239
3 227 239 229
3 249 237 238
3 230 239 240
3 210 241 238
3 248 251 239
3 239 242 240
3 239 251 242
3 244 249 238
3 243 244 238
3 238 241 243
3 240 242 234
3 241 221 243
3 244 243 245
3 243 235 245
3 243 221 235
3 242 246 222
3 245 222 246
3 236 222 245
3 245 235 236
3 227 228 247
3 227 247 248
3 237 249 228
3 228 250 247
3 228 249 250
3 247 251 248
3 247 250 251
3 249 244 250
3 242 251 246
3 251 250 246
3 250 245 246
3 244 245 250
