ply
format ascii 1.0
element vertex 250
property float x
property float y
property float z
element face 500
property list uchar int vertex_indices
end_header
-0.501035 -0.147520 -0.436876
-0.494773 -0.166794 -0.351108
-0.486680 -0.115987 -0.507079
-0.522796 -0.036215 -0.351854
-0.504422 -0.008017 -0.508686
-0.533485 0.049322 -0.443051
-0.498238 0.102791 -0.497245
-0.484834 0.163066 -0.367338
-0.499038 0.152908 -0.447818
-0.416861 -0.225400 -0.424456
-0.426154 -0.235796 -0.348853
-0.427834 -0.196919 -0.227846
-0.460687 -0.092651 -0.193634
-0.396843 -0.126180 -0.057014
-0.418308 0.006452 -0.041409
-0.455642 0.092586 -0.190482
-0.403960 0.134989 -0.065217
-0.425740 0.156967 -0.489975
-0.381425 0.232039 -0.209222
-0.411620 0.227068 -0.410604
-0.392092 0.253650 -0.353696
-0.418202 -0.156547 -0.492281
-0.353471 -0.243055 -0.172569
-0.454419 -0.066170 -0.528638
-0.364042 -0.086049 0.048543
-0.335427 -0.050020 0.124182
-0.410335 0.069094 -0.526300
-0.370449 0.088578 0.035400
-0.332469 0.059297 0.126141
-0.334332 0.223871 -0.040322
-0.310138 -0.202528 0.026482
-0.282768 -0.189635 0.102685
-0.263202 -0.141130 0.202040
-0.059033 -0.044203 -0.500750
-0.296634 -0.026376 0.207182
-0.271594 0.098741 0.210648
-0.282621 0.207343 0.074372
-0.265576 0.268102 -0.063500
-0.241348 -0.279550 -0.330943
-0.273106 -0.282302 -0.228669
-0.156858 -0.232406 -0.421022
-0.234650 -0.259073 0.023765
-0.173409 -0.251609 -0.113998
-0.207395 -0.234421 0.177139
-0.195383 -0.203964 0.253439
-0.227481 -0.093370 0.311959
-0.229492 0.037839 0.328677
-0.034490 0.030180 -0.501259
-0.209849 0.154504 0.289576
-0.190295 0.235332 0.205576
-0.123291 0.233882 -0.409690
-0.240428 0.281548 -0.337935
-0.285865 0.286974 -0.269975
-0.176771 0.247232 -0.100059
-0.160783 0.276180 0.152919
-0.182899 -0.273371 -0.257890
-0.111922 -0.277259 0.223262
-0.136844 -0.236005 -0.192701
-0.154450 -0.152037 0.419722
-0.109871 -0.195824 -0.126696
-0.134744 -0.090065 0.515755
-0.178727 -0.005533 0.435989
-0.144981 0.071868 0.497180
-0.165692 0.120995 0.426212
-0.046112 0.132892 -0.466573
-0.110046 0.173899 -0.123458
-0.156414 0.217100 0.319008
-0.110295 0.174636 0.497583
-0.117399 0.204316 -0.191551
-0.188510 0.271598 -0.246419
-0.138223 0.274342 0.115704
-0.085984 0.272144 0.312929
-0.038535 -0.248584 -0.343871
-0.074537 -0.271241 0.149526
-0.097464 -0.208694 -0.030270
-0.087103 -0.204894 0.502172
-0.035586 -0.164340 -0.450861
-0.085978 -0.159568 0.595949
-0.035006 -0.172942 0.643522
-0.036733 -0.215924 -0.239742
-0.055734 -0.034453 -0.137374
-0.102992 0.000396 0.595535
-0.054713 0.024931 0.674614
-0.073901 0.173113 0.587210
-0.008632 0.198629 0.652775
0.018304 0.232380 -0.377994
-0.092623 0.213145 -0.002776
-0.058690 0.226330 0.540851
-0.044645 0.253662 -0.339533
0.011300 -0.306778 0.258936
0.015956 -0.313656 0.345526
0.053196 -0.288141 0.516356
0.032463 -0.278559 0.215163
-0.074129 -0.158791 -0.045687
-0.039982 -0.161012 0.039617
0.048426 -0.127781 -0.475289
0.094095 -0.236417 -0.162348
0.036550 -0.153993 0.110087
0.054238 -0.195571 0.724502
0.103949 -0.156679 -0.043898
-0.017250 -0.039612 -0.141176
0.087636 -0.046856 -0.021090
-0.032814 -0.031838 -0.015866
0.002953 0.010820 0.043094
0.059361 -0.088410 0.759166
0.080094 0.040632 -0.034673
-0.031433 0.108486 -0.165265
-0.066204 0.145368 -0.027185
0.057389 0.091217 0.762492
-0.027404 0.157911 0.039852
0.090021 0.169992 -0.456466
-0.034789 0.225209 -0.262640
0.014010 0.206145 0.120055
0.037025 0.179395 0.738470
-0.033511 0.280622 0.228790
0.050862 0.264080 0.205917
0.035704 0.287821 0.502516
0.041550 -0.236826 -0.364641
0.109227 -0.260345 -0.353913
0.044684 -0.256648 -0.293621
0.086704 -0.243810 0.668000
0.159875 -0.213373 -0.477325
0.106709 -0.136048 0.053402
0.169041 -0.126513 -0.598900
0.047426 0.015588 -0.503501
0.086880 -0.005564 0.031970
0.048352 0.050366 0.067338
0.160013 0.093389 -0.588619
0.110644 0.143015 0.049922
0.131670 0.182052 -0.041331
0.041947 0.214759 -0.212654
0.054604 0.254700 -0.288604
0.171659 0.279763 -0.328929
0.116318 0.250323 0.651561
0.097778 0.306368 0.280930
0.047493 0.316565 0.332731
0.142264 -0.294592 0.263341
0.102008 -0.318490 0.368393
0.190991 -0.290913 -0.270496
0.189171 -0.279603 -0.164238
0.133266 -0.256026 0.182422
0.185771 -0.294838 0.368374
0.146714 -0.284061 0.520680
0.198618 -0.250761 0.105121
0.261558 -0.225903 0.423019
0.186662 -0.244848 -0.039607
0.109660 -0.200211 0.741294
0.211611 -0.105909 -0.906721
0.182694 -0.012767 -0.870731
0.151626 -0.000973 -0.584132
0.165777 -0.019872 0.787521
0.195500 0.094798 0.773505
0.221354 0.105120 -0.893484
0.104843 0.197459 0.736568
0.203134 0.175290 -0.593188
0.181620 0.258147 -0.114082
0.190280 0.238074 0.017618
0.136785 0.260343 0.173489
0.214722 0.301067 -0.247109
0.237405 0.261327 0.078467
0.109241 0.291513 0.533505
0.206386 0.229841 0.563127
0.178485 0.289554 0.271598
0.122010 0.310978 0.372770
0.238386 -0.270010 0.155654
0.284800 -0.272454 -0.024954
0.272010 -0.257589 0.208713
0.233913 -0.203639 0.581969
0.179098 -0.177669 0.728496
0.285193 -0.218238 -0.827142
0.230058 -0.154818 0.710992
0.200185 -0.026955 -0.941548
0.282093 -0.085726 0.601775
0.240581 -0.030463 0.740927
0.254039 0.007863 -0.972979
0.278519 0.088510 0.613737
0.239421 0.092399 0.744218
0.187571 0.187755 0.713607
0.275001 0.199755 -0.900468
0.297093 0.237974 -0.794964
0.268620 0.251702 -0.478212
0.272193 0.206009 0.404955
0.240777 0.264067 0.165966
0.272190 -0.294726 -0.225009
0.266881 -0.262294 -0.463640
0.344259 -0.221002 -0.864518
0.283854 -0.244801 -0.608979
0.347265 -0.262445 -0.734384
0.371522 -0.240425 -0.363952
0.377820 -0.232570 -0.056971
0.344016 -0.226436 0.075357
0.297031 -0.144603 0.495575
0.260896 -0.127278 -0.942574
0.350722 -0.176033 0.204946
0.332321 -0.106001 0.415475
0.389316 -0.043291 0.235338
0.324742 -0.001915 0.503994
0.272196 0.134160 -0.947835
0.367625 0.120341 0.225732
0.342958 0.055026 0.423284
0.299273 0.133705 0.510738
0.283772 0.236722 0.221883
0.345666 0.253758 -0.813551
0.358192 0.257722 -0.702388
0.364130 0.232621 -0.383728
0.272775 0.295574 -0.277347
0.279660 0.275119 -0.082880
0.316159 0.231417 0.095696
0.348652 -0.271789 -0.149604
0.359464 -0.244140 -0.599341
0.421089 -0.183509 -0.546266
0.446466 -0.131052 -0.345428
0.346057 -0.099478 -0.963394
0.438975 -0.161344 -0.882202
0.402475 -0.121996 0.118976
0.440019 -0.111291 0.002177
0.338700 0.070753 -0.970142
0.435903 -0.035500 -0.939096
0.330351 0.214232 -0.886170
0.453270 0.117156 -0.547221
0.436877 0.122705 -0.336803
0.442097 0.151687 -0.051350
0.405703 0.131394 0.076642
0.429634 0.129675 -0.899823
0.433586 0.171588 -0.269977
0.389393 0.226244 -0.581599
0.331539 0.255881 -0.543350
0.439162 0.192498 -0.121842
0.369268 0.235084 -0.057998
0.410581 0.222651 -0.780903
0.383222 0.243254 -0.189929
0.413530 -0.232463 -0.758541
0.457571 -0.144857 -0.203643
0.489585 -0.159992 -0.806306
0.471500 -0.139324 -0.675309
0.511274 -0.071939 -0.831774
0.471683 -0.053350 -0.565071
0.462487 0.006220 -0.363890
0.484391 0.022805 -0.260715
0.510623 0.035417 -0.868958
0.471341 0.030658 -0.022493
0.427104 0.001764 0.114018
0.482485 0.137641 -0.678838
0.493371 0.130256 -0.817761
0.483782 0.134974 -0.187301
0.491294 -0.064285 -0.106207
0.505741 0.025815 -0.670254
0.529512 0.048855 -0.800574
0.518671 0.028881 -0.178411
0.503058 0.085258 -0.125673
3 1 0 3
3 2 4 0
3 0 4 5
3 0 5 3
3 4 6 5
3 3 5 7
3 8 5 6
3 5 8 7
3 0 9 21
3 9 0 10
3 10 0 1
3 10 1 11
3 21 2 0
3 21 23 2
3 11 1 12
3 23 4 2
3 1 3 12
3 12 14 13
3 23 26 4
3 12 3 15
3 12 15 14
3 3 7 15
3 14 15 16
3 26 6 4
3 6 26 17
3 6 17 8
3 7 18 15
3 19 8 17
3 8 19 7
3 7 19 20
3 18 7 20
3 10 11 22
3 22 11 13
3 30 22 13
3 30 13 24
3 11 12 13
3 14 24 13
3 33 26 23
3 27 24 14
3 24 27 25
3 25 27 28
3 16 27 14
3 15 18 16
3 16 18 29
3 16 29 27
3 9 38 40
3 10 38 9
3 22 39 10
3 39 38 10
3 39 22 41
3 9 40 21
3 22 30 41
3 41 30 31
3 30 24 31
3 31 24 25
3 31 25 32
3 25 34 32
3 28 34 25
3 33 47 26
3 35 34 28
3 27 36 28
3 28 36 35
3 27 29 36
3 50 19 17
3 29 18 37
3 37 36 29
3 51 20 19
3 18 20 52
3 20 51 52
3 52 37 18
3 55 38 39
3 55 39 42
3 42 39 41
3 31 43 41
3 32 43 31
3 43 32 44
3 44 32 45
3 34 45 32
3 45 34 46
3 45 46 61
3 34 35 46
3 35 48 46
3 63 46 48
3 46 63 61
3 36 49 35
3 35 49 48
3 64 50 17
3 66 48 49
3 48 66 63
3 54 36 37
3 54 49 36
3 19 50 51
3 51 69 52
3 52 69 37
3 53 37 69
3 37 70 54
3 53 70 37
3 72 40 38
3 38 55 72
3 42 41 73
3 41 56 73
3 42 57 55
3 42 73 74
3 43 56 41
3 43 44 56
3 56 44 58
3 76 21 40
3 59 57 42
3 42 74 59
3 75 58 60
3 76 33 21
3 33 23 21
3 44 45 58
3 61 58 45
3 58 61 60
3 60 61 62
3 60 62 81
3 61 63 62
3 47 64 26
3 64 17 26
3 81 62 67
3 62 63 67
3 68 65 53
3 65 86 53
3 67 63 66
3 69 68 53
3 71 49 54
3 66 49 71
3 51 50 88
3 69 51 88
3 86 70 53
3 73 56 89
3 75 90 56
3 90 89 56
3 90 75 91
3 40 72 76
3 72 55 79
3 55 57 79
3 75 56 58
3 93 59 74
3 93 74 94
3 74 73 94
3 59 79 57
3 75 60 77
3 100 79 80
3 80 79 59
3 59 93 80
3 81 77 60
3 77 81 78
3 78 81 82
3 78 82 104
3 106 100 80
3 65 106 80
3 80 107 65
3 81 83 82
3 82 83 84
3 82 84 108
3 111 106 68
3 106 65 68
3 67 83 81
3 85 50 64
3 86 65 107
3 107 109 86
3 109 112 86
3 83 67 87
3 87 84 83
3 85 88 50
3 88 111 69
3 111 68 69
3 112 70 86
3 112 114 70
3 66 71 67
3 67 71 87
3 114 54 70
3 54 114 71
3 92 73 89
3 72 117 76
3 117 72 119
3 72 79 119
3 79 96 119
3 75 78 91
3 95 76 117
3 73 97 94
3 73 92 97
3 78 75 77
3 78 98 120
3 96 79 99
3 79 100 99
3 76 95 33
3 101 99 100
3 93 94 102
3 94 103 102
3 94 97 103
3 104 98 78
3 95 124 33
3 102 80 93
3 97 126 103
3 33 124 47
3 105 101 100
3 104 82 108
3 106 105 100
3 102 107 80
3 47 124 64
3 102 103 107
3 103 109 107
3 103 126 109
3 124 110 64
3 126 112 109
3 113 108 84
3 110 85 64
3 130 106 111
3 85 131 88
3 88 131 111
3 130 111 131
3 112 115 114
3 84 87 116
3 115 134 114
3 116 87 71
3 114 135 71
3 134 135 114
3 135 116 71
3 136 89 137
3 89 90 137
3 90 91 137
3 91 142 137
3 118 119 138
3 140 92 136
3 136 92 89
3 120 142 91
3 118 121 117
3 119 118 117
3 120 91 78
3 122 97 140
3 140 97 92
3 146 120 98
3 95 121 123
3 117 121 95
3 146 98 104
3 123 124 95
3 99 101 122
3 122 101 125
3 122 125 97
3 97 125 126
3 101 105 125
3 150 104 108
3 150 108 151
3 125 105 128
3 125 128 126
3 127 110 124
3 106 129 105
3 105 129 128
3 126 128 112
3 151 108 153
3 106 130 129
3 153 108 113
3 130 155 129
3 128 157 112
3 112 157 115
3 113 84 153
3 85 110 132
3 131 85 132
3 130 131 155
3 84 116 133
3 133 153 84
3 132 158 131
3 115 157 134
3 116 160 133
3 134 163 135
3 135 163 116
3 160 116 163
3 141 136 137
3 137 142 141
3 119 139 138
3 140 164 143
3 140 136 164
3 141 142 144
3 96 139 119
3 139 96 145
3 144 142 167
3 142 120 168
3 167 142 168
3 120 146 168
3 122 140 143
3 145 96 99
3 143 145 99
3 122 143 99
3 168 146 104
3 148 147 171
3 147 148 123
3 123 148 149
3 123 149 124
3 168 104 150
3 152 148 171
3 148 152 127
3 148 127 149
3 124 149 127
3 127 154 110
3 156 128 129
3 157 128 156
3 151 153 177
3 154 180 110
3 110 180 132
3 156 129 155
3 159 157 156
3 161 177 133
3 160 161 133
3 177 153 133
3 131 158 155
3 159 182 157
3 162 134 157
3 162 157 182
3 161 160 163
3 163 134 162
3 138 139 183
3 118 138 184
3 138 183 184
3 165 183 139
3 165 139 145
3 143 165 145
3 143 164 165
3 136 166 164
3 141 166 136
3 169 123 186
3 186 121 184
3 123 121 186
3 184 121 118
3 166 141 144
3 192 147 169
3 191 144 167
3 168 170 167
3 169 147 123
3 172 191 167
3 147 192 171
3 167 170 172
3 170 173 172
3 170 168 173
3 192 174 171
3 168 150 173
3 172 173 175
3 171 174 152
3 173 176 175
3 173 151 176
3 150 151 173
3 174 197 152
3 154 127 152
3 175 176 177
3 176 151 177
3 178 152 197
3 161 200 175
3 175 177 161
3 179 152 178
3 152 179 154
3 154 179 180
3 200 161 181
3 182 201 162
3 162 201 181
3 180 205 132
3 158 205 206
3 155 158 206
3 155 206 156
3 206 159 156
3 163 162 181
3 181 161 163
3 205 158 132
3 183 188 184
3 208 188 183
3 183 165 208
3 208 165 189
3 190 189 165
3 164 190 165
3 187 185 169
3 186 187 169
3 187 186 209
3 186 184 209
3 184 188 209
3 190 164 166
3 169 185 192
3 185 212 192
3 193 190 166
3 166 144 193
3 144 194 193
3 144 191 194
3 193 194 195
3 192 212 174
3 196 194 191
3 191 172 196
3 212 216 174
3 172 175 196
3 216 197 174
3 199 196 200
3 175 200 196
3 216 218 197
3 199 181 198
3 199 200 181
3 178 197 218
3 207 222 198
3 201 207 198
3 198 181 201
3 218 202 179
3 218 179 178
3 203 179 202
3 203 226 179
3 179 226 180
3 204 180 226
3 206 228 207
3 207 201 182
3 205 180 204
3 204 230 205
3 205 230 206
3 206 230 228
3 159 206 207
3 182 159 207
3 185 231 213
3 185 187 231
3 231 187 209
3 188 210 209
3 188 232 211
3 188 208 232
3 232 208 189
3 212 185 213
3 188 211 210
3 190 193 214
3 189 190 215
3 190 214 215
3 213 217 212
3 214 193 195
3 216 212 217
3 194 199 195
3 194 196 199
3 241 214 195
3 217 223 216
3 198 241 195
3 195 199 198
3 222 241 198
3 223 218 216
3 220 204 219
3 220 224 204
3 223 229 218
3 219 204 225
3 227 221 228
3 221 222 228
3 222 207 228
3 218 229 202
3 225 203 229
3 226 203 225
3 204 226 225
3 224 230 204
3 230 227 228
3 203 202 229
3 233 213 231
3 209 234 231
3 213 233 235
3 234 233 231
3 209 210 234
3 217 213 235
3 234 210 236
3 211 236 210
3 232 189 245
3 245 189 215
3 211 237 236
3 211 238 237
3 211 232 238
3 239 217 235
3 246 234 236
3 240 245 215
3 215 241 240
3 215 214 241
3 249 245 240
3 223 217 239
3 219 246 236
3 236 237 219
3 241 222 240
3 242 246 219
3 237 220 219
3 237 238 220
3 238 224 220
3 238 244 224
3 239 243 223
3 244 249 227
3 249 240 221
3 249 221 227
3 222 221 240
3 229 223 243
3 225 229 242
3 229 243 242
3 242 219 225
3 230 224 244
3 230 244 227
3 233 234 235
3 234 246 235
3 247 239 235
3 235 246 247
3 248 238 232
3 232 245 248
3 245 249 248
3 243 239 247
3 246 242 247
3 244 238 248
3 243 247 242
3 244 248 249
