ply
format ascii 1.0
element vertex 252
property float x
property float y
property float z
element face 500
property list uchar int vertex_indices
end_header
-0.547555 -0.166721 -0.549878
-0.545443 -0.193212 -0.265340
-0.608180 -0.043214 -0.284982
-0.536626 -0.148116 -0.125190
-0.595237 0.010538 -0.195896
-0.586354 0.012236 -0.585977
-0.533062 0.178803 -0.573235
-0.564748 0.156612 -0.290361
-0.446961 -0.268270 -0.152077
-0.489775 -0.184748 -0.646920
-0.494573 -0.125097 0.012980
-0.509462 -0.091470 -0.680789
-0.552966 -0.037318 -0.092589
-0.510877 0.061213 -0.678455
-0.502726 0.087871 0.033225
-0.538558 0.146562 -0.131067
-0.481007 0.181048 -0.639338
-0.478976 0.187606 0.010205
-0.446489 0.305955 -0.404384
-0.413941 -0.283459 -0.512872
-0.439040 -0.302171 -0.363343
-0.414543 -0.250214 -0.014076
-0.447177 -0.152808 0.113265
-0.424799 -0.075015 0.212023
-0.470151 0.022067 0.132181
-0.431730 0.082503 0.199087
-0.453873 0.152696 0.112697
-0.415220 0.284254 -0.517186
-0.440911 0.264046 -0.156023
-0.396956 0.235530 0.080696
-0.234376 -0.269936 -0.523448
-0.363358 -0.208716 0.186793
-0.358682 -0.120003 0.266895
-0.391928 -0.012817 0.264129
-0.331382 -0.083456 0.522315
-0.340044 -0.072531 0.816685
-0.355514 -0.009938 0.508865
-0.342746 0.057785 0.799295
-0.344539 0.059158 0.516350
-0.360017 0.128742 0.258967
-0.369031 0.194032 0.200256
-0.228562 0.273979 -0.521772
-0.344135 -0.310006 -0.389978
-0.370139 -0.287788 -0.155249
-0.299076 -0.281512 -0.023999
-0.255169 -0.220169 -0.220331
-0.278361 -0.251207 -0.113420
-0.267413 -0.286239 0.116161
-0.358068 -0.176861 -0.641828
-0.187668 -0.177536 -0.611409
-0.255503 -0.213190 0.255345
-0.244032 -0.165015 0.547254
-0.250216 -0.210882 0.816182
-0.222496 -0.093712 -0.646970
-0.286721 -0.115875 0.911215
-0.369937 -0.034720 -0.685833
-0.262648 -0.004430 0.323304
-0.303108 -0.003353 0.918985
-0.286555 0.107998 0.904994
-0.349464 0.162840 -0.634475
-0.169647 0.108756 -0.629713
-0.313308 0.175568 0.645151
-0.274849 0.209367 0.798161
-0.259401 0.153647 0.546357
-0.241699 0.208323 -0.595130
-0.250715 0.205374 0.264538
-0.256115 0.235880 0.662234
-0.371902 0.314811 -0.390560
-0.281626 0.252931 -0.222290
-0.345825 0.284170 -0.163482
-0.251758 0.264430 -0.079046
-0.237687 0.303145 0.079736
-0.209974 0.294349 0.166319
-0.140605 -0.279460 -0.417751
-0.164496 -0.236304 -0.339967
-0.154552 -0.262888 0.639000
-0.182286 -0.282573 0.731147
-0.135475 -0.093706 -0.261213
-0.200359 -0.174722 0.927101
-0.203150 -0.083484 0.488087
-0.304792 -0.020544 0.470875
-0.198516 -0.066295 0.957606
-0.188156 0.008818 -0.649994
-0.172741 0.111746 0.935928
-0.112670 0.169341 0.559701
-0.174040 0.185082 -0.099255
-0.186018 0.146375 -0.240836
-0.130173 0.257348 0.629282
-0.219740 0.232857 0.853505
-0.232298 0.277597 -0.409739
-0.164489 0.289894 0.765049
-0.165947 -0.302177 0.122518
-0.191004 -0.279112 0.046344
-0.126669 -0.287603 0.192131
-0.193808 -0.217060 -0.049089
-0.181526 -0.131197 -0.121033
-0.117211 -0.148419 0.369006
-0.172206 -0.041931 -0.197801
-0.116972 0.004431 0.400504
-0.138163 0.021688 -0.120706
-0.204762 0.035206 0.486180
-0.108003 -0.006415 0.515174
-0.131573 0.097022 -0.270784
-0.122330 0.146081 0.350599
-0.149254 0.293630 0.104295
0.022877 -0.311459 0.694625
-0.051511 -0.265147 0.108225
-0.098940 -0.291961 0.824026
0.493316 -0.203792 -0.600448
-0.118433 -0.252924 0.278930
-0.126103 -0.238674 0.896850
-0.093233 -0.165938 0.552196
-0.122233 -0.103102 -0.078312
0.443551 -0.069896 -0.666077
-0.025278 -0.024151 0.489409
-0.014411 0.081780 0.480259
0.196541 0.041867 0.954754
-0.104887 0.122614 -0.073510
0.519809 0.056749 -0.692840
0.477223 0.212839 -0.585928
-0.114054 0.227167 -0.355188
-0.077532 0.285376 0.205974
0.056583 0.237883 0.406847
-0.092345 0.287570 0.824384
0.115885 0.297941 -0.471405
-0.019007 0.279256 -0.422891
-0.034942 0.274088 0.124579
0.101757 -0.283618 -0.462456
-0.003511 -0.225359 -0.316557
-0.054807 -0.157907 -0.003545
0.076765 -0.265606 0.438174
0.032214 -0.197845 0.523598
-0.058393 -0.123143 -0.262383
0.170326 -0.112745 0.943877
0.036373 -0.143985 -0.239075
-0.022113 0.027030 0.526801
0.045517 -0.034697 -0.213046
-0.057061 0.034494 -0.249428
-0.047829 0.041287 -0.048488
0.128991 -0.015922 0.053674
0.082583 0.096422 -0.227619
-0.036153 0.207401 -0.326248
-0.072467 0.179328 -0.012878
0.035981 0.181271 0.522476
0.203294 0.147796 0.936518
-0.002105 0.227902 0.589915
0.182848 0.209898 0.892790
0.123638 0.292936 0.811932
0.103767 -0.282487 -0.416351
0.094934 -0.259476 0.184302
0.069480 -0.291533 0.278440
0.145593 -0.280343 0.249724
0.167277 -0.220748 0.884911
0.107394 -0.177856 0.096895
0.111191 0.163882 0.090431
0.124192 0.212424 -0.279446
0.077333 0.277168 0.183376
0.142303 0.287642 0.274577
0.178365 0.304189 0.564941
0.075888 0.309550 0.721149
0.200591 0.308328 0.419795
0.112012 -0.317275 0.758972
0.200526 -0.272395 -0.343781
0.192993 -0.311141 0.446857
0.195607 -0.302441 0.616985
0.271455 -0.226034 0.809632
0.130977 -0.217496 -0.273329
0.302605 0.285995 -0.365763
0.213700 -0.304325 0.392274
0.268082 -0.294437 0.564911
0.228332 -0.224075 0.216148
0.322658 -0.225136 0.730996
0.202682 -0.140011 0.135630
0.357213 -0.158146 0.266327
0.291899 -0.107356 0.894529
0.198272 0.048926 0.099145
0.202082 0.162498 0.137636
0.327184 0.191138 0.262760
0.179978 0.245857 0.201862
0.266000 0.217894 0.801193
0.320368 0.233397 0.704868
0.359006 0.304261 -0.427340
0.247232 0.299500 0.630956
0.456235 -0.289566 -0.440104
0.327027 -0.221848 0.367266
0.493130 -0.249266 -0.297650
0.347911 -0.226370 0.654635
0.560113 -0.116908 -0.221317
0.373950 -0.053669 0.788809
0.409102 -0.011305 0.276932
0.288120 -0.010096 0.924795
0.363760 0.115433 0.246132
0.269901 0.118229 0.909931
0.350841 0.040177 0.846113
0.376146 0.120440 0.746647
0.519741 0.280213 -0.499811
0.325195 0.231907 0.363061
0.343709 0.227830 0.622087
0.260337 0.302759 0.457302
0.422193 -0.108140 0.335052
0.399605 -0.120176 0.635157
0.566030 -0.007994 -0.186196
0.502318 0.206064 -0.254531
0.414465 0.115114 0.327602
0.412059 0.091879 0.628282
0.520474 -0.285257 -0.354901
0.452019 0.001776 0.376946
0.572695 0.101724 -0.200054
0.569577 -0.285043 -0.494143
0.625110 -0.288451 -0.414103
0.621526 -0.234245 -0.310708
0.667180 -0.053219 -0.757334
0.651022 0.186275 -0.691274
0.599990 0.278201 -0.532135
0.598341 0.186485 -0.251666
0.601729 0.284785 -0.416464
0.687158 -0.202268 -0.705522
0.692812 -0.126868 -0.257041
0.680709 0.064268 -0.769743
0.665720 0.018909 -0.219577
0.752116 0.265565 -0.655515
0.681010 -0.283691 -0.550251
0.792871 -0.258643 -0.665225
0.700868 0.223243 -0.332273
0.702125 0.303126 -0.518364
0.754989 -0.277380 -0.437635
0.795924 -0.286325 -0.562500
0.784458 -0.196046 -0.353825
0.778469 -0.183645 -0.752586
0.811156 -0.026100 -0.289320
0.805440 0.114209 -0.305294
0.774293 0.199540 -0.740682
0.813476 0.208458 -0.383962
0.718599 0.285728 -0.430132
0.817627 0.277428 -0.568637
0.836586 -0.231406 -0.437754
0.868381 -0.240398 -0.618214
0.928376 -0.152732 -0.507487
0.920200 -0.073866 -0.407468
0.885241 -0.048053 -0.342297
0.887942 0.071759 -0.783724
0.886321 0.078249 -0.364712
0.900881 0.192527 -0.513204
0.850326 0.232626 -0.698167
0.878033 -0.188064 -0.734970
0.950035 -0.111145 -0.719738
0.913180 -0.074046 -0.783845
0.968894 -0.061823 -0.526199
0.944434 0.116389 -0.712382
0.961285 0.038905 -0.509272
0.884631 0.244651 -0.630727
0.967858 -0.000871 -0.744754
3 1 0 2
3 1 2 3
3 3 2 4
3 5 0 11
3 0 5 2
3 5 6 7
3 5 7 2
3 2 7 4
3 3 8 1
3 9 11 0
3 4 12 3
3 3 12 10
3 10 12 14
3 11 13 5
3 5 13 6
3 15 12 4
3 7 15 4
3 12 15 14
3 13 16 6
3 14 15 17
3 27 18 6
3 18 7 6
3 28 7 18
3 7 28 15
3 0 1 20
3 0 20 19
3 1 8 20
3 19 9 0
3 8 3 21
3 10 21 3
3 10 22 21
3 24 22 10
3 22 24 23
3 14 24 10
3 23 24 25
3 23 25 33
3 26 24 14
3 17 26 14
3 25 24 26
3 15 28 17
3 17 28 29
3 17 29 26
3 6 16 27
3 30 19 42
3 19 20 42
3 42 20 43
3 20 8 43
3 43 21 44
3 8 21 43
3 30 48 19
3 48 9 19
3 48 11 9
3 31 21 22
3 22 23 31
3 31 23 32
3 48 55 11
3 23 33 32
3 32 33 56
3 34 36 35
3 35 36 37
3 55 13 11
3 36 38 37
3 55 59 13
3 39 33 25
3 33 39 56
3 25 26 40
3 25 40 39
3 59 16 13
3 27 59 41
3 27 16 59
3 29 40 26
3 67 69 28
3 28 71 29
3 69 71 28
3 41 67 27
3 67 18 27
3 67 28 18
3 42 73 30
3 43 45 42
3 46 43 44
3 31 47 21
3 47 44 21
3 30 49 48
3 45 43 46
3 47 31 50
3 51 34 52
3 52 34 35
3 52 35 54
3 48 49 53
3 50 31 32
3 55 48 53
3 80 34 51
3 56 50 32
3 34 80 36
3 53 82 55
3 57 54 35
3 37 57 35
3 80 38 36
3 58 57 37
3 60 59 82
3 59 55 82
3 37 38 61
3 65 56 39
3 63 38 80
3 37 61 62
3 37 62 58
3 38 63 61
3 59 60 64
3 40 65 39
3 63 66 61
3 61 66 62
3 64 41 59
3 72 40 29
3 40 72 65
3 69 67 68
3 70 69 68
3 70 71 69
3 71 72 29
3 89 67 41
3 92 47 91
3 91 47 93
3 73 42 74
3 42 45 74
3 44 92 94
3 47 92 44
3 74 45 77
3 46 44 94
3 93 47 50
3 76 75 51
3 52 76 51
3 94 95 46
3 54 78 52
3 95 45 46
3 77 45 97
3 45 95 97
3 79 80 51
3 78 54 81
3 96 50 56
3 98 96 56
3 79 100 80
3 57 81 54
3 83 81 57
3 58 83 57
3 56 103 98
3 86 85 68
3 103 56 65
3 84 63 100
3 63 80 100
3 85 70 68
3 63 87 66
3 63 84 87
3 88 58 62
3 58 88 83
3 86 68 89
3 85 104 70
3 62 66 90
3 88 62 90
3 89 68 67
3 104 71 70
3 87 90 66
3 75 76 105
3 105 76 107
3 107 76 52
3 52 110 107
3 109 93 50
3 110 52 78
3 108 49 30
3 109 50 96
3 111 51 75
3 112 95 94
3 111 79 51
3 113 53 49
3 111 101 79
3 113 82 53
3 102 77 97
3 95 99 97
3 95 112 99
3 100 79 101
3 116 81 83
3 86 102 97
3 97 99 86
3 101 84 100
3 86 99 85
3 99 117 85
3 118 119 60
3 119 64 60
3 86 120 102
3 123 83 88
3 89 125 120
3 120 86 89
3 65 72 121
3 103 65 121
3 124 125 41
3 41 125 89
3 90 123 88
3 104 72 71
3 121 72 104
3 91 93 106
3 30 127 108
3 127 30 73
3 92 91 106
3 128 73 74
3 92 106 129
3 105 111 75
3 128 74 132
3 129 94 92
3 132 74 77
3 129 112 94
3 133 110 78
3 133 78 81
3 98 114 96
3 135 101 111
3 132 77 137
3 137 77 102
3 129 138 112
3 138 99 112
3 115 114 98
3 138 117 99
3 103 115 98
3 135 84 101
3 137 102 141
3 138 142 117
3 116 83 144
3 141 102 120
3 142 85 117
3 115 103 122
3 135 145 84
3 87 84 145
3 146 83 123
3 120 125 141
3 104 85 142
3 142 126 104
3 121 122 103
3 126 121 104
3 127 73 148
3 73 128 148
3 106 93 149
3 149 93 150
3 93 109 150
3 130 150 109
3 131 111 105
3 96 130 109
3 96 131 130
3 134 128 132
3 111 131 135
3 132 136 134
3 114 131 96
3 131 114 135
3 137 136 132
3 138 129 139
3 140 136 137
3 114 115 135
3 141 140 137
3 138 154 142
3 115 143 135
3 115 122 143
3 135 143 145
3 154 126 142
3 123 147 146
3 156 121 126
3 156 157 121
3 121 157 122
3 159 87 145
3 90 87 159
3 159 123 90
3 107 161 105
3 148 128 162
3 162 128 166
3 149 150 151
3 130 131 164
3 105 164 131
3 107 152 161
3 110 152 107
3 128 134 166
3 106 153 129
3 106 149 153
3 152 110 133
3 129 153 139
3 154 138 139
3 41 64 119
3 155 140 141
3 144 83 146
3 126 154 156
3 143 122 158
3 145 143 158
3 160 122 157
3 147 123 159
3 151 150 168
3 163 168 150
3 164 161 165
3 164 105 161
3 163 150 130
3 164 163 130
3 152 165 161
3 151 170 149
3 170 172 149
3 172 153 149
3 172 139 153
3 172 175 139
3 133 81 116
3 113 118 82
3 118 60 82
3 175 154 139
3 175 176 154
3 176 178 154
3 178 156 154
3 147 179 146
3 125 124 181
3 141 125 167
3 167 155 141
3 157 156 178
3 158 122 160
3 145 158 159
3 147 159 179
3 125 181 167
3 158 182 159
3 159 182 179
3 183 148 162
3 168 163 169
3 169 163 164
3 183 127 148
3 151 184 170
3 151 168 184
3 169 164 171
3 171 164 165
3 185 162 166
3 185 166 187
3 187 166 134
3 172 170 173
3 174 165 152
3 152 133 174
3 187 134 136
3 190 174 133
3 116 190 133
3 172 189 175
3 192 190 116
3 175 191 176
3 192 116 144
3 176 191 177
3 192 144 146
3 178 176 177
3 179 192 146
3 195 41 119
3 177 196 178
3 195 124 41
3 124 195 181
3 178 196 157
3 196 198 157
3 180 179 182
3 198 160 157
3 160 198 158
3 182 158 198
3 168 169 184
3 169 186 184
3 171 186 169
3 170 184 173
3 188 171 165
3 165 174 188
3 193 188 174
3 190 193 174
3 201 136 140
3 191 175 189
3 192 193 190
3 155 202 140
3 194 193 179
3 193 192 179
3 194 179 180
3 197 194 180
3 182 198 197
3 198 196 197
3 180 182 197
3 183 162 205
3 108 127 183
3 205 162 185
3 173 184 199
3 184 186 200
3 113 49 108
3 184 200 199
3 186 171 200
3 200 171 188
3 187 136 201
3 172 173 189
3 173 199 189
3 204 200 188
3 207 201 140
3 194 204 188
3 188 193 194
3 189 203 191
3 140 202 207
3 177 191 203
3 203 204 196
3 204 194 197
3 196 177 203
3 204 197 196
3 155 167 202
3 208 108 183
3 189 199 206
3 199 200 206
3 200 204 206
3 203 189 206
3 206 204 203
3 215 202 167
3 167 181 215
3 183 205 209
3 183 209 208
3 209 205 210
3 205 185 210
3 210 185 187
3 108 211 113
3 118 113 211
3 218 118 211
3 212 118 218
3 202 214 207
3 118 212 119
3 212 213 119
3 119 213 195
3 214 202 215
3 215 181 195
3 215 195 213
3 221 208 209
3 216 108 221
3 221 108 208
3 210 187 217
3 108 216 211
3 219 217 187
3 201 219 187
3 207 219 201
3 214 223 219
3 214 219 207
3 212 220 213
3 223 214 215
3 213 224 215
3 209 225 221
3 222 216 221
3 209 227 225
3 222 228 216
3 227 209 210
3 227 210 217
3 228 211 216
3 219 229 217
3 218 231 212
3 230 219 223
3 220 212 231
3 215 233 223
3 220 224 213
3 233 215 224
3 221 226 222
3 225 226 221
3 226 225 235
3 235 225 227
3 227 217 229
3 240 218 211
3 229 219 230
3 240 231 218
3 232 230 223
3 243 220 231
3 232 223 233
3 234 220 243
3 234 232 233
3 234 224 220
3 233 224 234
3 226 236 222
3 235 236 226
3 236 244 222
3 244 228 222
3 237 236 235
3 244 246 228
3 238 237 235
3 235 227 238
3 227 239 238
3 246 211 228
3 227 229 239
3 246 240 211
3 239 229 241
3 229 230 241
3 241 230 232
3 243 231 240
3 242 241 232
3 243 250 234
3 250 242 234
3 234 242 232
3 244 236 245
3 237 245 236
3 246 244 245
3 245 237 247
3 238 247 237
3 245 251 246
3 249 247 238
3 251 240 246
3 241 249 238
3 239 241 238
3 248 240 251
3 249 242 248
3 242 249 241
3 248 242 250
3 248 243 240
3 243 248 250
3 245 247 251
3 247 249 251
3 249 248 251
