ply
format ascii 1.0
element vertex 250
property float x
property float y
property float z
element face 500
property list uchar int vertex_indices
end_header
-0.404517 -0.120038 -0.721616
-0.439378 -0.038484 -0.593905
-0.392865 -0.107148 0.439159
-0.416929 -0.002612 0.489803
-0.431536 0.012424 -0.735621
-0.418385 0.003252 0.423806
-0.393189 0.134356 -0.726072
-0.415018 0.116132 -0.585087
-0.397079 0.112267 0.437199
-0.286148 -0.209682 -0.763260
-0.351385 -0.204348 -0.628294
-0.408131 -0.138684 -0.578824
-0.288033 -0.214621 0.434237
-0.333853 -0.180647 0.506855
-0.283275 -0.143472 -0.898654
-0.382146 -0.094675 -0.500259
-0.315540 -0.049422 -0.919757
-0.341395 0.002805 -0.420955
-0.299864 0.008077 0.143458
-0.336925 -0.093173 0.582791
-0.358139 0.033210 0.570563
-0.314752 0.030087 -0.917475
-0.385348 0.077081 -0.492169
-0.345236 0.173140 0.500726
-0.104116 0.156987 -0.972759
-0.361234 0.203008 -0.613290
-0.294109 0.217084 0.429980
-0.327316 0.213878 -0.711963
-0.297313 -0.212348 -0.502377
-0.244400 -0.202619 -0.422338
-0.269409 -0.152814 0.113350
-0.288194 -0.135696 0.194392
-0.227719 -0.192648 0.596146
-0.225087 -0.106341 -0.296421
-0.312846 -0.065676 0.261098
-0.328418 -0.080624 0.334919
-0.302530 0.019441 -0.360369
-0.308037 0.078384 0.280332
-0.335847 0.100207 0.345016
-0.255670 0.184118 0.187239
-0.305170 0.133015 -0.415821
-0.253284 0.176159 0.116623
-0.263689 0.160963 0.587851
-0.300009 0.195333 -0.508396
-0.268962 -0.211801 -0.615430
-0.112256 -0.270212 0.424990
-0.193373 -0.264450 0.511361
-0.202875 -0.210112 -0.755084
-0.234222 -0.194107 0.198233
-0.220709 -0.209094 0.309964
-0.205238 -0.158929 -0.658252
-0.198258 -0.140772 -0.578994
-0.190787 -0.152108 -0.037107
-0.194430 -0.187346 0.051118
-0.274286 -0.155071 0.264244
-0.262079 -0.084950 0.037571
-0.251065 -0.048373 0.642914
-0.233404 0.043846 -0.035603
-0.202620 -0.005344 -0.207235
-0.257985 0.101186 0.031937
-0.284075 0.209896 -0.648130
-0.203717 0.143916 -0.568596
-0.230649 0.223091 -0.795525
-0.215717 0.214355 -0.436262
-0.199252 0.158148 -0.032851
-0.182777 0.187992 0.022196
-0.204975 0.215783 0.298986
-0.219748 0.207484 -0.746792
-0.207748 0.206445 0.157124
-0.202577 0.254932 0.524115
-0.137832 0.270745 0.428731
-0.158605 -0.227125 -0.865916
-0.188354 -0.225380 -0.472162
-0.055833 -0.248343 -0.238486
-0.130623 -0.201411 -0.031504
-0.117366 -0.154546 -0.508373
-0.131058 -0.178769 -0.125681
-0.094665 -0.162421 0.021958
-0.127228 -0.194165 0.239054
-0.087523 -0.162470 0.663497
0.048066 -0.126344 -0.879661
-0.186611 -0.059720 -0.116824
-0.130702 -0.120871 -1.015781
-0.167857 -0.042053 -0.643765
-0.173471 -0.001663 -0.587971
-0.101068 0.006162 -1.035538
-0.178908 0.112073 -0.132845
-0.185856 0.082679 0.668874
-0.181224 0.112427 -0.663418
0.043491 0.100502 -0.882222
-0.185039 0.151392 -0.243459
-0.111625 0.102657 0.686173
-0.230321 0.205416 -0.494615
-0.138911 0.173609 -0.509576
-0.117781 0.214811 -0.218426
-0.135353 0.189187 -0.088907
-0.131451 0.173223 0.062268
-0.148524 0.203944 0.618346
-0.162816 0.219729 -0.850768
-0.064327 -0.273033 -0.358388
-0.063048 -0.252387 0.563512
-0.110991 -0.194274 -0.961251
0.037143 -0.250521 -0.398886
-0.050713 -0.212198 -0.091537
-0.050678 -0.119341 0.268313
-0.086731 -0.071727 0.202081
-0.113965 -0.001532 0.697331
-0.090007 0.024343 -0.547460
-0.073721 0.063683 0.045665
-0.127312 0.165508 0.220257
-0.033938 0.082314 0.282068
-0.099556 0.192801 -0.867927
-0.107097 0.201090 -0.936353
-0.059549 0.187371 -0.092333
0.037497 0.243230 -0.403383
-0.055657 0.266239 -0.322139
-0.098233 0.229321 0.337028
-0.034385 0.258757 -0.241826
-0.046084 0.250415 0.556709
0.004678 -0.251456 0.436065
0.001503 -0.222264 0.348298
0.034577 -0.185736 -0.948462
0.047959 -0.199309 0.510711
0.012359 -0.227020 0.636272
0.164007 -0.136896 -0.480057
0.044281 -0.157109 -0.078787
0.068214 -0.008405 -0.857836
0.025587 0.044695 -0.059441
0.172933 0.080480 -1.024165
0.339298 0.077285 0.716469
0.032719 0.163060 -0.954579
0.058778 0.182074 -0.105981
0.017066 0.203861 0.643385
0.052808 0.195685 0.346801
0.057412 0.209334 0.508905
-0.002301 0.243123 0.429595
0.032069 -0.272465 -0.300301
0.085736 -0.227214 -0.163013
0.098785 -0.189583 0.589379
0.157763 -0.185933 0.239336
0.106649 -0.174901 0.442151
0.149906 -0.114472 -1.018159
0.123740 -0.181412 -0.046354
0.121466 -0.147669 0.170709
0.033031 -0.087080 0.269758
0.135236 0.028110 0.512567
0.077236 -0.048926 -0.027337
0.075879 0.022947 0.189631
0.205502 0.003634 -0.521280
0.140442 0.138173 -0.489887
0.106522 0.145435 -0.031015
0.128004 0.160792 0.188070
0.046558 0.101292 0.268067
0.153237 0.188966 0.238682
0.084923 0.197684 0.411098
0.055216 0.241756 -0.203740
0.105261 0.199676 0.590099
0.026306 0.270718 -0.311633
0.167490 -0.200009 -0.431488
0.144127 -0.209722 -0.316931
0.174658 -0.188055 -0.196316
0.201097 -0.209798 0.077435
0.157137 -0.173174 0.358481
0.299097 -0.195110 0.636528
0.175029 -0.135561 -0.979439
0.210523 -0.182455 -0.049272
0.215439 -0.086469 -0.260016
0.194609 -0.047410 -0.935200
0.139712 -0.060104 0.480478
0.358812 -0.027159 0.719819
0.172376 0.075102 -0.935815
0.200509 0.143425 -0.365375
0.134137 0.217329 -0.315825
0.328814 0.184890 0.652806
0.161334 0.133439 -0.995621
0.154425 0.196778 -0.080269
0.179388 0.173778 -0.427993
0.168264 0.197010 -0.174857
0.214318 0.205924 0.112152
0.210041 -0.170187 0.583324
0.220737 -0.104381 -0.439391
0.278289 -0.099932 0.222911
0.238595 -0.077943 -0.994565
0.226842 -0.012328 -0.344311
0.234357 -0.074593 -0.186379
0.197433 -0.071916 0.427118
0.247466 -0.033454 -1.015004
0.294319 -0.031644 -0.052014
0.255618 -0.024723 0.376478
0.271157 -0.084377 0.512223
0.234032 0.013459 -0.495298
0.168561 -0.019183 0.537863
0.240791 0.043588 -0.429998
0.228015 0.035458 0.400530
0.233811 0.044124 -0.980681
0.221772 0.047235 -0.275359
0.233151 0.081570 -0.190839
0.295106 0.051781 0.263829
0.279891 0.086806 0.502311
0.261046 0.126182 -0.061553
0.246973 0.173350 0.204920
0.252438 0.162187 0.569560
0.157718 0.171884 0.344075
0.261595 -0.184572 0.094279
0.331503 -0.209268 0.581633
0.328885 -0.105398 0.102584
0.367159 -0.195368 0.532677
0.326123 -0.086818 0.048865
0.315628 0.018441 0.460761
0.328735 0.051059 0.036253
0.325447 0.060700 0.116318
0.273058 0.175134 0.051687
0.266356 0.197342 0.112189
0.385707 0.196602 0.508830
0.414571 -0.212516 0.567382
0.441543 -0.123387 0.650765
0.360004 -0.040644 0.446867
0.398839 0.107505 0.428615
0.420758 0.151639 0.666478
0.438198 0.214117 0.565887
0.431659 -0.186291 0.482074
0.557497 -0.205769 0.446712
0.431194 0.026744 0.699288
0.499310 0.018644 0.321517
0.575725 0.208907 0.362006
0.603830 -0.190544 0.280561
0.532800 -0.166491 0.336409
0.567809 -0.168808 0.528992
0.584115 -0.107761 0.218797
0.598820 0.001157 0.193992
0.585162 -0.019804 0.567177
0.603333 0.136210 0.240974
0.604849 0.163812 0.535479
0.659776 0.212415 0.429947
0.663158 0.232007 0.342605
0.670751 -0.205578 0.376943
0.656094 -0.201952 0.283966
0.653677 -0.139864 0.478110
0.637958 -0.111409 0.214921
0.722932 -0.167707 0.333339
0.767451 -0.003986 0.415729
0.653538 0.076775 0.213068
0.670906 0.139675 0.490168
0.648722 0.203849 0.285540
0.716009 0.177454 0.336887
0.735972 -0.151836 0.405619
0.781803 -0.067422 0.365140
0.750679 -0.009662 0.288750
0.783424 0.050328 0.363374
0.736959 0.150602 0.412026
3 0 1 11
3 2 3 13
3 0 4 1
3 2 5 3
3 4 6 7
3 4 7 1
3 5 8 3
3 9 0 10
3 10 0 11
3 14 0 9
3 12 2 13
3 11 1 15
3 14 16 0
3 15 17 29
3 31 18 34
3 13 3 19
3 0 16 4
3 35 5 2
3 20 19 3
3 16 21 4
3 22 15 1
3 7 22 1
3 15 22 17
3 34 18 37
3 35 38 5
3 4 21 6
3 38 8 5
3 17 22 40
3 18 39 37
3 3 8 23
3 23 42 20
3 3 23 20
3 6 21 24
3 7 43 22
3 7 6 25
3 7 25 43
3 26 8 38
3 8 26 23
3 27 6 24
3 25 6 27
3 9 10 44
3 12 13 46
3 46 13 32
3 28 10 11
3 28 44 10
3 30 31 48
3 48 31 54
3 15 28 11
3 28 15 29
3 35 2 12
3 19 32 13
3 54 31 34
3 34 35 54
3 32 19 56
3 29 17 33
3 18 30 55
3 18 31 30
3 36 33 17
3 56 19 20
3 59 18 55
3 34 37 35
3 35 37 38
3 56 20 42
3 17 40 36
3 41 18 59
3 39 18 41
3 40 22 43
3 24 62 27
3 43 63 40
3 60 27 62
3 60 25 27
3 43 25 60
3 26 69 23
3 23 69 42
3 44 47 9
3 45 49 12
3 46 45 12
3 71 9 47
3 50 47 44
3 51 50 44
3 51 44 72
3 44 28 72
3 29 72 28
3 48 53 30
3 48 54 49
3 53 52 55
3 30 53 55
3 49 54 35
3 12 49 35
3 57 52 81
3 52 57 55
3 58 33 36
3 86 57 81
3 55 57 59
3 87 56 42
3 40 58 36
3 60 88 61
3 40 90 58
3 57 64 59
3 59 64 65
3 59 65 41
3 39 66 37
3 37 66 38
3 38 66 26
3 98 67 62
3 67 88 60
3 43 60 61
3 92 43 61
3 92 63 43
3 40 63 90
3 65 68 41
3 68 39 41
3 39 68 66
3 87 42 97
3 62 67 60
3 66 70 26
3 69 26 70
3 69 97 42
3 9 71 101
3 72 29 99
3 73 99 29
3 49 45 78
3 82 14 101
3 101 14 9
3 75 72 102
3 33 73 29
3 74 76 52
3 74 52 53
3 77 74 53
3 78 77 53
3 53 48 78
3 48 49 78
3 47 50 80
3 75 51 72
3 73 33 76
3 52 76 81
3 56 79 32
3 14 82 16
3 83 80 50
3 50 51 83
3 51 84 83
3 75 107 84
3 51 75 84
3 58 76 33
3 76 58 81
3 79 56 106
3 82 85 16
3 16 85 21
3 81 58 86
3 56 87 106
3 85 24 21
3 83 84 88
3 106 87 91
3 84 61 88
3 107 93 61
3 84 107 61
3 58 90 86
3 67 111 88
3 92 61 93
3 90 94 86
3 86 94 95
3 86 95 64
3 57 86 64
3 96 109 68
3 97 91 87
3 24 112 62
3 111 67 98
3 63 94 90
3 95 65 64
3 68 65 96
3 109 66 68
3 66 109 116
3 98 62 112
3 93 63 92
3 114 63 93
3 114 115 63
3 63 115 94
3 70 66 116
3 119 45 100
3 45 46 100
3 99 102 72
3 73 76 103
3 45 120 78
3 119 120 45
3 100 46 32
3 32 79 100
3 79 123 100
3 101 71 121
3 121 71 47
3 74 103 76
3 80 121 47
3 103 74 77
3 78 120 104
3 78 105 77
3 78 104 105
3 126 80 83
3 108 127 77
3 77 105 108
3 104 110 105
3 88 126 83
3 128 24 85
3 105 109 108
3 105 110 109
3 89 88 111
3 113 127 108
3 96 113 108
3 108 109 96
3 129 91 132
3 132 91 97
3 98 112 111
3 113 95 94
3 96 65 113
3 109 110 116
3 117 94 115
3 113 94 117
3 95 113 65
3 97 69 118
3 118 132 97
3 135 70 116
3 135 118 70
3 70 118 69
3 99 136 102
3 99 73 136
3 137 136 73
3 137 73 103
3 122 119 100
3 124 75 102
3 125 137 103
3 121 141 101
3 141 82 101
3 77 125 103
3 120 144 104
3 124 107 75
3 141 85 82
3 127 125 77
3 144 110 104
3 89 126 88
3 148 149 107
3 144 152 110
3 149 93 107
3 89 111 130
3 113 131 127
3 93 149 114
3 152 133 110
3 130 112 24
3 111 112 130
3 113 155 131
3 116 110 133
3 155 113 117
3 133 135 116
3 135 134 118
3 157 115 114
3 115 157 117
3 117 157 155
3 102 136 159
3 102 159 158
3 136 137 159
3 159 137 160
3 100 138 122
3 100 123 138
3 158 124 102
3 137 125 142
3 120 162 139
3 119 162 120
3 119 140 162
3 122 140 119
3 138 123 163
3 164 141 121
3 164 121 80
3 143 144 139
3 139 144 120
3 164 80 167
3 168 140 122
3 145 168 122
3 122 138 145
3 126 167 80
3 148 107 124
3 146 142 125
3 142 146 143
3 127 146 125
3 143 146 147
3 143 147 144
3 170 126 89
3 150 146 127
3 146 150 147
3 147 150 151
3 147 151 152
3 144 147 152
3 169 106 129
3 129 106 91
3 170 89 130
3 131 150 127
3 152 151 153
3 134 154 145
3 145 156 134
3 128 174 24
3 174 130 24
3 131 175 150
3 152 153 133
3 175 131 155
3 154 135 133
3 135 154 134
3 134 156 118
3 118 156 132
3 157 114 172
3 172 114 176
3 155 157 172
3 155 172 177
3 175 155 177
3 160 137 165
3 165 137 142
3 161 143 139
3 179 138 163
3 159 160 166
3 161 165 142
3 143 161 142
3 140 185 162
3 163 123 79
3 183 159 166
3 140 168 185
3 179 191 138
3 191 145 138
3 185 168 193
3 141 128 85
3 126 170 167
3 193 168 145
3 191 201 145
3 201 156 145
3 174 170 130
3 171 195 172
3 202 145 154
3 176 114 149
3 176 171 172
3 175 178 150
3 178 151 150
3 153 151 178
3 153 202 133
3 202 154 133
3 201 173 156
3 156 173 132
3 173 129 132
3 158 180 124
3 165 161 203
3 203 139 181
3 203 161 139
3 162 181 139
3 204 179 163
3 141 164 182
3 158 159 180
3 166 160 184
3 160 165 184
3 203 207 165
3 204 189 179
3 141 182 186
3 164 167 182
3 183 180 159
3 165 187 184
3 165 207 187
3 162 188 181
3 185 188 162
3 148 124 190
3 124 180 190
3 179 189 191
3 180 192 190
3 180 183 192
3 188 185 193
3 128 141 186
3 182 194 186
3 182 167 194
3 166 195 183
3 166 184 195
3 184 196 195
3 184 187 196
3 181 188 197
3 189 208 198
3 189 198 191
3 186 194 128
3 170 194 167
3 149 148 190
3 187 199 196
3 188 193 197
3 183 171 192
3 183 195 171
3 197 193 200
3 191 198 201
3 128 194 174
3 170 174 194
3 195 196 172
3 202 193 145
3 149 190 176
3 190 192 176
3 171 176 192
3 177 172 196
3 196 199 177
3 199 175 177
3 199 211 175
3 193 202 200
3 211 178 175
3 212 178 211
3 200 153 178
3 212 200 178
3 202 153 200
3 203 181 205
3 203 205 207
3 204 206 189
3 163 79 169
3 206 216 189
3 169 79 106
3 210 205 181
3 197 210 181
3 216 208 189
3 207 209 187
3 199 187 209
3 216 217 208
3 217 198 208
3 211 199 209
3 209 210 211
3 200 210 197
3 198 217 213
3 210 212 211
3 200 212 210
3 198 213 201
3 213 219 201
3 201 219 173
3 204 214 206
3 206 214 220
3 214 204 163
3 215 214 163
3 163 169 215
3 220 216 206
3 215 169 222
3 205 210 207
3 207 210 209
3 222 169 129
3 222 129 218
3 218 129 173
3 173 219 218
3 220 214 221
3 220 221 226
3 223 220 226
3 216 220 223
3 217 216 223
3 232 230 222
3 218 232 222
3 217 224 213
3 232 218 219
3 224 219 213
3 221 225 226
3 221 214 227
3 226 225 228
3 227 214 215
3 230 227 215
3 226 228 223
3 222 230 215
3 228 229 223
3 229 231 223
3 223 224 217
3 223 231 224
3 233 232 219
3 233 219 224
3 236 225 235
3 221 235 225
3 235 221 237
3 237 221 227
3 236 238 225
3 238 228 225
3 237 227 230
3 238 229 228
3 238 241 229
3 237 230 242
3 241 231 229
3 242 230 232
3 231 241 243
3 243 234 224
3 243 224 231
3 242 232 233
3 234 233 224
3 236 235 239
3 238 236 239
3 239 235 245
3 245 235 237
3 239 247 238
3 240 245 237
3 238 247 241
3 237 242 240
3 247 244 241
3 242 249 240
3 241 244 243
3 244 249 233
3 249 242 233
3 243 244 234
3 244 233 234
3 245 246 239
3 239 246 247
3 245 240 246
3 246 248 247
3 246 240 248
3 247 248 244
3 240 249 248
3 248 249 244
