ply
format ascii 1.0
element vertex 250
property float x
property float y
property float z
element face 500
property list uchar int vertex_indices
end_header
-0.727351 -0.186364 -0.657645
-0.745704 -0.210682 -0.585955
-0.773056 -0.141127 -0.285888
-0.782517 -0.053329 -0.657738
-0.759604 -0.111149 -0.204689
-0.792294 -0.007509 -0.272477
-0.768033 0.041494 -0.190041
-0.796152 0.057313 -0.657012
-0.767219 0.137108 -0.644516
-0.770492 0.118539 -0.268660
-0.688448 0.187896 -0.151025
-0.713106 0.228277 -0.592843
-0.725240 0.207451 -0.303456
-0.663626 -0.262506 -0.570990
-0.718157 -0.210830 -0.264740
-0.691970 -0.166067 -0.126153
-0.639623 -0.194828 -0.049408
-0.702104 -0.071825 -0.706708
-0.678411 -0.039849 -0.041661
-0.720283 0.007736 -0.112229
-0.764819 0.061565 -0.699373
-0.647474 0.165318 -0.037543
-0.691382 0.191179 -0.652209
-0.661596 0.269283 -0.576841
-0.587583 0.318233 -0.344035
-0.571142 -0.326458 -0.359691
-0.603807 -0.249014 -0.074652
-0.602447 -0.179623 0.038401
-0.540529 -0.165433 0.194475
-0.638924 0.043076 0.070832
-0.624323 0.006718 0.190681
-0.556725 0.060661 -0.699783
-0.571722 0.165125 0.154470
-0.610071 0.199801 0.026089
-0.553506 0.272652 -0.011135
-0.534113 -0.288445 -0.526038
-0.529952 -0.344677 -0.383144
-0.495839 -0.284295 0.074446
-0.548256 -0.190459 -0.649737
-0.375374 -0.189999 0.409847
-0.582785 -0.053304 0.254306
-0.552339 0.059633 0.281244
-0.500717 0.169325 -0.647604
-0.559993 0.281268 -0.543785
-0.424631 0.299348 0.174854
-0.415135 -0.376171 -0.255370
-0.375057 -0.375372 -0.040974
-0.488493 -0.055286 -0.690532
-0.388854 -0.067765 -0.642783
-0.393091 -0.157349 0.419250
-0.417057 0.076526 -0.655620
-0.154027 0.207366 0.592809
-0.382796 0.188376 -0.585565
-0.481150 0.355271 -0.352953
-0.400497 0.378475 -0.161459
-0.345517 -0.355430 -0.299684
-0.364267 -0.343775 0.131024
-0.224755 -0.208537 -0.469129
-0.396609 -0.180722 -0.597443
-0.201091 0.092168 0.635024
-0.314730 0.292046 -0.428081
-0.301840 0.377734 -0.218938
-0.374245 0.343824 0.107619
-0.284370 -0.389509 -0.115942
-0.208851 -0.328459 0.268226
-0.281633 -0.290733 0.349873
-0.236142 -0.073726 -0.547944
-0.229146 -0.033831 0.611161
-0.307787 0.089630 -0.590361
-0.264804 0.328335 0.255415
-0.141511 -0.359605 -0.185557
-0.267159 -0.369396 0.039959
-0.165796 -0.303999 0.166538
-0.047054 -0.260623 -0.351804
-0.130950 -0.189581 0.625836
-0.259620 0.189088 -0.516333
-0.056581 0.333274 -0.230633
-0.286147 0.373399 -0.075987
-0.140928 0.288073 0.097974
-0.273205 0.338164 0.172908
-0.101902 -0.351605 -0.122328
-0.010956 -0.225533 0.036572
-0.056945 -0.153587 -0.432181
-0.123569 -0.091963 -0.480617
-0.141193 0.052539 -0.497816
-0.122444 0.085816 0.692347
-0.037539 0.224752 -0.385691
-0.166080 0.307617 0.245832
-0.127038 0.315669 0.335634
0.022670 0.290661 0.551585
-0.101352 0.327422 -0.110295
-0.098235 -0.266281 0.235760
-0.028129 -0.164134 0.121982
0.020291 -0.294335 0.543075
0.021232 -0.143266 0.206655
-0.104744 -0.103741 0.694934
-0.034063 0.215168 0.196122
0.012317 -0.329902 -0.199783
0.033854 -0.202683 0.276798
-0.022221 -0.199448 0.693320
0.032873 -0.173560 0.734428
-0.035820 0.021686 -0.452169
-0.033007 -0.002813 0.743841
0.024692 0.001430 0.122790
-0.022876 0.178954 0.098934
-0.051112 0.186409 0.692569
0.041643 0.081251 0.771377
0.025997 0.123667 0.182747
0.050813 0.197288 0.725458
0.032847 0.199919 0.034619
0.053376 0.277053 0.378398
0.061505 0.315383 -0.278933
0.077613 -0.302136 -0.100807
0.069701 -0.276347 0.382102
0.153527 -0.291975 -0.305886
0.039261 -0.194356 -0.409127
0.122689 -0.206568 0.061674
0.140880 -0.170995 0.266734
0.045428 -0.056747 0.107823
0.113170 -0.086496 -0.482833
0.015390 -0.008449 -0.452908
0.050530 -0.047237 0.774997
0.092557 0.002296 0.188631
0.132955 0.090063 -0.497873
0.054662 0.081448 0.107307
0.053742 0.167271 -0.419446
0.117538 0.176815 0.086921
0.128192 0.164747 0.255814
0.180090 0.287639 -0.323415
0.099423 0.298224 -0.092601
0.139282 -0.313662 -0.194824
0.234606 -0.335464 0.488542
0.147851 -0.283051 -0.043560
0.199285 -0.291687 -0.101609
0.115296 -0.220814 0.719316
0.337110 -0.264969 0.145084
0.141308 -0.113146 0.193494
0.188877 -0.055792 0.813245
0.147381 0.125840 0.188229
0.194244 0.129966 0.801259
0.217655 0.291880 -0.078601
0.228125 0.330166 0.480828
0.148161 0.313028 -0.207518
0.225095 -0.287412 0.386611
0.247342 -0.337875 0.574535
0.249097 -0.280804 -0.230838
0.263977 -0.239244 -0.442940
0.354243 -0.279608 0.699126
0.279291 -0.229672 0.206190
0.238083 -0.222944 0.761785
0.212852 -0.060429 -0.549003
0.342417 -0.024589 -0.605313
0.224946 0.092978 -0.564668
0.257195 0.199111 -0.517015
0.251235 0.255069 0.724343
0.263854 0.251459 -0.425806
0.250729 0.244988 0.174147
0.206518 0.264625 0.340499
0.260509 0.273598 -0.261741
0.291052 0.236110 -0.140128
0.260967 0.334173 0.572785
0.302697 -0.286661 -0.355431
0.299731 -0.231225 -0.124496
0.338656 -0.266548 0.253791
0.344484 -0.177190 -0.195270
0.378862 -0.176260 -0.551063
0.351732 -0.138129 -0.141520
0.345125 -0.193684 0.809468
0.349725 -0.053926 0.876523
0.359514 0.057904 0.868579
0.337934 0.180062 -0.568367
0.378413 0.148064 -0.223509
0.354449 0.256026 -0.329810
0.349192 0.300624 0.313296
0.349338 -0.331883 0.534480
0.388514 -0.299423 0.416055
0.378946 -0.247130 0.062145
0.453206 -0.267845 -0.478949
0.475195 -0.245298 -0.338449
0.437742 -0.249746 0.196252
0.459019 -0.239347 0.718048
0.395930 -0.026986 -0.180644
0.394585 -0.039632 -0.117795
0.393034 0.049450 -0.125065
0.368594 0.102380 -0.607933
0.452218 0.156532 0.047496
0.355931 0.222231 0.789611
0.372813 0.249447 0.050314
0.348033 0.285549 0.700559
0.440937 0.253300 -0.491028
0.353698 0.276935 0.154568
0.442921 0.251930 0.209169
0.425316 0.253853 0.720009
0.359653 0.332930 0.517513
0.430077 -0.280833 -0.419503
0.530455 -0.194006 0.567002
0.566249 -0.195052 0.355903
0.540453 -0.172445 0.219290
0.425722 -0.207484 0.798603
0.448580 -0.152367 0.050612
0.533999 -0.174348 0.668841
0.503497 -0.113889 0.791720
0.503019 -0.070963 -0.251905
0.423306 -0.061150 0.881108
0.729049 -0.022901 -0.609109
0.467807 0.051970 0.863784
0.507446 0.051543 -0.249276
0.507823 0.177433 -0.290410
0.433278 0.186352 0.822651
0.710290 0.184424 -0.539983
0.550511 0.155300 0.654695
0.501043 0.138843 0.788822
0.525804 0.150492 0.183919
0.439846 0.270578 -0.409129
0.445034 0.297106 0.419252
0.554251 0.160542 0.345067
0.455129 0.291881 0.537794
0.640474 -0.249280 -0.516333
0.719058 -0.173341 -0.552045
0.601347 -0.115014 0.352083
0.547330 -0.079554 0.166619
0.477244 -0.084265 0.863480
0.497465 0.031369 0.060907
0.574101 -0.009092 0.668161
0.573117 0.038103 0.225470
0.515111 0.246099 -0.353718
0.554839 0.184640 0.554262
0.689916 -0.256266 -0.463749
0.809280 -0.173373 -0.309431
0.887762 -0.082683 -0.298734
0.612331 0.012541 0.364434
0.600200 0.040038 0.563124
0.857548 0.104407 -0.298829
0.810406 0.228414 -0.359798
0.669931 0.248675 -0.499517
0.676998 0.256879 -0.451802
0.853992 -0.199526 -0.353305
0.872382 -0.191038 -0.447546
0.831998 -0.027423 -0.565331
0.851759 0.221022 -0.431522
0.829726 0.170443 -0.526517
0.922620 -0.120512 -0.487516
0.956659 -0.116811 -0.430608
0.952252 -0.115915 -0.352601
0.946028 -0.008929 -0.477230
0.895294 0.142653 -0.494888
0.933893 0.140527 -0.434292
0.907969 0.171230 -0.356992
0.979249 -0.002311 -0.380662
0.959969 -0.001864 -0.318486
3 1 2 14
3 14 2 4
3 3 0 17
3 0 3 1
3 1 3 2
3 2 3 5
3 2 5 4
3 4 5 6
3 4 6 19
3 20 3 17
3 7 3 20
3 3 7 5
3 8 7 20
3 7 9 5
3 5 9 6
3 7 8 9
3 6 9 10
3 22 8 20
3 8 11 12
3 8 12 9
3 10 9 12
3 22 11 8
3 13 14 25
3 1 13 0
3 13 1 14
3 4 15 14
3 16 15 18
3 19 15 4
3 15 19 18
3 31 20 17
3 18 19 21
3 18 21 29
3 10 19 6
3 19 10 21
3 23 11 22
3 10 12 24
3 11 24 12
3 23 24 11
3 13 25 35
3 35 38 13
3 38 0 13
3 26 14 15
3 17 0 38
3 16 26 15
3 26 16 27
3 18 27 16
3 29 27 18
3 27 29 28
3 28 29 30
3 28 30 40
3 40 30 41
3 30 32 41
3 30 29 32
3 33 29 21
3 29 33 32
3 34 21 10
3 21 34 33
3 42 43 22
3 43 23 22
3 10 24 34
3 43 24 23
3 36 25 45
3 35 25 36
3 25 14 26
3 37 26 27
3 28 37 27
3 47 17 38
3 39 28 49
3 28 40 49
3 47 31 17
3 31 22 20
3 31 42 22
3 43 42 52
3 33 34 32
3 32 34 44
3 53 24 43
3 25 46 45
3 26 46 25
3 37 46 26
3 37 28 56
3 38 35 58
3 47 38 48
3 38 58 48
3 50 47 48
3 31 47 50
3 50 52 42
3 31 50 42
3 32 51 41
3 41 51 59
3 43 52 60
3 60 53 43
3 53 60 61
3 54 34 24
3 24 53 54
3 55 45 63
3 45 46 63
3 36 45 55
3 35 55 57
3 35 36 55
3 37 56 46
3 56 28 65
3 57 58 35
3 28 39 65
3 40 41 67
3 48 68 50
3 67 41 59
3 68 52 50
3 44 51 32
3 44 69 51
3 44 62 69
3 61 54 53
3 34 62 44
3 54 62 34
3 71 63 46
3 46 56 71
3 64 71 56
3 57 55 73
3 64 56 65
3 58 57 66
3 48 58 66
3 49 40 67
3 68 48 66
3 68 75 52
3 60 52 75
3 61 60 76
3 54 77 62
3 62 79 69
3 62 77 79
3 61 77 54
3 70 63 80
3 55 63 70
3 80 63 71
3 64 72 71
3 65 39 74
3 83 66 57
3 49 74 39
3 68 66 84
3 67 59 85
3 85 59 51
3 75 68 84
3 78 87 79
3 79 87 69
3 69 87 88
3 78 77 90
3 79 77 78
3 90 61 76
3 90 77 61
3 70 73 55
3 80 71 81
3 72 81 71
3 72 64 91
3 64 65 93
3 81 72 92
3 92 72 91
3 65 74 93
3 82 57 73
3 83 57 82
3 67 74 49
3 74 67 95
3 95 67 85
3 83 84 66
3 75 84 86
3 86 60 75
3 60 86 76
3 69 89 51
3 97 70 80
3 97 73 70
3 91 94 92
3 91 98 94
3 95 99 74
3 82 101 83
3 99 95 102
3 102 95 85
3 83 101 84
3 102 85 105
3 84 101 86
3 105 85 51
3 78 104 96
3 90 104 78
3 96 87 78
3 96 110 87
3 76 86 111
3 69 88 89
3 97 80 112
3 91 64 113
3 113 64 93
3 91 113 98
3 74 99 93
3 80 81 112
3 115 82 73
3 118 81 92
3 115 120 82
3 120 101 82
3 94 103 92
3 100 102 121
3 99 102 100
3 103 118 92
3 121 102 106
3 124 118 103
3 120 125 101
3 104 124 103
3 103 107 104
3 105 106 102
3 125 86 101
3 109 124 104
3 108 106 105
3 96 104 107
3 109 104 90
3 109 90 129
3 105 51 89
3 90 76 129
3 110 88 87
3 110 89 88
3 130 97 112
3 97 130 114
3 113 93 131
3 114 73 97
3 112 116 132
3 93 99 134
3 114 115 73
3 81 116 112
3 98 117 94
3 117 98 113
3 134 99 100
3 118 116 81
3 134 100 121
3 115 119 120
3 94 122 103
3 94 117 122
3 119 123 120
3 118 124 122
3 137 121 106
3 122 107 103
3 122 127 107
3 137 106 139
3 120 123 125
3 109 126 124
3 139 106 108
3 127 96 107
3 96 127 110
3 86 125 128
3 126 109 129
3 128 111 86
3 89 108 105
3 142 76 111
3 76 142 129
3 141 89 110
3 130 112 133
3 112 132 133
3 131 143 113
3 144 131 93
3 93 134 144
3 135 132 116
3 135 133 132
3 146 115 114
3 147 134 149
3 115 146 119
3 143 117 113
3 116 118 136
3 149 134 137
3 137 134 121
3 122 136 118
3 117 136 122
3 150 123 119
3 150 152 123
3 138 122 124
3 122 138 127
3 126 138 124
3 123 155 125
3 123 153 155
3 127 157 110
3 139 108 154
3 125 155 128
3 126 129 156
3 129 140 156
3 110 157 141
3 108 89 154
3 142 111 128
3 140 129 142
3 141 160 89
3 154 89 160
3 130 145 114
3 134 147 144
3 114 161 146
3 114 145 161
3 133 145 130
3 145 133 162
3 135 116 148
3 148 117 163
3 163 117 143
3 146 150 119
3 148 116 136
3 148 136 117
3 167 149 137
3 167 137 168
3 168 137 169
3 151 152 150
3 137 139 169
3 123 152 153
3 126 156 138
3 127 138 156
3 156 157 127
3 140 142 159
3 142 158 159
3 157 173 141
3 158 142 128
3 131 174 175
3 174 131 144
3 163 143 175
3 143 131 175
3 144 147 174
3 162 133 176
3 176 133 135
3 148 163 135
3 165 146 177
3 162 164 145
3 149 167 147
3 166 164 162
3 146 165 150
3 151 150 165
3 152 151 184
3 186 169 139
3 170 152 184
3 152 170 153
3 186 139 154
3 170 189 153
3 153 189 155
3 172 171 158
3 159 158 171
3 186 154 188
3 155 172 128
3 158 128 172
3 187 140 159
3 187 190 140
3 140 190 156
3 156 173 157
3 190 173 156
3 173 193 141
3 193 188 160
3 188 154 160
3 160 141 193
3 146 194 177
3 178 194 161
3 194 146 161
3 161 145 178
3 179 176 135
3 135 163 179
3 163 175 179
3 174 147 195
3 195 147 180
3 178 145 164
3 147 198 180
3 167 198 147
3 164 166 181
3 198 167 203
3 203 167 168
3 166 182 181
3 203 168 169
3 182 183 181
3 203 169 205
3 181 183 171
3 159 171 183
3 183 185 159
3 205 169 208
3 208 169 186
3 209 170 184
3 207 171 172
3 187 159 185
3 192 186 188
3 208 186 192
3 189 213 155
3 172 155 213
3 190 187 191
3 191 173 190
3 214 173 191
3 192 188 193
3 192 193 216
3 214 193 173
3 216 193 214
3 196 179 175
3 195 196 175
3 195 175 174
3 217 165 177
3 196 197 179
3 217 218 165
3 176 199 162
3 176 179 199
3 179 197 199
3 200 195 180
3 180 201 200
3 198 201 180
3 199 166 162
3 201 198 221
3 218 151 165
3 202 178 164
3 164 181 202
3 182 166 199
3 221 198 203
3 218 204 151
3 199 222 182
3 182 222 183
3 202 181 206
3 221 203 205
3 204 184 151
3 206 181 171
3 222 185 183
3 206 171 207
3 185 212 191
3 211 205 208
3 207 172 225
3 187 185 191
3 192 216 210
3 208 192 211
3 192 210 211
3 172 213 225
3 212 215 191
3 214 191 215
3 217 177 227
3 177 194 227
3 197 196 219
3 220 199 197
3 197 219 220
3 228 178 202
3 199 220 222
3 223 195 200
3 200 201 223
3 220 224 222
3 219 224 220
3 201 211 223
3 201 205 211
3 221 205 201
3 223 211 210
3 224 212 222
3 224 215 212
3 210 231 223
3 232 206 207
3 222 212 185
3 226 231 210
3 233 207 225
3 226 210 216
3 209 189 170
3 213 235 225
3 216 214 226
3 214 215 226
3 234 235 189
3 189 235 213
3 227 194 178
3 236 227 178
3 178 228 236
3 196 195 219
3 229 228 202
3 195 231 219
3 195 223 231
3 219 230 224
3 219 231 230
3 215 224 230
3 230 231 215
3 231 226 215
3 234 189 209
3 217 227 218
3 204 209 184
3 209 235 234
3 225 235 233
3 218 227 237
3 237 227 236
3 237 238 218
3 204 218 238
3 209 204 238
3 238 240 209
3 233 232 207
3 240 239 209
3 209 239 235
3 235 239 233
3 241 238 237
3 236 228 229
3 241 244 238
3 229 202 206
3 244 245 238
3 229 206 232
3 245 240 238
3 232 233 247
3 240 245 239
3 233 239 247
3 241 237 242
3 236 243 237
3 243 242 237
3 236 229 243
3 242 244 241
3 243 229 249
3 232 249 229
3 244 246 245
3 249 232 247
3 239 245 246
3 239 246 247
3 242 248 244
3 243 248 242
3 243 249 248
3 248 246 244
3 247 246 248
3 248 249 247
