ply
format ascii 1.0
element vertex 252
property float x
property float y
property float z
element face 500
property list uchar int vertex_indices
end_header
-0.558502 -0.154900 -0.808503
-0.622295 -0.062589 -0.818443
-0.605656 -0.042174 -0.744809
-0.624438 0.042198 -0.812809
-0.545912 0.121424 -0.723150
-0.558885 0.141770 -0.807945
-0.573109 -0.141118 -0.747326
-0.551539 -0.059760 -0.871793
-0.450836 -0.160184 -0.052926
-0.501973 -0.139468 0.258934
-0.441725 -0.103319 -0.587742
-0.519532 -0.069913 -0.014070
-0.551341 -0.026869 0.254511
-0.585321 0.035121 -0.862947
-0.430720 0.010739 -0.558966
-0.523477 0.061572 -0.012874
-0.494175 0.133486 0.263737
-0.468578 0.165799 -0.023493
-0.430743 -0.216833 -0.807336
-0.452309 -0.226516 -0.733094
-0.376708 -0.246741 -0.040682
-0.422660 -0.237233 0.063700
-0.413682 -0.226757 0.241094
-0.436679 -0.174922 -0.851202
-0.344845 -0.220301 -0.594663
-0.345524 -0.195953 0.399756
-0.476019 -0.110728 0.370048
-0.331106 0.009016 -0.264174
-0.526452 -0.026318 0.332406
-0.464156 0.085524 0.383247
-0.454228 0.154726 -0.856897
-0.360725 0.180884 0.413471
-0.439728 0.213421 -0.804220
-0.293722 0.231529 -0.564295
-0.450860 0.224188 -0.734640
-0.391679 0.230352 -0.050291
-0.410481 0.227194 0.197687
-0.364232 -0.249721 -0.659834
-0.307224 -0.215154 -0.176801
-0.345975 -0.230933 0.294458
-0.365248 -0.028058 0.484237
-0.364618 0.042813 -0.886090
-0.334259 0.085695 0.498925
-0.274138 0.128556 -0.435131
-0.359362 0.184811 -0.821385
-0.369254 0.245537 -0.731393
-0.424482 0.237386 0.053466
-0.401748 0.222295 0.319366
-0.349993 0.256921 -0.667146
-0.340804 0.255473 -0.047842
-0.361098 -0.245323 -0.716819
-0.183103 -0.268496 -0.174809
-0.385286 -0.255228 0.021112
-0.347516 -0.227615 0.107373
-0.341030 -0.184027 -0.822619
-0.297873 -0.213110 0.366176
-0.258646 -0.162761 -0.792035
-0.266667 -0.133639 -0.422707
-0.300976 -0.176670 0.207617
-0.291966 -0.103805 -0.279406
-0.271618 -0.132406 0.111748
-0.274299 -0.128082 0.495227
-0.355461 -0.071653 -0.886982
-0.264529 -0.051729 0.183692
-0.285694 0.002272 -0.413104
-0.280044 0.136451 -0.286730
-0.267133 0.101038 0.192943
-0.252903 0.099674 -0.809270
-0.262092 0.132233 0.104619
-0.265077 0.132738 0.483867
-0.352945 0.217146 0.127639
-0.246742 0.169157 0.338615
-0.369517 0.248840 0.014358
-0.195804 0.230812 -0.040182
-0.287797 0.197976 0.397607
-0.176356 0.264952 -0.187475
-0.277066 -0.246650 -0.622796
-0.202223 -0.259031 -0.096353
-0.225579 -0.223022 -0.663929
-0.189404 -0.231243 -0.437492
-0.203283 -0.212719 -0.315927
-0.130721 -0.190781 -0.041669
-0.269304 -0.184170 0.439324
-0.134884 -0.144221 -0.647409
-0.218359 -0.089333 0.359814
-0.214969 -0.067162 0.486008
-0.278290 -0.048394 -0.851088
-0.267066 -0.048090 -0.350974
-0.253091 -0.002555 0.116905
-0.270218 0.014869 0.526106
-0.212288 0.010016 0.293611
-0.248255 0.114043 -0.358354
-0.188335 0.065362 0.361771
-0.204532 0.057884 0.494882
-0.201777 0.122896 0.431401
-0.128837 0.137521 -0.661313
-0.200171 0.217323 -0.425267
-0.209593 0.210070 -0.326904
-0.215944 0.217571 -0.656224
-0.206429 0.243298 -0.547869
-0.287162 0.253293 -0.633515
-0.197006 0.262217 -0.104853
-0.181731 -0.227102 -0.562551
-0.123525 -0.243863 -0.407869
-0.096632 -0.172099 -0.562366
-0.123025 -0.093162 -0.007510
-0.175482 0.022547 0.440604
-0.126971 0.037698 0.001000
-0.097859 0.148825 -0.591037
-0.174844 0.229019 -0.576976
-0.129264 0.228082 -0.502214
-0.133995 0.245060 -0.396406
-0.108585 -0.270354 -0.222794
-0.105382 -0.256150 -0.128309
-0.006402 -0.244832 -0.308823
0.021857 -0.206322 -0.359621
-0.070744 -0.071733 -0.597498
-0.104286 0.038316 -0.659249
-0.060117 0.043901 -0.594117
-0.110786 0.173687 -0.041490
0.007721 0.199512 -0.364267
-0.016776 0.252142 -0.282544
-0.059512 0.267744 -0.212079
-0.093224 0.247767 -0.111743
-0.001766 -0.250349 -0.141815
0.078977 -0.215790 -0.257963
-0.022847 -0.200279 -0.036910
0.059242 -0.237315 -0.056758
0.023660 -0.127751 -0.428958
-0.042856 -0.122194 0.003852
-0.057659 0.039649 -0.003992
0.071290 0.085851 0.098060
0.042364 0.108532 -0.407823
-0.009584 0.186973 -0.021199
0.044384 0.239561 -0.225775
0.029462 0.241295 -0.077329
0.089034 -0.250261 -0.093047
0.118603 -0.246952 -0.040667
0.120556 -0.225049 0.021231
0.094265 -0.136179 -0.315435
0.144174 -0.187513 0.111622
0.052220 -0.010301 -0.411638
0.105297 0.014420 0.146387
0.139653 0.078113 -0.278865
0.097979 0.164869 -0.285133
0.187413 0.233116 -0.084915
0.125038 0.242892 -0.018631
0.020121 0.255563 -0.130250
0.107068 0.246871 -0.092944
0.160437 -0.246886 -0.020692
0.194427 -0.232961 0.064045
0.395722 -0.102523 0.047370
0.127117 -0.006335 -0.299504
0.308405 0.071780 0.364250
0.341247 0.166195 0.351280
0.209835 0.237375 0.087179
0.188161 0.246640 -0.028629
0.200415 0.248810 0.029831
0.258956 -0.242285 0.064083
0.311877 -0.226000 0.209698
0.408108 0.003958 0.029599
0.352439 0.223640 0.262956
0.262538 0.236975 0.060380
0.336486 -0.213868 0.084923
0.356649 -0.148390 0.392416
0.320145 -0.024343 0.399482
0.415243 0.109180 0.056710
0.347933 0.184882 0.050517
0.371049 -0.229333 0.195190
0.412272 -0.185223 0.151591
0.423483 -0.228555 0.338780
0.432334 -0.202681 0.420112
0.386153 -0.073756 0.478711
0.398007 0.056522 0.508288
0.372130 0.098797 0.446500
0.448237 0.102457 0.104211
0.434099 0.193073 0.174997
0.427675 0.153541 0.474597
0.405386 0.223426 0.220603
0.431976 0.223102 0.360401
0.510079 -0.240316 0.354663
0.435225 -0.210251 0.204209
0.445255 -0.135823 0.495360
0.509681 -0.147648 0.202721
0.462442 -0.045407 0.107269
0.424871 0.045854 0.531184
0.513620 0.127541 0.182352
0.506081 0.241604 0.371703
0.482994 -0.222395 0.270819
0.502017 -0.229732 0.434754
0.559819 -0.186687 0.273067
0.593992 -0.217286 0.351681
0.560932 -0.228772 0.499860
0.509633 -0.184280 0.512777
0.572945 -0.192038 0.593014
0.605594 -0.191906 0.662190
0.571495 -0.111650 0.665484
0.513228 0.004604 0.157054
0.494456 -0.004300 0.575769
0.566019 0.085569 0.668309
0.501731 0.178090 0.522016
0.539754 0.171514 0.579053
0.538097 0.185301 0.259105
0.505978 0.226202 0.442524
0.611517 0.190515 0.664788
0.504414 0.231169 0.316510
0.569367 0.226430 0.387998
0.576823 0.224134 0.527592
0.586438 -0.244309 0.435368
0.635059 -0.240490 0.568951
0.657493 -0.234917 0.632330
0.576121 -0.082009 0.224194
0.647387 -0.135493 0.331370
0.663635 0.013483 0.314217
0.602213 0.034332 0.219812
0.576323 0.082632 0.215219
0.639139 0.165182 0.358925
0.655002 0.228540 0.477976
0.654316 0.236012 0.625692
0.659766 0.245505 0.567918
0.728942 -0.244343 0.609200
0.740658 -0.246791 0.665863
0.791880 -0.201505 0.578141
0.738853 -0.225708 0.731961
0.728904 -0.161279 0.801604
0.723442 -0.002868 0.861939
0.756913 0.089998 0.856654
0.737977 0.190586 0.804655
0.707890 0.212267 0.489998
0.733768 0.223686 0.729691
0.723412 0.237743 0.594389
0.858511 -0.049861 0.573730
0.831856 0.121993 0.575108
0.788838 0.208083 0.589980
0.821234 -0.225648 0.688180
0.822928 -0.200807 0.795450
0.875493 -0.169061 0.664089
0.801216 -0.052832 0.884073
0.909782 0.009803 0.646247
0.879270 0.160577 0.676899
0.809636 0.199575 0.799252
0.829565 0.208051 0.683579
0.888277 -0.189793 0.755363
0.885479 -0.159284 0.824068
0.936062 -0.100201 0.807851
0.948127 -0.050553 0.743213
0.883556 -0.010543 0.868693
0.946969 0.085850 0.747597
0.885115 0.148143 0.822429
0.942204 0.124377 0.790569
0.884419 0.186109 0.755962
0.953599 0.040533 0.805986
3 1 0 7
3 0 1 6
3 6 1 2
3 13 1 7
3 3 1 13
3 1 3 2
3 2 3 4
3 5 3 13
3 3 5 4
3 6 19 0
3 23 7 0
3 6 2 10
3 8 11 9
3 9 11 12
3 9 12 28
3 4 14 2
3 11 15 12
3 12 15 16
3 28 16 29
3 12 16 28
3 30 5 13
3 15 17 16
3 5 34 4
3 5 32 34
3 4 34 33
3 21 9 22
3 18 23 0
3 19 18 0
3 19 6 24
3 19 24 37
3 8 20 38
3 20 8 21
3 21 8 9
3 22 9 25
3 10 24 6
3 9 26 25
3 8 27 11
3 28 26 9
3 14 10 2
3 41 13 7
3 11 27 15
3 40 29 42
3 28 29 40
3 41 30 13
3 27 17 15
3 16 31 29
3 29 31 42
3 5 30 32
3 17 36 16
3 31 16 47
3 32 45 34
3 35 46 17
3 46 36 17
3 36 47 16
3 18 50 54
3 18 19 50
3 50 19 37
3 52 20 21
3 52 21 53
3 21 22 53
3 53 22 39
3 54 23 18
3 39 22 25
3 24 10 57
3 38 59 8
3 54 62 23
3 25 26 40
3 62 7 23
3 26 28 40
3 62 41 7
3 41 44 30
3 4 43 14
3 4 33 43
3 32 30 44
3 44 45 32
3 34 45 48
3 34 48 33
3 49 72 35
3 35 72 46
3 72 70 46
3 46 70 36
3 37 76 50
3 20 77 51
3 52 77 20
3 50 78 54
3 76 78 50
3 24 76 37
3 51 38 20
3 52 53 77
3 56 54 78
3 39 58 53
3 55 58 39
3 55 39 25
3 55 25 82
3 25 61 82
3 53 58 60
3 56 86 54
3 86 62 54
3 63 60 58
3 58 84 63
3 40 61 25
3 64 57 10
3 8 59 27
3 61 40 89
3 86 41 62
3 27 59 87
3 14 64 10
3 86 67 41
3 87 64 91
3 91 27 87
3 65 27 91
3 40 42 89
3 43 64 14
3 64 43 91
3 27 65 17
3 89 42 69
3 44 41 67
3 31 69 42
3 70 73 68
3 68 66 70
3 44 67 98
3 35 17 65
3 66 71 70
3 71 36 70
3 71 74 36
3 47 74 31
3 69 31 74
3 98 45 44
3 45 98 100
3 48 45 100
3 99 33 100
3 100 33 48
3 35 75 49
3 73 72 101
3 70 72 73
3 47 36 74
3 75 101 49
3 101 72 49
3 78 76 102
3 24 102 76
3 24 79 102
3 51 80 38
3 77 53 81
3 56 78 83
3 24 57 79
3 80 59 38
3 53 60 81
3 55 84 58
3 82 84 55
3 79 57 80
3 61 85 82
3 86 56 83
3 57 87 80
3 87 59 80
3 105 81 60
3 85 84 82
3 64 87 57
3 88 105 60
3 63 88 60
3 61 89 85
3 84 90 63
3 107 105 88
3 63 66 88
3 63 90 66
3 90 92 66
3 85 89 93
3 68 107 88
3 68 88 66
3 93 89 69
3 71 66 92
3 71 92 94
3 33 96 43
3 43 96 91
3 91 96 97
3 91 97 65
3 69 94 93
3 98 67 95
3 65 97 35
3 94 74 71
3 94 69 74
3 100 98 99
3 99 98 109
3 99 96 33
3 97 75 35
3 103 80 112
3 51 112 80
3 112 51 113
3 51 77 113
3 102 79 103
3 80 103 79
3 113 77 81
3 78 102 83
3 102 104 83
3 103 104 102
3 85 106 84
3 83 117 86
3 92 90 84
3 84 106 92
3 86 117 67
3 85 93 106
3 117 95 67
3 68 119 107
3 106 94 92
3 94 106 93
3 119 68 73
3 95 108 98
3 108 109 98
3 108 110 109
3 99 109 110
3 110 111 99
3 111 96 99
3 111 97 96
3 97 111 75
3 119 73 123
3 123 73 101
3 111 122 75
3 122 123 75
3 75 123 101
3 103 112 114
3 114 112 124
3 124 112 113
3 103 114 115
3 103 115 104
3 126 113 81
3 104 115 128
3 126 81 129
3 129 81 105
3 104 116 83
3 104 128 116
3 83 116 117
3 129 105 130
3 130 105 107
3 116 118 117
3 118 108 117
3 118 132 108
3 130 107 119
3 117 108 95
3 130 119 133
3 108 120 110
3 119 123 133
3 120 111 110
3 120 121 111
3 121 122 111
3 114 125 115
3 124 125 114
3 127 124 126
3 126 124 113
3 128 141 116
3 129 130 142
3 116 141 118
3 142 130 131
3 118 141 132
3 133 131 130
3 108 132 120
3 133 123 135
3 120 134 121
3 135 123 147
3 122 121 134
3 134 147 122
3 147 123 122
3 124 136 125
3 137 136 127
3 124 127 136
3 137 127 138
3 139 115 125
3 138 127 126
3 126 140 138
3 128 115 139
3 129 140 126
3 139 141 128
3 139 152 141
3 152 143 141
3 141 143 132
3 143 144 132
3 132 144 120
3 134 120 144
3 144 145 134
3 133 135 146
3 145 148 134
3 147 148 135
3 148 147 134
3 148 146 135
3 137 149 136
3 149 138 150
3 136 149 125
3 137 138 149
3 139 125 151
3 140 150 138
3 150 140 159
3 139 160 152
3 152 160 143
3 131 153 142
3 154 153 131
3 133 154 131
3 146 155 133
3 133 155 154
3 145 156 148
3 157 146 156
3 146 157 155
3 156 146 148
3 150 158 149
3 149 158 125
3 159 158 150
3 142 153 165
3 144 167 145
3 155 161 154
3 145 162 156
3 157 162 155
3 155 162 161
3 162 157 156
3 158 163 125
3 163 158 168
3 158 159 168
3 125 163 151
3 159 140 164
3 165 164 140
3 129 165 140
3 139 151 160
3 142 165 129
3 165 153 174
3 167 143 166
3 144 143 167
3 153 154 174
3 167 162 145
3 178 162 167
3 162 178 161
3 169 163 168
3 169 168 181
3 170 168 159
3 163 169 151
3 164 170 159
3 170 164 171
3 182 171 172
3 171 164 172
3 164 165 172
3 182 172 185
3 172 165 173
3 172 173 185
3 160 166 143
3 165 174 173
3 167 166 175
3 185 173 177
3 175 176 167
3 174 154 177
3 173 174 177
3 167 176 178
3 161 179 154
3 177 154 179
3 161 178 179
3 168 188 181
3 180 188 170
3 170 188 168
3 180 170 171
3 180 171 189
3 183 181 188
3 171 182 189
3 182 193 189
3 169 181 183
3 184 151 169
3 169 183 184
3 183 197 184
3 193 182 198
3 151 184 160
3 198 182 185
3 184 175 160
3 184 197 175
3 160 175 166
3 197 186 175
3 198 185 200
3 200 185 177
3 176 175 186
3 177 203 200
3 176 186 202
3 176 202 178
3 178 202 205
3 179 203 177
3 205 187 179
3 205 179 178
3 179 187 203
3 180 190 188
3 180 191 190
3 180 208 191
3 180 189 208
3 192 208 189
3 190 183 188
3 193 192 189
3 192 193 194
3 190 211 183
3 195 194 196
3 211 197 183
3 198 194 193
3 194 198 196
3 211 215 197
3 196 198 199
3 215 186 197
3 200 201 198
3 198 201 199
3 215 202 186
3 199 201 204
3 205 202 206
3 207 200 203
3 201 200 207
3 205 206 187
3 206 203 187
3 203 206 207
3 209 192 194
3 209 208 192
3 209 194 210
3 191 208 222
3 195 210 194
3 191 212 190
3 190 212 211
3 212 213 211
3 211 213 214
3 215 211 214
3 196 199 225
3 214 213 215
3 225 199 226
3 213 216 215
3 199 204 226
3 215 216 202
3 206 202 216
3 216 217 206
3 216 228 217
3 204 201 207
3 218 204 207
3 217 207 206
3 207 217 219
3 218 207 219
3 208 220 222
3 208 209 220
3 221 220 210
3 209 210 220
3 221 210 223
3 223 210 195
3 195 224 223
3 191 222 212
3 196 224 195
3 225 224 196
3 204 227 226
3 204 218 229
3 229 227 204
3 217 230 219
3 228 230 217
3 219 230 218
3 218 230 229
3 220 234 222
3 220 221 234
3 221 223 234
3 223 235 234
3 224 235 223
3 212 222 231
3 235 224 237
3 237 224 225
3 213 212 231
3 232 213 231
3 237 225 226
3 216 213 232
3 240 226 227
3 228 216 232
3 228 232 233
3 240 227 229
3 233 230 228
3 233 241 230
3 229 230 241
3 240 229 241
3 234 236 222
3 242 236 234
3 234 235 242
3 242 235 243
3 222 236 231
3 243 235 237
3 236 238 231
3 243 237 246
3 231 238 232
3 246 237 226
3 238 239 232
3 246 226 248
3 248 226 240
3 233 232 241
3 232 239 241
3 250 241 239
3 240 241 250
3 240 250 248
3 244 242 243
3 245 236 242
3 238 236 245
3 244 245 242
3 243 246 244
3 244 246 251
3 247 238 245
3 239 238 247
3 249 251 248
3 251 246 248
3 250 239 247
3 247 249 250
3 249 248 250
3 244 251 245
3 247 245 251
3 251 249 247
