ply
format ascii 1.0
element vertex 252
property float x
property float y
property float z
element face 500
property list uchar int vertex_indices
end_header
-0.653850 -0.177476 -0.336663
-0.645460 -0.197405 -0.207466
-0.698479 -0.079800 -0.202330
-0.652054 -0.136289 -0.136237
-0.635999 -0.100904 -0.412508
-0.707669 -0.020712 -0.356829
-0.692352 0.045071 -0.417292
-0.694644 0.018512 -0.133949
-0.700691 0.098487 -0.199248
-0.710532 0.073413 -0.359712
-0.666553 0.120208 -0.127028
-0.659319 0.171747 -0.333527
-0.647681 0.187463 -0.172387
-0.585315 -0.255108 -0.272075
-0.650035 -0.031094 -0.092524
-0.574913 0.003596 -0.806972
-0.642392 0.066561 -0.431579
-0.590294 0.249514 -0.264058
-0.574747 -0.224042 -0.341232
-0.557930 -0.247702 -0.180879
-0.494863 -0.180475 -0.784108
-0.571352 -0.153029 -0.083538
-0.555366 -0.082571 -0.833178
-0.540357 -0.118824 -0.759233
-0.494322 -0.130031 -0.678778
-0.529810 -0.026088 -0.436935
-0.597207 0.006023 -0.055671
-0.565013 0.006114 -0.856312
-0.544241 -0.018432 -0.711277
-0.519857 0.014078 -0.664379
-0.553677 0.096452 -0.825883
-0.541953 0.102478 -0.744936
-0.486661 0.149113 -0.676167
-0.500877 0.126951 -0.390439
-0.587329 0.174530 -0.103550
-0.578046 0.218547 -0.344043
-0.502236 0.172031 -0.790334
-0.543469 0.255907 -0.174195
-0.474348 -0.278871 -0.227338
-0.417344 -0.235219 -0.287065
-0.412508 -0.281020 -0.114430
-0.424187 -0.223740 -0.720925
-0.502782 -0.120513 -0.401709
-0.407459 -0.124117 -0.383920
-0.495348 -0.068088 -0.868229
-0.462621 -0.003813 -0.576623
-0.422935 -0.049147 -0.490013
-0.390987 -0.064103 0.132161
-0.435334 0.000205 -0.433693
-0.511020 0.086741 -0.862081
-0.408580 0.098683 -0.501969
-0.371353 0.101712 0.119219
-0.432164 0.151100 -0.581191
-0.404364 0.140718 -0.374824
-0.415045 0.211182 -0.636481
-0.369815 0.212376 0.035169
-0.399969 0.287615 -0.119570
-0.409523 0.227934 -0.737703
-0.505499 0.225301 -0.328170
-0.451033 0.280029 -0.212032
-0.414217 -0.208635 -0.804079
-0.342107 -0.212605 -0.555942
-0.348021 -0.196644 0.102451
-0.423649 -0.151887 -0.571040
-0.397088 -0.146974 -0.508188
-0.375462 -0.132506 -0.419233
-0.335140 -0.092010 0.188411
-0.325813 0.029554 0.210394
-0.362961 0.037895 -0.865519
-0.367788 0.148587 -0.423344
-0.427147 0.199513 -0.819373
-0.413350 0.225117 -0.291127
-0.332179 0.209159 -0.531098
-0.264750 0.328513 -0.093949
-0.270487 -0.326238 -0.104415
-0.326771 -0.299422 -0.192402
-0.266399 -0.269318 0.066503
-0.340458 -0.213601 -0.746274
-0.338593 -0.251197 -0.275354
-0.351898 -0.190345 -0.814914
-0.267407 -0.195757 -0.645819
-0.264171 -0.236953 -0.436563
-0.279620 -0.241942 -0.332923
-0.363069 -0.180604 -0.342624
-0.267786 -0.181788 0.186398
-0.300100 -0.079578 -0.829258
-0.249250 -0.074192 -0.743545
-0.358439 -0.096578 -0.863123
-0.281779 0.063518 -0.804904
-0.365977 0.200897 -0.800753
-0.297418 0.191059 -0.723452
-0.344547 0.200528 -0.348352
-0.257933 0.191791 0.175511
-0.280782 0.248245 0.073879
-0.284569 0.223936 -0.599127
-0.273772 0.225185 -0.434065
-0.267570 0.239452 -0.370584
-0.317843 0.299363 -0.195287
-0.206983 -0.316013 -0.132119
-0.261592 -0.235811 -0.514266
-0.211168 -0.185196 -0.579948
-0.209191 -0.103416 -0.654524
-0.268467 -0.007411 0.255355
-0.243671 0.085954 -0.744051
-0.257076 0.094102 0.249243
-0.206379 0.113649 -0.647165
-0.185786 0.170889 -0.565215
-0.237198 0.229176 -0.510581
-0.193669 0.323477 -0.128194
-0.158457 -0.282266 0.019146
-0.203384 -0.245699 -0.410118
-0.096861 -0.257181 -0.291330
-0.202757 -0.208534 0.166726
-0.127080 -0.200457 -0.427470
-0.174799 -0.118847 -0.590991
-0.101210 -0.166494 0.108135
-0.138718 -0.121751 0.196682
-0.196663 -0.055665 0.253819
-0.163843 0.073293 -0.595959
-0.193317 0.074882 0.258987
-0.206785 0.188150 0.201004
-0.095641 0.187610 0.084716
-0.139097 0.137489 0.180873
-0.204194 0.247681 -0.388660
-0.119299 0.198197 -0.428546
-0.194031 0.259233 0.083545
-0.089503 0.236202 -0.319219
-0.076902 0.284794 -0.024735
-0.060993 -0.296098 -0.104025
-0.032827 -0.221250 -0.269381
-0.040815 -0.185740 0.067402
-0.101606 -0.031581 0.175431
-0.056377 -0.084210 -0.407119
-0.068526 0.009059 0.115804
-0.142242 0.020648 0.242352
-0.052221 0.089251 -0.415156
-0.046282 0.174679 -0.353117
-0.021916 0.218514 -0.258372
-0.064052 0.295433 -0.116653
-0.037738 -0.272213 -0.022280
0.052010 -0.278796 -0.049821
0.034114 -0.206412 0.077896
0.001998 -0.158468 -0.283336
-0.022656 -0.089913 0.113602
0.043092 -0.037498 -0.280035
-0.039174 0.037113 0.112782
0.025481 0.113790 -0.288145
0.133339 0.044636 0.292653
-0.013085 0.211423 0.068961
0.024300 0.274943 -0.049412
0.100656 -0.204905 -0.143902
0.198495 -0.238917 0.173859
0.130371 -0.049166 -0.196844
0.111120 -0.035062 0.255959
0.114860 0.060863 -0.203328
0.110087 0.218395 -0.127387
0.196608 0.240744 0.167271
0.118839 -0.272130 -0.062438
0.193878 -0.175595 0.282921
0.205922 -0.068519 0.390817
0.219616 -0.004689 0.434118
0.237877 0.093805 0.432888
0.180431 0.175511 0.281496
0.168581 0.258664 -0.011010
0.188872 -0.263709 0.025650
0.289144 -0.236014 0.165173
0.198900 -0.202847 -0.078159
0.287864 -0.236577 0.307779
0.281008 -0.223088 0.351804
0.291507 -0.181999 0.425752
0.249130 -0.085523 -0.127632
0.192847 -0.036660 -0.163635
0.193256 0.181195 -0.099273
0.287288 0.061284 -0.106933
0.284307 0.190423 0.410545
0.269015 0.226583 0.303480
0.269389 0.232180 0.038004
0.286136 0.220402 0.121784
0.312791 -0.202386 0.063564
0.379300 -0.155761 0.132013
0.424422 -0.206123 0.563938
0.357503 -0.108698 0.026761
0.424685 -0.117767 0.665067
0.283594 -0.012262 -0.119645
0.403787 0.003092 0.673551
0.433606 0.080632 0.700278
0.375349 0.113821 0.038339
0.270804 0.232032 0.200845
0.367122 0.236337 0.400229
0.414640 -0.237647 0.350769
0.387904 -0.237869 0.422685
0.458532 -0.237737 0.504437
0.432073 -0.047055 0.179218
0.405428 -0.056028 0.106347
0.398828 0.040505 0.036744
0.403751 0.062208 0.118101
0.425976 0.060896 0.190497
0.373388 0.156096 0.197417
0.483653 0.211146 0.621747
0.384830 0.229158 0.349685
0.352813 0.240547 0.364909
0.438194 0.236177 0.487018
0.491199 -0.235208 0.444629
0.553702 -0.165027 0.407610
0.493926 -0.216846 0.610801
0.511087 -0.193164 0.717953
0.477454 -0.121323 0.752110
0.449306 -0.010070 0.738570
0.563334 0.045484 0.361311
0.474332 0.088767 0.761717
0.554775 0.166448 0.423101
0.510899 0.198417 0.718572
0.479962 0.233178 0.448958
0.515493 -0.236655 0.507232
0.569944 -0.238141 0.654969
0.581830 -0.203807 0.492471
0.565857 -0.190115 0.794784
0.589865 -0.048703 0.391716
0.602444 0.120763 0.853687
0.565472 0.191623 0.793643
0.529899 0.229138 0.503223
0.563846 0.241197 0.671363
0.584835 -0.233972 0.592351
0.599037 -0.236488 0.740016
0.659701 -0.246340 0.744428
0.669580 -0.206985 0.802662
0.663116 -0.074288 0.501542
0.581425 -0.099749 0.841775
0.617858 -0.069067 0.431096
0.594669 0.017570 0.862740
0.615805 0.052481 0.431573
0.638144 0.111722 0.482589
0.598107 0.195052 0.502610
0.588904 0.229916 0.587143
0.600086 0.240985 0.736367
0.695830 0.201263 0.804468
0.645435 -0.245397 0.687907
0.740530 -0.221893 0.755807
0.771738 -0.186348 0.711318
0.862394 -0.101751 0.757972
0.862265 0.002668 0.735952
0.676106 0.182007 0.590726
0.637096 0.240549 0.664415
0.671297 0.242480 0.741358
0.799415 -0.067207 0.856981
0.778231 0.078515 0.862307
0.783375 0.189860 0.752941
0.820571 -0.159315 0.792706
0.880602 -0.068271 0.805722
0.876008 0.025799 0.814599
0.861186 0.098460 0.759509
0.830212 0.146484 0.801092
3 1 0 2
3 1 2 3
3 0 4 5
3 0 5 2
3 4 6 5
3 3 2 7
3 3 7 14
3 16 6 4
3 2 5 8
3 2 8 7
3 5 6 9
3 5 9 8
3 14 7 10
3 11 6 16
3 11 9 6
3 7 8 10
3 9 11 8
3 8 11 12
3 10 8 12
3 18 0 13
3 0 1 13
3 19 13 1
3 1 3 19
3 18 4 0
3 21 19 3
3 21 3 14
3 21 14 26
3 27 15 22
3 25 16 4
3 25 33 16
3 26 14 10
3 27 30 15
3 26 10 34
3 16 33 35
3 11 16 35
3 12 37 34
3 10 12 34
3 17 11 35
3 37 12 17
3 12 11 17
3 13 38 18
3 19 38 13
3 38 39 18
3 39 42 18
3 21 40 19
3 22 20 44
3 20 23 24
3 20 22 23
3 4 42 25
3 42 4 18
3 22 15 23
3 44 27 22
3 28 23 15
3 23 28 24
3 24 28 29
3 44 49 27
3 31 28 15
3 28 31 29
3 29 31 32
3 30 27 49
3 15 30 31
3 36 30 49
3 31 30 36
3 31 36 32
3 33 58 35
3 56 34 37
3 34 56 55
3 35 58 59
3 17 35 59
3 17 59 37
3 40 38 19
3 60 20 41
3 41 20 24
3 41 24 63
3 42 39 43
3 40 21 62
3 60 44 20
3 24 45 63
3 63 46 64
3 45 46 63
3 42 48 25
3 42 43 48
3 26 47 21
3 29 45 24
3 68 49 44
3 32 45 29
3 46 45 50
3 48 33 25
3 46 50 48
3 51 47 26
3 68 70 49
3 52 45 32
3 45 52 50
3 48 53 33
3 34 51 26
3 70 36 49
3 32 54 52
3 53 71 33
3 36 70 57
3 36 57 32
3 54 32 57
3 33 71 58
3 58 71 59
3 37 59 56
3 39 75 78
3 38 75 39
3 40 75 38
3 60 77 79
3 41 77 60
3 41 61 77
3 41 63 61
3 61 63 64
3 78 83 39
3 83 43 39
3 65 43 83
3 79 87 60
3 87 44 60
3 64 46 65
3 21 47 62
3 87 68 44
3 48 65 46
3 43 65 48
3 66 47 67
3 47 51 67
3 50 69 48
3 48 69 53
3 68 89 70
3 69 91 53
3 53 91 71
3 34 55 51
3 52 54 72
3 52 72 50
3 50 72 69
3 89 57 70
3 90 57 89
3 57 94 54
3 57 90 94
3 94 72 54
3 97 71 91
3 97 59 71
3 97 73 56
3 97 56 59
3 74 75 40
3 74 40 76
3 75 82 78
3 77 61 80
3 80 61 99
3 81 99 61
3 76 40 62
3 65 81 61
3 64 65 61
3 81 65 82
3 82 65 83
3 78 82 83
3 76 62 84
3 79 77 85
3 77 86 85
3 77 80 86
3 84 62 66
3 87 79 85
3 47 66 62
3 66 102 84
3 85 68 87
3 102 66 67
3 85 88 68
3 102 67 104
3 89 68 88
3 103 90 88
3 67 51 92
3 67 92 104
3 88 90 89
3 55 93 51
3 51 93 92
3 72 95 69
3 69 95 91
3 91 95 96
3 94 107 72
3 72 107 95
3 96 97 91
3 55 56 93
3 56 73 93
3 98 75 74
3 98 74 76
3 109 98 76
3 98 110 82
3 98 82 75
3 76 112 109
3 99 110 100
3 99 81 110
3 82 110 81
3 84 112 76
3 99 100 80
3 86 80 101
3 80 100 101
3 101 100 114
3 112 84 117
3 117 84 102
3 101 105 86
3 85 86 88
3 86 103 88
3 86 105 103
3 117 102 119
3 119 102 104
3 103 105 90
3 105 118 106
3 119 104 120
3 120 104 92
3 90 105 94
3 105 106 94
3 106 107 94
3 123 95 107
3 123 96 95
3 125 92 93
3 120 92 125
3 123 108 97
3 123 97 96
3 73 97 108
3 73 108 125
3 93 73 125
3 110 98 111
3 110 113 100
3 110 111 113
3 115 109 112
3 100 113 114
3 116 115 112
3 116 112 117
3 116 117 134
3 114 118 101
3 114 132 118
3 101 118 105
3 132 135 118
3 134 117 119
3 118 135 106
3 134 119 122
3 122 119 120
3 106 124 107
3 120 125 122
3 125 121 122
3 124 123 107
3 124 126 123
3 127 121 125
3 126 108 123
3 126 138 108
3 127 125 108
3 127 108 138
3 98 128 111
3 98 109 128
3 128 109 139
3 115 139 109
3 111 129 113
3 128 129 111
3 115 130 139
3 129 132 113
3 114 113 132
3 143 130 115
3 116 131 115
3 133 143 115
3 115 131 133
3 116 134 131
3 145 143 133
3 131 122 133
3 131 134 122
3 121 145 133
3 133 122 121
3 135 124 106
3 135 136 124
3 148 145 121
3 136 126 124
3 136 137 126
3 137 138 126
3 121 127 148
3 128 139 140
3 139 141 140
3 128 140 129
3 130 141 139
3 142 129 150
3 132 129 142
3 143 141 130
3 142 144 132
3 142 150 144
3 132 144 135
3 153 145 147
3 143 145 153
3 144 146 135
3 135 146 136
3 148 147 145
3 146 137 136
3 146 155 137
3 137 149 138
3 149 148 127
3 149 127 138
3 140 150 129
3 150 140 157
3 140 141 151
3 144 150 152
3 154 144 152
3 146 144 154
3 155 146 154
3 162 147 148
3 148 149 156
3 156 162 148
3 155 149 137
3 149 155 163
3 157 140 164
3 151 164 140
3 166 150 157
3 151 141 158
3 166 171 150
3 171 152 150
3 143 158 141
3 153 158 143
3 158 153 159
3 171 154 152
3 153 147 159
3 159 147 160
3 171 172 154
3 160 147 161
3 172 155 154
3 161 147 162
3 163 155 172
3 149 163 156
3 165 164 151
3 157 164 166
3 167 165 151
3 158 167 151
3 167 158 168
3 168 158 169
3 171 166 170
3 158 159 169
3 169 159 182
3 170 183 171
3 182 160 184
3 159 160 182
3 183 173 171
3 184 161 185
3 160 161 184
3 172 171 173
3 173 186 172
3 161 162 174
3 156 175 162
3 174 162 175
3 172 176 163
3 156 177 187
3 156 187 175
3 177 163 176
3 156 163 177
3 164 178 166
3 165 178 164
3 165 167 189
3 169 190 168
3 190 167 168
3 166 178 181
3 179 178 165
3 165 189 179
3 169 180 190
3 170 166 181
3 182 180 169
3 181 194 183
3 170 181 183
3 194 186 173
3 183 194 173
3 186 195 177
3 186 176 172
3 176 186 177
3 197 187 177
3 197 199 187
3 174 175 188
3 199 175 187
3 199 200 175
3 175 200 188
3 190 189 167
3 179 189 203
3 191 190 180
3 178 179 181
3 179 203 192
3 193 181 179
3 179 192 193
3 194 181 193
3 195 194 193
3 193 192 195
3 192 196 195
3 186 194 195
3 196 197 195
3 195 197 177
3 198 185 161
3 174 198 161
3 197 210 199
3 174 188 201
3 174 201 198
3 199 188 200
3 199 212 188
3 188 212 201
3 189 190 202
3 202 190 191
3 202 191 213
3 204 191 180
3 204 213 191
3 189 202 203
3 182 204 180
3 204 182 205
3 205 182 206
3 206 182 207
3 182 184 207
3 196 192 208
3 184 185 207
3 207 185 209
3 210 197 196
3 209 185 211
3 185 198 211
3 210 212 199
3 201 212 220
3 201 220 198
3 215 202 213
3 215 213 222
3 213 204 222
3 214 222 204
3 223 214 205
3 214 204 205
3 223 205 216
3 203 202 215
3 206 216 205
3 216 206 227
3 192 203 217
3 208 192 217
3 227 207 229
3 206 207 227
3 207 209 229
3 210 196 208
3 229 209 218
3 219 218 209
3 211 219 209
3 210 232 220
3 212 210 220
3 232 233 220
3 233 198 220
3 198 233 221
3 234 211 221
3 211 198 221
3 211 234 219
3 222 214 236
3 224 236 223
3 214 223 236
3 223 216 225
3 224 223 225
3 215 222 238
3 222 236 238
3 215 226 203
3 238 239 226
3 215 238 226
3 225 216 227
3 228 217 203
3 203 226 228
3 230 217 228
3 208 217 230
3 228 226 230
3 226 231 230
3 210 208 230
3 230 231 210
3 231 232 210
3 231 241 232
3 235 218 219
3 232 241 233
3 241 242 233
3 233 242 221
3 234 221 242
3 243 234 242
3 234 243 235
3 234 235 219
3 236 224 237
3 237 224 225
3 236 237 238
3 244 225 227
3 226 239 240
3 244 227 229
3 231 226 240
3 244 229 245
3 245 229 218
3 241 231 240
3 245 218 235
3 241 246 242
3 242 246 243
3 235 243 246
3 237 247 238
3 237 225 247
3 244 247 225
3 240 250 241
3 250 246 241
3 251 245 235
3 246 251 235
3 238 247 239
3 247 248 239
3 247 244 248
3 239 248 240
3 248 249 240
3 248 244 249
3 244 245 249
3 240 249 250
3 249 251 250
3 249 245 251
3 246 250 251
