ply
format ascii 1.0
element vertex 252
property float x
property float y
property float z
element face 500
property list uchar int vertex_indices
end_header
-0.547628 -0.141970 0.503937
-0.582269 -0.069413 0.482135
-0.595357 -0.004284 0.515110
-0.577307 0.076143 0.496685
-0.550979 0.156464 0.505880
-0.510263 -0.180037 0.436876
-0.512651 -0.139534 0.413028
-0.497735 -0.143388 0.589091
-0.521936 -0.077794 0.593715
-0.588089 -0.000810 0.455103
-0.504209 0.053154 0.604070
-0.527204 0.148014 0.553916
-0.510716 0.152952 0.443154
-0.488265 -0.199635 0.503726
-0.428440 -0.194904 0.569457
-0.502507 -0.037467 0.377592
-0.502976 0.034622 0.382466
-0.488201 0.204871 0.503653
-0.425687 0.177594 0.573797
-0.423950 -0.233356 0.504342
-0.431374 -0.199157 0.433778
-0.333128 -0.214675 0.433075
-0.432959 -0.120246 0.619679
-0.426949 -0.076570 0.358187
-0.416084 -0.011462 0.634936
-0.428150 -0.002161 0.347868
-0.426415 0.081799 0.364808
-0.434674 0.068540 0.629718
-0.430248 0.203547 0.435210
-0.345845 0.224161 0.440064
-0.418184 0.238148 0.495030
-0.352188 0.238364 0.515740
-0.356539 -0.237147 0.502031
-0.284449 -0.181589 0.569446
-0.364240 -0.117045 0.362198
-0.296375 -0.135992 0.352395
-0.272720 -0.080568 0.614280
-0.339882 -0.044635 0.330063
-0.264508 -0.003923 0.622956
-0.358551 0.047637 0.338643
-0.285404 0.085353 0.613311
-0.361027 0.138853 0.370385
-0.272682 0.141065 0.340439
-0.256201 0.227318 0.485948
-0.261299 -0.223213 0.414829
-0.272681 -0.234839 0.487030
-0.191955 -0.200017 0.508995
-0.203829 -0.198139 0.360948
-0.205437 -0.115450 0.572881
-0.198696 -0.031997 0.279580
-0.208036 0.041737 0.286357
-0.216729 0.114249 0.587812
-0.272695 0.184764 0.562430
-0.274286 0.221653 0.417665
-0.193213 -0.235218 0.422194
-0.101479 -0.178361 0.498984
-0.175178 -0.096153 0.297412
-0.193147 0.009577 0.588121
-0.182304 0.092946 0.289169
-0.171492 0.166739 0.319838
-0.209878 0.199017 0.356284
-0.119766 0.152681 0.526943
-0.100732 0.185824 0.500069
-0.119125 0.222640 0.374567
-0.182307 0.229439 0.459541
-0.198768 0.232682 0.425408
-0.111405 -0.217527 0.365221
-0.119479 -0.228734 0.434551
-0.040284 -0.189557 -1.054006
-0.030115 -0.209695 -0.579742
-0.029412 -0.185933 -0.496653
-0.073482 -0.076333 -1.122570
-0.077934 -0.135854 -1.018730
-0.057544 -0.133940 -0.501123
-0.114596 -0.133140 0.527140
-0.091275 -0.077481 -1.048103
-0.072481 -0.074523 -0.519525
0.023177 -0.007705 0.243431
-0.127247 -0.040531 0.552521
-0.095228 -0.003429 -1.080223
-0.071439 0.002456 -0.518390
-0.076413 0.050034 -1.131605
-0.071958 0.038602 0.542812
-0.087329 0.082116 -1.038839
-0.069762 0.067151 -0.499009
0.036590 0.071671 0.245845
-0.045031 0.151260 -1.119131
-0.065472 0.166591 -1.050383
-0.048143 0.134413 -0.498697
-0.031717 0.190405 -0.530128
-0.125130 0.228355 0.430790
0.059171 -0.246907 -0.955890
0.048295 -0.242960 -0.625498
0.068564 -0.223700 0.337373
0.101419 -0.244269 0.405960
0.023953 -0.231693 -0.525018
-0.031768 -0.164561 -1.112604
0.025294 -0.198963 -0.450244
0.032390 -0.163079 -0.353099
0.064361 -0.147711 0.109810
-0.030714 -0.089152 -1.148017
-0.006183 -0.137645 -0.411653
0.008093 -0.104656 -0.337078
0.033357 -0.053956 0.091624
0.030698 -0.177257 0.301899
0.121342 -0.140436 0.527693
-0.034697 -0.050408 -0.419798
-0.008101 -0.006601 -0.341793
0.077744 -0.028586 0.545347
-0.031249 0.029186 -1.157302
-0.033859 0.045396 -0.420495
0.039067 0.056581 0.103943
-0.000137 0.074535 -0.359525
-0.043670 0.118300 -1.148097
-0.002906 0.123056 -0.402597
0.028582 0.159023 -0.342798
0.077265 0.169305 0.105727
0.019814 0.157655 0.293844
-0.032290 0.201869 -1.051053
0.020510 0.192742 -0.431963
-0.000080 0.230484 -0.585623
0.036490 0.232348 -0.515963
0.053597 0.210971 0.331659
0.108626 0.235891 0.426854
0.045733 0.248572 -0.935753
0.053897 0.242788 -0.592240
0.038842 -0.225149 -1.066714
0.080920 -0.244964 -0.850486
0.102806 -0.234503 -0.446820
0.116198 -0.229227 0.039585
0.116321 -0.200915 -0.794396
0.125554 -0.215123 -0.631915
0.086514 -0.217170 0.032644
0.116625 -0.216550 0.105069
0.116723 -0.215341 0.471561
0.017776 -0.175799 -1.118616
0.104643 -0.177812 0.261944
0.113144 -0.156150 -1.107786
0.126759 -0.194829 0.188823
0.066302 -0.077696 0.223400
0.039168 -0.073964 0.254454
0.107171 -0.032833 -1.156376
0.047539 -0.000084 0.212884
0.055599 0.078076 0.203719
0.096590 0.147911 -1.117711
0.109280 0.178435 0.192086
0.115021 0.195290 0.269592
0.032964 0.209720 -1.095127
0.046952 0.238550 -1.046734
0.120651 0.208206 -0.838280
0.118378 0.214505 -0.671448
0.056607 0.203038 -0.341962
0.133541 0.227132 0.049077
0.114534 0.212497 0.124513
0.099891 0.238029 -0.969032
0.081962 0.244184 -0.890112
0.116634 0.234947 -0.473732
0.109036 -0.227850 -1.041589
0.107729 -0.228057 -0.891369
0.115045 -0.240240 -0.562749
0.192429 -0.248387 0.362383
0.189736 -0.243692 0.438822
0.164254 -0.196885 -0.979039
0.187604 -0.190801 -0.579504
0.162228 -0.215262 0.129192
0.117992 -0.215473 0.299493
0.194974 -0.229187 0.278264
0.192508 -0.170348 -1.037722
0.184043 -0.107920 -0.682632
0.173845 -0.141442 -0.878800
0.169124 -0.112578 -0.804166
0.167911 -0.069444 -1.124043
0.221759 -0.126161 0.578027
0.196301 -0.057056 -0.833639
0.208942 0.003306 -0.658385
0.194541 -0.010490 0.584894
0.170725 0.033193 -1.127383
0.194654 0.038086 -0.801450
0.119674 0.043455 -1.155880
0.129685 0.045855 0.557094
0.192128 0.101077 -0.662911
0.154752 0.149777 -0.796845
0.113042 0.161976 0.522975
0.214701 0.105673 0.584921
0.187121 0.136900 -0.886700
0.192443 0.171553 -1.040365
0.153436 0.185268 -0.886324
0.117719 0.218426 -1.052558
0.178808 0.188044 -0.978542
0.109319 0.238978 -0.568745
0.178643 0.199862 -0.573015
0.163086 0.222956 0.120065
0.178397 0.246497 0.353012
0.207528 0.248477 0.422126
0.178258 -0.220616 -0.516136
0.173778 -0.211567 0.033233
0.210742 -0.189941 0.114387
0.202743 -0.212612 0.192945
0.198863 -0.198977 0.508624
0.229630 -0.102119 -0.980878
0.229459 -0.160786 -0.504837
0.232496 -0.147478 0.044699
0.268207 -0.171086 0.198965
0.266520 -0.151114 0.573028
0.213953 -0.120049 -1.058310
0.234596 -0.118630 -0.569374
0.261040 -0.121289 0.124296
0.259492 -0.077528 -0.505619
0.240740 -0.037680 -1.042108
0.246289 -0.042796 -0.578061
0.282887 -0.044720 0.104965
0.248928 0.002153 -0.966816
0.267681 0.000206 -0.509507
0.247673 0.044020 -1.031208
0.246497 0.039083 -0.580491
0.284273 0.016038 0.101863
0.231180 0.104685 -0.979389
0.260275 0.075704 -0.495280
0.273914 0.080725 0.117455
0.214738 0.117364 -1.058165
0.236144 0.110398 -0.572992
0.229459 0.160066 -0.508796
0.217631 0.178256 0.029660
0.208124 0.200056 0.119719
0.193427 0.212847 0.195195
0.269025 0.177767 0.206702
0.201020 0.222870 0.485494
0.251422 0.154950 0.567462
0.190390 0.212434 -0.510753
0.179332 0.219216 0.025646
0.213751 0.231560 0.279302
0.264657 -0.213359 0.265881
0.274126 -0.220303 0.352625
0.246824 -0.224022 0.462431
0.312435 -0.159167 0.273663
0.315841 -0.126231 0.561288
0.342163 -0.121242 0.461702
0.287569 -0.072773 0.606828
0.314506 -0.077037 0.196970
0.348526 -0.050033 0.268989
0.321947 0.013032 0.194896
0.301735 0.066172 0.610471
0.293223 0.117063 0.187644
0.327054 0.115689 0.278332
0.330199 0.110895 0.573128
0.305645 0.192574 0.383991
0.267890 0.209975 0.473406
0.268933 0.205859 0.267528
0.253289 0.235631 0.356411
0.338731 -0.036853 0.568931
0.355246 0.022715 0.288017
0.345901 0.070250 0.579663
3 2 1 9
3 3 2 9
3 5 0 13
3 6 0 5
3 0 7 13
3 8 7 0
3 1 8 0
3 1 6 15
3 0 6 1
3 9 1 15
3 2 8 1
3 8 2 10
3 16 9 15
3 3 9 16
3 3 10 2
3 12 3 16
3 4 3 12
3 11 10 3
3 4 11 3
3 12 17 4
3 4 17 11
3 20 13 19
3 19 13 14
3 13 20 5
3 20 6 5
3 14 13 7
3 7 22 14
3 20 23 6
3 22 7 8
3 23 15 6
3 22 8 24
3 23 25 15
3 24 8 10
3 25 16 15
3 25 26 16
3 24 10 27
3 26 12 16
3 26 28 12
3 27 10 18
3 18 10 11
3 28 17 12
3 17 18 11
3 28 30 17
3 17 30 18
3 32 20 19
3 32 21 20
3 19 14 32
3 21 34 20
3 33 14 22
3 34 23 20
3 34 37 23
3 36 22 24
3 37 25 23
3 36 24 38
3 37 39 25
3 39 26 25
3 40 24 27
3 39 41 26
3 41 28 26
3 41 29 28
3 29 31 30
3 29 30 28
3 31 18 30
3 32 45 21
3 21 45 44
3 32 33 45
3 32 14 33
3 44 35 21
3 35 34 21
3 33 22 36
3 34 35 37
3 39 37 50
3 38 24 40
3 42 39 50
3 39 42 41
3 40 27 18
3 42 29 41
3 40 18 52
3 42 53 29
3 18 31 52
3 43 31 29
3 43 29 53
3 43 52 31
3 44 54 47
3 46 54 45
3 54 44 45
3 45 33 46
3 35 47 56
3 44 47 35
3 48 46 33
3 33 36 48
3 49 37 56
3 56 37 35
3 48 36 57
3 57 36 38
3 37 49 50
3 57 38 40
3 50 58 42
3 57 40 51
3 42 58 59
3 52 61 51
3 40 52 51
3 59 60 42
3 42 60 53
3 61 52 43
3 65 53 60
3 43 65 64
3 43 53 65
3 47 54 66
3 54 67 66
3 46 67 54
3 46 55 67
3 66 56 47
3 55 46 74
3 46 48 74
3 77 49 56
3 78 74 48
3 57 78 48
3 82 78 57
3 85 58 50
3 61 82 57
3 51 61 57
3 60 59 63
3 62 43 64
3 62 64 90
3 62 61 43
3 63 65 60
3 63 90 65
3 90 64 65
3 93 66 94
3 66 67 94
3 100 71 96
3 96 71 68
3 71 72 68
3 68 72 69
3 69 72 73
3 69 73 70
3 104 56 66
3 74 105 55
3 72 71 75
3 72 75 76
3 72 76 73
3 73 76 106
3 105 74 108
3 108 74 78
3 75 71 79
3 75 79 80
3 75 80 76
3 76 80 106
3 109 71 100
3 81 71 109
3 71 81 79
3 106 80 110
3 77 50 49
3 108 78 82
3 79 81 83
3 79 83 80
3 80 83 84
3 80 84 110
3 77 85 50
3 113 81 109
3 86 81 113
3 81 86 83
3 110 84 88
3 83 86 87
3 83 87 88
3 83 88 84
3 117 59 58
3 88 87 89
3 86 118 87
3 118 89 87
3 117 122 59
3 122 63 59
3 123 62 90
3 63 123 90
3 126 68 91
3 91 68 69
3 91 69 92
3 92 69 95
3 67 134 94
3 68 126 96
3 126 135 96
3 70 95 69
3 95 70 97
3 98 99 132
3 93 104 66
3 134 67 55
3 100 135 137
3 96 135 100
3 101 97 70
3 73 101 70
3 97 101 98
3 98 101 102
3 98 102 99
3 99 102 103
3 105 134 55
3 137 141 100
3 106 101 73
3 101 106 102
3 102 106 107
3 102 107 103
3 99 103 142
3 140 77 56
3 104 140 56
3 141 109 100
3 106 110 107
3 103 107 111
3 142 111 143
3 103 111 142
3 107 110 112
3 107 112 111
3 88 114 110
3 110 114 112
3 143 111 116
3 112 114 115
3 112 115 111
3 111 115 116
3 85 117 58
3 144 86 113
3 86 144 147
3 119 114 88
3 89 119 88
3 114 119 115
3 118 86 147
3 89 118 120
3 121 89 120
3 89 121 119
3 147 148 118
3 148 124 118
3 118 124 120
3 120 124 125
3 121 120 125
3 122 123 63
3 92 127 91
3 126 91 157
3 91 127 158
3 158 127 130
3 127 92 130
3 92 131 130
3 159 131 92
3 128 159 95
3 92 95 159
3 95 97 128
3 128 97 98
3 128 98 132
3 128 132 129
3 129 132 133
3 93 160 165
3 160 93 94
3 157 137 126
3 137 135 126
3 99 133 132
3 99 138 133
3 136 104 165
3 165 104 93
3 139 138 99
3 138 139 136
3 136 139 140
3 136 140 104
3 142 139 99
3 139 142 77
3 140 139 77
3 178 109 141
3 179 108 82
3 142 143 85
3 77 142 85
3 178 144 109
3 144 113 109
3 179 82 182
3 182 82 61
3 145 143 116
3 143 145 85
3 85 145 146
3 85 146 117
3 61 62 182
3 144 187 147
3 151 115 119
3 116 115 151
3 152 116 151
3 153 116 152
3 153 145 116
3 117 146 122
3 182 62 123
3 187 148 147
3 154 148 187
3 154 149 155
3 149 150 155
3 150 189 125
3 121 125 189
3 156 121 189
3 121 156 119
3 119 156 151
3 151 156 152
3 192 122 146
3 192 123 122
3 154 124 148
3 155 124 154
3 150 124 155
3 125 124 150
3 162 157 91
3 158 162 91
3 159 163 131
3 159 194 163
3 159 128 194
3 194 128 195
3 128 129 195
3 195 133 164
3 195 129 133
3 160 166 165
3 94 161 160
3 94 134 161
3 134 198 161
3 137 157 167
3 162 167 157
3 168 130 131
3 131 163 168
3 195 164 196
3 164 133 138
3 164 138 197
3 164 197 196
3 166 138 136
3 197 138 166
3 166 136 165
3 137 167 204
3 169 162 158
3 158 130 169
3 130 170 169
3 130 168 170
3 105 198 134
3 105 172 198
3 137 204 171
3 141 137 171
3 173 169 170
3 170 168 173
3 175 172 105
3 108 175 105
3 176 141 171
3 168 177 173
3 168 174 177
3 178 141 176
3 179 175 108
3 177 174 180
3 144 178 176
3 181 184 177
3 177 180 181
3 183 175 179
3 182 183 179
3 176 219 144
3 144 219 185
3 186 188 184
3 184 181 186
3 180 150 181
3 180 190 150
3 187 144 185
3 185 188 187
3 149 186 181
3 150 149 181
3 229 223 191
3 191 223 224
3 191 224 145
3 191 145 153
3 224 146 145
3 226 182 123
3 154 187 188
3 186 154 188
3 186 149 154
3 190 189 150
3 190 156 189
3 190 228 156
3 228 229 156
3 156 229 152
3 191 153 152
3 229 191 152
3 224 230 146
3 230 192 146
3 193 123 192
3 193 226 123
3 166 231 197
3 160 232 166
3 166 232 231
3 160 161 233
3 232 160 233
3 161 198 233
3 162 199 167
3 194 200 163
3 194 195 200
3 195 201 200
3 196 201 195
3 202 196 197
3 202 197 231
3 203 233 198
3 167 199 204
3 162 169 199
3 168 163 205
3 163 200 205
3 196 206 201
3 202 206 196
3 172 203 198
3 203 172 237
3 200 207 205
3 200 201 207
3 171 204 208
3 204 199 208
3 169 173 199
3 209 168 205
3 174 168 209
3 205 207 209
3 201 210 207
3 201 206 210
3 237 172 175
3 176 171 208
3 199 211 208
3 199 173 211
3 207 212 209
3 207 210 212
3 213 176 208
3 208 211 213
3 173 177 211
3 214 174 209
3 209 212 214
3 212 210 215
3 237 175 241
3 211 216 213
3 211 177 216
3 180 174 214
3 212 217 214
3 212 215 217
3 215 218 217
3 219 176 213
3 213 216 219
3 177 184 216
3 220 180 214
3 214 217 220
3 241 175 183
3 217 221 220
3 217 222 221
3 217 218 222
3 218 223 222
3 218 242 223
3 185 219 216
3 184 188 216
3 190 180 220
3 220 221 190
3 242 225 223
3 182 227 183
3 183 227 241
3 216 188 185
3 190 221 228
3 221 229 228
3 221 222 229
3 229 222 223
3 224 223 225
3 224 225 247
3 182 226 227
3 226 246 227
3 247 230 224
3 192 230 248
3 248 230 247
3 248 246 193
3 192 248 193
3 246 226 193
3 202 231 234
3 231 232 234
3 235 232 233
3 203 235 233
3 232 236 234
3 232 235 236
3 203 237 235
3 206 202 238
3 202 234 238
3 234 239 238
3 234 236 239
3 210 206 238
3 239 236 249
3 236 235 249
3 235 237 249
3 240 210 238
3 238 239 240
3 215 210 240
3 239 250 240
3 249 237 241
3 218 215 240
3 249 241 251
3 242 218 240
3 250 243 240
3 240 243 242
3 250 251 243
3 243 251 244
3 251 241 244
3 243 244 245
3 225 242 243
3 241 227 244
3 247 225 243
3 243 245 247
3 245 248 247
3 245 246 248
3 246 245 244
3 227 246 244
3 239 249 250
3 249 251 250
