ply
format ascii 1.0
element vertex 252
property float x
property float y
property float z
element face 500
property list uchar int vertex_indices
end_header
-0.425046 -0.085780 -0.980230
-0.442074 -0.032000 -0.892209
-0.415275 0.014765 -1.032008
-0.449468 0.037825 -0.960568
-0.436724 0.068070 -0.884221
-0.346281 -0.203586 -0.951909
-0.347874 -0.213768 -0.886088
-0.395033 -0.157974 -0.888412
-0.335655 -0.192757 -0.817853
-0.343882 -0.115319 -1.036193
-0.369845 -0.076460 -0.749592
-0.413562 0.028773 -0.810767
-0.358145 0.062765 -0.716858
-0.333532 0.015934 -0.650524
-0.412286 0.124574 -0.985231
-0.337006 0.126510 -1.039559
-0.405076 0.155857 -0.915930
-0.357336 0.166475 -0.827246
-0.344383 0.205755 -0.945273
-0.346204 0.214777 -0.882009
-0.271153 -0.195200 -0.739582
-0.258297 -0.191624 -0.649479
-0.318054 -0.116146 -0.670475
-0.352089 0.028017 -1.073413
-0.316450 0.110994 -0.662701
-0.271456 0.197285 -0.747606
-0.251690 0.196041 -0.666478
-0.292185 -0.194855 -0.983764
-0.273887 -0.205768 -0.873189
-0.187741 -0.216797 -0.719070
-0.214577 -0.223442 -0.670437
-0.189364 -0.217634 -0.594759
-0.216380 -0.131132 -0.972250
-0.190802 -0.126456 -0.888583
-0.201053 -0.183164 -0.808992
-0.266255 -0.122013 -0.579382
-0.185887 -0.184646 -0.510725
-0.258977 -0.121843 -1.032678
-0.242178 -0.078092 -0.497133
-0.207686 -0.035667 -1.031229
-0.274825 0.028957 -1.069513
-0.282567 -0.007907 -0.556548
-0.261690 0.013860 -0.514278
-0.215365 -0.010474 -0.425601
-0.213677 0.045244 -1.037723
-0.283306 0.085378 -0.582829
-0.237894 0.097654 -0.502998
-0.262027 0.122651 -1.039511
-0.207500 0.110922 -0.971318
-0.209589 0.193407 -0.819258
-0.190427 0.203728 -0.577509
-0.291036 0.221885 -0.852209
-0.187187 0.184414 -0.489546
-0.279491 0.194894 -0.963547
-0.203934 0.219489 -0.713135
-0.202697 0.226014 -0.659955
-0.112185 -0.223005 -0.566691
-0.079347 -0.171774 -0.674849
-0.107926 -0.204829 -0.446519
-0.107909 -0.180550 -0.356977
-0.087413 -0.166110 0.520808
-0.124552 -0.153317 0.558227
-0.182893 -0.129373 -0.414552
-0.167984 -0.084848 -0.345547
-0.149871 -0.081718 0.498549
-0.158615 -0.069081 0.564468
-0.148232 -0.093888 -0.828396
-0.110750 -0.121950 -0.275832
-0.182872 -0.011517 -0.970152
-0.166057 -0.027118 -0.888130
-0.133662 -0.013597 -0.269586
-0.132917 0.035175 -0.818795
-0.167340 0.050851 -0.341871
-0.175618 0.077726 -0.891093
-0.154996 0.069183 0.491575
-0.149080 0.067814 0.568926
-0.175054 0.140641 -0.418614
-0.105868 0.112906 -0.273371
-0.173584 0.153410 -0.817084
-0.104904 0.185447 -0.363227
-0.083445 0.166312 -0.667112
-0.113107 0.159739 0.523665
-0.108195 0.148297 0.573935
-0.135408 -0.229078 -0.638763
-0.038510 -0.213903 -0.346092
-0.024855 -0.198678 -0.280514
-0.102486 -0.082561 0.468114
-0.120073 -0.074322 0.611079
-0.059192 -0.051633 -0.727446
-0.025037 -0.162062 -0.188237
-0.032871 -0.089801 -0.117798
-0.060799 0.034183 -0.727204
-0.116679 0.035096 0.457386
-0.121511 0.063378 0.611347
-0.038490 0.031703 -0.113669
-0.094924 0.125914 0.473195
-0.110579 0.207766 -0.456090
-0.028622 0.200893 -0.284032
-0.125453 0.224235 -0.641354
-0.084376 0.217348 -0.579871
-0.043121 0.214669 -0.350588
-0.025270 -0.176824 -0.499497
-0.055627 -0.212922 -0.403405
0.045388 -0.203863 0.533858
-0.053803 -0.182550 0.581559
0.030932 -0.213959 0.580123
-0.000896 -0.203110 -0.356626
0.045481 -0.200183 -0.190437
0.050103 -0.188039 -0.098599
0.055829 -0.163827 0.027213
0.039164 -0.170949 0.647821
-0.018194 -0.099658 -0.639692
0.051278 -0.110662 -0.411069
0.102841 -0.121041 0.483151
0.031065 -0.049784 -0.511426
0.019552 -0.061159 0.036083
-0.044807 -0.082498 0.654401
0.095457 -0.026931 0.462251
-0.015841 0.004339 -0.648341
0.018391 0.047182 -0.530245
0.014356 0.029082 0.027502
-0.049734 0.078107 0.648131
-0.024343 0.169875 -0.496163
-0.019313 0.162116 -0.182426
0.003107 0.135469 -0.096973
0.066019 0.161521 0.017590
0.062798 0.127626 0.682140
0.049429 0.120703 -0.396061
-0.044956 0.205219 -0.411474
0.039899 0.187052 -0.118841
0.018194 0.209154 0.535181
-0.043282 0.189136 0.576169
0.027454 0.169194 0.648047
0.050843 0.214774 0.592711
0.046783 -0.191154 -0.272266
0.123728 -0.216100 -0.048428
0.130204 -0.213971 0.031074
0.103278 -0.165687 0.114957
0.128639 -0.142721 0.197111
0.102840 -0.083812 -0.315511
0.092956 -0.030772 0.192518
0.062895 -0.081381 0.693668
0.054918 0.014755 0.113090
0.062124 0.004959 -0.433459
0.115873 0.018895 -0.317791
0.037123 0.035400 0.691721
0.128332 0.129194 0.205765
0.094854 0.139125 -0.285976
0.120213 0.181004 0.117715
0.013313 0.196767 -0.336105
0.044881 0.200988 -0.258676
0.041137 0.201743 -0.193831
0.114724 0.212074 -0.041018
0.142532 0.213815 0.036167
0.093106 -0.211820 0.581376
0.097413 -0.181622 -0.198785
0.116294 -0.188636 -0.126085
0.167189 -0.196440 -0.030311
0.172663 -0.200919 0.188780
0.126647 -0.184155 0.523861
0.201131 -0.191053 0.576018
0.123043 -0.189689 0.650364
0.161598 -0.070357 -0.189756
0.192620 -0.095340 -0.114091
0.195130 -0.170727 0.271199
0.196738 -0.125336 0.511808
0.135072 -0.149421 0.689747
0.128274 -0.053220 0.257898
0.203868 -0.122057 0.351211
0.166722 0.002627 0.350274
0.212592 -0.075068 0.429404
0.212230 -0.008959 0.503950
0.200783 0.024278 -0.123435
0.194956 -0.000712 0.426447
0.154332 0.084613 -0.197770
0.123267 0.035937 0.256801
0.103207 0.080868 0.482181
0.208049 0.069286 0.430328
0.173526 0.119264 0.310279
0.126981 0.181121 -0.119309
0.101229 0.181548 -0.198781
0.098501 0.191049 0.521958
0.115343 0.200306 0.630369
0.174653 0.200584 0.192352
0.111783 0.216763 0.570238
0.210644 -0.191898 0.044002
0.187032 -0.219109 0.114854
0.320241 -0.205988 0.646453
0.270414 -0.197379 0.349330
0.280442 -0.177783 0.421641
0.237919 -0.066434 -0.035108
0.277237 -0.081852 0.036617
0.238280 -0.124503 0.505820
0.214462 -0.008245 0.502233
0.276474 0.032673 0.026877
0.225070 0.096239 -0.041552
0.241506 0.113455 0.504158
0.201573 0.183187 0.571394
0.214301 0.186409 0.042843
0.209793 0.189926 0.280177
0.163430 0.206819 -0.023585
0.190773 0.214720 0.114472
0.268720 0.176496 0.407624
0.330043 0.210818 0.635916
0.264995 -0.196458 0.136807
0.264679 -0.207830 0.255273
0.296844 -0.209625 0.577136
0.342383 -0.159998 0.239001
0.346463 -0.213173 0.490864
0.307822 -0.128200 0.120398
0.355940 -0.059783 0.179717
0.438336 -0.137727 0.695033
0.320755 -0.047881 0.102308
0.423416 -0.049502 0.718478
0.315066 0.083549 0.123702
0.432939 0.036034 0.715471
0.364620 0.072436 0.206417
0.405222 0.131192 0.698227
0.337301 0.158437 0.239113
0.290247 0.208582 0.579057
0.347795 0.210024 0.494208
0.259318 0.191881 0.133293
0.259898 0.208818 0.250628
0.279926 0.208548 0.349156
0.374579 -0.232121 0.588154
0.340392 -0.200902 0.379457
0.418104 -0.141481 0.356792
0.416598 -0.185209 0.433931
0.431025 -0.083417 0.329655
0.431336 0.017822 0.312167
0.426094 0.107614 0.338707
0.404162 0.163381 0.361387
0.341268 0.199522 0.380139
0.427689 0.170220 0.427381
0.449320 0.179555 0.666787
0.418738 0.218694 0.517881
0.368165 0.235529 0.576281
0.411849 -0.222757 0.515196
0.434751 -0.218947 0.585618
0.426366 -0.198015 0.658195
0.485067 -0.146869 0.502065
0.493164 -0.123688 0.637048
0.465753 -0.097997 0.407459
0.475404 0.045601 0.407448
0.487355 0.145995 0.519485
0.501550 0.150334 0.646308
0.427864 0.221083 0.597534
0.527532 -0.089747 0.529706
0.491071 -0.025632 0.702639
0.522392 -0.017411 0.506537
0.529232 0.056561 0.647941
0.499611 0.095268 0.689522
3 0 1 7
3 2 3 0
3 0 3 1
3 14 3 2
3 1 3 4
3 1 4 11
3 3 16 4
3 14 16 3
3 6 5 7
3 6 7 8
3 9 0 5
3 7 5 0
3 7 1 10
3 7 10 8
3 9 23 2
3 9 2 0
3 11 10 1
3 10 11 12
3 10 12 13
3 2 23 15
3 2 15 14
3 17 11 4
3 12 11 17
3 4 16 17
3 12 17 25
3 18 14 15
3 14 18 16
3 16 18 19
3 17 16 19
3 27 5 28
3 5 6 28
3 27 9 5
3 28 6 8
3 20 28 8
3 27 37 9
3 21 20 22
3 21 22 35
3 10 20 8
3 20 10 22
3 37 40 9
3 40 23 9
3 22 10 13
3 13 35 22
3 13 41 35
3 45 41 13
3 13 12 24
3 13 24 45
3 40 15 23
3 47 15 40
3 12 25 24
3 24 25 26
3 24 26 45
3 47 53 15
3 53 18 15
3 17 19 51
3 17 51 25
3 53 51 18
3 18 51 19
3 27 28 32
3 28 33 32
3 34 33 28
3 34 20 29
3 34 28 20
3 30 29 20
3 21 30 20
3 21 35 31
3 21 31 30
3 37 27 32
3 31 35 36
3 36 35 38
3 36 38 62
3 37 32 39
3 62 38 43
3 40 37 39
3 35 41 38
3 38 41 42
3 38 42 43
3 44 40 39
3 41 45 42
3 42 45 46
3 43 42 46
3 47 40 44
3 44 48 47
3 43 46 76
3 48 73 49
3 73 78 49
3 45 50 46
3 26 50 45
3 46 50 52
3 46 52 76
3 53 47 48
3 48 49 53
3 49 51 53
3 49 25 51
3 49 54 25
3 26 25 54
3 55 26 54
3 26 55 50
3 29 30 83
3 56 83 31
3 31 83 30
3 56 31 36
3 56 36 58
3 34 29 57
3 29 83 57
3 62 58 36
3 58 62 59
3 59 62 63
3 59 63 67
3 64 60 86
3 60 64 61
3 61 64 65
3 61 65 87
3 34 66 33
3 57 88 66
3 34 57 66
3 39 32 68
3 32 33 68
3 33 69 68
3 33 66 69
3 62 43 63
3 67 63 70
3 66 71 69
3 66 88 71
3 43 72 63
3 63 72 70
3 44 39 68
3 69 73 68
3 69 71 73
3 88 91 71
3 92 64 86
3 74 64 92
3 64 74 65
3 65 74 75
3 87 75 93
3 65 75 87
3 48 44 68
3 68 73 48
3 91 80 71
3 43 76 72
3 70 72 77
3 95 74 92
3 93 75 82
3 73 71 78
3 71 80 78
3 72 76 79
3 77 72 79
3 78 80 49
3 81 74 95
3 74 81 75
3 75 81 82
3 54 49 80
3 80 98 54
3 52 96 76
3 96 79 76
3 98 55 54
3 98 50 55
3 50 99 96
3 50 96 52
3 98 99 50
3 57 83 56
3 56 58 101
3 101 58 102
3 84 102 59
3 59 102 58
3 84 59 85
3 103 60 104
3 60 61 104
3 67 85 59
3 85 67 89
3 103 113 60
3 113 86 60
3 104 61 87
3 104 87 116
3 90 89 67
3 70 90 67
3 113 117 86
3 117 92 86
3 116 87 121
3 121 87 93
3 94 90 70
3 77 94 70
3 121 93 82
3 77 123 94
3 79 97 77
3 77 97 123
3 130 81 95
3 121 82 131
3 98 80 99
3 99 122 96
3 96 122 128
3 128 100 79
3 128 79 96
3 79 100 97
3 130 131 81
3 81 131 82
3 101 57 56
3 106 101 102
3 102 84 106
3 84 85 106
3 106 85 134
3 107 134 85
3 105 103 104
3 105 104 110
3 88 57 111
3 57 101 111
3 106 112 101
3 89 107 85
3 107 89 108
3 101 114 111
3 112 114 101
3 89 90 108
3 108 90 109
3 109 90 115
3 109 115 137
3 116 110 104
3 110 116 141
3 137 115 142
3 112 143 114
3 141 116 145
3 118 88 111
3 91 88 118
3 111 114 118
3 114 119 118
3 114 143 119
3 90 94 115
3 115 94 120
3 115 120 142
3 116 121 145
3 80 91 118
3 118 119 80
3 119 122 80
3 143 127 122
3 119 143 122
3 94 124 120
3 120 124 125
3 120 125 142
3 121 126 145
3 94 123 124
3 127 128 122
3 127 149 128
3 124 123 129
3 124 129 125
3 132 126 121
3 131 132 121
3 122 99 80
3 128 149 100
3 97 100 149
3 97 149 150
3 97 151 123
3 97 150 151
3 151 129 123
3 130 133 131
3 131 133 132
3 105 154 103
3 134 107 155
3 155 107 156
3 107 108 156
3 135 156 108
3 136 135 108
3 109 136 108
3 109 137 136
3 103 159 113
3 154 159 103
3 154 105 110
3 161 154 110
3 106 134 112
3 161 110 166
3 112 134 139
3 134 155 139
3 138 137 140
3 138 140 167
3 166 110 141
3 137 142 140
3 112 139 143
3 139 144 143
3 167 140 175
3 176 92 117
3 143 144 127
3 140 142 146
3 140 146 175
3 125 148 142
3 142 148 146
3 176 95 92
3 144 147 127
3 127 147 149
3 176 181 95
3 181 130 95
3 182 126 132
3 150 149 147
3 180 150 147
3 180 151 150
3 180 179 151
3 151 179 129
3 179 152 129
3 125 129 152
3 153 125 152
3 153 148 125
3 130 181 184
3 133 184 182
3 132 133 182
3 184 133 130
3 136 157 135
3 156 135 157
3 157 136 185
3 136 137 186
3 136 186 185
3 186 137 158
3 137 138 158
3 158 138 164
3 159 154 160
3 160 154 161
3 160 161 187
3 155 156 162
3 156 163 162
3 156 157 163
3 165 113 159
3 159 160 165
3 187 161 166
3 139 155 162
3 167 164 138
3 164 167 168
3 168 167 169
3 168 169 170
3 171 113 165
3 171 117 113
3 139 162 144
3 163 172 162
3 170 169 173
3 173 193 170
3 162 174 144
3 162 172 174
3 167 175 169
3 171 176 117
3 173 169 177
3 173 177 193
3 144 174 147
3 146 178 175
3 175 178 169
3 177 169 178
3 171 197 176
3 172 179 174
3 180 147 174
3 174 179 180
3 146 199 178
3 176 197 181
3 203 126 182
3 179 200 152
3 200 198 153
3 152 200 153
3 153 198 201
3 153 201 148
3 183 148 201
3 183 146 148
3 146 183 199
3 181 197 184
3 184 197 182
3 182 197 203
3 185 186 204
3 186 158 205
3 186 205 204
3 158 164 205
3 164 188 205
3 206 160 187
3 204 209 185
3 164 168 188
3 188 168 189
3 189 168 170
3 189 170 192
3 206 192 160
3 192 165 160
3 163 157 190
3 157 185 190
3 185 191 190
3 185 209 191
3 170 193 192
3 192 193 171
3 165 192 171
3 211 166 213
3 213 166 141
3 172 163 190
3 191 194 190
3 195 172 190
3 190 194 195
3 213 141 215
3 215 141 145
3 177 196 193
3 193 196 171
3 171 196 197
3 215 145 217
3 217 145 126
3 179 172 195
3 194 198 195
3 194 214 198
3 196 219 197
3 200 179 195
3 195 198 200
3 214 221 198
3 178 199 202
3 178 202 177
3 177 202 196
3 217 126 203
3 221 201 198
3 183 201 222
3 222 201 221
3 183 222 199
3 199 223 202
3 222 223 199
3 219 203 197
3 208 206 224
3 224 206 187
3 207 204 205
3 207 205 225
3 205 188 225
3 188 189 225
3 208 225 189
3 204 207 209
3 192 208 189
3 206 208 192
3 211 187 166
3 207 210 209
3 191 209 212
3 210 212 209
3 194 191 212
3 214 194 212
3 216 218 214
3 196 220 219
3 214 218 221
3 202 220 196
3 234 217 203
3 222 221 218
3 218 232 222
3 232 223 222
3 223 232 202
3 202 232 220
3 220 236 219
3 219 236 203
3 208 224 237
3 224 238 237
3 224 239 238
3 187 239 224
3 225 226 207
3 227 226 225
3 227 208 237
3 227 225 208
3 187 211 239
3 210 207 228
3 226 228 207
3 228 229 210
3 214 212 210
3 216 214 210
3 210 229 216
3 229 230 216
3 218 216 230
3 230 231 218
3 230 233 231
3 231 232 218
3 233 232 231
3 233 220 232
3 233 235 220
3 235 236 220
3 235 246 236
3 246 203 236
3 234 203 246
3 227 237 240
3 237 238 240
3 239 241 238
3 239 211 241
3 227 242 226
3 227 240 242
3 240 238 241
3 241 211 248
3 226 242 228
3 240 249 242
3 248 211 213
3 242 243 228
3 242 249 243
3 228 243 229
3 248 213 215
3 248 215 251
3 229 243 230
3 249 244 243
3 251 215 217
3 230 243 233
3 243 244 233
3 245 251 234
3 251 217 234
3 235 233 244
3 244 246 235
3 234 246 245
3 246 244 245
3 240 241 247
3 249 240 247
3 247 241 249
3 241 250 249
3 241 248 250
3 248 251 250
3 249 250 244
3 250 245 244
3 250 251 245
