ply
format ascii 1.0
element vertex 248
property float x
property float y
property float z
element face 500
property list uchar int vertex_indices
end_header
-0.560159 -0.165807 0.358479
-0.567603 -0.183594 0.716988
-0.615506 0.008004 0.345719
-0.634133 -0.038439 0.725455
-0.603322 0.127131 0.347716
-0.583872 0.168072 0.712258
-0.436117 -0.285090 0.494752
-0.523024 -0.172137 0.235797
-0.598321 -0.070326 0.792456
-0.492583 -0.070020 0.096387
-0.523940 0.077039 0.157995
-0.599299 0.072495 0.800952
-0.524303 0.193681 0.232216
-0.565892 0.199596 0.382556
-0.480953 0.281797 0.645400
-0.443449 -0.292027 0.611833
-0.409572 -0.276907 0.662538
-0.444229 -0.248992 0.284528
-0.503604 -0.186228 0.760551
-0.425291 -0.183650 0.077411
-0.380676 -0.052761 -0.414077
-0.406141 -0.111622 -0.035727
-0.463987 -0.030049 0.030870
-0.409890 -0.059577 -0.483678
-0.435014 -0.000624 -0.024302
-0.398355 0.109396 -0.454232
-0.499810 0.073230 0.817011
-0.418851 0.094149 -0.498835
-0.443506 0.131392 0.030457
-0.402631 0.116860 -0.048074
-0.509744 0.200349 0.753127
-0.423702 0.229358 0.148751
-0.415098 0.259199 0.377885
-0.296611 -0.273612 0.101292
-0.360466 -0.183961 -0.508445
-0.343245 -0.176407 -0.459365
-0.363143 -0.061188 -0.120301
-0.323693 -0.015847 -0.730737
-0.353116 -0.138475 -0.600228
-0.323555 -0.039254 -0.205470
-0.386882 0.046255 -0.591098
-0.334429 0.114366 -0.157956
-0.326854 0.189988 -0.547176
-0.312006 0.185467 -0.446456
-0.341584 0.219828 -0.047649
-0.283172 0.288663 0.034200
-0.417304 0.299480 0.667987
-0.343680 -0.310943 0.552458
-0.273043 -0.280912 0.460607
-0.300981 -0.223248 -0.098005
-0.326065 -0.230205 0.275030
-0.241207 -0.249779 -0.612025
-0.273214 -0.199121 -0.174557
-0.250940 -0.203348 -0.730291
-0.250574 -0.112928 0.282917
-0.286297 -0.146588 -0.356098
-0.263786 -0.062105 -0.821000
-0.292516 -0.099650 -0.283704
-0.318994 -0.033086 -0.338528
-0.295952 0.103128 -0.265865
0.298617 0.027352 0.812696
-0.240458 0.081313 -0.837095
-0.258376 0.185194 -0.721530
-0.293212 0.138606 -0.357675
0.266443 0.125721 0.772687
-0.274000 0.208729 -0.175570
-0.340583 0.232047 0.250682
-0.293316 0.200922 0.368149
-0.259464 0.276302 0.139810
-0.247632 0.284407 0.482295
-0.351659 0.313435 0.565752
-0.226418 -0.245869 -0.163585
-0.226153 -0.291863 0.114927
-0.154424 -0.264088 -0.611453
-0.233246 -0.235600 0.179917
-0.184676 -0.190848 -0.823227
-0.234467 -0.198383 -0.444737
-0.244094 -0.127125 0.342556
-0.229731 0.035607 0.292751
-0.181544 0.003266 0.352612
0.258974 -0.039087 0.794326
-0.176270 0.202041 -0.824309
-0.218005 0.155228 -0.409747
-0.229808 0.243027 -0.164518
-0.245944 0.209075 0.203829
0.193606 0.240590 0.694345
-0.156506 0.265273 -0.652978
-0.216673 0.231310 -0.541424
-0.108505 -0.326050 0.020890
0.013911 -0.315649 0.556421
-0.132873 -0.277747 -0.726896
-0.149526 -0.185444 0.409111
0.221730 -0.227855 0.671043
-0.182095 -0.166099 -0.444546
-0.185747 -0.175084 -0.337032
-0.201467 -0.028230 -0.887577
-0.160402 -0.085502 -0.370908
-0.162694 -0.000381 0.274025
-0.129764 -0.086006 -0.918822
-0.142269 -0.001595 -0.433606
-0.135784 -0.052384 0.339795
-0.143688 0.038046 -0.360349
-0.135871 0.052443 0.338291
-0.187584 0.162751 -0.326957
-0.160199 0.197205 0.413147
-0.081524 0.193791 -0.565875
-0.110320 0.277056 -0.744432
-0.114680 0.323245 0.015274
0.026519 0.324992 0.574999
-0.081525 -0.299446 -0.075412
-0.021844 -0.306660 0.138346
-0.003424 -0.302247 0.471419
-0.071453 -0.225856 -0.857351
-0.106225 -0.217837 0.205708
-0.030201 -0.080853 -0.948332
-0.046560 -0.215289 0.271345
-0.038783 -0.230861 0.357376
0.034116 -0.061385 -0.194152
-0.035432 -0.102334 -0.522888
-0.001036 0.039883 -0.531847
-0.130590 0.066845 -0.922062
-0.011844 0.091946 -0.953408
0.053807 0.101419 -0.176778
-0.063501 0.218780 -0.879508
-0.053831 0.195078 0.293623
-0.039513 0.224762 0.358056
-0.110274 0.233433 0.210314
-0.054461 0.282686 -0.083507
0.009982 0.322486 0.125252
0.007989 0.303465 0.472435
0.014001 -0.320449 0.035570
-0.031131 -0.283951 -0.675097
0.048193 -0.286856 0.314327
-0.012074 -0.216299 -0.584153
0.063618 -0.194750 -0.104894
0.033008 0.200700 -0.140599
0.021463 0.282414 -0.672831
0.022775 0.270520 0.298446
0.023409 0.327964 0.055919
0.059161 -0.290306 -0.767555
0.195942 -0.245107 -0.010421
0.073510 -0.226650 -0.882418
0.466550 -0.279722 -0.664708
0.489446 -0.120962 -0.547815
0.476270 0.003894 -0.546339
0.488274 0.219900 -0.591100
0.064057 0.229122 -0.897184
0.018803 0.281257 -0.830915
0.088679 0.214385 -0.081960
0.061547 0.304514 -0.751218
0.195723 -0.293406 0.100534
0.135508 -0.283302 0.271791
0.132156 -0.300091 0.430457
0.116558 -0.073408 -0.140350
0.180762 -0.119889 -0.103820
0.200603 0.015383 -0.121576
0.117935 0.069883 -0.140184
0.598063 0.098350 -0.916474
0.201195 0.201819 -0.047911
0.525589 0.277874 -0.647549
0.122263 0.286086 0.305814
0.129428 0.302048 0.102584
0.106101 0.321501 0.513296
0.264547 -0.271231 0.589428
0.423189 -0.290770 -0.804749
0.229987 -0.222359 0.363258
0.518645 -0.232244 -0.885018
0.299805 -0.239037 -0.037417
0.294419 -0.140206 0.274586
0.324550 -0.038600 0.332719
0.254573 -0.114409 -0.113431
0.270331 0.057190 -0.138151
0.218228 0.234901 0.278687
0.200078 0.250443 0.345837
0.524056 0.224243 -0.899028
0.285926 0.224639 -0.049340
0.252183 0.275923 0.581323
0.457841 -0.300780 -0.746068
0.299958 -0.270702 0.020662
0.299479 -0.223630 0.186727
0.339509 -0.224259 0.542767
0.341849 -0.230501 0.618850
0.458140 -0.207413 -0.206312
0.402012 -0.119359 0.663353
0.400658 -0.111112 0.521447
0.335303 -0.004496 0.294850
0.315622 0.050535 0.340465
0.433733 0.083039 -0.293184
0.345943 0.201469 0.528472
0.332887 0.239926 0.172700
0.474484 0.267791 -0.829492
0.293392 0.270908 0.035135
0.289264 0.277238 0.125085
0.348534 0.236564 0.582021
0.418826 0.300875 -0.733082
0.415549 -0.236257 0.058137
0.398273 -0.133208 0.199276
0.570926 -0.135015 -0.931615
0.415974 -0.083952 -0.269900
0.369536 0.020274 0.767491
0.445794 0.188890 -0.218872
0.362386 0.162151 0.654596
0.409682 0.134427 0.185840
0.416526 0.231125 0.070638
0.437974 -0.245378 -0.034789
0.522616 -0.224502 -0.127703
0.520875 -0.176124 -0.356671
0.525616 -0.170245 -0.028762
0.480784 -0.137076 0.113904
0.493825 0.028910 -0.400991
0.440633 -0.033506 0.204549
0.402651 0.031161 0.508718
0.440282 -0.025105 0.648277
0.505929 0.008700 0.113736
0.531948 0.196539 -0.351184
0.535066 0.182752 -0.065773
0.495738 0.144461 0.078734
0.449448 0.233635 -0.077791
0.542923 -0.272626 -0.768768
0.576485 -0.225231 -0.309923
0.538759 -0.227872 -0.571866
0.586106 -0.209039 -0.491162
0.520055 -0.047565 -0.512456
0.566262 -0.020986 -0.974500
0.555660 0.060777 0.003094
0.558482 0.180224 -0.505457
0.573311 0.213498 -0.890049
0.615204 0.237381 -0.393800
0.555149 0.225452 -0.266937
0.615902 0.270438 -0.671814
0.634611 -0.242542 -0.559644
0.590111 -0.208004 -0.885221
0.681011 -0.215047 -0.388355
0.641291 -0.173841 -0.238444
0.764568 -0.045588 -0.737609
0.665665 0.020754 -0.193310
0.620239 0.255086 -0.555225
0.685341 0.234861 -0.415772
0.670685 0.189449 -0.311495
0.693148 0.191749 -0.763034
0.692048 -0.187523 -0.739743
0.745368 -0.180458 -0.458485
0.752559 -0.093575 -0.338918
0.751835 0.069924 -0.327166
0.788724 0.074027 -0.711954
0.736992 0.186142 -0.468008
0.791908 -0.087508 -0.416726
0.797954 0.017442 -0.430785
3 0 2 3
3 0 3 1
3 1 3 8
3 8 3 11
3 2 4 3
3 3 4 5
3 3 5 11
3 13 5 4
3 6 1 15
3 15 1 16
3 6 0 1
3 16 1 18
3 17 7 0
3 18 1 8
3 7 9 10
3 2 0 10
3 10 0 7
3 26 8 11
3 4 2 10
3 10 12 4
3 26 11 30
3 30 11 5
3 12 13 4
3 12 32 13
3 5 13 14
3 5 14 30
3 17 0 6
3 19 7 17
3 21 22 19
3 19 22 9
3 19 9 7
3 21 24 22
3 20 23 25
3 23 27 25
3 9 22 10
3 22 24 28
3 22 28 10
3 24 29 28
3 31 10 28
3 12 10 31
3 32 12 31
3 46 30 14
3 14 13 32
3 6 15 47
3 15 16 47
3 17 6 48
3 47 48 6
3 49 19 33
3 33 19 17
3 17 50 33
3 17 48 50
3 49 21 19
3 34 23 35
3 35 23 20
3 35 20 55
3 36 21 49
3 38 23 34
3 55 20 58
3 21 36 24
3 38 37 40
3 38 40 23
3 23 40 27
3 58 20 63
3 63 20 25
3 39 41 36
3 62 40 37
3 36 41 29
3 24 36 29
3 42 27 40
3 43 63 25
3 64 26 30
3 27 42 25
3 25 42 43
3 28 29 44
3 28 44 31
3 41 44 29
3 45 31 44
3 31 45 68
3 66 31 68
3 66 67 32
3 31 66 32
3 67 69 32
3 32 70 14
3 70 46 14
3 51 34 35
3 74 72 33
3 74 33 50
3 53 38 51
3 38 34 51
3 54 74 50
3 48 77 50
3 49 52 36
3 54 50 77
3 56 37 53
3 53 37 38
3 57 39 52
3 39 36 52
3 55 58 57
3 80 8 26
3 57 58 59
3 57 59 39
3 80 26 60
3 56 61 37
3 58 63 59
3 39 59 41
3 62 37 61
3 40 62 42
3 65 41 59
3 41 65 44
3 66 68 84
3 85 30 46
3 69 70 32
3 71 33 88
3 88 33 72
3 47 89 48
3 47 16 89
3 33 71 49
3 75 53 90
3 90 53 51
3 76 73 51
3 76 51 35
3 49 71 52
3 92 16 18
3 35 55 76
3 91 77 48
3 53 75 56
3 76 55 94
3 76 94 93
3 94 55 71
3 55 57 71
3 52 71 57
3 75 95 56
3 97 74 54
3 91 79 77
3 78 97 54
3 54 77 78
3 77 79 78
3 95 61 56
3 79 67 78
3 66 84 78
3 78 67 66
3 79 104 67
3 61 81 62
3 82 103 63
3 103 83 63
3 83 59 63
3 59 83 65
3 82 43 87
3 82 63 43
3 104 69 67
3 81 106 62
3 106 86 62
3 42 62 86
3 87 42 86
3 42 87 43
3 83 44 65
3 45 44 83
3 83 107 45
3 45 107 68
3 108 70 69
3 108 46 70
3 71 88 109
3 72 110 88
3 48 89 111
3 51 73 90
3 48 111 91
3 90 112 75
3 71 109 94
3 110 72 74
3 113 110 74
3 112 98 75
3 93 73 76
3 98 95 75
3 94 96 93
3 113 74 97
3 100 79 91
3 99 118 93
3 93 96 99
3 96 101 99
3 120 95 98
3 119 118 99
3 100 97 102
3 100 102 79
3 61 95 120
3 105 119 99
3 82 105 99
3 99 101 82
3 120 81 61
3 101 103 82
3 97 78 84
3 102 104 79
3 97 84 126
3 82 87 105
3 86 105 87
3 127 83 103
3 68 128 126
3 84 68 126
3 69 104 129
3 107 83 127
3 128 68 107
3 129 108 69
3 85 46 108
3 109 88 130
3 88 110 130
3 90 73 131
3 73 133 131
3 115 110 113
3 116 91 111
3 112 114 98
3 73 93 133
3 93 118 133
3 116 115 100
3 91 116 100
3 96 94 117
3 97 115 113
3 115 97 100
3 98 114 120
3 114 121 120
3 123 120 121
3 103 101 122
3 97 124 102
3 102 124 125
3 120 123 81
3 126 124 97
3 102 125 104
3 106 81 123
3 105 86 136
3 103 135 127
3 129 104 125
3 106 136 86
3 127 138 107
3 107 138 128
3 134 109 130
3 141 112 139
3 139 112 90
3 139 90 131
3 110 115 132
3 132 116 111
3 142 131 133
3 132 115 116
3 112 141 114
3 94 109 134
3 94 134 117
3 80 18 8
3 144 118 119
3 101 96 117
3 122 101 117
3 145 119 105
3 60 26 64
3 146 123 121
3 135 103 122
3 105 136 145
3 127 135 148
3 124 126 137
3 124 137 125
3 146 147 123
3 147 106 123
3 106 149 136
3 137 126 128
3 137 129 125
3 147 149 106
3 138 127 148
3 130 140 134
3 140 130 150
3 130 110 150
3 150 110 151
3 152 111 89
3 16 92 89
3 151 110 132
3 151 132 152
3 111 152 132
3 153 117 134
3 144 143 118
3 153 156 117
3 156 122 117
3 156 148 122
3 148 135 122
3 137 128 160
3 162 129 160
3 160 129 137
3 161 128 138
3 161 160 128
3 162 108 129
3 152 89 163
3 89 92 163
3 139 164 141
3 151 152 165
3 153 134 154
3 134 140 154
3 92 18 80
3 155 153 154
3 156 153 155
3 155 158 156
3 156 158 148
3 64 30 85
3 148 158 161
3 172 173 160
3 161 138 148
3 161 172 160
3 160 173 162
3 173 176 162
3 162 176 108
3 176 85 108
3 139 177 164
3 139 142 177
3 131 142 139
3 178 140 150
3 166 141 164
3 167 140 178
3 150 151 179
3 165 152 180
3 152 163 180
3 168 179 151
3 151 165 168
3 167 170 140
3 170 154 140
3 165 169 168
3 155 170 171
3 154 170 155
3 144 119 145
3 155 171 158
3 157 146 121
3 171 175 158
3 175 191 158
3 158 191 161
3 190 147 146
3 136 194 159
3 191 192 161
3 172 192 189
3 172 161 192
3 173 188 176
3 190 149 147
3 194 149 190
3 194 136 149
3 180 163 181
3 92 181 163
3 92 183 181
3 167 182 170
3 179 168 196
3 169 165 184
3 165 180 184
3 92 80 183
3 197 114 141
3 185 196 168
3 168 169 185
3 183 80 199
3 169 186 185
3 199 80 60
3 185 186 172
3 186 173 172
3 199 60 64
3 200 175 171
3 187 200 171
3 173 186 188
3 85 201 64
3 176 193 201
3 201 85 176
3 174 190 146
3 176 188 193
3 150 195 178
3 182 167 204
3 167 178 204
3 178 195 204
3 150 179 195
3 197 141 166
3 179 196 195
3 181 183 180
3 143 133 118
3 170 182 198
3 180 183 184
3 210 196 185
3 184 211 169
3 199 212 183
3 170 198 171
3 198 187 171
3 210 185 202
3 169 211 186
3 202 185 172
3 201 212 199
3 64 201 199
3 174 146 157
3 186 211 188
3 188 201 193
3 202 172 189
3 202 189 203
3 145 136 159
3 200 217 175
3 175 217 191
3 203 191 217
3 203 189 192
3 192 191 203
3 164 177 218
3 164 218 166
3 220 142 133
3 205 219 182
3 205 182 204
3 133 143 220
3 207 205 204
3 204 195 207
3 195 196 208
3 206 198 182
3 207 195 208
3 209 206 222
3 206 209 198
3 210 208 196
3 183 212 184
3 213 208 210
3 184 212 211
3 223 121 114
3 198 209 187
3 210 202 213
3 212 201 211
3 209 214 187
3 200 187 214
3 216 213 202
3 201 188 211
3 215 203 217
3 215 216 203
3 202 203 216
3 214 228 200
3 200 228 217
3 194 229 159
3 229 194 190
3 218 177 142
3 166 218 231
3 221 206 219
3 182 219 206
3 231 197 166
3 220 143 221
3 222 221 143
3 206 221 222
3 197 223 114
3 208 213 207
3 144 222 143
3 207 213 224
3 223 157 121
3 225 222 144
3 222 225 209
3 213 216 224
3 226 174 157
3 145 225 144
3 209 225 214
3 224 216 215
3 145 236 225
3 227 214 225
3 215 217 228
3 226 190 174
3 236 145 159
3 227 228 214
3 159 229 236
3 218 142 230
3 230 142 220
3 220 221 230
3 230 221 232
3 232 221 219
3 233 232 219
3 219 205 233
3 233 205 207
3 197 234 223
3 235 233 207
3 224 235 207
3 234 157 223
3 235 224 215
3 157 239 226
3 215 238 235
3 238 215 228
3 226 239 190
3 227 225 236
3 227 236 237
3 238 227 237
3 228 227 238
3 239 229 190
3 218 240 231
3 218 230 240
3 230 241 240
3 232 241 230
3 241 232 242
3 233 242 232
3 197 231 240
3 234 197 240
3 233 235 242
3 242 235 243
3 234 244 157
3 239 157 244
3 238 245 243
3 243 235 238
3 245 238 237
3 239 245 229
3 245 236 229
3 236 245 237
3 240 241 234
3 241 242 246
3 241 246 234
3 234 247 244
3 234 246 247
3 246 242 247
3 242 243 247
3 244 247 245
3 243 245 247
3 244 245 239
