ply
format ascii 1.0
element vertex 248
property float x
property float y
property float z
element face 500
property list uchar int vertex_indices
end_header
-0.462066 -0.162142 -0.731925
-0.487978 -0.131134 -0.359966
-0.460033 -0.160052 0.085688
-0.498031 -0.137748 0.351773
-0.539601 -0.004242 0.336749
-0.514841 -0.024361 -0.378865
-0.492229 0.009618 0.045062
-0.506058 0.015229 0.424773
-0.511225 0.082745 -0.737200
-0.475386 0.145258 -0.343041
-0.461181 0.162896 0.072787
-0.507085 0.132714 0.342663
-0.421761 -0.265946 -0.623676
-0.431001 -0.222158 -0.382206
-0.377266 -0.272893 0.280713
-0.449000 -0.141585 -0.217142
-0.421199 -0.181740 0.421265
-0.426769 -0.142259 -0.842884
-0.446102 -0.017930 -0.854497
-0.453977 -0.121558 -0.065700
-0.473775 -0.003794 -0.178715
-0.395837 -0.056017 0.513075
-0.476958 -0.002132 -0.046638
-0.421301 0.085502 0.490142
-0.457398 0.105084 -0.052153
-0.462690 0.128489 -0.826438
-0.432373 0.161737 -0.178536
-0.476265 0.189137 -0.724952
-0.426568 0.190761 0.415002
-0.381959 0.238487 -0.269667
-0.431776 0.237620 0.303027
-0.439417 0.230839 -0.421543
-0.406998 0.250873 0.121443
-0.368959 -0.281183 -0.697365
-0.281249 -0.320858 0.078990
-0.350891 -0.248904 -0.252694
-0.417300 -0.203301 -0.032431
-0.277348 0.206193 0.526596
-0.385738 0.233498 -0.039631
-0.422383 0.266043 -0.627812
-0.354647 0.273397 -0.686651
-0.303315 0.322393 0.193269
-0.258863 -0.336233 0.245661
-0.358232 -0.283103 -0.577554
-0.270143 -0.309540 -0.136083
-0.241494 -0.292301 0.375606
-0.263648 -0.236979 -0.458866
-0.254956 -0.262071 -0.290253
-0.347125 -0.214402 -0.806561
-0.352396 -0.090873 -0.877376
-0.236856 -0.221606 0.539223
-0.350917 0.060541 -0.881088
-0.294575 0.091217 0.583599
-0.353912 0.205234 -0.808333
-0.341724 0.265778 -0.466641
-0.248076 0.258544 -0.295786
-0.295240 0.316355 0.308859
-0.240056 0.321327 -0.046381
-0.150613 -0.350781 0.034946
-0.236120 -0.284602 -0.730634
-0.222053 -0.255600 -0.617297
-0.191595 -0.165290 -0.398515
-0.187707 -0.198697 0.640570
-0.196307 -0.174464 -0.519117
-0.281178 -0.058646 0.611223
-0.233077 -0.063795 0.665145
-0.235899 0.078517 0.649145
-0.194812 0.142076 -0.518180
-0.259375 0.215552 -0.441878
-0.184378 0.221744 0.594243
-0.247615 0.278428 -0.741416
-0.240538 0.247861 -0.569084
-0.165519 0.274618 -0.659033
-0.115355 -0.348556 0.135618
-0.190222 -0.327364 0.288204
0.024256 -0.315489 0.026603
-0.119296 -0.247740 0.473474
-0.102690 -0.248517 0.618517
0.125898 -0.069816 -0.863416
-0.106932 -0.161730 0.742349
-0.137123 -0.084934 -0.347083
-0.139544 -0.007931 -0.515741
-0.179945 0.014203 -0.425711
-0.130797 0.013012 -0.341051
0.108682 0.044524 -0.885730
-0.197182 0.149514 -0.361058
0.107539 0.115848 -0.863823
-0.113074 0.185971 0.723722
-0.211862 0.275454 0.454286
-0.169281 0.332078 -0.056746
-0.110708 0.248140 0.534812
-0.106326 0.272323 0.349143
-0.186678 0.336486 0.234420
-0.072198 0.335635 0.102784
-0.068528 -0.264583 0.307611
-0.122248 -0.143707 -0.563263
-0.035652 -0.191053 0.520752
-0.133203 0.035147 0.762982
-0.119783 0.208682 -0.598823
0.068812 0.236010 -0.788533
0.090723 0.181390 -0.074740
0.009774 0.193208 0.325774
-0.080382 0.245061 0.673176
-0.021259 0.299626 0.225611
0.048302 0.286845 -0.002138
0.083308 -0.304404 0.108054
0.083592 -0.273588 -0.642479
-0.026543 -0.248229 0.631862
0.013057 -0.178495 -0.572082
0.131621 -0.224101 -0.021671
-0.043251 -0.186229 0.419321
0.015957 -0.206604 0.787483
0.031210 -0.117350 0.344329
-0.028166 -0.126763 0.827411
0.025470 -0.001965 0.387857
0.003395 0.025926 0.471996
-0.042800 0.047212 0.829137
0.046512 0.009882 -0.512533
-0.040429 0.162436 0.426053
-0.017828 0.168999 0.537716
0.017532 0.167351 -0.577815
-0.061350 0.207475 0.756048
0.032568 0.203954 0.792828
-0.011941 0.239640 0.644678
0.133904 0.283637 -0.700777
0.114446 0.282100 -0.652779
0.119804 -0.275713 -0.712590
0.116484 -0.205658 -0.794684
0.058452 -0.211357 0.267038
0.116232 -0.187998 0.644948
0.141206 -0.201066 0.832110
0.054995 -0.060221 0.870135
0.116739 -0.001937 -0.104823
0.109741 -0.046339 0.596429
0.052152 0.091776 0.869712
0.206234 0.166482 -0.471386
0.119596 0.161525 0.632098
0.143190 0.201827 0.828642
0.295746 -0.274008 0.097464
0.153403 -0.234153 0.264178
0.179339 -0.237121 0.730490
0.236945 -0.174818 -0.452926
0.201372 -0.134146 0.448675
0.114557 -0.051172 0.357486
0.225639 -0.091277 -0.825547
0.210160 -0.052085 -0.408234
0.180475 -0.167636 0.634845
0.175021 0.008561 0.561169
0.180359 -0.012858 0.432647
0.224145 0.061830 -0.396519
0.113065 0.119555 0.341595
0.187302 0.114572 0.411028
0.202527 0.051850 -0.848080
0.205501 0.182322 0.591872
0.183104 0.202108 -0.785988
0.150837 0.213430 0.308201
0.157986 0.229401 0.730520
0.189690 0.205264 -0.007346
0.243255 0.280259 0.228722
0.291794 0.280282 0.113052
0.250856 -0.289409 0.197117
0.270484 -0.242107 0.601839
0.198410 -0.176605 -0.022215
0.302586 -0.177572 0.016264
0.260777 -0.251064 0.355226
0.261647 -0.099485 -0.019942
0.199546 0.014690 -0.050671
0.319752 0.014206 -0.016094
0.263621 0.102173 -0.020656
0.329675 0.081647 0.881995
0.335791 0.180754 0.027343
0.260017 0.239124 0.391318
0.292434 0.255741 0.626037
0.340144 0.244524 -0.473224
0.365103 -0.264473 -0.538215
0.348501 -0.278530 0.340389
0.349449 -0.219147 0.802952
0.268523 -0.201935 -0.733429
0.395989 -0.242482 -0.436249
0.347320 -0.126329 -0.732835
0.347231 -0.136618 -0.329029
0.349009 -0.087050 0.882570
0.310555 0.009807 -0.308627
0.300131 0.175108 -0.727087
0.340078 0.153197 -0.351307
0.331368 0.230069 0.761598
0.301851 0.278623 -0.555333
0.344355 0.275450 0.368379
0.315196 0.292482 0.168535
0.397068 -0.281119 0.214810
0.346909 -0.263165 0.677212
0.433492 -0.262118 0.353518
0.426013 -0.227270 0.740405
0.522127 -0.234863 -0.454095
0.436868 -0.224730 -0.335706
0.441668 -0.146184 0.817795
0.485421 -0.163668 -0.145096
0.401375 -0.030953 -0.199658
0.361799 0.019628 -0.739601
0.406676 0.078490 -0.206704
0.525631 0.164345 -0.551768
0.463777 0.216227 -0.292631
0.445085 0.132546 0.819136
0.432815 0.247162 -0.501375
0.436199 0.242799 -0.397013
0.452134 0.248622 0.341593
0.359044 0.269215 0.661903
0.409184 0.241759 0.681979
0.475360 -0.263737 0.129201
0.502083 -0.249422 -0.349892
0.521988 -0.211626 0.261760
0.444417 -0.216599 0.042745
0.556479 -0.236598 0.072298
0.487610 -0.167707 0.683505
0.493292 -0.182851 -0.027777
0.428829 0.008222 -0.027677
0.444488 0.018936 -0.103869
0.444536 0.006514 0.862970
0.509390 -0.051455 0.740287
0.508300 0.071872 0.771274
0.487625 0.179565 -0.080271
0.442530 0.228539 0.043408
0.527361 0.185743 0.286636
0.494179 0.154975 0.684323
0.545441 0.252128 0.037864
0.517435 0.264029 0.130496
0.457289 0.268789 0.203130
0.581290 -0.242814 -0.294451
0.658067 -0.127761 -0.444954
0.585594 0.015587 0.289841
0.548218 -0.042681 0.365649
0.687842 0.037362 -0.441812
0.550996 0.052091 0.377065
0.633166 0.195239 -0.378776
0.512851 0.251953 -0.372996
0.564000 0.243810 -0.224111
0.667361 -0.190895 -0.333592
0.610868 -0.187081 0.221060
0.649917 -0.181554 0.161426
0.691615 0.122431 -0.419121
0.586468 0.199821 0.204494
0.639238 0.196449 0.118536
0.689655 -0.059671 0.191711
0.713037 -0.092707 -0.348644
0.663915 -0.091017 0.236537
0.712893 0.086671 -0.334252
0.691031 0.087169 0.198085
0.670302 0.074987 0.230312
3 3 2 4
3 0 5 1
3 2 6 4
3 3 4 7
3 8 0 18
3 0 8 5
3 5 8 9
3 6 11 4
3 7 4 11
3 6 10 11
3 27 9 8
3 12 1 13
3 2 3 14
3 12 0 1
3 13 1 15
3 19 2 36
3 14 3 16
3 0 17 18
3 15 1 20
3 15 20 19
3 2 19 6
3 16 3 7
3 16 7 21
3 1 5 20
3 19 20 22
3 19 22 6
3 23 21 7
3 5 9 20
3 22 20 24
3 22 24 6
3 25 8 18
3 20 9 26
3 20 26 24
3 6 24 10
3 8 25 27
3 11 28 7
3 7 28 23
3 9 29 26
3 11 10 30
3 29 9 31
3 24 38 10
3 38 32 10
3 10 32 30
3 28 11 30
3 39 31 27
3 27 31 9
3 33 12 43
3 12 13 43
3 13 35 43
3 36 2 34
3 34 2 14
3 45 14 16
3 33 48 0
3 12 33 0
3 35 36 34
3 49 17 48
3 48 17 0
3 35 13 15
3 35 15 19
3 35 19 36
3 49 18 17
3 49 51 18
3 21 23 52
3 51 25 18
3 37 52 23
3 25 51 53
3 26 29 38
3 26 38 24
3 37 23 28
3 25 53 27
3 27 53 40
3 39 27 40
3 54 39 40
3 39 54 31
3 31 54 29
3 32 41 30
3 56 30 41
3 30 56 28
3 14 42 34
3 42 14 45
3 60 33 43
3 60 43 46
3 35 46 43
3 47 46 35
3 47 35 44
3 44 35 34
3 59 48 33
3 50 45 16
3 50 16 21
3 21 64 50
3 64 21 52
3 53 70 40
3 71 68 54
3 54 68 55
3 54 40 71
3 55 29 54
3 55 57 29
3 57 38 29
3 38 41 32
3 34 73 58
3 34 42 73
3 73 42 74
3 47 44 58
3 34 58 44
3 74 42 45
3 59 33 60
3 61 46 47
3 78 49 48
3 63 60 46
3 46 61 63
3 50 64 62
3 62 64 65
3 65 64 66
3 64 52 66
3 84 86 51
3 67 82 68
3 52 69 66
3 86 53 51
3 37 69 52
3 85 55 68
3 67 68 71
3 88 37 28
3 88 69 37
3 72 40 70
3 72 71 40
3 89 57 55
3 28 56 88
3 38 57 41
3 56 92 88
3 57 92 41
3 41 92 56
3 73 74 94
3 74 45 94
3 94 45 76
3 76 45 50
3 77 76 50
3 77 50 62
3 77 62 79
3 60 63 95
3 63 81 95
3 61 81 63
3 65 79 62
3 61 82 81
3 61 80 82
3 80 83 82
3 79 65 97
3 81 82 67
3 83 85 82
3 65 66 97
3 97 66 87
3 81 67 98
3 82 85 68
3 69 87 66
3 98 67 71
3 85 100 55
3 53 99 70
3 71 72 98
3 69 88 90
3 69 90 102
3 69 102 87
3 88 91 90
3 93 103 92
3 91 88 92
3 103 91 92
3 89 93 57
3 57 93 92
3 75 58 73
3 58 75 47
3 106 60 108
3 107 96 77
3 77 96 76
3 79 111 77
3 108 60 95
3 47 75 61
3 94 76 110
3 110 76 96
3 79 113 111
3 113 79 116
3 116 79 97
3 116 97 87
3 120 81 98
3 116 87 121
3 101 118 91
3 118 119 90
3 91 118 90
3 119 123 90
3 70 99 124
3 125 98 72
3 103 101 91
3 102 90 123
3 102 121 87
3 124 72 70
3 55 104 89
3 100 104 55
3 104 93 89
3 75 73 105
3 105 73 94
3 126 59 106
3 59 60 106
3 105 94 128
3 127 48 59
3 126 127 59
3 77 111 107
3 127 78 48
3 61 75 109
3 94 112 128
3 110 112 94
3 96 107 129
3 61 109 80
3 108 95 117
3 110 114 112
3 110 96 114
3 111 113 131
3 117 95 81
3 96 115 114
3 113 116 131
3 78 84 49
3 84 51 49
3 114 115 118
3 131 116 134
3 115 119 118
3 117 81 120
3 114 118 101
3 134 116 122
3 122 116 121
3 99 53 86
3 119 136 123
3 120 98 125
3 102 123 122
3 102 122 121
3 124 125 72
3 105 109 75
3 128 139 105
3 107 111 140
3 130 140 111
3 107 140 129
3 139 128 143
3 143 128 112
3 129 133 96
3 108 117 145
3 130 111 131
3 132 80 109
3 83 80 132
3 115 96 133
3 143 112 114
3 143 114 150
3 100 83 132
3 85 83 100
3 119 115 133
3 133 136 119
3 120 135 117
3 117 135 149
3 150 114 101
3 137 134 122
3 125 135 120
3 150 101 155
3 136 156 123
3 103 158 155
3 101 103 155
3 156 122 123
3 122 156 137
3 157 104 100
3 104 157 159
3 159 93 104
3 159 103 93
3 158 103 159
3 109 105 138
3 138 105 160
3 105 139 160
3 106 108 141
3 146 129 140
3 143 142 139
3 146 133 129
3 144 78 127
3 145 141 108
3 162 166 109
3 166 132 109
3 142 147 146
3 146 147 133
3 144 152 78
3 152 84 78
3 148 142 143
3 142 148 147
3 149 145 117
3 151 148 143
3 150 151 143
3 148 151 147
3 169 131 134
3 86 84 152
3 166 100 132
3 147 151 153
3 147 153 136
3 133 147 136
3 154 86 152
3 151 150 155
3 169 134 137
3 166 157 100
3 99 86 154
3 156 136 153
3 154 124 99
3 126 106 174
3 160 139 164
3 127 126 177
3 109 163 162
3 163 109 138
3 139 142 164
3 140 161 146
3 176 140 130
3 162 163 165
3 164 142 161
3 161 142 146
3 176 130 181
3 177 144 127
3 180 141 145
3 181 130 131
3 180 145 182
3 166 162 165
3 167 166 165
3 182 145 149
3 168 166 167
3 183 154 152
3 184 149 135
3 157 166 168
3 157 168 170
3 155 171 151
3 151 171 153
3 153 171 172
3 154 183 124
3 135 125 173
3 157 170 159
3 153 172 156
3 186 125 124
3 125 186 173
3 188 158 159
3 155 158 171
3 106 178 174
3 189 138 160
3 164 175 160
3 175 189 160
3 175 161 190
3 161 140 190
3 174 177 126
3 141 178 106
3 161 175 164
3 140 176 190
3 141 180 178
3 179 144 177
3 179 198 144
3 163 167 165
3 198 152 144
3 181 131 169
3 167 170 168
3 183 152 198
3 184 182 149
3 135 173 184
3 185 169 137
3 124 183 203
3 172 171 187
3 185 137 156
3 203 186 124
3 158 188 187
3 171 158 187
3 187 206 172
3 206 185 172
3 172 185 156
3 138 189 208
3 191 189 175
3 190 191 175
3 174 193 177
3 191 190 192
3 190 176 192
3 180 194 178
3 211 163 138
3 208 211 138
3 176 195 192
3 194 180 196
3 176 181 195
3 196 180 197
3 180 182 197
3 211 215 163
3 215 167 163
3 195 181 217
3 197 182 199
3 197 199 216
3 217 181 169
3 184 199 182
3 215 170 167
3 217 169 202
3 198 200 183
3 199 184 201
3 215 221 170
3 200 203 183
3 173 204 184
3 201 184 204
3 159 170 221
3 202 185 207
3 202 169 185
3 221 225 159
3 203 173 186
3 204 173 203
3 188 159 226
3 226 159 225
3 187 188 226
3 187 226 205
3 207 187 205
3 206 187 207
3 185 206 207
3 208 189 210
3 191 210 189
3 209 193 178
3 193 174 178
3 194 209 178
3 209 194 196
3 213 191 192
3 214 211 212
3 212 211 208
3 191 213 210
3 192 195 213
3 179 177 193
3 214 196 215
3 214 215 211
3 218 213 195
3 179 228 198
3 216 196 197
3 196 216 215
3 195 217 218
3 218 217 219
3 220 216 199
3 216 220 215
3 217 202 219
3 223 219 202
3 199 201 220
3 220 224 221
3 220 221 215
3 222 223 205
3 202 207 223
3 203 234 204
3 224 225 221
3 226 222 205
3 207 205 223
3 234 201 204
3 227 193 209
3 227 209 196
3 227 196 212
3 212 196 214
3 212 208 210
3 237 212 210
3 179 193 228
3 229 237 210
3 210 230 229
3 210 213 230
3 230 213 218
3 198 228 231
3 230 232 229
3 230 218 232
3 218 219 232
3 219 223 232
3 231 239 200
3 198 231 200
3 222 240 229
3 229 232 222
3 232 223 222
3 200 239 233
3 233 203 200
3 234 203 233
3 233 235 234
3 220 201 235
3 220 235 224
3 226 225 240
3 240 222 226
3 235 201 234
3 212 236 227
3 227 236 193
3 236 212 238
3 237 238 212
3 193 236 228
3 238 237 244
3 244 237 229
3 244 229 247
3 247 229 240
3 241 247 240
3 233 241 235
3 225 241 240
3 224 235 241
3 225 224 241
3 243 228 236
3 236 238 243
3 238 242 243
3 238 244 242
3 228 243 231
3 243 245 231
3 243 242 245
3 242 246 245
3 242 247 246
3 244 247 242
3 231 245 239
3 233 239 245
3 245 246 241
3 246 247 241
3 241 233 245
