ply
format ascii 1.0
element vertex 248
property float x
property float y
property float z
element face 500
property list uchar int vertex_indices
end_header
-0.695631 -0.190238 -0.639170
-0.728901 -0.170197 -0.510978
-0.769886 -0.070408 -0.584907
-0.776142 0.013342 -0.505317
-0.765178 0.089479 -0.580206
-0.748542 0.157533 -0.513695
-0.714528 0.209372 -0.539670
-0.606440 -0.200648 -0.770644
-0.684469 -0.214923 -0.408449
-0.640179 -0.187777 -0.213620
-0.696038 -0.082070 -0.745609
-0.746962 -0.018619 -0.670720
-0.734357 -0.080835 -0.348219
-0.653519 -0.037698 -0.099592
-0.739929 0.084890 -0.374290
-0.712384 0.027618 -0.192890
-0.691066 0.064594 -0.749450
-0.641537 0.152626 -0.158659
-0.653109 0.212600 -0.669550
-0.689513 0.215003 -0.428768
-0.619638 0.197591 -0.772518
-0.557712 -0.293889 -0.660774
-0.610114 -0.284466 -0.558518
-0.585049 -0.286441 -0.349385
-0.511366 -0.276463 -0.161144
-0.550213 0.012745 -0.827202
-0.525939 -0.157231 0.015335
-0.587978 0.184977 -0.817550
-0.539968 0.279132 -0.181642
-0.594618 0.280313 -0.419216
-0.501875 -0.295097 -0.301418
-0.468650 -0.205019 -0.815669
-0.491243 -0.083698 0.111065
-0.426267 0.045575 0.180499
-0.544823 0.201328 -0.036961
-0.495725 0.215464 -0.809225
-0.493257 0.294756 -0.296091
-0.509423 -0.269403 -0.756290
-0.510950 -0.297531 -0.556545
-0.401488 -0.295100 -0.662824
-0.189785 -0.326011 0.115588
-0.417632 -0.231781 -0.367726
-0.322863 -0.240874 0.157658
-0.346631 0.165960 0.220428
-0.509104 0.272991 -0.725741
-0.483930 0.281017 -0.606892
-0.520325 0.289526 -0.449267
-0.205317 0.334405 0.083256
-0.226212 -0.317659 0.002484
-0.410508 -0.203331 -0.478424
-0.313999 -0.236688 -0.582129
-0.375797 -0.123969 -0.413238
-0.349965 -0.048594 -0.486908
-0.355680 -0.109897 0.240684
-0.342843 0.024921 -0.420312
-0.313114 0.068582 0.307072
-0.348653 0.034437 -0.493288
-0.438130 0.225470 -0.467894
-0.386127 0.226231 -0.310010
-0.339303 0.208129 -0.575109
-0.308526 0.251386 0.168624
-0.144571 -0.281820 -0.732925
-0.259519 -0.210240 0.276401
0.022963 -0.241542 -0.757666
-0.211702 -0.133577 -0.203865
0.021951 -0.100209 -0.835586
-0.278689 -0.114240 0.337551
0.037094 0.068865 -0.868465
-0.294211 -0.021416 -0.513667
-0.051250 0.122416 -0.884344
-0.258760 0.142445 0.357461
-0.235648 0.242219 -0.134838
-0.272874 0.201388 0.275560
-0.209113 0.297786 -0.719109
-0.306660 0.280104 -0.656379
-0.239382 0.288479 -0.061771
-0.197667 -0.288980 -0.649699
-0.176929 -0.212117 -0.117146
-0.134994 -0.181374 -0.484867
0.021526 -0.199167 0.654835
-0.025572 -0.057877 0.680282
-0.023843 0.091205 0.674614
-0.148257 0.196041 -0.135121
-0.189915 0.197124 -0.546589
-0.103926 0.343594 0.209649
0.036638 -0.290976 0.480803
-0.020284 -0.289186 -0.576669
-0.183971 -0.064310 -0.475153
-0.066618 -0.039247 -0.164023
0.019121 0.203539 0.649261
-0.143594 0.304648 -0.662468
-0.117589 0.327149 0.051231
0.000424 -0.359856 0.145761
-0.016062 -0.295573 -0.680307
-0.112527 -0.322882 0.039626
-0.039879 -0.363991 0.193959
-0.125161 -0.117022 -0.447217
-0.041874 -0.155813 -0.415913
-0.119063 0.056081 -0.444601
-0.111582 0.207731 -0.494946
-0.025833 0.172108 -0.434599
0.031113 0.203120 -0.788863
0.043597 0.297154 0.478150
-0.061168 0.363567 0.162210
0.049098 -0.204202 -0.407775
0.057394 -0.164307 0.739204
-0.034885 -0.005147 -0.390646
0.030884 -0.016684 0.760190
0.144299 0.005995 -0.193692
0.114404 0.118260 -0.158293
0.055983 0.162159 0.738845
0.005816 0.298671 -0.566754
0.103504 0.227171 -0.399580
0.154844 0.214763 -0.122253
-0.011666 0.313537 -0.661848
0.051759 -0.337157 0.277817
0.250041 -0.316689 0.015728
0.167515 -0.280650 -0.610432
0.198145 -0.243127 0.400425
0.118429 -0.283517 0.511549
0.133711 -0.232312 0.705704
0.135997 -0.209903 -0.098296
0.127803 -0.136952 0.815064
0.039548 -0.069640 -0.352120
0.230609 -0.036798 -0.749992
0.061891 0.080562 -0.346304
0.121649 0.025760 0.853273
0.132140 0.174013 0.800873
0.167596 0.123887 -0.249530
0.137729 0.242482 0.694758
0.124146 0.303840 -0.606534
0.060589 0.338463 0.252315
0.134933 0.290920 0.499749
0.143044 -0.313604 0.234373
0.150375 -0.288293 -0.493082
0.197715 -0.203529 -0.710677
0.192522 -0.220682 -0.309730
0.253498 -0.227215 -0.184133
0.138811 -0.053749 -0.265630
0.199330 0.117664 -0.755188
0.180918 0.149951 -0.185427
0.248755 0.210549 -0.654358
0.178330 0.300557 -0.487507
0.218003 0.227830 0.327920
0.201672 0.236941 0.420689
0.219175 0.325106 0.021553
0.234772 -0.287849 -0.510955
0.252108 -0.272723 -0.392737
0.290121 -0.284150 -0.073704
0.270762 -0.218416 0.309829
0.250203 -0.180783 0.796828
0.300150 -0.140076 0.426834
0.179114 -0.063062 0.867598
0.176577 0.059701 0.870749
0.192735 0.191065 0.796446
0.281173 0.228470 0.746491
0.262707 0.252625 -0.193168
0.319433 0.242498 -0.531529
0.319597 0.297055 0.151919
0.307437 -0.315324 0.105297
0.350440 -0.229890 0.672304
0.326714 -0.224545 -0.555752
0.346558 -0.253259 -0.389036
0.285091 -0.185033 -0.655913
0.390009 -0.098100 0.550439
0.303384 0.035922 0.857162
0.342219 0.010790 0.439490
0.332240 0.103694 -0.663728
0.391804 0.106915 0.559499
0.400986 0.234746 0.666513
0.346333 0.189645 -0.596699
0.391071 0.254682 -0.253146
0.326432 0.252591 0.693865
0.341929 -0.295933 -0.058529
0.379910 -0.276393 0.186669
0.439350 -0.227265 -0.248073
0.421398 -0.279851 0.044632
0.485387 -0.203284 0.362386
0.385917 -0.228499 0.761195
0.430482 -0.169312 -0.429611
0.340463 -0.149167 0.363757
0.474351 -0.188861 0.815328
0.351537 -0.112936 0.842288
0.447875 -0.097223 0.416894
0.365357 -0.003163 -0.654639
0.380504 -0.005160 0.520691
0.354259 0.126739 0.371417
0.424122 0.068203 0.421454
0.406316 0.106692 -0.569101
0.437505 0.169254 -0.418557
0.390668 0.222024 0.756219
0.456391 0.107009 0.861050
0.441853 0.161616 0.385357
0.346986 0.313857 -0.039259
0.444803 0.277195 0.055535
0.526599 -0.242557 0.730478
0.551774 -0.169489 0.043624
0.489167 -0.134678 -0.272622
0.408583 -0.072664 -0.574121
0.415293 -0.028641 0.878110
0.473269 0.017055 -0.433718
0.501960 -0.007943 -0.341151
0.493600 -0.036200 0.566909
0.481104 0.129398 -0.254345
0.504691 0.145303 0.443427
0.577012 0.154154 0.106591
0.456413 0.212031 0.797795
0.561793 0.243616 0.390041
0.642683 -0.249821 0.351508
0.724353 -0.226468 0.348591
0.579074 -0.193070 0.463245
0.495508 -0.193973 0.648773
0.578424 -0.216300 0.610378
0.513480 -0.053407 -0.239794
0.563597 -0.018510 -0.004671
0.509631 0.004866 0.491944
0.564742 0.171367 0.533010
0.513656 0.206288 0.645651
0.529440 0.244052 0.714100
0.631758 0.257955 0.347041
0.669333 -0.252237 0.479847
0.667801 -0.264931 0.700505
0.699085 -0.233818 0.775126
0.748878 -0.111410 0.845141
0.713716 -0.006772 0.891948
0.771796 0.104223 0.838018
0.669679 0.265322 0.533874
0.769505 -0.255982 0.649962
0.753561 -0.122336 0.318251
0.755883 0.090349 0.310474
0.725104 0.209471 0.371033
0.683190 0.209218 0.787038
0.765243 0.228099 0.453389
0.731241 0.279496 0.650622
0.755484 -0.222427 0.409012
0.893778 -0.200933 0.606767
0.843497 -0.080270 0.420656
0.738414 0.012128 0.270604
0.813060 0.066438 0.386713
0.906940 0.183643 0.585003
0.769354 0.277500 0.583747
0.899489 -0.177075 0.667644
0.945606 -0.116824 0.589681
0.960433 -0.057623 0.667170
0.816777 -0.011887 0.849343
0.967198 0.060220 0.585135
0.954296 0.112052 0.658432
0.857912 0.219234 0.671627
3 0 2 1
3 1 2 3
3 12 3 14
3 1 3 12
3 4 2 11
3 2 4 3
3 3 4 5
3 14 5 19
3 3 5 14
3 4 6 5
3 0 1 22
3 22 1 8
3 7 10 0
3 0 10 11
3 0 11 2
3 8 12 9
3 25 10 7
3 12 8 1
3 9 12 13
3 12 15 13
3 16 10 25
3 10 16 11
3 12 14 15
3 13 15 17
3 20 16 25
3 11 16 18
3 11 18 4
3 15 14 17
3 16 20 18
3 4 18 6
3 14 19 17
3 5 6 19
3 7 0 21
3 0 22 21
3 22 8 23
3 23 8 9
3 24 9 26
3 13 26 9
3 20 25 27
3 17 28 34
3 19 6 29
3 19 29 17
3 17 29 28
3 18 29 6
3 37 7 21
3 38 21 22
3 22 23 38
3 38 23 30
3 24 30 23
3 9 24 23
3 37 31 7
3 31 25 7
3 13 32 26
3 33 32 13
3 17 33 13
3 35 27 25
3 34 33 17
3 35 20 27
3 35 44 20
3 44 18 20
3 18 45 29
3 45 46 29
3 46 36 29
3 28 29 36
3 44 45 18
3 21 39 37
3 21 38 39
3 30 24 48
3 40 48 24
3 41 38 30
3 40 24 42
3 49 38 41
3 26 42 24
3 34 43 33
3 45 57 46
3 57 58 36
3 46 57 36
3 28 36 47
3 37 61 31
3 61 37 39
3 38 50 39
3 49 50 38
3 41 51 49
3 42 26 53
3 63 65 31
3 52 50 49
3 65 25 31
3 49 51 52
3 32 53 26
3 54 52 51
3 33 53 32
3 56 52 54
3 53 33 55
3 67 69 25
3 54 57 56
3 69 35 25
3 54 58 57
3 33 43 55
3 57 59 56
3 34 60 43
3 59 45 74
3 57 45 59
3 34 28 60
3 73 74 44
3 44 74 45
3 58 75 36
3 58 71 75
3 61 39 76
3 61 63 31
3 76 39 50
3 41 30 77
3 30 48 77
3 51 41 64
3 41 77 64
3 42 53 62
3 68 50 52
3 62 53 66
3 55 66 53
3 66 55 80
3 68 52 56
3 80 55 81
3 68 56 59
3 54 82 58
3 58 82 71
3 55 43 72
3 70 55 72
3 44 35 73
3 60 72 43
3 28 47 60
3 75 47 36
3 42 62 40
3 50 86 76
3 86 50 78
3 68 78 50
3 78 68 87
3 66 79 62
3 51 64 54
3 64 88 54
3 87 68 83
3 59 83 68
3 70 81 55
3 83 59 74
3 84 72 60
3 73 90 74
3 83 74 90
3 60 47 84
3 91 47 75
3 61 76 93
3 93 76 86
3 40 94 48
3 48 94 77
3 62 85 40
3 96 78 87
3 77 88 64
3 80 79 66
3 65 67 25
3 96 87 98
3 98 87 83
3 82 54 88
3 98 83 99
3 70 72 89
3 70 89 81
3 35 101 73
3 71 82 75
3 75 82 91
3 92 94 40
3 95 92 40
3 95 40 85
3 85 62 79
3 78 96 97
3 97 96 106
3 96 98 106
3 108 109 88
3 99 100 98
3 98 100 106
3 109 82 88
3 101 35 69
3 111 99 83
3 99 111 100
3 113 91 82
3 89 72 102
3 114 73 101
3 83 90 111
3 72 84 102
3 114 90 73
3 111 90 114
3 47 91 103
3 103 84 47
3 116 94 92
3 115 92 95
3 85 115 95
3 63 61 93
3 78 97 104
3 78 104 86
3 116 121 94
3 121 77 94
3 104 97 123
3 123 97 106
3 79 80 105
3 105 80 107
3 123 106 125
3 80 81 107
3 107 81 110
3 107 110 126
3 125 106 100
3 67 101 69
3 125 100 112
3 113 82 109
3 81 89 110
3 111 112 100
3 84 131 102
3 84 103 131
3 92 115 133
3 86 117 93
3 133 115 118
3 119 118 115
3 115 85 119
3 117 86 134
3 93 117 63
3 134 86 104
3 79 120 85
3 105 120 79
3 120 105 122
3 63 135 65
3 107 122 105
3 104 123 138
3 121 88 77
3 121 108 88
3 67 65 124
3 122 107 126
3 138 125 128
3 123 125 138
3 139 141 101
3 67 139 101
3 112 128 125
3 110 127 126
3 110 89 129
3 110 129 127
3 101 130 114
3 89 102 129
3 111 130 142
3 112 111 142
3 130 111 114
3 145 91 113
3 102 131 132
3 103 91 145
3 131 103 145
3 134 146 117
3 134 147 146
3 147 134 136
3 119 85 120
3 117 135 63
3 134 104 136
3 150 120 122
3 150 122 152
3 124 65 135
3 138 136 104
3 136 138 137
3 137 138 108
3 137 108 121
3 152 122 126
3 152 126 153
3 67 124 139
3 138 128 108
3 108 128 140
3 108 140 109
3 153 126 127
3 153 127 154
3 109 140 113
3 127 129 154
3 141 130 101
3 144 131 143
3 132 131 144
3 132 129 102
3 143 131 158
3 131 145 158
3 116 92 159
3 159 92 133
3 117 146 161
3 148 121 116
3 133 149 159
3 119 160 118
3 119 120 160
3 161 163 117
3 163 135 117
3 147 136 137
3 137 121 148
3 149 133 118
3 150 160 120
3 118 151 149
3 118 160 151
3 163 124 135
3 150 152 165
3 165 152 153
3 167 139 124
3 143 166 144
3 165 154 155
3 165 153 154
3 167 141 139
3 140 128 156
3 140 156 113
3 157 130 141
3 112 156 128
3 169 132 144
3 132 169 172
3 129 172 155
3 155 154 129
3 130 157 142
3 112 142 156
3 132 172 129
3 156 145 113
3 116 173 148
3 173 116 159
3 146 162 161
3 147 162 146
3 162 147 137
3 162 137 173
3 137 148 173
3 159 149 174
3 149 180 174
3 160 150 178
3 151 160 164
3 178 150 182
3 151 180 149
3 163 184 124
3 164 166 151
3 182 150 165
3 166 180 151
3 184 167 124
3 166 143 186
3 166 168 144
3 155 190 165
3 167 170 141
3 169 144 168
3 170 157 141
3 186 143 158
3 155 172 190
3 171 142 157
3 171 193 156
3 171 156 142
3 193 145 156
3 193 194 158
3 145 193 158
3 159 176 173
3 159 174 176
3 162 175 179
3 162 173 175
3 175 173 176
3 174 180 177
3 162 179 161
3 182 181 178
3 163 161 198
3 198 161 179
3 183 177 180
3 182 199 181
3 163 198 184
3 164 185 166
3 164 202 185
3 166 183 180
3 166 187 183
3 198 188 184
3 199 182 165
3 186 187 166
3 199 165 191
3 184 188 167
3 185 168 166
3 185 202 168
3 167 188 170
3 192 187 186
3 165 190 191
3 170 188 157
3 188 189 157
3 189 171 157
3 206 191 190
3 158 207 192
3 158 192 186
3 169 190 172
3 171 194 193
3 158 194 207
3 176 174 208
3 176 208 196
3 195 160 178
3 195 178 181
3 175 197 179
3 175 176 197
3 160 211 164
3 195 211 160
3 197 176 196
3 202 164 211
3 179 200 198
3 179 197 200
3 197 201 200
3 215 183 187
3 198 200 188
3 201 203 200
3 215 187 204
3 189 188 200
3 200 203 189
3 204 187 192
3 168 202 217
3 204 192 207
3 189 203 171
3 203 205 194
3 217 169 168
3 169 217 218
3 194 171 203
3 205 219 194
3 190 169 218
3 190 218 206
3 177 208 174
3 196 208 209
3 177 210 208
3 222 195 181
3 183 210 177
3 212 211 195
3 197 196 213
3 196 214 213
3 215 210 183
3 212 210 202
3 211 212 202
3 223 181 199
3 201 197 213
3 210 215 202
3 203 201 213
3 213 214 203
3 214 205 203
3 202 215 216
3 224 199 191
3 204 216 215
3 202 216 217
3 216 204 207
3 194 219 207
3 195 221 212
3 220 208 210
3 221 220 212
3 221 195 222
3 212 220 210
3 222 181 223
3 224 223 199
3 224 191 225
3 216 207 226
3 225 191 231
3 219 205 230
3 226 207 219
3 217 216 226
3 217 226 218
3 218 233 231
3 206 218 231
3 231 191 206
3 226 233 218
3 220 227 234
3 220 221 227
3 208 234 209
3 208 220 234
3 227 221 222
3 196 209 228
3 196 228 214
3 228 237 214
3 214 237 205
3 237 229 205
3 230 205 229
3 230 226 219
3 230 232 226
3 240 226 232
3 240 233 226
3 234 227 235
3 209 234 228
3 234 236 228
3 223 224 244
3 228 238 237
3 228 236 238
3 238 229 237
3 244 224 225
3 229 238 230
3 238 232 230
3 238 239 232
3 225 231 247
3 239 240 232
3 231 233 247
3 241 235 227
3 222 241 227
3 236 234 242
3 234 235 242
3 222 223 241
3 241 223 243
3 243 223 244
3 236 245 238
3 239 238 245
3 225 247 246
3 247 240 239
3 233 240 247
3 235 241 242
3 241 243 242
3 236 242 245
3 225 246 244
3 246 239 245
3 247 239 246
3 242 243 245
3 243 246 245
3 243 244 246
