ply
format ascii 1.0
element vertex 252
property float x
property float y
property float z
element face 500
property list uchar int vertex_indices
end_header
-0.396182 -0.140775 0.496734
-0.424572 -0.115771 0.629049
-0.435185 -0.061071 0.524113
-0.453201 -0.022847 0.657223
-0.430293 0.070579 0.510216
-0.411480 0.109672 0.635440
-0.338007 -0.208820 0.519902
-0.344766 -0.207677 0.599776
-0.347191 -0.160482 0.670252
-0.389984 -0.041859 0.420134
-0.430342 -0.031875 0.689273
-0.315928 -0.073390 -0.100610
-0.366834 -0.037791 0.334864
-0.330451 0.040992 -0.103023
-0.367826 0.044788 0.363857
-0.379018 0.114006 0.427471
-0.408266 0.143826 0.512699
-0.341273 0.215869 0.596252
-0.346992 0.186491 0.655406
-0.334025 0.208756 0.506037
-0.245943 -0.211084 0.251405
-0.258789 -0.211439 0.355072
-0.270610 -0.132493 -0.078431
-0.255790 -0.171396 0.140405
-0.304547 -0.170806 0.203862
-0.345962 -0.183269 0.464931
-0.353850 -0.147016 0.410514
-0.363041 -0.091403 0.347863
-0.339341 -0.039054 0.714958
-0.262159 -0.031846 -0.203456
-0.259476 0.095358 -0.179939
-0.354151 0.087301 0.697034
-0.355265 0.115546 0.338624
-0.315321 0.113975 -0.102529
-0.303490 0.178259 0.197951
-0.270266 0.144538 -0.084610
-0.319745 0.187523 0.414558
-0.260827 0.203770 0.253633
-0.266557 0.208421 0.422151
-0.274993 -0.210280 0.482526
-0.278714 -0.215167 0.568653
-0.281133 -0.203900 0.427249
-0.277967 -0.187399 0.642444
-0.263630 -0.100336 -0.173619
-0.207176 -0.174647 0.519382
-0.229763 -0.179214 0.603521
-0.221775 -0.119502 -0.151767
-0.203989 -0.135369 0.095720
-0.264559 -0.086209 0.696189
-0.204150 -0.094804 0.632498
-0.278914 0.034981 0.713236
-0.231582 0.127829 -0.126069
-0.207326 0.142016 0.104948
-0.270242 0.204770 0.493940
-0.219181 0.162177 0.573072
-0.288948 0.168544 0.660059
-0.198638 0.103525 0.640765
-0.253675 0.175076 0.142201
-0.283571 0.213885 0.581781
-0.194014 -0.222403 0.272152
-0.193685 -0.224268 0.330987
-0.196838 -0.184154 0.194969
-0.130813 -0.201561 0.273349
-0.215865 -0.214286 0.406001
-0.207745 -0.087691 -0.202275
-0.095334 -0.134996 0.198113
-0.126299 -0.192077 0.353300
-0.152474 -0.098902 0.488835
-0.185532 -0.080254 -0.178787
-0.192374 -0.039090 -0.219846
-0.163365 -0.058147 0.119701
-0.180736 0.003498 -0.193812
-0.149102 -0.010424 0.521655
-0.196677 0.020596 0.688679
-0.176277 0.018286 0.660879
-0.206061 0.034543 -0.221892
-0.167720 0.062872 0.107033
-0.208176 0.084067 -0.188452
-0.169280 0.108236 0.521220
-0.104121 0.141739 0.199888
-0.199321 0.196965 0.422351
-0.200331 0.184413 0.189494
-0.194675 0.215793 0.262002
-0.131091 0.200833 0.271720
-0.190577 0.218056 0.337653
-0.017223 -0.193243 -0.960866
-0.029234 -0.175092 -0.594961
-0.071067 -0.102518 -0.971527
-0.031840 -0.138384 0.327698
-0.019589 -0.109778 -1.045004
-0.069723 -0.075280 -0.603908
-0.121444 -0.025785 0.166678
-0.079120 0.031006 -1.055557
-0.099969 0.009395 -0.967010
-0.072146 -0.007165 -0.583511
-0.106835 0.051711 0.172013
-0.084032 0.086933 -0.966993
-0.048974 0.108223 -0.562688
-0.024570 0.074434 0.356716
-0.053444 0.166654 0.307262
-0.015765 0.201615 -0.939225
-0.027788 0.179235 -0.626374
-0.125824 0.206747 0.326520
0.038879 -0.233427 -0.877745
0.025728 -0.226586 -0.623339
-0.005513 -0.223846 -0.664022
-0.006528 -0.210100 -0.587077
-0.058193 -0.179169 0.281628
0.036156 -0.189327 -0.500262
0.059276 -0.182539 -0.414929
0.056856 -0.153598 -0.290301
-0.025981 -0.106809 -0.496114
0.120446 -0.123871 0.183331
-0.030463 -0.032226 0.368019
-0.044324 0.004985 -0.487605
0.009041 0.023326 -0.284268
0.039171 -0.041765 -0.183173
0.108033 -0.047320 0.165042
-0.041411 0.043619 -1.079202
-0.022342 0.105580 -0.471131
0.036343 0.070390 -0.195732
-0.032653 0.124749 -1.043405
0.062984 0.169375 -0.278880
0.110028 0.119402 0.184822
0.029610 0.189860 -0.503888
0.045515 0.238884 -0.898102
0.030819 0.227564 -0.652864
0.048623 -0.212809 -0.987549
0.103978 -0.198480 -0.946662
0.094521 -0.206795 -0.618921
0.115258 -0.207138 -0.270404
0.033022 -0.169128 0.298019
0.014279 -0.179145 -1.028850
0.125050 -0.201079 -0.196147
0.135337 -0.193594 0.348318
0.103631 -0.132764 -1.035509
0.110468 -0.164197 -0.122949
0.142080 -0.149881 0.005338
0.075064 -0.073502 -0.093521
0.112490 -0.021247 0.031813
0.030978 -0.072887 0.349975
0.117448 -0.099559 0.389658
0.062569 0.026122 -0.104842
0.019996 0.032661 0.352877
0.112851 0.034373 0.402128
0.100637 -0.014613 -1.073104
0.116489 0.077364 0.035795
0.100370 0.116097 -1.036136
0.106234 0.151679 -0.113712
0.041067 0.131358 0.334978
0.038599 0.175722 -1.039846
0.145278 0.151468 0.025879
0.134571 0.145747 0.388104
0.031705 0.178768 0.287925
0.127901 0.196863 0.327690
0.039604 0.207993 -0.995254
0.105242 0.198415 -0.943760
0.085570 0.216910 -0.625373
0.113833 0.210167 -0.274593
0.112536 -0.179297 -0.433796
0.114766 -0.195466 -0.339988
0.166135 -0.191915 -0.264271
0.200375 -0.207669 -0.025389
0.210004 -0.202922 0.046882
0.122226 -0.199605 0.274923
0.186027 -0.225469 0.349617
0.137844 -0.178397 -0.624810
0.190225 -0.137669 -0.343737
0.179687 -0.178604 0.184913
0.158705 -0.111901 -0.979650
0.157553 -0.118726 0.124814
0.157343 -0.026165 -1.040746
0.193117 -0.086328 -0.429667
0.182025 -0.040083 -0.969147
0.200677 0.014102 -0.431237
0.134648 0.010939 0.128953
0.173821 0.039674 -0.978670
0.110872 0.037221 0.164240
0.176519 0.096546 -0.687813
0.158434 0.124720 0.124666
0.153831 0.124376 -0.963905
0.166908 0.128245 -0.447423
0.148734 0.156614 -0.746599
0.196617 0.110484 -0.343383
0.107129 0.191773 0.261652
0.126521 0.186847 -0.409889
0.117726 0.201536 -0.349598
0.123819 0.201383 -0.208793
0.187602 0.203772 -0.122719
0.194994 0.193755 0.193970
0.195926 0.202367 -0.051390
0.219854 0.202952 0.033525
0.280578 -0.239970 0.230751
0.194422 -0.191415 -0.122714
0.269411 -0.215201 0.122327
0.265254 -0.203543 0.419134
0.235836 -0.107038 -0.256312
0.283928 -0.087137 -0.123968
0.238374 -0.139344 0.453963
0.221030 -0.041802 -0.347385
0.267753 -0.057339 -0.208537
0.199930 -0.012109 0.462306
0.248465 -0.005565 -0.273831
0.276320 -0.003740 -0.182344
0.234294 0.096541 -0.267360
0.273002 0.080665 -0.149129
0.216459 0.106891 0.454952
0.179834 0.183689 -0.244818
0.220709 0.192592 -0.105478
0.268828 0.213069 0.121001
0.261425 0.203232 0.407246
0.230038 0.235538 0.270558
0.285850 0.236317 0.204478
0.269488 -0.239262 0.340202
0.347612 -0.230907 0.281580
0.251496 -0.192819 -0.043225
0.274574 -0.202047 0.033731
0.321863 -0.120421 -0.025593
0.358019 -0.099924 0.025944
0.356166 -0.137464 0.484278
0.337654 -0.061967 0.517820
0.303584 0.003555 -0.108723
0.297517 0.051413 0.511239
0.324988 0.073214 -0.041095
0.347010 0.123678 0.031318
0.330744 0.132680 0.487995
0.251395 0.195559 -0.018027
0.275871 0.205131 0.046210
0.274678 0.243199 0.338815
0.334879 0.233024 0.278352
0.343110 -0.228124 0.189011
0.351734 -0.187342 0.116761
0.341299 -0.203981 0.411772
0.405168 -0.163523 0.194408
0.414719 -0.125656 0.411110
0.340372 -0.038653 -0.036407
0.417687 -0.080810 0.117232
0.384125 0.018257 0.035761
0.374691 0.035335 0.527721
0.419288 0.078558 0.115224
0.418944 0.082484 0.490277
0.351000 0.180404 0.112802
0.414540 0.142164 0.193390
0.422011 0.139956 0.393322
0.362639 0.181742 0.443011
0.339266 0.220763 0.181715
0.334142 0.229073 0.373192
0.447285 -0.058031 0.194794
0.413679 -0.034596 0.508186
0.438112 0.001530 0.125623
0.453012 0.026325 0.435963
0.451057 0.050680 0.195813
3 0 2 1
3 1 2 3
3 1 3 10
3 2 4 3
3 3 4 5
3 3 5 10
3 16 5 4
3 0 6 25
3 6 0 7
3 26 0 25
3 7 0 1
3 7 1 8
3 27 9 26
3 26 9 0
3 1 10 8
3 10 28 8
3 11 12 27
3 12 9 27
3 0 9 2
3 11 13 12
3 12 13 14
3 12 14 9
3 2 9 4
3 28 10 31
3 9 14 15
3 9 15 4
3 31 10 5
3 13 32 14
3 4 15 16
3 17 5 16
3 19 16 15
3 5 17 18
3 5 18 31
3 16 19 17
3 39 6 40
3 6 7 40
3 7 42 40
3 23 24 20
3 20 24 21
3 41 21 26
3 21 24 26
3 41 26 25
3 41 25 39
3 39 25 6
3 42 7 8
3 11 22 43
3 22 11 24
3 22 24 23
3 24 27 26
3 42 8 48
3 48 8 28
3 43 29 11
3 27 24 11
3 11 29 13
3 29 30 13
3 48 28 50
3 50 28 31
3 30 33 13
3 32 13 33
3 14 32 15
3 32 33 34
3 50 31 55
3 35 33 30
3 33 35 34
3 32 34 36
3 32 36 15
3 15 36 19
3 55 31 18
3 35 57 34
3 57 37 34
3 34 37 36
3 36 37 38
3 36 38 53
3 36 53 19
3 18 17 55
3 53 58 19
3 19 58 17
3 55 17 58
3 59 20 60
3 20 21 60
3 21 63 60
3 41 63 21
3 23 20 61
3 59 61 20
3 39 63 41
3 39 44 63
3 39 40 44
3 40 45 44
3 42 45 40
3 46 43 22
3 22 47 46
3 22 23 47
3 23 61 47
3 42 49 45
3 42 48 49
3 43 46 64
3 44 45 49
3 67 44 49
3 43 64 29
3 64 69 29
3 49 48 73
3 69 75 29
3 75 30 29
3 73 48 50
3 75 77 30
3 30 77 51
3 80 78 53
3 53 78 54
3 56 73 55
3 73 50 55
3 35 30 51
3 51 52 35
3 52 57 35
3 52 81 57
3 81 37 57
3 37 81 82
3 80 53 38
3 54 58 53
3 55 58 56
3 58 54 56
3 82 84 37
3 37 84 38
3 80 38 84
3 60 62 59
3 61 59 62
3 62 60 66
3 66 60 63
3 47 61 65
3 61 62 65
3 63 44 66
3 46 68 64
3 47 68 46
3 67 66 44
3 69 64 68
3 68 47 70
3 65 91 70
3 47 65 70
3 71 69 68
3 68 70 71
3 67 49 72
3 49 74 72
3 49 73 74
3 75 69 71
3 70 76 71
3 91 95 76
3 70 91 76
3 77 75 71
3 71 76 77
3 72 74 78
3 74 56 78
3 74 73 56
3 95 79 76
3 76 51 77
3 52 51 76
3 76 79 52
3 99 98 78
3 80 99 78
3 54 78 56
3 81 52 79
3 79 83 81
3 102 99 80
3 81 83 82
3 83 102 84
3 102 80 84
3 84 82 83
3 85 86 105
3 107 62 66
3 87 85 89
3 85 87 86
3 107 65 62
3 88 107 66
3 87 90 86
3 66 67 88
3 112 117 65
3 117 91 65
3 113 88 67
3 92 89 118
3 89 92 87
3 87 92 93
3 87 93 90
3 90 93 94
3 111 94 114
3 90 94 111
3 72 113 67
3 93 92 96
3 93 96 94
3 94 96 97
3 114 97 119
3 94 97 114
3 98 113 72
3 78 98 72
3 123 79 95
3 118 121 92
3 121 96 92
3 100 96 121
3 96 100 101
3 96 101 97
3 99 83 79
3 102 83 99
3 127 85 103
3 103 85 105
3 103 105 104
3 104 105 106
3 127 132 85
3 86 106 105
3 106 86 108
3 106 108 104
3 132 89 85
3 111 108 86
3 108 111 109
3 109 111 110
3 131 65 107
3 131 107 88
3 132 135 89
3 90 111 86
3 131 88 140
3 111 114 110
3 110 114 115
3 110 115 116
3 140 88 113
3 140 113 143
3 114 119 115
3 116 115 120
3 143 113 98
3 119 122 115
3 120 115 122
3 98 149 143
3 147 121 118
3 121 147 150
3 149 98 99
3 124 119 97
3 101 124 97
3 119 124 122
3 153 99 79
3 149 99 153
3 100 121 155
3 121 150 155
3 125 100 155
3 100 125 126
3 100 126 101
3 124 101 126
3 103 128 127
3 103 129 128
3 103 104 129
3 128 135 127
3 135 132 127
3 129 104 108
3 129 108 159
3 108 109 159
3 159 109 160
3 130 160 110
3 110 160 109
3 130 110 133
3 134 164 131
3 133 110 136
3 164 65 131
3 134 131 141
3 110 116 136
3 136 116 138
3 136 138 137
3 137 138 139
3 164 112 65
3 131 140 141
3 135 145 89
3 145 118 89
3 142 138 116
3 138 142 139
3 144 141 140
3 143 144 140
3 177 91 117
3 120 142 116
3 139 142 146
3 177 95 91
3 145 147 118
3 142 120 148
3 142 148 146
3 177 123 95
3 149 152 144
3 143 149 144
3 146 148 151
3 79 123 184
3 122 148 120
3 184 153 79
3 154 152 149
3 153 154 149
3 156 155 147
3 155 150 147
3 157 185 124
3 185 186 124
3 124 186 122
3 186 158 122
3 122 158 187
3 122 187 148
3 153 184 154
3 155 156 125
3 156 157 125
3 157 126 125
3 126 157 124
3 129 166 128
3 167 159 160
3 160 161 167
3 160 130 161
3 161 130 133
3 161 133 193
3 136 193 133
3 193 136 162
3 163 162 137
3 134 165 164
3 134 195 165
3 169 135 128
3 128 166 169
3 129 159 166
3 137 162 136
3 137 170 163
3 170 112 168
3 168 112 164
3 195 134 198
3 198 134 141
3 135 169 171
3 166 172 169
3 166 159 172
3 167 199 172
3 167 172 159
3 169 173 171
3 169 172 173
3 139 170 137
3 112 170 117
3 141 201 198
3 145 135 171
3 172 174 173
3 172 199 174
3 175 170 139
3 170 175 117
3 201 141 144
3 173 176 171
3 173 174 176
3 146 175 139
3 117 175 177
3 147 145 171
3 171 176 147
3 174 178 176
3 179 175 146
3 175 179 177
3 176 180 147
3 176 178 180
3 174 181 178
3 174 183 181
3 151 179 146
3 177 179 123
3 206 201 144
3 180 178 182
3 178 181 182
3 206 144 152
3 182 181 157
3 181 185 157
3 181 183 185
3 183 186 185
3 183 207 186
3 148 187 188
3 151 191 179
3 189 123 179
3 123 189 184
3 206 152 210
3 210 152 154
3 180 156 147
3 182 156 180
3 157 156 182
3 186 207 158
3 187 158 207
3 187 207 188
3 190 148 188
3 148 190 151
3 151 190 191
3 189 211 184
3 211 154 184
3 213 192 164
3 213 164 165
3 165 195 213
3 193 162 215
3 162 163 216
3 215 162 216
3 163 194 216
3 194 168 192
3 192 168 164
3 196 167 161
3 161 193 196
3 193 197 196
3 193 215 197
3 194 163 170
3 194 170 168
3 167 196 199
3 196 197 200
3 220 198 201
3 196 202 199
3 196 200 202
3 200 203 202
3 200 197 203
3 220 201 222
3 183 174 199
3 199 202 183
3 202 204 183
3 202 203 204
3 203 205 204
3 222 201 206
3 205 207 204
3 205 208 207
3 207 183 204
3 179 191 209
3 179 209 189
3 208 188 207
3 208 190 188
3 208 226 190
3 226 227 191
3 190 226 191
3 191 227 209
3 209 212 189
3 189 212 211
3 211 228 154
3 210 154 228
3 192 213 214
3 194 230 231
3 192 230 194
3 192 214 230
3 213 232 214
3 195 232 213
3 216 194 231
3 195 219 232
3 197 215 217
3 215 216 217
3 216 218 217
3 216 231 218
3 198 219 195
3 220 219 198
3 197 217 235
3 235 217 218
3 203 197 221
3 197 235 221
3 220 222 238
3 235 223 221
3 205 203 221
3 221 223 205
3 223 237 224
3 238 222 225
3 208 205 223
3 225 222 206
3 226 208 223
3 223 224 226
3 224 227 226
3 224 241 227
3 225 206 210
3 241 209 227
3 209 241 245
3 225 210 244
3 245 212 209
3 229 212 245
3 228 229 246
3 246 210 228
3 244 210 246
3 229 211 212
3 229 228 211
3 230 233 231
3 230 214 233
3 214 234 233
3 232 234 214
3 219 234 232
3 236 218 231
3 233 247 236
3 233 236 231
3 234 219 248
3 219 220 248
3 218 237 235
3 236 249 237
3 218 236 237
3 248 220 238
3 235 237 223
3 248 238 240
3 249 239 237
3 237 239 224
3 240 238 225
3 241 224 239
3 239 242 241
3 225 244 240
3 244 243 240
3 241 242 245
3 242 229 245
3 242 243 229
3 243 246 229
3 246 243 244
3 234 247 233
3 236 247 249
3 234 250 247
3 234 248 250
3 247 251 249
3 247 250 251
3 249 251 239
3 248 240 250
3 251 242 239
3 243 242 251
3 250 243 251
3 250 240 243
