ply
format ascii 1.0
element vertex 252
property float x
property float y
property float z
element face 500
property list uchar int vertex_indices
end_header
-0.042876 -0.185986 -0.732081
-0.054322 -0.175598 -0.671213
-0.052898 -0.181229 0.734276
-0.041872 -0.182693 0.817436
-0.066026 -0.120064 -0.739147
-0.070535 -0.135396 -0.652497
-0.070195 -0.138900 0.741319
-0.064914 -0.122764 0.819388
-0.081349 -0.093220 -0.666533
-0.081383 -0.105874 0.739893
-0.079724 -0.035689 -0.743189
-0.088636 -0.055495 -0.656876
-0.082847 -0.062263 0.805794
-0.090062 -0.034636 -0.649598
-0.087399 -0.019094 0.819581
-0.083872 0.018728 -0.716595
-0.094611 0.030238 0.744287
-0.081285 0.037913 0.824130
-0.073820 0.074473 -0.746668
-0.085759 0.072340 -0.664074
-0.092072 0.053357 0.732768
-0.079839 0.099091 -0.672140
-0.083652 0.090617 0.729522
-0.064828 0.118145 0.816607
-0.057204 0.150414 -0.724100
-0.068445 0.136573 -0.652243
-0.071218 0.136138 0.731739
-0.050056 0.190635 -0.664712
-0.054821 0.175237 0.751850
-0.037687 0.181140 0.796728
0.026961 -0.270254 -0.663098
0.026961 -0.288703 0.792615
-0.018284 -0.209892 -0.734098
-0.042148 -0.195803 -0.651518
-0.023682 -0.215298 -0.665084
-0.022319 -0.210974 0.737247
-0.042567 -0.192006 0.749732
0.026070 -0.226451 0.821765
-0.035096 -0.176180 -0.760956
0.043940 -0.185456 -0.821333
-0.039767 -0.178268 0.830121
0.036736 -0.137190 -0.842992
-0.033436 -0.127367 0.853747
-0.039172 -0.105187 -0.796585
-0.040686 -0.085815 0.867503
-0.046784 -0.041003 -0.805415
-0.051281 -0.049412 0.877226
-0.035311 -0.016426 0.888430
-0.054488 0.034855 -0.795092
-0.034974 0.019044 0.889844
-0.034312 0.080666 0.869928
-0.039902 0.124913 -0.783965
-0.034676 0.139396 0.846911
-0.025476 0.188371 -0.751829
0.037123 0.184056 -0.811558
-0.045866 0.197188 -0.677966
-0.041679 0.198750 0.729331
-0.009157 0.221874 -0.718505
-0.034411 0.209701 -0.655403
-0.019084 0.217463 0.757621
0.013658 0.213838 0.806615
0.027640 0.264845 -0.665270
0.020767 0.275504 0.759412
0.026960 -0.270255 -0.663097
0.059264 -0.264499 0.031927
0.054921 -0.256138 0.133712
0.056748 -0.268140 0.587164
0.026672 -0.289100 0.788876
0.035346 -0.216956 -0.772780
0.114250 -0.245583 -0.726728
0.067127 -0.257450 0.049477
0.069745 -0.239965 0.192209
0.073916 -0.243145 0.493626
0.068701 -0.260014 0.571616
0.034392 -0.221546 0.826190
0.047168 -0.198487 -0.815046
0.116153 -0.200356 -0.812907
0.110981 -0.220967 0.104463
0.110216 -0.199532 0.199493
0.111592 -0.201045 0.435108
0.113116 -0.215921 0.512240
0.028698 -0.159751 0.856529
0.043848 -0.092310 -0.866672
0.042343 -0.104349 0.881649
0.033677 -0.054473 -0.871739
0.031726 -0.067294 0.893811
0.041242 -0.017977 -0.880788
0.045278 0.036994 -0.873976
0.190221 0.012401 0.889928
0.083194 0.066450 0.894455
0.038278 0.107936 -0.851088
0.082925 0.102742 0.883027
0.039351 0.153739 0.858687
0.033556 0.226127 -0.762498
0.118470 0.222024 -0.819491
0.120358 0.210186 0.106123
0.111254 0.199300 0.195753
0.120994 0.190261 0.434868
0.107876 0.217726 0.495799
0.037968 0.266521 -0.671308
0.116277 0.252484 -0.735849
0.056334 0.266821 0.032755
0.066783 0.258411 0.049257
0.069277 0.246027 0.128931
0.050244 0.257564 0.514012
0.049709 0.268686 0.602848
0.059539 0.261160 0.570590
0.020659 0.275524 0.759100
0.116674 -0.264190 -0.660183
0.119156 -0.262866 -0.130327
0.114020 -0.254955 -0.035629
0.118635 -0.254551 0.656688
0.097502 -0.257192 0.735511
0.132754 -0.259621 -0.656939
0.133670 -0.256534 -0.118008
0.124475 -0.234879 0.034682
0.126191 -0.237907 0.592235
0.138189 -0.211026 0.808899
0.188760 -0.197530 0.038942
0.175449 -0.194968 0.574667
0.116881 -0.143046 -0.859638
0.156692 -0.161206 0.123090
0.144926 -0.146237 0.182315
0.127716 -0.179475 0.423018
0.160595 -0.152304 0.492743
0.106878 -0.159940 0.856791
0.147092 -0.137908 0.412196
0.107810 -0.099796 -0.880143
0.185839 -0.081561 0.127042
0.161573 -0.089242 0.208352
0.161231 -0.101860 0.437196
0.186914 -0.092022 0.497833
0.118906 -0.058362 -0.892149
0.174886 -0.036638 0.182636
0.169871 -0.060034 0.427800
0.200876 -0.027914 0.495496
0.115997 -0.019097 -0.897890
0.208109 -0.007991 0.117964
0.171607 -0.022382 0.418464
0.113999 0.020947 -0.897514
0.174661 0.024736 0.196208
0.174414 0.017241 0.440537
0.195191 0.049814 0.494024
0.124420 0.059676 -0.893354
0.196238 0.064196 0.125300
0.169111 0.060040 0.185751
0.168356 0.051474 0.418333
0.117187 0.096395 -0.881547
0.161402 0.098960 0.190910
0.162664 0.091392 0.434529
0.173328 0.122618 0.494409
0.105540 0.152086 -0.857808
0.162805 0.146843 0.128592
0.146366 0.139126 0.201629
0.138964 0.155926 0.419648
0.104616 0.156194 0.859839
0.129263 0.176148 0.183163
0.149197 0.181918 0.499830
0.141788 0.225466 -0.814228
0.169759 0.212142 0.037978
0.116809 0.239095 0.580006
0.165289 0.216077 0.582578
0.116988 0.216073 0.818448
0.145240 0.228463 0.801903
0.118291 0.268285 -0.665181
0.136536 0.262910 -0.647665
0.104373 0.272042 -0.115686
0.132021 0.262895 -0.048812
0.122156 0.263764 -0.033114
0.119386 0.248047 0.628999
0.120952 0.249079 0.729300
0.183560 -0.212872 -0.743691
0.185619 -0.212099 -0.040840
0.191058 -0.207652 0.644727
0.185738 -0.211455 0.736226
0.194264 -0.184790 -0.817525
0.226096 -0.176219 -0.731330
0.191598 -0.186758 0.813691
0.195727 -0.143766 -0.845599
0.221979 -0.161964 -0.803785
0.226150 -0.174120 -0.048748
0.208156 -0.175302 0.033801
0.210122 -0.155566 0.584744
0.230784 -0.162493 0.667667
0.239112 -0.152793 0.733083
0.186526 -0.158716 0.841427
0.227976 -0.137469 0.808804
0.247797 -0.130657 -0.731921
0.245813 -0.134228 -0.020737
0.233292 -0.112757 0.037981
0.189332 -0.076530 -0.872163
0.245651 -0.089682 -0.809713
0.260274 -0.092858 -0.745442
0.255178 -0.106445 -0.046558
0.240147 -0.081680 0.589436
0.260040 -0.104512 0.735308
0.192830 -0.089219 0.863741
0.254911 -0.084485 0.810414
0.270036 -0.050007 -0.740901
0.248508 -0.056663 0.030296
0.270381 -0.067179 0.743435
0.257545 -0.051146 0.828780
0.196022 -0.017928 -0.882555
0.258392 -0.025554 -0.817143
0.276363 -0.010380 -0.729848
0.258531 -0.015567 0.043473
0.260289 -0.020983 0.587095
0.266993 -0.014003 0.810358
0.194815 -0.020608 0.886814
0.194740 0.019835 -0.884155
0.261761 0.012971 -0.816141
0.275703 0.025541 -0.748022
0.256264 0.022401 0.033094
0.259214 0.012746 0.585888
0.264740 0.020524 0.815300
0.195592 0.059264 -0.878975
0.256870 0.051513 -0.816382
0.269426 0.062506 -0.728031
0.253269 0.057782 0.033534
0.252426 0.049685 0.577261
0.267596 0.068363 0.690266
0.209397 0.050433 0.879755
0.244440 0.088252 0.814738
0.195701 0.099601 -0.868875
0.247613 0.089746 -0.817997
0.257695 0.104366 -0.756077
0.251772 0.105961 -0.051760
0.226643 0.125694 0.035757
0.233944 0.104773 0.592232
0.260003 0.102525 0.701652
0.191109 0.084119 0.875557
0.178344 0.149232 -0.853844
0.230126 0.138028 -0.808526
0.247499 0.133112 -0.735845
0.243849 0.131140 -0.044169
0.232775 0.155873 0.656258
0.235565 0.157213 0.733458
0.189937 0.137940 0.848513
0.221893 0.156565 0.808434
0.197183 0.181490 -0.818457
0.226247 0.172488 -0.712402
0.221894 0.174786 -0.031416
0.185141 0.185290 0.061340
0.198730 0.190881 0.032336
0.204605 0.172756 0.583327
0.190132 0.200116 0.583035
0.185334 0.194202 0.815859
0.186981 0.212478 -0.750057
0.191458 0.219052 -0.117935
0.183884 0.219496 -0.017602
0.192556 0.208267 0.658369
0.192972 0.206668 0.763636
3 0 1 33
3 33 2 36
3 1 2 33
3 2 3 36
3 4 0 38
3 0 4 1
3 1 4 5
3 1 5 2
3 2 5 6
3 2 6 3
3 3 6 7
3 40 7 42
3 3 7 40
3 43 4 38
3 5 4 8
3 5 8 6
3 6 8 9
3 6 9 7
3 42 7 44
3 45 4 43
3 10 4 45
3 4 10 8
3 8 10 11
3 8 11 9
3 9 11 12
3 9 12 7
3 44 12 46
3 7 12 44
3 11 10 13
3 11 13 12
3 12 13 14
3 46 14 47
3 12 14 46
3 48 10 45
3 15 10 48
3 10 15 13
3 13 15 16
3 13 16 14
3 14 16 17
3 47 17 49
3 14 17 47
3 18 15 48
3 15 18 19
3 15 19 20
3 15 20 16
3 16 20 17
3 49 17 50
3 51 18 48
3 19 18 21
3 19 21 22
3 19 22 20
3 20 22 17
3 17 22 23
3 17 23 50
3 24 18 51
3 18 24 21
3 21 24 25
3 21 25 22
3 22 25 26
3 22 26 23
3 50 23 52
3 53 24 51
3 25 24 27
3 25 27 26
3 26 27 28
3 26 28 23
3 23 28 29
3 23 29 52
3 24 55 27
3 53 55 24
3 55 56 27
3 27 56 28
3 56 29 28
3 30 31 63
3 63 31 64
3 64 31 65
3 65 31 66
3 66 31 67
3 68 30 63
3 68 32 30
3 32 34 30
3 30 34 31
3 31 34 35
3 67 37 74
3 67 31 37
3 31 35 37
3 32 38 0
3 68 38 32
3 68 39 38
3 68 75 39
3 34 32 0
3 33 34 0
3 35 34 33
3 36 35 33
3 37 35 36
3 3 37 36
3 3 74 37
3 3 40 74
3 40 81 74
3 39 41 38
3 81 40 42
3 43 41 82
3 38 41 43
3 81 42 83
3 83 42 44
3 84 43 82
3 45 43 84
3 83 44 85
3 85 44 46
3 86 45 84
3 85 46 47
3 87 45 86
3 48 45 87
3 88 47 49
3 88 49 89
3 89 49 50
3 90 48 87
3 51 48 90
3 89 50 91
3 91 50 92
3 92 50 52
3 54 51 90
3 51 54 53
3 93 57 53
3 54 93 53
3 55 53 57
3 58 55 57
3 56 55 58
3 59 56 58
3 29 56 59
3 60 29 59
3 60 52 29
3 60 92 52
3 99 57 93
3 99 61 57
3 61 58 57
3 58 61 62
3 58 62 59
3 60 62 107
3 60 59 62
3 99 101 61
3 61 101 62
3 101 104 62
3 104 105 62
3 105 107 62
3 63 108 69
3 108 63 109
3 63 64 109
3 109 64 110
3 110 64 70
3 65 70 64
3 66 71 65
3 72 71 66
3 73 72 66
3 73 66 111
3 111 66 112
3 66 67 112
3 69 76 68
3 69 68 63
3 110 70 115
3 77 115 70
3 77 70 65
3 65 71 77
3 71 78 77
3 71 72 78
3 72 79 78
3 72 80 79
3 116 80 73
3 73 80 72
3 73 111 116
3 112 67 74
3 117 112 74
3 76 39 75
3 76 120 39
3 76 75 68
3 117 74 125
3 125 74 81
3 120 41 39
3 120 127 41
3 127 82 41
3 125 81 83
3 127 132 82
3 132 84 82
3 132 136 84
3 136 86 84
3 136 139 86
3 139 87 86
3 139 143 87
3 143 147 87
3 147 90 87
3 147 151 90
3 155 91 92
3 151 54 90
3 54 151 94
3 54 94 93
3 155 92 162
3 162 92 60
3 94 100 93
3 93 100 99
3 102 95 103
3 95 96 103
3 96 97 103
3 97 98 103
3 98 160 106
3 98 106 104
3 160 169 106
3 107 170 162
3 60 107 162
3 100 164 99
3 164 166 99
3 99 166 101
3 166 168 101
3 102 101 168
3 103 101 102
3 104 101 103
3 98 104 103
3 105 104 106
3 169 105 106
3 169 170 105
3 105 170 107
3 113 69 108
3 109 113 108
3 114 113 109
3 110 114 109
3 76 69 171
3 69 113 171
3 113 114 171
3 171 114 172
3 114 110 172
3 172 115 118
3 172 110 115
3 115 77 118
3 116 119 80
3 116 173 119
3 116 111 173
3 111 112 174
3 173 111 174
3 174 112 117
3 175 178 76
3 178 120 76
3 76 171 175
3 181 77 121
3 118 77 181
3 78 121 77
3 122 121 78
3 123 122 78
3 79 123 78
3 80 123 79
3 124 123 80
3 124 119 182
3 80 119 124
3 174 117 177
3 117 185 177
3 117 125 185
3 123 126 122
3 123 124 126
3 178 190 120
3 190 127 120
3 121 122 128
3 122 129 128
3 122 126 129
3 126 130 129
3 126 124 130
3 124 131 130
3 124 182 131
3 185 125 196
3 196 125 83
3 190 132 127
3 129 133 128
3 129 134 133
3 129 130 134
3 130 131 134
3 131 135 134
3 196 83 85
3 190 202 132
3 202 136 132
3 128 133 137
3 134 138 133
3 134 135 138
3 196 85 208
3 208 85 47
3 202 209 136
3 209 139 136
3 133 140 137
3 133 138 140
3 138 141 140
3 138 135 141
3 135 142 141
3 208 47 88
3 209 215 139
3 215 143 139
3 137 140 144
3 140 145 144
3 140 146 145
3 140 141 146
3 141 142 146
3 221 88 89
3 215 223 143
3 223 147 143
3 145 148 144
3 145 146 148
3 146 149 148
3 146 142 149
3 142 150 149
3 221 89 230
3 230 89 91
3 223 231 147
3 231 151 147
3 152 227 144
3 144 148 152
3 148 153 152
3 148 149 153
3 149 154 153
3 149 150 154
3 230 91 237
3 237 91 155
3 242 227 152
3 153 156 152
3 153 154 156
3 150 157 154
3 150 244 157
3 158 231 239
3 158 94 231
3 94 151 231
3 239 247 158
3 249 243 159
3 242 152 95
3 242 95 159
3 242 159 243
3 156 95 152
3 96 95 156
3 154 96 156
3 97 96 154
3 157 97 154
3 98 97 157
3 157 161 98
3 157 245 161
3 157 244 245
3 245 250 161
3 251 246 163
3 246 162 163
3 246 237 162
3 237 155 162
3 158 100 94
3 158 247 100
3 100 247 165
3 247 248 165
3 165 248 167
3 248 249 167
3 159 102 168
3 249 159 168
3 249 168 167
3 159 95 102
3 161 160 98
3 161 169 160
3 161 250 169
3 250 251 170
3 169 250 170
3 163 162 170
3 251 163 170
3 164 100 165
3 166 164 165
3 167 166 165
3 168 166 167
3 172 176 171
3 175 179 178
3 171 179 175
3 171 176 179
3 176 172 180
3 118 181 172
3 181 180 172
3 173 182 119
3 173 183 182
3 173 174 183
3 174 184 183
3 177 186 174
3 186 184 174
3 177 185 186
3 176 187 179
3 176 180 187
3 180 188 187
3 180 181 188
3 181 189 188
3 181 121 189
3 191 178 179
3 190 178 191
3 179 187 191
3 187 192 191
3 187 193 192
3 187 188 193
3 188 189 193
3 121 128 189
3 131 182 194
3 182 183 194
3 183 195 194
3 183 184 195
3 184 186 195
3 186 197 195
3 186 196 197
3 185 196 186
3 192 198 191
3 192 193 198
3 193 199 198
3 193 189 199
3 189 128 199
3 135 131 194
3 195 200 194
3 195 197 200
3 197 201 200
3 197 196 201
3 203 190 191
3 202 190 203
3 191 198 203
3 198 204 203
3 198 199 204
3 199 205 204
3 199 137 205
3 128 137 199
3 206 135 194
3 194 200 206
3 200 207 206
3 200 201 207
3 201 208 207
3 196 208 201
3 210 202 203
3 209 202 210
3 203 204 210
3 204 211 210
3 204 212 211
3 204 205 212
3 205 137 212
3 213 135 206
3 142 135 213
3 206 207 213
3 207 214 213
3 207 88 214
3 208 88 207
3 216 209 210
3 215 209 216
3 210 211 216
3 211 217 216
3 211 212 217
3 212 218 217
3 212 144 218
3 137 144 212
3 219 142 213
3 213 220 219
3 213 214 220
3 214 222 220
3 214 221 222
3 88 221 214
3 224 215 216
3 223 215 224
3 216 217 224
3 217 225 224
3 217 226 225
3 217 218 226
3 218 227 226
3 218 144 227
3 228 142 219
3 150 142 228
3 219 220 228
3 220 229 228
3 220 222 229
3 221 230 222
3 232 223 224
3 231 223 232
3 224 225 232
3 225 233 232
3 225 226 233
3 226 234 233
3 226 227 234
3 229 235 228
3 229 236 235
3 229 222 236
3 222 238 236
3 222 237 238
3 230 237 222
3 233 240 232
3 233 234 240
3 234 241 240
3 234 227 241
3 227 243 241
3 227 242 243
3 244 150 228
3 228 235 244
3 232 239 231
3 239 232 247
3 232 240 247
3 240 248 247
3 240 241 248
3 241 249 248
3 249 241 243
3 245 244 250
3 244 235 250
3 235 236 250
3 236 251 250
3 251 238 246
3 251 236 238
3 238 237 246
