ply
format ascii 1.0
element vertex 252
property float x
property float y
property float z
element face 500
property list uchar int vertex_indices
end_header
-0.637942 -0.193792 0.519549
-0.673104 -0.157066 0.573607
-0.678731 -0.129370 0.514752
-0.704707 -0.075937 0.579835
-0.710722 -0.012290 0.527045
-0.712285 0.039108 0.573184
-0.674874 0.113873 0.502203
-0.662910 0.151134 0.583010
-0.642001 0.188388 0.521955
-0.571861 -0.225037 0.497021
-0.575417 -0.178719 0.430189
-0.625191 -0.132946 0.602471
-0.647400 0.028676 0.609853
-0.597769 -0.032982 0.394992
-0.639752 0.145509 0.607439
-0.577281 0.194558 0.455744
-0.580136 0.221072 0.505183
-0.586760 -0.212957 0.544740
0.041353 -0.048441 0.613832
-0.574538 0.097842 0.385068
0.002233 0.186168 0.557430
-0.571122 0.217853 0.531103
-0.472578 -0.236171 0.487448
-0.506748 -0.219603 0.425935
-0.484255 -0.184762 0.378262
-0.439127 -0.100915 0.315840
-0.517477 -0.082268 0.345692
-0.519311 0.049051 0.340313
0.046433 0.012105 0.617451
-0.423731 0.128329 0.325005
0.038447 0.092160 0.597812
-0.503290 0.150686 0.366404
-0.489919 0.230619 0.490061
-0.011578 -0.190525 0.563082
0.041518 -0.130519 0.601153
-0.361368 -0.109431 0.321584
-0.414168 0.004379 0.294388
-0.345437 0.085055 0.305737
-0.362998 0.197132 0.380178
-0.199591 -0.239641 0.455156
-0.353144 -0.214222 0.407748
-0.337101 -0.001946 0.291565
-0.344171 0.232554 0.409815
-0.224821 -0.228173 0.429917
-0.206188 -0.164664 0.379680
-0.194861 -0.069587 0.340541
-0.193663 -0.001595 0.333287
-0.199506 0.113178 0.358387
-0.252806 0.203314 0.396832
-0.282054 0.225844 0.412780
-0.073346 0.237947 0.476504
-0.127779 -0.040280 0.337332
-0.121173 0.120036 0.353022
-0.184900 0.198519 0.407350
-0.041507 -0.243193 0.442008
-0.127297 -0.196216 0.388131
-0.012941 -0.193674 -0.986722
-0.021246 -0.184761 -0.454808
-0.042080 -0.181833 0.336052
-0.022813 -0.127237 -1.106608
-0.074759 -0.096969 -1.016502
-0.068257 -0.100986 -0.420624
-0.073749 -0.008202 -1.128337
-0.082885 -0.035265 -0.433569
-0.017315 -0.085361 0.304827
-0.090050 0.037846 -1.055002
-0.035099 -0.001512 0.299690
-0.080489 0.044586 -0.409909
-0.009456 0.124420 0.315470
-0.050396 0.126178 -1.104817
-0.068304 0.144708 -1.030759
-0.072200 0.112991 -0.421206
-0.020840 0.188567 -0.989988
-0.027040 0.194987 -0.471269
-0.052144 0.198660 0.368488
-0.096705 0.217897 0.415544
-0.020678 -0.238487 0.503067
0.001230 -0.233269 -0.800234
0.045805 -0.258143 -0.534397
-0.028246 -0.220683 0.371269
0.044338 -0.199150 0.342148
0.030303 -0.204107 -0.337987
0.025467 -0.171152 -0.279001
0.053121 -0.173561 -0.200172
-0.049904 -0.064476 -0.348338
-0.018264 -0.043842 -0.260629
0.002751 -0.047706 -0.195908
0.051062 -0.124847 -0.120158
-0.033089 0.018178 -1.156720
0.024463 0.046533 -0.139753
-0.006994 0.062612 -0.232752
-0.047214 0.090833 -0.341883
0.050649 0.175638 -0.193609
0.023826 0.179455 -0.279110
-0.001804 0.235056 -0.819378
-0.018760 0.243624 0.430933
0.040882 0.245681 -0.741150
0.071585 0.240302 0.430788
0.060653 -0.240769 -0.751173
0.110220 -0.224762 0.430807
0.125837 -0.220732 -0.718608
0.099134 -0.259830 -0.412332
0.109575 -0.251955 -0.294238
0.052445 -0.219446 0.511803
0.013482 -0.177884 -1.058742
0.027860 -0.178627 -0.996621
0.036392 -0.199629 -0.892964
0.106719 -0.197702 -0.790727
0.029035 -0.124309 -1.110382
0.123111 -0.138881 0.549057
0.075084 -0.077354 -1.040087
0.111156 -0.169173 -0.035303
0.152717 -0.129530 0.051859
0.083396 -0.101576 -0.970808
0.139875 -0.113355 -0.834299
0.073719 -0.062804 -0.033648
0.099179 -0.026058 0.019811
0.214598 -0.083689 0.251012
0.026409 -0.014578 -1.152608
0.062479 0.003306 -1.121979
0.124852 0.015486 0.576905
0.112522 0.031390 -0.948023
0.191188 -0.013198 0.245591
0.075428 0.076836 -1.054387
0.088934 0.120096 -0.024832
0.117793 0.082269 0.037103
0.196898 0.061876 0.252377
0.013033 0.124105 -1.101989
0.099609 0.136036 -0.900095
0.056753 0.150464 -0.108461
0.178579 0.154792 0.298979
0.124169 0.139499 0.550141
0.044119 0.161672 -0.996133
0.151812 0.162814 0.034855
0.033240 0.208011 -0.892054
0.038344 0.228570 -0.366192
0.030411 0.216064 0.365473
0.121157 0.198064 0.506046
0.098529 0.192691 -0.807782
0.123259 0.208065 -0.726668
0.103583 0.255192 -0.290116
0.037081 0.233331 0.500069
0.051994 0.262883 -0.649539
0.052955 0.260301 -0.475300
0.121137 -0.260370 -0.562867
0.178160 -0.231965 -0.580577
0.204946 -0.234588 -0.457333
0.169323 -0.260330 -0.158065
0.175052 -0.218767 0.378189
0.192074 -0.182352 -0.655328
0.146633 -0.226927 -0.074240
0.183554 -0.214627 0.019555
0.180538 -0.112666 -0.756231
0.220547 -0.060925 0.203050
0.175008 -0.038689 -0.809204
0.156395 -0.041717 0.097853
0.207501 0.036369 -0.742887
0.153069 0.084963 -0.827250
0.208569 0.018252 0.197956
0.120660 0.199427 -0.050897
0.115690 0.260755 -0.580553
0.169363 0.215636 -0.648889
0.175948 0.262452 -0.142347
0.238692 0.243031 0.030887
0.208125 0.209826 0.362527
0.149721 0.259491 -0.389754
0.185618 -0.264368 -0.342388
0.196617 -0.272833 -0.229386
0.292060 -0.261959 0.060129
0.180766 -0.219052 0.424437
0.332587 -0.221100 0.187356
0.193350 -0.154193 0.492867
0.234701 -0.180386 -0.521764
0.276355 -0.151817 -0.433064
0.183179 -0.173741 0.313543
0.261768 -0.185293 0.416838
0.238294 -0.095059 -0.641078
0.284167 -0.052609 -0.504944
0.204240 -0.037087 0.530890
0.277492 -0.055990 0.491586
0.250161 -0.006560 -0.660988
0.277177 0.086706 -0.506799
0.258039 0.057500 0.493868
0.247775 0.061273 -0.653504
0.262977 0.135916 0.216645
0.190679 0.136335 0.502053
0.205075 0.159239 -0.655231
0.247534 0.160089 -0.512141
0.261396 0.177009 -0.427747
0.337641 0.221308 0.192608
0.270761 0.181055 0.412802
0.205801 0.215477 -0.511866
0.188422 0.209520 0.433900
0.195993 0.273053 -0.249069
0.290535 0.242811 -0.196663
0.318925 -0.264145 -0.078673
0.318099 -0.270899 0.021607
0.273262 -0.203537 -0.338949
0.283549 -0.244847 -0.213818
0.351021 -0.174536 -0.205066
0.280515 -0.203163 0.335611
0.342996 -0.122408 -0.268674
0.267593 -0.139098 0.213322
0.293315 -0.184108 0.264195
0.365004 -0.116466 0.423416
0.329524 -0.071649 -0.354173
0.314400 -0.058334 -0.422830
0.315273 0.059221 -0.413274
0.312737 0.134629 -0.362638
0.336356 0.125055 -0.294206
0.370246 0.132561 -0.208664
0.276091 0.182296 0.273134
0.357686 0.152944 0.399446
0.286653 0.208508 0.338769
0.266842 0.212032 -0.317140
0.313728 0.268158 -0.083316
0.333859 0.271058 0.028558
0.413686 -0.220733 -0.053956
0.384591 -0.257321 0.116720
0.415852 -0.247868 0.040711
0.363531 -0.214241 0.266442
0.352410 -0.184713 0.354690
0.432088 -0.181252 0.270895
0.359178 -0.034364 -0.280165
0.397841 -0.039818 -0.199970
0.403912 -0.034946 0.432685
0.343577 0.053683 -0.328492
0.375089 0.068547 0.435032
0.433649 0.034977 0.396664
0.360053 0.055839 -0.266172
0.399438 0.123896 0.387074
0.413781 0.220195 -0.057151
0.361946 0.216376 0.257976
0.434098 0.169052 0.275809
0.347979 0.190651 0.351463
0.382600 0.257018 0.116238
0.412553 0.251396 0.041260
0.443012 -0.232551 0.119250
0.415482 -0.223923 0.206931
0.464421 -0.169436 -0.016614
0.491590 -0.146284 0.177123
0.432039 -0.081783 0.376756
0.509115 -0.064381 0.255962
0.485517 0.058610 -0.106463
0.504870 0.030227 0.271392
0.485023 0.160969 -0.024393
0.490142 0.153267 0.173719
0.440541 0.235800 0.119383
0.415305 0.226430 0.197136
0.509514 -0.034962 -0.031271
0.530822 -0.002659 0.192419
0.524737 0.082992 -0.018854
3 0 2 1
3 1 2 3
3 1 3 11
3 2 4 3
3 11 3 12
3 13 4 2
3 3 4 5
3 3 5 12
3 6 4 13
3 4 6 5
3 5 6 7
3 12 7 14
3 5 7 12
3 6 8 7
3 9 10 0
3 9 0 17
3 17 0 1
3 1 11 17
3 2 10 13
3 0 10 2
3 18 11 12
3 6 13 19
3 15 6 19
3 6 15 8
3 20 14 7
3 15 16 8
3 16 21 8
3 8 21 7
3 20 7 21
3 9 22 23
3 9 17 22
3 10 23 24
3 23 10 9
3 24 26 10
3 26 13 10
3 26 27 13
3 27 19 13
3 18 12 28
3 30 12 14
3 27 31 19
3 31 15 19
3 32 16 15
3 21 16 32
3 17 11 33
3 24 25 26
3 34 11 18
3 36 26 25
3 27 26 36
3 29 27 36
3 27 29 31
3 15 31 38
3 31 29 38
3 38 32 15
3 40 23 22
3 39 40 22
3 35 24 40
3 40 24 23
3 24 35 25
3 36 35 41
3 25 35 36
3 37 36 41
3 36 37 29
3 29 37 38
3 32 38 42
3 20 21 32
3 43 40 39
3 39 22 33
3 33 22 17
3 44 40 43
3 44 35 40
3 44 45 35
3 45 46 41
3 35 45 41
3 46 47 37
3 41 46 37
3 38 37 47
3 47 48 38
3 38 48 49
3 49 42 38
3 50 20 32
3 49 32 42
3 48 47 53
3 53 49 48
3 55 43 39
3 54 55 39
3 55 44 43
3 34 33 11
3 55 51 44
3 51 45 44
3 45 51 46
3 51 52 47
3 46 51 47
3 52 53 47
3 52 75 53
3 53 75 50
3 49 53 50
3 50 32 49
3 39 76 54
3 55 54 79
3 76 39 33
3 56 57 77
3 79 58 55
3 59 60 56
3 56 60 57
3 57 60 61
3 57 61 84
3 64 55 58
3 51 55 64
3 62 59 88
3 59 62 60
3 61 60 63
3 61 63 84
3 60 62 65
3 60 65 63
3 64 66 51
3 63 65 67
3 63 67 84
3 84 67 91
3 66 68 52
3 51 66 52
3 69 62 88
3 62 69 65
3 65 69 70
3 65 70 67
3 67 70 71
3 67 71 91
3 28 12 30
3 91 71 73
3 72 70 69
3 70 72 71
3 71 72 73
3 74 52 68
3 30 14 20
3 94 73 72
3 52 74 75
3 95 75 74
3 75 95 50
3 98 77 78
3 106 77 98
3 77 57 78
3 99 79 54
3 99 80 79
3 76 103 54
3 99 54 103
3 76 33 103
3 59 104 108
3 56 104 59
3 104 56 105
3 105 56 106
3 56 77 106
3 80 58 79
3 80 64 58
3 84 81 57
3 81 84 82
3 82 84 85
3 82 85 83
3 83 85 86
3 83 86 87
3 108 118 59
3 118 88 59
3 87 86 89
3 117 122 64
3 122 66 64
3 86 85 90
3 86 90 89
3 84 91 85
3 85 91 90
3 122 126 66
3 126 68 66
3 118 127 88
3 127 69 88
3 90 92 89
3 68 126 130
3 90 91 93
3 90 93 92
3 129 89 92
3 130 136 68
3 127 72 69
3 132 72 127
3 132 134 72
3 134 94 72
3 73 135 91
3 135 93 91
3 74 68 136
3 134 96 94
3 94 96 73
3 135 73 143
3 136 97 95
3 136 95 74
3 50 95 141
3 97 141 95
3 141 20 50
3 96 142 73
3 142 143 73
3 100 98 144
3 98 78 144
3 101 78 57
3 101 144 78
3 98 107 106
3 98 100 107
3 57 81 101
3 101 81 102
3 102 83 147
3 147 83 150
3 80 99 148
3 82 102 81
3 83 102 82
3 83 87 150
3 150 87 111
3 109 99 103
3 33 109 103
3 104 110 108
3 104 105 110
3 33 34 109
3 105 113 110
3 105 106 113
3 106 114 113
3 106 107 114
3 87 115 111
3 111 115 112
3 112 115 116
3 118 108 119
3 108 110 119
3 112 116 155
3 109 18 120
3 34 18 109
3 113 121 110
3 113 114 121
3 89 115 87
3 110 123 119
3 110 121 123
3 155 116 125
3 18 28 120
3 124 115 89
3 115 124 116
3 116 124 125
3 127 118 119
3 119 123 127
3 120 30 131
3 28 30 120
3 121 132 123
3 121 128 132
3 89 129 124
3 125 124 133
3 127 123 132
3 128 134 132
3 128 138 134
3 124 129 159
3 137 131 20
3 30 20 131
3 140 93 135
3 92 93 140
3 92 159 129
3 141 137 20
3 138 96 134
3 138 139 96
3 139 160 142
3 139 142 96
3 162 92 140
3 92 162 159
3 97 136 164
3 137 141 97
3 142 160 143
3 143 165 135
3 143 160 165
3 165 140 135
3 144 145 100
3 146 145 144
3 101 146 144
3 146 101 166
3 101 102 166
3 166 102 167
3 147 167 102
3 100 145 149
3 148 99 169
3 99 171 169
3 152 107 100
3 100 149 152
3 150 111 151
3 151 111 112
3 174 80 148
3 171 99 109
3 107 152 114
3 174 64 80
3 171 109 178
3 114 152 154
3 155 153 112
3 174 117 64
3 178 109 120
3 114 154 121
3 152 156 154
3 154 157 121
3 154 156 157
3 125 158 155
3 121 157 128
3 178 120 185
3 133 158 125
3 185 120 131
3 138 128 157
3 156 139 157
3 157 139 138
3 133 124 159
3 185 131 137
3 139 186 161
3 133 159 163
3 133 163 189
3 164 136 130
3 185 137 192
3 161 160 139
3 161 191 160
3 160 191 165
3 162 163 159
3 192 97 164
3 192 137 97
3 165 193 140
3 140 193 162
3 167 147 195
3 150 196 147
3 196 195 147
3 150 168 196
3 146 166 197
3 166 167 198
3 197 166 198
3 167 195 198
3 151 168 150
3 168 151 170
3 145 172 149
3 145 146 172
3 146 173 172
3 146 197 173
3 112 170 151
3 174 200 203
3 148 200 174
3 148 175 200
3 148 169 175
3 169 171 175
3 173 177 172
3 202 117 203
3 203 117 174
3 175 171 179
3 152 149 176
3 149 172 176
3 172 177 176
3 153 202 112
3 202 153 117
3 171 178 179
3 180 152 176
3 156 152 180
3 176 177 180
3 158 153 155
3 153 158 122
3 117 153 122
3 177 181 180
3 179 178 182
3 183 156 180
3 180 181 183
3 158 184 126
3 122 158 126
3 178 185 182
3 133 184 158
3 186 156 183
3 139 156 186
3 183 187 186
3 183 181 187
3 185 190 182
3 181 188 187
3 189 184 133
3 184 211 126
3 126 211 130
3 161 186 191
3 186 187 191
3 187 188 191
3 211 164 130
3 213 164 211
3 190 192 164
3 190 164 213
3 185 192 190
3 188 165 191
3 188 214 165
3 165 214 193
3 193 214 194
3 215 193 194
3 215 162 193
3 162 215 216
3 216 163 162
3 168 218 196
3 199 197 198
3 198 217 199
3 198 195 217
3 218 168 170
3 197 199 201
3 112 202 170
3 220 170 203
3 170 202 203
3 203 200 220
3 200 221 220
3 175 221 200
3 175 204 221
3 175 179 204
3 197 205 173
3 197 201 205
3 206 177 173
3 205 206 173
3 205 201 223
3 204 179 225
3 207 177 206
3 181 177 207
3 205 226 207
3 206 205 207
3 225 179 227
3 227 179 182
3 226 208 207
3 226 229 209
3 208 226 209
3 227 182 190
3 212 227 190
3 207 188 181
3 188 207 208
3 214 188 208
3 208 209 214
3 209 210 214
3 210 194 214
3 210 231 194
3 232 211 189
3 211 184 189
3 211 232 213
3 232 234 213
3 234 190 213
3 212 190 234
3 194 231 215
3 189 163 235
3 235 163 216
3 219 195 196
3 196 218 219
3 217 195 219
3 219 218 237
3 237 218 238
3 218 170 238
3 220 238 170
3 220 222 238
3 221 222 220
3 239 199 217
3 241 222 221
3 199 224 201
3 224 199 239
3 241 221 204
3 201 224 223
3 225 241 204
3 205 223 226
3 228 241 225
3 225 227 228
3 223 229 226
3 223 224 229
3 224 210 229
3 224 243 210
3 229 210 209
3 243 245 210
3 230 228 227
3 230 227 212
3 231 210 245
3 233 230 234
3 230 212 234
3 233 232 248
3 234 232 233
3 215 231 236
3 235 236 247
3 247 248 235
3 235 248 189
3 248 232 189
3 216 215 236
3 236 235 216
3 217 219 239
3 219 237 239
3 238 240 237
3 238 222 240
3 239 237 240
3 240 222 242
3 222 241 242
3 239 249 224
3 224 249 243
3 242 241 244
3 241 228 244
3 243 251 245
3 244 228 233
3 228 230 233
3 246 244 233
3 245 236 231
3 245 247 236
3 245 246 247
3 246 248 247
3 233 248 246
3 239 240 249
3 240 250 249
3 240 242 250
3 242 244 250
3 251 243 249
3 249 250 251
3 250 246 251
3 250 244 246
3 246 245 251
