ply
format ascii 1.0
element vertex 252
property float x
property float y
property float z
element face 500
property list uchar int vertex_indices
end_header
-0.490585 -0.155267 -0.607551
-0.499000 -0.134559 -0.496110
-0.533936 -0.022192 -0.534915
-0.518983 0.012983 -0.661739
-0.472330 -0.068025 0.392393
-0.455726 0.082627 0.425726
-0.492534 0.151848 -0.640071
-0.482249 0.147582 -0.501012
-0.439288 -0.194329 -0.725127
-0.422570 -0.230859 -0.513150
-0.413414 -0.165940 0.447838
-0.509459 -0.038368 -0.461107
-0.439117 -0.161353 0.323028
-0.408673 -0.135419 -0.832735
-0.479433 -0.057542 -0.745723
-0.449640 -0.067643 0.214010
-0.400976 -0.075223 0.113480
-0.393728 -0.061379 0.583544
-0.419517 0.035503 -0.843830
-0.412357 0.054706 0.137476
-0.457862 0.088592 0.253918
-0.458815 0.116382 -0.769200
-0.408523 0.138550 -0.830717
-0.450907 0.137332 0.288956
-0.435658 0.237427 -0.605857
-0.404096 0.189682 0.411429
-0.424089 0.235677 -0.499385
-0.411686 -0.256768 -0.627778
-0.383711 -0.177719 0.223350
-0.380000 -0.135482 -0.342862
-0.312063 -0.015263 -0.187426
-0.344729 -0.017731 0.655794
-0.395872 0.055088 -0.325093
-0.372508 0.112285 0.586194
-0.332090 0.095047 0.657939
-0.386169 0.173967 0.225580
-0.374449 0.183235 -0.357805
-0.355680 0.198106 -0.786630
-0.328935 0.249918 0.383244
-0.291979 0.321155 -0.602570
-0.284239 -0.321210 -0.583378
-0.335274 -0.225641 -0.782139
-0.273849 -0.267006 -0.374133
-0.316923 -0.250793 0.359777
-0.226359 -0.205788 -0.174832
-0.280202 -0.216552 0.597249
-0.343757 -0.159744 -0.855211
-0.324055 -0.125734 0.149033
-0.261929 -0.171989 0.649512
-0.291472 -0.126765 -0.193341
-0.345291 -0.037573 -0.876235
-0.365982 -0.029932 0.094039
-0.278436 -0.047603 0.135202
-0.306613 0.026274 0.115533
-0.342595 0.103315 -0.861062
-0.324187 0.130290 0.159366
-0.252591 0.151502 -0.136673
-0.258187 0.188720 0.627327
-0.304513 0.240073 0.501978
-0.263169 0.269630 -0.365760
-0.241766 0.299149 -0.710933
-0.158291 -0.326700 -0.652337
-0.282554 -0.240653 0.305750
-0.170080 -0.295534 0.520462
-0.143541 -0.271012 -0.251538
-0.134101 -0.204090 -0.024205
-0.250667 -0.053285 0.696142
-0.234611 -0.082779 -0.062216
-0.270669 -0.083412 -0.121118
-0.179620 -0.098259 0.211709
-0.265054 0.024505 -0.086885
-0.216148 0.066218 -0.028108
-0.283326 0.086441 0.680367
-0.190366 0.072383 0.195196
-0.181479 0.193359 -0.054615
-0.258592 0.235560 0.297314
-0.135885 0.270562 -0.278000
-0.197159 0.284145 0.425393
-0.125279 0.301421 0.521874
-0.179901 0.341062 -0.654273
-0.217032 -0.341634 -0.584249
-0.204084 -0.303531 -0.423278
-0.144396 -0.309670 -0.527329
-0.165872 -0.276516 0.406506
-0.187847 -0.278498 0.590157
-0.094144 -0.271780 -0.092450
-0.127842 -0.165275 0.264785
0.176752 -0.159085 -0.850973
-0.132400 -0.130012 0.737316
0.180676 -0.082114 -0.875278
0.194472 0.025437 -0.870870
-0.153865 0.084998 0.730306
-0.108614 0.161982 0.256884
-0.121900 0.181414 0.710473
0.186111 0.206975 -0.812969
-0.065152 0.197538 0.087188
0.116902 0.245897 -0.822217
-0.112451 0.256197 -0.079631
-0.166264 0.283539 -0.422075
-0.211020 0.340116 -0.585024
-0.027681 -0.301143 -0.620270
-0.113673 -0.254023 -0.329538
0.203208 -0.206208 -0.797093
-0.044766 -0.213753 -0.441280
-0.058490 -0.227772 -0.257659
-0.073283 -0.248242 0.352945
-0.026136 -0.244210 0.308117
-0.086575 -0.275680 0.636410
-0.055961 -0.158947 0.184527
0.037600 -0.202320 0.797260
-0.124151 -0.060454 0.091095
-0.117100 -0.002998 0.223720
-0.075519 0.052790 0.203244
-0.110917 -0.015436 0.771028
-0.075639 0.092179 0.156220
-0.030218 0.194125 0.203357
0.034032 0.086319 0.861191
-0.108752 0.243873 -0.351259
-0.049471 0.233787 -0.254896
-0.105684 0.251721 0.345607
-0.031783 0.250358 0.314384
-0.041494 0.208420 -0.449379
-0.071255 0.299187 0.426734
-0.047243 0.285391 0.637936
-0.076028 0.306631 -0.590752
-0.058947 -0.297779 0.426272
0.073866 -0.276218 -0.046404
0.030717 -0.283339 0.046955
0.039745 -0.271823 0.205392
0.064702 -0.221475 -0.504759
-0.043240 -0.161996 -0.346984
0.029374 -0.099150 -0.415226
0.031153 -0.057302 -0.269707
0.052061 -0.045289 0.872195
0.004996 -0.011810 -0.367284
0.035662 0.051850 -0.408325
-0.004917 0.131944 -0.319782
0.055693 0.213959 0.798716
0.047578 0.196640 -0.496691
0.047348 0.279519 0.052290
0.047327 0.282788 -0.062946
0.035823 0.268231 0.222722
0.105062 -0.348946 0.483559
0.100109 -0.304269 -0.708364
0.128694 -0.294124 0.123945
0.084508 -0.321802 0.654099
0.144905 -0.221138 0.804007
0.119123 -0.189573 -0.141128
0.115032 -0.130122 -0.420585
0.140983 -0.047260 -0.188340
0.115903 0.072322 -0.203065
0.113466 0.089886 -0.418486
0.121068 0.209446 -0.130103
0.121001 0.207839 0.818452
0.103275 0.287991 -0.660322
0.116375 0.290674 0.096909
0.121055 0.358569 0.486661
0.197115 -0.363690 0.592738
0.118758 -0.305691 -0.654221
0.206836 -0.286570 -0.556894
0.241541 -0.244339 0.167330
0.127495 -0.027718 -0.393003
0.118722 0.057189 0.899265
0.203783 0.213986 -0.461717
0.116780 0.275432 -0.024125
0.191288 0.261803 0.091321
0.101932 0.331080 0.651645
0.261007 0.319560 0.384934
0.184743 0.374109 0.593008
0.232103 -0.363937 0.517772
0.293461 -0.287736 -0.617984
0.237131 -0.310648 0.329073
0.179457 -0.193100 -0.081594
0.194649 -0.233507 0.046265
0.312615 -0.239860 0.278468
0.441612 -0.196599 0.822689
0.216956 -0.203183 -0.435225
0.254538 -0.075808 -0.855701
0.221464 -0.097139 -0.366722
0.202007 -0.080060 -0.147359
0.266735 -0.082630 0.008315
0.235079 -0.083292 -0.114342
0.235202 0.034290 -0.108067
0.182610 0.077754 -0.155634
0.261454 0.131351 0.039024
0.281745 0.124839 -0.359016
0.184969 0.190246 -0.084644
0.306591 0.225309 0.240805
0.321894 0.299433 0.722762
0.304843 0.289763 -0.619031
0.273689 0.289345 -0.542117
0.205371 0.380162 0.527535
0.309571 -0.340401 0.608894
0.318891 -0.310967 0.703884
0.325517 -0.259766 -0.465900
0.284491 -0.144747 0.107633
0.353268 -0.130784 0.213909
0.409065 -0.222238 -0.678477
0.398629 -0.072989 -0.768847
0.399710 -0.068214 -0.299812
0.402822 -0.060706 0.890082
0.318398 0.016824 -0.312884
0.321466 -0.010678 0.125391
0.289919 0.044587 -0.838875
0.444033 0.069336 0.887753
0.301465 0.139084 0.130764
0.374296 0.144474 0.269476
0.416658 0.124322 -0.744137
0.411487 0.182522 0.826223
0.381062 0.234133 -0.685761
0.346938 0.216185 -0.394009
0.289656 0.347080 0.616985
0.426914 -0.269087 -0.484757
0.368848 -0.273786 0.470389
0.439219 -0.244586 0.725692
0.455010 -0.182110 -0.340311
0.478266 -0.142758 0.435679
0.404995 0.018317 0.253057
0.439399 0.106605 -0.294952
0.406974 0.118428 0.292656
0.398636 0.265563 -0.478480
0.369002 0.265072 0.489931
0.391254 0.272207 0.723394
0.473888 -0.257388 -0.582628
0.506172 -0.147266 0.791348
0.510440 -0.031415 0.375069
0.510533 -0.035840 -0.301462
0.481788 0.098010 0.425595
0.438095 0.205446 -0.352855
0.497692 0.154629 0.784092
0.486349 0.243543 -0.564567
0.510062 -0.247067 -0.501657
0.511098 -0.191458 -0.371884
0.534561 -0.211889 -0.636626
0.559719 -0.210228 -0.573392
0.584455 -0.181350 -0.432250
0.563126 -0.147391 -0.655286
0.504166 -0.080095 0.866819
0.599188 -0.141819 -0.436313
0.540450 -0.019754 0.459592
0.567042 -0.026970 -0.698835
0.616237 -0.044483 -0.416275
0.542729 0.041014 0.819233
0.600100 0.062129 -0.415808
0.513893 0.063765 0.865983
0.521150 0.106399 -0.305937
0.573425 0.145974 -0.626958
0.516184 0.207838 -0.648584
0.492014 0.185569 -0.354611
0.561688 0.206068 -0.605636
0.571031 0.164449 -0.444194
0.613882 -0.044410 -0.619236
3 1 0 2
3 1 2 11
3 0 3 2
3 11 2 7
3 3 6 2
3 2 6 7
3 8 0 27
3 0 9 27
3 9 0 1
3 13 14 8
3 8 14 0
3 10 12 4
3 0 14 3
3 12 15 4
3 13 18 14
3 16 19 15
3 15 19 20
3 15 20 4
3 14 18 21
3 14 21 3
3 11 7 32
3 4 20 5
3 5 17 4
3 18 22 21
3 3 21 6
3 19 35 20
3 35 23 20
3 23 5 20
3 24 7 6
3 25 5 23
3 5 25 33
3 7 24 26
3 28 12 43
3 12 10 43
3 46 13 41
3 41 13 8
3 9 1 29
3 47 16 28
3 46 50 13
3 11 29 1
3 51 16 47
3 16 15 28
3 12 28 15
3 10 4 17
3 50 18 13
3 32 29 11
3 51 19 16
3 50 54 18
3 29 32 30
3 51 55 19
3 5 33 17
3 17 33 31
3 31 33 34
3 22 18 54
3 36 32 7
3 37 22 54
3 21 22 37
3 55 35 19
3 21 37 6
3 7 26 36
3 23 35 25
3 25 35 38
3 25 58 33
3 37 24 6
3 25 38 58
3 26 24 39
3 40 41 27
3 41 8 27
3 40 27 9
3 40 9 42
3 43 62 28
3 43 10 63
3 10 45 63
3 29 42 9
3 42 29 44
3 44 29 49
3 62 47 28
3 17 45 10
3 51 47 52
3 45 17 48
3 29 30 49
3 49 30 68
3 31 48 17
3 31 66 48
3 68 30 70
3 53 51 52
3 66 31 72
3 72 31 34
3 55 51 53
3 30 32 56
3 30 56 70
3 32 36 56
3 34 33 57
3 34 57 72
3 26 59 36
3 36 59 56
3 35 55 75
3 33 58 57
3 75 38 35
3 60 24 37
3 24 60 39
3 75 77 38
3 38 77 58
3 26 39 59
3 40 80 61
3 61 41 40
3 40 81 80
3 81 40 42
3 64 81 42
3 62 43 83
3 63 83 43
3 63 45 84
3 44 64 42
3 62 83 86
3 45 48 84
3 87 46 41
3 47 62 86
3 66 88 48
3 65 44 67
3 86 69 47
3 68 44 49
3 44 68 67
3 52 47 69
3 89 90 50
3 68 70 67
3 90 54 50
3 67 70 71
3 73 53 52
3 66 72 91
3 70 56 71
3 55 53 73
3 91 72 93
3 71 56 74
3 73 92 55
3 93 72 57
3 94 37 54
3 55 92 75
3 59 76 97
3 59 97 56
3 97 74 56
3 59 98 76
3 58 77 78
3 57 58 78
3 60 79 39
3 99 59 39
3 98 59 99
3 79 99 39
3 61 80 82
3 80 81 82
3 82 81 101
3 81 64 101
3 44 85 64
3 102 41 61
3 85 44 65
3 83 105 86
3 107 84 48
3 48 88 107
3 87 89 46
3 89 50 46
3 86 111 69
3 88 66 113
3 67 71 110
3 111 52 69
3 110 71 114
3 111 73 52
3 113 66 91
3 111 92 73
3 74 95 71
3 74 97 95
3 119 75 92
3 77 75 119
3 93 57 123
3 96 60 37
3 98 117 76
3 122 77 119
3 78 77 122
3 57 78 123
3 100 61 82
3 63 125 83
3 84 107 63
3 100 82 103
3 104 101 64
3 85 65 127
3 125 105 83
3 125 106 105
3 82 101 103
3 127 65 108
3 102 87 41
3 103 101 130
3 130 101 104
3 108 86 106
3 106 86 105
3 107 88 109
3 110 108 65
3 67 110 65
3 109 88 133
3 108 110 112
3 108 112 111
3 86 108 111
3 88 113 133
3 110 114 112
3 111 112 92
3 113 91 116
3 112 114 115
3 92 112 115
3 95 114 71
3 114 95 115
3 93 116 91
3 121 136 117
3 117 136 118
3 120 92 115
3 92 120 119
3 118 76 117
3 97 139 95
3 121 98 124
3 117 98 121
3 120 122 119
3 99 79 124
3 124 98 99
3 63 142 125
3 61 100 143
3 107 142 63
3 142 107 145
3 64 126 104
3 64 85 126
3 127 126 85
3 143 102 61
3 103 129 100
3 127 108 128
3 107 109 145
3 128 108 106
3 131 129 103
3 103 130 131
3 104 132 130
3 104 147 132
3 130 134 131
3 130 132 134
3 131 134 135
3 133 113 116
3 132 136 134
3 134 136 135
3 121 138 135
3 135 136 121
3 136 152 118
3 93 137 116
3 138 121 124
3 118 140 76
3 95 139 115
3 115 139 141
3 120 115 141
3 123 137 93
3 154 60 96
3 79 60 154
3 140 97 76
3 97 140 139
3 154 124 79
3 156 123 78
3 156 78 122
3 100 158 143
3 144 128 142
3 142 128 106
3 125 142 106
3 100 129 158
3 126 127 144
3 128 144 127
3 126 147 104
3 145 109 146
3 131 148 129
3 132 147 149
3 146 109 133
3 148 131 161
3 161 135 151
3 131 135 161
3 150 132 149
3 162 133 116
3 136 132 150
3 94 54 90
3 138 151 135
3 152 136 150
3 162 116 153
3 153 116 137
3 96 37 94
3 152 140 118
3 140 152 164
3 138 124 154
3 140 164 139
3 164 155 139
3 155 141 139
3 123 166 137
3 137 166 153
3 155 156 141
3 156 120 141
3 122 120 156
3 156 166 123
3 157 169 142
3 157 142 145
3 158 170 143
3 159 170 158
3 144 142 171
3 142 169 171
3 145 146 157
3 170 102 143
3 158 129 159
3 144 171 160
3 129 176 159
3 172 147 126
3 126 144 173
3 172 126 173
3 173 144 160
3 148 176 129
3 148 178 176
3 172 179 147
3 179 149 147
3 178 148 161
3 179 183 149
3 183 150 149
3 161 151 185
3 185 151 163
3 183 152 150
3 138 163 151
3 183 186 152
3 164 152 186
3 186 165 164
3 94 154 96
3 154 94 189
3 154 190 163
3 154 163 138
3 155 164 165
3 168 153 166
3 188 153 168
3 154 189 190
3 165 156 155
3 167 156 165
3 191 156 167
3 166 156 168
3 156 191 168
3 169 157 192
3 192 157 193
3 193 157 146
3 194 170 159
3 171 174 160
3 176 194 159
3 195 173 160
3 177 87 102
3 173 180 172
3 173 195 180
3 177 89 87
3 181 179 172
3 172 180 181
3 200 146 133
3 177 90 89
3 201 178 161
3 182 179 181
3 181 180 182
3 177 203 90
3 183 179 182
3 180 184 182
3 201 161 185
3 94 90 203
3 186 183 182
3 182 184 186
3 204 162 208
3 208 162 153
3 210 185 163
3 184 165 186
3 205 187 184
3 184 187 165
3 210 163 190
3 153 188 208
3 94 209 189
3 187 167 165
3 188 168 211
3 191 211 168
3 170 194 212
3 146 175 193
3 102 170 197
3 196 160 174
3 160 196 195
3 198 102 197
3 177 102 198
3 194 176 199
3 199 176 178
3 175 146 200
3 201 199 178
3 180 195 202
3 196 217 202
3 196 202 195
3 200 133 162
3 177 198 203
3 184 180 202
3 200 162 204
3 198 207 203
3 205 184 202
3 202 206 205
3 203 207 94
3 94 207 209
3 205 206 187
3 190 189 220
3 167 221 191
3 221 222 211
3 191 221 211
3 222 188 211
3 170 223 197
3 223 170 212
3 171 213 174
3 169 213 171
3 169 192 213
3 192 214 213
3 193 214 192
3 193 175 214
3 194 215 212
3 196 174 216
3 174 213 216
3 199 215 194
3 218 199 201
3 206 202 217
3 217 219 206
3 218 201 185
3 210 218 185
3 228 218 210
3 206 221 187
3 210 190 220
3 228 210 220
3 187 221 167
3 208 188 222
3 230 189 209
3 230 220 189
3 223 212 231
3 233 197 223
3 232 231 212
3 215 232 212
3 213 214 216
3 214 224 216
3 175 224 214
3 233 236 197
3 236 198 197
3 224 175 237
3 175 200 237
3 232 215 226
3 226 215 199
3 216 225 196
3 236 240 198
3 217 196 225
3 240 207 198
3 237 200 244
3 244 200 204
3 218 245 226
3 199 218 226
3 227 217 225
3 219 217 227
3 240 246 207
3 244 204 208
3 246 247 207
3 247 209 207
3 245 218 248
3 219 227 206
3 227 229 221
3 229 244 208
3 248 218 228
3 221 206 227
3 247 230 209
3 220 230 248
3 248 228 220
3 222 221 229
3 229 208 222
3 233 223 234
3 223 231 234
3 232 235 231
3 233 234 236
3 234 231 235
3 238 235 232
3 232 226 238
3 225 216 239
3 216 224 239
3 238 226 241
3 224 242 239
3 224 237 242
3 241 226 243
3 237 244 242
3 226 245 243
3 227 225 239
3 239 242 227
3 242 229 227
3 242 244 229
3 250 243 245
3 248 250 245
3 249 247 246
3 230 247 249
3 230 250 248
3 230 249 250
3 238 236 234
3 235 238 234
3 236 238 251
3 238 241 251
3 240 236 251
3 241 243 251
3 246 240 251
3 251 243 246
3 246 243 250
3 249 246 250
