ply
format ascii 1.0
element vertex 248
property float x
property float y
property float z
element face 500
property list uchar int vertex_indices
end_header
-0.487626 -0.144172 0.205240
-0.500450 -0.110423 0.386305
-0.503057 -0.066369 0.116368
-0.527677 -0.033790 0.326978
-0.529690 0.012029 0.197442
-0.508442 0.012598 0.424549
-0.509462 0.049958 0.116607
-0.494648 0.134297 0.355859
-0.486888 0.160226 0.189360
-0.428352 -0.230426 0.312347
-0.412971 -0.171839 0.033739
-0.439764 -0.173775 0.508882
-0.405872 -0.145958 -0.647146
-0.411404 -0.109821 -0.450301
-0.404755 -0.132891 -0.019456
-0.458059 -0.037678 0.027642
-0.471677 -0.069717 0.525836
-0.391541 -0.137780 0.664400
-0.416648 -0.004656 -0.037360
-0.419994 -0.000504 0.659763
-0.423506 0.002313 -0.662637
-0.432690 0.067231 -0.438632
-0.440944 0.132321 0.041560
-0.464247 0.095296 0.524137
-0.392226 0.136434 -0.639994
-0.400803 0.132776 -0.029034
-0.402726 0.149218 0.644308
-0.439634 0.236218 0.319770
-0.388093 0.246600 0.158489
-0.313814 -0.275015 0.099902
-0.351792 -0.275731 0.288271
-0.363298 -0.256756 0.459063
-0.338292 -0.212613 -0.689433
-0.364143 -0.222422 -0.542014
-0.360810 -0.201853 -0.404931
-0.343068 -0.233157 0.620852
-0.359992 -0.122893 -0.276184
-0.292901 -0.072208 -0.838149
-0.334447 -0.192146 -0.095153
-0.285734 -0.060317 0.842263
-0.390614 0.002889 -0.289816
-0.374714 0.025411 -0.143753
-0.363050 0.127337 -0.278323
-0.303718 0.062246 -0.842179
-0.410590 0.138960 -0.436833
-0.307650 0.218286 -0.142077
-0.363729 0.221589 0.000339
-0.392980 0.230302 0.525834
-0.343694 0.229409 -0.526818
-0.287420 0.238889 -0.320465
-0.335116 0.214490 0.678383
-0.322555 0.286563 0.404775
-0.232463 -0.260920 -0.632963
-0.277793 -0.262583 0.242940
-0.263954 -0.255867 -0.342558
-0.208111 -0.215074 0.803867
-0.280510 0.072072 0.830786
-0.189500 0.184251 -0.807218
-0.255211 0.257532 -0.633586
-0.246280 0.289894 -0.020706
-0.263623 0.266936 0.391856
-0.245010 0.297133 0.601491
-0.210401 -0.306134 -0.103471
-0.269883 -0.262212 0.401177
-0.238965 -0.295234 0.568638
-0.114752 -0.289981 0.719652
-0.192692 -0.242872 -0.510163
-0.161309 -0.295772 -0.200865
-0.191198 -0.162762 0.331009
-0.164996 -0.156434 0.248446
-0.179899 -0.149904 0.856582
-0.165224 0.144853 0.261357
-0.195271 0.178531 0.333725
-0.268625 0.269371 -0.486946
-0.272116 0.256015 0.235012
-0.201601 0.252926 -0.522491
-0.223960 0.265061 -0.293798
-0.184713 0.258842 0.135224
-0.148895 0.182906 0.403395
-0.173597 0.214578 0.781199
-0.127794 -0.307713 -0.040893
-0.181447 -0.267569 0.126500
-0.178220 -0.281212 0.504312
-0.182370 -0.207134 -0.798698
-0.182445 -0.253526 -0.336543
-0.157449 -0.185136 0.398662
-0.099954 -0.139739 -0.415341
-0.059938 -0.218641 0.469445
-0.129431 -0.214614 -0.570163
-0.140630 -0.087122 -0.884937
-0.217728 -0.024928 0.890463
-0.140446 -0.010654 0.295499
-0.131207 0.023495 0.344508
-0.203294 0.030279 -0.891279
-0.176776 0.083969 0.879984
-0.111054 0.156722 -0.526283
-0.116325 0.187889 -0.372606
-0.051556 0.179771 0.150622
-0.102763 0.268843 -0.739094
-0.169126 0.291711 0.522994
-0.119347 0.309952 -0.037225
-0.053787 0.244877 0.098206
0.013086 -0.293335 0.614226
-0.121504 -0.271659 -0.730349
-0.023383 -0.230160 -0.213401
0.100027 -0.250003 0.801689
-0.002666 -0.209270 0.105633
-0.054293 -0.040756 -0.505065
-0.076326 0.010479 -0.415254
-0.052546 0.026400 0.195920
-0.050310 0.180153 0.452682
-0.115049 0.295488 -0.153444
0.007362 0.226542 -0.210808
-0.098791 0.258484 -0.646747
-0.017581 0.291073 -0.133102
0.045054 0.236238 0.517288
-0.077893 0.306625 0.644798
-0.035789 -0.257698 -0.654186
-0.030699 -0.190227 -0.588109
0.029542 -0.182583 0.469450
0.419896 -0.204601 -0.812840
-0.036221 -0.166515 0.144790
0.031211 -0.080337 -0.271774
-0.044213 -0.078543 0.407711
0.043029 0.012866 0.422365
0.408723 0.038809 -0.887676
-0.020709 0.109969 -0.549599
0.047978 0.085339 -0.263816
-0.056880 0.061928 0.397247
0.407216 0.137714 -0.859151
-0.029329 0.194384 -0.592597
0.111433 0.210303 0.828492
0.106518 0.274449 0.758405
0.106413 -0.277072 -0.043651
0.108765 -0.299122 0.733278
0.393376 -0.271808 -0.744970
0.280281 -0.057500 -0.535571
0.143146 -0.118946 0.183605
0.131300 -0.147471 0.440681
0.028524 0.022665 0.166429
0.154111 0.024619 0.858717
0.255300 0.039305 -0.537560
0.140550 0.077009 0.208692
0.137628 0.120137 0.419180
0.319324 0.191743 -0.583763
0.033605 0.189754 0.132659
0.138501 0.285183 -0.032732
0.097960 0.296913 0.661561
0.149448 -0.301514 0.682983
0.293261 -0.248418 0.465963
0.133439 -0.185037 -0.223277
0.133603 0.013752 0.393777
0.125471 0.025437 -0.265763
0.169167 0.209429 -0.224031
0.408968 0.245048 -0.790690
0.382769 0.281342 -0.727778
0.318825 0.264135 -0.662772
0.256030 0.235167 0.183036
0.186677 0.275446 0.573333
0.210339 0.254006 0.699533
0.240973 -0.300768 -0.043453
0.289003 -0.250102 0.182469
0.435454 -0.276620 -0.643956
0.237579 -0.285150 -0.157509
0.318582 -0.265553 0.516215
0.239585 -0.215509 0.730154
0.333261 -0.197441 -0.574644
0.399119 -0.228245 -0.415984
0.181920 -0.179517 0.823893
0.245346 -0.137884 0.278316
0.243547 -0.121007 0.330932
0.252475 -0.072554 0.816596
0.315293 -0.050977 -0.422334
0.313019 -0.016875 0.753005
0.207809 -0.017136 0.285815
0.206486 -0.001320 0.327394
0.250432 0.061391 0.820812
0.321196 0.103045 -0.411719
0.235709 0.116190 0.287181
0.234878 0.128125 0.344726
0.283892 0.140143 0.752950
0.195765 0.196389 0.806429
0.257810 0.227518 0.433843
0.320528 0.289877 -0.189523
0.281991 0.285434 0.044608
0.310864 -0.285883 0.074741
0.356906 -0.263239 0.002402
0.313789 -0.210981 0.337752
0.337841 -0.084077 -0.512126
0.326524 0.045537 -0.499693
0.399408 0.209684 -0.426958
0.338673 0.232497 0.337893
0.306152 0.295369 -0.106754
0.407684 0.250951 0.011748
0.339372 -0.278151 -0.132470
0.442007 -0.244513 0.190907
0.563666 -0.262244 -0.425663
0.393519 -0.238119 0.415640
0.411587 -0.215028 -0.528435
0.504087 -0.155458 -0.073527
0.536568 -0.169017 0.111275
0.490393 -0.093722 0.498347
0.488510 -0.038987 -0.861336
0.505291 0.062870 0.515990
0.413990 0.208241 -0.497319
0.553512 0.108507 -0.054799
0.486602 0.255660 -0.231646
0.382180 0.243814 0.438825
0.473205 0.266666 -0.432730
0.368130 0.273054 0.155349
0.422832 0.256273 0.287887
0.485047 -0.277578 -0.391485
0.506155 -0.274492 -0.525023
0.536499 -0.189419 0.330340
0.650547 -0.158740 -0.380006
0.483140 0.156727 0.493970
0.472684 0.277380 -0.608830
0.625283 0.195663 -0.350995
0.487874 0.236702 0.197203
0.556523 0.157853 0.293046
0.568951 -0.267437 -0.678286
0.585740 -0.208366 -0.763539
0.525796 -0.150233 -0.824167
0.570722 -0.181568 0.211561
0.591116 -0.134352 0.270851
0.556036 -0.035761 0.426452
0.591802 -0.089770 -0.818399
0.667322 -0.024969 -0.268837
0.585364 -0.072297 0.131579
0.504145 0.072924 -0.863070
0.607201 0.055524 -0.821425
0.673162 0.065098 -0.278425
0.591432 0.096531 0.133986
0.560128 0.094741 0.419677
0.556538 0.160607 0.117789
0.596534 0.040439 0.338392
0.590199 0.189737 -0.777199
0.555241 0.266820 -0.699806
0.564496 0.274253 -0.442289
0.649337 -0.201609 -0.708296
0.611367 0.022241 0.236895
0.649781 0.194618 -0.687931
0.676221 -0.074254 -0.780006
0.699578 -0.095561 -0.733586
0.699021 -0.049211 -0.372013
0.702424 0.030295 -0.727050
0.667599 0.099740 -0.779070
0.694742 0.053709 -0.353352
3 1 0 3
3 0 2 4
3 0 4 3
3 1 3 5
3 2 6 4
3 3 4 7
3 3 7 5
3 4 6 8
3 4 8 7
3 0 9 29
3 10 0 29
3 9 1 11
3 1 9 0
3 14 15 10
3 10 15 2
3 10 2 0
3 11 1 16
3 11 16 17
3 14 18 15
3 17 16 19
3 20 12 37
3 12 20 13
3 13 20 21
3 5 16 1
3 2 15 6
3 15 18 22
3 15 22 6
3 23 16 5
3 16 23 19
3 20 24 21
3 18 25 22
3 19 23 26
3 24 44 21
3 22 8 6
3 23 5 7
3 27 7 8
3 22 28 8
3 8 28 27
3 29 9 30
3 38 10 29
3 30 9 31
3 34 33 13
3 38 14 10
3 9 11 31
3 31 11 35
3 35 11 17
3 32 12 33
3 33 12 13
3 40 36 13
3 38 41 18
3 14 38 18
3 19 39 17
3 21 40 13
3 36 40 41
3 41 40 42
3 20 43 24
3 42 40 21
3 45 41 42
3 41 45 25
3 18 41 25
3 21 44 42
3 22 25 46
3 7 47 23
3 23 47 26
3 24 48 44
3 44 48 49
3 44 49 42
3 45 46 25
3 28 22 46
3 7 27 47
3 26 47 50
3 27 51 47
3 28 51 27
3 52 33 54
3 29 30 53
3 30 31 63
3 64 63 31
3 31 35 64
3 33 52 32
3 54 33 34
3 54 38 62
3 53 30 63
3 36 54 34
3 13 36 34
3 17 55 35
3 55 17 70
3 12 32 37
3 38 54 36
3 17 39 70
3 36 41 38
3 37 43 20
3 56 39 19
3 26 56 19
3 57 24 43
3 42 49 45
3 26 50 56
3 57 58 24
3 48 24 58
3 48 73 49
3 59 46 45
3 46 59 28
3 51 74 60
3 61 50 47
3 58 73 48
3 59 74 28
3 51 28 74
3 51 61 47
3 62 29 80
3 80 29 81
3 66 52 54
3 29 62 38
3 81 29 53
3 63 82 85
3 63 64 82
3 35 65 64
3 65 35 55
3 83 32 52
3 66 54 84
3 67 84 54
3 62 67 54
3 68 53 63
3 63 85 68
3 83 37 32
3 69 81 53
3 53 68 69
3 83 89 37
3 39 90 70
3 89 93 37
3 93 43 37
3 90 39 56
3 90 56 94
3 43 93 57
3 74 77 71
3 71 72 74
3 72 60 74
3 72 78 60
3 79 56 50
3 56 79 94
3 58 57 98
3 73 75 76
3 73 76 49
3 45 49 76
3 50 61 79
3 73 58 75
3 76 59 45
3 59 77 74
3 78 99 60
3 99 51 60
3 99 61 51
3 59 100 77
3 80 67 62
3 64 102 82
3 102 64 65
3 83 52 103
3 88 52 66
3 84 86 66
3 87 85 82
3 55 105 65
3 66 86 88
3 55 70 105
3 85 92 68
3 69 68 91
3 68 92 91
3 71 109 91
3 91 92 71
3 92 72 71
3 97 109 71
3 92 78 72
3 95 96 75
3 77 101 97
3 71 77 97
3 113 95 75
3 76 75 96
3 96 111 76
3 98 113 58
3 75 58 113
3 111 59 76
3 110 99 78
3 111 100 59
3 101 77 100
3 99 116 61
3 79 61 116
3 103 52 117
3 88 117 52
3 67 104 84
3 104 67 80
3 81 106 80
3 102 87 82
3 120 89 83
3 117 88 118
3 84 104 86
3 106 81 121
3 81 69 121
3 88 107 118
3 86 107 88
3 87 123 85
3 123 92 85
3 86 108 107
3 109 121 69
3 69 91 109
3 125 93 89
3 123 128 92
3 95 126 107
3 107 108 95
3 108 96 95
3 129 57 93
3 128 78 92
3 126 95 130
3 128 110 78
3 131 94 79
3 95 113 130
3 112 111 96
3 112 114 111
3 115 99 110
3 131 79 132
3 100 111 114
3 115 116 99
3 132 79 116
3 65 134 102
3 133 104 80
3 133 80 106
3 135 83 103
3 102 119 87
3 134 65 105
3 86 104 122
3 87 119 123
3 136 118 107
3 119 124 123
3 106 121 139
3 139 121 109
3 86 122 108
3 122 127 108
3 128 123 124
3 140 90 94
3 139 109 97
3 96 108 127
3 112 96 127
3 139 97 145
3 110 128 124
3 124 115 110
3 145 97 101
3 145 101 146
3 101 100 146
3 146 100 114
3 147 116 115
3 147 132 116
3 134 148 102
3 135 103 117
3 102 149 138
3 148 149 102
3 120 83 135
3 150 104 133
3 106 137 133
3 138 119 102
3 150 122 104
3 119 138 124
3 139 137 106
3 137 139 142
3 124 138 151
3 140 70 90
3 150 152 122
3 141 107 126
3 152 127 122
3 143 124 151
3 152 153 127
3 124 143 115
3 140 94 131
3 144 126 130
3 153 112 127
3 145 142 139
3 154 57 129
3 98 57 154
3 144 130 156
3 156 130 113
3 114 112 153
3 155 98 154
3 155 113 98
3 146 114 153
3 115 158 147
3 133 160 163
3 161 160 133
3 135 117 162
3 148 164 149
3 163 150 133
3 137 161 133
3 148 134 165
3 165 134 105
3 166 117 118
3 165 105 168
3 166 118 136
3 168 105 70
3 168 70 140
3 169 137 174
3 174 137 142
3 170 175 138
3 175 151 138
3 152 150 172
3 177 152 172
3 174 142 178
3 175 179 151
3 179 143 151
3 153 152 177
3 181 140 131
3 145 157 142
3 157 178 142
3 143 179 182
3 143 182 115
3 115 182 158
3 159 181 132
3 181 131 132
3 155 156 113
3 146 184 157
3 146 157 145
3 159 147 158
3 147 159 132
3 160 161 185
3 162 117 166
3 163 167 150
3 137 169 161
3 149 170 138
3 168 171 165
3 150 167 172
3 165 171 173
3 168 140 171
3 169 174 170
3 170 174 175
3 136 107 141
3 171 140 176
3 174 178 175
3 175 178 179
3 144 141 126
3 180 173 176
3 140 181 176
3 190 153 177
3 176 181 180
3 159 180 181
3 183 146 153
3 183 192 146
3 184 146 192
3 163 160 194
3 160 186 194
3 185 186 160
3 186 185 195
3 161 195 185
3 148 165 164
3 169 187 161
3 149 187 170
3 188 166 136
3 170 187 169
3 120 202 89
3 165 173 201
3 202 125 89
3 189 188 136
3 141 189 136
3 188 189 172
3 203 201 173
3 171 176 173
3 177 172 189
3 125 129 93
3 189 141 144
3 173 180 203
3 178 191 179
3 179 191 182
3 208 183 153
3 157 210 191
3 157 191 178
3 191 207 182
3 192 193 184
3 184 193 209
3 157 184 209
3 157 209 210
3 207 158 182
3 207 159 158
3 167 163 211
3 163 194 211
3 197 195 161
3 166 198 162
3 199 196 194
3 186 199 194
3 197 161 187
3 197 187 149
3 164 197 149
3 164 165 197
3 188 198 166
3 172 167 198
3 186 200 199
3 198 188 172
3 144 204 189
3 189 204 177
3 190 177 204
3 193 206 205
3 215 180 159
3 215 159 207
3 216 144 156
3 216 204 144
3 190 208 153
3 192 206 193
3 210 207 191
3 155 216 156
3 192 183 206
3 218 209 193
3 135 220 221
3 135 162 220
3 212 220 162
3 212 167 211
3 196 211 194
3 213 195 197
3 120 135 221
3 198 212 162
3 167 212 198
3 196 199 214
3 195 200 186
3 120 221 222
3 222 202 120
3 213 197 201
3 201 197 165
3 200 228 199
3 205 227 199
3 199 228 205
3 202 229 125
3 231 227 205
3 228 232 205
3 229 129 125
3 232 234 205
3 203 180 215
3 229 236 129
3 206 217 205
3 193 205 234
3 154 129 236
3 219 215 207
3 154 237 155
3 208 204 216
3 190 204 208
3 218 219 210
3 210 219 207
3 237 216 155
3 206 183 238
3 183 208 238
3 210 209 218
3 220 212 196
3 212 211 196
3 195 223 200
3 213 223 195
3 223 213 224
3 221 226 222
3 213 225 224
3 201 225 213
3 202 222 226
3 235 224 225
3 230 202 226
3 229 202 230
3 201 203 225
3 233 235 225
3 225 203 233
3 215 233 203
3 236 229 230
3 219 235 233
3 234 218 193
3 233 215 219
3 236 237 154
3 219 218 234
3 237 238 216
3 216 238 208
3 221 220 239
3 220 196 239
3 239 196 214
3 239 242 221
3 223 228 200
3 223 224 228
3 242 226 221
3 199 227 214
3 224 240 228
3 242 230 226
3 224 235 240
3 242 246 230
3 228 240 232
3 240 219 232
3 219 240 235
3 246 236 230
3 246 241 236
3 205 217 231
3 232 219 234
3 237 236 241
3 217 238 241
3 238 217 206
3 238 237 241
3 242 239 243
3 239 214 243
3 214 244 243
3 214 227 244
3 245 242 243
3 243 244 245
3 246 242 245
3 244 247 245
3 244 227 247
3 227 231 247
3 241 246 245
3 245 247 241
3 247 217 241
3 231 217 247
