ply
format ascii 1.0
element vertex 252
property float x
property float y
property float z
element face 500
property list uchar int vertex_indices
end_header
-0.659201 -0.142394 -0.728173
-0.631536 -0.172276 -0.669017
-0.626319 -0.185637 0.249108
-0.651327 -0.183448 0.353423
-0.705906 -0.074418 -0.717305
-0.690750 -0.094337 0.285970
-0.683694 -0.001909 -0.654128
-0.666271 -0.114365 0.212459
-0.660908 -0.116478 0.418123
-0.672314 0.022782 0.410578
-0.668075 -0.003621 0.201039
-0.702272 0.075806 -0.725588
-0.691528 0.083387 0.286982
-0.654466 0.118272 0.218675
-0.646662 0.156062 -0.658201
-0.644513 0.173597 0.378034
-0.628223 0.172118 -0.722632
-0.643289 0.193639 0.290601
-0.528658 -0.251041 -0.671716
-0.577130 -0.171302 0.467617
-0.594540 -0.026040 0.510659
-0.666587 0.046711 -0.762479
-0.511597 0.094727 -0.500613
-0.587826 0.120361 0.490486
-0.508806 0.202427 -0.555598
-0.507322 0.249374 -0.640526
-0.487701 -0.257085 0.248596
-0.540493 -0.254164 0.354889
-0.538562 -0.202375 -0.734360
-0.439074 -0.248223 -0.575251
-0.607696 -0.110100 0.169932
-0.493852 -0.179898 -0.511604
-0.508924 -0.070561 0.120439
-0.531330 -0.018032 -0.805290
-0.492781 -0.063126 -0.481581
-0.596703 0.056358 0.156336
-0.509538 0.100539 0.128959
-0.495521 0.152635 -0.794555
-0.532945 0.221096 0.237650
-0.565036 0.217785 0.437287
-0.418715 0.260634 -0.599071
-0.553659 0.257094 0.352515
-0.471621 -0.254731 0.446899
-0.500002 -0.192542 0.165947
-0.396337 -0.210849 0.199616
-0.479534 -0.189691 0.531560
-0.410094 -0.065575 -0.857075
-0.436316 -0.121218 0.123778
-0.497905 -0.093144 0.570852
-0.529570 0.055552 0.558319
-0.433230 0.077178 -0.840992
-0.435537 0.119472 0.137147
-0.487325 0.159260 0.545708
-0.363028 0.271747 -0.741754
-0.404721 0.242140 0.229679
-0.383924 -0.279252 -0.685566
-0.358377 -0.293050 0.368034
-0.224195 -0.284028 0.588471
-0.423220 -0.181885 -0.486734
-0.376151 0.047931 -0.451221
-0.336123 0.038158 0.142423
-0.279361 0.059186 0.752903
-0.351749 0.173713 -0.517842
-0.338369 0.172968 0.188742
-0.422930 0.269693 0.468537
-0.383693 0.288930 -0.667679
-0.291490 0.259269 0.303176
-0.338885 0.297523 0.388876
-0.201090 0.307121 0.587236
-0.246519 -0.265490 -0.648148
-0.211744 -0.214267 -0.856135
-0.330597 -0.188857 -0.519931
-0.210454 -0.209355 -0.596134
-0.155553 -0.217659 0.685651
-0.270487 -0.081566 -0.934798
-0.371692 -0.073326 -0.453554
-0.369140 -0.109852 0.136574
-0.316422 0.036705 -0.912246
-0.315762 0.213957 -0.834168
-0.183137 0.205232 0.704509
-0.219573 0.271190 -0.685225
-0.187569 0.177269 -0.577948
-0.164700 -0.282767 -0.768422
-0.267005 -0.268119 0.342765
-0.064157 -0.220497 0.414210
-0.177469 -0.060236 0.775830
-0.185084 -0.010375 -0.968194
-0.247040 0.056533 -0.499621
-0.212963 -0.049862 0.220154
-0.182828 0.128148 -0.932211
-0.217926 0.083969 0.217354
-0.195520 0.228909 -0.869435
-0.173735 0.277633 -0.786927
-0.057085 -0.297455 0.572741
-0.197115 -0.164453 0.284950
-0.157620 -0.111354 -0.954113
-0.095980 -0.178783 -0.201090
-0.093415 -0.183360 0.016301
-0.130607 -0.044383 -0.570602
-0.168892 -0.073421 -0.151918
-0.142587 -0.111387 0.036957
-0.134395 -0.001574 -0.273703
-0.167262 0.005912 0.011252
-0.201104 0.031488 0.803344
-0.177182 0.062424 -0.176121
-0.028194 0.038122 0.331260
-0.132884 0.101459 0.031170
-0.169195 0.106895 0.789128
-0.179888 0.179174 0.297804
-0.119193 0.157986 -0.193669
-0.052960 0.205958 0.036106
-0.046327 0.186524 -0.659984
-0.112300 0.259975 0.424778
-0.057246 -0.255721 -0.729909
0.031777 -0.302578 -0.135215
0.022838 -0.297492 -0.042428
-0.053072 -0.156591 -0.649761
-0.015993 -0.220307 -0.251588
-0.032811 -0.092106 0.348959
-0.047371 -0.094018 -0.317634
-0.035149 0.073536 -0.326241
-0.118202 0.088343 -0.574525
0.068445 0.083716 0.303338
-0.004085 0.233113 -0.234195
-0.021237 0.268867 -0.101829
-0.094821 0.305228 0.575410
0.178448 -0.279868 -0.798782
0.261828 -0.195265 -0.898491
0.033518 -0.064401 0.286948
0.363745 -0.135793 0.787774
-0.018793 0.031206 -0.615300
0.316768 0.028987 0.792240
-0.018198 0.184705 0.395801
0.277933 0.072398 -0.969086
0.259736 0.209135 -0.877177
0.004580 0.251222 -0.727245
0.116677 0.307656 0.062207
0.164254 0.276923 -0.794258
0.158697 -0.309735 -0.076477
0.085139 -0.259864 -0.736761
0.134614 -0.299700 -0.213016
0.089746 -0.283261 0.499082
0.246693 -0.298246 0.647077
0.142180 -0.258498 0.220875
0.042947 -0.185520 0.411190
0.063369 -0.192084 -0.327489
0.336816 -0.202581 0.743099
0.048829 -0.191638 -0.666582
0.096780 -0.155136 -0.389488
0.131739 -0.220336 0.389804
0.107269 -0.134115 -0.543185
0.028790 -0.062363 -0.364329
0.047581 -0.043347 0.347065
0.051584 0.002158 -0.592704
0.077990 -0.010954 -0.440848
0.100328 0.127365 -0.430666
0.056809 0.083330 -0.382758
0.062373 0.095155 0.349641
0.040212 0.170323 -0.665296
0.114326 0.180650 -0.593632
0.186525 0.250015 0.382739
0.086589 0.194849 -0.342155
0.176451 0.266912 0.239277
0.042500 0.244549 0.449594
0.160351 0.301701 -0.217368
0.120103 0.321116 -0.099397
0.221172 0.299000 0.642284
0.145022 -0.313752 0.054652
0.193479 -0.317593 0.585038
0.199443 -0.281252 -0.702813
0.215432 -0.291513 0.106702
0.199736 -0.263512 -0.387989
0.255686 -0.278128 0.317278
0.189694 -0.248929 -0.590288
0.253111 -0.035230 -0.976532
0.135348 0.255943 -0.716374
0.211671 0.269108 -0.615131
0.182544 0.254019 -0.389075
0.156944 0.308909 0.558193
0.191088 0.319073 -0.114084
0.207956 0.303769 0.088314
0.239553 -0.296720 0.486787
0.276925 -0.289643 -0.741858
0.281476 -0.285216 -0.570183
0.245007 -0.298733 -0.229844
0.311823 -0.216078 -0.077262
0.317562 0.188603 0.739516
0.308295 0.219570 -0.018566
0.349449 0.222847 0.188968
0.264225 0.273495 -0.752090
0.271031 0.287424 -0.460386
0.255600 0.291798 -0.241723
0.255179 0.307630 0.575517
0.313077 -0.246827 -0.823067
0.288601 -0.291267 -0.377939
0.380934 -0.237206 -0.672423
0.356961 -0.253377 -0.295188
0.302122 -0.205782 0.025297
0.373696 -0.255609 0.412923
0.354009 -0.247829 0.605844
0.336751 -0.239328 0.220315
0.353706 -0.168866 -0.885597
0.359308 -0.083007 -0.028408
0.367339 -0.039084 0.033364
0.364683 0.049796 -0.025750
0.365813 0.076134 0.043190
0.369768 0.200426 -0.196859
0.346335 0.229498 -0.809420
0.295148 0.282331 -0.615178
0.384244 0.234010 -0.679281
0.312399 0.263985 0.354783
0.364179 0.244176 0.622972
0.384628 -0.253687 -0.492492
0.428566 -0.137216 -0.251944
0.443870 -0.148864 0.323894
0.474714 -0.150496 0.451509
0.399720 -0.140459 -0.822985
0.414022 -0.107822 0.757867
0.455203 -0.125967 -0.687782
0.395848 -0.087404 -0.115940
0.381041 -0.110923 0.120415
0.470707 -0.082925 0.591024
0.354491 -0.035420 -0.934957
0.436688 0.031727 -0.808555
0.365033 0.103375 -0.919894
0.368491 0.142256 -0.105420
0.383243 0.130324 0.128272
0.399318 0.159848 -0.824079
0.471221 0.119915 -0.675781
0.451239 0.129510 -0.303542
0.428157 0.130654 0.241298
0.460749 0.125754 0.604553
0.413878 0.117117 0.736267
0.430571 0.176957 0.332396
0.383489 0.247132 -0.464608
0.472741 0.143157 0.447910
0.472025 -0.122715 -0.431779
0.468754 -0.147557 -0.582386
0.448463 -0.006710 -0.221692
0.484957 0.024598 -0.337862
0.446427 0.035738 0.228567
0.499992 0.011687 0.367289
0.491264 -0.006541 -0.654215
0.402573 0.042907 -0.129066
0.403136 0.006541 0.123216
0.453273 0.034971 0.708688
0.475854 0.166760 -0.573535
0.492225 0.118453 -0.452724
0.511036 -0.069812 0.486779
0.521529 0.003293 0.426747
0.506803 0.046607 -0.575698
0.507991 0.053808 0.492823
3 0 4 1
3 5 2 7
3 2 5 3
3 1 4 6
3 3 5 8
3 8 5 9
3 21 4 0
3 7 10 5
3 11 4 21
3 4 11 6
3 5 10 12
3 5 12 9
3 10 13 12
3 6 11 14
3 9 12 15
3 16 11 21
3 11 16 14
3 17 12 13
3 12 17 15
3 2 3 27
3 27 3 19
3 18 28 1
3 1 28 0
3 3 8 19
3 30 7 2
3 28 33 0
3 1 6 34
3 30 10 7
3 20 19 8
3 9 20 8
3 33 21 0
3 34 6 22
3 30 35 10
3 14 22 6
3 35 13 10
3 23 20 9
3 15 23 9
3 33 37 21
3 37 16 21
3 13 35 38
3 24 22 14
3 38 17 13
3 25 14 16
3 14 25 24
3 15 39 23
3 17 41 15
3 38 41 17
3 15 41 39
3 26 43 2
3 27 26 2
3 27 19 42
3 29 18 1
3 1 31 29
3 43 30 2
3 19 45 42
3 43 32 30
3 45 19 48
3 48 19 20
3 34 31 1
3 48 20 49
3 32 36 35
3 30 32 35
3 49 20 23
3 36 38 35
3 49 23 52
3 53 16 37
3 25 16 53
3 24 25 40
3 39 52 23
3 18 55 28
3 29 55 18
3 26 27 56
3 42 56 27
3 44 43 26
3 31 58 29
3 44 47 43
3 47 32 43
3 28 46 33
3 58 31 34
3 47 51 32
3 50 33 46
3 59 34 22
3 51 36 32
3 33 50 37
3 36 51 38
3 24 62 22
3 62 59 22
3 62 24 40
3 38 51 54
3 64 52 39
3 25 65 40
3 54 67 38
3 38 67 41
3 39 41 64
3 41 67 64
3 69 55 29
3 26 56 44
3 56 42 57
3 55 70 28
3 29 71 69
3 29 58 71
3 45 57 42
3 57 45 73
3 74 46 70
3 70 46 28
3 71 58 75
3 47 44 76
3 45 48 73
3 75 58 34
3 76 60 47
3 74 77 46
3 77 50 46
3 75 34 59
3 60 51 47
3 77 78 50
3 60 63 51
3 52 79 61
3 52 61 49
3 37 50 78
3 37 78 53
3 54 51 63
3 63 66 54
3 64 79 52
3 80 62 40
3 64 68 79
3 53 65 25
3 40 65 80
3 66 67 54
3 55 82 70
3 82 55 69
3 56 83 44
3 69 71 72
3 48 85 73
3 71 75 87
3 48 61 85
3 77 74 86
3 87 75 59
3 49 61 48
3 90 63 60
3 87 59 62
3 81 87 62
3 81 62 80
3 92 53 78
3 92 80 53
3 53 80 65
3 64 67 68
3 74 70 95
3 94 44 83
3 83 84 94
3 98 72 71
3 76 44 88
3 88 44 94
3 95 86 74
3 87 98 71
3 60 76 88
3 103 85 61
3 86 89 77
3 90 60 88
3 107 103 61
3 89 78 77
3 63 90 108
3 61 79 107
3 91 78 89
3 66 63 108
3 108 112 66
3 91 92 78
3 56 93 83
3 56 57 93
3 69 113 82
3 83 93 84
3 73 93 57
3 69 72 116
3 72 98 116
3 96 99 97
3 97 99 100
3 101 99 96
3 100 99 102
3 99 101 104
3 99 104 102
3 98 87 121
3 102 104 106
3 90 88 105
3 109 104 101
3 111 121 81
3 121 87 81
3 106 104 109
3 106 109 110
3 111 81 80
3 66 112 67
3 125 79 68
3 125 67 112
3 125 68 67
3 126 82 113
3 126 70 82
3 117 96 114
3 114 96 115
3 115 96 97
3 127 95 70
3 69 116 113
3 96 117 119
3 97 100 128
3 94 84 118
3 88 94 118
3 129 73 85
3 130 116 98
3 119 101 96
3 100 102 128
3 119 120 101
3 105 88 118
3 121 130 98
3 128 106 122
3 102 106 128
3 111 130 121
3 120 109 101
3 131 103 107
3 108 90 105
3 105 132 108
3 123 109 120
3 110 122 106
3 134 91 89
3 108 132 112
3 91 134 92
3 135 111 80
3 123 124 109
3 109 124 110
3 136 110 124
3 137 135 92
3 92 135 80
3 126 113 139
3 93 141 84
3 127 70 126
3 140 117 114
3 115 97 143
3 141 144 84
3 142 93 146
3 146 93 73
3 139 113 147
3 147 113 116
3 145 119 117
3 144 118 84
3 146 73 129
3 147 116 153
3 153 116 130
3 145 151 119
3 144 152 118
3 131 85 103
3 151 120 119
3 152 105 118
3 133 89 86
3 151 156 120
3 153 130 158
3 158 130 111
3 152 157 105
3 157 132 105
3 156 161 120
3 161 123 120
3 157 163 132
3 158 111 135
3 92 134 137
3 112 132 163
3 125 112 163
3 123 165 124
3 138 140 114
3 138 114 115
3 167 138 115
3 93 168 141
3 115 143 167
3 145 117 140
3 149 144 141
3 148 151 145
3 128 143 97
3 143 128 149
3 149 128 152
3 149 152 144
3 86 95 174
3 153 150 147
3 148 150 154
3 154 151 148
3 150 153 154
3 154 153 155
3 154 155 156
3 151 154 156
3 128 122 152
3 152 122 157
3 159 153 158
3 153 159 155
3 157 122 160
3 161 156 155
3 110 162 122
3 122 162 160
3 157 160 163
3 175 158 135
3 158 175 159
3 123 161 164
3 136 162 110
3 166 79 125
3 137 175 135
3 178 125 163
3 164 165 123
3 124 165 136
3 178 166 125
3 170 138 167
3 141 168 181
3 93 142 168
3 169 126 139
3 171 145 140
3 143 170 167
3 172 149 181
3 181 149 141
3 147 169 139
3 169 147 173
3 148 145 171
3 172 143 149
3 173 147 150
3 171 173 150
3 148 171 150
3 134 89 133
3 177 159 176
3 155 159 177
3 155 177 161
3 186 107 79
3 159 175 176
3 164 161 177
3 186 79 166
3 175 189 176
3 136 180 162
3 160 178 163
3 137 189 175
3 165 164 179
3 180 165 179
3 136 165 180
3 192 166 178
3 169 182 126
3 138 184 140
3 126 182 193
3 182 169 183
3 173 183 169
3 183 171 194
3 183 173 171
3 194 171 184
3 171 140 184
3 185 184 138
3 170 143 172
3 193 127 126
3 138 170 197
3 185 138 197
3 127 174 95
3 131 129 85
3 174 133 86
3 186 131 107
3 189 137 134
3 176 189 208
3 190 176 208
3 190 177 176
3 190 191 177
3 177 191 164
3 191 187 179
3 180 179 187
3 188 180 187
3 180 210 162
3 162 210 160
3 210 192 160
3 160 192 178
3 179 164 191
3 195 193 182
3 183 195 182
3 195 183 212
3 212 183 194
3 196 212 194
3 184 196 194
3 172 181 198
3 181 199 198
3 199 181 168
3 142 199 168
3 196 184 185
3 200 197 170
3 170 172 200
3 200 172 198
3 199 142 146
3 127 193 201
3 201 222 127
3 222 174 127
3 185 197 202
3 197 203 202
3 222 224 133
3 174 222 133
3 187 225 204
3 204 205 187
3 205 226 187
3 134 133 224
3 225 187 206
3 226 188 187
3 234 206 191
3 190 234 191
3 206 187 191
3 211 186 166
3 189 134 207
3 209 189 207
3 208 189 209
3 234 208 209
3 190 208 234
3 210 180 188
3 211 192 210
3 192 211 166
3 236 196 213
3 236 212 196
3 214 200 198
3 198 215 214
3 215 198 199
3 201 193 216
3 193 195 216
3 185 213 196
3 146 217 199
3 195 218 216
3 185 219 213
3 197 200 220
3 221 215 199
3 199 217 221
3 146 129 217
3 185 202 219
3 203 197 220
3 201 216 222
3 217 129 131
3 216 223 222
3 243 219 202
3 204 243 202
3 202 203 204
3 220 244 203
3 224 222 223
3 203 205 204
3 203 244 205
3 217 131 232
3 223 227 224
3 243 204 225
3 205 244 226
3 206 243 225
3 232 131 186
3 224 227 134
3 228 209 227
3 231 232 211
3 207 134 227
3 227 209 207
3 226 230 188
3 230 233 188
3 235 231 211
3 186 211 232
3 247 229 234
3 206 234 229
3 210 188 233
3 233 235 210
3 210 235 211
3 195 237 218
3 195 212 237
3 212 236 237
3 214 215 241
3 239 236 213
3 213 219 238
3 200 214 220
3 248 215 221
3 237 242 218
3 213 238 239
3 214 241 240
3 216 218 223
3 218 242 223
3 219 243 238
3 220 214 244
3 214 240 244
3 221 217 245
3 251 248 221
3 223 242 228
3 242 250 228
3 238 243 229
3 231 251 221
3 221 245 231
3 217 232 245
3 238 229 239
3 244 240 226
3 240 241 230
3 241 233 230
3 241 235 233
3 228 227 223
3 228 250 246
3 229 243 206
3 240 230 226
3 251 231 235
3 232 231 245
3 247 239 229
3 246 209 228
3 209 246 234
3 246 247 234
3 249 241 215
3 215 248 249
3 250 242 237
3 237 236 250
3 236 247 250
3 236 239 247
3 248 251 249
3 235 241 249
3 250 247 246
3 249 251 235
