ply
format ascii 1.0
element vertex 248
property float x
property float y
property float z
element face 500
property list uchar int vertex_indices
end_header
-0.642977 -0.195487 0.037314
-0.658379 -0.166747 0.107167
-0.684728 -0.042975 0.045093
-0.694354 -0.017636 0.132491
-0.638402 0.176239 0.097192
-0.658604 0.152428 0.032076
-0.571670 -0.176768 -0.113638
-0.618271 -0.181717 -0.041915
-0.617663 -0.194965 0.195539
-0.557036 -0.192104 0.278233
-0.647200 -0.066271 0.240634
-0.644816 0.003990 -0.067749
-0.609748 0.010549 -0.134745
-0.591776 -0.066404 0.335834
-0.565926 0.032335 0.364043
-0.664235 0.077755 0.188990
-0.567445 0.170893 0.278404
-0.568378 0.191324 -0.098489
-0.611853 0.199819 -0.016128
-0.602527 0.204396 0.202653
-0.525074 -0.247809 0.047159
-0.497159 -0.179585 -0.194207
-0.512965 -0.030269 -0.229746
-0.333832 -0.037657 0.598267
-0.506376 0.166986 -0.192656
-0.479945 0.130459 0.433111
-0.523677 0.247164 0.186185
-0.494889 0.252607 0.018380
-0.426552 -0.265026 -0.112353
-0.462123 -0.252115 0.245713
-0.372740 -0.086038 0.557521
-0.320714 0.104030 0.595227
-0.439843 0.249596 0.291343
-0.448276 0.252774 -0.128778
-0.424721 0.229442 0.129411
-0.371485 -0.278384 -0.048459
-0.412390 -0.233431 0.149092
-0.397585 -0.250714 0.340628
-0.442217 -0.206504 -0.194391
-0.348767 -0.215093 0.043857
-0.312072 -0.103648 0.135176
-0.375159 -0.232093 0.261348
-0.310769 -0.174249 0.550773
-0.410597 -0.064278 -0.253143
-0.424510 0.094740 -0.249689
-0.396487 0.226158 -0.187650
-0.348298 0.166913 0.185736
-0.321408 0.197524 0.533520
-0.329080 0.213782 0.032094
-0.437477 0.246380 0.204459
-0.253471 -0.245368 0.480852
-0.266964 -0.234467 0.359363
-0.259931 -0.145542 0.256945
-0.282568 0.022711 0.188407
-0.324174 0.112588 0.117696
-0.222253 0.114462 0.269010
-0.307347 0.226213 0.309757
-0.257957 0.246074 0.489165
-0.254810 0.266464 -0.100742
-0.331119 0.264176 -0.042722
-0.209095 -0.268546 -0.098167
-0.173523 -0.232476 0.431807
-0.081137 -0.221766 -0.206224
-0.153353 -0.183598 -0.039989
-0.206670 -0.054841 0.029660
-0.161276 -0.027602 0.282379
-0.046461 0.054113 -0.292647
-0.211510 0.079417 0.034683
-0.048126 0.193090 -0.236943
-0.113136 0.186811 -0.037460
-0.182099 0.236983 0.436151
-0.128527 -0.242495 0.571783
-0.205828 -0.172253 0.627704
-0.138893 -0.137270 0.352075
-0.105914 -0.177793 0.412815
-0.227380 0.014704 0.680946
-0.214598 0.176953 0.633776
-0.178346 0.185219 0.352119
-0.113093 0.175145 0.409835
-0.124432 0.243604 0.576737
0.002128 -0.258044 -0.157796
-0.076355 -0.210347 0.498599
-0.043858 -0.237529 0.597882
-0.010806 -0.219964 0.678204
-0.034706 -0.185106 -0.881594
-0.028553 -0.164168 -0.529036
-0.083427 -0.067282 -0.911242
-0.057889 -0.051799 -0.508028
-0.012130 -0.067120 0.767263
-0.007759 -0.110171 -0.955446
-0.047138 -0.017955 0.421518
-0.108076 0.040092 -0.002843
-0.115386 0.036140 0.330182
-0.045405 0.071880 -0.956076
-0.089536 0.084326 -0.897717
-0.047406 0.047373 0.782806
-0.053551 0.113089 -0.513865
-0.014799 0.136427 0.772634
-0.016858 0.167666 -0.872096
-0.023612 0.197843 -0.550133
0.002587 0.222119 0.701568
-0.066330 0.191860 0.485048
0.082284 -0.299324 -0.756243
0.036603 -0.258182 -0.577305
0.005747 -0.238059 0.656668
0.039916 -0.233333 -0.887457
0.000315 -0.187873 -0.037268
0.043018 -0.225102 -0.419778
0.031305 -0.192610 -0.302489
-0.021983 -0.083362 -0.288480
0.096640 -0.170926 0.109703
-0.015296 -0.100103 -0.420664
-0.001264 -0.007935 -0.338564
-0.057928 0.038150 -0.006071
-0.018315 0.040659 -0.405567
0.038199 0.003796 0.079684
0.035295 0.188176 -0.294465
0.007781 0.186087 -0.014728
0.039927 0.215288 -0.407265
0.020894 0.259511 -0.133674
0.005448 0.247070 0.648023
0.076732 0.275710 -0.773152
0.096933 0.300739 -0.584369
-0.013255 0.235369 0.581246
0.179658 -0.239838 0.625214
0.174988 -0.326733 -0.493455
0.099937 -0.278782 -0.276021
0.120534 -0.287516 -0.100967
0.104328 -0.208898 0.587519
0.020471 -0.159456 0.524182
0.148717 -0.154741 0.344568
0.122364 -0.000278 0.373566
0.123758 -0.094570 0.519465
0.285298 -0.095824 -0.951073
0.267289 0.047106 -0.971763
0.039083 0.041380 0.484744
0.123530 0.090174 0.526281
0.103106 0.153078 0.163736
0.130410 0.120135 0.360988
0.137694 0.108195 0.423497
0.038577 0.171413 0.530450
0.165884 0.271986 0.057923
0.102944 0.206166 0.586158
0.108914 0.276153 -0.256425
0.131382 0.325066 -0.720390
0.168327 -0.320774 -0.737932
0.201780 -0.301411 -0.166243
0.194444 -0.263258 0.136889
0.269379 -0.211400 -0.859675
0.204570 -0.223865 0.373939
0.165231 -0.220204 0.582317
0.153911 -0.113635 0.502279
0.160796 0.135794 0.516996
0.248232 0.158442 -0.949660
0.180027 0.204488 0.346257
0.269164 0.211375 -0.885505
0.190154 0.242008 0.607422
0.180467 0.320289 -0.466162
0.141250 0.297429 -0.120714
0.187681 0.300131 -0.198181
0.225148 0.289618 -0.045791
0.212294 0.334766 -0.593066
0.261935 -0.285974 0.075798
0.277269 -0.282640 0.321963
0.305537 -0.238516 -0.135042
0.269982 -0.247625 0.507445
0.507309 -0.163688 0.771161
0.278907 0.262601 0.471137
0.421151 0.229591 0.634489
0.209206 0.309016 -0.748722
0.291605 0.248550 -0.120870
0.283643 0.298499 0.264009
0.281666 -0.331393 -0.590408
0.313011 -0.289523 -0.401936
0.477850 -0.138586 -0.512826
0.320347 -0.230843 -0.036992
0.408363 -0.218270 -0.705094
0.334935 -0.134873 -0.915257
0.369727 -0.130154 -0.120200
0.364638 -0.003710 -0.919927
0.369882 0.139187 -0.146518
0.522942 0.158683 0.750225
0.389896 0.214039 -0.759006
0.381589 0.245696 -0.436915
0.286243 0.311298 -0.438455
0.345856 0.226080 -0.268454
0.299943 0.298695 0.164460
0.392606 -0.272390 -0.575363
0.339998 -0.288258 0.267623
0.363393 -0.230554 0.067765
0.468892 -0.237310 0.261567
0.361375 -0.260630 0.424509
0.360126 -0.244200 0.564528
0.390491 -0.157261 -0.277324
0.336276 -0.253140 0.509637
0.436279 -0.162554 -0.404285
0.443596 -0.193593 0.495110
0.478362 -0.207993 0.734496
0.390204 -0.136045 -0.846762
0.398950 -0.095396 -0.028931
0.455639 -0.125750 0.057620
0.391044 0.010353 -0.098846
0.600917 -0.074589 0.783677
0.405101 0.043395 -0.202988
0.568949 0.048611 0.794198
0.331555 0.125875 -0.936254
0.483452 0.119871 0.793550
0.410922 0.124400 -0.842334
0.460644 0.114070 -0.409504
0.405703 0.129040 -0.282689
0.392425 0.110078 -0.034676
0.469353 0.058539 0.051627
0.370528 0.233726 0.085494
0.338823 0.253531 0.523334
0.490085 0.178266 0.452200
0.360960 0.278252 -0.586959
0.381330 0.263067 0.421909
0.358827 0.289154 0.279085
0.466589 -0.227684 0.668889
0.478599 -0.155273 -0.643487
0.525825 -0.102497 0.465409
0.588846 -0.170096 0.247947
0.470209 -0.028618 -0.769020
0.435910 0.009278 -0.297640
0.485990 -0.012635 -0.425506
0.471792 0.112222 0.525977
0.479488 0.102003 -0.745578
0.577772 0.172563 0.239041
0.488290 0.141593 -0.639885
0.478727 0.145627 -0.504578
0.536276 -0.198941 0.375885
0.497598 -0.180495 0.580581
0.563607 -0.173018 0.705339
0.554891 -0.165885 0.480911
0.596255 -0.060403 0.182956
0.517472 -0.000976 -0.656228
0.521156 0.030870 -0.531798
0.528967 -0.014479 0.513745
0.520100 0.182179 0.583164
0.553502 0.153913 0.475632
0.538495 0.205759 0.356641
0.560685 0.191706 0.652837
0.612157 -0.148437 0.297873
0.630985 -0.083721 0.728338
0.632183 0.004255 0.259253
0.623721 0.046550 0.743431
0.612734 0.075815 0.202016
0.614812 0.149022 0.297686
3 0 2 1
3 1 2 3
3 1 3 10
3 10 3 15
3 3 2 4
3 3 4 15
3 5 2 11
3 2 5 4
3 10 8 1
3 8 10 9
3 7 6 11
3 7 11 2
3 0 7 2
3 9 10 13
3 6 12 11
3 13 10 14
3 10 15 16
3 10 16 14
3 12 17 11
3 11 17 18
3 11 18 5
3 19 15 4
3 15 19 16
3 18 4 5
3 4 26 19
3 1 20 0
3 1 8 20
3 29 20 9
3 20 8 9
3 7 20 6
3 20 7 0
3 21 22 6
3 9 13 30
3 6 22 12
3 14 23 13
3 24 12 22
3 12 24 17
3 16 25 14
3 27 18 17
3 4 18 27
3 26 4 27
3 32 16 26
3 16 19 26
3 20 35 28
3 28 21 6
3 28 38 21
3 28 6 20
3 20 29 36
3 29 9 37
3 38 43 21
3 43 22 21
3 43 44 22
3 44 24 22
3 14 31 23
3 14 25 31
3 44 45 24
3 16 47 25
3 17 24 33
3 24 45 33
3 17 33 27
3 34 49 26
3 32 26 49
3 16 32 47
3 26 27 34
3 20 39 35
3 36 39 20
3 36 29 41
3 29 37 41
3 40 39 36
3 36 41 40
3 37 9 42
3 37 42 50
3 30 42 9
3 23 30 13
3 54 46 34
3 25 47 31
3 48 54 34
3 46 49 34
3 46 56 49
3 45 58 33
3 48 27 59
3 34 27 48
3 32 49 56
3 32 57 47
3 58 59 33
3 33 59 27
3 32 56 57
3 60 28 35
3 51 37 50
3 51 50 61
3 62 38 28
3 60 62 28
3 41 51 52
3 41 37 51
3 39 40 64
3 52 40 41
3 42 30 23
3 52 53 40
3 40 53 54
3 66 44 43
3 54 53 46
3 66 68 44
3 53 55 46
3 68 45 44
3 56 46 55
3 35 63 60
3 35 39 63
3 61 50 71
3 50 72 71
3 72 50 42
3 72 42 23
3 65 53 52
3 72 23 75
3 64 40 67
3 67 40 54
3 65 55 53
3 75 23 31
3 75 31 76
3 76 31 47
3 48 69 67
3 54 48 67
3 77 56 55
3 47 57 76
3 69 59 58
3 69 48 59
3 70 56 77
3 57 70 79
3 76 57 79
3 70 57 56
3 80 62 60
3 80 60 63
3 61 71 81
3 52 51 73
3 51 61 73
3 61 74 73
3 61 81 74
3 71 72 83
3 62 43 38
3 64 63 39
3 73 65 52
3 72 75 88
3 91 63 64
3 67 91 64
3 88 75 95
3 65 92 55
3 69 91 67
3 55 92 77
3 95 76 97
3 75 76 95
3 78 70 77
3 78 101 70
3 101 79 70
3 76 79 100
3 106 80 63
3 81 71 82
3 82 71 83
3 82 83 104
3 86 84 89
3 84 86 85
3 85 86 87
3 109 43 62
3 88 83 72
3 74 90 73
3 74 81 90
3 109 66 43
3 106 63 113
3 113 63 91
3 92 65 73
3 73 90 92
3 89 93 86
3 86 93 94
3 86 94 87
3 111 87 114
3 87 94 96
3 87 96 114
3 113 91 69
3 90 78 92
3 90 101 78
3 113 69 117
3 92 78 77
3 98 94 93
3 94 98 96
3 96 98 99
3 76 100 97
3 69 119 117
3 45 68 119
3 58 45 119
3 119 69 58
3 101 123 79
3 79 120 100
3 79 123 120
3 124 104 83
3 105 84 102
3 102 84 103
3 103 84 85
3 62 80 108
3 128 129 82
3 129 81 82
3 104 124 128
3 82 104 128
3 105 89 84
3 103 85 107
3 108 109 62
3 111 107 85
3 87 111 85
3 107 111 108
3 108 111 112
3 108 112 109
3 110 106 115
3 129 90 81
3 133 134 89
3 109 112 66
3 106 113 115
3 129 135 90
3 134 93 89
3 111 114 112
3 112 114 116
3 112 116 66
3 117 115 113
3 135 101 90
3 66 116 68
3 135 140 101
3 118 114 96
3 99 118 96
3 114 118 116
3 99 122 118
3 98 121 99
3 99 121 122
3 119 68 116
3 123 101 140
3 126 80 127
3 80 106 127
3 103 107 125
3 125 107 126
3 108 80 126
3 148 89 105
3 108 126 107
3 127 106 110
3 128 132 129
3 110 131 130
3 110 115 131
3 132 135 129
3 132 136 135
3 115 137 131
3 131 137 138
3 131 138 139
3 117 137 115
3 134 153 93
3 140 135 136
3 136 142 140
3 153 98 93
3 141 137 117
3 98 155 121
3 116 118 143
3 119 116 143
3 117 119 141
3 142 123 140
3 123 142 120
3 120 142 156
3 156 100 120
3 122 121 144
3 157 118 122
3 143 158 119
3 119 158 141
3 125 145 102
3 103 125 102
3 102 145 105
3 146 125 126
3 146 126 127
3 146 127 162
3 147 162 127
3 145 148 105
3 130 149 147
3 150 128 124
3 110 147 127
3 147 110 130
3 148 133 89
3 149 130 151
3 150 151 128
3 151 132 128
3 166 83 88
3 130 131 151
3 132 151 136
3 152 151 131
3 139 152 131
3 151 152 136
3 139 138 154
3 139 154 152
3 152 142 136
3 155 98 153
3 138 137 154
3 142 152 156
3 141 154 137
3 168 100 156
3 169 121 155
3 143 118 157
3 159 143 157
3 143 159 158
3 160 158 159
3 158 160 141
3 169 144 121
3 169 161 144
3 122 144 161
3 122 161 157
3 145 125 172
3 173 172 125
3 173 125 146
3 172 148 145
3 173 146 164
3 164 146 175
3 146 162 175
3 162 147 163
3 163 147 149
3 163 149 165
3 165 150 124
3 151 165 149
3 150 165 151
3 154 167 152
3 152 167 156
3 100 168 181
3 181 97 100
3 170 159 184
3 160 159 170
3 141 160 186
3 141 171 154
3 186 171 141
3 167 154 171
3 159 157 184
3 184 157 161
3 187 173 174
3 187 172 173
3 163 188 162
3 172 176 148
3 172 187 176
3 175 162 189
3 189 162 188
3 188 163 191
3 192 165 124
3 193 173 164
3 191 163 165
3 194 191 165
3 192 194 165
3 133 148 177
3 175 178 164
3 178 193 164
3 202 166 88
3 134 133 179
3 133 177 179
3 204 88 95
3 179 205 134
3 204 95 206
3 206 95 97
3 205 153 134
3 155 153 205
3 170 185 180
3 167 216 213
3 155 182 169
3 182 215 169
3 184 183 185
3 185 170 184
3 212 160 170
3 212 186 160
3 213 156 167
3 213 168 156
3 169 215 161
3 215 183 184
3 215 184 161
3 217 171 186
3 217 167 171
3 216 167 217
3 190 189 188
3 190 188 191
3 192 124 218
3 174 173 195
3 193 195 173
3 194 196 191
3 218 124 197
3 197 124 83
3 177 148 198
3 148 176 198
3 192 196 194
3 83 166 197
3 199 178 175
3 175 189 199
3 189 200 199
3 198 179 177
3 178 199 201
3 178 201 203
3 202 88 204
3 199 210 201
3 179 207 205
3 201 180 203
3 201 210 180
3 209 203 180
3 205 207 155
3 226 182 207
3 226 228 182
3 183 208 209
3 209 180 185
3 211 212 210
3 214 225 213
3 182 155 207
3 209 185 183
3 210 170 180
3 170 210 212
3 225 168 213
3 206 97 181
3 182 228 215
3 215 229 183
3 216 214 213
3 212 217 186
3 219 176 187
3 174 219 187
3 190 191 230
3 191 196 230
3 192 218 231
3 200 190 221
3 189 190 200
3 196 220 230
3 231 196 192
3 176 222 198
3 176 219 222
3 193 178 223
3 200 221 234
3 222 179 198
3 219 235 222
3 224 174 195
3 195 193 224
3 193 223 224
3 178 203 223
3 200 211 199
3 225 220 196
3 231 237 225
3 196 231 225
3 235 226 222
3 199 211 210
3 207 179 222
3 223 203 209
3 214 220 225
3 237 238 225
3 222 226 207
3 208 229 224
3 224 223 208
3 223 209 208
3 228 229 215
3 229 208 183
3 212 211 227
3 168 225 238
3 217 240 216
3 240 214 216
3 230 221 190
3 218 232 231
3 218 197 232
3 231 232 233
3 166 232 197
3 230 220 233
3 232 166 202
3 219 174 235
3 174 236 235
3 174 224 236
3 237 233 220
3 233 237 231
3 200 234 211
3 234 246 211
3 239 237 220
3 214 239 220
3 237 239 238
3 224 229 236
3 204 206 181
3 228 226 235
3 235 236 228
3 236 229 228
3 211 246 227
3 214 240 239
3 241 238 239
3 227 217 212
3 240 217 227
3 241 168 238
3 241 181 168
3 230 242 221
3 233 242 230
3 232 242 233
3 234 221 242
3 242 232 243
3 232 202 243
3 242 244 234
3 242 243 244
3 243 245 244
3 243 202 245
3 234 244 246
3 202 204 245
3 244 247 246
3 244 245 247
3 204 181 245
3 246 247 227
3 245 241 247
3 245 181 241
3 240 227 247
3 239 240 247
3 241 239 247
