ply
format ascii 1.0
element vertex 252
property float x
property float y
property float z
element face 500
property list uchar int vertex_indices
end_header
-0.423310 -0.105334 0.592471
-0.447797 -0.074156 0.735793
-0.453518 0.006171 0.570057
-0.451479 -0.009760 0.740046
-0.449548 0.061616 0.602639
-0.445698 0.067548 0.738268
-0.361098 -0.211367 0.668965
-0.353819 -0.191453 0.597936
-0.401000 -0.172008 0.636526
-0.419084 -0.129482 0.731284
-0.407971 -0.066384 0.547229
-0.427922 -0.067016 0.769085
-0.442998 -0.005515 0.549831
-0.430656 0.007850 0.772846
-0.418518 0.104921 0.583819
-0.427285 0.072061 0.767448
-0.420475 0.119857 0.731409
-0.404605 0.169467 0.631524
-0.376465 0.191417 0.588122
-0.363787 0.207838 0.654967
-0.286688 -0.233641 0.660668
-0.343927 -0.204227 0.726617
-0.349116 -0.137213 0.773155
-0.354652 -0.142754 0.559681
-0.340469 -0.076568 0.539126
-0.345045 -0.076549 0.795482
-0.354537 0.018118 0.540341
-0.357536 -0.023936 0.797877
-0.356512 0.037546 0.794916
-0.360438 0.126185 0.553409
-0.345432 0.120967 0.773472
-0.337895 0.192185 0.581407
-0.338794 0.201954 0.723203
-0.278063 0.231964 0.686873
-0.247246 -0.192899 0.586155
-0.254890 -0.218080 0.728896
-0.175810 0.053646 0.539122
-0.211288 0.117782 0.546941
-0.096631 0.193056 0.558043
-0.260274 0.212958 0.734502
-0.036871 -0.265575 0.645558
-0.040209 -0.163802 0.765486
-0.212458 -0.102691 0.544424
-0.040384 -0.092224 0.794471
-0.194085 -0.028400 0.536623
-0.035541 -0.026110 0.804264
-0.033519 0.048333 0.802065
-0.047740 0.101420 0.794468
-0.033319 0.164934 0.767208
-0.039471 0.214471 0.718857
-0.054229 0.231201 0.640364
-0.037630 -0.269409 0.662069
-0.107743 -0.210296 0.588414
-0.036353 -0.227810 0.567617
-0.019128 -0.211081 0.723390
-0.039568 -0.188881 -0.877209
-0.042757 -0.198693 -0.440292
-0.027439 -0.184266 -0.339831
-0.014230 -0.190509 0.354863
-0.059416 -0.117023 0.366099
-0.110956 -0.189837 0.567573
-0.062647 -0.184597 0.508708
-0.066845 -0.116839 -0.902194
-0.070627 -0.118406 -0.370033
-0.119639 -0.134410 0.536701
-0.088937 -0.097778 0.491432
-0.070408 -0.040958 0.342097
-0.062615 -0.043355 -0.979342
-0.085130 -0.026667 -0.899920
-0.077404 -0.035289 -0.342026
-0.045914 -0.066725 -0.276021
-0.036808 -0.077979 0.275285
-0.086257 -0.023658 0.425358
-0.113950 -0.057640 0.525783
-0.096696 -0.030546 0.506368
-0.052325 0.032442 -0.272193
-0.046118 0.030490 0.274550
-0.060364 0.031186 -0.960210
-0.089737 0.044408 -0.864946
-0.078801 0.036421 -0.337181
-0.075012 0.030396 0.347857
-0.086244 0.024340 0.425748
-0.118095 0.023623 0.526458
-0.098492 0.054671 0.502264
-0.071368 0.110056 -0.905871
-0.064572 0.112332 -0.363972
-0.063115 0.102540 0.363116
-0.122527 0.107338 0.535100
-0.092868 0.141953 0.515772
-0.026582 0.187438 -0.904525
-0.032874 0.207313 -0.809773
-0.020241 0.191454 -0.347385
-0.016731 0.189035 0.349788
-0.044208 0.207452 0.495210
-0.031574 0.230823 0.592724
0.053127 -0.236611 -0.809386
0.017372 -0.238825 -0.415834
0.042101 -0.235685 0.402391
0.037114 -0.235298 0.511106
0.026775 -0.204146 -0.892570
0.003256 -0.236490 -0.807075
-0.021676 -0.222307 0.500657
0.047372 -0.201992 0.663433
-0.035366 -0.160777 -0.921579
0.036977 -0.214300 -0.274369
0.036760 -0.180365 -0.190362
0.034928 -0.179121 0.192406
0.003218 -0.159958 0.257686
-0.012040 -0.125296 -0.253959
0.006586 -0.116044 -0.180823
0.000879 -0.108830 0.188597
-0.027574 -0.088707 -0.968985
-0.046105 -0.037130 -0.989787
-0.010721 -0.062171 -0.193829
-0.015907 -0.026118 0.190506
-0.017370 -0.001524 -0.188705
-0.015663 0.044786 0.195472
-0.020676 0.100680 -0.957220
-0.012287 0.083213 -0.196325
-0.040160 0.127188 -0.293090
0.002542 0.110392 0.176793
-0.023314 0.113456 0.266753
-0.008117 0.162273 -0.268545
0.031793 0.181521 -0.192389
0.033767 0.176781 0.187891
0.037998 0.210827 0.269159
-0.006154 0.226552 -0.875076
-0.010179 0.234725 -0.453477
-0.035955 0.226305 0.550768
0.046944 0.197987 0.673543
0.038886 0.230029 -0.808795
0.017013 0.236837 -0.408650
0.040601 0.235791 0.427686
0.028292 0.235996 0.509054
0.050201 -0.240798 -0.358313
0.115234 -0.234032 -0.185883
0.109893 -0.232057 0.191534
0.048281 -0.236934 0.337411
0.042357 -0.231543 0.590650
0.109782 -0.191136 -0.871777
0.115988 -0.210045 -0.817323
0.091293 -0.226937 -0.441915
0.043209 -0.218568 0.276463
0.109544 -0.219319 0.428358
0.103661 -0.215280 0.500314
0.026331 -0.171236 0.739463
0.018032 -0.157223 -0.942835
0.030631 -0.121382 0.768952
0.066122 -0.112720 0.739043
0.109986 -0.080458 0.669508
0.133749 -0.037224 -0.996262
0.037268 -0.055004 0.781286
0.083001 -0.029399 0.738221
0.117957 -0.001189 0.671804
0.123339 0.040466 -0.993090
0.040219 0.020992 0.782771
0.082335 0.051661 0.738261
0.121171 0.086700 -0.971945
0.110880 0.095897 0.661611
0.034555 0.105382 0.772065
0.069658 0.124397 0.733512
0.039507 0.161886 -0.940449
0.047885 0.217544 -0.260382
0.027917 0.173597 0.741969
0.033673 0.214166 -0.897925
0.116113 0.188350 -0.878802
0.116567 0.203292 -0.797778
0.094413 0.223821 -0.413218
0.057169 0.233342 -0.344229
0.071066 0.220852 -0.178095
0.049015 0.233583 0.337586
0.121789 0.220996 0.366541
0.092345 0.221596 0.488242
0.040681 0.223102 0.620525
0.045075 0.227134 0.573560
0.124747 0.235569 -0.197980
0.123308 0.230392 0.199964
0.126319 -0.217044 -0.352091
0.120618 -0.237790 -0.267355
0.122796 -0.238855 0.268996
0.121479 -0.222440 0.353939
0.181722 -0.198837 -0.283620
0.183525 -0.207000 0.277413
0.106675 -0.192329 0.565079
0.104478 -0.117265 -0.952331
0.140447 -0.176495 -0.814225
0.152069 -0.165651 -0.415300
0.165723 -0.178421 -0.349538
0.145776 -0.174634 0.438646
0.150531 -0.111337 -0.903954
0.192784 -0.135813 -0.347325
0.188652 -0.144608 0.354445
0.171944 -0.117128 0.421547
0.137702 -0.118696 0.576567
0.164308 -0.114060 -0.815376
0.184192 -0.061477 -0.442405
0.168469 -0.070482 0.498856
0.142864 -0.040677 -0.988319
0.168045 -0.056138 -0.890565
0.185088 -0.051492 0.434771
0.155663 -0.039072 0.579103
0.168347 0.001400 -0.885994
0.192691 -0.013667 -0.415864
0.174504 0.002878 0.508070
0.144092 0.038975 -0.982288
0.185187 0.040864 -0.439844
0.191207 0.029970 0.432616
0.155346 0.040086 0.579098
0.167151 0.059704 -0.887887
0.166964 0.077656 0.500402
0.149585 0.118132 -0.908421
0.181617 0.101280 -0.435915
0.171148 0.131925 0.413885
0.144600 0.111282 0.567876
0.111204 0.160000 -0.926939
0.139892 0.177795 -0.816373
0.146686 0.179553 -0.419610
0.191731 0.145233 -0.348532
0.194057 0.152483 0.341844
0.147413 0.168414 0.446374
0.126783 0.216101 -0.349849
0.163760 0.180854 0.367780
0.100810 0.185006 0.586029
0.107032 0.236409 -0.281229
0.171109 0.211382 -0.268657
0.110269 0.237348 0.275814
0.175633 0.209680 0.275050
0.190495 -0.213676 -0.210602
0.188645 -0.215456 0.189063
0.223234 -0.152209 -0.269645
0.231579 -0.171830 -0.180840
0.236761 -0.162162 0.194754
0.225364 -0.156708 0.272739
0.217115 -0.067023 -0.352871
0.252798 -0.060637 -0.257102
0.249233 -0.102731 0.261871
0.225556 -0.066952 0.342324
0.256543 -0.026673 0.272999
0.236939 -0.010898 -0.338769
0.256972 0.012132 -0.282189
0.236129 0.008561 0.343625
0.256656 0.033960 0.274243
0.218533 0.065398 -0.352093
0.250055 0.087570 -0.236044
0.221812 0.082959 0.346331
0.249679 0.100189 0.263309
0.222938 0.147353 -0.280086
0.232325 0.162226 -0.214192
0.234341 0.165246 0.177058
0.224591 0.155710 0.272926
0.199405 0.205593 -0.190880
0.197214 0.207967 0.197873
3 0 1 9
3 9 1 11
3 12 0 10
3 2 0 12
3 0 2 1
3 1 2 3
3 11 3 13
3 1 3 11
3 14 2 12
3 4 2 14
3 2 4 3
3 3 4 5
3 13 5 15
3 3 5 13
3 4 14 5
3 14 16 5
3 5 16 15
3 7 8 6
3 21 6 9
3 6 8 9
3 21 9 22
3 0 7 23
3 7 0 8
3 0 23 10
3 23 24 10
3 9 8 0
3 9 11 22
3 11 25 22
3 24 26 10
3 26 12 10
3 25 11 27
3 27 11 13
3 27 13 28
3 26 14 12
3 28 13 15
3 26 29 14
3 28 15 30
3 16 14 17
3 16 30 15
3 31 14 29
3 18 14 31
3 14 18 17
3 30 16 32
3 31 19 18
3 19 17 18
3 32 16 19
3 16 17 19
3 20 7 6
3 20 34 7
3 6 21 20
3 21 35 20
3 21 22 35
3 34 23 7
3 36 37 26
3 37 29 26
3 37 31 29
3 39 30 32
3 19 31 33
3 33 32 19
3 33 39 32
3 40 34 20
3 22 41 35
3 42 23 34
3 42 24 23
3 41 22 43
3 43 22 25
3 42 44 24
3 43 25 45
3 44 26 24
3 45 25 27
3 44 36 26
3 46 27 28
3 46 28 47
3 47 28 30
3 47 30 48
3 38 31 37
3 48 30 39
3 49 39 33
3 20 51 40
3 52 34 40
3 51 20 35
3 34 52 60
3 35 41 54
3 60 64 34
3 64 42 34
3 64 73 42
3 73 44 42
3 73 82 44
3 82 36 44
3 45 27 46
3 82 87 36
3 87 37 36
3 87 38 37
3 38 50 31
3 50 33 31
3 50 49 33
3 53 52 40
3 54 51 35
3 58 59 61
3 53 60 52
3 61 60 53
3 62 55 103
3 55 62 56
3 56 62 63
3 56 63 57
3 61 59 65
3 61 65 64
3 60 61 64
3 111 62 103
3 57 63 70
3 71 59 58
3 59 66 65
3 112 67 111
3 111 67 62
3 67 68 62
3 62 68 63
3 63 68 69
3 63 69 70
3 71 66 59
3 66 72 65
3 65 72 74
3 65 74 73
3 64 65 73
3 70 69 75
3 71 76 66
3 77 67 112
3 67 77 68
3 68 77 78
3 68 78 69
3 69 78 79
3 69 79 75
3 66 76 80
3 66 80 72
3 72 80 81
3 72 81 74
3 74 81 83
3 74 83 82
3 73 74 82
3 117 84 77
3 84 78 77
3 78 84 85
3 78 85 79
3 75 85 119
3 75 79 85
3 86 80 76
3 80 86 81
3 81 86 83
3 83 86 88
3 83 88 87
3 82 83 87
3 121 86 76
3 89 84 117
3 84 89 90
3 84 90 85
3 85 90 91
3 85 91 119
3 92 86 121
3 86 92 93
3 86 93 88
3 87 88 38
3 128 94 38
3 93 128 38
3 93 38 88
3 49 48 39
3 94 50 38
3 99 100 95
3 95 100 96
3 96 100 56
3 134 96 57
3 96 56 57
3 134 57 104
3 142 58 137
3 137 58 97
3 58 101 97
3 97 101 98
3 98 53 138
3 98 101 53
3 101 61 53
3 40 138 53
3 40 102 138
3 40 51 102
3 51 54 102
3 99 103 55
3 99 146 103
3 100 99 55
3 56 100 55
3 106 107 142
3 142 107 58
3 61 101 58
3 102 54 145
3 41 145 54
3 108 104 57
3 104 108 105
3 105 108 109
3 105 109 106
3 106 109 110
3 106 110 107
3 145 41 147
3 146 111 103
3 70 108 57
3 107 110 71
3 58 107 71
3 147 41 43
3 112 111 150
3 70 113 108
3 108 113 109
3 109 113 110
3 110 113 114
3 114 71 110
3 147 43 151
3 151 43 45
3 115 113 70
3 113 115 114
3 150 154 112
3 154 77 112
3 75 115 70
3 114 115 116
3 114 116 76
3 71 114 76
3 151 45 155
3 155 45 46
3 118 115 75
3 115 118 116
3 154 117 77
3 157 117 154
3 75 119 118
3 116 118 120
3 76 116 121
3 121 116 120
3 155 46 159
3 159 46 47
3 157 161 117
3 119 122 118
3 118 122 123
3 118 123 120
3 159 47 48
3 161 89 117
3 123 124 120
3 120 124 121
3 121 124 125
3 121 125 92
3 89 164 126
3 89 161 164
3 90 89 126
3 91 90 127
3 91 162 122
3 91 122 119
3 162 123 122
3 49 129 163
3 163 48 49
3 159 48 163
3 130 126 164
3 130 90 126
3 90 130 127
3 127 130 131
3 168 91 131
3 91 127 131
3 91 168 162
3 125 170 92
3 132 92 170
3 132 93 92
3 93 132 133
3 128 93 133
3 128 133 174
3 128 174 94
3 173 129 50
3 173 50 94
3 173 94 174
3 49 50 129
3 95 139 99
3 95 140 139
3 95 141 140
3 95 96 141
3 134 141 96
3 134 177 141
3 104 178 134
3 178 177 134
3 178 104 135
3 104 105 135
3 135 105 136
3 136 105 106
3 136 142 179
3 136 106 142
3 142 137 179
3 137 180 179
3 97 180 137
3 97 143 180
3 97 98 143
3 98 144 143
3 138 144 98
3 139 184 99
3 184 146 99
3 144 138 183
3 183 138 102
3 193 183 102
3 145 148 102
3 145 147 148
3 184 111 146
3 149 193 102
3 102 148 149
3 111 184 150
3 148 152 149
3 148 151 152
3 147 151 148
3 149 152 153
3 152 156 153
3 152 155 156
3 151 155 152
3 153 156 158
3 156 160 158
3 156 159 160
3 155 159 156
3 214 161 157
3 222 213 158
3 129 222 158
3 158 160 129
3 160 163 129
3 160 159 163
3 165 164 214
3 164 161 214
3 169 123 162
3 124 123 169
3 172 222 174
3 222 129 173
3 222 173 174
3 164 165 130
3 165 166 130
3 166 167 130
3 167 131 130
3 167 220 168
3 167 168 131
3 162 168 223
3 168 220 223
3 175 162 223
3 175 169 162
3 169 175 176
3 169 176 124
3 225 125 176
3 125 124 176
3 125 225 170
3 225 171 170
3 171 132 170
3 171 172 132
3 172 133 132
3 133 172 174
3 181 177 178
3 178 227 181
3 178 135 227
3 227 135 228
3 135 136 228
3 228 179 182
3 228 136 179
3 180 182 179
3 185 139 140
3 141 185 140
3 186 185 141
3 177 186 141
3 177 187 186
3 181 190 187
3 181 187 177
3 191 182 180
3 143 188 180
3 144 188 143
3 183 188 144
3 189 184 139
3 139 185 189
3 187 190 186
3 180 188 191
3 188 192 191
3 183 193 188
3 185 194 189
3 185 186 194
3 186 195 194
3 190 233 195
3 190 195 186
3 199 191 192
3 188 196 192
3 188 193 196
3 184 197 150
3 184 189 197
3 189 198 197
3 189 194 198
3 194 195 198
3 192 196 199
3 193 200 196
3 193 149 200
3 198 201 197
3 198 195 201
3 195 202 201
3 195 233 202
3 196 203 199
3 196 200 203
3 149 153 200
3 204 150 197
3 154 150 204
3 197 201 204
3 201 202 205
3 199 203 206
3 200 207 203
3 200 153 207
3 201 208 204
3 201 205 208
3 202 242 205
3 203 209 206
3 203 207 209
3 153 158 207
3 204 157 154
3 157 204 210
3 204 208 210
3 208 211 210
3 208 205 211
3 205 242 211
3 212 244 206
3 206 209 212
3 207 213 209
3 158 213 207
3 214 157 210
3 210 211 215
3 211 216 215
3 242 217 211
3 211 217 216
3 218 244 212
3 209 219 212
3 209 213 219
3 217 220 216
3 218 212 221
3 212 219 221
3 213 222 219
3 210 165 214
3 215 165 210
3 166 165 215
3 216 166 215
3 167 166 216
3 167 216 220
3 217 224 220
3 226 218 221
3 226 221 171
3 171 221 219
3 172 171 219
3 222 172 219
3 223 220 224
3 224 175 223
3 224 250 175
3 250 251 175
3 175 251 176
3 226 225 176
3 226 176 251
3 171 225 226
3 181 229 190
3 181 227 229
3 227 230 229
3 227 228 230
3 228 231 230
3 182 232 228
3 232 231 228
3 182 191 232
3 190 229 233
3 229 234 233
3 229 230 234
3 230 231 234
3 231 235 234
3 231 232 235
3 191 236 232
3 236 235 232
3 191 199 236
3 235 237 234
3 235 236 237
3 202 233 238
3 233 234 238
3 234 239 238
3 234 237 239
3 236 240 237
3 236 206 240
3 199 206 236
3 237 241 239
3 237 240 241
3 242 202 238
3 238 239 242
3 239 243 242
3 239 241 243
3 240 244 241
3 206 244 240
3 241 245 243
3 241 244 245
3 217 242 246
3 242 243 246
3 243 247 246
3 243 248 247
3 243 245 248
3 245 249 248
3 218 249 244
3 249 245 244
3 246 224 217
3 224 246 250
3 246 247 250
3 247 248 250
3 248 251 250
3 226 251 249
3 251 248 249
3 249 218 226
