ply
format ascii 1.0
element vertex 252
property float x
property float y
property float z
element face 500
property list uchar int vertex_indices
end_header
-0.479611 -0.161862 0.451855
-0.529682 -0.112711 0.659206
-0.542864 -0.079594 0.412546
-0.538786 0.026062 0.662140
-0.537703 0.038454 0.426600
-0.499358 0.134580 0.650229
-0.474345 0.162687 0.440300
-0.425004 -0.234389 0.485930
-0.426484 -0.231696 0.581497
-0.499765 -0.162842 0.659687
-0.522315 -0.073108 0.384908
-0.509970 -0.095539 0.695509
-0.515772 0.054599 0.701246
-0.503523 0.058291 0.382375
-0.448384 0.219842 0.596683
-0.408465 0.248001 0.502257
-0.405642 -0.236019 0.457847
-0.432402 -0.187895 0.664173
-0.288594 -0.207414 0.346832
-0.253073 -0.164491 0.306066
-0.403545 -0.093011 0.710650
-0.409975 -0.088754 0.336588
-0.446347 -0.006646 0.343293
-0.444276 0.010060 0.720255
-0.420760 0.090910 0.346652
-0.444437 0.111419 0.703504
-0.420415 0.143964 0.371153
-0.438689 0.216314 0.444976
-0.393456 0.197178 0.658609
-0.327085 -0.275797 0.510494
-0.302286 -0.280292 0.568651
-0.279228 -0.251982 0.404601
-0.282767 -0.072841 0.285136
-0.261263 0.038233 0.279294
-0.257489 0.211977 0.351531
-0.304602 0.250136 0.421362
-0.329568 0.278199 0.513536
-0.335172 0.268019 0.566927
0.257093 -0.014842 0.706587
0.262364 0.141495 0.688136
-0.213122 0.287374 0.501532
-0.203109 -0.285285 0.504763
-0.114600 -0.279574 0.511367
-0.160855 -0.282427 0.559887
-0.199376 -0.215009 0.352323
-0.143190 -0.158300 -0.966112
-0.143894 -0.149896 -0.570868
-0.106833 -0.196466 -0.557771
-0.138804 -0.119337 -0.497595
-0.124903 -0.112177 -1.034484
-0.173950 -0.048847 -0.959830
-0.200366 -0.077120 0.279108
-0.165395 0.024632 -1.043976
-0.163738 -0.007492 -0.514495
-0.128349 0.019223 0.296436
-0.187069 0.041790 -0.975012
-0.195349 0.026720 0.265190
-0.151867 0.069114 -0.512133
-0.169002 0.108022 -0.990873
-0.191819 0.121281 0.295127
-0.119384 0.206639 -0.582198
-0.120249 0.191882 -0.956146
-0.107621 0.194111 -0.504400
-0.187701 0.219474 0.352648
-0.181842 0.266806 0.426923
-0.144247 0.286895 0.531997
-0.151096 0.286490 0.509831
-0.038176 -0.278246 -0.859878
-0.007800 -0.285244 -0.547792
-0.059712 -0.227302 0.435899
0.248478 -0.189212 0.647649
-0.118720 -0.189854 -0.983678
-0.110286 -0.218904 -0.908934
-0.102987 -0.126345 0.339595
-0.072243 -0.190683 -0.411790
-0.029404 -0.208871 -0.053142
-0.029187 -0.189819 0.024687
-0.089890 -0.090708 -0.327836
-0.053124 -0.128312 0.019840
-0.023233 -0.130712 0.380387
-0.079279 -0.015526 -1.076634
-0.124350 -0.044839 -0.424477
-0.095363 -0.003321 -0.337695
-0.064824 -0.021557 0.045241
-0.020112 -0.009853 0.345676
-0.114178 0.117335 -1.038695
-0.105908 0.089311 -0.421052
-0.087679 0.085439 -0.365239
-0.055653 0.082142 0.013184
-0.119650 0.146729 0.333748
-0.025411 0.115462 0.364653
-0.052346 0.205712 -0.406160
-0.016179 0.195654 0.026980
0.147974 0.281043 0.562840
-0.034836 0.276787 -0.885832
-0.063825 0.253229 -0.580473
0.047036 -0.307235 -0.883726
0.012171 -0.259105 0.487200
-0.023642 -0.229856 -0.974380
0.010323 -0.277151 -0.378539
0.054167 -0.259597 0.003574
0.014386 -0.177580 0.113265
0.050278 -0.155331 0.187892
-0.030620 -0.045809 0.124513
0.013825 -0.003756 0.194656
-0.029688 0.039363 0.126183
0.179931 0.047387 -1.075004
0.059338 0.157813 0.188016
-0.023057 0.234530 -0.968698
0.010584 0.177424 0.108761
-0.046082 0.216722 0.417525
0.039826 0.258338 -0.039167
0.027847 0.230642 0.060436
0.017701 0.283672 -0.497079
0.026983 0.276615 -0.407189
-0.002443 0.262857 0.493207
0.033179 0.303372 -0.878729
0.028965 -0.319901 -0.811768
0.040703 -0.318669 -0.612787
0.121887 -0.307344 -0.094008
0.109496 -0.258404 -0.957201
0.096452 -0.226668 0.168944
0.039222 -0.184658 0.409403
0.170667 -0.132353 -1.038414
0.106105 -0.189373 0.260528
0.114847 -0.193459 0.343924
0.073970 -0.116202 0.279245
0.064560 -0.090899 0.333668
0.207629 -0.046667 -1.071912
0.051227 -0.028471 0.290928
0.034061 -0.030597 0.338517
0.052599 0.048080 0.279236
0.046498 0.090449 0.341331
0.272338 0.063100 0.701951
0.117331 0.178504 0.295877
0.190298 0.132314 -1.032461
0.114897 0.196121 0.361048
0.038666 0.209346 0.432582
0.281561 0.196252 0.648027
0.141107 0.243501 -0.967670
0.115672 0.255836 0.133063
0.028592 0.311753 -0.805538
0.039620 0.305995 -0.590050
0.111727 0.301585 -0.115074
0.136770 0.304608 -0.042166
0.128274 -0.291300 -0.904162
0.117337 -0.311738 -0.812026
0.075314 -0.314182 -0.503855
0.174018 -0.302446 -0.550159
0.211306 -0.294696 -0.081602
0.191739 -0.308241 0.033420
0.198839 -0.293931 0.157545
0.204341 -0.292342 0.505562
0.180350 -0.280072 0.554888
0.182681 -0.257340 0.271621
0.197214 -0.263760 0.341878
0.128486 -0.244440 0.420395
0.289636 -0.106650 0.688657
0.183237 0.254036 0.337307
0.141417 0.270789 0.494778
0.175718 0.297079 0.053580
0.183202 0.261862 0.245773
0.116742 0.291926 -0.899437
0.102879 0.316246 -0.810349
0.184243 0.291991 -0.797942
0.075400 0.305558 -0.504379
0.201318 0.292971 -0.075865
0.215220 0.298877 0.157799
0.264862 -0.219150 -0.903729
0.266961 -0.285166 0.031105
0.263380 -0.295974 0.295425
0.262051 -0.299239 0.432900
0.206750 -0.216173 -0.967367
0.278092 -0.227006 -0.814045
0.300400 -0.211271 -0.154476
0.284754 -0.136563 -0.978859
0.244192 -0.068871 -1.050527
0.240191 0.027599 -1.057369
0.287731 0.142696 -0.960225
0.209090 0.211597 -0.971067
0.196233 0.260552 -0.906226
0.255003 0.245318 -0.830209
0.282238 0.239578 -0.120326
0.218192 0.298129 0.501951
0.284291 0.285121 0.527643
0.272119 0.279262 0.025588
0.263444 0.295836 0.282772
0.283467 0.310215 0.440504
0.274083 -0.295995 0.155545
0.291442 -0.284116 0.519803
0.329323 -0.216262 -0.039261
0.350698 -0.230174 0.052158
0.364351 -0.202695 0.607251
0.335030 -0.127188 -0.895824
0.329298 -0.150507 -0.195942
0.345369 -0.133131 0.661345
0.349183 -0.140689 -0.114736
0.328494 -0.039639 -0.968954
0.353826 -0.073871 -0.193653
0.299807 0.073800 -0.992415
0.339276 0.054358 -0.892955
0.339634 0.121125 -0.196035
0.309740 0.161298 -0.865093
0.359523 0.123643 -0.112782
0.345080 0.122539 0.671864
0.287344 0.214975 -0.812621
0.291449 0.230489 -0.109557
0.271240 0.207655 -0.899530
0.339927 0.207489 -0.039407
0.442835 0.176601 0.588634
0.362134 0.231831 0.089543
0.271954 0.297392 0.137697
0.364531 -0.288668 0.314076
0.348089 -0.298324 0.411719
0.363755 -0.258993 0.183010
0.415723 -0.235817 0.523446
0.424269 -0.240995 0.274314
0.427070 -0.255685 0.375625
0.414651 -0.190283 0.122108
0.393010 -0.134266 -0.023436
0.455684 -0.104947 0.106466
0.357245 -0.054657 -0.891944
0.380263 -0.014222 -0.122853
0.344633 0.000524 0.684248
0.361032 -0.011093 -0.203347
0.354525 0.063945 -0.181032
0.395722 0.140940 -0.022513
0.463007 0.098212 0.122446
0.449237 0.210035 0.241163
0.355663 0.276508 0.243017
0.442639 0.235707 0.340546
0.431903 0.234541 0.492853
0.343620 0.292708 0.383941
0.446644 -0.155937 0.601285
0.483645 -0.152651 0.274010
0.499104 -0.151629 0.559451
0.498041 -0.041835 0.184305
0.427960 -0.034758 -0.024851
0.432061 -0.044630 0.644327
0.463796 -0.015397 0.080546
0.421421 0.049320 -0.034764
0.446882 0.093509 0.631357
0.515491 0.064986 0.218629
0.497848 0.155142 0.278429
0.493379 0.177519 0.528764
0.530926 -0.089521 0.567561
0.510653 -0.044020 0.611276
0.523430 -0.033711 0.275156
0.534051 -0.002964 0.575388
0.527036 0.079462 0.282846
0.523673 0.124480 0.546111
0.506149 0.121656 0.588788
3 0 1 9
3 9 1 11
3 2 0 10
3 0 2 1
3 1 2 3
3 1 3 11
3 4 2 10
3 2 4 3
3 11 3 12
3 13 4 10
3 4 5 3
3 3 5 12
3 6 4 13
3 4 6 5
3 16 0 7
3 7 0 8
3 8 0 9
3 17 8 9
3 0 18 10
3 9 11 17
3 11 20 17
3 18 21 10
3 21 22 10
3 20 11 23
3 23 11 12
3 22 13 10
3 22 24 13
3 23 12 25
3 24 26 13
3 25 12 5
3 13 26 6
3 14 5 6
3 28 25 5
3 27 15 6
3 6 15 14
3 28 5 14
3 29 8 30
3 7 8 29
3 30 8 17
3 29 16 7
3 29 31 16
3 16 31 0
3 31 18 0
3 18 19 21
3 27 6 35
3 6 26 35
3 35 15 27
3 14 37 28
3 35 36 15
3 15 37 14
3 36 37 15
3 32 21 19
3 32 33 22
3 21 32 22
3 38 20 23
3 22 33 24
3 33 34 24
3 34 26 24
3 39 25 28
3 26 34 35
3 35 40 36
3 36 40 37
3 31 41 44
3 41 31 29
3 41 29 30
3 43 41 30
3 30 17 43
3 44 18 31
3 44 19 18
3 44 51 19
3 51 32 19
3 51 33 32
3 51 56 33
3 33 56 59
3 59 34 33
3 59 63 34
3 34 63 64
3 35 34 64
3 40 35 64
3 37 40 65
3 41 42 69
3 42 41 43
3 17 70 43
3 44 41 69
3 71 45 72
3 72 45 47
3 45 46 47
3 44 69 73
3 49 45 71
3 47 46 48
3 70 17 20
3 49 50 45
3 45 50 46
3 46 50 48
3 73 51 44
3 54 51 73
3 52 49 80
3 49 52 50
3 48 50 53
3 48 53 81
3 50 52 55
3 50 55 53
3 56 51 54
3 85 52 80
3 55 57 53
3 81 57 86
3 53 57 81
3 55 52 58
3 55 58 57
3 56 54 59
3 59 54 89
3 85 58 52
3 57 58 60
3 61 58 85
3 57 60 62
3 57 62 86
3 58 61 60
3 63 59 89
3 93 28 37
3 40 66 65
3 93 37 65
3 66 40 64
3 42 97 69
3 97 42 43
3 98 71 67
3 71 72 67
3 67 72 47
3 67 47 68
3 68 47 74
3 98 49 71
3 48 74 47
3 74 77 78
3 74 78 75
3 75 78 76
3 73 69 79
3 81 74 48
3 74 81 77
3 77 81 82
3 77 82 83
3 77 83 78
3 78 83 103
3 84 73 79
3 54 73 84
3 103 83 105
3 106 85 80
3 81 86 82
3 82 86 87
3 82 87 88
3 82 88 83
3 83 88 105
3 90 54 84
3 89 54 90
3 87 86 91
3 87 91 88
3 88 91 92
3 90 110 89
3 61 85 108
3 62 91 86
3 89 110 63
3 108 94 61
3 61 94 95
3 61 95 60
3 62 60 95
3 62 95 91
3 110 64 63
3 64 110 115
3 115 66 64
3 115 65 66
3 96 67 117
3 117 68 118
3 67 68 117
3 96 98 67
3 96 120 98
3 98 120 123
3 68 74 99
3 99 75 100
3 100 75 76
3 122 69 97
3 123 49 98
3 75 99 74
3 76 101 100
3 78 101 76
3 122 79 69
3 49 123 80
3 123 128 80
3 103 101 78
3 101 103 102
3 102 103 104
3 126 104 129
3 102 104 126
3 122 130 79
3 130 84 79
3 103 105 104
3 129 104 131
3 104 105 107
3 104 107 131
3 130 132 84
3 132 90 84
3 133 23 25
3 135 108 85
3 109 105 88
3 92 109 88
3 105 109 107
3 132 137 90
3 137 110 90
3 92 91 111
3 112 92 111
3 92 112 109
3 28 93 138
3 138 39 28
3 91 95 113
3 91 113 114
3 91 114 111
3 110 137 115
3 94 108 116
3 115 93 65
3 116 141 94
3 94 141 95
3 141 142 95
3 95 142 113
3 145 96 146
3 96 117 146
3 117 118 146
3 146 118 147
3 68 147 118
3 68 99 147
3 147 99 119
3 99 100 119
3 145 120 96
3 97 152 156
3 152 97 153
3 97 43 153
3 43 70 153
3 156 122 97
3 121 100 101
3 102 121 101
3 121 102 124
3 125 122 156
3 126 124 102
3 124 126 125
3 125 126 127
3 125 127 122
3 157 70 20
3 126 129 127
3 122 127 130
3 127 129 130
3 129 131 130
3 130 131 132
3 107 134 131
3 131 134 132
3 132 134 136
3 132 136 137
3 139 108 135
3 109 112 140
3 107 109 140
3 159 137 136
3 115 137 159
3 139 162 108
3 162 116 108
3 111 114 143
3 144 111 143
3 111 144 160
3 111 160 112
3 160 140 112
3 159 93 115
3 162 163 116
3 116 163 141
3 141 163 142
3 163 165 142
3 113 142 165
3 113 165 114
3 114 165 143
3 147 148 146
3 149 148 147
3 119 149 147
3 150 119 100
3 150 149 119
3 168 172 145
3 172 120 145
3 168 145 146
3 151 150 100
3 121 151 100
3 121 154 151
3 155 156 171
3 171 156 152
3 120 172 123
3 155 154 125
3 125 156 155
3 154 121 124
3 125 154 124
3 157 20 38
3 128 106 80
3 38 23 133
3 135 85 106
3 133 25 39
3 179 139 135
3 158 136 134
3 139 179 180
3 107 140 161
3 134 107 161
3 134 161 158
3 159 136 158
3 162 139 180
3 162 180 164
3 164 166 165
3 167 140 160
3 140 167 161
3 158 183 159
3 159 183 93
3 163 162 164
3 165 163 164
3 143 165 166
3 166 144 143
3 144 166 160
3 169 149 150
3 169 150 188
3 150 151 188
3 152 189 171
3 173 168 146
3 148 173 146
3 174 173 148
3 149 174 148
3 149 190 174
3 190 149 169
3 188 151 170
3 151 154 170
3 155 170 154
3 171 170 155
3 153 189 152
3 153 70 189
3 123 172 175
3 172 168 175
3 176 123 175
3 128 123 176
3 177 128 176
3 106 128 177
3 135 106 177
3 179 135 178
3 178 207 179
3 179 207 180
3 180 207 181
3 184 138 93
3 164 180 181
3 182 164 181
3 166 164 182
3 182 206 166
3 166 206 185
3 211 186 167
3 167 186 161
3 186 158 161
3 183 158 186
3 187 183 186
3 184 93 183
3 160 166 185
3 211 160 185
3 211 167 160
3 187 184 183
3 212 170 213
3 170 171 213
3 213 171 189
3 188 191 169
3 188 214 191
3 214 188 212
3 188 170 212
3 213 189 215
3 191 190 169
3 189 192 215
3 189 70 192
3 175 168 193
3 168 173 193
3 174 194 173
3 190 196 174
3 192 70 195
3 173 194 193
3 174 196 194
3 70 157 195
3 176 175 197
3 175 193 197
3 194 198 193
3 196 198 194
3 221 197 193
3 221 193 198
3 195 157 223
3 223 157 38
3 177 176 197
3 221 200 197
3 199 177 197
3 197 200 199
3 223 38 133
3 135 177 199
3 200 225 201
3 225 203 201
3 223 133 204
3 178 135 199
3 199 200 178
3 200 202 178
3 200 201 202
3 204 133 39
3 202 206 205
3 202 201 206
3 201 203 206
3 204 39 138
3 207 178 202
3 202 205 207
3 206 182 205
3 203 208 206
3 204 138 209
3 181 207 205
3 182 181 205
3 208 210 185
3 208 185 206
3 209 184 231
3 209 138 184
3 185 210 211
3 229 211 210
3 211 229 186
3 186 229 232
3 232 231 184
3 186 232 187
3 184 187 232
3 216 214 212
3 212 217 216
3 212 213 217
3 213 215 217
3 214 218 191
3 216 218 214
3 215 192 233
3 191 219 190
3 191 218 219
3 219 196 190
3 219 218 220
3 233 192 195
3 196 222 198
3 219 237 222
3 196 219 222
3 238 233 195
3 223 238 195
3 221 198 224
3 198 222 224
3 221 224 200
3 237 240 222
3 241 238 223
3 200 224 225
3 224 222 225
3 225 222 203
3 240 226 203
3 222 240 203
3 204 241 223
3 227 210 226
3 227 228 210
3 241 204 209
3 226 208 203
3 208 226 210
3 210 228 229
3 229 228 230
3 229 230 232
3 230 231 232
3 216 234 218
3 216 217 234
3 217 235 234
3 217 215 235
3 233 235 215
3 220 218 234
3 234 236 220
3 235 233 246
3 219 220 237
3 246 233 238
3 220 239 237
3 220 236 239
3 237 239 240
3 246 238 241
3 239 227 240
3 236 242 227
3 239 236 227
3 246 241 251
3 240 227 226
3 242 243 227
3 227 243 228
3 244 251 209
3 251 241 209
3 243 230 228
3 243 244 230
3 244 231 230
3 231 244 209
3 234 235 245
3 235 246 245
3 234 247 236
3 234 245 247
3 247 245 248
3 245 246 248
3 236 247 242
3 247 249 242
3 247 248 249
3 248 250 249
3 248 251 250
3 246 251 248
3 243 242 249
3 249 250 243
3 250 244 243
3 250 251 244
