ply
format ascii 1.0
element vertex 250
property float x
property float y
property float z
element face 500
property list uchar int vertex_indices
end_header
-0.407281 -0.126200 -0.963060
-0.418894 -0.123286 -0.807243
-0.406184 -0.131246 -0.102948
-0.416837 -0.112469 0.109424
-0.432630 0.007432 -0.091596
-0.415039 0.013689 -1.032999
-0.449374 0.033629 -0.957324
-0.449551 -0.001308 -0.829593
-0.426320 0.028182 -0.746465
-0.433086 -0.002465 0.120973
-0.424386 0.119511 -0.825017
-0.397059 0.132374 0.087318
-0.413010 0.119905 -0.121636
-0.299414 -0.233405 -0.963624
-0.355994 -0.234392 -0.896410
-0.365561 -0.193806 -0.768964
-0.313809 -0.240385 -0.102464
-0.378130 -0.198514 0.084796
-0.403812 -0.093608 -0.725803
-0.341722 -0.108782 -1.043868
-0.393850 -0.042602 -0.204999
-0.362882 -0.168650 0.188294
-0.349483 -0.121999 -0.649617
-0.313871 -0.086590 -0.577967
-0.337400 -0.086571 -0.270377
-0.402498 0.000676 0.194571
-0.342437 -0.087607 0.286859
-0.368516 0.041265 -0.644265
-0.334260 0.034806 -0.578026
-0.325741 0.034842 -0.286959
-0.375987 0.120464 -0.191758
-0.348355 0.091665 0.274029
-0.409605 0.127606 -0.972760
-0.360186 0.113628 -1.042388
-0.363889 0.180967 -0.747383
-0.364486 0.151273 0.202437
-0.340816 0.238612 -0.863979
-0.343768 0.214825 -0.108372
-0.305878 0.228872 -0.956964
-0.317348 0.230127 0.165910
-0.207409 -0.314662 -0.061504
-0.277082 -0.280740 0.082042
-0.279224 -0.285266 -0.860030
-0.255876 -0.218752 -0.632008
-0.272282 -0.213705 0.270112
-0.256279 -0.193659 -0.266352
-0.364028 -0.146418 -0.197070
-0.296028 -0.148284 0.331051
-0.280678 -0.081982 0.373483
-0.251692 -0.059405 -0.398719
-0.336660 0.031681 -1.075053
-0.318030 0.037241 0.335413
-0.242116 0.089940 -0.352584
-0.322238 0.113938 -0.596290
-0.289308 0.219389 -0.659117
-0.281620 0.183426 -0.253692
-0.278877 0.133390 0.350807
-0.267342 0.245039 -0.198646
-0.262194 0.211114 0.284750
-0.284244 0.277310 0.039351
-0.249698 0.290705 -0.800911
-0.216586 0.305657 -0.089029
-0.202898 -0.304199 -0.790718
-0.169037 -0.283163 -0.626795
-0.147245 -0.301299 -0.165791
-0.173287 -0.282017 0.201191
-0.152253 -0.192910 -0.418770
-0.035471 -0.182234 0.552420
-0.192095 -0.032764 -1.079944
-0.182286 0.068903 0.476103
-0.181237 0.154873 -0.365320
-0.211484 0.124168 -1.047664
-0.235864 0.218294 -0.584888
-0.265153 0.291564 -0.885678
-0.190294 0.283028 -0.655463
-0.179889 0.276354 0.180320
-0.208611 -0.308380 0.058411
-0.201420 -0.289555 -0.884352
-0.097242 -0.285100 -0.772747
-0.163593 -0.202691 -0.994759
-0.045189 -0.206708 -0.891496
-0.180339 -0.235456 -0.285347
-0.025632 -0.276427 0.421759
-0.167966 -0.194064 -0.359187
-0.198795 -0.142460 -1.050989
-0.106523 -0.100151 -1.027126
-0.230518 0.093973 -0.434896
-0.108424 0.042746 -1.044744
-0.137131 0.203702 -0.417862
-0.213311 0.223255 -0.269228
-0.049203 0.190669 0.563463
-0.187836 0.269814 -0.897682
-0.114478 0.247621 -0.343091
-0.134019 0.301127 -0.197548
-0.218341 0.312968 0.001090
-0.116395 0.320665 -0.101964
-0.110530 -0.297650 -0.641476
-0.107599 -0.300748 -0.041400
-0.054017 -0.271823 -0.330461
-0.124626 -0.262580 0.147079
0.026052 -0.199269 -0.773214
-0.052532 -0.265678 -0.480313
-0.023063 -0.191910 0.201766
-0.030535 -0.015117 0.611812
0.044861 0.105822 -0.883307
-0.093193 0.156894 -0.983023
-0.065768 0.218804 -0.907848
-0.059675 0.269576 -0.498338
-0.118236 0.264861 0.115273
-0.094356 0.245442 0.189674
-0.015475 0.229855 0.557288
0.006172 0.195860 -0.818547
-0.085959 0.293718 -0.611849
-0.039965 0.292996 -0.324823
-0.148975 0.313241 -0.022850
0.026391 0.294325 0.412833
-0.130445 0.294426 -0.725292
-0.027761 0.269665 -0.612727
-0.026226 0.284634 -0.028505
0.037246 -0.311844 -0.207303
0.000661 -0.320249 -0.126733
-0.035269 -0.274988 -0.614351
-0.043044 -0.252683 0.259925
0.006025 -0.286781 0.344370
0.052842 -0.223990 -0.523742
0.071731 -0.233534 0.575780
-0.018592 -0.156859 0.116771
0.052833 -0.120583 -0.844136
0.054074 0.001394 -0.888618
0.037690 -0.010351 0.123724
-0.037169 0.198117 0.107899
0.042235 0.134540 0.165652
0.055888 0.200604 -0.574626
0.046382 0.173417 0.069375
-0.058249 0.262411 0.269774
0.017914 0.281810 0.337363
0.049952 0.305366 -0.213108
-0.012285 0.320453 -0.134451
0.047930 -0.272549 -0.362003
0.173074 -0.326897 0.428077
0.110844 -0.297734 -0.107251
0.055418 -0.276690 -0.039763
0.038839 -0.228299 0.266362
0.161781 -0.252312 0.220229
0.118725 -0.197382 -0.423666
0.022792 -0.193360 0.047651
0.104299 -0.167391 0.115929
0.024673 -0.186739 0.602290
0.094817 -0.137348 -0.600626
0.099767 -0.173039 -0.513904
0.089308 -0.174045 0.196832
0.040744 -0.055258 0.152200
0.103760 -0.141962 0.661534
0.027605 -0.053243 0.649046
0.088397 -0.036478 -0.800808
0.113192 0.008803 -0.598861
0.058545 0.046742 0.128054
0.122180 0.067012 0.695594
0.075675 0.097258 -0.813510
0.036221 0.168201 0.617610
0.118080 0.189663 0.116590
0.009931 0.236928 0.262421
0.125518 0.168997 -0.457327
0.140049 0.253607 0.015499
0.154994 0.281572 0.549796
0.043865 0.267525 -0.401058
0.150136 0.248888 0.217868
0.107145 0.297445 -0.110116
0.159390 -0.315325 0.352063
0.176903 -0.241347 -0.216713
0.186152 -0.259530 0.038046
0.218097 -0.292360 0.537371
0.197532 -0.247620 0.099411
0.175823 -0.126788 -0.392033
0.137377 -0.096424 -0.490327
0.121021 -0.039192 0.703286
0.180000 -0.029063 -0.429586
0.138051 0.065415 -0.506548
0.164147 0.076730 -0.456286
0.226886 0.069164 -0.320082
0.200269 0.206810 0.637964
0.164330 0.215261 -0.290890
0.190313 0.244176 0.091730
0.198362 0.244754 -0.169745
0.159605 0.313434 0.364210
0.263125 -0.329740 0.346698
0.262974 -0.261723 0.040992
0.283886 -0.194815 -0.112189
0.183908 -0.199204 0.642235
0.268306 -0.131437 -0.206278
0.229667 -0.051822 -0.329664
0.202796 -0.092873 0.702345
0.295458 -0.011946 -0.199265
0.183978 0.007395 0.719449
0.199606 0.093250 0.706864
0.269889 0.120627 -0.202428
0.291741 0.189818 -0.097843
0.264012 0.262338 0.033675
0.272252 0.318763 0.311882
0.229210 0.327103 0.435242
0.267445 -0.336521 0.429274
0.317216 -0.309707 0.497889
0.355566 -0.270563 0.570183
0.340356 -0.249129 0.065321
0.325834 -0.195653 -0.035232
0.329555 -0.089364 -0.112980
0.385489 -0.087915 -0.031586
0.326120 0.060022 -0.123431
0.343334 0.133505 -0.058946
0.335077 0.221035 0.007372
0.376516 0.257512 0.129962
0.280738 0.310196 0.521261
0.379516 -0.262505 0.199881
0.339348 -0.318595 0.401984
0.466116 -0.244551 0.409939
0.427309 -0.183773 0.099852
0.367072 0.000684 -0.066555
0.498141 0.197310 0.644393
0.452234 0.195526 0.141564
0.435951 0.241936 0.252935
0.368006 0.283378 0.563006
0.324725 0.314249 0.319864
0.359962 0.302912 0.495479
0.429934 -0.271415 0.500896
0.495234 -0.151855 0.215196
0.488459 -0.210809 0.632355
0.532474 -0.183165 0.421996
0.474610 0.076859 0.095322
0.502874 0.138983 0.192517
0.436365 0.267340 0.504520
0.511151 -0.232054 0.580314
0.553186 -0.186620 0.512142
0.573053 -0.190778 0.617778
0.501683 -0.072107 0.125784
0.559174 -0.103893 0.410269
0.574063 0.022092 0.430628
0.529882 0.002344 0.189075
0.549331 0.045164 0.337057
0.539842 0.156186 0.407059
0.565197 0.193437 0.513759
0.574087 0.194649 0.587937
0.501498 0.237840 0.580183
0.574728 -0.151420 0.660641
0.613185 -0.108691 0.639493
0.601598 -0.050930 0.517940
0.581030 -0.038029 0.694505
0.618195 0.022615 0.663154
0.557891 0.078037 0.697085
0.595158 0.137913 0.523638
0.590277 0.148866 0.644416
3 2 4 3
3 5 6 0
3 0 6 7
3 0 7 1
3 18 1 8
3 1 7 8
3 4 9 3
3 32 6 5
3 7 6 10
3 8 7 10
3 9 4 11
3 4 12 11
3 6 32 10
3 2 17 16
3 0 13 19
3 13 0 14
3 15 14 1
3 2 16 46
3 17 2 3
3 14 0 1
3 15 1 18
3 15 18 22
3 17 3 21
3 24 20 46
3 46 20 2
3 2 20 4
3 25 21 3
3 21 25 26
3 19 50 5
3 19 5 0
3 18 8 27
3 18 27 22
3 22 27 23
3 9 25 3
3 23 27 28
3 24 29 20
3 20 29 30
3 20 30 4
3 26 25 31
3 5 50 33
3 5 33 32
3 11 25 9
3 10 34 8
3 27 8 34
3 27 53 28
3 4 30 12
3 35 25 11
3 31 25 35
3 32 36 10
3 37 12 30
3 38 32 33
3 32 38 36
3 34 10 36
3 12 37 11
3 11 39 35
3 37 59 11
3 59 39 11
3 13 14 42
3 40 16 41
3 41 16 17
3 15 42 14
3 42 15 43
3 41 17 21
3 41 21 44
3 15 22 43
3 43 22 23
3 45 46 16
3 45 24 46
3 21 26 44
3 44 26 47
3 47 26 48
3 45 49 24
3 68 50 19
3 51 48 26
3 49 52 29
3 24 49 29
3 31 51 26
3 48 51 69
3 34 54 27
3 27 54 53
3 55 29 52
3 30 29 55
3 51 31 56
3 30 55 57
3 30 57 37
3 31 35 58
3 56 31 58
3 71 38 33
3 72 53 54
3 60 54 34
3 36 60 34
3 39 58 35
3 38 73 36
3 73 60 36
3 61 37 57
3 37 61 59
3 40 41 76
3 42 77 13
3 62 77 42
3 42 43 62
3 62 43 63
3 64 16 40
3 44 65 41
3 65 76 41
3 77 79 13
3 64 45 16
3 64 81 45
3 79 84 13
3 84 19 13
3 43 23 66
3 44 47 67
3 81 83 45
3 19 84 68
3 83 49 45
3 48 67 47
3 23 49 66
3 28 49 23
3 71 50 68
3 86 49 28
3 49 86 52
3 53 86 28
3 52 86 70
3 71 33 50
3 56 69 51
3 53 72 86
3 70 89 52
3 89 55 52
3 56 58 90
3 91 38 71
3 54 74 72
3 89 57 55
3 75 58 39
3 91 73 38
3 91 60 73
3 74 54 60
3 89 93 57
3 39 59 75
3 93 61 57
3 61 94 59
3 75 59 94
3 62 78 77
3 63 96 62
3 96 78 62
3 97 64 40
3 97 40 76
3 77 78 80
3 96 63 101
3 76 65 99
3 79 77 80
3 63 43 101
3 43 66 101
3 82 65 44
3 79 85 84
3 84 85 68
3 49 83 66
3 67 48 103
3 85 87 68
3 48 69 103
3 87 71 68
3 71 87 105
3 72 88 86
3 86 88 70
3 56 90 69
3 91 105 106
3 91 71 105
3 70 88 92
3 70 92 89
3 74 107 72
3 107 88 72
3 74 112 107
3 92 93 89
3 75 94 114
3 75 114 108
3 108 109 75
3 75 115 58
3 116 60 91
3 60 116 74
3 74 116 112
3 93 95 61
3 95 114 61
3 61 114 94
3 64 119 98
3 64 120 119
3 120 64 97
3 78 100 80
3 78 96 121
3 100 78 121
3 101 121 96
3 98 81 64
3 99 97 76
3 99 65 122
3 122 65 123
3 65 82 123
3 98 101 66
3 83 98 66
3 98 83 81
3 99 122 102
3 97 99 126
3 126 99 102
3 67 82 44
3 79 80 85
3 85 128 87
3 103 69 90
3 105 87 104
3 104 111 105
3 105 111 106
3 118 130 108
3 108 130 109
3 58 110 90
3 106 111 91
3 92 88 107
3 113 92 107
3 118 108 114
3 58 115 110
3 111 116 91
3 116 111 117
3 112 117 107
3 92 113 93
3 134 75 109
3 134 135 75
3 75 135 115
3 117 112 116
3 113 136 93
3 95 93 137
3 137 93 136
3 118 114 95
3 118 95 137
3 138 98 119
3 123 82 139
3 124 100 121
3 101 124 121
3 124 101 138
3 101 98 138
3 141 120 97
3 122 123 142
3 82 125 139
3 97 145 141
3 142 102 122
3 145 97 126
3 125 82 67
3 147 125 67
3 85 80 127
3 80 100 127
3 129 145 126
3 151 126 102
3 102 142 151
3 127 128 85
3 147 67 153
3 153 67 103
3 126 151 129
3 128 104 87
3 151 131 129
3 130 133 129
3 129 131 130
3 153 103 159
3 159 103 90
3 133 130 118
3 109 130 131
3 109 131 161
3 90 110 159
3 132 117 111
3 132 107 117
3 132 165 107
3 134 109 161
3 107 165 113
3 161 135 134
3 136 113 165
3 140 119 120
3 123 139 168
3 169 138 119
3 140 120 141
3 140 141 170
3 141 146 170
3 168 142 123
3 168 143 142
3 138 144 124
3 138 169 144
3 145 146 141
3 124 148 100
3 124 149 148
3 144 149 124
3 146 150 143
3 143 150 142
3 147 152 125
3 100 148 127
3 149 174 148
3 129 146 145
3 151 150 146
3 150 151 142
3 153 152 147
3 152 153 175
3 128 127 154
3 127 148 154
3 148 155 154
3 148 174 155
3 156 146 129
3 146 156 151
3 153 157 175
3 128 158 104
3 128 154 158
3 154 155 158
3 133 156 129
3 151 156 131
3 159 157 153
3 155 132 158
3 155 177 132
3 160 156 133
3 131 156 160
3 111 104 158
3 177 162 132
3 180 157 159
3 132 111 158
3 163 160 133
3 160 166 131
3 131 166 161
3 159 110 164
3 164 180 159
3 132 162 165
3 181 165 162
3 163 133 118
3 165 181 136
3 137 167 118
3 118 167 163
3 166 184 135
3 166 135 161
3 110 115 164
3 137 136 167
3 135 184 115
3 140 169 119
3 169 140 186
3 140 170 186
3 171 139 125
3 170 146 172
3 125 188 171
3 169 173 144
3 146 143 172
3 152 188 125
3 149 144 174
3 144 173 174
3 188 152 191
3 191 152 175
3 173 176 174
3 173 190 176
3 191 175 193
3 177 155 174
3 174 176 177
3 176 178 177
3 193 175 157
3 193 157 194
3 194 157 180
3 177 178 162
3 178 179 162
3 179 181 162
3 163 182 160
3 166 160 182
3 136 181 183
3 167 136 183
3 183 197 167
3 197 163 167
3 115 199 164
3 184 199 115
3 139 200 185
3 186 143 185
3 185 143 168
3 185 168 139
3 200 139 171
3 201 200 171
3 186 170 172
3 186 172 143
3 202 201 171
3 169 186 187
3 202 171 188
3 169 189 173
3 169 187 189
3 173 189 190
3 189 192 190
3 192 179 190
3 179 176 190
3 178 176 179
3 179 195 181
3 195 183 181
3 195 196 183
3 196 197 183
3 196 209 197
3 211 180 164
3 197 182 163
3 197 166 182
3 197 198 166
3 198 184 166
3 164 199 211
3 198 199 184
3 186 185 212
3 185 213 212
3 185 200 213
3 200 201 213
3 186 212 203
3 186 204 187
3 203 204 186
3 187 205 189
3 187 204 205
3 204 206 205
3 205 192 189
3 205 207 192
3 195 179 192
3 192 207 195
3 217 194 180
3 196 195 207
3 207 208 196
3 196 208 209
3 209 210 197
3 217 180 220
3 220 180 211
3 211 222 220
3 221 197 210
3 221 198 197
3 198 221 199
3 211 199 221
3 211 221 222
3 212 213 214
3 213 201 223
3 214 213 223
3 201 202 223
3 203 212 215
3 203 215 204
3 225 202 188
3 225 188 191
3 216 205 206
3 206 227 216
3 205 216 207
3 208 207 216
3 208 216 227
3 209 208 227
3 218 210 209
3 218 219 210
3 210 219 221
3 219 222 221
3 229 222 219
3 222 229 220
3 223 202 230
3 212 224 215
3 214 224 212
3 231 214 223
3 223 230 231
3 230 202 225
3 214 226 224
3 214 231 226
3 206 215 233
3 206 204 215
3 215 224 233
3 206 233 227
3 227 218 209
3 227 228 218
3 228 238 219
3 218 228 219
3 238 229 219
3 238 239 229
3 239 241 229
3 241 217 220
3 241 220 229
3 230 232 231
3 230 225 232
3 232 225 242
3 226 231 234
3 242 225 191
3 226 234 224
3 242 191 245
3 224 236 233
3 224 234 236
3 245 191 193
3 233 236 227
3 236 234 237
3 234 235 237
3 245 193 247
3 247 193 194
3 236 228 227
3 236 237 228
3 235 238 237
3 235 248 238
3 237 238 228
3 247 194 217
3 248 239 238
3 247 217 249
3 217 240 249
3 239 240 241
3 217 241 240
3 243 231 232
3 242 243 232
3 244 234 231
3 231 243 244
3 235 234 244
3 242 245 243
3 243 246 244
3 243 245 246
3 245 247 246
3 248 235 244
3 244 246 248
3 246 249 248
3 246 247 249
3 240 239 248
3 249 240 248
