ply
format ascii 1.0
element vertex 248
property float x
property float y
property float z
element face 500
property list uchar int vertex_indices
end_header
-0.653928 -0.166966 -0.647540
-0.639120 -0.179406 -0.479088
-0.639094 -0.198928 0.155065
-0.633094 -0.192087 0.256879
-0.679682 -0.054931 -0.515345
-0.681771 -0.061371 0.131640
-0.593432 -0.164610 0.434777
-0.690092 0.010608 0.277297
-0.676704 0.078845 -0.663787
-0.659514 0.155906 -0.520500
-0.685705 0.107410 0.151004
-0.654539 0.082430 0.409774
-0.647858 0.189327 0.270064
-0.648300 0.203559 -0.644799
-0.635020 0.212269 0.174836
-0.565423 -0.279747 -0.565654
-0.551462 -0.272197 0.163620
-0.586270 -0.158344 0.029988
-0.589190 -0.205932 -0.774022
-0.561220 -0.182011 -0.356178
-0.517824 -0.176594 0.589920
-0.631031 -0.029587 -0.807557
-0.585636 -0.010520 0.585170
-0.631426 0.019857 -0.372059
-0.607959 0.012124 -0.030533
-0.654657 0.007531 0.030558
-0.587464 -0.036130 -0.290967
-0.555533 0.071916 -0.255036
-0.600351 0.170993 -0.794371
-0.575060 0.154094 0.540848
-0.626785 0.181074 -0.420612
-0.590789 0.168522 0.023326
-0.579703 0.186905 -0.366389
-0.588356 0.212296 0.417987
-0.568596 0.148286 -0.022669
-0.561277 0.260128 -0.585439
-0.483318 -0.213146 -0.813735
-0.480925 -0.276162 0.051287
-0.464727 -0.291631 0.499573
-0.540838 -0.067626 -0.861750
-0.560029 0.003374 -0.053973
-0.505066 -0.028979 0.688083
-0.485075 -0.095162 -0.161690
-0.588423 0.080941 -0.869186
-0.499744 0.142022 0.643935
-0.483507 0.226991 -0.804977
-0.466626 0.284252 0.061677
-0.450771 0.274342 0.540935
-0.442287 -0.303294 -0.637918
-0.306940 -0.343776 0.206933
-0.401895 -0.332680 0.421627
-0.435998 -0.303677 -0.441234
-0.408686 -0.296291 0.551934
-0.445425 -0.196029 -0.065306
-0.395501 -0.241130 -0.196206
-0.430146 -0.193199 -0.105787
-0.491559 0.055607 -0.114585
-0.522929 0.136784 -0.870554
-0.478630 0.214802 -0.035598
-0.393367 0.261049 -0.170778
-0.411758 0.294810 -0.405439
-0.366395 0.354580 0.202108
-0.350092 0.348147 0.452049
-0.260536 -0.360413 -0.001467
-0.382709 -0.167899 0.706124
-0.400178 -0.007088 0.770298
-0.400640 0.109630 0.743893
-0.343667 0.272581 0.636976
-0.424613 0.302845 -0.680705
-0.277528 0.359360 0.020443
-0.368695 0.292217 -0.539288
-0.293340 -0.268690 -0.525597
-0.282813 -0.290455 -0.333192
-0.163575 -0.286655 -0.709916
-0.142416 -0.324189 0.644086
-0.132494 -0.173922 0.809138
0.316107 -0.142653 -0.859885
-0.220151 -0.060220 0.842327
0.294020 -0.016357 -0.880933
-0.165201 0.089928 0.852451
-0.216314 0.291214 -0.716769
-0.211767 0.166879 -0.509480
-0.281798 0.319569 -0.256452
-0.301242 0.298569 -0.663637
-0.262536 0.272635 -0.395218
-0.197592 0.356458 -0.133284
-0.227445 -0.352508 0.453234
-0.190498 -0.279001 -0.652217
-0.220954 -0.313573 -0.208488
-0.036344 -0.224955 0.233291
-0.058330 -0.243621 0.374078
-0.172824 -0.206275 -0.578394
-0.152179 -0.164119 -0.446904
-0.167346 -0.109028 -0.521579
0.348101 0.110904 -0.853995
-0.189267 0.218714 -0.580813
-0.179483 0.229328 0.770404
-0.146173 0.264929 -0.655616
-0.202796 0.371181 0.106320
-0.203768 0.359017 0.409909
-0.048428 0.231312 0.255745
-0.135923 0.358303 0.611210
-0.081765 -0.354898 -0.084759
-0.172506 -0.368467 0.046064
-0.102033 -0.233291 -0.367620
-0.117502 0.057855 -0.454402
-0.105175 0.231088 -0.366910
-0.129458 0.320927 -0.234527
-0.103923 0.363406 -0.064670
-0.024412 -0.333581 0.601353
0.018992 -0.250016 -0.321707
-0.107873 -0.114188 -0.550756
-0.102389 0.057180 -0.544536
0.040275 0.206321 0.821938
-0.016078 0.175544 0.361023
-0.026391 -0.323918 0.083472
-0.013503 -0.332644 0.668211
0.100559 -0.278529 -0.173862
0.247899 -0.216839 -0.556959
0.086431 -0.217936 0.789674
0.036767 -0.011206 0.325995
0.037034 -0.046982 0.303392
0.092042 -0.045682 0.874348
0.060140 -0.092882 -0.411091
0.198371 -0.004574 -0.514589
0.044251 0.049289 0.303240
0.105050 0.074200 -0.405982
0.123780 0.090253 0.871264
0.231418 0.193978 -0.553619
0.011462 0.335470 0.673556
0.124058 0.226227 -0.194636
-0.013167 0.341500 0.575241
0.017924 0.313071 0.091516
0.348085 -0.213206 -0.805988
0.237364 -0.269141 -0.643562
0.065248 -0.219629 0.233958
0.082978 -0.228806 0.407297
0.188975 -0.288684 0.694009
0.104207 -0.187482 -0.336757
0.177993 -0.178425 -0.197193
0.072455 -0.132158 0.314465
0.033640 0.193402 0.228046
0.116116 0.213601 0.365428
0.031039 0.193284 0.389276
0.124050 0.218041 0.233753
0.087715 0.181698 -0.334813
0.231643 0.267219 -0.646194
0.222811 0.227361 0.748744
0.166961 -0.302206 0.087507
0.235224 -0.337133 0.562542
0.245791 -0.257204 -0.022397
0.174012 -0.264708 0.282575
0.204208 -0.149408 0.818408
0.151013 0.035394 -0.358003
0.227883 0.025485 -0.173575
0.258600 -0.005657 0.840135
0.304770 0.219904 -0.804946
0.307369 0.216947 -0.060488
0.352706 0.277488 -0.697596
0.147440 0.317647 -0.009789
0.278597 0.321233 0.103741
0.292405 0.326704 0.239760
0.241853 0.327824 0.463743
0.138955 0.329801 0.592324
0.331302 -0.352049 0.419549
0.338534 -0.272009 -0.705987
0.317764 -0.174084 -0.074621
0.329243 0.064610 -0.410367
0.298574 0.011104 -0.126796
0.328185 -0.310207 0.123248
0.397984 -0.283740 -0.618302
0.394054 0.290693 -0.602629
0.262347 0.328163 0.580387
0.405021 0.353679 0.444067
0.459725 -0.375655 0.344912
0.536823 -0.277924 -0.476018
0.478321 -0.262572 -0.365570
0.439202 -0.224724 -0.132466
0.470041 -0.111967 -0.826042
0.348391 -0.100920 -0.390222
0.346938 0.014309 -0.165862
0.485834 0.077995 0.764137
0.407188 0.186071 -0.337220
0.467201 0.203899 -0.772058
0.425589 0.233685 -0.121080
0.479116 0.189437 0.728345
0.493140 0.295171 -0.474638
0.387535 0.357605 0.212871
0.437108 -0.348581 0.167988
0.424437 -0.344426 0.525352
0.560259 -0.305338 0.102801
0.472629 -0.300331 0.009989
0.479077 -0.243875 -0.716573
0.430178 -0.187998 0.732240
0.531433 0.061195 -0.813821
0.479634 0.301519 0.015607
0.528856 0.295427 -0.223118
0.477995 0.260727 0.653402
0.531647 0.339736 0.338138
0.576229 0.301116 0.512499
0.529451 -0.354962 0.371502
0.507612 -0.287316 -0.590572
0.558597 -0.282723 -0.096470
0.584981 -0.207718 0.676045
0.517641 -0.088297 0.756866
0.594565 -0.040907 0.735552
0.584173 0.132477 0.720642
0.532582 0.281643 -0.587950
0.581209 0.296483 -0.432595
0.610965 -0.276660 -0.295798
0.691062 -0.231334 0.287517
0.628149 -0.280051 0.540596
0.608786 -0.216280 -0.635177
0.699880 -0.173845 -0.493052
0.675294 -0.202060 -0.035608
0.713152 -0.144246 0.123173
0.590855 -0.159795 -0.740416
0.592256 -0.004060 -0.776441
0.628349 0.172003 -0.660096
0.572206 0.172223 -0.738328
0.673513 0.185067 -0.514630
0.696485 0.176055 -0.018150
0.659662 0.233117 0.121199
0.599888 0.278119 -0.076569
0.663653 0.166078 0.654470
0.595420 0.293790 -0.238183
0.715127 0.191702 0.305804
0.704787 -0.204197 -0.365134
0.702014 -0.204721 -0.202704
0.676911 -0.170659 0.645072
0.724594 -0.190607 0.534387
0.745260 -0.131629 -0.434478
0.672360 -0.070190 -0.642658
0.738769 -0.073827 -0.487303
0.735562 -0.021165 -0.038370
0.749006 0.024795 0.551708
0.728441 0.111562 0.132616
0.668717 0.045722 0.694480
0.719040 0.198635 -0.365259
0.707698 0.205325 -0.199364
0.715282 0.178653 0.568303
0.755792 -0.077016 -0.147936
0.771545 -0.092801 0.277971
0.770480 -0.007354 -0.354485
0.773032 -0.029528 0.208919
0.767534 0.061224 -0.180859
0.775102 0.051916 0.257514
0.777978 0.119292 -0.311000
3 0 4 1
3 2 5 3
3 1 4 23
3 6 3 7
3 8 0 21
3 0 8 4
3 3 5 7
3 4 8 9
3 4 9 23
3 28 8 21
3 5 10 7
3 23 9 30
3 7 10 12
3 11 7 12
3 8 13 9
3 10 14 12
3 18 0 15
3 15 0 1
3 17 2 16
3 16 2 3
3 0 18 21
3 2 17 5
3 20 6 22
3 21 18 39
3 1 23 19
3 24 17 40
3 17 24 25
3 17 25 5
3 19 23 26
3 11 6 7
3 6 11 22
3 43 21 39
3 26 23 27
3 22 11 29
3 22 29 44
3 28 21 43
3 34 24 40
3 25 24 31
3 25 31 10
3 5 25 10
3 23 30 32
3 23 32 27
3 11 33 29
3 8 28 13
3 24 34 31
3 14 10 31
3 12 33 11
3 9 35 30
3 35 13 28
3 35 9 13
3 36 18 48
3 48 18 15
3 1 19 15
3 17 16 37
3 6 20 38
3 37 53 17
3 36 39 18
3 19 26 42
3 53 40 17
3 22 41 20
3 53 56 40
3 27 42 26
3 44 41 22
3 39 57 43
3 56 58 40
3 58 34 40
3 57 28 43
3 28 57 45
3 30 35 32
3 58 46 31
3 58 31 34
3 47 44 29
3 35 28 45
3 60 32 35
3 46 14 31
3 48 15 51
3 37 16 49
3 50 49 16
3 3 50 16
3 50 3 6
3 6 38 50
3 19 51 15
3 51 19 54
3 20 52 38
3 20 64 52
3 42 54 19
3 54 42 55
3 55 42 53
3 64 20 41
3 53 42 56
3 64 41 65
3 65 41 66
3 27 56 42
3 66 41 44
3 32 59 27
3 56 27 59
3 68 35 45
3 32 60 59
3 29 33 47
3 46 61 14
3 12 14 61
3 62 12 61
3 12 62 33
3 62 47 33
3 68 70 35
3 35 70 60
3 50 38 52
3 36 48 73
3 48 51 71
3 71 51 72
3 63 37 49
3 63 53 37
3 51 54 72
3 53 54 55
3 76 39 36
3 78 57 39
3 56 59 58
3 67 66 44
3 59 69 58
3 58 69 46
3 67 44 47
3 60 82 59
3 83 68 80
3 70 68 83
3 69 61 46
3 49 50 86
3 48 87 73
3 87 48 71
3 52 74 50
3 87 71 91
3 92 71 72
3 74 52 64
3 74 64 75
3 64 77 75
3 65 77 64
3 79 77 65
3 78 94 57
3 66 79 65
3 68 45 80
3 83 95 70
3 95 81 70
3 84 70 81
3 59 82 85
3 69 59 85
3 60 70 84
3 84 82 60
3 47 62 67
3 69 98 61
3 98 99 61
3 61 99 62
3 88 53 63
3 89 103 49
3 103 63 49
3 90 89 49
3 86 90 49
3 74 86 50
3 54 88 72
3 53 88 54
3 92 72 104
3 88 104 72
3 93 91 71
3 71 92 93
3 96 79 66
3 96 66 67
3 97 83 80
3 97 95 83
3 84 106 107
3 107 82 84
3 85 82 107
3 67 62 101
3 67 101 96
3 99 98 100
3 62 99 101
3 102 63 103
3 63 102 88
3 86 74 109
3 91 93 111
3 92 105 93
3 112 111 93
3 81 112 93
3 93 105 81
3 112 81 95
3 84 81 105
3 105 106 84
3 96 113 79
3 108 85 107
3 69 85 108
3 98 69 108
3 102 103 115
3 74 116 109
3 102 110 88
3 89 115 103
3 110 104 88
3 90 86 109
3 118 87 91
3 122 75 77
3 123 105 92
3 124 111 112
3 122 77 79
3 122 79 127
3 128 112 95
3 126 106 105
3 99 100 114
3 99 114 131
3 113 96 129
3 98 132 100
3 129 96 101
3 132 98 108
3 131 101 99
3 129 101 131
3 110 102 117
3 74 119 116
3 75 119 74
3 73 133 36
3 134 87 118
3 135 115 89
3 109 136 90
3 123 104 110
3 123 92 104
3 90 120 89
3 90 136 120
3 121 135 89
3 89 120 121
3 119 75 122
3 121 114 125
3 121 120 114
3 124 112 128
3 100 141 125
3 125 114 100
3 120 143 114
3 127 79 113
3 94 45 57
3 145 106 126
3 100 132 141
3 114 143 131
3 80 146 97
3 107 145 130
3 107 106 145
3 130 108 107
3 117 102 148
3 102 115 148
3 137 109 116
3 73 87 134
3 115 135 148
3 109 149 136
3 116 119 137
3 110 117 138
3 117 139 138
3 138 123 110
3 121 140 135
3 136 140 120
3 78 39 76
3 125 140 121
3 140 125 120
3 123 126 105
3 120 125 142
3 120 142 143
3 144 125 141
3 125 144 142
3 156 45 94
3 80 45 156
3 141 132 144
3 131 143 142
3 158 80 156
3 158 146 80
3 144 132 160
3 163 131 142
3 147 129 163
3 147 113 129
3 130 159 108
3 108 159 132
3 160 132 159
3 131 163 129
3 117 148 150
3 149 109 137
3 165 73 134
3 135 151 148
3 165 133 73
3 117 150 139
3 140 136 151
3 119 152 137
3 151 135 140
3 118 91 111
3 138 139 153
3 139 154 153
3 152 122 155
3 119 122 152
3 118 111 124
3 138 153 123
3 123 153 126
3 155 122 127
3 126 153 145
3 154 130 153
3 153 130 145
3 97 146 128
3 95 97 128
3 127 113 147
3 157 159 130
3 144 161 142
3 142 161 162
3 160 161 144
3 162 163 142
3 150 148 169
3 148 151 169
3 151 136 164
3 164 136 149
3 133 76 36
3 139 150 166
3 154 139 166
3 166 168 154
3 128 167 124
3 157 154 168
3 130 154 157
3 155 127 147
3 157 160 159
3 162 172 163
3 151 164 169
3 170 165 134
3 118 170 134
3 169 166 150
3 167 179 124
3 124 179 118
3 180 168 166
3 180 157 168
3 181 155 147
3 181 147 185
3 146 171 128
3 146 158 171
3 163 172 147
3 173 162 161
3 173 172 162
3 174 188 164
3 164 188 169
3 189 174 164
3 149 189 164
3 169 188 191
3 137 189 149
3 192 133 165
3 118 175 170
3 175 118 176
3 177 166 191
3 191 166 169
3 189 137 193
3 193 137 152
3 133 178 76
3 178 133 192
3 118 179 176
3 176 179 177
3 166 177 180
3 193 152 155
3 178 78 76
3 180 177 179
3 178 94 78
3 179 167 180
3 167 182 180
3 182 184 180
3 180 184 157
3 183 156 94
3 167 128 182
3 158 156 183
3 171 186 128
3 182 128 186
3 184 195 157
3 185 147 197
3 160 157 195
3 147 172 197
3 187 160 195
3 187 161 160
3 173 161 187
3 197 172 173
3 188 174 190
3 190 174 200
3 200 174 189
3 170 175 201
3 188 190 191
3 192 165 170
3 201 192 170
3 176 177 202
3 177 191 202
3 204 193 155
3 94 178 194
3 204 155 181
3 194 183 94
3 158 183 207
3 196 182 186
3 184 182 196
3 195 184 196
3 171 158 207
3 186 171 207
3 198 187 195
3 199 173 198
3 199 197 173
3 173 187 198
3 176 202 209
3 190 200 210
3 200 189 211
3 176 209 175
3 191 190 202
3 212 216 192
3 192 201 212
3 193 203 189
3 189 203 211
3 192 216 178
3 193 204 203
3 205 203 204
3 216 217 178
3 217 194 178
3 205 181 206
3 204 181 205
3 217 219 194
3 219 183 194
3 181 185 206
3 206 185 197
3 207 183 219
3 186 207 208
3 208 196 186
3 196 223 195
3 208 225 196
3 196 225 223
3 211 210 200
3 175 227 213
3 175 209 227
3 228 202 214
3 228 209 202
3 190 210 215
3 201 175 212
3 175 213 212
3 202 190 214
3 190 215 214
3 211 203 229
3 212 232 216
3 229 203 205
3 229 205 237
3 237 205 206
3 219 217 218
3 224 206 197
3 237 206 224
3 219 218 207
3 218 220 207
3 220 208 207
3 220 238 208
3 221 222 223
3 222 195 223
3 208 238 225
3 239 221 223
3 239 223 225
3 198 195 222
3 222 226 198
3 198 226 199
3 224 197 199
3 209 228 227
3 211 230 210
3 229 230 211
3 227 231 213
3 212 213 232
3 213 233 232
3 231 233 213
3 235 230 229
3 214 215 234
3 217 216 232
3 215 236 234
3 215 244 236
3 229 237 235
3 233 220 232
3 218 217 232
3 232 220 218
3 221 245 234
3 234 236 221
3 224 240 235
3 235 237 224
3 236 222 221
3 236 226 222
3 238 239 225
3 226 240 199
3 199 240 224
3 214 241 228
3 210 242 215
3 210 230 242
3 227 243 231
3 227 228 243
3 228 241 243
3 214 234 241
3 215 242 244
3 230 235 242
3 233 231 243
3 241 245 243
3 241 234 245
3 242 246 244
3 242 235 246
3 220 233 243
3 243 245 247
3 244 246 236
3 238 220 243
3 243 247 238
3 245 239 247
3 236 246 226
3 246 235 226
3 235 240 226
3 221 239 245
3 239 238 247
