ply
format ascii 1.0
element vertex 252
property float x
property float y
property float z
element face 500
property list uchar int vertex_indices
end_header
-0.646226 -0.192160 0.188253
-0.660268 -0.160620 0.135351
-0.681010 -0.098189 0.190671
-0.682448 -0.044421 0.114325
-0.684576 0.038118 0.201317
-0.660737 -0.030455 0.357116
-0.653055 0.144049 0.119888
-0.643284 0.179814 0.194206
-0.585127 -0.237040 0.175949
-0.563665 -0.191655 -0.036634
-0.638540 -0.133426 0.041048
-0.623961 -0.172864 0.324241
-0.539800 -0.190296 0.587150
-0.598522 -0.086607 0.584462
-0.606354 -0.046607 -0.052172
-0.643703 0.027132 0.018426
-0.645413 0.097319 0.350770
-0.609699 0.032809 0.560417
-0.559955 0.170545 -0.038549
-0.613782 0.177665 0.040604
-0.534722 0.172392 0.579871
-0.598873 0.214613 0.283370
-0.577538 0.240691 0.135448
-0.461625 -0.297899 0.466904
-0.512224 -0.131163 -0.138139
-0.526780 -0.128773 0.669483
-0.522088 0.042740 0.687440
-0.511787 0.070079 -0.144406
-0.502601 0.168755 -0.123085
-0.512460 0.155756 0.667579
-0.450822 -0.301026 0.043952
-0.452061 -0.287858 0.525620
-0.438376 0.307123 0.032852
-0.404421 0.297065 0.533844
-0.380321 0.357688 0.134501
-0.420237 0.327101 0.397742
-0.420893 -0.211515 -0.107287
-0.405318 -0.197287 0.644154
-0.420015 -0.131068 -0.167076
-0.429270 -0.068318 0.720131
-0.335550 -0.095487 -0.813691
-0.335824 -0.073800 -0.550329
-0.344396 0.020060 -0.818964
-0.329793 0.051492 -0.517389
-0.427113 0.015924 -0.175440
-0.416520 0.045108 0.724700
-0.414828 0.192853 -0.106933
-0.435253 0.183302 0.655665
-0.312243 -0.349217 0.072851
-0.258742 -0.405433 0.274100
-0.314041 -0.387425 0.391708
-0.361350 -0.333367 0.490319
-0.257266 -0.212541 -0.765378
-0.272227 -0.183649 -0.533709
-0.295776 -0.099745 -0.886509
-0.299207 -0.000081 -0.911871
-0.286070 0.106519 -0.891831
-0.328188 0.132066 -0.789606
-0.266208 0.225648 -0.608303
-0.260346 0.192840 -0.513817
-0.237357 0.221771 -0.822637
-0.313037 0.310134 0.542802
-0.367355 0.332894 0.040678
-0.322728 0.356177 0.451741
-0.234499 0.382537 0.148779
-0.136254 -0.403690 0.194137
-0.220504 -0.404116 0.392345
-0.164903 -0.263543 -0.799835
-0.153811 -0.247842 -0.670042
-0.049169 -0.278872 -0.018072
-0.205675 -0.197763 -0.896546
-0.276723 -0.071982 -0.467244
0.025210 -0.114834 -0.133608
0.446132 -0.119496 0.710924
-0.214573 -0.039327 -0.970193
0.443699 -0.001295 0.722217
-0.270779 0.080489 -0.462152
0.030261 0.026475 -0.147343
-0.180340 0.110292 -0.970979
-0.221057 0.189076 -0.902242
0.038227 0.183546 -0.106302
-0.179842 0.260915 -0.684833
-0.259415 0.405697 0.299889
-0.205031 -0.203184 -0.545383
0.021317 -0.194789 -0.106305
-0.126058 -0.190131 -0.573962
-0.130125 -0.113996 -0.509861
-0.188453 -0.110835 -0.469551
-0.143576 0.035313 -0.467338
-0.201301 0.177373 -0.494877
0.013427 0.127628 -0.140696
-0.207946 0.226544 -0.557939
-0.129122 0.147763 -0.513535
-0.097699 0.158457 -0.590490
0.296916 0.289049 0.566195
0.092009 0.372538 0.418945
-0.171688 0.412764 0.344755
0.006910 0.361955 0.140929
0.043807 -0.399903 0.272713
0.107684 -0.389501 0.380376
0.270550 -0.301257 0.546151
-0.025982 -0.262661 -0.751158
-0.083533 -0.254311 -0.900648
0.034133 -0.244829 -0.953034
0.424879 -0.201031 0.662705
-0.118054 -0.148549 -0.988976
-0.038884 -0.162486 -0.632065
-0.028391 -0.120654 -1.031323
-0.071701 -0.051980 -0.563755
-0.126947 -0.003788 -1.022897
-0.020762 -0.021407 -1.053192
-0.097920 0.043797 -0.499216
-0.012762 0.139769 -1.009829
-0.118512 0.128091 -0.998191
-0.114956 0.218290 -0.928456
-0.033824 0.181232 -0.656127
0.404054 0.193441 0.654667
-0.079091 0.285978 -0.815833
-0.079004 0.264818 -0.727338
-0.058196 0.279614 -0.009911
0.041753 0.401896 0.274007
0.037863 -0.371634 0.162004
0.045859 -0.281337 -0.878565
-0.055304 -0.283468 -0.824270
-0.021159 0.019733 -0.607603
0.053229 0.279997 -0.883599
0.052453 0.304177 0.050873
0.109599 -0.192200 -0.058534
0.112151 -0.164135 -0.697320
0.410558 -0.131745 -1.043851
0.127958 -0.008642 -0.108262
0.419673 0.046198 -1.066722
0.089743 -0.030727 -0.649581
0.111609 0.133514 -0.107956
0.015989 0.272857 -0.784034
0.130892 0.220769 -0.041848
0.193773 0.325341 0.164224
0.107343 0.397850 0.352566
0.289419 -0.326083 0.391330
0.166051 -0.339410 0.136850
0.261856 -0.283675 -0.884131
0.205470 -0.249524 -0.803902
0.211494 -0.167238 -0.733258
0.185351 -0.001216 -0.692148
0.432326 0.129685 -1.053545
0.110615 0.149250 -0.697323
0.197076 0.158814 -0.726518
0.221069 0.253086 -0.808480
0.266521 0.334945 0.372553
0.227254 -0.334659 0.188567
0.268228 -0.224307 -0.036232
0.203794 -0.068411 -0.083733
0.280032 -0.110865 -0.114684
0.267223 -0.027776 -0.128622
0.207093 0.116712 -0.099442
0.413427 0.218197 -0.975973
0.283011 0.227358 -0.059050
0.233854 0.288553 -0.885356
0.332884 -0.285697 0.265619
0.308216 -0.285767 0.051043
0.429316 -0.233196 -0.959038
0.400507 -0.272487 -0.033257
0.344151 -0.267387 0.156391
0.304366 -0.124577 -0.728260
0.272813 0.115332 -0.729550
0.523097 0.072706 -0.390336
0.496067 0.141588 -0.324433
0.372724 0.208113 -0.737961
0.298626 0.275736 0.040458
0.402441 0.273555 -0.026724
0.332905 0.271073 0.158002
0.319202 0.283328 0.233674
0.394917 -0.266242 0.561602
0.385911 -0.269207 -0.796655
0.417934 -0.240009 0.393347
0.434364 -0.177314 0.264770
0.578061 -0.224262 -0.513306
0.574756 -0.223400 -0.343114
0.448282 -0.174714 0.172216
0.363888 -0.100078 -0.691564
0.377652 0.041762 -0.680763
0.569702 0.197437 -0.534524
0.448433 0.175306 0.186869
0.414983 0.273598 -0.811148
0.445064 0.151819 0.252305
0.413567 0.276122 -0.887482
0.456280 0.172640 0.380048
0.446271 0.239161 0.477005
0.424202 0.252791 0.583558
0.454347 -0.285244 -0.851925
0.408204 -0.266103 0.043991
0.629568 -0.263024 -0.627215
0.490372 -0.149103 0.657314
0.483475 -0.147040 0.399109
0.503107 -0.116494 -1.027800
0.538863 -0.068733 -0.430570
0.485864 -0.052644 0.221084
0.488669 0.004039 0.310487
0.488393 0.085870 0.213008
0.498170 0.086723 -1.045659
0.583830 0.214173 -0.375418
0.495756 0.124899 0.643592
0.412144 0.267816 0.047009
0.576450 -0.259815 -0.044108
0.613210 -0.270751 -0.229188
0.606918 -0.207395 -0.912034
0.546854 -0.098013 -0.490141
0.605705 -0.046530 -0.994040
0.572407 -0.013839 0.113970
0.540835 -0.029570 0.648766
0.525438 -0.043176 0.709508
0.553104 0.062384 -0.477428
0.587029 0.105888 -0.988830
0.627215 0.256112 -0.581039
0.618153 0.258490 -0.787452
0.610834 0.271275 -0.228320
0.579562 0.260821 -0.041665
0.587456 -0.264711 -0.831719
0.682605 -0.251101 -0.705295
0.649646 -0.256202 -0.360252
0.664934 -0.258402 -0.178343
0.676603 -0.215506 -0.820815
0.591172 -0.215243 0.030347
0.664524 -0.208744 -0.032402
0.590078 0.211074 0.038629
0.623251 0.195896 -0.891256
0.693562 0.197013 -0.811392
0.663111 0.211040 -0.032998
0.642850 0.257712 -0.327986
0.713481 -0.226662 -0.657500
0.659775 -0.195254 -0.880975
0.732064 -0.198313 -0.209486
0.650939 -0.159560 0.026014
0.650540 -0.084576 -0.949471
0.753464 -0.045258 -0.822451
0.725863 -0.027114 -0.021662
0.690396 -0.015223 0.033846
0.653711 -0.005390 0.064868
0.665414 0.041874 -0.941643
0.734770 0.093659 -0.840307
0.647842 0.166022 0.024996
0.701816 0.224545 -0.674280
0.724415 0.199221 -0.217918
0.671557 0.263241 -0.676670
0.661562 0.257852 -0.176066
0.774519 -0.114138 -0.721714
0.798181 -0.078124 -0.190639
0.779535 -0.069695 -0.108360
0.798572 -0.032135 -0.726364
0.774666 0.066763 -0.762090
0.798206 0.038953 -0.204449
0.776269 0.063426 -0.113830
3 1 2 0
3 1 3 2
3 2 3 4
3 2 4 5
3 3 6 4
3 5 4 16
3 4 6 7
3 4 7 16
3 10 1 8
3 0 8 1
3 8 0 11
3 2 11 0
3 1 10 3
3 11 13 12
3 9 14 10
3 10 14 15
3 10 15 3
3 11 2 5
3 11 5 13
3 5 16 17
3 5 17 13
3 14 18 15
3 15 18 19
3 15 19 6
3 3 15 6
3 17 16 20
3 7 21 16
3 16 21 20
3 22 6 19
3 7 6 22
3 7 22 21
3 8 11 23
3 23 11 12
3 9 10 8
3 13 25 12
3 9 24 14
3 27 14 24
3 26 25 13
3 17 26 13
3 14 27 18
3 20 26 17
3 27 28 18
3 29 26 20
3 19 18 22
3 8 30 9
3 30 36 9
3 12 31 23
3 12 37 31
3 36 24 9
3 25 37 12
3 36 38 24
3 37 25 39
3 38 44 24
3 44 27 24
3 39 25 26
3 39 26 45
3 44 46 27
3 46 28 27
3 45 26 47
3 47 26 29
3 28 46 18
3 47 29 20
3 18 46 32
3 33 47 20
3 22 18 32
3 34 22 32
3 35 21 22
3 20 21 35
3 20 35 33
3 30 8 49
3 49 8 50
3 8 23 50
3 50 23 51
3 51 23 31
3 30 48 36
3 37 51 31
3 40 42 41
3 41 42 43
3 61 47 33
3 32 46 62
3 62 34 32
3 35 63 33
3 61 33 63
3 34 35 22
3 49 48 30
3 51 66 50
3 36 48 69
3 53 52 41
3 53 41 71
3 72 38 36
3 52 54 40
3 52 40 41
3 73 37 39
3 41 43 71
3 54 55 42
3 40 54 42
3 71 43 76
3 75 39 45
3 55 56 42
3 42 56 57
3 43 42 57
3 43 57 58
3 43 58 59
3 43 59 76
3 60 57 56
3 57 60 58
3 34 62 64
3 34 82 35
3 64 82 34
3 35 82 63
3 49 65 48
3 66 49 50
3 52 67 70
3 68 67 52
3 83 68 52
3 83 52 53
3 70 54 52
3 71 83 53
3 83 71 87
3 70 74 54
3 54 74 55
3 87 71 88
3 88 71 76
3 74 78 56
3 55 74 56
3 88 76 89
3 90 46 44
3 56 78 79
3 89 76 59
3 90 80 46
3 56 79 60
3 58 60 81
3 81 91 58
3 91 59 58
3 89 59 91
3 94 47 61
3 95 61 63
3 96 63 82
3 65 49 98
3 49 66 98
3 69 48 65
3 100 66 51
3 101 67 68
3 100 51 37
3 67 102 70
3 84 36 69
3 85 68 83
3 86 85 83
3 36 84 72
3 102 105 70
3 83 87 86
3 104 37 73
3 105 74 70
3 105 109 74
3 86 87 88
3 72 77 38
3 77 44 38
3 109 78 74
3 78 109 113
3 77 90 44
3 88 89 92
3 113 114 78
3 91 93 92
3 114 79 78
3 89 91 92
3 114 60 79
3 81 118 93
3 81 93 91
3 119 46 80
3 116 47 94
3 60 117 81
3 117 118 81
3 119 62 46
3 64 119 97
3 64 62 119
3 97 120 64
3 120 82 64
3 120 96 82
3 66 99 98
3 98 121 65
3 65 121 69
3 66 100 99
3 67 123 102
3 123 67 101
3 100 37 104
3 105 103 107
3 103 105 102
3 68 106 101
3 68 85 106
3 108 106 85
3 85 86 108
3 107 110 109
3 105 107 109
3 124 106 108
3 86 111 108
3 86 88 111
3 110 112 109
3 93 124 108
3 108 111 93
3 109 112 113
3 115 124 93
3 111 92 93
3 88 92 111
3 114 113 112
3 115 93 118
3 114 117 60
3 94 61 95
3 95 63 96
3 122 123 101
3 122 103 102
3 123 122 102
3 69 121 127
3 127 84 69
3 128 101 106
3 129 110 107
3 131 112 110
3 134 115 118
3 125 114 112
3 119 80 135
3 117 114 125
3 117 134 118
3 119 135 126
3 125 134 117
3 126 97 119
3 96 120 137
3 137 95 96
3 121 98 139
3 98 99 138
3 140 103 122
3 140 122 141
3 141 122 101
3 121 139 127
3 141 101 128
3 72 84 127
3 128 106 132
3 132 106 124
3 130 72 127
3 77 72 130
3 132 124 145
3 145 124 115
3 133 77 130
3 90 77 133
3 144 112 131
3 115 134 145
3 90 133 80
3 80 133 135
3 125 147 134
3 136 97 126
3 136 120 97
3 139 98 149
3 149 98 138
3 141 128 142
3 150 127 139
3 150 151 127
3 143 142 128
3 128 132 143
3 151 130 127
3 145 146 143
3 132 145 143
3 151 154 130
3 154 133 130
3 145 147 146
3 154 135 133
3 155 125 112
3 125 155 157
3 147 145 134
3 147 125 157
3 136 126 135
3 148 120 136
3 137 120 148
3 148 95 137
3 100 138 99
3 149 138 158
3 149 159 139
3 103 160 107
3 160 103 140
3 159 150 139
3 163 141 142
3 152 151 150
3 163 142 143
3 152 153 151
3 75 73 39
3 163 143 164
3 164 143 146
3 151 153 154
3 116 45 47
3 146 147 164
3 154 156 135
3 156 168 135
3 135 168 136
3 136 171 148
3 94 95 148
3 138 100 172
3 141 173 140
3 149 162 159
3 149 158 162
3 141 163 173
3 161 150 159
3 160 129 107
3 179 163 180
3 180 163 164
3 165 166 154
3 153 165 154
3 75 45 116
3 164 147 167
3 167 180 164
3 156 154 166
3 144 155 112
3 157 155 185
3 167 147 183
3 156 169 168
3 185 147 157
3 183 147 185
3 136 168 170
3 136 170 171
3 94 148 188
3 140 189 160
3 173 189 140
3 161 159 190
3 190 159 162
3 138 174 158
3 138 172 174
3 175 162 158
3 158 174 175
3 172 100 104
3 173 163 176
3 175 178 162
3 150 177 152
3 179 176 163
3 131 110 129
3 167 181 180
3 156 166 200
3 182 184 170
3 202 182 170
3 171 170 184
3 184 186 171
3 188 116 94
3 169 202 168
3 170 168 202
3 186 148 171
3 186 187 148
3 187 188 148
3 191 189 173
3 203 161 190
3 150 161 177
3 192 174 172
3 172 104 192
3 194 129 160
3 160 205 194
3 178 190 162
3 174 193 175
3 174 192 193
3 152 177 195
3 104 73 192
3 178 175 196
3 192 73 210
3 195 165 153
3 152 195 153
3 208 178 196
3 175 197 196
3 175 193 197
3 210 73 75
3 194 131 129
3 179 180 206
3 194 199 131
3 206 180 211
3 198 208 196
3 196 197 198
3 210 75 201
3 197 184 198
3 197 186 184
3 201 75 116
3 199 144 131
3 198 184 182
3 199 155 144
3 186 201 187
3 201 188 187
3 116 188 201
3 200 169 156
3 214 183 185
3 202 169 216
3 189 217 160
3 189 191 217
3 161 203 204
3 217 205 160
3 176 191 173
3 161 204 177
3 190 222 203
3 190 178 222
3 179 206 176
3 176 206 177
3 177 206 195
3 194 205 207
3 208 222 178
3 192 209 193
3 192 210 209
3 193 209 197
3 207 212 199
3 194 207 199
3 206 211 195
3 195 211 165
3 210 201 209
3 197 209 186
3 209 201 186
3 165 211 200
3 166 165 200
3 224 208 198
3 182 224 198
3 155 199 212
3 155 212 225
3 181 211 180
3 181 200 211
3 224 182 202
3 225 185 155
3 185 225 214
3 167 213 181
3 169 200 215
3 202 216 224
3 167 183 213
3 183 214 213
3 215 216 169
3 217 191 218
3 219 204 220
3 220 204 203
3 217 221 205
3 218 221 217
3 191 176 219
3 219 176 177
3 204 219 177
3 223 220 203
3 203 222 223
3 230 205 221
3 223 222 232
3 230 233 205
3 233 207 205
3 232 222 208
3 232 208 237
3 233 238 207
3 238 212 207
3 238 225 212
3 237 208 240
3 240 208 224
3 224 227 240
3 225 226 214
3 181 213 200
3 200 213 228
3 200 228 215
3 224 216 227
3 243 213 214
3 228 244 215
3 227 216 244
3 216 215 244
3 229 218 191
3 219 229 191
3 218 229 221
3 229 219 231
3 219 220 231
3 223 231 220
3 229 245 221
3 221 234 230
3 221 245 234
3 235 247 223
3 223 232 235
3 232 236 235
3 230 234 233
3 232 237 236
3 233 234 238
3 234 239 238
3 238 239 225
3 236 240 235
3 236 237 240
3 239 226 225
3 227 251 235
3 235 240 227
3 241 214 226
3 214 241 243
3 241 213 243
3 241 242 213
3 242 228 213
3 242 244 228
3 244 242 227
3 231 245 229
3 231 246 245
3 223 247 231
3 247 246 231
3 248 234 245
3 245 246 248
3 248 249 234
3 248 250 249
3 248 246 250
3 246 247 250
3 247 251 250
3 247 235 251
3 234 249 239
3 226 239 249
3 249 250 241
3 250 242 241
3 250 251 242
3 241 226 249
3 227 242 251
