ply
format ascii 1.0
element vertex 252
property float x
property float y
property float z
element face 500
property list uchar int vertex_indices
end_header
-0.531252 -0.065843 0.447798
-0.503332 -0.119658 0.492189
-0.517303 -0.028665 0.504319
-0.533796 0.037922 0.427412
-0.508520 0.087172 0.493632
-0.493183 0.145173 0.428586
-0.426389 -0.215175 0.428779
-0.482450 -0.151404 0.420277
-0.433235 -0.196481 0.505417
-0.417116 -0.175409 0.354896
-0.422113 -0.056399 0.298696
-0.426419 -0.074576 0.586486
-0.511097 -0.005083 0.370747
-0.433002 0.069687 0.585663
-0.507262 0.078769 0.374032
-0.429738 0.159563 0.351127
-0.439037 0.179121 0.506621
-0.427710 0.209408 0.426824
-0.345717 -0.178009 0.578906
-0.347032 -0.115316 0.301555
-0.425801 0.044124 0.294370
-0.348458 0.104406 0.295270
-0.318804 0.151141 0.590270
-0.347055 -0.227646 0.499462
-0.355414 -0.202497 0.374500
-0.287097 -0.159954 0.349006
-0.333180 -0.064750 0.627426
-0.352169 -0.003773 0.273514
-0.372364 0.035205 0.624733
-0.353729 0.198690 0.368968
-0.349733 0.223125 0.493230
-0.277148 -0.209432 0.427194
-0.226160 -0.211159 0.501065
-0.184502 -0.206261 -0.953243
-0.262741 -0.211062 0.562766
-0.238560 -0.118714 -0.977648
-0.196184 -0.197931 -0.825499
-0.187889 -0.151284 0.431873
-0.069025 -0.119319 0.645290
-0.201952 -0.149379 -0.727678
-0.232193 -0.027251 -1.046989
-0.252176 -0.075358 -0.822796
-0.272338 -0.073478 0.317787
-0.243794 -0.016044 -0.750419
-0.251419 0.038282 -0.953876
-0.257098 0.048586 -0.803486
-0.273177 0.053404 0.313294
-0.171496 0.122594 -1.037600
-0.056449 0.026572 0.670593
-0.205487 0.137124 -0.737368
-0.196261 0.192349 -0.950939
-0.230927 0.157831 -0.838670
-0.283384 0.161119 0.350123
-0.186548 0.157262 0.434590
-0.270794 0.214139 0.546518
-0.177893 0.222879 -0.846775
-0.269961 0.212311 0.434358
-0.276581 0.229582 0.506450
-0.193485 0.205101 0.500083
-0.122866 -0.238893 -0.836352
-0.119101 -0.228957 -0.696453
-0.040739 -0.191304 0.582545
-0.182991 -0.138321 -1.031449
-0.163361 -0.170176 -0.646799
-0.089897 -0.217096 -0.532191
-0.143513 -0.086536 -0.502205
-0.196657 -0.029065 -0.647299
-0.184109 -0.011090 -1.068951
-0.124847 -0.008364 0.418714
-0.150885 0.043127 -0.510645
-0.183620 0.092657 -0.646884
-0.159381 0.166618 -0.649994
-0.031791 0.137715 0.644449
-0.096911 0.195047 -0.523661
-0.058150 0.189093 0.583134
-0.122737 0.227926 -0.709830
-0.101666 0.237407 -0.846741
-0.121221 -0.212213 -0.966808
-0.027503 -0.242950 -0.684901
-0.031742 -0.247708 -0.597641
-0.031757 -0.199857 -0.832257
-0.122052 -0.172704 0.489945
-0.099097 -0.173679 -1.020167
-0.061921 -0.190850 -0.432116
-0.018987 -0.185650 -0.348929
-0.078742 -0.076011 -0.354870
-0.083927 -0.132774 0.465048
-0.070506 -0.085970 -1.036895
-0.120598 -0.023768 -0.418502
-0.048533 -0.042965 -0.269889
-0.080126 0.062423 -0.340387
-0.071645 0.089374 -1.043248
-0.095669 0.123756 -0.410934
-0.019297 0.091940 -0.208064
-0.098496 0.166833 -1.032905
-0.089645 0.144841 0.472742
-0.024370 0.185605 -0.347895
-0.124090 0.179906 0.495225
-0.140492 0.213052 -0.969629
-0.057846 0.162545 -0.969791
-0.020079 0.189867 -0.823171
-0.032435 0.241952 -0.625859
-0.047566 -0.240306 -0.743408
-0.031919 -0.244895 -0.499881
0.014680 -0.242495 -0.448449
-0.050714 -0.155067 -0.974910
0.020626 -0.192005 -0.728884
0.038411 -0.217827 -0.647356
0.018911 -0.195367 0.530886
0.049058 -0.210852 0.589693
0.040741 -0.212946 -0.277698
0.026861 -0.175543 -0.204925
0.067326 -0.178657 0.010110
0.029715 -0.162685 0.652073
0.021308 -0.118252 -0.808521
-0.016461 -0.124823 -0.253056
0.005821 -0.079270 -0.883717
-0.017513 -0.055338 -0.169011
0.026237 -0.057847 0.056324
-0.008358 -0.004147 -0.984631
0.033657 -0.000601 -0.822258
-0.015965 0.000182 -1.025513
0.007695 0.050496 -0.888609
0.012973 0.023411 0.018141
0.023713 0.116391 -0.806242
0.059478 0.159084 0.005793
0.038160 0.118311 0.676753
0.004675 0.175796 -0.251426
0.030635 0.182890 -0.197262
-0.038713 0.223366 -0.473273
0.039152 0.199253 0.523048
0.041801 0.178228 0.648079
-0.046868 0.238084 -0.745847
0.023159 0.198348 -0.721793
0.031490 0.239469 -0.449268
0.041428 -0.238307 -0.559379
0.052011 -0.236817 -0.368019
0.102831 -0.235519 -0.184792
0.135038 -0.252518 -0.036813
0.195739 -0.242542 0.578786
0.096573 -0.224674 -0.461509
0.111567 -0.223865 0.051365
0.093968 -0.124157 -0.662410
0.119983 -0.157694 0.470176
0.075088 -0.115918 0.129810
0.124338 -0.144070 0.185246
0.095788 -0.032141 0.196745
0.113695 -0.072548 0.448073
0.070667 -0.045719 -0.738254
0.054330 0.019210 0.119626
0.050879 -0.047793 0.692211
0.108831 0.023934 -0.671913
0.120136 0.038012 0.446217
0.053069 0.036066 0.696416
0.065993 0.084696 -0.739869
0.130146 0.134913 0.190872
0.084133 0.164402 -0.657252
0.102978 0.180619 0.107761
0.115493 0.164285 0.477196
0.041229 0.217877 -0.267848
0.046590 0.231399 -0.594166
0.093458 0.208394 -0.558002
0.120835 0.222254 -0.371843
0.054276 0.237506 -0.343478
0.124475 0.238237 0.019633
0.122758 0.239690 -0.168021
0.141449 0.233916 0.574883
0.121700 -0.223394 -0.327425
0.185099 -0.245145 0.073094
0.105346 -0.182581 -0.578861
0.179866 -0.214353 -0.262072
0.119184 -0.195527 0.119145
0.203484 -0.218977 0.192178
0.161206 -0.213513 0.501500
0.105924 -0.195031 0.652840
0.161319 -0.151711 -0.435244
0.184153 -0.172718 -0.336871
0.142404 -0.073995 -0.576398
0.200745 -0.174396 0.269802
0.185584 -0.151507 0.430186
0.125326 -0.143420 0.687995
0.134822 -0.053324 0.259224
0.185029 -0.103458 0.354310
0.154451 -0.037856 0.421876
0.188532 0.004733 -0.435717
0.160863 -0.001260 0.351883
0.136325 0.088515 -0.579574
0.138215 0.043525 0.263613
0.158944 0.040471 0.419275
0.201642 0.137114 0.350276
0.158968 0.152378 -0.436647
0.184825 0.159710 0.261168
0.188604 0.156287 0.436917
0.199711 0.118253 -0.349227
0.177085 0.214817 0.487311
0.147383 0.202827 0.654973
0.108300 0.242257 -0.282226
0.181474 0.208895 -0.260644
0.171965 0.233959 0.125725
0.212247 0.223676 0.201607
0.200169 0.255915 -0.047569
0.190819 -0.253847 -0.084279
0.256735 -0.235715 0.463339
0.237826 -0.196276 -0.200479
0.259101 -0.218757 -0.103276
0.267766 -0.228095 0.271568
0.229468 -0.187077 0.349274
0.342983 -0.185318 0.649547
0.226004 -0.155647 -0.274964
0.284373 -0.126969 -0.191687
0.220504 -0.046137 -0.345976
0.298663 -0.032479 -0.209321
0.254620 0.077618 -0.273286
0.345796 0.032864 0.718852
0.349499 0.112907 0.703454
0.287980 0.090643 -0.201917
0.212508 0.221766 -0.178322
0.250212 0.226859 -0.108052
0.267446 0.227091 0.270408
0.259477 0.231816 0.443838
0.280887 0.250300 0.591416
0.295416 -0.249780 0.578599
0.259777 -0.233380 0.012724
0.274076 -0.235269 0.179368
0.297683 -0.166698 -0.098405
0.344931 -0.172285 0.138677
0.367169 -0.099697 0.095674
0.361506 -0.075010 0.702173
0.333924 -0.069763 -0.112023
0.310663 0.121396 -0.103571
0.362144 0.099063 0.094288
0.279137 0.212652 -0.020391
0.347725 0.170626 0.156096
0.352095 0.198221 0.656487
0.264397 0.240801 0.166009
0.324795 -0.223469 0.271647
0.354858 -0.225952 0.552190
0.419863 -0.128785 0.284239
0.411163 -0.174142 0.620925
0.410323 -0.077824 0.190967
0.429872 -0.106541 0.648343
0.337485 0.005223 -0.129604
0.381760 -0.007034 0.095047
0.415754 0.035786 0.192634
0.414261 0.122466 0.297138
0.418855 0.120810 0.669806
0.326494 0.226689 0.275042
0.353697 0.229579 0.555700
0.442243 -0.061132 0.269898
0.463270 0.018584 0.656161
0.441749 0.021557 0.701876
0.443069 0.039067 0.261205
3 7 0 1
3 12 0 7
3 1 0 2
3 3 0 12
3 0 3 2
3 2 3 4
3 14 3 12
3 5 3 14
3 3 5 4
3 7 6 9
3 6 7 8
3 7 1 8
3 9 10 7
3 1 11 8
3 7 10 12
3 2 11 1
3 20 12 10
3 13 11 2
3 4 13 2
3 14 12 20
3 15 14 20
3 14 15 5
3 4 5 16
3 4 16 13
3 17 5 15
3 16 5 17
3 6 23 24
3 8 23 6
3 19 9 24
3 24 9 6
3 8 18 23
3 19 10 9
3 18 8 11
3 11 26 18
3 10 19 27
3 20 10 27
3 26 11 28
3 28 11 13
3 21 20 27
3 20 21 15
3 28 13 22
3 22 13 16
3 21 29 15
3 15 29 17
3 16 30 22
3 30 17 29
3 17 30 16
3 23 31 24
3 31 23 32
3 23 34 32
3 24 25 19
3 25 24 31
3 34 23 18
3 18 38 34
3 25 42 19
3 38 18 26
3 42 46 27
3 19 42 27
3 27 46 21
3 48 28 22
3 46 52 21
3 29 21 52
3 29 52 56
3 22 30 54
3 56 30 29
3 56 57 30
3 54 30 57
3 62 35 33
3 33 35 36
3 25 31 37
3 32 37 31
3 32 34 61
3 34 38 61
3 62 40 35
3 35 41 36
3 36 41 39
3 25 37 42
3 67 40 62
3 39 41 43
3 39 43 66
3 37 68 42
3 35 40 44
3 35 44 41
3 41 44 45
3 41 45 43
3 42 68 46
3 48 26 28
3 47 40 67
3 40 47 44
3 66 43 49
3 43 45 49
3 50 44 47
3 44 50 51
3 44 51 45
3 45 51 49
3 46 53 52
3 55 51 50
3 51 55 49
3 56 52 53
3 53 58 56
3 54 58 74
3 74 22 54
3 57 56 58
3 58 54 57
3 59 77 33
3 59 33 36
3 36 60 59
3 33 77 62
3 77 82 62
3 36 39 60
3 60 39 63
3 60 63 64
3 32 81 37
3 81 32 61
3 64 63 65
3 86 37 81
3 62 82 87
3 66 63 39
3 63 66 65
3 87 67 62
3 37 86 68
3 65 66 69
3 65 69 88
3 49 70 66
3 66 70 69
3 88 69 92
3 53 46 68
3 68 95 53
3 72 48 22
3 91 47 67
3 94 47 91
3 71 70 49
3 70 71 69
3 69 71 73
3 69 73 92
3 53 95 97
3 74 72 22
3 50 47 98
3 47 94 98
3 49 55 75
3 71 49 75
3 75 73 71
3 97 58 53
3 97 74 58
3 98 76 55
3 98 55 50
3 76 75 55
3 59 80 77
3 80 59 102
3 59 60 102
3 78 102 60
3 78 60 79
3 79 60 64
3 79 64 103
3 103 64 83
3 105 82 77
3 105 77 80
3 108 81 61
3 105 87 82
3 65 83 64
3 84 83 85
3 108 86 81
3 88 83 65
3 83 88 85
3 84 85 89
3 38 26 48
3 87 91 67
3 85 88 90
3 85 90 89
3 88 92 90
3 89 90 93
3 93 90 96
3 91 99 94
3 90 92 96
3 130 97 95
3 98 94 99
3 73 129 92
3 129 96 92
3 130 74 97
3 98 99 76
3 76 99 100
3 132 76 100
3 132 75 76
3 75 132 101
3 75 101 73
3 129 73 101
3 102 106 80
3 78 106 102
3 78 107 106
3 135 107 79
3 79 107 78
3 104 135 103
3 79 103 135
3 103 83 104
3 136 104 84
3 104 83 84
3 136 84 110
3 80 106 114
3 109 108 61
3 109 61 113
3 115 110 84
3 110 115 111
3 143 86 108
3 38 113 61
3 80 116 105
3 80 114 116
3 89 115 84
3 111 115 117
3 111 117 112
3 112 117 118
3 112 118 144
3 143 147 86
3 105 119 87
3 105 116 119
3 114 120 116
3 89 117 115
3 144 118 149
3 147 68 86
3 113 38 150
3 87 119 121
3 116 122 119
3 116 120 122
3 147 152 68
3 38 48 150
3 91 87 121
3 93 117 89
3 117 123 118
3 118 123 149
3 150 48 153
3 121 119 91
3 117 93 123
3 119 99 91
3 119 122 99
3 120 124 122
3 123 93 125
3 123 125 149
3 152 95 68
3 72 126 48
3 48 126 153
3 122 100 99
3 122 124 100
3 96 127 93
3 93 127 128
3 93 128 125
3 152 158 95
3 124 133 100
3 158 130 95
3 131 126 72
3 74 131 72
3 100 133 132
3 96 159 127
3 159 128 127
3 132 133 101
3 160 101 133
3 129 101 160
3 134 129 160
3 163 96 134
3 96 129 134
3 96 163 159
3 104 140 135
3 136 140 104
3 136 167 140
3 110 167 136
3 167 110 137
3 138 137 112
3 138 112 141
3 139 173 109
3 109 174 139
3 142 106 107
3 107 169 142
3 107 135 169
3 169 135 140
3 111 137 110
3 112 137 111
3 112 171 141
3 108 173 143
3 173 108 109
3 174 109 113
3 169 177 142
3 144 171 112
3 144 145 171
3 174 113 180
3 145 144 146
3 145 146 181
3 148 114 106
3 120 114 148
3 106 142 148
3 144 149 146
3 180 113 150
3 142 151 148
3 181 146 187
3 154 120 148
3 148 151 154
3 146 149 155
3 146 155 187
3 124 120 154
3 151 156 154
3 125 157 149
3 149 157 155
3 133 124 154
3 154 156 133
3 195 126 131
3 156 160 133
3 156 161 160
3 164 157 125
3 194 130 158
3 160 161 134
3 161 162 134
3 162 163 134
3 159 163 196
3 163 162 196
3 165 159 196
3 165 128 159
3 128 165 125
3 125 165 164
3 74 130 166
3 130 194 166
3 166 131 74
3 166 195 131
3 168 201 138
3 167 137 170
3 137 138 201
3 170 137 201
3 168 138 141
3 168 141 171
3 171 172 168
3 175 169 140
3 167 175 140
3 167 176 175
3 170 176 167
3 172 171 145
3 172 145 178
3 173 179 143
3 169 175 177
3 207 174 180
3 176 210 175
3 181 178 145
3 206 178 182
3 182 183 179
3 179 183 147
3 143 179 147
3 175 184 177
3 175 210 184
3 178 181 182
3 151 142 177
3 182 181 185
3 182 185 183
3 147 183 152
3 186 151 177
3 177 184 186
3 181 187 185
3 183 185 188
3 183 188 152
3 185 187 189
3 185 189 188
3 156 151 186
3 184 190 186
3 155 191 187
3 187 191 189
3 188 189 192
3 188 192 152
3 213 153 214
3 214 153 126
3 184 193 190
3 152 192 158
3 161 156 186
3 186 190 161
3 193 162 190
3 214 126 195
3 162 161 190
3 193 197 162
3 164 198 157
3 157 198 155
3 155 198 199
3 155 199 191
3 158 192 194
3 196 162 197
3 197 165 196
3 197 216 165
3 216 200 165
3 164 200 198
3 220 195 166
3 200 164 165
3 139 221 202
3 201 203 170
3 204 203 201
3 201 222 204
3 201 168 222
3 222 168 223
3 168 172 223
3 205 223 172
3 205 206 202
3 202 173 139
3 221 139 207
3 207 139 174
3 170 208 176
3 170 203 208
3 204 224 203
3 178 205 172
3 205 178 206
3 202 206 179
3 173 202 179
3 203 209 208
3 203 224 209
3 227 207 180
3 176 208 210
3 206 182 179
3 208 211 210
3 208 209 211
3 227 180 150
3 211 212 210
3 227 150 213
3 213 150 153
3 193 184 210
3 210 212 193
3 197 193 212
3 212 215 197
3 215 216 197
3 215 229 216
3 229 217 216
3 199 218 191
3 191 218 189
3 189 218 219
3 189 219 192
3 192 219 194
3 195 220 233
3 200 216 217
3 217 231 200
3 231 234 200
3 198 200 234
3 198 234 199
3 199 234 218
3 194 219 166
3 219 220 166
3 223 205 235
3 205 202 235
3 235 202 236
3 202 221 236
3 221 207 236
3 204 222 224
3 222 225 224
3 223 225 222
3 223 235 225
3 225 226 224
3 224 228 209
3 224 226 228
3 228 211 209
3 228 241 211
3 215 212 211
3 241 229 215
3 211 241 215
3 229 230 231
3 230 232 231
3 217 229 231
3 232 234 231
3 232 246 234
3 214 195 233
3 246 218 234
3 218 246 219
3 246 247 219
3 219 247 220
3 247 233 220
3 235 237 225
3 235 236 237
3 236 238 237
3 207 238 236
3 226 225 239
3 225 237 239
3 207 240 238
3 207 227 240
3 237 238 240
3 228 242 241
3 228 226 242
3 226 239 242
3 239 243 242
3 240 227 250
3 250 227 213
3 241 242 229
3 242 230 229
3 242 243 230
3 250 213 214
3 232 230 243
3 243 244 232
3 245 250 214
3 245 214 233
3 232 244 246
3 244 247 246
3 244 245 247
3 247 245 233
3 248 239 237
3 237 240 248
3 243 239 248
3 248 240 249
3 240 250 249
3 251 243 248
3 248 249 251
3 244 243 251
3 251 249 244
3 249 245 244
3 249 250 245
