ply
format ascii 1.0
element vertex 252
property float x
property float y
property float z
element face 500
property list uchar int vertex_indices
end_header
-0.656218 -0.176945 -0.333960
-0.646141 -0.200104 -0.186360
-0.699907 -0.127100 -0.202401
-0.662608 -0.128261 -0.134670
-0.636436 -0.098816 -0.413253
-0.714791 -0.023215 -0.340108
-0.718640 -0.035580 -0.176123
-0.697960 0.035562 -0.434533
-0.693725 0.024997 -0.112744
-0.709761 0.088501 -0.198881
-0.705664 0.083505 -0.376955
-0.653251 0.138332 -0.130300
-0.657053 0.179892 -0.321334
-0.659243 0.191324 -0.186805
-0.593797 -0.247190 -0.277216
-0.631777 -0.068141 -0.097348
-0.556079 -0.125297 0.208179
-0.660932 0.032343 -0.452876
-0.578996 -0.052869 0.198223
-0.647069 0.020890 -0.089410
-0.569409 0.064187 0.194109
-0.666668 0.073970 -0.096758
-0.644819 0.110708 -0.416091
-0.588194 0.249472 -0.267440
-0.568584 -0.222221 -0.353124
-0.570393 -0.245353 -0.200584
-0.585010 -0.211606 -0.155779
-0.502862 -0.183243 0.262047
-0.561196 -0.085685 0.271700
-0.503669 -0.109502 0.127174
-0.446518 -0.035757 -0.439637
-0.519373 -0.028933 0.112134
-0.573238 0.002576 0.271809
-0.500199 0.068238 0.119176
-0.564978 0.089956 0.255293
-0.432162 0.057988 -0.433852
-0.428422 0.133615 -0.403299
-0.548501 0.154837 0.219863
-0.498556 0.185552 0.271631
-0.545838 0.226056 -0.342701
-0.558414 0.238823 -0.200116
-0.477667 -0.259904 -0.284980
-0.454971 -0.239128 -0.333003
-0.467762 -0.200184 0.199560
-0.420620 -0.233758 0.275419
-0.430995 -0.137529 -0.395817
-0.430189 -0.139470 0.381637
-0.419549 -0.157314 0.124295
-0.331562 -0.001585 -0.067877
-0.356427 0.116246 -0.093119
-0.455024 0.091281 0.386951
-0.501586 0.186275 0.196537
-0.421500 0.141590 0.130732
-0.416219 0.192090 0.358963
-0.343374 0.190816 -0.135666
-0.418162 0.239485 0.266310
-0.470623 0.257889 -0.286192
-0.346461 -0.262889 0.274239
-0.353115 -0.228642 0.341399
-0.340863 -0.223026 -0.293562
-0.362382 -0.142319 -0.110270
-0.441279 -0.049808 0.091086
-0.360414 -0.060713 0.454428
-0.426846 -0.007440 0.431883
-0.366361 -0.020827 -0.409924
-0.345410 0.111350 0.427172
-0.422778 0.221300 -0.337707
-0.433091 0.231228 0.200389
-0.350617 0.223554 0.355477
-0.355405 -0.232946 -0.195900
-0.310337 -0.249133 0.193519
-0.347336 -0.118161 -0.372024
-0.267724 -0.192212 -0.122070
-0.337475 -0.129142 0.099975
-0.253184 -0.209121 0.114541
-0.334983 -0.149451 0.415888
-0.240594 -0.152810 -0.336471
-0.350044 0.014825 0.081565
-0.343918 0.008362 0.464757
-0.350282 0.080443 -0.394125
-0.334313 0.146260 0.114662
-0.341006 0.166346 -0.349501
-0.262763 0.189042 -0.107942
-0.311191 0.235937 0.177013
-0.266085 0.187818 0.107121
-0.340152 0.234324 -0.289104
-0.289669 0.239854 -0.201939
-0.153507 -0.295435 0.270053
-0.223396 -0.246542 -0.186109
-0.267797 -0.233144 0.361000
-0.212257 -0.222846 -0.104168
-0.182396 -0.227542 -0.032755
-0.205057 -0.206905 0.038458
-0.221800 -0.181889 -0.040667
-0.271562 -0.056214 -0.036497
-0.256530 -0.130319 0.043695
0.030260 -0.118889 0.403142
-0.283859 -0.054875 -0.373905
-0.276180 0.000300 0.031781
0.024872 -0.013618 0.443472
-0.279316 0.036073 -0.377059
-0.262356 0.085715 -0.042326
0.044705 0.059699 0.434800
-0.271178 0.119596 -0.353039
-0.283940 0.114603 0.079096
-0.222680 0.173657 0.045248
-0.225418 0.226902 -0.270725
-0.198294 0.206563 -0.039302
-0.157620 0.241877 0.360035
-0.209268 0.238149 -0.124101
-0.178630 0.228121 0.032201
-0.206466 0.236514 0.107117
-0.145026 0.293704 0.277925
-0.108912 -0.316838 0.198335
-0.051033 -0.255003 -0.234909
-0.118965 -0.267606 -0.090608
-0.129520 -0.284618 0.109597
-0.058434 -0.244801 0.346982
0.021721 0.142609 0.407657
0.641395 0.164264 -0.317619
-0.200077 0.257229 -0.186811
-0.123239 0.263200 -0.077470
-0.116411 0.279842 0.084543
-0.131837 0.303207 0.199559
-0.077266 -0.271467 -0.189544
-0.018812 -0.283480 0.285981
0.716896 -0.116835 -0.323998
0.045438 0.256847 -0.225008
-0.050340 0.261036 0.335102
-0.081959 0.269134 -0.192248
-0.039546 -0.300379 0.195405
-0.028136 -0.263790 -0.113268
-0.032749 -0.267966 0.012635
0.050127 -0.208183 0.061610
0.022214 -0.223918 -0.039550
0.050671 -0.213209 0.342805
0.044454 0.214568 -0.076186
0.044845 0.219025 0.053138
0.051940 0.211238 0.339579
-0.038876 0.267393 -0.120677
-0.036104 0.267663 -0.006213
-0.053692 0.299495 0.191099
-0.013222 0.279512 0.275138
0.013722 -0.256639 -0.185203
0.109843 -0.224964 -0.170753
0.051607 -0.223837 -0.124689
0.107867 -0.189419 0.179510
0.105245 -0.195954 0.265554
0.647548 -0.165735 -0.314700
0.108365 -0.164347 -0.114188
0.061762 -0.156671 -0.043093
0.102897 -0.163926 0.110979
0.093322 -0.084670 0.046632
0.127018 -0.120904 0.343131
0.086123 0.003246 -0.037126
0.085554 0.050257 0.017103
0.070400 0.137580 -0.038953
0.071137 0.159784 0.025918
0.121335 0.110677 0.360185
0.119542 0.156036 -0.114304
0.099310 0.172206 0.107797
0.110429 0.187316 0.191163
0.112031 0.191655 0.278719
0.028413 0.255079 -0.190793
0.663435 -0.203544 -0.267423
0.140233 -0.087932 0.136045
0.174629 -0.035304 0.206317
0.176811 -0.047925 0.285374
0.118062 -0.012539 -0.075557
0.137593 -0.002273 0.368054
0.136257 0.070721 0.123921
0.173111 0.077844 0.266239
0.173205 0.081983 0.196988
0.102435 0.218078 -0.156287
0.160586 0.214118 -0.173177
0.199810 -0.157762 -0.129697
0.196068 -0.079998 -0.100460
0.740579 -0.017355 -0.350784
0.198427 0.003206 -0.089013
0.174672 0.087271 -0.103497
0.225733 0.159536 -0.132877
0.658990 -0.210512 -0.164747
0.659301 0.210875 -0.166317
0.731740 0.061854 -0.343771
0.718698 0.087404 -0.080528
0.733745 -0.034264 -0.071681
0.758047 0.156976 -0.112732
0.641431 -0.227561 -0.208065
0.737346 -0.153490 -0.112019
0.758616 -0.181859 -0.269022
0.665192 0.209941 -0.269232
0.752618 0.185387 -0.275448
0.639894 0.228073 -0.208630
0.778577 -0.203814 -0.191576
0.832401 -0.198187 -0.118875
0.809454 -0.154276 -0.269628
0.800168 -0.105530 -0.043342
0.833108 -0.062837 0.044244
0.795288 0.083603 -0.043289
0.821691 0.051383 0.045875
0.835582 0.113523 0.029385
0.732204 0.153402 -0.312459
0.817583 0.126964 -0.286155
0.780266 0.204698 -0.193327
0.899900 -0.209522 -0.008848
0.843668 -0.173732 -0.027625
0.852656 -0.155607 0.012304
0.835822 -0.071373 -0.304025
0.866737 -0.065717 0.193961
0.872073 -0.103651 0.140314
0.830385 0.027702 -0.321109
0.839689 -0.005548 0.124229
0.862600 0.032109 0.198946
0.853313 0.082303 0.124590
0.842079 0.168134 -0.038947
0.907107 0.138121 0.177115
0.841973 0.202066 -0.122156
0.891568 0.202625 -0.017590
0.910021 -0.225292 -0.122921
0.877494 -0.194335 -0.189602
0.962097 -0.207810 0.092349
0.912002 -0.178190 0.097979
0.923683 -0.159745 0.175498
0.905662 -0.064354 0.239500
0.912344 0.068144 0.243661
0.895920 0.153549 0.121794
0.887159 0.205096 -0.180871
0.952025 0.195933 0.111044
0.907373 0.226360 -0.128833
0.961508 -0.202223 -0.138643
0.973218 -0.218765 -0.043391
0.968766 -0.164313 0.190777
0.962716 -0.125415 -0.200301
1.031462 -0.116111 -0.096637
1.006497 -0.197705 0.071684
0.980950 -0.084076 0.251504
1.038297 -0.118609 0.188973
0.975449 -0.006777 -0.232260
0.967458 0.012561 0.266261
0.964655 0.094073 0.249541
0.967350 0.113238 -0.212105
1.043908 0.123294 -0.098068
1.005227 0.204850 0.026296
0.968849 0.161782 0.185426
1.035459 0.110158 0.196058
0.971693 0.205050 -0.125420
0.963445 0.228398 -0.035197
1.068496 -0.064743 0.171868
1.053055 0.035403 -0.168774
1.076087 0.020776 -0.106397
1.038347 -0.017050 0.238626
1.068217 0.073022 0.174435
3 1 0 2
3 1 2 3
3 0 4 5
3 0 5 2
3 2 5 6
3 2 6 3
3 7 4 17
3 4 7 5
3 3 6 8
3 15 8 19
3 3 8 15
3 6 5 9
3 6 9 8
3 5 7 10
3 5 10 9
3 19 8 21
3 22 7 17
3 22 10 7
3 8 9 11
3 8 11 21
3 12 10 22
3 10 12 9
3 9 12 13
3 11 9 13
3 24 0 14
3 0 1 14
3 25 14 1
3 25 1 26
3 24 4 0
3 1 3 26
3 30 17 4
3 16 18 28
3 28 18 32
3 18 20 32
3 32 20 34
3 35 22 17
3 12 22 39
3 40 11 13
3 23 12 39
3 40 13 23
3 13 12 23
3 24 41 42
3 14 41 24
3 14 25 41
3 42 45 24
3 45 4 24
3 29 16 43
3 16 27 43
3 27 16 28
3 27 28 46
3 29 31 18
3 16 29 18
3 35 17 30
3 31 33 20
3 18 31 20
3 48 19 49
3 49 19 21
3 32 34 50
3 36 22 35
3 49 21 11
3 51 37 20
3 33 51 20
3 20 37 34
3 34 37 38
3 34 38 50
3 36 39 22
3 54 11 40
3 51 38 37
3 23 39 56
3 56 40 23
3 43 47 29
3 27 44 43
3 44 27 46
3 60 3 15
3 47 61 29
3 45 30 4
3 61 31 29
3 46 28 63
3 60 15 48
3 48 15 19
3 28 32 63
3 61 33 31
3 61 52 33
3 32 50 63
3 33 52 51
3 38 53 50
3 11 54 49
3 66 39 36
3 51 52 67
3 55 38 51
3 38 55 53
3 56 39 66
3 67 55 51
3 42 41 59
3 59 41 69
3 41 25 69
3 26 69 25
3 43 70 47
3 57 70 44
3 44 70 43
3 57 44 58
3 45 42 59
3 69 26 60
3 58 44 46
3 46 75 58
3 71 45 59
3 60 26 3
3 70 73 47
3 73 61 47
3 62 75 46
3 71 64 45
3 73 77 61
3 63 62 46
3 64 30 45
3 62 63 78
3 35 30 64
3 64 79 35
3 77 52 61
3 50 65 63
3 63 65 78
3 77 80 52
3 36 35 79
3 36 79 81
3 65 50 53
3 52 80 83
3 81 85 66
3 36 81 66
3 83 67 52
3 53 55 68
3 68 65 53
3 85 56 66
3 85 86 56
3 56 86 40
3 86 54 40
3 83 55 67
3 57 87 70
3 59 69 88
3 69 72 88
3 87 57 58
3 89 87 58
3 60 72 69
3 89 58 75
3 71 59 76
3 60 94 72
3 74 95 73
3 74 73 70
3 62 96 75
3 97 71 76
3 97 64 71
3 95 98 73
3 98 77 73
3 94 60 48
3 99 62 78
3 97 100 64
3 100 79 64
3 94 48 101
3 101 48 49
3 102 78 65
3 100 103 79
3 101 49 82
3 98 104 77
3 104 80 77
3 79 103 81
3 81 103 106
3 49 54 82
3 80 104 84
3 80 84 83
3 106 85 81
3 108 65 68
3 106 86 85
3 82 54 86
3 83 112 55
3 68 55 112
3 70 113 116
3 113 70 87
3 59 114 76
3 88 114 59
3 88 72 90
3 92 74 116
3 116 74 70
3 72 93 90
3 90 93 91
3 91 93 92
3 117 89 75
3 94 93 72
3 92 93 95
3 74 92 95
3 93 94 95
3 95 94 98
3 94 101 98
3 98 101 105
3 98 105 104
3 119 106 103
3 107 101 82
3 101 107 105
3 104 105 84
3 118 65 108
3 82 109 107
3 105 107 110
3 84 105 111
3 111 105 110
3 120 86 106
3 86 120 109
3 86 109 82
3 84 111 83
3 123 83 111
3 123 112 83
3 108 68 112
3 90 115 88
3 115 124 88
3 124 114 88
3 91 115 90
3 116 115 91
3 92 116 91
3 126 97 76
3 128 118 108
3 106 127 129
3 120 106 129
3 121 107 109
3 110 107 121
3 122 110 121
3 111 110 122
3 120 121 109
3 120 129 121
3 122 123 111
3 113 130 116
3 125 130 87
3 130 113 87
3 124 115 131
3 131 115 132
3 115 116 132
3 132 116 130
3 125 87 117
3 87 89 117
3 117 75 96
3 129 139 121
3 139 140 121
3 121 140 122
3 140 141 122
3 142 128 112
3 128 108 112
3 141 123 122
3 112 141 142
3 112 123 141
3 114 143 144
3 124 143 114
3 143 124 131
3 133 132 130
3 143 131 145
3 145 131 134
3 134 131 132
3 132 133 134
3 125 117 135
3 135 117 96
3 96 62 99
3 99 78 102
3 118 102 65
3 138 118 128
3 163 136 139
3 139 136 140
3 136 137 140
3 137 141 140
3 137 161 141
3 138 128 142
3 163 129 127
3 139 129 163
3 142 141 161
3 76 114 164
3 144 143 145
3 130 146 133
3 125 147 130
3 147 146 130
3 125 135 147
3 164 148 76
3 149 144 145
3 134 150 145
3 150 149 145
3 133 150 134
3 146 151 133
3 133 152 150
3 151 165 152
3 151 152 133
3 153 147 135
3 135 96 153
3 168 149 150
3 154 168 150
3 150 152 154
3 169 153 96
3 99 169 96
3 152 155 154
3 102 169 99
3 159 168 154
3 156 159 154
3 154 155 156
3 155 157 156
3 158 169 102
3 118 158 102
3 155 170 157
3 159 156 136
3 156 157 136
3 170 160 157
3 138 162 158
3 118 138 158
3 136 173 159
3 137 136 157
3 157 160 137
3 160 161 137
3 163 127 174
3 173 136 163
3 173 163 174
3 142 161 162
3 162 138 142
3 175 144 149
3 151 146 165
3 148 126 76
3 175 149 176
3 146 166 165
3 146 147 166
3 147 167 166
3 153 167 147
3 176 149 168
3 153 169 167
3 176 168 178
3 177 100 97
3 170 152 165
3 155 152 170
3 165 166 170
3 167 171 166
3 167 169 171
3 178 168 179
3 166 172 170
3 166 171 172
3 179 168 159
3 169 158 171
3 179 159 180
3 172 161 170
3 172 171 161
3 160 170 161
3 171 162 161
3 158 162 171
3 180 159 174
3 174 159 173
3 181 144 175
3 182 180 174
3 184 179 180
3 184 178 179
3 185 176 178
3 185 178 184
3 186 184 180
3 180 182 186
3 114 144 187
3 144 181 187
3 188 175 176
3 103 100 183
3 164 114 187
3 188 181 175
3 185 188 176
3 119 103 183
3 190 106 119
3 190 127 106
3 190 192 127
3 127 192 174
3 192 182 174
3 189 164 193
3 164 187 193
3 181 193 187
3 189 126 164
3 126 148 164
3 193 181 188
3 126 177 97
3 177 183 100
3 201 119 183
3 191 190 201
3 190 119 201
3 186 182 203
3 191 203 190
3 203 192 190
3 203 182 192
3 189 193 195
3 193 188 194
3 195 126 189
3 188 196 194
3 207 126 195
3 185 196 188
3 207 210 177
3 126 207 177
3 198 196 185
3 184 198 185
3 196 198 197
3 197 198 199
3 177 210 183
3 183 210 202
3 199 198 200
3 201 183 202
3 198 184 186
3 191 201 202
3 202 203 191
3 216 198 186
3 203 216 186
3 194 204 218
3 193 219 195
3 194 218 219
3 194 219 193
3 194 205 204
3 204 205 206
3 204 206 221
3 196 205 194
3 222 208 223
3 207 195 219
3 206 205 196
3 197 206 196
3 197 221 206
3 197 209 221
3 209 208 222
3 211 209 197
3 199 211 197
3 209 211 208
3 208 211 212
3 223 212 224
3 208 212 223
3 213 211 199
3 200 213 199
3 211 213 212
3 200 198 214
3 225 213 200
3 215 212 213
3 212 215 224
3 226 203 202
3 216 214 198
3 228 216 226
3 226 216 203
3 214 216 217
3 200 214 217
3 200 217 225
3 228 217 216
3 229 218 230
3 218 204 230
3 220 230 204
3 219 218 229
3 220 204 221
3 220 222 231
3 221 222 220
3 219 229 232
3 222 223 231
3 223 235 231
3 232 207 219
3 222 221 209
3 232 237 207
3 237 210 207
3 235 223 238
3 238 223 224
3 238 224 239
3 237 240 210
3 240 202 210
3 213 225 215
3 239 224 243
3 226 202 240
3 240 245 226
3 215 225 227
3 215 243 224
3 226 245 228
3 217 227 225
3 227 243 215
3 245 246 228
3 228 246 217
3 217 246 227
3 229 230 233
3 220 234 230
3 231 234 220
3 229 233 232
3 231 236 234
3 231 235 236
3 230 234 233
3 233 234 236
3 233 248 237
3 232 233 237
3 236 235 250
3 250 235 238
3 250 238 244
3 244 238 239
3 237 248 240
3 248 241 240
3 241 244 242
3 244 239 243
3 240 241 245
3 244 243 242
3 241 242 245
3 242 246 245
3 242 227 246
3 243 227 242
3 236 247 233
3 248 233 249
3 233 247 249
3 247 251 249
3 247 250 251
3 236 250 247
3 250 244 251
3 241 248 249
3 249 251 241
3 244 241 251
