ply
format ascii 1.0
element vertex 248
property float x
property float y
property float z
element face 500
property list uchar int vertex_indices
end_header
-0.648090 -0.177665 -0.718394
-0.656630 -0.167316 -0.497337
-0.686076 0.040226 -0.757735
-0.693672 -0.041266 -0.513467
-0.646090 0.184818 -0.543689
-0.646185 0.171048 -0.768263
-0.560186 -0.299954 -0.598112
-0.600834 -0.199823 -0.817772
-0.565255 -0.192476 -0.370271
-0.580773 -0.149070 0.219503
-0.534965 -0.197891 0.420045
-0.576974 -0.099938 -0.849666
-0.653024 -0.103371 -0.403982
-0.583105 -0.089907 -0.310444
-0.559428 -0.132843 0.110430
-0.594222 -0.041205 0.482320
-0.548443 0.097223 -0.847270
-0.641187 0.068549 -0.386292
-0.590665 0.018316 0.126289
-0.629020 0.058586 0.310924
-0.553173 0.073801 -0.278728
-0.589907 0.115350 0.510057
-0.568812 0.155719 0.179080
-0.548235 0.191783 -0.358062
-0.572672 0.183739 0.414917
-0.494222 0.230937 -0.791256
-0.617274 0.200453 -0.434349
-0.529657 -0.304100 -0.686614
-0.465308 -0.228796 -0.815766
-0.468143 -0.165277 0.057328
-0.508838 -0.116252 0.570189
-0.497575 -0.047995 0.033543
-0.437513 0.010125 -0.062944
-0.477975 0.119141 0.057326
-0.518843 0.041572 0.614917
-0.507959 0.168720 0.562520
-0.477160 0.279993 0.254787
-0.525032 0.290955 -0.672553
-0.449725 0.317245 -0.553706
-0.431804 -0.339175 -0.564705
-0.378828 -0.319344 0.311773
-0.420223 -0.282862 0.460797
-0.445681 -0.249416 0.144029
-0.392195 -0.208445 0.590638
-0.291210 0.239663 -0.072553
-0.462248 0.249756 0.159492
-0.373886 0.337538 0.381883
-0.303216 -0.314225 -0.681330
-0.334762 -0.332187 -0.562180
-0.255308 -0.317079 -0.365315
-0.255698 -0.288464 -0.117456
-0.379652 -0.172306 -0.060334
-0.401218 -0.045783 0.688882
-0.383075 0.131613 -0.042705
-0.386934 0.106712 0.691384
-0.264690 0.313481 -0.670392
-0.346264 0.327272 -0.427885
-0.348649 0.344392 0.272579
-0.274372 -0.331013 0.177941
-0.192710 -0.302268 -0.737009
-0.256330 -0.290255 0.036506
-0.289230 -0.317764 0.495967
-0.076184 -0.198735 0.766817
0.311586 -0.014258 -0.891963
0.378989 0.089294 -0.863047
-0.322539 0.265127 0.083501
-0.293515 0.279996 0.588307
0.291190 0.232807 -0.783843
-0.107398 0.298857 -0.733982
-0.233183 0.303471 -0.204606
-0.283147 0.319011 -0.550056
-0.244493 -0.298048 -0.442956
-0.199384 -0.324581 0.327586
-0.142051 -0.269584 -0.340738
-0.084598 0.035479 0.832883
-0.101847 0.192975 0.794059
-0.148340 0.324258 0.052242
-0.138758 0.230980 -0.469932
-0.256660 0.319158 -0.382777
-0.121193 0.308034 -0.203282
-0.245293 0.340395 0.215500
-0.283937 0.355372 0.382004
-0.181467 0.315869 0.303076
-0.141559 -0.321905 -0.071681
-0.130731 -0.327660 0.095364
-0.087694 -0.286515 0.422309
-0.035011 -0.297026 0.714437
-0.129582 -0.213328 -0.543458
-0.072549 0.198044 -0.579581
-0.088120 0.334819 -0.046522
-0.105098 0.302190 0.466487
-0.023615 0.298809 0.727328
0.029274 -0.311841 0.591063
-0.039682 -0.191472 0.345855
0.144390 -0.228319 -0.196244
-0.050111 -0.246975 0.215685
-0.075880 -0.128381 -0.488944
-0.047343 0.072451 -0.491053
0.094217 0.180483 -0.255579
-0.045924 0.221856 0.255968
-0.040231 0.192574 0.344028
-0.112066 0.315814 0.130760
0.086497 0.189626 0.493843
-0.002360 0.313632 0.626236
0.051998 0.334802 -0.047115
0.040170 -0.331993 -0.031271
0.051484 -0.319485 0.095169
0.211627 -0.295568 -0.718326
0.034909 -0.260105 -0.643790
0.068358 -0.214529 0.474948
-0.028931 -0.166275 -0.562235
0.027254 -0.060271 0.290148
0.099379 -0.096746 -0.289512
-0.007797 0.039487 -0.535878
0.032506 0.017616 0.334843
0.041332 0.083094 0.296553
0.411458 0.145969 0.860635
0.064713 0.259258 -0.643430
-0.011984 0.341818 0.020432
0.345803 -0.223010 -0.788663
0.048742 -0.189042 0.228461
0.203862 -0.194159 -0.544127
0.029216 -0.139663 -0.550385
0.118709 -0.066972 -0.508411
0.131618 -0.011885 0.357116
0.115416 -0.019274 0.412472
0.155239 0.032140 -0.269411
0.142164 0.051857 -0.495189
0.052971 0.257277 0.181428
0.048447 0.202610 -0.593231
0.212544 0.201947 0.329971
0.151122 0.336710 0.048939
0.305833 -0.325453 0.688138
0.294149 -0.284442 0.356677
0.207896 -0.214205 0.473502
0.402403 -0.133340 0.865375
0.325045 -0.106776 -0.872123
0.182516 0.147468 0.439889
0.198264 0.185855 -0.541277
0.209974 0.287037 -0.719582
0.425660 0.231260 0.806898
0.292538 -0.293283 -0.677961
0.276715 -0.315865 -0.024927
0.278465 -0.335848 0.130243
0.358341 -0.282557 -0.113360
0.448523 -0.245693 0.783994
0.250286 -0.081837 -0.251216
0.301407 -0.002976 -0.426973
0.269627 0.073037 -0.258468
0.305880 0.281650 0.412785
0.187495 0.254011 0.538848
0.333124 0.302325 -0.055287
0.291293 0.321535 0.593758
0.291936 0.281939 -0.668010
0.345771 0.320830 0.092231
0.350600 -0.333652 0.590953
0.411013 -0.294371 -0.559922
0.335565 -0.195116 -0.235358
0.352639 -0.224458 -0.491832
0.340079 -0.076449 -0.419117
0.492095 0.003609 0.861232
0.355810 0.154242 -0.434938
0.332001 0.199631 -0.232769
0.394605 0.271251 -0.535643
0.294960 0.309759 0.227912
0.344790 0.322868 0.675902
0.363078 -0.316839 0.075609
0.429390 -0.317819 0.264445
0.427902 -0.335327 0.580793
0.466588 -0.285025 -0.676376
0.438010 -0.277320 -0.025162
0.416462 -0.227132 -0.398741
0.437495 -0.268333 -0.199955
0.493696 -0.232921 0.058820
0.435572 -0.097213 -0.846862
0.349129 -0.000155 -0.352955
0.416097 0.215968 -0.363673
0.498381 0.183518 -0.780643
0.428544 0.260666 -0.210779
0.451263 0.268663 0.004163
0.427138 0.287674 -0.661004
0.434608 0.312354 0.276534
0.418386 0.332019 0.547524
0.554096 -0.272073 0.645455
0.504084 -0.307857 -0.467175
0.519006 -0.180870 -0.779421
0.593031 -0.280096 -0.300501
0.522886 -0.107185 -0.812675
0.529098 0.017765 -0.823318
0.559686 0.138706 0.050344
0.514410 0.238199 0.129411
0.523914 0.293717 -0.227216
0.518917 0.275486 -0.120843
0.506937 0.320003 -0.562573
0.552126 0.264399 0.678297
0.601494 -0.294477 -0.551398
0.513891 -0.316432 0.379469
0.525731 -0.270564 -0.123226
0.627839 -0.202067 0.277980
0.558968 -0.168336 0.807064
0.569593 -0.062298 0.032352
0.608448 -0.049179 0.820644
0.599362 0.076222 0.820646
0.566262 0.164401 0.805025
0.562102 0.307038 -0.459381
0.632508 0.196502 0.290904
0.528146 0.309585 0.413350
0.632645 -0.223291 -0.701616
0.789627 -0.210651 -0.429766
0.634311 -0.174658 -0.063411
0.567742 -0.149047 -0.006014
0.652016 -0.168134 0.695989
0.673481 -0.065540 0.185970
0.594757 0.026788 0.002487
0.643786 -0.090568 -0.761868
0.658474 0.077794 -0.764389
0.561743 0.191230 -0.022446
0.665486 0.110694 0.199068
0.647325 0.163628 0.700370
0.567366 0.298050 -0.607798
0.718740 0.255104 -0.365251
0.598433 0.287570 -0.204200
0.704341 -0.200779 -0.167538
0.725197 -0.199217 -0.660327
0.760578 -0.221229 -0.296214
0.777062 -0.190505 -0.581637
0.709793 -0.096339 0.272578
0.655828 -0.092100 0.782659
0.692669 -0.028934 0.709050
0.654714 -0.028198 -0.030056
0.711827 0.040411 0.272913
0.643069 0.067052 0.789459
0.639740 0.162772 -0.072702
0.753059 0.135012 -0.676609
0.669473 0.198372 -0.702171
0.729094 0.174942 -0.186888
0.721685 0.228674 -0.579835
0.812380 -0.143349 -0.304343
0.741577 -0.020555 -0.121695
0.762899 -0.010305 -0.685347
0.813518 0.070033 -0.590466
0.827649 0.031690 -0.291790
0.803264 0.163137 -0.332022
0.813464 0.167497 -0.456193
0.835773 -0.137062 -0.498614
0.852803 -0.090388 -0.417503
0.858355 0.053018 -0.484765
0.854948 0.083555 -0.411587
3 2 0 11
3 0 2 3
3 0 3 1
3 1 3 12
3 16 2 11
3 12 3 17
3 3 2 4
3 3 4 17
3 5 2 16
3 2 5 4
3 6 0 1
3 1 8 6
3 7 11 0
3 12 8 1
3 8 12 13
3 10 9 15
3 13 12 17
3 14 18 9
3 9 18 19
3 9 19 15
3 13 17 20
3 15 19 21
3 19 18 22
3 5 16 25
3 17 23 20
3 19 22 24
3 19 24 21
3 4 26 17
3 17 26 23
3 28 7 27
3 27 7 0
3 6 27 0
3 6 8 39
3 29 14 42
3 42 14 9
3 28 11 7
3 10 30 41
3 29 31 14
3 15 30 10
3 14 31 18
3 30 15 34
3 20 32 13
3 31 33 18
3 21 34 15
3 18 33 22
3 35 34 21
3 33 45 22
3 24 22 36
3 24 35 21
3 36 22 45
3 25 37 5
3 4 5 37
3 38 4 37
3 4 38 26
3 27 6 39
3 39 8 50
3 10 40 9
3 10 41 40
3 43 41 30
3 30 52 43
3 52 30 34
3 32 33 31
3 23 44 20
3 20 44 53
3 26 38 23
3 24 36 46
3 24 46 35
3 27 39 47
3 39 48 47
3 47 28 27
3 47 59 28
3 49 48 39
3 49 39 50
3 40 42 9
3 40 58 42
3 58 60 42
3 50 8 51
3 29 60 51
3 60 29 42
3 13 51 8
3 51 31 29
3 63 16 11
3 32 51 13
3 51 32 31
3 20 53 32
3 54 52 34
3 53 33 32
3 54 34 35
3 65 33 53
3 45 33 65
3 54 35 66
3 66 35 46
3 37 25 55
3 25 68 55
3 38 56 23
3 23 56 69
3 65 57 45
3 57 36 45
3 46 36 57
3 55 38 37
3 55 70 38
3 38 70 56
3 41 61 40
3 48 49 71
3 61 41 43
3 61 43 62
3 43 52 62
3 65 53 44
3 66 75 54
3 44 76 65
3 67 68 25
3 23 69 44
3 70 78 56
3 56 78 69
3 65 80 57
3 46 81 66
3 80 81 57
3 57 81 46
3 40 72 58
3 40 61 72
3 73 71 49
3 58 84 60
3 58 72 84
3 60 50 51
3 74 62 52
3 64 16 63
3 54 74 52
3 55 88 70
3 88 77 70
3 77 78 70
3 89 44 69
3 89 76 44
3 76 80 65
3 81 82 90
3 81 80 82
3 73 49 83
3 50 83 49
3 50 60 83
3 84 83 60
3 85 72 92
3 72 61 92
3 86 92 61
3 47 48 87
3 93 72 85
3 87 48 71
3 61 62 86
3 73 87 71
3 54 75 74
3 77 79 78
3 66 91 75
3 101 99 82
3 80 101 82
3 78 79 69
3 79 89 69
3 76 101 80
3 90 103 81
3 81 103 66
3 66 103 91
3 83 105 73
3 107 59 108
3 59 47 108
3 87 108 47
3 72 95 84
3 87 110 108
3 72 93 95
3 73 96 87
3 73 94 96
3 96 110 87
3 113 110 96
3 97 113 96
3 88 113 97
3 77 88 97
3 77 97 98
3 88 55 117
3 98 79 77
3 100 82 99
3 100 90 82
3 68 117 55
3 76 118 101
3 104 89 79
3 89 118 76
3 106 105 84
3 105 83 84
3 73 105 94
3 106 84 95
3 92 109 85
3 59 119 28
3 119 59 107
3 120 106 95
3 85 109 93
3 96 94 112
3 95 111 120
3 93 111 95
3 122 110 113
3 93 114 111
3 112 126 97
3 96 112 97
3 111 114 115
3 114 100 115
3 99 128 115
3 115 100 99
3 113 88 129
3 67 25 16
3 129 88 117
3 98 104 79
3 101 118 128
3 128 99 101
3 100 102 90
3 102 103 90
3 118 89 104
3 86 62 132
3 121 108 110
3 110 122 121
3 123 121 122
3 120 111 124
3 125 93 109
3 125 114 93
3 135 62 74
3 136 63 11
3 123 113 127
3 122 113 123
3 111 115 124
3 114 102 100
3 114 125 102
3 98 97 126
3 138 127 113
3 138 113 129
3 130 115 128
3 115 130 124
3 68 67 139
3 139 117 68
3 131 128 118
3 140 75 91
3 118 104 131
3 107 108 141
3 142 94 105
3 106 143 105
3 86 132 92
3 108 121 141
3 143 106 133
3 134 109 92
3 62 145 132
3 106 120 133
3 146 112 94
3 136 11 28
3 124 133 120
3 133 124 134
3 134 124 125
3 134 125 109
3 112 146 126
3 147 123 127
3 137 125 124
3 125 137 102
3 147 127 138
3 148 98 126
3 137 124 130
3 102 137 150
3 102 150 103
3 117 153 138
3 117 138 129
3 139 153 117
3 143 142 105
3 94 142 144
3 134 92 155
3 92 132 155
3 156 141 121
3 156 121 158
3 157 94 144
3 119 136 28
3 121 159 158
3 157 146 94
3 145 62 135
3 159 121 147
3 147 121 123
3 146 148 126
3 160 74 116
3 161 147 138
3 64 67 16
3 148 162 98
3 137 130 149
3 137 149 150
3 116 74 75
3 104 98 162
3 149 152 150
3 162 151 104
3 131 164 128
3 128 164 130
3 131 154 164
3 152 103 150
3 152 165 103
3 165 91 103
3 151 131 104
3 154 131 151
3 142 143 166
3 166 143 167
3 141 119 107
3 134 155 133
3 175 146 157
3 148 146 175
3 160 135 74
3 159 147 175
3 147 161 175
3 175 162 148
3 163 161 138
3 140 116 75
3 139 67 153
3 138 153 163
3 130 164 149
3 164 154 181
3 140 91 165
3 132 168 155
3 142 170 144
3 166 170 142
3 133 167 143
3 168 167 133
3 155 168 133
3 119 141 169
3 141 156 169
3 156 158 171
3 157 144 172
3 173 170 166
3 166 167 173
3 145 168 132
3 185 119 169
3 119 174 136
3 174 119 185
3 172 171 157
3 159 171 158
3 171 159 175
3 175 157 171
3 174 63 136
3 174 64 63
3 175 161 176
3 162 175 176
3 177 67 64
3 163 176 161
3 162 176 178
3 67 180 153
3 67 177 180
3 193 163 180
3 178 151 162
3 178 192 151
3 179 151 192
3 179 190 154
3 179 154 151
3 190 181 154
3 180 163 153
3 181 182 149
3 181 149 164
3 152 149 182
3 165 182 194
3 194 140 165
3 182 165 152
3 167 168 196
3 196 168 183
3 184 156 171
3 186 172 197
3 172 144 197
3 197 144 170
3 183 168 145
3 186 184 171
3 172 186 171
3 183 145 199
3 145 135 199
3 187 174 185
3 199 135 160
3 188 174 187
3 64 174 188
3 160 116 203
3 188 177 64
3 189 190 179
3 203 116 140
3 178 176 191
3 163 193 204
3 163 204 176
3 204 191 176
3 191 192 178
3 182 181 206
3 156 195 169
3 184 195 156
3 195 184 186
3 195 207 169
3 167 198 173
3 196 198 167
3 207 185 169
3 170 209 197
3 209 170 210
3 170 173 210
3 173 200 210
3 173 212 200
3 173 198 212
3 213 210 200
3 199 160 201
3 214 188 187
3 214 215 188
3 201 160 202
3 189 213 200
3 216 213 189
3 160 203 202
3 215 177 188
3 192 216 179
3 216 189 179
3 219 180 177
3 203 140 194
3 191 221 192
3 190 205 181
3 205 206 181
3 205 194 206
3 219 193 180
3 219 204 193
3 204 221 191
3 182 206 194
3 186 208 195
3 222 186 197
3 207 195 223
3 222 197 209
3 196 183 198
3 183 211 198
3 183 199 211
3 207 214 185
3 211 199 227
3 214 187 185
3 227 199 201
3 209 210 229
3 229 210 213
3 200 212 189
3 227 201 231
3 231 201 202
3 212 217 189
3 229 213 232
3 232 213 216
3 215 234 177
3 189 217 190
3 217 205 190
3 231 202 203
3 216 192 232
3 231 203 218
3 219 177 234
3 221 232 192
3 205 218 194
3 203 194 218
3 221 204 220
3 186 224 208
3 222 224 186
3 195 225 223
3 208 225 195
3 214 207 223
3 212 198 226
3 198 211 226
3 238 222 209
3 211 228 226
3 211 227 228
3 229 238 209
3 226 230 212
3 226 228 230
3 227 231 228
3 212 230 217
3 232 238 229
3 228 218 230
3 228 231 218
3 235 238 232
3 217 230 205
3 230 218 205
3 234 215 233
3 234 233 236
3 235 221 220
3 221 235 232
3 236 219 234
3 204 219 236
3 220 204 236
3 225 208 244
3 237 208 224
3 224 222 237
3 222 238 237
3 239 214 223
3 223 225 239
3 225 240 239
3 225 244 240
3 237 238 241
3 215 214 239
3 233 215 239
3 239 240 233
3 241 235 242
3 241 238 235
3 240 236 233
3 240 243 236
3 243 242 220
3 235 220 242
3 220 236 243
3 245 244 208
3 208 237 245
3 237 241 245
3 246 240 244
3 244 245 246
3 245 247 246
3 245 241 247
3 242 247 241
3 243 240 246
3 246 247 243
3 242 243 247
