ply
format ascii 1.0
element vertex 252
property float x
property float y
property float z
element face 500
property list uchar int vertex_indices
end_header
-0.644693 -0.156477 0.175314
-0.675073 -0.109528 0.143120
-0.690324 -0.038397 0.191558
-0.681993 0.035190 0.120467
-0.642680 0.135459 0.182047
-0.585890 -0.206729 0.119854
-0.554395 -0.166671 -0.022388
-0.636841 -0.003538 0.025838
-0.630500 -0.023911 0.231127
-0.611666 0.000920 -0.039775
-0.597417 0.136673 0.225582
-0.564460 0.180421 -0.027011
-0.609446 0.176327 0.056879
-0.529645 0.241371 0.093328
-0.495167 -0.255662 0.100678
-0.472373 -0.220850 0.188988
-0.493001 -0.145418 -0.338564
-0.507626 -0.198826 -0.131482
-0.536800 -0.029017 -0.359205
-0.566667 -0.010554 -0.140869
-0.500650 -0.023523 -0.425483
-0.535921 0.041127 -0.344867
-0.516206 0.193822 -0.141070
-0.483778 0.125532 -0.392028
-0.567140 0.214720 0.180084
-0.456544 -0.249339 -0.029257
-0.427613 -0.228169 -0.298076
-0.417461 -0.180657 -0.429549
-0.414311 -0.071073 -0.507930
-0.426362 0.056432 -0.495120
-0.409637 0.187677 -0.425081
-0.425369 0.230773 -0.293203
-0.466798 0.249336 -0.039402
-0.395909 -0.266102 0.115475
-0.358300 -0.148499 0.318710
-0.424325 -0.059216 0.289539
-0.327481 -0.103905 0.437214
-0.422823 0.066996 0.285870
-0.375285 0.007560 0.336430
-0.309553 0.057141 0.467838
-0.345066 0.128704 -0.481437
-0.380203 0.224064 0.208902
-0.334854 0.176141 0.293358
-0.338063 0.237244 0.015261
-0.351845 0.252845 0.104945
-0.355204 -0.192539 -0.389762
-0.328277 -0.234217 0.017434
-0.303743 -0.235331 0.218848
-0.299702 -0.167231 -0.258560
-0.229657 -0.215413 0.426190
-0.367078 -0.137266 -0.492939
-0.240607 -0.162036 0.555719
-0.304452 -0.056837 -0.501842
-0.305382 -0.088984 0.510590
-0.346162 -0.011736 -0.529066
-0.274636 -0.022237 -0.413460
-0.229657 -0.102950 0.032449
-0.292261 0.039290 -0.499956
-0.297765 0.115815 -0.441252
-0.237848 0.105319 0.016678
-0.364951 0.209763 -0.363954
-0.253149 0.215189 0.421848
-0.253849 0.181019 0.522775
-0.260260 0.207886 0.140560
-0.302050 0.236027 0.229128
-0.207311 -0.179249 0.189221
-0.142768 0.082997 0.200590
-0.203222 -0.221460 0.297560
-0.145699 -0.224136 0.414380
-0.135356 -0.145139 0.299964
-0.110028 -0.183958 -0.810469
-0.155782 -0.105456 -0.799667
-0.089801 -0.219039 -0.489082
-0.081629 -0.185692 0.451697
-0.138360 -0.101890 -0.422719
-0.160959 0.028284 -0.805987
-0.135852 -0.000494 -0.357444
-0.147325 -0.037001 0.187948
-0.170559 0.003842 -0.418299
-0.134461 0.133633 -0.419832
-0.104277 0.191304 -0.765541
-0.135530 0.146048 0.272819
-0.069840 0.151900 0.417056
-0.191936 0.221831 0.327270
-0.041500 -0.251256 -0.727198
-0.017578 -0.292006 -0.512142
-0.044925 -0.201054 -0.833517
-0.060406 -0.198837 0.711168
-0.022254 -0.191521 -0.346126
-0.014663 -0.159743 0.803184
-0.118170 -0.112278 0.756155
-0.082695 -0.064679 0.829805
-0.107268 -0.058479 -0.877498
-0.052943 -0.084832 -0.301864
-0.049997 -0.006157 0.406608
-0.097357 0.039385 0.288485
-0.047255 0.066687 -0.302636
-0.124940 0.075727 0.766185
-0.075620 0.079917 0.841057
-0.116257 0.079944 -0.877182
-0.114243 0.204876 -0.438098
-0.037217 0.207505 -0.365129
-0.044499 0.179434 0.751526
-0.050050 0.196901 -0.833181
-0.045262 0.220126 0.570411
-0.031486 0.253384 -0.752876
-0.030178 0.282774 -0.520289
0.019945 -0.292964 -0.461310
-0.046706 -0.223951 0.577926
0.051522 -0.063926 0.593715
-0.018744 -0.035691 0.866514
0.006980 0.067610 -0.861044
0.046420 0.090187 0.586849
-0.013946 0.103548 0.856789
0.014034 0.196209 0.598281
0.083968 0.232757 -0.311340
0.018266 0.222033 -0.787121
0.062388 -0.277472 -0.592755
0.140856 -0.291686 -0.459431
0.015349 -0.223794 -0.789102
0.041191 -0.184099 0.701007
0.110256 -0.179693 -0.730282
0.155564 -0.199512 -0.646661
0.005909 -0.195609 0.601033
0.082392 -0.168508 -0.225331
0.114251 -0.161221 0.728582
0.031347 -0.113645 -0.846005
0.023727 -0.064684 -0.252578
0.135057 -0.138284 0.035903
0.229390 -0.125227 0.858879
0.113606 -0.076887 0.026597
0.125128 -0.018626 0.667853
0.082915 -0.023770 -0.160601
0.036808 0.134990 -0.269740
0.091865 0.124625 -0.214029
0.146914 0.113015 -0.006319
0.044221 0.180062 0.673464
0.255850 0.126084 0.853304
0.070898 0.203887 0.764344
0.089164 0.198141 0.803527
0.106229 0.165617 -0.728144
0.140185 0.203021 -0.645297
0.056790 0.280781 -0.591677
0.031920 0.295559 -0.457490
0.158337 0.280953 -0.417622
0.116227 -0.280569 -0.370691
0.239247 -0.225824 -0.522859
0.195735 -0.246970 -0.213548
0.203209 -0.205185 0.004240
0.147252 -0.184907 0.769116
0.185217 -0.159916 0.145207
0.187288 -0.041160 -0.682897
0.142600 -0.033886 0.153054
0.168194 -0.123819 0.642277
0.131731 -0.036809 -0.770210
0.154406 -0.035505 0.652313
0.263204 0.006106 0.876698
0.173773 0.079076 0.640666
0.184976 0.126897 -0.651725
0.185795 0.146098 0.104951
0.125383 0.143506 0.704506
0.209939 0.146932 0.212463
0.175251 0.242838 -0.220326
0.258749 0.199038 0.721877
0.211160 0.221205 -0.009306
0.227344 0.214066 -0.511952
0.291050 -0.214895 0.377099
0.288573 -0.220705 0.643097
0.291937 -0.171716 0.795062
0.269690 -0.193948 0.156881
0.321535 -0.121890 -0.535091
0.306604 0.086650 -0.538274
0.264443 0.125072 -0.555296
0.251378 0.180872 0.152836
0.309543 0.215889 0.346246
0.292118 0.215020 0.574920
0.351438 -0.220959 -0.431837
0.262461 -0.261441 -0.316449
0.283226 -0.202639 -0.143449
0.371324 -0.192126 -0.306837
0.343639 -0.204268 0.669118
0.352070 -0.132506 0.191873
0.338007 -0.197160 0.307145
0.371270 -0.123461 0.753246
0.333909 -0.060526 0.838713
0.361528 -0.003214 -0.155413
0.373984 -0.049827 0.183388
0.361391 0.168981 -0.246394
0.354460 0.116290 0.175472
0.333670 0.088713 0.829966
0.354830 0.160735 0.744214
0.250069 0.236345 -0.062828
0.347760 0.183231 0.289598
0.291924 0.169518 0.805226
0.286385 0.253481 -0.315332
0.339960 0.208479 0.663404
0.357986 0.225589 -0.428378
0.349637 -0.211795 0.504713
0.431012 -0.187664 -0.502919
0.391188 -0.142865 0.368047
0.381933 -0.066677 -0.245280
0.403963 -0.098146 0.633253
0.361260 0.020415 -0.537485
0.410082 -0.015009 0.343480
0.393254 0.012554 0.756699
0.405389 0.061462 -0.266701
0.392189 0.135302 0.341461
0.402003 0.109671 0.630660
0.440889 0.177503 -0.502238
0.381431 0.231222 -0.371041
0.348927 0.211369 0.424125
0.554408 -0.236851 -0.558199
0.533449 -0.206916 -0.644188
0.472916 -0.169925 -0.588971
0.505589 -0.017264 -0.330275
0.491547 -0.054397 -0.670911
0.414076 -0.007921 -0.566700
0.531778 0.183963 -0.645689
0.492597 0.204714 -0.560050
0.489631 0.186886 -0.398305
0.541840 0.231200 -0.536483
0.495885 -0.182126 -0.406789
0.586279 -0.175043 -0.722405
0.574361 0.086086 -0.763738
0.602293 0.196168 -0.728235
0.629253 -0.246304 -0.655139
0.608787 -0.192361 -0.470637
0.576427 -0.044598 -0.779635
0.584025 -0.048290 -0.373283
0.596167 0.115616 -0.395174
0.602350 0.199218 -0.453043
0.629050 0.240400 -0.651478
0.638492 0.247878 -0.573871
0.636430 -0.254617 -0.586541
0.720523 -0.202672 -0.760519
0.768360 -0.134359 -0.833056
0.638670 -0.051416 -0.809988
0.842909 -0.095340 -0.662469
0.857975 0.007344 -0.640433
0.654506 0.135047 -0.798471
0.750870 0.158101 -0.819468
0.834834 0.123024 -0.685161
0.709699 0.211513 -0.752872
0.739291 0.220672 -0.665546
0.750296 -0.214507 -0.676424
0.808928 -0.166193 -0.788726
0.730447 0.032839 -0.852956
0.835349 -0.095029 -0.846937
0.875174 -0.019774 -0.792751
0.821623 0.035434 -0.855399
0.862350 0.095417 -0.811342
0.807201 0.170476 -0.786184
3 0 1 2
3 0 2 8
3 1 3 2
3 2 3 4
3 8 4 10
3 2 4 8
3 5 1 0
3 5 6 7
3 7 1 5
3 15 0 8
3 9 6 19
3 6 9 7
3 1 7 3
3 11 9 19
3 9 11 7
3 7 11 12
3 7 12 3
3 4 3 12
3 13 4 12
3 4 13 24
3 10 4 24
3 6 5 14
3 14 5 15
3 15 5 0
3 18 16 20
3 16 18 19
3 16 19 17
3 6 17 19
3 18 20 21
3 18 21 19
3 23 21 20
3 19 21 22
3 19 22 11
3 21 23 22
3 13 12 11
3 25 14 33
3 26 17 25
3 25 17 6
3 25 6 14
3 33 14 15
3 27 16 26
3 26 16 17
3 20 27 28
3 16 27 20
3 35 15 8
3 28 29 20
3 35 8 37
3 37 8 10
3 29 23 20
3 30 23 29
3 37 10 41
3 22 23 31
3 31 23 30
3 22 31 32
3 22 32 11
3 41 10 24
3 11 32 13
3 13 44 41
3 24 13 41
3 32 44 13
3 45 26 46
3 26 25 46
3 46 25 33
3 33 15 47
3 27 45 50
3 45 27 26
3 47 15 34
3 50 28 27
3 54 28 50
3 35 34 15
3 54 29 28
3 34 35 38
3 34 38 36
3 36 38 39
3 36 39 53
3 35 37 38
3 29 54 40
3 29 40 30
3 41 42 37
3 37 42 38
3 60 30 40
3 31 30 60
3 60 43 31
3 31 43 32
3 44 32 43
3 46 48 45
3 47 46 33
3 65 46 47
3 47 34 49
3 49 34 36
3 49 36 51
3 50 45 52
3 65 56 46
3 51 36 53
3 54 50 52
3 45 55 52
3 45 48 55
3 48 56 55
3 48 46 56
3 57 54 52
3 52 55 57
3 40 54 57
3 55 58 57
3 57 58 40
3 55 59 58
3 42 39 38
3 40 58 60
3 58 59 60
3 59 43 60
3 59 63 43
3 42 61 39
3 39 61 62
3 41 64 42
3 42 64 61
3 44 43 63
3 64 44 63
3 64 41 44
3 47 49 67
3 67 49 68
3 47 67 65
3 56 59 55
3 56 77 59
3 77 66 59
3 59 66 63
3 63 83 64
3 64 83 61
3 70 71 72
3 67 69 65
3 67 68 69
3 68 73 69
3 72 71 74
3 92 71 70
3 69 77 65
3 75 71 92
3 71 75 74
3 77 56 65
3 74 75 78
3 74 78 76
3 90 39 97
3 53 39 90
3 99 75 92
3 78 75 79
3 78 79 76
3 80 75 99
3 75 80 79
3 66 81 63
3 39 62 97
3 80 100 79
3 63 81 83
3 81 82 83
3 104 83 82
3 104 61 83
3 86 70 84
3 84 70 72
3 84 72 85
3 107 85 72
3 107 72 88
3 68 49 108
3 87 108 49
3 68 108 73
3 87 49 51
3 74 88 72
3 88 74 93
3 90 87 51
3 53 90 51
3 87 90 89
3 89 90 91
3 86 92 70
3 89 91 110
3 74 76 93
3 73 94 69
3 69 95 77
3 69 94 95
3 96 93 76
3 90 97 91
3 91 97 98
3 91 98 110
3 111 99 92
3 77 95 66
3 110 98 113
3 76 79 96
3 81 66 95
3 94 82 95
3 103 80 99
3 95 82 81
3 100 101 79
3 79 101 96
3 98 97 102
3 98 102 113
3 104 82 114
3 62 61 102
3 62 102 97
3 105 80 103
3 80 105 106
3 80 106 100
3 101 100 106
3 61 104 102
3 117 85 107
3 85 117 84
3 86 84 119
3 84 117 119
3 73 108 123
3 123 108 120
3 108 87 120
3 120 87 89
3 119 126 86
3 127 88 93
3 126 92 86
3 73 123 109
3 129 89 110
3 94 73 109
3 126 111 92
3 127 93 96
3 127 96 133
3 112 94 109
3 82 94 112
3 111 103 99
3 112 114 82
3 111 116 103
3 133 96 101
3 137 113 139
3 139 113 102
3 115 133 101
3 114 136 104
3 102 104 136
3 138 102 136
3 102 138 139
3 103 116 105
3 101 143 115
3 142 105 116
3 142 106 105
3 106 143 101
3 142 143 106
3 107 118 117
3 118 107 145
3 88 145 107
3 117 121 119
3 117 122 121
3 88 124 145
3 119 121 126
3 120 149 125
3 120 89 149
3 127 124 88
3 149 89 129
3 124 130 128
3 123 120 109
3 125 131 120
3 120 131 109
3 156 129 110
3 132 124 127
3 124 132 130
3 134 132 127
3 133 134 127
3 132 134 135
3 132 135 130
3 109 131 112
3 131 136 112
3 131 160 136
3 112 136 114
3 111 140 116
3 134 133 115
3 160 138 136
3 116 140 142
3 140 141 142
3 143 144 115
3 144 143 142
3 118 146 117
3 117 146 122
3 145 124 147
3 147 128 148
3 148 128 150
3 128 147 124
3 149 153 125
3 168 149 129
3 122 151 121
3 152 150 128
3 130 152 128
3 153 131 125
3 154 126 121
3 121 151 154
3 150 152 153
3 153 152 155
3 153 155 131
3 111 126 154
3 135 152 130
3 155 152 157
3 155 157 131
3 140 111 154
3 154 151 140
3 151 158 140
3 159 152 135
3 131 157 160
3 156 110 113
3 152 159 161
3 152 161 157
3 156 113 137
3 158 141 140
3 158 172 141
3 134 115 162
3 135 134 162
3 160 157 163
3 160 163 138
3 162 164 135
3 135 164 159
3 163 139 138
3 141 165 142
3 165 144 142
3 144 162 115
3 118 176 146
3 176 118 177
3 118 145 177
3 177 145 147
3 177 147 178
3 147 148 178
3 148 150 169
3 148 169 178
3 166 153 167
3 149 168 167
3 146 170 122
3 169 150 166
3 166 150 153
3 149 167 153
3 151 122 170
3 171 151 170
3 158 151 171
3 172 158 171
3 172 165 141
3 161 159 173
3 161 173 174
3 157 161 175
3 164 191 173
3 164 173 159
3 161 174 175
3 163 157 175
3 163 193 139
3 137 139 193
3 162 194 191
3 162 191 164
3 196 144 165
3 196 194 144
3 162 144 194
3 178 179 177
3 182 166 197
3 166 167 197
3 180 197 167
3 169 181 178
3 182 169 166
3 180 167 168
3 183 180 168
3 146 176 170
3 200 179 178
3 182 181 169
3 168 184 183
3 168 129 184
3 185 200 178
3 178 181 185
3 181 186 185
3 129 156 184
3 202 171 170
3 184 156 189
3 187 185 188
3 189 156 137
3 165 172 171
3 188 192 173
3 189 193 190
3 189 137 193
3 165 171 196
3 187 188 191
3 173 191 188
3 174 173 192
3 174 192 210
3 163 175 195
3 163 195 190
3 193 163 190
3 196 209 194
3 209 187 194
3 191 194 187
3 174 210 175
3 210 195 175
3 179 176 177
3 182 197 199
3 198 170 176
3 214 179 200
3 182 199 181
3 197 201 199
3 197 180 201
3 180 183 201
3 199 203 181
3 198 216 170
3 216 202 170
3 181 203 186
3 204 201 183
3 184 204 183
3 200 185 205
3 207 201 204
3 185 186 188
3 186 203 188
3 203 206 188
3 184 189 204
3 216 208 202
3 208 171 202
3 187 205 185
3 190 207 204
3 190 204 189
3 192 188 206
3 171 208 196
3 219 205 187
3 219 187 209
3 190 195 207
3 210 192 206
3 206 207 210
3 207 195 210
3 212 213 211
3 211 213 198
3 221 211 198
3 221 198 176
3 179 221 176
3 179 214 221
3 212 215 213
3 213 215 216
3 198 213 216
3 199 201 203
3 200 205 214
3 201 207 203
3 203 207 206
3 215 217 216
3 216 217 218
3 216 218 208
3 205 219 214
3 218 220 208
3 220 219 208
3 208 219 196
3 219 209 196
3 222 212 225
3 225 212 211
3 221 226 211
3 215 222 227
3 212 222 215
3 226 221 228
3 228 221 214
3 223 215 227
3 217 215 223
3 228 214 229
3 229 214 219
3 223 224 217
3 219 220 230
3 229 219 230
3 224 231 217
3 220 217 231
3 220 218 217
3 225 234 222
3 225 211 233
3 233 211 226
3 234 236 222
3 236 227 222
3 236 223 227
3 236 239 223
3 239 224 223
3 242 224 239
3 224 242 231
3 232 220 231
3 232 230 220
3 234 225 244
3 244 233 226
3 244 225 233
3 234 235 236
3 237 244 226
3 226 228 237
3 246 236 235
3 237 228 238
3 239 236 246
3 228 229 238
3 240 239 246
3 238 229 241
3 229 230 241
3 239 240 242
3 242 243 231
3 243 232 231
3 244 245 234
3 235 234 245
3 245 247 235
3 247 249 235
3 249 246 235
3 249 240 246
3 249 251 240
3 230 243 241
3 240 251 242
3 242 251 243
3 243 230 232
3 245 244 237
3 248 247 245
3 245 237 248
3 249 247 248
3 237 238 248
3 250 249 248
3 248 241 250
3 248 238 241
3 251 249 250
3 241 251 250
3 241 243 251
