ply
format ascii 1.0
element vertex 250
property float x
property float y
property float z
element face 500
property list uchar int vertex_indices
end_header
-0.512578 -0.125818 -0.634859
-0.460846 -0.156651 -0.433167
-0.497120 -0.132833 0.307268
-0.488074 -0.146662 0.568048
-0.512034 -0.046788 0.530135
-0.517078 0.016248 -0.683657
-0.527401 0.009937 -0.478338
-0.510014 -0.043989 0.178973
-0.527864 0.024099 0.305276
-0.497974 0.129828 0.268169
-0.477715 0.133402 0.563885
-0.476988 0.155625 -0.625936
-0.492104 0.129169 -0.409395
-0.438221 -0.217232 -0.650809
-0.428752 -0.235741 0.537681
-0.449407 -0.142765 0.111832
-0.445494 -0.088286 -0.762682
-0.396544 -0.144342 -0.324694
-0.411762 -0.065882 -0.017581
-0.473130 -0.005383 0.082831
-0.455950 -0.111128 0.676237
-0.406880 -0.124145 0.754878
-0.422518 -0.001448 0.748258
-0.446436 0.026707 -0.321646
-0.449046 0.092371 -0.759416
-0.363427 0.123066 -0.009556
-0.441169 0.161554 0.119595
-0.437241 0.121119 0.695403
-0.426876 0.158007 -0.339145
-0.393880 0.144099 0.738770
-0.435779 0.233557 0.518737
-0.419096 0.236193 -0.466092
-0.424012 0.239579 0.290981
-0.303299 -0.295703 -0.615842
-0.317520 -0.286354 -0.522368
-0.347896 -0.242587 0.162382
-0.428254 -0.240436 0.320671
-0.352073 -0.274444 0.517507
-0.293246 -0.230760 -0.353774
-0.372819 -0.206311 0.711082
-0.330195 -0.197598 -0.738114
-0.351552 -0.170695 -0.009260
-0.329381 0.192760 -0.736125
-0.383102 0.225994 0.673714
-0.351075 0.221582 -0.359447
-0.358104 0.233384 0.118216
-0.327318 0.286034 -0.601125
-0.332437 0.259302 0.294816
-0.313626 0.270826 0.624424
-0.301099 0.285732 -0.497500
-0.251586 -0.244876 0.044607
-0.230833 -0.228590 0.228182
-0.353525 -0.093301 -0.799224
-0.282050 -0.193035 -0.270348
-0.305129 -0.059389 -0.132018
-0.289764 -0.102668 0.835099
-0.359719 0.059852 -0.799411
-0.337692 0.026983 0.813409
-0.245646 0.157473 -0.143305
-0.294056 0.152110 -0.238335
-0.261621 0.230841 0.763174
-0.263514 0.245478 0.044395
-0.258140 0.242027 0.507229
-0.269465 -0.254368 0.533387
-0.284644 -0.266230 0.661950
-0.181813 -0.252865 -0.459790
-0.213090 -0.240384 0.764500
-0.206900 -0.216515 -0.228821
-0.205927 -0.242178 -0.054510
-0.180194 -0.124176 0.334871
-0.168871 -0.168280 0.536007
-0.300547 -0.043633 -0.188433
-0.107990 0.055436 0.913983
-0.189001 0.224587 -0.220097
-0.230919 0.204045 0.303503
-0.188332 0.162953 0.492612
-0.187244 0.248015 -0.044659
-0.218930 0.234122 -0.334228
-0.245784 0.245284 0.146827
-0.158292 0.242610 -0.459447
-0.194119 0.260506 0.663322
-0.176778 -0.297315 -0.580215
-0.094987 -0.276980 -0.645840
-0.196888 -0.252876 0.660369
0.260859 -0.178885 -0.732770
-0.157877 -0.216915 -0.337779
-0.118942 -0.286946 -0.121949
-0.083774 -0.131196 -0.433755
-0.129821 -0.217510 0.059952
-0.132872 -0.137300 0.179290
-0.053713 -0.190168 0.649496
-0.068266 -0.129415 0.917485
0.257022 -0.094686 -0.801840
-0.146605 -0.004875 0.478240
-0.110458 -0.025552 0.195318
0.291417 0.006541 -0.808547
-0.163255 0.057016 0.316423
0.272980 0.158461 -0.786249
-0.093370 0.154288 -0.423869
-0.120197 0.153750 0.143211
-0.057717 0.152852 0.642438
-0.184063 0.286165 -0.675536
-0.146311 0.216835 -0.363643
-0.199010 0.277008 0.726579
-0.128371 0.269456 -0.131714
-0.129110 0.244175 0.040085
-0.089427 0.283563 -0.622344
-0.086227 -0.274586 -0.039789
-0.061832 -0.252714 0.729832
-0.080883 -0.244698 -0.239031
-0.037575 -0.264944 0.814179
-0.073835 -0.228295 0.868768
-0.033451 -0.051570 -0.360647
-0.035835 -0.017810 0.111666
-0.034047 -0.083122 0.611640
-0.058889 -0.005870 -0.427322
-0.043869 0.157581 -0.340298
0.040422 0.221365 -0.572772
-0.121058 0.241566 -0.255881
-0.042833 0.262333 0.785396
0.046077 0.221037 0.874959
-0.075090 0.279227 -0.050699
-0.085083 0.257482 0.728497
-0.023101 -0.298664 -0.110339
0.006875 -0.213859 -0.576178
-0.027033 -0.192165 0.046701
0.034755 -0.008055 -0.494077
0.184222 -0.022205 0.967654
-0.035154 0.213937 0.040865
0.264222 0.203566 -0.739125
-0.017625 0.293374 -0.140707
0.254905 -0.284239 -0.114302
0.231274 -0.280750 -0.228431
0.217913 -0.214896 0.034792
0.123458 -0.189741 -0.294097
0.118454 -0.234769 0.792978
0.163767 -0.170299 0.887789
0.120501 -0.178457 -0.546305
0.035692 -0.154905 0.676287
0.164706 -0.161805 0.747705
0.132061 -0.069660 -0.356110
0.041846 0.012887 0.648711
0.141398 0.028375 0.692680
0.220530 -0.053854 0.120764
0.100643 0.079600 -0.355230
0.185268 0.103221 0.948002
0.046230 0.181372 0.706227
0.220835 0.184371 0.046578
0.156136 0.160705 0.726232
0.212822 0.248460 -0.552950
0.171436 0.218107 -0.327619
0.194305 0.280748 -0.090141
0.163014 0.258835 -0.639086
0.163670 -0.239102 -0.616652
0.197522 -0.186341 0.815218
0.230049 -0.225360 -0.332533
0.168124 -0.113357 -0.426001
0.169905 -0.111010 0.964113
0.157115 0.116077 -0.432679
0.168193 0.188092 0.812585
0.190460 0.182659 0.893271
0.273273 0.291175 -0.224289
0.258287 -0.241226 -0.451349
0.293056 -0.158822 0.125369
0.220951 -0.034696 0.752199
0.248387 0.006596 0.822444
0.241347 0.055106 0.913535
0.199412 0.114475 0.744108
0.284443 0.149926 0.108172
0.258852 0.238332 -0.416702
0.339895 -0.273397 -0.516454
0.357721 -0.244814 -0.604257
0.335336 -0.276480 -0.367077
0.355179 -0.261875 -0.202442
0.349054 -0.231421 -0.024588
0.366469 -0.046204 -0.770628
0.491978 -0.055845 0.333421
0.474673 0.053176 0.301535
0.377266 0.088420 -0.759951
0.332256 0.271074 -0.366855
0.343557 0.247742 -0.555358
0.357289 0.264161 -0.189117
0.335822 0.240255 -0.025581
0.416140 -0.252481 -0.434806
0.377977 -0.230836 0.083829
0.490708 -0.141093 -0.264294
0.424148 -0.157813 -0.109465
0.390185 -0.228079 0.032785
0.430026 -0.151586 -0.027698
0.466038 -0.140773 -0.559872
0.462256 0.152393 -0.569485
0.462746 0.132504 -0.161284
0.437708 0.147929 -0.058773
0.372779 0.213926 0.094028
0.437452 0.227089 -0.325496
0.423894 0.225069 0.031378
0.530096 -0.230298 0.088543
0.549998 -0.206211 0.280905
0.508807 -0.013751 -0.197759
0.505698 0.019419 -0.576213
0.455927 0.025079 -0.109406
0.521143 0.087799 -0.289832
0.549167 0.239293 0.139091
0.574406 -0.256552 0.187204
0.533413 -0.138445 0.014097
0.540210 -0.036137 -0.293646
0.525343 0.034457 -0.009420
0.542185 0.193559 0.051362
0.587049 0.208369 0.276599
0.632655 -0.163422 0.064393
0.660803 -0.196730 0.133864
0.641922 -0.196281 0.381656
0.570056 -0.021230 0.396673
0.684302 -0.108715 0.479587
0.683577 0.105185 0.480337
0.639661 -0.027342 0.016841
0.645579 0.171296 0.405984
0.633112 0.116690 0.052929
0.645563 0.217504 0.173448
0.675248 -0.240996 0.274399
0.787521 -0.235169 0.400094
0.795091 -0.154956 0.231603
0.690266 -0.024145 0.048161
0.738024 0.023158 0.122065
0.706235 0.007101 0.528802
0.831561 0.144564 0.240975
0.666320 0.238963 0.306589
0.813554 -0.218471 0.306124
0.789868 0.088873 0.546764
0.778130 0.234848 0.299516
0.812660 0.235951 0.408381
0.845708 -0.194043 0.505021
0.879603 -0.021842 0.228390
0.803534 -0.060810 0.554505
0.882728 0.201116 0.509391
0.952900 -0.210369 0.364728
0.963544 -0.096133 0.283328
0.970307 -0.125988 0.563810
0.956294 0.105393 0.587341
0.946789 0.209469 0.356219
0.986452 0.171414 0.564912
0.963059 -0.214712 0.452197
1.030246 -0.114569 0.374875
1.035525 -0.113779 0.544482
0.987444 0.051554 0.280411
1.032288 0.115251 0.379680
0.968280 0.222368 0.443071
1.031138 0.089648 0.569524
1.070464 0.012079 0.530234
1.027666 -0.005013 0.292638
3 5 0 16
3 0 5 6
3 0 6 1
3 2 4 3
3 3 4 20
3 1 6 23
3 2 7 8
3 2 8 4
3 24 5 16
3 20 4 10
3 7 9 8
3 4 8 10
3 11 5 24
3 5 11 6
3 6 11 12
3 6 12 23
3 8 9 10
3 2 14 36
3 13 0 1
3 15 2 36
3 14 2 3
3 14 3 20
3 13 16 0
3 41 18 15
3 18 19 15
3 19 7 15
3 2 15 7
3 21 20 22
3 1 23 17
3 18 25 19
3 19 25 26
3 19 26 9
3 7 19 9
3 27 20 10
3 20 27 22
3 22 27 29
3 12 28 23
3 30 10 9
3 12 11 31
3 12 31 28
3 32 9 26
3 43 10 30
3 10 43 27
3 9 32 30
3 33 13 34
3 34 13 1
3 35 36 37
3 36 14 37
3 33 40 13
3 34 1 38
3 37 14 39
3 17 38 1
3 35 41 15
3 15 36 35
3 14 20 39
3 40 52 16
3 40 16 13
3 39 20 21
3 41 54 18
3 52 56 16
3 55 21 57
3 57 21 22
3 56 24 16
3 54 25 18
3 57 22 29
3 56 42 24
3 24 42 11
3 27 43 29
3 31 44 28
3 45 26 25
3 32 26 45
3 11 42 46
3 47 32 45
3 43 30 48
3 11 46 31
3 31 46 49
3 44 31 49
3 32 48 30
3 47 48 32
3 50 35 51
3 37 51 35
3 39 64 37
3 64 63 37
3 50 41 35
3 50 68 41
3 51 37 63
3 39 66 64
3 17 53 38
3 66 39 55
3 53 17 71
3 68 54 41
3 21 55 39
3 71 17 23
3 71 23 59
3 58 54 71
3 54 58 25
3 28 59 23
3 60 57 29
3 59 28 44
3 60 29 43
3 76 25 58
3 59 44 77
3 45 25 61
3 25 76 61
3 78 74 47
3 74 62 47
3 43 48 60
3 77 44 49
3 61 78 45
3 47 45 78
3 48 47 62
3 80 48 62
3 33 81 82
3 81 33 34
3 40 82 84
3 33 82 40
3 81 34 65
3 34 38 65
3 63 64 83
3 64 66 83
3 65 38 85
3 67 38 53
3 67 85 38
3 63 83 70
3 68 67 54
3 51 63 69
3 63 70 69
3 66 55 91
3 71 67 53
3 67 71 54
3 95 56 52
3 71 59 58
3 59 73 58
3 96 75 74
3 60 72 57
3 75 62 74
3 75 80 62
3 101 46 42
3 59 77 73
3 60 48 103
3 106 79 49
3 79 77 49
3 105 61 76
3 78 61 105
3 103 48 80
3 106 46 101
3 49 46 106
3 86 68 107
3 88 107 68
3 108 66 110
3 85 67 109
3 86 109 67
3 68 86 67
3 68 50 88
3 88 50 51
3 108 83 66
3 66 111 110
3 85 87 65
3 51 89 88
3 51 69 89
3 70 83 90
3 91 111 66
3 92 52 40
3 93 69 70
3 93 70 114
3 114 70 90
3 94 89 69
3 72 91 55
3 57 72 55
3 94 69 96
3 69 93 96
3 114 100 93
3 93 100 75
3 93 75 96
3 99 96 74
3 98 102 79
3 78 105 99
3 74 78 99
3 80 75 100
3 77 79 102
3 102 118 77
3 118 73 77
3 118 104 73
3 58 73 104
3 76 58 104
3 80 122 103
3 103 119 60
3 104 121 76
3 76 121 105
3 103 122 119
3 123 86 107
3 86 123 109
3 82 81 124
3 124 81 65
3 88 125 107
3 65 87 124
3 90 83 108
3 85 112 87
3 85 109 112
3 88 113 125
3 89 113 88
3 89 94 113
3 95 52 92
3 87 112 115
3 127 91 72
3 112 116 98
3 115 112 98
3 94 99 113
3 94 96 99
3 97 42 56
3 128 113 99
3 98 116 102
3 101 42 129
3 117 98 79
3 102 116 118
3 128 99 105
3 80 100 122
3 120 72 60
3 117 79 106
3 128 105 121
3 119 120 60
3 106 101 129
3 130 104 118
3 104 130 121
3 123 133 131
3 107 133 123
3 123 132 109
3 132 134 109
3 110 135 108
3 136 110 111
3 40 84 92
3 135 138 108
3 138 90 108
3 136 111 91
3 134 112 109
3 90 138 114
3 126 124 87
3 87 115 126
3 138 141 114
3 140 144 112
3 141 100 114
3 144 116 112
3 115 98 126
3 117 126 98
3 141 146 100
3 145 72 120
3 144 150 116
3 150 118 116
3 146 122 100
3 117 106 152
3 151 128 121
3 122 146 119
3 152 106 129
3 150 130 118
3 123 131 132
3 82 153 84
3 137 153 124
3 124 153 82
3 133 107 125
3 135 110 136
3 138 135 139
3 133 125 143
3 136 91 157
3 126 137 124
3 137 126 156
3 140 112 134
3 143 125 113
3 141 138 142
3 138 139 142
3 91 127 157
3 141 142 146
3 126 117 158
3 142 148 146
3 129 42 97
3 128 151 147
3 148 159 146
3 149 117 152
3 146 159 119
3 119 159 120
3 121 130 151
3 155 134 132
3 136 154 135
3 154 139 135
3 156 140 155
3 155 140 134
3 158 156 126
3 156 158 140
3 140 158 144
3 147 143 113
3 127 72 145
3 147 113 128
3 167 148 142
3 117 149 158
3 150 144 158
3 159 148 167
3 160 145 120
3 120 159 160
3 130 150 161
3 161 151 130
3 153 170 171
3 162 170 153
3 172 155 132
3 171 84 153
3 162 153 137
3 162 155 172
3 162 137 156
3 162 156 155
3 163 133 143
3 139 154 164
3 154 165 164
3 154 136 165
3 136 166 165
3 157 127 136
3 127 166 136
3 142 139 164
3 167 142 164
3 164 165 167
3 147 168 143
3 145 166 127
3 95 97 56
3 165 159 167
3 165 166 159
3 166 160 159
3 166 145 160
3 158 149 169
3 158 169 150
3 169 179 150
3 129 180 152
3 180 149 152
3 179 161 150
3 172 170 162
3 132 173 172
3 131 173 132
3 133 174 131
3 174 173 131
3 174 133 184
3 163 184 133
3 175 92 84
3 175 95 92
3 143 176 163
3 175 178 95
3 168 177 143
3 97 95 178
3 178 129 97
3 193 168 147
3 151 182 147
3 147 182 193
3 149 179 169
3 149 180 179
3 179 181 161
3 181 151 161
3 151 181 182
3 183 171 170
3 172 183 170
3 173 183 172
3 183 173 185
3 186 185 173
3 174 186 173
3 187 174 184
3 174 188 186
3 187 188 174
3 184 163 197
3 189 84 171
3 175 84 189
3 189 199 175
3 175 199 178
3 199 190 178
3 129 178 190
3 194 191 181
3 191 192 181
3 192 182 181
3 192 195 182
3 129 190 180
3 193 182 195
3 179 180 194
3 181 179 194
3 196 187 184
3 196 184 203
3 184 197 203
3 171 183 189
3 188 196 204
3 187 196 188
3 189 183 185
3 197 163 176
3 198 185 186
3 204 206 188
3 200 198 186
3 186 188 200
3 188 192 200
3 188 206 192
3 177 176 143
3 191 198 200
3 206 207 192
3 192 191 200
3 190 201 194
3 194 201 191
3 207 195 192
3 195 207 202
3 193 177 168
3 194 180 190
3 193 195 202
3 196 209 204
3 197 176 212
3 189 185 205
3 198 205 185
3 189 205 199
3 212 176 177
3 199 201 190
3 199 205 201
3 205 198 201
3 198 191 201
3 217 207 206
3 212 177 208
3 208 177 193
3 202 208 193
3 209 196 210
3 219 210 203
3 203 210 196
3 203 197 219
3 197 211 219
3 215 204 209
3 212 211 197
3 211 212 213
3 215 206 204
3 213 212 214
3 213 214 224
3 217 206 215
3 212 216 214
3 208 216 212
3 218 207 217
3 226 216 208
3 202 207 218
3 208 202 218
3 208 218 226
3 211 220 219
3 219 221 210
3 219 227 221
3 220 211 213
3 222 215 209
3 209 210 222
3 210 223 222
3 210 221 223
3 217 215 222
3 228 224 214
3 222 223 217
3 223 218 217
3 223 225 218
3 225 229 218
3 214 216 230
3 229 226 218
3 226 230 216
3 227 219 220
3 220 213 231
3 221 232 223
3 231 213 233
3 233 213 224
3 233 224 228
3 232 225 223
3 229 230 226
3 235 227 220
3 235 236 227
3 236 221 227
3 232 221 236
3 233 228 238
3 228 214 234
3 234 238 228
3 239 229 225
3 239 230 229
3 234 214 230
3 235 220 241
3 231 241 220
3 237 241 231
3 233 237 231
3 236 244 232
3 237 233 238
3 244 225 232
3 244 239 225
3 234 240 238
3 246 230 239
3 246 234 230
3 240 234 246
3 235 241 242
3 241 243 242
3 241 237 243
3 242 236 235
3 249 236 242
3 236 249 244
3 243 237 247
3 247 237 238
3 244 249 245
3 239 244 245
3 245 247 246
3 238 240 247
3 239 245 246
3 240 246 247
3 243 248 242
3 243 247 248
3 245 249 242
3 242 248 245
3 248 247 245
