ply
format ascii 1.0
element vertex 250
property float x
property float y
property float z
element face 500
property list uchar int vertex_indices
end_header
-0.716953 -0.203047 -0.744323
-0.795814 -0.122839 -0.705646
-0.762502 -0.147808 -0.322084
-0.817381 -0.017876 -0.394862
-0.806416 -0.040051 -0.759033
-0.776327 -0.001433 -0.273435
-0.760511 0.087021 -0.771768
-0.785191 0.074192 -0.348758
-0.717723 0.205095 -0.700236
-0.654276 0.221620 -0.340613
-0.722304 -0.214609 -0.366075
-0.576523 -0.064915 -0.000698
-0.605735 -0.093122 -0.924786
-0.586840 0.120141 -0.049360
-0.623964 0.197868 -0.887878
-0.605141 -0.318199 -0.559910
-0.591843 -0.195599 -0.921626
-0.549858 -0.181730 -0.048901
-0.577204 0.112538 -0.953321
-0.569984 0.317898 -0.406035
-0.592002 0.314500 -0.598196
-0.579388 -0.314517 -0.711244
-0.492691 -0.318067 -0.716189
-0.514847 -0.316704 -0.347075
-0.470945 -0.257188 -0.028125
-0.495247 -0.136756 0.236588
-0.517885 0.009695 0.249693
-0.473471 0.151936 0.269671
-0.469553 0.256347 -0.066977
-0.522178 0.295710 -0.753096
-0.419443 0.315648 -0.222267
-0.482757 0.313575 -0.608770
-0.519542 0.336993 -0.429640
-0.491507 -0.318409 -0.567043
-0.499622 -0.220825 -0.909468
-0.359367 -0.327522 -0.148368
-0.430340 -0.220181 0.290960
-0.438051 -0.069434 0.477873
-0.486410 -0.003878 0.397150
-0.407475 0.086036 0.497449
-0.443897 0.229142 -0.897921
-0.401115 0.220792 0.357289
-0.398709 0.318547 -0.347617
-0.357404 -0.305229 -0.297148
-0.266629 -0.196468 -0.414982
-0.261568 -0.284380 -0.806934
-0.284246 -0.352718 0.006118
-0.357148 -0.305589 0.186269
-0.296019 -0.230647 -0.648826
-0.345183 -0.160771 0.550261
-0.282658 -0.017728 0.651516
-0.010553 0.042374 -0.958199
-0.332788 0.206388 0.500913
-0.370722 0.286080 0.182722
-0.401517 0.292535 -0.800934
-0.387661 0.283547 -0.679984
-0.301853 0.212444 -0.475760
-0.347318 0.289902 -0.738703
-0.329464 0.337536 -0.100634
-0.252032 -0.318640 0.384001
-0.028110 -0.225459 -0.886056
-0.303770 -0.195710 -0.577465
-0.219581 -0.240199 -0.306001
-0.271114 -0.256985 0.512848
-0.298674 0.184818 -0.593527
-0.195431 0.175606 0.650061
-0.236541 0.225823 -0.665037
-0.256186 0.295632 0.417858
-0.285126 0.313647 -0.217020
-0.245317 -0.329290 -0.150698
-0.166272 -0.389295 0.214021
-0.216166 -0.268394 -0.719397
-0.244368 -0.081276 -0.513103
-0.162232 -0.193720 0.672392
-0.249461 -0.070637 -0.584490
0.001293 -0.122341 -0.951502
-0.235178 0.071675 -0.490731
-0.180942 0.143227 -0.375956
-0.189846 0.284021 -0.765921
-0.122373 0.419675 0.003327
-0.142684 0.405605 0.136619
-0.092159 -0.404954 0.037455
-0.188263 -0.182232 -0.647120
-0.090010 -0.188393 -0.614284
-0.156938 -0.075534 0.738029
-0.112133 -0.048337 -0.576183
-0.178717 0.001403 -0.413554
-0.201941 0.048050 -0.604016
-0.203625 0.073665 0.717435
-0.096745 0.136971 -0.590096
-0.100095 0.111737 -0.380121
-0.011658 0.189082 -0.913347
-0.104519 -0.344096 -0.133930
-0.075747 -0.331841 0.461159
-0.015018 -0.271167 -0.667147
-0.087953 -0.260219 -0.272919
0.036077 -0.223025 -0.428284
-0.112242 -0.119727 -0.380480
-0.007999 -0.179948 0.739128
0.015791 -0.177381 -0.493982
-0.136673 0.096320 0.752299
-0.051685 0.030146 -0.500610
-0.094882 0.235666 -0.284990
-0.010505 0.110100 0.782484
-0.048643 0.181155 0.735211
-0.013589 0.260414 -0.647918
0.010221 0.414305 -0.019761
-0.070176 0.348560 0.492149
-0.024302 -0.412719 0.161686
0.168624 -0.380517 0.118261
0.112329 -0.311457 0.331138
-0.027041 -0.288178 -0.765289
0.099799 -0.370284 -0.140357
0.087248 -0.300075 -0.712852
0.168951 -0.319851 -0.352592
0.155834 -0.217248 -0.806322
-0.020442 -0.177856 -0.565045
-0.047036 -0.011533 0.782144
0.026479 0.208252 -0.510705
-0.021440 0.181675 -0.565622
-0.014282 0.258337 -0.842019
0.075787 0.270554 -0.383966
0.026534 0.303547 0.585979
0.058560 0.298126 -0.723862
0.114322 0.349432 -0.214839
-0.009613 0.358887 0.443549
-0.003264 0.429574 0.075173
0.080661 0.345113 0.286036
0.102255 -0.406116 0.031656
0.111421 -0.288591 0.530521
0.183034 -0.233695 0.433151
0.058705 -0.281757 0.638286
0.067539 -0.244909 -0.525703
0.070515 -0.167859 -0.919636
0.154197 -0.069400 -0.909165
0.125098 0.099888 -0.905064
0.148808 0.273661 0.459746
0.125353 0.380764 0.024434
0.208588 -0.353510 -0.146366
0.190936 -0.316550 -0.586049
0.253829 0.015984 -0.851290
0.206842 0.204817 -0.783834
0.157366 0.306725 -0.534780
0.181429 0.277065 0.287061
0.202850 0.286365 0.639046
0.216453 0.333505 -0.379738
0.155806 0.292238 0.602294
0.261352 -0.305170 -0.626272
0.438820 -0.201521 -0.059014
0.257213 -0.224326 0.511891
0.303970 -0.262918 0.586460
0.268677 -0.196899 0.341237
0.418641 -0.288804 0.641617
0.248005 -0.077457 -0.850669
0.713838 -0.117495 0.773037
0.720451 -0.001192 0.796493
0.271717 0.193366 0.337892
0.631867 0.238252 0.706628
0.297118 0.311450 -0.535977
0.275825 0.323400 -0.300211
0.285518 -0.347236 0.027715
0.302994 -0.313515 -0.506606
0.281496 -0.308725 -0.298522
0.354150 -0.249841 -0.162092
0.455013 -0.303807 0.115083
0.338209 -0.282307 0.218551
0.373537 -0.227174 -0.664871
0.721103 -0.217219 0.699177
0.300917 -0.184593 0.415130
0.388548 -0.083965 -0.740931
0.317765 0.183805 0.418894
0.392440 0.102894 -0.731746
0.385418 0.228570 -0.659353
0.300590 0.262979 0.572280
0.418068 0.193387 -0.225610
0.342663 0.260907 -0.165943
0.309076 0.262736 0.241873
0.351271 0.319165 0.113823
0.450322 -0.284801 0.586098
0.434570 -0.241194 -0.582922
0.348326 -0.227106 0.518523
0.437294 -0.163537 -0.223000
0.436627 -0.147780 -0.121828
0.347473 -0.198712 0.336767
0.462290 -0.259461 0.460114
0.409291 0.231358 0.390264
0.327176 0.175518 0.349671
0.371420 0.232072 0.516100
0.394729 0.234273 -0.085911
0.441802 0.246095 -0.567599
0.474350 0.288190 0.532182
0.577746 0.313356 0.576514
0.398716 0.282633 -0.428743
0.511343 -0.177043 -0.433274
0.493052 -0.301225 0.281837
0.483655 -0.156056 -0.642273
0.542734 -0.062088 -0.322203
0.479102 -0.008230 -0.187441
0.484918 0.040248 -0.112225
0.536126 0.063281 -0.318793
0.477394 0.149222 -0.647574
0.525783 0.147619 -0.578169
0.471850 0.297910 0.092692
0.463164 0.316511 0.217212
0.583351 -0.311674 0.271730
0.600696 -0.309102 0.436671
0.581419 -0.179372 -0.008545
0.580883 -0.304714 0.581196
0.560560 -0.120574 -0.552577
0.509474 -0.045773 -0.659289
0.560828 -0.008883 -0.600906
0.500817 0.191801 -0.044999
0.529473 0.152446 -0.433832
0.590022 0.306933 0.401416
0.737687 -0.234830 0.193066
0.746576 -0.226028 0.394275
0.600477 -0.031031 -0.432250
0.605171 -0.003210 -0.498228
0.556552 -0.025200 -0.068419
0.650403 -0.007048 -0.028691
0.575743 0.175921 -0.010450
0.593393 0.300549 0.190150
0.708575 0.276984 0.468528
0.718036 -0.278043 0.561809
0.701541 -0.235512 0.087974
0.730170 -0.152721 0.043902
0.708534 0.157093 0.031054
0.770936 0.095848 0.761076
0.710723 0.226071 0.092639
0.745705 0.219495 0.331747
0.785746 0.189852 0.687821
0.705026 0.287157 0.601438
0.813966 -0.205957 0.638397
0.831309 -0.167758 0.524896
0.812784 -0.116170 0.348073
0.847881 -0.042252 0.121991
0.828849 -0.086194 0.413571
0.839060 -0.088491 0.686869
0.763992 0.020241 0.035127
0.832226 0.048514 0.334377
0.830622 0.086498 0.419252
0.794880 0.189188 0.204314
0.811040 0.187018 0.546277
0.793036 -0.184726 0.123422
0.850441 -0.084232 0.195821
0.871362 -0.034936 0.516467
0.865692 0.063781 0.629618
0.863124 0.072101 0.183048
0.819389 0.132130 0.120402
0.869342 0.071306 0.511831
3 0 1 10
3 1 2 10
3 2 1 3
3 1 4 3
3 2 3 5
3 4 6 3
3 3 6 7
3 3 7 5
3 6 8 7
3 7 8 9
3 0 10 15
3 12 1 0
3 10 2 17
3 2 11 17
3 5 11 2
3 12 4 1
3 6 4 12
3 13 11 5
3 7 13 5
3 14 6 18
3 6 14 8
3 7 9 13
3 20 9 8
3 0 15 21
3 15 10 23
3 16 0 21
3 17 24 10
3 0 16 12
3 6 12 18
3 28 13 9
3 29 8 14
3 19 9 20
3 29 20 8
3 15 23 33
3 34 21 22
3 33 22 21
3 33 21 15
3 23 10 24
3 34 16 21
3 34 12 16
3 17 11 25
3 25 11 26
3 25 26 38
3 11 13 26
3 26 13 27
3 26 27 38
3 40 14 18
3 40 29 14
3 9 19 30
3 9 30 28
3 29 31 20
3 31 32 20
3 19 20 32
3 19 32 30
3 33 23 43
3 34 22 45
3 35 43 23
3 35 23 24
3 24 25 36
3 24 17 25
3 25 37 36
3 38 37 25
3 37 38 39
3 51 18 12
3 27 39 38
3 39 27 41
3 13 28 27
3 28 53 27
3 53 41 27
3 54 29 40
3 57 29 54
3 31 29 55
3 55 29 57
3 31 42 32
3 32 42 30
3 33 43 44
3 48 22 33
3 35 24 46
3 46 24 47
3 47 24 36
3 60 34 45
3 48 33 61
3 61 33 44
3 36 37 49
3 37 50 49
3 39 50 37
3 51 40 18
3 41 52 39
3 55 64 31
3 31 64 56
3 31 56 42
3 28 30 58
3 28 58 53
3 67 41 53
3 30 42 68
3 35 46 69
3 35 69 43
3 45 22 71
3 48 71 22
3 43 62 44
3 47 36 59
3 36 49 63
3 59 36 63
3 72 61 44
3 74 48 61
3 72 74 61
3 65 50 39
3 52 65 39
3 66 55 57
3 64 55 66
3 41 67 52
3 52 67 65
3 78 57 54
3 56 68 42
3 68 58 30
3 46 47 70
3 46 81 69
3 47 59 70
3 62 43 69
3 75 12 34
3 82 71 48
3 63 49 73
3 82 48 74
3 50 73 49
3 73 50 84
3 87 82 74
3 72 76 74
3 84 50 88
3 64 87 74
3 74 76 64
3 50 65 88
3 87 64 66
3 56 64 76
3 76 77 56
3 91 40 51
3 78 66 57
3 77 68 56
3 40 78 54
3 79 58 68
3 80 67 53
3 58 80 53
3 79 80 58
3 70 81 46
3 92 69 81
3 70 59 93
3 59 63 93
3 93 63 73
3 92 95 69
3 95 62 69
3 60 75 34
3 44 62 97
3 62 95 97
3 85 83 82
3 44 86 72
3 44 97 86
3 87 85 82
3 87 89 85
3 72 86 76
3 100 84 88
3 97 90 86
3 76 86 77
3 86 90 77
3 66 89 87
3 90 102 77
3 100 88 65
3 105 66 78
3 66 105 89
3 102 68 77
3 102 106 68
3 79 68 106
3 67 107 65
3 67 80 107
3 108 81 70
3 108 70 93
3 45 111 60
3 71 111 45
3 71 82 94
3 71 94 111
3 82 83 94
3 83 116 94
3 97 96 99
3 96 97 95
3 73 84 98
3 116 83 85
3 98 84 117
3 75 51 12
3 116 85 101
3 84 100 117
3 101 85 89
3 97 101 90
3 117 100 103
3 101 89 119
3 104 103 100
3 65 104 100
3 40 91 120
3 105 119 89
3 120 78 40
3 78 123 105
3 120 123 78
3 107 80 125
3 126 125 80
3 79 126 80
3 81 128 112
3 128 108 109
3 128 81 108
3 112 92 81
3 109 108 110
3 93 110 108
3 129 110 93
3 112 114 95
3 112 95 92
3 129 93 131
3 111 115 60
3 111 113 115
3 113 111 94
3 114 96 95
3 93 73 131
3 60 115 133
3 116 132 94
3 73 98 131
3 133 75 60
3 116 99 132
3 101 99 116
3 99 101 97
3 119 118 101
3 90 101 118
3 118 121 90
3 90 121 102
3 118 119 105
3 122 104 65
3 107 122 65
3 121 124 102
3 102 124 106
3 107 125 122
3 125 126 127
3 126 79 106
3 113 94 139
3 129 130 110
3 94 132 139
3 96 132 99
3 115 134 133
3 75 133 134
3 75 134 51
3 134 135 51
3 91 51 135
3 91 135 120
3 144 104 122
3 105 142 118
3 122 146 144
3 105 123 142
3 136 125 127
3 125 136 122
3 122 136 146
3 137 143 127
3 124 137 106
3 137 126 106
3 137 127 126
3 138 112 128
3 114 112 138
3 139 147 113
3 113 147 115
3 114 139 132
3 96 114 132
3 130 129 149
3 152 131 98
3 154 98 117
3 135 134 140
3 140 141 135
3 120 135 141
3 157 103 104
3 120 141 123
3 123 141 158
3 121 118 142
3 145 121 142
3 136 127 143
3 123 158 142
3 124 121 145
3 145 159 124
3 137 124 159
3 138 160 148
3 138 128 160
3 128 109 160
3 147 139 161
3 139 114 161
3 161 114 162
3 114 138 162
3 162 138 163
3 163 138 148
3 165 109 110
3 110 151 165
3 149 129 150
3 150 129 131
3 150 131 152
3 166 115 147
3 130 151 110
3 149 168 130
3 167 152 98
3 153 134 115
3 151 130 168
3 153 140 134
3 156 170 136
3 156 136 143
3 170 173 136
3 136 173 146
3 157 104 144
3 141 172 158
3 156 143 176
3 146 173 144
3 142 158 145
3 158 159 145
3 159 175 137
3 137 177 176
3 176 143 137
3 164 160 109
3 164 109 165
3 151 183 165
3 180 149 150
3 180 168 149
3 169 115 166
3 153 115 169
3 151 168 183
3 153 169 140
3 169 171 140
3 140 171 141
3 171 172 141
3 186 170 156
3 187 173 170
3 186 156 176
3 191 157 144
3 172 189 158
3 174 175 159
3 188 137 175
3 188 177 137
3 159 158 192
3 147 161 179
3 179 161 193
3 193 161 162
3 148 160 164
3 178 150 152
3 166 147 179
3 163 181 162
3 163 148 182
3 178 184 180
3 178 180 150
3 166 179 195
3 195 169 166
3 182 181 163
3 168 184 183
3 180 184 168
3 155 117 103
3 186 185 170
3 170 185 187
3 200 172 171
3 188 175 174
3 172 200 189
3 176 185 186
3 185 190 187
3 187 190 173
3 158 189 192
3 174 159 192
3 188 202 177
3 185 176 203
3 173 190 191
3 173 191 144
3 202 203 177
3 177 203 176
3 194 164 165
3 164 206 148
3 207 178 152
3 194 165 183
3 184 194 183
3 193 162 181
3 195 179 208
3 196 193 181
3 195 209 169
3 181 197 196
3 181 182 197
3 148 198 182
3 182 198 197
3 209 171 169
3 209 200 171
3 196 197 199
3 197 174 199
3 197 198 174
3 174 198 188
3 198 211 188
3 174 212 199
3 200 201 189
3 192 212 174
3 188 211 202
3 185 203 213
3 213 190 185
3 194 204 164
3 204 194 205
3 194 184 205
3 207 205 184
3 207 184 178
3 179 193 208
3 195 208 209
3 208 210 209
3 208 217 210
3 206 218 148
3 218 198 148
3 154 117 155
3 209 210 200
3 210 201 200
3 210 217 201
3 218 220 198
3 220 211 198
3 217 212 201
3 212 189 201
3 212 192 189
3 202 211 220
3 220 221 202
3 221 203 202
3 213 191 190
3 203 221 213
3 204 214 164
3 205 215 204
3 215 214 204
3 205 207 223
3 207 167 223
3 164 214 224
3 152 167 207
3 206 164 224
3 206 224 225
3 98 154 167
3 193 216 208
3 193 196 216
3 225 219 206
3 208 216 217
3 218 206 219
3 196 199 216
3 216 212 217
3 216 199 212
3 220 218 219
3 219 226 220
3 227 103 157
3 226 228 220
3 221 220 228
3 191 231 157
3 191 213 222
3 191 222 231
3 205 223 215
3 225 238 219
3 227 155 103
3 238 226 219
3 221 229 213
3 229 222 213
3 230 157 231
3 233 215 223
3 223 232 233
3 232 223 167
3 225 224 243
3 243 224 214
3 234 214 215
3 225 243 235
3 215 233 236
3 215 236 234
3 167 154 237
3 238 225 235
3 239 244 234
3 234 236 239
3 154 155 237
3 237 155 227
3 239 240 229
3 157 230 227
3 238 248 226
3 229 241 239
3 240 222 229
3 240 242 222
3 226 248 228
3 228 248 241
3 221 228 241
3 229 221 241
3 242 231 222
3 242 230 231
3 244 243 214
3 214 234 244
3 232 237 233
3 232 167 237
3 245 236 233
3 233 237 245
3 243 244 235
3 237 246 245
3 244 247 235
3 244 239 247
3 240 239 236
3 236 245 240
3 237 227 246
3 248 238 235
3 235 247 248
3 245 249 240
3 245 246 249
3 249 246 242
3 246 230 242
3 227 230 246
3 247 241 248
3 239 241 247
3 242 240 249
