ply
format ascii 1.0
element vertex 252
property float x
property float y
property float z
element face 500
property list uchar int vertex_indices
end_header
-0.501542 -0.153277 -0.769976
-0.529051 -0.103144 -0.506962
-0.544156 -0.021265 -0.817668
-0.538042 0.016891 -0.505406
-0.537448 0.082849 -0.811042
-0.498015 0.159546 -0.549753
-0.490555 0.159580 -0.821889
-0.438040 -0.236047 -0.751101
-0.406661 -0.253271 -0.601813
-0.476254 -0.165540 -0.504961
-0.513735 -0.064749 -0.861270
-0.510745 -0.093754 -0.472779
-0.405100 -0.098398 0.259374
-0.518134 0.042752 -0.474483
-0.441921 0.026014 0.266783
-0.511860 0.064621 -0.864226
-0.450708 0.167774 -0.494017
-0.427777 0.241575 -0.726754
-0.422269 0.242757 -0.564295
-0.323848 -0.300750 -0.684832
-0.387132 -0.194707 -0.821164
-0.349787 -0.226689 -0.470559
-0.405684 -0.144480 -0.435298
-0.300541 -0.201989 0.132138
-0.300348 -0.217085 0.297182
-0.369603 -0.095446 0.410448
-0.427047 -0.050697 -0.885658
-0.419457 -0.017548 -0.421495
-0.391478 -0.092571 0.164996
-0.376031 -0.023100 0.100456
-0.428592 0.001301 0.325056
-0.323386 -0.070659 0.038659
-0.423419 0.020294 0.204786
-0.372513 0.035359 0.439776
-0.379245 0.046202 -0.409327
-0.329195 0.070136 0.048369
-0.417231 0.082265 -0.886041
-0.371490 0.091422 0.118933
-0.403975 0.106906 0.265762
-0.449394 0.152520 -0.859895
-0.357277 0.122719 0.417595
-0.384398 0.213008 -0.816879
-0.344258 0.197695 0.287310
-0.359049 0.236600 -0.488084
-0.341755 0.295471 -0.672986
-0.248178 -0.317824 -0.588418
-0.278479 -0.170320 0.482035
-0.386390 -0.152498 -0.865775
-0.260940 -0.177231 0.060918
-0.342281 -0.121518 0.086086
-0.323434 -0.049843 0.511960
-0.323159 0.084367 0.495226
-0.216381 -0.019634 -0.239166
-0.339060 0.162812 -0.414576
-0.290931 0.211083 0.131548
-0.258006 0.174427 0.056360
-0.293433 0.201316 0.422475
-0.239798 0.198208 0.507196
-0.134968 0.232054 -0.289641
-0.309060 0.291610 -0.717788
-0.213266 0.297425 0.276175
-0.260299 -0.307597 -0.714069
-0.062024 -0.298844 -0.382710
-0.210265 -0.269249 0.407957
-0.109195 -0.240855 -0.267111
-0.212182 -0.256738 0.111381
-0.174157 -0.290774 0.163552
-0.185047 -0.150986 -0.251994
-0.146261 -0.205857 0.651874
-0.263919 -0.089960 0.016707
-0.274730 0.034430 0.014194
-0.213740 -0.035699 0.676901
0.273422 0.031440 -0.873512
0.172187 0.184007 -0.853582
-0.165035 0.145065 -0.223717
-0.199958 0.251639 0.106318
-0.250396 0.324856 -0.652310
-0.235754 0.321948 -0.597263
-0.051586 0.292612 -0.363763
-0.150868 -0.341653 -0.653564
-0.078811 -0.359206 0.276819
-0.042495 -0.364838 0.367177
-0.145967 -0.281827 0.488057
-0.112014 -0.160823 -0.165349
-0.106713 -0.200681 0.720092
-0.158786 -0.090947 -0.181308
-0.142085 -0.043705 -0.132967
-0.080963 -0.186995 0.010503
-0.186491 -0.130231 0.684525
-0.150815 -0.106296 0.755750
0.246967 -0.124394 -0.870057
-0.183184 -0.007047 0.728903
-0.127731 0.072643 -0.115001
-0.196423 0.083412 0.671073
-0.140803 0.078181 0.765251
-0.114664 0.186365 0.717793
-0.098787 0.194754 -0.172140
-0.105425 0.182805 0.029076
-0.124198 0.217203 0.657578
-0.072140 0.284721 0.603117
-0.189244 0.296823 0.183561
-0.137113 0.311122 0.433171
-0.094711 0.346741 -0.633494
-0.068564 0.354955 0.255168
-0.026574 0.377640 0.347402
-0.076285 -0.348865 -0.601100
0.174334 -0.286314 -0.735157
-0.085410 -0.282164 0.106306
-0.032858 -0.268716 -0.228232
-0.050061 -0.300247 0.585466
-0.054740 -0.200036 -0.053861
-0.022552 -0.184782 0.807920
-0.102497 -0.000448 -0.021952
-0.109597 0.000166 -0.013974
-0.048390 -0.012385 0.876379
-0.055530 0.194725 -0.036418
-0.017493 0.114810 0.857551
-0.047596 0.187421 0.797189
0.230610 0.226913 -0.818835
-0.040467 0.241136 -0.144103
0.015858 0.274892 0.030966
-0.014961 0.274204 -0.262955
-0.048902 0.248201 0.716616
0.161624 0.285295 -0.740074
-0.095397 0.350694 -0.587820
0.027638 -0.340047 -0.630732
0.035378 -0.319038 -0.548742
0.034118 -0.384542 0.252565
0.035572 -0.324796 0.634187
0.026819 -0.278456 -0.351499
0.024759 -0.272243 -0.070606
0.029060 -0.273292 0.723529
-0.028408 -0.066688 0.885752
0.051416 0.228560 0.795366
0.024436 0.269724 -0.069146
-0.049546 0.305702 0.136296
0.102509 0.262397 -0.463869
-0.024792 0.346385 -0.591921
0.035796 0.311018 0.679384
0.089365 -0.406401 0.369578
0.124214 -0.388322 0.530486
0.185249 -0.367032 0.597554
0.072815 -0.281426 -0.193066
0.106092 -0.303850 -0.068184
0.100417 -0.330702 0.081536
0.105565 -0.235252 -0.285448
0.116765 -0.195049 -0.361309
0.044475 -0.143891 0.867606
0.119389 0.190852 -0.364660
0.021754 0.275546 -0.322695
0.054187 0.338663 -0.643157
0.116897 0.295146 -0.058817
0.102353 0.351754 0.167344
0.093462 0.379655 0.532341
0.121711 0.336935 0.667924
0.103930 0.397951 0.373276
0.116026 -0.393160 0.251672
0.216476 -0.335901 0.175394
0.157543 -0.302567 -0.596620
0.202882 -0.287428 -0.032354
0.271618 -0.288095 0.723556
0.110069 -0.228461 -0.429814
0.339217 -0.207445 0.815458
0.211981 -0.104384 -0.422029
0.184765 -0.125195 -0.274950
0.180379 -0.012671 -0.343992
0.202796 0.095330 -0.420534
0.341485 0.101673 0.881972
0.211686 0.054793 -0.269156
0.138243 0.212793 -0.442811
0.102274 0.240407 -0.264802
0.175368 0.285475 -0.575444
0.210888 0.269856 -0.073671
0.202069 0.348992 0.211199
0.191946 -0.388252 0.494101
0.284784 -0.333824 0.648183
0.247205 -0.290664 -0.665983
0.403649 -0.240395 0.292342
0.335268 -0.233613 0.099419
0.293164 -0.197460 -0.825233
0.188309 -0.238232 -0.510320
0.253825 -0.209972 -0.110735
0.301507 -0.213857 -0.038427
0.200337 -0.024646 -0.296802
0.350127 0.002904 0.904080
0.323286 0.117854 -0.107666
0.174320 0.230464 -0.495864
0.258021 0.199477 -0.122958
0.283461 0.180674 -0.837200
0.237650 0.297254 0.063440
0.340795 0.227817 0.793005
0.240624 0.288481 -0.680463
0.326561 0.317454 0.426357
0.201214 0.372960 0.584851
0.338556 0.306936 0.662606
0.189104 0.389090 0.482494
0.270341 0.360332 0.553115
0.363174 -0.297969 0.440371
0.305923 -0.325929 0.635279
0.336400 -0.224690 -0.754623
0.277835 -0.263745 -0.584376
0.354231 -0.228340 -0.618017
0.336868 -0.174291 -0.509930
0.345964 -0.133286 -0.057947
0.356924 -0.078306 0.883903
0.364883 -0.056686 -0.454222
0.317863 -0.078469 -0.125673
0.319917 0.028726 -0.437649
0.376237 0.066203 -0.051146
0.327391 0.164154 -0.502506
0.309841 0.197419 -0.038216
0.356343 0.207462 0.088146
0.320158 0.221465 -0.757455
0.343074 0.228707 -0.627412
0.365392 0.252225 0.241892
0.409217 -0.232551 0.758036
0.444687 -0.234202 0.436496
0.425207 -0.252716 0.651658
0.429703 -0.160824 0.184696
0.366331 -0.097349 -0.834076
0.418410 -0.136586 -0.727895
0.415589 -0.094759 -0.529507
0.402203 -0.108099 0.043932
0.432006 -0.161616 0.817782
0.383612 -0.041646 -0.044401
0.384615 0.072265 -0.816799
0.351238 0.030788 -0.102793
0.421394 0.135960 -0.705983
0.427665 0.125737 -0.513958
0.408936 0.100262 0.051101
0.441007 0.161106 0.228969
0.434113 0.135744 0.836256
0.425624 0.228091 0.364229
0.387294 0.278929 0.600733
0.408968 0.226222 0.763878
0.493404 -0.147747 0.336728
0.485993 -0.138830 0.720430
0.439571 -0.036417 -0.743213
0.479449 -0.045550 0.188146
0.433319 -0.000034 0.870171
0.423200 0.052554 -0.469296
0.453382 0.060188 -0.522155
0.430548 0.000474 0.046075
0.510744 0.048805 0.792706
0.443854 0.064992 -0.745544
0.476370 0.047210 0.183195
0.485493 0.140103 0.355928
0.492494 0.145545 0.729842
0.524412 -0.082585 0.364582
0.535142 -0.001430 0.708361
0.519820 0.042140 0.366585
0.531414 0.078455 0.740829
3 0 1 9
3 9 1 11
3 2 0 10
3 0 2 1
3 1 2 3
3 11 3 13
3 1 3 11
3 15 2 10
3 4 2 15
3 2 4 3
3 3 4 5
3 3 5 13
3 6 4 15
3 4 6 5
3 20 0 7
3 7 0 8
3 8 0 9
3 0 20 10
3 9 11 22
3 20 26 10
3 22 11 27
3 27 11 13
3 32 12 28
3 14 12 32
3 12 14 30
3 26 15 10
3 26 36 15
3 27 13 16
3 30 14 38
3 36 39 15
3 16 13 5
3 32 38 14
3 6 15 39
3 39 41 6
3 41 17 6
3 6 17 5
3 5 17 18
3 16 5 18
3 20 7 19
3 19 8 45
3 19 7 8
3 45 8 21
3 21 8 9
3 9 22 21
3 24 23 12
3 24 12 25
3 47 26 20
3 28 23 49
3 28 12 23
3 29 28 49
3 12 30 25
3 28 29 32
3 25 30 33
3 25 33 50
3 31 35 29
3 50 33 51
3 37 29 35
3 29 37 32
3 16 34 27
3 38 32 37
3 33 38 40
3 33 30 38
3 53 34 16
3 40 38 42
3 43 53 16
3 41 59 17
3 18 43 16
3 44 17 59
3 44 18 17
3 19 61 20
3 23 24 66
3 24 46 63
3 21 22 67
3 46 24 25
3 23 48 49
3 31 48 69
3 48 31 49
3 31 29 49
3 25 50 46
3 69 70 31
3 70 35 31
3 50 51 71
3 72 36 26
3 55 35 70
3 33 40 51
3 53 52 34
3 37 35 54
3 35 55 54
3 37 54 38
3 40 42 56
3 40 56 51
3 51 56 57
3 73 41 39
3 43 58 53
3 42 38 54
3 60 42 54
3 56 42 60
3 18 77 43
3 76 44 59
3 44 77 18
3 44 76 77
3 19 79 61
3 45 79 19
3 62 45 21
3 62 21 64
3 65 48 23
3 66 65 23
3 63 46 82
3 82 46 68
3 67 64 21
3 87 69 48
3 68 46 88
3 90 26 47
3 46 50 88
3 52 67 22
3 27 52 22
3 88 50 71
3 34 52 27
3 71 51 93
3 53 74 52
3 51 57 93
3 58 74 53
3 54 55 75
3 43 77 78
3 75 100 54
3 100 60 54
3 101 56 60
3 56 101 57
3 45 105 79
3 79 106 61
3 80 66 24
3 81 80 24
3 63 81 24
3 81 63 82
3 66 107 65
3 107 48 65
3 82 68 109
3 64 67 83
3 107 87 48
3 83 67 85
3 83 85 86
3 83 86 112
3 68 88 84
3 84 88 89
3 52 85 67
3 113 69 87
3 88 71 89
3 89 71 91
3 89 91 114
3 85 52 86
3 86 52 92
3 86 92 112
3 113 70 69
3 71 93 91
3 91 93 94
3 91 94 114
3 52 74 92
3 113 97 70
3 97 55 70
3 94 93 95
3 92 74 96
3 57 98 93
3 93 98 95
3 118 41 73
3 96 74 58
3 57 99 98
3 97 75 55
3 43 78 58
3 101 99 57
3 76 59 102
3 59 123 102
3 78 77 124
3 100 103 60
3 104 60 103
3 60 104 101
3 102 77 76
3 102 124 77
3 125 79 105
3 62 105 45
3 81 82 109
3 125 106 79
3 66 127 107
3 127 66 80
3 62 64 108
3 64 83 108
3 108 83 110
3 109 68 84
3 131 84 111
3 90 47 20
3 83 112 110
3 89 111 84
3 111 89 132
3 110 112 87
3 87 112 113
3 89 114 132
3 114 94 116
3 113 112 97
3 73 39 36
3 115 112 92
3 96 115 92
3 112 115 97
3 117 116 94
3 95 117 94
3 115 96 119
3 115 120 97
3 58 121 96
3 96 121 119
3 120 135 97
3 97 135 75
3 98 99 122
3 95 98 122
3 95 122 117
3 123 59 41
3 58 78 121
3 100 75 135
3 124 137 78
3 103 100 135
3 102 137 124
3 81 127 80
3 81 139 127
3 126 125 105
3 62 126 105
3 81 109 140
3 109 128 140
3 126 62 129
3 128 109 84
3 128 84 131
3 62 108 129
3 129 108 142
3 110 130 108
3 130 142 108
3 130 87 144
3 107 144 87
3 110 87 130
3 147 111 132
3 133 116 117
3 119 134 115
3 120 115 134
3 122 133 117
3 118 123 41
3 136 149 78
3 121 78 149
3 119 121 134
3 122 138 133
3 102 123 150
3 102 150 137
3 136 78 137
3 122 99 138
3 135 152 103
3 101 104 153
3 101 153 99
3 153 138 99
3 103 152 104
3 152 155 104
3 127 139 156
3 140 139 81
3 127 144 107
3 127 156 144
3 140 128 141
3 125 126 158
3 128 131 141
3 131 160 141
3 145 129 142
3 142 130 143
3 144 143 130
3 106 20 61
3 126 129 161
3 161 129 146
3 145 146 129
3 160 131 111
3 162 160 111
3 167 116 133
3 169 148 136
3 136 148 149
3 170 149 148
3 170 121 149
3 170 151 121
3 121 151 134
3 120 134 151
3 154 133 138
3 150 171 137
3 136 137 171
3 151 152 120
3 152 135 120
3 138 153 154
3 104 155 153
3 157 156 174
3 156 139 174
3 139 140 174
3 174 140 141
3 144 156 157
3 125 176 106
3 176 125 158
3 143 144 159
3 144 157 159
3 175 141 160
3 142 143 159
3 179 20 106
3 180 158 126
3 180 126 161
3 145 142 181
3 142 159 181
3 179 90 20
3 162 111 147
3 163 180 161
3 161 146 163
3 145 164 146
3 146 165 163
3 164 183 165
3 146 164 165
3 90 72 26
3 166 163 165
3 184 132 114
3 183 168 165
3 167 114 116
3 165 148 166
3 165 168 148
3 72 73 36
3 169 186 166
3 166 148 169
3 168 170 148
3 136 171 186
3 169 136 186
3 172 151 170
3 190 133 154
3 191 150 123
3 171 150 191
3 189 151 172
3 189 152 151
3 173 152 189
3 154 153 193
3 155 152 173
3 173 195 155
3 155 195 153
3 195 193 153
3 157 197 177
3 157 174 197
3 174 141 198
3 197 174 198
3 198 141 175
3 178 159 157
3 178 157 177
3 106 176 199
3 176 158 200
3 178 182 159
3 179 106 199
3 158 180 200
3 182 181 159
3 202 180 163
3 145 181 164
3 204 162 147
3 202 163 205
3 204 147 132
3 163 166 207
3 163 207 205
3 204 132 184
3 184 114 167
3 188 73 72
3 207 166 209
3 209 166 186
3 187 168 185
3 170 168 187
3 118 73 188
3 167 133 190
3 118 188 212
3 170 187 172
3 187 210 172
3 172 210 189
3 212 123 118
3 191 123 212
3 194 190 193
3 190 154 193
3 192 195 173
3 195 192 196
3 194 193 196
3 193 195 196
3 160 198 175
3 201 199 176
3 200 201 176
3 215 198 160
3 200 202 201
3 200 180 202
3 160 162 215
3 182 203 181
3 219 90 179
3 179 199 219
3 181 206 164
3 181 203 206
3 206 183 164
3 219 72 90
3 219 225 72
3 206 226 168
3 183 206 168
3 226 185 168
3 185 226 208
3 225 188 72
3 208 210 185
3 225 212 188
3 185 210 187
3 213 209 171
3 209 186 171
3 189 210 211
3 189 211 214
3 191 212 213
3 171 191 213
3 189 214 173
3 214 192 173
3 190 194 234
3 192 233 196
3 194 196 233
3 197 216 177
3 197 217 216
3 197 198 217
3 215 217 198
3 177 218 178
3 201 220 199
3 201 221 220
3 202 221 201
3 182 222 203
3 182 178 222
3 178 218 222
3 162 223 215
3 199 220 219
3 162 204 223
3 220 237 219
3 221 202 205
3 224 206 203
3 224 203 222
3 223 204 239
3 221 205 240
3 222 242 224
3 239 204 184
3 219 237 225
3 240 205 207
3 206 224 226
3 224 208 226
3 224 242 208
3 237 244 225
3 242 229 208
3 239 184 167
3 244 227 225
3 239 167 231
3 228 240 209
3 240 207 209
3 210 208 229
3 225 227 212
3 227 213 212
3 227 228 213
3 209 213 228
3 229 211 210
3 229 230 211
3 230 232 214
3 231 190 234
3 231 167 190
3 214 211 230
3 232 192 214
3 232 233 192
3 194 233 234
3 177 235 218
3 177 216 235
3 215 236 217
3 215 223 236
3 235 216 236
3 216 217 236
3 220 221 237
3 218 238 222
3 218 235 238
3 223 239 236
3 221 241 237
3 221 240 241
3 222 238 242
3 236 239 243
3 237 241 244
3 238 245 242
3 242 245 229
3 239 231 243
3 241 227 244
3 228 227 241
3 241 240 228
3 230 229 245
3 245 246 230
3 247 243 231
3 230 246 232
3 231 234 247
3 233 232 246
3 247 233 246
3 234 233 247
3 235 236 248
3 238 235 248
3 236 249 248
3 236 243 249
3 250 238 248
3 248 249 250
3 249 251 250
3 249 243 251
3 245 238 250
3 246 245 250
3 251 247 250
3 243 247 251
3 247 246 250
