ply
format ascii 1.0
element vertex 250
property float x
property float y
property float z
element face 500
property list uchar int vertex_indices
end_header
-0.808957 -0.182771 -0.883916
-0.830377 -0.172711 -0.725755
-0.851537 -0.089654 -0.673190
-0.871642 -0.087685 -0.884519
-0.791077 -0.080283 -0.950204
-0.873349 0.033571 -0.889024
-0.841954 0.061369 -0.662810
-0.817013 0.086772 -0.953124
-0.816093 0.181362 -0.660479
-0.789137 0.203306 -0.873766
-0.811604 0.192210 -0.716932
-0.726524 -0.266906 -0.776259
-0.746191 -0.198667 -0.604760
-0.743700 0.177993 -0.607329
-0.646332 -0.284943 -0.681155
-0.718047 -0.238087 -0.880784
-0.765087 -0.081064 -0.568077
-0.599009 0.073751 -0.924440
-0.726924 0.204771 -0.911555
-0.667709 0.270218 -0.822928
-0.651131 0.275583 -0.692916
-0.660365 -0.284573 -0.804112
-0.528579 -0.292059 -0.712416
-0.651696 -0.189131 -0.545303
-0.564453 -0.152224 -0.483215
-0.592952 -0.081540 -0.941998
-0.668033 0.057825 -0.522172
-0.586611 0.135195 -0.494224
-0.636985 0.217111 -0.562463
-0.606736 0.236349 -0.852666
-0.569030 0.285847 -0.754745
-0.479690 -0.280956 -0.564991
-0.596992 -0.211308 -0.873495
-0.500200 -0.135726 0.517514
-0.473775 -0.156930 0.576512
-0.592101 -0.032561 -0.478861
-0.538351 0.007431 0.520000
-0.526398 0.035867 0.582968
-0.497012 0.129562 0.490816
-0.472306 0.168011 0.588358
-0.458449 0.284385 -0.573647
-0.492311 -0.194171 -0.475205
-0.415376 -0.201736 0.469471
-0.426308 -0.241790 -0.746087
-0.416901 -0.079678 -0.843354
-0.387130 -0.047043 -0.387228
-0.508462 -0.014806 -0.440138
-0.430598 -0.078992 0.335219
-0.492425 0.006474 0.419152
-0.455108 -0.131387 0.677164
-0.427937 -0.124078 0.724645
-0.463753 -0.006645 0.712552
-0.382692 0.077894 -0.821743
-0.467096 0.124930 0.685257
-0.412742 0.113172 -0.410383
-0.435477 0.136316 0.356676
-0.419122 0.122988 0.749976
-0.500904 0.192586 -0.482516
-0.443090 0.220683 -0.771884
-0.431409 0.289221 -0.655495
-0.296598 -0.241605 -0.443166
-0.345220 -0.220976 0.353561
-0.351629 -0.157751 0.722611
-0.358385 -0.108356 0.254265
-0.408638 -0.033067 0.764257
-0.397115 0.038187 0.275136
-0.344907 0.168364 0.266051
-0.308070 0.258369 -0.452801
-0.341448 0.197265 0.714474
-0.341871 0.229603 0.345381
-0.265518 0.306865 0.478750
-0.304505 0.290379 0.589661
-0.346520 -0.289794 -0.592422
-0.228882 -0.324762 0.464871
-0.199839 -0.306395 0.562993
-0.280081 -0.198240 -0.714718
-0.303816 -0.210811 0.277051
-0.173923 -0.078343 -0.306618
-0.312326 -0.050872 0.787359
-0.204856 -0.048304 0.103988
-0.310389 0.048956 -0.802045
-0.352038 0.117825 0.774607
-0.216577 0.184444 -0.357536
-0.214750 0.119228 0.134270
-0.284017 0.205012 -0.710682
-0.215182 0.232473 0.217856
-0.337298 0.292540 -0.574686
-0.160685 -0.269637 -0.594078
-0.201882 -0.296932 -0.502098
-0.215050 -0.288590 0.340625
-0.187873 -0.178982 0.157294
0.257087 -0.105443 0.799090
-0.267859 -0.029659 -0.788768
-0.163934 0.082827 -0.297276
-0.205037 0.091549 -0.751993
-0.241619 0.292196 -0.484437
-0.205392 0.305355 0.355964
-0.181453 0.320655 0.576647
-0.162559 0.274726 -0.561993
-0.126694 -0.319964 0.440993
-0.076071 -0.250733 0.218875
-0.153739 -0.186173 -0.679973
0.240441 -0.197775 0.727431
-0.199028 -0.052472 -0.754270
-0.110035 0.002888 -0.720098
0.283961 0.026187 0.799979
-0.138008 0.168184 -0.693310
0.256034 0.184257 0.723298
-0.051709 0.304650 0.642079
-0.112515 0.278785 0.235480
-0.127891 0.315381 0.431665
-0.109275 -0.283898 -0.433771
-0.032980 -0.284882 -0.493559
-0.019607 -0.254138 0.290737
0.027224 -0.207405 0.372036
-0.081475 -0.219378 -0.347287
-0.064589 -0.205863 0.090691
-0.035117 -0.135001 -0.019872
-0.034121 -0.205954 0.019455
-0.003513 -0.032950 -0.218870
-0.122710 0.005523 0.045525
-0.059917 0.061863 -0.253304
-0.075041 0.089122 0.000216
-0.073733 0.225413 0.114432
-0.034217 0.194163 0.014799
-0.007043 0.220411 -0.316045
-0.022647 0.134425 -0.027027
-0.055007 0.205900 -0.629490
-0.118014 0.280867 -0.428627
0.144588 0.270975 0.659857
-0.020797 0.281671 -0.499200
0.020485 -0.288569 0.564219
0.006791 -0.286425 -0.408863
0.081087 -0.269357 0.037286
0.024354 -0.231790 0.212411
0.054186 -0.219039 0.464810
-0.044488 -0.155111 -0.654303
0.091286 -0.208722 -0.224975
0.001402 -0.087540 -0.059029
0.066231 -0.076996 -0.128228
-0.039445 0.047169 -0.686738
0.070921 -0.045321 -0.638160
0.037067 0.132279 -0.226535
0.065498 0.165277 0.285829
0.028059 0.223431 0.434099
0.039412 0.297369 -0.409212
0.072546 0.269494 0.049001
-0.043548 0.262460 0.234091
0.047420 0.258950 0.148738
0.011209 0.291893 0.587878
0.100950 -0.295107 -0.427008
0.081112 -0.265905 0.110607
0.169090 -0.278555 0.647369
0.011042 -0.202650 -0.603498
0.026905 -0.184193 -0.041028
0.091912 -0.164993 0.441390
0.144851 -0.246951 -0.088617
0.114744 -0.095734 0.292865
0.093264 -0.035141 0.345060
0.043314 0.010094 -0.087285
0.126031 0.039806 0.402302
0.105963 0.161987 -0.131596
0.038887 0.182306 -0.596629
0.043519 0.209909 -0.029540
0.133430 0.085665 0.289713
0.155426 0.272107 -0.043769
0.106325 0.220580 0.515291
0.115006 0.287589 -0.445753
0.140561 -0.298774 -0.349163
0.143009 -0.261659 0.562343
0.229539 -0.297953 -0.221776
0.123372 -0.227086 0.189400
0.175355 -0.167937 -0.548306
0.183145 -0.178218 0.447159
0.164857 -0.050347 0.335636
0.197763 -0.022606 -0.603686
0.176834 0.115781 0.338671
0.198529 0.165175 -0.537300
0.174517 0.159621 0.275704
0.191963 0.204158 0.459707
0.213866 0.290386 -0.269308
0.253546 0.310024 -0.154110
0.150585 0.231974 0.202680
0.160996 0.303146 -0.354836
0.160836 0.296789 0.109049
0.170421 0.262388 0.577343
0.293422 -0.339349 0.039133
0.312280 -0.305502 -0.287580
0.345987 -0.354944 -0.091808
0.236508 -0.290878 0.169838
0.276058 -0.263718 0.477108
0.309418 -0.266351 0.571540
0.189470 -0.182937 0.255683
0.260998 -0.229802 0.345270
0.263573 -0.061927 -0.574961
0.309360 0.281332 -0.349359
0.250924 0.238778 0.331656
0.271932 0.265363 0.471627
0.308746 0.325461 0.137725
0.268368 0.331353 -0.004932
0.367102 -0.295309 0.396213
0.379983 -0.192433 -0.429868
0.399511 -0.110368 -0.475924
0.385913 0.052557 -0.501112
0.371386 0.169806 -0.462310
0.310053 0.265767 0.571490
0.316528 0.330894 -0.202718
0.358822 0.297533 0.384112
0.431680 -0.347963 -0.066986
0.454501 -0.308827 -0.211282
0.433899 -0.308650 0.240110
0.442919 -0.270184 0.436268
0.478828 -0.136183 0.574895
0.358476 -0.051200 0.770222
0.372245 0.072513 0.753311
0.512637 0.115623 -0.398211
0.461660 0.175435 0.587327
0.454228 0.268252 0.421344
0.457742 0.312446 -0.099213
0.602821 -0.178925 0.295491
0.464476 -0.192303 -0.367028
0.521351 -0.180995 0.492539
0.523816 -0.053830 -0.408979
0.513789 0.064541 0.594578
0.540516 0.148399 0.508916
0.544181 0.221529 -0.279023
0.620694 0.223829 0.021477
0.464868 0.302257 0.210592
0.603450 -0.252578 -0.016454
0.597726 -0.236475 0.116614
0.604988 -0.183011 -0.198136
0.562486 -0.108782 0.483629
0.548681 0.037822 0.544324
0.639851 0.169456 -0.191197
0.635226 0.185137 0.134394
0.598073 0.227044 0.262957
0.629928 0.183663 0.318218
0.599643 0.259388 -0.091392
0.655327 -0.174228 0.014867
0.663383 -0.116900 0.136593
0.672304 -0.064763 0.320278
0.669086 0.004472 -0.282846
0.680300 0.033745 0.121649
0.669488 0.119314 0.252613
0.656013 0.079018 0.350048
0.700721 -0.008795 -0.169214
0.685850 -0.045832 0.041199
0.687840 -0.035890 0.262748
0.688929 -0.005920 0.197150
0.678444 0.107065 0.019000
3 3 0 4
3 0 3 1
3 1 3 2
3 3 4 5
3 3 5 2
3 4 7 5
3 2 5 6
3 9 5 7
3 5 9 10
3 5 10 6
3 6 10 8
3 6 8 13
3 15 0 11
3 1 11 0
3 11 1 12
3 0 15 4
3 2 12 1
3 12 2 16
3 2 6 16
3 17 7 4
3 16 6 13
3 17 18 7
3 18 9 7
3 18 19 9
3 10 13 8
3 9 20 10
3 19 20 9
3 10 20 13
3 11 21 15
3 14 21 11
3 14 11 12
3 12 23 14
3 23 12 16
3 23 16 26
3 26 16 13
3 26 13 28
3 18 29 19
3 20 28 13
3 14 22 21
3 15 21 32
3 32 4 15
3 32 25 4
3 24 23 35
3 23 26 35
3 25 17 4
3 26 27 35
3 28 27 26
3 29 18 17
3 30 20 19
3 31 22 14
3 21 22 32
3 31 14 23
3 23 41 31
3 41 23 24
3 41 24 46
3 46 24 35
3 25 44 17
3 33 36 34
3 34 36 37
3 48 36 33
3 46 35 27
3 38 36 48
3 46 27 57
3 36 38 37
3 37 38 39
3 17 58 29
3 27 28 57
3 29 30 19
3 40 57 28
3 59 20 30
3 28 20 40
3 20 59 40
3 22 43 32
3 42 33 34
3 32 43 44
3 25 32 44
3 46 45 41
3 47 42 61
3 47 48 42
3 42 48 33
3 37 49 34
3 50 49 51
3 50 51 64
3 44 52 17
3 51 49 37
3 48 47 65
3 45 46 54
3 53 51 37
3 64 51 56
3 55 48 65
3 39 53 37
3 51 53 56
3 57 54 46
3 48 55 38
3 58 17 52
3 58 30 29
3 30 58 59
3 22 72 43
3 31 72 22
3 31 41 60
3 31 60 72
3 75 43 72
3 34 49 62
3 75 44 43
3 60 41 45
3 76 63 61
3 62 49 50
3 47 61 63
3 50 64 62
3 64 78 62
3 65 63 79
3 63 65 47
3 44 80 52
3 78 64 81
3 82 45 54
3 81 64 56
3 66 65 83
3 80 84 52
3 55 65 66
3 84 58 52
3 54 57 67
3 53 68 56
3 56 68 81
3 69 55 66
3 53 39 68
3 69 38 55
3 39 38 70
3 39 70 71
3 68 39 71
3 86 40 59
3 40 86 67
3 40 67 57
3 72 88 87
3 88 72 60
3 76 61 89
3 89 61 73
3 61 42 73
3 74 73 42
3 34 74 42
3 74 34 62
3 87 75 72
3 77 60 45
3 92 44 75
3 91 62 78
3 92 80 44
3 77 45 93
3 45 82 93
3 82 54 67
3 66 85 69
3 84 59 58
3 59 84 86
3 67 86 95
3 70 69 96
3 70 38 69
3 71 97 68
3 101 75 87
3 89 90 76
3 90 63 76
3 101 103 75
3 103 92 75
3 90 79 63
3 79 83 65
3 105 78 81
3 103 94 92
3 94 80 92
3 94 84 80
3 84 94 106
3 85 66 83
3 106 98 84
3 84 98 86
3 96 69 85
3 108 68 97
3 98 95 86
3 70 97 71
3 73 74 99
3 89 99 100
3 89 73 99
3 60 115 111
3 60 111 88
3 100 90 89
3 102 74 62
3 60 77 115
3 100 116 90
3 116 79 90
3 101 104 103
3 116 120 79
3 119 77 121
3 121 77 93
3 94 103 104
3 120 83 79
3 104 106 94
3 120 123 83
3 121 93 125
3 125 93 82
3 123 85 83
3 98 106 127
3 128 82 67
3 109 85 123
3 96 85 109
3 129 107 68
3 67 95 128
3 129 68 108
3 128 95 98
3 109 110 96
3 96 110 70
3 110 97 70
3 88 111 112
3 113 100 99
3 114 99 131
3 99 74 131
3 87 88 112
3 112 111 132
3 111 115 132
3 113 99 114
3 74 102 131
3 87 136 101
3 115 77 119
3 136 104 101
3 118 117 120
3 116 118 120
3 136 140 104
3 126 117 138
3 122 117 126
3 117 122 120
3 140 106 104
3 120 122 124
3 120 124 123
3 140 127 106
3 122 126 124
3 107 81 68
3 128 145 125
3 82 128 125
3 123 147 109
3 127 130 98
3 128 130 145
3 147 144 110
3 109 147 110
3 130 128 98
3 149 97 110
3 149 108 97
3 133 116 151
3 134 151 116
3 113 134 100
3 114 131 135
3 131 102 152
3 87 112 153
3 115 137 132
3 118 133 154
3 118 116 133
3 100 134 116
3 113 114 134
3 136 87 153
3 118 154 117
3 153 141 136
3 154 138 117
3 119 137 115
3 137 119 139
3 154 159 138
3 140 136 141
3 159 126 138
3 142 119 121
3 141 162 140
3 159 163 126
3 140 162 127
3 121 125 142
3 163 124 126
3 127 162 130
3 146 124 163
3 123 124 146
3 148 147 123
3 148 143 147
3 143 144 147
3 146 148 123
3 110 144 149
3 108 149 129
3 132 150 112
3 150 132 168
3 131 169 135
3 169 131 152
3 150 172 112
3 172 153 112
3 132 137 168
3 156 154 133
3 171 151 134
3 155 135 169
3 172 141 153
3 137 139 156
3 135 155 114
3 102 62 91
3 156 139 154
3 157 171 134
3 134 114 157
3 114 158 157
3 114 155 158
3 154 139 159
3 155 160 158
3 164 157 158
3 161 139 119
3 142 161 119
3 139 161 159
3 143 164 158
3 158 160 143
3 175 177 141
3 177 162 141
3 159 161 163
3 160 144 143
3 160 166 144
3 125 180 142
3 142 180 161
3 163 161 165
3 164 143 182
3 177 167 162
3 167 130 162
3 165 146 163
3 148 184 182
3 182 143 148
3 166 149 144
3 149 166 185
3 167 145 130
3 145 167 183
3 145 183 125
3 146 184 148
3 185 129 149
3 186 156 133
3 189 133 151
3 168 137 170
3 170 137 156
3 189 151 171
3 171 192 189
3 173 155 169
3 157 192 171
3 192 157 174
3 174 160 173
3 173 160 155
3 172 175 141
3 164 174 157
3 176 174 164
3 174 176 160
3 164 178 176
3 179 160 176
3 160 179 166
3 105 81 107
3 161 180 181
3 161 181 165
3 178 164 182
3 166 179 185
3 183 180 125
3 165 199 146
3 146 199 184
3 187 168 170
3 186 188 156
3 186 133 189
3 150 187 172
3 150 168 187
3 170 156 188
3 173 169 190
3 169 191 190
3 191 169 152
3 189 192 193
3 191 152 102
3 190 193 173
3 172 202 194
3 192 174 193
3 193 174 173
3 175 172 194
3 91 78 105
3 177 204 195
3 176 178 196
3 176 196 179
3 179 196 197
3 182 198 196
3 182 196 178
3 205 107 129
3 195 167 177
3 167 195 183
3 184 198 182
3 197 185 179
3 197 205 185
3 129 185 205
3 195 206 180
3 195 180 183
3 206 181 180
3 199 198 184
3 188 187 170
3 189 193 200
3 193 190 200
3 200 190 191
3 187 201 172
3 172 201 202
3 102 91 213
3 203 194 202
3 213 91 105
3 175 194 203
3 213 105 214
3 177 175 203
3 216 214 107
3 214 105 107
3 204 177 203
3 216 107 205
3 196 198 207
3 196 207 197
3 207 205 197
3 199 181 206
3 165 181 199
3 187 208 209
3 187 188 208
3 208 188 186
3 208 186 210
3 186 189 210
3 189 200 210
3 209 220 187
3 210 200 211
3 191 211 200
3 187 220 201
3 212 211 191
3 102 212 191
3 201 220 202
3 212 102 213
3 223 212 213
3 214 223 213
3 216 223 214
3 204 203 215
3 204 215 195
3 217 216 205
3 205 207 217
3 206 195 218
3 198 218 227
3 198 227 207
3 207 227 217
3 218 199 206
3 198 199 218
3 208 210 229
3 219 210 211
3 221 219 211
3 212 221 211
3 222 202 220
3 222 203 202
3 222 215 203
3 195 215 225
3 217 224 216
3 225 218 195
3 226 218 237
3 227 218 226
3 209 208 230
3 230 208 228
3 228 208 229
3 219 229 210
3 209 230 220
3 231 219 221
3 222 220 230
3 221 212 231
3 231 212 232
3 212 223 232
3 222 241 215
3 232 223 224
3 223 216 224
3 233 225 215
3 236 224 217
3 226 234 227
3 234 235 227
3 235 236 217
3 233 218 225
3 233 237 218
3 217 227 235
3 230 228 238
3 229 238 228
3 239 238 229
3 229 219 239
3 219 231 240
3 230 241 222
3 239 248 242
3 244 240 231
3 232 244 231
3 241 233 215
3 234 249 242
3 242 243 234
3 244 232 224
3 226 249 234
3 243 235 234
3 243 236 235
3 224 236 244
3 233 226 237
3 230 238 245
3 238 246 245
3 238 239 246
3 219 247 239
3 240 247 219
3 241 230 245
3 239 247 248
3 239 242 246
3 246 249 245
3 246 242 249
3 240 244 247
3 241 245 233
3 247 243 248
3 247 244 243
3 243 242 248
3 245 249 233
3 249 226 233
3 244 236 243
