ply
format ascii 1.0
element vertex 250
property float x
property float y
property float z
element face 500
property list uchar int vertex_indices
end_header
-0.645344 -0.196791 -0.561998
-0.653595 -0.194418 -0.223257
-0.673134 -0.120494 -0.597165
-0.660540 -0.135657 -0.128182
-0.712938 -0.006193 -0.222617
-0.705647 0.008595 -0.579714
-0.698674 0.031120 -0.133378
-0.688005 0.133720 -0.567465
-0.656536 0.176686 -0.193467
-0.655329 0.119927 -0.115623
-0.647963 0.190092 -0.598507
-0.662945 0.208210 -0.513363
-0.506858 -0.311346 -0.320705
-0.591345 -0.191068 -0.668373
-0.524959 -0.134230 -0.761172
-0.654984 -0.036870 -0.089359
-0.523416 0.011563 -0.775653
-0.510810 0.140936 -0.762910
-0.537215 0.289005 -0.293160
-0.432689 -0.317483 -0.503406
-0.601621 -0.228772 -0.163237
-0.580570 -0.156441 -0.087003
-0.409164 -0.053397 0.046845
-0.591770 0.008970 -0.057022
-0.589107 0.176419 -0.108005
-0.590831 0.238935 -0.181000
-0.434942 0.322448 -0.495638
-0.425393 -0.333844 -0.325391
-0.434264 -0.283591 -0.160340
-0.411842 -0.204160 -0.725319
-0.364021 -0.188637 0.018271
-0.422471 0.097421 0.034525
-0.342016 0.207323 0.022889
-0.443913 0.278965 -0.164777
-0.422956 0.212663 -0.726783
-0.434295 0.322569 -0.291167
-0.361081 -0.296523 -0.188812
-0.435137 -0.083934 -0.800820
-0.416724 0.027793 -0.814198
-0.435646 0.126348 -0.795058
-0.327282 -0.326935 -0.509316
-0.329505 -0.319823 -0.574549
-0.341084 -0.311340 -0.370980
-0.165805 -0.259041 -0.480774
-0.270504 -0.242925 -0.159920
-0.303553 -0.232993 0.002922
-0.285217 -0.124162 0.125123
-0.297317 0.119430 0.117887
-0.298072 0.252520 -0.044510
-0.220689 0.228833 -0.369925
-0.263127 0.238659 -0.134182
-0.361177 0.305852 -0.260780
-0.319255 0.328638 -0.587131
-0.341034 0.336830 -0.506871
-0.131168 -0.273295 -0.644865
-0.198223 -0.249014 0.042224
-0.175839 -0.185972 -0.384085
-0.181013 -0.119654 -0.144838
-0.233877 -0.207332 0.116848
-0.127117 -0.126851 -0.779116
-0.177513 -0.094577 -0.321378
-0.180635 -0.193376 0.181983
-0.254571 -0.041846 0.194584
-0.201569 -0.026934 0.261073
-0.080697 -0.026378 -0.781880
-0.242959 0.089854 0.209277
-0.192600 0.117224 0.253823
-0.125945 0.125001 -0.779212
-0.220588 0.165620 -0.258975
-0.184090 0.208333 0.181695
-0.192193 0.152594 -0.121978
-0.234862 0.235031 0.051717
-0.114312 0.207466 -0.735486
-0.139765 0.278414 -0.655889
-0.171605 -0.295195 -0.585285
-0.164650 -0.213133 -0.049112
-0.040060 -0.264819 0.056731
-0.071403 -0.284921 0.115750
-0.039327 -0.163695 -0.742914
-0.184123 -0.035832 -0.288486
-0.125350 -0.101411 0.307009
-0.120241 0.015623 -0.107648
-0.110816 0.048709 0.332178
-0.162085 0.063068 -0.345613
-0.187387 0.056610 -0.222826
-0.181063 0.209997 -0.043184
-0.071289 0.283563 0.119584
-0.169057 0.298568 -0.576921
-0.033434 -0.278809 0.194479
-0.008019 -0.201986 -0.486476
-0.066644 -0.203000 0.284931
-0.119538 -0.125398 -0.085123
-0.062989 -0.036256 -0.408849
-0.050294 0.117291 -0.426522
-0.142421 0.121956 -0.085260
-0.114351 0.210340 0.255151
-0.029351 0.234212 -0.506684
-0.023229 0.275156 0.203980
-0.063749 0.265221 0.051248
-0.009847 -0.251636 -0.601834
0.037561 -0.282165 0.137695
0.037029 -0.206919 -0.685808
-0.008752 -0.180016 -0.015168
0.114077 -0.187015 -0.431828
-0.001223 -0.163757 0.380637
0.030843 -0.075759 -0.412198
0.046996 -0.140647 0.475767
-0.067696 -0.068494 0.365458
-0.025935 -0.055714 0.429828
0.028857 -0.021367 0.521684
0.072838 -0.082708 -0.730883
0.036531 -0.082312 -0.032693
0.013699 0.064989 -0.034383
-0.051273 0.062537 0.390926
0.061108 0.129762 0.509527
-0.033108 0.142021 -0.748290
-0.029195 0.221517 0.304635
0.022992 0.209515 0.372121
0.063735 0.187043 -0.448578
0.019911 0.207440 0.023232
0.032046 0.203607 -0.675071
0.001703 0.263234 -0.592430
0.035909 0.266903 0.107772
0.113107 -0.269992 0.272367
0.036368 -0.254507 0.304991
0.107119 -0.236743 0.385769
0.211821 -0.059503 0.048134
0.030669 0.063793 -0.410887
0.184050 0.064185 0.710322
0.119392 0.244306 -0.518483
0.100494 0.255929 0.318462
0.139236 -0.238177 -0.509767
0.080884 -0.240977 -0.587416
0.196387 -0.182583 0.091425
0.254639 -0.223913 0.190067
0.124281 -0.202551 -0.627700
0.191064 -0.228334 0.504968
0.124520 -0.079555 -0.706134
0.249280 -0.146008 -0.287710
0.119246 -0.042847 -0.362676
0.111567 0.015004 -0.712992
0.188305 0.072135 -0.644075
0.143217 0.143788 -0.384412
0.128825 0.178543 -0.647755
0.206811 0.160576 0.093781
0.190148 0.233625 0.469045
0.108389 0.239470 -0.599650
0.207503 0.231248 0.207796
0.208849 -0.232369 -0.418708
0.207189 -0.224091 0.336974
0.267698 -0.194981 0.442270
0.212935 -0.201034 0.670327
0.420635 -0.095187 -0.423325
0.292825 -0.145610 0.270173
0.295621 -0.085417 0.342280
0.241413 -0.015863 -0.263546
0.289199 -0.111781 -0.192683
0.260195 -0.073824 0.043778
0.283359 0.058595 -0.178238
0.275760 0.163453 -0.279332
0.279019 0.149870 0.043295
0.502992 0.163644 0.905247
0.212162 0.208355 -0.546040
0.289226 0.163080 0.280136
0.279810 0.123666 0.334615
0.210401 0.224974 0.334790
0.193625 0.220009 -0.406770
0.270433 0.196976 0.465565
0.305062 -0.241994 -0.383680
0.312773 -0.204174 0.548335
0.344372 -0.223983 -0.246044
0.357361 -0.223991 0.032666
0.309406 -0.218529 0.137768
0.283327 -0.222932 0.683770
0.332795 -0.146978 0.483520
0.321853 -0.102532 0.431750
0.428043 -0.058640 -0.429446
0.336028 -0.003351 0.285483
0.329623 0.043450 0.435159
0.309505 0.169505 -0.195069
0.329595 0.139780 0.501695
0.276167 0.206077 0.133987
0.325078 0.232147 0.652413
0.305916 0.242051 -0.383381
0.339629 0.229799 -0.261539
0.356682 0.226085 0.071502
0.332802 0.207022 0.576102
0.427553 -0.245227 -0.217545
0.432430 -0.262127 -0.039920
0.423137 -0.239564 0.108300
0.406955 -0.232252 0.663487
0.513814 -0.182178 -0.216946
0.354487 -0.192395 0.198095
0.491732 -0.130766 0.916693
0.388472 0.015203 0.500989
0.499927 -0.022867 0.964248
0.603677 0.079886 -0.256219
0.526284 0.082076 0.975972
0.400754 0.106029 0.258708
0.567284 0.166263 -0.208733
0.379352 0.204122 0.188743
0.381385 0.245612 0.670545
0.429193 0.248765 -0.224498
0.440843 0.264316 -0.040282
0.436700 0.242904 0.100818
0.436664 -0.249812 0.712815
0.494894 -0.182250 0.181062
0.496959 -0.152289 0.626538
0.414233 -0.093045 0.533596
0.501773 -0.048549 0.219689
0.495051 0.143693 0.618454
0.500635 0.250945 0.752695
0.495654 -0.247871 -0.036082
0.482512 -0.239190 0.714099
0.561349 -0.159490 0.093319
0.516478 -0.245975 0.784354
0.553046 -0.222550 0.868499
0.607975 -0.052306 -0.188559
0.503572 0.010748 0.572424
0.600884 0.009707 0.110993
0.512158 0.105243 0.208469
0.543804 0.170364 0.091823
0.469201 0.236985 0.697038
0.565907 0.235979 0.855724
0.492899 0.250633 -0.035725
0.577806 -0.219641 0.744507
0.679175 -0.226350 0.809912
0.652568 -0.170138 0.721318
0.685370 -0.045907 0.664424
0.883136 -0.083919 0.964281
0.646172 0.080654 -0.170254
0.877622 0.051313 0.984586
0.666982 0.129087 0.693824
0.570251 0.221661 0.734148
0.679187 0.233813 0.806942
0.864611 -0.196378 0.892473
0.884951 0.127342 0.949773
0.833279 0.219991 0.882770
0.948443 -0.128048 0.754021
0.905371 0.215030 0.832989
0.914442 -0.209751 0.832753
0.954431 0.124632 0.767076
0.958795 -0.007606 0.714420
1.004155 0.105531 0.837724
1.020329 -0.122368 0.813805
0.975368 -0.103720 0.916785
1.043303 -0.034670 0.756460
1.051700 -0.022844 0.859243
0.972532 0.031691 0.942545
1.073538 -0.032596 0.801498
3 0 2 1
3 2 4 1
3 1 4 3
3 5 2 16
3 2 5 4
3 3 4 6
3 3 6 15
3 15 6 9
3 7 5 16
3 5 7 4
3 4 7 8
3 4 8 6
3 6 8 9
3 7 10 11
3 7 11 8
3 12 0 1
3 20 12 1
3 1 3 20
3 13 14 2
3 0 13 2
3 21 20 3
3 21 3 15
3 16 2 14
3 21 15 23
3 23 15 9
3 7 16 17
3 23 9 24
3 7 17 10
3 8 25 24
3 9 8 24
3 11 18 8
3 25 8 18
3 13 0 19
3 12 19 0
3 12 20 28
3 21 28 20
3 28 21 30
3 23 22 21
3 33 24 25
3 24 33 32
3 10 26 11
3 18 11 26
3 18 33 25
3 27 19 12
3 28 27 12
3 29 13 19
3 29 14 13
3 29 37 14
3 21 22 30
3 37 16 14
3 37 38 16
3 31 22 23
3 38 39 16
3 39 17 16
3 24 31 23
3 32 31 24
3 39 34 17
3 17 34 10
3 34 26 10
3 35 18 26
3 18 35 33
3 19 40 41
3 41 29 19
3 40 19 42
3 19 27 42
3 42 27 36
3 36 27 28
3 28 45 36
3 30 45 28
3 31 32 47
3 48 32 33
3 48 33 51
3 52 26 34
3 26 52 53
3 53 51 26
3 26 51 35
3 33 35 51
3 29 41 54
3 40 42 43
3 36 45 44
3 42 36 44
3 44 45 55
3 30 46 45
3 59 37 29
3 46 30 22
3 59 64 37
3 64 38 37
3 47 46 22
3 31 47 22
3 46 47 62
3 32 48 71
3 47 32 71
3 49 50 51
3 50 48 51
3 73 52 34
3 49 51 53
3 41 74 54
3 74 41 40
3 74 40 43
3 78 29 54
3 43 42 56
3 44 56 42
3 57 44 75
3 44 55 75
3 45 58 55
3 55 58 61
3 29 78 59
3 44 60 56
3 44 57 60
3 45 46 58
3 79 60 57
3 58 46 61
3 61 46 62
3 61 62 63
3 67 38 64
3 47 65 62
3 62 65 63
3 63 65 66
3 67 39 38
3 83 84 68
3 84 70 68
3 65 47 69
3 66 65 69
3 72 39 67
3 49 83 68
3 72 34 39
3 68 70 50
3 70 85 50
3 47 71 69
3 50 49 68
3 85 48 50
3 48 85 71
3 72 73 34
3 87 49 53
3 87 52 73
3 53 52 87
3 75 55 76
3 77 76 55
3 77 55 61
3 77 61 88
3 88 61 90
3 90 61 80
3 91 57 75
3 63 80 61
3 57 91 81
3 82 80 63
3 60 79 83
3 79 84 83
3 79 57 84
3 57 81 84
3 66 82 63
3 84 81 70
3 81 94 70
3 95 82 66
3 93 83 49
3 70 94 85
3 69 95 66
3 87 96 49
3 85 98 71
3 86 69 71
3 69 86 97
3 69 97 95
3 98 86 71
3 54 74 99
3 43 99 74
3 101 78 54
3 54 99 101
3 43 89 99
3 102 75 76
3 43 56 89
3 102 91 75
3 92 89 56
3 56 60 92
3 90 80 107
3 78 64 59
3 111 81 91
3 107 80 82
3 92 83 93
3 60 83 92
3 111 112 81
3 107 82 113
3 112 94 81
3 64 115 67
3 113 82 116
3 116 82 95
3 115 72 67
3 93 49 96
3 112 85 94
3 72 115 120
3 73 120 121
3 73 72 120
3 96 87 121
3 119 98 85
3 97 116 95
3 121 87 73
3 77 88 100
3 76 77 100
3 100 88 123
3 88 124 123
3 90 124 88
3 78 101 110
3 104 124 90
3 105 103 89
3 111 91 102
3 92 105 89
3 107 104 90
3 104 107 108
3 104 108 106
3 106 108 109
3 64 78 110
3 105 92 127
3 113 108 107
3 108 113 109
3 109 113 114
3 115 64 110
3 110 120 115
3 92 93 127
3 116 117 113
3 113 117 114
3 118 93 96
3 93 118 127
3 119 85 112
3 129 96 121
3 96 129 118
3 119 122 98
3 98 122 86
3 122 97 86
3 123 124 125
3 132 135 99
3 135 101 99
3 89 131 132
3 99 89 132
3 89 103 131
3 76 100 133
3 101 135 110
3 102 76 133
3 104 125 124
3 125 104 106
3 125 106 136
3 133 126 111
3 102 133 111
3 135 137 110
3 103 105 139
3 137 140 110
3 112 111 126
3 139 105 127
3 140 120 110
3 139 127 142
3 114 128 109
3 140 143 120
3 142 127 118
3 112 144 119
3 120 143 146
3 117 130 145
3 117 145 114
3 121 120 146
3 121 146 129
3 119 144 122
3 144 147 122
3 117 116 130
3 147 97 122
3 116 97 130
3 97 147 130
3 123 134 100
3 132 131 135
3 131 103 148
3 133 100 134
3 134 123 149
3 123 125 149
3 149 125 136
3 103 138 148
3 135 152 137
3 139 138 103
3 138 139 155
3 109 151 106
3 141 140 137
3 155 142 159
3 139 142 155
3 126 144 112
3 143 140 141
3 161 128 114
3 143 162 146
3 118 166 142
3 146 162 129
3 129 166 118
3 147 165 130
3 130 165 145
3 131 148 168
3 150 149 136
3 150 136 169
3 169 136 173
3 131 168 135
3 133 134 172
3 136 106 151
3 136 151 173
3 153 134 149
3 149 154 153
3 149 150 154
3 138 155 156
3 172 157 133
3 157 126 133
3 156 155 158
3 156 158 157
3 155 159 158
3 157 160 144
3 126 157 144
3 158 160 157
3 143 141 162
3 144 160 181
3 163 164 165
3 142 166 159
3 144 181 147
3 147 163 165
3 164 167 165
3 145 182 114
3 114 182 161
3 183 129 162
3 183 166 129
3 167 145 165
3 170 168 148
3 169 173 190
3 135 168 191
3 138 170 148
3 170 138 156
3 170 156 171
3 192 172 134
3 169 174 150
3 135 191 152
3 171 156 157
3 171 157 172
3 192 134 153
3 154 150 175
3 150 174 175
3 137 152 176
3 177 192 153
3 153 154 177
3 175 178 154
3 141 137 176
3 154 164 177
3 154 178 164
3 163 198 177
3 177 164 163
3 159 179 158
3 158 179 160
3 198 163 200
3 167 164 178
3 178 180 167
3 162 199 183
3 166 184 159
3 159 184 179
3 179 184 185
3 179 185 160
3 181 160 185
3 181 200 147
3 200 163 147
3 180 186 167
3 166 183 184
3 181 185 200
3 145 167 186
3 186 201 182
3 186 182 145
3 168 170 187
3 188 187 170
3 171 188 170
3 189 188 171
3 172 189 171
3 172 192 189
3 192 206 189
3 190 173 205
3 168 187 191
3 173 151 193
3 208 174 169
3 206 192 209
3 209 192 177
3 174 194 175
3 174 208 194
3 109 193 151
3 175 194 178
3 195 193 109
3 141 176 196
3 128 195 109
3 209 177 198
3 197 195 128
3 162 141 196
3 178 194 180
3 128 161 197
3 194 186 180
3 199 202 183
3 202 184 183
3 203 184 202
3 185 184 203
3 204 185 203
3 204 200 185
3 201 211 182
3 187 188 212
3 212 188 189
3 213 205 215
3 187 212 191
3 212 189 214
3 189 206 214
3 205 213 190
3 215 205 173
3 173 216 215
3 207 169 190
3 207 190 213
3 193 216 173
3 207 208 169
3 207 218 208
3 218 194 208
3 220 209 198
3 220 198 200
3 218 210 194
3 199 162 196
3 186 194 210
3 200 221 220
3 186 210 222
3 199 224 202
3 224 221 204
3 221 200 204
3 222 201 186
3 222 211 201
3 224 203 202
3 204 203 224
3 212 214 191
3 213 215 225
3 213 225 207
3 217 152 191
3 209 214 206
3 176 152 217
3 219 214 209
3 207 228 218
3 229 193 195
3 196 176 217
3 231 195 197
3 209 220 219
3 221 219 220
3 218 232 210
3 210 233 222
3 223 161 182
3 199 221 224
3 211 222 233
3 234 211 233
3 211 234 223
3 211 223 182
3 225 215 226
3 226 215 216
3 226 216 235
3 207 225 227
3 225 226 227
3 235 216 193
3 191 214 217
3 207 227 228
3 214 219 217
3 196 217 230
3 217 219 230
3 228 232 218
3 219 221 230
3 199 196 230
3 230 221 199
3 233 210 232
3 232 234 233
3 236 161 237
3 237 161 223
3 223 234 237
3 238 227 226
3 239 237 234
3 226 240 238
3 240 226 235
3 235 193 229
3 231 197 236
3 236 197 161
3 241 234 232
3 241 239 234
3 238 228 227
3 238 242 228
3 229 195 231
3 235 229 245
3 248 245 229
3 231 248 229
3 242 232 228
3 242 241 232
3 248 231 236
3 243 248 236
3 239 243 237
3 236 237 243
3 240 244 238
3 240 235 244
3 235 245 244
3 244 246 238
3 247 244 245
3 246 242 238
3 245 248 247
3 241 242 246
3 246 243 241
3 247 248 243
3 243 239 241
3 244 249 246
3 244 247 249
3 249 243 246
3 249 247 243
