ply
format ascii 1.0
element vertex 252
property float x
property float y
property float z
element face 500
property list uchar int vertex_indices
end_header
-0.555011 -0.177295 -0.651243
-0.576595 -0.155936 -0.587088
-0.606021 0.014100 -0.657848
-0.617069 0.034000 -0.600967
-0.552723 0.178805 -0.653261
-0.567572 0.163994 -0.578957
-0.465437 -0.241006 -0.672527
-0.464769 -0.254899 -0.579245
-0.484506 -0.159934 -0.746661
-0.518701 -0.178553 -0.500566
-0.490861 -0.150775 -0.429458
-0.528723 -0.036016 -0.438114
-0.504405 -0.009123 -0.776971
-0.567138 0.006068 -0.503567
-0.493937 0.143155 -0.433770
-0.521406 0.136541 -0.738282
-0.510325 0.194532 -0.502839
-0.457707 0.256056 -0.582929
-0.445267 -0.235012 -0.463276
-0.429791 -0.182769 -0.344429
-0.428432 -0.137675 -0.267478
-0.414285 -0.123350 -0.193866
-0.482258 -0.020453 -0.361414
-0.452764 0.008678 -0.273156
-0.410674 -0.021907 -0.110561
-0.435674 0.039555 -0.190217
-0.412775 0.084581 -0.126054
-0.440339 0.162709 -0.343131
-0.437040 0.112157 -0.255103
-0.442123 0.237356 -0.456344
-0.450076 0.254111 -0.670076
-0.302477 -0.324147 -0.499460
-0.328275 -0.284522 -0.361283
-0.403049 -0.218372 -0.726813
-0.354832 -0.216216 -0.198282
-0.418148 -0.148761 -0.776575
-0.379698 -0.149816 -0.126123
-0.436205 -0.072467 -0.799414
-0.364431 -0.055236 -0.031736
-0.339486 0.007829 0.031932
-0.425023 0.005907 -0.811889
-0.428115 0.090116 -0.794020
-0.369507 0.072378 -0.038916
-0.404301 0.161994 -0.209672
-0.422967 0.213685 -0.724379
-0.376943 0.162367 -0.126094
-0.326017 0.237072 -0.176905
-0.338882 0.273832 -0.342407
-0.297521 0.321675 -0.512198
-0.284216 -0.321192 -0.578765
-0.370168 -0.278101 -0.652629
-0.221978 -0.322759 -0.232094
-0.309311 -0.193757 -0.049872
-0.303167 -0.124188 0.038902
-0.292926 -0.069375 0.110460
-0.290092 0.043153 0.139104
-0.320786 0.105448 0.026484
-0.274955 0.213455 -0.020414
-0.262236 0.200752 0.043625
-0.349472 0.274416 -0.665072
-0.284672 0.313385 -0.596333
-0.237155 -0.263797 -0.053363
-0.260917 -0.208435 0.032552
-0.211221 -0.226014 0.128920
-0.244676 -0.185255 0.113154
-0.237627 -0.112564 0.322494
-0.229922 -0.089275 0.420480
-0.246793 0.032330 0.346575
-0.228114 0.044009 0.429249
0.109134 0.066897 -0.799854
-0.269502 0.086359 0.174177
0.029937 0.134495 -0.787079
-0.254565 0.153670 0.134435
-0.180212 0.197902 0.353408
-0.192237 0.163879 0.432675
-0.207982 0.236072 0.112193
-0.170903 0.352715 -0.245269
-0.173139 0.309529 -0.060747
-0.191985 0.364214 -0.416734
-0.148779 -0.374253 -0.499116
-0.145769 -0.387631 -0.412784
-0.042460 -0.427685 -0.302091
-0.091600 -0.364452 -0.098822
-0.098657 -0.317089 0.090875
0.029516 -0.263328 -0.699407
-0.131406 -0.274388 0.234379
-0.169212 -0.200475 0.383239
0.064078 -0.214077 -0.756084
-0.127483 -0.206474 0.501816
-0.105447 -0.177751 0.579409
-0.188853 -0.107724 0.494915
-0.145064 -0.064421 0.575802
-0.190302 0.067255 0.501303
-0.140029 0.096722 0.568394
0.114884 0.187811 -0.718180
-0.139624 0.199223 0.487309
-0.080425 0.206335 0.583746
-0.126235 0.306978 0.080149
-0.112524 0.284926 0.251754
-0.179128 0.340411 -0.560352
-0.175011 0.363210 -0.500326
-0.024194 0.419795 -0.336784
-0.031640 -0.399367 -0.436832
-0.055118 -0.309037 0.283774
-0.053640 -0.244319 0.557502
-0.039646 -0.004763 0.733003
0.137867 0.000241 -0.793793
-0.028236 0.104326 0.741660
-0.050801 0.253859 0.545413
0.012943 0.279817 -0.649535
-0.000775 0.293918 0.430622
-0.016563 0.345505 0.207374
-0.052630 0.402878 -0.422755
0.033406 0.424986 -0.195012
0.034150 -0.434154 -0.183569
0.015407 -0.385682 0.013479
0.036556 -0.349793 0.232817
0.014576 -0.293731 0.469137
0.043384 -0.281927 0.577137
0.021428 -0.248358 0.657938
0.021847 -0.201519 0.753955
0.039431 -0.142357 0.889469
-0.026111 -0.100449 0.743589
0.015864 -0.052820 0.922951
-0.008430 -0.018623 0.815620
0.045604 -0.089656 0.955621
0.068757 0.058689 0.946822
0.011327 0.085564 0.877756
0.023553 0.196730 0.764351
0.048943 0.172356 0.883572
-0.015634 0.372363 0.034261
0.060995 0.351788 0.226965
-0.042390 0.379755 -0.487928
0.048484 -0.434564 -0.277716
0.102628 -0.388049 0.055367
0.137279 -0.283415 -0.601383
0.167727 -0.347482 -0.413456
0.119093 -0.323509 0.316848
0.105543 -0.281430 0.508406
0.126188 -0.205088 -0.731758
0.113943 -0.257455 0.771962
0.109470 -0.218106 0.871963
0.101064 -0.117728 -0.788188
0.101013 0.265148 0.651420
0.118055 0.253399 0.818535
0.133169 0.213767 0.890083
0.136016 0.267242 -0.625612
0.050232 0.289277 0.550854
0.055332 0.332694 -0.547471
0.128927 0.288185 0.381887
0.109796 0.279840 0.515270
0.057178 0.405241 -0.372326
0.116581 0.376409 0.092082
0.068396 0.430630 -0.266285
0.189136 -0.386817 -0.100510
0.300196 -0.330851 -0.225244
0.122396 -0.264838 0.654000
0.314642 -0.225608 -0.500943
0.188282 -0.259818 0.352614
0.107935 -0.150267 0.945871
0.182722 -0.088250 -0.758284
0.124062 -0.060595 0.983121
0.239236 0.111046 -0.696693
0.240811 0.221227 -0.605239
0.197325 0.264600 0.301636
0.195062 0.214545 0.428610
0.183472 0.234537 0.593059
0.208274 0.251251 0.671259
0.239515 0.306468 -0.415396
0.236391 0.370414 -0.197345
0.200987 0.383732 -0.094782
0.238409 -0.311191 0.140437
0.312750 -0.264808 -0.425821
0.252943 -0.266013 0.796877
0.199161 -0.266853 0.841208
0.192354 -0.213398 0.432462
0.202553 -0.201539 0.577278
0.244562 -0.224538 0.663590
0.272670 -0.237991 0.881751
0.263881 -0.157959 0.348993
0.394265 -0.121617 -0.499751
0.255808 -0.083823 0.438631
0.297743 -0.032073 0.560783
0.271945 0.045826 0.429769
0.356875 0.042738 0.977176
0.264027 0.123107 0.556251
0.339207 0.126755 0.952116
0.259566 0.179690 -0.637991
0.263707 0.155758 0.358937
0.268433 0.199432 0.642366
0.256275 0.267529 0.794427
0.199414 0.268387 0.843203
0.211293 0.332989 0.120347
0.354295 -0.312884 -0.140212
0.389934 -0.271905 -0.035331
0.420184 -0.219200 0.072301
0.348109 -0.208476 0.191778
0.343843 -0.226038 0.748867
0.350435 -0.231335 0.832265
0.279342 -0.163184 0.620647
0.366835 -0.166967 0.681740
0.342222 -0.100376 0.954909
0.313719 -0.037559 0.347607
0.407663 0.004802 -0.519499
0.343747 0.069250 0.309631
0.347200 0.144078 0.267233
0.377230 0.132670 0.657817
0.356981 0.186386 -0.503212
0.330070 0.220658 0.877043
0.366147 0.234202 -0.398872
0.387089 0.241088 0.068890
0.347272 0.217531 0.182173
0.337620 0.223924 0.732132
0.365681 0.226684 0.819486
0.387580 0.272996 -0.210936
0.341154 0.316735 -0.090955
0.427306 -0.237789 -0.217848
0.355521 -0.204195 0.895994
0.423849 -0.175888 -0.401534
0.444271 -0.162486 0.119179
0.411140 -0.149372 0.729652
0.419202 -0.108037 0.882817
0.414261 -0.120229 0.191612
0.401504 -0.095233 0.666463
0.436239 -0.031289 0.200554
0.428591 0.003036 0.947401
0.423037 0.044490 0.655235
0.397876 0.119374 -0.502485
0.442016 0.151428 -0.393641
0.404326 0.153841 0.185963
0.402554 0.176123 0.732393
0.413819 0.115411 0.901012
0.397490 0.204603 0.132974
0.446475 0.206690 -0.294558
0.426091 0.243909 -0.046409
0.480056 -0.163844 0.022042
0.496459 -0.128752 -0.267452
0.462903 -0.076128 -0.423352
0.483650 -0.047252 0.124388
0.447311 -0.041530 0.723902
0.512982 -0.021941 -0.344944
0.454951 0.014312 0.885290
0.463835 0.048627 -0.431446
0.510477 0.049855 -0.336959
0.428711 0.076338 0.199068
0.454583 0.130518 0.119903
0.435183 0.094150 0.698091
0.489967 0.147116 -0.231245
0.477137 0.158250 0.034628
0.525106 -0.062650 0.017544
0.530257 0.000849 -0.263442
0.517957 0.046559 0.031549
3 2 0 12
3 0 2 1
3 1 2 3
3 1 3 13
3 2 4 3
3 3 4 5
3 3 5 13
3 6 8 0
3 7 6 0
3 1 7 0
3 1 9 7
3 10 9 11
3 0 8 12
3 13 9 1
3 9 13 11
3 10 11 22
3 11 13 14
3 11 14 22
3 15 2 12
3 2 15 4
3 5 16 13
3 13 16 14
3 17 5 4
3 17 16 5
3 35 8 33
3 33 8 6
3 9 18 7
3 18 9 10
3 18 10 19
3 35 37 8
3 37 12 8
3 22 19 10
3 19 22 20
3 20 22 23
3 20 23 21
3 37 40 12
3 21 23 25
3 21 25 24
3 40 41 12
3 24 25 26
3 41 15 12
3 14 27 22
3 22 27 23
3 23 27 28
3 23 28 25
3 41 44 15
3 28 43 25
3 25 43 26
3 15 44 4
3 17 29 16
3 16 29 14
3 14 29 27
3 4 44 30
3 17 4 30
3 50 7 49
3 7 31 49
3 6 50 33
3 7 50 6
3 7 18 31
3 31 18 32
3 32 18 19
3 19 34 32
3 34 21 36
3 19 20 34
3 34 20 21
3 21 24 36
3 36 24 38
3 38 39 53
3 42 38 24
3 26 42 24
3 38 42 39
3 42 56 39
3 26 43 45
3 26 45 42
3 28 27 43
3 45 43 46
3 59 30 44
3 29 47 27
3 27 47 43
3 47 46 43
3 59 17 30
3 29 17 48
3 47 29 48
3 59 60 17
3 60 48 17
3 51 32 34
3 51 34 61
3 34 52 61
3 61 52 62
3 52 34 36
3 62 52 53
3 38 52 36
3 52 38 53
3 53 39 54
3 55 54 39
3 69 41 40
3 69 71 41
3 56 55 39
3 71 44 41
3 45 57 42
3 42 57 56
3 55 56 72
3 56 57 58
3 56 58 72
3 45 46 57
3 76 46 47
3 31 79 49
3 32 80 31
3 80 79 31
3 32 51 80
3 33 50 84
3 61 62 63
3 33 87 35
3 62 53 64
3 62 64 63
3 86 63 65
3 63 64 65
3 86 65 66
3 54 64 53
3 64 54 65
3 54 55 65
3 65 55 67
3 65 67 66
3 66 67 68
3 66 68 90
3 90 68 92
3 55 70 67
3 55 72 70
3 70 72 67
3 67 72 73
3 67 73 68
3 68 73 74
3 68 74 92
3 72 58 75
3 73 72 75
3 94 59 44
3 57 75 58
3 46 76 77
3 57 46 77
3 78 47 48
3 76 47 78
3 99 48 60
3 100 48 99
3 48 100 78
3 81 80 51
3 51 82 81
3 50 49 84
3 61 82 51
3 61 83 82
3 61 63 83
3 87 33 84
3 85 83 63
3 63 86 85
3 86 66 90
3 86 90 88
3 88 90 89
3 89 90 91
3 90 92 91
3 91 92 93
3 91 93 105
3 106 69 40
3 92 74 95
3 92 95 93
3 93 95 96
3 74 73 95
3 109 59 94
3 97 75 57
3 98 75 97
3 73 75 98
3 109 60 59
3 57 77 97
3 76 78 101
3 100 112 78
3 112 101 78
3 80 102 79
3 81 102 80
3 81 82 114
3 102 84 79
3 84 49 79
3 103 83 85
3 85 86 103
3 103 86 117
3 86 88 117
3 88 104 117
3 89 104 88
3 104 89 119
3 89 91 122
3 91 105 122
3 93 107 105
3 96 107 93
3 108 96 95
3 110 73 98
3 73 110 95
3 110 108 95
3 109 99 60
3 98 97 111
3 111 110 98
3 132 100 99
3 76 130 77
3 130 97 77
3 132 112 100
3 113 76 101
3 76 113 130
3 102 81 133
3 114 133 81
3 114 82 115
3 135 84 102
3 83 115 82
3 116 115 83
3 103 116 83
3 116 103 117
3 117 104 118
3 118 104 119
3 119 89 120
3 142 35 87
3 122 120 89
3 120 122 121
3 121 123 125
3 142 37 35
3 121 122 124
3 121 124 123
3 106 40 37
3 122 105 124
3 125 123 126
3 123 124 127
3 123 127 126
3 105 107 124
3 124 107 127
3 126 127 129
3 96 128 107
3 107 128 127
3 127 128 129
3 71 94 44
3 96 143 128
3 108 143 96
3 108 147 143
3 148 99 109
3 131 110 111
3 108 110 147
3 132 99 148
3 111 97 130
3 131 111 130
3 132 151 112
3 132 148 151
3 151 101 112
3 151 153 101
3 101 153 113
3 133 114 154
3 114 134 154
3 134 114 115
3 134 115 116
3 102 136 135
3 102 133 136
3 134 116 137
3 117 137 116
3 138 137 117
3 117 118 138
3 84 135 139
3 138 118 156
3 119 156 118
3 119 140 156
3 139 87 84
3 140 120 141
3 87 139 142
3 140 119 120
3 121 141 120
3 121 159 141
3 159 121 125
3 125 161 159
3 142 106 37
3 161 125 126
3 145 126 129
3 69 94 71
3 144 129 128
3 145 129 144
3 146 109 94
3 128 143 144
3 147 150 143
3 146 148 109
3 110 131 149
3 150 110 149
3 150 147 110
3 130 113 152
3 131 130 152
3 155 133 154
3 136 133 155
3 154 134 171
3 171 134 137
3 135 157 139
3 171 137 158
3 138 158 137
3 156 173 177
3 156 140 173
3 173 140 174
3 158 138 175
3 138 156 176
3 175 138 176
3 176 156 177
3 174 140 141
3 178 174 141
3 178 141 159
3 160 142 139
3 139 180 160
3 106 142 160
3 184 161 126
3 162 69 106
3 186 126 145
3 94 69 162
3 162 187 94
3 94 187 163
3 163 146 94
3 144 191 145
3 165 149 164
3 150 149 165
3 166 150 165
3 143 150 166
3 167 143 166
3 167 190 143
3 190 144 143
3 190 191 144
3 146 168 148
3 164 131 152
3 164 152 192
3 164 149 131
3 168 151 148
3 151 168 169
3 152 170 192
3 169 153 151
3 153 169 170
3 113 153 170
3 170 152 113
3 155 154 193
3 193 154 194
3 194 154 171
3 136 172 135
3 172 136 155
3 194 171 195
3 195 171 196
3 135 172 157
3 173 197 177
3 175 179 158
3 173 174 178
3 177 199 176
3 201 178 159
3 181 179 175
3 175 176 181
3 176 182 181
3 176 199 182
3 159 161 201
3 203 106 160
3 181 182 183
3 162 106 203
3 183 182 185
3 165 188 183
3 183 185 165
3 185 166 165
3 185 189 166
3 188 165 164
3 208 186 145
3 167 166 189
3 167 189 212
3 191 190 208
3 145 191 208
3 163 168 146
3 211 164 192
3 212 190 167
3 215 210 170
3 170 210 192
3 169 215 170
3 198 197 173
3 196 171 158
3 198 173 178
3 198 178 217
3 139 157 180
3 179 196 158
3 177 200 199
3 200 177 197
3 217 178 201
3 202 222 179
3 179 181 202
3 200 223 199
3 223 182 199
3 223 226 182
3 181 183 202
3 201 161 184
3 202 183 204
3 226 206 182
3 206 185 182
3 186 184 126
3 188 205 204
3 183 188 204
3 206 189 185
3 187 207 163
3 187 227 207
3 164 211 205
3 188 164 205
3 207 209 163
3 212 189 206
3 190 213 208
3 209 168 163
3 209 214 168
3 192 210 211
3 190 212 213
3 169 168 214
3 169 214 215
3 155 216 172
3 155 193 216
3 193 194 216
3 172 218 157
3 172 216 218
3 195 196 219
3 157 218 180
3 200 197 220
3 197 198 220
3 198 221 220
3 198 217 221
3 217 201 221
3 222 219 196
3 179 222 196
3 218 237 180
3 223 200 220
3 160 180 203
3 222 202 224
3 201 225 221
3 224 202 204
3 201 184 225
3 244 224 204
3 231 225 184
3 162 203 227
3 205 244 204
3 226 246 206
3 184 186 231
3 187 162 227
3 229 244 205
3 206 246 230
3 245 229 232
3 230 231 213
3 231 208 213
3 231 186 208
3 227 228 207
3 228 209 207
3 228 233 209
3 210 245 232
3 229 211 232
3 205 211 229
3 212 206 230
3 230 213 212
3 211 210 232
3 233 214 209
3 214 234 215
3 215 234 210
3 235 216 194
3 195 235 194
3 216 236 218
3 216 235 236
3 235 195 219
3 218 236 237
3 238 235 219
3 222 238 219
3 239 223 220
3 221 239 220
3 237 203 180
3 236 240 237
3 249 235 238
3 222 224 238
3 221 241 239
3 221 225 241
3 237 242 203
3 237 240 242
3 240 243 242
3 251 249 238
3 224 244 238
3 223 239 226
3 245 251 238
3 238 244 245
3 239 246 226
3 239 241 246
3 225 231 241
3 203 242 227
3 248 251 245
3 241 231 246
3 242 228 227
3 242 243 228
3 243 247 228
3 245 244 229
3 231 230 246
3 228 247 233
3 248 234 247
3 248 210 234
3 245 210 248
3 214 233 247
3 234 214 247
3 236 235 249
3 250 240 236
3 236 249 250
3 249 251 250
3 243 240 250
3 247 243 250
3 250 251 247
3 251 248 247
