ply
format ascii 1.0
element vertex 252
property float x
property float y
property float z
element face 500
property list uchar int vertex_indices
end_header
-0.643428 -0.157015 0.568802
-0.646737 -0.171652 0.641740
-0.701607 -0.080656 0.652857
-0.689813 0.049982 0.577390
-0.706089 0.084675 0.631576
-0.642531 0.174848 0.591554
-0.651358 0.156052 0.647392
-0.565418 -0.196502 0.522453
-0.560705 -0.144359 0.488141
-0.659139 -0.052594 0.684412
-0.573549 -0.039942 0.479351
-0.579477 0.109596 0.498682
-0.557600 0.196588 0.526800
-0.475834 -0.240585 0.596733
-0.510018 -0.025894 0.732636
-0.523736 0.123826 0.711616
-0.531177 0.216492 0.654946
-0.456860 0.249665 0.588561
-0.494575 -0.184715 0.683763
-0.336165 -0.181868 0.738346
-0.447051 -0.025085 -0.894474
-0.418205 -0.055572 0.765499
-0.408753 0.100330 -0.897209
-0.429305 0.078956 0.757685
-0.345466 0.251748 0.679994
-0.288627 -0.253468 0.671136
-0.321258 -0.192109 -0.872312
-0.362166 -0.157957 -0.815794
-0.343286 -0.206277 0.501948
-0.414223 -0.104882 -0.888779
-0.421106 -0.028199 -0.833139
-0.418037 0.000381 -0.951790
-0.341959 0.110790 -0.947355
-0.315365 0.007889 0.420343
-0.354174 0.158027 -0.817879
-0.293404 0.208010 0.485190
-0.341159 0.195861 -0.872310
-0.370837 0.197459 0.728078
-0.199007 -0.273821 0.574193
-0.300171 -0.208177 -0.806476
-0.214669 -0.249434 0.498647
-0.251403 -0.148114 -0.759971
-0.362990 -0.112953 0.454927
-0.336404 -0.083697 -0.957786
-0.274491 -0.155493 0.446816
-0.350212 -0.061376 0.790456
-0.339024 0.007355 -0.741488
-0.337222 0.056891 0.785966
-0.348000 0.015437 -0.985548
-0.257983 0.138399 -0.751960
-0.251935 0.144829 0.420419
-0.257012 0.228124 -0.832549
-0.199961 0.270584 0.573752
-0.172052 -0.232506 0.040823
-0.204966 -0.220512 0.407350
-0.255970 -0.204281 0.721046
-0.203764 -0.190269 -0.922544
-0.215620 -0.165271 -0.018025
-0.263982 -0.080904 0.343316
-0.244514 -0.088586 -0.046834
-0.281731 -0.051624 0.784711
0.436256 -0.020402 -0.995439
-0.253062 0.027725 -0.712353
-0.251752 -0.001909 -0.038218
-0.268980 0.048809 0.355624
0.428429 0.078100 -0.982701
-0.236020 0.095421 -0.027608
-0.259992 0.072911 0.778891
-0.185561 0.219300 0.058623
-0.239455 0.142307 0.353964
-0.267537 0.209993 0.713957
-0.179222 0.217942 -0.034943
-0.201313 0.238073 0.437913
-0.203370 -0.221773 -0.885997
-0.181843 -0.225980 -0.829251
-0.105104 -0.240244 0.068774
-0.096649 -0.245266 0.273431
-0.121817 -0.289338 0.496314
-0.137096 -0.212591 -0.080218
-0.113634 -0.177020 -0.187555
-0.194656 -0.089849 0.743937
-0.156087 -0.077247 -0.199432
-0.210918 -0.068330 -0.121652
-0.197236 0.029989 0.761149
-0.097727 0.049281 0.719645
-0.163832 0.075111 -0.190876
-0.211300 0.061588 -0.127517
0.293978 0.110428 -0.714087
-0.132557 0.203845 -0.129636
-0.135090 0.169036 0.703555
-0.107922 0.182516 -0.197665
-0.174227 0.234169 -0.877719
-0.120595 0.234829 0.657525
-0.117918 0.240511 0.000903
-0.099808 0.245652 0.238197
-0.102524 0.291959 0.469182
-0.026288 -0.284679 0.392756
-0.093475 -0.277953 0.585649
-0.045972 -0.248734 -0.091352
-0.043328 -0.209919 -0.193632
-0.027431 -0.183861 0.100464
-0.040681 -0.166248 0.189812
-0.032515 -0.210736 0.273641
-0.123128 -0.192291 0.672777
0.265154 -0.170600 -0.755016
-0.113484 -0.088775 -0.243473
-0.122345 0.040579 -0.243993
0.392511 0.172709 -0.942874
-0.050769 0.224274 -0.183645
-0.028959 0.174310 0.121994
-0.044168 0.198826 0.230658
-0.039606 0.242430 -0.077295
-0.033575 0.259492 0.345249
-0.031908 0.303200 0.436331
-0.019589 -0.306366 0.509566
-0.049463 -0.241538 0.015722
0.037540 -0.231477 -0.111101
-0.029543 -0.222587 0.657090
0.085611 -0.202092 -0.309870
0.118894 -0.182401 0.730913
0.023777 -0.065464 0.760561
-0.047195 -0.058586 -0.295541
0.044027 -0.057829 0.256542
-0.036468 -0.106156 0.720111
0.194148 0.039151 -0.480816
0.018226 0.018905 0.123079
0.003296 0.057833 0.189925
-0.043506 0.028355 0.728685
-0.037814 0.123370 -0.283794
0.028879 0.132741 0.267104
0.060747 0.084705 0.759827
-0.049176 0.181795 0.691099
0.115609 0.208456 -0.333542
0.069258 0.225475 0.688699
0.407574 0.233565 -0.882076
0.329746 0.243331 -0.815162
0.044196 0.190636 -0.040692
-0.009445 0.208844 0.017290
-0.038273 0.279018 0.598476
0.049204 0.292140 0.449328
-0.008134 0.309892 0.502348
0.055930 -0.289687 0.441523
0.096976 -0.296118 0.588340
0.363769 -0.225581 -0.876133
0.075924 -0.233933 -0.243279
0.024672 -0.225384 0.333712
0.071374 -0.160090 -0.036379
0.017292 -0.199025 0.022687
0.176804 -0.149498 -0.162930
0.427179 -0.121409 -0.964806
0.210210 -0.096894 -0.469333
0.056240 -0.036643 0.048342
0.255268 -0.044143 -0.710280
0.109186 0.035393 -0.034803
0.050433 0.093387 0.043347
0.189674 0.166014 -0.173701
0.085527 0.236617 -0.251160
0.035767 0.234647 -0.138713
0.099547 0.297430 0.585607
0.161128 -0.225479 -0.232238
0.102785 -0.178823 0.345430
0.284845 -0.222644 -0.418372
0.266986 -0.133462 0.417000
0.122007 -0.051157 0.297379
0.110057 -0.045730 0.793330
0.111595 0.076436 0.298995
0.194363 0.142814 -0.443021
0.297287 0.123450 0.428173
0.094766 0.196628 0.352948
0.214388 0.236455 -0.327231
0.269022 -0.275494 0.577135
0.240856 -0.281161 0.650937
0.230191 -0.238339 -0.331034
0.257078 -0.227731 0.481291
0.368003 -0.231541 -0.800563
0.341834 -0.182050 -0.510244
0.291622 -0.022300 0.401743
0.232392 0.041498 -0.156519
0.347827 0.063442 0.793249
0.273050 0.131744 -0.203585
0.331259 0.188269 0.741283
0.251122 0.228676 0.474739
0.283118 0.221699 -0.422876
0.184896 0.229306 -0.258609
0.269139 0.269990 0.572985
0.244223 0.273508 0.650383
0.269058 -0.200275 -0.267489
0.390174 -0.224730 0.675837
0.342357 -0.205567 0.731268
0.350380 -0.172827 -0.729312
0.344887 -0.151262 -0.269067
0.295823 -0.074821 -0.199043
0.342805 -0.083111 0.787647
0.334241 0.011701 -0.594438
0.329727 0.036915 -0.208007
0.433483 0.241499 -0.748447
0.329725 0.169392 -0.509241
0.272708 0.207427 -0.279263
0.423560 0.208489 0.679352
0.387994 -0.232847 -0.474185
0.371510 -0.234364 -0.402491
0.442102 -0.240761 -0.723859
0.418762 -0.197613 -0.597299
0.370132 -0.153925 0.496234
0.397308 -0.185724 -0.671687
0.559323 -0.163117 -0.487298
0.431430 -0.140352 0.732482
0.340062 -0.015553 -0.664454
0.364837 -0.051726 -0.234377
0.445161 -0.021571 0.498861
0.368403 0.130060 -0.667895
0.385409 0.176381 -0.583185
0.353480 0.125436 -0.257921
0.438267 0.115196 0.504773
0.442340 0.228931 -0.647669
0.551150 0.183644 -0.488755
0.343187 0.197141 0.500187
0.389076 0.231911 -0.490334
0.370194 0.244228 -0.423035
0.475819 -0.253121 -0.815320
0.522051 -0.243522 -0.625883
0.470378 -0.157740 0.583772
0.504237 -0.140152 0.641964
0.502668 -0.075177 -0.962304
0.527898 0.022291 -0.399247
0.435270 0.014606 0.765804
0.520527 -0.052237 0.669595
0.524165 0.041079 -0.948070
0.429246 0.150927 0.742296
0.477710 0.167933 0.592451
0.508854 0.121645 0.649933
0.481964 0.253514 -0.807754
0.520705 0.254859 -0.723983
0.537075 0.233167 -0.554585
0.537273 -0.249557 -0.751020
0.503524 -0.233493 -0.526110
0.530469 -0.203079 -0.851422
0.588870 -0.206504 -0.559671
0.531518 -0.040214 0.599156
0.515104 0.088588 0.566270
0.630513 0.135438 -0.825280
0.504581 0.170722 -0.904338
0.643104 0.175255 -0.749257
0.649564 -0.182930 -0.723328
0.651968 -0.096160 -0.573659
0.685994 -0.059393 -0.746139
0.618376 0.007924 -0.506976
0.701466 0.058922 -0.747123
0.623770 0.159633 -0.562193
0.638162 0.197740 -0.655701
0.653984 -0.167410 -0.658135
0.707473 0.026355 -0.677405
3 1 0 2
3 1 2 9
3 10 0 8
3 3 0 10
3 0 3 2
3 11 3 10
3 2 3 4
3 2 4 9
3 9 4 6
3 3 5 4
3 4 5 6
3 7 8 0
3 14 9 15
3 15 9 6
3 11 12 5
3 3 11 5
3 5 16 6
3 13 7 0
3 0 1 13
3 1 18 13
3 18 1 9
3 18 9 14
3 16 15 6
3 5 12 17
3 17 16 5
3 8 7 28
3 29 20 30
3 21 19 18
3 14 21 18
3 31 20 29
3 22 20 31
3 20 22 30
3 15 23 14
3 14 23 21
3 33 35 11
3 35 12 11
3 23 15 37
3 37 15 16
3 24 37 16
3 35 17 12
3 24 16 17
3 25 38 13
3 38 28 13
3 28 7 13
3 25 13 18
3 18 19 25
3 26 29 27
3 42 8 28
3 26 43 29
3 29 30 27
3 45 19 21
3 43 31 29
3 27 30 46
3 42 10 8
3 42 33 10
3 45 21 47
3 48 31 43
3 32 31 48
3 33 11 10
3 31 32 22
3 47 21 23
3 34 30 22
3 30 34 46
3 47 23 37
3 36 22 32
3 22 36 34
3 52 17 35
3 17 52 24
3 40 28 38
3 25 19 55
3 27 39 26
3 27 41 39
3 40 44 28
3 44 42 28
3 56 43 26
3 55 19 60
3 60 19 45
3 46 41 27
3 33 44 58
3 44 33 42
3 41 46 62
3 60 45 47
3 61 48 43
3 64 33 58
3 60 47 67
3 65 32 48
3 34 49 46
3 46 49 62
3 50 33 64
3 33 50 35
3 67 47 70
3 70 47 37
3 51 34 36
3 51 49 34
3 52 70 24
3 70 37 24
3 73 26 74
3 26 39 74
3 73 56 26
3 74 39 41
3 78 57 53
3 53 57 54
3 40 54 44
3 54 57 58
3 54 58 44
3 59 57 82
3 57 59 58
3 80 55 60
3 63 59 82
3 59 63 58
3 58 63 64
3 80 60 83
3 86 63 82
3 66 63 86
3 63 66 64
3 83 60 67
3 87 62 49
3 66 68 69
3 66 69 64
3 50 64 69
3 83 67 89
3 89 67 70
3 66 71 68
3 91 36 32
3 69 68 72
3 69 72 50
3 50 72 35
3 89 70 92
3 91 51 36
3 92 70 52
3 72 52 35
3 40 38 77
3 38 97 77
3 75 78 53
3 76 75 53
3 54 76 53
3 77 76 54
3 40 77 54
3 38 25 103
3 38 103 97
3 25 55 103
3 104 74 41
3 79 81 78
3 78 81 82
3 57 78 82
3 80 103 55
3 105 81 79
3 106 81 105
3 84 103 80
3 80 83 84
3 85 81 106
3 81 85 82
3 82 85 86
3 65 107 32
3 90 85 106
3 86 85 88
3 86 88 66
3 89 84 83
3 85 90 88
3 66 88 71
3 107 91 32
3 88 93 71
3 93 68 71
3 94 68 93
3 72 68 94
3 95 72 94
3 72 95 52
3 96 77 114
3 96 76 77
3 114 77 97
3 99 78 98
3 75 115 78
3 98 78 115
3 115 75 100
3 75 101 100
3 75 76 101
3 76 102 101
3 96 102 76
3 117 97 103
3 78 99 79
3 99 105 79
3 117 103 123
3 99 121 105
3 121 106 105
3 123 103 127
3 127 103 84
3 121 128 106
3 128 90 106
3 127 84 131
3 131 84 89
3 128 108 90
3 88 90 108
3 109 110 94
3 131 89 92
3 134 135 91
3 91 135 51
3 111 88 108
3 93 88 111
3 111 137 93
3 137 109 93
3 93 109 94
3 110 112 94
3 131 92 138
3 138 92 52
3 112 95 94
3 112 113 95
3 95 140 138
3 95 138 52
3 113 140 95
3 96 114 141
3 97 117 114
3 143 73 74
3 99 98 116
3 99 116 144
3 115 116 98
3 96 145 102
3 141 145 96
3 118 99 144
3 116 115 147
3 146 116 147
3 147 115 100
3 145 122 102
3 120 119 117
3 149 43 56
3 121 118 150
3 118 121 99
3 102 122 101
3 123 120 117
3 152 41 62
3 150 124 121
3 125 151 100
3 100 101 125
3 101 126 125
3 101 122 126
3 121 124 128
3 154 151 125
3 120 127 130
3 123 127 120
3 152 62 87
3 122 129 126
3 109 154 125
3 125 126 109
3 126 110 109
3 126 129 110
3 131 130 127
3 128 132 108
3 137 154 109
3 133 130 131
3 134 91 107
3 135 49 51
3 132 156 108
3 110 129 112
3 111 108 157
3 157 108 156
3 157 136 111
3 111 136 137
3 131 138 133
3 113 112 139
3 139 140 113
3 142 141 114
3 142 114 117
3 159 144 116
3 145 141 160
3 117 119 142
3 148 159 116
3 146 148 116
3 147 151 146
3 147 100 151
3 160 122 145
3 160 163 122
3 119 120 164
3 43 149 61
3 146 151 153
3 151 154 153
3 163 165 122
3 164 120 130
3 165 129 122
3 136 155 153
3 153 154 136
3 154 137 136
3 165 168 129
3 157 155 136
3 112 129 168
3 112 168 139
3 158 133 138
3 138 140 158
3 140 139 158
3 141 142 170
3 171 170 142
3 161 118 172
3 144 172 118
3 144 159 172
3 141 173 160
3 170 173 141
3 171 142 119
3 174 74 104
3 118 161 150
3 162 163 160
3 153 148 146
3 176 163 162
3 177 148 153
3 163 176 165
3 178 164 130
3 124 166 128
3 165 176 167
3 155 177 153
3 178 130 180
3 180 130 133
3 49 135 87
3 132 128 166
3 168 165 167
3 167 181 168
3 132 169 156
3 157 183 155
3 169 183 156
3 157 156 183
3 181 139 168
3 139 181 184
3 180 133 185
3 185 133 158
3 158 184 185
3 184 158 139
3 143 74 174
3 172 159 186
3 188 171 119
3 143 56 73
3 186 159 148
3 175 150 161
3 162 160 173
3 188 119 192
3 104 41 152
3 150 175 193
3 186 148 191
3 192 119 164
3 193 124 150
3 191 148 177
3 191 177 194
3 192 164 178
3 194 177 179
3 179 177 155
3 166 182 132
3 132 182 169
3 179 155 197
3 197 155 183
3 169 197 183
3 187 170 171
3 199 161 200
3 161 172 200
3 200 172 186
3 173 170 203
3 187 171 188
3 149 56 143
3 104 189 174
3 199 175 161
3 190 200 186
3 203 162 173
3 189 104 152
3 191 190 186
3 189 152 207
3 208 190 191
3 203 209 176
3 162 203 176
3 194 208 191
3 209 167 176
3 207 152 87
3 207 87 210
3 193 196 124
3 196 166 124
3 179 212 194
3 87 135 195
3 195 210 87
3 166 196 182
3 197 212 179
3 213 216 167
3 216 181 167
3 217 182 196
3 217 218 182
3 182 218 169
3 197 169 218
3 181 216 184
3 198 180 185
3 185 184 198
3 143 174 219
3 201 174 189
3 201 219 174
3 170 221 203
3 221 170 187
3 189 204 201
3 201 204 202
3 175 199 202
3 200 190 205
3 188 206 187
3 188 192 206
3 207 204 189
3 204 207 202
3 202 207 193
3 175 202 193
3 208 205 190
3 206 192 225
3 225 192 178
3 61 65 48
3 209 213 167
3 207 210 193
3 193 210 211
3 193 211 196
3 225 178 228
3 228 178 180
3 195 214 210
3 210 214 211
3 212 197 215
3 198 228 180
3 196 211 217
3 217 211 214
3 197 218 215
3 134 231 135
3 135 231 195
3 229 184 216
3 229 198 184
3 219 201 234
3 201 220 234
3 202 220 201
3 235 220 202
3 235 202 199
3 235 199 200
3 236 149 143
3 143 219 236
3 235 200 205
3 187 222 221
3 187 206 222
3 236 223 149
3 203 221 209
3 149 223 61
3 205 208 224
3 221 238 209
3 226 222 206
3 206 225 226
3 227 61 223
3 208 194 224
3 238 239 209
3 65 61 227
3 209 239 213
3 194 212 224
3 228 230 225
3 227 241 65
3 241 107 65
3 215 224 212
3 213 229 216
3 230 228 198
3 134 107 241
3 241 231 134
3 233 215 218
3 230 198 229
3 232 214 195
3 233 214 232
3 214 233 217
3 218 217 233
3 231 232 195
3 219 234 236
3 235 237 220
3 237 235 205
3 221 222 238
3 222 226 238
3 226 230 238
3 226 225 230
3 238 230 239
3 241 227 240
3 229 213 239
3 239 230 229
3 240 242 241
3 241 242 231
3 249 248 233
3 248 215 233
3 242 232 231
3 242 249 232
3 249 233 232
3 236 234 243
3 234 220 250
3 243 234 250
3 250 220 237
3 244 250 237
3 237 205 244
3 245 236 243
3 223 236 245
3 205 246 244
3 205 224 246
3 227 223 245
3 247 227 245
3 240 227 247
3 248 251 244
3 244 246 248
3 246 215 248
3 224 215 246
3 249 251 248
3 243 250 245
3 250 251 245
3 250 244 251
3 245 251 247
3 242 240 247
3 247 251 242
3 251 249 242
