ply
format ascii 1.0
element vertex 250
property float x
property float y
property float z
element face 500
property list uchar int vertex_indices
end_header
-0.451188 -0.050662 0.192256
-0.416089 -0.124379 0.339736
-0.414394 -0.104618 0.125524
-0.450108 -0.008285 0.354995
-0.431411 0.026726 0.122894
-0.455339 0.038315 0.204453
-0.416623 0.117785 0.340161
-0.418229 0.137845 0.195034
-0.342195 -0.227885 0.164328
-0.340171 -0.239560 0.278381
-0.356819 -0.205906 0.347518
-0.414442 -0.159565 0.205576
-0.343460 -0.122314 0.407408
-0.317664 -0.055459 -0.032505
-0.373434 -0.029975 0.023924
-0.419345 -0.042675 0.414534
-0.421172 0.022150 0.413714
-0.324352 0.082016 -0.024562
-0.368532 0.086759 0.033073
-0.388516 0.144799 0.116641
-0.339104 0.122551 0.404188
-0.347236 0.230364 0.187066
-0.337103 0.242267 0.283666
-0.355033 0.210483 0.350532
-0.279592 -0.202549 0.012338
-0.255184 -0.181495 -0.035350
-0.356056 -0.012675 0.439510
-0.274823 0.210999 0.028170
-0.261400 0.178961 -0.032567
-0.198826 -0.275760 0.054577
-0.211736 -0.298678 0.204746
-0.219287 -0.286666 0.281699
-0.277144 -0.238603 0.341131
-0.187620 -0.198796 -0.406178
-0.188255 -0.174136 -0.501837
-0.174213 -0.189070 -0.236002
-0.261530 -0.062175 -0.081159
-0.253089 -0.050993 -0.436563
-0.246835 -0.044735 -0.304578
-0.230100 -0.025994 -0.197009
-0.038846 -0.054204 0.495614
-0.239063 0.000081 -0.502853
-0.274689 0.071716 -0.069204
-0.069556 0.076343 0.465603
-0.251283 0.080834 -0.414478
-0.236406 0.100804 -0.280958
-0.226733 0.079612 -0.202163
-0.205956 0.150315 -0.503382
-0.185996 0.205086 -0.407504
-0.176934 0.197453 -0.238702
-0.035388 0.153291 0.451353
-0.269886 0.235797 0.348843
-0.216249 0.292163 0.168113
-0.168140 0.293160 0.258348
-0.114920 -0.242568 -0.306638
-0.036860 -0.252847 0.348663
-0.130361 -0.220464 -0.458878
-0.104273 -0.247005 -0.210847
-0.176591 -0.241919 -0.033792
-0.048710 -0.181514 0.431232
-0.077339 -0.183271 -0.754953
-0.128195 -0.190705 -0.596370
-0.139430 -0.224757 -0.140636
-0.159035 -0.092157 -0.719480
-0.191903 -0.077214 -0.603634
-0.213934 -0.128609 -0.116997
-0.224979 0.055219 -0.133784
-0.161871 0.076918 -0.723647
-0.195564 0.073480 -0.591232
-0.130265 0.188455 -0.567057
-0.135566 0.234107 -0.104829
-0.096757 0.178014 -0.767111
-0.094805 0.202028 -0.667269
-0.201804 0.216567 -0.038169
-0.103537 0.252573 -0.194047
-0.115124 0.229768 -0.404749
-0.190630 0.264175 0.024066
-0.109841 -0.300334 0.160054
-0.116421 -0.298982 0.249462
-0.124990 -0.282953 0.041156
-0.063478 -0.259203 -0.141458
-0.044253 -0.210931 -0.657380
-0.042483 -0.228105 -0.329816
-0.046975 -0.195396 -0.809252
-0.023536 -0.149378 -0.835958
-0.122574 -0.030415 -0.817898
-0.129467 0.091538 -0.811304
-0.049867 0.156811 -0.835407
-0.036317 0.241084 0.362445
0.012151 0.224109 -0.720368
-0.045327 0.223770 -0.328898
-0.119881 0.244673 -0.291188
-0.114812 0.278636 0.020630
-0.035660 0.268084 -0.050718
-0.109425 0.304000 0.166866
-0.003079 0.263579 0.243554
-0.026293 -0.264903 -0.035639
-0.016416 -0.264182 0.129302
0.022761 -0.254582 0.277582
-0.034613 -0.255423 -0.252562
0.055401 -0.202953 0.059974
0.016764 -0.216123 -0.796735
-0.058766 -0.196005 -0.579867
-0.040720 -0.173809 -0.429514
0.024676 -0.180249 -0.649545
-0.002514 -0.114667 -0.574919
0.094860 -0.151485 0.562234
-0.005954 -0.027097 -0.878434
0.032390 -0.147452 -0.359927
0.004675 -0.030670 -0.419001
0.088794 -0.082073 0.603746
0.009719 0.027221 -0.577559
0.060508 0.052361 0.565259
-0.047546 0.063770 -0.866215
-0.002983 0.086661 -0.427601
-0.058312 0.184260 -0.588824
0.033244 0.138540 -0.372081
0.039176 0.220200 -0.799675
0.022470 0.175507 -0.654713
-0.052311 0.180996 -0.446071
0.093888 0.212076 0.451129
-0.031872 0.215248 -0.660137
-0.057436 0.251897 -0.253140
0.017673 0.246867 0.029775
0.040905 0.208471 0.129394
-0.011999 0.259166 -0.207914
-0.035404 0.275302 0.074543
0.082204 -0.261093 -0.210101
0.085353 -0.225765 -0.726826
0.051891 -0.234805 -0.284939
0.061394 -0.206250 0.184853
0.041963 -0.249328 0.363278
0.106365 -0.198156 0.274516
0.114194 -0.218735 0.454099
0.147788 -0.191746 -0.369113
0.071194 -0.135725 0.110208
0.045559 -0.080004 -0.625418
0.099480 -0.123503 0.028880
0.137150 -0.137999 0.649101
0.107598 -0.036524 0.650029
0.165329 -0.042237 -0.480492
0.041169 0.020083 -0.396845
0.087437 -0.000666 0.065975
0.084791 0.033577 0.121063
0.049776 0.034349 -0.627434
0.141292 0.136226 0.642339
0.033737 0.224312 -0.288218
0.094455 0.162633 0.016046
0.119397 0.177629 0.545679
0.139289 0.208979 -0.337990
0.104355 0.195043 0.266683
0.086645 0.234847 0.383401
0.170436 -0.245974 -0.272560
0.153092 -0.248050 -0.192706
0.126696 -0.219492 0.395033
0.244939 -0.202834 -0.811120
0.161101 -0.181119 -0.089152
0.182313 -0.206221 0.570808
0.206869 -0.202723 0.658958
0.114745 -0.170569 -0.658599
0.116639 -0.110817 0.213255
0.177085 -0.149437 0.352682
0.207654 -0.163594 0.751453
0.112810 -0.043572 -0.627462
0.202942 -0.161245 -0.588979
0.208902 -0.130133 -0.508294
0.149236 -0.045242 0.741419
0.207700 -0.100452 0.819375
0.182789 0.005102 -0.565337
0.202899 -0.006729 0.324902
0.175358 0.005489 0.819027
0.130309 0.061804 0.217164
0.178136 0.016209 -0.055576
0.279613 0.079948 -0.882514
0.126036 0.166670 -0.664609
0.176467 0.096405 -0.493400
0.198243 0.147731 0.751488
0.188079 0.127218 0.344718
0.200231 0.101252 0.812309
0.245981 0.162152 -0.859320
0.121075 0.217720 0.344832
0.121979 0.243513 -0.258289
0.163407 0.240146 -0.193608
0.188827 0.209128 0.585569
0.207557 0.206477 0.657363
0.099165 0.259057 -0.194166
0.261961 -0.242202 -0.720483
0.190818 -0.247708 -0.244336
0.192263 -0.219052 -0.665095
0.267919 -0.234247 -0.614912
0.267368 -0.222913 -0.438848
0.180249 -0.197178 0.438794
0.221036 -0.189461 0.501777
0.255230 -0.095896 -0.878585
0.250201 -0.211448 -0.259637
0.261791 -0.149398 0.790291
0.241324 -0.086448 0.420044
0.296391 -0.042602 0.489026
0.212827 0.002593 0.850317
0.299064 -0.010363 -0.890184
0.250004 0.079139 0.425369
0.310256 0.076211 -0.209245
0.210354 0.163218 -0.582735
0.300818 0.068179 0.495455
0.226731 0.180387 -0.511416
0.207574 0.186654 0.506746
0.210446 0.224625 -0.667352
0.267239 0.178141 -0.210744
0.172222 0.192738 0.424650
0.250652 0.128855 0.803915
0.285739 0.207177 -0.815933
0.268989 0.227341 -0.614027
0.280992 0.229482 -0.428110
0.198176 0.238533 -0.296505
0.205038 0.237856 -0.727169
0.290891 -0.223208 -0.346928
0.240680 -0.208124 0.592672
0.250110 -0.192795 0.712082
0.371918 -0.138274 -0.338339
0.303929 -0.135937 0.612551
0.293814 -0.076313 -0.201014
0.270234 -0.073004 0.856609
0.298226 0.005939 0.854493
0.408962 0.064611 -0.347788
0.316769 0.101568 0.570561
0.324345 0.080673 0.764311
0.357133 0.155729 -0.325441
0.357594 0.138093 -0.825569
0.246909 0.201198 0.614399
0.250787 0.186308 0.733635
0.279389 0.222349 -0.311542
0.339786 -0.202702 -0.768228
0.338556 -0.233374 -0.598473
0.355563 -0.207871 -0.425931
0.393560 -0.198881 -0.508027
0.369232 -0.079188 -0.833348
0.414800 -0.139690 -0.713412
0.423348 -0.112584 -0.431777
0.407841 -0.044554 -0.335668
0.325801 -0.046729 0.808945
0.342597 -0.002124 0.592420
0.352598 0.041013 -0.865244
0.416195 0.140635 -0.720148
0.412032 0.124466 -0.444236
0.336951 0.211631 -0.743109
0.353647 0.216313 -0.546208
0.344538 0.209712 -0.409700
0.450796 -0.046176 -0.725979
0.441826 -0.007307 -0.428343
0.438133 0.039610 -0.751116
3 2 0 11
3 11 0 1
3 1 0 3
3 1 3 15
3 2 4 0
3 0 4 5
3 0 5 3
3 15 3 16
3 3 5 6
3 3 6 16
3 7 5 4
3 5 7 6
3 2 11 8
3 8 11 9
3 10 9 1
3 10 1 12
3 9 11 1
3 15 12 1
3 12 15 26
3 2 14 4
3 15 16 26
3 13 17 14
3 14 17 18
3 14 18 4
3 26 16 20
3 18 19 4
3 4 19 7
3 6 20 16
3 20 6 23
3 21 7 19
3 7 21 22
3 7 22 6
3 6 22 23
3 30 9 31
3 8 9 30
3 31 9 32
3 32 9 10
3 2 8 24
3 32 10 12
3 13 25 36
3 25 13 24
3 24 13 14
3 2 24 14
3 26 40 12
3 36 42 13
3 42 17 13
3 40 26 43
3 43 26 20
3 18 17 27
3 18 27 19
3 28 17 42
3 17 28 27
3 50 20 51
3 51 20 23
3 19 27 21
3 27 52 21
3 22 51 23
3 52 22 21
3 8 30 29
3 29 58 24
3 8 29 24
3 32 59 55
3 58 25 24
3 58 65 25
3 65 36 25
3 33 34 37
3 33 37 38
3 33 38 35
3 35 38 39
3 35 39 65
3 12 40 59
3 41 34 64
3 34 41 37
3 65 66 36
3 65 39 66
3 68 41 64
3 66 42 36
3 37 41 44
3 37 44 38
3 38 44 45
3 38 45 39
3 39 45 46
3 39 46 66
3 47 41 68
3 41 47 44
3 44 47 48
3 44 48 45
3 46 45 49
3 46 49 66
3 66 73 42
3 73 28 42
3 49 45 48
3 27 28 73
3 27 73 76
3 52 27 76
3 53 22 52
3 53 51 22
3 29 77 79
3 29 30 77
3 77 30 78
3 30 31 78
3 29 79 58
3 78 31 55
3 55 31 32
3 56 33 54
3 54 33 35
3 35 57 54
3 56 61 34
3 33 56 34
3 57 35 62
3 60 63 61
3 61 63 64
3 61 64 34
3 58 62 65
3 59 32 12
3 85 63 60
3 65 62 35
3 67 63 85
3 63 67 64
3 64 67 68
3 86 67 85
3 50 43 20
3 68 67 69
3 68 69 47
3 49 70 66
3 71 67 86
3 67 71 72
3 67 72 69
3 66 70 73
3 88 50 51
3 48 47 69
3 70 49 74
3 69 75 48
3 48 75 91
3 48 91 49
3 91 74 49
3 70 92 73
3 73 92 76
3 52 76 92
3 94 52 92
3 94 53 52
3 99 57 80
3 80 58 96
3 58 79 96
3 79 77 97
3 79 97 96
3 77 78 98
3 97 77 98
3 78 55 98
3 54 82 56
3 54 99 82
3 57 99 54
3 57 62 80
3 62 58 80
3 61 81 60
3 81 61 102
3 56 102 61
3 102 56 103
3 103 56 82
3 83 84 60
3 85 84 107
3 60 84 85
3 113 85 107
3 86 85 113
3 87 86 113
3 86 87 71
3 117 89 71
3 117 71 87
3 72 71 89
3 72 121 115
3 72 115 69
3 119 69 115
3 69 119 75
3 75 119 90
3 89 121 72
3 90 122 91
3 90 91 75
3 122 74 91
3 70 74 93
3 92 70 93
3 51 53 88
3 122 125 74
3 125 93 74
3 93 126 92
3 94 92 126
3 94 126 95
3 53 94 95
3 99 127 129
3 80 127 99
3 127 80 96
3 83 60 101
3 60 128 101
3 104 128 81
3 128 60 81
3 99 129 82
3 96 97 100
3 130 100 97
3 130 97 98
3 98 55 131
3 55 133 131
3 59 133 55
3 101 84 83
3 102 104 81
3 108 82 129
3 133 59 106
3 136 104 105
3 105 104 102
3 102 103 105
3 82 108 103
3 59 40 106
3 103 109 105
3 108 109 103
3 110 106 40
3 111 136 105
3 105 109 111
3 108 141 109
3 144 136 111
3 112 110 40
3 109 114 111
3 141 116 114
3 109 141 114
3 43 112 40
3 118 144 111
3 115 118 111
3 111 114 115
3 50 112 43
3 114 119 115
3 114 116 119
3 88 120 50
3 121 118 115
3 90 119 116
3 90 116 146
3 121 89 118
3 146 122 90
3 122 146 125
3 123 124 126
3 88 95 151
3 120 88 151
3 126 93 123
3 95 126 124
3 95 88 53
3 129 127 152
3 129 152 134
3 127 96 153
3 153 96 100
3 132 130 98
3 132 98 154
3 98 131 154
3 133 154 131
3 155 84 101
3 128 104 159
3 134 108 129
3 153 100 156
3 130 135 100
3 133 106 157
3 136 159 104
3 137 156 100
3 100 135 137
3 160 135 130
3 130 132 160
3 159 136 163
3 108 134 140
3 106 110 138
3 138 110 139
3 108 140 141
3 137 135 142
3 135 143 142
3 135 160 143
3 110 112 139
3 163 136 144
3 173 113 107
3 163 144 174
3 139 112 145
3 174 144 118
3 141 175 116
3 173 179 113
3 179 87 113
3 142 143 147
3 143 124 147
3 171 150 124
3 143 171 124
3 148 112 50
3 112 148 145
3 116 149 146
3 50 120 148
3 179 117 87
3 182 147 123
3 124 123 147
3 89 174 118
3 181 146 149
3 125 146 181
3 185 182 93
3 182 123 93
3 95 124 150
3 180 95 150
3 180 151 95
3 185 125 181
3 93 125 185
3 155 101 128
3 186 155 128
3 186 128 188
3 152 127 153
3 152 153 187
3 193 84 155
3 159 188 128
3 154 161 132
3 191 161 154
3 154 133 191
3 191 133 192
3 157 192 133
3 158 157 138
3 159 164 188
3 138 157 106
3 138 162 158
3 193 107 84
3 163 164 159
3 165 140 134
3 161 160 132
3 166 162 138
3 162 166 167
3 168 164 163
3 164 168 165
3 165 168 140
3 160 161 169
3 139 166 138
3 167 166 170
3 167 170 198
3 193 199 107
3 172 137 142
3 143 160 171
3 160 169 171
3 145 166 139
3 199 173 107
3 174 168 163
3 140 168 175
3 140 175 141
3 176 166 145
3 166 176 170
3 172 142 147
3 169 177 171
3 170 176 178
3 170 178 198
3 202 168 174
3 202 175 168
3 171 177 150
3 206 202 174
3 149 175 204
3 116 175 149
3 177 180 150
3 177 208 180
3 145 184 176
3 210 117 179
3 208 151 180
3 120 151 208
3 120 208 205
3 148 120 205
3 148 205 183
3 148 183 145
3 145 183 184
3 117 210 214
3 89 117 214
3 206 174 214
3 214 174 89
3 149 213 181
3 182 181 213
3 182 185 181
3 186 188 189
3 152 215 190
3 215 152 194
3 152 187 194
3 194 187 153
3 188 164 189
3 189 164 190
3 190 164 165
3 134 190 165
3 190 134 152
3 153 156 194
3 192 216 219
3 192 157 216
3 157 158 216
3 158 217 216
3 217 158 162
3 162 195 217
3 194 156 220
3 196 161 191
3 191 192 196
3 162 167 195
3 137 220 156
3 192 197 196
3 167 221 195
3 161 196 169
3 221 167 198
3 221 198 222
3 196 200 169
3 196 197 200
3 169 200 177
3 222 198 209
3 209 198 178
3 204 175 202
3 147 207 201
3 172 147 201
3 203 205 200
3 208 177 200
3 200 205 208
3 178 176 209
3 202 206 211
3 202 211 204
3 204 211 212
3 149 204 212
3 182 230 207
3 147 182 207
3 205 228 183
3 205 224 228
3 183 228 184
3 184 228 229
3 176 184 229
3 229 209 176
3 214 211 206
3 212 213 149
3 212 230 213
3 182 213 230
3 186 231 155
3 231 186 232
3 186 189 232
3 189 190 232
3 232 190 233
3 233 190 215
3 194 218 215
3 217 219 216
3 235 193 155
3 155 231 235
3 194 220 218
3 217 195 219
3 197 192 219
3 238 218 220
3 197 219 240
3 219 195 239
3 195 221 239
3 235 199 193
3 201 238 220
3 220 172 201
3 137 172 220
3 239 221 222
3 235 241 199
3 223 238 201
3 239 222 225
3 241 173 199
3 203 200 197
3 240 224 203
3 197 240 203
3 241 227 173
3 225 222 209
3 227 179 173
3 223 201 226
3 201 207 226
3 205 203 224
3 225 228 224
3 225 229 228
3 225 209 229
3 227 210 179
3 210 227 244
3 230 246 226
3 207 230 226
3 244 214 210
3 214 244 211
3 244 245 211
3 211 245 212
3 245 246 212
3 230 212 246
3 233 234 232
3 231 232 236
3 232 234 236
3 231 236 235
3 234 237 236
3 234 233 237
3 218 233 215
3 218 237 233
3 236 247 235
3 238 237 218
3 239 240 219
3 247 249 235
3 248 237 238
3 235 249 241
3 223 248 238
3 243 248 223
3 240 225 224
3 240 239 225
3 249 242 227
3 241 249 227
3 243 223 226
3 227 242 244
3 242 243 245
3 242 245 244
3 243 246 245
3 226 246 243
3 236 237 247
3 237 248 247
3 247 248 249
3 248 243 249
3 243 242 249
