ply
format ascii 1.0
element vertex 252
property float x
property float y
property float z
element face 500
property list uchar int vertex_indices
end_header
-0.578212 -0.142201 -1.062789
-0.543496 -0.134209 -1.110749
-0.616436 -0.028758 -1.112042
-0.618378 0.012025 -1.051354
-0.551774 0.128936 -1.111807
-0.567490 0.155013 -1.052164
-0.498070 -0.203522 -0.967777
-0.509754 -0.151688 -0.904010
-0.567453 -0.064150 -0.943996
-0.485715 -0.084563 -0.838600
-0.549884 0.029136 -1.149655
-0.502140 0.007545 -0.837506
-0.573092 0.064951 -0.955529
-0.477007 0.121366 -0.855129
-0.514171 0.179910 -0.967343
-0.450977 -0.228616 -1.044292
-0.439566 -0.207457 -0.897532
-0.383323 -0.159786 -0.804325
-0.340330 -0.033445 -1.155414
-0.436290 0.083284 -0.795115
-0.447829 0.227232 -1.031220
-0.421882 0.223757 -0.914670
-0.402773 -0.250026 -0.973519
-0.346917 -0.162219 -1.106948
-0.440120 -0.030385 -0.786949
-0.361057 -0.063619 -0.723347
-0.320258 -0.054223 -0.654135
-0.320794 0.069078 -0.668928
-0.361277 0.093393 -0.735640
-0.373381 0.106929 -1.154027
-0.361206 0.191300 -0.807098
-0.398745 0.252089 -0.975294
-0.348692 -0.229608 -1.042841
-0.339199 -0.242506 -0.894316
-0.288334 -0.233987 -0.959406
-0.295292 -0.227971 -0.804891
-0.257381 -0.210233 -0.686162
-0.317910 -0.153477 -0.710135
-0.276904 -0.061426 -1.128666
-0.274820 0.034202 -1.131395
-0.345287 0.170195 -1.105360
-0.271941 0.196639 -0.692684
-0.364353 0.241410 -1.022349
-0.332205 0.243384 -0.900833
-0.292627 0.237298 -0.811669
-0.243729 -0.237455 -0.868094
-0.263286 -0.155540 -1.053330
-0.200103 -0.220551 -0.602759
-0.191969 -0.163943 -0.935181
-0.263755 -0.118944 -0.572123
-0.179753 -0.205925 -0.526365
-0.182964 -0.200760 0.230420
-0.187066 -0.200931 0.349091
-0.226983 -0.117017 -0.489940
-0.195828 -0.123278 0.136443
-0.250981 -0.082921 0.207423
-0.205362 -0.137434 0.435537
-0.232057 -0.028837 0.116182
-0.261247 -0.084248 0.360660
-0.240833 -0.034410 0.428126
-0.201225 -0.021259 -1.031180
-0.248540 0.003350 -0.494600
-0.275573 0.076896 -0.574177
-0.268603 0.037048 0.336235
-0.247849 0.092316 0.202600
-0.232842 0.096811 -1.057632
-0.188266 0.107226 0.139864
-0.206619 0.091938 0.450786
-0.229914 0.122527 -0.501602
-0.164878 0.128153 -0.919228
-0.201181 0.213621 -0.578312
-0.188797 0.193798 0.346991
-0.273796 0.213151 -0.975636
-0.180303 0.212994 -0.510072
-0.243505 0.233090 -0.865552
-0.197813 -0.243487 -0.710755
-0.120449 -0.239987 -0.619172
-0.108979 -0.255299 0.300983
-0.040831 -0.283343 0.406871
-0.043208 -0.200330 0.538026
-0.045863 -0.114738 0.586127
-0.127226 -0.083481 -0.893764
-0.192451 -0.043316 0.096571
-0.119483 -0.078747 -0.325193
-0.126467 0.021338 0.562575
-0.115319 0.023852 -0.888802
-0.116023 0.091901 -0.320931
-0.036782 0.111944 0.595782
-0.069797 0.217025 -0.374408
-0.189878 0.206819 0.241057
-0.200858 0.243769 -0.702502
-0.102192 0.237408 -0.635502
-0.099568 0.261156 0.313691
-0.106223 -0.229306 -0.715929
-0.089903 -0.243397 -0.507121
-0.062020 -0.160056 -0.751037
-0.016566 -0.196019 -0.636798
-0.068847 -0.215402 -0.374394
-0.122108 -0.201791 0.203284
-0.019195 -0.198487 -0.273322
-0.139359 -0.121619 0.129283
-0.053545 -0.146242 0.181275
-0.040261 -0.041981 -0.779441
-0.029870 -0.099342 -0.193280
-0.051932 0.028981 -0.200003
-0.123397 -0.004288 0.116937
-0.023897 0.067750 -0.737331
-0.048533 0.112469 -0.216394
-0.120700 0.119075 0.146419
-0.023389 0.169750 0.210378
-0.031566 0.194186 0.545528
-0.073019 0.189470 -0.730410
-0.017486 0.201955 -0.269765
-0.127505 0.210998 0.219802
-0.131179 0.239303 -0.715049
-0.107278 0.245254 -0.517938
-0.037867 -0.251517 -0.503575
0.037363 -0.290379 0.362995
-0.058298 -0.240003 -0.578620
-0.011424 -0.255885 -0.429634
0.021448 -0.251876 -0.337766
-0.022336 -0.235327 0.260460
0.053202 -0.274642 0.453127
0.019586 -0.065128 -0.675530
0.085437 -0.053739 -0.019449
-0.008112 -0.057674 -0.729340
-0.004686 0.013162 0.164932
-0.015126 0.024808 0.622550
0.019354 0.069440 -0.670424
-0.011743 0.170721 -0.652090
-0.037132 0.234036 -0.572812
-0.015238 0.257103 -0.433107
-0.017421 0.255900 0.288546
-0.041087 0.253331 -0.508066
0.019601 0.255624 -0.333852
0.044168 0.288927 0.353654
0.039443 0.274691 0.429713
0.038688 0.226971 0.549627
0.049669 -0.258988 -0.399688
0.007309 -0.248332 -0.492475
0.153711 -0.245453 -0.145747
0.125246 -0.252367 0.279484
0.107337 -0.166279 -0.043612
0.088677 -0.153881 0.576363
0.106519 -0.072554 -0.562323
0.131802 -0.140987 0.025053
0.102249 -0.159119 0.203296
0.123476 -0.054975 0.047566
0.095808 -0.043093 0.615381
0.111486 0.041126 -0.552816
0.144414 0.123673 0.043001
0.098688 0.152062 -0.047130
0.114398 0.122731 0.189997
0.090637 0.195355 0.558860
0.077194 0.177523 -0.529805
0.027207 0.240352 -0.489476
0.099783 0.244727 0.282371
0.046868 0.259582 -0.401177
0.179623 0.204930 -0.358424
0.136068 0.267603 -0.184615
0.190377 -0.278863 0.413342
0.214359 -0.245930 -0.214118
0.188049 -0.199139 -0.369528
0.194071 -0.213032 0.034652
0.240616 -0.252017 0.224433
0.170393 -0.145639 0.121780
0.128608 -0.001257 0.156689
0.207930 -0.013313 0.562925
0.146510 0.008810 0.117707
0.177862 0.143634 0.126763
0.107075 0.084235 0.601661
0.199827 0.154306 0.538297
0.171432 0.198484 0.020685
0.229977 0.238047 0.212462
0.173947 0.268560 -0.223812
0.200483 0.277297 -0.108858
0.172652 0.284952 0.342486
0.241532 -0.286922 0.348750
0.273953 -0.264322 0.022753
0.293756 -0.242036 0.461109
0.254521 -0.242469 0.116604
0.201458 -0.198184 0.499006
0.215034 -0.090054 -0.414975
0.274336 -0.167269 -0.282825
0.314060 -0.018814 -0.281718
0.219518 0.073124 -0.406503
0.278411 0.144319 -0.282884
0.230050 0.220283 -0.269700
0.247863 0.237046 0.118995
0.237403 0.243526 0.457244
0.344861 -0.296593 0.295762
0.349730 -0.215921 -0.111123
0.342570 -0.264241 0.013944
0.348942 -0.279702 0.164396
0.274852 -0.121349 0.527022
0.350397 -0.161434 0.542993
0.269389 -0.000434 0.551734
0.267678 0.123206 0.526508
0.394948 0.123415 -0.128563
0.354097 0.205870 -0.106399
0.333219 0.187373 0.508835
0.345958 0.266885 0.012147
0.350238 0.298135 0.273242
0.323819 0.298637 0.364647
0.396104 0.270310 0.444301
0.486396 -0.285316 0.331180
0.427169 -0.252212 0.128347
0.403585 -0.204810 -0.031425
0.459128 -0.198492 0.554210
0.391213 -0.146851 -0.120513
0.446290 -0.112299 -0.047763
0.343848 0.008306 0.566149
0.450233 0.170139 0.556663
0.443133 0.124512 -0.042495
0.452503 0.206509 0.065388
0.330127 0.280491 0.159832
0.422500 0.281757 0.204786
0.433442 -0.288927 0.421083
0.541919 -0.256552 0.504901
0.510473 -0.200257 0.162160
0.485475 -0.147765 0.055114
0.418289 -0.104411 0.592002
0.432901 -0.000951 -0.100305
0.463126 -0.000611 -0.052719
0.450421 0.020782 0.608430
0.488588 0.141119 0.051382
0.528649 0.213201 0.206186
0.482050 0.289701 0.345330
0.544938 0.253075 0.499264
0.548008 -0.276178 0.432348
0.629892 -0.188931 0.337888
0.600612 -0.209040 0.561926
0.542390 -0.100274 0.110405
0.648518 -0.035166 0.615017
0.509826 -0.002682 0.040816
0.564935 0.001178 0.116465
0.523241 0.126018 0.102706
0.626585 0.109259 0.234775
0.640743 0.127428 0.602436
0.629331 0.192129 0.345081
0.514099 0.293603 0.420596
0.642505 -0.194047 0.511509
0.669006 -0.096906 0.280213
0.604074 0.196148 0.573025
0.571795 0.269017 0.431741
0.650684 0.182958 0.532033
0.646528 -0.150566 0.587150
0.697955 -0.091404 0.358428
0.679861 0.001527 0.276588
0.703013 -0.053370 0.567316
0.697007 0.074412 0.374672
0.700066 0.076411 0.585594
3 1 2 0
3 10 2 1
3 0 2 3
3 0 3 8
3 8 3 12
3 4 2 10
3 2 4 3
3 3 4 5
3 3 5 12
3 0 15 1
3 6 15 0
3 8 6 0
3 6 8 7
3 7 8 9
3 18 10 1
3 9 8 11
3 8 12 11
3 13 11 12
3 14 12 5
3 13 12 14
3 20 5 4
3 5 20 14
3 15 6 22
3 6 16 22
3 6 7 16
3 7 9 16
3 9 17 16
3 23 18 1
3 17 9 24
3 11 24 9
3 13 19 11
3 19 24 11
3 29 4 10
3 19 13 30
3 13 14 21
3 21 30 13
3 21 14 20
3 20 31 21
3 22 32 15
3 33 22 16
3 16 17 33
3 32 23 15
3 23 1 15
3 24 25 17
3 26 25 27
3 29 10 18
3 28 25 24
3 19 28 24
3 27 25 28
3 30 28 19
3 40 4 29
3 20 4 40
3 40 42 20
3 43 30 21
3 42 31 20
3 31 43 21
3 31 42 43
3 22 33 34
3 32 22 34
3 34 33 45
3 35 33 17
3 35 45 33
3 46 23 32
3 32 34 46
3 17 37 35
3 35 37 36
3 36 37 49
3 25 37 17
3 18 23 38
3 23 46 38
3 37 25 26
3 37 26 49
3 39 18 38
3 26 62 49
3 62 26 27
3 29 18 39
3 40 29 39
3 41 28 30
3 28 41 27
3 27 41 62
3 42 40 72
3 30 43 44
3 30 44 41
3 43 42 72
3 43 72 74
3 43 74 44
3 45 35 75
3 35 36 75
3 36 47 75
3 34 48 46
3 34 45 48
3 36 49 47
3 47 49 50
3 50 49 53
3 54 55 51
3 51 55 52
3 57 54 82
3 54 57 55
3 52 55 58
3 52 58 56
3 56 58 59
3 60 38 46
3 46 48 60
3 53 49 61
3 39 38 60
3 49 62 61
3 58 55 63
3 58 63 59
3 55 57 64
3 55 64 63
3 65 39 60
3 61 68 86
3 66 57 82
3 57 66 64
3 59 63 67
3 59 67 84
3 40 39 65
3 61 62 68
3 62 70 68
3 64 71 63
3 63 71 67
3 72 40 65
3 65 69 72
3 41 70 62
3 68 70 73
3 69 74 72
3 66 89 64
3 64 89 71
3 74 90 44
3 44 90 41
3 90 70 41
3 45 75 93
3 76 93 75
3 47 76 75
3 76 47 50
3 76 50 94
3 94 50 97
3 98 51 77
3 51 52 77
3 77 52 78
3 95 48 45
3 45 93 95
3 54 98 100
3 51 98 54
3 52 56 79
3 52 79 78
3 50 53 97
3 79 56 80
3 48 95 81
3 97 53 83
3 100 82 54
3 59 80 56
3 48 81 60
3 53 61 83
3 100 105 82
3 84 80 59
3 81 85 60
3 86 83 61
3 105 66 82
3 69 65 60
3 60 85 69
3 105 108 66
3 87 84 67
3 73 88 68
3 68 88 86
3 66 108 113
3 67 71 110
3 67 110 87
3 74 69 111
3 111 114 74
3 113 89 66
3 114 90 74
3 91 90 114
3 70 90 91
3 70 91 115
3 70 115 73
3 73 115 88
3 92 89 113
3 92 71 89
3 116 94 119
3 77 117 121
3 78 117 77
3 76 96 93
3 118 96 76
3 94 116 118
3 76 94 118
3 94 97 119
3 77 121 98
3 95 93 96
3 101 98 121
3 99 97 83
3 99 83 103
3 101 100 98
3 81 95 102
3 103 83 104
3 101 126 105
3 100 101 105
3 80 84 127
3 85 81 102
3 86 104 83
3 106 85 102
3 69 85 106
3 104 86 107
3 126 109 108
3 105 126 108
3 84 87 127
3 69 106 111
3 86 88 112
3 86 112 107
3 113 108 109
3 111 129 91
3 114 111 91
3 129 130 91
3 115 91 130
3 133 115 130
3 115 131 88
3 132 113 109
3 92 113 132
3 71 136 110
3 115 133 131
3 135 92 132
3 92 136 71
3 92 135 136
3 117 78 122
3 119 120 138
3 121 117 141
3 118 116 139
3 119 138 139
3 116 119 139
3 119 97 120
3 120 97 99
3 78 79 122
3 118 139 96
3 96 123 95
3 96 144 123
3 143 79 80
3 125 102 95
3 95 123 125
3 104 124 103
3 146 126 101
3 148 80 127
3 106 102 125
3 125 123 106
3 123 128 106
3 128 129 106
3 128 149 129
3 107 151 104
3 106 129 111
3 149 154 129
3 107 112 151
3 153 87 110
3 129 154 130
3 154 155 130
3 153 110 137
3 130 155 133
3 131 133 155
3 157 131 155
3 88 131 134
3 112 88 134
3 156 132 109
3 110 136 137
3 157 134 131
3 117 122 160
3 139 138 162
3 120 99 140
3 140 99 142
3 122 79 143
3 139 162 96
3 141 146 121
3 146 101 121
3 103 142 99
3 103 124 142
3 142 124 145
3 145 124 147
3 143 80 148
3 166 126 146
3 149 123 144
3 128 123 149
3 147 124 150
3 148 127 170
3 151 124 104
3 124 151 150
3 166 152 126
3 152 109 126
3 170 127 87
3 170 87 153
3 151 112 159
3 152 156 109
3 154 158 155
3 155 158 157
3 112 134 159
3 134 157 174
3 174 159 134
3 156 135 132
3 176 135 156
3 136 135 176
3 153 137 136
3 161 138 120
3 120 140 161
3 141 177 164
3 117 177 141
3 177 117 160
3 161 162 138
3 140 142 163
3 143 181 122
3 122 181 160
3 163 142 145
3 163 145 165
3 164 146 141
3 96 182 144
3 96 162 182
3 165 146 164
3 147 165 145
3 146 165 166
3 167 181 143
3 143 148 167
3 182 149 144
3 168 165 147
3 165 168 166
3 150 168 147
3 169 168 150
3 168 169 166
3 148 170 167
3 166 169 152
3 167 170 171
3 149 185 154
3 170 153 171
3 154 185 158
3 151 159 172
3 150 151 172
3 150 172 169
3 173 152 169
3 152 173 156
3 158 174 157
3 172 159 175
3 171 153 189
3 159 174 175
3 173 176 156
3 176 189 136
3 189 153 136
3 178 140 163
3 178 161 140
3 164 177 190
3 179 177 160
3 178 163 180
3 160 181 179
3 161 183 162
3 161 191 183
3 165 180 163
3 162 183 182
3 180 165 164
3 179 181 194
3 183 184 182
3 194 181 167
3 149 182 185
3 182 184 185
3 194 167 196
3 196 167 197
3 197 167 171
3 185 186 158
3 186 187 158
3 189 197 171
3 188 169 172
3 173 169 188
3 187 174 158
3 172 175 188
3 175 174 201
3 173 202 176
3 202 203 176
3 189 176 203
3 192 161 178
3 193 192 178
3 193 164 190
3 191 161 192
3 193 178 180
3 164 193 180
3 191 209 183
3 195 179 194
3 183 209 184
3 195 194 211
3 211 194 196
3 211 196 197
3 186 185 184
3 184 198 186
3 211 197 200
3 199 186 198
3 187 186 199
3 197 189 200
3 187 199 174
3 174 199 201
3 204 200 189
3 175 215 188
3 175 201 215
3 188 215 173
3 215 202 173
3 203 204 189
3 190 205 193
3 177 217 190
3 206 192 193
3 193 205 206
3 217 177 179
3 179 208 217
3 207 191 192
3 206 207 192
3 195 208 179
3 191 207 209
3 207 210 209
3 208 195 221
3 195 211 221
3 209 222 184
3 221 211 224
3 184 222 198
3 200 212 211
3 211 212 224
3 198 213 199
3 213 214 199
3 199 214 201
3 214 216 201
3 212 200 204
3 216 215 201
3 203 227 204
3 216 202 215
3 216 227 202
3 227 203 202
3 205 190 217
3 205 217 229
3 217 208 218
3 217 218 229
3 205 219 206
3 207 220 210
3 207 206 220
3 206 219 220
3 209 210 222
3 220 234 210
3 210 223 222
3 210 234 223
3 233 221 224
3 223 213 222
3 223 234 213
3 222 213 198
3 234 225 213
3 225 236 214
3 225 214 213
3 214 226 216
3 226 227 216
3 212 204 228
3 204 240 228
3 227 240 204
3 205 229 230
3 205 230 219
3 231 218 208
3 219 230 232
3 219 232 220
3 220 232 234
3 232 235 234
3 235 236 234
3 235 237 236
3 234 236 225
3 236 226 214
3 236 237 226
3 237 239 226
3 243 238 212
3 239 227 226
3 243 212 228
3 227 244 240
3 240 244 228
3 229 241 230
3 229 218 241
3 218 231 241
3 241 231 246
3 208 246 231
3 232 230 242
3 246 208 233
3 233 208 221
3 242 248 235
3 242 235 232
3 235 248 237
3 238 233 224
3 238 224 212
3 239 245 244
3 245 238 243
3 227 239 244
3 245 228 244
3 243 228 245
3 247 242 230
3 230 241 247
3 242 247 248
3 241 249 247
3 241 246 249
3 246 233 249
3 247 250 248
3 247 249 250
3 249 251 250
3 249 233 251
3 233 238 251
3 237 248 250
3 239 237 250
3 250 251 245
3 251 238 245
3 245 239 250
