ply
format ascii 1.0
element vertex 252
property float x
property float y
property float z
element face 500
property list uchar int vertex_indices
end_header
-0.657805 -0.163417 -0.452606
-0.655082 -0.162870 -0.354520
-0.708181 -0.062735 -0.443424
-0.681314 -0.061512 -0.510285
-0.706218 0.041185 -0.343939
-0.668300 -0.012762 -0.262730
-0.684447 0.082441 -0.490577
-0.635943 0.186048 -0.487434
-0.643353 0.173633 -0.365737
-0.525669 -0.281257 -0.432944
-0.578179 -0.182758 -0.554632
-0.646572 -0.142537 -0.278256
-0.597925 -0.187276 -0.268837
-0.535127 -0.115087 -0.149113
-0.631670 0.093645 -0.235600
-0.528379 0.284200 -0.424521
-0.487708 -0.277389 -0.534609
-0.500833 -0.145321 -0.726967
-0.516690 -0.187448 -0.659796
-0.574469 -0.012270 -0.669813
-0.534399 0.038383 -0.746515
-0.362198 0.002218 0.031681
-0.548606 0.150965 -0.664235
-0.495004 0.146899 -0.740451
-0.499072 0.275854 -0.530714
-0.477766 0.286009 -0.340748
-0.485845 -0.282769 -0.335576
-0.454011 -0.294308 -0.426356
-0.410075 -0.284880 -0.574920
-0.446681 -0.248892 -0.668443
-0.283689 -0.186284 0.015459
-0.488447 -0.065317 -0.780866
-0.502858 0.048552 -0.781806
-0.332287 0.111083 0.039443
-0.358700 0.217453 -0.062631
-0.450450 0.248672 -0.666275
-0.413701 0.283145 -0.577191
-0.453239 0.290885 -0.429932
-0.412669 -0.291182 -0.322501
-0.402463 -0.292975 -0.276577
-0.345747 -0.256341 -0.347254
-0.334404 -0.264969 -0.124890
-0.419682 -0.196922 -0.734311
-0.404514 -0.078721 -0.793417
-0.457803 0.009241 -0.801337
-0.413892 0.103963 -0.783424
-0.421419 0.212568 -0.726086
-0.353628 0.258991 -0.116657
-0.331576 0.238803 -0.463773
-0.389113 0.283640 -0.300293
-0.326244 0.242596 -0.335097
-0.381602 0.286593 -0.255425
-0.336359 -0.268543 -0.656143
-0.341731 -0.248575 -0.459858
-0.283131 -0.186858 -0.359081
0.034432 -0.167169 -0.763143
-0.264146 -0.131950 -0.430471
-0.314176 -0.103489 0.053260
-0.249281 0.108282 -0.429607
-0.271952 0.155024 -0.371151
-0.263041 0.192560 0.038149
-0.333559 0.267828 -0.657025
-0.299736 -0.267664 -0.558118
-0.137388 -0.258289 -0.055839
-0.239389 -0.225713 -0.506716
-0.199961 -0.253484 -0.005741
-0.243728 -0.074265 -0.372053
-0.272992 -0.075394 0.084339
-0.239858 -0.001843 -0.413632
-0.206309 0.039278 -0.341619
-0.281376 0.079576 0.078020
0.117344 0.022215 -0.778098
-0.219894 0.213358 -0.504594
-0.212562 0.252114 -0.005551
-0.288449 0.263927 -0.558856
-0.134175 0.262490 -0.048244
-0.177738 -0.220696 0.065979
-0.190453 -0.142328 -0.469884
-0.208460 -0.122588 0.109961
-0.135113 -0.167623 0.818375
-0.112020 -0.200054 0.877372
-0.087981 -0.143262 0.747458
-0.163242 -0.091656 0.890727
-0.149134 -0.044314 0.742636
-0.178969 -0.013091 0.815751
-0.084256 -0.080504 0.937532
-0.208207 0.007781 -0.442481
-0.204965 0.025944 0.128992
-0.166067 0.050567 0.888135
-0.065410 0.105369 0.930500
-0.058737 0.191783 -0.108799
-0.121027 0.115992 0.766756
-0.167760 0.109706 0.821909
-0.186003 0.123171 -0.464043
-0.175757 0.209600 0.071170
-0.117132 0.176065 0.845155
0.045293 0.207906 -0.720482
0.086224 -0.189539 -0.732317
-0.066396 -0.213317 -0.092929
-0.109877 -0.258984 0.017665
-0.035391 -0.230726 -0.034262
0.160060 -0.232776 -0.513503
0.047782 -0.212349 0.248021
0.041317 -0.150528 0.304033
0.103255 -0.073117 -0.432323
0.034125 -0.041721 0.328605
-0.106017 -0.009212 0.713293
0.095963 0.099352 -0.437872
0.041659 0.087750 0.314137
0.069198 0.192165 0.272002
-0.109685 0.267139 0.008620
-0.028883 0.216674 0.874632
0.128308 -0.251459 -0.595110
-0.017609 -0.252994 0.033779
-0.042567 -0.229342 0.830399
-0.037275 -0.219365 0.890639
0.024997 -0.089885 -0.119604
0.039154 -0.196120 0.746448
0.017315 -0.080902 0.694257
0.191935 -0.002223 0.978374
0.059557 0.047903 -0.106097
0.025150 0.129867 0.713368
0.157716 0.224985 -0.510391
0.003255 0.227922 0.811681
-0.037058 0.247410 -0.025125
0.049080 0.260423 0.156728
0.103967 0.244714 -0.669294
0.134647 0.251950 -0.600721
-0.007501 0.261784 0.017920
0.102369 -0.243074 -0.663216
0.106439 -0.263779 0.176684
0.155346 -0.220116 0.878452
0.167456 -0.155284 0.940822
0.117049 0.002575 0.654908
0.196394 -0.086789 0.970171
0.198095 0.082596 0.975032
0.133854 0.116165 -0.762629
0.163085 0.141671 0.665555
0.036510 0.179616 -0.061194
0.201952 0.157074 0.928126
0.177820 0.241879 0.251349
0.128985 0.237820 0.865770
0.139231 -0.262761 0.149647
0.187967 -0.214626 -0.667769
0.108316 -0.159145 -0.028317
0.126627 -0.243270 0.806008
0.193967 -0.230622 0.743655
0.150763 -0.179780 0.337735
0.136726 -0.126460 0.670584
0.105454 -0.121604 -0.766653
0.201381 -0.113967 -0.730371
0.220294 -0.083655 -0.389846
0.207235 -0.108008 -0.001433
0.110918 -0.014896 -0.085650
0.115207 -0.040688 0.375938
0.218281 0.005555 -0.749448
0.215112 0.088649 -0.741213
0.189583 0.047921 -0.396660
0.159209 0.086473 -0.043259
0.122981 0.137275 0.338877
0.133298 0.162588 -0.006008
0.248580 0.178408 -0.430128
0.264857 0.221178 0.329109
0.180964 0.234240 0.747707
0.177083 0.208428 -0.686238
0.155481 0.247955 0.087323
0.148099 0.251927 0.820196
0.159092 0.266810 0.157275
0.309180 -0.233099 -0.571778
0.298709 -0.244312 0.241114
0.211502 -0.248113 0.264468
0.318665 -0.247336 0.730637
0.327544 -0.188405 0.146705
0.291886 -0.236598 0.346543
0.264076 -0.201186 -0.438234
0.234478 -0.149789 0.420570
0.298326 -0.113888 0.915984
0.398528 -0.154835 0.181585
0.185810 -0.020766 0.621473
0.256333 -0.073032 0.498222
0.262914 -0.091656 0.569069
0.293610 0.039762 0.063578
0.271849 0.075478 0.521278
0.249487 0.099033 0.600248
0.212744 0.086324 0.422679
0.177914 0.062762 0.630525
0.284952 0.178628 0.433445
0.312147 0.235923 -0.576678
0.260338 0.248966 0.216235
0.321473 -0.251283 -0.494586
0.300654 -0.225509 0.809776
0.257319 -0.199518 -0.648052
0.300944 -0.174158 0.488325
0.363357 -0.246179 0.452008
0.339780 -0.223527 0.591672
0.283452 -0.221182 0.666684
0.303104 -0.119080 -0.675622
0.432543 -0.140013 -0.363212
0.414198 -0.035143 -0.323822
0.324912 0.043009 0.931458
0.422863 0.080777 -0.341316
0.334039 0.202729 0.578151
0.383218 0.100276 -0.644162
0.328446 0.205132 0.480731
0.268249 0.213699 -0.641040
0.319165 0.229656 0.673335
0.314193 0.247514 -0.506171
0.289329 0.232718 0.810131
0.353256 0.245806 0.310196
0.324137 0.249768 0.743361
0.418004 -0.233393 -0.494819
0.420267 -0.220454 -0.430888
0.412700 -0.254228 0.408293
0.435369 -0.252345 0.618552
0.363444 -0.251517 0.672781
0.550965 -0.160075 0.415694
0.422687 -0.166541 0.822943
0.344462 -0.016026 -0.682967
0.598989 -0.016498 0.352121
0.603848 0.122267 0.372324
0.434067 0.172403 -0.377842
0.428726 0.122483 0.833097
0.480943 0.209205 0.327019
0.414901 0.220009 -0.434682
0.351613 0.240364 0.396476
0.420760 0.227867 -0.496808
0.421516 0.246740 0.464089
0.433637 0.245189 0.640540
0.412415 -0.237003 0.735362
0.450111 -0.152847 -0.581619
0.491226 -0.151777 -0.447646
0.538212 -0.183066 0.673679
0.466610 -0.038646 0.837589
0.445881 -0.025761 -0.639570
0.490948 -0.027207 -0.349089
0.602508 0.043493 0.661718
0.484591 0.146610 -0.411918
0.482756 0.127082 -0.547769
0.549666 0.189951 0.644057
0.444464 0.240801 0.372650
0.409706 0.235236 0.730757
0.566056 0.192304 0.420050
0.529774 -0.231793 0.538184
0.502866 -0.127974 -0.564759
0.492381 -0.020894 -0.609012
0.613688 -0.076709 0.636648
0.532302 -0.005344 -0.549638
0.536744 0.041287 -0.453192
0.583885 0.203035 0.544168
0.535246 0.231517 0.560313
0.642221 -0.026741 0.441572
0.633324 0.108467 0.434520
3 0 2 1
3 0 3 2
3 1 2 4
3 11 1 5
3 1 4 5
3 2 3 6
3 2 6 4
3 14 5 4
3 4 6 8
3 4 8 14
3 8 6 7
3 10 0 9
3 9 0 1
3 1 11 12
3 0 10 3
3 12 11 13
3 11 5 13
3 8 7 15
3 25 8 15
3 9 1 26
3 16 10 9
3 1 12 26
3 26 12 30
3 16 18 10
3 18 17 19
3 18 19 10
3 20 17 31
3 17 20 19
3 10 19 3
3 5 21 13
3 32 20 31
3 3 19 6
3 14 21 5
3 23 20 32
3 19 20 22
3 19 22 6
3 20 23 22
3 6 22 7
3 8 34 14
3 7 22 24
3 7 24 15
3 8 25 34
3 9 26 27
3 9 27 16
3 16 27 28
3 27 26 38
3 39 38 26
3 39 26 41
3 29 16 28
3 26 30 41
3 42 17 29
3 17 18 29
3 16 29 18
3 17 42 31
3 42 43 31
3 43 44 31
3 44 32 31
3 44 45 32
3 45 23 32
3 33 21 14
3 14 34 33
3 35 22 23
3 45 46 23
3 46 35 23
3 22 35 24
3 35 36 24
3 25 47 34
3 36 37 24
3 25 37 49
3 25 49 51
3 25 51 47
3 37 15 24
3 37 25 15
3 29 28 52
3 53 28 27
3 40 27 38
3 29 52 42
3 53 27 40
3 13 30 12
3 30 13 57
3 55 43 42
3 21 57 13
3 35 46 61
3 35 61 36
3 36 48 37
3 50 37 48
3 49 37 50
3 52 28 62
3 64 62 53
3 62 28 53
3 40 38 63
3 38 39 63
3 39 41 65
3 54 53 40
3 41 30 65
3 56 64 53
3 53 54 56
3 30 57 67
3 57 21 67
3 67 21 70
3 71 45 44
3 33 70 21
3 34 60 33
3 33 60 70
3 48 72 58
3 58 59 48
3 59 50 48
3 74 72 48
3 47 73 34
3 34 73 60
3 61 74 36
3 48 36 74
3 75 51 49
3 47 51 73
3 65 63 39
3 30 76 65
3 30 78 76
3 77 64 56
3 54 66 56
3 78 30 67
3 86 77 56
3 68 86 56
3 56 66 68
3 66 69 68
3 78 67 87
3 87 67 70
3 58 86 68
3 68 69 58
3 93 86 58
3 69 59 58
3 87 70 94
3 96 46 45
3 93 58 72
3 94 70 60
3 96 61 46
3 73 94 60
3 50 75 49
3 51 75 73
3 65 99 63
3 97 42 52
3 40 63 98
3 76 99 65
3 99 76 102
3 64 77 101
3 40 98 54
3 80 79 82
3 80 82 85
3 83 81 106
3 81 83 79
3 79 83 84
3 79 84 82
3 104 77 86
3 78 87 105
3 82 84 88
3 82 88 85
3 85 88 89
3 105 87 108
3 91 83 106
3 83 91 84
3 84 91 92
3 84 92 88
3 107 86 93
3 59 69 90
3 87 94 108
3 92 91 95
3 92 95 88
3 88 95 89
3 59 90 50
3 50 90 75
3 110 94 73
3 110 73 75
3 52 62 112
3 100 63 99
3 100 99 113
3 112 62 64
3 98 63 100
3 99 102 113
3 114 80 115
3 79 80 114
3 42 97 55
3 102 76 103
3 79 114 81
3 80 85 115
3 66 54 116
3 116 54 98
3 78 103 76
3 105 103 78
3 117 118 81
3 118 106 81
3 66 116 69
3 119 85 89
3 107 93 122
3 122 93 72
3 94 109 108
3 95 91 123
3 111 89 95
3 127 72 74
3 90 124 75
3 110 75 124
3 110 125 94
3 123 111 95
3 126 61 96
3 126 127 61
3 61 127 74
3 124 128 110
3 110 128 125
3 52 129 97
3 129 52 112
3 101 112 64
3 113 102 130
3 114 115 131
3 98 100 116
3 117 81 114
3 132 115 85
3 104 101 77
3 71 44 43
3 134 85 119
3 104 86 107
3 69 116 120
3 118 121 106
3 121 91 106
3 135 119 89
3 136 45 71
3 90 69 120
3 120 138 90
3 135 89 139
3 139 89 111
3 136 96 45
3 91 121 123
3 90 138 124
3 122 72 127
3 94 125 109
3 123 141 111
3 113 130 142
3 143 97 129
3 129 112 143
3 144 100 113
3 113 142 144
3 117 145 146
3 114 145 117
3 145 114 131
3 100 144 116
3 103 147 102
3 148 117 146
3 131 115 132
3 97 149 55
3 149 43 55
3 144 153 116
3 147 103 154
3 154 103 105
3 148 133 118
3 148 118 117
3 134 132 85
3 149 71 43
3 153 120 116
3 154 105 108
3 159 154 108
3 118 133 121
3 153 160 120
3 133 137 121
3 160 138 120
3 159 108 109
3 124 138 160
3 140 159 109
3 137 163 121
3 121 163 123
3 139 111 141
3 128 160 165
3 128 124 160
3 165 167 128
3 125 140 109
3 166 123 163
3 166 141 123
3 167 125 128
3 130 170 142
3 144 142 169
3 170 130 102
3 102 147 170
3 97 143 150
3 144 169 172
3 149 97 150
3 151 174 104
3 104 174 101
3 172 177 152
3 144 172 152
3 153 144 152
3 147 154 175
3 148 178 133
3 71 149 150
3 155 71 150
3 175 154 179
3 151 104 157
3 156 71 155
3 157 104 107
3 179 154 184
3 184 154 159
3 178 185 133
3 136 71 156
3 160 153 158
3 185 137 133
3 156 164 136
3 161 157 107
3 136 164 96
3 161 107 122
3 159 162 184
3 162 159 140
3 164 126 96
3 126 164 127
3 140 125 167
3 169 142 170
3 168 191 112
3 191 143 112
3 168 112 101
3 168 101 189
3 101 174 189
3 170 147 173
3 171 195 146
3 171 146 190
3 190 146 145
3 190 145 131
3 143 191 150
3 173 147 175
3 195 148 146
3 176 190 131
3 131 132 176
3 151 197 174
3 191 196 150
3 195 180 148
3 180 178 148
3 176 132 134
3 196 155 150
3 153 152 181
3 179 182 180
3 119 176 134
3 198 151 157
3 180 182 183
3 180 183 178
3 158 153 181
3 179 184 182
3 178 183 185
3 135 199 119
3 200 157 161
3 182 184 186
3 183 137 185
3 199 135 139
3 156 204 164
3 162 186 184
3 160 188 165
3 183 205 137
3 137 205 163
3 141 207 139
3 187 127 204
3 127 164 204
3 127 187 122
3 122 187 206
3 161 122 206
3 165 188 167
3 163 205 209
3 163 209 207
3 163 207 166
3 141 166 207
3 188 140 167
3 140 188 162
3 169 170 173
3 189 174 211
3 172 169 215
3 173 192 193
3 194 195 214
3 195 171 214
3 192 173 175
3 193 192 194
3 191 168 196
3 194 192 180
3 194 180 195
3 176 216 190
3 179 192 175
3 192 179 180
3 198 197 151
3 217 155 196
3 176 119 199
3 217 156 155
3 217 202 156
3 160 158 181
3 201 183 182
3 186 203 182
3 182 203 201
3 139 221 199
3 204 156 202
3 220 200 161
3 221 139 207
3 204 202 187
3 223 220 161
3 160 222 188
3 222 208 188
3 205 183 201
3 206 223 161
3 162 188 208
3 162 208 224
3 162 224 186
3 224 203 186
3 212 173 193
3 212 193 213
3 213 214 228
3 210 168 189
3 210 189 211
3 169 212 215
3 169 173 212
3 194 213 193
3 214 213 194
3 228 214 171
3 190 228 171
3 210 229 168
3 197 211 174
3 190 216 228
3 229 196 168
3 232 216 176
3 229 233 217
3 196 229 217
3 152 177 218
3 181 152 218
3 232 176 199
3 233 202 217
3 198 157 200
3 232 199 221
3 160 181 219
3 219 222 160
3 237 187 202
3 187 237 225
3 222 239 208
3 221 207 240
3 206 187 225
3 206 225 223
3 224 208 239
3 226 203 224
3 201 203 226
3 227 201 226
3 205 201 227
3 205 240 209
3 240 207 209
3 239 226 224
3 205 227 240
3 215 212 242
3 212 213 242
3 242 213 231
3 231 213 228
3 211 230 210
3 211 197 230
3 228 216 231
3 229 210 230
3 243 229 230
3 172 215 177
3 243 244 229
3 234 230 197
3 232 231 216
3 244 233 229
3 197 198 234
3 245 231 232
3 235 245 232
3 244 202 233
3 244 237 202
3 234 200 236
3 198 200 234
3 219 181 218
3 232 221 235
3 200 220 236
3 237 236 225
3 236 223 225
3 220 223 236
3 222 241 239
3 221 240 238
3 249 238 227
3 238 240 227
3 241 226 239
3 249 226 241
3 227 226 249
3 215 242 231
3 218 177 215
3 246 244 243
3 243 230 246
3 230 247 246
3 230 234 247
3 237 244 246
3 234 236 247
3 235 221 238
3 246 247 237
3 247 236 237
3 219 241 222
3 241 248 249
3 249 248 238
3 231 245 215
3 218 215 250
3 215 245 250
3 250 245 235
3 251 218 250
3 219 218 251
3 250 235 251
3 235 238 251
3 241 219 251
3 248 241 251
3 238 248 251
