ply
format ascii 1.0
element vertex 252
property float x
property float y
property float z
element face 500
property list uchar int vertex_indices
end_header
-0.478667 -0.149691 -1.053487
-0.494075 -0.101458 -1.105798
-0.510661 -0.026935 -1.059806
-0.504472 -0.010349 -1.123251
-0.486163 0.103745 -1.115338
-0.470381 0.149992 -1.065013
-0.437504 -0.184614 -0.985474
-0.462080 -0.104662 -0.930397
-0.416214 -0.105667 -0.799178
-0.457623 0.013738 -0.884496
-0.440178 0.019724 -0.817584
-0.414095 0.028841 -0.756431
-0.482964 0.030128 -0.965012
-0.451843 0.142791 -0.975598
-0.415471 0.133716 -0.849538
-0.429939 -0.199765 -1.056348
-0.368306 -0.216046 -1.031635
-0.356988 -0.209053 -0.814832
-0.422263 -0.162404 -1.110488
-0.376977 -0.170080 -0.750881
-0.390194 -0.098103 -0.721849
-0.444121 0.000677 -1.152809
-0.346409 -0.141434 -0.667698
-0.339454 -0.041762 -0.582918
-0.325390 -0.131350 0.273318
-0.351245 -0.069232 0.337016
-0.367044 0.035724 -0.652034
-0.353629 -0.024658 0.256669
-0.343737 0.048120 0.347686
-0.330268 0.066195 -0.575841
-0.334643 0.093914 0.257816
-0.427248 0.165251 -1.112252
-0.354807 0.178233 -0.731210
-0.403671 0.211902 -1.025189
-0.341019 0.228520 -0.813446
-0.309443 -0.247968 -0.909991
-0.270279 -0.225700 -0.666958
-0.335090 -0.153791 -1.111279
-0.306459 -0.144098 -0.584838
-0.266415 -0.181594 0.335393
-0.362052 -0.070714 -1.157120
-0.262714 -0.108957 0.211355
-0.321669 -0.038767 0.405613
-0.279314 -0.007116 -1.131391
-0.296815 -0.035201 -0.499888
-0.323504 0.005762 0.185131
-0.341062 0.065539 -1.153441
-0.283166 0.075514 -1.125709
-0.285163 0.085240 -0.498529
-0.286159 0.102702 0.208329
-0.263637 0.087538 0.420219
-0.349999 0.193966 -1.074270
-0.321417 0.176326 -0.650598
-0.273485 0.193166 -0.584409
-0.255810 0.191347 0.331765
-0.274623 0.199035 0.276090
-0.324753 0.248966 -0.941400
-0.280995 0.231355 -0.676219
-0.271372 -0.233953 -0.930859
-0.202113 -0.238160 -0.751473
-0.190269 -0.248506 -0.579799
-0.284143 -0.189310 -1.035733
-0.247320 -0.224871 -0.581917
-0.243791 -0.182280 -0.504198
-0.275045 -0.201602 0.271634
-0.183117 -0.158780 -0.912403
-0.182070 -0.193172 -0.416230
-0.222905 -0.081202 -1.046043
-0.247806 -0.089172 -0.426269
-0.250701 -0.049175 0.440029
-0.210982 -0.045025 -0.351292
-0.262727 0.002609 0.167427
-0.207861 0.036860 -1.039583
-0.252597 0.052937 -0.427803
-0.186695 0.090659 -0.338755
-0.257743 0.146922 -1.040746
-0.180175 0.160895 -0.900126
-0.198544 0.217826 -0.494520
-0.179779 0.200112 -0.418571
-0.262493 0.228593 -0.929223
-0.206355 0.249867 -0.726815
-0.180264 -0.211333 -0.824372
-0.110778 -0.247613 -0.574592
-0.198075 -0.236420 0.290036
-0.150374 -0.239601 0.351197
-0.127726 -0.144804 -0.803721
-0.107412 -0.188379 -0.720444
-0.136223 -0.160605 0.435260
-0.101946 -0.125209 -0.218419
0.016534 -0.043216 0.183557
-0.138275 -0.032657 -0.915052
-0.123082 0.019548 -0.216600
-0.107142 -0.054653 0.489223
-0.125226 0.067468 -0.879653
-0.135142 0.082729 0.476151
-0.105444 0.141828 -0.252830
-0.130096 0.170510 0.437896
-0.121225 0.136402 -0.813658
-0.122676 0.206192 -0.722273
-0.060000 0.214676 -0.300345
-0.170043 0.212483 -0.807187
-0.190119 0.249148 -0.593055
-0.186451 0.219749 0.280307
-0.110889 0.243019 -0.553823
-0.114232 -0.232345 -0.647127
-0.108004 -0.246617 -0.453757
-0.032136 -0.235204 -0.416017
-0.044137 -0.224546 -0.288042
-0.039587 -0.220414 0.280060
-0.049831 -0.224345 0.420960
-0.028856 -0.203851 -0.193993
-0.032407 -0.154190 -0.128005
0.036110 -0.098412 0.206791
-0.035482 -0.152743 0.482258
-0.064464 -0.050581 -0.124602
-0.059231 -0.045968 -0.738138
-0.088453 0.025839 -0.812960
-0.062999 0.064458 -0.742194
0.042500 0.033530 0.186959
-0.035958 0.047229 0.512630
-0.048176 0.081733 -0.112440
-0.044246 0.175919 -0.185345
0.031564 0.100807 0.216089
-0.038626 0.158493 0.478046
-0.016404 0.166194 -0.112647
-0.128521 0.239437 -0.648840
-0.114320 0.247185 -0.450608
-0.061690 0.236365 0.363075
-0.044832 0.212325 0.434711
-0.045170 -0.225687 -0.508029
-0.045070 -0.255864 0.357300
-0.056751 -0.161864 -0.663290
-0.026265 -0.167176 -0.587051
0.022701 -0.168972 -0.485161
0.032749 -0.216383 -0.337962
0.078660 -0.221648 -0.078314
-0.021311 -0.066798 0.516985
-0.017353 -0.014408 -0.662211
0.019228 0.020921 -0.593663
-0.057096 0.164807 -0.644064
-0.017141 0.175829 -0.565909
0.035973 0.169718 -0.473584
-0.049049 0.233699 -0.504302
-0.031661 0.238917 -0.421322
0.042637 0.218308 -0.322213
0.081712 0.223781 -0.080095
-0.017171 0.225239 0.295391
0.049116 -0.232872 -0.223777
0.108554 -0.245670 0.408585
0.039631 -0.233482 0.441420
0.146078 -0.207630 -0.182965
0.049513 -0.187289 0.275978
0.110340 -0.143296 0.532223
0.083407 -0.098160 -0.427930
0.104341 -0.154783 0.044982
0.136400 -0.133300 0.122988
0.061261 -0.042963 -0.512077
0.107834 -0.039148 0.113221
0.102019 0.016878 0.558739
0.066499 0.035106 0.046046
0.115359 -0.010477 0.198653
0.098182 0.055172 -0.438820
0.058579 0.082481 -0.516420
0.136500 0.135254 0.109155
0.136288 0.135796 -0.306482
0.094607 0.161708 0.031363
0.041599 0.229873 -0.209614
0.123218 0.197294 -0.244558
0.104722 0.215709 0.321743
0.088316 0.236540 0.420968
0.142751 -0.238800 -0.081721
0.131828 -0.216030 0.335474
0.101738 -0.193695 -0.272372
0.255145 -0.209872 -0.005705
0.191269 -0.230582 0.033569
0.200060 -0.212135 0.109572
0.170809 -0.172425 0.273265
0.179874 -0.123235 -0.218723
0.166137 -0.132476 0.204886
0.117858 -0.115631 0.231133
0.149629 -0.053677 -0.310124
0.125962 -0.006607 0.193289
0.212140 -0.116731 0.592935
0.194145 -0.017134 0.598641
0.210786 0.010293 -0.212432
0.150701 0.055073 -0.324167
0.129596 0.090790 0.226933
0.166296 0.136713 0.198852
0.191673 0.155623 -0.184659
0.131662 0.162885 0.528723
0.211475 0.117591 0.595076
0.183377 0.190731 0.270178
0.191713 0.224210 0.045354
0.150511 0.228474 -0.099926
0.214915 0.216277 0.116396
0.270878 -0.278086 0.441468
0.190941 -0.252228 0.369629
0.275512 -0.237274 0.177396
0.261187 -0.249233 0.311920
0.283232 -0.191563 0.559027
0.308655 -0.092871 -0.050105
0.320751 0.074452 -0.038494
0.274697 0.193753 0.574390
0.262083 0.201046 -0.004346
0.264035 0.228508 0.185466
0.187985 0.251749 0.360265
0.262641 0.272688 0.447222
0.285918 -0.231401 0.107379
0.358065 -0.277000 0.484603
0.331447 -0.163577 0.033125
0.275080 -0.065829 0.612719
0.380127 -0.045815 0.036479
0.252888 0.060391 0.615644
0.360100 0.129023 0.047513
0.277759 0.147094 0.606318
0.288297 0.226744 0.103338
0.266606 0.260977 0.320711
0.359101 0.283272 0.480135
0.347152 -0.283423 0.409524
0.338762 -0.245158 0.208893
0.418737 -0.233107 0.272466
0.391378 -0.188977 0.153790
0.581462 -0.198063 0.565499
0.634706 -0.118190 0.603299
0.499534 -0.081463 0.212307
0.643182 0.042539 0.610350
0.463792 0.117160 0.173380
0.392843 0.197319 0.162013
0.337093 0.242953 0.203038
0.348483 0.286570 0.409020
0.450264 -0.256770 0.432554
0.499296 -0.238585 0.512131
0.502473 -0.176008 0.293330
0.497395 0.045902 0.197709
0.489792 0.157586 0.265346
0.417598 0.231465 0.269833
0.475053 0.248482 0.424540
0.484882 0.250815 0.512416
0.553700 -0.202831 0.425827
0.577120 -0.125393 0.348951
0.584538 -0.009440 0.323929
0.563319 0.103209 0.331454
0.531782 0.176012 0.353645
0.641001 0.152778 0.567030
0.586893 0.177593 0.426833
0.622925 -0.182909 0.510374
0.684401 -0.096546 0.512136
0.685916 0.080299 0.515456
0.629224 0.192324 0.518917
0.672850 -0.144309 0.572137
0.706201 -0.054906 0.582221
0.708961 0.065010 0.586837
3 1 2 0
3 0 2 7
3 1 3 2
3 7 2 12
3 3 4 2
3 2 4 5
3 2 5 12
3 18 0 15
3 15 0 6
3 18 1 0
3 18 21 1
3 7 6 0
3 7 9 8
3 21 3 1
3 8 9 10
3 20 8 11
3 8 10 11
3 7 12 9
3 21 4 3
3 21 31 4
3 12 13 9
3 9 13 14
3 9 14 10
3 11 10 14
3 5 13 12
3 31 5 4
3 31 33 5
3 5 33 13
3 16 17 35
3 16 18 15
3 16 37 18
3 15 6 16
3 16 6 17
3 17 8 19
3 18 37 40
3 6 7 17
3 17 7 8
3 19 8 20
3 19 20 22
3 40 21 18
3 22 23 38
3 20 11 26
3 20 26 22
3 22 26 23
3 24 27 25
3 25 27 28
3 40 46 21
3 23 26 29
3 27 30 28
3 46 31 21
3 14 32 11
3 26 11 32
3 51 31 46
3 14 34 32
3 33 31 51
3 13 33 14
3 14 33 34
3 51 56 33
3 56 34 33
3 16 35 58
3 58 35 59
3 35 17 59
3 36 59 17
3 61 37 16
3 16 58 61
3 19 22 17
3 17 22 36
3 62 36 38
3 36 22 38
3 24 39 64
3 41 24 64
3 39 24 25
3 39 42 69
3 39 25 42
3 43 40 37
3 38 23 44
3 27 24 41
3 45 41 71
3 41 45 27
3 28 42 25
3 46 40 43
3 29 44 23
3 69 42 50
3 47 46 43
3 48 44 29
3 44 48 73
3 49 45 71
3 45 49 30
3 27 45 30
3 50 42 28
3 32 52 26
3 26 52 29
3 29 52 53
3 29 53 48
3 28 30 54
3 50 28 54
3 47 51 46
3 51 47 75
3 55 30 49
3 30 55 54
3 75 79 51
3 52 32 57
3 53 52 57
3 79 56 51
3 79 80 56
3 56 80 34
3 34 57 32
3 34 80 57
3 58 59 81
3 60 59 36
3 60 36 62
3 60 63 66
3 62 63 60
3 83 39 84
3 64 39 83
3 58 65 61
3 58 81 65
3 62 38 63
3 83 41 64
3 39 87 84
3 37 61 67
3 61 65 67
3 66 63 68
3 44 63 38
3 63 44 68
3 66 68 70
3 87 39 69
3 43 37 67
3 89 71 41
3 87 69 92
3 72 43 67
3 73 68 44
3 68 73 70
3 92 69 94
3 94 69 50
3 47 43 72
3 70 73 74
3 75 47 72
3 94 50 96
3 72 76 75
3 53 77 48
3 48 77 73
3 73 77 78
3 74 73 78
3 96 50 54
3 75 76 79
3 76 100 79
3 55 49 102
3 100 80 79
3 57 80 101
3 57 101 53
3 101 77 53
3 102 54 55
3 82 60 105
3 59 60 104
3 82 104 60
3 60 66 105
3 105 66 107
3 65 81 85
3 81 59 85
3 59 86 85
3 59 104 86
3 108 41 83
3 85 90 65
3 66 70 88
3 41 112 89
3 67 65 90
3 91 88 70
3 72 67 90
3 74 91 70
3 90 93 72
3 93 76 72
3 95 91 74
3 122 49 71
3 93 97 76
3 74 99 95
3 100 76 97
3 97 98 100
3 78 99 74
3 122 102 49
3 80 100 98
3 98 125 80
3 80 125 101
3 103 101 125
3 77 101 103
3 77 103 126
3 77 126 78
3 78 126 99
3 102 127 54
3 96 54 127
3 106 129 105
3 82 105 129
3 106 105 107
3 108 83 130
3 83 84 130
3 109 130 84
3 131 86 104
3 104 82 132
3 131 104 132
3 82 129 132
3 87 109 84
3 109 87 113
3 88 107 66
3 107 88 110
3 110 88 111
3 108 112 41
3 111 88 114
3 92 113 87
3 86 115 85
3 86 131 115
3 113 92 136
3 116 90 85
3 85 115 116
3 93 90 116
3 115 117 116
3 88 91 114
3 89 118 71
3 92 119 136
3 114 91 120
3 94 119 92
3 95 121 91
3 91 121 120
3 118 122 71
3 123 119 94
3 97 93 116
3 116 117 97
3 120 121 124
3 96 123 94
3 98 97 117
3 98 117 139
3 95 99 121
3 125 98 139
3 139 140 103
3 125 139 103
3 140 142 103
3 146 102 122
3 96 128 123
3 126 103 142
3 143 126 142
3 126 143 99
3 146 127 102
3 96 127 128
3 106 133 129
3 134 133 106
3 134 106 107
3 134 107 147
3 107 110 147
3 110 135 147
3 108 148 151
3 108 130 148
3 148 130 149
3 130 109 149
3 129 133 132
3 110 111 135
3 149 109 113
3 151 112 108
3 152 149 113
3 136 152 113
3 133 156 132
3 115 131 137
3 131 132 137
3 132 138 137
3 132 156 138
3 152 136 158
3 117 115 137
3 158 136 119
3 156 162 138
3 139 117 137
3 137 138 139
3 138 140 139
3 138 162 140
3 162 141 140
3 140 141 142
3 141 143 142
3 143 141 144
3 124 121 145
3 169 123 128
3 144 166 99
3 144 99 143
3 99 166 121
3 166 145 121
3 168 127 146
3 168 169 127
3 127 169 128
3 150 147 170
3 147 135 170
3 148 171 151
3 134 147 172
3 172 147 150
3 135 111 154
3 148 149 152
3 133 134 153
3 134 172 153
3 133 153 156
3 114 154 111
3 155 154 157
3 157 181 155
3 112 151 179
3 151 171 179
3 159 154 114
3 154 159 157
3 112 160 89
3 112 179 160
3 153 161 156
3 180 185 161
3 153 180 161
3 160 118 89
3 156 161 162
3 120 159 114
3 157 159 163
3 160 122 118
3 157 163 181
3 160 186 122
3 158 119 189
3 189 119 123
3 162 161 141
3 185 164 161
3 165 159 120
3 124 165 120
3 159 165 163
3 186 168 122
3 161 164 141
3 164 144 141
3 144 164 167
3 124 145 165
3 146 122 168
3 189 123 169
3 167 166 144
3 167 193 166
3 193 145 166
3 170 173 150
3 174 170 135
3 148 195 196
3 148 196 171
3 148 199 195
3 154 174 135
3 174 154 175
3 175 154 155
3 175 155 178
3 176 171 196
3 152 199 148
3 150 177 172
3 152 182 199
3 172 180 153
3 172 177 180
3 181 178 155
3 179 176 178
3 176 179 171
3 184 180 177
3 183 182 152
3 158 183 152
3 178 181 160
3 179 178 160
3 180 184 185
3 184 164 185
3 181 187 186
3 160 181 186
3 184 188 164
3 163 187 181
3 190 183 158
3 189 190 158
3 186 187 191
3 186 191 168
3 164 188 167
3 163 165 192
3 188 193 167
3 145 192 165
3 163 192 194
3 163 194 187
3 145 193 192
3 205 168 191
3 205 169 168
3 206 189 169
3 205 206 169
3 195 198 196
3 170 174 173
3 173 174 207
3 174 175 207
3 197 207 175
3 150 173 200
3 178 197 175
3 176 198 178
3 178 198 197
3 198 176 196
3 177 150 200
3 199 182 210
3 210 182 183
3 210 183 212
3 184 201 188
3 212 183 190
3 214 212 190
3 189 202 190
3 190 202 214
3 188 203 193
3 188 201 203
3 194 204 187
3 191 187 204
3 203 192 193
3 203 215 192
3 192 215 194
3 194 215 204
3 204 216 191
3 216 205 191
3 202 189 206
3 205 216 206
3 198 218 219
3 195 218 198
3 195 199 208
3 195 208 218
3 207 219 221
3 207 197 219
3 198 219 197
3 173 209 200
3 221 209 207
3 207 209 173
3 199 223 222
3 223 199 210
3 209 211 200
3 209 221 211
3 184 177 200
3 200 201 184
3 225 212 214
3 201 213 203
3 227 228 215
3 227 215 213
3 213 215 203
3 228 204 215
3 228 216 204
3 228 229 216
3 229 206 216
3 206 229 217
3 206 217 202
3 219 218 220
3 218 230 220
3 218 208 230
3 230 208 231
3 219 220 221
3 231 208 199
3 211 221 224
3 200 211 201
3 211 213 201
3 211 233 213
3 213 233 226
3 227 213 226
3 227 235 228
3 235 229 228
3 236 229 235
3 229 236 217
3 238 232 230
3 230 232 220
3 238 230 231
3 231 199 222
3 220 232 221
3 232 224 221
3 224 233 211
3 233 234 226
3 226 234 227
3 227 234 235
3 242 236 234
3 202 237 243
3 243 214 202
3 234 236 235
3 237 202 217
3 217 236 237
3 238 231 245
3 222 245 231
3 232 238 239
3 232 239 224
3 239 240 224
3 224 240 233
3 225 223 210
3 225 210 212
3 233 240 241
3 233 241 234
3 234 241 242
3 241 244 242
3 242 244 236
3 237 248 243
3 248 236 244
3 248 237 236
3 245 222 249
3 222 223 249
3 238 245 239
3 240 239 246
3 247 240 246
3 241 240 247
3 247 248 244
3 241 247 244
3 225 214 243
3 239 245 246
3 245 249 246
3 249 250 246
3 249 223 250
3 223 225 250
3 246 250 247
3 250 251 247
3 250 225 251
3 251 243 247
3 251 225 243
3 247 243 248
