ply
format ascii 1.0
element vertex 250
property float x
property float y
property float z
element face 500
property list uchar int vertex_indices
end_header
-0.333798 -0.049465 -0.118282
-0.359484 0.015855 0.268704
-0.329097 0.097809 -0.053221
-0.342782 0.089631 0.271740
-0.253494 -0.184199 -0.105360
-0.264081 -0.181736 0.033500
-0.267831 -0.171204 0.138172
-0.302961 -0.165362 0.309240
-0.340475 -0.103503 0.244453
-0.280912 -0.096459 -0.193859
-0.286194 0.008032 0.451639
-0.276811 0.062109 -0.200326
-0.211432 0.145764 0.467229
-0.246053 0.190473 0.260594
-0.250881 0.190111 -0.123436
-0.242263 0.173653 0.055367
-0.172860 -0.226893 -0.639442
-0.255387 -0.206176 0.259998
-0.191085 -0.226323 0.373714
-0.193972 -0.196464 -0.874490
-0.215669 -0.154030 -0.596418
-0.187356 -0.179125 -0.195310
-0.191748 -0.137078 0.479406
-0.212781 -0.122131 -0.971414
-0.212187 -0.142363 0.034851
-0.202202 -0.116619 0.105223
-0.281444 -0.088578 0.440384
-0.240259 -0.053284 0.510312
-0.259584 -0.028668 -0.906194
-0.241965 -0.014446 -0.587917
-0.225207 -0.025697 -0.994638
-0.232811 0.076311 0.522335
-0.217673 0.099903 -0.975675
-0.259507 0.083565 -0.871493
-0.218799 0.132934 -0.595773
-0.189057 0.209144 -0.882975
-0.191234 0.143632 0.026391
-0.196428 0.123425 0.104934
-0.198244 0.195853 -0.183422
-0.170992 0.220647 -0.631898
-0.177895 0.232221 0.379903
-0.098865 -0.242504 -0.848325
-0.104869 -0.246108 -0.664098
-0.062975 -0.248752 -0.109291
-0.141131 -0.217901 0.270207
-0.137079 -0.212471 -0.960567
-0.183634 -0.196539 -0.042687
-0.206990 -0.187969 0.198838
-0.132293 -0.219291 -0.554147
-0.108506 -0.160659 -0.426953
-0.194306 -0.093169 -0.500165
-0.125601 -0.125903 0.190476
-0.098815 -0.123733 -1.029709
-0.178785 -0.012782 -0.280212
-0.185629 -0.028984 0.532692
-0.166665 -0.007467 -0.425427
-0.144456 -0.025062 -0.338692
-0.139669 -0.093717 -0.286059
-0.173125 0.024481 0.046255
-0.159813 -0.001332 0.131126
-0.138292 0.027470 -1.047657
-0.195251 0.069061 -0.486539
-0.083665 0.139565 -1.034323
-0.150483 0.098947 -0.420898
-0.130850 0.069112 -0.332570
-0.192301 0.088544 -0.247349
-0.133139 0.091913 -0.286388
-0.187522 0.109334 0.527357
-0.119052 0.089244 0.174686
-0.142633 0.217562 -0.966231
-0.140953 0.198824 -0.510814
-0.100067 0.192765 -0.436828
-0.195481 0.208879 -0.045735
-0.166863 0.187549 0.212021
-0.095805 0.247096 -0.129253
-0.168610 0.230244 0.288706
-0.118903 0.245318 -0.810954
-0.101541 0.243780 -0.626680
-0.106463 0.257637 0.355390
-0.063354 -0.256537 0.360390
-0.046109 -0.227050 -0.518677
-0.084072 -0.228616 -0.206686
-0.106212 -0.232657 0.430429
-0.034731 -0.224259 -0.815443
-0.038141 -0.212943 -0.746308
-0.105291 -0.201567 -0.037443
-0.022112 -0.207653 -0.368281
-0.037079 -0.208923 -0.289242
0.003390 -0.184646 0.105367
-0.096207 -0.136377 -0.333591
-0.124627 -0.117259 0.008616
0.115584 -0.089178 0.504973
-0.025903 -0.048214 0.120508
-0.108162 -0.018057 0.173219
-0.109643 0.077221 0.032265
0.108035 0.064259 0.507179
-0.012563 0.081600 0.132247
-0.034130 0.203581 -0.352271
-0.102499 0.215792 -0.211509
-0.034279 0.219000 -0.274524
-0.109872 0.201685 -0.024740
-0.106736 0.249354 -0.903549
-0.042077 0.219301 -0.821348
-0.041867 0.217464 -0.734121
-0.113421 0.246529 0.408464
-0.052338 0.233029 -0.529646
-0.007149 -0.221756 -0.974218
-0.054543 -0.237385 -0.644305
0.021901 -0.252212 -0.215732
0.021033 -0.240285 0.263896
0.028206 -0.246216 0.416795
0.001551 -0.186978 -0.659511
0.036422 -0.190558 -0.450802
0.038371 -0.144708 -0.793656
-0.026241 -0.161980 0.197158
0.033832 -0.215138 0.186875
0.030192 -0.074181 -0.735933
-0.045799 -0.005989 0.168625
0.016097 0.117999 -0.753261
0.117438 0.134696 -1.018975
-0.023781 0.144947 0.180750
0.034776 0.138618 -0.800490
0.028610 0.190438 0.118677
0.018299 0.249800 0.268711
0.044119 0.219557 0.186879
0.004204 0.226865 -0.964645
-0.035641 0.230834 -0.653252
0.008768 0.184143 -0.645357
0.031988 0.203929 -0.437374
0.022410 0.236540 -0.264457
0.019666 0.268074 0.363016
0.116421 -0.262190 -0.088568
0.107602 -0.267136 0.092476
0.065726 -0.216361 -0.892992
0.162009 -0.283152 0.188119
0.031458 -0.216200 -0.332405
0.107150 -0.221582 -0.223601
0.125150 -0.134136 -1.018769
0.097712 -0.177697 0.470530
0.055911 -0.085404 -0.629507
0.085450 -0.146521 -0.410254
0.061730 0.002732 -0.774895
0.111782 -0.022583 -0.437269
0.069710 0.009170 -1.058631
0.051161 0.036156 -0.658402
0.087558 0.135187 -0.417477
0.092326 0.171833 0.472341
0.026908 0.219234 -0.881706
0.035313 0.244590 0.418085
0.109632 0.217338 -0.221456
0.120411 0.261431 -0.088116
0.096140 0.270617 0.034014
0.111546 0.262968 0.152360
0.210527 -0.286442 0.271261
0.149876 -0.252179 0.365312
0.138052 -0.199658 -0.962676
0.176375 -0.284857 0.100471
0.183108 -0.202354 -0.120206
0.205774 -0.158261 0.461930
0.191880 -0.106613 -0.839650
0.182728 -0.121148 -0.210043
0.183326 -0.030929 -0.801268
0.207503 -0.011216 -0.199292
0.172112 0.094862 -0.833872
0.139684 0.050339 -0.350078
0.186068 0.094661 -0.210802
0.132987 0.197856 -0.970456
0.205938 0.149694 0.462518
0.148138 0.190877 -0.919740
0.199980 0.178221 -0.109356
0.173459 0.280953 0.077519
0.197764 0.285661 0.253205
0.165762 0.254781 0.363961
0.255334 -0.282262 0.197082
0.229770 -0.204835 -0.021489
0.186493 -0.169966 -0.914634
0.199061 -0.138538 -0.964744
0.269175 -0.259320 0.346228
0.234818 -0.084746 -0.119711
0.282775 -0.032202 -0.052470
0.242817 -0.051563 -0.889743
0.202686 -0.026575 0.497058
0.210676 0.010019 -0.982000
0.233580 -0.002752 -0.827185
0.271222 -0.133570 0.493847
0.303531 -0.071893 0.569116
0.241074 0.043409 -0.120883
0.265345 0.079754 0.513452
0.315757 0.062641 0.579650
0.232925 0.086670 -0.889316
0.272761 0.115822 -0.042966
0.194713 0.144070 -0.957284
0.238138 0.221419 0.006676
0.259529 0.207941 0.431749
0.270286 0.273027 0.197854
0.278561 -0.285835 0.269209
0.360490 -0.250813 0.278180
0.364011 -0.254395 0.413794
0.351515 -0.166096 0.565613
0.383542 -0.108917 0.106501
0.416949 0.029093 0.124259
0.388394 0.125760 0.110111
0.345169 0.176576 0.543139
0.376518 0.183373 0.159225
0.274741 0.275163 0.313749
0.347020 0.252629 0.256583
0.357301 -0.194175 0.152787
0.418570 -0.252330 0.508272
0.433425 -0.104024 0.179001
0.343314 -0.067196 0.613996
0.445709 0.082850 0.172354
0.362940 0.257935 0.423472
0.414801 0.253811 0.347313
0.417340 0.253689 0.507010
0.484659 -0.264235 0.427995
0.423722 -0.266351 0.357639
0.429533 -0.206817 0.596327
0.522733 -0.175164 0.659524
0.517225 -0.082744 0.255253
0.410648 -0.109962 0.645406
0.460915 -0.009079 0.183623
0.413360 0.077993 0.646963
0.487976 0.128235 0.255492
0.521854 0.101756 0.692056
0.431352 0.206622 0.595840
0.503894 0.182997 0.653534
0.484932 0.265416 0.432379
0.547915 -0.248949 0.573828
0.521870 -0.206037 0.330735
0.512379 -0.041649 0.695140
0.579236 0.177458 0.351389
0.550936 0.248612 0.580616
0.593922 -0.252918 0.510766
0.630938 -0.176194 0.443643
0.625952 -0.231856 0.587323
0.616656 -0.204143 0.651289
0.588398 -0.121410 0.308315
0.651357 -0.106194 0.688230
0.667281 -0.030133 0.354084
0.601803 0.006432 0.300645
0.649504 0.073674 0.692549
0.680134 0.110152 0.417264
0.593522 0.187084 0.659442
0.635760 0.209408 0.434728
0.651434 0.191836 0.599664
0.601295 0.257899 0.523075
0.663037 -0.171260 0.649126
0.694708 -0.093933 0.642548
0.707440 -0.004296 0.445230
0.700417 0.045889 0.650021
3 0 1 8
3 0 2 1
3 1 2 3
3 6 7 17
3 5 4 8
3 5 8 6
3 6 8 7
3 9 0 4
3 4 0 8
3 7 8 26
3 10 8 1
3 8 10 26
3 9 11 0
3 0 11 2
3 12 10 1
3 3 12 1
3 3 2 13
3 3 13 12
3 14 2 11
3 2 14 15
3 2 15 13
3 21 4 43
3 43 4 46
3 17 18 44
3 16 19 20
3 46 4 5
3 6 17 47
3 17 44 47
3 17 7 18
3 18 7 22
3 4 21 9
3 24 46 5
3 5 6 24
3 6 25 24
3 6 47 25
3 7 26 22
3 22 26 27
3 19 23 28
3 19 28 20
3 20 28 29
3 20 29 50
3 21 53 9
3 22 27 54
3 23 30 28
3 50 29 61
3 53 11 9
3 26 10 27
3 27 10 31
3 27 31 54
3 30 32 28
3 28 32 33
3 28 33 29
3 29 33 34
3 29 34 61
3 53 65 11
3 54 31 67
3 10 12 31
3 33 32 35
3 33 35 34
3 11 65 38
3 11 38 14
3 36 37 15
3 37 73 15
3 31 12 67
3 35 39 34
3 15 72 36
3 15 14 72
3 73 13 15
3 75 13 73
3 12 13 40
3 38 74 14
3 14 74 72
3 75 40 13
3 79 18 82
3 45 19 41
3 41 19 16
3 42 41 16
3 42 16 48
3 43 81 21
3 46 85 43
3 18 79 44
3 16 20 48
3 47 44 51
3 18 22 82
3 45 52 23
3 45 23 19
3 50 48 20
3 48 50 49
3 81 57 21
3 85 46 90
3 90 46 24
3 25 47 51
3 57 53 21
3 91 22 54
3 49 50 55
3 89 49 56
3 49 55 56
3 58 90 24
3 24 25 58
3 25 59 58
3 51 93 59
3 25 51 59
3 52 60 30
3 23 52 30
3 57 56 53
3 94 90 58
3 50 61 55
3 93 68 59
3 91 54 95
3 60 62 32
3 30 60 32
3 55 61 63
3 55 63 56
3 56 63 64
3 56 64 53
3 53 64 66
3 53 66 65
3 95 54 67
3 59 37 58
3 59 68 37
3 64 63 71
3 66 98 65
3 98 38 65
3 58 36 94
3 37 36 58
3 32 62 69
3 32 69 35
3 34 70 61
3 61 70 63
3 63 70 71
3 94 36 100
3 73 37 68
3 39 70 34
3 100 36 72
3 40 104 12
3 69 101 35
3 101 76 35
3 39 35 76
3 77 39 76
3 39 77 70
3 98 74 38
3 74 100 72
3 75 78 40
3 40 78 104
3 82 110 79
3 106 45 41
3 41 84 83
3 107 84 42
3 42 84 41
3 80 107 48
3 42 48 107
3 80 48 49
3 80 49 86
3 81 108 87
3 108 81 43
3 109 44 79
3 106 52 45
3 109 114 44
3 114 51 44
3 89 86 49
3 86 89 87
3 81 87 57
3 90 88 85
3 87 89 57
3 57 89 56
3 114 117 51
3 117 93 51
3 94 92 90
3 117 68 93
3 94 96 92
3 117 120 68
3 71 97 64
3 64 97 66
3 73 68 120
3 66 97 99
3 66 99 98
3 120 123 73
3 125 69 62
3 123 75 73
3 125 101 69
3 102 76 101
3 102 103 76
3 126 77 103
3 103 77 76
3 105 77 126
3 70 77 105
3 71 70 105
3 71 105 97
3 129 98 99
3 74 98 129
3 123 78 75
3 130 78 123
3 130 104 78
3 43 131 108
3 132 131 43
3 132 43 88
3 106 41 133
3 83 133 41
3 80 111 107
3 80 112 111
3 80 86 112
3 135 87 108
3 43 85 88
3 137 52 106
3 83 113 133
3 84 113 83
3 84 107 111
3 112 86 135
3 87 135 86
3 115 114 109
3 110 82 138
3 138 82 22
3 84 116 113
3 111 139 116
3 84 111 116
3 115 88 114
3 92 88 90
3 92 114 88
3 141 113 116
3 114 92 117
3 143 62 60
3 118 141 116
3 116 144 118
3 92 96 117
3 121 141 118
3 144 127 118
3 117 96 120
3 102 147 121
3 121 118 102
3 118 103 102
3 118 127 103
3 122 96 94
3 100 122 94
3 96 122 120
3 120 122 124
3 120 124 123
3 12 148 146
3 146 67 12
3 95 67 146
3 119 125 62
3 103 127 126
3 97 128 129
3 129 99 97
3 148 12 104
3 125 147 101
3 147 102 101
3 126 127 105
3 127 128 105
3 128 97 105
3 104 130 148
3 129 150 74
3 100 151 122
3 100 74 151
3 74 150 151
3 109 153 134
3 153 109 154
3 109 79 154
3 110 154 79
3 155 106 133
3 108 136 135
3 136 108 131
3 134 132 115
3 109 134 115
3 138 154 110
3 155 137 106
3 115 132 88
3 111 112 139
3 112 140 139
3 112 135 140
3 135 136 140
3 138 22 91
3 159 113 161
3 161 113 141
3 140 142 139
3 137 143 52
3 143 60 52
3 161 141 163
3 144 116 139
3 139 142 144
3 142 145 144
3 142 164 145
3 143 119 62
3 163 141 121
3 144 145 127
3 145 128 127
3 166 125 119
3 129 128 145
3 145 149 129
3 166 168 125
3 125 168 147
3 129 149 150
3 122 152 124
3 124 152 123
3 148 172 146
3 151 152 122
3 152 171 123
3 171 172 123
3 123 172 130
3 172 148 130
3 156 131 132
3 134 156 132
3 157 136 131
3 131 174 157
3 174 131 156
3 175 155 133
3 133 159 175
3 158 154 138
3 176 137 155
3 155 175 176
3 159 133 113
3 140 136 160
3 136 157 160
3 158 138 91
3 181 158 91
3 176 182 137
3 140 160 142
3 137 182 143
3 160 162 142
3 142 162 164
3 95 181 91
3 143 182 119
3 162 165 164
3 167 181 95
3 182 191 119
3 164 165 145
3 146 167 95
3 166 119 191
3 191 168 166
3 163 121 147
3 149 145 165
3 163 147 168
3 146 172 167
3 150 149 169
3 169 192 150
3 150 192 170
3 151 150 170
3 170 152 151
3 170 171 152
3 134 153 173
3 156 134 173
3 173 153 195
3 153 177 195
3 154 177 153
3 156 173 174
3 158 177 154
3 160 157 178
3 157 174 178
3 174 179 178
3 158 184 177
3 175 180 176
3 159 180 175
3 184 158 181
3 176 180 182
3 159 183 180
3 159 161 183
3 160 178 162
3 161 163 183
3 178 186 162
3 178 179 186
3 187 184 181
3 184 187 185
3 185 187 188
3 180 189 182
3 180 183 189
3 162 186 165
3 179 190 186
3 167 187 181
3 182 189 191
3 183 163 189
3 169 165 186
3 149 165 169
3 186 190 169
3 191 189 168
3 190 192 169
3 193 187 167
3 189 163 168
3 193 167 172
3 192 194 170
3 193 172 204
3 171 194 204
3 204 172 171
3 194 171 170
3 196 173 195
3 196 195 177
3 196 177 197
3 206 173 196
3 174 173 206
3 177 184 197
3 197 184 198
3 179 174 199
3 174 206 199
3 198 184 185
3 198 185 209
3 209 185 188
3 200 190 179
3 201 190 200
3 192 190 201
3 201 203 192
3 193 202 187
3 187 202 188
3 203 194 192
3 204 211 193
3 211 202 193
3 205 194 203
3 204 194 205
3 205 212 204
3 204 212 211
3 215 197 214
3 197 207 214
3 196 197 215
3 198 207 197
3 198 216 207
3 206 208 199
3 206 196 208
3 216 198 219
3 219 198 209
3 179 199 200
3 219 209 221
3 221 209 188
3 221 188 202
3 201 210 203
3 210 222 203
3 221 202 224
3 222 205 203
3 222 212 205
3 213 202 211
3 213 224 202
3 212 226 211
3 226 213 211
3 214 207 227
3 214 228 215
3 216 227 207
3 196 215 228
3 208 196 218
3 196 228 218
3 219 217 216
3 217 219 229
3 199 208 200
3 208 220 200
3 208 218 220
3 229 221 223
3 219 221 229
3 220 210 200
3 218 222 210
3 220 218 210
3 200 210 201
3 225 223 221
3 224 225 221
3 231 224 213
3 226 231 213
3 214 227 232
3 216 217 227
3 217 235 227
3 236 218 228
3 235 217 237
3 237 217 229
3 239 218 236
3 240 229 223
3 222 218 239
3 222 239 230
3 240 223 242
3 230 212 222
3 242 223 225
3 230 226 212
3 231 225 224
3 231 242 225
3 245 231 226
3 214 233 228
3 232 233 214
3 232 234 233
3 232 227 234
3 227 235 234
3 228 233 236
3 234 235 246
3 246 235 237
3 238 236 233
3 239 236 238
3 237 229 240
3 241 239 238
3 230 239 241
3 241 243 230
3 240 242 244
3 243 226 230
3 226 243 245
3 243 244 245
3 244 231 245
3 242 231 244
3 246 233 234
3 233 246 247
3 246 237 247
3 248 238 233
3 233 247 248
3 247 249 248
3 247 237 249
3 237 240 249
3 241 238 248
3 248 249 241
3 249 244 241
3 249 240 244
3 244 243 241
