ply
format ascii 1.0
element vertex 250
property float x
property float y
property float z
element face 500
property list uchar int vertex_indices
end_header
-0.742936 -0.167185 -0.264619
-0.743456 -0.155368 -0.195568
-0.733599 -0.081382 -0.355952
-0.749086 -0.077296 -0.169601
-0.789869 -0.009438 -0.271572
-0.764648 0.055837 -0.192209
-0.731068 0.080112 -0.359374
-0.725847 0.167604 -0.264632
-0.718057 0.177885 -0.206762
-0.681715 -0.223659 -0.279044
-0.652293 -0.229438 -0.213093
-0.673895 -0.189808 -0.329515
-0.660432 -0.107235 -0.381925
-0.672773 0.035325 -0.396917
-0.648034 0.047379 -0.054775
-0.674618 0.122625 -0.384688
-0.663423 0.179820 -0.339905
-0.496185 0.157495 0.003658
-0.618513 0.235169 -0.200150
-0.571847 -0.259745 -0.200061
-0.489820 -0.166412 0.016208
-0.575757 -0.153321 -0.353786
-0.559313 -0.008709 -0.389013
-0.581672 0.154153 -0.361786
-0.583470 -0.233555 -0.269095
-0.514756 -0.260394 -0.129167
-0.495368 -0.088859 0.064814
-0.507788 0.037869 0.055832
-0.563796 0.229942 -0.279131
-0.492038 0.263942 -0.116135
-0.465881 -0.270418 -0.176319
-0.422716 -0.255981 -0.088122
-0.492705 0.272271 -0.165592
-0.420644 0.254309 -0.080048
-0.275928 -0.247548 -0.242938
-0.346325 -0.237554 -0.078183
-0.148027 -0.080631 -0.364971
-0.445281 -0.063445 0.099146
-0.356954 -0.157385 0.116205
-0.199373 -0.024157 -0.369319
-0.379525 -0.000678 0.149686
-0.332707 -0.087856 0.188460
-0.332092 0.003191 0.208269
-0.439667 0.078637 0.091159
-0.325894 0.105564 0.188210
-0.191475 0.183743 -0.327945
-0.308561 -0.251692 -0.178040
-0.289160 -0.208274 -0.109712
-0.355683 -0.212502 0.025862
-0.279647 -0.199458 0.070363
-0.302582 -0.189045 -0.023061
-0.263586 -0.183080 0.175089
-0.122727 0.118715 -0.362222
-0.322568 0.216820 -0.044035
-0.354672 0.166556 0.099448
-0.361204 0.210044 0.023101
-0.279585 0.184327 0.175393
-0.321612 0.248316 -0.156380
-0.226998 0.171941 -0.113477
-0.257783 0.219651 0.122617
-0.234072 -0.093798 -0.014550
-0.242749 -0.093163 -0.057430
-0.274322 -0.053122 0.251223
-0.204723 -0.061342 0.304637
-0.234535 0.078031 -0.040235
-0.266596 0.099868 0.244434
-0.212842 0.045372 0.300807
-0.185296 0.138214 0.282251
-0.289018 0.201981 0.041559
-0.079359 0.227264 -0.279551
-0.194255 -0.216124 0.129198
-0.204036 -0.176937 -0.143424
-0.121518 -0.150308 0.093117
-0.105639 -0.218797 0.172475
-0.181784 -0.156603 0.277850
-0.195505 -0.080475 -0.095029
-0.039444 -0.009733 0.427655
-0.200734 0.032035 -0.084866
-0.195494 0.025585 -0.008099
-0.033177 0.114716 0.402243
-0.131538 0.127611 0.082003
-0.201162 0.208728 0.195043
-0.115946 0.219315 -0.198451
-0.202453 0.220727 0.118893
-0.120077 -0.219555 -0.214342
-0.088466 -0.199339 -0.326527
-0.120945 -0.218133 0.238169
-0.055328 -0.098678 -0.161225
0.088870 -0.216245 0.336446
-0.011604 -0.187533 0.374646
-0.053060 -0.128552 0.393313
-0.030225 -0.115379 -0.399815
-0.128277 -0.035225 0.042848
-0.027793 0.019543 -0.417181
-0.036243 0.130237 -0.394235
-0.061671 0.144330 -0.169231
0.143634 0.127174 0.253963
-0.009900 0.198133 -0.361664
-0.029129 0.196927 0.340468
-0.095336 0.218239 0.257940
-0.113111 0.223063 0.200043
-0.042796 -0.235505 -0.280625
0.010477 -0.211863 -0.360681
0.060776 -0.159535 -0.820867
0.022375 -0.194250 -0.211855
0.023246 -0.021353 -0.812065
0.042067 -0.016933 -0.730066
0.041976 -0.063446 0.171934
0.116558 0.003722 0.214641
0.048178 0.146914 -0.803920
0.062793 0.155888 -0.744536
0.058436 0.226551 -0.231751
-0.044109 0.224157 -0.224124
0.097380 0.218366 0.335197
0.098217 0.262349 -0.323341
0.110125 -0.257350 -0.319403
0.108913 -0.247170 -0.259181
0.106971 -0.210341 -0.802260
0.119329 -0.190926 -0.890030
0.064450 -0.156842 -0.749176
0.048610 -0.151658 -0.431703
0.170051 -0.212761 -0.166179
0.025140 -0.111621 0.448374
0.141234 -0.136959 -0.993661
0.083984 -0.139555 -0.670214
0.109219 -0.145370 -0.522238
0.068960 -0.108049 -0.150436
0.142106 -0.007719 -1.036508
0.065789 -0.025972 -0.928136
0.079752 -0.051240 -0.627634
0.031252 -0.019282 -0.452482
0.079094 0.052427 -0.508952
0.060135 0.074193 -0.147771
0.157609 -0.027769 -0.011269
0.027656 0.024997 0.473351
0.123169 0.138073 -0.973274
0.051240 0.128562 -0.877933
0.103284 0.146287 -0.656127
0.119502 0.167585 -0.515417
0.042042 0.116953 -0.439497
0.038425 0.134350 0.438338
0.183723 0.084118 0.563323
0.112369 0.200013 -0.863841
0.116035 0.209972 -0.753422
0.160797 0.246046 -0.396104
0.162753 0.200194 -0.139292
0.042302 0.195699 0.385208
0.139399 -0.215227 -0.693383
0.188115 -0.210286 -0.823561
0.192422 -0.236197 -0.491217
0.179197 -0.242176 -0.384295
0.139207 -0.212645 0.430353
0.169188 -0.170613 -0.964997
0.150025 -0.119554 0.243128
0.182585 -0.095423 -1.026972
0.181058 -0.130931 -0.050167
0.203562 -0.129007 0.162581
0.213250 -0.062506 0.589932
0.166345 -0.040832 0.211902
0.177254 0.095482 0.212685
0.173983 0.102949 -1.033047
0.184585 0.138250 -0.029099
0.195624 0.194085 0.282870
0.191169 0.157216 -0.962183
0.123436 0.203178 0.426541
0.196299 0.221957 -0.806694
0.204812 -0.255877 -0.249411
0.204216 -0.237648 -0.686103
0.307490 -0.234226 -0.239042
0.187383 -0.237587 0.362539
0.277835 -0.271729 0.432999
0.260227 -0.204531 -0.743640
0.282751 -0.230858 -0.000284
0.258276 -0.235424 0.260939
0.283389 -0.190893 0.570621
0.244496 -0.084620 -0.958577
0.287642 -0.117878 -0.836843
0.188243 0.012435 -1.063758
0.220817 0.033938 -1.037926
0.298671 -0.006664 -0.874529
0.260190 0.053224 -0.967439
0.267503 0.138067 -0.861869
0.265824 0.224892 0.208263
0.293859 0.184350 0.574768
0.183387 0.226479 -0.651892
0.269245 0.197806 -0.730172
0.230821 0.256358 -0.176127
0.284026 0.235077 -0.042888
0.269815 0.271842 0.349988
0.274362 0.274235 0.432667
0.209103 0.271365 -0.289684
0.284716 0.251775 -0.229471
0.278428 -0.231239 -0.409592
0.277373 -0.250660 -0.145676
0.347654 -0.255818 0.100152
0.310810 -0.153742 -0.717532
0.359911 -0.147994 -0.330075
0.341739 -0.110778 0.660258
0.328478 -0.071883 -0.741362
0.333244 0.100726 0.659422
0.322545 0.086846 -0.727090
0.365537 0.097800 -0.348963
0.316628 0.162335 -0.644037
0.272568 0.233123 -0.370509
0.360717 0.156483 -0.264269
0.340178 0.270456 0.266562
0.365355 0.267309 0.509387
0.349202 -0.286467 0.406963
0.373517 -0.267489 0.507928
0.346919 -0.232518 -0.047130
0.421991 -0.240928 0.245622
0.419933 -0.267760 0.477180
0.407399 -0.209495 0.069532
0.418813 -0.178520 0.642716
0.402361 -0.124141 -0.193195
0.441194 -0.119310 -0.014311
0.379864 -0.017133 -0.366594
0.406626 0.003309 -0.257769
0.428506 0.061145 0.696737
0.405077 0.116962 -0.169376
0.416409 0.173375 0.003971
0.332099 0.234706 -0.083356
0.428728 0.186037 0.636718
0.350093 0.203961 -0.200452
0.377823 0.223867 0.067504
0.414458 0.252367 0.286329
0.343603 0.289127 0.415991
0.432507 0.256396 0.509313
0.493918 -0.142231 0.176072
0.527150 -0.190229 0.489417
0.495607 -0.159115 0.654381
0.445275 -0.088377 0.697294
0.436445 -0.022873 -0.170877
0.484302 0.037036 0.037705
0.484435 0.118498 0.096159
0.492386 0.147053 0.188088
0.520617 0.193415 0.505608
0.496533 0.163361 0.659137
0.495294 -0.211535 0.581810
0.501112 -0.072814 0.109266
0.569020 -0.124640 0.520196
0.530077 -0.081096 0.209977
0.505755 -0.043041 0.685457
0.568992 0.023058 0.463836
0.517866 0.038011 0.133691
0.514947 0.084555 0.678109
0.509060 0.204914 0.591091
0.548301 -0.158523 0.587101
0.569660 -0.031563 0.590460
0.544915 0.148269 0.595843
3 1 0 3
3 0 2 4
3 0 4 3
3 3 4 5
3 2 6 4
3 7 4 6
3 4 7 5
3 5 7 8
3 11 0 9
3 0 10 9
3 2 11 12
3 0 11 2
3 10 0 1
3 12 13 2
3 2 13 6
3 14 3 5
3 13 15 6
3 15 16 6
3 17 14 5
3 8 17 5
3 6 16 7
3 8 7 18
3 8 18 17
3 9 24 11
3 19 24 10
3 10 24 9
3 21 11 24
3 10 1 20
3 11 21 12
3 3 20 1
3 13 12 22
3 21 22 12
3 22 23 13
3 13 23 15
3 23 16 15
3 16 23 28
3 28 7 16
3 28 18 7
3 19 30 24
3 25 30 19
3 25 19 10
3 20 25 10
3 3 26 20
3 27 26 3
3 14 27 3
3 17 27 14
3 18 29 17
3 18 28 32
3 18 32 29
3 30 25 31
3 30 34 24
3 36 21 24
3 20 31 25
3 37 20 26
3 37 26 27
3 37 27 43
3 43 27 17
3 45 28 23
3 33 17 29
3 32 33 29
3 46 31 35
3 46 30 31
3 46 34 30
3 31 48 35
3 48 31 20
3 48 20 38
3 38 20 37
3 40 38 37
3 38 40 41
3 41 40 42
3 43 40 37
3 42 40 44
3 22 52 23
3 54 40 43
3 40 54 44
3 54 43 17
3 17 33 55
3 54 17 55
3 32 28 57
3 57 53 33
3 53 55 33
3 33 32 57
3 46 35 47
3 50 47 35
3 48 50 35
3 48 49 50
3 60 50 49
3 49 48 38
3 49 38 51
3 61 47 50
3 51 38 41
3 51 41 62
3 60 61 50
3 62 41 42
3 39 52 22
3 62 42 65
3 65 42 44
3 58 64 53
3 64 68 53
3 44 54 56
3 44 56 65
3 68 55 53
3 54 55 68
3 54 68 59
3 56 54 59
3 57 28 69
3 53 57 58
3 47 71 46
3 51 70 49
3 34 36 24
3 49 72 60
3 70 72 49
3 47 61 71
3 74 51 62
3 71 61 75
3 63 74 62
3 39 22 21
3 36 39 21
3 77 75 61
3 64 77 61
3 60 78 64
3 61 60 64
3 63 62 66
3 65 66 62
3 23 52 45
3 67 66 65
3 77 64 58
3 78 80 64
3 80 68 64
3 67 65 81
3 81 65 56
3 68 80 83
3 69 82 57
3 82 58 57
3 83 59 68
3 59 81 56
3 59 83 81
3 34 46 84
3 71 84 46
3 51 86 70
3 85 36 34
3 84 71 87
3 72 70 73
3 74 86 51
3 87 71 75
3 92 60 72
3 74 63 90
3 92 78 60
3 36 52 39
3 66 76 63
3 92 80 78
3 67 79 66
3 52 69 45
3 69 28 45
3 99 67 81
3 67 99 98
3 100 81 83
3 99 81 100
3 85 101 102
3 34 101 85
3 101 34 84
3 73 70 86
3 91 85 102
3 73 88 72
3 86 74 89
3 90 89 74
3 91 36 85
3 92 72 107
3 91 93 36
3 76 90 63
3 87 75 77
3 36 93 52
3 87 77 95
3 107 108 92
3 92 108 80
3 93 94 52
3 108 96 80
3 66 79 76
3 95 77 58
3 97 52 94
3 95 58 82
3 96 113 80
3 67 98 79
3 52 97 69
3 112 95 82
3 80 100 83
3 80 113 100
3 82 69 112
3 102 101 115
3 101 116 115
3 101 104 116
3 84 104 101
3 86 88 73
3 86 89 88
3 84 87 104
3 103 105 119
3 102 120 91
3 122 89 90
3 119 105 106
3 104 87 126
3 128 105 103
3 120 130 91
3 130 93 91
3 122 90 76
3 132 126 87
3 122 76 134
3 95 132 87
3 136 105 128
3 109 105 136
3 105 109 106
3 106 109 110
3 130 139 93
3 139 94 93
3 134 76 79
3 132 95 111
3 134 79 140
3 139 97 94
3 111 95 112
3 140 79 146
3 146 79 98
3 98 113 146
3 114 69 97
3 114 111 69
3 111 112 69
3 113 99 100
3 113 98 99
3 115 150 102
3 104 121 116
3 117 118 103
3 117 103 119
3 117 119 147
3 125 120 150
3 150 120 102
3 122 151 89
3 151 88 89
3 147 119 124
3 119 106 124
3 104 126 121
3 72 153 107
3 72 88 153
3 127 128 123
3 123 128 118
3 103 118 128
3 129 124 106
3 124 129 125
3 125 129 131
3 125 131 130
3 120 125 130
3 132 133 126
3 153 108 107
3 135 128 127
3 128 135 136
3 137 129 106
3 110 137 106
3 129 137 131
3 131 137 138
3 131 138 139
3 130 131 139
3 111 145 132
3 140 141 134
3 142 136 135
3 136 142 109
3 109 143 110
3 137 110 143
3 144 139 138
3 139 144 97
3 109 142 143
3 146 164 140
3 146 113 164
3 97 144 114
3 150 115 166
3 115 116 166
3 148 117 147
3 148 147 167
3 147 149 167
3 121 166 116
3 169 151 170
3 88 151 169
3 118 148 152
3 117 148 118
3 149 147 125
3 125 150 149
3 169 153 88
3 152 154 123
3 152 123 118
3 125 147 124
3 151 122 157
3 121 126 155
3 154 127 123
3 133 155 126
3 155 133 156
3 156 133 158
3 156 158 153
3 154 177 127
3 153 158 108
3 134 157 122
3 158 159 108
3 141 157 134
3 177 160 127
3 158 133 159
3 108 159 96
3 127 160 135
3 161 133 132
3 133 161 159
3 132 145 161
3 159 162 96
3 96 162 113
3 140 164 141
3 135 160 163
3 135 163 142
3 163 165 142
3 162 188 113
3 165 184 143
3 165 143 142
3 143 184 137
3 137 184 138
3 184 144 138
3 186 145 111
3 113 189 164
3 188 189 113
3 190 114 144
3 114 190 111
3 186 111 190
3 168 150 166
3 173 169 170
3 167 171 148
3 171 167 192
3 167 149 192
3 149 150 192
3 192 150 168
3 168 166 193
3 121 193 166
3 121 172 193
3 173 153 169
3 170 151 174
3 172 156 173
3 156 153 173
3 154 152 175
3 152 148 175
3 148 171 176
3 155 172 121
3 172 155 156
3 157 174 151
3 174 157 197
3 148 176 175
3 177 154 178
3 154 175 178
3 176 179 175
3 175 180 178
3 175 179 180
3 160 177 178
3 179 181 180
3 157 141 199
3 160 178 163
3 178 180 163
3 180 181 163
3 182 159 161
3 183 199 141
3 181 165 163
3 181 185 165
3 159 182 162
3 183 141 164
3 161 145 187
3 161 187 182
3 185 184 165
3 185 203 184
3 184 203 144
3 190 144 203
3 190 203 191
3 186 187 145
3 182 188 162
3 189 183 164
3 191 186 190
3 194 173 207
3 173 170 207
3 174 208 170
3 208 207 170
3 168 193 209
3 193 172 209
3 209 172 194
3 172 173 194
3 171 192 195
3 176 171 195
3 195 192 196
3 168 196 192
3 168 214 196
3 195 198 176
3 195 196 198
3 198 179 176
3 198 196 216
3 197 157 218
3 198 200 179
3 218 157 199
3 179 200 181
3 200 201 202
3 185 181 200
3 200 202 185
3 202 201 203
3 201 204 203
3 202 203 185
3 191 203 204
3 223 191 204
3 223 221 191
3 191 221 186
3 186 221 187
3 221 224 187
3 224 205 182
3 224 182 187
3 182 205 188
3 205 226 188
3 188 226 189
3 183 189 206
3 189 226 206
3 207 210 194
3 208 211 207
3 194 212 209
3 194 210 212
3 210 207 211
3 208 174 213
3 168 209 214
3 174 197 213
3 209 215 214
3 209 212 215
3 213 197 231
3 196 217 216
3 196 214 217
3 197 218 231
3 198 216 200
3 216 201 200
3 216 217 201
3 201 217 204
3 217 219 204
3 219 220 221
3 199 222 218
3 223 204 219
3 219 221 223
3 220 224 221
3 183 222 199
3 206 227 222
3 206 222 183
3 225 205 224
3 226 205 225
3 227 226 225
3 206 226 227
3 210 228 212
3 229 210 211
3 229 211 238
3 211 208 238
3 213 238 208
3 210 229 228
3 213 230 238
3 213 231 230
3 215 212 239
3 212 228 239
3 230 231 242
3 214 215 232
3 217 214 232
3 215 233 232
3 215 239 233
3 239 244 233
3 242 231 218
3 219 217 232
3 242 218 245
3 232 233 219
3 244 234 233
3 220 219 233
3 233 234 220
3 245 218 237
3 224 220 234
3 237 218 222
3 224 234 235
3 237 222 246
3 235 225 224
3 236 225 235
3 227 225 236
3 246 227 236
3 246 222 227
3 247 229 238
3 238 230 247
3 240 229 247
3 228 241 239
3 228 229 241
3 229 240 241
3 242 247 230
3 240 248 243
3 240 243 241
3 239 241 244
3 241 243 244
3 243 249 236
3 234 244 235
3 244 243 235
3 243 236 235
3 237 249 245
3 246 236 249
3 249 237 246
3 248 240 247
3 247 242 248
3 242 245 248
3 249 243 248
3 248 245 249
