ply
format ascii 1.0
element vertex 252
property float x
property float y
property float z
element face 500
property list uchar int vertex_indices
end_header
-0.656676 -0.206493 -1.044356
-0.642673 -0.176701 -0.906481
-0.647483 -0.139103 -1.107588
-0.706983 -0.090155 -1.035343
-0.694932 -0.079062 -0.877477
-0.654454 -0.095433 -0.828679
-0.695850 0.003732 -1.128694
-0.683983 0.002154 -0.814906
-0.711521 0.002882 -0.911526
-0.703355 0.083731 -1.052310
-0.632256 0.154974 -1.104515
-0.655352 0.176250 -0.914987
-0.644307 0.118856 -0.831138
-0.649227 0.205458 -1.041961
-0.571101 -0.261126 -0.964688
-0.648791 -0.012399 -1.153674
-0.670568 0.000948 -0.801123
-0.654817 0.065028 -1.150694
-0.608398 0.211050 -0.878332
-0.561883 0.259512 -0.957376
-0.578528 -0.250204 -1.044598
-0.576091 -0.159132 -0.806414
-0.418727 -0.062157 -1.150618
-0.598243 -0.071194 -0.780449
-0.497998 -0.138002 0.360330
-0.512518 -0.154905 0.433081
-0.521362 -0.036199 0.487503
-0.494741 -0.138912 0.500538
-0.468414 -0.000154 -0.641011
-0.536933 0.029952 0.357853
-0.583154 0.102806 -0.785194
-0.537819 0.080608 0.427134
-0.513210 0.086343 0.497139
-0.443930 0.123606 -0.648541
-0.449783 0.090797 -1.144545
-0.503358 0.133499 0.344361
-0.477359 0.225447 -0.794979
-0.598467 0.248459 -1.047075
-0.488971 -0.262252 -0.988529
-0.499423 -0.252134 -1.043467
-0.421444 -0.184918 -1.059342
-0.514251 -0.236182 -0.834227
-0.414750 -0.208536 0.351642
-0.441661 -0.221262 0.425263
-0.457221 -0.166726 -1.109104
-0.427434 -0.201524 -0.695755
-0.455389 -0.109178 -0.651452
-0.374804 -0.141591 -0.576084
-0.437640 -0.087391 0.582713
-0.429879 -0.046899 -0.594913
-0.495707 0.027201 0.288896
-0.416125 -0.103670 0.288329
-0.419470 0.044381 -0.581427
-0.427800 0.074709 0.592673
-0.420586 0.033332 0.262993
-0.385181 0.150345 -0.585739
-0.491453 0.175103 0.417354
-0.433784 0.190781 0.508160
-0.534236 0.256903 -1.034112
-0.430101 0.175757 -1.072756
-0.432977 0.209222 0.369826
-0.417769 0.237572 0.436038
-0.444075 0.255629 -0.966678
-0.409335 -0.260198 -0.811372
-0.359640 -0.170246 -0.978043
-0.419364 -0.194834 0.525668
-0.340489 -0.177338 0.581449
-0.386963 -0.072227 -1.127874
-0.354851 -0.089294 -1.049550
-0.346489 0.049444 -1.052746
-0.387686 0.068038 -1.131343
-0.431957 0.128035 0.296942
-0.373374 0.188172 -0.986398
-0.405228 0.195527 -0.659906
-0.347365 0.180044 0.576254
-0.400864 0.258208 -0.810474
-0.289268 -0.256975 -0.758222
-0.276055 -0.268991 0.443201
-0.362421 -0.243738 -0.871637
-0.342485 -0.225066 -0.623566
-0.203367 -0.266769 -0.560613
-0.309501 -0.256854 0.487780
-0.343506 -0.172569 0.302789
-0.335652 -0.124746 0.613420
-0.294232 -0.083128 -0.967476
-0.109199 -0.107156 -0.241149
-0.145322 -0.007163 -0.262070
0.182897 -0.007883 0.249561
-0.362505 -0.000643 0.624994
-0.295727 0.099446 -0.961774
0.207765 0.081280 0.256201
-0.351173 0.077918 0.625309
-0.124121 0.107077 -0.256060
-0.342374 0.135798 0.611375
-0.170834 0.156485 -0.792521
-0.321996 0.219681 -0.593173
-0.354394 0.246376 -0.877192
-0.327358 0.247907 0.489901
-0.283831 0.263741 -0.759889
-0.285204 0.261013 0.439777
-0.069720 -0.207247 -0.275647
0.194220 -0.112774 0.278402
-0.097803 -0.018013 -0.769999
0.810613 -0.083805 0.617198
-0.084260 0.065321 -0.743072
-0.045757 0.207659 -0.257420
-0.208657 0.267720 -0.592453
-0.102758 -0.173662 -0.706288
0.256345 -0.256255 0.407349
0.177456 -0.222046 0.360431
0.590558 -0.268062 0.491443
0.024198 0.281518 -0.345430
0.169403 0.220269 0.357964
0.641477 0.264326 0.489170
0.319129 0.282053 0.451511
0.036526 -0.267019 -0.444264
0.028296 -0.286244 -0.359125
0.021779 -0.279971 -0.306572
-0.084999 -0.077251 -0.174148
-0.018070 -0.161989 -0.131989
-0.057317 -0.118489 -0.705881
-0.047461 -0.076409 -0.100756
-0.064263 0.039052 -0.120299
-0.085866 0.084506 -0.181445
-0.003959 0.151212 -0.116511
-0.057809 0.215465 -0.636792
0.044932 0.268030 -0.442344
0.224051 0.254513 0.400302
0.076813 -0.234553 -0.481662
0.094793 0.039522 0.032458
0.039561 0.168526 -0.585853
0.137189 0.269037 -0.120412
0.060041 0.286109 -0.279689
0.090229 -0.289660 -0.303758
0.102618 -0.284389 -0.191294
0.128968 -0.245626 -0.417904
0.145944 -0.266777 -0.108019
0.112909 -0.179431 -0.519979
0.123427 -0.132249 -0.543604
0.120669 -0.117938 0.023908
0.121879 0.011664 -0.565442
0.150591 0.162298 0.019712
0.125878 0.173189 -0.514206
0.078711 0.218322 -0.511678
0.098795 0.281348 -0.196931
0.739728 0.213786 0.563662
0.136455 0.242085 -0.414100
0.095113 0.290669 -0.304692
0.189246 -0.280104 -0.203129
0.198948 -0.219987 -0.392621
0.246007 -0.200271 0.045710
0.187973 0.284324 -0.191575
0.274188 -0.271167 -0.051362
0.342870 -0.288163 0.460270
0.324156 -0.252208 -0.111091
0.180536 -0.145529 -0.490574
0.246493 -0.135068 -0.419274
0.228505 -0.066606 -0.488947
0.196119 -0.067617 0.087649
0.270016 -0.120595 0.129381
0.270887 0.006742 -0.431555
0.251821 -0.000485 0.135174
0.262582 -0.053521 0.206150
0.191417 0.037549 -0.527359
0.818261 0.001148 0.615921
0.226276 0.057521 -0.499841
0.192405 0.096573 0.077688
0.285347 0.116462 0.196754
0.251010 0.108509 -0.433489
0.273812 0.150698 0.103563
0.193977 0.152658 -0.475579
0.270856 0.207431 -0.266797
0.265176 0.208814 0.052153
0.276926 0.267948 -0.036373
0.313959 0.250577 -0.129598
0.269544 -0.209380 -0.265468
0.274687 -0.241444 -0.195452
0.343018 -0.265294 0.043458
0.280138 -0.205909 0.319031
0.327993 -0.218945 0.124388
0.351331 -0.245480 0.275168
0.773330 -0.185405 0.565991
0.303698 -0.162994 0.193290
0.348320 -0.185689 -0.181234
0.399600 -0.030452 -0.215846
0.326659 -0.002687 -0.330745
0.323728 0.072251 -0.307182
0.355955 0.157303 -0.195344
0.271524 0.179725 0.287192
0.306986 0.217428 -0.198819
0.339402 0.247331 0.080022
0.343650 0.239057 0.257458
0.280057 0.247833 0.356365
0.336826 0.281353 0.421362
0.381365 -0.276949 0.007698
0.438152 -0.307496 0.342371
0.365545 -0.284529 0.415710
0.425252 -0.250232 -0.034562
0.431803 -0.283951 0.146295
0.439054 0.189775 -0.100539
0.379895 0.275257 0.009661
0.430612 0.289758 0.157606
0.406616 0.295848 0.334532
0.462886 -0.308425 0.430334
0.451767 -0.171802 -0.116534
0.432851 0.093457 -0.169483
0.499945 0.134800 -0.100258
0.518100 0.176264 -0.043925
0.516528 0.305516 0.285569
0.465025 0.306618 0.424930
0.501244 -0.290789 0.198224
0.509170 -0.316312 0.377589
0.495682 -0.261140 0.084803
0.656597 -0.263668 0.397185
0.500093 -0.143969 -0.106755
0.519515 -0.162300 -0.048234
0.596426 -0.172737 0.062471
0.520529 -0.027310 -0.124384
0.500197 -0.052565 -0.145656
0.562551 0.044837 -0.045383
0.475803 0.058718 -0.152936
0.586715 0.202730 0.081293
0.494418 0.263948 0.086172
0.492740 0.320438 0.366313
0.588392 -0.295748 0.443818
0.644478 -0.172465 0.149887
0.663677 -0.053425 0.098333
0.655745 0.112252 0.103949
0.656509 0.193530 0.200660
0.666540 0.266076 0.400652
0.588639 0.305803 0.421824
0.701311 -0.190594 0.264603
0.740890 -0.199875 0.363951
0.711777 -0.100197 0.199895
0.714167 0.060699 0.179927
0.771621 0.107447 0.328913
0.785506 0.169777 0.578586
0.698914 0.202538 0.285912
0.728219 0.212919 0.376548
0.763682 -0.225051 0.491917
0.797799 -0.170186 0.436240
0.772811 -0.116282 0.338928
0.833301 -0.001855 0.407205
0.771224 0.001431 0.285167
0.834338 0.088358 0.433414
0.751689 0.208268 0.439103
0.809956 0.179055 0.536323
0.820083 -0.183890 0.531369
0.865164 -0.070297 0.584629
0.866625 -0.080665 0.506884
0.875710 0.034378 0.506339
0.865755 0.074216 0.574983
3 2 3 0
3 0 3 1
3 1 3 4
3 1 4 5
3 6 2 15
3 2 6 3
3 5 4 7
3 5 7 16
3 4 3 8
3 4 8 7
3 3 6 9
3 3 9 8
3 17 6 15
3 10 6 17
3 6 10 9
3 8 9 11
3 8 11 7
3 7 11 12
3 7 12 16
3 13 9 10
3 9 13 11
3 20 0 14
3 0 1 14
3 0 20 2
3 21 1 5
3 22 15 2
3 23 21 5
3 23 5 16
3 23 16 30
3 30 16 12
3 34 10 17
3 12 18 30
3 13 10 37
3 18 12 11
3 37 19 13
3 19 11 13
3 18 11 19
3 20 38 39
3 14 38 20
3 1 41 14
3 39 44 20
3 44 2 20
3 21 41 1
3 21 23 46
3 25 24 26
3 25 26 27
3 29 24 50
3 24 29 26
3 30 28 23
3 26 29 31
3 26 31 32
3 34 17 15
3 33 28 30
3 35 29 50
3 29 35 31
3 32 31 56
3 36 30 18
3 30 36 33
3 35 56 31
3 58 37 10
3 19 36 18
3 58 19 37
3 62 19 58
3 14 63 38
3 39 38 40
3 41 63 14
3 63 41 45
3 40 44 39
3 41 21 45
3 24 42 51
3 42 24 43
3 43 24 25
3 65 43 27
3 43 25 27
3 2 44 22
3 46 45 21
3 27 48 65
3 47 46 49
3 51 50 24
3 26 48 27
3 28 46 23
3 46 28 49
3 49 28 52
3 50 51 54
3 53 48 26
3 32 53 26
3 22 34 15
3 28 33 52
3 52 33 55
3 54 71 50
3 50 71 35
3 32 56 57
3 32 57 53
3 59 10 34
3 58 10 59
3 60 35 71
3 35 60 56
3 56 60 61
3 57 56 61
3 59 62 58
3 75 36 19
3 75 19 62
3 77 43 81
3 38 64 40
3 38 78 64
3 63 76 78
3 38 63 78
3 63 45 79
3 43 77 42
3 43 65 81
3 81 65 66
3 79 45 47
3 82 51 42
3 44 67 22
3 44 40 67
3 45 46 47
3 40 68 67
3 40 64 68
3 66 65 48
3 48 83 66
3 68 69 67
3 83 48 88
3 70 22 67
3 67 69 70
3 87 54 51
3 88 48 53
3 34 22 70
3 88 53 91
3 54 90 71
3 69 59 70
3 69 72 59
3 93 91 53
3 70 59 34
3 33 73 55
3 74 53 57
3 53 74 93
3 33 36 73
3 95 55 73
3 72 62 59
3 72 96 62
3 75 62 96
3 98 75 96
3 95 73 75
3 73 36 75
3 99 61 60
3 61 99 97
3 61 97 57
3 57 97 74
3 80 76 63
3 80 63 79
3 68 64 84
3 86 85 47
3 49 86 47
3 69 68 84
3 84 102 69
3 103 83 88
3 52 86 49
3 69 102 89
3 92 86 52
3 55 92 52
3 72 69 89
3 89 94 72
3 96 72 94
3 75 106 95
3 75 98 106
3 78 76 107
3 100 80 79
3 109 42 77
3 108 109 77
3 110 81 66
3 78 107 64
3 47 100 79
3 89 102 104
3 89 104 94
3 92 55 105
3 95 105 55
3 95 111 105
3 60 112 99
3 113 74 97
3 111 95 106
3 99 114 97
3 113 97 114
3 76 80 115
3 116 115 80
3 76 115 107
3 109 82 42
3 85 100 47
3 107 120 84
3 64 107 84
3 84 120 102
3 101 87 51
3 94 125 96
3 96 125 98
3 125 126 98
3 99 112 127
3 126 106 98
3 106 126 111
3 80 117 116
3 107 115 128
3 100 117 80
3 100 85 118
3 100 118 119
3 119 118 121
3 101 51 82
3 86 118 85
3 121 118 122
3 123 118 86
3 118 123 122
3 92 123 86
3 104 130 94
3 122 123 124
3 94 130 125
3 92 105 123
3 123 105 124
3 117 100 134
3 100 119 134
3 107 128 137
3 137 138 120
3 107 137 120
3 120 138 102
3 122 129 121
3 87 90 54
3 124 129 122
3 130 143 125
3 112 60 71
3 143 126 125
3 105 111 132
3 105 132 144
3 105 144 124
3 144 131 124
3 145 74 113
3 127 114 99
3 135 115 133
3 115 116 133
3 117 133 116
3 117 134 133
3 128 115 135
3 119 136 134
3 128 135 137
3 119 139 136
3 121 139 119
3 102 138 140
3 129 139 121
3 104 102 140
3 130 104 140
3 140 142 130
3 124 141 129
3 130 142 143
3 142 146 143
3 131 141 124
3 143 146 126
3 146 147 126
3 147 111 126
3 147 132 111
3 144 132 147
3 148 133 134
3 133 148 135
3 148 134 136
3 148 136 152
3 108 77 153
3 77 81 153
3 81 110 153
3 135 148 149
3 136 150 152
3 149 155 135
3 155 137 135
3 101 82 109
3 137 155 138
3 150 136 139
3 139 158 150
3 155 140 138
3 155 163 140
3 158 139 129
3 164 103 88
3 158 129 166
3 163 142 140
3 163 170 142
3 166 129 141
3 112 71 90
3 172 166 141
3 146 142 170
3 141 131 173
3 172 141 173
3 151 147 146
3 144 151 131
3 131 151 173
3 144 147 151
3 148 152 154
3 149 148 175
3 148 154 176
3 175 148 176
3 178 109 108
3 149 156 155
3 149 175 156
3 178 101 109
3 181 110 66
3 66 83 181
3 155 156 157
3 159 150 158
3 162 101 178
3 156 160 157
3 161 159 158
3 159 161 162
3 163 155 157
3 101 162 87
3 165 163 157
3 157 160 165
3 166 161 158
3 162 161 167
3 162 167 90
3 87 162 90
3 160 168 165
3 169 161 166
3 167 161 169
3 170 163 165
3 165 168 170
3 168 171 170
3 169 166 172
3 167 188 90
3 90 188 112
3 146 170 171
3 188 192 112
3 171 151 146
3 151 171 174
3 127 112 192
3 174 173 151
3 193 127 192
3 193 114 127
3 154 194 197
3 154 152 194
3 177 194 152
3 180 178 196
3 108 196 178
3 196 108 153
3 177 152 150
3 177 150 179
3 154 183 176
3 159 179 150
3 179 182 180
3 180 182 178
3 176 183 175
3 179 159 182
3 175 184 156
3 183 184 175
3 178 182 162
3 182 159 162
3 185 160 156
3 156 184 185
3 186 160 185
3 164 88 91
3 168 160 186
3 186 171 168
3 186 187 171
3 187 189 171
3 187 174 189
3 172 190 169
3 169 190 167
3 167 190 191
3 167 191 188
3 188 191 192
3 145 93 74
3 174 171 189
3 172 173 190
3 200 173 174
3 173 200 190
3 191 202 192
3 192 202 193
3 195 196 203
3 198 194 177
3 198 180 195
3 180 196 195
3 203 196 153
3 154 197 204
3 198 177 179
3 180 198 179
3 204 183 154
3 184 183 204
3 185 184 186
3 184 187 186
3 184 205 187
3 205 199 187
3 174 187 199
3 201 191 190
3 199 200 174
3 190 200 201
3 202 191 201
3 193 209 114
3 202 209 193
3 195 210 198
3 195 211 210
3 211 195 203
3 194 198 212
3 198 210 212
3 110 203 153
3 197 194 212
3 212 215 197
3 204 197 215
3 214 204 215
3 214 218 204
3 218 184 204
3 218 220 184
3 220 205 184
3 206 199 220
3 199 205 220
3 206 207 199
3 207 222 199
3 199 222 200
3 222 201 200
3 222 208 201
3 201 208 202
3 114 209 113
3 208 223 202
3 223 209 202
3 213 210 211
3 213 211 224
3 211 203 224
3 224 203 110
3 215 212 216
3 214 215 217
3 218 214 217
3 216 226 215
3 215 219 217
3 215 226 219
3 220 218 217
3 206 220 217
3 217 219 206
3 226 227 219
3 219 207 206
3 227 221 207
3 219 227 207
3 222 207 221
3 221 228 222
3 222 228 208
3 209 230 113
3 208 230 223
3 223 230 209
3 213 224 110
3 210 225 212
3 231 225 213
3 213 225 210
3 216 212 225
3 225 226 216
3 236 91 93
3 227 228 221
3 228 237 229
3 228 229 208
3 229 230 208
3 230 229 113
3 232 231 213
3 232 213 239
3 213 110 239
3 232 233 231
3 239 110 181
3 225 231 233
3 225 233 226
3 233 234 226
3 233 243 234
3 226 234 227
3 243 235 234
3 164 91 236
3 227 234 228
3 234 235 228
3 235 237 228
3 235 238 237
3 229 237 238
3 238 245 229
3 245 246 113
3 229 245 113
3 246 145 113
3 247 240 239
3 239 240 232
3 239 181 247
3 241 233 232
3 232 240 241
3 181 83 103
3 240 242 241
3 233 241 243
3 241 242 243
3 242 235 243
3 242 244 235
3 244 245 235
3 235 245 238
3 145 246 236
3 236 93 145
3 181 248 247
3 181 103 248
3 249 240 247
3 242 240 249
3 247 248 249
3 249 250 242
3 249 248 250
3 103 164 248
3 248 251 250
3 248 164 251
3 242 250 244
3 246 244 250
3 245 244 246
3 250 251 246
3 164 236 251
3 251 236 246
