ply
format ascii 1.0
element vertex 252
property float x
property float y
property float z
element face 500
property list uchar int vertex_indices
end_header
-0.184433 -0.217563 -0.744143
-0.190080 -0.204086 -0.348796
-0.185615 -0.214425 0.180450
-0.213761 -0.197620 0.492133
-0.202984 -0.176752 -0.821984
-0.230446 -0.150469 -0.342327
-0.155026 -0.206332 0.602350
-0.196704 -0.155101 0.106179
-0.241229 -0.127628 0.198292
-0.244450 -0.116008 0.588709
-0.250338 -0.068423 -0.816337
-0.263158 -0.050905 -0.360700
-0.229919 -0.048050 -0.282469
-0.269446 -0.097501 0.517746
-0.245786 -0.044335 0.125184
-0.267727 -0.027496 0.190858
-0.257947 0.033561 -0.808736
-0.269214 -0.003407 -0.340956
-0.250586 -0.023928 0.571445
-0.247491 0.049231 0.123938
-0.268807 0.041300 0.206688
-0.237917 0.090656 0.568157
-0.260536 0.062487 -0.348596
-0.201846 0.119712 -0.276895
-0.244492 0.147978 -0.731673
-0.243344 0.125509 0.189346
-0.216458 0.157424 -0.817329
-0.233864 0.160599 -0.363286
-0.207531 0.149583 0.106207
-0.244770 0.169431 0.504922
-0.184066 0.222274 -0.734650
-0.173140 0.184110 0.604097
-0.186026 0.226159 -0.401469
-0.186524 0.212268 0.195763
-0.197310 0.214976 0.500431
-0.131691 -0.262568 -0.745586
-0.108475 -0.287670 -0.657038
-0.094286 -0.294601 -0.431870
-0.050865 -0.291882 -0.332219
-0.116556 -0.262597 0.223411
-0.142169 -0.249600 0.488041
-0.134632 -0.219302 -0.811137
-0.044371 -0.234430 -0.196675
-0.130963 -0.224651 0.084901
-0.186513 -0.125361 -0.862988
-0.201614 -0.161581 -0.290232
-0.129135 -0.112736 -0.045738
-0.155675 -0.130319 0.019693
-0.113719 -0.137663 -0.173975
-0.209033 -0.004993 -0.884220
-0.130683 -0.028497 -0.134239
-0.195951 0.040516 0.047174
-0.138489 0.059043 -0.042202
-0.164181 0.087547 -0.878019
-0.108675 0.124828 -0.170713
-0.150069 0.190267 0.064978
-0.173459 0.203955 -0.317661
-0.104527 0.197429 -0.011951
-0.136960 0.225531 -0.801887
-0.115063 0.270668 -0.751486
-0.084769 0.298796 -0.660171
-0.084751 0.291093 -0.381040
-0.112199 0.262710 0.183783
-0.113178 0.266125 0.286591
-0.098823 0.259744 0.499337
-0.024562 -0.336749 -0.557161
-0.039448 -0.263340 0.020559
-0.105106 -0.181368 -0.852950
-0.104566 -0.187163 -0.022862
-0.018677 -0.238033 0.667946
-0.080327 -0.168325 -0.114281
0.025857 -0.079825 0.858084
0.058091 0.050657 0.873862
-0.113785 0.070920 -0.116457
-0.045497 0.209833 -0.100608
0.011487 0.125487 0.844574
-0.089685 0.191591 -0.196115
0.063527 0.197819 0.812378
-0.067564 0.253221 0.566046
-0.080741 0.306707 -0.451621
-0.041993 0.262061 0.082254
-0.010076 0.342901 -0.563778
0.056952 -0.354324 -0.513304
-0.039191 -0.319511 -0.664894
0.019532 -0.344548 -0.437842
0.053862 -0.321680 -0.317836
-0.056450 -0.296068 -0.719319
-0.005738 -0.271603 0.085256
-0.039431 -0.258335 0.242433
-0.054785 -0.245280 0.515981
-0.026399 -0.237546 -0.094540
0.049688 -0.290896 -0.018876
0.016334 -0.241495 0.590903
0.034586 -0.246019 0.671409
0.036116 -0.223615 0.177686
0.028999 -0.195506 0.272596
0.047676 -0.210825 0.514161
0.033301 -0.192102 0.809728
0.155686 -0.093443 -0.865473
0.113746 0.226455 -0.809377
0.032728 0.215975 0.195685
0.045126 0.216171 0.503513
0.044738 0.240204 0.721749
-0.014197 0.249965 0.641295
-0.032328 0.289844 -0.743024
0.047844 0.274875 0.062936
-0.059307 0.267106 0.247548
-0.034849 0.257564 0.499479
0.013994 0.250027 0.595181
0.018375 0.342963 -0.444720
0.032966 0.323939 -0.336101
0.008764 0.328760 -0.659969
0.043739 -0.325896 -0.660566
0.136928 -0.321541 -0.574940
0.127419 -0.326294 -0.334757
0.075245 -0.289596 -0.735397
0.089761 -0.299021 -0.155576
0.123246 -0.222041 -0.804510
0.056289 -0.237329 0.743622
0.087333 -0.239696 0.664095
0.118293 -0.215292 0.119379
0.115384 -0.217976 0.811007
0.075205 -0.164955 0.487312
0.109799 -0.109038 0.182931
0.078041 -0.044024 0.279269
0.109129 -0.030632 0.510483
0.189369 0.005703 -0.875508
0.111105 0.055191 0.190250
0.093358 0.046690 0.472831
0.073002 0.074518 0.268853
0.066929 0.190534 0.507846
0.122196 0.215816 0.117220
0.087473 0.238643 0.659456
0.088709 0.298857 -0.198266
0.052206 0.289963 -0.001708
0.037868 0.250659 0.667321
0.113517 0.299320 -0.052690
0.063954 0.343562 -0.577292
0.113190 0.339549 -0.390773
0.098375 -0.346298 -0.436979
0.148696 -0.292228 -0.678528
0.125468 -0.303304 -0.037567
0.171255 -0.311110 -0.344149
0.193627 -0.290601 -0.066865
0.155851 -0.278649 0.024176
0.131689 -0.239256 0.733381
0.208907 -0.212346 -0.756189
0.125311 -0.152439 0.867253
0.195744 -0.102134 0.615006
0.098497 -0.074890 0.896884
0.175838 0.074484 0.601028
0.107651 -0.022732 0.901406
0.190019 0.128119 -0.852504
0.099401 0.144335 0.871590
0.183188 0.208843 0.673495
0.146802 0.274329 -0.719963
0.156916 0.281583 0.015766
0.138888 0.239538 0.741023
0.182364 0.303439 -0.563756
0.196398 0.304500 -0.282046
0.198402 0.292655 -0.067257
0.294523 -0.233363 0.725951
0.257431 -0.232555 -0.570122
0.294928 -0.228712 -0.118985
0.199976 -0.183339 -0.813670
0.261958 -0.217335 -0.658488
0.238469 -0.223306 0.117618
0.180286 -0.203479 0.653962
0.272936 -0.171690 0.655423
0.249961 -0.062308 -0.827654
0.294282 -0.079073 -0.752804
0.193395 -0.109695 0.175518
0.164467 -0.002527 0.179480
0.247890 0.075936 -0.837102
0.267758 0.044163 0.217603
0.308095 0.067820 -0.738556
0.195420 0.135634 0.161904
0.206575 0.198271 -0.793329
0.227925 0.226869 0.111814
0.275708 0.155349 0.648349
0.273018 0.197246 -0.696517
0.371640 0.219116 0.811381
0.260571 0.237273 -0.608117
0.292292 0.242399 -0.126806
0.306750 0.231723 0.718953
0.271587 -0.266674 -0.025493
0.296357 -0.258086 0.037434
0.405963 -0.212284 0.813601
0.311010 -0.104223 -0.653085
0.332589 -0.134020 -0.201748
0.344616 -0.166662 0.213889
0.358311 -0.128011 -0.119351
0.265765 -0.041840 0.622419
0.429264 -0.061320 0.879183
0.421540 0.068216 0.888400
0.323948 0.133724 -0.628706
0.371185 0.118188 -0.124744
0.436331 0.153609 0.864458
0.270238 0.269968 -0.016731
0.274862 0.262522 0.045306
0.362090 -0.235796 0.013090
0.358342 -0.243150 0.101332
0.350213 -0.213225 0.180123
0.405435 -0.210263 0.650360
0.344432 -0.139099 0.617807
0.432789 -0.156568 0.587419
0.442062 -0.170010 0.847714
0.543069 -0.151472 0.103537
0.352227 -0.047326 -0.197310
0.364185 -0.032884 0.252900
0.381190 -0.027432 -0.127474
0.364523 0.005159 0.580363
0.339781 0.053319 -0.648372
0.359393 0.028389 -0.187763
0.387823 0.046181 -0.116543
0.367340 0.063985 0.251262
0.347997 0.155598 0.618514
0.550710 0.132551 0.108611
0.350337 0.194838 0.176025
0.404142 0.232220 0.052216
0.350272 0.204998 0.662941
0.430433 0.159042 0.608939
0.353891 0.245074 0.102591
0.335655 0.257532 0.045394
0.475701 -0.215329 0.131001
0.438018 -0.226793 0.733689
0.421427 -0.204270 0.191258
0.480039 -0.148443 0.615442
0.486480 -0.150535 0.823866
0.449316 -0.137823 0.239323
0.455146 -0.079111 0.545597
0.573744 0.042495 0.249327
0.448170 0.038692 0.543837
0.530391 0.137525 0.229470
0.465563 0.218289 0.169046
0.424244 0.225606 0.732340
0.486874 0.186677 0.695186
0.484976 0.171741 0.824306
0.420454 0.238879 0.133118
0.501225 0.210428 0.130961
0.573864 -0.133748 0.183648
0.534426 -0.051406 0.812239
0.495087 -0.022858 0.544976
0.582075 -0.051792 0.244679
0.515680 -0.061673 0.856675
0.525974 -0.011915 0.605485
0.509049 0.062061 0.861541
0.533321 0.087345 0.793237
0.489324 0.115924 0.596207
0.596877 -0.059854 0.129712
0.623464 -0.013093 0.207834
0.576604 0.137929 0.194850
3 1 0 5
3 1 5 45
3 7 8 2
3 2 8 3
3 6 3 9
3 10 4 44
3 4 10 0
3 0 10 5
3 5 10 11
3 45 5 12
3 5 11 12
3 8 13 3
3 3 13 9
3 49 10 44
3 51 7 47
3 14 7 51
3 7 14 8
3 8 14 15
3 8 15 13
3 16 10 49
3 10 16 11
3 11 16 17
3 11 17 12
3 13 15 18
3 13 18 9
3 19 14 51
3 14 19 15
3 15 19 20
3 15 20 18
3 53 16 49
3 17 16 22
3 17 22 12
3 12 22 23
3 18 20 21
3 16 24 22
3 28 19 51
3 20 19 25
3 20 25 21
3 26 16 53
3 16 26 24
3 24 27 22
3 23 22 27
3 19 28 25
3 25 29 21
3 24 26 30
3 24 30 27
3 21 29 31
3 27 30 32
3 56 27 32
3 27 56 23
3 28 33 25
3 25 33 29
3 29 33 34
3 31 29 34
3 35 41 0
3 36 35 0
3 1 36 0
3 37 36 1
3 37 1 38
3 38 1 42
3 43 2 39
3 3 39 2
3 40 39 3
3 40 3 6
3 41 44 4
3 41 67 44
3 41 4 0
3 1 45 42
3 42 45 48
3 68 47 43
3 46 47 68
3 47 7 43
3 7 2 43
3 70 46 68
3 45 12 48
3 50 48 12
3 50 46 70
3 9 18 71
3 52 46 50
3 46 52 47
3 47 52 51
3 71 18 72
3 73 52 50
3 23 50 12
3 73 50 54
3 18 21 72
3 54 50 23
3 58 26 53
3 51 52 55
3 51 55 28
3 54 23 76
3 52 57 55
3 21 31 75
3 26 58 30
3 23 56 76
3 33 28 55
3 58 59 30
3 60 30 59
3 32 30 60
3 56 32 61
3 62 33 55
3 63 33 62
3 34 33 63
3 64 34 63
3 34 64 78
3 34 78 31
3 60 79 32
3 79 61 32
3 86 36 83
3 83 36 65
3 65 36 37
3 65 37 84
3 37 38 84
3 35 86 41
3 36 86 35
3 66 43 87
3 39 87 43
3 39 88 87
3 39 40 88
3 88 40 89
3 6 89 40
3 89 6 69
3 90 68 66
3 68 43 66
3 42 70 90
3 42 48 70
3 90 70 68
3 9 71 6
3 98 44 67
3 98 49 44
3 50 70 48
3 72 21 75
3 74 73 54
3 73 74 52
3 54 76 74
3 52 74 57
3 31 77 75
3 58 99 104
3 59 58 104
3 80 57 74
3 80 55 57
3 78 103 31
3 31 103 102
3 104 60 59
3 55 80 62
3 80 106 62
3 62 106 63
3 106 107 63
3 63 107 64
3 64 107 78
3 81 79 60
3 109 79 81
3 109 61 79
3 65 112 83
3 65 82 112
3 82 65 84
3 83 112 86
3 112 115 86
3 38 85 84
3 41 115 117
3 86 115 41
3 85 38 42
3 66 87 91
3 92 89 69
3 41 117 67
3 91 90 66
3 94 87 88
3 88 95 94
3 88 89 95
3 89 96 95
3 92 96 89
3 93 92 69
3 93 69 118
3 118 69 97
3 69 6 97
3 71 97 6
3 117 98 67
3 126 49 98
3 99 58 53
3 31 102 77
3 105 100 80
3 100 106 80
3 100 101 106
3 101 107 106
3 101 108 107
3 135 103 108
3 56 61 110
3 56 110 133
3 56 133 76
3 133 74 76
3 74 134 80
3 134 105 80
3 78 107 108
3 108 103 78
3 103 135 102
3 60 104 111
3 60 111 81
3 110 61 109
3 111 137 81
3 137 109 81
3 113 112 82
3 82 139 113
3 82 84 139
3 114 139 85
3 139 84 85
3 140 115 112
3 140 112 113
3 114 85 116
3 42 116 85
3 116 91 141
3 141 91 144
3 90 116 42
3 91 116 90
3 144 91 87
3 93 119 92
3 119 93 118
3 87 120 144
3 87 94 120
3 92 119 96
3 118 145 119
3 118 97 121
3 118 121 145
3 97 147 121
3 123 120 94
3 95 96 122
3 147 97 71
3 94 95 123
3 95 124 123
3 95 122 124
3 147 71 149
3 124 122 125
3 123 124 127
3 149 71 151
3 125 128 124
3 151 71 72
3 126 53 49
3 124 129 127
3 124 128 129
3 126 152 53
3 129 128 130
3 152 99 53
3 100 131 127
3 127 129 100
3 72 75 153
3 129 130 100
3 130 101 100
3 150 154 130
3 153 75 77
3 101 132 108
3 130 132 101
3 130 154 132
3 104 99 155
3 131 105 156
3 131 100 105
3 108 132 135
3 157 102 132
3 102 157 77
3 155 111 104
3 136 74 133
3 134 74 136
3 134 156 105
3 132 102 135
3 111 155 137
3 110 138 133
3 134 136 156
3 137 138 109
3 110 109 138
3 139 142 113
3 114 142 139
3 116 142 114
3 143 142 116
3 116 141 143
3 144 143 141
3 140 146 115
3 117 146 164
3 117 115 146
3 166 144 120
3 119 145 167
3 167 145 161
3 161 145 121
3 96 167 122
3 96 119 167
3 166 120 171
3 171 120 123
3 167 148 122
3 164 98 117
3 125 122 148
3 171 123 172
3 172 123 127
3 150 125 148
3 128 125 150
3 172 127 176
3 130 128 150
3 176 127 131
3 176 131 178
3 99 152 177
3 181 153 77
3 99 177 155
3 178 131 156
3 132 154 157
3 157 154 184
3 77 157 181
3 137 155 158
3 137 158 138
3 158 159 138
3 133 138 159
3 160 133 159
3 136 133 160
3 160 156 136
3 113 162 140
3 142 162 113
3 143 163 142
3 143 185 163
3 143 144 185
3 185 144 186
3 144 166 186
3 165 146 140
3 140 162 165
3 162 142 163
3 187 161 121
3 165 188 146
3 168 167 161
3 187 121 147
3 164 146 169
3 146 170 169
3 146 188 170
3 190 166 171
3 168 148 167
3 98 164 169
3 168 192 148
3 193 147 149
3 126 98 169
3 171 172 174
3 192 150 148
3 173 126 169
3 192 179 150
3 194 151 72
3 152 126 173
3 176 174 172
3 194 72 197
3 197 72 153
3 177 152 173
3 173 175 177
3 175 180 177
3 154 150 179
3 154 179 184
3 155 177 180
3 180 182 155
3 199 178 156
3 182 158 155
3 159 158 182
3 183 159 182
3 160 159 183
3 183 198 160
3 160 198 156
3 156 198 199
3 184 181 157
3 166 201 186
3 163 185 200
3 185 186 200
3 166 202 201
3 165 162 188
3 162 163 189
3 200 191 163
3 190 202 166
3 204 168 203
3 203 168 161
3 206 187 147
3 162 189 188
3 163 191 189
3 171 209 190
3 204 192 168
3 206 147 193
3 188 189 208
3 204 211 192
3 209 171 174
3 193 149 151
3 175 169 170
3 173 169 175
3 188 212 175
3 170 188 175
3 193 151 194
3 209 174 215
3 211 179 192
3 175 212 195
3 212 213 195
3 195 213 196
3 211 216 179
3 176 218 174
3 218 215 174
3 180 175 195
3 195 182 180
3 195 183 182
3 195 196 183
3 196 219 183
3 179 216 220
3 218 176 178
3 179 220 184
3 197 153 181
3 183 219 198
3 219 223 198
3 178 199 222
3 218 178 222
3 223 199 198
3 222 199 223
3 201 200 186
3 201 224 200
3 201 226 224
3 202 226 201
3 225 203 161
3 225 161 187
3 190 226 202
3 204 203 205
3 207 191 200
3 226 190 229
3 191 207 210
3 229 190 209
3 189 191 208
3 191 210 208
3 211 205 230
3 204 205 211
3 188 208 212
3 208 213 212
3 208 210 213
3 210 214 213
3 232 211 230
3 231 209 215
3 213 214 196
3 231 215 233
3 221 211 232
3 216 211 221
3 196 214 217
3 233 215 218
3 219 196 217
3 233 218 234
3 216 221 220
3 221 235 220
3 219 238 222
3 219 222 223
3 238 218 222
3 234 218 238
3 184 220 235
3 181 184 235
3 203 227 205
3 203 225 227
3 187 228 225
3 187 206 228
3 240 226 229
3 227 230 205
3 227 225 228
3 227 242 230
3 228 206 193
3 243 229 209
3 228 193 244
3 243 209 231
3 242 232 230
3 244 193 246
3 246 193 194
3 242 248 232
3 248 221 232
3 246 194 197
3 221 248 236
3 237 246 197
3 235 221 236
3 181 235 237
3 235 236 237
3 237 197 181
3 239 238 219
3 239 234 238
3 224 207 200
3 207 224 240
3 224 226 240
3 228 241 227
3 207 249 210
3 240 229 243
3 228 244 241
3 245 242 227
3 227 241 245
3 210 249 214
3 241 247 245
3 241 246 247
3 244 246 241
3 249 217 214
3 248 242 245
3 245 247 248
3 251 233 234
3 247 236 248
3 237 236 247
3 247 246 237
3 217 239 219
3 251 239 217
3 251 234 239
3 207 240 249
3 240 250 249
3 240 243 250
3 243 231 250
3 249 250 217
3 250 251 217
3 250 231 251
3 231 233 251
