ply
format ascii 1.0
element vertex 248
property float x
property float y
property float z
element face 500
property list uchar int vertex_indices
end_header
-0.471181 -0.167011 -0.644919
-0.512552 -0.125528 -0.375544
-0.517865 -0.068995 -0.655727
-0.544032 -0.013836 -0.374301
-0.516091 0.066565 -0.654703
-0.488475 0.113235 -0.354492
-0.468049 0.168970 -0.643459
-0.328792 -0.280263 -0.588333
-0.429492 -0.237636 -0.394213
-0.396417 -0.175637 -0.229334
-0.495613 -0.038981 -0.279107
-0.357651 -0.103120 -0.853076
-0.414334 -0.112442 0.192540
-0.423967 -0.122894 0.428570
-0.397420 -0.115292 0.128150
-0.404715 -0.108589 0.517750
-0.386524 -0.000361 -0.852311
-0.414996 0.008160 0.120734
-0.438960 0.021749 0.209370
-0.412070 0.071607 0.450162
-0.358283 0.106529 -0.852056
-0.333884 0.219688 -0.174209
-0.340942 0.284074 -0.583997
-0.399900 0.260289 -0.396174
-0.359407 -0.288510 -0.384262
-0.273653 -0.200597 -0.814312
-0.347201 -0.204200 0.158449
-0.348022 -0.239972 0.322250
-0.337157 -0.219076 0.487910
-0.360167 -0.114734 -0.120639
-0.347882 -0.110833 0.021271
-0.368702 0.061269 -0.094892
-0.370208 0.072708 0.037495
-0.312010 0.046587 0.658973
-0.394320 0.130239 0.148015
-0.369725 0.137843 0.538029
-0.350986 0.224416 0.228732
-0.352834 0.207640 0.436103
-0.285786 0.202945 -0.809566
-0.343667 0.301906 -0.405558
-0.291708 -0.276815 0.213383
-0.291401 -0.282059 0.357791
-0.242843 -0.290467 -0.189296
-0.306377 -0.199974 -0.094642
-0.267462 -0.257863 0.063240
-0.273146 -0.154222 0.668862
-0.293467 0.236838 0.036020
-0.235498 0.237370 0.611623
-0.231436 0.308308 -0.211214
-0.220073 0.290257 -0.696156
-0.257708 0.295529 0.313136
-0.260224 -0.291555 -0.541992
-0.242706 -0.306277 -0.345456
-0.198244 -0.284691 -0.394954
-0.197290 -0.262544 -0.532014
-0.169090 -0.297989 0.512082
-0.166308 -0.271225 0.660254
-0.265309 -0.127206 -0.879963
-0.190099 -0.202626 0.744263
-0.254318 -0.002747 0.754918
-0.291656 -0.000550 -0.893602
-0.188000 -0.039744 0.836527
-0.187632 0.114379 0.817594
-0.265413 0.132280 -0.878665
-0.199741 0.185799 0.742859
-0.174473 0.242277 -0.518105
-0.200000 0.277734 -0.608912
-0.246057 0.294574 -0.425507
-0.194009 0.301450 0.078911
-0.173948 -0.267025 -0.641831
-0.114869 -0.324915 -0.176983
-0.186175 -0.302722 0.113896
-0.176457 -0.276864 -0.728199
-0.081194 -0.240857 0.200277
-0.065456 -0.264236 0.435303
-0.091071 -0.179540 -0.481075
-0.122892 -0.198927 0.803304
-0.093393 0.174621 -0.458635
-0.146611 0.299309 0.554084
-0.077933 0.164347 -0.552135
-0.197024 0.307900 0.321391
-0.119630 0.265857 0.239411
-0.071636 0.270018 0.468466
-0.113513 0.339200 -0.148195
-0.144157 -0.307097 -0.257267
-0.101939 -0.315699 -0.010726
-0.140584 -0.300311 0.091768
-0.024151 -0.283145 0.718876
-0.018446 -0.151331 0.310426
0.343086 -0.206382 -0.812015
-0.093280 -0.112370 0.861355
-0.024757 -0.069160 -0.454009
-0.103569 -0.022173 0.880103
-0.032527 0.015603 -0.514800
0.351721 0.058836 -0.892457
-0.115481 0.078483 0.863641
-0.038689 0.101719 -0.447414
-0.063808 0.221354 0.791420
0.328066 0.211577 -0.807381
-0.021607 0.175588 0.181002
-0.038243 0.192632 0.302223
-0.129403 0.278808 0.688154
-0.120749 0.312348 -0.264518
-0.117396 0.287392 0.071028
0.033488 -0.318620 -0.162933
-0.012753 -0.252407 -0.319936
-0.064530 -0.297695 0.625245
0.211344 -0.293763 -0.727824
0.000813 -0.262305 -0.689513
0.076317 -0.224488 0.038497
0.079315 -0.268492 0.637150
0.041595 -0.210820 0.523724
0.002251 -0.166184 -0.583509
0.010819 -0.200015 0.441270
0.013582 -0.119504 0.178673
0.048670 -0.091275 0.427734
0.351586 -0.064401 -0.891443
0.021826 0.023072 0.191905
0.008192 0.062371 0.287153
0.018116 0.171882 -0.590995
0.010601 0.229748 -0.364356
0.012573 0.235144 0.060947
0.015294 0.175736 0.426081
0.041410 0.206313 0.528301
0.157358 0.287070 -0.722040
0.015114 0.270773 -0.675738
-0.059070 0.295290 0.625338
-0.031030 0.288013 0.714351
-0.031126 0.337005 -0.113906
0.078089 0.271438 0.645942
0.037894 0.336163 -0.202434
0.080043 0.316287 -0.100349
0.169305 -0.302037 -0.318231
0.137185 -0.261284 -0.637186
0.127757 -0.182176 0.574877
0.040135 -0.103249 -0.453031
0.087507 -0.178982 -0.482003
0.140364 -0.022282 0.127490
0.105733 -0.004988 0.505232
0.042949 -0.008176 -0.510189
0.026888 0.063337 -0.453687
0.060687 0.071373 0.438753
0.103757 0.183919 -0.498836
0.102533 0.173281 0.075574
0.411806 0.146247 0.871914
0.178165 0.278717 -0.641917
0.151941 0.195388 0.586332
0.170403 0.285298 -0.361581
0.402145 0.260011 0.744521
0.174796 -0.299989 -0.081586
0.204878 -0.278937 -0.476192
0.220864 -0.255040 0.023279
0.431738 -0.195308 0.818182
0.190822 -0.145810 0.099458
0.415503 -0.099875 0.883858
0.179657 0.154127 0.086806
0.212004 0.274911 -0.499270
0.216662 0.235158 0.039128
0.275668 0.302760 -0.560815
0.233455 -0.314123 -0.227902
0.285571 -0.311271 -0.641534
0.284286 -0.306294 -0.396208
0.309142 -0.273120 0.673115
0.317342 -0.214436 0.594836
0.258739 0.017626 0.551144
0.318157 -0.042218 0.258278
0.430120 0.025418 0.892540
0.453049 0.208924 0.823441
0.159444 0.329627 -0.137425
0.366158 0.261605 0.653370
0.230858 0.313887 -0.218827
0.321549 -0.289174 -0.057955
0.356427 -0.273322 -0.363139
0.391829 -0.228451 -0.205147
0.409795 -0.201278 0.339064
0.366948 -0.115544 0.492440
0.337743 0.108244 0.277352
0.359728 0.090531 0.482722
0.369804 0.209749 0.575844
0.300044 0.293546 -0.674790
0.321145 0.270950 -0.390217
0.362624 0.240969 -0.242173
0.421389 0.257045 0.210381
0.359584 0.288329 0.004411
0.339269 -0.296819 -0.700853
0.371679 -0.283250 -0.511958
0.436755 -0.236677 -0.074214
0.430971 -0.258426 0.748948
0.468484 -0.184156 -0.731749
0.473632 -0.149321 -0.445426
0.441656 -0.165713 -0.327484
0.406923 -0.216462 0.527886
0.454471 -0.129780 -0.827857
0.458021 -0.044053 -0.236681
0.367742 -0.030245 0.367197
0.432351 0.153265 -0.296197
0.450866 0.142457 -0.817814
0.430681 0.170056 -0.188997
0.425999 0.215974 0.425404
0.428034 0.232517 -0.717440
0.430629 0.242786 -0.512168
0.422632 0.238711 -0.085706
0.359001 0.293071 -0.542757
0.492666 -0.270808 0.071800
0.469990 -0.285905 0.200274
0.470487 -0.254821 0.588688
0.563200 -0.249825 0.405113
0.469190 -0.145388 -0.116028
0.514469 -0.193578 -0.028452
0.442615 -0.001162 -0.865113
0.515112 -0.083226 -0.732414
0.505161 0.013065 -0.364236
0.517170 0.080282 -0.731979
0.496794 0.167386 -0.712803
0.489313 0.134933 -0.430573
0.479621 0.131648 -0.104079
0.514680 0.194572 -0.031034
0.484154 0.259141 0.582817
0.491505 0.269634 0.063790
0.494468 0.283213 0.233274
0.583904 -0.216220 0.526585
0.551569 -0.201941 0.699670
0.519115 -0.058870 0.857144
0.530368 0.020673 -0.439652
0.591005 -0.102344 0.756212
0.571608 0.037511 -0.033764
0.603565 0.041823 0.738969
0.511881 0.099283 0.850472
0.628643 0.172370 0.513333
0.589321 0.244597 0.473880
0.545896 0.203565 0.713925
0.618485 -0.201782 0.092117
0.566156 -0.273202 0.238464
0.615077 -0.148528 0.019773
0.653678 -0.185429 0.324593
0.660407 -0.135012 0.426505
0.650135 -0.051115 0.549042
0.613440 0.171032 0.023805
0.624874 0.204855 0.098075
0.652238 0.176689 0.338447
0.572226 0.268955 0.222777
0.652286 -0.146525 0.048700
0.683536 -0.065016 0.098790
0.696178 -0.035862 0.338268
0.646871 -0.033799 0.014845
0.687161 0.119063 0.140966
0.680531 0.022570 0.432255
0.654333 0.129295 0.049160
3 0 2 1
3 1 2 3
3 1 3 10
3 2 4 3
3 10 3 5
3 4 5 3
3 4 6 5
3 0 1 8
3 8 1 9
3 1 10 9
3 0 11 2
3 9 10 29
3 11 16 2
3 14 17 12
3 12 17 18
3 12 18 13
3 2 16 4
3 29 10 31
3 13 18 19
3 13 19 15
3 16 20 4
3 10 5 31
3 4 20 6
3 31 5 21
3 34 18 17
3 18 34 19
3 6 23 5
3 21 5 23
3 6 22 23
3 7 0 8
3 7 8 24
3 24 8 42
3 8 9 42
3 0 25 11
3 7 25 0
3 26 12 27
3 28 27 13
3 26 14 12
3 27 12 13
3 28 13 15
3 28 15 45
3 30 14 26
3 29 31 30
3 30 31 32
3 30 32 17
3 14 30 17
3 19 33 15
3 32 34 17
3 19 35 33
3 34 36 19
3 19 36 37
3 19 37 35
3 38 6 20
3 6 38 22
3 23 48 21
3 22 39 23
3 51 7 52
3 7 24 52
3 24 42 52
3 44 26 40
3 26 27 40
3 40 27 41
3 41 27 28
3 41 28 55
3 9 43 42
3 57 11 25
3 43 30 44
3 30 26 44
3 29 43 9
3 43 29 30
3 57 60 11
3 60 16 11
3 33 45 15
3 60 20 16
3 60 63 20
3 31 46 32
3 32 46 34
3 31 21 46
3 35 47 33
3 63 38 20
3 34 46 36
3 35 37 47
3 38 49 22
3 23 39 48
3 50 36 46
3 37 36 50
3 37 50 47
3 49 66 22
3 66 67 22
3 22 67 39
3 39 67 48
3 7 69 72
3 69 7 51
3 53 51 52
3 40 41 71
3 55 71 41
3 72 25 7
3 54 69 51
3 53 54 51
3 42 44 71
3 71 44 40
3 44 42 43
3 55 28 56
3 28 45 56
3 56 45 58
3 58 45 59
3 58 59 61
3 45 33 59
3 61 59 62
3 59 33 64
3 59 64 62
3 33 47 64
3 46 21 48
3 66 65 67
3 48 68 46
3 46 68 50
3 50 78 47
3 68 80 50
3 50 80 78
3 52 84 53
3 70 84 42
3 42 84 52
3 70 71 85
3 70 42 71
3 85 71 86
3 55 74 71
3 71 73 86
3 73 71 74
3 53 75 54
3 53 84 75
3 56 58 87
3 87 58 76
3 89 57 25
3 75 69 54
3 61 76 58
3 76 61 90
3 61 92 90
3 92 61 95
3 95 61 62
3 94 63 60
3 95 62 97
3 98 38 63
3 65 79 77
3 64 97 62
3 65 77 67
3 77 102 67
3 47 101 64
3 64 101 97
3 79 65 66
3 81 68 103
3 68 81 80
3 78 101 47
3 102 48 67
3 83 48 102
3 68 48 83
3 83 103 68
3 82 80 81
3 78 80 82
3 70 85 104
3 105 84 70
3 106 56 87
3 107 72 108
3 72 69 108
3 74 55 106
3 56 106 55
3 107 25 72
3 69 112 108
3 105 75 84
3 74 88 73
3 69 75 112
3 75 105 91
3 116 60 57
3 93 112 75
3 75 91 93
3 91 96 93
3 93 96 77
3 79 93 77
3 77 96 120
3 99 100 81
3 38 98 124
3 79 66 119
3 119 66 125
3 102 77 120
3 103 99 81
3 100 82 81
3 101 127 97
3 124 49 38
3 124 125 49
3 49 125 66
3 78 82 126
3 126 101 78
3 102 120 130
3 83 102 130
3 103 83 128
3 101 126 127
3 130 128 83
3 104 105 70
3 104 85 109
3 85 86 109
3 106 87 110
3 111 74 106
3 106 110 111
3 89 25 107
3 74 113 88
3 74 111 113
3 109 86 73
3 135 91 105
3 114 109 73
3 73 88 114
3 88 113 115
3 139 112 93
3 114 88 117
3 88 118 117
3 88 115 118
3 135 140 91
3 140 96 91
3 139 93 119
3 119 93 79
3 117 118 99
3 118 100 99
3 118 122 100
3 140 120 96
3 144 95 97
3 100 122 82
3 121 99 103
3 122 123 82
3 127 148 97
3 126 82 123
3 123 129 126
3 121 128 131
3 121 103 128
3 129 127 126
3 131 128 130
3 132 105 104
3 109 149 104
3 107 108 133
3 112 133 108
3 132 136 105
3 134 111 110
3 112 136 133
3 136 135 105
3 152 76 90
3 113 111 115
3 109 114 137
3 111 138 115
3 111 134 138
3 139 136 112
3 154 90 92
3 136 139 135
3 114 117 137
3 135 139 140
3 141 118 115
3 115 138 141
3 139 142 140
3 137 117 143
3 119 142 139
3 117 99 143
3 122 118 141
3 138 123 141
3 138 146 123
3 140 142 120
3 121 143 99
3 141 123 122
3 145 142 119
3 145 119 125
3 120 142 147
3 143 121 131
3 123 146 129
3 124 145 125
3 129 148 127
3 120 147 130
3 159 132 104
3 159 104 149
3 162 110 87
3 132 150 136
3 109 151 149
3 162 163 110
3 163 134 110
3 136 150 133
3 109 153 151
3 137 153 109
3 163 164 134
3 164 138 134
3 155 137 143
3 164 146 138
3 166 95 144
3 145 156 142
3 157 155 143
3 167 144 97
3 145 158 156
3 147 142 156
3 157 143 131
3 146 169 129
3 157 131 168
3 169 148 129
3 130 147 170
3 131 130 168
3 168 130 170
3 133 160 107
3 159 149 171
3 133 150 160
3 160 150 161
3 150 132 161
3 159 161 132
3 152 87 76
3 116 57 89
3 94 60 116
3 137 165 153
3 166 92 95
3 98 63 94
3 176 137 155
3 164 178 146
3 178 169 146
3 156 158 180
3 156 180 147
3 168 183 157
3 179 145 124
3 145 179 158
3 180 170 147
3 168 170 183
3 160 184 107
3 184 160 185
3 160 161 185
3 172 185 161
3 159 172 161
3 159 173 172
3 186 173 171
3 171 173 159
3 171 149 151
3 162 87 187
3 89 107 184
3 187 87 152
3 151 153 174
3 154 152 90
3 174 153 165
3 175 164 163
3 166 154 92
3 165 176 194
3 175 177 164
3 137 176 165
3 177 178 164
3 157 176 155
3 124 98 179
3 97 148 167
3 181 170 180
3 181 201 170
3 201 183 170
3 157 183 182
3 179 202 158
3 202 180 158
3 184 185 188
3 185 189 188
3 172 189 185
3 171 203 186
3 203 171 204
3 171 151 204
3 174 204 151
3 205 162 187
3 188 89 184
3 189 172 190
3 173 190 172
3 191 163 205
3 205 163 162
3 192 89 188
3 174 175 191
3 175 163 191
3 193 190 173
3 174 194 175
3 192 116 89
3 174 165 194
3 192 209 116
3 209 94 116
3 175 194 177
3 209 196 94
3 194 176 177
3 196 98 94
3 195 197 181
3 176 198 177
3 98 196 199
3 197 201 181
3 157 182 176
3 176 182 198
3 178 177 198
3 179 98 199
3 200 214 180
3 214 195 180
3 181 180 195
3 198 217 178
3 178 217 169
3 199 202 179
3 199 200 202
3 202 200 180
3 201 218 183
3 218 219 183
3 183 219 182
3 186 203 208
3 206 204 174
3 205 206 174
3 191 205 174
3 205 187 221
3 221 187 152
3 173 186 207
3 186 208 207
3 222 152 154
3 188 210 192
3 211 189 190
3 173 207 193
3 209 192 210
3 190 193 211
3 222 154 166
3 222 166 227
3 212 209 210
3 193 195 211
3 193 197 195
3 193 215 197
3 196 209 212
3 212 213 196
3 227 166 144
3 213 214 200
3 214 211 195
3 227 144 167
3 199 196 213
3 201 197 215
3 215 216 201
3 200 199 213
3 201 216 218
3 219 198 182
3 167 148 230
3 219 217 198
3 217 148 169
3 231 203 232
3 203 204 232
3 232 204 206
3 220 206 205
3 208 203 231
3 205 221 220
3 208 231 233
3 224 221 152
3 222 224 152
3 188 189 210
3 189 223 210
3 189 211 223
3 233 225 208
3 208 225 207
3 224 222 226
3 210 223 212
3 215 193 207
3 207 225 215
3 222 227 226
3 212 214 213
3 212 223 214
3 211 214 223
3 225 216 215
3 225 237 216
3 230 226 227
3 167 230 227
3 237 238 216
3 229 228 230
3 216 238 218
3 229 230 217
3 238 240 218
3 218 240 219
3 229 219 240
3 217 219 229
3 148 217 230
3 232 234 231
3 206 234 232
3 233 231 241
3 234 206 235
3 220 235 206
3 220 236 235
3 220 221 236
3 221 224 236
3 241 244 233
3 244 225 233
3 246 235 236
3 236 224 226
3 244 247 225
3 247 237 225
3 228 246 236
3 236 226 228
3 226 230 228
3 238 237 247
3 238 239 240
3 229 240 239
3 239 228 229
3 241 231 242
3 231 234 242
3 242 234 243
3 235 243 234
3 244 241 242
3 242 243 245
3 235 246 243
3 247 244 242
3 242 245 247
3 243 239 245
3 243 246 239
3 228 239 246
3 245 238 247
3 245 239 238
