ply
format ascii 1.0
element vertex 252
property float x
property float y
property float z
element face 500
property list uchar int vertex_indices
end_header
-0.415954 -0.085851 0.047835
-0.418833 -0.128755 0.406071
-0.451177 -0.002529 0.026699
-0.451291 -0.061821 0.123491
-0.454946 0.005582 0.426739
-0.420177 -0.036318 0.504875
-0.431188 0.056962 0.492983
-0.429945 0.095009 0.071040
-0.418570 0.132869 0.421230
-0.341380 -0.220596 0.101584
-0.339825 -0.249494 0.245597
-0.352160 -0.207413 0.436328
-0.335567 -0.158830 0.029753
-0.374930 -0.132743 0.503273
-0.436638 0.010477 0.006547
-0.370306 0.152713 0.494818
-0.392195 0.182980 0.106246
-0.351758 0.159173 0.042625
-0.359884 0.226634 0.328733
-0.324562 0.219269 0.432329
-0.342403 0.224817 0.121404
-0.259272 -0.253695 0.385974
-0.281811 -0.209843 0.505376
-0.353625 -0.011771 -0.006161
-0.301265 0.112690 0.570082
-0.275611 0.256428 0.302818
-0.309149 -0.252268 0.160663
-0.191431 -0.203640 -0.963017
-0.268914 -0.183469 0.073387
-0.247582 -0.116419 -0.984197
-0.183742 -0.205120 -0.815263
-0.212687 -0.134940 -0.735288
-0.212158 -0.082088 0.043009
-0.182525 -0.111025 0.098171
-0.274035 -0.121482 0.580085
-0.255763 -0.031629 -1.069609
-0.254399 -0.073487 -0.827226
-0.244086 -0.017282 -0.755186
-0.273701 -0.049813 0.001522
-0.254761 0.048994 -0.966812
-0.253116 0.054862 -0.811970
-0.291221 -0.015050 0.595676
-0.278225 0.093466 0.004475
-0.161423 0.100831 -1.038013
-0.210000 0.109946 -0.724981
-0.221376 0.076725 0.034437
-0.135564 0.105611 0.675550
-0.172255 0.201986 -0.964816
-0.181722 0.193167 -0.805327
-0.196003 0.135688 0.102864
-0.262190 0.166909 0.044863
-0.281104 0.197900 0.525040
-0.106123 0.197970 0.626966
-0.271937 0.220223 0.122266
-0.185191 -0.232805 0.306684
-0.144759 -0.246978 0.432941
-0.112933 -0.261380 -0.876327
-0.189497 -0.245795 0.504380
-0.113877 -0.184761 0.336569
-0.103196 -0.185669 0.623435
-0.199076 -0.136456 -1.032395
-0.141565 -0.191760 -0.650444
-0.084743 -0.216059 -0.514442
-0.151180 -0.169280 0.234374
-0.141175 -0.089610 -0.502131
-0.193964 -0.030831 -0.643547
-0.115582 -0.061626 0.225475
-0.177054 -0.045111 0.670902
-0.211298 -0.034463 -1.084939
-0.160669 0.003105 0.109601
-0.149626 0.045548 -0.514387
-0.183302 0.097450 -0.645203
-0.122655 0.052029 0.201412
-0.157506 0.179636 -0.643016
-0.095850 0.203874 -0.521759
-0.126063 0.189628 0.318040
-0.191869 0.249780 0.316105
-0.192591 0.240303 0.512651
-0.109966 0.256452 -0.911536
-0.152558 0.247977 0.428967
-0.131931 -0.255545 0.511125
-0.114727 -0.240711 -0.955179
-0.066940 -0.259354 -0.776124
-0.046094 -0.242694 -0.610093
-0.101438 -0.243970 0.566650
-0.058762 -0.249386 0.533380
0.014041 -0.198535 0.489243
-0.054708 -0.198156 -0.422841
-0.024700 -0.191214 -0.277057
-0.112612 -0.076490 0.693152
-0.084795 -0.089699 -0.332863
-0.072910 -0.061398 -0.264656
0.253988 -0.125955 -1.030818
-0.120339 -0.026448 -0.417875
-0.035068 -0.143139 -0.204606
-0.048942 -0.077455 0.359587
-0.052050 -0.005625 -0.186619
-0.042959 0.052984 0.357008
-0.073944 0.020900 0.710232
-0.093877 0.060862 -0.350931
-0.070431 0.094193 -0.280294
0.253693 0.030378 -1.071612
-0.106276 0.108510 -0.427154
0.263792 0.119558 -1.033748
-0.048625 0.121398 -0.213619
-0.045446 0.247434 -0.955750
-0.109681 0.236072 -0.635106
-0.040234 0.214858 -0.447915
-0.021911 0.191035 -0.248787
-0.126113 0.252707 -0.955985
-0.096206 0.245585 0.567942
-0.046173 0.246579 -0.743989
-0.039856 0.243332 -0.588296
-0.128223 0.254992 0.508549
-0.058417 0.248562 0.530944
0.008634 0.241080 0.574542
0.002186 -0.268768 -0.875776
-0.008190 -0.241885 0.565823
0.042669 -0.218243 -0.759160
-0.031230 -0.243583 -0.512663
0.015187 -0.242853 -0.496284
0.036752 -0.243358 -0.373817
0.118113 -0.238525 -0.944930
0.041928 -0.222753 -0.606456
0.032198 -0.224499 -0.192032
0.016410 -0.168649 -0.096976
0.069336 -0.172405 0.050343
0.022197 -0.119621 0.021308
-0.020109 -0.016421 -0.078027
0.014973 -0.032491 0.033542
0.047090 -0.022129 0.437100
0.030538 0.052303 0.033850
-0.012837 0.128373 -0.127410
0.072810 0.182314 0.022790
0.071300 0.113385 0.466692
-0.002929 0.207348 0.489886
0.141306 0.206117 -1.003310
0.039770 0.225725 -0.155107
0.064488 0.181986 -0.657663
-0.008776 0.259380 -0.873239
0.051081 0.244203 -0.490987
0.041549 0.249086 -0.320605
0.049722 -0.248854 -0.275313
0.114655 -0.247612 -0.219607
0.117942 -0.243105 -0.098774
0.097633 -0.191793 -0.552379
0.113112 -0.233385 -0.353344
0.119587 -0.232097 0.004540
0.115154 -0.150082 -0.804884
0.086784 -0.129317 -0.674465
0.085314 -0.113758 -0.742607
0.095491 0.050196 -0.733046
0.103375 0.032957 -0.670436
0.115902 0.130227 -0.794315
0.057415 0.199968 -0.782951
0.039673 0.234618 -0.573312
0.089020 0.205161 -0.578795
0.129056 0.212837 -0.393787
0.112644 0.242530 -0.048967
0.128732 0.230064 0.044541
0.113328 0.250567 -0.227690
0.338510 0.195407 0.671494
0.255926 0.247731 0.574328
0.238159 -0.248430 0.586216
0.109653 -0.243018 -0.889681
0.192823 -0.245138 0.048481
0.180582 -0.186043 -0.292554
0.196029 -0.226384 0.108503
0.149676 -0.214538 0.513824
0.169402 -0.137550 -0.437818
0.134022 -0.079943 -0.582112
0.195571 -0.163562 0.207741
0.125295 -0.124930 0.470295
0.183300 -0.150329 0.433519
0.127331 -0.039865 0.192807
0.185564 -0.076686 0.312609
0.158558 -0.043054 0.412413
0.338953 -0.075457 0.715124
0.276508 -0.044904 -1.071105
0.188260 0.012945 -0.443413
0.130893 0.033172 0.432315
0.123836 0.026319 -0.771435
0.129360 0.115635 -0.568216
0.175543 0.046281 0.301934
0.146233 0.081610 0.206364
0.173786 0.131444 -0.423273
0.214390 0.154494 0.320564
0.124748 0.136140 0.472260
0.185265 0.169689 0.440924
0.200249 0.122143 -0.347599
0.186142 0.167133 0.198324
0.103557 0.229164 -0.886607
0.136201 0.204545 0.502324
0.138965 0.235748 -0.949436
0.177105 0.208095 -0.283845
0.221928 0.233637 0.101510
0.187138 0.244530 -0.000351
0.262585 -0.177365 -0.964964
0.185880 -0.201738 -0.903667
0.211234 -0.212093 -0.117534
0.192928 -0.245014 -0.027355
0.246929 -0.228817 0.477502
0.251440 -0.219452 -0.036120
0.276130 -0.225855 0.219538
0.355529 -0.198950 0.663077
0.223982 -0.167515 0.311196
0.206326 -0.036603 -0.825337
0.280893 -0.108076 -0.124548
0.217898 -0.047233 -0.350975
0.242399 -0.045183 -0.256449
0.297772 -0.028590 -0.128505
0.188629 0.108585 -0.829919
0.229015 0.126471 -0.254009
0.295383 0.077338 -0.111396
0.359158 0.108106 0.716690
0.205021 0.214314 -0.123224
0.189428 0.208458 -0.911002
0.242067 0.183165 -0.973431
0.248050 0.220833 -0.026299
0.265700 0.222229 0.197065
0.254063 0.223763 0.424475
0.274342 -0.224522 0.066955
0.325861 -0.097149 -0.983727
0.301016 -0.088176 -0.911197
0.309594 -0.133348 -0.037728
0.347250 -0.166894 0.072068
0.373532 -0.045351 0.023434
0.323854 -0.001574 -1.037391
0.289094 0.026163 -0.867090
0.291215 0.115505 -0.909107
0.322495 0.102611 -0.983108
0.308836 0.128411 -0.039146
0.367550 0.074938 0.028163
0.279407 0.209426 0.038360
0.292372 0.227607 0.124924
0.332738 -0.222091 0.184177
0.353945 -0.229960 0.556781
0.418522 -0.113114 0.214685
0.426626 -0.123061 0.669139
0.405634 -0.084142 0.100431
0.342595 0.003176 -0.038987
0.342426 0.015053 -0.947818
0.388363 0.146409 0.121658
0.412951 0.158174 0.208393
0.424022 0.116421 0.651417
0.353679 0.223982 0.567106
0.340489 0.215099 0.201190
0.461020 -0.035171 0.640856
0.430403 0.017464 0.120345
0.455784 0.011521 0.208222
0.436645 0.011937 0.711126
0.444567 0.080433 0.171637
3 2 0 14
3 0 2 3
3 0 3 1
3 1 3 4
3 1 4 5
3 5 4 6
3 3 2 4
3 7 2 14
3 2 7 4
3 4 7 8
3 6 4 8
3 11 10 1
3 12 0 9
3 9 0 1
3 9 1 10
3 11 1 13
3 12 23 0
3 23 14 0
3 13 1 5
3 5 6 24
3 23 17 14
3 17 7 14
3 6 8 15
3 15 24 6
3 8 7 16
3 7 17 16
3 16 18 8
3 8 18 19
3 15 8 19
3 20 16 17
3 16 20 18
3 10 21 26
3 9 10 26
3 11 21 10
3 11 22 21
3 28 12 9
3 26 28 9
3 22 11 13
3 13 34 22
3 28 38 12
3 38 23 12
3 34 13 41
3 41 13 5
3 38 42 23
3 41 5 24
3 42 17 23
3 42 50 17
3 51 24 15
3 17 50 53
3 20 17 53
3 51 15 19
3 53 25 20
3 18 20 25
3 25 19 18
3 26 21 54
3 54 21 55
3 21 57 55
3 26 54 28
3 22 57 21
3 60 29 27
3 27 29 30
3 28 33 32
3 60 35 29
3 29 36 30
3 30 36 31
3 68 35 60
3 31 36 37
3 31 37 65
3 32 38 28
3 29 35 39
3 29 39 36
3 36 39 40
3 36 40 37
3 34 41 67
3 32 45 38
3 45 42 38
3 43 35 68
3 35 43 39
3 65 37 44
3 67 41 46
3 37 40 44
3 24 46 41
3 47 39 43
3 39 47 48
3 39 48 40
3 40 48 44
3 50 42 45
3 45 49 50
3 49 53 50
3 52 46 24
3 51 52 24
3 51 77 52
3 53 76 25
3 77 51 19
3 76 79 25
3 25 79 19
3 77 19 79
3 80 57 84
3 81 27 56
3 27 30 56
3 55 58 54
3 57 80 55
3 57 22 59
3 57 59 84
3 27 81 60
3 30 31 61
3 54 63 28
3 58 63 54
3 62 61 64
3 63 33 28
3 34 59 22
3 65 61 31
3 61 65 64
3 33 63 66
3 67 59 34
3 59 67 89
3 92 68 60
3 33 69 32
3 33 66 69
3 66 72 69
3 89 67 98
3 64 65 70
3 64 70 93
3 32 69 45
3 101 43 68
3 44 71 65
3 65 71 70
3 93 70 102
3 67 46 98
3 45 69 49
3 69 72 49
3 73 71 44
3 71 73 70
3 72 75 49
3 70 73 74
3 70 74 102
3 49 75 53
3 47 43 105
3 106 73 48
3 73 44 48
3 106 74 73
3 53 75 76
3 75 79 76
3 105 109 47
3 109 78 47
3 48 47 78
3 113 77 79
3 77 110 52
3 77 113 110
3 56 116 81
3 116 56 82
3 85 80 84
3 82 56 30
3 30 61 82
3 82 61 83
3 83 61 62
3 83 62 119
3 119 62 87
3 55 85 86
3 55 80 85
3 84 117 85
3 84 59 117
3 122 60 81
3 58 55 86
3 122 92 60
3 64 87 62
3 87 90 88
3 88 90 91
3 88 91 94
3 93 87 64
3 87 93 90
3 63 58 66
3 58 95 66
3 58 86 95
3 94 91 96
3 95 97 66
3 90 93 99
3 90 99 91
3 91 99 100
3 91 100 96
3 66 97 72
3 93 102 99
3 96 100 104
3 72 97 75
3 97 135 75
3 136 105 43
3 99 102 107
3 99 107 100
3 100 107 108
3 100 108 104
3 74 107 102
3 75 135 79
3 48 78 111
3 106 48 111
3 106 111 112
3 107 74 112
3 74 106 112
3 79 114 113
3 79 135 114
3 115 110 114
3 115 52 110
3 105 78 109
3 139 78 105
3 139 111 78
3 114 110 113
3 118 116 82
3 81 116 122
3 82 83 118
3 83 123 118
3 120 123 119
3 83 119 123
3 119 87 120
3 120 87 121
3 142 121 88
3 121 87 88
3 142 88 124
3 86 85 117
3 94 124 88
3 124 94 125
3 126 125 127
3 94 96 125
3 128 125 96
3 125 128 127
3 127 128 129
3 130 95 86
3 97 95 130
3 129 128 131
3 132 128 96
3 104 132 96
3 128 132 131
3 131 132 133
3 134 97 130
3 43 103 136
3 135 97 134
3 108 132 104
3 132 137 133
3 108 137 132
3 139 154 111
3 154 138 111
3 155 112 138
3 138 112 111
3 107 112 155
3 140 107 155
3 107 140 141
3 107 141 108
3 108 141 137
3 114 135 115
3 161 52 115
3 161 115 162
3 122 116 164
3 164 116 118
3 120 145 123
3 120 121 145
3 121 146 145
3 121 142 146
3 146 142 143
3 143 142 124
3 143 124 144
3 144 125 147
3 163 168 117
3 168 86 117
3 163 117 59
3 148 164 118
3 149 118 123
3 123 145 149
3 125 144 124
3 126 147 125
3 118 150 148
3 118 149 150
3 145 170 149
3 168 172 86
3 172 130 86
3 178 68 92
3 172 180 130
3 181 148 150
3 151 181 150
3 150 149 151
3 149 152 151
3 180 134 130
3 152 138 151
3 180 187 134
3 153 181 151
3 153 151 154
3 151 138 154
3 187 192 134
3 193 105 136
3 154 191 153
3 138 156 155
3 158 133 137
3 159 133 158
3 159 190 133
3 192 135 134
3 193 191 105
3 105 191 139
3 154 139 191
3 155 156 140
3 156 157 140
3 157 141 140
3 141 157 160
3 137 141 160
3 137 160 158
3 192 115 135
3 197 122 198
3 122 164 198
3 166 146 143
3 143 144 199
3 166 143 199
3 199 144 200
3 165 200 147
3 144 147 200
3 165 147 167
3 198 164 148
3 146 169 145
3 166 169 146
3 126 167 147
3 167 126 171
3 204 163 59
3 145 169 170
3 173 172 168
3 204 59 177
3 177 59 89
3 206 198 148
3 174 171 126
3 127 174 126
3 171 174 175
3 175 176 173
3 173 176 172
3 169 179 170
3 169 208 179
3 129 174 127
3 172 176 180
3 206 148 181
3 152 149 170
3 177 89 98
3 182 152 170
3 170 179 182
3 131 174 129
3 175 174 183
3 175 183 176
3 176 183 180
3 206 181 211
3 184 174 131
3 174 184 183
3 138 152 182
3 179 185 182
3 133 184 131
3 183 186 180
3 180 186 188
3 180 188 187
3 214 98 46
3 211 181 153
3 179 189 185
3 190 184 133
3 183 184 190
3 211 153 191
3 156 138 182
3 185 157 182
3 185 189 157
3 187 188 192
3 217 193 136
3 211 191 216
3 157 156 182
3 189 194 157
3 159 195 190
3 217 216 193
3 193 216 191
3 160 157 194
3 194 215 160
3 160 215 158
3 215 196 158
3 158 196 159
3 159 196 195
3 192 162 115
3 202 199 200
3 200 221 202
3 200 165 221
3 165 167 221
3 203 221 167
3 201 168 163
3 202 224 199
3 171 203 167
3 203 171 205
3 203 205 201
3 201 205 173
3 168 201 173
3 197 92 122
3 197 198 223
3 199 224 207
3 206 223 198
3 169 166 208
3 166 209 208
3 166 199 209
3 199 207 209
3 205 171 175
3 205 175 173
3 207 210 209
3 178 101 68
3 228 223 206
3 214 177 98
3 211 228 206
3 189 179 208
3 208 209 189
3 209 212 189
3 209 210 212
3 210 213 212
3 103 43 101
3 229 228 211
3 213 215 212
3 183 190 186
3 217 229 216
3 229 211 216
3 214 46 52
3 217 136 103
3 212 194 189
3 194 212 215
3 195 219 190
3 190 219 186
3 186 219 220
3 186 220 188
3 188 220 192
3 196 215 218
3 218 233 196
3 196 233 195
3 195 233 234
3 195 234 219
3 220 162 192
3 221 203 235
3 235 203 236
3 203 201 236
3 201 163 236
3 163 204 236
3 202 221 224
3 221 225 224
3 221 235 225
3 92 197 222
3 223 222 197
3 225 226 224
3 222 227 92
3 210 224 240
3 210 207 224
3 240 224 226
3 227 178 92
3 241 222 223
3 228 241 223
3 101 178 227
3 103 101 227
3 229 241 228
3 210 240 213
3 227 230 103
3 230 241 229
3 213 240 231
3 215 213 231
3 232 233 231
3 232 242 233
3 217 230 229
3 218 215 231
3 161 214 52
3 230 217 103
3 218 231 233
3 242 234 233
3 242 246 234
3 246 219 234
3 219 246 220
3 246 245 220
3 162 220 245
3 245 161 162
3 235 237 225
3 235 236 237
3 236 238 237
3 204 238 236
3 225 237 239
3 204 177 238
3 226 225 239
3 241 227 222
3 239 248 226
3 238 177 250
3 250 177 214
3 226 232 240
3 226 248 232
3 241 230 227
3 232 231 240
3 232 248 242
3 244 250 214
3 244 245 243
3 244 161 245
3 214 161 244
3 242 243 246
3 243 245 246
3 247 237 238
3 239 237 248
3 237 249 248
3 237 247 249
3 238 250 247
3 247 244 249
3 247 250 244
3 249 251 248
3 249 244 251
3 248 251 242
3 251 243 242
3 244 243 251
