ply
format ascii 1.0
element vertex 252
property float x
property float y
property float z
element face 500
property list uchar int vertex_indices
end_header
-0.665698 -0.173637 -0.978049
-0.655431 -0.183841 -0.902220
-0.702220 -0.094405 -0.980949
-0.705913 -0.064653 -0.891967
-0.632145 -0.125010 -1.027848
-0.653877 -0.120634 -0.810311
-0.676390 0.002764 -0.815403
-0.701356 0.000370 -1.059449
-0.714668 0.048762 -0.978975
-0.701571 0.088033 -0.894924
-0.666542 0.115905 -1.025265
-0.675385 0.112629 -0.840151
-0.659083 0.187581 -0.956660
-0.630445 0.195096 -0.866570
-0.609257 -0.227163 -0.953363
-0.550844 -0.222572 -0.777198
-0.555782 -0.061386 -0.642442
-0.656459 0.008621 -1.076651
-0.552356 0.124269 -0.669822
-0.559812 -0.253376 -0.899928
-0.463327 -0.275808 -0.818160
-0.530179 -0.153390 -0.644161
-0.492232 -0.134090 -0.582356
-0.503755 -0.009343 -0.569324
-0.347316 -0.031456 -1.067241
-0.342820 0.041795 -1.069939
-0.481366 0.152487 -0.584329
-0.376194 0.134808 -1.030921
-0.590455 0.228459 -0.974493
-0.500602 0.204565 -0.673584
-0.574595 0.252520 -0.932015
-0.447573 0.283770 -0.817265
-0.413730 -0.271859 -0.900869
-0.478279 -0.240684 -0.969254
-0.427443 -0.267268 -0.729134
-0.433315 -0.217179 -0.602923
-0.356052 -0.189370 -0.462452
-0.443052 0.065477 -0.491996
-0.446046 0.255838 -0.950411
-0.431297 0.226111 -0.603149
-0.420393 0.290931 -0.876807
-0.417654 0.271886 -0.722523
-0.387208 -0.279955 -0.805114
-0.324056 -0.259310 -0.646126
-0.351433 -0.249587 -0.565675
-0.321043 -0.225171 -0.473006
-0.344860 -0.142980 -1.029873
-0.303171 -0.122923 -0.351624
-0.314810 -0.009104 -0.324789
-0.317543 0.222416 -0.464041
-0.325484 0.259215 -0.588180
-0.366371 0.284570 -0.808845
-0.338506 -0.222898 -0.970789
-0.295342 -0.232691 -0.887351
-0.248309 -0.226153 -0.691525
-0.189544 -0.253832 -0.438616
-0.256440 -0.149272 -0.968143
-0.274869 -0.047469 -1.038870
-0.282112 0.037315 -1.045708
-0.298757 0.120609 -0.343697
-0.258245 0.138956 -0.975136
-0.321428 0.217205 -0.961130
-0.356279 0.271024 -0.903457
-0.256406 0.230561 -0.677370
-0.188234 0.255453 -0.431019
-0.145696 -0.226297 -0.505668
-0.203518 -0.230626 -0.338175
-0.229671 -0.172467 -0.884001
-0.174073 -0.212637 -0.269641
-0.164796 -0.151757 0.657663
-0.167447 -0.145276 -0.661369
-0.208415 -0.079247 -0.196840
-0.221437 -0.077304 0.654561
-0.216623 0.017064 -0.974986
-0.236507 0.011836 -0.218189
-0.215973 0.055729 0.664598
-0.172106 0.133269 -0.186610
-0.213334 0.124376 -0.866096
-0.183782 0.150758 -0.660656
-0.200587 0.215145 -0.307381
-0.169252 0.140241 0.670204
-0.282468 0.223282 -0.898061
-0.151431 0.226414 -0.510986
-0.237654 0.255116 -0.542339
-0.180095 -0.250383 -0.489768
-0.146636 -0.257058 -0.325220
-0.056362 -0.178646 -0.064611
-0.102707 -0.191237 0.502321
-0.129746 -0.197612 0.591500
-0.194837 -0.071998 -0.891553
-0.075736 -0.120793 -0.044113
-0.162163 -0.079273 0.508615
-0.192406 -0.116520 0.595676
-0.207949 -0.072800 0.684989
-0.151952 -0.008245 -0.694039
-0.129289 -0.001166 -0.087573
-0.206124 0.007015 0.576982
-0.188478 0.029148 -0.906298
-0.140166 0.114471 0.479921
-0.153013 0.048846 0.700206
-0.153147 0.082570 -0.655899
-0.080070 0.131495 -0.057612
-0.146188 0.186346 0.584511
-0.102666 0.218235 0.522352
-0.089579 0.221080 -0.153987
-0.098330 0.265530 -0.260588
-0.094780 -0.254583 -0.384470
-0.079592 -0.274539 -0.294980
0.086278 -0.262710 -0.023762
-0.050534 -0.242474 0.564094
-0.022877 -0.204684 -0.420395
-0.067045 -0.128247 -0.522939
-0.017087 -0.200087 0.440911
-0.059030 -0.110484 0.402191
-0.069965 -0.031698 -0.559057
-0.105990 0.011739 0.410761
-0.070265 0.151404 -0.515083
-0.057931 0.159489 0.685416
-0.085605 0.173875 -0.090545
-0.001962 0.217717 -0.388185
-0.050189 0.193984 0.444733
-0.109643 0.253332 -0.418317
-0.056614 0.275560 -0.270359
-0.024498 0.251486 0.579297
0.023072 -0.250107 0.496787
-0.015106 -0.222094 0.643275
0.033882 -0.198037 0.043472
0.062345 -0.214539 0.445281
0.053951 -0.152423 0.118963
-0.054131 -0.135926 0.700859
-0.017395 -0.054140 0.058620
0.008631 -0.032074 0.119110
-0.016940 -0.035163 0.365356
0.039367 0.010979 -0.446692
0.011849 0.077952 0.098539
-0.031180 0.087558 0.389853
-0.015576 0.084594 0.049750
0.009823 0.170046 0.034110
0.070302 0.164753 0.118028
-0.048258 0.214932 0.639112
0.044652 0.200001 0.432896
0.021397 0.253642 0.509496
0.103048 0.264231 -0.010850
0.135427 -0.246852 0.535712
0.109698 -0.239133 0.084180
0.196553 -0.145234 -0.248811
0.081029 -0.108812 0.388300
0.152164 -0.182396 0.179304
0.078034 -0.063338 -0.403566
0.120356 -0.067718 0.221586
0.043581 0.000660 0.164048
0.636150 0.010547 0.705451
0.092745 0.009396 0.365976
0.119445 0.050714 0.223449
0.111655 0.104513 0.395752
0.220616 0.142677 -0.221771
0.165316 0.171688 0.196904
0.598141 0.207616 0.646397
0.190709 0.257807 -0.126854
0.140639 0.252570 0.523018
0.549419 0.249338 0.585595
0.141641 0.270659 0.556727
0.191537 -0.274693 -0.035395
0.257196 -0.212142 -0.107580
0.192004 -0.257474 0.119224
0.129356 -0.188285 0.449668
0.578512 -0.201513 0.654497
0.217540 -0.071453 0.402185
0.198181 0.042184 0.393374
0.115178 0.201668 0.449841
0.253498 0.218551 -0.103194
0.211025 0.270032 -0.052682
0.179419 0.256794 0.108534
0.229762 -0.275283 0.069490
0.287734 -0.255041 0.023859
0.211553 -0.201250 0.493545
0.209210 -0.079653 0.278838
0.285927 -0.164084 0.288492
0.201782 -0.004496 0.289530
0.253413 -0.067474 0.343178
0.251732 0.062415 0.353503
0.200013 0.086536 0.272662
0.264014 0.061915 -0.204594
0.572356 0.124213 0.701616
0.273232 0.165094 0.279593
0.206841 0.203096 0.492947
0.231954 0.275121 0.064850
0.285141 0.243518 -0.009244
0.266635 -0.259422 0.564501
0.307454 -0.247646 0.182838
0.325785 -0.259300 0.107099
0.266645 -0.231293 0.518614
0.354977 -0.262686 0.528885
0.321748 -0.182415 -0.049562
0.363955 -0.218534 0.060588
0.360271 -0.242225 0.251321
0.347321 -0.215858 0.339348
0.329712 -0.211742 0.439829
0.302031 -0.167534 -0.107727
0.302490 -0.153623 0.359226
0.271718 -0.140067 0.419378
0.324759 -0.071750 -0.116031
0.364819 -0.101619 -0.045321
0.605954 -0.126507 0.706990
0.328784 0.068306 -0.112840
0.344417 0.161461 -0.037236
0.272597 0.141712 0.420231
0.302915 0.157436 0.351005
0.342459 0.226727 0.428859
0.350216 0.228739 0.045971
0.269961 0.241779 0.179390
0.353197 0.237364 0.253644
0.279396 0.227886 0.511578
0.324584 0.255778 0.122727
0.271008 0.254959 0.549025
0.352969 0.264961 0.523616
0.431863 -0.279622 0.474769
0.417459 -0.254685 0.217570
0.458817 -0.277499 0.558642
0.376818 -0.038641 -0.056856
0.381543 0.050213 -0.051028
0.578115 0.110928 0.170551
0.420195 0.257312 0.213439
0.434332 0.284302 0.478714
0.412011 -0.264610 0.295381
0.572590 0.191141 0.228922
0.418181 0.267071 0.296663
0.464036 0.285598 0.535568
0.518265 -0.281456 0.386006
0.512541 -0.294012 0.491855
0.584035 -0.271077 0.471307
0.551182 -0.284306 0.524688
0.641819 -0.195709 0.338216
0.601512 -0.173231 0.245788
0.577537 -0.118357 0.184658
0.514845 0.265714 0.332722
0.525736 0.285534 0.474037
0.569404 0.271982 0.526773
0.593732 -0.251494 0.577385
0.645144 -0.211639 0.573151
0.675788 -0.130780 0.294224
0.666702 -0.003778 0.254762
0.683890 0.140921 0.290705
0.663287 0.194394 0.358776
0.660745 0.201002 0.600255
0.659145 -0.138255 0.659404
0.701665 -0.111982 0.362497
0.705858 -0.003886 0.622688
0.713236 -0.003856 0.330661
0.706856 0.126278 0.348419
0.699775 0.101413 0.653966
0.662724 0.153863 0.672814
3 2 0 4
3 0 2 1
3 1 2 3
3 1 3 5
3 5 3 6
3 7 4 17
3 4 7 2
3 2 7 8
3 2 8 3
3 3 8 9
3 3 9 6
3 10 7 17
3 7 10 8
3 6 9 11
3 12 8 10
3 8 12 9
3 9 12 13
3 9 13 11
3 14 1 19
3 19 1 15
3 14 4 0
3 1 14 0
3 1 5 15
3 15 5 21
3 5 16 21
3 24 17 4
3 6 16 5
3 24 25 17
3 18 16 6
3 11 18 6
3 27 10 17
3 28 12 10
3 11 13 18
3 12 30 13
3 28 30 12
3 33 19 32
3 19 20 32
3 19 33 14
3 19 15 20
3 33 4 14
3 21 16 22
3 22 16 23
3 16 18 23
3 23 18 26
3 23 26 37
3 25 27 17
3 27 28 10
3 13 29 18
3 29 26 18
3 38 30 28
3 13 30 31
3 13 31 29
3 38 40 30
3 40 31 30
3 15 34 20
3 34 15 35
3 15 21 35
3 35 21 22
3 35 22 36
3 26 29 39
3 26 39 49
3 27 38 28
3 31 41 29
3 39 29 41
3 20 42 32
3 42 20 34
3 42 34 43
3 43 34 35
3 32 52 33
3 44 43 35
3 44 35 45
3 52 46 33
3 36 45 35
3 46 4 33
3 4 46 24
3 47 36 22
3 23 47 22
3 48 47 23
3 37 48 23
3 61 38 27
3 38 61 62
3 50 39 41
3 39 50 49
3 62 40 38
3 51 40 62
3 31 51 41
3 41 51 50
3 51 31 40
3 42 53 32
3 55 43 44
3 52 32 53
3 42 43 53
3 53 43 54
3 55 44 45
3 46 52 56
3 52 53 56
3 46 57 24
3 57 46 56
3 47 48 71
3 58 24 57
3 25 24 58
3 71 48 74
3 27 25 58
3 58 60 27
3 59 48 37
3 48 59 74
3 26 59 37
3 26 49 59
3 61 27 60
3 60 81 61
3 61 81 62
3 81 63 51
3 62 81 51
3 49 50 64
3 50 51 63
3 83 50 63
3 50 83 64
3 43 55 84
3 43 65 54
3 43 84 65
3 66 55 45
3 56 53 67
3 53 54 67
3 65 70 54
3 36 66 45
3 67 54 70
3 47 66 36
3 66 47 68
3 68 47 71
3 72 69 92
3 69 72 93
3 89 56 67
3 89 67 70
3 57 56 73
3 56 89 73
3 96 72 92
3 89 97 73
3 58 57 73
3 75 72 96
3 93 75 99
3 72 75 93
3 97 77 73
3 60 58 73
3 73 77 60
3 74 59 76
3 99 75 80
3 77 100 78
3 76 59 79
3 81 60 77
3 78 63 77
3 78 82 63
3 79 59 49
3 63 81 77
3 63 82 83
3 49 64 79
3 106 85 107
3 55 85 106
3 106 65 55
3 65 84 55
3 66 85 55
3 66 68 85
3 111 70 65
3 86 68 71
3 86 71 90
3 87 91 88
3 88 91 92
3 69 88 92
3 94 70 111
3 113 91 87
3 70 94 89
3 111 114 94
3 95 90 71
3 92 91 96
3 74 95 71
3 115 91 113
3 89 94 97
3 114 100 94
3 98 91 115
3 91 98 96
3 76 95 74
3 97 94 77
3 94 100 77
3 101 95 76
3 96 98 102
3 96 102 75
3 117 99 80
3 78 100 116
3 82 78 116
3 76 118 101
3 98 103 102
3 75 102 80
3 76 79 104
3 76 104 118
3 83 82 64
3 82 121 64
3 105 79 64
3 104 79 105
3 64 122 105
3 121 122 64
3 108 107 85
3 65 106 110
3 108 85 68
3 108 68 86
3 112 87 109
3 87 88 109
3 109 88 125
3 125 88 69
3 111 65 110
3 112 113 87
3 125 69 129
3 129 69 93
3 115 113 132
3 129 93 99
3 114 133 100
3 135 115 132
3 130 95 136
3 100 133 116
3 95 101 136
3 98 115 135
3 116 119 82
3 120 98 135
3 98 120 103
3 139 117 80
3 102 139 80
3 121 82 119
3 120 141 103
3 123 103 141
3 123 102 103
3 102 123 139
3 109 143 124
3 109 125 143
3 108 86 126
3 124 127 112
3 124 112 109
3 127 146 112
3 90 126 86
3 146 113 112
3 130 126 90
3 126 130 128
3 111 148 114
3 95 130 90
3 128 130 131
3 128 131 150
3 146 132 113
3 148 133 114
3 151 129 99
3 131 130 134
3 131 134 150
3 152 135 132
3 130 136 134
3 152 154 135
3 150 134 138
3 154 140 135
3 137 136 101
3 118 137 101
3 136 137 134
3 134 137 138
3 140 120 135
3 157 117 139
3 118 104 137
3 119 158 121
3 104 105 142
3 104 142 137
3 140 141 120
3 160 139 123
3 158 122 121
3 105 122 142
3 141 161 123
3 160 123 161
3 106 107 162
3 107 108 162
3 110 106 163
3 126 144 108
3 127 143 165
3 127 124 143
3 110 163 145
3 128 144 126
3 128 147 144
3 165 146 127
3 111 110 145
3 111 145 148
3 149 147 128
3 150 149 128
3 149 150 153
3 146 152 132
3 138 153 150
3 156 153 138
3 119 116 155
3 154 169 140
3 155 170 119
3 138 137 142
3 119 170 158
3 140 159 141
3 140 169 159
3 158 171 122
3 122 171 142
3 161 141 159
3 163 106 162
3 162 108 173
3 108 144 173
3 164 173 144
3 144 147 164
3 143 175 165
3 167 146 165
3 165 175 167
3 176 147 149
3 176 149 178
3 178 149 153
3 167 168 146
3 168 152 146
3 154 152 168
3 133 182 116
3 178 153 181
3 183 99 117
3 116 182 155
3 181 153 156
3 168 185 154
3 183 117 157
3 154 185 169
3 138 142 172
3 172 156 138
3 185 159 169
3 171 186 142
3 142 186 172
3 174 162 173
3 164 189 173
3 143 125 188
3 163 162 174
3 147 189 164
3 189 147 177
3 191 175 143
3 188 191 143
3 163 198 145
3 176 177 147
3 191 200 175
3 200 167 175
3 166 125 129
3 177 176 179
3 145 201 148
3 179 167 200
3 176 178 179
3 179 178 180
3 168 167 180
3 180 167 179
3 203 129 151
3 201 182 133
3 148 201 133
3 178 181 180
3 206 168 180
3 181 184 180
3 168 206 185
3 184 181 156
3 206 212 185
3 170 171 158
3 170 187 171
3 210 156 172
3 156 210 184
3 185 212 214
3 159 185 214
3 186 171 187
3 210 172 186
3 214 161 159
3 214 160 161
3 173 190 174
3 190 173 189
3 125 218 188
3 174 193 163
3 194 193 174
3 174 190 194
3 189 177 195
3 192 197 191
3 192 191 188
3 218 125 166
3 163 193 198
3 194 202 193
3 195 177 196
3 196 177 199
3 196 199 197
3 197 199 200
3 191 197 200
3 198 201 145
3 198 193 201
3 193 202 201
3 179 199 177
3 199 179 200
3 201 204 182
3 183 151 99
3 180 207 206
3 182 204 155
3 184 207 180
3 170 155 204
3 204 205 170
3 206 207 208
3 170 205 187
3 205 209 187
3 184 211 207
3 207 211 208
3 206 208 212
3 209 213 187
3 211 210 213
3 210 211 184
3 208 215 212
3 212 215 214
3 213 186 187
3 213 210 186
3 189 217 190
3 217 195 224
3 195 196 224
3 196 216 224
3 216 192 218
3 218 192 188
3 190 217 194
3 189 195 217
3 197 216 196
3 216 197 192
3 166 129 203
3 219 201 202
3 201 219 204
3 219 220 204
3 205 204 220
3 205 220 221
3 221 225 205
3 209 222 213
3 157 139 160
3 222 211 213
3 222 226 211
3 211 226 208
3 226 223 208
3 223 215 208
3 223 227 215
3 215 227 214
3 227 160 214
3 216 229 228
3 217 224 228
3 216 228 224
3 229 216 218
3 202 194 234
3 202 234 219
3 225 209 205
3 222 235 226
3 235 223 226
3 235 236 223
3 227 223 236
3 229 230 228
3 231 230 229
3 228 232 217
3 228 230 232
3 231 229 218
3 231 218 238
3 217 233 194
3 217 232 233
3 238 218 166
3 234 194 233
3 234 241 219
3 219 241 220
3 220 241 221
3 225 222 209
3 225 235 222
3 227 237 160
3 237 227 236
3 238 230 231
3 230 239 232
3 230 238 239
3 238 166 239
3 233 232 240
3 239 166 245
3 233 240 234
3 245 166 203
3 240 241 234
3 245 203 151
3 241 242 221
3 221 242 225
3 151 183 251
3 251 183 157
3 242 243 225
3 157 244 251
3 243 235 225
3 244 160 243
3 157 160 244
3 243 236 235
3 237 236 243
3 160 237 243
3 246 240 232
3 232 239 246
3 239 245 246
3 245 247 246
3 240 246 241
3 246 248 241
3 246 247 248
3 245 151 247
3 242 241 249
3 241 248 249
3 248 247 249
3 247 250 249
3 247 151 250
3 151 251 250
3 243 242 249
3 250 244 249
3 250 251 244
3 244 243 249
