ply
format ascii 1.0
element vertex 252
property float x
property float y
property float z
element face 500
property list uchar int vertex_indices
end_header
-0.565855 -0.185782 -0.785181
-0.544781 -0.164253 -0.529815
-0.539494 -0.173144 -0.099435
-0.561704 -0.189273 0.371643
-0.623903 -0.065354 -0.817192
-0.613782 -0.070804 0.317011
-0.565019 -0.136794 0.464180
-0.594569 -0.014249 -0.508702
-0.608170 0.030870 -0.132079
-0.594878 -0.001784 0.434841
-0.611798 0.100874 -0.789634
-0.632770 0.070644 -0.060760
-0.571424 0.166223 0.323521
-0.546465 0.167515 -0.537179
-0.582551 0.135942 0.417872
-0.557054 0.174989 -0.133262
-0.447779 -0.282634 -0.591804
-0.440244 -0.293456 0.307082
-0.486208 -0.189647 -0.822750
-0.493451 -0.095356 -0.408949
-0.497650 -0.160640 -0.208604
-0.595003 -0.095029 -0.864464
-0.510251 -0.114271 0.555979
-0.512497 -0.043819 -0.220332
-0.550778 -0.054078 0.521266
-0.522024 -0.032333 0.571323
-0.564280 0.023856 -0.868397
-0.528278 0.048973 -0.418405
-0.522962 0.137357 -0.200053
-0.481254 0.137741 0.565980
-0.522959 0.166953 0.487080
-0.408378 0.183806 -0.443596
-0.534307 0.179991 -0.814718
-0.556141 0.217317 -0.755782
-0.430174 0.310980 -0.643747
-0.472692 0.274219 -0.022817
-0.498512 0.283309 0.243716
-0.430258 -0.299255 -0.692570
-0.429810 -0.300196 -0.002773
-0.451864 -0.203096 0.532720
-0.539257 -0.076609 -0.884505
-0.479271 0.009058 0.612878
-0.450851 0.284980 0.355985
-0.444236 0.229558 0.528720
-0.436645 0.283851 -0.731131
-0.439676 0.291834 -0.568045
-0.433195 0.225514 -0.164432
-0.449242 -0.220295 -0.172955
-0.253444 -0.294261 0.568905
-0.390280 -0.208009 -0.441507
-0.402436 -0.060830 0.674499
-0.376299 -0.117033 -0.365861
-0.332077 -0.096464 -0.285799
-0.389616 -0.079677 0.683586
-0.345503 -0.000537 -0.318145
-0.387150 0.068493 -0.255535
-0.422608 0.090100 0.639447
-0.307379 0.102208 -0.860180
-0.253447 0.192594 -0.798565
-0.408930 0.318900 0.111939
-0.251218 0.310487 0.551796
-0.344362 -0.293883 -0.713906
-0.292506 -0.311848 -0.582572
-0.349266 -0.308509 -0.062675
-0.328090 -0.305483 0.093740
-0.347464 -0.310180 0.286889
-0.276297 -0.243184 -0.197217
-0.274827 -0.248743 0.216151
-0.259951 -0.264857 0.303018
-0.362823 -0.230898 0.593502
-0.240580 -0.198456 -0.790065
-0.142148 -0.189981 0.830232
-0.301400 -0.139181 -0.349369
-0.335852 0.009376 -0.295110
-0.296467 -0.039662 -0.863963
-0.289762 0.130997 -0.327454
-0.302374 0.096666 -0.291487
-0.275010 0.211036 -0.221861
-0.346953 0.211004 0.625537
-0.261960 0.221976 -0.412028
-0.295162 0.322055 -0.607638
-0.241742 0.234080 0.179594
-0.214062 0.216047 0.300417
-0.321161 0.315097 -0.680433
-0.306489 0.313105 -0.028158
-0.338096 0.309828 0.095167
-0.340721 0.298485 0.302632
-0.234128 -0.317663 -0.010913
-0.151356 -0.270378 -0.706430
-0.142143 -0.329659 -0.497130
-0.231816 -0.258770 -0.429999
-0.173547 -0.258001 -0.256723
-0.053282 -0.197504 0.405510
-0.214385 -0.210635 -0.343659
-0.187965 -0.133600 0.250158
-0.090094 -0.143410 0.869543
-0.087048 0.002264 0.854947
-0.118291 0.123024 0.826858
-0.194755 0.243716 -0.256301
-0.101099 0.209607 0.816700
-0.181019 0.262551 -0.392518
-0.142219 0.274369 -0.706099
-0.196957 0.302173 -0.508499
-0.196848 0.303662 -0.132568
-0.230513 0.287790 0.058211
-0.168362 0.327674 0.538059
-0.111832 -0.326568 -0.594727
-0.153682 -0.322394 -0.117459
-0.123788 -0.305931 0.510553
-0.120222 -0.303770 -0.365942
-0.151154 -0.220842 0.125768
-0.098630 -0.179770 -0.780896
-0.191681 -0.143071 0.192184
-0.119248 -0.075023 -0.823549
-0.139064 0.034064 0.206646
-0.193684 0.043894 -0.852104
-0.107950 0.063005 -0.824288
-0.134362 0.049710 0.272469
-0.084896 0.219492 0.110508
-0.090315 0.309193 0.534099
-0.078032 0.340342 -0.153037
-0.088386 0.337293 -0.579284
-0.102463 0.326121 -0.049104
0.016671 -0.372654 -0.198976
-0.074182 -0.329727 -0.045860
-0.111953 -0.094538 0.173531
-0.045753 -0.040032 0.343817
-0.034524 0.083472 0.358207
-0.097080 0.179133 -0.778749
-0.055370 0.192222 0.398229
-0.052664 0.287883 0.732164
-0.019787 0.226509 0.821899
-0.092691 0.316802 -0.334523
-0.068943 0.346769 -0.483424
0.053143 -0.357439 -0.508863
0.059901 -0.389533 -0.354475
-0.007629 -0.366115 -0.122374
0.034406 -0.311847 0.651220
0.119901 -0.278690 -0.654931
0.076031 -0.260482 0.530068
-0.030346 -0.223954 0.824525
0.158921 -0.201374 -0.729945
0.282650 -0.115244 0.139911
0.181888 0.007246 -0.788772
0.253101 -0.005274 0.171331
0.183751 0.090774 -0.777818
0.273584 0.100992 0.152795
0.177676 0.189596 -0.731223
0.251701 0.207867 0.101564
0.127868 0.309560 0.000140
0.115127 0.227082 0.509578
-0.004875 0.320743 0.645984
0.007477 0.362883 -0.120704
0.061130 0.383356 -0.444785
0.020263 0.380265 -0.335366
0.132485 -0.404302 -0.209906
0.117299 -0.375451 -0.130952
0.180784 -0.272661 0.042439
0.262072 -0.217630 0.093866
0.040434 -0.184561 0.435515
0.147495 -0.120515 0.446822
0.032808 -0.084863 0.393305
0.023969 0.032512 0.379490
0.105669 0.053529 0.422098
0.034117 0.149755 0.417013
0.659704 0.216324 0.804204
0.141358 0.294962 -0.626294
0.170378 0.385287 -0.216738
0.318632 -0.307910 0.713474
0.187709 -0.098245 -0.771367
0.661500 -0.177231 0.851683
0.713469 -0.094484 0.871606
0.328139 0.297211 0.720805
0.249434 0.375140 -0.388179
0.241303 -0.393260 -0.354863
0.200514 -0.414858 -0.290196
0.263251 -0.307134 0.657158
0.340038 -0.197577 0.536192
0.649044 -0.221378 0.815124
0.310132 -0.117844 -0.724476
0.754880 -0.001613 0.881543
0.719737 0.094532 0.871614
0.292638 0.060858 -0.744743
0.273930 0.300753 -0.016556
0.283470 0.289372 0.638487
0.382140 0.372617 -0.255258
0.374523 -0.357820 -0.228860
0.337623 -0.299544 -0.518529
0.423131 -0.272151 -0.060383
0.355226 -0.200511 -0.650573
0.350763 -0.072434 0.468611
0.329746 0.082456 0.468480
0.334938 0.202590 -0.658694
0.366129 0.199615 0.532265
0.354888 0.295871 -0.525735
0.448418 0.274767 -0.073820
0.379770 0.361614 -0.187256
0.478143 -0.269568 0.636855
0.369791 -0.197374 0.074599
0.527721 -0.224069 -0.487063
0.406598 -0.132251 -0.671414
0.390380 0.013196 0.133881
0.404952 0.112765 -0.679375
0.413040 0.156191 0.083478
0.527446 0.230103 -0.485545
0.464345 0.272492 0.649017
0.502809 -0.297564 -0.363575
0.583724 -0.274029 -0.264904
0.513117 -0.165044 0.545503
0.499892 -0.132351 0.032237
0.529368 -0.143456 -0.559274
0.418061 -0.043859 0.480964
0.445214 -0.001997 -0.659929
0.409620 0.107751 0.486692
0.529247 0.147787 -0.559221
0.494815 0.163398 0.040574
0.528397 0.183706 0.559136
0.646839 0.264589 0.724115
0.490586 0.306673 -0.361798
0.563749 -0.273789 -0.182921
0.646470 -0.202111 -0.336894
0.661035 -0.135384 -0.411979
0.619017 -0.190553 -0.102260
0.520611 0.002478 0.502695
0.680330 0.001509 -0.428231
0.530277 0.054017 0.045119
0.662794 0.132683 -0.423297
0.589147 0.172598 -0.067727
0.533344 0.289861 -0.230594
0.656779 -0.257697 0.726715
0.665478 -0.187496 -0.198561
0.715100 -0.189206 0.594391
0.666659 -0.101481 -0.103927
0.754705 -0.073109 0.543901
0.680992 0.065579 -0.153659
0.733544 0.078444 0.545845
0.654297 0.150301 -0.112716
0.644474 0.189901 -0.333121
0.645245 0.183155 -0.169962
0.714715 0.178489 0.600029
0.656119 0.250961 0.664364
0.680426 -0.254796 0.663476
0.738352 -0.207494 0.671003
0.724367 -0.180037 0.816915
0.716235 -0.075284 -0.280021
0.719033 0.046590 -0.344294
0.718901 0.226915 0.711160
0.778546 -0.086410 0.821331
0.785592 -0.093057 0.587276
0.787194 0.036773 0.827176
0.775510 0.075846 0.591555
0.752904 0.165407 0.802676
3 4 0 21
3 0 4 1
3 2 5 3
3 3 5 6
3 4 7 1
3 2 8 5
3 6 5 9
3 26 4 21
3 10 4 26
3 4 10 7
3 8 11 5
3 5 11 12
3 5 12 9
3 10 13 7
3 15 11 8
3 9 12 14
3 11 15 12
3 32 10 26
3 32 33 10
3 33 13 10
3 37 0 16
3 18 0 37
3 16 0 1
3 17 2 3
3 18 21 0
3 18 40 21
3 20 23 2
3 6 24 22
3 22 24 25
3 7 19 1
3 2 23 8
3 9 24 6
3 19 7 27
3 22 25 41
3 40 26 21
3 28 8 23
3 25 24 29
3 25 29 41
3 13 27 7
3 8 28 15
3 30 24 9
3 14 30 9
3 24 30 29
3 31 27 13
3 12 30 14
3 44 33 32
3 13 33 34
3 15 35 12
3 12 35 36
3 42 12 36
3 12 42 30
3 44 34 33
3 38 47 2
3 17 38 2
3 1 49 16
3 17 3 39
3 49 1 19
3 47 20 2
3 39 3 6
3 22 39 6
3 22 50 39
3 49 19 51
3 47 52 20
3 52 23 20
3 51 19 54
3 54 19 27
3 52 55 23
3 50 22 41
3 50 41 56
3 55 28 23
3 56 41 29
3 54 27 31
3 55 46 28
3 57 32 26
3 57 58 32
3 29 30 43
3 32 58 44
3 13 34 45
3 45 31 13
3 15 28 46
3 15 46 35
3 30 42 43
3 35 59 36
3 59 42 36
3 61 37 62
3 37 16 62
3 63 38 64
3 64 38 65
3 38 17 65
3 17 48 65
3 37 61 18
3 16 49 62
3 47 63 66
3 63 47 38
3 48 17 39
3 39 53 69
3 66 52 47
3 53 39 50
3 73 55 52
3 74 26 40
3 74 57 26
3 75 54 31
3 55 77 46
3 56 29 78
3 79 75 31
3 43 78 29
3 31 45 80
3 60 43 42
3 83 34 44
3 83 80 34
3 34 80 45
3 84 35 46
3 35 84 59
3 84 85 59
3 85 86 59
3 59 86 42
3 86 60 42
3 87 63 64
3 62 90 89
3 49 90 62
3 67 64 65
3 65 68 67
3 39 69 48
3 70 18 61
3 90 49 72
3 69 53 71
3 72 49 51
3 70 74 18
3 74 40 18
3 54 72 51
3 72 54 52
3 52 54 73
3 73 54 76
3 54 75 76
3 73 76 55
3 76 77 55
3 44 58 83
3 102 31 80
3 79 31 102
3 103 46 77
3 85 81 86
3 81 82 86
3 60 78 43
3 46 103 84
3 85 84 104
3 88 61 62
3 107 63 87
3 68 65 108
3 65 48 108
3 70 61 88
3 107 66 63
3 107 91 66
3 87 64 110
3 110 64 67
3 94 67 68
3 68 92 94
3 111 70 88
3 72 93 90
3 91 93 52
3 91 52 66
3 112 110 67
3 67 94 112
3 71 53 95
3 111 113 70
3 113 74 70
3 52 93 72
3 113 115 74
3 96 95 53
3 50 96 53
3 115 57 74
3 97 96 50
3 56 97 50
3 115 58 57
3 76 75 98
3 114 82 81
3 56 78 97
3 79 100 75
3 75 100 98
3 76 98 77
3 104 81 85
3 101 83 58
3 102 100 79
3 98 103 77
3 82 105 86
3 83 101 80
3 105 60 86
3 106 88 62
3 106 62 89
3 87 124 107
3 109 89 90
3 109 90 93
3 93 91 109
3 110 124 87
3 68 108 92
3 48 69 71
3 125 110 112
3 114 125 112
3 112 94 114
3 115 113 116
3 94 117 114
3 58 115 116
3 58 116 128
3 114 81 118
3 114 117 82
3 117 129 82
3 78 99 97
3 101 58 128
3 118 81 104
3 82 129 119
3 78 130 99
3 100 132 98
3 132 120 98
3 98 120 103
3 104 122 118
3 82 119 105
3 78 60 130
3 121 80 101
3 80 121 102
3 102 121 133
3 102 133 100
3 122 84 103
3 122 103 120
3 122 104 84
3 123 107 136
3 136 107 124
3 123 109 91
3 107 123 91
3 108 48 137
3 48 140 137
3 106 138 88
3 71 140 48
3 88 141 111
3 140 71 95
3 142 110 125
3 94 92 126
3 143 116 113
3 144 125 114
3 117 94 126
3 127 117 126
3 145 128 116
3 129 117 127
3 131 97 99
3 147 101 128
3 130 131 99
3 118 122 149
3 119 151 105
3 105 151 60
3 130 60 151
3 133 132 100
3 120 152 122
3 134 106 89
3 135 134 89
3 109 135 89
3 123 135 109
3 139 108 137
3 157 124 110
3 108 139 92
3 141 88 138
3 92 139 159
3 159 161 92
3 161 126 92
3 142 125 144
3 161 162 126
3 144 114 146
3 162 127 126
3 146 114 118
3 162 164 127
3 164 129 127
3 166 101 147
3 129 164 150
3 121 101 166
3 150 119 129
3 150 151 119
3 133 121 153
3 154 133 153
3 132 133 154
3 120 132 154
3 152 120 154
3 149 122 152
3 123 155 135
3 156 123 136
3 156 155 123
3 138 106 134
3 136 124 156
3 124 157 156
3 140 168 137
3 158 157 110
3 159 139 160
3 169 111 141
3 170 140 95
3 169 113 111
3 161 159 160
3 170 95 171
3 171 95 96
3 169 143 113
3 163 161 160
3 162 161 163
3 143 145 116
3 164 162 163
3 163 150 164
3 145 147 128
3 149 148 118
3 172 131 130
3 165 131 172
3 172 130 151
3 153 166 173
3 153 121 166
3 152 167 149
3 167 154 153
3 154 167 152
3 174 135 175
3 135 155 175
3 174 134 135
3 139 137 176
3 176 177 139
3 140 178 168
3 158 110 142
3 181 96 97
3 146 118 148
3 184 151 150
3 184 172 151
3 183 149 167
3 173 167 153
3 134 174 187
3 175 155 186
3 155 156 186
3 138 134 187
3 157 188 156
3 137 168 176
3 157 158 188
3 138 189 141
3 141 179 169
3 179 141 189
3 160 139 177
3 179 182 169
3 182 143 169
3 190 191 160
3 191 163 160
3 182 145 143
3 180 96 181
3 147 145 182
3 191 150 163
3 147 182 192
3 192 166 147
3 166 192 194
3 183 148 149
3 184 150 193
3 167 196 183
3 167 185 196
3 167 173 185
3 174 175 186
3 186 156 188
3 189 138 187
3 188 158 198
3 142 198 158
3 190 160 177
3 201 142 144
3 171 96 180
3 201 144 146
3 203 146 148
3 191 193 150
3 203 148 183
3 194 173 166
3 195 183 196
3 187 174 206
3 174 186 206
3 199 189 187
3 187 206 199
3 177 197 208
3 177 176 197
3 197 176 168
3 198 209 188
3 189 199 210
3 200 179 189
3 189 210 200
3 209 198 142
3 142 201 209
3 177 211 190
3 200 212 179
3 212 182 179
3 211 191 190
3 211 213 191
3 212 202 182
3 146 203 201
3 192 182 202
3 202 214 192
3 193 191 213
3 165 97 131
3 192 214 204
3 204 194 192
3 203 183 195
3 204 218 194
3 193 205 184
3 193 216 205
3 172 205 217
3 217 165 172
3 205 172 184
3 218 173 194
3 185 173 218
3 207 206 186
3 207 186 219
3 219 186 188
3 177 208 211
3 200 210 212
3 208 223 211
3 209 201 225
3 223 216 213
3 211 223 213
3 212 214 202
3 225 201 203
3 225 203 215
3 165 181 97
3 213 216 193
3 215 203 195
3 215 195 227
3 228 227 195
3 185 228 196
3 228 195 196
3 206 220 199
3 207 220 206
3 197 168 229
3 219 188 222
3 231 208 197
3 229 168 178
3 199 221 210
3 188 209 222
3 178 140 170
3 222 209 232
3 233 223 208
3 212 210 224
3 225 232 209
3 214 212 224
3 235 216 223
3 227 234 225
3 215 227 225
3 226 204 214
3 239 240 216
3 240 205 216
3 185 218 228
3 241 197 229
3 219 230 207
3 222 230 219
3 241 231 197
3 199 220 221
3 220 207 230
3 221 224 210
3 225 234 232
3 235 223 233
3 224 226 214
3 227 236 234
3 226 237 204
3 237 238 228
3 238 236 227
3 237 218 204
3 218 237 228
3 228 238 227
3 240 217 205
3 231 241 242
3 241 229 242
3 229 243 242
3 178 243 229
3 178 170 243
3 222 232 230
3 231 233 208
3 220 244 221
3 220 230 244
3 243 170 171
3 221 244 224
3 230 232 244
3 232 234 244
3 244 245 224
3 244 234 245
3 224 245 226
3 226 245 237
3 245 234 237
3 251 181 165
3 237 234 238
3 238 234 236
3 239 216 235
3 246 251 165
3 240 239 246
3 246 217 240
3 217 246 165
3 247 242 243
3 233 231 248
3 231 242 248
3 242 247 248
3 243 171 247
3 247 249 248
3 247 180 249
3 171 180 247
3 250 233 248
3 235 233 250
3 248 249 250
3 180 181 249
3 249 251 250
3 249 181 251
3 250 251 246
3 239 235 250
3 246 239 250
