ply
format ascii 1.0
element vertex 252
property float x
property float y
property float z
element face 500
property list uchar int vertex_indices
end_header
-0.786310 -0.099254 -0.989542
-0.722021 -0.118760 -1.029381
-0.747998 -0.078138 -0.894158
-0.781184 0.033894 -1.050767
-0.793098 0.030249 -0.968288
-0.736041 0.096556 -0.891919
-0.737678 0.149647 -0.976830
-0.729196 -0.176863 -0.962167
-0.649271 -0.195832 -0.861519
-0.725847 0.033966 -1.077968
-0.590254 -0.032377 -0.699293
-0.615374 0.032190 -0.724815
-0.724279 0.128313 -1.040692
-0.627286 0.214312 -0.879377
-0.596591 0.230983 -0.945766
-0.558448 -0.153280 0.434342
-0.614881 -0.011033 0.418114
-0.581270 -0.140431 0.484962
-0.562669 -0.107139 -0.702405
-0.588796 -0.045542 0.515079
-0.422556 -0.048352 -1.060267
-0.452827 0.020075 -1.083149
-0.567324 0.123144 0.503096
-0.435093 0.120322 -1.017125
-0.569473 0.147290 0.439287
-0.557149 -0.232709 -0.974919
-0.542393 -0.255626 -0.911939
-0.402316 -0.264526 -0.742793
-0.515273 -0.130532 0.539692
-0.560227 -0.038051 0.374495
-0.511900 0.042600 0.560741
-0.335902 -0.005555 -0.478906
-0.533943 0.081793 0.383343
-0.576683 0.128968 -0.724622
-0.510662 0.157452 0.535119
-0.570022 0.259006 -0.893726
-0.395806 0.263310 -0.737906
-0.446755 -0.203692 0.452564
-0.515934 -0.190445 0.489177
-0.433122 -0.148587 -1.030957
-0.283852 -0.197127 -0.552292
-0.390592 -0.167502 0.393775
-0.337849 -0.083440 -0.495571
-0.405637 -0.044823 0.578655
-0.344026 0.116741 -0.512156
-0.342904 0.217301 -0.600771
-0.466097 0.201388 0.459815
-0.513317 0.191856 0.490722
-0.469542 0.269260 -0.865806
-0.422346 -0.218805 -0.949332
-0.376281 -0.261074 -0.784562
-0.440389 -0.177675 0.520785
-0.276240 -0.015242 0.606417
-0.125123 0.003633 0.353035
-0.140510 0.133430 0.379947
-0.438194 0.162997 0.528672
-0.347403 0.110031 0.563966
-0.283370 0.213814 0.436729
-0.423295 0.238398 -0.912916
-0.324791 -0.191046 -0.874239
-0.271792 -0.211115 0.437960
-0.347578 -0.201401 0.502791
-0.349076 -0.122826 -0.986386
-0.237816 -0.158157 -0.796372
-0.262923 -0.163773 0.570641
-0.355742 -0.129892 0.565326
-0.242273 -0.092559 -0.844625
-0.138335 -0.068901 0.353501
-0.315328 -0.002340 -0.968894
-0.336030 0.121618 -0.959883
-0.240753 0.060190 -0.841176
-0.347593 0.194102 -0.905187
-0.254164 0.186211 -0.770399
-0.272019 0.185453 -0.509390
-0.344147 0.202107 0.502352
-0.265706 0.171966 0.556933
-0.339033 0.252839 -0.765126
-0.273037 -0.251509 -0.641526
-0.221077 -0.238681 -0.655950
-0.202220 -0.238463 -0.567504
-0.182014 -0.223506 0.513252
-0.212307 -0.108209 -0.417111
-0.218067 0.093758 -0.416386
-0.216716 0.242080 -0.632684
-0.251410 0.235159 -0.576444
-0.143266 0.217801 0.435435
-0.186387 0.232980 0.505768
-0.294210 0.253500 -0.648184
-0.157575 -0.220553 -0.485140
-0.123273 -0.189660 0.612156
0.017381 -0.167042 -0.541872
-0.128657 -0.209854 -0.415007
-0.083296 -0.195089 -0.330137
-0.154161 -0.097209 -0.333304
-0.136678 -0.069938 0.656736
-0.113227 -0.018262 -0.255738
-0.126908 0.021224 0.664336
-0.182117 0.031943 -0.353293
-0.124356 0.071357 -0.283390
-0.101430 0.068781 -0.679392
-0.088673 0.179288 -0.341006
0.024374 0.183664 -0.521233
-0.198833 0.208504 -0.498039
-0.116422 0.213319 -0.444293
-0.122773 0.179201 0.609708
-0.163364 0.232329 -0.527209
-0.086390 -0.237806 -0.507952
-0.047671 -0.246887 -0.404716
-0.057103 -0.199911 0.436088
-0.056553 -0.233547 0.583902
-0.045727 -0.103610 0.391640
-0.013906 -0.217168 0.622545
-0.011883 -0.099771 0.677739
-0.055366 -0.026219 -0.645695
0.039264 -0.118819 -0.099765
0.029236 0.212488 0.628012
-0.049689 0.233601 -0.482597
-0.041407 0.240818 -0.417403
0.043785 -0.243062 -0.433721
0.112722 -0.270664 -0.200693
0.024368 -0.200135 0.479820
0.049883 -0.239262 0.568671
0.059645 -0.095137 0.425545
-0.041609 0.035720 0.680939
0.143180 0.065751 0.044583
-0.045155 0.068600 0.377289
0.059391 0.070593 0.421339
0.105103 0.163549 -0.063818
-0.038701 0.161418 0.414856
0.029423 0.256351 -0.360167
0.020867 0.217476 0.502563
-0.060899 0.235639 0.585624
0.119068 0.262049 -0.205119
0.007258 0.241180 0.585334
0.058999 -0.267871 -0.358036
0.175104 -0.244910 -0.095405
0.069500 -0.093927 -0.536184
0.150595 -0.058725 0.054411
0.717506 0.009691 0.713843
0.052230 0.059130 -0.554287
0.024653 0.246829 -0.428390
0.110818 -0.238476 -0.388108
0.152710 -0.264617 -0.195817
0.207349 -0.229986 0.597306
0.182884 -0.228571 -0.307816
0.218896 -0.204236 0.545248
0.278593 -0.209001 0.640218
0.110643 -0.149480 -0.485821
0.201742 -0.149839 -0.393740
0.189701 -0.172453 0.040994
0.218963 -0.124440 0.112071
0.186420 0.010682 0.110152
0.127070 0.005385 -0.509695
0.116063 0.144505 -0.485868
0.465757 0.145757 0.699484
0.224169 0.112449 0.124148
0.258251 0.115289 0.478832
0.189946 0.181271 -0.386973
0.184105 0.231855 -0.060141
0.277856 0.180145 0.522778
0.509093 0.212258 0.650879
0.109571 0.234941 -0.390559
0.306233 0.224462 0.617400
0.163212 0.259591 -0.226612
0.196543 0.229353 -0.285970
0.179844 0.232320 0.582599
0.277628 -0.233876 0.031321
0.277023 -0.205291 0.118446
0.267362 -0.191317 -0.202640
0.410605 -0.052197 0.366886
0.223864 -0.030971 -0.424940
0.288655 -0.059980 -0.307682
0.271624 -0.045645 0.485009
0.275779 0.088694 -0.308568
0.318701 0.057490 0.266182
0.207180 0.092335 -0.431301
0.247638 0.219260 0.028209
0.236512 0.245346 -0.066773
0.293118 0.230202 0.093354
0.263529 -0.228757 -0.093491
0.436864 -0.273496 0.184700
0.363207 -0.190526 0.585674
0.346038 -0.143380 -0.126944
0.426402 -0.133013 0.351623
0.328745 -0.120757 -0.185861
0.627625 -0.143868 0.699912
0.349320 -0.016976 -0.192997
0.342789 0.075501 -0.180632
0.266156 0.200423 -0.191931
0.345745 0.146678 -0.121181
0.346751 0.115698 0.515028
0.483138 0.216891 0.358064
0.275431 0.230777 -0.110764
0.327756 0.201734 0.573594
0.394847 -0.250233 0.051043
0.350048 -0.207904 -0.045711
0.497087 -0.213337 0.639825
0.475180 -0.211783 0.362537
0.384244 0.007788 -0.136333
0.429413 -0.028692 0.505852
0.419799 0.129980 0.353603
0.344137 0.221579 -0.034471
0.352883 0.253667 0.061619
0.518920 0.274121 0.287209
0.464932 -0.280918 0.153043
0.451823 -0.200855 0.584805
0.486760 -0.155574 -0.018493
0.501060 -0.201652 0.495705
0.438473 -0.083932 -0.087817
0.456282 -0.084407 0.434292
0.432628 0.079481 -0.086631
0.450931 0.074708 0.420961
0.438076 0.194987 0.587319
0.514361 0.204088 0.498451
0.499662 0.156454 -0.019089
0.464165 0.235651 0.035448
0.498971 -0.254834 0.115029
0.577263 -0.272298 0.412008
0.578867 -0.248962 0.586528
0.498883 -0.085092 -0.060916
0.755186 -0.051978 0.714226
0.511166 0.033967 -0.052421
0.582406 0.205335 0.086847
0.580921 0.257080 0.560260
0.573926 0.271373 0.253701
0.578984 0.275267 0.395336
0.582635 -0.265653 0.256589
0.664494 -0.264109 0.406986
0.655955 -0.156047 0.146148
0.668768 -0.218076 0.649028
0.663717 -0.042926 0.089925
0.658807 0.112409 0.099846
0.691238 0.220937 0.643859
0.690301 0.190799 0.236277
0.658464 0.267017 0.423468
0.660867 -0.260562 0.570938
0.686519 -0.213505 0.270552
0.731062 -0.197503 0.342245
0.726485 -0.210730 0.583724
0.721547 -0.102543 0.195498
0.726878 0.059867 0.179313
0.770440 0.095971 0.330783
0.729968 0.207052 0.366585
0.728620 0.206610 0.583085
0.649312 0.254109 0.598240
0.728042 -0.161429 0.673541
0.781345 -0.061016 0.652876
0.777920 -0.109739 0.353735
0.777605 -0.013966 0.274212
0.798878 -0.022862 0.369593
0.778734 0.074107 0.634372
0.710587 0.158658 0.673623
3 1 0 7
3 7 0 2
3 3 1 9
3 1 3 0
3 0 3 4
3 0 4 2
3 2 4 5
3 9 12 3
3 12 6 3
3 6 4 3
3 5 4 6
3 8 7 2
3 20 9 1
3 11 10 2
3 5 11 2
3 23 12 9
3 6 13 5
3 6 12 14
3 6 14 13
3 8 26 7
3 26 25 7
3 25 1 7
3 15 16 17
3 8 2 18
3 17 16 19
3 10 18 2
3 29 16 15
3 32 16 29
3 19 16 22
3 19 22 30
3 24 16 32
3 16 24 22
3 5 13 33
3 5 33 11
3 14 35 13
3 26 8 27
3 39 1 25
3 17 38 15
3 38 37 15
3 38 17 28
3 37 41 15
3 19 28 17
3 41 29 15
3 21 9 20
3 30 28 19
3 11 31 10
3 34 30 22
3 33 13 45
3 46 24 32
3 23 14 12
3 24 47 22
3 24 46 47
3 22 47 34
3 13 35 36
3 14 48 35
3 48 36 35
3 26 49 25
3 49 26 50
3 26 27 50
3 49 39 25
3 37 38 51
3 28 51 38
3 18 40 8
3 1 39 20
3 43 51 28
3 10 42 18
3 31 42 10
3 28 30 43
3 53 32 29
3 11 44 31
3 53 54 32
3 55 43 30
3 21 23 9
3 34 55 30
3 33 44 11
3 54 57 32
3 33 45 44
3 57 46 32
3 58 14 23
3 46 55 47
3 55 34 47
3 58 48 14
3 49 50 59
3 27 8 40
3 60 37 61
3 37 51 61
3 62 39 49
3 49 59 62
3 60 41 37
3 61 51 65
3 18 42 40
3 65 51 43
3 67 29 41
3 52 65 43
3 67 53 29
3 23 21 20
3 20 68 23
3 55 56 43
3 68 69 23
3 69 71 23
3 56 55 74
3 23 71 58
3 57 74 46
3 46 74 55
3 71 76 58
3 13 36 45
3 76 48 58
3 76 36 48
3 50 27 77
3 59 50 78
3 50 77 78
3 40 79 77
3 40 77 27
3 60 61 80
3 80 61 64
3 59 78 63
3 65 64 61
3 64 65 52
3 59 66 62
3 63 66 59
3 20 39 62
3 68 20 62
3 62 66 68
3 81 42 31
3 81 31 82
3 82 31 44
3 52 43 56
3 68 70 69
3 82 44 73
3 75 52 56
3 70 71 69
3 70 72 71
3 45 73 44
3 74 75 56
3 45 84 73
3 76 71 72
3 72 83 76
3 83 87 76
3 84 45 87
3 87 45 36
3 57 86 74
3 74 86 75
3 87 36 76
3 77 79 78
3 88 79 40
3 40 81 88
3 81 40 42
3 89 64 94
3 94 64 52
3 94 52 96
3 66 70 68
3 72 70 99
3 82 73 102
3 73 84 102
3 57 54 85
3 87 83 84
3 105 84 83
3 105 102 84
3 85 86 57
3 86 104 75
3 78 79 106
3 79 88 106
3 60 80 108
3 80 64 89
3 63 78 90
3 78 106 90
3 88 81 91
3 108 110 60
3 91 81 92
3 92 81 93
3 110 41 60
3 90 113 66
3 63 90 66
3 110 67 41
3 66 113 70
3 81 82 97
3 81 97 93
3 93 97 95
3 113 99 70
3 95 97 98
3 96 52 104
3 104 52 75
3 97 82 100
3 98 97 100
3 72 101 83
3 72 99 101
3 102 103 82
3 82 103 100
3 101 116 83
3 83 116 105
3 102 105 103
3 107 88 91
3 107 106 88
3 107 91 92
3 80 120 108
3 109 80 89
3 109 120 80
3 109 89 111
3 92 93 114
3 112 111 89
3 94 112 89
3 95 114 93
3 110 53 67
3 112 94 123
3 110 125 53
3 94 96 123
3 125 54 53
3 123 104 115
3 96 104 123
3 98 100 127
3 125 128 54
3 128 85 54
3 85 128 130
3 104 131 115
3 103 105 116
3 103 116 117
3 129 100 117
3 100 103 117
3 130 86 85
3 104 86 131
3 86 130 131
3 118 107 134
3 107 119 134
3 106 107 118
3 107 92 119
3 119 92 135
3 120 109 121
3 109 111 121
3 106 118 90
3 113 90 136
3 108 120 110
3 120 122 110
3 138 112 123
3 136 139 113
3 126 110 122
3 125 110 126
3 113 139 99
3 98 124 95
3 99 139 101
3 128 125 126
3 126 130 128
3 101 140 116
3 116 140 117
3 129 117 140
3 100 129 132
3 130 133 131
3 133 115 131
3 134 141 118
3 141 134 142
3 134 119 142
3 143 145 121
3 145 120 121
3 143 121 111
3 141 147 118
3 147 90 118
3 90 147 136
3 146 111 112
3 95 137 114
3 147 152 136
3 152 139 136
3 124 137 95
3 152 153 139
3 154 138 123
3 154 123 115
3 153 101 139
3 127 124 98
3 156 130 126
3 153 161 101
3 161 140 101
3 159 165 130
3 165 133 130
3 162 115 165
3 165 115 133
3 161 129 140
3 161 163 129
3 129 163 132
3 142 144 141
3 142 119 135
3 146 143 111
3 147 141 148
3 144 148 141
3 135 92 149
3 114 149 92
3 114 137 149
3 137 150 149
3 148 170 147
3 150 137 151
3 147 170 152
3 172 126 122
3 137 124 151
3 172 156 126
3 151 124 155
3 127 176 124
3 176 155 124
3 153 175 157
3 100 158 127
3 127 158 176
3 161 153 157
3 132 177 158
3 132 158 100
3 162 160 115
3 157 164 161
3 163 177 132
3 163 161 164
3 144 142 168
3 168 142 179
3 135 179 142
3 135 166 179
3 135 149 166
3 166 149 167
3 167 149 150
3 144 168 148
3 168 171 148
3 150 169 183
3 145 172 120
3 172 122 120
3 185 146 112
3 148 171 170
3 151 169 150
3 185 112 138
3 171 173 170
3 174 169 151
3 175 152 170
3 153 152 175
3 170 173 175
3 155 174 151
3 160 154 115
3 175 173 157
3 173 164 157
3 159 130 156
3 155 176 178
3 155 178 191
3 188 163 164
3 188 192 163
3 163 192 177
3 177 176 158
3 166 180 194
3 166 194 195
3 166 195 179
3 167 180 166
3 143 181 145
3 143 146 181
3 179 182 168
3 179 195 182
3 150 183 167
3 181 146 196
3 168 182 184
3 168 184 171
3 172 145 181
3 184 186 171
3 173 171 186
3 187 173 186
3 199 190 172
3 190 156 172
3 173 187 188
3 187 189 188
3 164 173 188
3 155 191 200
3 159 156 190
3 189 192 188
3 189 201 192
3 159 190 193
3 201 177 192
3 202 176 201
3 201 176 177
3 193 165 159
3 193 162 165
3 202 178 176
3 194 180 204
3 183 197 167
3 205 181 196
3 206 208 195
3 208 182 195
3 172 181 199
3 199 181 205
3 184 182 186
3 182 198 186
3 182 208 198
3 208 210 198
3 169 174 211
3 186 198 187
3 199 212 190
3 187 198 189
3 198 210 189
3 155 200 174
3 174 200 211
3 210 201 189
3 212 193 190
3 212 162 193
3 202 201 215
3 178 202 203
3 194 204 216
3 180 167 197
3 206 195 194
3 206 194 216
3 197 183 209
3 197 209 207
3 207 209 199
3 207 199 205
3 185 196 146
3 206 219 208
3 169 209 183
3 219 221 208
3 220 185 138
3 221 210 208
3 211 209 169
3 209 211 199
3 199 211 213
3 199 213 212
3 221 214 210
3 201 210 214
3 200 191 211
3 211 191 213
3 201 214 215
3 212 160 162
3 178 203 191
3 213 223 212
3 212 223 160
3 215 224 202
3 202 224 203
3 216 204 226
3 204 180 226
3 217 226 180
3 217 180 197
3 217 197 207
3 207 205 218
3 207 218 217
3 205 196 218
3 229 196 185
3 219 230 221
3 230 231 221
3 231 222 214
3 221 231 214
3 215 214 222
3 222 224 215
3 191 225 213
3 223 213 225
3 203 225 191
3 203 224 225
3 227 226 217
3 227 217 235
3 217 218 235
3 236 228 226
3 226 228 216
3 236 226 227
3 235 218 229
3 229 218 196
3 206 216 228
3 228 230 206
3 206 230 219
3 231 233 222
3 222 233 224
3 224 233 234
3 232 160 244
3 244 160 223
3 225 224 234
3 225 234 223
3 234 244 223
3 237 236 227
3 227 238 237
3 227 235 238
3 235 229 238
3 237 239 236
3 238 229 245
3 228 236 239
3 245 229 185
3 228 239 230
3 245 185 220
3 239 240 230
3 239 248 240
3 230 240 231
3 248 241 240
3 138 154 251
3 251 154 160
3 231 240 233
3 240 241 233
3 241 242 233
3 251 160 232
3 232 243 251
3 234 233 242
3 242 243 234
3 243 244 234
3 232 244 243
3 246 238 245
3 247 239 237
3 237 238 247
3 238 246 247
3 239 247 248
3 247 249 248
3 247 246 249
3 245 220 246
3 249 241 248
3 246 250 249
3 246 138 250
3 220 138 246
3 249 250 241
3 241 250 243
3 138 251 250
3 250 251 243
3 243 242 241
