ply
format ascii 1.0
element vertex 250
property float x
property float y
property float z
element face 500
property list uchar int vertex_indices
end_header
-0.807169 -0.149141 0.272699
-0.790957 -0.185301 0.196727
-0.862171 -0.047047 0.200647
-0.855116 -0.005596 0.259931
-0.821925 0.109630 0.145249
-0.784535 0.060204 0.322476
-0.794625 0.171107 0.242583
-0.702884 -0.130831 -0.016514
-0.736687 -0.207103 0.079720
-0.796742 -0.079615 0.328731
-0.824336 -0.058325 0.092619
-0.781712 0.032290 -0.032791
-0.694413 0.174626 0.008693
-0.700852 0.254375 0.185056
-0.611254 -0.263615 0.068809
-0.667485 -0.270102 0.182564
-0.719057 -0.218458 0.269570
-0.657800 -0.091030 0.404436
-0.736607 0.025461 -0.071872
-0.689494 0.006973 0.394859
-0.666276 0.134673 0.369743
-0.722473 0.212031 0.277515
-0.675858 0.267965 0.069092
-0.585101 -0.310935 0.153036
-0.487732 -0.311179 0.265031
-0.621133 -0.218340 0.333327
-0.552732 -0.154565 0.467328
-0.569929 0.021116 0.494894
-0.539287 -0.001341 -0.047342
-0.565792 0.145473 0.446545
-0.605744 0.254442 0.303881
-0.591873 0.286005 0.102017
-0.519505 0.316544 0.225693
-0.542770 -0.185794 -0.015734
-0.488358 0.181983 0.014831
-0.436470 0.312711 0.345854
-0.481685 -0.307302 0.149960
-0.367072 -0.334176 0.370566
-0.432871 -0.175766 0.010083
-0.438719 -0.255970 0.453823
-0.498671 -0.172238 0.518262
-0.491143 -0.093049 0.555516
-0.414282 0.049327 -0.025066
-0.504484 0.127728 0.522457
-0.442114 0.239191 0.479452
-0.308145 -0.101773 0.689745
-0.340465 -0.001977 -0.602203
-0.368288 -0.072265 -0.060220
-0.354276 0.015040 0.659876
-0.354746 0.084849 -0.108001
-0.371547 0.086925 -0.036219
-0.260632 0.198343 0.651500
-0.400979 0.166710 0.005192
-0.417053 0.296958 0.140793
-0.356637 0.350869 0.249337
-0.297496 -0.349694 0.190326
-0.329737 -0.245744 0.042757
-0.224872 -0.326121 0.482740
-0.275347 -0.211020 -0.477150
-0.258685 -0.203060 -0.252360
-0.287020 -0.213151 -0.095283
-0.305519 -0.184402 0.643584
-0.227034 -0.222451 -0.665698
-0.302463 -0.121439 -0.660214
-0.327214 -0.160918 -0.293521
-0.245170 -0.007771 -0.795290
-0.289957 0.127581 -0.671867
-0.259105 0.218295 -0.444101
-0.334810 0.185707 -0.038980
-0.248495 0.199021 -0.292342
-0.253550 0.211895 -0.657941
-0.239761 0.227348 -0.153250
-0.241729 0.271998 -0.007592
-0.272951 0.333416 0.158247
-0.256839 0.309601 0.511353
-0.101495 -0.419590 0.309862
-0.176176 -0.258890 -0.557468
-0.171789 -0.240410 -0.163584
-0.145926 -0.136233 -0.838242
-0.192704 -0.183352 -0.364845
-0.190144 -0.174887 -0.263494
-0.207787 0.040087 0.749146
-0.143976 0.201887 -0.798818
-0.204510 0.166606 -0.360971
-0.222952 0.186306 -0.270886
-0.106535 0.269666 -0.681301
-0.189721 0.245124 -0.484188
-0.030471 -0.407018 0.169967
-0.132078 -0.326394 -0.023816
-0.108972 -0.227833 -0.812779
-0.202756 -0.129792 0.745233
-0.112917 -0.209571 0.700577
-0.145385 -0.050772 -0.326288
-0.141189 -0.004327 -0.285975
-0.123997 0.076336 -0.882080
-0.183985 0.201283 0.707732
-0.067558 0.191344 0.734700
-0.172464 0.191810 -0.200909
-0.158019 0.275923 -0.079292
-0.055930 0.404788 0.175859
-0.092685 0.419175 0.365058
-0.103854 0.286166 0.630900
-0.082520 0.431763 0.283743
-0.090435 -0.278510 -0.705954
-0.059145 -0.332554 -0.033241
-0.067812 -0.208215 -0.503857
0.020591 -0.192502 -0.168916
-0.118880 -0.160955 -0.229398
-0.056420 -0.041018 -0.422424
-0.116489 -0.090029 0.778213
-0.038214 0.012951 -0.931062
-0.098065 0.042263 0.787179
-0.033316 0.196347 -0.502453
-0.052504 0.265640 -0.592961
0.040958 -0.399597 0.412228
-0.043046 -0.272302 -0.626008
0.108164 -0.375206 0.087013
-0.053821 -0.217485 -0.839066
0.118140 -0.225437 -0.120653
0.042224 -0.157476 -0.558990
0.072872 -0.031810 -0.962130
0.012258 -0.011452 -0.218831
0.037190 0.091477 -0.948580
0.250805 0.135926 0.770404
-0.020103 0.197681 -0.881137
0.014532 0.194413 -0.152553
0.051751 0.269590 -0.698611
-0.017268 0.328851 -0.008568
0.088003 0.296331 -0.041267
0.054765 0.403458 0.444461
0.186799 -0.380631 0.221236
0.025558 -0.442713 0.298274
0.199342 -0.275001 0.620246
0.061087 -0.266539 -0.740126
0.041866 -0.143043 -0.932855
0.125473 -0.211653 -0.892465
0.247262 -0.155183 0.722464
0.016562 -0.082889 -0.476695
0.127778 -0.119050 -0.179497
0.061047 0.016441 -0.512180
0.119584 0.021891 -0.592722
0.256517 -0.022208 0.779193
0.121681 0.059289 -0.200212
0.027419 0.048650 -0.473677
0.037804 0.201142 -0.577565
0.023404 0.167791 -0.513207
0.137644 0.239512 -0.895845
0.139330 0.189911 -0.145820
0.091688 0.274871 -0.833163
0.112894 0.300729 0.625573
0.241381 0.349313 0.089176
0.071974 0.404761 0.165470
0.035482 0.434773 0.305157
0.101976 -0.191622 -0.642241
0.090762 -0.151046 -0.942765
0.128642 -0.090132 -0.614121
0.149963 0.191688 -0.664655
0.274516 0.199978 0.708662
0.243413 0.323051 0.463380
0.230895 0.369652 0.206752
0.238084 -0.362176 0.096754
0.356758 -0.284712 -0.798599
0.314310 -0.271812 -0.751122
0.380743 -0.251403 -0.062647
0.299848 -0.270710 0.507892
0.297418 -0.197623 -0.680844
0.318404 -0.162709 -0.141398
0.256745 0.013324 -0.641290
0.283329 0.263326 -0.740848
0.349709 0.281497 -0.021835
0.417854 -0.280517 0.049690
0.433649 -0.232022 0.240484
0.323575 -0.196348 0.636098
0.382342 -0.226718 0.412416
0.615502 -0.120155 -0.948961
0.393706 -0.010540 -0.232957
0.420965 0.141862 -0.203001
0.331495 0.096457 0.748072
0.341053 0.194616 -0.672406
0.427495 0.232888 -0.100088
0.356400 0.146030 0.676866
0.603533 0.225516 -0.915339
0.344213 0.220103 0.570806
0.554332 0.273893 -0.820264
0.404454 0.206916 0.415115
0.427744 0.240221 0.244431
0.396822 0.289131 0.070318
0.572698 -0.233996 -0.897356
0.555237 -0.209239 -0.474416
0.406277 -0.125097 0.567407
0.453874 -0.113761 0.417470
0.386172 -0.020456 0.672344
0.382118 -0.024745 -0.588426
0.337136 -0.036781 0.750959
0.369775 0.079827 -0.609976
0.628258 0.089261 -0.942578
0.549819 0.208533 -0.444681
0.444609 0.104328 0.449115
0.400405 0.125546 0.570838
0.479991 -0.290147 -0.717994
0.490813 -0.248350 -0.029332
0.585484 -0.278094 -0.824084
0.526178 -0.234681 -0.140947
0.524737 -0.173560 0.108636
0.484640 -0.155527 0.269697
0.569166 -0.215959 -0.313241
0.446238 -0.156389 -0.187911
0.507601 -0.081960 -0.380334
0.508226 -0.035498 0.279417
0.471029 0.005106 0.415799
0.433193 -0.011691 0.560353
0.484563 0.069332 -0.393490
0.475862 0.141050 0.298383
0.532472 0.190906 -0.285399
0.507831 0.229364 -0.154830
0.528472 0.160413 0.120973
0.503639 0.280881 -0.682527
0.501495 0.245921 -0.052017
0.615221 -0.249959 -0.440472
0.590837 -0.237049 -0.164681
0.569662 -0.008357 0.132049
0.633519 0.252786 -0.449871
0.603715 0.294990 -0.649184
0.583126 0.243531 -0.164636
0.606679 -0.290610 -0.709257
0.608647 -0.240961 -0.256740
0.623518 -0.172974 -0.093443
0.655782 -0.212452 -0.203669
0.653363 0.003345 -0.012831
0.599295 0.235937 -0.302204
0.686827 0.186455 -0.902335
0.651862 0.202946 -0.136349
0.581293 0.299333 -0.716686
0.641107 0.280432 -0.668659
0.703826 -0.207777 -0.355208
0.688757 -0.179162 -0.912692
0.731337 -0.188215 -0.806580
0.757210 -0.084254 -0.904276
0.737243 -0.123172 -0.221790
0.727634 -0.001744 -0.137773
0.776975 0.046862 -0.837655
0.733538 0.128460 -0.209910
0.667780 0.135498 -0.075324
0.672311 0.226522 -0.285948
0.721541 0.195718 -0.779302
0.724293 0.200763 -0.369880
0.783335 -0.114897 -0.370893
0.799742 -0.082251 -0.806644
0.792972 -0.014764 -0.322259
0.784281 0.098395 -0.369225
3 2 1 10
3 1 2 0
3 0 2 3
3 9 0 3
3 9 3 5
3 4 2 10
3 2 4 3
3 3 4 6
3 3 6 5
3 16 1 0
3 16 0 17
3 17 0 9
3 7 10 8
3 1 8 10
3 11 7 18
3 7 11 10
3 19 9 5
3 19 5 20
3 10 11 4
3 11 12 4
3 12 11 18
3 21 5 6
3 12 13 4
3 13 6 4
3 6 13 21
3 14 15 23
3 8 14 7
3 14 8 15
3 8 1 15
3 15 1 16
3 9 19 17
3 28 12 18
3 20 5 21
3 12 22 13
3 15 24 23
3 24 15 25
3 25 15 16
3 17 25 16
3 25 17 26
3 26 17 27
3 29 17 19
3 20 29 19
3 17 29 27
3 30 20 21
3 30 29 20
3 34 31 12
3 31 22 12
3 21 13 30
3 13 22 31
3 32 13 31
3 13 32 30
3 23 24 36
3 14 36 38
3 14 23 36
3 38 33 14
3 39 24 26
3 24 25 26
3 33 7 14
3 26 40 39
3 40 26 41
3 33 28 7
3 28 18 7
3 41 26 27
3 41 27 43
3 43 27 29
3 28 34 12
3 44 43 29
3 44 29 35
3 29 30 35
3 30 32 35
3 37 24 39
3 33 38 28
3 38 42 28
3 34 28 42
3 42 52 34
3 52 53 34
3 34 53 31
3 32 31 53
3 32 54 35
3 24 55 36
3 55 56 36
3 56 38 36
3 39 40 61
3 40 41 61
3 56 47 38
3 46 47 64
3 48 45 41
3 47 46 49
3 38 47 42
3 47 49 50
3 47 50 42
3 43 48 41
3 51 48 43
3 50 52 42
3 68 52 50
3 53 52 68
3 43 44 51
3 53 54 32
3 24 75 55
3 75 24 37
3 57 37 39
3 61 57 39
3 62 63 58
3 58 63 64
3 64 59 58
3 59 64 60
3 45 61 41
3 60 64 47
3 56 60 47
3 63 65 46
3 64 63 46
3 45 48 81
3 66 46 65
3 49 46 66
3 81 48 51
3 49 66 67
3 49 67 68
3 49 68 50
3 67 69 68
3 66 70 67
3 71 68 69
3 68 71 72
3 68 72 73
3 68 73 53
3 74 51 44
3 44 35 74
3 73 54 53
3 75 37 57
3 77 60 88
3 88 60 56
3 76 62 58
3 76 58 79
3 60 77 59
3 89 78 62
3 58 59 79
3 80 79 59
3 80 59 77
3 62 78 63
3 90 61 45
3 78 65 63
3 90 45 81
3 65 94 66
3 95 81 51
3 82 66 94
3 82 70 66
3 67 86 83
3 67 83 69
3 84 69 83
3 69 84 71
3 71 84 97
3 67 70 85
3 86 67 85
3 97 98 71
3 71 98 72
3 35 100 74
3 73 102 54
3 54 100 35
3 102 100 54
3 87 88 56
3 55 87 56
3 62 76 103
3 88 104 77
3 103 89 62
3 105 76 79
3 106 107 77
3 107 80 77
3 61 90 91
3 91 90 109
3 107 93 80
3 92 108 79
3 79 80 92
3 80 93 92
3 90 81 109
3 78 94 65
3 109 81 111
3 83 108 92
3 92 93 83
3 112 108 83
3 93 84 83
3 93 97 84
3 95 96 81
3 81 96 111
3 86 112 83
3 85 70 82
3 101 95 51
3 95 101 96
3 86 113 112
3 86 85 113
3 101 51 74
3 98 99 72
3 73 72 99
3 100 101 74
3 87 55 75
3 114 75 57
3 87 104 88
3 57 91 114
3 103 76 115
3 105 115 76
3 77 104 106
3 57 61 91
3 103 117 89
3 89 117 78
3 79 108 105
3 117 110 78
3 78 110 94
3 121 97 93
3 123 111 96
3 110 124 94
3 124 82 94
3 124 85 82
3 98 97 125
3 126 113 85
3 127 98 125
3 127 99 98
3 73 99 102
3 130 87 131
3 87 75 131
3 114 131 75
3 87 116 104
3 130 116 87
3 91 132 114
3 133 103 115
3 104 118 106
3 104 116 118
3 133 117 103
3 115 105 119
3 119 105 137
3 137 105 108
3 110 117 134
3 106 121 107
3 121 93 107
3 120 110 134
3 120 122 110
3 137 108 143
3 141 109 111
3 143 108 112
3 124 110 122
3 125 97 121
3 112 113 144
3 112 144 145
3 143 112 145
3 126 144 113
3 149 96 101
3 125 128 127
3 149 101 129
3 127 128 151
3 151 99 127
3 100 129 101
3 151 152 99
3 99 152 102
3 102 152 100
3 100 152 129
3 133 135 117
3 135 154 134
3 135 134 117
3 133 115 153
3 153 115 119
3 106 118 138
3 155 153 119
3 119 137 139
3 121 106 138
3 154 120 134
3 140 155 119
3 119 139 140
3 142 121 138
3 137 143 139
3 140 139 144
3 139 145 144
3 139 143 145
3 125 121 142
3 142 147 125
3 146 124 122
3 156 140 144
3 156 144 126
3 146 148 124
3 124 148 85
3 125 147 128
3 157 96 149
3 148 126 85
3 128 150 151
3 152 158 129
3 160 116 130
3 114 130 131
3 161 133 162
3 116 163 118
3 161 135 133
3 162 133 165
3 163 166 118
3 136 132 91
3 133 153 165
3 118 166 138
3 136 91 109
3 136 109 141
3 155 140 167
3 123 141 111
3 167 140 156
3 156 126 168
3 157 123 96
3 169 128 147
3 148 168 126
3 158 149 129
3 150 159 151
3 152 151 159
3 158 152 159
3 170 160 130
3 116 160 163
3 130 114 164
3 132 164 114
3 164 132 172
3 172 132 136
3 174 154 135
3 165 153 167
3 167 153 155
3 175 138 166
3 154 174 120
3 176 147 142
3 178 167 156
3 178 156 168
3 179 169 147
3 183 168 148
3 158 157 149
3 169 150 128
3 150 186 159
3 170 130 171
3 173 171 130
3 130 164 173
3 187 135 161
3 187 174 135
3 192 165 167
3 191 172 136
3 191 136 193
3 136 141 193
3 175 142 138
3 175 176 142
3 192 167 194
3 193 141 177
3 177 141 123
3 194 167 178
3 176 179 147
3 195 146 122
3 182 180 157
3 157 180 177
3 177 123 157
3 158 182 157
3 146 183 148
3 185 184 158
3 158 184 182
3 186 150 169
3 186 185 159
3 158 159 185
3 160 170 163
3 161 162 199
3 163 170 200
3 201 187 161
3 165 199 162
3 199 165 188
3 164 189 173
3 172 189 164
3 163 206 166
3 173 189 190
3 192 188 165
3 206 175 166
3 189 172 191
3 210 189 191
3 193 177 191
3 198 210 191
3 180 198 191
3 180 191 177
3 178 196 194
3 197 198 184
3 198 182 184
3 198 180 182
3 216 178 168
3 178 216 196
3 183 216 168
3 217 169 179
3 186 169 217
3 199 201 161
3 163 200 202
3 200 170 203
3 171 203 170
3 204 203 171
3 190 171 173
3 190 204 171
3 205 206 202
3 163 202 206
3 188 192 207
3 207 206 205
3 208 204 190
3 190 209 208
3 190 210 209
3 190 189 210
3 206 207 175
3 207 192 211
3 207 211 175
3 208 209 212
3 192 194 211
3 175 211 176
3 211 194 196
3 211 213 176
3 212 209 197
3 209 210 197
3 210 198 197
3 181 146 195
3 176 213 214
3 185 215 212
3 212 197 184
3 176 214 179
3 185 212 184
3 146 181 183
3 216 222 221
3 216 221 196
3 217 215 186
3 185 186 215
3 214 217 179
3 199 224 201
3 218 224 199
3 218 199 188
3 225 202 219
3 225 205 202
3 202 200 226
3 219 202 226
3 226 200 203
3 188 207 205
3 204 208 203
3 203 208 220
3 208 215 220
3 208 212 215
3 211 196 213
3 196 229 213
3 229 223 214
3 229 214 213
3 223 217 214
3 232 216 183
3 216 232 222
3 187 201 235
3 218 205 225
3 218 188 205
3 225 219 227
3 219 226 227
3 235 174 187
3 228 226 203
3 203 220 228
3 174 195 120
3 195 122 120
3 215 242 228
3 220 215 228
3 230 181 195
3 231 242 217
3 242 215 217
3 230 183 181
3 243 229 221
3 229 196 221
3 243 231 223
3 243 223 229
3 223 231 217
3 222 233 221
3 233 232 183
3 233 222 232
3 218 234 224
3 201 236 235
3 201 224 236
3 224 234 236
3 225 234 218
3 227 234 225
3 235 236 237
3 238 234 227
3 227 226 238
3 174 235 237
3 239 248 238
3 238 226 239
3 226 228 239
3 195 174 237
3 237 240 195
3 241 248 239
3 239 242 241
3 239 228 242
3 230 195 240
3 240 244 230
3 241 231 243
3 241 242 231
3 245 241 243
3 244 183 230
3 183 244 233
3 244 245 233
3 245 221 233
3 221 245 243
3 247 237 236
3 236 246 247
3 236 234 246
3 238 246 234
3 238 248 246
3 247 246 248
3 237 247 240
3 247 248 240
3 240 248 249
3 248 241 249
3 240 249 244
3 244 249 245
3 249 241 245
