ply
format ascii 1.0
element vertex 250
property float x
property float y
property float z
element face 500
property list uchar int vertex_indices
end_header
-0.817630 -0.160169 -0.817451
-0.805806 -0.173308 -0.747463
-0.828455 -0.074955 -0.904622
-0.838145 -0.003168 -0.736632
-0.874651 0.052919 -0.822438
-0.839004 0.104519 -0.892211
-0.818484 0.174252 -0.753196
-0.716863 -0.232149 -0.731384
-0.750355 -0.160806 -0.680196
-0.687654 -0.120421 -0.943077
-0.720589 0.048160 -0.945614
-0.746652 0.155764 -0.669107
-0.802307 0.200314 -0.820206
-0.723469 0.189010 -0.890498
-0.692636 0.233663 -0.706488
-0.638960 -0.272393 -0.798282
-0.712904 -0.204247 -0.889417
-0.661997 -0.163479 -0.629910
-0.733435 -0.032371 -0.629227
-0.675517 0.171633 -0.631398
-0.564044 0.278499 -0.794815
-0.595102 -0.261683 -0.705562
-0.537579 -0.200769 -0.614637
-0.546261 -0.164403 -0.044756
-0.581059 -0.177935 0.372715
-0.574388 -0.114992 0.509556
-0.564858 -0.084887 -0.558580
-0.670962 0.004883 -0.585898
-0.602373 -0.044463 -0.037395
-0.211647 -0.062288 -0.974915
-0.629178 0.015370 0.407669
-0.177587 0.041495 -0.973048
-0.604396 0.091942 -0.039513
-0.574853 0.049298 -0.560505
-0.588929 0.116626 0.527549
-0.588576 0.168148 0.442858
-0.211315 0.138446 -0.948057
-0.551655 0.207111 -0.629092
-0.564447 0.183556 -0.010994
-0.182866 -0.212359 -0.887879
-0.506220 -0.078449 -0.147251
-0.481857 -0.154512 0.579391
-0.509160 0.039642 0.603637
-0.544214 0.034641 -0.141308
-0.493260 0.156816 -0.111464
-0.494658 0.183000 0.561046
-0.416321 -0.292444 0.081576
-0.466295 -0.272416 0.462476
-0.196875 -0.149171 -0.948250
-0.456328 -0.182302 -0.118359
-0.373590 -0.240397 0.577991
-0.451348 0.298739 0.367306
-0.411649 0.302330 0.041772
-0.392219 0.301837 -0.715418
-0.297888 -0.319440 0.156401
-0.363139 -0.326390 0.421969
-0.283387 -0.297500 -0.803048
-0.394848 -0.110464 0.643974
-0.321794 -0.068221 0.691157
-0.367764 0.063623 -0.197089
-0.384370 0.080448 0.663527
-0.186431 0.221005 -0.869008
-0.353339 0.340317 0.251531
-0.315746 -0.295024 -0.730058
-0.280539 -0.310106 -0.024049
-0.161699 -0.293183 0.604370
-0.112455 -0.183384 -0.549927
-0.317309 -0.237331 -0.125491
-0.236289 -0.172265 0.698645
-0.304589 -0.114834 -0.205375
-0.143429 0.013015 -0.504585
-0.281577 0.199017 -0.154461
-0.108392 0.222587 -0.578512
-0.268831 0.212045 0.647692
-0.158903 0.294822 -0.673406
-0.204941 0.289115 -0.023237
-0.342715 0.333651 0.072262
-0.368732 0.317155 0.422703
-0.215176 -0.274731 0.252585
-0.252517 -0.322178 0.380427
-0.191927 -0.278745 0.317096
-0.222514 0.062071 0.746627
-0.233028 0.304472 -0.745234
-0.262781 0.310958 0.176068
-0.252875 0.321953 0.329749
-0.164895 0.320110 0.515999
-0.160464 -0.298810 0.001177
-0.078851 -0.286950 -0.717854
-0.152272 -0.237323 -0.173242
-0.115287 -0.191604 0.191681
-0.110254 -0.199154 0.285916
-0.145178 -0.099668 -0.262006
-0.087950 -0.238923 0.704517
-0.125168 -0.050681 -0.951723
-0.186853 0.024729 -0.258791
-0.121451 0.208643 -0.193211
-0.111175 0.092168 0.779057
-0.101215 0.199013 0.178098
-0.165993 0.178466 0.729364
-0.112761 0.202665 0.270940
-0.059172 0.283238 -0.744652
-0.064141 -0.297592 0.504557
0.061692 -0.292498 -0.103135
-0.004629 -0.171904 -0.505769
-0.028791 -0.157052 -0.284890
-0.009251 -0.092117 -0.889955
-0.066623 -0.067719 0.262501
-0.081661 -0.084852 0.774255
-0.044434 0.017060 0.206996
-0.056583 0.043748 -0.303283
-0.034668 0.143292 -0.881215
-0.126172 0.126146 -0.937503
-0.051697 0.055567 0.273437
-0.012865 0.161100 -0.509709
0.036988 0.178689 -0.299376
0.000201 0.183803 0.124556
0.047465 0.226071 0.404385
-0.051808 0.296509 0.602621
0.005242 0.314888 -0.077072
0.007733 0.308528 0.507491
0.046864 -0.300028 0.572114
-0.013216 -0.247523 -0.790187
0.065299 -0.279070 -0.594859
0.026818 -0.187282 0.072624
-0.028756 -0.120553 0.161225
0.009441 -0.049647 0.334204
-0.045820 -0.042813 -0.478136
0.055995 0.104585 0.357613
0.556121 0.063874 0.777589
0.019436 0.219047 0.716751
-0.001395 0.297836 -0.666581
0.069166 0.266077 -0.565067
0.027657 0.284034 0.005498
0.063096 -0.293866 -0.685279
0.165675 -0.292692 -0.655541
0.064148 -0.271829 -0.243524
0.125810 -0.208693 -0.776947
0.065414 -0.223311 0.452760
0.102737 -0.220340 -0.492790
0.072538 -0.183078 -0.339496
0.093304 -0.141657 -0.408924
0.021669 -0.035084 0.149669
0.038230 -0.000371 -0.435274
0.043683 0.019647 -0.372848
0.117725 0.030138 0.095503
0.573942 -0.101607 0.764100
0.124386 -0.064998 -0.863826
0.116610 0.065501 -0.864754
0.043711 0.101406 0.134104
0.494491 0.128930 0.790524
0.051300 0.196608 -0.491664
0.117985 0.206040 -0.422509
0.111328 0.207521 -0.347763
0.140075 0.157726 0.065011
0.068502 0.193628 -0.821091
0.076886 0.271971 -0.733195
0.194941 0.301975 -0.272441
0.129278 0.295606 -0.651411
0.181849 -0.173795 -0.005403
0.193920 -0.277765 -0.394910
0.532554 -0.205733 0.705067
0.208266 -0.060733 -0.824887
0.206282 0.109691 -0.814129
0.255024 0.289110 -0.526619
0.436974 0.296624 0.557301
0.210683 0.321365 -0.139936
0.215183 -0.294909 -0.565859
0.250009 -0.332442 -0.243074
0.408240 -0.306410 0.624029
0.308810 -0.230433 -0.665622
0.294905 -0.187524 -0.035126
0.411867 -0.209540 0.419739
0.330828 -0.072183 0.386816
0.258384 0.039406 0.025867
0.192591 0.061383 0.059655
0.410318 0.116502 0.364449
0.320757 0.211397 -0.018669
0.270204 0.217115 -0.712035
0.399957 0.232123 0.421135
0.373826 -0.321929 -0.406946
0.295407 -0.300911 -0.134043
0.346598 0.113757 -0.744224
0.398480 0.322448 -0.388332
0.418645 -0.342731 -0.241063
0.502950 -0.298845 0.494091
0.500987 -0.166223 -0.610642
0.367945 -0.204910 -0.023122
0.337596 -0.051273 -0.754803
0.353354 -0.026987 0.031108
0.442525 0.082140 0.128510
0.491184 0.231655 0.074616
0.518440 0.216054 -0.582532
0.556052 0.193225 0.724007
0.409603 0.334401 -0.243673
0.504492 -0.320925 -0.271533
0.510658 -0.260258 -0.482455
0.502472 -0.300601 -0.092855
0.509192 -0.230622 0.105588
0.504302 -0.197008 0.319259
0.453476 -0.099745 0.352742
0.444643 -0.089973 0.125816
0.473796 -0.007046 0.267174
0.495180 0.012157 -0.659202
0.498702 0.221743 0.331763
0.521708 0.297631 -0.098830
0.571797 0.220308 -0.505555
0.556499 -0.293471 0.586297
0.589157 -0.283798 0.030014
0.582412 -0.271509 0.292362
0.601603 -0.175442 -0.493750
0.577315 0.282149 0.060907
0.639128 0.198216 -0.332710
0.585820 0.286623 0.362859
0.515693 0.310081 0.527332
0.651726 0.160326 0.675230
0.502428 0.317070 -0.270366
0.574381 0.285173 0.573769
0.630169 -0.210201 -0.363160
0.612197 -0.277453 -0.086511
0.688103 -0.183307 0.587865
0.568951 -0.142024 -0.577616
0.689388 -0.197759 -0.140032
0.558152 -0.053956 -0.612498
0.662780 -0.122445 -0.422828
0.612186 -0.003282 -0.561222
0.671265 -0.066079 0.701202
0.638242 0.057623 -0.518861
0.574135 0.169657 -0.574917
0.675152 0.079100 -0.437200
0.703462 0.187873 -0.117911
0.690898 0.199067 0.559515
0.597498 0.283200 -0.070384
0.636449 -0.276232 0.052369
0.652064 -0.273200 0.405722
0.700762 -0.206791 -0.020729
0.741508 -0.178030 0.412257
0.734073 -0.113914 -0.117446
0.700251 -0.065254 -0.329393
0.737142 -0.008129 0.607872
0.750198 0.043926 -0.142589
0.697355 0.101034 -0.355117
0.650102 0.270480 0.071550
0.720373 0.208392 0.005845
0.729553 0.189901 0.383395
0.657855 0.269064 0.420768
0.765780 -0.035006 -0.024795
0.768808 -0.073555 0.522283
0.784699 -0.001200 0.414624
0.768554 0.056403 0.513516
0.759537 0.107912 -0.023748
3 1 0 3
3 0 2 4
3 0 4 3
3 2 5 4
3 3 4 6
3 3 6 11
3 12 4 5
3 4 12 6
3 16 0 15
3 0 7 15
3 9 2 16
3 16 2 0
3 0 1 7
3 7 1 8
3 3 8 1
3 8 3 18
3 9 10 2
3 2 10 5
3 3 11 18
3 5 10 13
3 5 13 12
3 6 12 14
3 6 14 11
3 17 7 8
3 17 8 18
3 17 18 27
3 29 10 9
3 29 31 10
3 27 18 11
3 36 13 10
3 27 11 19
3 19 11 14
3 13 20 12
3 14 12 20
3 15 7 21
3 39 9 16
3 21 7 17
3 21 17 22
3 26 22 17
3 27 26 17
3 23 28 24
3 26 27 33
3 28 30 24
3 24 30 25
3 32 28 43
3 28 32 30
3 25 30 34
3 25 34 42
3 30 32 35
3 30 35 34
3 19 33 27
3 37 33 19
3 32 38 35
3 19 14 37
3 48 9 39
3 24 25 47
3 49 40 23
3 25 41 47
3 48 29 9
3 23 40 28
3 43 28 40
3 42 41 25
3 43 44 32
3 45 42 34
3 32 44 38
3 35 45 34
3 35 51 45
3 14 53 37
3 20 53 14
3 16 15 56
3 24 46 23
3 47 46 24
3 46 49 23
3 50 47 41
3 41 57 50
3 59 43 40
3 57 41 42
3 57 42 60
3 59 44 43
3 60 42 45
3 61 13 36
3 13 61 20
3 38 44 52
3 51 38 52
3 35 38 51
3 54 46 55
3 15 63 56
3 21 63 15
3 54 64 46
3 47 55 46
3 63 21 22
3 47 50 55
3 64 67 46
3 67 49 46
3 66 22 26
3 67 69 49
3 69 40 49
3 70 26 33
3 69 59 40
3 60 58 57
3 71 44 59
3 72 33 37
3 60 45 73
3 72 37 74
3 71 75 44
3 75 52 44
3 77 73 45
3 74 37 53
3 76 52 75
3 77 45 51
3 76 62 52
3 62 51 52
3 62 77 51
3 54 55 79
3 78 54 79
3 65 79 55
3 65 55 50
3 50 68 65
3 39 16 56
3 50 57 68
3 68 57 58
3 81 58 60
3 31 36 10
3 73 81 60
3 82 20 61
3 82 53 20
3 62 76 83
3 84 62 83
3 62 84 77
3 77 84 85
3 86 64 54
3 80 78 79
3 63 22 66
3 88 67 64
3 91 69 88
3 88 69 67
3 66 26 70
3 91 94 69
3 68 58 81
3 94 59 69
3 72 70 33
3 59 95 71
3 59 94 95
3 81 73 98
3 75 71 95
3 53 82 74
3 85 73 77
3 83 76 75
3 64 86 88
3 80 79 101
3 79 65 101
3 56 87 39
3 56 63 87
3 86 54 89
3 54 78 89
3 87 63 66
3 80 90 78
3 90 89 78
3 39 93 48
3 92 68 107
3 93 29 48
3 107 81 96
3 68 81 107
3 31 29 93
3 93 111 31
3 36 31 111
3 98 96 81
3 61 36 111
3 97 99 83
3 83 99 84
3 100 82 61
3 82 100 74
3 97 83 75
3 73 85 117
3 98 73 117
3 88 86 102
3 101 65 120
3 120 65 92
3 39 87 121
3 86 123 102
3 89 123 86
3 65 68 92
3 80 101 90
3 105 39 121
3 93 39 105
3 90 106 89
3 103 66 126
3 88 104 91
3 66 70 126
3 108 124 89
3 89 106 108
3 104 109 91
3 112 108 106
3 110 93 105
3 91 109 94
3 111 93 110
3 126 70 113
3 70 72 113
3 95 94 109
3 97 115 108
3 108 112 97
3 112 99 97
3 114 95 109
3 129 96 98
3 111 110 61
3 61 110 100
3 99 116 84
3 115 97 132
3 100 130 74
3 72 74 130
3 132 97 75
3 116 119 84
3 117 129 98
3 118 75 95
3 132 75 118
3 119 85 84
3 119 117 85
3 87 133 121
3 87 122 133
3 135 88 102
3 101 120 137
3 122 87 66
3 66 103 122
3 103 138 122
3 135 104 88
3 101 137 90
3 135 139 104
3 124 123 89
3 123 124 141
3 106 90 125
3 90 137 125
3 138 103 142
3 142 103 126
3 139 143 104
3 143 109 104
3 141 124 108
3 106 125 112
3 146 147 105
3 147 110 105
3 142 126 113
3 141 108 148
3 112 125 127
3 149 128 96
3 142 113 150
3 143 114 109
3 148 108 115
3 99 112 127
3 149 96 129
3 116 99 127
3 154 100 110
3 100 154 155
3 131 113 72
3 131 150 113
3 155 130 100
3 130 131 72
3 114 156 95
3 95 156 118
3 133 136 121
3 133 134 136
3 134 133 122
3 102 123 158
3 136 105 121
3 136 146 105
3 160 92 107
3 142 140 138
3 139 140 143
3 144 123 141
3 140 142 143
3 141 148 144
3 150 151 142
3 142 151 143
3 143 151 152
3 143 152 114
3 144 148 153
3 153 148 115
3 154 110 147
3 151 150 131
3 156 114 152
3 153 115 132
3 130 157 131
3 157 130 155
3 156 165 118
3 165 132 118
3 164 129 117
3 134 122 166
3 167 135 102
3 136 134 169
3 122 138 166
3 159 135 167
3 92 168 120
3 139 135 159
3 168 92 160
3 140 159 138
3 140 139 159
3 146 136 161
3 158 123 144
3 172 125 137
3 161 147 146
3 158 144 174
3 128 107 96
3 161 162 147
3 172 127 125
3 174 144 153
3 175 116 127
3 154 147 162
3 154 162 155
3 119 116 178
3 131 163 151
3 157 163 131
3 164 117 119
3 169 134 166
3 138 159 166
3 180 167 102
3 158 180 102
3 137 120 171
3 158 170 180
3 169 161 136
3 173 170 158
3 158 174 173
3 153 176 173
3 173 174 153
3 155 162 177
3 155 177 157
3 176 132 165
3 176 153 132
3 157 177 163
3 152 151 156
3 156 151 163
3 179 167 183
3 183 167 180
3 166 159 179
3 167 179 159
3 120 168 184
3 166 179 169
3 120 184 171
3 186 180 170
3 171 172 137
3 187 161 169
3 186 170 188
3 188 170 173
3 187 162 161
3 175 127 172
3 187 181 162
3 177 162 181
3 188 173 176
3 178 116 175
3 192 129 164
3 163 177 191
3 165 193 176
3 164 119 178
3 182 156 163
3 156 193 165
3 182 193 156
3 180 196 183
3 169 179 195
3 169 195 185
3 186 196 180
3 196 186 197
3 199 172 171
3 145 160 107
3 187 169 185
3 186 188 200
3 200 188 189
3 175 172 199
3 187 202 181
3 176 189 188
3 181 191 177
3 190 189 176
3 192 149 129
3 176 204 190
3 191 182 163
3 176 193 204
3 194 179 183
3 195 179 194
3 196 194 183
3 168 206 184
3 196 197 207
3 171 184 198
3 206 168 160
3 171 198 199
3 200 197 186
3 197 200 198
3 198 201 199
3 187 185 202
3 198 200 201
3 200 189 201
3 199 201 175
3 202 191 181
3 201 189 203
3 201 203 175
3 190 203 189
3 175 203 178
3 204 210 190
3 205 182 191
3 203 164 178
3 213 164 203
3 164 216 192
3 205 215 193
3 182 205 193
3 193 215 204
3 216 164 213
3 217 195 194
3 194 196 218
3 217 194 218
3 207 218 196
3 198 184 208
3 207 197 208
3 208 197 198
3 185 195 209
3 185 209 220
3 220 222 185
3 222 202 185
3 145 107 128
3 222 227 202
3 227 191 202
3 128 149 192
3 205 191 227
3 190 210 203
3 203 210 212
3 211 215 205
3 211 231 204
3 215 211 204
3 204 231 210
3 203 212 213
3 212 216 213
3 214 192 216
3 218 207 232
3 207 208 232
3 232 208 233
3 208 184 233
3 233 206 219
3 233 184 206
3 195 217 209
3 217 218 221
3 160 219 206
3 209 217 223
3 225 219 160
3 145 225 160
3 224 222 220
3 220 209 224
3 209 226 224
3 223 228 226
3 209 223 226
3 145 128 225
3 227 222 224
3 192 214 128
3 224 226 227
3 226 205 227
3 226 228 205
3 228 211 205
3 229 231 211
3 229 241 231
3 216 230 214
3 241 210 231
3 210 241 212
3 241 244 212
3 230 216 244
3 216 212 244
3 218 234 221
3 232 234 218
3 232 233 234
3 233 235 234
3 219 235 233
3 221 234 236
3 234 245 236
3 246 235 219
3 217 237 223
3 217 221 237
3 221 236 237
3 238 246 219
3 219 225 238
3 223 237 228
3 236 239 237
3 237 240 228
3 237 239 240
3 225 214 238
3 225 128 214
3 230 248 238
3 238 214 230
3 211 228 240
3 240 239 229
3 229 211 240
3 229 249 242
3 242 241 229
3 242 243 241
3 243 244 241
3 244 243 230
3 234 235 245
3 235 247 245
3 235 246 247
3 239 236 245
3 246 248 247
3 246 238 248
3 249 239 245
3 245 247 249
3 229 239 249
3 249 247 243
3 247 248 243
3 230 243 248
3 243 242 249
