ply
format ascii 1.0
element vertex 252
property float x
property float y
property float z
element face 500
property list uchar int vertex_indices
end_header
-0.663736 -0.057552 -0.153734
-0.668229 -0.043843 -0.152676
-0.669726 0.009237 -0.156953
-0.662680 0.044882 -0.161132
-0.662224 0.050047 -0.161736
-0.663306 -0.059958 -0.153655
-0.657708 0.000463 -0.160068
-0.414528 -0.077829 -0.651709
-0.423319 -0.123279 -0.285050
-0.450853 0.009103 -0.271494
-0.412680 0.093213 -0.649065
-0.424339 0.129041 -0.279609
-0.345531 -0.208755 -0.622080
-0.350417 -0.213815 -0.328540
-0.362338 -0.155996 -0.194006
-0.343556 -0.174813 0.441952
-0.282272 -0.198893 0.301914
-0.358150 -0.131501 -0.753569
-0.411089 -0.046344 -0.190117
-0.383963 -0.070773 0.393930
-0.371800 0.002073 -0.767199
-0.386499 -0.048769 0.510356
-0.307440 -0.068551 0.614987
-0.304579 0.021289 0.213254
-0.403586 0.023745 0.439012
-0.337818 0.062222 0.592292
-0.408817 0.078440 -0.190730
-0.381969 0.081874 0.518820
-0.356905 0.136931 -0.749346
-0.350774 0.136209 0.404690
-0.345884 0.209065 -0.619789
-0.346966 0.183317 -0.195727
-0.336501 0.217749 -0.311957
-0.266708 -0.230237 -0.206365
-0.282150 -0.204823 0.523612
-0.270822 -0.204601 -0.731854
-0.157963 -0.224050 0.016678
-0.283131 -0.113169 0.201179
-0.247178 -0.086333 0.054095
-0.254199 0.032967 0.040248
-0.237358 0.178201 0.192403
-0.289425 0.202040 -0.733492
-0.288020 0.188059 0.552050
-0.265551 0.231700 -0.215834
-0.261117 0.226337 0.352630
-0.227636 -0.240700 -0.643439
-0.267523 -0.223154 -0.505516
-0.275876 -0.231635 -0.357054
-0.214046 -0.238139 -0.227324
-0.278329 -0.236559 0.411823
-0.179008 -0.245158 0.573288
-0.207610 -0.176519 -0.403252
-0.205503 -0.209219 0.198921
-0.264596 -0.099092 -0.791508
-0.063940 -0.194858 0.780045
-0.190619 -0.148370 -0.520902
-0.259790 0.087676 -0.791850
-0.201854 0.137653 -0.508325
-0.252614 0.205597 -0.477183
-0.161350 0.212147 0.014357
-0.220852 0.241770 -0.654111
-0.253143 0.227557 -0.309561
-0.168059 0.232429 -0.115411
-0.196535 0.242233 0.241601
-0.187714 0.240651 0.553812
-0.154935 -0.183441 -0.569821
-0.178642 -0.240272 -0.134102
-0.128729 -0.236610 -0.159829
-0.197671 -0.235616 0.387898
-0.084755 -0.271687 0.141412
-0.077276 -0.171602 0.343443
-0.077806 -0.153014 0.428112
-0.151824 -0.038698 -0.413479
-0.150229 0.017603 -0.508444
-0.171140 0.080063 -0.430721
-0.167393 0.180424 -0.325706
-0.121428 0.191362 0.438385
-0.068403 0.197595 0.770653
-0.157789 0.197304 -0.578458
-0.086696 0.250481 -0.028951
-0.100092 0.267226 0.135960
-0.188254 0.233902 0.335682
-0.143741 0.230867 -0.184741
-0.128747 -0.235634 0.534399
-0.087090 -0.251611 -0.047225
-0.031338 -0.244027 -0.093713
-0.004865 -0.289407 0.060162
-0.103350 -0.246408 0.254309
-0.098539 -0.246630 0.629177
-0.111451 -0.086140 -0.548399
0.000149 -0.209479 -0.142669
-0.026896 -0.091318 0.885647
0.052327 -0.080261 -0.188486
-0.042372 -0.028289 0.372436
-0.042700 -0.007168 0.413121
-0.047744 0.042833 0.863396
0.172388 -0.008832 -0.799019
0.209360 0.085881 -0.785968
0.052577 0.077307 -0.185697
-0.062050 0.113024 0.422311
-0.072102 0.133802 0.356385
0.026048 0.213765 -0.117564
0.151497 0.193827 -0.731185
-0.104453 0.250357 0.237370
-0.134640 0.239597 0.566907
-0.089613 0.249780 0.652957
-0.058563 0.242747 -0.097575
-0.020709 0.292120 0.057309
0.027282 -0.265634 -0.040505
0.046784 -0.287954 0.143811
-0.011107 -0.245992 0.692210
0.092245 -0.247729 -0.681056
-0.034920 -0.229290 0.592780
0.049388 -0.237617 0.654163
0.115112 -0.249905 0.727377
0.102404 -0.229392 -0.593117
0.008867 -0.212623 0.259719
0.045851 -0.222642 0.820938
0.144614 -0.215856 -0.726906
0.014906 -0.125228 -0.552061
0.044802 0.020402 -0.515864
0.048735 0.186505 -0.581329
-0.045035 0.200017 0.568786
0.010987 0.218124 0.250061
-0.007102 0.251012 0.730718
0.111119 0.234961 0.830107
0.099851 0.241562 -0.648321
-0.010266 0.273539 -0.024192
0.054733 0.297489 0.125047
-0.039969 0.249565 0.669079
0.137092 -0.194788 0.231867
0.176793 -0.191732 0.901319
0.171720 -0.131042 -0.425934
0.018509 -0.092821 0.906152
0.030352 -0.049043 0.321040
0.112544 -0.038366 0.300596
0.114415 -0.176227 0.626202
0.083556 0.062110 0.570314
0.037396 0.102950 0.900241
0.026451 0.096229 0.312633
0.146981 0.071556 0.290988
0.161474 0.148379 -0.458801
0.092001 0.207553 0.237405
0.143961 0.190132 0.905049
0.150668 0.245502 -0.596705
0.096337 0.205295 0.665538
0.120150 0.254156 0.744209
0.060244 0.298772 0.023996
0.180931 -0.296246 0.025248
0.271721 -0.284673 0.105652
0.204877 -0.242178 -0.664531
0.156680 -0.251153 0.831339
0.148378 -0.212289 -0.111484
0.232896 -0.092707 -0.762729
0.223367 -0.195745 -0.176414
0.101160 -0.043285 0.947027
0.199998 -0.074316 -0.293662
0.142758 -0.010283 -0.192430
0.170886 0.039529 -0.403172
0.195838 0.093451 -0.328026
0.122546 0.114480 0.941489
0.216002 0.045428 0.968099
0.120782 0.139897 -0.151220
0.189066 0.159919 -0.194777
0.145757 0.206050 -0.123421
0.229093 0.267896 -0.578024
0.256519 -0.264736 -0.540871
0.278895 -0.259315 -0.111338
0.253526 -0.241888 -0.421738
0.272960 -0.228299 -0.240515
0.261544 -0.180971 -0.720105
0.203752 -0.107153 0.957898
0.286307 -0.151128 0.671951
0.232618 0.028458 0.635029
0.284012 0.108440 -0.745358
0.200170 0.155980 0.941116
0.222952 0.236860 -0.664015
0.251158 0.229770 -0.377473
0.270153 0.258233 -0.123740
0.396558 0.202069 0.194639
0.295041 0.297084 0.094247
0.222362 0.311850 0.048447
0.368506 -0.248414 -0.011501
0.286374 -0.254160 0.812985
0.343809 -0.246888 -0.553315
0.353555 -0.267492 -0.379402
0.279611 -0.223468 0.719328
0.434410 -0.214206 0.874764
0.415224 -0.211276 0.182937
0.416969 -0.172167 0.933254
0.423459 -0.095474 0.960691
0.393874 0.010174 0.683402
0.486240 0.013489 0.945524
0.438263 0.067385 0.256528
0.286112 0.152223 0.669644
0.427857 0.146403 0.936021
0.278058 0.226790 0.720724
0.391434 0.218903 0.880501
0.284880 0.262987 -0.585216
0.370395 0.183618 -0.640874
0.360420 0.275129 -0.400808
0.348471 0.258816 -0.179931
0.372674 0.242990 -0.019336
0.299982 0.255290 0.798840
0.434008 -0.230820 -0.443518
0.430768 -0.237540 -0.316159
0.345700 -0.257599 -0.152739
0.433102 -0.231438 0.123708
0.348562 -0.190446 -0.648237
0.431077 -0.156332 -0.583593
0.427560 -0.177364 -0.116803
0.393571 -0.095510 -0.663613
0.448348 -0.133231 -0.035496
0.407898 -0.073405 0.249089
0.408729 0.088435 -0.664007
0.463924 0.134033 -0.572987
0.433967 0.160030 -0.118978
0.447129 0.138274 -0.030524
0.416696 0.245376 -0.449529
0.426126 0.246901 -0.342420
0.433330 0.228525 0.134873
0.420209 -0.226068 0.808623
0.496363 -0.101795 -0.506004
0.495014 -0.151757 -0.400079
0.484385 -0.138369 -0.266149
0.480501 -0.156958 0.075498
0.492900 -0.136233 0.191941
0.429622 -0.157431 0.736403
0.495947 -0.162964 0.814616
0.498852 -0.126231 0.902976
0.473314 0.001126 -0.591192
0.490047 -0.033916 -0.185675
0.459647 -0.034592 -0.101324
0.459357 0.001043 -0.051136
0.436338 0.156830 0.734592
0.501634 0.085159 -0.209932
0.500728 0.141629 -0.267648
0.469337 0.165570 0.059932
0.500084 0.130072 0.163785
0.509441 0.139325 0.810184
0.493676 0.155905 0.892340
0.440434 0.217748 0.823695
0.534818 -0.032163 0.179944
0.497114 -0.084866 0.750192
0.535937 -0.043586 0.815599
0.523376 0.050680 -0.292063
0.495207 0.004873 0.043504
0.508077 0.022120 0.233003
0.536854 0.020220 0.891599
0.531927 0.003618 -0.443755
0.508169 0.097869 -0.462290
0.492019 0.080382 0.742727
3 5 0 1
3 0 2 1
3 4 2 0
3 1 2 3
3 1 3 5
3 2 4 3
3 0 5 6
3 5 3 6
3 4 0 6
3 6 3 4
3 7 9 8
3 8 9 18
3 7 10 9
3 18 9 26
3 9 10 11
3 9 11 26
3 12 8 13
3 13 8 14
3 7 12 17
3 12 7 8
3 8 18 14
3 16 19 15
3 15 19 21
3 17 20 7
3 14 18 38
3 38 18 39
3 19 23 24
3 19 24 21
3 7 20 10
3 22 21 25
3 18 26 39
3 21 24 27
3 21 27 25
3 20 28 10
3 24 23 29
3 27 24 29
3 30 10 28
3 26 11 31
3 10 30 11
3 11 30 32
3 31 11 32
3 12 45 35
3 45 12 46
3 12 13 46
3 46 13 47
3 47 13 33
3 16 15 49
3 15 34 49
3 33 13 14
3 33 14 36
3 17 35 53
3 12 35 17
3 52 37 16
3 21 34 15
3 38 36 14
3 16 37 19
3 34 21 22
3 53 20 17
3 19 37 23
3 53 56 20
3 56 28 20
3 23 40 29
3 41 28 56
3 28 41 30
3 42 27 29
3 27 42 25
3 31 32 43
3 44 29 40
3 60 30 41
3 60 58 30
3 30 58 32
3 58 61 32
3 61 43 32
3 44 42 29
3 65 45 46
3 51 47 48
3 47 33 48
3 48 33 66
3 16 68 52
3 16 49 68
3 50 68 34
3 34 68 49
3 50 34 54
3 55 65 46
3 47 51 46
3 34 22 54
3 46 51 55
3 52 38 37
3 23 37 38
3 39 23 38
3 57 74 58
3 40 23 39
3 31 59 26
3 75 61 58
3 31 43 62
3 31 62 59
3 40 63 44
3 57 58 78
3 58 60 78
3 63 81 44
3 81 64 44
3 64 42 44
3 42 64 77
3 61 82 43
3 43 82 62
3 67 48 66
3 67 66 84
3 69 52 87
3 83 50 88
3 48 67 51
3 84 66 36
3 87 52 68
3 70 87 68
3 68 50 83
3 50 54 88
3 66 33 36
3 36 52 69
3 71 70 68
3 68 83 71
3 65 55 89
3 51 90 72
3 38 52 36
3 54 22 91
3 55 73 89
3 51 73 55
3 51 72 73
3 91 22 95
3 96 56 53
3 72 74 73
3 22 25 95
3 96 97 56
3 73 74 57
3 73 57 78
3 74 75 58
3 59 39 26
3 39 59 40
3 102 41 56
3 75 82 61
3 80 40 59
3 40 80 63
3 103 100 81
3 100 76 81
3 102 60 41
3 62 79 59
3 81 63 103
3 64 81 76
3 76 104 64
3 64 105 77
3 63 80 103
3 64 104 105
3 85 67 84
3 85 84 108
3 84 86 108
3 87 109 69
3 111 35 45
3 115 45 65
3 84 36 86
3 36 69 86
3 88 110 112
3 83 88 112
3 88 54 110
3 53 35 118
3 51 67 90
3 67 85 90
3 112 71 83
3 119 65 89
3 72 90 92
3 70 71 93
3 74 72 92
3 94 93 71
3 120 89 73
3 75 74 98
3 100 93 94
3 99 100 94
3 121 73 78
3 101 75 98
3 99 76 100
3 25 77 95
3 76 99 122
3 42 77 25
3 75 101 82
3 104 76 122
3 126 78 60
3 82 101 106
3 59 79 107
3 80 59 107
3 105 104 122
3 129 105 122
3 105 124 77
3 106 62 82
3 106 127 79
3 106 79 62
3 127 107 79
3 128 103 80
3 105 129 124
3 69 109 86
3 118 35 111
3 111 45 115
3 90 85 108
3 109 87 116
3 112 110 113
3 114 113 110
3 110 54 117
3 114 110 117
3 87 70 116
3 115 65 119
3 117 54 133
3 133 54 91
3 116 70 134
3 134 70 93
3 119 89 120
3 133 91 95
3 98 74 92
3 133 95 138
3 134 93 139
3 139 93 100
3 120 73 121
3 138 95 77
3 139 100 123
3 78 126 121
3 123 100 103
3 125 138 77
3 106 101 127
3 123 103 128
3 122 145 129
3 124 129 145
3 146 124 145
3 124 146 125
3 124 125 77
3 128 80 107
3 127 147 107
3 147 128 107
3 86 148 108
3 149 148 109
3 148 86 109
3 148 152 108
3 152 90 108
3 116 130 109
3 113 114 136
3 151 114 117
3 117 131 151
3 112 113 136
3 153 53 118
3 119 132 115
3 112 136 71
3 133 131 117
3 131 133 155
3 152 92 90
3 130 134 135
3 116 134 130
3 153 96 53
3 152 157 92
3 94 71 136
3 157 98 92
3 137 94 136
3 133 138 155
3 140 135 134
3 139 140 134
3 155 138 160
3 157 162 98
3 99 94 137
3 102 56 97
3 121 141 120
3 162 101 98
3 140 139 142
3 162 164 101
3 139 123 142
3 137 145 122
3 99 137 122
3 138 143 160
3 121 126 144
3 144 141 121
3 143 138 125
3 126 60 102
3 164 147 101
3 147 127 101
3 142 123 128
3 150 115 166
3 150 118 111
3 111 115 150
3 171 131 155
3 156 157 154
3 154 157 152
3 120 132 119
3 171 155 161
3 158 132 120
3 132 158 156
3 172 173 136
3 173 137 136
3 156 158 159
3 156 159 157
3 160 161 155
3 157 159 163
3 157 163 162
3 141 158 120
3 159 158 141
3 161 160 175
3 162 163 164
3 175 160 143
3 126 102 176
3 126 176 144
3 165 144 176
3 128 179 142
3 179 128 180
3 181 128 147
3 180 128 181
3 152 148 167
3 114 151 183
3 166 115 168
3 167 154 152
3 167 169 154
3 149 109 130
3 186 136 114
3 114 183 186
3 183 151 131
3 187 183 131
3 118 170 153
3 170 118 150
3 132 168 115
3 168 132 169
3 186 172 136
3 187 131 189
3 189 131 171
3 169 132 156
3 169 156 154
3 161 190 171
3 153 174 96
3 190 161 192
3 174 97 96
3 102 97 174
3 173 145 137
3 195 161 175
3 174 176 102
3 194 145 173
3 177 141 144
3 141 177 159
3 159 177 163
3 163 177 178
3 163 178 164
3 179 140 142
3 194 196 145
3 196 146 145
3 197 175 143
3 144 165 177
3 196 203 146
3 125 203 197
3 143 125 197
3 198 165 176
3 178 147 164
3 178 181 147
3 203 125 146
3 185 184 166
3 167 148 182
3 182 148 149
3 150 184 208
3 150 166 184
3 185 166 168
3 169 185 168
3 206 185 169
3 167 206 169
3 167 182 206
3 188 149 130
3 208 170 150
3 213 188 130
3 211 153 170
3 213 130 135
3 191 173 172
3 213 135 140
3 213 140 193
3 194 173 191
3 199 176 174
3 176 199 198
3 201 177 200
3 177 201 178
3 178 201 202
3 165 200 177
3 165 198 200
3 181 178 202
3 180 181 202
3 204 184 185
3 205 204 185
3 185 206 205
3 207 182 149
3 207 149 188
3 183 221 186
3 221 183 187
3 184 209 208
3 204 209 184
3 206 182 210
3 170 208 211
3 208 209 211
3 182 212 210
3 227 172 186
3 186 221 227
3 190 189 171
3 227 191 172
3 211 214 153
3 214 174 153
3 234 194 191
3 192 161 195
3 199 174 214
3 214 215 199
3 217 202 216
3 179 193 140
3 196 194 234
3 215 218 199
3 219 216 201
3 216 202 201
3 196 234 241
3 195 175 197
3 199 218 198
3 179 180 220
3 241 203 196
3 241 197 203
3 200 198 218
3 219 200 218
3 201 200 219
3 180 202 220
3 204 222 209
3 204 223 222
3 204 205 223
3 206 210 205
3 210 224 205
3 182 225 212
3 182 207 225
3 207 226 225
3 188 226 207
3 221 187 228
3 187 229 228
3 187 189 229
3 223 205 224
3 188 213 226
3 227 221 228
3 230 211 209
3 209 222 230
3 231 224 210
3 232 231 210
3 212 232 210
3 227 228 243
3 229 189 190
3 225 246 212
3 226 213 247
3 190 192 229
3 212 233 232
3 212 246 233
3 243 191 227
3 211 230 214
3 222 250 230
3 243 251 191
3 235 231 232
3 216 235 232
3 232 233 216
3 233 217 216
3 233 246 217
3 247 213 193
3 251 234 191
3 230 215 214
3 230 250 215
3 246 237 217
3 192 195 240
3 251 239 234
3 250 218 215
3 250 236 219
3 218 250 219
3 236 235 216
3 238 247 179
3 247 193 179
3 219 236 216
3 237 202 217
3 202 237 220
3 237 238 220
3 179 220 238
3 241 234 239
3 239 240 241
3 240 197 241
3 195 197 240
3 226 242 225
3 228 244 243
3 228 229 244
3 224 245 223
3 231 245 224
3 225 242 246
3 226 247 242
3 229 248 244
3 223 249 222
3 223 245 249
3 229 192 248
3 222 249 250
3 242 247 238
3 243 244 251
3 231 235 245
3 242 238 246
3 244 239 251
3 244 248 239
3 192 240 248
3 249 245 250
3 246 238 237
3 245 236 250
3 245 235 236
3 248 240 239
