ply
format ascii 1.0
element vertex 252
property float x
property float y
property float z
element face 500
property list uchar int vertex_indices
end_header
-0.642394 -0.183962 -0.772889
-0.608742 -0.199385 -0.597285
-0.629090 -0.199432 -0.249249
-0.694081 -0.055883 -0.243979
-0.620130 -0.189183 0.078792
-0.682094 -0.080177 0.120983
-0.666466 -0.075005 -0.589949
-0.699889 0.028156 -0.820491
-0.652413 -0.083043 -0.319762
-0.673859 0.041453 -0.322894
-0.693141 0.074115 -0.275164
-0.666065 0.068977 0.102353
-0.682408 0.078784 -0.620013
-0.640070 0.173932 -0.773338
-0.615793 0.189833 -0.598217
-0.632482 0.157882 -0.250284
-0.596025 0.221663 0.070892
-0.541995 -0.269550 -0.751194
-0.540126 -0.282509 -0.673422
-0.589519 -0.189061 -0.827960
-0.602079 -0.200482 -0.294921
-0.567617 -0.118340 -0.421752
-0.595355 -0.091222 0.280828
-0.660973 -0.038868 -0.872247
-0.583404 0.049152 -0.389502
-0.646276 0.084217 -0.868335
-0.560838 0.154381 0.284484
-0.506597 0.285106 -0.627405
-0.583409 0.263748 -0.696144
-0.531909 0.292324 -0.192629
-0.488285 -0.294669 -0.244683
-0.517673 -0.304026 -0.103372
-0.490418 -0.300263 0.061323
-0.450702 -0.276371 -0.559120
-0.583544 -0.118705 -0.363939
-0.460356 -0.251376 0.241710
-0.479869 -0.179638 0.368396
-0.495354 -0.082852 0.422313
-0.583021 0.049228 -0.383760
-0.586365 0.008592 0.322753
-0.491897 0.074680 0.428973
-0.452365 -0.002939 -0.864167
-0.483918 0.228685 -0.437434
-0.466846 0.185737 0.379229
-0.465638 0.261948 -0.358416
-0.508939 0.309536 -0.103139
-0.519914 0.280089 -0.715858
-0.494586 0.284856 0.080366
-0.432538 -0.282224 -0.674171
-0.435984 -0.292946 0.094502
-0.428001 -0.208767 -0.785923
-0.500813 -0.233684 -0.377201
-0.433111 -0.181316 0.425544
-0.336114 -0.006705 0.584279
-0.449177 0.194637 -0.799253
-0.483622 0.244869 0.247800
-0.416510 0.275713 -0.680809
-0.404988 0.287286 -0.012268
-0.297169 -0.328699 -0.246307
-0.425850 -0.308979 -0.093421
-0.341468 -0.291327 -0.461314
-0.274848 -0.313654 -0.176739
-0.350363 -0.261303 0.357707
-0.326712 -0.250984 -0.607152
-0.355706 -0.266251 0.201417
-0.341971 -0.197187 -0.729720
-0.345643 -0.101327 -0.808034
-0.282625 0.174387 0.543424
-0.347595 0.059795 -0.815200
-0.342768 0.269598 0.350729
-0.351787 0.198591 -0.744607
-0.366707 0.296077 -0.460100
-0.312905 0.249208 -0.068697
-0.385901 0.281910 0.187772
-0.330019 0.261448 0.120211
-0.376552 0.316812 -0.234443
-0.240310 -0.273285 0.333169
-0.284666 -0.185435 0.050723
-0.258485 -0.220155 -0.054231
-0.277860 -0.203739 0.097806
-0.289981 -0.171124 0.542832
-0.251928 -0.085246 -0.678703
-0.294863 -0.075608 -0.757650
-0.285939 0.085002 -0.725159
-0.239952 0.089483 -0.664408
-0.313715 0.225948 0.044304
-0.296849 0.211122 -0.640885
-0.261745 0.281613 0.327894
-0.182671 0.280421 -0.417019
-0.196452 -0.269318 0.485873
-0.187665 -0.230312 -0.507959
-0.142344 -0.128915 -0.555202
-0.219890 -0.105476 -0.006813
-0.238233 -0.027423 0.023286
-0.225312 -0.025702 0.638116
-0.236149 0.085929 0.021948
-0.121079 0.149806 -0.524577
-0.230464 0.280912 0.423676
-0.110252 0.257756 0.494463
-0.208139 0.328782 -0.319997
-0.095453 -0.284660 -0.340954
-0.092295 -0.264766 -0.112912
-0.142259 -0.236111 0.568012
-0.118572 -0.174762 0.647047
-0.102915 0.016493 -0.555254
-0.206022 0.031206 -0.002348
-0.178776 0.192412 0.607304
-0.132063 0.118341 0.674871
-0.170741 0.157110 -0.045588
-0.084716 0.200614 0.358829
-0.111910 0.207465 0.647326
-0.073631 0.295073 -0.158947
-0.154846 0.274859 0.425992
-0.026289 -0.301465 -0.200226
-0.100877 -0.261499 0.473527
-0.085660 -0.193907 0.349334
-0.053809 -0.165043 -0.461018
-0.041125 -0.178875 -0.013378
-0.009044 -0.182475 0.436137
-0.115609 -0.067330 0.697667
-0.081966 -0.033720 0.006921
-0.059054 -0.039520 0.292358
-0.051025 0.087133 0.010029
-0.040293 0.087066 0.320058
-0.045959 0.145178 -0.462894
-0.012767 0.206690 -0.038803
-0.058168 0.251305 0.594561
0.036337 0.299667 -0.210469
-0.048887 -0.233653 0.620637
-0.038638 -0.256907 0.534558
0.061442 -0.285951 -0.118200
-0.046938 -0.136243 0.709952
0.058599 -0.192003 0.721606
0.188944 -0.042043 0.199948
0.047374 -0.087227 0.767938
-0.046932 -0.017020 -0.511555
0.026843 0.011540 0.398078
-0.046681 0.000287 0.737079
-0.005886 0.172821 0.427163
-0.042124 0.184546 0.691287
0.048151 0.068953 0.774745
0.104346 0.216369 -0.309068
0.064837 0.169136 0.750956
-0.029342 0.256841 0.526268
0.074655 -0.271445 -0.237852
0.101091 -0.230405 0.670212
0.163208 -0.192562 0.620009
0.122863 -0.102354 -0.366242
0.146331 -0.079680 0.524341
0.119617 0.086585 0.503619
0.110034 0.124170 -0.364619
0.139892 0.179712 0.573812
0.258189 0.209728 0.168241
0.115182 0.233385 0.638752
0.107292 0.205193 0.701916
0.062294 0.303089 -0.122350
0.234059 -0.297892 -0.116293
0.269013 -0.222298 0.161870
0.306878 -0.311262 0.035049
0.199812 -0.205748 -0.273758
0.126755 -0.177967 0.721879
0.221609 -0.126913 0.206402
0.195774 -0.102844 -0.338703
0.124476 -0.027447 0.766925
0.219106 0.113160 0.202904
0.104590 0.115961 0.765618
0.217485 0.089269 0.679783
0.214023 0.303765 -0.124897
0.201325 -0.150531 0.585843
0.326861 -0.134889 -0.277384
0.214530 -0.064641 0.562456
0.238997 -0.099483 0.603989
0.233741 -0.073041 0.657215
0.205373 0.063958 -0.329567
0.182496 0.066020 0.546040
0.234718 0.062848 0.607256
0.299092 0.147910 -0.264251
0.180814 0.190176 0.649999
0.182942 0.213579 -0.263937
0.326738 0.315389 0.048303
0.313079 -0.108917 0.287362
0.341869 0.033114 -0.284618
0.332533 0.012880 0.325372
0.341369 0.140616 0.294465
0.313723 0.241482 -0.184710
0.398110 -0.317855 0.023881
0.415031 -0.235807 -0.157355
0.433869 -0.301650 0.154890
0.346276 -0.215507 0.237572
0.531940 -0.248028 0.369286
0.668875 -0.173412 0.543243
0.642797 -0.057481 0.591989
0.678103 0.071889 0.600315
0.422530 0.190052 -0.192768
0.374786 0.250011 0.218736
0.394286 0.313861 -0.019468
0.618733 0.213756 -0.063188
0.662054 0.285513 0.396708
0.437228 0.326789 0.118664
0.665989 -0.207281 -0.053259
0.488928 -0.158848 -0.196678
0.509511 -0.008298 -0.211794
0.483145 0.126190 -0.208087
0.667473 0.185121 0.532681
0.552597 0.326492 0.083579
0.611738 -0.301652 0.105576
0.584613 -0.329424 0.170950
0.671054 -0.310887 0.287070
0.658329 -0.276607 0.408521
0.674050 -0.100635 -0.105699
0.682827 0.064860 -0.106118
0.654735 0.318390 0.243899
0.758309 -0.284524 0.360304
0.730359 0.179764 -0.024338
0.691199 0.287268 0.096639
0.811685 0.244819 0.237459
0.756020 0.283050 0.388660
0.855613 -0.230404 0.199313
0.769849 -0.246687 0.517661
0.877679 -0.183333 0.119279
0.851741 -0.218478 0.283808
0.715837 -0.174432 -0.051259
0.846848 -0.198828 0.600275
0.754031 -0.100512 -0.052290
0.788077 -0.070098 0.647895
0.745787 0.011976 -0.070519
0.801937 0.247234 0.524204
0.858529 0.214737 0.332683
0.836014 -0.240475 0.343375
0.948570 -0.036935 0.120455
0.940364 0.090134 0.120732
0.857026 0.104488 0.655608
0.921655 0.146325 0.348843
0.918884 0.117089 0.275064
0.858768 0.195410 0.599564
0.866753 0.194121 0.126195
0.924887 -0.213086 0.545653
0.938285 -0.131859 0.182611
0.972494 -0.136601 0.640484
0.944901 -0.028112 0.262475
0.946727 -0.002885 0.341300
0.938732 0.128437 0.172233
0.918992 0.216047 0.513802
0.971552 0.166794 0.622323
1.005550 -0.131458 0.502659
1.034780 -0.123515 0.598302
0.969467 0.023323 0.180348
0.982109 0.052182 0.677559
1.018147 0.128302 0.537397
1.032081 0.113275 0.650868
1.054455 -0.005466 0.537278
1.049545 0.022471 0.639873
3 2 3 4
3 3 2 8
3 4 3 5
3 4 5 22
3 0 6 1
3 1 6 21
3 7 0 23
3 0 7 6
3 21 6 24
3 8 9 3
3 24 6 12
3 3 9 10
3 3 10 11
3 3 11 5
3 5 11 22
3 25 7 23
3 6 7 12
3 13 7 25
3 12 7 13
3 12 13 14
3 12 14 24
3 15 10 9
3 10 15 11
3 11 15 16
3 2 4 31
3 19 0 17
3 17 0 18
3 18 0 1
3 20 8 2
3 19 23 0
3 20 34 8
3 34 38 8
3 38 9 8
3 22 11 39
3 41 25 23
3 39 11 26
3 38 15 9
3 16 26 11
3 13 28 14
3 14 28 27
3 15 29 16
3 29 45 16
3 30 20 2
3 31 30 2
3 4 32 31
3 50 19 17
3 33 18 1
3 20 30 51
3 33 1 21
3 21 34 51
3 51 34 20
3 4 35 32
3 22 35 4
3 35 22 36
3 36 22 37
3 21 24 38
3 34 21 38
3 22 39 37
3 37 39 40
3 39 26 40
3 41 54 25
3 24 42 38
3 40 26 43
3 54 13 25
3 14 42 24
3 38 42 44
3 38 44 15
3 13 54 46
3 28 13 46
3 27 42 14
3 29 15 44
3 16 55 26
3 46 27 28
3 47 16 45
3 16 47 55
3 18 48 17
3 18 33 48
3 58 30 59
3 30 31 59
3 59 32 49
3 59 31 32
3 35 49 32
3 50 17 48
3 35 36 62
3 62 36 52
3 51 33 21
3 50 41 19
3 41 23 19
3 37 52 36
3 40 53 37
3 40 43 67
3 54 56 46
3 69 43 55
3 43 26 55
3 27 56 71
3 47 57 73
3 56 27 46
3 75 29 44
3 29 75 45
3 75 57 45
3 47 45 57
3 60 30 58
3 61 58 59
3 63 48 33
3 63 33 60
3 51 60 33
3 30 60 51
3 49 35 64
3 62 64 35
3 48 65 50
3 48 63 65
3 59 49 77
3 77 49 64
3 50 65 66
3 66 41 50
3 52 37 80
3 37 53 80
3 66 68 41
3 40 67 53
3 54 41 68
3 68 70 54
3 69 67 43
3 70 56 54
3 70 86 56
3 56 86 71
3 72 85 57
3 57 85 74
3 71 42 27
3 44 42 71
3 73 57 74
3 73 55 47
3 55 73 69
3 71 75 44
3 57 75 72
3 64 62 76
3 59 78 61
3 77 78 59
3 79 77 64
3 64 76 79
3 62 52 80
3 63 81 65
3 92 78 77
3 65 82 66
3 65 81 82
3 92 77 93
3 53 94 80
3 66 82 68
3 82 83 68
3 94 53 67
3 84 86 83
3 70 68 83
3 83 86 70
3 72 95 85
3 87 73 74
3 69 73 87
3 69 97 67
3 99 71 88
3 99 75 71
3 87 97 69
3 58 100 60
3 60 90 63
3 100 90 60
3 89 76 62
3 62 80 89
3 101 61 78
3 80 102 89
3 63 91 81
3 63 90 91
3 102 80 94
3 105 92 93
3 82 81 83
3 81 84 83
3 81 104 84
3 95 105 93
3 84 104 96
3 94 67 106
3 105 95 108
3 86 84 96
3 86 96 88
3 108 95 72
3 85 109 74
3 88 71 86
3 108 72 111
3 98 106 67
3 112 97 87
3 97 112 98
3 97 98 67
3 75 99 111
3 111 72 75
3 58 61 113
3 113 61 101
3 76 89 114
3 76 115 79
3 76 114 115
3 102 114 89
3 117 101 78
3 117 78 92
3 94 103 102
3 103 94 119
3 91 104 81
3 120 92 105
3 120 105 122
3 119 94 107
3 93 121 95
3 106 107 94
3 122 105 108
3 110 107 106
3 88 96 124
3 125 108 111
3 74 109 87
3 126 106 98
3 106 126 110
3 88 127 99
3 127 111 99
3 100 58 113
3 116 90 100
3 114 118 115
3 129 118 114
3 102 128 129
3 114 102 129
3 102 103 128
3 103 131 128
3 116 91 90
3 77 79 115
3 131 103 119
3 116 135 91
3 135 104 91
3 117 92 120
3 121 77 115
3 93 77 121
3 131 119 137
3 137 119 107
3 121 123 95
3 135 124 104
3 124 96 104
3 85 95 123
3 137 107 139
3 109 85 123
3 122 108 125
3 139 107 110
3 109 138 98
3 138 143 98
3 87 109 112
3 109 98 112
3 98 143 126
3 126 139 110
3 88 124 127
3 144 100 113
3 113 101 130
3 100 144 116
3 117 130 101
3 129 128 145
3 118 129 146
3 128 131 132
3 134 132 131
3 116 147 135
3 120 133 117
3 115 118 121
3 118 136 121
3 137 134 131
3 133 120 122
3 121 136 123
3 134 137 140
3 135 150 124
3 136 138 123
3 139 140 137
3 123 138 109
3 142 140 139
3 138 151 143
3 139 154 142
3 127 124 141
3 155 125 111
3 143 153 126
3 126 153 154
3 126 154 139
3 111 127 155
3 144 130 156
3 130 144 113
3 144 147 116
3 146 129 145
3 145 128 132
3 160 145 132
3 146 148 118
3 160 132 134
3 136 118 148
3 160 134 163
3 147 150 135
3 149 136 148
3 163 134 140
3 163 140 165
3 138 136 149
3 122 125 164
3 141 124 150
3 138 149 151
3 165 140 142
3 151 153 143
3 165 142 154
3 125 155 152
3 127 167 155
3 158 156 130
3 158 130 157
3 157 130 117
3 159 147 144
3 157 117 161
3 146 168 148
3 146 145 160
3 168 170 148
3 162 147 159
3 133 161 117
3 162 173 147
3 173 150 147
3 170 174 148
3 174 149 148
3 164 133 122
3 163 165 166
3 154 177 166
3 166 165 154
3 173 178 150
3 174 151 149
3 178 141 150
3 125 152 164
3 153 151 177
3 177 154 153
3 178 127 141
3 127 178 167
3 155 179 152
3 155 167 179
3 159 144 156
3 161 180 157
3 170 168 171
3 168 146 171
3 146 172 171
3 146 160 172
3 169 162 159
3 180 161 133
3 160 163 172
3 181 162 169
3 162 181 173
3 180 133 182
3 175 170 171
3 174 170 175
3 171 172 175
3 172 166 175
3 172 163 166
3 182 133 164
3 182 164 183
3 166 177 175
3 178 173 176
3 152 183 164
3 151 174 175
3 176 184 178
3 177 151 175
3 178 184 167
3 156 185 186
3 185 156 158
3 156 186 159
3 187 158 157
3 159 186 169
3 157 188 187
3 188 157 180
3 176 173 181
3 194 183 152
3 195 184 193
3 167 184 195
3 152 179 194
3 195 179 167
3 187 188 189
3 188 180 190
3 191 190 180
3 182 191 180
3 192 191 182
3 183 192 182
3 181 193 176
3 193 184 176
3 179 198 194
3 179 195 198
3 185 158 187
3 190 189 188
3 200 169 186
3 200 201 169
3 201 181 169
3 201 202 181
3 202 193 181
3 193 202 196
3 196 195 193
3 198 195 204
3 185 187 205
3 205 187 206
3 207 206 187
3 186 205 199
3 186 185 205
3 200 186 199
3 201 196 202
3 203 192 183
3 183 194 203
3 194 198 197
3 196 204 195
3 204 211 198
3 198 211 197
3 205 206 207
3 207 187 208
3 208 187 189
3 208 189 190
3 199 209 200
3 201 200 209
3 210 201 209
3 196 201 210
3 194 197 203
3 196 213 214
3 214 204 196
3 214 211 204
3 217 207 212
3 217 205 207
3 212 207 208
3 212 208 218
3 199 221 209
3 190 222 218
3 190 218 208
3 190 224 222
3 221 223 209
3 224 190 191
3 223 225 209
3 225 210 209
3 224 191 192
3 225 213 210
3 213 196 210
3 203 197 226
3 226 197 216
3 215 211 214
3 216 211 215
3 216 197 211
3 205 219 199
3 217 219 205
3 212 220 217
3 199 219 221
3 220 212 228
3 221 219 223
3 224 192 231
3 231 192 234
3 234 192 203
3 226 234 203
3 216 215 227
3 212 218 236
3 228 212 236
3 218 222 236
3 229 223 219
3 225 223 229
3 230 225 229
3 213 225 230
3 230 235 213
3 233 232 227
3 215 233 227
3 232 242 227
3 235 214 213
3 215 214 235
3 227 242 216
3 216 242 226
3 242 234 226
3 237 219 217
3 217 220 237
3 238 236 222
3 244 228 236
3 224 238 222
3 220 239 237
3 228 240 220
3 240 239 220
3 240 228 244
3 237 229 219
3 246 237 239
3 238 224 247
3 233 246 239
3 239 240 233
3 240 232 233
3 247 224 231
3 241 246 233
3 240 248 232
3 247 231 243
3 230 241 235
3 242 232 248
3 215 235 241
3 241 233 215
3 234 242 243
3 231 234 243
3 238 245 236
3 244 236 245
3 237 246 229
3 244 250 240
3 245 238 251
3 251 238 247
3 230 229 246
3 250 248 240
3 251 247 249
3 246 241 230
3 249 247 243
3 249 243 248
3 243 242 248
3 244 245 250
3 245 251 250
3 250 251 248
3 251 249 248
