ply
format ascii 1.0
element vertex 252
property float x
property float y
property float z
element face 500
property list uchar int vertex_indices
end_header
-0.570329 -0.000451 0.810393
-0.545702 -0.116749 0.809838
-0.484176 -0.194241 0.832643
-0.547273 -0.076969 -0.404608
-0.479393 -0.191245 -0.137073
-0.491699 -0.142053 -0.058740
-0.519224 -0.121433 0.963993
-0.519680 -0.083920 -0.512542
-0.506522 -0.074726 0.755149
-0.509610 0.015579 -0.039654
-0.540642 -0.018019 1.002389
-0.491762 -0.072643 1.051763
-0.574635 0.030506 0.902164
-0.536416 0.044435 -0.497416
-0.537347 0.070473 -0.136723
-0.510342 0.072194 0.750069
-0.506628 0.083415 1.004162
-0.547923 0.118892 0.823590
-0.492483 0.125223 -0.528900
-0.490621 0.134844 -0.056045
-0.518758 0.146083 -0.407362
-0.484948 0.209039 0.898554
-0.412415 -0.236463 -0.461720
-0.413549 -0.258045 -0.289327
-0.443749 -0.222026 0.964239
-0.479158 -0.157501 -0.513155
-0.518378 -0.147888 -0.441463
-0.366913 -0.136366 0.737395
-0.343752 -0.114898 -0.678230
-0.444977 -0.117924 0.059246
-0.397773 -0.144048 0.122439
-0.372838 -0.001009 -0.676240
-0.427392 0.013592 0.114964
-0.465851 -0.000405 0.052830
-0.450209 0.111795 0.047064
-0.399486 0.151733 0.112831
-0.502296 0.148710 0.768835
-0.382019 0.142040 0.738873
-0.462503 0.205239 0.818638
-0.437914 0.218112 0.974329
-0.422182 0.244127 -0.389135
-0.403328 0.249235 -0.104811
-0.364944 -0.262486 -0.054758
-0.432325 -0.228368 0.820328
-0.404357 -0.257006 0.893173
-0.413636 -0.192696 0.049215
-0.263175 -0.194646 -0.642173
-0.439303 -0.150852 1.042752
-0.351193 -0.128064 0.244004
-0.381528 -0.007970 0.232565
-0.337226 -0.064015 0.345836
-0.418914 -0.027489 1.079394
-0.383893 0.001380 0.700265
-0.338169 0.066428 0.339279
-0.402467 0.130708 1.047000
-0.345892 0.114903 -0.672324
-0.367930 0.118062 0.210365
-0.365072 0.217652 -0.567017
-0.415897 0.188120 0.045717
-0.312234 0.237224 0.161700
-0.387626 0.257207 0.909429
-0.251071 -0.277897 -0.543287
-0.326924 -0.283645 -0.402377
-0.353424 -0.281474 -0.302251
-0.339792 -0.275019 -0.174192
-0.307250 -0.275610 0.895143
-0.273864 -0.267290 -0.308305
-0.246742 -0.238138 -0.171716
-0.302278 -0.238561 0.159863
-0.277194 -0.257014 0.813600
-0.336836 -0.242513 0.970821
-0.293417 -0.172859 0.343795
-0.236923 -0.214606 0.735628
-0.274231 -0.146471 0.422518
-0.206473 -0.125546 1.061193
-0.309825 -0.009297 0.424383
-0.275109 0.130225 0.434245
-0.187585 0.149062 1.038622
-0.257165 0.187549 -0.648967
-0.268248 0.208382 0.342302
-0.216806 0.224033 0.737054
-0.245071 0.254935 0.799410
-0.341720 0.240909 0.971625
-0.344136 0.281178 -0.449491
-0.322112 0.278089 -0.311265
-0.358761 0.276527 -0.172724
-0.257881 0.249768 -0.183053
-0.249215 0.282806 0.112042
-0.269436 0.280387 -0.549999
-0.245116 -0.281474 0.001315
-0.243081 -0.288594 0.089089
-0.123183 -0.243729 -0.407887
-0.168740 -0.289952 0.231186
-0.194611 -0.252290 0.379582
-0.176168 -0.180820 -0.290775
-0.186672 -0.224693 0.508742
-0.201371 -0.195277 0.650670
-0.272719 -0.090464 -0.710407
-0.191869 -0.160436 -0.215610
-0.260258 -0.096847 0.515867
-0.270017 -0.081900 0.640598
-0.275781 0.021388 0.519497
-0.290747 0.036150 0.653270
-0.270643 0.050847 -0.710960
-0.245791 0.131379 0.517501
-0.181750 0.219580 0.636033
-0.189108 0.167202 -0.198196
-0.205935 0.230704 0.448288
-0.245710 0.252472 -0.306159
-0.193075 0.191141 -0.275993
-0.128195 0.263628 0.132107
-0.183397 0.283122 0.293388
-0.219664 0.291086 -0.490389
-0.120833 -0.272737 -0.578971
-0.135514 -0.272149 -0.478790
-0.105278 -0.269613 0.188359
-0.110014 -0.290327 0.331085
-0.134941 -0.263775 0.693115
-0.153181 -0.265989 0.852595
-0.140775 -0.221596 -0.011923
-0.129744 -0.273177 0.443904
-0.142643 -0.188726 0.996922
-0.147177 -0.156179 -0.113531
-0.159674 -0.083613 -0.252887
-0.152177 -0.049484 -0.195077
-0.144579 0.067022 -0.264919
-0.161224 0.090349 -0.207871
-0.137879 0.030851 1.050481
-0.093731 0.140548 1.001632
-0.138064 0.118863 -0.114620
-0.162824 0.207780 -0.080331
-0.170760 0.283652 -0.563009
-0.140542 0.224960 0.950079
-0.085293 0.227451 -0.420964
-0.122085 0.280186 0.468894
-0.131368 0.269745 0.732915
-0.152085 0.271702 0.849852
-0.066365 0.275382 -0.506716
-0.083606 0.279188 0.271460
0.009105 -0.200644 0.783318
-0.007008 -0.181363 0.151335
0.347295 -0.101287 -0.693059
-0.093482 -0.137355 -0.036953
-0.055888 -0.173650 0.058215
-0.081007 -0.106479 1.016424
-0.041404 -0.016590 -0.343671
-0.114003 -0.054265 -0.107006
0.337591 0.012555 -0.713350
-0.079363 0.050182 -0.036765
0.339146 0.075241 -0.703016
-0.036872 0.106106 -0.357937
-0.104107 0.182644 -0.008195
-0.048406 0.153779 0.063149
-0.019188 0.195484 0.160379
0.005431 0.206448 0.814600
-0.052767 -0.275232 0.397757
-0.045193 -0.266223 0.743022
-0.031534 -0.213697 -0.424798
0.025472 -0.192580 0.263313
-0.032490 -0.110873 -0.373306
0.005712 -0.103528 0.109152
0.051075 -0.127450 0.200979
0.067967 -0.100772 0.830512
-0.033949 -0.042678 0.034149
0.013298 0.085322 0.116470
0.055005 -0.005535 0.898787
0.061125 0.100275 0.824277
0.049568 0.109025 0.185161
0.024134 0.190095 0.299129
0.240409 0.278864 -0.547979
-0.049261 0.276228 0.360850
-0.042954 0.268631 0.689060
0.137134 -0.257460 -0.476136
0.113974 -0.205674 -0.426902
0.106615 -0.072315 -0.356528
0.079363 -0.097183 0.292408
0.068442 -0.009097 0.190817
0.098920 0.003402 0.784025
0.083904 0.044686 0.262771
0.092744 0.048658 -0.354208
0.132030 0.153625 -0.372568
0.339497 0.187091 -0.637914
0.120475 0.234647 -0.435992
0.185759 0.269782 -0.481182
0.245207 -0.281477 -0.547518
0.362001 -0.195179 -0.633912
0.206915 -0.155299 -0.344129
0.280330 -0.288227 -0.496402
0.270379 -0.223102 -0.378180
0.196325 -0.066813 -0.308668
0.264554 -0.071066 -0.285408
0.197825 0.030148 -0.307917
0.288582 0.042045 -0.274586
0.256839 0.240161 -0.398227
0.331357 -0.286143 -0.522003
0.288621 -0.157837 -0.309755
0.266265 0.140362 -0.314506
0.374974 0.271044 -0.538738
0.292054 0.286131 -0.493866
0.380308 -0.282763 -0.457100
0.414861 -0.117350 -0.678090
0.583577 -0.031789 -0.226148
0.484202 0.182619 -0.606731
0.348399 0.229482 -0.352898
0.378797 0.276655 -0.432704
0.472926 -0.266474 -0.518315
0.599592 -0.239575 -0.331248
0.556533 -0.151790 -0.268384
0.425814 0.031548 -0.684379
0.526007 0.118054 -0.260064
0.541217 -0.208354 -0.587790
0.492329 -0.107869 -0.653341
0.549570 0.056706 -0.646224
0.549872 0.269718 -0.504696
0.586377 -0.280466 -0.410712
0.825416 -0.201626 -0.536019
0.654159 -0.144573 -0.239527
0.823188 -0.108294 -0.591971
0.789007 -0.013627 -0.624624
0.686834 -0.035277 -0.194858
0.674569 0.084935 -0.211353
0.819038 0.066675 -0.611264
0.803928 0.168952 -0.549654
0.595187 0.228385 -0.321322
0.612663 0.285042 -0.422189
0.707454 -0.284004 -0.428763
0.735630 -0.222091 -0.268829
0.784677 -0.130361 -0.213770
0.735504 0.216920 -0.268478
0.815500 -0.275252 -0.418537
0.765670 -0.277788 -0.353241
0.821455 0.032229 -0.192171
0.803672 0.122332 -0.202868
0.724556 0.278532 -0.452505
0.748137 0.272050 -0.360919
0.823269 -0.214787 -0.270898
0.893333 -0.117672 -0.255506
0.861554 0.039017 -0.595885
0.888476 0.132507 -0.252761
0.903716 0.173480 -0.495480
0.809065 0.224894 -0.279587
0.855427 0.234336 -0.433533
0.852568 0.234352 -0.335457
0.898524 -0.210650 -0.435951
0.878964 -0.223537 -0.344699
0.903802 -0.140543 -0.515741
0.957081 -0.084313 -0.360001
0.936449 0.042771 -0.498280
0.951434 0.032749 -0.281524
0.957114 0.130670 -0.425439
0.948959 0.131397 -0.339229
0.982092 0.052144 -0.357880
3 0 17 12
3 3 4 26
3 2 1 6
3 7 3 26
3 8 1 2
3 4 3 5
3 5 3 9
3 0 1 8
3 1 0 6
3 6 10 11
3 12 6 0
3 6 12 10
3 7 13 3
3 3 13 14
3 3 14 9
3 8 15 0
3 11 10 16
3 9 14 19
3 17 0 15
3 10 12 16
3 20 13 18
3 13 20 14
3 14 20 19
3 36 17 15
3 12 17 16
3 16 17 21
3 36 38 17
3 38 21 17
3 23 4 42
3 42 4 45
3 43 2 44
3 2 24 44
3 25 26 22
3 22 26 23
3 23 26 4
3 45 4 5
3 45 5 29
3 43 27 2
3 2 6 24
3 24 6 47
3 28 7 25
3 25 7 26
3 27 8 2
3 11 47 6
3 28 31 7
3 9 29 5
3 30 29 32
3 11 51 47
3 33 29 9
3 29 33 32
3 27 52 8
3 7 31 13
3 52 15 8
3 51 11 16
3 34 33 9
3 33 34 32
3 52 37 15
3 51 16 54
3 13 31 18
3 19 34 9
3 32 34 35
3 15 37 36
3 16 21 39
3 39 54 16
3 57 40 18
3 40 20 18
3 19 20 41
3 58 19 41
3 19 58 34
3 36 37 38
3 20 40 41
3 38 60 21
3 60 39 21
3 62 23 63
3 22 23 62
3 63 23 64
3 23 42 64
3 69 44 65
3 65 44 70
3 44 69 43
3 70 44 24
3 46 25 22
3 69 27 43
3 70 24 47
3 25 46 28
3 45 29 30
3 49 48 30
3 32 49 30
3 74 47 51
3 48 49 50
3 50 49 53
3 31 55 18
3 56 49 32
3 35 56 32
3 55 57 18
3 34 58 35
3 56 35 59
3 35 58 59
3 81 38 37
3 77 54 82
3 82 54 39
3 59 58 41
3 81 60 38
3 60 82 39
3 57 83 40
3 83 84 40
3 84 85 40
3 40 85 41
3 61 46 22
3 62 61 22
3 66 62 63
3 64 66 63
3 67 66 64
3 67 64 89
3 64 42 89
3 90 89 42
3 42 68 90
3 45 68 42
3 30 68 45
3 72 27 69
3 28 46 97
3 48 68 30
3 68 48 71
3 72 100 27
3 71 48 50
3 71 50 73
3 97 31 28
3 50 75 73
3 99 75 101
3 73 75 99
3 100 102 27
3 102 52 27
3 97 103 31
3 53 75 50
3 103 55 31
3 53 49 56
3 75 53 76
3 101 76 104
3 75 76 101
3 102 37 52
3 55 103 78
3 55 78 57
3 53 56 79
3 76 53 79
3 37 102 80
3 56 59 79
3 37 80 81
3 78 88 57
3 84 108 86
3 59 41 87
3 83 57 88
3 85 84 86
3 86 87 85
3 85 87 41
3 88 112 83
3 83 112 84
3 114 61 62
3 113 46 61
3 114 62 66
3 92 90 68
3 69 117 72
3 117 69 118
3 69 65 118
3 91 66 94
3 67 94 66
3 67 89 119
3 93 92 68
3 71 93 68
3 118 65 70
3 121 118 70
3 98 94 67
3 73 93 71
3 93 73 95
3 121 70 74
3 74 70 47
3 73 99 95
3 72 96 100
3 95 99 96
3 96 99 100
3 99 101 100
3 100 101 102
3 74 51 127
3 127 51 54
3 101 104 102
3 102 104 105
3 127 54 77
3 104 76 107
3 104 107 105
3 102 105 80
3 109 106 86
3 106 130 86
3 79 107 76
3 88 78 131
3 86 108 109
3 86 130 110
3 111 79 59
3 79 111 107
3 77 82 132
3 88 131 112
3 108 84 112
3 87 86 110
3 87 111 59
3 81 136 60
3 136 82 60
3 132 82 136
3 61 114 113
3 114 66 91
3 115 89 90
3 90 92 115
3 116 115 92
3 93 116 92
3 116 93 120
3 119 89 115
3 95 120 93
3 117 120 95
3 96 117 95
3 72 117 96
3 97 46 141
3 98 67 122
3 67 119 122
3 98 123 94
3 122 119 142
3 121 74 144
3 98 124 123
3 98 122 124
3 141 147 97
3 144 74 127
3 147 103 97
3 123 124 125
3 124 126 125
3 124 129 126
3 127 77 128
3 149 78 103
3 126 106 125
3 126 129 106
3 109 125 106
3 129 151 130
3 133 109 108
3 130 106 129
3 128 77 132
3 130 151 110
3 105 107 134
3 135 105 134
3 80 105 135
3 137 112 131
3 133 112 137
3 133 108 112
3 138 111 110
3 110 111 87
3 111 138 134
3 111 134 107
3 135 81 80
3 135 136 81
3 155 115 116
3 116 120 155
3 120 117 155
3 155 117 156
3 156 118 139
3 156 117 118
3 157 114 91
3 118 121 139
3 94 157 91
3 142 119 143
3 140 143 115
3 115 143 119
3 159 157 94
3 144 139 121
3 145 159 94
3 94 123 145
3 124 122 146
3 122 142 146
3 143 163 142
3 142 148 146
3 142 163 148
3 127 165 144
3 123 125 145
3 129 124 146
3 145 125 150
3 146 148 129
3 163 152 148
3 109 133 150
3 125 109 150
3 148 151 129
3 148 152 151
3 153 110 152
3 152 110 151
3 154 128 132
3 153 138 110
3 154 132 136
3 169 137 131
3 134 138 170
3 170 171 134
3 134 171 135
3 136 135 171
3 113 114 172
3 156 139 155
3 115 158 140
3 115 155 158
3 155 139 158
3 173 157 174
3 174 157 159
3 140 160 143
3 140 161 160
3 140 158 161
3 144 162 139
3 174 159 145
3 143 160 163
3 161 176 160
3 160 164 163
3 160 176 164
3 162 144 165
3 176 167 164
3 147 149 103
3 179 145 150
3 163 164 152
3 128 166 127
3 166 165 127
3 180 150 133
3 152 164 153
3 164 167 153
3 167 168 153
3 128 154 166
3 78 181 131
3 133 137 182
3 168 138 153
3 154 171 168
3 171 154 136
3 169 183 137
3 168 170 138
3 171 170 168
3 184 113 172
3 172 114 157
3 173 172 157
3 46 185 141
3 185 46 113
3 161 158 175
3 158 139 175
3 139 162 175
3 162 177 175
3 161 175 176
3 175 178 176
3 175 177 178
3 165 177 162
3 179 174 145
3 176 178 167
3 180 179 150
3 178 177 166
3 165 166 177
3 167 178 168
3 178 166 168
3 168 166 154
3 182 180 133
3 137 183 182
3 173 186 172
3 174 186 173
3 186 174 189
3 189 174 191
3 174 179 191
3 179 180 191
3 181 78 149
3 169 131 181
3 187 184 172
3 185 113 184
3 172 186 188
3 187 172 188
3 188 186 195
3 195 186 190
3 190 186 189
3 191 190 189
3 192 190 191
3 192 191 196
3 196 191 180
3 182 193 180
3 180 193 196
3 198 183 169
3 183 198 193
3 183 193 182
3 194 184 187
3 199 194 187
3 194 185 184
3 199 187 188
3 201 190 192
3 203 196 193
3 197 169 181
3 193 204 203
3 169 197 198
3 193 198 204
3 204 198 197
3 194 199 205
3 185 194 205
3 206 188 195
3 141 185 200
3 207 195 190
3 200 208 141
3 208 147 141
3 208 149 147
3 192 196 209
3 202 181 208
3 181 149 208
3 209 196 203
3 202 197 181
3 210 185 205
3 206 199 188
3 207 206 195
3 210 211 185
3 211 200 185
3 211 212 208
3 200 211 208
3 209 201 192
3 202 208 212
3 213 197 202
3 213 204 197
3 205 199 214
3 214 199 206
3 215 217 210
3 217 211 210
3 201 207 190
3 217 218 211
3 218 212 211
3 221 222 212
3 222 202 212
3 213 202 222
3 223 209 203
3 204 224 223
3 203 204 223
3 213 224 204
3 216 206 207
3 201 216 207
3 201 219 216
3 220 219 201
3 209 220 201
3 220 209 223
3 205 225 210
3 214 225 205
3 225 214 206
3 225 206 230
3 225 215 210
3 206 226 230
3 226 206 216
3 227 226 216
3 216 219 227
3 231 219 220
3 232 231 220
3 232 220 228
3 220 223 228
3 233 213 222
3 223 234 228
3 233 224 213
3 224 234 223
3 224 233 234
3 225 229 215
3 229 225 230
3 235 230 226
3 235 226 227
3 227 219 231
3 218 221 212
3 232 228 240
3 234 242 240
3 228 234 240
3 233 222 241
3 234 233 241
3 234 241 242
3 215 229 243
3 229 230 244
3 243 229 244
3 244 230 235
3 215 243 245
3 236 244 235
3 215 245 217
3 235 227 236
3 237 218 217
3 231 236 227
3 221 218 237
3 232 238 231
3 222 221 237
3 240 242 238
3 232 240 238
3 239 241 222
3 243 246 245
3 243 244 246
3 244 236 246
3 247 217 245
3 237 217 247
3 245 246 247
3 248 246 236
3 251 246 248
3 236 231 248
3 250 251 248
3 231 238 248
3 222 237 247
3 248 238 250
3 239 222 247
3 247 249 239
3 239 249 241
3 249 250 241
3 250 242 241
3 238 242 250
3 251 247 246
3 251 249 247
3 250 249 251
