ply
format ascii 1.0
element vertex 252
property float x
property float y
property float z
element face 500
property list uchar int vertex_indices
end_header
-0.416029 -0.098838 -0.434899
-0.418877 -0.121295 0.363820
-0.424194 -0.114629 0.425176
-0.428304 -0.006053 -0.493662
-0.413779 0.012018 0.493077
-0.450579 -0.008593 -0.427914
-0.450407 0.033397 0.379282
-0.406677 0.097172 -0.435197
-0.376417 -0.145701 -0.499984
-0.347245 -0.184767 -0.442474
-0.356430 -0.205679 0.417211
-0.365383 -0.157985 0.501821
-0.423804 -0.024087 -0.395542
-0.415799 -0.041271 0.316816
-0.346935 -0.083416 -0.579254
-0.350684 -0.020380 0.305267
-0.341691 -0.074694 0.579699
-0.345129 0.036805 -0.583695
-0.348501 0.039506 0.576597
-0.391661 0.123739 -0.511594
-0.417660 0.106589 0.338445
-0.339228 0.112520 0.322092
-0.418000 0.148845 0.401139
-0.355518 0.171540 0.499371
-0.344650 0.191458 -0.479268
-0.346955 0.187678 -0.431306
-0.340463 0.184190 0.370490
-0.303821 -0.204624 -0.488919
-0.333139 -0.169404 0.361200
-0.283284 -0.231364 0.501204
-0.271749 -0.154864 -0.558039
-0.286465 -0.172456 0.574403
-0.296204 -0.152234 -0.363576
-0.289187 -0.000858 -0.321252
-0.285732 0.141877 -0.356572
-0.281768 0.143053 0.580571
-0.266192 0.149068 -0.553239
-0.342231 0.218255 0.429814
-0.241242 0.219658 -0.483923
-0.281994 -0.237512 0.435994
-0.255626 -0.216960 -0.422399
-0.200879 -0.221169 -0.491331
-0.190031 -0.204567 -0.355783
-0.292372 -0.053015 -0.610021
-0.190442 -0.078334 0.354395
-0.281323 -0.047321 0.619730
-0.192201 -0.029412 -0.278896
-0.195455 0.002768 0.340902
-0.255915 0.052004 -0.612034
-0.190984 0.066601 -0.290123
-0.197941 0.102771 0.362614
-0.207783 0.068994 -0.601692
-0.270271 0.215552 -0.424854
-0.182007 0.188265 -0.351724
-0.239463 0.233833 0.444329
-0.240044 0.232864 0.515579
-0.109882 -0.240874 -0.424088
-0.180877 -0.237174 0.525012
-0.129103 -0.173340 0.438905
-0.222181 -0.188784 0.589276
-0.116420 -0.160913 -0.881629
-0.098023 -0.219833 -0.768751
-0.102221 -0.189330 -0.672474
-0.096729 -0.190509 -0.521643
-0.191132 -0.130413 -0.307172
-0.109877 -0.191911 0.628658
-0.133093 -0.107694 -0.677346
-0.115008 -0.044878 -0.979616
-0.165460 0.005292 -0.902467
-0.205017 -0.013556 -0.600759
-0.196122 0.004695 0.650929
-0.141418 0.016395 -0.670431
-0.111750 0.091364 -0.951029
-0.156729 0.119940 -0.871799
-0.110686 0.155565 -0.668098
-0.193185 0.206494 0.593524
-0.098482 0.184065 0.639487
-0.088905 0.221759 -0.749655
-0.114912 0.186808 -0.890363
-0.114169 0.191410 -0.516730
-0.124486 0.164987 0.431407
-0.138731 0.234754 -0.431331
-0.043635 -0.262662 -0.820475
-0.041038 -0.260917 -0.726610
-0.075020 -0.223158 0.508880
-0.107083 -0.241736 0.571410
-0.031042 -0.240904 0.586440
-0.099499 -0.105225 -0.974167
-0.077635 -0.186878 -0.580270
-0.054954 -0.221134 -0.345835
-0.108489 -0.063188 -0.576480
-0.050899 -0.052238 -0.247636
-0.122898 -0.005520 0.383623
-0.025458 0.009680 0.439531
-0.103405 -0.005193 0.690353
-0.117840 0.059387 -0.559583
-0.100474 0.083900 -0.564859
-0.041064 0.125532 -0.259836
-0.050740 0.219236 -0.578616
-0.049073 0.231628 -0.354442
-0.042246 0.243823 -0.502337
-0.088741 0.227994 0.502394
-0.130287 0.238708 0.576756
-0.026170 0.268469 -0.826569
0.024784 0.288381 -0.732709
0.009703 0.237239 0.585999
0.012599 -0.264332 -0.414010
0.013541 -0.232808 -0.878220
0.035308 -0.273528 -0.596480
0.062406 -0.220524 0.672965
0.025103 -0.203771 -0.271075
0.036138 -0.186024 -0.179176
0.063693 -0.158959 0.097200
-0.031681 -0.168437 0.471843
-0.006327 -0.084646 -0.200395
0.021144 -0.040274 0.095031
-0.010593 0.035927 -0.187901
0.029138 0.053112 0.113063
0.034821 0.083362 0.731650
0.123268 0.098468 -0.952459
0.040897 0.186416 -0.193819
-0.038987 0.185404 0.475146
0.088426 0.178144 0.109521
0.033384 0.190917 0.487553
0.019062 0.194384 0.678783
-0.005489 0.226684 -0.897151
0.040448 0.274808 -0.568310
0.023250 0.270100 -0.428392
0.041982 -0.286481 -0.777579
0.112187 -0.281136 -0.707898
0.115149 -0.260238 0.569311
0.141664 -0.234587 -0.816541
0.128031 -0.253668 -0.281400
0.114814 -0.243941 -0.164437
0.078892 -0.211873 0.032701
0.022714 -0.201571 0.500717
0.077649 -0.107307 -0.960095
0.053670 -0.049379 0.200427
0.107519 -0.122255 0.293535
0.113147 -0.178483 0.420042
0.020788 -0.109501 0.719933
0.096331 -0.164558 0.732972
0.079987 -0.040326 0.313143
0.055529 -0.009582 0.416319
0.083140 0.044733 0.311674
0.056153 0.055422 0.202762
0.107956 0.120665 0.334186
0.100193 0.150194 0.216423
0.116067 0.195351 0.432304
0.125183 0.093581 0.769918
0.024742 0.237123 -0.312867
0.120769 0.202623 -0.892669
0.056165 0.278490 -0.818487
0.095980 0.266626 -0.310170
0.134815 0.250320 -0.162147
0.084066 0.291309 -0.723386
0.125520 -0.285082 -0.396156
0.118912 -0.278553 -0.544602
0.192194 -0.276224 -0.415742
0.170646 -0.243158 0.142545
0.275446 -0.232413 -0.426459
0.206144 -0.267557 0.434249
0.230018 -0.267569 0.661673
0.130636 -0.191207 -0.895477
0.134357 -0.194054 0.212293
0.199723 -0.240359 0.272892
0.199218 -0.113040 -0.890217
0.122256 -0.068484 0.769825
0.109772 -0.006385 -0.973240
0.207662 0.105646 -0.886232
0.104326 0.187497 0.713529
0.184516 0.233298 0.226078
0.161375 0.218173 -0.802671
0.114196 0.241296 0.499180
0.140342 0.268737 -0.546802
0.179483 0.254471 0.049468
0.195292 0.271901 0.600002
0.214710 0.182598 0.742892
0.140179 0.281091 -0.408284
0.215281 -0.293919 0.570755
0.233067 -0.247520 -0.359978
0.207282 -0.252941 -0.059492
0.229488 -0.201754 -0.631640
0.202606 -0.226923 -0.181655
0.226787 -0.148965 -0.816566
0.310698 -0.137815 -0.270661
0.259642 -0.199840 -0.093387
0.192345 -0.183745 0.744883
0.253106 -0.082801 -0.817385
0.314337 -0.082202 -0.585081
0.193064 -0.082641 0.789783
0.221036 -0.004160 -0.902256
0.258960 0.006395 -0.820177
0.293686 0.092013 -0.585336
0.199185 0.027859 0.795362
0.232241 0.119465 -0.805274
0.211990 0.206492 -0.604682
0.230259 0.214122 -0.193247
0.307680 0.159572 -0.276540
0.259671 0.202922 -0.511436
0.208688 0.251250 -0.302336
0.205788 0.255508 -0.056681
0.247663 0.217990 -0.098336
0.198108 0.269740 0.471735
0.297475 0.217286 -0.410931
0.257704 -0.290877 0.607496
0.264790 -0.263733 0.305431
0.261874 -0.280961 0.468449
0.265331 -0.248829 0.160981
0.329742 -0.232497 0.276375
0.343562 -0.234216 0.635869
0.350889 -0.180777 -0.361368
0.343139 -0.169253 0.127991
0.366618 -0.163232 -0.419112
0.296893 -0.100668 -0.205022
0.365186 -0.091763 0.100563
0.414012 -0.096998 -0.404678
0.316735 -0.051343 -0.099075
0.415158 0.021911 -0.420861
0.304383 0.075827 -0.204176
0.361122 0.090384 0.785088
0.379731 0.126670 -0.425605
0.330891 0.031736 -0.245411
0.299508 0.121952 -0.102411
0.337874 0.172761 0.124395
0.358912 0.188773 0.732705
0.321266 0.204300 -0.348387
0.254014 0.237722 0.056602
0.281017 0.243843 0.188899
0.270994 0.275277 0.413101
0.343623 0.226844 0.314993
0.316704 0.273067 0.558750
0.304104 0.256713 0.654827
0.266937 0.288605 0.559445
0.408194 -0.130237 0.272166
0.348193 -0.196369 0.733602
0.415648 -0.111417 0.723257
0.405249 -0.116788 -0.358607
0.405556 -0.070228 0.184041
0.345719 -0.080039 0.787396
0.372733 0.014165 0.086318
0.421934 0.048992 0.199113
0.400943 0.110809 -0.367314
0.419120 0.125369 0.271571
0.416298 0.112899 0.725768
0.373101 0.213791 0.650920
0.438407 -0.014562 -0.362384
0.439776 -0.031721 0.272863
0.452608 0.008763 0.730521
0.403116 0.015744 -0.310463
0.433114 0.008738 0.778552
0.443295 0.071452 0.279403
3 2 4 11
3 0 3 5
3 0 5 12
3 2 1 6
3 2 6 4
3 6 1 13
3 5 3 7
3 5 7 12
3 20 6 13
3 7 3 19
3 4 6 22
3 20 22 6
3 8 9 27
3 1 10 28
3 30 8 27
3 9 8 0
3 9 0 32
3 10 1 2
3 10 2 11
3 14 8 30
3 0 12 32
3 1 28 13
3 28 15 13
3 14 3 8
3 8 3 0
3 32 12 33
3 11 4 16
3 14 17 3
3 18 16 4
3 33 12 7
3 15 21 20
3 13 15 20
3 17 19 3
3 33 7 34
3 4 22 23
3 23 35 18
3 4 23 18
3 19 24 7
3 7 24 25
3 7 25 34
3 26 20 21
3 20 26 22
3 26 37 22
3 37 23 22
3 10 29 39
3 40 27 9
3 9 32 40
3 28 10 39
3 11 29 10
3 29 11 31
3 16 31 11
3 14 30 43
3 44 15 28
3 31 16 45
3 43 17 14
3 44 47 15
3 45 16 18
3 43 48 17
3 47 50 21
3 15 47 21
3 45 18 35
3 36 17 48
3 17 36 19
3 19 36 24
3 52 34 25
3 26 21 50
3 36 38 24
3 38 52 24
3 24 52 25
3 26 54 37
3 23 55 35
3 37 55 23
3 54 55 37
3 41 27 40
3 41 40 56
3 56 40 42
3 39 57 58
3 39 29 57
3 29 59 57
3 30 27 41
3 40 32 42
3 58 28 39
3 59 29 31
3 42 32 64
3 28 58 44
3 59 31 45
3 30 69 43
3 46 64 33
3 33 64 32
3 59 45 70
3 69 48 43
3 69 51 48
3 49 46 33
3 70 45 35
3 49 33 34
3 70 35 75
3 53 49 34
3 36 48 51
3 52 53 34
3 26 50 80
3 54 26 80
3 35 55 75
3 38 81 52
3 52 81 53
3 57 84 58
3 85 84 57
3 85 57 65
3 63 41 56
3 64 89 42
3 57 59 65
3 62 61 66
3 63 30 41
3 61 60 66
3 87 67 60
3 67 68 60
3 60 68 66
3 30 63 69
3 91 64 46
3 58 92 44
3 65 70 94
3 59 70 65
3 66 68 71
3 66 71 90
3 63 95 69
3 92 47 44
3 67 72 68
3 71 96 90
3 69 95 51
3 68 73 71
3 91 46 49
3 92 50 47
3 73 68 72
3 71 73 74
3 71 74 96
3 92 80 50
3 75 76 70
3 70 76 94
3 73 77 74
3 51 95 36
3 36 95 79
3 97 49 53
3 78 73 72
3 73 78 77
3 97 53 99
3 79 38 36
3 54 80 101
3 79 81 38
3 101 55 54
3 75 55 102
3 55 101 102
3 75 102 76
3 107 60 82
3 60 61 82
3 82 61 83
3 106 63 56
3 106 56 89
3 89 56 42
3 84 85 86
3 85 65 86
3 60 107 87
3 62 83 61
3 83 62 88
3 113 58 84
3 66 88 62
3 91 89 64
3 90 88 66
3 88 90 63
3 92 58 93
3 58 113 93
3 90 96 95
3 63 90 95
3 97 91 49
3 80 92 93
3 93 121 80
3 118 94 76
3 96 98 79
3 95 96 79
3 74 98 96
3 118 76 124
3 78 72 125
3 98 74 77
3 100 79 98
3 101 121 123
3 101 80 121
3 103 78 125
3 78 103 77
3 77 103 104
3 98 77 104
3 100 127 81
3 100 81 79
3 81 127 99
3 81 99 53
3 101 105 102
3 101 123 105
3 105 76 102
3 128 83 108
3 82 128 107
3 83 128 82
3 83 88 108
3 63 108 88
3 108 63 106
3 89 110 106
3 130 135 86
3 135 84 86
3 130 86 109
3 109 86 65
3 136 87 107
3 111 112 134
3 84 135 113
3 91 110 89
3 111 110 114
3 111 114 112
3 140 109 65
3 110 91 114
3 112 114 115
3 112 115 137
3 135 143 113
3 143 93 113
3 140 65 94
3 116 114 91
3 114 116 115
3 115 116 117
3 137 117 145
3 115 117 137
3 140 94 118
3 97 116 91
3 116 97 120
3 116 120 117
3 145 117 122
3 143 123 93
3 123 121 93
3 117 120 122
3 119 125 72
3 150 97 99
3 150 120 97
3 100 98 126
3 100 126 127
3 99 127 150
3 124 76 105
3 152 103 125
3 152 104 103
3 104 126 98
3 128 108 129
3 157 106 156
3 128 131 107
3 128 129 131
3 129 108 157
3 106 157 108
3 106 132 156
3 133 134 159
3 107 131 163
3 106 110 132
3 132 110 133
3 159 134 112
3 139 135 130
3 163 136 107
3 111 133 110
3 134 133 111
3 137 164 112
3 137 138 164
3 140 141 109
3 138 142 139
3 141 140 167
3 87 136 67
3 139 142 143
3 135 139 143
3 136 168 67
3 138 137 142
3 142 144 143
3 168 72 67
3 137 145 142
3 167 118 149
3 140 118 167
3 168 119 72
3 142 145 144
3 144 146 143
3 122 147 145
3 145 147 144
3 143 146 148
3 143 148 123
3 144 147 146
3 170 149 118
3 170 118 124
3 151 125 119
3 123 148 173
3 151 152 125
3 150 153 120
3 120 153 154
3 120 154 122
3 123 173 105
3 170 124 105
3 126 155 174
3 174 127 126
3 127 153 150
3 154 175 122
3 176 105 173
3 170 105 176
3 155 104 152
3 155 126 104
3 174 178 127
3 127 178 153
3 156 158 157
3 157 158 160
3 158 156 180
3 180 156 132
3 133 159 181
3 179 161 130
3 130 109 162
3 130 162 179
3 129 157 182
3 131 129 182
3 182 157 160
3 132 133 183
3 183 133 181
3 159 112 164
3 164 165 159
3 165 139 161
3 161 139 130
3 109 187 162
3 163 131 166
3 141 187 109
3 166 136 163
3 138 165 164
3 139 165 138
3 141 167 187
3 187 167 190
3 166 191 168
3 136 166 168
3 190 167 194
3 194 167 149
3 191 169 119
3 168 191 119
3 194 149 177
3 151 119 169
3 171 146 147
3 148 146 171
3 170 177 149
3 151 169 172
3 172 152 151
3 172 155 152
3 172 196 174
3 155 172 174
3 200 197 154
3 153 200 154
3 197 201 154
3 122 175 171
3 122 171 147
3 171 203 148
3 203 173 148
3 153 178 200
3 201 175 154
3 203 176 173
3 176 177 170
3 180 160 158
3 165 161 206
3 206 161 207
3 207 161 179
3 205 207 179
3 205 179 162
3 182 184 131
3 180 132 185
3 183 185 132
3 186 183 181
3 186 181 208
3 181 159 208
3 165 206 208
3 165 208 159
3 131 184 166
3 184 188 166
3 184 182 188
3 182 189 188
3 185 183 214
3 166 188 191
3 188 192 191
3 188 189 192
3 189 193 192
3 191 192 169
3 192 195 169
3 192 193 195
3 195 193 196
3 198 219 197
3 220 194 177
3 193 199 196
3 195 172 169
3 195 196 172
3 198 197 200
3 174 196 199
3 199 204 174
3 201 197 202
3 202 227 201
3 201 227 175
3 171 175 227
3 171 227 228
3 225 177 232
3 204 178 174
3 200 178 204
3 228 229 171
3 171 229 203
3 203 229 233
3 176 233 232
3 177 176 232
3 233 176 203
3 207 209 206
3 162 210 205
3 211 160 180
3 208 206 209
3 209 207 210
3 207 205 210
3 210 162 235
3 162 187 235
3 182 160 213
3 213 160 211
3 180 185 211
3 186 208 212
3 208 209 212
3 189 182 213
3 235 187 239
3 216 189 213
3 183 186 214
3 186 217 214
3 186 212 217
3 212 215 217
3 239 187 190
3 193 189 218
3 222 185 214
3 219 222 214
3 214 217 219
3 239 190 194
3 239 194 220
3 217 223 219
3 223 240 224
3 198 222 219
3 219 223 197
3 199 193 221
3 221 204 199
3 202 197 223
3 226 198 200
3 202 223 227
3 223 224 227
3 224 230 228
3 220 177 225
3 200 204 226
3 228 227 224
3 230 229 228
3 231 229 230
3 229 231 233
3 233 231 232
3 210 234 209
3 209 234 212
3 210 236 234
3 235 236 210
3 211 237 213
3 215 212 238
3 212 234 238
3 235 239 236
3 237 216 213
3 211 185 237
3 218 189 216
3 249 237 185
3 222 249 185
3 215 240 217
3 215 238 240
3 238 241 240
3 236 239 250
3 250 239 220
3 217 240 223
3 221 193 218
3 218 242 221
3 240 241 224
3 242 249 198
3 249 222 198
3 251 243 241
3 241 243 224
3 244 250 220
3 221 242 204
3 242 226 204
3 242 198 226
3 243 244 245
3 224 243 230
3 225 245 244
3 244 220 225
3 245 230 243
3 231 230 245
3 232 231 245
3 245 225 232
3 237 246 216
3 247 238 234
3 234 236 247
3 236 248 247
3 218 216 246
3 237 249 246
3 241 238 247
3 236 250 248
3 242 218 246
3 246 249 242
3 251 241 247
3 247 248 251
3 248 244 251
3 248 250 244
3 244 243 251
