ply
format ascii 1.0
element vertex 252
property float x
property float y
property float z
element face 500
property list uchar int vertex_indices
end_header
-0.741308 -0.176038 -0.814162
-0.717477 -0.218387 -0.737074
-0.764517 -0.109893 -0.602571
-0.776221 -0.115819 -0.811885
-0.789810 -0.025067 -0.828755
-0.771424 0.038928 -0.602916
-0.782162 0.079219 -0.821142
-0.711892 0.192489 -0.797144
-0.733773 0.204288 -0.730387
-0.720750 0.180266 -0.580097
-0.662324 -0.263884 -0.738137
-0.646074 -0.275920 -0.676297
-0.678789 -0.222942 -0.794723
-0.684078 -0.215336 -0.541827
-0.673576 -0.168300 -0.434953
-0.736621 -0.086775 -0.494760
-0.702269 -0.014071 -0.415723
-0.733357 -0.085395 -0.862249
-0.722072 0.031577 -0.874535
-0.725391 0.086574 -0.495774
-0.660131 0.174108 -0.428659
-0.676073 0.270282 -0.724474
-0.659946 0.274197 -0.653426
-0.591509 -0.291037 -0.616156
-0.579775 -0.273874 -0.486818
-0.596982 -0.177152 -0.310621
-0.657947 -0.044514 -0.329339
-0.576616 -0.067790 -0.199931
-0.648120 0.107074 -0.336758
-0.560597 0.104827 -0.204565
-0.670344 0.219741 -0.516038
-0.584642 0.201585 -0.315923
-0.581058 0.282952 -0.518526
-0.579945 -0.273834 -0.726469
-0.508534 -0.288885 -0.614067
-0.487168 -0.304890 -0.477611
-0.455634 -0.281074 -0.298299
-0.499627 -0.185550 -0.178253
-0.508990 -0.197853 -0.833370
-0.421815 -0.112509 -0.030689
-0.441617 -0.076743 -0.879819
-0.414385 -0.010617 0.002468
-0.422505 0.038628 -0.874680
-0.507512 0.208293 -0.816921
-0.585258 0.290588 -0.702157
-0.446189 0.288128 -0.319686
-0.496991 0.290946 -0.632355
-0.489427 0.309173 -0.486212
-0.411232 -0.281140 -0.494089
-0.431514 -0.307853 -0.381992
-0.444179 -0.197498 -0.800576
-0.218355 0.088952 0.192874
-0.439452 0.233483 -0.170266
-0.357637 0.169408 -0.001057
-0.503076 0.274123 -0.746353
-0.395749 0.280676 -0.458514
-0.369977 -0.290792 -0.291955
-0.386654 -0.195967 -0.679148
-0.352043 -0.274857 -0.172627
-0.287295 -0.242262 -0.015960
-0.381501 -0.059137 -0.829432
-0.314652 -0.081772 -0.663444
-0.321017 0.050577 -0.689054
-0.380124 0.088317 -0.811982
-0.440278 0.197628 -0.798414
-0.368516 0.185796 -0.660527
-0.341717 0.278238 -0.295462
-0.276031 -0.217338 -0.412567
-0.252209 -0.253623 -0.216229
-0.263142 -0.153316 -0.512669
-0.213300 -0.028656 -0.474848
-0.248203 0.125648 -0.505029
-0.287003 0.202147 -0.493899
-0.268908 0.207174 -0.411799
-0.206814 0.206735 -0.266171
-0.313175 0.281656 -0.174389
-0.183524 -0.294484 -0.055116
-0.169210 -0.208723 -0.208346
-0.217412 -0.140283 -0.426835
-0.179185 -0.092814 -0.341190
-0.167692 -0.183809 0.220103
-0.131226 -0.136725 -0.822296
-0.203074 -0.022650 -0.838474
-0.210969 -0.008589 0.252842
-0.136649 0.136199 -0.795200
-0.173201 0.084336 -0.351175
-0.135784 0.222912 0.190100
-0.199092 0.284113 -0.038692
-0.233644 0.263127 -0.186275
-0.065592 -0.307498 0.083425
-0.164095 -0.082803 0.439439
-0.092772 -0.156366 -0.692122
-0.138062 -0.078022 0.519691
-0.132067 -0.038533 -0.301514
-0.179087 -0.041897 -0.874599
-0.164243 -0.007611 -0.350957
-0.152585 0.043974 0.498580
-0.187602 0.030369 -0.867557
-0.165395 0.073393 0.432849
-0.168636 0.103453 0.285259
-0.107513 0.022414 -0.650498
-0.102914 0.112687 -0.297490
-0.087034 0.185864 0.485468
-0.116832 0.181198 0.414474
-0.055591 0.304775 0.108870
-0.167038 0.281438 -0.118907
0.020910 -0.342621 -0.019350
-0.127976 -0.280968 -0.125429
0.009490 -0.292815 -0.168384
-0.099240 -0.207893 -0.211008
-0.023486 -0.303633 0.191861
-0.103839 -0.197898 0.401832
-0.020100 -0.232185 -0.718641
-0.075261 -0.189147 0.499401
-0.028441 -0.173505 -0.606509
-0.109343 -0.125276 -0.859545
-0.059942 0.042190 -0.580289
-0.040660 -0.041956 -0.336090
0.018046 0.138793 -0.401163
-0.077580 0.150054 -0.654731
-0.143171 0.144764 -0.830992
-0.028834 0.180893 -0.606673
-0.128572 0.235807 -0.200851
0.020855 0.212216 -0.322713
0.007590 0.183430 0.654392
-0.017915 0.236714 -0.721541
0.019220 0.289990 -0.181681
0.012755 0.332596 -0.025136
0.046248 -0.355613 0.067357
0.080404 -0.327820 0.394776
0.047520 -0.268045 -0.732492
0.072463 -0.262615 -0.608593
0.029585 -0.220083 -0.797636
0.033031 -0.206114 -0.339825
0.003420 -0.170759 0.652223
0.031857 -0.178151 -0.511563
0.028790 -0.138045 -0.423566
0.070687 -0.169879 0.740604
-0.029785 0.011429 0.677202
0.003654 0.008619 0.731299
-0.002754 0.058404 -0.484424
0.001473 0.028401 -0.425059
0.084942 0.056396 -0.872957
0.052083 0.145016 0.755532
0.007281 0.215575 -0.810552
0.026843 0.193858 -0.506408
0.038462 0.259334 -0.632542
0.066680 0.251689 0.636966
0.051652 0.265297 -0.751301
0.061714 0.357896 0.071659
0.051864 0.313385 0.391249
0.108206 -0.374607 0.188890
0.117666 -0.283219 -0.308845
0.154178 -0.320799 0.576619
0.130135 -0.260129 -0.711787
0.098426 -0.247417 -0.462686
0.129396 -0.162510 0.840163
0.110554 -0.041239 0.854627
0.128640 0.090168 0.857283
0.112294 0.193387 0.797093
0.131575 0.203599 -0.788057
0.086212 0.251991 -0.387990
0.096434 0.224843 0.738131
0.143519 0.314160 -0.153726
0.108932 0.359667 0.183950
0.157407 0.332533 0.544739
0.129356 -0.361755 0.053249
0.238936 -0.380375 0.422306
0.121779 -0.322005 -0.131515
0.171409 -0.300967 -0.237336
0.202501 -0.315539 0.667927
0.188162 -0.267774 -0.508498
0.130934 -0.192840 -0.803100
0.188060 -0.205339 -0.741083
0.197967 -0.227118 0.796129
0.083657 -0.079585 -0.871039
0.181601 -0.008832 -0.830357
0.228410 0.194441 -0.673888
0.201360 0.203310 0.804378
0.150734 0.268343 -0.591894
0.184308 0.292373 0.688796
0.195480 0.296768 -0.240354
0.121056 0.356479 0.034456
0.232096 0.353594 0.141900
0.230577 0.370730 0.457007
0.189979 -0.394395 0.237015
0.257939 -0.275570 -0.113418
0.223677 -0.206400 -0.670941
0.255623 -0.222282 -0.575178
0.192507 -0.124452 0.874573
0.255964 -0.030078 -0.735089
0.298302 -0.031345 -0.661057
0.194485 0.004802 0.892714
0.229049 0.114357 -0.754138
0.281838 0.081578 -0.680132
0.273084 0.215801 -0.478463
0.266690 0.275594 -0.093076
0.247942 0.374640 0.276626
0.296130 -0.367408 0.287274
0.330914 -0.300692 0.098128
0.357102 -0.359774 0.459399
0.259148 -0.337782 0.640441
0.268300 -0.221581 -0.491746
0.367829 -0.125783 -0.134237
0.308775 -0.100613 -0.561320
0.405070 0.082228 0.875761
0.301967 0.148954 -0.584195
0.316508 0.154143 -0.519402
0.364788 0.115757 -0.160733
0.289412 0.320402 0.653081
0.359354 0.357081 0.465672
0.345492 -0.348958 0.581322
0.484054 -0.244180 0.208416
0.359475 -0.290499 0.715206
0.477408 -0.266125 0.644292
0.441404 -0.203020 0.052981
0.429703 -0.203885 0.803329
0.485550 -0.121567 0.038531
0.362905 -0.018560 -0.187204
0.396925 -0.012177 -0.097150
0.324868 0.044617 -0.566672
0.430888 -0.053848 0.880299
0.475332 0.138448 0.043220
0.443929 0.197782 0.045173
0.448998 0.194553 0.788976
0.449554 0.253450 0.156710
0.423895 0.308825 0.323115
0.350375 0.352428 0.561539
0.486577 0.269912 0.610944
0.488840 -0.274135 0.368428
0.555851 -0.132141 0.154469
0.534390 -0.175166 0.749484
0.502369 -0.131402 0.821208
0.508287 0.004527 0.049904
0.498582 0.199592 0.131853
0.539111 0.192044 0.716313
0.503485 0.148899 0.810682
0.564476 -0.185819 0.266469
0.570914 -0.185438 0.598995
0.552817 -0.051903 0.106451
0.493860 -0.027972 0.868310
0.579284 0.026729 0.738627
0.531569 0.049419 0.822204
0.486451 0.066625 0.861620
0.539058 0.106256 0.121580
0.561331 0.186148 0.271172
0.569682 0.190909 0.637904
0.614077 -0.055511 0.289362
0.603672 -0.062898 0.673337
0.599357 0.012090 0.192999
0.612046 0.046464 0.639222
0.614218 0.110136 0.307545
3 1 2 13
3 0 3 1
3 1 3 2
3 17 3 0
3 4 3 17
3 3 4 2
3 18 4 17
3 2 4 5
3 2 5 15
3 15 5 19
3 6 4 18
3 4 6 5
3 7 6 18
3 6 7 8
3 6 8 5
3 5 8 9
3 5 9 19
3 12 1 10
3 10 1 11
3 23 11 13
3 11 1 13
3 1 12 0
3 12 17 0
3 15 13 2
3 13 15 14
3 14 15 16
3 14 16 26
3 15 19 16
3 26 16 28
3 16 19 20
3 16 20 28
3 9 30 19
3 30 20 19
3 21 8 7
3 8 21 22
3 30 9 22
3 9 8 22
3 33 11 23
3 11 33 10
3 33 12 10
3 23 13 24
3 24 13 14
3 24 14 25
3 38 17 12
3 26 25 14
3 25 26 27
3 40 18 17
3 26 28 29
3 26 29 27
3 43 7 18
3 29 28 31
3 20 31 28
3 7 43 44
3 21 7 44
3 20 30 32
3 20 32 31
3 44 22 21
3 22 32 30
3 22 44 32
3 23 34 33
3 35 34 24
3 24 34 23
3 24 36 35
3 38 12 33
3 24 25 36
3 36 25 37
3 27 37 25
3 40 17 38
3 37 27 39
3 42 18 40
3 29 41 27
3 42 43 18
3 31 52 29
3 44 43 54
3 31 32 45
3 31 45 52
3 46 44 54
3 46 47 32
3 47 45 32
3 46 32 44
3 35 48 34
3 48 35 49
3 34 50 33
3 49 35 36
3 38 33 50
3 50 34 57
3 36 37 58
3 58 37 59
3 50 40 38
3 27 41 39
3 51 41 29
3 64 43 42
3 29 53 51
3 52 53 29
3 43 64 54
3 64 65 46
3 54 64 46
3 55 47 46
3 55 45 47
3 49 36 56
3 48 49 56
3 58 56 36
3 34 48 57
3 50 57 60
3 39 59 37
3 40 50 60
3 57 61 60
3 42 40 60
3 61 62 60
3 63 42 60
3 60 62 63
3 64 42 63
3 62 65 63
3 63 65 64
3 65 55 46
3 52 45 75
3 45 66 75
3 66 45 55
3 56 67 48
3 56 58 68
3 67 56 68
3 58 59 76
3 57 48 69
3 48 67 69
3 61 57 69
3 70 61 69
3 70 62 61
3 71 62 70
3 65 62 71
3 71 72 65
3 52 86 53
3 72 55 65
3 72 73 55
3 52 87 86
3 66 55 73
3 74 66 73
3 88 66 74
3 88 75 66
3 52 75 87
3 76 68 58
3 76 59 89
3 67 78 69
3 67 68 78
3 68 79 78
3 68 77 79
3 39 80 59
3 80 39 83
3 94 82 81
3 69 78 70
3 39 41 83
3 97 82 94
3 84 82 97
3 51 83 41
3 71 85 73
3 51 53 86
3 71 73 72
3 85 74 73
3 87 104 86
3 105 75 88
3 87 75 105
3 68 107 77
3 107 68 76
3 107 109 77
3 59 80 89
3 80 90 111
3 111 90 113
3 113 90 92
3 82 91 81
3 77 93 79
3 77 109 93
3 80 83 90
3 115 94 81
3 91 82 100
3 78 79 70
3 79 95 70
3 79 93 95
3 92 90 96
3 70 95 85
3 90 83 98
3 90 98 96
3 70 85 71
3 93 101 85
3 95 93 85
3 51 99 83
3 83 99 98
3 100 82 84
3 120 84 97
3 85 101 74
3 51 86 99
3 96 98 102
3 74 101 122
3 99 86 103
3 99 103 98
3 102 98 103
3 122 88 74
3 88 122 105
3 127 87 105
3 87 127 104
3 106 107 76
3 106 108 107
3 89 106 76
3 109 108 133
3 108 109 107
3 80 110 89
3 110 80 111
3 112 81 91
3 112 132 81
3 91 114 112
3 132 115 81
3 117 109 133
3 93 109 117
3 91 100 114
3 114 100 116
3 114 116 135
3 92 96 138
3 135 116 140
3 142 97 94
3 117 118 101
3 93 117 101
3 100 119 116
3 142 144 97
3 144 120 97
3 84 119 100
3 116 119 121
3 116 121 140
3 123 101 118
3 101 123 122
3 96 102 124
3 84 120 144
3 84 144 125
3 119 84 125
3 126 122 123
3 105 122 126
3 126 127 105
3 127 149 104
3 89 128 106
3 128 89 110
3 128 110 151
3 151 110 129
3 111 129 110
3 129 111 113
3 130 132 112
3 130 112 131
3 131 112 114
3 114 135 131
3 92 134 113
3 133 136 117
3 138 134 92
3 134 138 137
3 137 138 139
3 137 139 157
3 135 140 136
3 136 140 141
3 136 141 117
3 117 141 118
3 157 139 143
3 139 138 143
3 141 140 118
3 145 140 121
3 140 145 118
3 124 138 96
3 138 124 143
3 121 119 125
3 146 121 125
3 121 146 145
3 124 102 147
3 144 148 125
3 125 148 146
3 103 86 150
3 103 150 102
3 104 149 164
3 104 164 86
3 86 164 150
3 106 166 168
3 106 128 166
3 151 166 128
3 108 168 152
3 108 106 168
3 130 131 154
3 153 129 113
3 132 154 172
3 132 130 154
3 152 155 133
3 133 108 152
3 153 113 134
3 134 137 153
3 155 131 135
3 136 155 135
3 133 155 136
3 157 156 137
3 172 175 132
3 175 115 132
3 175 94 115
3 175 142 94
3 157 143 158
3 160 144 142
3 159 158 143
3 161 118 145
3 123 118 161
3 124 147 162
3 143 124 162
3 143 162 159
3 144 160 148
3 145 146 161
3 126 123 161
3 179 148 160
3 179 146 148
3 179 161 146
3 163 126 161
3 102 150 165
3 102 165 147
3 126 163 127
3 182 127 163
3 127 182 149
3 182 164 149
3 151 185 166
3 129 167 151
3 167 185 151
3 167 129 153
3 169 152 168
3 169 168 186
3 168 166 186
3 171 154 131
3 131 155 171
3 155 152 171
3 152 169 171
3 137 170 153
3 154 173 172
3 154 187 173
3 187 154 171
3 137 156 174
3 170 137 174
3 156 189 174
3 176 172 173
3 175 172 176
3 189 156 157
3 176 142 175
3 189 157 192
3 192 157 158
3 160 142 176
3 192 158 178
3 178 158 159
3 159 162 178
3 177 179 160
3 162 180 178
3 179 181 161
3 163 161 181
3 180 162 147
3 182 163 196
3 196 163 181
3 196 183 182
3 165 180 147
3 150 184 165
3 183 164 182
3 183 197 164
3 164 184 150
3 164 197 184
3 166 185 198
3 185 167 198
3 166 198 199
3 201 167 153
3 186 166 199
3 201 153 170
3 186 171 169
3 188 187 171
3 171 202 188
3 202 171 186
3 201 170 174
3 176 173 190
3 173 187 190
3 187 191 190
3 190 193 176
3 191 194 190
3 190 194 193
3 176 193 160
3 205 192 178
3 194 177 193
3 194 206 177
3 193 177 160
3 206 195 177
3 179 177 195
3 179 195 181
3 195 196 181
3 178 180 209
3 165 209 180
3 165 184 209
3 200 198 167
3 200 167 211
3 167 201 211
3 201 213 211
3 186 199 215
3 213 201 174
3 186 203 202
3 186 215 203
3 204 187 188
3 191 187 204
3 188 202 204
3 202 203 204
3 204 203 218
3 220 191 204
3 191 220 194
3 221 192 205
3 206 194 220
3 206 220 207
3 207 220 208
3 208 223 196
3 206 207 195
3 207 208 195
3 208 196 195
3 178 209 224
3 223 225 196
3 196 225 183
3 225 226 183
3 183 226 197
3 197 226 210
3 210 227 184
3 227 209 184
3 184 197 210
3 229 212 198
3 198 212 199
3 229 198 200
3 200 211 214
3 211 213 214
3 214 213 216
3 174 216 213
3 174 189 216
3 217 203 215
3 203 217 219
3 216 189 221
3 203 219 218
3 204 218 220
3 221 189 192
3 218 208 220
3 218 219 208
3 208 219 222
3 224 205 178
3 223 208 222
3 209 228 224
3 210 228 227
3 228 209 227
3 214 229 200
3 199 212 215
3 212 230 215
3 231 214 216
3 232 231 216
3 217 215 230
3 232 216 221
3 217 233 219
3 232 221 240
3 240 221 243
3 243 221 205
3 233 222 219
3 243 205 224
3 222 244 234
3 223 222 234
3 236 243 224
3 224 235 236
3 234 225 223
3 235 224 228
3 225 245 226
3 245 228 226
3 228 210 226
3 229 237 212
3 229 238 237
3 229 214 238
3 212 237 230
3 214 231 238
3 230 239 217
3 217 239 233
3 230 249 239
3 248 238 231
3 241 248 231
3 231 232 241
3 232 242 241
3 232 240 242
3 240 243 242
3 239 244 233
3 239 249 244
3 233 244 222
3 249 245 244
3 235 246 241
3 241 242 235
3 242 236 235
3 242 243 236
3 244 245 234
3 245 225 234
3 245 246 228
3 228 246 235
3 237 247 230
3 237 238 247
3 238 248 247
3 230 247 249
3 248 250 247
3 248 241 250
3 247 251 249
3 247 250 251
3 249 251 245
3 250 246 251
3 241 246 250
3 246 245 251
