ply
format ascii 1.0
element vertex 252
property float x
property float y
property float z
element face 500
property list uchar int vertex_indices
end_header
-0.808387 -0.193552 0.473520
-0.811384 -0.169344 0.643888
-0.869128 -0.136485 0.544983
-0.879682 -0.040315 0.645265
-0.861669 0.000554 0.437263
-0.864778 0.092960 0.659982
-0.815071 0.172523 0.462156
-0.807246 0.225096 0.594329
-0.804926 0.189104 0.655410
-0.725509 -0.242553 0.475424
-0.724338 -0.245460 0.568659
-0.788726 -0.040871 0.382433
-0.816729 -0.007334 0.705764
-0.810234 0.088902 0.382109
-0.811993 0.094501 0.705060
-0.754338 0.251708 0.510954
-0.659053 0.251652 0.542798
-0.720322 -0.208088 0.662723
-0.760697 -0.208631 0.432179
-0.730322 -0.156003 0.694865
-0.684186 0.103028 0.394755
-0.723819 0.207444 0.446322
-0.681851 -0.179069 0.432828
-0.570185 -0.218150 0.487911
0.256252 -0.196114 0.640130
-0.653829 -0.009767 0.396991
-0.554873 -0.095923 0.436551
0.284873 -0.041960 0.711857
-0.559377 0.058709 0.418852
0.240817 0.165419 0.645514
-0.580344 0.183119 0.457606
-0.521165 -0.060860 -0.287705
-0.509870 0.017386 -0.196597
-0.526305 0.061221 -0.279943
0.255271 0.045205 0.716933
-0.460008 -0.161816 -0.267698
-0.435084 -0.135946 -0.422053
-0.388180 -0.204889 -0.186694
-0.458146 -0.117978 -0.160861
-0.405392 0.007061 -0.494316
-0.479480 0.001702 -0.408476
-0.440580 -0.027457 -0.116921
-0.426626 0.083021 -0.120772
-0.453246 0.119184 -0.408147
-0.463175 0.160768 -0.278514
-0.416030 0.169333 -0.178975
-0.353167 0.225368 -0.417581
-0.292176 -0.282476 -0.266307
-0.341192 -0.220415 -0.435579
0.094068 -0.146819 0.462445
-0.361794 -0.156247 -0.484613
-0.348072 -0.131639 -0.123097
-0.375857 0.149340 -0.476958
-0.352114 0.152028 -0.126986
-0.287871 0.279338 -0.265349
-0.261098 -0.287587 -0.344059
-0.310232 -0.047962 -0.538865
-0.347695 0.036973 -0.093776
-0.331328 0.076439 -0.526328
0.111517 0.222514 0.526182
-0.262886 0.286491 -0.349439
-0.179365 -0.272571 -0.436371
-0.263077 -0.246890 -0.198842
0.167149 -0.251137 0.587777
-0.220791 -0.197772 -0.509522
-0.196206 -0.150632 -0.124278
-0.203321 -0.033263 -0.096889
-0.199166 0.153709 -0.139951
-0.220494 0.253037 -0.438717
-0.179160 0.171570 -0.542353
-0.278393 0.245916 -0.198515
0.214318 0.241356 0.564654
-0.199605 -0.286435 -0.271507
-0.067817 -0.285341 -0.333856
-0.141792 -0.202254 -0.177994
-0.090727 -0.179198 -0.562267
-0.188141 -0.068213 -0.571447
-0.240096 0.043476 -0.562077
-0.124337 0.099394 -0.585603
0.095898 0.148588 0.466882
-0.099711 0.191288 -0.564121
-0.038270 0.258306 -0.498403
-0.194606 0.286703 -0.268534
-0.123326 0.297790 -0.329714
-0.053722 -0.245540 -0.248131
-0.063042 -0.257135 -0.501599
-0.136196 -0.102252 -0.120343
-0.035559 -0.117532 -0.159868
-0.098650 -0.072740 -0.599909
-0.109834 0.089889 -0.135348
-0.028302 0.115816 -0.151445
-0.038432 0.237708 -0.233219
-0.038216 0.290926 -0.429429
-0.018075 -0.283276 -0.438122
0.029176 -0.238415 -0.241582
0.039186 -0.152232 -0.617509
0.069240 -0.151147 -0.140469
0.028169 -0.007789 -0.642091
0.042073 -0.002618 -0.118255
0.118807 -0.006014 0.418736
0.049949 0.148518 -0.145227
0.050893 0.187512 -0.590035
-0.044068 0.293127 -0.356410
0.030197 0.277755 -0.428297
0.074495 -0.242478 -0.522096
0.075527 -0.263870 -0.329446
0.130876 -0.077519 -0.681363
0.108133 0.057158 -0.667412
0.150336 0.169221 -0.641446
0.088516 0.249293 -0.501254
0.073224 0.261493 -0.288353
0.131832 0.224577 -0.413726
0.230661 -0.236737 -0.588370
0.153455 -0.228486 -0.502456
0.138451 -0.215151 -0.426127
0.150150 -0.233113 -0.189879
0.226300 -0.243383 0.517805
0.152667 -0.190940 -0.638671
0.216285 -0.101511 -0.356211
0.202786 -0.210564 -0.123551
0.104003 -0.109371 -0.097341
0.209574 -0.094938 -0.419568
0.257647 -0.136332 0.364526
0.180626 -0.125933 -0.045837
0.212464 -0.062389 0.032274
0.118071 0.059039 -0.079885
0.168218 0.058704 -0.027671
0.224320 0.112350 0.030855
0.222956 0.113573 -0.421046
0.215821 0.139211 -0.342628
0.212181 0.214649 -0.122693
0.174204 0.219809 -0.495071
0.116090 0.234455 -0.193873
0.187644 0.228867 -0.571150
0.231942 -0.203511 -0.202644
0.330712 -0.254606 0.510056
0.276416 -0.249887 0.578171
0.256576 -0.221706 -0.666552
0.275430 -0.220562 -0.042630
0.278351 -0.197348 0.030937
0.253473 -0.147472 -0.734986
0.283551 -0.158430 0.122888
0.250404 -0.025488 0.336076
0.282671 -0.070401 -0.805500
0.232782 -0.005508 -0.758949
0.248518 -0.017515 0.120853
0.288554 -0.122216 0.241081
0.272569 -0.031764 0.262975
0.288261 0.043591 -0.813449
0.250885 0.035662 -0.323748
0.186594 0.078512 -0.704103
0.266570 0.128571 0.115608
0.250680 0.112337 0.329199
0.268472 0.128547 -0.747607
0.250955 0.203310 -0.044703
0.257280 0.211247 -0.663891
0.223315 0.217978 -0.190899
0.207359 0.228093 0.501480
0.313227 0.251553 0.514970
0.335280 -0.237129 -0.690968
0.394240 -0.229729 -0.620861
0.269279 -0.189739 -0.525096
0.292569 -0.199939 -0.111927
0.356740 -0.222989 0.109690
0.341351 -0.224262 0.337650
0.385263 -0.209084 0.549783
0.361039 -0.180901 -0.803606
0.432590 -0.116822 -0.539727
0.365237 -0.096955 0.664606
0.326445 -0.114009 -0.180382
0.294915 -0.066319 -0.250413
0.311748 0.125655 -0.488050
0.303344 0.138087 -0.194388
0.345002 0.179295 -0.796926
0.250319 0.202627 -0.519062
0.293067 0.205421 -0.106883
0.359386 0.241564 -0.721250
0.287199 0.210921 0.025268
0.305756 0.244995 -0.623189
0.378415 0.238186 -0.627908
0.345509 0.217912 0.127611
0.354921 0.237637 0.385436
0.342375 0.228700 0.560390
0.423401 -0.253546 -0.731607
0.331843 -0.213991 -0.028955
0.364815 -0.203478 0.036422
0.370974 -0.067142 -0.131886
0.397742 -0.077272 -0.048477
0.338510 -0.044495 -0.870708
0.422883 -0.140933 -0.901952
0.303593 -0.004107 -0.468711
0.344159 0.005165 -0.194850
0.360228 0.011190 0.683698
0.374440 0.073260 -0.121822
0.361243 0.100526 -0.873451
0.407969 0.120632 -0.033840
0.441123 0.131774 0.018538
0.485722 0.129140 0.513263
0.353475 0.211307 0.012943
0.427933 0.224316 0.458039
0.435790 0.265356 -0.740020
0.497378 -0.243821 -0.823640
0.434912 -0.224758 0.255352
0.411449 -0.237622 0.429647
0.524201 -0.149505 -0.612904
0.427106 -0.207181 0.124060
0.505062 -0.140055 0.209557
0.497006 -0.161681 0.425693
0.578906 -0.137930 -1.011171
0.461673 -0.000419 0.035164
0.414840 0.003953 -0.940447
0.612077 -0.028253 -1.049168
0.600324 0.131063 -1.013256
0.417260 0.034418 -0.511360
0.422388 0.129539 -0.914168
0.486819 0.116858 0.103676
0.448670 0.235796 -0.817933
0.574599 0.221909 -0.948947
0.497588 0.132778 -0.592642
0.433931 0.206713 0.128895
0.504762 0.151605 0.204746
0.510460 0.163024 0.428482
0.436322 0.228382 0.301410
0.515511 -0.253757 -0.741456
0.618775 -0.251809 -0.895549
0.577147 -0.218094 -0.951396
0.496092 -0.077431 0.115056
0.511317 -0.054969 0.511692
0.504426 -0.038538 -0.554096
0.535881 0.013012 0.200948
0.548550 -0.059851 0.418363
0.546274 0.066678 0.428177
0.638159 0.159593 -0.716442
0.615426 0.254841 -0.904170
0.534584 0.245063 -0.746829
0.582230 -0.261650 -0.822232
0.670944 -0.235350 -0.864614
0.621642 0.018963 -0.652845
0.677113 -0.219620 -0.963914
0.810849 -0.111234 -0.891823
0.783963 -0.113059 -1.029621
0.808027 0.051262 -1.073038
0.676760 0.223627 -0.965651
0.793198 0.182466 -0.895573
0.718121 0.229838 -0.891375
0.793167 -0.181071 -0.959450
0.826417 0.064445 -0.883148
0.801698 0.126099 -1.044445
0.817747 0.156395 -0.962022
0.853786 -0.101604 -0.985438
0.856086 0.042545 -1.045496
0.873693 0.013521 -0.962258
3 0 2 1
3 1 2 3
3 4 0 11
3 0 4 2
3 2 4 3
3 1 3 12
3 13 4 11
3 4 5 3
3 12 5 14
3 3 5 12
3 6 4 13
3 4 6 5
3 5 6 7
3 5 7 8
3 5 8 14
3 9 18 0
3 10 9 0
3 1 10 0
3 1 17 10
3 17 1 19
3 18 11 0
3 19 1 12
3 11 20 13
3 20 21 13
3 21 6 13
3 6 21 15
3 7 6 15
3 16 7 15
3 16 8 7
3 9 22 18
3 24 17 19
3 22 11 18
3 22 25 11
3 27 19 12
3 25 20 11
3 29 14 8
3 15 21 16
3 23 9 10
3 22 9 23
3 23 26 22
3 25 22 26
3 28 25 26
3 34 12 14
3 20 25 28
3 28 30 20
3 20 30 21
3 30 16 21
3 35 31 32
3 31 33 32
3 32 33 44
3 35 38 37
3 49 26 23
3 35 36 31
3 39 40 36
3 36 40 31
3 38 35 32
3 38 32 41
3 31 40 33
3 42 41 32
3 43 40 39
3 40 43 33
3 33 43 44
3 45 32 44
3 32 45 42
3 44 43 46
3 29 8 16
3 48 35 55
3 55 35 47
3 47 35 37
3 36 48 50
3 36 35 48
3 38 51 37
3 50 56 39
3 50 39 36
3 51 38 41
3 41 57 51
3 56 58 39
3 57 41 42
3 39 58 52
3 39 52 43
3 42 53 57
3 46 43 52
3 53 42 45
3 46 60 44
3 60 54 44
3 44 54 45
3 23 10 63
3 62 47 37
3 51 62 37
3 64 50 48
3 64 56 50
3 65 51 66
3 66 51 57
3 67 57 53
3 52 58 68
3 53 70 67
3 68 46 52
3 68 60 46
3 45 54 70
3 70 53 45
3 71 29 16
3 55 61 48
3 72 55 47
3 62 72 47
3 61 64 48
3 74 72 62
3 74 62 65
3 65 62 51
3 76 56 64
3 76 77 56
3 77 58 56
3 67 66 57
3 79 30 28
3 58 77 69
3 58 69 68
3 67 70 82
3 60 82 54
3 82 70 54
3 55 72 73
3 55 73 61
3 73 72 84
3 75 64 85
3 85 64 61
3 72 74 84
3 64 75 76
3 65 86 74
3 88 76 75
3 65 66 86
3 78 76 88
3 77 76 78
3 86 66 89
3 89 66 67
3 78 80 69
3 77 78 69
3 89 67 91
3 80 81 69
3 91 67 82
3 69 81 68
3 91 82 83
3 83 60 68
3 83 82 60
3 85 61 93
3 93 61 73
3 17 63 10
3 63 17 24
3 87 84 74
3 74 86 87
3 95 88 75
3 95 97 88
3 99 28 26
3 97 78 88
3 89 87 86
3 90 87 89
3 101 80 78
3 89 91 90
3 81 92 68
3 92 102 68
3 68 102 83
3 83 102 91
3 85 93 104
3 93 73 105
3 94 73 84
3 94 105 73
3 104 75 85
3 104 95 75
3 87 94 84
3 94 87 96
3 98 96 87
3 90 98 87
3 100 98 90
3 97 101 78
3 34 14 29
3 81 80 101
3 90 91 100
3 101 109 81
3 59 16 30
3 103 92 81
3 103 81 109
3 102 103 110
3 103 102 92
3 105 104 93
3 113 104 114
3 104 105 114
3 105 94 115
3 115 94 96
3 116 23 63
3 104 117 95
3 23 116 49
3 117 106 95
3 96 120 119
3 27 24 19
3 106 107 97
3 95 106 97
3 120 96 98
3 120 98 125
3 49 99 26
3 125 98 100
3 99 79 28
3 107 108 101
3 97 107 101
3 130 125 100
3 79 59 30
3 91 132 100
3 132 130 100
3 109 111 103
3 110 132 91
3 110 91 102
3 110 103 111
3 59 71 16
3 112 117 104
3 112 104 113
3 114 105 134
3 134 105 115
3 96 119 115
3 114 134 118
3 116 122 49
3 121 113 114
3 114 118 121
3 120 123 119
3 99 122 142
3 122 99 49
3 125 123 120
3 106 150 107
3 126 123 125
3 123 126 124
3 124 126 127
3 34 27 12
3 150 108 107
3 126 125 154
3 154 125 130
3 111 131 128
3 128 129 111
3 129 156 111
3 59 79 157
3 101 108 133
3 133 131 109
3 133 109 101
3 111 109 131
3 156 110 111
3 156 132 110
3 59 157 71
3 137 117 112
3 115 119 134
3 63 136 116
3 135 116 136
3 136 63 24
3 161 112 113
3 134 119 162
3 138 119 123
3 138 162 119
3 137 140 117
3 140 106 117
3 161 113 121
3 118 134 170
3 139 138 123
3 124 139 123
3 139 124 141
3 142 122 147
3 143 144 140
3 140 144 106
3 145 141 124
3 141 145 146
3 143 148 144
3 118 149 121
3 118 170 149
3 146 145 147
3 106 144 150
3 121 149 128
3 127 145 124
3 145 151 147
3 147 151 152
3 147 152 142
3 142 152 99
3 153 144 148
3 144 153 150
3 151 145 127
3 99 152 79
3 149 129 128
3 127 126 154
3 153 155 150
3 155 108 150
3 171 128 174
3 174 128 131
3 130 156 175
3 130 175 154
3 154 177 127
3 127 177 151
3 157 79 152
3 155 133 108
3 155 178 133
3 178 174 133
3 174 131 133
3 156 130 132
3 158 71 157
3 160 159 112
3 159 137 112
3 116 135 164
3 136 165 135
3 136 24 165
3 166 140 159
3 159 140 137
3 160 161 167
3 160 112 161
3 162 138 184
3 184 138 185
3 138 139 185
3 141 163 139
3 163 185 139
3 141 164 163
3 164 146 122
3 116 164 122
3 165 24 168
3 134 162 169
3 164 141 146
3 24 27 168
3 143 166 188
3 143 140 166
3 134 169 170
3 186 169 162
3 122 146 147
3 167 161 190
3 190 161 121
3 169 191 170
3 168 27 192
3 188 148 143
3 190 121 128
3 192 27 34
3 188 194 148
3 190 128 171
3 170 191 149
3 191 172 149
3 192 34 29
3 173 148 194
3 153 148 173
3 129 149 172
3 172 193 175
3 153 173 176
3 153 176 155
3 179 171 174
3 172 156 129
3 175 156 172
3 198 154 175
3 154 198 177
3 151 177 180
3 177 198 180
3 151 180 152
3 152 180 181
3 152 181 157
3 176 178 155
3 179 174 178
3 157 181 158
3 182 71 158
3 182 29 71
3 183 166 159
3 183 201 166
3 160 183 159
3 163 202 205
3 163 164 202
3 202 164 203
3 164 135 203
3 135 165 203
3 201 189 166
3 185 163 205
3 204 160 167
3 162 184 187
3 184 185 187
3 189 188 166
3 186 162 187
3 188 189 210
3 186 191 169
3 213 167 190
3 186 193 191
3 186 187 193
3 194 188 210
3 187 195 193
3 214 194 210
3 171 213 190
3 191 193 172
3 29 197 192
3 193 195 175
3 214 216 194
3 216 173 194
3 213 171 218
3 218 171 179
3 196 198 195
3 29 182 197
3 195 198 175
3 219 180 198
3 197 182 199
3 216 200 176
3 216 176 173
3 200 179 176
3 176 179 178
3 219 222 180
3 180 222 181
3 222 199 181
3 199 158 181
3 182 158 199
3 183 223 201
3 160 223 183
3 204 223 160
3 189 201 225
3 202 206 205
3 202 207 206
3 202 203 207
3 208 189 225
3 207 203 165
3 204 167 228
3 209 187 185
3 185 226 209
3 185 205 226
3 205 206 226
3 207 165 227
3 227 165 168
3 208 211 210
3 189 208 210
3 192 227 168
3 211 212 210
3 228 167 213
3 187 209 195
3 226 215 209
3 197 227 192
3 228 213 218
3 210 212 214
3 209 196 195
3 209 215 196
3 217 214 212
3 214 217 216
3 198 196 215
3 215 219 198
3 219 215 220
3 220 221 222
3 221 199 222
3 199 221 197
3 179 234 218
3 222 219 220
3 234 200 216
3 234 179 200
3 224 201 235
3 224 225 201
3 235 201 223
3 237 204 228
3 206 229 226
3 206 230 229
3 206 207 230
3 207 227 230
3 226 229 215
3 230 231 229
3 230 227 231
3 227 197 231
3 218 237 228
3 232 237 218
3 215 229 220
3 229 231 220
3 231 221 220
3 221 231 197
3 218 234 232
3 216 217 233
3 233 234 216
3 225 224 238
3 224 235 236
3 236 235 223
3 238 208 225
3 223 204 236
3 240 211 208
3 241 212 211
3 217 212 242
3 234 244 232
3 217 242 233
3 233 244 234
3 245 238 236
3 238 224 236
3 204 239 236
3 237 239 204
3 246 239 237
3 232 246 237
3 247 212 241
3 212 247 242
3 243 246 232
3 244 243 232
3 248 244 242
3 242 244 233
3 240 238 245
3 239 245 236
3 240 208 238
3 241 211 240
3 248 242 247
3 248 243 244
3 245 249 240
3 245 239 249
3 241 240 250
3 240 249 250
3 249 251 250
3 249 239 251
3 239 246 251
3 250 247 241
3 247 250 248
3 250 251 248
3 243 248 246
3 248 251 246
