ply
format ascii 1.0
element vertex 250
property float x
property float y
property float z
element face 500
property list uchar int vertex_indices
end_header
-0.642214 -0.152888 -0.102635
-0.646216 -0.176127 0.101430
-0.666335 0.017556 -0.113934
-0.689469 -0.024529 0.109013
-0.680481 0.136762 0.104633
-0.645283 0.170179 -0.089397
-0.588284 -0.247988 -0.003430
-0.581431 -0.241963 0.168378
-0.575320 -0.203935 -0.169666
-0.590397 -0.161391 0.336257
-0.576745 -0.085097 -0.241443
-0.653240 -0.103230 0.215740
-0.626649 -0.070923 0.341328
-0.571310 -0.079178 0.431394
-0.587705 0.064406 -0.234111
-0.671586 0.043923 0.210636
-0.625567 0.073279 0.329460
-0.572366 0.091904 0.421785
-0.567816 0.181758 0.348805
-0.618695 0.198392 0.197001
-0.585040 0.200143 -0.168882
-0.640942 0.213500 0.095428
-0.575910 0.246722 -0.076529
-0.499668 -0.252003 -0.101676
-0.533144 -0.267210 0.226415
-0.470581 -0.197016 -0.236343
-0.492088 -0.217755 0.425578
-0.437236 -0.146575 0.573224
-0.346589 -0.046459 0.690675
-0.369659 0.051497 0.679979
-0.501648 0.213554 -0.193018
-0.518861 0.263209 0.131428
-0.530187 0.258431 0.251856
-0.496482 0.263175 -0.080691
-0.501602 -0.273202 0.110352
-0.392260 -0.265397 0.477078
-0.522729 -0.080220 -0.283260
-0.515960 0.029685 -0.289287
-0.431475 0.179644 -0.274397
-0.372916 0.131827 0.634511
-0.451442 0.244968 0.407612
-0.426919 0.240143 -0.135818
-0.419524 -0.275164 0.324298
-0.382473 -0.234523 -0.251425
-0.408756 -0.237802 -0.178843
-0.419185 -0.209624 -0.044794
-0.419749 -0.221081 0.052862
-0.372636 -0.237240 0.208258
-0.396557 -0.055636 -0.387229
-0.364122 -0.084708 0.043982
-0.337905 -0.080277 -0.999931
-0.330230 -0.104229 -0.838231
-0.342283 0.015425 -0.053721
-0.350617 0.038717 -0.952908
-0.344408 0.017890 -0.797583
-0.371533 0.085596 -0.403662
-0.367580 0.101860 0.038664
-0.392826 0.174296 -0.040434
-0.422457 0.220838 0.029191
-0.397863 0.222886 -0.251335
-0.421859 0.273388 0.306121
-0.347132 0.229259 0.237662
-0.275308 0.269016 0.505815
-0.250737 -0.267851 0.521091
-0.272569 -0.202111 -0.948300
-0.254480 -0.221096 -0.799394
-0.220680 -0.263572 -0.388491
-0.336423 -0.185108 -0.379920
-0.283866 -0.191742 -0.192430
-0.348177 -0.158311 0.120079
-0.285813 -0.196102 0.623886
-0.289581 -0.141622 -0.741265
-0.224770 -0.189219 -0.566465
-0.263023 -0.134799 0.246864
-0.310427 -0.077592 -0.495530
-0.313126 -0.069992 0.132083
-0.275347 -0.121742 -1.038415
-0.257424 -0.089192 -0.155894
-0.318229 -0.013371 -0.734604
-0.325011 0.029244 -1.042975
-0.316391 0.026240 -0.503154
-0.188447 0.064477 -0.174499
-0.326114 0.058092 0.108540
-0.295305 0.133591 -0.774360
-0.294719 0.134324 -0.487373
-0.271782 0.179032 -0.187717
-0.247222 0.068980 0.238717
-0.273877 0.192333 -0.956663
-0.344029 0.175377 -0.370206
-0.342029 0.151454 0.128287
-0.232002 0.241904 -0.807020
-0.238297 0.192990 0.637069
-0.246232 0.240184 -0.378804
-0.259204 0.261493 0.413409
-0.197348 -0.269514 -0.869944
-0.240244 -0.228145 -0.266129
-0.217477 -0.208106 0.379243
-0.174214 -0.262350 0.595949
-0.195247 -0.229171 -0.652820
-0.181338 -0.156002 0.360298
-0.265537 -0.088682 -0.652360
-0.273405 -0.032049 -0.591374
-0.206456 -0.161683 -0.213890
-0.249002 -0.063406 0.714794
-0.226170 -0.010216 -1.077620
-0.272872 0.049935 -0.648688
-0.289452 0.058080 0.710585
-0.240946 0.127720 -1.048773
-0.264130 0.093974 -0.588781
-0.207380 0.215863 -0.658752
-0.195036 0.228593 -0.562624
-0.169389 0.202022 -0.243898
-0.167608 0.201457 0.394058
-0.249520 0.239116 -0.277462
-0.198491 0.265068 -0.907826
-0.191541 0.264352 0.576632
-0.067681 -0.314958 -0.548363
-0.144845 -0.270463 -0.332807
-0.185468 -0.228523 -0.960697
-0.117828 -0.294228 -0.697710
-0.082647 -0.121281 -1.027896
-0.175452 -0.065059 -0.179696
-0.133957 -0.158591 -0.204840
-0.122135 -0.099814 0.362700
-0.080022 0.102627 -1.042880
-0.089579 0.075486 0.368754
-0.110594 0.180316 -1.018315
-0.107144 0.138979 -0.183116
-0.203441 0.234489 -0.976490
-0.076288 0.307851 -0.580443
-0.065554 0.315615 -0.415416
-0.143689 0.269029 -0.323139
-0.129565 0.263394 0.500347
-0.059208 -0.332936 -0.454230
-0.127831 -0.279597 -0.844818
-0.011229 -0.284435 -0.682109
-0.044272 -0.204103 -0.911183
-0.047132 -0.208122 -0.154469
0.000624 -0.180103 0.104493
-0.081962 -0.130940 -0.131934
-0.050247 -0.099660 0.097117
0.183855 -0.110790 0.696948
-0.115402 -0.004431 -0.130458
-0.037549 -0.032493 -1.040764
-0.048735 0.037279 0.115982
0.182382 -0.029766 0.713099
0.197431 0.072276 0.702351
-0.043791 0.170541 -0.122073
0.001913 0.183869 0.091011
-0.123014 0.255943 -0.917129
-0.032391 0.177187 -0.936053
-0.044192 0.234351 -0.212265
-0.137675 0.284991 -0.755066
0.023895 0.282514 -0.659854
0.046471 -0.332712 -0.304097
0.417007 -0.292916 -0.212286
0.038073 -0.280126 0.497336
0.097715 -0.316024 -0.144826
-0.053093 -0.211348 0.424035
0.033274 -0.189134 -0.810108
0.085623 -0.188727 -0.716412
0.185383 -0.179326 0.658091
0.078492 -0.232764 0.220761
0.029699 -0.159677 0.271292
-0.029607 -0.078268 0.351145
0.007961 -0.105614 -0.956934
-0.021739 -0.088545 0.183872
0.009782 0.033505 -0.970735
-0.008623 0.018375 0.280109
-0.012827 0.091320 0.203902
-0.024655 0.094432 0.350795
0.055909 0.069659 -0.831015
0.021964 0.157078 0.281791
-0.051027 0.206934 0.429064
0.046232 0.212672 0.217978
0.054627 0.232439 0.357783
0.030346 0.185177 -0.791428
0.067359 0.212937 -0.702820
0.197864 0.171927 0.662751
0.065456 0.293359 -0.146566
0.089450 0.280824 0.063737
0.026696 0.308820 -0.255960
0.054448 -0.347614 -0.407862
0.128575 -0.269041 0.575899
0.206101 -0.258468 -0.511254
0.063301 -0.237168 0.350601
0.063562 -0.096697 -0.820805
0.105036 -0.063081 -0.752621
0.096844 0.091125 -0.748208
0.061607 0.276235 0.487347
0.085479 0.265841 0.575874
0.078452 0.357704 -0.379947
0.137442 0.354993 -0.222423
0.197873 -0.366903 -0.217624
0.188043 -0.347085 -0.041378
0.163854 -0.294304 0.509126
0.178047 -0.308420 0.333339
0.134949 -0.299414 0.437338
0.294388 -0.079174 -0.549020
0.263109 0.003446 -0.584494
0.243683 0.115347 -0.573560
0.203808 0.207090 -0.557966
0.159953 0.308337 0.420637
0.216316 0.366429 -0.069650
0.237985 0.344391 0.176918
0.168608 0.297336 0.508090
0.182903 -0.362425 -0.164778
0.285934 -0.372309 -0.064575
0.373275 -0.346034 -0.130828
0.268506 -0.342277 0.260597
0.227422 -0.324381 0.393897
0.317378 -0.191956 0.586209
0.291937 -0.057980 0.672432
0.285042 0.116190 0.662560
0.271082 0.242970 0.566623
0.364150 0.268660 -0.323208
0.262927 0.372509 -0.150493
0.288717 0.334795 0.380167
0.289097 0.381652 -0.042049
0.339454 -0.308684 0.397427
0.453332 -0.033444 -0.414013
0.380509 0.307176 0.380993
0.398454 0.310915 -0.187696
0.357984 0.360750 -0.022042
0.387614 -0.350580 -0.036878
0.366754 -0.338731 0.244862
0.458127 -0.275951 0.369172
0.544037 -0.175681 -0.192364
0.472245 -0.224370 0.441119
0.608616 -0.053815 -0.247215
0.430191 -0.084243 0.587372
0.584223 0.055262 -0.269618
0.412919 0.044009 0.601939
0.379626 0.183859 0.558693
0.555133 0.168988 -0.169775
0.353887 0.349357 0.259028
0.479287 -0.288669 -0.118638
0.530346 -0.223610 0.297913
0.443119 -0.149050 0.552336
0.588415 0.123016 0.427628
0.579644 0.181526 0.357798
0.496967 0.274232 -0.094391
0.486394 0.284158 0.200780
0.577700 -0.116098 0.430713
0.607425 0.000163 0.429886
0.622325 -0.089896 0.352181
0.633843 -0.072288 -0.173216
0.642178 0.003835 0.337920
0.632005 0.056346 -0.182230
0.625459 0.115798 0.352855
3 2 0 10
3 0 2 3
3 0 3 1
3 1 3 11
3 14 2 10
3 11 3 15
3 3 2 4
3 3 4 15
3 5 2 14
3 2 5 4
3 5 21 4
3 8 0 6
3 6 1 7
3 1 6 0
3 8 10 0
3 11 7 1
3 7 11 9
3 9 12 13
3 9 11 12
3 11 15 12
3 12 16 13
3 13 16 17
3 12 15 16
3 16 18 17
3 5 14 20
3 16 15 19
3 16 19 18
3 19 15 4
3 21 19 4
3 20 22 5
3 21 31 19
3 5 22 21
3 31 21 22
3 6 34 23
3 7 34 6
3 7 24 34
3 23 25 8
3 23 8 6
3 24 9 26
3 24 7 9
3 25 10 8
3 13 26 9
3 25 36 10
3 26 13 27
3 36 37 10
3 37 14 10
3 29 28 13
3 17 29 13
3 37 30 14
3 30 20 14
3 18 39 17
3 18 19 32
3 30 33 22
3 30 22 20
3 19 31 32
3 40 18 32
3 22 33 31
3 34 24 42
3 26 42 24
3 26 35 42
3 23 44 25
3 25 44 43
3 23 34 45
3 44 23 45
3 45 34 46
3 36 25 48
3 13 28 27
3 37 36 48
3 55 37 48
3 38 37 55
3 37 38 30
3 38 59 30
3 40 39 18
3 41 33 30
3 41 30 59
3 41 58 33
3 33 58 31
3 31 60 32
3 32 60 40
3 47 34 42
3 42 35 63
3 47 46 34
3 35 26 70
3 25 43 67
3 68 44 45
3 69 46 47
3 26 27 70
3 67 48 25
3 46 49 45
3 69 75 49
3 46 69 49
3 45 49 52
3 50 53 51
3 51 53 54
3 80 48 74
3 49 56 52
3 55 48 80
3 52 56 57
3 17 39 29
3 88 38 55
3 56 58 57
3 56 89 58
3 59 38 88
3 57 58 41
3 89 61 58
3 40 91 39
3 58 61 31
3 40 62 91
3 60 31 61
3 61 93 60
3 93 62 60
3 60 62 40
3 43 66 67
3 43 95 66
3 95 43 44
3 47 42 96
3 70 63 35
3 64 51 65
3 65 51 71
3 72 67 66
3 95 44 68
3 47 73 69
3 47 96 73
3 74 72 101
3 72 74 67
3 28 70 27
3 70 28 103
3 76 50 64
3 64 50 51
3 68 45 77
3 69 73 75
3 51 78 71
3 100 78 105
3 71 78 100
3 48 67 74
3 79 76 104
3 76 79 50
3 54 78 51
3 45 52 77
3 73 86 75
3 50 79 53
3 80 74 101
3 77 52 81
3 82 49 75
3 56 49 82
3 75 86 82
3 103 28 106
3 106 28 29
3 107 79 104
3 83 54 53
3 54 83 78
3 78 83 105
3 108 80 101
3 84 80 108
3 55 80 84
3 81 52 85
3 106 29 39
3 107 87 79
3 87 53 79
3 53 87 83
3 55 84 88
3 52 57 85
3 86 89 82
3 83 87 90
3 89 56 82
3 86 61 89
3 39 91 106
3 92 88 84
3 88 92 59
3 113 85 41
3 85 57 41
3 92 113 59
3 41 59 113
3 117 66 95
3 42 63 96
3 94 118 64
3 65 94 64
3 63 70 97
3 118 76 64
3 71 98 65
3 68 102 95
3 73 96 99
3 100 98 71
3 68 77 102
3 76 120 104
3 98 100 72
3 72 100 101
3 102 77 121
3 99 123 73
3 100 105 101
3 121 77 81
3 124 107 104
3 101 105 108
3 124 126 107
3 105 109 108
3 108 109 110
3 81 85 111
3 83 109 105
3 108 110 84
3 86 112 61
3 126 128 107
3 128 87 107
3 83 90 109
3 84 110 92
3 85 113 111
3 93 61 112
3 128 114 87
3 90 87 114
3 115 91 62
3 130 131 92
3 92 131 113
3 132 62 93
3 62 132 115
3 116 66 133
3 66 117 133
3 94 134 118
3 65 119 94
3 119 134 94
3 72 66 116
3 98 119 65
3 116 119 98
3 72 116 98
3 95 122 117
3 120 76 118
3 122 95 102
3 123 99 96
3 141 70 103
3 122 102 121
3 121 142 122
3 143 104 120
3 143 124 104
3 142 121 81
3 86 73 123
3 145 103 106
3 142 81 127
3 125 86 123
3 81 111 127
3 112 86 125
3 149 128 126
3 129 110 109
3 93 112 132
3 149 114 128
3 149 152 114
3 90 114 152
3 90 152 109
3 152 129 109
3 130 92 110
3 130 110 129
3 131 111 113
3 154 133 117
3 117 137 154
3 134 119 135
3 116 135 119
3 156 63 97
3 134 136 118
3 135 136 134
3 117 122 137
3 158 96 63
3 156 158 63
3 161 97 70
3 136 120 118
3 122 139 137
3 137 139 140
3 137 140 138
3 158 123 96
3 142 139 122
3 158 164 123
3 139 142 140
3 140 142 144
3 140 144 166
3 166 144 169
3 164 125 123
3 164 170 125
3 147 142 127
3 142 147 144
3 144 147 148
3 144 148 169
3 170 173 125
3 124 150 126
3 173 112 125
3 146 106 91
3 151 127 111
3 147 127 151
3 150 149 126
3 150 153 149
3 112 173 132
3 152 149 153
3 153 129 152
3 151 111 131
3 130 181 131
3 151 131 181
3 116 133 182
3 154 182 133
3 116 155 135
3 116 182 155
3 156 97 183
3 135 159 136
3 135 160 159
3 154 137 157
3 157 137 138
3 158 156 185
3 183 97 161
3 163 164 185
3 185 164 158
3 136 165 120
3 136 159 165
3 166 162 138
3 140 166 138
3 162 166 163
3 120 165 143
3 165 167 143
3 163 166 168
3 163 168 164
3 166 169 168
3 164 168 170
3 143 167 124
3 124 167 150
3 167 171 150
3 168 169 172
3 168 172 170
3 171 176 150
3 148 174 169
3 169 174 172
3 170 172 175
3 170 175 173
3 148 180 174
3 176 153 150
3 176 177 153
3 151 179 147
3 147 179 148
3 148 179 180
3 189 173 175
3 132 173 189
3 151 181 179
3 189 190 132
3 132 190 115
3 190 91 115
3 153 191 129
3 191 130 129
3 182 154 193
3 157 138 194
3 197 156 195
3 195 156 183
3 155 184 135
3 185 156 197
3 135 184 160
3 163 185 162
3 159 160 186
3 160 187 186
3 160 198 187
3 161 70 141
3 165 159 186
3 165 186 167
3 141 103 145
3 186 171 167
3 186 187 171
3 187 188 171
3 145 106 146
3 171 188 176
3 188 177 176
3 200 201 177
3 188 200 177
3 178 146 91
3 175 172 174
3 190 178 91
3 175 202 189
3 181 130 192
3 181 192 179
3 179 203 180
3 202 205 189
3 189 205 190
3 130 191 192
3 157 206 154
3 206 193 154
3 157 194 206
3 182 208 155
3 182 193 208
3 194 138 162
3 194 162 209
3 162 196 209
3 196 197 210
3 195 210 197
3 185 196 162
3 197 196 185
3 199 187 198
3 188 187 199
3 200 188 199
3 201 153 177
3 175 174 204
3 202 175 204
3 180 204 174
3 192 203 179
3 207 193 206
3 194 207 206
3 194 209 207
3 210 209 196
3 183 211 195
3 183 161 211
3 211 161 212
3 161 141 212
3 141 145 212
3 212 146 213
3 212 145 146
3 178 214 213
3 146 178 213
3 214 178 190
3 215 153 201
3 205 217 214
3 214 190 205
3 153 216 191
3 217 202 204
3 217 205 202
3 216 192 191
3 203 192 216
3 203 218 204
3 203 204 180
3 216 218 203
3 193 207 208
3 208 207 224
3 224 207 225
3 207 209 225
3 219 225 209
3 209 210 219
3 219 210 195
3 160 184 227
3 195 211 219
3 160 227 198
3 199 198 220
3 212 213 232
3 232 213 233
3 200 234 201
3 233 213 214
3 201 234 215
3 215 222 153
3 214 217 221
3 153 222 216
3 216 222 223
3 204 218 223
3 223 235 204
3 221 217 235
3 217 204 235
3 218 216 223
3 208 236 155
3 236 208 224
3 225 219 226
3 226 219 228
3 184 155 227
3 219 211 228
3 228 211 238
3 198 227 229
3 230 238 211
3 211 212 230
3 220 198 229
3 199 220 231
3 230 212 232
3 200 199 231
3 239 232 233
3 233 214 221
3 222 241 223
3 221 235 242
3 225 237 224
3 155 236 227
3 224 237 236
3 237 225 226
3 243 238 230
3 232 244 230
3 200 231 234
3 239 244 232
3 239 233 240
3 233 221 240
3 234 222 215
3 234 241 222
3 241 242 223
3 240 221 242
3 235 223 242
3 236 237 227
3 226 228 237
3 243 237 228
3 228 238 243
3 230 244 243
3 231 220 229
3 234 240 242
3 234 242 241
3 237 245 227
3 227 245 246
3 237 243 245
3 229 227 246
3 243 244 245
3 245 247 246
3 245 244 247
3 248 229 246
3 231 229 248
3 246 247 248
3 247 249 248
3 247 244 249
3 234 231 248
3 244 239 249
3 240 249 239
3 248 249 234
3 249 240 234
