ply
format ascii 1.0
element vertex 252
property float x
property float y
property float z
element face 500
property list uchar int vertex_indices
end_header
-0.823218 -0.209043 -0.696546
-0.789866 -0.200116 -0.724998
-0.826836 -0.173681 -0.604850
-0.860579 -0.117217 -0.722802
-0.871399 -0.015712 -0.595978
-0.874421 0.057724 -0.727485
-0.857886 0.120984 -0.593033
-0.767562 0.198204 -0.731012
-0.820160 0.211442 -0.673461
-0.737948 -0.254836 -0.622783
-0.758068 -0.220923 -0.519605
-0.793271 -0.081762 -0.771739
-0.723963 -0.188483 -0.429451
-0.819119 -0.087014 -0.500901
-0.792071 0.023851 -0.423830
-0.715740 -0.096237 -0.341695
-0.736665 0.045677 -0.351612
-0.834869 0.077481 -0.780857
-0.827453 0.086840 -0.498062
-0.740988 0.171147 -0.428076
-0.785470 0.221684 -0.559127
-0.738780 0.266513 -0.632752
-0.669792 -0.278906 -0.521669
-0.590374 -0.073885 -0.214380
-0.735289 0.059319 -0.800203
-0.582979 0.126055 -0.221523
-0.739690 0.134241 -0.785728
-0.679112 0.275863 -0.511180
-0.581051 -0.184981 -0.261468
0.301381 -0.097174 -0.786791
0.349072 -0.021552 -0.785600
0.359031 0.137179 -0.772634
-0.538301 0.219715 -0.267013
-0.603287 -0.282941 -0.540379
-0.560527 -0.257324 -0.398617
-0.490797 -0.256173 -0.612181
-0.505760 -0.241592 -0.448396
-0.494468 -0.221427 -0.529731
-0.429207 -0.217862 -0.229204
0.280373 -0.170994 -0.731795
-0.481126 -0.120114 0.703719
-0.521580 -0.015433 0.720655
-0.522644 0.021720 0.671007
-0.493586 0.121801 0.721748
-0.478126 0.195927 -0.539932
-0.525960 0.258012 -0.372736
-0.604434 0.276751 -0.540606
-0.514553 0.255378 -0.607597
-0.477284 0.200459 -0.448397
-0.409129 -0.188503 -0.570251
-0.399790 -0.124045 -0.443612
-0.378475 -0.146179 -0.134217
-0.510308 -0.127901 -0.183189
-0.449818 -0.044076 0.824945
-0.386870 -0.162679 0.827612
-0.414972 -0.076875 -0.519463
-0.468266 -0.043151 0.632341
-0.383379 0.006374 -0.110298
-0.407689 0.029833 -0.485849
-0.516869 0.092713 -0.174222
-0.461201 0.136797 0.673657
-0.414397 0.076343 0.852049
-0.428672 0.201769 -0.578075
-0.387729 -0.218697 -0.334317
-0.386491 -0.211568 0.740502
-0.413735 -0.173657 0.676608
-0.369347 0.029253 0.619654
-0.377942 0.059108 -0.537274
-0.369373 0.122082 -0.406813
-0.306910 0.195292 -0.113942
-0.423348 0.189198 0.753948
-0.404598 0.246846 -0.241327
-0.371851 0.221322 -0.315618
-0.261629 -0.223889 -0.210221
-0.255901 -0.240498 0.824948
-0.269008 -0.196399 -0.111318
-0.346650 -0.069365 -0.541895
-0.072195 -0.136715 0.687162
-0.249513 -0.181605 0.908224
-0.330931 -0.046711 0.917873
-0.280153 0.004426 -0.381200
-0.252079 0.120703 -0.037985
-0.319102 0.127122 0.891636
-0.082496 0.176253 0.695379
-0.241258 0.157376 -0.313264
-0.287807 0.231628 0.811947
-0.058484 0.262382 -0.603301
-0.224171 0.239562 -0.133543
-0.271252 0.242950 0.750277
0.007116 -0.259853 -0.616600
-0.127113 -0.227577 -0.575341
-0.176316 -0.235456 -0.118701
-0.244995 -0.150697 -0.316345
-0.276387 -0.036861 -0.042398
-0.145560 -0.140034 -0.527468
-0.165598 -0.122025 0.953766
-0.125753 0.027405 -0.502584
-0.185632 0.062516 0.957953
0.285319 0.206971 -0.730972
-0.145218 0.217149 -0.578293
-0.152712 0.212611 -0.210212
-0.169621 0.196400 0.897991
-0.177882 -0.246340 0.758022
-0.104654 -0.049450 -0.275567
-0.115769 0.132815 -0.254721
-0.091121 0.213252 0.054066
-0.151114 0.261820 0.795539
-0.128751 -0.263400 0.815382
-0.102546 -0.193239 -0.198265
-0.090070 -0.256055 -0.051469
-0.058393 -0.248222 -0.099697
-0.080821 -0.235718 0.875363
0.035094 -0.215700 0.153732
-0.025137 -0.182795 -0.522824
0.048025 -0.051957 0.264286
0.421140 -0.043422 0.981898
0.044256 0.069207 0.259517
-0.022101 0.209578 -0.550987
-0.101815 0.161209 0.947984
-0.074124 0.260422 -0.028820
-0.096635 0.255509 0.753504
-0.058350 0.237702 -0.118631
-0.030446 -0.261920 -0.013241
0.050957 -0.248397 -0.575678
-0.003555 -0.227141 0.768452
0.030225 -0.196412 -0.144875
-0.032573 -0.077908 -0.234125
-0.033256 -0.070790 -0.476957
0.066999 0.004991 -0.195317
-0.015904 0.025573 -0.470507
-0.032740 0.042595 0.663734
-0.025991 0.069191 -0.230344
0.415808 0.096546 0.960925
0.018929 0.153697 -0.172775
-0.053763 0.182508 -0.194430
0.061338 0.125259 0.704537
0.044861 0.227087 0.771758
0.053660 0.271754 -0.581530
0.135994 0.261243 0.153116
-0.014446 0.263846 -0.032920
0.095993 -0.251346 -0.016665
0.073433 -0.176287 0.731167
0.411247 -0.145219 0.960783
0.063582 -0.055599 0.690826
0.724084 -0.021047 -0.450624
0.262062 0.200795 0.389562
0.327443 0.257370 -0.663419
0.077520 0.182152 -0.102906
0.380862 -0.259438 -0.636128
0.122703 -0.257776 0.145222
0.376932 -0.237196 -0.667211
0.224296 -0.231712 0.125622
0.230805 -0.263452 0.227967
0.100637 -0.214494 -0.097331
0.164309 -0.199655 -0.038437
0.348235 -0.241989 0.813619
0.452171 -0.222447 0.890615
0.122000 -0.083707 -0.149184
0.127711 0.026707 -0.157697
0.186203 0.164933 -0.018939
0.448245 0.276138 -0.606615
0.133411 0.252000 0.053106
0.226085 0.235454 0.126881
0.208518 -0.193022 0.027606
0.314442 -0.254724 0.340437
0.352785 -0.097623 0.600825
0.286304 -0.134053 0.736442
0.213994 -0.011389 -0.053955
0.289140 0.060744 0.040092
0.339748 0.046999 0.573699
0.712102 0.104141 -0.473037
0.320746 0.174417 0.739803
0.695769 0.204047 -0.529433
0.379523 0.246980 0.819975
0.359679 0.231023 0.873916
0.237345 0.257584 0.199280
0.346840 -0.242217 0.291997
0.423149 -0.236107 0.538906
0.432310 -0.233704 0.746714
0.295649 -0.113088 0.074491
0.252875 -0.005280 0.711651
0.275226 0.249152 0.312676
0.361374 0.240776 0.406721
0.344442 0.249302 0.311958
0.363187 -0.201558 0.214845
0.697193 -0.206718 -0.512940
0.445842 -0.174751 0.283533
0.390110 -0.093706 0.149629
0.351705 -0.036667 0.676161
0.405668 0.055299 0.134185
0.349577 0.143015 0.117868
0.424742 0.191114 0.651975
0.387294 0.200568 0.230716
0.429209 0.219858 0.532383
0.468884 0.253772 0.740028
0.455406 -0.234802 0.414226
0.514491 -0.252666 0.558407
0.506280 -0.275142 0.727305
0.501092 -0.267220 0.800560
0.564639 -0.183270 0.424588
0.491595 -0.148640 -0.699962
0.442619 -0.041480 -0.751405
0.487602 -0.003580 0.223882
0.519541 -0.003505 -0.725034
0.513627 0.033545 0.956879
0.419611 0.133668 -0.749329
0.497151 0.098510 0.251686
0.448501 0.240217 0.419361
0.501981 0.260126 0.819109
0.514476 0.242799 0.561628
0.544876 -0.206011 -0.668498
0.598053 -0.191402 0.499057
0.503235 -0.119201 0.947050
0.608932 -0.062713 0.903861
0.607740 -0.104589 0.425146
0.615150 0.060284 0.413729
0.608391 0.098023 0.893301
0.527284 0.198477 -0.674037
0.566112 0.180731 0.428472
0.550949 0.203384 0.866359
0.687111 0.236636 -0.627282
0.640874 -0.231756 -0.620741
0.578570 -0.254901 0.692153
0.611615 -0.177407 0.826925
0.654245 -0.157378 0.609260
0.669359 -0.142281 -0.730110
0.650069 -0.069174 0.485340
0.583321 -0.038843 -0.725355
0.645741 0.106436 0.486641
0.667373 0.166001 -0.727569
0.610260 0.210331 0.538014
0.649335 0.178906 0.594010
0.638226 0.157511 0.795232
0.576509 0.249304 0.734324
0.663927 -0.090182 0.855779
0.757136 -0.117935 -0.481719
0.682817 -0.052738 0.793450
0.683705 -0.001253 -0.783944
0.678976 0.032796 0.587901
0.655919 0.022184 0.867335
0.804369 0.205065 -0.577082
0.756298 -0.178138 -0.691209
0.800921 -0.184812 -0.582651
0.821961 -0.183649 -0.647631
0.853910 -0.106108 -0.653669
0.740673 -0.041945 -0.769780
0.846367 0.084621 -0.548146
0.729669 0.092612 -0.771466
0.744336 0.187420 -0.710466
0.823685 0.186631 -0.625226
0.881409 -0.053238 -0.590150
0.853555 0.065374 -0.665325
3 3 1 11
3 1 3 0
3 0 3 2
3 2 3 4
3 2 4 13
3 5 3 11
3 3 5 4
3 17 5 11
3 13 4 18
3 4 5 6
3 4 6 18
3 7 5 17
3 5 7 8
3 5 8 6
3 18 6 20
3 20 6 8
3 9 1 0
3 9 0 2
3 2 10 9
3 13 10 2
3 10 13 12
3 12 13 14
3 12 14 15
3 15 14 16
3 24 17 11
3 13 18 14
3 24 26 17
3 14 18 19
3 14 19 16
3 26 7 17
3 18 20 19
3 8 7 21
3 8 21 20
3 10 22 9
3 22 10 12
3 12 15 28
3 28 15 23
3 29 30 11
3 16 23 15
3 30 24 11
3 31 26 24
3 19 25 16
3 19 32 25
3 27 20 21
3 20 27 19
3 19 27 32
3 9 22 33
3 34 33 22
3 22 12 34
3 34 12 28
3 11 1 39
3 23 16 25
3 27 45 32
3 21 46 27
3 27 46 45
3 35 9 33
3 36 33 34
3 35 1 9
3 37 35 33
3 36 37 33
3 38 34 28
3 38 28 52
3 52 28 23
3 40 41 53
3 52 23 59
3 42 40 56
3 40 42 41
3 59 23 25
3 60 42 56
3 41 42 43
3 41 43 53
3 60 43 42
3 59 25 32
3 47 44 46
3 44 48 46
3 46 21 47
3 45 46 48
3 35 37 49
3 36 34 63
3 63 34 38
3 49 37 55
3 36 50 37
3 36 63 50
3 65 40 64
3 64 40 54
3 52 51 38
3 56 40 65
3 40 53 54
3 37 50 55
3 52 57 51
3 55 50 58
3 59 57 52
3 66 60 56
3 53 43 61
3 44 67 58
3 58 48 44
3 62 67 44
3 43 70 61
3 60 70 43
3 47 21 7
3 62 44 47
3 72 45 48
3 72 71 45
3 45 71 32
3 63 38 73
3 64 54 74
3 49 55 76
3 56 65 77
3 39 29 11
3 79 54 53
3 76 55 67
3 67 55 58
3 79 53 61
3 79 61 82
3 83 60 66
3 48 58 68
3 69 57 59
3 57 69 81
3 69 59 32
3 70 82 61
3 68 72 48
3 71 69 32
3 70 60 88
3 70 85 82
3 86 47 7
3 72 87 71
3 70 88 85
3 35 90 89
3 90 35 49
3 38 75 73
3 51 75 38
3 63 92 50
3 51 93 75
3 54 78 74
3 93 51 57
3 79 78 54
3 50 92 80
3 96 76 67
3 58 50 80
3 68 58 80
3 93 57 81
3 79 82 97
3 68 80 84
3 99 67 62
3 98 7 26
3 7 98 86
3 62 47 99
3 72 68 84
3 84 100 72
3 87 69 71
3 83 88 60
3 100 87 72
3 91 73 75
3 102 65 64
3 102 64 74
3 39 1 35
3 63 73 92
3 90 49 94
3 94 49 76
3 95 78 79
3 96 94 76
3 97 95 79
3 96 67 99
3 97 82 101
3 85 101 82
3 99 47 86
3 85 88 106
3 85 106 101
3 102 74 107
3 89 39 35
3 91 108 73
3 109 91 112
3 107 74 111
3 111 74 78
3 108 92 73
3 91 75 112
3 102 77 65
3 111 78 95
3 92 108 103
3 75 93 114
3 80 92 103
3 77 66 56
3 115 95 97
3 104 80 103
3 114 93 116
3 93 81 116
3 84 80 104
3 118 97 101
3 69 105 81
3 81 105 116
3 104 100 84
3 69 87 105
3 120 88 83
3 87 119 105
3 88 120 106
3 110 91 109
3 110 109 122
3 108 91 110
3 109 112 122
3 107 124 102
3 90 94 113
3 124 77 102
3 112 75 114
3 113 94 127
3 126 103 108
3 94 96 127
3 127 96 129
3 130 66 77
3 126 131 103
3 131 104 103
3 129 96 117
3 130 83 66
3 99 117 96
3 132 97 118
3 131 134 104
3 100 104 134
3 136 120 83
3 99 86 117
3 100 121 87
3 100 134 121
3 120 136 106
3 121 139 119
3 121 119 87
3 119 139 138
3 122 140 110
3 123 89 90
3 90 113 123
3 125 110 140
3 124 107 111
3 108 110 125
3 126 108 125
3 77 124 141
3 141 143 77
3 142 111 95
3 128 126 125
3 144 127 129
3 77 143 130
3 131 126 128
3 143 135 130
3 133 131 128
3 130 135 83
3 134 131 133
3 134 133 121
3 136 83 135
3 137 117 86
3 119 138 105
3 106 136 101
3 86 146 137
3 89 123 148
3 149 140 122
3 150 39 89
3 153 125 140
3 122 112 149
3 141 124 155
3 153 157 125
3 115 142 95
3 157 128 125
3 157 158 128
3 158 147 128
3 147 133 128
3 105 145 116
3 147 121 133
3 139 121 147
3 105 138 145
3 146 160 137
3 161 139 147
3 138 139 161
3 150 89 148
3 151 140 149
3 140 154 153
3 140 163 154
3 163 140 151
3 152 151 149
3 155 124 111
3 153 154 157
3 112 114 165
3 166 143 141
3 165 114 169
3 114 116 169
3 170 129 117
3 169 116 145
3 98 146 86
3 172 117 137
3 159 161 147
3 159 162 161
3 175 138 162
3 173 174 136
3 136 174 101
3 174 118 101
3 172 137 160
3 162 138 161
3 152 149 164
3 164 149 112
3 151 179 163
3 166 141 155
3 157 154 167
3 154 163 167
3 163 168 167
3 163 179 168
3 180 143 166
3 158 157 167
3 180 135 143
3 30 31 24
3 159 158 167
3 167 168 159
3 180 171 135
3 147 158 159
3 31 98 26
3 168 162 159
3 171 136 135
3 138 181 145
3 171 173 136
3 175 181 138
3 176 151 152
3 176 152 164
3 185 123 113
3 184 151 176
3 155 111 156
3 164 112 177
3 142 156 111
3 187 179 151
3 151 184 187
3 165 177 112
3 178 188 166
3 178 166 155
3 30 29 39
3 188 180 166
3 179 189 168
3 189 190 168
3 188 171 180
3 162 168 190
3 162 190 192
3 132 118 174
3 175 162 192
3 175 192 183
3 181 183 182
3 181 182 145
3 181 175 183
3 186 184 176
3 176 195 186
3 176 164 195
3 155 198 178
3 198 155 156
3 200 39 150
3 184 186 187
3 177 165 178
3 178 165 188
3 200 201 39
3 201 30 39
3 187 189 179
3 165 169 188
3 201 205 30
3 115 97 132
3 205 31 30
3 188 169 191
3 188 191 171
3 98 31 205
3 190 189 192
3 193 169 145
3 169 193 191
3 98 205 146
3 145 182 193
3 171 191 194
3 192 207 183
3 183 207 182
3 194 173 171
3 194 208 173
3 208 174 173
3 182 207 193
3 195 164 177
3 197 178 198
3 150 148 210
3 196 195 177
3 197 196 177
3 178 197 177
3 210 200 150
3 186 195 199
3 156 142 212
3 212 142 115
3 200 203 201
3 186 202 187
3 204 212 115
3 205 201 203
3 187 202 189
3 115 132 204
3 203 217 205
3 202 206 189
3 192 189 206
3 206 218 192
3 204 132 219
3 146 205 217
3 192 218 207
3 219 132 174
3 146 217 160
3 209 193 207
3 191 193 209
3 194 191 209
3 174 208 219
3 220 172 160
3 148 123 221
3 196 197 222
3 198 222 197
3 221 210 148
3 196 211 195
3 222 211 196
3 223 222 198
3 156 223 198
3 199 195 211
3 212 223 156
3 199 214 186
3 213 223 212
3 210 227 200
3 202 186 214
3 227 203 200
3 212 204 213
3 215 202 214
3 213 204 216
3 206 202 215
3 227 217 203
3 206 215 218
3 204 219 216
3 220 160 217
3 207 218 209
3 230 209 218
3 230 233 209
3 208 233 219
3 233 194 209
3 233 208 194
3 221 123 185
3 222 223 224
3 221 225 210
3 211 222 224
3 185 113 235
3 199 211 214
3 211 226 214
3 211 224 226
3 234 223 213
3 210 225 227
3 235 113 127
3 227 225 237
3 234 213 239
3 214 226 215
3 226 228 215
3 239 213 216
3 229 227 237
3 227 229 217
3 239 216 232
3 172 170 117
3 215 228 218
3 228 230 218
3 228 231 230
3 232 216 219
3 229 220 217
3 230 231 233
3 231 232 233
3 233 232 219
3 221 242 241
3 221 185 242
3 241 225 221
3 241 245 225
3 224 223 236
3 223 234 236
3 245 237 225
3 226 224 238
3 224 236 238
3 235 127 144
3 234 239 236
3 228 226 238
3 245 247 237
3 144 129 170
3 247 229 237
3 236 232 238
3 236 239 232
3 231 228 238
3 238 232 231
3 247 248 229
3 248 220 229
3 249 220 248
3 240 220 249
3 240 172 220
3 242 243 241
3 242 185 235
3 241 243 244
3 245 241 244
3 235 144 246
3 144 170 246
3 246 170 172
3 240 246 172
3 243 242 244
3 242 250 244
3 242 235 250
3 235 246 250
3 244 251 245
3 244 250 251
3 250 246 251
3 245 251 247
3 248 247 251
3 249 248 251
3 251 246 249
3 246 240 249
