ply
format ascii 1.0
element vertex 252
property float x
property float y
property float z
element face 500
property list uchar int vertex_indices
end_header
-0.452021 -0.069328 0.205455
-0.416477 -0.123481 0.644955
-0.428082 -0.040965 0.122189
-0.461930 -0.030660 0.671388
-0.448454 0.010294 0.170502
-0.421465 0.078807 0.121704
-0.412058 0.146006 0.231245
-0.412209 0.107798 0.658592
-0.347913 -0.223784 0.193583
-0.330225 -0.239610 0.356418
-0.350134 -0.227053 0.600335
-0.359498 -0.184581 0.113778
-0.419785 -0.137420 0.198256
-0.348758 -0.190393 0.660413
-0.447920 -0.035496 0.707177
-0.337685 -0.077030 -0.017376
-0.367629 -0.086539 0.035098
-0.371091 0.055189 0.023544
-0.330496 0.033840 -0.042464
-0.385526 0.159639 0.114527
-0.370237 0.211800 0.584008
-0.339539 0.178237 0.655238
-0.344219 0.219106 0.159197
-0.329972 0.247197 0.387048
-0.265878 -0.238556 0.349710
-0.270876 -0.251555 0.559422
-0.310875 -0.195375 0.026351
-0.277118 -0.180198 -0.050394
-0.353020 -0.099847 0.705387
-0.217665 -0.093720 -0.174270
-0.379473 0.032470 0.710456
-0.204129 0.014896 -0.199514
-0.300348 0.130108 -0.049374
-0.335849 0.172179 0.027894
-0.279698 0.210991 -0.000523
-0.264020 0.251322 0.402927
-0.272266 0.249284 0.566086
-0.274520 -0.243619 0.106152
-0.284730 -0.243178 0.268978
-0.202439 -0.227559 0.458484
-0.189585 -0.228538 0.580678
-0.182197 -0.212841 -0.923616
-0.237475 -0.156379 -0.598645
-0.245064 -0.233062 -0.023540
-0.216668 -0.195996 0.660353
-0.236877 -0.143892 -1.000598
-0.224964 -0.104538 -0.495106
-0.122205 -0.228020 -0.219343
-0.184511 -0.187328 0.253994
-0.177508 -0.155782 0.336306
-0.169127 -0.112701 0.697317
-0.238826 -0.038246 -1.048012
-0.264616 -0.068982 -0.940571
-0.256375 0.052233 -0.974617
-0.239767 0.048370 -0.523151
-0.207381 -0.023036 -0.424760
-0.189872 0.072082 0.702321
-0.189369 0.124552 -1.034651
-0.238072 0.144912 -0.589666
-0.175130 0.116080 -0.210544
-0.231061 0.154567 -0.958194
-0.188424 0.184528 -0.494380
-0.172126 0.231367 -0.615370
-0.121346 0.239657 -0.180656
-0.181713 0.164823 0.261580
-0.223111 0.211836 0.348984
-0.204483 0.201090 0.651391
-0.256907 0.251397 0.128194
-0.275571 0.238498 0.274537
-0.198607 0.239050 0.510289
-0.197651 0.239065 0.601145
-0.139011 -0.264963 0.086662
-0.123283 -0.241237 -0.900826
-0.080226 -0.267133 -0.730226
-0.199703 -0.192273 -0.532731
-0.098240 -0.270825 -0.564024
-0.209904 -0.239454 0.183112
-0.134050 -0.213545 -0.419144
-0.139925 -0.135985 0.457194
-0.185353 -0.146502 -1.037280
-0.168428 -0.098259 -0.307961
-0.137890 -0.140993 0.659850
-0.186097 -0.119611 -0.409415
-0.150035 -0.090267 0.284687
-0.182456 -0.009710 -1.073244
-0.181229 0.008429 -0.354547
-0.138491 -0.042267 0.336245
-0.171549 0.047871 -0.275469
-0.131839 0.030730 0.282525
-0.134099 0.049487 0.348108
-0.181416 0.111178 -0.407193
-0.164823 0.118783 0.327024
-0.122872 0.198190 -0.302761
-0.182930 0.209269 -0.963615
-0.115724 0.233808 -0.409422
-0.060752 0.181082 0.148140
-0.150968 0.146797 0.435486
-0.140504 0.154927 0.651521
-0.116188 0.282588 -0.031565
-0.196565 0.229410 0.177531
-0.207443 0.229543 0.420204
-0.113781 0.238002 -0.890258
-0.096455 0.261824 -0.717728
-0.101221 0.275013 -0.581761
-0.147578 0.262095 0.084429
-0.039500 -0.310249 -0.111131
-0.077767 -0.298641 -0.025866
-0.126119 -0.211328 -0.974520
-0.039016 -0.287476 -0.494732
-0.042882 -0.277612 -0.361827
-0.120008 -0.240371 0.123159
-0.041534 -0.209495 -0.828743
-0.029076 -0.181988 0.127874
-0.100641 -0.170762 -1.024593
-0.068468 -0.090543 -1.032983
-0.058153 -0.069202 0.191526
-0.106468 -0.028772 0.690481
-0.093161 -0.047683 0.650065
-0.009430 0.064665 0.176250
-0.114271 0.013326 0.429592
-0.096931 0.076925 0.661180
-0.069447 0.095459 -1.042527
-0.108922 0.088516 0.689441
-0.097122 0.162408 -1.033894
-0.132220 0.210395 -0.987965
-0.051997 0.166690 -0.960328
-0.047637 0.223004 -0.812347
-0.082762 0.271255 -0.489314
-0.033189 0.311652 -0.113269
-0.065625 0.223178 0.112831
-0.037145 0.281206 -0.338465
0.042371 -0.326348 -0.167633
-0.018300 -0.250603 -0.685889
-0.008919 -0.277309 -0.553712
-0.040443 -0.269316 0.038141
-0.060046 -0.164103 -0.984055
0.047832 -0.203211 -0.639925
0.019325 -0.120011 -0.807127
-0.001028 -0.064511 -0.928680
0.036514 0.003334 -0.821916
-0.016455 0.005906 -1.017235
0.012243 0.056843 -0.897151
-0.010309 0.066606 -0.987293
0.015271 0.121144 -0.823953
0.027907 0.189105 -0.719052
0.042766 0.227265 -0.625621
-0.032478 0.265483 -0.620632
-0.031875 0.278516 0.024993
0.050628 0.302003 -0.315766
-0.009412 0.316406 -0.057967
0.048338 0.336566 -0.110169
0.032200 -0.291067 -0.409490
0.033864 -0.309438 -0.047402
0.134508 -0.228640 -0.433079
0.026094 -0.178696 -0.724750
0.097417 -0.196116 -0.554107
0.113246 -0.196570 0.113438
0.093673 -0.081708 -0.671426
0.095427 -0.076223 0.171454
0.071715 -0.040314 -0.732015
0.107374 0.021785 -0.664972
0.061947 0.082624 -0.739285
0.159090 0.074586 0.209195
0.073256 0.163816 -0.659963
0.093857 0.188318 0.119489
0.097071 0.196228 -0.564319
0.146552 0.208597 -0.453246
0.038530 0.270681 -0.461326
0.027772 0.320002 -0.199493
0.130671 0.340713 -0.131642
0.129271 -0.346824 -0.134714
0.152495 -0.316819 -0.207897
0.157696 -0.331821 -0.049608
0.145940 -0.158511 -0.510266
0.172999 -0.167017 -0.456684
0.138659 -0.072625 -0.582486
0.199174 -0.155681 0.198764
0.207859 -0.087209 -0.470218
0.194138 0.043964 -0.500390
0.137092 0.080725 -0.584704
0.168761 0.161720 0.163950
0.150984 0.153847 -0.507340
0.190370 0.176815 -0.426376
0.204561 0.243752 -0.317403
0.167526 0.310088 -0.212189
0.170454 0.316094 -0.024202
0.213203 -0.330214 -0.086084
0.184819 -0.230391 0.120148
0.283221 -0.278132 0.131909
0.423033 -0.213942 0.334711
0.337357 -0.155387 -0.274879
0.371156 -0.137118 0.376700
0.332103 -0.050587 0.375798
0.392048 0.014489 -0.267102
0.340116 0.136627 0.347963
0.207411 0.225218 0.135777
0.287138 0.296324 0.087559
0.243265 0.315990 -0.101670
0.318454 -0.258869 -0.139873
0.338971 -0.300971 0.090702
0.340921 -0.210960 -0.200097
0.395523 -0.089492 -0.249096
0.360043 0.048197 0.405461
0.352495 0.135866 -0.267807
0.413951 0.219737 0.337705
0.334503 0.220498 -0.195559
0.382375 0.238163 -0.085220
0.296680 0.308300 -0.001648
0.373934 -0.288236 0.050085
0.420152 -0.224405 -0.042030
0.423402 -0.263568 0.262385
0.431725 -0.160045 -0.126506
0.406317 -0.142531 -0.198385
0.450815 -0.118712 0.422261
0.410856 0.001952 0.437001
0.455131 0.128615 0.421287
0.424612 0.092433 -0.188094
0.422759 0.253399 0.035566
0.362208 0.294879 0.101385
0.444020 0.263664 0.285288
0.469009 -0.257656 0.139074
0.505164 -0.181784 0.041751
0.484648 -0.153626 -0.044079
0.439548 -0.064327 -0.188978
0.477290 -0.040854 -0.116157
0.457278 0.121522 -0.105146
0.441313 0.211594 -0.038185
0.495129 0.130167 -0.032232
0.515859 0.150625 0.027893
0.575375 0.155556 0.135980
0.485915 0.252256 0.236891
0.491701 -0.247329 0.281418
0.510254 -0.221299 0.358422
0.562470 -0.190176 0.188540
0.588384 -0.112344 0.119344
0.514525 -0.178685 0.401217
0.519317 -0.085931 -0.026188
0.550536 -0.031253 0.026367
0.566778 -0.093187 0.418387
0.520313 -0.000433 0.450562
0.508651 0.020586 -0.056992
0.522138 0.166365 0.411319
0.582189 0.178606 0.218621
0.491266 0.221451 0.349160
0.570273 -0.170000 0.344438
0.619577 -0.071384 0.197869
0.620256 -0.025037 0.344036
0.603151 0.016470 0.115453
0.573524 0.081966 0.415660
0.619245 0.095395 0.203850
0.613379 0.095639 0.357127
0.577931 0.157385 0.353587
3 0 1 12
3 2 0 12
3 1 0 3
3 1 3 14
3 0 2 4
3 0 4 3
3 2 5 4
3 4 5 6
3 4 6 3
3 3 6 7
3 3 7 14
3 11 12 8
3 8 12 9
3 9 12 1
3 9 1 10
3 10 1 13
3 13 1 28
3 1 14 28
3 16 2 11
3 11 2 12
3 16 15 17
3 16 17 2
3 28 14 30
3 15 18 17
3 2 17 5
3 30 14 7
3 32 17 18
3 30 7 21
3 19 5 17
3 5 19 6
3 7 6 20
3 7 20 21
3 22 6 19
3 6 22 23
3 6 23 20
3 26 11 37
3 8 37 11
3 8 38 37
3 8 9 38
3 38 9 24
3 25 24 9
3 10 25 9
3 10 13 25
3 13 44 25
3 43 27 26
3 28 44 13
3 44 28 50
3 27 15 26
3 26 15 16
3 11 26 16
3 29 31 18
3 15 29 18
3 31 59 32
3 31 32 18
3 56 30 21
3 17 32 33
3 17 33 19
3 63 32 59
3 56 21 66
3 63 34 32
3 34 33 32
3 19 33 22
3 22 33 34
3 34 67 22
3 67 68 22
3 22 68 23
3 68 35 23
3 36 23 35
3 20 23 36
3 36 21 20
3 36 66 21
3 71 37 76
3 39 24 25
3 40 39 25
3 41 42 74
3 37 43 26
3 76 37 38
3 40 25 44
3 79 45 41
3 41 45 42
3 74 42 46
3 43 47 27
3 48 76 38
3 38 24 48
3 24 49 48
3 24 39 49
3 27 47 29
3 79 51 45
3 51 52 45
3 45 52 42
3 42 52 46
3 15 27 29
3 84 51 79
3 82 46 55
3 52 51 53
3 52 53 54
3 52 54 46
3 46 54 55
3 50 28 56
3 56 28 30
3 57 51 84
3 51 57 53
3 53 58 54
3 55 54 90
3 60 53 57
3 53 60 58
3 54 58 61
3 54 61 90
3 58 60 62
3 58 62 61
3 57 93 60
3 68 99 64
3 64 65 68
3 93 62 60
3 63 98 34
3 98 67 34
3 68 67 99
3 35 68 65
3 65 100 35
3 35 100 69
3 70 66 36
3 67 104 99
3 36 35 69
3 70 36 69
3 105 43 106
3 43 37 106
3 37 71 106
3 72 107 41
3 73 72 41
3 75 73 41
3 74 75 41
3 74 77 75
3 47 43 105
3 110 71 76
3 40 78 39
3 41 107 79
3 107 113 79
3 74 46 77
3 77 80 47
3 48 110 76
3 49 39 78
3 44 81 40
3 82 77 46
3 77 82 80
3 47 80 29
3 49 83 48
3 78 40 81
3 44 50 81
3 79 113 114
3 78 86 49
3 81 50 116
3 114 84 79
3 82 55 80
3 80 55 85
3 49 86 83
3 80 85 87
3 80 87 31
3 29 80 31
3 83 86 88
3 116 50 56
3 86 89 88
3 116 56 122
3 55 90 85
3 85 90 87
3 31 87 59
3 89 91 88
3 89 96 91
3 121 57 84
3 123 57 121
3 87 90 92
3 87 92 59
3 88 91 64
3 122 56 97
3 61 94 90
3 90 94 92
3 59 92 63
3 65 64 91
3 91 96 65
3 96 97 69
3 97 56 66
3 93 57 124
3 57 123 124
3 99 129 95
3 64 99 95
3 100 65 96
3 96 69 100
3 97 70 69
3 66 70 97
3 124 101 93
3 62 93 101
3 102 62 101
3 103 62 102
3 62 103 127
3 62 127 61
3 127 94 61
3 128 98 63
3 129 99 104
3 98 104 67
3 132 73 133
3 73 75 133
3 108 133 75
3 134 106 71
3 110 134 71
3 72 111 107
3 132 111 73
3 73 111 72
3 77 108 75
3 108 77 109
3 109 77 47
3 110 112 134
3 135 113 107
3 135 107 111
3 110 48 112
3 135 114 113
3 115 112 48
3 48 83 115
3 81 117 78
3 81 116 117
3 115 88 118
3 83 88 115
3 119 86 78
3 78 117 119
3 114 121 84
3 89 86 119
3 117 120 119
3 117 116 120
3 116 122 120
3 96 89 119
3 119 120 96
3 88 64 118
3 122 97 120
3 121 125 123
3 118 64 95
3 97 96 120
3 124 123 125
3 101 125 126
3 124 125 101
3 126 102 101
3 126 146 102
3 92 94 130
3 63 92 130
3 146 103 102
3 103 146 127
3 127 130 94
3 98 147 104
3 147 129 104
3 128 149 98
3 98 149 147
3 109 131 151
3 131 47 105
3 152 131 105
3 152 105 106
3 134 152 106
3 133 108 151
3 109 151 108
3 47 131 109
3 133 136 132
3 111 154 137
3 111 132 154
3 154 132 136
3 111 138 135
3 111 137 138
3 158 112 115
3 135 138 114
3 137 139 138
3 114 138 140
3 138 139 141
3 158 115 118
3 121 114 140
3 138 142 140
3 138 141 142
3 140 142 121
3 139 143 141
3 141 125 142
3 141 143 125
3 125 121 142
3 143 126 125
3 143 144 126
3 164 95 129
3 126 144 146
3 144 145 146
3 164 129 147
3 167 146 145
3 167 127 146
3 167 148 130
3 167 130 127
3 148 168 130
3 130 168 63
3 168 150 128
3 168 128 63
3 150 149 128
3 131 172 170
3 152 172 131
3 151 131 171
3 131 170 171
3 153 133 151
3 151 171 153
3 133 155 136
3 133 153 155
3 152 134 156
3 156 134 112
3 155 175 136
3 136 157 154
3 136 175 157
3 156 112 158
3 159 137 154
3 139 137 159
3 154 157 159
3 157 160 159
3 161 139 159
3 159 160 161
3 158 118 162
3 143 139 161
3 160 163 161
3 144 143 161
3 161 163 144
3 162 118 164
3 164 118 95
3 145 144 163
3 163 165 145
3 145 165 167
3 165 166 167
3 166 183 167
3 167 183 148
3 183 184 148
3 147 185 164
3 184 168 148
3 169 168 184
3 149 150 185
3 185 147 149
3 169 150 168
3 185 150 169
3 172 186 170
3 170 186 171
3 152 187 172
3 156 187 152
3 173 155 153
3 153 174 173
3 156 176 187
3 155 173 175
3 173 177 175
3 173 174 177
3 158 176 156
3 176 158 192
3 160 157 175
3 177 178 175
3 179 160 175
3 175 178 179
3 158 162 192
3 163 160 179
3 178 181 179
3 178 182 181
3 164 180 162
3 165 163 179
3 179 181 165
3 166 165 181
3 181 182 166
3 195 180 164
3 195 164 185
3 184 197 169
3 169 197 185
3 171 186 198
3 172 199 186
3 153 171 200
3 171 198 200
3 172 187 188
3 172 188 199
3 188 187 189
3 174 153 190
3 153 200 190
3 176 189 187
3 189 176 191
3 174 190 177
3 192 191 176
3 178 177 193
3 192 162 202
3 178 203 182
3 180 194 162
3 162 194 202
3 182 183 166
3 180 195 194
3 195 196 204
3 183 205 184
3 205 197 184
3 185 196 195
3 197 207 185
3 185 207 196
3 186 199 208
3 209 198 186
3 186 208 209
3 177 190 201
3 193 177 201
3 183 182 203
3 203 205 183
3 195 204 194
3 205 206 197
3 206 207 197
3 218 196 207
3 199 220 208
3 210 199 188
3 211 200 198
3 198 209 211
3 210 188 189
3 190 200 212
3 200 211 212
3 189 191 213
3 212 223 201
3 212 201 190
3 192 213 191
3 201 223 193
3 214 213 192
3 202 214 192
3 215 214 202
3 203 178 193
3 193 216 203
3 194 215 202
3 203 216 205
3 225 206 216
3 216 206 205
3 225 226 206
3 194 204 215
3 206 226 217
3 204 196 219
3 206 217 207
3 217 218 207
3 196 218 219
3 220 199 231
3 199 210 231
3 221 209 208
3 208 220 221
3 231 210 189
3 232 231 189
3 211 209 222
3 209 221 222
3 232 189 235
3 235 189 213
3 211 223 212
3 211 224 223
3 211 222 224
3 213 238 235
3 238 213 239
3 239 213 214
3 216 193 223
3 223 224 216
3 224 225 216
3 224 240 225
3 239 214 215
3 240 227 225
3 225 227 226
3 227 228 226
3 228 217 226
3 228 229 217
3 241 215 243
3 243 215 204
3 229 230 217
3 219 230 243
3 204 219 243
3 230 218 217
3 230 219 218
3 220 233 221
3 231 233 220
3 221 233 234
3 233 231 244
3 231 232 244
3 232 235 244
3 244 235 238
3 222 221 236
3 221 237 236
3 221 234 237
3 224 222 236
3 234 247 237
3 240 224 236
3 236 237 240
3 248 239 215
3 240 237 227
3 237 228 227
3 247 229 228
3 237 247 228
3 248 215 241
3 248 241 251
3 242 251 243
3 251 241 243
3 242 230 229
3 230 242 243
3 233 245 234
3 233 244 245
3 244 246 245
3 238 246 244
3 234 245 247
3 238 248 246
3 238 239 248
3 245 249 247
3 245 246 249
3 246 250 249
3 246 248 250
3 247 249 229
3 250 251 249
3 251 250 248
3 229 249 242
3 249 251 242
