ply
format ascii 1.0
element vertex 252
property float x
property float y
property float z
element face 500
property list uchar int vertex_indices
end_header
-0.780711 -0.120871 -0.977250
-0.739806 -0.190187 -0.825525
-0.769320 -0.074575 -0.741277
-0.777016 -0.025365 -1.053572
-0.803353 -0.078911 -0.830579
-0.794791 0.044597 -0.957413
-0.802565 0.028938 -0.795954
-0.749735 0.081961 -0.715754
-0.730017 0.110357 -1.042868
-0.725160 0.194860 -0.967479
-0.741471 0.183568 -0.817854
-0.733712 0.174024 -0.737770
-0.690150 -0.241696 -0.941195
-0.595990 -0.276322 -0.789979
-0.718018 -0.116578 -1.044727
-0.620695 -0.177841 -0.625936
-0.709305 0.023586 -1.082240
-0.584676 0.179301 -0.594755
-0.662351 0.230916 -0.733907
-0.649583 0.274557 -0.906535
-0.595410 0.291525 -0.815798
-0.577785 -0.284639 -0.893935
-0.622690 -0.235667 -0.987702
-0.493490 -0.148647 -0.982213
-0.522692 -0.000818 -1.033265
-0.512269 0.102921 -0.486452
-0.518039 0.142266 -1.002404
-0.627424 0.236704 -0.977415
-0.581860 0.291911 -0.894752
-0.475156 -0.186052 -0.527195
-0.525141 -0.077227 -0.493806
-0.435090 0.280573 -0.636372
-0.373479 -0.300992 -0.669714
-0.396886 -0.288336 -0.643645
-0.514729 -0.236483 -0.945595
-0.424357 -0.082898 0.506581
-0.420304 -0.130225 0.651997
-0.433165 0.017605 0.492140
-0.461491 -0.015149 0.642685
-0.417359 0.128055 0.538406
-0.416336 0.116642 0.659983
-0.474037 0.172112 -0.509747
-0.507212 0.239590 -0.940603
-0.293273 -0.292193 -0.643378
-0.335896 -0.221892 -0.478754
-0.350790 -0.201776 0.507737
-0.340236 -0.236680 0.588059
-0.359564 -0.187924 0.658406
-0.132804 -0.107096 -0.695429
-0.406452 -0.099205 -0.429858
-0.349790 -0.109615 0.416464
-0.436694 -0.021991 0.694304
-0.357717 0.006349 -0.381949
-0.359290 -0.003096 0.400662
-0.410222 0.081427 -0.431465
-0.149129 0.054700 -0.737707
-0.355264 0.131257 0.430173
-0.201977 0.140142 -0.754458
-0.349972 0.225673 0.582447
-0.345860 0.197022 0.650420
-0.249939 0.220188 -0.729656
-0.337604 0.212620 0.487304
-0.344087 0.300082 -0.670990
-0.300213 -0.281529 -0.572330
-0.021512 -0.209223 -0.528579
-0.234250 -0.256960 -0.452889
-0.202856 -0.193086 -0.362864
-0.368934 -0.110798 0.697650
-0.259181 -0.054000 -0.327645
-0.338083 -0.016415 0.717399
-0.275033 0.062244 -0.339473
-0.356711 0.100034 0.696424
-0.327179 0.288859 -0.583564
-0.201438 0.183414 -0.365811
-0.216081 0.273808 -0.470856
-0.253592 0.257383 0.594451
-0.254251 -0.257937 0.592052
-0.205449 -0.261200 0.506345
-0.273079 -0.195013 0.437245
-0.259719 -0.053501 0.370072
-0.134870 -0.031402 -0.720078
-0.187635 -0.087611 -0.295845
-0.181867 0.049907 -0.281351
-0.271906 0.109858 0.381502
-0.274279 0.205223 0.433449
-0.204555 0.262722 0.507929
-0.275175 0.305643 -0.577604
-0.008032 -0.271781 -0.415287
-0.026791 -0.140907 -0.582403
-0.057127 -0.230028 0.419137
-0.063450 0.039160 0.325809
0.339817 0.100278 0.698151
-0.116517 0.139261 -0.273135
-0.052610 0.224501 0.414678
-0.025457 0.136068 -0.596789
-0.006034 0.264718 -0.415819
-0.079598 -0.258781 -0.357888
0.029125 -0.281593 0.474750
-0.097511 -0.173061 -0.272406
0.027605 -0.238512 -0.189389
0.043450 -0.181268 -0.100782
-0.041118 -0.101946 0.336191
-0.114429 0.044742 -0.233627
-0.023533 -0.014265 -0.119742
0.328009 0.200407 0.633446
0.034082 0.180736 -0.511543
-0.074751 0.251785 -0.349751
0.105384 0.291519 0.538345
0.076671 -0.283341 0.544235
0.040381 -0.245725 -0.446370
0.336049 -0.196807 0.634994
0.053936 -0.137646 -0.047200
0.014332 0.009121 -0.056108
0.361156 -0.037541 0.699657
0.039671 -0.076116 0.303452
0.045654 0.045391 0.294539
0.008280 0.197607 -0.180923
0.042825 0.167023 -0.100554
0.063240 0.141122 -0.038100
0.035040 0.160146 0.331032
0.070778 0.220103 -0.448761
0.007091 0.282468 0.495516
0.110981 -0.260195 -0.146487
0.115915 -0.204598 0.354584
0.104096 -0.187234 -0.044804
0.050218 -0.093215 -0.534770
0.419258 -0.005904 0.254052
0.045676 0.031241 -0.014713
0.042516 0.083391 -0.551863
0.150461 0.144716 0.304448
0.128495 0.209641 -0.050402
0.108069 0.223278 0.365861
0.114282 0.252528 -0.147117
0.105383 -0.275149 0.429180
0.123696 -0.214957 -0.425161
0.180894 -0.260760 -0.089827
0.111424 -0.146030 -0.473097
0.146961 -0.140939 0.303812
0.108255 0.005314 -0.508732
0.110790 -0.016591 0.028416
0.119616 0.145420 -0.470741
0.117799 0.122032 0.013009
0.220638 0.240548 -0.323839
0.144488 0.292138 0.483704
0.232625 -0.292355 0.502177
0.215955 -0.252547 -0.304561
0.241017 -0.280850 -0.145546
0.302880 -0.288206 0.442746
0.349360 -0.182417 0.083431
0.287619 -0.173054 -0.351104
0.218549 -0.182679 0.034714
0.304147 -0.075371 -0.389883
0.272988 -0.062581 0.124439
0.267324 0.030069 -0.412854
0.274233 0.062650 0.133517
0.298274 0.169475 -0.341294
0.332160 0.197506 0.075171
0.248827 0.285256 -0.186297
0.252669 0.282027 -0.087951
0.265220 0.290851 0.446022
0.436747 -0.278618 0.001767
0.516862 -0.241054 0.342296
0.493219 -0.133316 0.262661
0.437277 -0.077799 -0.305003
0.514604 0.106359 0.244285
0.478177 0.239986 0.335297
0.364929 0.292654 -0.024403
0.304117 0.290695 0.510403
0.409393 -0.293968 -0.057465
0.458830 -0.265818 0.515452
0.352102 -0.242441 -0.234491
0.483675 -0.196629 0.601300
0.411882 -0.181633 -0.276785
0.434409 -0.127886 0.659677
0.371985 -0.053158 0.165728
0.414556 -0.000439 -0.338476
0.356147 0.065586 0.164352
0.421616 0.103004 0.678305
0.426465 0.110397 -0.294969
0.378808 0.240152 -0.211787
0.488793 0.197801 0.590276
0.466589 0.285400 0.437992
0.371215 0.297810 -0.077061
0.447048 -0.285470 -0.051533
0.461245 -0.228086 -0.183960
0.496302 -0.126156 0.176422
0.425592 -0.003355 0.689670
0.510584 0.215470 0.123624
0.450601 0.273159 0.024640
0.452208 0.269936 0.518838
0.492268 0.270217 -0.052831
0.550692 -0.257916 0.042831
0.547544 -0.273324 0.412778
0.683041 -0.197402 0.017325
0.520861 -0.207884 0.127368
0.534603 -0.135282 0.205064
0.578761 -0.220387 0.267304
0.504728 -0.128115 0.621271
0.510759 0.001432 0.235000
0.570204 0.065312 -0.188426
0.505173 0.046410 0.210736
0.496461 0.057777 0.638946
0.567376 0.205603 -0.098101
0.582746 0.212762 0.186010
0.594069 0.236102 0.264703
0.568837 0.258403 0.037878
0.604897 -0.234575 0.151161
0.647476 -0.240735 0.058627
0.687760 -0.239278 0.116263
0.658676 -0.255183 0.236757
0.634947 -0.267663 0.361076
0.632070 -0.244622 0.465579
0.581365 -0.144882 0.571170
0.694022 -0.151983 0.525431
0.570147 0.002479 0.598428
0.663770 0.001421 0.559591
0.578151 0.156389 0.563220
0.672865 0.169076 0.521149
0.602915 0.249717 0.109871
0.614135 0.273053 0.341517
0.626165 0.257320 0.455549
0.669107 0.251615 0.196686
0.744835 -0.212215 0.141404
0.755902 -0.091155 0.034026
0.772419 0.067880 0.039071
0.722395 0.173896 0.030810
0.657790 0.240453 0.060933
0.750695 0.216345 0.137068
0.742091 -0.265092 0.333977
0.780417 -0.244879 0.409302
0.815135 -0.129644 0.135317
0.803431 -0.183043 0.479775
0.821421 0.000825 0.101182
0.809894 0.062375 0.527532
0.818649 0.145991 0.148766
0.807231 0.159681 0.486742
0.797893 0.236631 0.413177
0.724634 0.273143 0.363230
0.864546 -0.205203 0.333257
0.913286 -0.149616 0.294325
0.889545 -0.163711 0.432199
0.839613 -0.075652 0.506902
0.927698 -0.052775 0.265182
0.875210 0.047461 0.502367
0.926208 0.077768 0.269728
0.910274 0.154440 0.293696
0.913256 0.124730 0.418438
0.855759 0.205096 0.319815
0.941846 -0.120731 0.357372
0.939912 -0.044897 0.433397
0.936869 0.131364 0.344244
0.962442 0.015369 0.352699
3 14 0 12
3 0 1 12
3 14 3 0
3 0 4 1
3 1 4 2
3 16 3 14
3 0 3 5
3 0 5 4
3 4 5 6
3 4 6 2
3 2 6 7
3 8 3 16
3 3 8 5
3 9 5 8
3 5 9 10
3 5 10 6
3 6 10 7
3 7 10 11
3 12 22 14
3 1 2 15
3 1 15 13
3 24 16 14
3 26 8 16
3 7 11 17
3 9 8 27
3 11 10 18
3 17 11 18
3 27 19 9
3 9 19 10
3 10 19 20
3 18 10 20
3 21 22 12
3 13 21 12
3 1 13 12
3 15 2 30
3 30 7 25
3 2 7 30
3 26 27 8
3 17 25 7
3 19 27 28
3 20 19 28
3 21 13 32
3 33 32 13
3 21 34 22
3 29 13 15
3 34 23 22
3 23 14 22
3 30 29 15
3 23 24 14
3 24 26 16
3 41 25 17
3 26 42 27
3 28 27 42
3 18 20 31
3 18 31 17
3 21 32 43
3 33 13 29
3 21 43 34
3 30 49 29
3 35 37 38
3 35 38 36
3 36 38 51
3 49 30 54
3 54 30 25
3 24 55 26
3 37 39 38
3 38 39 40
3 38 40 51
3 41 54 25
3 26 60 42
3 60 62 42
3 31 41 17
3 42 62 28
3 62 20 28
3 20 62 31
3 63 32 33
3 34 43 64
3 44 63 29
3 29 63 33
3 64 48 23
3 34 64 23
3 46 45 36
3 46 36 47
3 44 29 49
3 35 45 50
3 45 35 36
3 47 36 67
3 36 51 67
3 67 51 69
3 50 53 35
3 54 52 49
3 35 53 37
3 53 56 37
3 69 51 71
3 71 51 40
3 37 56 39
3 55 57 26
3 58 40 39
3 40 58 59
3 40 59 71
3 72 54 41
3 61 39 56
3 39 61 58
3 72 41 31
3 31 62 72
3 32 63 43
3 65 63 44
3 65 44 66
3 45 77 78
3 46 76 77
3 46 77 45
3 46 47 76
3 78 50 45
3 44 49 66
3 49 68 66
3 78 79 50
3 48 80 23
3 52 68 49
3 23 80 24
3 79 53 50
3 24 80 55
3 70 68 52
3 79 83 53
3 83 56 53
3 54 70 52
3 60 26 57
3 72 73 54
3 83 84 56
3 56 84 61
3 72 74 73
3 85 61 84
3 85 75 58
3 85 58 61
3 75 59 58
3 72 62 86
3 72 86 74
3 43 63 87
3 43 87 64
3 68 81 66
3 89 79 78
3 82 81 68
3 70 82 68
3 90 83 79
3 91 69 71
3 73 82 70
3 90 93 83
3 73 70 54
3 83 93 84
3 60 95 62
3 95 86 62
3 87 63 96
3 63 65 96
3 66 96 65
3 96 66 98
3 89 78 77
3 97 89 77
3 48 64 88
3 81 98 66
3 101 79 89
3 48 88 80
3 81 102 98
3 102 81 82
3 101 90 79
3 55 94 57
3 92 102 82
3 92 82 73
3 104 71 59
3 60 57 94
3 94 105 60
3 106 92 73
3 60 105 95
3 84 93 85
3 95 106 86
3 86 106 74
3 85 107 75
3 97 77 108
3 77 76 108
3 98 99 96
3 110 76 47
3 99 98 100
3 103 100 98
3 102 103 98
3 113 67 69
3 92 116 102
3 116 92 106
3 73 74 106
3 85 93 121
3 104 59 75
3 121 107 85
3 87 109 64
3 76 110 108
3 123 101 89
3 88 64 125
3 114 101 123
3 111 100 112
3 100 103 112
3 88 125 80
3 111 112 127
3 114 90 101
3 125 128 80
3 114 115 90
3 80 128 55
3 117 103 102
3 103 117 112
3 112 117 118
3 112 118 127
3 128 105 94
3 55 128 94
3 102 116 117
3 119 90 115
3 90 119 93
3 105 120 95
3 104 75 107
3 122 87 96
3 133 89 97
3 99 122 96
3 133 123 89
3 134 136 109
3 136 64 109
3 100 122 99
3 122 100 124
3 64 136 125
3 124 100 111
3 137 114 123
3 110 47 67
3 126 114 137
3 136 138 125
3 124 111 139
3 139 111 127
3 138 128 125
3 126 115 114
3 138 140 128
3 139 127 141
3 140 105 128
3 141 127 118
3 129 119 115
3 118 117 130
3 130 141 118
3 140 120 105
3 117 132 130
3 119 129 131
3 119 131 93
3 106 132 116
3 117 116 132
3 142 95 120
3 106 95 132
3 131 143 93
3 143 121 93
3 121 143 107
3 133 144 147
3 97 144 133
3 109 87 145
3 145 87 146
3 87 122 146
3 135 146 122
3 133 147 123
3 144 97 108
3 109 145 134
3 135 122 124
3 124 150 135
3 113 110 67
3 126 129 115
3 104 91 71
3 140 142 120
3 158 130 132
3 142 157 95
3 95 157 132
3 132 157 158
3 159 143 131
3 146 135 148
3 110 144 108
3 134 145 149
3 147 161 123
3 136 134 149
3 135 150 148
3 162 137 123
3 136 149 151
3 148 150 152
3 150 124 152
3 162 126 137
3 138 136 153
3 136 151 153
3 139 152 124
3 154 152 139
3 140 138 153
3 113 69 91
3 153 155 140
3 141 156 154
3 141 154 139
3 130 156 141
3 142 140 155
3 164 165 129
3 165 131 129
3 158 156 130
3 159 131 165
3 107 167 104
3 167 143 159
3 167 107 143
3 160 168 146
3 144 169 147
3 110 169 144
3 146 170 145
3 168 170 146
3 160 146 148
3 145 170 149
3 151 149 163
3 152 174 148
3 163 175 151
3 175 153 151
3 174 152 176
3 176 152 154
3 156 176 154
3 179 142 155
3 157 142 179
3 157 179 182
3 156 158 166
3 181 159 165
3 159 181 167
3 182 158 157
3 158 182 166
3 170 183 184
3 170 168 183
3 110 171 169
3 149 170 172
3 170 184 172
3 161 162 123
3 171 110 173
3 172 163 149
3 185 148 174
3 110 113 173
3 173 113 186
3 175 178 153
3 186 113 177
3 177 113 91
3 129 126 164
3 178 155 153
3 177 91 104
3 187 176 156
3 104 180 177
3 179 155 178
3 166 188 156
3 180 104 189
3 167 181 189
3 189 104 167
3 188 166 182
3 183 168 160
3 183 160 191
3 192 147 169
3 191 160 194
3 194 160 148
3 192 161 147
3 148 185 194
3 197 171 173
3 200 185 174
3 198 126 162
3 201 197 173
3 186 201 173
3 200 174 176
3 177 201 186
3 126 198 164
3 200 176 187
3 201 177 180
3 179 178 202
3 156 188 187
3 187 188 205
3 179 190 182
3 188 190 205
3 190 188 182
3 183 191 184
3 194 206 191
3 161 210 196
3 210 161 192
3 211 192 169
3 171 211 169
3 172 184 193
3 194 185 195
3 194 195 206
3 195 196 206
3 196 162 161
3 212 211 171
3 172 193 163
3 196 195 162
3 212 171 197
3 162 195 198
3 212 197 214
3 175 163 199
3 200 195 185
3 195 200 198
3 214 197 201
3 178 175 199
3 198 200 164
3 214 201 216
3 202 178 199
3 187 203 200
3 164 200 203
3 164 203 204
3 164 204 165
3 216 201 180
3 180 220 216
3 218 187 205
3 187 218 203
3 219 165 204
3 181 165 219
3 220 180 189
3 202 190 179
3 202 205 190
3 220 181 219
3 220 189 181
3 207 191 206
3 211 210 192
3 184 191 207
3 208 207 206
3 208 206 209
3 209 206 196
3 196 210 209
3 184 207 193
3 212 213 211
3 193 223 163
3 215 213 212
3 214 215 212
3 216 217 215
3 214 216 215
3 199 225 202
3 225 226 202
3 220 217 216
3 202 226 205
3 218 205 226
3 221 218 226
3 203 218 221
3 203 221 204
3 221 219 204
3 209 210 228
3 210 229 228
3 211 229 210
3 208 193 207
3 208 222 193
3 209 222 208
3 209 228 222
3 229 211 231
3 231 211 213
3 199 163 223
3 224 199 223
3 233 215 217
3 225 199 224
3 233 217 235
3 226 225 227
3 235 217 220
3 226 227 221
3 235 220 236
3 221 237 219
3 237 220 219
3 236 220 237
3 222 228 238
3 222 238 230
3 193 222 223
3 222 230 223
3 241 231 213
3 230 232 223
3 241 213 215
3 223 232 224
3 241 215 233
3 232 234 224
3 224 234 225
3 234 227 225
3 234 247 227
3 227 247 221
3 221 247 237
3 229 238 228
3 230 238 239
3 240 238 229
3 229 231 240
3 240 231 241
3 239 242 230
3 232 230 242
3 244 232 242
3 241 233 243
3 234 232 244
3 244 245 234
3 235 246 243
3 243 233 235
3 247 234 245
3 247 246 236
3 235 236 246
3 236 237 247
3 238 248 239
3 238 240 248
3 239 248 242
3 240 249 248
3 240 241 249
3 248 251 242
3 241 243 249
3 242 251 244
3 246 251 249
3 249 243 246
3 251 250 244
3 250 251 246
3 244 250 245
3 250 247 245
3 250 246 247
3 248 249 251
