ply
format ascii 1.0
element vertex 252
property float x
property float y
property float z
element face 500
property list uchar int vertex_indices
end_header
-0.568677 -0.170976 -0.970365
-0.568597 -0.177449 -0.869995
-0.618293 -0.074994 -0.913216
-0.561745 -0.108170 -1.045264
-0.609307 -0.019565 -1.021720
-0.597934 -0.058667 -0.827878
-0.617492 0.082630 -0.969386
-0.619311 0.030271 -0.877431
-0.596101 0.060245 -0.822502
-0.554302 0.118747 -1.025260
-0.572710 0.173037 -0.901779
-0.583788 0.172367 -0.979136
-0.486082 -0.213733 -0.971428
-0.505640 -0.230262 -0.894424
-0.532783 -0.145093 -0.747981
-0.499384 -0.117374 -0.682689
-0.562968 -0.019217 -1.059367
-0.554590 0.025695 -0.737001
-0.521492 0.038739 -0.675825
-0.560859 0.135460 -0.802703
-0.501802 0.155476 -0.719463
-0.515625 0.221783 -0.956884
-0.480199 -0.207002 -0.753652
-0.416055 -0.228286 -0.726428
-0.527266 -0.165697 -1.027876
-0.447905 -0.114924 -1.028290
-0.476187 -0.028067 -0.638441
-0.438587 0.010345 -1.069192
-0.493211 0.116973 -0.671223
-0.422910 0.103954 -1.034164
-0.500988 0.214845 -0.811577
-0.447437 0.188355 -0.986604
-0.491565 0.240754 -0.892494
-0.412558 0.223032 -0.715890
-0.420532 -0.228621 -0.895870
-0.409507 -0.238058 -0.769689
-0.427177 -0.206239 -0.957919
-0.345776 -0.159568 -0.901434
-0.436022 -0.155823 -0.659801
-0.425039 -0.039941 -0.607774
-0.313231 -0.052590 -0.926224
-0.369903 -0.105730 -0.570567
-0.333477 -0.031919 -0.412206
-0.387924 0.001735 -1.043670
-0.326261 0.101680 -0.919209
-0.434243 0.152778 -0.663070
-0.365966 0.082153 -0.568969
-0.333149 0.085796 -0.444570
-0.409049 0.223496 -0.894951
-0.378755 0.240975 -0.751203
-0.335932 -0.211161 -0.671299
-0.285183 -0.196534 -0.729994
-0.254643 -0.215227 -0.466334
-0.272514 -0.209483 -0.579999
-0.301863 -0.150957 -0.438052
-0.272609 -0.117002 -0.318776
-0.299180 -0.029823 -0.314820
-0.297186 0.054643 -0.326416
-0.277953 0.170587 -0.801649
-0.331037 0.217853 -0.674006
-0.287017 0.201343 -0.584757
-0.301768 0.155471 -0.422680
-0.276311 0.207059 -0.722978
-0.253490 0.223170 -0.514896
-0.261631 -0.209442 -0.653780
-0.206446 -0.219515 -0.365630
-0.188965 -0.207802 -0.276010
-0.182939 -0.120670 -0.681972
-0.182138 -0.152892 -0.195852
-0.216383 -0.026016 -0.196970
-0.205223 0.004551 -0.778490
-0.212581 0.111885 -0.749118
-0.185274 0.140326 -0.206821
-0.269254 0.153682 -0.336134
-0.178906 0.123644 -0.682081
-0.253262 0.212931 -0.655298
-0.266085 0.201480 -0.421546
-0.183414 0.218713 -0.326326
-0.208592 -0.234543 -0.495308
-0.115931 -0.244674 -0.313144
-0.193483 -0.211997 -0.573652
-0.119835 -0.235075 -0.419105
-0.105265 -0.229784 -0.207151
-0.114722 -0.173288 0.039986
-0.092400 -0.209772 0.118550
-0.111138 -0.190577 0.361076
-0.208621 -0.092903 -0.752448
-0.135508 -0.081005 -0.038477
-0.129104 -0.130387 0.041431
-0.168364 -0.113872 0.327514
-0.140501 -0.108541 0.423780
-0.170667 -0.000826 -0.719339
-0.145485 -0.028851 0.055451
-0.183465 -0.045514 0.356465
-0.130690 -0.008391 -0.656211
-0.143446 -0.000993 0.440917
-0.129553 0.079209 0.027207
-0.154619 0.096520 0.132386
-0.178213 0.036682 0.369534
-0.125852 0.073522 -0.050799
-0.147011 0.108926 0.398665
-0.156000 0.129794 0.351530
-0.214556 0.226746 -0.555642
-0.115546 0.161665 0.043961
-0.094691 0.209411 0.113500
-0.105195 0.193078 0.343563
-0.213990 0.235793 -0.481408
-0.108729 0.224337 -0.417076
-0.099659 0.229584 -0.209027
-0.105537 0.243487 -0.311926
-0.040127 -0.271241 0.280283
-0.040618 -0.224472 -0.353069
-0.024901 -0.241778 -0.135148
-0.065986 -0.207885 -0.048660
-0.033632 -0.206336 0.475169
-0.063997 -0.144422 -0.498647
0.028058 -0.173793 0.584707
-0.131828 -0.004607 -0.024583
-0.017784 -0.091135 0.574587
-0.032864 0.073351 -0.516495
-0.059733 0.143531 -0.502068
-0.076011 0.189484 -0.050842
0.028794 0.170077 0.574760
-0.039028 0.228861 -0.329385
-0.027425 0.234821 -0.107299
-0.048522 0.218562 -0.031503
-0.053712 0.263756 0.275294
0.049843 0.265137 0.445594
0.016133 0.293242 0.331411
-0.039642 -0.248619 -0.194063
0.034025 -0.291739 0.081509
0.021141 -0.271994 0.387599
-0.039804 -0.247515 -0.256521
0.022836 -0.246312 -0.172350
0.048924 -0.246065 -0.114432
0.059554 -0.263475 -0.050597
0.086589 -0.201193 -0.205955
0.111357 -0.224913 0.584363
0.024702 -0.115951 -0.394499
-0.012547 -0.032297 -0.487690
0.019956 0.048864 -0.430287
0.108692 0.058226 0.687514
0.063651 0.083537 -0.341149
0.003697 0.156256 -0.383241
-0.038216 0.246503 -0.253630
0.085197 0.183612 -0.210935
0.119370 0.225267 0.588769
-0.036364 0.249741 -0.194757
0.017428 0.244989 -0.173884
0.058870 0.245174 -0.087936
0.039603 0.309843 0.227013
0.047647 0.299695 0.099986
0.033011 -0.306263 0.232403
0.118106 -0.288710 0.318708
0.128468 -0.261255 0.477232
0.145805 -0.202684 -0.104903
0.113709 -0.073218 -0.272861
0.107384 -0.147191 0.661356
0.134969 0.034378 -0.240019
0.107753 0.168613 0.661946
0.127851 0.202591 -0.130426
0.129970 0.259640 0.465983
0.126359 -0.307642 0.108463
0.102619 -0.318688 0.181338
0.225937 -0.275732 0.116285
0.181149 -0.246848 0.528005
0.234456 -0.238233 0.573145
0.150666 -0.091797 -0.200155
0.190608 -0.043267 -0.147440
0.168112 0.048833 -0.184539
0.202556 0.097249 -0.118531
0.192899 0.214647 -0.024444
0.112051 0.297476 0.073956
0.186756 0.283045 0.105797
0.087655 0.302422 0.322593
0.179448 0.251373 0.330828
0.179739 0.247487 0.523048
0.220435 0.241230 0.579225
0.134193 0.303322 0.195144
0.213566 -0.280387 0.198510
0.203986 -0.236969 0.322645
0.196264 -0.224492 0.428122
0.213234 -0.189181 0.661598
0.276232 -0.158088 0.371441
0.381371 -0.067669 0.059733
0.176492 -0.042972 0.719684
0.208850 0.056142 0.723269
0.340743 0.144112 0.053523
0.206683 0.215627 0.443170
0.204136 0.175918 0.670757
0.278938 0.154450 0.372448
0.323366 0.239728 0.203895
0.278424 0.221488 0.272756
0.331137 -0.242334 0.216542
0.286598 -0.221994 0.266933
0.249781 -0.220893 0.508039
0.428461 -0.220815 0.224390
0.421726 -0.138957 0.127332
0.289992 -0.146377 0.428704
0.289574 0.145212 0.427136
0.266454 0.226823 0.520874
0.361875 -0.219504 0.269325
0.419080 -0.251170 0.588599
0.354952 -0.213721 0.501270
0.436023 -0.217246 0.337958
0.435494 -0.214103 0.411665
0.343623 -0.172973 0.347347
0.322119 -0.139633 0.409808
0.498169 -0.214120 0.651285
0.551230 -0.088073 0.658647
0.321874 0.138794 0.408156
0.433788 0.219216 0.432426
0.551606 0.122020 0.667277
0.344103 0.171829 0.348966
0.346142 0.201193 0.495577
0.436243 0.216589 0.235071
0.363635 0.218713 0.268642
0.434142 0.217877 0.336507
0.491313 0.212524 0.650472
0.389195 0.242370 0.565081
0.432865 -0.226384 0.269554
0.487418 -0.249023 0.493008
0.440113 0.050814 0.124680
0.432478 0.224171 0.268329
0.522799 0.249140 0.467012
0.532470 -0.242441 0.592009
0.518678 -0.224465 0.370742
0.552428 -0.191328 0.329871
0.580264 -0.066835 0.297943
0.567815 0.021951 0.268067
0.553902 0.171933 0.338771
0.491500 0.226020 0.357689
0.612247 0.182560 0.430976
0.565542 0.248373 0.492564
0.542251 0.240137 0.578481
0.642833 -0.193003 0.489293
0.606890 -0.170288 0.393211
0.584829 -0.186839 0.640150
0.696721 -0.155066 0.564851
0.674261 0.018935 0.416518
0.748757 -0.076960 0.511613
0.617256 0.074893 0.353966
0.734878 0.056598 0.521085
0.567540 0.186357 0.655372
0.663032 -0.193815 0.559735
0.718406 -0.150901 0.525519
0.684291 -0.107328 0.448608
0.688104 0.130449 0.460031
0.653669 0.164325 0.586510
0.673772 0.168248 0.503181
0.742665 -0.061291 0.481511
0.735383 0.073379 0.478361
3 1 0 2
3 1 2 5
3 0 3 4
3 0 4 2
3 4 3 16
3 4 6 2
3 2 6 7
3 2 7 5
3 5 7 8
3 9 4 16
3 4 9 6
3 7 6 10
3 19 8 10
3 8 7 10
3 11 6 9
3 6 11 10
3 12 24 0
3 13 12 0
3 1 13 0
3 13 1 22
3 24 3 0
3 22 1 14
3 22 14 15
3 3 24 25
3 1 5 14
3 25 16 3
3 17 14 5
3 14 17 15
3 15 17 18
3 15 18 26
3 8 17 5
3 27 9 16
3 26 18 28
3 27 29 9
3 8 19 17
3 17 19 20
3 28 18 20
3 18 17 20
3 11 9 21
3 10 11 21
3 10 30 19
3 19 30 20
3 21 32 10
3 10 32 30
3 12 34 36
3 12 13 34
3 22 35 13
3 35 34 13
3 22 23 35
3 36 25 12
3 25 24 12
3 23 22 38
3 22 15 38
3 15 26 38
3 26 39 38
3 27 16 25
3 39 26 45
3 45 26 28
3 29 31 9
3 20 45 28
3 21 9 31
3 20 30 33
3 20 33 45
3 48 21 31
3 48 32 21
3 30 32 49
3 32 48 49
3 49 33 30
3 23 50 35
3 34 37 36
3 38 50 23
3 37 25 36
3 50 38 41
3 41 38 39
3 37 40 25
3 43 27 25
3 25 40 43
3 40 44 43
3 29 27 43
3 43 44 29
3 46 41 39
3 45 46 39
3 41 46 42
3 42 46 47
3 46 45 59
3 29 44 31
3 44 48 31
3 59 45 33
3 59 33 49
3 51 34 35
3 35 50 51
3 51 37 34
3 51 50 64
3 53 64 50
3 53 54 52
3 41 53 50
3 53 41 54
3 54 41 42
3 54 42 55
3 56 55 42
3 40 70 44
3 70 71 44
3 57 56 42
3 47 57 42
3 44 71 58
3 59 60 46
3 46 60 47
3 47 60 61
3 57 61 73
3 57 47 61
3 48 44 58
3 58 62 48
3 59 62 75
3 59 75 60
3 63 61 60
3 76 61 63
3 61 76 73
3 49 48 62
3 62 59 49
3 53 78 80
3 52 78 53
3 52 65 78
3 64 53 80
3 52 54 65
3 64 67 51
3 64 80 67
3 55 65 54
3 65 55 66
3 66 55 68
3 37 86 40
3 37 51 86
3 86 51 67
3 68 55 69
3 55 56 69
3 40 86 70
3 56 57 69
3 69 57 72
3 57 73 72
3 62 58 71
3 71 74 62
3 74 75 62
3 72 73 77
3 102 60 75
3 73 76 77
3 102 63 60
3 106 63 102
3 63 106 76
3 106 77 76
3 78 81 80
3 79 81 65
3 65 81 78
3 79 65 66
3 66 82 79
3 66 68 82
3 115 67 80
3 68 87 113
3 68 113 82
3 83 88 84
3 84 88 89
3 84 89 85
3 85 89 90
3 69 87 68
3 86 67 91
3 115 94 67
3 87 69 117
3 92 88 87
3 88 92 89
3 89 92 93
3 89 93 90
3 70 86 91
3 67 94 91
3 90 93 95
3 117 69 99
3 117 92 87
3 96 92 117
3 92 96 97
3 92 97 93
3 93 97 98
3 93 98 95
3 71 70 91
3 94 74 91
3 94 119 74
3 72 99 69
3 95 98 100
3 91 74 71
3 119 120 74
3 98 97 101
3 98 101 100
3 102 75 120
3 75 74 120
3 72 121 99
3 96 103 97
3 97 103 104
3 97 104 105
3 97 105 101
3 100 101 105
3 72 77 108
3 72 108 121
3 107 106 102
3 107 109 77
3 107 77 106
3 109 108 77
3 132 82 129
3 79 111 81
3 79 132 111
3 82 132 79
3 82 112 129
3 113 84 130
3 84 85 110
3 81 115 80
3 115 81 111
3 112 82 113
3 84 113 83
3 85 90 114
3 83 113 88
3 114 90 116
3 113 87 88
3 115 139 94
3 118 116 90
3 95 118 90
3 94 139 119
3 117 99 96
3 99 121 96
3 122 95 100
3 96 121 103
3 100 105 122
3 120 107 102
3 120 143 107
3 107 143 123
3 108 124 121
3 125 121 124
3 125 103 121
3 104 103 125
3 105 104 126
3 105 127 122
3 107 123 109
3 123 144 109
3 144 108 109
3 108 147 124
3 105 126 128
3 127 105 128
3 144 147 108
3 104 150 126
3 130 84 152
3 84 110 152
3 110 131 152
3 129 133 132
3 85 131 110
3 132 136 111
3 132 133 136
3 134 133 112
3 129 112 133
3 112 113 134
3 134 113 135
3 113 130 135
3 131 85 114
3 131 114 137
3 137 114 116
3 111 138 115
3 111 136 138
3 115 138 139
3 138 140 139
3 95 141 118
3 139 140 119
3 122 141 95
3 119 140 120
3 140 143 120
3 140 142 143
3 143 145 123
3 127 146 122
3 145 144 123
3 145 148 144
3 147 148 124
3 149 124 148
3 124 149 125
3 148 147 144
3 149 151 125
3 151 104 125
3 150 104 151
3 128 126 150
3 162 130 163
3 130 152 163
3 163 152 153
3 153 152 131
3 135 130 162
3 153 131 154
3 134 136 133
3 134 155 136
3 135 155 134
3 154 131 137
3 137 116 157
3 138 136 156
3 118 157 116
3 138 156 140
3 141 157 118
3 156 158 142
3 140 156 142
3 145 142 158
3 143 142 145
3 159 141 122
3 122 146 159
3 148 145 149
3 145 160 149
3 160 171 149
3 171 172 149
3 146 127 161
3 172 151 149
3 128 174 127
3 127 174 161
3 172 178 151
3 151 178 150
3 178 174 150
3 128 150 174
3 164 162 179
3 162 163 179
3 179 163 153
3 162 164 135
3 135 164 155
3 179 153 180
3 153 154 181
3 180 153 181
3 181 154 165
3 166 165 137
3 154 137 165
3 137 182 166
3 157 182 137
3 167 156 136
3 136 155 167
3 155 168 167
3 182 157 185
3 185 157 141
3 156 167 158
3 167 169 158
3 167 168 169
3 168 170 169
3 185 141 186
3 145 158 169
3 169 170 145
3 186 141 189
3 189 141 159
3 170 160 145
3 170 171 160
3 189 159 146
3 171 173 172
3 175 188 161
3 161 188 176
3 161 176 146
3 177 146 176
3 177 189 146
3 178 175 174
3 161 174 175
3 173 178 172
3 194 179 180
3 181 165 195
3 195 165 166
3 183 194 180
3 180 181 183
3 195 198 181
3 168 155 184
3 155 197 184
3 183 181 198
3 170 168 184
3 190 199 188
3 171 170 187
3 175 192 190
3 190 188 175
3 199 200 188
3 191 173 171
3 200 176 188
3 176 200 177
3 173 191 178
3 192 175 178
3 192 178 191
3 179 193 164
3 164 193 196
3 193 179 194
3 193 194 201
3 203 195 166
3 202 203 166
3 202 166 182
3 155 164 196
3 201 194 206
3 203 198 195
3 206 194 183
3 198 207 183
3 183 207 206
3 207 198 203
3 208 182 209
3 209 182 185
3 199 190 210
3 210 190 213
3 199 210 214
3 212 186 189
3 187 215 171
3 192 216 213
3 190 192 213
3 171 215 191
3 214 200 199
3 192 191 216
3 200 214 219
3 177 200 219
3 218 189 219
3 219 189 177
3 196 193 220
3 193 201 220
3 204 220 201
3 155 196 197
3 206 204 201
3 204 206 205
3 205 206 207
3 205 207 203
3 184 222 170
3 209 185 186
3 187 170 222
3 213 211 210
3 210 211 214
3 212 189 218
3 217 213 216
3 213 217 211
3 223 191 215
3 223 216 191
3 216 223 217
3 211 219 214
3 202 221 203
3 202 225 221
3 220 204 226
3 221 226 205
3 205 226 204
3 203 221 205
3 225 202 208
3 208 202 182
3 220 226 196
3 184 229 222
3 215 231 223
3 231 217 223
3 231 224 211
3 231 211 217
3 219 211 224
3 234 218 219
3 224 234 219
3 235 226 221
3 235 221 225
3 196 226 227
3 227 226 236
3 226 235 236
3 237 225 208
3 197 196 227
3 228 197 227
3 237 208 209
3 197 228 184
3 228 229 184
3 209 186 212
3 222 230 187
3 222 229 230
3 215 187 230
3 243 212 218
3 215 230 231
3 218 234 243
3 231 230 224
3 230 232 224
3 232 233 224
3 234 224 233
3 235 225 244
3 244 225 237
3 235 246 236
3 238 244 237
3 237 209 238
3 227 236 228
3 236 239 228
3 236 246 239
3 238 209 240
3 228 241 229
3 228 239 241
3 240 209 242
3 209 212 242
3 230 229 241
3 239 232 241
3 239 247 232
3 241 232 230
3 247 249 232
3 243 248 212
3 232 249 233
3 249 248 234
3 233 249 234
3 248 243 234
3 244 245 235
3 245 250 235
3 250 246 235
3 238 245 244
3 250 239 246
3 250 251 239
3 251 247 239
3 242 212 248
3 249 247 251
3 249 242 248
3 245 240 250
3 245 238 240
3 242 250 240
3 251 250 242
3 242 249 251
