ply
format ascii 1.0
element vertex 250
property float x
property float y
property float z
element face 500
property list uchar int vertex_indices
end_header
-0.476544 -0.122436 -0.022415
-0.490915 -0.160129 0.145315
-0.525703 -0.023181 -0.003958
-0.510831 0.006161 0.200632
-0.487473 0.119004 0.015089
-0.485187 0.159946 0.183503
-0.425396 -0.233858 0.048566
-0.427177 -0.239173 0.170374
-0.451780 -0.162818 0.297419
-0.423537 -0.064748 -0.568534
-0.405960 -0.122901 -0.521156
-0.405053 -0.125074 0.477471
-0.419434 -0.001722 -0.504842
-0.467798 0.027218 0.388937
-0.402219 -0.024969 0.526756
-0.479994 0.036490 -0.065634
-0.409180 0.089350 -0.579672
-0.390406 0.094657 0.507406
-0.366379 0.175283 -0.507665
-0.462405 0.157889 0.283579
-0.426630 0.150233 0.402979
-0.436993 0.223121 0.146166
-0.399188 0.245396 0.026548
-0.361086 -0.258073 0.207808
-0.384678 -0.210354 -0.035943
-0.354000 -0.227612 0.403049
-0.365875 -0.180883 -0.574345
-0.346276 -0.204643 -0.502940
-0.409687 -0.051267 -0.103920
-0.378134 -0.081495 -0.664718
-0.370075 -0.128780 -0.435377
-0.356811 -0.123960 -0.142644
-0.350353 -0.036066 -0.745285
-0.374183 0.003595 -0.378316
-0.365843 0.029074 -0.197156
-0.376014 0.081281 -0.674122
-0.341911 0.090879 -0.736676
-0.341726 0.166046 -0.400476
-0.358783 0.153565 -0.147457
-0.363491 0.190666 -0.576845
-0.352165 0.238191 0.339670
-0.308418 0.215589 0.497084
-0.374551 0.219787 -0.049676
-0.344719 0.270040 0.034968
-0.355578 -0.267252 0.040377
-0.303050 -0.245288 -0.079867
-0.274337 -0.239406 -0.658077
-0.268009 -0.238139 -0.374084
-0.329217 -0.159173 -0.282264
-0.289147 -0.214587 0.554453
-0.269127 -0.203849 -0.743220
-0.269112 -0.108813 -0.821169
-0.276000 0.053966 -0.828786
-0.254710 0.214471 -0.759212
-0.296564 0.215726 -0.677382
-0.267865 0.245858 -0.411396
-0.291351 0.259562 -0.088699
-0.263299 -0.271122 0.029689
-0.145456 -0.245196 -0.718047
-0.284486 -0.249512 -0.536981
-0.135541 -0.276628 -0.233387
-0.164182 -0.286492 -0.118699
-0.260955 -0.245463 0.115928
-0.270171 -0.237068 0.347470
-0.237508 -0.241520 0.543283
-0.200281 -0.161687 0.132119
-0.184054 -0.189838 0.405034
-0.168076 -0.214723 0.684524
-0.049040 -0.123124 0.805176
-0.205841 0.172392 0.269755
-0.192783 0.215329 -0.798329
-0.206556 0.193937 0.093199
-0.293680 0.245616 -0.544693
-0.255245 0.262168 0.047931
-0.250279 0.237943 0.388251
-0.286807 0.248903 0.458216
-0.199370 0.245276 -0.704760
-0.169645 0.256495 -0.309334
-0.204378 -0.247992 -0.609370
-0.195510 -0.242174 -0.419842
-0.155214 -0.194696 0.053910
-0.145730 -0.222855 0.525179
-0.167327 -0.206320 -0.803276
-0.087668 -0.184282 -0.650026
-0.165125 -0.059527 -0.870427
-0.130106 -0.143519 0.454521
-0.105985 -0.177999 0.510226
-0.176436 -0.072963 0.253748
-0.136665 0.004741 0.098594
-0.144259 -0.065341 0.364290
-0.148932 0.043588 0.329128
-0.178467 0.090511 -0.868304
-0.174327 0.089590 0.146568
-0.134304 0.194223 -0.590256
-0.213103 0.251199 -0.448735
-0.147193 0.146208 0.410000
-0.114115 0.172173 0.496089
-0.016920 0.172981 0.766150
-0.088820 0.189731 -0.672564
-0.115494 0.176061 -0.399138
-0.154875 0.192594 0.044422
-0.148102 0.226981 0.552327
-0.065137 0.243165 -0.744395
-0.163371 0.287318 -0.103645
-0.040397 -0.288225 -0.116678
-0.091370 -0.272087 -0.037563
0.006366 -0.223305 -0.222673
-0.065916 -0.194754 0.751082
-0.120882 -0.144182 -0.559881
-0.084366 -0.145806 -0.379529
-0.070306 -0.018665 -0.415072
-0.069229 -0.000288 0.500777
-0.091268 0.054967 -0.574667
-0.106304 0.037334 0.431496
-0.018363 0.023867 0.846974
0.020808 0.237848 -0.198065
-0.032501 0.286252 -0.119158
-0.088874 0.272530 -0.048329
0.109340 -0.178449 -0.859958
0.046168 -0.199074 -0.656825
-0.025860 -0.200772 0.049729
-0.032290 -0.168787 0.592121
0.058231 -0.161719 0.124339
0.041458 -0.076092 -0.276652
0.037019 -0.057287 0.142780
0.209256 -0.095856 -0.872235
-0.055981 -0.031360 0.092545
-0.036063 0.000441 -0.634570
0.121755 -0.048750 0.738804
0.179012 0.069013 -0.871423
0.044881 0.081121 -0.269733
0.049866 0.105362 0.132869
-0.035794 0.168303 0.589418
-0.048710 0.181556 0.043382
0.094721 0.227451 -0.810516
0.044724 0.196387 0.083195
0.163889 -0.237583 -0.729711
0.070834 -0.284968 -0.039967
0.164920 -0.200532 -0.822316
0.085083 -0.138895 0.786544
0.113760 -0.145932 0.759041
0.025397 -0.079474 -0.624245
0.199774 -0.153337 -0.495970
0.093216 -0.039352 0.875506
0.046042 0.035075 -0.614989
0.092664 0.069165 0.868705
0.039503 0.180120 -0.668404
0.184190 0.144311 -0.515341
0.054085 0.194924 0.745665
0.106813 0.152026 0.803706
0.032288 0.278435 -0.034451
0.151191 0.247065 -0.746408
0.082884 0.285117 -0.099108
0.121361 0.293498 -0.035341
0.107450 -0.283058 -0.101085
0.191861 -0.270304 -0.043901
0.189746 -0.229590 -0.175198
0.182867 -0.237971 -0.668363
0.209036 -0.209362 -0.589715
0.176941 -0.236882 0.092002
0.132278 -0.117509 -0.254595
0.133323 -0.139681 0.177200
0.222684 -0.154321 -0.302606
0.148429 0.003243 0.829203
0.160796 -0.002577 -0.471752
0.171163 -0.020012 -0.318817
0.136666 0.030260 -0.272261
0.151612 -0.028840 0.231199
0.147796 0.109631 0.197603
0.123529 0.124375 0.763242
0.206505 0.106548 -0.374674
0.222053 0.174589 -0.263869
0.172204 0.217080 -0.173473
0.189725 0.228774 0.107959
0.240283 0.184124 -0.794543
0.203302 0.221216 -0.622360
0.193186 0.271180 -0.044907
0.282258 -0.229832 0.076742
0.278497 -0.187290 -0.750164
0.345138 -0.232184 0.205609
0.251552 -0.188153 -0.532109
0.256849 -0.177374 -0.354558
0.281566 -0.110345 -0.830750
0.492268 0.073314 0.512799
0.293111 0.020664 -0.836984
0.260999 0.178581 -0.443726
0.282858 0.226768 0.195654
0.243830 0.227266 -0.177663
0.288482 0.217949 0.049446
0.256272 -0.221080 -0.662298
0.257378 -0.212965 -0.198248
0.305132 -0.186049 -0.629313
0.340858 -0.154566 0.040245
0.334512 -0.073536 -0.707207
0.460838 0.002071 0.495746
0.328378 0.097465 -0.718577
0.305398 0.175570 -0.417705
0.377272 0.039941 -0.007979
0.261047 0.213555 -0.663598
0.303373 0.226534 0.139113
0.369771 -0.185331 0.110421
0.487724 -0.250676 0.337470
0.494278 -0.141337 0.459585
0.401096 0.130000 0.096104
0.499565 0.177357 0.474046
0.466154 0.167067 0.160854
0.504854 0.245080 0.366639
0.463425 -0.242791 0.251076
0.554341 -0.226080 0.442117
0.414600 -0.031796 0.076972
0.485398 0.237179 0.275894
0.559089 0.246060 0.363829
0.556721 -0.254316 0.384971
0.475494 -0.186450 0.172152
0.779840 -0.201437 0.475407
0.494656 -0.101955 0.144605
0.517381 0.072140 0.154554
0.593548 0.201806 0.297448
0.670077 -0.216852 0.522031
0.591458 -0.164578 0.524448
0.681278 -0.167769 0.578598
0.848655 -0.025662 0.396165
0.572826 -0.027029 0.555989
0.646059 -0.008059 0.589897
0.565153 0.139322 0.538391
0.836267 0.108341 0.413445
0.681254 0.188814 0.552170
0.573693 0.222557 0.468181
0.761118 -0.189883 0.589722
0.751096 0.210646 0.497695
0.718466 -0.064627 0.626121
0.812401 -0.013687 0.665074
0.800152 0.176115 0.585771
0.865910 -0.219403 0.575932
0.896215 -0.157081 0.631359
0.889539 0.145951 0.652477
0.956336 -0.191361 0.526059
0.968437 -0.193055 0.564828
0.971048 -0.088910 0.467880
0.942924 0.039391 0.442407
0.907192 0.027104 0.690571
0.949318 0.169809 0.509828
0.958944 0.098118 0.660831
0.965338 0.180969 0.576856
1.020648 -0.133960 0.522207
1.023300 -0.106048 0.572400
0.977394 -0.019179 0.657707
1.032979 0.140960 0.527855
1.035514 0.032932 0.503567
1.039505 0.073285 0.570391
3 0 2 1
3 1 2 3
3 15 2 0
3 4 2 15
3 2 4 3
3 3 4 5
3 24 0 6
3 7 1 8
3 24 28 0
3 1 6 0
3 7 6 1
3 3 8 1
3 10 9 12
3 8 3 13
3 8 13 11
3 11 13 14
3 28 15 0
3 9 16 12
3 14 13 17
3 12 16 18
3 5 19 3
3 3 19 13
3 13 19 20
3 13 20 17
3 21 5 4
3 4 22 21
3 5 21 19
3 44 7 23
3 6 7 44
3 44 24 6
3 8 23 7
3 23 8 25
3 25 8 11
3 49 25 11
3 27 26 10
3 27 10 30
3 31 28 24
3 26 29 9
3 10 26 9
3 12 30 10
3 31 33 34
3 31 34 28
3 29 32 35
3 29 35 16
3 9 29 16
3 33 30 12
3 32 36 35
3 33 37 34
3 18 33 12
3 38 28 34
3 28 38 15
3 35 39 16
3 18 37 33
3 16 39 18
3 38 42 15
3 42 4 15
3 20 19 40
3 17 20 41
3 4 42 22
3 41 20 40
3 42 43 22
3 21 43 40
3 21 40 19
3 22 43 21
3 44 57 45
3 57 44 23
3 46 26 59
3 26 27 59
3 27 47 59
3 48 45 47
3 45 24 44
3 57 23 62
3 62 23 63
3 23 25 63
3 49 64 25
3 64 63 25
3 27 30 47
3 47 30 48
3 46 50 29
3 46 29 26
3 45 48 31
3 24 45 31
3 49 11 68
3 51 32 50
3 32 29 50
3 30 33 48
3 48 33 31
3 14 68 11
3 51 52 32
3 32 52 36
3 53 36 52
3 35 36 54
3 54 36 53
3 35 54 39
3 37 38 34
3 37 55 38
3 37 18 55
3 38 56 42
3 54 72 39
3 39 72 18
3 72 55 18
3 55 56 38
3 42 56 43
3 40 43 73
3 40 73 74
3 74 75 40
3 40 75 41
3 56 73 43
3 45 57 61
3 82 50 58
3 58 50 46
3 78 58 46
3 78 46 59
3 78 59 79
3 59 47 79
3 60 79 47
3 61 60 47
3 45 61 47
3 80 57 62
3 66 63 81
3 63 64 81
3 84 51 82
3 82 51 50
3 65 80 62
3 62 63 65
3 64 49 67
3 68 67 49
3 65 63 87
3 63 66 87
3 84 52 51
3 84 91 52
3 71 92 69
3 92 90 69
3 70 52 91
3 52 70 53
3 69 73 71
3 69 74 73
3 41 97 17
3 70 76 53
3 76 54 53
3 54 76 72
3 76 94 72
3 72 94 55
3 94 77 55
3 56 55 77
3 100 71 73
3 74 101 75
3 41 75 101
3 41 101 97
3 77 103 56
3 103 73 56
3 105 61 57
3 80 105 57
3 78 83 58
3 64 67 107
3 108 83 78
3 66 81 85
3 81 86 85
3 78 79 108
3 108 79 109
3 88 80 65
3 87 88 65
3 66 89 87
3 66 85 89
3 89 90 87
3 68 14 114
3 87 92 88
3 87 90 92
3 14 17 114
3 100 88 92
3 71 100 92
3 90 95 69
3 114 17 97
3 93 99 94
3 74 69 95
3 95 96 74
3 96 101 74
3 70 102 76
3 102 98 76
3 76 98 93
3 94 76 93
3 77 94 99
3 103 117 73
3 117 100 73
3 61 104 60
3 60 104 106
3 104 61 105
3 119 58 83
3 60 106 79
3 120 105 80
3 107 81 64
3 118 84 82
3 79 106 109
3 121 86 81
3 68 107 67
3 118 125 84
3 120 80 126
3 126 80 88
3 127 83 108
3 109 110 108
3 86 111 85
3 86 121 111
3 112 127 108
3 108 110 112
3 113 89 85
3 85 111 113
3 129 91 84
3 90 89 113
3 98 127 112
3 110 99 112
3 95 90 113
3 111 96 113
3 111 132 96
3 93 98 112
3 112 99 93
3 126 88 133
3 133 88 100
3 113 96 95
3 134 70 91
3 101 96 132
3 70 134 102
3 115 77 99
3 115 116 77
3 133 100 117
3 103 116 117
3 116 103 77
3 104 105 137
3 82 138 118
3 138 82 58
3 136 138 58
3 136 58 119
3 120 137 105
3 121 81 139
3 81 107 139
3 68 139 107
3 83 141 119
3 109 106 123
3 124 122 120
3 126 124 120
3 141 83 127
3 111 121 128
3 109 123 110
3 143 68 114
3 141 127 144
3 123 130 110
3 124 126 131
3 143 114 145
3 128 132 111
3 144 127 146
3 146 127 98
3 99 110 130
3 133 131 126
3 145 114 97
3 115 99 130
3 135 131 133
3 146 98 102
3 133 150 135
3 97 148 149
3 145 97 149
3 102 134 151
3 146 102 151
3 116 115 152
3 150 133 117
3 148 101 132
3 148 97 101
3 152 150 116
3 116 150 117
3 104 154 106
3 137 154 104
3 154 156 106
3 120 159 137
3 119 157 136
3 157 119 158
3 159 120 122
3 121 139 140
3 119 141 142
3 119 142 158
3 156 160 106
3 160 123 106
3 159 122 161
3 161 122 124
3 143 139 68
3 140 128 121
3 160 166 123
3 161 124 167
3 125 129 84
3 166 130 123
3 167 124 168
3 168 124 131
3 128 169 132
3 147 144 146
3 129 134 91
3 166 172 130
3 172 115 130
3 168 131 173
3 173 131 135
3 132 169 148
3 135 150 173
3 115 172 152
3 153 173 150
3 152 153 150
3 137 155 154
3 154 155 156
3 155 137 159
3 138 125 118
3 162 160 156
3 140 139 128
3 139 163 128
3 139 143 163
3 142 164 162
3 162 164 165
3 162 165 160
3 160 165 166
3 164 142 141
3 144 164 141
3 143 145 163
3 128 163 169
3 164 170 165
3 165 170 166
3 166 170 171
3 163 149 169
3 163 145 149
3 147 164 144
3 147 170 164
3 166 171 172
3 169 149 148
3 174 134 129
3 147 146 175
3 174 151 134
3 151 175 146
3 176 152 172
3 153 176 173
3 176 153 152
3 177 155 159
3 136 178 138
3 178 136 189
3 136 157 189
3 189 157 158
3 156 155 190
3 190 155 177
3 179 177 159
3 138 178 182
3 189 158 180
3 181 162 190
3 190 162 156
3 161 179 159
3 182 125 138
3 142 180 158
3 180 142 181
3 162 181 142
3 182 184 125
3 184 129 125
3 194 167 183
3 168 183 167
3 174 129 184
3 170 147 185
3 171 170 185
3 175 198 185
3 175 185 147
3 185 187 171
3 171 187 172
3 173 186 168
3 198 151 174
3 198 175 151
3 187 188 176
3 173 188 199
3 173 199 186
3 187 176 172
3 173 176 188
3 177 179 200
3 189 191 178
3 180 191 189
3 181 191 180
3 190 177 192
3 200 192 177
3 179 161 202
3 181 190 191
3 178 193 182
3 178 191 193
3 191 190 193
3 190 192 193
3 182 193 184
3 193 195 184
3 195 196 198
3 174 184 195
3 196 187 185
3 196 188 187
3 196 197 188
3 197 203 188
3 174 195 198
3 185 198 196
3 203 205 199
3 203 199 188
3 168 186 204
3 179 207 200
3 202 201 179
3 200 209 192
3 167 202 161
3 193 192 197
3 192 209 197
3 193 197 195
3 209 203 197
3 197 196 195
3 168 204 183
3 186 206 204
3 199 210 186
3 186 210 206
3 201 207 179
3 213 200 207
3 202 208 201
3 215 209 200
3 200 213 215
3 194 202 167
3 202 194 183
3 215 216 209
3 216 203 209
3 216 205 203
3 210 199 205
3 210 211 206
3 201 212 207
3 207 214 213
3 207 212 214
3 212 201 208
3 213 214 215
3 219 208 202
3 219 202 222
3 222 202 183
3 222 183 224
3 216 217 205
3 224 183 204
3 204 227 224
3 205 217 210
3 227 204 206
3 217 211 210
3 206 211 227
3 218 212 208
3 219 218 208
3 218 219 220
3 223 220 219
3 222 223 219
3 215 221 216
3 221 225 216
3 224 223 222
3 226 223 224
3 216 225 217
3 224 227 226
3 214 212 218
3 228 218 220
3 220 230 228
3 230 220 223
3 230 223 232
3 232 223 226
3 217 229 211
3 232 226 229
3 229 226 227
3 229 227 211
3 214 218 228
3 214 228 233
3 221 215 214
3 231 228 230
3 232 231 230
3 235 231 232
3 229 217 225
3 233 236 214
3 233 228 234
3 236 238 214
3 238 221 214
3 234 228 231
3 238 239 221
3 234 231 240
3 221 239 225
3 240 231 235
3 239 241 225
3 241 229 225
3 243 232 241
3 241 232 229
3 232 243 235
3 233 237 236
3 237 233 234
3 246 234 240
3 246 240 242
3 235 243 242
3 242 240 235
3 238 236 244
3 236 237 244
3 237 245 244
3 237 234 245
3 245 234 246
3 244 248 238
3 248 239 238
3 249 245 246
3 242 249 246
3 247 241 248
3 241 239 248
3 247 249 243
3 249 242 243
3 247 243 241
3 244 245 248
3 245 249 248
3 248 249 247
