ply
format ascii 1.0
element vertex 250
property float x
property float y
property float z
element face 500
property list uchar int vertex_indices
end_header
-0.584303 -0.177479 -0.406394
-0.582033 -0.187103 0.531448
-0.569484 -0.181388 0.570237
-0.571247 -0.167594 -0.501914
-0.632394 0.030567 0.588794
-0.603679 -0.015681 -0.496947
-0.648244 -0.022603 0.494378
-0.616402 0.114056 -0.400553
-0.605611 0.181324 0.518836
-0.566764 0.172245 0.578670
-0.592257 0.124478 -0.502604
-0.566952 0.187217 -0.420421
-0.491728 -0.135695 -0.662055
-0.547063 -0.100718 -0.588080
-0.562077 -0.029034 0.623682
-0.518651 0.022454 -0.660096
-0.554889 0.064516 -0.593503
-0.607693 0.058710 0.622366
-0.494086 0.154189 -0.643999
-0.517731 0.190886 -0.554975
-0.459646 0.287097 0.385476
-0.497505 -0.262700 -0.150817
-0.433668 -0.314349 0.046971
-0.437680 -0.306910 0.383461
-0.475806 -0.253765 0.526069
-0.492569 -0.225976 -0.453568
-0.447349 -0.215553 -0.622341
-0.442596 -0.159647 -0.731012
-0.400086 -0.086059 -0.835716
-0.462167 -0.043416 -0.760089
-0.406970 0.053301 -0.839063
-0.443771 0.126687 -0.748965
-0.434067 0.227110 -0.632308
-0.455792 0.241771 -0.479121
-0.472296 0.271216 -0.135551
-0.408090 0.200833 -0.179844
-0.345340 0.280265 0.511784
-0.449710 0.308008 0.027395
-0.389200 0.302120 0.443919
-0.306665 -0.305556 0.099122
-0.362099 -0.328370 0.318483
-0.427850 -0.293599 -0.044143
-0.321225 -0.256334 -0.719622
-0.411183 -0.206900 -0.445496
-0.432677 -0.208554 -0.256327
-0.359762 -0.205672 -0.783635
-0.328283 -0.245446 -0.576927
-0.350746 -0.180793 0.607280
-0.393019 -0.107962 -0.297442
-0.348837 -0.114135 -0.194283
-0.357593 -0.084383 -0.405910
-0.344464 0.055530 0.651110
-0.387139 0.043427 -0.315687
-0.325749 0.061886 -0.453768
-0.427146 0.172866 -0.311915
-0.418070 0.210876 -0.412453
-0.346239 0.173695 -0.814632
-0.348220 0.253153 -0.562206
-0.356554 0.256498 -0.628580
-0.419963 0.288455 -0.036335
-0.378723 0.315905 0.128519
-0.307572 0.304262 0.311958
-0.341685 -0.313820 0.421967
-0.265737 -0.273726 0.527990
-0.358728 -0.253094 -0.590729
-0.246172 -0.234023 -0.039230
-0.199889 -0.098695 -0.090887
-0.303767 -0.130426 -0.893637
-0.048690 -0.164847 -0.716039
-0.293937 0.007234 -0.141162
-0.181243 0.022607 0.679152
-0.302610 0.028529 -0.933006
-0.191711 0.122025 -0.940355
-0.210490 0.110867 -0.089730
-0.261759 0.245269 -0.032091
-0.291465 0.214701 0.609093
-0.254191 -0.293995 0.294158
-0.267253 -0.234840 -0.820844
-0.163609 -0.201767 -0.894266
-0.176918 -0.178715 0.638138
-0.261922 -0.101737 0.655791
-0.189895 -0.040745 -0.969119
-0.009325 0.004651 -0.700050
-0.058774 0.179129 -0.718195
-0.163473 0.183093 0.642666
-0.115656 0.223379 -0.883092
-0.205911 0.235163 -0.823250
-0.188906 0.247852 -0.738445
-0.238255 0.294838 0.091765
-0.242492 0.281921 0.408984
-0.128244 -0.268020 0.150243
-0.179393 -0.252868 -0.776407
-0.165834 -0.280193 0.053847
-0.129711 -0.188929 0.343296
-0.208874 -0.278222 0.426951
-0.127436 -0.208130 0.252109
-0.100223 -0.229303 0.416970
-0.107732 -0.263050 0.573393
-0.071513 -0.225020 -0.759350
-0.169535 0.005036 -0.089047
-0.193302 0.261278 0.294596
-0.144484 0.263256 0.574944
-0.158651 0.285640 0.050340
-0.076518 0.259048 0.148695
-0.123455 0.208713 0.378388
-0.082015 -0.271492 0.494847
-0.090397 -0.157137 -0.954870
0.220162 -0.222087 0.669003
-0.033136 -0.075575 0.282547
-0.044419 0.017721 0.328187
-0.002154 0.081060 0.273047
0.335530 0.097040 -0.971824
-0.112928 0.185313 0.274344
-0.092363 0.269157 0.496043
-0.062624 -0.193801 0.215747
0.336555 -0.204792 -0.902602
-0.030686 -0.148103 0.376939
0.333597 -0.064957 -0.986916
0.179109 -0.030147 0.745656
0.461092 0.106777 -0.084181
-0.020624 0.137859 0.385109
0.249392 0.234762 -0.895670
-0.043744 0.236176 -0.815768
-0.055393 0.198734 0.208311
-0.031238 0.222070 0.437682
0.220446 0.163683 0.702102
0.291089 -0.268632 0.574489
0.151828 -0.226684 -0.790921
0.208300 -0.212634 0.447641
0.110018 -0.110450 -0.731217
0.197400 -0.133470 0.725650
0.257831 -0.085274 0.392576
0.098306 0.009665 -0.716119
0.563663 -0.028008 0.215060
0.263317 0.022366 0.389043
0.165599 0.230097 -0.802610
0.489858 0.214908 -0.043412
0.254286 0.189635 0.443986
0.273709 0.268016 0.584000
0.549294 -0.242036 0.031013
0.486575 -0.250384 0.122443
0.239784 -0.253946 0.492740
0.484136 -0.202704 0.183174
0.511429 -0.196836 -0.046359
0.208141 0.006352 -0.671545
0.122921 0.125263 -0.727659
0.569925 0.242348 0.029022
0.313867 -0.181867 -0.661634
0.264846 0.147538 -0.676066
0.300882 0.237345 -0.746486
0.468964 0.208590 0.194203
0.214141 0.259668 0.497356
0.357291 -0.259458 -0.813874
0.418321 -0.261337 -0.692316
0.415856 -0.132270 0.437527
0.362930 -0.199831 0.717034
0.338017 -0.078439 -0.581265
0.424731 0.112612 0.435627
0.320405 0.260424 -0.848110
0.521857 0.237911 0.152496
0.398274 -0.232675 0.496618
0.416707 -0.262835 0.650504
0.443260 -0.204424 -0.559462
0.436417 -0.191316 -0.884259
0.336971 -0.099130 0.769832
0.392102 -0.033872 -0.505735
0.350739 -0.031531 0.400380
0.435455 -0.049453 -0.940596
0.514781 -0.040074 -0.337804
0.473458 -0.004735 0.424971
0.361890 -0.009352 0.791994
0.333326 0.076611 -0.582380
0.496710 0.063605 -0.358875
0.400462 0.103300 -0.505548
0.350639 0.095597 0.769241
0.466920 0.214813 -0.551495
0.438885 0.131535 -0.922742
0.392713 0.226037 -0.660059
0.393747 0.232169 0.492790
0.398242 0.211076 0.717011
0.378304 0.224034 -0.890315
0.361817 0.248284 0.671779
0.485060 -0.264005 -0.725270
0.504927 -0.273353 -0.641060
0.521902 -0.147780 -0.368635
0.489417 -0.030106 -0.120022
0.568180 0.093753 -0.815485
0.584912 0.130493 0.207411
0.558251 0.194680 -0.332752
0.468238 0.263966 -0.705511
0.486130 0.264549 -0.646721
0.645186 -0.264299 0.584744
0.613273 -0.258131 -0.601483
0.661880 -0.256678 0.658848
0.634270 -0.180711 -0.662247
0.583381 -0.219775 -0.336213
0.591298 -0.231555 -0.035810
0.661047 -0.201955 0.740859
0.573100 -0.157175 -0.247437
0.574633 -0.201603 -0.089933
0.733675 -0.067452 0.779595
0.541846 0.051071 -0.259093
0.742767 -0.039280 0.463407
0.727502 0.087272 0.464627
0.601556 0.215149 -0.087679
0.630548 0.181611 -0.668118
0.700623 0.197433 0.513830
0.672197 0.201587 0.742381
0.670093 0.256684 0.591698
0.618788 0.258313 0.673102
0.632420 -0.255517 -0.465973
0.694638 -0.207221 -0.536885
0.647788 -0.232701 -0.143997
0.630667 -0.204613 0.111733
0.663595 -0.225011 0.004122
0.607657 -0.163072 0.182952
0.712282 -0.190227 0.515472
0.699673 -0.084398 0.134094
0.710643 0.017381 -0.654585
0.702670 0.053186 0.124794
0.646302 0.181932 0.130676
0.584164 0.206717 0.171495
0.694697 0.209546 -0.533259
0.639268 0.251283 -0.443989
0.674188 0.219741 -0.015004
0.602886 0.255873 -0.575533
0.663527 0.245225 -0.133684
0.728083 -0.191720 -0.395692
0.722427 -0.194531 -0.058373
0.748947 -0.203278 0.592812
0.732188 -0.190604 0.726677
0.735205 -0.094829 0.063674
0.742288 0.014471 -0.596851
0.745542 0.058472 0.035734
0.727683 0.085815 0.780210
0.729737 0.186645 -0.384263
0.726596 0.191481 -0.069218
0.745720 0.208591 0.582469
0.732652 0.200717 0.712945
0.786998 -0.082450 0.737555
0.772061 -0.066329 -0.507461
0.766199 -0.069204 -0.049211
0.787191 -0.083018 0.501337
0.809888 -0.046419 0.612804
0.783445 -0.005966 -0.423095
0.769239 0.072143 -0.515060
0.769314 0.093383 -0.083880
0.780133 0.074609 0.505723
0.787600 0.058479 0.733023
0.761384 0.152055 -0.098584
3 2 1 4
3 2 4 14
3 3 5 0
3 0 5 6
3 0 6 1
3 1 6 4
3 5 7 6
3 6 7 4
3 14 4 17
3 4 7 8
3 4 8 9
3 4 9 17
3 5 10 7
3 11 7 10
3 7 11 8
3 25 0 21
3 21 1 23
3 0 1 21
3 23 1 24
3 24 1 2
3 25 3 0
3 3 13 5
3 12 15 13
3 13 15 16
3 13 16 5
3 15 18 16
3 16 18 19
3 16 19 10
3 5 16 10
3 19 11 10
3 19 33 11
3 11 20 8
3 8 20 9
3 33 34 11
3 11 34 20
3 21 23 22
3 22 41 21
3 25 21 44
3 25 44 43
3 44 21 41
3 12 26 27
3 3 25 26
3 13 26 12
3 26 13 3
3 28 29 27
3 27 29 12
3 47 2 14
3 47 14 51
3 28 30 29
3 12 29 15
3 51 14 17
3 29 30 31
3 29 31 15
3 15 31 18
3 51 17 9
3 32 18 31
3 18 32 19
3 32 33 19
3 55 35 34
3 33 55 34
3 36 9 20
3 59 34 35
3 59 37 34
3 20 34 37
3 20 38 36
3 22 39 41
3 40 39 22
3 23 40 22
3 40 23 62
3 62 23 24
3 63 62 24
3 42 45 26
3 64 42 26
3 46 64 25
3 64 26 25
3 43 46 25
3 44 41 65
3 63 24 47
3 47 24 2
3 26 45 27
3 44 49 48
3 44 65 49
3 67 28 45
3 28 27 45
3 43 44 50
3 44 48 50
3 52 50 48
3 48 49 52
3 28 71 30
3 52 35 54
3 31 30 56
3 30 71 56
3 53 52 55
3 52 54 55
3 75 51 9
3 31 56 32
3 54 35 55
3 9 36 75
3 56 58 32
3 57 33 58
3 33 32 58
3 55 33 57
3 35 74 59
3 59 60 37
3 20 37 60
3 61 20 60
3 61 38 20
3 39 40 76
3 76 40 62
3 77 45 42
3 41 39 65
3 77 67 45
3 49 65 66
3 68 46 43
3 68 43 50
3 66 69 49
3 80 47 51
3 71 28 67
3 53 82 50
3 50 52 53
3 52 49 69
3 70 80 51
3 35 52 69
3 69 73 35
3 71 72 56
3 74 35 73
3 83 55 57
3 72 86 56
3 57 58 87
3 56 86 58
3 86 87 58
3 59 74 88
3 38 89 36
3 88 60 59
3 61 60 88
3 61 89 38
3 39 90 92
3 90 39 76
3 42 91 77
3 91 42 64
3 39 92 65
3 76 62 94
3 93 76 94
3 62 63 94
3 46 91 64
3 63 47 79
3 77 78 67
3 80 79 47
3 78 81 67
3 79 80 70
3 67 81 71
3 66 99 69
3 81 72 71
3 53 83 82
3 69 99 73
3 70 51 84
3 83 53 55
3 75 84 51
3 85 86 72
3 101 75 36
3 75 101 84
3 102 88 74
3 88 100 61
3 61 100 89
3 90 76 95
3 96 93 94
3 96 94 105
3 94 63 105
3 97 105 63
3 78 77 91
3 91 46 98
3 76 93 95
3 63 79 97
3 98 46 68
3 106 81 78
3 82 68 50
3 111 72 81
3 83 57 87
3 112 104 100
3 103 112 100
3 103 88 102
3 100 88 103
3 89 100 104
3 104 113 89
3 113 36 89
3 36 113 101
3 114 90 95
3 115 106 78
3 107 97 79
3 108 114 95
3 96 116 93
3 117 81 106
3 95 93 108
3 93 109 108
3 93 116 109
3 118 79 70
3 108 109 110
3 110 109 112
3 109 104 112
3 109 120 104
3 123 110 112
3 120 124 104
3 121 85 72
3 83 87 122
3 121 122 85
3 85 122 86
3 122 87 86
3 123 112 103
3 104 124 113
3 105 97 126
3 115 78 127
3 78 91 127
3 98 127 91
3 128 96 105
3 127 98 68
3 129 127 68
3 129 68 82
3 131 109 116
3 130 79 118
3 129 82 132
3 133 108 110
3 131 134 109
3 122 135 83
3 121 135 122
3 136 102 74
3 125 84 138
3 138 84 101
3 113 138 101
3 92 139 65
3 139 92 140
3 92 90 140
3 141 105 126
3 139 143 65
3 142 90 114
3 126 97 107
3 128 116 96
3 130 107 79
3 132 82 145
3 145 82 83
3 119 73 99
3 134 120 109
3 83 135 145
3 146 103 102
3 140 90 142
3 141 128 105
3 131 116 128
3 132 144 129
3 144 132 145
3 118 70 125
3 125 70 84
3 144 145 148
3 134 137 120
3 137 124 120
3 149 145 135
3 123 103 150
3 124 137 151
3 113 124 151
3 151 138 113
3 127 152 115
3 129 147 127
3 143 66 65
3 147 129 144
3 144 156 147
3 111 121 72
3 119 136 73
3 136 74 73
3 150 110 123
3 149 148 145
3 158 135 121
3 135 158 149
3 103 159 150
3 146 159 103
3 141 126 160
3 107 161 126
3 153 152 127
3 141 160 128
3 107 155 161
3 147 153 127
3 128 154 131
3 154 128 160
3 142 114 108
3 130 155 107
3 115 117 106
3 154 166 131
3 130 164 155
3 164 130 118
3 166 134 131
3 164 118 170
3 156 144 171
3 117 111 81
3 166 157 134
3 170 118 174
3 174 118 125
3 171 144 148
3 137 134 157
3 177 171 148
3 174 125 179
3 111 180 121
3 177 148 149
3 137 157 178
3 121 180 158
3 178 151 137
3 151 178 138
3 125 138 181
3 179 125 181
3 147 162 153
3 156 162 147
3 162 165 184
3 163 167 115
3 167 117 115
3 162 156 165
3 184 165 168
3 133 142 108
3 185 66 143
3 154 169 166
3 185 99 66
3 168 165 172
3 185 119 99
3 111 117 167
3 167 176 111
3 156 171 165
3 165 171 173
3 172 165 173
3 187 133 110
3 157 166 169
3 171 175 173
3 187 110 150
3 177 175 171
3 180 111 176
3 180 189 158
3 189 149 158
3 177 149 189
3 182 152 153
3 191 126 161
3 115 152 182
3 153 183 182
3 162 183 153
3 196 143 139
3 193 161 155
3 115 182 163
3 162 184 195
3 164 197 155
3 202 169 154
3 176 167 186
3 203 157 169
3 186 205 176
3 173 188 172
3 203 206 157
3 175 188 173
3 206 178 157
3 207 174 179
3 180 176 205
3 205 189 180
3 190 175 177
3 146 102 136
3 208 138 178
3 189 190 177
3 208 209 138
3 138 209 181
3 162 210 183
3 210 192 183
3 191 161 193
3 182 192 194
3 182 183 192
3 162 195 210
3 139 140 213
3 213 142 215
3 213 140 142
3 191 160 126
3 197 193 155
3 163 182 194
3 199 143 196
3 163 194 167
3 195 184 198
3 199 198 185
3 199 185 143
3 215 142 133
3 197 164 200
3 184 168 198
3 198 168 201
3 198 201 185
3 168 172 201
3 201 204 185
3 185 204 119
3 172 188 201
3 201 188 204
3 119 204 136
3 187 150 221
3 189 225 190
3 175 223 188
3 204 146 136
3 146 221 159
3 221 150 159
3 206 208 178
3 207 179 209
3 209 179 181
3 190 225 175
3 175 225 223
3 211 192 210
3 210 195 212
3 212 195 198
3 212 198 199
3 212 196 214
3 212 199 196
3 139 214 196
3 213 214 139
3 216 160 191
3 194 192 211
3 217 213 215
3 216 154 160
3 215 133 217
3 216 202 154
3 218 167 194
3 200 164 170
3 217 133 219
3 186 167 218
3 234 170 174
3 133 187 219
3 219 187 220
3 234 174 207
3 187 221 220
3 189 205 225
3 205 222 225
3 188 223 226
3 188 226 204
3 204 226 224
3 224 146 204
3 146 220 221
3 146 224 220
3 222 223 225
3 210 227 211
3 210 212 227
3 212 228 227
3 214 228 212
3 216 191 229
3 191 193 229
3 193 230 229
3 193 197 230
3 228 214 231
3 213 231 214
3 230 197 200
3 211 232 194
3 211 240 232
3 213 217 231
3 194 232 218
3 217 219 231
3 231 219 233
3 202 203 169
3 200 170 234
3 205 186 218
3 218 232 205
3 232 222 205
3 232 245 222
3 238 234 207
3 236 246 233
3 224 236 233
3 233 219 224
3 219 220 224
3 222 235 223
3 235 226 223
3 235 236 226
3 226 236 224
3 208 206 237
3 237 238 208
3 238 209 208
3 207 209 238
3 239 229 230
3 211 227 240
3 228 241 227
3 228 231 241
3 216 229 242
3 230 200 239
3 229 243 242
3 229 239 243
3 227 244 240
3 227 241 244
3 202 216 242
3 245 232 240
3 240 244 245
3 241 246 244
3 241 233 246
3 231 233 241
3 247 202 242
3 203 202 247
3 242 243 247
3 239 248 243
3 239 200 248
3 243 248 247
3 200 234 248
3 244 235 245
3 244 246 235
3 246 249 235
3 248 237 247
3 234 238 248
3 222 245 235
3 246 236 249
3 206 203 247
3 248 238 237
3 249 236 235
3 237 206 247
