ply
format ascii 1.0
element vertex 252
property float x
property float y
property float z
element face 500
property list uchar int vertex_indices
end_header
-0.548702 -0.196695 0.441834
-0.547958 -0.173208 0.619741
-0.518625 -0.141597 0.126163
-0.567242 0.007335 0.110880
-0.580209 -0.048229 0.433993
-0.574605 0.030432 0.658048
-0.523025 0.140504 0.114066
-0.565971 0.174038 0.459830
-0.512849 0.198641 0.673223
-0.524090 -0.240282 0.550380
-0.535092 -0.146524 0.204591
-0.538304 -0.173354 0.348731
-0.542099 -0.122098 0.277066
-0.569740 0.000223 0.172196
-0.544214 0.139211 0.290050
-0.516692 0.184710 0.206357
-0.443715 0.260831 0.634839
-0.530354 0.240961 0.534572
-0.409354 -0.248901 0.103292
-0.471456 -0.225071 0.295075
-0.421492 -0.252884 0.676564
-0.459948 -0.117763 0.818928
-0.402481 -0.147136 -0.165526
-0.470310 -0.032994 -0.077737
-0.423955 -0.040595 -0.211815
-0.405055 0.135202 -0.177858
-0.478664 0.121400 -0.027301
-0.444264 0.054680 0.855489
-0.360478 0.199484 0.811870
-0.471245 0.240353 0.315612
-0.373925 0.250214 0.720125
-0.397607 0.250417 0.096846
-0.352701 -0.262873 0.115165
-0.368920 -0.248945 0.583418
-0.336463 -0.251507 0.675220
-0.333668 -0.236653 -0.157033
-0.365688 -0.234281 -0.022231
-0.345211 -0.172585 -0.279062
-0.354471 -0.017306 -0.383317
-0.332810 0.097918 -0.435772
-0.351762 0.146456 -0.332352
-0.420421 0.213651 -0.029574
-0.308983 0.229388 -0.250470
-0.333644 0.251123 -0.100633
-0.356942 0.242875 0.620379
-0.248139 -0.256053 -0.278682
-0.321536 -0.229294 0.207341
-0.287340 -0.252929 0.726552
-0.257155 -0.203971 -0.421104
-0.299490 -0.183164 0.578597
-0.337522 -0.200950 0.814853
-0.276939 -0.109324 -0.492631
-0.246454 -0.069755 0.239529
-0.355047 -0.037760 0.893301
-0.300894 0.054110 -0.489317
-0.327709 0.098296 0.887029
-0.248185 0.075544 0.239813
-0.265274 0.131329 0.582810
-0.276632 0.181746 -0.439376
-0.331664 0.228037 0.205989
-0.235773 0.205171 0.677414
-0.220580 0.249323 -0.183331
-0.272509 -0.260689 -0.092536
-0.164100 -0.255628 -0.406684
-0.276006 -0.240019 0.059201
-0.164707 -0.193837 -0.069841
-0.159253 -0.227802 -0.498196
-0.194831 -0.169146 0.040769
-0.221549 -0.135574 0.112583
-0.206616 -0.145903 0.644718
-0.255322 -0.023406 0.560009
-0.185584 0.128199 0.048381
-0.224608 0.150080 0.103628
-0.204711 0.197672 -0.507589
-0.258512 0.227354 0.014911
-0.186069 0.250998 -0.420789
-0.233204 0.240724 0.750900
-0.142379 -0.256045 -0.270009
-0.050065 -0.188602 -0.280087
-0.123005 -0.166265 -0.716316
-0.104141 -0.235134 -0.629656
-0.140949 -0.107748 -0.017978
-0.210411 -0.043483 -0.591628
-0.157888 -0.017723 0.042998
0.171298 -0.076344 0.877804
-0.149164 0.021599 -0.730741
-0.194854 0.018202 0.117006
-0.198386 0.081254 0.626327
-0.109433 0.216771 -0.626496
-0.109659 0.175093 -0.729877
-0.144543 0.136149 -0.049964
-0.097562 0.169636 -0.173949
-0.126640 0.258142 -0.489924
-0.026925 -0.265543 -0.665028
-0.037243 -0.251494 -0.534451
-0.044933 -0.227711 -0.406100
0.182548 -0.184462 0.796362
-0.003186 -0.157608 0.180605
-0.118409 -0.072964 -0.770828
-0.033910 -0.156278 0.146196
-0.073910 -0.074086 0.176645
-0.026338 -0.034637 -0.214782
-0.080879 0.025252 -0.102643
-0.058068 -0.051072 0.126230
-0.104533 0.011988 -0.043967
0.280791 -0.088581 0.638010
0.278058 0.012745 0.636383
0.194059 0.025666 0.877778
-0.113784 0.073348 -0.780534
-0.072590 0.067271 0.190654
-0.027882 0.136588 0.127944
-0.036513 0.086458 -0.198922
0.248190 0.146334 0.686323
-0.022666 0.165421 0.184385
0.138794 0.192327 0.800703
-0.087820 0.248948 -0.388019
-0.019608 0.176726 -0.313069
0.147001 0.225172 0.744826
0.001169 0.259826 -0.657480
-0.039966 0.255063 -0.526042
0.179483 -0.220048 0.750788
-0.056093 -0.200806 -0.748276
0.064334 -0.203425 -0.527024
0.024955 -0.195868 -0.452238
0.086548 -0.222406 0.122887
0.047879 -0.192676 -0.820648
0.058708 -0.086506 -0.412222
0.069126 -0.148109 0.045269
0.038712 0.024259 0.030568
-0.051401 0.046198 -0.824978
-0.014413 0.052448 0.224272
0.058324 0.097693 -0.408641
0.046089 0.163228 0.060725
-0.048424 0.213118 -0.743838
0.053120 0.184623 -0.817733
0.058854 0.208158 -0.538140
0.015137 0.208274 -0.443150
0.076205 0.214539 0.131142
0.048607 -0.262895 -0.648834
0.069032 -0.249565 -0.739097
0.118089 -0.215051 -0.812686
0.167172 -0.217610 0.177922
0.100653 -0.085242 -0.483272
0.232206 -0.169005 0.679165
0.041588 -0.078645 -0.858750
0.234673 -0.077588 0.238884
0.036782 0.085323 -0.865725
0.110655 0.062775 -0.496344
0.081390 0.195716 0.198867
0.105539 0.160552 0.028047
0.075400 0.249747 -0.730308
0.116656 0.240108 -0.668819
0.138054 -0.140584 -0.860696
0.229182 -0.052491 -0.603691
0.223379 -0.134657 -0.113408
0.180623 -0.137118 -0.053491
0.189891 -0.008382 -0.123109
0.136604 0.015248 -0.049524
0.388073 0.033522 -0.891691
0.197343 0.056104 -0.597587
0.132103 0.145032 -0.865107
0.206838 0.123403 -0.101964
0.190596 0.165147 -0.040478
0.180783 0.173845 -0.630297
0.239206 -0.235383 0.107465
0.240195 -0.196076 -0.658584
0.279192 -0.227212 -0.039848
0.177778 -0.222513 0.036260
0.269203 -0.175641 0.718009
0.240166 -0.045953 -0.215918
0.290730 -0.022854 -0.403010
0.264458 0.117468 -0.242229
0.270407 0.076178 0.240751
0.280654 0.093161 0.817993
0.270496 0.159225 -0.662444
0.204253 0.229929 0.090257
0.413325 0.219496 -0.807372
0.280912 0.217893 -0.055332
0.253175 0.202704 0.176599
0.258229 0.182270 0.747317
0.413551 0.246571 -0.739025
0.392597 -0.243485 -0.743167
0.353321 -0.154362 -0.471402
0.330782 -0.206280 -0.192617
0.276885 -0.175511 0.189451
0.432660 -0.203968 -0.809762
0.357433 -0.155635 0.129133
0.325876 -0.069455 0.665245
0.320510 -0.102103 0.744283
0.277363 -0.040168 0.838736
0.445086 -0.066998 -0.875405
0.336646 -0.044107 0.213519
0.311481 -0.003497 -0.510579
0.338650 0.046593 0.722744
0.336402 0.044450 0.660749
0.454037 0.128631 -0.863845
0.320043 0.108671 -0.477405
0.337426 0.083028 0.210832
0.353165 0.156296 0.138636
0.358178 0.212761 -0.411281
0.353560 0.237714 -0.204924
0.283299 0.228415 0.118927
0.439066 -0.254480 -0.424968
0.442958 -0.234012 -0.132924
0.365410 -0.252378 -0.066753
0.371872 -0.236596 -0.012774
0.433385 -0.241316 -0.670521
0.416234 -0.227487 -0.567277
0.471760 -0.148722 -0.021550
0.317089 -0.071984 -0.595004
0.408163 -0.014647 0.127390
0.339896 0.117369 -0.589548
0.407705 0.223241 -0.561696
0.477801 0.127373 -0.038221
0.426329 0.239294 -0.661691
0.366525 0.225426 -0.007310
0.353208 0.246645 -0.076400
0.438002 0.263097 -0.429287
0.434521 0.240555 -0.165811
0.552584 -0.214916 -0.753222
0.479419 -0.268590 -0.578454
0.591644 -0.188485 -0.289957
0.511422 0.197377 -0.175135
0.486095 0.270612 -0.585844
0.542605 -0.264998 -0.652614
0.553414 -0.259904 -0.451047
0.511429 -0.145067 -0.831550
0.530330 -0.120863 -0.103812
0.594183 -0.063936 -0.206240
0.506340 0.029438 -0.865570
0.586813 -0.090402 -0.816691
0.516349 -0.008904 -0.037433
0.546292 0.055219 -0.111435
0.619966 0.058582 -0.811589
0.599176 0.165266 -0.293601
0.587346 0.200006 -0.762752
0.542813 0.267176 -0.666217
0.553094 0.257243 -0.440213
0.625235 -0.236331 -0.665172
0.643961 -0.188735 -0.431594
0.650878 -0.117472 -0.339513
0.666078 0.050724 -0.344687
0.594635 0.054906 -0.201441
0.632963 0.240514 -0.671769
0.650300 0.182826 -0.440089
0.664420 -0.168127 -0.697349
0.649777 -0.070680 -0.782599
0.695067 -0.040464 -0.433323
0.693039 0.001655 -0.716030
0.658643 0.092105 -0.780307
0.698586 0.073948 -0.444831
0.666439 0.181989 -0.701193
3 4 0 11
3 0 4 1
3 1 4 5
3 3 6 13
3 4 7 5
3 5 7 8
3 9 0 1
3 13 10 2
3 3 13 2
3 10 13 12
3 11 12 4
3 12 13 14
3 12 14 4
3 6 15 13
3 13 15 14
3 4 14 7
3 7 17 8
3 16 8 17
3 9 20 19
3 18 2 19
3 19 2 10
3 19 11 0
3 19 0 9
3 20 9 1
3 36 2 18
3 20 1 21
3 19 10 12
3 19 12 11
3 22 23 36
3 36 23 2
3 22 24 23
3 2 23 3
3 5 21 1
3 21 5 27
3 24 25 23
3 23 25 26
3 23 26 3
3 3 26 6
3 8 27 5
3 28 27 8
3 14 15 29
3 26 41 6
3 16 30 8
3 8 30 28
3 31 6 41
3 6 31 15
3 15 31 29
3 29 7 14
3 7 29 17
3 29 16 17
3 19 32 18
3 34 33 20
3 36 18 32
3 32 19 46
3 46 19 33
3 19 20 33
3 34 20 47
3 20 50 47
3 22 35 37
3 35 22 36
3 21 50 20
3 50 21 53
3 38 24 37
3 37 24 22
3 53 21 27
3 24 38 25
3 39 38 54
3 38 39 40
3 38 40 25
3 53 27 55
3 55 27 28
3 26 25 41
3 25 42 43
3 25 43 41
3 43 31 41
3 31 59 29
3 59 44 29
3 29 44 16
3 16 44 30
3 45 35 62
3 45 37 35
3 62 35 36
3 62 36 64
3 36 32 64
3 64 32 46
3 49 46 33
3 34 49 33
3 46 49 52
3 38 48 51
3 37 48 38
3 52 49 70
3 38 51 54
3 54 58 39
3 56 57 59
3 57 44 59
3 57 60 44
3 39 58 40
3 40 58 42
3 25 40 42
3 59 72 56
3 43 42 61
3 43 74 31
3 74 59 31
3 60 30 44
3 60 76 30
3 30 76 28
3 43 61 74
3 77 45 62
3 63 66 48
3 45 63 48
3 37 45 48
3 77 62 65
3 64 65 62
3 66 51 48
3 67 65 64
3 64 68 67
3 64 46 68
3 34 69 49
3 69 34 47
3 66 82 51
3 68 46 52
3 84 50 53
3 86 68 52
3 70 49 69
3 82 54 51
3 69 87 70
3 52 70 56
3 56 86 52
3 70 57 56
3 70 87 57
3 82 73 54
3 72 86 56
3 73 58 54
3 87 60 57
3 71 72 74
3 73 75 58
3 72 59 74
3 42 58 75
3 61 42 75
3 63 45 77
3 65 78 77
3 96 47 50
3 65 67 81
3 80 79 82
3 66 80 82
3 81 67 83
3 68 83 67
3 85 79 98
3 79 85 82
3 104 81 83
3 68 86 83
3 105 106 69
3 106 87 69
3 108 85 98
3 82 85 88
3 89 85 108
3 85 89 88
3 82 88 73
3 90 104 83
3 71 90 83
3 83 86 71
3 86 72 71
3 112 60 87
3 88 92 73
3 73 92 75
3 74 61 90
3 61 91 90
3 90 71 74
3 117 76 60
3 114 55 28
3 115 91 61
3 92 115 75
3 61 75 115
3 77 95 63
3 80 93 121
3 93 80 94
3 80 66 94
3 63 95 66
3 94 66 95
3 78 95 77
3 80 121 79
3 121 98 79
3 99 100 97
3 78 65 101
3 65 102 101
3 81 102 65
3 99 103 100
3 96 50 84
3 81 104 102
3 97 100 130
3 121 129 98
3 129 108 98
3 100 103 109
3 100 109 130
3 111 101 102
3 103 110 109
3 107 53 55
3 104 90 102
3 129 133 108
3 102 91 111
3 91 102 90
3 133 89 108
3 91 116 111
3 113 109 110
3 109 113 130
3 133 88 89
3 118 88 133
3 88 118 119
3 92 88 119
3 119 115 92
3 115 116 91
3 28 76 114
3 93 138 139
3 138 93 94
3 125 121 139
3 139 121 93
3 95 123 94
3 123 122 94
3 120 47 96
3 99 124 127
3 124 97 141
3 124 99 97
3 143 69 47
3 121 125 144
3 126 123 95
3 95 78 126
3 127 128 103
3 99 127 103
3 141 97 145
3 129 121 144
3 78 101 126
3 145 97 130
3 126 101 131
3 84 53 107
3 146 129 144
3 103 128 110
3 101 111 131
3 128 132 110
3 116 136 131
3 131 111 116
3 134 129 146
3 129 134 133
3 60 112 117
3 134 150 133
3 136 116 115
3 137 110 132
3 113 110 137
3 113 137 148
3 130 113 148
3 119 136 115
3 119 135 136
3 76 117 114
3 150 118 133
3 119 118 135
3 139 140 125
3 138 94 122
3 143 47 120
3 140 152 125
3 123 142 122
3 152 144 125
3 123 126 142
3 127 157 128
3 152 158 144
3 158 146 144
3 142 126 147
3 126 131 147
3 158 160 146
3 157 149 128
3 149 132 128
3 107 55 114
3 160 134 146
3 135 163 147
3 147 131 135
3 131 136 135
3 149 137 132
3 150 151 118
3 151 135 118
3 138 165 139
3 164 167 124
3 164 124 141
3 165 138 122
3 167 127 124
3 153 165 122
3 167 155 127
3 122 142 153
3 154 156 155
3 127 155 157
3 153 142 159
3 155 156 157
3 142 147 159
3 172 145 130
3 156 161 157
3 157 161 162
3 157 162 149
3 147 163 159
3 172 130 148
3 176 134 160
3 174 163 151
3 163 135 151
3 175 149 162
3 137 149 175
3 134 176 180
3 150 134 180
3 151 150 174
3 174 150 180
3 137 175 178
3 137 178 148
3 114 117 179
3 139 181 140
3 181 139 165
3 166 167 164
3 120 96 168
3 185 152 140
3 154 166 183
3 166 154 155
3 155 167 166
3 164 141 184
3 168 143 120
3 69 143 105
3 183 169 154
3 184 141 145
3 96 84 189
3 154 169 156
3 189 84 107
3 169 170 171
3 189 107 173
3 153 159 174
3 169 171 156
3 158 195 160
3 156 171 161
3 174 159 163
3 106 112 87
3 173 107 114
3 114 179 173
3 161 177 162
3 175 162 177
3 172 148 178
3 179 117 112
3 177 201 175
3 178 175 201
3 206 181 165
3 166 204 183
3 204 166 205
3 166 164 205
3 186 205 164
3 184 186 164
3 190 152 185
3 165 209 206
3 143 187 105
3 143 168 187
3 168 188 187
3 168 96 188
3 209 165 153
3 182 170 183
3 183 170 169
3 191 186 184
3 184 145 191
3 189 188 96
3 192 182 209
3 192 170 182
3 190 158 152
3 187 106 105
3 193 188 189
3 191 145 172
3 187 194 106
3 189 173 193
3 209 153 174
3 211 192 209
3 191 172 197
3 209 174 211
3 196 192 211
3 170 192 196
3 171 170 196
3 112 106 194
3 194 193 112
3 214 211 174
3 196 199 171
3 171 199 200
3 197 178 198
3 197 172 178
3 112 193 179
3 173 179 193
3 195 176 160
3 214 174 180
3 171 200 177
3 161 171 177
3 201 215 198
3 201 198 178
3 200 216 177
3 216 215 177
3 177 215 201
3 185 140 181
3 202 207 182
3 183 202 182
3 203 202 183
3 203 183 204
3 205 203 204
3 209 207 206
3 182 207 209
3 205 186 208
3 191 210 186
3 188 193 187
3 187 193 194
3 191 197 210
3 198 213 210
3 198 210 197
3 214 212 211
3 211 212 196
3 213 198 215
3 196 212 199
3 212 217 199
3 200 199 217
3 218 200 217
3 200 218 216
3 215 216 218
3 219 206 224
3 206 220 224
3 202 220 207
3 202 225 220
3 225 203 221
3 225 202 203
3 185 181 219
3 181 206 219
3 207 220 206
3 205 208 203
3 226 190 185
3 227 203 208
3 186 210 208
3 226 229 190
3 231 208 210
3 229 158 190
3 213 231 210
3 229 195 158
3 229 235 195
3 176 195 235
3 215 218 213
3 218 222 213
3 223 212 214
3 237 222 218
3 180 236 214
3 236 223 214
3 212 223 217
3 223 237 217
3 218 217 237
3 224 220 225
3 226 185 219
3 221 203 227
3 228 221 227
3 219 230 226
3 229 226 230
3 208 231 227
3 232 228 227
3 227 231 232
3 233 229 230
3 242 228 232
3 231 213 232
3 242 232 234
3 234 232 222
3 232 213 222
3 235 229 233
3 235 180 176
3 180 235 236
3 237 234 222
3 236 237 223
3 225 238 224
3 219 224 238
3 225 239 238
3 225 221 239
3 219 238 245
3 239 221 240
3 245 246 219
3 221 228 240
3 246 230 219
3 246 233 230
3 240 228 241
3 246 249 233
3 228 242 241
3 249 235 233
3 234 244 241
3 241 242 234
3 249 251 235
3 243 235 251
3 236 235 243
3 244 237 243
3 244 234 237
3 237 236 243
3 238 239 245
3 239 247 245
3 248 246 245
3 245 247 248
3 239 240 247
3 240 241 247
3 249 246 248
3 247 250 248
3 247 241 250
3 251 249 248
3 248 250 251
3 241 244 250
3 250 244 251
3 244 243 251
