ply
format ascii 1.0
element vertex 252
property float x
property float y
property float z
element face 500
property list uchar int vertex_indices
end_header
-0.813479 -0.186659 -0.792877
-0.836769 -0.095969 -0.683490
-0.841041 -0.065458 -0.904990
-0.881697 -0.086296 -0.821461
-0.879463 0.040348 -0.797577
-0.829696 0.031777 -0.627213
-0.823184 0.111335 -0.916452
-0.817692 0.139349 -0.656062
-0.811654 0.196273 -0.794801
-0.657871 -0.202156 -0.565528
-0.763471 -0.187746 -0.881564
-0.679874 -0.129071 -0.946772
-0.738610 0.019219 -0.972009
-0.708304 0.134994 -0.950449
-0.770817 0.196129 -0.884232
-0.668744 0.207937 -0.577179
-0.710125 -0.229600 -0.760357
-0.652174 -0.076886 -0.491212
-0.647346 0.100665 -0.490195
-0.712531 0.230883 -0.763036
-0.597811 0.178799 -0.858728
-0.581745 -0.225978 -0.571161
-0.608349 -0.170926 -0.722161
-0.627626 -0.173983 -0.853955
-0.068066 -0.081836 -0.954141
-0.583262 0.019809 -0.755760
-0.056575 0.052574 -0.968035
-0.611032 0.178840 -0.731481
-0.584617 0.104272 -0.809876
-0.605176 0.223789 -0.593693
-0.523586 -0.197468 -0.554015
-0.524184 -0.154736 -0.511303
-0.525619 -0.028322 0.430584
-0.485383 -0.088190 -0.563722
-0.484803 -0.109014 0.506257
-0.576985 -0.013535 -0.798653
-0.526580 0.012680 -0.457695
-0.487995 0.083129 -0.567451
-0.507166 0.074540 0.496049
-0.489490 0.124630 0.446236
-0.529711 0.187067 -0.565873
-0.528110 0.146031 -0.511750
-0.396705 -0.183558 -0.891821
-0.445296 -0.161948 0.437774
-0.375591 -0.209740 0.509664
-0.422563 -0.112865 -0.823857
-0.493557 -0.056836 0.391399
-0.463885 -0.002385 -0.502221
-0.393423 -0.121249 0.586199
-0.447634 0.110401 -0.823408
-0.475697 0.048831 0.387266
-0.437332 0.071012 0.569881
-0.157349 0.161774 -0.937997
-0.406489 0.192477 0.506472
-0.291536 -0.194030 -0.814639
-0.335433 -0.124385 0.349531
-0.231250 -0.218894 0.598235
-0.298507 -0.181485 -0.936412
-0.432628 -0.016515 0.355320
-0.340689 0.192536 -0.869466
-0.232589 0.213277 -0.810617
-0.298553 0.204638 0.590482
-0.182342 -0.211659 -0.878273
-0.289863 -0.131259 -0.752056
-0.335452 0.024459 0.336970
-0.309147 -0.009908 -0.741133
-0.302910 0.076276 0.649199
-0.267031 0.147107 -0.750170
-0.344064 0.204214 0.425912
-0.215554 0.269555 0.494707
-0.200004 -0.209232 0.377047
-0.199107 -0.115476 0.309382
-0.211079 -0.073486 0.675688
-0.224957 -0.070112 -0.690806
-0.184067 0.038185 0.295924
-0.178123 0.080974 0.690376
-0.168382 0.208651 0.386012
-0.203031 0.184952 0.649443
-0.068914 -0.265137 0.496476
-0.152771 -0.232727 -0.768849
-0.068052 -0.274644 0.583317
-0.192471 -0.174144 -0.713096
-0.132831 -0.016531 0.294541
-0.200507 0.083261 -0.683645
-0.138764 0.215562 -0.734112
-0.130109 0.206427 -0.893557
-0.102589 0.267902 0.586914
-0.012371 -0.253647 -0.770029
0.009676 -0.186127 -0.594630
-0.127283 -0.149016 0.330173
0.012078 -0.193654 0.688370
0.010589 -0.184837 -0.030858
-0.025608 -0.189744 0.076860
-0.049629 -0.059654 -0.572192
-0.073536 -0.080214 0.093217
-0.038272 -0.210796 0.410487
-0.031873 -0.001979 0.339190
-0.049374 0.034311 -0.022715
-0.072641 0.072048 0.100256
-0.020779 0.158110 -0.596303
-0.112049 0.126001 0.331601
0.001360 0.192203 -0.018486
-0.023796 0.194641 0.074211
-0.005420 0.226830 -0.826517
0.017174 0.253278 0.483675
0.104530 -0.262017 -0.654002
0.050431 -0.247716 0.053203
-0.017806 -0.182919 -0.892245
0.057948 -0.138897 -0.136852
-0.057118 -0.060029 0.135296
0.063481 -0.122839 -0.903140
0.020483 -0.041975 -0.127452
0.010807 -0.015469 0.741666
-0.043909 0.090071 0.140637
0.051476 0.037017 -0.933041
0.031779 0.103990 -0.117974
-0.035942 0.139921 -0.934041
-0.002248 0.180008 0.394683
0.045089 0.199356 0.689539
0.058057 0.254299 -0.652418
0.002535 0.270309 -0.752494
0.053551 0.258995 0.032992
0.109097 -0.264349 0.610902
0.086898 -0.233622 -0.803508
0.185128 -0.295654 -0.037684
0.033754 -0.214674 0.425972
0.113031 -0.197268 -0.534651
0.010208 -0.185415 0.119591
0.174957 -0.196019 -0.434391
0.109180 -0.198122 0.184809
0.125841 -0.141395 0.320841
0.109028 -0.056232 -0.424670
0.050253 -0.017616 -0.499466
0.042076 0.012658 0.204634
0.075116 0.018097 0.267751
0.053538 0.000068 0.339109
0.143990 0.138239 -0.425901
0.044398 0.195366 -0.568590
0.117886 0.129346 0.265736
0.131959 0.158615 0.384855
0.117662 0.084678 0.773147
0.060748 0.208441 0.128429
0.109939 0.210877 -0.540637
0.215748 0.276973 -0.099095
0.106131 -0.275423 -0.717456
0.204613 -0.297911 0.052279
0.178305 -0.249144 -0.667950
0.210364 -0.246234 -0.543105
0.128273 -0.209338 0.454895
0.170099 -0.213686 -0.176718
0.198355 -0.204385 0.259359
0.165066 -0.113841 -0.307713
0.186405 -0.166290 0.353898
0.114605 -0.072268 0.774466
0.188688 -0.031293 -0.868743
0.120537 0.009991 -0.208740
0.233801 -0.182899 0.414182
0.161690 0.070258 -0.302401
0.215371 0.178945 0.416248
0.189816 0.190141 -0.198523
0.186405 0.111066 -0.857920
0.139745 0.190648 -0.147066
0.182582 0.162649 0.337515
0.225541 0.197192 0.736849
0.199434 0.190079 -0.795659
0.199010 0.241963 -0.483245
0.175212 0.202978 0.233214
0.102928 0.270380 -0.733137
0.194312 0.251828 -0.651301
0.227342 0.286594 0.072857
0.147593 0.272048 0.600515
0.244938 0.281403 0.647898
0.258959 -0.263990 0.558934
0.290904 -0.231840 -0.574490
0.275263 -0.254094 -0.476020
0.277032 -0.281913 -0.137083
0.229302 -0.212392 0.482225
0.189890 -0.160756 -0.811062
0.255984 -0.240378 -0.296215
0.176600 -0.196472 0.730955
0.288334 -0.097141 -0.738491
0.249585 -0.083476 -0.816897
0.225144 -0.088730 0.788830
0.246095 0.072653 -0.826951
0.180151 0.064383 0.790517
0.280724 0.142815 -0.745709
0.165683 0.217759 0.494964
0.259255 0.234594 -0.312835
0.332621 0.216359 -0.578606
0.288483 0.257653 -0.490043
0.282856 -0.302443 0.010007
0.312094 -0.271125 0.183848
0.389591 -0.289930 0.648029
0.332445 -0.233285 0.432258
0.318983 -0.219713 0.325069
0.326851 0.224803 0.349452
0.358670 0.234725 0.403401
0.274215 0.266985 0.563306
0.324682 0.279380 -0.036481
0.432809 0.205261 0.068301
0.355227 -0.265212 -0.080890
0.348883 -0.230587 -0.446234
0.362364 -0.234462 -0.211917
0.410981 -0.242874 0.255102
0.433304 -0.285865 0.558979
0.424789 -0.174801 -0.375147
0.479505 -0.146752 -0.050410
0.416656 -0.216380 0.046853
0.545272 -0.221562 0.722191
0.395050 -0.111542 -0.551650
0.439888 -0.130343 -0.427853
0.477226 -0.094701 0.029660
0.672253 -0.079521 0.776484
0.391294 0.091820 -0.582297
0.656609 0.039567 0.782871
0.572911 0.135814 0.782419
0.389764 0.194974 -0.404243
0.471895 0.115151 0.022359
0.475677 0.111989 -0.214247
0.349901 0.254019 -0.190570
0.465087 0.162255 -0.043412
0.399096 0.255592 0.145013
0.416141 0.244631 0.362074
0.428652 0.287752 0.655599
0.439812 0.285488 0.592517
0.555305 -0.259518 0.634102
0.476277 -0.151701 -0.100224
0.532442 -0.175739 0.385860
0.483285 -0.156247 0.199842
0.468256 -0.070085 -0.335285
0.493556 -0.049208 -0.195894
0.456094 0.019721 -0.442292
0.490466 0.013971 -0.272169
0.474026 0.063142 -0.341299
0.481092 0.088427 0.126710
0.473931 0.149193 -0.110996
0.475215 0.181418 0.220821
0.523297 0.183073 0.393843
0.625055 0.168633 0.746118
0.484212 -0.098124 0.130926
0.582388 -0.069086 0.412969
0.518363 -0.020728 -0.105481
0.512340 0.006554 -0.061020
0.526706 0.013802 0.270560
0.582895 0.088514 0.423987
0.629167 0.180003 0.587753
0.638196 -0.167038 0.597545
0.647038 -0.187735 0.708478
0.675308 0.019694 0.599056
0.622268 0.220513 0.668558
0.704602 -0.048090 0.746034
0.696911 0.097816 0.717616
3 2 3 0
3 0 3 1
3 3 2 4
3 3 4 1
3 1 4 5
3 2 6 4
3 5 4 7
3 8 4 6
3 4 8 7
3 10 0 16
3 9 16 0
3 9 0 1
3 2 10 11
3 0 10 2
3 11 12 2
3 1 5 17
3 17 5 18
3 12 13 6
3 2 12 6
3 5 7 18
3 14 6 13
3 6 14 8
3 7 15 18
3 7 8 15
3 14 19 8
3 8 19 15
3 16 9 21
3 16 21 22
3 17 9 1
3 24 12 11
3 26 13 12
3 20 27 19
3 27 29 19
3 20 19 14
3 29 15 19
3 23 10 16
3 22 23 16
3 22 21 30
3 31 21 9
3 23 11 10
3 31 9 17
3 35 23 22
3 25 35 22
3 36 17 18
3 28 35 25
3 27 28 25
3 25 37 27
3 20 14 13
3 28 27 20
3 37 40 27
3 41 18 15
3 27 40 29
3 41 15 29
3 21 31 30
3 42 11 23
3 30 33 22
3 46 32 43
3 43 32 34
3 45 23 35
3 25 22 33
3 31 17 36
3 45 35 49
3 37 25 33
3 50 32 46
3 34 32 38
3 49 35 28
3 41 36 18
3 39 32 50
3 38 32 39
3 52 20 13
3 49 28 20
3 41 29 40
3 57 11 42
3 45 42 23
3 30 31 33
3 43 55 46
3 43 34 44
3 44 34 48
3 31 47 33
3 57 24 11
3 55 58 46
3 31 36 47
3 33 47 37
3 58 50 46
3 51 48 34
3 38 51 34
3 52 13 26
3 47 41 37
3 47 36 41
3 38 39 53
3 38 53 51
3 59 20 52
3 59 49 20
3 37 41 40
3 44 48 56
3 45 54 42
3 45 63 54
3 63 45 65
3 64 58 55
3 65 45 49
3 66 48 51
3 65 49 67
3 64 50 58
3 59 60 49
3 61 51 53
3 51 61 66
3 68 39 50
3 68 53 39
3 68 69 53
3 53 69 61
3 44 70 43
3 62 57 42
3 54 62 42
3 72 56 48
3 63 65 73
3 66 72 48
3 64 68 50
3 67 49 60
3 44 78 70
3 44 56 78
3 62 54 79
3 79 54 81
3 81 54 63
3 70 71 55
3 70 55 43
3 81 63 73
3 55 71 64
3 64 71 74
3 73 65 83
3 72 66 75
3 83 65 67
3 64 76 68
3 64 74 76
3 83 67 84
3 77 75 66
3 61 77 66
3 85 59 52
3 84 67 60
3 85 60 59
3 69 68 76
3 86 61 69
3 61 86 77
3 80 78 56
3 70 89 71
3 90 80 56
3 72 90 56
3 62 24 57
3 81 73 93
3 82 71 89
3 74 71 82
3 26 12 24
3 73 83 93
3 74 82 100
3 100 76 74
3 60 103 84
3 85 103 60
3 104 69 76
3 69 104 86
3 62 87 107
3 62 79 87
3 79 88 87
3 78 95 70
3 88 79 81
3 89 70 95
3 107 24 62
3 93 88 81
3 92 91 94
3 92 94 109
3 96 89 95
3 82 89 96
3 97 91 111
3 91 97 94
3 93 83 99
3 94 97 98
3 109 98 113
3 94 98 109
3 112 72 75
3 115 97 111
3 52 26 116
3 100 82 96
3 96 117 100
3 101 97 115
3 97 101 98
3 84 99 83
3 101 102 98
3 98 102 113
3 118 75 77
3 103 85 116
3 85 52 116
3 84 119 99
3 100 117 76
3 76 117 104
3 118 77 86
3 103 120 84
3 78 80 122
3 87 123 107
3 105 87 88
3 88 126 105
3 91 92 106
3 106 92 127
3 125 95 78
3 122 80 90
3 110 107 123
3 109 127 92
3 110 24 107
3 91 108 111
3 112 90 72
3 88 93 132
3 127 109 133
3 125 135 95
3 135 96 95
3 114 24 110
3 24 114 26
3 132 93 99
3 133 109 113
3 26 114 116
3 132 99 137
3 135 117 96
3 114 103 116
3 112 75 118
3 133 113 141
3 141 113 102
3 99 119 137
3 84 120 119
3 121 102 101
3 102 121 141
3 144 87 105
3 106 145 124
3 106 129 145
3 78 122 148
3 144 123 87
3 124 149 91
3 124 91 106
3 127 129 106
3 125 78 148
3 149 108 91
3 148 130 125
3 128 126 131
3 90 112 153
3 132 126 88
3 126 132 131
3 133 129 127
3 129 133 130
3 130 133 134
3 130 134 135
3 125 130 135
3 114 110 154
3 108 155 111
3 153 112 140
3 131 132 136
3 131 136 157
3 155 115 111
3 133 138 134
3 134 138 135
3 135 138 139
3 135 139 117
3 160 103 114
3 155 161 115
3 118 140 112
3 142 132 137
3 142 136 132
3 138 133 141
3 163 140 118
3 160 164 103
3 137 119 142
3 101 115 161
3 103 164 167
3 120 103 167
3 101 161 143
3 101 143 121
3 117 139 104
3 167 119 120
3 143 169 121
3 141 121 169
3 170 86 104
3 118 86 170
3 146 144 105
3 146 105 126
3 145 129 150
3 122 172 148
3 123 146 177
3 123 144 146
3 147 146 126
3 172 176 148
3 90 179 122
3 147 126 128
3 150 129 130
3 150 130 152
3 177 110 123
3 130 148 152
3 176 156 148
3 90 153 179
3 153 182 179
3 177 154 110
3 131 151 128
3 151 155 149
3 149 155 108
3 156 152 148
3 131 157 151
3 151 157 155
3 182 153 184
3 184 153 140
3 154 160 114
3 155 157 159
3 155 159 161
3 136 187 157
3 138 166 162
3 138 162 139
3 162 158 139
3 158 186 139
3 163 184 140
3 142 165 136
3 136 165 187
3 141 166 138
3 164 168 167
3 142 168 165
3 141 169 166
3 186 104 139
3 104 186 170
3 171 163 118
3 119 167 168
3 168 142 119
3 118 170 171
3 145 190 124
3 147 173 146
3 173 147 174
3 190 175 124
3 191 190 145
3 150 191 145
3 172 122 192
3 128 174 147
3 174 128 178
3 175 149 124
3 192 122 179
3 146 180 177
3 173 180 146
3 151 178 128
3 175 178 149
3 194 150 152
3 177 180 181
3 194 152 156
3 154 177 181
3 178 151 149
3 183 154 181
3 160 154 183
3 157 187 159
3 164 160 183
3 183 185 164
3 195 162 166
3 162 195 158
3 164 185 168
3 185 188 168
3 159 187 143
3 159 143 161
3 158 197 186
3 188 189 168
3 165 189 187
3 170 186 197
3 189 165 168
3 197 171 170
3 198 169 143
3 175 200 202
3 190 200 175
3 173 174 201
3 174 178 201
3 201 178 202
3 178 175 202
3 191 150 194
3 193 176 172
3 180 173 209
3 193 194 156
3 193 156 176
3 208 179 182
3 208 182 212
3 183 181 180
3 214 182 184
3 185 183 180
3 180 213 185
3 214 184 215
3 185 213 188
3 158 195 196
3 215 184 163
3 158 196 197
3 188 216 189
3 187 189 216
3 187 216 219
3 187 219 143
3 223 163 171
3 198 143 219
3 221 169 198
3 221 198 199
3 166 169 195
3 197 224 171
3 192 204 172
3 203 190 191
3 204 193 172
3 205 201 202
3 202 200 226
3 226 200 206
3 190 207 200
3 207 206 200
3 203 207 190
3 203 191 194
3 204 203 193
3 193 203 194
3 173 201 209
3 201 210 209
3 205 210 201
3 211 206 207
3 180 209 213
3 212 182 214
3 188 213 216
3 216 218 219
3 218 235 219
3 220 217 199
3 219 235 198
3 235 220 198
3 198 220 199
3 222 196 195
3 238 163 223
3 222 169 221
3 195 169 222
3 222 197 196
3 222 224 197
3 171 224 223
3 225 204 192
3 204 227 203
3 225 227 204
3 208 192 179
3 203 228 207
3 203 227 228
3 210 205 229
3 202 229 205
3 202 230 229
3 202 226 230
3 211 207 239
3 207 228 239
3 210 231 209
3 210 229 231
3 229 230 232
3 242 206 211
3 209 231 213
3 229 233 231
3 229 232 233
3 239 234 211
3 230 218 232
3 217 242 211
3 211 234 217
3 232 218 233
3 220 242 217
3 216 213 231
3 216 231 233
3 233 218 216
3 199 217 234
3 234 236 199
3 236 237 222
3 199 236 221
3 236 222 221
3 215 163 238
3 237 224 222
3 225 192 208
3 227 225 246
3 227 246 240
3 226 206 241
3 230 226 241
3 206 242 241
3 227 243 228
3 227 240 243
3 228 243 239
3 218 230 241
3 239 243 234
3 240 244 243
3 235 218 241
3 241 242 235
3 242 220 235
3 243 236 234
3 243 237 236
3 243 244 237
3 244 245 237
3 237 245 224
3 245 249 224
3 249 238 223
3 249 223 224
3 225 208 247
3 246 225 247
3 247 208 212
3 244 240 248
3 238 214 215
3 250 246 247
3 247 212 250
3 248 240 246
3 246 250 248
3 250 251 248
3 250 214 251
3 212 214 250
3 214 238 251
3 245 244 248
3 248 251 245
3 245 251 249
3 251 238 249
