ply
format ascii 1.0
element vertex 250
property float x
property float y
property float z
element face 500
property list uchar int vertex_indices
end_header
-0.651369 -0.141573 0.592339
-0.646628 -0.184754 0.681315
-0.693796 0.031660 0.629544
-0.692272 -0.026684 0.744458
-0.618230 0.147069 0.704955
-0.641160 0.182435 0.624096
-0.534104 -0.253189 0.664380
-0.558145 -0.139969 -0.541446
-0.557256 -0.190747 -0.289785
-0.650700 -0.115440 0.762537
-0.621735 -0.037109 -0.287452
-0.587257 -0.080898 -0.182611
-0.608494 0.004943 -0.587049
-0.640723 -0.003600 0.778227
-0.590545 0.065373 -0.176249
-0.665690 0.068159 0.567145
-0.575291 0.133989 -0.525512
-0.558605 0.180817 -0.265754
-0.537410 0.243107 0.651543
-0.468819 -0.245607 -0.482517
-0.591432 -0.213452 0.592581
-0.472972 -0.258266 0.567403
-0.574537 -0.209845 0.728134
-0.444183 -0.207927 -0.186416
-0.491303 -0.092159 0.433878
-0.511368 -0.192815 0.505549
-0.490703 -0.093392 -0.125368
-0.585723 0.026366 -0.619631
-0.576133 -0.013638 0.496399
-0.482481 0.071826 0.413125
-0.482675 0.083293 -0.131726
-0.587802 0.198477 0.576647
-0.520450 0.174063 0.497079
-0.523768 0.181090 -0.185772
-0.442189 0.193539 0.449487
-0.500736 0.250059 -0.415958
-0.488251 0.247935 0.577862
-0.417628 -0.268666 -0.304995
-0.470307 -0.205398 -0.587577
-0.424420 -0.204550 0.448102
-0.409425 -0.147798 -0.120468
-0.361272 -0.176867 -0.740480
-0.437420 -0.153767 -0.681457
-0.442837 -0.014489 -0.744595
-0.506002 0.011768 -0.668970
-0.438372 0.078212 0.781048
-0.430517 0.121619 -0.733864
-0.512030 0.178562 -0.582895
-0.425101 0.263700 -0.314987
-0.389727 0.248633 -0.205270
-0.439720 0.252105 -0.498686
-0.390839 0.251574 0.647655
-0.314179 -0.254706 -0.404554
-0.379463 -0.263029 0.624301
-0.325038 -0.230385 -0.642520
-0.381277 -0.196887 0.710036
-0.341363 -0.075326 -0.831464
-0.468104 -0.069921 0.781275
-0.371877 -0.009471 0.319594
-0.316833 0.018368 0.753917
-0.348438 -0.049774 -0.089025
-0.366310 0.103566 -0.812228
-0.392037 0.134590 0.361996
-0.428408 0.200337 -0.628026
-0.407603 0.190031 0.727958
-0.321774 0.212952 -0.736612
-0.360935 0.232773 -0.508261
-0.275184 -0.271875 0.433215
-0.362343 -0.237696 -0.535859
-0.250066 -0.203073 -0.575412
-0.153425 -0.193512 0.155185
-0.237541 -0.189238 -0.840998
-0.207410 -0.193033 -0.108428
-0.185140 0.176969 -0.098142
-0.158088 0.191984 0.161208
-0.262545 0.175574 -0.849143
-0.316395 0.220435 -0.601700
-0.256782 0.221268 -0.388257
-0.165369 0.266689 -0.175014
-0.240460 0.256369 0.376362
-0.206424 0.247702 -0.643917
-0.246053 0.279819 -0.262215
-0.293517 0.271044 0.467610
-0.089634 -0.281454 -0.726649
-0.236324 -0.150186 -0.480024
-0.264733 -0.218442 0.637900
-0.232931 -0.107029 -0.901614
-0.196741 -0.086540 -0.453453
-0.210771 -0.114002 0.669673
-0.240463 0.114434 -0.493636
-0.222615 0.050452 -0.918571
-0.171051 0.025941 0.086704
-0.170019 0.117167 -0.433641
-0.234911 0.153571 0.649796
-0.103829 -0.240716 -0.607290
-0.178012 -0.268636 -0.217366
-0.166596 -0.270738 0.436172
-0.124332 -0.214991 -0.392478
-0.003668 -0.266337 0.215153
-0.099087 -0.247711 -0.084188
0.000321 -0.196951 0.351977
-0.145467 -0.167857 -0.913644
-0.172626 -0.058324 -0.023539
-0.112863 -0.066839 -0.954198
-0.155973 -0.066569 -0.530281
-0.175812 0.008267 0.669809
-0.083867 0.063911 -0.962908
-0.184322 0.162557 -0.563495
-0.097043 0.232289 -0.051507
-0.089895 0.187526 -0.910575
0.024175 0.194130 0.345946
-0.022979 0.275940 -0.820295
-0.064293 0.298312 -0.698617
-0.190447 0.265399 0.438149
0.040503 -0.328914 -0.019990
0.026676 -0.280089 -0.414055
-0.039689 -0.211620 -0.496800
-0.125029 0.005767 -0.484802
0.054514 -0.017474 0.406841
-0.085849 0.170253 -0.433419
0.035144 0.091121 0.426746
-0.062767 0.223419 -0.533766
-0.101586 0.266201 -0.307971
0.025663 0.295497 -0.365521
-0.001565 0.270720 0.150567
0.011757 -0.315983 -0.194552
0.000705 -0.223778 -0.872963
0.053151 -0.285800 -0.540447
0.068255 -0.200575 0.252991
0.100029 -0.039933 -0.947937
0.074755 0.169255 -0.906058
-0.002072 0.249736 -0.882656
0.072957 0.209979 0.258502
0.099157 0.287888 -0.544630
0.030706 0.332453 -0.190108
0.054679 0.335598 -0.051969
0.066127 -0.293220 -0.729113
0.129583 -0.329619 -0.028181
0.181247 -0.259979 -0.552603
0.166398 -0.214037 -0.797933
0.224960 -0.182011 0.167414
0.115034 -0.049294 0.299430
0.156024 -0.155425 0.510453
0.133555 -0.145381 0.695246
0.085182 -0.036787 0.527049
0.112559 -0.009491 0.739163
0.107033 0.095114 0.316117
0.124285 0.135770 0.536148
0.146661 0.151801 0.734896
0.171430 0.209145 0.148301
0.035017 0.309353 -0.732126
0.150318 0.225953 -0.777400
0.136264 -0.305510 -0.330576
0.258497 -0.279752 -0.201009
0.139216 -0.175028 -0.900951
0.225156 -0.251115 0.609372
0.200275 -0.105925 -0.893258
0.178175 -0.088473 0.207941
0.199462 -0.105326 0.447308
0.117746 -0.003291 0.449521
0.228068 0.045382 0.220079
0.205617 0.060451 -0.888549
0.165285 0.145163 0.462678
0.240500 0.242894 0.647977
0.220056 0.232992 0.535416
0.232042 0.198136 -0.576577
0.122624 0.330732 -0.267677
0.211381 0.259363 -0.422243
0.233326 0.286225 -0.193800
0.150607 0.324883 -0.044295
0.237799 -0.328411 -0.074598
0.254231 -0.217315 -0.434354
0.259697 -0.250088 0.661040
0.246626 -0.067166 -0.811421
0.269369 -0.141972 -0.576962
0.185839 -0.102674 0.770463
0.294440 0.024506 -0.596817
0.200530 0.043120 0.424290
0.209531 0.074036 0.783330
0.244077 0.102058 -0.789158
0.255698 0.222649 0.135187
0.192920 0.188511 0.745754
0.305126 0.297642 -0.044942
0.362904 -0.301370 -0.000166
0.348878 -0.313020 0.043601
0.290938 -0.274893 0.605668
0.296321 -0.253135 0.128387
0.362205 -0.215880 0.501120
0.308820 -0.124654 -0.445504
0.360688 -0.139916 -0.236987
0.314849 -0.020152 -0.507512
0.417740 -0.029490 0.356715
0.357334 -0.015513 0.433847
0.460448 0.189743 0.406935
0.297226 0.131500 -0.430969
0.359872 0.143480 -0.196902
0.357737 0.197143 0.480294
0.323733 0.307695 0.037790
0.322800 0.272386 0.568348
0.451779 -0.194211 0.377709
0.409719 -0.009166 -0.206707
0.367887 -0.011355 -0.288049
0.426537 -0.078628 0.409447
0.465085 -0.098297 0.772169
0.432553 0.086139 0.416906
0.499050 0.080955 0.761035
0.440759 0.203004 0.722234
0.524543 -0.269873 0.612105
0.572951 -0.301477 0.317608
0.498486 -0.139655 -0.086595
0.466815 -0.190034 0.729995
0.432138 0.162775 -0.114978
0.445362 0.291370 0.029445
0.563786 0.291498 0.333538
0.506916 0.274837 0.580774
0.571362 0.310219 0.194572
0.583137 -0.290463 0.151016
0.580713 -0.299626 0.493214
0.604856 -0.114398 0.727976
0.510873 0.027275 -0.123680
0.606553 0.194607 0.687624
0.602277 0.303601 0.497624
0.671526 0.276826 0.205601
0.658813 -0.306700 0.351070
0.666130 -0.199057 0.041957
0.728526 -0.198442 0.631267
0.677075 -0.022655 -0.027965
0.648731 0.188250 0.019733
0.645832 -0.302370 0.529081
0.684692 -0.253629 0.137242
0.743258 -0.269620 0.448904
0.727577 -0.146125 0.054357
0.755314 -0.226171 0.228320
0.747954 -0.090660 0.694516
0.756728 0.089664 0.676917
0.727146 0.151884 0.061975
0.767858 0.219161 0.218203
0.735184 0.209186 0.643571
0.659565 0.289670 0.516410
0.797597 0.172213 0.572712
0.794553 0.205700 0.336482
0.816245 -0.189585 0.336769
0.813822 -0.177389 0.527730
0.772455 -0.013629 0.045823
0.820135 -0.086881 0.196934
0.830020 -0.028098 0.591625
0.738978 -0.014120 -0.002890
0.817552 0.080241 0.192887
0.869419 -0.076343 0.379651
0.867082 0.039411 0.356898
3 1 0 2
3 1 2 3
3 9 3 13
3 1 3 9
3 15 2 0
3 3 2 4
3 3 4 13
3 2 5 4
3 5 2 15
3 1 6 20
3 6 1 22
3 1 20 0
3 9 22 1
3 7 10 8
3 8 10 11
3 12 7 27
3 7 12 10
3 20 28 0
3 11 10 14
3 28 15 0
3 16 12 27
3 12 16 10
3 10 16 17
3 10 17 14
3 28 31 15
3 31 5 15
3 18 5 31
3 5 18 4
3 7 8 19
3 37 8 23
3 21 20 6
3 7 19 38
3 21 25 20
3 11 23 8
3 11 26 23
3 38 44 7
3 44 27 7
3 25 24 28
3 20 25 28
3 24 29 28
3 30 26 11
3 14 30 11
3 44 47 27
3 47 16 27
3 28 29 32
3 28 32 31
3 45 13 4
3 14 17 33
3 14 33 30
3 29 34 32
3 17 16 35
3 31 32 36
3 35 16 47
3 48 17 35
3 17 48 33
3 36 18 31
3 37 19 8
3 6 53 21
3 6 55 53
3 6 22 55
3 24 25 39
3 21 39 25
3 55 22 57
3 57 22 9
3 40 23 26
3 41 43 42
3 38 42 44
3 40 26 60
3 57 9 13
3 42 43 44
3 60 26 30
3 58 29 24
3 57 13 45
3 58 62 29
3 43 46 44
3 46 63 44
3 44 63 47
3 29 62 34
3 49 30 33
3 32 34 36
3 64 45 4
3 47 63 50
3 47 50 35
3 48 49 33
3 51 18 36
3 51 64 18
3 64 4 18
3 50 48 35
3 19 37 52
3 39 21 67
3 21 53 67
3 38 68 54
3 38 19 68
3 68 19 52
3 54 41 42
3 42 38 54
3 72 40 60
3 39 58 24
3 55 57 59
3 41 56 43
3 56 61 43
3 59 57 45
3 43 61 46
3 59 45 64
3 65 46 61
3 63 46 65
3 73 30 78
3 78 30 49
3 34 62 79
3 65 76 63
3 63 66 50
3 63 76 66
3 66 48 50
3 49 48 81
3 34 82 36
3 82 51 36
3 41 83 71
3 54 83 41
3 68 69 54
3 67 70 39
3 53 55 85
3 84 69 68
3 84 68 52
3 72 23 40
3 71 86 56
3 71 56 41
3 39 70 58
3 85 55 88
3 88 55 59
3 86 90 56
3 90 61 56
3 90 75 61
3 89 77 66
3 60 30 73
3 58 74 62
3 61 75 65
3 59 64 93
3 76 89 66
3 79 62 74
3 93 64 51
3 80 76 65
3 79 82 34
3 77 48 66
3 77 81 48
3 54 94 83
3 52 95 97
3 37 95 52
3 23 95 37
3 53 96 67
3 94 54 69
3 52 97 84
3 23 72 95
3 53 85 96
3 87 84 97
3 104 69 84
3 72 60 102
3 58 70 91
3 105 88 59
3 89 104 84
3 84 87 89
3 87 92 89
3 107 104 89
3 102 60 73
3 105 59 93
3 89 92 77
3 58 91 74
3 107 89 76
3 107 76 80
3 93 51 113
3 65 112 80
3 78 49 81
3 113 51 82
3 67 96 98
3 95 72 99
3 98 70 67
3 96 85 100
3 101 86 71
3 69 104 94
3 72 102 99
3 99 102 70
3 101 103 86
3 97 117 87
3 70 102 91
3 86 103 90
3 106 90 103
3 117 92 87
3 117 119 92
3 117 104 107
3 73 108 102
3 102 108 91
3 91 108 74
3 93 120 105
3 90 106 109
3 90 109 75
3 119 122 92
3 122 77 92
3 75 109 111
3 75 111 65
3 81 77 122
3 78 108 73
3 93 113 110
3 111 112 65
3 81 122 78
3 79 113 82
3 71 83 126
3 125 97 95
3 125 115 97
3 95 99 125
3 99 114 125
3 114 70 98
3 126 101 71
3 114 99 70
3 100 98 96
3 94 104 116
3 116 97 115
3 88 100 85
3 126 103 101
3 117 116 104
3 97 116 117
3 88 105 118
3 129 106 103
3 105 120 118
3 130 109 106
3 107 121 117
3 117 121 119
3 120 93 110
3 109 130 131
3 123 119 121
3 119 123 122
3 109 131 111
3 121 107 80
3 74 108 124
3 124 110 113
3 121 80 112
3 78 134 108
3 134 135 108
3 135 124 108
3 74 124 79
3 113 79 124
3 122 134 78
3 136 83 127
3 83 136 126
3 83 94 127
3 94 116 127
3 116 115 127
3 100 128 98
3 100 88 118
3 129 130 106
3 123 121 133
3 124 132 110
3 112 133 121
3 150 112 111
3 112 150 133
3 123 134 122
3 152 125 137
3 136 127 138
3 115 152 127
3 115 125 152
3 137 125 114
3 98 137 114
3 136 139 126
3 98 140 137
3 126 139 154
3 140 98 128
3 141 128 100
3 154 129 126
3 129 103 126
3 118 141 100
3 159 144 142
3 142 144 143
3 143 144 145
3 141 118 146
3 118 120 146
3 144 159 147
3 144 147 145
3 145 147 148
3 146 120 110
3 146 110 132
3 130 111 131
3 149 124 169
3 149 132 124
3 151 150 111
3 133 150 151
3 133 166 123
3 134 123 166
3 169 124 135
3 166 169 134
3 134 169 135
3 152 137 170
3 153 152 170
3 138 139 136
3 127 152 138
3 154 139 156
3 172 155 143
3 172 143 175
3 157 140 128
3 128 141 157
3 143 155 142
3 156 129 154
3 142 158 159
3 175 143 145
3 156 161 129
3 177 159 158
3 160 157 141
3 175 145 178
3 130 129 161
3 160 141 146
3 178 145 148
3 160 146 149
3 162 159 177
3 159 162 147
3 146 132 149
3 148 147 163
3 181 178 148
3 130 161 151
3 164 147 162
3 147 164 163
3 181 148 163
3 151 111 130
3 151 165 133
3 165 167 133
3 167 166 133
3 167 168 166
3 166 168 169
3 168 182 169
3 152 171 138
3 153 171 152
3 184 170 137
3 137 186 184
3 185 155 172
3 186 137 140
3 155 185 187
3 155 187 142
3 139 173 156
3 139 174 173
3 139 138 174
3 188 174 171
3 171 174 138
3 187 158 142
3 157 160 140
3 187 192 158
3 156 173 161
3 174 176 173
3 192 177 158
3 173 179 161
3 173 176 179
3 176 165 179
3 192 196 177
3 180 160 149
3 162 177 196
3 179 151 161
3 179 165 151
3 194 167 165
3 196 164 162
3 169 197 180
3 149 169 180
3 198 164 196
3 198 163 164
3 197 169 182
3 170 184 183
3 189 171 153
3 153 183 189
3 153 170 183
3 171 189 188
3 186 140 199
3 190 174 188
3 176 174 190
3 160 191 140
3 203 175 178
3 193 191 160
3 203 178 205
3 194 176 190
3 165 176 194
3 201 194 190
3 201 195 194
3 180 193 160
3 205 178 206
3 206 178 181
3 194 168 167
3 194 195 168
3 195 182 168
3 206 181 163
3 185 207 187
3 185 172 207
3 207 172 210
3 209 189 183
3 175 210 172
3 200 189 209
3 199 140 191
3 210 175 203
3 202 192 187
3 190 188 201
3 188 189 201
3 189 200 201
3 202 191 204
3 202 204 192
3 201 200 195
3 204 191 193
3 200 211 195
3 204 196 192
3 182 195 211
3 214 206 163
3 197 182 212
3 198 214 163
3 197 212 215
3 183 184 216
3 184 186 208
3 183 216 209
3 187 217 199
3 207 217 187
3 199 208 186
3 187 199 202
3 199 191 202
3 209 219 200
3 219 211 200
3 204 193 196
3 182 211 212
3 180 213 193
3 180 197 213
3 193 214 196
3 198 196 214
3 220 206 214
3 213 197 215
3 208 216 184
3 209 216 224
3 199 217 208
3 207 218 225
3 207 210 218
3 210 203 218
3 218 205 220
3 203 205 218
3 211 219 227
3 205 206 220
3 212 211 227
3 221 193 213
3 214 193 221
3 212 227 222
3 222 215 212
3 223 217 228
3 216 229 224
3 216 208 223
3 229 216 223
3 217 223 208
3 228 217 207
3 228 207 225
3 224 226 209
3 219 209 226
3 233 218 234
3 234 218 220
3 227 219 226
3 237 220 238
3 238 220 214
3 213 215 222
3 221 238 214
3 213 238 221
3 222 238 213
3 228 230 223
3 230 228 225
3 229 232 231
3 223 232 229
3 223 230 232
3 229 231 224
3 231 226 224
3 225 218 233
3 231 246 226
3 246 235 226
3 235 227 226
3 237 234 220
3 235 222 227
3 235 236 222
3 236 240 222
3 239 237 238
3 238 222 240
3 230 241 232
3 241 230 242
3 242 230 225
3 231 244 243
3 231 232 244
3 225 233 245
3 246 231 243
3 244 247 243
3 233 234 245
3 235 246 243
3 243 247 235
3 237 239 234
3 247 236 235
3 247 240 236
3 238 240 239
3 232 241 244
3 241 248 244
3 241 242 248
3 242 245 248
3 225 245 242
3 247 244 249
3 244 248 249
3 248 245 249
3 245 234 239
3 249 240 247
3 249 239 240
3 249 245 239
