ply
format ascii 1.0
element vertex 252
property float x
property float y
property float z
element face 500
property list uchar int vertex_indices
end_header
-0.439340 -0.067692 0.426309
-0.434995 -0.047517 0.481238
-0.446733 -0.002711 0.433832
-0.419123 0.053712 0.488030
-0.435375 0.064713 0.426245
-0.407562 -0.124539 0.441144
-0.364783 -0.131551 0.346039
-0.381265 -0.095950 0.512909
-0.382250 -0.035577 0.336297
-0.407000 0.032224 0.362620
-0.361857 0.126981 0.340924
-0.401290 0.129302 0.431388
-0.360174 0.146351 0.491066
-0.249932 -0.246533 0.362109
-0.330395 -0.201673 0.418857
-0.330831 -0.186215 0.350051
-0.355491 -0.153639 0.491269
-0.287203 -0.186251 0.503719
-0.355435 0.000676 0.546962
-0.287896 0.114250 0.558191
-0.191657 0.147599 0.175415
-0.328986 0.185170 0.345654
-0.331119 0.199488 0.421253
-0.287958 0.184256 0.507531
-0.275299 0.234276 0.360868
-0.263842 -0.234572 0.433600
-0.158826 -0.207732 0.186963
-0.289651 -0.144254 0.541225
-0.190800 -0.172404 0.561438
-0.197417 -0.116421 0.166955
-0.273225 -0.061168 0.576201
-0.204006 0.048536 0.145337
-0.255106 0.031696 0.590061
-0.195532 0.120336 0.600272
-0.199390 0.182303 0.559759
-0.136077 0.225504 0.178222
-0.219425 0.250581 0.438705
-0.105292 -0.312175 0.357363
-0.154217 -0.280453 0.429621
-0.072671 -0.288441 0.224242
-0.070638 -0.255569 0.544981
-0.096960 -0.192384 0.064874
-0.148046 -0.157782 0.119087
-0.185179 -0.177136 0.190299
-0.123886 -0.122736 0.039354
-0.190181 -0.050137 0.614341
-0.163920 -0.083839 0.096861
-0.152768 -0.040597 0.057081
-0.183376 0.005767 0.112555
-0.143183 0.030413 0.045081
-0.188701 0.051743 0.619499
-0.171547 0.068582 0.107875
-0.131114 0.120753 0.053495
-0.146367 0.162151 0.116397
-0.096643 0.183835 0.043760
-0.118192 0.300693 0.338277
-0.121522 0.251350 0.520334
-0.033816 -0.258901 0.089804
-0.054824 -0.209301 0.011070
-0.111129 -0.185885 0.605588
-0.050117 -0.221150 0.609477
-0.028899 -0.181230 -0.965335
-0.064628 -0.142262 -0.962781
-0.071316 -0.175889 -0.028383
-0.042720 -0.182305 0.647542
-0.102437 -0.066016 -0.042108
-0.143353 -0.124193 0.619410
-0.034508 -0.122927 0.668882
-0.032010 -0.106674 -1.034432
-0.079467 -0.105044 -0.965094
-0.088587 -0.044018 -0.995723
-0.090760 -0.046717 -0.095737
-0.119728 -0.055704 0.655008
-0.073703 -0.000359 -1.050552
-0.093739 -0.000274 -0.054741
-0.093004 0.020492 -0.970937
-0.122574 0.027753 0.658798
-0.071340 0.079855 -1.059144
-0.075347 0.108844 -0.964414
-0.084933 0.062892 -0.122287
-0.094682 0.111455 -0.029343
-0.129424 0.116590 0.637299
-0.029480 0.120386 0.680340
-0.035353 0.186484 -0.968347
-0.033834 0.201773 -0.882069
-0.052921 0.201647 -0.039239
-0.112499 0.194614 0.593982
-0.044606 0.177335 0.651616
-0.047841 0.235071 0.040779
-0.041533 0.269563 0.121802
-0.036925 0.309124 0.236974
-0.059546 0.313192 0.439389
-0.018399 -0.340270 0.331003
0.003290 -0.334018 0.422078
0.037769 -0.309875 0.128467
0.054156 -0.315502 0.500322
0.014427 -0.245304 -0.891625
0.053712 -0.267991 -0.080433
0.029703 -0.275038 0.027035
0.032365 -0.266396 0.575386
-0.037732 -0.212397 -0.037887
-0.027611 -0.012747 -1.071655
-0.043108 -0.025931 0.690213
-0.011884 0.039536 0.698935
-0.050912 0.076444 -1.072053
-0.037655 0.120951 -1.047539
0.030975 0.251895 -0.884860
0.038590 0.267755 -0.053128
-0.060828 0.267915 0.534023
0.020613 0.273659 0.558394
0.035390 0.313419 0.152604
0.025507 0.348926 0.353966
0.052194 0.345157 0.267867
0.039994 -0.342106 0.265649
0.049253 -0.352001 0.353370
0.039495 -0.258009 -0.894577
0.050277 -0.231476 -0.962622
0.042681 -0.202251 0.646790
0.012762 -0.165558 -1.032622
0.200144 -0.059934 -1.075203
0.176404 0.131390 -1.041362
0.042416 0.207446 0.649055
0.045043 0.243046 -0.952607
0.038210 0.282567 0.027959
0.105109 0.331955 0.192168
0.049136 0.342437 0.436730
0.129072 -0.320992 0.161793
0.115509 -0.339225 0.317650
0.097330 -0.335011 0.437088
0.103548 -0.305651 0.050455
0.126878 -0.309039 0.504070
0.099836 -0.258139 -0.873270
0.140304 -0.260115 -0.096916
0.111462 -0.286025 -0.017536
0.170785 -0.289656 0.041168
0.222625 -0.276608 0.140603
0.189863 -0.269593 0.570685
0.140716 -0.231208 -0.958043
0.192660 -0.255049 -0.038458
0.208764 -0.174126 -0.973722
0.165057 -0.134011 -1.049542
0.117860 0.169728 -1.034634
0.114459 0.220848 -0.984615
0.185836 0.212564 -0.959664
0.311870 0.187158 0.650965
0.114308 0.256486 -0.912374
0.128691 0.263934 -0.146410
0.185512 0.239358 -0.094973
0.108277 0.284796 -0.030020
0.191847 0.273834 0.564788
0.119181 0.303242 0.057947
0.188105 0.273697 0.018084
0.200346 0.293259 0.155109
0.127303 0.314005 0.490511
0.108284 0.343080 0.296830
0.108602 0.339236 0.400712
0.238934 -0.275892 0.283812
0.182469 -0.306356 0.427243
0.206375 -0.289324 0.493245
0.179947 -0.226406 -0.907554
0.188563 -0.216257 -0.210270
0.205845 -0.215157 -0.116481
0.259473 -0.229113 0.039594
0.308603 -0.221030 0.192769
0.268704 -0.254416 0.432011
0.252632 -0.205070 -0.048892
0.275236 -0.213473 0.649067
0.220555 -0.185407 -0.881407
0.223944 -0.168332 -0.188088
0.259482 -0.144562 -0.113750
0.339651 -0.140502 0.693241
0.226327 -0.080647 -1.057481
0.252173 -0.075613 -0.967907
0.254743 -0.088741 -0.194891
0.275559 -0.065080 -0.136413
0.354112 -0.076795 0.708881
0.243026 -0.007325 -1.054578
0.263620 0.010337 -0.970199
0.267112 -0.020609 -0.184025
0.340500 -0.008507 0.718666
0.203078 0.045954 -1.073278
0.267040 0.038727 -0.198162
0.237441 0.064386 -1.048346
0.258120 0.074499 -0.958564
0.247239 0.117893 -0.199001
0.285466 0.076759 -0.125339
0.358376 0.096703 0.699760
0.228615 0.149398 -0.982532
0.232422 0.167351 -0.882085
0.246083 0.160912 -0.123683
0.201673 0.202190 -0.180808
0.200718 0.213938 -0.889785
0.257557 0.202844 -0.025410
0.267958 0.237311 0.090118
0.309514 0.224459 0.188819
0.253563 0.267182 0.305045
0.214530 0.286799 0.443861
0.199443 0.290274 0.507794
0.267437 -0.262663 0.524945
0.281630 -0.246934 0.591609
0.288437 -0.222666 0.124205
0.334652 -0.206269 0.257149
0.332966 -0.194525 0.342574
0.292330 -0.167627 -0.020995
0.320053 -0.180387 0.108258
0.355390 -0.164527 0.417627
0.318564 -0.083223 -0.040178
0.363335 -0.100682 0.109720
0.296422 0.002995 -0.117066
0.363858 0.042850 0.716724
0.324336 0.099626 -0.036156
0.373766 0.079904 0.111703
0.322052 0.180619 0.105819
0.375154 0.136594 0.413314
0.336763 0.192425 0.338964
0.309563 0.222583 0.419283
0.333276 0.209454 0.255608
0.269973 0.262496 0.513069
0.290534 0.250375 0.583596
0.351067 0.210871 0.579027
0.333005 -0.215712 0.490201
0.348199 -0.215857 0.560679
0.356651 -0.169962 0.197727
0.365011 -0.179215 0.650246
0.394208 -0.119935 0.275560
0.407765 -0.135487 0.510732
0.405296 -0.164582 0.607550
0.382355 -0.118838 0.360862
0.424654 -0.107538 0.655610
0.406380 -0.074397 0.200069
0.408574 -0.060496 0.421248
0.419877 -0.041649 0.321136
0.344044 -0.020254 -0.020712
0.383552 -0.010248 0.105417
0.416646 0.012479 0.198670
0.338663 0.055057 -0.036496
0.412873 0.046019 0.334901
0.406436 0.055948 0.419006
0.399321 0.089513 0.197724
0.384653 0.117329 0.352496
0.354770 0.172524 0.195034
0.395110 0.111287 0.274157
0.397680 0.146639 0.512058
0.415635 0.107485 0.650227
0.339092 0.220087 0.505911
0.428323 -0.017571 0.265600
0.433195 -0.086164 0.516452
0.451682 -0.061270 0.647575
0.435129 -0.011933 0.505651
0.451897 0.022848 0.662765
0.427766 0.011509 0.695919
0.426120 0.079496 0.512724
3 5 0 1
3 0 2 1
3 1 2 3
3 2 4 3
3 3 4 11
3 15 5 14
3 14 5 16
3 6 5 15
3 16 5 7
3 6 8 0
3 5 6 0
3 7 5 1
3 0 8 2
3 7 1 18
3 8 9 2
3 18 1 3
3 2 9 4
3 18 3 19
3 9 10 4
3 3 11 12
3 12 19 3
3 11 4 10
3 21 11 10
3 21 22 11
3 11 22 12
3 13 14 25
3 15 14 13
3 14 16 17
3 14 17 25
3 16 27 17
3 16 7 27
3 27 7 30
3 30 7 18
3 9 8 31
3 30 18 32
3 32 18 19
3 10 9 31
3 20 21 10
3 23 19 12
3 22 21 24
3 22 36 23
3 22 23 12
3 24 36 22
3 13 25 38
3 38 25 28
3 15 26 43
3 13 26 15
3 17 27 28
3 25 17 28
3 43 6 15
3 43 29 6
3 8 29 48
3 6 29 8
3 30 28 27
3 28 30 45
3 31 8 48
3 45 32 50
3 30 32 45
3 31 20 10
3 19 33 32
3 32 33 50
3 34 33 19
3 23 34 19
3 35 21 20
3 21 35 24
3 23 36 34
3 37 39 13
3 38 37 13
3 38 28 40
3 39 26 13
3 28 59 40
3 41 42 26
3 42 43 26
3 41 44 42
3 29 43 42
3 59 28 66
3 66 28 45
3 42 44 46
3 42 46 29
3 47 44 65
3 44 47 46
3 29 46 48
3 66 45 72
3 46 47 48
3 49 47 65
3 47 49 48
3 72 45 76
3 76 45 50
3 48 49 51
3 48 51 31
3 49 52 51
3 31 51 20
3 76 50 81
3 81 50 33
3 51 52 53
3 51 53 20
3 52 54 53
3 81 33 86
3 86 33 34
3 54 35 53
3 35 20 53
3 34 56 86
3 35 55 24
3 36 24 55
3 36 91 56
3 36 56 34
3 55 91 36
3 37 92 39
3 92 37 93
3 37 38 93
3 38 40 93
3 58 57 98
3 58 41 57
3 41 26 39
3 41 39 57
3 60 40 59
3 62 63 61
3 58 63 41
3 58 100 63
3 60 59 64
3 62 61 68
3 63 62 65
3 41 63 44
3 67 64 59
3 66 67 59
3 68 69 62
3 62 69 65
3 63 65 44
3 69 68 70
3 69 70 71
3 69 71 65
3 67 72 102
3 66 72 67
3 73 68 101
3 68 73 70
3 65 71 74
3 70 73 75
3 70 75 71
3 71 75 74
3 65 74 49
3 102 76 103
3 72 76 102
3 104 73 101
3 77 73 104
3 73 77 75
3 75 77 78
3 75 78 79
3 75 79 74
3 74 79 80
3 74 80 49
3 79 78 80
3 49 80 52
3 81 82 76
3 76 82 103
3 104 105 77
3 105 78 77
3 83 78 105
3 78 83 84
3 78 84 85
3 78 85 80
3 52 80 54
3 87 82 81
3 86 87 81
3 85 88 54
3 85 54 80
3 35 54 88
3 89 35 88
3 86 56 108
3 89 90 35
3 90 55 35
3 56 91 108
3 90 111 55
3 111 91 55
3 113 92 114
3 92 93 114
3 94 39 113
3 113 39 92
3 93 40 95
3 116 96 115
3 115 96 97
3 94 98 57
3 39 94 57
3 95 40 99
3 116 61 96
3 96 100 97
3 58 98 100
3 100 98 97
3 99 40 60
3 60 117 99
3 116 118 61
3 100 96 61
3 63 100 61
3 117 60 64
3 118 68 61
3 117 64 67
3 119 101 68
3 120 105 104
3 121 82 87
3 83 105 122
3 106 83 122
3 106 84 83
3 84 106 107
3 84 107 85
3 88 85 107
3 86 108 109
3 109 87 86
3 109 121 87
3 107 123 88
3 123 110 89
3 123 89 88
3 90 89 110
3 110 112 90
3 111 90 112
3 91 125 109
3 91 109 108
3 111 125 91
3 113 127 126
3 113 114 127
3 127 114 128
3 114 93 128
3 133 98 129
3 98 94 129
3 94 126 129
3 113 126 94
3 128 93 95
3 130 128 95
3 116 131 137
3 115 131 116
3 115 97 131
3 131 97 132
3 132 97 133
3 98 133 97
3 130 95 99
3 136 130 99
3 136 99 117
3 137 140 116
3 140 118 116
3 140 68 118
3 140 119 68
3 105 120 141
3 141 142 105
3 142 122 105
3 122 142 145
3 106 122 145
3 144 121 149
3 149 121 109
3 145 146 106
3 106 146 107
3 146 148 107
3 148 123 107
3 109 153 149
3 148 150 123
3 123 150 110
3 150 124 110
3 125 155 153
3 109 125 153
3 124 112 110
3 124 154 112
3 112 154 111
3 154 155 111
3 111 155 125
3 129 134 133
3 126 134 129
3 135 134 126
3 126 127 156
3 135 126 156
3 156 127 157
3 127 128 157
3 128 130 157
3 157 130 158
3 138 132 133
3 133 134 138
3 158 130 136
3 137 159 139
3 137 131 159
3 159 131 160
3 131 132 160
3 160 132 161
3 161 132 138
3 139 140 137
3 170 117 67
3 175 67 102
3 175 102 179
3 119 180 101
3 179 102 103
3 180 104 101
3 180 120 104
3 186 103 82
3 144 82 121
3 143 142 120
3 142 141 120
3 143 145 142
3 143 191 145
3 145 191 146
3 191 190 146
3 146 190 147
3 148 146 147
3 147 151 148
3 153 197 149
3 151 150 148
3 152 150 151
3 152 124 150
3 152 195 154
3 124 152 154
3 195 196 155
3 154 195 155
3 155 196 153
3 153 196 197
3 134 162 138
3 135 162 134
3 156 163 135
3 164 156 157
3 198 164 158
3 158 164 157
3 158 136 198
3 198 136 199
3 165 161 138
3 138 162 165
3 162 135 200
3 200 135 163
3 199 136 166
3 166 136 117
3 159 167 139
3 159 160 167
3 160 168 167
3 160 161 168
3 161 169 168
3 165 169 161
3 166 117 170
3 140 139 171
3 139 172 171
3 139 167 172
3 167 168 172
3 168 173 172
3 168 169 173
3 169 174 173
3 175 170 67
3 119 140 171
3 176 119 171
3 171 172 176
3 172 177 176
3 172 173 177
3 173 178 177
3 173 174 178
3 180 119 176
3 178 181 177
3 209 179 103
3 182 180 176
3 176 177 182
3 177 183 182
3 177 181 183
3 120 180 182
3 181 184 183
3 181 185 184
3 209 103 186
3 120 182 187
3 182 183 187
3 183 188 187
3 183 184 188
3 185 189 184
3 184 190 188
3 184 189 190
3 186 82 144
3 187 143 120
3 143 187 191
3 187 188 191
3 188 190 191
3 189 147 190
3 189 192 147
3 192 151 147
3 192 193 151
3 218 144 149
3 152 151 193
3 193 194 152
3 194 195 152
3 217 197 196
3 197 217 149
3 149 217 218
3 156 201 163
3 164 202 156
3 202 201 156
3 164 198 220
3 198 199 221
3 220 198 221
3 199 223 221
3 199 166 223
3 165 203 169
3 165 162 203
3 162 204 203
3 162 200 204
3 222 204 163
3 163 204 200
3 222 163 201
3 164 205 202
3 164 220 205
3 222 207 204
3 223 166 170
3 206 169 203
3 174 169 206
3 203 204 206
3 204 207 206
3 178 174 208
3 206 232 208
3 174 206 208
3 181 178 208
3 232 235 208
3 185 181 208
3 208 235 185
3 185 235 210
3 235 211 210
3 189 185 210
3 210 211 212
3 211 240 212
3 192 189 210
3 210 212 192
3 214 213 215
3 192 212 193
3 240 194 212
3 212 194 193
3 194 240 216
3 194 216 195
3 195 216 214
3 215 195 214
3 196 195 215
3 215 217 196
3 215 244 217
3 217 244 219
3 219 144 218
3 218 217 219
3 224 222 201
3 201 202 224
3 205 220 225
3 220 221 225
3 221 226 225
3 223 226 221
3 202 227 224
3 202 205 227
3 223 228 226
3 223 170 228
3 229 207 222
3 224 229 222
3 205 230 227
3 230 225 246
3 205 225 230
3 225 226 228
3 170 175 228
3 231 224 227
3 227 230 231
3 206 207 232
3 207 233 232
3 207 229 233
3 229 234 233
3 246 248 230
3 228 175 250
3 250 175 179
3 232 233 235
3 231 230 236
3 230 237 236
3 230 248 237
3 250 179 209
3 233 211 235
3 233 234 211
3 234 238 211
3 248 251 237
3 236 237 239
3 237 213 239
3 237 251 213
3 250 209 186
3 240 211 238
3 238 241 240
3 241 236 239
3 213 251 242
3 243 250 186
3 214 241 239
3 239 213 214
3 215 213 242
3 242 243 219
3 186 144 243
3 216 240 241
3 241 214 216
3 244 215 242
3 242 219 244
3 144 219 243
3 224 245 229
3 228 246 225
3 247 246 228
3 234 229 245
3 224 231 245
3 246 247 248
3 247 249 248
3 247 250 249
3 228 250 247
3 241 234 245
3 238 234 241
3 245 236 241
3 231 236 245
3 248 249 251
3 249 243 251
3 249 250 243
3 243 242 251
