ply
format ascii 1.0
element vertex 252
property float x
property float y
property float z
element face 500
property list uchar int vertex_indices
end_header
-0.407626 -0.132199 -0.895231
-0.405572 -0.122765 -0.439225
-0.426422 -0.049095 -0.023497
-0.422009 -0.102291 0.265914
-0.449705 -0.045075 -0.875002
-0.429544 -0.020349 -0.424285
-0.447565 -0.021325 0.278628
-0.452395 0.037930 -0.879616
-0.434258 0.069109 -0.438585
-0.431861 0.026150 -0.045428
-0.446609 0.030328 0.236291
-0.402774 0.121565 -0.009213
-0.412698 0.117459 0.281913
-0.365715 -0.200096 -0.902393
-0.341445 -0.235298 -0.812951
-0.385874 -0.199160 -0.512079
-0.370545 -0.188281 -0.423838
-0.328067 -0.241797 0.044870
-0.347058 -0.238025 0.203408
-0.346068 -0.221936 0.277301
-0.332338 -0.208325 -0.061145
-0.384253 -0.176887 0.259906
-0.343638 -0.154372 -0.336667
-0.396380 -0.137934 -0.011068
-0.367883 -0.105318 0.422597
-0.390190 -0.058156 -0.344173
-0.373972 -0.100845 -0.114971
-0.358239 -0.067459 -0.970795
-0.348758 -0.092500 -0.259027
-0.361647 -0.015813 -0.200300
-0.392946 0.016593 -0.123698
-0.346855 -0.034766 0.565957
-0.431932 -0.005966 -0.949722
-0.365492 0.006684 -0.276742
-0.433120 -0.005349 0.324412
-0.388371 0.032933 0.438565
-0.384793 0.026278 -0.982887
-0.397464 0.055766 -0.344667
-0.339312 0.038251 0.579023
-0.417777 0.105409 -0.906017
-0.342379 0.112609 -0.259006
-0.347455 0.148495 -0.131464
-0.405071 0.139557 -0.434761
-0.358189 0.156553 -0.346756
-0.355112 0.132398 0.443003
-0.374853 0.198819 -0.886753
-0.391063 0.207831 -0.817314
-0.381188 0.201549 0.184559
-0.345781 0.240326 -0.516559
-0.346106 0.218194 -0.420739
-0.329560 0.242011 0.042129
-0.361012 0.201914 0.285720
-0.256720 -0.300435 -0.747565
-0.258825 -0.294913 -0.508203
-0.270554 -0.291377 0.187459
-0.351101 -0.232151 -0.486895
-0.291950 -0.237509 -0.365048
-0.281867 -0.254060 -0.070265
-0.259724 -0.240236 -0.256995
-0.306243 -0.207259 -0.130042
-0.295282 -0.239045 0.349402
-0.331549 -0.186222 0.389280
-0.268140 -0.218075 0.487902
-0.333374 -0.164939 -0.936402
-0.316462 -0.162074 -0.278096
-0.330843 -0.156377 0.452628
-0.304613 -0.129541 0.570218
-0.197403 -0.050782 0.748879
-0.327861 0.084665 -0.976155
-0.297132 0.126605 0.591953
-0.353014 0.160315 -0.934518
-0.265443 0.230134 -0.264704
-0.284335 0.233241 -0.119052
-0.341015 0.201850 -0.049067
-0.281392 0.233266 0.414058
-0.277508 0.212077 0.510535
-0.259376 0.204168 0.574101
-0.339177 0.242927 -0.818015
-0.292871 0.227576 -0.348295
-0.304386 0.266924 0.199865
-0.290004 0.253480 0.321984
-0.250852 0.298263 -0.475321
-0.267346 0.271333 -0.040026
-0.242603 0.302582 -0.764786
-0.203087 0.336026 -0.672023
-0.252588 0.306984 0.109359
-0.207269 -0.325079 -0.739406
-0.181445 -0.346980 -0.677414
-0.253841 -0.297449 0.036158
-0.143145 -0.367561 0.100282
-0.119282 -0.373747 0.218479
-0.241867 -0.285502 -0.804995
-0.180203 -0.313710 -0.308845
-0.172659 -0.326672 -0.085226
-0.200278 -0.305972 0.354972
-0.275715 -0.228876 -0.889367
-0.243001 -0.204065 0.598358
-0.139175 -0.183850 0.732791
0.167716 0.003240 -0.982846
0.217917 0.089753 -0.953712
-0.279280 0.222311 -0.889878
-0.193313 0.291814 -0.800726
-0.245577 0.302818 0.033828
-0.181320 0.315293 -0.368239
-0.179369 0.307535 -0.207101
-0.178760 0.321626 0.328004
-0.198459 0.324905 -0.740233
-0.105859 0.385394 -0.601502
-0.157634 0.354261 0.201073
-0.120035 -0.373919 -0.658998
-0.113877 -0.381585 -0.585622
-0.141573 -0.353829 -0.422501
-0.134665 -0.313257 0.499662
-0.167367 -0.264800 0.586210
-0.161631 -0.231587 0.664349
0.190718 -0.071417 -0.967945
-0.197048 0.032034 0.755399
-0.173779 0.097249 0.755803
0.092411 0.178093 -0.938639
-0.130713 0.189942 0.719770
0.125182 0.233322 -0.888332
-0.155626 0.272135 0.582098
-0.154090 0.306916 0.484835
-0.027792 0.378912 0.443868
-0.119924 0.375105 -0.658713
-0.050128 0.394063 -0.501779
-0.038621 0.410413 0.126542
-0.045771 -0.409764 0.109153
-0.116217 -0.348181 -0.719444
-0.040449 -0.386954 -0.346996
-0.051362 -0.392893 -0.081051
-0.039812 -0.370000 0.450581
0.106660 -0.167045 -0.945164
-0.109980 -0.144725 0.775995
-0.107411 -0.056937 0.798688
-0.124265 -0.004923 0.797592
-0.115375 0.087964 0.787213
-0.031973 0.272357 0.661587
-0.116351 0.351068 -0.712099
-0.082866 0.380412 -0.024777
-0.021563 0.394760 -0.334221
-0.032981 0.402994 -0.581952
-0.018428 0.412186 0.254282
-0.038905 -0.401618 -0.576909
-0.038166 -0.384382 -0.648292
-0.039835 -0.398613 -0.499881
0.060766 -0.402226 -0.291304
0.018807 -0.413930 0.265649
0.033592 -0.397730 0.417267
-0.057026 -0.337760 0.534205
0.056947 -0.373027 0.502975
0.056644 -0.346076 -0.714397
0.085918 -0.287130 -0.812524
-0.029832 -0.257652 0.686390
-0.039762 -0.208773 0.753609
0.005018 0.139678 0.787303
-0.056912 0.188417 0.755015
-0.050538 0.349389 0.520356
0.107394 0.298302 -0.790163
-0.042914 0.390439 -0.636351
0.048471 0.375175 0.496841
0.020494 0.394195 -0.578581
0.067192 0.402944 -0.330478
0.013430 0.423326 0.011169
0.040427 0.402759 0.409081
0.024711 -0.419879 0.032802
0.041635 -0.372487 -0.659265
0.029812 -0.388019 -0.581721
0.047790 -0.393835 -0.417631
0.130513 -0.387705 -0.244890
0.101699 -0.392032 0.418456
0.146643 -0.371432 -0.354124
0.140350 -0.223444 -0.893930
0.362142 -0.110332 0.790639
0.362631 -0.036674 0.811019
0.347627 0.044069 0.798350
0.263667 0.227248 0.736186
0.124625 0.319788 -0.745907
0.052448 0.361672 -0.670082
0.041076 0.398620 -0.431105
0.123785 0.383025 -0.360666
0.148110 0.378913 -0.260858
0.030784 0.427832 0.206586
0.100885 0.389572 0.431146
0.138236 -0.368537 0.499502
0.115628 -0.339607 -0.667684
0.168124 -0.332688 -0.510934
0.160042 -0.295539 -0.761835
0.254807 -0.302468 -0.397324
0.189691 -0.325345 0.583226
0.339206 -0.183391 0.747763
0.279988 0.259721 0.688491
0.195518 0.325978 0.581612
0.193972 0.282805 -0.739379
0.158608 0.335627 -0.530980
0.177349 0.356448 0.467820
0.136488 0.368386 0.496015
0.233552 -0.328373 -0.274598
0.179066 -0.355512 0.469509
0.196023 -0.254137 -0.820400
0.273214 -0.269035 0.665812
0.207817 -0.207241 -0.883659
0.246755 -0.246422 -0.736119
0.293007 -0.227728 -0.573711
0.202302 -0.149298 -0.935458
0.276893 0.133235 -0.896283
0.201007 0.196939 -0.901785
0.193184 0.251825 -0.838061
0.288592 0.229890 -0.579335
0.346001 0.221581 -0.436835
0.249669 0.314578 -0.361882
0.264723 0.311204 -0.285411
0.260477 -0.298216 0.597802
0.269789 -0.202228 -0.820718
0.347898 -0.215543 -0.444630
0.350292 -0.235446 -0.365159
0.345598 -0.226736 0.629686
0.272501 -0.147720 -0.886305
0.311052 -0.154166 -0.798057
0.345741 -0.151650 -0.594446
0.289251 -0.085898 -0.909349
0.340862 -0.064144 -0.815623
0.288544 -0.006257 -0.928230
0.301846 0.072018 -0.903880
0.316626 0.126159 -0.805003
0.373903 0.086348 -0.586288
0.324892 0.173776 -0.602947
0.340693 0.192540 0.739275
0.257780 0.214255 -0.818368
0.277399 0.217917 -0.730703
0.358953 0.170254 -0.512098
0.339130 0.248613 -0.355740
0.361875 0.225460 0.652655
0.275338 0.297811 0.602011
0.395203 -0.123071 -0.502570
0.410212 -0.144306 -0.416231
0.398733 -0.191022 -0.313752
0.429846 -0.109772 0.733432
0.388165 -0.038801 -0.590779
0.344988 0.016459 -0.815816
0.402280 0.107488 -0.501907
0.416122 0.130912 -0.421317
0.419864 0.169059 0.646169
0.425429 0.109461 0.725489
0.389563 0.196162 -0.349903
0.425141 -0.062246 -0.492709
0.479260 -0.030017 0.811023
0.445203 -0.035435 -0.431263
0.481688 -0.029519 0.809469
0.429140 0.035223 -0.491724
0.451111 0.020776 -0.435944
0.444458 0.071990 -0.410239
3 2 3 23
3 0 4 1
3 1 4 5
3 3 2 6
3 32 4 0
3 3 6 34
3 7 4 32
3 4 7 5
3 5 7 8
3 2 9 10
3 2 10 6
3 6 10 34
3 39 7 32
3 9 11 10
3 10 11 12
3 10 12 34
3 39 8 7
3 14 15 55
3 15 16 55
3 0 13 63
3 13 0 14
3 14 0 15
3 17 21 18
3 18 21 19
3 19 21 61
3 15 0 1
3 15 1 16
3 16 1 22
3 23 20 26
3 20 23 17
3 17 23 21
3 21 23 3
3 61 21 24
3 21 3 24
3 63 27 0
3 1 25 22
3 22 25 28
3 29 30 26
3 26 30 2
3 23 26 2
3 0 27 32
3 5 25 1
3 28 25 33
3 28 33 29
3 3 34 24
3 24 34 35
3 24 35 31
3 27 36 32
3 37 25 5
3 25 37 33
3 2 30 9
3 31 35 38
3 32 36 39
3 8 37 5
3 29 33 40
3 29 40 30
3 36 68 39
3 33 37 40
3 41 30 40
3 30 41 11
3 9 30 11
3 35 12 44
3 35 34 12
3 39 68 70
3 8 39 42
3 8 42 37
3 37 42 43
3 37 43 40
3 45 39 70
3 39 45 46
3 39 46 42
3 12 11 47
3 51 44 12
3 42 46 48
3 42 48 49
3 42 49 43
3 41 73 11
3 73 50 11
3 11 50 47
3 12 47 51
3 45 77 46
3 77 48 46
3 50 79 47
3 79 51 47
3 95 14 91
3 91 14 52
3 52 14 53
3 53 14 55
3 53 55 56
3 57 17 88
3 88 17 54
3 54 18 19
3 54 19 60
3 14 95 13
3 16 56 55
3 58 59 57
3 59 20 57
3 20 17 57
3 18 54 17
3 95 63 13
3 22 56 16
3 56 22 58
3 58 22 64
3 58 64 59
3 61 60 19
3 61 65 62
3 96 62 66
3 62 65 66
3 59 64 28
3 59 28 26
3 20 59 26
3 61 24 65
3 28 64 22
3 65 24 66
3 28 29 26
3 31 66 24
3 98 36 27
3 38 67 31
3 98 68 36
3 38 35 44
3 69 38 44
3 40 71 41
3 41 71 72
3 44 51 74
3 44 74 75
3 44 75 69
3 69 75 76
3 100 45 70
3 49 78 43
3 43 78 40
3 40 78 71
3 73 41 72
3 51 80 74
3 100 77 45
3 81 49 48
3 49 81 78
3 82 73 72
3 50 73 82
3 100 101 77
3 83 77 101
3 77 83 84
3 77 84 48
3 48 84 81
3 82 102 50
3 102 85 50
3 50 85 79
3 51 79 80
3 86 91 52
3 87 86 52
3 53 87 52
3 53 92 111
3 88 54 89
3 90 89 54
3 54 94 90
3 53 56 92
3 92 56 58
3 92 58 93
3 58 57 93
3 54 60 94
3 94 62 112
3 60 62 94
3 112 62 113
3 62 60 61
3 62 96 113
3 113 96 114
3 96 66 97
3 96 97 114
3 115 27 63
3 66 31 67
3 116 67 38
3 116 69 117
3 38 69 116
3 118 70 68
3 76 119 69
3 100 120 101
3 75 121 76
3 76 121 119
3 81 103 78
3 104 71 103
3 71 78 103
3 71 104 72
3 82 72 104
3 80 79 105
3 74 80 105
3 74 122 75
3 105 122 74
3 75 122 121
3 83 101 106
3 84 83 106
3 81 84 107
3 108 79 85
3 79 108 105
3 109 128 87
3 87 128 86
3 110 109 87
3 53 110 87
3 110 53 111
3 88 89 93
3 128 91 86
3 93 57 88
3 132 63 95
3 132 115 63
3 67 97 66
3 133 67 134
3 97 67 133
3 134 67 135
3 67 116 135
3 135 116 136
3 116 117 136
3 136 117 119
3 118 100 70
3 119 117 69
3 121 137 119
3 138 106 101
3 122 105 123
3 124 84 138
3 138 84 106
3 107 84 124
3 125 81 107
3 81 125 103
3 104 139 82
3 82 139 102
3 139 126 102
3 126 85 102
3 108 85 126
3 144 110 143
3 143 110 145
3 110 144 109
3 111 145 110
3 111 129 145
3 93 89 130
3 127 130 89
3 90 127 89
3 128 144 151
3 144 128 109
3 92 129 111
3 130 129 92
3 93 130 92
3 94 131 90
3 112 131 94
3 131 112 149
3 151 152 128
3 152 91 128
3 112 113 149
3 149 113 153
3 91 152 95
3 113 114 153
3 114 97 153
3 97 154 153
3 133 154 97
3 155 136 156
3 156 136 119
3 137 156 119
3 158 138 101
3 122 157 121
3 121 157 137
3 124 138 159
3 140 103 125
3 104 103 140
3 139 104 140
3 123 157 122
3 159 141 107
3 159 107 124
3 141 125 107
3 142 108 126
3 108 142 105
3 142 123 105
3 146 130 165
3 127 165 130
3 165 127 147
3 144 143 167
3 144 167 166
3 143 145 167
3 167 145 168
3 146 168 129
3 129 168 145
3 130 146 129
3 147 127 90
3 148 147 90
3 131 148 90
3 148 131 150
3 166 151 144
3 150 131 149
3 149 153 150
3 95 152 172
3 173 154 133
3 173 133 134
3 174 134 135
3 174 135 175
3 175 135 136
3 99 118 68
3 176 155 156
3 158 101 120
3 160 137 157
3 138 158 178
3 159 138 178
3 157 123 160
3 161 159 178
3 125 161 179
3 179 162 140
3 179 140 125
3 163 140 162
3 139 140 163
3 126 139 163
3 164 123 142
3 123 164 160
3 161 141 159
3 161 125 141
3 163 182 126
3 126 182 142
3 182 164 142
3 169 146 165
3 170 165 147
3 148 170 147
3 168 146 171
3 171 146 169
3 169 165 170
3 148 150 170
3 170 150 184
3 151 185 187
3 151 166 185
3 166 167 185
3 167 168 186
3 185 167 186
3 186 168 171
3 184 150 189
3 189 150 153
3 187 152 151
3 172 132 95
3 115 98 27
3 99 68 98
3 120 100 118
3 176 156 191
3 191 156 137
3 191 137 192
3 192 137 160
3 177 178 158
3 178 194 161
3 161 194 179
3 179 194 180
3 180 162 179
3 162 180 181
3 181 183 182
3 164 183 160
3 160 183 196
3 163 162 181
3 182 163 181
3 164 182 183
3 188 186 171
3 171 169 197
3 188 171 197
3 169 170 198
3 197 169 198
3 170 184 198
3 184 189 198
3 153 200 189
3 152 199 172
3 152 187 199
3 199 201 172
3 200 153 190
3 190 153 154
3 201 204 172
3 204 132 172
3 204 115 132
3 174 173 134
3 175 136 155
3 99 206 118
3 206 120 118
3 120 206 207
3 207 158 120
3 193 158 207
3 193 177 158
3 177 193 178
3 193 194 178
3 194 210 180
3 210 211 181
3 180 210 181
3 181 211 195
3 183 195 196
3 195 192 196
3 192 160 196
3 195 183 181
3 197 198 212
3 198 189 212
3 200 212 189
3 202 199 187
3 185 202 187
3 186 202 185
3 188 203 186
3 201 199 213
3 213 199 202
3 202 186 203
3 213 217 201
3 217 204 201
3 190 154 173
3 217 220 204
3 220 115 204
3 220 222 115
3 115 222 98
3 222 223 99
3 98 222 99
3 223 205 99
3 227 175 155
3 227 155 176
3 206 99 205
3 205 228 206
3 206 228 207
3 228 229 193
3 207 228 193
3 229 208 193
3 208 194 193
3 192 233 191
3 194 208 209
3 209 210 194
3 211 233 195
3 192 195 233
3 188 214 203
3 188 215 214
3 188 197 215
3 197 216 215
3 197 212 216
3 200 216 212
3 216 200 190
3 217 213 218
3 213 202 218
3 202 203 218
3 203 219 218
3 214 219 203
3 217 218 220
3 218 221 220
3 218 219 221
3 221 219 238
3 221 239 222
3 220 221 222
3 222 239 223
3 239 224 223
3 239 225 224
3 223 224 205
3 224 225 226
3 225 230 226
3 205 224 228
3 224 226 229
3 224 229 228
3 226 208 229
3 226 230 208
3 230 209 208
3 232 227 191
3 227 176 191
3 209 231 210
3 231 211 210
3 231 232 211
3 232 233 211
3 233 232 191
3 214 234 219
3 214 235 234
3 214 215 235
3 215 236 235
3 215 216 236
3 216 237 236
3 190 237 216
3 236 237 235
3 190 173 237
3 237 173 246
3 238 234 245
3 238 219 234
3 234 235 245
3 246 173 174
3 221 238 239
3 245 249 238
3 246 174 175
3 238 225 239
3 238 249 225
3 246 175 243
3 225 249 240
3 249 241 240
3 230 225 240
3 241 243 242
3 243 175 227
3 240 241 230
3 241 242 244
3 230 241 209
3 241 244 209
3 244 231 209
3 244 232 231
3 244 242 232
3 227 232 243
3 232 242 243
3 235 247 245
3 235 237 247
3 237 248 247
3 237 246 248
3 245 247 249
3 247 250 249
3 247 248 250
3 250 251 249
3 250 248 251
3 246 243 248
3 249 251 241
3 251 248 243
3 243 241 251
