ply
format ascii 1.0
element vertex 252
property float x
property float y
property float z
element face 500
property list uchar int vertex_indices
end_header
-0.319262 -0.088156 -0.897858
-0.335045 -0.064252 0.517174
-0.327005 -0.109240 0.709401
-0.337633 0.005297 -0.892726
-0.345632 -0.014295 0.738931
-0.336662 0.042216 0.506387
-0.327193 0.080385 -0.890157
-0.348988 0.070170 0.730190
-0.271126 -0.216772 0.618553
-0.272496 -0.171922 -0.884387
-0.318964 -0.149208 0.548444
-0.317868 -0.172331 0.614891
-0.270680 -0.164474 -0.822985
-0.323667 -0.039899 -0.815996
-0.282845 -0.032960 -0.962250
-0.277703 0.090398 -0.941197
-0.323564 0.072301 -0.838971
-0.320577 0.126002 0.528388
-0.326826 0.123387 0.731099
-0.272790 0.170008 -0.880367
-0.253132 0.188431 -0.834325
-0.275846 0.184408 0.501717
-0.260461 0.191000 0.728315
-0.255932 0.226915 0.586600
-0.194630 -0.260750 0.571367
-0.206235 -0.257973 0.651882
-0.197134 -0.206360 -0.861840
-0.190613 -0.212978 -0.731345
-0.265607 -0.160981 0.491429
-0.190938 -0.220571 0.487374
-0.254383 -0.194517 0.730359
-0.258318 -0.126321 -0.945566
-0.190463 -0.189878 -0.665057
-0.292362 -0.078713 0.783638
-0.258646 -0.112913 -0.727052
-0.235158 -0.066439 -0.659268
-0.300433 -0.007515 0.451502
-0.279815 0.041741 -0.737638
-0.202317 -0.005215 0.407904
-0.231488 0.080596 -0.653099
-0.291269 0.071970 0.786384
-0.279792 0.102454 0.458288
-0.232527 0.168545 -0.733978
-0.187427 0.187424 -0.674234
-0.186904 0.227705 -0.803363
-0.208289 0.217674 0.494857
-0.187713 0.263151 0.569846
-0.196014 0.247152 0.648946
-0.130906 -0.228730 -0.647612
-0.199913 -0.195747 0.738086
-0.183154 -0.148093 -0.943200
-0.165563 -0.165769 -0.581785
-0.090039 -0.201047 -0.509092
-0.111857 -0.195785 0.436867
-0.115059 -0.160788 0.722073
-0.148196 -0.125856 -0.515190
-0.189337 -0.146219 0.432895
-0.200578 -0.062086 -0.978491
-0.191534 -0.031904 0.805803
-0.119454 -0.099855 -0.934475
-0.195233 -0.013291 -0.561878
-0.153944 -0.030727 -0.491286
-0.114628 0.030694 -0.949024
-0.198676 0.072097 -0.970047
-0.162195 0.046157 -0.504264
-0.189060 0.070796 0.801580
-0.186820 0.113148 -0.573336
-0.150414 0.132978 -0.520167
-0.191599 0.130211 0.427454
-0.200117 0.203501 -0.886523
-0.188190 0.173212 0.748881
-0.127528 0.206074 -0.601996
-0.072824 0.205354 -0.497398
-0.124031 0.206264 0.443691
-0.117805 0.162149 0.739799
-0.122386 -0.253472 0.616073
-0.111807 -0.225439 -0.823743
-0.104026 -0.233987 -0.751244
-0.054270 -0.243386 -0.587708
-0.117150 -0.253826 0.525728
-0.131282 -0.192287 -0.884753
-0.049282 -0.167299 -0.810645
-0.024235 -0.215224 0.422699
-0.123175 -0.077346 0.376907
-0.043071 -0.024996 -0.882380
-0.122492 -0.044196 0.775051
-0.109315 0.013109 0.360468
-0.117220 0.031233 0.772646
-0.048131 0.081120 -0.878093
-0.119774 0.110892 0.389613
-0.105865 0.134328 0.740345
-0.112243 0.174372 -0.893389
0.028209 0.079945 -0.279173
-0.128360 0.227662 -0.842512
-0.103796 0.228596 -0.745237
-0.044436 0.210542 0.426949
-0.106217 0.247447 0.506128
-0.080922 0.208435 0.659027
-0.059621 0.236828 -0.577802
-0.022851 0.232724 0.511686
-0.117273 0.258056 0.588506
-0.050078 -0.239701 0.491207
-0.057151 -0.242843 -0.661235
0.015217 -0.237898 -0.571322
-0.014406 -0.240210 -0.503842
-0.042748 -0.242671 0.556211
-0.020102 -0.203041 -0.723407
0.014921 -0.225139 -0.403730
-0.006020 -0.197803 0.606831
-0.042801 -0.122899 0.353351
0.016348 -0.121347 -0.747389
0.019655 -0.146983 0.622831
0.037538 -0.087166 -0.267557
-0.002799 -0.013303 -0.816398
0.033091 0.016700 -0.751260
0.100142 -0.037234 0.585950
0.032678 0.014090 -0.259934
0.042813 -0.040282 0.294720
-0.054820 -0.009251 0.332720
0.040501 0.045994 0.296260
-0.041785 0.096783 0.342854
-0.044937 0.164077 -0.808719
0.017582 0.139504 -0.734827
-0.028167 0.199087 -0.739890
0.020844 0.183786 0.355651
-0.040177 0.232126 -0.653797
-0.017666 0.241319 -0.517808
-0.043013 0.233340 0.573021
0.037531 0.223295 0.480655
0.041094 -0.244213 -0.485667
0.088762 -0.233102 -0.378699
0.055486 -0.226505 0.407001
0.029500 -0.227985 0.496790
0.119213 -0.217275 -0.453331
0.025394 -0.192431 0.364003
0.165329 -0.210864 0.359348
0.099830 -0.182367 -0.251210
0.107457 -0.181891 0.528220
0.095848 -0.099990 -0.178331
0.052278 -0.128980 0.315162
0.148237 -0.052142 -0.574199
0.134223 -0.124299 -0.140714
0.129941 -0.036061 -0.114353
0.080910 0.023811 -0.195062
0.153713 0.090220 -0.112375
0.152092 0.058445 0.554830
0.144869 0.069184 -0.575992
0.198557 0.065807 0.256295
0.110136 0.126932 0.563333
0.094981 0.172202 -0.256119
0.057765 0.135617 0.316204
0.085802 0.186025 -0.585826
0.124571 0.188357 0.507829
0.028306 0.193963 0.569573
0.032511 0.235410 -0.554061
0.117965 0.219673 -0.449193
0.048399 0.235643 -0.428964
0.047451 0.225665 0.404594
0.154072 0.221264 0.369700
0.040955 0.244207 -0.487631
0.152922 -0.222892 0.438546
0.090104 -0.180107 -0.578712
0.202826 -0.221621 -0.174120
0.150315 -0.153339 -0.505710
0.184999 -0.177928 -0.427164
0.152217 -0.114738 0.540153
0.209041 -0.075167 -0.481372
0.192582 0.007740 -0.522063
0.179877 -0.003298 0.254351
0.185521 0.103247 -0.493418
0.147869 0.156849 -0.509964
0.194070 0.204848 -0.139295
0.162309 0.188218 -0.445195
0.134517 0.232160 -0.331087
0.194000 0.232920 -0.191897
0.116439 0.231667 0.429369
0.221633 -0.221698 -0.307098
0.218950 -0.238045 -0.223961
0.256991 -0.178322 -0.037032
0.187439 -0.099300 0.268161
0.267109 -0.146259 0.485708
0.254024 -0.095334 0.043942
0.255423 -0.053658 0.198722
0.243034 0.000109 0.055337
0.263248 0.012553 0.523508
0.390704 0.005464 -0.269715
0.270787 0.117398 0.055055
0.264195 0.074180 0.188513
0.253846 0.140279 0.490666
0.268472 0.164799 0.261899
0.195209 0.177241 0.311019
0.235062 0.208136 -0.321464
0.273662 0.201973 -0.043050
0.198701 0.224534 0.431700
0.287475 -0.244688 -0.119866
0.286020 -0.232844 0.346732
0.266635 -0.224300 0.406299
0.290149 -0.220595 -0.051065
0.306308 -0.191695 0.036531
0.353331 -0.228595 0.270921
0.344820 -0.148979 -0.273586
0.306578 -0.163243 0.192490
0.277794 -0.184180 0.273542
0.399205 -0.086315 -0.253123
0.274304 -0.075849 0.515647
0.333235 -0.023400 0.509744
0.351606 0.051703 0.498968
0.343047 0.127339 -0.278235
0.300464 0.154093 0.176622
0.338860 0.211851 0.040506
0.268863 0.243834 -0.193637
0.272211 0.238402 -0.114258
0.346243 0.234873 -0.035646
0.358334 0.220246 0.202497
0.267610 0.222853 0.340422
0.359872 0.235696 0.295962
0.274158 0.225258 0.403893
0.337577 -0.207072 -0.205409
0.358233 -0.226650 -0.125936
0.356530 -0.236475 -0.017599
0.350796 -0.233575 0.363275
0.418826 -0.165756 0.416131
0.411930 -0.142641 -0.193631
0.349960 0.203692 -0.193128
0.411942 0.151496 0.422592
0.442473 0.156901 -0.118115
0.346142 0.235394 -0.117917
0.352103 0.232692 0.362498
0.416867 -0.218427 -0.051345
0.435600 -0.221101 0.034596
0.421038 -0.233317 0.265090
0.419597 -0.221902 0.346342
0.490750 -0.156950 0.347048
0.445157 -0.146018 -0.132349
0.481034 -0.149000 -0.025786
0.446036 -0.067782 -0.188220
0.484669 -0.072071 -0.119556
0.512286 -0.063060 0.414860
0.431095 -0.014124 0.469464
0.479860 0.047890 -0.129120
0.433365 0.079568 -0.190481
0.424215 0.214135 -0.046305
0.481098 0.148604 -0.037771
0.414366 0.225176 0.051744
0.485832 0.153053 0.317436
0.414706 0.234278 0.266715
0.422377 0.219796 0.342255
0.535715 -0.074164 0.331134
0.518126 -0.057985 -0.037806
0.507662 0.046606 0.421267
0.519934 0.026572 -0.011515
0.534912 0.021430 0.382051
3 1 4 2
3 1 5 4
3 4 5 7
3 28 10 8
3 10 11 8
3 30 8 2
3 8 11 2
3 30 2 33
3 0 9 31
3 9 0 12
3 12 0 13
3 12 13 34
3 11 10 2
3 31 14 0
3 10 28 1
3 28 36 1
3 2 10 1
3 2 4 33
3 0 14 3
3 3 13 0
3 34 13 37
3 14 15 3
3 36 5 1
3 33 4 40
3 40 4 7
3 3 15 6
3 16 13 3
3 6 16 3
3 13 16 37
3 36 41 5
3 5 41 17
3 7 5 17
3 18 7 17
3 18 40 7
3 19 6 15
3 6 19 16
3 16 19 20
3 16 20 37
3 21 17 41
3 18 22 40
3 23 17 21
3 17 23 18
3 22 18 23
3 24 28 8
3 24 29 28
3 25 24 8
3 8 30 25
3 30 49 25
3 31 26 50
3 9 26 31
3 26 9 12
3 26 12 27
3 33 49 30
3 12 34 27
3 27 34 32
3 32 34 35
3 29 56 28
3 50 57 31
3 49 33 58
3 31 57 14
3 56 38 28
3 38 36 28
3 34 37 35
3 57 63 14
3 63 15 14
3 35 37 39
3 35 39 60
3 58 33 40
3 36 38 41
3 58 40 65
3 60 39 66
3 38 68 41
3 63 69 15
3 20 42 37
3 37 42 39
3 65 40 70
3 69 19 15
3 39 42 43
3 39 43 66
3 68 45 41
3 45 21 41
3 70 40 22
3 20 19 69
3 20 69 44
3 20 44 42
3 42 44 43
3 21 45 23
3 45 46 23
3 47 23 46
3 47 22 23
3 47 70 22
3 24 75 79
3 75 24 25
3 76 26 77
3 26 27 77
3 48 77 27
3 29 79 53
3 79 29 24
3 25 49 75
3 26 80 50
3 76 80 26
3 48 27 32
3 48 32 51
3 51 52 48
3 49 54 75
3 80 59 50
3 35 51 32
3 52 51 55
3 56 53 83
3 29 53 56
3 59 57 50
3 54 49 58
3 60 51 35
3 51 60 55
3 55 60 61
3 38 56 83
3 54 58 85
3 62 57 59
3 83 86 38
3 63 57 62
3 61 60 64
3 85 58 87
3 38 86 89
3 87 58 65
3 60 66 64
3 64 66 67
3 68 38 89
3 87 65 90
3 62 91 63
3 91 69 63
3 90 65 70
3 43 71 66
3 66 71 67
3 67 71 72
3 73 68 89
3 68 73 45
3 74 90 70
3 69 91 93
3 74 70 97
3 93 44 69
3 93 94 44
3 44 94 43
3 43 94 71
3 96 45 73
3 46 45 96
3 100 97 47
3 97 70 47
3 100 46 96
3 47 46 100
3 77 81 76
3 77 48 102
3 78 102 48
3 78 52 104
3 78 48 52
3 104 52 107
3 101 53 79
3 101 82 53
3 79 75 105
3 101 79 105
3 80 76 81
3 81 77 106
3 77 102 106
3 105 75 108
3 75 54 108
3 59 80 81
3 82 109 53
3 109 83 53
3 54 111 108
3 84 59 81
3 52 55 112
3 55 61 112
3 85 111 54
3 62 59 84
3 112 61 116
3 109 118 83
3 118 86 83
3 61 64 116
3 88 62 84
3 116 64 92
3 118 120 86
3 120 89 86
3 64 67 92
3 91 62 88
3 88 121 91
3 72 92 67
3 120 95 89
3 90 74 97
3 91 121 93
3 121 123 94
3 93 121 94
3 123 125 94
3 73 89 95
3 125 71 94
3 71 125 98
3 126 72 98
3 72 71 98
3 95 99 96
3 95 96 73
3 100 96 127
3 99 127 96
3 127 97 100
3 102 78 103
3 104 129 103
3 78 104 103
3 104 107 130
3 104 130 129
3 101 132 82
3 82 132 131
3 132 101 105
3 102 103 106
3 134 109 82
3 134 82 131
3 132 105 108
3 106 110 81
3 139 109 134
3 113 84 81
3 81 110 113
3 110 114 113
3 117 109 139
3 111 85 115
3 117 118 109
3 117 119 118
3 85 87 115
3 88 84 113
3 120 118 119
3 121 88 113
3 113 114 121
3 114 122 121
3 90 148 87
3 150 120 119
3 122 123 121
3 122 151 123
3 124 120 150
3 120 124 95
3 153 148 90
3 97 153 90
3 123 151 125
3 151 154 125
3 72 156 149
3 72 149 92
3 124 157 95
3 153 97 127
3 125 154 98
3 126 98 154
3 159 126 154
3 126 159 156
3 126 156 72
3 128 99 95
3 128 95 157
3 153 127 99
3 153 99 128
3 129 133 103
3 129 130 133
3 131 160 135
3 137 160 132
3 160 131 132
3 106 103 161
3 161 103 133
3 130 107 136
3 135 139 134
3 135 134 131
3 108 137 132
3 106 161 110
3 52 136 107
3 165 137 111
3 111 137 108
3 110 161 140
3 112 136 52
3 136 112 138
3 114 110 140
3 141 138 142
3 115 165 111
3 116 143 112
3 112 143 138
3 138 143 142
3 142 143 144
3 168 119 117
3 115 87 145
3 146 114 140
3 116 92 143
3 119 168 147
3 122 114 146
3 87 148 145
3 143 92 149
3 144 143 149
3 147 150 119
3 122 146 151
3 152 148 153
3 154 151 155
3 124 150 158
3 124 158 157
3 128 152 153
3 154 155 159
3 155 156 159
3 156 173 149
3 156 155 173
3 158 175 157
3 128 175 152
3 128 157 175
3 133 130 176
3 136 177 130
3 177 176 130
3 136 162 177
3 163 161 133
3 133 164 163
3 133 176 164
3 162 136 141
3 179 139 135
3 160 137 180
3 138 141 136
3 165 180 137
3 161 163 140
3 163 166 140
3 163 164 166
3 179 117 139
3 166 167 140
3 179 168 117
3 165 115 184
3 184 115 145
3 140 167 146
3 167 169 146
3 184 145 188
3 188 145 148
3 169 170 146
3 144 149 171
3 190 150 147
3 188 148 152
3 146 170 151
3 169 172 170
3 155 151 170
3 170 172 155
3 172 191 155
3 171 149 174
3 190 158 150
3 191 173 155
3 173 174 149
3 158 193 175
3 193 152 175
3 194 177 162
3 194 162 197
3 195 135 196
3 135 160 196
3 160 180 196
3 162 141 178
3 162 178 197
3 195 202 135
3 202 179 135
3 164 176 200
3 164 200 166
3 178 141 181
3 182 179 202
3 204 180 165
3 141 142 181
3 183 181 142
3 181 183 182
3 179 182 168
3 204 165 184
3 167 166 185
3 144 183 142
3 186 183 144
3 183 186 187
3 183 187 182
3 182 187 147
3 168 182 147
3 167 207 169
3 187 189 147
3 186 144 192
3 147 189 190
3 169 191 172
3 169 207 191
3 171 192 144
3 152 193 188
3 171 211 192
3 189 214 190
3 214 158 190
3 188 193 216
3 191 210 173
3 173 210 174
3 171 174 211
3 174 210 211
3 214 216 158
3 158 216 193
3 176 177 217
3 217 177 218
3 177 194 218
3 197 219 194
3 219 218 194
3 197 198 219
3 219 198 199
3 195 220 199
3 220 195 196
3 176 217 200
3 197 178 198
3 199 198 201
3 199 201 202
3 195 199 202
3 220 196 221
3 196 180 221
3 166 200 203
3 181 198 178
3 198 181 201
3 201 181 182
3 202 201 182
3 180 204 205
3 185 166 203
3 205 184 206
3 204 184 205
3 184 188 206
3 187 186 208
3 188 224 206
3 209 186 192
3 186 209 208
3 189 187 208
3 207 223 191
3 192 211 212
3 192 212 209
3 208 209 213
3 208 213 189
3 189 213 215
3 189 215 214
3 227 224 216
3 224 188 216
3 223 210 191
3 223 226 210
3 210 226 211
3 211 226 212
3 215 227 214
3 216 214 227
3 218 219 228
3 228 219 229
3 229 219 230
3 219 199 230
3 230 199 231
3 199 220 231
3 200 217 222
3 217 218 222
3 228 233 218
3 220 221 231
3 233 222 218
3 222 235 203
3 222 203 200
3 221 180 238
3 238 180 205
3 203 235 185
3 238 205 206
3 207 167 185
3 185 240 207
3 238 206 224
3 240 223 207
3 240 225 223
3 225 226 223
3 225 241 226
3 224 227 246
3 241 212 226
3 241 243 212
3 212 243 209
3 209 243 213
3 243 245 213
3 213 245 215
3 245 246 215
3 215 246 227
3 232 229 230
3 231 232 230
3 233 228 234
3 228 229 234
3 229 232 234
3 231 221 232
3 233 235 222
3 233 236 235
3 233 234 236
3 221 237 232
3 221 238 237
3 236 239 235
3 237 238 249
3 240 185 235
3 235 239 240
3 236 250 239
3 250 242 239
3 244 249 224
3 249 238 224
3 240 239 225
3 239 242 225
3 225 242 241
3 242 244 243
3 242 243 241
3 244 245 243
3 244 246 245
3 224 246 244
3 247 234 232
3 236 234 248
3 234 247 248
3 232 237 247
3 250 236 248
3 248 247 250
3 247 251 250
3 247 237 251
3 237 249 251
3 250 244 242
3 250 251 244
3 244 251 249
