ply
format ascii 1.0
element vertex 252
property float x
property float y
property float z
element face 500
property list uchar int vertex_indices
end_header
-0.575654 -0.146344 0.595498
-0.556569 -0.165859 0.643491
-0.612859 -0.072777 0.666422
-0.611865 -0.045974 0.577141
-0.615504 0.067053 0.603952
-0.615547 0.052486 0.675815
-0.559579 0.154560 0.632660
-0.568279 0.152444 0.586092
-0.580400 -0.070348 0.548878
-0.571491 -0.116835 0.686238
-0.579878 -0.065701 0.700413
-0.599508 -0.000610 0.700312
-0.587319 0.045909 0.552534
-0.555480 0.082018 0.691209
-0.503789 -0.190022 0.584836
-0.426679 -0.210342 0.582255
-0.513426 -0.145936 0.542490
-0.423342 -0.100967 0.486534
-0.517514 -0.014407 0.512628
-0.419420 0.056423 0.475930
-0.513896 0.133226 0.537601
-0.441848 0.171053 0.532201
-0.503942 0.189908 0.584486
-0.405538 0.210332 0.587712
-0.428266 -0.207686 0.614067
-0.429987 -0.186256 0.540128
-0.324025 -0.181445 0.522274
-0.354589 -0.174369 0.640921
-0.346081 0.025920 0.697025
-0.339965 0.108675 0.689246
-0.338916 0.175128 0.520259
-0.374283 0.186761 0.641346
-0.447157 0.208722 0.621945
-0.364778 -0.208995 0.581518
-0.287997 -0.201297 0.592442
-0.263921 -0.073072 0.667516
-0.338974 -0.091710 0.462244
-0.364123 -0.074701 0.690878
-0.354090 -0.009265 0.451368
-0.340624 0.065927 0.457101
-0.278141 0.123138 0.663879
-0.344951 0.213292 0.586773
-0.267843 0.200673 0.581376
-0.178721 -0.195047 0.515934
-0.255589 -0.170451 0.619302
-0.204908 0.041054 0.678451
-0.193032 0.137340 0.471856
-0.204079 0.193880 0.523477
-0.195852 -0.194715 0.586456
-0.097886 -0.200355 0.646180
-0.129723 -0.129426 0.453722
-0.209427 -0.120728 0.643643
-0.122931 -0.142288 0.666570
-0.191096 -0.025702 0.443055
-0.192062 -0.068018 0.668182
-0.190427 0.040887 0.446084
-0.117098 0.133196 0.676415
-0.180479 0.188230 0.594606
-0.101004 0.201144 0.642329
-0.094116 -0.216594 0.506562
-0.043935 -0.194573 -0.964498
-0.021651 -0.204001 -0.353826
-0.014816 -0.196251 -0.106352
-0.015412 -0.211137 0.329986
-0.052043 -0.199575 0.441946
-0.078382 -0.125646 -0.969399
-0.064005 -0.127455 -0.358459
-0.048299 -0.137176 -0.114655
-0.066404 -0.134732 0.355214
-0.091514 -0.110502 0.423670
-0.047433 -0.114998 -1.039550
-0.071589 -0.074485 -0.335199
-0.065685 -0.075153 -0.103137
-0.100696 -0.041842 0.693648
-0.088112 -0.059750 -0.976076
-0.056943 0.006787 -0.212329
-0.086631 -0.042387 0.359762
-0.113657 0.008546 0.418878
-0.075592 0.028069 -1.041791
-0.074214 0.010784 -0.328407
-0.067495 -0.007258 -0.119738
-0.093941 0.045018 -0.961448
-0.051879 0.062990 -0.264875
-0.086953 0.029604 0.342249
-0.105340 0.051403 0.699515
-0.069790 0.072632 -0.098284
-0.072328 0.121322 -0.981531
-0.067847 0.089919 -0.388727
-0.075045 0.113641 0.336852
-0.125625 0.111764 0.449572
-0.085395 0.141316 0.425071
-0.054351 0.131202 -0.121859
-0.021854 0.203897 -0.969094
-0.045996 0.200283 -0.901561
-0.014647 0.183975 -0.351224
-0.026431 0.199500 -0.107344
-0.038734 0.196627 -0.026684
-0.044217 0.185352 0.366077
-0.112050 0.195099 0.495160
-0.047757 0.229814 0.577178
-0.044234 -0.231653 0.576445
0.050725 -0.246735 -0.879452
-0.007867 -0.252090 -0.417490
0.053081 -0.238168 -0.010315
0.044057 -0.236498 0.350145
0.024760 -0.238115 0.436172
-0.024890 -0.239826 0.499268
0.054911 -0.236837 -0.118880
-0.027162 -0.196738 0.652391
0.050778 -0.196194 0.584481
-0.034420 -0.192797 -1.005380
0.034492 -0.209232 -0.267242
0.002619 -0.180425 -0.195610
-0.041109 -0.115907 -0.267400
0.012736 -0.123946 0.684911
-0.013800 -0.079685 -1.071300
-0.048251 -0.078244 -0.191955
-0.034344 0.004389 -1.072535
0.028152 0.033581 0.699297
-0.022587 0.115075 -1.041088
-0.037079 0.085490 -0.210768
0.010302 0.115106 0.688253
-0.005641 0.161232 -0.254817
0.020596 0.199293 -0.185802
-0.023329 0.196562 0.651505
-0.026585 0.223127 0.445433
-0.039107 0.236699 0.512002
0.049930 0.195600 0.588671
0.010849 0.282207 -0.893261
0.035724 0.240568 -0.432275
0.040483 0.233903 -0.022508
0.020578 0.230742 0.352461
0.045550 0.237935 0.430673
0.057137 -0.267324 -0.719032
0.067004 -0.248283 -0.564808
0.011737 -0.248863 -0.396067
0.036943 -0.212086 -0.986318
0.086622 -0.255292 -0.778002
0.104780 -0.240635 -0.667393
0.041504 -0.234150 -0.335272
0.112169 -0.235609 -0.197684
0.118494 -0.246801 -0.121822
0.129420 -0.215006 0.027381
0.046336 -0.231009 0.511284
0.102817 -0.200979 -0.951163
0.132337 -0.211574 -0.827286
0.118397 -0.208726 -0.579180
0.111215 -0.210471 -0.428002
0.099037 -0.211380 0.419392
0.041253 -0.160364 0.651778
0.017796 -0.176316 -1.027752
0.116585 -0.180837 0.494472
0.088609 -0.130228 -1.031898
0.109231 -0.061952 0.595396
0.070008 -0.073270 0.673801
0.050150 -0.038466 0.694693
0.113678 -0.004424 -1.069335
0.074539 0.039632 0.668771
0.120364 0.085620 -1.068861
0.108806 0.073498 0.592023
0.101597 0.132928 -1.046597
0.043678 0.161186 0.650202
0.015564 0.173918 -1.022068
0.039040 0.216630 -0.266663
0.101741 0.187332 0.508632
0.046734 0.212806 -0.981009
0.112442 0.178521 -0.952131
0.117241 0.221179 -0.838982
0.132690 0.193218 -0.569286
0.100258 0.216758 -0.407143
0.055937 0.233107 -0.345464
0.047087 0.237555 -0.103168
0.131531 0.213032 0.015607
0.105717 0.196438 0.406618
0.034373 0.230444 0.508186
0.023012 0.280279 -0.900667
0.098241 0.251036 -0.742502
0.076924 0.255815 -0.666316
0.120507 0.237639 -0.199273
0.110693 0.244500 -0.126437
0.116164 -0.225555 -0.345758
0.113824 -0.234506 -0.278633
0.099255 -0.244287 -0.059563
0.158823 -0.209435 -0.727127
0.182356 -0.206803 -0.255148
0.183370 -0.207664 -0.098443
0.155367 -0.154040 -0.896568
0.177651 -0.170661 -0.349471
0.171214 -0.161314 0.055566
0.150375 -0.138073 0.432166
0.150537 -0.109353 -0.977486
0.185120 -0.122251 -0.833806
0.164210 -0.132533 -0.434563
0.143265 -0.111063 0.503356
0.148165 -0.028637 -1.041292
0.181774 -0.066554 -0.893590
0.182019 -0.104427 -0.562971
0.205329 -0.053871 0.054978
0.193227 -0.023204 -0.429359
0.172386 -0.049200 0.429469
0.157218 -0.018853 0.502943
0.167167 0.019726 -0.974762
0.180644 0.051390 -0.895361
0.208102 0.002662 -0.575246
0.209996 0.023189 0.054678
0.186173 0.058741 -0.432873
0.175392 0.033049 0.425809
0.145539 0.102638 0.494994
0.140395 0.080285 -1.056314
0.204884 0.083988 -0.819436
0.176604 0.121587 -0.568217
0.160235 0.131055 -0.438118
0.192403 0.120325 0.061893
0.163260 0.103063 0.431140
0.147526 0.164810 -0.875390
0.171637 0.171152 -0.805305
0.188362 0.140862 -0.353612
0.123680 0.221221 -0.337433
0.166531 0.198588 -0.742340
0.167261 0.187384 -0.664751
0.108403 0.236374 -0.279978
0.177356 0.206963 -0.267684
0.118942 0.238098 -0.054453
0.183103 -0.173421 -0.664504
0.190172 -0.181455 -0.028166
0.213619 -0.134176 -0.735263
0.222753 -0.148468 -0.278896
0.238724 -0.149933 -0.138410
0.229175 -0.125774 -0.054195
0.227816 -0.098743 -0.663959
0.211632 -0.088907 -0.352564
0.248361 -0.074496 -0.268722
0.261563 -0.074270 -0.110485
0.216977 -0.023182 -0.814843
0.250207 -0.052259 -0.720632
0.251800 -0.022578 -0.675887
0.247303 -0.030339 -0.044546
0.232409 -0.012264 -0.341046
0.257130 0.009885 -0.274736
0.266148 -0.011234 -0.110496
0.246421 0.044737 -0.727077
0.246346 0.038036 -0.663821
0.242960 0.053487 -0.051971
0.224499 0.067179 -0.344366
0.253855 0.079432 -0.250594
0.223730 0.105630 -0.662963
0.224967 0.128365 -0.037420
0.215410 0.136778 -0.726974
0.226859 0.147029 -0.273793
0.229913 0.153154 -0.110261
0.189097 0.187954 -0.038756
0.183258 0.216752 -0.127514
3 1 0 2
3 1 2 9
3 3 0 8
3 0 3 2
3 9 2 10
3 10 2 11
3 12 3 8
3 4 3 12
3 3 4 2
3 2 4 5
3 2 5 11
3 11 5 13
3 7 4 12
3 5 4 6
3 5 6 13
3 4 7 6
3 14 0 1
3 14 16 0
3 16 8 0
3 16 18 8
3 18 12 8
3 18 20 12
3 20 7 12
3 20 22 7
3 22 6 7
3 15 25 14
3 15 14 24
3 24 14 1
3 1 27 24
3 17 16 25
3 25 16 14
3 27 1 9
3 16 17 18
3 18 17 19
3 28 11 13
3 18 19 20
3 28 13 29
3 19 21 20
3 20 21 22
3 29 13 31
3 31 13 6
3 22 21 23
3 23 32 22
3 22 32 6
3 31 6 32
3 26 25 33
3 33 25 15
3 33 15 24
3 27 33 24
3 26 17 25
3 26 36 17
3 27 9 37
3 37 9 10
3 36 38 17
3 38 19 17
3 37 10 28
3 28 10 11
3 38 39 19
3 39 30 19
3 30 21 19
3 21 30 23
3 23 41 31
3 32 23 31
3 41 23 30
3 33 34 26
3 34 27 44
3 34 33 27
3 35 44 27
3 27 37 35
3 35 37 28
3 40 28 29
3 46 30 39
3 40 29 31
3 42 40 31
3 42 30 47
3 42 31 41
3 42 41 30
3 43 26 48
3 26 34 48
3 44 48 34
3 50 26 43
3 48 44 51
3 50 36 26
3 51 44 35
3 50 53 36
3 35 54 51
3 53 38 36
3 53 55 38
3 45 54 35
3 35 28 45
3 55 39 38
3 55 46 39
3 28 40 45
3 45 40 57
3 47 30 46
3 57 40 42
3 47 57 42
3 48 59 43
3 59 50 43
3 52 49 48
3 51 52 48
3 77 53 50
3 54 52 51
3 52 54 73
3 77 55 53
3 73 45 84
3 54 45 73
3 77 89 55
3 89 46 55
3 45 56 84
3 57 56 45
3 89 98 46
3 98 47 46
3 58 56 57
3 98 57 47
3 98 99 57
3 57 99 58
3 64 59 106
3 100 59 48
3 100 106 59
3 48 49 100
3 49 108 100
3 52 108 49
3 70 60 110
3 65 60 70
3 60 65 66
3 60 66 61
3 61 66 113
3 62 67 63
3 63 67 68
3 63 68 64
3 64 68 69
3 64 69 50
3 59 64 50
3 108 52 114
3 66 65 71
3 66 71 113
3 67 72 68
3 114 52 73
3 65 70 74
3 65 74 71
3 113 71 75
3 116 72 67
3 72 76 68
3 68 76 69
3 69 76 77
3 50 69 77
3 117 70 115
3 78 70 117
3 70 78 74
3 74 79 71
3 71 79 75
3 80 72 116
3 72 80 76
3 74 78 81
3 74 81 79
3 75 79 82
3 75 80 116
3 76 80 83
3 76 83 77
3 118 73 84
3 119 78 117
3 85 80 75
3 80 85 83
3 81 78 86
3 81 86 87
3 81 87 79
3 82 79 87
3 91 85 75
3 85 88 83
3 83 88 77
3 77 88 90
3 77 90 89
3 118 84 121
3 121 84 56
3 119 86 78
3 82 87 94
3 85 91 88
3 121 56 124
3 92 86 119
3 86 92 93
3 86 93 87
3 87 93 94
3 91 95 96
3 91 96 88
3 88 96 97
3 88 97 90
3 89 90 98
3 124 56 58
3 97 125 90
3 125 98 90
3 125 126 98
3 126 99 98
3 99 124 58
3 101 102 133
3 133 102 134
3 134 102 135
3 136 60 101
3 101 60 102
3 135 61 139
3 135 102 61
3 139 61 111
3 107 62 103
3 103 62 63
3 103 63 104
3 104 63 105
3 105 63 64
3 105 106 143
3 105 64 106
3 100 143 106
3 100 109 143
3 100 108 109
3 60 136 110
3 136 150 110
3 61 102 60
3 107 112 62
3 109 108 149
3 150 70 110
3 113 111 61
3 62 112 67
3 149 108 114
3 70 152 115
3 150 152 70
3 111 113 112
3 112 113 116
3 112 116 67
3 113 75 116
3 155 114 73
3 156 117 115
3 155 73 118
3 156 158 117
3 158 119 117
3 120 75 82
3 75 120 91
3 160 119 158
3 119 160 162
3 94 122 82
3 82 122 120
3 120 122 123
3 120 123 91
3 162 92 119
3 91 123 95
3 92 162 165
3 94 163 122
3 163 123 122
3 124 127 161
3 121 124 161
3 175 92 165
3 175 128 92
3 128 93 92
3 93 128 94
3 94 128 129
3 170 94 129
3 94 170 163
3 123 171 95
3 130 95 171
3 130 96 95
3 96 130 131
3 96 131 97
3 97 131 125
3 125 131 132
3 125 132 174
3 125 174 126
3 174 127 99
3 174 99 126
3 124 99 127
3 175 177 128
3 128 177 129
3 133 137 101
3 138 137 133
3 134 138 133
3 104 142 103
3 101 144 136
3 101 145 144
3 137 145 101
3 146 138 134
3 134 147 146
3 134 135 147
3 135 180 147
3 135 139 180
3 111 181 139
3 181 180 139
3 181 111 140
3 107 141 140
3 107 103 182
3 141 107 182
3 142 182 103
3 104 148 142
3 104 105 148
3 143 148 105
3 144 152 136
3 152 150 136
3 112 140 111
3 140 112 107
3 151 148 143
3 109 151 143
3 193 151 109
3 153 193 109
3 109 149 153
3 149 154 153
3 149 114 154
3 114 155 154
3 152 156 115
3 154 157 153
3 154 155 157
3 155 118 157
3 153 157 159
3 157 161 159
3 157 121 161
3 118 121 157
3 127 207 159
3 159 161 127
3 164 207 127
3 166 165 160
3 165 162 160
3 173 164 174
3 174 164 127
3 165 166 175
3 166 167 175
3 168 169 177
3 169 129 177
3 169 217 170
3 169 170 129
3 163 170 220
3 170 217 220
3 178 163 220
3 178 123 163
3 171 123 179
3 179 123 178
3 130 171 222
3 179 222 171
3 222 172 130
3 172 173 130
3 173 131 130
3 173 132 131
3 132 173 174
3 176 175 167
3 177 175 176
3 183 145 137
3 138 183 137
3 184 180 181
3 181 140 184
3 140 141 185
3 184 140 185
3 185 141 182
3 182 142 185
3 186 144 145
3 183 225 145
3 183 138 223
3 223 138 146
3 180 187 147
3 184 187 180
3 224 142 188
3 224 185 142
3 148 188 142
3 189 188 148
3 148 151 189
3 190 152 144
3 144 186 190
3 145 191 186
3 145 225 191
3 196 223 146
3 147 192 146
3 147 187 192
3 151 193 189
3 152 190 194
3 186 195 190
3 186 191 195
3 146 192 196
3 187 230 192
3 188 189 197
3 191 233 195
3 192 198 196
3 192 230 198
3 189 199 197
3 189 193 199
3 193 200 199
3 156 152 194
3 190 201 194
3 190 195 201
3 195 202 201
3 195 233 202
3 196 198 203
3 197 199 204
3 193 153 200
3 203 198 205
3 199 206 204
3 199 200 206
3 200 207 206
3 200 159 207
3 153 159 200
3 208 156 194
3 158 156 208
3 194 201 208
3 233 209 202
3 210 245 203
3 203 205 210
3 205 211 210
3 204 206 212
3 206 213 212
3 206 207 213
3 208 160 158
3 160 208 166
3 208 201 166
3 201 202 166
3 202 214 166
3 202 209 214
3 209 215 214
3 205 216 211
3 219 245 210
3 168 219 210
3 210 211 168
3 211 169 168
3 211 216 169
3 216 217 169
3 172 250 212
3 212 173 172
3 212 213 173
3 164 173 207
3 173 213 207
3 167 166 214
3 214 215 167
3 215 218 167
3 216 221 217
3 251 250 222
3 250 172 222
3 176 167 218
3 219 176 218
3 177 176 219
3 219 168 177
3 220 217 221
3 221 178 220
3 221 251 178
3 178 251 179
3 251 222 179
3 223 225 183
3 184 226 187
3 184 227 226
3 184 185 227
3 224 228 185
3 228 227 185
3 223 229 225
3 223 196 229
3 224 188 228
3 187 226 230
3 226 231 230
3 226 227 231
3 227 232 231
3 227 228 232
3 191 225 233
3 225 234 233
3 225 229 234
3 229 235 234
3 229 203 235
3 196 203 229
3 228 236 232
3 228 197 236
3 188 197 228
3 198 230 237
3 230 231 237
3 231 238 237
3 231 232 238
3 232 239 238
3 232 236 239
3 234 240 233
3 234 235 240
3 235 241 240
3 235 203 241
3 236 242 239
3 236 204 242
3 197 204 236
3 233 240 209
3 243 198 237
3 205 198 243
3 237 238 243
3 238 244 243
3 238 239 244
3 239 242 244
3 241 245 240
3 203 245 241
3 242 212 246
3 204 212 242
3 247 209 240
3 215 209 247
3 240 245 247
3 243 216 205
3 216 243 248
3 243 244 248
3 244 249 248
3 244 242 249
3 242 246 249
3 218 215 247
3 245 219 247
3 246 250 249
3 212 250 246
3 219 218 247
3 248 221 216
3 221 248 251
3 248 249 251
3 251 249 250
