ply
format ascii 1.0
element vertex 252
property float x
property float y
property float z
element face 500
property list uchar int vertex_indices
end_header
-0.646802 -0.161669 -1.038459
-0.655007 -0.141822 -1.097665
-0.699880 -0.060563 -1.073377
-0.698480 -0.009471 -1.118345
-0.687512 0.091034 -1.056346
-0.638482 0.133740 -1.104676
-0.581580 -0.208258 -1.050517
-0.573557 -0.200721 -0.978720
-0.642982 -0.034728 -1.146021
-0.652184 -0.022424 -0.957504
-0.582493 0.090386 -0.848632
-0.624936 0.175613 -1.038604
-0.499071 -0.216446 -0.993757
-0.498015 -0.195130 -0.903654
-0.530056 -0.149191 -1.106232
-0.576590 -0.123369 -0.889676
-0.500589 -0.165917 -0.802905
-0.474700 -0.177701 -0.721498
-0.489411 -0.116713 -0.690469
-0.561943 -0.049212 -0.804548
-0.502250 0.018051 -0.682105
-0.524148 0.030547 -1.152748
-0.500710 0.139058 -0.708516
-0.497782 0.139665 -1.112485
-0.493736 0.193520 -0.858144
-0.478254 0.173950 -0.712764
-0.502521 -0.209702 -1.054339
-0.426955 -0.203363 -0.867537
-0.418714 -0.207617 -0.744193
-0.433162 -0.158781 -1.029601
-0.431587 -0.067696 0.256996
-0.407739 -0.146035 0.344221
-0.450000 0.008970 -1.118981
-0.444419 0.012992 0.342320
-0.431431 0.052645 0.250462
-0.508613 0.203119 -1.051054
-0.496027 0.221939 -0.988074
-0.420874 0.210288 -0.764516
-0.437842 -0.202018 -0.948689
-0.347375 -0.198896 0.279370
-0.324249 -0.225429 0.372039
-0.344746 -0.164764 -0.896025
-0.436317 -0.152900 -0.654522
-0.371818 -0.152918 0.419351
-0.415073 -0.052594 0.415360
-0.318871 -0.011403 -0.948713
-0.435813 -0.041059 -0.611172
-0.390506 -0.034974 0.196535
-0.386100 -0.005964 -1.055091
-0.373536 -0.074647 -0.560270
-0.338359 -0.074185 -0.514106
-0.326394 0.027017 -0.502938
-0.372869 0.064380 -0.573673
-0.412808 0.124013 -1.038230
-0.431863 0.144000 -0.657497
-0.365138 0.099685 0.205781
-0.403631 0.069685 0.426515
-0.406746 0.140060 0.257325
-0.408710 0.148863 0.334265
-0.344059 0.167161 -0.897214
-0.352177 0.174397 0.424995
-0.441913 0.206854 -0.962021
-0.411238 0.207914 -0.878989
-0.349832 0.210820 0.290137
-0.341421 0.227774 0.355816
-0.338563 -0.212361 -0.791800
-0.336906 -0.200689 -0.615719
-0.275800 -0.232513 -0.626734
-0.262806 -0.195651 -0.521808
-0.294018 -0.090456 0.206881
-0.284249 -0.151202 0.496496
-0.202838 -0.127416 -0.346469
-0.329887 -0.034362 0.503007
-0.345900 0.008470 0.170018
-0.204336 -0.008054 -0.302275
-0.328978 0.088055 0.497473
-0.184853 0.125933 -0.318110
-0.350920 0.180850 -0.622183
-0.283700 0.207912 -0.583253
-0.247604 0.207263 -0.506745
-0.337412 0.218069 -0.790727
-0.335547 0.219411 -0.678612
-0.276311 0.231732 0.428270
-0.176609 -0.239327 -0.532048
-0.264514 -0.232107 0.283875
-0.281033 -0.255254 0.322211
-0.131846 -0.222990 -0.358252
-0.098223 -0.175918 -0.605291
-0.212433 -0.185935 0.513554
-0.106594 -0.062790 -0.696181
-0.199615 -0.073349 0.580269
-0.190291 -0.004831 0.228617
-0.215467 0.040324 0.577869
-0.043238 0.073631 -0.606805
-0.283587 0.066388 0.194141
-0.267070 0.214721 0.274841
-0.274348 0.161438 0.502490
-0.198824 0.185038 0.526457
-0.144044 0.215380 -0.357939
-0.274598 0.252758 0.344578
-0.202129 -0.232476 -0.623119
-0.149182 -0.248335 0.350170
-0.160857 -0.250066 0.441987
-0.136984 -0.164845 0.283956
-0.102237 -0.172636 0.558640
-0.111821 -0.195507 -0.268783
-0.115537 -0.110152 -0.194003
-0.086391 -0.050365 0.261135
-0.140595 0.032198 -0.202341
-0.117694 0.160558 0.283243
-0.087329 0.035491 0.257605
-0.119836 0.090570 0.598258
-0.064550 0.157429 -0.159638
-0.078377 0.181265 -0.592032
-0.101816 0.204924 -0.273401
-0.089658 0.182210 0.567647
-0.216922 0.237488 -0.616774
-0.177736 0.241719 -0.512764
-0.158082 0.245770 0.344801
-0.193696 0.252226 0.427822
-0.073174 0.231644 0.514569
-0.125774 -0.226634 -0.567261
-0.093745 -0.227875 -0.512027
-0.095020 -0.239350 -0.428189
-0.007813 -0.250303 0.504616
-0.020404 -0.187120 -0.460458
-0.030247 -0.212602 -0.173457
0.032798 -0.194222 -0.033570
-0.106175 -0.034291 0.609886
-0.031498 -0.014361 -0.040307
-0.086339 0.219252 -0.538428
-0.032072 0.217301 -0.441868
-0.025860 0.225454 -0.214039
0.032939 -0.254795 0.441771
-0.049593 -0.234952 -0.309988
0.041775 -0.230153 -0.305743
0.028723 -0.245813 -0.205722
0.052316 -0.240523 -0.120918
0.038535 -0.153147 0.023228
0.631424 -0.126531 0.598344
0.089825 -0.156917 -0.362817
0.119425 -0.102246 0.311232
-0.008541 -0.067113 -0.563790
0.029033 -0.031157 -0.504927
0.012220 0.012582 0.031684
0.667305 -0.077776 0.614347
0.175023 -0.004377 0.266332
0.664879 0.039392 0.609761
-0.016822 0.154391 -0.517824
0.119189 0.085270 0.294416
0.036738 0.180141 -0.030288
0.049291 0.152641 0.029118
0.056137 0.157561 -0.402025
0.115687 0.154279 0.334026
0.652894 0.177888 0.604911
-0.049265 0.236503 -0.329937
0.037621 0.229065 -0.121359
0.057577 0.221354 0.372583
0.019060 0.246456 -0.265662
0.038470 0.249886 -0.191415
0.031204 0.251430 0.428130
0.216587 -0.255287 0.473556
0.104202 -0.253699 -0.166957
0.118200 -0.256435 -0.114659
0.088971 -0.195002 0.371966
0.128316 -0.238963 -0.040843
0.052536 -0.076633 0.060589
0.074756 0.069901 -0.430079
0.052666 0.063201 0.062709
0.051819 0.225382 -0.312160
0.547330 0.226157 0.547439
0.077451 0.254642 -0.170454
0.117582 0.245196 -0.053356
0.184587 0.213599 0.411574
0.240815 0.251656 0.469229
0.256642 -0.212655 -0.116574
0.190245 -0.249127 -0.102626
0.186589 -0.218951 0.423530
0.106672 -0.185337 0.039107
0.213006 -0.225693 0.053482
0.187980 -0.171385 0.109174
0.200860 -0.109814 0.327101
0.165703 -0.036099 0.143147
0.209161 -0.097314 0.204867
0.191176 -0.031676 -0.306998
0.112143 0.001808 0.093582
0.205553 0.071388 0.209103
0.191571 0.152519 0.112890
0.106722 0.184356 0.035966
0.209042 0.236596 0.025762
0.193025 0.251104 -0.073211
0.270152 -0.230398 -0.048790
0.507973 -0.223662 0.543187
0.245724 -0.174116 0.184023
0.241198 -0.116900 0.291541
0.254173 -0.158592 0.358520
0.200014 0.091494 0.308358
0.236982 0.103764 0.286079
0.294955 0.040934 -0.187288
0.312667 0.117728 -0.128952
0.259231 0.182780 0.185551
0.251612 0.157558 0.356084
0.258690 0.219830 -0.089147
0.270293 0.228576 0.120579
0.288465 0.216930 -0.034936
0.339612 -0.235694 0.063827
0.310105 -0.237046 0.408720
0.337230 -0.224706 0.222108
0.329615 -0.210426 0.323337
0.337977 -0.186520 -0.038843
0.326967 -0.075568 -0.125601
0.373167 0.100061 -0.050397
0.340087 0.222742 0.342617
0.324359 0.235193 0.078568
0.339729 0.227447 0.225964
0.272763 0.234810 0.427814
0.392859 0.261243 0.427886
0.441402 -0.258698 0.457643
0.414515 -0.242789 0.255412
0.425091 -0.213118 0.121559
0.385605 -0.040070 -0.053416
0.353710 0.042173 -0.110285
0.500701 0.105399 0.120175
0.360577 0.196970 0.025387
0.440404 0.197412 0.129100
0.423445 0.235456 0.242689
0.524098 -0.240594 0.402306
0.554841 -0.235164 0.500586
0.508586 -0.186750 0.239141
0.491218 -0.104521 0.125361
0.510233 0.039322 0.109145
0.508553 0.176257 0.216746
0.504047 0.246447 0.411724
0.477942 0.259356 0.489574
0.574611 -0.180976 0.360376
0.591054 -0.206453 0.441878
0.533767 -0.102840 0.193242
0.575746 -0.094787 0.284252
0.545333 0.041347 0.186237
0.579492 0.175746 0.361993
0.581992 0.224632 0.482309
0.647135 -0.164767 0.524720
0.641757 -0.089271 0.417861
0.614726 0.065748 0.350938
0.649549 0.064546 0.414238
0.628249 0.159831 0.434825
0.688691 -0.105335 0.513018
0.692267 -0.070809 0.586803
0.686340 0.062050 0.510727
0.699352 0.047741 0.586814
0.675725 0.169195 0.592530
0.638222 0.194734 0.522429
3 1 2 0
3 3 1 8
3 1 3 2
3 0 2 9
3 2 3 4
3 2 4 9
3 5 3 8
3 3 5 4
3 5 11 4
3 6 1 0
3 6 0 7
3 7 0 15
3 14 8 1
3 0 9 15
3 15 9 19
3 19 9 10
3 21 5 8
3 9 4 10
3 21 23 5
3 11 10 4
3 12 26 6
3 26 14 6
3 14 1 6
3 12 6 7
3 12 7 13
3 15 13 7
3 13 15 16
3 17 16 18
3 16 15 19
3 16 19 18
3 14 21 8
3 18 19 20
3 19 10 20
3 20 10 22
3 10 24 22
3 22 24 25
3 23 35 5
3 35 11 5
3 11 36 24
3 11 24 10
3 11 35 36
3 14 26 29
3 38 29 12
3 12 29 26
3 12 13 38
3 38 13 27
3 27 13 16
3 27 16 28
3 28 16 17
3 28 17 42
3 17 18 42
3 18 46 42
3 29 48 32
3 14 29 32
3 21 14 32
3 46 18 20
3 31 30 33
3 31 33 44
3 30 34 33
3 46 20 54
3 54 20 22
3 44 33 56
3 23 21 32
3 32 53 23
3 34 58 33
3 57 58 34
3 33 58 56
3 23 53 35
3 53 61 35
3 25 54 22
3 61 36 35
3 36 61 24
3 24 61 62
3 24 62 37
3 24 37 25
3 54 25 37
3 65 27 28
3 41 38 27
3 41 27 65
3 42 66 28
3 40 39 31
3 40 31 43
3 38 41 29
3 43 31 44
3 41 45 29
3 66 42 49
3 49 42 46
3 39 47 30
3 39 69 47
3 31 39 30
3 43 44 72
3 29 45 48
3 73 47 69
3 50 49 51
3 52 49 46
3 49 52 51
3 30 47 34
3 45 53 48
3 54 52 46
3 55 47 73
3 47 55 34
3 72 56 75
3 44 56 72
3 53 32 48
3 34 55 57
3 52 54 77
3 56 58 60
3 56 60 75
3 53 59 61
3 62 61 59
3 62 59 80
3 81 54 37
3 54 81 77
3 63 57 55
3 57 63 58
3 58 63 64
3 60 58 64
3 80 37 62
3 80 81 37
3 66 67 28
3 67 65 28
3 84 39 85
3 39 40 85
3 67 66 68
3 43 70 40
3 66 49 68
3 68 49 50
3 68 50 71
3 84 69 39
3 72 70 43
3 70 72 90
3 41 89 45
3 51 71 50
3 90 72 92
3 89 93 45
3 69 94 73
3 72 75 92
3 59 53 45
3 45 93 59
3 74 51 76
3 94 55 73
3 77 78 52
3 52 78 51
3 51 78 79
3 76 51 79
3 55 94 95
3 92 75 96
3 96 75 60
3 77 81 78
3 95 63 55
3 60 64 82
3 82 96 60
3 95 99 63
3 63 99 64
3 64 99 82
3 65 67 100
3 83 100 67
3 83 67 68
3 68 86 83
3 84 85 101
3 101 85 102
3 85 40 102
3 40 88 102
3 70 88 40
3 41 65 87
3 65 100 87
3 84 101 103
3 69 84 103
3 88 70 90
3 69 103 91
3 74 71 51
3 94 69 91
3 91 109 94
3 94 109 95
3 97 92 96
3 76 79 98
3 109 118 95
3 97 96 82
3 116 81 80
3 116 78 81
3 78 117 79
3 117 98 79
3 118 99 95
3 118 119 99
3 99 119 82
3 97 82 119
3 78 116 117
3 100 83 121
3 121 83 122
3 122 83 123
3 83 86 123
3 102 88 104
3 100 121 87
3 71 86 68
3 86 71 105
3 105 71 106
3 41 87 89
3 71 74 106
3 107 91 103
3 90 104 88
3 104 90 128
3 106 74 108
3 107 110 91
3 128 92 111
3 90 92 128
3 93 113 59
3 74 76 108
3 109 91 110
3 97 111 92
3 108 76 112
3 59 113 80
3 76 98 114
3 112 76 114
3 115 111 97
3 116 80 113
3 113 130 116
3 97 120 115
3 117 116 130
3 119 120 97
3 124 133 102
3 125 122 123
3 125 123 134
3 123 86 134
3 105 134 86
3 105 126 134
3 133 101 102
3 124 102 104
3 125 87 122
3 122 87 121
3 126 105 106
3 126 106 127
3 141 107 103
3 139 104 128
3 87 142 89
3 129 127 106
3 108 129 106
3 146 110 107
3 147 128 111
3 112 129 108
3 149 109 110
3 154 111 115
3 113 148 130
3 130 148 131
3 112 114 132
3 153 157 109
3 157 118 109
3 117 130 131
3 131 155 117
3 155 98 117
3 98 155 114
3 155 132 114
3 119 118 160
3 119 160 120
3 133 124 161
3 134 135 125
3 136 135 134
3 126 136 134
3 136 126 137
3 101 164 103
3 164 101 133
3 137 126 127
3 164 141 103
3 87 125 142
3 125 143 142
3 140 143 125
3 127 129 138
3 138 129 144
3 138 144 166
3 93 89 142
3 142 143 93
3 166 144 168
3 143 148 93
3 143 167 148
3 167 152 148
3 129 150 144
3 144 150 151
3 144 151 168
3 112 150 129
3 153 109 149
3 113 93 148
3 131 148 152
3 131 152 169
3 132 156 112
3 150 112 156
3 169 155 131
3 158 155 169
3 132 155 158
3 159 132 158
3 132 159 156
3 118 157 160
3 170 115 120
3 160 174 120
3 162 135 136
3 175 135 162
3 163 162 137
3 136 137 162
3 163 137 165
3 164 133 177
3 133 161 177
3 125 135 140
3 135 175 140
3 165 137 127
3 178 165 127
3 178 127 138
3 178 138 166
3 140 184 143
3 178 166 185
3 141 146 107
3 143 184 167
3 185 166 168
3 146 149 110
3 185 168 188
3 188 168 151
3 150 188 151
3 158 169 171
3 159 171 156
3 172 156 171
3 156 172 150
3 150 172 188
3 157 173 160
3 159 158 171
3 174 160 173
3 170 120 174
3 163 176 162
3 176 163 165
3 124 192 161
3 162 176 175
3 165 178 179
3 178 180 179
3 181 164 177
3 192 124 104
3 104 139 192
3 141 164 181
3 182 180 178
3 180 182 183
3 185 182 178
3 146 141 181
3 182 146 183
3 182 186 146
3 187 182 185
3 182 187 186
3 146 196 149
3 167 198 152
3 188 187 185
3 173 153 196
3 153 149 196
3 189 187 188
3 157 153 173
3 190 171 169
3 172 190 189
3 172 189 188
3 190 172 171
3 165 191 176
3 176 191 175
3 191 165 179
3 191 179 205
3 206 177 161
3 179 180 193
3 206 195 177
3 195 181 177
3 193 180 183
3 183 194 193
3 181 195 194
3 181 194 146
3 146 194 183
3 184 198 167
3 186 197 146
3 146 197 196
3 198 199 152
3 186 187 200
3 186 200 197
3 196 197 201
3 196 201 173
3 169 152 199
3 199 202 169
3 189 203 187
3 187 203 200
3 201 215 173
3 170 154 115
3 190 169 202
3 202 204 190
3 190 204 189
3 189 204 213
3 189 213 203
3 173 215 174
3 161 217 206
3 161 192 217
3 205 179 207
3 179 193 207
3 191 209 175
3 205 209 191
3 194 207 193
3 207 194 208
3 208 194 195
3 206 208 195
3 175 210 140
3 175 209 210
3 210 184 140
3 210 221 198
3 184 210 198
3 221 199 198
3 199 221 211
3 211 204 199
3 199 204 202
3 211 223 204
3 212 201 197
3 223 213 204
3 200 214 197
3 197 214 212
3 201 212 215
3 213 214 203
3 203 214 200
3 212 216 215
3 215 216 174
3 206 217 218
3 205 219 209
3 219 205 218
3 205 207 218
3 208 218 207
3 218 208 206
3 220 210 209
3 220 209 229
3 229 230 220
3 210 220 221
3 220 211 221
3 220 230 211
3 230 222 211
3 223 211 222
3 222 224 223
3 223 224 213
3 225 213 224
3 225 214 213
3 212 214 225
3 212 225 216
3 216 233 174
3 233 170 174
3 218 217 226
3 227 226 217
3 217 192 227
3 234 228 226
3 226 228 218
3 218 228 219
3 228 229 219
3 229 209 219
3 222 231 224
3 224 231 225
3 231 239 232
3 231 232 225
3 232 216 225
3 233 216 232
3 226 235 234
3 227 235 226
3 228 236 229
3 228 237 236
3 228 234 237
3 236 238 229
3 237 238 236
3 229 238 230
3 145 128 147
3 230 238 222
3 222 238 231
3 238 239 231
3 239 240 232
3 240 233 232
3 240 170 233
3 235 227 241
3 241 227 192
3 192 139 241
3 235 242 234
3 241 246 242
3 235 241 242
3 234 242 237
3 139 128 145
3 237 243 238
3 237 242 243
3 242 244 243
3 239 238 243
3 244 245 243
3 147 111 154
3 243 245 239
3 240 239 245
3 245 251 240
3 240 251 170
3 170 251 250
3 250 154 170
3 241 247 246
3 241 139 247
3 139 145 247
3 248 242 246
3 244 242 248
3 246 247 248
3 247 249 248
3 247 147 249
3 145 147 247
3 245 244 248
3 249 250 248
3 249 147 250
3 147 154 250
3 251 245 248
3 248 250 251
