ply
format ascii 1.0
element vertex 252
property float x
property float y
property float z
element face 500
property list uchar int vertex_indices
end_header
-0.497055 -0.153476 -0.349730
-0.485221 -0.162133 -0.016054
-0.539544 -0.042076 -0.364898
-0.493079 -0.074441 -0.421289
-0.505242 -0.008200 0.048901
-0.513790 0.029630 -0.422331
-0.547620 0.058481 -0.318119
-0.531560 0.078869 0.037892
-0.493255 0.155009 -0.342498
-0.491612 0.164002 0.018471
-0.426280 -0.207422 -0.365371
-0.432234 -0.240635 -0.273883
-0.435485 -0.208485 0.054894
-0.395587 -0.123103 0.176908
-0.450595 0.119162 -0.422567
-0.421802 0.207082 -0.366153
-0.451812 0.240641 -0.056211
-0.418636 0.227052 0.051344
-0.354352 -0.295752 -0.116840
-0.349488 -0.286871 0.002616
-0.424830 -0.258145 -0.039180
-0.181890 -0.213830 0.321486
-0.431133 0.007612 -0.452958
-0.410985 0.250512 -0.282403
-0.357330 0.285816 -0.030642
-0.351296 0.300758 -0.124770
-0.367399 -0.244740 -0.320336
-0.200079 -0.278186 0.140294
-0.349036 -0.128952 -0.400903
-0.225653 -0.230754 -0.285655
-0.225761 -0.012234 0.405951
-0.352884 0.000436 -0.442251
-0.217509 0.088806 0.395327
-0.358655 0.126216 -0.410460
-0.191979 0.159567 0.375396
-0.201185 0.166031 -0.337404
-0.350556 0.231670 -0.331472
-0.280044 0.285292 -0.197537
-0.221821 0.271584 0.145206
-0.258230 -0.286432 -0.166374
-0.280444 -0.296975 -0.025231
-0.207710 -0.267434 -0.091295
-0.192752 -0.251531 0.047560
-0.153481 -0.118869 -0.342504
-0.181034 -0.096963 0.440230
-0.219529 0.023745 -0.385364
-0.190221 0.243300 -0.264211
-0.170919 0.223145 -0.009334
-0.216617 0.269514 0.063320
-0.286928 0.296685 -0.097543
-0.130486 -0.242689 -0.180434
-0.081831 -0.261792 0.339977
-0.120946 -0.141934 -0.048131
-0.096222 -0.148158 0.058850
-0.114222 -0.185039 -0.797624
-0.157101 -0.125057 -0.749161
-0.125702 -0.148168 -0.665340
-0.115394 -0.179090 0.460251
-0.161360 -0.063712 -0.835595
-0.121267 -0.094912 0.528473
-0.148450 -0.001152 -0.655403
-0.174787 0.042370 -0.746447
-0.149618 0.011142 0.496555
-0.162526 0.072605 -0.811261
-0.125647 0.142190 -0.655002
-0.119058 0.192801 -0.735287
-0.103332 0.174532 0.453286
-0.073771 0.194209 -0.797833
-0.147930 0.243223 -0.128682
-0.093612 0.218745 0.133566
-0.142067 0.227894 0.335008
-0.150203 0.261603 -0.183679
-0.067955 0.265775 0.339083
-0.052095 -0.262507 0.275973
-0.030884 -0.256233 -0.737272
-0.069813 -0.225345 -0.259557
-0.002361 -0.251898 0.480625
-0.110424 -0.209695 -0.727786
-0.041949 -0.214609 -0.591893
0.114793 -0.198101 0.334274
-0.018234 -0.196820 0.568722
-0.018406 -0.167946 -0.496928
-0.012163 -0.164708 -0.124502
-0.111227 -0.092032 -0.866574
-0.097440 -0.053904 -0.573111
-0.033725 -0.119569 -0.358865
-0.096430 -0.049295 0.011499
-0.060334 0.032589 -0.503248
-0.099761 0.005941 -0.041966
-0.099042 0.019790 -0.872673
-0.057986 0.051230 -0.367469
-0.092026 0.094673 -0.568498
-0.087499 0.113247 0.044533
-0.120396 0.151256 -0.044994
0.008478 0.164285 0.615680
-0.023955 0.174900 -0.511179
-0.045932 0.224215 -0.612215
-0.038414 0.123614 -0.104688
0.177535 0.215020 0.434949
0.022154 0.255919 0.487458
-0.062171 0.249485 -0.722371
-0.011859 0.234272 -0.201115
-0.065030 0.271293 0.277867
0.026803 -0.268662 -0.610314
-0.009022 -0.240754 -0.215269
0.033101 -0.239661 -0.503554
0.033373 -0.224139 -0.803690
0.024554 -0.197544 -0.426928
0.063483 -0.120340 0.748110
-0.025842 -0.048095 -0.414179
-0.035854 -0.047579 -0.084375
0.041496 0.022055 0.738008
0.106066 0.085225 -0.872592
-0.012451 0.112163 -0.421345
0.002555 0.145668 -0.859291
0.038247 0.210641 -0.352315
0.191393 0.144228 0.374057
0.036471 0.214868 -0.434705
-0.021475 0.220557 -0.279424
0.042175 0.261473 -0.546819
0.046627 -0.269383 -0.729695
0.092916 -0.268764 0.466019
0.112782 -0.269411 -0.554737
0.116890 -0.267653 -0.418150
0.059204 -0.245102 -0.283017
0.172943 -0.206819 0.418086
0.103090 -0.267065 0.567501
0.132629 -0.226757 0.701987
0.162596 -0.195331 -0.112335
0.203688 -0.113952 0.373923
0.122623 -0.133853 0.813127
0.119970 -0.088512 -0.067527
0.201979 -0.001187 0.345632
0.090521 -0.045407 0.817107
0.097332 -0.025640 -0.868827
0.083611 0.026237 -0.080856
0.078117 0.036842 0.207308
0.134463 0.127391 0.806248
0.106860 0.183357 0.731717
0.129301 0.167751 -0.109323
0.088911 0.189873 -0.808202
0.086079 0.256399 -0.266082
0.158533 0.246417 -0.178499
0.117715 0.242801 0.643015
0.033541 0.262904 -0.688661
0.114718 0.269522 -0.403321
0.026458 0.275254 0.411247
0.127000 0.264594 0.584807
0.192156 -0.273906 -0.258288
0.125338 -0.212597 -0.746841
0.195506 -0.270476 -0.425719
0.131463 -0.246363 -0.190511
0.171999 -0.267800 0.590726
0.223097 -0.250124 0.716159
0.107807 -0.185237 -0.815360
0.166241 -0.070532 -0.807303
0.200571 -0.084172 -0.740041
0.131073 -0.033632 0.861047
0.204541 0.041909 -0.750740
0.154441 0.079230 -0.838664
0.205838 0.077688 0.355506
0.144059 0.203108 -0.731061
0.121594 0.271266 -0.573531
0.178720 0.221458 -0.643335
0.176408 0.239718 0.716924
0.178276 0.258182 0.573647
0.211433 -0.212618 -0.559675
0.271714 -0.220074 -0.441272
0.225132 -0.210618 0.504239
0.275797 -0.242250 0.652480
0.192635 -0.193513 0.806044
0.223515 -0.122647 -0.661503
0.276122 -0.212725 -0.040820
0.251452 -0.083280 0.426828
0.296417 -0.052025 0.483071
0.270929 -0.075605 -0.590244
0.178345 -0.072708 0.876978
0.272408 -0.125381 0.055216
0.297352 -0.074017 0.118661
0.250176 -0.008663 -0.658831
0.273438 0.050449 -0.594714
0.229107 0.015687 0.036145
0.300863 0.049481 0.125455
0.198349 0.047241 0.882022
0.248762 0.085572 0.424436
0.222268 0.122557 -0.665791
0.296884 0.078504 0.487482
0.214028 0.212155 -0.564654
0.244753 0.200972 0.505701
0.217669 0.198754 0.808996
0.198374 0.222715 -0.116908
0.281334 0.188533 -0.003625
0.264529 0.220808 -0.450806
0.315216 0.231180 0.656252
0.206567 0.272194 -0.402098
0.336324 0.218173 -0.310931
0.203337 0.274763 -0.236180
0.267176 0.248893 0.712373
0.347584 -0.241586 -0.210369
0.277171 -0.255181 -0.126381
0.327262 -0.209336 0.739632
0.288422 -0.154286 -0.498136
0.330998 -0.148221 -0.416407
0.356865 -0.178069 0.089592
0.268385 -0.207197 0.800416
0.341925 -0.140076 0.815842
0.389189 -0.134820 0.662568
0.263211 -0.056904 0.877983
0.318904 -0.010450 -0.500860
0.275110 0.104083 0.868814
0.283046 0.153342 -0.502754
0.335882 0.133329 -0.410366
0.412289 0.115328 0.673791
0.359539 0.191161 0.085862
0.279528 0.202928 0.805398
0.276326 0.254606 -0.119327
0.352727 0.198919 0.728503
0.340317 0.256434 -0.167134
0.354031 -0.255574 -0.071875
0.418624 -0.127046 -0.275590
0.443304 -0.180043 -0.186795
0.418491 -0.095634 0.735991
0.352015 -0.043753 0.163221
0.366504 -0.027979 -0.410434
0.429754 0.007909 -0.298399
0.364203 0.008936 0.832589
0.362167 0.093340 0.156282
0.433799 -0.010719 0.661063
0.416656 0.136200 -0.270755
0.339052 0.135417 0.823425
0.421267 0.103711 0.745302
0.433430 0.186135 -0.187146
0.360194 0.247324 -0.040817
0.417425 -0.234866 -0.120592
0.422931 -0.227929 0.004911
0.436221 -0.177143 0.118654
0.481916 -0.156792 -0.100438
0.494717 -0.149976 0.099006
0.425852 -0.097306 0.165821
0.477577 -0.086128 -0.202628
0.485361 0.060434 -0.193693
0.449207 0.035647 0.720144
0.490676 0.060438 0.158084
0.428645 0.181068 0.123043
0.485541 0.152368 -0.094502
0.421303 0.228555 0.012641
0.492175 0.160234 0.106899
0.421382 0.229507 -0.111417
0.510700 -0.082599 0.152376
0.532781 -0.053662 0.122087
0.518569 -0.004597 -0.109899
0.528215 0.085620 0.112467
3 0 2 1
3 3 2 0
3 1 2 4
3 3 5 2
3 2 5 6
3 2 6 4
3 4 6 7
3 8 6 5
3 6 8 9
3 6 9 7
3 11 1 20
3 1 12 20
3 10 0 11
3 11 0 1
3 10 3 0
3 1 13 12
3 4 13 1
3 22 5 3
3 5 22 14
3 5 14 8
3 8 14 15
3 8 16 9
3 9 16 17
3 15 23 8
3 8 23 16
3 26 11 18
3 11 20 18
3 18 20 19
3 11 26 10
3 12 19 20
3 19 12 21
3 26 28 10
3 28 3 10
3 3 28 22
3 28 31 22
3 31 33 22
3 33 14 22
3 33 15 14
3 33 36 15
3 9 17 34
3 37 23 36
3 36 23 15
3 24 17 16
3 37 25 23
3 23 25 16
3 16 25 24
3 39 18 40
3 18 19 40
3 26 39 29
3 26 18 39
3 27 40 19
3 27 19 21
3 28 26 29
3 29 43 28
3 4 30 13
3 32 30 4
3 7 32 4
3 9 32 7
3 36 33 35
3 35 46 36
3 36 46 37
3 17 24 38
3 24 49 48
3 24 48 38
3 49 25 37
3 25 49 24
3 40 41 39
3 39 50 29
3 39 41 50
3 42 41 40
3 40 27 42
3 13 21 12
3 21 13 44
3 30 44 13
3 43 45 28
3 45 31 28
3 45 33 31
3 35 33 45
3 34 32 9
3 17 38 70
3 71 37 46
3 49 37 68
3 68 37 71
3 68 47 49
3 49 47 48
3 42 27 73
3 51 73 27
3 75 29 50
3 52 50 41
3 42 52 41
3 42 73 53
3 51 27 21
3 54 55 77
3 55 56 77
3 75 43 29
3 54 58 55
3 52 42 53
3 21 44 57
3 57 44 59
3 83 58 54
3 75 85 43
3 56 55 60
3 56 60 84
3 89 58 83
3 55 58 61
3 55 61 60
3 85 90 43
3 90 45 43
3 59 44 62
3 63 58 89
3 58 63 61
3 84 60 91
3 44 30 62
3 60 61 64
3 60 64 91
3 30 32 62
3 67 63 89
3 61 63 65
3 61 65 64
3 90 35 45
3 62 32 66
3 63 67 65
3 93 92 47
3 92 69 47
3 32 34 66
3 68 93 47
3 17 70 34
3 66 34 70
3 47 69 48
3 69 102 48
3 70 38 72
3 102 38 48
3 38 102 72
3 54 77 74
3 74 77 78
3 50 104 75
3 53 73 79
3 21 57 51
3 51 57 76
3 76 57 80
3 56 78 77
3 50 82 104
3 50 52 82
3 57 59 80
3 106 83 54
3 84 78 56
3 78 84 81
3 110 82 52
3 53 86 52
3 81 84 87
3 81 87 109
3 88 110 52
3 52 86 88
3 59 62 111
3 84 91 87
3 97 110 88
3 86 92 88
3 93 97 88
3 88 92 93
3 62 94 111
3 112 114 89
3 114 67 89
3 87 91 95
3 87 95 113
3 66 94 62
3 96 91 64
3 91 96 95
3 90 118 35
3 96 64 65
3 118 46 35
3 97 68 101
3 97 93 68
3 94 66 99
3 100 65 67
3 96 65 100
3 101 71 46
3 101 46 118
3 101 68 71
3 102 69 98
3 70 72 66
3 66 72 99
3 78 103 74
3 103 120 74
3 73 51 121
3 51 76 121
3 106 54 74
3 120 106 74
3 103 78 105
3 124 75 104
3 81 105 78
3 105 81 107
3 107 85 124
3 124 85 75
3 59 108 80
3 109 107 81
3 107 109 85
3 128 82 131
3 131 82 110
3 86 53 132
3 111 108 59
3 134 89 83
3 131 110 135
3 132 136 86
3 85 109 90
3 86 136 92
3 134 112 89
3 113 109 87
3 109 113 90
3 135 110 97
3 90 113 115
3 95 117 113
3 113 117 115
3 90 115 118
3 97 101 139
3 69 92 116
3 140 67 114
3 95 119 117
3 69 116 98
3 67 140 144
3 100 67 144
3 95 96 119
3 141 118 115
3 141 101 118
3 98 146 102
3 100 144 96
3 144 119 96
3 146 72 102
3 72 146 99
3 122 120 103
3 105 122 103
3 105 123 122
3 123 124 148
3 148 124 151
3 125 73 121
3 126 121 76
3 106 120 149
3 149 120 122
3 151 124 104
3 79 73 125
3 126 76 80
3 126 80 127
3 106 149 154
3 123 105 107
3 124 123 107
3 151 104 82
3 128 151 82
3 53 79 129
3 108 127 80
3 108 130 127
3 154 134 106
3 134 83 106
3 53 129 132
3 130 108 133
3 130 133 157
3 108 111 133
3 133 111 137
3 133 137 157
3 135 97 139
3 136 160 92
3 94 138 111
3 111 138 137
3 140 114 112
3 92 160 116
3 101 142 139
3 94 99 143
3 143 138 94
3 140 161 144
3 161 162 144
3 117 119 145
3 117 145 115
3 115 145 141
3 141 142 101
3 99 147 143
3 162 119 144
3 162 145 119
3 165 99 146
3 99 165 147
3 122 123 150
3 150 123 148
3 152 121 126
3 122 166 149
3 166 122 150
3 125 121 168
3 168 121 152
3 153 152 127
3 126 127 152
3 153 127 170
3 170 127 130
3 154 149 155
3 149 156 155
3 149 171 156
3 129 79 125
3 134 154 155
3 170 130 176
3 176 130 157
3 156 158 155
3 176 157 183
3 159 134 155
3 155 158 159
3 112 134 159
3 132 160 136
3 183 157 137
3 140 112 159
3 158 161 159
3 183 137 189
3 159 161 140
3 142 190 139
3 143 164 138
3 189 137 164
3 137 138 164
3 162 161 163
3 163 187 162
3 187 194 162
3 98 165 146
3 98 188 165
3 147 165 143
3 164 143 165
3 194 145 162
3 194 196 145
3 145 196 141
3 142 141 196
3 167 150 198
3 150 148 198
3 151 199 148
3 153 169 152
3 167 166 150
3 128 199 151
3 199 128 172
3 169 168 152
3 169 153 200
3 153 204 200
3 170 204 153
3 166 171 149
3 201 166 167
3 201 175 166
3 131 172 128
3 172 131 177
3 173 129 125
3 125 168 173
3 168 174 173
3 166 175 171
3 204 170 207
3 207 170 176
3 179 156 171
3 158 156 179
3 171 175 179
3 175 180 179
3 181 177 131
3 177 181 178
3 178 181 182
3 129 173 132
3 207 176 183
3 135 181 131
3 173 184 132
3 173 174 184
3 132 184 160
3 207 183 209
3 185 158 179
3 179 180 185
3 139 181 135
3 161 158 185
3 180 187 185
3 181 139 191
3 160 184 116
3 186 188 184
3 209 183 189
3 163 161 185
3 185 187 163
3 180 210 187
3 98 116 184
3 184 188 98
3 210 192 187
3 190 191 139
3 209 189 214
3 192 194 187
3 194 192 195
3 215 190 142
3 190 215 191
3 165 188 193
3 193 197 165
3 197 189 164
3 214 189 197
3 215 142 196
3 197 164 165
3 198 148 199
3 167 198 202
3 199 218 198
3 199 172 218
3 172 203 218
3 167 202 201
3 172 177 203
3 168 169 206
3 200 204 205
3 203 177 178
3 174 168 206
3 203 178 222
3 205 204 207
3 208 175 201
3 180 175 208
3 202 223 208
3 202 208 201
3 205 207 225
3 222 178 182
3 222 182 226
3 186 184 174
3 174 227 186
3 225 207 209
3 210 180 208
3 208 211 210
3 186 227 212
3 225 209 229
3 181 191 182
3 182 191 213
3 182 213 226
3 188 186 212
3 229 209 214
3 210 211 192
3 211 195 192
3 188 212 193
3 215 232 191
3 232 213 191
3 216 197 193
3 216 214 197
3 217 194 195
3 196 194 217
3 217 215 196
3 215 217 232
3 198 218 233
3 233 218 234
3 218 203 234
3 203 235 234
3 202 198 219
3 198 220 219
3 198 233 220
3 200 206 169
3 221 206 200
3 200 205 221
3 235 203 238
3 238 203 222
3 202 219 223
3 219 224 223
3 225 221 205
3 206 227 174
3 241 221 225
3 238 222 242
3 242 222 226
3 211 208 223
3 223 224 211
3 230 241 225
3 211 224 228
3 242 226 243
3 229 230 225
3 243 226 213
3 230 216 212
3 214 216 229
3 216 230 229
3 195 211 228
3 228 231 195
3 231 217 195
3 231 247 217
3 216 193 212
3 232 217 247
3 232 247 245
3 232 245 213
3 243 213 245
3 220 233 236
3 233 234 236
3 234 237 236
3 235 237 234
3 237 235 248
3 235 238 248
3 220 239 219
3 220 236 239
3 219 239 224
3 239 240 224
3 206 221 227
3 248 238 242
3 221 241 227
3 227 241 212
3 224 240 228
3 241 230 212
3 228 240 231
3 240 244 231
3 245 244 246
3 246 242 243
3 247 231 244
3 244 245 247
3 243 245 246
3 249 236 237
3 237 248 249
3 250 239 236
3 236 249 250
3 240 239 250
3 249 251 250
3 249 242 251
3 248 242 249
3 244 240 250
3 250 251 244
3 246 244 251
3 251 242 246
