ply
format ascii 1.0
element vertex 250
property float x
property float y
property float z
element face 500
property list uchar int vertex_indices
end_header
-0.809482 -0.216992 0.422614
-0.814908 -0.187912 0.315323
-0.810825 -0.183298 0.505770
-0.877502 -0.092651 0.370231
-0.856536 -0.059330 0.486632
-0.817813 0.042248 0.189145
-0.875171 0.062673 0.374393
-0.839659 0.076994 0.513546
-0.828558 0.133808 0.248085
-0.796460 0.211819 0.339261
-0.815418 0.182243 0.448881
-0.643103 -0.301640 0.317509
-0.711715 -0.169306 0.176730
-0.761437 -0.233627 0.503894
-0.681118 -0.160661 0.624928
-0.778991 -0.021085 0.121295
-0.712554 0.120233 0.124407
-0.743814 0.184665 0.188071
-0.668880 0.198306 0.619153
-0.689762 0.300880 0.429584
-0.731960 -0.021667 0.099204
-0.672099 0.061505 0.682527
-0.629565 0.324100 0.337982
-0.565551 -0.317402 0.483440
-0.622920 -0.241316 0.194330
-0.585816 -0.127331 0.099677
-0.603295 0.248718 0.181134
-0.574842 -0.179324 0.690109
-0.483952 -0.134272 -0.352629
-0.510445 -0.167055 0.042795
-0.506797 -0.081814 0.769987
-0.546653 -0.051073 0.028680
-0.591153 -0.018397 0.738394
-0.501016 -0.029983 -0.423974
-0.517100 0.010636 -0.330289
-0.599135 0.054309 0.080240
-0.495122 0.069905 -0.428333
-0.512297 0.157938 0.021349
-0.483757 0.144618 -0.348988
-0.508780 0.057075 0.782227
-0.575194 0.177493 0.109523
-0.562815 0.165760 0.719824
-0.538536 0.343284 0.474663
-0.329851 -0.401279 0.313585
-0.461003 -0.290176 0.164032
-0.388713 -0.194763 0.717767
-0.430855 -0.235948 -0.294946
-0.418962 -0.076359 -0.589734
-0.449138 -0.099331 -0.519656
-0.458927 0.044029 -0.515570
-0.406777 0.103239 -0.591331
-0.439813 0.144545 -0.496851
-0.451542 0.278062 0.130065
-0.410079 0.241752 -0.317469
-0.403309 0.281300 0.019538
-0.420814 0.236516 0.701941
-0.350452 0.405737 0.328798
-0.277547 -0.405790 0.405406
-0.346832 -0.300544 -0.266831
-0.403825 -0.291043 0.056343
-0.390526 -0.185018 -0.538070
-0.417256 -0.026532 0.794600
-0.373142 -0.074638 -0.674027
-0.332270 -0.091516 -0.736417
-0.321975 0.020136 -0.751834
-0.347882 0.138352 -0.675679
-0.434582 0.141390 0.776136
-0.330944 0.219202 -0.610771
-0.294746 0.325072 -0.194915
-0.308357 0.402575 0.424383
-0.258157 -0.372865 0.145537
-0.176362 -0.334883 -0.092822
-0.254413 -0.356593 0.533936
-0.271712 -0.294215 -0.465104
-0.286881 -0.194875 -0.677958
-0.277232 0.185484 -0.706722
-0.277798 0.302084 -0.504776
-0.234413 0.389738 0.155965
-0.147758 -0.347435 0.508505
-0.171081 -0.282814 -0.647637
-0.021899 -0.195165 0.743626
-0.253968 -0.058273 -0.773738
0.018938 -0.083032 0.783358
-0.256423 0.059719 -0.775502
-0.055688 0.216577 0.726714
-0.172138 0.287060 -0.633817
-0.156177 0.305996 0.616913
-0.195399 0.323437 -0.181585
-0.203038 0.380369 0.026212
-0.243626 0.412023 0.343095
-0.133561 0.336700 0.496987
-0.197048 -0.395259 0.317911
-0.049017 -0.358145 0.121258
-0.135788 -0.301947 -0.570318
-0.176489 -0.305023 -0.313355
-0.092461 -0.273827 -0.454642
-0.056305 -0.251620 -0.161221
-0.085038 -0.271881 0.652424
-0.074757 -0.227141 -0.747719
-0.081901 0.083637 -0.806909
0.031392 0.079122 0.777290
-0.055463 0.209447 -0.770818
-0.210070 0.314988 -0.492848
-0.126589 0.266515 -0.419720
-0.078622 0.392959 0.190013
-0.053603 -0.337388 0.011931
-0.052682 -0.287754 -0.666789
-0.019461 -0.270986 -0.561242
0.046425 -0.239031 0.447210
-0.036825 -0.271197 0.605142
-0.023982 -0.188827 -0.409330
-0.032440 -0.019457 -0.847419
-0.046705 0.205229 -0.180510
-0.114203 0.291199 -0.553328
0.020907 0.284085 -0.618534
-0.086776 0.377570 0.096437
0.029991 0.282361 0.380014
-0.039277 0.256502 0.656693
0.023642 -0.181356 0.702951
0.038178 -0.186690 -0.490784
0.050260 -0.197683 -0.137465
0.048794 -0.133124 -0.903952
0.016950 -0.208042 -0.817147
-0.001626 -0.008771 -0.305241
0.019257 -0.123252 -0.199483
0.091648 0.015728 -0.958217
0.041582 -0.003048 -0.433222
-0.029421 0.162212 -0.430554
0.040773 0.059572 -0.201600
0.056704 0.141726 -0.920271
-0.031786 0.125784 -0.285150
0.022842 0.191909 -0.827414
0.040547 0.195444 -0.514647
0.031954 0.216697 -0.108197
0.045973 0.209627 0.522001
0.029028 0.181861 0.722978
0.205261 -0.318464 0.132877
0.087027 -0.320182 0.000260
0.109214 -0.220872 -0.866701
0.083152 -0.275586 -0.762502
0.114761 -0.277802 -0.659610
0.217729 -0.205312 0.340428
0.114743 -0.139193 0.454441
0.084654 -0.137571 0.514497
0.075332 -0.030736 0.748891
0.128113 0.048555 0.496873
0.075327 0.097439 0.732059
0.123729 0.182282 0.424984
0.106660 0.222932 -0.873620
0.091981 0.281368 -0.755227
0.125543 0.322196 0.004236
0.144300 0.316962 0.230723
0.171587 0.350245 0.096330
0.109891 -0.202909 -0.546124
0.228350 -0.202742 -0.592306
0.280095 -0.241350 -0.189366
0.120127 -0.110687 -0.956550
0.120723 -0.099036 -0.194535
0.195230 -0.127986 0.405487
0.118365 -0.050465 -0.983973
0.101631 -0.059117 -0.475539
0.195820 -0.043137 -0.518378
0.116467 0.042909 -0.204838
0.114033 0.148636 -0.945548
0.126476 0.086748 -0.495217
0.198922 0.101949 -0.525282
0.161776 0.167358 -0.173367
0.169194 0.201645 -0.564021
0.162492 0.286426 -0.671560
0.233026 -0.344996 0.024576
0.207058 -0.290620 -0.724128
0.235192 -0.293363 -0.802291
0.274606 -0.139617 -0.269539
0.298636 -0.100797 0.359452
0.196016 -0.006918 0.435901
0.230174 0.010941 -0.275816
0.315697 0.017183 0.374963
0.708167 0.089477 -0.959105
0.210655 0.125281 0.402054
0.274065 0.128292 -0.281514
0.641863 0.230236 -0.890088
0.165914 0.214185 0.362741
0.208110 0.291644 -0.802476
0.325588 0.228987 0.235910
0.236929 0.300953 -0.736848
0.289857 0.315868 -0.068606
0.338988 -0.328353 -0.004907
0.349651 -0.319890 -0.108452
0.332751 -0.201137 0.265201
0.528352 -0.251008 -0.430240
0.625045 -0.236423 -0.888607
0.401220 -0.124236 -0.490210
0.337137 -0.045141 -0.528210
0.309333 0.076231 -0.539094
0.316555 0.239083 -0.214374
0.430088 0.224835 -0.584740
0.548486 -0.301354 -0.716152
0.520519 -0.303979 -0.267423
0.450220 -0.211259 0.134362
0.415990 -0.060686 0.288118
0.687510 -0.089385 -0.957003
0.395887 0.068521 -0.488977
0.482189 0.205054 -0.422777
0.400113 0.105821 0.288865
0.436881 0.182775 0.197105
0.408969 0.311489 -0.015258
0.598586 -0.305738 -0.809533
0.412639 -0.227610 -0.601574
0.539335 -0.301690 -0.177726
0.509467 -0.230817 -0.528885
0.493464 -0.083672 0.206636
0.496898 0.056898 0.202824
0.499264 0.198907 -0.497135
0.580603 0.223145 -0.031542
0.555793 0.306110 -0.750964
0.544477 0.304495 -0.304693
0.507221 0.301249 -0.689210
0.454990 0.327420 -0.160101
0.554842 0.315307 -0.190005
0.580768 -0.275361 -0.555149
0.595924 -0.148670 0.060799
0.647371 0.284649 -0.516337
0.669548 -0.286403 -0.801750
0.668725 -0.290164 -0.617433
0.664679 -0.281077 -0.381554
0.745215 0.003532 -0.092484
0.599408 0.303016 -0.646360
0.712145 0.281596 -0.721418
0.729327 0.286412 -0.410729
0.735032 -0.166360 -0.152007
0.749951 -0.180022 -0.882601
0.741290 0.138489 -0.126403
0.755416 0.184913 -0.878665
0.759551 0.220112 -0.245124
0.803006 0.211089 -0.710826
0.795894 0.238110 -0.560385
0.773494 -0.225683 -0.733896
0.788738 -0.232201 -0.582238
0.807354 -0.199353 -0.320910
0.839178 -0.076663 -0.760289
0.828972 -0.116981 -0.235840
0.790874 -0.005812 -0.915012
0.826283 0.012872 -0.213215
0.837719 0.085227 -0.765547
0.802046 0.144553 -0.218192
0.817746 0.193602 -0.342040
0.844547 -0.130206 -0.666443
0.856743 -0.120973 -0.400041
0.858192 0.057012 -0.642225
0.861126 0.036566 -0.353360
3 1 3 0
3 0 3 4
3 0 4 2
3 3 5 6
3 3 6 4
3 4 6 7
3 5 8 6
3 9 6 8
3 6 9 10
3 6 10 7
3 12 1 11
3 1 0 11
3 13 0 2
3 13 2 14
3 15 12 20
3 12 15 1
3 1 15 5
3 1 5 3
3 2 4 14
3 16 15 20
3 5 15 16
3 4 7 21
3 17 5 16
3 5 17 8
3 10 18 7
3 9 8 17
3 10 19 18
3 10 9 19
3 11 0 23
3 0 13 23
3 24 12 11
3 25 20 12
3 14 4 21
3 18 21 7
3 16 26 17
3 26 22 17
3 22 9 17
3 19 9 22
3 23 13 14
3 24 25 12
3 27 14 32
3 35 20 25
3 32 14 21
3 35 16 20
3 35 40 16
3 32 21 41
3 41 21 18
3 40 26 16
3 19 42 18
3 22 42 19
3 11 43 44
3 43 11 23
3 44 24 11
3 14 27 23
3 29 25 44
3 44 25 24
3 30 45 27
3 28 31 29
3 29 31 25
3 32 30 27
3 33 34 28
3 28 34 31
3 25 31 35
3 30 32 39
3 33 36 34
3 31 34 37
3 31 37 35
3 38 34 36
3 34 38 37
3 35 37 40
3 41 39 32
3 37 52 40
3 40 52 26
3 41 18 42
3 56 22 26
3 56 42 22
3 43 23 57
3 23 27 45
3 46 29 59
3 59 29 44
3 46 28 29
3 30 61 45
3 48 33 28
3 48 47 49
3 48 49 33
3 47 50 49
3 61 30 39
3 33 49 36
3 61 39 66
3 50 51 49
3 51 36 49
3 38 36 51
3 41 66 39
3 53 38 51
3 38 53 37
3 37 53 54
3 52 37 54
3 41 55 66
3 42 55 41
3 52 56 26
3 42 69 55
3 23 72 57
3 72 23 45
3 60 46 58
3 58 46 59
3 28 46 60
3 28 60 48
3 60 62 47
3 48 60 47
3 63 64 62
3 62 64 65
3 62 65 50
3 47 62 50
3 65 67 50
3 67 51 50
3 53 51 67
3 67 76 53
3 68 53 76
3 53 68 54
3 56 69 42
3 70 59 44
3 43 70 44
3 58 71 73
3 70 71 58
3 59 70 58
3 58 73 60
3 60 73 74
3 81 63 74
3 82 45 61
3 62 74 63
3 74 62 60
3 81 64 63
3 81 83 64
3 75 64 83
3 65 64 75
3 67 65 75
3 84 55 86
3 77 54 68
3 52 54 77
3 86 55 69
3 56 52 77
3 56 89 69
3 70 43 91
3 43 57 91
3 78 91 57
3 72 78 57
3 79 73 93
3 73 94 93
3 73 71 94
3 45 97 72
3 73 79 74
3 79 98 74
3 74 98 81
3 100 61 66
3 99 101 83
3 101 75 83
3 84 66 55
3 67 75 85
3 76 67 85
3 85 102 76
3 76 102 68
3 102 87 68
3 87 88 68
3 88 77 68
3 90 86 69
3 77 89 56
3 69 89 90
3 71 92 105
3 71 70 92
3 92 70 91
3 79 93 106
3 94 95 93
3 96 94 71
3 71 105 96
3 72 97 78
3 95 94 96
3 80 97 45
3 80 45 82
3 111 99 81
3 99 83 81
3 100 66 84
3 102 113 103
3 102 103 87
3 102 85 113
3 104 116 89
3 90 89 116
3 115 77 88
3 115 104 77
3 89 77 104
3 93 107 106
3 93 95 107
3 91 78 108
3 78 97 109
3 107 95 110
3 108 78 109
3 106 98 79
3 95 96 110
3 98 111 81
3 127 130 103
3 103 130 112
3 101 85 75
3 113 127 103
3 112 87 103
3 117 84 86
3 114 113 85
3 112 115 87
3 116 134 90
3 90 134 117
3 115 88 87
3 117 86 90
3 105 92 137
3 136 92 108
3 108 92 91
3 105 137 96
3 118 109 97
3 122 98 139
3 139 98 106
3 110 119 107
3 120 96 137
3 109 118 108
3 97 80 118
3 122 121 111
3 122 111 98
3 96 124 110
3 96 120 124
3 118 80 82
3 110 124 123
3 126 119 110
3 110 123 126
3 121 125 111
3 123 127 126
3 124 128 123
3 82 61 100
3 125 129 111
3 123 130 127
3 123 128 130
3 111 129 131
3 111 131 99
3 127 132 126
3 99 131 101
3 128 112 130
3 128 133 112
3 131 149 101
3 100 84 135
3 101 149 85
3 132 113 114
3 132 127 113
3 135 117 134
3 84 117 135
3 149 114 85
3 133 115 112
3 150 115 133
3 151 116 104
3 115 150 152
3 104 152 151
3 152 104 115
3 141 136 108
3 106 140 139
3 140 106 107
3 122 139 138
3 140 107 153
3 107 119 153
3 155 120 137
3 141 108 142
3 138 156 121
3 122 138 121
3 155 157 120
3 157 124 120
3 143 142 108
3 108 118 143
3 143 118 144
3 118 82 144
3 125 156 159
3 156 125 121
3 153 119 160
3 160 119 126
3 128 124 157
3 145 142 143
3 143 144 145
3 162 128 157
3 82 100 144
3 160 126 164
3 144 146 145
3 144 100 146
3 129 125 163
3 164 126 132
3 134 147 145
3 145 146 134
3 162 166 128
3 128 166 133
3 146 135 134
3 146 100 135
3 129 163 148
3 131 129 148
3 116 147 134
3 149 131 148
3 133 166 150
3 114 149 168
3 169 137 136
3 137 92 136
3 171 139 170
3 139 171 138
3 170 139 140
3 140 153 154
3 141 142 158
3 161 154 153
3 153 160 161
3 158 142 174
3 172 175 157
3 174 142 145
3 175 162 157
3 161 164 165
3 160 164 161
3 177 163 125
3 174 145 178
3 175 166 162
3 178 145 147
3 167 165 164
3 132 167 164
3 180 148 163
3 178 147 181
3 148 180 182
3 167 114 168
3 167 132 114
3 181 147 116
3 182 149 148
3 149 184 168
3 166 185 150
3 183 181 151
3 181 116 151
3 182 184 149
3 186 169 136
3 137 169 187
3 154 170 140
3 137 187 155
3 190 156 138
3 155 172 157
3 141 158 173
3 154 161 192
3 158 174 173
3 173 174 176
3 192 161 193
3 193 161 165
3 174 178 176
3 193 165 167
3 175 179 166
3 166 179 194
3 181 183 178
3 195 167 168
3 168 184 195
3 185 166 194
3 183 151 152
3 185 152 150
3 170 196 171
3 169 186 187
3 138 171 190
3 186 136 198
3 198 136 188
3 136 141 188
3 172 189 191
3 155 189 172
3 141 173 188
3 190 200 156
3 172 191 175
3 201 192 193
3 179 175 201
3 193 167 195
3 194 179 202
3 205 204 183
3 152 185 205
3 205 183 152
3 171 196 206
3 170 207 196
3 171 206 190
3 207 170 154
3 197 155 187
3 208 186 198
3 154 191 207
3 191 154 192
3 199 198 188
3 188 173 199
3 191 192 201
3 201 175 191
3 176 199 173
3 203 199 176
3 176 178 203
3 201 202 179
3 201 193 195
3 178 183 203
3 183 204 203
3 218 213 205
3 213 204 205
3 214 184 182
3 216 184 214
3 195 184 216
3 194 217 185
3 217 205 185
3 197 187 208
3 208 187 186
3 207 209 196
3 189 155 197
3 207 191 209
3 209 191 189
3 220 198 210
3 198 199 210
3 200 125 159
3 210 199 211
3 199 203 211
3 201 212 202
3 195 212 201
3 213 211 204
3 211 203 204
3 202 215 194
3 180 214 182
3 215 217 194
3 205 217 218
3 196 209 219
3 209 189 219
3 212 195 221
3 202 212 221
3 216 226 195
3 226 221 195
3 221 215 202
3 216 214 226
3 215 218 217
3 196 222 206
3 223 222 196
3 223 196 219
3 223 189 224
3 219 189 223
3 189 197 224
3 224 197 208
3 206 222 190
3 229 208 198
3 229 198 220
3 225 229 220
3 220 210 225
3 210 211 225
3 211 231 225
3 177 180 163
3 213 231 211
3 227 214 180
3 228 233 218
3 233 213 218
3 226 214 227
3 227 221 226
3 221 228 215
3 218 215 228
3 222 230 190
3 236 230 222
3 236 222 223
3 238 224 229
3 229 224 208
3 230 200 190
3 156 200 159
3 200 177 125
3 232 180 177
3 233 231 213
3 180 232 227
3 234 227 232
3 234 235 227
3 235 221 227
3 228 221 235
3 224 237 223
3 238 237 224
3 237 236 223
3 237 246 236
3 236 239 230
3 236 246 239
3 238 229 240
3 230 241 200
3 230 239 241
3 240 229 242
3 229 225 242
3 200 241 177
3 241 239 243
3 177 241 232
3 241 243 232
3 242 225 244
3 225 231 244
3 232 243 234
3 245 244 233
3 233 244 231
3 235 245 228
3 228 245 233
3 237 247 246
3 237 238 247
3 238 240 247
3 246 248 239
3 246 247 248
3 247 249 248
3 247 240 249
3 240 242 249
3 239 248 243
3 248 249 235
3 249 245 235
3 244 245 242
3 245 249 242
3 234 243 248
3 248 235 234
