ply
format ascii 1.0
element vertex 252
property float x
property float y
property float z
element face 500
property list uchar int vertex_indices
end_header
-0.629538 -0.192515 0.817084
-0.651790 -0.149417 0.691533
-0.700330 -0.094206 0.808577
-0.700547 -0.031454 0.668062
-0.703202 0.059309 0.798876
-0.669233 -0.004394 0.906026
-0.694956 0.050156 0.662226
-0.661000 0.178894 0.731523
-0.640112 0.143210 0.666478
-0.629724 0.197608 0.819924
-0.590252 -0.206991 0.726335
-0.672873 -0.119204 0.873874
-0.592881 -0.172323 0.908292
-0.667734 -0.020349 0.632620
-0.570280 -0.069198 0.963593
-0.583903 -0.001909 0.979072
-0.568000 0.084733 0.956439
-0.666841 0.108354 0.880896
-0.592030 0.177345 0.906028
-0.604920 0.210560 0.734184
-0.508509 -0.215189 0.888028
-0.595454 -0.147229 0.670447
-0.504172 -0.188773 0.724729
-0.592582 0.012450 0.641823
-0.587036 0.159719 0.679749
-0.500597 0.183708 0.736752
-0.485472 -0.232225 0.810063
-0.493581 -0.160754 0.944683
-0.490099 -0.081500 0.684004
-0.417100 -0.126799 -0.569997
-0.443543 -0.087108 -0.203584
-0.462350 -0.019296 -0.599195
-0.425738 -0.077447 -0.130304
-0.446644 -0.003015 -0.188409
-0.417220 0.039649 -0.112818
-0.472887 0.085112 0.697851
-0.440684 0.103350 -0.554789
-0.418425 0.120182 -0.199363
-0.490454 0.179476 0.937100
-0.503402 0.229204 0.807530
-0.504264 0.222630 0.880979
-0.359087 -0.225446 -0.536016
-0.343351 -0.248640 -0.458031
-0.412224 -0.147725 -0.193706
-0.341925 -0.221525 -0.184250
-0.361531 -0.177326 -0.588798
-0.377261 -0.156486 -0.107047
-0.447417 -0.015150 -0.623012
-0.366152 -0.048586 -0.023204
-0.336764 -0.036117 0.040872
-0.141653 0.038442 0.992916
-0.323469 0.076362 0.044757
-0.340492 0.139042 -0.033536
-0.363122 0.180964 -0.112588
-0.440870 0.141832 0.727371
-0.414094 0.172030 -0.530807
-0.354982 0.159157 -0.575711
-0.349546 0.234256 -0.498780
-0.353813 0.220738 -0.202420
-0.259645 -0.263946 -0.491990
-0.263424 -0.237792 -0.120682
-0.227291 -0.194484 0.762001
-0.362071 -0.115629 -0.617093
-0.337301 -0.176587 -0.068260
-0.308688 -0.143351 0.027103
-0.273414 -0.115534 0.726617
-0.049587 -0.060295 0.954512
-0.333563 0.000538 -0.632326
-0.293451 -0.092178 0.114484
-0.267803 0.021340 0.711068
-0.303499 0.028981 0.115141
-0.090214 0.131246 0.962591
-0.278131 0.181152 0.039336
-0.286330 0.150287 0.749341
-0.279405 0.234233 -0.077864
-0.152024 0.212629 0.800293
-0.109821 0.196937 0.894067
-0.240524 0.268892 -0.489439
-0.270185 0.274830 -0.300521
-0.279113 -0.277909 -0.407485
-0.190188 -0.235639 -0.203747
-0.123683 -0.216148 0.891979
-0.255766 -0.202879 0.042769
-0.198280 -0.215921 0.060264
-0.179480 -0.192268 0.344779
-0.238944 -0.188129 0.127988
-0.116114 -0.173886 0.932958
-0.181901 -0.147338 0.434071
-0.245225 -0.056934 0.333812
-0.229449 -0.026432 0.418688
0.269392 -0.039569 -0.618165
-0.269422 0.124508 0.137736
-0.224178 0.136106 0.331969
-0.184691 0.135023 0.426920
0.279190 0.117439 -0.595803
0.256192 0.181271 -0.573302
-0.199169 0.206736 0.094832
-0.162047 0.222462 0.230048
-0.277651 0.281689 -0.459203
-0.185687 -0.277383 -0.408515
-0.199152 -0.264866 -0.302693
0.228610 -0.178831 -0.566880
-0.116881 -0.220809 -0.311130
-0.186919 -0.217753 -0.062427
-0.098982 -0.213251 0.249752
-0.109454 -0.223421 0.830966
-0.183540 -0.218017 0.151236
-0.115154 -0.167589 0.040848
-0.104636 -0.183186 0.528378
-0.125734 -0.197703 0.732585
-0.185059 -0.161068 0.725486
-0.151154 -0.134382 0.652211
-0.185434 -0.046274 0.509346
-0.197228 -0.013873 0.663406
0.274753 0.043671 -0.619026
-0.168685 0.075532 0.532792
-0.150597 0.121287 0.633423
-0.167485 0.149485 0.720005
-0.110764 0.173780 0.518635
-0.119952 0.177170 0.688719
-0.191278 0.249513 -0.250553
-0.107498 0.151843 0.024702
-0.181273 0.198559 0.354717
-0.117014 0.209305 -0.296776
-0.209648 0.236887 -0.035479
-0.210425 0.285781 -0.401580
-0.120908 0.259266 -0.357322
-0.129343 0.230126 0.302601
-0.115036 -0.198751 0.118523
-0.014363 -0.168169 0.168088
-0.116798 -0.205419 0.423633
-0.074214 -0.212420 0.350477
-0.109672 -0.121526 -0.177073
-0.029410 -0.121521 0.117778
-0.039912 -0.079006 -0.256641
-0.065024 -0.043874 0.015949
-0.084003 0.016107 -0.192628
-0.026551 0.087193 -0.262059
-0.112649 0.138000 -0.223174
-0.052129 0.140705 0.113043
-0.123828 0.199364 0.114826
-0.113121 0.205193 0.419441
-0.108000 0.205214 0.753432
0.198354 0.240148 -0.515620
-0.095747 0.205691 0.197888
-0.071513 0.209421 0.363165
-0.055852 0.265001 -0.401621
-0.051407 -0.258018 -0.398587
-0.007558 -0.210909 -0.344397
-0.006068 -0.156649 0.206229
-0.074648 -0.201965 0.480767
-0.065891 -0.208996 0.724832
-0.039532 -0.172300 0.890524
0.278377 -0.119643 -0.605138
-0.001443 -0.114635 0.905163
0.006984 -0.012780 0.178468
0.009940 -0.048022 0.884997
-0.016203 0.041786 0.112981
0.006952 0.045081 0.902645
-0.013012 0.102726 0.197481
-0.025644 0.076417 0.964637
-0.027366 0.148548 0.872186
-0.032015 0.226833 -0.352954
-0.073642 0.200964 0.500025
-0.082957 0.207558 0.761714
0.232306 -0.252668 -0.454500
0.306535 -0.230698 -0.345908
0.257479 -0.137403 -0.286955
0.281446 0.066752 -0.263302
0.256683 0.147834 -0.292174
0.334614 0.231104 -0.346470
0.262967 -0.046447 -0.262394
0.254626 0.258272 -0.451608
0.315093 -0.223562 -0.504271
0.329892 -0.125264 -0.578543
0.347951 -0.131602 -0.257313
0.347387 0.133135 -0.264321
0.392884 0.181951 -0.516956
0.398834 -0.233355 -0.444493
0.421957 -0.217842 -0.279352
0.440733 -0.155533 -0.225975
0.343156 0.010029 -0.237091
0.430049 -0.048875 -0.200048
0.342274 0.007825 -0.597954
0.431414 0.091460 -0.210849
0.457425 0.207768 -0.278636
0.478510 -0.259997 -0.349359
0.446493 -0.076741 -0.535950
0.421323 0.057303 -0.557417
0.475697 0.246910 -0.409631
0.470962 0.257628 -0.354912
0.521466 -0.243841 -0.408555
0.602505 -0.248274 -0.354539
0.553738 -0.235842 -0.269123
0.589160 -0.207756 -0.432669
0.565098 -0.150806 -0.471675
0.570663 -0.110185 -0.166522
0.559940 0.035476 -0.144857
0.562721 0.054099 -0.507316
0.575725 0.135807 -0.172144
0.579068 0.159627 -0.474798
0.658552 0.212025 -0.407033
0.577375 0.256802 -0.342179
0.673458 -0.177774 -0.424934
0.688199 -0.110284 -0.120791
0.659543 -0.013105 -0.104809
0.652149 0.078592 -0.112286
0.674071 0.109627 -0.465310
0.630066 0.242998 -0.276935
0.674293 -0.257406 -0.284646
0.712427 -0.221926 -0.203757
0.680018 -0.045255 -0.472582
0.674111 0.139571 -0.133819
0.688352 0.217769 -0.210768
0.724668 0.240023 -0.347954
0.782165 -0.250346 -0.276744
0.723160 -0.243371 -0.336117
0.802386 -0.172289 -0.123141
0.820071 -0.104863 -0.412167
0.815628 -0.070960 -0.067449
0.806505 0.147547 -0.402329
0.776246 0.249044 -0.282776
0.810061 -0.214304 -0.347064
0.855172 -0.229445 -0.192338
0.930842 -0.186855 -0.293677
0.891552 -0.184355 -0.114843
0.814195 0.012764 -0.441636
0.886104 -0.015245 -0.407701
0.803680 0.038226 -0.059326
0.886352 0.053351 -0.402863
0.806797 0.134173 -0.094305
0.828581 0.219834 -0.337611
0.842939 0.224087 -0.188189
0.918957 0.197215 -0.111766
0.886720 -0.229710 -0.272116
0.960598 -0.199979 -0.179081
0.983301 -0.139611 -0.067299
1.011849 -0.077581 -0.280030
1.012575 0.021241 -0.285683
0.891588 0.108671 -0.049849
0.930986 0.158940 -0.311181
0.971901 0.145120 -0.054163
0.883520 0.230713 -0.267566
0.947817 0.214156 -0.192747
1.043064 -0.141256 -0.114988
1.039130 -0.132248 -0.205743
1.035384 -0.088680 -0.059486
0.949614 0.011100 -0.028245
1.022941 0.129141 -0.188616
1.023191 0.092973 -0.071605
0.986318 0.188948 -0.111548
1.062045 -0.046420 -0.180088
3 1 2 0
3 0 2 11
3 3 1 13
3 1 3 2
3 11 2 5
3 2 3 4
3 2 4 5
3 6 3 13
3 3 6 4
3 8 6 13
3 6 7 4
3 5 4 17
3 6 8 7
3 4 7 9
3 4 9 17
3 10 1 0
3 10 21 1
3 0 11 12
3 12 11 14
3 21 13 1
3 21 23 13
3 11 5 14
3 5 15 14
3 15 5 16
3 23 8 13
3 16 5 17
3 23 24 8
3 16 17 18
3 9 18 17
3 7 8 19
3 8 24 19
3 9 7 19
3 10 26 22
3 10 0 26
3 20 0 12
3 20 26 0
3 21 10 22
3 12 27 20
3 21 22 28
3 27 12 14
3 21 28 23
3 28 35 23
3 23 35 24
3 35 25 24
3 38 16 18
3 19 24 25
3 40 38 18
3 25 39 19
3 39 9 19
3 9 40 18
3 9 39 40
3 31 29 47
3 29 31 30
3 31 33 30
3 30 33 32
3 32 33 34
3 50 14 15
3 36 31 47
3 31 36 33
3 33 36 37
3 33 37 34
3 50 15 16
3 54 25 35
3 42 43 44
3 22 26 61
3 45 29 41
3 41 29 42
3 42 29 43
3 44 43 46
3 29 45 62
3 46 43 32
3 29 62 47
3 30 43 29
3 30 32 43
3 46 32 48
3 62 67 47
3 48 49 64
3 65 28 22
3 27 14 66
3 34 48 32
3 65 69 28
3 49 48 51
3 69 35 28
3 52 48 34
3 48 52 51
3 67 56 47
3 56 36 47
3 34 37 53
3 34 53 52
3 38 71 16
3 37 36 55
3 36 56 55
3 25 54 73
3 57 55 56
3 55 58 37
3 53 37 58
3 76 38 40
3 55 57 58
3 73 39 25
3 75 39 73
3 75 40 39
3 59 42 79
3 42 44 79
3 44 60 79
3 59 45 41
3 42 59 41
3 26 20 81
3 46 63 44
3 44 63 60
3 82 60 64
3 60 63 64
3 81 20 86
3 86 20 27
3 61 65 22
3 48 63 46
3 63 48 64
3 90 67 62
3 64 49 68
3 70 68 49
3 51 70 49
3 94 56 67
3 51 91 70
3 69 73 35
3 73 54 35
3 51 52 72
3 51 72 91
3 52 53 74
3 72 52 74
3 57 56 77
3 58 57 78
3 58 78 74
3 58 74 53
3 75 76 40
3 77 98 57
3 98 78 57
3 99 79 100
3 79 99 59
3 100 60 80
3 100 79 60
3 101 45 59
3 80 60 103
3 83 60 82
3 83 103 60
3 26 105 61
3 105 26 81
3 82 64 85
3 83 82 85
3 83 85 106
3 106 85 84
3 68 85 64
3 110 65 61
3 85 68 88
3 85 88 84
3 84 88 87
3 87 88 89
3 87 89 112
3 86 27 66
3 110 113 65
3 68 70 88
3 113 69 65
3 70 91 88
3 88 91 92
3 88 92 89
3 89 92 93
3 112 93 115
3 89 93 112
3 114 94 67
3 113 117 69
3 117 73 69
3 72 96 91
3 91 96 92
3 92 96 97
3 122 92 97
3 92 122 93
3 71 38 76
3 74 78 120
3 74 120 124
3 72 74 96
3 74 124 96
3 117 75 73
3 125 98 77
3 98 125 78
3 125 120 78
3 99 100 102
3 80 102 100
3 104 106 84
3 104 128 106
3 104 84 130
3 61 105 109
3 83 107 103
3 83 128 107
3 83 106 128
3 84 87 130
3 87 108 130
3 109 110 61
3 102 80 132
3 80 103 132
3 132 103 107
3 109 108 111
3 111 110 109
3 112 108 87
3 108 112 111
3 111 112 113
3 110 111 113
3 14 50 66
3 112 115 113
3 113 115 116
3 113 116 117
3 71 50 16
3 93 118 115
3 115 118 116
3 116 118 119
3 116 119 117
3 94 95 56
3 123 138 120
3 120 138 121
3 121 124 120
3 121 96 124
3 140 96 121
3 140 97 96
3 122 141 93
3 141 118 93
3 119 142 117
3 143 77 56
3 126 123 120
3 140 144 97
3 144 127 97
3 97 127 122
3 122 127 141
3 142 75 117
3 125 77 146
3 126 125 146
3 120 125 126
3 59 99 147
3 147 99 102
3 148 147 102
3 104 129 128
3 104 130 131
3 128 133 107
3 128 129 133
3 129 104 149
3 149 104 131
3 131 130 150
3 130 108 150
3 150 108 151
3 108 109 151
3 109 105 151
3 105 81 152
3 151 105 152
3 81 86 152
3 134 148 102
3 132 134 102
3 107 135 132
3 133 135 107
3 152 86 66
3 136 134 132
3 132 135 136
3 133 157 135
3 137 134 136
3 136 135 121
3 135 157 121
3 66 50 160
3 137 136 138
3 136 121 138
3 160 50 71
3 157 139 121
3 123 162 137
3 123 137 138
3 121 139 140
3 160 71 161
3 139 144 140
3 141 145 163
3 141 163 118
3 163 164 118
3 118 164 119
3 119 164 142
3 75 142 164
3 164 161 76
3 75 164 76
3 161 71 76
3 126 146 162
3 162 123 126
3 144 145 127
3 145 141 127
3 59 147 165
3 62 45 101
3 150 149 131
3 151 149 150
3 152 149 151
3 101 153 62
3 167 148 134
3 133 129 149
3 149 152 154
3 152 66 154
3 149 155 133
3 149 156 155
3 149 154 156
3 66 156 154
3 133 155 157
3 114 67 90
3 156 158 155
3 156 66 158
3 155 159 157
3 155 158 159
3 66 160 158
3 158 161 159
3 161 158 160
3 168 137 169
3 139 157 159
3 169 137 162
3 144 139 159
3 169 162 170
3 145 144 159
3 161 145 159
3 163 145 161
3 164 163 161
3 59 165 101
3 166 147 148
3 153 90 62
3 171 134 137
3 146 172 170
3 162 146 170
3 143 172 77
3 77 172 146
3 165 147 166
3 171 167 134
3 168 171 137
3 56 95 143
3 173 101 165
3 166 148 167
3 165 178 173
3 178 165 166
3 101 173 174
3 153 101 174
3 167 175 166
3 174 90 153
3 171 175 167
3 171 181 175
3 174 183 90
3 183 114 90
3 181 171 168
3 94 114 183
3 176 181 168
3 169 176 168
3 94 177 95
3 95 177 143
3 176 169 170
3 143 177 172
3 178 166 186
3 179 186 166
3 173 178 174
3 175 179 166
3 179 175 180
3 187 174 178
3 182 180 175
3 181 182 175
3 187 188 183
3 174 187 183
3 184 182 181
3 183 188 94
3 176 184 181
3 188 177 94
3 185 184 176
3 170 185 176
3 172 177 189
3 172 189 170
3 170 189 190
3 170 190 185
3 186 191 178
3 193 186 179
3 193 179 180
3 195 187 178
3 191 195 178
3 196 180 182
3 196 182 197
3 197 182 184
3 197 184 199
3 198 177 188
3 199 184 185
3 200 189 177
3 186 192 191
3 191 192 194
3 192 186 193
3 194 195 191
3 196 193 180
3 195 198 187
3 198 188 187
3 200 177 198
3 201 189 200
3 208 199 185
3 201 202 189
3 190 202 185
3 185 202 208
3 202 190 189
3 192 193 209
3 193 210 209
3 194 203 195
3 203 194 192
3 196 210 193
3 210 196 204
3 203 211 195
3 205 204 196
3 197 205 196
3 195 211 198
3 211 207 198
3 206 205 197
3 199 206 197
3 198 207 200
3 199 212 206
3 207 201 200
3 213 199 208
3 199 213 212
3 214 202 201
3 214 208 202
3 216 209 215
3 209 216 192
3 209 210 215
3 216 203 192
3 204 217 210
3 203 218 211
3 204 219 217
3 219 204 205
3 220 201 207
3 220 214 201
3 208 221 213
3 214 221 208
3 215 222 216
3 223 215 210
3 222 203 216
3 222 218 203
3 223 210 217
3 218 226 211
3 219 205 228
3 226 207 211
3 228 205 206
3 228 206 230
3 226 220 207
3 230 206 212
3 212 232 230
3 231 214 220
3 232 212 213
3 214 231 221
3 213 221 232
3 222 215 234
3 215 223 234
3 222 234 224
3 224 218 222
3 225 223 217
3 225 217 219
3 227 226 218
3 229 226 227
3 239 228 230
3 229 220 226
3 220 229 240
3 231 220 240
3 230 232 233
3 233 239 230
3 231 242 221
3 221 242 232
3 235 234 223
3 235 224 234
3 235 223 225
3 236 235 225
3 224 237 218
3 219 236 225
3 227 218 237
3 236 219 247
3 238 227 237
3 219 228 247
3 229 227 238
3 228 239 247
3 229 238 240
3 247 239 241
3 233 241 239
3 242 231 240
3 240 243 242
3 233 243 250
3 233 250 241
3 232 242 243
3 243 233 232
3 236 244 235
3 235 245 224
3 235 244 245
3 236 246 244
3 245 237 224
3 245 251 237
3 246 236 247
3 237 251 238
3 246 247 249
3 249 247 241
3 238 248 240
3 249 250 248
3 249 241 250
3 248 243 240
3 250 243 248
3 244 251 245
3 246 251 244
3 246 249 251
3 248 238 251
3 251 249 248
