ply
format ascii 1.0
element vertex 250
property float x
property float y
property float z
element face 500
property list uchar int vertex_indices
end_header
-0.474829 -0.162894 -0.019475
-0.503270 -0.134881 0.178751
-0.510869 -0.054811 -0.035182
-0.550591 -0.003858 0.191517
-0.515043 0.079830 -0.039697
-0.547642 0.065672 0.178863
-0.495144 0.161494 -0.017037
-0.502287 0.154301 0.190581
-0.350126 -0.233797 -0.041524
-0.442695 -0.227061 0.104601
-0.431828 -0.221270 0.215072
-0.426164 -0.136906 -0.105323
-0.376681 -0.175061 0.324770
-0.512254 0.007605 0.256650
-0.435287 0.005167 -0.138357
-0.426472 0.136178 -0.119038
-0.402941 0.180770 0.301295
-0.425965 0.213585 -0.059969
-0.429070 0.238392 0.074676
-0.452282 0.210592 0.217546
-0.363211 -0.254322 0.159388
-0.351950 -0.242451 0.250112
-0.334045 -0.205923 -0.119157
-0.247294 -0.104975 0.504820
-0.239548 -0.060203 0.520980
-0.213206 0.050812 0.542398
-0.206533 0.119248 0.529961
-0.362770 0.241995 0.245873
-0.266682 -0.225724 0.039418
-0.264735 -0.235476 0.212246
-0.280036 -0.251501 0.268297
-0.258559 -0.223019 -0.144575
-0.266322 -0.245088 0.318669
-0.317336 -0.125152 -0.176587
-0.304423 0.015047 -0.211510
-0.268068 0.117643 -0.213400
-0.312301 0.222058 -0.112139
-0.360741 0.251912 -0.031037
-0.199716 0.242379 0.397929
-0.345281 0.259694 0.083867
-0.274973 0.247875 0.224189
-0.202201 -0.248964 -0.107800
-0.194477 -0.250308 0.355116
-0.118943 -0.234129 -0.264347
-0.175921 -0.212725 -0.047281
-0.180614 -0.241775 0.400544
-0.174093 -0.208565 -0.564436
-0.170324 -0.194510 -0.509250
-0.180768 -0.154919 -0.263074
-0.204544 -0.121478 0.093028
-0.126725 -0.167304 0.542315
-0.231662 -0.082946 -0.578840
-0.196051 -0.138525 0.024704
-0.241372 -0.038116 -0.510084
-0.198963 -0.005165 -0.290488
-0.203856 -0.011778 -0.421047
-0.249215 0.057656 -0.566616
-0.228502 0.102373 -0.509695
-0.175747 0.115370 -0.288936
-0.179563 0.189925 -0.570196
-0.202590 0.165945 0.017996
-0.195595 0.111237 0.107345
-0.107675 0.170672 0.563046
-0.265375 0.221648 0.110517
-0.152660 0.213252 -0.240649
-0.276983 0.239983 -0.038373
-0.184703 0.223585 -0.059361
-0.215540 0.208132 0.204237
-0.239916 0.251659 0.320169
-0.084363 -0.256547 -0.114185
-0.208830 -0.247807 0.303530
-0.127913 -0.244328 0.359494
-0.071103 -0.256535 0.420859
-0.121883 -0.219636 -0.422414
-0.114389 -0.216205 0.304497
-0.099548 -0.190661 -0.874394
-0.152375 -0.203877 -0.667745
-0.120222 -0.192658 -0.343723
-0.156792 -0.105088 -0.897199
-0.209913 -0.080218 -0.683283
-0.179354 -0.141856 -0.440183
-0.061290 -0.044518 0.226614
-0.113091 -0.042223 -0.975618
-0.171690 -0.001432 -0.905317
-0.179580 0.022616 -0.348424
-0.166877 0.003173 0.039626
-0.162468 0.012606 0.123768
-0.211460 0.083164 -0.673845
-0.111266 0.045770 -0.970670
-0.118047 0.098467 0.213724
-0.153935 0.099091 -0.922262
-0.181243 0.129140 -0.433642
-0.103612 0.216595 -0.348034
-0.121337 0.229827 -0.672238
-0.120804 0.181624 -0.872538
-0.173660 0.193411 -0.499719
-0.122577 0.221068 -0.430430
-0.184201 0.246520 -0.117972
-0.206684 0.238440 0.278518
-0.138252 0.207325 0.284848
-0.089640 0.250290 -0.102423
-0.143532 0.240624 0.359815
-0.006635 -0.254791 -0.854263
-0.036874 -0.284870 -0.754671
-0.042850 -0.292590 -0.577597
-0.042937 -0.281021 -0.447066
-0.054040 -0.272677 -0.268847
0.011010 -0.262211 0.532511
-0.090235 -0.209909 -0.031659
-0.104682 -0.102548 -0.962702
0.025963 -0.187973 0.093023
-0.135239 -0.114700 0.009247
-0.041835 -0.214542 0.322185
-0.010218 -0.046413 0.133700
-0.120660 0.009102 0.612523
-0.111702 0.013324 0.032152
-0.099559 0.134362 -0.942484
-0.008317 0.091361 0.117888
-0.092907 0.174102 -0.007193
-0.052948 0.205232 0.327131
-0.029673 0.292548 -0.563534
-0.052104 0.271288 -0.446110
-0.051127 0.267887 -0.216943
0.029472 0.254328 -0.069417
-0.034525 0.269756 -0.819917
-0.025642 0.275760 -0.333335
-0.062269 0.256551 0.440674
0.026066 0.274197 0.506741
0.045865 -0.247814 -0.032919
0.011750 -0.188960 -0.924705
0.058818 -0.234242 0.044431
-0.036925 -0.182000 0.608777
0.044661 -0.166066 0.176375
0.047791 -0.216783 0.261747
0.003112 -0.085237 0.219872
-0.055540 -0.048688 0.650735
0.114886 -0.120240 0.757482
-0.002967 0.027571 0.202794
0.114393 -0.000549 0.772024
0.195644 0.096202 -0.961045
-0.020655 0.084172 0.240809
-0.039939 0.126551 0.643280
0.035209 0.153778 0.184007
0.039046 0.205878 0.267922
0.045478 0.199934 0.101104
-0.052790 0.186223 0.601380
0.049658 0.206149 0.649231
-0.041160 0.233832 -0.882494
0.063925 0.236395 0.030802
0.020997 0.303370 -0.727421
0.026457 -0.311217 -0.715590
0.050700 -0.307083 -0.594373
0.053724 -0.287840 -0.798431
0.100040 -0.292271 -0.728622
0.050542 -0.288885 -0.465629
0.021863 -0.273010 -0.190979
0.107873 -0.301788 0.440228
0.124844 -0.219806 -0.891399
0.102863 -0.228392 0.133131
0.134021 -0.265505 0.302548
0.029532 -0.257070 0.337395
0.125216 -0.204584 0.706758
0.135261 -0.209315 -0.387660
0.123689 -0.217868 -0.052573
0.172532 -0.090559 -0.950329
0.203033 0.035675 -0.978984
0.107192 0.139135 0.735860
0.107809 0.229045 -0.882555
0.147508 0.208132 -0.391282
0.113371 0.236892 -0.025523
0.109043 0.230830 0.144677
0.037164 0.279867 0.412101
0.045169 0.288341 -0.819599
0.048247 0.286282 -0.470336
0.166413 0.231148 -0.553483
0.031285 0.278746 -0.304516
0.123554 0.268550 0.296843
0.104654 0.284204 -0.774766
0.051435 0.303550 -0.589169
0.191114 -0.294655 0.599554
0.181598 -0.220713 -0.816505
0.168562 -0.233449 -0.568363
0.116388 -0.235057 0.026867
0.206430 -0.216559 0.730418
0.201913 -0.180996 -0.896855
0.179533 -0.201014 -0.490856
0.191500 -0.124266 -0.432053
0.174525 -0.095630 -0.352814
0.193102 -0.049316 -0.047263
0.209391 0.000029 -0.430186
0.177511 0.089734 -0.335630
0.190088 0.056081 -0.049210
0.195792 0.122164 -0.424168
0.150147 0.190969 -0.044236
0.191250 0.199073 -0.865872
0.204195 0.247930 0.267363
0.189757 0.296219 0.599857
0.121943 0.310014 0.449862
0.242550 -0.307793 0.477488
0.256142 -0.315970 0.564852
0.167203 -0.197724 0.052882
0.216314 -0.221324 0.241279
0.231541 -0.095296 -0.541758
0.236300 -0.158534 0.181363
0.290016 -0.127205 0.259032
0.190022 -0.155939 0.772210
0.223427 -0.073462 0.070171
0.253874 -0.091678 -0.889472
0.266589 -0.081680 0.197165
0.175208 -0.066994 0.797851
0.274060 0.000054 -0.903931
0.237731 0.046777 -0.512556
0.268374 0.008578 0.174671
0.219719 0.061301 0.792502
0.215118 0.065943 0.056933
0.268758 0.061296 -0.908833
0.269296 0.084850 0.202012
0.246638 0.130462 -0.871538
0.209585 0.164807 -0.511379
0.240019 0.153455 0.185350
0.188154 0.203385 0.717817
0.270830 0.163673 0.249891
0.187045 0.208030 0.140879
0.188639 0.306820 0.414206
0.264841 0.317941 0.574391
0.329487 -0.283947 0.647746
0.323842 0.028159 0.270156
0.414998 -0.017128 0.804474
0.442876 0.074019 0.801923
0.418623 0.181279 0.746671
0.472671 0.155152 0.519052
0.415263 0.229917 0.495578
0.353509 0.292475 0.576092
0.322780 0.289839 0.646321
0.355583 -0.292537 0.597226
0.384391 -0.254262 0.523136
0.438520 -0.236300 0.655517
0.473768 -0.153940 0.514436
0.503770 -0.034041 0.453286
0.444647 0.241579 0.590915
0.419923 0.254424 0.668174
0.422430 -0.184198 0.741915
0.506740 -0.147970 0.713522
0.522343 0.034291 0.509131
0.489777 0.167265 0.715020
0.516744 -0.072458 0.776975
0.535660 -0.055525 0.528972
0.541377 -0.038966 0.743808
0.509592 0.062579 0.781281
0.534541 0.075880 0.735236
3 0 2 1
3 1 2 3
3 1 3 13
3 2 4 3
3 3 4 5
3 3 5 13
3 13 5 7
3 4 6 5
3 5 6 7
3 0 8 11
3 8 0 9
3 10 9 1
3 10 1 12
3 9 0 1
3 13 12 1
3 0 11 2
3 12 13 24
3 11 14 2
3 2 14 4
3 24 13 25
3 14 15 4
3 7 16 13
3 13 16 25
3 4 15 6
3 17 6 15
3 6 17 18
3 6 18 7
3 7 18 19
3 7 19 16
3 8 9 20
3 10 20 9
3 20 10 21
3 22 11 8
3 12 21 10
3 22 33 11
3 24 23 12
3 34 15 14
3 34 35 15
3 16 26 25
3 15 35 36
3 15 36 17
3 19 27 16
3 37 17 36
3 37 18 17
3 37 39 18
3 18 27 19
3 39 27 18
3 20 28 8
3 29 28 20
3 22 8 31
3 8 41 31
3 8 28 41
3 30 29 21
3 20 21 29
3 30 21 32
3 12 32 21
3 31 33 22
3 33 34 14
3 11 33 14
3 16 62 26
3 27 38 16
3 16 38 62
3 36 65 37
3 39 37 65
3 65 63 39
3 39 63 40
3 27 40 68
3 27 68 38
3 27 39 40
3 31 41 43
3 28 44 41
3 29 30 70
3 42 70 32
3 30 32 70
3 42 32 45
3 43 48 31
3 29 49 28
3 12 45 32
3 45 12 50
3 46 51 47
3 31 48 33
3 52 44 28
3 28 49 52
3 12 23 50
3 47 51 53
3 47 53 80
3 80 53 55
3 48 54 34
3 33 48 34
3 87 51 79
3 56 51 87
3 51 56 53
3 53 56 57
3 55 53 57
3 55 57 91
3 54 58 35
3 34 54 35
3 59 56 87
3 56 59 57
3 91 57 95
3 64 35 58
3 61 63 60
3 61 67 63
3 59 95 57
3 35 64 36
3 66 60 65
3 60 63 65
3 64 97 36
3 66 65 97
3 65 36 97
3 40 63 67
3 67 98 40
3 40 98 68
3 101 68 98
3 68 101 38
3 76 46 104
3 104 47 105
3 46 47 104
3 47 73 105
3 69 106 41
3 41 106 43
3 41 44 69
3 44 108 69
3 70 74 29
3 70 71 74
3 70 42 71
3 72 71 45
3 42 45 71
3 72 45 50
3 77 48 43
3 78 75 109
3 75 78 76
3 76 78 79
3 76 79 51
3 46 76 51
3 80 73 47
3 73 80 77
3 108 44 111
3 111 44 52
3 81 49 29
3 74 112 81
3 29 74 81
3 24 50 23
3 109 82 78
3 82 83 78
3 78 83 79
3 80 55 77
3 77 55 84
3 77 84 54
3 48 77 54
3 85 111 52
3 52 49 85
3 81 86 49
3 50 24 114
3 115 111 85
3 49 86 85
3 82 88 83
3 79 83 87
3 24 25 114
3 86 61 85
3 86 89 61
3 116 90 88
3 90 83 88
3 83 90 87
3 55 91 84
3 84 91 92
3 84 92 58
3 54 84 58
3 118 115 85
3 60 118 85
3 85 61 60
3 25 62 114
3 26 62 25
3 94 90 116
3 90 94 87
3 87 94 93
3 87 93 59
3 95 96 91
3 91 96 92
3 58 92 64
3 67 61 89
3 89 99 67
3 118 60 66
3 93 120 59
3 59 121 95
3 120 121 59
3 121 96 95
3 122 100 97
3 122 97 64
3 100 66 97
3 100 118 66
3 99 98 67
3 99 101 98
3 101 126 38
3 38 126 62
3 129 75 102
3 102 75 103
3 103 75 76
3 76 104 103
3 73 77 105
3 105 77 106
3 77 43 106
3 71 112 74
3 72 112 71
3 107 72 50
3 75 129 109
3 131 107 50
3 111 110 108
3 131 50 135
3 135 50 114
3 115 113 111
3 115 117 113
3 89 86 81
3 89 81 140
3 139 116 88
3 118 117 115
3 119 89 140
3 135 114 141
3 141 114 62
3 99 89 119
3 141 62 145
3 94 116 147
3 124 94 147
3 94 124 93
3 96 121 92
3 92 121 125
3 64 92 122
3 122 92 125
3 123 118 100
3 119 101 99
3 101 119 126
3 127 145 62
3 149 93 124
3 62 126 127
3 152 103 150
3 150 104 151
3 103 104 150
3 151 104 154
3 102 152 157
3 103 152 102
3 154 104 105
3 105 106 154
3 154 106 155
3 106 69 155
3 128 69 108
3 128 155 69
3 72 156 160
3 156 72 107
3 102 157 129
3 108 110 130
3 128 108 130
3 112 160 133
3 160 112 72
3 133 132 134
3 133 134 112
3 113 110 111
3 110 113 132
3 132 113 134
3 135 136 131
3 109 164 82
3 134 81 112
3 134 113 137
3 134 137 81
3 136 135 138
3 113 117 137
3 81 137 140
3 165 139 88
3 141 138 135
3 137 117 142
3 137 142 140
3 140 142 143
3 140 143 119
3 139 167 116
3 144 117 118
3 117 144 142
3 145 146 141
3 167 147 116
3 118 123 148
3 118 148 144
3 147 167 172
3 124 147 172
3 171 119 143
3 126 119 171
3 172 149 124
3 120 93 149
3 120 173 121
3 173 175 121
3 121 175 125
3 125 175 122
3 175 123 122
3 122 123 100
3 171 127 126
3 149 178 120
3 120 178 173
3 150 153 152
3 156 107 179
3 153 150 151
3 159 160 156
3 162 154 155
3 155 163 162
3 155 128 163
3 128 182 163
3 128 130 182
3 110 158 130
3 158 182 130
3 159 158 133
3 133 160 159
3 132 158 110
3 133 158 132
3 161 107 131
3 136 161 131
3 164 109 129
3 165 88 82
3 141 166 138
3 166 141 146
3 170 142 144
3 143 142 170
3 174 168 173
3 173 168 175
3 168 169 175
3 169 123 175
3 169 148 123
3 148 170 144
3 148 169 170
3 143 170 176
3 171 143 176
3 145 127 146
3 177 172 167
3 174 173 178
3 177 149 172
3 178 149 177
3 176 197 171
3 171 197 127
3 156 198 159
3 198 156 199
3 156 179 199
3 153 180 152
3 151 181 153
3 151 154 181
3 179 107 161
3 179 161 183
3 157 180 184
3 157 152 180
3 180 153 181
3 181 154 185
3 162 185 154
3 182 158 200
3 158 159 201
3 200 158 201
3 184 164 157
3 164 129 157
3 163 182 200
3 183 161 205
3 186 185 162
3 162 187 186
3 162 163 187
3 200 188 163
3 161 136 205
3 187 163 188
3 205 136 209
3 186 187 189
3 209 136 138
3 209 138 213
3 164 165 82
3 190 189 187
3 187 188 190
3 188 191 190
3 189 190 192
3 213 138 166
3 191 193 190
3 213 166 220
3 168 218 192
3 192 190 168
3 190 193 168
3 194 167 139
3 174 218 168
3 193 169 168
3 193 222 169
3 220 166 146
3 194 177 167
3 222 170 169
3 170 222 195
3 146 127 196
3 196 220 146
3 174 177 194
3 178 177 174
3 176 170 195
3 176 195 223
3 223 197 176
3 223 224 197
3 127 197 196
3 197 224 196
3 179 225 199
3 225 179 183
3 181 202 180
3 185 202 181
3 200 201 203
3 201 204 203
3 185 186 202
3 188 200 206
3 200 203 206
3 207 164 184
3 184 180 207
3 180 202 207
3 203 208 206
3 203 204 208
3 186 189 202
3 207 210 164
3 207 202 210
3 202 211 210
3 189 211 202
3 208 212 206
3 227 209 213
3 164 210 165
3 214 188 206
3 191 188 214
3 206 212 214
3 210 215 165
3 210 211 215
3 212 216 214
3 227 213 228
3 139 165 215
3 189 192 211
3 193 191 214
3 217 139 215
3 215 218 217
3 215 211 218
3 211 192 218
3 216 219 214
3 216 221 219
3 228 213 229
3 229 213 220
3 217 194 139
3 217 174 194
3 217 218 174
3 193 214 222
3 214 219 222
3 219 221 222
3 221 195 222
3 221 231 195
3 231 232 195
3 229 220 233
3 233 220 196
3 195 232 223
3 233 196 224
3 198 199 234
3 225 234 199
3 159 198 235
3 159 235 201
3 237 238 204
3 226 208 204
3 212 208 226
3 204 238 226
3 216 212 226
3 221 216 226
3 226 230 221
3 231 221 230
3 232 224 223
3 232 233 224
3 234 235 198
3 225 236 234
3 236 235 234
3 236 225 241
3 225 183 241
3 205 241 183
3 204 201 237
3 241 205 227
3 227 205 209
3 232 231 239
3 240 229 233
3 232 240 233
3 232 239 240
3 201 235 237
3 235 236 237
3 236 242 237
3 241 242 236
3 242 241 245
3 245 241 227
3 245 227 248
3 243 226 238
3 248 227 228
3 230 226 243
3 248 228 229
3 230 244 239
3 244 248 229
3 230 239 231
3 244 240 239
3 229 240 244
3 237 242 246
3 242 247 246
3 242 245 247
3 238 237 246
3 243 238 246
3 246 247 243
3 247 249 243
3 247 248 249
3 245 248 247
3 243 249 230
3 249 244 230
3 249 248 244
