ply
format ascii 1.0
element vertex 252
property float x
property float y
property float z
element face 500
property list uchar int vertex_indices
end_header
-0.563275 -0.163054 -0.549278
-0.549605 -0.175709 -0.407421
-0.617495 -0.119733 -0.434058
-0.633950 -0.008060 -0.440574
-0.580268 0.038114 -0.590228
-0.581616 0.145829 -0.428330
-0.544344 0.176139 -0.586202
-0.473541 -0.248660 -0.605127
-0.487106 -0.260692 -0.522941
-0.603882 -0.079427 -0.380439
-0.497876 -0.117698 -0.276328
-0.446971 -0.105702 -0.750708
-0.429333 0.004896 -0.787290
-0.610052 0.049597 -0.380583
-0.444084 0.129371 -0.756000
-0.574973 0.120336 -0.361922
-0.479353 0.248720 -0.590552
-0.451657 0.279125 -0.503000
-0.454943 0.270346 -0.417655
-0.464309 -0.194894 -0.692572
-0.354289 -0.054252 -0.121689
-0.466060 0.205761 -0.673262
-0.332584 0.194489 -0.178905
-0.374363 0.263068 -0.309741
-0.364662 -0.296488 -0.555989
-0.375834 -0.297185 -0.407572
-0.352119 -0.211995 -0.732695
-0.306600 0.047501 -0.077629
-0.268532 0.115076 -0.065491
-0.333423 0.200439 -0.746467
-0.362257 0.292971 -0.585834
-0.251149 -0.281989 -0.249889
-0.210846 -0.185202 -0.043830
-0.356152 -0.051397 -0.800742
-0.341404 0.068997 -0.802647
-0.377427 0.157840 -0.786758
-0.353562 0.298482 -0.392479
-0.358756 0.314969 -0.493258
-0.273895 -0.293206 -0.560388
-0.282119 -0.300183 -0.369535
-0.282043 -0.268657 -0.681795
-0.179884 -0.244114 -0.450328
-0.215852 -0.249935 -0.728094
-0.204185 -0.140172 0.899137
-0.204798 -0.104209 0.812552
-0.256897 -0.007974 0.903650
-0.190978 -0.048009 0.958401
-0.230833 0.043993 0.817808
-0.174843 0.094127 0.938042
-0.248727 0.081963 0.883869
-0.034253 0.216790 0.084719
-0.196288 0.146401 0.826570
-0.182469 0.169372 0.878096
-0.276400 0.282861 -0.626527
-0.188709 0.257374 -0.574458
-0.195439 0.247857 -0.426845
-0.222886 0.279676 -0.319727
-0.261793 0.285987 -0.277902
-0.273745 0.296320 -0.562474
-0.296440 0.306473 -0.462134
-0.197269 -0.264126 -0.593678
-0.195937 -0.282485 -0.283182
-0.102573 -0.222895 -0.313799
-0.119040 -0.224977 0.004027
-0.144112 -0.195562 0.824057
-0.117604 -0.201357 -0.547685
0.381354 -0.131583 -0.774303
-0.100720 -0.150747 0.762224
-0.114476 -0.148657 0.942491
-0.122002 -0.005093 0.735910
0.411678 -0.004925 -0.798353
-0.126985 0.131064 0.761346
-0.103057 0.152292 -0.511657
-0.132262 0.223339 -0.335208
-0.052297 0.255956 0.006261
-0.068616 0.209357 0.820634
-0.137599 0.245444 -0.621226
-0.113760 0.255888 -0.267415
-0.146930 -0.246449 -0.627122
-0.085878 -0.227592 0.865835
-0.103818 -0.139528 -0.436011
-0.032471 -0.209044 0.101563
-0.074401 -0.073585 -0.508213
-0.045520 -0.107186 -0.357781
0.044672 -0.129841 0.247938
0.254387 -0.058270 0.987103
-0.078089 -0.011942 -0.436049
-0.081030 0.046100 -0.489591
0.048662 -0.022001 0.298120
0.277594 0.024103 0.991951
-0.095145 0.114380 -0.422905
0.045627 0.086486 0.274729
-0.039559 0.117782 -0.352624
-0.024728 0.198718 0.934414
-0.085591 0.209227 0.903351
-0.105468 0.216011 -0.579668
-0.064631 0.274253 -0.171609
-0.047306 -0.261953 -0.208386
-0.031062 -0.277452 -0.136777
-0.004988 -0.251727 0.047509
0.011530 -0.245415 -0.610077
0.017804 -0.177792 -0.256144
-0.026454 -0.233731 0.820570
0.442967 -0.211900 -0.730968
-0.047351 -0.181776 -0.560384
0.055812 -0.206091 -0.531029
0.054404 -0.223231 -0.167666
0.033360 -0.080279 -0.483894
0.045899 -0.188638 0.748731
-0.046597 -0.077442 -0.519044
0.017721 -0.075207 0.700310
-0.052858 0.036534 -0.508856
-0.028864 0.021354 -0.375871
0.035183 0.084545 -0.478221
0.404623 0.174907 -0.761759
-0.048937 0.190959 -0.565520
0.025965 0.141538 0.725011
0.078456 0.196001 -0.534945
0.005032 0.178047 -0.261930
0.039320 0.237471 -0.157307
0.167275 0.257079 0.227906
0.012310 0.243558 -0.611675
-0.037663 0.260188 -0.193242
0.177253 -0.249156 -0.566501
0.300469 -0.255218 0.154106
0.158484 -0.246315 0.864253
0.094845 -0.129157 -0.213586
0.112860 -0.193424 0.264271
0.068064 -0.057032 -0.281879
0.151497 -0.110321 0.410588
0.022428 -0.058914 -0.329198
0.122246 0.001684 0.661376
0.144962 -0.014212 0.434151
0.135959 0.020386 -0.199054
0.025938 0.042302 -0.329611
0.070659 0.080812 -0.267927
0.146939 0.109313 0.397192
0.254439 0.124230 0.965319
0.139677 0.134267 0.680897
0.091231 0.154583 -0.196110
0.109951 0.181249 0.280038
0.151778 0.208729 -0.086971
0.104470 0.241964 0.800405
0.131172 0.235939 0.880932
0.170547 0.255249 -0.588124
0.242664 -0.280845 0.176373
0.207380 -0.264987 0.238497
0.170647 -0.249839 0.796441
0.106264 -0.181973 -0.496319
0.208585 -0.181948 0.421491
0.169425 -0.219078 0.736261
0.456326 -0.122642 0.169010
0.138029 -0.123595 0.674955
0.133152 -0.079231 -0.452011
0.319793 -0.061375 -0.001963
0.236025 -0.126130 0.568068
0.104363 0.022831 -0.445232
0.221078 0.046763 0.571751
0.294560 0.100967 -0.008738
0.104564 0.101139 -0.459293
0.192998 0.216615 0.343155
0.227653 0.175520 0.456489
0.161992 0.224817 0.741078
0.247343 0.280060 0.181928
0.301267 0.251757 0.139000
0.370958 -0.255972 -0.673439
0.299914 -0.277023 0.340223
0.289652 -0.210425 0.504545
0.193868 -0.032560 0.620878
0.197813 0.052273 0.626090
0.286758 0.161530 0.019202
0.293991 0.227507 0.496386
0.454093 0.210094 -0.732698
0.310060 0.250989 0.458164
0.370705 0.251913 -0.673120
0.363143 0.253682 0.677222
0.229330 0.253890 0.821240
0.276015 -0.288804 0.252588
0.353770 -0.288151 0.345460
0.359259 -0.257095 0.679731
0.304927 -0.258342 0.799498
0.286602 -0.185150 0.905355
0.450241 -0.159368 0.187299
0.335939 -0.229027 0.583400
0.279982 -0.203285 0.644131
0.370049 -0.166083 0.880052
0.715781 -0.155730 -0.481532
0.738976 -0.000557 -0.462185
0.322262 0.220121 0.579626
0.271563 0.186153 0.644542
0.602278 0.187639 -0.485012
0.352532 0.088157 0.943126
0.305420 0.201820 0.887261
0.298649 0.279470 0.306270
0.337455 -0.281902 0.277795
0.358754 -0.272948 0.426610
0.559421 -0.240290 -0.617049
0.424015 -0.270526 0.550489
0.407979 -0.249582 0.738068
0.626008 -0.221081 -0.530002
0.533426 -0.176691 0.680380
0.363410 -0.048816 0.937631
0.748879 -0.080263 -0.464167
0.582870 -0.070651 0.718700
0.498252 -0.043237 0.198405
0.575132 0.048884 0.690701
0.449296 0.082532 -0.785596
0.490613 0.079104 0.196254
0.433127 0.204373 0.227101
0.478439 0.172298 0.775344
0.595749 0.212791 -0.517409
0.564604 0.237002 -0.613585
0.345243 0.273264 0.243153
0.356607 0.277409 0.423560
0.412407 0.269209 0.553091
0.424091 0.240692 0.739680
0.416712 0.265197 0.359437
0.448458 -0.253587 0.375810
0.451629 -0.262683 0.647755
0.486546 -0.166456 0.251740
0.504646 -0.161551 -0.741206
0.501928 0.156529 -0.747681
0.516335 0.134200 0.256197
0.531069 0.190349 0.350998
0.448723 0.260496 0.657174
0.499588 -0.251762 0.533871
0.549390 -0.196565 -0.692970
0.577441 -0.155486 0.438899
0.551004 -0.144680 0.326897
0.494969 -0.004296 -0.779558
0.598852 0.005152 -0.727825
0.583644 0.026388 0.329838
0.713082 0.106723 -0.469679
0.559384 0.199569 -0.690459
0.583400 0.187497 0.446525
0.542634 0.191121 0.634351
0.499127 0.250252 0.523798
0.610540 -0.088414 0.631173
0.626272 0.001193 0.444640
0.607261 0.127926 0.435501
0.710302 -0.198058 -0.561019
0.658278 -0.183974 -0.635989
0.675334 -0.044035 -0.681936
0.760981 -0.119531 -0.570406
0.773835 0.032983 -0.578646
0.677284 0.114419 -0.668857
0.645593 0.199910 -0.646597
0.730071 0.161873 -0.501348
0.718913 0.171653 -0.567681
0.748915 -0.170835 -0.512372
0.781002 -0.072605 -0.495516
0.779977 0.082364 -0.500950
3 1 0 2
3 1 2 9
3 2 0 3
3 2 3 9
3 0 4 3
3 9 3 13
3 4 5 3
3 13 5 15
3 3 5 13
3 4 6 5
3 7 19 0
3 8 7 0
3 1 8 0
3 9 10 1
3 0 11 4
3 10 9 20
3 11 12 4
3 20 9 13
3 12 14 4
3 4 14 6
3 14 21 6
3 6 21 16
3 17 6 16
3 5 6 17
3 18 5 17
3 25 8 1
3 19 11 0
3 20 13 27
3 13 15 27
3 14 29 21
3 5 22 15
3 5 18 23
3 5 23 22
3 25 24 8
3 24 26 7
3 24 7 8
3 26 19 7
3 25 1 31
3 26 11 19
3 1 10 32
3 26 33 11
3 32 10 20
3 33 12 11
3 33 34 12
3 34 14 12
3 27 15 28
3 34 35 14
3 14 35 29
3 22 28 15
3 21 29 30
3 21 30 16
3 16 30 17
3 18 36 23
3 30 37 17
3 17 36 18
3 17 37 36
3 38 24 39
3 24 25 39
3 40 26 24
3 38 40 24
3 31 39 25
3 40 42 26
3 31 1 32
3 53 30 29
3 30 53 58
3 36 57 23
3 36 56 57
3 58 59 30
3 30 59 37
3 37 59 36
3 56 36 59
3 38 60 40
3 41 60 38
3 38 39 41
3 39 61 41
3 39 31 61
3 31 32 63
3 66 26 42
3 66 33 26
3 43 44 45
3 68 43 46
3 43 45 46
3 47 44 69
3 44 47 45
3 46 45 48
3 70 34 33
3 45 47 49
3 45 49 48
3 47 51 49
3 49 51 52
3 49 52 48
3 22 50 28
3 76 53 29
3 23 57 74
3 23 74 22
3 22 74 50
3 58 53 54
3 54 55 58
3 55 59 58
3 55 56 59
3 40 78 42
3 78 40 60
3 78 60 65
3 65 60 41
3 61 62 41
3 64 43 79
3 43 68 79
3 65 41 80
3 67 44 64
3 64 44 43
3 32 20 84
3 46 85 68
3 44 67 69
3 89 46 48
3 88 27 91
3 69 71 47
3 27 28 91
3 47 71 51
3 72 90 55
3 90 73 55
3 28 50 91
3 54 95 72
3 72 55 54
3 75 51 71
3 52 51 75
3 52 75 94
3 48 52 94
3 76 95 54
3 54 53 76
3 73 56 55
3 77 56 73
3 77 96 56
3 96 57 56
3 42 78 100
3 61 97 62
3 97 61 98
3 61 31 98
3 63 99 31
3 99 98 31
3 65 104 78
3 97 101 62
3 99 63 81
3 79 102 64
3 42 103 66
3 83 62 101
3 102 67 64
3 65 82 104
3 80 82 65
3 41 62 80
3 62 83 80
3 32 81 63
3 81 32 84
3 109 104 82
3 108 110 67
3 84 20 88
3 111 109 82
3 80 86 82
3 83 112 86
3 80 83 86
3 20 27 88
3 110 69 67
3 87 111 82
3 82 86 87
3 86 90 87
3 112 92 90
3 86 112 90
3 72 111 87
3 87 90 72
3 114 35 34
3 115 111 72
3 90 92 73
3 115 72 95
3 73 92 118
3 94 93 48
3 121 76 29
3 95 76 115
3 115 76 121
3 118 77 73
3 77 118 122
3 74 120 50
3 122 96 77
3 57 96 74
3 105 100 104
3 104 100 78
3 97 106 101
3 98 106 97
3 102 79 125
3 108 67 102
3 125 79 68
3 107 105 104
3 109 107 104
3 101 130 83
3 130 112 83
3 107 111 113
3 109 111 107
3 130 134 112
3 134 92 112
3 110 116 69
3 116 71 69
3 115 113 111
3 137 48 93
3 117 113 115
3 134 118 92
3 114 29 35
3 116 75 71
3 143 93 94
3 117 115 121
3 118 119 122
3 142 75 116
3 142 143 75
3 75 143 94
3 96 122 119
3 124 98 145
3 98 99 145
3 146 145 99
3 146 99 127
3 123 100 105
3 105 148 123
3 99 81 127
3 108 147 150
3 102 147 108
3 147 102 125
3 126 101 106
3 126 106 151
3 152 108 150
3 148 105 107
3 101 126 128
3 84 127 81
3 127 84 129
3 148 107 153
3 130 101 128
3 152 131 110
3 152 110 108
3 84 88 129
3 153 107 156
3 126 133 128
3 129 88 132
3 156 107 113
3 130 128 134
3 128 135 134
3 128 133 135
3 88 91 132
3 132 91 136
3 110 131 116
3 156 113 159
3 131 138 116
3 133 139 135
3 159 113 117
3 118 134 135
3 135 139 118
3 50 140 91
3 136 91 140
3 119 118 139
3 139 141 119
3 138 162 116
3 117 121 144
3 50 120 140
3 162 142 116
3 119 163 96
3 163 74 96
3 74 163 120
3 165 100 123
3 98 124 106
3 146 149 166
3 146 127 149
3 149 127 129
3 154 126 151
3 152 168 131
3 129 132 155
3 133 126 154
3 157 155 132
3 136 157 132
3 168 169 131
3 169 138 131
3 139 133 158
3 158 170 139
3 136 140 160
3 136 160 161
3 143 137 93
3 139 170 141
3 140 120 160
3 141 164 119
3 142 176 143
3 174 121 29
3 174 144 121
3 164 163 119
3 162 176 142
3 145 146 177
3 166 177 146
3 150 147 179
3 147 180 179
3 165 42 100
3 166 149 167
3 179 184 150
3 180 147 125
3 181 180 125
3 106 182 151
3 106 124 182
3 184 152 150
3 155 167 149
3 129 155 149
3 181 125 68
3 186 148 153
3 184 155 152
3 155 168 152
3 181 68 85
3 155 157 168
3 85 46 89
3 168 157 169
3 137 89 48
3 136 161 157
3 157 189 169
3 189 138 169
3 190 159 117
3 172 29 114
3 170 164 141
3 161 160 173
3 161 173 171
3 138 189 162
3 137 143 192
3 162 189 175
3 143 176 192
3 163 193 120
3 120 193 160
3 160 193 173
3 175 176 162
3 124 145 194
3 145 177 194
3 178 194 166
3 166 194 177
3 178 166 195
3 103 42 165
3 196 123 199
3 199 123 148
3 166 167 195
3 167 183 195
3 183 184 179
3 198 180 181
3 167 155 183
3 155 184 183
3 185 198 181
3 185 181 201
3 201 181 85
3 70 33 66
3 202 153 187
3 187 153 156
3 204 133 154
3 89 201 85
3 206 34 70
3 158 133 204
3 191 201 89
3 137 191 89
3 157 161 188
3 206 114 34
3 157 188 189
3 171 188 161
3 144 210 117
3 170 208 164
3 137 192 191
3 174 29 172
3 173 188 171
3 188 175 189
3 215 192 176
3 174 211 144
3 164 212 163
3 212 193 163
3 193 216 213
3 193 213 173
3 176 175 215
3 212 216 193
3 165 123 196
3 194 178 217
3 178 195 217
3 197 217 195
3 197 179 218
3 198 218 179
3 124 194 219
3 183 197 195
3 179 197 183
3 179 180 198
3 124 219 182
3 198 185 200
3 201 200 185
3 203 200 201
3 203 201 205
3 201 191 205
3 191 209 205
3 170 158 207
3 210 190 117
3 192 215 209
3 191 192 209
3 164 208 212
3 208 216 212
3 214 188 173
3 175 188 214
3 173 213 214
3 213 216 214
3 214 224 175
3 175 224 215
3 217 197 225
3 225 197 218
3 226 103 165
3 165 196 226
3 217 219 194
3 217 225 227
3 225 218 200
3 200 218 198
3 103 220 66
3 220 103 226
3 148 186 199
3 228 219 217
3 217 227 228
3 219 151 182
3 202 186 153
3 220 229 66
3 229 70 66
3 154 151 204
3 151 219 204
3 229 206 70
3 232 187 156
3 204 207 158
3 229 221 206
3 232 156 159
3 221 114 206
3 232 159 190
3 208 170 207
3 207 222 208
3 221 172 114
3 172 221 233
3 222 223 208
3 215 235 209
3 174 172 233
3 233 211 174
3 211 210 144
3 208 223 216
3 234 236 223
3 236 235 224
3 235 215 224
3 236 216 223
3 236 214 216
3 224 214 236
3 227 225 200
3 229 220 230
3 220 226 230
3 219 228 204
3 228 231 204
3 228 227 231
3 204 231 207
3 221 229 230
3 230 233 221
3 209 235 205
3 207 231 222
3 222 231 223
3 239 234 223
3 231 239 223
3 234 235 236
3 240 241 196
3 241 226 196
3 196 199 240
3 200 237 227
3 241 242 226
3 242 230 226
3 231 227 238
3 227 237 238
3 200 203 237
3 237 205 238
3 237 203 205
3 242 245 230
3 245 233 230
3 239 231 238
3 238 205 239
3 205 235 239
3 245 246 233
3 232 190 247
3 247 190 210
3 235 234 239
3 211 246 248
3 211 233 246
3 248 210 211
3 240 199 249
3 199 186 249
3 240 243 241
3 242 241 243
3 245 242 244
3 244 248 245
3 245 248 246
3 210 248 247
3 240 249 243
3 249 250 243
3 249 186 250
3 186 202 250
3 244 242 243
3 243 250 244
3 202 187 250
3 250 251 244
3 250 187 251
3 187 232 251
3 244 251 248
3 251 247 248
3 232 247 251
