ply
format ascii 1.0
element vertex 250
property float x
property float y
property float z
element face 500
property list uchar int vertex_indices
end_header
-0.348400 -0.016681 0.517939
-0.344861 -0.026854 0.590338
-0.336185 0.075858 0.581859
-0.266184 -0.196198 0.512530
-0.317303 -0.125352 0.572125
-0.329532 -0.113129 0.508419
-0.294443 -0.095199 0.422885
-0.302818 0.036031 0.420648
-0.272217 0.009207 0.677232
-0.309902 0.129371 0.504069
-0.277569 0.129103 0.417203
-0.273445 0.180050 0.587048
-0.185915 -0.198388 0.290121
-0.198012 -0.226179 0.427834
-0.231725 -0.222804 0.576641
-0.214162 -0.174475 0.651452
-0.187951 -0.128708 0.182740
-0.260984 -0.112459 0.345486
-0.256182 -0.055559 0.266991
-0.271694 -0.101820 0.662119
-0.213953 0.011153 0.183365
-0.279019 -0.022696 0.339992
-0.249455 0.072689 0.262254
-0.257411 0.117008 0.351340
-0.189509 0.156293 0.200230
-0.264145 0.121382 0.662852
-0.184364 0.204769 0.278435
-0.232477 0.199283 0.417930
-0.225960 0.229824 0.509175
-0.159744 0.188372 0.653501
-0.107680 -0.243556 0.295253
-0.125433 -0.249510 0.409090
-0.138738 -0.264035 0.512193
-0.105000 -0.266925 0.590335
-0.121219 -0.217940 0.213501
-0.116518 -0.195835 -0.886503
-0.143488 -0.158979 -0.504594
-0.158814 -0.099449 -0.441072
-0.181783 -0.099781 0.695003
-0.161184 -0.119458 -0.899563
-0.112256 -0.159454 0.130802
-0.142462 -0.035177 -0.980378
-0.125791 -0.079557 0.107968
-0.181071 -0.039672 -0.889989
-0.170488 -0.038395 -0.426029
-0.129610 -0.073853 -0.345129
-0.118904 0.010778 0.099604
-0.186792 0.008271 0.710772
-0.177554 0.039989 -0.902805
-0.163609 0.025496 -0.415576
-0.127320 0.056757 -0.342956
-0.130762 0.110675 -0.976665
-0.112100 0.142229 0.136653
-0.199921 0.089491 0.700596
-0.161036 0.128655 -0.868781
-0.146139 0.121031 -0.438579
-0.107664 0.218450 -0.534459
-0.101221 0.189752 -0.416637
-0.120861 0.222656 0.209774
-0.126672 0.247730 0.423019
-0.150738 0.259103 0.575324
-0.041956 -0.252861 -0.809793
-0.026025 -0.254487 -0.449022
-0.038705 -0.219713 -0.965013
-0.101100 -0.188703 -0.438456
-0.047186 -0.227264 0.341807
-0.036615 -0.203180 0.434292
-0.123892 -0.156828 -0.957960
-0.066881 -0.193561 -0.333440
-0.050748 -0.182145 -0.269973
-0.024432 -0.194802 -0.191207
0.162118 -0.199423 0.647629
-0.072039 -0.101475 -0.185339
-0.031778 -0.157959 -0.131606
-0.025544 -0.134143 -1.033829
-0.102285 -0.032938 -0.262546
-0.056523 -0.066040 -0.122138
-0.024160 -0.023926 -1.065070
-0.081655 0.023512 -0.186870
-0.051922 0.061958 -0.123976
-0.043236 0.059294 -1.058026
-0.082628 0.104708 -0.272492
-0.084362 0.157518 -0.339328
-0.025959 0.178866 -0.196693
-0.011774 0.175243 -0.119179
-0.119481 0.188368 -0.906001
-0.046638 0.202994 -0.980446
-0.037707 0.222908 -0.349530
-0.108432 0.243313 0.276686
-0.040751 0.224106 0.330470
-0.034017 0.253660 -0.833451
-0.063516 0.248811 -0.475851
-0.123606 0.275605 0.534524
-0.043158 0.255076 0.556790
-0.034296 -0.263913 0.561969
-0.029434 -0.235837 -0.359799
0.046602 -0.237075 -0.234427
-0.027517 -0.230659 0.184306
0.053174 -0.250122 0.197329
-0.052894 -0.243764 0.257143
0.046051 -0.224781 -0.116463
0.030876 -0.230447 0.130477
0.051316 -0.206173 0.498106
0.030091 -0.177644 -0.036306
0.046431 -0.201846 0.042411
-0.033496 -0.156854 0.089350
-0.003535 -0.179201 0.357609
0.011449 -0.127374 0.029793
0.041342 -0.091141 0.385270
0.026379 -0.035953 0.422720
-0.009562 -0.024322 -0.031833
-0.048883 0.021895 0.069176
-0.003154 0.026718 0.023731
0.194297 -0.044795 0.702615
0.010734 0.116697 0.412570
0.174405 0.073223 0.709438
-0.030120 0.136440 -1.044633
0.026431 0.162146 -0.031720
0.009329 0.137509 0.038365
0.045144 0.101897 0.382462
-0.023426 0.170690 0.097515
-0.002041 0.168959 0.362524
0.201327 0.119820 0.684126
0.049989 0.204171 0.043828
-0.029115 0.230251 0.183594
-0.027979 0.201316 0.426715
0.043316 0.221488 -0.112615
0.043978 0.233299 0.121978
-0.051618 0.243643 0.248480
0.051681 0.196830 0.495326
0.181022 0.205395 0.637226
0.041598 0.257039 -0.837771
0.006353 0.264594 -0.429578
0.023090 0.247390 -0.295519
0.037003 -0.253763 -0.886055
0.016648 -0.260274 -0.452114
0.061575 -0.228628 -0.973407
0.110094 -0.233390 -0.027854
0.118795 -0.247534 0.147252
0.029833 -0.225938 0.275336
0.111283 -0.218787 -0.796838
0.113626 -0.205505 -0.284430
0.125251 -0.221523 -0.194993
0.016872 -0.200093 -1.019020
0.117888 -0.217122 0.341373
0.117820 -0.193585 0.435879
0.179437 -0.043124 -1.075977
0.049378 -0.071765 0.438758
0.054130 -0.028840 0.416021
0.207157 -0.127529 0.692138
0.038397 0.036226 0.435899
0.195455 0.030831 -1.077389
0.060333 0.092021 0.426248
0.180263 0.110775 -1.043268
0.035531 0.224793 0.277286
0.069220 0.195394 -1.014769
0.106417 0.189013 0.429104
0.110042 0.210029 0.344971
0.038708 0.236696 -0.950019
0.120430 0.214383 -0.859806
0.117537 0.222302 -0.247289
0.056200 0.238773 -0.187192
0.109322 0.230809 -0.030867
0.104762 0.257066 0.189559
0.129023 0.248428 0.119900
0.111773 0.243889 0.576423
0.114966 -0.244601 0.571894
0.164933 -0.178211 -0.959501
0.108816 -0.226483 -0.899666
0.121793 -0.238067 -0.119967
0.136653 -0.252665 0.257977
0.201402 -0.235727 0.195953
0.191412 -0.245482 0.380851
0.134061 -0.240337 0.522511
0.192267 -0.243074 0.493683
0.184067 -0.193767 -0.109055
0.166337 -0.152664 -0.816376
0.181668 -0.130817 -0.195807
0.179202 -0.069298 -0.268257
0.201616 -0.025940 -0.791584
0.183134 0.041231 -0.284039
0.202177 0.044157 -0.809795
0.178499 0.136229 -0.821514
0.197075 0.076857 -0.199557
0.156948 0.157890 -0.260948
0.166781 0.172665 -0.201182
0.155160 0.194855 -0.901248
0.127410 0.208612 -0.958134
0.112433 0.239177 -0.123319
0.162603 0.212603 -0.113465
0.145229 0.254325 0.261798
0.125606 0.236875 0.518872
0.184628 0.239453 0.414887
0.187534 0.249495 0.196141
0.200909 0.237673 0.572248
0.206089 -0.256721 0.275818
0.172363 -0.225893 -0.038368
0.186276 -0.229212 0.116053
0.266629 -0.248389 0.344811
0.208321 -0.236447 0.574773
0.271094 -0.195719 0.591920
0.172236 -0.121197 -1.035095
0.224617 -0.083325 -0.973029
0.236042 -0.178515 0.102873
0.278676 -0.167410 0.185022
0.252437 -0.116292 0.671104
0.227301 -0.101854 -0.111655
0.210151 -0.024157 -0.193156
0.288111 -0.085207 0.114474
0.248917 -0.036652 -0.102365
0.273048 0.001756 0.667307
0.237490 0.016477 -1.047562
0.245895 0.014088 -0.962533
0.297785 0.008467 0.102605
0.242742 0.020397 -0.113506
0.228008 0.095898 -0.980337
0.273426 0.105665 0.105325
0.215793 0.123315 -0.105257
0.177702 0.167836 -0.975122
0.200648 0.214953 0.103201
0.272273 0.192700 0.199791
0.254913 0.211602 0.591929
0.206559 0.257969 0.275083
0.268025 0.245957 0.353066
0.292074 0.209679 0.495650
0.271815 -0.229605 0.268252
0.269701 -0.232785 0.500154
0.334819 -0.207878 0.366451
0.356982 -0.157962 0.283348
0.319632 -0.187607 0.510793
0.338345 -0.065652 0.579101
0.396612 -0.054953 0.273161
0.373726 -0.077071 0.501715
0.405507 0.041858 0.276645
0.368048 0.114312 0.255039
0.344707 0.044954 0.584331
0.363783 0.101323 0.522570
0.309876 0.137902 0.589318
0.352457 0.173794 0.286143
0.271247 0.232955 0.268663
0.337889 0.209077 0.356559
0.369971 -0.157492 0.423674
0.404375 -0.102835 0.350713
0.402842 -0.090021 0.423444
0.419269 -0.009879 0.426652
0.380469 0.010173 0.521574
0.415263 0.076314 0.423591
0.405423 0.121365 0.339499
0.372469 0.164109 0.423993
0.432857 0.031999 0.346836
3 1 0 2
3 9 2 0
3 3 4 14
3 5 3 6
3 3 5 4
3 0 5 6
3 4 5 0
3 1 4 0
3 1 19 4
3 7 6 21
3 6 7 0
3 8 1 2
3 9 0 7
3 9 7 10
3 25 8 2
3 2 9 11
3 2 11 25
3 28 11 9
3 13 3 32
3 32 14 33
3 3 14 32
3 33 14 15
3 14 4 15
3 12 17 13
3 13 17 6
3 3 13 6
3 12 16 18
3 12 18 17
3 19 15 4
3 15 19 38
3 20 16 42
3 16 20 18
3 17 18 21
3 6 17 21
3 46 20 42
3 19 1 8
3 8 38 19
3 8 47 38
3 18 20 22
3 18 22 21
3 21 22 23
3 21 23 7
3 53 47 8
3 20 24 22
3 7 23 10
3 8 25 53
3 22 24 26
3 22 26 23
3 10 23 27
3 10 27 9
3 11 29 25
3 25 29 53
3 23 26 27
3 28 9 27
3 34 12 30
3 31 30 12
3 13 31 12
3 32 31 13
3 35 36 64
3 36 37 64
3 38 71 15
3 39 35 67
3 35 39 36
3 64 37 45
3 40 16 34
3 34 16 12
3 67 41 39
3 36 39 37
3 40 42 16
3 39 41 43
3 39 43 37
3 37 43 44
3 37 44 45
3 43 41 48
3 43 48 44
3 44 48 49
3 44 49 45
3 45 49 50
3 41 51 48
3 46 52 20
3 48 51 54
3 48 54 49
3 49 54 55
3 50 49 55
3 20 52 24
3 50 55 57
3 85 54 51
3 55 54 56
3 55 56 57
3 54 85 56
3 58 24 52
3 26 24 58
3 58 88 26
3 88 59 26
3 27 26 59
3 28 27 59
3 60 11 28
3 60 29 11
3 60 93 29
3 59 92 28
3 92 60 28
3 32 33 94
3 63 35 61
3 61 35 64
3 61 64 62
3 62 64 95
3 97 34 99
3 34 30 99
3 30 65 99
3 30 31 65
3 31 66 65
3 94 66 32
3 32 66 31
3 67 63 74
3 67 35 63
3 64 68 95
3 68 69 95
3 97 40 34
3 45 68 64
3 70 69 72
3 70 72 73
3 97 105 40
3 74 41 67
3 68 45 69
3 69 45 75
3 69 75 72
3 73 72 76
3 105 42 40
3 74 77 41
3 105 111 42
3 72 75 78
3 72 78 76
3 76 78 79
3 111 46 42
3 113 38 47
3 77 80 41
3 50 75 45
3 41 80 51
3 81 75 50
3 75 81 78
3 111 52 46
3 115 47 53
3 116 51 80
3 57 82 50
3 50 82 81
3 78 81 83
3 78 83 79
3 79 83 84
3 111 120 52
3 86 51 116
3 51 86 85
3 81 82 87
3 81 87 83
3 52 120 124
3 122 53 29
3 57 87 82
3 124 58 52
3 89 125 59
3 125 93 59
3 86 90 85
3 85 90 56
3 56 90 91
3 57 56 91
3 57 91 87
3 124 128 58
3 58 128 88
3 89 59 88
3 89 88 128
3 93 92 59
3 130 29 93
3 93 60 92
3 136 63 134
3 61 134 63
3 134 61 135
3 61 62 135
3 95 135 62
3 95 96 135
3 33 71 94
3 96 95 69
3 96 69 70
3 70 100 96
3 98 101 97
3 98 97 139
3 139 97 99
3 65 139 99
3 71 33 15
3 136 143 63
3 143 74 63
3 70 73 100
3 100 73 103
3 104 105 101
3 101 105 97
3 65 106 139
3 66 106 65
3 66 94 102
3 104 103 107
3 107 105 104
3 76 103 73
3 108 139 106
3 106 66 108
3 66 109 108
3 102 147 109
3 66 102 109
3 110 103 76
3 103 110 107
3 107 110 112
3 107 112 111
3 105 107 111
3 149 38 113
3 146 77 74
3 79 110 76
3 147 150 109
3 119 108 109
3 151 80 77
3 114 119 109
3 109 150 114
3 117 110 79
3 110 117 112
3 112 117 118
3 112 118 111
3 153 116 80
3 116 153 155
3 84 117 79
3 111 118 120
3 121 154 119
3 119 114 121
3 150 129 114
3 115 53 122
3 155 86 116
3 118 117 123
3 120 118 123
3 114 125 121
3 114 129 125
3 155 158 86
3 84 83 126
3 117 84 126
3 127 120 123
3 120 127 124
3 121 89 154
3 125 89 121
3 125 129 93
3 158 131 90
3 158 90 86
3 87 91 132
3 87 132 133
3 161 83 133
3 83 87 133
3 161 126 83
3 127 163 124
3 124 163 154
3 124 154 128
3 154 89 128
3 131 132 90
3 90 132 91
3 98 170 138
3 94 71 166
3 136 134 168
3 136 168 167
3 140 168 134
3 140 134 135
3 135 141 140
3 135 96 141
3 142 141 96
3 142 96 169
3 96 100 169
3 137 100 103
3 137 169 100
3 137 103 104
3 101 138 104
3 104 138 137
3 138 101 98
3 170 98 139
3 139 144 170
3 173 102 166
3 166 102 94
3 173 145 102
3 149 71 38
3 108 144 139
3 144 108 145
3 145 108 148
3 145 148 147
3 102 145 147
3 147 148 150
3 119 148 108
3 152 148 119
3 148 152 150
3 113 47 115
3 152 119 156
3 152 156 129
3 150 152 129
3 157 119 154
3 156 119 157
3 187 158 155
3 129 156 191
3 131 158 159
3 159 158 187
3 159 160 131
3 160 132 131
3 160 133 132
3 161 133 160
3 160 188 161
3 188 126 161
3 126 188 162
3 126 162 117
3 117 162 123
3 127 123 164
3 164 123 162
3 127 164 163
3 154 163 190
3 157 154 190
3 129 191 165
3 129 165 93
3 165 130 93
3 171 138 170
3 170 172 195
3 169 175 142
3 169 196 175
3 169 137 196
3 137 138 197
3 196 137 197
3 197 138 171
3 170 195 171
3 170 144 172
3 172 144 145
3 174 145 173
3 174 172 145
3 166 199 173
3 174 173 199
3 166 71 199
3 201 136 167
3 201 143 136
3 176 167 168
3 168 140 176
3 140 141 176
3 142 177 141
3 142 175 177
3 74 201 146
3 201 74 143
3 176 141 178
3 141 177 178
3 207 178 177
3 176 178 179
3 178 180 179
3 178 207 180
3 146 151 77
3 179 180 181
3 207 183 180
3 151 153 80
3 181 180 182
3 182 180 184
3 180 183 184
3 183 185 184
3 153 218 155
3 186 218 182
3 182 159 186
3 182 184 159
3 187 155 218
3 218 186 187
3 187 186 159
3 184 160 159
3 185 160 184
3 185 189 160
3 156 157 192
3 156 192 191
3 122 29 130
3 189 188 160
3 189 162 188
3 189 219 162
3 162 219 164
3 164 219 193
3 222 190 193
3 157 190 192
3 192 194 191
3 194 165 191
3 194 130 165
3 163 164 193
3 193 190 163
3 222 192 190
3 198 195 172
3 171 195 225
3 225 195 198
3 198 172 226
3 174 226 172
3 226 199 200
3 226 174 199
3 199 71 200
3 167 202 201
3 196 203 175
3 196 197 203
3 197 171 203
3 171 204 203
3 171 225 204
3 200 71 205
3 167 176 202
3 177 175 206
3 175 203 206
3 71 149 205
3 203 208 206
3 203 204 208
3 176 179 202
3 177 206 207
3 206 209 207
3 206 208 209
3 205 113 210
3 149 113 205
3 211 146 201
3 201 202 211
3 202 212 211
3 202 179 212
3 208 213 209
3 151 146 211
3 179 181 212
3 209 214 207
3 209 213 214
3 212 215 211
3 212 181 215
3 207 214 183
3 214 213 216
3 235 210 122
3 210 115 122
3 210 113 115
3 153 151 211
3 181 182 215
3 183 214 217
3 214 216 217
3 153 211 215
3 185 183 217
3 130 237 122
3 218 153 215
3 182 218 215
3 189 185 217
3 217 216 219
3 216 220 219
3 221 237 130
3 217 219 189
3 220 193 219
3 220 239 193
3 193 239 222
3 222 239 223
3 192 223 224
3 224 221 194
3 221 130 194
3 192 222 223
3 224 194 192
3 227 225 198
3 226 227 198
3 204 225 228
3 227 228 225
3 241 227 229
3 229 227 226
3 200 229 226
3 200 230 229
3 200 205 230
3 208 204 231
3 204 228 231
3 229 230 232
3 205 210 230
3 233 208 231
3 213 208 233
3 235 230 210
3 234 213 233
3 216 213 234
3 236 235 237
3 235 122 237
3 220 216 234
3 236 237 224
3 220 234 238
3 248 236 224
3 237 221 224
3 239 220 238
3 238 240 239
3 248 224 240
3 223 239 240
3 224 223 240
3 227 242 228
3 241 242 227
3 243 242 241
3 241 232 243
3 229 232 241
3 228 242 231
3 242 249 231
3 243 232 244
3 232 245 244
3 232 230 245
3 231 249 233
3 230 235 245
3 244 245 246
3 245 236 246
3 245 235 236
3 233 247 234
3 247 246 248
3 246 236 248
3 238 234 247
3 247 240 238
3 248 240 247
3 242 244 249
3 243 244 242
3 244 246 249
3 249 247 233
3 249 246 247
