ply
format ascii 1.0
element vertex 252
property float x
property float y
property float z
element face 500
property list uchar int vertex_indices
end_header
-0.335218 -0.026531 -0.986734
-0.355351 -0.076567 0.361114
-0.337415 -0.073854 0.672131
-0.348797 -0.004452 0.311461
-0.354400 0.022381 0.655416
-0.309654 0.097107 -0.976952
-0.338960 0.094071 0.365128
-0.271805 -0.227722 0.436425
-0.262504 -0.229131 0.588203
-0.300833 -0.114632 -0.951070
-0.326199 -0.139384 0.344283
-0.324424 -0.169460 0.570257
-0.281818 -0.167805 0.650330
-0.279033 -0.112400 -1.032224
-0.268118 -0.098709 -0.795147
-0.285795 -0.021148 -0.800370
-0.281300 -0.076247 0.286313
-0.326719 -0.005260 -1.045188
-0.276373 0.045745 0.277623
-0.276799 0.094376 -0.807384
-0.249536 0.108809 -1.035298
-0.338982 0.095228 0.646327
-0.326957 0.167030 0.456480
-0.269761 0.216194 0.407126
-0.262126 0.219406 0.603699
-0.196681 -0.259892 0.409258
-0.188390 -0.275896 0.504173
-0.200455 -0.267022 0.584039
-0.239867 -0.192212 -0.961703
-0.174332 -0.242504 -0.879020
-0.197112 -0.193563 -0.726055
-0.254116 -0.189825 0.336571
-0.245213 -0.176482 -0.854663
-0.180488 -0.185591 -0.638889
-0.244251 -0.087523 0.708935
-0.226981 -0.084200 -0.679720
-0.257068 -0.036869 -1.073371
-0.309067 -0.005321 0.719788
-0.227746 0.080680 -0.673402
-0.269424 0.070324 0.710837
-0.249373 0.177513 -0.845524
-0.189890 0.208349 -0.737502
-0.260914 0.162315 0.319052
-0.242087 0.188806 -0.956877
-0.186588 0.175459 -0.643039
-0.280376 0.174021 0.671701
-0.183229 0.240814 -0.878227
-0.192444 0.277150 0.495722
-0.169750 0.265755 0.581294
-0.108452 -0.265194 -0.739097
-0.135908 -0.226269 0.350403
-0.156518 -0.267670 0.578569
-0.127915 -0.224481 -0.594960
-0.151271 -0.169848 -0.564325
-0.106957 -0.195229 -0.515867
-0.143903 -0.165411 0.304184
-0.052483 -0.115629 -1.030151
-0.151515 -0.055765 -0.497630
-0.188400 0.004632 -0.564394
-0.071126 0.002171 0.275670
-0.150331 0.081168 -0.503853
-0.068167 0.026941 -1.062887
-0.104411 0.078725 0.264965
-0.089658 0.146805 -1.040564
-0.181581 0.113773 -0.579169
-0.154006 0.148132 0.292423
-0.210716 0.214842 0.653206
-0.145830 0.223161 -0.968656
-0.135279 0.208610 -0.592725
-0.099772 0.196649 -0.500785
-0.189956 0.224726 0.354197
-0.119147 0.264387 -0.850480
-0.096405 0.272401 -0.713533
-0.198001 0.266479 0.416032
-0.121799 -0.289696 0.504853
-0.108568 -0.262412 -0.894386
-0.109858 -0.272999 0.442310
-0.069707 -0.286559 0.519445
-0.134562 -0.225744 -0.971963
-0.045332 -0.261982 -0.606990
-0.043304 -0.215787 -0.446839
-0.027638 -0.192434 -0.360121
-0.074308 -0.071557 -0.346463
-0.114277 -0.035048 -0.423419
-0.047789 -0.082056 0.303407
-0.030472 -0.104849 -0.273570
-0.048470 0.002783 -0.263389
0.322861 -0.001198 0.729475
-0.077032 0.067735 -0.341093
-0.094590 0.124604 -0.412827
-0.027887 0.188042 -0.351117
-0.044541 0.203840 -0.959917
-0.044482 0.208629 0.398409
-0.043817 0.267140 -0.570884
-0.133018 0.275385 0.438078
-0.127066 0.291209 0.503607
-0.072573 0.277874 0.496812
-0.033969 -0.262001 -0.784809
0.051058 -0.255345 0.534231
-0.034560 -0.209478 -0.954597
0.040520 -0.224127 -0.729299
0.034573 -0.261979 -0.398110
0.031940 -0.181891 -0.893603
-0.048299 -0.198691 0.372025
0.304993 -0.196925 0.655599
0.028784 -0.216030 -0.289857
0.043861 -0.172193 -0.197713
0.041386 -0.112385 -0.971342
-0.004803 -0.035512 -0.189165
0.058220 -0.110881 -0.104128
0.384104 -0.090921 0.711688
0.024857 0.041816 -0.119717
-0.017554 0.099321 -1.035525
-0.011553 0.084840 -0.208354
-0.040338 0.092486 0.304738
0.037829 0.117879 -0.963685
0.004214 0.175576 -0.259717
0.042339 0.127186 -0.131001
-0.048608 0.218577 -0.441645
0.036219 0.173632 -0.877132
0.036705 0.230124 -0.723834
0.338067 0.180394 0.658532
-0.045298 0.264742 -0.795242
-0.026999 0.280728 -0.668892
0.033445 0.260511 -0.457287
0.055372 -0.263071 -0.536756
0.117369 -0.258919 -0.242094
0.094964 -0.205306 -0.654618
0.134140 -0.201016 -0.576057
0.136752 -0.212335 0.504399
0.097909 -0.120670 -0.742426
0.076324 -0.076191 -0.893516
0.111090 -0.143273 -0.005235
0.149211 -0.146966 0.114998
0.102198 -0.014825 0.093634
0.116458 -0.134137 0.429266
0.044200 -0.011152 -0.990341
0.098995 -0.011560 -0.816424
0.119422 -0.035055 -0.733053
0.126382 -0.023790 0.391624
0.063372 0.044371 -0.031011
0.081082 0.048862 -0.895990
0.106220 0.089520 -0.753345
0.115034 0.083242 0.113189
0.124530 0.146892 0.451719
0.092171 0.144144 -0.028352
0.148423 0.170397 0.095002
0.050177 0.234859 -0.305262
0.109650 0.194987 -0.642684
0.124215 0.229269 -0.532461
0.103857 0.218922 -0.149858
0.046807 0.248859 0.553395
0.127675 0.223021 0.518425
0.034206 0.266515 -0.596247
0.119222 -0.279788 -0.384914
0.217438 -0.245426 0.557586
0.188083 -0.237961 -0.412406
0.193868 -0.260979 -0.062903
0.140125 -0.222838 -0.069127
0.200544 -0.240803 0.026278
0.192812 -0.211182 0.122095
0.135712 -0.116190 -0.660185
0.200093 -0.171610 0.212090
0.175349 -0.159106 0.437841
0.177375 -0.081538 -0.590533
0.148078 -0.029741 0.193331
0.186533 -0.088099 0.321100
0.167910 0.005227 0.371775
0.155655 -0.001861 -0.657911
0.184420 0.048485 -0.588715
0.176097 0.037334 0.272810
0.157825 0.053406 0.413352
0.153539 0.069951 0.200424
0.145177 0.113814 -0.651727
0.199922 0.120859 0.330341
0.150377 0.172645 -0.590211
0.166464 0.126852 0.193863
0.193191 0.171476 0.435003
0.185154 0.245767 -0.037129
0.193614 0.204518 -0.431800
0.208733 0.248636 0.048435
0.242454 0.229936 0.168895
0.129319 0.260793 -0.385596
0.214089 0.235303 -0.353235
0.156265 0.268625 -0.220408
0.274382 -0.268440 -0.190960
0.259629 -0.276434 -0.065433
0.254797 -0.250447 0.128179
0.189760 -0.225116 0.513383
0.268007 -0.245914 0.473942
0.201080 -0.160144 -0.490916
0.256499 -0.220869 0.279061
0.229927 -0.183607 0.330920
0.280804 -0.109986 -0.385805
0.226900 -0.016990 -0.500424
0.259565 0.057011 -0.430117
0.194008 0.138251 -0.512614
0.276545 0.154931 -0.352405
0.271511 0.228724 0.332394
0.183229 0.217930 0.504785
0.270922 0.249028 0.465461
0.231173 0.267980 -0.233225
0.264521 0.269862 0.019806
0.249978 0.247951 0.555286
0.294446 -0.276731 0.040700
0.346585 -0.252975 0.573007
0.331439 -0.216882 -0.215712
0.355980 -0.261222 -0.035536
0.342510 -0.271668 0.152983
0.357674 -0.142912 -0.268483
0.357981 -0.075836 -0.303910
0.326192 0.026156 -0.348951
0.378603 0.076199 0.716188
0.330639 0.217380 -0.208934
0.275493 0.270414 -0.086118
0.353355 0.232181 -0.122783
0.359211 0.249866 -0.021681
0.335705 0.263770 0.305476
0.360355 -0.270388 0.486308
0.420030 -0.238954 0.080052
0.421401 -0.254692 0.292687
0.426911 -0.238264 0.519547
0.397113 -0.231008 -0.028524
0.442526 -0.193289 0.622303
0.393917 -0.139179 -0.182465
0.450300 -0.124539 0.668644
0.458470 -0.104627 -0.058940
0.409475 0.015894 -0.245017
0.405487 0.121016 -0.188519
0.436279 0.166474 -0.054519
0.453089 0.112915 0.672823
0.448968 0.199523 0.032073
0.391754 0.232922 0.586796
0.337888 0.269124 0.115640
0.420511 0.245449 0.153208
0.352175 0.264940 0.511871
0.413821 0.249111 0.499980
0.499068 -0.137599 0.051199
0.507910 -0.155919 0.143567
0.491321 -0.152515 0.565091
0.439854 0.006613 0.697451
0.437399 0.021872 -0.184348
0.481585 0.058775 -0.051469
0.499903 0.125522 0.057153
0.465852 0.205470 0.108684
0.476560 0.167154 0.563684
0.534652 -0.083477 0.102478
0.520458 -0.048090 0.027047
0.520674 -0.014138 0.557629
0.530413 0.036914 0.054929
0.533378 0.079497 0.110794
0.516690 0.084886 0.588188
3 9 0 15
3 1 3 4
3 1 4 2
3 15 0 19
3 5 0 17
3 0 5 19
3 3 6 4
3 13 9 28
3 31 10 7
3 7 10 11
3 7 11 8
3 8 11 12
3 12 11 2
3 12 2 34
3 16 10 31
3 1 10 16
3 10 1 11
3 11 1 2
3 0 9 13
3 9 15 14
3 16 3 1
3 17 13 36
3 13 17 0
3 16 18 3
3 34 2 37
3 37 2 4
3 20 17 36
3 37 4 39
3 5 17 20
3 18 6 3
3 21 4 6
3 21 39 4
3 42 6 18
3 6 22 21
3 39 21 45
3 20 43 5
3 23 6 42
3 23 22 6
3 22 23 24
3 22 24 21
3 45 21 24
3 25 31 7
3 25 50 31
3 26 25 7
3 8 26 7
3 27 26 8
3 8 51 27
3 8 12 51
3 28 9 32
3 28 32 29
3 29 32 30
3 50 55 31
3 33 30 35
3 36 13 56
3 14 32 9
3 32 14 30
3 30 14 35
3 55 16 31
3 14 15 35
3 59 18 16
3 35 15 38
3 35 38 58
3 61 20 36
3 15 19 38
3 59 62 18
3 61 63 20
3 58 38 64
3 5 40 19
3 19 40 41
3 19 41 38
3 62 65 18
3 65 42 18
3 5 43 40
3 38 41 44
3 38 44 64
3 66 39 45
3 20 67 43
3 40 43 46
3 40 46 41
3 42 65 70
3 45 24 66
3 70 23 42
3 24 23 47
3 48 24 47
3 48 66 24
3 70 73 23
3 73 47 23
3 74 26 51
3 29 49 75
3 26 74 76
3 26 76 25
3 51 26 27
3 29 75 78
3 29 78 28
3 30 49 29
3 49 30 52
3 49 52 79
3 76 50 25
3 78 13 28
3 52 30 33
3 52 33 53
3 53 54 52
3 78 56 13
3 35 53 33
3 54 53 57
3 54 57 83
3 84 16 55
3 61 36 56
3 58 53 35
3 53 58 57
3 84 59 16
3 87 34 37
3 57 58 60
3 57 60 83
3 83 60 89
3 58 64 60
3 63 67 20
3 44 68 64
3 64 68 60
3 60 68 69
3 60 69 89
3 44 41 68
3 92 70 65
3 67 71 46
3 67 46 43
3 41 46 71
3 72 41 71
3 41 72 68
3 70 92 94
3 94 73 70
3 94 47 73
3 47 95 48
3 94 95 47
3 74 51 77
3 75 49 97
3 79 97 49
3 76 74 77
3 77 51 98
3 78 75 99
3 75 97 99
3 80 79 54
3 79 52 54
3 50 76 103
3 104 51 12
3 103 55 50
3 99 56 78
3 81 80 82
3 81 82 85
3 104 12 34
3 83 80 54
3 80 83 82
3 103 84 55
3 85 82 86
3 110 34 87
3 82 83 88
3 82 88 86
3 83 89 88
3 59 114 62
3 87 37 39
3 112 63 61
3 86 88 113
3 114 65 62
3 112 91 63
3 88 89 90
3 88 90 113
3 114 92 65
3 67 63 91
3 69 118 89
3 118 90 89
3 68 72 93
3 69 68 93
3 69 93 118
3 91 71 67
3 122 71 91
3 71 122 72
3 72 122 123
3 123 93 72
3 95 96 48
3 96 95 94
3 100 97 79
3 100 79 125
3 80 125 79
3 80 101 125
3 51 104 98
3 97 102 99
3 97 100 102
3 101 80 81
3 101 81 105
3 76 98 103
3 76 77 98
3 81 85 105
3 56 99 107
3 99 102 107
3 105 85 106
3 106 85 108
3 106 108 109
3 107 136 56
3 56 136 61
3 109 108 111
3 86 108 85
3 61 136 112
3 113 108 86
3 108 113 111
3 136 115 112
3 113 116 117
3 111 113 117
3 91 112 115
3 115 119 91
3 114 144 92
3 90 147 116
3 90 116 113
3 147 117 116
3 91 119 122
3 119 120 122
3 120 123 122
3 120 153 123
3 118 93 124
3 147 90 124
3 90 118 124
3 92 96 94
3 92 151 96
3 153 93 123
3 93 153 124
3 151 48 96
3 151 66 48
3 121 66 151
3 125 101 154
3 101 126 154
3 98 104 155
3 125 127 100
3 125 128 127
3 101 105 126
3 126 105 106
3 126 106 158
3 98 129 103
3 129 98 155
3 100 127 130
3 106 109 158
3 158 109 132
3 107 102 131
3 102 100 131
3 100 130 131
3 127 161 130
3 129 135 103
3 110 104 34
3 133 132 134
3 84 103 135
3 107 131 136
3 131 130 137
3 130 138 137
3 139 84 135
3 140 132 109
3 111 140 109
3 132 140 134
3 59 84 139
3 131 141 136
3 131 137 141
3 138 142 137
3 134 140 143
3 114 59 139
3 136 141 115
3 137 142 141
3 144 114 139
3 115 141 119
3 141 142 119
3 111 117 140
3 140 117 145
3 140 145 143
3 143 145 146
3 142 120 119
3 142 148 120
3 145 117 150
3 150 117 147
3 144 152 92
3 120 148 153
3 148 149 153
3 152 151 92
3 124 153 149
3 182 124 149
3 124 182 147
3 147 184 150
3 182 184 147
3 156 154 185
3 154 126 185
3 125 156 128
3 154 156 125
3 126 158 157
3 158 159 157
3 188 129 155
3 128 156 190
3 160 159 133
3 160 133 162
3 188 163 129
3 127 128 161
3 190 164 128
3 159 158 132
3 133 159 132
3 163 135 129
3 128 164 161
3 165 162 133
3 162 166 192
3 162 165 166
3 166 139 163
3 163 139 135
3 138 130 161
3 134 165 133
3 166 167 139
3 168 138 161
3 161 164 168
3 164 169 168
3 166 165 170
3 166 170 167
3 142 138 168
3 143 165 134
3 139 167 171
3 172 165 143
3 165 172 170
3 173 142 168
3 168 169 173
3 167 170 174
3 167 174 171
3 139 171 144
3 169 175 173
3 169 196 175
3 176 172 143
3 146 176 143
3 170 172 176
3 177 171 174
3 171 177 144
3 121 39 66
3 148 142 173
3 173 175 148
3 145 150 178
3 146 145 178
3 149 148 175
3 175 196 149
3 149 196 179
3 146 178 180
3 146 180 181
3 146 181 176
3 152 144 199
3 144 177 199
3 149 179 182
3 179 183 182
3 150 184 178
3 152 199 203
3 152 203 151
3 201 182 183
3 201 184 182
3 203 121 151
3 185 126 186
3 126 157 186
3 186 159 204
3 159 187 204
3 155 205 189
3 155 104 205
3 156 185 206
3 159 186 157
3 160 187 159
3 192 189 191
3 189 188 155
3 156 206 193
3 162 187 160
3 187 162 191
3 191 162 192
3 189 192 163
3 188 189 163
3 156 193 190
3 166 163 192
3 194 164 190
3 169 164 194
3 190 193 194
3 193 195 194
3 212 87 39
3 196 169 194
3 194 195 196
3 195 179 196
3 195 197 179
3 170 176 174
3 212 39 121
3 179 197 183
3 197 213 183
3 176 181 174
3 174 181 198
3 174 198 177
3 177 198 200
3 177 200 199
3 183 213 201
3 202 181 180
3 199 200 203
3 201 214 184
3 184 214 178
3 178 202 180
3 214 202 178
3 186 204 207
3 207 204 208
3 204 187 208
3 208 189 218
3 191 189 208
3 218 189 205
3 185 186 207
3 206 185 207
3 191 208 187
3 193 206 209
3 193 209 210
3 211 193 210
3 195 193 211
3 197 195 211
3 211 228 197
3 201 213 215
3 217 198 181
3 200 198 217
3 232 121 203
3 214 201 215
3 216 214 215
3 216 202 214
3 216 233 202
3 202 233 181
3 233 217 181
3 217 235 200
3 203 235 232
3 203 200 235
3 219 207 208
3 220 219 208
3 218 220 208
3 221 220 218
3 218 205 221
3 219 222 207
3 221 205 223
3 205 104 223
3 209 206 224
3 206 207 224
3 207 222 224
3 223 104 225
3 222 226 224
3 104 110 225
3 209 224 210
3 225 110 240
3 224 227 210
3 240 110 87
3 227 211 210
3 240 87 212
3 228 211 227
3 240 212 230
3 230 212 121
3 229 215 228
3 229 216 215
3 121 245 230
3 213 197 228
3 228 215 213
3 229 231 216
3 245 121 232
3 231 234 216
3 233 216 234
3 217 233 234
3 236 217 234
3 235 217 236
3 236 232 235
3 222 237 226
3 222 219 237
3 219 238 237
3 219 220 238
3 220 221 238
3 221 239 238
3 223 239 221
3 223 225 239
3 237 247 226
3 248 239 225
3 240 248 225
3 227 224 241
3 224 226 241
3 226 242 241
3 226 247 242
3 247 249 242
3 228 227 241
3 249 243 242
3 251 248 240
3 230 251 240
3 242 228 241
3 229 228 242
3 229 242 243
3 251 230 245
3 244 243 245
3 243 231 229
3 231 243 244
3 244 245 234
3 245 236 234
3 232 236 245
3 244 234 231
3 238 246 237
3 238 239 246
3 237 246 247
3 246 239 248
3 246 249 247
3 246 248 249
3 249 248 250
3 248 251 250
3 249 250 243
3 250 251 243
3 251 245 243
