ply
format ascii 1.0
element vertex 248
property float x
property float y
property float z
element face 500
property list uchar int vertex_indices
end_header
-0.562357 -0.178984 0.473522
-0.621576 -0.049559 0.738789
-0.611740 -0.055611 0.409363
-0.614896 0.081462 0.433867
-0.604946 0.127035 0.715884
-0.571661 0.175335 0.453920
-0.483935 -0.272513 0.642581
-0.575470 -0.173895 0.738707
-0.591529 -0.080938 0.387084
-0.592112 -0.085644 0.789856
-0.594154 0.074455 0.387674
-0.555715 0.044609 0.786937
-0.562196 0.172540 0.736093
-0.552939 0.215339 0.664792
-0.472830 0.266385 0.497234
-0.432260 -0.296756 0.522743
-0.510914 -0.191608 0.404484
-0.484505 -0.214036 0.736160
-0.442506 -0.170958 0.320049
-0.516990 0.019234 0.327123
-0.386556 -0.048661 0.183707
-0.392990 0.089834 0.197119
-0.437664 0.180871 0.312787
-0.510844 0.195928 0.396923
-0.448003 0.290012 0.595617
-0.440396 0.269304 0.654184
-0.351080 -0.282020 0.438802
-0.295672 -0.237642 0.243877
-0.367533 -0.160723 0.213049
-0.300880 -0.031305 0.788505
-0.259484 0.097262 0.784047
-0.355975 0.178462 0.205683
-0.286600 0.204883 0.716842
-0.297638 0.233562 0.241694
-0.360017 0.266145 0.410612
-0.370379 -0.301790 0.600960
-0.208748 -0.145156 0.065324
-0.194190 0.190626 0.096949
-0.267543 0.254737 0.432532
-0.365009 0.292993 0.582307
-0.175822 -0.258378 0.584496
-0.257707 -0.205853 0.705796
-0.243080 -0.250021 0.295218
-0.254016 -0.246667 0.430837
-0.192231 -0.207317 -0.532259
-0.194550 -0.187582 0.359679
-0.226653 -0.105514 -0.647218
-0.156588 -0.209402 -0.413234
-0.119948 -0.166545 0.703838
-0.228965 -0.070623 -0.446046
-0.244718 -0.064567 0.044218
-0.170013 -0.095684 -0.315402
-0.236820 0.054542 -0.638107
-0.196306 0.051647 -0.340439
-0.218342 0.019120 0.035441
-0.231958 0.107809 -0.442801
-0.202139 0.170521 -0.680813
-0.196573 0.213547 -0.542811
-0.242521 0.246339 0.308604
-0.167829 0.158820 0.419293
-0.214412 0.263706 0.581818
-0.142586 -0.228019 0.145629
-0.138882 -0.253915 -0.522794
-0.132803 -0.171426 0.478203
-0.150291 -0.197925 -0.728665
-0.094727 -0.219877 -0.816259
-0.182326 -0.150110 0.425780
-0.136585 -0.082072 -0.876241
-0.211544 -0.049776 -0.752509
-0.125660 -0.053113 0.377935
-0.199787 -0.048574 0.765775
-0.112214 0.003537 -0.179587
-0.129939 0.049109 -0.910031
-0.126403 -0.004699 0.429461
-0.086864 0.019182 0.747099
-0.188020 0.086477 -0.787369
-0.206012 0.093879 0.770507
-0.100468 0.065895 0.363382
-0.136231 0.230442 -0.734693
-0.167478 0.212683 -0.418109
-0.100456 0.202785 -0.836518
-0.122900 0.181580 0.711959
-0.151595 0.200316 0.490567
-0.144730 0.260609 -0.519491
-0.126943 0.240346 0.162791
-0.067405 -0.248410 -0.712777
-0.083313 -0.152648 0.245477
-0.077807 -0.181207 -0.239428
-0.109945 -0.197064 0.025646
-0.018663 -0.242524 0.045748
-0.036569 -0.202039 0.158435
-0.038884 -0.200501 -0.875850
-0.042989 -0.218115 -0.046849
-0.117595 -0.042655 -0.049331
-0.043393 -0.013702 -0.968779
-0.064410 0.011644 0.324025
-0.105717 0.101711 0.461189
-0.053396 0.104011 -0.942805
-0.080272 0.138222 -0.058184
-0.046355 0.095085 0.299110
-0.068976 0.193559 -0.226560
-0.116155 0.170071 0.020851
-0.081246 0.173575 0.262197
-0.095857 0.235200 0.091872
-0.038367 0.231881 -0.001826
-0.035094 0.228447 0.116601
-0.029713 0.247350 -0.752263
-0.029231 -0.261254 -0.398663
0.204791 -0.250483 0.582589
-0.035344 -0.239428 -0.805154
0.039571 -0.240952 -0.400511
0.023347 -0.273709 -0.243882
0.048292 -0.276878 -0.035591
0.034665 -0.204827 -0.687636
0.061892 -0.197253 0.142588
0.151155 -0.223265 0.526981
-0.002335 -0.110381 -0.954327
0.042030 -0.108648 0.194436
0.123924 -0.139732 0.469860
0.051960 0.062520 0.230772
0.279990 -0.088013 0.704926
0.104244 -0.037544 0.430903
0.279988 0.002220 0.715333
0.242330 0.098916 0.706918
0.119567 0.096498 0.435562
0.031916 0.218733 -0.879990
0.046883 0.178382 -0.677847
0.038867 0.211919 -0.463345
-0.033810 0.266698 -0.382456
0.058776 0.285350 -0.220000
0.050558 0.208773 0.125899
0.149810 0.209544 0.497551
0.036705 0.260828 0.024409
0.082279 -0.277487 -0.311171
0.100877 -0.298527 -0.200117
0.285850 -0.198002 0.620613
0.133605 -0.149504 -0.735492
0.113958 -0.220051 -0.380131
0.081230 -0.067451 -0.492999
0.332073 -0.075635 -0.966645
0.108371 -0.000766 -0.682224
0.317714 0.063527 -0.961280
0.073182 0.095313 -0.499085
0.169495 0.152593 0.264923
0.101975 0.187781 -0.758214
0.106781 0.160490 -0.439953
0.294821 0.175241 0.651364
0.090699 0.273082 -0.320991
0.231692 0.243305 0.569525
0.183043 -0.293216 -0.026366
0.143889 -0.283898 0.067883
0.262885 -0.238952 -0.880516
0.187873 -0.231363 -0.799466
0.211555 -0.255703 -0.356055
0.217645 -0.208069 -0.428521
0.141934 -0.065037 0.248545
0.205120 -0.169281 0.430294
0.124126 -0.029170 -0.474493
0.207673 -0.110913 0.352242
0.170679 0.043260 0.329715
0.256440 0.086520 -0.565947
0.200394 0.146143 0.381355
0.219127 0.240669 -0.389793
0.329373 0.202590 -0.880942
0.207201 0.232233 -0.816117
0.139596 0.245248 0.136788
0.148925 0.287533 0.047459
0.132024 0.301298 -0.057661
0.242480 0.286215 -0.011363
0.224301 -0.274204 -0.251998
0.241972 -0.291835 0.074274
0.308199 -0.231200 -0.121235
0.289737 -0.277552 0.218039
0.254977 -0.244332 0.526188
0.238481 -0.209755 0.319655
0.232165 -0.180870 -0.743705
0.271436 -0.087083 -0.589347
0.205267 -0.045463 -0.705562
0.269178 -0.022347 -0.644634
0.205224 0.135628 -0.741790
0.279449 0.114629 -0.662082
0.340506 0.228890 -0.724911
0.350483 0.223278 -0.537245
0.283599 0.257581 -0.384698
0.254656 0.230280 0.378648
0.236645 0.275950 -0.262560
0.341293 0.193418 -0.135332
0.322322 -0.224752 -0.036570
0.323202 -0.242473 -0.442714
0.346135 -0.237866 -0.385876
0.349880 -0.256463 0.187671
0.356008 -0.253891 0.428305
0.343852 -0.233061 -0.724204
0.357867 -0.219559 -0.578000
0.342384 -0.198218 -0.909449
0.287348 -0.141215 -0.672844
0.343950 -0.102281 0.680563
0.374887 -0.136512 -0.127187
0.320393 0.244944 -0.014781
0.378641 0.230784 0.537334
0.357165 0.233504 -0.380735
0.315583 0.263476 0.204863
0.362833 0.230832 0.101299
0.355232 0.258591 0.446432
0.391656 -0.224254 -0.803173
0.361298 -0.196124 -0.267737
0.431682 -0.230332 0.345330
0.438566 -0.206548 0.458792
0.441692 -0.167301 -0.411416
0.398966 -0.123980 -0.022696
0.440614 -0.165045 0.153187
0.426695 -0.073657 -0.915209
0.399296 -0.012625 -0.106624
0.362946 0.009007 0.670052
0.408698 0.045089 -0.212792
0.416806 0.092327 -0.916546
0.468228 0.117987 -0.414938
0.404850 0.137342 -0.280462
0.386992 0.161869 0.002743
0.458754 0.084204 0.110871
0.472062 0.138255 0.492875
0.438254 0.178234 -0.829822
0.329497 0.239313 -0.267567
0.386406 0.235284 -0.782433
0.452257 0.187293 0.258467
0.426802 0.233185 0.407012
0.429683 -0.229378 -0.633686
0.417381 -0.223834 -0.499890
0.495206 -0.125725 -0.712080
0.478840 -0.160194 -0.510185
0.501787 -0.125367 0.269198
0.480096 -0.118631 -0.819696
0.437690 -0.016451 -0.295203
0.490049 -0.038074 -0.419027
0.464503 -0.067671 0.093942
0.515592 -0.034054 0.194244
0.416441 0.022844 -0.031023
0.502371 0.037656 -0.811724
0.519438 0.059898 0.268225
0.490794 0.151000 -0.720033
0.424497 0.229575 -0.628787
0.484533 0.163501 -0.518489
0.428776 0.214695 -0.497456
0.473276 -0.090426 0.519041
0.534703 -0.049450 0.288889
0.514795 0.036604 -0.525361
0.527841 0.045495 -0.736810
0.516013 0.030782 0.485368
3 0 1 7
3 7 1 9
3 2 0 8
3 0 2 1
3 10 2 8
3 3 2 10
3 2 3 1
3 9 1 11
3 1 3 4
3 1 4 11
3 11 4 12
3 5 3 10
3 3 5 4
3 5 13 4
3 13 12 4
3 15 0 6
3 16 0 15
3 6 0 7
3 6 7 17
3 16 8 0
3 17 7 9
3 16 19 8
3 19 10 8
3 19 23 10
3 23 5 10
3 14 5 23
3 5 14 13
3 12 13 25
3 14 24 13
3 24 25 13
3 18 16 26
3 26 16 15
3 16 18 19
3 18 20 19
3 29 9 11
3 20 21 19
3 19 21 22
3 19 22 23
3 30 11 32
3 32 11 12
3 23 22 34
3 6 35 15
3 15 35 26
3 27 18 26
3 35 6 17
3 28 18 27
3 20 28 36
3 18 28 20
3 29 11 30
3 21 31 22
3 31 33 22
3 22 33 34
3 32 12 25
3 34 14 23
3 34 39 14
3 32 25 39
3 39 24 14
3 39 25 24
3 26 40 43
3 26 35 40
3 41 40 35
3 27 26 42
3 26 43 42
3 41 35 17
3 27 36 28
3 20 36 50
3 41 17 29
3 29 17 9
3 54 20 50
3 21 20 54
3 21 37 31
3 37 33 31
3 33 58 34
3 38 34 58
3 60 34 38
3 60 39 34
3 32 39 60
3 61 27 42
3 40 41 48
3 61 36 27
3 43 45 42
3 43 40 63
3 64 46 44
3 63 66 43
3 44 46 49
3 44 49 47
3 45 43 66
3 68 46 64
3 47 49 51
3 48 41 70
3 70 41 29
3 54 50 36
3 52 46 68
3 46 52 49
3 51 49 53
3 75 52 68
3 49 52 55
3 49 55 53
3 70 29 76
3 76 29 30
3 56 52 75
3 52 56 57
3 52 57 55
3 53 55 79
3 54 37 21
3 76 30 32
3 81 76 32
3 79 55 57
3 59 82 38
3 38 58 59
3 38 82 60
3 60 81 32
3 37 84 33
3 33 84 58
3 62 64 44
3 62 85 64
3 62 44 47
3 86 61 42
3 61 88 36
3 45 86 42
3 65 67 64
3 64 67 68
3 69 86 45
3 45 66 69
3 88 93 36
3 93 54 36
3 63 73 66
3 74 48 70
3 53 71 51
3 73 69 66
3 67 72 75
3 67 75 68
3 77 69 73
3 59 77 73
3 73 96 59
3 70 76 74
3 93 101 54
3 101 37 54
3 81 74 76
3 80 75 72
3 75 78 56
3 75 80 78
3 53 79 100
3 59 102 77
3 59 96 82
3 37 101 103
3 59 58 102
3 78 83 57
3 78 57 56
3 57 83 79
3 58 84 102
3 103 84 37
3 85 62 107
3 91 65 109
3 109 65 85
3 65 64 85
3 107 62 47
3 87 107 47
3 61 90 89
3 86 90 61
3 115 63 40
3 89 92 88
3 89 88 61
3 67 91 116
3 65 91 67
3 51 87 47
3 92 87 93
3 92 93 88
3 95 86 69
3 116 94 67
3 71 87 51
3 87 71 93
3 118 121 63
3 121 73 63
3 120 48 74
3 67 94 72
3 120 74 122
3 121 96 73
3 94 97 72
3 93 71 98
3 99 95 77
3 95 69 77
3 122 74 123
3 53 100 71
3 71 100 98
3 93 98 101
3 123 74 81
3 80 72 97
3 99 77 102
3 125 80 97
3 100 104 98
3 104 101 98
3 101 104 103
3 125 106 80
3 106 78 80
3 83 128 79
3 79 128 100
3 104 105 103
3 105 84 103
3 84 105 102
3 131 60 82
3 78 106 83
3 106 128 83
3 107 111 133
3 109 85 113
3 85 107 113
3 107 110 113
3 107 133 110
3 87 111 107
3 112 111 92
3 92 89 112
3 89 90 114
3 92 111 87
3 117 114 90
3 90 86 117
3 86 119 117
3 86 95 119
3 94 116 139
3 141 97 94
3 99 119 95
3 99 102 119
3 105 130 119
3 119 102 105
3 124 82 96
3 104 100 129
3 126 127 106
3 127 128 106
3 147 128 127
3 129 100 128
3 129 132 104
3 132 130 105
3 132 105 104
3 148 81 60
3 147 129 128
3 134 112 149
3 149 112 150
3 134 133 111
3 112 134 111
3 150 112 89
3 109 152 91
3 91 152 151
3 152 109 113
3 110 133 137
3 114 150 89
3 108 115 40
3 108 40 135
3 135 40 48
3 151 116 91
3 136 152 113
3 115 118 63
3 110 138 113
3 137 157 138
3 110 137 138
3 140 136 113
3 113 138 140
3 117 119 155
3 138 142 140
3 157 145 142
3 138 157 142
3 155 119 159
3 140 142 126
3 121 124 96
3 130 143 119
3 119 143 159
3 144 140 126
3 142 127 126
3 142 145 127
3 131 82 124
3 145 147 127
3 165 143 130
3 106 125 164
3 164 125 163
3 144 126 106
3 144 106 164
3 165 130 132
3 146 81 148
3 165 132 166
3 148 60 131
3 129 167 132
3 132 167 166
3 133 134 169
3 169 134 149
3 153 133 169
3 153 137 133
3 153 154 137
3 175 152 136
3 150 114 174
3 114 117 155
3 114 155 174
3 174 155 158
3 156 118 115
3 175 136 177
3 154 157 137
3 158 121 156
3 156 121 118
3 177 136 140
3 158 155 159
3 158 159 121
3 121 159 124
3 177 140 179
3 157 160 145
3 159 161 124
3 144 164 179
3 179 140 144
3 145 160 162
3 145 162 147
3 159 143 161
3 124 161 131
3 141 125 97
3 162 185 147
3 185 129 147
3 168 167 185
3 167 129 185
3 149 150 170
3 149 171 169
3 149 187 171
3 187 149 170
3 172 170 150
3 188 154 153
3 172 150 174
3 173 156 115
3 173 174 156
3 108 173 115
3 173 108 135
3 194 116 151
3 174 158 156
3 135 48 120
3 194 139 116
3 195 175 177
3 154 176 157
3 178 195 177
3 176 178 160
3 176 160 157
3 180 178 177
3 179 180 177
3 178 180 160
3 179 164 181
3 181 180 179
3 160 182 162
3 163 125 141
3 182 183 162
3 161 143 184
3 161 184 131
3 123 81 146
3 165 201 184
3 165 184 143
3 184 148 131
3 183 185 162
3 168 185 186
3 166 168 201
3 166 201 165
3 168 166 167
3 169 189 153
3 170 172 190
3 173 191 174
3 194 151 204
3 151 152 204
3 192 152 175
3 192 204 152
3 153 189 188
3 189 169 205
3 205 169 171
3 190 187 170
3 191 190 172
3 174 191 172
3 173 135 191
3 175 195 192
3 192 195 193
3 154 188 193
3 187 197 171
3 193 195 176
3 154 193 176
3 197 205 171
3 135 120 196
3 176 195 178
3 196 120 213
3 213 120 122
3 139 141 94
3 213 122 123
3 213 123 146
3 160 180 182
3 180 181 182
3 222 186 185
3 163 223 164
3 164 223 181
3 182 200 183
3 200 222 185
3 186 198 168
3 199 148 203
3 199 146 148
3 185 183 200
3 202 168 198
3 201 168 202
3 201 203 184
3 203 148 184
3 206 190 191
3 204 192 226
3 192 193 226
3 226 193 227
3 193 188 227
3 227 188 189
3 207 206 191
3 191 135 207
3 208 227 189
3 189 205 208
3 190 209 187
3 190 210 209
3 206 210 190
3 204 211 194
3 209 197 187
3 211 139 194
3 232 208 205
3 209 236 212
3 197 209 212
3 197 212 214
3 211 215 141
3 139 211 141
3 212 186 214
3 236 218 186
3 212 236 186
3 146 220 213
3 217 214 186
3 217 186 222
3 219 202 218
3 219 224 202
3 146 199 220
3 163 141 215
3 215 221 163
3 221 223 163
3 200 242 216
3 216 217 200
3 217 222 200
3 218 198 186
3 218 202 198
3 223 240 181
3 181 240 182
3 240 242 182
3 200 182 242
3 202 224 201
3 201 224 225
3 225 199 203
3 203 201 225
3 204 226 228
3 227 229 226
3 227 208 229
3 206 230 210
3 204 231 211
3 204 228 231
3 228 226 229
3 230 206 207
3 233 229 208
3 232 233 208
3 205 197 232
3 234 209 210
3 210 230 234
3 230 235 234
3 243 135 196
3 243 207 135
3 209 234 236
3 213 243 196
3 231 237 211
3 231 228 237
3 197 214 232
3 211 237 215
3 232 216 233
3 247 243 213
3 216 245 233
3 232 217 216
3 232 214 217
3 234 219 236
3 235 238 219
3 234 235 219
3 236 219 218
3 220 247 213
3 215 237 221
3 237 239 221
3 241 245 216
3 238 224 219
3 240 239 241
3 225 224 220
3 223 221 239
3 239 240 223
3 241 242 240
3 216 242 241
3 225 220 199
3 243 230 207
3 230 243 244
3 229 245 228
3 229 233 245
3 230 244 235
3 228 245 246
3 237 228 246
3 244 238 235
3 244 247 238
3 244 243 247
3 247 220 238
3 239 237 246
3 246 245 239
3 245 241 239
3 220 224 238
