ply
format ascii 1.0
element vertex 252
property float x
property float y
property float z
element face 500
property list uchar int vertex_indices
end_header
-0.571456 -0.162985 0.375886
-0.594838 -0.040967 0.484368
-0.551764 -0.167314 0.484360
-0.612288 -0.032343 0.329896
-0.579411 -0.077222 0.298633
-0.579833 0.032675 0.292028
-0.611340 0.096461 0.373798
-0.566231 0.134832 0.503566
-0.558028 0.195232 0.406386
-0.576382 0.151329 0.343322
-0.481740 -0.219887 0.403457
-0.506400 -0.121272 0.579346
-0.516269 -0.029477 0.283995
-0.512364 0.089736 0.298935
-0.524226 0.035370 0.590147
-0.479217 0.160519 0.577406
-0.477772 0.223381 0.406940
-0.521505 -0.183760 0.343208
-0.446583 -0.225166 0.524020
-0.379717 -0.202787 0.591072
-0.413422 -0.122259 0.346485
-0.432974 0.041811 0.311030
-0.523516 0.198356 0.367355
-0.427872 0.163063 0.359435
-0.437415 0.229498 0.494950
-0.438327 -0.067939 0.633762
-0.311592 -0.097720 0.687748
-0.330634 -0.098772 -0.908070
-0.362854 -0.075456 -0.737567
-0.352894 0.001204 -0.903242
-0.354130 -0.003057 -0.691983
-0.314569 0.069542 0.363828
-0.396379 0.128913 0.633832
-0.314794 0.089380 0.681947
-0.340305 0.095431 -0.867643
-0.286112 0.202310 0.441289
-0.334173 -0.251980 0.506992
-0.299313 -0.191092 -0.764160
-0.269676 -0.201287 -0.873509
-0.209132 -0.230056 -0.654612
-0.260874 -0.201569 0.647659
-0.307657 -0.112433 -0.641097
-0.260678 -0.032008 0.375630
-0.285803 -0.032383 -0.964278
-0.287399 0.067412 -0.954708
-0.308181 0.126763 -0.662418
-0.273848 0.207427 0.644402
-0.267422 0.218650 -0.791016
-0.261720 0.202251 -0.653492
-0.317917 0.236183 0.569632
-0.302439 0.250136 0.504763
-0.191539 -0.269087 -0.782370
-0.273091 -0.249085 0.564690
-0.279020 -0.188863 0.428782
-0.255560 -0.130893 -0.946096
-0.067166 -0.041019 -0.338577
-0.210038 0.012457 0.756440
-0.264720 0.165486 -0.915326
-0.164961 -0.242756 0.581051
-0.160765 -0.221788 -0.886993
-0.199226 -0.236149 0.508477
-0.057363 -0.197161 0.522371
-0.145702 -0.220838 0.668089
-0.134241 -0.156351 -0.944455
-0.211683 -0.126088 0.731005
-0.072972 -0.188735 0.723165
-0.068039 -0.069344 -0.960013
-0.189834 -0.037230 0.399822
-0.110154 -0.129608 0.458399
-0.099815 0.021923 0.434676
-0.051210 0.045676 -0.959291
-0.190796 0.072939 0.403015
-0.166371 0.151307 -0.950108
-0.194263 0.196720 0.690278
-0.114461 0.122024 0.769099
-0.032566 0.111077 -0.308554
-0.076349 0.208985 0.721165
-0.170594 0.219759 -0.890674
-0.170315 0.278986 -0.706708
-0.183794 0.233001 0.517233
-0.156534 0.277288 -0.804449
-0.173137 0.248023 0.602988
-0.071569 -0.304967 -0.735924
-0.118963 -0.283176 -0.808053
-0.077631 -0.302888 -0.672886
0.019452 -0.231141 -0.811911
0.033070 -0.263610 -0.494817
0.024505 -0.202401 -0.344978
-0.128794 -0.067507 0.777559
-0.111991 0.027519 0.793470
-0.064761 0.093845 0.469469
0.032619 0.205711 -0.324855
-0.004480 0.218244 -0.844581
-0.034899 0.243280 0.629361
0.037416 0.254865 -0.453258
-0.058505 0.309165 -0.664450
-0.090782 0.303847 -0.743631
-0.034034 -0.237268 0.637358
-0.051038 -0.236754 0.592604
-0.038391 -0.138426 -0.926035
0.062230 -0.146657 -0.225166
-0.026788 -0.082741 0.484586
0.045799 -0.055807 -0.912380
0.037582 0.003200 -0.192784
0.063237 -0.023980 0.515167
0.051092 0.083363 -0.909403
-0.041977 0.144099 -0.930614
-0.023137 0.177595 0.526148
-0.053846 0.235313 0.572436
0.046610 -0.289079 -0.644775
0.181263 -0.260437 -0.688268
0.119823 -0.238303 -0.495051
0.106741 -0.238162 -0.350336
0.125541 -0.224838 -0.279203
0.049451 -0.191765 0.561500
0.193502 -0.207637 -0.117249
0.427216 -0.128961 0.787357
0.178432 -0.131788 -0.034515
0.118835 0.012936 -0.873899
0.161575 0.057063 -0.038586
0.416496 -0.023960 0.816514
0.052556 0.108719 -0.198864
0.038321 0.115937 0.522712
0.427870 0.072545 0.802815
0.425209 0.203297 0.737774
0.173572 0.194426 -0.145579
0.043255 0.193587 0.565232
0.138090 0.209872 -0.789105
0.116773 0.219131 -0.484452
0.139957 0.230697 -0.269430
0.045443 0.284611 -0.665879
0.034260 0.281146 -0.552283
0.367373 -0.244414 0.649180
0.118659 -0.163917 -0.816764
0.181953 -0.213737 -0.562478
0.192032 -0.191510 -0.347501
0.230270 -0.216579 -0.743709
0.178163 -0.159317 -0.489776
0.230875 -0.017689 -0.814461
0.215035 -0.094117 0.047120
0.218229 -0.008463 -0.482797
0.214512 0.100817 0.036545
0.103369 0.128254 -0.861567
0.167429 0.121851 -0.826795
0.197654 0.175900 -0.365400
0.197904 0.200876 -0.554050
0.106574 0.230885 -0.350958
0.239941 -0.220242 -0.181673
0.261747 -0.209955 -0.022451
0.287602 -0.168160 -0.252454
0.374830 -0.204817 0.575066
0.285969 -0.063946 -0.320613
0.275629 -0.095707 -0.501496
0.221918 -0.051122 -0.436881
0.247495 -0.086519 0.129204
0.270429 -0.095008 0.546842
0.286559 -0.076776 0.193522
0.227583 0.064784 -0.499923
0.226760 0.058243 -0.415478
0.287118 0.087218 -0.312706
0.254501 0.081011 0.121196
0.292224 0.072495 0.202714
0.256806 0.073862 0.550422
0.272654 0.128797 -0.514545
0.273122 0.173929 -0.261967
0.260137 0.206278 -0.031659
0.184893 0.218975 -0.293001
0.303774 0.217508 0.044453
0.253240 0.186794 -0.761374
0.255899 0.220670 -0.160622
0.247316 0.253686 -0.663763
0.388630 0.243777 0.661517
0.377761 -0.235752 -0.664088
0.343663 -0.203744 -0.576169
0.325561 -0.211439 0.103185
0.442542 -0.208975 0.735096
0.369289 -0.208854 0.195977
0.301478 -0.129582 -0.783836
0.342113 -0.111200 0.266296
0.261505 0.002864 -0.487261
0.363051 -0.028504 0.310930
0.355251 -0.067230 0.524262
0.346291 0.110362 0.261680
0.409025 0.116800 -0.120903
0.357203 0.191868 0.193763
0.345558 0.217193 -0.584303
0.339143 0.225188 0.119214
0.347829 0.207694 0.586574
0.357232 -0.214084 -0.051723
0.424018 -0.224992 0.111389
0.417050 -0.176777 -0.743616
0.442587 -0.141082 -0.039447
0.434347 -0.185228 0.317644
0.340071 -0.066148 -0.498083
0.398889 -0.142168 -0.123757
0.424553 -0.054582 -0.790422
0.409108 0.016503 0.432708
0.435004 0.109776 -0.766661
0.364334 0.104449 -0.513233
0.374836 0.105931 0.515217
0.424884 0.138029 0.349193
0.432852 0.162180 -0.047816
0.364726 0.194211 -0.113455
0.484735 0.198702 0.424655
0.367632 0.221346 -0.017758
0.491664 -0.238283 0.616934
0.472846 -0.150536 -0.590525
0.454572 -0.222858 0.254123
0.534927 -0.190473 0.234695
0.493401 -0.144145 -0.700787
0.484056 -0.164499 0.049181
0.527922 -0.137081 0.113690
0.488696 -0.181356 0.465215
0.502981 -0.178640 0.740065
0.442216 -0.112906 -0.539445
0.422953 -0.013853 -0.126843
0.469000 0.053065 -0.045463
0.436447 0.045977 -0.520335
0.441881 0.130203 0.424501
0.401503 0.217200 -0.664789
0.497322 0.133605 -0.724892
0.470729 0.133071 -0.599156
0.490847 0.147929 0.051921
0.531569 0.156497 0.121273
0.453126 0.220891 0.262593
0.513965 0.169652 0.742008
0.397956 0.234662 0.125616
0.503541 0.214588 0.217951
0.497981 0.243720 0.587450
0.497143 -0.210194 0.340885
0.506294 -0.230439 0.678963
0.495517 -0.076463 -0.767186
0.584663 -0.127295 0.197619
0.515406 -0.024077 -0.558065
0.533870 -0.027657 -0.595310
0.508987 -0.014836 0.027998
0.524479 -0.011881 0.767801
0.545812 0.062770 0.098412
0.509418 0.056720 -0.769171
0.531308 0.043556 -0.729299
0.571238 0.161358 0.270691
0.549775 0.227396 0.551369
0.522587 0.224735 0.670387
0.551860 -0.194260 0.427599
0.559390 -0.181926 0.630257
0.610021 -0.100864 0.279555
0.609523 -0.047382 0.637589
0.606875 -0.004864 0.201813
0.630262 0.002001 0.278026
0.609949 0.039590 0.641398
0.616211 0.093828 0.295838
0.573357 0.168583 0.644489
3 0 1 2
3 3 0 4
3 0 3 1
3 4 5 3
3 1 3 6
3 6 3 5
3 1 6 7
3 9 6 5
3 6 8 7
3 6 9 8
3 10 17 0
3 10 0 2
3 10 2 18
3 17 4 0
3 2 11 18
3 1 11 2
3 12 4 17
3 11 1 14
3 12 5 4
3 5 12 13
3 7 14 1
3 5 13 9
3 13 22 9
3 15 14 7
3 16 8 22
3 22 8 9
3 8 16 24
3 8 24 7
3 7 24 15
3 17 10 20
3 19 18 11
3 11 25 19
3 12 17 20
3 20 21 12
3 25 11 14
3 25 14 32
3 12 21 13
3 23 13 21
3 22 13 23
3 32 14 15
3 22 23 16
3 16 23 35
3 18 36 10
3 18 19 36
3 26 19 25
3 27 29 28
3 21 20 31
3 20 42 31
3 28 29 30
3 33 26 25
3 32 33 25
3 29 34 30
3 31 23 21
3 15 24 49
3 32 15 49
3 50 24 35
3 35 24 16
3 50 49 24
3 10 36 53
3 36 19 52
3 52 19 40
3 53 20 10
3 27 38 54
3 38 27 37
3 39 37 41
3 37 27 28
3 37 28 41
3 53 42 20
3 40 19 26
3 54 43 27
3 27 43 29
3 41 28 30
3 43 44 29
3 56 26 33
3 29 44 34
3 45 55 30
3 45 30 34
3 57 34 44
3 35 23 31
3 33 32 46
3 45 34 47
3 45 47 48
3 47 34 57
3 49 46 32
3 51 38 37
3 59 38 51
3 51 37 39
3 36 60 53
3 52 58 60
3 52 60 36
3 52 40 58
3 40 62 58
3 38 59 54
3 59 63 54
3 40 64 62
3 64 40 26
3 67 42 53
3 54 66 43
3 41 30 55
3 64 26 56
3 70 44 43
3 67 71 42
3 71 31 42
3 72 57 44
3 71 35 31
3 56 33 73
3 73 33 46
3 57 72 77
3 77 47 57
3 47 78 48
3 79 50 35
3 81 49 79
3 79 49 50
3 49 81 46
3 81 73 46
3 77 80 47
3 80 78 47
3 83 51 82
3 82 51 84
3 51 83 59
3 51 39 84
3 84 39 86
3 86 39 87
3 61 60 58
3 61 68 60
3 68 53 60
3 62 64 65
3 65 64 88
3 67 53 68
3 63 66 54
3 69 67 68
3 64 56 88
3 66 70 43
3 88 56 89
3 71 67 69
3 72 44 70
3 89 56 74
3 69 90 71
3 73 74 56
3 48 75 45
3 71 90 35
3 76 74 73
3 48 78 91
3 48 91 75
3 79 35 90
3 93 73 81
3 73 93 76
3 78 95 94
3 80 96 78
3 78 96 95
3 83 82 85
3 59 83 85
3 98 61 58
3 62 97 98
3 58 62 98
3 62 65 97
3 99 63 59
3 59 85 99
3 41 87 39
3 61 101 68
3 55 87 41
3 99 66 63
3 101 69 68
3 101 90 69
3 55 45 75
3 72 70 106
3 92 77 106
3 77 72 106
3 107 79 90
3 79 107 108
3 77 92 80
3 78 94 91
3 81 79 108
3 81 108 93
3 92 96 80
3 84 109 82
3 82 109 85
3 86 109 84
3 98 97 114
3 61 98 114
3 85 102 99
3 100 87 55
3 61 114 101
3 116 65 88
3 114 104 101
3 99 102 66
3 100 55 103
3 66 102 70
3 90 101 104
3 120 88 89
3 102 105 70
3 55 75 103
3 70 105 106
3 121 103 75
3 104 122 90
3 123 89 74
3 75 91 121
3 123 74 124
3 105 92 106
3 122 126 107
3 90 122 107
3 107 126 108
3 124 74 76
3 108 126 93
3 130 96 92
3 94 95 131
3 130 95 96
3 131 95 130
3 109 110 85
3 85 110 133
3 111 109 86
3 86 112 111
3 112 86 87
3 132 114 97
3 113 112 87
3 100 113 87
3 113 100 115
3 133 102 85
3 133 118 102
3 100 103 117
3 120 116 88
3 119 117 103
3 105 102 118
3 118 142 105
3 103 121 119
3 142 92 105
3 125 121 91
3 127 92 142
3 91 129 125
3 92 127 130
3 130 128 131
3 128 146 94
3 128 94 131
3 94 146 91
3 146 129 91
3 110 136 133
3 109 134 110
3 109 111 134
3 112 113 135
3 132 97 65
3 112 135 111
3 137 134 111
3 135 137 111
3 115 100 117
3 138 133 136
3 140 134 137
3 155 104 114
3 138 118 133
3 117 119 139
3 139 119 141
3 155 162 104
3 138 143 118
3 162 122 104
3 142 118 143
3 145 157 140
3 128 145 140
3 140 158 128
3 121 125 119
3 158 144 128
3 162 126 122
3 127 142 143
3 127 143 168
3 128 144 146
3 127 168 170
3 145 130 170
3 145 128 130
3 166 146 144
3 166 129 146
3 124 76 171
3 171 76 93
3 170 130 127
3 136 110 172
3 173 110 134
3 147 135 113
3 115 148 147
3 175 132 65
3 134 152 173
3 147 149 135
3 113 115 147
3 115 117 148
3 148 117 139
3 148 139 174
3 150 114 132
3 65 116 175
3 135 149 151
3 155 114 150
3 177 138 136
3 140 152 134
3 153 137 135
3 135 151 153
3 139 154 174
3 153 140 137
3 140 179 152
3 153 158 140
3 140 157 179
3 153 151 158
3 151 159 158
3 160 154 139
3 141 160 139
3 154 160 156
3 156 160 161
3 157 163 179
3 138 168 143
3 163 157 145
3 119 125 165
3 141 119 165
3 158 159 144
3 159 164 144
3 164 166 144
3 141 165 167
3 141 167 160
3 187 126 162
3 163 145 185
3 164 169 166
3 129 169 125
3 185 145 170
3 129 166 169
3 169 165 125
3 187 93 126
3 171 93 187
3 172 110 173
3 147 148 188
3 174 188 148
3 149 147 188
3 190 177 136
3 173 152 193
3 176 174 156
3 176 156 178
3 181 155 150
3 154 156 174
3 195 138 177
3 193 152 179
3 180 178 156
3 195 197 138
3 161 180 156
3 155 181 162
3 123 120 89
3 193 179 198
3 182 180 161
3 181 199 162
3 198 179 163
3 159 183 164
3 197 168 138
3 161 160 184
3 182 161 184
3 183 202 164
3 167 186 160
3 160 186 184
3 199 187 162
3 198 163 185
3 169 164 202
3 202 204 169
3 169 204 165
3 165 204 167
3 190 136 172
3 172 173 206
3 189 188 174
3 176 189 174
3 189 176 207
3 205 150 132
3 189 191 188
3 176 178 192
3 176 192 207
3 195 177 190
3 206 173 214
3 214 173 193
3 194 149 188
3 188 191 194
3 181 150 212
3 149 194 151
3 178 180 192
3 194 215 151
3 196 181 212
3 217 214 193
3 198 217 193
3 151 215 159
3 182 200 180
3 196 180 200
3 196 199 181
3 159 215 183
3 218 199 196
3 217 198 221
3 183 201 202
3 182 184 200
3 203 199 218
3 219 168 197
3 185 219 221
3 221 198 185
3 201 204 202
3 184 224 200
3 203 187 199
3 170 168 219
3 219 185 170
3 226 167 204
3 226 186 167
3 186 226 184
3 184 226 224
3 203 228 187
3 187 228 171
3 208 189 207
3 205 212 150
3 132 230 205
3 132 175 230
3 190 172 209
3 172 206 209
3 189 210 191
3 189 211 210
3 208 211 189
3 207 229 208
3 207 192 229
3 192 212 229
3 175 213 230
3 175 116 213
3 209 231 190
3 231 195 190
3 206 214 233
3 192 180 212
3 194 191 215
3 210 235 191
3 196 212 180
3 213 116 236
3 236 116 120
3 191 216 215
3 191 235 216
3 231 238 195
3 238 197 195
3 233 214 217
3 236 120 123
3 233 217 221
3 215 216 183
3 235 222 216
3 200 218 196
3 236 123 225
3 201 183 216
3 201 216 222
3 225 123 124
3 220 197 238
3 218 200 203
3 220 219 197
3 219 220 221
3 222 204 201
3 204 222 226
3 223 227 222
3 224 203 200
3 225 124 242
3 227 226 222
3 227 224 226
3 224 227 203
3 171 228 242
3 242 124 171
3 208 229 243
3 229 212 243
3 212 205 244
3 243 212 244
3 205 230 244
3 230 213 244
3 208 232 211
3 209 206 234
3 206 233 234
3 210 211 235
3 232 247 211
3 236 244 213
3 211 237 235
3 211 247 237
3 239 231 209
3 238 231 239
3 209 234 239
3 234 221 239
3 233 221 234
3 220 238 239
3 239 221 220
3 235 237 222
3 247 240 237
3 225 251 236
3 237 223 222
3 237 240 223
3 223 240 227
3 203 227 240
3 240 241 203
3 228 203 241
3 241 251 242
3 251 225 242
3 228 241 242
3 243 245 208
3 244 245 243
3 232 208 245
3 244 246 245
3 232 245 247
3 244 236 246
3 245 248 247
3 245 246 248
3 246 249 248
3 246 236 249
3 248 250 247
3 248 249 250
3 247 250 240
3 249 251 250
3 236 251 249
3 250 251 240
3 241 240 251
