ply
format ascii 1.0
element vertex 252
property float x
property float y
property float z
element face 500
property list uchar int vertex_indices
end_header
-0.629482 -0.190963 -0.563819
-0.668874 -0.147442 -0.449293
-0.657097 -0.121675 -0.571386
-0.688224 -0.113045 -0.420794
-0.699852 -0.049755 -0.437501
-0.677119 0.010884 -0.575747
-0.696637 0.037477 -0.430290
-0.676749 0.120177 -0.557778
-0.667372 0.140882 -0.468372
-0.625652 0.186538 -0.576837
-0.575940 -0.222711 -0.593145
-0.589482 -0.196314 -0.641331
-0.504051 -0.141865 -0.752541
-0.674261 -0.070739 -0.405845
-0.512345 -0.021020 -0.787174
-0.580473 0.006890 -0.425170
-0.518791 0.090971 -0.770283
-0.661277 0.066391 -0.407312
-0.593030 0.173580 -0.488873
-0.502265 0.178179 -0.733333
-0.565903 0.220645 -0.577619
-0.511415 -0.221143 -0.672290
-0.582784 -0.178898 -0.501676
-0.493544 0.228807 -0.664323
-0.510440 -0.232824 -0.577604
-0.423159 -0.213641 -0.569891
-0.499194 -0.181748 -0.524723
-0.518276 -0.043337 -0.462233
-0.428850 -0.006751 -0.507219
-0.500887 0.093635 -0.477349
-0.434717 0.112391 -0.516488
-0.516634 0.196292 -0.526174
-0.502009 0.232385 -0.591406
-0.410041 0.197248 -0.573284
-0.384641 -0.238768 -0.652503
-0.441125 -0.196627 -0.738498
-0.398084 -0.139105 -0.783970
-0.409685 -0.122815 -0.532124
-0.442594 -0.053058 -0.808908
-0.440750 0.043581 -0.815179
-0.414790 0.131431 -0.792078
-0.424568 0.203073 -0.733230
-0.441922 0.233581 -0.648703
-0.330616 -0.017089 -0.526175
-0.360154 0.076049 -0.532693
0.056711 -0.251810 -0.638121
-0.036580 -0.184710 -0.560212
-0.215509 -0.172097 0.818755
-0.243058 -0.107906 0.905818
-0.086942 -0.111014 -0.531393
-0.161507 -0.147715 0.758295
0.118980 -0.071446 -0.800251
-0.233002 -0.042478 0.737178
-0.265778 -0.028737 0.811308
-0.262868 0.001613 0.899371
-0.193458 -0.043440 0.961826
0.169165 -0.023352 -0.795197
-0.044382 0.093981 -0.522881
-0.181432 0.073560 0.945879
-0.185701 0.102220 0.761203
-0.260881 0.076450 0.832376
-0.249969 0.096568 0.883229
0.202356 0.067025 -0.779921
-0.192158 0.189895 0.834310
-0.179730 0.186308 0.901208
0.095069 0.230303 -0.721142
-0.054070 0.183931 -0.565855
0.025558 0.252271 -0.640063
0.070866 -0.231618 -0.722186
-0.191424 -0.203252 0.876186
-0.172337 -0.123653 0.947600
-0.185125 -0.027849 0.715870
0.193634 0.160016 -0.753026
-0.111273 -0.228607 0.836808
-0.111224 -0.221189 0.888160
0.039844 -0.130875 0.713790
-0.027444 -0.003709 -0.509322
0.024000 0.017000 0.694284
0.259879 -0.070844 0.971112
0.278841 0.011908 0.997723
0.035346 0.172854 0.735093
-0.106692 0.193402 0.925300
-0.117854 0.220005 0.810795
-0.117996 0.229293 0.870933
0.185343 -0.241936 0.868586
0.069561 -0.199710 -0.529999
0.048235 -0.156769 0.362027
0.037624 -0.216081 0.771305
0.036360 -0.093194 -0.497099
0.089441 -0.171657 0.584514
0.024389 -0.055047 0.565644
0.001716 -0.015747 0.356467
0.037566 -0.064065 0.279379
0.026292 0.068982 0.289920
0.025885 0.049131 0.557239
0.004035 0.081600 0.340028
0.036099 0.067319 -0.494464
0.047811 0.164319 0.359036
0.075360 0.180113 0.565726
0.260911 0.093849 0.964442
0.064023 0.195226 -0.531757
0.150392 -0.261517 -0.579536
0.111894 -0.237311 0.434390
0.126748 -0.253222 0.798357
0.110634 -0.223379 0.329990
0.128005 -0.161285 0.253144
0.185664 -0.185555 0.930094
0.094213 -0.165628 0.681162
0.048636 -0.043172 0.661025
0.118604 -0.006772 0.212784
0.081514 0.151407 0.667651
0.114521 0.149865 0.255477
0.049675 0.234062 0.807585
0.109429 0.224670 0.332050
0.123843 0.244155 0.464971
0.108865 0.211326 0.599458
0.149529 0.266821 -0.582320
0.143720 -0.257586 -0.677593
0.187216 -0.256956 0.376832
0.173799 -0.250000 0.534862
0.192395 -0.263214 0.751835
0.173485 -0.210098 -0.471529
0.195727 -0.241830 0.297209
0.188453 -0.242965 0.666378
0.118027 -0.224952 0.740862
0.108806 -0.152008 -0.472024
0.199209 -0.111012 -0.771219
0.196527 -0.154127 -0.415442
0.114949 -0.029549 -0.448698
0.193065 -0.100600 0.187802
0.111050 0.158488 -0.478861
0.189503 0.129460 -0.414946
0.193649 0.077201 0.182620
0.180709 0.212545 -0.467189
0.182653 0.247143 0.650726
0.116329 0.227758 0.743593
0.200536 0.230259 0.281304
0.144925 0.253139 0.807562
0.156827 0.231487 0.877890
0.149168 0.261765 -0.663895
0.176407 0.259303 0.364479
0.192609 0.261588 0.747791
0.215124 -0.265541 0.808246
0.345085 -0.258177 -0.463123
0.270451 -0.234730 0.571388
0.271239 -0.255278 0.729043
0.283710 -0.228349 0.827261
0.194610 -0.205535 -0.731450
0.354437 -0.219837 -0.368236
0.261850 -0.188276 0.907481
0.281571 -0.158553 -0.726011
0.264552 -0.172274 0.182035
0.366112 -0.163365 -0.280069
0.333965 -0.076888 -0.732121
0.304119 -0.039524 -0.283540
0.235437 -0.013537 0.147858
0.275784 0.114393 -0.742414
0.353721 0.156873 -0.286465
0.265055 0.172288 0.182400
0.177112 0.214896 -0.726787
0.277167 0.204407 0.862642
0.263555 0.242285 0.341576
0.208577 0.260340 0.455434
0.264422 0.252702 0.726396
0.209593 0.255570 0.825417
0.293899 -0.259345 -0.577171
0.307624 -0.206364 -0.671204
0.262161 -0.226827 0.246163
0.270989 -0.234664 0.335280
0.426061 -0.203540 0.146594
0.335484 -0.210945 0.666347
0.350201 -0.199373 0.735853
0.364532 -0.164869 0.349110
0.323155 -0.172360 0.435731
0.344357 -0.152457 0.572881
0.270385 -0.106709 0.143566
0.420735 -0.164205 0.036634
0.332844 -0.093266 0.910044
0.361218 -0.086173 0.427177
0.312470 0.008884 0.980167
0.312770 0.030551 -0.745076
0.329456 0.045065 -0.255255
0.271390 0.091343 0.135762
0.354235 0.095977 0.425216
0.347018 0.143287 0.567055
0.336428 0.085006 0.914906
0.379192 0.145060 0.035413
0.261641 0.211167 -0.684586
0.375776 0.191784 0.122936
0.350091 0.185446 0.334691
0.283480 0.216773 0.435780
0.272278 0.235847 0.594732
0.361499 0.150682 0.822415
0.371170 0.222810 -0.361757
0.311284 0.220233 0.229365
0.334616 0.207628 0.664580
0.349570 0.199907 0.738515
0.301362 0.254455 -0.586751
0.342615 0.258705 -0.467095
0.360105 -0.265831 -0.488142
0.408039 -0.243530 -0.506740
0.424036 -0.230906 -0.403084
0.409336 -0.211372 0.212592
0.414157 -0.218408 -0.581763
0.430029 -0.170545 -0.208625
0.383599 -0.081707 0.819623
0.428191 -0.111208 -0.669113
0.384054 -0.112068 -0.182097
0.402139 -0.108826 0.666715
0.424271 -0.079022 0.717859
0.350152 -0.053657 0.022679
0.426278 -0.099882 0.321093
0.382872 0.003467 0.564200
0.353037 -0.003063 -0.186721
0.403564 -0.007134 0.362561
0.364019 -0.000052 0.434949
0.359664 -0.003614 0.906071
0.343723 0.040419 0.022789
0.392740 0.066695 0.825175
0.369693 0.084436 -0.182090
0.392909 0.105984 0.349562
0.353242 0.178726 -0.666859
0.452321 0.116725 -0.652346
0.418501 0.161485 -0.198437
0.411247 0.098792 0.669489
0.412714 0.114823 0.741360
0.440536 0.179476 0.023995
0.437776 0.197172 -0.587958
0.332837 0.221794 0.274507
0.358304 0.265985 -0.491444
0.390930 0.253594 -0.493777
0.418853 -0.204622 -0.296277
0.479370 -0.164092 -0.569682
0.478822 -0.167087 0.170261
0.446694 -0.022000 -0.681606
0.520470 -0.081642 0.199308
0.506689 0.026869 0.250437
0.435225 -0.002360 0.672674
0.435649 0.036135 0.724018
0.427987 0.228696 -0.426104
0.426201 0.200035 -0.301324
0.471401 0.185045 -0.273482
0.479327 0.179913 0.070719
0.409188 0.198353 0.165617
0.533676 0.156830 0.209861
0.472000 -0.183042 -0.227999
0.521697 -0.083285 -0.566326
0.542318 -0.026754 0.161508
0.530416 0.025187 -0.592484
0.543745 0.083090 -0.492440
0.533674 0.156825 0.209890
0.506754 0.133575 -0.569544
3 0 2 1
3 1 2 3
3 1 3 13
3 3 2 4
3 3 4 13
3 5 2 14
3 2 5 4
3 16 5 14
3 4 5 6
3 13 6 17
3 4 6 13
3 7 5 16
3 5 7 6
3 6 7 8
3 6 8 17
3 7 9 8
3 10 11 0
3 22 10 0
3 22 0 1
3 11 12 2
3 0 11 2
3 13 22 1
3 14 2 12
3 15 22 13
3 13 17 15
3 15 17 18
3 16 19 9
3 7 16 9
3 17 8 18
3 19 20 9
3 20 18 9
3 8 9 18
3 10 24 21
3 22 24 10
3 21 12 11
3 21 11 10
3 26 24 22
3 26 22 27
3 27 22 15
3 27 15 29
3 29 15 18
3 19 23 20
3 20 32 31
3 18 20 31
3 29 18 31
3 23 32 20
3 21 34 35
3 25 34 24
3 34 21 24
3 36 12 35
3 35 12 21
3 25 24 26
3 37 25 26
3 36 38 12
3 38 14 12
3 28 37 26
3 26 27 28
3 38 39 14
3 39 16 14
3 28 29 30
3 27 29 28
3 39 40 16
3 30 29 31
3 19 16 40
3 33 30 31
3 40 41 19
3 19 41 23
3 33 31 32
3 42 23 41
3 33 32 42
3 32 23 42
3 43 37 28
3 43 28 44
3 44 28 30
3 44 30 33
3 45 34 46
3 46 34 25
3 49 25 37
3 51 38 36
3 49 37 43
3 56 39 38
3 57 43 44
3 62 40 39
3 57 44 66
3 66 44 33
3 65 41 40
3 67 42 41
3 66 33 67
3 67 33 42
3 45 68 34
3 68 35 34
3 35 68 36
3 47 48 69
3 69 48 70
3 46 25 49
3 52 50 71
3 50 52 47
3 47 52 53
3 47 53 48
3 48 53 54
3 70 48 55
3 48 54 55
3 51 56 38
3 55 54 58
3 59 52 71
3 52 59 53
3 53 59 60
3 53 60 54
3 54 60 61
3 54 61 58
3 60 59 63
3 60 63 61
3 61 63 64
3 61 64 58
3 72 65 40
3 65 67 41
3 73 69 74
3 47 69 73
3 47 73 50
3 69 70 74
3 75 71 50
3 76 49 43
3 75 77 71
3 55 78 70
3 76 43 57
3 79 55 58
3 77 59 71
3 72 40 62
3 81 58 64
3 63 59 82
3 63 83 64
3 82 83 63
3 64 83 81
3 73 74 84
3 87 50 73
3 80 59 77
3 99 58 81
3 59 80 82
3 85 45 46
3 73 103 87
3 103 73 84
3 88 85 46
3 49 88 46
3 75 50 87
3 106 74 70
3 89 86 90
3 106 70 78
3 91 86 92
3 86 91 90
3 88 76 96
3 49 76 88
3 92 93 91
3 91 94 90
3 95 91 93
3 91 95 94
3 96 76 57
3 97 95 93
3 95 97 94
3 94 97 98
3 100 96 57
3 82 80 112
3 66 100 57
3 100 66 67
3 112 83 82
3 101 117 45
3 117 68 45
3 101 45 85
3 85 121 101
3 87 103 124
3 85 125 121
3 104 105 86
3 102 104 86
3 86 89 102
3 107 75 124
3 124 75 87
3 126 36 68
3 125 85 88
3 126 51 36
3 125 88 128
3 86 105 92
3 108 107 89
3 90 108 89
3 107 108 75
3 109 92 105
3 75 108 77
3 128 88 96
3 92 109 93
3 94 108 90
3 56 62 39
3 128 96 130
3 110 108 94
3 108 110 77
3 111 93 109
3 77 110 80
3 98 110 94
3 130 96 100
3 93 111 97
3 130 100 133
3 111 113 97
3 114 98 97
3 98 114 115
3 98 115 110
3 110 135 80
3 80 135 112
3 139 67 65
3 100 67 116
3 116 133 100
3 114 97 113
3 137 112 135
3 137 138 112
3 112 138 83
3 138 81 83
3 67 139 116
3 102 119 118
3 120 103 142
3 147 68 117
3 118 122 104
3 118 104 102
3 89 119 102
3 119 89 123
3 123 124 120
3 124 103 120
3 142 103 84
3 68 147 126
3 125 127 121
3 122 105 104
3 107 123 89
3 107 124 123
3 84 74 106
3 128 127 125
3 109 129 155
3 105 129 109
3 126 56 51
3 155 132 109
3 154 128 131
3 131 128 130
3 109 132 111
3 132 158 111
3 159 65 72
3 133 131 130
3 111 158 136
3 111 136 113
3 115 134 110
3 135 110 134
3 99 81 138
3 139 65 159
3 136 140 113
3 113 140 114
3 134 115 114
3 141 135 134
3 137 135 141
3 137 164 138
3 140 162 114
3 162 134 114
3 141 164 137
3 101 165 117
3 143 165 101
3 144 118 119
3 120 145 123
3 142 145 120
3 146 145 142
3 117 166 147
3 165 166 117
3 143 101 121
3 143 121 148
3 118 168 122
3 122 168 167
3 118 144 168
3 119 123 144
3 144 123 145
3 146 84 149
3 146 142 84
3 147 150 126
3 150 147 166
3 127 148 121
3 148 127 152
3 151 105 167
3 167 105 122
3 84 106 149
3 129 151 175
3 105 151 129
3 153 126 150
3 154 152 127
3 149 106 78
3 128 154 127
3 175 155 129
3 153 180 126
3 180 56 126
3 78 55 79
3 180 62 56
3 154 131 181
3 155 182 132
3 156 62 180
3 131 157 181
3 79 58 99
3 72 62 156
3 132 182 158
3 156 187 72
3 159 72 187
3 131 133 157
3 158 194 136
3 160 99 138
3 187 139 159
3 139 187 197
3 133 198 193
3 161 140 136
3 161 136 194
3 161 190 162
3 190 191 162
3 162 191 134
3 134 191 163
3 163 160 164
3 160 138 164
3 197 116 139
3 133 116 198
3 116 197 198
3 162 140 161
3 163 141 134
3 164 141 163
3 165 143 199
3 167 202 169
3 202 167 168
3 170 144 145
3 171 170 145
3 146 171 145
3 169 151 167
3 172 202 168
3 168 173 172
3 168 144 173
3 144 174 173
3 170 174 144
3 151 176 175
3 171 146 205
3 205 146 177
3 177 146 149
3 175 176 210
3 178 172 173
3 173 174 178
3 149 78 177
3 177 78 179
3 207 154 213
3 155 175 210
3 216 177 179
3 154 181 213
3 217 155 210
3 78 79 179
3 213 181 219
3 182 155 217
3 185 216 179
3 181 157 219
3 186 182 217
3 185 179 99
3 179 79 99
3 180 221 156
3 160 192 185
3 185 99 160
3 221 187 156
3 186 188 158
3 182 186 158
3 189 220 183
3 189 183 190
3 183 184 190
3 184 191 190
3 184 195 191
3 133 193 157
3 188 194 158
3 161 228 189
3 189 190 161
3 196 192 160
3 187 221 197
3 161 194 228
3 163 191 195
3 196 163 195
3 160 163 196
3 229 198 197
3 199 200 165
3 143 200 199
3 201 200 143
3 165 203 166
3 165 200 203
3 201 143 148
3 148 231 201
3 166 203 232
3 152 231 148
3 152 204 231
3 151 169 176
3 206 150 166
3 166 232 206
3 152 207 204
3 204 207 176
3 208 174 170
3 170 171 208
3 171 209 208
3 205 209 171
3 206 153 150
3 154 207 152
3 176 207 210
3 172 178 211
3 206 234 153
3 212 178 174
3 212 174 208
3 234 180 153
3 207 213 210
3 211 178 214
3 178 215 214
3 178 212 215
3 208 237 212
3 238 209 205
3 177 216 205
3 210 213 217
3 218 238 205
3 205 216 218
3 213 219 217
3 215 183 214
3 215 212 183
3 237 224 212
3 225 238 218
3 216 185 218
3 234 222 180
3 217 219 186
3 220 214 183
3 184 183 212
3 184 212 224
3 221 180 222
3 157 223 219
3 219 223 186
3 225 218 192
3 185 192 218
3 222 227 221
3 186 223 226
3 186 226 188
3 195 184 224
3 225 196 224
3 196 225 192
3 240 157 193
3 240 223 157
3 226 243 188
3 194 188 243
3 228 243 189
3 196 195 224
3 227 197 221
3 227 230 197
3 230 239 198
3 198 239 193
3 240 193 239
3 228 194 243
3 230 229 197
3 198 229 230
3 203 200 232
3 200 201 232
3 233 176 169
3 169 202 233
3 202 172 233
3 232 201 245
3 201 231 245
3 231 204 245
3 204 176 245
3 245 176 233
3 233 172 211
3 246 206 232
3 235 233 211
3 206 246 234
3 235 214 236
3 211 214 235
3 208 209 237
3 209 238 237
3 237 238 224
3 248 251 222
3 234 248 222
3 214 220 236
3 238 225 224
3 244 236 220
3 227 222 251
3 251 241 239
3 227 251 239
3 244 220 189
3 227 239 230
3 240 239 241
3 223 240 241
3 226 223 241
3 242 226 241
3 243 226 242
3 242 244 243
3 189 243 244
3 232 245 246
3 245 233 235
3 245 235 246
3 235 247 246
3 248 234 246
3 246 247 248
3 235 236 247
3 248 247 249
3 247 250 249
3 247 236 250
3 248 249 251
3 236 244 250
3 241 251 249
3 250 241 249
3 242 241 250
3 244 242 250
