ply
format ascii 1.0
element vertex 250
property float x
property float y
property float z
element face 500
property list uchar int vertex_indices
end_header
-0.574793 -0.178765 0.225562
-0.561588 -0.188322 0.475155
-0.560353 -0.136192 0.091438
-0.608735 -0.020199 0.473541
-0.595075 0.021549 0.132620
-0.623564 0.081799 0.405409
-0.561348 0.172683 0.191287
-0.581921 0.135346 0.495065
-0.500034 -0.273951 0.306843
-0.484119 -0.141744 -0.638255
-0.502367 -0.149562 -0.525641
-0.476453 -0.137581 0.038209
-0.538111 -0.157772 0.600524
-0.493797 -0.167248 0.674167
-0.538376 -0.030681 -0.505207
-0.527803 -0.036212 0.026842
-0.512965 0.002774 0.686693
-0.496718 0.013981 -0.671276
-0.554798 0.093572 0.603216
-0.505961 0.124246 -0.525161
-0.504184 0.123583 0.059076
-0.474198 0.172669 -0.633707
-0.475873 0.154366 0.677479
-0.486817 0.270935 0.315315
-0.464026 -0.254553 0.180094
-0.457744 -0.242320 0.520375
-0.378535 -0.234860 -0.606119
-0.414413 -0.235059 0.661604
-0.493783 -0.062850 -0.468144
-0.359528 -0.082874 -0.847687
-0.367276 0.023422 -0.865721
-0.355598 -0.030841 0.844852
-0.494878 0.070099 -0.471148
-0.368781 0.107762 -0.822928
-0.354987 0.119400 0.827545
-0.423073 0.228756 -0.586100
-0.407308 0.249330 0.178572
-0.431370 0.231229 0.568000
-0.368043 0.238396 -0.682182
-0.414357 -0.288585 0.288672
-0.361160 -0.249866 0.370788
-0.383616 -0.246691 0.620574
-0.302312 -0.203853 -0.797742
-0.431526 -0.178002 -0.504124
-0.286214 -0.184537 0.801683
-0.371045 -0.023693 0.010095
-0.357160 0.187802 -0.525315
-0.272250 0.216637 0.758845
-0.436055 0.287352 0.309164
-0.204363 -0.262224 -0.731322
-0.295497 -0.228597 -0.587463
-0.351039 -0.175300 0.063876
-0.282016 -0.241324 0.277409
-0.323387 -0.189242 0.518127
-0.350188 -0.181328 -0.520671
-0.271330 -0.237373 0.676707
-0.286175 -0.165924 0.378401
-0.392054 -0.112223 -0.468357
-0.330144 0.014500 -0.476792
-0.346318 0.154692 0.048304
-0.282015 0.114560 0.431225
-0.255974 0.135064 0.527718
-0.299878 0.230400 0.326117
-0.324297 0.214476 0.529151
-0.327978 0.255779 -0.610088
-0.191947 0.214633 -0.601773
-0.326646 0.252499 0.643219
-0.208294 0.229881 0.666795
-0.244509 -0.255260 -0.655373
-0.256351 -0.241929 0.177999
-0.232755 -0.243536 0.742761
-0.255951 -0.116758 -0.875411
-0.143348 -0.152972 0.621376
-0.187722 -0.107979 0.344188
-0.264512 -0.034653 0.415461
-0.248877 -0.044262 0.884678
-0.255916 0.006274 0.492538
-0.264381 0.035780 -0.886754
-0.266050 0.104588 0.868405
-0.203063 0.122424 -0.533493
-0.193032 0.087688 0.347726
-0.203850 0.197918 -0.809960
-0.215854 0.184746 0.092119
-0.130555 0.226733 0.191995
0.059724 -0.241505 -0.802743
-0.126422 -0.172743 -0.615547
0.038806 -0.231488 0.797152
-0.185016 -0.086652 0.058891
-0.138508 -0.046180 -0.566870
-0.180309 0.054570 0.049368
-0.122330 0.038148 0.585183
-0.102277 0.143633 0.331148
0.343730 0.131120 -0.867030
-0.232164 0.256639 -0.703032
0.026199 0.241209 0.716640
-0.097103 -0.229565 0.222263
-0.145264 -0.220566 0.256443
-0.112531 -0.214679 0.675295
-0.047551 -0.185359 0.601073
-0.038654 -0.166249 -0.648820
-0.050458 -0.153928 0.162912
-0.115302 -0.140194 0.337411
-0.038501 -0.211767 0.353036
-0.106867 -0.025509 0.405887
0.090652 -0.101630 0.867034
0.330708 -0.058536 -0.880558
-0.047118 -0.013018 0.109681
0.112479 0.026602 0.871588
0.361886 0.038943 -0.892630
-0.091974 0.096779 0.583669
-0.121820 0.118035 -0.576986
-0.026682 0.201537 0.398095
-0.047515 0.144684 0.155135
-0.032954 0.178876 -0.643571
-0.042591 0.200520 0.599697
-0.095394 0.186715 0.639975
0.330434 0.218679 -0.806255
-0.091905 0.212968 0.277710
0.086034 0.178331 0.807343
-0.001269 -0.248712 0.715463
0.074456 -0.254682 0.432753
0.071621 -0.250497 0.588972
0.004799 -0.229750 0.298384
-0.027449 0.022970 -0.611779
-0.007742 0.231968 0.290736
0.029378 0.241386 -0.708321
0.078299 0.253483 0.433901
0.055496 0.248209 0.607891
0.079899 -0.245842 -0.722465
0.096492 -0.236609 0.744879
0.140569 -0.213588 0.661291
0.132245 -0.183708 0.809414
0.038750 -0.175359 -0.647886
0.121380 -0.095950 -0.591957
0.204542 -0.085135 0.311545
0.023333 -0.021433 -0.613363
0.129968 0.042984 -0.588545
0.205650 0.046364 0.302367
0.049606 0.161129 -0.647049
0.185213 0.163935 -0.611879
0.122470 0.229312 0.670363
0.170336 -0.255071 0.505408
0.201634 -0.185286 -0.614957
0.177964 -0.136599 0.748821
0.165180 -0.218184 0.388033
0.181378 -0.051214 0.829622
0.229223 -0.051774 0.667310
0.217212 0.112198 0.676606
0.187677 0.084548 0.812178
0.194832 0.230128 0.408708
0.233169 0.253260 -0.674239
0.161816 0.168371 0.748576
0.199874 0.213660 0.611215
0.236627 0.258330 0.494199
0.285304 -0.263857 -0.755434
0.367104 -0.252825 -0.648637
0.189160 -0.219870 0.589484
0.264100 -0.199477 0.375210
0.274637 -0.076158 -0.558141
0.253409 -0.030176 0.307214
0.216560 0.030033 0.739476
0.261356 0.102437 0.316931
0.301676 0.271716 -0.721231
0.312151 -0.251647 0.465644
0.345074 -0.196821 -0.814857
0.418906 -0.194380 -0.566161
0.354876 -0.248316 0.327788
0.402723 -0.180683 0.130734
0.294741 -0.076802 0.629498
0.320793 -0.030676 0.215926
0.332655 0.077586 0.623182
0.398592 0.113659 -0.535151
0.372356 0.136816 0.128478
0.428873 0.213124 -0.574874
0.265298 0.244968 0.406247
0.409664 0.274644 0.368321
0.471727 -0.247871 0.239028
0.435935 -0.164144 -0.036633
0.435915 -0.178527 0.560958
0.398047 -0.001155 -0.027450
0.363270 -0.026674 0.101348
0.441378 -0.061303 0.605981
0.447013 0.197756 -0.018748
0.428246 0.154875 -0.823646
0.425975 0.194063 0.553509
0.437578 0.243778 0.147695
0.503980 0.255149 -0.603026
0.486419 -0.232365 0.432163
0.551019 -0.220139 -0.661545
0.497004 -0.230190 0.007584
0.526064 -0.155441 0.513614
0.434768 -0.078584 -0.839780
0.469061 -0.193073 -0.524283
0.493403 -0.206119 -0.136908
0.418160 -0.035744 -0.485109
0.418953 -0.039816 -0.134613
0.412873 0.036667 -0.872459
0.441918 0.118602 -0.474281
0.435882 0.127043 -0.114103
0.508250 0.225252 -0.112497
0.494331 0.219199 -0.530136
0.510947 0.187111 0.504226
0.563207 0.222108 -0.659960
0.468358 0.247614 0.431978
0.519903 0.243650 0.030380
0.500522 0.255581 0.230446
0.509825 -0.242302 -0.551495
0.609780 -0.251706 -0.548324
0.600817 -0.245334 -0.199025
0.563075 -0.235039 -0.057822
0.586035 -0.212526 0.037828
0.563560 -0.171793 0.327094
0.505088 -0.112836 0.572465
0.576204 0.024992 -0.745686
0.558211 0.057880 0.500353
0.485679 0.113120 0.568392
0.564621 0.161339 0.380187
0.601335 0.189897 0.069945
0.585154 0.251498 -0.550926
0.596901 0.239648 -0.191573
0.644527 -0.218349 -0.612651
0.677597 -0.227415 -0.341464
0.675241 -0.199239 -0.192649
0.639805 -0.169975 -0.047110
0.630265 -0.137523 0.069919
0.595064 0.009820 0.422722
0.655500 0.015238 0.041045
0.615432 0.032304 0.304328
0.692770 0.181683 -0.557940
0.692147 0.209611 -0.344262
0.684089 0.171276 -0.169978
0.598850 0.221112 -0.038269
0.654498 -0.169070 -0.646609
0.720870 -0.187297 -0.435617
0.724222 -0.153267 -0.508958
0.745892 -0.103774 -0.332051
0.725027 -0.118698 -0.191725
0.649900 -0.062084 -0.688573
0.705187 -0.109777 -0.129182
0.720661 0.005409 -0.595329
0.691835 0.020449 -0.659306
0.653145 0.075044 -0.690246
0.676643 0.080821 -0.048870
0.751728 0.109694 -0.338361
0.671394 0.153550 -0.636624
0.719101 0.189513 -0.442779
0.774629 -0.068916 -0.436729
0.775287 0.023823 -0.489525
0.735602 0.015407 -0.194064
0.776108 0.068517 -0.431911
3 1 0 3
3 0 2 4
3 0 4 3
3 3 4 5
3 4 6 5
3 3 5 7
3 6 7 5
3 24 0 8
3 8 1 25
3 11 2 24
3 24 2 0
3 1 8 0
3 25 1 12
3 10 9 14
3 10 14 28
3 11 15 2
3 3 12 1
3 13 12 16
3 9 17 14
3 2 15 4
3 18 12 3
3 12 18 16
3 28 14 32
3 14 17 19
3 14 19 32
3 15 20 4
3 17 21 19
3 7 18 3
3 16 18 22
3 4 20 6
3 20 36 6
3 7 6 23
3 23 6 36
3 8 39 24
3 25 39 8
3 26 9 10
3 43 26 10
3 25 12 27
3 27 12 13
3 10 28 43
3 9 29 17
3 11 45 15
3 29 30 17
3 31 13 16
3 30 33 17
3 45 20 15
3 34 31 16
3 17 33 21
3 22 34 16
3 35 19 21
3 19 46 32
3 22 18 37
3 21 38 35
3 46 19 35
3 18 7 37
3 7 23 37
3 36 48 23
3 23 48 37
3 25 40 39
3 26 54 50
3 43 54 26
3 40 25 53
3 53 25 41
3 27 41 25
3 9 42 29
3 26 42 9
3 51 11 24
3 27 13 44
3 54 43 57
3 31 44 13
3 57 43 28
3 51 45 11
3 57 28 58
3 58 28 32
3 59 20 45
3 58 32 46
3 38 21 33
3 37 47 22
3 22 47 34
3 38 64 35
3 64 46 35
3 59 36 20
3 62 63 37
3 48 62 37
3 37 63 66
3 26 68 49
3 50 68 26
3 24 69 51
3 69 39 52
3 69 24 39
3 39 40 52
3 49 42 26
3 55 53 41
3 55 41 27
3 70 55 27
3 27 44 70
3 71 29 42
3 56 52 40
3 40 53 56
3 75 44 31
3 54 57 58
3 56 53 74
3 71 77 29
3 77 30 29
3 77 33 30
3 75 31 78
3 78 31 34
3 77 81 33
3 79 58 46
3 65 79 46
3 61 63 60
3 33 81 38
3 60 63 62
3 61 67 63
3 34 47 78
3 65 46 64
3 59 82 36
3 66 63 67
3 37 66 47
3 62 48 36
3 68 50 85
3 42 84 71
3 73 52 56
3 55 72 53
3 85 50 88
3 88 50 54
3 87 51 69
3 53 72 76
3 58 88 54
3 73 56 74
3 53 76 74
3 45 51 87
3 80 73 74
3 79 88 58
3 87 89 45
3 45 89 59
3 60 80 74
3 74 76 60
3 89 82 59
3 60 76 61
3 76 90 61
3 92 81 77
3 80 60 62
3 81 93 38
3 36 82 83
3 66 67 47
3 67 94 47
3 64 38 93
3 83 62 36
3 84 42 49
3 95 69 96
3 69 52 96
3 97 55 70
3 86 70 44
3 95 100 69
3 96 52 73
3 55 97 72
3 100 87 69
3 96 73 101
3 86 44 104
3 104 44 75
3 73 103 101
3 105 77 71
3 103 73 80
3 72 90 76
3 105 108 77
3 106 89 87
3 88 79 110
3 107 75 78
3 91 103 80
3 110 79 65
3 90 115 61
3 116 81 92
3 91 80 117
3 117 80 62
3 115 67 61
3 65 64 93
3 83 117 62
3 115 94 67
3 47 94 118
3 118 78 47
3 99 49 68
3 96 102 95
3 98 97 119
3 119 97 70
3 119 70 86
3 68 85 99
3 101 102 96
3 102 101 103
3 102 103 98
3 98 103 90
3 98 90 72
3 97 98 72
3 88 99 85
3 123 99 88
3 100 106 87
3 103 109 90
3 110 123 88
3 113 123 110
3 106 112 89
3 91 111 103
3 103 111 109
3 82 89 112
3 82 112 83
3 109 111 114
3 109 114 115
3 90 109 115
3 113 65 125
3 113 110 65
3 111 91 117
3 81 116 125
3 93 81 125
3 125 65 93
3 128 84 49
3 128 49 99
3 122 95 102
3 122 102 120
3 120 102 121
3 121 102 98
3 121 98 119
3 128 99 132
3 95 122 100
3 132 99 135
3 135 99 123
3 100 134 106
3 134 137 106
3 104 75 107
3 108 92 77
3 135 123 138
3 138 123 113
3 106 137 112
3 107 78 118
3 138 113 125
3 124 83 112
3 83 124 117
3 124 126 111
3 124 111 117
3 111 126 127
3 111 127 114
3 115 114 127
3 115 127 94
3 120 121 141
3 129 121 119
3 129 130 121
3 129 86 131
3 129 119 86
3 131 86 104
3 135 133 132
3 136 133 135
3 138 136 135
3 139 136 138
3 112 149 124
3 138 150 139
3 150 138 125
3 140 151 94
3 140 94 127
3 118 94 151
3 127 126 153
3 154 84 128
3 120 144 122
3 141 144 120
3 121 156 141
3 128 132 142
3 156 121 130
3 129 143 130
3 131 143 129
3 142 132 133
3 100 122 144
3 146 156 130
3 145 143 131
3 142 133 158
3 134 100 144
3 130 143 146
3 131 104 145
3 158 133 136
3 145 104 107
3 145 107 148
3 112 137 149
3 147 151 140
3 107 118 148
3 152 147 140
3 151 148 118
3 125 116 162
3 149 126 124
3 126 149 153
3 152 127 153
3 152 140 127
3 150 125 162
3 155 154 128
3 128 142 155
3 157 144 141
3 163 157 141
3 163 141 156
3 168 156 146
3 105 71 84
3 157 159 134
3 157 134 144
3 134 159 137
3 160 146 143
3 143 145 160
3 168 146 170
3 145 148 160
3 159 161 137
3 147 146 160
3 170 146 147
3 171 136 139
3 137 161 149
3 170 147 152
3 151 147 160
3 148 151 160
3 161 174 149
3 150 173 139
3 149 174 153
3 164 84 154
3 163 166 157
3 157 166 167
3 158 165 142
3 178 156 168
3 164 105 84
3 169 167 180
3 167 169 157
3 157 169 159
3 158 136 171
3 181 168 170
3 159 169 161
3 172 169 180
3 161 169 172
3 173 171 139
3 170 152 184
3 174 161 172
3 174 175 153
3 184 152 153
3 163 187 176
3 188 164 154
3 188 154 155
3 155 142 165
3 176 167 166
3 163 176 166
3 187 163 178
3 163 156 178
3 189 177 167
3 194 165 158
3 191 105 164
3 195 177 193
3 179 177 195
3 177 179 167
3 167 179 180
3 181 178 168
3 191 196 105
3 196 108 105
3 194 158 171
3 198 179 195
3 180 179 172
3 196 92 108
3 196 183 92
3 182 179 198
3 179 182 172
3 183 116 92
3 116 183 202
3 172 182 185
3 172 185 174
3 162 116 202
3 162 202 186
3 186 173 150
3 185 175 174
3 203 184 153
3 150 162 186
3 153 175 203
3 165 206 155
3 206 188 155
3 176 189 167
3 178 190 187
3 165 192 206
3 206 192 193
3 193 177 189
3 191 164 188
3 194 192 165
3 190 178 212
3 212 178 181
3 192 194 193
3 193 194 195
3 194 197 195
3 195 197 198
3 215 181 170
3 171 197 194
3 198 197 199
3 200 197 171
3 173 200 171
3 201 215 184
3 215 170 184
3 197 200 199
3 199 182 198
3 203 201 184
3 173 186 200
3 199 204 182
3 185 182 204
3 205 185 204
3 185 205 175
3 203 175 205
3 188 206 207
3 207 206 208
3 208 206 193
3 208 193 209
3 209 193 189
3 189 210 209
3 189 176 210
3 176 211 210
3 187 211 176
3 187 190 211
3 191 188 213
3 225 211 190
3 196 191 213
3 214 225 190
3 190 212 214
3 212 215 214
3 212 181 215
3 216 225 214
3 183 196 213
3 213 202 183
3 216 214 201
3 214 215 201
3 217 216 205
3 202 218 186
3 200 186 218
3 200 218 219
3 200 219 199
3 199 219 231
3 199 231 204
3 231 217 204
3 217 205 204
3 205 216 203
3 216 201 203
3 188 207 220
3 221 207 208
3 208 222 221
3 222 208 223
3 223 208 209
3 188 220 232
3 223 209 210
3 232 237 188
3 224 223 210
3 210 211 224
3 237 213 188
3 224 227 226
3 224 211 227
3 211 225 227
3 237 241 213
3 217 242 226
3 226 227 217
3 225 216 227
3 241 202 213
3 227 216 217
3 241 244 202
3 231 242 217
3 228 202 244
3 218 202 228
3 245 218 228
3 229 230 219
3 229 219 218
3 219 230 231
3 207 221 233
3 207 234 220
3 233 234 207
3 235 221 222
3 222 236 235
3 235 233 221
3 238 236 222
3 222 223 238
3 220 239 232
3 220 234 239
3 240 237 232
3 232 239 240
3 224 226 223
3 241 237 240
3 223 242 238
3 223 226 242
3 242 248 238
3 244 241 240
3 240 239 244
3 239 228 244
3 243 230 229
3 230 248 242
3 245 243 229
3 242 231 230
3 245 229 218
3 233 246 234
3 233 235 246
3 239 234 247
3 234 246 247
3 235 236 248
3 236 238 248
3 246 249 247
3 246 235 249
3 235 243 249
3 235 248 243
3 228 239 247
3 230 243 248
3 247 249 228
3 228 249 245
3 243 245 249
