ply
format ascii 1.0
element vertex 252
property float x
property float y
property float z
element face 500
property list uchar int vertex_indices
end_header
-0.651052 -0.192373 0.289030
-0.672975 -0.161696 0.345144
-0.699705 -0.091007 0.253665
-0.711783 -0.065766 0.363785
-0.639772 -0.123983 0.225235
-0.703103 -0.028216 0.441426
-0.662316 -0.019220 0.192182
-0.711604 0.053119 0.258468
-0.702421 0.090874 0.354523
-0.657338 0.108488 0.211972
-0.617492 0.107276 0.410436
-0.666155 0.178885 0.293392
-0.651363 0.183870 0.362215
-0.598919 -0.217595 0.288020
-0.562253 -0.218103 0.329643
-0.552909 -0.142333 -0.570442
-0.576651 -0.188298 -0.509731
-0.547936 -0.176352 -0.402609
-0.614271 -0.120883 -0.451651
-0.628273 -0.118325 0.410399
-0.615201 0.018178 -0.573451
-0.625819 -0.002031 -0.415327
-0.674602 -0.031142 0.455131
-0.628954 0.039032 0.173668
-0.589573 0.148835 -0.566958
-0.611896 0.118821 -0.454395
-0.578004 0.193881 -0.512774
-0.545786 0.174479 -0.399354
-0.565351 0.223905 0.334721
-0.605967 -0.078874 -0.385110
-0.266293 -0.106236 0.192974
-0.587694 -0.003000 -0.618046
0.254311 -0.052444 0.450605
-0.592306 0.038495 -0.365485
-0.557056 0.085271 -0.616886
0.276176 0.036623 0.452007
-0.552868 0.199447 0.236870
-0.604422 0.196773 0.380935
-0.529710 0.229325 -0.496035
-0.503125 0.239181 -0.450909
-0.598249 0.212518 0.264221
-0.511307 -0.232761 -0.503700
-0.433328 -0.244572 -0.502071
-0.436625 -0.254446 -0.441013
-0.514004 -0.210478 -0.552096
-0.398625 -0.254885 -0.369248
-0.464939 -0.078953 -0.226332
-0.388860 0.005079 -0.121701
-0.279606 0.121312 0.195780
0.268666 0.110346 0.429512
-0.493830 0.196394 -0.565388
-0.339810 0.204898 -0.186667
-0.401637 0.245736 -0.370020
-0.443230 0.244034 -0.483851
-0.361422 -0.246119 -0.419972
-0.352584 -0.257409 -0.345172
-0.240681 -0.214703 0.269924
-0.346995 -0.249256 -0.289064
-0.359757 -0.163564 -0.547820
-0.351966 -0.170344 -0.158471
-0.366770 -0.041659 -0.611044
-0.353923 -0.077156 -0.091786
-0.332931 -0.003463 -0.052130
-0.362375 0.071736 -0.102838
-0.371771 0.113255 -0.609361
-0.200002 0.226613 0.261667
-0.348354 0.242744 -0.428660
-0.274839 -0.245695 -0.347144
-0.294861 -0.252772 -0.245830
-0.232402 -0.209100 -0.051777
0.180222 -0.200096 0.397433
-0.300110 -0.063978 -0.576651
-0.268629 -0.097967 -0.515449
-0.310374 -0.106311 -0.047247
0.286997 -0.121894 0.416543
-0.256018 -0.002659 0.155420
-0.295012 0.047163 -0.574777
-0.304243 0.091939 -0.037939
-0.345012 0.157625 -0.575128
-0.263485 0.128396 -0.492925
-0.330592 0.148312 -0.103467
-0.357244 0.212208 -0.513360
-0.275863 0.213899 -0.422697
-0.288556 0.255896 -0.285911
-0.245315 0.207223 -0.068389
-0.303475 0.250578 -0.353015
-0.190301 -0.262386 -0.156396
-0.099831 -0.254635 0.320583
-0.267264 -0.178659 -0.444143
-0.174992 -0.169997 0.128006
-0.187672 -0.194587 -0.400712
-0.169182 -0.188090 0.212263
-0.246577 0.016086 -0.510973
-0.200040 0.163219 -0.423365
-0.168095 0.175310 0.188240
-0.135708 0.209496 0.119449
-0.210168 0.253873 -0.150750
-0.071251 0.258685 0.312795
-0.176064 -0.266786 -0.273728
-0.119865 -0.247674 -0.064362
-0.084952 -0.256739 0.274860
-0.128060 -0.216611 0.195634
-0.178337 -0.059774 -0.460997
-0.222952 -0.055725 0.128576
-0.217477 0.051259 0.127532
-0.186159 0.083965 -0.455792
-0.176501 0.130225 0.128322
-0.148282 0.241201 -0.332534
-0.124694 0.237889 0.218927
-0.161541 0.264194 -0.256224
-0.110329 -0.254167 -0.169206
-0.097098 -0.249012 -0.324418
-0.072569 -0.251677 -0.260839
-0.107819 -0.246229 0.009724
-0.056229 -0.259200 0.064132
-0.031148 -0.274862 0.190876
-0.031561 -0.223075 -0.204815
-0.033876 -0.191613 -0.120055
-0.125810 -0.222150 0.111248
0.181786 0.162062 -0.418673
-0.032151 0.221205 -0.203414
-0.099291 0.250458 -0.135016
-0.094360 0.254532 0.035029
0.139108 0.211206 0.383151
-0.073462 0.250592 -0.254125
-0.124320 0.255689 -0.055078
-0.073410 0.254161 -0.028618
-0.037555 0.274170 0.156070
-0.099270 0.259961 0.270150
-0.034203 -0.241495 -0.006271
0.087003 -0.262821 0.326690
0.261158 -0.211126 -0.390012
0.040278 -0.149597 -0.192931
0.182522 -0.131924 -0.429396
0.188138 -0.026200 -0.458351
0.024722 -0.016108 -0.118810
0.186646 0.053309 -0.456533
-0.014631 0.179719 -0.107856
0.051265 0.127523 -0.186193
0.019798 0.267661 0.091126
-0.042262 0.270674 0.062630
0.030187 0.285196 0.263936
0.058969 -0.290012 0.205169
0.021277 -0.280559 0.125355
0.032136 -0.286984 0.261830
0.025193 -0.220085 -0.249760
0.062823 -0.165430 -0.015542
0.026720 -0.007558 -0.159579
0.199094 -0.035289 0.066519
0.128486 0.108616 0.014640
0.034232 0.223867 -0.258681
0.107543 0.194676 0.052014
0.171933 0.249059 0.344796
0.063091 0.290205 0.203576
0.188415 -0.241634 0.185216
0.250407 -0.181692 0.174987
0.134603 -0.044374 -0.181665
0.097252 0.020378 -0.178057
0.266582 0.163285 0.178497
0.252934 0.210929 0.247789
0.198041 -0.255779 0.276939
0.577754 -0.220138 -0.275072
0.267918 -0.205107 0.363813
0.276537 -0.167129 -0.419961
0.546154 -0.167913 -0.220058
0.317142 -0.098791 0.203689
0.662685 0.021796 -0.199089
0.337080 0.003053 0.206296
0.310826 0.101908 0.197881
0.282556 0.190913 -0.409821
0.544551 0.170489 -0.220408
0.290579 0.217124 -0.376820
0.274517 0.186830 0.351385
0.197625 0.260146 0.302384
0.286018 -0.199177 0.268729
0.324544 -0.148159 0.355186
0.349869 -0.068997 0.269904
0.264440 -0.009191 -0.463704
0.657970 -0.118110 -0.215693
0.322428 0.033005 0.428366
0.275727 0.117099 -0.449865
0.348413 0.080845 0.280720
0.354101 0.074269 0.356774
0.576596 0.222411 -0.290086
0.342563 -0.189348 -0.408962
0.347440 -0.065829 -0.452442
0.428244 -0.126008 -0.434976
0.355117 -0.020161 0.362695
0.347348 0.083711 -0.457924
0.427405 0.164756 -0.424169
0.352033 0.186430 -0.413193
0.477719 -0.218953 -0.383651
0.497399 -0.165363 -0.436674
0.418105 0.052779 -0.455214
0.501371 0.225779 -0.376436
0.571083 -0.223946 -0.414836
0.597580 -0.147134 -0.478249
0.499230 -0.033710 -0.477914
0.603912 -0.020161 -0.522170
0.587662 0.088564 -0.512890
0.498855 0.149118 -0.447924
0.631375 0.130240 -0.218301
0.593971 0.161798 -0.485011
0.576312 0.224125 -0.411580
0.627373 -0.247480 -0.341766
0.660132 -0.215539 -0.280509
0.623658 0.248523 -0.356341
0.704823 -0.234688 -0.412797
0.752312 -0.133503 -0.236696
0.786362 -0.153917 -0.496693
0.799481 -0.059779 -0.536010
0.834776 0.037275 -0.520141
0.773381 0.167640 -0.486191
0.766847 0.146656 -0.250693
0.720438 0.225816 -0.326720
0.716484 0.231816 -0.410895
0.725710 -0.232351 -0.332152
0.748730 -0.003371 -0.203352
0.842420 -0.214111 -0.421902
0.806041 -0.240395 -0.356936
0.891662 -0.208035 -0.273363
0.814272 -0.196904 -0.279149
0.870369 -0.072407 -0.514409
0.888990 -0.115807 -0.207145
0.859926 -0.019629 -0.189563
0.845677 0.030796 -0.189554
0.891020 0.105066 -0.206143
0.887716 0.219620 -0.285762
0.889468 0.187333 -0.437224
0.828055 0.223573 -0.422897
0.806590 0.236112 -0.351629
0.891605 -0.239795 -0.339135
0.984864 -0.110076 -0.426760
0.983420 0.108857 -0.428530
0.901895 0.236346 -0.345597
0.970384 -0.201929 -0.343864
0.957237 -0.209436 -0.285863
0.975945 -0.121726 -0.210925
1.030987 -0.134837 -0.270014
1.046746 -0.105288 -0.348524
0.974488 -0.006806 -0.469744
0.969950 -0.006500 -0.181241
1.034627 -0.047707 -0.206099
1.034063 0.035179 -0.205577
0.985340 0.123763 -0.211534
1.031906 0.137016 -0.343888
1.040422 0.116540 -0.269511
0.965697 0.206913 -0.355852
0.964380 0.201743 -0.279737
1.067438 -0.030090 -0.264520
1.038858 0.001334 -0.411115
1.071363 0.016365 -0.343470
3 2 0 4
3 0 2 1
3 1 2 3
3 1 3 19
3 19 3 5
3 19 5 22
3 4 6 2
3 2 6 7
3 2 7 3
3 3 7 8
3 3 8 5
3 9 6 23
3 6 9 7
3 5 8 10
3 5 10 22
3 11 7 9
3 7 11 8
3 8 11 12
3 8 12 10
3 13 4 0
3 14 13 0
3 1 14 0
3 1 19 14
3 16 15 18
3 16 18 17
3 17 18 29
3 20 15 31
3 15 20 18
3 18 20 21
3 18 21 29
3 30 6 4
3 32 19 22
3 29 21 33
3 34 20 31
3 35 22 10
3 24 20 34
3 20 24 25
3 20 25 21
3 33 25 27
3 21 25 33
3 25 24 26
3 25 26 27
3 37 10 12
3 11 9 40
3 9 36 40
3 28 12 11
3 28 37 12
3 40 28 11
3 44 16 41
3 16 17 41
3 16 44 15
3 17 29 46
3 29 33 46
3 46 33 47
3 33 27 47
3 48 9 23
3 49 35 10
3 50 24 34
3 50 38 26
3 50 26 24
3 27 26 38
3 39 27 38
3 42 44 41
3 43 42 41
3 17 43 41
3 43 17 45
3 56 13 14
3 56 4 13
3 58 15 44
3 60 31 15
3 60 34 31
3 47 27 63
3 36 9 48
3 64 50 34
3 27 51 63
3 27 39 52
3 27 52 51
3 65 40 36
3 38 50 53
3 39 38 53
3 65 28 40
3 39 53 52
3 54 42 43
3 54 43 45
3 58 42 54
3 55 54 45
3 55 45 57
3 58 44 42
3 57 45 17
3 57 17 59
3 70 14 19
3 58 60 15
3 46 59 17
3 59 46 61
3 74 19 32
3 61 46 47
3 73 61 62
3 61 47 62
3 30 75 6
3 75 23 6
3 64 34 60
3 62 63 77
3 62 47 63
3 63 51 80
3 78 50 64
3 50 78 81
3 48 65 36
3 53 50 81
3 53 81 66
3 85 52 66
3 52 85 83
3 52 83 51
3 66 52 53
3 54 67 88
3 54 55 67
3 68 67 57
3 55 57 67
3 68 57 59
3 68 59 69
3 56 14 87
3 88 58 54
3 58 72 71
3 58 88 72
3 69 59 73
3 56 30 4
3 60 58 71
3 59 61 73
3 71 76 60
3 64 60 76
3 75 48 23
3 78 64 76
3 92 79 76
3 76 79 78
3 63 80 77
3 79 81 78
3 79 82 81
3 80 51 84
3 77 80 84
3 66 81 82
3 82 85 66
3 83 96 51
3 96 84 51
3 65 97 28
3 68 98 67
3 86 98 68
3 88 67 90
3 69 86 68
3 86 69 99
3 73 89 69
3 91 30 56
3 90 102 88
3 102 72 88
3 89 73 103
3 91 103 30
3 72 92 71
3 72 102 92
3 73 62 103
3 103 75 30
3 71 92 76
3 103 62 104
3 103 104 75
3 102 105 92
3 62 77 104
3 104 48 75
3 92 105 79
3 104 77 106
3 93 79 105
3 48 104 94
3 82 79 93
3 77 95 106
3 82 93 107
3 84 95 77
3 94 65 48
3 107 85 82
3 107 83 85
3 109 83 107
3 83 109 96
3 98 86 110
3 99 110 86
3 67 111 90
3 111 67 98
3 99 69 113
3 113 69 118
3 100 91 56
3 100 101 91
3 100 56 87
3 69 89 118
3 118 89 101
3 89 91 101
3 91 89 103
3 104 106 94
3 94 106 95
3 108 94 95
3 123 37 28
3 84 122 95
3 108 128 65
3 108 65 94
3 65 128 97
3 123 28 97
3 109 121 96
3 96 125 84
3 96 121 125
3 84 125 122
3 98 112 111
3 110 112 98
3 90 111 131
3 116 112 110
3 110 117 116
3 129 117 99
3 99 117 110
3 113 114 129
3 99 113 129
3 113 118 114
3 118 101 115
3 118 115 114
3 115 101 100
3 130 100 87
3 87 70 130
3 14 70 87
3 90 133 102
3 133 134 102
3 136 105 102
3 119 93 105
3 119 107 93
3 120 137 121
3 137 126 121
3 124 120 121
3 140 122 126
3 95 122 127
3 108 95 127
3 124 109 107
3 121 109 124
3 125 121 126
3 126 122 125
3 140 127 122
3 108 127 128
3 127 141 128
3 97 128 141
3 142 115 144
3 115 142 143
3 115 143 114
3 144 115 100
3 100 130 144
3 111 112 145
3 116 145 112
3 114 143 129
3 116 132 145
3 117 132 116
3 117 129 146
3 147 132 117
3 135 147 117
3 146 148 135
3 117 146 135
3 137 147 135
3 135 149 137
3 138 147 137
3 120 150 138
3 138 137 120
3 149 151 137
3 137 139 126
3 137 151 139
3 107 150 124
3 150 120 124
3 126 139 140
3 152 123 97
3 139 127 140
3 152 97 141
3 139 153 127
3 127 153 141
3 129 154 146
3 129 143 154
3 133 90 131
3 156 132 147
3 134 136 102
3 156 147 157
3 149 135 148
3 157 147 138
3 136 119 105
3 123 10 37
3 142 154 143
3 154 142 160
3 142 144 160
3 130 160 144
3 131 111 161
3 111 145 161
3 162 160 130
3 130 70 162
3 154 155 146
3 74 70 19
3 164 132 156
3 155 148 146
3 166 156 157
3 10 123 49
3 170 138 150
3 149 158 151
3 158 159 151
3 171 107 119
3 171 150 107
3 151 159 139
3 141 173 152
3 159 153 139
3 173 153 159
3 173 141 153
3 154 160 174
3 174 160 162
3 163 133 131
3 164 145 132
3 154 174 155
3 162 70 74
3 148 155 165
3 163 177 133
3 177 134 133
3 178 156 166
3 167 148 165
3 177 136 134
3 32 22 35
3 168 148 167
3 149 148 168
3 177 180 136
3 119 136 180
3 158 149 168
3 169 119 180
3 49 123 172
3 169 171 119
3 171 183 150
3 172 152 173
3 172 173 159
3 172 123 152
3 163 131 184
3 162 175 174
3 184 185 163
3 162 74 175
3 155 174 165
3 174 176 165
3 174 175 176
3 185 177 163
3 176 175 187
3 187 175 74
3 165 176 167
3 179 187 74
3 74 32 179
3 185 188 177
3 176 181 167
3 32 35 179
3 167 181 168
3 182 187 179
3 188 180 177
3 35 49 179
3 182 172 181
3 49 172 179
3 172 182 179
3 188 190 180
3 190 169 180
3 158 168 159
3 168 181 159
3 181 172 159
3 183 170 150
3 190 171 169
3 131 191 184
3 191 131 161
3 161 145 164
3 185 184 186
3 184 191 186
3 186 193 185
3 193 188 185
3 176 187 181
3 187 182 181
3 189 188 193
3 190 188 189
3 190 189 194
3 194 171 190
3 194 183 171
3 192 186 191
3 192 197 186
3 178 164 156
3 197 193 186
3 197 200 193
3 193 200 189
3 138 170 201
3 200 194 189
3 191 204 195
3 204 191 161
3 192 195 196
3 191 195 192
3 192 196 197
3 196 198 197
3 198 199 197
3 197 199 200
3 201 157 138
3 199 202 200
3 202 203 200
3 200 203 194
3 203 206 194
3 206 183 194
3 207 195 204
3 205 204 161
3 207 196 195
3 205 161 178
3 161 164 178
3 210 198 196
3 211 199 198
3 166 157 201
3 212 202 199
3 215 203 202
3 214 201 183
3 201 170 183
3 215 206 203
3 183 206 214
3 207 204 216
3 205 216 204
3 205 208 216
3 205 178 208
3 217 208 178
3 166 217 178
3 212 199 211
3 213 217 166
3 201 213 166
3 202 212 215
3 213 201 214
3 215 214 206
3 218 207 219
3 207 216 219
3 218 209 207
3 209 196 207
3 219 216 221
3 208 221 216
3 209 210 196
3 223 208 224
3 224 208 217
3 211 198 210
3 224 217 225
3 225 217 226
3 226 217 213
3 213 227 226
3 212 229 215
3 227 213 230
3 230 213 214
3 229 230 215
3 215 230 214
3 218 219 231
3 220 231 219
3 221 220 219
3 220 221 223
3 209 218 222
3 221 208 223
3 210 209 222
3 211 210 222
3 224 225 226
3 211 228 212
3 229 212 228
3 228 234 229
3 234 230 229
3 230 234 227
3 235 231 236
3 231 220 236
3 235 218 231
3 236 220 237
3 237 220 223
3 218 232 222
3 232 218 235
3 232 240 222
3 237 223 241
3 241 223 224
3 240 211 222
3 241 224 226
3 240 233 211
3 233 228 211
3 241 226 244
3 228 233 247
3 247 234 228
3 244 226 248
3 248 226 227
3 247 248 234
3 234 248 227
3 236 238 235
3 236 237 238
3 232 235 239
3 235 238 239
3 242 238 237
3 237 241 242
3 250 240 232
3 232 239 250
3 242 241 243
3 233 240 250
3 250 245 233
3 241 244 243
3 246 243 244
3 247 233 245
3 246 248 245
3 246 244 248
3 245 248 247
3 249 239 238
3 238 242 249
3 239 251 250
3 239 249 251
3 242 243 249
3 250 251 245
3 249 246 251
3 249 243 246
3 251 246 245
