ply
format ascii 1.0
element vertex 252
property float x
property float y
property float z
element face 500
property list uchar int vertex_indices
end_header
-0.411126 -0.114137 0.283166
-0.402301 -0.106033 0.567063
-0.457775 0.007236 0.543329
-0.453845 0.019031 0.252182
-0.426911 0.111261 0.285153
-0.407662 0.106925 0.578542
-0.329224 -0.222226 0.280958
-0.339455 -0.247144 0.356654
-0.315155 -0.222374 0.530022
-0.372271 -0.164688 0.580420
-0.344379 -0.101688 0.210244
-0.441960 0.009642 0.602706
-0.343463 -0.059499 -0.802843
-0.347201 -0.011156 -0.589996
-0.422072 0.024111 0.201028
-0.339982 0.066682 -0.819733
-0.361188 0.116304 0.204284
-0.347329 0.215334 0.290291
-0.321136 0.226818 0.504717
-0.332509 0.178907 0.599300
-0.280201 -0.184325 -0.821523
-0.299486 -0.186737 -0.686928
-0.331338 -0.102469 -0.586987
-0.285200 -0.108154 -0.908258
-0.308723 -0.062755 -0.497900
-0.355247 0.029553 0.173215
-0.304193 -0.001183 -0.920633
-0.305725 0.050309 0.657092
-0.276697 0.116142 -0.915428
-0.297959 0.068263 -0.481972
-0.304492 0.148140 -0.593802
-0.281547 0.189813 -0.796803
-0.252060 0.233667 -0.624170
-0.217061 -0.294063 0.343764
-0.239088 -0.303505 0.407397
-0.190525 -0.219660 -0.858935
-0.210953 -0.267273 -0.723645
-0.228267 -0.238752 -0.578489
-0.246805 -0.191853 -0.495763
-0.199176 -0.180923 -0.362829
-0.284369 -0.122057 0.644457
-0.199133 -0.177119 0.642865
-0.250960 -0.024917 -0.349196
-0.178289 -0.124355 -0.224535
-0.044594 -0.085896 0.169070
-0.180999 -0.091898 -0.956042
-0.196581 0.044978 -0.970860
-0.205427 -0.004036 -0.223585
-0.240633 0.100201 -0.354733
-0.046301 0.080942 0.156924
-0.215174 0.222857 -0.502101
-0.205386 0.212208 -0.879091
-0.166422 0.206804 -0.328683
-0.256804 0.223319 0.258723
-0.200341 0.199275 0.632246
-0.193895 0.281225 -0.753002
-0.231869 0.288528 0.342710
-0.233574 0.300720 0.406304
-0.107010 -0.299867 0.523214
-0.128043 -0.266074 -0.400320
-0.158742 -0.201242 -0.280680
-0.061774 -0.216539 0.234586
-0.107925 -0.189261 -0.173336
-0.126276 -0.099566 -0.115865
-0.182109 -0.072368 0.694767
-0.122786 0.048642 -0.107791
-0.184057 0.090996 0.694909
-0.191816 0.104862 -0.232535
-0.179528 0.146347 -0.948885
-0.109895 0.172011 -0.159951
-0.028227 0.185015 0.196603
-0.036213 0.216924 0.239559
-0.114555 0.326184 -0.670905
-0.075369 0.312219 -0.429805
-0.086698 0.307676 0.517073
-0.106748 -0.319410 -0.747485
-0.027941 -0.321828 -0.759604
-0.069191 -0.342136 -0.652824
-0.030936 -0.353340 -0.547624
-0.073486 -0.319395 0.448263
0.026428 -0.293307 -0.186002
-0.035290 -0.200737 0.678243
0.028817 -0.204431 0.030683
0.101808 -0.010555 -0.953140
0.079576 0.102673 -0.952806
-0.015340 0.198475 -0.054612
-0.113884 0.310085 -0.770440
-0.011535 0.272355 -0.185383
-0.044366 0.315512 0.432180
-0.041331 0.333492 -0.737209
-0.046143 0.348354 -0.542012
0.036027 -0.363722 -0.458915
0.034313 -0.364188 -0.579003
0.032329 -0.260098 0.295083
-0.033449 -0.319043 0.502174
0.028511 -0.293918 0.480202
0.013087 -0.294537 0.574149
0.041541 -0.226455 -0.885691
0.028607 -0.177519 0.158935
0.122114 -0.182516 0.742070
0.069959 -0.146005 -0.949629
0.023419 -0.070323 0.766960
-0.008129 -0.060249 0.051703
-0.053582 -0.082335 0.735106
0.009952 0.003054 0.120664
-0.060789 0.028444 0.740703
0.027970 0.152907 0.041673
0.044711 0.173845 0.108516
0.054670 0.081672 0.766394
-0.044857 0.190678 0.691786
0.011667 0.235873 -0.880892
0.070775 0.210376 0.710619
0.005224 0.259079 0.282592
-0.032133 0.286962 0.588002
0.057300 0.369243 -0.431875
0.041772 0.286269 0.389156
0.034802 0.296141 0.510230
-0.026302 0.352266 -0.655053
0.024524 0.370549 -0.529955
0.127933 -0.370574 -0.457405
0.136330 -0.347190 -0.234126
0.049727 -0.305883 -0.765440
0.159488 -0.341281 -0.533850
0.115528 -0.285664 0.015330
0.106575 -0.253624 0.156618
0.105779 -0.231304 0.355986
0.108913 0.202159 -0.886396
0.092581 0.255739 0.031115
0.107073 0.256520 0.164946
0.058232 0.277952 0.619830
0.073592 0.296099 -0.748725
0.083329 0.366597 -0.512884
0.179204 0.331151 -0.073444
0.126645 0.368973 -0.415537
0.129497 0.374388 -0.315870
0.202878 -0.317131 0.000971
0.196453 -0.282926 0.147195
0.147743 -0.238432 0.263006
0.119982 -0.276321 0.577232
0.082684 -0.265471 0.656064
0.139744 -0.220293 -0.822337
0.131928 -0.212045 0.441844
0.125381 -0.163977 -0.904047
0.209443 -0.136831 -0.822178
0.193103 -0.164174 0.365028
0.205309 -0.143258 0.415023
0.110933 -0.052470 0.794138
0.233121 -0.014278 -0.840972
0.207917 0.079476 -0.862650
0.203904 0.141569 0.417905
0.167251 0.206210 -0.813935
0.222348 0.157626 0.381320
0.118744 0.225626 0.410839
0.332434 0.216498 -0.574608
0.126543 0.257783 0.273111
0.170251 0.265340 0.573340
0.193510 0.291941 0.143353
0.205102 -0.345080 -0.388130
0.240791 -0.328689 -0.171798
0.224788 -0.260668 0.590418
0.228887 -0.264574 0.666195
0.194844 -0.213689 0.511009
0.399540 -0.105870 -0.565571
0.267852 -0.146510 0.426694
0.344316 0.062196 0.790531
0.175634 0.204255 0.486837
0.248747 0.132692 0.448220
0.408970 0.117689 -0.578665
0.335600 0.185181 0.738112
0.216057 0.251847 0.255948
0.277766 0.279968 -0.488555
0.263350 0.252300 0.656938
0.298720 0.302586 -0.279883
0.256265 0.327499 -0.111881
0.360916 -0.250790 -0.279382
0.274634 -0.305737 -0.000507
0.299951 -0.291943 0.118710
0.381311 -0.247900 -0.101077
0.292605 -0.275574 0.210057
0.305999 -0.245254 -0.488194
0.380538 -0.240550 0.036272
0.239212 -0.205565 0.300937
0.369635 -0.231557 0.651321
0.358969 -0.163691 0.395191
0.322897 -0.183075 0.540792
0.365692 -0.205852 0.722031
0.342444 -0.088894 0.786819
0.436880 -0.024426 -0.575610
0.436688 0.040997 -0.593080
0.367534 0.106917 0.483873
0.272391 0.182082 0.516165
0.334681 0.183932 0.373812
0.348641 0.213431 0.586377
0.397296 0.215423 -0.310268
0.272143 0.302514 0.077967
0.288960 0.278702 0.196555
0.375872 0.254372 -0.129494
0.382938 -0.280623 0.231099
0.417896 -0.166703 -0.366621
0.457078 -0.152506 -0.274922
0.471261 -0.204655 0.157976
0.476268 -0.127059 0.043008
0.357178 -0.110816 0.484628
0.387946 0.191646 -0.497864
0.469975 0.072412 -0.371384
0.482126 0.124326 0.045744
0.418733 0.134828 0.438856
0.464005 0.141255 -0.268097
0.382213 0.240234 0.034852
0.460048 0.209347 0.141077
0.439464 0.194031 0.665358
0.453225 0.172154 -0.190945
0.348484 0.271005 0.123683
0.452040 0.242951 0.231355
0.471604 -0.165604 -0.174812
0.472467 -0.230488 0.322089
0.494030 -0.237813 0.274689
0.476123 -0.136731 0.601662
0.476810 -0.139677 -0.065780
0.563202 -0.104981 0.398826
0.488172 -0.152198 0.654843
0.435893 -0.125819 0.741844
0.544065 -0.109222 0.169512
0.409999 -0.069792 0.531749
0.468334 -0.068972 -0.367079
0.430923 -0.050911 0.464203
0.508532 -0.064203 -0.188959
0.434067 0.009709 0.763034
0.522720 -0.045208 0.668854
0.507731 -0.008179 0.047199
0.504724 0.058394 -0.174648
0.449454 0.060192 0.464833
0.457337 0.090371 0.540257
0.433644 0.142404 0.738268
0.580156 0.111383 0.205734
0.464548 0.144023 -0.046075
0.478346 0.136497 0.588969
0.497191 0.205397 0.339040
0.535225 -0.007890 0.612558
0.500801 -0.000990 -0.045101
0.498451 0.039638 0.563268
0.592429 0.001103 0.207973
0.503720 0.111529 0.662397
0.556650 0.106995 0.412845
0.562063 0.185667 0.279006
0.577826 -0.156635 0.271229
0.573705 -0.178353 0.336508
0.620788 -0.068895 0.329801
0.568110 -0.000746 0.436323
0.616456 0.021310 0.390726
0.619557 0.078949 0.278056
0.590473 0.155962 0.345437
3 1 0 2
3 1 2 11
3 0 3 2
3 14 3 0
3 11 2 5
3 4 3 14
3 3 4 2
3 4 5 2
3 0 6 10
3 6 0 7
3 7 0 1
3 7 1 8
3 8 1 9
3 14 10 25
3 10 14 0
3 1 11 27
3 12 15 13
3 16 14 25
3 27 11 5
3 14 16 4
3 17 4 16
3 5 4 18
3 5 18 19
3 4 17 18
3 6 7 33
3 33 7 34
3 7 8 34
3 37 21 22
3 9 40 8
3 40 9 1
3 20 23 12
3 20 12 21
3 21 12 22
3 13 22 12
3 22 13 24
3 44 25 10
3 23 26 12
3 27 40 1
3 26 28 15
3 12 26 15
3 29 24 13
3 24 29 42
3 30 13 15
3 13 30 29
3 27 5 19
3 31 15 28
3 15 31 30
3 30 31 32
3 53 17 16
3 53 56 17
3 17 57 18
3 56 57 17
3 58 34 8
3 36 35 20
3 21 36 20
3 36 21 37
3 58 8 41
3 23 35 45
3 35 23 20
3 37 22 38
3 61 10 6
3 8 40 41
3 24 38 22
3 38 24 39
3 39 24 42
3 39 42 43
3 41 40 64
3 45 46 26
3 23 45 26
3 43 42 47
3 27 64 40
3 27 66 64
3 42 48 47
3 49 25 44
3 26 46 28
3 42 29 48
3 49 16 25
3 46 68 28
3 30 50 29
3 29 50 48
3 67 47 48
3 28 68 51
3 48 50 52
3 48 52 67
3 70 53 16
3 19 54 27
3 27 54 66
3 28 51 31
3 30 32 50
3 51 55 31
3 32 31 55
3 54 19 18
3 55 72 32
3 32 72 50
3 57 74 18
3 54 18 74
3 75 36 77
3 36 37 77
3 33 34 79
3 58 79 34
3 36 75 35
3 61 6 33
3 38 59 37
3 39 59 38
3 59 39 60
3 39 43 60
3 60 43 62
3 62 43 63
3 44 10 61
3 81 41 64
3 43 47 63
3 63 47 65
3 83 46 45
3 47 67 65
3 84 68 46
3 65 67 69
3 16 49 70
3 69 67 52
3 71 53 70
3 52 50 73
3 86 55 51
3 86 72 55
3 56 88 57
3 57 88 74
3 77 76 75
3 37 78 77
3 37 59 78
3 78 59 91
3 93 33 79
3 79 58 94
3 75 76 35
3 93 61 33
3 96 94 58
3 60 62 59
3 59 62 80
3 96 58 81
3 81 58 41
3 97 45 35
3 80 62 82
3 62 63 82
3 103 81 64
3 103 64 105
3 105 64 66
3 102 65 106
3 65 85 106
3 69 85 65
3 105 66 109
3 109 66 54
3 110 51 68
3 52 87 69
3 85 69 87
3 109 54 113
3 110 86 51
3 89 86 110
3 52 73 87
3 71 112 53
3 112 56 53
3 54 74 113
3 72 86 89
3 90 50 72
3 50 90 73
3 112 88 56
3 89 117 72
3 117 90 72
3 92 76 77
3 77 78 92
3 91 92 78
3 121 76 92
3 59 80 91
3 95 93 79
3 94 95 79
3 121 97 76
3 95 94 96
3 97 35 76
3 93 98 61
3 100 45 97
3 61 98 44
3 101 99 81
3 102 82 63
3 82 102 98
3 103 101 81
3 65 102 63
3 98 102 104
3 98 104 44
3 101 105 108
3 103 105 101
3 102 106 104
3 44 104 49
3 104 106 107
3 104 107 49
3 70 49 107
3 109 108 105
3 84 110 68
3 111 108 109
3 71 70 112
3 129 109 113
3 109 129 111
3 130 89 110
3 113 116 129
3 89 130 117
3 114 87 73
3 88 112 115
3 116 88 115
3 74 88 116
3 116 113 74
3 118 90 117
3 90 118 114
3 90 114 73
3 92 119 122
3 92 91 119
3 120 119 91
3 80 120 91
3 120 80 123
3 93 137 124
3 137 93 125
3 95 125 93
3 95 96 138
3 139 138 96
3 140 97 121
3 123 80 82
3 93 124 98
3 125 95 141
3 141 95 138
3 81 139 96
3 81 99 139
3 142 100 97
3 97 140 142
3 124 123 82
3 98 124 82
3 99 101 146
3 45 100 83
3 146 101 108
3 84 46 83
3 126 110 84
3 107 106 127
3 128 107 127
3 70 107 128
3 126 130 110
3 126 150 130
3 106 85 127
3 70 128 112
3 154 152 115
3 115 152 116
3 85 87 127
3 128 154 112
3 115 112 154
3 155 129 116
3 131 117 130
3 132 87 114
3 87 132 127
3 131 118 117
3 114 118 131
3 133 114 131
3 134 114 133
3 134 132 114
3 119 157 122
3 119 120 157
3 157 120 158
3 121 92 122
3 120 123 135
3 136 135 123
3 124 136 123
3 136 124 137
3 159 138 160
3 138 139 160
3 141 138 161
3 160 139 99
3 140 143 142
3 144 137 125
3 125 141 144
3 141 145 144
3 141 161 145
3 100 142 83
3 142 147 83
3 143 147 142
3 147 148 83
3 164 146 108
3 84 83 148
3 164 108 168
3 168 108 111
3 126 84 148
3 148 150 126
3 149 152 151
3 149 165 152
3 154 169 151
3 151 152 154
3 130 150 153
3 165 116 152
3 116 165 155
3 168 111 171
3 171 111 129
3 128 127 156
3 154 156 169
3 154 128 156
3 155 171 129
3 170 131 130
3 132 156 127
3 134 133 173
3 134 173 132
3 135 158 120
3 157 158 174
3 175 158 135
3 175 135 176
3 135 136 176
3 136 178 176
3 136 181 178
3 137 181 136
3 121 122 140
3 161 159 184
3 161 138 159
3 185 160 99
3 140 162 143
3 181 137 144
3 184 163 161
3 181 144 163
3 163 145 161
3 185 99 186
3 144 145 163
3 186 99 146
3 143 187 147
3 187 188 147
3 186 146 164
3 147 188 148
3 149 166 165
3 150 148 167
3 151 166 149
3 166 190 165
3 150 167 153
3 153 170 130
3 165 190 155
3 195 169 156
3 170 133 131
3 170 172 133
3 173 194 132
3 132 194 156
3 195 156 194
3 173 133 172
3 177 174 158
3 177 158 175
3 122 157 179
3 157 174 179
3 177 175 180
3 176 180 175
3 176 178 197
3 160 182 159
3 122 179 140
3 178 181 183
3 159 182 184
3 182 160 185
3 140 179 162
3 181 163 183
3 163 202 183
3 163 184 202
3 151 189 166
3 166 189 190
3 189 151 191
3 189 192 190
3 169 191 151
3 153 203 170
3 170 203 193
3 169 195 191
3 192 155 190
3 192 171 155
3 170 193 172
3 193 196 172
3 196 208 173
3 208 194 173
3 195 194 212
3 195 212 213
3 196 173 172
3 178 215 197
3 198 179 174
3 199 198 174
3 174 214 199
3 174 177 214
3 176 200 180
3 215 178 183
3 215 183 219
3 184 182 217
3 179 198 162
3 180 200 201
3 217 223 184
3 185 186 221
3 183 202 225
3 202 184 223
3 143 162 187
3 221 186 227
3 189 225 202
3 202 223 189
3 231 225 189
3 223 232 189
3 227 186 164
3 188 167 148
3 206 231 189
3 227 164 233
3 203 167 204
3 233 164 168
3 204 193 203
3 204 207 193
3 205 209 208
3 206 189 191
3 232 236 189
3 236 192 189
3 210 233 168
3 153 167 203
3 207 211 193
3 206 191 237
3 210 192 236
3 194 208 212
3 208 209 212
3 191 195 237
3 210 171 192
3 210 168 171
3 211 196 193
3 237 195 213
3 197 216 176
3 197 215 216
3 176 216 200
3 177 218 214
3 180 218 177
3 180 201 218
3 220 217 182
3 182 185 220
3 201 200 222
3 220 185 221
3 198 224 162
3 183 225 219
3 162 224 187
3 198 199 224
3 199 226 224
3 199 214 226
3 239 218 201
3 222 229 201
3 217 240 223
3 228 220 221
3 221 227 228
3 229 239 201
3 187 204 188
3 187 224 204
3 224 226 204
3 226 230 204
3 240 232 223
3 205 239 229
3 229 241 205
3 188 204 167
3 230 207 204
3 235 239 205
3 241 234 205
3 233 242 227
3 230 211 207
3 211 235 196
3 209 205 234
3 236 232 240
3 236 242 210
3 242 233 210
3 208 196 235
3 235 205 208
3 243 206 237
3 209 213 212
3 200 216 245
3 216 215 246
3 245 216 246
3 215 219 246
3 245 222 200
3 214 218 226
3 217 220 238
3 218 239 226
3 222 241 229
3 219 225 248
3 240 217 238
3 220 228 238
3 226 239 230
3 248 225 231
3 228 242 238
3 228 227 242
3 239 235 230
3 248 231 243
3 243 231 206
3 236 240 238
3 238 242 236
3 235 211 230
3 234 244 209
3 244 251 237
3 251 243 237
3 244 213 209
3 237 213 244
3 246 247 245
3 246 219 247
3 222 245 241
3 245 247 241
3 219 249 247
3 219 248 249
3 247 250 241
3 247 249 250
3 249 248 243
3 241 250 234
3 249 251 250
3 249 243 251
3 234 250 244
3 250 251 244
