ply
format ascii 1.0
element vertex 252
property float x
property float y
property float z
element face 500
property list uchar int vertex_indices
end_header
-0.737542 -0.180727 -0.169232
-0.709240 -0.207143 0.008622
-0.790968 -0.054946 -0.234944
-0.755764 -0.063640 0.028005
-0.794623 0.047512 -0.184984
-0.768816 0.087694 0.014006
-0.741795 0.171612 -0.167715
-0.716843 0.188020 0.023414
-0.622396 -0.287445 -0.105038
-0.660399 -0.283563 -0.075175
-0.639218 -0.209123 -0.197686
-0.671406 -0.166042 0.110974
-0.741528 -0.086799 -0.254749
-0.666451 -0.061487 0.168604
-0.735983 0.043826 -0.248039
-0.687566 0.077521 0.137584
-0.650972 0.208934 0.092129
-0.609544 0.228758 -0.183956
-0.679749 0.253801 -0.135695
-0.635729 0.273920 -0.033774
-0.612845 -0.280261 -0.011633
-0.584766 0.261492 0.052120
-0.516730 -0.281707 -0.046695
-0.585840 -0.210826 0.129286
-0.392047 -0.187626 0.289102
-0.599812 -0.099184 0.205145
-0.208587 -0.032121 -0.263593
-0.593493 0.041685 0.216157
-0.407695 0.205187 0.268177
-0.594635 0.196762 0.134834
-0.611683 0.282315 -0.112490
-0.561496 0.288266 -0.036264
-0.492840 -0.242619 0.103026
-0.330536 -0.209388 0.237903
-0.100905 0.210550 -0.215700
-0.495783 0.252988 0.082096
-0.303144 0.235950 0.271083
-0.463890 0.262184 -0.059877
-0.421602 -0.264656 -0.104140
-0.365420 -0.194303 -0.026556
-0.412265 -0.208817 0.044738
-0.381196 -0.213022 0.152626
-0.127028 -0.216914 -0.195701
-0.345620 -0.101747 0.033736
-0.326267 0.057140 0.030423
-0.131018 0.115481 -0.278326
-0.411446 0.219414 0.040762
-0.290760 0.189016 -0.040716
-0.374767 0.228968 0.168153
-0.206036 -0.226003 0.370565
-0.197493 -0.103139 -0.247673
-0.295872 -0.154188 0.161593
-0.259633 0.005037 0.129645
-0.301111 0.165086 0.166189
-0.206384 0.156516 0.482624
-0.138863 -0.252144 0.355990
-0.210888 -0.152120 0.482776
-0.201201 -0.078750 0.167702
-0.291273 -0.040046 -0.001998
-0.217009 -0.068089 0.514900
-0.216239 0.044675 0.519048
-0.263777 0.069992 -0.012860
-0.175938 0.140352 0.197177
-0.275222 0.213873 0.237754
-0.143494 0.227931 0.428806
-0.067157 0.252303 -0.180442
-0.153657 0.249153 0.338232
-0.057105 -0.250809 -0.167549
0.088781 -0.192513 -0.050824
-0.165567 -0.203747 0.266549
-0.128711 -0.163956 -0.706119
-0.084212 -0.234288 -0.672930
-0.109876 -0.202602 -0.542770
-0.142729 -0.108666 -0.509194
-0.169853 -0.020995 -0.746824
0.124250 -0.089048 0.014821
-0.114139 -0.092528 -0.266152
-0.151299 0.013218 -0.512024
-0.163491 0.075531 -0.732529
-0.161614 0.024527 0.160543
-0.101552 0.183506 -0.532706
-0.090586 0.192750 -0.717985
-0.116259 0.201352 -0.683112
0.108017 0.188519 -0.046163
-0.164396 0.224168 0.274807
0.011779 -0.271307 -0.663516
-0.030642 -0.271000 -0.565782
-0.091599 -0.248723 0.433080
-0.033479 -0.248165 0.408070
-0.024180 -0.234120 0.508020
-0.054056 -0.213230 -0.423550
-0.044884 -0.181549 -0.331693
-0.125967 -0.173087 0.518789
-0.027206 -0.166991 0.571979
-0.060593 -0.080596 0.221578
-0.102876 -0.078425 -0.784664
-0.114200 -0.047949 -0.421128
-0.129318 -0.017291 0.574348
-0.091303 0.043570 -0.346099
-0.108946 0.049785 -0.787013
-0.100205 0.100735 -0.417482
-0.029572 0.072705 0.224774
-0.133529 0.139878 0.540284
-0.046966 0.199547 -0.381243
-0.044646 0.222298 -0.259540
-0.022037 0.202188 0.533721
-0.059518 0.263958 -0.633919
-0.027423 0.279217 -0.564895
-0.056423 0.241151 0.357277
0.045193 -0.289260 -0.453190
0.030591 -0.269976 -0.322639
-0.032990 -0.240502 -0.230185
0.050273 -0.241727 0.507664
-0.071204 -0.207674 -0.728220
-0.032511 -0.185942 0.288185
0.149652 -0.185474 0.497776
-0.009665 -0.065720 0.609202
-0.035029 0.069881 0.598055
0.223958 0.113464 0.499881
-0.037713 0.165355 0.259331
0.037700 0.272674 -0.293220
0.051787 0.288673 -0.470179
-0.012225 0.246442 0.450948
0.046651 0.234952 0.513271
0.066389 -0.292452 -0.581614
0.115872 -0.285492 -0.333713
0.087851 -0.277630 -0.199893
0.086153 -0.217557 0.546170
0.153617 -0.181612 -0.734482
0.183177 -0.139159 0.568237
0.241558 -0.078985 0.505764
0.187321 -0.042275 -0.791977
0.185616 -0.005508 0.614811
0.094322 0.059911 0.010683
0.168725 0.129220 0.601582
0.159719 0.196970 -0.728482
0.127965 0.202238 0.558971
0.108674 0.270566 -0.124073
0.135972 0.202692 0.497219
0.036278 0.289981 -0.631663
0.098654 0.291218 -0.194412
0.114297 0.288377 -0.580564
0.104896 0.286269 -0.321919
0.143341 -0.262320 -0.648957
0.121935 -0.275932 -0.471417
0.214226 -0.281032 -0.169968
0.240524 -0.212842 -0.555155
0.193359 -0.094180 0.049486
0.205606 0.106904 -0.777571
0.141904 0.275569 -0.640317
0.119800 0.276246 -0.461298
0.191235 0.279324 -0.174834
0.207021 -0.241340 -0.057158
0.208059 -0.215938 -0.488119
0.216157 -0.205590 -0.411455
0.318013 -0.179506 -0.610646
0.186525 -0.136736 0.021616
0.287971 -0.102463 -0.723378
0.279920 -0.102338 -0.488552
0.283616 -0.061534 -0.430129
0.260951 0.011852 0.568848
0.273050 0.039220 -0.438822
0.271968 0.001532 0.513745
0.399837 0.090248 0.263347
0.305108 0.128017 -0.698717
0.274874 0.035426 -0.477506
0.202949 0.165393 0.014139
0.209758 0.153973 0.567400
0.201560 0.213890 -0.389907
0.187111 0.229267 -0.502287
0.269518 0.171019 -0.342869
0.232083 0.247234 -0.058238
0.320961 0.179105 -0.608280
0.255396 0.201850 -0.563489
0.341909 -0.253645 -0.011061
0.334795 -0.211398 -0.205257
0.359769 -0.241953 -0.111361
0.325255 -0.218205 0.068245
0.337960 -0.158936 -0.273501
0.270312 0.007958 -0.765396
0.340511 0.207568 -0.192610
0.402027 0.231158 -0.042524
0.414097 -0.105555 0.278338
0.367788 -0.127499 -0.538911
0.397427 -0.120351 -0.567767
0.411986 -0.067470 -0.529047
0.400901 0.002427 -0.601623
0.361852 -0.009258 -0.497289
0.422821 -0.086262 -0.188513
0.441499 0.036644 -0.184652
0.371038 0.118400 -0.536516
0.412170 0.066480 -0.526379
0.408718 0.123528 -0.196448
0.396656 0.120750 -0.566159
0.425419 0.214548 0.147742
0.397370 0.251440 0.024451
0.438223 -0.219149 -0.001714
0.444497 -0.221371 0.151520
0.524208 -0.224229 0.161906
0.500061 -0.190543 0.320578
0.431792 -0.161780 -0.111499
0.484231 -0.130021 -0.031769
0.505443 -0.176716 0.033694
0.524144 -0.110734 0.442584
0.406501 0.001262 -0.497674
0.499543 0.038911 0.431753
0.467598 -0.000808 -0.130123
0.446896 0.132724 -0.124815
0.503663 0.159412 0.380210
0.484154 0.132581 -0.039229
0.512025 0.172865 0.033304
0.484030 0.189274 0.296432
0.484722 0.231319 0.140900
0.501151 -0.225209 0.236803
0.604051 -0.218038 0.435125
0.554693 -0.042311 0.044809
0.635501 0.190525 0.514251
0.590560 0.225855 0.192141
0.578862 0.224519 0.393492
0.577888 -0.233297 0.351701
0.691813 -0.252534 0.431512
0.692921 -0.243870 0.494189
0.807975 -0.117602 0.309441
0.733715 -0.102375 0.671931
0.728315 0.011094 0.685728
0.735742 0.121495 0.665561
0.826111 0.126226 0.328042
0.707193 0.253481 0.483108
0.642294 0.255911 0.384336
0.690543 -0.200595 0.558744
0.809800 0.217889 0.611876
0.737129 0.262570 0.434988
0.835979 -0.221972 0.421356
0.805278 -0.174626 0.659077
0.838235 -0.001852 0.315612
0.804798 -0.249537 0.523197
0.882373 -0.232347 0.512304
0.815554 -0.053819 0.716963
0.903516 -0.077998 0.378457
0.894030 0.085007 0.377617
0.811219 0.104357 0.705623
0.849118 0.205003 0.424930
0.818254 0.259580 0.509590
0.919455 -0.169147 0.447061
0.879874 -0.163873 0.652551
0.946053 -0.083079 0.596720
0.947339 -0.082970 0.433568
0.903790 0.007552 0.702939
0.936237 0.076739 0.457663
0.885249 0.170792 0.661739
0.941809 0.095974 0.637386
0.883932 0.222073 0.556404
3 1 0 3
3 12 2 0
3 0 2 3
3 14 2 12
3 4 2 14
3 2 4 3
3 3 4 5
3 3 5 15
3 6 4 14
3 4 6 5
3 5 6 7
3 5 7 15
3 10 0 8
3 8 0 9
3 9 0 1
3 10 12 0
3 3 11 1
3 13 11 3
3 13 3 15
3 17 6 14
3 7 16 15
3 18 6 17
3 6 18 7
3 7 18 19
3 16 7 19
3 20 8 9
3 20 9 1
3 1 11 20
3 11 23 20
3 23 11 25
3 25 11 13
3 26 14 12
3 25 13 27
3 27 13 15
3 27 15 29
3 29 15 16
3 18 17 30
3 16 19 21
3 21 29 16
3 30 19 18
3 30 31 19
3 19 31 21
3 20 22 8
3 20 32 22
3 23 32 20
3 23 24 32
3 25 24 23
3 29 28 27
3 29 35 28
3 35 29 21
3 21 31 35
3 38 8 22
3 38 10 8
3 38 22 39
3 39 22 40
3 22 32 40
3 40 32 41
3 33 41 32
3 33 32 24
3 45 17 14
3 28 35 36
3 30 17 37
3 37 46 35
3 35 46 48
3 35 48 36
3 31 30 37
3 35 31 37
3 42 50 10
3 50 12 10
3 43 39 40
3 44 53 46
3 45 34 17
3 47 44 46
3 53 48 46
3 46 37 47
3 40 41 51
3 41 33 51
3 24 49 33
3 49 24 56
3 43 40 51
3 39 43 58
3 50 26 12
3 58 43 44
3 52 43 51
3 24 25 59
3 44 43 52
3 59 25 60
3 25 27 60
3 58 44 61
3 53 44 52
3 27 54 60
3 28 54 27
3 61 44 47
3 53 63 48
3 17 34 65
3 37 17 65
3 63 36 48
3 47 37 65
3 42 10 38
3 67 42 38
3 68 38 39
3 55 69 49
3 49 69 33
3 51 33 69
3 51 69 57
3 75 39 58
3 59 56 24
3 57 52 51
3 57 79 52
3 26 45 14
3 79 62 52
3 62 53 52
3 83 61 47
3 53 62 63
3 63 62 84
3 36 64 28
3 28 64 54
3 66 36 84
3 84 36 63
3 36 66 64
3 38 68 67
3 87 55 49
3 87 49 92
3 92 49 56
3 71 70 72
3 72 70 73
3 70 74 73
3 42 76 50
3 69 94 57
3 92 56 59
3 74 70 95
3 76 26 50
3 92 59 97
3 74 77 73
3 73 77 96
3 97 59 60
3 99 74 95
3 78 74 99
3 74 78 77
3 94 79 57
3 96 77 100
3 45 26 76
3 77 78 80
3 77 80 100
3 101 62 79
3 97 60 102
3 81 78 99
3 78 81 82
3 78 82 80
3 102 60 54
3 102 54 64
3 88 55 87
3 71 85 113
3 85 71 86
3 86 71 72
3 90 86 72
3 111 42 67
3 69 88 114
3 69 55 88
3 70 113 95
3 71 113 70
3 91 76 111
3 111 76 42
3 92 89 87
3 89 92 93
3 73 90 72
3 96 90 73
3 90 96 91
3 94 69 114
3 97 93 92
3 93 97 116
3 91 96 98
3 91 98 76
3 116 97 117
3 101 79 94
3 96 100 98
3 76 98 45
3 97 102 117
3 98 100 103
3 98 103 45
3 45 103 104
3 62 101 119
3 102 105 117
3 80 103 100
3 45 104 34
3 84 119 108
3 84 62 119
3 64 105 102
3 106 82 81
3 82 106 80
3 80 106 107
3 80 107 103
3 65 34 104
3 84 108 66
3 64 122 105
3 108 122 64
3 108 64 66
3 85 86 124
3 124 86 109
3 86 90 109
3 110 111 126
3 67 126 111
3 67 68 126
3 109 90 110
3 110 90 91
3 110 91 111
3 88 115 114
3 112 88 89
3 87 89 88
3 89 127 112
3 95 113 128
3 127 89 93
3 93 129 127
3 75 68 39
3 114 115 94
3 132 116 117
3 131 99 95
3 133 75 58
3 94 130 101
3 133 58 61
3 133 61 83
3 119 101 118
3 135 81 99
3 134 117 105
3 104 103 120
3 47 137 83
3 134 105 136
3 135 139 81
3 139 106 81
3 103 107 121
3 103 121 120
3 65 104 120
3 123 105 122
3 123 136 105
3 139 107 106
3 120 140 65
3 140 137 65
3 137 47 65
3 107 139 121
3 85 124 143
3 124 109 144
3 144 109 125
3 109 110 125
3 126 125 110
3 143 128 85
3 128 113 85
3 88 112 115
3 128 131 95
3 129 116 132
3 131 148 99
3 148 135 99
3 119 138 108
3 149 139 135
3 138 122 108
3 138 123 122
3 138 136 123
3 141 139 149
3 121 141 150
3 150 142 121
3 121 142 120
3 140 120 142
3 141 121 139
3 145 125 126
3 146 143 124
3 144 146 124
3 145 126 152
3 68 152 126
3 146 144 153
3 153 144 154
3 144 125 154
3 112 127 115
3 68 156 152
3 115 127 129
3 156 68 75
3 94 115 130
3 147 156 75
3 129 93 116
3 134 132 117
3 166 133 83
3 119 118 138
3 83 137 171
3 166 83 171
3 136 138 167
3 167 134 136
3 141 169 150
3 169 168 150
3 150 168 142
3 140 151 137
3 137 151 171
3 140 142 151
3 145 152 174
3 143 155 128
3 146 155 143
3 154 125 175
3 125 145 175
3 152 156 177
3 128 155 157
3 158 146 153
3 153 154 158
3 131 128 157
3 154 159 158
3 115 129 130
3 157 179 131
3 129 160 130
3 165 158 159
3 161 165 159
3 130 160 162
3 129 132 160
3 163 147 75
3 101 130 162
3 133 163 75
3 162 118 101
3 132 134 160
3 164 148 179
3 148 131 179
3 162 160 118
3 160 167 118
3 160 134 167
3 161 168 165
3 161 170 168
3 166 163 133
3 135 148 164
3 169 173 165
3 165 168 169
3 118 167 138
3 135 164 172
3 170 180 168
3 172 149 135
3 173 149 172
3 141 149 173
3 169 141 173
3 168 151 142
3 168 180 151
3 176 145 174
3 175 145 176
3 177 174 152
3 154 175 178
3 155 146 183
3 183 146 158
3 154 178 159
3 179 157 186
3 158 187 183
3 158 165 187
3 179 186 164
3 187 165 190
3 190 165 173
3 161 192 170
3 190 173 172
3 171 194 166
3 151 180 181
3 171 195 194
3 181 171 151
3 195 171 181
3 176 174 196
3 177 197 174
3 197 196 174
3 196 200 176
3 177 156 182
3 177 182 197
3 155 183 184
3 200 175 176
3 184 157 155
3 184 183 185
3 175 188 178
3 156 147 182
3 186 157 184
3 187 185 183
3 185 187 204
3 159 178 188
3 189 159 188
3 163 182 147
3 161 159 189
3 164 186 193
3 190 191 187
3 187 191 204
3 192 161 189
3 193 191 190
3 172 164 193
3 190 172 193
3 207 180 192
3 207 181 180
3 166 194 163
3 180 170 192
3 198 196 197
3 198 197 213
3 197 199 213
3 200 196 201
3 196 202 201
3 198 202 196
3 197 182 199
3 199 182 203
3 200 188 175
3 184 185 186
3 201 206 200
3 182 205 203
3 200 206 188
3 185 191 186
3 185 204 191
3 188 206 189
3 163 205 182
3 206 207 189
3 206 209 207
3 186 191 193
3 189 207 192
3 205 163 208
3 207 209 181
3 194 211 163
3 163 211 208
3 209 210 181
3 210 212 181
3 195 181 212
3 212 194 195
3 212 211 194
3 219 213 199
3 199 214 219
3 214 199 203
3 202 215 201
3 209 206 201
3 201 215 209
3 215 210 209
3 208 216 205
3 217 212 210
3 208 218 216
3 211 218 208
3 211 212 218
3 198 213 219
3 220 219 214
3 220 214 221
3 221 214 229
3 202 198 222
3 214 203 229
3 222 215 202
3 224 223 203
3 205 224 203
3 225 224 205
3 216 225 205
3 210 226 217
3 218 227 216
3 217 228 212
3 212 228 218
3 218 228 227
3 219 220 198
3 198 232 222
3 229 203 223
3 222 234 215
3 215 234 210
3 234 226 210
3 216 230 225
3 227 230 216
3 231 228 217
3 228 231 227
3 221 235 220
3 198 220 232
3 235 232 220
3 235 221 229
3 229 233 235
3 233 229 223
3 233 223 237
3 237 223 224
3 237 224 240
3 240 224 225
3 230 240 225
3 226 241 217
3 241 231 217
3 231 241 242
3 242 227 231
3 230 227 242
3 232 236 243
3 232 235 236
3 235 244 236
3 233 244 235
3 243 238 232
3 238 222 232
3 244 233 237
3 234 222 238
3 244 237 247
3 239 234 238
3 247 237 240
3 234 239 226
3 247 240 249
3 239 241 226
3 249 240 230
3 241 251 242
3 230 242 251
3 249 230 251
3 236 245 243
3 244 245 236
3 246 238 243
3 243 245 246
3 244 247 245
3 246 248 238
3 248 239 238
3 245 247 250
3 250 247 249
3 248 250 251
3 241 239 248
3 241 248 251
3 249 251 250
3 246 245 248
3 245 250 248
