ply
format ascii 1.0
element vertex 250
property float x
property float y
property float z
element face 500
property list uchar int vertex_indices
end_header
-0.587725 -0.142944 -0.902575
-0.557435 -0.179705 -0.808520
-0.576477 -0.169154 -0.103326
-0.563668 -0.141014 0.441082
-0.614003 -0.068670 -0.117168
-0.620992 -0.023665 -0.808093
-0.581997 -0.108859 -0.749277
-0.549400 -0.064063 -0.955537
-0.620642 0.028394 -0.908657
-0.630386 -0.011177 0.428409
-0.596684 -0.009939 -0.742155
-0.598792 0.021832 0.525993
-0.551028 0.083354 -0.943846
-0.618057 0.078445 -0.107891
-0.578417 0.115486 -0.754434
-0.575380 0.176297 -0.825651
-0.619975 0.133582 0.438345
-0.589969 0.154699 0.501824
-0.591388 0.166691 -0.894434
-0.570973 0.177303 -0.075583
-0.521409 -0.238920 -0.039964
-0.507819 -0.261826 0.342396
-0.494722 -0.216915 -0.888126
-0.585419 -0.083128 -0.159840
-0.446093 -0.072556 0.669371
-0.595059 0.075123 -0.156428
-0.430193 0.087898 0.668788
-0.552968 0.216328 0.405457
-0.482833 0.210633 -0.879564
-0.498436 0.258960 -0.047545
-0.417755 -0.310410 0.072018
-0.423319 -0.308592 0.333517
-0.459867 -0.263918 0.465331
-0.513319 -0.194959 -0.136163
-0.512305 -0.172745 -0.936969
-0.509592 -0.152410 -0.718708
-0.369512 -0.171895 0.669940
-0.496365 -0.093861 -0.205500
-0.325764 -0.077710 -0.583667
-0.513748 -0.002025 -0.683944
-0.516862 0.050782 -0.206933
-0.325955 0.086226 -0.586778
-0.499871 0.170987 -0.726851
-0.470581 0.209297 -0.147071
-0.474531 0.206924 0.562201
-0.426526 0.307897 0.059932
-0.389952 0.307759 0.340149
-0.356482 0.288845 0.526078
-0.360793 -0.306240 -0.059322
-0.307831 -0.291877 0.526958
-0.389182 -0.261790 -0.796773
-0.310034 -0.195110 -0.238820
-0.401699 -0.241956 -0.751124
-0.263386 -0.206297 -0.620185
-0.338278 -0.036739 -0.304226
-0.114244 -0.104305 -0.970286
-0.375094 0.000041 -0.592576
-0.112962 0.007593 -0.991214
-0.366511 0.119448 -0.268349
-0.316011 0.201696 0.671208
-0.407324 0.249731 -0.780748
-0.273140 0.199445 -0.252806
-0.394773 0.304774 -0.039492
-0.261305 0.299688 -0.124367
-0.337318 -0.311234 0.052390
-0.340559 -0.307360 0.282583
-0.229315 -0.311541 -0.122946
-0.225090 -0.227743 0.227983
-0.250802 -0.208646 0.710788
-0.133067 -0.216429 -0.898388
-0.322249 -0.016382 0.755610
-0.249107 0.016232 -0.336645
-0.299283 0.126487 0.740516
-0.268376 0.217176 -0.630422
-0.265780 0.250787 0.180319
-0.225259 0.218866 0.287691
-0.367286 0.313018 0.039859
-0.346234 0.293012 0.233235
-0.265442 0.307258 0.414614
-0.295420 0.322139 0.482408
-0.268054 -0.322693 -0.045913
-0.192552 -0.288483 -0.804965
-0.193409 -0.290104 -0.729021
-0.172264 -0.307397 0.510753
-0.147888 -0.305945 0.578538
-0.133228 -0.267479 0.420619
-0.244601 -0.116830 -0.325435
-0.065681 0.091249 -0.942839
-0.082579 0.228475 -0.855414
-0.221609 0.285383 -0.803673
-0.198427 0.291427 -0.737837
-0.078466 0.292617 -0.653063
-0.260508 0.308610 -0.025086
-0.092179 -0.279990 -0.624659
-0.068260 -0.303520 -0.104250
-0.206677 -0.247922 0.101080
-0.145712 -0.217819 -0.290906
-0.111116 -0.253863 0.675369
-0.198484 -0.161849 -0.545721
-0.047976 -0.208830 -0.425074
-0.174438 -0.150172 0.182672
-0.038247 -0.188799 0.044942
-0.171427 -0.124315 0.772774
-0.157201 -0.090550 0.269399
-0.124842 -0.128511 -0.367342
-0.205052 0.005837 -0.505126
-0.150535 0.018457 -0.380485
-0.161791 -0.002741 0.220623
-0.210230 -0.010166 0.800911
-0.159730 0.062581 0.271850
-0.179680 0.148506 0.195095
-0.174577 0.092270 0.785887
-0.165681 0.193119 -0.548067
-0.123085 0.152916 -0.352615
-0.060455 0.203210 -0.404080
-0.118086 0.245937 0.038680
-0.177824 0.188634 0.730318
-0.105095 0.257969 0.437668
-0.118423 0.287351 0.560262
-0.096259 0.283672 -0.225428
-0.154051 0.310679 -0.105353
-0.019935 -0.295490 -0.709233
-0.054476 -0.298161 -0.203312
-0.036332 -0.236455 -0.336392
-0.028817 -0.207894 0.409159
-0.131765 -0.057139 -0.421406
-0.044330 0.002695 0.103954
-0.029569 -0.039608 0.349204
-0.133961 0.077645 -0.416060
-0.039334 0.107670 0.357111
-0.027634 0.242687 -0.362478
-0.033795 0.186477 0.391137
-0.046524 0.290931 -0.736318
-0.013220 -0.313326 -0.649896
-0.051458 -0.289285 0.555997
0.070422 -0.317049 -0.219393
0.098248 -0.263452 -0.090435
0.073419 -0.318676 -0.542210
0.110988 -0.319831 -0.401364
-0.023975 -0.158225 -0.902812
0.136733 -0.213285 -0.744424
0.498716 -0.210394 0.750904
-0.038618 -0.021894 -0.971746
-0.055432 0.178444 0.069645
0.500644 0.211432 0.754714
0.114044 0.211541 -0.759456
0.050841 0.300111 -0.448235
0.030544 0.306015 -0.655930
0.030307 0.312170 -0.588805
0.028412 0.176611 0.013650
0.077399 0.321814 -0.288914
-0.008886 0.303626 -0.150595
0.413213 -0.301705 0.572437
0.393671 -0.298178 0.643471
0.031693 -0.193247 0.013254
0.430329 -0.206103 0.420493
0.027441 -0.078289 0.054987
0.114566 -0.010860 -0.842166
0.337613 -0.071118 0.370303
0.608332 -0.122918 0.777698
0.352079 0.005383 0.355004
0.564564 0.007587 0.823741
0.036798 0.028708 0.063132
0.418212 0.256948 0.439884
0.395653 0.287712 0.667888
0.192031 -0.324801 -0.521946
0.191339 -0.326853 -0.203797
0.296847 -0.215081 -0.660285
0.102833 -0.172999 -0.016861
0.131000 0.050721 0.017124
0.127741 0.189697 -0.025558
0.171668 0.317750 -0.203695
0.162648 0.300510 -0.610934
0.151023 0.333047 -0.511548
0.191836 0.351516 -0.359099
0.184908 -0.350781 -0.317902
0.308813 -0.218696 -0.061570
0.200110 -0.192453 -0.737021
0.254266 -0.158558 -0.042834
0.202225 -0.073817 -0.776792
0.303128 -0.116985 -0.719473
0.195874 0.073525 -0.783426
0.205349 0.198615 -0.726013
0.331229 0.218392 -0.037552
0.295933 -0.334448 -0.452033
0.284987 -0.354836 -0.309517
0.372144 -0.258254 -0.540042
0.308158 0.052771 -0.730575
0.368395 0.048570 0.033198
0.400983 0.132860 0.358648
0.327458 0.207653 -0.646480
0.281733 0.318925 -0.486375
0.485773 0.291516 0.597789
0.396224 0.308784 -0.395127
0.287866 0.353406 -0.321293
0.421949 -0.329202 -0.279521
0.394203 -0.323290 -0.174128
0.346354 -0.119107 -0.005562
0.404741 -0.127976 -0.663179
0.609032 0.083484 0.801364
0.430075 0.109934 -0.653280
0.491020 0.206458 0.095971
0.460545 0.168488 -0.574513
0.374805 0.329271 -0.189908
0.406488 0.339974 -0.261937
0.556905 -0.285734 0.517715
0.520668 -0.189724 -0.482916
0.514868 -0.242452 0.084842
0.511985 -0.194298 0.293093
0.484642 -0.137840 -0.582400
0.437165 -0.092682 0.107615
0.469917 -0.053668 0.241289
0.441944 -0.012755 0.315619
0.431068 -0.026669 -0.668558
0.463311 0.074571 0.161159
0.501918 0.210502 0.312791
0.547223 0.175777 -0.458335
0.517437 0.291207 0.475534
0.610374 -0.297793 -0.118925
0.500724 -0.291454 0.638278
0.589870 -0.296009 -0.195731
0.578451 -0.287874 0.015426
0.593486 -0.275060 0.402723
0.577597 -0.267994 0.139238
0.723263 -0.187138 -0.220156
0.557426 -0.104563 -0.519055
0.516423 0.017386 -0.592250
0.560026 0.052504 -0.532742
0.705315 0.205492 -0.171192
0.557908 0.277944 0.077490
0.592485 0.288027 -0.208843
0.605233 0.196121 0.726625
0.592834 0.310785 -0.104112
0.603217 0.280172 0.498180
0.637072 -0.285844 -0.001512
0.606752 -0.209530 0.710721
0.649144 -0.264827 0.452703
0.776667 -0.053331 0.629090
0.742472 0.190043 0.588312
0.653896 0.288527 -0.042385
0.742693 -0.211420 -0.086897
0.765210 -0.145837 0.597321
0.778746 -0.049067 -0.265949
0.775387 0.061419 -0.212366
0.764713 0.126108 0.577838
0.744420 0.208291 0.483775
0.661764 0.281367 0.405922
0.814353 -0.109612 0.512159
0.797872 -0.102366 -0.200436
0.813918 -0.009570 -0.165827
3 20 3 21
3 2 3 20
3 4 2 23
3 2 4 3
3 1 0 5
3 1 5 6
3 7 8 0
3 0 8 5
3 4 9 3
3 6 5 10
3 3 9 11
3 7 12 8
3 25 4 23
3 13 4 25
3 4 13 9
3 10 5 14
3 5 8 15
3 5 15 14
3 13 16 9
3 9 16 11
3 11 16 17
3 18 8 12
3 8 18 15
3 19 13 25
3 13 19 16
3 17 16 27
3 19 27 16
3 30 20 21
3 32 21 3
3 22 34 0
3 1 22 0
3 20 33 2
3 34 7 0
3 6 35 1
3 33 23 2
3 33 37 23
3 35 6 39
3 39 6 10
3 37 40 23
3 11 24 3
3 39 10 14
3 40 25 23
3 39 14 42
3 40 43 25
3 17 26 11
3 28 18 12
3 42 14 15
3 43 19 25
3 15 18 28
3 27 44 17
3 29 19 43
3 19 29 27
3 45 27 29
3 30 48 20
3 21 31 30
3 21 32 31
3 22 1 50
3 1 52 50
3 48 33 20
3 32 3 36
3 35 52 1
3 3 24 36
3 39 38 35
3 26 24 11
3 57 12 7
3 42 41 39
3 44 26 17
3 28 60 15
3 42 15 60
3 43 62 29
3 62 45 29
3 46 27 45
3 27 46 47
3 44 27 47
3 30 64 48
3 64 30 65
3 30 31 65
3 65 31 49
3 31 32 49
3 51 33 48
3 36 49 32
3 69 34 22
3 52 35 53
3 53 35 38
3 51 37 33
3 55 7 34
3 51 54 37
3 24 70 36
3 37 54 40
3 39 56 38
3 70 24 26
3 41 56 39
3 58 40 54
3 70 26 72
3 59 72 26
3 58 43 40
3 44 59 26
3 61 43 58
3 42 60 73
3 61 63 43
3 43 63 62
3 44 47 59
3 62 76 45
3 76 77 45
3 45 77 46
3 77 78 46
3 78 79 46
3 46 79 47
3 48 80 66
3 80 48 64
3 50 81 22
3 52 82 50
3 82 81 50
3 66 51 48
3 67 64 65
3 52 53 82
3 49 36 68
3 86 54 51
3 71 54 86
3 55 57 7
3 38 56 41
3 54 71 58
3 87 12 57
3 71 61 58
3 87 28 12
3 42 73 41
3 28 88 89
3 60 28 89
3 60 89 90
3 60 90 73
3 74 75 77
3 75 78 77
3 63 92 62
3 62 92 76
3 74 76 92
3 77 76 74
3 65 49 83
3 84 83 49
3 51 66 96
3 80 64 95
3 65 85 67
3 65 83 85
3 49 97 84
3 82 53 93
3 53 98 93
3 95 64 67
3 97 49 68
3 100 95 67
3 55 34 69
3 98 53 38
3 96 86 51
3 68 36 102
3 98 38 105
3 104 71 86
3 70 102 36
3 104 106 71
3 102 70 108
3 105 38 41
3 108 70 111
3 111 70 72
3 105 41 112
3 71 106 113
3 61 71 113
3 112 41 73
3 110 75 74
3 111 72 116
3 115 110 74
3 116 72 59
3 91 112 73
3 63 61 119
3 59 47 118
3 116 59 118
3 90 91 73
3 115 74 92
3 79 118 47
3 120 63 119
3 120 92 63
3 66 94 122
3 94 66 80
3 66 122 96
3 94 95 101
3 94 80 95
3 69 22 81
3 93 98 99
3 95 100 101
3 67 85 124
3 68 102 97
3 104 86 96
3 67 103 100
3 67 124 103
3 99 98 125
3 98 105 125
3 125 106 104
3 107 126 100
3 100 103 107
3 125 128 106
3 103 109 107
3 125 105 128
3 110 126 107
3 107 109 110
3 105 112 128
3 106 128 113
3 112 114 128
3 110 109 75
3 129 131 75
3 109 129 75
3 88 28 87
3 75 131 117
3 119 61 113
3 132 89 88
3 75 117 78
3 132 90 89
3 91 90 132
3 115 92 120
3 118 78 117
3 118 79 78
3 82 121 81
3 121 82 93
3 121 93 133
3 84 134 83
3 97 134 84
3 81 121 69
3 133 93 137
3 101 136 94
3 85 134 124
3 83 134 85
3 69 121 139
3 93 99 137
3 122 123 96
3 102 141 97
3 139 55 69
3 123 99 104
3 96 123 104
3 125 104 99
3 101 100 126
3 103 124 127
3 139 142 55
3 142 57 55
3 109 103 127
3 142 87 57
3 129 109 127
3 113 128 114
3 143 126 110
3 113 114 130
3 110 115 143
3 144 111 116
3 112 146 114
3 130 119 113
3 143 115 149
3 91 148 112
3 112 148 146
3 115 151 149
3 119 151 120
3 151 115 120
3 121 133 137
3 135 94 136
3 135 122 94
3 135 123 122
3 134 152 124
3 121 140 139
3 137 99 138
3 99 123 138
3 154 136 101
3 154 101 156
3 156 101 126
3 158 127 124
3 159 102 161
3 161 102 108
3 156 126 162
3 157 87 142
3 160 129 127
3 161 108 111
3 162 126 149
3 149 126 143
3 87 145 88
3 145 132 88
3 145 147 132
3 130 114 146
3 131 163 117
3 144 116 164
3 164 116 118
3 146 150 130
3 130 150 119
3 147 91 132
3 147 148 91
3 150 151 119
3 137 165 121
3 135 138 123
3 121 165 140
3 166 135 136
3 97 153 134
3 168 136 154
3 156 168 154
3 157 139 140
3 169 168 156
3 159 141 102
3 142 139 157
3 158 160 127
3 162 169 156
3 145 87 157
3 149 169 162
3 170 169 149
3 171 170 149
3 171 149 151
3 172 148 147
3 146 148 173
3 148 172 173
3 174 171 150
3 150 171 151
3 165 138 175
3 138 135 175
3 175 135 166
3 138 165 137
3 165 167 140
3 176 166 136
3 140 167 177
3 178 136 168
3 177 179 140
3 179 157 140
3 178 168 169
3 179 181 157
3 181 145 157
3 181 182 145
3 171 183 170
3 145 172 147
3 145 182 172
3 163 118 117
3 173 174 146
3 146 174 150
3 184 165 185
3 165 175 185
3 165 184 186
3 134 153 152
3 186 167 165
3 124 152 155
3 180 177 167
3 176 136 178
3 180 179 177
3 180 187 179
3 178 169 188
3 187 181 179
3 182 181 187
3 188 169 183
3 189 131 129
3 183 169 170
3 189 163 131
3 190 172 182
3 172 190 191
3 172 191 173
3 192 118 163
3 192 164 118
3 191 174 173
3 191 194 174
3 194 171 174
3 184 185 195
3 184 195 186
3 185 175 166
3 196 185 166
3 196 166 176
3 141 153 97
3 178 197 176
3 155 158 124
3 197 178 188
3 199 161 111
3 189 129 160
3 187 190 182
3 199 111 144
3 171 203 183
3 194 204 203
3 171 194 203
3 193 194 191
3 193 204 194
3 195 185 196
3 196 176 207
3 167 186 209
3 198 180 167
3 167 209 198
3 176 197 210
3 212 158 155
3 198 213 180
3 212 160 158
3 213 187 180
3 197 188 210
3 210 188 214
3 213 200 187
3 212 189 160
3 190 187 200
3 200 202 190
3 183 201 188
3 202 191 190
3 202 193 191
3 218 195 196
3 218 196 221
3 152 219 205
3 153 219 152
3 195 206 186
3 195 220 206
3 196 207 221
3 205 208 155
3 205 155 152
3 219 153 141
3 186 206 209
3 210 207 176
3 207 210 208
3 208 211 212
3 155 208 212
3 209 226 213
3 198 209 213
3 208 210 211
3 210 214 211
3 211 214 212
3 226 202 200
3 213 226 200
3 212 214 215
3 212 215 189
3 201 214 188
3 201 215 214
3 189 215 163
3 202 216 193
3 216 230 193
3 183 229 201
3 215 217 163
3 183 203 229
3 164 192 144
3 203 204 232
3 217 192 163
3 220 195 218
3 205 219 235
3 206 220 224
3 221 207 223
3 223 207 208
3 208 222 223
3 222 208 205
3 219 141 235
3 206 224 225
3 235 141 159
3 206 225 209
3 209 225 226
3 225 227 226
3 226 227 202
3 227 216 202
3 231 199 144
3 230 216 228
3 201 229 215
3 229 233 215
3 233 217 215
3 231 144 192
3 231 192 233
3 230 204 193
3 230 232 204
3 203 232 229
3 192 217 233
3 218 221 234
3 218 224 220
3 221 223 234
3 234 223 236
3 223 222 236
3 222 205 236
3 205 235 236
3 225 224 242
3 159 161 237
3 231 244 199
3 239 246 229
3 229 246 233
3 246 245 233
3 245 238 233
3 238 231 233
3 232 230 239
3 239 229 232
3 218 240 224
3 234 240 218
3 236 240 234
3 236 241 240
3 241 236 235
3 159 241 235
3 237 241 159
3 225 242 227
3 227 243 216
3 216 243 228
3 231 238 244
3 230 228 239
3 228 245 239
3 245 246 239
3 247 240 241
3 248 242 224
3 224 240 248
3 240 247 248
3 241 237 247
3 248 249 242
3 248 247 249
3 247 237 249
3 227 242 243
3 242 249 243
3 249 244 243
3 249 237 244
3 237 199 244
3 161 199 237
3 243 245 228
3 243 244 245
3 244 238 245
