ply
format ascii 1.0
element vertex 252
property float x
property float y
property float z
element face 500
property list uchar int vertex_indices
end_header
-0.713382 -0.183678 -0.903650
-0.742041 -0.106647 -0.975866
-0.785250 -0.074928 -0.908596
-0.768035 -0.079360 -0.827028
-0.756626 0.053212 -0.969942
-0.787766 0.025749 -0.886379
-0.767001 0.040684 -0.814561
-0.713458 0.175381 -0.899145
-0.663055 -0.192394 -0.990793
-0.685451 -0.180051 -0.738718
-0.634759 -0.199259 -0.584062
-0.684970 -0.103462 -0.599024
-0.640956 -0.137340 -1.033062
-0.734526 -0.037388 -0.721380
-0.650689 -0.017051 -1.042197
-0.684445 0.025202 -0.581701
-0.632278 0.135669 -1.030072
-0.716572 0.116651 -0.735927
-0.697426 0.181243 -0.985493
-0.636548 0.185089 -0.598074
-0.664163 0.217233 -0.767447
-0.606856 -0.245790 -0.866841
-0.577108 -0.234423 -0.666917
-0.584754 -0.231596 -0.571741
-0.586743 -0.208106 -0.498222
-0.578077 -0.162822 -0.425904
-0.644657 -0.096463 -0.501440
-0.622734 -0.030772 -0.430875
-0.644154 0.058945 -0.491226
-0.618042 0.076822 -0.438822
-0.585463 0.198971 -0.490997
-0.570334 0.175813 -0.419022
-0.576298 0.234934 -0.573012
-0.595875 0.249573 -0.862160
-0.593707 0.242065 -0.660590
-0.589246 -0.234582 -0.952532
-0.515091 -0.215976 -0.861694
-0.479399 -0.180089 -0.672262
-0.506485 -0.228722 -0.422891
-0.538483 -0.202714 -1.009370
-0.505793 -0.192297 -0.347616
-0.483806 -0.093319 -0.231155
-0.576577 -0.005949 -0.355903
-0.499148 0.026050 -0.226230
-0.295811 0.015314 -1.070117
-0.519246 0.174842 -0.339081
-0.456524 0.154188 -0.238530
-0.586151 0.226743 -0.959301
-0.516674 0.225664 -0.874477
-0.507454 0.231006 -0.624460
-0.494968 0.236799 -0.416163
-0.477541 -0.209821 -0.952445
-0.464520 -0.208076 -0.559451
-0.508243 -0.236383 -0.490915
-0.394281 -0.239771 -0.303330
-0.427221 -0.213313 -0.270387
-0.416824 -0.136182 -0.865789
-0.462762 -0.127171 -0.812627
-0.434006 -0.028134 -0.669266
-0.452814 0.000608 -0.824428
-0.466185 0.150090 -0.864552
-0.457670 0.150152 -0.672268
-0.427822 0.120537 -0.872730
-0.423270 0.197888 -0.931896
-0.519315 0.244632 -0.496533
-0.425530 0.232330 -0.458170
-0.406884 0.230176 -0.288337
-0.409367 -0.228259 -0.435668
-0.346340 -0.195587 -0.968446
-0.384862 -0.159383 -0.504613
-0.341389 -0.189319 -0.427177
-0.370409 -0.176222 -0.185444
-0.398693 -0.083412 -0.574058
-0.420606 -0.053635 -0.159200
-0.340267 0.001254 -0.499667
-0.426686 0.003739 -0.834083
-0.397570 0.076835 -0.573542
-0.401647 0.092104 -0.158064
-0.277945 0.135253 -1.025787
-0.386667 0.164064 -0.499639
-0.287633 0.198691 -0.912499
-0.352184 0.192232 -0.180503
-0.432665 0.182549 -0.573368
-0.348828 0.199266 -0.423039
-0.298050 -0.238662 -0.315919
-0.240492 -0.227757 -0.158271
-0.254791 -0.196204 -0.911065
-0.185612 -0.161396 -0.062348
-0.318566 -0.122094 -1.039348
-0.258440 -0.088270 -0.417834
-0.342533 -0.130076 -0.129058
-0.251609 -0.138269 -0.843812
-0.275985 -0.046711 -0.814471
-0.268622 0.144485 -0.853437
-0.248201 0.064876 -0.812761
-0.246441 0.059879 -0.418073
-0.248439 0.204604 -0.964415
-0.341834 0.240901 -0.338947
-0.231264 0.226472 -0.138274
-0.270647 -0.201612 -0.352275
-0.223974 -0.176411 -0.977161
-0.174375 -0.174116 -0.265392
-0.191239 -0.038993 -1.040784
-0.253334 -0.039114 -0.043684
-0.254835 0.047220 -0.041622
-0.273420 0.187343 -0.362026
-0.172787 0.179161 -0.249491
-0.205507 0.147793 -0.053409
-0.141493 -0.219064 -0.109957
-0.117042 -0.172531 -0.927396
-0.081132 -0.139841 -0.884320
-0.101115 -0.178028 0.600247
-0.126228 -0.156064 0.649073
-0.094395 -0.086384 -0.980890
-0.209789 -0.069736 -0.376005
-0.154303 -0.082116 0.589792
-0.157288 -0.063429 0.662077
-0.122380 -0.014161 -0.284492
-0.179246 0.012230 0.004635
-0.200761 0.062654 -0.374632
-0.162455 0.070586 0.592497
-0.150685 0.083124 0.666617
-0.158548 0.099816 -0.296391
-0.100474 0.061242 -0.989586
-0.113185 0.145274 -0.845576
-0.192948 0.179251 -0.982079
-0.132495 0.171922 -0.908181
-0.108842 0.153848 0.603862
-0.067072 0.146444 0.659862
-0.138287 0.223467 -0.125273
-0.105215 -0.198871 -0.049684
-0.014138 -0.219071 -0.024501
-0.007562 -0.169131 0.068954
-0.021172 -0.070596 -0.190100
-0.126593 -0.089427 0.556699
-0.089440 -0.123057 0.685733
-0.108886 0.001369 0.042105
0.051300 -0.063696 0.199671
-0.111693 -0.004046 0.698700
-0.061712 0.036430 -0.826022
-0.048544 0.057402 -0.201981
-0.137626 0.070394 0.558559
0.060439 0.044141 0.220649
-0.124551 0.085362 0.691099
0.072515 0.154505 0.179911
-0.105121 0.203075 -0.045569
0.009937 0.212113 0.064428
-0.000730 0.215395 -0.035042
-0.046494 -0.198910 -0.114102
-0.041539 -0.175352 0.566638
0.048530 -0.216680 0.627611
0.075810 -0.172268 0.521858
-0.042152 -0.097063 -0.932947
0.019922 -0.074608 0.491951
-0.059305 -0.047765 -0.831445
-0.054220 -0.000540 0.516292
-0.012663 -0.005335 -0.886237
-0.031227 -0.004262 -0.957956
-0.036306 0.085516 -0.934585
-0.049434 0.126715 -0.872743
-0.053347 0.190986 -0.117797
-0.038655 0.173888 0.569081
0.093357 0.164029 0.527468
0.085098 0.224768 0.601556
0.161437 0.223535 0.170937
0.011867 -0.218960 -0.073351
0.103793 -0.233365 0.574302
0.052171 -0.197032 -0.073557
0.163466 -0.227942 0.163954
0.026657 -0.090885 -0.150522
0.113650 -0.176228 0.199796
0.148698 -0.129146 0.278606
0.918261 -0.022149 0.709652
0.128799 -0.007928 0.299636
0.063612 0.013118 0.471058
0.048640 0.073792 -0.125060
0.142920 0.101300 0.288431
0.002208 0.187784 -0.103659
0.099330 0.192933 -0.032157
0.081914 0.222869 0.587154
0.171951 -0.232589 0.113123
0.192835 -0.205681 0.257284
0.369445 -0.092208 0.135520
0.350668 -0.009886 0.106945
0.176069 -0.057849 0.446071
0.352424 0.080115 0.119614
0.196860 0.044339 0.375713
0.195628 0.021038 0.421827
0.228111 0.187940 0.070254
0.192198 0.195541 0.262582
0.177980 0.223426 0.084853
0.295499 -0.258530 0.553265
0.253072 -0.217410 0.512717
0.262575 -0.189094 0.347970
0.203534 -0.065413 0.368533
0.251464 -0.123389 0.419766
0.252785 0.143829 0.425008
0.218295 0.144498 0.466360
0.256495 0.174902 0.351933
0.316836 0.245466 0.514569
0.348939 -0.226149 0.251435
0.275965 -0.228435 0.286277
0.353906 -0.246011 0.471564
0.350838 -0.180929 0.176951
0.357648 -0.239852 0.333451
0.889403 -0.112437 0.700513
0.358551 0.239409 0.428168
0.361497 0.229241 0.256465
0.272542 0.223258 0.285707
0.358563 0.239933 0.348217
0.254721 0.256927 0.562234
0.469898 -0.151536 0.244930
0.413581 0.137621 0.186194
0.458030 0.262645 0.398794
0.437825 0.283224 0.504211
0.473418 -0.251861 0.393970
0.471534 -0.279740 0.500808
0.472020 -0.281259 0.528217
0.417081 -0.232274 0.301044
0.765662 -0.256582 0.579308
0.438278 -0.005507 0.169012
0.476172 0.202902 0.280750
0.845632 0.192750 0.647382
0.457795 0.284927 0.556607
0.623578 -0.267278 0.488413
0.646387 -0.198518 0.393709
0.515094 -0.025176 0.217374
0.506572 0.089649 0.228764
0.880240 0.083946 0.704603
0.636899 0.230566 0.418603
0.562363 0.290070 0.507312
0.663467 -0.081607 0.333676
0.665616 0.072700 0.340739
0.770085 0.265519 0.561372
0.877789 -0.199889 0.648448
0.696231 0.264284 0.485561
0.797915 -0.215425 0.488255
0.730093 -0.110401 0.378960
0.819426 -0.058310 0.411428
0.750965 0.005944 0.373071
0.722533 0.188124 0.428326
0.827162 0.067987 0.422165
0.820130 0.229298 0.511484
0.892920 -0.212257 0.575702
0.900930 -0.159688 0.498988
0.961486 -0.115347 0.546902
0.960078 -0.081668 0.653900
0.909214 0.165245 0.508975
0.966304 0.120647 0.549171
0.962894 0.079785 0.655070
0.899007 0.207779 0.579036
0.954018 0.007167 0.516518
3 1 2 0
3 9 0 3
3 0 2 3
3 1 4 2
3 2 4 5
3 2 5 3
3 3 5 6
3 3 6 13
3 18 7 4
3 7 5 4
3 6 5 7
3 1 8 12
3 0 8 1
3 10 9 11
3 9 3 13
3 9 13 11
3 12 14 1
3 1 14 4
3 11 13 15
3 26 15 28
3 11 15 26
3 14 16 4
3 6 17 13
3 13 17 15
3 16 18 4
3 6 7 17
3 15 17 19
3 15 19 28
3 17 7 20
3 17 20 19
3 21 35 0
3 0 35 8
3 9 21 0
3 21 9 22
3 22 9 10
3 22 10 23
3 35 39 8
3 39 12 8
3 23 10 24
3 26 24 10
3 11 26 10
3 24 26 25
3 25 26 27
3 25 27 42
3 26 28 27
3 27 28 29
3 27 29 42
3 44 16 14
3 42 29 31
3 30 28 19
3 28 30 29
3 29 30 31
3 47 18 16
3 19 32 30
3 47 33 7
3 47 7 18
3 20 7 33
3 20 33 34
3 20 34 19
3 32 19 34
3 35 21 36
3 35 36 51
3 21 22 36
3 22 37 36
3 22 52 37
3 22 23 52
3 24 53 23
3 53 52 23
3 24 38 53
3 51 39 35
3 25 38 24
3 38 25 40
3 40 41 55
3 42 40 25
3 40 42 41
3 41 42 43
3 31 45 42
3 42 45 43
3 43 45 46
3 50 31 30
3 31 50 45
3 33 47 48
3 48 47 63
3 48 49 33
3 49 34 33
3 49 32 34
3 32 64 30
3 32 49 64
3 64 50 30
3 53 38 67
3 54 67 38
3 68 39 51
3 53 67 52
3 54 38 40
3 40 55 54
3 56 51 36
3 36 57 56
3 36 37 57
3 52 72 37
3 55 41 71
3 37 58 57
3 37 72 58
3 41 73 71
3 59 56 57
3 57 58 59
3 75 56 59
3 73 41 43
3 73 43 77
3 62 75 59
3 60 62 59
3 59 61 60
3 59 58 61
3 47 16 78
3 77 43 46
3 77 46 81
3 78 63 47
3 60 63 62
3 60 61 48
3 66 81 46
3 63 60 48
3 61 49 48
3 61 82 49
3 49 82 65
3 46 45 66
3 64 49 65
3 65 50 64
3 50 66 45
3 67 84 70
3 67 54 84
3 55 71 54
3 67 69 52
3 67 70 69
3 56 86 68
3 56 68 51
3 52 69 72
3 39 88 12
3 88 39 68
3 73 90 71
3 69 74 72
3 69 70 74
3 92 56 75
3 76 58 72
3 72 74 76
3 75 62 93
3 61 58 76
3 74 79 76
3 74 83 79
3 80 93 62
3 80 62 63
3 82 61 76
3 76 79 82
3 80 63 96
3 65 82 79
3 79 83 65
3 83 97 65
3 97 50 65
3 97 66 50
3 84 99 70
3 85 54 71
3 85 84 54
3 68 100 88
3 86 100 68
3 85 71 87
3 86 56 91
3 89 70 99
3 90 87 71
3 87 90 103
3 88 14 12
3 92 91 56
3 89 74 70
3 88 44 14
3 90 73 103
3 92 75 94
3 89 95 74
3 103 73 104
3 73 77 104
3 78 16 44
3 93 94 75
3 95 83 74
3 96 63 78
3 83 95 105
3 105 97 83
3 81 66 98
3 66 97 98
3 84 85 108
3 100 86 109
3 86 110 109
3 91 110 86
3 84 101 99
3 84 108 101
3 102 88 100
3 89 99 114
3 99 101 114
3 87 103 118
3 44 88 102
3 114 119 95
3 89 114 95
3 103 104 118
3 78 44 102
3 118 104 107
3 94 93 124
3 95 119 105
3 125 96 78
3 107 104 77
3 81 107 77
3 125 126 96
3 96 126 80
3 126 93 80
3 124 93 126
3 106 97 105
3 106 129 97
3 81 98 107
3 129 98 97
3 108 85 87
3 130 108 87
3 100 109 113
3 115 111 134
3 111 115 112
3 112 115 116
3 112 116 135
3 102 100 113
3 130 87 136
3 101 117 114
3 101 133 117
3 136 87 118
3 113 123 102
3 135 116 138
3 139 92 94
3 114 117 119
3 141 115 134
3 120 115 141
3 115 120 116
3 116 120 121
3 116 121 138
3 123 78 102
3 117 122 119
3 138 121 143
3 139 94 124
3 136 118 107
3 125 78 123
3 123 126 125
3 119 122 105
3 136 107 145
3 143 121 128
3 122 106 105
3 127 120 141
3 120 127 121
3 121 127 128
3 98 129 145
3 107 98 145
3 148 101 108
3 131 148 130
3 108 130 148
3 131 130 132
3 149 111 150
3 111 112 150
3 110 152 109
3 152 113 109
3 133 101 148
3 149 134 111
3 150 112 135
3 136 132 130
3 149 155 134
3 110 91 154
3 91 92 154
3 137 132 136
3 152 157 113
3 157 123 113
3 154 92 139
3 140 117 133
3 155 141 134
3 157 158 123
3 122 117 140
3 159 139 124
3 144 142 136
3 155 161 141
3 158 126 123
3 106 122 140
3 140 160 106
3 145 144 136
3 158 159 126
3 146 144 145
3 161 127 141
3 159 124 126
3 129 106 160
3 129 160 145
3 147 145 160
3 145 147 146
3 161 163 127
3 127 163 128
3 131 165 148
3 165 167 148
3 166 149 150
3 167 169 148
3 169 133 148
3 151 153 149
3 149 153 155
3 110 156 152
3 154 156 110
3 152 156 157
3 174 155 153
3 172 135 138
3 154 139 156
3 169 175 133
3 175 140 133
3 137 136 142
3 157 156 158
3 158 156 159
3 159 156 139
3 175 160 140
3 162 155 174
3 155 162 161
3 175 177 160
3 160 177 147
3 146 147 164
3 165 180 167
3 165 131 180
3 168 131 132
3 168 180 131
3 166 151 149
3 132 170 168
3 171 170 137
3 137 170 132
3 171 137 173
3 184 174 153
3 137 142 173
3 173 142 176
3 184 187 174
3 142 144 176
3 187 162 174
3 175 178 177
3 177 178 147
3 164 144 146
3 178 190 147
3 190 164 147
3 161 162 179
3 179 163 161
3 191 192 166
3 192 151 166
3 191 166 150
3 168 170 181
3 171 181 170
3 171 193 181
3 192 184 151
3 169 167 182
3 193 171 194
3 184 153 151
3 173 194 171
3 183 169 182
3 194 173 186
3 175 169 183
3 185 175 183
3 176 186 173
3 188 175 185
3 186 176 198
3 197 162 187
3 178 175 188
3 189 176 144
3 189 198 176
3 188 190 178
3 144 164 189
3 180 168 200
3 200 168 201
3 168 181 201
3 167 180 203
3 180 200 203
3 201 181 193
3 195 184 192
3 205 150 135
3 193 194 195
3 187 195 194
3 186 187 194
3 195 187 184
3 196 187 186
3 187 196 197
3 196 186 198
3 198 189 208
3 162 197 199
3 197 196 199
3 188 207 190
3 207 164 190
3 207 208 164
3 164 208 189
3 199 210 162
3 162 210 179
3 210 163 179
3 204 200 201
3 202 192 191
3 193 204 201
3 204 193 202
3 203 182 167
3 193 195 202
3 192 202 195
3 185 212 188
3 196 198 206
3 212 207 188
3 208 209 198
3 198 209 206
3 196 206 199
3 208 207 209
3 204 202 215
3 202 216 215
3 216 202 217
3 202 191 217
3 191 219 217
3 204 215 218
3 204 218 200
3 219 191 150
3 203 200 211
3 211 200 218
3 182 203 211
3 220 182 211
3 205 135 172
3 220 183 182
3 220 185 183
3 220 212 185
3 212 221 207
3 213 209 207
3 206 209 213
3 214 206 213
3 206 214 199
3 214 223 199
3 199 223 210
3 223 163 210
3 222 163 223
3 218 215 211
3 226 220 211
3 226 227 220
3 212 220 227
3 228 143 128
3 227 221 212
3 207 221 213
3 214 230 223
3 213 230 214
3 216 224 215
3 215 224 225
3 224 216 217
3 211 215 225
3 231 232 226
3 232 227 226
3 228 138 143
3 227 229 221
3 229 213 221
3 229 230 213
3 223 230 233
3 233 222 223
3 224 217 219
3 234 219 150
3 211 225 231
3 226 211 231
3 229 227 232
3 230 229 235
3 235 233 230
3 225 224 236
3 236 237 225
3 150 205 234
3 237 231 225
3 237 239 231
3 239 232 231
3 239 240 232
3 240 229 232
3 222 128 163
3 229 240 235
3 219 236 224
3 238 237 236
3 238 239 237
3 238 241 239
3 228 172 138
3 240 239 241
3 241 242 240
3 228 128 222
3 242 235 240
3 235 242 233
3 236 219 243
3 219 234 243
3 236 243 244
3 244 238 236
3 247 242 241
3 247 250 242
3 242 250 233
3 250 222 233
3 243 245 244
3 243 246 245
3 243 234 246
3 234 205 246
3 245 251 244
3 251 238 244
3 205 172 246
3 251 241 238
3 246 172 249
3 249 172 228
3 248 247 251
3 247 241 251
3 248 249 250
3 228 222 249
3 247 248 250
3 250 249 222
3 245 246 251
3 246 249 251
3 249 248 251
