ply
format ascii 1.0
element vertex 254
property float x
property float y
property float z
element face 500
property list uchar int vertex_indices
end_header
-0.722412 -0.208721 -0.410457
-0.743645 -0.168798 -0.356979
-0.728114 -0.147829 -0.491609
-0.789428 -0.048932 -0.426843
-0.779502 0.007466 -0.484037
-0.718757 -0.089595 -0.297285
-0.775866 0.025472 -0.337635
-0.705109 0.053603 -0.290877
-0.770701 0.122108 -0.425222
-0.728715 0.169233 -0.358476
-0.656652 -0.205210 -0.364747
-0.732700 -0.035866 -0.530283
-0.731110 0.130521 -0.493522
-0.660585 0.224291 -0.433711
-0.631767 -0.225939 -0.474536
-0.563793 -0.189713 -0.555327
-0.667869 -0.145790 -0.538149
-0.584200 -0.035005 -0.593547
-0.606016 -0.058589 -0.290532
-0.673550 0.024808 -0.558301
-0.584659 0.070798 -0.300108
-0.647793 0.196934 -0.513185
-0.561455 0.161924 -0.568400
-0.646875 0.198242 -0.352719
-0.521411 0.233973 -0.491549
-0.476995 -0.208723 -0.423048
-0.505592 -0.144943 -0.352705
-0.488509 0.011524 -0.334389
-0.534453 0.210984 -0.406140
-0.493100 -0.237289 -0.506410
-0.425364 -0.100649 -0.637677
-0.397810 -0.118698 -0.069599
-0.416961 -0.110118 0.078068
-0.367463 -0.179944 0.605625
-0.403664 -0.119897 0.657362
-0.441634 -0.010988 -0.024579
-0.433975 -0.035618 0.585993
-0.448656 0.020760 0.640229
-0.407049 0.125993 0.072358
-0.422940 0.107072 -0.637042
-0.403746 0.112341 -0.053098
-0.420033 0.106781 0.584824
-0.402568 0.141935 0.649327
-0.393470 0.215366 -0.582535
-0.389262 -0.215044 -0.580779
-0.326901 -0.221424 -0.507721
-0.332593 -0.235589 0.084815
-0.293294 -0.138287 -0.444753
-0.364673 -0.213644 -0.008852
-0.343777 -0.202844 0.647251
-0.411314 -0.074340 -0.378114
-0.347816 -0.138165 0.180967
-0.287525 -0.152442 0.517353
-0.270989 -0.178130 0.697672
-0.360795 0.002840 -0.673550
-0.364573 0.009488 -0.137404
-0.352680 0.023336 0.496074
-0.360049 -0.001059 0.730135
-0.343082 0.047434 0.206580
-0.422321 0.037771 -0.367161
-0.289504 0.091503 -0.433130
-0.271645 0.175197 -0.099082
-0.252191 0.182613 0.518773
-0.427669 0.178965 -0.426870
-0.362340 0.207911 -0.022014
-0.351712 0.197393 0.144708
-0.341102 0.208411 0.606926
-0.338439 0.211556 0.662387
-0.321715 0.215711 -0.505308
-0.321868 0.242923 0.046322
-0.199545 -0.292940 0.103444
-0.285774 -0.188053 -0.637816
-0.259312 -0.196611 -0.110262
-0.227935 -0.225854 0.192112
-0.271534 -0.012022 -0.424653
-0.282016 0.196751 -0.641535
-0.299007 0.171195 0.711216
-0.257289 0.221296 0.169071
-0.232687 -0.279714 0.011595
-0.174146 -0.228049 -0.584315
-0.193577 -0.243184 0.600844
-0.248773 -0.076504 -0.684870
-0.270370 -0.076118 -0.175524
-0.222912 -0.086789 0.280414
-0.220380 -0.059192 0.460596
-0.254391 -0.002347 0.762751
-0.246515 0.020073 -0.192563
-0.266036 0.102788 -0.680730
-0.202112 0.061479 0.291806
-0.273290 0.081931 0.464105
-0.185046 0.243257 -0.582215
-0.208910 0.245406 0.598379
-0.256566 0.229271 0.666460
-0.075484 -0.294364 0.056163
-0.038603 -0.285761 0.181618
-0.110193 -0.237634 0.670406
-0.075384 -0.178379 -0.526041
-0.113604 -0.237706 -0.092342
0.035859 -0.203030 -0.657222
-0.049314 -0.188877 -0.090526
-0.102826 -0.176582 0.286672
-0.032407 -0.227897 0.506209
-0.132427 -0.167492 0.723246
0.044256 -0.119089 -0.725153
-0.117144 -0.035463 0.338562
-0.176072 -0.012090 0.763940
-0.106468 -0.033362 0.754638
0.014456 0.053879 -0.732826
-0.056226 -0.010235 -0.487703
-0.044700 0.107646 -0.147125
-0.109594 0.091514 0.326498
-0.069315 0.139238 0.453765
-0.141609 0.154481 0.729698
-0.007389 0.204712 -0.654947
-0.081637 0.173329 -0.523966
-0.042803 0.198817 -0.091255
-0.118595 0.206008 0.247666
-0.151252 0.276930 0.037100
-0.045317 0.300322 0.141681
-0.035400 -0.260144 0.586659
-0.026686 -0.191764 0.702153
-0.026463 -0.041219 0.413744
-0.046761 -0.021572 -0.149987
-0.024257 0.204415 0.707442
-0.012849 0.221116 0.509441
-0.114899 0.237118 0.664175
-0.072280 0.236144 -0.577595
-0.042372 0.245200 0.600500
0.100838 -0.279657 0.163350
0.046364 -0.169839 -0.561296
0.011011 -0.229820 0.307260
-0.030327 -0.093934 0.375216
0.026350 -0.205264 0.416990
0.061229 0.041805 -0.515597
-0.026801 0.063363 0.766074
-0.040970 0.037137 0.376872
0.017674 0.183423 0.434520
-0.008347 0.194964 0.335216
0.041807 0.211614 0.661241
0.044019 0.291627 0.117851
0.088126 -0.277975 0.291175
0.055968 -0.248379 0.545520
0.158557 -0.217273 -0.682453
0.062275 -0.179048 0.669316
0.019172 -0.169114 0.721593
0.115960 -0.166745 -0.724039
0.310832 -0.052197 0.172428
0.061028 -0.017986 0.737744
0.114750 0.000853 -0.759462
0.020806 -0.001616 0.767443
0.131830 0.065707 0.668459
0.027930 0.146843 0.730594
0.119936 0.174293 -0.720128
0.067676 0.189695 -0.581046
0.094627 0.198883 -0.001611
0.157192 0.215382 -0.670744
0.031119 0.294331 0.202502
0.057847 0.239282 0.554389
0.116628 0.261833 0.393214
0.169376 -0.254879 0.492863
0.206480 -0.211911 -0.602383
0.260127 -0.182992 0.173720
0.138088 -0.207650 0.594333
0.157949 -0.101338 0.643809
0.204637 -0.077131 -0.523236
0.185900 0.111926 -0.530764
0.309092 0.106895 0.177405
0.125138 0.208313 0.607586
0.245279 0.213317 -0.595342
0.277042 0.210269 0.250560
0.209176 -0.264745 0.325067
0.195506 -0.184328 -0.721391
0.297227 -0.211807 -0.668794
0.336758 -0.132628 -0.723454
0.289696 -0.069575 0.607425
0.210024 -0.039116 -0.762682
0.338004 -0.160884 -0.520526
0.186270 0.161919 -0.728340
0.273460 0.091234 -0.744180
0.300631 0.190912 -0.671417
0.260251 0.169536 0.579384
0.188793 0.276024 0.348819
0.207628 0.245532 0.513674
0.293631 -0.180315 0.277372
0.253325 -0.195405 0.519600
0.331146 -0.073076 0.553299
0.351411 0.025227 -0.734287
0.362843 0.024511 0.277185
0.275327 0.039952 0.622650
0.346971 0.140973 0.286646
0.328144 0.064391 0.564162
0.344945 0.193178 -0.532247
0.282839 0.215492 0.489030
0.475064 -0.219305 -0.549347
0.348086 -0.063229 -0.479167
0.361599 0.069934 -0.479791
0.465054 0.234553 -0.562800
0.537822 -0.196580 -0.629821
0.486344 -0.083582 -0.424453
0.565270 0.160452 -0.617913
0.500129 0.201550 -0.470470
0.625143 -0.201976 -0.389102
0.568629 -0.079101 -0.662185
0.504757 0.080370 -0.408603
0.700935 0.128850 -0.232019
0.627560 -0.239406 -0.538140
0.642766 -0.244424 -0.464938
0.714695 -0.155010 -0.247851
0.745665 0.003016 -0.568946
0.672355 -0.008568 -0.237830
0.635572 0.235044 -0.538653
0.632622 0.253600 -0.477691
0.736889 -0.178457 -0.538816
0.754637 -0.112554 0.090103
0.759298 -0.136487 0.048299
0.760247 -0.087863 -0.136330
0.745913 0.002154 0.043377
0.761551 0.100837 0.097756
0.749266 0.080401 -0.137472
0.745441 0.173681 -0.530354
0.761441 0.130836 0.049467
0.791801 -0.223003 -0.427939
0.802074 -0.239601 -0.270649
0.827189 -0.216268 -0.183442
0.795251 -0.155680 0.058923
0.810011 -0.135449 -0.022416
0.766604 -0.045233 0.138014
0.803946 0.117391 -0.021963
0.810397 0.168858 -0.110728
0.804868 0.152818 0.069504
0.743908 0.235445 -0.449924
0.834387 0.163204 -0.460283
0.801993 0.225802 -0.236927
0.809231 -0.122915 0.105601
0.816011 -0.145148 -0.491683
0.884629 -0.139281 -0.392435
0.889917 -0.162201 -0.055148
0.890876 -0.095875 0.033721
0.864188 -0.049729 0.114965
0.869136 -0.038862 -0.480461
0.837262 0.066366 -0.511260
0.891707 0.057784 -0.445239
0.813415 0.033714 0.140179
0.858881 0.080337 0.103886
0.890745 0.114381 0.023773
0.804294 0.141783 0.108135
0.888066 0.167380 -0.080195
0.870937 -0.222130 -0.234500
0.953264 -0.116583 -0.251819
0.945662 -0.103891 -0.073288
0.968567 -0.007896 -0.251295
0.938454 0.134663 -0.250805
0.950758 0.058730 -0.050267
0.872171 0.219125 -0.252248
3 0 2 3
3 0 3 1
3 4 2 11
3 2 4 3
3 1 3 6
3 1 6 5
3 5 6 7
3 12 4 11
3 3 4 8
3 3 8 6
3 6 8 9
3 6 9 7
3 12 8 4
3 12 13 8
3 13 9 8
3 0 10 14
3 0 14 2
3 1 10 0
3 14 16 2
3 10 1 5
3 16 11 2
3 16 19 11
3 18 5 7
3 19 12 11
3 19 21 12
3 23 7 9
3 12 21 13
3 13 23 9
3 25 14 10
3 15 16 14
3 15 17 16
3 18 10 5
3 16 17 19
3 18 7 20
3 22 19 17
3 19 22 21
3 20 7 23
3 24 21 22
3 21 24 13
3 24 28 13
3 23 13 28
3 29 14 25
3 29 15 14
3 10 18 26
3 10 26 25
3 30 17 15
3 18 27 26
3 20 27 18
3 39 22 17
3 27 20 28
3 39 43 22
3 20 23 28
3 22 43 24
3 44 15 29
3 44 30 15
3 25 26 50
3 50 26 27
3 31 35 32
3 33 36 34
3 34 36 37
3 59 50 27
3 32 35 38
3 30 39 17
3 35 40 38
3 36 41 37
3 37 41 42
3 59 27 63
3 63 27 28
3 28 24 63
3 29 25 45
3 29 45 44
3 45 25 47
3 48 32 46
3 46 32 51
3 25 50 47
3 31 48 72
3 48 31 32
3 49 33 34
3 49 34 53
3 47 50 74
3 31 55 35
3 52 56 36
3 33 52 36
3 57 53 34
3 37 57 34
3 58 51 32
3 38 58 32
3 74 50 60
3 60 50 59
3 30 54 39
3 55 61 40
3 35 55 40
3 56 62 41
3 36 56 41
3 42 57 37
3 59 63 60
3 68 60 63
3 64 40 61
3 40 64 38
3 38 65 58
3 66 41 62
3 41 66 42
3 42 66 67
3 69 38 64
3 38 69 65
3 68 24 43
3 68 63 24
3 46 70 78
3 71 44 79
3 79 44 45
3 72 48 78
3 78 48 46
3 46 73 70
3 52 33 80
3 80 49 53
3 33 49 80
3 51 73 46
3 30 71 81
3 44 71 30
3 31 72 82
3 73 51 83
3 81 54 30
3 82 55 31
3 84 56 52
3 85 53 57
3 82 86 55
3 83 51 58
3 81 87 54
3 83 58 88
3 84 89 56
3 87 39 54
3 86 61 55
3 89 62 56
3 85 57 76
3 76 57 42
3 77 88 58
3 75 39 87
3 39 75 43
3 67 76 42
3 77 58 65
3 67 92 76
3 75 90 43
3 43 90 68
3 61 69 64
3 77 65 69
3 62 91 66
3 66 92 67
3 91 92 66
3 45 96 79
3 78 97 72
3 95 80 53
3 72 97 99
3 53 102 95
3 98 81 71
3 99 82 72
3 101 84 52
3 98 103 81
3 102 53 85
3 102 85 105
3 103 107 81
3 107 87 81
3 108 74 60
3 111 89 84
3 105 85 112
3 112 85 76
3 109 61 86
3 109 115 61
3 88 77 116
3 75 113 90
3 60 68 114
3 111 62 89
3 76 92 112
3 90 114 68
3 69 61 117
3 61 115 117
3 69 117 77
3 93 78 70
3 93 97 78
3 93 70 94
3 98 71 79
3 94 70 73
3 73 100 94
3 101 52 80
3 80 95 119
3 96 45 47
3 83 100 73
3 100 83 104
3 96 47 108
3 101 121 84
3 99 122 82
3 102 105 106
3 108 47 74
3 122 86 82
3 122 109 86
3 88 104 83
3 110 104 88
3 121 111 84
3 106 105 112
3 113 75 87
3 116 110 88
3 124 62 111
3 125 112 92
3 113 126 90
3 126 114 90
3 92 91 125
3 125 91 127
3 77 118 116
3 77 117 118
3 97 93 99
3 79 96 129
3 119 101 80
3 95 120 119
3 100 131 130
3 95 102 120
3 131 100 104
3 102 106 120
3 120 106 134
3 131 104 135
3 135 104 110
3 106 112 134
3 108 60 114
3 135 110 137
3 112 123 134
3 116 137 110
3 125 123 112
3 124 127 62
3 127 91 62
3 125 127 123
3 93 94 128
3 93 128 99
3 128 94 140
3 94 130 140
3 100 130 94
3 101 119 141
3 141 119 120
3 79 129 98
3 141 132 101
3 141 120 143
3 143 120 144
3 108 129 96
3 130 131 132
3 132 131 121
3 101 132 121
3 99 146 122
3 144 120 149
3 133 129 108
3 149 120 134
3 135 121 131
3 136 121 135
3 121 136 111
3 114 133 108
3 113 87 107
3 153 133 114
3 135 137 136
3 149 134 151
3 151 134 123
3 109 154 115
3 126 113 153
3 153 114 126
3 136 124 111
3 123 138 151
3 116 118 156
3 156 137 116
3 124 157 127
3 138 127 157
3 138 123 127
3 115 139 117
3 118 139 156
3 139 118 117
3 140 130 132
3 141 140 132
3 142 145 98
3 142 98 160
3 160 98 129
3 99 128 161
3 162 141 143
3 145 103 98
3 99 161 146
3 163 162 143
3 160 129 164
3 144 147 143
3 145 148 103
3 144 149 147
3 103 148 107
3 150 163 143
3 143 147 150
3 147 151 150
3 147 149 151
3 152 107 148
3 107 152 113
3 165 133 153
3 138 167 150
3 150 151 138
3 109 166 154
3 113 152 155
3 155 153 113
3 167 138 157
3 154 139 115
3 137 156 158
3 137 158 136
3 136 158 157
3 136 157 124
3 128 140 170
3 159 140 141
3 159 170 140
3 141 162 159
3 171 145 142
3 174 162 163
3 171 175 145
3 175 148 145
3 164 129 133
3 164 133 165
3 175 177 148
3 166 109 122
3 177 152 148
3 165 153 168
3 152 177 155
3 153 155 168
3 166 169 154
3 154 169 139
3 157 182 167
3 182 180 167
3 181 139 169
3 181 156 139
3 156 181 158
3 158 182 157
3 158 181 182
3 128 170 183
3 170 159 184
3 183 170 184
3 159 162 184
3 171 172 173
3 171 142 172
3 172 142 160
3 128 183 161
3 184 162 174
3 175 171 173
3 164 176 160
3 186 175 173
3 174 163 188
3 188 163 150
3 186 178 175
3 166 122 146
3 177 175 178
3 188 150 180
3 178 179 177
3 180 150 167
3 177 179 155
3 155 179 168
3 169 192 181
3 181 192 182
3 192 180 182
3 172 160 193
3 193 160 176
3 184 185 183
3 184 174 185
3 161 183 146
3 183 187 146
3 183 185 187
3 194 176 164
3 185 174 190
3 194 164 195
3 195 164 165
3 190 174 188
3 146 187 166
3 187 189 166
3 187 190 189
3 186 179 178
3 165 168 191
3 191 195 165
3 188 180 190
3 190 192 189
3 190 180 192
3 169 166 189
3 189 192 169
3 197 173 172
3 176 194 198
3 185 190 187
3 198 194 195
3 199 179 186
3 200 195 191
3 179 199 196
3 168 179 196
3 196 191 168
3 196 200 191
3 197 172 193
3 176 198 193
3 202 173 197
3 202 186 173
3 203 198 195
3 203 195 200
3 205 197 193
3 193 206 205
3 193 198 201
3 193 201 206
3 201 198 207
3 207 198 209
3 198 203 209
3 209 203 204
3 202 199 186
3 200 204 203
3 196 199 210
3 196 210 211
3 196 211 200
3 197 212 202
3 199 202 208
3 205 206 221
3 201 222 206
3 222 221 206
3 205 212 197
3 205 221 212
3 201 207 222
3 208 202 212
3 207 209 215
3 214 216 213
3 213 216 217
3 213 217 226
3 215 209 218
3 199 208 219
3 218 209 204
3 216 220 217
3 199 219 210
3 219 230 210
3 200 232 204
3 230 211 210
3 200 211 232
3 234 212 221
3 222 207 223
3 223 207 215
3 223 215 225
3 224 213 233
3 214 224 225
3 214 213 224
3 233 213 226
3 234 208 212
3 214 225 216
3 234 240 208
3 227 225 215
3 225 227 216
3 233 226 242
3 218 227 215
3 242 226 217
3 240 219 208
3 216 227 220
3 240 231 219
3 204 228 218
3 227 218 228
3 227 229 220
3 242 217 245
3 217 220 229
3 230 219 231
3 228 204 232
3 229 245 217
3 211 230 232
3 221 222 247
3 222 223 247
3 221 235 234
3 221 247 235
3 236 223 225
3 236 247 223
3 224 237 225
3 225 237 236
3 224 233 237
3 233 238 237
3 234 235 239
3 240 234 239
3 235 241 239
3 233 242 238
3 239 241 240
3 243 237 238
3 238 242 243
3 237 243 244
3 241 231 240
3 229 227 244
3 242 245 243
3 228 246 227
3 227 246 244
3 244 243 229
3 243 245 229
3 231 253 230
3 228 232 246
3 253 232 230
3 246 232 253
3 235 247 248
3 247 249 248
3 236 249 247
3 236 237 249
3 248 250 235
3 241 235 250
3 237 252 249
3 250 251 241
3 237 244 252
3 252 244 246
3 241 251 231
3 252 246 251
3 253 231 251
3 253 251 246
3 248 249 250
3 249 252 250
3 250 252 251
