ply
format ascii 1.0
element vertex 250
property float x
property float y
property float z
element face 500
property list uchar int vertex_indices
end_header
-0.345204 -0.045348 -0.803921
-0.338535 -0.040749 -0.507696
-0.325937 -0.072620 -0.028702
-0.357853 -0.035928 0.414701
-0.325109 0.071612 -0.533319
-0.346783 0.019994 -0.036647
-0.354599 0.050996 0.433415
-0.337416 0.076521 -0.818506
-0.325666 0.094337 -0.037601
-0.272608 -0.204540 -0.810485
-0.262403 -0.206706 -0.539113
-0.264180 -0.229337 0.052461
-0.269723 -0.214795 0.428173
-0.319273 -0.147640 -0.807677
-0.318064 -0.112466 -0.519602
-0.267541 -0.199593 -0.037694
-0.300719 -0.183027 0.048979
-0.328047 -0.126423 0.426951
-0.300132 -0.144913 0.505831
-0.286460 -0.116655 -0.909147
-0.306352 -0.015627 -0.434709
-0.272943 -0.112365 -0.137500
-0.340319 -0.038445 0.496534
-0.304157 -0.003180 -0.917484
-0.302526 0.021187 -0.143195
-0.326471 0.081310 0.506330
-0.275463 0.112222 -0.908329
-0.279997 0.113394 -0.432367
-0.323473 0.141265 0.408372
-0.281277 0.196106 -0.810730
-0.311347 0.181523 -0.661462
-0.325074 0.142111 0.032041
-0.265523 0.201011 -0.504231
-0.278199 0.183794 0.502891
-0.255891 0.241781 -0.723465
-0.259383 0.236912 -0.573611
-0.268915 0.205818 0.068719
-0.247568 0.231682 0.437117
-0.212190 -0.213028 -0.880664
-0.189489 -0.281886 -0.580912
-0.216664 -0.234158 -0.445976
-0.193311 -0.262622 0.022476
-0.188518 -0.272110 0.444292
-0.201189 -0.238806 -0.127585
-0.211480 -0.228895 0.568967
-0.261733 -0.152619 -0.402465
-0.192774 -0.187225 0.657779
-0.282981 -0.043308 0.597692
-0.255217 -0.043155 0.663201
-0.204205 -0.071458 -0.972956
-0.279563 -0.018445 -0.334916
-0.280624 -0.036887 -0.172463
-0.200713 0.044646 -0.965433
-0.238686 0.066957 0.671171
-0.275484 0.129393 -0.140651
-0.258930 0.139598 0.590916
-0.218096 0.218994 -0.389725
-0.208693 0.208820 -0.891134
-0.225899 0.214671 -0.083431
-0.189539 0.189709 0.656651
-0.208956 0.235664 0.541697
-0.169162 0.265575 -0.830981
-0.165963 0.279341 -0.475561
-0.176245 0.266411 0.035218
-0.195085 0.266105 0.353184
-0.149963 0.270804 0.479348
-0.174419 -0.294410 -0.734134
-0.133470 -0.300463 -0.470705
-0.127499 -0.274196 0.598059
-0.183351 -0.145559 -0.952619
-0.120562 -0.201603 0.713046
-0.180821 -0.037818 0.750382
-0.128092 0.120663 0.758016
-0.169922 0.160824 -0.934850
-0.102094 0.215978 0.710760
-0.109779 0.311441 -0.742793
-0.188328 0.287878 -0.607628
-0.133573 0.275132 -0.072285
-0.121647 0.266334 0.597944
-0.107903 -0.308791 -0.764973
-0.119471 -0.322388 -0.627280
-0.095303 -0.288630 -0.187597
-0.118744 -0.260874 -0.038427
-0.131814 -0.260192 0.049557
-0.114591 -0.267660 0.442176
-0.123057 -0.239469 -0.884478
-0.040266 -0.212206 0.458411
-0.050218 -0.275396 0.657829
-0.035571 -0.178904 0.021286
-0.048961 -0.170517 0.352857
-0.090949 -0.076579 0.783827
0.135272 -0.009702 -1.004314
-0.101896 0.024401 0.796540
0.100327 0.094450 -0.966732
-0.108528 0.241518 -0.887129
-0.114333 0.265650 0.030439
-0.029930 0.178515 0.412251
-0.079322 0.294582 -0.203008
-0.124727 0.261906 0.388237
-0.015958 0.241180 0.499162
0.010575 0.256967 0.660482
-0.106750 0.321654 -0.610766
-0.043483 -0.321476 -0.706890
-0.078187 -0.317356 -0.467302
-0.039120 -0.292346 -0.202007
-0.019185 -0.294504 -0.803245
0.025581 -0.290147 -0.768297
0.054341 -0.266887 -0.218408
-0.021419 -0.270757 -0.130618
-0.025511 -0.276354 0.576437
0.028375 -0.202393 -0.033937
0.025935 -0.226217 -0.890081
0.045281 -0.190640 0.493638
-0.007104 -0.211983 0.728785
0.107253 -0.110820 -0.958394
-0.001381 -0.065939 0.055477
0.027364 -0.027286 0.435789
-0.006695 -0.011846 0.338666
0.002899 0.051441 0.051725
-0.014663 0.090430 0.349344
-0.032638 0.191821 0.038186
0.037322 0.190981 -0.927642
-0.003437 0.199087 0.742658
-0.031784 0.269514 -0.106753
-0.039282 0.297783 -0.811158
-0.042428 0.278868 0.571243
-0.037158 0.321030 -0.721029
0.049203 0.276096 -0.801209
0.037637 0.274713 -0.217933
-0.071396 0.317949 -0.484870
-0.045319 0.298587 -0.218035
0.059223 -0.255732 -0.834302
0.062499 -0.247276 -0.102845
0.036719 -0.264889 0.663314
0.116077 -0.187450 -0.892710
0.105461 -0.223391 -0.777668
0.148292 -0.205736 -0.184341
0.113857 -0.221740 -0.035273
0.108273 -0.157403 0.033756
0.139197 -0.138201 0.117744
0.024827 -0.050212 0.011688
0.108110 -0.041503 0.097670
0.075423 0.044562 0.035917
0.036345 0.159885 -0.018228
0.147952 0.141400 0.105624
0.057566 0.136550 0.476600
0.107768 0.168017 0.026923
0.083871 0.212518 -0.887215
0.113629 0.219901 -0.798976
0.119517 0.224974 -0.180900
0.061601 0.250852 -0.121708
0.111659 0.222307 -0.040427
0.127384 -0.266704 0.596094
0.136962 -0.239318 -0.083819
0.194528 -0.227966 0.025151
0.204036 -0.214970 0.110223
0.145945 -0.230928 0.520660
0.097022 -0.203822 0.722111
0.186251 -0.217676 0.677797
0.169934 -0.138640 -0.208538
0.153159 -0.117980 -0.907197
0.160429 -0.115149 -0.284077
0.193951 -0.172733 0.182744
0.118857 -0.137687 0.471312
0.178089 -0.146106 0.430988
0.116158 -0.114372 0.761882
0.156724 -0.039196 0.203987
0.206926 -0.145517 0.302326
0.178918 -0.056560 0.330193
0.207804 -0.060918 0.763776
0.156990 -0.007674 -0.985330
0.174598 -0.036322 -0.883485
0.128365 0.018765 0.431479
0.171890 0.039169 -0.272405
0.115348 -0.000239 0.784352
0.173085 0.038259 -0.877986
0.174432 0.055321 0.299523
0.204396 0.098422 0.752387
0.170049 0.114111 0.187063
0.087088 0.109659 0.775182
0.146410 0.126345 -0.901134
0.169008 0.146912 -0.196189
0.180402 0.159197 0.427974
0.126629 0.139021 0.474839
0.150979 0.154511 -0.269835
0.193469 0.223264 0.039661
0.161627 0.227430 0.512555
0.115618 0.181044 0.730422
0.150547 0.236326 -0.079185
0.183257 0.212938 -0.109540
0.245280 0.234294 0.158322
0.174818 0.232303 0.652021
0.113841 0.262820 0.581861
0.221921 -0.265001 0.580236
0.244340 -0.238895 0.455913
0.256473 -0.210150 -0.007973
0.270034 -0.229202 0.202251
0.350112 -0.254768 0.654461
0.300229 -0.118211 -0.046278
0.212770 -0.017757 -0.181420
0.341861 -0.053877 0.784055
0.279204 0.123188 0.747591
0.208705 0.190362 0.212132
0.258519 0.210005 0.002825
0.274463 0.249165 0.390433
0.219562 0.259374 0.590820
0.327981 0.270908 0.473880
0.290702 -0.226949 0.106866
0.349814 -0.234492 0.235593
0.331697 -0.167916 0.035446
0.277524 -0.180640 0.714337
0.370194 -0.055265 0.027693
0.342119 0.032501 0.785127
0.296308 0.129067 -0.043052
0.350508 0.123234 0.037698
0.262305 0.210374 0.681792
0.289879 0.227081 0.097012
0.344258 0.275445 0.596625
0.353771 -0.277138 0.555782
0.430021 -0.228510 0.381043
0.413981 -0.261785 0.596225
0.382032 -0.159507 0.125791
0.427843 -0.181938 0.236147
0.363226 -0.183298 0.731424
0.341018 0.015463 -0.024911
0.414650 0.102564 0.123761
0.375773 0.196760 0.723367
0.365734 0.183446 0.123916
0.430329 0.162694 0.220689
0.354272 0.239417 0.256006
0.341591 0.252734 0.655996
0.424609 0.228160 0.368123
0.408600 0.241946 0.642357
0.423970 -0.246943 0.669732
0.430193 -0.191972 0.727666
0.492299 -0.157177 0.709003
0.489294 -0.134522 0.366348
0.459595 -0.093128 0.206519
0.418981 -0.011289 0.108489
0.424534 -0.047511 0.792781
0.509330 -0.038061 0.274667
0.471865 0.039005 0.205605
0.498949 0.068550 0.775737
0.445664 0.197356 0.734577
0.485856 0.144957 0.383256
0.499997 0.151069 0.730251
0.514794 -0.064284 0.775524
0.521924 -0.000903 0.341622
0.537011 -0.037718 0.742820
0.532616 0.077409 0.733972
3 1 0 4
3 2 5 3
3 3 5 6
3 22 6 25
3 3 6 22
3 0 7 4
3 5 8 6
3 9 13 10
3 10 13 14
3 15 16 11
3 11 16 12
3 12 16 17
3 12 17 18
3 19 13 9
3 2 15 21
3 15 2 16
3 13 19 0
3 13 0 14
3 45 14 20
3 16 2 17
3 1 14 0
3 1 20 14
3 3 17 2
3 3 22 17
3 17 22 18
3 18 22 47
3 19 23 0
3 24 21 51
3 21 24 2
3 4 20 1
3 2 24 5
3 22 25 47
3 23 26 7
3 0 23 7
3 50 20 27
3 5 24 8
3 20 4 27
3 54 8 24
3 6 8 28
3 6 28 25
3 47 25 55
3 7 26 29
3 7 29 30
3 7 30 4
3 8 31 28
3 4 30 32
3 4 32 27
3 25 28 33
3 25 33 55
3 30 29 34
3 30 34 35
3 32 30 35
3 36 8 58
3 36 31 8
3 31 36 28
3 28 36 37
3 33 28 37
3 38 9 66
3 9 39 66
3 10 39 9
3 39 10 40
3 43 15 41
3 41 15 11
3 42 41 11
3 12 42 11
3 12 44 42
3 19 38 69
3 38 19 9
3 10 14 45
3 10 45 40
3 21 15 43
3 18 44 12
3 40 45 43
3 43 45 21
3 47 44 18
3 69 49 19
3 44 47 46
3 46 47 48
3 46 48 71
3 50 45 20
3 45 50 21
3 21 50 51
3 49 52 23
3 19 49 23
3 48 47 53
3 48 53 71
3 23 52 26
3 50 27 24
3 50 24 51
3 47 55 53
3 71 53 72
3 52 73 26
3 27 56 24
3 24 56 54
3 26 73 57
3 32 56 27
3 53 55 59
3 53 59 72
3 26 57 29
3 56 58 54
3 58 8 54
3 55 33 60
3 59 55 60
3 57 61 29
3 34 29 61
3 32 35 62
3 56 32 62
3 63 36 58
3 64 36 63
3 37 36 64
3 65 37 64
3 37 65 60
3 37 60 33
3 61 75 34
3 34 76 35
3 75 76 34
3 76 62 35
3 79 66 80
3 66 39 80
3 39 67 80
3 38 79 85
3 66 79 38
3 40 67 39
3 81 43 82
3 67 43 81
3 43 41 82
3 41 83 82
3 83 41 84
3 41 42 84
3 42 68 84
3 43 67 40
3 44 68 42
3 68 44 46
3 68 46 70
3 85 69 38
3 71 70 46
3 70 71 90
3 91 52 49
3 90 71 92
3 71 72 92
3 93 73 52
3 59 74 72
3 94 57 73
3 61 57 94
3 77 58 56
3 63 58 77
3 60 78 59
3 59 78 74
3 56 97 77
3 62 97 56
3 77 95 63
3 95 98 63
3 63 98 64
3 64 98 65
3 65 78 60
3 75 101 76
3 101 62 76
3 79 102 105
3 79 80 102
3 102 80 103
3 80 67 103
3 67 81 103
3 103 81 104
3 104 81 108
3 79 105 85
3 108 81 82
3 86 84 109
3 84 68 109
3 87 109 68
3 108 82 110
3 110 82 88
3 88 82 83
3 83 89 88
3 83 84 89
3 84 86 89
3 68 70 87
3 70 113 87
3 111 69 85
3 114 49 69
3 113 70 90
3 122 72 74
3 121 94 73
3 123 120 95
3 120 96 95
3 123 95 77
3 95 96 98
3 96 99 98
3 100 74 78
3 100 122 74
3 124 61 94
3 77 97 123
3 65 98 99
3 99 125 65
3 125 78 65
3 78 125 100
3 124 75 61
3 126 75 124
3 75 126 101
3 126 129 101
3 101 129 62
3 129 130 62
3 62 130 97
3 97 130 123
3 102 106 105
3 107 106 102
3 103 107 102
3 104 107 103
3 104 108 107
3 105 106 131
3 107 108 132
3 109 87 133
3 111 85 105
3 131 111 105
3 110 132 108
3 112 86 109
3 133 87 113
3 114 69 111
3 88 89 115
3 86 116 89
3 86 112 116
3 140 110 88
3 115 140 88
3 89 117 115
3 89 116 117
3 118 140 115
3 115 117 118
3 143 140 118
3 117 119 118
3 117 116 119
3 116 96 119
3 116 145 96
3 120 143 118
3 118 119 120
3 93 121 73
3 119 96 120
3 150 143 123
3 143 120 123
3 96 145 99
3 147 94 121
3 147 124 94
3 127 124 147
3 123 128 150
3 127 126 124
3 128 126 127
3 129 126 128
3 130 129 128
3 128 123 130
3 152 109 133
3 131 134 111
3 131 135 134
3 131 106 135
3 106 107 135
3 107 136 135
3 107 132 153
3 136 107 153
3 132 137 153
3 152 156 109
3 156 112 109
3 133 113 157
3 134 114 111
3 137 132 110
3 110 138 137
3 156 163 112
3 157 113 165
3 140 138 110
3 139 138 141
3 163 116 112
3 165 113 90
3 49 114 91
3 142 138 140
3 138 142 141
3 139 141 166
3 163 172 116
3 165 90 174
3 174 90 92
3 166 141 144
3 93 52 91
3 143 142 140
3 141 142 144
3 172 145 116
3 174 92 179
3 172 183 145
3 179 92 72
3 146 142 143
3 142 146 144
3 183 186 145
3 179 72 122
3 147 121 93
3 143 150 151
3 151 146 143
3 186 99 145
3 179 122 187
3 147 148 127
3 148 128 127
3 148 149 128
3 149 188 150
3 150 188 151
3 186 192 99
3 192 125 99
3 192 191 100
3 191 187 100
3 187 122 100
3 150 128 149
3 100 125 192
3 154 153 137
3 193 156 152
3 133 158 152
3 152 158 193
3 133 157 158
3 138 154 137
3 154 138 155
3 155 138 139
3 155 139 162
3 160 114 134
3 134 135 160
3 135 161 160
3 135 136 161
3 136 159 161
3 164 163 156
3 165 158 157
3 166 162 139
3 162 166 167
3 169 158 165
3 114 170 91
3 114 160 170
3 160 171 170
3 160 161 171
3 199 161 159
3 167 166 168
3 163 164 172
3 161 173 171
3 161 199 173
3 164 168 172
3 165 174 169
3 171 175 170
3 171 173 175
3 168 166 176
3 168 176 172
3 169 174 177
3 93 91 170
3 178 166 144
3 166 178 176
3 174 179 177
3 93 170 180
3 170 175 180
3 199 181 173
3 176 182 172
3 175 184 180
3 175 173 184
3 173 181 184
3 172 182 183
3 144 146 185
3 144 202 178
3 183 182 186
3 187 191 177
3 177 179 187
3 180 147 93
3 148 147 180
3 184 148 180
3 149 148 184
3 184 181 149
3 181 189 149
3 151 185 146
3 144 185 190
3 144 190 202
3 188 149 189
3 151 188 185
3 186 205 192
3 191 192 205
3 153 195 136
3 153 154 195
3 195 154 207
3 154 155 207
3 196 207 155
3 194 156 193
3 197 193 158
3 136 195 198
3 162 196 155
3 196 162 167
3 196 167 194
3 194 167 164
3 156 194 164
3 158 210 197
3 159 136 198
3 167 168 164
3 200 210 169
3 169 210 158
3 200 169 212
3 169 177 212
3 177 201 212
3 176 178 202
3 182 176 202
3 181 213 189
3 201 177 215
3 215 177 191
3 189 213 203
3 202 204 182
3 182 204 186
3 203 188 189
3 203 185 188
3 203 216 185
3 185 216 190
3 202 190 204
3 204 206 186
3 186 206 205
3 215 191 205
3 206 217 205
3 194 218 208
3 194 193 218
3 193 197 218
3 207 196 208
3 194 208 196
3 195 209 198
3 221 209 207
3 207 209 195
3 207 208 221
3 210 223 197
3 209 211 198
3 209 221 211
3 200 223 210
3 199 159 198
3 198 224 199
3 199 213 181
3 199 224 213
3 212 201 226
3 213 214 203
3 227 216 214
3 214 216 203
3 227 229 216
3 226 201 215
3 229 190 216
3 229 204 190
3 215 205 230
3 226 215 230
3 229 206 204
3 230 205 217
3 218 219 208
3 220 219 218
3 218 197 220
3 208 219 222
3 220 197 233
3 197 234 233
3 223 234 197
3 208 222 221
3 222 237 221
3 234 223 239
3 239 223 200
3 211 221 238
3 221 237 238
3 198 211 224
3 239 200 212
3 211 214 224
3 238 225 214
3 211 238 214
3 239 212 242
3 214 213 224
3 242 212 226
3 227 214 225
3 242 226 243
3 225 228 227
3 228 229 227
3 228 231 229
3 232 226 230
3 243 226 232
3 231 206 229
3 232 206 231
3 217 206 232
3 232 230 217
3 235 220 233
3 233 234 235
3 219 236 222
3 219 220 236
3 220 235 236
3 236 237 222
3 235 234 246
3 246 234 239
3 237 236 240
3 237 241 238
3 237 240 241
3 246 239 242
3 238 241 225
3 225 241 228
3 241 244 228
3 245 242 243
3 228 244 231
3 245 232 244
3 243 232 245
3 232 231 244
3 240 236 247
3 236 248 247
3 236 235 248
3 235 246 248
3 248 249 247
3 248 242 249
3 246 242 248
3 241 240 247
3 244 241 247
3 247 249 244
3 249 245 244
3 249 242 245
