ply
format ascii 1.0
element vertex 252
property float x
property float y
property float z
element face 500
property list uchar int vertex_indices
end_header
-0.497288 -0.153237 -0.965751
-0.494440 -0.139436 -0.607589
-0.538130 -0.061967 -0.969328
-0.503567 -0.079568 -1.036975
-0.511710 -0.012967 -0.598608
-0.496277 0.061794 -1.045804
-0.537763 0.061098 -0.948454
-0.462759 0.150254 -0.592902
-0.491802 0.152978 -0.960640
-0.434457 -0.214756 -0.980281
-0.417152 -0.252973 -0.896195
-0.479899 -0.203441 -0.658991
-0.403054 -0.228691 -0.570527
-0.393375 -0.144750 -0.468775
-0.442716 -0.060787 -0.479429
-0.447561 0.037935 -0.483837
-0.434908 0.214166 -0.976411
-0.434905 0.244861 -0.681703
-0.391480 0.246705 -0.570591
-0.349881 -0.298298 -0.800638
-0.348128 -0.291978 -0.645691
-0.423505 -0.257484 -0.669586
-0.328296 -0.192902 -0.443368
-0.421972 -0.136384 -1.039450
-0.445343 -0.004560 -1.079961
-0.323524 0.017276 -0.344953
-0.322089 0.005219 0.669994
-0.422486 0.082330 -1.080200
-0.440992 0.137453 -1.045462
-0.343256 0.200916 -0.447184
-0.408524 0.258183 -0.905699
-0.356321 0.297278 -0.802305
-0.361002 0.288460 -0.640669
-0.353592 -0.288507 -0.886076
-0.237356 -0.297629 -0.531906
-0.355140 -0.245146 -0.962088
-0.257409 -0.144971 0.657770
-0.318039 -0.075536 0.665316
-0.197842 -0.142768 -1.032347
-0.298986 -0.077460 -0.330488
-0.201471 -0.020658 -1.075792
-0.279878 0.144321 -0.333253
-0.309795 0.095300 0.661704
-0.210810 0.142477 -1.033114
-0.251672 0.155772 0.646037
-0.361600 0.240819 -0.968377
-0.343417 0.286321 -0.896557
-0.240269 0.295885 -0.526932
-0.289940 -0.288282 -0.859782
-0.252259 -0.300514 -0.670535
-0.246998 -0.244314 -0.955276
-0.201184 -0.243445 -0.889238
-0.189278 -0.263863 -0.736369
-0.226472 -0.245638 -0.398667
-0.199572 -0.196404 0.575588
-0.264038 -0.162355 -0.340859
-0.171040 -0.218511 -0.261522
-0.195793 -0.175021 0.510377
-0.202508 -0.132505 -0.204278
-0.299137 -0.060099 0.595340
-0.238828 -0.050818 0.491779
-0.253168 -0.056396 0.696423
-0.228227 0.022580 -0.203952
-0.263918 0.054781 0.693127
-0.250714 0.080639 0.504207
-0.277306 0.129639 0.589462
-0.200030 0.136993 -0.192461
-0.181198 0.177703 0.529242
-0.185986 0.212069 -0.255787
-0.257415 0.252902 -0.949328
-0.205880 0.246267 -0.350107
-0.200351 0.209097 0.589440
-0.285055 0.291552 -0.846487
-0.197729 0.241254 -0.899223
-0.187383 0.258045 -0.745580
-0.255997 0.296996 -0.671708
-0.119724 -0.283850 -0.515502
-0.133749 -0.252198 -0.659409
-0.192748 -0.210870 -0.974885
-0.135727 -0.284338 -0.369940
-0.035912 -0.280930 -0.189685
-0.087619 -0.234526 0.577136
-0.111130 -0.178223 -0.757969
-0.139052 -0.180830 -0.129271
-0.130087 -0.140347 -0.981296
-0.090329 -0.188221 -0.046283
-0.141542 -0.081655 -0.046131
-0.168832 -0.118298 0.478292
-0.158990 -0.158679 0.687329
-0.180716 -0.071854 -0.108296
-0.200375 -0.019044 0.461485
-0.180445 0.050095 -0.103371
-0.129986 0.087360 -0.029530
-0.197724 0.064262 0.471286
-0.149304 0.167110 -0.117150
-0.120028 0.164258 0.681630
-0.186835 0.208523 -0.979760
-0.109784 0.179378 -0.755101
-0.106763 0.194802 -0.076279
-0.122051 0.244184 -0.658506
-0.053788 0.276539 -0.189310
-0.092652 0.231341 0.583218
-0.121165 0.282434 -0.533147
-0.010203 -0.219908 -0.561888
0.008747 -0.274879 -0.081171
-0.134314 -0.210636 0.526810
-0.113909 -0.211144 0.642896
-0.043853 -0.184858 0.030203
-0.066387 -0.111658 -0.717815
-0.115775 -0.053942 -1.037580
-0.091631 -0.074623 -0.965466
-0.084106 -0.024159 -0.806835
-0.068374 -0.030989 -0.747985
-0.089479 0.012277 -0.980757
-0.120068 0.044061 -1.043585
-0.064388 0.038263 -0.749456
0.655289 0.027475 0.716540
-0.088555 0.078184 -0.811491
-0.131181 0.133680 -0.972609
-0.068598 0.118190 -0.733044
0.042416 0.105704 0.453441
-0.118306 0.209417 0.642613
-0.016158 0.276486 -0.100390
-0.029708 0.235089 -0.560262
-0.108084 0.288422 -0.382231
-0.027315 -0.276571 -0.326622
0.034249 -0.270177 -0.209091
0.009014 -0.226574 0.034461
0.533947 -0.252534 0.593389
0.005026 -0.183851 -0.577640
0.025159 -0.212383 -0.487394
0.020600 -0.217085 0.520376
0.021017 -0.190834 0.104634
0.061581 -0.166952 0.255418
-0.029968 -0.047030 0.144912
0.025172 -0.084618 0.285445
0.046009 -0.016913 0.445433
0.571879 -0.121774 0.702929
0.004887 0.005119 0.253714
0.055095 -0.009929 0.430292
0.672881 -0.034053 0.707553
-0.026165 0.069894 0.145983
0.025922 0.086652 0.272017
0.576198 0.085435 0.720846
0.078474 0.178499 0.267793
0.003275 0.184554 -0.570590
0.002224 0.181044 0.099723
0.043038 0.207013 0.509423
-0.027224 0.253226 -0.479739
0.053624 0.204488 -0.375776
-0.028539 0.282092 -0.314587
0.029785 0.275029 -0.208792
0.135700 0.248789 0.543237
0.043457 -0.283948 -0.123304
0.058969 -0.218198 -0.349744
0.108145 -0.268892 0.053556
0.136731 -0.258939 0.171378
0.131185 -0.246938 0.544000
0.113671 -0.184434 -0.268864
0.084706 -0.138076 -0.429027
0.115551 -0.196559 0.356009
0.054889 -0.196120 0.495112
0.062585 -0.131362 0.340899
0.090514 -0.145606 0.424168
0.044746 -0.046955 -0.560725
0.102075 -0.042054 -0.441607
0.096787 0.065338 -0.444740
0.038138 0.082295 -0.582064
0.069653 0.114875 0.413178
0.152808 0.099788 -0.279388
0.098115 0.179324 0.444600
0.125266 0.197461 0.370344
0.105164 0.207434 -0.250950
0.111801 0.252384 0.155887
0.038695 0.285915 -0.129586
0.079672 0.278843 0.008248
0.549735 0.224839 0.628005
0.154273 -0.276072 0.013331
0.202947 -0.289693 0.190304
0.113689 -0.224236 -0.182913
0.190664 -0.274155 0.262686
0.197353 -0.270010 0.522310
0.246776 -0.201572 -0.028887
0.179062 -0.251149 0.427930
0.575942 -0.168267 0.685239
0.197295 -0.104716 -0.195108
0.145340 -0.009196 -0.337608
0.168102 -0.074547 -0.269044
0.210950 0.001148 -0.212751
0.214568 0.073502 -0.190955
0.134248 0.204604 -0.190694
0.227362 0.223094 -0.038766
0.202372 0.277077 0.265219
0.119186 0.230755 0.498030
0.181113 0.251884 0.424152
0.174246 0.272212 0.013140
0.194885 0.269515 0.519204
0.190355 0.284810 0.134216
0.195930 -0.283059 0.112304
0.257604 -0.296322 0.218160
0.257688 -0.300033 0.330343
0.267758 -0.295709 0.494203
0.282700 -0.242629 0.078361
0.294616 0.131963 -0.042962
0.279847 0.263832 0.135177
0.272604 0.308283 0.355033
0.266280 0.297128 0.491677
0.285565 -0.288644 0.543636
0.503657 -0.283009 0.412194
0.344546 -0.200481 0.091453
0.609764 -0.203428 0.651611
0.314769 -0.177067 0.028886
0.320775 -0.079604 -0.036951
0.372892 -0.077513 0.032022
0.371313 0.084953 0.032950
0.286249 0.203549 0.021647
0.348668 0.188995 0.089242
0.240129 0.291792 0.191692
0.263955 0.284824 0.545161
0.303103 0.309639 0.314793
0.369805 -0.312777 0.423526
0.360758 -0.307299 0.511666
0.618969 -0.118645 0.316014
0.340537 0.008736 -0.030300
0.374374 0.004358 0.011906
0.585859 0.161185 0.315278
0.643209 0.133006 0.695263
0.554771 0.196981 0.321491
0.509063 0.269093 0.399784
0.331843 0.318773 0.437914
0.369595 0.304082 0.523631
0.509027 -0.299292 0.494385
0.520123 -0.284944 0.551083
0.629142 -0.181047 0.406472
0.499763 0.294022 0.485580
0.661249 -0.076820 0.351005
0.624209 0.201974 0.436571
0.538431 0.278701 0.555093
0.592966 -0.262150 0.528442
0.648135 -0.214790 0.576057
0.681100 0.018360 0.358955
0.686751 0.108694 0.429372
0.648988 0.206702 0.581705
0.585923 0.260692 0.541042
0.596391 0.244980 0.592160
0.655977 -0.152349 0.658238
0.697290 -0.123578 0.460466
0.708610 -0.064747 0.641720
0.711954 -0.034994 0.426428
0.707660 0.041042 0.658911
0.713573 0.047555 0.418727
0.680372 0.158737 0.659992
3 2 0 3
3 0 2 1
3 1 2 4
3 1 4 14
3 3 5 2
3 2 5 6
3 2 6 4
3 14 4 15
3 6 7 4
3 4 7 15
3 8 6 5
3 6 8 7
3 10 11 21
3 11 12 21
3 0 9 23
3 9 0 10
3 10 0 11
3 12 11 1
3 12 1 13
3 0 23 3
3 1 11 0
3 14 13 1
3 23 24 3
3 24 5 3
3 24 27 5
3 27 28 5
3 5 28 8
3 16 8 28
3 8 17 7
3 7 17 18
3 7 18 29
3 16 30 8
3 8 30 17
3 35 10 33
3 33 10 19
3 10 21 19
3 19 21 20
3 20 21 12
3 10 35 9
3 35 23 9
3 13 22 12
3 38 40 23
3 40 24 23
3 15 25 14
3 43 45 28
3 45 16 28
3 45 30 16
3 45 46 30
3 46 31 30
3 30 31 17
3 17 31 32
3 18 17 32
3 19 48 33
3 48 19 49
3 19 20 49
3 34 49 20
3 35 48 50
3 33 48 35
3 34 20 12
3 50 38 35
3 22 13 55
3 38 23 35
3 37 36 59
3 13 14 39
3 13 39 55
3 36 37 61
3 25 39 14
3 37 59 26
3 26 61 37
3 39 25 62
3 61 26 63
3 26 59 65
3 41 25 15
3 25 41 62
3 42 26 65
3 63 42 44
3 26 42 63
3 43 28 27
3 7 41 15
3 7 29 41
3 44 42 65
3 69 45 43
3 69 46 45
3 72 46 69
3 18 32 47
3 72 31 46
3 72 75 31
3 31 75 32
3 32 75 47
3 49 34 76
3 48 51 50
3 48 52 51
3 48 49 52
3 77 52 49
3 49 76 77
3 34 12 53
3 50 51 78
3 53 12 22
3 78 38 50
3 55 53 22
3 53 55 56
3 56 55 58
3 36 54 59
3 55 39 58
3 60 57 87
3 57 60 54
3 54 60 59
3 90 60 87
3 88 36 61
3 58 39 62
3 89 62 91
3 58 62 89
3 93 60 90
3 40 27 24
3 64 60 93
3 60 64 59
3 59 64 65
3 40 43 27
3 62 41 66
3 62 66 91
3 67 64 93
3 64 67 65
3 63 44 95
3 66 41 68
3 96 69 43
3 70 41 29
3 68 41 70
3 71 65 67
3 44 65 71
3 73 69 96
3 29 18 70
3 73 72 69
3 73 74 72
3 74 99 75
3 74 75 72
3 99 102 75
3 18 47 70
3 102 47 75
3 34 79 76
3 77 76 103
3 79 34 53
3 82 51 52
3 52 77 82
3 53 56 79
3 79 56 80
3 80 56 83
3 81 105 54
3 54 106 81
3 38 78 84
3 78 51 84
3 56 58 83
3 105 57 54
3 106 54 36
3 84 51 82
3 85 83 86
3 105 87 57
3 106 36 88
3 89 83 58
3 83 89 86
3 109 40 38
3 38 84 109
3 89 91 86
3 86 91 92
3 116 61 63
3 109 114 40
3 43 40 114
3 114 118 43
3 66 94 91
3 91 94 92
3 96 43 118
3 118 97 73
3 96 118 73
3 92 94 98
3 120 67 93
3 121 95 44
3 97 74 73
3 97 99 74
3 66 68 94
3 44 71 121
3 68 70 100
3 94 68 100
3 71 67 101
3 101 121 71
3 99 123 102
3 70 47 124
3 124 100 70
3 124 47 102
3 76 79 125
3 79 80 125
3 80 83 104
3 104 85 127
3 104 83 85
3 131 105 81
3 128 81 106
3 129 82 77
3 77 103 129
3 85 107 127
3 108 82 129
3 86 107 85
3 84 82 110
3 84 110 109
3 82 111 110
3 82 108 111
3 108 112 111
3 136 90 87
3 137 88 61
3 110 113 109
3 110 111 113
3 137 61 140
3 109 113 114
3 112 115 111
3 86 92 134
3 140 61 116
3 111 117 113
3 111 115 117
3 143 116 63
3 114 113 118
3 115 119 117
3 113 117 118
3 117 97 118
3 117 119 97
3 143 63 95
3 97 119 145
3 147 67 120
3 99 97 145
3 145 123 99
3 98 94 100
3 98 100 122
3 147 101 67
3 123 148 102
3 124 102 148
3 124 148 150
3 124 150 100
3 125 80 126
3 126 80 153
3 80 104 153
3 76 130 103
3 76 125 130
3 154 130 125
3 154 125 126
3 157 131 81
3 129 103 130
3 127 107 132
3 105 131 161
3 86 132 107
3 132 134 133
3 133 134 135
3 133 135 162
3 129 164 108
3 134 132 86
3 161 87 105
3 108 164 112
3 162 135 139
3 161 136 87
3 135 138 139
3 135 134 138
3 136 93 90
3 92 141 134
3 134 141 138
3 139 138 142
3 136 120 93
3 115 167 119
3 138 141 142
3 119 167 145
3 146 141 92
3 98 146 92
3 141 146 142
3 142 146 144
3 123 145 148
3 148 145 149
3 98 122 146
3 149 150 148
3 152 101 147
3 176 121 101
3 151 150 149
3 151 100 150
3 151 174 100
3 100 174 122
3 122 174 175
3 122 175 146
3 176 101 152
3 153 104 177
3 127 155 104
3 155 177 104
3 81 128 157
3 158 154 126
3 126 179 158
3 179 126 153
3 127 132 155
3 155 132 156
3 156 133 180
3 156 132 133
3 180 133 160
3 161 131 157
3 154 159 130
3 130 159 129
3 154 158 159
3 162 160 133
3 160 162 163
3 184 106 88
3 129 159 164
3 159 165 164
3 159 186 165
3 184 88 137
3 162 139 163
3 163 139 136
3 161 163 136
3 115 112 164
3 165 166 164
3 165 186 166
3 167 115 164
3 164 166 167
3 139 142 168
3 139 168 120
3 136 139 120
3 186 169 166
3 144 168 142
3 168 170 120
3 167 166 145
3 166 149 145
3 166 169 149
3 169 172 149
3 171 168 144
3 170 168 171
3 120 170 147
3 144 146 173
3 147 170 193
3 151 149 172
3 172 190 151
3 151 190 174
3 192 144 173
3 144 192 171
3 147 193 152
3 195 175 174
3 175 173 146
3 177 155 198
3 178 198 156
3 156 198 155
3 178 156 180
3 182 179 153
3 153 177 182
3 180 160 183
3 181 161 157
3 183 161 181
3 160 163 183
3 161 183 163
3 179 185 158
3 158 187 159
3 158 185 187
3 159 187 186
3 187 188 186
3 187 185 188
3 188 169 186
3 188 189 169
3 189 190 169
3 169 190 172
3 170 171 194
3 170 194 193
3 174 190 191
3 191 195 174
3 194 171 192
3 194 196 193
3 193 196 152
3 195 197 175
3 175 197 173
3 173 197 192
3 199 178 180
3 199 180 200
3 202 177 198
3 198 199 202
3 198 178 199
3 180 183 200
3 200 183 201
3 183 181 201
3 201 181 207
3 207 181 157
3 157 128 207
3 177 202 182
3 210 128 106
3 106 184 210
3 179 182 185
3 190 189 203
3 190 203 191
3 191 215 195
3 195 215 204
3 197 195 204
3 204 217 197
3 192 197 217
3 194 192 205
3 194 205 206
3 196 194 206
3 206 218 196
3 196 218 152
3 218 176 152
3 217 219 192
3 219 205 192
3 200 220 199
3 200 201 220
3 220 201 221
3 199 208 202
3 221 201 207
3 202 208 209
3 202 211 182
3 209 211 202
3 209 213 211
3 212 185 182
3 182 211 212
3 211 213 212
3 212 223 188
3 185 212 188
3 188 223 189
3 189 223 203
3 214 215 203
3 214 216 215
3 226 143 95
3 226 95 121
3 191 203 215
3 204 215 216
3 204 219 217
3 219 229 205
3 205 229 206
3 229 230 206
3 230 218 206
3 220 221 231
3 221 232 231
3 232 221 207
3 207 128 232
3 212 213 223
3 213 224 223
3 224 214 223
3 214 203 223
3 216 214 225
3 227 204 216
3 204 228 219
3 227 228 204
3 218 230 176
3 228 234 219
3 234 229 219
3 234 230 229
3 220 208 199
3 208 220 231
3 213 209 233
3 222 213 233
3 213 222 235
3 213 235 224
3 227 216 225
3 176 226 121
3 176 230 237
3 237 230 234
3 208 231 238
3 231 232 238
3 238 232 128
3 208 233 209
3 225 236 227
3 236 228 227
3 236 234 228
3 236 243 234
3 237 234 243
3 237 243 244
3 244 176 237
3 238 233 208
3 238 239 233
3 238 128 239
3 128 210 239
3 239 210 245
3 184 245 210
3 235 222 233
3 245 184 137
3 245 137 140
3 235 240 224
3 214 224 240
3 241 214 240
3 225 214 241
3 116 143 226
3 225 241 236
3 176 242 251
3 226 176 251
3 236 242 243
3 242 244 243
3 176 244 242
3 246 233 239
3 245 246 239
3 235 233 246
3 246 245 247
3 248 235 246
3 246 247 248
3 245 140 247
3 240 235 248
3 247 249 248
3 247 140 249
3 250 240 248
3 248 249 250
3 140 116 249
3 241 240 250
3 250 249 241
3 249 251 241
3 249 226 251
3 116 226 249
3 241 251 242
3 242 236 241
