ply
format ascii 1.0
element vertex 248
property float x
property float y
property float z
element face 500
property list uchar int vertex_indices
end_header
-0.654613 -0.185502 -0.195305
-0.661092 -0.178893 0.092801
-0.710985 -0.062374 -0.187122
-0.722795 -0.096642 0.134995
-0.705399 -0.000042 0.105622
-0.707268 0.063491 -0.179129
-0.608246 0.191868 0.076957
-0.625687 0.165864 -0.200640
-0.565455 -0.263441 -0.114075
-0.575748 -0.212238 -0.212301
-0.649581 -0.092872 -0.250703
-0.674142 -0.093353 0.201416
-0.673223 0.043052 -0.248504
-0.428625 0.060661 0.419989
-0.563690 0.269736 -0.080311
-0.562464 -0.276883 0.007272
-0.492188 -0.245819 0.156471
-0.425411 -0.215976 0.336757
-0.484960 -0.123118 -0.743331
-0.464880 -0.136690 -0.643575
-0.492568 0.064189 -0.635932
-0.484140 0.137682 -0.727299
-0.566953 0.150029 -0.251896
-0.211026 0.186971 0.525517
-0.501006 0.248287 0.155546
-0.570314 0.282700 0.004178
-0.467576 -0.274258 -0.030362
-0.348522 -0.198029 -0.173852
-0.373487 -0.213630 0.267637
-0.472269 -0.123153 -0.838139
-0.422777 -0.043111 -0.918030
-0.427943 -0.113613 -0.575170
-0.483494 0.009099 -0.837222
-0.446849 0.006081 -0.574352
-0.418171 0.121782 -0.907539
-0.355309 0.067577 -0.264909
-0.445674 0.173861 -0.821240
-0.442391 0.145424 -0.597310
-0.427855 0.200214 -0.654074
-0.394133 0.240380 -0.760966
-0.394977 0.191850 -0.201173
-0.385646 0.228847 0.261798
-0.482085 0.274662 -0.021913
-0.245164 -0.274178 -0.758935
-0.383863 -0.208675 0.092799
-0.355642 -0.200879 -0.858097
-0.333136 -0.174103 -0.598584
-0.362809 -0.103598 -0.254921
-0.376943 -0.176544 0.141916
-0.259401 -0.046355 0.578287
-0.345066 0.101029 -0.946809
-0.420735 0.205325 0.152867
-0.337519 0.208224 -0.875239
-0.323207 0.166332 -0.593901
-0.321877 0.177647 0.244335
-0.295987 0.171974 0.043682
-0.231264 -0.221240 -0.025157
-0.207963 -0.238657 0.479117
-0.303972 -0.079195 -0.948374
-0.289341 -0.123679 0.234247
-0.352643 -0.045255 -0.549056
-0.331924 -0.045459 0.119414
-0.189177 -0.177783 0.564026
-0.281361 0.055905 0.207549
-0.242637 0.119868 -0.196647
-0.197967 0.289972 -0.746701
-0.234009 0.221883 -0.042341
-0.230173 -0.295199 -0.813826
-0.219898 -0.205718 0.347837
-0.252421 -0.158188 0.038515
-0.130863 -0.181679 -0.049120
-0.174786 -0.156555 0.264356
-0.255774 -0.037265 -0.230476
-0.051540 0.039949 -0.954576
-0.273770 0.019946 0.083247
-0.192762 0.035214 0.609945
-0.069927 0.149493 -0.929810
-0.188629 0.151030 0.272373
-0.220355 0.213539 0.339995
-0.202703 0.233864 0.437434
-0.091396 0.236229 0.515082
-0.239143 0.292351 -0.796655
-0.053754 -0.242399 -0.631992
-0.135833 -0.253777 -0.851958
-0.136518 -0.241465 0.449823
-0.137563 -0.200685 0.017639
-0.097893 -0.200140 0.128828
-0.170780 -0.086217 0.194254
-0.189282 -0.069689 0.618787
-0.201639 0.025684 0.107421
-0.193952 0.043317 0.209682
-0.057419 0.082057 -0.505342
-0.027516 0.009508 -0.044133
-0.094093 0.202272 0.107310
-0.104973 0.144869 0.265128
0.021838 0.217671 -0.560961
-0.135619 0.218471 0.005556
-0.175000 0.209267 0.026195
0.012413 -0.271176 -0.752074
-0.077331 -0.248864 0.510551
0.036801 -0.217602 -0.844236
-0.014386 -0.223768 0.109360
-0.046325 -0.215415 0.181599
-0.132411 -0.186383 0.338889
-0.024286 -0.204561 0.615534
-0.038124 -0.116755 -0.931749
-0.054880 -0.123748 -0.519250
-0.111039 -0.165624 0.270028
-0.092808 -0.074388 0.649506
-0.055946 -0.044747 0.325636
-0.030016 -0.011139 0.298595
-0.030050 0.065698 0.335660
-0.037961 0.198386 0.028823
-0.059679 0.124115 0.658628
-0.120891 0.177866 0.322157
-0.059343 0.208255 0.605798
-0.063732 0.246215 -0.839982
-0.038720 0.208711 0.191438
-0.092946 0.213081 0.400953
0.004231 0.223167 0.118395
0.051206 0.269901 -0.753874
0.075414 -0.259917 -0.645823
-0.061454 -0.196649 0.408591
0.030175 -0.201629 -0.537866
-0.045009 -0.187425 0.025409
0.082166 -0.281785 0.525036
0.041141 -0.215793 0.233309
0.031556 -0.207923 0.360289
0.076044 -0.120865 -0.415444
0.044654 -0.079075 -0.910778
0.109234 -0.016369 0.773165
0.057830 0.014836 -0.411154
0.049098 0.112935 -0.899478
0.098321 0.174734 -0.439067
0.039569 0.207566 0.272271
0.029459 0.232576 0.385491
0.099252 0.160548 0.737889
0.064202 0.265072 0.538484
0.052990 0.270153 -0.666028
0.189605 -0.199929 0.708862
0.034880 -0.162900 0.058446
0.099964 -0.163883 0.163092
0.144499 -0.158342 -0.361645
0.136470 -0.056577 -0.297527
0.038092 -0.014143 0.006424
0.113124 0.015397 0.099048
0.117479 -0.032343 -0.865615
0.141258 0.132906 -0.341862
0.039995 0.159403 0.055519
0.104626 0.174861 0.184174
0.097268 0.197226 -0.816945
0.120937 0.253308 -0.538290
0.112930 -0.229496 0.309072
0.238821 -0.325741 0.586469
0.137193 -0.223599 -0.729279
0.119817 -0.215173 -0.487143
0.165904 -0.259632 -0.561603
0.198349 -0.243823 -0.455692
0.102699 -0.171703 -0.835154
0.153970 -0.092087 -0.816021
0.204016 -0.137178 0.246357
0.209280 -0.041023 -0.758077
0.207308 0.004103 0.209683
0.119634 0.111787 -0.857495
0.159477 0.080635 -0.814594
0.240055 0.035443 -0.113177
0.209497 0.080235 -0.753813
0.242975 0.183707 -0.235070
0.140698 0.222561 -0.726148
0.205389 0.145690 0.258088
0.116057 0.248751 0.354833
0.187948 0.226945 -0.402313
0.182466 0.263919 -0.538378
0.198959 0.209812 0.732229
0.211081 0.317164 0.483589
0.239492 -0.318676 0.489153
0.266189 -0.254566 -0.463011
0.274132 -0.230259 -0.315365
0.226956 -0.203678 0.301773
0.270717 -0.181296 -0.200712
0.390391 -0.126349 -0.514721
0.227671 -0.051511 0.805256
0.259946 -0.099245 -0.106470
0.306525 -0.063798 0.018541
0.307399 0.093364 0.016257
0.188742 0.083926 0.801220
0.379888 0.139782 -0.509508
0.326539 0.225337 -0.443952
0.291831 0.236015 -0.318268
0.260604 0.203816 0.303846
0.262806 0.253631 -0.428877
0.292827 0.292599 0.396743
0.312135 0.316965 0.578669
0.358781 -0.202904 -0.470588
0.358775 -0.201370 -0.084054
0.433129 -0.215628 0.238632
0.359346 -0.168993 0.050488
0.282595 -0.096427 0.220514
0.413093 -0.197642 0.118483
0.335170 -0.104177 0.116058
0.339490 0.086006 0.126545
0.273487 0.087026 0.231945
0.294718 0.155048 -0.090969
0.364672 0.190835 0.002636
0.580457 0.199070 0.754132
0.429594 0.202511 0.241773
0.438050 -0.309245 0.477333
0.391049 -0.336759 0.564142
0.552676 -0.269517 0.664823
0.349402 -0.220023 -0.282084
0.585035 -0.212020 0.745388
0.421844 -0.128583 -0.424025
0.426212 -0.167915 -0.217827
0.676707 -0.059461 0.787370
0.648137 0.042855 0.792355
0.408358 0.156316 -0.426608
0.431270 0.175350 -0.210473
0.362248 0.221824 -0.295329
0.344864 0.211925 -0.157731
0.432067 0.198868 0.124668
0.424899 0.213815 -0.033172
0.532704 0.274615 0.681263
0.388664 0.310498 0.460641
0.428243 -0.211406 -0.061017
0.557221 -0.205534 0.340935
0.482425 -0.132396 -0.097305
0.506778 -0.178711 0.177057
0.485279 -0.053633 -0.192367
0.414638 0.013218 -0.479264
0.476441 0.014921 -0.239883
0.480079 0.149412 -0.115851
0.517748 0.163152 0.181939
0.568651 0.205458 0.360714
0.552234 0.278056 0.559217
0.556777 -0.275990 0.536760
0.618395 -0.177196 0.419183
0.593907 -0.097878 0.296717
0.564501 -0.040890 0.193208
0.508480 0.020869 -0.111730
0.605802 0.094660 0.325331
0.626095 0.170853 0.420981
0.650210 -0.174170 0.560514
0.652643 -0.188922 0.727753
0.650350 -0.010325 0.410674
0.642035 0.201983 0.529780
0.644145 0.183440 0.703577
0.701132 -0.025168 0.752999
0.679231 0.060444 0.521907
3 0 2 1
3 1 2 3
3 10 2 0
3 12 2 10
3 3 2 4
3 3 4 11
3 5 2 12
3 2 5 4
3 4 5 6
3 7 5 12
3 5 7 6
3 8 1 15
3 9 0 8
3 8 0 1
3 15 1 16
3 1 3 11
3 9 10 0
3 4 6 13
3 22 7 12
3 7 14 6
3 6 25 24
3 14 25 6
3 8 15 26
3 16 26 15
3 16 1 17
3 11 17 1
3 19 18 20
3 11 4 13
3 21 18 32
3 18 21 20
3 35 22 12
3 6 23 13
3 40 7 22
3 6 24 23
3 7 40 14
3 25 42 24
3 14 42 25
3 8 26 27
3 27 9 8
3 26 16 44
3 44 16 28
3 47 9 27
3 28 16 17
3 45 29 18
3 47 10 9
3 29 30 32
3 18 29 32
3 33 31 19
3 20 33 19
3 47 35 10
3 35 12 10
3 11 13 49
3 30 34 32
3 32 34 36
3 32 36 21
3 37 33 20
3 20 21 38
3 20 38 37
3 39 21 36
3 38 21 39
3 23 24 41
3 24 42 51
3 24 51 41
3 42 14 40
3 45 18 43
3 43 18 19
3 43 19 46
3 26 44 56
3 44 28 48
3 31 46 19
3 46 31 60
3 61 44 48
3 17 11 62
3 45 30 29
3 45 58 30
3 60 31 33
3 11 49 62
3 50 30 58
3 30 50 34
3 60 33 53
3 53 33 37
3 55 61 51
3 52 34 50
3 36 34 52
3 38 53 37
3 36 52 39
3 40 22 35
3 54 41 51
3 55 42 66
3 51 42 55
3 66 42 40
3 43 67 45
3 26 56 27
3 56 44 69
3 57 68 28
3 48 28 59
3 28 68 59
3 57 28 17
3 69 44 61
3 27 72 47
3 48 59 61
3 72 35 47
3 74 69 61
3 59 63 61
3 73 50 58
3 49 13 75
3 72 64 35
3 76 50 73
3 61 63 51
3 74 61 55
3 54 51 63
3 75 13 23
3 64 40 35
3 40 64 66
3 54 78 41
3 38 39 65
3 65 53 38
3 41 79 23
3 41 78 79
3 81 65 39
3 81 39 52
3 82 43 46
3 67 83 45
3 68 57 84
3 83 58 45
3 27 56 70
3 85 56 69
3 57 17 62
3 71 59 68
3 72 27 70
3 85 69 89
3 71 90 59
3 90 63 59
3 62 49 88
3 89 69 74
3 49 75 88
3 72 92 64
3 91 60 53
3 90 77 63
3 77 54 63
3 89 74 55
3 91 53 95
3 89 55 97
3 76 52 50
3 55 66 97
3 77 78 54
3 23 79 80
3 67 43 83
3 57 99 84
3 57 62 99
3 105 58 83
3 46 106 82
3 70 56 85
3 68 84 103
3 106 46 60
3 107 86 71
3 86 87 71
3 107 71 103
3 103 71 68
3 104 62 108
3 108 62 88
3 89 86 85
3 86 89 87
3 58 105 73
3 106 60 91
3 71 87 90
3 87 89 90
3 108 88 75
3 92 112 64
3 89 93 90
3 90 93 94
3 77 90 94
3 75 23 113
3 64 96 66
3 64 112 96
3 97 93 89
3 77 94 114
3 113 23 115
3 116 52 76
3 66 96 97
3 97 96 93
3 78 77 114
3 114 118 78
3 23 80 115
3 81 52 116
3 118 79 78
3 118 80 79
3 116 65 81
3 43 98 83
3 83 98 100
3 98 43 82
3 98 82 121
3 101 86 102
3 122 84 99
3 104 99 62
3 100 105 83
3 124 70 85
3 86 101 124
3 85 86 124
3 86 107 102
3 103 84 122
3 103 109 107
3 122 111 109
3 103 122 109
3 124 92 70
3 110 102 107
3 107 109 110
3 92 72 70
3 94 117 110
3 110 109 94
3 109 111 94
3 108 75 113
3 94 111 114
3 111 118 114
3 93 96 112
3 117 94 93
3 138 95 53
3 93 112 119
3 117 93 119
3 65 120 138
3 138 53 65
3 120 65 116
3 82 123 121
3 101 102 126
3 127 122 99
3 125 127 99
3 104 125 99
3 82 106 123
3 140 124 101
3 128 123 106
3 129 105 100
3 110 126 102
3 126 110 127
3 127 110 111
3 122 127 111
3 130 104 108
3 131 128 106
3 140 144 124
3 144 92 124
3 91 131 106
3 129 132 73
3 105 129 73
3 73 132 76
3 131 91 133
3 144 148 92
3 148 112 92
3 113 130 108
3 134 110 117
3 110 134 111
3 111 134 135
3 111 135 118
3 115 136 113
3 116 76 132
3 116 132 150
3 95 133 91
3 112 148 119
3 115 137 136
3 116 150 120
3 134 117 119
3 80 118 135
3 137 115 80
3 137 80 135
3 152 127 125
3 100 98 154
3 154 98 121
3 121 123 155
3 100 154 158
3 101 141 140
3 126 141 101
3 141 126 152
3 127 152 126
3 139 125 104
3 158 129 100
3 128 155 123
3 128 142 155
3 130 139 104
3 158 146 129
3 142 128 143
3 128 131 143
3 144 140 145
3 140 141 145
3 132 129 146
3 146 163 132
3 143 131 147
3 131 133 147
3 144 145 148
3 113 136 130
3 145 149 148
3 150 132 163
3 133 95 151
3 148 149 119
3 134 119 149
3 134 149 170
3 170 135 134
3 150 168 120
3 120 168 138
3 138 151 95
3 170 137 135
3 170 174 137
3 125 175 152
3 153 175 125
3 156 121 155
3 153 125 139
3 121 156 154
3 157 156 155
3 157 155 142
3 160 152 178
3 158 154 159
3 152 160 141
3 130 181 139
3 146 158 159
3 154 161 159
3 179 143 182
3 142 143 179
3 141 162 145
3 141 160 162
3 164 146 159
3 163 146 164
3 159 161 164
3 147 165 143
3 143 165 182
3 181 130 185
3 161 166 164
3 167 165 147
3 185 130 136
3 166 168 164
3 150 163 164
3 164 168 150
3 145 162 149
3 162 169 149
3 173 185 136
3 133 171 147
3 167 147 171
3 170 149 169
3 168 172 138
3 151 172 171
3 151 171 133
3 189 170 169
3 136 137 173
3 172 151 138
3 191 170 189
3 137 192 173
3 137 174 192
3 157 176 156
3 157 177 176
3 152 175 178
3 156 176 154
3 177 157 142
3 177 142 179
3 197 160 178
3 161 154 180
3 182 165 183
3 197 162 160
3 183 165 184
3 197 201 162
3 201 169 162
3 168 166 186
3 165 167 202
3 201 189 169
3 204 185 173
3 168 186 187
3 167 171 188
3 187 172 168
3 187 190 172
3 190 171 172
3 190 188 171
3 191 174 170
3 175 207 206
3 207 175 153
3 153 208 207
3 195 178 175
3 208 153 139
3 176 193 154
3 176 177 209
3 193 176 209
3 154 193 180
3 209 177 179
3 194 209 179
3 197 195 198
3 178 195 197
3 210 139 181
3 182 194 179
3 194 182 183
3 194 183 196
3 196 183 199
3 197 198 199
3 210 181 213
3 200 199 183
3 184 200 183
3 199 200 197
3 197 200 201
3 214 181 185
3 184 165 202
3 184 203 200
3 205 189 201
3 167 188 218
3 167 218 202
3 218 203 202
3 203 184 202
3 187 217 188
3 190 187 188
3 218 188 217
3 205 191 189
3 204 173 221
3 174 191 222
3 221 173 192
3 192 174 222
3 175 206 195
3 198 194 196
3 198 223 194
3 193 211 180
3 193 209 211
3 209 212 211
3 212 194 223
3 212 209 194
3 199 198 196
3 161 180 228
3 213 181 214
3 161 228 166
3 166 228 186
3 228 215 186
3 216 217 215
3 203 219 200
3 205 201 200
3 205 200 219
3 186 215 187
3 215 217 187
3 218 217 216
3 216 220 218
3 220 203 218
3 203 220 219
3 222 191 205
3 206 207 234
3 207 208 234
3 195 206 224
3 208 139 210
3 212 223 225
3 226 198 195
3 195 224 226
3 212 225 227
3 225 223 226
3 223 198 226
3 211 228 180
3 212 229 211
3 212 227 229
3 211 229 228
3 229 216 228
3 216 215 228
3 229 230 216
3 204 214 185
3 220 230 231
3 220 216 230
3 231 219 220
3 205 219 231
3 231 232 205
3 232 222 205
3 232 233 222
3 233 192 222
3 233 221 192
3 234 224 206
3 234 235 224
3 226 224 236
3 226 237 225
3 226 236 237
3 238 227 225
3 225 237 238
3 236 239 237
3 229 227 238
3 238 237 231
3 237 239 231
3 230 229 238
3 238 231 230
3 239 232 231
3 232 240 233
3 234 208 241
3 208 242 241
3 208 210 242
3 235 234 241
3 242 210 213
3 224 235 236
3 235 243 236
3 236 243 239
3 243 240 239
3 239 240 232
3 214 204 245
3 240 244 233
3 244 245 233
3 245 221 233
3 204 221 245
3 242 246 241
3 242 213 246
3 243 235 241
3 247 243 241
3 241 246 247
3 213 214 246
3 240 243 247
3 246 245 247
3 246 214 245
3 244 240 247
3 247 245 244
