ply
format ascii 1.0
element vertex 250
property float x
property float y
property float z
element face 500
property list uchar int vertex_indices
end_header
-0.567488 -0.175859 0.209654
-0.564777 -0.185410 0.424729
-0.551985 -0.118732 0.094167
-0.566554 -0.113799 0.488667
-0.624073 -0.066196 0.417379
-0.608010 0.047180 0.160524
-0.591930 0.051709 0.483083
-0.625703 0.072124 0.416142
-0.569816 0.176586 0.199829
-0.568305 0.147706 0.096912
-0.563693 0.162472 0.432646
-0.499826 -0.273013 0.329245
-0.479126 -0.166234 -0.363943
-0.501571 -0.132302 -0.206117
-0.477702 -0.118256 0.814887
-0.527786 -0.027281 -0.339090
-0.470148 -0.128096 -0.108975
-0.485003 -0.074645 0.739647
-0.515303 -0.020436 -0.421831
-0.521385 0.004688 0.818161
-0.495148 0.083622 -0.157424
-0.498793 0.066165 0.756166
-0.497815 0.111091 -0.353392
-0.468029 0.121140 0.808884
-0.454999 0.280679 0.349991
-0.383004 -0.315842 0.256095
-0.408301 -0.291326 0.420418
-0.442223 -0.232390 0.095514
-0.377967 -0.260332 -0.369110
-0.436228 -0.221264 -0.236651
-0.466698 -0.175377 0.536019
-0.437579 -0.167457 -0.014289
-0.497300 -0.104995 0.538900
-0.373756 -0.217721 0.699252
-0.507024 -0.056708 0.853347
-0.405534 -0.109640 -0.646967
-0.465620 -0.107815 -0.510986
-0.425332 -0.149682 0.634009
-0.456115 -0.015596 0.594504
-0.455348 0.024351 0.653668
-0.459254 0.075382 -0.512376
-0.470737 0.131303 -0.034342
-0.499291 0.037066 0.547046
-0.475990 0.037150 0.859816
-0.380721 0.097481 -0.663956
-0.439767 0.135568 0.585821
-0.476464 0.172191 -0.190901
-0.435157 0.191278 -0.113020
-0.480376 0.167118 0.521082
-0.411246 0.233474 -0.384111
-0.431610 0.225999 -0.267758
-0.425613 0.226750 0.047295
-0.410768 0.188543 0.688644
-0.446321 0.289068 0.215347
-0.479760 0.239847 0.449369
-0.376404 -0.248231 0.570440
-0.392954 -0.216098 -0.549871
-0.385517 -0.190974 -0.060435
-0.358352 -0.187169 0.802991
-0.349139 -0.221147 -0.641151
-0.437251 -0.096923 0.862536
-0.404475 -0.041276 -0.692398
-0.367691 0.193125 -0.051035
-0.321148 0.251437 -0.562018
-0.401072 0.244122 0.542768
-0.320551 0.261965 0.654588
-0.335276 0.275791 -0.426038
-0.325820 0.325423 0.245788
-0.319010 -0.306015 0.175829
-0.202992 -0.318542 0.560123
-0.259770 -0.280923 -0.584707
-0.334772 -0.222212 -0.264245
-0.335559 -0.211156 0.028615
-0.272655 -0.199824 -0.713387
-0.239258 -0.114707 -0.275075
-0.332312 -0.120988 0.851630
-0.294570 -0.147076 -0.054471
-0.318023 -0.023364 -0.753336
-0.274637 -0.079961 -0.169678
-0.347584 0.001108 0.870770
-0.276388 0.133369 -0.756720
-0.363062 0.129859 0.839609
-0.245453 0.044161 -0.225443
-0.359716 0.233379 -0.279510
-0.232263 0.175267 -0.320193
-0.362910 0.207044 0.764070
-0.285106 0.232564 -0.670470
-0.316734 0.251663 0.067152
-0.233805 0.345853 0.455117
-0.224273 -0.332912 0.257770
-0.122851 -0.357163 0.428959
-0.221138 -0.270861 -0.448050
-0.255797 -0.238385 0.727084
-0.169363 -0.265183 0.174064
-0.072164 -0.215043 0.703297
-0.157279 -0.171652 -0.369641
-0.195067 -0.160237 0.788422
-0.233557 -0.004149 -0.056199
-0.174450 -0.038533 0.821085
-0.184758 0.092233 0.813404
-0.246894 0.213291 0.751876
-0.229418 0.256028 -0.444819
-0.175938 0.311226 0.592610
-0.137220 0.288745 -0.623394
-0.185541 0.321470 0.249177
-0.046781 -0.296451 -0.702592
-0.144539 -0.128089 0.070397
-0.033709 -0.229234 -0.796496
-0.072012 -0.065517 -0.853267
-0.114880 -0.038627 -0.348299
-0.113276 0.123812 -0.369168
-0.104742 0.229045 -0.772504
-0.210209 0.188247 0.062855
-0.126338 0.126579 0.078065
-0.060402 0.194122 -0.446250
-0.116313 0.362262 0.393121
-0.050068 -0.338602 0.518894
-0.127196 -0.301785 -0.583079
-0.035145 -0.319781 0.321713
-0.005763 -0.293277 -0.617582
-0.070681 -0.219493 -0.462769
0.043167 -0.233932 0.225228
-0.139737 0.000417 0.034489
-0.142976 0.059627 -0.847273
-0.050484 0.044178 0.779506
-0.045288 0.200702 0.708879
0.019905 0.190239 -0.482168
-0.024065 0.302540 0.293507
0.035435 0.305548 -0.653570
-0.071707 0.349693 0.497351
0.092883 -0.326340 0.393496
0.078191 -0.181609 -0.487412
0.059896 -0.183823 0.691964
-0.047090 -0.091480 -0.397097
0.058254 -0.132293 0.163664
-0.039953 -0.094158 0.766350
0.056651 -0.003405 -0.427294
0.050770 -0.028977 0.753454
0.015614 0.027362 0.127399
-0.040733 0.075073 -0.397221
-0.032186 0.304577 -0.721231
0.081313 0.152499 0.714091
0.097900 0.335426 0.412491
0.503261 -0.181978 -0.835466
0.109393 -0.042834 0.138861
0.534918 -0.024933 -0.891126
0.121467 0.073535 0.134598
0.495521 0.126092 -0.874284
0.078556 0.221601 0.214741
0.164205 0.314997 0.333942
0.173288 0.270502 0.557374
0.134936 -0.302416 0.524348
0.208242 -0.295941 0.476056
0.427899 -0.209292 -0.510023
0.247867 -0.191613 0.626040
0.164828 -0.151581 0.151165
0.259277 0.181710 0.116985
0.259450 0.183157 0.636690
0.490148 0.211960 -0.824616
0.359754 -0.292892 -0.650199
0.266825 -0.279650 0.239699
0.299110 -0.290223 0.311523
0.407700 -0.294479 -0.743804
0.325583 -0.208551 0.471515
0.354674 -0.035789 -0.449234
0.233913 0.028816 0.086930
0.279746 -0.075712 0.699261
0.345522 0.090696 -0.451496
0.265030 0.080009 0.695838
0.337209 0.258795 0.152157
0.310973 0.215500 0.519807
0.237835 0.305506 0.390488
0.547161 -0.160978 0.205011
0.364601 -0.144907 0.041933
0.316570 -0.092651 0.664540
0.393180 -0.050589 0.503709
0.399597 0.102783 0.493253
0.327502 0.065633 0.644617
0.417339 0.203837 -0.485194
0.378443 0.183896 0.050414
0.456783 0.263179 -0.704265
0.325965 0.294901 0.262645
0.517395 0.190855 0.221193
0.426441 0.286174 -0.661491
0.478281 -0.239002 0.049255
0.389240 -0.162284 0.427602
0.425842 0.013009 -0.033642
0.424265 -0.077932 -0.422645
0.432238 0.074567 -0.397913
0.470528 0.254648 -0.572932
0.479213 -0.279934 -0.734767
0.516961 -0.254611 0.118169
0.437131 -0.186801 0.010266
0.506838 -0.225211 -0.466330
0.522682 -0.186384 -0.366009
0.506071 -0.195660 -0.049204
0.487009 -0.055677 -0.120608
0.497203 -0.092543 -0.295540
0.589761 0.012496 0.242308
0.477567 0.085862 -0.112764
0.502827 0.134630 -0.206477
0.490785 0.215715 0.005001
0.526206 0.217092 -0.423754
0.519832 0.198246 -0.105305
0.496379 0.248581 0.132813
0.451602 0.282106 -0.665147
0.539023 -0.244506 -0.548650
0.579056 -0.233349 -0.415061
0.591793 -0.240163 -0.039772
0.571367 -0.176381 -0.800521
0.588530 -0.231062 0.069608
0.581394 -0.206285 -0.281582
0.581409 -0.190341 -0.189172
0.489687 -0.004832 -0.200924
0.589981 0.221798 -0.250149
0.564632 0.173224 -0.825612
0.589867 0.194362 -0.555798
0.597909 0.225365 -0.413642
0.578482 0.242117 -0.069420
0.625810 -0.163394 -0.589701
0.624452 -0.207758 -0.480504
0.654779 -0.201071 -0.320869
0.667727 -0.202042 -0.022671
0.587521 -0.077247 -0.864563
0.611453 -0.095796 -0.813357
0.645831 -0.036635 0.123389
0.632420 0.003628 0.175867
0.652534 -0.025844 -0.600430
0.584188 0.083440 -0.870428
0.611461 0.069068 -0.821667
0.594209 0.208488 0.069954
0.634904 0.196020 -0.464120
0.663409 0.182827 -0.352980
0.669339 0.217740 -0.206952
0.656147 0.225382 -0.060370
0.705550 -0.180916 -0.179092
0.662216 -0.162533 0.037041
0.679132 -0.093850 -0.482208
0.725480 -0.123889 -0.320556
0.716618 -0.069596 -0.019540
0.690362 -0.003621 0.037041
0.729692 0.013482 -0.363567
0.672603 0.087981 -0.483311
0.717495 0.113245 -0.054396
0.766251 0.068325 -0.205325
0.656647 0.169682 0.031626
0.722577 0.176483 -0.152970
0.774666 -0.076956 -0.207419
0.766729 -0.062095 -0.125409
0.770850 0.077869 -0.146076
3 1 0 4
3 1 4 3
3 0 2 5
3 0 5 4
3 3 4 6
3 4 5 7
3 4 7 6
3 5 8 7
3 5 9 8
3 6 7 10
3 8 10 7
3 11 0 1
3 11 1 26
3 26 1 30
3 30 1 3
3 32 30 3
3 12 15 13
3 18 15 12
3 14 17 19
3 14 19 34
3 32 3 42
3 42 3 6
3 13 15 20
3 13 20 16
3 17 21 19
3 34 19 43
3 18 22 15
3 19 21 23
3 19 23 43
3 15 22 20
3 42 6 48
3 48 6 10
3 22 46 20
3 51 8 9
3 10 8 24
3 54 48 10
3 51 53 8
3 24 8 53
3 54 10 24
3 27 0 25
3 11 25 0
3 26 25 11
3 2 0 27
3 28 12 29
3 29 12 13
3 57 29 16
3 29 13 16
3 27 31 2
3 33 14 58
3 58 14 60
3 57 16 31
3 14 34 60
3 36 18 12
3 37 17 33
3 33 17 14
3 38 30 32
3 30 38 37
3 37 38 39
3 37 39 17
3 36 35 40
3 36 40 18
3 41 31 16
3 31 41 2
3 42 38 32
3 20 41 16
3 2 41 5
3 17 39 21
3 60 34 43
3 44 35 61
3 35 44 40
3 18 40 22
3 5 41 9
3 45 38 42
3 38 45 39
3 20 46 47
3 20 47 41
3 45 42 48
3 45 52 39
3 52 21 39
3 22 40 49
3 46 22 50
3 9 41 51
3 23 21 52
3 22 49 50
3 46 50 47
3 27 68 72
3 68 27 25
3 28 29 71
3 57 71 29
3 30 55 26
3 59 35 56
3 12 28 56
3 72 31 27
3 72 57 31
3 33 55 37
3 56 35 36
3 12 56 36
3 55 30 37
3 58 60 75
3 35 77 61
3 75 60 79
3 79 60 43
3 77 44 61
3 79 43 81
3 40 44 63
3 40 63 49
3 47 62 41
3 41 62 51
3 48 64 45
3 45 64 52
3 81 43 23
3 47 83 62
3 62 87 51
3 52 64 65
3 52 85 23
3 81 23 85
3 66 49 63
3 66 83 49
3 49 83 50
3 83 47 50
3 54 64 48
3 65 85 52
3 67 51 87
3 53 51 67
3 54 24 64
3 67 24 53
3 26 90 25
3 90 89 25
3 90 26 69
3 89 68 25
3 69 26 55
3 70 56 28
3 69 33 92
3 69 55 33
3 70 59 56
3 70 73 59
3 71 91 28
3 92 33 58
3 57 72 76
3 58 75 96
3 58 96 92
3 73 35 59
3 71 57 76
3 73 77 35
3 78 74 71
3 71 76 78
3 78 76 97
3 98 75 79
3 77 80 44
3 99 79 81
3 83 84 82
3 82 62 83
3 44 80 86
3 44 86 63
3 81 85 100
3 66 101 83
3 65 102 100
3 65 100 85
3 64 88 65
3 24 88 64
3 24 67 88
3 68 89 93
3 91 70 28
3 93 72 68
3 93 106 72
3 95 91 71
3 71 74 95
3 72 106 76
3 94 92 96
3 77 73 108
3 75 98 96
3 78 82 74
3 97 76 106
3 78 97 82
3 79 99 98
3 62 82 97
3 84 110 82
3 97 112 62
3 99 81 100
3 83 101 84
3 112 87 62
3 63 86 103
3 103 101 63
3 63 101 66
3 87 112 104
3 104 67 87
3 88 102 65
3 104 115 67
3 115 88 67
3 90 69 116
3 70 117 105
3 93 89 118
3 90 118 89
3 94 116 69
3 70 105 73
3 117 70 91
3 92 94 69
3 107 73 105
3 117 91 120
3 91 95 120
3 73 107 108
3 95 74 109
3 74 82 109
3 122 97 106
3 108 123 77
3 123 80 77
3 82 110 109
3 122 113 97
3 124 98 99
3 111 80 123
3 112 97 113
3 124 99 125
3 125 99 100
3 111 86 80
3 114 110 101
3 110 84 101
3 114 101 103
3 112 113 127
3 125 100 102
3 103 86 111
3 104 112 127
3 102 129 125
3 104 127 115
3 115 129 88
3 88 129 102
3 119 105 117
3 117 120 119
3 93 118 121
3 93 121 106
3 120 95 133
3 94 96 135
3 133 95 109
3 135 96 98
3 106 138 122
3 133 109 139
3 135 98 124
3 139 109 110
3 139 110 114
3 126 114 103
3 111 140 103
3 126 103 128
3 128 103 140
3 90 116 130
3 90 130 118
3 94 132 116
3 119 120 131
3 143 108 107
3 133 131 120
3 134 106 121
3 135 132 94
3 136 131 133
3 137 132 135
3 106 134 138
3 133 139 136
3 135 124 137
3 145 147 108
3 147 123 108
3 141 137 124
3 139 126 136
3 122 138 113
3 125 141 124
3 147 111 123
3 114 126 139
3 138 148 113
3 127 113 148
3 141 125 150
3 150 125 129
3 142 115 127
3 142 129 115
3 151 130 116
3 121 118 130
3 116 132 151
3 155 134 121
3 155 144 134
3 134 144 138
3 144 146 138
3 146 148 138
3 158 140 111
3 127 148 149
3 157 141 150
3 149 142 127
3 150 129 142
3 152 130 151
3 107 105 162
3 160 121 130
3 159 119 131
3 151 132 154
3 164 131 136
3 155 165 144
3 165 146 144
3 166 137 168
3 168 137 141
3 167 136 126
3 146 165 156
3 146 156 148
3 168 141 157
3 142 149 171
3 105 159 162
3 119 159 105
3 130 161 160
3 152 161 130
3 163 161 152
3 160 155 121
3 152 151 154
3 163 152 154
3 154 132 166
3 166 132 137
3 173 165 155
3 178 167 126
3 156 169 148
3 178 126 128
3 170 157 150
3 169 149 148
3 169 181 149
3 171 149 181
3 142 171 150
3 171 170 150
3 180 128 140
3 183 128 180
3 161 163 172
3 153 159 131
3 173 155 184
3 184 155 160
3 154 174 163
3 154 166 174
3 153 131 164
3 175 185 163
3 163 174 175
3 173 186 165
3 164 136 167
3 174 166 177
3 177 166 168
3 179 165 186
3 176 177 170
3 165 179 156
3 168 157 177
3 158 111 147
3 179 169 156
3 177 157 170
3 189 178 128
3 158 180 140
3 128 183 189
3 182 171 181
3 182 170 171
3 159 190 162
3 160 191 184
3 172 191 161
3 191 160 161
3 143 107 162
3 184 192 173
3 185 172 163
3 145 108 143
3 187 153 164
3 192 186 173
3 174 177 175
3 188 187 164
3 167 188 164
3 175 177 176
3 188 167 178
3 182 176 170
3 182 181 204
3 181 169 204
3 205 183 180
3 189 183 205
3 190 159 206
3 190 143 162
3 153 193 206
3 153 206 159
3 195 192 184
3 187 193 153
3 193 187 194
3 196 195 212
3 195 196 186
3 195 186 192
3 194 187 197
3 213 196 212
3 188 197 187
3 197 188 213
3 199 196 213
3 196 199 186
3 213 188 200
3 200 199 213
3 175 176 198
3 200 188 202
3 186 199 201
3 178 202 188
3 203 199 200
3 199 203 201
3 186 201 179
3 178 189 202
3 201 169 179
3 201 204 169
3 190 209 143
3 190 206 209
3 207 206 193
3 207 193 194
3 207 194 211
3 212 195 208
3 208 184 210
3 208 195 184
3 210 184 191
3 172 210 191
3 209 206 219
3 209 223 143
3 197 211 194
3 211 197 212
3 223 145 143
3 213 212 197
3 172 175 198
3 185 175 172
3 223 228 145
3 228 147 145
3 198 176 182
3 228 215 147
3 214 200 202
3 200 214 203
3 158 147 215
3 204 230 182
3 158 215 180
3 215 216 180
3 216 189 180
3 202 189 216
3 202 216 217
3 202 217 214
3 214 218 203
3 218 201 203
3 201 218 230
3 204 201 230
3 205 180 189
3 207 220 206
3 221 220 207
3 207 211 221
3 221 212 235
3 212 208 235
3 208 222 235
3 210 222 208
3 206 220 219
3 212 221 211
3 222 210 236
3 223 209 224
3 209 219 224
3 220 237 219
3 225 236 210
3 210 172 225
3 172 226 225
3 219 227 224
3 219 237 227
3 172 198 226
3 229 223 224
3 228 223 229
3 224 227 229
3 237 242 227
3 227 216 229
3 227 242 216
3 230 245 225
3 225 226 230
3 226 182 230
3 226 198 182
3 215 228 229
3 229 216 215
3 242 231 216
3 214 232 233
3 234 245 230
3 216 231 217
3 217 231 232
3 232 214 217
3 233 218 214
3 233 234 218
3 218 234 230
3 220 221 237
3 221 238 237
3 248 235 222
3 221 235 238
3 239 248 222
3 222 236 239
3 236 240 239
3 236 225 240
3 238 241 237
3 237 241 242
3 239 240 243
3 240 245 243
3 225 245 240
3 241 232 242
3 241 244 232
3 242 232 231
3 244 233 232
3 244 246 233
3 246 249 243
3 233 246 234
3 234 246 243
3 245 234 243
3 248 247 235
3 238 235 247
3 238 247 241
3 247 244 241
3 247 248 244
3 248 249 244
3 248 243 249
3 239 243 248
3 244 249 246
