ply
format ascii 1.0
element vertex 250
property float x
property float y
property float z
element face 500
property list uchar int vertex_indices
end_header
-0.333002 -0.061183 -0.748658
-0.347811 -0.053213 -0.264331
-0.340123 0.069451 -0.731065
-0.360942 0.029998 -0.258358
-0.271953 -0.224612 -0.664502
-0.268072 -0.212156 -0.321546
-0.309128 -0.168255 -0.713702
-0.317522 -0.152929 -0.282407
-0.286517 -0.148499 -0.192840
-0.288497 -0.109719 -0.821241
-0.331156 0.015321 -0.192011
-0.285994 0.009778 -0.855244
-0.289869 0.121942 -0.820032
-0.342181 0.100403 -0.283546
-0.278297 0.146055 -0.185339
-0.323365 0.153095 -0.724104
-0.317895 0.178532 -0.369778
-0.273059 0.227770 -0.654931
-0.273688 0.201200 -0.292330
-0.203461 -0.232676 -0.611080
-0.262544 -0.213454 -0.746037
-0.195884 -0.221327 -0.267857
-0.184605 -0.213797 -0.122306
-0.185976 -0.186676 -0.045069
-0.245054 -0.143634 -0.104409
-0.243454 -0.064117 -0.053602
-0.277630 -0.028441 -0.104397
-0.237692 0.071589 -0.049196
-0.271345 0.081925 -0.112763
-0.189558 0.202476 -0.113446
-0.270139 0.211364 -0.755702
-0.196533 0.190844 -0.819926
-0.184893 0.180364 -0.036262
-0.203930 0.228484 -0.207101
-0.196535 0.239305 -0.711334
-0.192041 -0.239621 -0.738570
-0.082026 -0.234162 -0.747194
-0.183792 -0.199477 -0.812662
-0.059123 -0.221345 -0.810619
-0.125309 -0.225384 -0.673127
-0.130075 -0.159190 -0.356970
-0.116270 -0.242252 -0.036276
-0.112694 -0.182361 -0.607060
-0.133985 -0.219795 0.051014
-0.166301 -0.140377 0.504849
-0.104788 -0.185911 0.562193
-0.209252 -0.068692 0.034038
-0.158605 -0.053229 0.578860
-0.178688 -0.036826 -0.894410
-0.204658 0.099806 0.076950
-0.162484 0.035442 0.604632
-0.196108 0.068776 -0.889336
-0.158273 0.129902 0.572313
-0.126666 0.193266 -0.598156
-0.120522 0.141035 -0.350819
-0.120575 0.204624 0.463369
-0.097200 0.197507 0.583701
-0.121001 0.228191 -0.679813
-0.184573 0.222257 -0.323039
-0.095719 0.186016 -0.242251
-0.113284 0.241947 -0.049618
-0.069001 0.234772 -0.721764
-0.119418 0.244980 -0.118365
-0.138551 -0.230763 -0.203674
-0.057614 -0.248704 -0.108295
-0.043835 -0.275679 0.033370
-0.031775 -0.247583 0.343773
-0.039103 -0.238048 0.493413
-0.100048 -0.194246 -0.237913
-0.036762 -0.231501 0.584440
-0.040209 -0.162635 -0.635668
0.016073 -0.144424 -0.836834
-0.082078 -0.051218 -0.570742
-0.069018 -0.066939 -0.276296
-0.088733 -0.005895 -0.346903
-0.054229 0.029929 -0.266361
0.027373 0.043660 0.782494
0.035557 0.033418 -0.888724
-0.083761 0.090221 -0.578474
0.020123 0.137670 -0.854224
0.025420 0.152654 0.740465
-0.046646 0.171900 -0.635708
-0.133016 0.219818 0.032896
-0.067720 0.219910 -0.798272
-0.144199 0.238663 -0.186696
-0.039299 0.276566 0.024379
-0.015221 0.277102 0.191086
-0.009706 0.239864 0.359569
-0.056909 0.232162 0.503919
-0.037283 -0.271395 -0.040089
0.004653 -0.288593 0.175515
0.035431 -0.290747 0.170737
0.032756 -0.250492 0.586633
0.070394 -0.207845 -0.619513
0.053673 -0.224190 -0.121631
0.025783 -0.217072 0.423062
0.056679 -0.172936 -0.592333
0.047883 -0.194852 0.722263
0.037821 -0.028156 -0.215730
0.025640 -0.084763 0.772711
-0.052452 0.035293 -0.605991
0.019996 0.099879 -0.195136
0.056376 -0.016564 -0.502035
0.103060 0.222331 -0.629747
-0.054056 0.251427 -0.107512
0.052627 0.224851 -0.115863
0.033477 0.222546 0.438823
-0.024419 0.240302 0.568516
0.058502 0.235816 0.653682
-0.035237 0.272140 -0.035811
0.040869 0.293316 0.088563
0.042567 0.283420 0.190864
0.039060 -0.296792 0.087326
0.031016 -0.276899 -0.030480
0.098964 -0.283179 0.022534
0.109408 -0.268729 0.149991
0.035896 -0.244216 0.294940
0.041391 -0.219464 -0.747740
0.026169 -0.244517 0.527011
0.053259 -0.241048 0.642417
0.108130 -0.245855 0.600955
0.162105 -0.237063 0.656027
0.158023 -0.203588 0.559726
0.092156 -0.142261 0.369878
0.115836 -0.184002 -0.506686
0.122403 -0.181316 -0.196749
0.105260 -0.112032 0.422784
0.060330 -0.031020 -0.881277
0.087044 -0.018650 -0.252924
0.135723 0.000706 0.402731
0.370866 -0.021088 -0.577096
0.115344 0.107376 -0.276910
0.094586 0.136160 0.408435
0.116557 0.183784 -0.505200
0.115805 0.178378 -0.181815
0.110714 0.144989 0.353487
0.065234 0.182359 -0.815829
0.038167 0.209271 0.356298
0.129005 0.214244 -0.705921
0.014038 0.246823 0.528407
0.034473 0.277838 -0.024325
0.059668 0.244246 0.270882
0.038558 0.251482 0.586539
0.102352 0.245344 0.587539
0.172818 0.239909 0.644491
0.120402 0.274584 0.029353
0.107553 -0.260270 -0.048994
0.254579 -0.213009 -0.496756
0.133646 -0.232030 -0.109271
0.182887 -0.229069 -0.034466
0.128107 -0.214117 0.274001
0.194669 -0.223832 0.196414
0.268610 -0.182821 -0.607431
0.193113 -0.225281 -0.496600
0.210603 -0.229013 -0.273139
0.178828 -0.229688 0.741836
0.197434 -0.055261 0.504678
0.104167 -0.141946 0.799258
0.192007 -0.061656 0.859383
0.343784 -0.096928 -0.586868
0.094986 -0.003561 0.824309
0.195787 0.054974 0.505680
0.344259 0.066790 -0.581380
0.111319 0.135554 0.801775
0.185058 0.069219 0.850703
0.194157 0.176465 -0.712178
0.161493 0.201395 -0.271132
0.169054 0.204271 0.567758
0.163622 0.228668 0.737431
0.253454 0.215153 -0.504215
0.133163 0.234446 -0.112963
0.196583 0.229781 -0.203934
0.106068 0.264001 -0.047329
0.176947 0.242164 0.181497
0.206835 -0.225793 -0.143948
0.220540 -0.192538 0.107777
0.231613 -0.197628 0.263220
0.281574 -0.224934 0.666144
0.247450 -0.191249 0.189479
0.255961 -0.194577 0.812357
0.274166 -0.083942 -0.009784
0.188958 -0.118765 0.359191
0.296631 -0.174966 0.332353
0.287118 -0.100365 0.123803
0.290524 0.056065 0.108049
0.191706 0.000251 0.392835
0.275655 0.090058 -0.024267
0.206001 0.123314 0.357576
0.220355 0.204357 0.108293
0.292500 0.180749 0.327189
0.246110 0.195756 0.807931
0.199133 0.229770 -0.075142
0.250881 0.197827 0.204638
0.273193 0.191218 -0.603416
0.193745 0.227067 -0.478052
0.225538 0.198420 0.270370
0.268025 -0.213876 -0.187958
0.342483 -0.237422 0.729360
0.277410 -0.172529 -0.115892
0.258778 -0.172963 0.596367
0.335795 -0.119692 -0.214091
0.324109 -0.162190 0.282048
0.283812 -0.086635 0.875151
0.358290 -0.136706 0.604754
0.354191 -0.120796 0.393879
0.326714 0.005247 -0.111607
0.337554 -0.045183 0.426264
0.397075 -0.008447 0.278843
0.296979 0.044918 0.872939
0.338444 0.048411 0.423067
0.326532 0.146438 -0.564210
0.326822 0.141152 -0.211088
0.286550 0.170554 -0.120277
0.257080 0.175424 0.598813
0.358941 0.123969 0.600136
0.323133 0.162487 0.281509
0.267731 0.214245 -0.168475
0.301525 0.227416 0.667283
0.321419 0.251084 0.752999
0.353441 -0.164090 0.350312
0.401905 -0.102122 0.356336
0.398764 -0.168534 0.639637
0.501079 -0.180037 0.844203
0.332329 -0.008182 0.569971
0.363393 0.015076 -0.202807
0.404488 0.000635 0.410069
0.355165 0.130069 0.386955
0.403369 0.099808 0.356140
0.354048 0.167014 0.348970
0.450024 0.161649 0.638126
0.565069 -0.213378 0.754875
0.496958 -0.223924 0.805340
0.439129 -0.002622 0.355082
0.438866 -0.080498 0.605759
0.436437 0.041253 0.596367
0.630441 -0.047878 0.866075
0.662271 0.067412 0.853220
0.482214 0.210660 0.800738
0.489514 0.229603 0.733031
0.560108 -0.151633 0.682795
0.563935 -0.034470 0.637442
0.584853 0.082347 0.654262
0.583281 0.170460 0.695193
0.642732 -0.147945 0.797718
0.645628 -0.163135 0.742441
0.670246 -0.061285 0.728752
0.634960 0.162314 0.782592
0.700430 -0.009845 0.826080
0.677380 0.096209 0.751297
0.698674 0.088083 0.821134
3 0 2 1
3 1 2 3
3 20 6 4
3 4 6 5
3 5 6 7
3 5 7 8
3 9 6 20
3 9 0 6
3 6 0 7
3 7 0 1
3 7 1 8
3 1 10 8
3 8 10 26
3 9 11 0
3 0 11 2
3 3 10 1
3 11 12 2
3 26 10 28
3 3 2 13
3 3 13 10
3 10 13 14
3 10 14 28
3 15 2 12
3 2 15 13
3 13 15 16
3 30 15 12
3 30 17 15
3 15 17 16
3 16 17 18
3 16 18 13
3 13 18 14
3 37 20 35
3 19 20 4
3 19 35 20
3 4 5 19
3 19 5 21
3 37 9 20
3 8 21 5
3 21 8 22
3 8 24 22
3 22 24 23
3 37 48 9
3 23 24 25
3 23 25 46
3 26 24 8
3 24 26 25
3 48 11 9
3 25 26 27
3 46 27 49
3 25 27 46
3 48 51 11
3 51 12 11
3 26 28 27
3 12 51 31
3 14 29 28
3 28 29 27
3 12 31 30
3 27 29 32
3 18 33 14
3 14 33 29
3 31 34 30
3 34 17 30
3 34 58 17
3 17 58 18
3 18 58 33
3 36 37 35
3 36 38 37
3 19 39 35
3 39 36 35
3 40 19 21
3 22 63 21
3 42 39 19
3 19 40 42
3 68 40 21
3 21 63 68
3 41 22 23
3 41 23 43
3 43 44 45
3 38 71 37
3 46 43 23
3 45 44 47
3 71 48 37
3 43 46 44
3 44 46 47
3 46 49 47
3 47 49 50
3 47 50 76
3 77 51 48
3 77 79 51
3 49 52 50
3 79 31 51
3 32 49 27
3 49 55 52
3 52 55 56
3 31 79 83
3 54 58 53
3 54 59 58
3 32 29 60
3 32 60 82
3 32 82 49
3 49 82 55
3 83 61 34
3 83 34 31
3 61 57 34
3 34 57 53
3 58 34 53
3 84 58 59
3 84 33 58
3 84 62 29
3 84 29 33
3 29 62 60
3 64 22 41
3 64 41 89
3 41 65 89
3 65 66 90
3 63 64 68
3 63 22 64
3 41 43 65
3 65 43 66
3 66 43 45
3 66 45 67
3 67 45 69
3 39 70 36
3 70 39 42
3 72 70 42
3 42 40 72
3 68 73 40
3 45 47 99
3 40 74 72
3 40 73 74
3 100 70 72
3 73 75 74
3 47 76 99
3 72 74 78
3 78 100 72
3 74 54 78
3 74 75 54
3 75 59 54
3 52 80 50
3 50 80 76
3 81 100 78
3 53 81 78
3 78 54 53
3 56 80 52
3 81 57 61
3 81 53 57
3 84 104 62
3 84 59 104
3 60 62 104
3 82 60 85
3 82 85 86
3 82 86 55
3 55 86 87
3 55 87 88
3 107 56 88
3 56 55 88
3 104 109 60
3 109 85 60
3 113 65 112
3 65 90 112
3 90 91 112
3 89 113 64
3 65 113 89
3 91 90 116
3 116 90 66
3 38 36 117
3 93 117 36
3 64 94 68
3 94 64 113
3 116 66 95
3 118 95 67
3 67 95 66
3 92 118 69
3 67 69 118
3 92 69 119
3 119 69 97
3 117 71 38
3 70 93 36
3 93 70 96
3 69 45 97
3 68 94 98
3 99 97 45
3 73 68 98
3 127 48 71
3 96 70 102
3 70 100 102
3 75 73 98
3 127 77 48
3 101 75 98
3 81 102 100
3 59 75 101
3 101 105 59
3 83 79 136
3 136 138 83
3 61 103 81
3 56 108 80
3 138 61 83
3 61 138 103
3 105 104 59
3 104 105 140
3 141 137 87
3 137 106 87
3 106 139 88
3 106 88 87
3 88 139 107
3 107 108 56
3 140 109 104
3 140 85 109
3 86 85 110
3 111 86 110
3 111 141 86
3 86 141 87
3 139 142 107
3 107 142 108
3 140 110 85
3 112 114 113
3 115 114 112
3 91 115 112
3 113 114 146
3 115 116 150
3 115 91 116
3 92 120 118
3 120 92 119
3 117 93 147
3 148 94 146
3 146 94 113
3 118 122 95
3 118 120 122
3 121 120 119
3 119 97 121
3 97 155 121
3 117 152 71
3 96 124 93
3 148 125 94
3 123 150 116
3 95 123 116
3 95 126 123
3 95 122 126
3 155 97 157
3 157 97 99
3 94 125 98
3 102 124 96
3 124 102 125
3 125 102 128
3 125 128 98
3 129 123 126
3 157 99 160
3 77 127 130
3 160 99 76
3 128 102 131
3 128 131 98
3 132 135 129
3 81 133 102
3 102 133 131
3 98 131 134
3 98 134 101
3 160 76 163
3 163 76 80
3 101 134 105
3 79 165 136
3 135 132 137
3 163 80 168
3 136 165 138
3 103 133 81
3 105 134 170
3 141 135 137
3 137 132 106
3 132 167 106
3 80 108 168
3 169 103 138
3 105 170 172
3 105 172 140
3 106 143 139
3 144 108 143
3 144 168 108
3 145 140 172
3 110 173 111
3 141 111 173
3 143 142 139
3 143 108 142
3 145 110 140
3 149 146 114
3 115 149 114
3 115 150 151
3 153 147 93
3 154 125 174
3 148 174 125
3 146 149 148
3 148 149 174
3 149 115 175
3 175 115 151
3 151 150 176
3 122 120 121
3 124 153 93
3 153 124 154
3 154 124 125
3 176 150 181
3 181 150 123
3 126 122 156
3 158 179 157
3 157 179 155
3 71 152 159
3 127 71 159
3 123 129 181
3 129 126 156
3 160 158 157
3 130 127 159
3 181 129 185
3 161 129 156
3 158 160 164
3 77 130 162
3 185 129 187
3 187 129 135
3 132 129 161
3 79 77 162
3 163 164 160
3 165 79 162
3 131 133 166
3 134 131 166
3 132 161 167
3 190 164 163
3 190 163 168
3 134 166 171
3 134 171 170
3 187 135 195
3 195 135 141
3 103 194 133
3 103 169 194
3 133 194 166
3 194 171 166
3 171 191 170
3 172 170 191
3 191 188 145
3 172 191 145
3 145 188 173
3 141 173 195
3 167 143 106
3 143 167 144
3 173 110 145
3 153 154 147
3 147 154 196
3 154 174 196
3 177 199 121
3 199 122 121
3 177 121 155
3 177 155 197
3 155 179 197
3 152 117 147
3 196 174 198
3 198 174 149
3 151 178 175
3 176 178 151
3 180 198 149
3 149 175 180
3 181 182 176
3 199 156 122
3 179 158 202
3 175 183 180
3 175 178 183
3 182 181 204
3 181 206 204
3 183 184 180
3 206 181 185
3 202 158 208
3 180 184 186
3 206 185 209
3 208 158 164
3 209 185 187
3 184 188 186
3 184 192 188
3 208 164 190
3 191 212 186
3 186 188 191
3 213 167 161
3 165 193 138
3 216 212 191
3 192 173 188
3 192 195 173
3 189 187 195
3 193 169 138
3 194 169 171
3 169 216 171
3 191 171 216
3 144 213 217
3 144 167 213
3 144 217 168
3 168 217 218
3 190 168 218
3 147 196 200
3 198 200 196
3 176 201 178
3 201 176 182
3 201 182 219
3 199 177 203
3 202 222 179
3 147 159 152
3 147 200 159
3 182 204 219
3 178 201 183
3 205 200 198
3 198 180 205
3 203 223 199
3 223 156 199
3 184 183 207
3 180 186 205
3 223 161 156
3 162 224 211
3 224 205 211
3 211 205 212
3 205 186 212
3 214 213 223
3 213 161 223
3 165 162 210
3 162 211 210
3 184 215 192
3 226 187 189
3 187 226 209
3 193 165 210
3 193 210 169
3 210 211 169
3 211 216 169
3 216 211 212
3 215 195 192
3 215 228 189
3 215 189 195
3 189 228 226
3 213 214 217
3 231 197 179
3 219 220 201
3 177 221 203
3 221 177 197
3 231 179 222
3 219 204 220
3 220 207 201
3 221 233 203
3 183 201 207
3 223 203 233
3 159 200 130
3 200 224 130
3 200 205 224
3 225 220 204
3 204 206 225
3 233 234 223
3 235 202 208
3 130 224 162
3 226 227 225
3 225 209 226
3 206 209 225
3 235 208 236
3 215 184 207
3 207 227 215
3 214 223 234
3 234 229 214
3 236 208 237
3 237 208 190
3 227 228 215
3 227 226 228
3 229 217 214
3 217 229 238
3 238 218 217
3 218 238 237
3 190 218 237
3 230 197 231
3 230 239 197
3 239 221 197
3 220 232 207
3 239 233 221
3 235 222 202
3 220 225 232
3 240 234 233
3 227 207 232
3 225 227 232
3 240 241 234
3 241 229 234
3 242 238 229
3 230 231 243
3 231 222 243
3 240 233 239
3 242 229 241
3 246 236 237
3 239 230 244
3 230 243 244
3 244 245 239
3 243 222 235
3 239 245 240
3 241 240 245
3 245 248 241
3 241 248 242
3 242 248 246
3 238 242 246
3 246 237 238
3 244 243 245
3 243 247 245
3 243 235 247
3 245 247 248
3 247 249 248
3 247 236 249
3 235 236 247
3 236 246 249
3 248 249 246
