ply
format ascii 1.0
element vertex 252
property float x
property float y
property float z
element face 500
property list uchar int vertex_indices
end_header
-0.531664 -0.075046 -0.173783
-0.483372 -0.153865 0.181814
-0.532389 -0.028183 0.183424
-0.535032 0.050114 -0.188127
-0.533951 0.036244 0.213865
-0.527702 0.118527 0.174705
-0.499604 0.142922 -0.188939
-0.417557 -0.209573 -0.205841
-0.417259 -0.200710 -0.031854
-0.429157 -0.215611 0.104022
-0.436249 -0.209698 0.183878
-0.491011 -0.146960 -0.195333
-0.456432 -0.204006 -0.044513
-0.421327 -0.163009 -0.280735
-0.448905 -0.153107 0.300312
-0.434276 -0.044684 -0.321075
-0.513406 -0.001251 -0.260315
-0.512674 -0.039284 0.255300
-0.429191 -0.059045 0.404831
-0.511679 0.065141 0.261979
-0.409091 0.006029 0.438640
-0.511110 0.084221 -0.252407
-0.479913 0.116118 0.287962
-0.432035 0.167148 -0.271433
-0.483959 0.189209 0.066163
-0.499113 0.154323 0.206230
-0.417763 0.205505 -0.178556
-0.406905 0.193509 -0.035246
-0.429231 0.217147 0.109083
-0.415364 0.219845 0.175228
-0.327568 -0.210560 -0.258751
-0.444506 -0.207284 -0.119644
-0.427023 -0.192969 0.256646
-0.342966 -0.201597 0.334952
-0.344174 -0.162885 0.430001
-0.324962 -0.089692 -0.049275
-0.356677 -0.074519 -0.343432
-0.349375 0.027712 -0.350022
-0.326672 0.009910 -0.046252
-0.435747 0.069860 -0.318172
-0.334987 0.098153 -0.046277
-0.382988 0.125061 0.424107
-0.425014 0.183505 0.278045
-0.343719 0.182594 0.410777
-0.356615 0.211039 -0.263236
-0.362599 0.205467 0.204242
-0.325629 -0.223827 -0.193996
-0.369468 -0.193639 0.133946
-0.372900 -0.206363 -0.137436
-0.361658 -0.165348 0.026972
-0.343595 -0.195858 0.259103
-0.262643 -0.206480 0.431784
-0.338697 -0.145356 -0.320779
-0.304448 -0.167120 0.213682
-0.276143 -0.173492 0.286107
-0.267211 -0.159775 0.494756
-0.312701 -0.093288 0.055453
-0.268726 -0.085801 0.176134
-0.346537 -0.076038 0.490098
-0.330395 -0.002701 0.516271
-0.308811 0.088858 0.065920
-0.337481 0.061406 0.501527
-0.345664 0.149318 -0.317968
-0.278330 0.111428 0.191735
-0.373145 0.183875 0.038617
-0.369298 0.205749 0.127596
-0.364777 0.191844 -0.126578
-0.270059 0.167033 0.273431
-0.329538 0.203186 0.328684
-0.307201 0.220166 -0.197961
-0.254389 0.202545 0.421946
-0.275389 -0.212285 0.367133
-0.269012 -0.184816 -0.143956
-0.207674 -0.210115 0.421141
-0.174804 -0.191697 0.495041
-0.237224 -0.076594 -0.097603
-0.303911 -0.007275 0.037866
-0.211978 -0.062789 0.262777
-0.222509 -0.054494 0.558746
-0.044925 -0.039309 -0.380977
-0.041086 0.034861 -0.380515
-0.287869 0.033873 -0.079894
-0.250040 -0.008898 0.184309
-0.218341 0.006444 0.243635
-0.264343 0.057955 0.542789
-0.203853 0.081475 0.280079
-0.030854 0.119688 -0.365885
-0.262818 0.163176 -0.128633
-0.290710 0.149027 0.485716
-0.219793 0.203677 0.379030
-0.181842 0.171229 0.505134
-0.271051 0.204322 0.346574
-0.039782 -0.236180 -0.264911
-0.119407 -0.236082 -0.189327
-0.109392 -0.197037 0.509916
-0.119193 -0.183902 -0.117608
-0.149290 -0.194772 0.444474
-0.093701 -0.158586 0.558332
-0.128316 0.041224 -0.074121
-0.192659 0.050415 0.576668
-0.130306 0.122471 -0.090444
-0.100667 0.134007 0.583065
-0.149637 0.183933 0.432733
-0.081055 0.229093 -0.264914
-0.188520 0.203966 0.432417
-0.022413 -0.259033 -0.198674
-0.048505 -0.232257 -0.107480
-0.036249 -0.153936 -0.340651
-0.057985 -0.169541 -0.034788
-0.016609 -0.181487 0.049967
-0.042620 -0.143829 0.572835
-0.120080 -0.076577 -0.078556
-0.052976 -0.108026 0.033294
-0.062389 -0.152715 0.516468
-0.089084 -0.010166 -0.035138
-0.060053 0.013592 0.038737
-0.053569 -0.003123 0.438605
-0.112880 0.001937 0.607102
-0.083316 0.115821 -0.050353
-0.020822 0.166285 0.043806
-0.099585 0.180331 -0.104479
-0.033192 0.205245 -0.036242
-0.064368 0.157065 0.552863
-0.098808 0.233854 -0.183910
-0.051119 0.235069 -0.127530
0.020565 -0.259594 -0.081931
0.014890 -0.227336 0.019703
0.060744 -0.180880 -0.968526
0.041102 -0.170843 -0.422110
0.009642 -0.158679 -0.364792
0.054998 -0.213034 0.112878
0.055989 -0.161986 0.197242
0.009486 -0.079594 -0.955662
-0.020441 -0.088363 0.112588
0.031905 -0.090559 -1.043089
-0.000325 -0.082554 -0.406608
-0.010313 -0.075879 0.576606
0.008819 -0.014541 0.189467
-0.002097 -0.006301 0.520794
-0.034463 -0.045392 0.606959
-0.004220 0.002228 -0.426881
-0.007941 0.052554 0.583689
0.005764 0.046961 -1.038415
0.010189 0.083780 -0.968743
-0.017407 0.055581 0.127781
0.002312 0.076561 -0.409062
-0.039072 0.077264 0.607818
0.055664 0.158314 0.191423
-0.040286 0.117144 0.501163
0.032336 0.156345 -0.428430
0.065201 0.181308 -0.960086
0.041415 0.202364 0.109447
0.019730 0.221719 0.042184
-0.000709 0.257978 -0.218675
0.011141 0.253092 -0.077042
0.055397 -0.272119 -0.180814
0.126127 -0.239258 -0.893650
0.095197 -0.240800 -0.351912
0.047814 -0.256128 -0.270530
0.114185 -0.252129 0.042647
0.123706 -0.247868 0.117097
0.133075 -0.214009 -0.978083
0.031439 -0.210100 -0.335373
0.121416 -0.229491 0.180411
0.111661 -0.192316 0.266805
0.067393 -0.123732 0.261627
0.093759 -0.135514 0.324756
0.143376 -0.141172 0.555440
0.082883 -0.064214 -1.072440
0.050313 0.011911 0.276980
0.069842 -0.017539 0.384062
0.102035 -0.028920 0.587482
0.048247 0.089628 -1.046474
0.106486 0.047718 0.580545
0.072826 0.074786 0.349562
0.072529 0.122903 0.284309
0.141132 0.149858 0.555204
0.106784 0.155520 0.338780
0.065937 0.204318 -0.430641
0.034619 0.209548 -0.348501
0.098367 0.185162 0.256955
0.126274 0.208715 -0.986636
0.138860 0.229641 -0.882087
0.105825 0.244464 -0.351856
0.051648 0.274718 -0.158988
0.097619 0.250329 0.034293
0.122817 0.239314 0.121269
0.123726 -0.265893 -0.225562
0.203034 -0.180140 -0.968808
0.141491 -0.202529 0.356415
0.196852 -0.225358 0.500268
0.093145 -0.141480 -1.046780
0.207956 -0.201327 0.590151
0.180926 -0.046876 -1.076280
0.213245 -0.135641 0.664135
0.190146 -0.009534 0.681511
0.196091 0.043806 -1.077100
0.090881 0.174487 -1.024352
0.194046 0.133346 0.656441
0.205631 0.222848 0.485908
0.207236 0.200145 0.591685
0.194036 0.187469 -0.966590
0.137139 0.237576 0.185627
0.172405 0.233571 0.278150
0.109192 0.266979 -0.227647
0.185967 0.234739 0.049804
0.174999 -0.223938 -0.872696
0.152760 -0.259977 -0.301958
0.207313 -0.228801 0.032994
0.181356 -0.247172 0.129944
0.200048 -0.238538 0.258963
0.261057 -0.210220 0.179109
0.191618 -0.122688 -1.036077
0.251439 -0.175773 0.042506
0.264744 -0.161288 0.638067
0.231772 -0.161590 -0.882911
0.253320 -0.077628 -0.957960
0.280382 -0.102107 0.032362
0.299462 0.017224 0.026818
0.236089 0.033659 -1.048403
0.271302 0.011138 -0.984896
0.258215 0.078170 -0.953259
0.165908 0.137474 -1.046374
0.267869 0.128555 0.028578
0.221498 0.183987 -0.887647
0.233633 0.191901 0.034525
0.261496 0.167081 0.642114
0.192274 0.216882 -0.876815
0.152764 0.251446 -0.328054
0.203816 0.231318 0.119778
0.205550 0.247685 0.204994
0.268199 -0.234405 0.326283
0.253328 -0.224518 0.512266
0.291348 -0.139169 0.116908
0.302624 -0.189882 0.489829
0.329569 -0.112588 0.204694
0.337691 -0.052540 0.653408
0.267238 -0.077160 0.704656
0.325837 -0.052490 0.120660
0.292575 0.004482 0.713793
0.333763 0.030424 0.122824
0.293092 0.142029 0.117923
0.341714 0.097033 0.191323
0.336212 0.059127 0.652543
0.262785 0.099171 0.699883
0.320119 0.162422 0.210833
0.296330 0.202047 0.503001
0.255687 0.225919 0.522683
0.268633 0.211395 0.176958
0.254605 0.234071 0.324651
0.352074 -0.025984 0.195872
0.367846 0.000165 0.630670
3 11 0 1
3 1 0 2
3 16 0 11
3 1 2 17
3 3 0 16
3 0 3 2
3 2 3 4
3 17 4 19
3 2 4 17
3 21 3 16
3 4 3 5
3 4 5 19
3 6 3 21
3 3 6 5
3 19 5 25
3 6 24 5
3 24 25 5
3 11 7 13
3 31 7 11
3 31 12 8
3 11 12 31
3 8 12 9
3 9 12 1
3 9 1 10
3 10 1 32
3 1 12 11
3 1 14 32
3 13 15 11
3 11 15 16
3 17 14 1
3 14 17 18
3 17 19 18
3 18 19 20
3 39 16 15
3 21 16 39
3 19 22 20
3 23 21 39
3 21 23 6
3 25 22 19
3 26 24 6
3 27 24 26
3 25 42 22
3 26 6 23
3 28 24 27
3 24 28 25
3 25 28 29
3 25 29 42
3 7 46 30
3 7 48 46
3 31 48 7
3 8 9 47
3 47 10 32
3 47 9 10
3 13 30 52
3 7 30 13
3 48 31 8
3 8 47 49
3 47 32 50
3 32 33 50
3 35 48 8
3 32 14 33
3 33 14 34
3 52 36 13
3 36 15 13
3 8 49 35
3 18 34 14
3 34 18 58
3 36 37 15
3 58 20 59
3 18 20 58
3 15 37 39
3 59 20 61
3 37 62 39
3 22 41 20
3 20 41 61
3 62 23 39
3 66 40 27
3 22 42 41
3 41 42 43
3 44 23 62
3 23 44 26
3 27 26 66
3 27 64 28
3 64 65 28
3 45 42 29
3 45 68 42
3 68 43 42
3 44 69 26
3 66 26 69
3 45 29 65
3 29 28 65
3 48 72 46
3 33 51 71
3 50 53 47
3 54 53 50
3 54 33 71
3 54 50 33
3 34 51 33
3 34 55 51
3 48 35 72
3 72 35 75
3 35 49 56
3 49 47 56
3 47 57 56
3 47 53 57
3 53 54 57
3 58 55 34
3 55 58 78
3 76 56 57
3 79 80 36
3 80 37 36
3 75 35 81
3 76 35 56
3 76 38 35
3 78 59 84
3 58 59 78
3 81 35 38
3 60 40 76
3 40 38 76
3 59 61 84
3 62 37 86
3 81 38 40
3 81 40 87
3 64 40 60
3 27 40 64
3 60 65 64
3 60 63 65
3 84 61 88
3 87 40 66
3 88 61 41
3 88 41 43
3 45 65 63
3 67 45 63
3 67 68 45
3 67 91 68
3 70 43 68
3 70 88 43
3 87 66 69
3 91 70 68
3 92 30 93
3 30 46 93
3 46 72 93
3 54 71 73
3 51 73 71
3 51 55 74
3 51 74 73
3 54 73 96
3 79 36 52
3 95 72 75
3 57 54 77
3 54 96 77
3 74 55 78
3 98 75 81
3 57 82 76
3 57 77 82
3 77 83 82
3 78 84 99
3 80 86 37
3 98 81 100
3 76 82 60
3 82 63 60
3 82 83 63
3 83 85 63
3 99 84 90
3 100 81 87
3 67 63 85
3 85 102 67
3 90 84 88
3 86 103 62
3 67 102 89
3 103 44 62
3 91 67 89
3 89 104 70
3 89 70 91
3 70 104 90
3 70 90 88
3 103 69 44
3 92 107 30
3 107 52 30
3 93 72 95
3 96 74 94
3 96 73 74
3 94 74 97
3 107 79 52
3 111 95 75
3 96 113 77
3 78 97 74
3 97 78 117
3 111 75 98
3 78 99 117
3 90 101 99
3 99 101 117
3 100 87 120
3 120 87 123
3 102 104 89
3 102 90 104
3 90 122 101
3 103 123 69
3 123 87 69
3 102 122 90
3 105 92 93
3 105 93 106
3 95 106 93
3 106 95 108
3 113 96 94
3 113 97 110
3 113 94 97
3 95 111 108
3 109 108 112
3 114 108 111
3 108 114 112
3 112 114 115
3 112 115 133
3 77 113 116
3 110 97 139
3 139 97 117
3 83 77 116
3 98 114 111
3 133 115 144
3 85 83 116
3 139 117 146
3 118 114 98
3 100 118 98
3 114 118 115
3 115 118 119
3 115 119 144
3 116 148 85
3 146 117 101
3 85 148 102
3 146 101 122
3 100 120 118
3 118 120 121
3 118 121 119
3 123 124 120
3 121 120 124
3 122 102 148
3 153 123 103
3 123 153 124
3 105 155 158
3 106 125 105
3 125 155 105
3 92 158 162
3 158 92 105
3 125 106 126
3 128 129 162
3 162 129 107
3 162 107 92
3 126 106 108
3 109 126 108
3 126 109 130
3 132 127 134
3 127 132 128
3 133 130 109
3 112 133 109
3 130 133 131
3 128 132 135
3 128 135 129
3 129 135 107
3 110 136 113
3 79 107 135
3 131 133 137
3 165 137 169
3 131 137 165
3 116 113 138
3 113 136 138
3 110 139 136
3 135 132 140
3 135 140 79
3 136 141 138
3 136 139 141
3 172 134 168
3 142 134 172
3 134 142 132
3 132 142 143
3 132 143 140
3 79 140 80
3 133 144 137
3 140 143 145
3 140 145 80
3 139 146 141
3 86 80 145
3 137 144 147
3 137 147 169
3 148 116 138
3 138 141 148
3 141 122 148
3 141 146 122
3 172 143 142
3 143 149 145
3 145 149 86
3 150 143 172
3 143 150 149
3 151 144 119
3 144 151 147
3 150 178 149
3 149 179 86
3 178 179 149
3 86 179 103
3 152 119 121
3 119 152 151
3 153 103 179
3 124 153 154
3 124 154 121
3 152 121 154
3 153 184 154
3 157 158 187
3 158 155 187
3 187 155 159
3 155 125 159
3 161 127 156
3 156 127 157
3 162 158 157
3 159 125 126
3 126 130 159
3 159 130 160
3 160 130 163
3 161 191 127
3 157 127 128
3 162 157 128
3 131 163 130
3 163 131 164
3 191 134 127
3 165 164 131
3 164 165 166
3 168 191 193
3 134 191 168
3 165 169 166
3 166 169 170
3 166 170 167
3 167 170 171
3 193 196 168
3 196 172 168
3 171 170 173
3 170 169 174
3 170 174 173
3 147 175 169
3 169 175 174
3 173 174 176
3 174 175 177
3 174 177 176
3 197 150 172
3 180 175 147
3 177 175 180
3 150 197 181
3 147 202 180
3 182 150 181
3 150 182 178
3 178 182 183
3 178 183 179
3 153 179 183
3 152 154 185
3 152 185 151
3 151 185 186
3 202 147 186
3 147 151 186
3 183 204 153
3 153 204 184
3 204 185 184
3 184 185 154
3 161 206 188
3 161 156 206
3 156 157 207
3 206 156 207
3 157 187 207
3 207 187 208
3 187 159 208
3 159 160 209
3 208 159 209
3 160 163 209
3 209 163 210
3 164 210 163
3 164 189 210
3 189 190 210
3 188 212 161
3 212 191 161
3 189 167 190
3 190 167 192
3 189 164 166
3 167 189 166
3 167 194 192
3 191 212 193
3 195 194 167
3 171 195 167
3 173 195 171
3 196 222 172
3 198 195 173
3 176 198 173
3 222 197 172
3 176 177 199
3 200 176 199
3 200 198 176
3 201 181 222
3 181 197 222
3 177 180 203
3 177 203 199
3 201 182 181
3 201 227 182
3 227 228 182
3 182 228 183
3 183 228 204
3 228 205 204
3 205 229 186
3 185 205 186
3 186 229 202
3 202 229 230
3 202 203 180
3 202 230 203
3 205 185 204
3 208 206 207
3 211 208 209
3 209 210 211
3 211 210 231
3 231 210 232
3 210 190 232
3 192 232 190
3 208 213 206
3 233 213 211
3 211 213 208
3 214 232 192
3 206 215 188
3 206 213 215
3 233 217 213
3 194 214 192
3 188 216 212
3 188 215 216
3 213 217 215
3 194 237 214
3 215 217 216
3 217 218 216
3 237 194 195
3 219 193 212
3 212 216 219
3 216 220 219
3 216 218 220
3 237 195 239
3 196 193 219
3 220 221 219
3 220 218 221
3 222 196 219
3 221 218 223
3 218 241 223
3 239 195 244
3 244 195 198
3 222 219 201
3 219 221 201
3 221 224 201
3 221 223 224
3 223 225 224
3 223 241 225
3 200 226 198
3 198 226 244
3 201 224 227
3 224 225 227
3 241 229 225
3 241 248 229
3 200 247 226
3 228 227 225
3 205 228 225
3 229 205 225
3 248 230 229
3 248 249 230
3 230 249 203
3 203 249 199
3 249 247 199
3 247 200 199
3 211 231 234
3 231 232 234
3 214 234 232
3 211 235 233
3 211 234 235
3 214 236 234
3 214 237 236
3 238 217 233
3 218 217 238
3 250 238 235
3 235 238 233
3 250 235 236
3 235 234 236
3 236 237 239
3 240 218 238
3 236 239 243
3 241 218 240
3 240 242 241
3 243 239 244
3 242 245 241
3 242 243 245
3 243 246 245
3 243 226 246
3 243 244 226
3 241 245 248
3 245 249 248
3 245 246 249
3 246 247 249
3 226 247 246
3 250 236 251
3 240 238 250
3 236 243 251
3 242 240 250
3 250 251 242
3 251 243 242
