ply
format ascii 1.0
element vertex 250
property float x
property float y
property float z
element face 500
property list uchar int vertex_indices
end_header
-0.697530 -0.192061 0.522832
-0.707670 -0.142494 0.598817
-0.748233 -0.124338 0.490340
-0.787054 -0.062067 0.556557
-0.779889 0.000292 0.496338
-0.785996 0.078781 0.548541
-0.772889 0.108880 0.507131
-0.716053 0.185105 0.517502
-0.732984 0.159261 0.576725
-0.595001 -0.209286 0.377002
-0.748262 -0.017864 0.607434
-0.559736 -0.235102 0.500403
-0.578941 -0.228560 0.612476
-0.522860 -0.204131 0.688201
-0.694074 -0.063613 0.643670
-0.509688 -0.094435 0.762909
-0.655512 0.078972 0.662726
-0.529646 0.088888 0.225919
-0.517963 0.163456 0.729171
-0.499633 0.182543 0.257724
-0.670078 0.205716 0.584494
-0.578340 0.237634 0.492256
-0.532605 0.226869 0.623564
-0.504041 -0.220505 0.370478
-0.482246 -0.202363 0.510172
-0.512598 -0.166534 0.254102
-0.492850 -0.031567 0.194657
-0.495065 0.046665 0.790562
-0.450766 0.221331 0.295683
-0.519897 0.227349 0.526785
-0.495578 -0.229592 0.635928
-0.408432 -0.205747 0.262220
-0.432802 -0.175113 0.431739
-0.420336 -0.129875 0.186971
-0.398593 -0.008511 0.503043
-0.459298 0.167401 0.503006
-0.419081 0.118562 0.185231
-0.430530 0.156609 0.450791
-0.496357 0.219323 0.447828
-0.406524 -0.217943 0.349024
-0.381345 -0.193330 0.652666
-0.411252 -0.187184 0.723915
-0.331373 -0.075246 0.444914
-0.358134 -0.087336 0.599519
-0.406476 -0.118024 0.790555
-0.447921 -0.032507 0.809947
-0.349445 0.079946 0.598854
-0.401333 0.102944 0.790724
-0.402351 0.187457 0.643215
-0.406955 0.188449 0.722993
-0.393002 0.217213 0.350039
-0.274874 -0.163827 0.381702
-0.216242 -0.167158 0.183802
-0.244300 0.012735 0.136405
-0.308317 0.037146 0.443291
-0.206200 0.177990 0.193339
-0.297175 0.129576 0.407221
-0.275878 0.155094 0.666553
-0.273779 0.211309 0.260318
-0.210277 -0.210366 0.278356
-0.187894 -0.198219 -0.871519
-0.186220 -0.200192 -0.632333
-0.250581 -0.114627 -0.893765
-0.225667 -0.104766 -0.583504
-0.264568 -0.154569 0.664324
-0.211896 -0.078067 0.402404
-0.192092 -0.079019 -0.960939
-0.259783 0.012670 -0.888740
-0.259805 0.006021 -0.569681
-0.191423 0.049435 0.401111
-0.252535 0.047247 0.630520
-0.182422 0.073935 -0.964458
0.082688 -0.030462 0.763310
-0.239001 0.094906 -0.589335
0.130192 0.105239 0.757679
-0.206200 0.182959 -0.864364
-0.175375 0.214362 -0.642233
-0.221976 0.176881 0.338462
-0.098791 -0.246452 -0.826980
-0.106617 -0.233564 -0.662647
-0.077409 -0.203994 0.209381
-0.138187 -0.178712 0.313373
0.069036 -0.155355 0.721803
-0.117055 -0.128722 0.139303
0.101579 -0.010367 0.650148
-0.131731 0.131938 0.139970
-0.108013 0.093045 0.352266
-0.072475 0.183876 -0.432834
-0.139267 0.205476 0.262930
0.064797 0.153742 0.726927
-0.085327 0.202135 0.206914
-0.091570 0.242703 -0.793090
-0.043048 -0.225085 -0.887966
-0.053317 -0.195601 -0.433462
-0.015400 -0.170128 -0.323031
-0.082980 -0.063203 -0.351979
0.121149 -0.134292 0.694040
-0.109896 -0.035693 0.372029
-0.146159 -0.006673 -0.419289
-0.026723 -0.020478 -0.271099
-0.041881 -0.096535 0.319689
0.176905 0.000266 -0.987766
-0.080445 0.029372 0.106643
-0.057940 0.103597 -0.329210
0.178812 0.106405 -0.951568
-0.040660 0.035222 0.337660
-0.127866 0.213959 -0.907202
0.001340 0.197071 -0.334582
-0.104248 0.237441 -0.630226
-0.046545 -0.226624 -0.735400
-0.030248 -0.217502 -0.575621
-0.020273 -0.173207 -0.666190
0.045133 -0.220176 -0.393238
0.053354 -0.229784 -0.317409
-0.048003 -0.200851 0.249461
0.058706 -0.174268 -0.697403
0.084234 -0.223422 -0.247462
0.042864 -0.144168 0.109898
0.197426 -0.084336 -0.960333
0.049430 -0.026617 0.290514
0.014580 0.050515 -0.674909
0.054913 0.125123 0.261828
-0.039190 0.208212 -0.667408
0.027023 0.150362 0.110414
-0.046678 0.177079 0.267166
0.050196 0.246798 -0.876374
-0.036964 0.219714 -0.575506
0.023695 0.202904 -0.438157
0.084893 0.233181 -0.320680
0.014896 -0.240696 -0.799705
0.004587 -0.187172 -0.574377
0.030017 -0.183111 -0.493110
0.049087 -0.178880 0.205149
0.179453 -0.133481 -0.387520
0.140557 -0.170955 -0.062002
0.039217 -0.050313 -0.579570
0.046150 -0.000815 -0.678740
0.104955 0.005190 -0.485416
0.102134 0.103955 -0.031877
0.039177 0.060949 0.069085
0.015424 0.157549 -0.572180
0.058274 0.152771 -0.499273
0.034513 0.182806 -0.728995
0.095082 0.118451 0.689425
0.046485 0.191415 0.192285
0.174678 0.213503 0.085225
0.082993 0.248580 -0.816589
0.199098 -0.205379 -0.880747
0.156891 -0.245126 -0.833155
0.220657 -0.231083 -0.727770
0.153475 -0.206354 0.101072
0.202825 -0.191219 0.160561
0.277725 -0.209583 -0.618803
0.281895 -0.144371 -0.499308
0.195324 -0.088876 0.217973
0.158254 -0.081934 0.721556
0.251981 -0.001855 -0.493223
0.223544 -0.024778 -0.394779
0.164865 -0.002328 0.675056
0.179589 0.087476 0.227541
0.159090 0.081948 0.734785
0.268101 0.151015 -0.520748
0.205122 0.131784 -0.391564
0.243224 0.246096 -0.044241
0.156884 0.224897 -0.706175
0.178168 0.195553 0.164658
0.233427 -0.236664 -0.282867
0.226243 -0.253124 -0.172434
0.268519 -0.249020 -0.015456
0.267627 -0.148838 0.183299
0.263053 -0.098165 -0.398266
0.283705 0.116824 -0.414473
0.303439 0.213121 0.123789
0.282821 0.097268 -0.891899
0.202137 0.222046 -0.842987
0.272089 0.234548 -0.656718
0.232394 0.234673 -0.284830
0.214957 0.257054 -0.208099
0.254325 0.242113 0.081235
0.362255 -0.295186 -0.209445
0.281906 -0.196162 -0.800512
0.338455 -0.276406 -0.049741
0.323493 -0.253577 0.039699
0.416856 -0.214018 0.106511
0.357318 -0.213393 -0.626640
0.352671 -0.218763 -0.531184
0.352793 -0.235420 -0.373975
0.280526 -0.111053 -0.899869
0.391551 -0.117979 -0.727002
0.342332 -0.036352 -0.840133
0.353802 -0.077292 0.183078
0.270427 -0.003905 -0.942838
0.337991 0.080303 0.180634
0.342440 0.089882 -0.810559
0.286517 0.180391 -0.369907
0.273434 0.193160 -0.826661
0.337385 0.202751 -0.700847
0.355751 0.220885 -0.441450
0.357089 0.249430 -0.334803
0.353648 0.262905 0.026021
0.383289 0.266167 -0.182101
0.425327 -0.246256 0.023372
0.483235 -0.155480 -0.546552
0.393755 0.035746 -0.750820
0.429519 -0.098048 0.200656
0.415760 0.032797 0.203975
0.480538 0.144096 -0.552141
0.446108 0.202276 -0.575482
0.407106 0.231755 -0.524496
0.437155 0.239214 -0.389310
0.408064 0.253784 0.030155
0.424235 -0.289804 -0.165390
0.435817 -0.281059 -0.273638
0.429178 -0.233209 -0.466984
0.510503 -0.201750 -0.403519
0.501154 -0.199762 -0.032941
0.495597 -0.198884 0.057217
0.655831 -0.179552 0.340477
0.495800 -0.034689 -0.600199
0.672283 0.123832 0.373669
0.528337 0.148278 -0.050294
0.508081 0.180114 0.059923
0.438194 0.202265 0.123813
0.560112 0.176836 -0.178172
0.446436 0.245239 -0.054805
0.556496 0.192274 -0.267245
0.545210 -0.191975 -0.239138
0.500443 -0.224489 0.123679
0.563367 -0.060710 -0.429595
0.577306 -0.115467 -0.131592
0.666661 -0.074558 0.396740
0.546615 -0.041920 -0.028469
0.550224 -0.014190 0.023114
0.555762 0.120768 -0.403769
0.490784 0.201882 0.104565
0.606456 -0.082663 -0.242129
0.716109 -0.075611 0.250171
0.600779 0.012804 -0.157427
0.607505 0.059907 -0.282530
0.649996 0.029801 0.160746
0.569113 0.114556 -0.106781
0.677320 0.171686 0.350164
0.710490 -0.157953 0.342568
0.741812 0.080877 0.342556
0.679565 0.164199 0.343496
0.725260 -0.114705 0.418034
0.779529 -0.042605 0.346235
0.775144 -0.036867 0.404503
0.761544 -0.014801 0.293311
0.730473 0.075642 0.409157
3 0 2 1
3 1 2 3
3 1 3 10
3 2 4 3
3 3 4 5
3 3 5 10
3 4 6 5
3 10 5 8
3 6 7 5
3 5 7 8
3 0 9 2
3 14 1 10
3 14 10 16
3 6 4 17
3 16 10 8
3 7 6 17
3 16 8 20
3 7 21 20
3 7 20 8
3 9 0 11
3 11 0 12
3 12 0 1
3 12 1 13
3 15 13 1
3 14 15 1
3 15 16 27
3 14 16 15
3 16 18 27
3 17 19 7
3 20 18 16
3 20 21 22
3 19 21 7
3 9 11 23
3 11 24 23
3 11 30 24
3 11 12 30
3 23 25 9
3 2 9 25
3 26 2 25
3 4 2 26
3 26 17 4
3 22 18 20
3 28 21 19
3 28 38 21
3 38 29 21
3 29 22 21
3 23 39 31
3 31 33 25
3 31 25 23
3 32 39 23
3 24 32 23
3 13 41 30
3 13 30 12
3 13 15 41
3 15 44 41
3 34 32 24
3 24 43 34
3 33 26 25
3 44 15 45
3 45 15 27
3 36 17 26
3 45 27 47
3 37 34 35
3 47 27 18
3 36 19 17
3 49 47 18
3 19 36 28
3 38 50 37
3 38 35 29
3 38 37 35
3 35 48 29
3 49 18 22
3 38 28 50
3 48 22 29
3 49 22 48
3 51 39 32
3 24 30 40
3 40 30 41
3 32 42 51
3 24 40 43
3 52 53 33
3 53 26 33
3 42 32 34
3 46 34 43
3 53 36 26
3 42 34 54
3 35 34 46
3 54 34 37
3 56 54 37
3 46 48 35
3 55 58 36
3 58 28 36
3 56 37 50
3 58 50 28
3 31 39 59
3 39 51 59
3 52 33 31
3 40 41 64
3 64 43 40
3 64 70 43
3 70 46 43
3 72 45 47
3 53 55 36
3 70 57 46
3 57 48 46
3 77 56 50
3 57 49 48
3 58 77 50
3 60 62 61
3 61 62 63
3 59 52 31
3 59 51 81
3 81 51 65
3 82 41 44
3 66 62 60
3 51 42 65
3 82 44 72
3 72 44 45
3 62 66 67
3 62 67 63
3 63 67 68
3 65 54 69
3 42 54 65
3 84 70 64
3 66 71 67
3 68 67 73
3 75 67 71
3 67 75 73
3 69 56 77
3 69 54 56
3 89 47 49
3 75 76 73
3 78 92 60
3 79 78 60
3 61 79 60
3 52 80 83
3 80 59 81
3 80 52 59
3 41 82 64
3 61 63 93
3 92 66 60
3 97 81 65
3 93 63 98
3 52 83 53
3 101 71 66
3 63 68 98
3 97 65 69
3 53 83 102
3 68 73 98
3 97 69 86
3 98 73 87
3 85 53 102
3 104 106 71
3 106 75 71
3 86 77 88
3 69 77 86
3 85 55 53
3 74 47 89
3 76 87 73
3 90 55 85
3 55 90 88
3 55 88 58
3 77 58 88
3 89 49 57
3 106 91 75
3 76 75 91
3 91 108 76
3 78 79 109
3 110 79 93
3 109 79 111
3 79 110 111
3 79 61 93
3 80 81 114
3 94 93 95
3 114 81 100
3 118 66 92
3 94 95 99
3 100 81 97
3 93 98 95
3 117 102 83
3 95 98 103
3 95 103 99
3 100 97 105
3 105 97 86
3 98 87 103
3 105 86 124
3 124 86 88
3 103 87 107
3 122 126 108
3 76 108 87
3 90 85 123
3 88 90 124
3 106 125 91
3 122 108 91
3 108 126 87
3 78 129 92
3 129 78 109
3 115 129 109
3 111 115 109
3 111 110 130
3 130 110 131
3 112 131 93
3 110 93 131
3 113 112 93
3 94 113 93
3 113 94 116
3 132 80 114
3 116 94 134
3 117 83 80
3 132 117 80
3 100 132 114
3 94 99 134
3 119 132 100
3 136 115 111
3 120 136 111
3 139 102 117
3 100 105 119
3 121 119 105
3 99 103 138
3 142 136 120
3 122 142 120
3 120 140 122
3 138 103 107
3 139 123 102
3 123 85 102
3 105 124 121
3 143 57 70
3 124 144 121
3 122 140 126
3 140 127 126
3 87 126 127
3 107 87 127
3 128 107 127
3 144 90 123
3 124 90 144
3 91 125 146
3 142 122 91
3 142 91 146
3 147 92 148
3 92 129 148
3 129 149 148
3 147 118 92
3 115 149 129
3 112 133 131
3 132 150 117
3 132 151 150
3 64 82 96
3 135 111 130
3 130 131 135
3 133 137 131
3 154 132 119
3 96 84 64
3 118 101 66
3 135 120 111
3 131 137 135
3 138 134 99
3 154 119 159
3 104 71 101
3 135 140 120
3 135 137 140
3 137 141 140
3 159 119 121
3 74 72 47
3 138 107 163
3 84 143 70
3 141 127 140
3 123 145 144
3 165 121 144
3 104 125 106
3 145 165 144
3 143 89 57
3 164 142 146
3 112 113 166
3 116 167 113
3 167 166 113
3 149 115 152
3 166 133 112
3 116 134 167
3 153 152 115
3 117 150 134
3 151 132 154
3 82 155 96
3 82 72 155
3 156 153 115
3 136 156 115
3 157 137 133
3 84 96 158
3 96 155 158
3 134 138 117
3 117 138 139
3 155 160 158
3 155 72 160
3 157 162 137
3 72 74 160
3 161 156 136
3 142 161 136
3 162 141 137
3 143 84 158
3 158 160 143
3 138 123 139
3 142 164 161
3 145 123 138
3 159 121 165
3 143 160 89
3 74 89 160
3 174 125 104
3 127 141 162
3 162 176 127
3 145 178 165
3 125 174 146
3 164 146 175
3 146 174 175
3 176 128 127
3 128 177 107
3 128 176 177
3 107 177 163
3 147 148 180
3 148 149 180
3 168 150 182
3 150 151 182
3 151 183 182
3 180 187 147
3 170 133 166
3 167 134 168
3 151 169 183
3 187 118 147
3 150 168 134
3 151 154 169
3 153 156 170
3 170 157 133
3 169 154 190
3 187 191 118
3 118 191 101
3 170 156 171
3 170 171 157
3 190 154 192
3 192 154 159
3 191 173 104
3 101 191 104
3 157 171 162
3 171 156 161
3 171 194 162
3 192 159 172
3 138 163 145
3 159 165 172
3 174 104 173
3 173 195 174
3 164 175 161
3 194 176 162
3 165 178 172
3 195 196 174
3 174 196 175
3 163 178 145
3 186 166 179
3 179 166 167
3 179 167 181
3 181 167 168
3 184 180 149
3 184 149 152
3 184 152 185
3 182 181 168
3 184 188 180
3 152 153 185
3 166 186 170
3 185 153 186
3 186 153 170
3 183 169 190
3 180 189 187
3 188 189 180
3 187 189 191
3 189 193 173
3 191 189 173
3 193 195 173
3 193 196 195
3 161 175 197
3 161 197 171
3 171 197 194
3 194 197 198
3 194 198 176
3 196 208 175
3 208 197 175
3 178 163 199
3 178 199 172
3 198 200 176
3 200 177 176
3 177 200 163
3 163 200 199
3 213 186 212
3 186 179 212
3 211 212 179
3 211 179 181
3 211 181 201
3 182 201 181
3 184 185 213
3 185 186 213
3 201 182 183
3 184 202 188
3 204 183 190
3 202 218 188
3 188 203 189
3 188 218 203
3 205 204 190
3 192 205 190
3 189 203 193
3 203 196 193
3 203 206 196
3 207 196 206
3 205 192 222
3 222 192 172
3 207 208 196
3 208 209 197
3 209 198 197
3 199 224 210
3 210 222 199
3 222 172 199
3 209 200 198
3 199 200 224
3 212 214 213
3 201 215 211
3 216 215 201
3 201 183 216
3 184 213 202
3 213 214 202
3 183 227 216
3 217 227 183
3 204 217 183
3 217 204 230
3 218 206 203
3 206 233 209
3 205 222 219
3 207 206 208
3 206 209 208
3 223 220 224
3 220 221 224
3 221 210 224
3 221 234 222
3 221 222 210
3 209 225 200
3 225 223 200
3 200 223 224
3 212 226 214
3 211 226 212
3 211 215 226
3 214 226 228
3 226 215 229
3 202 214 228
3 231 229 215
3 215 216 231
3 216 232 231
3 216 236 232
3 237 229 231
3 202 228 218
3 236 239 232
3 218 228 206
3 228 233 206
3 228 238 233
3 238 225 233
3 240 237 231
3 220 240 231
3 231 232 220
3 232 221 220
3 232 239 221
3 233 225 209
3 240 220 223
3 216 227 242
3 227 217 242
3 228 226 235
3 229 235 226
3 229 237 235
3 228 235 238
3 235 237 238
3 205 230 204
3 219 230 205
3 238 237 223
3 237 240 223
3 238 223 225
3 222 241 219
3 244 234 221
3 244 222 234
3 222 244 241
3 216 242 236
3 242 217 245
3 245 217 230
3 236 248 239
3 245 230 249
3 249 230 219
3 248 243 239
3 239 243 221
3 244 221 243
3 249 219 244
3 244 219 241
3 242 246 236
3 245 247 242
3 247 246 242
3 236 246 248
3 245 249 247
3 246 243 248
3 246 247 243
3 247 249 243
3 249 244 243
