ply
format ascii 1.0
element vertex 252
property float x
property float y
property float z
element face 500
property list uchar int vertex_indices
end_header
-0.491302 -0.156859 0.189757
-0.478174 -0.169953 0.432348
-0.510903 -0.073501 0.117236
-0.532405 -0.056090 0.198731
-0.504950 -0.054914 0.489731
-0.518727 0.047624 0.121649
-0.535165 0.054355 0.212055
-0.499713 0.092036 0.488013
-0.501783 0.151438 0.205997
-0.487054 0.177689 0.430891
-0.431646 -0.240950 0.289437
-0.429989 -0.163099 0.036188
-0.400434 -0.144863 -0.026052
-0.462564 -0.030852 0.019706
-0.431628 -0.172142 0.590333
-0.409148 -0.122065 0.672735
-0.406344 0.008971 -0.051422
-0.473949 -0.018972 0.593432
-0.432528 0.029083 0.665075
-0.455095 0.121396 0.035843
-0.408035 0.134202 -0.031760
-0.452995 0.116204 0.596563
-0.411018 0.132928 0.662956
-0.452323 0.185650 0.513246
-0.446275 0.211990 0.147956
-0.435902 0.236250 0.339366
-0.377571 -0.252396 0.145128
-0.379323 -0.256458 0.489529
-0.345633 -0.219877 0.652487
-0.338770 -0.141546 0.742697
-0.328838 -0.074781 -0.541797
-0.334785 -0.013118 -0.432072
-0.354262 -0.019437 0.757450
-0.330972 0.052483 -0.573228
-0.320417 0.090488 -0.434422
-0.285519 0.125881 -0.182241
-0.346300 0.119813 0.740301
-0.338994 0.223286 -0.020701
-0.353205 0.204855 0.655397
-0.347642 0.271331 0.136766
-0.318150 0.272077 0.518223
-0.343611 -0.270850 0.272130
-0.309833 -0.273895 0.459825
-0.333508 -0.232252 -0.019504
-0.257217 -0.290530 0.030632
-0.243290 -0.250402 0.224812
-0.253257 -0.225884 0.373826
-0.260936 -0.209632 -0.495873
-0.263177 -0.178280 -0.168344
-0.284563 -0.162876 -0.592798
-0.297237 -0.144004 -0.417045
-0.271016 -0.193799 0.736459
-0.244372 -0.158902 -0.270759
-0.277056 -0.009745 -0.218471
-0.298031 -0.051211 -0.674854
-0.278463 0.133174 -0.355291
-0.288793 0.161850 -0.582088
-0.249381 0.207987 -0.475283
-0.263191 0.288014 0.028930
-0.341760 0.278101 0.302711
-0.251269 0.239576 0.413319
-0.130172 -0.302816 -0.138115
-0.257111 -0.278928 0.141352
-0.232524 -0.278917 0.577214
-0.149021 -0.297164 -0.516047
-0.199120 -0.263003 0.670421
-0.171498 -0.218149 -0.817355
-0.227485 -0.219390 -0.641993
-0.192497 -0.253840 -0.355849
-0.187325 -0.170093 0.265504
-0.186205 -0.130181 0.420818
-0.246476 -0.108930 -0.812925
-0.203610 -0.128612 0.346951
-0.265765 -0.098974 0.779436
-0.207122 -0.067865 -0.898370
-0.255640 0.024834 -0.827040
-0.280758 0.049025 -0.277134
-0.203394 0.088331 -0.900296
-0.279418 0.118215 -0.683940
-0.266268 0.071906 0.787328
-0.190920 0.194470 -0.791574
-0.190470 0.074497 0.357433
-0.216379 0.235583 -0.628613
-0.221137 0.202441 -0.306597
-0.200400 0.181634 0.269175
-0.193875 0.159204 0.427034
-0.248923 0.187252 0.743940
-0.165363 0.271783 -0.220257
-0.257529 0.274947 0.152676
-0.225673 0.264148 0.652667
-0.123263 0.307500 -0.485555
-0.124177 0.317342 -0.095872
-0.222249 0.280355 0.543945
-0.133166 -0.305376 0.002586
-0.131747 -0.298507 -0.663199
-0.050012 -0.325086 -0.737927
-0.099122 -0.229981 0.118693
-0.189845 -0.233285 0.487194
-0.132915 -0.201691 -0.898231
-0.151877 -0.037229 0.267081
-0.086152 -0.085521 -0.949013
-0.105554 0.099988 -0.943136
-0.149524 0.053828 0.428444
-0.154073 0.099325 0.257791
-0.127508 0.201434 -0.894501
-0.098262 0.219614 0.122314
-0.135226 0.200594 0.480687
-0.117780 0.306959 -0.660920
-0.144287 0.305008 -0.000377
0.064852 -0.350256 -0.390677
0.016198 -0.349095 -0.109512
-0.020200 -0.254833 0.589353
-0.044490 -0.267713 0.644587
0.003642 -0.185567 0.714329
-0.121363 -0.118308 0.459725
-0.034204 -0.073221 0.166164
0.043514 -0.021522 0.753720
-0.032047 0.086873 0.165347
0.040027 0.128472 0.751803
0.003410 0.211777 0.722824
-0.025054 0.323873 -0.749981
-0.054225 0.267511 0.589618
-0.020609 0.261067 0.641471
0.011787 0.346758 -0.171399
0.017457 -0.370864 -0.624273
0.015360 -0.316307 -0.021476
-0.038756 -0.276881 -0.845938
-0.041537 -0.219943 -0.912134
0.039293 0.070197 0.503980
0.344717 0.096655 -0.954758
-0.040883 0.240198 -0.888407
-0.013827 0.319227 -0.033269
0.008186 0.371357 -0.632157
0.082662 0.377342 -0.545847
0.111110 -0.370203 -0.661963
0.122454 -0.176782 0.605011
0.092875 -0.208033 0.647623
0.034247 -0.187243 0.128613
0.018186 -0.168352 0.530651
0.361114 -0.078673 -0.960570
0.249495 -0.163205 0.329852
0.048213 -0.059556 0.181018
0.167382 -0.034709 0.592279
0.038025 0.067376 0.173834
0.168777 0.079941 0.587766
0.164948 0.075019 0.653636
0.256404 0.154554 0.353427
0.104389 0.182968 0.682016
0.283782 0.231253 -0.892238
0.061178 0.212262 0.125909
0.035840 0.162933 0.509710
0.088327 0.181256 0.585433
0.162980 0.343317 -0.747200
0.080821 0.337045 -0.055623
0.195152 0.328501 -0.425896
0.235465 -0.339047 -0.666134
0.143435 -0.336208 -0.290813
0.088789 -0.338829 -0.075815
0.254199 -0.277555 -0.341056
0.183243 -0.301396 -0.022337
0.146935 -0.301955 0.047721
0.327465 -0.207151 -0.893430
0.119497 -0.252102 0.124809
0.153376 -0.099839 0.659213
0.226197 -0.000673 0.354561
0.345228 0.250005 0.331918
0.130090 0.295015 0.052121
0.277805 0.248201 -0.285588
0.174846 0.301307 -0.016920
0.111315 0.340124 -0.129556
0.110145 0.380501 -0.670230
0.192117 0.356389 -0.646827
0.215696 -0.325701 -0.764393
0.244465 -0.318216 -0.501639
0.297810 -0.221215 -0.036603
0.332328 -0.240119 0.368077
0.284318 -0.115759 0.411902
0.308666 -0.071382 0.558466
0.272467 0.044638 0.450173
0.308724 0.095033 0.571980
0.293827 0.230034 -0.012890
0.346660 -0.264848 0.260743
0.346839 -0.241755 -0.828120
0.338588 -0.239016 -0.496047
0.369468 -0.126660 -0.294811
0.359015 -0.181802 0.050037
0.362114 -0.196171 0.583512
0.351020 -0.139693 -0.031094
0.363293 0.150715 -0.338494
0.344022 0.153674 -0.067520
0.339302 0.209884 0.456586
0.387273 0.218437 0.583077
0.362774 0.181781 0.048511
0.336796 0.244629 -0.814238
0.318133 0.235228 -0.461220
0.367468 0.258555 0.248293
0.417536 -0.268932 0.359759
0.432668 -0.269956 0.514416
0.423098 -0.179922 0.165532
0.413792 -0.224520 0.660442
0.421965 -0.116205 -0.896178
0.417912 -0.116471 -0.463293
0.401100 -0.092453 0.044861
0.358066 -0.131026 0.676939
0.427748 -0.187269 0.721204
0.371452 -0.078884 0.740039
0.439147 -0.007664 -0.952631
0.425949 -0.029054 -0.405947
0.375609 -0.003440 -0.060999
0.393831 0.047926 -0.299027
0.342230 0.075414 0.674083
0.378655 0.047490 0.753178
0.417005 0.111590 -0.908713
0.408381 0.097100 -0.460567
0.395399 0.085066 0.029586
0.434907 0.122055 0.109520
0.440014 0.192640 0.720189
0.360485 0.207171 -0.903258
0.409439 0.211963 0.681739
0.414835 0.247428 0.283705
0.418709 0.264314 0.441556
0.510447 -0.266509 0.661790
0.423685 -0.075276 0.773928
0.461266 -0.056721 0.124311
0.460887 -0.013091 -0.873359
0.457261 0.075394 0.782241
0.513387 0.258088 0.423949
0.477033 0.260550 0.652072
0.546753 -0.264591 0.496157
0.541072 -0.197761 0.336074
0.618706 -0.173704 0.420420
0.570112 -0.201182 0.743071
0.595454 -0.067053 0.313564
0.552978 -0.048258 0.801404
0.593847 0.069207 0.304318
0.588434 0.202112 0.746398
0.568708 0.179455 0.347088
0.597758 0.224476 0.465153
0.503389 0.274910 0.539144
0.586286 -0.260560 0.663225
0.631630 -0.217869 0.531304
0.656534 -0.174269 0.708401
0.661601 0.002472 0.406938
0.643287 0.128850 0.412220
0.649599 0.184933 0.513983
0.650640 0.174149 0.710592
0.570827 0.253900 0.656398
0.686758 -0.088327 0.518438
0.661290 -0.083750 0.780155
0.696238 -0.025379 0.729531
0.691781 0.052938 0.507025
0.633811 0.071145 0.784333
3 2 3 0
3 0 3 1
3 1 3 4
3 2 5 3
3 3 5 6
3 3 6 4
3 4 6 7
3 6 5 8
3 6 8 7
3 7 8 9
3 0 10 26
3 10 1 27
3 27 1 14
3 11 0 26
3 10 0 1
3 12 13 11
3 11 13 2
3 11 2 0
3 1 4 14
3 12 16 13
3 17 14 4
3 14 17 15
3 15 17 18
3 2 13 5
3 7 17 4
3 13 16 19
3 13 19 5
3 16 20 19
3 21 17 7
3 17 21 18
3 18 21 22
3 19 8 5
3 7 9 23
3 7 23 21
3 19 24 8
3 8 24 25
3 8 25 9
3 9 25 23
3 26 10 41
3 41 27 42
3 10 27 41
3 43 11 26
3 27 14 28
3 43 12 11
3 28 14 15
3 28 15 29
3 32 29 15
3 18 32 15
3 30 33 31
3 31 33 34
3 16 35 20
3 36 32 18
3 22 36 18
3 19 20 37
3 23 38 21
3 21 38 22
3 22 38 36
3 24 19 37
3 39 24 37
3 25 24 39
3 23 25 40
3 38 23 40
3 39 59 25
3 59 40 25
3 26 62 44
3 26 41 62
3 45 62 41
3 46 45 41
3 42 46 41
3 28 63 27
3 63 42 27
3 43 26 44
3 12 43 48
3 49 30 47
3 29 51 28
3 51 29 73
3 54 30 49
3 47 30 50
3 31 50 30
3 50 31 52
3 53 48 52
3 48 53 16
3 12 48 16
3 73 29 32
3 52 31 76
3 76 53 52
3 30 54 33
3 31 34 76
3 73 32 79
3 54 78 33
3 34 55 76
3 16 53 35
3 79 32 36
3 56 33 78
3 33 56 34
3 79 36 86
3 57 34 56
3 34 57 55
3 37 20 35
3 86 36 38
3 37 58 39
3 88 60 59
3 38 40 89
3 86 38 89
3 58 88 39
3 59 39 88
3 40 59 60
3 92 40 60
3 61 44 93
3 93 44 62
3 44 61 43
3 42 63 97
3 65 63 28
3 67 47 64
3 67 49 47
3 61 48 43
3 46 69 45
3 46 97 70
3 46 42 97
3 28 51 65
3 71 67 66
3 47 50 68
3 46 72 69
3 46 70 72
3 74 71 66
3 52 68 50
3 49 67 54
3 67 71 54
3 71 74 75
3 71 75 54
3 74 77 75
3 78 54 75
3 53 76 35
3 80 75 77
3 75 80 78
3 78 80 82
3 78 82 56
3 76 55 83
3 76 83 35
3 55 57 83
3 35 83 87
3 35 87 37
3 81 60 84
3 81 85 60
3 85 106 60
3 82 90 57
3 82 57 56
3 87 91 37
3 60 88 84
3 60 106 92
3 91 58 37
3 40 92 89
3 58 108 88
3 67 64 94
3 64 47 68
3 93 62 96
3 62 45 96
3 63 111 97
3 111 63 112
3 63 65 112
3 94 95 66
3 67 94 66
3 61 68 52
3 48 61 52
3 113 65 51
3 69 96 45
3 114 70 97
3 51 73 113
3 74 98 100
3 66 98 74
3 69 72 99
3 100 101 74
3 72 81 99
3 72 70 81
3 70 102 81
3 70 114 102
3 74 101 77
3 116 73 79
3 99 81 103
3 116 79 118
3 81 102 85
3 102 106 85
3 104 77 101
3 77 104 80
3 103 84 105
3 103 81 84
3 118 79 86
3 107 82 80
3 105 84 88
3 92 106 121
3 119 86 89
3 104 120 80
3 120 107 80
3 90 82 107
3 57 90 83
3 90 87 83
3 105 88 108
3 121 122 92
3 92 122 89
3 91 108 58
3 64 68 109
3 109 68 61
3 125 110 61
3 125 61 93
3 126 66 95
3 96 125 93
3 126 98 66
3 126 127 98
3 112 65 113
3 127 100 98
3 69 115 96
3 69 99 115
3 113 73 116
3 128 102 114
3 115 99 117
3 99 103 117
3 128 106 102
3 117 103 105
3 104 101 130
3 119 118 86
3 122 119 89
3 130 120 104
3 131 105 108
3 87 90 123
3 91 87 123
3 91 131 108
3 124 64 109
3 124 134 95
3 94 124 95
3 64 124 94
3 110 109 61
3 95 134 126
3 137 125 96
3 135 138 111
3 138 97 111
3 111 112 136
3 135 111 136
3 112 113 136
3 139 100 127
3 137 96 115
3 138 114 97
3 137 115 141
3 138 128 114
3 129 101 100
3 141 115 143
3 143 115 117
3 148 130 101
3 143 117 149
3 149 117 105
3 150 106 128
3 106 150 151
3 149 105 131
3 121 106 151
3 151 147 122
3 121 151 122
3 147 119 122
3 152 120 130
3 107 120 132
3 90 107 132
3 123 90 133
3 123 131 91
3 153 131 123
3 132 133 90
3 134 124 109
3 109 110 157
3 156 109 157
3 125 157 110
3 125 160 157
3 125 162 160
3 161 127 126
3 137 162 125
3 137 140 162
3 141 140 137
3 138 135 142
3 128 138 142
3 141 143 164
3 144 128 142
3 116 118 145
3 143 146 164
3 144 151 128
3 145 118 147
3 146 143 149
3 128 151 150
3 147 118 119
3 149 131 166
3 166 131 153
3 120 152 170
3 132 120 170
3 154 169 123
3 133 154 123
3 169 153 123
3 170 133 132
3 134 155 172
3 134 109 173
3 155 134 173
3 173 109 158
3 156 158 109
3 172 126 134
3 157 159 156
3 157 160 159
3 126 172 161
3 136 163 135
3 136 113 163
3 135 163 142
3 113 116 163
3 163 145 142
3 163 116 145
3 142 145 144
3 144 145 151
3 145 147 151
3 149 165 146
3 149 166 165
3 148 152 130
3 154 167 169
3 167 168 169
3 169 168 153
3 168 166 153
3 171 170 152
3 171 154 133
3 170 171 133
3 159 158 156
3 175 181 160
3 181 159 160
3 158 159 174
3 175 160 162
3 161 139 127
3 141 164 140
3 140 164 176
3 176 164 178
3 176 178 177
3 177 178 179
3 164 146 178
3 129 148 101
3 193 152 148
3 168 167 180
3 152 193 171
3 172 182 161
3 155 182 172
3 155 183 182
3 155 173 183
3 174 159 181
3 183 158 184
3 183 173 158
3 174 181 185
3 158 174 184
3 185 187 174
3 140 175 162
3 175 140 176
3 175 176 177
3 175 177 186
3 174 187 184
3 186 177 203
3 177 210 203
3 139 129 100
3 179 210 177
3 188 209 189
3 146 190 178
3 178 190 179
3 179 190 191
3 179 191 210
3 129 217 148
3 167 194 188
3 188 189 167
3 189 180 167
3 214 192 189
3 189 192 180
3 146 165 190
3 193 148 217
3 192 195 180
3 165 166 195
3 193 194 171
3 194 154 171
3 154 194 167
3 195 168 180
3 195 166 168
3 181 198 185
3 196 198 181
3 181 175 196
3 197 196 175
3 197 175 186
3 186 199 197
3 182 200 161
3 182 183 200
3 183 184 201
3 185 202 187
3 185 198 202
3 186 203 199
3 200 183 201
3 199 203 204
3 204 203 205
3 204 205 222
3 200 139 161
3 206 139 200
3 207 201 184
3 208 184 187
3 208 187 202
3 184 209 207
3 184 208 209
3 203 210 205
3 205 210 211
3 205 211 222
3 129 139 206
3 222 211 225
3 206 212 129
3 213 207 209
3 202 214 208
3 189 209 208
3 189 208 214
3 213 209 188
3 211 210 216
3 211 216 225
3 217 129 212
3 212 193 217
3 212 213 193
3 213 194 193
3 194 213 188
3 215 192 214
3 215 219 192
3 191 218 210
3 210 218 216
3 192 219 195
3 195 219 165
3 220 190 165
3 190 220 191
3 219 220 165
3 196 197 228
3 221 228 197
3 196 229 198
3 196 228 229
3 199 221 197
3 199 204 221
3 222 231 204
3 223 202 198
3 231 222 233
3 200 201 224
3 206 200 224
3 224 201 207
3 207 213 224
3 233 222 225
3 212 206 224
3 202 223 214
3 223 215 214
3 224 213 212
3 215 236 219
3 235 225 216
3 227 218 191
3 227 216 218
3 226 220 219
3 226 238 220
3 191 220 238
3 238 227 191
3 228 221 239
3 228 230 229
3 239 221 231
3 231 221 204
3 223 198 229
3 232 223 229
3 232 234 223
3 223 234 215
3 234 236 215
3 236 226 219
3 236 237 226
3 235 216 246
3 246 216 227
3 238 226 237
3 246 238 237
3 238 246 227
3 228 239 240
3 239 241 240
3 239 231 241
3 230 228 240
3 241 231 248
3 248 231 233
3 229 230 232
3 230 242 232
3 232 242 234
3 248 233 251
3 251 233 225
3 242 243 234
3 251 225 235
3 234 243 236
3 243 237 236
3 243 244 237
3 251 235 245
3 237 244 246
3 244 245 246
3 235 246 245
3 247 230 240
3 240 241 247
3 241 249 247
3 241 248 249
3 242 230 247
3 250 242 247
3 247 249 250
3 248 251 249
3 243 242 250
3 249 245 250
3 249 251 245
3 244 243 250
3 250 245 244
