ply
format ascii 1.0
element vertex 512
property float x
property float y
property float z
property float nx
property float ny
property float nz
end_header
-0.317253 -0.034856 -0.013809 -0.451590 0.018304 0.886086
-0.265850 -0.205919 0.144576 -0.344578 0.689399 0.625714
0.032826 -0.019976 -0.463840 -0.533152 -0.054445 0.825978
0.062096 -0.040470 0.202158 -0.319458 -0.051496 0.938573
0.052073 0.044547 -0.048835 0.669399 -0.251498 -0.691687
-0.467522 0.202104 0.084694 0.698841 -0.701212 0.110852
0.901123 0.003257 -0.030600 -0.677286 -0.103301 0.716811
-0.532589 -0.100888 0.053156 0.980983 0.174284 -0.002738
0.390746 0.033023 0.191031 -0.934473 -0.311262 -0.048798
-0.016631 -0.193863 0.241048 -0.293896 0.894575 0.297000
-0.296527 0.148184 0.385274 0.590013 -0.507072 -0.610150
-0.211040 0.128410 0.470482 0.573931 -0.392275 -0.709484
0.114716 0.072800 0.578116 -0.101729 0.074975 -0.989456
-0.325744 -0.024245 0.408256 0.577452 0.100294 -0.803722
-0.108217 -0.120162 0.141139 -0.208511 0.341796 0.912582
-0.238102 -0.208373 0.177352 -0.136518 0.770102 0.616408
0.484787 0.204649 -0.117057 0.076924 -0.977142 0.149761
0.219785 0.186049 0.153565 0.242224 -0.955765 -0.123820
-0.081160 0.209653 -0.333245 0.256551 -0.929452 -0.246804
0.315657 0.171434 0.032833 -0.525290 -0.657477 0.519279
0.255310 -0.173227 0.168039 0.728354 0.681749 0.048013
-0.265637 0.189054 -0.510840 0.099050 -0.951592 -0.246433
0.226938 0.191337 0.151839 0.245654 -0.951146 -0.120004
0.213226 -0.194904 -0.272355 -0.364189 0.638193 0.664366
-0.546541 0.025893 -0.651801 0.921513 -0.324309 0.208827
0.010304 0.190261 0.226861 -0.335135 -0.812016 0.465493
-0.117243 0.202391 0.479499 0.407365 -0.436300 -0.791620
-0.468976 0.153553 -0.545372 0.461055 -0.667898 -0.579021
0.684983 0.000973 0.045057 0.172259 0.053704 -0.981194
-0.343284 -0.023078 -0.441793 0.362270 0.252455 -0.895321
-0.317410 -0.060974 -0.718144 -0.335442 0.389719 0.844537
-0.317264 0.146842 -0.674524 -0.289226 -0.596319 0.733035
-0.093244 0.154296 -0.226347 0.631432 -0.377848 -0.675250
0.903954 0.053650 -0.022763 -0.674739 -0.107155 0.720207
-0.368517 -0.110426 -0.011143 -0.342590 0.457631 0.810320
0.098811 -0.078551 0.219822 -0.455505 0.190514 0.856179
-0.210947 0.242674 0.330396 0.390294 -0.826908 -0.390984
-0.079684 -0.225647 -0.336635 0.043809 0.912366 -0.377639
0.244173 0.190293 0.132655 0.233067 -0.958077 -0.111641
0.088153 0.218787 -0.301915 -0.259857 -0.804269 0.513013
-0.450330 -0.099416 -0.036210 -0.079729 0.430038 0.887806
-0.501714 -0.036849 0.206830 0.791088 0.174204 -0.579027
-0.366313 -0.138968 0.012388 -0.345824 0.456062 0.810171
0.800973 0.139937 -0.068898 -0.702142 -0.462029 0.519773
0.326099 0.199707 -0.084772 -0.434295 -0.882656 -0.070055
0.630260 0.193674 -0.036167 -0.022344 -0.893667 -0.415340
-0.031332 0.061953 0.583379 0.458988 -0.222335 -0.864872
-0.079208 -0.237057 0.436386 0.155178 0.776550 -0.603515
0.056503 0.229269 0.320741 -0.162928 -0.910654 0.372745
0.058178 -0.109351 -0.078721 0.702990 0.277105 -0.632450
0.206617 0.080651 0.161638 0.957026 -0.271864 0.036266
-0.210770 0.201266 -0.493453 -0.217754 -0.893019 0.372120
-0.330543 -0.069966 -0.012575 -0.342940 0.452716 0.812848
0.262126 0.212977 0.430457 -0.250593 -0.886231 -0.353921
0.259546 0.131691 0.519655 -0.216249 -0.498340 -0.833537
0.185366 -0.231506 -0.192878 -0.025264 0.984165 0.108666
0.070853 -0.061916 0.207588 -0.458432 0.193631 0.859755
0.716501 0.134601 -0.110852 -0.335739 -0.398218 0.850832
-0.247557 -0.054182 -0.351351 0.650995 -0.021534 -0.758869
-0.217847 0.145585 -0.593826 -0.316085 -0.656048 0.670960
-0.471386 0.004093 -0.059302 0.118266 0.048902 0.985065
-0.320703 -0.240669 0.237660 0.265450 0.953127 -0.122258
0.291430 0.171434 0.463780 -0.540286 -0.717299 -0.417245
-0.373516 -0.078411 0.368544 0.639298 -0.004532 -0.781956
-0.229998 -0.141022 -0.364625 0.532685 0.418382 -0.721453
-0.472018 -0.189804 -0.582504 0.159136 0.937413 -0.289080
0.079922 -0.200397 -0.342693 -0.263061 0.624995 0.724126
0.361839 0.105620 0.345106 -0.935465 -0.321129 -0.052699
-0.438577 -0.175927 -0.561015 0.421497 0.498955 -0.756248
0.204327 0.047691 0.193642 0.965528 -0.155148 -0.159576
-0.080156 0.107162 -0.183865 0.634774 -0.403628 -0.648226
-0.542367 0.058531 0.001338 0.972642 -0.186383 -0.105462
0.363882 0.114830 0.107009 -0.927191 -0.347884 -0.061150
-0.015138 0.027048 -0.111560 0.498487 -0.024898 -0.863774
0.547695 -0.106227 0.008257 0.124686 0.394027 -0.903151
-0.166267 0.052434 0.507277 0.455946 -0.222622 -0.851170
-0.422412 -0.021196 -0.733319 0.054760 -0.009169 0.993318
-0.102255 0.136483 -0.518358 -0.518691 -0.409409 0.743459
-0.024229 -0.125105 -0.130541 0.634466 0.358215 -0.683653
0.197198 0.088463 0.133407 0.830919 -0.148133 -0.518171
-0.161198 -0.092509 -0.271107 0.753309 0.359648 -0.544146
0.087624 -0.056044 -0.030466 0.709826 0.084489 -0.679248
-0.513104 0.000230 -0.058504 0.490471 0.089224 0.859266
0.209650 0.121846 -0.326696 -0.473089 -0.382024 0.785916
0.420015 0.031947 -0.241149 -0.243733 -0.113859 0.952892
-0.518968 0.108357 0.122686 0.913579 -0.343463 -0.166929
0.257067 -0.045024 0.541122 -0.352991 0.128574 -0.930832
0.162705 -0.209498 -0.073184 0.555931 0.713318 -0.407052
0.340301 -0.163699 0.219881 -0.640351 0.765356 -0.065088
0.203404 0.194111 -0.008255 0.274190 -0.925756 -0.244092
-0.226909 -0.113697 -0.622338 -0.547208 0.398875 0.722968
0.582516 -0.120688 0.002089 0.148583 0.407066 -0.893857
0.089445 -0.001219 -0.024058 0.820939 0.005314 -0.562882
0.010598 0.220192 -0.222417 0.365691 -0.855185 -0.340156
0.040260 0.191346 0.257701 -0.307086 -0.742072 0.588350
-0.125888 -0.018855 -0.567348 -0.461282 0.117257 0.872412
0.185156 -0.055187 0.139690 0.928815 0.257064 -0.236781
-0.407381 -0.184617 0.234330 0.539991 0.664540 -0.507773
0.061699 0.195518 -0.362069 -0.310458 -0.802891 0.480144
0.249700 -0.192138 0.053963 0.097467 0.995516 0.059476
0.833182 0.050444 -0.073589 -0.498717 -0.193697 0.832650
0.240480 -0.071323 0.541150 -0.355391 0.120819 -0.924989
0.730723 0.018726 -0.140697 -0.512120 -0.189325 0.824877
0.808256 -0.084180 -0.073669 -0.595440 0.515123 0.617300
0.232322 0.127362 0.238975 0.953757 -0.279478 0.044333
-0.372717 0.234531 0.206437 0.352252 -0.862225 -0.343005
-0.334692 0.125536 -0.695474 -0.286544 -0.580585 0.746310
-0.062597 0.070177 -0.513670 -0.541394 -0.160762 0.824719
-0.296436 0.130596 0.026423 -0.395167 -0.384168 0.820173
-0.301398 -0.062316 0.410904 0.580531 0.092878 -0.813428
-0.291127 -0.185298 -0.596345 -0.406172 0.732802 0.540342
0.238857 -0.210295 0.331692 -0.256471 0.963995 0.094796
-0.457703 0.159744 -0.544118 0.466930 -0.660404 -0.573825
-0.004395 0.183697 -0.168905 0.455882 -0.440901 -0.763320
0.803973 -0.143283 0.004892 -0.175935 0.286563 -0.932070
-0.224034 0.203359 -0.506597 0.085421 -0.958994 -0.247450
-0.535159 0.014395 -0.540001 0.705498 -0.071996 -0.686167
0.185225 0.039933 0.144449 0.979713 -0.136997 -0.154060
0.042597 0.111288 0.580579 -0.046279 -0.287003 -0.941369
-0.149029 0.111932 -0.260602 0.610312 -0.355154 -0.696596
-0.009889 0.216817 0.272304 -0.287072 -0.751094 0.576913
0.347892 -0.116014 0.316919 -0.894436 0.415217 -0.052322
0.242117 0.101370 -0.300857 -0.487744 -0.390876 0.769893
-0.242970 -0.084053 0.043347 -0.465130 0.429024 0.764389
-0.344338 0.033481 -0.047932 -0.354509 -0.436500 0.824974
-0.001100 0.096965 0.598045 -0.037819 -0.297057 -0.945491
0.097923 -0.078482 0.587634 -0.528494 0.092151 -0.841140
0.234619 0.205366 -0.014254 0.272756 -0.917684 -0.247857
-0.071384 0.030595 0.611882 0.963422 -0.142209 -0.140435
0.012393 0.209053 0.262254 -0.361482 -0.745768 0.550811
0.048638 -0.028267 0.615267 -0.511762 0.099773 -0.848631
-0.107982 -0.228828 0.232231 -0.135241 0.764858 0.617754
-0.069893 0.016466 -0.168839 0.705223 0.005596 -0.721732
-0.430511 -0.187797 -0.551309 0.408718 0.493567 -0.752541
0.173219 -0.003293 0.575197 -0.100052 0.076900 -0.987526
-0.485280 -0.193546 -0.616881 0.732190 0.643757 0.174753
-0.059346 0.114386 0.587201 0.810736 -0.551588 -0.136266
0.587644 0.024519 -0.193773 -0.328187 -0.057344 0.937298
-0.371230 -0.189471 -0.528354 0.304194 0.649914 -0.680556
0.189005 -0.155402 0.049030 0.648106 0.694534 -0.321775
0.132598 -0.018176 0.577951 -0.091293 0.070474 -0.983642
0.387177 0.083700 -0.008371 -0.546431 -0.166947 -0.828138
0.002069 -0.045639 -0.106497 0.413803 0.209279 -0.877595
0.160364 0.102184 0.043994 0.709403 -0.379667 -0.574546
0.397376 -0.026326 0.114392 -0.991071 0.050729 -0.108702
0.428948 -0.204944 -0.143499 0.001590 0.909024 -0.412500
-0.269440 0.109753 0.441152 0.581981 -0.372713 -0.716836
-0.213048 -0.033441 -0.306236 0.644650 -0.022548 -0.753774
-0.172175 0.213738 0.447851 0.338005 -0.808774 -0.473543
-0.113753 -0.157380 -0.227818 0.617068 0.378975 -0.673227
-0.151117 0.262292 0.345082 0.357500 -0.846194 -0.389716
0.293565 0.213058 -0.121152 -0.264879 -0.949081 0.041867
0.189781 0.042761 0.562040 -0.102906 0.070635 -0.995095
-0.009884 -0.083091 0.651434 -0.441638 0.247544 -0.852715
0.174831 -0.105875 -0.345791 -0.487308 0.289227 0.818711
0.492899 -0.033289 0.011805 0.307620 0.324599 -0.883824
-0.093350 0.249546 0.346442 -0.215458 -0.948986 0.176821
-0.219062 -0.194694 0.411264 0.480847 0.519583 -0.700601
-0.062575 0.127556 0.177738 -0.526035 -0.319956 0.782785
-0.288971 0.064423 -0.387417 0.588660 -0.347179 -0.702644
-0.481764 -0.102613 -0.036640 -0.083955 0.434315 0.894719
0.587085 -0.036116 -0.193019 -0.216464 0.080792 0.968443
-0.083462 0.251567 0.295541 -0.223641 -0.953094 0.168666
-0.050783 -0.012468 -0.123935 0.493518 -0.028925 -0.865596
0.763298 -0.023364 -0.120057 -0.388470 0.078850 0.915241
-0.331757 0.017607 -0.420647 0.615503 0.082776 -0.773004
0.194348 0.032873 0.221653 0.967044 -0.156235 -0.146576
0.182800 -0.170677 0.011012 0.581993 0.620451 -0.514852
-0.042666 -0.075565 -0.139508 0.429935 0.211928 -0.869141
-0.462953 -0.129161 -0.689844 0.402046 0.610815 0.663582
0.359540 0.120935 0.200709 -0.930673 -0.344458 -0.068630
0.319776 0.028128 -0.272332 -0.319849 0.094846 0.934182
0.342698 -0.204864 -0.109611 -0.287258 0.896019 -0.305661
0.153371 0.149244 -0.336372 -0.492607 -0.383453 0.772788
0.780653 0.071423 -0.092951 -0.504083 -0.209097 0.829881
-0.222188 -0.131942 -0.364357 0.530397 0.423786 -0.729733
0.541081 0.135191 -0.014174 0.217228 -0.327699 -0.917507
-0.142428 -0.080955 -0.563573 -0.503634 0.408917 0.748619
-0.270840 0.049647 -0.677096 -0.904379 -0.270988 0.314434
0.154120 0.230799 0.475879 -0.202662 -0.913905 -0.352880
0.325210 0.197373 0.178342 -0.772770 -0.623452 -0.007053
-0.220938 -0.102329 -0.325507 0.808522 0.259235 -0.510333
0.021071 -0.064663 -0.462447 -0.439796 0.323557 0.830634
-0.078505 0.009353 0.566869 0.497898 0.092686 -0.853042
-0.245931 0.107725 0.445574 0.583112 -0.389771 -0.707650
0.212320 -0.228134 -0.142654 0.158399 0.974115 -0.088350
-0.038040 -0.073996 0.578420 0.365862 0.282939 -0.885612
0.015120 -0.229839 -0.317057 -0.136596 0.902029 0.382028
0.113792 0.104549 0.248544 -0.295202 -0.176184 0.937880
-0.165021 0.011369 0.521036 0.507121 0.090754 -0.845864
0.544596 -0.203476 -0.131221 0.044670 0.955535 -0.273612
-0.371230 -0.125734 -0.002581 -0.346493 0.461415 0.809075
0.054011 -0.127879 -0.101855 0.426487 0.606650 -0.662519
0.006339 0.055387 -0.452164 -0.538761 -0.171528 0.814497
-0.335419 -0.192636 -0.551071 0.121133 0.910453 -0.388793
-0.290752 0.179595 0.364763 0.588801 -0.530137 -0.598522
0.250223 0.217072 -0.000713 -0.169632 -0.946513 -0.261175
0.160090 0.016627 0.575586 -0.094056 0.076545 -0.983062
0.288867 -0.204184 0.323187 -0.241174 0.955811 0.080951
0.392166 -0.184398 -0.111839 -0.003247 0.904480 -0.412398
-0.063713 0.175993 -0.460285 -0.518553 -0.416416 0.734909
-0.239734 -0.190959 -0.464927 0.155440 0.962895 -0.208812
0.277705 -0.194328 0.093900 -0.130812 0.984861 0.011571
-0.432532 0.072656 -0.055255 0.068290 -0.354859 0.929758
0.763351 0.149272 -0.073312 -0.344763 -0.505954 0.789492
-0.334372 -0.033202 0.396481 0.574009 0.090902 -0.816050
0.033971 -0.078700 -0.439457 -0.494413 0.393333 0.757692
-0.062801 -0.022201 0.137581 -0.451591 0.185112 0.869501
0.029481 -0.062645 0.178598 -0.323548 -0.051308 0.943755
-0.187523 -0.109379 -0.563258 -0.514890 0.402928 0.745674
-0.026913 -0.167135 -0.177644 0.432383 0.612339 -0.651108
0.738559 0.107567 -0.115058 -0.350030 -0.506968 0.780655
0.572239 0.068354 -0.213734 -0.196719 -0.318660 0.928856
0.025878 0.144348 0.586019 -0.276295 -0.555292 -0.777447
0.542351 0.003587 -0.209518 -0.316375 -0.065342 0.934942
0.003718 0.237739 0.337701 -0.213881 -0.948788 0.174029
-0.048859 0.225558 0.461297 0.042319 -0.785937 -0.607856
0.203066 0.181491 -0.272192 -0.369727 -0.664663 0.638467
0.719812 -0.020021 -0.149525 -0.380189 0.071892 0.916526
-0.000283 -0.229046 -0.283922 0.158835 0.980252 0.111532
0.340592 0.149680 0.289742 -0.935748 -0.340482 -0.067576
0.155484 -0.197659 0.483857 -0.073613 0.732930 -0.678965
0.890783 0.014220 0.015861 -0.623922 -0.055774 -0.761333
-0.094795 0.199226 0.479274 0.176093 -0.766262 -0.598485
0.236242 -0.158562 0.512115 -0.148345 0.495190 -0.852289
0.155927 0.168774 0.280377 -0.265230 -0.532291 0.795500
0.084464 0.134393 0.565968 -0.223218 -0.580218 -0.781212
0.231461 0.193259 0.025756 0.236394 -0.965336 -0.109326
-0.065284 0.157916 -0.464623 -0.516102 -0.408925 0.748623
0.673252 -0.149878 -0.119177 -0.622268 0.429900 0.647362
-0.455512 -0.003771 -0.062844 0.113042 0.045261 0.995823
0.076780 -0.169116 -0.368088 -0.359327 0.626536 0.683644
0.092033 0.051629 -0.413904 -0.539112 -0.079665 0.829627
0.373161 -0.125290 0.258292 -0.937893 0.323163 -0.054869
0.177092 -0.189620 0.495859 -0.149870 0.487213 -0.844701
-0.263005 -0.102926 -0.628976 -0.792661 0.231440 0.553038
0.477612 -0.187936 -0.120697 0.003317 0.912276 -0.403598
0.064384 -0.085103 -0.423842 -0.506784 0.388168 0.750008
-0.182660 -0.116641 0.097830 -0.475039 0.427701 0.768076
-0.057651 -0.111796 -0.480942 -0.510244 0.398407 0.757314
-0.207660 -0.000659 0.491670 0.508469 0.090765 -0.848507
-0.178387 0.120439 -0.585096 -0.452292 -0.320132 0.819780
0.139194 0.173345 -0.327540 -0.374838 -0.668939 0.635494
0.598187 0.205214 -0.086626 -0.048278 -0.993417 0.061599
0.022183 -0.114179 0.623625 -0.450737 0.255083 -0.854628
0.285648 0.198743 0.331165 0.194470 -0.968578 -0.026776
-0.071978 0.223454 -0.326923 0.379603 -0.906371 -0.150221
-0.526149 0.097007 -0.547518 0.599573 -0.635725 -0.464337
-0.456882 -0.145036 -0.697604 0.393292 0.620948 0.680564
0.714831 -0.040180 -0.147444 -0.378587 0.056072 0.922702
-0.012661 -0.211679 0.259299 -0.295182 0.898337 0.311031
-0.395901 0.069403 -0.469941 0.325259 -0.074230 -0.927156
0.186703 -0.214076 -0.271003 -0.272513 0.793768 0.522408
-0.271639 -0.233446 0.214878 0.113275 0.984112 0.080981
0.205575 0.033358 0.569675 -0.364279 0.119309 -0.914147
0.826843 0.132146 -0.037589 -0.709669 -0.460263 0.531282
-0.439818 -0.188084 -0.586706 0.296596 0.923378 -0.223998
0.075374 -0.219348 0.483630 -0.185360 0.881171 -0.424431
-0.016869 -0.215241 -0.337606 -0.137124 0.906253 0.387994
0.706558 0.055033 0.054043 0.071313 -0.179489 -0.973214
0.389754 0.202502 -0.113846 0.083445 -0.976629 0.144555
0.178018 0.077911 0.567828 -0.108501 0.076411 -0.992290
-0.051059 0.093011 0.164943 -0.526368 -0.313214 0.782729
-0.054100 -0.066317 -0.501225 -0.503567 0.403809 0.755747
-0.277312 -0.199036 -0.496917 0.157975 0.961276 -0.210598
0.881868 0.109965 -0.016339 -0.867476 -0.414233 0.254053
-0.279942 0.214757 0.336208 0.593260 -0.536942 -0.596424
0.165825 0.164804 0.283566 -0.176196 -0.347875 0.911705
0.367027 -0.116778 0.300247 -0.939325 0.332164 -0.062694
0.558635 -0.197378 -0.112071 0.057679 0.958973 -0.258263
-0.197651 0.174861 -0.393301 0.465265 -0.743263 -0.458303
-0.015772 0.027573 -0.118636 0.455467 -0.226909 -0.844707
0.185739 -0.179134 0.004898 0.581112 0.624716 -0.515397
-0.110778 -0.164218 -0.478023 -0.348521 0.661762 0.657908
-0.182673 0.124245 -0.293324 0.668542 -0.371366 -0.631925
-0.005871 -0.227117 -0.282387 0.148552 0.982444 0.104831
0.289993 0.199270 0.018382 -0.167712 -0.939596 -0.260975
-0.001110 -0.193650 0.228945 -0.252544 0.861172 0.431651
-0.236852 -0.139825 0.081049 -0.472051 0.428707 0.760088
-0.022673 -0.213145 -0.355102 -0.135089 0.907011 0.394509
-0.102687 -0.154286 -0.225429 0.625069 0.379638 -0.664624
-0.176524 -0.030406 0.503345 0.504253 0.099206 -0.859949
0.758435 -0.109836 0.014177 -0.166358 0.296925 -0.926960
-0.136814 -0.106475 -0.527269 -0.495612 0.398764 0.755494
-0.222961 -0.045616 -0.295819 0.757816 0.368014 -0.548426
-0.223785 0.206637 -0.513196 -0.220338 -0.896371 0.368573
-0.524587 -0.113058 0.065680 0.967797 0.157515 -0.002222
-0.300289 -0.203719 0.124326 -0.346817 0.694639 0.622428
-0.236791 0.036711 -0.633563 -0.599223 0.080670 0.788107
-0.258259 0.184968 -0.434812 0.408916 -0.730011 -0.536002
-0.326722 -0.100842 -0.701066 -0.329494 0.393534 0.852730
0.269197 -0.020932 0.523731 -0.347734 0.128898 -0.929647
-0.220782 0.148770 0.440236 0.567898 -0.395071 -0.704721
0.173930 -0.181975 -0.018311 0.588005 0.625296 -0.516399
0.436500 0.050807 -0.228805 -0.244657 -0.110982 0.960001
-0.080029 -0.084002 0.585169 0.969157 0.210906 -0.064158
0.581467 0.174120 -0.145234 -0.363257 -0.506234 0.764617
-0.074076 -0.062050 -0.163109 0.679563 0.052563 -0.727379
-0.019872 0.224110 0.281405 -0.215844 -0.960913 0.180111
-0.363303 0.060310 -0.445354 0.618823 0.084483 -0.769257
0.145352 0.005778 -0.390983 -0.543257 -0.063492 0.819261
-0.093786 0.203417 -0.347723 0.264182 -0.926811 -0.244130
0.362910 0.068986 0.469637 -0.864916 -0.368914 -0.321803
-0.542093 -0.047409 0.087910 0.953743 0.150855 -0.215851
0.338198 -0.129358 -0.237651 -0.349382 0.327280 0.869025
0.341640 0.044800 0.504464 -0.722575 0.062870 -0.678246
0.175878 0.149781 -0.311400 -0.309202 -0.503432 0.785258
0.362479 0.067680 0.403459 -0.930278 -0.333541 -0.066545
-0.250800 0.214205 0.128818 -0.400534 -0.680562 0.606670
0.734253 -0.026415 0.052534 -0.161071 0.039119 -0.970262
-0.223316 -0.077607 0.054198 -0.468367 0.416837 0.753425
0.265106 -0.132444 -0.289259 -0.694021 0.365121 0.607495
0.352066 -0.009609 -0.266066 -0.322793 0.101566 0.936479
-0.500629 -0.169443 0.037417 0.672252 0.737262 -0.005128
-0.307487 -0.217577 0.112139 -0.348267 0.696682 0.628334
-0.424598 0.153340 -0.005306 -0.150006 -0.709774 0.674834
0.408541 0.023473 0.015329 -0.836319 -0.077349 0.536618
-0.323168 0.207973 0.319573 0.586845 -0.526347 -0.600565
-0.331235 0.036311 -0.417792 0.623473 0.086638 -0.773802
-0.060175 0.083017 -0.161060 0.643856 -0.389453 -0.655968
-0.533805 0.013338 -0.665101 0.908276 -0.027644 0.420752
0.213848 0.192617 0.337642 0.133400 -0.964127 0.212271
-0.071310 0.149517 -0.484669 -0.513734 -0.412914 0.739661
-0.390501 0.181674 0.252733 0.730388 -0.458053 -0.503266
-0.127240 0.231654 0.219415 -0.101778 -0.944264 0.304432
0.005271 -0.225651 -0.268033 0.158421 0.976660 0.097258
0.828691 0.075266 -0.070536 -0.505267 -0.203213 0.833083
0.318128 -0.185180 -0.000116 -0.602921 0.784648 -0.071090
-0.368139 0.239278 0.163503 0.216495 -0.971268 -0.069096
0.290391 0.025085 0.533302 -0.580281 0.074812 -0.807915
0.558067 0.151384 -0.174322 -0.354277 -0.510549 0.775910
0.392383 -0.025829 0.078544 -0.989740 0.081014 0.021091
-0.447608 -0.195224 0.159020 0.596917 0.687343 -0.382616
0.196225 -0.234037 0.432375 -0.298404 0.913851 -0.223774
-0.210669 -0.058129 -0.611994 -0.513810 0.096525 0.841198
0.306679 0.175096 0.420294 -0.673397 -0.706717 -0.114897
0.620877 -0.186363 -0.054264 0.110211 0.895775 -0.401417
0.819435 -0.145749 -0.017796 -0.507776 0.851796 -0.094722
-0.019514 0.206812 -0.214778 0.376539 -0.849963 -0.334408
0.357583 0.122388 0.146208 -0.926721 -0.347933 -0.060660
-0.438808 0.012964 -0.479025 0.324005 -0.068115 -0.936437
0.124871 -0.076612 -0.387004 -0.438412 0.337150 0.836205
0.002478 0.178866 0.556920 0.199652 -0.762094 -0.596130
-0.259825 0.016768 -0.667132 -0.985227 -0.036202 0.120202
0.037826 0.181026 0.544608 0.181590 -0.768263 -0.600419
0.016681 -0.090722 0.179540 -0.436064 0.178543 0.869070
-0.175049 -0.163142 0.486205 0.480605 0.523343 -0.690969
0.201230 0.242245 -0.173589 -0.313853 -0.932920 -0.038706
0.532495 -0.050547 -0.205695 -0.228886 0.080501 0.972274
-0.239673 0.022223 -0.351662 0.533847 -0.119031 -0.833385
-0.141168 -0.082589 -0.244247 0.753477 0.353142 -0.529126
-0.468205 -0.150682 0.180931 0.741905 0.431639 -0.500350
-0.531865 -0.096508 -0.616900 0.961255 0.253219 0.072261
0.438654 -0.114358 -0.204513 -0.339860 0.313765 0.871396
-0.355833 -0.148738 -0.699707 -0.427540 0.350909 0.822191
-0.454070 0.058493 -0.041439 0.060198 -0.350224 0.930338
-0.090296 -0.094864 -0.502299 -0.423703 0.317341 0.849124
-0.116462 -0.200460 -0.331751 0.050661 0.913930 -0.363519
0.672527 0.039046 -0.166897 -0.334665 -0.078160 0.925174
-0.065590 -0.080978 0.594305 0.976784 0.204788 -0.080894
0.676392 0.184228 -0.018008 0.220479 -0.665730 -0.713745
0.230560 0.201716 0.018775 0.230028 -0.950223 -0.117155
-0.474020 -0.143911 0.183162 0.739654 0.425765 -0.496903
-0.321776 -0.124479 -0.463857 0.432577 0.237929 -0.860693
-0.015678 0.125558 0.607846 -0.326171 -0.509946 -0.789991
0.116545 -0.076486 -0.372241 -0.432927 0.336594 0.828839
-0.323926 0.180369 -0.614139 -0.452727 -0.883585 0.027461
0.276629 0.216342 0.352669 -0.149159 -0.961550 0.191632
-0.496752 0.161162 0.130322 0.734370 -0.451189 -0.494814
0.186350 -0.109496 -0.337563 -0.486068 0.292894 0.827631
0.057592 0.234779 -0.307164 -0.252088 -0.800723 0.525176
0.345877 -0.135554 0.376720 -0.944085 0.320205 -0.052617
0.256716 0.062400 -0.304828 -0.475265 -0.111420 0.862652
0.583452 -0.134059 -0.004706 0.161173 0.417666 -0.884851
0.062554 -0.032618 -0.051494 0.723469 0.070286 -0.682727
-0.534038 -0.012341 -0.684632 0.908994 -0.029564 0.427027
0.695042 0.052391 -0.154335 -0.352960 -0.094204 0.930387
-0.233028 -0.070977 0.039837 -0.456504 0.398086 0.783828
-0.084284 0.062042 -0.537108 -0.537511 -0.162341 0.816760
-0.258028 -0.261221 0.247252 0.108995 0.986693 0.089601
0.043342 -0.077048 -0.438635 -0.505078 0.397176 0.762344
0.091870 0.121340 -0.381816 -0.516785 -0.422270 0.738395
0.064565 0.069188 0.213451 -0.414115 -0.209224 0.871459
-0.216769 0.214652 0.398955 0.382799 -0.829608 -0.390090
0.395589 -0.046683 0.164216 -0.984847 0.056358 -0.100071
-0.003357 -0.107673 -0.463402 -0.435156 0.329114 0.825457
-0.374757 0.027233 -0.446290 0.628662 0.083945 -0.770406
0.573013 -0.203175 -0.117707 0.050153 0.958755 -0.260112
-0.037533 0.137911 0.192838 -0.244353 -0.492765 0.830881
0.092484 0.006854 -0.012877 0.726444 0.060549 -0.669255
-0.332284 0.118046 0.372926 0.609642 -0.478381 -0.625255
0.822601 0.052253 -0.077459 -0.493695 -0.203084 0.831835
0.378732 0.081855 0.256795 -0.928594 -0.321542 -0.058895
0.366465 0.070044 0.433747 -0.930460 -0.326188 -0.052736
0.395251 -0.003847 0.203166 -0.963595 -0.251791 -0.012766
0.329167 -0.166127 0.364532 -0.665444 0.740512 -0.055997
-0.265154 0.253407 0.226397 -0.026479 -0.978488 0.186031
0.246985 0.226650 0.354628 0.128635 -0.961055 0.206722
-0.300618 0.064200 -0.382528 0.608488 -0.353709 -0.713267
0.316808 -0.182914 0.422721 -0.736438 0.611780 -0.264200
0.405103 -0.082880 -0.234166 -0.342947 0.323217 0.878750
-0.099477 0.151936 -0.244104 0.637399 -0.389812 -0.665139
0.174904 -0.048504 0.570947 -0.368585 0.108592 -0.909040
0.292402 0.171680 -0.247872 -0.218723 -0.621430 0.753488
-0.307103 -0.224261 0.292817 0.363841 0.830686 -0.410937
0.596802 0.093095 -0.187636 -0.379631 -0.506599 0.763123
-0.369720 -0.100922 -0.014962 -0.336913 0.460301 0.820113
-0.088126 0.171091 0.182704 -0.521807 -0.364767 0.768502
-0.466607 -0.116381 0.236905 0.745203 0.419308 -0.498640
-0.201489 -0.175511 -0.373430 0.639710 0.694128 -0.321075
-0.375690 -0.118500 0.353503 0.579171 0.409010 -0.702262
0.298652 -0.084352 0.500329 -0.653386 0.352426 -0.650274
0.368577 -0.089537 0.395895 -0.902772 0.407141 -0.041312
0.082848 0.085039 0.220441 -0.288195 -0.170833 0.934262
-0.185694 -0.165355 -0.528830 -0.344348 0.671260 0.649718
-0.104282 -0.037953 -0.553317 -0.457982 0.119894 0.878178
-0.360845 -0.227025 0.178931 0.066868 0.987329 0.067338
-0.037582 -0.084249 0.156860 -0.390620 0.203311 0.895867
-0.050135 0.223002 -0.367090 0.185962 -0.969164 0.043250
0.102068 0.080512 0.236900 -0.297647 -0.164194 0.934073
0.572420 -0.199281 -0.100334 0.043263 0.955961 -0.268902
0.266248 -0.218212 0.400725 -0.291655 0.919464 -0.222415
0.127482 0.096652 0.004271 0.716083 -0.395643 -0.567766
-0.376723 0.104684 -0.716367 0.075691 -0.355236 0.923564
-0.398482 -0.102227 -0.716396 0.096531 0.338938 0.927778
0.679198 0.122061 -0.129267 -0.357420 -0.513468 0.775851
-0.460098 -0.116783 -0.017419 -0.077034 0.430315 0.895878
-0.161000 -0.035746 -0.559765 -0.502918 0.102765 0.847768
0.367456 -0.151067 0.111430 -0.930814 0.290594 -0.116931
-0.529954 -0.043852 0.146932 0.969038 0.149253 -0.167581
0.375472 0.083079 -0.236032 -0.861872 -0.109785 0.474097
-0.464342 0.022966 0.257873 0.824980 -0.171934 -0.543758
0.065553 -0.197784 0.516527 -0.073419 0.728184 -0.667508
-0.200704 0.197848 -0.432740 -0.004761 -0.957476 -0.244892
0.604084 -0.132815 -0.151698 -0.386628 0.509191 0.752446
0.621085 -0.106864 0.012717 0.161031 0.416533 -0.893548
0.175248 0.002804 0.131427 0.953943 -0.109630 -0.277232
-0.095813 0.116386 0.153659 -0.520178 -0.365467 0.757420
-0.205787 -0.250319 0.242285 -0.139631 0.759872 0.615602
0.806943 -0.118892 0.013903 -0.165429 0.294128 -0.927684
-0.388547 0.235970 0.153364 0.207152 -0.971090 -0.059911
0.354467 -0.091758 0.449759 -0.860242 0.338329 -0.359513
-0.008888 -0.151233 0.603257 -0.379043 0.635321 -0.657403
-0.526175 0.041666 -0.535188 0.698567 -0.079293 -0.694455
-0.071478 0.081334 -0.160780 0.636296 -0.395996 -0.640492
-0.232312 0.047590 0.031097 -0.523960 -0.126594 0.840431
-0.208315 0.035626 -0.297769 0.727615 -0.025371 -0.680739
0.567864 0.144536 -0.018702 0.239190 -0.321730 -0.911050
-0.222285 0.043198 0.033068 -0.514583 -0.133289 0.839565
-0.263735 0.198559 0.104233 -0.388699 -0.686207 0.604562
0.156474 -0.194092 -0.284273 -0.304730 0.516207 0.794870
0.326983 0.157406 0.393122 -0.929649 -0.355037 -0.071792
-0.157721 -0.251695 0.371085 0.333391 0.892518 -0.289509
0.583247 0.039876 0.015885 0.281883 -0.091338 -0.950096
0.336306 0.168578 -0.018344 -0.702945 -0.535323 -0.436086
0.127126 0.223014 -0.134197 0.302400 -0.777295 -0.542489
0.569787 0.128723 -0.184604 -0.377757 -0.510125 0.760021
0.585158 -0.143001 -0.167553 -0.175777 0.214008 0.954788
-0.273898 -0.111206 -0.388274 0.676927 0.384468 -0.600220
0.087377 0.224299 -0.288629 -0.260588 -0.802346 0.521568
0.276604 0.046119 -0.298950 -0.476295 -0.119714 0.858809
0.271939 0.087655 -0.301470 -0.467378 -0.110995 0.869954
-0.227236 -0.177033 0.122524 -0.433696 0.854914 0.292130
-0.036444 0.220042 0.495068 0.048768 -0.784000 -0.607451
-0.328102 -0.098180 -0.451890 0.365815 0.251565 -0.886030
-0.156545 0.219806 0.191133 -0.399127 -0.694605 0.593271
-0.202850 -0.186923 0.436713 0.477394 0.532989 -0.685750
0.745561 0.029910 -0.134421 -0.514874 -0.188213 0.833151
-0.500764 -0.077556 0.184665 0.799141 0.179876 -0.570378
0.767142 0.116887 0.028520 -0.137168 -0.370738 -0.909451
0.484910 -0.151663 -0.026608 0.135405 0.403285 -0.898118
-0.186863 -0.125804 0.109690 -0.477723 0.426578 0.762930
-0.233090 -0.146895 -0.382939 0.814475 0.261775 -0.505917
0.352251 -0.132124 0.159420 -0.937397 0.340773 -0.056467
-0.147904 0.050324 -0.238744 0.722312 -0.016254 -0.682572
-0.486892 -0.154637 -0.563711 0.421975 0.495230 -0.762434
0.072975 -0.112867 -0.393900 -0.513474 0.389238 0.754705
0.261136 0.074255 -0.299248 -0.485060 -0.111823 0.866843
-0.217274 0.191011 -0.416897 0.462543 -0.743689 -0.462879
-0.072907 0.085238 -0.176839 0.637744 -0.397468 -0.647198
0.893116 -0.008456 0.008028 -0.627781 -0.064155 -0.762641
-0.284423 -0.166454 -0.610305 -0.406534 0.740249 0.540920
-0.395952 0.172379 -0.520338 0.254372 -0.724619 -0.613572
0.110201 -0.055537 0.003593 0.717064 0.069362 -0.686211
0.569441 -0.193664 -0.089676 0.050456 0.955864 -0.265580
0.756553 -0.100315 -0.106645 -0.336463 0.537018 0.772736
0.735089 -0.085363 0.023021 -0.166128 0.290918 -0.930967
-0.221508 -0.137106 -0.339850 0.533374 0.419657 -0.725617
0.276638 -0.228729 -0.102387 -0.278883 0.896701 -0.310256
0.894414 -0.063274 -0.011741 -0.818925 0.522225 -0.202767
0.350986 -0.157609 0.330514 -0.936289 0.324971 -0.050856
-0.217866 -0.171814 -0.379441 0.639940 0.690029 -0.323114
-0.041046 -0.146660 0.179720 -0.321024 0.441333 0.833263
0.341141 -0.195750 -0.083678 0.092247 0.976097 -0.144742
0.776287 0.131923 0.011388 -0.135778 -0.368611 -0.912977
-0.545298 -0.026914 -0.657655 0.895551 -0.026677 0.422368
-0.325118 -0.175441 -0.490701 0.607383 0.528048 -0.578251
-0.260383 0.125266 -0.623841 -0.686704 -0.386264 0.592125
-0.182205 0.011073 0.059214 -0.513044 -0.122729 0.841365
0.043092 -0.184699 -0.380148 -0.363487 0.627321 0.678432
0.660243 -0.193804 -0.052188 0.070816 0.821279 -0.542356
0.180827 0.210353 0.460922 -0.215177 -0.859806 -0.340752
0.171636 -0.105203 0.265183 0.460803 0.196448 0.861095
0.411729 0.025517 -0.020857 0.139308 -0.241735 -0.954371
0.262367 -0.181401 0.167579 0.723493 0.690783 0.046316
0.593229 0.133816 -0.176036 -0.385989 -0.502991 0.756077
-0.061142 0.026335 0.573411 0.454457 -0.211116 -0.846525
0.052750 -0.069972 0.610140 -0.512655 0.093455 -0.839822
-0.174714 -0.034231 -0.570490 -0.541203 0.088261 0.833516
0.165737 0.232796 0.403330 -0.117049 -0.944255 0.266987
-0.187805 -0.232255 0.227950 -0.138964 0.770719 0.615841
0.014953 0.154871 0.582661 -0.257860 -0.556196 -0.776540
