ply
format ascii 1.0
element vertex 1024
property float x
property float y
property float z
property float nx
property float ny
property float nz
property uchar red
property uchar green
property uchar blue
end_header
-0.031902 0.022542 0.025133 -0.869882 -0.058160 0.489819 16 120 189
0.450622 0.191898 -0.038702 -0.664663 -0.566773 -0.486818 42 55 65
0.155282 0.060178 -0.226000 0.906654 -0.353284 0.230584 243 82 156
0.409391 0.183307 0.858905 -0.677459 -0.733056 -0.060651 41 34 119
0.225855 -0.204246 -0.244867 0.638056 0.765908 0.079186 208 225 137
0.049222 -0.199804 -0.724212 -0.010261 0.803247 0.595558 126 229 203
-0.039748 -0.214951 0.418611 0.430176 0.853819 -0.293158 182 236 90
0.135186 -0.017362 0.017766 0.307481 0.095291 -0.946771 166 139 6
0.261253 -0.019585 0.956741 0.273320 0.112459 -0.955327 162 141 5
0.102399 -0.090262 0.801022 0.872821 0.265142 -0.409735 238 161 75
-0.270354 -0.134891 0.151963 0.749003 0.518800 -0.412118 222 193 74
0.150760 0.100668 0.870676 0.747836 -0.300857 -0.591799 222 89 52
0.453526 -0.230067 -0.244523 -0.702927 0.703685 0.103542 37 217 140
-0.377519 0.209211 -0.568718 0.419970 -0.907461 -0.011798 181 11 125
0.430779 0.192519 -0.018253 -0.599363 -0.534313 -0.596049 51 59 51
0.154603 0.113841 -0.448568 0.537733 -0.291672 -0.791056 196 90 26
-0.231506 0.203356 -0.361498 -0.828292 -0.543964 -0.134294 21 58 110
0.215829 -0.221001 -0.665230 -0.050995 0.911869 0.407301 120 243 179
0.186601 -0.140611 -0.224409 0.899712 0.312202 0.305039 242 167 166
0.479877 -0.209856 -0.202986 -0.702927 0.703685 0.103542 37 217 140
0.225304 0.207791 -0.054994 0.074744 -0.909323 -0.409323 137 11 75
-0.026483 0.166225 0.140721 -0.810090 -0.536438 0.236620 24 59 157
0.123843 0.175051 -0.083957 0.372755 -0.915921 -0.148802 175 10 108
-0.201879 -0.251877 -0.554375 0.099767 0.903107 -0.417665 140 242 74
0.240165 -0.128345 0.479282 -0.730150 0.236647 0.640998 34 157 209
0.098684 0.131792 0.755244 0.922209 -0.220154 -0.317903 245 99 86
0.094631 -0.132001 0.754528 0.946659 0.205868 -0.247901 248 153 95
-0.258632 0.212323 0.071338 0.758207 -0.591900 -0.273454 224 52 92
-0.167710 0.078654 -0.185189 -0.807598 -0.173916 0.563506 24 105 199
-0.266764 0.158369 -0.731895 0.351515 -0.386121 0.852847 172 78 236
0.322091 -0.085028 0.046248 -0.186905 0.243182 -0.951803 103 158 6
-0.208854 -0.148611 -0.321863 -0.911828 0.359234 -0.198798 11 173 102
0.115691 0.060184 0.834473 0.918725 -0.153057 -0.364031 244 107 81
0.421559 -0.191951 -0.548754 -0.817299 0.524715 0.238112 23 194 157
0.246841 -0.238870 0.791647 0.165310 0.951680 -0.258803 148 248 94
0.218019 0.014601 0.419413 -0.723245 -0.144232 0.675362 35 109 213
-0.098367 -0.058386 -0.783139 0.026759 0.177308 0.983792 130 150 252
0.019316 0.006436 0.658302 0.875056 0.178382 -0.449952 239 150 70
-0.440366 0.066439 -0.331743 0.929891 -0.365487 0.041486 246 80 132
-0.327733 -0.183250 -0.076042 0.399024 0.899536 -0.177804 178 242 104
-0.373430 0.210106 -0.491996 0.419970 -0.907461 -0.011798 181 11 125
-0.212901 -0.222723 0.132956 0.472429 0.847253 -0.242845 187 235 96
0.335689 0.015058 0.067182 0.189343 0.094269 -0.977375 151 139 2
-0.159177 -0.015989 -0.372158 -0.917121 -0.025109 -0.397817 10 124 76
-0.020019 -0.104507 -0.516162 -0.472676 0.309880 -0.824956 67 167 22
-0.334071 -0.176668 -0.056965 0.399024 0.899536 -0.177804 178 242 104
0.478900 -0.198123 -0.289359 -0.702927 0.703685 0.103542 37 217 140
0.512334 0.144792 -0.357508 -0.793124 -0.592400 0.141483 26 51 145
0.250890 0.053883 0.951945 0.478815 -0.226035 -0.848318 188 98 19
0.450689 0.090578 0.021697 -0.658263 -0.127601 -0.741894 43 111 32
0.350270 0.148461 -0.715397 -0.689190 -0.491615 0.532289 39 64 195
0.130766 -0.159509 -0.045467 0.367382 0.547052 -0.752173 174 197 31
-0.054944 0.180066 0.096001 -0.696703 -0.637823 0.328309 38 46 169
0.008900 -0.022561 0.121049 -0.772592 0.303746 0.557530 28 166 198
-0.303139 -0.240437 -0.509919 0.261672 0.954245 -0.144725 160 249 109
-0.360035 -0.140029 -0.047540 0.838950 0.334838 -0.429006 234 170 72
-0.410416 0.156156 -0.244075 0.702701 -0.709518 -0.052869 217 37 120
0.363142 0.130657 -0.715174 -0.689190 -0.491615 0.532289 39 64 195
0.048620 0.112037 0.235949 -0.708192 -0.491601 0.506747 37 64 192
0.315696 0.239871 0.839349 -0.048646 -0.864351 -0.500530 121 17 63
0.463697 0.064137 0.735844 -0.851556 -0.271216 0.448658 18 92 184
0.462073 0.016070 0.020554 -0.705969 -0.071463 -0.704628 37 118 37
-0.225595 0.180057 -0.729355 0.208011 -0.564740 0.798624 154 55 229
0.437149 -0.219978 -0.089982 -0.466147 0.856726 -0.220743 68 236 99
-0.338845 0.223320 -0.277310 0.419970 -0.907461 -0.011798 181 11 125
0.258812 0.045741 0.469749 -0.723245 -0.144232 0.675362 35 109 213
-0.074996 0.031899 -0.469769 -0.594846 -0.038428 -0.802921 51 122 25
0.464837 0.137192 -0.520621 -0.896377 -0.295182 0.330722 13 89 169
0.163741 -0.159477 0.847967 0.613309 0.667568 -0.422145 205 212 73
0.446303 -0.226181 -0.333276 -0.724504 0.684065 0.084550 35 214 138
-0.245219 0.208338 -0.297096 -0.828292 -0.543964 -0.134294 21 58 110
0.195463 -0.166155 -0.443467 0.512657 0.628965 -0.584453 192 207 52
0.219740 -0.114979 -0.774309 0.020797 0.457342 0.889048 130 185 240
0.069718 -0.019794 0.752575 0.946659 0.205868 -0.247901 248 153 95
-0.035793 0.079390 0.026482 -0.835928 -0.097306 0.540144 20 115 196
0.236569 -0.200730 -0.348787 0.872867 0.397850 -0.282521 238 178 91
0.203471 0.184295 -0.751974 -0.024160 -0.692844 0.720683 124 39 219
0.142261 0.177880 0.433493 -0.710313 -0.499069 0.496374 36 63 190
0.233203 0.050429 0.035705 0.272114 -0.105427 -0.956472 162 114 5
-0.305141 -0.131380 0.091756 0.767321 0.518719 -0.377028 225 193 79
0.487163 0.018975 -0.004879 -0.705969 -0.071463 -0.704628 37 118 37
0.322601 -0.098407 0.562131 -0.730150 0.236647 0.640998 34 157 209
-0.090090 0.007975 0.491235 0.794072 -0.185021 -0.578980 228 103 53
0.180307 -0.220478 0.517216 -0.248313 0.931248 0.266679 95 246 161
0.153737 0.222697 0.502571 -0.252686 -0.927201 0.276491 95 9 162
-0.237646 0.199590 -0.195979 -0.628327 -0.658871 0.413636 47 43 180
-0.310523 -0.095245 0.118735 0.888116 0.028590 -0.458729 240 131 69
0.121984 -0.110161 0.337951 -0.730150 0.236647 0.640998 34 157 209
-0.072059 0.227700 0.315010 0.303327 -0.935328 -0.182084 166 8 104
0.299981 -0.043630 0.960851 0.046310 0.099443 -0.993965 133 140 0
0.374180 -0.237625 -0.553924 -0.531363 0.793711 0.296103 59 228 165
0.519751 -0.035177 -0.048241 -0.924957 0.094167 -0.368221 9 139 80
0.098229 0.224011 0.611921 0.724398 -0.666129 -0.177537 219 42 104
-0.234531 -0.205561 -0.419889 -0.688464 0.719168 -0.093889 39 219 115
0.085478 -0.045177 0.791677 0.946659 0.205868 -0.247901 248 153 95
-0.328315 0.079411 0.059791 0.836273 -0.339780 -0.430345 234 84 72
-0.123476 0.236566 0.202775 0.308513 -0.925398 -0.220134 166 9 99
0.049402 0.148117 0.272043 -0.708192 -0.491601 0.506747 37 64 192
-0.278391 0.231774 -0.210588 0.153494 -0.987619 -0.032382 147 1 123
0.301323 0.258134 -0.595177 -0.488184 -0.847627 0.207857 65 19 154
0.292356 -0.244654 0.722612 -0.377994 0.907899 0.181218 79 243 150
0.297396 0.202456 0.624445 -0.630135 -0.480985 0.609576 47 66 205
0.437189 0.188001 -0.526919 -0.764302 -0.542559 0.348529 30 58 171
-0.199916 0.146607 -0.759697 0.208011 -0.564740 0.798624 154 55 229
0.121979 0.212878 0.439659 -0.710313 -0.499069 0.496374 36 63 190
0.124966 -0.000983 0.313922 -0.815693 -0.113328 0.567276 23 113 199
-0.200214 -0.217605 -0.039826 -0.040505 0.998266 -0.042723 122 254 122
-0.214755 0.079116 -0.779960 0.239710 -0.158609 0.957801 158 107 249
-0.229552 -0.044137 0.268242 0.836804 0.175828 -0.518502 234 149 61
0.099112 -0.173090 -0.545292 0.629001 0.505796 -0.590363 207 191 52
0.523823 -0.047149 -0.441312 -0.863750 0.050537 0.501379 17 133 191
-0.297445 -0.205578 -0.121031 0.399024 0.899536 -0.177804 178 242 104
0.079899 -0.177219 -0.739908 0.013609 0.430519 0.902479 129 182 242
0.506986 -0.049801 -0.027927 -0.666133 0.140189 -0.732540 42 145 34
0.340288 -0.148501 0.934957 -0.074838 0.454964 -0.887359 117 185 14
-0.353945 0.208663 -0.198166 0.702701 -0.709518 -0.052869 217 37 120
0.334359 -0.214197 0.685082 -0.638365 0.564512 0.523275 46 199 194
0.177065 -0.009342 0.370443 -0.723245 -0.144232 0.675362 35 109 213
0.155019 0.082407 0.882582 0.605487 -0.199284 -0.770501 204 102 29
-0.370101 -0.158433 -0.660761 0.733213 0.269331 0.624387 220 161 207
0.313173 0.198611 0.637719 -0.630135 -0.480985 0.609576 47 66 205
0.053356 -0.206695 -0.714847 -0.010261 0.803247 0.595558 126 229 203
-0.396058 -0.148098 -0.381843 0.795917 0.605151 0.017591 228 204 129
0.189169 0.199418 -0.066714 0.400591 -0.896124 -0.191021 178 13 103
0.184366 0.248600 0.617426 -0.252686 -0.927201 0.276491 95 9 162
-0.097976 0.181969 0.020220 -0.816855 -0.500477 0.286828 23 63 164
0.317728 -0.223079 -0.647591 -0.053878 0.915909 0.397753 120 244 178
0.078738 0.010929 -0.797233 0.015494 -0.089022 0.995909 129 116 254
0.026571 0.122099 0.212912 -0.749797 -0.460319 0.475300 31 68 188
-0.000393 0.134889 -0.529164 -0.194321 -0.413871 -0.889354 102 74 14
0.150984 -0.176700 -0.073233 0.326345 0.894711 -0.304945 169 241 88
0.254408 0.010760 0.046110 0.272114 -0.105427 -0.956472 162 114 5
0.081659 -0.059259 0.765399 0.946659 0.205868 -0.247901 248 153 95
0.077816 -0.158421 -0.109007 0.320057 0.419914 0.849256 168 181 235
-0.184970 0.088218 -0.276317 -0.984490 -0.153404 0.085122 1 107 138
-0.292864 0.225850 -0.082843 0.752534 -0.632808 -0.182336 223 46 104
0.311459 0.148854 0.596310 -0.619490 -0.565352 0.544618 48 55 196
-0.144879 -0.085630 0.396381 0.841924 0.199222 -0.501472 234 152 63
-0.417661 0.103565 -0.513576 0.929891 -0.365487 0.041486 246 80 132
-0.311153 0.199284 -0.066129 0.752534 -0.632808 -0.182336 223 46 104
0.072042 0.042709 0.248004 -0.778250 -0.033890 0.627040 28 123 207
-0.134160 -0.117139 -0.120167 -0.918374 0.127424 0.374635 10 143 175
-0.324281 0.230394 -0.386019 0.153494 -0.987619 -0.032382 147 1 123
0.125773 0.159029 0.793913 0.582734 -0.632050 -0.510817 201 46 62
-0.004730 -0.004772 0.620588 0.806630 0.159742 -0.569062 230 147 54
0.150513 0.226916 0.725876 0.573579 -0.737431 -0.356654 200 33 82
0.088885 0.031197 0.784027 0.888929 -0.142428 -0.435339 240 109 71
-0.158561 0.035867 -0.185283 -0.807598 -0.173916 0.563506 24 105 199
-0.262492 0.000279 0.217680 0.888116 0.028590 -0.458729 240 131 69
-0.036984 0.030977 -0.793640 0.015494 -0.089022 0.995909 129 116 254
-0.169236 -0.223858 -0.687759 0.120776 0.859365 0.496895 142 237 190
-0.347364 0.174926 -0.674387 0.551155 -0.236735 0.800116 197 97 229
-0.445652 0.038094 -0.462955 0.929891 -0.365487 0.041486 246 80 132
-0.292876 -0.099604 -0.741245 0.230894 0.412918 0.881015 156 180 239
0.360383 -0.270705 -0.271710 -0.189007 0.981345 -0.035192 103 252 123
0.400167 -0.165768 0.738235 -0.743325 0.566063 0.356429 32 199 172
0.161606 0.142261 -0.174391 0.668358 -0.287251 0.686137 212 90 214
0.382596 -0.171384 0.710511 -0.743325 0.566063 0.356429 32 199 172
-0.377157 -0.182822 -0.564807 0.879713 0.474922 -0.023541 239 188 124
0.212185 0.188692 0.862525 0.464942 -0.732189 -0.497723 186 34 64
-0.423471 0.112578 -0.327072 0.944651 -0.324936 0.045285 247 86 133
-0.033855 0.239073 -0.661646 -0.020513 -0.938270 0.345296 124 7 171
-0.448286 -0.022574 -0.402017 0.944188 0.329382 0.004002 247 169 128
0.382912 -0.036268 -0.719000 -0.765389 0.134367 0.629384 29 144 207
0.050797 -0.078229 -0.030403 0.824839 0.304912 -0.476097 232 166 66
0.437852 -0.054314 0.681738 -0.797998 0.267607 0.539986 25 161 196
-0.104688 0.231169 0.140544 -0.183927 -0.981743 -0.048486 104 2 121
0.307692 -0.092722 0.047109 -0.186905 0.243182 -0.951803 103 158 6
-0.146455 0.217317 0.249980 0.435116 -0.870610 -0.229592 182 16 98
-0.123422 -0.237105 -0.675983 0.120776 0.859365 0.496895 142 237 190
-0.130581 0.236658 0.127641 -0.183927 -0.981743 -0.048486 104 2 121
-0.269241 0.228058 0.006990 0.752534 -0.632808 -0.182336 223 46 104
0.447387 0.155984 -0.002202 -0.599363 -0.534313 -0.596049 51 59 51
0.167428 -0.046477 -0.264202 0.899712 0.312202 0.305039 242 167 166
0.079580 -0.101358 -0.028175 0.367382 0.547052 -0.752173 174 197 31
0.081058 0.204374 0.372550 -0.710313 -0.499069 0.496374 36 63 190
0.421281 0.061083 -0.668668 -0.759294 -0.184344 0.624092 30 103 207
0.274049 -0.128878 0.519042 -0.638337 0.566223 0.521457 46 199 193
-0.365258 0.210818 -0.377447 0.702701 -0.709518 -0.052869 217 37 120
0.425266 -0.254271 -0.197981 -0.466147 0.856726 -0.220743 68 236 99
-0.423776 0.114406 -0.307604 0.944651 -0.324936 0.045285 247 86 133
0.051915 0.173949 -0.551721 0.567450 -0.340900 -0.749525 199 84 31
-0.255679 -0.212611 -0.209085 -0.759762 0.649260 -0.034987 30 210 123
0.105671 -0.222082 0.453324 -0.248313 0.931248 0.266679 95 246 161
-0.382747 -0.113846 -0.071520 0.838950 0.334838 -0.429006 234 170 72
-0.044971 0.217430 -0.602105 -0.083124 -0.928792 -0.361159 116 9 81
0.033475 -0.038367 -0.034883 0.824839 0.304912 -0.476097 232 166 66
-0.193545 -0.151006 -0.396777 -0.944615 0.295083 -0.143629 7 165 109
0.157952 0.008495 -0.248902 0.854657 -0.041963 0.517494 236 122 193
-0.199399 -0.190555 -0.141621 -0.483096 0.803482 0.347902 65 229 171
-0.433488 0.083507 -0.335533 0.929891 -0.365487 0.041486 246 80 132
0.100882 0.131848 0.761580 0.922209 -0.220154 -0.317903 245 99 86
0.144481 -0.133730 -0.463232 0.629001 0.505796 -0.590363 207 191 52
0.214794 0.224933 0.811647 0.464942 -0.732189 -0.497723 186 34 64
0.025996 0.038465 0.161167 -0.954626 -0.047657 0.293971 5 121 164
0.426887 0.237647 -0.335852 -0.422692 -0.903881 0.065801 73 12 135
0.175332 -0.226795 0.534645 -0.248313 0.931248 0.266679 95 246 161
-0.115626 -0.023931 -0.110497 -0.794557 0.108893 0.597345 26 141 203
-0.062848 0.187341 0.093363 -0.696703 -0.637823 0.328309 38 46 169
0.487469 0.082081 0.859784 -0.918663 -0.393788 0.031455 10 77 131
0.420811 0.015161 0.638418 -0.724992 -0.266897 0.634942 35 93 208
-0.327274 -0.189576 -0.679851 0.386950 0.453935 0.802628 176 185 229
-0.014956 0.078810 0.089801 -0.927617 -0.280065 0.247165 9 91 159
0.238189 -0.120807 0.474249 -0.730150 0.236647 0.640998 34 157 209
0.327159 0.143754 0.926143 0.068031 -0.423195 -0.903481 136 73 12
-0.403375 0.134823 -0.620034 0.967012 -0.251498 0.040456 250 95 132
0.460100 -0.192433 -0.438285 -0.767633 0.526605 0.365278 29 194 174
0.107231 -0.085254 0.306531 -0.827793 0.241290 0.506496 21 158 192
0.081103 -0.028483 -0.484383 0.601089 0.193855 -0.775314 204 152 28
-0.340602 -0.009325 -0.743057 0.399574 0.067567 0.914207 178 136 244
0.416133 -0.191927 -0.025602 -0.265085 0.686262 -0.677329 93 214 41
0.193374 0.013700 -0.315098 0.928614 -0.077894 -0.362779 245 117 81
-0.349429 -0.231788 -0.516472 0.879713 0.474922 -0.023541 239 188 124
-0.240540 -0.200296 -0.207806 -0.611156 0.789979 0.049209 49 228 133
0.425041 0.237823 -0.345292 -0.422692 -0.903881 0.065801 73 12 135
0.307907 -0.257126 -0.179049 0.228006 0.971504 -0.064755 156 251 119
0.509629 0.088510 -0.440801 -0.900252 -0.296865 0.318462 12 89 168
-0.229542 -0.186944 -0.300345 -0.759762 0.649260 -0.034987 30 210 123
0.185688 0.096856 -0.355862 0.945084 -0.161551 -0.284109 247 106 91
-0.061755 -0.090295 0.512217 0.768124 0.235021 -0.595610 225 157 51
0.034278 -0.104329 -0.103799 0.833367 0.234247 0.500628 233 157 191
0.208082 0.182586 -0.030110 0.252971 -0.538125 -0.804007 159 58 24
-0.210697 -0.181131 -0.407523 -0.688464 0.719168 -0.093889 39 219 115
-0.411651 0.109583 -0.595273 0.929891 -0.365487 0.041486 246 80 132
0.071994 0.024863 0.751608 0.888929 -0.142428 -0.435339 240 109 71
-0.241076 0.204533 0.119134 0.435116 -0.870610 -0.229592 182 16 98
0.438965 -0.226629 -0.392535 -0.724504 0.684065 0.084550 35 214 138
0.013121 0.191766 -0.560157 -0.143420 -0.448789 -0.882054 109 70 15
-0.148383 0.056090 -0.164455 -0.807598 -0.173916 0.563506 24 105 199
-0.021226 0.152998 0.527558 0.730330 -0.499165 -0.466318 220 63 68
0.256780 0.231286 -0.285966 0.894311 -0.446693 -0.025943 241 70 124
0.219801 -0.187502 0.516291 -0.638337 0.566223 0.521457 46 199 193
-0.309744 0.228103 -0.247239 0.153494 -0.987619 -0.032382 147 1 123
-0.349503 0.219058 -0.328863 0.419970 -0.907461 -0.011798 181 11 125
0.257901 -0.004596 0.957546 0.273320 0.112459 -0.955327 162 141 5
0.034679 0.216665 0.509916 0.526777 -0.738797 -0.420339 194 33 73
0.202279 -0.146587 0.450415 -0.638337 0.566223 0.521457 46 199 193
-0.282521 0.230867 -0.202504 0.153494 -0.987619 -0.032382 147 1 123
-0.220234 -0.225687 0.108349 0.472429 0.847253 -0.242845 187 235 96
0.373427 0.205384 -0.026047 -0.021201 -0.896404 -0.442730 124 13 71
0.028741 -0.010578 0.162130 -0.954626 -0.047657 0.293971 5 121 164
-0.444359 0.021240 -0.225000 0.998402 -0.053311 -0.018772 254 120 125
0.165466 0.061489 0.896202 0.605487 -0.199284 -0.770501 204 102 29
0.133491 0.113025 0.842571 0.747836 -0.300857 -0.591799 222 89 52
-0.432589 -0.084472 -0.240803 0.973933 0.225239 0.026871 251 156 130
-0.168283 0.192553 -0.483028 -0.551600 -0.730763 -0.402148 57 34 76
0.029338 -0.099432 -0.777255 0.017388 0.220540 0.975223 129 155 251
-0.389917 -0.072498 -0.053267 0.838950 0.334838 -0.429006 234 170 72
0.399854 0.252028 -0.237270 -0.178219 -0.983490 -0.031387 104 2 123
0.104702 0.201725 0.699000 0.713710 -0.645803 -0.271212 218 45 92
0.195645 -0.078384 0.410125 -0.730150 0.236647 0.640998 34 157 209
0.402076 -0.258752 -0.337351 -0.357204 0.932084 0.060202 81 246 135
0.001620 -0.125161 0.580191 0.768124 0.235021 -0.595610 225 157 51
-0.187831 0.238649 0.020562 -0.385154 -0.911299 0.145568 78 11 146
0.233455 0.119571 0.018937 0.133328 -0.352288 -0.926346 144 82 9
0.272661 0.227351 0.626863 -0.252686 -0.927201 0.276491 95 9 162
0.177776 -0.199048 -0.494380 0.512657 0.628965 -0.584453 192 207 52
0.518778 -0.153401 -0.288925 -0.859751 0.500682 0.100723 17 191 140
0.126429 -0.211603 -0.705997 -0.091428 0.918794 0.384004 115 244 176
-0.047743 -0.225035 -0.691853 -0.010261 0.803247 0.595558 126 229 203
-0.015542 -0.101802 0.121543 -0.954122 0.248437 0.167126 5 159 148
-0.251907 0.236125 -0.060487 -0.133130 -0.950409 0.281069 110 6 163
0.455801 -0.030078 -0.597921 -0.821067 0.289888 0.491746 22 164 190
-0.232178 0.234014 -0.508330 0.088427 -0.983252 -0.159361 138 2 107
-0.434430 0.050734 -0.156029 0.974819 -0.050272 -0.217256 251 121 99
0.199505 -0.022198 0.034123 0.272114 -0.105427 -0.956472 162 114 5
-0.119904 -0.001495 -0.124554 -0.918374 0.127424 0.374635 10 143 175
-0.449846 -0.012817 -0.420100 0.998402 -0.053311 -0.018772 254 120 125
-0.365631 0.134039 -0.058983 0.862968 -0.297106 -0.408674 237 89 75
0.209555 0.186370 -0.749775 -0.024160 -0.692844 0.720683 124 39 219
-0.255822 -0.061373 -0.763480 0.219985 0.237326 0.946194 155 157 248
0.132264 -0.159547 0.805517 0.562514 0.673556 -0.479479 199 213 66
0.207759 -0.016375 0.035830 0.272114 -0.105427 -0.956472 162 114 5
0.231813 0.202004 0.556293 -0.630135 -0.480985 0.609576 47 66 205
-0.353284 0.017068 0.030873 0.917498 -0.197150 -0.345440 244 102 83
0.327412 -0.074382 0.558309 -0.723761 0.256069 0.640779 35 160 209
0.294699 0.244973 -0.250684 0.329232 -0.943035 -0.047877 169 7 121
-0.445145 0.012128 -0.240888 0.998402 -0.053311 -0.018772 254 120 125
0.227532 0.139179 0.908941 0.270109 -0.411545 -0.870444 161 75 16
0.323597 -0.202485 -0.684299 -0.258119 0.726633 0.636694 94 220 208
0.244713 -0.247997 0.663053 -0.223456 0.931602 0.286681 99 246 164
0.204811 -0.030523 0.938869 0.457375 0.291366 -0.840187 185 164 20
0.440665 0.055858 -0.625845 -0.934451 -0.175820 0.309659 8 105 166
-0.131990 -0.121948 0.395672 0.710633 0.501003 -0.493961 218 191 64
0.522406 -0.084589 -0.070196 -0.872251 0.172421 -0.457657 16 149 69
-0.124645 0.026210 0.438015 0.794072 -0.185021 -0.578980 228 103 53
0.526796 -0.061364 -0.434757 -0.863750 0.050537 0.501379 17 133 191
0.542440 0.004666 -0.377925 -0.948658 -0.048719 0.312528 6 121 167
0.353333 0.000517 0.062535 -0.112302 0.247616 -0.962328 113 159 4
0.306130 0.026849 -0.782939 -0.392896 -0.017183 0.919422 77 125 244
0.052246 0.128115 0.256614 -0.708192 -0.491601 0.506747 37 64 192
-0.150078 0.000268 -0.792304 0.026759 0.177308 0.983792 130 150 252
-0.438233 -0.006992 -0.160219 0.945409 0.085359 -0.314508 248 138 87
-0.142334 0.232492 0.091883 -0.174056 -0.931291 0.320002 105 8 168
0.032001 -0.014685 0.674598 0.875056 0.178382 -0.449952 239 150 70
0.045280 0.140730 0.638080 0.850845 -0.261724 -0.455590 235 94 69
0.433293 -0.224797 -0.447963 -0.767633 0.526605 0.365278 29 194 174
0.169465 -0.229937 -0.539258 0.409152 0.879074 -0.244589 179 239 96
0.138825 0.150555 -0.033788 0.292024 -0.533256 -0.793952 164 59 26
0.221454 0.215908 -0.710077 -0.019736 -0.938835 0.343802 124 7 171
0.251012 0.087741 -0.790348 0.010000 -0.218051 0.975886 128 99 251
-0.195476 0.222677 -0.500468 -0.551600 -0.730763 -0.402148 57 34 76
0.465707 0.214980 -0.144846 -0.562546 -0.801307 -0.203592 55 25 101
0.008907 -0.051293 0.626858 0.806630 0.159742 -0.569062 230 147 54
0.025399 0.232597 0.445173 0.052454 -0.997243 -0.052492 134 0 120
0.276575 0.212799 0.611082 -0.630135 -0.480985 0.609576 47 66 205
-0.057184 -0.189306 0.119627 -0.684961 0.670501 0.285055 40 212 163
0.402507 0.150980 -0.644096 -0.728435 -0.511279 0.456044 34 62 185
-0.109184 0.099064 -0.470431 -0.400210 -0.344191 -0.849331 76 83 19
0.228751 -0.195120 -0.721554 -0.050995 0.911869 0.407301 120 243 179
0.451148 0.155290 -0.541569 -0.896377 -0.295182 0.330722 13 89 169
0.014392 0.074855 -0.788765 0.020628 -0.134252 0.990733 130 110 253
-0.151856 -0.026201 -0.414546 -0.944615 0.295083 -0.143629 7 165 109
-0.434536 -0.059484 -0.608184 0.944188 0.329382 0.004002 247 169 128
-0.175789 0.049704 -0.239539 -0.984490 -0.153404 0.085122 1 107 138
0.518031 -0.163494 -0.164552 -0.740426 0.615768 -0.269441 33 206 93
-0.140648 -0.173430 -0.483571 -0.586648 0.609680 -0.533043 52 205 59
0.365202 -0.145691 0.023614 -0.088136 0.238793 -0.967063 116 157 4
0.507687 -0.055478 -0.468270 -0.863750 0.050537 0.501379 17 133 191
0.104424 -0.005770 -0.460624 0.601089 0.193855 -0.775314 204 152 28
0.489668 -0.035957 -0.009586 -0.664410 0.138420 -0.734438 42 145 33
-0.125169 0.243209 -0.655832 -0.020513 -0.938270 0.345296 124 7 171
-0.034408 -0.003994 0.571376 0.771409 -0.227254 -0.594377 225 98 51
-0.142739 0.193103 0.298594 0.718326 -0.499403 -0.484360 219 63 65
0.268755 -0.245902 -0.148518 0.228006 0.971504 -0.064755 156 251 119
-0.450402 0.006995 -0.505950 0.998402 -0.053311 -0.018772 254 120 125
-0.218334 0.167678 -0.303424 -0.915492 -0.343777 0.209026 10 83 154
-0.406726 0.125640 -0.597023 0.967012 -0.251498 0.040456 250 95 132
0.284369 0.148366 0.920761 0.068031 -0.423195 -0.903481 136 73 12
0.409399 0.193682 -0.578464 -0.730254 -0.554050 0.399696 34 56 178
-0.387148 0.199565 -0.517369 0.702701 -0.709518 -0.052869 217 37 120
-0.036244 0.114511 0.060085 -0.751011 -0.462277 0.471468 31 68 187
0.424516 0.034405 -0.672613 -0.759294 -0.184344 0.624092 30 103 207
-0.311141 -0.207481 -0.670661 0.240092 0.857105 0.455771 158 236 185
0.480703 0.099467 0.879813 -0.918663 -0.393788 0.031455 10 77 131
-0.131004 -0.115299 -0.458541 -0.631660 0.178600 -0.754392 46 150 31
0.553376 0.094352 -0.256128 -0.916156 -0.378810 0.130999 10 79 144
0.271232 -0.043115 0.049085 0.189343 0.094269 -0.977375 151 139 2
-0.441812 0.034134 -0.583932 0.929891 -0.365487 0.041486 246 80 132
0.302598 -0.112155 -0.774988 -0.184049 0.566979 0.802908 104 199 229
0.520378 -0.038934 -0.448075 -0.863750 0.050537 0.501379 17 133 191
0.433934 -0.132153 0.923696 -0.592688 0.414126 -0.690811 51 180 39
-0.234128 -0.192345 -0.255809 -0.611156 0.789979 0.049209 49 228 133
0.094624 0.201487 -0.551279 0.280252 -0.732327 -0.620610 163 34 48
0.185658 -0.093008 -0.361939 0.970472 0.185795 -0.153832 251 151 107
0.001378 -0.054232 0.615363 0.806630 0.159742 -0.569062 230 147 54
0.208386 0.238171 0.776219 0.166349 -0.985207 -0.041182 148 1 122
0.533550 -0.137954 -0.207391 -0.914609 0.401326 0.049266 10 178 133
0.551538 0.090116 -0.144945 -0.926467 -0.329028 -0.182753 9 85 104
0.115907 -0.170559 -0.525229 0.629001 0.505796 -0.590363 207 191 52
0.058589 0.225373 0.530299 0.595915 -0.707169 -0.380523 203 37 78
0.110028 0.164028 -0.503213 0.567450 -0.340900 -0.749525 199 84 31
0.151459 -0.034862 -0.430532 0.613400 0.178978 -0.769225 205 150 29
-0.215023 0.066871 0.285290 0.855791 -0.201663 -0.476396 236 101 66
-0.219241 -0.184835 -0.373247 -0.688464 0.719168 -0.093889 39 219 115
0.212326 -0.201416 -0.163233 0.638056 0.765908 0.079186 208 225 137
0.147337 0.149015 -0.157664 0.668358 -0.287251 0.686137 212 90 214
-0.194614 -0.099272 0.306081 0.856404 0.178734 -0.484383 236 150 65
0.203537 0.197650 0.841268 0.464942 -0.732189 -0.497723 186 34 64
0.291299 -0.188453 0.604778 -0.638365 0.564512 0.523275 46 199 194
-0.117940 -0.241815 0.190194 0.099874 0.982525 -0.157068 140 252 107
0.039567 -0.149699 0.637873 0.864547 0.258142 -0.431186 237 160 72
0.171766 -0.234208 -0.641179 -0.050995 0.911869 0.407301 120 243 179
-0.064632 0.167112 -0.532458 -0.487021 -0.468461 -0.737126 65 67 33
0.231172 0.247845 0.654741 -0.260374 -0.907747 0.328938 94 11 169
0.507936 -0.031205 0.864367 -0.954250 0.299009 0.001186 5 165 127
0.208977 0.249361 -0.522571 0.386186 -0.857077 -0.340997 176 18 84
-0.030024 0.181228 -0.547779 -0.143420 -0.448789 -0.882054 109 70 15
-0.155210 -0.173917 0.304191 0.714639 0.568012 -0.408232 218 199 75
0.191362 0.197978 0.829412 0.464942 -0.732189 -0.497723 186 34 64
0.464407 0.210002 -0.121663 -0.562546 -0.801307 -0.203592 55 25 101
-0.179048 0.177485 -0.743297 0.208011 -0.564740 0.798624 154 55 229
0.418921 0.000411 -0.683040 -0.765389 0.134367 0.629384 29 144 207
0.357804 0.045092 0.961466 -0.086777 -0.058859 -0.994488 116 119 0
-0.283599 0.087093 0.143638 0.850526 -0.344260 -0.397607 235 83 76
-0.142858 0.236943 -0.590660 -0.373034 -0.914652 -0.155748 79 10 107
-0.314826 0.197122 -0.073782 0.752534 -0.632808 -0.182336 223 46 104
0.167252 -0.165745 -0.170933 0.715318 0.269604 0.644697 218 161 209
0.140619 0.026444 -0.425850 0.537733 -0.291672 -0.791056 196 90 26
0.332436 -0.108749 0.955848 0.046310 0.099443 -0.993965 133 140 0
-0.331511 -0.210823 -0.252596 0.287571 0.956837 -0.042008 164 249 122
0.015297 -0.012785 -0.061503 0.951139 0.275196 -0.140008 248 162 109
0.082655 0.217778 0.583990 0.620635 -0.734712 -0.273880 206 33 92
0.098792 -0.164730 -0.093965 0.326345 0.894711 -0.304945 169 241 88
-0.027957 -0.094299 0.061328 -0.897463 0.335522 0.286329 13 170 164
0.416225 -0.144002 0.730244 -0.634772 0.655223 0.409571 46 211 179
0.092496 0.167822 0.718432 0.887317 -0.212720 -0.409168 240 100 75
0.384994 0.207682 0.836801 -0.677459 -0.733056 -0.060651 41 34 119
0.297628 -0.255088 -0.304493 0.610643 0.787621 0.082275 205 227 137
0.048792 -0.156724 0.652166 0.864547 0.258142 -0.431186 237 160 72
0.434725 0.074940 -0.632934 -0.934451 -0.175820 0.309659 8 105 166
0.218161 0.173835 -0.761537 -0.024160 -0.692844 0.720683 124 39 219
-0.443596 0.031445 -0.567621 0.929891 -0.365487 0.041486 246 80 132
0.505637 -0.159608 -0.369594 -0.702927 0.703685 0.103542 37 217 140
0.115684 0.242521 -0.643476 -0.019736 -0.938835 0.343802 124 7 171
0.305447 -0.112348 0.547738 -0.730150 0.236647 0.640998 34 157 209
-0.443404 -0.037869 -0.295001 0.944188 0.329382 0.004002 247 169 128
-0.067417 -0.035601 -0.472153 -0.594846 -0.038428 -0.802921 51 122 25
-0.358988 -0.075730 0.015678 0.886745 0.333940 -0.319637 240 170 86
0.552065 -0.070239 -0.274080 -0.989934 0.093141 0.106560 1 139 141
-0.105373 -0.246149 -0.664368 -0.010261 0.803247 0.595558 126 229 203
0.394492 -0.046061 -0.702826 -0.765389 0.134367 0.629384 29 144 207
0.111289 -0.072575 -0.001688 0.236280 0.389976 -0.889995 157 177 14
0.503922 -0.016638 -0.478672 -0.863750 0.050537 0.501379 17 133 191
0.312526 0.087573 0.042486 0.133328 -0.352288 -0.926346 144 82 9
0.326495 -0.219270 -0.655176 -0.053878 0.915909 0.397753 120 244 178
0.242987 -0.244677 0.650916 -0.223456 0.931602 0.286681 99 246 164
0.218539 0.240623 0.758570 0.166349 -0.985207 -0.041182 148 1 122
0.391767 -0.024181 0.610936 -0.723761 0.256069 0.640779 35 160 209
0.183005 -0.094517 -0.781106 0.017388 0.220540 0.975223 129 155 251
-0.271884 0.228867 -0.215788 -0.828292 -0.543964 -0.134294 21 58 110
-0.143880 0.094266 -0.146095 -0.813097 -0.185152 0.551898 23 103 197
-0.260903 -0.222696 -0.101222 -0.040505 0.998266 -0.042723 122 254 122
0.194454 0.252339 -0.560889 0.101349 -0.992662 -0.065965 140 0 119
-0.143023 -0.170862 0.329776 0.714639 0.568012 -0.408232 218 199 75
0.286510 -0.205993 -0.050511 0.112311 0.858582 -0.500223 141 236 63
0.384787 -0.047141 0.964451 0.046310 0.099443 -0.993965 133 140 0
-0.451428 -0.009282 -0.514255 0.998402 -0.053311 -0.018772 254 120 125
-0.256829 -0.245954 -0.502940 -0.166617 0.977620 -0.128445 106 252 111
0.510697 -0.163315 -0.308621 -0.859751 0.500682 0.100723 17 191 140
-0.397132 0.163596 -0.590399 0.967012 -0.251498 0.040456 250 95 132
-0.008265 0.155934 0.544158 0.771409 -0.227254 -0.594377 225 98 51
0.478012 -0.029262 0.943797 -0.614290 0.386678 -0.687843 49 176 39
0.056740 -0.013553 0.723159 0.875056 0.178382 -0.449952 239 150 70
0.446412 0.144108 0.826351 -0.795804 -0.595067 0.112207 26 51 141
-0.374373 0.178264 -0.159234 0.704851 -0.685138 -0.183768 217 40 104
-0.244035 -0.054891 0.241222 0.836804 0.175828 -0.518502 234 149 61
0.449628 0.211641 -0.426564 -0.795809 -0.583463 0.162045 26 53 148
0.417349 0.143778 -0.628462 -0.728435 -0.511279 0.456044 34 62 185
0.177709 -0.092822 -0.411860 0.970472 0.185795 -0.153832 251 151 107
-0.448758 0.010229 -0.427687 0.998402 -0.053311 -0.018772 254 120 125
-0.399920 -0.024342 -0.056335 0.934328 0.086935 -0.345650 246 138 83
0.232883 -0.083366 0.454381 -0.730150 0.236647 0.640998 34 157 209
-0.029339 -0.177588 -0.538274 -0.472676 0.309880 -0.824956 67 167 22
-0.220434 0.237232 -0.627596 0.204932 -0.881630 0.425125 153 15 181
0.274213 -0.148233 0.927828 0.195735 0.624903 -0.755768 152 207 31
0.108344 -0.146166 0.335706 -0.730150 0.236647 0.640998 34 157 209
-0.171309 0.232130 0.023468 -0.385154 -0.911299 0.145568 78 11 146
0.048492 -0.134698 -0.535366 0.100438 0.440985 -0.891877 140 183 13
0.448991 0.142340 -0.558975 -0.896377 -0.295182 0.330722 13 89 169
0.036531 -0.167853 0.620919 0.864547 0.258142 -0.431186 237 160 72
-0.180083 0.222558 0.166375 0.435116 -0.870610 -0.229592 182 16 98
-0.223588 -0.077133 -0.767022 0.219985 0.237326 0.946194 155 157 248
0.139698 -0.124325 0.363358 -0.730150 0.236647 0.640998 34 157 209
-0.175643 0.038140 -0.258686 -0.984490 -0.153404 0.085122 1 107 138
-0.245936 -0.204081 -0.262373 -0.759762 0.649260 -0.034987 30 210 123
-0.233792 0.126228 0.216297 0.850526 -0.344260 -0.397607 235 83 76
-0.100921 -0.230228 -0.685764 -0.010261 0.803247 0.595558 126 229 203
-0.289165 -0.197530 0.020953 0.532457 0.843415 -0.071700 195 235 118
0.067553 -0.008519 -0.156587 0.569645 0.003386 0.821884 200 127 232
-0.142532 -0.158719 -0.464672 -0.586648 0.609680 -0.533043 52 205 59
-0.183971 -0.022032 -0.305222 -0.968924 0.002522 0.247345 3 127 159
0.292255 -0.165445 0.581035 -0.638337 0.566223 0.521457 46 199 193
0.311704 0.235769 0.846820 -0.048646 -0.864351 -0.500530 121 17 63
0.431569 0.130111 0.740302 -0.761960 -0.542086 0.354345 30 58 172
0.100090 -0.009926 -0.797271 0.026759 0.177308 0.983792 130 150 252
0.519993 -0.135246 -0.105384 -0.740426 0.615768 -0.269441 33 206 93
-0.446319 -0.011402 -0.236533 0.998402 -0.053311 -0.018772 254 120 125
-0.230987 -0.211315 -0.137538 -0.483096 0.803482 0.347902 65 229 171
0.238037 0.016840 0.954387 0.273320 0.112459 -0.955327 162 141 5
0.402503 -0.088632 0.960406 -0.074838 0.454964 -0.887359 117 185 14
-0.001804 -0.199725 -0.725197 -0.010261 0.803247 0.595558 126 229 203
0.204347 0.156656 -0.384423 0.685945 -0.669770 -0.284407 214 42 91
-0.017905 -0.031985 0.593113 0.864547 0.258142 -0.431186 237 160 72
0.318324 -0.251207 -0.102801 0.252430 0.784971 -0.565773 159 227 55
0.127035 0.133645 0.367231 -0.710313 -0.499069 0.496374 36 63 190
0.452430 -0.075417 0.940697 -0.614290 0.386678 -0.687843 49 176 39
0.120225 0.224568 0.682020 0.573579 -0.737431 -0.356654 200 33 82
0.094510 -0.158341 -0.079804 0.326345 0.894711 -0.304945 169 241 88
-0.210223 0.167232 -0.268632 -0.915492 -0.343777 0.209026 10 83 154
0.312625 0.250483 -0.235953 0.329232 -0.943035 -0.047877 169 7 121
-0.247488 -0.227625 -0.435363 -0.540452 0.639926 -0.546266 58 209 57
0.393083 0.146936 0.688210 -0.713929 -0.575478 0.398912 36 54 178
0.066531 -0.044537 -0.007266 0.307481 0.095291 -0.946771 166 139 6
0.122388 0.238248 0.603134 0.238148 -0.969845 -0.051826 157 3 120
0.204288 -0.007954 -0.800461 0.026759 0.177308 0.983792 130 150 252
0.155066 0.236356 -0.658050 -0.019736 -0.938835 0.343802 124 7 171
-0.220533 -0.216481 0.005712 -0.040505 0.998266 -0.042723 122 254 122
0.171826 -0.146554 -0.018033 0.236280 0.389976 -0.889995 157 177 14
0.278750 0.216754 0.880112 0.283893 -0.876132 -0.389613 163 15 77
-0.037538 0.215387 -0.726368 -0.019736 -0.938835 0.343802 124 7 171
-0.241243 -0.214930 -0.143431 -0.483096 0.803482 0.347902 65 229 171
0.515129 0.019629 0.885754 -0.918663 -0.393788 0.031455 10 77 131
-0.181865 0.218091 0.179937 0.435116 -0.870610 -0.229592 182 16 98
0.198977 0.211253 -0.101663 0.400591 -0.896124 -0.191021 178 13 103
0.451362 0.003350 -0.621430 -0.922386 -0.154697 0.353938 9 107 172
-0.189077 0.162606 0.259401 0.732429 -0.515484 -0.444775 220 61 70
-0.059560 -0.172269 -0.518960 -0.472676 0.309880 -0.824956 67 167 22
-0.275354 0.232791 -0.071023 0.218097 -0.975767 -0.017654 155 3 125
0.057603 -0.017320 -0.499812 0.601089 0.193855 -0.775314 204 152 28
0.133107 0.064750 -0.179081 0.668358 -0.287251 0.686137 212 90 214
0.161106 0.225970 0.744869 0.573579 -0.737431 -0.356654 200 33 82
0.411797 -0.239566 -0.477334 -0.817299 0.524715 0.238112 23 194 157
-0.158435 0.176993 -0.112932 -0.618452 -0.665159 0.418425 48 42 180
0.289821 -0.194011 -0.029201 0.112311 0.858582 -0.500223 141 236 63
0.048925 0.023647 -0.496297 0.601089 0.193855 -0.775314 204 152 28
-0.379466 0.208361 -0.572641 0.419970 -0.907461 -0.011798 181 11 125
0.349276 -0.267618 -0.190801 0.228006 0.971504 -0.064755 156 251 119
0.475893 -0.188018 -0.388485 -0.724504 0.684065 0.084550 35 214 138
-0.420262 0.104389 -0.452785 0.944651 -0.324936 0.045285 247 86 133
-0.030830 0.197297 0.195188 -0.749797 -0.460319 0.475300 31 68 188
0.162859 -0.236307 -0.638214 -0.091428 0.918794 0.384004 115 244 176
0.402880 0.037912 0.058287 -0.182026 -0.117044 -0.976303 104 112 3
-0.208683 -0.163149 -0.265369 -0.916350 0.357629 0.180010 10 173 150
0.442072 -0.039139 0.680455 -0.797998 0.267607 0.539986 25 161 196
-0.430801 0.086800 -0.366750 0.929891 -0.365487 0.041486 246 80 132
0.443517 -0.144207 0.772871 -0.634772 0.655223 0.409571 46 211 179
-0.071089 -0.243656 -0.597619 -0.325597 0.939173 -0.109273 85 247 113
0.161015 0.113737 -0.444171 0.537733 -0.291672 -0.791056 196 90 26
0.564235 0.061726 -0.172555 -0.988367 0.052170 -0.142863 1 134 109
0.312794 0.111515 0.033420 0.133328 -0.352288 -0.926346 144 82 9
0.267655 0.139767 0.537051 -0.619490 -0.565352 0.544618 48 55 196
0.428056 0.215555 -0.485031 -0.719906 -0.653668 0.233352 35 44 157
0.086133 -0.227314 0.492516 0.244806 0.969478 0.013516 158 251 129
-0.032075 0.052749 0.028412 -0.869882 -0.058160 0.489819 16 120 189
0.286597 -0.112501 0.953054 0.273320 0.112459 -0.955327 162 141 5
0.261762 0.040190 0.044958 0.272114 -0.105427 -0.956472 162 114 5
0.267230 0.242784 -0.339137 0.234709 -0.968287 -0.085632 157 4 116
0.040353 0.065742 -0.505889 -0.194321 -0.413871 -0.889354 102 74 14
-0.015637 -0.197219 -0.728816 -0.010261 0.803247 0.595558 126 229 203
0.016542 -0.212614 0.334563 -0.369838 0.869571 0.327210 80 238 169
0.312814 -0.270469 -0.420585 0.470375 0.859854 -0.198490 187 237 102
0.330088 0.129339 0.597242 -0.619490 -0.565352 0.544618 48 55 196
-0.224858 -0.099695 -0.759028 0.230894 0.412918 0.881015 156 180 239
0.355281 0.251482 -0.118512 -0.021201 -0.896404 -0.442730 124 13 71
-0.094831 -0.057750 0.479773 0.800219 0.165773 -0.576340 229 148 54
0.550983 -0.097567 -0.212744 -0.914609 0.401326 0.049266 10 178 133
-0.398274 0.166671 -0.223815 0.702701 -0.709518 -0.052869 217 37 120
-0.281984 -0.021316 0.178597 0.888116 0.028590 -0.458729 240 131 69
-0.278752 0.225386 -0.022991 0.752534 -0.632808 -0.182336 223 46 104
0.081078 -0.016705 -0.795532 0.026759 0.177308 0.983792 130 150 252
0.077434 0.019996 -0.475106 0.601089 0.193855 -0.775314 204 152 28
-0.420459 -0.069692 -0.123810 0.945409 0.085359 -0.314508 248 138 87
0.111093 0.068440 0.819398 0.918725 -0.153057 -0.364031 244 107 81
-0.162565 0.135225 0.328868 0.718326 -0.499403 -0.484360 219 63 65
0.472210 0.211354 -0.183610 -0.692389 -0.721142 -0.023485 39 35 124
-0.426287 0.072050 -0.597887 0.929891 -0.365487 0.041486 246 80 132
0.213499 -0.130600 0.908893 0.457375 0.291366 -0.840187 185 164 20
0.019429 0.101160 -0.517799 -0.194321 -0.413871 -0.889354 102 74 14
-0.245855 -0.152636 0.174150 0.749003 0.518800 -0.412118 222 193 74
-0.182149 0.043383 0.347606 0.821372 -0.186140 -0.539166 232 103 58
0.162931 0.151522 -0.775048 0.029173 -0.455058 0.889984 131 69 240
0.479795 0.048104 -0.540102 -0.888650 -0.171444 0.425333 14 105 181
-0.013081 -0.230611 0.392244 -0.132535 0.988700 0.070053 110 253 136
-0.194135 -0.219083 -0.044656 0.373555 0.916231 0.144837 175 244 145
0.227627 0.255983 -0.564757 0.101349 -0.992662 -0.065965 140 0 119
0.201867 0.079997 0.023531 0.272114 -0.105427 -0.956472 162 114 5
0.197416 0.239309 0.748626 0.118066 -0.985657 -0.120582 142 1 112
-0.004227 -0.151898 -0.750719 0.013609 0.430519 0.902479 129 182 242
-0.443562 -0.036456 -0.374067 0.944188 0.329382 0.004002 247 169 128
0.354620 0.219586 0.735661 -0.491978 -0.848375 0.195496 64 19 152
-0.140594 -0.173361 -0.738424 0.013609 0.430519 0.902479 129 182 242
0.531409 0.117139 -0.340171 -0.960100 -0.183512 0.211023 5 104 154
0.475913 0.180756 -0.408681 -0.795809 -0.583463 0.162045 26 53 148
0.529557 -0.132680 -0.299914 -0.859751 0.500682 0.100723 17 191 140
0.162601 0.192013 -0.127144 0.366493 -0.888647 0.275662 174 14 162
-0.317192 -0.202793 -0.676290 0.240092 0.857105 0.455771 158 236 185
0.081803 0.191584 -0.545383 0.280252 -0.732327 -0.620610 163 34 48
0.290986 0.214435 0.885676 -0.048646 -0.864351 -0.500530 121 17 63
0.228311 -0.227621 0.584052 -0.223456 0.931602 0.286681 99 246 164
-0.427066 0.096926 -0.364397 0.944651 -0.324936 0.045285 247 86 133
-0.375820 0.198570 -0.353450 0.702701 -0.709518 -0.052869 217 37 120
0.420927 -0.124225 -0.609510 -0.922877 0.296245 0.246041 9 165 158
-0.219408 -0.216535 -0.688229 0.120776 0.859365 0.496895 142 237 190
0.268789 0.255023 -0.475837 0.228333 -0.972815 -0.038653 156 3 122
0.371401 0.108801 0.945847 0.068031 -0.423195 -0.903481 136 73 12
0.267117 -0.130331 -0.767520 0.020797 0.457342 0.889048 130 185 240
0.349584 0.161937 0.019940 0.206208 -0.347364 -0.914777 153 83 10
0.004394 -0.135078 0.176104 -0.772592 0.303746 0.557530 28 166 198
0.000434 0.159020 -0.541432 -0.143420 -0.448789 -0.882054 109 70 15
0.190848 0.122648 -0.270132 0.906654 -0.353284 0.230584 243 82 156
0.035710 0.147056 -0.773161 0.029173 -0.455058 0.889984 131 69 240
0.000183 0.098570 0.577054 0.771409 -0.227254 -0.594377 225 98 51
-0.224458 0.060114 -0.780679 0.239710 -0.158609 0.957801 158 107 249
0.405339 0.145053 -0.646217 -0.728435 -0.511279 0.456044 34 62 185
0.015274 0.007967 -0.796510 0.015494 -0.089022 0.995909 129 116 254
0.283061 0.240223 0.674779 -0.260374 -0.907747 0.328938 94 11 169
0.206207 -0.247394 0.673877 0.087592 0.989959 -0.110942 138 253 113
0.070096 -0.201503 0.633777 0.650334 0.603234 -0.461708 210 204 68
-0.128633 -0.131289 -0.104848 -0.848341 0.292537 0.441293 19 164 183
0.118952 -0.106703 -0.014608 0.236280 0.389976 -0.889995 157 177 14
-0.253849 -0.238974 -0.636626 0.133441 0.874969 0.465427 144 239 186
0.395182 -0.167784 0.731043 -0.743325 0.566063 0.356429 32 199 172
0.249324 0.221045 -0.366668 0.894311 -0.446693 -0.025943 241 70 124
-0.118973 -0.261168 -0.605455 -0.325597 0.939173 -0.109273 85 247 113
-0.003420 0.175003 -0.757589 0.029173 -0.455058 0.889984 131 69 240
0.049599 0.155700 -0.545175 0.567450 -0.340900 -0.749525 199 84 31
0.455269 0.137736 0.855372 -0.795804 -0.595067 0.112207 26 51 141
-0.045710 0.040242 -0.491865 -0.594846 -0.038428 -0.802921 51 122 25
0.169384 -0.008631 0.910726 0.762000 0.159144 -0.627718 224 147 47
0.487054 0.065745 0.910088 -0.852809 -0.361932 -0.376459 18 81 79
0.374021 -0.000210 0.583313 -0.723245 -0.144232 0.675362 35 109 213
0.022828 -0.212322 0.340892 -0.369838 0.869571 0.327210 80 238 169
0.240669 -0.030789 0.044353 0.189343 0.094269 -0.977375 151 139 2
-0.047887 -0.244358 -0.665794 -0.010261 0.803247 0.595558 126 229 203
0.094423 0.234805 -0.665768 -0.019736 -0.938835 0.343802 124 7 171
-0.227138 0.185571 -0.316400 -0.828292 -0.543964 -0.134294 21 58 110
0.241621 0.225601 -0.158863 0.614473 -0.785664 0.071795 205 27 136
-0.414189 -0.009006 -0.091049 0.934328 0.086935 -0.345650 246 138 83
-0.351546 0.221327 -0.583160 0.402220 -0.899232 0.172051 178 12 149
0.498298 -0.095986 -0.480363 -0.863750 0.050537 0.501379 17 133 191
-0.328042 -0.091515 0.085037 0.886745 0.333940 -0.319637 240 170 86
-0.064041 0.074005 0.503094 0.771409 -0.227254 -0.594377 225 98 51
0.289364 0.246028 -0.308160 0.329232 -0.943035 -0.047877 169 7 121
0.153375 -0.165832 -0.155499 0.715318 0.269604 0.644697 218 161 209
0.309604 0.253018 -0.306662 0.329232 -0.943035 -0.047877 169 7 121
-0.172036 -0.052720 -0.258157 -0.968924 0.002522 0.247345 3 127 159
-0.221936 0.242306 -0.609852 0.068388 -0.994816 0.075265 136 0 137
0.285064 0.219202 0.878020 -0.048646 -0.864351 -0.500530 121 17 63
0.454994 -0.202820 -0.082896 -0.647500 0.740117 -0.181579 44 221 104
0.143326 -0.130973 -0.764294 0.020797 0.457342 0.889048 130 185 240
-0.298018 -0.237852 -0.483509 0.178605 0.978932 -0.098960 150 252 114
-0.232898 -0.138748 0.215181 0.749003 0.518800 -0.412118 222 193 74
0.405653 0.162924 -0.625680 -0.728435 -0.511279 0.456044 34 62 185
-0.314042 -0.222645 -0.362006 0.178605 0.978932 -0.098960 150 252 114
0.359335 0.222780 0.859054 -0.473901 -0.880498 -0.011868 67 15 125
0.464283 0.120548 0.828154 -0.795804 -0.595067 0.112207 26 51 141
-0.015066 0.027040 0.057378 -0.893652 -0.065936 0.443890 13 119 184
0.379054 -0.214622 -0.604514 -0.517641 0.794939 0.316417 61 228 167
-0.009052 0.180984 -0.551065 -0.143420 -0.448789 -0.882054 109 70 15
0.430445 -0.177787 0.866265 -0.692836 0.714183 -0.099607 39 218 114
-0.428692 -0.030132 -0.684450 0.855132 0.377496 0.355310 236 175 172
0.339091 -0.235957 0.784307 -0.436819 0.885063 0.160790 71 240 148
0.533680 0.106710 -0.338905 -0.960100 -0.183512 0.211023 5 104 154
0.384534 0.254074 -0.214414 -0.178219 -0.983490 -0.031387 104 2 123
-0.027801 0.143900 -0.529149 -0.143420 -0.448789 -0.882054 109 70 15
0.178499 0.167716 -0.463027 0.538577 -0.591532 -0.600021 196 52 50
-0.017747 -0.200007 0.494420 0.430176 0.853819 -0.293158 182 236 90
0.116030 -0.237584 -0.646310 -0.091428 0.918794 0.384004 115 244 176
-0.278295 -0.232570 -0.383628 0.287571 0.956837 -0.042008 164 249 122
0.237472 0.242280 0.644369 -0.260374 -0.907747 0.328938 94 11 169
-0.077445 0.110330 -0.032405 -0.835928 -0.097306 0.540144 20 115 196
0.454728 0.224302 -0.241984 -0.687899 -0.724237 0.047709 39 35 133
0.436388 0.166829 -0.561635 -0.764302 -0.542559 0.348529 30 58 171
0.298489 -0.242845 -0.100049 0.252430 0.784971 -0.565773 159 227 55
0.558733 0.046624 -0.140001 -0.988367 0.052170 -0.142863 1 134 109
-0.139135 -0.106940 -0.135832 -0.918374 0.127424 0.374635 10 143 175
0.215661 -0.075651 0.929126 0.457375 0.291366 -0.840187 185 164 20
0.524641 0.136951 -0.321350 -0.793124 -0.592400 0.141483 26 51 145
0.145331 -0.181497 -0.092658 0.384119 0.851300 -0.357408 176 236 81
-0.018056 -0.223961 -0.692790 -0.010261 0.803247 0.595558 126 229 203
0.236724 -0.202177 -0.355064 0.795363 0.599445 -0.089800 228 203 116
0.419870 0.173028 0.866086 -0.677459 -0.733056 -0.060651 41 34 119
-0.206225 0.177141 -0.416772 -0.838364 -0.529556 -0.129288 20 59 111
-0.038370 0.146510 -0.771012 0.029173 -0.455058 0.889984 131 69 240
-0.120317 -0.259442 -0.586617 -0.325597 0.939173 -0.109273 85 247 113
0.293789 0.192891 -0.723122 -0.533799 -0.595663 0.600204 59 51 204
0.170374 -0.053244 0.900618 0.762000 0.159144 -0.627718 224 147 47
-0.436198 -0.064641 -0.182554 0.952247 0.235467 -0.194375 248 157 102
0.489450 -0.076828 0.900221 -0.896327 0.286084 -0.338752 13 163 84
0.368018 -0.067880 0.043222 -0.112302 0.247616 -0.962328 113 159 4
-0.253289 0.155042 0.149643 0.850526 -0.344260 -0.397607 235 83 76
-0.205339 -0.043288 0.307778 0.856404 0.178734 -0.484383 236 150 65
-0.169817 -0.053004 -0.249460 -0.968924 0.002522 0.247345 3 127 159
-0.429085 0.096664 -0.174225 0.884844 -0.298830 -0.357425 240 89 81
0.302748 0.248351 -0.261878 0.329232 -0.943035 -0.047877 169 7 121
-0.020379 -0.110260 -0.518117 -0.472676 0.309880 -0.824956 67 167 22
0.250030 0.212158 -0.060180 0.074744 -0.909323 -0.409323 137 11 75
-0.070682 0.192921 0.087578 -0.696703 -0.637823 0.328309 38 46 169
0.118208 -0.154658 0.793028 0.872821 0.265142 -0.409735 238 161 75
0.506407 0.005165 0.834209 -0.959996 -0.137584 0.243882 5 109 158
-0.434073 -0.061354 -0.563493 0.944188 0.329382 0.004002 247 169 128
0.364712 0.077067 0.600385 -0.724992 -0.266897 0.634942 35 93 208
0.239326 0.256555 -0.555398 0.101349 -0.992662 -0.065965 140 0 119
-0.292744 0.204730 -0.009048 0.752534 -0.632808 -0.182336 223 46 104
0.205371 0.020519 0.935143 0.478815 -0.226035 -0.848318 188 98 19
0.550635 -0.005958 -0.123299 -0.965532 0.106379 -0.237552 4 141 97
-0.290504 0.217327 -0.635098 0.204932 -0.881630 0.425125 153 15 181
0.380573 -0.095441 0.034665 -0.112302 0.247616 -0.962328 113 159 4
-0.031653 -0.209759 -0.712178 -0.010261 0.803247 0.595558 126 229 203
0.207250 0.177405 0.874518 0.464942 -0.732189 -0.497723 186 34 64
0.408795 0.100295 -0.672277 -0.759294 -0.184344 0.624092 30 103 207
0.356073 0.243492 -0.535836 -0.325088 -0.913224 0.245641 86 11 158
0.506040 -0.048824 -0.026879 -0.666133 0.140189 -0.732540 42 145 34
0.312710 -0.260325 -0.366301 0.610643 0.787621 0.082275 205 227 137
0.140521 0.233259 -0.667343 -0.019736 -0.938835 0.343802 124 7 171
-0.037650 -0.049514 -0.493540 -0.594846 -0.038428 -0.802921 51 122 25
-0.160832 -0.227847 -0.682903 0.120776 0.859365 0.496895 142 237 190
0.046742 -0.131845 -0.533875 -0.010702 0.479524 -0.877463 126 188 15
-0.356216 -0.221237 -0.557246 0.879713 0.474922 -0.023541 239 188 124
0.169283 -0.055689 0.898674 0.762000 0.159144 -0.627718 224 147 47
0.057643 0.196905 0.331534 -0.710313 -0.499069 0.496374 36 63 190
-0.129266 -0.164822 0.356107 0.710633 0.501003 -0.493961 218 191 64
0.235948 0.244682 0.742434 0.118066 -0.985657 -0.120582 142 1 112
-0.147702 -0.191994 -0.729428 0.013609 0.430519 0.902479 129 182 242
-0.139269 0.239561 0.168052 0.308513 -0.925398 -0.220134 166 9 99
-0.164693 -0.012646 -0.359652 -0.917121 -0.025109 -0.397817 10 124 76
-0.211747 0.004801 -0.790325 0.219985 0.237326 0.946194 155 157 248
0.298070 0.238466 0.681812 -0.260374 -0.907747 0.328938 94 11 169
-0.086244 -0.080971 -0.473230 -0.431596 0.235354 -0.870823 72 157 16
0.272047 -0.022227 -0.797199 -0.382726 0.074714 0.920836 78 137 244
0.398905 -0.256421 -0.392254 -0.357204 0.932084 0.060202 81 246 135
0.075517 0.057171 -0.010130 0.359149 -0.413451 -0.836702 173 74 20
0.396971 0.000455 0.960690 -0.086777 -0.058859 -0.994488 116 119 0
0.247028 0.095323 -0.788613 0.010000 -0.218051 0.975886 128 99 251
0.181615 -0.114590 -0.413512 0.970472 0.185795 -0.153832 251 151 107
-0.059613 -0.230314 0.292152 0.087668 0.982822 -0.162403 138 252 106
0.250416 0.187047 0.893410 0.270109 -0.411545 -0.870444 161 75 16
-0.138387 0.212418 -0.003390 -0.402039 -0.894939 0.193514 76 13 152
0.182225 -0.157339 -0.194381 0.899712 0.312202 0.305039 242 167 166
0.035620 0.213836 0.346078 -0.370466 -0.870615 0.323704 80 16 168
0.119928 -0.089813 0.829668 0.772209 0.156839 -0.615707 225 147 48
0.205717 0.194310 -0.193996 0.614473 -0.785664 0.071795 205 27 136
0.058329 0.128710 -0.526290 0.567450 -0.340900 -0.749525 199 84 31
0.380780 0.245881 -0.473825 -0.449851 -0.879692 0.154195 70 15 147
0.096398 0.227971 0.589590 0.724398 -0.666129 -0.177537 219 42 104
0.035320 -0.135883 -0.535942 -0.010702 0.479524 -0.877463 126 188 15
0.105301 -0.187475 -0.551021 0.629001 0.505796 -0.590363 207 191 52
-0.184598 0.220901 -0.679522 0.222735 -0.892546 0.392110 155 13 177
0.444597 -0.226431 -0.345881 -0.724504 0.684065 0.084550 35 214 138
0.011077 -0.208011 0.316154 -0.369838 0.869571 0.327210 80 238 169
-0.004430 -0.146133 -0.540731 -0.472676 0.309880 -0.824956 67 167 22
0.553191 0.083584 -0.141565 -0.926467 -0.329028 -0.182753 9 85 104
0.023091 -0.154943 0.601700 0.864547 0.258142 -0.431186 237 160 72
0.485137 0.073101 0.907357 -0.852809 -0.361932 -0.376459 18 81 79
0.016932 -0.013431 -0.051669 0.951139 0.275196 -0.140008 248 162 109
0.474030 -0.174892 -0.069466 -0.738457 0.629148 -0.242599 33 207 96
0.319069 0.263649 -0.432978 0.234709 -0.968287 -0.085632 157 4 116
0.163191 -0.149113 0.405308 -0.638337 0.566223 0.521457 46 199 193
-0.061248 0.066823 -0.015176 -0.835928 -0.097306 0.540144 20 115 196
0.188988 0.032181 -0.330294 0.928614 -0.077894 -0.362779 245 117 81
-0.121347 0.095998 0.420237 0.794072 -0.185021 -0.578980 228 103 53
0.216936 0.168788 0.509485 -0.619490 -0.565352 0.544618 48 55 196
-0.159568 0.165563 0.302032 0.718326 -0.499403 -0.484360 219 63 65
0.172398 0.238363 0.572160 -0.252686 -0.927201 0.276491 95 9 162
-0.193269 -0.118094 0.301719 0.836804 0.175828 -0.518502 234 149 61
-0.020060 -0.021449 0.594177 0.806630 0.159742 -0.569062 230 147 54
-0.014540 -0.004151 -0.795194 0.026759 0.177308 0.983792 130 150 252
-0.104480 0.110896 -0.781406 0.020628 -0.134252 0.990733 130 110 253
0.248702 -0.068581 -0.788143 0.017388 0.220540 0.975223 129 155 251
0.524358 -0.058493 -0.065777 -0.924957 0.094167 -0.368221 9 139 80
-0.155074 0.003683 0.402559 0.821372 -0.186140 -0.539166 232 103 58
-0.223648 -0.036814 -0.777120 0.219985 0.237326 0.946194 155 157 248
-0.217855 -0.090392 -0.765029 0.219985 0.237326 0.946194 155 157 248
0.303170 -0.028318 -0.783769 -0.382726 0.074714 0.920836 78 137 244
-0.173957 -0.023482 -0.265981 -0.968924 0.002522 0.247345 3 127 159
0.339305 -0.275161 -0.446299 -0.348170 0.934756 0.070773 83 246 136
0.058849 0.232170 0.499188 0.081942 -0.996423 -0.020673 137 0 124
0.454478 -0.119856 0.913442 -0.592688 0.414126 -0.690811 51 180 39
-0.076021 -0.092203 -0.777011 0.017388 0.220540 0.975223 129 155 251
-0.415645 0.114120 -0.479264 0.944651 -0.324936 0.045285 247 86 133
0.361378 -0.251054 -0.084757 -0.168259 0.781214 -0.601160 106 227 50
-0.111709 -0.244325 -0.563368 -0.267197 0.823247 -0.500869 93 232 63
-0.246255 -0.252197 -0.564176 -0.166617 0.977620 -0.128445 106 252 111
0.254868 0.254258 -0.621625 0.022060 -0.915824 0.400973 130 10 178
0.012265 -0.005903 -0.104509 0.898373 -0.181308 0.400067 242 104 178
-0.170272 0.143832 -0.439392 -0.783184 -0.266472 -0.561797 27 93 55
0.105826 -0.069464 -0.785395 0.017388 0.220540 0.975223 129 155 251
-0.257814 0.011140 0.227414 0.888116 0.028590 -0.458729 240 131 69
-0.220814 0.244144 -0.586567 0.068388 -0.994816 0.075265 136 0 137
-0.168823 0.073409 -0.388471 -0.914433 -0.345654 -0.210559 10 83 100
-0.436391 0.046798 -0.163917 0.974819 -0.050272 -0.217256 251 121 99
-0.177843 -0.071476 -0.274106 -0.951499 0.282579 0.121651 6 163 143
0.497553 0.015224 0.805032 -0.959996 -0.137584 0.243882 5 109 158
-0.272999 -0.251783 -0.607054 0.133441 0.874969 0.465427 144 239 186
-0.418324 0.141398 -0.227653 0.944651 -0.324936 0.045285 247 86 133
-0.308921 -0.237088 -0.495634 0.178605 0.978932 -0.098960 150 252 114
-0.422107 -0.113396 -0.378293 0.973933 0.225239 0.026871 251 156 130
0.551132 -0.073693 -0.155651 -0.965532 0.106379 -0.237552 4 141 97
-0.321513 0.196895 -0.088363 0.626164 -0.695925 -0.351578 207 38 82
0.426694 0.225211 -0.092490 -0.279893 -0.933146 -0.225608 91 8 98
0.140796 0.170077 0.423552 -0.710313 -0.499069 0.496374 36 63 190
0.522343 -0.087130 -0.426177 -0.883403 0.358715 0.301533 14 173 165
0.429731 -0.036768 0.044484 -0.664410 0.138420 -0.734438 42 145 33
0.026241 0.062168 -0.053470 0.755143 -0.399937 -0.519432 223 76 61
0.292242 -0.049501 0.508642 -0.723761 0.256069 0.640779 35 160 209
-0.000137 -0.026641 0.097762 -0.954122 0.248437 0.167126 5 159 148
0.410069 0.165883 -0.615307 -0.728435 -0.511279 0.456044 34 62 185
0.222602 -0.236221 0.607550 -0.223456 0.931602 0.286681 99 246 164
-0.389434 -0.160397 -0.571172 0.879713 0.474922 -0.023541 239 188 124
-0.022910 -0.163555 0.153783 -0.772592 0.303746 0.557530 28 166 198
0.299918 0.174946 0.003898 0.252971 -0.538125 -0.804007 159 58 24
0.160160 0.007050 -0.252667 0.854657 -0.041963 0.517494 236 122 193
0.082634 0.059163 0.758980 0.922209 -0.220154 -0.317903 245 99 86
0.129818 -0.222888 -0.580247 0.409152 0.879074 -0.244589 179 239 96
0.477543 -0.043976 -0.000128 -0.664410 0.138420 -0.734438 42 145 33
-0.224603 0.082559 0.261441 0.855791 -0.201663 -0.476396 236 101 66
0.137998 0.088112 -0.789107 0.010000 -0.218051 0.975886 128 99 251
0.312360 0.077288 -0.771273 -0.511301 -0.140859 0.847779 62 109 235
-0.117115 0.153447 -0.062729 -0.697765 -0.600908 0.389915 38 50 177
-0.093239 -0.117171 -0.479547 -0.431596 0.235354 -0.870823 72 157 16
0.377375 0.017990 0.590792 -0.723245 -0.144232 0.675362 35 109 213
0.316976 -0.270639 -0.454598 0.202205 0.977821 0.054576 153 252 134
0.140167 -0.012795 -0.434402 0.613400 0.178978 -0.769225 205 150 29
0.213996 0.251881 -0.523980 0.101349 -0.992662 -0.065965 140 0 119
0.388723 0.162236 0.702479 -0.713929 -0.575478 0.398912 36 54 178
-0.150955 0.110863 -0.450682 -0.783184 -0.266472 -0.561797 27 93 55
-0.144682 -0.093814 0.393461 0.841924 0.199222 -0.501472 234 152 63
0.319094 -0.067282 -0.773951 -0.528949 0.174156 0.830591 60 149 233
0.411320 -0.118023 0.026243 -0.088136 0.238793 -0.967063 116 157 4
-0.314118 0.202295 -0.657421 0.129469 -0.899101 0.418158 144 12 180
-0.438050 0.073143 -0.324580 0.929891 -0.365487 0.041486 246 80 132
0.415467 0.181097 0.817747 -0.677459 -0.733056 -0.060651 41 34 119
-0.272107 0.232306 -0.019582 0.752534 -0.632808 -0.182336 223 46 104
-0.027070 -0.111752 0.084558 -0.897463 0.335522 0.286329 13 170 164
0.302578 0.201374 -0.026629 0.074744 -0.909323 -0.409323 137 11 75
0.443818 0.012283 0.039227 -0.705969 -0.071463 -0.704628 37 118 37
-0.135196 0.238592 -0.667316 0.222735 -0.892546 0.392110 155 13 177
0.340011 0.115874 -0.748185 -0.511301 -0.140859 0.847779 62 109 235
-0.305771 -0.237085 -0.489917 0.178605 0.978932 -0.098960 150 252 114
0.374278 0.167032 0.683546 -0.713929 -0.575478 0.398912 36 54 178
-0.406286 -0.095036 -0.102870 0.838950 0.334838 -0.429006 234 170 72
0.417652 -0.183173 -0.017327 -0.265085 0.686262 -0.677329 93 214 41
0.049900 0.104705 0.665997 0.826953 -0.254977 -0.501133 232 94 63
-0.043136 -0.034632 -0.001606 -0.869882 -0.058160 0.489819 16 120 189
0.227961 0.227109 0.819821 0.283893 -0.876132 -0.389613 163 15 77
-0.300470 -0.223423 -0.327085 0.287571 0.956837 -0.042008 164 249 122
0.537017 -0.120926 -0.281735 -0.914609 0.401326 0.049266 10 178 133
-0.235799 0.229065 -0.637126 0.204932 -0.881630 0.425125 153 15 181
-0.000376 0.235179 0.370374 0.052454 -0.997243 -0.052492 134 0 120
-0.138735 -0.076546 -0.145189 -0.918374 0.127424 0.374635 10 143 175
-0.286288 0.164599 0.074200 0.836273 -0.339780 -0.430345 234 84 72
0.386037 0.243922 -0.119444 -0.279893 -0.933146 -0.225608 91 8 98
-0.156310 0.173425 -0.752090 0.208011 -0.564740 0.798624 154 55 229
0.074862 0.159523 0.318690 -0.708192 -0.491601 0.506747 37 64 192
-0.323451 -0.129785 0.056685 0.767321 0.518719 -0.377028 225 193 79
0.009144 -0.209808 0.505334 0.430176 0.853819 -0.293158 182 236 90
0.179262 0.083469 0.392616 -0.723245 -0.144232 0.675362 35 109 213
0.480856 -0.128128 -0.487372 -0.767633 0.526605 0.365278 29 194 174
0.078992 0.227222 -0.687360 -0.019736 -0.938835 0.343802 124 7 171
0.291674 -0.134899 -0.761431 -0.184049 0.566979 0.802908 104 199 229
0.018325 0.075737 0.625004 0.876418 -0.242576 -0.415991 239 96 74
0.554793 -0.087622 -0.223031 -0.914609 0.401326 0.049266 10 178 133
0.174872 -0.053980 0.905739 0.663244 0.267054 -0.699135 212 161 38
-0.284312 -0.009839 0.174804 0.888116 0.028590 -0.458729 240 131 69
0.135570 0.214351 -0.719260 -0.019736 -0.938835 0.343802 124 7 171
-0.316071 0.141835 0.034298 0.836273 -0.339780 -0.430345 234 84 72
0.182615 -0.028488 0.921753 0.762000 0.159144 -0.627718 224 147 47
-0.043904 -0.143636 0.069155 -0.897463 0.335522 0.286329 13 170 164
0.133045 -0.019179 0.863939 0.762000 0.159144 -0.627718 224 147 47
0.343400 -0.268652 -0.226994 0.228006 0.971504 -0.064755 156 251 119
-0.391860 0.027990 -0.055887 0.830772 -0.197848 -0.520264 233 102 61
0.546426 -0.064135 -0.331800 -0.989934 0.093141 0.106560 1 139 141
0.475136 -0.097299 -0.526010 -0.821067 0.289888 0.491746 22 164 190
-0.432452 -0.073294 -0.339482 0.973933 0.225239 0.026871 251 156 130
0.478096 -0.081373 -0.007698 -0.666133 0.140189 -0.732540 42 145 34
-0.412469 0.154228 -0.282030 0.967012 -0.251498 0.040456 250 95 132
-0.429987 -0.073787 -0.504130 0.944188 0.329382 0.004002 247 169 128
-0.354608 0.146222 -0.677889 0.551155 -0.236735 0.800116 197 97 229
0.181157 -0.211506 0.503517 -0.436705 0.761733 0.478593 71 224 188
-0.072967 0.117788 -0.495604 -0.487021 -0.468461 -0.737126 65 67 33
0.471673 -0.135724 -0.500647 -0.817299 0.524715 0.238112 23 194 157
0.170064 0.109669 0.394800 -0.619490 -0.565352 0.544618 48 55 196
-0.345127 0.125112 -0.009125 0.917498 -0.197150 -0.345440 244 102 83
0.200647 0.202990 -0.142342 0.366493 -0.888647 0.275662 174 14 162
0.302275 -0.255471 -0.335314 0.610643 0.787621 0.082275 205 227 137
-0.206037 0.039514 0.311374 0.828458 -0.212011 -0.518371 233 100 61
0.203545 0.154456 -0.263121 0.704807 -0.619372 0.345870 217 48 171
0.136469 -0.234942 0.526908 -0.248313 0.931248 0.266679 95 246 161
0.356416 -0.219933 0.842480 -0.339362 0.897603 -0.281324 84 241 91
-0.247256 0.099575 -0.766555 0.351515 -0.386121 0.852847 172 78 236
-0.384537 -0.141752 -0.149700 0.796851 0.583647 -0.156157 229 201 107
-0.348805 0.219090 -0.306511 0.419970 -0.907461 -0.011798 181 11 125
0.345814 -0.250476 -0.089521 0.252430 0.784971 -0.565773 159 227 55
0.031012 -0.004270 0.676804 0.875056 0.178382 -0.449952 239 150 70
0.082843 -0.191037 -0.559355 0.100438 0.440985 -0.891877 140 183 13
0.046077 0.148958 0.634842 0.850845 -0.261724 -0.455590 235 94 69
0.067005 0.186122 0.334090 -0.710313 -0.499069 0.496374 36 63 190
-0.001202 -0.080761 -0.505373 -0.010702 0.479524 -0.877463 126 188 15
0.241217 -0.209943 -0.367117 0.795363 0.599445 -0.089800 228 203 116
-0.208437 0.240099 -0.020908 -0.402039 -0.894939 0.193514 76 13 152
0.062382 0.244864 -0.640192 -0.020513 -0.938270 0.345296 124 7 171
-0.324172 0.233337 -0.525460 0.419970 -0.907461 -0.011798 181 11 125
0.354032 -0.145115 -0.723665 -0.715121 0.522895 0.463877 36 194 186
-0.060804 -0.190043 -0.530100 -0.329488 0.531075 -0.780639 85 195 27
-0.249097 -0.215119 -0.386293 -0.688464 0.719168 -0.093889 39 219 115
-0.211078 0.189550 -0.171613 -0.628327 -0.658871 0.413636 47 43 180
-0.083326 -0.119842 -0.485494 -0.475246 0.310906 -0.823091 66 167 22
-0.203596 -0.097390 -0.765681 0.230894 0.412918 0.881015 156 180 239
0.190114 -0.011335 0.934407 0.605487 -0.199284 -0.770501 204 102 29
0.544466 0.127657 -0.222132 -0.916156 -0.378810 0.130999 10 79 144
0.432649 -0.101762 -0.594321 -0.821067 0.289888 0.491746 22 164 190
0.456920 -0.029654 0.021228 -0.664410 0.138420 -0.734438 42 145 33
-0.395662 0.070507 -0.078126 0.830772 -0.197848 -0.520264 233 102 61
0.388709 -0.048199 -0.709403 -0.765389 0.134367 0.629384 29 144 207
-0.257962 0.095768 0.190968 0.850526 -0.344260 -0.397607 235 83 76
0.094698 -0.229574 0.499476 0.244806 0.969478 0.013516 158 251 129
0.548731 -0.015603 -0.352807 -0.989934 0.093141 0.106560 1 139 141
0.082353 0.052155 -0.004717 0.359149 -0.413451 -0.836702 173 74 20
0.275774 -0.043507 0.487645 -0.723761 0.256069 0.640779 35 160 209
-0.163805 0.101465 -0.428311 -0.783184 -0.266472 -0.561797 27 93 55
0.285426 0.222244 -0.074717 0.112760 -0.892597 -0.436526 141 13 71
-0.187374 0.082731 -0.783496 0.020628 -0.134252 0.990733 130 110 253
-0.217365 0.200781 -0.706709 0.222735 -0.892546 0.392110 155 13 177
0.562054 -0.013602 -0.184971 -0.988367 0.052170 -0.142863 1 134 109
0.084414 0.137780 0.310945 -0.708192 -0.491601 0.506747 37 64 192
-0.132743 0.235030 0.104487 -0.174056 -0.931291 0.320002 105 8 168
0.538862 -0.124545 -0.217992 -0.914609 0.401326 0.049266 10 178 133
0.034954 0.115953 0.633028 0.850845 -0.261724 -0.455590 235 94 69
-0.083340 0.201228 0.076855 -0.696703 -0.637823 0.328309 38 46 169
-0.202843 0.161680 -0.245443 -0.915492 -0.343777 0.209026 10 83 154
0.387197 0.217217 -0.050663 -0.021201 -0.896404 -0.442730 124 13 71
0.410438 -0.063616 0.647785 -0.723761 0.256069 0.640779 35 160 209
0.499507 -0.043444 0.901804 -0.896327 0.286084 -0.338752 13 163 84
0.416141 -0.058054 0.652003 -0.723761 0.256069 0.640779 35 160 209
-0.197951 -0.170682 -0.417666 -0.540452 0.639926 -0.546266 58 209 57
-0.391647 -0.133032 -0.153390 0.796851 0.583647 -0.156157 229 201 107
0.266838 -0.189448 0.575984 -0.638337 0.566223 0.521457 46 199 193
0.265741 0.259629 -0.561062 0.101349 -0.992662 -0.065965 140 0 119
0.030432 0.010080 -0.023356 0.665953 0.122156 -0.735924 212 143 33
-0.357655 0.204437 -0.192689 0.704851 -0.685138 -0.183768 217 40 104
0.481086 0.153082 -0.035104 -0.664663 -0.566773 -0.486818 42 55 65
-0.267686 -0.203506 -0.699026 0.120776 0.859365 0.496895 142 237 190
0.331467 -0.250380 -0.095790 0.252430 0.784971 -0.565773 159 227 55
0.523116 -0.157553 -0.164946 -0.740426 0.615768 -0.269441 33 206 93
0.360011 -0.005611 0.964274 -0.086777 -0.058859 -0.994488 116 119 0
-0.381097 -0.169790 -0.312546 0.795917 0.605151 0.017591 228 204 129
0.433654 0.235529 -0.321472 -0.422692 -0.903881 0.065801 73 12 135
-0.353318 -0.208526 -0.293223 0.178605 0.978932 -0.098960 150 252 114
0.158383 0.045284 -0.417365 0.945084 -0.161551 -0.284109 247 106 91
-0.412341 0.129400 -0.439444 0.967012 -0.251498 0.040456 250 95 132
0.171606 0.022858 -0.270288 0.854657 -0.041963 0.517494 236 122 193
0.246436 0.002525 -0.800593 0.015494 -0.089022 0.995909 129 116 254
0.344082 -0.225689 -0.055903 0.252430 0.784971 -0.565773 159 227 55
0.107349 -0.039785 -0.172141 0.258940 0.387664 0.884684 160 176 240
0.188649 0.218552 0.795346 0.639173 -0.640600 -0.425546 208 45 73
0.084911 -0.077025 0.763064 0.946659 0.205868 -0.247901 248 153 95
-0.323326 -0.222288 -0.375228 0.178605 0.978932 -0.098960 150 252 114
0.183159 0.086265 -0.358252 0.945084 -0.161551 -0.284109 247 106 91
0.520470 -0.169156 -0.196049 -0.914609 0.401326 0.049266 10 178 133
-0.001555 -0.106204 0.583577 0.768124 0.235021 -0.595610 225 157 51
-0.120909 0.014742 -0.132540 -0.918374 0.127424 0.374635 10 143 175
-0.416289 0.128379 -0.176062 0.884181 -0.378725 -0.273480 240 79 92
-0.426074 -0.099562 -0.350460 0.973933 0.225239 0.026871 251 156 130
-0.444352 0.030475 -0.559219 0.929891 -0.365487 0.041486 246 80 132
0.497927 0.035967 -0.500144 -0.945601 0.067300 0.318293 6 136 168
-0.374876 -0.186356 -0.550858 0.879713 0.474922 -0.023541 239 188 124
-0.158237 0.020428 -0.792545 0.020628 -0.134252 0.990733 130 110 253
-0.089921 0.196624 -0.743699 0.029173 -0.455058 0.889984 131 69 240
0.318843 0.125230 0.580186 -0.619490 -0.565352 0.544618 48 55 196
-0.441736 -0.042817 -0.281301 0.944188 0.329382 0.004002 247 169 128
0.291048 -0.127667 0.948894 0.049119 0.617163 -0.785301 133 206 27
-0.417346 -0.124886 -0.217178 0.795917 0.605151 0.017591 228 204 129
0.288809 0.241898 -0.114033 0.112760 -0.892597 -0.436526 141 13 71
0.390693 -0.262720 -0.211806 -0.189007 0.981345 -0.035192 103 252 123
0.155538 -0.206970 0.472920 -0.436705 0.761733 0.478593 71 224 188
-0.188419 -0.015325 0.348011 0.856404 0.178734 -0.484383 236 150 65
0.426452 -0.230138 -0.106823 -0.466147 0.856726 -0.220743 68 236 99
0.458896 0.134801 0.005213 -0.599363 -0.534313 -0.596049 51 59 51
0.236352 0.206834 0.858412 0.464942 -0.732189 -0.497723 186 34 64
-0.373906 0.093734 -0.052218 0.830772 -0.197848 -0.520264 233 102 61
0.144060 0.133476 0.389934 -0.619490 -0.565352 0.544618 48 55 196
0.029923 0.091107 0.637907 0.850845 -0.261724 -0.455590 235 94 69
-0.217097 0.128817 0.249769 0.850526 -0.344260 -0.397607 235 83 76
0.255224 -0.239346 -0.618600 -0.053878 0.915909 0.397753 120 244 178
-0.179113 0.077928 -0.227114 -0.984490 -0.153404 0.085122 1 107 138
-0.420018 0.043298 -0.680639 0.835871 -0.331864 0.437249 234 85 183
0.308187 0.247210 -0.618501 -0.346300 -0.841940 0.413780 83 20 180
0.197208 -0.250992 -0.595186 0.143674 0.989387 -0.021724 145 253 124
0.394338 0.127796 -0.677426 -0.689190 -0.491615 0.532289 39 64 195
0.201640 0.116092 -0.315925 0.928614 -0.077894 -0.362779 245 117 81
0.048427 0.197325 0.566509 0.595915 -0.707169 -0.380523 203 37 78
0.243356 -0.235708 0.623307 -0.385723 0.866536 0.316754 78 237 167
-0.418226 0.134194 -0.281398 0.944651 -0.324936 0.045285 247 86 133
0.524141 0.107066 -0.075650 -0.880645 -0.297800 -0.368483 15 89 80
0.288026 0.027602 0.967421 0.046310 0.099443 -0.993965 133 140 0
0.174607 -0.024766 -0.279106 0.854657 -0.041963 0.517494 236 122 193
0.170491 -0.155575 -0.178779 0.715318 0.269604 0.644697 218 161 209
0.115115 0.142482 -0.776724 0.010000 -0.218051 0.975886 128 99 251
-0.402102 0.162927 -0.475739 0.967012 -0.251498 0.040456 250 95 132
0.421165 0.233934 -0.423611 -0.422692 -0.903881 0.065801 73 12 135
0.477122 0.200914 -0.274147 -0.687899 -0.724237 0.047709 39 35 133
-0.390425 0.188856 -0.417213 0.702701 -0.709518 -0.052869 217 37 120
0.442914 0.158859 -0.000281 -0.599363 -0.534313 -0.596049 51 59 51
0.446139 -0.227053 -0.327632 -0.724504 0.684065 0.084550 35 214 138
-0.146934 0.237412 0.103700 -0.174056 -0.931291 0.320002 105 8 168
0.024654 -0.006291 0.663637 0.875056 0.178382 -0.449952 239 150 70
0.536878 0.101882 -0.101899 -0.880645 -0.297800 -0.368483 15 89 80
0.106169 0.160172 -0.504380 0.567450 -0.340900 -0.749525 199 84 31
-0.130306 0.226569 0.081188 -0.174056 -0.931291 0.320002 105 8 168
-0.121872 0.185740 -0.748216 0.029173 -0.455058 0.889984 131 69 240
-0.082257 -0.037475 -0.463451 -0.431596 0.235354 -0.870823 72 157 16
0.188259 -0.015180 -0.300875 0.854657 -0.041963 0.517494 236 122 193
0.081443 -0.150734 -0.114174 0.320057 0.419914 0.849256 168 181 235
-0.043343 -0.040086 0.555774 0.768124 0.235021 -0.595610 225 157 51
-0.427006 -0.101633 -0.299296 0.973933 0.225239 0.026871 251 156 130
0.214154 0.052345 0.423334 -0.723245 -0.144232 0.675362 35 109 213
0.447166 0.192036 -0.491956 -0.719906 -0.653668 0.233352 35 44 157
0.534547 -0.099386 -0.371951 -0.892894 0.353042 0.279466 13 172 163
0.436796 0.031798 0.667974 -0.835014 -0.252441 0.488902 21 95 189
0.190938 -0.072263 0.402504 -0.730150 0.236647 0.640998 34 157 209
-0.193836 -0.154143 0.265112 0.707686 0.568968 -0.418875 217 200 74
-0.028993 0.087138 -0.786197 0.020628 -0.134252 0.990733 130 110 253
-0.089150 -0.202329 0.073448 -0.684961 0.670501 0.285055 40 212 163
0.198523 -0.048215 -0.791853 0.017388 0.220540 0.975223 129 155 251
-0.128500 -0.037954 -0.133227 -0.918374 0.127424 0.374635 10 143 175
0.017008 -0.069580 0.633209 0.806630 0.159742 -0.569062 230 147 54
0.312348 0.135738 0.583707 -0.619490 -0.565352 0.544618 48 55 196
0.228414 -0.212225 0.836990 0.352599 0.811074 -0.466727 172 230 67
0.294054 -0.263643 -0.557392 -0.053878 0.915909 0.397753 120 244 178
0.177003 0.239867 0.714787 0.206148 -0.970801 -0.122675 153 3 111
-0.037629 0.221181 0.244080 -0.386348 -0.914352 0.121228 78 10 142
0.196219 0.244658 0.703731 0.118066 -0.985657 -0.120582 142 1 112
0.312759 0.249630 -0.218223 0.329232 -0.943035 -0.047877 169 7 121
-0.109416 -0.109156 -0.469363 -0.431596 0.235354 -0.870823 72 157 16
0.123832 0.190892 0.752273 0.582734 -0.632050 -0.510817 201 46 62
0.317313 0.176583 0.910025 0.068031 -0.423195 -0.903481 136 73 12
0.500216 -0.015615 -0.485158 -0.863750 0.050537 0.501379 17 133 191
-0.221889 0.122292 0.245168 0.850526 -0.344260 -0.397607 235 83 76
0.153870 -0.238424 0.679672 0.218216 0.967795 -0.125521 155 250 111
0.322357 -0.266430 -0.380472 0.470375 0.859854 -0.198490 187 237 102
0.062830 0.102912 0.246955 -0.708192 -0.491601 0.506747 37 64 192
0.029489 0.173380 0.267179 -0.749797 -0.460319 0.475300 31 68 188
-0.019851 0.196427 0.477150 0.526777 -0.738797 -0.420339 194 33 73
-0.374427 0.199323 -0.345056 0.702701 -0.709518 -0.052869 217 37 120
0.065702 0.148241 -0.773538 0.029173 -0.455058 0.889984 131 69 240
-0.060999 0.058588 -0.016275 -0.835928 -0.097306 0.540144 20 115 196
0.256094 0.215004 0.591650 -0.630135 -0.480985 0.609576 47 66 205
0.438818 0.044827 0.952418 -0.184597 -0.062461 -0.980828 103 119 2
0.498380 -0.172796 -0.131808 -0.740426 0.615768 -0.269441 33 206 93
0.346895 0.194471 0.674122 -0.713929 -0.575478 0.398912 36 54 178
0.132956 0.087610 0.343109 -0.815693 -0.113328 0.567276 23 113 199
0.302293 -0.225085 0.666015 -0.385723 0.866536 0.316754 78 237 167
0.233490 0.248622 0.658719 -0.260374 -0.907747 0.328938 94 11 169
-0.334275 0.168877 -0.055635 0.626164 -0.695925 -0.351578 207 38 82
-0.090587 -0.208091 -0.715443 -0.010261 0.803247 0.595558 126 229 203
-0.011313 -0.226810 0.422930 0.323891 0.936163 -0.136724 168 246 110
-0.348638 -0.088630 -0.716074 0.733213 0.269331 0.624387 220 161 207
0.391829 0.116397 0.654036 -0.619490 -0.565352 0.544618 48 55 196
-0.172383 -0.178801 0.267862 0.707686 0.568968 -0.418875 217 200 74
-0.004273 0.201897 -0.742016 -0.024160 -0.692844 0.720683 124 39 219
0.022382 0.035775 0.148995 -0.954626 -0.047657 0.293971 5 121 164
0.335176 -0.036592 0.963195 0.046310 0.099443 -0.993965 133 140 0
0.280298 0.205816 0.893544 0.068031 -0.423195 -0.903481 136 73 12
