ply
format ascii 1.0
element vertex 512
property float x
property float y
property float z
property float nx
property float ny
property float nz
property uchar red
property uchar green
property uchar blue
end_header
0.663539 -0.107029 0.591565 -0.711803 0.448641 -0.540424 36 184 58
0.254940 0.263482 0.027020 -0.682786 -0.684459 -0.255574 40 40 94
0.432817 0.063218 -0.704146 -0.217282 0.010683 0.976050 99 128 251
-0.137634 -0.304609 -0.766488 0.507923 0.750861 0.422165 192 223 181
0.336500 0.278491 -0.309372 0.201031 -0.719148 -0.665141 153 35 42
0.682458 0.193549 0.649569 -0.367633 -0.704327 -0.607264 80 37 50
-0.125077 0.011234 0.056360 0.216586 0.060669 0.974377 155 135 251
0.382399 -0.105593 -0.775215 -0.943816 0.284531 0.168091 7 163 148
-0.222375 0.055773 0.579197 -0.076655 -0.106875 -0.991313 117 113 1
-0.147924 0.132952 0.508503 0.055394 -0.281417 -0.957986 134 91 5
0.316617 0.168581 -0.279771 0.814330 -0.299275 0.497294 231 89 190
0.463890 -0.011092 -0.465731 -0.823357 0.047637 -0.565521 22 133 55
0.065907 -0.090883 -0.996362 -0.783825 0.339187 0.520164 27 170 193
0.226120 0.073069 0.736574 0.248703 -0.239407 -0.938526 159 96 7
0.538065 -0.061931 -0.488486 -0.842449 0.280592 0.459944 20 163 186
0.564509 0.232444 0.652012 0.084602 -0.990158 0.111487 138 1 141
0.231647 -0.172256 -0.775954 0.247073 0.776702 0.579387 159 226 201
-0.264535 -0.150739 0.204854 0.819259 0.378988 0.430329 231 175 182
0.509922 -0.053779 -0.287133 -0.726072 0.343351 0.595760 34 171 203
0.054058 0.112208 -0.876573 0.022012 -0.299985 0.953690 130 89 249
0.601206 0.139825 0.310906 -0.886016 -0.462709 0.029585 14 68 131
0.003095 -0.106532 -0.804559 -0.240607 0.855077 -0.459295 96 236 68
-0.315916 -0.000193 -0.892702 -0.992460 -0.115164 -0.041964 0 112 122
0.341992 0.277558 0.403761 -0.233304 -0.754999 -0.612818 97 31 49
-0.328567 0.030884 0.107042 0.745587 -0.330487 0.578686 222 85 201
-0.159596 0.076446 -0.046023 0.569901 -0.233984 0.787696 200 97 227
0.533450 0.196708 -0.761172 -0.786221 -0.552753 0.276261 27 57 162
0.431206 -0.035713 -0.994974 -0.964945 0.212050 -0.154646 4 154 107
-0.300304 -0.245096 0.242461 0.499504 0.740278 0.449982 191 221 184
0.170408 0.167364 0.393730 0.373140 -0.815510 -0.442390 175 23 71
-0.272065 -0.063215 0.523110 0.960326 0.155991 0.231174 249 147 156
0.476955 0.135539 -0.563250 -0.792998 -0.497587 -0.351512 26 64 82
0.417732 0.028823 -0.381179 -0.350153 -0.175368 -0.920130 82 105 10
-0.454854 0.087341 -0.354585 0.284877 -0.266774 0.920694 163 93 244
-0.495245 -0.175057 -0.794987 0.358557 0.771748 0.525207 173 225 194
0.438335 -0.033195 -0.883088 -0.988445 0.146575 -0.038638 1 146 122
0.674614 0.142015 0.388655 -0.937141 -0.314038 -0.152140 8 87 108
0.580839 -0.111785 0.577321 -0.497217 0.527980 -0.688485 64 194 39
0.408485 0.284269 0.278332 -0.049963 -0.873624 -0.484029 121 16 65
0.135492 -0.110357 0.396938 0.869614 0.489123 -0.067303 238 189 118
0.018304 0.135276 0.230288 0.749372 -0.494486 0.440370 223 64 183
0.314965 0.159389 -0.767532 -0.217366 -0.844473 0.489507 99 19 189
0.187294 -0.044420 -0.042857 -0.867233 -0.101776 -0.487389 16 114 65
0.267241 -0.322847 0.224973 -0.272035 0.906061 0.324114 92 243 168
0.056071 -0.005854 -0.896218 0.875464 0.345551 0.337873 239 171 170
0.655753 -0.095238 0.660166 -0.104335 0.373125 -0.921896 114 175 9
-0.215982 0.207694 0.109548 0.455369 -0.836007 0.306157 185 20 166
0.526599 -0.132461 -0.600719 -0.900008 0.275662 -0.337632 12 162 84
-0.261910 -0.118568 0.517830 -0.068709 0.351845 -0.933533 118 172 8
-0.398682 -0.158519 0.432117 0.834616 0.337083 -0.435651 233 170 71
0.166155 -0.104045 -0.852291 0.017904 0.656276 0.754308 129 211 223
0.069727 0.108114 -0.638309 -0.460978 -0.794261 -0.395789 68 26 77
-0.156253 -0.180923 0.593110 -0.067747 0.583635 -0.809185 118 201 24
0.101647 0.071130 -0.887173 0.732418 -0.149503 0.664239 220 108 212
0.213486 0.174083 -0.791011 -0.339682 -0.936131 0.090965 84 8 139
0.186755 0.013484 0.720428 0.072732 0.232286 -0.969924 136 157 3
-0.197300 -0.139554 0.286542 -0.749445 0.519404 -0.410550 31 193 75
-0.473074 0.103167 -0.749910 0.743143 -0.417995 0.522512 222 74 194
0.058649 0.179046 -0.635323 -0.106456 -0.873474 -0.475089 113 16 66
0.154799 -0.121852 0.695546 0.067225 0.321446 -0.944539 136 168 7
0.304893 0.006916 -0.540707 0.474266 0.518391 0.711578 187 193 218
0.410686 0.102574 -0.207375 -0.953748 -0.300077 0.017843 5 89 129
-0.500996 0.004817 -0.857234 0.795744 -0.095181 0.598108 228 115 203
-0.119957 -0.037434 -0.860886 -0.380853 0.239245 0.893148 78 158 241
-0.162990 0.089295 0.109220 0.996913 -0.074810 0.023852 254 117 130
-0.123721 -0.122070 -0.893568 0.576616 0.538827 0.614150 201 196 205
-0.477832 0.308338 -0.723490 0.128949 -0.991339 -0.024893 143 1 124
0.278836 -0.275127 -0.774651 0.142827 0.988435 0.050963 145 253 133
0.432654 -0.052751 0.379848 -0.239424 -0.021834 0.970670 96 124 251
0.170799 0.157166 -0.318260 -0.176214 -0.981055 0.080501 105 2 137
0.350558 -0.410097 0.493832 -0.160608 0.974262 -0.158173 107 251 107
0.146768 0.004812 0.061864 -0.735667 -0.034482 0.676465 33 123 213
0.202201 0.260821 -0.778408 0.138204 -0.958612 -0.248923 145 5 95
0.180691 0.005243 -0.561010 -0.217026 0.116645 -0.969172 99 142 3
-0.006323 -0.086312 0.328459 -0.450976 0.495474 0.742379 70 190 222
0.519674 0.062815 -0.668121 -0.986643 -0.084035 -0.139546 1 116 109
-0.095133 0.312427 0.585753 0.197762 -0.969996 -0.141411 152 3 109
0.473484 -0.238633 0.751210 -0.114162 0.568274 -0.814881 112 199 23
0.344751 0.241814 -0.512109 0.307987 -0.536249 0.785864 166 59 227
-0.399234 0.146240 0.035569 0.675504 -0.713341 0.186656 213 36 151
0.122458 0.090050 0.290714 -0.184128 -0.526670 0.829889 104 60 233
0.026110 0.266851 -0.897173 -0.254822 -0.964312 0.071897 95 4 136
-0.245401 0.003654 -0.657839 0.958748 0.245018 0.144112 249 158 145
-0.201455 -0.270900 0.524218 0.282661 0.884483 -0.371206 163 240 80
-0.386684 0.086572 -0.741043 0.323676 -0.336704 0.884231 168 84 240
0.090953 0.014046 0.164529 -0.169937 -0.586410 0.791988 105 52 228
-0.271928 0.342348 0.499773 0.208454 -0.936169 -0.283080 154 8 91
-0.296655 -0.004528 0.198977 -0.033626 0.197301 0.979766 123 152 252
-0.479484 -0.229061 -0.859786 0.301006 0.741664 0.599442 165 222 203
0.227283 0.048284 0.131540 0.036199 -0.156874 0.986955 132 107 253
-0.176009 0.345043 0.067582 -0.052245 -0.876080 0.479327 120 15 188
0.211790 -0.159944 -0.884273 -0.311116 0.736944 0.600101 87 221 204
0.365655 -0.009503 -0.836838 -0.884906 -0.030619 0.464762 14 123 186
-0.226321 0.242100 0.063355 0.435746 -0.841186 0.320206 183 20 168
-0.549730 -0.148683 0.543326 0.699477 0.644798 -0.308167 216 209 88
0.264290 -0.006569 0.605888 0.218287 0.032540 -0.975342 155 131 3
0.395782 0.204916 -0.817460 -0.284313 -0.945421 0.159200 91 6 147
-0.428232 0.246239 0.475663 0.673385 -0.738544 -0.033251 213 33 123
0.317406 0.104909 -0.598353 -0.024080 -0.215329 0.976245 124 100 251
0.352979 -0.068542 -0.133065 -0.302697 0.764457 -0.569192 88 224 54
0.255746 -0.091094 -0.730358 0.321175 0.944275 -0.072043 168 247 118
-0.522745 0.138531 -0.208336 0.426993 -0.769625 0.474715 181 29 188
-0.258754 -0.137878 -0.090546 0.614957 0.363934 0.699557 205 173 216
0.660776 -0.180673 0.641644 -0.537378 0.548934 -0.640232 58 197 45
-0.399983 0.266086 -0.791398 -0.085381 -0.870738 0.484279 116 16 189
0.692592 0.011582 0.473639 -0.562401 -0.090040 0.821948 55 116 232
0.691225 -0.222393 0.596525 -0.090869 0.861987 -0.498720 115 237 63
-0.512369 0.159103 0.415797 0.427076 -0.355703 -0.831313 181 82 21
0.048019 -0.058541 -0.883684 -0.371706 0.903508 -0.213328 80 242 100
0.296555 -0.121856 -0.922684 0.359278 0.316782 0.877820 173 167 239
0.349050 -0.106202 -0.998238 -0.650418 0.104336 0.752377 44 140 223
-0.447952 0.019994 -0.695542 0.793803 0.006407 -0.608142 228 128 49
0.393167 -0.158315 -0.707643 0.119245 0.872032 -0.474701 142 238 66
-0.154549 0.161920 0.137362 0.199361 -0.568306 -0.798300 152 55 25
-0.689984 -0.089036 -0.619015 0.940442 0.141933 0.308906 247 145 166
-0.504126 -0.156519 -0.703779 0.489178 0.648123 -0.583645 189 210 53
0.181167 0.268848 -0.933599 -0.505555 -0.737294 0.448120 63 33 184
-0.389088 0.044378 0.662772 0.373795 -0.172419 -0.911345 175 105 11
0.052209 0.309245 0.448306 0.207393 -0.976480 -0.058952 153 2 119
0.567839 0.139476 0.603349 0.063651 -0.996806 0.048225 135 0 133
-0.306294 0.050143 0.347077 -0.247253 -0.364167 -0.897913 95 81 13
0.733971 -0.038293 0.677066 -0.902854 -0.027702 -0.429053 12 123 72
-0.164164 -0.110986 0.595245 0.085624 0.798625 0.595706 138 229 203
0.198473 -0.084103 0.002392 0.634037 0.541282 0.552279 208 196 197
0.675251 0.296265 0.539652 -0.253271 -0.957665 -0.136860 95 5 110
-0.254338 0.060733 -0.931788 0.482598 -0.231265 0.844757 189 98 235
-0.135039 0.170991 -0.701656 -0.469874 -0.441563 -0.764357 67 71 30
0.117342 0.265469 0.222048 -0.260254 -0.925063 -0.276633 94 9 92
0.759039 0.076059 0.515271 -0.684025 -0.224614 -0.694016 40 98 39
0.465263 0.431661 0.572158 0.094365 -0.990566 -0.099366 139 1 114
-0.101334 0.234869 0.106862 0.227879 -0.961370 -0.154399 156 4 107
0.258789 -0.281748 0.618417 -0.020734 0.720358 -0.693292 124 219 39
0.224252 0.248120 -0.076787 -0.232885 -0.940743 -0.246509 97 7 96
0.403995 0.156604 -0.605312 -0.276723 -0.773890 0.569665 92 28 200
0.555234 0.095812 0.223934 -0.980601 -0.192213 -0.038425 2 102 122
0.244904 0.002290 -0.156858 -0.680895 -0.238035 -0.692619 40 97 39
0.414878 0.257295 -0.610116 -0.290131 -0.951507 0.102262 90 6 140
-0.045190 -0.002264 -0.728490 0.229307 0.100922 0.968108 156 140 250
0.462369 0.217245 -0.331599 -0.585687 -0.523659 -0.618670 52 60 48
-0.229317 0.048269 -0.885192 -0.370735 -0.214445 0.903642 80 100 242
-0.231091 0.139740 -0.938954 -0.100106 -0.608068 0.787548 114 49 227
-0.217287 0.036017 -0.914320 -0.236465 -0.116141 0.964674 97 112 250
-0.119033 0.215891 -0.864523 0.199740 -0.816151 0.542219 152 23 196
0.462887 -0.258203 -0.401889 -0.516208 0.808785 -0.281773 61 230 91
0.560391 0.061171 0.633368 -0.750606 -0.220831 -0.622755 31 99 48
-0.043562 0.016140 0.066766 -0.869697 -0.047254 0.491319 16 121 190
0.315965 -0.050929 -0.352830 0.626246 0.634416 0.453135 207 208 185
-0.347981 -0.262334 0.100671 0.679826 0.677569 0.280599 214 213 163
0.293241 -0.286995 0.088297 0.131737 0.872287 -0.470915 144 238 67
0.428670 0.270722 0.515307 0.229250 -0.868967 -0.438566 156 16 71
0.131807 0.090578 0.444732 -0.267166 -0.932458 0.243195 93 8 158
0.564838 0.110662 -0.516374 -0.845323 -0.347003 -0.406223 19 83 75
0.287451 -0.031579 -0.709798 0.343371 -0.345633 0.873289 171 83 238
-0.081494 0.182622 -0.861767 0.354673 -0.452395 0.818258 172 69 231
-0.492986 -0.137169 0.447827 0.943607 0.312550 -0.109173 247 167 113
0.533291 0.085532 0.383580 0.633591 -0.394414 0.665582 208 77 212
-0.228708 0.169111 0.574516 0.233825 -0.691857 -0.683125 157 39 40
0.174371 0.253807 0.437752 -0.604684 -0.760432 -0.236855 50 30 97
0.286834 -0.061687 -0.505487 -0.060505 0.139351 -0.988393 119 145 1
0.291041 0.173141 -0.886993 -0.250755 -0.493073 0.833068 95 64 233
-0.260243 -0.160550 -0.846305 0.168781 0.980849 -0.097200 149 252 115
0.121583 -0.002889 -1.003849 0.477735 0.146543 0.866195 188 146 237
0.249665 -0.189165 -0.701259 -0.802284 0.544219 -0.245287 25 196 96
0.420536 -0.091012 -0.687774 -0.254887 0.292987 0.921516 95 164 244
0.367575 0.262349 -0.734671 -0.063831 -0.996623 0.051663 119 0 134
0.518312 0.072853 0.372007 0.896233 -0.245840 0.369229 241 96 174
0.109551 0.076679 0.036358 0.898875 -0.429026 0.089220 242 72 138
-0.062414 0.203437 0.468659 0.158358 -0.734899 0.659429 147 33 211
0.545409 0.020052 -0.771099 -0.606143 -0.049371 0.793822 50 121 228
-0.510574 0.191360 -0.716991 0.329494 -0.804712 0.493834 169 24 190
-0.142917 -0.173964 -0.799341 -0.011530 0.728894 -0.684529 126 220 40
0.025449 0.086680 -0.910153 -0.250167 -0.849662 0.464210 95 19 186
0.470855 0.116870 -1.003802 -0.798983 -0.213938 0.562012 25 100 199
-0.457179 0.111295 0.006223 0.930240 -0.241625 0.276174 246 96 162
0.124323 -0.205508 0.331987 -0.388649 0.807316 -0.444064 77 230 70
-0.332896 -0.079688 0.566066 0.152592 0.324558 -0.933476 146 168 8
-0.535995 -0.183424 -0.597399 0.752185 0.621795 -0.218148 223 206 99
-0.376243 0.070872 0.265685 0.211837 -0.454557 -0.865161 154 69 17
-0.020719 0.269413 0.013950 0.202725 -0.924069 -0.324037 153 9 86
-0.319731 -0.019405 0.465435 0.674643 0.105318 -0.730593 213 140 34
-0.570256 -0.215258 -0.793573 0.686945 0.586213 0.429490 215 202 182
0.359319 -0.112781 -0.459117 0.216902 0.736906 0.640253 155 221 209
-0.287587 0.196455 -0.838541 0.771983 -0.635534 -0.011779 225 46 125
-0.107784 -0.217478 -0.920088 0.465904 0.737172 0.489399 186 221 189
-0.390225 -0.120123 0.488185 0.929169 0.251495 0.270915 245 159 162
-0.265239 -0.264475 0.161214 0.117145 0.837821 0.533229 142 234 195
-0.262683 0.161406 0.214531 0.342472 -0.694861 0.632361 171 38 208
0.336515 -0.259994 -0.622216 -0.416374 0.893807 -0.166557 74 241 106
-0.010385 0.164237 0.035043 -0.389302 -0.841754 -0.374023 77 20 79
-0.141188 0.189448 0.443935 0.485561 -0.872341 0.057029 189 16 134
0.470780 -0.029064 -0.532746 -0.235747 0.073672 0.969018 97 136 251
0.527681 -0.042395 -0.398013 0.080972 0.050949 0.995413 137 133 254
-0.208099 0.039904 -0.364178 0.361063 -0.337475 0.869336 173 84 238
0.259583 0.150411 -0.892882 0.166537 -0.283983 0.944256 148 91 247
0.068883 -0.022805 -0.866109 0.996761 0.080329 -0.003797 254 137 127
0.444977 0.138051 -0.116754 -0.678788 -0.440621 -0.587451 40 71 52
-0.169583 -0.084545 -0.896933 0.782375 0.352521 0.513438 227 172 192
0.267677 0.205011 -0.538712 0.520521 -0.638503 0.566897 193 46 199
-0.253675 -0.195431 -0.667077 0.141879 0.979202 0.145031 145 252 145
-0.164699 0.175468 0.093156 -0.390187 -0.899013 -0.198821 77 12 102
0.320655 -0.091599 -0.864213 -0.946761 0.240956 -0.213502 6 158 100
0.188053 -0.107205 -0.757684 -0.007709 0.856124 -0.516712 126 236 61
0.055164 -0.014312 -0.304803 -0.143700 -0.027925 0.989227 109 123 253
-0.197166 -0.044346 0.642626 -0.149731 -0.013953 -0.988628 108 125 1
-0.105484 0.372302 0.270012 0.136289 -0.895752 0.423147 144 13 181
0.424979 0.041028 -0.670280 -0.927090 -0.022909 -0.374138 9 124 79
0.023095 -0.211379 -0.949905 0.570114 0.555996 0.604846 200 198 204
-0.299492 0.140363 0.084992 0.637205 -0.622740 -0.454053 208 48 69
0.301917 -0.125277 -0.388631 0.553231 0.291916 0.780206 198 164 226
-0.528254 -0.219216 -0.382746 0.236145 0.671727 -0.702153 157 213 37
0.413149 0.048309 0.335416 -0.585988 -0.258671 -0.767924 52 94 29
-0.095017 0.237792 -0.963235 -0.027762 -0.656409 0.753894 123 43 223
0.322005 0.507347 -0.078466 -0.090554 -0.915202 -0.392690 115 10 77
0.348589 0.215322 -0.066516 -0.288678 -0.895464 -0.338835 90 13 84
0.291871 -0.095650 -0.882222 -0.368664 0.827575 -0.423327 80 233 73
0.232129 -0.181080 -0.086205 0.177470 0.781272 0.598431 150 227 203
-0.451009 0.179139 0.114944 0.864194 -0.501912 -0.035407 237 63 122
0.173774 0.068987 0.199537 -0.963776 -0.004296 -0.266680 4 126 93
0.621331 0.175689 0.315728 -0.419921 -0.767460 0.484429 73 29 189
-0.089381 0.226159 -0.361918 0.056760 -0.595166 -0.801596 134 51 25
-0.356469 0.134776 0.081485 0.296068 -0.786279 0.542318 165 27 196
0.662560 -0.204441 0.430393 -0.465995 0.565285 -0.680663 68 199 40
-0.515141 -0.014039 -0.865893 0.965655 -0.143793 0.216413 250 109 155
0.280661 -0.130124 -0.777442 -0.598351 0.769010 0.224945 51 225 156
0.351186 -0.121567 -0.186459 -0.486984 0.467242 -0.737923 65 187 33
-0.257004 0.218596 0.190244 0.717920 -0.693599 0.059257 219 39 135
0.607466 -0.037866 0.581149 -0.938325 -0.235956 0.252726 7 97 159
-0.057132 0.075469 0.434636 -0.812190 -0.360291 -0.458845 23 81 68
-0.242315 -0.322018 0.409066 0.285592 0.958152 0.019557 163 249 129
-0.250131 0.053145 0.405046 0.897824 0.120686 -0.423493 241 142 73
0.285776 -0.031924 -0.184505 0.736767 0.446680 -0.507594 221 184 62
-0.117523 0.040443 0.498234 0.610314 0.245540 0.753145 205 158 223
-0.320218 -0.081950 0.666979 0.221985 0.249499 -0.942588 155 159 7
0.388871 0.136800 -0.921968 -0.430906 -0.738623 0.518417 72 33 193
-0.275201 0.307489 0.296679 0.600369 -0.623273 0.501087 204 48 191
0.659648 -0.093232 0.557658 -0.760315 0.272065 -0.589833 30 162 52
-0.230667 -0.279109 0.327719 0.430762 0.867941 -0.247227 182 238 95
-0.581749 -0.253189 -0.814560 0.736035 0.564337 0.373867 221 199 175
0.380018 0.009750 -0.452295 -0.897785 -0.266678 0.350521 13 93 172
-0.465539 -0.003710 0.587026 0.795305 0.103530 -0.597304 228 140 51
0.222189 0.037824 -0.680554 0.491517 -0.223409 0.841724 190 99 234
-0.518324 0.440272 -0.673989 0.405120 -0.893596 0.193297 179 13 152
0.155127 0.091297 -0.631005 0.099847 -0.343385 -0.933872 140 83 8
0.456616 -0.032966 0.220416 -0.627110 -0.038860 -0.777961 47 122 28
0.324241 0.141712 -0.717348 0.126932 -0.987135 -0.097227 143 1 115
-0.094401 -0.216730 0.179878 0.570885 0.797801 0.193919 200 229 152
-0.165140 -0.135292 0.065633 0.225611 0.615042 0.755528 156 205 223
-0.186827 -0.107179 -0.763875 -0.407606 0.840355 -0.357297 75 234 81
-0.481336 -0.093700 -0.415449 -0.548221 0.284847 -0.786331 57 163 27
0.009453 0.271963 -0.849257 0.299513 -0.858281 0.416708 165 18 180
-0.375403 -0.202767 -0.592241 0.267998 0.793106 0.546956 161 228 197
0.384351 0.042406 -0.565401 -0.259514 0.004610 0.965728 94 128 250
-0.165470 0.028991 -0.918001 0.722813 -0.206595 0.659439 219 101 211
-0.051115 -0.050473 -0.965168 -0.017637 0.234934 0.971851 125 157 251
0.025344 -0.025497 -0.966073 -0.206399 0.824127 0.527459 101 232 194
0.543925 -0.028284 0.575229 -0.768183 0.290633 -0.570462 29 164 54
0.546316 0.102906 0.702388 0.823415 -0.300917 -0.481078 232 89 66
-0.402849 -0.161116 0.472938 0.162180 0.205171 -0.965196 148 153 4
0.703607 -0.116870 0.256229 -0.847867 0.486780 -0.210161 19 189 100
-0.006022 0.111451 0.575448 -0.296972 -0.109271 -0.948614 89 113 6
0.389992 0.082190 0.605496 -0.331856 -0.186831 -0.924644 85 103 9
0.365668 -0.149783 -0.296600 0.286494 0.946178 0.150559 164 248 146
0.078650 0.146909 -0.915141 0.008146 -0.788593 0.614861 128 26 205
0.269060 -0.232841 0.388650 0.218570 0.934356 -0.281435 155 246 91
-0.472587 0.245511 -0.600077 0.792279 -0.571497 -0.213741 228 54 100
-0.151039 0.004488 -0.792567 -0.010928 -0.151346 -0.988420 126 108 1
0.231081 0.171847 -0.163395 -0.277265 -0.575451 -0.769403 92 54 29
0.395817 0.034891 -0.049188 -0.422950 0.008607 -0.906112 73 128 11
0.144826 0.153398 -0.932490 -0.326620 -0.853419 0.406195 85 18 179
0.644564 -0.129855 0.624179 -0.458290 0.389508 -0.798908 69 177 25
0.140109 0.288062 -0.900912 0.142315 -0.945462 0.292998 145 6 164
-0.329034 -0.286694 0.475169 0.260340 0.588233 -0.765640 160 202 29
0.418297 -0.257270 -0.649323 -0.262308 0.907762 0.327357 94 243 169
-0.141836 0.397295 -0.855264 0.405706 -0.789594 0.460373 179 26 186
0.155745 0.240122 -0.745454 -0.207386 -0.876691 -0.434056 101 15 72
0.176814 0.033466 -0.673411 0.206985 -0.234760 -0.949761 153 97 6
-0.312099 0.044589 0.363929 0.889692 0.006382 0.456516 240 128 185
0.729819 0.039762 0.724492 -0.384827 -0.147330 -0.911154 78 108 11
0.592373 0.185525 0.528502 -0.013917 -0.940088 0.340649 125 7 170
0.290582 0.156253 -0.898629 -0.901100 -0.369309 -0.227222 12 80 98
-0.330308 0.151809 0.257883 0.466385 -0.617591 0.633299 186 48 208
0.536062 -0.011108 -0.307990 -0.914891 -0.115881 -0.386711 10 112 78
0.678862 0.276356 0.367939 -0.492365 -0.587183 0.642490 64 52 209
-0.277051 -0.061175 0.175775 -0.329028 0.483988 -0.810861 85 189 24
-0.115335 -0.059454 -0.973722 -0.855741 0.206971 0.474205 18 153 187
-0.569640 -0.010269 0.119958 0.870134 -0.077203 -0.486730 238 117 65
-0.344660 0.027045 0.535299 0.571812 -0.477081 -0.667401 200 66 42
0.195102 -0.272366 -0.853130 0.037530 0.990471 -0.132506 132 253 110
0.689071 0.137975 0.688512 -0.770581 -0.198595 -0.605611 29 102 50
0.127670 -0.284536 -0.345282 0.466094 0.835487 0.291064 186 234 164
-0.288423 0.126149 -0.591903 -0.030195 -0.984829 -0.170879 123 1 105
0.546256 -0.167809 0.551479 0.027124 0.966109 -0.256704 130 250 94
-0.271933 -0.004621 -0.881152 0.817461 0.515432 -0.257075 231 193 94
-0.568278 0.109690 -0.342879 0.549843 -0.418952 -0.722601 197 74 35
0.478280 0.005899 -1.073270 -0.288859 -0.005166 0.957358 90 126 249
0.303502 -0.135900 -0.835598 -0.630576 0.727418 -0.270624 47 220 92
0.229576 0.016302 -0.808797 0.887049 0.432354 -0.161908 240 182 106
0.540887 0.212895 -0.261507 -0.153546 -0.817818 0.554615 107 23 198
0.036535 -0.257709 -0.907252 0.586997 0.791889 0.168364 202 228 148
0.154814 -0.155133 -0.634073 -0.180793 0.979698 -0.086635 104 252 116
-0.256811 0.119356 0.131285 0.309561 -0.428019 0.849101 166 72 235
0.482648 -0.006028 -0.696956 -0.559589 0.009252 0.828719 56 128 233
-0.228468 0.169366 0.020599 -0.278201 -0.610953 0.741175 92 49 221
-0.017223 0.023335 -0.928414 -0.298726 -0.394727 0.868880 89 77 238
0.603133 0.033453 0.640794 -0.713425 -0.128793 -0.688794 36 111 39
-0.048151 -0.150328 0.620765 0.262338 0.444579 -0.856463 160 184 18
0.388356 0.281687 -0.771197 0.093735 -0.990598 -0.099646 139 1 114
0.346464 0.268228 -0.866995 -0.596089 -0.775714 0.207231 51 28 153
0.097500 0.041322 0.245006 -0.771206 -0.606919 -0.192070 29 50 103
0.531153 -0.109389 0.605318 -0.380649 0.625485 -0.681083 78 207 40
-0.604320 0.218731 0.521577 0.895012 -0.417209 -0.157769 241 74 107
0.018284 -0.254855 -1.009947 -0.376012 0.591112 0.713583 79 202 218
0.258475 -0.210842 0.522314 0.274588 0.957245 0.091015 162 249 139
0.252783 0.041251 -1.015944 0.510367 -0.032438 0.859345 192 123 237
0.348935 0.207162 -0.913167 -0.277636 -0.912346 0.300902 92 11 165
0.255682 -0.003791 -1.020529 -0.339151 -0.047062 0.939554 84 121 247
0.358811 -0.184692 -0.424507 0.046313 0.381663 0.923141 133 176 245
0.367981 0.113557 -0.707599 -0.621313 -0.147528 0.769549 48 108 225
0.069149 0.261965 0.514976 0.457958 -0.748876 -0.479018 185 32 66
0.398713 0.057057 -0.754042 -0.399062 -0.326522 0.856815 76 85 236
0.349074 0.096525 -0.699121 -0.236408 -0.464482 0.853444 97 68 236
0.668800 -0.296611 0.524512 -0.397563 0.731424 -0.554042 76 220 56
0.272433 -0.102999 -0.936543 -0.679830 0.425768 0.597120 40 181 203
-0.025597 -0.175759 0.352127 0.567706 0.438543 -0.696699 199 183 38
0.074751 0.159573 0.656380 0.335519 -0.667211 -0.665023 170 42 42
0.690923 -0.121505 0.455788 -0.711655 0.327749 0.621392 36 169 206
0.434246 -0.092402 -0.698780 -0.603154 0.386823 0.697548 50 176 216
-0.328683 -0.042124 -0.789497 0.584916 0.335783 -0.738324 202 170 33
-0.165220 -0.214573 -0.859065 -0.391358 0.794983 0.463509 77 228 186
0.374401 0.206833 0.472548 -0.525549 -0.652101 0.546409 60 44 197
-0.218807 0.214798 -0.877450 0.571692 -0.715608 -0.401339 200 36 76
-0.386944 -0.055353 -0.159892 0.869700 0.274493 0.410215 238 162 179
-0.149170 -0.037001 -0.647417 -0.159961 0.339267 0.926990 107 170 245
0.249078 -0.200684 -0.122310 -0.400250 0.618586 0.676130 76 206 213
-0.489312 0.343638 -0.814474 -0.267161 -0.955695 -0.123583 93 5 111
0.395733 0.139024 -0.677821 -0.687036 -0.445839 -0.573767 39 70 54
-0.076305 -0.131792 -0.905776 -0.081806 0.974782 0.207623 117 251 153
0.536688 0.131754 0.596965 0.087024 -0.920753 0.380317 138 10 175
0.623521 0.092860 0.603038 -0.553819 -0.568111 0.608716 56 55 205
0.284750 -0.101785 -0.772553 0.369954 0.868495 -0.329926 174 238 85
-0.345678 -0.016640 0.372883 0.845247 -0.175167 0.504850 235 105 191
-0.361239 -0.000392 0.277165 0.139956 -0.199693 -0.969812 145 102 3
-0.304236 0.000947 0.595322 0.289922 0.168888 -0.942031 164 149 7
-0.490830 -0.164379 -0.574572 -0.030615 0.999527 -0.003009 123 254 127
-0.175890 0.005675 -0.884465 0.239745 -0.880385 0.409199 158 15 179
0.274786 0.099343 -0.862086 0.321433 -0.392244 0.861873 168 77 237
0.278469 0.052865 -0.814155 -0.869034 -0.357183 -0.342346 16 81 83
-0.220042 0.222246 -0.915231 -0.352155 -0.886462 0.300285 82 14 165
0.417051 0.097533 -0.650040 -0.838153 -0.502933 -0.211087 20 63 100
-0.377595 0.267911 0.303839 0.738100 -0.669091 -0.086753 221 42 116
-0.258726 0.106281 0.393806 0.481321 -0.783373 0.393264 188 27 177
-0.222342 -0.126782 0.224589 -0.129751 0.467843 -0.874235 110 187 16
0.462044 -0.257110 -0.402681 -0.408793 0.910900 -0.056117 75 243 120
0.054399 -0.017745 -0.174798 -0.279913 0.133531 0.950694 91 144 248
-0.327523 -0.165639 -0.905936 0.506862 0.853796 -0.118840 192 236 112
0.404434 -0.175465 -0.523850 0.243887 0.967553 -0.066031 158 250 119
0.135601 -0.133165 -0.883646 0.146900 0.792047 0.592522 146 228 203
-0.331754 0.120311 0.648423 -0.052556 -0.333325 -0.941346 120 85 7
-0.348798 -0.123501 -0.021202 0.429188 0.446075 0.785375 182 184 227
0.485761 -0.135482 -0.537166 -0.098302 0.324364 -0.940811 114 168 7
-0.463464 0.330993 0.629668 0.506188 -0.757711 -0.411884 192 30 74
0.529235 0.264070 0.555848 -0.527052 -0.848672 -0.044412 60 19 121
-0.384622 0.168072 0.345797 0.470201 -0.409785 -0.781657 187 75 27
-0.573952 -0.245356 0.125996 0.556735 0.468512 0.685961 198 187 214
-0.248536 -0.257215 0.390328 0.555411 0.778278 -0.292920 198 226 90
0.853473 -0.323256 0.623099 -0.512216 0.656104 -0.554222 62 211 56
-0.496862 -0.276515 0.222319 0.686584 0.676193 -0.267144 215 213 93
0.309635 0.206945 -0.139430 -0.071123 -0.687654 -0.722546 118 39 35
-0.146730 0.089544 -0.834858 0.646306 -0.443915 0.620667 209 70 206
-0.016321 -0.002271 0.335376 0.405853 0.189523 0.894072 179 151 241
-0.217928 0.176358 0.403620 0.385866 -0.649205 -0.655470 176 44 43
0.472900 0.033772 -0.524487 -0.087696 -0.283321 0.955007 116 91 249
-0.326315 -0.049405 -0.412336 0.464285 0.569120 0.678632 186 200 214
-0.698206 -0.010784 -0.654765 0.824477 0.060733 -0.562627 232 135 55
0.023167 0.260943 0.731283 -0.013234 -0.695141 -0.718752 125 38 35
0.483776 -0.116871 -0.537783 -0.579798 0.814748 0.004376 53 231 128
-0.178675 -0.156301 0.356878 -0.658649 0.332575 -0.674963 43 169 41
0.316138 0.183578 0.378963 -0.470678 -0.851377 -0.231559 67 18 97
0.069228 0.131822 0.465396 -0.708245 -0.571253 -0.414800 37 54 74
-0.310722 -0.083398 0.505357 0.914447 0.225667 -0.335949 244 156 84
-0.218040 -0.260531 0.438348 -0.042716 0.999077 -0.004488 122 254 126
-0.344099 -0.114842 -0.845106 0.779806 0.452031 -0.433093 226 185 72
0.948872 -0.008345 0.550706 -0.914375 0.141527 0.379327 10 145 175
0.335281 -0.164237 0.572090 -0.110886 0.981880 -0.153678 113 252 107
0.250089 0.049361 -0.687481 0.927911 -0.247319 0.278953 245 95 163
-0.469031 -0.138581 -0.206461 0.590735 0.557752 0.583048 202 198 201
-0.232494 -0.108659 0.308538 -0.186204 0.618280 -0.763582 103 206 30
0.426624 -0.059783 -0.513872 -0.812852 0.475022 -0.337084 23 188 84
-0.448007 0.193441 -0.770842 -0.149856 -0.658823 -0.737221 108 43 33
0.441299 -0.127442 -0.785676 -0.421479 0.545301 0.724570 73 197 219
-0.545402 -0.142847 -0.398298 0.434135 0.464331 -0.771961 182 186 29
0.536835 0.079606 0.643008 -0.842420 -0.370379 0.391341 20 80 177
-0.276294 0.074841 0.004522 0.511015 -0.323192 0.796499 192 86 229
0.255396 -0.175722 -0.765456 0.263922 0.387192 0.883418 161 176 240
-0.359512 -0.091237 -0.018330 0.682950 0.063720 0.727681 214 135 220
-0.407173 0.231771 0.476928 0.700193 -0.584524 -0.409954 216 52 75
-0.408922 0.380080 0.530827 0.213850 -0.810459 -0.545366 154 24 57
-0.290187 -0.455525 -0.957434 0.042435 0.998220 0.041918 132 254 132
0.349834 -0.093842 0.438766 0.923684 0.326007 0.201316 245 169 153
0.361930 -0.264787 -0.548350 -0.109350 0.992574 -0.053279 113 254 120
0.280406 -0.016525 -0.685703 -0.963996 0.008395 0.265786 4 128 161
0.329225 0.059580 -0.702124 -0.030654 -0.216667 0.975764 123 99 251
-0.317324 -0.079157 0.105553 -0.372870 0.798154 0.473201 79 229 187
0.440880 -0.056727 -0.375063 0.192979 0.505825 0.840774 152 191 234
-0.368363 0.032579 -0.628343 0.251196 0.053628 -0.966449 159 134 4
0.601030 -0.030383 0.582953 -0.701930 0.312316 0.640119 38 167 209
0.113850 -0.239257 -0.720590 -0.276445 0.950647 0.140884 92 248 145
0.475908 -0.136444 0.057179 -0.690313 0.648812 0.320173 39 210 168
-0.180702 -0.236537 -0.109167 -0.211096 0.932696 0.292432 100 246 164
0.369916 0.040169 -0.373210 -0.374277 0.029375 0.926852 79 131 245
-0.549704 0.196416 -0.768715 0.655210 -0.622683 0.427745 211 48 182
-0.152174 0.265123 -0.072148 0.154856 -0.942490 0.296197 147 7 165
0.349786 -0.327908 -0.783057 -0.108366 0.800816 0.589024 113 229 202
-0.263316 -0.162156 -0.909460 0.423141 0.870480 0.251428 181 238 159
0.240382 -0.091209 -0.955346 -0.229931 0.973197 -0.004384 98 251 126
-0.329146 0.075868 0.577440 0.798103 -0.368932 0.476361 229 80 188
-0.538239 0.045752 -0.599566 0.964256 -0.194097 -0.180378 250 102 104
-0.445089 -0.120259 0.334808 0.870205 0.492658 0.005650 238 190 128
0.282663 0.089554 -0.362979 0.628488 -0.763777 -0.147130 207 30 108
0.476406 -0.153083 0.634449 0.283567 0.465422 -0.838435 163 186 20
0.437940 0.059403 -0.206465 -0.663228 -0.347044 -0.663090 42 83 42
1.041767 -0.016566 0.649812 -0.984778 -0.047630 -0.167162 1 121 106
0.423416 -0.211640 0.578468 0.110063 0.971596 -0.209491 141 251 100
0.356467 0.057504 0.284491 0.982143 0.187762 -0.011814 252 151 125
-0.371502 0.132078 -0.814688 0.352418 -0.351562 -0.867298 172 82 16
0.115669 -0.069640 0.569726 -0.610707 0.788682 0.070841 49 228 136
0.295547 -0.349129 -0.107406 -0.218304 0.923181 0.316356 99 245 167
-0.175695 -0.216863 -0.907381 0.675231 0.614195 0.408445 213 205 179
0.429795 0.205447 0.670042 0.447585 -0.756226 -0.477273 184 31 66
-0.553385 -0.214036 -0.173367 0.662744 0.699474 0.267407 211 216 161
0.032021 0.104182 0.144667 -0.428573 -0.374966 0.822025 72 79 232
0.241085 0.024412 -0.789552 0.864009 -0.503089 -0.019739 237 63 124
-0.586961 -0.049394 -0.069982 0.670813 -0.087924 -0.736396 213 116 33
0.694087 0.006714 0.607624 -0.873837 0.039412 -0.484620 16 132 65
-0.099461 -0.171269 0.506967 0.669484 0.535650 -0.514655 212 195 61
0.367688 -0.177413 -0.405458 0.087685 0.946292 0.311195 138 248 167
0.454746 -0.191110 -0.701434 -0.744884 0.541017 -0.390446 32 196 77
0.417682 0.203139 -0.814859 -0.457515 -0.657476 0.598669 69 43 203
0.141586 0.400071 0.164592 -0.252802 -0.937757 0.238123 95 7 157
0.267368 -0.136822 -0.912240 -0.384231 0.914832 0.124296 78 244 143
-0.232465 0.152490 0.542713 0.548155 -0.625285 -0.555467 197 47 56
0.499060 0.029009 -0.436856 -0.507148 -0.857665 0.084922 62 18 138
-0.279003 0.270422 0.545093 0.666390 -0.735738 0.120891 212 33 142
0.333206 -0.115637 -0.462800 0.375826 0.298675 -0.877239 175 165 15
-0.451304 0.212761 -0.636953 -0.241086 -0.963233 0.118572 96 4 142
-0.107315 -0.008667 -0.837489 -0.767135 0.018683 -0.641214 29 129 45
0.566414 -0.225220 0.545519 -0.040504 0.980742 0.191063 122 252 151
-0.505323 -0.202202 -0.622985 0.034890 0.931065 0.363180 131 246 173
-0.025067 0.128115 0.122769 -0.057076 -0.308864 0.949392 120 88 248
0.509122 -0.011030 -0.442619 -0.819357 -0.156798 0.551425 23 107 197
0.261363 -0.333925 -0.934911 -0.481260 0.860749 0.165833 66 237 148
0.202868 -0.274756 -0.940113 -0.142847 0.681226 0.718001 109 214 219
0.415741 0.156743 -0.289358 -0.159467 -0.976489 -0.145048 107 2 109
0.313446 -0.125246 -0.802799 -0.156897 0.684983 0.711465 107 214 218
-0.094129 0.010051 0.308404 0.500465 -0.414439 -0.760115 191 74 30
0.700265 -0.009712 0.635311 -0.939674 0.340474 0.033029 7 170 131
-0.459742 -0.282181 0.171288 0.498176 0.832228 0.243346 191 233 158
0.211105 0.162128 0.048916 0.075887 -0.562400 -0.823376 137 55 22
0.007013 0.086931 0.450579 0.879154 -0.431794 0.201598 239 72 153
-0.400846 0.099373 0.532411 0.749179 -0.661981 0.022610 223 43 130
0.016401 0.037065 0.141980 -0.583879 0.084949 0.807384 53 138 230
0.381025 0.142447 0.446681 0.661604 -0.337995 0.669357 211 84 212
0.247488 -0.175897 0.744333 0.109569 0.432845 -0.894785 141 182 13
0.173295 -0.116273 0.281381 -0.743333 0.632562 0.217535 32 208 155
0.337071 -0.219209 -0.215779 -0.152129 0.973825 -0.168885 108 251 105
0.223928 0.219116 -0.938208 0.188737 -0.719318 0.668551 151 35 212
0.038838 0.032319 -0.681645 0.030509 -0.051711 -0.998196 131 120 0
0.486601 -0.197901 0.508241 -0.035014 0.967426 0.250722 123 250 159
0.373202 0.202463 -0.416919 -0.055621 -0.790807 0.609534 120 26 205
0.279727 -0.102663 -0.620875 0.920452 0.346941 -0.180000 244 171 104
0.409835 0.236190 -0.506238 -0.132020 -0.975215 -0.177554 110 3 104
0.389127 0.077014 -0.509599 -0.343949 -0.265633 -0.900632 83 93 12
0.486180 0.142511 -0.963062 -0.453134 -0.305233 0.837557 69 88 234
0.396614 0.165667 0.592322 0.538039 -0.525437 -0.659113 196 60 43
0.273224 -0.019122 -0.286161 -0.159824 -0.105927 -0.981446 107 113 2
-0.086108 0.183794 -0.084123 0.028257 -0.399373 -0.916353 131 76 10
-0.061607 0.112105 0.556619 0.354505 -0.369253 0.859057 172 80 237
-0.389005 0.224404 0.229091 0.331280 -0.727692 -0.600598 169 34 50
-0.369800 0.209633 -0.644692 -0.299258 -0.947788 -0.110197 89 6 113
0.262897 -0.010138 0.330536 -0.082015 0.092261 0.992352 117 139 254
0.423725 0.106750 0.535043 0.461289 -0.253325 0.850317 186 95 235
0.405413 0.228651 -0.581658 -0.449223 -0.533485 -0.716654 70 59 36
0.030179 0.276297 0.588991 0.239454 -0.835783 -0.494093 158 20 64
-0.343692 0.138399 0.252207 0.570235 -0.820717 0.035455 200 22 132
0.679017 -0.138697 0.691534 0.456534 0.458061 -0.762730 185 185 30
-0.428083 -0.228868 0.387980 -0.028041 0.736992 -0.675319 123 221 41
-0.232957 -0.012910 0.209897 0.865665 -0.169084 0.471205 237 105 187
0.314882 -0.094970 -0.866653 -0.629163 0.656406 0.416275 47 211 180
0.175687 -0.061402 -0.805189 -0.637500 0.285830 -0.715468 46 163 36
0.362844 0.252533 -1.081200 -0.057326 -0.429288 0.901346 120 72 242
0.617915 -0.051656 0.660054 -0.856067 0.414075 -0.309341 18 180 88
0.062475 0.129461 0.462580 0.409413 -0.452865 -0.792019 179 69 26
0.720241 0.086338 0.527582 -0.970620 -0.193279 0.143319 3 102 145
-0.083270 -0.125570 -0.971140 -0.323370 0.905468 0.274880 86 242 162
-0.155277 -0.052357 0.402077 -0.690163 0.405987 0.599040 39 179 203
-0.082857 -0.107133 -0.926226 0.678126 0.464877 0.569241 213 186 200
-0.241421 -0.209995 -0.915781 -0.229938 0.861489 0.452731 98 237 185
0.246695 0.091210 -0.700661 -0.789055 -0.394904 -0.470577 26 77 67
0.251662 -0.149425 -0.782764 -0.422908 0.831528 -0.360152 73 233 81
0.281959 -0.050538 -0.903225 -0.724326 0.239251 0.646615 35 158 209
0.231521 -0.217807 -0.593027 -0.035360 0.758024 -0.651267 122 224 44
0.397532 -0.197706 0.513913 -0.824756 0.510187 -0.243898 22 192 96
0.483601 -0.148235 -0.549957 -0.822455 0.439473 -0.361154 22 183 81
0.463663 -0.249738 -0.499351 -0.353199 0.819215 -0.451816 82 231 69
0.338529 0.070194 -0.868435 -0.621656 -0.680213 0.388401 48 40 177
0.267331 0.183625 -0.875745 0.682938 -0.720718 0.119005 214 35 142
0.223832 -0.088183 -0.797739 0.813550 0.565479 0.135535 231 199 144
-0.471419 0.211841 0.587070 0.229373 -0.727103 -0.647078 156 34 44
-0.476443 -0.009703 0.132832 0.799358 -0.158237 0.579645 229 107 201
0.311056 0.138506 -0.319797 -0.221324 -0.931739 0.287886 99 8 164
-0.564434 -0.021471 0.401206 0.794544 0.112732 -0.596651 228 141 51
-0.211943 0.189149 0.076701 0.421220 -0.734940 -0.531448 181 33 59
