ply
format ascii 1.0
element vertex 512
property float x
property float y
property float z
property float nx
property float ny
property float nz
property uchar red
property uchar green
property uchar blue
end_header
-0.189736 -0.071158 0.222056 -0.961761 0.273889 -0.000427 4 162 127
0.051860 -0.223709 -0.835252 -0.030241 0.947980 0.316891 123 248 167
0.014369 -0.278327 -0.072918 -0.017566 0.960606 -0.277358 125 249 92
0.271220 -0.095864 -0.120938 -0.822831 0.394770 0.408786 22 177 179
-0.209985 0.166119 -0.486951 -0.748972 -0.391580 0.534515 32 77 195
-0.002950 -0.185308 -0.891388 0.063732 0.523449 0.849670 135 194 235
-0.367734 0.175568 -0.663575 0.729191 -0.072750 0.680432 220 118 214
-0.270106 -0.188101 -0.116863 0.821339 0.329411 -0.465716 232 169 68
0.299609 -0.047893 -0.955390 -0.298677 0.016043 0.954219 89 129 249
-0.454754 -0.132594 0.197809 0.871374 0.361320 0.331895 238 173 169
0.029197 0.182914 0.040163 0.061161 -0.348606 -0.935272 135 83 8
0.169149 0.169397 0.228687 0.750746 -0.566631 -0.339572 223 55 84
-0.373388 -0.005668 -0.029821 0.892028 -0.089132 0.443105 241 116 183
0.406414 0.042477 -0.846617 -0.894482 -0.276095 0.351673 13 92 172
0.018777 -0.096916 -0.498497 0.711368 0.099072 0.695802 218 140 216
0.094726 -0.269234 -0.137580 -0.406847 0.908089 0.099250 75 243 140
0.425382 -0.036856 0.728481 -0.647391 -0.023891 -0.761784 44 124 30
-0.486065 -0.085680 0.402992 0.948616 0.297461 -0.107910 248 165 113
0.543628 0.298865 0.306583 -0.130897 -0.920930 0.367089 110 10 174
0.200813 -0.253323 -0.743994 0.035327 0.976557 0.212339 132 252 154
0.055956 0.261509 -0.331694 0.020451 -0.978084 0.207206 130 2 153
0.250950 -0.151958 -0.107569 -0.822831 0.394770 0.408786 22 177 179
0.094808 -0.123823 0.743974 -0.052147 0.349111 -0.935629 120 172 8
-0.013599 0.091040 -0.953722 0.021437 -0.432646 0.901309 130 72 242
0.787371 0.133869 0.606476 -0.759103 -0.650913 -0.008635 30 44 126
0.526853 0.273557 0.478809 0.157267 -0.852851 -0.497908 147 18 64
0.113871 -0.255323 -0.281246 -0.422382 0.906283 0.015619 73 243 129
0.456829 0.239302 0.131487 -0.244373 -0.818261 0.520318 96 23 193
0.141611 0.244063 -0.397632 -0.070252 -0.974947 0.211054 118 3 154
0.078655 0.050776 -0.587019 0.962250 0.022052 0.271271 250 130 162
0.194549 0.058656 0.437352 0.855047 -0.455941 0.247008 236 69 158
-0.154908 0.045815 -0.598477 -0.730703 -0.330344 -0.597449 34 85 51
-0.051059 0.012247 0.480913 -0.505800 -0.204889 0.837966 63 101 234
0.276533 0.152532 -0.082460 -0.410910 -0.647085 0.642210 75 44 209
0.291213 -0.243018 0.594356 0.413742 0.904288 0.105264 180 242 140
-0.275837 0.112992 -0.816392 0.675018 -0.506190 0.536770 213 62 195
0.440628 0.013067 0.713800 -0.784164 -0.200425 -0.587296 27 101 52
0.458421 0.296258 0.421565 0.416174 -0.895589 -0.157222 180 13 107
0.594347 0.117705 0.627791 0.243754 -0.487717 -0.838282 158 65 20
0.154626 -0.255319 -0.023333 -0.284635 0.953390 0.100149 91 249 140
0.516457 -0.292996 0.266506 -0.221515 0.945432 0.238934 99 248 157
0.095907 0.247126 -0.015706 -0.124436 -0.948975 -0.289763 111 6 90
0.481131 -0.033697 0.046325 -0.465395 -0.030344 0.884583 68 123 240
-0.118825 0.267690 -0.220056 0.218964 -0.973463 -0.066512 155 3 119
-0.081723 0.035270 -0.646147 -0.600204 -0.106428 -0.792735 50 113 26
-0.266753 -0.226785 -0.459126 0.143760 0.989445 0.018230 145 253 129
0.244562 0.175156 0.715233 -0.037609 -0.516999 -0.855159 122 61 18
0.385606 0.147066 -0.802284 -0.822158 -0.555828 -0.122927 22 56 111
0.631784 0.059530 0.656865 0.101037 -0.334019 -0.937136 140 84 8
-0.248536 -0.230055 -0.425273 0.143760 0.989445 0.018230 145 253 129
-0.365048 -0.107036 -0.211531 0.709424 0.507501 -0.489040 217 192 65
0.414752 0.000904 -0.842008 -0.870635 -0.096548 0.482362 16 115 189
0.189489 0.194565 0.231660 0.750746 -0.566631 -0.339572 223 55 84
-0.341783 -0.017892 -0.095905 0.892028 -0.089132 0.443105 241 116 183
0.596406 0.201319 0.579743 0.243754 -0.487717 -0.838282 158 65 20
-0.427782 0.175162 0.224561 0.663593 -0.728508 0.170057 212 34 149
0.309777 -0.094981 -0.518256 -0.837036 0.362293 -0.410018 20 173 75
-0.213541 0.247190 -0.231820 0.218964 -0.973463 -0.066512 155 3 119
0.253538 0.074127 -0.408832 -0.980352 0.168632 -0.102339 2 149 114
0.167142 0.035359 0.489224 0.855047 -0.455941 0.247008 236 69 158
0.349522 -0.264653 0.239827 0.219532 0.975567 -0.008669 155 251 126
0.129915 -0.123186 -0.934126 0.036624 0.449949 0.892303 132 184 241
-0.182760 -0.234035 -0.778356 0.418615 0.740000 0.526461 180 221 194
0.079700 -0.239559 -0.787147 0.035327 0.976557 0.212339 132 252 154
-0.096131 0.196685 0.052802 -0.338803 -0.864788 -0.370614 84 17 80
-0.472591 0.138660 0.243044 0.663593 -0.728508 0.170057 212 34 149
-0.313515 -0.197995 -0.016529 0.517637 0.829775 0.208628 193 233 154
-0.366403 0.193877 -0.634472 0.862473 -0.504043 0.045621 237 63 133
0.232791 0.195899 0.325167 0.750746 -0.566631 -0.339572 223 55 84
-0.161074 0.207248 0.087523 -0.338803 -0.864788 -0.370614 84 17 80
0.269619 0.111235 -0.114079 -0.900994 -0.076750 0.426989 12 117 181
0.252983 0.171194 -0.492404 -0.678447 -0.531723 -0.506931 40 59 62
0.279594 -0.143417 0.731558 -0.002423 0.499203 -0.866482 127 191 17
0.680066 -0.062709 0.661948 0.046517 0.301420 -0.952356 133 165 6
-0.434337 0.168035 0.219610 0.663593 -0.728508 0.170057 212 34 149
0.860158 0.013869 0.490796 -0.989900 0.109584 0.089938 1 141 138
0.361672 -0.057072 -0.909789 -0.489750 0.511672 0.705930 65 192 217
0.257724 0.253299 0.206080 0.374476 -0.903763 -0.207316 175 12 101
-0.104863 0.131543 -0.921744 0.189346 -0.511354 0.838251 151 62 234
-0.196017 0.240184 -0.341649 0.014029 -0.775659 0.630996 129 28 207
-0.007136 -0.275085 -0.060327 -0.017566 0.960606 -0.277358 125 249 92
0.343994 -0.054587 -0.061146 -0.630803 0.011869 0.775853 47 129 226
-0.016670 0.229532 -0.838007 -0.144138 -0.988714 0.040839 109 1 132
-0.475852 -0.092421 0.474185 0.948616 0.297461 -0.107910 248 165 113
0.001005 0.231867 -0.354427 0.357447 -0.822049 0.443246 173 22 184
0.066435 -0.212764 -0.761681 0.497678 0.630787 -0.595335 190 207 51
0.741749 0.198066 0.521182 -0.234329 -0.886838 -0.398256 97 14 76
-0.426863 -0.004468 -0.561797 0.982519 -0.150883 0.109043 252 108 141
0.274810 -0.260065 -0.725299 0.035327 0.976557 0.212339 132 252 154
-0.235643 0.214867 0.388887 -0.401174 -0.887223 0.227804 76 14 156
0.166764 -0.248742 -0.051445 -0.284635 0.953390 0.100149 91 249 140
-0.084059 0.107189 0.739862 0.108015 -0.207732 -0.972204 141 101 3
0.221396 -0.030942 0.362345 0.866009 0.292470 -0.405574 237 164 75
0.007466 -0.197427 -0.884704 0.063732 0.523449 0.849670 135 194 235
0.399114 0.107156 -0.802332 -0.947642 -0.317489 0.034282 6 87 131
-0.490540 0.108550 0.228603 0.969264 -0.074532 0.234462 251 117 157
0.221705 -0.186668 0.200326 0.657727 0.620228 -0.427448 211 206 73
-0.451073 0.003225 -0.282292 0.848884 -0.307942 -0.429614 235 88 72
0.406586 -0.078919 -0.661785 -0.753360 0.357220 -0.552126 31 173 57
-0.350563 -0.106300 -0.033886 0.772742 0.359010 0.523433 226 173 194
-0.411202 -0.042508 -0.215855 0.362721 0.049243 -0.930596 173 133 8
0.275893 -0.208492 0.255725 0.653221 0.654908 -0.379998 210 211 79
0.367025 0.070898 0.753163 -0.314898 -0.412989 -0.854564 87 74 18
-0.363072 0.204474 -0.521735 0.888863 -0.458074 -0.009528 240 69 126
-0.278237 0.243647 0.425966 -0.401174 -0.887223 0.227804 76 14 156
0.593631 0.298588 0.445394 0.000344 -0.858408 -0.512967 127 18 62
0.584135 0.285012 0.307077 -0.307829 -0.855428 0.416515 88 18 180
-0.268936 0.027346 -0.840663 0.484150 0.528710 0.697183 189 194 216
-0.447431 -0.178177 0.455461 0.620185 0.672164 -0.404433 206 213 75
-0.236196 0.088178 -0.888162 0.801097 -0.218985 0.557036 229 99 198
-0.139743 0.000507 0.182621 -0.577209 0.325180 -0.749058 53 168 31
-0.201857 0.197818 -0.834189 0.113306 -0.964751 0.237525 141 4 157
0.700477 -0.067301 0.132413 -0.332922 0.001484 0.942953 85 127 247
-0.096706 -0.232293 0.661938 0.093954 0.949969 0.297878 139 248 165
0.047632 0.020221 0.536165 -0.560088 -0.320171 0.764063 56 86 224
0.025202 -0.276861 -0.068527 -0.017566 0.960606 -0.277358 125 249 92
-0.211077 0.163318 -0.594751 -0.730703 -0.330344 -0.597449 34 85 51
0.228786 -0.252474 -0.692668 0.168654 0.975383 -0.142073 149 251 109
0.708401 0.036273 0.672024 0.073154 -0.331373 -0.940660 136 85 7
0.237339 0.043116 0.772927 -0.014377 0.021516 -0.999665 125 130 0
-0.256510 0.217641 -0.062423 0.704874 -0.675962 0.215007 217 41 154
-0.234833 -0.070372 -0.832313 0.643202 0.171695 0.746198 209 149 222
-0.217319 0.206527 -0.791440 0.113306 -0.964751 0.237525 141 4 157
-0.487422 0.026330 0.209740 0.992032 0.058310 0.111682 253 134 141
-0.437987 -0.052599 -0.432211 0.956476 0.283441 0.069389 249 163 136
0.735718 -0.129003 0.641742 -0.248521 0.138205 -0.958716 95 145 5
0.000244 -0.165877 -0.903599 0.063732 0.523449 0.849670 135 194 235
0.128316 -0.036012 0.772792 -0.014377 0.021516 -0.999665 125 130 0
-0.114657 -0.193862 0.532386 -0.457784 0.814057 0.357416 69 231 173
0.066910 0.231774 0.661610 -0.089461 -0.671719 -0.735384 116 41 33
0.115442 0.186534 -0.907594 -0.044374 -0.521369 0.852177 121 61 236
-0.196176 -0.265055 -0.228151 0.286351 0.949974 0.124713 164 248 143
0.133788 0.166669 0.725236 -0.037609 -0.516999 -0.855159 122 61 18
0.630114 -0.274358 0.351588 -0.446258 0.890224 0.091406 70 241 139
0.113960 0.208577 0.585919 -0.088974 -0.826406 0.556000 116 22 198
0.011870 -0.070424 0.773726 -0.014377 0.021516 -0.999665 125 130 0
0.027219 -0.251125 -0.375686 0.176036 0.884812 0.431416 149 240 182
-0.240155 0.215746 0.634574 0.273014 -0.879563 -0.389658 162 15 77
0.222307 -0.076048 -0.357112 -0.980352 0.168632 -0.102339 2 149 114
0.815427 -0.114345 0.406958 -0.875473 0.362173 0.319966 15 173 168
0.322860 0.155058 -0.586604 -0.765865 -0.587558 -0.261203 29 52 94
-0.445331 -0.054601 -0.322809 0.956476 0.283441 0.069389 249 163 136
0.074748 -0.045179 -0.563086 0.711368 0.099072 0.695802 218 140 216
0.147713 -0.185951 -0.595830 0.754292 0.486665 0.440681 223 189 183
-0.280442 0.224206 -0.282761 0.421869 -0.904796 -0.058064 181 12 120
-0.195867 -0.155885 -0.582659 -0.768883 0.153251 -0.620752 29 147 48
-0.384068 0.202696 0.183789 0.502834 -0.723170 0.473480 191 35 187
-0.226322 0.209892 0.355293 -0.919583 -0.343825 0.190135 10 83 151
0.376352 0.121583 0.725232 -0.314898 -0.412989 -0.854564 87 74 18
0.298704 -0.196144 0.356599 0.835413 0.546612 -0.057457 234 197 120
-0.131540 -0.054278 0.768857 0.255928 0.061395 -0.964744 160 135 4
0.301837 0.249369 0.074524 -0.244373 -0.818261 0.520318 96 23 193
-0.234982 0.237138 0.465692 -0.116235 -0.915338 0.385546 112 10 176
-0.232857 0.220613 0.130820 -0.412728 -0.908410 -0.066683 74 11 118
0.707732 0.231379 0.420385 -0.533245 -0.838768 0.110085 59 20 141
0.271990 -0.124737 -0.480137 -0.791880 0.531396 -0.300906 26 195 89
-0.368850 -0.174982 -0.333025 0.723393 0.687912 -0.058994 219 215 119
-0.163062 -0.175677 0.720943 0.390440 0.672611 -0.628610 177 213 47
0.205604 0.026040 0.369716 0.866009 0.292470 -0.405574 237 164 75
-0.389601 -0.017062 -0.206088 0.362721 0.049243 -0.930596 173 133 8
-0.116097 -0.202255 0.079258 -0.376096 0.810358 -0.449301 79 230 70
0.795090 0.146091 0.439133 -0.803416 -0.593027 -0.053317 25 51 120
-0.028314 0.220995 -0.350946 0.357447 -0.822049 0.443246 173 22 184
0.428790 0.248499 0.132780 -0.244373 -0.818261 0.520318 96 23 193
0.412119 0.130260 0.028163 -0.631801 -0.364913 0.683861 46 80 214
-0.042800 0.165576 0.731457 0.063563 -0.199465 -0.977841 135 102 2
0.261752 0.258872 0.073237 -0.174666 -0.923122 0.342545 105 9 171
0.125121 -0.070702 0.540752 0.156705 0.231119 0.960223 147 156 249
0.538315 -0.249241 0.180403 -0.084186 0.842003 0.532864 116 234 195
-0.062712 -0.301117 -0.142809 -0.033123 0.953920 -0.298228 123 249 89
0.512379 0.246417 0.174781 -0.307829 -0.855428 0.416515 88 18 180
0.821164 -0.154502 0.487098 -0.731139 0.680054 0.054425 34 214 134
0.647300 -0.264319 0.337716 -0.446258 0.890224 0.091406 70 241 139
0.505264 0.284094 0.453942 0.157267 -0.852851 -0.497908 147 18 64
-0.031932 -0.149012 0.741639 -0.052147 0.349111 -0.935629 120 172 8
0.286835 0.134155 -0.090084 -0.645366 -0.379968 0.662667 45 79 211
-0.327082 -0.224568 0.537121 0.559874 0.647855 -0.516551 198 210 61
0.403437 -0.225266 0.602353 -0.156122 0.825708 -0.542063 107 232 58
-0.224123 -0.244797 -0.167805 0.399769 0.881510 -0.251248 178 239 95
0.094966 0.156919 0.076148 0.400158 -0.287530 -0.870172 178 90 16
0.169599 -0.103618 -0.945622 0.036624 0.449949 0.892303 132 184 241
0.136007 -0.231016 0.648074 -0.068771 0.852187 -0.518698 118 236 61
0.602984 -0.291674 0.387775 -0.446258 0.890224 0.091406 70 241 139
-0.192336 0.106760 0.712439 0.289420 -0.386788 -0.875575 164 78 15
0.228207 -0.127902 0.312318 0.859464 0.252400 -0.444539 237 159 70
0.169107 -0.249900 -0.033763 -0.284635 0.953390 0.100149 91 249 140
-0.387772 -0.228504 0.244045 0.720343 0.615803 0.319207 219 206 168
-0.248927 0.210918 -0.608699 -0.762489 -0.639509 -0.098175 30 45 114
-0.011778 0.223705 0.595869 -0.006295 -0.943974 0.329961 126 7 169
-0.231769 -0.237675 -0.359454 0.228225 0.965481 0.125538 156 250 143
-0.381520 -0.096277 -0.703767 0.642731 0.101704 0.759311 209 140 224
-0.065487 -0.066216 -0.453618 0.476741 0.313914 0.821082 188 167 232
0.194522 -0.002994 0.325116 0.866009 0.292470 -0.405574 237 164 75
-0.346781 -0.107719 -0.194196 0.362721 0.049243 -0.930596 173 133 8
-0.097411 -0.068864 0.463984 -0.561744 0.308583 0.767607 55 166 225
-0.187661 -0.147792 0.155166 -0.577209 0.325180 -0.749058 53 168 31
-0.393060 0.141182 0.588177 0.510154 -0.565616 -0.647937 192 55 44
-0.033842 0.096650 0.509611 -0.448005 -0.194479 0.872622 70 102 238
0.083012 -0.024463 -0.574485 0.711368 0.099072 0.695802 218 140 216
0.224377 -0.050996 -0.203602 -0.818148 0.102688 0.565765 23 140 199
0.039316 0.243681 0.654090 -0.089461 -0.671719 -0.735384 116 41 33
0.341029 -0.213225 -0.683408 -0.777227 0.482187 -0.404245 28 188 75
-0.114613 -0.227447 -0.743372 -0.064167 0.959760 -0.273394 119 249 92
0.289779 0.218641 0.438061 0.260938 -0.964511 -0.040361 160 4 122
-0.097228 0.070106 0.746323 0.108015 -0.207732 -0.972204 141 101 3
-0.032545 0.104329 0.744617 0.063563 -0.199465 -0.977841 135 102 2
0.813322 -0.096637 0.366397 -0.915360 0.360879 0.178559 10 173 150
0.231309 0.087453 -0.296046 -0.925265 -0.315396 -0.210735 9 87 100
-0.260867 0.233198 -0.417795 -0.218696 -0.944385 0.245577 99 7 158
0.464501 -0.118174 0.039824 -0.626910 0.204286 0.751832 47 153 223
0.053287 -0.197150 0.582774 -0.160752 0.887192 0.432492 107 240 182
0.767358 -0.192159 0.347719 -0.868124 0.442265 0.225304 16 183 156
0.395020 0.110520 -0.700002 -0.822158 -0.555828 -0.122927 22 56 111
-0.164117 0.049069 -0.552581 -0.950508 0.023972 -0.309774 6 130 88
0.177475 0.075620 0.306551 0.921820 -0.097066 -0.375268 245 115 79
0.121998 -0.210781 -0.524392 0.754292 0.486665 0.440681 223 189 183
-0.306238 -0.008943 0.693716 0.510149 0.317556 -0.799316 192 167 25
0.764039 -0.172723 0.597123 -0.242621 0.773030 -0.586139 96 226 52
0.711598 -0.224680 0.265578 -0.446258 0.890224 0.091406 70 241 139
0.463163 -0.292061 0.256786 0.243971 0.951468 0.187581 158 248 151
0.191941 0.185992 0.251385 0.750746 -0.566631 -0.339572 223 55 84
-0.413106 -0.109967 -0.623464 0.982654 0.177580 0.053438 252 150 134
-0.090680 -0.140661 -0.436367 0.163718 0.159286 0.973563 148 147 251
0.058247 -0.218484 -0.850272 -0.030241 0.947980 0.316891 123 248 167
0.174793 0.203940 0.183523 0.750746 -0.566631 -0.339572 223 55 84
-0.425020 -0.200798 0.452233 0.620185 0.672164 -0.404433 206 213 75
-0.245104 0.241546 -0.296203 0.421869 -0.904796 -0.058064 181 12 120
0.156345 0.012951 -0.968081 -0.009200 0.017700 0.999801 126 129 254
0.480731 -0.245708 0.552402 -0.032271 0.834490 -0.550078 123 233 57
0.622371 0.134541 0.626145 0.243754 -0.487717 -0.838282 158 65 20
-0.050699 -0.294703 -0.244211 0.123937 0.964550 0.232987 143 250 157
-0.455025 0.173889 0.488551 0.686571 -0.577370 -0.441887 215 53 71
-0.074992 -0.217742 -0.865207 -0.030241 0.947980 0.316891 123 248 167
-0.205964 -0.256788 -0.029573 0.308079 0.895316 0.321708 166 241 168
0.251284 -0.247829 -0.001484 -0.120351 0.919176 0.375008 112 244 175
0.688755 -0.230105 0.216576 -0.419881 0.899321 0.122151 73 242 143
0.788266 -0.052826 0.622709 -0.530926 0.132797 -0.836948 59 144 20
0.467258 0.303523 0.403577 0.416174 -0.895589 -0.157222 180 13 107
0.854738 -0.017906 0.469855 -0.989900 0.109584 0.089938 1 141 138
-0.425367 0.069673 -0.447605 0.934187 -0.356714 0.007005 246 82 128
0.238813 0.177425 -0.479976 -0.678447 -0.531723 -0.506931 40 59 62
0.322532 0.229289 0.617785 -0.130258 -0.898032 -0.420204 110 13 73
0.215763 -0.104706 -0.314574 -0.994083 0.108572 -0.003227 0 141 127
0.322450 -0.217133 0.641854 -0.164585 0.851593 -0.497696 106 236 64
0.343376 -0.257989 0.351216 0.419890 0.904453 -0.075213 181 242 117
0.099867 -0.159526 -0.546101 0.494907 0.690579 0.527416 190 215 194
0.544038 0.131265 0.100267 -0.221365 -0.526020 0.821158 99 60 232
-0.320909 -0.078640 -0.757435 0.642731 0.101704 0.759311 209 140 224
0.122154 -0.113444 0.551524 0.156705 0.231119 0.960223 147 156 249
0.657569 0.017719 0.674547 0.101037 -0.334019 -0.937136 140 84 8
0.471500 0.012346 0.042838 -0.465395 -0.030344 0.884583 68 123 240
-0.186043 0.060446 0.279543 -0.955034 -0.075851 -0.286629 5 117 90
-0.113919 0.267712 -0.203499 0.224269 -0.973670 -0.040866 156 3 122
0.261941 -0.168738 0.717900 -0.052147 0.349111 -0.935629 120 172 8
-0.295217 0.156500 -0.069317 0.772916 -0.299639 0.559300 226 89 198
0.253515 0.162423 0.722537 -0.037609 -0.516999 -0.855159 122 61 18
-0.069944 0.030510 -0.654426 -0.600204 -0.106428 -0.792735 50 113 26
0.572475 -0.241536 0.173623 -0.084186 0.842003 0.532864 116 234 195
0.199785 0.239619 -0.032098 0.260607 -0.965035 0.028142 160 4 131
-0.412981 -0.221950 0.288288 0.720343 0.615803 0.319207 219 206 168
0.242222 -0.022982 -0.966655 -0.009200 0.017700 0.999801 126 129 254
0.230451 -0.141684 0.472263 0.571780 0.425550 0.701409 200 181 216
0.863046 0.027700 0.505725 -0.989900 0.109584 0.089938 1 141 138
-0.432213 0.221396 0.373619 0.193322 -0.979800 0.051173 152 2 134
0.841073 0.060034 0.406409 -0.972500 -0.109566 0.205521 3 113 153
0.828175 0.050698 0.336025 -0.975767 -0.110178 0.189047 3 113 151
-0.382222 -0.116462 -0.246226 0.709424 0.507501 -0.489040 217 192 65
-0.418144 0.089185 -0.417159 0.934187 -0.356714 0.007005 246 82 128
-0.004186 0.129472 -0.465518 0.543236 -0.418019 0.728118 196 74 220
-0.172661 0.250924 -0.138318 0.341997 -0.907155 -0.245167 171 11 96
0.838871 -0.085873 0.583782 -0.592232 0.273267 -0.758015 51 162 30
-0.369297 -0.184019 -0.443892 0.723393 0.687912 -0.058994 219 215 119
0.628025 -0.097532 0.109230 -0.265139 0.146931 0.952950 93 146 249
0.448377 0.022055 0.700386 -0.784164 -0.200425 -0.587296 27 101 52
0.277726 0.206773 0.398760 0.822037 -0.317905 -0.472433 232 86 67
0.808233 -0.086192 0.319200 -0.915360 0.360879 0.178559 10 173 150
-0.029099 -0.102245 -0.688949 -0.237072 0.214421 -0.947534 97 154 6
-0.131566 0.059337 -0.455121 -0.749890 -0.390815 0.533787 31 77 195
0.056211 0.166786 0.055065 0.400158 -0.287530 -0.870172 178 90 16
0.081303 -0.029611 0.131700 0.726063 0.307143 -0.615220 220 166 49
0.248015 -0.176129 0.263577 0.653221 0.654908 -0.379998 210 211 79
0.101014 -0.261513 -0.269750 -0.422382 0.906283 0.015619 73 243 129
0.059548 0.168739 -0.718341 0.483227 -0.379504 -0.788967 189 79 26
0.149417 -0.056623 0.772045 -0.014377 0.021516 -0.999665 125 130 0
0.060228 0.092835 -0.954616 0.021437 -0.432646 0.901309 130 72 242
0.556425 0.308449 0.335189 -0.130897 -0.920930 0.367089 110 10 174
0.793202 0.139419 0.360385 -0.740815 -0.663062 0.107434 33 42 141
0.408174 -0.115879 -0.006143 -0.683554 -0.012733 0.729789 40 125 220
0.193137 0.234282 -0.089869 -0.749909 -0.616546 0.239808 31 48 158
-0.248018 0.131824 0.685591 0.131902 -0.403688 -0.905339 144 76 12
-0.012623 -0.135759 0.557610 -0.625797 0.419448 0.657603 47 180 211
0.800030 0.065701 0.207263 -0.965494 0.023303 0.259381 4 130 160
0.279999 -0.216047 0.476988 0.571780 0.425550 0.701409 200 181 216
0.051556 -0.056678 -0.537738 0.711368 0.099072 0.695802 218 140 216
-0.362779 -0.143666 0.584693 0.627249 0.388889 -0.674777 207 177 41
-0.233712 -0.225083 -0.613147 0.119909 0.992097 0.036944 142 253 132
0.759395 -0.164327 0.262404 -0.868124 0.442265 0.225304 16 183 156
0.654849 0.247182 0.284628 -0.533245 -0.838768 0.110085 59 20 141
0.317673 0.108083 -0.525893 -0.895624 -0.375640 -0.238226 13 79 97
0.818652 0.024078 0.280321 -0.965494 0.023303 0.259381 4 130 160
-0.274832 0.229909 0.578308 0.273014 -0.879563 -0.389658 162 15 77
-0.292121 -0.222625 -0.484847 0.143760 0.989445 0.018230 145 253 129
-0.250770 -0.078643 -0.816805 0.642731 0.101704 0.759311 209 140 224
0.221172 0.092637 0.763494 0.063563 -0.199465 -0.977841 135 102 2
0.333877 -0.049988 -0.934207 -0.489750 0.511672 0.705930 65 192 217
0.679261 -0.104998 0.124981 -0.332922 0.001484 0.942953 85 127 247
-0.497464 0.110741 0.465435 0.880911 -0.196567 -0.430531 239 102 72
-0.300339 0.225028 -0.634848 0.114218 -0.993373 0.012848 142 0 129
-0.418407 0.070161 -0.534727 0.982519 -0.150883 0.109043 252 108 141
-0.087896 -0.228515 0.591708 -0.194059 0.974854 -0.109544 102 251 113
0.544858 -0.269255 0.213061 -0.084186 0.842003 0.532864 116 234 195
-0.345006 0.135037 -0.012011 0.772916 -0.299639 0.559300 226 89 198
0.427523 -0.015724 -0.764267 -0.989026 -0.037515 -0.142896 1 122 109
0.466728 -0.300345 0.294170 0.243971 0.951468 0.187581 158 248 151
-0.046084 -0.047687 0.774746 0.063563 -0.199465 -0.977841 135 102 2
-0.159933 -0.140927 -0.868095 0.551047 0.450919 0.702153 197 184 217
0.045783 0.179711 -0.912570 0.021437 -0.432646 0.901309 130 72 242
0.573008 -0.092556 0.654055 0.393119 -0.093345 -0.914737 177 115 10
0.395364 0.234955 0.095781 -0.244373 -0.818261 0.520318 96 23 193
-0.024988 -0.298929 -0.209037 -0.121396 0.984731 0.124769 112 253 143
-0.171889 -0.098505 0.755339 0.255928 0.061395 -0.964744 160 135 4
0.201782 0.045963 0.388885 0.855047 -0.455941 0.247008 236 69 158
0.551548 0.020556 0.083837 -0.253356 -0.103086 0.961865 95 114 250
-0.091543 0.182408 0.517430 -0.355058 -0.521656 0.775764 82 60 226
0.166688 -0.095823 -0.949433 0.036624 0.449949 0.892303 132 184 241
-0.256609 -0.243973 0.470474 -0.409134 0.892610 0.189360 75 241 151
-0.430963 0.136466 0.132434 0.502834 -0.723170 0.473480 191 35 187
0.078073 -0.014985 0.135191 0.726063 0.307143 -0.615220 220 166 49
-0.214131 -0.229079 0.492046 -0.409134 0.892610 0.189360 75 241 151
-0.058234 -0.191198 0.727364 -0.052147 0.349111 -0.935629 120 172 8
0.833447 0.090701 0.477236 -0.803416 -0.593027 -0.053317 25 51 120
0.185503 -0.244194 -0.687203 0.168654 0.975383 -0.142073 149 251 109
-0.450273 -0.098346 0.148760 0.871374 0.361320 0.331895 238 173 169
-0.060335 0.140511 0.507427 -0.560088 -0.320171 0.764063 56 86 224
0.094477 0.273095 -0.231023 -0.540693 -0.834421 -0.106736 58 21 113
0.099332 -0.109548 0.119925 0.673991 0.237996 -0.699352 213 157 38
-0.158683 0.195619 -0.677434 -0.279500 -0.825608 -0.490155 91 22 65
-0.047829 0.237247 -0.311979 -0.170870 -0.884714 0.433688 105 14 182
-0.003559 0.049615 0.757662 0.063563 -0.199465 -0.977841 135 102 2
-0.131555 -0.047123 -0.626642 -0.486103 0.256588 -0.835384 65 160 20
0.102560 -0.087208 -0.592810 0.961540 0.173579 0.212864 250 149 154
0.505030 -0.175317 0.622723 -0.301738 0.576789 -0.759124 89 201 30
0.134104 -0.216259 -0.678655 0.730484 0.420129 -0.538409 220 181 58
-0.029193 -0.293346 -0.121677 -0.033123 0.953920 -0.298228 123 249 89
0.278890 -0.199545 -0.049792 -0.440962 0.392492 0.807157 71 177 230
-0.056289 -0.112802 -0.684222 -0.405159 0.209566 -0.889904 75 154 14
-0.078526 -0.143071 0.509324 -0.403782 0.419034 0.813247 76 180 231
0.235660 0.064946 0.770085 0.063563 -0.199465 -0.977841 135 102 2
0.401398 0.106396 0.004986 -0.640073 -0.379599 0.667990 45 79 212
0.372615 0.285378 0.201198 -0.174666 -0.923122 0.342545 105 9 171
-0.242107 0.011853 0.739015 0.549300 0.027076 -0.835186 197 130 21
-0.281686 0.219873 -0.601016 -0.096320 -0.983339 -0.154163 115 2 107
-0.400777 -0.174562 0.113832 0.706499 0.682590 0.186894 217 214 151
0.231529 0.109984 -0.330734 -0.925265 -0.315396 -0.210735 9 87 100
0.721031 0.203597 0.273123 -0.533245 -0.838768 0.110085 59 20 141
0.099819 0.075640 0.153187 0.895845 -0.300684 -0.327186 241 89 85
0.229711 0.132143 0.451282 0.855047 -0.455941 0.247008 236 69 158
-0.209307 -0.139885 0.221423 -0.961761 0.273889 -0.000427 4 162 127
0.432600 0.276620 0.208182 -0.174666 -0.923122 0.342545 105 9 171
0.001838 0.227984 -0.810172 -0.144138 -0.988714 0.040839 109 1 132
0.347676 0.231108 0.514440 0.260938 -0.964511 -0.040361 160 4 122
-0.092708 0.124942 -0.663586 -0.264925 -0.460576 -0.847163 93 68 19
0.667448 -0.250425 0.489786 -0.205364 0.869565 -0.449091 101 238 70
0.182364 0.045998 0.456166 0.855047 -0.455941 0.247008 236 69 158
-0.074142 -0.307669 -0.178064 0.123937 0.964550 0.232987 143 250 157
-0.008575 -0.081894 -0.480669 0.476741 0.313914 0.821082 188 167 232
0.369638 -0.037578 -0.040556 -0.630803 0.011869 0.775853 47 129 226
-0.204216 0.230311 -0.353604 0.014029 -0.775659 0.630996 129 28 207
0.194495 -0.170908 -0.270875 -0.869978 0.488413 -0.067757 16 189 118
0.276254 -0.026631 -0.454074 -0.815509 0.065174 -0.575063 23 135 54
-0.367772 -0.103687 0.603092 0.627249 0.388889 -0.674777 207 177 41
-0.300859 0.080460 -0.117618 0.779032 -0.258301 -0.571305 226 94 54
0.766589 -0.007431 0.643663 -0.530926 0.132797 -0.836948 59 144 20
0.830570 -0.143402 0.559510 -0.928306 0.322195 -0.185574 9 168 103
-0.418588 -0.122208 -0.449292 0.815345 0.578878 0.010614 231 201 128
0.246149 0.239577 -0.813391 0.248951 -0.846636 0.470351 159 19 187
-0.307616 -0.159947 -0.185391 0.752565 0.654262 -0.074748 223 210 117
-0.138940 0.260831 -0.176851 0.224269 -0.973670 -0.040866 156 3 122
0.115028 0.122709 0.151571 0.895845 -0.300684 -0.327186 241 89 85
0.352987 -0.254470 0.477991 0.300904 0.951069 0.070172 165 248 136
0.232859 -0.118339 -0.176449 -0.822831 0.394770 0.408786 22 177 179
0.336934 -0.109110 -0.586181 -0.837036 0.362293 -0.410018 20 173 75
-0.229571 -0.032630 0.737085 0.725723 0.199560 -0.658409 220 152 43
0.192692 0.007312 0.447522 0.884206 0.333815 0.326722 240 170 169
0.194490 -0.078671 -0.959223 0.036624 0.449949 0.892303 132 184 241
-0.016621 -0.116672 0.541630 -0.625797 0.419448 0.657603 47 180 211
-0.179531 0.003250 0.272980 -0.955034 -0.075851 -0.286629 5 117 90
-0.324083 -0.219478 -0.403605 0.143760 0.989445 0.018230 145 253 129
0.085819 0.126542 -0.686064 0.394212 -0.223509 -0.891426 177 99 13
0.441571 0.256446 0.526955 -0.076788 -0.909692 -0.408123 117 11 75
-0.246922 0.198601 0.235245 -0.919583 -0.343825 0.190135 10 83 151
0.214320 -0.232867 0.634651 -0.068771 0.852187 -0.518698 118 236 61
-0.173422 -0.193027 0.481640 -0.804282 0.379038 0.457669 24 175 185
-0.422830 0.021935 -0.561599 0.982519 -0.150883 0.109043 252 108 141
-0.479131 0.142746 0.273910 0.682329 -0.671143 0.289818 214 41 164
-0.053832 0.206039 0.028715 -0.020190 -0.858609 -0.512233 124 18 62
0.215378 -0.106706 -0.263227 -0.994083 0.108572 -0.003227 0 141 127
0.682642 -0.198190 0.166825 -0.572138 0.499089 0.650821 54 191 210
-0.507532 0.052020 0.393725 0.993838 0.057885 0.094532 254 134 139
0.831574 -0.000409 0.330620 -0.965494 0.023303 0.259381 4 130 160
-0.365688 -0.174359 -0.652902 0.559889 0.779164 0.281830 198 226 163
0.418363 0.181357 0.061197 -0.631801 -0.364913 0.683861 46 80 214
-0.406343 -0.100660 0.048098 0.854647 0.334910 0.396754 236 170 178
0.828954 0.087781 0.361659 -0.975767 -0.110178 0.189047 3 113 151
0.367717 0.156542 -0.725489 -0.822158 -0.555828 -0.122927 22 56 111
-0.315797 0.126099 -0.172693 0.808990 -0.584596 -0.061503 230 52 119
-0.186481 -0.216403 0.112657 -0.376096 0.810358 -0.449301 79 230 70
0.268785 0.173712 0.715041 -0.037609 -0.516999 -0.855159 122 61 18
0.492240 -0.297342 0.263680 -0.104779 0.980636 0.165454 114 252 148
-0.245708 0.238584 -0.383584 -0.218696 -0.944385 0.245577 99 7 158
0.522592 0.035530 0.649275 0.147535 -0.312929 -0.938248 146 87 7
0.592456 0.197291 0.160015 -0.335654 -0.693052 0.637978 84 39 208
0.096308 -0.234247 -0.450483 -0.117644 0.990560 -0.070363 112 253 118
0.568200 -0.249516 0.535021 -0.112051 0.936554 -0.332132 113 246 85
0.057005 0.028197 -0.560837 0.476741 0.313914 0.821082 188 167 232
-0.438565 0.182296 0.269994 0.682329 -0.671143 0.289818 214 41 164
0.418972 -0.257977 0.548050 -0.156122 0.825708 -0.542063 107 232 58
-0.400659 -0.236037 0.291575 0.276558 0.960408 0.033635 162 249 131
0.388438 0.132644 0.007483 -0.640073 -0.379599 0.667990 45 79 212
-0.375015 -0.238777 0.235073 0.720343 0.615803 0.319207 219 206 168
0.188182 0.238746 -0.653516 -0.467049 -0.881876 -0.064503 67 15 119
0.664915 0.060997 0.659914 0.101037 -0.334019 -0.937136 140 84 8
0.096712 -0.144223 0.105600 0.673991 0.237996 -0.699352 213 157 38
-0.091760 0.209358 -0.381363 0.009343 -0.775214 0.631630 128 28 208
-0.199500 0.238340 -0.129193 0.341997 -0.907155 -0.245167 171 11 96
-0.263657 0.198664 -0.176602 0.808990 -0.584596 -0.061503 230 52 119
0.418575 -0.220947 0.069116 -0.378246 0.793269 0.477131 79 228 188
0.174642 0.201775 0.186803 0.750746 -0.566631 -0.339572 223 55 84
-0.164324 0.193959 0.105876 -0.505176 -0.457557 -0.731737 63 69 34
0.282008 0.207949 0.675953 -0.130258 -0.898032 -0.420204 110 13 73
0.313833 -0.241146 0.489363 0.413742 0.904288 0.105264 180 242 140
0.402513 0.021489 -0.649512 -0.943178 -0.032730 -0.330672 7 123 85
-0.194710 0.210406 0.110903 -0.338803 -0.864788 -0.370614 84 17 80
0.308980 0.236866 -0.803930 -0.728237 -0.677610 0.102544 34 41 140
-0.267868 0.228298 0.008317 0.704874 -0.675962 0.215007 217 41 154
-0.000602 -0.211951 0.016729 0.042731 0.782264 -0.621479 132 227 48
-0.037749 -0.047294 0.093506 0.079505 0.296061 -0.951854 137 165 6
0.853775 -0.054247 0.503537 -0.989900 0.109584 0.089938 1 141 138
-0.173043 0.207630 -0.833325 0.413844 -0.843547 0.342290 180 19 171
-0.037791 -0.134888 -0.694161 -0.237072 0.214421 -0.947534 97 154 6
-0.318747 -0.246006 0.400986 -0.165785 0.985582 0.033822 106 253 131
-0.487904 -0.059995 0.259088 0.992032 0.058310 0.111682 253 134 141
0.130761 0.020384 0.214813 0.819147 -0.131659 -0.558270 231 110 56
-0.384202 -0.220404 0.218607 0.706499 0.682590 0.186894 217 214 151
-0.401617 0.126100 -0.349612 0.888863 -0.458074 -0.009528 240 69 126
-0.297970 -0.007374 -0.794170 0.484150 0.528710 0.697183 189 194 216
-0.298366 -0.112738 -0.106528 0.772742 0.359010 0.523433 226 173 194
-0.478553 -0.142309 0.315790 0.958154 0.263771 -0.111202 249 161 113
0.786303 -0.171163 0.379503 -0.868124 0.442265 0.225304 16 183 156
-0.501678 -0.028466 0.381460 0.993838 0.057885 0.094532 254 134 139
0.068186 -0.011348 -0.967524 0.060078 0.227450 0.971935 135 156 251
0.100549 -0.211201 -0.868024 -0.030241 0.947980 0.316891 123 248 167
0.710471 -0.177257 0.175237 -0.572138 0.499089 0.650821 54 191 210
0.310653 -0.024432 -0.087835 -0.565380 -0.046241 0.823533 55 121 232
0.568620 -0.241185 0.172461 -0.084186 0.842003 0.532864 116 234 195
-0.137115 -0.125826 0.471349 -0.403782 0.419034 0.813247 76 180 231
0.208440 -0.001991 0.414409 0.884206 0.333815 0.326722 240 170 169
0.144591 0.238937 0.642428 -0.006295 -0.943974 0.329961 126 7 169
-0.219230 -0.199051 -0.781680 0.538905 0.550262 0.637804 196 197 208
-0.179691 -0.222064 0.649488 0.360400 0.914653 -0.183087 173 244 104
0.013040 0.061478 -0.685580 -0.414990 0.083766 -0.905962 74 138 11
-0.119753 0.264531 -0.159719 0.224269 -0.973670 -0.040866 156 3 122
-0.097339 -0.132367 -0.436604 0.163718 0.159286 0.973563 148 147 251
0.194636 0.238485 -0.023287 0.260607 -0.965035 0.028142 160 4 131
-0.370537 -0.047108 -0.200248 0.362721 0.049243 -0.930596 173 133 8
0.551934 -0.040840 0.079926 -0.332922 0.001484 0.942953 85 127 247
-0.394898 0.143844 -0.575866 0.888863 -0.458074 -0.009528 240 69 126
0.490107 0.022893 0.053502 -0.569678 -0.136980 0.810372 54 110 230
0.072584 -0.068778 -0.954356 0.060078 0.227450 0.971935 135 156 251
0.606088 -0.233771 0.550092 -0.205364 0.869565 -0.449091 101 238 70
-0.347077 0.075315 -0.178314 0.779032 -0.258301 -0.571305 226 94 54
-0.115719 0.170503 0.086988 -0.505176 -0.457557 -0.731737 63 69 34
0.031117 -0.261907 -0.354558 -0.128537 0.959830 0.249409 111 249 159
0.758186 -0.126431 0.630112 -0.530926 0.132797 -0.836948 59 144 20
0.524435 -0.161384 0.090253 -0.265139 0.146931 0.952950 93 146 249
-0.370981 0.184656 -0.649810 0.862473 -0.504043 0.045621 237 63 133
0.598714 -0.239379 0.542606 -0.205364 0.869565 -0.449091 101 238 70
0.130807 0.134867 0.183603 0.895845 -0.300684 -0.327186 241 89 85
-0.150317 -0.128426 0.466133 -0.403782 0.419034 0.813247 76 180 231
0.209722 -0.155297 0.497420 0.571780 0.425550 0.701409 200 181 216
-0.331455 0.229940 0.172888 0.087046 -0.994435 -0.059341 138 0 119
-0.207694 0.187994 -0.636643 -0.279500 -0.825608 -0.490155 91 22 65
0.409616 0.299168 0.280482 0.374476 -0.903763 -0.207316 175 12 101
-0.017393 -0.105235 0.757163 -0.052147 0.349111 -0.935629 120 172 8
0.689985 0.227702 0.306401 -0.533245 -0.838768 0.110085 59 20 141
-0.289588 -0.140820 -0.100226 0.772742 0.359010 0.523433 226 173 194
0.609926 0.248981 0.252140 -0.307829 -0.855428 0.416515 88 18 180
0.092867 0.259157 -0.344133 -0.070252 -0.974947 0.211054 118 3 154
0.330829 0.134271 0.735875 -0.314898 -0.412989 -0.854564 87 74 18
0.452385 -0.286665 0.488115 0.300904 0.951069 0.070172 165 248 136
0.162857 -0.120224 0.190330 0.859464 0.252400 -0.444539 237 159 70
0.089722 0.162481 0.729705 -0.037609 -0.516999 -0.855159 122 61 18
0.085228 -0.030315 -0.964139 0.060078 0.227450 0.971935 135 156 251
0.029052 -0.087330 0.764572 -0.002423 0.499203 -0.866482 127 191 17
0.793031 0.035640 0.183913 -0.965494 0.023303 0.259381 4 130 160
0.170314 0.234611 -0.708949 0.640879 -0.766796 -0.036025 209 29 122
0.404579 -0.065907 -0.650628 -0.753360 0.357220 -0.552126 31 173 57
0.793568 0.071975 0.182648 -0.965494 0.023303 0.259381 4 130 160
0.468489 0.294061 0.267738 -0.130897 -0.920930 0.367089 110 10 174
0.428295 -0.146470 0.020370 -0.540341 0.318078 0.779011 58 168 226
-0.161267 0.204905 -0.385789 0.014029 -0.775659 0.630996 129 28 207
0.719711 -0.008485 0.137158 -0.004278 -0.000260 0.999991 126 127 254
0.203391 0.240628 -0.030887 0.260607 -0.965035 0.028142 160 4 131
-0.023306 0.115781 -0.941615 0.021437 -0.432646 0.901309 130 72 242
-0.090273 0.180786 -0.411017 0.016813 -0.264897 0.964130 129 93 250
0.699892 0.169351 0.609753 -0.234329 -0.886838 -0.398256 97 14 76
0.336514 -0.257650 0.316991 0.419890 0.904453 -0.075213 181 242 117
-0.285103 -0.184957 -0.177637 0.752565 0.654262 -0.074748 223 210 117
-0.060958 0.232503 0.676499 -0.089461 -0.671719 -0.735384 116 41 33
0.164634 0.226927 -0.646442 0.640879 -0.766796 -0.036025 209 29 122
0.583061 -0.269789 0.236428 -0.221515 0.945432 0.238934 99 248 157
0.652999 -0.254448 0.272897 -0.419881 0.899321 0.122151 73 242 143
