ply
format ascii 1.0
element vertex 256
property float x
property float y
property float z
property float nx
property float ny
property float nz
property uchar red
property uchar green
property uchar blue
end_header
-0.105274 0.002575 0.373970 0.482177 0.075653 -0.872801 188 137 16
0.134098 -0.060900 -0.496135 -0.038629 0.513900 -0.856980 122 193 18
-0.217186 0.068549 -1.048970 0.807181 -0.045694 0.588533 230 121 202
0.118498 -0.362857 -1.026048 -0.248762 0.665586 0.703642 95 212 217
-0.169927 0.069635 -0.848372 0.987686 -0.120459 0.099832 253 112 140
0.069705 0.090657 -0.919276 0.109195 -0.373277 0.921271 141 79 244
-0.050362 0.352351 -0.774331 0.158674 -0.930780 0.329350 147 8 169
0.055371 -0.033779 -0.855368 -0.833789 0.209451 0.510809 21 154 192
-0.016517 -0.383278 0.318818 -0.272389 0.952493 0.136238 92 248 144
0.132757 -0.088646 0.349968 -0.834281 0.428207 0.347295 21 182 171
-0.366281 -0.379154 0.412604 0.386987 0.919516 -0.068791 176 244 118
-0.533151 0.035933 0.128447 0.932343 -0.090706 0.350013 246 115 172
0.025206 0.053204 0.637338 -0.375752 0.090824 -0.922259 79 139 9
0.292586 0.276213 -0.352954 -0.458650 -0.741156 0.490234 69 33 190
0.265711 0.374634 -0.517745 -0.448991 -0.827517 0.337080 70 21 170
0.531873 -0.035335 -0.277232 -0.865636 0.021271 0.500223 17 130 191
0.082341 -0.298458 -0.463068 0.289982 0.887249 0.358747 164 240 173
-0.090008 0.005858 0.138798 0.960647 -0.055464 -0.272179 249 120 92
-0.062568 -0.040158 -1.055282 0.536176 0.339404 0.772865 195 170 226
-0.147433 0.103068 -0.958606 0.814611 -0.527083 0.242057 231 60 158
-0.277320 -0.019198 0.498880 0.704806 0.233791 -0.669769 217 157 42
0.212206 -0.437215 -0.230503 0.059423 0.964153 0.258607 135 250 160
0.494793 0.227168 -0.130015 -0.818973 -0.481712 0.311827 23 66 167
-0.377102 0.203081 0.395995 -0.013454 -0.843675 -0.536686 125 19 59
-0.320793 -0.348556 0.444542 0.406042 0.910926 -0.073100 179 243 118
-0.037861 -0.181162 0.163215 0.348646 0.921882 -0.169054 171 245 105
0.477592 -0.098136 0.301910 -0.985961 0.161487 0.042457 1 148 132
-0.080534 -0.055516 -0.924628 0.587207 -0.130562 0.798838 202 110 229
-0.357062 -0.100440 -0.038839 0.822132 0.533820 0.197827 232 195 152
-0.102647 0.033690 -0.893603 0.954243 0.109526 0.278254 249 141 162
-0.034123 -0.301249 -1.032332 0.179146 0.613731 0.768922 150 205 225
0.063601 -0.312871 -0.926228 -0.335334 0.918006 0.211698 84 244 154
-0.492271 0.089204 -0.016359 0.817629 -0.183459 0.545734 231 104 197
0.202629 -0.038796 0.191246 0.991387 -0.074520 0.107700 253 117 141
0.308818 -0.046366 0.207413 -0.432683 0.427417 -0.793788 72 181 26
0.061261 -0.092003 -0.527246 0.950181 0.226397 0.214244 248 156 154
0.081494 -0.187140 0.741860 -0.169335 0.511171 -0.842633 105 192 20
-0.148323 0.211763 0.074397 0.603969 -0.793735 -0.072151 204 26 118
-0.091065 0.252150 0.119536 -0.087863 -0.968478 -0.233089 116 4 97
-0.386878 -0.168013 0.378148 0.568308 0.538646 0.622001 199 196 206
-0.413140 0.084724 0.360588 0.416600 -0.289181 -0.861869 180 90 17
-0.073966 -0.084773 0.505077 0.066438 0.317521 -0.945921 135 167 6
0.180935 0.012016 0.122981 0.711677 0.349883 -0.609178 218 172 49
-0.283370 0.323554 0.583076 0.510680 -0.812311 -0.281705 192 23 91
0.067061 -0.058267 0.390266 0.682134 0.728966 -0.057463 214 220 120
-0.206976 -0.313442 0.369288 0.048722 0.993322 -0.104583 133 254 114
0.043665 0.247254 -0.922556 -0.093752 -0.963007 0.252641 115 4 159
0.150391 0.259316 0.353720 -0.365317 -0.930345 -0.031648 80 8 123
-0.462064 -0.144824 0.298220 0.743602 0.645301 -0.175049 222 209 105
0.262530 0.187862 -0.198924 -0.637745 -0.770009 -0.019181 46 29 125
0.093110 0.260760 -0.796870 -0.075161 -0.938687 0.336478 117 7 170
-0.130771 0.133395 -0.931383 0.711185 -0.446636 0.542893 218 70 196
-0.266047 -0.274457 0.228717 -0.374352 0.923151 0.087484 79 245 138
0.160226 -0.264906 -0.563657 -0.205335 0.941680 0.266602 101 247 161
0.004139 -0.147169 -0.222170 0.861845 0.444950 -0.243400 237 184 96
0.325032 0.242196 -0.145600 -0.549526 -0.757571 -0.352289 57 30 82
0.183891 -0.040697 -0.347528 0.329174 0.236796 -0.914096 169 157 10
-0.378814 0.178942 -0.170789 0.172913 -0.419188 0.891282 149 74 241
0.183588 -0.006036 -0.927886 -0.644489 0.040795 0.763525 45 132 224
0.075977 0.246037 -1.006973 -0.270431 -0.813466 0.514917 93 23 193
0.273483 -0.150571 -0.010887 -0.196396 0.654493 0.730115 102 210 220
0.246427 -0.133181 -0.610121 -0.884088 0.417556 -0.209844 14 180 100
0.225449 -0.122542 0.250695 -0.604302 0.609848 -0.512742 50 205 62
0.278020 0.029430 -0.706592 -0.951950 -0.216557 0.216549 6 99 155
0.246961 0.154350 -0.305127 -0.486082 -0.604302 0.631303 65 50 207
-0.292110 -0.081001 0.388711 -0.163992 0.277929 -0.946500 106 162 6
0.297636 -0.297096 0.649371 -0.287579 0.761118 -0.581376 90 224 53
-0.056760 0.051684 -1.013019 0.519472 -0.280210 0.807237 193 91 230
-0.059253 0.175517 -0.937070 0.489955 -0.671345 0.556094 189 41 198
0.542598 -0.016174 0.049367 -0.944309 0.143686 0.296032 7 145 165
-0.239631 0.184897 0.569161 -0.117940 -0.980650 -0.156258 112 2 107
0.124887 -0.072201 -0.505437 -0.402918 0.830428 -0.384767 76 233 78
-0.167557 -0.269241 -0.929996 0.716349 0.684807 0.133731 218 214 144
0.068057 -0.210039 -0.931699 -0.413272 0.641172 0.646610 74 209 209
-0.135009 0.112001 -0.766826 0.422392 -0.292595 0.857889 181 90 236
-0.014501 -0.038857 -0.695811 0.676019 0.501729 -0.539691 213 191 58
-0.508238 0.133139 0.336356 0.847214 -0.529151 0.047197 235 60 133
-0.316055 -0.138337 0.430527 0.715330 0.677900 -0.169573 218 213 105
-0.191163 0.237458 0.357895 0.103774 -0.978725 0.176997 140 2 150
-0.370123 0.105724 -0.166953 0.709714 -0.366475 0.601667 217 80 204
0.106845 -0.012967 -0.825277 -0.518548 0.365741 0.772879 61 174 226
-0.243709 0.198472 0.027299 0.739297 -0.639705 0.210279 221 45 154
-0.240485 -0.126428 -0.850521 0.963068 0.244386 0.113028 250 158 141
0.132048 -0.146416 0.319258 -0.425931 0.861394 0.276736 73 237 162
0.497615 0.378467 0.038857 -0.701296 -0.684537 0.198979 38 40 152
0.250912 0.292571 -0.314184 -0.281066 -0.724130 0.629792 91 35 207
0.311171 0.107366 0.592661 -0.639544 -0.351968 -0.683449 45 82 40
-0.142037 -0.205533 0.253600 0.122626 0.859610 0.496018 143 237 190
-0.223029 -0.229371 -0.328924 0.622978 0.745126 -0.238089 206 222 97
0.277950 0.147623 -0.121593 -0.947033 -0.321126 0.002708 6 86 127
0.130327 -0.214699 -0.686458 -0.454352 0.789690 0.412255 69 228 180
-0.371582 -0.129899 0.513303 0.452385 0.738574 0.499857 185 221 191
0.147291 -0.083338 -0.002666 -0.383664 0.896618 -0.221084 78 241 99
0.229107 -0.294064 0.320753 -0.310818 0.881536 0.355368 87 239 172
-0.252060 -0.144233 0.030199 0.185662 0.517021 0.835595 151 193 234
-0.148018 0.135577 -0.311258 0.180002 -0.113672 0.977076 150 113 252
-0.237980 -0.129086 0.654513 0.217900 0.383602 -0.897424 155 176 13
0.180828 0.155593 0.536102 -0.585304 -0.659348 -0.471889 52 43 67
0.188000 -0.247466 -0.616202 -0.659284 0.751847 0.008345 43 223 128
-0.111720 0.091337 -1.052945 0.496409 -0.285464 0.819810 190 91 232
0.172169 0.087618 -0.766682 -0.920783 -0.352648 0.166728 10 82 148
0.243602 0.163472 0.478961 -0.285410 -0.528678 -0.799400 91 60 25
0.257236 -0.310883 0.532146 -0.153503 0.695695 -0.701745 107 216 38
0.063408 0.125735 0.538120 0.576150 -0.199598 -0.792598 200 102 26
0.159622 0.028766 -0.924179 -0.896124 -0.158716 0.414452 13 107 180
-0.417982 -0.113301 0.086403 0.760249 0.278993 0.586673 224 163 202
0.460765 -0.154937 0.299920 -0.860720 0.452550 0.233150 17 185 157
0.072946 0.080014 -0.948883 -0.582209 -0.095956 0.807357 53 115 230
-0.142330 -0.281133 0.217359 0.205095 0.928735 0.308849 153 245 166
-0.427317 -0.156648 0.530416 0.602787 0.395964 -0.692720 204 177 39
0.445702 0.034985 0.429184 -0.893715 -0.126124 -0.430542 13 111 72
0.016845 0.258541 0.218444 0.285028 -0.612839 -0.737013 163 49 33
0.022787 0.054328 -0.271212 0.126576 -0.073193 0.989253 143 118 253
-0.315455 -0.144309 0.261349 0.009079 0.998707 -0.050019 128 254 121
0.343471 0.227133 0.359518 -0.083862 -0.981799 0.170403 116 2 149
0.351519 0.145796 -0.380110 -0.917994 -0.375432 0.127822 10 79 143
-0.034428 0.003700 -0.932207 -0.375829 -0.185587 0.907915 79 103 243
0.241253 -0.263359 0.608986 -0.124594 0.732449 -0.669325 111 220 42
0.169532 -0.283058 0.145518 -0.075864 0.972269 -0.221221 117 251 99
0.290748 0.302196 -0.438020 -0.503315 -0.795051 0.338479 63 26 170
-0.083099 -0.055301 -0.171481 0.930422 0.210798 0.299798 246 154 165
0.163995 0.015946 -0.456380 -0.312451 -0.241305 0.918774 87 96 244
0.078930 0.012965 -0.677922 0.923575 -0.138839 0.357397 245 109 173
-0.258211 -0.111870 0.140670 -0.396327 0.445914 0.802549 76 184 229
-0.340215 0.144055 -0.156636 0.943170 -0.324454 0.071836 247 86 136
-0.376505 -0.131280 0.214076 0.502979 0.858360 0.101142 191 236 140
0.065169 -0.305296 -1.013795 -0.214104 0.818674 0.532853 100 231 195
0.143151 -0.255605 -0.899746 -0.098694 0.767386 0.633544 114 225 208
0.061789 0.047774 0.008474 0.144747 -0.252674 0.956663 145 95 249
0.316180 0.149817 0.578160 -0.750165 -0.652540 -0.106977 31 44 113
-0.397169 0.102080 -0.655280 0.856573 -0.193943 0.478193 236 102 188
0.092927 -0.044352 -0.211526 0.815504 0.425841 -0.391934 231 181 77
0.215291 -0.258658 -0.538589 -0.508599 0.833991 -0.213977 62 233 100
0.083914 -0.071351 -0.829591 -0.254886 0.523137 0.813241 95 194 231
-0.073507 0.144090 -0.665452 0.110927 -0.670669 0.733415 141 41 221
0.060059 0.228456 -0.737169 0.439538 -0.891530 0.109458 183 13 141
-0.454600 -0.036946 0.470513 0.685199 0.289363 -0.668410 214 164 42
-0.504804 0.024249 -0.005610 0.978384 -0.016034 0.206173 252 125 153
0.123639 -0.308526 -0.681538 -0.176477 0.984155 -0.017150 104 252 125
0.153425 0.423608 -0.688769 -0.448107 -0.882027 0.145700 70 15 146
-0.417246 -0.291445 0.157113 0.694950 0.711867 0.101438 216 218 140
0.319997 0.331732 0.413924 -0.246311 -0.969191 -0.000117 96 3 127
0.018824 0.129440 -0.887721 0.045935 -0.748819 0.661181 133 32 211
0.322918 -0.045971 0.012414 -0.189024 0.264916 0.945563 103 161 248
0.039697 0.051394 -0.887972 -0.181745 -0.213353 0.959921 104 100 249
0.373509 0.004034 0.061553 -0.725145 -0.130201 0.676175 35 110 213
0.071798 0.195838 -0.357227 0.246128 -0.620373 -0.744686 158 48 32
0.127651 0.006017 -0.892242 -0.967549 0.224676 -0.115628 4 156 112
0.186337 0.020517 0.078072 0.282017 -0.225220 0.932600 163 98 246
-0.173470 0.222121 0.484792 0.564520 -0.800204 0.202464 199 25 153
-0.158523 0.100105 -0.330158 0.937467 -0.309695 -0.158885 247 88 107
-0.113217 -0.177156 -0.287802 0.712273 0.691483 -0.120488 218 215 112
0.143730 -0.113018 -0.687291 -0.518007 0.425869 0.741825 61 181 222
0.278466 0.419922 -0.265147 -0.272764 -0.954370 0.121564 92 5 142
-0.184484 -0.227915 0.438775 -0.028684 0.993342 -0.111575 123 254 113
-0.277223 0.028660 0.364212 0.612098 -0.053063 -0.789000 205 120 26
-0.251588 0.157229 0.135492 0.818399 -0.395246 -0.417138 231 77 74
0.277648 -0.073594 -0.109148 -0.177370 0.489401 0.853831 104 189 236
-0.037992 -0.189424 -0.514857 0.756825 0.492099 -0.430180 223 190 72
0.013801 0.428610 -0.936648 0.120710 -0.967380 0.222721 142 4 155
-0.224500 0.230023 -0.482043 0.889004 -0.425136 0.170093 240 73 149
0.044164 -0.249168 -0.437368 0.529566 0.846291 0.057889 195 235 134
0.344954 0.351305 -0.021933 -0.519348 -0.815820 0.254391 61 23 159
0.144938 -0.036093 -0.004561 0.667421 0.371541 -0.645374 212 174 45
-0.514464 -0.010374 0.415911 0.921388 -0.003332 0.388629 244 127 177
-0.041397 0.180039 0.602237 -0.430335 -0.853460 -0.293970 72 18 90
0.382741 0.228045 -0.123666 -0.598604 -0.689111 0.408410 51 39 179
-0.267201 -0.200257 0.355603 0.526837 0.462876 -0.712873 194 186 36
-0.242076 -0.193079 0.102634 0.620696 0.694359 -0.364147 206 216 81
-0.071670 0.118449 -0.678374 0.848071 -0.515011 -0.124655 235 61 111
0.209161 0.262385 -0.660566 -0.700435 -0.712911 0.033888 38 36 131
0.239655 0.037687 0.008456 -0.053242 0.160473 -0.985603 120 147 1
0.082304 -0.230004 -0.094148 -0.267592 0.772249 0.576218 93 225 200
-0.285887 -0.277394 0.404772 0.353704 0.912613 0.205014 172 243 153
-0.047669 0.245323 0.577316 -0.336159 -0.866563 -0.368872 84 17 80
0.151073 0.164807 0.355558 0.535194 -0.578832 -0.615241 195 53 49
-0.158044 -0.149697 0.122711 0.403716 0.681895 0.609945 178 214 205
-0.530739 -0.137706 0.352023 0.822929 0.426155 -0.375739 232 181 79
0.257224 -0.067464 -0.354165 -0.780297 0.255806 -0.570701 28 160 54
0.000368 -0.295211 -0.621116 0.122732 0.989233 0.079712 143 253 137
0.408517 0.133285 0.432131 -0.569357 -0.468538 -0.675503 54 67 41
0.260988 -0.120232 -0.165438 -0.019466 0.377194 0.925930 125 175 245
0.324895 -0.136089 0.424798 -0.952016 0.219313 0.213466 6 155 154
0.179385 0.241840 -0.453534 -0.458628 -0.884607 0.084445 69 14 138
0.419343 0.123643 -0.390204 -0.863650 -0.091966 0.495631 17 115 190
0.133611 0.228826 0.616581 -0.028289 -0.988826 -0.146364 123 1 108
0.175808 0.244976 0.111070 -0.022038 -0.996551 0.080009 124 0 137
0.117971 0.061368 -0.271363 -0.495578 -0.031099 0.868007 64 123 238
0.022318 -0.422819 -0.081326 0.375064 0.924866 0.062843 175 245 135
0.051748 0.180792 -0.327782 0.730528 -0.679617 -0.066708 220 40 118
0.086917 0.171294 -0.661075 0.095654 -0.969848 0.224154 139 3 156
0.036858 0.075848 -0.898825 -0.447870 -0.295624 0.843812 70 89 235
0.041731 -0.223987 0.293056 0.232291 0.792997 -0.563202 157 228 55
-0.242266 0.147491 0.486889 -0.332420 -0.942098 -0.044138 85 7 121
-0.016763 -0.032904 0.736574 -0.344854 -0.018985 -0.938464 83 125 7
0.026497 0.181825 -0.911683 -0.103072 -0.724950 0.681046 114 35 214
0.067587 -0.000583 0.628857 0.294861 0.047275 -0.954370 165 133 5
-0.502926 0.312894 0.151676 0.799572 -0.576845 -0.167137 229 53 106
-0.066731 0.192724 -0.508336 0.740034 -0.609769 -0.283781 221 49 91
0.375707 -0.112526 -0.176754 -0.634961 0.230763 0.737274 46 156 221
-0.101397 -0.063098 -0.003231 0.797518 0.600660 0.056330 229 204 134
-0.157619 0.191851 0.617761 -0.214361 -0.917376 -0.335367 100 10 84
0.198658 -0.215889 0.100160 0.282712 0.788235 -0.546588 163 228 57
0.218152 -0.162939 -0.392175 -0.762921 0.626615 0.159073 30 207 147
0.334536 0.325697 0.696114 -0.325189 -0.641861 -0.694454 86 45 38
-0.001884 0.024499 -0.609480 -0.310587 -0.041733 -0.949629 87 122 6
-0.012763 0.233807 0.550013 -0.411822 -0.904389 0.111733 74 12 141
0.036685 -0.416684 0.081546 0.127492 0.969140 -0.210982 143 251 100
0.278505 -0.092783 0.569790 -0.835688 0.547555 -0.042537 20 197 122
-0.397527 -0.163417 0.347610 0.490987 0.862616 -0.121757 190 237 111
0.032508 0.082964 -0.212508 0.882073 -0.315677 0.349707 239 87 172
0.076536 -0.047328 -0.874231 -0.949302 0.158782 0.271318 6 147 162
-0.173211 0.133751 0.459108 -0.743057 -0.365586 -0.560548 32 80 56
0.207428 -0.252638 0.484859 -0.273639 0.948258 0.161023 92 248 148
0.142169 -0.043236 -0.792036 -0.273096 0.320695 -0.906958 92 168 11
0.157222 0.090953 0.519838 -0.788454 -0.566047 0.240690 26 55 158
-0.225088 0.325340 0.311696 0.165349 -0.981590 0.095610 148 2 139
-0.309048 0.180470 0.276100 0.260066 -0.920027 -0.293114 160 10 90
0.077737 -0.016234 -0.480390 0.846944 0.244428 0.472167 235 158 187
0.357501 0.079100 0.185942 -0.822503 -0.368218 -0.433480 22 80 72
-0.337588 0.009121 0.405432 0.883766 -0.464599 -0.055718 240 68 120
0.315733 -0.277848 0.429483 -0.157705 0.844034 -0.512577 107 235 62
0.043529 -0.204855 -0.858204 0.380289 0.773595 -0.506884 175 226 62
-0.021596 -0.236338 -0.129330 0.011901 0.995953 -0.089086 129 254 116
-0.482231 0.184825 -0.092954 0.874050 -0.469805 0.123774 238 67 143
0.010796 -0.005773 -1.020169 0.147826 0.031889 0.988499 146 131 253
0.112874 0.002289 0.058729 -0.379932 0.190923 -0.905097 79 151 12
-0.011652 0.094713 0.474000 -0.715508 -0.001461 -0.698604 36 127 38
0.510883 -0.031297 0.279334 -0.986765 0.058904 -0.151077 1 135 108
0.395424 -0.132705 0.204266 -0.958186 0.226512 -0.174850 5 156 105
0.276347 0.063804 0.243103 -0.300555 -0.448464 -0.841752 89 70 20
-0.026721 0.030337 -1.008543 0.283612 -0.164397 0.944742 163 106 247
-0.112350 -0.091886 -0.888150 0.776146 0.432276 0.459059 226 182 186
0.092129 0.274167 -0.811785 -0.188874 -0.843653 0.502569 103 19 191
-0.028866 0.115754 -0.384079 0.664603 -0.303230 -0.682902 212 88 40
0.283533 0.193974 0.034365 -0.724257 -0.601669 -0.336818 35 50 84
0.110501 0.242789 -0.695209 -0.269554 -0.923728 -0.272153 93 9 92
-0.434840 0.090179 0.357422 0.861940 -0.504088 -0.054364 237 63 120
0.235738 0.219799 -0.275461 -0.286922 -0.793250 0.537057 90 26 195
-0.145772 -0.283993 -0.767833 0.462994 0.880838 0.098796 186 239 140
-0.384975 -0.124914 0.598467 0.806348 0.578872 -0.121289 230 201 112
0.056571 0.087425 -0.956802 -0.464675 -0.488571 0.738495 68 65 221
0.146426 0.114756 -0.960624 -0.241878 -0.209902 0.947331 96 100 248
0.263495 -0.206201 0.589679 -0.694578 0.617639 -0.368895 38 206 80
-0.489596 0.187653 0.387752 0.879597 -0.451171 0.150843 239 69 146
0.400891 0.030585 0.208922 -0.838613 -0.198908 0.507113 20 102 192
0.081611 0.046763 -0.892746 -0.236115 -0.465073 0.853204 97 68 236
-0.495988 -0.245942 0.082202 0.779106 0.525687 0.341536 226 194 171
-0.401109 0.024113 0.347424 0.768961 0.006788 -0.639259 225 128 45
-0.333216 0.208648 0.470998 0.093868 -0.729571 -0.677433 139 34 41
-0.278809 -0.262012 0.539798 0.078529 0.847865 -0.524365 137 235 60
-0.259417 0.018638 0.049443 0.990836 -0.039614 -0.129131 253 122 111
-0.408300 -0.209696 0.626228 0.438215 0.676333 -0.592065 183 213 52
0.197215 0.096299 0.532905 -0.923508 -0.375572 0.077961 9 79 137
0.058333 -0.078776 -0.695432 -0.378123 0.925751 0.002639 79 245 127
0.295305 -0.000325 -0.012323 -0.793059 -0.110718 -0.598998 26 113 51
