ply
format ascii 1.0
element vertex 512
property float x
property float y
property float z
property float nx
property float ny
property float nz
property uchar red
property uchar green
property uchar blue
end_header
0.053015 0.118258 -0.789721 -0.423413 -0.441679 0.790975 73 71 228
0.074485 0.074949 -0.815702 -0.361627 -0.165640 0.917491 81 106 244
-0.311114 -0.219269 0.319532 0.306013 0.861149 0.405928 166 237 179
0.176205 0.285630 -0.038099 -0.017847 -0.945643 0.324716 125 6 168
-0.283124 -0.191086 0.577831 -0.081121 0.968502 -0.235421 117 250 97
0.011591 -0.261057 -0.703517 0.232081 0.943117 0.238053 157 247 157
0.084261 0.076451 -0.479309 0.884504 -0.464967 -0.038181 240 68 122
0.060594 -0.134367 -0.243871 0.893150 0.350058 0.282387 241 172 163
0.138053 -0.064743 -1.009261 -0.470199 0.277885 0.837671 67 162 234
0.234379 -0.130448 0.702079 -0.863130 0.406573 -0.299509 17 179 89
-0.070502 -0.090358 0.574374 -0.004802 0.378015 -0.925787 126 175 9
0.409376 0.369948 0.136167 -0.534800 -0.842732 0.061582 59 20 135
-0.448795 -0.009659 0.517697 0.925788 -0.002520 -0.378036 245 127 79
0.066851 -0.076295 -0.954871 -0.591810 0.459331 0.662401 52 186 211
0.325116 -0.060570 -0.181088 -0.877670 0.224162 0.423611 15 156 181
-0.186384 0.071047 0.373260 -0.799449 -0.588349 0.121355 25 52 142
0.340858 0.070281 -0.231884 -0.991479 -0.126167 0.032430 1 111 131
0.194281 -0.183232 0.163807 -0.244778 0.899905 -0.360908 96 242 81
0.348031 -0.193171 0.427502 -0.724998 0.688742 0.003546 35 215 127
-0.030887 0.226321 -0.469149 0.089755 -0.881271 0.464011 138 15 186
-0.462434 -0.115854 0.201362 0.945874 0.238871 0.219688 248 157 155
0.206987 -0.108717 -0.879590 -0.865408 0.374681 0.332690 17 175 169
-0.199982 -0.135419 0.482593 0.826987 0.404159 -0.390830 232 179 77
0.352394 0.118832 0.545467 -0.771082 -0.241972 -0.588966 29 96 52
0.146974 -0.050121 0.582258 0.334872 0.373611 -0.865029 170 175 17
-0.054399 -0.236197 0.026300 -0.539284 0.782213 0.311953 58 227 167
0.007329 0.144420 -0.968939 0.486355 -0.807082 0.334780 189 24 170
-0.140776 -0.167085 0.597085 0.815631 0.503185 -0.285571 231 191 91
0.178331 0.211101 -0.395596 0.103345 -0.985280 -0.136176 140 1 110
-0.223392 0.123936 0.408497 0.142284 -0.532175 -0.834593 145 59 21
0.360545 -0.308163 0.113166 -0.706916 0.697689 0.116186 37 216 142
-0.002421 -0.080646 0.001673 0.004733 0.570262 0.821449 128 200 232
0.216241 -0.146413 0.654995 -0.327273 0.628935 -0.705219 85 207 37
-0.181114 0.155152 0.351272 0.697098 -0.700000 0.155096 216 38 147
0.125482 -0.078421 -0.174208 0.724953 0.053983 -0.686680 219 134 39
0.212546 -0.032349 0.542672 -0.525811 0.128718 -0.840806 60 143 20
0.021817 0.318259 -1.029890 0.025726 -0.694696 0.718843 130 38 219
-0.675107 0.070483 0.233853 0.925440 -0.110569 -0.362403 245 113 81
-0.230004 -0.080330 0.106460 0.218622 0.338940 0.915054 155 170 244
-0.181753 -0.189949 0.456974 0.489445 0.760098 0.427428 189 224 181
0.242556 0.345872 0.305930 -0.404532 -0.836814 -0.368911 75 20 80
0.004335 0.264320 0.183478 0.460334 -0.803878 -0.376661 186 25 79
-0.071204 0.050772 0.510018 -0.561182 -0.105315 -0.820965 55 114 22
0.300574 -0.072558 -0.156934 -0.834106 0.396868 0.383097 21 178 176
0.292069 0.207854 -0.018346 0.154600 -0.897548 -0.412925 147 13 74
0.106290 -0.079618 -0.210437 0.215288 0.408289 0.887102 154 179 240
0.015747 0.176921 0.224128 0.946752 -0.320757 0.027842 248 86 131
0.089686 -0.153243 0.012440 -0.184355 0.907728 0.376886 103 243 175
-0.282400 -0.258533 0.417160 0.009577 0.893375 -0.449210 128 241 70
0.058781 0.046211 -0.865932 -0.542626 -0.577706 -0.609765 58 53 49
0.244862 0.103780 0.169269 -0.635180 -0.758053 0.147992 46 30 146
0.343904 -0.285774 0.414442 -0.686701 0.725882 -0.039196 39 220 122
0.122311 0.094555 -0.057593 0.543565 -0.676154 0.497347 196 41 190
0.159088 0.067852 0.312617 -0.975942 -0.083741 -0.201307 3 116 101
0.347142 0.041988 0.434066 -0.963608 -0.234193 -0.128892 4 97 111
0.069267 -0.093799 0.642176 0.314354 0.750012 -0.581948 167 223 53
0.296644 -0.221625 0.394005 -0.228269 0.934761 0.272240 98 246 162
-0.023251 0.204370 -0.572483 0.765509 -0.608234 0.209874 225 49 154
0.484184 0.105462 0.649838 -0.705438 -0.217740 -0.674497 37 99 41
-0.471942 0.146221 0.503039 0.879735 -0.451437 -0.149234 239 69 108
-0.081592 -0.252403 -1.052949 0.495668 0.701418 0.512178 190 216 192
0.358154 0.089665 0.184081 -0.742567 -0.365785 -0.561067 32 80 55
-0.107675 0.130315 0.475563 -0.429176 -0.884690 -0.182019 72 14 104
0.339601 0.298500 -0.169949 -0.709190 -0.646197 0.281921 37 45 163
-0.404514 -0.226727 0.068363 0.915441 0.389086 -0.102857 244 177 114
-0.019641 -0.327727 -0.867199 0.108535 0.993523 0.033651 141 254 131
-0.310970 0.150675 0.351448 0.048945 -0.721172 0.691025 133 35 215
-0.383400 -0.090980 0.546574 0.749773 0.128827 -0.649033 223 143 44
-0.364822 -0.031666 0.392530 0.570903 0.168588 0.803522 200 148 229
-0.048057 0.044460 -0.843939 0.210460 0.017361 0.977448 154 129 252
-0.014925 -0.122429 -0.854721 0.125897 0.535412 0.835155 143 195 233
0.196018 -0.014122 -0.818309 -0.997736 0.060362 0.029659 0 135 131
0.002678 -0.221200 0.649980 0.386639 0.723078 -0.572423 176 219 54
0.417782 -0.041953 0.274183 -0.912537 0.329173 -0.242739 11 169 96
-0.040491 0.184799 -0.015872 0.479102 -0.615291 -0.626002 188 49 47
-0.280335 0.146099 -0.061629 0.437911 -0.338412 0.832893 183 84 233
0.274271 0.161179 0.293891 -0.642717 -0.741198 -0.193752 45 32 102
-0.425689 0.208221 0.663907 0.602279 -0.481210 -0.636944 204 66 46
0.294939 0.125159 -0.022490 -0.720038 -0.616443 0.318659 35 48 168
-0.336649 -0.264021 0.470098 0.547913 0.588993 -0.594036 197 202 51
0.111015 0.214495 0.247652 0.042694 -0.995841 0.080482 132 0 137
-0.241155 -0.114415 0.324874 -0.450560 0.839429 0.303899 70 234 166
0.271647 0.240222 -0.017016 -0.283801 -0.837810 0.466402 91 20 186
-0.401487 0.193192 0.112411 0.375332 -0.623694 0.685661 175 47 214
-0.330372 0.174015 0.250187 0.785548 -0.543681 -0.295507 227 58 89
-0.492419 -0.167061 0.219880 0.890303 0.452841 -0.047903 241 185 121
-0.359693 -0.007392 0.301700 -0.087968 -0.996119 0.002933 116 0 127
-0.488475 -0.044943 0.135427 0.850403 0.224241 0.475953 235 156 188
0.242977 -0.243970 0.210621 -0.237210 0.920799 -0.309615 97 244 88
-0.480955 0.232074 0.302030 0.503341 -0.684066 -0.527922 191 40 60
0.158173 0.157016 0.159212 -0.265335 -0.914856 0.304360 93 10 166
-0.130457 0.110019 -0.174199 0.097393 -0.173498 0.980007 139 105 252
-0.395249 0.101272 0.150731 0.851034 -0.465176 0.243622 236 68 158
0.092821 -0.034949 -0.658248 -0.401116 -0.488715 0.774767 76 65 226
0.239374 -0.354720 0.254732 0.167793 0.978918 -0.116467 148 252 112
-0.215316 0.080386 0.176646 0.226045 -0.941285 -0.250772 156 7 95
0.131187 -0.150282 -0.396249 0.188231 0.460360 0.867547 151 186 238
0.059124 0.220049 0.052543 0.418752 -0.857334 -0.299376 180 18 89
-0.366873 -0.216860 0.371047 0.546890 0.825415 -0.140005 197 232 109
0.433183 -0.091512 0.240917 -0.649288 0.202936 -0.732968 44 153 34
-0.288276 -0.139197 0.228919 0.659151 0.703565 0.265549 211 217 161
-0.038142 -0.117659 -0.772521 0.551616 0.592947 -0.586630 197 203 52
0.193175 0.041814 -0.974505 -0.486664 -0.029935 0.873076 65 123 238
0.146427 -0.065183 0.129905 -0.927680 0.268678 -0.259273 9 161 94
-0.324367 0.230671 0.220721 0.539652 -0.830085 0.140479 196 21 145
-0.425798 0.133554 0.239830 0.718326 -0.630426 0.294230 219 47 165
0.124123 0.039093 -0.724727 0.587619 -0.154736 0.794204 202 107 228
0.301420 0.126195 0.409294 -0.749184 -0.491744 -0.443746 31 64 70
-0.194284 -0.031079 0.466088 -0.765686 0.179288 0.617723 29 150 206
0.378916 -0.025630 0.589087 -0.177398 -0.074481 -0.981317 104 118 2
-0.624898 -0.046798 0.181873 0.991605 0.112210 0.064249 253 141 135
0.257821 -0.379505 -0.304046 -0.247379 0.883784 0.397152 95 240 178
-0.100796 0.004407 -0.763601 0.778567 0.086289 0.621601 226 138 206
0.022195 0.073284 0.328067 0.786534 -0.616761 -0.031155 227 48 123
-0.169982 -0.170932 0.597354 -0.206005 0.955157 -0.212688 101 249 100
-0.334830 -0.057876 -0.069475 0.671087 0.034600 0.740571 213 131 221
0.189188 -0.223818 -0.895166 -0.638211 0.571926 0.515351 46 200 193
-0.010608 -0.094232 -0.889243 0.471210 0.585580 0.659589 187 202 211
-0.305405 0.194059 0.605179 0.797101 -0.462667 -0.388033 229 68 78
0.219976 0.118193 0.166524 0.090908 -0.905390 -0.414734 139 12 74
-0.076766 0.107917 0.287084 0.505165 -0.389090 -0.770336 191 77 29
-0.329707 0.082145 0.271138 0.781096 -0.286772 -0.554663 227 90 56
0.105856 -0.329050 0.449241 0.129337 0.963745 -0.233384 143 250 97
-0.317871 0.055802 -0.050382 0.651729 -0.245736 0.717540 210 96 218
-0.035646 -0.113946 0.547635 0.072614 0.177660 -0.981409 136 150 2
0.330459 -0.119934 -0.055915 -0.343755 0.719102 0.603924 83 219 204
0.258222 0.091759 0.610878 -0.776821 -0.522559 -0.351399 28 60 82
0.209464 0.163743 -0.210157 -0.418840 -0.853987 -0.308675 74 18 88
0.126792 0.070206 -0.264915 0.475797 -0.229208 0.849165 188 98 235
0.140407 -0.199599 0.283209 -0.671971 0.549769 -0.496195 41 197 64
-0.315295 0.020814 0.423177 0.621863 -0.114250 -0.774747 206 112 28
0.201127 0.011993 -0.433170 -0.394574 0.113465 0.911832 77 141 243
0.113364 0.239310 -0.155274 -0.401578 -0.896586 -0.186730 76 13 103
0.013965 0.005701 0.572998 0.055281 -0.063972 -0.996419 134 119 0
-0.186103 0.083478 0.006946 0.947503 -0.298093 0.115666 248 89 142
0.190208 0.221734 -0.067831 -0.399176 -0.825920 0.398139 76 22 178
-0.022591 -0.022834 -0.846396 0.550382 -0.018979 -0.834697 197 125 21
0.272099 0.225038 -0.455501 -0.546525 -0.800217 -0.246909 57 25 96
-0.231354 -0.186007 0.272648 0.065091 0.942414 0.328053 135 247 169
0.224660 0.014425 0.697805 -0.337609 -0.103143 -0.935618 84 114 8
0.453284 0.146794 -0.183828 -0.958732 -0.242705 0.148081 5 96 146
-0.315210 0.098127 0.423631 -0.081592 -0.546391 -0.833547 117 57 21
0.065187 -0.031933 -0.054462 0.762143 0.632945 -0.136085 224 208 110
0.281129 0.103360 -0.508872 -0.887892 -0.275582 0.368379 14 92 174
0.348945 -0.004680 -0.213466 -0.980082 0.196277 0.030239 2 152 131
-0.346786 0.023861 0.368393 0.769331 0.267416 0.580188 225 161 201
-0.004375 0.230727 -1.003385 0.197487 -0.907547 0.370618 152 11 174
-0.095093 0.346541 -0.863519 0.507276 -0.859058 -0.068490 192 17 118
0.265920 0.109780 -0.070476 -0.841354 -0.522203 -0.139384 20 60 109
0.135820 -0.205016 -0.381305 0.043892 0.701555 -0.711263 133 216 36
0.060777 0.084699 0.433677 0.355763 -0.481040 -0.801270 172 66 25
-0.086983 0.368485 0.608552 0.279324 -0.814026 -0.509254 163 23 62
0.275355 -0.097893 0.182424 -0.784831 0.001961 0.619706 27 127 206
-0.116124 -0.016926 0.318657 -0.671190 0.468093 0.574798 41 187 200
-0.294118 -0.097844 0.714741 0.733550 0.153385 -0.662101 221 147 43
0.228906 0.000661 0.566470 -0.164107 0.074555 -0.983621 106 137 2
0.199025 0.022465 0.102014 -0.960186 0.033262 -0.277374 5 131 92
0.309693 0.011839 0.213779 -0.651173 -0.494979 0.575300 44 64 200
0.361661 0.179768 0.203671 -0.807138 -0.587547 0.057590 24 52 134
-0.338080 0.278142 0.498288 0.435561 -0.897018 -0.075132 183 13 117
-0.093076 0.171004 0.545808 0.529958 -0.747753 -0.400013 195 32 76
-0.266307 0.196223 0.192397 -0.690132 -0.607697 0.392966 39 50 177
-0.250830 0.241275 0.499278 0.291017 -0.488601 -0.822544 164 65 22
-0.060781 0.043895 -0.949825 0.793150 -0.478518 0.376740 228 66 175
-0.470223 0.161595 0.261751 0.827118 -0.495880 -0.264535 232 64 93
0.094749 -0.145443 0.396964 -0.344149 0.399774 -0.849554 83 178 19
0.377851 -0.021751 0.589872 -0.587138 0.267658 -0.763956 52 161 30
0.231426 0.002415 -0.387100 -0.503213 -0.832803 0.230687 63 21 156
0.063557 0.099489 0.313549 -0.640317 -0.645665 -0.416066 45 45 74
0.217525 -0.255684 -0.764376 -0.478952 0.703983 0.524418 66 217 194
-0.172145 0.052088 -0.036434 0.958036 -0.251553 0.137435 249 95 145
0.041565 0.264306 0.406551 -0.029102 -0.973929 -0.224980 123 3 98
0.317215 0.113148 0.103422 -0.810901 -0.554562 -0.186819 24 56 103
-0.137281 -0.172445 0.369151 0.234373 0.921033 -0.311075 157 244 87
-0.349391 0.213246 0.342445 -0.265641 -0.927474 0.263110 93 9 161
-0.392019 0.170363 0.402731 0.544267 -0.408121 -0.732946 196 75 34
0.217045 -0.094643 0.323746 0.085672 0.927906 -0.362836 138 245 81
0.156397 0.003132 -0.648785 -0.965700 -0.231015 0.118557 4 98 142
0.185651 0.015697 0.413994 0.321009 -0.211072 -0.923256 168 100 9
-0.500043 -0.071652 0.320270 0.918598 0.225839 -0.324306 244 156 86
-0.107437 0.251906 -0.832970 0.640089 -0.768228 0.010538 209 29 128
0.007014 0.254881 -0.844030 0.337893 -0.936034 0.098334 170 8 140
-0.136549 -0.287317 0.385001 0.333881 0.936845 -0.104139 170 246 114
-0.323590 -0.146841 0.326827 0.594169 0.615288 0.518058 203 205 193
-0.337603 0.191846 0.271449 0.134933 -0.831436 0.538987 144 21 196
0.222678 -0.002782 -0.128271 -0.824855 -0.213573 0.523450 22 100 194
0.382965 0.189587 0.691515 -0.619965 -0.376127 -0.688601 48 79 39
0.131818 0.165769 -0.835818 -0.045397 -0.842012 0.537545 121 20 196
-0.086335 -0.108571 -0.697286 0.846605 0.294258 -0.443478 235 165 70
0.118315 0.005771 -0.983722 -0.685654 -0.012101 0.727827 40 125 220
-0.358467 -0.219665 -0.849367 0.862922 0.497958 0.086047 237 190 138
0.184413 0.638216 0.473722 0.211063 -0.966740 -0.144455 154 4 109
-0.090194 0.167999 0.544165 -0.034475 -0.715795 -0.697459 123 36 38
-0.344117 -0.061407 0.452937 0.637177 0.150625 -0.755856 208 146 31
0.193769 0.265644 -0.392866 -0.327820 -0.922092 -0.205623 85 9 101
-0.373547 -0.050091 0.496004 0.822382 -0.044939 -0.567158 232 121 55
-0.475373 -0.337851 0.192162 0.402268 0.908552 0.112758 178 243 141
-0.118037 -0.260005 -0.276554 0.748841 0.655676 0.096575 222 211 139
0.400437 0.039866 -0.030410 -0.855328 -0.300042 0.422361 18 89 181
-0.179400 -0.083282 0.526015 0.189925 0.326658 -0.925863 151 169 9
0.095214 -0.093041 -0.538339 -0.197585 0.616162 0.762434 102 206 224
-0.373650 -0.159360 0.316608 0.424062 0.888002 0.177831 181 240 150
0.118775 -0.247805 0.301197 -0.078663 0.829731 -0.552593 117 233 57
-0.172233 0.109445 0.008040 0.686537 -0.539349 -0.487616 215 58 65
0.149659 -0.011700 -1.014425 -0.537744 -0.040410 0.842139 58 122 234
0.032220 -0.242916 0.177308 -0.214591 0.976026 0.036375 100 251 132
0.280280 0.109434 0.265204 -0.706838 -0.677065 0.204850 37 41 153
-0.016455 -0.352953 -0.924888 0.203093 0.976404 -0.073412 153 251 118
0.059174 0.076447 -0.982038 -0.320795 -0.251155 0.913242 86 95 243
-0.196773 -0.097764 0.197952 -0.136456 0.965129 0.223396 110 250 155
0.192230 -0.237896 0.704694 -0.549536 0.509738 -0.661950 57 192 43
-0.470164 -0.055139 0.437716 0.492174 0.237437 -0.837489 190 157 20
-0.052495 -0.313887 -0.533557 0.191677 0.887331 -0.419409 151 240 74
-0.187308 -0.000309 0.160677 -0.530849 -0.276777 -0.800996 59 92 25
0.202154 0.343069 0.064924 -0.050428 -0.976891 0.207704 121 2 153
0.109207 0.141836 0.596879 -0.569911 -0.530212 -0.627755 54 59 47
0.046026 -0.146777 -0.969772 -0.073255 0.692074 0.718100 118 215 219
-0.408144 0.013415 0.209135 0.973185 -0.222257 0.059265 251 99 135
-0.151459 0.159441 0.653128 0.391632 -0.412457 -0.822498 177 74 22
-0.095442 -0.110700 0.113285 -0.574399 0.629776 0.522923 54 207 194
0.299439 -0.092110 0.280460 -0.945690 0.259039 -0.196388 6 160 102
-0.131053 -0.472688 -0.162674 0.198899 0.815598 0.543359 152 231 196
0.127568 0.082085 -0.372069 0.271344 -0.216829 0.937741 162 99 247
0.190844 -0.237053 0.482574 -0.538498 0.794312 0.281227 58 228 163
-0.307798 -0.190385 0.427578 0.061700 0.831323 -0.552354 135 233 57
0.163808 -0.189929 0.528582 -0.756137 0.653668 -0.031218 31 210 123
0.139808 0.257652 -0.059549 0.460609 -0.866630 -0.191810 186 17 103
0.037778 -0.223848 -0.250677 -0.016419 0.975105 0.221133 125 251 155
0.150652 -0.214227 -0.260161 0.177304 0.491410 0.852690 150 190 236
0.005338 0.214093 0.624397 -0.154811 -0.973783 -0.166672 107 3 106
-0.020420 0.130764 0.468540 0.480629 -0.861648 -0.162968 188 17 106
0.021020 -0.199964 0.347930 -0.541607 0.810900 -0.221592 58 230 99
0.159365 0.127614 -0.964016 -0.901577 -0.297415 0.314172 12 89 167
0.226109 -0.157629 0.021346 -0.444631 0.732434 0.515599 70 220 193
-0.275817 0.025503 0.247383 0.708908 -0.670258 -0.219553 217 42 99
-0.463829 0.218989 0.561555 0.466594 -0.830631 -0.303880 186 21 88
-0.169767 0.059790 0.527149 0.840535 -0.288643 -0.458460 234 90 69
-0.303638 -0.185930 0.196779 0.666599 0.701658 -0.251639 212 216 95
-0.168375 -0.286700 -0.890442 0.520189 0.764951 0.379807 193 225 175
0.238876 0.232507 -0.091623 -0.384298 -0.851451 0.356856 78 18 172
-0.014976 0.078694 0.558583 -0.534097 -0.669838 -0.515808 59 42 61
0.142342 0.056818 -0.324351 0.851219 -0.346445 0.394211 236 83 177
0.257266 0.108039 -0.233348 -0.651059 -0.743560 -0.152451 44 32 108
0.252817 0.385311 -0.097603 -0.267832 -0.923081 -0.276020 93 9 92
0.332565 -0.030084 -0.464350 -0.967952 0.047854 -0.246533 4 133 96
-0.322335 0.024882 0.048729 0.202252 -0.859283 -0.469815 153 17 67
-0.238568 -0.005962 0.205720 0.014136 -0.246130 0.969134 129 96 251
-0.513973 0.091604 0.562631 0.839685 -0.276839 -0.467214 234 92 67
-0.565202 -0.046182 0.189379 0.975102 0.218744 -0.036435 251 155 122
-0.246138 -0.087282 0.086727 0.531823 0.307540 -0.789039 195 166 26
-0.335712 0.245962 0.474089 0.053666 -0.885363 -0.461792 134 14 68
-0.169307 -0.161796 0.466228 0.332925 0.632179 -0.699651 169 208 38
-0.536968 -0.023189 0.209743 0.884929 -0.040253 0.463983 240 122 186
0.055809 0.152475 0.525783 -0.180478 -0.879857 -0.439635 104 15 71
-0.200550 0.152336 0.534136 0.834979 -0.229897 -0.499958 233 98 63
0.222521 0.399326 -0.251140 -0.163547 -0.955838 0.244184 106 5 158
0.194031 0.084816 -0.153785 -0.871369 -0.162514 0.462931 16 106 186
0.099217 0.046200 -0.969036 -0.460654 -0.136638 0.877000 68 110 239
-0.107829 0.042165 0.649929 0.262232 -0.175244 -0.948960 160 105 6
0.317429 0.187482 0.346824 -0.637667 -0.769600 0.033108 46 29 131
0.183790 -0.181762 -0.238661 -0.569761 0.605015 -0.556174 54 204 56
-0.116556 0.194141 0.176851 0.092265 -0.731084 -0.676020 139 34 41
0.202139 0.308601 0.625693 -0.457973 -0.662894 -0.592311 69 42 51
0.263676 0.216897 0.442533 -0.038632 -0.981050 -0.189865 122 2 103
0.144770 -0.180677 0.677897 0.063306 0.555310 -0.829231 135 198 21
0.090363 -0.350210 -0.540419 -0.006715 0.977470 0.210967 126 252 154
0.237959 -0.069202 -0.135336 0.002052 -0.030331 0.999538 127 123 254
-0.455067 -0.044342 0.327517 0.619487 0.320238 -0.716717 206 168 36
-0.200923 -0.150829 0.691990 0.483039 0.421432 -0.767508 189 181 29
-0.212450 0.137623 0.041752 0.576819 -0.376213 -0.725082 201 79 35
-0.008545 -0.058893 -0.927588 0.429210 0.296439 0.853172 182 165 236
0.480267 -0.200222 0.160427 -0.864073 0.454746 -0.215832 17 185 99
-0.099971 -0.246699 0.604535 -0.145873 0.739441 -0.657227 108 221 43
0.236374 -0.263851 -0.285234 0.064979 0.917674 0.391984 135 244 177
0.281049 -0.048313 0.475846 -0.724183 0.397766 -0.563331 35 178 55
-0.570297 0.083308 0.495270 0.963184 -0.095814 -0.251189 250 115 95
0.214808 0.100235 0.509626 -0.116978 -0.387390 -0.914464 112 78 10
-0.166007 0.240787 0.532449 0.001583 -0.956196 -0.292722 127 5 90
-0.550617 -0.103339 0.311344 0.983169 0.180635 0.027382 252 150 130
0.109860 -0.045795 -0.366004 0.714962 0.305060 -0.629100 218 166 47
0.107267 -0.069223 -0.067127 0.934497 0.341399 -0.100806 246 171 114
0.364609 -0.120784 -0.809252 -0.945945 0.275009 -0.171927 6 162 105
0.287754 -0.274966 -0.059309 0.006676 0.974757 0.223170 128 251 155
-0.084934 0.086220 -0.896306 0.190756 -0.877332 -0.440341 151 15 71
-0.096103 0.046269 0.230441 0.747659 -0.648537 -0.142849 222 44 109
0.320052 0.208365 -0.229737 -0.741246 -0.621364 0.253893 32 48 159
0.205972 0.063014 -0.110431 0.874868 -0.458295 0.156752 239 69 147
-0.421029 -0.158648 0.382118 0.499950 0.724315 -0.474781 191 219 66
-0.100882 -0.007471 0.222011 -0.997478 -0.054274 0.045736 0 120 133
0.231612 0.266336 0.417484 0.045063 -0.981122 -0.188068 133 2 103
0.162973 0.224382 -0.148322 0.346980 -0.937848 0.006749 171 7 128
0.114249 -0.065180 -0.412931 0.252606 0.662681 -0.705013 159 211 37
0.024385 -0.000355 -0.762334 0.237480 0.080080 0.968086 157 137 250
0.228877 -0.351603 0.171380 -0.485703 0.825605 -0.287174 65 232 90
0.061213 0.151345 -0.879908 -0.456214 -0.883150 0.109155 69 14 141
0.223811 0.258572 -0.488874 -0.470608 -0.785199 0.402480 67 27 178
-0.239530 0.022205 0.671778 -0.037357 -0.125192 -0.991429 122 111 1
0.300387 -0.018773 -0.992480 -0.930667 -0.002009 0.365862 8 127 174
-0.353346 0.164340 0.247966 0.594738 -0.740549 0.312849 203 33 167
-0.077313 0.139746 0.726080 0.403207 -0.483175 -0.777152 178 65 28
0.332754 -0.290602 0.630970 -0.544662 0.757227 -0.360486 58 224 81
0.095444 0.102461 -0.780549 -0.777267 -0.575897 0.253377 28 54 159
0.186169 -0.103762 -0.508621 -0.721494 0.564511 0.400966 35 199 178
0.004408 0.073960 -0.972241 -0.226074 -0.242595 0.943419 98 96 247
-0.237942 -0.171737 0.229074 -0.470289 0.808666 0.353394 67 230 172
-0.502123 0.190029 0.233799 0.703760 -0.708542 0.051863 217 37 134
-0.156080 -0.109517 0.136219 -0.561237 0.782747 -0.268926 55 227 93
-0.196908 -0.070555 0.605395 -0.294717 0.219415 -0.930053 89 155 8
0.013660 -0.345272 -0.269445 -0.136493 0.990630 -0.004761 110 253 126
-0.147177 0.118435 0.351722 0.713639 -0.580025 0.392797 218 53 177
0.219338 -0.169180 0.632431 -0.615573 0.586805 -0.526052 49 202 60
0.163420 -0.054283 -0.429178 -0.767950 0.619553 -0.162502 29 206 106
-0.563310 -0.204549 0.282051 0.802685 0.530408 -0.272698 229 195 92
0.061447 -0.091708 -0.432758 0.994651 0.053630 0.088274 254 134 138
0.172913 0.045561 0.047556 0.132178 -0.230030 0.964166 144 98 250
0.489653 0.288858 0.202228 -0.812015 -0.511553 -0.280973 23 62 91
-0.092368 0.157319 0.153137 -0.257873 -0.698372 0.667666 94 38 212
0.401365 -0.113336 0.343766 -0.994968 0.098690 -0.017277 0 140 125
0.146112 -0.280623 0.564259 -0.206058 0.976250 -0.066908 101 251 118
0.342778 -0.192681 -0.402687 -0.902768 0.423460 -0.075444 12 181 117
0.067367 0.066896 -0.102639 0.408451 -0.769641 0.490734 179 29 190
0.114493 -0.136791 0.563888 -0.837964 0.520705 -0.163350 20 193 106
0.277465 -0.151354 0.340502 0.264574 0.787896 0.556076 161 227 198
-0.141499 -0.294141 -0.766282 0.567107 0.783240 0.254802 199 227 159
0.203917 -0.341536 -0.378754 -0.191254 0.936042 0.295378 103 246 165
-0.267260 0.003333 -0.767407 0.938845 0.063163 0.338499 247 135 170
0.242460 -0.206443 0.452794 -0.540930 0.489684 -0.683816 58 189 40
0.315394 0.075868 0.357388 -0.764723 -0.597051 -0.242339 29 51 96
-0.006248 0.305586 0.233975 0.206879 -0.892132 -0.401625 153 13 76
-0.109581 0.280216 -0.992436 0.633503 -0.703709 0.321664 208 37 168
0.044119 0.350528 0.363565 -0.381141 -0.920600 0.085008 78 10 138
0.244897 -0.045670 0.351296 0.699946 0.356399 -0.618915 216 172 48
0.020993 0.239854 -0.321754 0.507881 -0.799455 0.320824 192 25 168
-0.161141 -0.023507 -0.205211 0.312721 0.158699 0.936494 167 147 246
0.197983 -0.182090 -0.087802 0.344399 0.854650 0.388539 171 236 177
-0.040597 -0.053329 0.479352 -0.785494 0.224166 -0.576844 27 156 53
-0.470402 -0.107903 -0.988895 0.959781 0.146533 0.239475 249 146 158
0.212489 0.443483 0.055727 0.015868 -0.854710 -0.518864 129 18 61
0.373528 -0.230885 -0.232238 -0.742305 0.643529 -0.186691 32 209 103
0.122075 -0.116885 -0.993388 -0.577773 0.312958 0.753814 53 167 223
0.056669 0.036020 -0.683530 0.848979 -0.521097 0.087710 235 61 138
-0.025747 -0.214415 -0.787888 0.468375 0.859369 -0.205206 187 237 101
0.063150 -0.222747 -0.326209 -0.116885 0.823012 0.555868 112 232 198
0.089123 0.116884 0.248422 -0.076854 -0.620823 -0.780174 117 48 28
0.243429 -0.125409 0.010855 -0.484420 0.440009 -0.756128 65 183 31
-0.414094 0.097310 0.394533 0.722515 -0.606748 -0.331404 219 50 85
0.190161 0.217891 0.442934 -0.606728 -0.773838 0.181812 50 28 150
0.100545 0.126436 -0.692886 -0.677470 -0.346819 0.648653 41 83 210
-0.395846 0.210051 0.347793 0.694619 -0.719128 -0.018954 216 35 125
-0.034014 0.157778 -1.053113 -0.222609 -0.477503 0.849963 99 66 235
0.385187 0.026045 0.507096 -0.346044 0.019071 -0.938024 83 129 7
-0.109000 -0.061098 0.211819 -0.912244 0.223489 -0.343314 11 155 83
0.275714 0.176700 -0.146546 -0.508503 -0.625096 -0.592183 62 47 51
-0.466896 -0.322522 0.228993 0.696951 0.697293 -0.167458 216 216 106
-0.303675 0.129106 0.135877 0.445297 -0.761337 0.471250 184 30 187
-0.209097 -0.244270 -0.049619 0.124721 0.779757 0.613534 143 226 205
0.066999 -0.044021 -0.924891 -0.135691 -0.236658 0.962071 110 97 250
-0.439756 0.124015 0.063995 0.638013 -0.457895 0.619090 208 69 206
0.352653 0.138361 -0.193366 -0.934783 -0.199528 0.293887 8 102 164
-0.187203 0.024106 0.273694 0.415464 -0.066123 0.907203 180 119 243
0.049253 0.202846 -0.700585 0.293341 -0.898812 0.325712 164 12 169
0.128786 0.196582 -0.406619 -0.634142 -0.769489 0.075838 46 29 137
0.305562 -0.092954 -0.122777 -0.955222 0.262521 0.136507 5 160 144
-0.284445 -0.200706 -0.465191 0.687626 0.493549 0.532522 215 190 195
-0.121739 0.541388 0.219571 0.138684 -0.987390 -0.076335 145 1 117
0.450290 0.010065 -0.007875 -0.715430 -0.102681 -0.691098 36 114 39
-0.496690 -0.029875 0.237656 0.978845 -0.077142 -0.189504 252 117 103
0.113630 0.007817 -0.115585 0.397932 -0.893712 -0.207194 178 13 101
0.338562 0.086221 0.500780 -0.969339 -0.173488 0.174025 3 105 149
-0.160704 0.233486 0.411088 0.023963 -0.748828 -0.662331 130 32 43
-0.121612 0.196674 -0.275250 0.381855 -0.836166 0.393717 176 20 177
0.350823 0.007083 -0.282798 -0.997297 0.063698 -0.036637 0 135 122
0.214765 -0.216017 0.026832 0.033525 0.807017 0.589575 131 230 202
0.103799 0.131348 -0.684936 0.188889 -0.700042 0.688668 151 38 215
0.086605 -0.011741 0.573643 0.152189 0.115963 -0.981525 146 142 2
-0.093152 -0.254763 -0.987018 0.208828 0.957235 0.200229 154 249 153
-0.057748 0.111341 0.452384 -0.330222 -0.923390 -0.195716 85 9 102
-0.076733 0.120588 0.428392 -0.549531 -0.401242 -0.732817 57 76 34
-0.002104 -0.103287 -0.047185 -0.686427 0.371714 0.625018 39 174 207
0.106426 -0.054192 -0.438761 -0.055092 0.955428 -0.290038 120 249 90
0.574978 0.214989 0.436456 -0.860757 -0.458634 -0.220799 17 69 99
0.102683 0.285332 0.289145 -0.001142 -0.978981 0.203948 127 2 153
-0.124363 0.166011 -0.158615 0.531312 -0.565749 0.630583 195 55 207
-0.209325 0.233478 0.570406 0.078734 -0.661531 -0.745773 137 43 32
0.297497 0.071299 -0.169298 -0.953759 -0.154129 -0.258048 5 107 94
-0.036900 0.193611 -0.426949 0.479724 -0.718691 -0.503337 188 35 63
0.275513 0.011805 -0.007238 -0.510479 -0.713392 0.480086 62 36 188
0.287763 -0.101106 -0.480549 -0.789253 0.373359 0.487528 26 175 189
0.200494 0.008013 0.640536 0.194822 -0.070207 -0.978323 152 118 2
0.209999 0.147060 -0.296484 -0.620171 -0.386035 0.682909 48 78 214
0.230975 0.023256 -0.040973 -0.950054 -0.304191 0.069757 6 88 136
0.405659 -0.042473 0.156883 -0.865681 0.189161 -0.463480 17 151 68
0.333746 -0.094586 0.497243 -0.655087 0.541241 -0.527181 43 196 60
-0.369959 -0.034389 0.365862 0.884200 0.430951 -0.180200 240 182 104
0.073710 0.157113 0.233841 0.662722 -0.669852 -0.334810 211 42 84
0.067888 0.077176 -0.025902 0.503667 -0.643779 -0.576079 191 45 54
0.237744 -0.415633 -0.280459 -0.178409 0.902880 0.391124 104 242 177
-0.210180 -0.184335 -0.317693 0.670694 0.735786 0.093745 213 221 139
0.073866 0.144292 -0.194113 0.633543 -0.601890 -0.486161 208 50 65
-0.196650 -0.037589 -0.752803 0.999246 -0.038289 0.006417 254 122 128
-0.048671 0.590171 -0.243549 0.298551 -0.953149 -0.048731 165 5 121
0.164333 -0.215918 0.077377 -0.242801 0.963786 -0.110288 96 250 113
0.317341 -0.157353 -0.169882 -0.507354 0.850310 -0.139873 62 235 109
0.334713 0.087558 0.722108 -0.736074 -0.268731 -0.621272 33 93 48
-0.335060 0.074686 0.472676 0.811645 -0.536132 -0.231938 230 59 97
-0.303976 0.242150 0.479674 0.438510 -0.873733 -0.210473 183 16 100
0.089716 -0.243873 0.653031 -0.056915 0.706829 -0.705091 120 217 37
0.013743 -0.115809 -0.882617 0.352615 0.931488 -0.089403 172 246 116
-0.501980 0.191419 0.427221 0.825593 -0.470672 -0.311230 232 67 87
0.172215 -0.143443 0.359016 -0.283534 0.416677 -0.863706 91 180 17
0.241284 -0.270827 0.515582 -0.016120 0.913960 -0.405483 125 244 75
0.015436 -0.142131 -0.181362 -0.194434 0.386319 0.901639 102 176 242
0.063975 0.028414 -0.842227 -0.767380 0.429943 0.475686 29 182 188
0.337703 -0.217214 -0.173584 -0.770014 0.592140 -0.237588 29 202 97
-0.474638 0.158753 0.390310 0.642784 -0.306464 -0.702074 209 88 37
0.139726 -0.160970 -0.594372 -0.317354 0.649997 0.690500 87 210 215
-0.511951 0.050811 0.230527 0.979495 0.024767 0.199942 252 130 152
-0.185439 -0.292628 0.061863 -0.030961 0.973170 0.227997 123 251 156
-0.431134 0.151192 0.133891 0.881502 -0.467912 -0.063350 239 67 119
0.283271 0.129456 0.193454 -0.815836 -0.342833 -0.465701 23 83 68
-0.468934 -0.121082 0.251149 0.667945 0.592002 0.450981 212 202 185
-0.342915 -0.059811 0.363753 0.058683 0.802570 0.593665 134 229 203
-0.190031 0.054251 -0.527435 0.968986 -0.177730 0.171690 251 104 149
-0.011941 -0.314081 -0.971450 -0.081803 0.948128 0.307182 117 248 166
-0.044249 0.173889 -0.633156 0.697285 -0.687474 -0.202913 216 39 101
-0.112039 0.079584 -0.089731 0.701344 -0.138856 0.699168 216 109 216
0.200858 0.018039 0.630030 -0.762760 -0.280378 -0.582740 30 91 53
0.076288 0.305569 0.475734 -0.397004 -0.900642 0.176723 76 12 150
0.139067 -0.193976 -0.947740 -0.536536 0.483511 0.691626 59 189 215
0.015530 -0.006733 -0.788214 0.773746 0.432027 0.463325 226 182 186
-0.396227 -0.150351 0.059307 0.895715 0.326925 -0.301354 241 169 89
-0.574560 -0.098086 0.222872 0.992985 0.102752 -0.058503 254 140 120
0.038156 0.284333 -0.694719 0.228004 -0.965911 -0.122594 156 4 111
-0.294625 -0.212118 0.168647 0.245021 0.825480 -0.508476 158 232 62
0.104631 -0.039582 -0.029611 -0.073830 0.252654 0.964736 118 159 250
-0.429193 -0.253688 0.323603 0.550904 0.802168 -0.230285 197 229 98
0.381382 0.143709 0.162705 -0.925899 -0.350130 0.141842 9 82 145
-0.460823 -0.088314 0.059949 0.820065 0.361796 0.443392 232 173 184
-0.347155 0.195786 0.640285 0.437819 -0.425341 -0.792086 183 73 26
0.151556 0.191136 -0.427193 -0.406645 -0.846665 0.343219 75 19 171
-0.170883 -0.026290 -0.516902 0.924158 0.125056 0.360960 245 143 173
-0.270288 0.244624 0.597532 0.578559 -0.650859 -0.491581 201 44 64
0.166391 -0.264188 0.596023 0.081172 0.994960 -0.058863 137 254 119
0.300536 -0.040131 -0.016491 -0.684704 0.306217 0.661371 40 166 211
-0.224017 0.180451 -0.193243 0.938147 -0.337852 0.075732 247 84 137
-0.092438 -0.041164 -0.872514 0.709531 -0.264576 0.653120 217 93 210
0.053512 -0.042866 -0.033752 -0.176329 0.317822 0.931610 105 168 246
-0.334656 0.067775 0.317225 0.805920 0.015227 -0.591829 230 129 52
0.041559 0.072027 -0.982143 -0.142454 -0.213287 0.966548 109 100 250
-0.141185 0.222675 -0.903430 0.870341 -0.476422 -0.124613 238 66 111
0.090355 0.023162 0.556306 -0.426213 -0.130816 -0.895114 73 110 13
-0.290777 0.173175 -0.086032 0.529124 -0.420270 0.737157 194 73 221
-0.511538 0.072357 0.488269 0.562160 -0.394328 -0.726968 199 77 34
-0.085894 -0.337209 0.291777 -0.500307 0.854751 -0.138179 63 236 109
0.428401 -0.225983 0.065310 -0.696742 0.701339 -0.150581 38 216 108
0.205000 0.164733 0.629448 -0.203678 -0.597782 -0.775353 101 51 28
-0.023211 0.216319 0.327752 -0.295428 -0.922428 -0.248695 89 9 95
-0.087383 0.120600 0.062044 0.669131 -0.737301 0.093011 212 33 139
0.063368 0.131522 0.507438 -0.702881 -0.518319 -0.487139 37 61 65
-0.441813 0.011992 0.375321 0.748873 -0.303407 -0.589181 222 88 52
-0.048990 0.045635 -0.882166 0.638140 -0.303691 0.707495 208 88 217
-0.614080 0.083996 0.410809 0.963068 -0.161152 -0.215709 250 106 99
0.201719 0.015217 -0.658358 -0.913747 -0.296979 0.277256 10 89 162
0.111699 0.192019 -0.955091 0.322621 -0.771920 0.547773 168 29 197
-0.228380 0.066980 0.661662 -0.121698 -0.392567 -0.911636 111 77 11
0.452946 0.253593 0.017718 -0.895930 -0.441427 0.049515 13 71 133
0.239275 0.044942 -0.059287 0.737283 -0.408625 -0.537996 221 75 58
0.476733 -0.050125 -0.015189 -0.973444 0.203565 0.104730 3 153 140
0.402111 -0.179833 -0.143313 -0.936620 0.346960 -0.048596 8 171 121
0.324045 0.187013 -0.032557 -0.912030 -0.401604 -0.083163 11 76 116
-0.041324 0.202018 -0.752151 0.458965 -0.888431 0.006485 186 14 128
-0.109346 0.008572 -0.958862 0.891951 -0.189997 0.410274 241 103 179
0.157895 0.005855 -0.290762 0.659215 0.531761 -0.531663 211 195 59
-0.213737 -0.035407 0.275288 0.608741 -0.196908 0.768545 205 102 225
-0.006850 -0.094056 -0.741700 0.662940 0.748310 0.023293 212 222 130
-0.002289 0.004359 0.531497 0.985475 0.161831 0.051467 253 148 134
-0.481144 0.188875 0.319819 0.639370 -0.739897 -0.209185 209 33 100
-0.311096 0.331133 0.533115 0.450020 -0.650453 -0.611876 184 44 49
-0.542036 -0.095389 0.007611 0.950522 0.278551 0.137539 248 163 145
0.288076 -0.267385 0.119775 -0.428122 0.877186 -0.217384 72 239 99
-0.244891 0.141867 0.235870 -0.699741 -0.695812 0.161892 38 38 148
-0.620403 -0.049103 0.348285 0.992067 0.074992 -0.100896 253 137 114
0.143917 0.227154 0.543342 -0.524773 -0.705333 -0.476570 60 37 66
-0.508179 0.366081 0.259393 0.724477 -0.682944 0.093389 219 40 139
-0.048639 0.201066 -0.902502 0.153014 -0.869244 0.470108 147 16 187
0.505820 -0.216034 0.111993 -0.926766 0.375074 -0.020613 9 175 124
0.152040 -0.041888 0.289051 -0.690217 0.117351 0.714023 39 142 218
-0.269202 0.177767 -0.440560 0.688131 -0.640722 0.340516 215 45 170
0.263899 0.013672 0.515290 -0.891884 -0.415947 0.177571 13 74 150
0.275589 -0.045264 -0.053166 -0.872005 -0.121677 0.474133 16 111 187
0.185794 -0.098098 -0.833460 -0.793780 0.597029 -0.116058 26 203 112
0.245666 -0.243988 -0.107309 0.179275 0.880438 -0.438964 150 239 71
0.069988 0.256259 0.392814 -0.235598 -0.923809 -0.301777 97 9 89
0.038244 0.298503 -0.832914 0.081661 -0.940254 0.330537 137 7 169
0.005362 0.006240 -0.086433 0.503163 -0.079108 -0.860563 191 117 17
0.301764 -0.034395 0.022305 -0.825756 0.173501 -0.536679 22 149 59
-0.436668 -0.038762 0.225015 0.683758 -0.032310 0.728993 214 123 220
0.266387 -0.110884 -0.004849 -0.814813 0.569559 0.108089 23 200 141
-0.193116 0.083101 0.011336 0.582740 -0.692694 0.424959 201 39 181
-0.418434 0.015456 0.305156 0.425531 0.054722 -0.903288 181 134 12
-0.243858 0.117989 0.168171 0.326090 -0.905345 -0.272059 169 12 92
-0.040852 0.125602 -0.283633 0.865225 -0.392798 0.311601 237 77 167
0.176411 0.061819 0.498441 -0.111411 -0.389699 -0.914179 113 77 10
-0.072809 0.034120 0.620652 0.080741 -0.148795 -0.985566 137 108 1
0.277873 -0.025176 0.602531 0.082598 0.042692 -0.995668 138 132 0
-0.302133 0.021930 0.453965 0.875376 -0.479988 0.057699 239 66 134
-0.089661 -0.001995 0.473688 -0.282258 -0.021609 -0.959095 91 124 5
-0.411055 0.277381 0.516924 0.430260 -0.676224 -0.597995 182 41 51
-0.567167 0.276271 0.352368 0.619691 -0.694322 -0.365923 206 38 80
-0.036232 0.118056 -0.834119 0.664702 -0.745028 -0.055721 212 32 120
0.208279 -0.475348 0.035749 0.070071 0.994964 0.071677 136 254 136
0.033012 0.358920 -0.041883 0.163606 -0.918419 -0.360194 148 10 81
