ply
format ascii 1.0
element vertex 256
property float x
property float y
property float z
property float nx
property float ny
property float nz
property uchar red
property uchar green
property uchar blue
end_header
-0.367481 -0.246232 -0.679334 -0.015868 0.755449 0.655015 125 223 211
0.325342 -0.087152 -0.707201 -0.359128 0.435739 0.825323 81 183 232
-0.167592 0.234378 0.659192 -0.222648 -0.724614 0.652199 99 35 210
0.266176 -0.174100 0.795718 -0.890432 0.203654 -0.407008 13 153 75
-0.240901 -0.231467 0.771525 0.593985 0.801089 -0.073749 203 229 118
-0.592562 0.081227 -0.757602 0.786079 -0.413268 0.459662 227 74 186
-0.246883 0.231221 -0.347755 0.013753 -0.999881 -0.007047 129 0 126
0.287766 0.065451 0.797457 -0.895583 -0.210142 -0.392137 13 100 77
-0.161345 -0.140845 -0.125349 0.604748 0.523341 -0.600328 204 194 50
0.480609 -0.076420 -0.626276 -0.499595 0.263874 0.825091 63 161 232
-0.223266 -0.088165 0.944200 0.326358 0.357387 -0.875080 169 173 15
-0.041830 -0.190006 -0.311389 -0.649773 0.512145 0.561696 44 192 199
-0.595190 0.100435 -0.735840 0.786079 -0.413268 0.459662 227 74 186
0.217601 0.059425 -0.750621 -0.324687 0.041285 0.944920 86 132 247
0.200731 -0.214998 -0.543914 0.009650 0.890612 -0.454661 128 241 69
0.412498 -0.001751 -0.423643 0.121475 -0.054813 -0.991080 142 120 1
0.183377 -0.125150 0.907677 -0.462848 0.059542 -0.884435 68 135 14
0.046248 -0.105081 -0.539292 0.507349 0.276970 -0.816018 192 162 23
0.675273 -0.147878 -0.543335 -0.333946 0.278311 0.900568 84 162 242
-0.339179 -0.035576 0.790355 0.998192 0.027542 0.053420 254 131 134
-0.133450 0.244120 0.838386 -0.027182 -0.828508 -0.559318 124 21 56
0.039035 -0.034272 0.105927 0.758121 0.068449 -0.648512 224 136 44
-0.053813 -0.121722 0.633814 -0.618219 0.140963 0.773262 48 145 226
0.861712 0.024391 -0.392023 -0.033482 -0.081973 -0.996072 123 117 0
0.218780 0.228306 0.204672 -0.168289 -0.985668 0.011713 106 1 128
0.245832 0.189317 -0.506230 0.076735 -0.639050 -0.765328 137 46 29
0.641126 -0.147187 -0.557106 -0.230290 0.327249 0.916447 98 169 244
-0.198054 0.150348 -0.164659 0.656969 -0.456416 -0.600064 211 69 50
-0.547889 -0.030165 -0.797605 0.327076 -0.083807 0.941274 169 116 247
-0.122236 -0.154906 -0.565123 -0.015413 0.274671 -0.961415 125 162 4
0.041693 0.103129 0.102221 0.829180 -0.252126 -0.498892 233 95 63
0.278556 0.209815 0.346981 -0.971883 -0.234678 0.019240 3 97 129
0.291040 0.124264 -0.694889 -0.399048 -0.301370 0.865989 76 89 237
0.286329 0.201294 0.635686 -0.971883 -0.234678 0.019240 3 97 129
0.793958 0.126127 -0.398118 -0.033482 -0.081973 -0.996072 123 117 0
-0.072455 0.156108 -0.364326 -0.650736 -0.493262 0.577265 44 64 201
0.073209 0.229446 -0.633750 0.418980 -0.811375 -0.407586 180 24 75
-0.588341 0.152853 -0.690328 0.937263 -0.337148 -0.088708 247 84 116
-0.298826 0.044701 -0.234487 0.628847 -0.269972 -0.729155 207 93 34
0.001548 -0.163712 -0.283429 -0.669093 0.492859 0.556241 42 190 198
0.281617 0.047740 -0.442733 0.107941 -0.260009 -0.959554 141 94 5
-0.400400 0.087203 -0.337823 0.628847 -0.269972 -0.729155 207 93 34
-0.125353 0.037794 -0.535047 -0.618167 -0.138069 -0.773826 48 109 28
-0.148144 0.147111 -0.767561 -0.040645 -0.398022 0.916475 122 76 244
-0.338699 -0.168319 -0.326845 0.668859 0.348018 -0.656895 212 171 43
0.087900 -0.016571 0.385499 0.991169 0.108177 0.076694 253 141 137
0.083249 -0.042563 0.482267 0.991169 0.108177 0.076694 253 141 137
0.196709 -0.231401 0.527621 -0.070060 0.997249 -0.024203 118 254 124
-0.180561 -0.215838 -0.382193 -0.399046 0.743007 0.537311 76 222 196
-0.009321 0.244280 0.719964 -0.005296 -0.779099 0.626878 126 28 207
-0.209998 -0.240804 -0.604543 -0.242931 0.819931 -0.518360 96 232 61
-0.044579 -0.173171 -0.032074 0.598670 0.656781 -0.458511 203 211 69
0.523834 0.028672 -0.411680 0.121475 -0.054813 -0.991080 142 120 1
-0.297156 0.050842 0.576199 0.791532 -0.080112 0.605855 228 117 204
0.109445 -0.149795 0.313223 0.965580 0.259002 0.023929 250 160 130
-0.615511 -0.039323 -0.597335 0.999075 0.037571 -0.020904 254 132 124
0.187252 -0.237720 0.184661 0.504358 0.788593 -0.351774 191 228 82
0.094404 -0.010396 0.292738 0.991169 0.108177 0.076694 253 141 137
0.210319 0.006416 0.906297 -0.449420 0.116465 -0.885696 70 142 14
-0.119983 -0.173018 -0.122752 0.426303 0.668671 -0.609216 181 212 49
0.090358 0.115672 -0.770348 -0.075225 -0.417977 0.905338 117 74 242
-0.214067 -0.074274 -0.137142 0.751828 0.111520 -0.649861 223 141 44
-0.009815 0.173448 0.646773 -0.038966 -0.290953 0.955944 122 90 249
-0.127773 -0.135947 -0.560234 0.158331 0.103216 -0.981977 147 140 2
-0.356587 -0.174626 -0.746179 -0.009768 0.566351 0.824106 126 199 232
-0.230809 0.227796 0.655179 0.236210 -0.808237 0.539405 157 24 196
-0.257523 -0.219379 0.636584 0.033781 0.740834 0.670839 131 221 213
0.065977 -0.185960 0.090862 0.654415 0.558173 -0.510082 210 198 62
-0.077685 0.225622 -0.267955 -0.520097 -0.732674 0.438961 61 34 183
0.227130 0.228290 0.323273 -0.168289 -0.985668 0.011713 106 1 128
-0.075731 0.012945 -0.017317 0.617381 -0.099000 -0.780410 206 114 27
-0.593401 -0.017331 -0.771011 0.832474 -0.024217 0.553535 233 124 198
0.690713 0.162837 -0.528295 -0.407134 -0.293758 0.864840 75 90 237
-0.195971 -0.027855 0.535638 -0.405651 -0.054655 0.912392 75 120 243
0.182689 -0.042680 0.914426 -0.451449 0.079395 -0.888757 69 137 14
-0.152929 -0.223592 -0.336119 0.031565 0.992710 0.116318 131 254 142
0.310480 -0.143563 0.057024 -0.812037 0.466227 0.351039 23 186 172
0.002256 0.093119 -0.332455 -0.767933 -0.192963 0.610774 29 102 205
0.054921 0.057022 -0.515001 0.538570 -0.271234 -0.797731 196 92 25
0.137372 0.138311 -0.142369 -0.663139 -0.475061 0.578414 42 66 201
-0.444560 -0.254799 -0.665512 0.084277 0.827596 0.554962 138 233 198
0.223079 -0.234875 0.099106 -0.187315 0.982283 -0.005742 103 252 126
-0.118255 0.189332 -0.577054 0.074334 -0.239997 -0.967923 136 96 4
-0.126241 0.005911 -0.057257 0.414270 0.183748 -0.891413 180 150 13
0.160470 -0.236164 -0.608938 -0.065800 0.973426 0.219343 119 251 155
-0.265584 0.242157 -0.685799 0.023704 -0.823517 0.566796 130 22 199
-0.277768 0.129455 0.876189 0.866788 -0.456514 -0.200685 238 69 101
-0.617642 -0.027973 -0.692732 0.999709 0.016969 -0.017171 254 129 125
0.256744 0.221191 0.143630 -0.182533 -0.977791 -0.102984 104 2 114
-0.015562 -0.197811 0.891838 0.004006 0.622465 -0.782638 128 206 27
-0.274687 0.149780 -0.251064 0.764253 -0.255598 -0.592103 224 94 52
-0.163110 0.139868 -0.120803 0.622735 -0.472817 -0.623415 206 67 48
0.132808 -0.178737 0.299105 0.689891 0.723837 -0.010539 215 219 126
0.095147 -0.175933 0.912791 0.029913 0.660411 -0.750309 131 211 31
0.283184 0.206879 0.544956 -0.971883 -0.234678 0.019240 3 97 129
0.025769 0.093093 0.075352 0.913206 -0.172287 -0.369286 243 105 80
-0.064841 -0.265461 0.779712 0.026793 0.995512 0.090767 130 254 139
0.584573 0.200696 -0.510098 -0.138357 -0.922616 0.360053 109 9 173
0.121375 0.174167 0.613497 0.489514 -0.701552 0.517880 189 38 193
0.217136 0.199334 -0.517873 0.136447 -0.875938 -0.462725 144 15 68
-0.117295 0.172224 -0.572738 0.074334 -0.239997 -0.967923 136 96 4
-0.265715 0.186704 0.637220 0.854063 -0.520053 0.010991 236 61 128
-0.131506 -0.036860 -0.068520 0.414270 0.183748 -0.891413 180 150 13
0.081666 0.108092 0.166373 0.840532 -0.240856 -0.485277 234 96 65
0.322211 0.202638 -0.614079 -0.176023 -0.832598 0.525164 105 21 194
0.267789 -0.178427 -0.495391 0.030786 0.613982 -0.788719 131 205 26
0.139837 -0.197320 0.617027 0.470715 0.749347 0.465731 187 223 186
0.287567 -0.200627 0.569530 -0.918650 0.391826 -0.050540 10 177 121
0.203835 -0.229853 0.570779 -0.070060 0.997249 -0.024203 118 254 124
0.134586 0.015105 0.940781 -0.385378 -0.037918 -0.921980 78 122 9
0.327615 0.122016 0.323073 -0.948094 -0.313449 -0.053545 6 87 120
-0.266029 0.169201 -0.261005 0.575213 -0.760368 -0.301613 200 30 89
0.728014 -0.012518 -0.389959 0.140377 0.078327 -0.986995 145 137 1
0.142993 0.182326 0.318713 0.663341 -0.748013 -0.021333 212 32 124
0.212621 0.229548 0.220676 -0.168289 -0.985668 0.011713 106 1 128
0.105695 -0.136231 0.324295 0.991169 0.108177 0.076694 253 141 137
-0.011292 -0.154646 -0.755683 -0.010919 0.571918 0.820238 126 200 232
-0.357048 -0.250936 -0.673657 -0.015868 0.755449 0.655015 125 223 211
-0.121666 0.244332 0.692803 -0.261493 -0.786676 0.559252 94 27 198
-0.197191 0.216684 0.827718 0.478153 -0.837155 -0.265597 188 20 93
0.346191 -0.198739 -0.607095 -0.251943 0.833578 0.491602 95 233 190
-0.014286 0.173940 -0.749973 -0.040645 -0.398022 0.916475 122 76 244
0.032547 0.241487 0.836630 -0.004715 -0.791242 -0.611485 126 26 49
-0.128870 0.076610 -0.789846 -0.022017 -0.146488 0.988967 124 108 253
-0.074894 -0.148334 -0.385083 -0.549772 0.538233 0.638793 57 196 208
0.096750 0.201431 -0.728741 -0.191203 -0.882051 0.430613 103 15 182
0.266948 0.235060 -0.583948 -0.291965 -0.849505 0.439430 90 19 183
-0.334901 -0.034293 0.709758 0.998192 0.027542 0.053420 254 131 134
0.620249 0.177048 -0.462371 0.183500 -0.797399 -0.574876 150 25 54
-0.202798 -0.239736 -0.673005 -0.132009 0.987800 0.082619 110 253 138
0.350675 0.006887 0.350301 -0.994402 -0.061906 -0.085629 0 119 116
0.012297 0.120968 -0.298813 -0.650736 -0.493262 0.577265 44 64 201
-0.023473 -0.002758 0.624908 0.055334 0.066772 0.996233 134 136 254
-0.004862 0.220526 -0.183901 -0.245673 -0.952663 0.179105 96 6 150
0.547569 -0.022670 -0.613678 -0.128264 0.228635 0.965026 111 156 250
0.692661 0.168201 -0.440648 0.195878 -0.464521 -0.863627 152 68 17
0.382303 0.109777 -0.449833 0.140394 -0.394250 -0.908216 145 77 11
0.359801 0.217517 -0.574423 -0.222507 -0.948015 0.227504 99 6 156
0.347765 0.096566 0.115272 -0.948094 -0.313449 -0.053545 6 87 120
-0.101596 0.172079 -0.571497 0.074334 -0.239997 -0.967923 136 96 4
-0.027513 -0.123585 -0.777356 -0.009768 0.566351 0.824106 126 199 232
0.180229 0.154354 -0.711637 -0.560065 -0.482009 0.673791 56 66 213
-0.324261 -0.118694 0.658491 0.987580 0.143380 0.064252 253 145 135
0.109655 -0.235509 0.028430 0.121241 0.981201 -0.150151 142 252 108
0.182429 0.222932 0.792539 -0.360434 -0.805845 -0.469788 81 24 67
0.078788 0.204641 -0.578634 0.418980 -0.811375 -0.407586 180 24 75
-0.260436 0.233562 -0.415610 0.029109 -0.990992 -0.130717 131 1 110
0.463242 0.197968 -0.495391 -0.025241 -0.755465 -0.654703 124 31 44
-0.466778 -0.235940 -0.546972 0.374177 0.785592 -0.492784 175 227 64
0.275573 -0.125264 -0.009086 -0.672854 0.436513 0.597263 41 183 203
-0.395197 0.105056 -0.339947 0.628847 -0.269972 -0.729155 207 93 34
-0.327593 0.133319 -0.781509 -0.040645 -0.398022 0.916475 122 76 244
-0.174769 0.198258 -0.743047 0.008639 -0.590607 0.806913 128 52 230
0.135514 -0.184566 0.517696 0.608828 0.793069 0.019254 205 228 129
0.071953 0.203923 0.682330 0.375845 -0.738627 0.559617 175 33 198
0.303070 -0.136523 -0.463498 0.050991 0.246936 -0.967689 134 158 4
-0.351589 0.265442 -0.591410 -0.174246 -0.983989 -0.037472 105 2 122
-0.109323 0.068277 0.957462 -0.064530 -0.107632 -0.992094 119 113 1
-0.007661 0.016773 -0.363152 -0.744778 -0.097572 0.660140 32 115 211
0.152880 -0.099231 0.925381 -0.462848 0.059542 -0.884435 68 135 14
0.248171 0.225865 0.568700 -0.220521 -0.975372 0.004519 99 3 128
-0.557888 -0.204343 -0.578281 0.639686 0.685842 -0.347022 209 214 83
0.094841 -0.240512 -0.038931 0.081925 0.994257 -0.068855 137 254 118
0.445741 -0.064918 -0.651067 -0.499595 0.263874 0.825091 63 161 232
-0.475911 0.248739 -0.575635 0.229980 -0.867182 -0.441707 156 16 71
0.161525 0.201091 0.342808 0.752605 -0.655931 -0.057802 223 43 120
-0.241430 0.184603 -0.252921 0.575213 -0.760368 -0.301613 200 30 89
-0.509579 -0.017136 -0.426829 0.411733 -0.010034 -0.911249 179 126 11
0.022110 0.132797 -0.552739 0.059756 -0.223325 -0.972911 135 99 3
0.331617 0.095059 0.410016 -0.948094 -0.313449 -0.053545 6 87 120
-0.610507 0.022247 -0.545825 0.959673 -0.251644 -0.125309 249 95 111
-0.613615 -0.101227 -0.618019 0.999075 0.037571 -0.020904 254 132 124
-0.164275 0.232915 -0.703464 0.023704 -0.823517 0.566796 130 22 199
-0.245549 0.217241 -0.722838 0.023704 -0.823517 0.566796 130 22 199
0.172306 -0.214429 0.433262 0.689891 0.723837 -0.010539 215 219 126
-0.068005 -0.045689 0.608607 -0.618219 0.140963 0.773262 48 145 226
0.294988 -0.080531 0.787972 -0.866917 0.329071 -0.374389 16 169 79
-0.232520 0.253495 -0.587702 -0.072776 -0.986708 -0.145297 118 1 108
0.100117 0.063334 0.268906 0.934061 -0.272740 -0.230527 246 92 98
0.478717 -0.061243 -0.434866 0.051662 0.249811 -0.966915 134 159 4
-0.118881 -0.256884 0.709333 -0.337588 0.679872 0.651006 84 214 210
-0.037273 -0.138113 0.940800 0.029913 0.660411 -0.750309 131 211 31
-0.066984 0.043563 -0.014281 0.617381 -0.099000 -0.780410 206 114 27
0.465931 -0.110716 -0.624195 -0.499595 0.263874 0.825091 63 161 232
0.209992 0.223593 -0.559703 0.065494 -0.843097 -0.533759 135 20 59
-0.374949 0.238853 -0.686026 0.023704 -0.823517 0.566796 130 22 199
0.007384 -0.091828 -0.328844 -0.729249 0.203396 0.653319 34 153 210
-0.455993 0.017301 -0.805914 -0.022017 -0.146488 0.988967 124 108 253
-0.368598 0.229281 -0.453801 0.300167 -0.890606 -0.341645 165 13 83
-0.435670 -0.020506 -0.359912 0.667766 -0.070858 -0.740991 212 118 33
0.069807 0.040546 -0.501304 0.386439 -0.033661 -0.921701 176 123 9
-0.543701 -0.029406 -0.442111 0.411733 -0.010034 -0.911249 179 126 11
-0.146265 0.041077 -0.078964 0.625312 -0.145399 -0.766710 207 108 29
0.790585 -0.069594 -0.517527 -0.482375 0.216577 0.848769 65 155 235
-0.228596 0.206184 -0.532383 -0.456306 -0.617455 -0.640729 69 48 45
-0.394821 0.254604 -0.542854 0.300167 -0.890606 -0.341645 165 13 83
0.164411 0.178574 0.862679 -0.449437 -0.680173 -0.579113 70 40 53
-0.116139 0.213460 -0.165058 0.513532 -0.735568 -0.441843 192 33 71
0.104305 0.182193 -0.738477 -0.075225 -0.417977 0.905338 117 74 242
0.121560 -0.178423 0.223403 0.504358 0.788593 -0.351774 191 228 82
0.265318 0.156157 0.784092 -0.871448 -0.325214 -0.367172 16 86 80
0.121965 0.233286 0.821927 -0.394821 -0.781396 -0.483256 77 27 65
-0.292429 -0.235324 -0.501917 -0.193690 0.955198 -0.223788 102 249 98
0.342059 -0.152281 -0.664073 -0.492596 0.426932 0.758339 64 181 224
0.574269 -0.174922 -0.549500 0.003238 0.963842 0.266455 127 250 161
0.191996 -0.235164 0.298124 0.689891 0.723837 -0.010539 215 219 126
0.011661 0.045223 0.620430 -0.194326 -0.149224 0.969520 102 108 251
-0.249013 0.027615 0.941353 0.436215 -0.315814 -0.842602 183 87 20
0.371507 -0.015456 0.139476 -0.991474 -0.092469 -0.091811 1 115 115
0.281610 -0.180101 -0.668455 -0.231653 0.599545 0.766083 97 203 225
-0.578018 0.160359 -0.610261 0.932978 -0.348337 -0.090628 246 83 115
-0.618133 -0.005176 -0.698805 0.999709 0.016969 -0.017171 254 129 125
-0.224686 -0.117801 0.929768 0.313002 0.469156 -0.825786 167 187 22
0.198887 -0.209322 -0.670600 -0.231653 0.599545 0.766083 97 203 225
0.851507 -0.057477 -0.399737 -0.235937 0.195319 -0.951937 97 152 6
0.351099 -0.025931 0.370417 -0.991474 -0.092469 -0.091811 1 115 115
0.228569 0.168641 0.824554 -0.449437 -0.680173 -0.579113 70 40 53
0.098966 0.125402 -0.197003 -0.663139 -0.475061 0.578414 42 66 201
0.056607 -0.077626 0.129276 0.939811 0.107828 -0.324235 247 141 86
0.329844 -0.035321 0.622722 -0.994402 -0.061906 -0.085629 0 119 116
0.174355 -0.200230 -0.686209 -0.284485 0.599661 0.747981 91 203 222
0.797709 -0.152789 -0.434397 -0.088403 0.615860 -0.782880 116 206 27
0.065410 -0.100592 0.147098 0.923682 0.126696 -0.361607 245 143 81
0.148324 0.030881 0.934390 -0.385378 -0.037918 -0.921980 78 122 9
-0.176095 0.179782 0.906819 0.322293 -0.468435 -0.822616 168 67 22
0.456938 -0.053354 -0.647986 -0.499595 0.263874 0.825091 63 161 232
0.280721 -0.197488 0.698378 -0.913372 0.400541 -0.072931 11 178 118
0.024035 -0.006491 -0.519639 0.507349 0.276970 -0.816018 192 162 23
-0.180396 -0.217126 -0.591911 -0.463855 0.570003 -0.678186 68 200 41
-0.113854 0.237088 -0.698391 -0.084372 -0.977531 0.193170 116 2 152
-0.331742 0.257059 -0.534238 -0.145419 -0.974159 -0.172821 108 3 105
0.151808 0.175576 -0.520971 0.309859 -0.449575 -0.837776 167 70 20
0.298398 -0.040180 -0.718751 -0.317176 0.033931 0.947759 87 131 248
-0.395110 0.008691 -0.805343 -0.034718 -0.059095 0.997648 123 119 254
0.026534 -0.225839 -0.026637 0.501356 0.754245 -0.423978 191 223 73
-0.249565 0.182597 -0.753709 0.008639 -0.590607 0.806913 128 52 230
0.243816 -0.229500 0.468819 -0.185203 0.982694 -0.003505 103 252 127
-0.266459 -0.010611 -0.184969 0.738107 0.110289 -0.665608 221 141 42
0.363231 -0.068490 0.135911 -0.945515 0.322043 -0.047860 6 168 121
0.024001 -0.105531 -0.780590 -0.022437 0.146184 0.989003 124 146 253
0.303303 0.002016 0.774713 -0.964872 -0.044074 -0.258997 4 121 94
0.432760 -0.168220 -0.614479 -0.251943 0.833578 0.491602 95 233 190
0.031983 -0.158114 0.652884 -0.167309 0.203450 0.964684 106 153 250
-0.159832 0.072695 -0.096026 0.625312 -0.145399 -0.766710 207 108 29
0.697321 -0.093471 -0.551973 -0.333946 0.278311 0.900568 84 162 242
-0.151432 0.181325 -0.752848 -0.040645 -0.398022 0.916475 122 76 244
-0.219191 -0.210290 0.847738 0.365192 0.848638 -0.382687 174 235 78
-0.062313 -0.062415 -0.541950 0.158331 0.103216 -0.981977 147 140 2
-0.005053 0.025389 -0.358937 -0.744778 -0.097572 0.660140 32 115 211
-0.187833 -0.150197 0.579727 -0.291043 0.314020 0.903706 90 167 242
-0.124248 -0.029979 -0.480603 -0.744302 0.007233 0.667804 32 128 212
-0.139737 -0.231766 -0.667535 -0.132009 0.987800 0.082619 110 253 138
0.298060 0.164238 0.316620 -0.799634 -0.596645 -0.067818 25 51 118
0.263787 -0.100498 0.842669 -0.866917 0.329071 -0.374389 16 169 79
0.215930 -0.110171 -0.086718 -0.743918 0.137974 0.653873 32 145 210
-0.369503 0.198356 -0.399963 0.385011 -0.795870 -0.467287 176 26 67
