ply
format ascii 1.0
element vertex 512
property float x
property float y
property float z
property float nx
property float ny
property float nz
property uchar red
property uchar green
property uchar blue
end_header
0.307371 -0.167337 0.012511 0.197829 0.610409 -0.766984 152 205 29
0.112348 0.040439 -0.176948 0.271837 -0.407011 0.872036 162 75 238
0.323367 0.005519 0.530291 -0.723245 -0.144232 0.675362 35 109 213
-0.203483 -0.056760 0.306088 0.856404 0.178734 -0.484383 236 150 65
-0.099279 -0.209459 -0.713749 -0.010261 0.803247 0.595558 126 229 203
-0.049798 -0.114710 0.518004 0.768124 0.235021 -0.595610 225 157 51
0.410728 -0.220664 -0.059078 -0.168259 0.781214 -0.601160 106 227 50
-0.102758 0.202372 -0.740338 0.029173 -0.455058 0.889984 131 69 240
-0.414124 0.146264 -0.193828 0.884181 -0.378725 -0.273480 240 79 92
0.471832 0.120592 0.885221 -0.918663 -0.393788 0.031455 10 77 131
-0.019549 0.049681 0.051715 -0.893652 -0.065936 0.443890 13 119 184
-0.365742 -0.129835 -0.678215 0.733213 0.269331 0.624387 220 161 207
-0.248279 0.105461 0.203289 0.850526 -0.344260 -0.397607 235 83 76
-0.168697 -0.155782 -0.148235 -0.721416 0.629011 0.289663 35 207 164
0.201681 -0.184748 0.863125 0.613309 0.667568 -0.422145 205 212 73
-0.179828 -0.144068 0.302627 0.714639 0.568012 -0.408232 218 199 75
-0.348206 -0.065213 -0.734979 0.588844 0.528470 0.611542 202 194 205
0.401060 -0.255352 -0.151059 -0.466147 0.856726 -0.220743 68 236 99
0.074493 0.236013 -0.663612 -0.019736 -0.938835 0.343802 124 7 171
0.149901 -0.207811 -0.528261 0.512657 0.628965 -0.584453 192 207 52
0.011735 0.053316 0.624194 0.876418 -0.242576 -0.415991 239 96 74
-0.095439 -0.209010 0.348868 0.140801 0.950491 -0.277023 145 248 92
-0.164291 -0.038120 -0.358971 -0.917121 -0.025109 -0.397817 10 124 76
-0.194530 0.189069 0.219750 0.732429 -0.515484 -0.444775 220 61 70
0.096404 -0.184638 0.719791 0.742506 0.590602 -0.316029 222 202 87
0.085972 -0.219409 -0.583468 0.049085 0.841814 -0.537531 133 234 58
-0.067154 0.156664 0.052180 -0.751011 -0.462277 0.471468 31 68 187
0.368810 0.189479 0.706142 -0.713929 -0.575478 0.398912 36 54 178
0.234202 0.244882 0.739087 0.118066 -0.985657 -0.120582 142 1 112
-0.136176 0.231965 0.093700 -0.174056 -0.931291 0.320002 105 8 168
-0.442321 -0.033522 -0.179708 0.945409 0.085359 -0.314508 248 138 87
0.243711 -0.009380 -0.801276 0.026759 0.177308 0.983792 130 150 252
0.098976 -0.015453 0.278290 -0.778250 -0.033890 0.627040 28 123 207
-0.215715 0.161754 0.216522 0.732429 -0.515484 -0.444775 220 61 70
0.083030 0.179846 -0.530978 0.280252 -0.732327 -0.620610 163 34 48
0.497773 0.022369 0.809930 -0.959996 -0.137584 0.243882 5 109 158
0.521062 -0.074790 -0.443283 -0.863750 0.050537 0.501379 17 133 191
0.040645 0.042439 0.682405 0.826953 -0.254977 -0.501133 232 94 63
0.409435 0.095700 0.050137 -0.182026 -0.117044 -0.976303 104 112 3
0.341484 0.255751 -0.141265 0.329232 -0.943035 -0.047877 169 7 121
-0.347889 -0.208810 -0.286228 0.178605 0.978932 -0.098960 150 252 114
-0.163351 0.058408 -0.185190 -0.807598 -0.173916 0.563506 24 105 199
0.077993 -0.171798 0.333259 -0.621824 0.703497 0.344134 48 217 171
0.420283 -0.048177 0.961534 -0.086777 -0.058859 -0.994488 116 119 0
0.322502 0.064917 -0.767211 -0.511301 -0.140859 0.847779 62 109 235
0.233803 -0.209098 -0.427137 0.795363 0.599445 -0.089800 228 203 116
0.157673 0.017552 -0.797869 0.015494 -0.089022 0.995909 129 116 254
0.230898 -0.114663 0.463674 -0.730150 0.236647 0.640998 34 157 209
0.213321 0.231175 0.800009 0.283893 -0.876132 -0.389613 163 15 77
0.276616 -0.246495 0.769743 0.129699 0.988454 -0.078344 144 253 117
0.398996 0.226518 -0.531146 -0.449851 -0.879692 0.154195 70 15 147
-0.127406 -0.230232 0.256053 0.087668 0.982822 -0.162403 138 252 106
-0.181435 -0.224359 -0.022704 -0.214853 0.958829 0.185701 100 249 151
0.205896 -0.202357 -0.473275 0.512657 0.628965 -0.584453 192 207 52
0.041853 -0.039277 0.200057 -0.954626 -0.047657 0.293971 5 121 164
0.161909 0.222654 -0.695073 -0.019736 -0.938835 0.343802 124 7 171
0.194209 -0.167190 -0.021133 0.236280 0.389976 -0.889995 157 177 14
0.049682 0.085065 -0.135709 0.446306 -0.493159 0.746730 184 64 222
-0.279775 0.122011 -0.742994 0.351515 -0.386121 0.852847 172 78 236
-0.191863 0.156679 -0.205576 -0.915492 -0.343777 0.209026 10 83 154
0.546291 -0.001000 -0.367121 -0.948658 -0.048719 0.312528 6 121 167
-0.413854 0.009704 -0.085437 0.934328 0.086935 -0.345650 246 138 83
-0.246898 -0.130643 0.199942 0.749003 0.518800 -0.412118 222 193 74
0.181368 0.186191 0.833125 0.639173 -0.640600 -0.425546 208 45 73
-0.445262 0.028453 -0.293509 0.998402 -0.053311 -0.018772 254 120 125
0.108995 0.188389 -0.529334 0.280252 -0.732327 -0.620610 163 34 48
0.047975 -0.018542 0.704135 0.875056 0.178382 -0.449952 239 150 70
0.003494 0.163033 0.555532 0.730330 -0.499165 -0.466318 220 63 68
0.391810 0.199531 0.859182 -0.677459 -0.733056 -0.060651 41 34 119
0.156466 0.205592 0.478907 -0.619490 -0.565352 0.544618 48 55 196
-0.396721 -0.049713 -0.054070 0.934328 0.086935 -0.345650 246 138 83
0.408026 -0.130090 -0.650838 -0.922877 0.296245 0.246041 9 165 158
-0.391869 -0.104350 -0.081946 0.838950 0.334838 -0.429006 234 170 72
0.137727 0.120841 -0.160098 0.668358 -0.287251 0.686137 212 90 214
-0.233770 -0.229963 -0.451673 -0.540452 0.639926 -0.546266 58 209 57
0.293038 0.143333 -0.763957 -0.421254 -0.258701 0.869263 73 94 238
-0.038656 0.183707 -0.751984 0.029173 -0.455058 0.889984 131 69 240
0.450982 -0.071295 0.712194 -0.810856 0.288326 0.509294 24 164 192
0.318280 0.046979 0.534720 -0.724992 -0.266897 0.634942 35 93 208
0.230919 -0.176946 0.892875 0.195735 0.624903 -0.755768 152 207 31
0.025456 -0.220322 -0.696948 -0.010261 0.803247 0.595558 126 229 203
0.330822 0.236162 0.766262 -0.442340 -0.894642 0.062857 71 13 135
0.290231 -0.197191 0.891496 0.195735 0.624903 -0.755768 152 207 31
-0.018906 -0.203539 0.267695 -0.408171 0.875842 0.257485 75 239 160
0.320917 -0.123719 -0.760956 -0.528949 0.174156 0.830591 60 149 233
0.478012 -0.183355 -0.408057 -0.724504 0.684065 0.084550 35 214 138
0.478825 -0.050388 -0.538636 -0.945601 0.067300 0.318293 6 136 168
-0.053669 -0.001435 -0.483973 -0.594846 -0.038428 -0.802921 51 122 25
0.206645 -0.109540 -0.776800 0.020797 0.457342 0.889048 130 185 240
-0.173979 0.042401 -0.231765 -0.984490 -0.153404 0.085122 1 107 138
0.484063 -0.189072 -0.315823 -0.702927 0.703685 0.103542 37 217 140
-0.393310 -0.153715 -0.312940 0.795917 0.605151 0.017591 228 204 129
0.236575 0.216257 -0.217931 0.614473 -0.785664 0.071795 205 27 136
-0.130804 0.186411 -0.036423 -0.697765 -0.600908 0.389915 38 50 177
-0.336908 0.111899 0.017443 0.836273 -0.339780 -0.430345 234 84 72
0.203300 0.199948 -0.472542 0.538577 -0.591532 -0.600021 196 52 50
0.320042 0.160194 0.917907 0.068031 -0.423195 -0.903481 136 73 12
0.093774 0.021642 0.273838 -0.778250 -0.033890 0.627040 28 123 207
0.176126 0.179425 0.474107 -0.619490 -0.565352 0.544618 48 55 196
0.148670 0.144196 -0.025896 0.292024 -0.533256 -0.793952 164 59 26
0.291773 0.025318 0.967367 0.046310 0.099443 -0.993965 133 140 0
0.495415 0.079434 -0.019278 -0.705969 -0.071463 -0.704628 37 118 37
0.292889 0.241891 -0.187123 0.244469 -0.969149 0.031386 158 3 131
-0.354627 -0.125944 -0.024684 0.886745 0.333940 -0.319637 240 170 86
0.273312 -0.015184 0.052182 0.189343 0.094269 -0.977375 151 139 2
0.391116 -0.256490 -0.437401 -0.357204 0.932084 0.060202 81 246 135
-0.387542 -0.160124 -0.353484 0.795917 0.605151 0.017591 228 204 129
-0.111469 -0.170358 0.376095 0.710633 0.501003 -0.493961 218 191 64
0.079252 -0.214153 0.630146 0.650334 0.603234 -0.461708 210 204 68
0.125753 0.078480 -0.166169 0.668358 -0.287251 0.686137 212 90 214
0.159319 -0.079065 -0.206933 0.899712 0.312202 0.305039 242 167 166
0.147990 0.180137 0.793140 0.582734 -0.632050 -0.510817 201 46 62
-0.167435 0.226033 0.177168 0.435116 -0.870610 -0.229592 182 16 98
-0.133497 0.235645 0.192605 0.308513 -0.925398 -0.220134 166 9 99
0.143694 0.172197 -0.494558 0.280252 -0.732327 -0.620610 163 34 48
0.229270 0.063709 0.441950 -0.723245 -0.144232 0.675362 35 109 213
-0.330201 0.230960 -0.557181 0.419970 -0.907461 -0.011798 181 11 125
-0.084724 -0.235536 -0.678327 -0.010261 0.803247 0.595558 126 229 203
-0.070380 -0.203168 -0.721735 -0.010261 0.803247 0.595558 126 229 203
0.279341 -0.153704 0.924633 0.195735 0.624903 -0.755768 152 207 31
0.279719 0.194526 -0.732908 -0.468969 -0.559217 0.683626 67 56 214
0.068842 -0.144642 0.693916 0.867615 0.184118 -0.461893 238 150 68
0.243055 0.205777 -0.319877 0.894311 -0.446693 -0.025943 241 70 124
-0.374337 -0.179784 -0.274578 0.795917 0.605151 0.017591 228 204 129
0.547407 -0.094481 -0.149820 -0.965532 0.106379 -0.237552 4 141 97
-0.056227 0.126998 0.492975 0.771409 -0.227254 -0.594377 225 98 51
0.284545 0.181267 -0.740445 -0.468969 -0.559217 0.683626 67 56 214
-0.106864 0.128293 -0.777620 0.010000 -0.218051 0.975886 128 99 251
-0.203303 -0.216290 -0.087606 -0.483096 0.803482 0.347902 65 229 171
0.222804 0.003857 -0.800106 0.015494 -0.089022 0.995909 129 116 254
0.464661 -0.215565 -0.169319 -0.647500 0.740117 -0.181579 44 221 104
0.233256 -0.244694 -0.609260 -0.053878 0.915909 0.397753 120 244 178
0.280610 0.206014 -0.040947 0.074744 -0.909323 -0.409323 137 11 75
-0.220023 0.184911 -0.192591 -0.628327 -0.658871 0.413636 47 43 180
0.512660 -0.150760 -0.354272 -0.859751 0.500682 0.100723 17 191 140
0.396934 -0.019770 0.052227 -0.112302 0.247616 -0.962328 113 159 4
-0.334398 0.222326 -0.608072 0.129469 -0.899101 0.418158 144 12 180
0.500082 0.019879 -0.490340 -0.945601 0.067300 0.318293 6 136 168
0.388405 0.249109 -0.425598 -0.422692 -0.903881 0.065801 73 12 135
-0.175262 -0.236831 0.156957 0.472429 0.847253 -0.242845 187 235 96
-0.048594 0.060221 0.003217 -0.835928 -0.097306 0.540144 20 115 196
-0.185995 -0.205440 0.208682 0.707686 0.568968 -0.418875 217 200 74
0.170191 0.003536 0.024224 0.225156 -0.104477 -0.968705 156 114 3
-0.368819 -0.191286 -0.423963 0.879713 0.474922 -0.023541 239 188 124
0.385166 0.147912 0.923261 -0.100218 -0.577660 -0.810102 114 53 24
-0.090814 0.109933 -0.054236 -0.896918 -0.119153 0.425841 13 112 181
0.162999 0.228760 0.531368 -0.252686 -0.927201 0.276491 95 9 162
-0.066149 -0.213821 0.381963 0.323891 0.936163 -0.136724 168 246 110
-0.429210 0.094569 -0.336592 0.944651 -0.324936 0.045285 247 86 133
-0.368279 0.209883 -0.405050 0.702701 -0.709518 -0.052869 217 37 120
-0.380331 0.191880 -0.639500 0.917991 -0.347751 0.190688 244 83 151
0.211617 0.033955 0.416691 -0.723245 -0.144232 0.675362 35 109 213
0.020669 0.081467 0.626162 0.850845 -0.261724 -0.455590 235 94 69
0.306487 -0.070222 0.533012 -0.723761 0.256069 0.640779 35 160 209
0.095023 -0.171682 -0.548413 0.100438 0.440985 -0.891877 140 183 13
-0.042800 0.160457 -0.535134 -0.143420 -0.448789 -0.882054 109 70 15
-0.234342 -0.196447 -0.192616 -0.611156 0.789979 0.049209 49 228 133
0.202605 0.029147 -0.797531 0.015494 -0.089022 0.995909 129 116 254
0.079427 0.208066 0.379296 -0.350779 -0.879968 0.320328 82 15 168
0.019917 -0.206617 0.322442 -0.369838 0.869571 0.327210 80 238 169
0.192674 0.209386 -0.728214 -0.024160 -0.692844 0.720683 124 39 219
0.194244 0.159999 -0.226258 0.906654 -0.353284 0.230584 243 82 156
-0.106109 -0.258355 -0.640474 0.070770 0.958047 0.277735 136 249 162
-0.087605 0.058564 0.478416 0.771409 -0.227254 -0.594377 225 98 51
-0.305008 0.236663 -0.560394 -0.139150 -0.990269 -0.001917 109 1 127
-0.177958 -0.011648 -0.281773 -0.968924 0.002522 0.247345 3 127 159
0.181521 0.125322 0.892309 0.605487 -0.199284 -0.770501 204 102 29
0.479694 -0.004975 -0.545657 -0.945601 0.067300 0.318293 6 136 168
-0.020453 0.235089 0.352007 0.052454 -0.997243 -0.052492 134 0 120
-0.162862 0.104972 -0.170118 -0.807598 -0.173916 0.563506 24 105 199
0.067957 0.151901 0.301646 -0.708192 -0.491601 0.506747 37 64 192
0.349358 0.062697 -0.749220 -0.723865 -0.122132 0.679046 35 111 214
0.414959 -0.192874 -0.026103 -0.265085 0.686262 -0.677329 93 214 41
0.178120 -0.159990 -0.185399 0.715318 0.269604 0.644697 218 161 209
-0.073737 0.178192 0.418349 0.730330 -0.499165 -0.466318 220 63 68
-0.206575 0.176627 -0.412403 -0.838364 -0.529556 -0.129288 20 59 111
-0.104779 0.231847 0.127170 -0.183927 -0.981743 -0.048486 104 2 121
0.052096 -0.073359 -0.509111 -0.102308 0.121848 -0.987262 114 143 1
0.501087 -0.037956 -0.481407 -0.863750 0.050537 0.501379 17 133 191
-0.429728 -0.077771 -0.166767 0.952247 0.235467 -0.194375 248 157 102
0.556589 -0.027582 -0.266004 -0.992970 0.070370 0.095178 0 136 139
0.050438 -0.046416 -0.144569 0.569645 0.003386 0.821884 200 127 232
0.373650 0.171910 0.689460 -0.713929 -0.575478 0.398912 36 54 178
0.131850 -0.236890 0.529407 -0.248313 0.931248 0.266679 95 246 161
0.310735 0.119072 0.564570 -0.619490 -0.565352 0.544618 48 55 196
0.320911 0.227209 -0.648549 -0.346300 -0.841940 0.413780 83 20 180
0.371497 0.016221 0.961980 -0.086777 -0.058859 -0.994488 116 119 0
-0.209129 0.208637 0.164118 0.435116 -0.870610 -0.229592 182 16 98
0.458330 0.118988 0.010031 -0.658263 -0.127601 -0.741894 43 111 32
0.068196 -0.036597 0.735772 0.867615 0.184118 -0.461893 238 150 68
-0.186209 -0.062164 -0.779467 0.219985 0.237326 0.946194 155 157 248
0.300836 -0.264834 -0.540243 0.143674 0.989387 -0.021724 145 253 124
-0.442552 0.053483 -0.220472 0.998402 -0.053311 -0.018772 254 120 125
-0.269196 -0.214082 -0.025458 0.532457 0.843415 -0.071700 195 235 118
0.021061 0.135146 0.596055 0.850845 -0.261724 -0.455590 235 94 69
0.345402 -0.171094 0.019330 0.197829 0.610409 -0.766984 152 205 29
-0.111318 0.213945 -0.734022 -0.024160 -0.692844 0.720683 124 39 219
-0.145739 -0.030093 -0.426031 -0.631660 0.178600 -0.754392 46 150 31
0.203358 -0.225579 -0.500492 0.512657 0.628965 -0.584453 192 207 52
-0.291887 -0.237714 -0.471077 0.178605 0.978932 -0.098960 150 252 114
-0.283925 0.225659 -0.045286 0.752534 -0.632808 -0.182336 223 46 104
-0.186622 -0.239444 -0.523848 0.099767 0.903107 -0.417665 140 242 74
0.264879 -0.127091 0.506970 -0.730150 0.236647 0.640998 34 157 209
0.175471 -0.186860 -0.073039 0.384119 0.851300 -0.357408 176 236 81
0.359881 0.174345 0.668330 -0.713929 -0.575478 0.398912 36 54 178
0.148304 0.087224 -0.184475 0.668358 -0.287251 0.686137 212 90 214
0.452882 -0.020919 0.026527 -0.664410 0.138420 -0.734438 42 145 33
0.145152 -0.059760 0.868348 0.762000 0.159144 -0.627718 224 147 47
-0.290985 -0.236980 -0.462195 0.178605 0.978932 -0.098960 150 252 114
-0.147125 -0.146032 -0.452319 -0.631660 0.178600 -0.754392 46 150 31
0.416873 -0.035498 -0.677864 -0.765389 0.134367 0.629384 29 144 207
0.251957 0.245493 -0.641486 0.022060 -0.915824 0.400973 130 10 178
0.175504 0.079617 0.899402 0.605487 -0.199284 -0.770501 204 102 29
0.164080 -0.182942 -0.738448 0.013609 0.430519 0.902479 129 182 242
-0.061594 0.068274 0.508462 0.771409 -0.227254 -0.594377 225 98 51
-0.105590 0.147452 -0.768327 0.029173 -0.455058 0.889984 131 69 240
0.081967 -0.212915 -0.573664 0.049085 0.841814 -0.537531 133 234 58
-0.155721 -0.269662 -0.588828 0.070770 0.958047 0.277735 136 249 162
-0.080638 -0.221871 0.185213 -0.600182 0.777936 0.186002 50 226 151
-0.338237 -0.201821 -0.193563 0.399024 0.899536 -0.177804 178 242 104
0.233205 -0.178799 0.523250 -0.638337 0.566223 0.521457 46 199 193
0.419576 -0.185071 -0.567037 -0.821067 0.289888 0.491746 22 164 190
0.051572 0.075583 0.224375 -0.778250 -0.033890 0.627040 28 123 207
0.274799 -0.248546 -0.166902 0.228006 0.971504 -0.064755 156 251 119
0.178159 0.054379 0.385222 -0.723245 -0.144232 0.675362 35 109 213
-0.037405 0.231615 0.310321 -0.370466 -0.870615 0.323704 80 16 168
-0.249188 0.220971 -0.323788 -0.828292 -0.543964 -0.134294 21 58 110
0.406004 0.161067 0.732687 -0.761960 -0.542086 0.354345 30 58 172
0.215530 -0.216489 -0.480033 0.512657 0.628965 -0.584453 192 207 52
0.170751 0.186868 -0.154565 0.366493 -0.888647 0.275662 174 14 162
0.522414 -0.034119 -0.444761 -0.948658 -0.048719 0.312528 6 121 167
0.457274 0.192754 -0.457020 -0.795809 -0.583463 0.162045 26 53 148
-0.076627 0.212369 0.112744 -0.696703 -0.637823 0.328309 38 46 169
0.122742 0.176520 -0.760949 0.029173 -0.455058 0.889984 131 69 240
0.185955 0.174754 -0.184506 0.668358 -0.287251 0.686137 212 90 214
0.199273 -0.225488 -0.657258 -0.050995 0.911869 0.407301 120 243 179
0.129490 -0.200362 0.438635 -0.436705 0.761733 0.478593 71 224 188
0.159228 0.226775 0.521264 -0.252686 -0.927201 0.276491 95 9 162
-0.349940 0.111770 -0.014293 0.917498 -0.197150 -0.345440 244 102 83
-0.077152 -0.187487 0.414604 0.758021 0.474530 -0.447465 224 188 70
0.014082 0.143070 0.578079 0.771409 -0.227254 -0.594377 225 98 51
-0.369516 0.200045 -0.645106 0.129469 -0.899101 0.418158 144 12 180
0.035081 -0.021889 0.677733 0.875056 0.178382 -0.449952 239 150 70
0.127576 -0.215707 -0.695904 -0.091428 0.918794 0.384004 115 244 176
0.027118 0.219139 0.350611 -0.370466 -0.870615 0.323704 80 16 168
0.162998 -0.025020 -0.259954 0.854657 -0.041963 0.517494 236 122 193
0.447485 0.227251 -0.142796 -0.562546 -0.801307 -0.203592 55 25 101
-0.204545 -0.218520 -0.084180 -0.483096 0.803482 0.347902 65 229 171
0.075330 0.120071 -0.127919 0.446306 -0.493159 0.746730 184 64 222
0.275701 -0.143959 0.537440 -0.638337 0.566223 0.521457 46 199 193
-0.028501 -0.060305 0.032333 -0.829921 0.280056 0.482493 21 163 189
0.560710 0.003496 -0.245981 -0.992970 0.070370 0.095178 0 136 139
0.048133 0.100880 0.665027 0.826953 -0.254977 -0.501133 232 94 63
0.147203 -0.202648 0.458436 -0.436705 0.761733 0.478593 71 224 188
0.074141 -0.225044 0.483912 -0.135248 0.988678 0.064985 110 253 135
0.102316 -0.191786 0.400190 -0.436705 0.761733 0.478593 71 224 188
-0.152228 0.235251 0.093494 -0.385154 -0.911299 0.145568 78 11 146
-0.373524 0.183349 -0.653874 0.551155 -0.236735 0.800116 197 97 229
0.227214 0.210434 -0.724693 -0.019736 -0.938835 0.343802 124 7 171
0.058680 0.232154 0.499325 0.081942 -0.996423 -0.020673 137 0 124
-0.194747 -0.205906 0.193262 0.707686 0.568968 -0.418875 217 200 74
-0.027008 -0.083432 0.559736 0.768124 0.235021 -0.595610 225 157 51
-0.418120 -0.106668 -0.597678 0.944188 0.329382 0.004002 247 169 128
-0.113987 -0.182431 -0.734498 0.013609 0.430519 0.902479 129 182 242
-0.046643 -0.205899 0.228100 -0.600182 0.777936 0.186002 50 226 151
0.475094 0.093526 0.777927 -0.761960 -0.542086 0.354345 30 58 172
-0.255078 -0.079570 -0.759089 0.219985 0.237326 0.946194 155 157 248
-0.006315 -0.049885 0.097048 -0.954122 0.248437 0.167126 5 159 148
0.420286 0.237759 -0.376721 -0.422692 -0.903881 0.065801 73 12 135
0.068288 0.006005 -0.157157 0.569645 0.003386 0.821884 200 127 232
-0.071799 0.147177 -0.769576 0.029173 -0.455058 0.889984 131 69 240
0.456044 0.076522 0.019363 -0.658263 -0.127601 -0.741894 43 111 32
0.321935 0.228886 0.857713 -0.048646 -0.864351 -0.500530 121 17 63
-0.022816 -0.110591 0.096532 -0.897463 0.335522 0.286329 13 170 164
0.004286 0.131281 -0.528508 -0.194321 -0.413871 -0.889354 102 74 14
0.224016 -0.162452 0.903072 0.195735 0.624903 -0.755768 152 207 31
-0.025010 -0.043271 0.029557 -0.869882 -0.058160 0.489819 16 120 189
-0.074102 0.216284 -0.592455 -0.083124 -0.928792 -0.361159 116 9 81
0.398773 -0.097607 -0.686616 -0.765389 0.134367 0.629384 29 144 207
0.002391 -0.111613 0.586531 0.768124 0.235021 -0.595610 225 157 51
0.342719 -0.199467 0.679390 -0.638365 0.564512 0.523275 46 199 194
-0.117317 -0.041631 0.453188 0.800219 0.165773 -0.576340 229 148 54
-0.451621 0.001202 -0.554294 0.998402 -0.053311 -0.018772 254 120 125
0.161546 0.041135 -0.795821 0.015494 -0.089022 0.995909 129 116 254
0.277685 -0.246442 0.700969 -0.377994 0.907899 0.181218 79 243 150
-0.402762 -0.140929 -0.325131 0.795917 0.605151 0.017591 228 204 129
-0.439047 -0.048580 -0.441241 0.944188 0.329382 0.004002 247 169 128
-0.115526 -0.179798 -0.033032 -0.543819 0.760433 0.354968 58 224 172
0.042193 0.234180 -0.670472 -0.019736 -0.938835 0.343802 124 7 171
0.498494 -0.005102 0.798625 -0.946740 -0.124371 0.297009 6 111 165
-0.138107 0.175055 -0.488960 -0.487021 -0.468461 -0.737126 65 67 33
0.420752 -0.077143 -0.658216 -0.885806 0.160435 0.435441 14 147 183
0.245879 0.169183 0.900448 0.270109 -0.411545 -0.870444 161 75 16
0.124825 -0.237554 0.526213 0.244806 0.969478 0.013516 158 251 129
0.506980 0.125810 -0.413519 -0.900252 -0.296865 0.318462 12 89 168
0.209452 0.137739 -0.306767 0.894311 -0.446693 -0.025943 241 70 124
0.177765 0.077295 -0.371094 0.945084 -0.161551 -0.284109 247 106 91
0.478452 -0.064616 0.761251 -0.898284 0.222965 0.378645 12 155 175
0.056044 0.203962 -0.575608 0.361501 -0.868478 -0.339208 173 16 84
0.309484 0.239076 -0.102920 0.112760 -0.892597 -0.436526 141 13 71
-0.301709 0.061275 0.127253 0.850526 -0.344260 -0.397607 235 83 76
0.432056 0.112218 0.713975 -0.761960 -0.542086 0.354345 30 58 172
-0.067253 0.231477 0.303616 0.303327 -0.935328 -0.182084 166 8 104
-0.188607 -0.188338 -0.726222 0.221102 0.421409 0.879505 155 181 239
0.072974 -0.209182 -0.569438 0.100438 0.440985 -0.891877 140 183 13
0.442710 -0.230084 -0.332492 -0.724504 0.684065 0.084550 35 214 138
0.156938 0.108851 -0.784667 0.010000 -0.218051 0.975886 128 99 251
-0.401088 -0.057885 -0.067930 0.934328 0.086935 -0.345650 246 138 83
0.515111 0.066412 -0.439233 -0.949398 -0.178450 0.258456 6 104 160
-0.172570 0.047329 -0.206587 -0.984490 -0.153404 0.085122 1 107 138
-0.177154 0.068155 -0.222068 -0.984490 -0.153404 0.085122 1 107 138
0.122926 -0.147712 0.354496 -0.638337 0.566223 0.521457 46 199 193
-0.385063 -0.077500 -0.047681 0.838950 0.334838 -0.429006 234 170 72
0.104314 -0.202159 -0.562436 0.100438 0.440985 -0.891877 140 183 13
0.123171 0.237367 0.623221 0.238148 -0.969845 -0.051826 157 3 120
-0.076905 0.012759 -0.467438 -0.594846 -0.038428 -0.802921 51 122 25
0.288928 -0.216408 0.875270 0.195735 0.624903 -0.755768 152 207 31
0.402151 0.052424 -0.694500 -0.759294 -0.184344 0.624092 30 103 207
0.189806 -0.081540 0.909379 0.663244 0.267054 -0.699135 212 161 38
-0.022237 -0.020984 0.591014 0.864547 0.258142 -0.431186 237 160 72
0.256717 -0.097555 -0.781733 0.017388 0.220540 0.975223 129 155 251
0.460742 0.020622 -0.590987 -0.888650 -0.171444 0.425333 14 105 181
0.147948 0.111354 0.861690 0.747836 -0.300857 -0.591799 222 89 52
0.019078 -0.112078 0.619315 0.864547 0.258142 -0.431186 237 160 72
0.259603 -0.192105 0.887769 0.195735 0.624903 -0.755768 152 207 31
0.321876 -0.232208 0.721834 -0.377994 0.907899 0.181218 79 243 150
0.261568 0.234758 -0.263897 0.234709 -0.968287 -0.085632 157 4 116
-0.158616 0.181469 -0.103991 -0.685837 -0.698413 0.204565 40 38 153
0.405985 -0.184817 0.910796 -0.074838 0.454964 -0.887359 117 185 14
0.433203 -0.046725 -0.644094 -0.885806 0.160435 0.435441 14 147 183
-0.109202 0.234499 0.231469 0.308513 -0.925398 -0.220134 166 9 99
0.274145 -0.223627 0.627749 -0.385723 0.866536 0.316754 78 237 167
-0.178943 -0.199949 -0.723088 0.221102 0.421409 0.879505 155 181 239
0.195591 -0.071868 0.918562 0.663244 0.267054 -0.699135 212 161 38
-0.105407 -0.231379 0.133226 -0.616634 0.773544 0.146261 48 226 146
0.467648 0.106530 0.905076 -0.590233 -0.433188 -0.681156 52 72 40
0.366505 0.257171 -0.209068 -0.178219 -0.983490 -0.031387 104 2 123
-0.077573 0.134541 0.459066 0.730330 -0.499165 -0.466318 220 63 68
0.012077 0.225145 -0.696872 -0.019736 -0.938835 0.343802 124 7 171
-0.411954 0.133319 -0.168886 0.884181 -0.378725 -0.273480 240 79 92
0.394556 0.122427 -0.682102 -0.689190 -0.491615 0.532289 39 64 195
0.443913 0.235049 -0.234786 -0.687899 -0.724237 0.047709 39 35 133
0.541345 0.004372 -0.092370 -0.924957 0.094167 -0.368221 9 139 80
0.235041 -0.208573 0.557828 -0.638337 0.566223 0.521457 46 199 193
0.085435 -0.082194 0.760770 0.946659 0.205868 -0.247901 248 153 95
-0.432154 0.088860 -0.318273 0.929891 -0.365487 0.041486 246 80 132
-0.294150 0.229887 -0.227712 0.153494 -0.987619 -0.032382 147 1 123
-0.001712 -0.103358 -0.517716 -0.010702 0.479524 -0.877463 126 188 15
0.412603 -0.190594 -0.022870 -0.265085 0.686262 -0.677329 93 214 41
0.204554 -0.064086 0.927090 0.457375 0.291366 -0.840187 185 164 20
0.111068 -0.190376 0.734579 0.567182 0.733511 -0.374521 199 221 79
0.027347 -0.055862 -0.064315 0.951139 0.275196 -0.140008 248 162 109
0.047209 -0.015782 -0.012467 0.665953 0.122156 -0.735924 212 143 33
-0.311523 0.237576 -0.559413 -0.139150 -0.990269 -0.001917 109 1 127
0.435978 -0.234104 -0.142601 -0.647500 0.740117 -0.181579 44 221 104
-0.106660 -0.217471 -0.703069 -0.010261 0.803247 0.595558 126 229 203
0.011170 -0.227416 0.393039 -0.132535 0.988700 0.070053 110 253 136
-0.188654 -0.238910 0.123653 0.472429 0.847253 -0.242845 187 235 96
-0.132180 -0.087503 -0.450975 -0.631660 0.178600 -0.754392 46 150 31
-0.030364 -0.000090 -0.795495 0.026759 0.177308 0.983792 130 150 252
-0.346964 -0.203482 -0.221557 0.399024 0.899536 -0.177804 178 242 104
0.092599 0.065004 -0.472710 0.537733 -0.291672 -0.791056 196 90 26
-0.197276 -0.142752 -0.364382 -0.911828 0.359234 -0.198798 11 173 102
0.018962 -0.041609 -0.093265 0.951139 0.275196 -0.140008 248 162 109
0.062392 -0.126188 -0.054629 0.367382 0.547052 -0.752173 174 197 31
0.098764 -0.076036 0.288301 -0.827793 0.241290 0.506496 21 158 192
0.107278 -0.057886 0.821936 0.772209 0.156839 -0.615707 225 147 48
0.099140 -0.167364 0.358421 -0.436705 0.761733 0.478593 71 224 188
0.439241 -0.200993 -0.469781 -0.767633 0.526605 0.365278 29 194 174
-0.177211 -0.090618 0.340043 0.856404 0.178734 -0.484383 236 150 65
0.413728 0.086711 -0.670287 -0.759294 -0.184344 0.624092 30 103 207
0.182894 0.187290 0.489970 -0.619490 -0.565352 0.544618 48 55 196
0.253689 0.234946 0.634993 -0.252686 -0.927201 0.276491 95 9 162
-0.194220 -0.156540 -0.204606 -0.951499 0.282579 0.121651 6 163 143
0.479621 -0.161198 -0.442293 -0.767633 0.526605 0.365278 29 194 174
0.076441 -0.086988 -0.142410 0.258940 0.387664 0.884684 160 176 240
-0.067871 -0.240768 -0.670980 -0.010261 0.803247 0.595558 126 229 203
-0.031977 -0.158734 0.124231 -0.897463 0.335522 0.286329 13 170 164
0.152395 -0.215965 0.747050 0.567182 0.733511 -0.374521 199 221 79
-0.353415 -0.216277 -0.370065 0.178605 0.978932 -0.098960 150 252 114
0.152890 -0.050409 -0.217299 0.899712 0.312202 0.305039 242 167 166
0.305275 0.255638 -0.380199 0.234709 -0.968287 -0.085632 157 4 116
0.208201 -0.159621 -0.751074 0.020797 0.457342 0.889048 130 185 240
-0.248764 -0.215130 0.064042 -0.040505 0.998266 -0.042723 122 254 122
0.435034 -0.003444 0.956204 -0.184597 -0.062461 -0.980828 103 119 2
0.560246 -0.042124 -0.217094 -0.992970 0.070370 0.095178 0 136 139
-0.047393 0.163714 -0.536045 -0.143420 -0.448789 -0.882054 109 70 15
-0.411211 -0.004675 -0.712539 0.399574 0.067567 0.914207 178 136 244
-0.206411 0.148018 -0.283538 -0.915492 -0.343777 0.209026 10 83 154
-0.416115 -0.116332 -0.567152 0.795917 0.605151 0.017591 228 204 129
0.196139 0.168657 -0.220446 0.906654 -0.353284 0.230584 243 82 156
-0.120326 -0.031923 0.451803 0.800219 0.165773 -0.576340 229 148 54
0.515091 0.045269 -0.453906 -0.949398 -0.178450 0.258456 6 104 160
0.354970 -0.141617 0.631927 -0.638365 0.564512 0.523275 46 199 194
0.486001 -0.078465 -0.014329 -0.666133 0.140189 -0.732540 42 145 34
0.301440 -0.069058 0.958375 0.046310 0.099443 -0.993965 133 140 0
-0.289266 0.097108 0.122845 0.850526 -0.344260 -0.397607 235 83 76
0.564764 0.081212 -0.195963 -0.926467 -0.329028 -0.182753 9 85 104
0.091538 -0.066471 -0.004257 0.236280 0.389976 -0.889995 157 177 14
-0.401930 -0.138655 -0.440989 0.795917 0.605151 0.017591 228 204 129
-0.371998 -0.045928 0.005245 0.883825 0.028427 -0.466953 240 131 67
0.072487 -0.061173 -0.007006 0.307481 0.095291 -0.946771 166 139 6
0.019290 0.113833 -0.782144 0.010000 -0.218051 0.975886 128 99 251
-0.130442 -0.089763 -0.776592 0.017388 0.220540 0.975223 129 155 251
0.070000 -0.024906 0.241816 -0.778250 -0.033890 0.627040 28 123 207
-0.256895 0.210941 0.078828 0.427244 -0.840807 -0.332424 181 20 85
0.406373 0.190943 0.790765 -0.795804 -0.595067 0.112207 26 51 141
0.015677 -0.051191 0.636483 0.806630 0.159742 -0.569062 230 147 54
-0.323620 0.106916 0.047198 0.836273 -0.339780 -0.430345 234 84 72
0.076658 -0.168194 0.323479 -0.621824 0.703497 0.344134 48 217 171
0.269058 -0.230907 -0.352896 0.470375 0.859854 -0.198490 187 237 102
-0.428144 0.089804 -0.166160 0.884844 -0.298830 -0.357425 240 89 81
0.473017 -0.148953 -0.022769 -0.540557 0.594034 -0.595752 58 203 51
0.222778 0.168146 0.515464 -0.619490 -0.565352 0.544618 48 55 196
-0.171625 -0.192453 -0.077776 -0.529103 0.656960 0.537080 60 211 195
0.239754 0.049474 0.946834 0.478815 -0.226035 -0.848318 188 98 19
-0.252737 0.223451 0.052530 0.427244 -0.840807 -0.332424 181 20 85
-0.122255 -0.013493 -0.437145 -0.431596 0.235354 -0.870823 72 157 16
0.371461 -0.185805 -0.651720 -0.704961 0.518804 0.483604 37 193 189
-0.101359 -0.211044 -0.711646 -0.010261 0.803247 0.595558 126 229 203
0.110546 -0.211101 -0.707919 -0.010261 0.803247 0.595558 126 229 203
0.230623 0.002286 -0.800368 0.015494 -0.089022 0.995909 129 116 254
-0.140231 -0.050672 -0.435515 -0.631660 0.178600 -0.754392 46 150 31
0.348390 0.188586 -0.678834 -0.533799 -0.595663 0.600204 59 51 204
-0.352117 -0.171501 -0.095454 0.796851 0.583647 -0.156157 229 201 107
-0.342380 -0.086482 0.050520 0.886745 0.333940 -0.319637 240 170 86
0.446509 0.106009 0.923726 -0.590233 -0.433188 -0.681156 52 72 40
-0.279191 0.205123 0.029918 0.758207 -0.591900 -0.273454 224 52 92
-0.251773 0.215982 0.072659 0.427244 -0.840807 -0.332424 181 20 85
0.257444 -0.088617 0.042025 0.189343 0.094269 -0.977375 151 139 2
-0.178418 0.051898 -0.265986 -0.984490 -0.153404 0.085122 1 107 138
0.186168 0.028900 0.920899 0.605487 -0.199284 -0.770501 204 102 29
0.491337 0.180597 -0.325294 -0.793124 -0.592400 0.141483 26 51 145
-0.219327 -0.075102 0.274244 0.836804 0.175828 -0.518502 234 149 61
0.514305 0.030985 -0.459225 -0.948658 -0.048719 0.312528 6 121 167
0.109422 0.235157 0.601394 0.238148 -0.969845 -0.051826 157 3 120
-0.082289 0.008435 0.501787 0.794072 -0.185021 -0.578980 228 103 53
-0.442331 -0.038322 -0.510771 0.944188 0.329382 0.004002 247 169 128
0.551509 -0.008586 -0.333044 -0.992970 0.070370 0.095178 0 136 139
-0.122754 0.147764 0.375015 0.719077 -0.498793 -0.483874 219 63 65
0.069435 -0.222168 0.425823 0.244806 0.969478 0.013516 158 251 129
-0.060843 0.215592 -0.593726 -0.083124 -0.928792 -0.361159 116 9 81
0.066794 0.128800 0.277609 -0.708192 -0.491601 0.506747 37 64 192
0.043776 0.047981 -0.140018 0.718161 0.007691 0.695834 219 128 216
0.241812 0.010767 0.444075 -0.723245 -0.144232 0.675362 35 109 213
0.446136 -0.121139 0.740027 -0.634772 0.655223 0.409571 46 211 179
-0.229424 -0.209216 -0.140216 -0.483096 0.803482 0.347902 65 229 171
0.328278 0.154383 0.921249 0.068031 -0.423195 -0.903481 136 73 12
-0.245473 0.228021 -0.417948 -0.139150 -0.990269 -0.001917 109 1 127
0.411064 0.131585 0.698463 -0.761960 -0.542086 0.354345 30 58 172
-0.390282 -0.157729 -0.311872 0.795917 0.605151 0.017591 228 204 129
0.261685 -0.183103 0.895752 0.195735 0.624903 -0.755768 152 207 31
0.159189 -0.199901 0.465001 -0.436705 0.761733 0.478593 71 224 188
0.477176 -0.077991 0.766098 -0.898284 0.222965 0.378645 12 155 175
0.477568 0.106305 0.873863 -0.918663 -0.393788 0.031455 10 77 131
-0.210374 -0.156143 -0.328502 -0.911828 0.359234 -0.198798 11 173 102
-0.367356 0.206419 -0.624120 0.402220 -0.899232 0.172051 178 12 149
0.077125 -0.093655 -0.139689 0.258940 0.387664 0.884684 160 176 240
-0.085024 -0.062926 0.491900 0.800219 0.165773 -0.576340 229 148 54
0.137481 -0.169001 0.798356 0.562514 0.673556 -0.479479 199 213 66
0.555106 -0.067229 -0.168910 -0.965532 0.106379 -0.237552 4 141 97
0.265658 -0.024084 0.049840 0.189343 0.094269 -0.977375 151 139 2
0.019329 -0.058130 0.639713 0.806630 0.159742 -0.569062 230 147 54
0.340451 0.161499 0.636634 -0.630135 -0.480985 0.609576 47 66 205
0.040869 -0.080912 -0.049322 0.824839 0.304912 -0.476097 232 166 66
0.012015 0.018035 -0.056021 0.980648 -0.175431 0.086912 252 105 138
0.324485 0.263563 -0.518638 -0.488184 -0.847627 0.207857 65 19 154
0.448190 -0.149269 0.901205 -0.592688 0.414126 -0.690811 51 180 39
-0.177206 -0.027356 0.363396 0.856404 0.178734 -0.484383 236 150 65
-0.308022 0.192191 -0.028588 0.752534 -0.632808 -0.182336 223 46 104
0.539966 -0.016754 -0.094309 -0.924957 0.094167 -0.368221 9 139 80
0.392994 -0.048619 0.963942 -0.086777 -0.058859 -0.994488 116 119 0
0.175239 -0.067456 0.017532 0.236280 0.389976 -0.889995 157 177 14
-0.001450 0.190809 0.235252 -0.749797 -0.460319 0.475300 31 68 188
-0.406707 0.136010 -0.533006 0.967012 -0.251498 0.040456 250 95 132
0.176570 -0.197297 -0.493553 0.512657 0.628965 -0.584453 192 207 52
0.500148 -0.048099 0.803267 -0.911148 0.391543 0.128464 11 177 143
-0.188929 0.192925 -0.460146 -0.546278 -0.659556 -0.516301 57 43 61
-0.057579 0.024042 -0.793940 0.015494 -0.089022 0.995909 129 116 254
0.263871 0.053924 0.476914 -0.723245 -0.144232 0.675362 35 109 213
-0.427838 0.092002 -0.387342 0.929891 -0.365487 0.041486 246 80 132
-0.222641 -0.240753 -0.507703 -0.166617 0.977620 -0.128445 106 252 111
0.174215 -0.051308 -0.383764 0.970472 0.185795 -0.153832 251 151 107
0.403720 0.248940 -0.329538 -0.422692 -0.903881 0.065801 73 12 135
-0.154475 -0.046509 -0.422603 -0.631660 0.178600 -0.754392 46 150 31
0.240897 0.219238 -0.443650 0.685945 -0.669770 -0.284407 214 42 91
0.010657 -0.227855 0.398259 -0.132535 0.988700 0.070053 110 253 136
0.155033 -0.244686 0.578220 -0.248313 0.931248 0.266679 95 246 161
0.127514 -0.061812 -0.170305 0.715318 0.269604 0.644697 218 161 209
0.469255 -0.185768 -0.428655 -0.767633 0.526605 0.365278 29 194 174
0.019855 0.147332 0.226753 -0.749797 -0.460319 0.475300 31 68 188
0.149559 -0.063306 -0.194273 0.899712 0.312202 0.305039 242 167 166
0.540397 0.102251 -0.113369 -0.919886 -0.339929 -0.195596 10 84 102
0.169352 0.234841 0.557567 -0.252686 -0.927201 0.276491 95 9 162
-0.024490 0.209641 0.448110 0.526777 -0.738797 -0.420339 194 33 73
0.058672 0.011315 0.727989 0.826953 -0.254977 -0.501133 232 94 63
-0.424068 -0.092575 -0.481731 0.973933 0.225239 0.026871 251 156 130
0.036349 0.106182 -0.072664 0.755143 -0.399937 -0.519432 223 76 61
0.552700 -0.022520 -0.309884 -0.989934 0.093141 0.106560 1 139 141
-0.139674 -0.101169 -0.447936 -0.631660 0.178600 -0.754392 46 150 31
0.526210 -0.143644 -0.273989 -0.859751 0.500682 0.100723 17 191 140
0.386055 0.208928 -0.033827 -0.021201 -0.896404 -0.442730 124 13 71
-0.362291 -0.205126 -0.459237 0.879713 0.474922 -0.023541 239 188 124
0.126184 0.103493 -0.785549 0.010000 -0.218051 0.975886 128 99 251
0.260334 0.243696 -0.377148 0.894311 -0.446693 -0.025943 241 70 124
-0.046986 -0.081755 0.012988 -0.829921 0.280056 0.482493 21 163 189
0.300838 -0.060803 -0.782103 -0.382726 0.074714 0.920836 78 137 244
-0.422231 0.076418 -0.140330 0.884844 -0.298830 -0.357425 240 89 81
-0.171074 -0.012577 -0.254799 -0.968924 0.002522 0.247345 3 127 159
-0.393998 0.014093 -0.054016 0.830772 -0.197848 -0.520264 233 102 61
0.424238 -0.124445 0.711377 -0.634772 0.655223 0.409571 46 211 179
0.070839 0.004067 -0.484202 0.601089 0.193855 -0.775314 204 152 28
