ply
format ascii 1.0
element vertex 1024
property float x
property float y
property float z
property float nx
property float ny
property float nz
property uchar red
property uchar green
property uchar blue
end_header
-0.528812 0.101633 -0.766726 0.882193 -0.346001 0.319403 239 83 168
-0.356952 0.016365 -0.468797 -0.676154 -0.141776 -0.722991 41 109 35
-0.154518 0.101119 -0.664267 -0.414280 -0.432652 -0.800740 74 72 25
-0.401198 0.100015 -0.447084 -0.677269 -0.367707 -0.637258 41 80 46
-0.166795 -0.056457 -0.633741 -0.514935 0.053064 -0.855585 61 134 18
-0.507143 -0.110901 0.371897 0.957852 0.227211 -0.175770 249 156 105
0.715238 -0.150063 0.486374 -0.242757 0.405036 0.881485 96 179 239
-0.201947 -0.266290 -0.833799 0.237980 0.842294 0.483638 157 234 189
0.052297 -0.165873 0.648852 0.017580 0.468175 -0.883461 129 187 14
-0.072707 -0.120795 -0.700081 -0.324252 0.262300 -0.908878 86 160 11
-0.371696 -0.184311 0.130230 0.347148 0.618357 0.705069 171 206 217
-0.294236 0.187952 -0.623965 -0.602042 -0.495825 -0.625861 50 64 47
-0.409696 -0.194184 0.157599 0.347148 0.618357 0.705069 171 206 217
0.260326 -0.117995 -0.350886 0.836454 0.521363 0.168896 234 193 149
0.140689 0.184161 0.049081 0.342540 -0.665216 0.663441 171 42 212
-0.459306 0.214316 -0.510488 -0.416064 -0.789552 -0.451108 74 26 69
0.052431 -0.125022 0.070132 0.177094 0.291592 0.940006 150 164 247
0.161939 0.145735 -0.028575 0.768004 -0.227756 0.598579 225 98 203
-0.304483 -0.007726 0.060997 -0.156817 0.065365 0.985462 107 135 253
0.297139 0.108886 0.365411 -0.101714 -0.511874 0.853018 114 62 236
0.453306 -0.130056 -0.342304 -0.805340 0.475921 -0.353451 24 188 82
0.415344 0.051318 -0.036446 -0.896750 -0.295167 -0.329723 13 89 85
-0.211111 -0.084374 -1.000074 0.501525 0.358041 0.787578 191 173 227
0.565054 -0.197603 0.637803 0.020942 0.848298 -0.529105 130 235 60
0.217395 -0.206444 -0.762412 -0.015388 0.680313 -0.732760 125 214 34
0.228310 -0.107445 0.686500 0.011677 0.525042 -0.850996 128 194 18
0.174495 0.173448 0.349300 -0.415723 -0.638556 0.647627 74 46 210
0.189014 -0.199381 0.193233 -0.749914 0.501412 -0.431527 31 191 72
0.289893 -0.072418 -1.050792 0.005603 0.295544 0.955313 128 165 249
-0.454932 -0.211977 -0.561122 0.051700 0.971068 -0.233139 134 251 97
0.259114 0.001081 -0.581286 0.997376 -0.020535 0.069427 254 124 136
0.342606 0.261584 0.502511 -0.101141 -0.723762 0.682597 114 35 214
-0.312376 -0.224147 -0.637499 -0.297830 0.829865 -0.471828 89 233 67
0.195185 0.063558 -0.723207 0.735551 -0.125977 -0.665654 221 111 42
0.221428 -0.098577 -0.233187 0.706018 0.647738 0.286311 217 210 164
-0.503887 -0.051946 -0.339353 -0.432352 0.313338 -0.845513 72 167 19
0.150616 0.023102 0.709332 0.000333 -0.294430 -0.955673 127 89 5
0.348827 -0.219989 -0.707075 0.889317 0.453086 0.061874 240 185 135
0.336482 0.206712 -0.142067 -0.704038 -0.679687 -0.205806 37 40 101
0.419376 0.118730 -0.162921 -0.924492 -0.350456 -0.149985 9 82 108
0.119519 -0.256391 -0.936924 0.030432 0.917977 0.395464 131 244 177
0.209862 -0.053012 -0.711312 0.740193 0.343316 -0.578143 221 171 53
-0.245485 -0.313007 0.434424 0.166318 0.969833 -0.178222 148 251 104
0.365379 -0.222400 0.593709 -0.016959 0.558802 -0.829128 125 198 21
0.181093 0.191964 0.187945 -0.545933 -0.694198 -0.469091 57 38 67
0.192446 -0.211938 -0.766989 -0.015388 0.680313 -0.732760 125 214 34
0.738491 0.094325 0.448945 -0.389575 -0.353389 0.850498 77 82 235
-0.083772 -0.292691 0.260289 -0.049654 0.924251 0.378543 121 245 175
-0.290472 0.302281 0.323006 0.455393 -0.890042 -0.021030 185 14 124
0.279665 0.120050 -0.643825 0.828317 -0.557537 0.055155 233 56 134
0.006813 0.026285 0.053162 0.209530 -0.178864 0.961304 154 104 250
-0.095470 0.141826 -1.012511 0.236022 -0.470237 0.850394 157 67 235
0.214911 0.096578 0.268159 -0.792725 -0.282354 -0.540243 26 91 58
0.106426 -0.201300 0.082916 0.239330 0.703576 0.669106 158 217 212
-0.235638 -0.124224 0.094395 -0.049134 0.470405 0.881082 121 187 239
0.149182 -0.204813 0.068559 0.321837 0.703090 0.634102 168 217 208
0.256588 0.004406 -0.544023 0.997376 -0.020535 0.069427 254 124 136
0.647070 0.241684 0.560917 -0.002627 -0.847051 -0.531505 127 19 59
0.235294 -0.025795 0.266934 -0.805722 0.145694 -0.574095 24 146 54
-0.531609 0.195648 -0.601960 0.685720 -0.670313 0.283670 214 42 163
0.196097 0.088879 -0.726990 0.735551 -0.125977 -0.665654 221 111 42
0.307997 -0.263885 0.557680 -0.060276 0.977872 0.200333 119 252 153
-0.355028 0.019574 -0.948586 0.539715 -0.073252 0.838655 196 118 234
-0.147289 0.083201 -1.013660 0.325768 -0.228213 0.917493 169 98 244
0.471174 0.017522 -0.932216 -0.922057 -0.099931 0.373932 9 114 175
0.186045 0.164782 -1.009058 0.024618 -0.563757 0.825574 130 55 232
0.485424 0.144052 -0.457974 -0.769427 -0.634225 -0.075775 29 46 117
-0.155329 -0.201391 -0.955679 0.254303 0.657411 0.709324 159 211 217
-0.221762 -0.061550 0.706899 -0.008797 0.052045 -0.998606 126 134 0
-0.096872 0.273310 0.209607 0.008262 -0.825408 0.564476 128 22 199
0.471787 0.002366 -0.934754 -0.922057 -0.099931 0.373932 9 114 175
0.016694 0.174002 -0.761307 0.025247 -0.495723 -0.868114 130 64 16
-0.232764 0.216760 -0.897929 0.284704 -0.699461 0.655513 163 38 211
-0.387602 -0.041495 -0.926483 0.487098 0.111350 0.866219 189 141 237
0.225877 -0.082140 -0.271692 0.975218 0.103012 0.195805 251 140 152
0.261645 0.158523 0.390965 -0.101714 -0.511874 0.853018 114 62 236
0.288364 -0.254798 -0.923915 -0.337448 0.935493 0.104793 84 246 140
-0.336918 -0.294340 0.374763 0.573640 0.775379 -0.264053 200 226 93
-0.205101 -0.164972 -0.651180 -0.440158 0.494094 -0.749754 71 190 31
0.252151 0.280945 0.549179 -0.057394 -0.944912 0.322255 120 7 168
-0.140167 0.283326 0.224887 0.008262 -0.825408 0.564476 128 22 199
0.425882 0.212755 -0.517257 -0.206517 -0.972188 -0.110459 101 3 113
0.407487 -0.174782 -0.298744 -0.675481 0.707325 -0.208366 41 217 100
0.870037 0.091144 0.535938 -0.740850 -0.494591 0.454445 33 64 185
0.252173 0.025675 -0.445548 0.962329 -0.270068 -0.031418 250 93 123
0.445276 -0.140367 0.431095 -0.213896 0.413606 0.884974 100 180 240
-0.109389 0.107470 -1.021080 0.325768 -0.228213 0.917493 169 98 244
0.393233 0.137179 -1.015799 -0.325302 -0.669428 0.667866 86 42 212
0.302003 0.093417 0.356709 -0.101714 -0.511874 0.853018 114 62 236
-0.121451 -0.204701 -0.964758 0.254303 0.657411 0.709324 159 211 217
-0.175299 0.305077 0.497376 0.195709 -0.815663 -0.544418 152 23 58
0.272522 -0.048135 0.209016 -0.805722 0.145694 -0.574095 24 146 54
0.208027 0.003995 -0.244129 0.941530 0.108501 0.318981 247 141 168
0.398203 -0.055826 -0.002476 -0.920763 0.283778 -0.267706 10 163 93
-0.424948 0.122272 -0.865729 0.442041 -0.543852 0.713319 183 58 218
0.056266 0.006361 0.710921 -0.016541 0.128095 -0.991624 125 143 1
-0.532875 0.120246 -0.378118 0.755934 -0.403924 -0.515179 223 75 61
0.866453 -0.067149 0.581471 -0.965441 0.258708 -0.031537 4 160 123
0.351198 0.204949 -0.958858 -0.439591 -0.780037 0.445312 71 28 184
-0.305936 -0.070811 0.067144 0.022961 0.341944 0.939440 130 171 247
0.020111 -0.299452 0.455913 -0.230922 0.972972 0.000756 98 251 127
0.394552 0.164500 -0.986916 -0.439591 -0.780037 0.445312 71 28 184
0.307696 -0.194099 0.014783 -0.754795 0.602387 -0.259643 31 204 94
0.334008 -0.192012 -0.057979 -0.774426 0.625102 -0.097529 28 207 115
-0.033067 -0.184291 0.635471 0.020942 0.848298 -0.529105 130 235 60
-0.495928 -0.153004 0.359004 0.698307 0.661406 -0.273695 216 211 92
0.335398 0.181273 -0.054345 -0.704038 -0.679687 -0.205806 37 40 101
0.441830 -0.158352 -0.923758 -0.660273 0.711630 0.240044 43 218 158
-0.307634 -0.289179 0.437836 0.478671 0.820085 -0.313584 188 232 87
-0.127417 -0.088966 0.085675 -0.026217 0.133717 0.990673 124 144 253
0.078566 0.095691 0.041021 0.463842 -0.165004 0.870416 186 106 238
-0.428046 -0.167087 -0.490341 -0.531117 0.491156 -0.690421 59 190 39
0.274143 0.111963 -0.514326 0.962329 -0.270068 -0.031418 250 93 123
-0.455438 -0.156511 0.159389 0.644388 0.609305 0.462073 209 205 186
0.263298 -0.258234 -0.940839 0.010241 0.847668 0.530428 128 235 195
0.209954 0.086414 -1.052797 0.034890 -0.285453 0.957757 131 91 249
0.457576 -0.000696 -0.970615 -0.922057 -0.099931 0.373932 9 114 175
0.509314 -0.193856 0.641604 0.020942 0.848298 -0.529105 130 235 60
0.289670 0.161422 -0.683160 0.677083 -0.519710 -0.521018 213 61 61
0.540719 0.240399 0.581995 -0.087175 -0.895052 -0.437359 116 13 71
0.323300 -0.221064 0.456859 -0.132113 0.687494 0.714071 110 215 218
-0.513021 0.040936 -0.334060 -0.466444 -0.234143 -0.852999 68 97 18
0.181716 -0.070890 -0.117137 0.936399 0.250287 0.245997 246 159 158
-0.417758 0.093460 0.573801 0.817078 -0.072759 -0.571917 231 118 54
-0.331839 -0.257639 -0.772033 0.264488 0.945444 0.190214 161 248 151
-0.548118 0.172512 -0.499419 0.613263 -0.783377 -0.101140 205 27 114
0.126544 -0.172927 0.044694 0.321837 0.703090 0.634102 168 217 208
-0.277975 0.190031 0.124583 -0.078855 -0.595243 0.799667 117 51 229
0.225054 0.248952 0.593261 0.006760 -0.645757 -0.763513 128 45 30
0.163676 -0.223251 0.125306 -0.226328 0.951787 0.207067 98 248 153
0.404171 0.222322 -0.870724 -0.255363 -0.959524 0.118756 94 5 142
0.119059 0.271311 0.573412 0.006760 -0.645757 -0.763513 128 45 30
-0.471393 -0.208405 -0.549891 0.051700 0.971068 -0.233139 134 251 97
-0.512308 -0.108021 -0.355827 -0.432352 0.313338 -0.845513 72 167 19
0.269222 -0.266168 0.515231 -0.092471 0.970301 0.223529 115 251 155
-0.403650 0.152532 0.114448 0.247633 -0.642798 0.724906 159 45 219
0.162242 0.219446 0.126685 -0.104959 -0.990785 0.085605 114 1 138
0.298393 -0.148457 -1.022272 0.020801 0.471972 0.881368 130 187 239
-0.208385 0.215809 -0.714073 -0.245589 -0.811152 -0.530772 96 24 59
0.661496 -0.067491 0.437491 -0.122451 0.398563 0.908930 111 178 243
0.229163 -0.175621 -0.058724 0.629703 0.767085 0.122695 207 225 143
-0.066468 -0.227054 -0.963753 0.254303 0.657411 0.709324 159 211 217
-0.483236 -0.149038 0.400970 0.698307 0.661406 -0.273695 216 211 92
-0.510867 0.063037 0.315584 0.976624 -0.161392 -0.141978 252 106 109
-0.145384 -0.237059 -0.912492 0.237401 0.841496 0.485310 157 234 189
0.258214 -0.140951 0.666239 0.011677 0.525042 -0.850996 128 194 18
0.440984 -0.025879 -1.004232 -0.876889 0.152487 0.455866 15 146 185
0.104106 -0.237441 0.286322 -0.519583 0.847162 0.111135 61 235 141
-0.234013 -0.084436 -0.985525 0.351877 0.412496 0.840255 172 180 234
-0.020871 0.302254 0.313655 -0.294970 -0.935531 0.194355 89 8 152
-0.094250 -0.306383 0.292010 -0.049644 0.922417 0.382991 121 245 176
0.371379 -0.046301 0.362436 -0.190944 0.043192 0.980650 103 133 252
-0.272373 -0.083955 0.071163 -0.156817 0.065365 0.985462 107 135 253
-0.453924 0.060047 -0.881407 0.539715 -0.073252 0.838655 196 118 234
0.130498 0.254663 -0.858506 0.018652 -0.973625 -0.227392 129 3 98
-0.223908 -0.240092 -0.868619 0.237980 0.842294 0.483638 157 234 189
0.674987 -0.230151 0.543642 -0.175678 0.794156 0.581767 105 228 201
-0.170743 -0.320832 0.470312 0.087764 0.920958 -0.379649 138 244 79
-0.496103 0.133676 -0.374181 -0.625058 -0.586796 -0.514756 47 52 61
0.503324 0.108778 -0.473370 -0.939202 -0.343348 0.003385 7 83 127
-0.575874 0.052857 -0.470545 0.966960 -0.166253 -0.193258 250 106 102
-0.218377 0.035778 0.069005 -0.242404 -0.180285 0.953277 96 104 249
0.272919 -0.176323 -0.203238 0.833290 0.541072 0.113437 233 196 141
0.361512 -0.203209 -0.295908 -0.524180 0.849290 -0.062775 60 235 119
-0.228614 0.107268 -0.629255 -0.414280 -0.432652 -0.800740 74 72 25
0.202689 0.206429 0.026255 0.510324 -0.805611 0.300932 192 24 165
-0.230696 0.230063 0.159043 -0.078855 -0.595243 0.799667 117 51 229
0.170067 -0.119758 -1.034634 0.012299 0.324492 0.945808 129 168 248
-0.438381 -0.192815 0.409620 0.698307 0.661406 -0.273695 216 211 92
0.330863 -0.070434 0.112567 -0.768146 0.247648 -0.590443 29 159 52
-0.059587 -0.311203 0.308113 -0.049644 0.922417 0.382991 121 245 176
-0.271719 0.033162 -0.981183 0.337464 -0.228117 0.913280 170 98 243
-0.514515 -0.100175 0.284519 0.968821 0.247758 0.001672 251 159 127
-0.125852 -0.303248 0.523346 0.087764 0.920958 -0.379649 138 244 79
-0.213520 0.169249 0.115470 -0.078855 -0.595243 0.799667 117 51 229
0.455510 0.069769 0.701750 0.007575 0.029582 -0.999534 128 131 0
-0.141972 0.197717 -0.963088 0.347647 -0.709246 0.613279 171 37 205
-0.234337 0.257819 -0.821921 0.194366 -0.948013 0.251978 152 6 159
0.442817 -0.001833 -1.007312 -0.922057 -0.099931 0.373932 9 114 175
0.267674 -0.034792 0.341736 -0.190944 0.043192 0.980650 103 133 252
-0.323065 0.246857 0.527184 0.571585 -0.797890 -0.191474 200 25 103
-0.052763 -0.060735 -1.051986 0.012299 0.324492 0.945808 129 168 248
-0.319432 0.289858 0.342073 0.386713 -0.922076 0.015131 176 9 129
0.224243 0.076060 0.313971 -0.922667 -0.169743 0.346226 9 105 171
-0.057770 0.080579 0.697509 0.036277 -0.458299 -0.888058 132 69 14
-0.463763 0.168808 0.173619 0.596529 -0.571653 0.563352 203 54 199
0.373773 0.250068 0.494920 -0.101141 -0.723762 0.682597 114 35 214
-0.222213 -0.163591 -0.640224 -0.440158 0.494094 -0.749754 71 190 31
0.405458 0.104173 0.702389 0.007575 0.029582 -0.999534 128 131 0
0.241933 0.252264 0.477713 -0.101141 -0.723762 0.682597 114 35 214
0.213744 0.137914 -0.716771 0.735551 -0.125977 -0.665654 221 111 42
0.484440 -0.120611 -0.878370 -0.862507 0.403972 0.304776 17 179 166
0.355816 0.038943 0.704523 0.000333 -0.294430 -0.955673 127 89 5
0.249173 0.263634 0.581057 0.006760 -0.645757 -0.763513 128 45 30
-0.364382 -0.195208 0.558184 0.455355 0.495603 -0.739615 185 190 33
-0.367498 0.238773 0.439438 0.554222 -0.793586 -0.251117 198 26 95
0.501001 -0.060475 -0.357290 -0.805340 0.475921 -0.353451 24 188 82
0.210958 0.156741 -0.731507 0.359926 -0.620575 -0.696663 173 48 38
-0.209601 -0.243328 -0.870023 0.237980 0.842294 0.483638 157 234 189
0.202584 -0.027553 0.704932 -0.008797 0.052045 -0.998606 126 134 0
0.148614 0.049832 -0.717950 -0.063181 -0.257698 -0.964158 119 94 4
-0.306938 0.010039 0.059428 -0.156817 0.065365 0.985462 107 135 253
0.301926 0.192483 -0.993597 0.024618 -0.563757 0.825574 130 55 232
-0.160837 -0.149128 -1.002144 0.254303 0.657411 0.709324 159 211 217
0.493715 0.143241 -0.607332 -0.966397 -0.256907 -0.008684 4 94 126
0.356664 -0.204144 -0.268077 -0.524180 0.849290 -0.062775 60 235 119
0.838816 -0.168615 0.595159 -0.965441 0.258708 -0.031537 4 160 123
0.464014 -0.074859 0.405007 -0.213896 0.413606 0.884974 100 180 240
0.409776 -0.022221 0.368851 -0.190944 0.043192 0.980650 103 133 252
0.485383 -0.168272 -0.670957 -0.770294 0.634423 -0.064453 29 208 119
-0.550844 0.046972 -0.379762 0.925056 -0.171947 -0.338682 245 105 84
0.304433 0.167358 -0.537570 0.828317 -0.557537 0.055155 233 56 134
-0.064829 0.059784 0.074741 -0.037414 -0.300091 0.953176 122 89 249
0.218060 0.189744 -0.759691 0.385434 -0.692516 -0.609805 176 39 49
0.399818 -0.132520 -0.985413 -0.478509 0.368470 0.797031 66 174 229
0.445430 -0.151979 -0.353880 -0.805340 0.475921 -0.353451 24 188 82
0.145233 -0.043721 -0.036532 0.718824 0.227448 0.656932 219 156 211
-0.253691 -0.003657 -0.570196 -0.716978 0.053838 -0.695014 36 134 38
-0.225506 0.189888 -0.676302 -0.425989 -0.451589 -0.783965 73 69 27
-0.017323 0.073330 0.698272 0.007575 0.029582 -0.999534 128 131 0
0.153887 0.187226 0.045339 0.342540 -0.665216 0.663441 171 42 212
-0.566735 -0.134129 -0.524571 0.967944 0.215731 -0.128630 250 155 111
0.262090 0.242706 0.470565 -0.101141 -0.723762 0.682597 114 35 214
0.195733 0.001135 -1.071484 0.066158 -0.172676 0.982754 135 105 252
0.560691 -0.245866 0.545751 -0.060276 0.977872 0.200333 119 252 153
0.142410 -0.180600 -0.744883 0.045541 0.487402 -0.871989 133 189 16
0.280148 0.185623 -0.719675 0.677083 -0.519710 -0.521018 213 61 61
-0.427374 0.075907 0.085616 0.359187 -0.303873 0.882409 173 88 240
0.256008 -0.099690 0.691665 0.011677 0.525042 -0.850996 128 194 18
0.313513 -0.160717 -0.427298 0.708285 0.653889 0.266010 217 210 161
0.144542 0.170451 0.028547 0.510324 -0.805611 0.300932 192 24 165
0.783703 0.123284 0.481687 -0.389575 -0.353389 0.850498 77 82 235
-0.517906 -0.026485 -0.813431 0.923358 0.258992 0.283430 245 160 163
0.339849 0.223635 -0.696305 0.409759 -0.876294 -0.253389 179 15 95
0.258620 0.054498 -0.558398 0.997376 -0.020535 0.069427 254 124 136
-0.294853 -0.226182 -0.652139 -0.297830 0.829865 -0.471828 89 233 67
-0.197431 0.289765 0.512361 0.195709 -0.815663 -0.544418 152 23 58
0.851661 -0.086799 0.525244 -0.738148 0.432997 0.517350 33 182 193
-0.346673 0.059025 -0.938979 0.433314 -0.310199 0.846177 182 87 235
0.867975 0.032636 0.645576 -0.997684 -0.013191 -0.066728 0 125 118
-0.425435 -0.239204 -0.724778 0.132871 0.983031 -0.126470 144 252 111
-0.110541 -0.228224 0.157209 -0.024984 0.625721 0.779646 124 207 226
-0.300705 0.229597 -0.682300 -0.409396 -0.780311 -0.472768 75 28 67
0.623218 0.216626 0.614202 -0.087175 -0.895052 -0.437359 116 13 71
0.112728 -0.235441 0.324101 -0.548008 0.833441 0.071159 57 233 136
0.488873 -0.152896 -0.561318 -0.770294 0.634423 -0.064453 29 208 119
0.150559 -0.231586 0.172559 -0.376062 0.918169 -0.124671 79 244 111
0.289370 0.254702 -0.828730 0.159991 -0.947468 -0.276960 147 6 92
-0.350964 0.096389 -0.498379 -0.677269 -0.367707 -0.637258 41 80 46
-0.463168 0.142640 0.146435 0.596529 -0.571653 0.563352 203 54 199
-0.034718 0.151530 -1.014968 -0.009702 -0.473787 0.880586 126 67 239
0.246605 -0.047252 0.703518 -0.008797 0.052045 -0.998606 126 134 0
-0.184421 -0.153486 -0.985651 0.501525 0.358041 0.787578 191 173 227
0.124154 0.055604 -0.009409 0.857335 -0.148751 0.492799 236 108 190
-0.215147 0.149162 0.100357 -0.078855 -0.595243 0.799667 117 51 229
-0.149045 0.036499 -1.024561 0.308825 -0.209293 0.927806 166 100 245
-0.485994 -0.077399 0.130651 0.837758 0.303660 0.453819 234 166 185
-0.058099 0.247040 -0.841334 0.018652 -0.973625 -0.227392 129 3 98
-0.159016 -0.031441 -1.036568 0.308825 -0.209293 0.927806 166 100 245
0.139101 0.218206 0.618504 0.006760 -0.645757 -0.763513 128 45 30
-0.325224 -0.256074 -0.750625 0.132871 0.983031 -0.126470 144 252 111
0.243641 0.207247 0.085327 -0.281592 -0.957652 -0.060074 91 5 119
-0.292197 -0.241349 -0.832964 0.234676 0.843361 0.483394 157 235 189
0.793722 0.128735 0.488542 -0.389575 -0.353389 0.850498 77 82 235
0.148867 -0.074593 -0.029819 0.718824 0.227448 0.656932 219 156 211
0.244791 -0.140111 -0.196833 0.706018 0.647738 0.286311 217 210 164
-0.072908 -0.218208 0.605499 -0.016959 0.558802 -0.829128 125 198 21
0.295797 -0.091162 0.155409 -0.808436 0.250074 -0.532817 24 159 59
-0.043865 0.261453 0.576128 0.047593 -0.749211 -0.660620 133 31 43
0.242957 0.249399 -0.919608 -0.010726 -0.902555 0.430441 126 12 182
-0.266317 0.135785 -0.951989 0.433314 -0.310199 0.846177 182 87 235
0.260436 0.218167 -0.040308 0.021033 -0.997218 0.071515 130 0 136
0.463244 -0.129662 -0.364420 -0.805340 0.475921 -0.353451 24 188 82
0.713122 0.071575 0.435283 -0.280373 -0.075330 0.956931 91 117 249
-0.547762 0.062403 -0.724472 0.972409 -0.168200 0.161648 251 106 148
-0.508704 0.099590 0.203601 0.940852 -0.338746 0.006962 247 84 128
0.567241 0.258411 0.539847 -0.087175 -0.895052 -0.437359 116 13 71
-0.148872 0.275909 0.214168 0.008262 -0.825408 0.564476 128 22 199
0.110642 0.286915 0.500167 -0.240694 -0.944314 0.224360 96 7 156
0.326321 0.209867 -0.215537 0.081144 -0.996531 0.018472 137 0 129
0.240557 0.134355 -1.031461 0.024618 -0.563757 0.825574 130 55 232
-0.120113 0.331497 0.476303 0.161293 -0.898685 -0.407861 148 12 75
0.453584 0.210206 0.458410 -0.059860 -0.774073 0.630260 119 28 207
0.269080 0.195460 0.069997 -0.641011 -0.589694 -0.491290 45 52 64
0.346722 -0.003050 0.355730 -0.190944 0.043192 0.980650 103 133 252
-0.000498 0.312613 0.469793 -0.248413 -0.967763 0.041540 95 4 132
-0.518046 0.052620 0.278047 0.976624 -0.161392 -0.141978 252 106 109
0.188911 0.208746 -0.782542 -0.014791 -0.582119 -0.812969 125 53 23
-0.368489 0.007431 -0.456256 -0.676154 -0.141776 -0.722991 41 109 35
0.481949 -0.029873 -0.300987 -0.762590 0.414588 -0.496562 30 180 64
0.364703 -0.105851 0.025810 -0.778893 0.523240 -0.345753 28 194 83
0.398313 -0.006604 0.704300 -0.008797 0.052045 -0.998606 126 134 0
0.618513 -0.181922 0.651614 0.017580 0.468175 -0.883461 129 187 14
0.418259 0.157203 -0.259095 -0.704619 -0.679350 -0.204926 37 40 101
-0.244784 -0.209572 0.604881 0.217104 0.728989 -0.649185 155 220 44
0.300589 0.240843 -0.783032 0.204503 -0.820540 -0.533754 153 22 59
-0.387590 -0.026866 0.624926 0.805118 -0.045171 -0.591392 230 121 52
0.126667 0.226058 0.200832 -0.545933 -0.694198 -0.469091 57 38 67
0.482324 -0.232609 0.584437 -0.016959 0.558802 -0.829128 125 198 21
-0.458496 -0.194261 0.233942 0.694816 0.691855 0.196387 216 215 152
0.311115 0.191905 0.642399 0.005013 -0.682509 -0.730860 128 40 34
0.053079 0.119267 -0.730248 -0.063181 -0.257698 -0.964158 119 94 4
-0.029090 -0.311705 0.455452 -0.253145 0.967399 -0.007506 95 250 126
0.388564 -0.195156 -0.367102 -0.526399 0.840320 -0.129483 60 234 110
-0.096551 0.175766 0.110818 0.077412 -0.565419 0.821163 137 55 232
-0.138194 -0.334767 0.354676 -0.049644 0.922417 0.382991 121 245 176
0.284186 -0.249962 0.576794 -0.016959 0.558802 -0.829128 125 198 21
0.221723 0.121546 0.238416 -0.667778 -0.604069 -0.434941 42 50 72
0.470909 0.178289 -0.597152 -0.769427 -0.634225 -0.075775 29 46 117
0.513822 0.059413 -0.764716 -0.997789 -0.065637 0.010465 0 119 128
-0.072995 -0.099071 0.687533 0.011677 0.525042 -0.850996 128 194 18
0.459092 0.037583 -0.218120 -0.924492 -0.350456 -0.149985 9 82 108
0.521385 0.042099 -0.491832 -0.999543 -0.010306 0.028401 0 126 131
0.501303 -0.141829 -0.694896 -0.968367 0.248137 -0.026315 4 159 124
0.608120 -0.005936 0.406870 -0.187837 -0.053583 0.980738 103 120 252
-0.200468 -0.027768 -0.611695 -0.514935 0.053064 -0.855585 61 134 18
0.351955 0.201816 -0.179011 -0.704619 -0.679350 -0.204926 37 40 101
-0.537162 0.152343 -0.688732 0.882193 -0.346001 0.319403 239 83 168
0.818708 0.183399 0.552666 -0.740850 -0.494591 0.454445 33 64 185
0.392908 -0.120663 0.680604 0.011677 0.525042 -0.850996 128 194 18
0.245412 0.156935 -0.272369 0.656438 -0.726746 0.202311 211 34 153
-0.392226 -0.182915 -0.529155 -0.531117 0.491156 -0.690421 59 190 39
-0.163726 -0.325308 0.461077 0.087764 0.920958 -0.379649 138 244 79
0.264367 0.028456 -0.648656 0.997376 -0.020535 0.069427 254 124 136
-0.044727 0.137440 0.668697 0.036277 -0.458299 -0.888058 132 69 14
-0.436037 -0.081219 -0.426812 -0.532435 0.470025 -0.703981 59 187 37
0.520229 -0.046389 -0.817432 -0.997789 -0.065637 0.010465 0 119 128
0.233980 0.209440 0.095660 -0.281592 -0.957652 -0.060074 91 5 119
-0.090097 0.289972 0.243515 -0.073469 -0.917572 0.390722 118 10 177
0.316897 0.135117 0.684668 0.036277 -0.458299 -0.888058 132 69 14
-0.498434 0.083306 0.371250 0.972896 -0.162643 -0.164379 251 106 106
0.138566 -0.234950 0.151630 -0.226328 0.951787 0.207067 98 248 153
-0.453200 0.202286 0.291717 0.841239 -0.540457 -0.014925 234 58 125
-0.104050 0.342086 0.396451 -0.276212 -0.948338 0.156083 92 6 147
0.355776 -0.029095 0.703502 -0.008797 0.052045 -0.998606 126 134 0
-0.380450 0.153962 0.109545 0.189659 -0.545106 0.816633 151 57 231
-0.087457 0.333516 0.373745 -0.276212 -0.948338 0.156083 92 6 147
-0.179339 -0.019846 -1.027188 0.308825 -0.209293 0.927806 166 100 245
-0.375398 0.049346 0.635704 0.805118 -0.045171 -0.591392 230 121 52
0.027072 -0.229732 0.595687 -0.016959 0.558802 -0.829128 125 198 21
-0.321604 0.123114 -0.545026 -0.609653 -0.508461 -0.608104 49 62 49
0.208722 -0.160837 -0.046245 0.629703 0.767085 0.122695 207 225 143
0.264373 -0.159407 0.656498 0.017580 0.468175 -0.883461 129 187 14
-0.497321 -0.076476 -0.834813 0.923358 0.258992 0.283430 245 160 163
-0.050637 -0.088004 0.087577 -0.026217 0.133717 0.990673 124 144 253
-0.161806 -0.120777 0.092863 0.073370 0.400866 0.913194 136 178 243
0.219393 0.251016 -0.846297 -0.003231 -0.957249 -0.289247 127 5 90
-0.374944 -0.023334 0.057039 0.300442 0.269580 0.914910 165 161 244
0.793810 -0.215442 0.587712 -0.290711 0.926951 -0.237169 90 245 97
0.502158 -0.020325 -0.349878 -0.955300 0.029842 -0.294127 5 131 89
-0.050052 -0.195679 -0.990844 0.009021 0.499993 0.865982 128 191 237
0.256926 -0.052496 -1.056762 0.005603 0.295544 0.955313 128 165 249
0.088171 0.233563 -0.798479 -0.014791 -0.582119 -0.812969 125 53 23
-0.518596 -0.066678 0.214949 0.981200 0.188278 0.042405 252 151 132
-0.521924 -0.037448 0.191377 0.939958 0.202633 0.274627 247 153 162
0.621484 0.021228 0.410913 -0.187837 -0.053583 0.980738 103 120 252
-0.303942 0.008778 0.059988 -0.156817 0.065365 0.985462 107 135 253
-0.385446 -0.118127 -0.489718 -0.532435 0.470025 -0.703981 59 187 37
-0.223364 0.050998 -0.601567 -0.414280 -0.432652 -0.800740 74 72 25
0.505385 -0.044848 -0.363838 -0.963168 0.030245 -0.267194 4 131 93
-0.442136 -0.026317 0.552023 0.796599 -0.044220 -0.602888 229 121 50
0.095626 0.215903 -0.978897 -0.009702 -0.473787 0.880586 126 67 239
0.419411 -0.139741 -0.238979 -0.940050 0.300511 -0.161243 7 165 106
-0.509044 -0.121912 0.335057 0.968821 0.247758 0.001672 251 159 127
0.332864 0.188617 -0.069934 -0.704038 -0.679687 -0.205806 37 40 101
-0.021058 0.039985 0.061786 0.209530 -0.178864 0.961304 154 104 250
0.605119 0.188065 0.457977 -0.189525 -0.552903 0.811405 103 57 230
-0.374881 0.177497 -0.854650 0.442041 -0.543852 0.713319 183 58 218
0.230332 0.213378 0.049988 -0.281592 -0.957652 -0.060074 91 5 119
0.739978 -0.007090 0.701265 -0.008797 0.052045 -0.998606 126 134 0
0.056997 0.004980 0.710730 -0.016541 0.128095 -0.991624 125 143 1
0.345215 -0.160638 0.418255 -0.172880 0.487340 0.855928 105 189 236
-0.270329 0.178798 0.622566 0.430982 -0.520199 -0.737324 182 61 33
0.457843 -0.053600 0.701326 -0.008797 0.052045 -0.998606 126 134 0
0.651067 0.214170 0.613677 -0.087175 -0.895052 -0.437359 116 13 71
0.161511 0.257095 -0.904254 0.011179 -0.930719 0.365564 128 8 174
0.633547 0.248372 0.550326 -0.002627 -0.847051 -0.531505 127 19 59
-0.136012 0.204787 0.627418 0.006760 -0.645757 -0.763513 128 45 30
0.207181 -0.088499 -0.196154 0.936399 0.250287 0.245997 246 159 158
-0.350848 -0.132496 -0.913004 0.351877 0.412496 0.840255 172 180 234
0.049569 -0.082042 -1.046007 0.012299 0.324492 0.945808 129 168 248
-0.142701 -0.183196 -0.977071 0.254303 0.657411 0.709324 159 211 217
0.600106 -0.182907 0.650726 0.017580 0.468175 -0.883461 129 187 14
0.688369 -0.175602 0.490710 -0.242757 0.405036 0.881485 96 179 239
-0.136271 -0.032882 -0.650650 -0.514935 0.053064 -0.855585 61 134 18
-0.444428 0.133788 0.484385 0.904471 -0.380336 -0.193070 242 79 102
-0.497411 0.005730 -0.855155 0.712378 -0.086273 0.696473 218 116 216
0.377151 -0.002804 -1.052819 -0.410945 0.309050 0.857678 75 166 236
0.119300 0.202960 0.631223 0.006760 -0.645757 -0.763513 128 45 30
-0.176276 -0.259493 0.196219 0.037082 0.796556 0.603427 132 229 204
0.427864 0.100318 -1.001054 -0.905106 -0.165334 0.391725 12 106 177
0.872494 0.024334 0.578752 -0.998904 0.004706 -0.046571 0 128 121
-0.443599 -0.106628 -0.438058 -0.532435 0.470025 -0.703981 59 187 37
-0.416438 0.069913 0.578682 0.817078 -0.072759 -0.571917 231 118 54
-0.517411 0.148552 -0.747391 0.882193 -0.346001 0.319403 239 83 168
-0.304055 0.233179 -0.849447 0.284704 -0.699461 0.655513 163 38 211
-0.107002 0.247713 -0.816253 -0.121932 -0.989976 -0.071272 111 1 118
-0.379297 0.090772 -0.465026 -0.677269 -0.367707 -0.637258 41 80 46
0.086843 0.245291 -0.825872 -0.003231 -0.957249 -0.289247 127 5 90
-0.242996 -0.224481 0.588737 0.217104 0.728989 -0.649185 155 220 44
0.109636 -0.143108 -1.022861 0.009021 0.499993 0.865982 128 191 237
-0.531184 0.123856 -0.736101 0.882193 -0.346001 0.319403 239 83 168
0.216533 0.137463 0.679358 0.036277 -0.458299 -0.888058 132 69 14
0.361235 -0.077846 0.700913 -0.008797 0.052045 -0.998606 126 134 0
-0.561176 -0.096325 -0.419331 0.967944 0.215731 -0.128630 250 155 111
-0.088361 -0.254787 -0.909647 0.237401 0.841496 0.485310 157 234 189
0.467131 -0.126428 0.678065 0.011677 0.525042 -0.850996 128 194 18
-0.475269 0.156039 0.348783 0.802626 -0.566117 -0.187890 229 55 103
-0.291900 0.160026 0.105236 -0.000243 -0.449787 0.893136 127 70 241
-0.272104 0.010262 -0.986761 0.337464 -0.228117 0.913280 170 98 243
0.445976 -0.205294 -0.625885 -0.653200 0.756951 -0.018857 44 224 125
-0.112332 -0.333224 0.394890 -0.245669 0.969299 0.010331 96 251 128
0.413834 0.219897 -0.869543 -0.255363 -0.959524 0.118756 94 5 142
-0.085701 0.276773 0.214507 0.008262 -0.825408 0.564476 128 22 199
0.381985 0.225331 -0.610156 0.283320 -0.957634 -0.051647 163 5 120
-0.353210 0.223829 -0.625007 -0.416361 -0.789447 -0.451018 74 26 69
-0.041239 0.274473 0.217036 -0.115973 -0.918683 0.377586 112 10 175
0.074826 0.014577 -0.711695 0.067988 0.006595 -0.997664 136 128 0
0.203147 -0.102934 0.318101 -0.804498 0.583850 -0.109095 24 201 113
0.461714 0.193925 -0.782513 -0.570779 -0.818479 0.065595 54 23 135
0.403791 -0.089145 -0.059147 -0.945241 0.267323 -0.187236 6 161 103
0.294762 -0.190252 -0.297253 0.833290 0.541072 0.113437 233 196 141
0.439896 0.077721 -0.193579 -0.924492 -0.350456 -0.149985 9 82 108
0.337235 -0.039331 -1.058782 -0.410945 0.309050 0.857678 75 166 236
0.307141 -0.073292 0.146583 -0.808436 0.250074 -0.532817 24 159 59
-0.562521 -0.005987 -0.706855 0.972409 -0.168200 0.161648 251 106 148
-0.264035 0.243524 -0.852794 0.194366 -0.948013 0.251978 152 6 159
0.439049 0.209993 -0.627962 -0.613617 -0.788823 -0.035111 49 26 123
-0.334508 0.124642 -0.533366 -0.609653 -0.508461 -0.608104 49 62 49
-0.272983 0.266289 0.209389 0.090987 -0.825921 0.556396 139 22 198
-0.111358 -0.228396 -0.944157 0.237401 0.841496 0.485310 157 234 189
0.067678 -0.273113 0.565620 -0.016959 0.558802 -0.829128 125 198 21
-0.389468 0.198889 0.528846 0.571585 -0.797890 -0.191474 200 25 103
0.284132 -0.176810 -0.283286 0.833290 0.541072 0.113437 233 196 141
0.029628 0.178845 -0.999562 -0.009702 -0.473787 0.880586 126 67 239
-0.525889 -0.098415 -0.744346 0.891123 0.293443 0.346109 241 164 171
0.203625 -0.099419 -0.171506 0.936399 0.250287 0.245997 246 159 158
0.293078 0.063533 0.166719 -0.838024 -0.184662 -0.513435 20 103 62
0.293901 -0.208135 -0.990209 0.020801 0.471972 0.881368 130 187 239
-0.348309 0.218972 -0.621030 -0.416361 -0.789447 -0.451018 74 26 69
-0.218304 0.254843 0.184380 0.008262 -0.825408 0.564476 128 22 199
-0.494853 0.017659 0.441762 0.933066 -0.032221 -0.358260 246 123 81
0.249288 -0.245008 0.580847 -0.016959 0.558802 -0.829128 125 198 21
-0.008993 -0.306391 0.462461 -0.253145 0.967399 -0.007506 95 250 126
-0.525559 -0.123789 -0.723683 0.891123 0.293443 0.346109 241 164 171
0.240816 0.249790 -0.839976 0.159991 -0.947468 -0.276960 147 6 92
-0.579305 -0.040922 -0.506277 0.989257 0.139533 -0.043608 253 145 121
0.134295 0.207573 0.281835 -0.810536 -0.576208 0.104959 24 54 140
-0.377832 -0.070936 -0.463969 -0.532435 0.470025 -0.703981 59 187 37
0.275069 -0.155547 0.127268 -0.583011 0.613471 -0.532684 53 205 59
0.432674 -0.217958 -0.673407 -0.653200 0.756951 -0.018857 44 224 125
-0.060152 0.329439 0.451487 -0.337072 -0.940728 -0.037584 84 7 122
0.096719 -0.281789 0.508238 -0.227570 0.973580 0.018830 98 251 129
0.058211 0.275002 0.343370 -0.554269 -0.830197 0.059661 56 21 135
-0.052667 -0.126919 -0.708998 -0.324252 0.262300 -0.908878 86 160 11
0.167925 0.255509 -0.908489 0.011179 -0.930719 0.365564 128 8 174
-0.525562 -0.172418 -0.484565 0.287325 0.956713 0.046315 164 249 133
0.564318 0.257597 0.542095 -0.087175 -0.895052 -0.437359 116 13 71
0.225629 -0.045201 0.276012 -0.989029 0.040569 -0.142042 1 132 109
0.849824 -0.035874 0.659826 -0.515466 0.057821 -0.854957 61 134 18
0.410373 0.076952 -0.045874 -0.896750 -0.295167 -0.329723 13 89 85
-0.082378 0.255562 0.184372 0.000068 -0.802414 0.596767 127 25 203
0.515780 0.029275 -0.767106 -0.997789 -0.065637 0.010465 0 119 128
0.710621 -0.095267 0.459925 -0.242757 0.405036 0.881485 96 179 239
0.531827 -0.079043 0.699348 -0.008797 0.052045 -0.998606 126 134 0
-0.567428 -0.097326 -0.468062 0.967944 0.215731 -0.128630 250 155 111
0.480019 0.124113 -0.839375 -0.836250 -0.490790 0.244563 20 64 158
-0.217952 0.290559 0.236601 0.008262 -0.825408 0.564476 128 22 199
0.215757 0.087698 0.271558 -0.792725 -0.282354 -0.540243 26 91 58
0.149866 -0.083222 -1.046628 0.005603 0.295544 0.955313 128 165 249
0.650374 0.240937 0.562093 -0.002627 -0.847051 -0.531505 127 19 59
0.214080 0.017421 0.709717 -0.016541 0.128095 -0.991624 125 143 1
-0.373321 0.150100 0.105311 0.189659 -0.545106 0.816633 151 57 231
0.622976 0.019998 0.411132 -0.187837 -0.053583 0.980738 103 120 252
0.290155 -0.018544 0.345398 -0.190944 0.043192 0.980650 103 133 252
0.196098 -0.165833 0.651734 0.017580 0.468175 -0.883461 129 187 14
0.244459 -0.250434 0.577289 -0.016959 0.558802 -0.829128 125 198 21
0.259015 -0.144659 -0.708067 0.418005 0.512946 -0.749772 180 192 31
0.832086 0.087762 0.668021 -0.334890 -0.349262 -0.875137 84 82 15
-0.257533 0.001143 -0.994423 0.337464 -0.228117 0.913280 170 98 243
0.321311 0.251434 -0.799098 0.159991 -0.947468 -0.276960 147 6 92
-0.256103 -0.233689 0.573372 0.300624 0.715529 -0.630590 165 218 47
-0.037353 0.005827 -0.712498 -0.514091 -0.033312 -0.857088 61 123 18
-0.352990 -0.250700 -0.738022 0.132871 0.983031 -0.126470 144 252 111
-0.364725 0.166692 -0.869182 0.442041 -0.543852 0.713319 183 58 218
-0.419850 -0.128859 0.554673 0.694878 0.486814 -0.529298 216 189 60
0.080141 -0.228650 -0.780146 -0.015388 0.680313 -0.732760 125 214 34
-0.349231 -0.290057 0.360590 0.573640 0.775379 -0.264053 200 226 93
0.013787 0.300727 0.358903 -0.294970 -0.935531 0.194355 89 8 152
-0.047633 -0.316786 0.425903 -0.253145 0.967399 -0.007506 95 250 126
0.111738 0.260856 -0.886561 0.018652 -0.973625 -0.227392 129 3 98
-0.403316 0.199911 -0.536917 -0.416064 -0.789552 -0.451108 74 26 69
0.872215 -0.051961 0.529672 -0.965441 0.258708 -0.031537 4 160 123
-0.390626 0.219109 -0.582223 -0.416064 -0.789552 -0.451108 74 26 69
0.822445 0.166335 0.623953 -0.531062 -0.591297 -0.606911 59 52 50
0.362414 0.216376 -0.551480 0.283320 -0.957634 -0.051647 163 5 120
0.307103 -0.191755 -0.333933 0.708285 0.653889 0.266010 217 210 161
0.401517 0.208265 -0.903378 -0.439591 -0.780037 0.445312 71 28 184
0.155914 -0.188717 0.263145 -0.749914 0.501412 -0.431527 31 191 72
0.222249 -0.083569 0.280865 -0.804498 0.583850 -0.109095 24 201 113
0.031064 0.166599 0.656745 0.036277 -0.458299 -0.888058 132 69 14
-0.081951 0.148977 0.102150 -0.037414 -0.300091 0.953176 122 89 249
-0.070301 0.192840 -0.756564 -0.380109 -0.462784 -0.800842 79 68 25
-0.169100 -0.181354 0.634796 0.020942 0.848298 -0.529105 130 235 60
-0.200068 -0.242393 0.175108 0.037082 0.796556 0.603427 132 229 204
0.425779 -0.224883 -0.712572 -0.653200 0.756951 -0.018857 44 224 125
0.521765 -0.062545 -0.772325 -0.997789 -0.065637 0.010465 0 119 128
-0.332339 0.269921 0.418599 0.554222 -0.793586 -0.251117 198 26 95
-0.295953 -0.018339 -0.527736 -0.716978 0.053838 -0.695014 36 134 38
-0.270451 0.182738 -0.915369 0.442041 -0.543852 0.713319 183 58 218
-0.381916 -0.142878 0.101691 0.244724 0.337057 0.909122 158 170 243
-0.335982 0.195449 -0.591236 -0.416361 -0.789447 -0.451018 74 26 69
0.261457 -0.029913 -0.624112 0.997376 -0.020535 0.069427 254 124 136
-0.395211 -0.135038 0.579523 0.455355 0.495603 -0.739615 185 190 33
0.007573 -0.296086 0.305970 -0.246429 0.964718 0.092694 96 250 139
0.694289 -0.009084 0.423415 -0.280373 -0.075330 0.956931 91 117 249
-0.029565 -0.139282 -1.023619 0.009021 0.499993 0.865982 128 191 237
0.478356 -0.025691 -0.291977 -0.762590 0.414588 -0.496562 30 180 64
-0.156580 -0.127175 -1.015341 0.501525 0.358041 0.787578 191 173 227
-0.350787 0.260759 -0.698625 0.101289 -0.994188 0.036481 140 0 132
-0.436153 0.229172 -0.562010 0.147758 -0.969939 -0.193353 146 3 102
0.083143 -0.125118 -0.723160 -0.028322 0.208807 -0.977547 123 154 2
0.339218 0.195100 -0.469767 0.511616 -0.855508 -0.079718 192 18 117
-0.505565 -0.028094 0.412160 0.963233 -0.047511 -0.264433 250 121 93
0.208020 -0.262098 -0.882863 -0.028353 0.998995 -0.034707 123 254 123
0.407236 -0.154921 -0.230511 -0.675481 0.707325 -0.208366 41 217 100
-0.000559 -0.200003 0.123685 0.308584 0.649586 0.694848 166 210 216
0.203063 -0.260676 -0.837885 -0.028353 0.998995 -0.034707 123 254 123
-0.500440 0.195077 -0.462134 0.469894 -0.864308 -0.179364 187 17 104
0.175186 0.253704 -0.854701 -0.003231 -0.957249 -0.289247 127 5 90
-0.461817 -0.005838 -0.360263 -0.720517 -0.141913 -0.678761 35 109 40
0.068110 -0.183777 -0.750539 0.045541 0.487402 -0.871989 133 189 16
-0.065898 -0.190527 0.128385 -0.024984 0.625721 0.779646 124 207 226
0.517887 0.006516 -0.708903 -0.997789 -0.065637 0.010465 0 119 128
0.731692 -0.167743 0.499029 -0.242757 0.405036 0.881485 96 179 239
0.163605 -0.125128 -0.725493 -0.028322 0.208807 -0.977547 123 154 2
-0.548329 0.080005 -0.389664 0.925056 -0.171947 -0.338682 245 105 84
0.150229 0.194265 0.054286 0.342540 -0.665216 0.663441 171 42 212
0.164858 0.242284 0.598368 0.006760 -0.645757 -0.763513 128 45 30
0.313982 -0.168088 0.416189 -0.172880 0.487340 0.855928 105 189 236
-0.059934 0.255513 0.184303 0.000068 -0.802414 0.596767 127 25 203
-0.157630 -0.115004 0.089993 0.073370 0.400866 0.913194 136 178 243
0.387033 0.004903 0.038271 -0.858945 0.006099 -0.512032 17 128 62
-0.038299 0.152980 -0.748719 -0.380109 -0.462784 -0.800842 79 68 25
-0.461181 0.045543 0.096688 0.592037 -0.274454 0.757739 202 92 224
0.023158 -0.204495 -0.764467 0.045541 0.487402 -0.871989 133 189 16
0.469050 -0.187140 -0.696392 -0.653200 0.756951 -0.018857 44 224 125
-0.092736 -0.146857 0.098762 0.073370 0.400866 0.913194 136 178 243
-0.338069 -0.284212 0.402002 0.573640 0.775379 -0.264053 200 226 93
0.054497 0.276682 0.332239 -0.554269 -0.830197 0.059661 56 21 135
-0.487659 -0.041025 -0.350341 -0.852906 0.328276 -0.405938 18 169 75
0.792564 0.082552 0.468821 -0.389575 -0.353389 0.850498 77 82 235
-0.053849 0.206681 -0.985506 -0.009702 -0.473787 0.880586 126 67 239
0.200625 0.159128 -0.108735 0.938693 -0.281138 0.199544 247 91 152
-0.115553 0.222559 0.144830 0.077412 -0.565419 0.821163 137 55 232
0.265620 0.083882 -0.534010 0.962329 -0.270068 -0.031418 250 93 123
-0.182199 0.104629 -0.995935 0.325768 -0.228213 0.917493 169 98 244
-0.244057 -0.129783 0.666237 0.011677 0.525042 -0.850996 128 194 18
-0.141464 -0.277245 0.217513 0.037082 0.796556 0.603427 132 229 204
0.196590 -0.203629 -0.759362 -0.015388 0.680313 -0.732760 125 214 34
0.149358 -0.048262 -0.039473 0.718824 0.227448 0.656932 219 156 211
0.767934 0.005923 0.701697 -0.008797 0.052045 -0.998606 126 134 0
-0.303932 -0.201402 0.587206 0.300624 0.715529 -0.630590 165 218 47
0.229016 0.066643 -0.333063 0.887047 -0.334352 0.318365 240 84 168
-0.205252 -0.076339 0.699743 0.011677 0.525042 -0.850996 128 194 18
0.147878 -0.246564 0.424534 -0.568607 0.686997 0.452461 55 215 185
-0.143794 0.219406 -0.936973 0.347647 -0.709246 0.613279 171 37 205
0.171688 -0.112097 -0.041805 0.718824 0.227448 0.656932 219 156 211
-0.439275 0.156555 -0.461776 -0.539064 -0.569923 -0.620160 58 54 48
-0.494178 -0.151072 -0.776193 0.652306 0.644964 0.398143 210 209 178
-0.524119 -0.131086 -0.358335 -0.432352 0.313338 -0.845513 72 167 19
-0.286655 0.223266 -0.684017 -0.409396 -0.780311 -0.472768 75 28 67
0.012851 -0.235477 0.592107 -0.016959 0.558802 -0.829128 125 198 21
-0.503843 -0.217294 -0.629122 0.587402 0.777048 0.226176 202 226 156
-0.386315 0.072591 -0.452362 -0.676154 -0.141776 -0.722991 41 109 35
-0.268933 0.132443 -0.951874 0.433314 -0.310199 0.846177 182 87 235
-0.063909 -0.283495 0.561314 -0.016959 0.558802 -0.829128 125 198 21
-0.384291 0.017460 0.060378 0.154861 -0.049473 0.986697 147 121 253
-0.198830 -0.267888 0.554765 0.217104 0.728989 -0.649185 155 220 44
0.516665 -0.032317 -0.403083 -0.963168 0.030245 -0.267194 4 131 93
-0.363514 0.268719 0.253876 0.446801 -0.878519 0.169033 184 15 149
0.120456 0.170127 0.045455 0.342540 -0.665216 0.663441 171 42 212
0.153292 -0.172422 -1.006390 0.009021 0.499993 0.865982 128 191 237
-0.027068 -0.256504 -0.925382 0.030432 0.917977 0.395464 131 244 177
-0.360880 0.205051 -0.842319 0.442041 -0.543852 0.713319 183 58 218
0.101170 -0.065203 -1.051917 0.005603 0.295544 0.955313 128 165 249
-0.521953 -0.011467 0.324024 0.976624 -0.161392 -0.141978 252 106 109
0.125829 -0.178234 0.643764 0.017580 0.468175 -0.883461 129 187 14
0.486281 0.133442 0.692452 0.036277 -0.458299 -0.888058 132 69 14
-0.461443 0.238764 -0.657060 0.644055 -0.688674 0.333048 209 39 169
-0.470854 0.094022 -0.858825 0.438069 -0.540943 0.717967 183 58 219
0.371057 -0.122226 -0.013284 -0.778893 0.523240 -0.345753 28 194 83
-0.217874 0.190928 -0.931961 0.284704 -0.699461 0.655513 163 38 211
-0.041662 -0.277007 0.227521 -0.049654 0.924251 0.378543 121 245 175
-0.449904 -0.041235 0.542853 0.796599 -0.044220 -0.602888 229 121 50
-0.405317 0.174463 -0.507750 -0.539064 -0.569923 -0.620160 58 54 48
0.554880 -0.067127 0.422930 -0.123243 0.398163 0.908998 111 178 243
-0.465237 0.049002 0.506021 0.914453 -0.081983 -0.396301 244 117 76
0.305139 0.211485 -0.146631 0.021033 -0.997218 0.071515 130 0 136
0.748126 0.223683 0.540648 -0.318551 -0.765839 0.558583 86 29 198
0.253010 0.030254 0.336016 -0.190944 0.043192 0.980650 103 133 252
0.018669 0.071654 -1.047174 0.066158 -0.172676 0.982754 135 105 252
0.481511 -0.127187 -0.402708 -0.805340 0.475921 -0.353451 24 188 82
-0.251484 0.016862 -0.570883 -0.716978 0.053838 -0.695014 36 134 38
0.221483 0.172363 -0.138118 0.657649 -0.726208 0.200301 211 34 153
-0.295196 -0.310305 0.296532 0.131903 0.979567 0.151822 144 252 146
0.178596 0.060225 0.699369 0.007575 0.029582 -0.999534 128 131 0
0.464809 -0.185629 -0.595923 -0.770294 0.634423 -0.064453 29 208 119
0.018880 -0.202024 -0.763309 0.045541 0.487402 -0.871989 133 189 16
0.142184 0.197668 0.288383 -0.810536 -0.576208 0.104959 24 54 140
0.120896 -0.225586 0.314525 -0.835460 0.543522 0.081176 20 196 137
0.017663 0.082028 0.698794 0.007575 0.029582 -0.999534 128 131 0
-0.310108 0.120383 0.083319 -0.137932 -0.483884 0.864194 109 65 237
0.083412 -0.227292 -0.974983 0.020801 0.471972 0.881368 130 187 239
0.381194 0.070027 -1.050968 -0.470241 -0.070022 0.879756 67 118 239
-0.196060 -0.051763 0.077261 -0.131379 0.124348 0.983503 110 143 252
0.091209 -0.241455 -0.964331 0.010241 0.847668 0.530428 128 235 195
0.080385 -0.004020 -0.711439 0.067988 0.006595 -0.997664 136 128 0
-0.166929 0.088964 -0.651279 -0.414280 -0.432652 -0.800740 74 72 25
0.187391 0.014696 -0.186858 0.941530 0.108501 0.318981 247 141 168
-0.546574 -0.165152 -0.504302 0.287325 0.956713 0.046315 164 249 133
0.514918 0.036116 -0.806390 -0.997789 -0.065637 0.010465 0 119 128
0.236351 0.127399 -0.692250 0.359926 -0.620575 -0.696663 173 48 38
-0.231849 0.045432 0.702319 0.000333 -0.294430 -0.955673 127 89 5
-0.250226 -0.021687 0.712410 -0.016541 0.128095 -0.991624 125 143 1
-0.346589 -0.209878 -0.590806 -0.297830 0.829865 -0.471828 89 233 67
0.193511 0.099373 -0.161718 0.931778 -0.298417 0.206731 246 89 153
0.031072 -0.140920 0.079088 0.177094 0.291592 0.940006 150 164 247
0.295244 -0.196570 -0.270667 0.833290 0.541072 0.113437 233 196 141
0.015054 0.172672 -0.760596 0.025247 -0.495723 -0.868114 130 64 16
0.364194 0.270539 0.555498 -0.087175 -0.895052 -0.437359 116 13 71
-0.180481 -0.231917 -0.731128 -0.323023 0.631724 -0.704686 86 208 37
-0.534276 0.024535 0.198332 0.976624 -0.161392 -0.141978 252 106 109
0.411546 -0.028514 -0.019414 -0.920763 0.283778 -0.267706 10 163 93
-0.101695 0.126350 -0.703822 -0.371318 -0.453624 -0.810153 80 69 24
-0.405655 0.026396 -0.425217 -0.676154 -0.141776 -0.722991 41 109 35
-0.506280 0.207489 -0.537243 0.469894 -0.864308 -0.179364 187 17 104
0.320904 0.001041 0.705819 -0.016541 0.128095 -0.991624 125 143 1
0.261756 0.029323 -0.610892 0.997376 -0.020535 0.069427 254 124 136
0.151193 0.223133 0.155807 -0.104959 -0.990785 0.085605 114 1 138
0.832400 0.168829 0.612813 -0.531062 -0.591297 -0.606911 59 52 50
-0.039653 0.205721 0.126080 0.077412 -0.565419 0.821163 137 55 232
-0.016705 -0.259205 0.187327 -0.049654 0.924251 0.378543 121 245 175
0.081177 -0.257814 0.343164 -0.548008 0.833441 0.071159 57 233 136
0.332829 -0.203557 0.441767 -0.132113 0.687494 0.714071 110 215 218
0.454484 -0.038483 0.702143 -0.008797 0.052045 -0.998606 126 134 0
0.577131 -0.073607 0.428785 -0.123243 0.398163 0.908998 111 178 243
-0.394263 -0.264410 0.289687 0.410820 0.892270 0.187300 179 241 151
-0.499121 0.107151 0.167750 0.876217 -0.278709 0.393148 239 91 177
0.483144 -0.049704 0.701306 -0.008797 0.052045 -0.998606 126 134 0
-0.556464 0.150409 -0.464619 0.956039 -0.279262 -0.089459 249 91 116
0.270938 -0.133924 0.388042 -0.172880 0.487340 0.855928 105 189 236
-0.069519 -0.199771 0.617856 -0.016959 0.558802 -0.829128 125 198 21
0.838935 -0.111177 0.527489 -0.738148 0.432997 0.517350 33 182 193
-0.440528 0.076871 0.543380 0.817078 -0.072759 -0.571917 231 118 54
0.615665 0.221148 0.488954 -0.027522 -0.819288 0.572722 123 23 200
0.206136 -0.066444 -0.714190 -0.028322 0.208807 -0.977547 123 154 2
0.454541 -0.079191 -0.960321 -0.876889 0.152487 0.455866 15 146 185
0.453771 0.185101 -0.480144 -0.769427 -0.634225 -0.075775 29 46 117
-0.378621 -0.255771 0.214225 0.410820 0.892270 0.187300 179 241 151
0.754161 -0.195236 0.526415 -0.227530 0.766855 0.600136 98 225 204
-0.042149 -0.260382 -0.849223 0.016087 0.967804 -0.251191 129 250 95
0.390160 0.234230 -0.700552 0.140468 -0.953412 -0.266972 145 5 93
0.604903 -0.078625 0.698726 -0.008797 0.052045 -0.998606 126 134 0
-0.141046 0.273370 0.555611 0.047593 -0.749211 -0.660620 133 31 43
-0.212677 0.130291 0.090283 -0.000243 -0.449787 0.893136 127 70 241
-0.519306 -0.059570 0.199802 0.981200 0.188278 0.042405 252 151 132
0.389586 -0.101499 -0.023660 -0.778893 0.523240 -0.345753 28 194 83
0.101029 -0.141088 -0.727089 -0.028322 0.208807 -0.977547 123 154 2
-0.314177 -0.206148 -0.875327 0.482312 0.517504 0.706799 188 193 217
0.596287 -0.248052 0.571698 -0.016959 0.558802 -0.829128 125 198 21
-0.231011 0.206818 -0.689865 -0.245589 -0.811152 -0.530772 96 24 59
-0.226259 0.321125 0.302169 0.147038 -0.929066 0.339436 146 9 170
0.744000 -0.230860 0.571974 -0.364621 0.810290 0.458783 81 230 185
0.772403 0.092862 0.691262 -0.533828 -0.337480 -0.775329 59 84 28
0.504405 -0.113101 -0.528731 -0.956748 0.290255 -0.019605 5 164 125
-0.054471 0.177488 -1.001219 -0.009702 -0.473787 0.880586 126 67 239
0.341696 0.126542 0.037226 -0.757650 -0.516816 -0.398581 30 61 76
-0.247497 -0.256741 -0.753759 -0.102360 0.980679 -0.166708 114 252 106
0.210139 0.044056 -0.263990 0.941530 0.108501 0.318981 247 141 168
-0.282832 0.207760 -0.661736 -0.409396 -0.780311 -0.472768 75 28 67
0.010978 -0.253653 -0.819897 0.016087 0.967804 -0.251191 129 250 95
-0.356566 0.164448 -0.544535 -0.609653 -0.508461 -0.608104 49 62 49
-0.410370 0.247813 0.269074 0.446801 -0.878519 0.169033 184 15 149
0.424923 0.182321 -0.374392 -0.272789 -0.927767 -0.254625 92 9 95
0.227327 0.181446 -0.124377 0.657649 -0.726208 0.200301 211 34 153
-0.329860 -0.279155 0.234468 0.074013 0.789293 0.609539 136 228 205
0.519554 0.188306 0.647190 0.005013 -0.682509 -0.730860 128 40 34
-0.392578 -0.239801 -0.681725 0.122889 0.989704 -0.073373 143 253 118
-0.525245 -0.030359 0.207538 0.981200 0.188278 0.042405 252 151 132
0.357529 0.246925 -0.763057 0.140468 -0.953412 -0.266972 145 5 93
-0.175810 -0.215738 0.145095 -0.024984 0.625721 0.779646 124 207 226
0.497691 0.084644 -0.846328 -0.905106 -0.165334 0.391725 12 106 177
0.019358 -0.292349 0.308653 -0.519583 0.847162 0.111135 61 235 141
0.394343 -0.204664 0.454213 -0.132113 0.687494 0.714071 110 215 218
0.736359 -0.047506 0.450499 -0.421985 0.279186 0.862545 73 163 237
-0.404971 -0.240409 -0.710684 0.122889 0.989704 -0.073373 143 253 118
0.428548 -0.146499 0.429917 -0.213896 0.413606 0.884974 100 180 240
0.418134 0.195307 -0.908109 -0.836250 -0.490790 0.244563 20 64 158
0.267436 0.089932 -0.530385 0.962329 -0.270068 -0.031418 250 93 123
0.276391 -0.132520 0.671689 0.011677 0.525042 -0.850996 128 194 18
-0.312589 0.053416 -0.517552 -0.676154 -0.141776 -0.722991 41 109 35
-0.181472 -0.315987 0.479586 0.087764 0.920958 -0.379649 138 244 79
-0.398618 -0.150160 -0.863890 0.463769 0.666940 0.583189 186 212 201
0.730030 0.031165 0.703346 -0.008797 0.052045 -0.998606 126 134 0
0.335564 -0.207301 -0.168328 -0.774426 0.625102 -0.097529 28 207 115
0.334984 0.233565 0.607249 0.006760 -0.645757 -0.763513 128 45 30
-0.462128 0.189997 0.233539 0.841239 -0.540457 -0.014925 234 58 125
-0.251813 0.320180 0.402612 0.455393 -0.890042 -0.021030 185 14 124
0.069423 0.102054 -1.043017 0.034890 -0.285453 0.957757 131 91 249
-0.142816 0.174938 -0.981060 0.236022 -0.470237 0.850394 157 67 235
0.160030 -0.253270 -0.808875 0.016087 0.967804 -0.251191 129 250 95
0.635804 -0.108084 0.451830 -0.122451 0.398563 0.908930 111 178 243
0.573963 -0.225917 0.592759 0.020942 0.848298 -0.529105 130 235 60
-0.009236 0.254715 -0.905092 0.011179 -0.930719 0.365564 128 8 174
-0.345592 0.252230 0.445257 0.554222 -0.793586 -0.251117 198 26 95
-0.270869 0.311307 0.423474 0.554222 -0.793586 -0.251117 198 26 95
-0.158718 0.200368 0.631273 0.005013 -0.682509 -0.730860 128 40 34
0.285595 0.132331 -0.608750 0.828317 -0.557537 0.055155 233 56 134
-0.338779 -0.238731 0.183206 0.074013 0.789293 0.609539 136 228 205
0.337792 -0.211916 -0.244334 0.352402 0.935478 0.026336 172 246 130
0.282727 -0.187776 0.072400 -0.606800 0.660431 -0.442295 50 211 71
-0.314300 0.003886 -0.972762 0.337464 -0.228117 0.913280 170 98 243
0.495149 -0.049813 -0.891091 -0.922057 -0.099931 0.373932 9 114 175
-0.524422 -0.104104 -0.348181 -0.432352 0.313338 -0.845513 72 167 19
0.412507 0.129268 -1.008794 -0.675264 -0.222970 0.703067 41 99 217
-0.163112 0.158800 0.105412 0.077412 -0.565419 0.821163 137 55 232
0.080071 -0.147388 0.056620 0.593758 0.259434 0.761673 203 160 224
0.369764 -0.016314 0.067963 -0.871126 0.006781 -0.491013 16 128 64
0.016936 -0.062687 -1.052202 0.005603 0.295544 0.955313 128 165 249
0.817755 -0.090019 0.673225 -0.596060 0.273063 -0.755083 51 162 31
-0.080806 0.274428 0.211006 0.008262 -0.825408 0.564476 128 22 199
0.286488 0.109491 0.364504 -0.101714 -0.511874 0.853018 114 62 236
0.337849 -0.261509 0.523399 -0.092471 0.970301 0.223529 115 251 155
0.191503 -0.206462 -0.988688 0.020801 0.471972 0.881368 130 187 239
0.637740 -0.016662 0.412003 -0.122451 0.398563 0.908930 111 178 243
0.176403 0.175928 -0.010820 0.510324 -0.805611 0.300932 192 24 165
-0.520222 0.023562 0.296109 0.976624 -0.161392 -0.141978 252 106 109
-0.301254 -0.064675 -0.525857 -0.716978 0.053838 -0.695014 36 134 38
-0.048142 0.324807 0.468964 -0.248413 -0.967763 0.041540 95 4 132
0.241699 -0.260767 0.480402 -0.092471 0.970301 0.223529 115 251 155
-0.265922 0.178169 0.116942 -0.078855 -0.595243 0.799667 117 51 229
-0.166903 0.220876 -0.738017 -0.196925 -0.750933 -0.630333 102 31 47
0.413201 -0.164637 -0.282830 -0.675481 0.707325 -0.208366 41 217 100
-0.314898 0.248685 -0.794440 0.147451 -0.947782 0.282786 146 6 163
0.309182 -0.013492 -1.069135 0.005603 0.295544 0.955313 128 165 249
-0.466977 0.146917 -0.424643 -0.625058 -0.586796 -0.514756 47 52 61
0.050396 0.278550 0.321571 -0.386216 -0.904855 0.179091 78 12 150
0.045008 -0.116213 0.068798 0.177094 0.291592 0.940006 150 164 247
0.387728 0.234901 -0.704227 0.140468 -0.953412 -0.266972 145 5 93
0.201788 0.116692 0.291275 -0.859661 -0.510736 -0.011506 17 62 126
-0.011648 -0.259504 0.188704 -0.045337 0.924932 0.377420 121 245 175
0.835478 0.184711 0.592336 -0.936648 -0.350209 -0.006640 8 82 126
0.152199 0.256471 0.586257 0.006760 -0.645757 -0.763513 128 45 30
0.161891 -0.171286 0.020200 0.368486 0.769310 0.521900 174 225 194
-0.019707 0.077667 0.698382 0.007575 0.029582 -0.999534 128 131 0
-0.526900 -0.084805 -0.344965 0.860281 0.185284 -0.474960 237 151 66
-0.013987 -0.263147 -0.910968 0.030432 0.917977 0.395464 131 244 177
0.160637 -0.170311 0.353444 -0.835460 0.543522 0.081176 20 196 137
-0.067333 0.323854 0.503669 0.047593 -0.749211 -0.660620 133 31 43
-0.179155 -0.145193 0.657620 0.011677 0.525042 -0.850996 128 194 18
-0.449388 0.036629 -0.886372 0.539715 -0.073252 0.838655 196 118 234
0.032355 -0.291435 0.362456 -0.519583 0.847162 0.111135 61 235 141
-0.250101 0.031092 -0.989688 0.337464 -0.228117 0.913280 170 98 243
-0.109737 0.337583 0.370365 -0.092252 -0.968116 0.232897 115 4 157
0.088801 -0.283166 0.476368 -0.230922 0.972972 0.000756 98 251 127
0.513352 -0.086024 -0.564451 -0.956748 0.290255 -0.019605 5 164 125
0.830556 -0.086919 0.511210 -0.474929 0.278960 0.834640 66 163 233
-0.508053 -0.125822 0.340503 0.968821 0.247758 0.001672 251 159 127
-0.059138 0.309132 0.520954 0.047593 -0.749211 -0.660620 133 31 43
0.746577 -0.180552 0.654888 0.017580 0.468175 -0.883461 129 187 14
-0.253611 -0.059367 0.707599 -0.016541 0.128095 -0.991624 125 143 1
-0.549841 0.069476 -0.704606 0.972409 -0.168200 0.161648 251 106 148
0.802951 -0.208337 0.604278 -0.290711 0.926951 -0.237169 90 245 97
-0.373686 -0.046548 0.063761 0.244724 0.337057 0.909122 158 170 243
0.298349 -0.018795 -1.067431 0.005603 0.295544 0.955313 128 165 249
-0.383599 -0.252440 0.209274 0.410820 0.892270 0.187300 179 241 151
0.019247 -0.179670 -0.750795 0.045541 0.487402 -0.871989 133 189 16
0.047749 0.011421 0.041468 0.463842 -0.165004 0.870416 186 106 238
0.717851 0.147804 0.462117 -0.264025 -0.539822 0.799301 93 58 229
0.773456 -0.032191 0.699662 -0.008797 0.052045 -0.998606 126 134 0
-0.320947 -0.012980 -0.501536 -0.716978 0.053838 -0.695014 36 134 38
0.870741 0.090273 0.536139 -0.740850 -0.494591 0.454445 33 64 185
-0.290987 -0.043701 -0.977948 0.465765 0.135365 0.874494 186 144 238
0.132685 0.058852 -0.719317 -0.063181 -0.257698 -0.964158 119 94 4
0.353516 -0.087707 0.383506 -0.263628 0.557645 0.787104 93 198 227
-0.192410 -0.242023 0.585957 0.217104 0.728989 -0.649185 155 220 44
0.530146 0.183678 0.442873 -0.111069 -0.559776 0.821167 113 56 232
0.361537 -0.242709 -0.828490 -0.252592 0.957950 0.136124 95 249 144
-0.145230 -0.202703 0.617428 -0.016959 0.558802 -0.829128 125 198 21
-0.435799 -0.068342 0.563390 0.866592 0.204226 -0.455314 237 153 69
0.422812 -0.154289 -0.285917 -0.940050 0.300511 -0.161243 7 165 106
0.214502 0.138204 0.226367 -0.667778 -0.604069 -0.434941 42 50 72
-0.226380 -0.187076 -0.943475 0.254303 0.657411 0.709324 159 211 217
0.239812 0.079643 -0.349489 0.887047 -0.334352 0.318365 240 84 168
-0.452912 0.000301 -0.370999 -0.720517 -0.141913 -0.678761 35 109 40
0.278457 -0.093007 -0.625505 0.889317 0.453086 0.061874 240 185 135
0.118515 0.187677 -0.993831 -0.009702 -0.473787 0.880586 126 67 239
-0.281359 0.252882 -0.804224 0.194366 -0.948013 0.251978 152 6 159
-0.051603 -0.317621 0.452182 -0.253145 0.967399 -0.007506 95 250 126
0.302334 -0.143367 0.111454 -0.583011 0.613471 -0.532684 53 205 59
0.053756 -0.023787 0.035117 0.574980 0.250621 0.778837 200 159 226
-0.328108 -0.039338 0.682134 0.413731 0.471918 -0.778537 180 187 28
-0.390460 -0.247617 0.395647 0.573640 0.775379 -0.264053 200 226 93
0.519841 -0.023437 -0.710451 -0.997789 -0.065637 0.010465 0 119 128
0.414072 -0.054552 -0.061657 -0.945241 0.267323 -0.187236 6 161 103
0.513542 -0.222236 0.596271 0.020942 0.848298 -0.529105 130 235 60
0.040751 -0.133280 -0.723742 0.045541 0.487402 -0.871989 133 189 16
-0.493442 -0.057129 0.452163 0.933066 -0.032221 -0.358260 246 123 81
0.554352 0.243575 0.572777 -0.087175 -0.895052 -0.437359 116 13 71
0.150459 -0.023241 -1.065188 0.005603 0.295544 0.955313 128 165 249
0.375077 0.157905 -1.003868 -0.325302 -0.669428 0.667866 86 42 212
0.040272 0.299394 0.405652 -0.248413 -0.967763 0.041540 95 4 132
-0.393454 0.154787 0.113116 0.189659 -0.545106 0.816633 151 57 231
0.256731 0.068638 0.700210 0.007575 0.029582 -0.999534 128 131 0
-0.349311 -0.246569 -0.700549 0.122889 0.989704 -0.073373 143 253 118
-0.052089 0.035113 -1.048831 0.066158 -0.172676 0.982754 135 105 252
-0.311190 0.158348 -0.908719 0.442041 -0.543852 0.713319 183 58 218
0.515787 0.073393 -0.604428 -0.939202 -0.343348 0.003385 7 83 127
-0.371259 0.133978 -0.504328 -0.609653 -0.508461 -0.608104 49 62 49
0.535749 0.057093 0.394326 -0.206361 -0.030820 0.977990 101 123 252
-0.426282 -0.229134 0.242823 0.694816 0.691855 0.196387 216 215 152
0.218127 0.110745 -0.259232 0.938693 -0.281138 0.199544 247 91 152
0.384268 0.225140 -0.594102 0.283320 -0.957634 -0.051647 163 5 120
0.412376 -0.028784 -0.022557 -0.920763 0.283778 -0.267706 10 163 93
-0.282710 0.248987 0.188216 0.134808 -0.788432 0.600168 144 26 204
-0.034771 0.078145 -0.716858 -0.514091 -0.033312 -0.857088 61 123 18
-0.421323 0.066593 0.079946 0.359187 -0.303873 0.882409 173 88 240
0.568108 0.095600 0.703368 0.007575 0.029582 -0.999534 128 131 0
0.230426 -0.210364 0.031720 -0.191966 0.950200 -0.245497 103 248 96
0.239211 0.005736 0.707789 -0.016541 0.128095 -0.991624 125 143 1
0.686188 0.173773 0.469197 -0.264025 -0.539822 0.799301 93 58 229
0.194342 -0.168752 -1.008949 0.020801 0.471972 0.881368 130 187 239
0.173580 0.254071 -0.855898 -0.003231 -0.957249 -0.289247 127 5 90
0.125342 -0.274491 0.473767 -0.230922 0.972972 0.000756 98 251 127
-0.500747 -0.028146 0.124927 0.837758 0.303660 0.453819 234 166 185
0.203989 -0.032322 -0.219857 0.941530 0.108501 0.318981 247 141 168
0.707156 0.107207 0.704765 0.007575 0.029582 -0.999534 128 131 0
-0.439504 -0.183722 0.428731 0.698307 0.661406 -0.273695 216 211 92
-0.405994 -0.146939 -0.493413 -0.532435 0.470025 -0.703981 59 187 37
0.869734 0.049251 0.615981 -0.997684 -0.013191 -0.066728 0 125 118
-0.530440 -0.193273 -0.623385 0.774689 0.630004 0.054323 226 207 134
-0.473243 -0.184947 0.308397 0.787006 0.616221 0.029878 227 206 131
0.460409 0.012671 -0.199607 -0.945241 0.267323 -0.187236 6 161 103
-0.260769 0.165307 -0.643040 -0.708015 -0.396048 -0.584689 37 77 52
-0.527679 0.117572 -0.368397 0.755934 -0.403924 -0.515179 223 75 61
-0.440788 -0.199020 0.195012 0.644388 0.609305 0.462073 209 205 186
-0.065688 0.210223 -0.768799 -0.380109 -0.462784 -0.800842 79 68 25
-0.282423 0.232511 -0.859555 0.284704 -0.699461 0.655513 163 38 211
0.307373 -0.202879 -0.240220 0.158702 0.983027 0.092041 147 252 139
0.567166 -0.123513 0.449294 -0.123243 0.398163 0.908998 111 178 243
0.004551 -0.027794 -1.062924 0.005603 0.295544 0.955313 128 165 249
0.493604 -0.161713 -0.704641 -0.770294 0.634423 -0.064453 29 208 119
-0.496398 0.083368 0.149035 0.703995 -0.350966 0.617425 217 82 206
-0.025229 -0.310481 0.482927 -0.253145 0.967399 -0.007506 95 250 126
0.473701 0.136716 -0.396618 -0.830057 -0.443506 -0.338095 21 70 84
0.868596 0.062629 0.630353 -0.997684 -0.013191 -0.066728 0 125 118
-0.245870 0.010127 0.713191 0.000333 -0.294430 -0.955673 127 89 5
0.829674 0.130068 0.652060 -0.334890 -0.349262 -0.875137 84 82 15
-0.528782 0.146269 -0.392514 0.755934 -0.403924 -0.515179 223 75 61
-0.319299 0.068547 0.668585 0.543211 -0.294999 -0.786064 196 89 27
0.362315 0.218714 -0.595370 0.283320 -0.957634 -0.051647 163 5 120
0.395516 0.266552 0.532510 -0.057394 -0.944912 0.322255 120 7 168
0.488560 0.166643 -0.726018 -0.966397 -0.256907 -0.008684 4 94 126
-0.463233 0.168934 -0.803298 0.495882 -0.731949 0.467281 190 34 187
0.472406 -0.153556 0.663738 0.017580 0.468175 -0.883461 129 187 14
-0.005575 -0.217104 -0.773016 0.045541 0.487402 -0.871989 133 189 16
-0.304814 0.115632 0.646973 0.430982 -0.520199 -0.737324 182 61 33
0.869525 -0.045062 0.635415 -0.998904 0.004706 -0.046571 0 128 121
0.377321 0.040271 0.704122 0.000333 -0.294430 -0.955673 127 89 5
0.430124 0.188129 -0.881518 -0.836250 -0.490790 0.244563 20 64 158
0.192309 0.169222 -1.006213 0.024618 -0.563757 0.825574 130 55 232
-0.419571 -0.011305 0.580737 0.796599 -0.044220 -0.602888 229 121 50
-0.142054 -0.048435 0.079705 -0.036917 0.142496 0.989107 122 145 253
-0.473778 -0.171886 0.209184 0.694816 0.691855 0.196387 216 215 152
-0.380926 0.116554 0.603054 0.304376 -0.274468 -0.912153 166 92 11
-0.033269 0.248580 0.591288 0.006760 -0.645757 -0.763513 128 45 30
0.173279 -0.125750 -0.725906 -0.028322 0.208807 -0.977547 123 154 2
-0.359763 -0.225244 0.525467 0.478671 0.820085 -0.313584 188 232 87
-0.102326 -0.254622 0.581559 -0.016959 0.558802 -0.829128 125 198 21
0.411537 -0.002476 -1.036461 -0.410945 0.309050 0.857678 75 166 236
-0.173864 0.059133 -0.637367 -0.600696 -0.132496 -0.788422 50 110 26
0.236551 -0.183247 0.409180 -0.172880 0.487340 0.855928 105 189 236
0.026306 0.082833 0.698884 0.007575 0.029582 -0.999534 128 131 0
0.495761 0.130755 -0.465709 -0.966397 -0.256907 -0.008684 4 94 126
-0.328872 -0.232967 0.539499 0.300624 0.715529 -0.630590 165 218 47
0.029626 0.161410 0.081427 0.518317 -0.443196 0.731386 193 70 220
-0.385745 0.255688 0.345710 0.554222 -0.793586 -0.251117 198 26 95
0.155145 -0.180535 -0.744181 0.045541 0.487402 -0.871989 133 189 16
0.244117 0.199666 0.422266 -0.101141 -0.723762 0.682597 114 35 214
0.073175 -0.177843 0.072369 0.593758 0.259434 0.761673 203 160 224
0.872486 -0.024035 0.574038 -0.998904 0.004706 -0.046571 0 128 121
0.420033 0.094779 0.371600 -0.101714 -0.511874 0.853018 114 62 236
-0.294749 -0.013106 0.062903 -0.156817 0.065365 0.985462 107 135 253
0.161688 -0.064329 -0.047576 0.936399 0.250287 0.245997 246 159 158
0.128302 0.062625 -0.720038 -0.063181 -0.257698 -0.964158 119 94 4
0.457743 0.185687 -0.525376 -0.769427 -0.634225 -0.075775 29 46 117
0.474512 -0.131071 0.675696 0.017580 0.468175 -0.883461 129 187 14
-0.231862 0.072654 -0.608872 -0.414280 -0.432652 -0.800740 74 72 25
0.286586 0.155269 -1.018552 0.024618 -0.563757 0.825574 130 55 232
0.708571 -0.102293 0.462588 -0.242757 0.405036 0.881485 96 179 239
0.227837 0.113257 0.352100 -0.599100 -0.367847 0.711173 51 80 218
0.519219 -0.067187 -0.571883 -0.956748 0.290255 -0.019605 5 164 125
0.218785 0.205104 -0.002708 0.484103 -0.817918 0.310894 189 23 167
-0.561928 0.154093 -0.596543 0.942249 -0.218569 0.253760 247 99 159
0.618841 0.121703 0.703925 0.036277 -0.458299 -0.888058 132 69 14
-0.257388 0.277681 0.223748 0.090987 -0.825921 0.556396 139 22 198
0.264006 -0.084914 0.351547 -0.263628 0.557645 0.787104 93 198 227
0.206888 -0.189701 0.173419 -0.749914 0.501412 -0.431527 31 191 72
-0.410375 0.243417 0.246242 0.446801 -0.878519 0.169033 184 15 149
0.227324 -0.250087 0.467045 -0.132113 0.687494 0.714071 110 215 218
0.329251 -0.107471 0.099129 -0.768146 0.247648 -0.590443 29 159 52
-0.308177 -0.194180 0.128992 0.113728 0.721620 0.682884 142 219 214
-0.192147 0.319952 0.297018 -0.056397 -0.931984 0.358086 120 8 173
0.413174 -0.102645 0.691999 0.011677 0.525042 -0.850996 128 194 18
0.742251 0.087669 0.704453 0.007575 0.029582 -0.999534 128 131 0
-0.024992 -0.294726 0.543366 -0.011435 0.928864 -0.370244 126 245 80
0.519500 -0.005910 -0.633038 -0.997789 -0.065637 0.010465 0 119 128
-0.166133 -0.185471 -0.966561 0.254303 0.657411 0.709324 159 211 217
0.355204 -0.208613 -0.316355 -0.524180 0.849290 -0.062775 60 235 119
0.030950 0.044515 -0.714487 0.067988 0.006595 -0.997664 136 128 0
0.445928 -0.204985 -0.611806 -0.653200 0.756951 -0.018857 44 224 125
0.136090 -0.038873 -0.028206 0.718824 0.227448 0.656932 219 156 211
-0.293370 0.254910 0.536054 0.138736 -0.825431 -0.547190 145 22 57
0.446874 0.164356 0.418438 -0.111069 -0.559776 0.821167 113 56 232
0.840735 -0.052577 0.664176 -0.515466 0.057821 -0.854957 61 134 18
-0.411260 0.123855 0.560664 0.766629 -0.431213 -0.475746 225 72 66
0.489782 0.058947 -0.335389 -0.824439 -0.432624 -0.364881 22 72 80
0.119278 0.268560 0.575741 0.006760 -0.645757 -0.763513 128 45 30
-0.108571 -0.326063 0.468016 -0.013099 0.927828 -0.372778 125 245 79
-0.234577 0.157098 -0.653094 -0.414280 -0.432652 -0.800740 74 72 25
-0.395110 -0.199201 0.508926 0.709595 0.652373 -0.266239 217 210 93
0.237117 0.191768 0.642020 0.005013 -0.682509 -0.730860 128 40 34
0.379329 -0.050488 0.050534 -0.858945 0.006099 -0.512032 17 128 62
0.483340 -0.113027 -0.891534 -0.862507 0.403972 0.304776 17 179 166
-0.467906 -0.228615 -0.683560 0.587402 0.777048 0.226176 202 226 156
0.285942 -0.119688 -0.537702 0.889317 0.453086 0.061874 240 185 135
0.432832 0.153847 -0.319231 -0.824439 -0.432624 -0.364881 22 72 80
-0.272841 0.108265 -0.589782 -0.708015 -0.396048 -0.584689 37 77 52
0.224191 0.054802 0.276376 -0.792725 -0.282354 -0.540243 26 91 58
0.424970 -0.190319 -0.406143 -0.243496 0.924351 -0.293743 96 245 90
-0.512629 0.089160 -0.347512 -0.466444 -0.234143 -0.852999 68 97 18
-0.427804 -0.081933 0.572509 0.866592 0.204226 -0.455314 237 153 69
-0.520089 -0.061211 0.225206 0.981200 0.188278 0.042405 252 151 132
-0.584942 0.045011 -0.596966 0.939211 -0.160104 0.303727 247 107 166
0.671271 0.112195 0.704641 0.007575 0.029582 -0.999534 128 131 0
0.428804 0.118262 -0.219939 -0.924492 -0.350456 -0.149985 9 82 108
0.311019 -0.200222 -0.301446 0.352402 0.935478 0.026336 172 246 130
0.603879 0.173706 0.661402 0.005013 -0.682509 -0.730860 128 40 34
-0.277428 0.253291 0.192684 0.134808 -0.788432 0.600168 144 26 204
-0.397689 -0.011178 0.609979 0.805118 -0.045171 -0.591392 230 121 52
0.060405 -0.289861 0.420023 -0.230922 0.972972 0.000756 98 251 127
-0.418329 -0.216697 -0.572662 0.051700 0.971068 -0.233139 134 251 97
-0.409209 0.194839 -0.523092 -0.539064 -0.569923 -0.620160 58 54 48
-0.410734 -0.086246 -0.449306 -0.532435 0.470025 -0.703981 59 187 37
-0.230774 0.136795 0.661430 0.036277 -0.458299 -0.888058 132 69 14
-0.347759 0.172828 0.597189 0.304376 -0.274468 -0.912153 166 92 11
0.423651 -0.164758 -0.317116 -0.675481 0.707325 -0.208366 41 217 100
0.093158 0.165932 -0.754475 0.025247 -0.495723 -0.868114 130 64 16
-0.278784 0.205830 0.610275 0.304376 -0.274468 -0.912153 166 92 11
0.122546 0.220583 0.262526 -0.810536 -0.576208 0.104959 24 54 140
0.232577 -0.219203 0.438283 -0.132113 0.687494 0.714071 110 215 218
-0.251895 0.205571 0.619325 0.304376 -0.274468 -0.912153 166 92 11
-0.119651 0.271656 0.207522 0.008262 -0.825408 0.564476 128 22 199
0.023200 -0.238190 -0.787807 -0.015388 0.680313 -0.732760 125 214 34
0.566107 -0.128093 0.679097 0.017580 0.468175 -0.883461 129 187 14
0.239776 -0.116477 -0.245226 0.833290 0.541072 0.113437 233 196 141
0.045479 0.252242 -0.855114 0.018652 -0.973625 -0.227392 129 3 98
-0.444540 -0.122583 -0.858909 0.463769 0.666940 0.583189 186 212 201
-0.453134 0.086969 0.524086 0.817078 -0.072759 -0.571917 231 118 54
0.464061 -0.045770 -0.286788 -0.762590 0.414588 -0.496562 30 180 64
0.267785 0.137983 0.144867 -0.667778 -0.604069 -0.434941 42 50 72
0.102300 -0.211102 0.096748 0.308469 0.846614 0.433695 166 235 182
-0.437838 0.112475 -0.420764 -0.625058 -0.586796 -0.514756 47 52 61
0.251941 -0.134871 0.383125 -0.260207 0.561740 0.785328 94 199 227
0.045190 -0.192548 0.096398 0.308584 0.649586 0.694848 166 210 216
-0.418266 0.244190 0.271118 0.446801 -0.878519 0.169033 184 15 149
-0.442535 0.160246 0.455627 0.890129 -0.338677 -0.304908 240 84 88
0.275691 0.141633 -0.384354 0.887047 -0.334352 0.318365 240 84 168
0.341959 0.230374 -0.716197 0.409759 -0.876294 -0.253389 179 15 95
-0.051497 -0.317415 0.370924 -0.246429 0.964718 0.092694 96 250 139
-0.227984 0.265173 0.538221 0.195709 -0.815663 -0.544418 152 23 58
0.174601 -0.205585 0.211071 -0.749914 0.501412 -0.431527 31 191 72
-0.045499 -0.016409 0.709677 -0.016541 0.128095 -0.991624 125 143 1
-0.216721 -0.183756 -0.950014 0.254303 0.657411 0.709324 159 211 217
-0.483570 0.005538 0.472239 0.933066 -0.032221 -0.358260 246 123 81
0.295436 -0.136558 -0.460564 0.723251 0.685999 -0.079458 219 214 117
-0.500714 -0.098168 -0.804756 0.890436 0.252123 0.378890 241 159 175
0.655879 0.129298 0.701519 0.036277 -0.458299 -0.888058 132 69 14
0.004433 0.227374 -0.792524 -0.014791 -0.582119 -0.812969 125 53 23
-0.005078 -0.304993 0.365042 -0.246429 0.964718 0.092694 96 250 139
-0.190955 0.026707 -1.012208 0.325768 -0.228213 0.917493 169 98 244
-0.181662 -0.115261 -0.639833 -0.583793 0.269114 -0.766005 53 161 29
-0.041587 -0.300864 0.528480 -0.011435 0.928864 -0.370244 126 245 80
-0.210629 0.177450 0.641272 0.036277 -0.458299 -0.888058 132 69 14
0.128781 -0.198136 0.619681 0.020942 0.848298 -0.529105 130 235 60
-0.198879 0.255249 -0.858938 0.194366 -0.948013 0.251978 152 6 159
0.229246 -0.027045 -0.317454 0.975218 0.103012 0.195805 251 140 152
-0.306249 -0.127531 -0.934119 0.351877 0.412496 0.840255 172 180 234
-0.371068 -0.021043 -0.938410 0.487098 0.111350 0.866219 189 141 237
0.440782 0.046213 -0.994040 -0.905106 -0.165334 0.391725 12 106 177
0.175489 -0.235388 0.442262 -0.568607 0.686997 0.452461 55 215 185
-0.214938 0.333959 0.414635 0.216982 -0.967263 -0.131611 155 4 110
-0.508930 0.094360 -0.817894 0.763172 -0.316350 0.563463 224 87 199
-0.482728 -0.090358 0.463282 0.870240 0.203671 -0.448554 238 153 70
-0.088775 -0.229741 -0.952872 0.237401 0.841496 0.485310 157 234 189
-0.151976 0.076427 0.695803 0.036277 -0.458299 -0.888058 132 69 14
0.625879 -0.213263 0.615103 0.020942 0.848298 -0.529105 130 235 60
0.231972 -0.262391 -0.910865 -0.028353 0.998995 -0.034707 123 254 123
-0.175472 -0.323634 0.454546 0.229997 0.964631 -0.128794 156 250 111
-0.405232 0.042312 -0.914292 0.539715 -0.073252 0.838655 196 118 234
0.273363 -0.089043 -0.581313 0.889317 0.453086 0.061874 240 185 135
0.183664 -0.192802 -0.749548 0.045541 0.487402 -0.871989 133 189 16
-0.361368 0.171071 0.116534 0.189659 -0.545106 0.816633 151 57 231
-0.086132 -0.251845 0.180582 0.037082 0.796556 0.603427 132 229 204
0.169622 -0.211826 -0.766406 -0.015388 0.680313 -0.732760 125 214 34
0.180985 -0.244665 -0.960933 0.010241 0.847668 0.530428 128 235 195
-0.330762 -0.052213 -0.955446 0.465765 0.135365 0.874494 186 144 238
0.464155 0.012476 0.377911 -0.190944 0.043192 0.980650 103 133 252
0.057124 0.083199 0.050079 0.463842 -0.165004 0.870416 186 106 238
-0.367894 -0.034700 -0.938380 0.465765 0.135365 0.874494 186 144 238
-0.572875 0.094661 -0.607084 0.942249 -0.218569 0.253760 247 99 159
0.410973 -0.109030 -0.989576 -0.478509 0.368470 0.797031 66 174 229
0.261019 -0.115075 0.371974 -0.260207 0.561740 0.785328 94 199 227
