ply
format ascii 1.0
element vertex 1024
property float x
property float y
property float z
property float nx
property float ny
property float nz
property uchar red
property uchar green
property uchar blue
end_header
-0.101937 -0.133541 0.694637 0.014416 0.232836 -0.972409 129 157 3
0.103540 -0.264887 0.358277 0.208303 0.972636 0.102908 154 251 140
-0.073795 -0.109798 -0.851942 0.918380 0.395412 0.015066 244 177 129
0.336093 0.061844 -0.728005 -0.358282 -0.477240 0.802419 81 66 229
-0.059468 -0.046109 -0.640744 0.843477 0.085581 -0.530305 235 138 59
0.404057 0.014334 0.283314 -0.871220 -0.110631 -0.478263 16 113 66
0.080954 0.036655 -0.201425 0.987455 -0.152520 0.040874 253 108 132
-0.015120 -0.056524 -1.070614 0.498699 0.160159 0.851850 191 147 236
0.073372 -0.249033 -0.625908 0.633764 0.720880 -0.280491 208 219 91
0.258385 0.079267 -0.796262 -0.874784 -0.348329 0.336780 15 83 170
-0.770023 0.059554 0.334040 0.761741 -0.291492 0.578605 224 90 201
-0.748966 -0.175229 0.469140 0.967684 0.247971 -0.045795 250 159 121
0.193993 -0.244611 -0.396047 0.396775 0.897590 -0.192096 178 241 103
0.386925 0.177289 -0.186800 -0.864440 -0.502020 -0.026826 17 63 124
-0.051517 0.189428 0.418628 0.775505 -0.467308 0.424518 226 67 181
0.106569 0.257740 -0.606123 0.373139 -0.908927 -0.186060 175 11 103
-0.082160 0.017914 -0.709584 0.948288 -0.090515 -0.304233 248 115 88
-0.547805 -0.132717 0.391184 -0.375785 0.533038 0.758061 79 195 224
0.107676 0.147824 -1.017139 -0.498179 -0.432897 0.751277 63 72 223
-0.638333 0.204730 0.638851 0.248345 -0.797583 -0.549715 159 25 57
0.211994 -0.257396 0.318816 -0.266419 0.940538 -0.210736 93 247 100
-0.745069 -0.177643 0.525606 0.934537 0.332792 -0.126052 246 169 111
-0.274147 -0.066302 0.454883 -0.063698 0.111565 0.991714 119 141 253
0.198414 0.244636 -0.003496 0.262225 -0.964973 0.008054 160 4 128
0.272017 0.262667 0.146396 0.031919 -0.994504 -0.099719 131 0 114
0.077789 -0.076902 0.074677 0.909520 0.414508 0.030921 243 180 131
0.095659 -0.104123 -0.086052 0.909520 0.414508 0.030921 243 180 131
-0.036227 0.144435 0.344406 0.858192 -0.447277 0.251892 236 70 159
-0.078723 0.069355 0.694821 0.007414 -0.563679 -0.825960 128 55 22
0.081657 -0.189843 -0.497369 0.736988 0.501479 -0.453175 221 191 69
0.133214 -0.266559 -0.754618 -0.485193 0.795008 0.364074 65 228 173
0.385460 -0.184996 -0.279124 -0.731260 0.681482 0.029000 34 214 131
0.375839 -0.186087 -0.496075 -0.731260 0.681482 0.029000 34 214 131
0.093234 -0.250234 -0.584453 0.619041 0.714172 -0.326720 206 218 85
0.107393 0.026277 -1.047275 -0.220971 -0.164728 0.961268 99 106 250
-0.513493 -0.164984 0.424785 -0.265852 0.497110 0.825957 93 190 232
0.040009 -0.028662 -0.466968 0.860869 -0.034862 -0.507631 237 123 62
-0.012337 0.191806 -0.967945 0.481940 -0.736604 0.474498 188 33 187
-0.387106 0.078299 0.698608 -0.019730 -0.154422 -0.987808 124 107 1
-0.465197 0.064330 0.411193 -0.424876 -0.261172 0.866758 73 94 238
-0.161467 -0.057687 0.446254 0.389485 0.051735 0.919578 177 134 244
-0.471008 -0.203405 0.468887 -0.381864 0.608536 0.695603 78 205 216
0.198592 -0.213747 -0.805956 -0.783812 0.580624 0.220262 27 201 155
0.073501 0.180561 0.227807 0.680364 -0.518426 0.518015 214 61 193
0.129508 -0.265830 0.385458 -0.266419 0.940538 -0.210736 93 247 100
0.416554 0.139355 -0.611427 -0.904747 -0.425557 -0.018252 12 73 125
0.086857 0.220366 0.272765 0.563499 -0.719180 0.406509 199 35 179
-0.771784 0.107834 0.510819 0.832006 -0.551851 -0.056801 233 57 120
-0.028656 -0.177621 -0.691235 0.676557 0.686136 -0.267372 213 214 93
-0.485538 0.088245 0.411343 -0.323480 -0.336788 0.884271 86 84 240
-0.336900 -0.067569 0.451589 -0.018395 0.280259 0.959748 125 163 249
0.065233 0.013685 0.104256 0.989370 -0.139988 0.039361 253 109 132
0.233141 0.154706 0.473060 -0.678000 -0.422359 -0.601605 41 73 50
0.009176 0.212841 0.366095 0.566275 -0.712539 0.414272 199 36 180
-0.464826 -0.234401 0.584447 0.029093 0.861567 -0.506809 131 237 62
-0.038503 0.011663 -0.598075 0.843477 0.085581 -0.530305 235 138 59
0.445557 0.014627 0.048838 -0.999830 0.015086 -0.010620 0 129 126
0.350839 -0.209964 -0.565369 -0.731260 0.681482 0.029000 34 214 131
-0.493630 0.259170 0.526884 -0.322969 -0.790951 0.519700 86 26 193
-0.641540 -0.221147 0.612157 0.221696 0.762134 -0.608279 155 224 49
0.060313 0.241444 0.528719 -0.485390 -0.792731 -0.368746 65 26 80
0.136631 0.183843 -0.019533 0.852173 -0.522867 0.020275 236 60 130
-0.075895 -0.056292 -0.991441 0.936879 0.181300 0.298978 246 150 165
0.390670 -0.172715 -0.436327 -0.731260 0.681482 0.029000 34 214 131
0.146806 0.268768 0.310192 0.328825 -0.913000 0.241464 169 11 158
-0.515408 0.266721 0.547465 0.049959 -0.992682 -0.109941 133 0 113
-0.094909 -0.008356 -0.894259 0.992844 0.118745 -0.012648 254 142 125
0.182168 0.228353 -0.141377 0.718291 -0.695707 0.007107 219 38 128
0.071736 0.049677 0.069865 0.987455 -0.152520 0.040874 253 108 132
0.282347 -0.099262 -0.740727 -0.625316 0.366250 0.689087 47 174 215
-0.414711 -0.089427 0.436630 -0.326752 0.285510 0.900953 85 163 242
-0.706046 -0.216077 0.566846 0.641155 0.755391 -0.135297 209 223 110
0.231530 0.257549 -0.311324 0.455421 -0.889920 -0.025178 185 14 124
0.216673 0.248200 -0.170977 0.262225 -0.964973 0.008054 160 4 128
-0.071650 -0.111588 0.400303 0.700722 0.429658 0.569546 216 182 200
-0.332588 -0.167623 0.672231 0.034133 0.570980 -0.820254 131 200 22
0.288381 -0.062770 -0.760432 -0.758371 0.410402 0.506403 30 179 192
0.072853 0.001592 -0.130293 0.989370 -0.139988 0.039361 253 109 132
0.357724 0.193847 0.221648 -0.860044 -0.420538 -0.288916 17 73 90
-0.308716 -0.013649 0.450199 -0.006383 -0.020269 0.999774 126 124 254
-0.442602 0.186932 0.667365 -0.028159 -0.353147 -0.935144 123 82 8
-0.630043 0.010757 0.301592 -0.548129 -0.025261 0.836012 57 124 234
0.228148 0.255506 -0.300279 0.455421 -0.889920 -0.025178 185 14 124
0.109538 0.122123 -0.361422 0.923471 -0.350950 -0.155035 245 82 107
0.175390 -0.019233 0.600087 -0.671863 0.055221 -0.738614 41 134 33
0.327246 0.149179 0.336931 -0.788789 -0.432137 -0.437115 26 72 71
0.232912 0.258124 0.179186 0.031919 -0.994504 -0.099719 131 0 114
0.454399 0.004414 -0.674734 -0.999586 -0.025158 -0.013945 0 124 125
-0.022857 -0.204878 -0.746511 0.676557 0.686136 -0.267372 213 214 93
-0.382564 0.089900 0.696704 -0.019730 -0.154422 -0.987808 124 107 1
0.003710 -0.016377 0.211736 0.870816 0.036555 0.490248 238 132 190
0.002591 -0.099068 0.261717 0.779946 0.384681 0.493665 226 176 190
0.151648 0.195301 -0.322736 0.677944 -0.731224 -0.075527 213 34 117
-0.010555 -0.213852 -0.843025 0.667726 0.739188 0.087996 212 221 138
0.329150 0.239858 -0.326536 -0.378078 -0.925621 0.016828 79 9 129
-0.071196 0.129858 0.394026 0.787455 -0.394992 0.473176 227 77 187
0.258112 0.268121 -0.274099 -0.298063 -0.954543 0.002302 89 5 127
0.192138 -0.236627 -0.156134 0.606114 0.795364 0.004610 204 228 128
0.355980 -0.212741 -0.370480 -0.731260 0.681482 0.029000 34 214 131
0.283431 0.016631 -0.771195 -0.929905 -0.015428 0.367475 8 125 174
0.153986 -0.230031 -0.866529 -0.492203 0.857390 0.150395 64 236 146
0.067905 -0.018082 -0.075867 0.989370 -0.139988 0.039361 253 109 132
-0.566826 0.057290 0.705482 -0.019730 -0.154422 -0.987808 124 107 1
0.149904 0.239585 0.449969 -0.336052 -0.871100 -0.358127 84 16 81
0.254013 -0.071332 -0.879338 -0.945109 0.324462 0.038636 6 168 132
0.185214 -0.245736 0.395486 -0.317331 0.907331 -0.275772 87 243 92
-0.616812 0.134457 0.352712 -0.449688 -0.439883 0.777357 70 71 226
0.015845 -0.121407 -1.041934 -0.108873 0.262118 0.958875 113 160 249
0.301808 0.185291 -0.670815 -0.366221 -0.470776 0.802653 80 67 229
-0.203706 -0.233405 0.598900 0.013693 0.888370 -0.458924 129 240 68
0.426830 -0.091277 0.028881 -0.941162 0.336960 -0.025915 7 170 124
-0.654462 0.008050 0.285500 -0.548129 -0.025261 0.836012 57 124 234
0.069253 -0.056764 0.055793 0.909520 0.414508 0.030921 243 180 131
0.096819 0.099243 -0.101363 0.919379 -0.392580 0.024974 244 77 130
0.260175 0.025391 -0.854255 -0.991580 -0.051629 0.118762 1 120 142
0.276815 -0.241812 -0.610700 -0.468142 0.813291 0.345543 67 231 171
-0.414989 -0.017353 0.426711 -0.365234 -0.030211 0.930426 80 123 246
-0.200749 0.246055 0.595319 -0.017581 -0.812367 -0.582881 125 23 53
0.048951 -0.107318 0.679627 -0.581102 0.296065 -0.758068 53 165 30
0.054135 0.097034 0.172307 0.803586 -0.387074 0.452132 229 78 185
0.412840 -0.122108 0.136099 -0.941162 0.336960 -0.025915 7 170 124
-0.223796 0.139333 0.689888 0.004282 -0.522575 -0.852583 128 60 18
-0.741754 0.108535 0.322900 0.734466 -0.356082 0.577724 221 82 201
-0.296053 -0.081356 0.704442 0.017699 0.253926 -0.967062 129 159 4
-0.598117 -0.256041 0.577985 -0.125732 0.646884 -0.752152 111 209 31
0.440198 0.038141 0.133154 -0.943024 -0.332374 -0.015248 7 85 125
-0.708288 -0.027926 0.279617 0.049118 0.127592 0.990610 133 143 253
0.355897 0.222686 -0.282648 -0.624179 -0.781135 0.015129 47 27 129
-0.575819 0.221149 0.430097 -0.100775 -0.878835 0.466361 114 15 186
-0.393969 0.189510 0.664927 -0.028159 -0.353147 -0.935144 123 82 8
-0.039672 0.125872 0.323181 0.858192 -0.447277 0.251892 236 70 159
0.146412 0.237360 0.458658 -0.336052 -0.871100 -0.358127 84 16 81
-0.265437 0.149758 0.683289 0.004282 -0.522575 -0.852583 128 60 18
-0.745423 0.049682 0.302208 0.709126 -0.185304 0.680296 217 103 214
-0.091448 0.032831 -0.912459 0.983469 -0.177641 -0.035098 252 104 123
-0.000729 -0.028986 -0.538690 0.887419 0.086787 -0.452720 240 138 69
0.099616 0.268248 -0.671402 0.373139 -0.908927 -0.186060 175 11 103
-0.190754 0.235022 0.541432 -0.101686 -0.941793 0.320447 114 7 168
-0.624346 -0.157282 0.369352 -0.391368 0.528784 0.753140 77 194 223
0.086176 0.069862 -0.171427 0.919379 -0.392580 0.024974 244 77 130
-0.723266 -0.137110 0.327873 0.192077 0.600600 0.776135 151 204 226
-0.674170 -0.183963 0.631002 0.488872 0.227227 -0.842242 189 156 20
0.127018 -0.168743 0.036367 0.830936 0.556017 0.019739 233 198 130
0.122206 0.070521 -1.030826 -0.509588 -0.177855 0.841836 62 104 234
-0.585054 0.214286 0.649057 0.248345 -0.797583 -0.549715 159 25 57
0.446569 -0.080494 -0.554320 -0.934369 0.355484 -0.024193 8 172 124
0.135129 0.181143 -0.026004 0.852173 -0.522867 0.020275 236 60 130
0.090406 0.095633 -0.403352 0.904417 -0.376399 -0.200881 242 79 101
0.436899 -0.029471 -0.693352 -0.362627 0.085038 0.928047 81 138 245
0.071436 0.234341 0.317972 0.566275 -0.712539 0.414272 199 36 180
-0.250878 -0.204570 0.647441 0.029093 0.861567 -0.506809 131 237 62
-0.022071 -0.109795 -1.049414 -0.108873 0.262118 0.958875 113 160 249
-0.287151 0.136525 0.691291 0.004282 -0.522575 -0.852583 128 60 18
0.396083 -0.175728 -0.049480 -0.927168 0.373895 -0.023727 9 175 124
-0.290100 -0.038205 0.450698 -0.063698 0.111565 0.991714 119 141 253
0.175195 0.221927 -0.077147 0.610427 -0.791457 0.031221 205 26 131
0.421556 -0.108530 -0.003906 -0.941162 0.336960 -0.025915 7 170 124
-0.080934 -0.180904 0.454092 0.582716 0.510382 0.632418 201 192 208
0.079567 -0.112631 0.136547 0.845940 0.343732 0.407719 235 171 179
-0.003080 -0.113839 0.701275 0.017699 0.253926 -0.967062 129 159 4
0.400583 0.154747 -0.205074 -0.864440 -0.502020 -0.026826 17 63 124
0.083316 -0.053941 -0.254137 0.981987 0.179476 0.059073 252 150 135
0.005529 -0.228691 -0.758529 0.575132 0.817576 -0.028153 200 231 123
0.103497 -0.203930 -0.480029 0.501071 0.716163 -0.485839 191 218 65
-0.521244 0.134009 0.691657 0.004282 -0.522575 -0.852583 128 60 18
0.280090 -0.255832 -0.393159 -0.394328 0.918826 0.016255 77 244 129
-0.433848 -0.016204 0.418030 -0.468909 0.017612 0.883071 67 129 240
-0.740780 -0.170108 0.577294 0.934537 0.332792 -0.126052 246 169 111
0.068903 -0.221349 -0.567415 0.619041 0.714172 -0.326720 206 218 85
0.045344 -0.064815 -1.057836 -0.325806 0.174134 0.929262 85 149 245
0.070122 0.095138 0.139804 0.841657 -0.337066 0.421900 234 84 181
0.262240 0.258499 0.244994 -0.223891 -0.969843 -0.096320 98 3 115
-0.764960 0.140948 0.441299 0.951279 -0.301568 -0.064234 248 89 119
-0.200179 -0.101060 0.464061 -0.065238 0.404651 0.912141 119 179 243
-0.087640 -0.043112 -0.934796 0.977628 0.208377 0.028694 252 154 131
0.145292 0.191164 -0.194771 0.852173 -0.522867 0.020275 236 60 130
0.238978 -0.120603 0.497942 -0.726899 0.391299 -0.564361 34 177 55
0.129215 -0.242106 0.244645 0.549092 0.741002 0.386541 197 221 176
0.384807 0.187549 -0.310554 -0.864440 -0.502020 -0.026826 17 63 124
-0.102642 0.225368 0.627200 -0.003495 -0.854057 -0.520167 127 18 61
-0.324565 -0.084847 0.703004 0.017699 0.253926 -0.967062 129 159 4
0.158584 -0.254583 0.397020 -0.317331 0.907331 -0.275772 87 243 92
0.039884 0.061619 0.167318 0.803586 -0.387074 0.452132 229 78 185
-0.623751 -0.128419 0.687405 0.034133 0.570980 -0.820254 131 200 22
0.295212 -0.247877 -0.506530 -0.425835 0.904801 0.000357 73 242 127
0.153950 0.199952 -0.218835 0.610427 -0.791457 0.031221 205 26 131
0.086736 0.079572 -0.039389 0.919379 -0.392580 0.024974 244 77 130
0.236996 0.109613 -0.826942 -0.871982 -0.470693 0.134515 16 67 144
-0.134409 -0.016540 0.432478 0.389485 0.051735 0.919578 177 134 244
0.103505 0.121770 0.006603 0.919379 -0.392580 0.024974 244 77 130
0.189946 -0.234399 -0.252306 0.606114 0.795364 0.004610 204 228 128
-0.035052 -0.179622 -0.898687 0.843342 0.529866 0.089533 235 195 138
-0.784082 0.064515 0.571996 0.908305 -0.195141 -0.370002 243 102 80
0.206467 -0.170102 0.496006 -0.655401 0.477379 -0.585286 43 188 52
-0.216813 0.206859 0.498847 -0.023024 -0.319938 0.947159 124 86 248
0.319597 0.189898 0.303877 -0.688554 -0.585089 -0.428443 39 52 72
0.154272 0.200088 -0.221678 0.610427 -0.791457 0.031221 205 26 131
0.075183 0.243379 0.328395 0.566275 -0.712539 0.414272 199 36 180
0.315101 0.241898 -0.553763 -0.419342 -0.907734 -0.013062 74 11 125
0.428781 -0.096047 -0.103988 -0.941162 0.336960 -0.025915 7 170 124
0.048812 0.105849 0.189315 0.803586 -0.387074 0.452132 229 78 185
0.453959 -0.045060 -0.553883 -0.999586 -0.025158 -0.013945 0 124 125
0.447890 -0.006160 -0.189053 -0.999586 -0.025158 -0.013945 0 124 125
0.116174 -0.143484 -0.164172 0.910203 0.413021 0.030722 243 180 131
-0.182429 -0.076565 0.707780 0.017699 0.253926 -0.967062 129 159 4
0.175655 -0.266147 -0.691963 -0.168036 0.980006 0.106545 106 252 141
-0.023398 -0.081922 -0.589152 0.843477 0.085581 -0.530305 235 138 59
-0.062736 0.097850 -0.760784 0.955450 -0.283581 -0.081838 249 91 117
0.409476 -0.151773 -0.195365 -0.927168 0.373895 -0.023727 9 175 124
0.051282 0.248974 0.516867 -0.021144 -0.977652 -0.209164 124 2 100
0.074701 -0.015703 -0.227100 0.981987 0.179476 0.059073 252 150 135
-0.188908 0.115902 0.467283 0.218812 -0.138675 0.965863 155 109 250
0.048047 -0.257464 -0.834597 0.177125 0.983134 -0.045555 150 252 121
-0.077136 -0.124399 0.416717 0.700722 0.429658 0.569546 216 182 200
0.354209 0.185918 0.243651 -0.860044 -0.420538 -0.288916 17 73 90
-0.702068 -0.073393 0.669413 0.588143 0.404321 -0.700437 202 179 38
0.073780 -0.019494 -0.200268 0.981987 0.179476 0.059073 252 150 135
0.070488 -0.007029 -0.101484 0.989370 -0.139988 0.039361 253 109 132
0.151463 -0.226567 -0.463928 0.501071 0.716163 -0.485839 191 218 65
0.083801 -0.077567 -0.093252 0.909520 0.414508 0.030921 243 180 131
-0.096589 -0.120305 0.433541 0.482583 0.383758 0.787301 189 176 227
0.306229 0.246160 -0.565139 -0.419342 -0.907734 -0.013062 74 11 125
0.428705 0.083677 -0.148638 -0.943024 -0.332374 -0.015248 7 85 125
0.209014 -0.268199 -0.623475 -0.164984 0.979919 0.111982 106 252 141
-0.509085 0.141544 0.420309 -0.590604 -0.285686 0.754699 52 91 223
-0.781582 0.094901 0.492941 0.832006 -0.551851 -0.056801 233 57 120
0.099035 0.259766 -0.858048 -0.009863 -0.997193 0.074217 126 0 136
-0.022978 -0.097009 -0.597839 0.865997 0.270710 -0.420435 237 162 73
0.391924 0.178981 -0.379555 -0.864440 -0.502020 -0.026826 17 63 124
0.281327 0.226441 -0.641460 -0.438013 -0.782219 0.443032 71 27 183
-0.628155 -0.213632 0.430043 -0.104874 0.901939 0.418936 114 242 180
0.032388 0.250521 -0.870552 0.615774 -0.781830 0.097795 206 27 139
-0.058450 0.096947 -0.707614 0.955450 -0.283581 -0.081838 249 91 117
0.356153 -0.193167 0.225667 -0.812328 0.519377 -0.265276 23 193 93
0.177455 -0.263930 -0.533068 -0.049212 0.993797 -0.099733 121 254 114
0.261605 0.076893 -0.790352 -0.874784 -0.348329 0.336780 15 83 170
0.083699 0.063082 -0.169133 0.987455 -0.152520 0.040874 253 108 132
0.192271 -0.200658 -0.862951 -0.783812 0.580624 0.220262 27 201 155
-0.036692 -0.158830 -0.979854 0.782804 0.471413 0.406186 227 187 179
-0.018891 0.012128 0.704994 -0.044874 -0.185501 -0.981619 121 103 2
0.161095 0.264054 0.273778 0.055531 -0.966168 0.251864 134 4 159
-0.325449 0.001653 0.720987 -0.044874 -0.185501 -0.981619 121 103 2
0.295172 -0.207209 -0.663830 -0.366689 0.578755 0.728410 80 201 220
0.442880 -0.084352 -0.468526 -0.934369 0.355484 -0.024193 8 172 124
0.072580 0.014813 -0.076388 0.989370 -0.139988 0.039361 253 109 132
-0.320903 -0.023117 0.449929 -0.006383 -0.020269 0.999774 126 124 254
0.062570 -0.174828 -1.007967 -0.261023 0.590829 0.763406 94 202 224
0.302432 0.249425 -0.400640 -0.378078 -0.925621 0.016828 79 9 129
0.399910 0.163867 -0.357910 -0.904747 -0.425557 -0.018252 12 73 125
0.055279 -0.132389 -0.488660 0.782060 0.301378 -0.545485 227 165 57
-0.584537 -0.191927 0.644828 0.034133 0.570980 -0.820254 131 200 22
0.158439 -0.075981 -1.001373 -0.500528 0.195353 0.843392 63 152 235
0.414476 0.127007 -0.220554 -0.904747 -0.425557 -0.018252 12 73 125
0.229506 -0.148916 -0.858665 -0.948592 0.246958 0.197952 6 158 152
-0.106929 -0.201809 0.494915 0.582716 0.510382 0.632418 201 192 208
-0.219603 -0.005694 0.717634 -0.045154 -0.225591 -0.973175 121 98 3
0.382150 0.177825 -0.615183 -0.565891 -0.736079 0.371422 55 33 174
-0.797745 0.032668 0.555252 0.908305 -0.195141 -0.370002 243 102 80
0.067428 -0.256336 -0.734896 0.177125 0.983134 -0.045555 150 252 121
0.353154 -0.230346 0.046334 -0.677468 0.735176 0.023520 41 221 130
0.015500 -0.243803 0.412511 0.654812 0.648935 0.387433 210 210 176
0.201017 0.242685 -0.322010 0.262225 -0.964973 0.008054 160 4 128
0.035273 -0.000640 0.704931 -0.044874 -0.185501 -0.981619 121 103 2
0.195311 0.141365 -0.956464 -0.720102 -0.626001 0.299292 35 47 165
-0.134902 0.147134 0.471094 0.171108 -0.489790 0.854885 149 65 236
0.073583 0.086733 0.652624 -0.610173 -0.238746 -0.755440 49 97 31
0.448884 0.021083 -0.255287 -0.999830 0.015086 -0.010620 0 129 126
-0.422132 -0.020375 0.725946 0.025986 0.552781 -0.832921 130 197 21
0.093334 -0.198282 0.592047 -0.427997 0.784205 -0.449268 72 227 70
-0.462908 -0.245591 0.565536 0.029093 0.861567 -0.506809 131 237 62
-0.092274 0.105617 0.424482 0.921168 -0.192594 0.338166 244 102 170
0.059214 -0.185937 -0.528444 0.729649 0.497232 -0.469439 220 190 67
0.176114 -0.264370 -0.536796 -0.049212 0.993797 -0.099733 121 254 114
-0.647966 0.239833 0.455393 0.246860 -0.958513 0.142522 158 5 145
0.237758 0.259460 0.167411 0.031919 -0.994504 -0.099719 131 0 114
0.288355 0.063646 -0.752317 -0.805886 -0.383474 0.451105 24 78 185
-0.290732 0.242900 0.532861 -0.101686 -0.941793 0.320447 114 7 168
-0.434625 -0.037251 0.714356 0.025986 0.552781 -0.832921 130 197 21
0.096772 -0.229193 0.534816 -0.427997 0.784205 -0.449268 72 227 70
-0.492360 0.129293 0.424481 -0.323480 -0.336788 0.884271 86 84 240
0.423289 0.123965 -0.586440 -0.904747 -0.425557 -0.018252 12 73 125
0.403284 -0.164767 -0.305030 -0.731260 0.681482 0.029000 34 214 131
0.412450 0.074551 0.214022 -0.922605 -0.267853 -0.277586 9 93 92
0.019515 0.146995 -1.025584 -0.042663 -0.518058 0.854281 122 61 236
0.403793 -0.081929 0.258115 -0.927051 0.268209 -0.261994 9 161 94
-0.381157 0.260650 0.564366 -0.025176 -0.964427 -0.263147 124 4 93
0.106658 -0.266382 -0.709454 0.235596 0.971464 0.027437 157 251 130
-0.066688 0.135073 0.689529 -0.010920 -0.034015 -0.999362 126 123 0
0.278650 0.033964 -0.776699 -0.849114 -0.127371 0.512623 19 111 192
-0.004618 0.143094 -0.596765 0.835755 -0.274412 -0.475618 234 92 66
-0.373938 -0.070194 0.445322 -0.326752 0.285510 0.900953 85 163 242
-0.743969 0.175484 0.395665 0.846127 -0.513816 0.141644 235 61 145
-0.081796 -0.042624 -0.706639 0.964364 0.121520 -0.235019 250 142 97
0.100737 0.166855 0.163187 0.721553 -0.625061 0.297759 219 47 165
0.046883 0.235327 -0.945051 0.161050 -0.929799 0.330964 148 8 169
0.082152 -0.038253 -0.282454 0.981987 0.179476 0.059073 252 150 135
-0.397561 -0.221982 0.518742 -0.188000 0.864100 0.466891 103 237 187
0.223573 0.120121 -0.877187 -0.871982 -0.470693 0.134515 16 67 144
-0.187964 -0.080188 0.458742 0.389485 0.051735 0.919578 177 134 244
0.038257 0.087673 0.680943 -0.750514 -0.041536 -0.659548 31 122 43
-0.738437 -0.181108 0.436381 0.856798 0.478180 0.192976 236 188 152
-0.014084 -0.067731 -1.069114 0.498699 0.160159 0.851850 191 147 236
-0.671802 -0.153642 0.334797 -0.487347 0.578983 0.653660 65 201 210
0.285509 0.254952 -0.476782 -0.378078 -0.925621 0.016828 79 9 129
0.102703 -0.203880 0.573351 -0.427997 0.784205 -0.449268 72 227 70
0.451329 0.001904 -0.450134 -0.999586 -0.025158 -0.013945 0 124 125
-0.047453 -0.015086 -1.058786 0.534590 0.158225 0.830167 195 147 233
0.279036 -0.018528 -0.783794 -0.929905 -0.015428 0.367475 8 125 174
0.200385 -0.083684 -0.971767 -0.535715 0.275229 0.798285 59 162 229
-0.574399 -0.216328 0.444830 0.010369 0.847656 0.530444 128 235 195
0.364516 0.151345 0.261663 -0.862153 -0.407225 -0.301430 17 75 89
-0.530063 0.232242 0.624504 -0.017581 -0.812367 -0.582881 125 23 53
-0.419284 0.263407 0.557907 -0.025176 -0.964427 -0.263147 124 4 93
0.181593 0.227818 -0.135633 0.718291 -0.695707 0.007107 219 38 128
0.353159 -0.216469 -0.354009 -0.731260 0.681482 0.029000 34 214 131
0.087467 0.045439 -0.325981 0.987455 -0.152520 0.040874 253 108 132
-0.021469 0.063200 -0.580281 0.835755 -0.274412 -0.475618 234 92 66
-0.060465 0.234496 0.513231 0.387157 -0.916561 0.100126 176 10 140
-0.459978 0.025731 0.721170 0.007414 -0.563679 -0.825960 128 55 22
0.135843 0.190037 -0.974137 -0.498179 -0.432897 0.751277 63 72 223
-0.653949 0.006292 0.727385 0.417190 0.094921 -0.903849 180 139 12
-0.083252 -0.089158 -0.737882 0.992844 0.118745 -0.012648 254 142 125
0.307216 0.197737 -0.661047 -0.366221 -0.470776 0.802653 80 67 229
0.290813 -0.253562 -0.261353 -0.394328 0.918826 0.016255 77 244 129
0.367433 0.102124 0.310930 -0.788789 -0.432137 -0.437115 26 72 71
0.009323 -0.109620 0.259304 0.779946 0.384681 0.493665 226 176 190
0.374291 0.186893 0.040600 -0.864440 -0.502020 -0.026826 17 63 124
-0.518858 0.195049 0.442129 -0.447103 -0.648423 0.616155 70 44 206
-0.625555 -0.069970 0.310149 -0.444851 0.312013 0.839497 70 167 234
0.340402 -0.100729 -0.714143 -0.312331 0.398070 0.862548 87 178 237
-0.112469 0.136398 0.689984 -0.010920 -0.034015 -0.999362 126 123 0
0.065295 -0.020948 -0.020469 0.989370 -0.139988 0.039361 253 109 132
-0.029143 -0.044226 -0.592206 0.843477 0.085581 -0.530305 235 138 59
0.351012 -0.224396 -0.201325 -0.677468 0.735176 0.023520 41 221 130
0.102934 -0.111018 -0.208360 0.910203 0.413021 0.030722 243 180 131
-0.493314 0.162821 0.677997 -0.028159 -0.353147 -0.935144 123 82 8
0.250676 -0.256502 0.238442 -0.278866 0.953573 -0.113725 91 249 113
0.239777 0.256735 0.099342 0.262225 -0.964973 0.008054 160 4 128
-0.053817 -0.156420 -0.846104 0.918380 0.395412 0.015066 244 177 129
0.429500 0.098127 -0.408494 -0.955811 -0.293347 -0.019298 5 90 125
0.159167 0.206007 -0.358893 0.677944 -0.731224 -0.075527 213 34 117
-0.004033 0.242627 0.560998 -0.169837 -0.977021 -0.128788 105 2 111
0.297821 -0.246623 -0.570725 -0.425835 0.904801 0.000357 73 242 127
-0.033287 0.175585 0.370087 0.775505 -0.467308 0.424518 226 67 181
-0.617586 0.109404 0.337485 -0.547006 -0.496979 0.673644 57 64 213
-0.612094 0.250509 0.569215 0.387144 -0.848767 -0.360160 176 19 81
0.052897 -0.237794 -0.932388 0.175501 0.928809 0.326365 149 245 169
0.226666 0.220791 -0.716057 -0.648842 -0.498512 0.574883 44 63 200
-0.621773 -0.112347 0.335520 -0.487347 0.578983 0.653660 65 201 210
0.113953 0.262760 0.332216 0.328825 -0.913000 0.241464 169 11 158
-0.186686 0.023169 0.710578 -0.044874 -0.185501 -0.981619 121 103 2
0.390620 0.180008 -0.356746 -0.864440 -0.502020 -0.026826 17 63 124
0.365927 -0.197772 0.186167 -0.823299 0.524512 -0.216946 22 194 99
-0.005084 -0.111467 -1.047243 -0.008394 0.560322 0.828233 126 198 233
0.318878 0.246402 -0.197415 -0.378078 -0.925621 0.016828 79 9 129
-0.095023 -0.075072 0.412830 0.863308 0.210547 0.458661 237 154 185
0.421810 -0.121736 -0.204070 -0.934369 0.355484 -0.024193 8 172 124
0.088496 0.099172 -0.418579 0.904417 -0.376399 -0.200881 242 79 101
0.197133 -0.208073 -0.826102 -0.783812 0.580624 0.220262 27 201 155
-0.111381 -0.100972 0.702671 0.017699 0.253926 -0.967062 129 159 4
0.198058 -0.226761 -0.764768 -0.457748 0.872079 0.173043 69 238 149
-0.495745 -0.164472 0.430724 -0.326030 0.479986 0.814443 85 188 231
0.188664 -0.035988 0.586760 -0.671863 0.055221 -0.738614 41 134 33
0.386741 -0.187198 -0.195069 -0.731260 0.681482 0.029000 34 214 131
0.223564 -0.252735 -0.289054 0.456164 0.889803 0.012842 185 240 129
0.273307 0.263613 -0.175670 -0.298063 -0.954543 0.002302 89 5 127
0.452142 0.028920 -0.550851 -0.999830 0.015086 -0.010620 0 129 126
-0.084530 0.081521 0.389664 0.921168 -0.192594 0.338166 244 102 170
0.115812 0.249623 -0.875770 -0.618700 -0.771381 0.148938 48 29 146
0.110160 0.135305 -0.048883 0.939708 -0.341627 0.015495 247 83 129
0.109112 0.263067 0.414765 -0.133538 -0.973178 -0.187332 110 3 103
0.105172 0.122668 -0.040637 0.919379 -0.392580 0.024974 244 77 130
0.444823 -0.065771 -0.292959 -0.941162 0.336960 -0.025915 7 170 124
-0.660127 -0.201396 0.630129 0.221696 0.762134 -0.608279 155 224 49
0.190189 0.141867 0.530478 -0.678000 -0.422359 -0.601605 41 73 50
-0.469243 -0.129156 0.420520 -0.326030 0.479986 0.814443 85 188 231
-0.087694 -0.021210 -0.975742 0.936879 0.181300 0.298978 246 150 165
-0.108977 -0.157002 0.460642 0.582716 0.510382 0.632418 201 192 208
-0.081530 -0.089838 -0.803647 0.977628 0.208377 0.028694 252 154 131
0.095314 -0.238767 0.514621 -0.323811 0.892256 -0.314684 86 241 87
0.223889 0.164575 -0.797633 -0.874784 -0.348329 0.336780 15 83 170
-0.018190 -0.077642 0.277854 0.779946 0.384681 0.493665 226 176 190
0.123324 -0.160965 -0.027240 0.830936 0.556017 0.019739 233 198 130
0.413168 -0.048434 0.259230 -0.927051 0.268209 -0.261994 9 161 94
0.258377 -0.151093 -0.734930 -0.625316 0.366250 0.689087 47 174 215
-0.109873 -0.244490 0.580241 0.013693 0.888370 -0.458924 129 240 68
-0.010584 -0.213228 -0.848038 0.667726 0.739188 0.087996 212 221 138
0.441443 0.055490 -0.321972 -0.943024 -0.332374 -0.015248 7 85 125
0.070633 0.229470 -0.599058 0.647761 -0.684973 -0.333493 210 40 84
0.406055 0.136098 -0.032409 -0.864440 -0.502020 -0.026826 17 63 124
0.223880 -0.145340 -0.885476 -0.847298 0.432821 0.307819 19 182 166
0.101820 -0.123691 -0.005002 0.910203 0.413021 0.030722 243 180 131
-0.048680 -0.136140 -0.983084 0.782804 0.471413 0.406186 227 187 179
0.325148 -0.238294 -0.291468 -0.394328 0.918826 0.016255 77 244 129
0.406181 0.046041 0.262368 -0.922605 -0.267853 -0.277586 9 93 92
-0.501622 -0.198098 0.643984 0.034133 0.570980 -0.820254 131 200 22
-0.489418 0.161726 0.437910 -0.323480 -0.336788 0.884271 86 84 240
-0.080910 -0.046094 0.719523 0.025986 0.552781 -0.832921 130 197 21
-0.556378 0.231651 0.454088 -0.100775 -0.878835 0.466361 114 15 186
0.013213 -0.218233 0.619490 -0.241429 0.750610 -0.615058 96 223 49
-0.016629 -0.240340 0.590132 -0.000441 0.888618 -0.458647 127 240 69
0.199238 0.243657 -0.147727 0.262225 -0.964973 0.008054 160 4 128
-0.100873 -0.232426 0.529782 -0.034178 0.960873 0.274873 123 250 162
-0.496589 0.006143 0.727962 -0.044874 -0.185501 -0.981619 121 103 2
0.094714 -0.110802 0.031272 0.909520 0.414508 0.030921 243 180 131
0.078888 0.251937 -0.633292 0.373139 -0.908927 -0.186060 175 11 103
0.364838 0.067574 0.342557 -0.872450 -0.107784 -0.476669 16 113 66
0.373057 0.207346 -0.302379 -0.864440 -0.502020 -0.026826 17 63 124
0.449435 0.005532 -0.320865 -0.999586 -0.025158 -0.013945 0 124 125
0.159111 0.245184 0.212046 0.670726 -0.702087 0.239165 213 37 157
0.093942 -0.097455 -0.124940 0.909520 0.414508 0.030921 243 180 131
-0.092705 -0.019180 -0.936038 0.977628 0.208377 0.028694 252 154 131
-0.554461 0.264991 0.545337 0.049959 -0.992682 -0.109941 133 0 113
0.192799 -0.257439 -0.458454 0.396775 0.897590 -0.192096 178 241 103
-0.142170 0.109134 0.455723 0.218812 -0.138675 0.965863 155 109 250
-0.697000 0.228032 0.486872 0.509081 -0.860125 0.031962 192 17 131
0.059661 0.255481 0.378629 0.328825 -0.913000 0.241464 169 11 158
-0.689933 0.030873 0.275693 0.230807 -0.194555 0.953350 156 102 249
-0.073088 -0.114699 -0.766408 0.918380 0.395412 0.015066 244 177 129
0.061499 0.174117 -1.007040 -0.042663 -0.518058 0.854281 122 61 236
0.285644 0.258545 -0.276162 -0.378078 -0.925621 0.016828 79 9 129
-0.587044 -0.252924 0.578814 -0.125732 0.646884 -0.752152 111 209 31
0.165008 -0.048460 0.607346 -0.671863 0.055221 -0.738614 41 134 33
0.433224 0.093901 -0.528703 -0.955811 -0.293347 -0.019298 5 90 125
-0.082600 -0.076326 -0.865312 0.977628 0.208377 0.028694 252 154 131
-0.021412 -0.112117 -0.604341 0.865997 0.270710 -0.420435 237 162 73
-0.586080 0.091392 0.700535 -0.019730 -0.154422 -0.987808 124 107 1
-0.633251 0.209148 0.634738 0.248345 -0.797583 -0.549715 159 25 57
0.262798 0.025054 -0.832499 -0.991580 -0.051629 0.118762 1 120 142
0.076440 0.014863 -0.173255 0.989370 -0.139988 0.039361 253 109 132
0.049471 -0.255062 -0.777219 0.177125 0.983134 -0.045555 150 252 121
0.337674 0.077139 0.388728 -0.789499 -0.427243 -0.440629 26 73 71
0.376618 -0.182518 -0.560297 -0.731260 0.681482 0.029000 34 214 131
-0.030839 0.243174 0.583392 -0.088752 -0.897676 -0.431627 116 13 72
-0.071801 -0.009793 -0.669051 0.948288 -0.090515 -0.304233 248 115 88
-0.071916 0.038793 -0.683866 0.948288 -0.090515 -0.304233 248 115 88
0.146090 0.188471 -0.305938 0.821735 -0.569723 0.012918 232 54 129
0.046643 0.127068 -0.503189 0.796688 -0.331286 -0.505507 229 85 63
-0.749057 -0.139139 0.597696 0.934537 0.332792 -0.126052 246 169 111
0.230853 0.157106 -0.787269 -0.874784 -0.348329 0.336780 15 83 170
0.184641 -0.232195 0.064887 0.606114 0.795364 0.004610 204 228 128
-0.009220 -0.126475 0.301734 0.779946 0.384681 0.493665 226 176 190
0.346100 0.025525 0.386361 -0.872450 -0.107784 -0.476669 16 113 66
0.386039 -0.189628 0.123975 -0.927168 0.373895 -0.023727 9 175 124
-0.533385 0.032364 0.715985 0.007414 -0.563679 -0.825960 128 55 22
0.051617 -0.251228 -0.682139 0.312066 0.943378 -0.112486 167 247 113
-0.492056 0.210328 0.654509 -0.003495 -0.854057 -0.520167 127 18 61
-0.027531 -0.241105 0.588661 -0.000441 0.888618 -0.458647 127 240 69
0.095895 -0.215953 0.245139 0.562473 0.698782 0.441959 199 216 183
-0.371337 0.144473 0.685996 0.004282 -0.522575 -0.852583 128 60 18
0.175524 -0.224158 -0.122999 0.606114 0.795364 0.004610 204 228 128
0.351793 -0.218230 -0.347059 -0.731260 0.681482 0.029000 34 214 131
0.063983 0.010139 -0.427084 0.873558 -0.014205 -0.486512 238 125 65
0.061869 -0.019115 -0.430025 0.873558 -0.014205 -0.486512 238 125 65
-0.103739 -0.020074 0.406572 0.817604 0.031934 0.574895 231 131 200
0.060470 -0.250335 -0.900767 0.175501 0.928809 0.326365 149 245 169
-0.747181 0.189541 0.476453 0.951279 -0.301568 -0.064234 248 89 119
-0.535781 -0.221877 0.601664 0.029093 0.861567 -0.506809 131 237 62
-0.738798 0.063371 0.643737 0.815452 -0.125205 -0.565122 231 111 55
-0.654277 -0.191945 0.378135 -0.391368 0.528784 0.753140 77 194 223
0.209671 -0.245980 -0.263599 0.456164 0.889803 0.012842 185 240 129
0.212736 -0.248390 -0.205519 0.456164 0.889803 0.012842 185 240 129
0.037409 -0.103234 -0.505482 0.845936 0.244260 -0.474056 235 158 67
0.226383 -0.046344 -0.963862 -0.813013 0.284012 0.508278 23 163 192
-0.037283 0.176582 -0.885146 0.890682 -0.454480 -0.011586 241 69 126
-0.536868 0.173654 0.675218 -0.028159 -0.353147 -0.935144 123 82 8
0.105621 0.005585 -1.049895 -0.325806 0.174134 0.929262 85 149 245
0.400373 -0.115773 -0.680839 -0.378147 0.558687 0.738156 79 198 221
0.203817 -0.245741 -0.072197 0.456164 0.889803 0.012842 185 240 129
0.261757 0.099607 -0.769265 -0.805886 -0.383474 0.451105 24 78 185
0.103725 0.073486 0.632313 -0.618108 -0.167565 -0.768027 48 106 29
0.013322 -0.239612 0.409172 0.654812 0.648935 0.387433 210 210 176
-0.531875 -0.063931 0.369840 -0.572501 0.088794 0.815082 54 138 231
-0.044842 -0.156949 -0.940651 0.843342 0.529866 0.089533 235 195 138
-0.734544 0.117013 0.318960 0.734466 -0.356082 0.577724 221 82 201
-0.051059 -0.165690 -0.770950 0.918380 0.395412 0.015066 244 177 129
0.140599 -0.229509 -0.906012 -0.497121 0.800723 0.334237 64 229 170
0.450403 0.029176 -0.386780 -0.999830 0.015086 -0.010620 0 129 126
0.142183 0.183688 -0.268341 0.821735 -0.569723 0.012918 232 54 129
0.282135 -0.244615 0.229188 -0.419394 0.899392 -0.123297 74 242 111
-0.105702 0.228066 0.540256 0.078163 -0.926091 0.369115 137 9 174
0.052191 -0.104497 -0.479755 0.845936 0.244260 -0.474056 235 158 67
0.148111 -0.192329 -0.118559 0.776888 0.628904 0.030410 226 207 131
0.111139 -0.235763 -0.527692 0.495287 0.786129 -0.369718 190 227 80
-0.157379 0.066661 0.453070 0.218812 -0.138675 0.965863 155 109 250
0.083533 -0.080179 -0.050359 0.909520 0.414508 0.030921 243 180 131
-0.672774 0.242855 0.518688 0.246860 -0.958513 0.142522 158 5 145
0.085190 0.129728 0.629661 -0.610173 -0.238746 -0.755440 49 97 31
-0.007542 -0.163181 0.327686 0.779946 0.384681 0.493665 226 176 190
0.013541 0.076372 0.226767 0.803586 -0.387074 0.452132 229 78 185
0.286565 0.108877 -0.722903 -0.767207 -0.364397 0.527833 29 81 194
0.217846 0.275151 -0.525525 -0.193692 -0.980934 0.015861 102 2 129
-0.042494 -0.098072 0.337288 0.823815 0.356126 0.441026 232 172 183
0.384711 -0.175371 -0.524160 -0.731260 0.681482 0.029000 34 214 131
-0.085668 0.199090 0.469193 0.657602 -0.439385 0.611965 211 71 205
0.173610 -0.222959 -0.078212 0.606114 0.795364 0.004610 204 228 128
-0.008669 -0.045666 0.717113 -0.045154 -0.225591 -0.973175 121 98 3
0.357151 0.069764 -0.713892 -0.358282 -0.477240 0.802419 81 66 229
0.268197 0.265595 -0.015687 -0.298063 -0.954543 0.002302 89 5 127
0.131453 -0.258469 0.415456 -0.317331 0.907331 -0.275772 87 243 92
-0.652314 0.115245 0.685765 0.545099 -0.520068 -0.657568 197 61 43
0.091886 0.083454 -0.167955 0.919379 -0.392580 0.024974 244 77 130
0.241752 0.089211 -0.867506 -0.871982 -0.470693 0.134515 16 67 144
-0.002839 -0.117642 -1.045085 -0.108873 0.262118 0.958875 113 160 249
-0.232885 0.244992 0.557366 -0.101686 -0.941793 0.320447 114 7 168
-0.229400 0.121896 0.469208 -0.062156 -0.149645 0.986784 119 108 253
-0.356468 0.197872 0.492417 -0.023024 -0.319938 0.947159 124 86 248
-0.224704 0.059074 0.458159 -0.040808 -0.183820 0.982112 122 104 252
-0.188333 0.209158 0.651315 -0.028159 -0.353147 -0.935144 123 82 8
0.103024 0.108309 -0.211343 0.939708 -0.341627 0.015495 247 83 129
-0.688711 -0.120897 0.306775 0.192077 0.600600 0.776135 151 204 226
0.424901 0.083264 0.095652 -0.943024 -0.332374 -0.015248 7 85 125
-0.496159 0.023186 0.384157 -0.468909 0.017612 0.883071 67 129 240
-0.085002 -0.066835 -0.732313 0.964364 0.121520 -0.235019 250 142 97
0.289344 -0.254570 -0.100018 -0.292703 0.956181 -0.006526 90 249 126
0.100930 0.263309 0.352027 0.328825 -0.913000 0.241464 169 11 158
-0.237418 -0.166383 0.483151 0.165156 0.183187 0.969106 148 150 251
0.350803 -0.211913 -0.520492 -0.731260 0.681482 0.029000 34 214 131
0.102560 0.123025 0.061121 0.919379 -0.392580 0.024974 244 77 130
0.105865 0.109922 -1.032393 -0.509588 -0.177855 0.841836 62 104 234
0.145910 -0.183246 -0.250156 0.776888 0.628904 0.030410 226 207 131
0.279450 0.257818 -0.455282 -0.378078 -0.925621 0.016828 79 9 129
0.055629 0.006406 -0.441974 0.873558 -0.014205 -0.486512 238 125 65
0.064391 -0.038983 -0.424912 0.860869 -0.034862 -0.507631 237 123 62
0.395845 0.168839 -0.316107 -0.864440 -0.502020 -0.026826 17 63 124
0.279552 0.261424 -0.254656 -0.378078 -0.925621 0.016828 79 9 129
-0.008631 0.151686 -0.614062 0.849125 -0.386925 -0.359550 235 78 81
-0.060609 -0.181574 0.670214 0.017105 0.467409 -0.883876 129 187 14
0.081687 0.254187 -0.638668 0.373139 -0.908927 -0.186060 175 11 103
0.243124 -0.266090 -0.586995 -0.049212 0.993797 -0.099733 121 254 114
-0.700394 -0.136158 0.321476 0.192077 0.600600 0.776135 151 204 226
0.167640 0.253922 -0.734534 -0.495234 -0.799853 0.339086 64 25 170
-0.045051 0.036372 0.300181 0.907313 0.022727 0.419840 243 130 181
-0.023227 0.141122 -0.637165 0.849125 -0.386925 -0.359550 235 78 81
0.218389 -0.229715 0.407128 -0.431624 0.845748 -0.313705 72 235 87
0.081651 0.173427 -1.005470 -0.181109 -0.570930 0.800774 104 54 229
0.156344 0.235470 -0.802699 -0.479243 -0.828945 0.288403 66 21 164
0.363875 0.133636 -0.672901 -0.358282 -0.477240 0.802419 81 66 229
0.384343 0.038721 -0.716688 -0.318211 0.013419 0.947925 86 129 248
0.060680 -0.266355 0.458903 0.208303 0.972636 0.102908 154 251 140
0.379207 0.186119 -0.103358 -0.864440 -0.502020 -0.026826 17 63 124
0.054085 -0.254599 -0.749276 0.177125 0.983134 -0.045555 150 252 121
-0.012652 -0.213830 -0.827294 0.667726 0.739188 0.087996 212 221 138
-0.478579 -0.026232 0.720298 0.025986 0.552781 -0.832921 130 197 21
0.157064 -0.229337 -0.860416 -0.492203 0.857390 0.150395 64 236 146
0.010007 0.073108 -0.528519 0.845845 -0.274941 -0.457115 235 92 69
-0.626150 -0.209504 0.421660 -0.104874 0.901939 0.418936 114 242 180
0.448522 0.015599 -0.228950 -0.999830 0.015086 -0.010620 0 129 126
0.397777 0.143188 0.101651 -0.864440 -0.502020 -0.026826 17 63 124
0.025177 0.249638 0.407514 0.566275 -0.712539 0.414272 199 36 180
0.027027 0.245222 -0.717777 0.379419 -0.924430 -0.038355 175 9 122
-0.591851 0.133762 0.691939 -0.028159 -0.353147 -0.935144 123 82 8
-0.391077 0.207399 0.658084 -0.028159 -0.353147 -0.935144 123 82 8
-0.093276 -0.014580 -0.949970 0.977628 0.208377 0.028694 252 154 131
0.111980 0.229687 -0.948511 -0.165814 -0.820423 0.547185 106 22 197
-0.577431 -0.234018 0.473158 0.010369 0.847656 0.530444 128 235 195
0.107979 -0.191011 -0.456362 0.501071 0.716163 -0.485839 191 218 65
-0.098972 0.183873 0.472564 0.657602 -0.439385 0.611965 211 71 205
0.216689 0.189885 -0.776665 -0.815392 -0.520093 0.254243 23 61 159
0.420818 -0.136106 -0.391655 -0.927168 0.373895 -0.023727 9 175 124
0.150209 -0.138710 -0.986468 -0.535715 0.275229 0.798285 59 162 229
-0.061304 -0.201196 0.659823 0.017105 0.467409 -0.883876 129 187 14
0.115014 0.134791 -1.019783 -0.498179 -0.432897 0.751277 63 72 223
0.328104 -0.121533 0.368883 -0.762790 0.446552 -0.467699 30 184 67
-0.711163 -0.000291 0.682084 0.772628 0.164691 -0.613125 226 148 49
-0.007268 -0.244261 0.573718 -0.053472 0.982724 -0.177186 120 252 104
0.057211 0.239153 -0.939330 0.161050 -0.929799 0.330964 148 8 169
0.096884 -0.080566 -1.036815 -0.325806 0.174134 0.929262 85 149 245
0.140734 -0.217500 -0.934582 -0.497121 0.800723 0.334237 64 229 170
0.015087 -0.012275 0.191220 0.870816 0.036555 0.490248 238 132 190
0.026113 -0.227739 -0.681148 0.677276 0.686039 -0.265796 213 214 93
-0.006151 0.168067 -0.625835 0.849125 -0.386925 -0.359550 235 78 81
0.036520 -0.084192 -0.497257 0.845936 0.244260 -0.474056 235 158 67
0.062279 -0.005260 0.111140 0.989370 -0.139988 0.039361 253 109 132
0.451988 -0.040584 -0.420682 -0.999586 -0.025158 -0.013945 0 124 125
-0.512941 -0.017258 0.725182 0.025986 0.552781 -0.832921 130 197 21
-0.080910 -0.070458 -0.965519 0.977628 0.208377 0.028694 252 154 131
-0.090013 -0.034922 -0.913421 0.977628 0.208377 0.028694 252 154 131
0.318992 -0.244537 0.040363 -0.292703 0.956181 -0.006526 90 249 126
0.123536 -0.254016 -0.829449 -0.492203 0.857390 0.150395 64 236 146
-0.014307 0.216914 -0.845203 0.615774 -0.781830 0.097795 206 27 139
-0.112728 0.152420 0.469148 0.726488 -0.378538 0.573519 220 79 200
-0.341541 0.191680 0.662529 -0.028159 -0.353147 -0.935144 123 82 8
-0.066741 0.073012 -0.721030 0.954294 -0.287443 -0.081848 249 90 117
-0.481175 -0.255344 0.556838 -0.093638 0.964169 -0.248215 115 250 95
0.137862 0.025103 0.616650 -0.639686 -0.346481 -0.686114 45 83 40
0.167319 -0.208591 -0.272956 0.776888 0.628904 0.030410 226 207 131
0.042778 0.168597 0.256185 0.680364 -0.518426 0.518015 214 61 193
0.110885 -0.155252 -0.414078 0.920591 0.353613 -0.165739 244 172 106
0.352637 -0.175055 0.271896 -0.812328 0.519377 -0.265276 23 193 93
-0.008369 0.066451 -1.067001 -0.220971 -0.164728 0.961268 99 106 250
-0.782948 -0.058421 0.430968 0.944650 0.326266 -0.034454 247 169 123
-0.016795 0.199520 -0.710199 0.653776 -0.669262 -0.353079 210 42 82
0.399910 0.147031 -0.038987 -0.864440 -0.502020 -0.026826 17 63 124
0.331682 -0.056126 0.402096 -0.858970 0.161533 -0.485878 17 148 65
0.219370 -0.249974 -0.331353 0.456164 0.889803 0.012842 185 240 129
-0.038774 -0.200973 0.659601 -0.242304 0.612595 -0.752340 96 205 31
0.102111 0.070099 0.634351 -0.618108 -0.167565 -0.768027 48 106 29
0.267833 0.233534 0.312126 -0.481523 -0.830084 -0.281240 66 21 91
0.299520 0.251756 0.194705 -0.465920 -0.874075 -0.137517 68 16 109
-0.068105 0.153822 0.409736 0.775505 -0.467308 0.424518 226 67 181
0.190259 -0.268035 0.289886 -0.278866 0.953573 -0.113725 91 249 113
-0.026236 0.244652 0.574921 -0.169837 -0.977021 -0.128788 105 2 111
-0.065778 -0.135314 0.410977 0.700722 0.429658 0.569546 216 182 200
0.448794 -0.068438 -0.471850 -0.941162 0.336960 -0.025915 7 170 124
-0.371486 -0.229086 0.598841 0.029093 0.861567 -0.506809 131 237 62
-0.354943 0.242341 0.605147 -0.017581 -0.812367 -0.582881 125 23 53
-0.034126 -0.211627 0.645779 -0.000441 0.888618 -0.458647 127 240 69
0.399055 0.160700 -0.267233 -0.864440 -0.502020 -0.026826 17 63 124
-0.458057 -0.252124 0.546412 -0.195230 0.937636 0.287617 102 247 164
0.118931 0.147333 -0.315665 0.939708 -0.341627 0.015495 247 83 129
0.104407 0.156102 -0.431486 0.795285 -0.332481 -0.506931 228 85 62
-0.592373 0.261683 0.530852 0.236898 -0.965014 -0.112371 157 4 113
0.375847 0.022700 -0.719313 -0.318211 0.013419 0.947925 86 129 248
0.443917 0.027581 0.133334 -0.943024 -0.332374 -0.015248 7 85 125
0.316044 0.246773 -0.240669 -0.378078 -0.925621 0.016828 79 9 129
0.224118 -0.098534 -0.938323 -0.813013 0.284012 0.508278 23 163 192
0.076187 -0.007876 -0.247751 0.989370 -0.139988 0.039361 253 109 132
0.311122 0.248534 -0.254385 -0.378078 -0.925621 0.016828 79 9 129
0.133386 -0.224200 -0.929459 -0.497121 0.800723 0.334237 64 229 170
-0.040146 0.165458 -0.731319 0.955450 -0.283581 -0.081838 249 91 117
-0.160453 0.201663 0.653306 -0.028159 -0.353147 -0.935144 123 82 8
0.404982 0.159250 -0.501656 -0.904747 -0.425557 -0.018252 12 73 125
0.053347 -0.023578 -1.061155 -0.191749 -0.030421 0.980973 103 123 252
-0.366748 -0.119371 0.694104 0.014416 0.232836 -0.972409 129 157 3
0.017970 -0.108677 -1.048897 -0.008394 0.560322 0.828233 126 198 233
-0.244526 0.224807 0.511627 -0.011663 -0.657919 0.752999 126 43 223
0.115715 0.243910 0.471530 -0.336052 -0.871100 -0.358127 84 16 81
-0.089251 0.234677 0.610367 -0.064100 -0.898339 -0.434601 119 12 72
0.186687 -0.256149 -0.465050 0.396775 0.897590 -0.192096 178 241 103
-0.584490 -0.051615 0.334286 -0.578400 0.008038 0.815714 53 128 231
0.402708 -0.159277 -0.448582 -0.731260 0.681482 0.029000 34 214 131
-0.749464 0.183854 0.458854 0.846127 -0.513816 0.141644 235 61 145
0.081174 0.102349 0.123518 0.841657 -0.337066 0.421900 234 84 181
0.209421 0.043814 0.553722 -0.618108 -0.167565 -0.768027 48 106 29
0.008432 0.202378 -0.972627 0.481940 -0.736604 0.474498 188 33 187
-0.765226 0.088772 0.599975 0.815452 -0.125205 -0.565122 231 111 55
0.007040 -0.180109 0.323664 0.695936 0.518216 0.497116 216 193 190
-0.238728 0.217537 0.640971 -0.003495 -0.854057 -0.520167 127 18 61
-0.018343 0.214122 -0.827007 0.902487 -0.430593 -0.010358 242 72 126
-0.274213 -0.245048 0.552352 -0.034178 0.960873 0.274873 123 250 162
-0.046401 -0.145514 -0.976596 0.782804 0.471413 0.406186 227 187 179
-0.203091 -0.106753 0.699552 0.014416 0.232836 -0.972409 129 157 3
0.224466 -0.261508 -0.532136 -0.049212 0.993797 -0.099733 121 254 114
0.441708 -0.099469 -0.645390 -0.934369 0.355484 -0.024193 8 172 124
-0.683818 0.180059 0.349874 0.196933 -0.571412 0.796684 152 54 229
-0.665645 -0.112352 0.304657 -0.444851 0.312013 0.839497 70 167 234
0.421348 -0.132809 -0.360419 -0.927168 0.373895 -0.023727 9 175 124
0.155352 -0.272257 0.323055 0.208303 0.972636 0.102908 154 251 140
-0.091767 0.007721 -0.794316 0.983469 -0.177641 -0.035098 252 104 123
-0.000687 0.215572 0.384204 0.511089 -0.727365 0.457962 192 34 185
-0.385725 -0.002415 0.438683 -0.365234 -0.030211 0.930426 80 123 246
0.098177 0.108838 -0.000543 0.919379 -0.392580 0.024974 244 77 130
-0.440815 0.168879 0.674129 -0.028159 -0.353147 -0.935144 123 82 8
0.263073 0.257166 0.198392 0.031919 -0.994504 -0.099719 131 0 114
-0.787566 -0.026417 0.394304 0.991381 0.125292 0.038276 253 143 132
-0.364185 -0.028547 0.445404 -0.251336 0.034729 0.967277 95 131 250
0.296029 -0.115325 0.428120 -0.726899 0.391299 -0.564361 34 177 55
0.230466 -0.116747 -0.907552 -0.847298 0.432821 0.307819 19 182 166
-0.002727 -0.001471 0.222058 0.870816 0.036555 0.490248 238 132 190
0.300869 -0.249980 -0.219902 -0.394328 0.918826 0.016255 77 244 129
0.145440 0.200920 -0.951891 -0.720102 -0.626001 0.299292 35 47 165
0.139933 0.249795 0.434492 -0.336052 -0.871100 -0.358127 84 16 81
0.324363 0.237671 -0.554421 -0.378078 -0.925621 0.016828 79 9 129
0.051126 0.252869 0.498678 -0.021144 -0.977652 -0.209164 124 2 100
0.238406 -0.256516 0.082234 0.172660 0.984836 -0.016949 149 253 125
-0.744592 -0.086505 0.624906 0.772230 0.097656 -0.627793 225 139 47
0.441568 0.033795 0.143203 -0.943024 -0.332374 -0.015248 7 85 125
-0.496241 -0.179523 0.657137 0.034133 0.570980 -0.820254 131 200 22
-0.668409 0.237795 0.476641 0.195605 -0.971241 0.135758 152 3 144
0.208390 -0.094840 0.555202 -0.726899 0.391299 -0.564361 34 177 55
0.045915 0.115681 -1.041405 -0.054735 -0.415853 0.907783 120 74 243
0.037477 -0.254595 0.402735 0.296206 0.929206 0.220992 165 245 155
0.452670 -0.042188 -0.466670 -0.999586 -0.025158 -0.013945 0 124 125
0.167226 -0.111808 -0.984324 -0.535715 0.275229 0.798285 59 162 229
-0.598108 -0.142400 0.372537 -0.391368 0.528784 0.753140 77 194 223
0.300734 -0.250396 0.000784 -0.292703 0.956181 -0.006526 90 249 126
0.016602 -0.047467 0.195513 0.782399 0.407476 0.470973 227 179 187
-0.530673 0.239086 0.479898 -0.447103 -0.648423 0.616155 70 44 206
0.254632 -0.130750 0.470745 -0.726899 0.391299 -0.564361 34 177 55
-0.296517 0.172429 0.669237 0.004282 -0.522575 -0.852583 128 60 18
0.092153 -0.264011 -0.806684 0.006626 0.995740 0.091972 128 254 139
-0.500564 -0.212989 0.465944 -0.260269 0.736486 0.624379 94 221 207
0.451406 0.035542 -0.503353 -0.943024 -0.332374 -0.015248 7 85 125
-0.719589 -0.200974 0.586992 0.641155 0.755391 -0.135297 209 223 110
0.125752 0.164597 -0.065100 0.821735 -0.569723 0.012918 232 54 129
0.361991 -0.219523 -0.037416 -0.677468 0.735176 0.023520 41 221 130
-0.728994 -0.197631 0.429125 0.897017 0.403190 0.181103 241 178 150
0.015710 -0.100924 0.705010 0.017699 0.253926 -0.967062 129 159 4
0.057011 -0.052006 0.132235 0.845940 0.343732 0.407719 235 171 179
-0.700969 -0.181707 0.616056 0.488872 0.227227 -0.842242 189 156 20
0.031098 0.154828 0.257746 0.680364 -0.518426 0.518015 214 61 193
0.408805 -0.146526 -0.086445 -0.927168 0.373895 -0.023727 9 175 124
-0.114078 -0.014126 0.714692 -0.045154 -0.225591 -0.973175 121 98 3
0.446262 0.017664 -0.013290 -0.999830 0.015086 -0.010620 0 129 126
0.264968 -0.181135 0.417603 -0.610295 0.636359 -0.471792 49 208 67
0.195662 -0.247789 0.376709 -0.317331 0.907331 -0.275772 87 243 92
0.424644 -0.105157 -0.072216 -0.941162 0.336960 -0.025915 7 170 124
-0.054455 0.107439 -0.697338 0.955450 -0.283581 -0.081838 249 91 117
0.067409 0.231894 -0.958710 -0.165814 -0.820423 0.547185 106 22 197
0.197325 -0.240367 -0.192947 0.606114 0.795364 0.004610 204 228 128
-0.281029 -0.079878 0.456254 -0.018395 0.280259 0.959748 125 163 249
0.071909 -0.098837 0.665341 -0.581102 0.296065 -0.758068 53 165 30
0.123811 -0.239719 0.482597 -0.323811 0.892256 -0.314684 86 241 87
0.287898 0.259161 -0.132662 -0.298063 -0.954543 0.002302 89 5 127
-0.703886 0.179362 0.619211 0.675501 -0.386604 -0.627882 213 78 47
-0.070956 0.133728 0.689621 -0.010920 -0.034015 -0.999362 126 123 0
-0.023773 0.114674 0.289332 0.744072 -0.224002 0.629428 222 98 207
0.003003 0.149859 -0.587277 0.835755 -0.274412 -0.475618 234 92 66
-0.807779 0.035050 0.529364 0.908305 -0.195141 -0.370002 243 102 80
0.081272 0.176156 0.213191 0.680364 -0.518426 0.518015 214 61 193
0.144437 -0.270068 -0.603900 0.244638 0.954725 -0.169270 158 249 105
0.325945 -0.053705 0.413043 -0.858970 0.161533 -0.485878 17 148 65
-0.764925 0.035992 0.318808 0.709126 -0.185304 0.680296 217 103 214
0.261369 0.235613 0.317058 -0.481523 -0.830084 -0.281240 66 21 91
0.252444 0.261414 -0.069611 0.455421 -0.889920 -0.025178 185 14 124
0.133196 -0.273578 -0.682529 0.235596 0.971464 0.027437 157 251 130
0.182536 0.227608 -0.251610 0.718291 -0.695707 0.007107 219 38 128
-0.793722 0.071887 0.415552 0.969949 -0.181915 0.161573 251 104 148
0.198434 -0.113503 -0.962796 -0.535715 0.275229 0.798285 59 162 229
-0.087503 -0.058615 -0.784820 0.992844 0.118745 -0.012648 254 142 125
0.042258 0.099123 0.675669 -0.750514 -0.041536 -0.659548 31 122 43
-0.012419 -0.214021 -0.827455 0.667726 0.739188 0.087996 212 221 138
-0.502842 -0.086280 0.390544 -0.407364 0.082351 0.909546 75 137 243
0.441526 -0.094116 -0.559697 -0.934369 0.355484 -0.024193 8 172 124
-0.033468 -0.189921 -0.852654 0.843342 0.529866 0.089533 235 195 138
0.370612 0.192358 0.056878 -0.864440 -0.502020 -0.026826 17 63 124
0.357620 0.214504 0.061072 -0.864440 -0.502020 -0.026826 17 63 124
-0.256858 0.136768 0.691294 0.004282 -0.522575 -0.852583 128 60 18
-0.600832 -0.043694 0.322620 -0.578400 0.008038 0.815714 53 128 231
0.179805 -0.248773 -0.731365 -0.485193 0.795008 0.364074 65 228 173
-0.075976 -0.107334 -0.783632 0.918380 0.395412 0.015066 244 177 129
-0.308568 0.251229 0.591361 -0.017581 -0.812367 -0.582881 125 23 53
0.095319 -0.209967 0.569760 -0.427997 0.784205 -0.449268 72 227 70
-0.002368 -0.120085 -0.577969 0.790729 0.383296 -0.477316 228 176 66
0.241336 -0.177427 -0.736685 -0.720768 0.421551 0.550262 35 181 197
-0.696228 -0.220850 0.586725 0.641155 0.755391 -0.135297 209 223 110
-0.083621 0.073064 -0.982778 0.973055 -0.156510 0.169315 251 107 149
0.217149 0.247931 -0.231471 0.455421 -0.889920 -0.025178 185 14 124
0.354584 -0.226771 -0.024207 -0.677468 0.735176 0.023520 41 221 130
0.384536 0.193038 -0.404543 -0.864440 -0.502020 -0.026826 17 63 124
0.103214 -0.119152 -0.107309 0.910203 0.413021 0.030722 243 180 131
-0.768923 0.127696 0.371377 0.846127 -0.513816 0.141644 235 61 145
-0.078906 -0.237650 0.550775 -0.034178 0.960873 0.274873 123 250 162
0.059914 0.017674 0.693074 -0.639686 -0.346481 -0.686114 45 83 40
0.074109 0.009300 -0.388561 0.977678 -0.032974 -0.207506 252 123 101
0.425300 -0.100316 -0.033089 -0.941162 0.336960 -0.025915 7 170 124
-0.374777 0.049120 0.442382 -0.211468 -0.237510 0.948088 100 97 248
0.408503 -0.134350 0.117217 -0.927168 0.373895 -0.023727 9 175 124
-0.243262 -0.078731 0.706097 0.017699 0.253926 -0.967062 129 159 4
0.232790 0.258842 -0.334220 0.455421 -0.889920 -0.025178 185 14 124
-0.199674 0.213284 0.647691 -0.003495 -0.854057 -0.520167 127 18 61
-0.055810 -0.123507 -0.984004 0.782804 0.471413 0.406186 227 187 179
-0.663871 -0.171559 0.356581 -0.487347 0.578983 0.653660 65 201 210
-0.303023 -0.103594 0.698826 0.014416 0.232836 -0.972409 129 157 3
0.154653 0.210564 0.504585 -0.347456 -0.823108 -0.449186 83 22 70
0.116958 -0.247317 -0.544463 0.495287 0.786129 -0.369718 190 227 80
0.248084 0.110635 -0.790576 -0.874784 -0.348329 0.336780 15 83 170
0.409261 0.122700 0.115024 -0.864440 -0.502020 -0.026826 17 63 124
0.103803 0.104440 -0.343900 0.939708 -0.341627 0.015495 247 83 129
0.430255 0.070811 0.035953 -0.943024 -0.332374 -0.015248 7 85 125
-0.708346 0.203296 0.581712 0.342930 -0.864538 -0.367388 171 17 80
0.082169 0.149586 0.171930 0.721553 -0.625061 0.297759 219 47 165
-0.391360 -0.176639 0.663509 0.034133 0.570980 -0.820254 131 200 22
-0.507778 -0.201325 0.638211 0.029093 0.861567 -0.506809 131 237 62
0.101489 0.254292 -0.911086 -0.618700 -0.771381 0.148938 48 29 146
-0.134416 0.219769 0.514482 -0.101686 -0.941793 0.320447 114 7 168
-0.456321 0.006091 0.405652 -0.468909 0.017612 0.883071 67 129 240
0.436762 -0.052269 0.175378 -0.941162 0.336960 -0.025915 7 170 124
0.306373 -0.185586 0.342118 -0.717104 0.553809 -0.423153 36 198 73
-0.014905 -0.025173 0.245455 0.870816 0.036555 0.490248 238 132 190
-0.551314 -0.227910 0.465426 -0.055222 0.844896 0.532072 120 235 195
0.340240 -0.227536 -0.413474 -0.677468 0.735176 0.023520 41 221 130
0.074285 0.015809 -0.115707 0.989370 -0.139988 0.039361 253 109 132
0.345925 0.056345 0.379714 -0.872450 -0.107784 -0.476669 16 113 66
0.234200 0.248108 0.326694 -0.481523 -0.830084 -0.281240 66 21 91
-0.482706 -0.168783 0.438484 -0.326030 0.479986 0.814443 85 188 231
0.034070 0.187593 0.657737 -0.063740 -0.567841 -0.820667 119 55 22
0.063681 0.086921 0.146088 0.841657 -0.337066 0.421900 234 84 181
0.046187 -0.221191 -0.968484 0.386567 0.859242 0.335066 176 237 170
0.079430 -0.035717 -0.244915 0.981987 0.179476 0.059073 252 150 135
0.342781 -0.234253 -0.092136 -0.394328 0.918826 0.016255 77 244 129
0.121761 -0.254502 -0.832490 -0.492203 0.857390 0.150395 64 236 146
0.191439 0.189976 -0.855648 -0.874784 -0.348329 0.336780 15 83 170
-0.042282 -0.124586 -0.655357 0.865997 0.270710 -0.420435 237 162 73
0.358032 0.212626 0.157491 -0.877448 -0.478151 0.038165 15 66 132
0.078650 0.001013 -0.278050 0.989370 -0.139988 0.039361 253 109 132
-0.095835 0.014664 -0.943451 0.983469 -0.177641 -0.035098 252 104 123
0.388800 -0.072225 0.295538 -0.861090 0.157348 -0.483493 17 147 65
0.075094 -0.042737 -0.151493 0.981987 0.179476 0.059073 252 150 135
-0.748809 0.178654 0.436080 0.846127 -0.513816 0.141644 235 61 145
0.164942 -0.206744 -0.250406 0.776888 0.628904 0.030410 226 207 131
-0.366731 -0.113930 0.695407 0.014416 0.232836 -0.972409 129 157 3
-0.311018 0.072295 0.456545 -0.062156 -0.149645 0.986784 119 108 253
-0.093448 -0.018701 -0.876706 0.992844 0.118745 -0.012648 254 142 125
0.042906 -0.261818 0.451997 0.208303 0.972636 0.102908 154 251 140
-0.731937 0.086568 0.642442 0.545099 -0.520068 -0.657568 197 61 43
0.113491 0.271292 -0.684198 0.263949 -0.961491 0.076590 161 4 137
0.102751 -0.239123 0.505958 -0.323811 0.892256 -0.314684 86 241 87
-0.606128 0.086515 0.701698 -0.019730 -0.154422 -0.987808 124 107 1
0.081556 -0.210179 0.254259 0.562473 0.698782 0.441959 199 216 183
0.072487 0.014660 -0.074602 0.989370 -0.139988 0.039361 253 109 132
-0.391806 -0.127191 0.456364 -0.210469 0.220078 0.952506 100 155 248
-0.370667 0.229305 0.513604 -0.011663 -0.657919 0.752999 126 43 223
-0.666159 0.172197 0.344369 -0.547006 -0.496979 0.673644 57 64 213
0.098398 0.111094 0.026785 0.919379 -0.392580 0.024974 244 77 130
0.431741 -0.087484 -0.100170 -0.941162 0.336960 -0.025915 7 170 124
0.447137 0.031052 -0.141440 -0.943024 -0.332374 -0.015248 7 85 125
-0.489745 -0.163139 0.668812 0.034133 0.570980 -0.820254 131 200 22
-0.093693 0.026558 -0.943626 0.983469 -0.177641 -0.035098 252 104 123
0.157935 -0.262600 0.363935 -0.266419 0.940538 -0.210736 93 247 100
0.038994 0.168349 -0.541377 0.790031 -0.329590 -0.516934 228 85 61
0.272836 -0.258654 0.042009 -0.292703 0.956181 -0.006526 90 249 126
0.454221 -0.060166 -0.561370 -0.941162 0.336960 -0.025915 7 170 124
-0.195763 -0.170933 0.673225 0.017105 0.467409 -0.883876 129 187 14
-0.165203 -0.016341 0.445510 0.389485 0.051735 0.919578 177 134 244
0.085812 0.077931 -0.390864 0.904417 -0.376399 -0.200881 242 79 101
0.249542 0.051818 -0.910117 -0.910471 -0.203480 0.360054 11 101 173
-0.714039 0.217585 0.477144 0.509081 -0.860125 0.031962 192 17 131
0.310479 0.089367 0.425598 -0.789499 -0.427243 -0.440629 26 73 71
-0.078937 0.213209 0.472099 0.657602 -0.439385 0.611965 211 71 205
0.234948 -0.242155 0.350039 -0.317331 0.907331 -0.275772 87 243 92
-0.039688 -0.187545 -0.752644 0.885897 0.433221 -0.165850 240 182 106
0.154607 0.200147 0.517690 -0.623492 -0.587145 -0.516254 48 52 61
0.167130 0.220761 0.050972 0.610427 -0.791457 0.031221 205 26 131
0.234049 0.186901 -0.737113 -0.648842 -0.498512 0.574883 44 63 200
-0.234505 0.189826 0.660006 -0.028159 -0.353147 -0.935144 123 82 8
-0.443390 -0.016695 0.412973 -0.468909 0.017612 0.883071 67 129 240
-0.656354 0.224352 0.583280 0.387144 -0.848767 -0.360160 176 19 81
0.366701 0.191325 -0.611968 -0.565891 -0.736079 0.371422 55 33 174
0.338513 0.192117 0.268261 -0.611490 -0.739854 -0.280526 49 33 91
0.148606 0.192800 -0.291859 0.852173 -0.522867 0.020275 236 60 130
0.335638 -0.236831 -0.119656 -0.394328 0.918826 0.016255 77 244 129
-0.530448 0.180930 0.425714 -0.407828 -0.450740 0.794046 75 70 228
0.231348 -0.162665 -0.818319 -0.820108 0.539829 0.189754 22 196 151
0.235864 -0.260462 -0.172969 0.172660 0.984836 -0.016949 149 253 125
0.410987 -0.147199 -0.523646 -0.731260 0.681482 0.029000 34 214 131
0.166034 -0.220229 0.117682 0.606606 0.742776 0.283396 204 222 163
0.398012 -0.159247 -0.567684 -0.731260 0.681482 0.029000 34 214 131
-0.795927 0.069979 0.524953 0.832006 -0.551851 -0.056801 233 57 120
-0.053945 -0.019456 0.322423 0.907313 0.022727 0.419840 243 130 181
-0.770410 0.109179 0.359728 0.734466 -0.356082 0.577724 221 82 201
0.302879 0.254683 -0.049858 -0.298063 -0.954543 0.002302 89 5 127
0.413547 -0.126871 0.038001 -0.927168 0.373895 -0.023727 9 175 124
0.438342 -0.061966 -0.008082 -0.941162 0.336960 -0.025915 7 170 124
0.360222 0.209653 0.067999 -0.864440 -0.502020 -0.026826 17 63 124
0.202142 0.276772 -0.582182 -0.173983 -0.976090 0.130298 105 3 144
0.110520 -0.175686 -0.994117 -0.504429 0.391981 0.769352 63 177 225
-0.280734 0.008111 0.717723 -0.044874 -0.185501 -0.981619 121 103 2
0.069728 -0.055691 0.027448 0.909520 0.414508 0.030921 243 180 131
-0.308768 0.104265 0.693222 -0.010920 -0.034015 -0.999362 126 123 0
0.169939 0.135136 0.558026 -0.678000 -0.422359 -0.601605 41 73 50
0.103433 0.123209 0.031868 0.919379 -0.392580 0.024974 244 77 130
0.107716 0.138434 -0.405614 0.904417 -0.376399 -0.200881 242 79 101
0.307144 -0.247966 0.069319 -0.292703 0.956181 -0.006526 90 249 126
-0.019403 0.170876 -0.660154 0.849125 -0.386925 -0.359550 235 78 81
0.269842 -0.258867 0.145177 -0.292703 0.956181 -0.006526 90 249 126
0.081542 -0.082429 0.038378 0.909520 0.414508 0.030921 243 180 131
0.260500 0.266236 -0.094329 0.455421 -0.889920 -0.025178 185 14 124
-0.758419 -0.144215 0.437315 0.967684 0.247971 -0.045795 250 159 121
-0.703972 0.044743 0.698117 0.815452 -0.125205 -0.565122 231 111 55
0.139229 -0.199549 0.130536 0.773613 0.553988 0.307604 226 198 166
0.039174 -0.170401 0.659389 -0.242304 0.612595 -0.752340 96 205 31
-0.091648 0.200364 0.476534 0.657602 -0.439385 0.611965 211 71 205
0.066985 -0.052780 0.069094 0.909520 0.414508 0.030921 243 180 131
-0.716851 0.214042 0.517447 0.561150 -0.820991 -0.105283 199 22 114
-0.011933 -0.217081 -0.778097 0.575132 0.817576 -0.028153 200 231 123
0.061429 -0.026569 0.056709 0.989370 -0.139988 0.039361 253 109 132
-0.072461 -0.180277 0.447984 0.482583 0.383758 0.787301 189 176 227
0.222654 0.051821 -0.973973 -0.509588 -0.177855 0.841836 62 104 234
-0.612436 -0.001588 0.732477 0.025986 0.552781 -0.832921 130 197 21
-0.563925 -0.048303 0.346626 -0.497138 0.012231 0.867585 64 129 238
0.343857 -0.229422 -0.250357 -0.677468 0.735176 0.023520 41 221 130
0.419333 0.133430 -0.611056 -0.904747 -0.425557 -0.018252 12 73 125
0.233708 -0.256978 0.007500 0.172660 0.984836 -0.016949 149 253 125
0.389196 0.183180 -0.593835 -0.565891 -0.736079 0.371422 55 33 174
0.174301 -0.217319 -0.270820 0.776888 0.628904 0.030410 226 207 131
-0.023039 -0.021848 -0.578886 0.843477 0.085581 -0.530305 235 138 59
0.399665 -0.161585 -0.471052 -0.731260 0.681482 0.029000 34 214 131
0.343714 0.228970 -0.460807 -0.624179 -0.781135 0.015129 47 27 129
0.077236 0.021683 -0.167462 0.987455 -0.152520 0.040874 253 108 132
0.360798 0.217930 -0.105417 -0.864440 -0.502020 -0.026826 17 63 124
0.206486 -0.234569 0.407750 -0.317331 0.907331 -0.275772 87 243 92
-0.024490 -0.180929 -0.689185 0.676557 0.686136 -0.267372 213 214 93
-0.618338 0.140270 0.355119 -0.449688 -0.439883 0.777357 70 71 226
-0.596985 -0.198377 0.638101 0.029093 0.861567 -0.506809 131 237 62
-0.406171 -0.200939 0.491014 -0.102931 0.562223 0.820555 114 199 232
-0.059499 0.120169 -0.800332 0.955450 -0.283581 -0.081838 249 91 117
0.177753 0.270659 0.318943 -0.223891 -0.969843 -0.096320 98 3 115
0.195280 0.252563 0.373310 -0.471700 -0.807704 -0.353714 67 24 82
0.107566 -0.130091 -0.089203 0.910203 0.413021 0.030722 243 180 131
0.086469 -0.212376 0.573986 -0.427997 0.784205 -0.449268 72 227 70
0.109270 0.263858 0.404629 0.124530 -0.990720 -0.054459 143 1 120
0.242012 -0.096053 -0.904867 -0.847298 0.432821 0.307819 19 182 166
0.363670 0.206376 0.018233 -0.864440 -0.502020 -0.026826 17 63 124
-0.746689 0.163539 0.570133 0.924530 -0.362681 -0.117075 245 81 112
0.250071 0.102876 0.490366 -0.678000 -0.422359 -0.601605 41 73 50
0.070590 0.034881 0.045001 0.989370 -0.139988 0.039361 253 109 132
0.127194 -0.171688 -0.985221 -0.504429 0.391981 0.769352 63 177 225
-0.086999 -0.178464 0.671347 0.017105 0.467409 -0.883876 129 187 14
-0.446492 0.054521 0.417407 -0.424876 -0.261172 0.866758 73 94 238
0.426036 0.044150 -0.698369 -0.358282 -0.477240 0.802419 81 66 229
-0.646924 0.195533 0.648315 0.248345 -0.797583 -0.549715 159 25 57
-0.045501 0.020832 -0.614467 0.904747 -0.085860 -0.417207 242 116 74
0.031201 -0.090727 -0.509799 0.798939 0.221714 -0.559052 229 155 56
0.451218 0.044384 -0.667228 -0.955811 -0.293347 -0.019298 5 90 125
0.355512 0.222256 -0.320711 -0.624179 -0.781135 0.015129 47 27 129
0.294086 0.096911 -0.726175 -0.366221 -0.470776 0.802653 80 67 229
0.011998 0.127841 0.254625 0.664405 -0.538943 0.517789 212 58 193
0.132890 -0.237686 -0.502642 0.495287 0.786129 -0.369718 190 227 80
0.439672 0.062935 -0.374775 -0.943024 -0.332374 -0.015248 7 85 125
-0.036295 0.084422 -1.060682 -0.054735 -0.415853 0.907783 120 74 243
0.147400 0.203724 0.040585 0.852173 -0.522867 0.020275 236 60 130
-0.581495 0.205185 0.413166 -0.449688 -0.439883 0.777357 70 71 226
-0.741174 -0.103340 0.619290 0.588143 0.404321 -0.700437 202 179 38
-0.496385 -0.212461 0.467064 -0.260269 0.736486 0.624379 94 221 207
-0.402146 0.183273 0.485450 -0.041265 -0.363232 0.930785 122 81 246
-0.054623 -0.133187 -0.692979 0.902905 0.272481 -0.332442 242 162 85
0.223358 0.265332 0.264953 0.055531 -0.966168 0.251864 134 4 159
-0.017545 -0.078998 0.277891 0.779946 0.384681 0.493665 226 176 190
0.296300 -0.247362 -0.511786 -0.425835 0.904801 0.000357 73 242 127
-0.203528 0.063533 0.697674 0.007414 -0.563679 -0.825960 128 55 22
0.065174 0.100095 -1.044330 -0.220971 -0.164728 0.961268 99 106 250
-0.103367 0.065836 0.428042 0.683198 -0.149525 0.714761 214 108 218
0.319635 0.070527 0.424625 -0.872450 -0.107784 -0.476669 16 113 66
0.248068 0.254733 0.217862 0.031919 -0.994504 -0.099719 131 0 114
0.407020 -0.157941 -0.196574 -0.927168 0.373895 -0.023727 9 175 124
0.114077 0.253736 0.297927 0.328825 -0.913000 0.241464 169 11 158
0.445064 0.021636 0.105196 -0.999830 0.015086 -0.010620 0 129 126
0.228366 -0.143314 -0.875976 -0.847298 0.432821 0.307819 19 182 166
0.197292 0.182707 0.485975 -0.623492 -0.587145 -0.516254 48 52 61
0.411183 -0.154083 -0.356922 -0.731260 0.681482 0.029000 34 214 131
0.103395 -0.257271 -0.591033 0.244638 0.954725 -0.169270 158 249 105
-0.543819 -0.016083 0.724998 0.025986 0.552781 -0.832921 130 197 21
-0.080097 0.207639 0.469346 0.657602 -0.439385 0.611965 211 71 205
0.344661 -0.232177 -0.141069 -0.677468 0.735176 0.023520 41 221 130
-0.679463 -0.114914 0.664427 0.588143 0.404321 -0.700437 202 179 38
-0.737967 0.080567 0.302849 0.709126 -0.185304 0.680296 217 103 214
0.003739 -0.246274 0.559808 0.047195 0.973312 -0.224582 133 251 98
-0.159249 0.076975 0.694264 -0.019730 -0.154422 -0.987808 124 107 1
-0.012258 -0.157202 -0.624158 0.790729 0.383296 -0.477316 228 176 66
-0.707955 -0.216980 0.535645 0.495097 0.868586 -0.020926 190 238 124
0.124525 0.193422 0.161471 0.719523 -0.626960 0.298676 219 47 165
-0.750785 0.162493 0.389255 0.846127 -0.513816 0.141644 235 61 145
0.242557 0.203011 0.403210 -0.629933 -0.618799 -0.469331 47 48 67
0.429667 -0.107481 -0.298090 -0.934369 0.355484 -0.024193 8 172 124
-0.505018 -0.260675 0.545124 -0.093638 0.964169 -0.248215 115 250 95
0.161078 -0.214235 0.499156 -0.597860 0.606481 -0.524161 51 204 60
0.217026 0.249942 0.026214 0.262225 -0.964973 0.008054 160 4 128
0.237911 -0.261127 -0.190769 0.172660 0.984836 -0.016949 149 253 125
0.350199 0.227768 -0.255331 -0.624179 -0.781135 0.015129 47 27 129
-0.126083 0.194264 0.656709 0.004282 -0.522575 -0.852583 128 60 18
0.379034 0.201320 -0.431211 -0.624179 -0.781135 0.015129 47 27 129
-0.390166 0.135395 0.465230 -0.313619 -0.464246 0.828323 87 68 233
0.307177 0.253520 0.024640 -0.298063 -0.954543 0.002302 89 5 127
0.069106 -0.076525 -1.047311 -0.325806 0.174134 0.929262 85 149 245
0.076763 -0.256514 -0.656708 0.312066 0.943378 -0.112486 167 247 113
0.049335 -0.208289 0.295840 0.654812 0.648935 0.387433 210 210 176
-0.544982 -0.020469 0.722051 0.025986 0.552781 -0.832921 130 197 21
-0.163788 -0.150891 0.684443 0.017105 0.467409 -0.883876 129 187 14
0.162145 -0.208445 -0.143781 0.776888 0.628904 0.030410 226 207 131
0.000849 0.080772 -1.060114 -0.054735 -0.415853 0.907783 120 74 243
-0.326946 -0.014446 0.450067 -0.006383 -0.020269 0.999774 126 124 254
-0.088700 0.046646 -0.905372 0.983469 -0.177641 -0.035098 252 104 123
-0.079831 0.034795 -0.739435 0.954294 -0.287443 -0.081848 249 90 117
0.005000 -0.091057 0.707405 0.017699 0.253926 -0.967062 129 159 4
0.402782 0.132931 0.132333 -0.864440 -0.502020 -0.026826 17 63 124
0.048486 -0.102050 0.189770 0.782399 0.407476 0.470973 227 179 187
0.347901 0.234422 -0.006559 -0.624179 -0.781135 0.015129 47 27 129
-0.792948 0.017919 0.374656 0.900838 0.429711 0.061965 242 182 135
0.034344 0.111268 0.683910 -0.750514 -0.041536 -0.659548 31 122 43
0.307956 0.018983 -0.742051 -0.318211 0.013419 0.947925 86 129 248
-0.360147 0.216835 0.502872 -0.011663 -0.657919 0.752999 126 43 223
0.249339 -0.139958 -0.774799 -0.948592 0.246958 0.197952 6 158 152
-0.317912 -0.182862 0.489700 -0.102931 0.562223 0.820555 114 199 232
0.162911 -0.274682 -0.633029 -0.049212 0.993797 -0.099733 121 254 114
0.285997 0.004322 -0.765220 -0.929905 -0.015428 0.367475 8 125 174
-0.000149 0.173038 -1.009459 0.481940 -0.736604 0.474498 188 33 187
0.016919 -0.118087 0.253901 0.779946 0.384681 0.493665 226 176 190
0.010121 0.078630 0.690622 -0.019730 -0.154422 -0.987808 124 107 1
0.276553 -0.067081 -0.774651 -0.758371 0.410402 0.506403 30 179 192
-0.728445 -0.121421 0.319425 0.749701 0.401646 0.525955 223 178 194
-0.771574 -0.087179 0.470508 0.944650 0.326266 -0.034454 247 169 123
0.065764 0.010641 0.691171 -0.639686 -0.346481 -0.686114 45 83 40
0.165437 0.264222 -0.543770 0.293420 -0.942162 -0.161973 164 7 106
-0.301455 0.138480 0.690021 0.004282 -0.522575 -0.852583 128 60 18
-0.510261 0.218489 0.643075 -0.017581 -0.812367 -0.582881 125 23 53
-0.505151 0.211662 0.652435 -0.017581 -0.812367 -0.582881 125 23 53
0.034259 -0.223570 0.346916 0.654812 0.648935 0.387433 210 210 176
0.036459 -0.248849 -0.886333 0.386567 0.859242 0.335066 176 237 170
-0.622865 0.250953 0.486701 0.246860 -0.958513 0.142522 158 5 145
-0.314575 0.016869 0.717615 -0.044874 -0.185501 -0.981619 121 103 2
-0.807285 0.029994 0.499339 0.900838 0.429711 0.061965 242 182 135
-0.078711 0.064224 -0.829726 0.954294 -0.287443 -0.081848 249 90 117
0.267828 0.087722 0.479718 -0.705613 -0.394879 -0.588372 37 77 52
0.426668 -0.064745 0.198362 -0.911480 0.283005 -0.298517 11 163 89
0.314149 0.104447 -0.712601 -0.366221 -0.470776 0.802653 80 67 229
0.414455 -0.111300 -0.675785 -0.596366 0.655530 0.463279 51 211 186
-0.064840 0.124102 -0.944984 0.890682 -0.454480 -0.011586 241 69 126
-0.001510 0.022751 -0.536568 0.825820 -0.027376 -0.563269 232 124 55
-0.274421 0.086772 0.695033 -0.019730 -0.154422 -0.987808 124 107 1
-0.704356 0.105263 0.303240 0.112240 -0.538798 0.834924 141 58 233
0.071989 -0.250519 0.505300 -0.323811 0.892256 -0.314684 86 241 87
0.068350 -0.130445 0.656261 -0.580222 0.258328 -0.772405 53 160 29
-0.042717 -0.175002 -0.736060 0.885897 0.433221 -0.165850 240 182 106
0.450867 -0.000003 -0.413572 -0.999586 -0.025158 -0.013945 0 124 125
0.029092 0.043945 0.171368 0.803586 -0.387074 0.452132 229 78 185
0.151587 0.204691 -0.052495 0.610427 -0.791457 0.031221 205 26 131
0.049734 -0.253494 -0.742347 0.177125 0.983134 -0.045555 150 252 121
-0.359211 0.041019 0.711642 0.007414 -0.563679 -0.825960 128 55 22
0.261465 0.008005 -0.853484 -0.989867 -0.140955 0.017189 1 109 129
0.428484 0.070097 0.161089 -0.943024 -0.332374 -0.015248 7 85 125
0.406917 0.146789 -0.307061 -0.904747 -0.425557 -0.018252 12 73 125
0.246544 0.090039 0.503354 -0.678000 -0.422359 -0.601605 41 73 50
-0.032765 0.129747 0.314045 0.664405 -0.538943 0.517789 212 58 193
-0.024983 -0.247099 0.563326 -0.053472 0.982724 -0.177186 120 252 104
-0.047590 -0.053257 0.311596 0.903018 0.032995 0.428335 242 131 182
0.114587 -0.196224 0.190155 0.562473 0.698782 0.441959 199 216 183
0.126430 0.171213 0.083530 0.852173 -0.522867 0.020275 236 60 130
-0.463901 -0.038597 0.403667 -0.407364 0.082351 0.909546 75 137 243
-0.778114 0.005349 0.327946 0.797952 0.190214 0.571919 229 151 200
0.075325 0.109158 -1.040443 -0.220971 -0.164728 0.961268 99 106 250
-0.753697 -0.140880 0.404451 0.856798 0.478180 0.192976 236 188 152
-0.640104 0.060582 0.298406 -0.508180 -0.172073 0.843886 62 105 235
