ply
format ascii 1.0
element vertex 256
property float x
property float y
property float z
property float nx
property float ny
property float nz
property uchar red
property uchar green
property uchar blue
end_header
0.399809 -0.056952 -0.844640 -0.877329 0.218048 0.427490 15 155 182
0.695246 -0.231718 0.254294 -0.446258 0.890224 0.091406 70 241 139
0.208135 -0.097963 0.290509 0.859464 0.252400 -0.444539 237 159 70
-0.165165 -0.257762 0.018272 0.068364 0.954219 -0.291193 136 249 90
0.408487 -0.251852 0.112501 -0.378246 0.793269 0.477131 79 228 188
0.202016 0.241514 0.012230 0.260607 -0.965035 0.028142 160 4 131
0.067498 0.264700 -0.069555 0.351586 -0.842726 -0.407676 172 20 75
-0.413848 0.176878 0.177539 0.663593 -0.728508 0.170057 212 34 149
0.419955 -0.010978 0.006723 -0.683554 -0.012733 0.729789 40 125 220
0.137694 -0.238330 -0.703702 0.168654 0.975383 -0.142073 149 251 109
-0.171461 -0.066637 -0.887798 0.643202 0.171695 0.746198 209 149 222
-0.042676 -0.175542 -0.423160 0.288533 0.482266 0.827145 164 188 232
-0.306254 0.137661 0.659597 0.510154 -0.565616 -0.647937 192 55 44
-0.004082 0.181755 -0.732875 -0.210491 -0.621309 -0.754764 100 48 31
0.149019 -0.119458 0.546144 0.749679 0.101233 0.654013 223 140 210
-0.027291 0.141782 0.059624 -0.126545 -0.283006 -0.950733 111 91 6
-0.216431 0.213113 0.131320 -0.412728 -0.908410 -0.066683 74 11 118
-0.108456 -0.037104 0.767983 0.108015 -0.207732 -0.972204 141 101 3
-0.216387 -0.198605 0.155638 -0.509755 0.243494 -0.825143 62 158 22
-0.321171 -0.167133 -0.229333 0.659977 0.636186 -0.399622 211 208 76
-0.186780 -0.151910 -0.839972 0.551047 0.450919 0.702153 197 184 217
-0.404238 -0.230290 0.284647 0.720343 0.615803 0.319207 219 206 168
-0.229215 0.210295 -0.661935 -0.279500 -0.825608 -0.490155 91 22 65
-0.306060 0.043628 -0.805202 0.801097 -0.218985 0.557036 229 99 198
0.467554 -0.301577 0.299342 0.243971 0.951468 0.187581 158 248 151
0.133428 -0.235749 -0.338345 -0.691460 0.717443 0.084602 39 218 138
-0.180327 0.033996 0.744806 0.108015 -0.207732 -0.972204 141 101 3
-0.376260 0.050684 -0.701470 0.801097 -0.218985 0.557036 229 99 198
0.154915 -0.214219 0.601140 0.128373 0.685340 0.716820 143 214 218
-0.172752 -0.207563 0.681426 0.372576 0.672459 -0.639520 175 213 45
0.400533 0.079968 -0.010861 -0.640073 -0.379599 0.667990 45 79 212
-0.113549 0.070899 0.139021 -0.671748 -0.320994 -0.667621 41 86 42
-0.267295 -0.155157 0.660481 0.510149 0.317556 -0.799316 192 167 25
-0.141139 0.258964 0.604185 -0.258774 -0.960251 0.104659 94 5 140
-0.240640 0.097204 -0.875542 0.675018 -0.506190 0.536770 213 62 195
-0.031490 -0.042176 0.500181 -0.480828 0.308296 0.820828 66 166 232
-0.162767 0.217926 0.490215 -0.592614 -0.671027 0.445568 51 41 184
0.172991 -0.231019 -0.533261 -0.117644 0.990560 -0.070363 112 253 118
-0.333370 -0.215730 -0.533796 0.143760 0.989445 0.018230 145 253 129
-0.091027 0.099089 -0.650057 -0.264925 -0.460576 -0.847163 93 68 19
0.833967 -0.143996 0.541484 -0.928306 0.322195 -0.185574 9 168 103
-0.144383 -0.280172 -0.169635 0.374618 0.899938 -0.223099 175 242 99
0.540277 0.275392 0.254907 -0.307829 -0.855428 0.416515 88 18 180
-0.103431 0.175504 0.711459 0.289420 -0.386788 -0.875575 164 78 15
0.219125 0.223825 -0.047358 -0.410910 -0.647085 0.642210 75 44 209
-0.334913 -0.208477 -0.619717 0.559889 0.779164 0.281830 198 226 163
0.111686 -0.234148 -0.480938 0.754292 0.486665 0.440681 223 189 183
0.008040 0.160619 0.049314 -0.126545 -0.283006 -0.950733 111 91 6
0.305575 0.119113 -0.080458 -0.645366 -0.379968 0.662667 45 79 211
-0.156385 0.100327 -0.459978 -0.749890 -0.390815 0.533787 31 77 195
-0.011219 0.197294 0.567225 -0.560088 -0.320171 0.764063 56 86 224
0.380927 0.077984 -0.629348 -0.809278 -0.318423 -0.493635 24 86 64
-0.239080 0.241368 0.581082 0.365235 -0.842099 -0.396829 174 20 76
0.017386 0.129896 0.559952 -0.560088 -0.320171 0.764063 56 86 224
0.021700 -0.014523 -0.696573 -0.414990 0.083766 -0.905962 74 138 11
-0.022295 -0.230626 -0.825029 -0.153931 0.810393 0.565304 107 230 199
0.059193 0.232734 -0.401570 0.388743 -0.850528 0.354234 177 19 172
-0.057501 -0.205191 0.026740 -0.350026 0.798256 -0.490172 82 229 65
0.471417 0.275643 0.222575 -0.130897 -0.920930 0.367089 110 10 174
0.710438 0.134160 0.635136 -0.211922 -0.480289 -0.851123 100 66 18
-0.446259 0.180318 0.283527 0.682329 -0.671143 0.289818 214 41 164
-0.154523 -0.057346 0.762565 0.255928 0.061395 -0.964744 160 135 4
0.206462 -0.233226 0.109317 0.657727 0.620228 -0.427448 211 206 73
0.199182 0.113958 0.324548 0.822037 -0.317905 -0.472433 232 86 67
0.623781 -0.269343 0.282121 -0.419881 0.899321 0.122151 73 242 143
-0.124715 0.125389 0.121408 -0.505176 -0.457557 -0.731737 63 69 34
-0.420970 0.116606 0.091489 0.502834 -0.723170 0.473480 191 35 187
0.478760 0.299690 0.285522 -0.130897 -0.920930 0.367089 110 10 174
0.342372 -0.200479 -0.670785 -0.777227 0.482187 -0.404245 28 188 75
-0.015951 -0.235989 -0.779299 -0.010414 0.961835 -0.273432 126 250 92
0.189546 -0.218217 -0.436652 -0.723059 0.596869 -0.347756 35 203 83
0.613781 0.209062 0.184022 -0.335654 -0.693052 0.637978 84 39 208
0.043549 0.145474 -0.716292 -0.210491 -0.621309 -0.754764 100 48 31
-0.354612 -0.053260 -0.733005 0.643202 0.171695 0.746198 209 149 222
0.104019 -0.110992 -0.660605 0.996681 0.054641 -0.060345 254 134 119
-0.032526 0.199753 -0.386946 0.357447 -0.822049 0.443246 173 22 184
-0.278069 -0.187561 -0.130526 0.821339 0.329411 -0.465716 232 169 68
-0.234433 0.171974 0.217582 -0.622334 -0.640930 -0.449342 48 45 70
-0.304535 -0.144861 0.638145 0.627249 0.388889 -0.674777 207 177 41
-0.409345 0.089906 -0.589057 0.982519 -0.150883 0.109043 252 108 141
-0.144280 -0.202416 0.102559 -0.376096 0.810358 -0.449301 79 230 70
0.009872 0.113864 0.745429 0.063563 -0.199465 -0.977841 135 102 2
0.261309 -0.224343 0.206600 0.657727 0.620228 -0.427448 211 206 73
0.206720 0.214185 0.237014 0.750746 -0.566631 -0.339572 223 55 84
0.232479 -0.061354 -0.190005 -0.818148 0.102688 0.565765 23 140 199
-0.428816 -0.102130 -0.360610 0.982654 0.177580 0.053438 252 150 134
0.443560 0.238218 0.123549 -0.244373 -0.818261 0.520318 96 23 193
-0.069976 -0.239796 -0.790632 -0.010414 0.961835 -0.273432 126 250 92
-0.480915 0.009970 0.511752 0.800930 0.180209 -0.570995 229 150 54
0.357923 -0.234204 0.044703 -0.383773 0.713926 0.585686 78 218 202
-0.049014 -0.196840 -0.408532 0.288533 0.482266 0.827145 164 188 232
-0.243010 0.212222 0.172052 -0.622334 -0.640930 -0.449342 48 45 70
-0.245658 -0.201233 -0.757467 0.538905 0.550262 0.637804 196 197 208
0.222601 0.097811 0.376164 0.822037 -0.317905 -0.472433 232 86 67
0.467206 0.268908 0.494354 -0.076788 -0.909692 -0.408123 117 11 75
-0.434444 0.047321 -0.375290 0.934187 -0.356714 0.007005 246 82 128
-0.268152 -0.224116 -0.527346 0.119909 0.992097 0.036944 142 253 132
0.630792 0.227297 0.223025 -0.307829 -0.855428 0.416515 88 18 180
-0.336617 0.146540 -0.228370 0.689803 -0.478898 -0.542981 215 66 58
0.394811 0.275478 0.372491 0.415766 -0.895010 -0.161542 180 13 106
0.664391 -0.132421 0.124727 -0.265139 0.146931 0.952950 93 146 249
-0.246813 0.215708 -0.469765 -0.484001 -0.837974 0.252076 65 20 159
-0.288359 0.192148 -0.038158 0.704874 -0.675962 0.215007 217 41 154
0.732982 0.025226 0.664685 -0.248521 0.138205 -0.958716 95 145 5
0.671155 -0.231247 0.525224 -0.205364 0.869565 -0.449091 101 238 70
0.177690 0.156905 -0.922480 -0.044374 -0.521369 0.852177 121 61 236
-0.033193 -0.277331 -0.066456 -0.017566 0.960606 -0.277358 125 249 92
0.714872 0.227090 0.422285 -0.533245 -0.838768 0.110085 59 20 141
-0.274079 -0.236427 -0.292133 0.228225 0.965481 0.125538 156 250 143
0.194372 -0.087603 -0.954714 0.036624 0.449949 0.892303 132 184 241
0.673570 -0.001965 0.676166 -0.248521 0.138205 -0.958716 95 145 5
0.418718 0.027528 -0.827057 -0.894482 -0.276095 0.351673 13 92 172
0.041300 -0.239686 0.646387 -0.068771 0.852187 -0.518698 118 236 61
0.024653 0.164757 0.046634 0.061161 -0.348606 -0.935272 135 83 8
-0.091857 -0.038787 -0.452836 0.163718 0.159286 0.973563 148 147 251
0.232027 -0.034388 -0.195553 -0.818148 0.102688 0.565765 23 140 199
-0.219173 0.157534 0.295191 -0.919583 -0.343825 0.190135 10 83 151
-0.354474 -0.172028 -0.681624 0.559889 0.779164 0.281830 198 226 163
0.103516 -0.094010 -0.591580 0.961540 0.173579 0.212864 250 149 154
0.289548 -0.177903 0.405192 0.813826 0.580984 0.012015 231 201 129
0.131087 0.191337 -0.681456 0.772865 -0.631938 0.057738 226 46 134
0.114432 0.066634 0.179947 0.819147 -0.131659 -0.558270 231 110 56
-0.029781 -0.230531 -0.008664 0.042731 0.782264 -0.621479 132 227 48
0.621131 0.029019 0.662330 0.393119 -0.093345 -0.914737 177 115 10
0.313113 0.221504 0.520512 0.260938 -0.964511 -0.040361 160 4 122
0.234709 0.250924 0.079722 0.259443 -0.964166 -0.055439 160 4 120
0.565540 0.313098 0.364348 -0.445902 -0.894991 0.012762 70 13 129
0.409922 0.073554 -0.675800 -0.943178 -0.032730 -0.330672 7 123 85
-0.278948 -0.187905 -0.141475 0.752565 0.654262 -0.074748 223 210 117
-0.010654 0.187952 0.711074 -0.089461 -0.671719 -0.735384 116 41 33
0.046872 -0.112265 0.080477 -0.024461 0.305215 -0.951969 124 166 6
-0.098306 0.074328 0.122035 -0.671748 -0.320994 -0.667621 41 86 42
-0.446587 0.147584 0.536032 0.686571 -0.577370 -0.441887 215 53 71
0.232346 -0.241670 -0.022658 -0.120351 0.919176 0.375008 112 244 175
0.348778 -0.161169 -0.636212 -0.777227 0.482187 -0.404245 28 188 75
-0.335440 0.106175 0.664103 0.510154 -0.565616 -0.647937 192 55 44
-0.380230 0.171234 -0.524382 0.888863 -0.458074 -0.009528 240 69 126
0.812882 0.091629 0.280943 -0.975767 -0.110178 0.189047 3 113 151
0.317079 0.162270 -0.585873 -0.765865 -0.587558 -0.261203 29 52 94
-0.001444 0.193337 0.705034 -0.089461 -0.671719 -0.735384 116 41 33
0.018314 -0.182610 0.579160 0.113759 0.211390 0.970759 142 154 251
0.246447 -0.119164 -0.148302 -0.822831 0.394770 0.408786 22 177 179
-0.211907 0.181697 0.374026 -0.919583 -0.343825 0.190135 10 83 151
-0.178249 -0.126583 0.751006 0.044556 0.340907 -0.939041 133 170 7
0.205656 -0.078916 -0.959558 0.036624 0.449949 0.892303 132 184 241
-0.166192 0.019927 -0.548470 -0.950508 0.023972 -0.309774 6 130 88
0.546524 -0.302059 0.330242 -0.221515 0.945432 0.238934 99 248 157
0.357004 0.151470 0.717918 -0.314898 -0.412989 -0.854564 87 74 18
-0.020859 0.144499 -0.697527 -0.210491 -0.621309 -0.754764 100 48 31
0.038385 0.095983 -0.693999 -0.414990 0.083766 -0.905962 74 138 11
0.508999 -0.310661 0.353232 -0.104779 0.980636 0.165454 114 252 148
-0.233291 0.185985 -0.567718 -0.762489 -0.639509 -0.098175 30 45 114
0.386088 0.046576 0.749289 -0.310018 -0.071833 -0.948013 87 118 6
-0.355408 -0.190041 -0.343806 0.723393 0.687912 -0.058994 219 215 119
0.012456 -0.131471 -0.925127 0.036624 0.449949 0.892303 132 184 241
-0.319020 0.162617 0.627760 0.510154 -0.565616 -0.647937 192 55 44
0.030271 0.237089 -0.026730 -0.020970 -0.858930 -0.511663 124 17 62
-0.009192 0.162454 -0.919547 0.021437 -0.432646 0.901309 130 72 242
0.472299 -0.299475 0.444326 -0.095684 0.967885 -0.232473 115 250 97
-0.481441 -0.085157 0.445080 0.948616 0.297461 -0.107910 248 165 113
-0.052204 0.058669 -0.671638 -0.600204 -0.106428 -0.792735 50 113 26
-0.173164 -0.159336 -0.845889 0.551047 0.450919 0.702153 197 184 217
-0.321284 -0.045684 -0.763475 0.643202 0.171695 0.746198 209 149 222
-0.200297 0.061758 -0.914425 0.484150 0.528710 0.697183 189 194 216
0.039028 -0.001957 -0.538870 0.476741 0.313914 0.821082 188 167 232
-0.434108 0.038436 -0.437153 0.982519 -0.150883 0.109043 252 108 141
0.195910 -0.026503 -0.967018 -0.009200 0.017700 0.999801 126 129 254
-0.070422 0.228403 0.681201 0.202564 -0.606643 -0.768734 153 50 29
0.084306 0.263551 -0.064516 -0.124436 -0.948975 -0.289763 111 6 90
0.785009 0.152900 0.387094 -0.740815 -0.663062 0.107434 33 42 141
0.346412 0.119836 0.737109 -0.314898 -0.412989 -0.854564 87 74 18
0.716371 0.180684 0.207169 -0.335654 -0.693052 0.637978 84 39 208
0.551600 -0.293054 0.422310 -0.211723 0.919641 -0.330807 100 244 85
-0.313956 -0.205606 0.575129 0.559874 0.647855 -0.516551 198 210 61
0.809179 -0.127610 0.404877 -0.875473 0.362173 0.319966 15 173 168
0.392669 -0.084506 -0.845237 -0.877329 0.218048 0.427490 15 155 182
-0.226772 -0.050208 0.734843 0.725723 0.199560 -0.658409 220 152 43
0.844124 -0.019214 0.379026 -0.965494 0.023303 0.259381 4 130 160
-0.426819 0.065740 -0.454185 0.934187 -0.356714 0.007005 246 82 128
0.089953 -0.266311 -0.036087 -0.017566 0.960606 -0.277358 125 249 92
0.454863 0.197714 0.103647 -0.631801 -0.364913 0.683861 46 80 214
-0.300841 -0.164740 -0.159131 0.752565 0.654262 -0.074748 223 210 117
-0.164956 0.145157 0.433098 -0.579821 -0.163049 0.798262 53 106 229
0.333899 -0.189108 0.686021 -0.164585 0.851593 -0.497696 106 236 64
0.235910 -0.068405 -0.401595 -0.815509 0.065174 -0.575063 23 135 54
0.212658 0.155752 -0.324917 -0.860938 -0.505234 -0.059365 17 63 119
-0.024726 0.028955 -0.970030 -0.009200 0.017700 0.999801 126 129 254
-0.143498 -0.217958 0.687854 0.390440 0.672611 -0.628610 177 213 47
0.383538 -0.016580 -0.898625 -0.877329 0.218048 0.427490 15 155 182
0.261102 0.245083 -0.787174 -0.112194 -0.970809 -0.211995 113 3 100
0.375315 0.265861 0.149978 -0.174666 -0.923122 0.342545 105 9 171
-0.453885 -0.181967 0.434273 0.958154 0.263771 -0.111202 249 161 113
-0.271562 -0.198388 -0.158867 0.752565 0.654262 -0.074748 223 210 117
-0.346284 0.027331 -0.067947 0.772916 -0.299639 0.559300 226 89 198
0.173021 -0.201958 -0.218962 -0.869978 0.488413 -0.067757 16 189 118
0.789114 -0.091019 0.233014 -0.868124 0.442265 0.225304 16 183 156
0.445250 0.184832 0.087892 -0.631801 -0.364913 0.683861 46 80 214
-0.281584 0.136782 -0.786729 0.675018 -0.506190 0.536770 213 62 195
0.357969 -0.269175 0.298171 0.419890 0.904453 -0.075213 181 242 117
0.575289 -0.285333 0.431631 -0.112051 0.936554 -0.332132 113 246 85
-0.269900 0.234245 0.174382 -0.412728 -0.908410 -0.066683 74 11 118
0.167479 -0.144475 0.179690 0.653221 0.654908 -0.379998 210 211 79
-0.405009 0.115726 -0.313493 0.785952 -0.609796 -0.102117 227 49 114
0.015952 0.121782 0.555500 -0.560088 -0.320171 0.764063 56 86 224
-0.259483 0.223803 -0.639960 -0.096320 -0.983339 -0.154163 115 2 107
-0.094346 -0.186286 -0.883930 0.063732 0.523449 0.849670 135 194 235
-0.147382 0.074885 -0.619275 -0.264925 -0.460576 -0.847163 93 68 19
0.311408 0.119428 -0.074597 -0.645366 -0.379968 0.662667 45 79 211
-0.383873 0.018987 -0.702983 0.801097 -0.218985 0.557036 229 99 198
0.008255 -0.214765 -0.761715 -0.186142 0.550121 -0.814075 103 197 23
-0.182677 -0.267124 -0.243391 0.286351 0.949974 0.124713 164 248 143
0.440939 -0.024007 0.025512 -0.465395 -0.030344 0.884583 68 123 240
-0.206285 0.201052 -0.818940 0.113306 -0.964751 0.237525 141 4 157
-0.219311 0.257248 0.565580 0.365235 -0.842099 -0.396829 174 20 76
-0.098659 -0.204459 -0.872411 0.063732 0.523449 0.849670 135 194 235
-0.274164 0.257343 0.486480 -0.401174 -0.887223 0.227804 76 14 156
-0.274158 0.222725 0.351664 -0.401174 -0.887223 0.227804 76 14 156
0.093333 0.032179 -0.969001 -0.009200 0.017700 0.999801 126 129 254
0.410690 -0.097969 -0.003474 -0.683554 -0.012733 0.729789 40 125 220
-0.142722 -0.240562 -0.374169 -0.140772 0.815311 0.561651 109 231 199
0.730149 -0.195249 0.580598 -0.224640 0.778901 -0.585533 98 226 52
-0.295403 -0.145863 -0.758608 0.551047 0.450919 0.702153 197 184 217
0.363487 -0.221825 0.620256 -0.164585 0.851593 -0.497696 106 236 64
-0.374884 0.059358 -0.204281 0.733913 -0.363800 -0.573604 221 81 54
0.102330 -0.161984 -0.545193 0.494907 0.690579 0.527416 190 215 194
0.179276 0.243945 -0.748190 0.640879 -0.766796 -0.036025 209 29 122
-0.260311 -0.235586 0.000974 0.517637 0.829775 0.208628 193 233 154
0.005687 -0.294977 -0.207037 -0.182089 0.972093 0.147916 104 251 146
0.793216 -0.121184 0.312938 -0.915360 0.360879 0.178559 10 173 150
-0.444802 -0.025531 -0.429306 0.982519 -0.150883 0.109043 252 108 141
0.231892 -0.112008 -0.400839 -0.815509 0.065174 -0.575063 23 135 54
0.086378 -0.205183 -0.473662 0.494907 0.690579 0.527416 190 215 194
-0.298477 -0.171721 -0.196428 0.752565 0.654262 -0.074748 223 210 117
-0.416036 -0.083063 -0.658996 0.982654 0.177580 0.053438 252 150 134
0.656009 0.245265 0.516559 -0.460457 -0.766904 -0.447033 68 29 70
0.391980 0.025867 -0.020923 -0.705127 -0.000594 0.709080 37 127 217
-0.298238 0.241603 0.382781 -0.401174 -0.887223 0.227804 76 14 156
-0.324541 0.152354 -0.031015 0.772916 -0.299639 0.559300 226 89 198
0.458962 0.073616 0.040182 -0.569678 -0.136980 0.810372 54 110 230
0.107193 -0.017319 0.168392 0.726063 0.307143 -0.615220 220 166 49
0.041023 0.173372 0.725263 -0.037609 -0.516999 -0.855159 122 61 18
0.092355 -0.238740 -0.792508 0.044557 0.913821 0.403665 133 244 178
0.573250 -0.268723 0.479155 -0.112051 0.936554 -0.332132 113 246 85
0.732097 -0.198747 0.575197 -0.224640 0.778901 -0.585533 98 226 52
-0.417198 -0.102447 -0.573208 0.982654 0.177580 0.053438 252 150 134
0.280980 0.160369 -0.910931 -0.362361 -0.471472 0.803996 81 67 230
0.529518 0.020936 0.078076 -0.253356 -0.103086 0.961865 95 114 250
-0.044337 -0.240560 -0.022288 0.042731 0.782264 -0.621479 132 227 48
-0.448386 0.033744 0.099310 0.805133 -0.118706 0.581094 230 112 201
-0.270047 0.111093 -0.825464 0.675018 -0.506190 0.536770 213 62 195
0.018837 -0.235377 0.645738 0.128373 0.685340 0.716820 143 214 218
-0.029687 -0.019945 -0.673536 -0.414990 0.083766 -0.905962 74 138 11
-0.492282 0.069564 0.494838 0.880911 -0.196567 -0.430531 239 102 72
-0.075312 0.236974 -0.792207 -0.028771 -0.933139 -0.358362 123 8 81
-0.184168 -0.044063 0.300952 -0.955034 -0.075851 -0.286629 5 117 90
-0.155945 0.227198 -0.805774 0.413844 -0.843547 0.342290 180 19 171
