ply
format ascii 1.0
element vertex 256
property float x
property float y
property float z
property float nx
property float ny
property float nz
property uchar red
property uchar green
property uchar blue
end_header
0.521378 -0.061650 -0.803642 -0.997789 -0.065637 0.010465 0 119 128
-0.547018 0.057540 -0.734009 0.972409 -0.168200 0.161648 251 106 148
0.214865 -0.147907 0.208119 -0.749914 0.501412 -0.431527 31 191 72
0.168844 -0.058006 -0.081245 0.936399 0.250287 0.245997 246 159 158
0.289310 -0.133010 -0.485702 0.723251 0.685999 -0.079458 219 214 117
0.487732 -0.141349 -0.841566 -0.862507 0.403972 0.304776 17 179 166
-0.302194 -0.258806 -0.747659 0.132871 0.983031 -0.126470 144 252 111
0.079023 0.259082 0.315190 -0.554269 -0.830197 0.059661 56 21 135
-0.091410 -0.271245 0.206926 -0.049654 0.924251 0.378543 121 245 175
0.459730 -0.153994 -0.396485 -0.706325 0.668282 -0.233463 37 212 97
0.206533 -0.213552 0.136534 -0.376062 0.918169 -0.124671 79 244 111
-0.260933 -0.306443 0.455727 0.166318 0.969833 -0.178222 148 251 104
-0.356344 -0.108154 0.081968 0.022961 0.341944 0.939440 130 171 247
0.210409 0.085836 -0.258019 0.938693 -0.281138 0.199544 247 91 152
-0.410402 -0.247622 0.251773 0.694816 0.691855 0.196387 216 215 152
0.051311 -0.279360 0.365514 -0.548008 0.833441 0.071159 57 233 136
-0.095567 0.235846 -0.778138 -0.196925 -0.750933 -0.630333 102 31 47
0.447475 -0.202812 -0.578140 -0.653200 0.756951 -0.018857 44 224 125
0.019741 -0.153150 0.655440 0.011677 0.525042 -0.850996 128 194 18
0.147587 0.191261 0.294930 -0.810536 -0.576208 0.104959 24 54 140
0.074471 0.251847 0.238576 -0.386216 -0.904855 0.179091 78 12 150
0.299025 -0.138039 0.121211 -0.583011 0.613471 -0.532684 53 205 59
-0.211714 0.319490 0.292733 -0.056397 -0.931984 0.358086 120 8 173
-0.537416 -0.187061 -0.595942 0.774689 0.630004 0.054323 226 207 134
0.469908 0.052499 0.380289 -0.206361 -0.030820 0.977990 101 123 252
0.110302 0.075027 0.014914 0.580535 -0.216550 0.784911 201 99 227
0.520274 0.038273 -0.532340 -0.999543 -0.010306 0.028401 0 126 131
-0.055148 -0.107547 0.682548 0.011677 0.525042 -0.850996 128 194 18
-0.216265 0.023489 0.067218 -0.242404 -0.180285 0.953277 96 104 249
0.166379 -0.065662 0.703265 -0.008797 0.052045 -0.998606 126 134 0
0.331277 0.146830 0.030724 -0.757650 -0.516816 -0.398581 30 61 76
0.405599 -0.155982 0.661124 0.017580 0.468175 -0.883461 129 187 14
0.179113 0.189202 0.020119 0.510324 -0.805611 0.300932 192 24 165
0.013652 0.097948 0.065005 0.209530 -0.178864 0.961304 154 104 250
-0.524092 0.177804 -0.661959 0.644055 -0.688674 0.333048 209 39 169
0.825127 -0.202933 0.587127 -0.364621 0.810290 0.458783 81 230 185
-0.362576 0.165820 -0.871178 0.442041 -0.543852 0.713319 183 58 218
-0.433155 -0.238299 -0.725854 0.132871 0.983031 -0.126470 144 252 111
0.315991 -0.244340 0.477504 -0.126541 0.649068 0.750132 111 210 223
0.139598 0.206369 -0.983542 -0.009702 -0.473787 0.880586 126 67 239
0.786833 -0.148320 0.507824 -0.421985 0.279186 0.862545 73 163 237
0.248228 0.146402 0.676039 0.036277 -0.458299 -0.888058 132 69 14
-0.115697 -0.183558 -0.718229 -0.391849 0.583396 -0.711409 77 201 36
0.602107 -0.119068 0.452085 -0.123243 0.398163 0.908998 111 178 243
-0.318729 0.290651 0.372411 0.386713 -0.922076 0.015131 176 9 129
-0.401842 -0.208116 -0.552830 -0.297830 0.829865 -0.471828 89 233 67
0.514899 -0.073082 -0.448334 -0.956748 0.290255 -0.019605 5 164 125
0.273768 0.192723 -0.235819 0.656438 -0.726746 0.202311 211 34 153
0.460588 0.008192 -0.206910 -0.945241 0.267323 -0.187236 6 161 103
0.282388 0.211223 -0.033384 -0.337645 -0.928866 -0.152328 84 9 108
-0.215758 0.136870 -0.975958 0.337464 -0.228117 0.913280 170 98 243
0.421150 -0.029310 -0.061351 -0.945241 0.267323 -0.187236 6 161 103
0.114707 0.223298 0.118082 0.116226 -0.987493 0.106534 142 1 141
0.098206 0.194616 -0.770774 -0.014791 -0.582119 -0.812969 125 53 23
-0.075900 0.175841 0.647606 0.036277 -0.458299 -0.888058 132 69 14
0.007693 -0.244039 -0.792912 -0.015388 0.680313 -0.732760 125 214 34
0.440633 0.045126 -0.994844 -0.905106 -0.165334 0.391725 12 106 177
-0.378644 0.200620 0.547744 0.786483 -0.408230 -0.463457 227 75 68
-0.176015 -0.244140 -0.885136 0.237980 0.842294 0.483638 157 234 189
0.083940 -0.123753 0.045554 0.593758 0.259434 0.761673 203 160 224
0.250523 0.051081 -0.662687 0.650466 -0.035470 -0.758706 210 122 30
0.600782 -0.136901 0.459716 -0.123243 0.398163 0.908998 111 178 243
0.281304 -0.116677 -1.037049 0.005603 0.295544 0.955313 128 165 249
-0.161931 -0.211305 0.611972 -0.016959 0.558802 -0.829128 125 198 21
-0.468937 0.223639 -0.673841 0.644055 -0.688674 0.333048 209 39 169
0.123923 -0.175378 -1.004378 0.009021 0.499993 0.865982 128 191 237
0.030619 -0.139815 -0.727924 0.045541 0.487402 -0.871989 133 189 16
-0.066727 -0.043666 -1.057595 0.005603 0.295544 0.955313 128 165 249
0.151911 -0.264155 -0.921396 0.030432 0.917977 0.395464 131 244 177
0.012715 -0.060775 0.058346 0.375302 0.145263 0.915449 175 146 244
-0.037700 0.254986 0.583907 0.047593 -0.749211 -0.660620 133 31 43
0.386075 0.212534 -0.442860 -0.272789 -0.927767 -0.254625 92 9 95
0.170234 -0.240863 0.443973 -0.568607 0.686997 0.452461 55 215 185
0.324152 -0.168756 -0.435865 0.708285 0.653889 0.266010 217 210 161
-0.076722 0.148841 0.661507 0.036277 -0.458299 -0.888058 132 69 14
-0.444081 0.223686 -0.723572 0.642701 -0.717088 0.269666 209 36 161
0.386376 0.224196 -0.565022 0.283320 -0.957634 -0.051647 163 5 120
-0.177201 0.047583 -0.632883 -0.600696 -0.132496 -0.788422 50 110 26
0.047273 -0.149598 -1.018464 0.009021 0.499993 0.865982 128 191 237
-0.057639 0.201761 0.125050 0.077412 -0.565419 0.821163 137 55 232
-0.472265 0.049534 0.489696 0.914453 -0.081983 -0.396301 244 117 76
0.613147 -0.131246 0.458916 -0.123243 0.398163 0.908998 111 178 243
0.225167 -0.029007 0.283852 -0.989029 0.040569 -0.142042 1 132 109
-0.387895 -0.209318 -0.563749 -0.297830 0.829865 -0.471828 89 233 67
-0.580323 0.102797 -0.570968 0.956039 -0.279262 -0.089459 249 91 116
0.416618 0.041447 0.368696 -0.206361 -0.030820 0.977990 101 123 252
0.328655 0.210083 -0.214174 0.081144 -0.996531 0.018472 137 0 129
0.380568 -0.225671 -0.616813 0.168914 0.984721 -0.042350 149 253 122
0.502875 0.112563 -0.719105 -0.966397 -0.256907 -0.008684 4 94 126
0.502413 0.144447 0.412379 -0.111069 -0.559776 0.821167 113 56 232
-0.266508 -0.252166 0.547445 0.300624 0.715529 -0.630590 165 218 47
0.022297 -0.298897 0.409206 -0.230922 0.972972 0.000756 98 251 127
0.184135 0.039210 -0.185586 0.941530 0.108501 0.318981 247 141 168
0.517117 0.070505 -0.528353 -0.939202 -0.343348 0.003385 7 83 127
0.009645 -0.214035 -0.980868 0.009021 0.499993 0.865982 128 191 237
0.245521 0.170466 0.661969 0.005013 -0.682509 -0.730860 128 40 34
-0.497027 0.165176 -0.752974 0.642701 -0.717088 0.269666 209 36 161
0.240819 0.074461 -0.357736 0.887047 -0.334352 0.318365 240 84 168
0.159326 -0.200830 0.243141 -0.749914 0.501412 -0.431527 31 191 72
-0.119617 -0.235279 0.162579 -0.024984 0.625721 0.779646 124 207 226
-0.565992 0.010521 -0.673744 0.939211 -0.160104 0.303727 247 107 166
-0.505015 0.215373 -0.571918 0.469894 -0.864308 -0.179364 187 17 104
0.261062 0.063017 -0.426159 0.887047 -0.334352 0.318365 240 84 168
0.309792 -0.168861 -1.011615 0.020801 0.471972 0.881368 130 187 239
0.252805 0.030708 -0.481897 0.997376 -0.020535 0.069427 254 124 136
-0.016391 -0.170654 -0.747617 0.045541 0.487402 -0.871989 133 189 16
-0.090279 0.033666 -0.684571 -0.399565 -0.127399 -0.907809 76 111 11
0.640604 -0.017356 0.412693 -0.122451 0.398563 0.908930 111 178 243
-0.118385 0.320540 0.310165 -0.056397 -0.931984 0.358086 120 8 173
0.237784 0.121046 0.688698 0.036277 -0.458299 -0.888058 132 69 14
-0.088068 -0.327016 0.389466 -0.245669 0.969299 0.010331 96 251 128
-0.327995 -0.292188 0.276667 0.410820 0.892270 0.187300 179 241 151
-0.339707 0.148892 0.607078 0.304376 -0.274468 -0.912153 166 92 11
-0.331718 0.041802 0.057391 -0.025042 -0.038369 0.998950 124 122 254
0.382843 0.269000 0.537431 -0.057394 -0.944912 0.322255 120 7 168
0.244550 0.112798 -0.328345 0.890807 -0.292666 0.347576 241 90 171
-0.366713 0.250927 0.402758 0.554222 -0.793586 -0.251117 198 26 95
0.778777 0.095948 0.685530 -0.533828 -0.337480 -0.775329 59 84 28
0.413831 -0.199590 -0.426085 -0.243496 0.924351 -0.293743 96 245 90
-0.060817 -0.106556 -1.036160 0.012299 0.324492 0.945808 129 168 248
-0.056052 0.166187 0.108584 -0.037414 -0.300091 0.953176 122 89 249
-0.386333 -0.043238 0.066643 0.300442 0.269580 0.914910 165 161 244
-0.294381 0.261872 0.525296 0.138736 -0.825431 -0.547190 145 22 57
0.157572 -0.119798 -1.034457 0.012299 0.324492 0.945808 129 168 248
0.302758 -0.257746 -0.851250 -0.337448 0.935493 0.104793 84 246 140
-0.334965 0.215505 0.155520 0.107970 -0.791929 0.600991 141 26 204
-0.141717 -0.320212 0.478526 0.087764 0.920958 -0.379649 138 244 79
-0.523096 0.009626 0.292183 0.976624 -0.161392 -0.141978 252 106 109
-0.179064 0.160585 0.651265 0.036277 -0.458299 -0.888058 132 69 14
-0.561054 -0.013143 -0.719527 0.890436 0.252123 0.378890 241 159 175
0.180345 -0.274846 0.516135 -0.092471 0.970301 0.223529 115 251 155
-0.064982 -0.304428 0.520333 -0.013099 0.927828 -0.372778 125 245 79
0.356826 0.135701 -1.034009 0.024618 -0.563757 0.825574 130 55 232
0.242855 -0.029514 0.336671 -0.190944 0.043192 0.980650 103 133 252
0.273531 -0.187080 0.086056 -0.606800 0.660431 -0.442295 50 211 71
-0.228323 0.109779 -0.630762 -0.414280 -0.432652 -0.800740 74 72 25
0.301200 -0.045457 -1.059199 0.005603 0.295544 0.955313 128 165 249
0.504800 -0.114594 -0.566792 -0.968367 0.248137 -0.026315 4 159 124
0.228523 0.103049 -0.295476 0.890807 -0.292666 0.347576 241 90 171
0.278726 0.121217 -0.453498 0.962329 -0.270068 -0.031418 250 93 123
0.404271 0.168253 -0.247628 -0.704619 -0.679350 -0.204926 37 40 101
0.315246 0.190815 0.643445 0.005013 -0.682509 -0.730860 128 40 34
-0.409415 -0.228219 0.189763 0.644388 0.609305 0.462073 209 205 186
-0.282933 0.236597 -0.854973 0.284704 -0.699461 0.655513 163 38 211
0.417843 0.180956 -0.935098 -0.439591 -0.780037 0.445312 71 28 184
0.472466 0.028225 0.380064 -0.206361 -0.030820 0.977990 101 123 252
-0.363186 -0.153596 -0.530637 -0.531117 0.491156 -0.690421 59 190 39
0.234548 -0.122887 -0.721201 0.740193 0.343316 -0.578143 221 171 53
0.264317 0.084919 -0.631247 0.997376 -0.020535 0.069427 254 124 136
-0.105166 -0.316195 0.314226 -0.049644 0.922417 0.382991 121 245 176
-0.134506 0.079312 0.695028 0.036277 -0.458299 -0.888058 132 69 14
0.077603 0.190446 0.083296 0.241398 -0.655812 0.715289 158 43 218
0.849212 -0.133555 0.564517 -0.965441 0.258708 -0.031537 4 160 123
0.249070 0.252013 -0.842812 0.159991 -0.947468 -0.276960 147 6 92
0.439038 0.192557 -0.847615 -0.826057 -0.439836 0.352383 22 71 172
0.664717 0.056273 0.421108 -0.187837 -0.053583 0.980738 103 120 252
-0.308989 0.250023 -0.793668 0.194366 -0.948013 0.251978 152 6 159
-0.446727 0.154930 -0.827655 0.438069 -0.540943 0.717967 183 58 219
-0.570726 -0.088283 -0.601778 0.985640 0.147848 0.081575 253 146 137
0.279800 0.120941 0.150088 -0.667778 -0.604069 -0.434941 42 50 72
0.445374 0.158238 -0.357515 -0.727343 -0.652255 -0.213390 34 44 100
0.119988 0.023990 -0.709167 -0.063181 -0.257698 -0.964158 119 94 4
0.347382 0.213506 -0.614892 0.511616 -0.855508 -0.079718 192 18 117
-0.108704 -0.213979 0.609081 -0.016959 0.558802 -0.829128 125 198 21
0.506110 -0.117919 -0.646340 -0.968367 0.248137 -0.026315 4 159 124
0.279426 0.133172 -0.403646 0.887047 -0.334352 0.318365 240 84 168
0.727907 -0.051471 0.447647 -0.421985 0.279186 0.862545 73 163 237
-0.055560 0.057020 -0.703567 -0.514091 -0.033312 -0.857088 61 123 18
0.345615 -0.195787 0.632028 0.020942 0.848298 -0.529105 130 235 60
0.285364 0.136634 -0.561768 0.828317 -0.557537 0.055155 233 56 134
0.260255 0.029051 -0.589410 0.997376 -0.020535 0.069427 254 124 136
-0.053782 0.136649 0.099374 -0.037414 -0.300091 0.953176 122 89 249
0.521199 -0.052655 -0.764296 -0.997789 -0.065637 0.010465 0 119 128
0.252560 0.048547 -0.417665 0.887047 -0.334352 0.318365 240 84 168
0.273819 -0.166632 -1.011960 0.020801 0.471972 0.881368 130 187 239
-0.219517 -0.113224 -0.610266 -0.583793 0.269114 -0.766005 53 161 29
-0.444692 -0.221983 0.320217 0.787006 0.616221 0.029878 227 206 131
-0.517617 -0.176250 -0.454712 0.287325 0.956713 0.046315 164 249 133
0.378131 0.193834 -0.318503 -0.482261 -0.875437 -0.032158 66 15 123
0.311836 0.128384 0.378864 -0.101714 -0.511874 0.853018 114 62 236
0.343012 0.164008 -1.013369 -0.325302 -0.669428 0.667866 86 42 212
0.451144 0.189250 -0.823365 -0.826057 -0.439836 0.352383 22 71 172
-0.386104 -0.036934 0.064710 0.300442 0.269580 0.914910 165 161 244
0.616480 0.167447 0.667333 0.005013 -0.682509 -0.730860 128 40 34
-0.357502 0.092154 -0.488986 -0.677269 -0.367707 -0.637258 41 80 46
0.069401 0.257012 -0.901649 0.011179 -0.930719 0.365564 128 8 174
-0.348819 -0.167023 0.586651 0.455355 0.495603 -0.739615 185 190 33
-0.088648 0.148763 -1.010568 0.236022 -0.470237 0.850394 157 67 235
-0.324504 -0.188955 0.126191 0.113728 0.721620 0.682884 142 219 214
0.241949 -0.013607 -0.387793 0.975218 0.103012 0.195805 251 140 152
0.466402 0.193187 -0.750927 -0.570779 -0.818479 0.065595 54 23 135
0.309968 -0.200774 -0.267785 0.352402 0.935478 0.026336 172 246 130
-0.229548 -0.121486 0.671555 0.011677 0.525042 -0.850996 128 194 18
-0.279190 -0.266644 -0.792460 -0.100504 0.963345 -0.248728 114 250 95
0.247197 -0.135824 -0.712688 0.740193 0.343316 -0.578143 221 171 53
0.200822 -0.120782 0.264040 -0.749914 0.501412 -0.431527 31 191 72
0.232945 0.015489 0.332760 -0.190944 0.043192 0.980650 103 133 252
0.413852 0.158235 -0.978836 -0.439591 -0.780037 0.445312 71 28 184
-0.457461 -0.157031 0.447416 0.698307 0.661406 -0.273695 216 211 92
0.094709 0.286129 0.462348 -0.518348 -0.796525 0.311228 61 25 167
0.475842 -0.106824 0.422806 -0.213896 0.413606 0.884974 100 180 240
-0.205076 0.219260 0.612365 0.047593 -0.749211 -0.660620 133 31 43
-0.303441 0.241708 -0.699921 -0.409396 -0.780311 -0.472768 75 28 67
0.281501 0.050060 0.190461 -0.838024 -0.184662 -0.513435 20 103 62
-0.196972 -0.227954 -0.903013 0.237980 0.842294 0.483638 157 234 189
-0.578513 -0.057359 -0.563731 0.985640 0.147848 0.081575 253 146 137
0.012035 -0.187004 0.632907 0.020942 0.848298 -0.529105 130 235 60
0.448467 0.137547 -0.335755 -0.830057 -0.443506 -0.338095 21 70 84
0.247473 0.030220 -0.664326 0.650466 -0.035470 -0.758706 210 122 30
-0.354979 -0.015400 -0.948182 0.487098 0.111350 0.866219 189 141 237
-0.434796 0.119492 -0.431609 -0.539064 -0.569923 -0.620160 58 54 48
0.550655 -0.027305 0.701879 -0.008797 0.052045 -0.998606 126 134 0
-0.005511 -0.034173 -1.060891 0.005603 0.295544 0.955313 128 165 249
0.103564 -0.204927 0.610840 -0.016959 0.558802 -0.829128 125 198 21
0.200518 0.165377 -0.744595 0.359926 -0.620575 -0.696663 173 48 38
0.781480 -0.021500 0.464156 -0.421985 0.279186 0.862545 73 163 237
-0.085013 0.223605 -0.767359 -0.380109 -0.462784 -0.800842 79 68 25
-0.150263 -0.131433 0.096613 0.073370 0.400866 0.913194 136 178 243
0.488397 0.042400 -0.312640 -0.824439 -0.432624 -0.364881 22 72 80
0.360145 -0.161715 -0.071331 -0.774426 0.625102 -0.097529 28 207 115
0.056390 -0.261294 -0.846427 0.016087 0.967804 -0.251191 129 250 95
-0.462889 0.181998 0.323450 0.802626 -0.566117 -0.187890 229 55 103
0.842770 -0.118893 0.539419 -0.738148 0.432997 0.517350 33 182 193
0.031215 0.088519 -1.045056 0.066158 -0.172676 0.982754 135 105 252
0.770826 -0.204315 0.546410 -0.364621 0.810290 0.458783 81 230 185
-0.369952 -0.101990 -0.919980 0.351877 0.412496 0.840255 172 180 234
-0.420210 0.018449 -0.409507 -0.720517 -0.141913 -0.678761 35 109 40
0.379315 0.132828 -0.044589 -0.704038 -0.679687 -0.205806 37 40 101
0.452162 0.054590 -0.215144 -0.924492 -0.350456 -0.149985 9 82 108
-0.143983 0.120854 0.673202 0.036277 -0.458299 -0.888058 132 69 14
-0.253328 0.309693 0.282604 0.147038 -0.929066 0.339436 146 9 170
-0.427661 -0.188616 0.448106 0.709595 0.652373 -0.266239 217 210 93
-0.495003 -0.059490 -0.857885 0.923358 0.258992 0.283430 245 160 163
0.718461 -0.048903 0.442195 -0.421985 0.279186 0.862545 73 163 237
-0.567389 -0.082126 -0.442278 0.967944 0.215731 -0.128630 250 155 111
-0.511626 -0.111511 0.289922 0.968821 0.247758 0.001672 251 159 127
0.357470 0.070067 0.357117 -0.206361 -0.030820 0.977990 101 123 252
0.194951 0.244753 0.596546 0.006760 -0.645757 -0.763513 128 45 30
-0.549307 0.103716 -0.404373 0.925056 -0.171947 -0.338682 245 105 84
0.771517 0.046008 0.703442 0.007575 0.029582 -0.999534 128 131 0
0.473660 -0.169852 -0.546410 -0.770294 0.634423 -0.064453 29 208 119
-0.126885 0.204408 -0.736392 -0.380109 -0.462784 -0.800842 79 68 25
0.043329 -0.190242 -0.755447 0.045541 0.487402 -0.871989 133 189 16
0.521722 0.002542 -0.494326 -0.999543 -0.010306 0.028401 0 126 131
0.504233 0.048899 -0.356379 -0.830057 -0.443506 -0.338095 21 70 84
0.521720 -0.062350 -0.775373 -0.997789 -0.065637 0.010465 0 119 128
0.113068 0.243645 -0.934910 -0.010726 -0.902555 0.430441 126 12 182
0.309257 -0.054151 0.350685 -0.190944 0.043192 0.980650 103 133 252
-0.411429 0.103300 0.088559 0.359187 -0.303873 0.882409 173 88 240
-0.261193 -0.323843 0.354339 0.131903 0.979567 0.151822 144 252 146
-0.010866 -0.202637 -0.987235 0.009021 0.499993 0.865982 128 191 237
0.111454 -0.177368 -0.744693 0.045541 0.487402 -0.871989 133 189 16
0.270021 0.213277 -0.111314 0.021033 -0.997218 0.071515 130 0 136
-0.225649 0.195129 0.631535 0.036277 -0.458299 -0.888058 132 69 14
-0.232523 -0.223415 -0.893424 0.237980 0.842294 0.483638 157 234 189
-0.460407 0.140278 0.425634 0.890129 -0.338677 -0.304908 240 84 88
