ply
format ascii 1.0
element vertex 256
property float x
property float y
property float z
property float nx
property float ny
property float nz
property uchar red
property uchar green
property uchar blue
end_header
-0.013670 -0.221434 0.045361 0.260102 0.964839 -0.037861 160 250 122
0.200346 0.021061 0.790209 -0.751185 -0.085150 -0.654577 31 116 44
-0.053404 0.187559 0.261080 0.813307 -0.581584 0.017084 231 53 129
0.003603 0.238188 0.090363 0.583797 -0.811691 0.018398 201 24 129
-0.000025 0.005339 0.660209 0.992621 -0.021866 -0.119275 254 124 112
0.240854 0.050539 0.568673 -0.861229 0.073888 0.502817 17 136 191
0.092599 0.213471 0.291229 -0.347386 -0.937412 -0.024098 83 7 124
0.253321 0.033972 0.614458 -0.998655 0.051584 -0.005135 0 134 126
-0.085508 0.011003 0.050936 0.999827 -0.015183 -0.010731 254 125 126
0.093163 0.199338 0.678328 0.473351 -0.783500 -0.402574 187 27 76
-0.070905 0.127991 0.012427 0.985005 -0.172354 -0.007645 253 105 126
-0.060141 0.049594 0.405792 0.924366 -0.158512 -0.347017 245 107 83
-0.080134 -0.085391 0.057319 0.995952 0.089514 -0.008185 254 138 126
0.016609 0.113379 0.705092 0.989026 -0.130428 -0.069400 253 110 118
-0.028840 -0.071966 0.478432 0.887294 0.149756 -0.436215 240 146 71
-0.082942 0.039076 0.275193 0.999924 -0.006810 -0.010271 254 126 126
0.081788 -0.217836 0.334251 -0.179235 0.983468 -0.025815 104 252 124
0.068031 -0.200268 0.591043 0.271375 0.934866 0.228870 162 246 156
0.164355 0.097321 0.241723 -0.979920 -0.199212 -0.008508 2 102 126
-0.009544 -0.003485 0.582608 0.992621 -0.021866 -0.119275 254 124 112
-0.068583 -0.136925 0.162783 0.964381 0.264322 -0.010170 250 161 126
0.059294 0.190607 0.639019 0.727414 -0.683970 -0.055262 220 40 120
0.173028 0.056377 0.103248 -0.999151 -0.041044 -0.003624 0 122 127
-0.040907 -0.205585 0.243693 0.775820 0.630621 0.020484 226 207 130
-0.064569 -0.165713 0.024694 0.931389 0.363757 0.013961 246 173 129
0.165090 0.100350 0.086248 -0.979920 -0.199212 -0.008508 2 102 126
0.230416 0.009274 0.762746 -0.690653 -0.243985 -0.680786 39 96 40
0.094310 -0.215438 0.334761 -0.216856 0.976204 -0.000287 99 251 127
0.173486 -0.197931 0.617265 -0.400103 0.898651 0.179843 76 242 150
0.170341 0.074525 0.084811 -0.980385 -0.196918 -0.008313 2 102 126
0.001807 0.237862 0.132985 0.583797 -0.811691 0.018398 201 24 129
-0.051184 -0.152831 0.386893 0.815355 0.342721 -0.466624 231 171 68
-0.043310 -0.188517 0.371580 0.684492 0.489967 -0.539818 214 189 58
-0.081883 0.065100 0.091383 0.980680 -0.195502 -0.006758 252 102 126
0.199566 -0.094630 0.523314 -0.843242 0.175374 0.508122 19 149 192
0.095451 0.218270 0.216553 -0.361717 -0.927771 -0.091664 81 9 115
0.041200 0.064707 0.777828 0.287952 -0.216021 -0.932962 164 99 8
0.044339 -0.178647 0.518065 0.173919 0.960927 0.215342 149 250 154
0.171861 -0.013055 0.177851 -0.986403 0.160980 0.033087 1 148 131
-0.081840 -0.052476 0.222039 0.998986 0.042863 -0.013773 254 132 125
-0.050566 -0.192434 0.157660 0.714043 0.699712 0.023349 218 216 130
0.098312 0.184985 0.717603 0.313260 -0.893490 -0.321784 167 13 86
-0.083479 0.007941 0.244341 0.999827 -0.015183 -0.010731 254 125 126
0.170991 0.062385 0.295525 -0.979920 -0.199212 -0.008508 2 102 126
0.102681 -0.143500 0.772998 0.175554 0.359683 -0.916411 149 173 10
0.238204 -0.142493 0.673048 -0.842189 0.530083 -0.098642 20 195 114
-0.073468 -0.124112 0.032607 0.964381 0.264322 -0.010170 250 161 126
0.171186 -0.056044 0.434428 -0.994942 0.100269 0.006047 0 140 128
0.183311 -0.085912 0.492305 -0.934009 0.205777 0.292033 8 153 164
0.164160 0.085578 0.790419 -0.110958 -0.202443 -0.972988 113 101 3
-0.076462 -0.104261 0.219839 0.984646 0.174501 -0.004592 253 149 126
0.170041 0.153993 0.759932 -0.117357 -0.754145 -0.646136 112 31 45
0.005966 -0.109425 0.646522 0.976858 0.194679 -0.088590 252 152 116
0.165060 0.098182 0.140340 -0.979920 -0.199212 -0.008508 2 102 126
0.238877 -0.144117 0.658577 -0.842189 0.530083 -0.098642 20 195 114
-0.084466 0.042458 0.124596 0.999924 -0.006810 -0.010271 254 126 126
0.164886 -0.044424 0.073099 -0.999443 0.005700 0.032884 0 128 131
-0.005920 -0.065513 0.592004 0.987023 0.136225 -0.085019 253 144 116
0.023187 0.227050 0.331486 0.349918 -0.921830 -0.166694 172 9 106
0.251895 0.072724 0.602977 -0.919382 -0.293433 0.261980 10 90 160
0.118289 0.204059 0.532278 0.036052 -0.973680 0.225048 132 3 156
0.233070 0.149746 0.648652 -0.877163 -0.418017 0.236320 15 74 157
-0.071478 0.123866 0.031520 0.985005 -0.172354 -0.007645 253 105 126
0.193816 -0.002931 0.487439 -0.946766 0.016854 0.321482 6 129 168
0.151799 -0.135613 0.410593 -0.955039 0.296468 -0.002569 5 165 127
0.110009 0.211267 0.121659 -0.691780 -0.722023 -0.011125 39 35 126
0.132409 -0.183584 0.359051 -0.798645 0.580484 -0.158759 25 201 107
0.157041 -0.136332 0.478307 -0.716204 0.697355 0.027340 36 216 130
-0.061380 0.165584 0.035484 0.902861 -0.429678 0.014802 242 72 129
-0.082984 0.011604 0.289247 0.999924 -0.006810 -0.010271 254 126 126
0.126569 -0.187404 0.374462 -0.798645 0.580484 -0.158759 25 201 107
-0.046337 0.165388 0.382637 0.676724 -0.502456 -0.538129 213 63 58
-0.084541 0.028886 0.126247 0.999924 -0.006810 -0.010271 254 126 126
-0.069358 -0.143816 0.009737 0.994651 0.102540 -0.012420 254 140 125
-0.047321 -0.198232 0.232156 0.714043 0.699712 0.023349 218 216 130
0.172574 -0.038140 0.365975 -0.994942 0.100269 0.006047 0 140 128
-0.002662 -0.209534 0.333743 0.350737 0.936110 -0.026092 172 246 124
-0.085826 0.009465 0.023466 0.999827 -0.015183 -0.010731 254 125 126
0.133861 -0.187306 0.029649 -0.791197 0.611550 0.003758 26 205 127
0.168050 -0.186181 0.725814 -0.212500 0.916218 -0.339688 100 244 84
0.167099 0.083731 0.243868 -0.979920 -0.199212 -0.008508 2 102 126
0.115807 0.206542 0.042116 -0.802814 -0.596115 -0.011713 25 51 126
-0.081205 -0.065929 0.145373 0.994413 0.105232 -0.008349 254 140 126
0.190612 -0.009782 0.793160 -0.208464 0.121631 -0.970437 100 143 3
0.170951 -0.011244 0.141896 -0.986403 0.160980 0.033087 1 148 131
0.119932 0.124159 0.778862 0.061401 -0.602368 -0.795854 135 50 26
0.237008 -0.111243 0.597854 -0.935506 0.259121 0.240176 8 160 158
-0.051788 0.071540 0.419634 0.931859 -0.140236 -0.334622 246 109 84
-0.035826 -0.156346 0.410269 0.684492 0.489967 -0.539818 214 189 58
-0.058500 0.153900 0.371610 0.845969 -0.317139 -0.428671 235 87 72
0.023893 0.244781 0.144730 0.101164 -0.993253 -0.056693 140 0 120
0.173502 0.035571 0.208342 -0.999151 -0.041044 -0.003624 0 122 127
0.177200 -0.111850 0.491036 -0.934009 0.205777 0.292033 8 153 164
0.156030 -0.168212 0.752437 -0.194189 0.507486 -0.839493 102 192 20
0.107975 -0.222190 0.643969 0.190527 0.968249 0.161841 151 250 148
0.233527 -0.079468 0.755309 -0.758259 -0.078784 -0.647176 30 117 44
-0.003133 0.172258 0.436534 0.324520 -0.839474 -0.435856 168 20 71
-0.063276 -0.176574 0.226337 0.994651 0.102540 -0.012420 254 140 125
0.113488 0.209535 0.556926 0.370026 -0.913466 0.169293 174 11 149
0.001010 0.110989 0.549538 0.951635 -0.283335 -0.118793 248 91 112
-0.000112 -0.217850 0.229822 0.260102 0.964839 -0.037861 160 250 122
-0.080716 -0.056795 0.290074 0.998986 0.042863 -0.013773 254 132 125
0.162779 -0.102743 0.122178 -0.955039 0.296468 -0.002569 5 165 127
0.080799 0.198626 0.466927 0.329589 -0.904902 -0.269302 169 12 93
0.230906 -0.002337 0.557570 -0.874376 0.020987 0.484795 16 130 189
-0.082704 -0.050594 0.160104 0.994413 0.105232 -0.008349 254 140 126
0.074321 -0.211269 0.628522 0.271375 0.934866 0.228870 162 246 156
-0.071095 -0.130413 0.093831 0.964381 0.264322 -0.010170 250 161 126
0.019257 0.117320 0.735424 0.989026 -0.130428 -0.069400 253 110 118
0.216233 0.015253 0.774992 -0.690653 -0.243985 -0.680786 39 96 40
0.256911 -0.048952 0.679678 -0.987345 0.104327 0.119437 1 140 142
0.253330 0.012664 0.678244 -0.998896 -0.037379 0.028459 0 122 131
0.146935 0.153766 0.233218 -0.929991 -0.367524 -0.006603 8 80 126
-0.014571 -0.037590 0.536314 0.987023 0.136225 -0.085019 253 144 116
0.203512 -0.087445 0.527383 -0.843242 0.175374 0.508122 19 149 192
0.153487 -0.172459 0.749109 -0.040294 0.765306 -0.642405 122 225 45
-0.073138 0.112596 0.085139 0.979884 -0.199342 -0.009506 252 102 126
-0.082663 0.022494 0.313271 0.999924 -0.006810 -0.010271 254 126 126
0.019586 -0.189484 0.430523 0.367443 0.889341 -0.272137 174 240 92
-0.038530 0.027191 0.464713 0.908788 -0.052719 -0.413914 243 120 74
0.130540 0.188054 0.490918 -0.250580 -0.946269 0.204414 95 6 153
0.122046 0.124217 0.778981 0.061401 -0.602368 -0.795854 135 50 26
0.226913 -0.144636 0.598049 -0.717747 0.644803 0.262809 35 209 161
0.041965 -0.050310 0.784282 0.264640 0.158821 -0.951179 161 147 6
0.200771 0.009926 0.791521 -0.644138 0.037080 -0.764010 45 132 30
0.052569 -0.234193 0.075972 -0.530019 0.845140 -0.069407 59 235 118
0.235680 -0.100969 0.585179 -0.843339 0.165391 0.511297 19 148 192
0.075701 0.219308 0.307752 -0.347386 -0.937412 -0.024098 83 7 124
0.015561 -0.030326 0.753469 0.856892 -0.009003 -0.515418 236 126 61
-0.037969 0.200327 0.137720 0.623810 -0.781575 -0.001414 207 27 127
0.160814 -0.111506 0.011971 -0.993108 -0.085824 0.079812 0 116 137
0.170182 0.018453 0.010471 -0.990869 0.132273 0.026110 1 144 130
-0.079082 0.077201 0.147737 0.980680 -0.195502 -0.006758 252 102 126
0.252773 0.028474 0.665810 -0.998655 0.051584 -0.005135 0 134 126
-0.070299 0.129989 0.045501 0.985005 -0.172354 -0.007645 253 105 126
0.253474 0.075170 0.700715 -0.948939 -0.208609 -0.236636 6 100 97
0.085971 -0.200367 0.699801 0.329592 0.885109 -0.328559 169 240 85
0.066145 0.034314 0.790916 0.306076 -0.059418 -0.950151 166 119 6
0.134966 0.177198 0.222329 -0.802814 -0.596115 -0.011713 25 51 126
-0.084978 0.009692 0.102147 0.999827 -0.015183 -0.010731 254 125 126
0.016527 -0.214835 0.358005 0.310089 0.900743 -0.304148 167 242 88
0.190608 0.185270 0.585496 -0.666346 -0.734454 0.128689 42 33 143
0.202561 -0.153438 0.740177 -0.571877 0.507395 -0.644598 54 192 45
0.254820 0.062757 0.682514 -0.996931 0.078202 -0.003636 0 137 127
0.053191 -0.190737 0.463035 0.181557 0.926210 -0.330411 150 245 85
0.189080 -0.183521 0.707283 -0.595913 0.749109 -0.289350 51 223 90
0.133183 -0.193722 0.305369 -0.940557 0.339240 -0.016413 7 170 125
0.178048 0.053740 0.432976 -0.924151 -0.294075 0.243855 9 90 158
0.127749 0.180534 0.299586 -0.764337 -0.629141 -0.141319 30 47 109
0.223288 -0.122863 0.571821 -0.843339 0.165391 0.511297 19 148 192
0.033179 0.242655 0.203086 0.296634 -0.953809 -0.047508 165 5 121
0.033650 0.104074 0.758836 0.878206 -0.099067 -0.467910 239 114 67
0.041010 -0.170651 0.715750 0.797816 0.561434 -0.219733 229 199 99
0.170835 0.146617 0.511397 -0.717639 -0.517847 0.465649 36 61 186
-0.003390 0.014928 0.630450 0.992621 -0.021866 -0.119275 254 124 112
0.072888 0.242343 0.061931 -0.361717 -0.927771 -0.091664 81 9 115
-0.083574 -0.005909 0.241155 0.998986 0.042863 -0.013773 254 132 125
0.256582 -0.097157 0.681714 -0.987914 -0.025542 0.152882 1 124 146
0.165159 0.095229 0.198144 -0.979920 -0.199212 -0.008508 2 102 126
0.111287 -0.187730 0.466922 -0.221993 0.974472 -0.033532 99 251 123
0.163508 -0.121421 0.777075 -0.158004 0.423541 -0.891991 107 181 13
-0.071600 -0.032228 0.404322 0.940937 -0.134166 -0.310865 247 110 87
-0.054716 -0.186086 0.094315 0.714043 0.699712 0.023349 218 216 130
0.003078 0.130760 0.518952 0.951635 -0.283335 -0.118793 248 91 112
0.018558 -0.143253 0.637507 0.851270 0.523826 -0.030757 236 194 123
0.101028 0.196174 0.488981 -0.319342 -0.929343 0.185318 86 9 151
-0.034977 0.203627 0.259052 0.729390 -0.684096 0.001554 220 40 127
0.252662 0.020855 0.610878 -0.998655 0.051584 -0.005135 0 134 126
-0.062143 -0.175656 0.324701 0.994651 0.102540 -0.012420 254 140 125
0.008024 -0.125776 0.609597 0.894360 0.446090 -0.033537 241 184 123
0.090512 -0.216703 0.112186 -0.216259 0.976333 -0.002508 99 251 127
-0.082897 -0.061297 0.002143 0.994413 0.105232 -0.008349 254 140 126
-0.001981 -0.225537 0.021092 0.260102 0.964839 -0.037861 160 250 122
0.065795 0.214409 0.364288 -0.297695 -0.899789 -0.318994 89 12 86
0.163112 -0.100090 0.304479 -0.955039 0.296468 -0.002569 5 165 127
0.177416 0.057858 0.435547 -0.924151 -0.294075 0.243855 9 90 158
0.183151 0.203236 0.649423 -0.666346 -0.734454 0.128689 42 33 143
-0.036981 -0.125850 0.429474 0.836631 0.273814 -0.474420 234 162 67
0.239415 -0.103176 0.598526 -0.935506 0.259121 0.240176 8 160 158
0.147211 -0.162410 0.148651 -0.940557 0.339240 -0.016413 7 170 125
0.057075 0.186922 0.578221 0.622618 -0.781673 0.036513 206 27 132
0.039795 0.173033 0.575543 0.622618 -0.781673 0.036513 206 27 132
0.213751 -0.108943 0.551587 -0.843339 0.165391 0.511297 19 148 192
-0.083096 -0.049384 0.128690 0.994413 0.105232 -0.008349 254 140 126
-0.012488 -0.054949 0.532681 0.987023 0.136225 -0.085019 253 144 116
0.051819 0.179818 0.674175 0.727414 -0.683970 -0.055262 220 40 120
-0.082756 -0.046002 0.175730 0.998986 0.042863 -0.013773 254 132 125
0.120071 0.072650 0.798137 -0.110958 -0.202443 -0.972988 113 101 3
0.071740 0.186223 0.688295 0.313260 -0.893490 -0.321784 167 13 86
-0.082310 0.044716 0.332903 0.999924 -0.006810 -0.010271 254 126 126
-0.064277 -0.152504 0.344921 0.994651 0.102540 -0.012420 254 140 125
-0.082816 -0.052978 0.116673 0.994413 0.105232 -0.008349 254 140 126
-0.036194 -0.207296 0.117865 0.775820 0.630621 0.020484 226 207 130
0.171763 -0.023370 0.221946 -0.995323 0.089909 0.035319 0 138 132
0.111256 0.192048 0.378286 -0.706629 -0.706349 -0.041799 37 37 122
-0.015563 0.224285 0.240410 0.729390 -0.684096 0.001554 220 40 127
-0.080984 -0.075128 0.066135 0.995952 0.089514 -0.008185 254 138 126
-0.051542 -0.194402 0.246474 0.714043 0.699712 0.023349 218 216 130
0.000392 0.116400 0.531684 0.951635 -0.283335 -0.118793 248 91 112
0.214313 -0.025911 0.529030 -0.879129 0.077543 0.470233 15 137 187
-0.048747 0.191475 0.275529 0.623810 -0.781575 -0.001414 207 27 127
0.085770 0.229893 0.137108 -0.361717 -0.927771 -0.091664 81 9 115
0.163865 0.101218 0.206968 -0.979920 -0.199212 -0.008508 2 102 126
0.023294 -0.108607 0.750704 0.833427 0.350805 -0.427008 233 172 73
0.085044 0.221764 0.222255 -0.361717 -0.927771 -0.091664 81 9 115
0.053324 -0.231995 0.096971 -0.530019 0.845140 -0.069407 59 235 118
-0.068229 -0.142597 0.110242 0.994651 0.102540 -0.012420 254 140 125
0.237653 0.126187 0.623987 -0.877163 -0.418017 0.236320 15 74 157
0.123994 0.184958 0.468562 -0.250580 -0.946269 0.204414 95 6 153
0.095980 0.189849 0.701825 0.313260 -0.893490 -0.321784 167 13 86
0.188558 0.158332 0.553418 -0.768999 -0.460809 0.443052 29 68 183
0.137360 0.175376 0.060572 -0.836333 -0.548201 -0.004821 20 57 126
-0.055463 -0.062291 0.422184 0.765818 0.045751 -0.641428 225 133 45
0.168607 -0.119012 0.466889 -0.925191 0.272498 0.264135 9 162 161
0.213376 0.023474 0.524836 -0.874376 0.020987 0.484795 16 130 189
0.011470 0.072625 0.713655 0.989304 -0.072090 -0.126812 253 118 111
0.076971 0.194620 0.556260 0.370026 -0.913466 0.169293 174 11 149
0.165348 -0.074633 0.092368 -0.999443 0.005700 0.032884 0 128 131
0.141316 0.167294 0.257349 -0.909602 -0.415476 -0.001887 11 74 127
0.169598 -0.117650 0.468952 -0.925191 0.272498 0.264135 9 162 161
0.123106 0.059767 0.800471 -0.110958 -0.202443 -0.972988 113 101 3
0.097236 -0.211367 0.601752 0.271375 0.934866 0.228870 162 246 156
0.022098 -0.071156 0.762495 0.774871 0.116812 -0.621232 226 142 48
0.122883 -0.201871 0.088478 -0.791197 0.611550 0.003758 26 205 127
0.017615 0.243378 0.158109 0.101164 -0.993253 -0.056693 140 0 120
-0.079599 0.071017 0.251627 0.980680 -0.195502 -0.006758 252 102 126
0.174636 0.028056 0.417765 -0.995017 -0.098096 0.017860 0 114 129
0.155393 0.124007 0.445620 -0.829660 -0.453106 0.326128 21 69 169
-0.046335 0.193627 0.150057 0.623810 -0.781575 -0.001414 207 27 127
-0.002030 0.032829 0.630965 0.989304 -0.072090 -0.126812 253 118 111
0.118584 0.180791 0.442087 -0.319342 -0.929343 0.185318 86 9 151
-0.083027 0.031442 0.271928 0.999924 -0.006810 -0.010271 254 126 126
0.254509 0.103141 0.671908 -0.948939 -0.208609 -0.236636 6 100 97
-0.036768 -0.208757 0.184579 0.775820 0.630621 0.020484 226 207 130
0.254081 0.054660 0.710882 -0.996931 0.078202 -0.003636 0 137 127
0.140837 -0.153154 0.482898 -0.716204 0.697355 0.027340 36 216 130
-0.071445 0.111198 0.321383 0.985005 -0.172354 -0.007645 253 105 126
0.033039 0.244149 0.172210 0.296634 -0.953809 -0.047508 165 5 121
-0.018803 0.220683 0.175586 0.729390 -0.684096 0.001554 220 40 127
0.244804 0.124700 0.675317 -0.898153 -0.402884 -0.176085 12 76 105
0.159225 -0.116606 0.156569 -0.976834 0.213536 -0.014040 2 154 125
0.208638 -0.050848 0.523260 -0.843242 0.175374 0.508122 19 149 192
0.058512 -0.223477 0.234800 -0.216259 0.976333 -0.002508 99 251 127
0.028482 0.243734 0.171270 0.101164 -0.993253 -0.056693 140 0 120
-0.068676 -0.129631 0.343518 0.964381 0.264322 -0.010170 250 161 126
-0.054537 0.180085 0.060570 0.813307 -0.581584 0.017084 231 53 129
0.259156 -0.061539 0.704297 -0.987914 -0.025542 0.152882 1 124 146
0.199084 0.181560 0.714756 -0.648527 -0.752819 -0.112583 44 31 113
0.172949 -0.011412 0.215403 -0.998819 0.043455 0.021739 0 133 130
0.041628 0.252245 0.063292 0.296634 -0.953809 -0.047508 165 5 121
0.017357 -0.139901 0.661356 0.851270 0.523826 -0.030757 236 194 123
-0.082554 0.008047 0.333537 0.999924 -0.006810 -0.010271 254 126 126
0.140857 -0.178165 0.187143 -0.940557 0.339240 -0.016413 7 170 125
0.107576 0.114289 0.784254 0.156193 -0.596499 -0.787269 147 51 27
0.138119 0.173253 0.170197 -0.836333 -0.548201 -0.004821 20 57 126
-0.021887 -0.135501 0.452203 0.796026 0.420361 -0.435477 228 181 71
