ply
format ascii 1.0
element vertex 256
property float x
property float y
property float z
property float nx
property float ny
property float nz
property uchar red
property uchar green
property uchar blue
end_header
0.160019 -0.038009 0.023753 0.307481 0.095291 -0.946771 166 139 6
-0.094551 -0.193949 0.378278 0.758021 0.474530 -0.447465 224 188 70
0.070874 0.192396 0.345933 -0.710313 -0.499069 0.496374 36 63 190
-0.059165 -0.202227 0.172341 -0.600182 0.777936 0.186002 50 226 151
0.511985 -0.028682 -0.029272 -0.872251 0.172421 -0.457657 16 149 69
0.211688 -0.224980 0.562157 -0.248313 0.931248 0.266679 95 246 161
0.182212 -0.150508 0.875831 0.663244 0.267054 -0.699135 212 161 38
0.254647 -0.005643 0.454314 -0.723245 -0.144232 0.675362 35 109 213
0.189865 0.024299 0.924995 0.605487 -0.199284 -0.770501 204 102 29
-0.078436 -0.089639 0.490964 0.768124 0.235021 -0.595610 225 157 51
0.100419 0.233740 0.576564 0.082581 -0.975624 0.203319 138 3 153
0.085068 0.086092 -0.020322 0.359149 -0.413451 -0.836702 173 74 20
0.367394 0.163887 0.914068 -0.100218 -0.577660 -0.810102 114 53 24
-0.071330 0.146639 0.034460 -0.816855 -0.500477 0.286828 23 63 164
0.052036 0.203499 0.560687 0.595915 -0.707169 -0.380523 203 37 78
-0.203554 0.206248 -0.133586 -0.628327 -0.658871 0.413636 47 43 180
0.110954 0.163322 0.374056 -0.710313 -0.499069 0.496374 36 63 190
0.168116 -0.246884 0.639213 0.218216 0.967795 -0.125521 155 250 111
-0.038244 0.228519 0.368435 0.308867 -0.933984 -0.179650 166 8 104
0.090755 -0.078679 0.783714 0.872821 0.265142 -0.409735 238 161 75
0.087913 -0.122828 -0.039721 0.367382 0.547052 -0.752173 174 197 31
-0.031800 0.103538 0.533647 0.771409 -0.227254 -0.594377 225 98 51
0.190733 -0.006756 0.385631 -0.723245 -0.144232 0.675362 35 109 213
0.363435 -0.130335 0.630045 -0.638337 0.566223 0.521457 46 199 193
0.385745 0.204218 0.757713 -0.713929 -0.575478 0.398912 36 54 178
0.376686 -0.128783 0.644573 -0.638365 0.564512 0.523275 46 199 194
0.522078 -0.017262 -0.049506 -0.924957 0.094167 -0.368221 9 139 80
0.028434 -0.060032 -0.065126 0.951139 0.275196 -0.140008 248 162 109
0.400534 0.242159 -0.130135 -0.279893 -0.933146 -0.225608 91 8 98
0.029890 -0.069009 -0.072884 0.951139 0.275196 -0.140008 248 162 109
0.220774 -0.045303 0.942132 0.273320 0.112459 -0.955327 162 141 5
0.239865 -0.230785 0.605588 -0.385723 0.866536 0.316754 78 237 167
0.229186 -0.235470 0.610242 -0.223456 0.931602 0.286681 99 246 164
-0.286921 0.215591 -0.022713 0.752534 -0.632808 -0.182336 223 46 104
-0.242514 0.078750 0.230878 0.855791 -0.201663 -0.476396 236 101 66
0.451341 -0.057637 0.021001 -0.664410 0.138420 -0.734438 42 145 33
0.136955 -0.159341 0.384297 -0.638337 0.566223 0.521457 46 199 193
0.345230 -0.067553 0.960566 0.046310 0.099443 -0.993965 133 140 0
0.550636 0.024394 -0.110589 -0.924957 0.094167 -0.368221 9 139 80
0.495304 -0.063758 0.816636 -0.911148 0.391543 0.128464 11 177 143
0.372772 0.064554 0.604328 -0.724992 -0.266897 0.634942 35 93 208
0.395190 -0.050475 0.963860 -0.086777 -0.058859 -0.994488 116 119 0
-0.328234 0.123908 0.024815 0.836273 -0.339780 -0.430345 234 84 72
0.084825 0.117211 0.728109 0.887317 -0.212720 -0.409168 240 100 75
0.040620 0.106718 0.648916 0.850845 -0.261724 -0.455590 235 94 69
-0.132641 -0.232665 0.238080 0.099874 0.982525 -0.157068 140 252 107
0.424245 -0.142514 0.925797 -0.592688 0.414126 -0.690811 51 180 39
0.428793 0.037141 0.657065 -0.835014 -0.252441 0.488902 21 95 189
0.259902 -0.182177 -0.015606 0.112311 0.858582 -0.500223 141 236 63
0.485729 0.089132 -0.010558 -0.705969 -0.071463 -0.704628 37 118 37
0.256864 -0.229326 0.828766 0.352599 0.811074 -0.466727 172 230 67
-0.141869 0.198861 -0.037037 -0.697765 -0.600908 0.389915 38 50 177
0.450387 0.222841 -0.133456 -0.562546 -0.801307 -0.203592 55 25 101
0.195353 0.024019 0.027864 0.225156 -0.104477 -0.968705 156 114 3
0.138001 -0.174902 0.790677 0.562514 0.673556 -0.479479 199 213 66
0.095195 0.233976 0.546047 -0.254951 -0.966625 0.025204 94 4 130
-0.056473 0.048648 0.522611 0.771409 -0.227254 -0.594377 225 98 51
0.265153 0.236942 -0.123924 0.244469 -0.969149 0.031386 158 3 131
-0.028624 -0.027834 0.024972 -0.869882 -0.058160 0.489819 16 120 189
0.091729 0.139639 -0.124221 0.271837 -0.407011 0.872036 162 75 238
-0.075875 -0.166923 0.023458 -0.674967 0.672004 0.304680 41 213 166
0.378590 -0.063277 0.962548 0.046310 0.099443 -0.993965 133 140 0
0.245774 0.148861 0.521602 -0.619490 -0.565352 0.544618 48 55 196
0.037070 0.055886 -0.035934 0.688469 -0.383179 -0.615779 215 78 48
-0.066238 0.085472 0.495859 0.771409 -0.227254 -0.594377 225 98 51
0.085886 -0.133734 0.730280 0.867615 0.184118 -0.461893 238 150 68
0.088655 -0.102328 -0.139263 0.258940 0.387664 0.884684 160 176 240
-0.364514 -0.018305 0.021092 0.883825 0.028427 -0.466953 240 131 67
0.014191 -0.078526 0.626704 0.806630 0.159742 -0.569062 230 147 54
0.110752 0.088089 0.311277 -0.815693 -0.113328 0.567276 23 113 199
-0.213288 0.023398 0.306377 0.828458 -0.212011 -0.518371 233 100 61
0.024046 0.218793 0.492852 0.526777 -0.738797 -0.420339 194 33 73
0.345227 -0.233983 0.790115 -0.436819 0.885063 0.160790 71 240 148
0.167405 -0.224641 0.752790 0.567182 0.733511 -0.374521 199 221 79
-0.127991 -0.039555 -0.131435 -0.918374 0.127424 0.374635 10 143 175
0.094871 -0.079389 0.283538 -0.827793 0.241290 0.506496 21 158 192
0.291373 0.209368 0.891041 -0.100218 -0.577660 -0.810102 114 53 24
0.361646 0.188144 0.691394 -0.713929 -0.575478 0.398912 36 54 178
0.164024 0.236698 0.718056 0.206148 -0.970801 -0.122675 153 3 111
-0.019759 -0.008767 0.594044 0.876418 -0.242576 -0.415991 239 96 74
0.312943 0.245277 0.770177 -0.442340 -0.894642 0.062857 71 13 135
0.042638 -0.032188 0.203755 -0.954626 -0.047657 0.293971 5 121 164
0.260468 0.217350 0.865451 0.283893 -0.876132 -0.389613 163 15 77
0.396546 -0.013188 0.611942 -0.723761 0.256069 0.640779 35 160 209
0.135642 -0.172766 -0.132924 0.715318 0.269604 0.644697 218 161 209
0.091883 -0.142932 0.737879 0.867615 0.184118 -0.461893 238 150 68
0.405199 -0.033275 0.629742 -0.723761 0.256069 0.640779 35 160 209
0.468413 -0.010798 0.014385 -0.664410 0.138420 -0.734438 42 145 33
-0.137324 0.181338 -0.055909 -0.697765 -0.600908 0.389915 38 50 177
-0.092577 0.172385 0.018871 -0.816855 -0.500477 0.286828 23 63 164
0.085971 -0.228021 0.546145 0.244806 0.969478 0.013516 158 251 129
0.023493 0.036100 0.152653 -0.954626 -0.047657 0.293971 5 121 164
-0.191968 0.243585 0.058004 0.183724 -0.979566 -0.081823 150 2 117
0.081540 -0.093190 0.738278 0.867615 0.184118 -0.461893 238 150 68
0.098829 -0.059673 0.280613 -0.827793 0.241290 0.506496 21 158 192
0.508285 0.007032 0.842655 -0.959996 -0.137584 0.243882 5 109 158
0.355932 0.063131 0.058890 0.206208 -0.347364 -0.914777 153 83 10
0.077987 -0.225218 0.489765 0.244806 0.969478 0.013516 158 251 129
0.143942 -0.201519 0.453664 -0.436705 0.761733 0.478593 71 224 188
0.026028 0.026667 0.666310 0.826953 -0.254977 -0.501133 232 94 63
-0.328231 -0.023117 0.089473 0.883825 0.028427 -0.466953 240 131 67
0.483641 0.028138 0.765198 -0.946740 -0.124371 0.297009 6 111 165
0.493244 -0.168869 -0.108718 -0.740426 0.615768 -0.269441 33 206 93
0.339547 0.060260 0.564586 -0.724992 -0.266897 0.634942 35 93 208
0.391043 -0.151848 0.928960 -0.074838 0.454964 -0.887359 117 185 14
0.016155 -0.102569 0.619149 0.864547 0.258142 -0.431186 237 160 72
-0.137493 -0.214458 0.278798 0.714639 0.568012 -0.408232 218 199 75
0.093328 0.165557 0.351081 -0.710313 -0.499069 0.496374 36 63 190
0.376090 0.123088 0.643080 -0.619490 -0.565352 0.544618 48 55 196
0.439244 -0.166941 0.832369 -0.793144 0.592661 0.140267 26 203 145
-0.021956 0.046384 0.568274 0.771409 -0.227254 -0.594377 225 98 51
0.199909 0.220877 0.538665 -0.252686 -0.927201 0.276491 95 9 162
0.244558 0.142036 0.513134 -0.619490 -0.565352 0.544618 48 55 196
0.189597 -0.136995 0.887998 0.663244 0.267054 -0.699135 212 161 38
-0.139424 -0.084390 -0.144210 -0.918374 0.127424 0.374635 10 143 175
-0.361988 -0.047575 0.024091 0.883825 0.028427 -0.466953 240 131 67
-0.330889 0.059347 0.066224 0.917498 -0.197150 -0.345440 244 102 83
0.249600 -0.215266 0.582834 -0.638365 0.564512 0.523275 46 199 194
0.206729 -0.103864 0.914480 0.457375 0.291366 -0.840187 185 164 20
0.077121 -0.224747 0.471656 0.244806 0.969478 0.013516 158 251 129
-0.302156 0.176121 0.029019 0.758207 -0.591900 -0.273454 224 52 92
0.330283 0.113820 0.581355 -0.619490 -0.565352 0.544618 48 55 196
0.299344 -0.059542 0.052946 0.189343 0.094269 -0.977375 151 139 2
-0.073268 0.039132 0.504350 0.794072 -0.185021 -0.578980 228 103 53
0.245731 0.230132 -0.144455 0.614473 -0.785664 0.071795 205 27 136
0.465536 0.046422 0.728626 -0.851556 -0.271216 0.448658 18 92 184
0.201781 0.248459 0.632870 -0.252686 -0.927201 0.276491 95 9 162
0.215660 -0.228509 0.577078 -0.223456 0.931602 0.286681 99 246 164
-0.317534 -0.182786 -0.016284 0.532457 0.843415 -0.071700 195 235 118
-0.140447 -0.231341 0.241399 0.099874 0.982525 -0.157068 140 252 107
0.265766 0.084736 0.946546 0.270109 -0.411545 -0.870444 161 75 16
0.165371 -0.224213 0.750547 0.567182 0.733511 -0.374521 199 221 79
0.398713 0.153124 0.707213 -0.713929 -0.575478 0.398912 36 54 178
0.410270 -0.024661 0.961016 -0.086777 -0.058859 -0.994488 116 119 0
-0.157487 0.219149 0.222127 0.435116 -0.870610 -0.229592 182 16 98
0.010572 0.185730 0.534078 0.526777 -0.738797 -0.420339 194 33 73
-0.263478 0.054192 0.203614 0.855791 -0.201663 -0.476396 236 101 66
0.221056 -0.157318 0.485052 -0.638337 0.566223 0.521457 46 199 193
-0.384969 -0.136044 -0.130571 0.796851 0.583647 -0.156157 229 201 107
-0.335868 0.203340 -0.131337 0.634581 -0.723237 -0.272462 208 35 92
-0.031999 0.128828 0.523718 0.771409 -0.227254 -0.594377 225 98 51
0.047268 -0.052532 -0.020060 0.824839 0.304912 -0.476097 232 166 66
0.135328 0.129078 0.374506 -0.710313 -0.499069 0.496374 36 63 190
0.357034 -0.141076 0.937351 -0.074838 0.454964 -0.887359 117 185 14
0.490660 -0.086068 0.851700 -0.911148 0.391543 0.128464 11 177 143
-0.265437 0.234467 -0.041156 0.218097 -0.975767 -0.017654 155 3 125
-0.311633 0.037333 0.124245 0.855791 -0.201663 -0.476396 236 101 66
0.315862 0.148089 0.019952 0.133328 -0.352288 -0.926346 144 82 9
-0.157021 0.151979 0.319815 0.718326 -0.499403 -0.484360 219 63 65
-0.171812 -0.112281 0.340575 0.841924 0.199222 -0.501472 234 152 63
0.473030 0.059071 0.750496 -0.851556 -0.271216 0.448658 18 92 184
0.179876 -0.215859 0.782269 0.562514 0.673556 -0.479479 199 213 66
-0.128815 -0.018378 0.443911 0.800219 0.165773 -0.576340 229 148 54
-0.199771 0.034746 0.323338 0.828458 -0.212011 -0.518371 233 100 61
-0.087726 0.235070 0.222189 -0.295466 -0.946016 0.133240 89 6 144
-0.098456 -0.182559 0.007922 -0.674967 0.672004 0.304680 41 213 166
0.410383 -0.121356 0.942963 -0.074838 0.454964 -0.887359 117 185 14
-0.217466 0.211219 0.138525 0.435116 -0.870610 -0.229592 182 16 98
0.068232 0.213717 0.382562 -0.350779 -0.879968 0.320328 82 15 168
0.003982 -0.213536 0.486900 0.430176 0.853819 -0.293158 182 236 90
-0.181328 -0.243670 0.077849 0.373555 0.916231 0.144837 175 244 145
0.035863 -0.102951 -0.107083 0.833367 0.234247 0.500628 233 157 191
0.423739 0.170376 0.854933 -0.677459 -0.733056 -0.060651 41 34 119
0.352043 0.210475 -0.035330 -0.021201 -0.896404 -0.442730 124 13 71
-0.057891 -0.192539 0.128134 -0.616634 0.773544 0.146261 48 226 146
0.023869 0.152212 0.591497 0.850845 -0.261724 -0.455590 235 94 69
0.173540 0.234659 0.746899 0.573579 -0.737431 -0.356654 200 33 82
0.167149 -0.172802 0.831845 0.613309 0.667568 -0.422145 205 212 73
0.194545 -0.142667 -0.010298 0.236280 0.389976 -0.889995 157 177 14
-0.261379 0.138249 0.146878 0.850526 -0.344260 -0.397607 235 83 76
0.428020 0.021040 0.955965 -0.184597 -0.062461 -0.980828 103 119 2
-0.051733 0.057239 -0.002178 -0.835928 -0.097306 0.540144 20 115 196
0.483151 0.030593 0.939936 -0.590233 -0.433188 -0.681156 52 72 40
0.342282 0.049750 0.563292 -0.724992 -0.266897 0.634942 35 93 208
0.225706 -0.237124 0.612904 -0.223456 0.931602 0.286681 99 246 164
-0.136259 -0.194855 0.308233 0.714639 0.568012 -0.408232 218 199 75
-0.017249 0.155105 0.531531 0.730330 -0.499165 -0.466318 220 63 68
0.067597 -0.164559 0.299676 -0.621824 0.703497 0.344134 48 217 171
0.162065 0.098033 0.377810 -0.724992 -0.266897 0.634942 35 93 208
0.034723 0.157629 0.608656 0.850845 -0.261724 -0.455590 235 94 69
0.099193 0.226206 0.607620 0.724398 -0.666129 -0.177537 219 42 104
0.387483 -0.033495 0.609819 -0.723761 0.256069 0.640779 35 160 209
0.242098 0.250270 0.670081 -0.260374 -0.907747 0.328938 94 11 169
-0.177707 -0.244686 0.124797 0.472429 0.847253 -0.242845 187 235 96
-0.080889 -0.213302 0.350602 0.323891 0.936163 -0.136724 168 246 110
0.286926 -0.077841 0.513901 -0.730150 0.236647 0.640998 34 157 209
-0.192365 -0.229358 0.015773 0.373555 0.916231 0.144837 175 244 145
0.192406 -0.184763 -0.049842 0.384119 0.851300 -0.357408 176 236 81
0.511908 -0.018627 0.888637 -0.954250 0.299009 0.001186 5 165 127
0.012528 0.004644 -0.088838 0.980648 -0.175431 0.086912 252 105 138
0.215209 0.121990 0.458942 -0.619490 -0.565352 0.544618 48 55 196
-0.110854 0.232530 0.136375 -0.183927 -0.981743 -0.048486 104 2 121
0.444640 0.172324 -0.014087 -0.599363 -0.534313 -0.596049 51 59 51
0.131676 0.181361 -0.102573 0.400591 -0.896124 -0.191021 178 13 103
-0.281943 0.222232 -0.025213 0.752534 -0.632808 -0.182336 223 46 104
0.254357 0.181530 0.563443 -0.630135 -0.480985 0.609576 47 66 205
0.533384 -0.126551 -0.135212 -0.914102 0.393325 -0.098553 10 177 114
-0.059312 -0.197177 0.146676 -0.616634 0.773544 0.146261 48 226 146
-0.253456 -0.217070 0.023158 -0.040505 0.998266 -0.042723 122 254 122
0.267562 -0.030974 0.049545 0.189343 0.094269 -0.977375 151 139 2
0.170970 0.172147 0.838648 0.639173 -0.640600 -0.425546 208 45 73
-0.332866 -0.181715 -0.079792 0.399024 0.899536 -0.177804 178 242 104
0.073949 0.234144 0.464300 0.052454 -0.997243 -0.052492 134 0 120
-0.248277 0.235981 -0.059256 -0.133130 -0.950409 0.281069 110 6 163
0.264735 -0.215008 0.859593 0.352599 0.811074 -0.466727 172 230 67
-0.003358 -0.010605 0.620896 0.806630 0.159742 -0.569062 230 147 54
0.096818 0.225435 0.600818 0.724398 -0.666129 -0.177537 219 42 104
0.046184 -0.092740 0.211922 -0.797836 0.402311 0.449002 25 178 184
0.083006 -0.226958 0.523627 0.244806 0.969478 0.013516 158 251 129
0.337467 -0.221433 -0.052950 0.252430 0.784971 -0.565773 159 227 55
0.224843 0.132061 0.480355 -0.619490 -0.565352 0.544618 48 55 196
0.166821 0.159403 0.851601 0.639173 -0.640600 -0.425546 208 45 73
-0.062923 0.188878 0.096190 -0.696703 -0.637823 0.328309 38 46 169
-0.067153 -0.229787 0.291271 0.087668 0.982822 -0.162403 138 252 106
0.193075 -0.172762 -0.024673 0.367382 0.547052 -0.752173 174 197 31
0.489640 -0.030778 0.932559 -0.614290 0.386678 -0.687843 49 176 39
0.136619 0.175773 -0.056397 0.372755 -0.915921 -0.148802 175 10 108
-0.013409 -0.056721 0.066710 -0.954122 0.248437 0.167126 5 159 148
0.482552 0.007877 0.000867 -0.705969 -0.071463 -0.704628 37 118 37
0.201997 0.218772 0.538702 -0.630135 -0.480985 0.609576 47 66 205
0.301540 0.075257 0.045589 0.133328 -0.352288 -0.926346 144 82 9
0.001217 0.135487 0.165867 -0.810090 -0.536438 0.236620 24 59 157
0.000561 0.230189 0.426468 0.308867 -0.933984 -0.179650 166 8 104
0.207333 -0.079564 0.423875 -0.730150 0.236647 0.640998 34 157 209
0.124216 0.011761 0.860920 0.772209 0.156839 -0.615707 225 147 48
0.027648 -0.145541 0.226296 -0.797836 0.402311 0.449002 25 178 184
0.184709 -0.215085 0.512453 -0.436705 0.761733 0.478593 71 224 188
-0.061993 0.018473 -0.025039 -0.835928 -0.097306 0.540144 20 115 196
-0.151383 -0.211918 -0.019156 -0.543819 0.760433 0.354968 58 224 172
-0.303671 -0.201039 -0.112039 0.399024 0.899536 -0.177804 178 242 104
0.155516 0.186474 -0.135580 0.366493 -0.888647 0.275662 174 14 162
0.195518 0.120624 0.007168 0.292024 -0.533256 -0.793952 164 59 26
-0.090700 0.171434 0.022557 -0.816855 -0.500477 0.286828 23 63 164
0.145459 0.151757 0.831026 0.639173 -0.640600 -0.425546 208 45 73
0.248655 0.246414 0.741683 0.166349 -0.985207 -0.041182 148 1 122
-0.110222 -0.035700 0.464745 0.800219 0.165773 -0.576340 229 148 54
-0.233639 0.064097 0.253024 0.855791 -0.201663 -0.476396 236 101 66
-0.238114 -0.191711 0.139028 0.749003 0.518800 -0.412118 222 193 74
-0.017870 0.190787 0.209328 -0.749797 -0.460319 0.475300 31 68 188
0.362841 -0.009148 0.964236 -0.086777 -0.058859 -0.994488 116 119 0
0.199213 -0.022324 0.034054 0.272114 -0.105427 -0.956472 162 114 5
0.342267 -0.184432 0.000528 0.252430 0.784971 -0.565773 159 227 55
-0.050397 -0.080027 0.006117 -0.829921 0.280056 0.482493 21 163 189
0.071365 -0.138423 0.701136 0.867615 0.184118 -0.461893 238 150 68
0.077526 -0.045166 0.761318 0.946659 0.205868 -0.247901 248 153 95
-0.063718 0.030197 -0.025596 -0.835928 -0.097306 0.540144 20 115 196
-0.009036 0.036000 0.070848 -0.893652 -0.065936 0.443890 13 119 184
0.087647 0.192563 0.370104 -0.710313 -0.499069 0.496374 36 63 190
0.404658 0.147473 0.709699 -0.713929 -0.575478 0.398912 36 54 178
0.305361 -0.034126 0.056563 0.189343 0.094269 -0.977375 151 139 2
0.157081 -0.048282 0.021113 0.236280 0.389976 -0.889995 157 177 14
0.257296 -0.214658 0.854581 0.352599 0.811074 -0.466727 172 230 67
0.354072 -0.213571 0.877463 -0.291481 0.938954 -0.182769 90 247 104
0.114066 0.172664 -0.093759 0.372755 -0.915921 -0.148802 175 10 108
0.076061 -0.087225 0.730364 0.867615 0.184118 -0.461893 238 150 68
0.161978 -0.102138 0.380546 -0.730150 0.236647 0.640998 34 157 209
