ply
format ascii 1.0
element vertex 512
property float x
property float y
property float z
property float nx
property float ny
property float nz
property uchar red
property uchar green
property uchar blue
end_header
0.109953 0.182143 0.351452 0.578137 -0.680527 -0.450156 201 40 70
-0.926971 -0.649131 -1.563381 0.179205 -0.842532 -0.507962 150 20 62
-0.235814 -0.004459 -0.095579 0.755179 0.010757 -0.655430 223 128 43
-0.208994 -1.113753 -0.118677 -0.886126 0.050388 -0.460697 14 133 68
0.112800 -0.102972 0.729083 -0.237727 0.193505 0.951862 97 152 248
0.135047 0.055404 0.514385 0.904433 -0.022176 -0.426039 242 124 73
-0.888137 -1.276987 -1.978467 0.989899 0.041540 0.135553 253 132 144
-0.981262 -1.088209 -1.981697 0.665141 -0.722829 0.187365 212 35 151
0.418798 0.109684 0.872643 -0.931445 -0.363881 0.000701 8 81 127
0.216576 -0.068621 0.971811 0.011576 0.362988 -0.931722 128 173 8
0.440731 0.029925 0.891710 -0.804190 -0.290740 -0.518410 24 90 61
-0.508421 -0.032740 0.467449 0.949744 0.279809 -0.140333 248 163 109
-0.581973 -0.767789 -1.996509 -0.793092 -0.608706 -0.021951 26 49 124
-0.521049 -0.817883 -1.569368 -0.773713 -0.547560 -0.318664 28 57 86
0.280514 -0.239078 0.830382 0.000743 0.996189 -0.087223 127 254 116
-0.854079 -1.401651 -1.741543 0.072749 0.630881 -0.772462 136 207 29
-0.609648 -0.966725 -1.902207 -0.936323 -0.339084 -0.091219 8 84 115
0.453217 -0.016175 0.738815 -0.999117 0.018109 0.037913 0 129 132
-0.031185 0.217467 0.018327 0.271812 -0.910994 -0.310175 162 11 87
0.188825 -0.119882 0.053602 -0.699760 0.485872 0.523702 38 189 194
-0.595715 -1.334266 -1.473400 -0.803691 0.106217 -0.585490 25 141 52
0.289523 -0.203891 0.307659 -0.708453 0.512487 0.485234 37 192 189
-0.483863 -0.871360 -1.414332 -0.818346 -0.452657 -0.354135 23 69 82
-0.760156 -0.903235 -1.095843 -0.212080 -0.324962 -0.921641 100 86 9
-0.776241 -1.233125 -2.023837 -0.773305 -0.137600 0.618923 28 109 206
-0.365774 -0.227450 0.551026 -0.160869 0.805002 0.571045 106 230 200
0.038796 0.235897 0.080189 -0.059579 -0.996373 -0.060763 119 0 119
0.112459 0.098161 0.454811 0.904128 -0.181737 -0.386683 242 104 78
0.279294 0.247708 0.440012 0.223528 -0.960925 -0.163274 155 4 106
0.090519 -0.153509 0.929035 0.030392 0.545812 -0.837356 131 197 20
-0.979502 -1.202613 -1.604365 0.466790 -0.252535 -0.847546 187 95 19
0.274675 0.238614 0.699761 0.160841 -0.982866 0.090029 148 2 138
-0.853248 -1.153909 -1.177720 -0.223235 -0.188843 -0.956297 99 103 5
0.017800 0.222488 0.817250 0.002711 -0.998441 0.055760 127 0 134
-0.584855 -0.732191 -1.744477 -0.819047 -0.542578 -0.186473 23 58 103
-0.736688 -0.838731 -2.085064 -0.522743 -0.727012 0.445189 60 34 184
-0.054204 -0.135711 0.935261 0.033059 0.551412 -0.833578 131 197 21
-0.771197 -0.971263 -1.204657 -0.156948 -0.304072 -0.939632 107 88 7
-0.828271 -0.842897 -2.062990 0.086227 -0.955227 0.283030 138 5 163
0.378571 -0.183096 0.567719 -0.770437 0.637304 0.016439 29 208 129
-0.638698 -1.225333 -1.336575 -0.619315 0.045485 -0.783824 48 133 27
0.434747 -0.112797 0.850364 -0.888755 0.458234 0.011681 14 185 128
-0.132445 -0.025068 0.970581 0.343990 0.296030 -0.891088 171 165 13
-0.653544 -1.304292 -1.799146 -0.942792 0.185652 -0.276905 7 151 92
0.098462 -0.212149 0.041444 -0.235440 0.968611 0.079757 97 250 137
0.066107 -0.145965 0.323647 0.809511 0.396065 -0.433388 230 177 72
-0.633833 -0.935411 -2.119798 -0.819742 -0.496850 0.284892 22 64 163
0.192360 -0.208979 0.154236 -0.664653 0.617683 0.420363 42 206 181
-0.891749 -0.988168 -1.373392 0.354050 -0.522427 -0.775705 172 60 28
-0.820752 -0.714742 -2.036575 0.112821 -0.992761 0.041200 141 0 132
0.101202 0.206376 0.303577 0.578137 -0.680527 -0.450156 201 40 70
-0.570116 -1.017464 -2.041988 -0.944279 -0.319021 0.081007 7 86 137
-0.746020 -0.602509 -1.792245 -0.363564 -0.922626 -0.128771 81 9 111
-0.545343 -1.272878 -1.685740 -0.956464 -0.012299 -0.291591 5 125 90
-0.504739 -0.869878 -1.453904 -0.841466 -0.464216 -0.276475 20 68 92
-0.581715 -0.665518 -1.917146 -0.727322 -0.677961 -0.106634 34 41 113
-0.692600 -0.917214 -2.025029 -0.823114 -0.485832 0.294025 22 65 164
0.049158 0.236561 0.059142 -0.059579 -0.996373 -0.060763 119 0 119
-0.562880 -1.248372 -1.748358 -0.959979 -0.062801 -0.272939 5 119 92
-0.158142 0.143103 0.905096 0.125340 -0.709124 -0.693854 143 37 39
-0.030216 -0.129475 0.940319 0.030392 0.545812 -0.837356 131 197 20
-0.738919 -0.627045 -1.554249 -0.388669 -0.799970 -0.457148 77 25 69
0.129198 0.034880 0.699400 0.667123 -0.155423 0.728554 212 107 220
0.423024 -0.127574 0.538089 -0.888755 0.458234 0.011681 14 185 128
-0.399802 0.151968 0.725236 0.652547 -0.559689 -0.510814 210 56 62
-0.335915 -0.246548 0.640225 0.122092 0.992164 -0.026543 143 254 124
-0.380579 -0.075314 0.790030 0.823233 0.282405 -0.492479 232 163 64
-0.246877 0.244846 0.716556 -0.089264 -0.984981 0.147796 116 1 146
-0.767436 -0.679683 -2.094527 -0.248040 -0.956131 0.155850 95 5 147
-0.111645 -0.181324 -0.024033 0.676349 0.412132 -0.610491 213 180 49
-0.064268 -0.239849 -0.090034 0.190078 0.936660 -0.294174 151 246 89
0.384880 0.164494 0.648888 -0.830178 -0.557474 -0.005187 21 56 126
-0.232375 -0.004628 0.933810 0.589187 0.064327 -0.805432 202 135 24
0.048900 0.149652 0.282493 0.889629 -0.243427 -0.386399 240 96 78
-0.720099 -0.778194 -2.075435 -0.488720 -0.775214 0.400244 65 28 178
-1.035578 -1.049247 -1.571197 0.397891 -0.420492 -0.815395 178 73 23
-1.022767 -1.209359 -1.725188 0.633136 -0.374876 -0.677206 208 79 41
0.028111 0.213896 -0.148824 -0.605594 -0.701126 0.376403 50 38 175
-0.360055 -0.204608 0.520437 -0.160869 0.805002 0.571045 106 230 200
-1.008279 -1.058092 -1.936538 0.624989 -0.764558 -0.157608 207 30 107
-0.011708 0.211963 0.081790 0.588064 -0.724603 -0.359350 202 35 81
0.088800 0.152958 0.925702 -0.017008 -0.467010 -0.884088 125 67 14
-0.290640 0.058689 0.471440 -0.625024 -0.238678 0.743221 47 97 222
-0.632706 -1.068573 -1.228806 -0.651573 -0.173134 -0.738565 44 105 33
-0.517012 -1.051250 -1.354288 -0.913884 -0.208910 -0.348098 10 100 83
0.257853 -0.034898 0.112871 -0.836872 -0.038441 0.546048 20 122 197
-0.419205 0.163777 0.687508 0.652547 -0.559689 -0.510814 210 56 62
0.387226 0.162445 0.493717 -0.830178 -0.557474 -0.005187 21 56 126
-0.736531 -1.406895 -1.470216 -0.631258 0.500169 -0.592742 47 191 51
-0.481046 0.120564 0.426099 0.513108 -0.408514 0.754875 192 75 223
-0.451226 -0.844508 -1.731846 -0.853283 -0.432941 -0.290637 18 72 90
-0.490646 0.025989 0.632989 0.951603 -0.217800 -0.216830 248 99 99
0.209872 0.181062 0.542801 0.630828 -0.624138 -0.460986 207 47 68
-0.991930 -1.219494 -1.712231 0.585075 -0.207384 -0.784015 202 101 27
-0.717485 -1.372522 -1.915200 -0.919624 0.391106 -0.036437 10 177 122
-0.716703 -0.647470 -1.295812 -0.386149 -0.683355 -0.619609 78 40 48
-1.049235 -0.974338 -1.468038 0.385977 -0.473281 -0.791851 176 67 26
-0.979297 -0.862922 -1.656300 0.474736 -0.741283 -0.474474 188 32 67
-0.939948 -0.947773 -2.064303 0.399942 -0.896756 0.189408 178 13 151
-0.000788 0.196874 0.132054 0.594060 -0.735685 -0.325360 203 33 86
-0.248495 -0.022820 -0.110492 0.755179 0.010757 -0.655430 223 128 43
-0.575964 -0.781822 -1.649098 -0.803409 -0.566686 -0.182758 25 55 104
-0.127498 0.083025 0.613037 -0.576110 -0.215676 0.788404 54 100 228
0.350002 -0.217168 0.549660 -0.770437 0.637304 0.016439 29 208 129
-0.028748 0.072857 0.152394 0.834556 -0.211540 -0.508692 233 100 62
-0.602314 -1.368113 -1.461666 -0.907725 0.328616 -0.260857 11 169 94
0.021468 -0.236038 -0.048571 -0.108695 0.994027 -0.009798 113 254 126
-0.022548 0.018970 0.662786 -0.362827 0.156252 0.918663 81 147 244
0.070619 -0.055705 0.973362 0.021088 0.304590 -0.952250 130 166 6
-0.176110 0.191864 0.638050 -0.362237 -0.715462 0.597409 81 36 203
-0.849595 -1.036321 -2.118482 -0.463590 -0.589228 0.661736 68 52 211
-0.021862 0.222099 0.812211 0.002711 -0.998441 0.055760 127 0 134
0.258923 0.251378 0.802807 -0.198074 -0.975924 0.091320 102 3 139
-0.498630 -0.760250 -1.708023 -0.809189 -0.527283 -0.259202 24 60 94
-0.763625 -0.557817 -1.353859 -0.333890 -0.839265 -0.429129 84 20 72
-0.954714 -0.922386 -1.499436 0.395423 -0.574598 -0.716573 177 54 36
-0.982320 -0.795059 -1.644367 0.351708 -0.678796 -0.644622 172 40 45
0.136725 0.213190 0.773953 0.322257 -0.579376 0.748648 168 53 222
-0.231350 -0.233672 0.660092 -0.246646 0.916097 0.316119 96 244 167
0.101351 -0.039273 0.456218 0.904260 0.247269 -0.348098 242 159 83
-0.807322 -0.998232 -1.130849 -0.179230 -0.281399 -0.942704 104 91 7
-0.488088 -0.907749 -0.256021 0.462109 -0.758160 -0.460054 186 30 68
-0.057067 0.239822 -0.073963 0.295901 -0.907069 -0.299445 165 11 89
0.004922 0.140212 0.179621 0.834556 -0.211540 -0.508692 233 100 62
-0.091105 -0.222302 0.738673 -0.280407 0.630563 0.723714 91 207 219
-0.754541 -1.323692 -2.045890 -0.885051 0.444614 0.137853 14 184 145
-0.782333 -1.013933 -2.177112 -0.483345 -0.603128 0.634519 65 50 208
0.099087 -0.006600 0.985994 -0.038494 -0.189741 -0.981079 122 103 2
0.164954 -0.121433 0.692309 0.688385 0.187200 0.700772 215 151 216
-0.489948 -0.801262 -1.601822 -0.845103 -0.465295 -0.263252 19 68 93
0.239508 -0.060631 0.975208 0.011576 0.362988 -0.931722 128 173 8
0.107510 -0.228192 0.833345 0.048114 0.998466 -0.027390 133 254 124
0.386536 -0.172028 0.511909 -0.770437 0.637304 0.016439 29 208 129
-0.586377 -1.282434 -1.398950 -0.868635 0.108671 -0.483387 16 141 65
0.266369 0.112001 0.943921 -0.017008 -0.467010 -0.884088 125 67 14
0.087964 0.172569 -0.099444 -0.818689 -0.295887 0.492137 23 89 190
-0.614869 -1.016394 -1.263715 -0.714216 -0.187207 -0.674425 36 103 41
-0.807468 -1.149995 -2.162303 -0.472040 -0.487626 0.734438 67 65 221
0.357788 0.209484 0.447283 -0.839222 -0.543294 -0.023182 20 58 124
-1.012739 -1.102254 -1.518904 0.458537 -0.309134 -0.833175 185 88 21
-0.102074 -0.207003 -0.043083 0.505375 0.773480 -0.382524 191 226 78
0.190295 -0.195384 0.905361 0.030392 0.545812 -0.837356 131 197 20
-0.376707 0.200270 0.697865 0.634431 -0.615164 -0.468050 208 49 67
-0.864540 -1.345615 -1.594804 0.133935 0.466038 -0.874569 144 186 15
-0.346034 -0.195932 0.734835 0.650762 0.577840 -0.492554 210 201 64
-0.334688 0.059548 0.436056 -0.594393 0.001492 0.804174 51 127 230
-0.941853 -1.130657 -1.989192 0.761194 -0.635995 0.126862 224 46 143
-0.931977 -1.187614 -1.702897 0.575005 -0.139779 -0.806121 200 109 24
-0.559468 -1.064597 -1.496238 -0.901831 -0.227488 -0.367355 12 98 80
-0.440690 0.180413 0.487233 0.446869 -0.813914 0.371284 184 23 174
-0.707252 -0.869905 -2.102754 -0.514404 -0.726453 0.455691 61 34 185
-0.579869 -1.234781 -1.674488 -0.965415 0.030754 -0.258897 4 131 94
-0.960763 -0.962294 -1.847370 0.551782 -0.820852 -0.147442 197 22 108
-0.299960 -0.225796 0.733735 0.212613 0.920266 -0.328490 154 244 85
-0.485198 -0.101179 0.481395 0.933960 0.319478 -0.160162 246 168 107
-0.749568 -1.383433 -1.626718 -0.597971 0.440492 -0.669625 51 183 42
0.112283 -0.131341 0.419215 0.904260 0.247269 -0.348098 242 159 83
-0.287149 0.233746 0.746576 0.306419 -0.876503 -0.371280 166 15 80
-0.015491 0.236113 -0.022683 0.271812 -0.910994 -0.310175 162 11 87
0.096765 -0.103907 0.725269 -0.237727 0.193505 0.951862 97 152 248
-0.541964 -0.943446 -1.862694 -0.915124 -0.354282 -0.192439 10 82 102
0.166575 0.229477 0.786611 0.163854 -0.907205 0.387468 148 11 176
-0.921347 -0.853084 -1.908521 0.471596 -0.854662 -0.217142 187 18 99
-1.001968 -1.143552 -1.826216 0.606878 -0.295726 -0.737730 204 89 33
-0.988835 -0.874363 -1.830638 0.434140 -0.815785 -0.382123 182 23 78
-0.561946 -1.090528 -1.978168 -0.963853 -0.265701 -0.019772 4 93 124
0.446383 -0.034668 0.910356 -0.913198 -0.055708 -0.403690 11 120 76
-0.763258 -1.347239 -2.053413 -0.817361 0.533094 0.218474 23 195 155
-0.335280 -0.868243 -0.556909 0.241011 -0.963495 -0.116583 158 4 112
0.188401 -0.231752 0.852275 0.079016 0.990404 -0.113388 137 253 113
0.048784 -0.168085 0.265058 0.727969 0.579370 -0.366594 220 201 80
0.137148 0.097765 0.953927 -0.017008 -0.467010 -0.884088 125 67 14
-0.524378 -0.980067 -1.269815 -0.772065 -0.298548 -0.561056 29 89 55
0.359428 0.202928 0.591785 -0.830178 -0.557474 -0.005187 21 56 126
-0.695022 -1.421093 -1.654040 -0.855502 0.421621 -0.300585 18 181 89
0.211626 -0.205244 0.730711 0.725606 0.499445 0.473340 220 191 187
-0.947385 -1.146243 -1.971689 0.796706 -0.591995 0.121659 229 52 143
0.359289 0.201594 0.808081 -0.832255 -0.554383 -0.003475 21 56 127
0.300824 -0.023060 0.981262 -0.038494 -0.189741 -0.981079 122 103 2
0.126053 -0.133855 0.733841 0.688385 0.187200 0.700772 215 151 216
-0.853164 -1.198749 -2.037472 -0.383164 -0.116339 0.916325 78 112 244
-0.136386 -0.153578 0.900599 0.169583 0.676664 -0.716497 149 213 36
-0.976758 -1.133566 -1.991397 0.611829 -0.756492 0.231053 205 31 156
-0.795742 -0.848129 -1.237546 -0.200570 -0.447154 -0.871679 101 70 16
-0.600632 -1.146415 -1.942620 -0.987788 -0.114854 -0.105274 1 112 114
0.279412 -0.102592 0.179147 -0.839591 0.255023 0.479635 20 160 188
-0.983601 -1.176848 -1.555543 0.460873 -0.243271 -0.853472 186 96 18
0.137633 -0.166644 0.002186 -0.759474 0.527076 0.381301 30 194 176
-0.301225 0.072908 0.878110 0.542579 -0.165176 -0.823605 196 106 22
-1.075685 -1.047921 -1.609164 0.492262 -0.435950 -0.753409 190 71 31
-0.958115 -1.040010 -2.059273 0.451876 -0.854202 0.257189 185 18 160
0.395351 -0.137572 0.409326 -0.813479 0.476144 0.333975 23 188 170
-0.970799 -0.972181 -1.513297 0.504775 -0.545580 -0.668988 191 57 42
-0.087897 -0.197327 0.884509 0.344193 0.607218 -0.716113 171 204 36
-0.540935 -1.104890 -1.363003 -0.846447 -0.179056 -0.501465 19 104 63
-0.083716 0.099406 0.061654 0.856384 -0.384273 -0.344878 236 78 83
-0.575821 -0.985609 -1.236466 -0.771134 -0.287108 -0.568262 29 90 55
0.240512 -0.225126 0.254099 -0.664653 0.617683 0.420363 42 206 181
-0.273073 0.114696 0.505781 -0.435755 -0.539643 0.720349 71 58 219
-0.093410 -0.081816 0.961378 0.021088 0.304590 -0.952250 130 166 6
0.421762 0.101875 0.757299 -0.931445 -0.363881 0.000701 8 81 127
-0.550152 -1.130889 -1.411189 -0.832062 -0.112617 -0.543129 21 113 58
-0.006638 0.110579 0.172979 0.834556 -0.211540 -0.508692 233 100 62
-0.944965 -0.949896 -1.575501 0.400289 -0.554386 -0.729675 178 56 34
-0.561969 -1.087057 -1.369291 -0.824827 -0.159547 -0.542407 22 107 58
-0.532728 -0.780098 -1.610404 -0.821276 -0.510622 -0.254501 22 62 95
0.138348 -0.184668 0.910461 0.030392 0.545812 -0.837356 131 197 20
-0.549451 -0.743763 -1.769306 -0.782264 -0.567924 -0.255981 27 55 94
-0.705559 -1.099696 -1.247264 -0.389693 -0.165568 -0.905940 77 106 11
0.212980 0.161557 0.110198 -0.841751 -0.277703 0.462966 20 92 186
-0.713019 -0.589226 -1.706411 -0.344076 -0.881656 -0.322948 83 15 86
-0.070447 0.146922 0.663702 -0.395888 -0.233457 0.888128 77 97 240
-0.535905 -0.748837 -1.871796 -0.837160 -0.533852 -0.119016 20 59 112
-0.546834 -1.077121 -2.029215 -0.974231 -0.224637 -0.020333 3 98 124
0.109845 0.206500 -0.005834 -0.687366 -0.656845 0.309971 39 43 167
-0.513720 -1.040848 -1.626686 -0.921582 -0.274845 -0.274129 9 92 92
-0.416663 0.180637 0.669509 0.634431 -0.615164 -0.468050 208 49 67
0.080081 -0.148698 0.347253 0.809511 0.396065 -0.433388 230 177 72
-0.750155 -1.093587 -2.165260 -0.582158 -0.497092 0.643422 53 64 209
-0.828493 -0.906502 -1.165205 -0.059003 -0.436920 -0.897563 119 71 13
-0.396396 -0.232638 0.618577 0.703546 0.605259 -0.372405 217 204 80
-0.529677 -1.024505 -1.383120 -0.844110 -0.253679 -0.472361 19 95 67
-0.669312 -1.350755 -1.809514 -0.925770 0.279012 -0.255152 9 163 94
0.106077 -0.020524 0.985401 0.021088 0.304590 -0.952250 130 166 6
-0.189045 0.054426 0.943830 0.346589 -0.303338 -0.887616 171 88 14
-0.349663 -0.049552 0.425190 -0.594393 0.001492 0.804174 51 127 230
-0.759309 -1.243271 -2.118887 -0.652264 -0.098733 0.751534 44 114 223
-0.756258 -0.732905 -2.026602 -0.344282 -0.935245 0.082377 83 8 138
-0.500769 -1.070591 -1.579153 -0.903031 -0.250849 -0.348725 12 95 83
-0.833548 -1.240425 -1.194498 0.034183 0.001953 -0.999414 131 127 0
0.168804 0.223237 0.140451 -0.628312 -0.671701 0.392482 47 41 177
-0.609226 -0.659005 -1.458074 -0.703955 -0.599076 -0.381517 37 51 78
0.319460 0.223766 0.870453 -0.159944 -0.883730 -0.439817 107 14 71
-0.556570 -1.234079 -1.645764 -0.942328 -0.073949 -0.326420 7 118 85
-0.616195 -1.364797 -1.960266 -0.955100 0.223537 -0.194462 5 156 102
0.236708 0.184032 0.679862 0.823072 -0.567935 -0.001426 232 55 127
-0.931819 -0.898059 -1.451790 0.407408 -0.624667 -0.666191 179 47 42
-0.491003 0.016041 0.641414 0.951603 -0.217800 -0.216830 248 99 99
-0.910349 -1.282609 -1.972964 0.986054 -0.009327 0.166163 253 126 148
-0.524198 -0.995148 -1.872502 -0.947311 -0.317019 -0.045827 6 87 121
-0.715821 -1.381472 -1.815584 -0.856320 0.488109 -0.168718 18 189 105
-0.902565 -0.991046 -2.014986 0.449374 -0.833768 0.320771 184 21 168
-0.170574 -0.090402 -0.029423 0.753144 0.224355 -0.618416 223 156 48
-0.021984 0.150842 0.920951 0.090080 -0.681174 -0.726559 138 40 34
-0.979667 -0.948693 -1.954908 0.519709 -0.854218 0.014628 193 18 129
0.418836 0.093970 0.437394 -0.947504 -0.215643 0.236081 6 100 157
-0.118586 -0.223554 -0.098366 0.505375 0.773480 -0.382524 191 226 78
-0.711690 -1.328600 -1.304965 -0.653616 0.374452 -0.657702 44 175 43
-0.300440 0.105649 0.482448 -0.435755 -0.539643 0.720349 71 58 219
-1.047820 -0.950584 -1.816585 0.492749 -0.705648 -0.509175 190 37 62
-0.272767 -0.178188 0.546219 -0.489010 0.557094 0.671205 65 198 213
-0.671205 -1.383118 -1.682505 -0.666474 0.467966 -0.580362 42 187 53
-1.017101 -0.701615 -1.652832 0.103084 -0.861589 -0.497030 140 17 64
-0.951624 -0.966802 -1.277505 0.277263 -0.490063 -0.826416 162 65 22
-0.529691 -1.222426 -1.358261 -0.904861 0.016675 -0.425381 12 129 73
-0.900792 -1.269373 -1.840000 0.655287 0.094604 -0.749433 211 139 31
-0.715439 -1.381470 -1.969573 -0.893848 0.445412 -0.051415 13 184 120
0.123840 -0.210774 0.332699 0.479658 0.731710 -0.484281 188 220 65
0.200836 -0.165094 0.551357 0.594056 0.685515 -0.420912 203 214 73
-0.530218 -0.857834 -1.643679 -0.858589 -0.460072 -0.226185 18 68 98
-0.063924 -0.038474 0.647288 -0.627876 0.139250 0.765756 47 145 225
-0.002277 -0.147944 0.708282 -0.459977 0.293817 0.837910 68 164 234
-1.000292 -0.973143 -1.718994 0.598278 -0.646612 -0.473241 203 45 67
-0.863508 -0.626211 -1.602827 0.024728 -0.883060 -0.468608 130 14 67
-1.020855 -0.878614 -1.892276 0.470396 -0.881967 -0.029363 187 15 123
-0.895288 -0.763981 -1.891822 0.170402 -0.985163 0.020432 149 1 130
-1.029483 -0.989968 -1.603828 0.539262 -0.658129 -0.525417 196 43 60
-1.055655 -0.947025 -1.724112 0.501369 -0.636275 -0.586330 191 46 52
0.058588 -0.226672 0.806182 0.079016 0.990404 -0.113388 137 253 113
-0.908335 -1.259587 -1.931618 0.942553 -0.307986 -0.129381 247 88 111
-0.662725 -0.731012 -1.343451 -0.495387 -0.615966 -0.612517 64 48 49
-0.414837 0.021805 0.769446 0.821057 0.155954 -0.549130 232 147 57
-0.080942 -0.066305 0.966615 0.021088 0.304590 -0.952250 130 166 6
-0.550752 -1.215212 -1.596716 -0.918848 -0.026444 -0.393724 10 124 77
0.135328 0.236725 0.136271 -0.233281 -0.956619 0.174529 97 5 149
0.121209 0.163431 0.409123 0.696862 -0.655761 -0.290450 216 43 90
-0.796959 -0.661163 -1.820607 -0.003702 -0.962571 -0.271004 127 4 92
-0.294485 0.239922 0.644670 -0.096882 -0.990237 -0.100220 115 1 114
-1.006739 -1.035992 -1.672684 0.597359 -0.533553 -0.598735 203 59 51
-0.634429 -0.813316 -1.658271 -0.796331 -0.543806 -0.264824 25 58 93
-0.029091 -0.168413 0.108874 0.806212 0.184236 -0.562209 230 150 55
-0.866646 -1.253456 -2.044194 0.386451 -0.477869 0.788858 176 66 228
-0.831573 -0.912700 -1.132199 -0.083490 -0.407469 -0.909395 116 75 11
0.357556 0.209466 0.456085 -0.839222 -0.543294 -0.023182 20 58 124
-0.452758 -0.149929 0.507256 0.732526 0.680725 0.004447 220 214 128
0.389176 0.156977 0.769229 -0.830178 -0.557474 -0.005187 21 56 126
-0.656414 -1.310199 -1.512432 -0.846360 0.477859 -0.235215 19 188 97
-0.597149 -0.809106 -2.009453 -0.831747 -0.554987 0.013696 21 56 129
-0.539804 -1.151588 -1.872341 -0.981950 -0.161428 -0.098566 2 106 114
-0.464680 -0.785866 -1.706684 -0.823259 -0.516896 -0.234656 22 61 97
-0.917317 -0.665862 -1.630825 0.153519 -0.857021 -0.491880 147 18 64
-0.655174 -0.684484 -1.300154 -0.414544 -0.665821 -0.620352 74 42 48
0.374498 0.180539 0.586133 -0.830178 -0.557474 -0.005187 21 56 126
0.146141 0.243750 0.281179 0.523397 -0.821887 -0.224849 194 22 98
-0.078930 -0.220044 0.762025 -0.121322 0.991387 -0.049330 112 253 121
-0.181937 -0.051467 0.944685 0.288402 0.245325 -0.925549 164 158 9
-0.345486 -0.245673 0.628911 0.122092 0.992164 -0.026543 143 254 124
-0.807638 -0.584859 -1.727075 -0.081916 -0.939345 -0.333047 117 7 85
-0.785419 -0.674489 -1.962027 -0.260525 -0.953761 0.149889 94 5 146
-0.728413 -1.008290 -1.164014 -0.142702 -0.279167 -0.949580 109 91 6
-0.744904 -0.979594 -2.186918 -0.535358 -0.640231 0.550905 59 45 197
0.065135 0.211223 0.211512 0.523397 -0.821887 -0.224849 194 22 98
0.036729 -0.198547 -0.140621 -0.781094 0.353337 0.514826 27 172 193
-0.592898 -0.691513 -1.729339 -0.728693 -0.642862 -0.236082 34 45 97
-0.774041 -0.948685 -1.178450 -0.227311 -0.331046 -0.915826 98 85 10
-0.568465 -0.690478 -1.603123 -0.676118 -0.681809 -0.279286 41 40 91
-1.035043 -1.000553 -1.751522 0.563810 -0.594862 -0.572937 199 51 54
0.431861 -0.090002 0.909757 -0.746275 0.378947 -0.547240 32 175 57
-0.969586 -1.064516 -1.560946 0.429373 -0.384350 -0.817260 182 78 23
0.447449 -0.066288 0.701471 -0.981141 0.184558 0.057455 2 151 134
0.088471 -0.052492 0.413370 0.904260 0.247269 -0.348098 242 159 83
-0.244130 0.125203 0.893981 0.452018 -0.282503 -0.846092 185 91 19
-0.590061 -0.770075 -1.609763 -0.773204 -0.584176 -0.246768 28 53 96
-0.893078 -0.907148 -1.273287 -0.006125 -0.358613 -0.933466 126 81 8
-0.077763 -0.240176 -0.099796 0.190078 0.936660 -0.294174 151 246 89
-0.894934 -0.964988 -1.328656 0.494983 -0.604345 -0.624307 190 50 47
0.363114 0.199688 0.484038 -0.839222 -0.543294 -0.023182 20 58 124
-0.716609 -0.535058 -1.527039 -0.273026 -0.863327 -0.424410 92 17 73
0.057700 -0.220829 0.026528 -0.235440 0.968611 0.079757 97 250 137
-0.908097 -1.117158 -1.327823 0.453132 -0.325768 -0.829787 185 85 21
-0.426059 0.048566 0.387037 -0.434854 -0.042147 0.899514 72 122 242
0.435535 0.066734 0.816623 -0.931445 -0.363881 0.000701 8 81 127
-0.931504 -0.869093 -2.022197 0.389301 -0.900821 0.192265 177 12 152
-0.546747 -0.868703 -1.385635 -0.726713 -0.312738 -0.611623 34 87 49
-0.648574 -0.952333 -1.354731 -0.764687 -0.279983 -0.580399 30 91 53
-0.750055 -0.574338 -1.897310 -0.473701 -0.871798 -0.124800 67 16 111
-0.641908 -1.047813 -2.053164 -0.843974 -0.432357 0.317453 19 72 167
-0.475585 0.131175 0.557237 0.898593 -0.433108 -0.070339 242 72 118
-0.959806 -0.909356 -1.975542 0.514076 -0.857121 -0.032693 193 18 123
-0.218500 0.205163 0.628273 -0.362237 -0.715462 0.597409 81 36 203
-0.488642 -0.956811 -1.690269 -0.885255 -0.323780 -0.333902 14 86 84
-0.470036 -1.086176 -1.591767 -0.925926 -0.204652 -0.317455 9 101 87
-0.634064 -1.160123 -1.290639 -0.724878 -0.119122 -0.678500 35 112 40
-0.446873 -0.991188 -1.566848 -0.884070 -0.357292 -0.301268 14 81 89
0.420507 0.094282 0.471911 -0.976629 -0.209628 0.047444 2 100 133
-1.012744 -0.896083 -1.716878 0.492437 -0.689986 -0.530495 190 39 59
-0.155480 0.003337 0.568620 -0.594393 0.001492 0.804174 51 127 230
0.192795 0.155879 0.553528 0.630828 -0.624138 -0.460986 207 47 68
0.445776 0.024040 0.681705 -0.976629 -0.209628 0.047444 2 100 133
0.065850 -0.053809 0.379316 0.754706 0.269138 -0.598317 223 161 51
-0.521684 -0.910641 -1.411012 -0.789456 -0.296360 -0.537522 26 89 58
-0.902168 -0.849847 -1.490522 0.266035 -0.632517 -0.727426 161 46 34
-0.653176 -1.316247 -1.855853 -0.965241 0.071472 -0.251400 4 136 95
0.441629 -0.090147 0.678722 -0.981141 0.184558 0.057455 2 151 134
0.097533 -0.171842 0.355519 0.727476 0.579011 -0.368137 220 201 80
-0.547370 -1.175728 -1.666650 -0.967987 -0.123070 -0.218758 4 111 99
0.369241 0.188007 0.624900 -0.830178 -0.557474 -0.005187 21 56 126
0.270750 0.013469 0.975378 -0.038494 -0.189741 -0.981079 122 103 2
-0.582798 -1.363403 -1.775747 -0.920593 0.160864 -0.355854 10 148 82
-0.461039 0.125160 0.655180 0.856958 -0.193321 -0.477756 236 102 66
0.246468 -0.241056 0.475424 0.442468 0.872106 -0.208933 183 238 100
-0.908951 -1.287274 -1.549283 0.372952 -0.008809 -0.927809 175 126 9
-0.971550 -0.828639 -1.676936 0.409127 -0.743518 -0.528958 179 32 60
0.453902 0.019809 0.864020 -0.931445 -0.363881 0.000701 8 81 127
-0.851264 -0.715970 -1.282993 0.346422 -0.806397 -0.479287 171 24 66
0.403323 0.135221 0.850696 -0.832255 -0.554383 -0.003475 21 56 127
-0.280187 0.128933 0.512143 -0.435755 -0.539643 0.720349 71 58 219
-0.119025 0.217958 -0.092089 0.511160 -0.780802 -0.359255 192 27 81
-0.650830 -0.702421 -1.299910 -0.422794 -0.680395 -0.598589 73 40 51
-0.595385 -1.233126 -1.925204 -0.998121 -0.023639 -0.056525 0 124 120
0.067583 0.221015 0.788462 0.002711 -0.998441 0.055760 127 0 134
-0.310295 -0.839419 -0.078156 -0.285015 -0.934168 -0.214701 91 8 100
-0.068161 -0.222558 0.848333 -0.014630 0.993703 -0.111090 125 254 113
-0.568330 -1.253988 -1.374354 -0.953061 0.021374 -0.302024 5 130 88
-0.995721 -1.154252 -1.699841 0.639870 -0.292681 -0.710566 209 90 36
-0.272907 -0.144858 -0.178074 0.676349 0.412132 -0.610491 213 180 49
0.144410 0.019567 -0.078093 -0.863181 0.029058 0.504059 17 131 191
-0.890671 -1.117927 -1.250522 0.073560 -0.213766 -0.974111 136 100 3
-0.668924 -1.381291 -1.382592 -0.634353 0.381680 -0.672248 46 176 41
-0.850603 -0.830541 -1.917188 0.377261 -0.924460 -0.055209 175 9 120
-0.162164 0.120214 -0.049485 0.706645 -0.379853 -0.596962 217 79 51
0.103951 0.188060 0.901671 0.090080 -0.681174 -0.726559 138 40 34
-0.644716 -1.228180 -1.288421 -0.705795 0.056424 -0.706165 37 134 37
-0.750526 -0.880954 -2.126915 -0.560549 -0.696899 0.447343 56 38 184
-0.942024 -1.277890 -1.603262 0.376508 -0.066944 -0.923991 175 118 9
-0.864387 -1.214080 -1.282698 0.130409 -0.109695 -0.985373 144 113 1
0.050346 -0.215443 -0.060589 -0.235440 0.968611 0.079757 97 250 137
0.123827 -0.055442 0.974625 0.021088 0.304590 -0.952250 130 166 6
-0.915198 -0.860129 -1.958979 0.418428 -0.907925 -0.024289 180 11 124
0.352607 -0.084016 0.280985 -0.803036 0.243918 0.543725 25 158 196
-0.232871 -1.065929 -0.151875 0.578754 0.200327 -0.790514 201 153 26
-0.158761 0.237335 0.750578 -0.116876 -0.975163 -0.188139 112 3 103
0.260382 -0.044100 0.116099 -0.836872 -0.038441 0.546048 20 122 197
0.184820 0.220388 0.419264 0.599455 -0.733019 -0.321460 203 34 86
-0.539082 -0.970004 -1.525367 -0.899234 -0.332533 -0.284253 12 85 91
0.000503 -0.198430 0.750728 -0.277618 0.726632 0.628438 92 220 207
-0.820355 -1.399233 -1.505217 -0.490435 0.390629 -0.779027 64 177 28
0.136865 -0.086781 -0.084884 -0.863181 0.029058 0.504059 17 131 191
0.055215 0.190745 0.267126 0.510718 -0.834215 -0.207971 192 21 100
-0.567215 -0.967789 -1.644037 -0.909748 -0.336026 -0.243814 11 84 96
-0.533224 -1.159986 -1.927971 -0.985459 -0.152861 -0.074193 1 108 118
-0.628083 -0.824772 -1.251784 -0.736862 -0.432262 -0.519793 33 72 61
-0.264063 -0.101323 0.501285 -0.640566 0.246480 0.727271 45 158 220
-0.271532 0.117123 0.508531 -0.435755 -0.539643 0.720349 71 58 219
-0.909446 -0.682323 -1.897969 0.127039 -0.979482 -0.156448 143 2 107
0.420966 0.092577 0.473817 -0.976629 -0.209628 0.047444 2 100 133
-0.576326 -0.787698 -1.925497 -0.826049 -0.556909 -0.086574 22 56 116
-0.898528 -1.239807 -1.434698 0.422158 -0.106654 -0.900226 181 113 12
-0.323663 -0.201247 0.530882 -0.322314 0.643290 0.694472 86 209 216
-0.542849 -1.011123 -1.236076 -0.813476 -0.278422 -0.510626 23 92 62
-0.091526 -0.173678 0.902818 0.344193 0.607218 -0.716113 171 204 36
-0.216058 -1.219557 0.239478 -0.800346 0.369994 -0.471753 25 174 67
0.189548 0.226347 0.876388 0.090080 -0.681174 -0.726559 138 40 34
-0.467574 -1.020758 -1.597108 -0.892617 -0.283308 -0.350673 13 91 82
-0.423123 -0.988316 -0.571761 0.415093 -0.879479 -0.232839 180 15 97
-0.852579 -0.706869 -1.929534 0.127843 -0.991369 -0.029029 143 1 123
-0.090405 0.237673 -0.100396 0.295901 -0.907069 -0.299445 165 11 89
-1.015381 -0.907670 -1.667597 0.432537 -0.630976 -0.644035 182 47 45
-0.143593 0.220480 -0.132529 0.511160 -0.780802 -0.359255 192 27 81
-0.616896 -0.993706 -1.595743 -0.898969 -0.267030 -0.347202 12 93 83
0.026799 -0.194865 -0.158214 -0.781094 0.353337 0.514826 27 172 193
0.385961 0.161753 0.776083 -0.832255 -0.554383 -0.003475 21 56 127
-0.141891 -0.232242 -0.146722 0.505375 0.773480 -0.382524 191 226 78
-0.796976 -0.609143 -1.441352 -0.337282 -0.730010 -0.594413 84 34 51
0.400472 -0.162645 0.867574 -0.739123 0.673568 -0.002026 33 213 127
-0.135685 0.030223 0.592610 -0.576110 -0.215676 0.788404 54 100 228
-0.503548 0.089803 0.454752 0.898593 -0.433108 -0.070339 242 72 118
-0.290320 -0.090899 0.877688 0.508532 0.209159 -0.835253 192 154 21
0.047712 0.233023 0.135557 0.535370 -0.769081 -0.349132 195 29 82
0.068755 -0.188369 0.760874 -0.112601 0.766618 0.632154 113 225 208
-0.948222 -0.975409 -1.988251 0.581602 -0.791558 0.187549 201 26 151
-0.088435 0.114892 0.946416 0.090080 -0.681174 -0.726559 138 40 34
-0.524941 -1.028025 -1.527792 -0.915437 -0.206688 -0.345333 10 101 83
0.360876 -0.082107 0.292341 -0.803036 0.243918 0.543725 25 158 196
-0.802526 -0.814970 -1.354550 -0.075769 -0.462336 -0.883461 117 68 14
-0.881026 -0.874659 -1.207133 0.252268 -0.644527 -0.721766 159 45 35
0.303314 0.219376 0.885146 -0.159944 -0.883730 -0.439817 107 14 71
-0.558109 -0.694229 -1.375225 -0.660145 -0.588162 -0.467198 43 52 67
-0.607233 -0.976636 -1.959698 -0.935306 -0.352845 0.026532 8 82 130
-0.664544 -0.719214 -2.022441 -0.400733 -0.871229 0.283503 76 16 163
-0.772526 -0.648700 -1.334219 -0.074037 -0.811924 -0.579049 118 23 53
-0.500089 0.093673 0.475112 0.898593 -0.433108 -0.070339 242 72 118
0.303797 0.038811 0.192710 -0.845259 -0.073371 0.529296 19 118 194
0.094565 -0.243458 0.168523 0.556086 0.810990 -0.181835 198 230 104
0.081046 -0.226453 0.850273 0.048114 0.998466 -0.027390 133 254 124
0.283995 -0.075003 0.970162 0.011576 0.362988 -0.931722 128 173 8
-0.741615 -0.742528 -2.136107 -0.436639 -0.861947 0.257670 71 17 160
0.282018 -0.237885 0.844022 0.000743 0.996189 -0.087223 127 254 116
-0.729394 -1.166768 -2.138192 -0.681067 -0.320062 0.658565 40 86 211
-0.722690 -0.614834 -1.556861 -0.356211 -0.833233 -0.422890 82 21 73
-0.020248 0.069174 0.968055 -0.011556 -0.349985 -0.936684 126 82 8
-0.641484 -1.205454 -1.368205 -0.718046 0.028896 -0.695396 35 131 38
-0.921773 -0.957393 -1.361395 0.456662 -0.570837 -0.682353 185 54 40
-0.621719 -1.319629 -1.746828 -0.933019 0.114792 -0.341025 8 142 84
-0.516913 -0.986372 -1.710790 -0.938383 -0.310255 -0.152245 7 87 108
0.034093 -0.153157 0.236231 0.931977 0.274429 -0.236872 246 162 97
-0.869329 -0.672060 -1.624093 0.064059 -0.872152 -0.485023 135 16 65
-0.747813 -1.100284 -1.076948 -0.205765 -0.150499 -0.966959 101 108 4
-0.552616 -1.144793 -1.316892 -0.749310 -0.115816 -0.652013 31 112 44
0.195391 0.132075 0.934683 -0.017008 -0.467010 -0.884088 125 67 14
-0.600651 -0.920582 -1.910980 -0.872881 -0.475414 -0.109822 16 66 113
-0.804110 -0.696380 -1.781923 0.154589 -0.963187 -0.219939 147 4 99
-0.612545 -0.679926 -1.562025 -0.698339 -0.621626 -0.354829 38 48 82
-0.882027 -1.460162 -1.782792 -0.055624 0.696355 -0.715539 120 216 36
-0.652831 -0.682238 -1.361584 -0.396749 -0.666772 -0.630876 76 42 47
0.364520 0.017873 0.279469 -0.861297 0.080634 0.501663 17 137 191
-0.071067 -0.221311 0.859870 -0.014630 0.993703 -0.111090 125 254 113
-0.229742 0.177499 -0.161688 0.511160 -0.780802 -0.359255 192 27 81
-0.826955 -1.314279 -2.047242 -0.753085 0.359337 0.551127 31 173 197
-1.066807 -0.958021 -1.653338 0.519255 -0.622906 -0.585118 193 48 52
0.241039 0.190400 0.642997 0.823072 -0.567935 -0.001426 232 55 127
-0.233251 -0.150474 0.874475 0.270044 0.692254 -0.669224 161 215 42
-1.069830 -1.005043 -1.722884 0.573260 -0.611748 -0.545102 200 49 57
-0.562370 -0.809617 -2.003628 -0.860110 -0.510076 0.005852 17 62 128
-0.497752 -1.114978 -1.541550 -0.919313 -0.208629 -0.333673 10 100 84
0.375392 -0.188687 0.635477 -0.770437 0.637304 0.016439 29 208 129
-0.207630 -0.205221 -0.178937 0.505375 0.773480 -0.382524 191 226 78
-0.082158 -0.223566 0.841158 -0.014630 0.993703 -0.111090 125 254 113
0.396720 -0.165182 0.723814 -0.770437 0.637304 0.016439 29 208 129
-0.250768 0.041322 0.499394 -0.625024 -0.238678 0.743221 47 97 222
-0.589564 -0.992114 -1.320413 -0.754062 -0.257547 -0.604202 31 94 50
-0.200831 0.242934 0.747697 -0.116876 -0.975163 -0.188139 112 3 103
-0.418135 0.193114 0.651088 0.693001 -0.680916 -0.236861 215 40 97
-0.852616 -1.424919 -1.871693 -0.029872 0.707601 -0.705980 123 217 37
0.443807 -0.095737 0.870435 -0.888755 0.458234 0.011681 14 185 128
-0.432083 -0.038822 0.724861 0.823233 0.282405 -0.492479 232 163 64
-0.969219 -0.835754 -1.876197 0.435167 -0.898700 -0.054471 182 12 120
-0.468973 0.136600 0.608307 0.898593 -0.433108 -0.070339 242 72 118
-0.565436 -0.965077 -1.706005 -0.934425 -0.347271 -0.079073 8 83 117
0.433009 0.049257 0.530317 -0.976629 -0.209628 0.047444 2 100 133
0.207743 0.174414 0.117103 -0.623176 -0.693129 0.362250 48 39 173
-0.159544 0.100036 -0.033544 0.706645 -0.379853 -0.596962 217 79 51
-0.844071 -1.122825 -2.025567 -0.481667 -0.485866 0.729336 66 65 220
-0.153419 -0.241042 -0.182523 0.391962 0.856493 -0.335834 177 236 84
0.048193 -0.214559 -0.077679 -0.235440 0.968611 0.079757 97 250 137
-0.568785 -1.185508 -1.520596 -0.924932 -0.102193 -0.366139 9 114 80
0.194337 -0.139860 0.591767 0.805454 0.570319 -0.161184 230 200 106
0.007146 -0.088776 0.961356 0.011576 0.362988 -0.931722 128 173 8
0.125234 -0.246896 0.197912 -0.205991 0.928389 0.309292 101 245 166
-0.555730 -0.716053 -1.766588 -0.777081 -0.617306 -0.122794 28 48 111
-0.659723 -1.101224 -2.107663 -0.888609 -0.368099 0.273637 14 80 162
-0.460293 -0.048451 0.376099 0.018599 -0.019282 0.999641 129 125 254
0.065876 -0.179329 0.281184 0.727476 0.579011 -0.368137 220 201 80
-0.618657 -0.735975 -1.438539 -0.680244 -0.604715 -0.414231 40 50 74
-0.631544 -1.294046 -1.351060 -0.872838 0.046265 -0.485813 16 133 65
-0.814433 -0.689682 -1.925252 -0.021756 -0.998947 0.040384 124 0 132
0.091588 0.105792 -0.129959 -0.788604 -0.281614 0.546624 26 91 197
-0.866191 -0.701766 -1.382499 0.159439 -0.871882 -0.463035 147 16 68
-0.924218 -1.276759 -1.952157 0.844162 -0.449662 0.291881 235 70 164
-0.537077 -0.858690 -1.304772 -0.750856 -0.412152 -0.516088 31 74 61
-0.105121 -0.114146 0.946763 0.344193 0.607218 -0.716113 171 204 36
-0.491801 -0.926947 -1.396400 -0.853240 -0.347464 -0.388909 18 83 77
0.333333 -0.033963 0.234256 -0.861297 0.080634 0.501663 17 137 191
0.234791 0.022966 0.081601 -0.836872 -0.038441 0.546048 20 122 197
-0.906991 -0.695691 -1.481016 0.260943 -0.807844 -0.528486 160 24 60
0.343898 0.226426 0.458004 -0.560458 -0.827120 0.041946 56 22 132
-0.555081 -1.178772 -1.894253 -0.997016 -0.073539 -0.023471 0 118 124
0.135101 0.249134 0.235801 0.523397 -0.821887 -0.224849 194 22 98
-0.319222 0.162897 0.513973 -0.435755 -0.539643 0.720349 71 58 219
-0.837375 -0.899102 -1.193820 -0.035979 -0.387256 -0.921270 122 78 10
-0.435526 -0.004526 0.731033 0.821057 0.155954 -0.549130 232 147 57
-0.592295 -1.018845 -1.266417 -0.757682 -0.273650 -0.592481 30 92 51
