ply
format ascii 1.0
element vertex 512
property float x
property float y
property float z
property float nx
property float ny
property float nz
property uchar red
property uchar green
property uchar blue
end_header
0.160019 -0.038009 0.023753 0.307481 0.095291 -0.946771 166 139 6
-0.780235 -1.318077 -1.114494 -0.077916 0.846967 -0.525906 117 235 60
-0.094551 -0.193949 0.378278 0.758021 0.474530 -0.447465 224 188 70
-0.436074 -0.756368 -1.385633 -0.760405 -0.585574 -0.280868 30 52 91
0.070874 0.192396 0.345933 -0.710313 -0.499069 0.496374 36 63 190
-0.059165 -0.202227 0.172341 -0.600182 0.777936 0.186002 50 226 151
0.511985 -0.028682 -0.029272 -0.872251 0.172421 -0.457657 16 149 69
0.211688 -0.224980 0.562157 -0.248313 0.931248 0.266679 95 246 161
-0.876555 -1.047432 -0.889093 0.323577 -0.358954 -0.875471 168 81 15
0.182212 -0.150508 0.875831 0.663244 0.267054 -0.699135 212 161 38
-0.920714 -1.269707 -1.462424 0.666815 0.025349 -0.744792 212 130 32
0.254647 -0.005643 0.454314 -0.723245 -0.144232 0.675362 35 109 213
-0.687157 -1.253980 -1.816841 -0.622566 -0.098515 0.776342 48 114 226
-0.872807 -1.126749 -1.621469 0.638446 -0.371472 -0.674089 208 80 41
-0.751281 -0.613987 -1.608373 -0.074730 -0.953279 -0.292702 117 5 90
0.189865 0.024299 0.924995 0.605487 -0.199284 -0.770501 204 102 29
-0.078436 -0.089639 0.490964 0.768124 0.235021 -0.595610 225 157 51
-0.815543 -1.283960 -1.046770 0.265543 0.024542 -0.963787 161 130 4
-0.743523 -0.589323 -1.534342 -0.013047 -0.893961 -0.447954 125 13 70
0.100419 0.233740 0.576564 0.082581 -0.975624 0.203319 138 3 153
-0.703687 -0.543424 -1.416627 -0.232319 -0.925322 -0.299677 97 9 89
0.085068 0.086092 -0.020322 0.359149 -0.413451 -0.836702 173 74 20
-0.463634 -1.002989 -1.246957 -0.825235 -0.280308 -0.490320 22 91 64
-0.813667 -0.650257 -1.436051 0.154491 -0.934713 -0.320069 147 8 86
0.367394 0.163887 0.914068 -0.100218 -0.577660 -0.810102 114 53 24
-0.071330 0.146639 0.034460 -0.816855 -0.500477 0.286828 23 63 164
-0.546326 -1.201459 -1.037053 -0.378138 -0.063273 -0.923585 79 119 9
0.052036 0.203499 0.560687 0.595915 -0.707169 -0.380523 203 37 78
-1.013266 -0.844798 -1.467860 0.453832 -0.776612 -0.436933 185 28 71
-0.203554 0.206248 -0.133586 -0.628327 -0.658871 0.413636 47 43 180
0.110954 0.163322 0.374056 -0.710313 -0.499069 0.496374 36 63 190
-0.404843 -1.107425 -1.313698 -0.822540 -0.140186 -0.551159 22 109 57
-0.701469 -0.526683 -1.370393 -0.336955 -0.895963 -0.289329 84 13 90
-0.873283 -0.864044 -1.709773 0.428224 -0.875144 -0.225271 182 15 98
-0.623038 -0.567310 -1.563129 -0.341833 -0.887087 -0.310204 83 14 87
-0.674299 -1.308730 -1.782543 -0.906267 0.079029 0.415252 11 137 180
-0.839559 -1.408491 -1.509680 0.166702 0.526214 -0.833852 148 194 21
-0.592447 -0.815112 -1.784090 -0.539633 -0.768728 0.343298 58 29 171
0.168116 -0.246884 0.639213 0.218216 0.967795 -0.125521 155 250 111
-0.038244 0.228519 0.368435 0.308867 -0.933984 -0.179650 166 8 104
-0.873986 -1.364966 -1.564061 0.093755 0.623410 -0.776254 139 206 28
-0.345671 -1.085807 -1.542060 -0.939596 -0.247710 -0.236216 7 95 97
0.090755 -0.078679 0.783714 0.872821 0.265142 -0.409735 238 161 75
0.087913 -0.122828 -0.039721 0.367382 0.547052 -0.752173 174 197 31
-0.877197 -0.750435 -1.535022 0.354928 -0.861473 -0.363168 172 17 81
-0.923644 -0.904318 -1.229101 0.397738 -0.589631 -0.702951 178 52 37
-0.031800 0.103538 0.533647 0.771409 -0.227254 -0.594377 225 98 51
0.190733 -0.006756 0.385631 -0.723245 -0.144232 0.675362 35 109 213
0.363435 -0.130335 0.630045 -0.638337 0.566223 0.521457 46 199 193
-0.596525 -1.459566 -1.499260 -0.654939 0.507941 -0.559509 43 192 56
-0.320611 -0.980354 -1.022650 -0.890634 -0.194217 -0.411158 13 102 75
0.385745 0.204218 0.757713 -0.713929 -0.575478 0.398912 36 54 178
0.376686 -0.128783 0.644573 -0.638365 0.564512 0.523275 46 199 194
0.522078 -0.017262 -0.049506 -0.924957 0.094167 -0.368221 9 139 80
0.028434 -0.060032 -0.065126 0.951139 0.275196 -0.140008 248 162 109
-0.588416 -1.041614 -0.837273 -0.468829 -0.180029 -0.864748 67 104 17
0.400534 0.242159 -0.130135 -0.279893 -0.933146 -0.225608 91 8 98
0.029890 -0.069009 -0.072884 0.951139 0.275196 -0.140008 248 162 109
0.220774 -0.045303 0.942132 0.273320 0.112459 -0.955327 162 141 5
0.239865 -0.230785 0.605588 -0.385723 0.866536 0.316754 78 237 167
-0.561270 -0.558725 -1.232593 -0.514698 -0.847943 -0.126801 61 19 111
0.229186 -0.235470 0.610242 -0.223456 0.931602 0.286681 99 246 164
-0.286921 0.215591 -0.022713 0.752534 -0.632808 -0.182336 223 46 104
-0.921106 -1.160312 -1.172315 0.608432 -0.178564 -0.773256 205 104 28
-0.683089 -1.367233 -1.766841 -0.573034 0.775104 -0.266169 54 226 93
-0.242514 0.078750 0.230878 0.855791 -0.201663 -0.476396 236 101 66
-0.698706 -1.148813 -1.871092 -0.507635 -0.341951 0.790808 62 83 228
0.451341 -0.057637 0.021001 -0.664410 0.138420 -0.734438 42 145 33
-0.876028 -1.249304 -1.691950 0.808924 -0.394191 -0.436182 230 77 71
0.136955 -0.159341 0.384297 -0.638337 0.566223 0.521457 46 199 193
-0.718113 -1.370085 -1.288057 -0.376726 0.706271 -0.599382 79 217 51
-0.736872 -1.139327 -0.864569 -0.158199 -0.140775 -0.977320 107 109 2
0.345230 -0.067553 0.960566 0.046310 0.099443 -0.993965 133 140 0
-0.500741 -1.347164 -1.151723 -0.828183 0.191601 -0.526690 21 151 60
0.550636 0.024394 -0.110589 -0.924957 0.094167 -0.368221 9 139 80
0.495304 -0.063758 0.816636 -0.911148 0.391543 0.128464 11 177 143
-0.915227 -1.301385 -1.437921 0.734900 -0.080166 -0.673421 221 117 41
0.372772 0.064554 0.604328 -0.724992 -0.266897 0.634942 35 93 208
-0.453158 -0.990797 -1.822269 -0.904614 -0.399768 0.147850 12 76 146
0.395190 -0.050475 0.963860 -0.086777 -0.058859 -0.994488 116 119 0
-0.427561 -1.262939 -1.377666 -0.927500 0.021268 -0.373219 9 130 79
-0.816080 -1.349877 -1.515977 0.234841 0.433789 -0.869872 157 182 16
-0.464101 -0.861912 -1.617648 -0.853765 -0.519744 -0.030844 18 61 123
-0.328234 0.123908 0.024815 0.836273 -0.339780 -0.430345 234 84 72
0.084825 0.117211 0.728109 0.887317 -0.212720 -0.409168 240 100 75
-0.462846 -0.753599 -1.395818 -0.779348 -0.551373 -0.297665 28 57 89
-0.653719 -1.008170 -1.799438 -0.752992 -0.338096 0.564530 31 84 199
0.040620 0.106718 0.648916 0.850845 -0.261724 -0.455590 235 94 69
-0.467957 -0.737982 -1.270753 -0.714015 -0.603727 -0.354537 36 50 82
-0.132641 -0.232665 0.238080 0.099874 0.982525 -0.157068 140 252 107
0.424245 -0.142514 0.925797 -0.592688 0.414126 -0.690811 51 180 39
0.428793 0.037141 0.657065 -0.835014 -0.252441 0.488902 21 95 189
-0.963196 -1.112911 -1.531145 0.660522 -0.433180 -0.613242 211 72 49
0.259902 -0.182177 -0.015606 0.112311 0.858582 -0.500223 141 236 63
0.485729 0.089132 -0.010558 -0.705969 -0.071463 -0.704628 37 118 37
-0.443024 -0.995451 -1.328347 -0.873834 -0.314041 -0.371204 16 87 80
-0.740531 -1.156980 -1.922795 -0.555674 -0.274014 0.784948 56 92 227
-0.850605 -0.716121 -1.431378 0.301061 -0.839354 -0.452600 165 20 69
0.256864 -0.229326 0.828766 0.352599 0.811074 -0.466727 172 230 67
-0.141869 0.198861 -0.037037 -0.697765 -0.600908 0.389915 38 50 177
0.450387 0.222841 -0.133456 -0.562546 -0.801307 -0.203592 55 25 101
0.195353 0.024019 0.027864 0.225156 -0.104477 -0.968705 156 114 3
0.138001 -0.174902 0.790677 0.562514 0.673556 -0.479479 199 213 66
-0.132112 -0.971436 -0.331246 -0.494109 -0.856904 0.146874 64 18 146
0.024431 -0.917794 0.199913 -0.340564 -0.935418 -0.094913 84 8 115
0.095195 0.233976 0.546047 -0.254951 -0.966625 0.025204 94 4 130
-0.056473 0.048648 0.522611 0.771409 -0.227254 -0.594377 225 98 51
0.265153 0.236942 -0.123924 0.244469 -0.969149 0.031386 158 3 131
-0.432283 -0.824606 -1.489970 -0.829783 -0.475760 -0.291743 21 66 90
-0.454267 -0.825769 -1.260693 -0.822318 -0.492592 -0.284861 22 64 91
-0.465096 -0.890396 -0.860694 -0.566259 -0.359287 -0.741798 55 81 32
-0.028624 -0.027834 0.024972 -0.869882 -0.058160 0.489819 16 120 189
0.091729 0.139639 -0.124221 0.271837 -0.407011 0.872036 162 75 238
-0.075875 -0.166923 0.023458 -0.674967 0.672004 0.304680 41 213 166
0.378590 -0.063277 0.962548 0.046310 0.099443 -0.993965 133 140 0
0.245774 0.148861 0.521602 -0.619490 -0.565352 0.544618 48 55 196
-0.942484 -1.056998 -1.432961 0.650778 -0.537367 -0.536401 210 58 59
0.037070 0.055886 -0.035934 0.688469 -0.383179 -0.615779 215 78 48
-0.871055 -1.223104 -1.681679 0.927177 -0.128513 -0.351890 245 111 82
-0.725532 -0.845355 -1.849649 0.068070 -0.920817 0.384008 136 10 176
-0.727915 -0.981708 -1.956936 -0.553606 -0.650278 0.520249 56 44 193
-0.066238 0.085472 0.495859 0.771409 -0.227254 -0.594377 225 98 51
0.085886 -0.133734 0.730280 0.867615 0.184118 -0.461893 238 150 68
0.088655 -0.102328 -0.139263 0.258940 0.387664 0.884684 160 176 240
-0.364514 -0.018305 0.021092 0.883825 0.028427 -0.466953 240 131 67
0.014191 -0.078526 0.626704 0.806630 0.159742 -0.569062 230 147 54
-0.434838 -0.772157 -1.050393 -0.824324 -0.494469 -0.275665 22 64 92
-0.653309 -1.473027 -1.500726 -0.637358 0.580533 -0.506712 46 201 62
0.110752 0.088089 0.311277 -0.815693 -0.113328 0.567276 23 113 199
-0.213288 0.023398 0.306377 0.828458 -0.212011 -0.518371 233 100 61
-0.751583 -0.857466 -0.949081 -0.029626 -0.546165 -0.837154 123 57 20
0.024046 0.218793 0.492852 0.526777 -0.738797 -0.420339 194 33 73
-0.962265 -1.016125 -1.127455 0.355291 -0.487995 -0.797264 172 65 25
-0.868212 -0.885656 -1.690870 0.417904 -0.870330 -0.260542 180 16 94
0.345227 -0.233983 0.790115 -0.436819 0.885063 0.160790 71 240 148
0.167405 -0.224641 0.752790 0.567182 0.733511 -0.374521 199 221 79
-0.484542 -1.318080 -1.247218 -0.858328 0.150041 -0.490675 18 146 64
-0.127991 -0.039555 -0.131435 -0.918374 0.127424 0.374635 10 143 175
-0.933083 -0.951555 -1.369973 0.608090 -0.588563 -0.532748 205 52 59
-0.689967 -0.849928 -0.964889 -0.140828 -0.503236 -0.852597 109 63 18
0.094871 -0.079389 0.283538 -0.827793 0.241290 0.506496 21 158 192
-0.766465 -1.428762 -1.565934 -0.198307 0.725239 -0.659320 102 219 43
0.291373 0.209368 0.891041 -0.100218 -0.577660 -0.810102 114 53 24
0.361646 0.188144 0.691394 -0.713929 -0.575478 0.398912 36 54 178
0.164024 0.236698 0.718056 0.206148 -0.970801 -0.122675 153 3 111
-0.806288 -0.953278 -1.834591 0.094952 -0.897781 0.430085 139 13 182
-0.019759 -0.008767 0.594044 0.876418 -0.242576 -0.415991 239 96 74
0.312943 0.245277 0.770177 -0.442340 -0.894642 0.062857 71 13 135
0.042638 -0.032188 0.203755 -0.954626 -0.047657 0.293971 5 121 164
-0.574247 -1.348598 -1.113073 -0.853805 0.243088 -0.460354 18 158 68
-0.780184 -1.136545 -1.873766 -0.332829 -0.493320 0.803654 85 64 229
-0.502160 -1.202237 -1.823105 -0.945978 -0.052689 0.319921 6 120 168
0.260468 0.217350 0.865451 0.283893 -0.876132 -0.389613 163 15 77
-0.576522 -0.622328 -1.448684 -0.565482 -0.744923 -0.354005 55 32 82
0.396546 -0.013188 0.611942 -0.723761 0.256069 0.640779 35 160 209
0.135642 -0.172766 -0.132924 0.715318 0.269604 0.644697 218 161 209
-0.459664 -1.210071 -1.568231 -0.950776 -0.041387 -0.307102 6 122 88
0.091883 -0.142932 0.737879 0.867615 0.184118 -0.461893 238 150 68
-0.734656 -0.611992 -1.276735 -0.091986 -0.854515 -0.511218 115 18 62
0.405199 -0.033275 0.629742 -0.723761 0.256069 0.640779 35 160 209
0.468413 -0.010798 0.014385 -0.664410 0.138420 -0.734438 42 145 33
-0.383984 -1.082493 -1.473197 -0.910558 -0.263264 -0.318710 11 93 86
-0.440180 -1.087348 -1.130015 -0.918510 -0.146968 -0.367069 10 108 80
-0.662011 -1.439529 -1.413139 -0.676590 0.408392 -0.612734 41 179 49
-0.137324 0.181338 -0.055909 -0.697765 -0.600908 0.389915 38 50 177
-0.650947 -0.532238 -1.544010 -0.338689 -0.897968 -0.280968 84 13 91
-0.092577 0.172385 0.018871 -0.816855 -0.500477 0.286828 23 63 164
0.085971 -0.228021 0.546145 0.244806 0.969478 0.013516 158 251 129
-0.681683 -0.559816 -1.237488 -0.191409 -0.819583 -0.540043 103 23 58
-0.781189 -1.360599 -1.763442 0.129066 0.980517 -0.148080 143 252 108
-0.746420 -0.941613 -0.848014 -0.173272 -0.338925 -0.924720 105 84 9
-0.863785 -1.269046 -1.723723 0.741072 0.626955 -0.240290 221 207 96
-0.954036 -1.057944 -1.473811 0.673239 -0.490082 -0.553687 213 65 56
-0.706410 -1.273187 -1.034453 -0.115075 0.076068 -0.990440 112 137 1
0.023493 0.036100 0.152653 -0.954626 -0.047657 0.293971 5 121 164
-0.414304 -0.875122 -1.248162 -0.804588 -0.451376 -0.385873 24 69 78
-0.191968 0.243585 0.058004 0.183724 -0.979566 -0.081823 150 2 117
-0.428728 -0.985571 -1.115196 -0.892064 -0.290598 -0.346084 13 90 83
-0.921215 -0.705764 -1.189497 0.121315 -0.778849 -0.615367 142 28 49
-0.364738 -1.166248 -1.371965 -0.959097 -0.056061 -0.277470 5 120 92
0.081540 -0.093190 0.738278 0.867615 0.184118 -0.461893 238 150 68
0.098829 -0.059673 0.280613 -0.827793 0.241290 0.506496 21 158 192
-0.392118 -1.048360 -1.065258 -0.931080 -0.191097 -0.310760 8 103 87
-0.859189 -1.168673 -1.634912 0.907390 -0.234389 -0.348863 243 97 83
-0.794456 -1.184561 -1.811165 -0.625027 -0.193290 0.756294 47 102 223
0.508285 0.007032 0.842655 -0.959996 -0.137584 0.243882 5 109 158
-0.621646 -1.246331 -1.831257 -0.950195 -0.077327 0.301910 6 117 165
-0.553127 -1.328957 -1.608926 -0.975495 0.214746 0.047886 3 154 133
0.355932 0.063131 0.058890 0.206208 -0.347364 -0.914777 153 83 10
-0.582812 -1.337001 -1.696951 -0.982685 0.168687 0.076644 2 149 137
0.077987 -0.225218 0.489765 0.244806 0.969478 0.013516 158 251 129
-0.835552 -1.095695 -1.790595 0.616543 -0.730860 0.292776 206 34 164
-0.478090 -0.842891 -1.117642 -0.808397 -0.525659 -0.264910 24 60 93
0.143942 -0.201519 0.453664 -0.436705 0.761733 0.478593 71 224 188
-0.713238 -1.223899 -1.858091 -0.662390 -0.013911 0.749030 43 125 223
-0.381225 -1.221411 -1.213309 -0.907762 -0.035096 -0.418014 11 123 74
0.026028 0.026667 0.666310 0.826953 -0.254977 -0.501133 232 94 63
-0.328231 -0.023117 0.089473 0.883825 0.028427 -0.466953 240 131 67
-0.400180 -1.242352 -1.535159 -0.925324 -0.025476 -0.378321 9 124 79
-0.342751 -1.077657 -1.663826 -0.947455 -0.288757 -0.137651 6 90 109
0.483641 0.028138 0.765198 -0.946740 -0.124371 0.297009 6 111 165
-0.728171 -1.024109 -1.911924 -0.603085 -0.550317 0.577443 50 57 201
0.493244 -0.168869 -0.108718 -0.740426 0.615768 -0.269441 33 206 93
0.339547 0.060260 0.564586 -0.724992 -0.266897 0.634942 35 93 208
0.391043 -0.151848 0.928960 -0.074838 0.454964 -0.887359 117 185 14
-0.575872 -1.344608 -1.233724 -0.868463 0.153626 -0.471350 16 147 67
0.016155 -0.102569 0.619149 0.864547 0.258142 -0.431186 237 160 72
-0.137493 -0.214458 0.278798 0.714639 0.568012 -0.408232 218 199 75
-0.881642 -1.286405 -1.421523 0.699869 -0.166482 -0.694599 216 106 38
-0.721413 -1.094921 -1.859100 -0.235461 -0.708969 0.664771 97 37 212
-0.531261 -1.400861 -1.419962 -0.853701 0.255500 -0.453778 18 160 69
-0.540634 -1.305098 -1.682408 -0.989542 0.122817 0.075645 1 143 137
0.093328 0.165557 0.351081 -0.710313 -0.499069 0.496374 36 63 190
0.376090 0.123088 0.643080 -0.619490 -0.565352 0.544618 48 55 196
0.439244 -0.166941 0.832369 -0.793144 0.592661 0.140267 26 203 145
-0.420890 -1.025826 -0.910657 -0.737169 -0.231346 -0.634871 33 98 46
-0.419176 -1.005204 -1.713956 -0.909487 -0.411807 0.057002 11 74 134
-0.021956 0.046384 0.568274 0.771409 -0.227254 -0.594377 225 98 51
0.199909 0.220877 0.538665 -0.252686 -0.927201 0.276491 95 9 162
0.244558 0.142036 0.513134 -0.619490 -0.565352 0.544618 48 55 196
-0.733775 -0.806008 -1.882199 -0.093952 -0.950894 0.294914 115 6 165
-0.515144 -0.865737 -1.859700 -0.830715 -0.523806 0.188518 21 60 151
-0.560867 -1.357268 -1.267289 -0.756872 0.234401 -0.610083 30 157 49
0.189597 -0.136995 0.887998 0.663244 0.267054 -0.699135 212 161 38
-0.609022 -1.263846 -1.787939 -0.997036 0.065417 0.040490 0 135 132
-0.389185 -0.939278 -1.499676 -0.881468 -0.365872 -0.298583 15 80 89
-0.139424 -0.084390 -0.144210 -0.918374 0.127424 0.374635 10 143 175
-0.360209 -1.085476 -1.504375 -0.935930 -0.204176 -0.286963 8 101 90
-0.361988 -0.047575 0.024091 0.883825 0.028427 -0.466953 240 131 67
-0.777775 -0.876779 -1.050579 -0.060394 -0.479852 -0.875268 119 66 15
-0.681775 -0.863334 -0.857431 -0.147832 -0.487214 -0.860679 108 65 17
-0.591988 -0.730728 -1.649525 -0.640107 -0.767942 0.022974 45 29 130
-0.869284 -1.074576 -1.070212 0.070243 -0.288932 -0.954769 136 90 5
-0.617346 -0.597308 -1.557251 -0.365298 -0.861343 -0.353052 80 17 82
-0.561221 -1.219596 -0.979696 -0.386880 -0.071067 -0.919387 78 118 10
-0.650249 -1.427331 -1.586122 -0.738636 0.544506 -0.397405 33 196 76
-0.330889 0.059347 0.066224 0.917498 -0.197150 -0.345440 244 102 83
-0.767676 -0.577591 -1.551388 -0.203305 -0.963223 -0.175694 101 4 105
0.249600 -0.215266 0.582834 -0.638365 0.564512 0.523275 46 199 194
-0.808393 -1.291192 -1.536404 0.620256 -0.019082 -0.784167 206 125 27
0.206729 -0.103864 0.914480 0.457375 0.291366 -0.840187 185 164 20
0.077121 -0.224747 0.471656 0.244806 0.969478 0.013516 158 251 129
-0.491732 -1.352270 -1.501008 -0.912698 0.236734 -0.333075 11 157 85
-0.302156 0.176121 0.029019 0.758207 -0.591900 -0.273454 224 52 92
0.330283 0.113820 0.581355 -0.619490 -0.565352 0.544618 48 55 196
0.299344 -0.059542 0.052946 0.189343 0.094269 -0.977375 151 139 2
-0.073268 0.039132 0.504350 0.794072 -0.185021 -0.578980 228 103 53
-0.890312 -0.697379 -1.417774 0.261534 -0.850456 -0.456425 160 19 69
0.245731 0.230132 -0.144455 0.614473 -0.785664 0.071795 205 27 136
-0.784687 -0.888362 -1.796668 0.065581 -0.917369 0.392598 135 10 177
0.465536 0.046422 0.728626 -0.851556 -0.271216 0.448658 18 92 184
-0.372460 -0.928519 -1.699487 -0.851925 -0.514246 0.098870 18 61 140
-0.925492 -1.066581 -1.524805 0.687715 -0.477071 -0.547221 215 66 57
-0.390728 -0.947417 -1.077285 -0.767015 -0.264009 -0.584797 29 93 52
-0.795166 -1.349019 -1.322461 0.128710 0.688657 -0.713572 143 215 36
-0.813652 -0.614058 -1.487598 0.120122 -0.941615 -0.314534 142 7 87
0.201781 0.248459 0.632870 -0.252686 -0.927201 0.276491 95 9 162
-0.502478 -1.344424 -1.601835 -0.885028 0.243951 -0.396501 14 158 76
0.215660 -0.228509 0.577078 -0.223456 0.931602 0.286681 99 246 164
-0.717823 -0.610783 -1.610859 -0.161493 -0.970268 -0.180278 106 3 104
-0.364750 -0.985204 -1.293046 -0.825088 -0.240806 -0.511119 22 96 62
-0.317534 -0.182786 -0.016284 0.532457 0.843415 -0.071700 195 235 118
-0.140447 -0.231341 0.241399 0.099874 0.982525 -0.157068 140 252 107
0.265766 0.084736 0.946546 0.270109 -0.411545 -0.870444 161 75 16
0.165371 -0.224213 0.750547 0.567182 0.733511 -0.374521 199 221 79
-0.484736 -1.184946 -1.881421 -0.973692 -0.164519 0.157661 3 106 147
-0.471574 -0.798684 -1.510956 -0.822328 -0.512718 -0.246773 22 62 96
0.398713 0.153124 0.707213 -0.713929 -0.575478 0.398912 36 54 178
-0.753322 -0.826810 -1.779426 0.199218 -0.973290 0.114102 152 3 142
-0.581010 -0.789456 -0.990029 -0.542158 -0.477555 -0.691380 58 66 39
0.410270 -0.024661 0.961016 -0.086777 -0.058859 -0.994488 116 119 0
-0.157487 0.219149 0.222127 0.435116 -0.870610 -0.229592 182 16 98
0.010572 0.185730 0.534078 0.526777 -0.738797 -0.420339 194 33 73
-0.943043 -1.266547 -1.420676 0.742159 -0.196356 -0.640815 222 102 45
-0.263478 0.054192 0.203614 0.855791 -0.201663 -0.476396 236 101 66
-0.693334 -0.569737 -1.105187 -0.461469 -0.845634 -0.268233 68 19 93
0.221056 -0.157318 0.485052 -0.638337 0.566223 0.521457 46 199 193
-0.637418 -1.049286 -0.819733 -0.320470 -0.189889 -0.928031 86 103 9
-0.502023 -1.254525 -1.165400 -0.913603 0.011304 -0.406449 11 128 75
-0.684035 -1.071251 -0.814753 -0.192445 -0.209572 -0.958668 102 100 5
-0.384969 -0.136044 -0.130571 0.796851 0.583647 -0.156157 229 201 107
-0.335868 0.203340 -0.131337 0.634581 -0.723237 -0.272461 208 35 92
-0.654473 -1.053007 -1.926025 -0.634628 -0.498103 0.590881 46 63 202
-0.470254 -0.778295 -1.780587 -0.745919 -0.662437 0.069149 32 43 136
-0.031999 0.128828 0.523718 0.771409 -0.227254 -0.594377 225 98 51
-0.405230 -1.235568 -1.485976 -0.920603 0.015737 -0.390183 10 129 77
-0.830266 -1.378761 -1.321904 0.085592 0.691980 -0.716825 138 215 36
0.047268 -0.052532 -0.020060 0.824839 0.304912 -0.476097 232 166 66
0.135328 0.129078 0.374506 -0.710313 -0.499069 0.496374 36 63 190
-0.707655 -1.035573 -1.851635 -0.745506 -0.419762 0.517707 32 73 193
0.357034 -0.141076 0.937351 -0.074838 0.454964 -0.887359 117 185 14
0.490660 -0.086068 0.851700 -0.911148 0.391543 0.128464 11 177 143
-0.265437 0.234467 -0.041156 0.218097 -0.975767 -0.017654 155 3 125
-0.526812 -0.649878 -1.102340 -0.510098 -0.766881 -0.389478 62 29 77
-0.513611 -1.183263 -1.755607 -0.970921 -0.193840 0.140490 3 102 145
-0.311633 0.037333 0.124245 0.855791 -0.201663 -0.476396 236 101 66
0.315862 0.148089 0.019952 0.133328 -0.352288 -0.926346 144 82 9
-0.950945 -0.996281 -1.453066 0.572105 -0.635455 -0.518548 200 46 61
-0.157021 0.151979 0.319815 0.718326 -0.499403 -0.484360 219 63 65
-0.558510 -1.074175 -0.973613 -0.343710 -0.251296 -0.904828 83 95 12
-0.405024 -1.008521 -1.327478 -0.864466 -0.264034 -0.427766 17 93 72
-0.171812 -0.112281 0.340575 0.841924 0.199222 -0.501472 234 152 63
0.473030 0.059071 0.750496 -0.851556 -0.271216 0.448658 18 92 184
0.179876 -0.215859 0.782269 0.562514 0.673556 -0.479479 199 213 66
-0.623917 -1.360513 -1.347375 -0.799932 0.290406 -0.525141 25 164 60
-0.128815 -0.018378 0.443911 0.800219 0.165773 -0.576340 229 148 54
-0.511799 -0.954485 -1.786943 -0.894221 -0.430433 0.122869 13 72 143
-0.640956 -1.360540 -1.441043 -0.693145 0.535857 -0.482087 39 195 66
-0.624027 -1.311513 -0.880387 -0.618078 0.153415 -0.771002 48 147 29
-0.817713 -0.736755 -1.619559 0.294303 -0.888341 -0.352471 165 14 82
-0.199771 0.034746 0.323338 0.828458 -0.212011 -0.518371 233 100 61
-0.087726 0.235070 0.222189 -0.295466 -0.946016 0.133240 89 6 144
-0.672845 -0.627418 -1.194859 -0.543364 -0.745266 -0.386438 58 32 78
-0.098456 -0.182559 0.007922 -0.674967 0.672004 0.304680 41 213 166
0.410383 -0.121356 0.942963 -0.074838 0.454964 -0.887359 117 185 14
-0.901129 -0.705561 -1.497975 0.316507 -0.839353 -0.441939 167 20 71
-0.217466 0.211219 0.138525 0.435116 -0.870610 -0.229592 182 16 98
0.068232 0.213717 0.382562 -0.350779 -0.879968 0.320328 82 15 168
0.003982 -0.213536 0.486900 0.430176 0.853819 -0.293158 182 236 90
-0.653478 -1.459327 -1.487441 -0.692301 0.510699 -0.509811 39 192 62
-0.916842 -0.870223 -1.422977 0.430306 -0.806178 -0.406096 182 24 75
-0.181328 -0.243670 0.077849 0.373555 0.916231 0.144837 175 244 145
-0.789755 -1.132098 -0.918820 0.040546 -0.142644 -0.988943 132 109 1
0.035863 -0.102951 -0.107083 0.833367 0.234247 0.500628 233 157 191
-0.532049 -0.667206 -1.475292 -0.557802 -0.752565 -0.350005 56 31 82
-0.478818 -1.172767 -0.893114 -0.419974 -0.118453 -0.899772 73 112 12
0.423739 0.170376 0.854933 -0.677459 -0.733056 -0.060651 41 34 119
-0.883132 -1.286240 -1.444939 0.685163 -0.035588 -0.727520 214 122 34
0.352043 0.210475 -0.035330 -0.021201 -0.896404 -0.442730 124 13 71
-0.888972 -0.981815 -1.678512 0.606511 -0.563941 -0.560460 204 55 56
-0.057891 -0.192539 0.128134 -0.616634 0.773544 0.146261 48 226 146
-0.871522 -0.790654 -1.835950 0.399330 -0.903512 0.155571 178 12 147
0.023869 0.152212 0.591497 0.850845 -0.261724 -0.455590 235 94 69
0.173540 0.234659 0.746899 0.573579 -0.737431 -0.356654 200 33 82
0.167149 -0.172802 0.831845 0.613309 0.667568 -0.422145 205 212 73
0.194545 -0.142667 -0.010298 0.236280 0.389976 -0.889995 157 177 14
-0.799291 -0.853250 -1.744777 0.292170 -0.955155 0.048114 164 5 133
-0.455894 -1.149634 -0.929513 -0.740319 -0.083212 -0.667086 33 116 42
-0.261379 0.138249 0.146878 0.850526 -0.344260 -0.397607 235 83 76
0.428020 0.021040 0.955965 -0.184597 -0.062461 -0.980828 103 119 2
-0.051733 0.057239 -0.002178 -0.835928 -0.097306 0.540144 20 115 196
0.483151 0.030593 0.939936 -0.590233 -0.433188 -0.681156 52 72 40
-0.483719 -0.830208 -0.926196 -0.714868 -0.421032 -0.558298 36 73 56
0.342282 0.049750 0.563292 -0.724992 -0.266897 0.634942 35 93 208
0.225706 -0.237124 0.612904 -0.223456 0.931602 0.286681 99 246 164
-0.823880 -0.632855 -1.636908 0.127445 -0.942940 -0.307608 143 7 88
-0.136259 -0.194855 0.308233 0.714639 0.568012 -0.408232 218 199 75
-0.896399 -1.201595 -1.503267 0.728745 -0.197729 -0.655618 220 102 43
-0.921577 -1.081526 -1.623896 0.635577 -0.449668 -0.627567 208 70 47
-0.017249 0.155105 0.531531 0.730330 -0.499165 -0.466318 220 63 68
0.067597 -0.164559 0.299676 -0.621824 0.703497 0.344134 48 217 171
0.162065 0.098033 0.377810 -0.724992 -0.266897 0.634942 35 93 208
-0.424658 -1.310761 -1.408737 -0.891331 0.099375 -0.442328 13 140 71
-0.493329 -1.312024 -1.555665 -0.931995 0.013657 -0.362214 8 129 81
-0.922579 -0.748216 -1.187891 0.169811 -0.794422 -0.583146 149 26 53
0.034723 0.157629 0.608656 0.850845 -0.261724 -0.455590 235 94 69
0.099193 0.226206 0.607620 0.724398 -0.666129 -0.177537 219 42 104
0.387483 -0.033495 0.609819 -0.723761 0.256069 0.640779 35 160 209
0.242098 0.250270 0.670081 -0.260374 -0.907747 0.328938 94 11 169
-0.760194 -0.631677 -1.708722 -0.264505 -0.963075 -0.050241 93 4 121
-0.177707 -0.244686 0.124797 0.472429 0.847253 -0.242845 187 235 96
-0.947081 -0.935910 -1.296775 0.503123 -0.662853 -0.554520 191 42 56
-0.667488 -0.609227 -1.700623 -0.273121 -0.952990 -0.131205 92 5 110
-0.627684 -0.554199 -1.448931 -0.463026 -0.840919 -0.280112 68 20 91
-0.080889 -0.213302 0.350602 0.323891 0.936163 -0.136724 168 246 110
-0.656147 -0.841867 -0.972732 -0.264667 -0.513165 -0.816464 93 62 23
-0.438070 -1.071246 -1.012279 -0.709279 -0.209302 -0.673139 37 100 41
-0.881762 -0.958678 -1.646323 0.617182 -0.637075 -0.461759 206 46 68
0.286926 -0.077841 0.513901 -0.730150 0.236647 0.640998 34 157 209
-0.935440 -0.917980 -1.516004 0.519411 -0.784737 -0.338231 193 27 84
-0.192365 -0.229358 0.015773 0.373555 0.916231 0.144837 175 244 145
-0.667976 -0.981780 -1.872335 -0.621740 -0.621784 0.476259 48 48 188
-0.718986 -0.607985 -1.343032 -0.146791 -0.906426 -0.396037 108 11 77
-0.983208 -0.969139 -1.379976 0.571813 -0.629928 -0.525567 200 47 60
-0.698102 -1.442330 -1.338776 -0.660813 0.558097 -0.501850 43 198 63
0.192406 -0.184763 -0.049842 0.384119 0.851300 -0.357408 176 236 81
0.511908 -0.018627 0.888637 -0.954250 0.299009 0.001186 5 165 127
0.012528 0.004644 -0.088838 0.980648 -0.175431 0.086912 252 105 138
0.215209 0.121990 0.458942 -0.619490 -0.565352 0.544618 48 55 196
-0.738421 -0.603087 -1.528658 0.004289 -0.916604 -0.399773 128 10 76
-0.869066 -1.029681 -0.929324 0.270046 -0.368173 -0.889676 161 80 14
-0.704027 -0.562692 -1.615340 -0.093314 -0.973212 -0.210119 115 3 100
-0.258365 -0.936823 -0.069087 -0.086881 -0.948911 -0.303347 116 6 88
-0.110854 0.232530 0.136375 -0.183927 -0.981743 -0.048486 104 2 121
-0.461545 -0.705877 -1.215339 -0.719206 -0.621983 -0.309644 35 48 88
0.444640 0.172324 -0.014087 -0.599363 -0.534313 -0.596048 51 59 51
0.131676 0.181361 -0.102573 0.400591 -0.896124 -0.191021 178 13 103
-0.281943 0.222232 -0.025213 0.752534 -0.632808 -0.182336 223 46 104
0.254357 0.181530 0.563443 -0.630135 -0.480985 0.609576 47 66 205
-0.759635 -1.359974 -1.143648 -0.084468 0.261244 -0.961570 116 160 4
-0.130484 -0.879855 -0.008858 -0.457119 -0.880736 0.123876 69 15 143
-0.807512 -1.365120 -1.443328 0.232349 0.528456 -0.816546 157 194 23
-0.820910 -0.737392 -1.126706 0.086482 -0.826612 -0.556087 138 22 56
-0.575253 -0.839440 -0.907483 -0.477323 -0.454067 -0.752320 66 69 31
-0.665255 -0.630311 -1.105884 -0.513253 -0.836918 -0.190102 62 20 103
0.533384 -0.126551 -0.135212 -0.914102 0.393325 -0.098553 10 177 114
0.127874 -0.977329 0.196003 -0.407616 -0.910315 -0.071947 75 11 118
-0.371301 -0.754677 -1.608116 -0.789756 -0.571618 -0.222573 26 54 99
-0.934430 -1.230486 -1.095683 0.494943 -0.009352 -0.868875 190 126 16
-0.389725 -0.888302 -1.555806 -0.886050 -0.429388 -0.174764 14 72 105
-0.059312 -0.197177 0.146676 -0.616634 0.773544 0.146261 48 226 146
-0.916249 -1.193799 -1.558999 0.831415 -0.259933 -0.491105 233 94 64
-0.813732 -1.276603 -1.174538 0.144964 0.109132 -0.983400 145 141 2
-0.253456 -0.217070 0.023158 -0.040505 0.998266 -0.042723 122 254 122
-0.779855 -1.369214 -1.468486 0.082735 0.469931 -0.878817 138 187 15
-0.647113 -0.590982 -1.596085 -0.210699 -0.963369 -0.165912 100 4 106
-0.466750 -0.904331 -1.031929 -0.729433 -0.329166 -0.599648 34 85 51
-0.409806 -0.759504 -1.313192 -0.777666 -0.495469 -0.386970 28 64 78
-0.627139 -1.238660 -0.728220 -0.169940 -0.024197 -0.985157 105 124 1
0.267562 -0.030974 0.049545 0.189343 0.094269 -0.977375 151 139 2
-0.394157 -0.823165 -1.059538 -0.694130 -0.442797 -0.567552 38 71 55
0.170970 0.172147 0.838648 0.639173 -0.640600 -0.425546 208 45 73
-0.526366 -1.269356 -1.668444 -0.993686 0.111948 0.007513 0 141 128
-0.332866 -0.181715 -0.079792 0.399024 0.899536 -0.177804 178 242 104
0.073949 0.234144 0.464300 0.052454 -0.997243 -0.052492 134 0 120
-0.248277 0.235981 -0.059256 -0.133130 -0.950409 0.281069 110 6 163
0.264735 -0.215008 0.859593 0.352599 0.811074 -0.466727 172 230 67
-0.003358 -0.010605 0.620896 0.806630 0.159742 -0.569062 230 147 54
-0.963926 -1.103093 -1.443347 0.651382 -0.444343 -0.615030 210 70 49
-0.670896 -1.157864 -0.928956 -0.236838 -0.127884 -0.963096 97 111 4
-0.931285 -0.953127 -1.186461 0.598543 -0.578326 -0.554333 203 53 56
-0.450037 -0.789922 -1.632701 -0.817258 -0.534813 -0.214625 23 59 100
-0.850891 -1.167690 -0.874786 0.210522 -0.167666 -0.963104 154 106 4
0.096818 0.225435 0.600818 0.724398 -0.666129 -0.177537 219 42 104
0.046184 -0.092740 0.211922 -0.797836 0.402311 0.449002 25 178 184
0.083006 -0.226958 0.523627 0.244806 0.969478 0.013516 158 251 129
0.337467 -0.221433 -0.052950 0.252430 0.784971 -0.565773 159 227 55
-0.518489 -1.263447 -0.942508 -0.697206 -0.002622 -0.716866 38 127 36
0.224843 0.132061 0.480355 -0.619490 -0.565352 0.544618 48 55 196
-0.540112 -1.381322 -1.051962 -0.747477 0.248919 -0.615888 32 159 48
0.166821 0.159403 0.851601 0.639173 -0.640600 -0.425546 208 45 73
-0.885479 -0.704913 -1.395069 0.269532 -0.855158 -0.442783 161 18 71
-0.062923 0.188878 0.096190 -0.696703 -0.637823 0.328309 38 46 169
-0.749099 -0.544653 -1.116730 -0.140609 -0.869163 -0.474114 109 16 67
-0.067153 -0.229787 0.291271 0.087668 0.982822 -0.162403 138 252 106
-0.828418 -1.389709 -1.400439 0.106285 0.645121 -0.756652 141 209 31
0.193075 -0.172762 -0.024673 0.367382 0.547052 -0.752173 174 197 31
0.489640 -0.030778 0.932559 -0.614290 0.386678 -0.687843 49 176 39
-0.895440 -1.180555 -0.993661 0.106476 -0.149132 -0.983068 141 108 2
-0.530472 -1.042410 -1.841558 -0.911791 -0.353782 0.208510 11 82 154
-0.780073 -0.758122 -1.019169 0.022849 -0.522401 -0.852394 130 60 18
-0.824800 -1.341450 -1.119692 0.107265 0.264742 -0.958335 141 161 5
-0.844438 -0.915184 -1.820565 0.165269 -0.888518 0.428044 148 14 182
0.136619 0.175773 -0.056397 0.372755 -0.915921 -0.148802 175 10 108
-0.489531 -1.293850 -1.161288 -0.920301 0.016363 -0.390869 10 129 77
-0.918662 -1.003747 -1.423313 0.571814 -0.663759 -0.482134 200 42 66
-0.013409 -0.056721 0.066710 -0.954122 0.248437 0.167126 5 159 148
0.482552 0.007877 0.000867 -0.705969 -0.071463 -0.704628 37 118 37
0.201997 0.218772 0.538702 -0.630135 -0.480985 0.609576 47 66 205
-0.418430 -0.979373 -1.098573 -0.883265 -0.374536 -0.282075 14 79 91
-0.124770 -0.882960 0.151419 -0.348592 -0.930524 -0.112289 83 8 113
-0.402311 -1.173176 -1.452484 -0.932134 -0.112409 -0.344225 8 113 83
-0.643443 -1.043360 -0.829726 -0.353081 -0.215031 -0.910547 82 100 11
0.301540 0.075257 0.045589 0.133328 -0.352288 -0.926346 144 82 9
0.001217 0.135487 0.165867 -0.810090 -0.536438 0.236620 24 59 157
0.000561 0.230189 0.426468 0.308867 -0.933984 -0.179650 166 8 104
0.207333 -0.079564 0.423875 -0.730150 0.236647 0.640998 34 157 209
0.124216 0.011761 0.860920 0.772209 0.156839 -0.615707 225 147 48
0.027648 -0.145541 0.226296 -0.797836 0.402311 0.449002 25 178 184
0.184709 -0.215085 0.512453 -0.436705 0.761733 0.478593 71 224 188
-0.061993 0.018473 -0.025039 -0.835928 -0.097306 0.540144 20 115 196
-0.374978 -1.121485 -1.617250 -0.920172 -0.245703 -0.304817 10 96 88
-0.151383 -0.211918 -0.019156 -0.543819 0.760433 0.354968 58 224 172
-0.303671 -0.201039 -0.112039 0.399024 0.899536 -0.177804 178 242 104
-0.796240 -1.296708 -1.727198 0.773883 0.545293 -0.322120 226 197 86
0.155516 0.186474 -0.135580 0.366493 -0.888647 0.275662 174 14 162
-0.776511 -0.607669 -1.133319 -0.181316 -0.809563 -0.558330 104 24 56
-0.630629 -1.003241 -1.819482 -0.681901 -0.561150 0.469172 40 55 187
-0.864210 -0.749888 -1.328858 0.307663 -0.858451 -0.410373 166 18 75
0.195518 0.120624 0.007168 0.292024 -0.533256 -0.793952 164 59 26
-0.431376 -1.193860 -1.316841 -0.894632 -0.090382 -0.437568 13 115 71
-0.090700 0.171434 0.022557 -0.816855 -0.500477 0.286828 23 63 164
-0.435196 -1.250640 -1.382477 -0.897104 -0.079426 -0.434622 13 117 72
-0.823594 -1.378988 -1.366265 0.065112 0.616913 -0.784333 135 206 27
0.145459 0.151757 0.831026 0.639173 -0.640600 -0.425546 208 45 73
0.248655 0.246414 0.741683 0.166349 -0.985207 -0.041182 148 1 122
-0.110222 -0.035700 0.464745 0.800219 0.165773 -0.576340 229 148 54
-0.442773 -0.914857 -1.546535 -0.879274 -0.464453 0.105645 15 68 140
-0.233639 0.064097 0.253024 0.855791 -0.201663 -0.476396 236 101 66
-0.238114 -0.191711 0.139028 0.749003 0.518800 -0.412118 222 193 74
-0.017870 0.190787 0.209328 -0.749797 -0.460319 0.475300 31 68 188
0.362841 -0.009148 0.964236 -0.086777 -0.058859 -0.994488 116 119 0
0.199213 -0.022324 0.034054 0.272114 -0.105427 -0.956472 162 114 5
0.342267 -0.184432 0.000528 0.252430 0.784971 -0.565773 159 227 55
-0.952140 -1.082772 -1.039621 0.614975 -0.398160 -0.680643 205 76 40
-0.050397 -0.080027 0.006117 -0.829921 0.280056 0.482493 21 163 189
-0.376334 -0.965600 -1.343458 -0.854271 -0.284709 -0.434927 18 91 72
0.071365 -0.138423 0.701136 0.867615 0.184118 -0.461893 238 150 68
0.077526 -0.045166 0.761318 0.946659 0.205868 -0.247901 248 153 95
-0.463392 -1.095242 -1.019836 -0.707342 -0.171254 -0.685812 37 105 40
-0.063718 0.030197 -0.025596 -0.835928 -0.097306 0.540144 20 115 196
-0.009036 0.036000 0.070848 -0.893652 -0.065936 0.443890 13 119 184
0.087647 0.192563 0.370104 -0.710313 -0.499069 0.496374 36 63 190
0.404658 0.147473 0.709699 -0.713929 -0.575478 0.398912 36 54 178
0.305361 -0.034126 0.056563 0.189343 0.094269 -0.977375 151 139 2
-0.731380 -0.999369 -0.841721 -0.165523 -0.316807 -0.933935 106 87 8
-0.415438 -0.818113 -1.474885 -0.828890 -0.491578 -0.267007 21 64 93
0.157081 -0.048282 0.021113 0.236280 0.389976 -0.889995 157 177 14
0.257296 -0.214658 0.854581 0.352599 0.811074 -0.466727 172 230 67
-0.556792 -0.836127 -1.916483 -0.653978 -0.660787 0.368338 44 43 174
0.354072 -0.213571 0.877463 -0.291481 0.938954 -0.182769 90 247 104
0.114066 0.172664 -0.093759 0.372755 -0.915921 -0.148802 175 10 108
-0.921213 -0.990269 -1.589042 0.607295 -0.580979 -0.541900 204 53 58
-0.525280 -0.646123 -1.439615 -0.580830 -0.761946 -0.286488 53 30 90
-0.623068 -1.111911 -0.802910 -0.325533 -0.152051 -0.933225 85 108 8
-0.951745 -0.930046 -1.502234 0.552746 -0.603583 -0.574595 197 50 54
-0.866636 -1.020667 -1.858036 0.607614 -0.790180 0.080134 204 26 137
-0.912260 -0.960417 -1.338866 0.584989 -0.656918 -0.475654 202 43 66
-0.424076 -1.173648 -1.764853 -0.982704 -0.146561 0.113192 2 108 141
-0.922443 -0.819183 -1.502422 0.443124 -0.831025 -0.336213 183 21 84
0.076061 -0.087225 0.730364 0.867615 0.184118 -0.461893 238 150 68
0.161978 -0.102138 0.380546 -0.730150 0.236647 0.640998 34 157 209
