ply
format ascii 1.0
element vertex 512
property float x
property float y
property float z
property float nx
property float ny
property float nz
property uchar red
property uchar green
property uchar blue
end_header
0.218569 0.232699 0.599064 -0.220521 -0.975372 0.004519 99 3 128
-0.859688 -0.810934 -1.953652 -0.035008 -0.900141 0.434190 123 12 182
-0.452246 -0.934676 -1.394405 -0.886016 -0.370900 -0.278224 14 80 92
0.285025 -0.209219 0.181737 -0.818202 0.574926 -0.002202 23 200 127
0.100589 0.251465 0.740096 0.015004 -0.979670 0.200052 129 2 153
-0.800753 -1.372702 -1.355522 -0.266763 0.422254 -0.866337 93 181 17
-0.883949 -1.298872 -1.828942 -0.296956 0.948700 0.108557 89 248 141
0.015749 -0.057680 0.628887 -0.167309 0.203450 0.964684 106 153 250
-0.026841 -0.179330 0.906479 0.004006 0.622465 -0.782638 128 206 27
0.081741 0.246528 0.723528 -0.005296 -0.779099 0.626878 126 28 207
-1.058744 -0.848805 -1.551508 0.389156 -0.767279 -0.509746 177 29 62
-0.253310 0.121119 -0.211477 0.753958 -0.266216 -0.600564 223 93 50
-0.505386 -1.008047 -1.684585 -0.939787 -0.266824 -0.213552 7 93 100
0.205293 0.160314 -0.046427 -0.663139 -0.475061 0.578414 42 66 201
-1.054231 -0.738845 -1.328380 0.408643 -0.772920 -0.485391 179 28 65
0.051301 0.264963 0.799718 0.005976 -0.997372 -0.072205 128 0 118
-0.478038 -0.895016 -1.647934 -0.921754 -0.380273 -0.075908 9 79 117
-0.794511 -0.532910 -1.467239 -0.275535 -0.878973 -0.389214 92 15 77
-0.750387 -1.023523 -1.992666 -0.606798 -0.453869 0.652533 50 69 210
0.096641 -0.027441 0.267709 0.947888 0.159681 -0.275700 248 147 92
-0.138913 0.233078 -0.224946 0.198219 -0.965988 -0.166062 152 4 106
-0.791651 -0.732693 -1.870567 -0.506356 -0.816443 0.277532 62 23 162
-0.117444 0.134391 -0.088372 0.689000 -0.221106 -0.690211 215 99 39
-0.307314 -0.921627 -0.302554 -0.855027 -0.444351 -0.267360 18 70 93
-1.057334 -1.078019 -1.497543 0.625635 -0.466068 -0.625589 207 68 47
-1.035601 -0.798925 -1.719152 0.455778 -0.722819 -0.519422 185 35 61
0.340828 0.008865 0.463220 -0.994402 -0.061906 -0.085629 0 119 116
-0.506823 -1.044618 -1.615977 -0.943785 -0.220927 -0.245888 7 99 96
-0.524874 -0.951765 -1.681365 -0.949559 -0.289938 -0.119470 6 90 112
-0.146553 -0.933933 0.183496 0.838562 -0.533835 0.108787 234 59 141
-0.229406 0.121257 0.919258 0.322293 -0.468435 -0.822616 168 67 22
-0.682736 -1.307492 -1.740786 -0.983376 0.147582 -0.105790 2 146 114
-1.097841 -0.960121 -1.798074 0.540903 -0.810324 -0.225386 196 24 98
0.072601 0.118841 0.617441 0.710112 -0.158064 0.686117 218 107 214
-0.756008 -1.428693 -1.427941 -0.692540 0.374187 -0.616744 39 175 48
-0.684433 -0.818329 -1.136137 -0.504020 -0.496410 -0.706782 63 64 37
-0.908600 -0.668324 -1.789500 0.131782 -0.988021 0.080301 144 1 137
-0.012614 -0.264858 0.809855 -0.036998 0.833582 -0.551155 122 233 57
0.084636 -0.128811 0.186321 0.923682 0.126696 -0.361607 245 143 81
-0.316439 -0.105801 0.836853 0.785048 0.499673 -0.366097 227 191 80
0.137580 0.033629 0.938768 -0.385378 -0.037918 -0.921980 78 122 9
-0.665335 -1.368562 -1.692001 -0.964309 0.243341 -0.104369 4 158 114
-0.055711 0.228941 0.700509 -0.005296 -0.779099 0.626878 126 28 207
-0.330202 -0.064874 0.637711 0.998192 0.027542 0.053420 254 131 134
-0.651292 -1.033565 -1.925709 -0.935377 -0.312067 0.166384 8 87 148
0.062957 0.058106 0.159493 0.825708 -0.251138 -0.505110 232 95 63
0.358539 0.060223 0.137267 -0.948094 -0.313449 -0.053545 6 87 120
0.212023 0.163152 0.843842 -0.449437 -0.680173 -0.579113 70 40 53
0.139292 0.177747 0.364211 0.663341 -0.748013 -0.021333 212 32 124
-0.762840 -1.161682 -1.876372 -0.735412 -0.213607 0.643071 33 100 209
-0.063172 -0.147959 0.931244 0.004006 0.622465 -0.782638 128 206 27
-0.203812 0.062649 0.951622 0.436215 -0.315814 -0.842602 183 87 20
0.216055 -0.234403 0.347945 -0.070060 0.997249 -0.024203 118 254 124
0.089992 0.015289 0.389068 0.988485 -0.151308 0.001603 253 108 127
0.050356 -0.046769 0.618998 0.891201 0.095049 0.443539 241 139 184
-0.469658 -0.881833 -1.442815 -0.820827 -0.414725 -0.392742 22 74 77
-0.106903 0.196753 -0.126510 0.513532 -0.735568 -0.441843 192 33 71
0.127747 -0.196381 0.192018 0.504358 0.788593 -0.351774 191 228 82
0.337796 -0.060185 0.548575 -0.991474 -0.092469 -0.091811 1 115 115
0.344942 0.060668 0.375415 -0.948094 -0.313449 -0.053545 6 87 120
-0.293527 0.129578 0.801847 0.884708 -0.464321 -0.041201 240 68 122
0.089137 0.069227 0.208289 0.951129 -0.246769 -0.185629 248 96 103
0.119904 0.154337 0.434398 0.961963 -0.268644 0.049582 250 93 133
-0.178902 0.066465 -0.110397 0.625312 -0.145399 -0.766710 207 108 29
-0.615117 -1.124848 -1.244283 -0.794166 -0.078043 -0.602669 26 117 50
-0.593369 -1.261254 -1.791200 -0.991574 -0.086287 0.096617 1 116 139
-0.284368 0.070056 0.562033 0.791532 -0.080112 0.605855 228 117 204
-0.318375 -0.160623 0.661594 0.987580 0.143380 0.064252 253 145 135
-0.199962 0.173353 0.590506 -0.281194 -0.447668 0.848837 91 70 235
-0.928443 -0.849091 -1.803052 0.248820 -0.943401 0.219279 159 7 155
0.086587 -0.082458 0.207546 0.923682 0.126696 -0.361607 245 143 81
0.094840 -0.008831 0.952328 -0.071559 -0.123295 -0.989787 118 111 1
-0.941950 -0.849838 -1.888935 0.259317 -0.945614 0.196388 160 6 152
0.300366 0.166728 0.267520 -0.799634 -0.596645 -0.067818 25 51 118
0.089356 -0.011739 0.359867 0.991169 0.108177 0.076694 253 141 137
-0.309864 -0.120749 0.830552 0.785048 0.499673 -0.366097 227 191 80
-0.970696 -1.217595 -1.245925 0.712168 -0.035759 -0.701098 218 122 38
-1.004402 -1.015610 -1.690248 0.439073 -0.895701 -0.070245 183 13 118
-0.334791 -0.003082 0.709698 0.992479 -0.069882 0.100506 254 118 140
-0.606312 -1.407601 -1.526190 -0.890137 0.311163 -0.332915 14 167 85
-0.129953 0.233576 0.853835 -0.027182 -0.828508 -0.559318 124 21 56
0.098298 -0.108609 0.380931 0.991169 0.108177 0.076694 253 141 137
-0.800047 -1.408784 -1.632621 -0.698925 0.616612 -0.362345 38 206 81
0.193009 -0.237544 0.200917 0.689891 0.723837 -0.010539 215 219 126
-0.880704 -1.327135 -1.674490 -0.206207 0.850393 -0.484056 101 235 65
0.169846 0.027645 0.925527 -0.385378 -0.037918 -0.921980 78 122 9
-0.692743 -0.839760 -1.900416 -0.773327 -0.585744 0.242631 28 52 158
-0.798546 -1.425868 -1.305049 -0.192952 0.378900 -0.905099 102 175 12
-0.507763 -0.854554 -1.390943 -0.864834 -0.395842 -0.308823 17 77 88
0.074309 0.208077 0.876674 -0.052248 -0.510494 -0.858293 120 62 18
-0.790939 -1.413360 -1.438166 -0.634887 0.326796 -0.700087 46 169 38
-0.765914 -1.092686 -1.979059 -0.865320 -0.286205 0.411471 17 91 179
-0.536150 -1.086921 -1.194030 -0.833119 -0.134464 -0.536500 21 110 59
-0.842538 -0.748145 -1.910430 -0.370687 -0.854767 0.363270 80 18 173
-0.761470 -1.379451 -1.795855 -0.880940 0.470784 -0.048021 15 187 121
-0.575304 -1.117110 -0.999788 -0.713965 -0.145702 -0.684854 36 108 40
-0.761045 -1.468905 -1.330499 -0.696545 0.355087 -0.623488 38 172 48
-0.642858 -0.587894 -1.513062 -0.541669 -0.768972 -0.339524 58 29 84
0.162709 0.091034 -0.145238 -0.737633 -0.049742 0.673367 33 121 213
0.215225 0.231728 0.441511 -0.168289 -0.985668 0.011713 106 1 128
0.186379 0.195810 -0.044387 -0.648391 -0.357397 0.672202 44 81 213
0.109459 0.133786 0.525697 0.961963 -0.268644 0.049582 250 93 133
-0.739341 -0.654410 -1.263206 -0.386641 -0.777576 -0.495867 78 28 64
-0.270066 -0.020505 -0.190607 0.738107 0.110289 -0.665608 221 141 42
-0.832649 -1.187090 -1.978850 -0.588347 -0.001930 0.808606 52 127 230
-0.914759 -0.586613 -1.593987 -0.123179 -0.946647 -0.297802 111 6 89
0.278960 0.215017 0.430829 -0.971883 -0.234678 0.019240 3 97 129
0.132224 0.226031 0.825743 -0.360434 -0.805845 -0.469788 81 24 67
-0.477280 -0.923285 -1.409644 -0.828421 -0.405408 -0.386474 21 75 78
-0.583722 -0.812825 -1.030715 -0.553429 -0.379947 -0.741186 56 79 32
0.243119 -0.227284 0.562916 -0.070060 0.997249 -0.024203 118 254 124
0.256809 -0.018917 -0.057058 -0.750684 0.114395 0.650682 31 142 210
-0.742084 -1.363151 -1.556700 -0.780715 0.413041 -0.468915 27 180 67
-1.005303 -1.028871 -1.222468 0.343362 -0.442641 -0.828355 171 71 21
-0.202622 -0.177799 0.587956 0.022369 0.746588 0.664910 130 222 212
0.092508 -0.091592 0.431754 0.991169 0.108177 0.076694 253 141 137
0.364531 -0.022808 0.222220 -0.991474 -0.092469 -0.091811 1 115 115
0.095070 -0.137394 0.942019 -0.064946 0.114838 -0.991259 119 142 1
-0.704233 -0.550872 -1.277691 -0.318772 -0.870064 -0.375995 86 16 79
-0.779131 -1.399503 -1.362367 -0.366635 0.572990 -0.732981 80 200 34
-0.975993 -0.852629 -1.189564 0.091003 -0.560038 -0.823454 139 56 22
0.309382 -0.174746 0.132089 -0.818202 0.574926 -0.002202 23 200 127
-1.049526 -0.684862 -1.439043 0.325685 -0.798762 -0.505875 169 25 63
-0.173653 0.048942 -0.102793 0.625312 -0.145399 -0.766710 207 108 29
-0.117924 0.076953 0.576685 -0.411509 -0.054806 0.909757 75 120 243
-0.677037 -0.720893 -1.028199 -0.147609 -0.544951 -0.825373 108 58 22
-0.136535 0.050351 0.566748 -0.405651 -0.054655 0.912392 75 120 243
-0.079183 0.105143 -0.040808 0.689000 -0.221106 -0.690211 215 99 39
0.308046 0.128182 0.516077 -0.799634 -0.596645 -0.067818 25 51 118
0.252913 -0.205966 0.036950 -0.400466 0.841228 0.363267 76 234 173
-0.754630 -0.598833 -1.677264 -0.515796 -0.831479 -0.206391 61 21 101
-0.490136 -1.067276 -1.733162 -0.957558 -0.284227 -0.047932 5 91 121
-0.340364 -0.003286 0.795855 0.998192 0.027542 0.053420 254 131 134
-0.567395 -1.156541 -0.996308 -0.742813 -0.066550 -0.666183 32 119 42
-1.049122 -1.242094 -1.435603 0.607143 -0.028609 -0.794077 204 123 26
0.194908 -0.236688 0.315003 -0.070060 0.997249 -0.024203 118 254 124
-0.567960 -1.233804 -1.741512 -0.989619 -0.132035 0.056754 1 110 134
-0.651562 -1.022654 -0.957880 -0.218416 -0.298554 -0.929064 99 89 9
-0.898053 -1.032062 -1.176145 0.082778 -0.380225 -0.921182 138 79 10
-0.911006 -0.747727 -1.180678 0.023786 -0.702993 -0.710799 130 37 36
0.109766 0.161952 0.190726 0.951129 -0.246769 -0.185629 248 96 103
0.184765 0.221663 0.411956 0.752605 -0.655931 -0.057802 223 43 120
-0.547147 -0.746926 -1.440162 -0.793660 -0.545112 -0.270104 26 57 93
-1.023950 -1.288962 -1.577268 0.541420 0.063172 -0.838375 196 135 20
-0.795245 -1.258583 -1.186529 -0.101985 0.187821 -0.976894 114 151 2
0.224948 0.218784 0.767032 -0.360434 -0.805845 -0.469788 81 24 67
0.053682 -0.240293 -0.084732 0.081925 0.994257 -0.068855 137 254 118
-0.097931 -0.084326 -0.048028 0.702443 0.122381 -0.701139 217 143 38
-0.316588 -0.148062 0.633765 0.885927 0.272848 0.375084 240 162 175
0.347055 0.033015 0.373447 -0.994402 -0.061906 -0.085629 0 119 116
-0.165548 -0.217631 0.868749 0.016215 0.748843 -0.662550 129 222 43
-0.575438 -1.151856 -1.221001 -0.855318 -0.134198 -0.500422 18 110 63
-0.719951 -1.403313 -1.333267 -0.284834 0.346560 -0.893737 91 171 13
-0.899008 -1.203669 -1.880113 -0.125178 -0.325549 0.937202 111 85 246
-1.069571 -0.833406 -1.640281 0.409569 -0.743049 -0.529275 179 32 60
-0.530844 -1.067664 -1.211853 -0.822136 -0.279158 -0.496148 22 91 64
0.236710 0.228200 0.513358 -0.220521 -0.975372 0.004519 99 3 128
0.331237 0.127857 0.078114 -0.807863 -0.396585 0.435979 24 76 183
-0.547307 -1.298868 -1.263701 -0.904797 0.138421 -0.402718 12 145 76
-0.648239 -1.376491 -1.635152 -0.874568 0.350255 -0.335340 15 172 84
-0.836019 -1.247954 -1.912509 -0.627329 0.303652 0.717115 47 166 218
-0.877948 -0.950541 -0.914679 0.161351 -0.457533 -0.874431 148 69 16
0.176008 0.237148 0.120800 0.043502 -0.996930 -0.065100 133 0 119
-0.770641 -0.609516 -1.095735 -0.274825 -0.811074 -0.516363 92 24 61
0.273625 -0.223672 0.527720 -0.185203 0.982694 -0.003505 103 252 127
0.349070 -0.103022 0.183309 -0.945515 0.322043 -0.047860 6 168 121
-1.083835 -1.117212 -1.623442 0.581181 -0.450882 -0.677447 201 70 41
-0.840415 -0.799255 -1.843274 -0.026072 -0.958552 0.283721 124 5 163
-0.695768 -1.335389 -1.443353 -0.633149 0.282072 -0.720804 46 163 35
-0.058247 0.147351 0.627281 -0.413265 -0.328971 0.849112 74 85 235
0.270323 0.219017 0.171608 -0.220521 -0.975372 0.004519 99 3 128
-0.558729 -0.948107 -1.136003 -0.786302 -0.310426 -0.534195 27 87 59
-0.536390 -1.298403 -1.119623 -0.781100 0.146297 -0.607026 27 146 50
0.336987 -0.030628 0.536383 -0.994402 -0.061906 -0.085629 0 119 116
-0.764613 -1.104673 -1.797294 -0.787534 -0.196358 0.584152 27 102 201
-0.881571 -0.737489 -1.263742 0.029582 -0.754344 -0.655813 131 31 43
0.265990 -0.195976 0.031798 -0.672854 0.436513 0.597263 41 183 203
-0.205469 -0.012053 0.537360 -0.120358 -0.235845 0.964309 112 97 250
0.166323 0.030207 0.926894 -0.385378 -0.037918 -0.921980 78 122 9
-0.953751 -1.134996 -1.184317 0.234614 -0.246776 -0.940244 157 96 7
-0.768226 -0.587221 -1.824493 -0.514206 -0.849331 -0.119289 61 19 112
0.048078 -0.088473 0.950765 -0.064946 0.114838 -0.991259 119 142 1
0.200900 -0.196712 -0.038574 -0.643484 0.487405 0.590224 45 189 202
0.071040 0.080106 0.610132 0.710112 -0.158064 0.686117 218 107 214
-1.019515 -0.780126 -1.485015 0.354847 -0.799628 -0.484437 172 25 65
-0.072649 0.166748 -0.054021 0.689000 -0.221106 -0.690211 215 99 39
0.299882 -0.157595 0.677515 -0.913372 0.400541 -0.072931 11 178 118
-0.779677 -0.550507 -1.557832 -0.196027 -0.917008 -0.347374 102 10 83
-1.022476 -1.184075 -1.335838 0.645090 -0.322210 -0.692848 209 86 39
-0.316688 0.054710 0.857321 0.887506 -0.266066 -0.376220 240 93 79
-0.038191 -0.218774 -0.090607 0.501356 0.754245 -0.423978 191 223 73
-0.305934 0.053592 0.588030 0.791532 -0.080112 0.605855 228 117 204
-0.172418 0.193281 0.900494 -0.052248 -0.510494 -0.858293 120 62 18
0.368054 0.000764 0.160428 -0.991474 -0.092469 -0.091811 1 115 115
-0.892366 -0.522928 -1.547857 -0.231616 -0.909306 -0.345712 97 11 83
-0.033269 0.266217 0.775403 0.005976 -0.997372 -0.072205 128 0 118
-1.044163 -1.040086 -1.774986 0.681199 -0.704535 -0.198993 214 37 102
-0.968921 -0.595305 -1.654902 -0.056156 -0.966990 -0.248549 120 4 95
-0.589610 -0.879493 -1.892303 -0.800893 -0.518269 0.299946 25 61 165
0.341784 -0.021936 0.474390 -0.994402 -0.061906 -0.085629 0 119 116
0.325655 0.098126 0.497642 -0.948094 -0.313449 -0.053545 6 87 120
0.062250 -0.065227 0.952530 -0.064946 0.114838 -0.991259 119 142 1
-0.099194 -0.264704 0.769678 -0.064927 0.997731 0.017806 119 254 129
-0.733635 -1.326109 -1.785492 -0.956379 0.283366 -0.071017 5 163 118
0.121827 -0.243025 0.799945 -0.295764 0.868208 -0.398419 89 238 76
0.012159 0.193564 0.663641 -0.115848 -0.665127 0.737689 112 42 221
0.023749 0.155993 0.910455 -0.056796 -0.503201 -0.862301 120 63 17
-0.536408 -0.612306 -1.448245 -0.689882 -0.673358 -0.265804 39 41 93
-0.846689 -1.338307 -1.890650 -0.694995 0.301410 0.652790 38 165 210
-0.760754 -0.680346 -1.139343 -0.268799 -0.654254 -0.706894 93 44 37
-0.812236 -0.886176 -1.848272 -0.423231 -0.736392 0.527828 73 33 194
0.325006 0.049081 0.617893 -0.994402 -0.061906 -0.085629 0 119 116
-0.983126 -0.628689 -1.742908 -0.042590 -0.968747 -0.244366 122 3 96
0.219995 -0.237138 0.683852 -0.124571 0.978482 0.164485 111 252 148
-0.808468 -0.512778 -1.690510 -0.281060 -0.923358 -0.261563 91 9 94
-0.522910 -1.421849 -1.371817 -0.862340 0.308014 -0.401867 17 166 76
0.283891 0.192146 0.400997 -0.971883 -0.234678 0.019240 3 97 129
-0.559784 -0.790299 -1.844024 -0.841807 -0.539290 0.022987 20 58 130
-0.002958 0.209342 0.676597 -0.005296 -0.779099 0.626878 126 28 207
-0.631740 -1.333458 -1.354248 -0.829186 0.131810 -0.543210 21 144 58
0.005965 -0.264563 0.767624 -0.050786 0.969260 0.240739 121 251 158
-0.271640 -0.015730 0.544579 0.141740 -0.031090 0.989416 145 123 253
-0.001065 0.265162 0.792637 0.005976 -0.997372 -0.072205 128 0 118
0.090313 -0.098447 0.529467 0.965580 0.259002 0.023929 250 160 130
0.276162 0.189289 0.725022 -0.895526 -0.353778 -0.269951 13 82 93
-0.955310 -1.022651 -1.682936 0.566364 -0.823778 0.024933 199 22 130
-0.663218 -0.910431 -1.956884 -0.827431 -0.497717 0.260067 22 64 160
-0.509678 -1.160730 -1.378045 -0.832470 -0.176644 -0.525158 21 104 60
-0.064339 0.002310 0.602788 -0.618219 0.140963 0.773262 48 145 226
-0.930977 -0.645958 -1.555099 -0.051675 -0.912204 -0.406464 120 11 75
-0.997349 -1.227703 -1.492330 0.544386 -0.049320 -0.837384 196 121 20
-1.047565 -0.769577 -1.705043 0.360477 -0.812828 -0.457567 173 23 69
-0.983801 -0.787579 -1.450638 0.319161 -0.824453 -0.467348 168 22 67
-0.786098 -0.626136 -1.419747 -0.279616 -0.824131 -0.492569 91 22 64
0.043629 0.181223 0.056256 0.603743 -0.733472 -0.312271 204 33 87
-0.606919 -1.130736 -1.038266 -0.686553 -0.101281 -0.719991 39 114 35
-1.023405 -1.103350 -1.241786 0.244192 -0.291472 -0.924886 158 90 9
-0.557459 -1.153504 -1.820361 -0.975349 -0.211482 0.063000 3 100 135
-0.579768 -1.336664 -1.690460 -0.955361 0.197652 -0.219587 5 152 99
-0.683580 -0.584069 -1.742412 -0.555110 -0.822114 -0.126416 56 22 111
0.025698 0.053641 0.949544 -0.071559 -0.123295 -0.989787 118 111 1
-0.465668 -1.121769 -1.572869 -0.955548 -0.145357 -0.256515 5 108 94
-0.020098 0.224267 -0.143842 -0.129206 -0.989118 0.070371 111 1 136
-1.069721 -1.074904 -1.547400 0.581759 -0.512606 -0.631500 201 62 46
0.340657 -0.061711 0.055753 -0.898969 0.249965 0.359683 12 159 173
0.119783 0.247673 0.800446 -0.394821 -0.781396 -0.483256 77 27 65
0.237030 -0.232074 0.123224 -0.187315 0.982283 -0.005742 103 252 126
-0.758434 -0.663233 -1.886460 -0.411151 -0.885950 0.214587 75 14 154
-0.735010 -0.751183 -1.818007 -0.468037 -0.826293 0.313339 67 22 167
-0.632920 -1.307253 -1.785373 -0.979472 0.199921 -0.025818 2 152 124
-0.796556 -1.156584 -1.891652 -0.819524 -0.208012 0.533959 23 100 195
-0.821163 -0.971810 -0.922595 -0.128347 -0.288237 -0.948919 111 90 6
-0.499003 -1.117828 -1.573964 -0.961789 -0.136314 -0.237447 4 110 97
0.187023 0.218842 0.611965 0.489514 -0.701552 0.517880 189 38 193
-0.662553 -1.021917 -1.851307 -0.903443 -0.361971 0.229713 12 81 156
0.130222 -0.177025 0.247414 0.689891 0.723837 -0.010539 215 219 126
-0.065081 -0.051193 -0.009334 0.702443 0.122381 -0.701139 217 143 38
0.089876 0.160778 -0.174376 -0.529654 -0.618289 0.580676 59 48 201
0.185518 -0.186641 -0.063661 -0.643484 0.487405 0.590224 45 189 202
0.280392 0.207825 0.132131 -0.749934 -0.654772 0.094190 31 44 139
-0.810383 -1.432015 -1.350022 -0.278938 0.449667 -0.848524 91 184 19
-0.748884 -1.396126 -1.439918 -0.656770 0.566773 -0.497415 43 199 64
-1.062095 -1.056533 -1.243951 0.645139 -0.516369 -0.563169 209 61 55
0.207563 -0.014176 0.904988 -0.449420 0.116465 -0.885696 70 142 14
-0.897706 -1.235977 -1.741874 -0.356243 0.097253 0.929319 82 139 245
-0.309167 -0.156001 0.751737 0.840300 0.515114 -0.168977 234 193 105
0.253908 0.224121 0.472230 -0.220521 -0.975372 0.004519 99 3 128
0.365170 0.021653 0.171302 -0.994402 -0.061906 -0.085629 0 119 116
0.251175 -0.225545 0.611255 -0.070060 0.997249 -0.024203 118 254 124
-0.406014 -0.954765 -0.971133 -0.887065 -0.291529 -0.357947 14 90 81
-0.131591 -0.000430 0.966365 -0.064530 -0.107632 -0.992094 119 113 1
-0.893859 -1.006560 -1.907041 -0.094558 -0.751345 0.653100 115 31 210
0.210430 -0.090525 -0.097122 -0.743918 0.137974 0.653873 32 145 210
-0.517670 -0.905341 -1.758818 -0.893309 -0.445328 -0.060674 13 70 119
0.154496 -0.206977 -0.069204 -0.400466 0.841228 0.363267 76 234 173
-0.000275 -0.014065 0.959303 -0.064530 -0.107632 -0.992094 119 113 1
0.142936 0.022666 -0.182702 -0.753920 -0.197572 0.626554 31 102 207
-1.068950 -1.229385 -1.580162 0.510683 -0.140832 -0.848157 192 109 19
-0.538292 -1.189640 -1.059233 -0.719775 0.012309 -0.694099 35 129 39
-0.477140 -0.637115 -1.488073 -0.727687 -0.630930 -0.269071 34 47 93
-1.029053 -1.031317 -1.675961 0.673599 -0.601421 -0.429601 213 50 72
-0.625934 -0.685157 -1.486650 -0.649616 -0.712761 -0.264519 44 36 93
-0.017197 0.222291 0.692570 -0.005296 -0.779099 0.626878 126 28 207
-0.722874 -1.405675 -1.231011 -0.340781 0.376173 -0.861604 84 175 17
-0.561612 -0.757023 -1.600036 -0.759570 -0.631292 -0.156603 30 47 107
0.093008 0.097955 -0.221081 -0.737633 -0.049742 0.673367 33 121 213
-0.773564 -0.572316 -1.513252 -0.261314 -0.879613 -0.397487 94 15 76
-0.816345 -1.206158 -1.009792 -0.067501 0.100579 -0.992637 118 140 0
-0.649367 -1.338112 -1.563614 -0.886537 0.287688 -0.362337 14 164 81
-0.963946 -0.681985 -1.419214 0.294780 -0.844648 -0.446850 165 19 70
-0.622733 -1.391694 -1.258345 -0.705912 0.103161 -0.700747 37 140 38
0.091132 -0.193763 -0.160682 -0.643484 0.487405 0.590224 45 189 202
0.074106 0.167107 -0.182022 -0.529654 -0.618289 0.580676 59 48 201
-0.578449 -0.882871 -1.046247 -0.785792 -0.402379 -0.469704 27 76 67
0.124346 -0.241339 -0.015765 0.081925 0.994257 -0.068855 137 254 118
-0.739955 -1.199177 -1.875780 -0.791512 -0.124074 0.598427 26 111 203
-0.684109 -1.330106 -1.671126 -0.980941 0.192436 -0.026877 2 152 124
-0.559615 -1.031173 -1.266612 -0.807419 -0.182756 -0.560959 24 104 55
-0.602268 -1.322057 -1.716824 -0.982619 0.150411 -0.108795 2 146 113
-0.811558 -1.311344 -1.694790 -0.109295 0.966409 0.232610 113 250 157
-0.060222 0.063992 -0.011524 0.617381 -0.099000 -0.780410 206 114 27
-0.837834 -1.012946 -1.131040 0.046996 -0.329669 -0.942926 133 85 7
-0.578037 -0.665908 -1.566307 -0.745713 -0.606696 -0.275377 32 50 92
-0.907719 -1.324220 -1.804622 -0.252638 0.960604 0.115821 95 249 142
0.234783 0.142573 0.850349 -0.449437 -0.680173 -0.579113 70 40 53
-0.682106 -1.308518 -1.817336 -0.980805 0.192152 -0.033165 2 151 123
-0.546471 -0.929876 -0.874010 -0.570803 -0.345722 -0.744755 54 83 32
-0.056235 -0.093315 0.626699 -0.618219 0.140963 0.773262 48 145 226
0.314922 0.111566 0.581195 -0.799634 -0.596645 -0.067818 25 51 118
-0.507639 -1.225576 -1.609550 -0.970251 0.024351 -0.240872 3 130 96
-0.669768 -0.554583 -1.487733 -0.328837 -0.899525 -0.287612 85 12 90
0.084662 -0.158467 0.613901 0.622283 0.373620 0.687875 206 175 215
-0.329776 0.055025 0.820870 0.866788 -0.456514 -0.200685 238 69 101
-0.209464 0.163124 0.586074 -0.102940 -0.302452 0.947590 114 88 248
-0.251481 -0.144436 0.901445 0.602153 0.619945 -0.503070 204 206 63
-0.951939 -1.019993 -1.138173 -0.022014 -0.281548 -0.959295 124 91 5
0.329573 -0.107068 0.059571 -0.898969 0.249965 0.359683 12 159 173
0.086517 -0.058370 0.462325 0.991169 0.108177 0.076694 253 141 137
0.330123 -0.143772 0.236783 -0.918650 0.391826 -0.050540 10 177 121
-0.254585 0.030987 0.937204 0.436215 -0.315814 -0.842602 183 87 20
0.005587 -0.115062 0.043426 0.835812 0.280142 -0.472164 234 163 67
-0.498605 -0.904927 -1.204551 -0.804360 -0.326637 -0.496299 24 85 64
0.163655 -0.207031 0.553154 0.608828 0.793069 0.019254 205 228 129
-0.608667 -0.920830 -1.904378 -0.868169 -0.474538 0.145246 16 66 146
0.333340 -0.080781 0.617441 -0.991474 -0.092469 -0.091811 1 115 115
-0.502049 -0.778014 -1.559451 -0.793687 -0.585614 -0.164673 26 52 106
0.071317 0.115008 0.617886 0.710112 -0.158064 0.686117 218 107 214
0.131771 -0.182554 0.553207 0.608828 0.793069 0.019254 205 228 129
-0.073768 0.149474 0.920545 -0.052248 -0.510494 -0.858293 120 62 18
-0.591824 -1.223777 -1.850244 -0.981692 -0.107437 0.157285 2 113 147
-0.752125 -1.332770 -1.157786 -0.381180 0.207944 -0.900811 78 154 12
0.263337 -0.226751 0.208224 -0.185203 0.982694 -0.003505 103 252 127
-0.867116 -1.259861 -1.246542 0.057012 0.074551 -0.995586 134 137 0
-0.702352 -0.591104 -1.479720 -0.365763 -0.871332 -0.327107 80 16 85
0.087765 -0.201319 0.667585 0.339022 0.715680 0.610627 170 218 205
-0.519872 -0.744561 -1.497436 -0.791538 -0.511815 -0.333937 26 62 84
-0.312670 -0.155178 0.629688 0.885927 0.272848 0.375084 240 162 175
0.040011 -0.182854 0.904501 0.029913 0.660411 -0.750309 131 211 31
-0.966625 -1.434735 -1.378719 -0.229243 0.399251 -0.887720 98 178 14
0.330065 -0.118191 0.436156 -0.918650 0.391826 -0.050540 10 177 121
-1.024042 -1.103289 -1.757183 0.684499 -0.647884 -0.334227 214 44 84
-0.989614 -0.966557 -1.715217 0.453791 -0.891104 -0.002923 185 13 127
-0.492761 -1.046131 -1.649021 -0.946832 -0.273993 -0.168631 6 92 105
-0.830998 -0.664696 -1.347425 -0.013695 -0.823814 -0.566694 125 22 55
-0.910038 -0.928713 -1.429404 0.393449 -0.694123 -0.602820 177 38 50
0.008753 -0.016517 0.624040 0.055334 0.066772 0.996233 134 136 254
0.208682 0.232550 0.416656 -0.168289 -0.985668 0.011713 106 1 128
-0.812615 -0.888644 -1.917765 -0.534252 -0.649579 0.540946 59 44 196
0.358678 -0.044711 0.307483 -0.991474 -0.092469 -0.091811 1 115 115
0.098908 0.074980 0.525030 0.988485 -0.151308 0.001603 253 108 127
-0.835126 -1.001356 -1.011910 -0.081059 -0.319674 -0.944054 117 86 7
-0.225739 -0.125763 -0.175917 0.585574 0.524596 -0.617983 202 194 48
-0.777285 -0.640329 -1.375063 -0.341767 -0.790730 -0.507880 83 26 62
-0.158161 0.019398 0.555279 -0.405651 -0.054655 0.912392 75 120 243
-0.246531 0.205202 0.754688 0.488245 -0.856088 -0.169499 189 18 105
-0.581532 -1.341785 -1.429906 -0.892534 0.138641 -0.429141 13 145 72
0.245340 0.223594 0.097158 -0.462409 -0.868672 0.177724 68 16 150
-0.700254 -0.709291 -0.959051 -0.278242 -0.535995 -0.797051 92 59 25
-0.485530 -0.919485 -1.249618 -0.765673 -0.374176 -0.523199 29 79 60
0.086569 -0.149621 0.607371 0.622283 0.373620 0.687875 206 175 215
-0.591212 -0.653378 -1.542697 -0.617242 -0.773567 -0.143545 48 28 109
-0.626422 -1.360562 -1.684475 -0.936129 0.175567 -0.304694 8 149 88
-0.894508 -0.991633 -1.915321 -0.004508 -0.826937 0.562276 126 22 199
0.323977 -0.113769 0.581110 -0.918650 0.391826 -0.050540 10 177 121
-0.178634 -0.253261 0.676080 -0.077398 0.962643 0.259478 117 250 160
-1.092629 -0.914562 -1.316111 0.279527 -0.612577 -0.739333 163 49 33
-0.727533 -0.681154 -1.135986 -0.086796 -0.700831 -0.708027 116 38 37
0.346547 -0.072975 0.435334 -0.945515 0.322043 -0.047860 6 168 121
0.108899 -0.148559 0.241378 0.923682 0.126696 -0.361607 245 143 81
0.337205 0.121531 0.156122 -0.948094 -0.313449 -0.053545 6 87 120
-1.045382 -1.336561 -1.456506 0.458409 0.175790 -0.871183 185 149 16
0.046914 -0.034959 0.115368 0.939811 0.107828 -0.324235 247 141 86
-0.324652 0.055374 0.650225 0.992479 -0.069882 0.100506 254 118 140
-0.942688 -0.627930 -1.702727 -0.019314 -0.966154 -0.257243 125 4 94
-0.905146 -1.316300 -1.523864 -0.188139 0.823218 -0.535645 103 232 59
-0.812669 -0.984375 -0.976477 -0.064033 -0.321416 -0.944770 119 86 7
-0.170391 0.209892 -0.195515 0.361073 -0.876172 -0.319293 173 15 86
0.207646 0.210610 0.003760 -0.414618 -0.819024 0.396601 74 23 178
0.202428 0.240980 0.702389 -0.407091 -0.913005 0.026455 75 11 130
-0.921457 -0.919036 -1.934452 -0.059232 -0.793385 0.605832 119 26 204
-0.762121 -0.582999 -1.517316 -0.390571 -0.840427 -0.375682 77 20 79
-0.863546 -1.289605 -1.788051 -0.295778 -0.077284 0.952125 89 117 248
0.057552 0.232049 0.705469 -0.115848 -0.665127 0.737689 112 42 221
-0.679856 -0.607341 -1.101279 -0.384186 -0.759596 -0.524800 78 30 60
0.094599 -0.116885 0.215950 0.923682 0.126696 -0.361607 245 143 81
0.171918 -0.009551 -0.156643 -0.750684 0.114395 0.650682 31 142 210
0.312674 0.112816 0.596710 -0.799634 -0.596645 -0.067818 25 51 118
-0.150533 0.028303 -0.080023 0.625312 -0.145399 -0.766710 207 108 29
0.341505 0.079400 0.326608 -0.948094 -0.313449 -0.053545 6 87 120
-0.498058 -0.728590 -1.291628 -0.764167 -0.574567 -0.293125 30 54 90
0.244215 0.198507 0.016997 -0.414618 -0.819024 0.396601 74 23 178
-0.986208 -1.275429 -1.435068 0.597305 0.079713 -0.798043 203 137 25
-0.097303 0.231315 -0.172890 0.513532 -0.735568 -0.441843 192 33 71
-0.089438 0.106477 0.596264 -0.413265 -0.328971 0.849112 74 85 235
-0.760927 -0.543798 -1.710119 -0.133556 -0.986202 -0.097818 110 1 115
-0.091966 -0.195495 0.659180 -0.337588 0.679872 0.651006 84 214 210
0.097360 0.170503 -0.157196 -0.529654 -0.618289 0.580676 59 48 201
-0.525827 -0.875101 -1.657502 -0.891831 -0.434130 -0.127158 13 72 111
0.038967 0.219682 -0.002328 0.467661 -0.682303 -0.561921 187 40 55
-0.782313 -0.535519 -1.494195 -0.292373 -0.922427 -0.252280 90 9 95
-0.934014 -1.112924 -1.718537 0.472164 -0.879108 0.065043 187 15 135
-0.866931 -1.135415 -1.915593 -0.627490 -0.406382 0.664161 47 75 212
-0.078610 0.208208 0.885905 -0.052248 -0.510494 -0.858293 120 62 18
0.243508 0.108660 -0.045039 -0.663139 -0.475061 0.578414 42 66 201
0.285775 -0.008529 0.841651 -0.895583 -0.210142 -0.392137 13 100 77
0.236386 0.226481 0.304058 -0.168289 -0.985668 0.011713 106 1 128
0.116459 0.121043 0.266846 0.934061 -0.272740 -0.230527 246 92 98
-0.468240 -0.875565 -1.156847 -0.824645 -0.399351 -0.400599 22 76 76
-0.974434 -0.820193 -1.437826 0.497825 -0.854067 -0.150795 190 18 108
-0.776238 -0.498599 -1.693315 -0.371504 -0.893172 -0.253433 80 13 95
-0.890731 -0.654150 -1.446616 0.122843 -0.897070 -0.424469 143 13 73
0.242583 -0.125354 0.871724 -0.890432 0.203654 -0.407008 13 153 75
-1.020298 -1.201268 -1.837493 0.763590 -0.330431 -0.554749 224 85 56
-1.099803 -0.880277 -1.510528 0.485052 -0.686800 -0.541323 189 39 58
-0.556494 -1.122327 -1.795574 -0.977129 -0.206036 0.052614 2 101 134
-0.178307 -0.238338 0.824555 0.365192 0.848638 -0.382687 174 235 78
-0.905119 -0.656852 -1.317511 -0.034258 -0.803983 -0.593665 123 24 51
0.089012 0.008567 0.358502 0.988485 -0.151308 0.001603 253 108 127
-0.745144 -0.681324 -1.809396 -0.535816 -0.842893 -0.049313 59 20 121
-0.961436 -1.149158 -1.910081 -0.082504 -0.562118 0.822931 116 55 232
-0.803319 -1.402984 -1.507357 -0.703671 0.523812 -0.480071 37 194 66
-0.787377 -1.198741 -1.909787 -0.673319 -0.168044 0.720002 41 106 219
-0.575408 -0.630181 -1.288699 -0.635362 -0.664252 -0.393808 46 42 77
0.025261 -0.018572 0.091482 0.758121 0.068449 -0.648512 224 136 44
-0.076823 -0.107010 0.612735 -0.618219 0.140963 0.773262 48 145 226
-1.003649 -1.041826 -1.626696 0.670644 -0.705572 -0.228920 213 37 98
0.110752 -0.163063 0.414988 0.608828 0.793069 0.019254 205 228 129
-0.235969 0.209009 0.628831 0.197345 -0.822808 0.532956 152 22 195
-0.946698 -0.806515 -1.879003 0.275342 -0.953193 0.124936 162 5 143
-1.061992 -1.055198 -1.322918 0.263230 -0.389343 -0.882679 161 77 14
-0.154790 -0.029808 0.969181 -0.058661 0.094302 -0.993814 120 139 0
-1.009640 -0.884517 -1.481876 0.463583 -0.752195 -0.468289 186 31 67
-0.307872 -0.134200 0.603096 0.885927 0.272848 0.375084 240 162 175
-0.512338 -1.120987 -1.690750 -0.963629 -0.176654 -0.200533 4 104 101
0.286846 0.190485 0.529978 -0.971883 -0.234678 0.019240 3 97 129
-0.452887 -0.966885 -1.461577 -0.860987 -0.343895 -0.374750 17 83 79
-0.664037 -1.342564 -1.608257 -0.955507 0.249769 -0.156911 5 159 107
0.146860 0.180037 0.519224 0.663341 -0.748013 -0.021333 212 32 124
0.228225 0.221763 0.759409 -0.360434 -0.805845 -0.469788 81 24 67
-0.829705 -1.432096 -1.235091 -0.257124 0.459481 -0.850156 94 186 19
0.165116 0.207805 0.313380 0.752605 -0.655931 -0.057802 223 43 120
0.086346 -0.240935 -0.058294 -0.335424 0.883328 0.327450 84 240 169
-0.742560 -1.342673 -1.831665 -0.948887 0.315607 -0.002552 6 167 127
-0.781323 -0.571390 -1.826672 -0.419961 -0.906773 0.037369 73 11 132
-0.639525 -1.028159 -1.930565 -0.914486 -0.306007 0.264717 10 88 161
-0.115613 -0.003817 0.965693 -0.064530 -0.107632 -0.992094 119 113 1
-0.735229 -1.190091 -1.792760 -0.747528 -0.204428 0.631990 32 101 208
0.065572 0.112904 0.623348 0.710112 -0.158064 0.686117 218 107 214
-0.139911 0.268618 0.741331 -0.001806 -0.996880 -0.078917 127 0 117
-0.565264 -0.768063 -1.432059 -0.744769 -0.556435 -0.368375 32 56 80
0.165223 0.225518 0.000314 -0.023449 -0.952303 0.304251 124 6 166
-0.605678 -0.645135 -1.451209 -0.600641 -0.749869 -0.277359 50 31 92
-0.729506 -0.721635 -1.871866 -0.698737 -0.687246 0.198646 38 39 152
-0.282581 -0.072986 0.551145 0.737701 -0.028869 0.674510 221 123 213
0.098008 -0.069109 0.328972 0.991169 0.108177 0.076694 253 141 137
0.296079 -0.193533 0.169950 -0.818202 0.574926 -0.002202 23 200 127
0.137284 -0.249849 0.732742 -0.023492 0.916900 0.398424 124 244 178
-0.756474 -1.412266 -1.741274 -0.905629 0.403460 -0.130603 12 178 110
-0.949197 -1.056554 -1.704882 0.626744 -0.778640 -0.030202 207 28 123
0.302055 -0.175288 0.502632 -0.918650 0.391826 -0.050540 10 177 121
-0.546913 -0.592728 -1.509797 -0.584269 -0.766058 -0.267928 53 29 93
0.321427 0.101159 0.554734 -0.948094 -0.313449 -0.053545 6 87 120
-0.009327 0.198919 0.665095 -0.115848 -0.665127 0.737689 112 42 221
0.358351 -0.053222 0.319591 -0.991474 -0.092469 -0.091811 1 115 115
0.100114 0.066298 0.341351 0.961963 -0.268644 0.049582 250 93 133
0.339137 0.000045 0.489243 -0.994402 -0.061906 -0.085629 0 119 116
-1.075916 -0.752142 -1.600159 0.352659 -0.801981 -0.482139 172 25 66
-0.459583 -0.992763 -1.709197 -0.929406 -0.362988 -0.066659 9 81 119
-0.764393 -1.349912 -1.424055 -0.406306 0.394592 -0.824143 75 177 22
-0.738199 -1.078215 -1.949374 -0.657954 -0.357455 0.662814 43 81 212
0.088334 0.097001 0.183427 0.840532 -0.240856 -0.485277 234 96 65
-0.076835 0.027187 -0.019997 0.617381 -0.099000 -0.780410 206 114 27
-0.070713 -0.086364 0.613856 -0.618219 0.140963 0.773262 48 145 226
-0.136350 -0.219057 -0.232584 0.291409 0.950350 -0.109154 164 248 113
-0.683424 -1.115515 -1.931534 -0.792805 -0.320086 0.518657 26 86 193
-0.749220 -1.347295 -1.766093 -0.908746 0.301954 0.288106 11 165 164
-0.263039 0.189978 0.609472 0.197345 -0.822808 0.532956 152 22 195
-0.628536 -1.211837 -1.807672 -0.978898 -0.136093 0.152437 2 110 146
0.197501 -0.236535 0.313801 -0.070060 0.997249 -0.024203 118 254 124
0.003966 -0.001045 0.957614 -0.064530 -0.107632 -0.992094 119 113 1
-0.500271 -0.897094 -1.329702 -0.835054 -0.385495 -0.392529 21 78 77
-0.324938 -0.102271 0.632248 0.987580 0.143380 0.064252 253 145 135
-0.225945 0.175572 0.588148 -0.156726 -0.278499 0.947563 107 91 248
-0.293736 -0.071803 0.563396 0.737701 -0.028869 0.674510 221 123 213
-0.984813 -0.928621 -1.947597 -0.055601 -0.817795 0.572818 120 23 200
-0.505545 -1.280055 -1.457841 -0.955290 -0.063572 -0.288757 5 119 90
-0.903044 -1.163590 -2.000969 -0.653962 -0.279348 0.703063 44 91 217
0.176146 0.236176 0.660013 0.227430 -0.954376 0.193498 156 5 152
-0.615863 -1.106536 -0.997371 -0.654778 -0.198588 -0.729266 44 102 34
-0.235511 0.057187 -0.160792 0.753958 -0.266216 -0.600564 223 93 50
0.167792 -0.210673 0.395735 0.689891 0.723837 -0.010539 215 219 126
-0.841660 -1.269593 -1.196513 -0.147619 0.042828 -0.988117 108 132 1
-0.590200 -1.347617 -1.349978 -0.885764 0.142877 -0.441597 14 145 71
-0.605387 -1.315460 -1.455778 -0.866033 0.224409 -0.446796 17 156 70
-1.017544 -1.067896 -1.238597 0.413216 -0.342846 -0.843629 180 83 19
-0.071752 -0.100406 -0.025463 0.646923 0.236655 -0.724903 209 157 35
0.130598 0.014519 0.942472 -0.385378 -0.037918 -0.921980 78 122 9
-0.755954 -1.426947 -1.739214 -0.925781 0.366368 -0.093295 9 174 115
-0.525667 -1.026212 -1.222589 -0.814621 -0.291429 -0.501459 23 90 63
-0.927911 -0.681549 -1.647910 0.108431 -0.913193 -0.392838 141 11 77
0.195239 0.001345 -0.126489 -0.753920 -0.197572 0.626554 31 102 207
-0.107765 -0.222568 -0.186836 0.291409 0.950350 -0.109154 164 248 113
-0.750933 -0.589107 -1.711181 -0.527898 -0.844411 -0.091071 60 19 115
-0.030356 -0.233104 -0.121223 0.186089 0.975204 -0.119784 151 251 112
-0.998006 -1.047282 -1.130663 0.150491 -0.366062 -0.918342 146 80 10
-1.020097 -1.033451 -1.724139 0.560090 -0.811588 -0.166204 198 24 106
-0.334552 0.055462 0.756182 0.884708 -0.464321 -0.041201 240 68 122
-1.097403 -1.137313 -1.608545 0.625049 -0.433991 -0.648819 207 72 44
-0.216875 -0.186354 0.891211 0.602153 0.619945 -0.503070 204 206 63
-0.732720 -1.325677 -1.874109 -0.985377 0.167728 -0.029998 1 148 123
0.321828 -0.120243 0.569985 -0.918650 0.391826 -0.050540 10 177 121
-0.819276 -0.675336 -1.742718 -0.029257 -0.998887 -0.036992 123 0 122
