ply
format ascii 1.0
element vertex 978
property float x
property float y
property float z
element face 1941
property list uchar int vertex_indices
end_header
-0.538864 -0.150000 0.000000
-0.547040 -0.150000 0.075000
-0.545157 -0.150000 0.150000
-0.545923 -0.150000 0.225000
-0.549794 -0.150000 0.300000
-0.544485 -0.150000 0.375000
-0.549410 -0.075000 0.000000
-0.561052 -0.075000 0.075000
-0.562470 -0.075000 0.150000
-0.567080 -0.075000 0.225000
-0.568613 -0.075000 0.300000
-0.563125 -0.075000 0.375000
-0.540274 -0.075000 0.450000
-0.539545 0.000000 0.000000
-0.555108 0.000000 0.075000
-0.558121 0.000000 0.150000
-0.566090 0.000000 0.225000
-0.568195 0.000000 0.300000
-0.563359 0.000000 0.375000
-0.544915 0.000000 0.450000
-0.529591 0.075000 0.075000
-0.538238 0.075000 0.150000
-0.545277 0.075000 0.225000
-0.548018 0.075000 0.300000
-0.539745 0.075000 0.375000
-0.525000 -0.174870 0.000000
-0.482875 -0.225000 0.000000
-0.525000 -0.189961 0.075000
-0.499266 -0.225000 0.075000
-0.525000 -0.184923 0.150000
-0.496797 -0.225000 0.150000
-0.525000 -0.184725 0.225000
-0.495597 -0.225000 0.225000
-0.525000 -0.190751 0.300000
-0.498358 -0.225000 0.300000
-0.525000 -0.181491 0.375000
-0.487696 -0.225000 0.375000
-0.525000 -0.150000 -0.021473
-0.471971 -0.150000 -0.075000
-0.525000 -0.150000 0.424603
-0.525000 -0.119716 0.450000
-0.510483 -0.150000 0.450000
-0.525000 -0.075000 -0.041495
-0.494845 -0.075000 -0.075000
-0.525000 -0.075000 0.470747
-0.469779 -0.075000 0.525000
-0.525000 0.000000 -0.029677
-0.488962 0.000000 -0.075000
-0.525000 0.035453 0.000000
-0.525000 0.000000 0.475667
-0.525000 0.070318 0.450000
-0.469112 0.000000 0.525000
-0.525000 0.075000 0.058361
-0.507712 0.075000 0.000000
-0.525000 0.081608 0.075000
-0.525000 0.100804 0.150000
-0.525000 0.114618 0.225000
-0.525000 0.118340 0.300000
-0.525000 0.075000 0.443678
-0.525000 0.103565 0.375000
-0.523139 0.075000 0.450000
-0.455778 0.150000 0.000000
-0.474115 0.150000 0.075000
-0.493471 0.150000 0.150000
-0.502259 0.150000 0.225000
-0.503622 0.150000 0.300000
-0.492240 0.150000 0.375000
-0.460589 0.150000 0.450000
-0.450000 -0.248819 0.000000
-0.450000 -0.269909 0.075000
-0.391552 -0.300000 0.075000
-0.450000 -0.271652 0.150000
-0.408958 -0.300000 0.150000
-0.450000 -0.270309 0.225000
-0.409686 -0.300000 0.225000
-0.450000 -0.271001 0.300000
-0.409170 -0.300000 0.300000
-0.450000 -0.258663 0.375000
-0.383995 -0.300000 0.375000
-0.450000 -0.225000 -0.032967
-0.450000 -0.175492 -0.075000
-0.450000 -0.225000 0.435960
-0.450000 -0.215175 0.450000
-0.436762 -0.225000 0.450000
-0.450000 -0.150000 -0.088882
-0.450000 -0.150000 0.510907
-0.450000 -0.119193 0.525000
-0.431234 -0.150000 0.525000
-0.450000 -0.075000 -0.104195
-0.450000 -0.075000 0.541242
-0.450000 0.000000 -0.100080
-0.450000 0.060844 -0.075000
-0.450000 0.000000 0.540175
-0.450000 0.058839 0.525000
-0.450000 0.075000 -0.067986
-0.439874 0.075000 -0.075000
-0.450000 0.075000 0.520159
-0.442477 0.075000 0.525000
-0.450000 0.150000 -0.007933
-0.450000 0.156239 0.000000
-0.450000 0.180481 0.075000
-0.450000 0.197017 0.150000
-0.450000 0.203869 0.225000
-0.450000 0.202165 0.300000
-0.450000 0.189822 0.375000
-0.450000 0.150000 0.460712
-0.450000 0.158487 0.450000
-0.402706 0.225000 0.075000
-0.415311 0.225000 0.150000
-0.420038 0.225000 0.225000
-0.415615 0.225000 0.300000
-0.390644 0.225000 0.375000
-0.375000 -0.307439 0.075000
-0.375000 -0.318856 0.150000
-0.375000 -0.320441 0.225000
-0.375000 -0.319326 0.300000
-0.375000 -0.304729 0.375000
-0.375000 -0.300000 0.057301
-0.375000 -0.274268 0.000000
-0.375000 -0.300000 0.385862
-0.375000 -0.264071 0.450000
-0.375000 -0.225000 -0.059332
-0.375000 -0.203752 -0.075000
-0.340786 -0.225000 -0.075000
-0.375000 -0.225000 0.502482
-0.375000 -0.202258 0.525000
-0.347844 -0.225000 0.525000
-0.375000 -0.150000 -0.107237
-0.375000 -0.150000 0.561924
-0.318757 -0.150000 0.600000
-0.375000 -0.075000 -0.130172
-0.326657 -0.075000 -0.150000
-0.375000 -0.075000 0.585054
-0.348831 -0.075000 0.600000
-0.375000 0.000000 -0.133782
-0.329973 0.000000 -0.150000
-0.375000 0.000000 0.583436
-0.345609 0.000000 0.600000
-0.375000 0.075000 -0.118572
-0.375000 0.147723 -0.075000
-0.375000 0.075000 0.563512
-0.375000 0.133196 0.525000
-0.316650 0.075000 0.600000
-0.375000 0.150000 -0.073484
-0.371533 0.150000 -0.075000
-0.375000 0.206896 0.000000
-0.375000 0.150000 0.510741
-0.375000 0.196710 0.450000
-0.353457 0.150000 0.525000
-0.375000 0.225000 0.035320
-0.331530 0.225000 0.000000
-0.375000 0.243583 0.075000
-0.375000 0.250972 0.150000
-0.375000 0.251742 0.225000
-0.375000 0.247937 0.300000
-0.375000 0.225000 0.391978
-0.375000 0.232376 0.375000
-0.300000 -0.324819 0.075000
-0.300000 -0.345688 0.150000
-0.300000 -0.348040 0.225000
-0.300000 -0.344220 0.300000
-0.300000 -0.324931 0.375000
-0.300000 -0.243213 -0.075000
-0.300000 -0.300000 0.014948
-0.300000 -0.293258 0.000000
-0.271129 -0.300000 0.000000
-0.300000 -0.300000 0.432902
-0.300000 -0.291840 0.450000
-0.263280 -0.300000 0.450000
-0.300000 -0.251401 0.525000
-0.300000 -0.225000 -0.092675
-0.300000 -0.225000 0.557099
-0.300000 -0.168846 0.600000
-0.239844 -0.150000 -0.975000
-0.233960 -0.150000 -0.900000
-0.300000 -0.150000 -0.142640
-0.300000 -0.122740 -0.150000
-0.276071 -0.150000 -0.150000
-0.300000 -0.150000 0.610845
-0.233057 -0.075000 -1.050000
-0.257790 -0.075000 -0.975000
-0.252034 -0.075000 -0.900000
-0.232999 -0.075000 -0.825000
-0.300000 -0.075000 -0.161114
-0.300000 -0.075000 0.628320
-0.239282 0.000000 -1.050000
-0.264174 0.000000 -0.975000
-0.259147 0.000000 -0.900000
-0.236974 0.000000 -0.825000
-0.300000 0.000000 -0.160279
-0.300000 0.045722 -0.150000
-0.300000 0.000000 0.627956
-0.245616 0.075000 -0.975000
-0.239076 0.075000 -0.900000
-0.300000 0.075000 -0.142294
-0.276360 0.075000 -0.150000
-0.300000 0.075000 0.610207
-0.300000 0.090730 0.600000
-0.300000 0.150000 -0.103354
-0.300000 0.177469 -0.075000
-0.300000 0.222474 0.450000
-0.300000 0.150000 0.555969
-0.300000 0.178697 0.525000
-0.300000 0.225000 -0.017890
-0.300000 0.237525 0.000000
-0.300000 0.264310 0.075000
-0.300000 0.270886 0.150000
-0.300000 0.267987 0.225000
-0.300000 0.267376 0.300000
-0.300000 0.225000 0.444362
-0.300000 0.251870 0.375000
-0.290433 0.225000 0.450000
-0.225000 -0.309888 0.000000
-0.225000 -0.335937 0.075000
-0.225000 -0.339343 0.150000
-0.225000 -0.333631 0.225000
-0.225000 -0.333667 0.300000
-0.225000 -0.333358 0.375000
-0.225000 -0.307720 0.450000
-0.225000 -0.300000 -0.017694
-0.225000 -0.264126 -0.075000
-0.225000 -0.300000 0.468059
-0.225000 -0.273351 0.525000
-0.225000 -0.176309 -0.975000
-0.173256 -0.225000 -0.975000
-0.225000 -0.167544 -0.900000
-0.183202 -0.225000 -0.900000
-0.160271 -0.225000 -0.825000
-0.225000 -0.225000 -0.115907
-0.225000 -0.173470 -0.150000
-0.225000 -0.225000 0.583053
-0.225000 -0.202785 0.600000
-0.225000 -0.150000 -1.002373
-0.225000 -0.090301 -1.050000
-0.225000 -0.150000 -0.870852
-0.225000 -0.102015 -0.825000
-0.210111 -0.150000 -0.825000
-0.187718 -0.150000 -0.750000
-0.165238 -0.150000 -0.675000
-0.225000 -0.150000 -0.163756
-0.225000 -0.150000 0.629473
-0.225000 -0.075000 -1.057121
-0.225000 -0.075000 -0.803950
-0.206218 -0.075000 -0.750000
-0.179174 -0.075000 -0.675000
-0.151658 -0.075000 -0.600000
-0.225000 -0.075000 -0.184396
-0.225000 -0.075000 0.645195
-0.225000 0.000000 -1.062566
-0.225000 0.031921 -1.050000
-0.225000 0.000000 -0.795466
-0.225000 0.041820 -0.825000
-0.205468 0.000000 -0.750000
-0.179651 0.000000 -0.675000
-0.225000 0.000000 -0.184238
-0.225000 0.000000 0.644479
-0.225000 0.075000 -1.016783
-0.225000 0.108643 -0.975000
-0.225000 0.075000 -0.856067
-0.225000 0.103176 -0.900000
-0.214318 0.075000 -0.825000
-0.188316 0.075000 -0.750000
-0.158697 0.075000 -0.675000
-0.225000 0.075000 -0.163580
-0.225000 0.105614 -0.150000
-0.225000 0.075000 0.625509
-0.225000 0.115310 0.600000
-0.177741 0.150000 -0.975000
-0.193132 0.150000 -0.900000
-0.164312 0.150000 -0.825000
-0.225000 0.150000 -0.123320
-0.225000 0.191214 -0.075000
-0.225000 0.150000 0.575177
-0.225000 0.198799 0.525000
-0.225000 0.225000 -0.029487
-0.225000 0.244794 0.000000
-0.225000 0.268773 0.075000
-0.225000 0.265632 0.150000
-0.225000 0.257963 0.225000
-0.225000 0.262500 0.300000
-0.225000 0.259957 0.375000
-0.225000 0.225000 0.479141
-0.225000 0.240194 0.450000
-0.150000 -0.316975 0.000000
-0.150000 -0.327686 0.075000
-0.150000 -0.312870 0.150000
-0.150000 -0.300734 0.225000
-0.150000 -0.306517 0.300000
-0.150000 -0.320036 0.375000
-0.150000 -0.312786 0.450000
-0.150000 -0.238735 -0.975000
-0.150000 -0.249594 -0.900000
-0.150000 -0.234590 -0.825000
-0.150000 -0.300000 -0.033683
-0.150000 -0.276220 -0.075000
-0.116913 -0.300000 0.150000
-0.148668 -0.300000 0.225000
-0.137868 -0.300000 0.300000
-0.100005 -0.300000 0.375000
-0.150000 -0.300000 0.482081
-0.150000 -0.278895 0.525000
-0.150000 -0.225000 -0.989969
-0.150000 -0.225000 -0.788595
-0.150000 -0.211255 -0.750000
-0.138869 -0.225000 -0.750000
-0.150000 -0.176136 -0.675000
-0.114525 -0.225000 -0.675000
-0.088947 -0.225000 -0.600000
-0.150000 -0.225000 -0.133498
-0.150000 -0.199637 -0.150000
-0.100423 -0.225000 -0.150000
-0.150000 -0.225000 0.586253
-0.150000 -0.204927 0.600000
-0.150000 -0.150000 -1.035226
-0.150000 -0.109655 -1.050000
-0.150000 -0.150000 -0.638005
-0.150000 -0.082180 -0.600000
-0.133078 -0.150000 -0.600000
-0.107361 -0.150000 -0.525000
-0.088242 -0.150000 -0.450000
-0.150000 -0.150000 -0.176354
-0.150000 -0.150000 0.628349
-0.150000 -0.075000 -1.063303
-0.150000 -0.075000 -0.594889
-0.150000 -0.038211 -0.600000
-0.129251 -0.075000 -0.525000
-0.104994 -0.075000 -0.450000
-0.090673 -0.075000 -0.375000
-0.150000 -0.075000 -0.194051
-0.077179 -0.075000 -0.225000
-0.150000 -0.075000 0.645763
-0.150000 0.000000 -1.068059
-0.150000 0.066141 -1.050000
-0.150000 0.000000 -0.603806
-0.148364 0.000000 -0.600000
-0.124406 0.000000 -0.525000
-0.106740 0.000000 -0.450000
-0.092902 0.000000 -0.375000
-0.150000 0.000000 -0.195603
-0.079401 0.000000 -0.225000
-0.150000 0.000000 0.642920
-0.150000 0.075000 -1.047209
-0.150000 0.134261 -0.750000
-0.150000 0.075000 -0.653620
-0.150000 0.091803 -0.675000
-0.129136 0.075000 -0.600000
-0.102840 0.075000 -0.525000
-0.084255 0.075000 -0.450000
-0.150000 0.075000 -0.176891
-0.150000 0.123919 -0.150000
-0.150000 0.075000 0.623768
-0.150000 0.112996 0.600000
-0.150000 0.150000 -0.994762
-0.150000 0.167529 -0.975000
-0.150000 0.186262 -0.900000
-0.150000 0.150000 -0.783699
-0.150000 0.163895 -0.825000
-0.138142 0.150000 -0.750000
-0.115465 0.150000 -0.675000
-0.087478 0.150000 -0.600000
-0.150000 0.150000 -0.133782
-0.112705 0.150000 -0.150000
-0.150000 0.208773 -0.075000
-0.150000 0.150000 0.576477
-0.150000 0.204248 0.525000
-0.150000 0.225000 -0.050820
-0.094496 0.225000 -0.075000
-0.150000 0.254293 0.000000
-0.150000 0.262872 0.075000
-0.150000 0.242696 0.150000
-0.115608 0.225000 0.150000
-0.150000 0.225166 0.225000
-0.149757 0.225000 0.225000
-0.150000 0.234112 0.300000
-0.135548 0.225000 0.300000
-0.150000 0.247984 0.375000
-0.094766 0.225000 0.375000
-0.150000 0.225000 0.486923
-0.150000 0.242382 0.450000
-0.075000 -0.322598 0.000000
-0.075000 -0.318214 0.075000
-0.075000 -0.301100 0.450000
-0.075000 -0.252266 -0.975000
-0.075000 -0.290474 -0.900000
-0.001148 -0.300000 -0.900000
-0.075000 -0.285830 -0.825000
-0.024937 -0.300000 -0.825000
-0.075000 -0.278141 -0.750000
-0.025152 -0.300000 -0.750000
-0.075000 -0.262089 -0.675000
-0.014576 -0.300000 -0.675000
-0.075000 -0.240140 -0.600000
-0.075000 -0.234238 -0.150000
-0.075000 -0.300000 -0.054294
-0.075000 -0.289598 -0.075000
-0.041394 -0.300000 -0.075000
-0.075000 -0.300000 0.114878
-0.075000 -0.280005 0.150000
-0.075000 -0.249418 0.225000
-0.075000 -0.256842 0.300000
-0.075000 -0.300000 0.443005
-0.075000 -0.286411 0.375000
-0.075000 -0.300000 0.453737
-0.069350 -0.300000 0.450000
-0.075000 -0.276362 0.525000
-0.075000 -0.225000 -1.002089
-0.075000 -0.225000 -0.561850
-0.075000 -0.205620 -0.525000
-0.060591 -0.225000 -0.525000
-0.075000 -0.174840 -0.450000
-0.040654 -0.225000 -0.450000
-0.028933 -0.225000 -0.375000
-0.018183 -0.225000 -0.300000
-0.075000 -0.225000 -0.161616
-0.023671 -0.225000 -0.225000
-0.040542 -0.225000 0.225000
-0.029879 -0.225000 0.300000
-0.075000 -0.225000 0.584160
-0.075000 -0.201735 0.600000
-0.075000 -0.150000 -1.034558
-0.075000 -0.104557 -1.050000
-0.075000 -0.150000 -0.390141
-0.075000 -0.136904 -0.375000
-0.071232 -0.150000 -0.375000
-0.052042 -0.150000 -0.300000
-0.075000 -0.150000 -0.210182
-0.075000 -0.081250 -0.225000
-0.060763 -0.150000 -0.225000
-0.075000 -0.150000 0.627361
-0.075000 -0.075000 -1.061175
-0.075000 -0.075000 -0.314138
-0.075000 -0.075000 -0.241018
-0.071216 -0.075000 -0.300000
-0.075000 -0.075000 0.643523
-0.075000 0.000000 -1.064356
-0.075000 0.064089 -1.050000
-0.075000 0.000000 -0.300441
-0.075000 0.053986 -0.375000
-0.075000 0.000000 -0.295854
-0.074894 0.000000 -0.300000
-0.075000 0.009351 -0.225000
-0.075000 0.000000 0.642604
-0.075000 0.075000 -1.047024
-0.075000 0.135064 -0.525000
-0.075000 0.075000 -0.408843
-0.075000 0.093857 -0.450000
-0.068044 0.075000 -0.375000
-0.055954 0.075000 -0.300000
-0.075000 0.075000 -0.209443
-0.059791 0.075000 -0.225000
-0.006599 0.075000 0.225000
-0.075000 0.075000 0.622920
-0.075000 0.110339 0.600000
-0.075000 0.150000 -1.001436
-0.075000 0.173407 -0.975000
-0.075000 0.207572 -0.900000
-0.075000 0.205834 -0.825000
-0.075000 0.201825 -0.750000
-0.075000 0.190767 -0.675000
-0.075000 0.150000 -0.555160
-0.075000 0.164603 -0.600000
-0.066175 0.150000 -0.525000
-0.043008 0.150000 -0.450000
-0.027498 0.150000 -0.375000
-0.015142 0.150000 -0.300000
-0.075000 0.150000 -0.168555
-0.022410 0.150000 -0.225000
-0.075000 0.167770 -0.150000
-0.075000 0.200271 0.150000
-0.075000 0.167636 0.225000
-0.050896 0.150000 0.225000
-0.075000 0.176324 0.300000
-0.042102 0.150000 0.300000
-0.075000 0.214865 0.375000
-0.075000 0.150000 0.574288
-0.075000 0.202001 0.525000
-0.006322 0.225000 -0.825000
-0.011290 0.225000 -0.750000
-0.012547 0.225000 -0.675000
-0.002531 0.225000 -0.600000
-0.075000 0.225000 -0.082307
-0.075000 0.230523 -0.075000
-0.075000 0.261109 0.000000
-0.075000 0.225000 0.119189
-0.075000 0.253309 0.075000
-0.075000 0.225000 0.412617
-0.075000 0.225000 0.471763
-0.075000 0.233306 0.450000
-0.033281 0.225000 0.450000
0.000000 -0.300135 -0.900000
0.000000 -0.305928 -0.825000
0.000000 -0.308752 -0.750000
0.000000 -0.307222 -0.675000
0.000000 -0.311656 -0.075000
0.000000 -0.335092 0.000000
0.000000 -0.319850 0.075000
0.000000 -0.300000 -0.900268
0.000000 -0.248660 -0.975000
0.000392 -0.300000 -0.900000
0.021390 -0.300000 -0.825000
0.051825 -0.300000 -0.750000
0.000000 -0.300000 -0.633057
0.000000 -0.293299 -0.600000
0.036332 -0.300000 -0.600000
0.000000 -0.276271 -0.525000
0.062506 -0.300000 -0.525000
0.000000 -0.264908 -0.450000
0.066015 -0.300000 -0.450000
0.000000 -0.257290 -0.375000
0.065591 -0.300000 -0.375000
0.000000 -0.247685 -0.300000
0.071785 -0.300000 -0.300000
0.000000 -0.247964 -0.225000
0.000000 -0.300000 -0.104381
0.000000 -0.278560 -0.150000
0.042561 -0.300000 -0.150000
0.000000 -0.300000 0.106867
0.000000 -0.259408 0.150000
0.000000 -0.252404 0.375000
0.000000 -0.286011 0.450000
0.000000 -0.270900 0.525000
0.000000 -0.225000 -0.996870
0.051957 -0.225000 -0.975000
0.000000 -0.225000 0.189052
0.000000 -0.155566 0.225000
0.000000 -0.225000 0.333374
0.000000 -0.151641 0.300000
0.063958 -0.225000 0.300000
0.000000 -0.225000 0.581683
0.000000 -0.199490 0.600000
0.000000 -0.150000 -1.036712
0.000000 -0.116578 -1.050000
0.000000 -0.150000 0.626663
0.000000 -0.075000 -1.067519
0.000000 -0.075000 0.643032
0.000000 0.000000 -1.068343
0.000000 0.068361 -1.050000
0.000000 0.067632 0.225000
0.000000 0.000000 0.641737
0.000000 0.075000 -1.047841
0.000000 0.075000 0.220233
0.000000 0.075000 0.244268
0.006872 0.075000 0.225000
0.000000 0.093785 0.300000
0.000000 0.075000 0.621420
0.000000 0.107699 0.600000
0.000000 0.150000 -0.999325
0.000000 0.172640 -0.975000
0.000000 0.211424 -0.900000
0.000000 0.209410 -0.525000
0.000000 0.191980 -0.450000
0.000000 0.180204 -0.375000
0.000000 0.168126 -0.300000
0.000000 0.175549 -0.225000
0.000000 0.213573 -0.150000
0.000000 0.150000 0.176698
0.000000 0.170738 0.150000
0.065757 0.150000 0.225000
0.000000 0.150000 0.341959
0.059112 0.150000 0.300000
0.000000 0.177768 0.375000
0.000000 0.218073 0.450000
0.000000 0.150000 0.570373
0.000000 0.192654 0.525000
0.000000 0.225000 -0.833340
0.000000 0.226695 -0.825000
0.005723 0.225000 -0.825000
0.000000 0.228568 -0.750000
0.013899 0.225000 -0.750000
0.000000 0.230313 -0.675000
0.028066 0.225000 -0.675000
0.000000 0.225000 -0.592620
0.000000 0.226504 -0.600000
0.021967 0.225000 -0.600000
0.062036 0.225000 -0.225000
0.000000 0.225000 -0.131194
0.022527 0.225000 -0.150000
0.000000 0.256616 -0.075000
0.000000 0.270397 0.000000
0.000000 0.225000 0.097048
0.000000 0.242858 0.075000
0.075000 -0.307829 -0.675000
0.075000 -0.305941 -0.600000
0.075000 -0.303995 -0.525000
0.075000 -0.303746 -0.450000
0.075000 -0.304484 -0.375000
0.075000 -0.301654 -0.300000
0.075000 -0.313554 -0.150000
0.075000 -0.334414 -0.075000
0.075000 -0.344674 0.000000
0.075000 -0.326413 0.075000
0.075000 -0.263156 -0.900000
0.075000 -0.281930 -0.825000
0.075000 -0.300000 -0.725213
0.075000 -0.295514 -0.750000
0.089533 -0.300000 -0.675000
0.086490 -0.300000 -0.600000
0.084275 -0.300000 -0.525000
0.086829 -0.300000 -0.450000
0.104462 -0.300000 -0.375000
0.075000 -0.300000 -0.277024
0.075000 -0.300000 -0.208156
0.075000 -0.295774 -0.225000
0.088849 -0.300000 -0.225000
0.075000 -0.300000 0.121563
0.075000 -0.275704 0.150000
0.131953 -0.300000 0.150000
0.075000 -0.228514 0.300000
0.075000 -0.265015 0.375000
0.075000 -0.283195 0.450000
0.075000 -0.266348 0.525000
0.075000 -0.225000 -0.958176
0.075000 -0.211015 -0.975000
0.114391 -0.225000 -0.900000
0.141828 -0.225000 -0.825000
0.075000 -0.225000 0.219072
0.075000 -0.225000 0.264591
0.075000 -0.217366 0.225000
0.079769 -0.225000 0.225000
0.075000 -0.225000 0.576627
0.075000 -0.193846 0.600000
0.075000 -0.150000 -1.021250
0.075000 -0.089351 -1.050000
0.127780 -0.150000 -0.975000
0.075000 -0.150000 0.624535
0.075000 -0.075000 -1.056279
0.084205 -0.075000 -1.050000
0.075000 -0.075000 0.642481
0.075000 0.000000 -1.060125
0.075000 0.032158 -1.050000
0.090559 0.000000 -1.050000
0.143213 0.000000 -0.975000
0.075000 0.000000 0.643073
0.075000 0.075000 -1.030745
0.121280 0.075000 -0.975000
0.075000 0.075000 0.624536
0.075000 0.115868 0.600000
0.075000 0.150000 -0.980153
0.075000 0.154802 -0.975000
0.080667 0.150000 -0.975000
0.075000 0.186759 -0.900000
0.119527 0.150000 -0.900000
0.075000 0.200944 -0.825000
0.134365 0.150000 -0.825000
0.075000 0.206744 -0.750000
0.138597 0.150000 -0.750000
0.075000 0.215107 -0.675000
0.075000 0.221403 -0.600000
0.075000 0.216039 -0.525000
0.075000 0.215380 -0.450000
0.075000 0.215867 -0.375000
0.075000 0.213662 -0.300000
0.075000 0.191219 0.150000
0.075000 0.155215 0.225000
0.075000 0.158687 0.300000
0.075000 0.191837 0.375000
0.075000 0.214790 0.450000
0.075000 0.150000 0.574277
0.075000 0.193621 0.525000
0.075000 0.225000 -0.253884
0.075000 0.232588 -0.225000
0.075000 0.250139 -0.150000
0.075000 0.268671 -0.075000
0.075000 0.273510 0.000000
0.075000 0.225000 0.104663
0.075000 0.244021 0.075000
0.150000 -0.307720 -0.300000
0.150000 -0.315593 -0.225000
0.150000 -0.329780 -0.150000
0.150000 -0.343641 -0.075000
0.150000 -0.347173 0.000000
0.150000 -0.336805 0.075000
0.150000 -0.305269 0.150000
0.150000 -0.234415 -0.750000
0.150000 -0.242887 -0.675000
0.150000 -0.250864 -0.600000
0.150000 -0.260189 -0.525000
0.150000 -0.274709 -0.450000
0.150000 -0.300000 -0.340846
0.150000 -0.292112 -0.375000
0.175029 -0.300000 -0.300000
0.150000 -0.300000 0.170481
0.150000 -0.281825 0.225000
0.209843 -0.300000 0.225000
0.150000 -0.275926 0.300000
0.150000 -0.282423 0.375000
0.150000 -0.274624 0.450000
0.150000 -0.246975 0.525000
0.150000 -0.165054 -0.900000
0.150000 -0.225000 -0.789539
0.150000 -0.211180 -0.825000
0.157704 -0.225000 -0.750000
0.162667 -0.225000 -0.675000
0.171907 -0.225000 -0.600000
0.179855 -0.225000 -0.525000
0.206269 -0.225000 -0.450000
0.150000 -0.225000 0.553932
0.198257 -0.225000 0.525000
0.150000 -0.172280 0.600000
0.150000 -0.150000 -0.922456
0.150000 -0.075785 -0.975000
0.157374 -0.150000 -0.900000
0.181754 -0.150000 -0.825000
0.198479 -0.150000 -0.750000
0.200767 -0.150000 -0.675000
0.212157 -0.150000 -0.600000
0.217957 -0.150000 -0.525000
0.150000 -0.150000 0.613630
0.189367 -0.150000 0.600000
0.150000 -0.075000 -0.975316
0.150000 -0.072761 -0.975000
0.150168 -0.075000 -0.975000
0.177055 -0.075000 -0.900000
0.197908 -0.075000 -0.825000
0.212699 -0.075000 -0.750000
0.217111 -0.075000 -0.675000
0.150000 -0.075000 0.632273
0.150000 0.000000 -0.961948
0.178360 0.000000 -0.900000
0.193956 0.000000 -0.825000
0.204872 0.000000 -0.750000
0.217310 0.000000 -0.675000
0.150000 0.000000 0.629674
0.217957 0.000000 0.600000
0.150000 0.075000 -0.929649
0.150000 0.105567 -0.900000
0.165057 0.075000 -0.900000
0.150000 0.125683 -0.825000
0.175980 0.075000 -0.825000
0.150000 0.132240 -0.750000
0.182821 0.075000 -0.750000
0.198930 0.075000 -0.675000
0.205258 0.075000 -0.600000
0.223454 0.075000 -0.525000
0.150000 0.075000 0.615223
0.150000 0.107945 0.600000
0.185761 0.075000 0.600000
0.150000 0.150000 -0.696236
0.150000 0.155080 -0.675000
0.154568 0.150000 -0.675000
0.150000 0.166617 -0.600000
0.165870 0.150000 -0.600000
0.150000 0.173029 -0.525000
0.173114 0.150000 -0.525000
0.150000 0.188804 -0.450000
0.206696 0.150000 -0.450000
0.150000 0.205127 -0.375000
0.150000 0.217777 -0.300000
0.150000 0.216815 0.150000
0.150000 0.199572 0.225000
0.150000 0.200945 0.300000
0.150000 0.211590 0.375000
0.150000 0.214942 0.450000
0.150000 0.150000 0.573365
0.150000 0.189594 0.525000
0.150000 0.225000 -0.274169
0.150000 0.239401 -0.225000
0.195739 0.225000 -0.225000
0.150000 0.258623 -0.150000
0.150000 0.268945 -0.075000
0.150000 0.270943 0.000000
0.150000 0.225000 0.133971
0.150000 0.251680 0.075000
0.185332 0.225000 0.150000
0.225000 -0.304820 -0.225000
0.225000 -0.316164 -0.150000
0.225000 -0.319987 -0.075000
0.225000 -0.322559 0.000000
0.225000 -0.320656 0.075000
0.225000 -0.310977 0.150000
0.225000 -0.303454 0.225000
0.225000 -0.241942 -0.375000
0.225000 -0.300000 -0.241767
0.225000 -0.278926 -0.300000
0.234767 -0.300000 -0.225000
0.253413 -0.300000 -0.150000
0.257779 -0.300000 -0.075000
0.264276 -0.300000 0.000000
0.263539 -0.300000 0.075000
0.252538 -0.300000 0.150000
0.225000 -0.300000 0.249483
0.236998 -0.300000 0.225000
0.225000 -0.291838 0.300000
0.225000 -0.281663 0.375000
0.225000 -0.258145 0.450000
0.225000 -0.225000 -0.412521
0.225000 -0.197109 -0.450000
0.241695 -0.225000 -0.375000
0.288607 -0.225000 -0.300000
0.225000 -0.225000 0.504180
0.225000 -0.207522 0.525000
0.225000 -0.093507 -0.600000
0.225000 -0.150000 -0.507367
0.225000 -0.130083 -0.525000
0.249638 -0.150000 -0.450000
0.285434 -0.150000 -0.375000
0.225000 -0.150000 0.581223
0.298416 -0.150000 0.525000
0.225000 -0.091879 0.600000
0.225000 -0.075000 -0.624232
0.229007 -0.075000 -0.600000
0.244148 -0.075000 -0.525000
0.271687 -0.075000 -0.450000
0.225000 -0.075000 0.603893
0.225000 -0.035031 0.600000
0.233189 -0.075000 0.600000
0.225000 0.000000 -0.632247
0.225000 0.017089 -0.600000
0.230794 0.000000 -0.600000
0.225000 0.070855 -0.525000
0.248406 0.000000 -0.525000
0.271088 0.000000 -0.450000
0.225000 0.000000 0.596750
0.225000 0.075000 -0.521379
0.225000 0.128460 -0.450000
0.255251 0.075000 -0.450000
0.288263 0.075000 -0.375000
0.225000 0.075000 0.580414
0.294741 0.075000 0.525000
0.225000 0.150000 -0.408059
0.225000 0.161152 -0.375000
0.237026 0.150000 -0.375000
0.225000 0.187783 -0.300000
0.280063 0.150000 -0.300000
0.225000 0.213620 -0.225000
0.225000 0.214387 0.225000
0.225000 0.208310 0.300000
0.225000 0.205098 0.375000
0.225000 0.191373 0.450000
0.296468 0.150000 0.450000
0.225000 0.150000 0.536272
0.225000 0.160442 0.525000
0.239646 0.150000 0.525000
0.225000 0.225000 -0.194002
0.225000 0.239076 -0.150000
0.246702 0.225000 -0.150000
0.225000 0.249548 -0.075000
0.258149 0.225000 -0.075000
0.225000 0.252500 0.000000
0.267067 0.225000 0.000000
0.225000 0.246892 0.075000
0.261127 0.225000 0.075000
0.225000 0.225000 0.182425
0.225000 0.233315 0.150000
0.246327 0.225000 0.150000
0.300000 -0.248284 -0.225000
0.300000 -0.258947 -0.150000
0.300000 -0.260383 -0.075000
0.300000 -0.270004 0.000000
0.300000 -0.270846 0.075000
0.300000 -0.270241 0.150000
0.300000 -0.272384 0.225000
0.300000 -0.268747 0.300000
0.300000 -0.258867 0.375000
0.300000 -0.237263 0.450000
0.300000 -0.225000 -0.274038
0.300000 -0.209025 -0.300000
0.316930 -0.225000 -0.225000
0.325250 -0.225000 -0.150000
0.329828 -0.225000 -0.075000
0.347058 -0.225000 0.000000
0.351499 -0.225000 0.075000
0.351008 -0.225000 0.150000
0.353455 -0.225000 0.225000
0.351170 -0.225000 0.300000
0.344286 -0.225000 0.375000
0.300000 -0.225000 0.464336
0.318763 -0.225000 0.450000
0.300000 -0.150000 -0.352520
0.300000 -0.113425 -0.375000
0.334537 -0.150000 -0.300000
0.353385 -0.150000 -0.225000
0.360720 -0.150000 -0.150000
0.372049 -0.150000 -0.075000
0.300000 -0.150000 0.523698
0.300000 -0.146243 0.525000
0.300000 -0.075000 -0.399827
0.313908 -0.075000 -0.375000
0.355827 -0.075000 -0.300000
0.300000 -0.075000 0.550560
0.331158 -0.075000 0.525000
0.300000 0.000000 -0.399925
0.300000 0.046996 -0.375000
0.315510 0.000000 -0.375000
0.353366 0.000000 -0.300000
0.300000 0.000000 0.544099
0.300000 0.059096 0.525000
0.319393 0.000000 0.525000
0.300000 0.075000 -0.356608
0.300000 0.127673 -0.300000
0.334312 0.075000 -0.300000
0.354226 0.075000 -0.225000
0.300000 0.075000 0.518381
0.300000 0.146382 0.450000
0.355269 0.075000 0.450000
0.300000 0.150000 -0.237856
0.300000 0.153658 -0.225000
0.303537 0.150000 -0.225000
0.300000 0.177819 -0.150000
0.325755 0.150000 -0.150000
0.300000 0.179159 -0.075000
0.325648 0.150000 -0.075000
0.300000 0.196499 0.000000
0.344593 0.150000 0.000000
0.300000 0.192452 0.075000
0.337644 0.150000 0.075000
0.300000 0.198786 0.150000
0.346724 0.150000 0.150000
0.300000 0.183507 0.225000
0.338679 0.150000 0.225000
0.300000 0.179468 0.300000
0.336232 0.150000 0.300000
0.300000 0.150000 0.443220
0.300000 0.171208 0.375000
0.329203 0.150000 0.375000
0.375000 -0.178905 0.000000
0.375000 -0.189786 0.075000
0.375000 -0.189749 0.150000
0.375000 -0.194325 0.225000
0.375000 -0.187821 0.300000
0.375000 -0.181933 0.375000
0.375000 -0.158174 0.450000
0.375000 -0.089859 -0.225000
0.375000 -0.120867 -0.150000
0.375000 -0.150000 -0.065062
0.375000 -0.145295 -0.075000
0.386936 -0.150000 0.000000
0.393069 -0.150000 0.075000
0.393653 -0.150000 0.150000
0.396470 -0.150000 0.225000
0.391051 -0.150000 0.300000
0.389567 -0.150000 0.375000
0.375000 -0.150000 0.457529
0.379562 -0.150000 0.450000
0.375000 -0.075000 -0.240439
0.379625 -0.075000 -0.225000
0.391986 -0.075000 -0.150000
0.400236 -0.075000 -0.075000
0.409026 -0.075000 0.000000
0.417752 -0.075000 0.075000
0.420193 -0.075000 0.150000
0.421180 -0.075000 0.225000
0.417169 -0.075000 0.300000
0.408086 -0.075000 0.375000
0.375000 -0.075000 0.483674
0.392419 -0.075000 0.450000
0.375000 0.000000 -0.250252
0.375000 0.030514 -0.225000
0.384393 0.000000 -0.225000
0.400732 0.000000 -0.150000
0.404431 0.000000 -0.075000
0.403012 0.000000 0.000000
0.407749 0.000000 0.075000
0.409978 0.000000 0.150000
0.409045 0.000000 0.225000
0.409824 0.000000 0.300000
0.404835 0.000000 0.375000
0.375000 0.000000 0.464496
0.375000 0.030676 0.450000
0.384465 0.000000 0.450000
0.375000 0.075000 -0.160700
0.375000 0.080146 -0.150000
0.377539 0.075000 -0.150000
0.375000 0.086698 -0.075000
0.381577 0.075000 -0.075000
0.375000 0.106546 0.000000
0.391012 0.075000 0.000000
0.375000 0.100654 0.075000
0.390760 0.075000 0.075000
0.375000 0.110095 0.150000
0.394613 0.075000 0.150000
0.375000 0.103298 0.225000
0.391543 0.075000 0.225000
0.375000 0.104297 0.300000
0.392551 0.075000 0.300000
0.375000 0.075000 0.412017
0.375000 0.097734 0.375000
0.387410 0.075000 0.375000
3 37 25 0
3 25 27 1
3 0 25 1
3 27 29 2
3 1 27 2
3 29 31 3
3 2 29 3
3 31 33 4
3 3 31 4
3 33 35 5
3 4 33 5
3 35 39 5
3 42 37 0
3 6 42 0
3 0 1 6
3 1 7 6
3 1 2 7
3 2 8 7
3 2 3 8
3 3 9 8
3 3 4 9
3 4 10 9
3 4 5 10
3 5 11 10
3 39 40 12
3 39 12 5
3 5 12 11
3 40 44 12
3 46 42 6
3 13 46 6
3 6 7 13
3 7 14 13
3 7 8 14
3 8 15 14
3 8 9 15
3 9 16 15
3 9 10 16
3 10 17 16
3 10 11 17
3 11 18 17
3 11 12 18
3 12 19 18
3 44 49 19
3 12 44 19
3 46 13 48
3 52 48 13
3 52 13 20
3 20 13 14
3 14 15 20
3 15 21 20
3 15 16 21
3 16 22 21
3 16 17 22
3 17 23 22
3 17 18 23
3 18 24 23
3 50 58 24
3 50 24 19
3 19 24 18
3 19 49 50
3 20 21 55
3 54 20 55
3 21 22 56
3 55 21 56
3 22 23 57
3 56 22 57
3 23 24 59
3 57 23 59
3 24 58 59
3 79 68 26
3 68 69 28
3 26 68 28
3 69 71 30
3 28 69 30
3 71 73 32
3 30 71 32
3 73 75 34
3 32 73 34
3 75 77 36
3 34 75 36
3 77 81 36
3 84 80 38
3 26 25 37
3 79 26 37
3 79 37 38
3 79 38 80
3 28 25 26
3 27 25 28
3 30 27 28
3 29 27 30
3 32 29 30
3 31 29 32
3 34 31 32
3 33 31 34
3 36 33 34
3 35 33 36
3 35 41 39
3 36 41 35
3 36 82 41
3 36 81 82
3 82 85 41
3 88 84 38
3 43 88 38
3 38 42 43
3 37 42 38
3 41 40 39
3 40 45 44
3 41 45 40
3 41 86 45
3 41 85 86
3 86 89 45
3 90 88 43
3 47 90 43
3 43 46 47
3 42 46 43
3 51 44 45
3 49 44 51
3 89 92 51
3 45 89 51
3 90 47 91
3 94 48 53
3 91 48 94
3 91 46 48
3 91 47 46
3 48 52 53
3 50 60 58
3 60 93 96
3 50 93 60
3 50 51 93
3 50 49 51
3 51 92 93
3 98 94 53
3 61 98 53
3 54 53 52
3 54 62 53
3 62 61 53
3 55 62 54
3 63 62 55
3 56 63 55
3 64 63 56
3 57 64 56
3 65 64 57
3 59 65 57
3 66 65 59
3 58 66 59
3 58 60 66
3 60 67 66
3 96 105 67
3 60 96 67
3 98 61 99
3 61 62 100
3 99 61 100
3 62 63 101
3 100 62 101
3 63 64 102
3 101 63 102
3 64 65 103
3 102 64 103
3 65 66 104
3 103 65 104
3 66 67 106
3 104 66 106
3 67 105 106
3 117 112 70
3 112 113 72
3 70 112 72
3 113 114 74
3 72 113 74
3 114 115 76
3 74 114 76
3 115 116 78
3 76 115 78
3 116 119 78
3 79 121 118
3 68 79 118
3 70 118 117
3 70 69 118
3 69 68 118
3 72 69 70
3 71 69 72
3 74 71 72
3 73 71 74
3 76 73 74
3 75 73 76
3 78 75 76
3 77 75 78
3 77 83 81
3 78 83 77
3 78 120 83
3 78 119 120
3 120 124 83
3 84 127 122
3 80 84 122
3 122 79 80
3 121 79 122
3 83 82 81
3 82 87 85
3 83 87 82
3 83 125 87
3 83 124 125
3 125 128 87
3 127 84 130
3 130 84 88
3 87 86 85
3 86 87 128
3 86 128 89
3 89 128 132
3 130 88 134
3 134 88 90
3 132 136 89
3 136 92 89
3 91 95 138
3 91 138 90
3 90 138 134
3 91 94 95
3 93 97 96
3 97 93 92
3 97 92 140
3 140 92 136
3 138 95 139
3 95 143 139
3 95 94 143
3 94 98 143
3 141 96 97
3 141 146 96
3 146 105 96
3 97 140 141
3 143 98 99
3 145 143 99
3 149 100 107
3 149 145 100
3 145 99 100
3 101 107 100
3 108 107 101
3 102 108 101
3 109 108 102
3 103 109 102
3 110 109 103
3 104 110 103
3 111 110 104
3 111 147 155
3 111 104 147
3 104 106 147
3 147 106 105
3 146 147 105
3 149 107 151
3 107 108 152
3 151 107 152
3 108 109 153
3 152 108 153
3 109 110 154
3 153 109 154
3 110 111 156
3 154 110 156
3 111 155 156
3 117 163 157
3 112 117 157
3 157 158 112
3 112 158 113
3 158 159 113
3 113 159 114
3 159 160 114
3 114 160 115
3 160 161 115
3 115 161 116
3 116 161 166
3 119 116 166
3 170 162 123
3 121 123 162
3 121 162 118
3 118 162 164
3 164 117 118
3 163 117 164
3 166 120 119
3 167 120 166
3 126 124 120
3 126 120 169
3 169 120 167
3 169 171 126
3 123 122 127
3 123 127 170
3 170 127 175
3 123 121 122
3 126 125 124
3 125 129 128
3 126 129 125
3 126 172 129
3 126 171 172
3 172 178 129
3 183 176 131
3 176 130 131
3 176 175 130
3 175 127 130
3 133 128 129
3 132 128 133
3 178 184 133
3 129 178 133
3 189 183 131
3 135 189 131
3 131 134 135
3 130 134 131
3 137 132 133
3 136 132 137
3 184 191 137
3 133 184 137
3 189 135 190
3 135 194 190
3 135 134 194
3 134 138 194
3 142 136 137
3 140 136 142
3 191 196 142
3 137 191 142
3 139 144 198
3 139 198 138
3 138 198 194
3 141 148 146
3 148 197 201
3 141 197 148
3 141 142 197
3 141 140 142
3 142 196 197
3 198 144 199
3 203 145 150
3 199 145 203
3 199 143 145
3 199 144 143
3 145 149 150
3 155 200 209
3 147 200 155
3 146 148 202
3 146 202 147
3 147 202 200
3 148 201 202
3 203 150 204
3 150 149 151
3 150 151 204
3 204 151 205
3 205 151 206
3 151 152 206
3 206 152 207
3 152 153 207
3 207 153 208
3 153 154 208
3 208 154 210
3 154 156 210
3 210 156 155
3 209 210 155
3 219 212 165
3 163 165 212
3 163 212 157
3 157 212 213
3 213 214 157
3 157 214 158
3 214 215 158
3 158 215 159
3 215 216 159
3 159 216 160
3 216 217 160
3 160 217 161
3 168 166 161
3 168 161 218
3 218 161 217
3 218 221 168
3 170 228 220
3 162 170 220
3 165 220 219
3 165 164 220
3 164 162 220
3 165 163 164
3 168 167 166
3 221 167 168
3 221 222 167
3 222 169 167
3 169 222 230
3 171 169 230
3 232 223 173
3 223 225 174
3 173 223 174
3 239 229 177
3 229 175 177
3 229 228 175
3 228 170 175
3 230 172 171
3 231 172 230
3 172 231 240
3 178 172 240
3 241 233 179
3 233 232 173
3 233 173 179
3 179 173 180
3 173 174 180
3 174 181 180
3 234 235 182
3 234 182 174
3 174 182 181
3 235 242 182
3 177 176 183
3 177 183 239
3 239 183 246
3 177 175 176
3 240 247 178
3 247 184 178
3 248 241 179
3 185 248 179
3 179 180 185
3 180 186 185
3 180 181 186
3 181 187 186
3 181 182 187
3 182 188 187
3 242 250 188
3 182 242 188
3 246 183 254
3 254 183 189
3 247 255 184
3 255 191 184
3 248 185 249
3 256 249 185
3 256 185 192
3 192 185 186
3 186 187 192
3 187 193 192
3 251 258 193
3 251 193 188
3 188 193 187
3 188 250 251
3 190 195 263
3 190 263 189
3 189 263 254
3 190 194 195
3 255 265 191
3 265 196 191
3 256 192 257
3 192 193 259
3 257 192 259
3 193 258 259
3 263 195 264
3 195 270 264
3 195 194 270
3 194 198 270
3 201 266 272
3 197 266 201
3 266 197 196
3 265 266 196
3 270 198 199
3 271 270 199
3 199 274 271
3 203 274 199
3 200 211 209
3 211 273 281
3 211 200 273
3 200 202 273
3 273 202 201
3 272 273 201
3 274 203 204
3 275 274 204
3 275 204 276
3 204 205 276
3 276 205 277
3 205 206 277
3 277 206 278
3 206 207 278
3 278 207 279
3 207 208 279
3 279 208 280
3 208 210 280
3 209 211 282
3 209 282 210
3 210 282 280
3 211 281 282
3 219 293 283
3 212 219 283
3 283 284 212
3 212 284 213
3 284 285 213
3 213 285 214
3 285 286 214
3 214 286 215
3 286 287 215
3 215 287 216
3 287 288 216
3 216 288 217
3 288 289 217
3 217 289 218
3 218 289 299
3 221 218 299
3 301 290 224
3 290 291 226
3 224 290 226
3 291 292 227
3 226 291 227
3 292 302 227
3 228 308 294
3 220 228 294
3 294 219 220
3 293 219 294
3 299 222 221
3 300 222 299
3 222 300 311
3 230 222 311
3 224 223 232
3 224 232 301
3 301 232 313
3 226 223 224
3 225 223 226
3 225 236 234
3 225 226 236
3 226 227 236
3 302 303 237
3 302 237 227
3 227 237 236
3 303 305 238
3 237 303 238
3 305 315 238
3 239 320 309
3 229 239 309
3 309 228 229
3 308 228 309
3 311 231 230
3 312 231 311
3 231 312 321
3 240 231 321
3 241 322 314
3 233 241 314
3 314 232 233
3 313 232 314
3 236 235 234
3 235 243 242
3 235 236 243
3 236 237 243
3 237 238 243
3 238 244 243
3 315 316 245
3 315 245 238
3 238 245 244
3 316 323 245
3 320 239 328
3 328 239 246
3 321 330 240
3 330 247 240
3 322 241 331
3 331 241 248
3 252 242 243
3 250 242 252
3 243 244 252
3 244 253 252
3 324 333 253
3 324 253 245
3 245 253 244
3 245 323 324
3 328 246 338
3 338 246 254
3 330 340 247
3 340 255 247
3 331 248 249
3 332 331 249
3 249 341 332
3 256 341 249
3 251 260 258
3 250 260 251
3 250 252 260
3 252 261 260
3 252 253 261
3 253 262 261
3 333 343 262
3 253 333 262
3 338 254 348
3 348 254 263
3 340 350 255
3 350 265 255
3 257 267 352
3 257 352 256
3 256 352 341
3 259 267 257
3 268 267 259
3 258 268 259
3 258 260 268
3 260 269 268
3 342 355 269
3 342 269 261
3 261 269 260
3 261 262 344
3 342 261 344
3 262 343 344
3 348 263 264
3 349 348 264
3 264 360 349
3 270 360 264
3 272 351 363
3 266 351 272
3 351 266 265
3 350 351 265
3 352 267 353
3 267 268 354
3 353 267 354
3 268 269 356
3 354 268 356
3 269 355 356
3 360 270 271
3 362 360 271
3 271 365 362
3 274 365 271
3 281 364 377
3 273 364 281
3 364 273 272
3 363 364 272
3 365 274 275
3 367 365 275
3 367 275 368
3 275 276 368
3 368 276 369
3 276 277 369
3 369 277 371
3 277 278 371
3 371 278 373
3 278 279 373
3 373 279 375
3 279 280 375
3 375 280 378
3 280 282 378
3 378 282 281
3 377 378 281
3 293 393 379
3 283 293 379
3 379 380 283
3 283 380 284
3 396 295 285
3 396 285 380
3 380 285 284
3 286 285 295
3 296 286 295
3 287 286 296
3 297 287 296
3 288 287 297
3 298 288 297
3 298 400 381
3 298 381 288
3 288 381 289
3 289 381 402
3 299 289 402
3 301 405 382
3 290 301 382
3 382 383 290
3 290 383 291
3 383 385 291
3 291 385 292
3 304 302 292
3 304 292 387
3 387 292 385
3 387 389 306
3 304 387 306
3 389 391 307
3 306 389 307
3 391 406 307
3 413 392 310
3 308 310 392
3 308 392 294
3 294 392 394
3 394 293 294
3 393 293 394
3 396 397 295
3 295 398 296
3 397 398 295
3 296 399 297
3 398 399 296
3 297 401 298
3 399 401 297
3 298 401 400
3 402 300 299
3 404 300 402
3 300 404 417
3 311 300 417
3 405 301 419
3 419 301 313
3 304 303 302
3 306 303 304
3 305 303 306
3 305 317 315
3 305 306 317
3 306 307 317
3 406 407 318
3 406 318 307
3 307 318 317
3 407 409 319
3 318 407 319
3 409 421 319
3 310 309 320
3 310 320 413
3 413 320 425
3 310 308 309
3 417 312 311
3 418 312 417
3 312 418 428
3 321 312 428
3 322 429 420
3 314 322 420
3 420 313 314
3 419 313 420
3 317 316 315
3 316 325 323
3 316 317 325
3 317 318 325
3 318 319 325
3 319 326 325
3 421 422 327
3 421 327 319
3 319 327 326
3 422 430 327
3 431 426 329
3 426 328 329
3 426 425 328
3 425 320 328
3 428 433 321
3 433 330 321
3 429 322 434
3 434 322 331
3 324 334 333
3 323 334 324
3 323 325 334
3 325 335 334
3 325 326 335
3 326 336 335
3 326 327 336
3 327 337 336
3 430 436 337
3 327 430 337
3 438 431 329
3 339 438 329
3 329 338 339
3 328 338 329
3 433 441 330
3 441 340 330
3 434 331 332
3 435 434 332
3 332 442 435
3 341 442 332
3 345 333 334
3 343 333 345
3 334 335 345
3 335 346 345
3 335 336 346
3 336 347 346
3 437 444 347
3 437 347 337
3 337 347 336
3 337 436 437
3 438 339 440
3 339 448 440
3 339 338 448
3 338 348 448
3 441 451 340
3 451 350 340
3 442 341 453
3 453 341 352
3 342 357 355
3 344 357 342
3 358 357 344
3 343 358 344
3 343 345 358
3 345 359 358
3 443 459 359
3 443 359 346
3 346 359 345
3 346 347 445
3 443 346 445
3 347 444 445
3 349 361 465
3 349 465 348
3 348 465 448
3 349 360 361
3 363 452 474
3 351 452 363
3 452 351 350
3 451 452 350
3 453 352 353
3 454 453 353
3 454 353 455
3 353 354 455
3 455 354 456
3 354 356 456
3 355 357 457
3 355 457 356
3 356 457 456
3 357 358 458
3 457 357 458
3 358 359 460
3 458 358 460
3 359 459 460
3 465 361 467
3 480 362 366
3 467 362 480
3 467 360 362
3 467 361 360
3 362 365 366
3 483 370 468
3 468 372 469
3 370 372 468
3 469 374 471
3 372 374 469
3 471 376 473
3 374 376 471
3 473 376 485
3 377 475 486
3 364 475 377
3 475 364 363
3 474 475 363
3 480 366 481
3 366 365 367
3 366 367 481
3 481 367 482
3 482 367 484
3 367 368 484
3 370 483 484
3 370 484 369
3 369 484 368
3 372 370 369
3 371 372 369
3 374 372 371
3 373 374 371
3 376 374 373
3 375 376 373
3 485 376 375
3 485 375 487
3 487 375 378
3 487 378 377
3 486 487 377
3 496 489 384
3 489 490 386
3 384 489 386
3 490 491 388
3 386 490 388
3 491 492 390
3 388 491 390
3 492 501 390
3 513 493 395
3 393 395 493
3 393 493 379
3 379 493 494
3 494 495 379
3 379 495 380
3 380 495 516
3 396 380 516
3 381 400 403
3 381 403 402
3 405 521 497
3 382 405 497
3 384 497 496
3 384 383 497
3 383 382 497
3 386 383 384
3 385 383 386
3 388 385 386
3 387 385 388
3 390 387 388
3 389 387 390
3 501 389 390
3 501 502 389
3 502 391 389
3 408 406 391
3 408 391 504
3 504 391 502
3 504 506 410
3 408 504 410
3 506 508 411
3 410 506 411
3 508 510 412
3 411 508 412
3 510 512 414
3 412 510 414
3 413 414 512
3 413 512 392
3 392 512 514
3 395 514 513
3 395 394 514
3 394 392 514
3 395 393 394
3 516 397 396
3 517 397 516
3 523 415 398
3 523 398 517
3 517 398 397
3 399 398 415
3 416 399 415
3 416 525 518
3 416 518 399
3 399 518 401
3 400 519 403
3 400 401 519
3 401 518 519
3 403 404 402
3 403 519 404
3 519 520 404
3 404 520 528
3 417 404 528
3 521 405 530
3 530 405 419
3 408 407 406
3 410 407 408
3 409 407 410
3 409 423 421
3 409 410 423
3 410 411 423
3 411 412 423
3 412 424 423
3 412 414 424
3 414 427 424
3 414 425 427
3 413 425 414
3 523 524 415
3 415 526 416
3 524 526 415
3 416 526 525
3 528 418 417
3 529 418 528
3 418 529 532
3 428 418 532
3 429 533 531
3 420 429 531
3 531 419 420
3 530 419 531
3 423 422 421
3 422 432 430
3 422 423 432
3 423 424 432
3 431 427 426
3 431 432 427
3 432 424 427
3 427 425 426
3 532 534 428
3 534 433 428
3 533 429 535
3 535 429 434
3 432 438 439
3 431 438 432
3 534 538 433
3 538 441 433
3 535 434 435
3 536 535 435
3 435 539 536
3 442 539 435
3 437 446 444
3 436 446 437
3 436 439 446
3 439 447 446
3 440 439 438
3 440 449 439
3 449 447 439
3 440 448 449
3 540 450 537
3 537 450 541
3 538 544 441
3 544 451 441
3 539 442 546
3 546 442 453
3 443 461 459
3 445 461 443
3 462 461 445
3 444 462 445
3 444 446 462
3 446 463 462
3 446 447 463
3 447 464 463
3 447 449 464
3 449 466 464
3 449 465 466
3 448 465 449
3 555 450 540
3 470 450 555
3 541 472 543
3 541 450 472
3 450 470 472
3 543 472 558
3 474 545 562
3 452 545 474
3 545 452 451
3 544 545 451
3 546 453 454
3 547 546 454
3 547 454 548
3 454 455 548
3 564 456 476
3 564 548 456
3 548 455 456
3 457 476 456
3 477 476 457
3 458 477 457
3 478 477 458
3 460 478 458
3 479 478 460
3 479 549 571
3 460 549 479
3 460 461 549
3 460 459 461
3 461 462 550
3 549 461 550
3 462 463 551
3 550 462 551
3 463 464 552
3 551 463 552
3 464 466 553
3 552 464 553
3 466 465 467
3 466 467 553
3 553 467 554
3 467 575 554
3 480 575 467
3 483 556 579
3 468 556 483
3 470 555 556
3 470 556 469
3 469 556 468
3 472 470 469
3 471 472 469
3 558 472 471
3 558 471 560
3 560 471 473
3 488 473 485
3 488 561 473
3 561 560 473
3 486 561 488
3 486 475 561
3 475 563 561
3 563 475 474
3 562 563 474
3 564 476 565
3 476 477 567
3 565 476 567
3 477 478 569
3 567 477 569
3 478 479 572
3 569 478 572
3 479 571 572
3 575 480 481
3 577 575 481
3 577 481 578
3 481 482 578
3 578 482 580
3 482 484 580
3 580 484 483
3 579 580 483
3 488 485 487
3 488 487 486
3 489 496 498
3 490 489 498
3 499 490 498
3 491 490 499
3 500 491 499
3 500 593 581
3 500 581 491
3 491 581 492
3 503 501 492
3 503 492 582
3 582 492 581
3 582 583 505
3 503 582 505
3 583 584 507
3 505 583 507
3 584 585 509
3 507 584 509
3 585 586 511
3 509 585 511
3 601 587 515
3 513 515 587
3 513 587 493
3 493 587 588
3 588 589 493
3 493 589 494
3 589 590 494
3 494 590 495
3 495 590 604
3 516 495 604
3 497 521 522
3 522 611 591
3 497 522 591
3 497 591 498
3 497 498 496
3 498 592 499
3 591 592 498
3 499 594 500
3 592 594 499
3 500 594 593
3 503 502 501
3 505 502 503
3 504 502 505
3 507 504 505
3 506 504 507
3 509 506 507
3 508 506 509
3 511 508 509
3 510 508 511
3 600 510 511
3 600 602 510
3 602 512 510
3 515 602 601
3 515 514 602
3 514 512 602
3 515 513 514
3 604 517 516
3 605 517 604
3 517 605 615
3 523 517 615
3 616 607 527
3 525 527 607
3 525 607 518
3 518 607 608
3 608 609 518
3 518 609 519
3 609 610 519
3 519 610 520
3 520 610 619
3 528 520 619
3 612 522 521
3 612 521 621
3 621 521 530
3 522 612 611
3 615 524 523
3 617 524 615
3 527 617 616
3 527 526 617
3 526 524 617
3 527 525 526
3 619 529 528
3 620 529 619
3 529 620 624
3 532 529 624
3 533 625 622
3 531 533 622
3 622 530 531
3 621 530 622
3 624 627 532
3 627 534 532
3 625 533 628
3 628 533 535
3 627 632 534
3 632 538 534
3 628 535 536
3 629 628 536
3 536 633 629
3 539 633 536
3 537 542 540
3 537 541 542
3 632 635 538
3 635 544 538
3 633 539 637
3 637 539 546
3 557 540 542
3 555 540 557
3 543 542 541
3 543 559 542
3 559 557 542
3 543 558 559
3 562 636 657
3 545 636 562
3 636 545 544
3 635 636 544
3 637 546 547
3 638 637 547
3 638 547 640
3 547 548 640
3 566 548 564
3 566 642 548
3 642 640 548
3 642 568 644
3 566 568 642
3 644 570 646
3 568 570 644
3 646 573 647
3 570 573 646
3 571 647 573
3 571 549 647
3 549 648 647
3 648 549 649
3 549 550 649
3 649 550 650
3 550 551 650
3 650 551 651
3 551 552 651
3 659 553 574
3 659 651 553
3 651 552 553
3 554 574 553
3 576 574 554
3 554 575 576
3 579 652 664
3 556 652 579
3 555 557 653
3 555 653 556
3 556 653 652
3 557 559 654
3 653 557 654
3 559 558 560
3 559 560 654
3 654 560 655
3 655 560 656
3 560 561 656
3 656 561 658
3 561 563 658
3 658 563 562
3 657 658 562
3 566 564 565
3 568 566 565
3 567 568 565
3 570 568 567
3 569 570 567
3 573 570 569
3 572 573 569
3 573 572 571
3 659 574 660
3 574 576 661
3 660 574 661
3 576 575 577
3 576 577 661
3 661 577 662
3 662 577 663
3 577 578 663
3 663 578 665
3 578 580 665
3 665 580 579
3 664 665 579
3 581 593 595
3 582 581 595
3 596 582 595
3 583 582 596
3 597 583 596
3 584 583 597
3 598 584 597
3 585 584 598
3 599 585 598
3 599 678 666
3 599 666 585
3 585 666 586
3 603 600 586
3 603 586 667
3 667 586 666
3 601 603 667
3 601 667 587
3 587 667 668
3 668 669 587
3 587 669 588
3 669 670 588
3 588 670 589
3 670 671 589
3 589 671 590
3 606 604 590
3 606 590 672
3 672 590 671
3 672 681 606
3 591 611 613
3 592 591 613
3 614 592 613
3 614 689 673
3 614 673 592
3 592 673 594
3 593 674 595
3 593 594 674
3 594 673 674
3 595 675 596
3 674 675 595
3 596 676 597
3 675 676 596
3 597 677 598
3 676 677 597
3 598 679 599
3 677 679 598
3 599 679 678
3 603 602 600
3 603 601 602
3 606 605 604
3 605 618 615
3 606 618 605
3 606 682 618
3 606 681 682
3 616 618 682
3 616 682 607
3 607 682 684
3 684 685 607
3 607 685 608
3 685 686 608
3 608 686 609
3 686 687 609
3 609 687 610
3 610 687 696
3 619 610 696
3 612 621 623
3 623 699 688
3 612 623 688
3 612 688 613
3 612 613 611
3 613 690 614
3 688 690 613
3 614 690 689
3 618 617 615
3 618 616 617
3 696 620 619
3 698 620 696
3 620 698 707
3 624 620 707
3 622 625 626
3 626 709 700
3 622 626 700
3 622 700 623
3 622 623 621
3 623 700 699
3 707 716 624
3 716 627 624
3 630 626 625
3 628 630 625
3 709 631 710
3 709 626 631
3 626 630 631
3 710 631 717
3 716 722 627
3 722 632 627
3 630 628 629
3 629 633 634
3 629 634 630
3 630 634 631
3 717 634 724
3 631 634 717
3 722 734 632
3 734 635 632
3 639 634 633
3 637 639 633
3 724 641 725
3 724 634 641
3 634 639 641
3 725 643 727
3 641 643 725
3 727 645 729
3 643 645 727
3 729 645 737
3 657 735 753
3 636 735 657
3 735 636 635
3 734 735 635
3 639 637 638
3 641 639 638
3 640 641 638
3 643 641 640
3 642 643 640
3 645 643 642
3 644 645 642
3 737 645 644
3 737 644 738
3 738 644 646
3 738 646 740
3 646 647 740
3 740 647 742
3 647 648 742
3 742 648 744
3 648 649 744
3 744 649 746
3 649 650 746
3 746 650 747
3 650 651 747
3 651 755 747
3 659 755 651
3 664 748 761
3 652 748 664
3 748 652 749
3 652 653 749
3 749 653 750
3 653 654 750
3 750 654 751
3 654 655 751
3 751 655 752
3 655 656 752
3 752 656 754
3 656 658 754
3 754 658 657
3 753 754 657
3 755 659 660
3 756 755 660
3 756 660 758
3 660 661 758
3 758 661 759
3 661 662 759
3 759 662 760
3 662 663 760
3 760 663 762
3 663 665 762
3 762 665 664
3 761 762 664
3 666 678 680
3 680 772 764
3 680 764 666
3 666 764 667
3 764 765 667
3 667 765 668
3 765 766 668
3 668 766 669
3 766 767 669
3 669 767 670
3 767 768 670
3 670 768 671
3 768 769 671
3 671 769 672
3 683 681 672
3 683 672 770
3 770 672 769
3 770 780 683
3 673 689 691
3 674 673 691
3 692 674 691
3 675 674 692
3 693 675 692
3 676 675 693
3 694 676 693
3 677 676 694
3 695 677 694
3 695 785 771
3 695 771 677
3 677 771 679
3 678 773 680
3 678 679 773
3 679 771 773
3 680 773 772
3 683 682 681
3 780 682 683
3 780 782 682
3 782 684 682
3 782 783 684
3 684 783 685
3 783 784 685
3 685 784 686
3 789 697 687
3 789 687 784
3 784 687 686
3 687 697 696
3 688 699 701
3 690 688 701
3 702 690 701
3 689 690 702
3 689 702 691
3 691 702 703
3 691 703 692
3 692 703 704
3 692 704 693
3 693 704 705
3 693 705 694
3 694 705 706
3 786 706 792
3 786 695 706
3 695 694 706
3 695 786 785
3 789 790 697
3 796 708 698
3 790 796 698
3 790 698 696
3 790 696 697
3 698 708 707
3 699 700 711
3 699 711 701
3 701 711 712
3 701 712 702
3 702 712 713
3 702 713 703
3 703 713 714
3 703 714 704
3 704 714 715
3 791 715 799
3 791 705 715
3 705 704 715
3 705 793 706
3 791 793 705
3 706 793 792
3 796 798 708
3 708 798 803
3 708 803 707
3 707 803 716
3 710 717 718
3 710 718 711
3 711 718 712
3 712 718 713
3 713 718 719
3 713 719 714
3 714 719 720
3 714 720 715
3 715 720 721
3 799 721 806
3 715 721 799
3 812 723 804
3 804 723 722
3 804 722 803
3 803 722 716
3 726 718 717
3 724 726 717
3 718 726 719
3 719 726 728
3 719 728 720
3 720 728 730
3 720 730 721
3 721 730 731
3 806 732 807
3 806 721 732
3 721 731 732
3 807 733 809
3 732 733 807
3 809 733 813
3 817 723 812
3 736 723 817
3 723 736 734
3 722 723 734
3 726 724 725
3 728 726 725
3 727 728 725
3 730 728 727
3 729 730 727
3 729 737 739
3 729 739 730
3 730 739 731
3 731 739 732
3 732 739 741
3 732 741 733
3 733 741 743
3 813 745 814
3 813 733 745
3 733 743 745
3 814 745 819
3 736 753 735
3 736 817 753
3 817 830 753
3 736 735 734
3 739 737 738
3 741 739 738
3 740 741 738
3 743 741 740
3 742 743 740
3 745 743 742
3 744 745 742
3 819 745 744
3 819 744 820
3 820 744 746
3 820 746 822
3 746 747 822
3 757 747 755
3 757 824 747
3 824 822 747
3 824 757 833
3 748 763 761
3 763 825 842
3 763 748 825
3 748 749 825
3 825 749 826
3 749 750 826
3 826 750 827
3 750 751 827
3 827 751 828
3 751 752 828
3 828 752 831
3 752 754 831
3 831 754 753
3 830 831 753
3 757 755 756
3 833 757 756
3 833 756 834
3 834 756 758
3 834 758 836
3 758 759 836
3 836 759 838
3 759 760 838
3 838 760 840
3 760 762 840
3 761 763 843
3 761 843 762
3 762 843 840
3 763 842 843
3 764 772 774
3 765 764 774
3 775 765 774
3 766 765 775
3 776 766 775
3 767 766 776
3 777 767 776
3 768 767 777
3 778 768 777
3 769 768 778
3 779 769 778
3 770 769 779
3 781 770 779
3 770 781 780
3 771 785 787
3 773 771 787
3 788 773 787
3 788 855 845
3 773 788 845
3 773 845 774
3 773 774 772
3 774 846 775
3 845 846 774
3 775 847 776
3 846 847 775
3 776 848 777
3 847 848 776
3 777 849 778
3 848 849 777
3 778 850 779
3 849 850 778
3 779 851 781
3 850 851 779
3 781 782 780
3 781 851 782
3 851 852 782
3 852 853 782
3 782 853 783
3 853 854 783
3 783 854 784
3 784 854 866
3 789 784 866
3 786 792 794
3 785 786 794
3 785 794 787
3 787 794 795
3 856 795 868
3 856 788 795
3 788 787 795
3 788 856 855
3 790 874 797
3 790 789 874
3 789 866 874
3 790 797 796
3 791 799 800
3 793 791 800
3 801 793 800
3 792 793 801
3 792 801 794
3 794 801 802
3 869 802 876
3 869 795 802
3 795 794 802
3 795 869 868
3 874 875 797
3 879 805 798
3 875 879 798
3 875 798 796
3 875 796 797
3 798 805 803
3 808 800 799
3 806 808 799
3 800 808 801
3 801 808 810
3 801 810 802
3 802 810 811
3 876 811 881
3 802 811 876
3 805 812 804
3 805 879 812
3 879 885 812
3 805 804 803
3 808 806 807
3 810 808 807
3 809 810 807
3 809 813 815
3 809 815 810
3 810 815 811
3 881 816 882
3 881 811 816
3 811 815 816
3 882 816 888
3 892 818 886
3 886 818 817
3 886 817 885
3 885 817 812
3 815 813 814
3 814 819 821
3 814 821 815
3 815 821 816
3 888 823 889
3 888 816 823
3 816 821 823
3 889 823 895
3 893 818 892
3 893 829 818
3 829 832 818
3 818 832 830
3 817 818 830
3 821 819 820
3 823 821 820
3 822 823 820
3 895 823 822
3 895 822 896
3 896 822 824
3 835 824 833
3 835 898 824
3 898 896 824
3 898 837 900
3 835 837 898
3 900 839 902
3 837 839 900
3 902 841 904
3 839 841 902
3 904 844 906
3 841 844 904
3 842 906 844
3 842 825 906
3 825 908 906
3 908 825 910
3 825 826 910
3 910 826 913
3 826 827 913
3 829 912 913
3 829 913 828
3 828 913 827
3 832 829 828
3 831 832 828
3 832 831 830
3 835 833 834
3 837 835 834
3 836 837 834
3 839 837 836
3 838 839 836
3 841 839 838
3 840 841 838
3 844 841 840
3 843 844 840
3 844 843 842
3 845 855 857
3 846 845 857
3 858 846 857
3 847 846 858
3 859 847 858
3 848 847 859
3 860 848 859
3 849 848 860
3 861 849 860
3 850 849 861
3 862 850 861
3 851 850 862
3 863 851 862
3 852 851 863
3 864 852 863
3 853 852 864
3 865 853 864
3 854 853 865
3 867 854 865
3 854 867 866
3 856 868 870
3 855 856 870
3 855 870 857
3 857 870 871
3 857 871 858
3 858 871 872
3 858 872 859
3 859 872 873
3 915 873 924
3 915 860 873
3 860 859 873
3 860 916 861
3 915 916 860
3 861 917 862
3 916 917 861
3 862 918 863
3 917 918 862
3 863 919 864
3 918 919 863
3 864 920 865
3 919 920 864
3 865 921 867
3 920 921 865
3 867 921 932
3 867 932 866
3 866 932 874
3 869 876 877
3 868 869 877
3 868 877 870
3 870 877 878
3 922 878 934
3 922 871 878
3 871 870 878
3 871 923 872
3 922 923 871
3 872 925 873
3 923 925 872
3 873 925 924
3 875 944 880
3 875 874 944
3 874 932 944
3 875 880 879
3 883 877 876
3 881 883 876
3 877 883 878
3 878 883 884
3 934 884 946
3 878 884 934
3 957 880 944
3 887 880 957
3 880 887 885
3 879 880 885
3 883 881 882
3 882 888 890
3 882 890 883
3 883 890 884
3 946 891 947
3 946 884 891
3 884 890 891
3 947 891 960
3 975 894 958
3 887 892 886
3 957 892 887
3 957 894 892
3 957 958 894
3 887 886 885
3 890 888 889
3 889 895 897
3 889 897 890
3 890 897 891
3 960 899 961
3 960 891 899
3 891 897 899
3 961 901 963
3 899 901 961
3 963 903 965
3 901 903 963
3 965 905 967
3 903 905 965
3 967 907 969
3 905 907 967
3 969 909 971
3 907 909 969
3 971 911 973
3 909 911 971
3 973 914 976
3 911 914 973
3 894 912 893
3 975 912 894
3 975 914 912
3 975 976 914
3 894 893 892
3 897 895 896
3 899 897 896
3 898 899 896
3 901 899 898
3 900 901 898
3 903 901 900
3 902 903 900
3 905 903 902
3 904 905 902
3 907 905 904
3 906 907 904
3 909 907 906
3 908 909 906
3 911 909 908
3 910 911 908
3 914 911 910
3 913 914 910
3 914 913 912
3 915 924 926
3 916 915 926
3 927 916 926
3 917 916 927
3 928 917 927
3 918 917 928
3 929 918 928
3 919 918 929
3 930 919 929
3 920 919 930
3 931 920 930
3 921 920 931
3 933 921 931
3 922 934 935
3 923 922 935
3 936 923 935
3 925 923 936
3 937 925 936
3 924 925 937
3 924 937 926
3 926 937 938
3 926 938 927
3 927 938 939
3 927 939 928
3 928 939 940
3 928 940 929
3 929 940 941
3 929 941 930
3 930 941 942
3 930 942 931
3 931 942 943
3 931 943 933
3 933 943 945
3 933 945 944
3 932 933 944
3 948 935 934
3 946 948 934
3 935 948 936
3 936 948 949
3 936 949 937
3 937 949 950
3 937 950 938
3 938 950 951
3 938 951 939
3 939 951 952
3 939 952 940
3 940 952 953
3 940 953 941
3 941 953 954
3 941 954 942
3 942 954 955
3 942 955 943
3 943 955 956
3 943 956 945
3 945 956 959
3 945 959 957
3 944 945 957
3 948 946 947
3 947 960 962
3 947 962 948
3 948 962 949
3 949 962 950
3 950 962 964
3 950 964 951
3 951 964 966
3 951 966 952
3 952 966 968
3 952 968 953
3 953 968 970
3 953 970 954
3 954 970 972
3 954 972 955
3 955 972 974
3 955 974 956
3 956 974 977
3 975 958 959
3 975 959 977
3 977 959 956
3 959 958 957
3 964 962 961
3 963 964 961
3 966 964 963
3 965 966 963
3 968 966 965
3 967 968 965
3 970 968 967
3 969 970 967
3 972 970 969
3 971 972 969
3 974 972 971
3 973 974 971
3 977 974 973
3 976 977 973
3 977 976 975
