ply
format ascii 1.0
element vertex 248
property float x
property float y
property float z
element face 500
property list uchar int vertex_indices
end_header
-0.418498 -0.142324 -0.779246
-0.373981 -0.140183 -0.501038
-0.401651 -0.039772 0.150095
-0.403894 -0.150395 0.318775
-0.444234 -0.048392 -0.815031
-0.399920 0.010576 -0.496596
-0.397069 0.086551 0.116313
-0.414503 0.025401 0.400791
-0.421515 0.116502 0.213621
-0.427433 0.083973 -0.808550
-0.406617 0.124344 -0.566036
-0.404796 0.145295 0.357037
-0.333672 -0.224549 0.198249
-0.342645 -0.228905 0.339288
-0.340897 -0.196342 -0.815310
-0.320754 -0.185726 -0.654671
-0.379568 -0.178537 -0.546093
-0.370222 -0.102391 0.494146
-0.363331 -0.109169 -0.920478
-0.330251 -0.058433 0.577741
-0.368302 0.032746 0.536650
-0.362395 0.043130 -0.941213
-0.281231 0.142109 -0.378192
-0.313651 0.087564 0.585429
-0.367077 0.157991 -0.882227
-0.331727 0.162132 0.509754
-0.328137 0.182635 -0.490112
-0.342046 0.195655 -0.798625
-0.308967 0.188339 -0.637469
-0.355349 0.210200 0.185054
-0.353474 0.222862 0.300441
-0.194440 -0.249619 0.426890
-0.284967 -0.198971 -0.889691
-0.251545 -0.179562 0.557158
-0.245438 -0.178961 0.071044
-0.258092 -0.088366 -0.666348
-0.294866 -0.034765 -0.985916
-0.239323 0.082603 -0.972206
-0.244511 0.119372 -0.654915
-0.212830 0.206822 -0.384791
-0.268763 0.203681 0.108381
-0.239106 0.197613 0.577580
-0.286710 0.195595 -0.898110
-0.233981 0.250458 0.474340
-0.281729 -0.263941 0.250314
-0.233981 -0.214663 -0.835387
-0.237058 -0.213812 -0.420505
-0.169993 -0.226333 0.293701
-0.286133 -0.177960 -0.731702
-0.159636 -0.212560 -0.393710
-0.199788 -0.236917 0.158666
-0.223207 -0.149891 -0.944595
-0.164373 -0.138417 -0.493517
-0.108410 -0.065031 -0.200160
-0.242726 -0.054204 0.637993
-0.279492 0.010188 0.025703
-0.291332 0.194295 -0.740901
-0.249261 0.217876 -0.459046
-0.215531 0.226021 -0.851211
-0.188488 0.248062 0.174441
-0.284050 0.257608 0.234830
-0.161780 0.252324 0.372504
-0.215750 -0.212288 -0.887028
-0.077966 -0.228041 0.558652
-0.057040 -0.193673 -0.853432
-0.104437 -0.145986 0.218194
-0.122224 -0.184491 0.648695
-0.101700 -0.140600 -0.042232
-0.129976 -0.026547 -0.757106
-0.116176 -0.137606 -0.786404
-0.153816 0.125856 -0.772088
-0.187814 -0.025065 -0.562237
-0.102763 0.002750 -0.073351
0.162525 -0.046202 -0.959357
-0.123966 0.050527 -0.201281
-0.217549 0.096608 0.646467
-0.125408 0.151244 -0.020034
-0.114762 0.173358 0.659934
-0.179940 0.220139 -0.895998
-0.111437 0.223715 -0.347340
-0.106469 0.172630 -0.268518
-0.078660 0.209965 0.136103
-0.116324 0.192350 0.277079
-0.077196 0.229390 0.042173
-0.091850 0.233485 0.548705
-0.070379 -0.224587 0.041717
-0.064633 -0.189624 0.127567
-0.063966 -0.189574 0.457051
-0.076698 -0.191069 -0.266785
0.044354 -0.205070 -0.286216
-0.025024 -0.181287 0.498218
-0.023361 -0.102818 -0.782606
-0.053367 -0.067393 0.192869
-0.064820 -0.064267 0.344801
-0.126732 -0.008493 0.702625
-0.064219 0.035537 0.290673
-0.048143 0.066452 0.204849
-0.039943 0.106295 -0.784032
0.051766 0.218860 -0.286286
-0.034641 0.200499 -0.856498
-0.066811 0.191450 0.431538
-0.001285 -0.206598 -0.042003
0.011968 -0.211086 0.588375
-0.031112 -0.190833 0.676282
0.051386 -0.221619 0.654679
0.110201 -0.214411 -0.836591
0.074407 -0.229512 -0.187882
0.021923 -0.188563 -0.112881
0.095729 -0.200454 0.714935
-0.032984 -0.119512 -0.158539
-0.037196 -0.069767 -0.113526
0.060351 -0.072952 0.767844
0.089170 -0.127762 -0.744951
0.049841 -0.075458 -0.359032
0.048962 0.012724 -0.744129
-0.019088 0.014284 0.425488
-0.056430 0.040042 -0.162292
0.044081 -0.001406 0.512076
-0.054868 0.034944 0.738688
0.152286 0.108383 -0.951996
0.001709 0.199107 -0.044136
0.046634 0.206626 -0.121740
0.042182 0.141702 -0.773820
0.043447 0.067740 -0.365220
0.054846 0.089969 0.762024
0.023210 0.220931 -0.229636
0.028688 0.107117 0.127555
-0.017212 0.180148 0.497585
-0.026931 0.194308 0.670758
0.096616 0.205381 -0.821011
0.110917 0.201892 0.702450
0.106631 -0.247687 -0.045294
0.030574 -0.224386 0.041088
0.091696 -0.210549 -0.892695
0.129561 -0.225995 0.033251
0.020109 -0.067750 0.137443
0.121576 -0.037532 0.126369
0.049052 0.190753 0.590732
0.128355 0.180903 0.078184
0.177447 0.170855 -0.736566
0.181333 0.188953 -0.891020
0.028607 0.221362 0.043424
0.099378 0.247307 -0.041202
0.091599 0.215827 0.666892
0.113487 0.257463 -0.172572
0.206209 -0.229074 0.064148
0.093910 -0.159304 0.601107
0.190003 -0.185836 0.655908
0.187370 -0.205922 -0.743455
0.155756 -0.175108 -0.327048
0.175680 -0.118679 -0.642362
0.198705 -0.146320 -0.418051
0.123236 -0.042581 -0.360103
0.114814 -0.005838 -0.706027
0.175216 -0.005366 -0.429704
0.121422 0.035768 0.566741
0.198380 0.106762 -0.635020
0.430071 0.047288 0.806638
0.199340 -0.011219 0.598106
0.212072 0.154176 -0.425471
0.157543 0.157587 -0.325280
0.205839 0.269654 -0.045124
0.188866 -0.266974 -0.157637
0.225087 -0.257121 -0.029914
0.198192 -0.195383 -0.888947
0.192790 -0.246947 -0.252670
0.263008 -0.195794 -0.810233
0.283054 -0.216145 -0.640827
0.268376 -0.232363 -0.358990
0.363390 -0.207496 0.728519
0.284337 -0.106870 -0.899784
0.247170 -0.106503 0.195298
0.305165 -0.054421 0.298950
0.269678 -0.088237 0.591551
0.239757 0.031876 0.208705
0.265090 0.062493 0.588343
0.315919 0.093641 0.296960
0.192082 0.178435 0.651893
0.360739 0.200513 0.722784
0.264263 0.194799 -0.802206
0.280251 0.206254 -0.673007
0.261960 0.227470 -0.328649
0.183455 0.253409 -0.213829
0.330851 0.223544 0.184641
0.290057 0.242322 -0.141821
0.271201 -0.242032 -0.222179
0.337121 -0.217755 -0.606277
0.330159 -0.176993 -0.115951
0.354105 -0.212901 0.000899
0.354184 -0.206690 0.251783
0.322975 -0.209630 0.646546
0.370902 -0.138155 -0.736868
0.360424 -0.121503 -0.215969
0.379914 -0.142063 0.408586
0.415335 -0.112790 0.792569
0.346077 -0.083911 -0.841797
0.281570 0.049178 -0.913452
0.339146 -0.050668 0.506640
0.347076 0.181949 -0.730165
0.379811 0.093817 -0.146388
0.369661 0.213222 0.278577
0.408668 0.188984 0.402004
0.335472 0.220048 -0.325472
0.309168 0.188634 0.640745
0.355283 0.200354 -0.602000
0.353172 0.215615 -0.016223
0.291599 0.268462 0.004382
0.341349 -0.212050 -0.361166
0.374282 -0.244779 0.143215
0.461469 -0.229199 0.687889
0.443260 -0.238379 0.318713
0.412749 -0.201820 0.486241
0.407299 -0.142722 -0.629428
0.410711 -0.116046 -0.391615
0.424700 -0.166155 0.059314
0.399054 -0.082199 -0.035877
0.341147 0.040726 0.468199
0.380373 0.033414 -0.788070
0.379100 -0.014942 -0.111124
0.425266 0.019676 -0.357208
0.398666 0.142212 -0.346383
0.410847 0.105773 -0.654915
0.404888 0.102207 -0.036414
0.424884 0.151642 0.034166
0.433222 0.225069 0.545984
0.406460 0.228434 0.141238
0.428777 0.246172 0.661129
0.511039 -0.239998 0.400804
0.472346 -0.242895 0.584101
0.498690 -0.210443 0.245441
0.487378 -0.172295 0.747738
0.429097 -0.046903 -0.660928
0.456287 0.008702 0.032368
0.508969 0.094025 0.143037
0.520683 0.212088 0.271485
0.529707 0.131104 0.748144
0.483111 0.232426 0.381521
0.498018 0.235440 0.651818
0.565429 -0.186143 0.341043
0.547456 -0.174893 0.622658
0.505317 -0.071025 0.113240
0.560456 -0.073785 0.211323
0.524963 -0.015355 0.780027
0.608125 0.043047 0.325954
0.572227 0.174736 0.365794
0.568318 0.188904 0.634416
0.614401 -0.065447 0.380509
0.597498 0.064185 0.634955
3 0 4 1
3 1 4 5
3 3 2 7
3 2 6 8
3 2 8 7
3 4 9 5
3 5 9 10
3 7 8 11
3 14 0 15
3 15 0 16
3 13 3 17
3 18 14 32
3 18 0 14
3 16 0 1
3 13 12 3
3 3 12 2
3 18 4 0
3 21 4 18
3 7 17 3
3 17 7 20
3 17 20 19
3 4 21 9
3 19 20 23
3 21 24 9
3 10 22 5
3 25 7 11
3 20 7 25
3 10 26 22
3 27 9 24
3 9 27 10
3 22 26 39
3 29 8 6
3 27 28 10
3 28 26 10
3 8 29 30
3 8 30 11
3 25 11 30
3 13 31 44
3 32 14 45
3 15 16 46
3 13 44 12
3 13 33 31
3 45 14 48
3 48 14 15
3 13 17 33
3 32 51 18
3 35 48 15
3 15 52 35
3 34 2 12
3 33 17 19
3 33 19 54
3 51 36 18
3 34 55 2
3 18 36 21
3 37 21 36
3 55 6 2
3 54 19 23
3 37 42 21
3 42 24 21
3 20 25 23
3 28 56 38
3 6 55 40
3 6 40 29
3 23 25 41
3 27 24 42
3 28 27 56
3 57 26 28
3 42 58 27
3 27 58 56
3 26 57 39
3 60 29 40
3 60 30 29
3 30 43 25
3 43 41 25
3 60 43 30
3 44 31 47
3 62 32 45
3 46 49 15
3 12 44 50
3 44 47 50
3 62 51 32
3 15 49 52
3 50 34 12
3 1 46 16
3 48 35 68
3 55 34 67
3 70 68 35
3 52 71 35
3 5 53 1
3 72 55 67
3 73 37 36
3 38 70 35
3 35 71 38
3 76 55 72
3 75 54 23
3 78 42 37
3 70 38 56
3 75 23 41
3 22 39 80
3 28 79 57
3 78 58 42
3 59 60 40
3 61 60 59
3 61 43 60
3 64 62 45
3 49 46 88
3 50 85 34
3 50 86 85
3 86 50 65
3 47 65 50
3 87 47 31
3 87 31 63
3 63 31 33
3 63 33 66
3 64 45 69
3 45 48 69
3 52 49 89
3 85 67 34
3 46 1 88
3 54 66 33
3 48 68 69
3 1 53 88
3 66 54 94
3 74 53 5
3 54 75 94
3 22 74 5
3 75 77 94
3 22 80 74
3 55 76 40
3 41 77 75
3 78 99 58
3 99 70 58
3 70 56 58
3 39 57 79
3 76 83 40
3 40 83 59
3 81 82 59
3 82 61 59
3 41 84 77
3 83 81 59
3 100 61 82
3 61 100 84
3 84 41 43
3 43 61 84
3 49 88 89
3 90 87 63
3 64 69 91
3 101 67 85
3 103 63 66
3 64 51 62
3 65 92 86
3 47 93 65
3 47 87 93
3 109 88 53
3 101 110 67
3 69 68 91
3 110 72 67
3 103 66 94
3 97 91 68
3 109 53 116
3 65 95 92
3 65 93 95
3 103 94 118
3 116 53 74
3 92 95 96
3 110 120 72
3 120 76 72
3 68 70 97
3 118 94 77
3 119 78 37
3 38 98 28
3 80 125 116
3 74 80 116
3 95 82 96
3 118 77 128
3 119 99 78
3 97 70 99
3 79 28 98
3 96 81 126
3 82 81 96
3 95 100 82
3 80 79 125
3 83 76 120
3 100 127 84
3 77 84 128
3 79 80 39
3 101 85 132
3 85 86 132
3 105 133 64
3 106 89 88
3 90 63 102
3 104 102 103
3 63 103 102
3 104 103 108
3 133 51 64
3 91 105 64
3 105 91 112
3 109 106 88
3 106 109 107
3 107 109 110
3 107 110 101
3 132 86 135
3 111 108 103
3 89 113 52
3 135 86 92
3 102 117 90
3 114 112 91
3 93 87 115
3 87 90 115
3 97 114 91
3 52 113 71
3 116 110 109
3 135 92 96
3 90 117 115
3 103 118 111
3 113 123 71
3 95 93 115
3 111 118 124
3 71 123 38
3 121 110 116
3 110 121 120
3 135 96 126
3 122 114 97
3 100 95 115
3 38 123 98
3 116 125 121
3 117 127 115
3 117 137 127
3 128 124 118
3 140 99 119
3 99 129 97
3 97 129 122
3 115 127 100
3 130 124 128
3 99 140 129
3 98 125 79
3 141 126 81
3 127 137 84
3 84 137 128
3 143 128 137
3 128 143 130
3 120 141 83
3 141 81 83
3 131 101 132
3 131 132 134
3 107 131 106
3 131 107 101
3 146 102 104
3 112 148 105
3 135 134 132
3 149 113 89
3 136 134 135
3 146 117 102
3 51 73 36
3 153 112 114
3 149 152 113
3 146 155 117
3 152 123 113
3 157 111 124
3 152 160 123
3 135 126 136
3 155 137 117
3 153 114 139
3 139 114 122
3 136 126 138
3 160 98 123
3 138 126 141
3 138 141 142
3 144 125 98
3 125 144 121
3 120 121 142
3 142 121 144
3 142 141 120
3 106 162 165
3 106 131 162
3 162 131 163
3 164 133 105
3 165 89 106
3 145 163 134
3 134 163 131
3 165 149 89
3 146 104 147
3 147 104 108
3 147 108 169
3 112 150 148
3 164 73 133
3 73 51 133
3 151 152 149
3 136 145 134
3 147 158 146
3 153 150 112
3 150 154 151
3 154 152 151
3 146 158 155
3 156 150 153
3 150 156 154
3 119 37 73
3 154 156 159
3 154 159 160
3 152 154 160
3 139 156 153
3 136 138 174
3 158 177 155
3 178 124 130
3 155 177 137
3 139 122 129
3 161 138 142
3 137 177 143
3 130 143 177
3 130 177 178
3 182 98 160
3 144 98 182
3 182 161 144
3 144 161 142
3 166 164 105
3 105 148 166
3 165 185 168
3 165 162 185
3 162 163 185
3 166 170 164
3 166 148 167
3 150 167 148
3 167 151 168
3 149 168 151
3 168 149 165
3 190 147 169
3 167 150 151
3 190 173 147
3 169 108 194
3 170 73 164
3 136 171 145
3 173 158 147
3 194 108 111
3 170 196 73
3 174 171 136
3 171 174 172
3 173 175 158
3 194 111 157
3 73 196 119
3 172 174 176
3 183 174 138
3 174 183 176
3 175 177 158
3 157 124 178
3 140 119 196
3 196 179 140
3 175 203 177
3 139 179 180
3 139 180 156
3 180 159 156
3 159 180 181
3 160 159 181
3 161 183 138
3 203 178 177
3 129 140 179
3 179 139 129
3 181 182 160
3 184 182 181
3 161 206 183
3 161 182 184
3 206 161 184
3 167 168 186
3 186 168 207
3 207 168 185
3 163 187 185
3 163 188 187
3 188 163 208
3 163 145 208
3 189 208 145
3 209 190 169
3 191 166 167
3 191 167 186
3 192 207 185
3 185 187 192
3 171 189 145
3 173 190 211
3 166 195 170
3 191 195 166
3 171 172 189
3 189 172 193
3 193 172 216
3 197 173 211
3 170 195 196
3 197 175 173
3 195 217 196
3 172 176 216
3 197 216 175
3 217 179 196
3 176 183 200
3 176 200 201
3 202 220 184
3 203 175 216
3 180 179 198
3 198 204 180
3 202 184 181
3 199 205 184
3 180 204 181
3 204 202 181
3 184 205 206
3 205 225 206
3 206 225 183
3 203 226 178
3 208 189 210
3 211 190 228
3 209 228 190
3 186 207 212
3 207 213 212
3 207 192 213
3 208 214 188
3 193 210 189
3 210 193 211
3 191 186 212
3 215 187 188
3 188 214 215
3 191 212 231
3 211 193 197
3 191 217 195
3 191 231 217
3 187 218 192
3 187 215 218
3 193 216 197
3 213 192 219
3 192 199 219
3 192 218 199
3 231 221 217
3 219 199 220
3 215 222 218
3 217 198 179
3 217 221 198
3 184 220 199
3 218 222 199
3 201 216 176
3 216 201 224
3 204 198 221
3 221 220 204
3 220 202 204
3 216 224 203
3 222 205 199
3 222 223 205
3 223 225 205
3 225 236 183
3 183 236 200
3 200 236 201
3 224 226 203
3 229 208 210
3 229 210 227
3 211 227 210
3 228 227 211
3 208 229 214
3 169 230 209
3 169 194 230
3 232 215 214
3 214 240 232
3 214 229 240
3 212 213 231
3 230 194 242
3 213 219 231
3 242 194 157
3 215 232 222
3 240 233 232
3 231 219 221
3 219 220 221
3 232 223 222
3 232 233 223
3 242 157 235
3 235 157 178
3 225 223 233
3 233 234 225
3 235 178 237
3 236 225 234
3 224 201 236
3 237 224 236
3 226 224 237
3 237 178 226
3 227 238 229
3 227 239 238
3 227 228 239
3 209 239 228
3 209 230 239
3 229 238 241
3 229 241 240
3 242 239 230
3 241 233 240
3 241 243 233
3 243 244 233
3 233 244 234
3 234 244 236
3 245 235 237
3 244 245 236
3 245 237 236
3 246 241 238
3 238 239 246
3 239 247 246
3 239 242 247
3 241 246 243
3 246 247 243
3 242 235 247
3 243 247 244
3 247 245 244
3 235 245 247
