ply
format ascii 1.0
element vertex 952
property float x
property float y
property float z
element face 1896
property list uchar int vertex_indices
end_header
-0.464417 -0.075000 -0.675000
-0.465754 -0.075000 -0.600000
-0.463234 -0.075000 -0.525000
-0.462219 -0.075000 -0.450000
-0.464405 -0.075000 -0.375000
-0.467025 -0.075000 -0.300000
-0.458832 -0.075000 -0.225000
-0.461250 0.000000 -0.675000
-0.466235 0.000000 -0.600000
-0.464038 0.000000 -0.525000
-0.464496 0.000000 -0.450000
-0.466460 0.000000 -0.375000
-0.468851 0.000000 -0.300000
-0.460790 0.000000 -0.225000
-0.377454 -0.225000 -0.675000
-0.397575 -0.225000 -0.600000
-0.400536 -0.225000 -0.525000
-0.397383 -0.225000 -0.450000
-0.396901 -0.225000 -0.375000
-0.394713 -0.225000 -0.300000
-0.386075 -0.225000 -0.225000
-0.377558 -0.150000 -0.750000
-0.450000 -0.122074 -0.675000
-0.438169 -0.150000 -0.675000
-0.450000 -0.136151 -0.600000
-0.445673 -0.150000 -0.600000
-0.450000 -0.127124 -0.525000
-0.443123 -0.150000 -0.525000
-0.450000 -0.119489 -0.450000
-0.440409 -0.150000 -0.450000
-0.450000 -0.129211 -0.375000
-0.443549 -0.150000 -0.375000
-0.450000 -0.130559 -0.300000
-0.443502 -0.150000 -0.300000
-0.450000 -0.103418 -0.225000
-0.436410 -0.150000 -0.225000
-0.413877 -0.150000 -0.150000
-0.389056 -0.150000 -0.075000
-0.450000 -0.075000 -0.700358
-0.404372 -0.075000 -0.750000
-0.450000 -0.075000 -0.200435
-0.434511 -0.075000 -0.150000
-0.405222 -0.075000 -0.075000
-0.378071 -0.075000 0.000000
-0.450000 0.000000 -0.692822
-0.397394 0.000000 -0.750000
-0.450000 0.030713 -0.675000
-0.450000 0.053258 -0.600000
-0.450000 0.049351 -0.525000
-0.450000 0.050095 -0.450000
-0.450000 0.061692 -0.375000
-0.450000 0.072597 -0.300000
-0.450000 0.000000 -0.191825
-0.450000 0.052318 -0.225000
-0.437564 0.000000 -0.150000
-0.406800 0.000000 -0.075000
-0.430217 0.075000 -0.675000
-0.442646 0.075000 -0.600000
-0.442284 0.075000 -0.525000
-0.442429 0.075000 -0.450000
-0.446110 0.075000 -0.375000
-0.449336 0.075000 -0.300000
-0.445397 0.075000 -0.225000
-0.421629 0.075000 -0.150000
-0.385987 0.075000 -0.075000
-0.380294 0.150000 -0.675000
-0.398498 0.150000 -0.600000
-0.398317 0.150000 -0.525000
-0.395319 0.150000 -0.450000
-0.395984 0.150000 -0.375000
-0.397511 0.150000 -0.300000
-0.390430 0.150000 -0.225000
-0.375000 -0.227148 -0.675000
-0.375000 -0.245336 -0.600000
-0.375000 -0.248994 -0.525000
-0.375000 -0.246434 -0.450000
-0.375000 -0.244996 -0.375000
-0.375000 -0.242568 -0.300000
-0.375000 -0.234971 -0.225000
-0.375000 -0.225000 -0.677950
-0.375000 -0.153172 -0.750000
-0.375000 -0.225000 -0.181248
-0.375000 -0.214420 -0.150000
-0.362634 -0.225000 -0.150000
-0.375000 -0.172933 -0.075000
-0.332000 -0.225000 -0.075000
-0.316078 -0.225000 0.000000
-0.375000 -0.150000 -0.751838
-0.375000 -0.150000 -0.038960
-0.375000 -0.087416 0.000000
-0.359464 -0.150000 0.000000
-0.324443 -0.150000 0.075000
-0.375000 -0.075000 -0.769440
-0.375000 -0.075000 0.007129
-0.375000 -0.019113 0.000000
-0.347796 -0.075000 0.075000
-0.314372 -0.075000 0.150000
-0.375000 0.000000 -0.766132
-0.375000 0.039337 -0.750000
-0.375000 0.000000 -0.002213
-0.374030 0.000000 0.000000
-0.343917 0.000000 0.075000
-0.312774 0.000000 0.150000
-0.375000 0.075000 -0.732355
-0.339675 0.075000 -0.750000
-0.375000 0.137520 -0.150000
-0.375000 0.075000 -0.050320
-0.375000 0.094075 -0.075000
-0.355133 0.075000 0.000000
-0.322724 0.075000 0.075000
-0.375000 0.150000 -0.681280
-0.375000 0.155330 -0.675000
-0.375000 0.175728 -0.600000
-0.375000 0.175358 -0.525000
-0.375000 0.170746 -0.450000
-0.375000 0.169887 -0.375000
-0.375000 0.171052 -0.300000
-0.375000 0.150000 -0.181862
-0.375000 0.162364 -0.225000
-0.360683 0.150000 -0.150000
-0.336030 0.150000 -0.075000
-0.313350 0.150000 0.000000
-0.300000 -0.257024 -0.675000
-0.300000 -0.278476 -0.600000
-0.300000 -0.274076 -0.525000
-0.300000 -0.263921 -0.450000
-0.300000 -0.259204 -0.375000
-0.300000 -0.257902 -0.300000
-0.300000 -0.258120 -0.225000
-0.300000 -0.256339 -0.150000
-0.300000 -0.248020 -0.075000
-0.300000 -0.238552 0.000000
-0.300000 -0.225000 -0.715872
-0.300000 -0.183168 -0.750000
-0.250078 -0.225000 -0.450000
-0.257634 -0.225000 -0.375000
-0.258370 -0.225000 -0.300000
-0.248016 -0.225000 -0.225000
-0.300000 -0.225000 0.030746
-0.300000 -0.192467 0.075000
-0.273045 -0.225000 0.075000
-0.237468 -0.225000 0.150000
-0.300000 -0.150000 -0.768654
-0.300000 -0.150000 0.136063
-0.300000 -0.130040 0.150000
-0.293721 -0.150000 0.150000
-0.241287 -0.150000 0.225000
-0.300000 -0.075000 -0.786171
-0.300000 -0.075000 0.174137
-0.265870 -0.075000 0.225000
-0.300000 0.000000 -0.787773
-0.300000 0.000000 0.171290
-0.300000 0.050224 0.150000
-0.264645 0.000000 0.225000
-0.300000 0.075000 -0.766505
-0.300000 0.106052 -0.750000
-0.300000 0.075000 0.133636
-0.300000 0.121794 0.075000
-0.292869 0.075000 0.150000
-0.243779 0.075000 0.225000
-0.300000 0.150000 -0.720950
-0.300000 0.187049 -0.675000
-0.300000 0.210591 -0.600000
-0.300000 0.202060 -0.525000
-0.300000 0.185252 -0.450000
-0.247616 0.150000 -0.450000
-0.300000 0.172190 -0.375000
-0.271136 0.150000 -0.375000
-0.300000 0.175444 -0.300000
-0.265716 0.150000 -0.300000
-0.300000 0.182506 -0.225000
-0.240505 0.150000 -0.225000
-0.300000 0.186068 -0.150000
-0.300000 0.179398 -0.075000
-0.300000 0.150000 0.033269
-0.300000 0.162526 0.000000
-0.278813 0.150000 0.075000
-0.243165 0.150000 0.150000
-0.225000 -0.267233 -0.675000
-0.225000 -0.274089 -0.600000
-0.225000 -0.249991 -0.525000
-0.225000 -0.234978 -0.150000
-0.225000 -0.257820 -0.075000
-0.225000 -0.264832 0.000000
-0.225000 -0.256645 0.075000
-0.225000 -0.234656 0.150000
-0.225000 -0.225000 -0.726396
-0.225000 -0.193558 -0.750000
-0.225000 -0.225000 -0.484581
-0.185845 -0.225000 -0.525000
-0.225000 -0.193209 -0.450000
-0.225000 -0.174850 -0.375000
-0.225000 -0.177145 -0.300000
-0.225000 -0.225000 -0.177812
-0.225000 -0.196810 -0.225000
-0.214300 -0.225000 -0.150000
-0.178019 -0.225000 -0.075000
-0.225000 -0.225000 0.169259
-0.225000 -0.175912 0.225000
-0.178853 -0.225000 0.225000
-0.225000 -0.150000 -0.773801
-0.195387 -0.150000 -0.450000
-0.211786 -0.150000 -0.375000
-0.208917 -0.150000 -0.300000
-0.196690 -0.150000 -0.225000
-0.174232 -0.150000 -0.150000
-0.225000 -0.150000 0.247997
-0.185462 -0.150000 0.300000
-0.225000 -0.075000 -0.791043
-0.175893 -0.075000 -0.450000
-0.199415 -0.075000 -0.375000
-0.190378 -0.075000 -0.300000
-0.177352 -0.075000 -0.225000
-0.151221 -0.075000 -0.150000
-0.225000 -0.075000 0.278726
-0.208325 -0.075000 0.300000
-0.159283 -0.075000 0.375000
-0.225000 0.000000 -0.797031
-0.178926 0.000000 -0.450000
-0.199767 0.000000 -0.375000
-0.188669 0.000000 -0.300000
-0.173243 0.000000 -0.225000
-0.225000 0.000000 0.279966
-0.210449 0.000000 0.300000
-0.161417 0.000000 0.375000
-0.225000 0.075000 -0.780274
-0.225000 0.133182 -0.750000
-0.225000 0.117229 -0.450000
-0.198710 0.075000 -0.450000
-0.225000 0.078278 -0.375000
-0.223196 0.075000 -0.375000
-0.225000 0.101008 -0.300000
-0.209289 0.075000 -0.300000
-0.225000 0.135169 -0.225000
-0.190724 0.075000 -0.225000
-0.165585 0.075000 -0.150000
-0.225000 0.075000 0.249927
-0.225000 0.104136 0.225000
-0.188626 0.075000 0.300000
-0.225000 0.150000 -0.738207
-0.184299 0.150000 -0.750000
-0.225000 0.196901 -0.675000
-0.225000 0.203909 -0.600000
-0.225000 0.150000 -0.482284
-0.225000 0.172972 -0.525000
-0.186432 0.150000 -0.525000
-0.225000 0.150000 -0.194109
-0.225000 0.164110 -0.150000
-0.211001 0.150000 -0.150000
-0.225000 0.184767 -0.075000
-0.173605 0.150000 -0.075000
-0.225000 0.192695 0.000000
-0.225000 0.185489 0.075000
-0.225000 0.150000 0.176595
-0.225000 0.165384 0.150000
-0.186005 0.150000 0.225000
-0.150000 -0.265413 -0.675000
-0.150000 -0.257649 -0.600000
-0.150000 -0.238482 0.000000
-0.150000 -0.255424 0.075000
-0.150000 -0.257489 0.150000
-0.150000 -0.241711 0.225000
-0.150000 -0.225000 -0.728500
-0.150000 -0.198319 -0.750000
-0.150000 -0.225000 -0.554573
-0.150000 -0.186220 -0.525000
-0.150000 -0.225000 -0.029004
-0.150000 -0.188416 -0.075000
-0.134382 -0.225000 0.000000
-0.112019 -0.225000 0.075000
-0.087131 -0.225000 0.150000
-0.150000 -0.225000 0.263308
-0.150000 -0.198096 0.300000
-0.119987 -0.225000 0.300000
-0.087149 -0.225000 0.375000
-0.150000 -0.150000 -0.776961
-0.150000 -0.150000 -0.500684
-0.101568 -0.150000 -0.525000
-0.150000 -0.150000 -0.110194
-0.121776 -0.150000 -0.075000
-0.086675 -0.150000 0.000000
-0.150000 -0.150000 0.356604
-0.150000 -0.111624 0.375000
-0.139355 -0.150000 0.375000
-0.090956 -0.150000 0.450000
-0.150000 -0.075000 -0.795396
-0.150000 -0.075000 -0.473071
-0.150000 -0.075000 -0.147921
-0.150000 -0.066727 -0.150000
-0.089301 -0.075000 -0.075000
-0.150000 -0.075000 0.390180
-0.111669 -0.075000 0.450000
-0.150000 0.000000 -0.804649
-0.150000 0.000000 -0.475116
-0.150000 0.000000 -0.169920
-0.150000 0.028304 -0.150000
-0.132846 0.000000 -0.150000
-0.090596 0.000000 -0.075000
-0.150000 0.000000 0.393658
-0.150000 0.046277 0.375000
-0.112857 0.000000 0.450000
-0.150000 0.075000 -0.793316
-0.150000 0.075000 -0.496900
-0.150000 0.115028 -0.525000
-0.104841 0.075000 -0.525000
-0.150000 0.075000 -0.121295
-0.150000 0.119641 -0.075000
-0.118132 0.075000 -0.075000
-0.087474 0.075000 0.000000
-0.150000 0.075000 0.362083
-0.150000 0.127613 0.300000
-0.142270 0.075000 0.375000
-0.093086 0.075000 0.450000
-0.150000 0.150000 -0.757892
-0.150000 0.158667 -0.750000
-0.150000 0.199683 -0.675000
-0.150000 0.150000 -0.551625
-0.150000 0.186452 -0.600000
-0.150000 0.150000 -0.033543
-0.150000 0.164969 0.000000
-0.133492 0.150000 0.000000
-0.150000 0.185454 0.075000
-0.092992 0.150000 0.075000
-0.150000 0.190285 0.150000
-0.150000 0.150000 0.271169
-0.150000 0.173515 0.225000
-0.124921 0.150000 0.300000
-0.089035 0.150000 0.375000
-0.075000 -0.261451 -0.675000
-0.075000 -0.243652 -0.600000
-0.075000 -0.244354 0.225000
-0.075000 -0.248726 0.300000
-0.075000 -0.235119 0.375000
-0.075000 -0.225000 -0.726946
-0.075000 -0.198516 -0.750000
-0.075000 -0.225000 -0.580065
-0.075000 -0.177686 0.075000
-0.075000 -0.225000 0.169831
-0.075000 -0.214735 0.150000
-0.039147 -0.225000 0.225000
-0.075000 -0.225000 0.397492
-0.075000 -0.179953 0.450000
-0.046205 -0.225000 0.450000
-0.075000 -0.150000 -0.777737
-0.075000 -0.150000 -0.536454
-0.075000 -0.102235 -0.525000
-0.075000 -0.150000 0.028720
-0.075000 -0.110255 0.000000
-0.056200 -0.150000 0.075000
-0.025430 -0.150000 0.150000
-0.075000 -0.150000 0.477711
-0.044800 -0.150000 0.525000
-0.075000 -0.075000 -0.797822
-0.075000 -0.075000 -0.518785
-0.015497 -0.075000 -0.150000
-0.075000 -0.075000 -0.038075
-0.020984 -0.075000 -0.075000
-0.058493 -0.075000 0.000000
-0.030847 -0.075000 0.075000
-0.075000 -0.075000 0.504765
-0.061197 -0.075000 0.525000
-0.008899 -0.075000 0.600000
-0.075000 0.000000 -0.807365
-0.075000 0.000000 -0.523508
-0.075000 0.006572 -0.525000
-0.003426 0.000000 -0.525000
-0.003220 0.000000 -0.150000
-0.075000 0.000000 -0.034606
-0.075000 0.033540 0.000000
-0.059839 0.000000 0.000000
-0.035403 0.000000 0.075000
-0.000169 0.000000 0.150000
-0.075000 0.000000 0.504285
-0.059838 0.000000 0.525000
-0.009910 0.000000 0.600000
-0.075000 0.075000 -0.796826
-0.075000 0.075000 -0.538210
-0.075000 0.075000 0.024571
-0.075000 0.124669 0.075000
-0.050319 0.075000 0.075000
-0.019367 0.075000 0.150000
-0.075000 0.075000 0.474695
-0.075000 0.103054 0.450000
-0.037072 0.075000 0.525000
-0.075000 0.150000 -0.763348
-0.075000 0.163882 -0.750000
-0.075000 0.201816 -0.675000
-0.075000 0.150000 -0.579294
-0.075000 0.170058 -0.600000
-0.075000 0.150000 0.114002
-0.075000 0.161235 0.150000
-0.061932 0.150000 0.150000
-0.075000 0.178142 0.225000
-0.026950 0.150000 0.225000
-0.075000 0.178988 0.300000
-0.075000 0.150000 0.396800
-0.075000 0.161881 0.375000
-0.035636 0.150000 0.450000
0.000000 -0.261605 -0.675000
0.000000 -0.242675 -0.600000
0.000000 -0.244782 0.300000
0.000000 -0.265562 0.375000
0.000000 -0.258710 0.450000
0.000000 -0.225000 -0.726822
0.000000 -0.198423 -0.750000
0.000000 -0.225000 -0.580509
0.000000 -0.225000 0.264307
0.000000 -0.191075 0.225000
0.035093 -0.225000 0.300000
0.000000 -0.225000 0.524050
0.000000 -0.224093 0.525000
0.000683 -0.225000 0.525000
0.040232 -0.225000 0.600000
0.074885 -0.225000 0.675000
0.000000 -0.150000 -0.778107
0.000000 -0.150000 -0.541775
0.000000 -0.076352 -0.525000
0.033459 -0.150000 -0.525000
0.000000 -0.096319 -0.150000
0.035916 -0.150000 -0.150000
0.000000 -0.084843 -0.075000
0.040159 -0.150000 -0.075000
0.000000 -0.150000 0.185099
0.000000 -0.089699 0.150000
0.035576 -0.150000 0.225000
0.000000 -0.150000 0.590283
0.000000 -0.121033 0.600000
0.005650 -0.150000 0.600000
0.033987 -0.150000 0.675000
0.059936 -0.150000 0.750000
0.000000 -0.075000 -0.799082
0.000000 -0.075000 -0.524689
0.000000 -0.014221 -0.525000
0.000000 -0.075000 -0.160940
0.000000 -0.075000 -0.067792
0.000000 -0.040863 -0.075000
0.000000 -0.075000 0.137913
0.000000 -0.002043 0.150000
0.006422 -0.075000 0.150000
0.057463 -0.075000 0.225000
0.000000 -0.075000 0.622687
0.018204 -0.075000 0.675000
0.048726 -0.075000 0.750000
0.000000 0.000000 -0.808336
0.000000 0.000000 -0.525065
0.000136 0.000000 -0.525000
0.000000 0.000000 -0.152093
0.000000 0.000000 -0.131922
0.000000 0.003549 -0.150000
0.007582 0.000000 -0.075000
0.000000 0.000000 0.150207
0.061952 0.000000 0.225000
0.000000 0.000000 0.625971
0.000000 0.042433 0.600000
0.017811 0.000000 0.675000
0.055788 0.000000 0.750000
0.000000 0.075000 -0.796478
0.000000 0.075000 -0.540883
0.032156 0.075000 -0.525000
0.045642 0.075000 -0.150000
0.053973 0.075000 -0.075000
0.000000 0.075000 0.176450
0.000000 0.124854 0.225000
0.040199 0.075000 0.225000
0.000000 0.075000 0.585548
0.000000 0.126245 0.525000
0.007674 0.075000 0.600000
0.035408 0.075000 0.675000
0.074300 0.075000 0.750000
0.000000 0.150000 -0.762427
0.000000 0.163330 -0.750000
0.000000 0.204344 -0.675000
0.000000 0.150000 -0.580389
0.000000 0.168747 -0.600000
0.000000 0.150000 0.256674
0.000000 0.173600 0.300000
0.040816 0.150000 0.300000
0.000000 0.189785 0.375000
0.000000 0.150000 0.496606
0.000000 0.173735 0.450000
0.025262 0.150000 0.525000
0.049842 0.150000 0.600000
0.075000 -0.264410 -0.675000
0.075000 -0.259246 -0.600000
0.075000 -0.248084 0.375000
0.075000 -0.272775 0.450000
0.075000 -0.270610 0.525000
0.075000 -0.251074 0.600000
0.075000 -0.225113 0.675000
0.075000 -0.225000 -0.728183
0.075000 -0.198679 -0.750000
0.075000 -0.225000 -0.550247
0.075000 -0.189618 -0.525000
0.108710 -0.225000 -0.525000
0.075000 -0.182522 -0.150000
0.126705 -0.225000 -0.150000
0.075000 -0.180266 -0.075000
0.075000 -0.225000 0.336705
0.075000 -0.185990 0.300000
0.111251 -0.225000 0.375000
0.075000 -0.225000 0.675354
0.075000 -0.183019 0.750000
0.108928 -0.225000 0.750000
0.075000 -0.150000 -0.777651
0.075000 -0.150000 -0.501005
0.125622 -0.150000 -0.450000
0.075000 -0.150000 -0.177612
0.126840 -0.150000 -0.225000
0.075000 -0.150000 -0.052956
0.075000 -0.150000 0.268859
0.099004 -0.150000 0.300000
0.075000 -0.150000 0.780786
0.112010 -0.150000 0.825000
0.075000 -0.075000 -0.798511
0.075000 -0.075000 -0.481720
0.101744 -0.075000 -0.450000
0.133388 -0.075000 -0.375000
0.132170 -0.075000 -0.300000
0.075000 -0.075000 -0.207227
0.093810 -0.075000 -0.225000
0.075000 -0.075000 -0.028025
0.075000 -0.075000 0.246990
0.116326 -0.075000 0.300000
0.075000 -0.075000 0.793028
0.105515 -0.075000 0.825000
0.075000 0.000000 -0.808529
0.075000 0.000000 -0.477648
0.096500 0.000000 -0.450000
0.119711 0.000000 -0.375000
0.119505 0.000000 -0.300000
0.075000 0.000000 -0.208492
0.090465 0.000000 -0.225000
0.075000 0.000000 -0.029563
0.075000 0.000000 0.243448
0.119227 0.000000 0.300000
0.075000 0.000000 0.778807
0.114711 0.000000 0.825000
0.075000 0.075000 -0.798027
0.075000 0.075000 -0.498032
0.075000 0.114435 -0.525000
0.114188 0.075000 -0.450000
0.135226 0.075000 -0.375000
0.136981 0.075000 -0.300000
0.075000 0.075000 -0.176956
0.112951 0.075000 -0.225000
0.075000 0.101693 -0.150000
0.075000 0.075000 -0.061656
0.075000 0.093764 -0.075000
0.075000 0.075000 0.273356
0.075000 0.108915 0.300000
0.096864 0.075000 0.300000
0.142674 0.075000 0.375000
0.075000 0.143909 0.675000
0.075000 0.075000 0.751110
0.075000 0.076437 0.750000
0.137470 0.075000 0.825000
0.075000 0.150000 -0.763018
0.075000 0.163387 -0.750000
0.075000 0.207780 -0.675000
0.075000 0.150000 -0.552556
0.075000 0.187481 -0.600000
0.110164 0.150000 -0.525000
0.135150 0.150000 -0.150000
0.075000 0.150000 0.346763
0.075000 0.163050 0.375000
0.090229 0.150000 0.375000
0.075000 0.180573 0.450000
0.134013 0.150000 0.450000
0.075000 0.178453 0.525000
0.075000 0.150000 0.664470
0.075000 0.171825 0.600000
0.080451 0.150000 0.675000
0.125144 0.150000 0.750000
0.150000 -0.268271 -0.675000
0.150000 -0.275909 -0.600000
0.150000 -0.249708 -0.525000
0.150000 -0.238328 -0.150000
0.150000 -0.235438 0.450000
0.150000 -0.262674 0.525000
0.150000 -0.276909 0.600000
0.150000 -0.272234 0.675000
0.150000 -0.248960 0.750000
0.150000 -0.225000 -0.730880
0.150000 -0.201167 -0.750000
0.150000 -0.225000 -0.486554
0.150000 -0.187201 -0.450000
0.175186 -0.225000 -0.450000
0.199618 -0.225000 -0.375000
0.197786 -0.225000 -0.300000
0.150000 -0.225000 -0.176293
0.150000 -0.180970 -0.225000
0.179693 -0.225000 -0.225000
0.150000 -0.225000 -0.098531
0.150000 -0.216532 -0.075000
0.168719 -0.225000 -0.075000
0.150000 -0.225000 0.428028
0.150000 -0.179410 0.375000
0.163771 -0.225000 0.450000
0.209824 -0.225000 0.525000
0.150000 -0.225000 0.806402
0.150000 -0.205793 0.825000
0.182030 -0.225000 0.825000
0.150000 -0.150000 -0.779046
0.150000 -0.150000 -0.398535
0.150000 -0.123221 -0.375000
0.159081 -0.150000 -0.375000
0.150000 -0.150000 -0.270332
0.150000 -0.121213 -0.300000
0.160492 -0.150000 -0.300000
0.150000 -0.150000 -0.023775
0.150000 -0.150000 0.354862
0.168116 -0.150000 0.375000
0.219230 -0.150000 0.450000
0.150000 -0.150000 0.852385
0.150000 -0.075000 -0.799886
0.150000 -0.075000 -0.004757
0.168538 -0.075000 0.000000
0.150000 -0.075000 0.337962
0.180257 -0.075000 0.375000
0.150000 -0.075000 0.859312
0.150000 0.000000 -0.809415
0.150000 0.000000 -0.011300
0.183975 0.000000 0.000000
0.150000 0.000000 0.339081
0.150000 0.059674 0.375000
0.175041 0.000000 0.375000
0.150000 0.000000 0.853309
0.150000 0.075000 -0.798794
0.150000 0.131464 -0.450000
0.150000 0.101364 -0.375000
0.150000 0.098716 -0.300000
0.150000 0.133399 -0.225000
0.150000 0.075000 -0.037145
0.150000 0.132120 -0.075000
0.150000 0.075000 0.383823
0.150000 0.136856 0.450000
0.212721 0.075000 0.450000
0.150000 0.075000 0.835208
0.150000 0.094604 0.825000
0.150000 0.150000 -0.764544
0.150000 0.164765 -0.750000
0.150000 0.210189 -0.675000
0.150000 0.211407 -0.600000
0.150000 0.150000 -0.475754
0.150000 0.175525 -0.525000
0.165486 0.150000 -0.450000
0.182914 0.150000 -0.375000
0.183461 0.150000 -0.300000
0.150000 0.150000 -0.185596
0.162649 0.150000 -0.225000
0.150000 0.150000 -0.121757
0.150000 0.159128 -0.150000
0.190840 0.150000 -0.075000
0.150000 0.150000 0.469818
0.150000 0.175411 0.525000
0.201952 0.150000 0.525000
0.150000 0.195801 0.600000
0.150000 0.191767 0.675000
0.150000 0.150000 0.780161
0.150000 0.168779 0.750000
0.210257 0.150000 0.825000
0.225000 -0.265651 -0.675000
0.225000 -0.283196 -0.600000
0.225000 -0.282352 -0.525000
0.225000 -0.271825 -0.450000
0.298135 -0.300000 -0.450000
0.225000 -0.255687 -0.375000
0.294899 -0.300000 -0.375000
0.225000 -0.258611 -0.300000
0.296122 -0.300000 -0.300000
0.225000 -0.265112 -0.225000
0.225000 -0.271875 -0.150000
0.225000 -0.244063 -0.075000
0.225000 -0.253516 0.600000
0.225000 -0.274023 0.675000
0.225000 -0.265730 0.750000
0.225000 -0.240458 0.825000
0.225000 -0.225000 -0.731526
0.225000 -0.202886 -0.750000
0.225000 -0.225000 -0.052225
0.225000 -0.225000 0.545175
0.225000 -0.209522 0.525000
0.279854 -0.225000 0.600000
0.225000 -0.225000 0.835942
0.225000 -0.150000 -0.780079
0.225000 -0.150000 -0.003325
0.225000 -0.136123 0.000000
0.260691 -0.150000 0.000000
0.225000 -0.150000 0.458290
0.225000 -0.133248 0.450000
0.277164 -0.150000 0.525000
0.225000 -0.150000 0.868192
0.225000 -0.075000 -0.800093
0.225000 -0.075000 0.013262
0.225000 -0.075000 0.428815
0.243936 -0.075000 0.450000
0.225000 -0.075000 0.873604
0.225000 0.000000 -0.807048
0.225000 0.000000 0.012863
0.225000 0.034781 0.000000
0.225000 0.000000 0.431049
0.225000 0.048106 0.450000
0.243200 0.000000 0.450000
0.225000 0.000000 0.867831
0.225000 0.075000 -0.797026
0.225000 0.075000 -0.014792
0.285311 0.075000 0.000000
0.225000 0.075000 0.462703
0.225000 0.133896 0.525000
0.290932 0.075000 0.525000
0.225000 0.075000 0.859337
0.225000 0.150000 -0.759867
0.225000 0.160231 -0.750000
0.252206 0.150000 -0.750000
0.225000 0.203628 -0.675000
0.225000 0.213777 -0.600000
0.225000 0.206993 -0.525000
0.225000 0.196269 -0.450000
0.225000 0.188390 -0.375000
0.225000 0.188816 -0.300000
0.225000 0.193467 -0.225000
0.225000 0.193443 -0.150000
0.225000 0.150000 -0.063295
0.225000 0.161654 -0.075000
0.225000 0.150000 0.546429
0.225000 0.178415 0.600000
0.285268 0.150000 0.600000
0.225000 0.200501 0.675000
0.225000 0.199722 0.750000
0.225000 0.150000 0.831102
0.225000 0.157316 0.825000
0.300000 -0.300564 -0.450000
0.300000 -0.302281 -0.375000
0.300000 -0.301653 -0.300000
0.300000 -0.241207 -0.675000
0.300000 -0.265599 -0.600000
0.300000 -0.300000 -0.452631
0.300000 -0.283022 -0.525000
0.301648 -0.300000 -0.450000
0.308530 -0.300000 -0.375000
0.300000 -0.300000 -0.283752
0.306613 -0.300000 -0.300000
0.300000 -0.293508 -0.225000
0.300000 -0.282307 -0.150000
0.300000 -0.248104 -0.075000
0.300000 -0.249835 0.675000
0.300000 -0.257455 0.750000
0.300000 -0.268734 0.825000
0.300000 -0.225000 -0.699450
0.300000 -0.175229 -0.750000
0.320450 -0.225000 -0.675000
0.353683 -0.225000 -0.600000
0.300000 -0.225000 -0.047196
0.300000 -0.156678 0.000000
0.300000 -0.225000 0.621250
0.300000 -0.210030 0.600000
0.339137 -0.225000 0.675000
0.358572 -0.225000 0.750000
0.300000 -0.225000 0.843941
0.372494 -0.225000 0.825000
0.300000 -0.150000 -0.766373
0.322849 -0.150000 -0.750000
0.367995 -0.150000 -0.675000
0.300000 -0.150000 0.003635
0.316769 -0.150000 0.000000
0.300000 -0.150000 0.547207
0.300000 -0.108475 0.525000
0.353509 -0.150000 0.600000
0.300000 -0.150000 0.864007
0.300000 -0.075000 -0.785520
0.345093 -0.075000 -0.750000
0.300000 -0.075000 0.025996
0.300000 -0.075000 0.508784
0.318291 -0.075000 0.525000
0.300000 -0.075000 0.871553
0.300000 0.000000 -0.786274
0.338853 0.000000 -0.750000
0.300000 0.000000 0.026850
0.300000 0.000000 0.502417
0.300000 0.058574 0.525000
0.324791 0.000000 0.525000
0.300000 0.000000 0.867059
0.300000 0.075000 -0.770719
0.300000 0.114388 -0.750000
0.321181 0.075000 -0.750000
0.371920 0.075000 -0.675000
0.300000 0.075000 0.003875
0.300000 0.082670 0.000000
0.300000 0.075000 0.533436
0.300000 0.139994 0.600000
0.360691 0.075000 0.600000
0.300000 0.075000 0.859097
0.300000 0.150000 -0.716316
0.300000 0.171260 -0.675000
0.322562 0.150000 -0.675000
0.300000 0.189265 -0.600000
0.356846 0.150000 -0.600000
0.300000 0.204505 -0.525000
0.300000 0.210629 -0.450000
0.300000 0.210263 -0.375000
0.300000 0.208918 -0.300000
0.300000 0.207979 -0.225000
0.300000 0.206142 -0.150000
0.300000 0.150000 -0.041613
0.300000 0.177899 -0.075000
0.300000 0.150000 0.617428
0.300000 0.174141 0.675000
0.340124 0.150000 0.675000
0.300000 0.187375 0.750000
0.356324 0.150000 0.750000
0.300000 0.150000 0.830829
0.300000 0.156631 0.825000
0.312178 0.150000 0.825000
0.375000 -0.242968 -0.525000
0.375000 -0.266119 -0.450000
0.375000 -0.277081 -0.375000
0.375000 -0.277561 -0.300000
0.375000 -0.270620 -0.225000
0.375000 -0.258922 -0.150000
0.375000 -0.230915 -0.075000
0.375000 -0.225000 -0.563131
0.375000 -0.195353 -0.600000
0.392316 -0.225000 -0.525000
0.413877 -0.225000 -0.450000
0.429349 -0.225000 -0.375000
0.427932 -0.225000 -0.300000
0.425057 -0.225000 -0.225000
0.415564 -0.225000 -0.150000
0.375000 -0.225000 -0.068049
0.382287 -0.225000 -0.075000
0.375000 -0.192782 0.675000
0.375000 -0.210603 0.750000
0.375000 -0.223022 0.825000
0.375000 -0.150000 -0.659515
0.375000 -0.129736 -0.675000
0.397899 -0.150000 -0.600000
0.426255 -0.150000 -0.525000
0.375000 -0.150000 -0.014843
0.434710 -0.150000 -0.075000
0.375000 -0.115304 0.000000
0.375000 -0.150000 0.625764
0.375000 -0.112013 0.600000
0.404975 -0.150000 0.675000
0.418545 -0.150000 0.750000
0.375000 -0.150000 0.854379
0.438082 -0.150000 0.825000
0.375000 -0.075000 -0.706696
0.391882 -0.075000 -0.675000
0.417871 -0.075000 -0.600000
0.440916 -0.075000 -0.525000
0.375000 -0.075000 0.015537
0.407226 -0.075000 0.000000
0.375000 -0.075000 0.579656
0.391685 -0.075000 0.600000
0.436667 -0.075000 0.675000
0.375000 -0.075000 0.865782
0.375000 0.000000 -0.703816
0.375000 0.065469 -0.675000
0.394378 0.000000 -0.675000
0.420176 0.000000 -0.600000
0.448986 0.000000 -0.525000
0.375000 0.000000 0.021724
0.426051 0.000000 0.000000
0.375000 0.000000 0.577202
0.375000 0.047175 0.600000
0.394105 0.000000 0.600000
0.428213 0.000000 0.675000
0.449549 0.000000 0.750000
0.375000 0.000000 0.858480
0.444127 0.000000 0.825000
0.375000 0.075000 -0.668217
0.375000 0.126347 -0.600000
0.403565 0.075000 -0.600000
0.429737 0.075000 -0.525000
0.375000 0.075000 0.002490
0.375000 0.079531 0.000000
0.380158 0.075000 0.000000
0.375000 0.075000 0.623630
0.375000 0.115269 0.675000
0.399549 0.075000 0.675000
0.375000 0.131316 0.750000
0.413930 0.075000 0.750000
0.375000 0.075000 0.835641
0.375000 0.095268 0.825000
0.393078 0.075000 0.825000
0.375000 0.150000 -0.563721
0.375000 0.164380 -0.525000
0.390560 0.150000 -0.525000
0.375000 0.181905 -0.450000
0.417091 0.150000 -0.450000
0.375000 0.188732 -0.375000
0.426514 0.150000 -0.375000
0.375000 0.188631 -0.300000
0.425294 0.150000 -0.300000
0.375000 0.187992 -0.225000
0.426382 0.150000 -0.225000
0.375000 0.188277 -0.150000
0.431415 0.150000 -0.150000
0.375000 0.150000 -0.047937
0.375000 0.171850 -0.075000
0.412489 0.150000 -0.075000
0.450000 -0.163331 -0.450000
0.450000 -0.190647 -0.375000
0.450000 -0.188759 -0.300000
0.450000 -0.187547 -0.225000
0.450000 -0.171800 -0.150000
0.450000 -0.150000 -0.466128
0.456781 -0.150000 -0.450000
0.470937 -0.150000 -0.375000
0.469669 -0.150000 -0.300000
0.469588 -0.150000 -0.225000
0.450000 -0.150000 -0.114319
0.461027 -0.150000 -0.150000
0.450000 -0.110753 -0.075000
0.450000 -0.086051 0.750000
0.450000 -0.123414 0.825000
0.450000 -0.075000 -0.508394
0.480578 -0.075000 -0.450000
0.490865 -0.075000 -0.375000
0.492195 -0.075000 -0.300000
0.491112 -0.075000 -0.225000
0.484909 -0.075000 -0.150000
0.450000 -0.075000 -0.046493
0.463769 -0.075000 -0.075000
0.450000 -0.075000 0.729688
0.450000 -0.006281 0.750000
0.454120 -0.075000 0.750000
0.450000 -0.075000 0.838479
0.450000 -0.018730 0.825000
0.459720 -0.075000 0.825000
0.450000 0.000000 -0.523073
0.486625 0.000000 -0.450000
0.496578 0.000000 -0.375000
0.495876 0.000000 -0.300000
0.495806 0.000000 -0.225000
0.497077 0.000000 -0.150000
0.450000 0.000000 -0.018603
0.481860 0.000000 -0.075000
0.450000 0.075000 -0.484551
0.450000 0.106016 -0.450000
0.467690 0.075000 -0.450000
0.450000 0.119197 -0.375000
0.476307 0.075000 -0.375000
0.450000 0.116736 -0.300000
0.474366 0.075000 -0.300000
0.450000 0.119240 -0.225000
0.475810 0.075000 -0.225000
0.450000 0.126934 -0.150000
0.479258 0.075000 -0.150000
0.450000 0.075000 -0.049841
0.450000 0.107816 -0.075000
0.467220 0.075000 -0.075000
3 38 22 0
3 22 24 1
3 0 22 1
3 24 26 2
3 1 24 2
3 26 28 3
3 2 26 3
3 28 30 4
3 3 28 4
3 30 32 5
3 4 30 5
3 32 34 6
3 5 32 6
3 34 40 6
3 44 38 0
3 7 44 0
3 0 1 7
3 1 8 7
3 1 2 8
3 2 9 8
3 2 3 9
3 3 10 9
3 3 4 10
3 4 11 10
3 4 5 11
3 5 12 11
3 5 6 12
3 6 13 12
3 40 52 13
3 6 40 13
3 44 7 46
3 7 8 47
3 46 7 47
3 8 9 48
3 47 8 48
3 9 10 49
3 48 9 49
3 10 11 50
3 49 10 50
3 11 12 51
3 50 11 51
3 12 13 53
3 51 12 53
3 13 52 53
3 79 72 14
3 72 73 15
3 14 72 15
3 73 74 16
3 15 73 16
3 74 75 17
3 16 74 17
3 75 76 18
3 17 75 18
3 76 77 19
3 18 76 19
3 77 78 20
3 19 77 20
3 78 81 20
3 80 79 14
3 80 14 21
3 21 14 23
3 14 15 23
3 15 25 23
3 15 16 25
3 16 27 25
3 16 17 27
3 17 29 27
3 17 18 29
3 18 31 29
3 18 19 31
3 19 33 31
3 19 20 33
3 20 35 33
3 81 82 36
3 81 36 20
3 20 36 35
3 82 84 37
3 36 82 37
3 84 88 37
3 92 87 21
3 39 92 21
3 38 23 22
3 38 39 23
3 39 21 23
3 25 22 23
3 24 22 25
3 27 24 25
3 26 24 27
3 29 26 27
3 28 26 29
3 31 28 29
3 30 28 31
3 33 30 31
3 32 30 33
3 35 32 33
3 34 32 35
3 34 41 40
3 34 35 41
3 35 36 41
3 36 37 41
3 37 42 41
3 88 89 43
3 88 43 37
3 37 43 42
3 89 93 43
3 97 92 39
3 45 97 39
3 39 44 45
3 38 44 39
3 54 40 41
3 52 40 54
3 41 42 54
3 42 55 54
3 94 99 55
3 94 55 43
3 43 55 42
3 43 93 94
3 97 45 98
3 103 46 56
3 98 46 103
3 98 44 46
3 98 45 44
3 47 56 46
3 57 56 47
3 48 57 47
3 58 57 48
3 49 58 48
3 59 58 49
3 50 59 49
3 60 59 50
3 51 60 50
3 61 60 51
3 53 61 51
3 62 61 53
3 52 62 53
3 52 54 62
3 54 63 62
3 54 55 63
3 55 64 63
3 99 106 64
3 55 99 64
3 110 103 56
3 65 110 56
3 56 57 65
3 57 66 65
3 57 58 66
3 58 67 66
3 58 59 67
3 59 68 67
3 59 60 68
3 60 69 68
3 60 61 69
3 61 70 69
3 61 62 70
3 62 71 70
3 105 117 71
3 105 71 63
3 63 71 62
3 63 64 107
3 105 63 107
3 64 106 107
3 110 65 111
3 65 66 112
3 111 65 112
3 66 67 113
3 112 66 113
3 67 68 114
3 113 67 114
3 68 69 115
3 114 68 115
3 69 70 116
3 115 69 116
3 70 71 118
3 116 70 118
3 71 117 118
3 79 132 122
3 72 79 122
3 122 123 72
3 72 123 73
3 123 124 73
3 73 124 74
3 124 125 74
3 74 125 75
3 125 126 75
3 75 126 76
3 126 127 76
3 76 127 77
3 127 128 77
3 77 128 78
3 83 81 78
3 83 78 129
3 129 78 128
3 129 130 85
3 83 129 85
3 130 131 86
3 85 130 86
3 131 138 86
3 87 142 133
3 80 87 133
3 133 79 80
3 132 79 133
3 83 82 81
3 85 82 83
3 84 82 85
3 84 90 88
3 84 85 90
3 85 86 90
3 138 139 91
3 138 91 86
3 86 91 90
3 139 143 91
3 142 87 147
3 147 87 92
3 90 89 88
3 89 95 93
3 89 90 95
3 90 91 95
3 143 144 96
3 143 96 91
3 91 96 95
3 144 148 96
3 147 92 150
3 150 92 97
3 94 100 99
3 93 100 94
3 93 95 100
3 95 101 100
3 95 96 101
3 96 102 101
3 148 151 102
3 96 148 102
3 98 104 154
3 98 154 97
3 97 154 150
3 98 103 104
3 108 99 100
3 106 99 108
3 100 101 108
3 101 109 108
3 152 156 109
3 152 109 102
3 102 109 101
3 102 151 152
3 154 104 155
3 104 160 155
3 104 103 160
3 103 110 160
3 105 119 117
3 107 119 105
3 120 119 107
3 106 120 107
3 106 108 120
3 108 121 120
3 157 174 121
3 157 121 109
3 109 121 108
3 109 156 157
3 160 110 111
3 161 160 111
3 161 111 162
3 111 112 162
3 162 112 163
3 112 113 163
3 163 113 164
3 113 114 164
3 164 114 166
3 114 115 166
3 166 115 168
3 115 116 168
3 168 116 170
3 116 118 170
3 117 119 172
3 117 172 118
3 118 172 170
3 119 120 173
3 172 119 173
3 120 121 175
3 173 120 175
3 121 174 175
3 132 186 178
3 122 132 178
3 178 179 122
3 122 179 123
3 179 180 123
3 123 180 124
3 188 134 125
3 188 125 180
3 180 125 124
3 126 125 134
3 135 126 134
3 127 126 135
3 136 127 135
3 128 127 136
3 137 128 136
3 137 193 181
3 137 181 128
3 128 181 129
3 181 182 129
3 129 182 130
3 182 183 130
3 130 183 131
3 140 138 131
3 140 131 184
3 184 131 183
3 184 185 141
3 140 184 141
3 185 197 141
3 142 200 187
3 133 142 187
3 187 132 133
3 186 132 187
3 188 190 134
3 134 191 135
3 190 191 134
3 135 192 136
3 191 192 135
3 136 194 137
3 192 194 136
3 137 194 193
3 140 139 138
3 139 145 143
3 139 140 145
3 140 141 145
3 197 198 146
3 197 146 141
3 141 146 145
3 198 206 146
3 200 142 208
3 208 142 147
3 145 144 143
3 144 149 148
3 144 145 149
3 145 146 149
3 206 214 149
3 146 206 149
3 208 147 217
3 217 147 150
3 153 148 149
3 151 148 153
3 214 222 153
3 149 214 153
3 217 150 225
3 225 150 154
3 152 158 156
3 151 158 152
3 151 153 158
3 153 159 158
3 222 236 159
3 153 222 159
3 225 154 155
3 226 225 155
3 155 239 226
3 160 239 155
3 243 165 227
3 227 167 229
3 165 167 227
3 229 169 231
3 167 169 229
3 231 171 233
3 169 171 231
3 233 171 246
3 157 176 174
3 156 176 157
3 156 158 176
3 158 177 176
3 237 253 177
3 237 177 159
3 159 177 158
3 159 236 237
3 239 160 161
3 241 239 161
3 241 161 242
3 161 162 242
3 242 162 244
3 162 163 244
3 165 243 244
3 165 244 164
3 164 244 163
3 167 165 164
3 166 167 164
3 169 167 166
3 168 169 166
3 171 169 168
3 170 171 168
3 246 171 170
3 246 170 247
3 247 170 172
3 247 172 249
3 172 173 249
3 249 173 251
3 173 175 251
3 174 176 252
3 174 252 175
3 175 252 251
3 176 177 254
3 252 176 254
3 177 253 254
3 186 262 256
3 178 186 256
3 256 257 178
3 178 257 179
3 264 189 180
3 264 180 257
3 257 180 179
3 180 189 188
3 181 193 195
3 182 181 195
3 196 182 195
3 196 266 258
3 196 258 182
3 182 258 183
3 258 259 183
3 183 259 184
3 259 260 184
3 184 260 185
3 199 197 185
3 199 185 261
3 261 185 260
3 261 271 199
3 200 275 263
3 187 200 263
3 263 186 187
3 262 186 263
3 264 265 189
3 276 201 190
3 265 276 190
3 265 190 188
3 265 188 189
3 191 190 201
3 202 191 201
3 192 191 202
3 203 192 202
3 194 192 203
3 204 194 203
3 193 194 204
3 193 204 195
3 195 204 205
3 267 205 278
3 267 196 205
3 196 195 205
3 196 267 266
3 199 198 197
3 198 207 206
3 199 207 198
3 199 272 207
3 199 271 272
3 272 281 207
3 275 200 285
3 285 200 208
3 286 201 276
3 209 201 286
3 201 209 202
3 202 209 210
3 202 210 203
3 203 210 211
3 203 211 204
3 204 211 212
3 204 212 205
3 205 212 213
3 278 213 287
3 205 213 278
3 215 206 207
3 214 206 215
3 281 282 216
3 281 216 207
3 207 216 215
3 282 290 216
3 285 208 292
3 292 208 217
3 293 209 286
3 218 209 293
3 209 218 210
3 210 218 219
3 210 219 211
3 211 219 220
3 211 220 212
3 212 220 221
3 288 221 294
3 288 213 221
3 213 212 221
3 213 288 287
3 223 214 215
3 222 214 223
3 215 216 223
3 216 224 223
3 290 298 224
3 216 290 224
3 292 217 301
3 301 217 225
3 302 218 293
3 228 218 302
3 218 228 219
3 219 228 230
3 219 230 220
3 220 230 232
3 220 232 221
3 221 232 234
3 294 235 295
3 294 221 235
3 221 234 235
3 295 235 305
3 238 222 223
3 236 222 238
3 299 309 238
3 299 238 224
3 224 238 223
3 224 298 299
3 226 240 313
3 226 313 225
3 225 313 301
3 226 239 240
3 316 245 303
3 228 243 227
3 302 243 228
3 302 245 243
3 302 303 245
3 230 228 227
3 229 230 227
3 232 230 229
3 231 232 229
3 234 232 231
3 233 234 231
3 233 246 248
3 233 248 234
3 234 248 235
3 305 250 306
3 305 235 250
3 235 248 250
3 306 250 318
3 237 255 253
3 255 310 324
3 237 310 255
3 237 238 310
3 237 236 238
3 238 309 310
3 313 240 314
3 240 239 241
3 240 241 314
3 314 241 315
3 315 241 317
3 241 242 317
3 245 316 317
3 245 317 244
3 244 317 242
3 245 244 243
3 248 246 247
3 250 248 247
3 249 250 247
3 318 250 249
3 318 249 319
3 319 249 251
3 319 251 321
3 251 252 321
3 321 252 323
3 252 254 323
3 253 255 325
3 253 325 254
3 254 325 323
3 255 324 325
3 262 333 328
3 256 262 328
3 328 329 256
3 256 329 257
3 257 329 335
3 264 257 335
3 258 266 268
3 259 258 268
3 269 259 268
3 260 259 269
3 270 260 269
3 270 337 330
3 270 330 260
3 260 330 261
3 273 271 261
3 273 261 331
3 331 261 330
3 331 332 274
3 273 331 274
3 332 340 274
3 275 343 334
3 263 275 334
3 334 262 263
3 333 262 334
3 265 344 277
3 265 264 344
3 264 335 344
3 265 277 276
3 267 278 279
3 266 267 279
3 266 279 268
3 268 279 280
3 336 280 346
3 336 269 280
3 269 268 280
3 269 338 270
3 336 338 269
3 270 338 337
3 273 272 271
3 272 283 281
3 272 273 283
3 273 274 283
3 340 341 284
3 340 284 274
3 274 284 283
3 341 350 284
3 343 275 352
3 352 275 285
3 344 345 277
3 277 345 353
3 277 353 276
3 276 353 286
3 289 279 278
3 287 289 278
3 347 289 355
3 347 280 289
3 280 279 289
3 280 347 346
3 283 282 281
3 282 291 290
3 282 283 291
3 283 284 291
3 350 359 291
3 284 350 291
3 352 285 362
3 362 285 292
3 353 363 286
3 363 293 286
3 288 294 296
3 287 288 296
3 287 296 289
3 289 296 297
3 355 297 367
3 289 297 355
3 300 290 291
3 298 290 300
3 359 372 300
3 291 359 300
3 362 292 375
3 375 292 301
3 376 304 364
3 364 304 302
3 364 302 363
3 363 302 293
3 296 294 295
3 295 305 307
3 295 307 296
3 296 307 297
3 367 308 368
3 367 297 308
3 297 307 308
3 368 308 377
3 299 311 309
3 298 311 299
3 298 300 311
3 300 312 311
3 372 381 312
3 300 372 312
3 375 301 384
3 384 301 313
3 304 316 303
3 304 376 316
3 376 387 316
3 304 303 302
3 307 305 306
3 306 318 320
3 306 320 307
3 307 320 308
3 377 322 378
3 377 308 322
3 308 320 322
3 378 322 389
3 310 326 324
3 309 326 310
3 309 311 326
3 311 327 326
3 382 395 327
3 382 327 312
3 312 327 311
3 312 381 382
3 384 313 314
3 385 384 314
3 385 314 386
3 314 315 386
3 386 315 388
3 315 317 388
3 388 317 316
3 387 388 316
3 320 318 319
3 322 320 319
3 321 322 319
3 389 322 321
3 389 321 390
3 390 321 323
3 390 323 392
3 323 325 392
3 324 326 394
3 324 394 325
3 325 394 392
3 326 327 396
3 394 326 396
3 327 395 396
3 333 403 398
3 328 333 398
3 398 399 328
3 328 399 329
3 329 399 405
3 335 329 405
3 330 337 339
3 339 406 400
3 339 400 330
3 330 400 331
3 400 401 331
3 331 401 332
3 342 340 332
3 342 332 402
3 402 332 401
3 402 409 342
3 343 414 404
3 334 343 404
3 404 333 334
3 403 333 404
3 405 415 335
3 415 344 335
3 336 346 348
3 338 336 348
3 349 338 348
3 349 422 407
3 338 349 407
3 338 407 339
3 338 339 337
3 339 407 406
3 342 341 340
3 341 351 350
3 342 351 341
3 342 410 351
3 342 409 410
3 410 425 351
3 414 343 430
3 430 343 352
3 415 345 344
3 416 345 415
3 345 416 431
3 353 345 431
3 433 418 354
3 418 420 356
3 354 418 356
3 355 356 420
3 355 420 347
3 434 357 420
3 357 347 420
3 346 347 357
3 346 357 348
3 348 357 358
3 423 358 436
3 423 349 358
3 349 348 358
3 349 423 422
3 360 350 351
3 359 350 360
3 425 426 361
3 425 361 351
3 351 361 360
3 426 440 361
3 430 352 443
3 443 352 362
3 444 365 432
3 432 365 363
3 432 363 431
3 431 363 353
3 446 433 354
3 366 446 354
3 435 447 366
3 435 366 356
3 356 366 354
3 355 367 435
3 355 435 356
3 367 369 435
3 434 435 357
3 369 357 435
3 357 369 358
3 358 369 370
3 436 371 437
3 436 358 371
3 358 370 371
3 437 371 450
3 373 359 360
3 372 359 373
3 360 361 373
3 361 374 373
3 440 452 374
3 361 440 374
3 443 362 456
3 456 362 375
3 365 376 364
3 365 444 376
3 444 457 376
3 365 364 363
3 446 366 448
3 366 447 448
3 369 367 368
3 368 377 379
3 368 379 369
3 369 379 370
3 370 379 371
3 371 379 380
3 450 380 461
3 371 380 450
3 383 372 373
3 381 372 383
3 453 464 383
3 453 383 374
3 374 383 373
3 374 452 453
3 456 375 469
3 469 375 384
3 457 472 376
3 472 387 376
3 379 377 378
3 378 389 391
3 378 391 379
3 379 391 380
3 461 393 462
3 461 380 393
3 380 391 393
3 462 393 474
3 382 397 395
3 397 465 478
3 382 465 397
3 382 383 465
3 382 381 383
3 383 464 465
3 469 384 385
3 470 469 385
3 470 385 471
3 385 386 471
3 471 386 473
3 386 388 473
3 473 388 387
3 472 473 387
3 391 389 390
3 393 391 390
3 392 393 390
3 474 393 392
3 474 392 475
3 475 392 394
3 475 394 477
3 394 396 477
3 395 397 479
3 395 479 396
3 396 479 477
3 397 478 479
3 403 489 482
3 398 403 482
3 482 483 398
3 398 483 399
3 399 483 491
3 405 399 491
3 400 406 408
3 408 497 484
3 408 484 400
3 400 484 401
3 484 485 401
3 401 485 402
3 411 409 402
3 411 402 486
3 486 402 485
3 486 487 412
3 411 486 412
3 487 488 413
3 412 487 413
3 488 500 413
3 414 503 490
3 404 414 490
3 490 403 404
3 489 403 490
3 417 491 492
3 417 415 491
3 415 405 491
3 492 504 417
3 506 494 419
3 494 496 421
3 419 494 421
3 496 508 421
3 407 422 424
3 424 509 498
3 407 424 498
3 407 498 408
3 407 408 406
3 408 498 497
3 410 427 425
3 410 411 427
3 411 412 427
3 412 413 427
3 413 428 427
3 500 501 429
3 500 429 413
3 413 429 428
3 501 511 429
3 503 414 513
3 513 414 430
3 417 416 415
3 416 417 504
3 416 504 431
3 431 504 514
3 419 418 433
3 419 433 506
3 506 433 518
3 421 418 419
3 420 418 421
3 420 421 508
3 420 508 434
3 434 508 520
3 423 436 438
3 422 423 438
3 422 438 424
3 424 438 439
3 509 439 521
3 424 439 509
3 427 426 425
3 426 441 440
3 426 427 441
3 427 428 441
3 428 429 441
3 429 442 441
3 511 523 442
3 429 511 442
3 513 430 525
3 525 430 443
3 432 445 444
3 445 432 431
3 445 431 526
3 526 431 514
3 518 433 530
3 530 433 446
3 449 435 434
3 449 434 532
3 532 434 520
3 438 436 437
3 437 450 451
3 437 451 438
3 438 451 439
3 521 451 533
3 439 451 521
3 454 440 441
3 452 440 454
3 441 442 454
3 442 455 454
3 523 535 455
3 442 523 455
3 525 443 537
3 537 443 456
3 458 444 445
3 457 444 458
3 526 538 458
3 445 526 458
3 448 459 543
3 448 543 446
3 446 543 530
3 447 459 448
3 447 449 459
3 449 460 459
3 532 546 460
3 449 532 460
3 463 451 450
3 461 463 450
3 533 463 548
3 451 463 533
3 453 466 464
3 452 466 453
3 452 454 466
3 454 467 466
3 454 455 467
3 455 468 467
3 535 553 468
3 455 535 468
3 537 456 556
3 556 456 469
3 539 457 458
3 539 559 457
3 559 472 457
3 458 538 539
3 543 459 545
3 459 460 547
3 545 459 547
3 460 546 547
3 463 461 462
3 462 474 476
3 463 462 476
3 463 476 549
3 463 549 548
3 549 476 563
3 465 480 478
3 464 480 465
3 464 466 480
3 466 481 480
3 552 569 481
3 552 481 467
3 467 481 466
3 467 468 554
3 552 467 554
3 556 469 470
3 557 556 470
3 557 470 558
3 470 471 558
3 558 471 560
3 471 473 560
3 560 473 472
3 559 560 472
3 476 474 475
3 563 476 475
3 563 475 564
3 564 475 477
3 564 477 566
3 477 479 566
3 478 480 568
3 478 568 479
3 479 568 566
3 480 481 570
3 568 480 570
3 481 569 570
3 489 582 573
3 482 489 573
3 573 574 482
3 482 574 483
3 493 491 483
3 493 483 575
3 575 483 574
3 575 584 493
3 589 576 495
3 576 592 495
3 484 497 499
3 499 595 577
3 499 577 484
3 484 577 485
3 577 578 485
3 485 578 486
3 578 579 486
3 486 579 487
3 579 580 487
3 487 580 488
3 502 500 488
3 502 488 581
3 581 488 580
3 581 599 502
3 503 602 583
3 490 503 583
3 583 489 490
3 582 489 583
3 493 492 491
3 492 505 504
3 493 505 492
3 493 585 505
3 493 584 585
3 585 603 505
3 606 590 507
3 495 494 506
3 589 495 506
3 589 506 507
3 589 507 590
3 592 494 495
3 592 593 494
3 593 496 494
3 496 593 609
3 508 496 609
3 498 509 510
3 510 610 596
3 498 510 596
3 498 596 499
3 498 499 497
3 499 596 595
3 502 501 500
3 501 512 511
3 502 512 501
3 502 600 512
3 502 599 600
3 600 613 512
3 602 503 614
3 614 503 513
3 515 504 505
3 514 504 515
3 603 604 516
3 603 516 505
3 505 516 515
3 604 607 517
3 516 604 517
3 607 606 507
3 607 507 517
3 517 507 519
3 507 518 519
3 506 518 507
3 609 615 508
3 615 520 508
3 522 510 509
3 521 522 509
3 610 522 617
3 510 522 610
3 524 511 512
3 523 511 524
3 613 619 524
3 512 613 524
3 614 513 620
3 620 513 525
3 527 514 515
3 526 514 527
3 515 516 527
3 516 528 527
3 516 517 528
3 517 529 528
3 517 519 529
3 519 531 529
3 519 530 531
3 518 530 519
3 615 621 520
3 621 532 520
3 534 522 521
3 533 534 521
3 617 534 623
3 522 534 617
3 536 523 524
3 535 523 536
3 619 626 536
3 524 619 536
3 620 525 627
3 627 525 537
3 540 526 527
3 538 526 540
3 527 528 540
3 528 541 540
3 528 529 541
3 529 542 541
3 529 531 542
3 531 544 542
3 531 543 544
3 530 543 531
3 621 632 532
3 632 546 532
3 550 534 533
3 548 550 533
3 623 551 624
3 623 534 551
3 534 550 551
3 624 551 634
3 555 535 536
3 553 535 555
3 626 637 555
3 536 626 555
3 627 537 639
3 639 537 556
3 539 561 559
3 561 628 643
3 539 628 561
3 539 540 628
3 539 538 540
3 540 541 629
3 628 540 629
3 541 542 630
3 629 541 630
3 542 544 631
3 630 542 631
3 648 545 562
3 631 545 648
3 631 543 545
3 631 544 543
3 562 633 650
3 562 545 633
3 545 547 633
3 633 547 546
3 632 633 546
3 550 548 549
3 549 563 565
3 549 565 550
3 550 565 551
3 634 567 635
3 634 551 567
3 551 565 567
3 635 567 653
3 554 571 552
3 572 571 554
3 572 638 658
3 554 638 572
3 554 555 638
3 554 553 555
3 555 637 638
3 639 556 557
3 640 639 557
3 640 557 641
3 557 558 641
3 641 558 642
3 558 560 642
3 559 561 644
3 559 644 560
3 560 644 642
3 561 643 644
3 648 562 651
3 562 650 651
3 565 563 564
3 567 565 564
3 566 567 564
3 653 567 566
3 653 566 654
3 654 566 568
3 654 568 656
3 568 570 656
3 569 571 657
3 569 657 570
3 570 657 656
3 571 572 659
3 657 571 659
3 572 658 659
3 582 677 661
3 573 582 661
3 661 662 573
3 573 662 574
3 662 663 574
3 574 663 575
3 586 584 575
3 586 575 664
3 664 575 663
3 664 666 587
3 586 664 587
3 666 668 588
3 587 666 588
3 668 670 591
3 588 668 591
3 589 591 670
3 589 670 576
3 576 670 671
3 594 592 576
3 594 576 672
3 672 576 671
3 672 679 594
3 577 595 597
3 578 577 597
3 598 578 597
3 598 680 673
3 598 673 578
3 578 673 579
3 673 674 579
3 579 674 580
3 674 675 580
3 580 675 581
3 601 599 581
3 601 581 676
3 676 581 675
3 602 684 678
3 583 602 678
3 678 582 583
3 677 582 678
3 586 585 584
3 585 605 603
3 585 586 605
3 586 587 605
3 587 588 605
3 588 608 605
3 606 591 590
3 606 608 591
3 608 588 591
3 591 589 590
3 594 593 592
3 593 594 679
3 593 679 609
3 609 679 685
3 596 610 611
3 595 596 611
3 595 611 597
3 597 611 612
3 681 612 688
3 681 598 612
3 598 597 612
3 598 681 680
3 601 600 599
3 600 601 683
3 600 683 613
3 613 683 691
3 684 602 692
3 692 602 614
3 605 604 603
3 608 604 605
3 607 604 608
3 608 606 607
3 616 685 686
3 616 615 685
3 615 609 685
3 686 693 616
3 618 611 610
3 617 618 610
3 689 618 694
3 689 612 618
3 612 611 618
3 612 689 688
3 691 696 613
3 696 619 613
3 692 614 697
3 697 614 620
3 622 615 616
3 621 615 622
3 693 698 622
3 616 693 622
3 625 618 617
3 623 625 617
3 694 625 700
3 618 625 694
3 696 703 619
3 703 626 619
3 697 620 704
3 704 620 627
3 699 621 622
3 699 705 621
3 705 632 621
3 622 698 699
3 625 623 624
3 624 634 636
3 625 624 636
3 625 636 701
3 625 701 700
3 701 636 707
3 703 710 626
3 710 637 626
3 704 627 711
3 711 627 639
3 628 645 643
3 629 645 628
3 646 645 629
3 630 646 629
3 647 646 630
3 631 647 630
3 649 647 631
3 631 648 649
3 633 652 650
3 652 633 632
3 652 632 722
3 722 632 705
3 636 634 635
3 635 653 655
3 636 635 655
3 636 655 708
3 636 708 707
3 708 655 724
3 638 660 658
3 660 638 637
3 660 637 729
3 729 637 710
3 711 639 640
3 712 711 640
3 712 640 714
3 640 641 714
3 714 641 715
3 641 642 715
3 715 642 716
3 642 644 716
3 643 645 717
3 643 717 644
3 644 717 716
3 645 646 718
3 717 645 718
3 646 647 719
3 718 646 719
3 647 649 720
3 719 647 720
3 649 648 651
3 649 651 720
3 720 651 721
3 650 652 723
3 650 723 651
3 651 723 721
3 652 722 723
3 655 653 654
3 724 655 654
3 724 654 725
3 725 654 656
3 725 656 727
3 656 657 727
3 727 657 728
3 657 659 728
3 658 660 730
3 658 730 659
3 659 730 728
3 660 729 730
3 736 731 665
3 731 732 667
3 665 731 667
3 732 733 669
3 667 732 669
3 733 740 669
3 677 748 734
3 661 677 734
3 734 735 661
3 661 735 662
3 735 737 662
3 662 737 663
3 665 737 736
3 665 664 737
3 664 663 737
3 667 664 665
3 666 664 667
3 669 666 667
3 668 666 669
3 740 668 669
3 740 742 668
3 742 670 668
3 742 743 670
3 670 743 671
3 743 744 671
3 671 744 672
3 672 744 752
3 679 672 752
3 673 680 682
3 682 754 745
3 682 745 673
3 673 745 674
3 745 746 674
3 674 746 675
3 746 747 675
3 675 747 676
3 676 747 758
3 683 676 758
3 684 760 749
3 678 684 749
3 749 677 678
3 748 677 749
3 687 752 753
3 687 685 752
3 685 679 752
3 753 763 687
3 681 688 690
3 690 765 755
3 681 690 755
3 681 755 682
3 681 682 680
3 682 755 754
3 758 768 683
3 768 691 683
3 760 684 769
3 769 684 692
3 687 686 685
3 686 687 763
3 686 763 693
3 693 763 771
3 689 694 695
3 695 772 766
3 689 695 766
3 689 766 690
3 689 690 688
3 690 766 765
3 768 774 691
3 774 696 691
3 769 692 775
3 775 692 697
3 771 777 693
3 777 698 693
3 702 695 694
3 700 702 694
3 772 702 778
3 695 702 772
3 774 781 696
3 781 703 696
3 775 697 782
3 782 697 704
3 699 706 705
3 706 699 698
3 706 698 786
3 786 698 777
3 702 700 701
3 701 707 709
3 702 701 709
3 702 709 779
3 702 779 778
3 779 709 788
3 781 791 703
3 791 710 703
3 713 783 782
3 713 782 711
3 711 782 704
3 783 713 792
3 787 705 706
3 787 803 705
3 803 722 705
3 709 707 708
3 708 724 726
3 709 708 726
3 709 726 789
3 709 789 788
3 789 726 805
3 791 810 710
3 810 729 710
3 713 711 712
3 792 713 712
3 792 712 793
3 793 712 714
3 793 714 795
3 714 715 795
3 795 715 797
3 715 716 797
3 797 716 798
3 716 717 798
3 798 717 799
3 717 718 799
3 799 718 800
3 718 719 800
3 800 719 801
3 719 720 801
3 801 720 802
3 720 721 802
3 802 721 804
3 721 723 804
3 804 723 722
3 803 804 722
3 726 724 725
3 805 726 725
3 805 725 806
3 806 725 727
3 806 727 808
3 727 728 808
3 808 728 811
3 728 730 811
3 811 730 729
3 810 811 729
3 731 736 738
3 732 731 738
3 739 732 738
3 733 732 739
3 741 733 739
3 733 741 740
3 734 748 750
3 735 734 750
3 751 735 750
3 751 820 813
3 751 813 735
3 735 813 737
3 736 814 738
3 736 737 814
3 737 813 814
3 738 815 739
3 814 815 738
3 739 816 741
3 815 816 739
3 741 742 740
3 741 816 742
3 816 817 742
3 817 818 742
3 742 818 743
3 818 819 743
3 743 819 744
3 744 819 828
3 752 744 828
3 745 754 756
3 746 745 756
3 757 746 756
3 747 746 757
3 759 747 757
3 747 759 758
3 749 760 761
3 748 749 761
3 748 761 750
3 750 761 762
3 821 762 833
3 821 751 762
3 751 750 762
3 751 821 820
3 753 837 764
3 753 752 837
3 752 828 837
3 755 765 767
3 767 840 830
3 755 767 830
3 755 830 756
3 755 756 754
3 756 831 757
3 830 831 756
3 757 832 759
3 831 832 757
3 759 832 844
3 759 844 758
3 758 844 768
3 770 761 760
3 769 770 760
3 834 770 846
3 834 762 770
3 762 761 770
3 762 834 833
3 837 839 764
3 764 839 850
3 764 850 763
3 763 850 771
3 766 772 773
3 773 852 841
3 766 773 841
3 766 841 767
3 766 767 765
3 767 841 840
3 844 855 768
3 855 774 768
3 776 770 769
3 775 776 769
3 846 776 856
3 770 776 846
3 850 861 771
3 861 777 771
3 780 773 772
3 778 780 772
3 852 780 863
3 773 780 852
3 855 868 774
3 868 781 774
3 784 776 775
3 782 784 775
3 856 785 857
3 856 776 785
3 776 784 785
3 857 785 870
3 861 874 777
3 874 786 777
3 780 778 779
3 779 788 790
3 780 779 790
3 780 790 864
3 780 864 863
3 864 790 877
3 868 882 781
3 882 791 781
3 784 782 783
3 783 792 794
3 783 794 784
3 784 794 785
3 870 796 871
3 870 785 796
3 785 794 796
3 871 796 885
3 803 875 898
3 787 875 803
3 875 787 786
3 874 875 786
3 790 788 789
3 789 805 807
3 790 789 807
3 790 807 878
3 790 878 877
3 878 809 880
3 807 809 878
3 880 812 883
3 809 812 880
3 883 812 810
3 883 810 882
3 882 810 791
3 794 792 793
3 796 794 793
3 795 796 793
3 885 796 795
3 885 795 886
3 886 795 797
3 886 797 888
3 797 798 888
3 888 798 890
3 798 799 890
3 890 799 892
3 799 800 892
3 892 800 894
3 800 801 894
3 894 801 896
3 801 802 896
3 896 802 899
3 802 804 899
3 899 804 803
3 898 899 803
3 807 805 806
3 809 807 806
3 808 809 806
3 812 809 808
3 811 812 808
3 812 811 810
3 813 820 822
3 814 813 822
3 823 814 822
3 815 814 823
3 824 815 823
3 816 815 824
3 825 816 824
3 817 816 825
3 826 817 825
3 818 817 826
3 827 818 826
3 819 818 827
3 829 819 827
3 819 829 828
3 821 833 835
3 820 821 835
3 820 835 822
3 822 835 836
3 901 836 906
3 901 823 836
3 823 822 836
3 823 902 824
3 901 902 823
3 824 903 825
3 902 903 824
3 825 904 826
3 903 904 825
3 826 905 827
3 904 905 826
3 911 827 905
3 911 838 827
3 838 829 827
3 829 838 837
3 828 829 837
3 830 840 842
3 831 830 842
3 843 831 842
3 832 831 843
3 845 832 843
3 832 845 844
3 834 846 847
3 833 834 847
3 833 847 835
3 835 847 848
3 835 848 836
3 836 848 849
3 906 849 916
3 836 849 906
3 911 913 838
3 922 851 839
3 913 922 839
3 913 839 837
3 913 837 838
3 839 851 850
3 841 852 853
3 840 841 853
3 840 853 842
3 842 853 854
3 914 854 924
3 914 843 854
3 843 842 854
3 843 915 845
3 914 915 843
3 845 915 927
3 845 927 844
3 844 927 855
3 858 847 846
3 856 858 846
3 847 858 848
3 848 858 859
3 848 859 849
3 849 859 860
3 916 860 930
3 849 860 916
3 936 851 922
3 862 851 936
3 851 862 861
3 850 851 861
3 865 853 852
3 863 865 852
3 853 865 854
3 854 865 866
3 924 867 925
3 924 854 867
3 854 866 867
3 925 869 928
3 867 869 925
3 928 869 868
3 928 868 927
3 927 868 855
3 858 856 857
3 857 870 872
3 857 872 858
3 858 872 859
3 859 872 860
3 860 872 873
3 930 873 938
3 860 873 930
3 949 862 936
3 876 862 949
3 862 876 874
3 861 862 874
3 865 863 864
3 864 877 879
3 864 879 865
3 865 879 866
3 866 879 867
3 867 879 881
3 867 881 869
3 869 881 884
3 869 884 882
3 868 869 882
3 872 870 871
3 871 885 887
3 871 887 872
3 872 887 873
3 938 889 939
3 938 873 889
3 873 887 889
3 939 891 941
3 889 891 939
3 941 893 943
3 891 893 941
3 943 895 945
3 893 895 943
3 945 897 947
3 895 897 945
3 947 900 950
3 897 900 947
3 876 898 875
3 949 898 876
3 949 900 898
3 949 950 900
3 876 875 874
3 879 877 878
3 881 879 878
3 880 881 878
3 884 881 880
3 883 884 880
3 884 883 882
3 887 885 886
3 889 887 886
3 888 889 886
3 891 889 888
3 890 891 888
3 893 891 890
3 892 893 890
3 895 893 892
3 894 895 892
3 897 895 894
3 896 897 894
3 900 897 896
3 899 900 896
3 900 899 898
3 901 906 907
3 902 901 907
3 908 902 907
3 903 902 908
3 909 903 908
3 904 903 909
3 910 904 909
3 905 904 910
3 912 905 910
3 905 912 911
3 917 907 906
3 916 917 906
3 907 917 908
3 908 917 918
3 908 918 909
3 909 918 919
3 909 919 910
3 910 919 920
3 910 920 912
3 912 920 921
3 913 911 912
3 913 912 923
3 923 912 921
3 913 923 922
3 914 924 926
3 915 914 926
3 929 915 926
3 915 929 927
3 931 917 916
3 930 931 916
3 917 931 918
3 918 931 932
3 918 932 919
3 919 932 933
3 919 933 920
3 920 933 934
3 920 934 921
3 921 934 935
3 921 935 923
3 923 935 937
3 923 937 936
3 922 923 936
3 926 924 925
3 929 926 925
3 928 929 925
3 929 928 927
3 940 931 930
3 938 940 930
3 931 940 932
3 932 940 942
3 932 942 933
3 933 942 944
3 933 944 934
3 934 944 946
3 934 946 935
3 935 946 948
3 935 948 937
3 937 948 951
3 937 951 949
3 936 937 949
3 940 938 939
3 942 940 939
3 941 942 939
3 944 942 941
3 943 944 941
3 946 944 943
3 945 946 943
3 948 946 945
3 947 948 945
3 951 948 947
3 950 951 947
3 951 950 949
