ply
format ascii 1.0
element vertex 248
property float x
property float y
property float z
element face 500
property list uchar int vertex_indices
end_header
-0.498838 -0.144772 0.177003
-0.499207 -0.074722 0.112078
-0.524049 -0.029453 0.197357
-0.489365 0.102622 0.106084
-0.505537 0.141881 0.167606
-0.423694 -0.220130 0.215849
-0.403357 -0.207676 0.118713
-0.466338 -0.155573 0.270113
-0.432238 -0.039342 -0.908902
-0.342117 -0.083375 -0.036881
-0.411098 -0.089309 0.406457
-0.408788 -0.026269 -1.023844
-0.449420 0.050264 -0.961889
-0.359411 0.051263 -0.035788
-0.492214 0.074951 0.278845
-0.403873 0.003770 0.448023
-0.419630 0.116753 -0.909856
-0.448756 0.198384 0.129427
-0.433682 0.204320 0.219220
-0.361784 -0.185084 -0.965641
-0.294445 -0.244497 -0.870476
-0.341720 -0.215088 0.371413
-0.372938 -0.182434 -0.874008
-0.338619 -0.185470 -0.771915
-0.250114 -0.182534 -0.017432
-0.361295 -0.111442 -0.741615
-0.363592 -0.014701 -0.711995
-0.410561 0.014735 -0.807437
-0.327119 -0.076969 -0.667566
-0.297129 0.080775 -0.637576
-0.416457 0.116804 -0.983445
-0.339479 0.103926 -1.041832
-0.359182 0.115755 -0.749876
-0.395086 0.107113 0.426870
-0.279019 0.185629 -0.009875
-0.355846 0.188261 0.417794
-0.319961 0.214601 -0.957510
-0.319200 0.229433 -0.852048
-0.302731 0.246559 0.380519
-0.278145 -0.292010 0.233667
-0.276933 -0.178348 -0.674534
-0.337657 -0.141191 -1.042116
-0.209278 -0.160703 0.571622
-0.340668 -0.045350 -1.070897
-0.277194 0.192238 -0.680258
-0.276979 0.284643 0.111114
-0.237161 0.278103 -0.869403
-0.277215 0.296803 0.225142
-0.232410 -0.293267 0.108527
-0.190570 -0.306323 0.288257
-0.252144 -0.231883 -0.970371
-0.145251 -0.278298 -0.692431
-0.188361 -0.268510 0.423940
-0.260403 -0.082936 -0.073255
-0.248096 -0.083625 0.584043
-0.207955 -0.127080 -1.051046
-0.188607 0.019186 -1.077509
-0.203600 -0.079465 -0.509886
-0.268095 0.060583 -0.076478
-0.202717 0.084922 0.614472
-0.198358 0.157398 -1.031771
-0.129322 0.219218 -0.508426
-0.193773 0.195351 0.560505
-0.182666 0.267543 -0.671668
-0.185480 0.285567 0.341076
-0.165875 -0.314179 0.159402
-0.189028 -0.274883 -0.866951
-0.074080 -0.300338 0.048827
-0.122658 -0.279746 0.302339
-0.125619 -0.193146 -0.954124
-0.113124 -0.234319 -0.518761
-0.107239 -0.180911 -0.425805
-0.162392 -0.053731 -0.438164
-0.135306 -0.148548 -0.077596
-0.192094 -0.072669 0.627795
-0.120467 -0.052740 -1.050578
-0.105530 -0.109909 -0.353071
-0.183571 0.070751 -0.479573
-0.130060 0.102408 -0.405310
-0.112177 0.064648 -1.043021
-0.102881 0.214481 -0.444240
-0.198651 0.253912 -0.934169
-0.110499 0.182750 -0.963927
-0.143609 0.283344 0.040408
-0.045850 0.256669 0.498063
-0.202507 0.311383 0.142282
-0.080452 0.292950 0.129809
-0.062506 -0.265887 -0.736130
-0.025428 -0.286701 0.137420
-0.062517 -0.261687 0.467027
-0.037120 -0.281161 -0.585824
-0.002675 -0.272701 -0.440210
-0.026885 -0.178112 -0.845350
-0.064435 -0.238329 -0.043711
-0.048167 -0.216749 0.260352
-0.042877 -0.209053 0.344635
-0.107684 -0.202658 0.597255
-0.043625 -0.202028 -0.308860
-0.041488 -0.200138 -0.123189
0.014209 -0.214001 0.636709
-0.084688 -0.074668 -0.263812
-0.127267 0.004368 -0.133305
-0.135345 -0.088229 0.654859
-0.030777 -0.098158 0.688413
-0.047255 -0.038939 -0.963811
-0.087892 0.090415 -0.255454
-0.129729 0.080392 0.660184
-0.049952 0.103026 -0.959273
-0.042843 0.218106 -0.119246
-0.125726 0.212650 -0.047199
-0.023673 0.109662 0.685760
-0.064958 0.194836 -0.330357
-0.122602 0.189347 0.618208
-0.024881 0.182830 0.649474
-0.014478 0.167067 -0.840109
-0.035704 0.268182 -0.625184
-0.039693 0.211485 0.263456
-0.031562 0.213781 0.355701
0.044106 0.159804 -0.717905
0.000112 0.275607 -0.440412
-0.102785 0.264240 0.324715
0.036241 -0.272297 -0.275427
-0.011454 -0.247993 0.592498
0.027002 -0.178210 -0.734279
0.047695 -0.219572 -0.645842
0.020028 -0.078621 -0.825116
0.041154 -0.053752 0.275165
0.041577 -0.075847 0.350418
-0.039413 -0.002572 0.699734
0.017516 0.075189 -0.838355
0.043334 0.087208 0.269923
0.036475 0.074280 0.335221
0.062898 0.228145 -0.598148
-0.039269 0.292688 0.013581
0.031516 0.268950 -0.250098
0.102723 0.316040 -0.050950
0.068107 0.258434 0.559125
0.095490 -0.327476 0.037743
0.076812 -0.271357 -0.481073
0.114256 -0.287919 -0.317017
0.085654 -0.310138 -0.051072
0.029818 -0.178781 0.212025
0.030476 -0.222890 0.437908
0.111918 -0.039893 -0.664085
0.070881 0.016873 -0.735796
0.107045 0.101819 -0.654899
0.047789 0.149190 0.384288
0.040838 0.241198 0.174674
0.079118 0.192585 0.439598
0.060907 0.280509 -0.482155
0.171288 0.194164 -0.488268
0.085653 0.316723 0.048876
0.062223 0.262120 0.525468
0.140414 0.270587 -0.340156
0.229753 -0.276525 -0.163876
0.213738 -0.281505 0.145814
0.138384 -0.247274 0.551821
0.248799 -0.212660 -0.306644
0.118159 -0.215885 0.193550
0.201509 -0.171265 -0.484527
0.114497 -0.185020 0.453810
0.220949 -0.079742 -0.514958
0.121537 -0.063428 0.267450
0.208071 -0.049303 0.408595
0.105222 -0.041485 0.374468
0.165190 -0.006430 0.346155
0.224735 0.076057 -0.505923
0.123017 0.065512 0.272873
0.113030 0.055581 0.378171
0.201361 0.071861 0.408266
0.162596 0.209262 0.208537
0.181053 0.290528 0.116565
0.213890 0.296620 -0.122556
0.230441 -0.298858 0.021833
0.303913 -0.221419 -0.143173
0.253425 -0.202559 0.503903
0.282274 -0.211505 0.248803
0.261561 -0.111653 -0.433986
0.225351 -0.088624 0.317266
0.257978 -0.064975 0.369082
0.284488 0.030433 -0.414293
0.430512 -0.015399 0.718308
0.216454 0.067100 0.343490
0.403219 0.105033 0.705662
0.246071 0.164506 -0.403193
0.271603 0.194149 0.266519
0.165447 0.217576 0.497592
0.429143 0.201523 0.657209
0.294590 0.242235 -0.092775
0.388569 0.247924 0.590277
0.218796 0.307175 0.024346
0.380973 -0.241798 0.567645
0.350593 -0.239126 0.168200
0.341782 -0.209881 -0.036971
0.364124 -0.228410 0.508506
0.417419 -0.181204 0.667247
0.333412 -0.097737 -0.253647
0.365579 -0.145836 -0.110463
0.340365 -0.173727 0.355001
0.283778 -0.070447 0.445720
0.330936 -0.145982 0.432671
0.266535 0.019485 0.388637
0.299944 -0.010748 0.418365
0.289764 0.068860 0.447680
0.323557 0.138535 0.361931
0.325878 0.108131 0.429673
0.324579 0.108729 -0.281665
0.363606 0.117720 -0.133600
0.320851 0.207059 0.503758
0.267692 0.216467 -0.253820
0.344606 0.239288 0.061202
0.302761 0.260029 0.191915
0.418575 -0.232641 0.306224
0.443731 -0.216914 0.220230
0.427390 -0.232413 0.481668
0.401708 -0.118099 -0.015094
0.437985 -0.162772 0.141188
0.387087 -0.032719 -0.137283
0.345666 0.020156 -0.276952
0.421007 0.220709 0.412529
0.393753 0.128777 -0.021988
0.436011 0.162545 0.112654
0.430810 0.239689 0.247807
0.405488 0.239655 0.298979
0.498937 -0.217220 0.275755
0.513512 -0.233332 0.476030
0.518979 -0.180017 0.656984
0.509333 -0.145486 0.193628
0.466378 -0.003407 0.092529
0.417081 0.002121 -0.046901
0.517397 0.152839 0.206801
0.523739 0.136434 0.660315
0.494837 0.242570 0.504424
0.486139 0.235126 0.318615
0.501734 -0.224194 0.596327
0.563594 -0.170565 0.281251
0.521081 -0.068200 0.686546
0.520494 -0.001675 0.153980
0.568232 0.175330 0.288310
0.569999 0.185418 0.554045
0.517567 0.224939 0.608743
0.558510 -0.172078 0.573064
0.577855 -0.082291 0.208053
0.608681 -0.076211 0.274066
0.611869 0.001962 0.218610
0.590131 0.028265 0.569185
0.581035 0.088026 0.210893
0.610476 0.086986 0.273241
3 1 2 0
3 1 3 2
3 2 3 4
3 2 4 14
3 6 0 5
3 0 7 5
3 9 1 6
3 6 1 0
3 2 7 0
3 7 2 10
3 11 12 8
3 9 13 1
3 1 13 3
3 2 14 10
3 10 14 15
3 30 12 11
3 8 12 16
3 8 16 27
3 15 14 33
3 30 16 12
3 34 17 3
3 3 17 4
3 4 18 14
3 18 4 17
3 20 19 22
3 20 22 23
3 21 5 7
3 23 22 25
3 6 24 9
3 21 7 10
3 43 11 41
3 19 11 8
3 41 11 19
3 22 19 8
3 22 8 25
3 27 25 8
3 25 27 26
3 28 26 29
3 11 43 31
3 11 31 30
3 26 27 32
3 29 26 32
3 32 27 16
3 3 13 34
3 14 18 33
3 33 18 35
3 36 30 31
3 30 36 16
3 16 36 37
3 32 16 37
3 35 18 38
3 34 45 17
3 45 18 17
3 39 6 5
3 48 6 39
3 39 5 21
3 39 21 52
3 20 50 19
3 23 40 20
3 48 24 6
3 52 21 42
3 50 41 19
3 23 25 40
3 40 25 28
3 9 24 53
3 10 42 21
3 43 41 55
3 26 28 25
3 10 15 54
3 57 28 29
3 53 58 9
3 58 13 9
3 54 15 59
3 56 31 43
3 15 33 59
3 59 33 62
3 29 32 44
3 34 13 58
3 33 35 62
3 60 36 31
3 32 37 44
3 36 46 37
3 45 47 18
3 38 18 47
3 39 65 48
3 65 39 49
3 20 66 50
3 20 51 66
3 49 39 52
3 40 51 20
3 51 40 70
3 48 67 24
3 55 41 50
3 73 53 24
3 10 54 42
3 42 54 74
3 40 28 57
3 55 56 43
3 54 59 74
3 60 31 56
3 57 29 77
3 44 61 29
3 29 61 77
3 35 38 62
3 81 36 60
3 63 44 37
3 44 63 61
3 38 64 62
3 81 46 36
3 46 63 37
3 83 85 45
3 83 45 34
3 47 64 38
3 45 85 47
3 85 64 47
3 49 68 65
3 69 66 87
3 66 51 87
3 65 67 48
3 49 52 68
3 68 52 89
3 50 66 69
3 51 70 90
3 93 24 67
3 42 96 52
3 69 55 50
3 57 70 40
3 70 57 71
3 71 57 72
3 71 72 76
3 93 73 24
3 96 42 102
3 102 42 74
3 75 55 69
3 101 53 73
3 75 56 55
3 57 77 72
3 76 72 78
3 101 58 53
3 102 74 106
3 106 74 59
3 75 79 56
3 79 60 56
3 72 77 78
3 101 109 58
3 60 79 82
3 77 61 78
3 78 61 80
3 109 34 58
3 106 59 112
3 112 59 62
3 81 60 82
3 63 115 61
3 109 83 34
3 62 64 84
3 84 112 62
3 115 81 82
3 115 46 81
3 46 115 63
3 85 83 86
3 86 120 64
3 64 120 84
3 64 85 86
3 65 68 88
3 90 87 51
3 65 88 67
3 52 96 89
3 87 92 69
3 90 70 91
3 91 70 71
3 91 71 97
3 94 88 68
3 68 95 94
3 89 95 68
3 71 76 97
3 92 104 69
3 97 100 98
3 98 100 101
3 98 101 73
3 93 98 73
3 103 99 96
3 102 103 96
3 75 69 104
3 97 76 100
3 103 102 128
3 78 100 76
3 100 105 101
3 102 106 128
3 104 107 79
3 75 104 79
3 105 100 78
3 128 106 110
3 105 108 101
3 101 108 109
3 82 79 107
3 107 114 82
3 80 111 78
3 78 111 105
3 105 111 108
3 113 110 106
3 112 113 106
3 82 114 115
3 114 118 115
3 61 115 119
3 80 61 119
3 80 119 111
3 108 133 109
3 109 133 83
3 86 116 120
3 116 117 120
3 117 84 120
3 86 83 133
3 140 67 137
3 137 67 88
3 90 91 138
3 98 93 140
3 140 93 67
3 122 89 96
3 87 124 123
3 90 124 87
3 91 97 121
3 121 97 98
3 94 141 88
3 89 142 95
3 96 99 122
3 92 123 125
3 92 87 123
3 142 127 95
3 125 104 92
3 126 141 94
3 94 95 126
3 95 127 126
3 125 129 104
3 104 129 107
3 126 127 130
3 127 131 130
3 107 129 114
3 116 147 130
3 130 131 116
3 131 117 116
3 131 146 117
3 129 118 114
3 117 146 148
3 118 132 115
3 111 119 134
3 111 134 108
3 108 134 135
3 133 108 135
3 147 116 86
3 148 84 117
3 84 148 152
3 136 113 112
3 149 115 132
3 149 119 115
3 133 151 86
3 147 86 151
3 112 84 136
3 84 152 136
3 135 151 133
3 88 155 137
3 138 91 139
3 121 139 91
3 140 139 121
3 98 140 121
3 88 158 155
3 89 122 156
3 158 88 141
3 142 156 160
3 142 89 156
3 156 122 99
3 90 138 124
3 160 127 142
3 124 143 123
3 124 161 143
3 158 141 162
3 162 141 126
3 160 164 127
3 144 125 123
3 123 143 144
3 129 125 144
3 164 131 127
3 143 145 144
3 162 126 167
3 167 126 130
3 164 168 131
3 168 146 131
3 118 129 144
3 144 145 118
3 167 130 170
3 170 130 147
3 145 132 118
3 145 150 132
3 168 148 146
3 132 150 149
3 147 171 170
3 149 153 119
3 153 134 119
3 171 147 151
3 153 135 134
3 154 139 140
3 154 140 173
3 140 137 173
3 137 155 173
3 157 138 139
3 139 154 157
3 157 159 138
3 158 176 155
3 156 175 160
3 124 138 159
3 124 159 161
3 162 176 158
3 176 162 178
3 160 175 163
3 164 160 163
3 178 162 165
3 165 164 163
3 181 103 128
3 166 143 161
3 145 143 166
3 165 167 182
3 165 162 167
3 165 168 164
3 165 169 168
3 183 128 110
3 150 145 166
3 182 167 185
3 185 167 170
3 169 186 148
3 168 169 148
3 187 110 113
3 150 153 149
3 186 152 148
3 152 186 136
3 172 135 153
3 172 190 135
3 135 190 151
3 190 171 151
3 173 174 154
3 157 154 174
3 175 156 191
3 191 156 195
3 195 156 99
3 157 177 159
3 159 177 161
3 195 99 103
3 175 199 163
3 195 103 181
3 177 180 161
3 179 178 165
3 179 165 163
3 179 163 201
3 161 180 166
3 199 203 163
3 182 204 201
3 182 201 169
3 182 169 165
3 169 201 163
3 169 163 203
3 180 184 166
3 166 184 150
3 203 208 169
3 208 186 169
3 184 153 150
3 184 209 153
3 153 209 172
3 172 209 188
3 170 211 185
3 186 208 136
3 189 113 136
3 190 172 188
3 171 190 211
3 170 171 211
3 155 192 173
3 192 193 173
3 173 193 174
3 192 155 176
3 192 176 212
3 194 175 191
3 193 197 174
3 212 176 198
3 198 176 178
3 157 174 196
3 174 197 196
3 157 196 177
3 179 198 178
3 198 179 200
3 194 200 175
3 200 199 175
3 196 197 217
3 196 218 180
3 177 196 180
3 202 200 179
3 201 202 179
3 200 202 199
3 199 202 203
3 205 202 201
3 204 205 201
3 202 205 203
3 181 128 183
3 218 206 180
3 180 206 184
3 187 183 110
3 204 182 185
3 205 208 203
3 209 184 206
3 206 207 209
3 207 188 209
3 204 185 223
3 188 210 190
3 185 211 223
3 208 189 136
3 187 113 189
3 211 190 210
3 213 192 212
3 214 194 191
3 192 215 193
3 192 216 215
3 213 216 192
3 212 198 214
3 214 198 200
3 214 200 194
3 215 197 193
3 215 229 217
3 197 215 217
3 196 217 218
3 217 229 207
3 217 206 218
3 217 207 206
3 229 220 207
3 204 219 205
3 220 188 207
3 188 220 210
3 220 221 210
3 221 222 210
3 204 223 219
3 205 219 208
3 211 210 222
3 222 223 211
3 219 232 208
3 208 232 189
3 212 224 213
3 225 224 212
3 214 225 212
3 191 234 214
3 214 234 225
3 191 195 234
3 227 213 224
3 195 226 234
3 216 213 227
3 228 215 216
3 216 227 228
3 226 195 236
3 236 195 181
3 215 228 229
3 227 237 228
3 236 181 231
3 231 181 183
3 229 228 220
3 237 230 228
3 221 220 228
3 228 230 221
3 231 183 187
3 222 221 230
3 222 230 233
3 231 187 240
3 233 223 222
3 219 223 233
3 232 219 233
3 189 232 240
3 240 187 189
3 224 225 235
3 235 227 224
3 235 225 241
3 225 234 241
3 234 226 241
3 235 242 227
3 236 241 226
3 242 237 227
3 245 241 236
3 242 246 237
3 231 245 236
3 246 230 237
3 239 245 231
3 246 238 230
3 233 230 238
3 239 231 240
3 238 232 233
3 232 238 239
3 240 232 239
3 235 243 242
3 235 241 243
3 242 243 244
3 243 241 245
3 246 242 244
3 243 247 244
3 243 245 247
3 244 247 246
3 245 239 247
3 238 246 247
3 239 238 247
