ply
format ascii 1.0
element vertex 1066
property float x
property float y
property float z
element face 2121
property list uchar int vertex_indices
end_header
-0.679925 -0.150000 -0.675000
-0.709373 -0.150000 -0.600000
-0.695003 -0.150000 -0.525000
-0.698384 -0.075000 -0.675000
-0.729321 -0.075000 -0.600000
-0.707425 -0.075000 -0.525000
-0.689473 0.000000 -0.675000
-0.723044 0.000000 -0.600000
-0.695703 0.000000 -0.525000
-0.700482 0.075000 -0.600000
-0.675000 -0.159037 -0.675000
-0.609247 -0.225000 -0.675000
-0.675000 -0.217231 -0.600000
-0.659443 -0.225000 -0.600000
-0.675000 -0.178002 -0.525000
-0.675000 -0.150000 -0.680565
-0.675000 -0.150000 -0.507283
-0.675000 -0.075000 -0.705909
-0.627667 -0.075000 -0.750000
-0.675000 -0.075000 -0.498043
-0.675000 0.000000 -0.701414
-0.641870 0.000000 -0.750000
-0.675000 0.045312 -0.675000
-0.675000 0.000000 -0.508577
-0.675000 0.038621 -0.525000
-0.626472 0.075000 -0.750000
-0.675000 0.075000 -0.652087
-0.664718 0.075000 -0.675000
-0.675000 0.075000 -0.556607
-0.675000 0.124056 -0.600000
-0.616973 0.150000 -0.675000
-0.600000 -0.230433 -0.675000
-0.600000 -0.239179 -0.600000
-0.600000 -0.225000 -0.681780
-0.600000 -0.225000 -0.575996
-0.570492 -0.225000 -0.600000
-0.600000 -0.176446 -0.525000
-0.600000 -0.150000 -0.743354
-0.600000 -0.134690 -0.750000
-0.590143 -0.150000 -0.750000
-0.600000 -0.150000 -0.507563
-0.576116 -0.150000 -0.525000
-0.600000 -0.075000 -0.771211
-0.600000 -0.075000 -0.495786
-0.554277 -0.075000 -0.525000
-0.600000 0.000000 -0.781095
-0.600000 0.000000 -0.506285
-0.600000 0.048944 -0.525000
-0.564939 0.000000 -0.525000
-0.600000 0.075000 -0.768490
-0.600000 0.108422 -0.750000
-0.600000 0.075000 -0.539734
-0.600000 0.147258 -0.600000
-0.600000 0.150000 -0.700548
-0.600000 0.150000 -0.609240
-0.600000 0.162645 -0.675000
-0.525000 -0.231577 -0.675000
-0.525000 -0.225000 -0.697289
-0.525000 -0.200648 -0.750000
-0.465986 -0.225000 -0.750000
-0.525000 -0.225000 -0.658038
-0.488351 -0.225000 -0.675000
-0.525000 -0.187137 -0.600000
-0.525000 -0.150000 -0.783243
-0.525000 -0.150000 -0.571567
-0.493647 -0.150000 -0.600000
-0.525000 -0.075000 -0.807195
-0.488212 -0.075000 -0.825000
-0.525000 -0.075000 -0.548672
-0.466708 -0.075000 -0.600000
-0.525000 0.000000 -0.807688
-0.487017 0.000000 -0.825000
-0.525000 0.000000 -0.554047
-0.471849 0.000000 -0.600000
-0.525000 0.075000 -0.789505
-0.525000 0.128625 -0.750000
-0.525000 0.075000 -0.578207
-0.525000 0.111562 -0.600000
-0.496709 0.075000 -0.600000
-0.525000 0.150000 -0.714013
-0.525000 0.150000 -0.641607
-0.525000 0.165122 -0.675000
-0.455119 0.150000 -0.675000
-0.450000 -0.229648 -0.750000
-0.450000 -0.225000 -0.756160
-0.450000 -0.225000 -0.721521
-0.450000 -0.214144 -0.675000
-0.450000 -0.150000 -0.818420
-0.450000 -0.134265 -0.825000
-0.435291 -0.150000 -0.825000
-0.450000 -0.150000 -0.632281
-0.450000 -0.075000 -0.842251
-0.450000 -0.075000 -0.612579
-0.450000 0.000000 -0.840058
-0.450000 0.054494 -0.825000
-0.450000 0.000000 -0.614087
-0.450000 0.075000 -0.817338
-0.432599 0.075000 -0.825000
-0.450000 0.145110 -0.750000
-0.450000 0.075000 -0.629053
-0.450000 0.148265 -0.675000
-0.435286 0.150000 -0.750000
-0.375000 -0.242704 -0.750000
-0.375000 -0.225000 -0.780588
-0.375000 -0.182541 -0.825000
-0.375000 -0.225000 -0.713623
-0.375000 -0.193170 -0.675000
-0.307401 -0.225000 0.000000
-0.375000 -0.150000 -0.845374
-0.375000 -0.150000 -0.651527
-0.323734 -0.150000 -0.075000
-0.338731 -0.150000 0.000000
-0.312834 -0.150000 0.075000
-0.325696 -0.150000 0.525000
-0.323868 -0.150000 0.600000
-0.375000 -0.075000 -0.866660
-0.375000 -0.075000 -0.637225
-0.339749 -0.075000 -0.075000
-0.352171 -0.075000 0.000000
-0.332290 -0.075000 0.075000
-0.319529 -0.075000 0.450000
-0.344671 -0.075000 0.525000
-0.340896 -0.075000 0.600000
-0.311626 -0.075000 0.675000
-0.375000 0.000000 -0.868032
-0.375000 0.000000 -0.633485
-0.335437 0.000000 -0.075000
-0.345647 0.000000 0.000000
-0.331618 0.000000 0.075000
-0.336600 0.000000 0.450000
-0.347816 0.000000 0.525000
-0.337897 0.000000 0.600000
-0.314195 0.000000 0.675000
-0.375000 0.075000 -0.845072
-0.375000 0.109367 -0.825000
-0.375000 0.075000 -0.648706
-0.375000 0.123886 -0.675000
-0.312739 0.075000 -0.075000
-0.325380 0.075000 0.000000
-0.303405 0.075000 0.075000
-0.318552 0.075000 0.450000
-0.330141 0.075000 0.525000
-0.320314 0.075000 0.600000
-0.375000 0.150000 -0.779318
-0.375000 0.150000 -0.714461
-0.375000 0.165296 -0.750000
-0.300000 -0.250687 -0.750000
-0.300000 -0.233054 0.000000
-0.300000 -0.225000 -0.806374
-0.300000 -0.210297 -0.825000
-0.247782 -0.225000 -0.825000
-0.300000 -0.225000 -0.707214
-0.300000 -0.190509 -0.675000
-0.300000 -0.225000 -0.019556
-0.300000 -0.189165 -0.075000
-0.247839 -0.225000 -0.075000
-0.300000 -0.225000 0.018873
-0.300000 -0.177236 0.075000
-0.248560 -0.225000 0.075000
-0.300000 -0.184388 0.525000
-0.300000 -0.188115 0.600000
-0.248184 -0.225000 0.600000
-0.300000 -0.150000 -0.859770
-0.300000 -0.150000 -0.651328
-0.300000 -0.150000 -0.095439
-0.300000 -0.150000 0.089814
-0.300000 -0.150000 0.482514
-0.300000 -0.108724 0.450000
-0.300000 -0.150000 0.651465
-0.300000 -0.110717 0.675000
-0.280222 -0.150000 0.675000
-0.300000 -0.075000 -0.879834
-0.300000 -0.075000 -0.632321
-0.300000 -0.075000 -0.111810
-0.300000 -0.075000 0.112860
-0.300000 -0.075000 0.430622
-0.300000 -0.075000 0.688744
-0.300000 0.000000 -0.883190
-0.300000 0.000000 -0.633017
-0.300000 0.000000 -0.106013
-0.300000 0.000000 0.107445
-0.300000 0.000000 0.410750
-0.300000 0.000000 0.690752
-0.300000 0.045012 0.675000
-0.300000 0.075000 -0.862031
-0.300000 0.136059 -0.825000
-0.300000 0.075000 -0.650937
-0.300000 0.118885 -0.675000
-0.300000 0.075000 -0.085483
-0.300000 0.091641 -0.075000
-0.300000 0.118206 0.000000
-0.300000 0.075000 0.077982
-0.300000 0.079378 0.075000
-0.300000 0.075000 0.432457
-0.300000 0.098396 0.450000
-0.300000 0.119105 0.525000
-0.300000 0.075000 0.651295
-0.300000 0.108701 0.600000
-0.283060 0.075000 0.675000
-0.300000 0.150000 -0.805659
-0.249616 0.150000 -0.825000
-0.300000 0.150000 -0.708264
-0.300000 0.174661 -0.750000
-0.262818 0.150000 0.000000
-0.250966 0.150000 0.600000
-0.225000 -0.229174 -0.825000
-0.225000 -0.255160 -0.750000
-0.225000 -0.235001 -0.075000
-0.225000 -0.267638 0.000000
-0.225000 -0.234910 0.075000
-0.225000 -0.236882 0.600000
-0.225000 -0.225000 -0.829017
-0.225000 -0.225000 -0.704342
-0.225000 -0.190271 -0.675000
-0.225000 -0.225000 -0.083819
-0.225000 -0.225000 0.084868
-0.225000 -0.225000 0.567144
-0.225000 -0.208019 0.525000
-0.225000 -0.225000 0.632851
-0.225000 -0.202262 0.675000
-0.186444 -0.225000 0.675000
-0.225000 -0.150000 -0.869201
-0.225000 -0.150000 -0.651151
-0.225000 -0.150000 -0.118548
-0.225000 -0.150000 0.125329
-0.225000 -0.150000 0.471340
-0.225000 -0.107573 0.450000
-0.225000 -0.150000 0.715380
-0.167581 -0.150000 0.750000
-0.225000 -0.075000 -0.887820
-0.225000 -0.075000 -0.631114
-0.225000 -0.075000 -0.135352
-0.184139 -0.075000 -0.150000
-0.225000 -0.075000 0.139538
-0.188918 -0.075000 0.150000
-0.225000 -0.075000 0.434797
-0.203219 -0.075000 0.450000
-0.225000 -0.075000 0.737336
-0.199219 -0.075000 0.750000
-0.225000 0.000000 -0.889057
-0.225000 0.000000 -0.632672
-0.225000 0.000000 -0.132756
-0.177602 0.000000 -0.150000
-0.225000 0.000000 0.134716
-0.182162 0.000000 0.150000
-0.225000 0.000000 0.422740
-0.195505 0.000000 0.450000
-0.225000 0.000000 0.737497
-0.199936 0.000000 0.750000
-0.225000 0.075000 -0.873125
-0.225000 0.075000 -0.650223
-0.225000 0.121725 -0.675000
-0.225000 0.075000 -0.110696
-0.225000 0.127756 -0.075000
-0.225000 0.075000 0.110275
-0.225000 0.125390 0.075000
-0.225000 0.075000 0.448954
-0.225000 0.076226 0.450000
-0.223905 0.075000 0.450000
-0.225000 0.136876 0.525000
-0.154686 0.075000 0.525000
-0.225000 0.075000 0.713971
-0.225000 0.122612 0.675000
-0.163703 0.075000 0.750000
-0.225000 0.150000 -0.829708
-0.225000 0.154976 -0.825000
-0.225000 0.150000 -0.701049
-0.225000 0.181398 -0.750000
-0.225000 0.150000 -0.042019
-0.182637 0.150000 -0.075000
-0.225000 0.150000 0.037408
-0.225000 0.170081 0.000000
-0.182296 0.150000 0.075000
-0.225000 0.150000 0.555057
-0.225000 0.150000 0.631198
-0.225000 0.163036 0.600000
-0.173589 0.150000 0.675000
-0.150000 -0.226990 -0.825000
-0.150000 -0.255831 -0.750000
-0.150000 -0.247217 -0.075000
-0.150000 -0.277668 0.000000
-0.150000 -0.246964 0.075000
-0.150000 -0.240270 0.600000
-0.150000 -0.238991 0.675000
-0.150000 -0.225000 -0.827024
-0.135209 -0.225000 -0.825000
-0.150000 -0.225000 -0.702906
-0.150000 -0.190501 -0.675000
-0.150000 -0.225000 -0.099005
-0.150000 -0.225000 0.099804
-0.150000 -0.225000 0.576799
-0.150000 -0.173702 0.525000
-0.101615 -0.225000 0.600000
-0.150000 -0.225000 0.699204
-0.150000 -0.167492 0.750000
-0.150000 -0.150000 -0.866575
-0.150000 -0.150000 -0.651645
-0.150000 -0.150000 -0.144533
-0.150000 -0.128979 -0.150000
-0.135170 -0.150000 -0.150000
-0.150000 -0.150000 0.144808
-0.150000 -0.127469 0.150000
-0.134098 -0.150000 0.150000
-0.150000 -0.150000 0.508575
-0.127701 -0.150000 0.525000
-0.150000 -0.150000 0.759113
-0.150000 -0.075000 -0.886747
-0.150000 -0.075000 -0.630640
-0.150000 -0.075000 -0.162413
-0.150000 -0.075000 0.161687
-0.150000 -0.075000 0.490261
-0.100665 -0.075000 0.525000
-0.150000 -0.075000 0.775497
-0.150000 0.000000 -0.888432
-0.150000 0.000000 -0.632404
-0.150000 0.000000 -0.160622
-0.150000 0.039752 -0.150000
-0.150000 0.000000 0.161525
-0.150000 0.040417 0.150000
-0.150000 0.000000 0.496160
-0.150000 0.067493 0.525000
-0.110904 0.000000 0.525000
-0.150000 0.000000 0.778837
-0.150000 0.075000 -0.875002
-0.150000 0.075000 -0.651661
-0.150000 0.116715 -0.675000
-0.150000 0.075000 -0.140174
-0.128112 0.075000 -0.150000
-0.150000 0.075000 0.139146
-0.127507 0.075000 0.150000
-0.150000 0.075000 0.528320
-0.150000 0.075000 0.757996
-0.150000 0.086562 0.750000
-0.150000 0.150000 -0.836603
-0.150000 0.162153 -0.825000
-0.150000 0.150000 -0.700945
-0.150000 0.187396 -0.750000
-0.150000 0.150000 -0.089807
-0.150000 0.162915 -0.075000
-0.150000 0.195545 0.000000
-0.150000 0.150000 0.091207
-0.150000 0.165535 0.075000
-0.150000 0.150000 0.582635
-0.150000 0.163291 0.600000
-0.096909 0.150000 0.600000
-0.150000 0.150000 0.689160
-0.150000 0.158708 0.675000
-0.080828 0.225000 0.000000
-0.075000 -0.252171 -0.750000
-0.075000 -0.267586 -0.075000
-0.075000 -0.291241 0.000000
-0.029859 -0.300000 0.000000
-0.075000 -0.265877 0.075000
-0.075000 -0.246033 0.675000
-0.075000 -0.225000 -0.809473
-0.075000 -0.211797 -0.825000
-0.075000 -0.225000 -0.705207
-0.075000 -0.191206 -0.675000
-0.075000 -0.225000 -0.128019
-0.075000 -0.191987 -0.150000
-0.021072 -0.225000 -0.150000
-0.075000 -0.225000 0.126031
-0.075000 -0.188665 0.150000
-0.031970 -0.225000 0.150000
-0.075000 -0.225000 0.620673
-0.075000 -0.211952 0.600000
-0.075000 -0.225000 0.719032
-0.075000 -0.199145 0.750000
-0.075000 -0.150000 -0.860228
-0.075000 -0.150000 -0.651919
-0.075000 -0.150000 -0.171826
-0.075000 -0.150000 0.170534
-0.075000 -0.150000 0.561209
-0.075000 -0.150000 0.778101
-0.075000 -0.075000 -0.881468
-0.075000 -0.075000 -0.631336
-0.075000 -0.075000 -0.194867
-0.075000 -0.075000 0.193022
-0.030393 -0.075000 0.225000
-0.075000 -0.075000 0.540543
-0.075000 -0.075000 0.803712
-0.075000 0.000000 -0.887271
-0.075000 0.000000 -0.632334
-0.075000 0.000000 -0.195685
-0.075000 0.000000 0.196035
-0.029063 0.000000 0.225000
-0.075000 0.000000 0.544727
-0.075000 0.000000 0.810196
-0.075000 0.075000 -0.874647
-0.075000 0.075000 -0.652528
-0.075000 0.112883 -0.675000
-0.075000 0.075000 -0.173485
-0.075000 0.121230 -0.150000
-0.075000 0.075000 0.174788
-0.075000 0.119980 0.150000
-0.075000 0.075000 0.563537
-0.075000 0.140629 0.600000
-0.075000 0.075000 0.791486
-0.075000 0.138474 0.750000
-0.075000 0.150000 -0.836795
-0.075000 0.161915 -0.825000
-0.075000 0.150000 -0.702013
-0.075000 0.190531 -0.750000
-0.075000 0.150000 -0.131477
-0.038366 0.150000 -0.150000
-0.075000 0.200125 -0.075000
-0.075000 0.150000 0.128161
-0.075000 0.195569 0.075000
-0.029377 0.150000 0.150000
-0.075000 0.150000 0.613128
-0.075000 0.150000 0.735534
-0.075000 0.176337 0.675000
-0.044875 0.150000 0.750000
-0.075000 0.225000 -0.007007
-0.075000 0.225000 0.006021
-0.075000 0.227163 0.000000
0.000000 -0.305544 0.000000
0.000000 -0.244741 -0.750000
0.000000 -0.232822 -0.150000
0.000000 -0.300000 -0.020584
0.000000 -0.283815 -0.075000
0.000000 -0.300000 0.021046
0.000000 -0.283585 0.075000
0.000000 -0.240613 0.150000
0.000000 -0.242314 0.675000
0.000000 -0.225000 -0.791667
0.000000 -0.199103 -0.825000
0.000000 -0.225000 -0.715305
0.000000 -0.186459 -0.675000
0.000000 -0.225000 -0.157990
0.000000 -0.225000 0.168891
0.071768 -0.225000 0.225000
0.000000 -0.225000 0.641003
0.000000 -0.192062 0.600000
0.000000 -0.225000 0.724691
0.000000 -0.207748 0.750000
0.000000 -0.150000 -0.856246
0.000000 -0.150000 -0.652902
0.000000 -0.150000 -0.205980
0.036154 -0.150000 -0.225000
0.000000 -0.150000 0.216705
0.000000 -0.130902 0.225000
0.010090 -0.150000 0.225000
0.000000 -0.150000 0.575361
0.000000 -0.150000 0.781588
0.000000 -0.075000 -0.878385
0.000000 -0.075000 -0.631431
0.000000 -0.075000 -0.224802
0.000348 -0.075000 -0.225000
0.000000 -0.075000 0.247638
0.055262 -0.075000 0.300000
0.000000 -0.075000 0.557560
0.000000 -0.075000 0.810393
0.000000 0.000000 -0.886343
0.000000 0.000000 -0.632355
0.000000 0.000000 -0.220410
0.007535 0.000000 -0.225000
0.000000 0.000000 0.245224
0.000000 0.050911 0.225000
0.060104 0.000000 0.300000
0.000000 0.000000 0.554692
0.000000 0.000000 0.813667
0.000000 0.075000 -0.874691
0.000000 0.075000 -0.652979
0.000000 0.111945 -0.675000
0.000000 0.075000 -0.206990
0.029352 0.075000 -0.225000
0.000000 0.075000 0.215447
0.013583 0.075000 0.225000
0.000000 0.075000 0.571593
0.000000 0.125525 0.600000
0.000000 0.075000 0.798774
0.000000 0.150000 -0.837197
0.000000 0.162283 -0.825000
0.000000 0.150000 -0.701997
0.000000 0.191642 -0.750000
0.000000 0.150000 -0.169085
0.000000 0.168409 -0.150000
0.000000 0.223590 -0.075000
0.000000 0.214346 0.075000
0.000000 0.150000 0.163490
0.000000 0.163237 0.150000
0.000000 0.150000 0.620659
0.000000 0.188728 0.675000
0.000000 0.150000 0.761051
0.000000 0.160304 0.750000
0.000000 0.225000 -0.066713
0.000000 0.225000 0.038534
0.000000 0.234994 0.000000
0.075000 -0.304867 0.000000
0.075000 -0.244171 -0.750000
0.075000 -0.254684 -0.150000
0.075000 -0.300000 -0.022372
0.075000 -0.287975 -0.075000
0.075000 -0.300000 0.028749
0.090668 -0.300000 0.000000
0.075000 -0.291285 0.075000
0.075000 -0.273058 0.150000
0.075000 -0.227204 0.225000
0.075000 -0.243471 0.675000
0.075000 -0.225000 -0.789749
0.075000 -0.197991 -0.825000
0.075000 -0.225000 -0.712108
0.075000 -0.190689 -0.675000
0.075000 -0.225000 -0.190613
0.075000 -0.182309 -0.225000
0.114884 -0.225000 -0.225000
0.075000 -0.225000 0.227882
0.075000 -0.225000 0.640536
0.075000 -0.189128 0.600000
0.075000 -0.225000 0.734959
0.075000 -0.215576 0.750000
0.136076 -0.225000 0.750000
0.075000 -0.150000 -0.855589
0.075000 -0.150000 -0.652643
0.075000 -0.150000 -0.250546
0.121416 -0.150000 -0.300000
0.075000 -0.150000 0.290459
0.075000 -0.129044 0.300000
0.085261 -0.150000 0.300000
0.075000 -0.150000 0.577821
0.075000 -0.150000 0.788363
0.075000 -0.075000 -0.877484
0.075000 -0.075000 -0.632918
0.075000 -0.075000 -0.275288
0.100300 -0.075000 -0.300000
0.075000 -0.075000 0.321714
0.131983 -0.075000 0.375000
0.075000 -0.075000 0.561020
0.075000 -0.075000 0.819588
0.075000 0.000000 -0.886115
0.075000 0.000000 -0.633339
0.075000 0.000000 -0.273472
0.101694 0.000000 -0.300000
0.075000 0.000000 0.316363
0.075000 0.035254 0.300000
0.133586 0.000000 0.375000
0.075000 0.000000 0.559064
0.075000 0.000000 0.813355
0.075000 0.075000 -0.875613
0.075000 0.075000 -0.652856
0.075000 0.114718 -0.675000
0.075000 0.075000 -0.256560
0.121558 0.075000 -0.300000
0.075000 0.126569 -0.225000
0.075000 0.075000 0.280402
0.075000 0.138032 0.225000
0.094680 0.075000 0.300000
0.075000 0.075000 0.576876
0.075000 0.119887 0.600000
0.075000 0.075000 0.794496
0.075000 0.150000 -0.838335
0.075000 0.162803 -0.825000
0.075000 0.150000 -0.700056
0.075000 0.191207 -0.750000
0.075000 0.150000 -0.207564
0.098501 0.150000 -0.225000
0.075000 0.190284 -0.150000
0.075000 0.218591 -0.075000
0.075000 0.216422 0.075000
0.075000 0.150000 0.212014
0.075000 0.187849 0.150000
0.089306 0.150000 0.225000
0.075000 0.150000 0.622267
0.075000 0.191257 0.675000
0.075000 0.150000 0.760964
0.075000 0.161738 0.750000
0.075000 0.225000 -0.030244
0.075000 0.225000 0.025207
0.075000 0.229284 0.000000
0.087375 0.225000 0.000000
0.150000 -0.246636 -0.750000
0.150000 -0.247002 -0.225000
0.150000 -0.274003 -0.150000
0.150000 -0.277391 -0.075000
0.150000 -0.274724 0.000000
0.150000 -0.270943 0.075000
0.150000 -0.274008 0.150000
0.150000 -0.259294 0.225000
0.150000 -0.245634 0.675000
0.150000 -0.226166 0.750000
0.150000 -0.225000 -0.792228
0.150000 -0.198044 -0.825000
0.150000 -0.225000 -0.699861
0.150000 -0.203137 -0.675000
0.194661 -0.225000 -0.675000
0.150000 -0.225000 -0.262168
0.150000 -0.187627 -0.300000
0.187916 -0.225000 -0.300000
0.204711 -0.225000 0.000000
0.210112 -0.225000 0.075000
0.150000 -0.225000 0.284513
0.150000 -0.211705 0.300000
0.174169 -0.225000 0.300000
0.150000 -0.225000 0.640801
0.150000 -0.180600 0.600000
0.150000 -0.225000 0.751099
0.169056 -0.225000 0.750000
0.150000 -0.150000 -0.855313
0.150000 -0.150000 -0.643707
0.150000 -0.150000 -0.325230
0.200009 -0.150000 -0.375000
0.150000 -0.150000 0.357192
0.150000 -0.112845 0.375000
0.171474 -0.150000 0.375000
0.150000 -0.150000 0.583630
0.150000 -0.150000 0.790372
0.150000 -0.075000 -0.877322
0.150000 -0.075000 -0.622406
0.217081 -0.075000 -0.600000
0.150000 -0.075000 -0.346600
0.178447 -0.075000 -0.375000
0.150000 -0.075000 0.391120
0.214311 -0.075000 0.450000
0.150000 -0.075000 0.563373
0.150000 -0.075000 0.822044
0.150000 0.000000 -0.885033
0.150000 0.000000 -0.625389
0.150000 0.000000 -0.350727
0.174105 0.000000 -0.375000
0.150000 0.000000 0.390033
0.150000 0.049192 0.375000
0.215775 0.000000 0.450000
0.150000 0.000000 0.556605
0.150000 0.000000 0.813757
0.150000 0.075000 -0.875486
0.150000 0.075000 -0.647810
0.150000 0.125727 -0.675000
0.150000 0.075000 -0.326784
0.197449 0.075000 -0.375000
0.150000 0.111105 -0.300000
0.150000 0.075000 0.364311
0.150000 0.136924 0.300000
0.158084 0.075000 0.375000
0.150000 0.075000 0.571718
0.150000 0.130920 0.600000
0.150000 0.075000 0.793513
0.150000 0.150000 -0.840324
0.150000 0.164734 -0.825000
0.150000 0.150000 -0.692164
0.150000 0.192955 -0.750000
0.187175 0.150000 -0.675000
0.150000 0.150000 -0.264272
0.187488 0.150000 -0.300000
0.150000 0.177487 -0.225000
0.150000 0.199723 -0.150000
0.150000 0.201473 -0.075000
0.150000 0.199181 0.000000
0.205907 0.150000 0.000000
0.150000 0.195022 0.075000
0.212378 0.150000 0.075000
0.150000 0.195555 0.150000
0.150000 0.150000 0.284493
0.150000 0.181847 0.225000
0.166425 0.150000 0.300000
0.216093 0.150000 0.375000
0.150000 0.150000 0.613851
0.183015 0.150000 0.600000
0.150000 0.196436 0.675000
0.150000 0.150000 0.761072
0.150000 0.162518 0.750000
0.225000 -0.247004 -0.750000
0.225000 -0.233484 -0.675000
0.225000 -0.246119 -0.300000
0.225000 -0.266239 -0.225000
0.225000 -0.263524 -0.150000
0.225000 -0.236163 -0.075000
0.225000 -0.237458 0.150000
0.225000 -0.254938 0.225000
0.225000 -0.244498 0.300000
0.225000 -0.247076 0.675000
0.225000 -0.225000 -0.786645
0.225000 -0.187292 -0.825000
0.225000 -0.225000 -0.662218
0.279786 -0.225000 -0.600000
0.288525 -0.225000 -0.525000
0.278359 -0.225000 -0.450000
0.225000 -0.225000 -0.337672
0.225000 -0.187946 -0.375000
0.254147 -0.225000 -0.375000
0.284483 -0.225000 -0.150000
0.225000 -0.225000 -0.046779
0.238771 -0.225000 -0.075000
0.225000 -0.198689 0.000000
0.225000 -0.225000 0.110544
0.225000 -0.208321 0.075000
0.239231 -0.225000 0.150000
0.278478 -0.225000 0.225000
0.225000 -0.225000 0.338916
0.225000 -0.198659 0.375000
0.258962 -0.225000 0.375000
0.286823 -0.225000 0.450000
0.286721 -0.225000 0.525000
0.225000 -0.225000 0.625216
0.225000 -0.206029 0.600000
0.247190 -0.225000 0.600000
0.225000 -0.225000 0.740488
0.225000 -0.218857 0.750000
0.225000 -0.150000 -0.847435
0.290553 -0.150000 -0.825000
0.225000 -0.150000 -0.611905
0.225000 -0.090292 -0.600000
0.236446 -0.150000 -0.600000
0.257808 -0.150000 -0.525000
0.225000 -0.150000 -0.419141
0.240895 -0.150000 -0.450000
0.291313 -0.150000 -0.075000
0.256214 -0.150000 0.000000
0.261938 -0.150000 0.075000
0.288032 -0.150000 0.150000
0.225000 -0.150000 0.428045
0.225000 -0.103106 0.450000
0.239380 -0.150000 0.450000
0.225000 -0.150000 0.554977
0.248895 -0.150000 0.525000
0.225000 -0.150000 0.788036
0.225000 -0.075000 -0.869152
0.225000 -0.075000 -0.593496
0.225000 -0.005631 -0.600000
0.246996 -0.075000 -0.525000
0.225000 -0.075000 -0.442997
0.229329 -0.075000 -0.450000
0.274540 -0.075000 0.000000
0.276046 -0.075000 0.075000
0.225000 -0.075000 0.486052
0.225000 -0.075000 0.534387
0.233957 -0.075000 0.525000
0.225000 -0.075000 0.815024
0.225000 0.000000 -0.877950
0.225000 0.000000 -0.600215
0.225259 0.000000 -0.600000
0.245176 0.000000 -0.525000
0.225000 0.000000 -0.436007
0.234289 0.000000 -0.450000
0.274961 0.000000 0.000000
0.276169 0.000000 0.075000
0.225000 0.000000 0.502121
0.225000 0.039744 0.450000
0.225000 0.000000 0.528033
0.228476 0.000000 0.525000
0.225000 0.000000 0.814061
0.225000 0.075000 -0.873247
0.225000 0.075000 -0.614522
0.239309 0.075000 -0.600000
0.253669 0.075000 -0.525000
0.225000 0.075000 -0.415003
0.243672 0.075000 -0.450000
0.225000 0.114414 -0.375000
0.289032 0.075000 -0.075000
0.225000 0.126920 0.000000
0.259566 0.075000 0.000000
0.225000 0.135854 0.075000
0.262685 0.075000 0.075000
0.289967 0.075000 0.150000
0.225000 0.075000 0.442308
0.231253 0.075000 0.450000
0.225000 0.075000 0.536870
0.237287 0.075000 0.525000
0.225000 0.075000 0.797478
0.225000 0.150000 -0.835063
0.225000 0.159785 -0.825000
0.252328 0.150000 -0.825000
0.225000 0.194550 -0.750000
0.225000 0.150000 -0.656914
0.225000 0.164977 -0.675000
0.276911 0.150000 -0.600000
0.287322 0.150000 -0.525000
0.286517 0.150000 -0.450000
0.225000 0.150000 -0.339989
0.254020 0.150000 -0.375000
0.225000 0.174098 -0.300000
0.225000 0.193283 -0.225000
0.225000 0.185996 -0.150000
0.289937 0.150000 -0.150000
0.225000 0.150000 -0.045025
0.225000 0.162004 -0.075000
0.239851 0.150000 -0.075000
0.225000 0.150000 0.107158
0.225000 0.164029 0.150000
0.240343 0.150000 0.150000
0.225000 0.182870 0.225000
0.285263 0.150000 0.225000
0.225000 0.180411 0.300000
0.225000 0.150000 0.385663
0.225000 0.157015 0.375000
0.270713 0.150000 0.450000
0.225000 0.150000 0.580714
0.276513 0.150000 0.525000
0.225000 0.166124 0.600000
0.225000 0.201056 0.675000
0.225000 0.150000 0.764153
0.225000 0.165674 0.750000
0.300000 -0.237426 -0.750000
0.300000 -0.255323 -0.675000
0.300000 -0.240511 -0.600000
0.300000 -0.236799 -0.525000
0.300000 -0.245972 -0.450000
0.300000 -0.257143 -0.375000
0.300000 -0.264786 -0.300000
0.300000 -0.252418 -0.225000
0.300000 -0.244412 0.300000
0.300000 -0.246254 0.375000
0.300000 -0.237144 0.450000
0.300000 -0.237312 0.525000
0.300000 -0.252935 0.600000
0.300000 -0.255300 0.675000
0.300000 -0.225000 -0.766372
0.328820 -0.225000 -0.750000
0.300000 -0.225000 -0.170433
0.341761 -0.225000 -0.225000
0.300000 -0.209457 -0.150000
0.300000 -0.225000 0.253934
0.300000 -0.204556 0.225000
0.335402 -0.225000 0.300000
0.300000 -0.225000 0.732453
0.300000 -0.208199 0.750000
0.300000 -0.150000 -0.820956
0.300000 -0.139601 -0.825000
0.300000 -0.150000 -0.086406
0.351919 -0.150000 -0.150000
0.300000 -0.126672 -0.075000
0.300000 -0.150000 0.168652
0.300000 -0.113491 0.150000
0.339925 -0.150000 0.225000
0.300000 -0.150000 0.784840
0.300000 -0.075000 -0.847502
0.343380 -0.075000 -0.825000
0.300000 -0.075000 -0.047375
0.319579 -0.075000 -0.075000
0.300000 -0.075000 0.126346
0.312368 -0.075000 0.150000
0.362174 -0.075000 0.225000
0.300000 -0.075000 0.809501
0.300000 0.000000 -0.854931
0.351503 0.000000 -0.825000
0.300000 0.000000 -0.048856
0.300000 0.044235 -0.075000
0.317613 0.000000 -0.075000
0.300000 0.000000 0.124556
0.300000 0.044546 0.150000
0.313883 0.000000 0.150000
0.364230 0.000000 0.225000
0.300000 0.000000 0.811795
0.300000 0.075000 -0.852004
0.300000 0.122326 -0.825000
0.336908 0.075000 -0.825000
0.300000 0.075000 -0.090542
0.300000 0.139993 -0.150000
0.348492 0.075000 -0.150000
0.300000 0.075000 0.164286
0.300000 0.135796 0.225000
0.347194 0.075000 0.225000
0.300000 0.075000 0.796246
0.300000 0.150000 -0.801417
0.300000 0.181931 -0.750000
0.358535 0.150000 -0.750000
0.300000 0.185958 -0.675000
0.300000 0.168688 -0.600000
0.300000 0.162932 -0.525000
0.300000 0.162921 -0.450000
0.300000 0.180185 -0.375000
0.300000 0.193779 -0.300000
0.300000 0.150000 -0.162181
0.300000 0.179199 -0.225000
0.357612 0.150000 -0.225000
0.300000 0.150000 0.242892
0.300000 0.178114 0.300000
0.350401 0.150000 0.300000
0.300000 0.185031 0.375000
0.300000 0.173622 0.450000
0.300000 0.169197 0.525000
0.300000 0.192357 0.600000
0.300000 0.198090 0.675000
0.300000 0.150000 0.760250
0.300000 0.161116 0.750000
0.325183 0.150000 0.750000
0.375000 -0.238967 -0.675000
0.375000 -0.257383 -0.600000
0.375000 -0.270332 -0.525000
0.375000 -0.269037 -0.450000
0.375000 -0.262813 -0.375000
0.375000 -0.244876 -0.300000
0.375000 -0.236260 0.375000
0.375000 -0.252454 0.450000
0.375000 -0.261371 0.525000
0.375000 -0.260338 0.600000
0.375000 -0.250114 0.675000
0.375000 -0.225000 -0.706765
0.375000 -0.189108 -0.750000
0.393646 -0.225000 -0.675000
0.441024 -0.225000 -0.600000
0.439993 -0.225000 -0.375000
0.375000 -0.225000 -0.264909
0.407191 -0.225000 -0.300000
0.375000 -0.188360 -0.225000
0.375000 -0.225000 0.350154
0.375000 -0.184603 0.300000
0.388825 -0.225000 0.375000
0.412494 -0.225000 0.450000
0.427231 -0.225000 0.525000
0.425203 -0.225000 0.600000
0.375000 -0.225000 0.713143
0.418352 -0.225000 0.675000
0.375000 -0.179849 0.750000
0.375000 -0.150000 -0.780146
0.401202 -0.150000 -0.750000
0.443241 -0.150000 -0.675000
0.375000 -0.150000 -0.182487
0.405756 -0.150000 -0.225000
0.375000 -0.086739 -0.150000
0.375000 -0.150000 0.270436
0.396867 -0.150000 0.300000
0.437238 -0.150000 0.375000
0.375000 -0.150000 0.768016
0.405026 -0.150000 0.750000
0.375000 -0.075000 -0.803340
0.421228 -0.075000 -0.750000
0.432921 -0.075000 -0.225000
0.375000 -0.075000 -0.144874
0.379310 -0.075000 -0.150000
0.375000 -0.075000 0.242057
0.416970 -0.075000 0.300000
0.375000 -0.075000 0.785598
0.426973 -0.075000 0.750000
0.375000 0.000000 -0.806789
0.422201 0.000000 -0.750000
0.440932 0.000000 -0.225000
0.375000 0.000000 -0.144232
0.375000 0.011797 -0.150000
0.380319 0.000000 -0.150000
0.375000 0.000000 0.239098
0.419114 0.000000 0.300000
0.375000 0.000000 0.788105
0.425616 0.000000 0.750000
0.375000 0.075000 -0.789184
0.375000 0.131921 -0.750000
0.407366 0.075000 -0.750000
0.442495 0.075000 -0.675000
0.375000 0.075000 -0.176995
0.375000 0.135167 -0.225000
0.418873 0.075000 -0.225000
0.375000 0.075000 0.261606
0.375000 0.122201 0.300000
0.403213 0.075000 0.300000
0.436480 0.075000 0.375000
0.446166 0.075000 0.450000
0.443262 0.075000 0.525000
0.440434 0.075000 0.600000
0.433915 0.075000 0.675000
0.375000 0.075000 0.770662
0.375000 0.110368 0.750000
0.398526 0.075000 0.750000
0.375000 0.150000 -0.724136
0.375000 0.169061 -0.675000
0.395565 0.150000 -0.675000
0.375000 0.180157 -0.600000
0.420573 0.150000 -0.600000
0.375000 0.184699 -0.525000
0.438697 0.150000 -0.525000
0.375000 0.188738 -0.450000
0.375000 0.189011 -0.375000
0.445381 0.150000 -0.375000
0.375000 0.150000 -0.245826
0.375000 0.173611 -0.300000
0.409831 0.150000 -0.300000
0.375000 0.150000 0.336725
0.375000 0.166210 0.375000
0.393226 0.150000 0.375000
0.375000 0.171877 0.450000
0.401947 0.150000 0.450000
0.375000 0.170337 0.525000
0.399098 0.150000 0.525000
0.375000 0.172199 0.600000
0.401009 0.150000 0.600000
0.375000 0.150000 0.703640
0.375000 0.163233 0.675000
0.389791 0.150000 0.675000
0.450000 -0.247838 -0.525000
0.450000 -0.240878 -0.450000
0.450000 -0.225000 -0.587416
0.450000 -0.217332 -0.600000
0.483744 -0.225000 -0.525000
0.450000 -0.225000 -0.397517
0.471385 -0.225000 -0.450000
0.450000 -0.215886 -0.375000
0.450000 -0.173298 -0.300000
0.450000 -0.173610 0.450000
0.450000 -0.187633 0.525000
0.450000 -0.186973 0.600000
0.450000 -0.184797 0.675000
0.450000 -0.150000 -0.665203
0.450000 -0.128947 -0.675000
0.500239 -0.150000 -0.600000
0.499866 -0.150000 -0.375000
0.450000 -0.150000 -0.280562
0.464634 -0.150000 -0.300000
0.450000 -0.150000 0.410760
0.450000 -0.113750 0.375000
0.462309 -0.150000 0.450000
0.466835 -0.150000 0.525000
0.468227 -0.150000 0.600000
0.450000 -0.150000 0.704830
0.467084 -0.150000 0.675000
0.450000 -0.075000 -0.703820
0.465029 -0.075000 -0.675000
0.504692 -0.075000 -0.600000
0.519416 -0.075000 -0.375000
0.450000 -0.075000 -0.247574
0.487960 -0.075000 -0.300000
0.450000 -0.075000 0.352812
0.462366 -0.075000 0.375000
0.478960 -0.075000 0.450000
0.476059 -0.075000 0.525000
0.476633 -0.075000 0.600000
0.450000 -0.075000 0.724067
0.475533 -0.075000 0.675000
0.450000 0.000000 -0.705738
0.450000 0.055429 -0.675000
0.467277 0.000000 -0.675000
0.499178 0.000000 -0.600000
0.518699 0.000000 -0.375000
0.450000 0.000000 -0.236747
0.490135 0.000000 -0.300000
0.450000 0.000000 0.354044
0.450000 0.035715 0.375000
0.460475 0.000000 0.375000
0.450000 0.064643 0.450000
0.471057 0.000000 0.450000
0.450000 0.056090 0.525000
0.469001 0.000000 0.525000
0.450000 0.047435 0.600000
0.466174 0.000000 0.600000
0.450000 0.000000 0.709747
0.450000 0.035321 0.675000
0.463653 0.000000 0.675000
0.450000 0.075000 -0.660540
0.450000 0.118355 -0.600000
0.478123 0.075000 -0.600000
0.450000 0.141084 -0.525000
0.505500 0.075000 -0.525000
0.513014 0.075000 -0.450000
0.450000 0.145944 -0.375000
0.500521 0.075000 -0.375000
0.450000 0.075000 -0.271824
0.450000 0.102450 -0.300000
0.466841 0.075000 -0.300000
0.450000 0.150000 -0.476300
0.450000 0.150000 -0.407919
0.450000 0.154145 -0.450000
0.455012 0.150000 -0.450000
0.525000 -0.165853 -0.525000
0.525000 -0.151934 -0.450000
0.525000 -0.150000 -0.545477
0.532354 -0.150000 -0.525000
0.525000 -0.150000 -0.446946
0.525965 -0.150000 -0.450000
0.525000 -0.075000 -0.564567
0.545536 -0.075000 -0.525000
0.525000 -0.075000 -0.389647
0.543884 -0.075000 -0.450000
0.525000 0.000000 -0.546059
0.525000 0.028603 -0.525000
0.534909 0.000000 -0.525000
0.525000 0.000000 -0.399080
0.525000 0.043769 -0.450000
0.538083 0.000000 -0.450000
3 10 12 1
3 0 10 1
3 12 14 2
3 1 12 2
3 14 16 2
3 17 15 0
3 3 17 0
3 0 1 3
3 1 4 3
3 1 2 4
3 2 5 4
3 16 19 5
3 2 16 5
3 20 17 3
3 6 20 3
3 3 4 6
3 4 7 6
3 4 5 7
3 5 8 7
3 19 23 8
3 5 19 8
3 20 6 22
3 26 22 6
3 26 6 9
3 9 6 7
3 24 28 9
3 24 9 8
3 8 9 7
3 8 23 24
3 26 9 29
3 9 28 29
3 33 31 11
3 31 32 13
3 11 31 13
3 32 34 13
3 11 10 15
3 11 15 33
3 33 15 37
3 13 10 11
3 12 10 13
3 34 12 13
3 34 36 12
3 36 14 12
3 14 36 40
3 16 14 40
3 42 38 18
3 38 17 18
3 38 37 17
3 37 15 17
3 40 43 16
3 43 19 16
3 45 42 18
3 21 45 18
3 18 20 21
3 17 20 18
3 43 46 19
3 46 23 19
3 49 45 21
3 25 49 21
3 22 21 20
3 22 27 21
3 27 25 21
3 22 26 27
3 28 47 51
3 24 47 28
3 47 24 23
3 46 47 23
3 49 25 50
3 53 50 25
3 53 25 30
3 30 25 27
3 26 30 27
3 26 52 30
3 26 29 52
3 54 30 52
3 52 29 28
3 51 52 28
3 53 30 55
3 30 54 55
3 33 57 56
3 31 33 56
3 60 35 32
3 60 32 56
3 56 32 31
3 32 35 34
3 63 58 39
3 58 37 39
3 58 57 37
3 57 33 37
3 60 62 35
3 64 41 36
3 62 64 36
3 62 36 34
3 62 34 35
3 36 41 40
3 39 38 42
3 39 42 63
3 63 42 66
3 39 37 38
3 68 41 64
3 44 41 68
3 41 44 43
3 40 41 43
3 66 42 70
3 70 42 45
3 72 44 68
3 48 44 72
3 44 48 46
3 43 44 46
3 70 45 74
3 74 45 49
3 48 51 47
3 48 72 51
3 72 76 51
3 48 47 46
3 74 49 50
3 75 74 50
3 50 79 75
3 53 79 50
3 54 77 80
3 52 77 54
3 77 52 51
3 76 77 51
3 79 53 55
3 81 79 55
3 81 55 54
3 80 81 54
3 84 83 59
3 57 59 83
3 57 83 56
3 85 61 83
3 61 56 83
3 56 61 60
3 59 58 63
3 59 63 84
3 84 63 87
3 85 86 61
3 59 57 58
3 90 65 62
3 86 90 62
3 86 62 60
3 86 60 61
3 62 65 64
3 91 88 67
3 88 66 67
3 88 87 66
3 87 63 66
3 92 65 90
3 69 65 92
3 65 69 68
3 64 65 68
3 93 91 67
3 71 93 67
3 67 70 71
3 66 70 67
3 95 69 92
3 73 69 95
3 69 73 72
3 68 69 72
3 93 71 94
3 71 96 94
3 71 70 96
3 70 74 96
3 99 73 95
3 78 73 99
3 73 78 76
3 72 73 76
3 96 74 75
3 98 96 75
3 82 75 79
3 82 100 75
3 100 98 75
3 78 80 77
3 99 80 78
3 99 82 80
3 99 100 82
3 78 77 76
3 82 79 81
3 82 81 80
3 84 103 102
3 83 84 102
3 83 102 105
3 85 83 105
3 108 104 89
3 104 87 89
3 104 103 87
3 103 84 87
3 105 86 85
3 106 86 105
3 86 106 109
3 90 86 109
3 89 88 91
3 89 91 108
3 108 91 115
3 89 87 88
3 109 116 90
3 116 92 90
3 115 91 124
3 124 91 93
3 116 125 92
3 125 95 92
3 94 97 133
3 94 133 93
3 93 133 124
3 94 96 97
3 125 135 95
3 135 99 95
3 133 97 134
3 143 98 101
3 134 98 143
3 134 96 98
3 134 97 96
3 101 136 144
3 101 98 136
3 98 100 136
3 136 100 99
3 135 136 99
3 143 101 145
3 101 144 145
3 103 148 146
3 102 103 146
3 102 146 151
3 105 102 151
3 153 147 107
3 147 156 107
3 108 162 149
3 104 108 149
3 149 103 104
3 148 103 149
3 151 106 105
3 152 106 151
3 106 152 163
3 109 106 163
3 164 154 110
3 154 153 107
3 154 107 110
3 110 107 111
3 156 157 112
3 156 112 107
3 107 112 111
3 157 165 112
3 166 159 113
3 159 160 114
3 113 159 114
3 160 168 114
3 162 108 171
3 171 108 115
3 163 172 109
3 172 116 109
3 173 164 110
3 117 173 110
3 110 111 117
3 111 118 117
3 111 112 118
3 112 119 118
3 165 174 119
3 112 165 119
3 175 167 120
3 167 166 113
3 167 113 120
3 120 113 121
3 113 114 121
3 114 122 121
3 168 169 123
3 168 123 114
3 114 123 122
3 169 176 123
3 171 115 177
3 177 115 124
3 172 178 116
3 178 125 116
3 179 173 117
3 126 179 117
3 117 118 126
3 118 127 126
3 118 119 127
3 119 128 127
3 174 180 128
3 119 174 128
3 181 175 120
3 129 181 120
3 120 121 129
3 121 130 129
3 121 122 130
3 122 131 130
3 122 123 131
3 123 132 131
3 176 182 132
3 123 176 132
3 177 124 184
3 184 124 133
3 178 186 125
3 186 135 125
3 188 179 126
3 137 188 126
3 126 127 137
3 127 138 137
3 127 128 138
3 128 139 138
3 180 191 139
3 128 180 139
3 193 181 129
3 140 193 129
3 129 130 140
3 130 141 140
3 130 131 141
3 131 142 141
3 183 196 142
3 183 142 132
3 132 142 131
3 132 182 183
3 184 133 134
3 185 184 134
3 134 199 185
3 143 199 134
3 144 187 201
3 136 187 144
3 187 136 135
3 186 187 135
3 188 137 189
3 137 138 190
3 189 137 190
3 138 139 192
3 190 138 192
3 139 191 192
3 193 140 194
3 140 141 195
3 194 140 195
3 141 142 197
3 195 141 197
3 142 196 197
3 199 143 145
3 202 199 145
3 202 145 144
3 201 202 144
3 211 205 150
3 148 150 205
3 148 205 146
3 146 205 206
3 146 206 212
3 151 146 212
3 214 207 155
3 153 155 207
3 153 207 147
3 147 207 208
3 158 156 147
3 158 147 209
3 209 147 208
3 209 215 158
3 216 210 161
3 210 218 161
3 150 149 162
3 150 162 211
3 211 162 221
3 150 148 149
3 212 152 151
3 213 152 212
3 152 213 222
3 163 152 222
3 155 154 164
3 155 164 214
3 214 164 223
3 155 153 154
3 158 157 156
3 157 158 215
3 157 215 165
3 165 215 224
3 166 225 217
3 159 166 217
3 161 217 216
3 161 160 217
3 160 159 217
3 160 170 168
3 161 170 160
3 161 219 170
3 161 218 219
3 219 227 170
3 221 162 229
3 229 162 171
3 222 230 163
3 230 172 163
3 223 164 231
3 231 164 173
3 224 233 165
3 233 174 165
3 175 235 226
3 167 175 226
3 226 166 167
3 225 166 226
3 170 169 168
3 169 170 227
3 169 227 176
3 176 227 237
3 229 171 239
3 239 171 177
3 230 240 172
3 240 178 172
3 231 173 241
3 241 173 179
3 233 243 174
3 243 180 174
3 235 175 245
3 245 175 181
3 237 247 176
3 247 182 176
3 239 177 249
3 249 177 184
3 240 250 178
3 250 186 178
3 241 179 252
3 252 179 188
3 243 254 180
3 254 191 180
3 245 181 256
3 256 181 193
3 183 198 196
3 198 183 182
3 198 182 261
3 261 182 247
3 185 200 264
3 185 264 184
3 184 264 249
3 185 199 200
3 201 251 266
3 187 251 201
3 251 187 186
3 250 251 186
3 252 188 189
3 253 252 189
3 268 190 203
3 268 253 190
3 253 189 190
3 203 255 270
3 203 190 255
3 190 192 255
3 255 192 191
3 254 255 191
3 256 193 194
3 257 256 194
3 257 194 259
3 194 195 259
3 273 197 204
3 273 259 197
3 259 195 197
3 204 262 274
3 197 262 204
3 197 198 262
3 197 196 198
3 198 261 262
3 264 200 265
3 200 199 202
3 200 202 265
3 265 202 267
3 267 202 201
3 266 267 201
3 268 203 271
3 203 270 271
3 273 204 275
3 204 274 275
3 211 284 277
3 205 211 277
3 277 278 205
3 205 278 206
3 206 278 286
3 212 206 286
3 214 288 279
3 207 214 279
3 279 280 207
3 207 280 208
3 280 281 208
3 208 281 209
3 209 281 289
3 215 209 289
3 216 290 282
3 210 216 282
3 220 218 210
3 220 210 283
3 283 210 282
3 283 293 220
3 284 211 295
3 295 211 221
3 286 213 212
3 287 213 286
3 213 287 296
3 222 213 296
3 288 214 297
3 297 214 223
3 289 300 215
3 300 224 215
3 225 303 291
3 217 225 291
3 291 216 217
3 290 216 291
3 220 219 218
3 219 228 227
3 220 228 219
3 220 294 228
3 220 293 294
3 294 305 228
3 295 221 306
3 306 221 229
3 296 307 222
3 307 230 222
3 308 298 232
3 298 231 232
3 298 297 231
3 297 223 231
3 234 300 301
3 234 233 300
3 233 224 300
3 301 309 234
3 226 235 236
3 236 225 226
3 236 310 225
3 310 303 225
3 238 227 228
3 237 227 238
3 305 312 238
3 228 305 238
3 306 229 313
3 313 229 239
3 307 314 230
3 314 240 230
3 315 308 232
3 242 315 232
3 232 241 242
3 231 241 232
3 244 233 234
3 243 233 244
3 309 317 244
3 234 309 244
3 246 236 235
3 245 246 235
3 310 246 319
3 236 246 310
3 248 237 238
3 247 237 248
3 312 322 248
3 238 312 248
3 313 239 323
3 323 239 249
3 314 324 240
3 324 250 240
3 315 242 316
3 242 326 316
3 242 241 326
3 241 252 326
3 318 243 244
3 318 328 243
3 328 254 243
3 244 317 318
3 258 246 245
3 256 258 245
3 319 260 320
3 319 246 260
3 246 258 260
3 320 260 330
3 263 247 248
3 261 247 263
3 322 331 263
3 248 322 263
3 323 249 333
3 333 249 264
3 266 325 335
3 251 325 266
3 325 251 250
3 324 325 250
3 253 269 337
3 253 337 252
3 252 337 326
3 253 268 269
3 255 272 270
3 272 255 254
3 272 254 340
3 340 254 328
3 260 258 257
3 259 260 257
3 259 330 260
3 259 273 330
3 273 342 330
3 262 276 274
3 276 332 345
3 262 332 276
3 262 263 332
3 262 261 263
3 333 264 265
3 334 333 265
3 334 265 336
3 265 267 336
3 336 267 266
3 335 336 266
3 337 269 338
3 269 268 271
3 269 271 338
3 338 271 339
3 270 272 341
3 270 341 271
3 271 341 339
3 272 340 341
3 342 273 275
3 343 342 275
3 274 276 346
3 274 346 275
3 275 346 343
3 276 345 346
3 277 284 285
3 285 354 348
3 285 348 277
3 277 348 278
3 278 348 356
3 286 278 356
3 288 358 349
3 279 288 349
3 349 350 279
3 279 350 280
3 350 352 280
3 280 352 281
3 281 352 361
3 289 281 361
3 282 290 292
3 292 364 353
3 292 353 282
3 282 353 283
3 283 353 366
3 293 283 366
3 355 285 284
3 355 284 368
3 368 284 295
3 285 355 354
3 356 287 286
3 357 287 356
3 287 357 369
3 296 287 369
3 370 359 299
3 359 297 299
3 359 358 297
3 358 288 297
3 302 361 362
3 302 300 361
3 300 289 361
3 362 371 302
3 291 303 304
3 304 372 365
3 291 304 365
3 291 365 292
3 291 292 290
3 292 365 364
3 366 294 293
3 367 294 366
3 294 367 373
3 305 294 373
3 368 295 374
3 374 295 306
3 369 375 296
3 375 307 296
3 299 298 308
3 299 308 370
3 370 308 376
3 299 297 298
3 302 301 300
3 301 302 371
3 301 371 309
3 309 371 377
3 311 304 303
3 310 311 303
3 372 311 379
3 304 311 372
3 373 380 305
3 380 312 305
3 374 306 381
3 381 306 313
3 375 382 307
3 382 314 307
3 376 308 383
3 383 308 315
3 377 384 309
3 384 317 309
3 321 311 310
3 319 321 310
3 379 321 386
3 311 321 379
3 380 387 312
3 387 322 312
3 381 313 388
3 388 313 323
3 382 389 314
3 389 324 314
3 316 327 391
3 316 391 315
3 315 391 383
3 316 326 327
3 318 329 328
3 329 318 317
3 329 317 393
3 393 317 384
3 321 319 320
3 320 386 321
3 320 330 386
3 330 395 386
3 387 397 322
3 397 331 322
3 388 323 399
3 399 323 333
3 335 390 401
3 325 390 335
3 390 325 324
3 389 390 324
3 391 327 392
3 327 403 392
3 327 326 403
3 326 337 403
3 394 328 329
3 394 406 328
3 406 340 328
3 329 393 394
3 344 396 395
3 344 395 342
3 342 395 330
3 396 344 409
3 345 398 410
3 332 398 345
3 398 332 331
3 397 398 331
3 399 333 334
3 400 399 334
3 400 334 402
3 334 336 402
3 402 336 335
3 401 402 335
3 403 337 338
3 405 403 338
3 413 339 347
3 413 405 339
3 405 338 339
3 347 407 414
3 347 339 407
3 339 341 407
3 407 341 340
3 406 407 340
3 344 342 343
3 409 344 343
3 409 343 411
3 411 343 346
3 411 346 345
3 410 411 345
3 413 347 415
3 347 414 415
3 419 416 351
3 416 421 351
3 354 425 417
3 348 354 417
3 348 417 427
3 356 348 427
3 429 418 360
3 358 360 418
3 358 418 349
3 349 418 420
3 351 420 419
3 351 350 420
3 350 349 420
3 421 350 351
3 421 422 350
3 422 352 350
3 363 361 352
3 363 352 423
3 423 352 422
3 423 430 363
3 364 432 424
3 353 364 424
3 353 424 434
3 366 353 434
3 368 436 426
3 355 368 426
3 426 354 355
3 425 354 426
3 427 357 356
3 428 357 427
3 357 428 437
3 369 357 437
3 360 359 370
3 360 370 429
3 429 370 438
3 360 358 359
3 363 362 361
3 362 363 430
3 362 430 371
3 371 430 440
3 372 443 433
3 365 372 433
3 433 364 365
3 432 364 433
3 434 367 366
3 435 367 434
3 367 435 444
3 373 367 444
3 436 368 445
3 445 368 374
3 437 446 369
3 446 375 369
3 438 370 447
3 447 370 376
3 378 440 441
3 378 377 440
3 377 371 440
3 441 449 378
3 443 372 451
3 451 372 379
3 444 452 373
3 452 380 373
3 445 374 453
3 453 374 381
3 446 454 375
3 454 382 375
3 447 376 455
3 455 376 383
3 385 377 378
3 384 377 385
3 449 457 385
3 378 449 385
3 451 379 460
3 460 379 386
3 452 461 380
3 461 387 380
3 453 381 462
3 462 381 388
3 454 463 382
3 463 389 382
3 455 383 465
3 465 383 391
3 458 384 385
3 458 467 384
3 467 393 384
3 385 457 458
3 460 386 469
3 469 386 395
3 461 471 387
3 471 397 387
3 462 388 472
3 472 388 399
3 401 464 474
3 390 464 401
3 464 390 389
3 463 464 389
3 392 404 476
3 392 476 391
3 391 476 465
3 392 403 404
3 394 408 406
3 408 394 393
3 408 393 480
3 480 393 467
3 469 395 396
3 470 469 396
3 396 482 470
3 409 482 396
3 412 398 397
3 412 397 484
3 484 397 471
3 472 399 400
3 473 472 400
3 473 400 475
3 400 402 475
3 475 402 401
3 474 475 401
3 476 404 477
3 404 403 405
3 404 405 477
3 477 405 478
3 405 486 478
3 413 486 405
3 414 479 487
3 407 479 414
3 406 408 481
3 406 481 407
3 407 481 479
3 408 480 481
3 482 409 411
3 483 482 411
3 410 412 485
3 410 485 411
3 411 485 483
3 412 484 485
3 486 413 415
3 488 486 415
3 488 415 414
3 487 488 414
3 419 492 489
3 416 419 489
3 416 489 494
3 421 416 494
3 425 500 490
3 417 425 490
3 417 490 502
3 427 417 502
3 429 504 491
3 418 429 491
3 491 493 418
3 418 493 420
3 493 419 420
3 492 419 493
3 494 422 421
3 496 422 494
3 496 497 422
3 422 497 423
3 431 430 423
3 431 423 498
3 498 423 497
3 498 507 431
3 432 508 499
3 424 432 499
3 424 499 510
3 434 424 510
3 436 513 501
3 426 436 501
3 501 425 426
3 500 425 501
3 502 428 427
3 503 428 502
3 428 503 514
3 437 428 514
3 515 505 439
3 505 438 439
3 505 504 438
3 504 429 438
3 442 430 431
3 440 430 442
3 507 517 442
3 431 507 442
3 443 520 509
3 433 443 509
3 509 432 433
3 508 432 509
3 510 435 434
3 511 435 510
3 435 511 521
3 444 435 521
3 513 436 522
3 522 436 445
3 514 523 437
3 523 446 437
3 524 515 439
3 448 524 439
3 439 447 448
3 438 447 439
3 442 441 440
3 441 450 449
3 442 450 441
3 442 518 450
3 442 517 518
3 518 526 450
3 520 443 528
3 528 443 451
3 521 529 444
3 529 452 444
3 522 445 530
3 530 445 453
3 523 531 446
3 531 454 446
3 532 524 448
3 456 532 448
3 448 455 456
3 447 455 448
3 459 449 450
3 457 449 459
3 526 534 459
3 450 526 459
3 528 451 537
3 537 451 460
3 529 538 452
3 538 461 452
3 530 453 539
3 539 453 462
3 531 540 454
3 540 463 454
3 542 532 456
3 466 542 456
3 456 465 466
3 455 465 456
3 458 468 467
3 468 535 545
3 458 535 468
3 458 459 535
3 458 457 459
3 459 534 535
3 537 460 548
3 548 460 469
3 538 550 461
3 550 471 461
3 539 462 551
3 551 462 472
3 474 541 553
3 464 541 474
3 541 464 463
3 540 541 463
3 542 466 544
3 466 555 544
3 466 465 555
3 465 476 555
3 546 467 468
3 546 560 467
3 560 480 467
3 468 545 546
3 548 469 470
3 549 548 470
3 470 563 549
3 482 563 470
3 550 565 471
3 565 484 471
3 551 472 473
3 552 551 473
3 552 473 554
3 473 475 554
3 554 475 474
3 553 554 474
3 555 476 477
3 557 555 477
3 557 477 558
3 477 478 558
3 478 567 558
3 486 567 478
3 487 559 568
3 479 559 487
3 559 479 561
3 479 481 561
3 561 481 480
3 560 561 480
3 563 482 483
3 564 563 483
3 564 483 566
3 483 485 566
3 566 485 484
3 565 566 484
3 567 486 488
3 569 567 488
3 569 488 487
3 568 569 487
3 489 492 495
3 489 495 494
3 500 581 571
3 490 500 571
3 490 571 583
3 502 490 583
3 586 572 506
3 504 506 572
3 504 572 491
3 491 572 573
3 573 574 491
3 491 574 493
3 492 575 495
3 492 493 575
3 493 574 575
3 495 496 494
3 495 575 496
3 575 576 496
3 576 577 496
3 496 577 497
3 577 578 497
3 497 578 498
3 498 578 591
3 507 498 591
3 508 594 579
3 499 508 579
3 512 510 499
3 512 499 580
3 580 499 579
3 580 596 512
3 513 598 582
3 501 513 582
3 582 500 501
3 581 500 582
3 583 503 502
3 584 503 583
3 503 584 599
3 514 503 599
3 600 587 516
3 506 505 515
3 586 506 515
3 586 515 516
3 586 516 587
3 506 504 505
3 519 591 592
3 519 517 591
3 517 507 591
3 592 602 519
3 520 605 595
3 509 520 595
3 595 508 509
3 594 508 595
3 512 511 510
3 511 512 596
3 511 596 521
3 521 596 606
3 598 513 607
3 607 513 522
3 599 608 514
3 608 523 514
3 610 600 516
3 525 610 516
3 516 524 525
3 515 524 516
3 519 518 517
3 518 527 526
3 519 527 518
3 519 603 527
3 519 602 603
3 603 612 527
3 605 520 614
3 614 520 528
3 606 615 521
3 615 529 521
3 607 522 616
3 616 522 530
3 608 617 523
3 617 531 523
3 618 610 525
3 533 618 525
3 525 532 533
3 524 532 525
3 536 526 527
3 534 526 536
3 612 620 536
3 527 612 536
3 614 528 623
3 623 528 537
3 615 624 529
3 624 538 529
3 616 530 625
3 625 530 539
3 617 626 531
3 626 540 531
3 628 618 533
3 543 628 533
3 533 542 543
3 532 542 533
3 535 547 545
3 547 621 631
3 535 621 547
3 535 536 621
3 535 534 536
3 536 620 621
3 623 537 634
3 634 537 548
3 624 636 538
3 636 550 538
3 625 539 637
3 637 539 551
3 553 627 639
3 541 627 553
3 627 541 540
3 626 627 540
3 628 543 630
3 642 544 556
3 630 544 642
3 630 542 544
3 630 543 542
3 544 555 556
3 546 562 560
3 562 632 652
3 546 632 562
3 546 547 632
3 546 545 547
3 547 631 632
3 634 548 549
3 635 634 549
3 549 656 635
3 563 656 549
3 636 659 550
3 659 565 550
3 637 551 552
3 638 637 552
3 638 552 640
3 552 554 640
3 640 554 553
3 639 640 553
3 642 556 644
3 556 555 557
3 556 557 644
3 644 557 645
3 645 557 646
3 557 558 646
3 570 558 567
3 570 647 558
3 647 646 558
3 568 647 570
3 568 559 647
3 559 649 647
3 649 559 651
3 559 561 651
3 560 562 653
3 560 653 561
3 561 653 651
3 562 652 653
3 656 563 564
3 658 656 564
3 658 564 660
3 564 566 660
3 660 566 565
3 659 660 565
3 570 567 569
3 570 569 568
3 581 671 661
3 571 581 661
3 585 583 571
3 585 571 662
3 662 571 661
3 662 673 585
3 677 663 588
3 586 588 663
3 586 663 572
3 572 663 664
3 664 665 572
3 572 665 573
3 665 666 573
3 573 666 574
3 681 589 575
3 681 575 666
3 666 575 574
3 576 575 589
3 590 576 589
3 590 684 667
3 590 667 576
3 576 667 577
3 667 668 577
3 577 668 578
3 593 591 578
3 593 578 669
3 669 578 668
3 669 688 593
3 594 693 670
3 579 594 670
3 696 597 580
3 696 580 670
3 670 580 579
3 580 597 596
3 598 698 672
3 582 598 672
3 672 581 582
3 671 581 672
3 585 584 583
3 584 585 673
3 584 673 599
3 599 673 700
3 704 678 601
3 588 587 600
3 677 588 600
3 677 600 601
3 677 601 678
3 588 586 587
3 681 683 589
3 589 685 590
3 683 685 589
3 590 685 684
3 593 592 591
3 592 604 602
3 593 604 592
3 593 689 604
3 593 688 689
3 689 710 604
3 605 713 694
3 595 605 694
3 694 594 595
3 693 594 694
3 696 697 597
3 597 697 715
3 597 715 596
3 596 715 606
3 698 598 716
3 716 598 607
3 609 700 701
3 609 608 700
3 608 599 700
3 720 704 601
3 611 720 601
3 601 610 611
3 600 610 601
3 604 603 602
3 603 613 612
3 604 613 603
3 604 711 613
3 604 710 711
3 711 724 613
3 713 605 725
3 725 605 614
3 715 727 606
3 727 615 606
3 716 607 728
3 728 607 616
3 718 608 609
3 718 729 608
3 729 617 608
3 732 720 611
3 619 732 611
3 611 618 619
3 610 618 611
3 622 612 613
3 620 612 622
3 724 736 622
3 613 724 622
3 725 614 738
3 738 614 623
3 727 740 615
3 740 624 615
3 728 616 741
3 741 616 625
3 729 742 617
3 742 626 617
3 745 732 619
3 629 745 619
3 619 628 629
3 618 628 619
3 621 633 631
3 633 737 754
3 621 737 633
3 621 622 737
3 621 620 622
3 622 736 737
3 738 623 756
3 756 623 634
3 740 758 624
3 758 636 624
3 741 625 759
3 759 625 637
3 627 641 639
3 641 627 626
3 641 626 763
3 763 626 742
3 745 629 747
3 768 630 643
3 747 630 768
3 747 628 630
3 747 629 628
3 630 642 643
3 774 648 749
3 749 650 751
3 648 650 749
3 751 650 777
3 632 654 652
3 631 654 632
3 631 633 654
3 633 655 654
3 754 783 655
3 633 754 655
3 635 657 786
3 635 786 634
3 634 786 756
3 635 656 657
3 758 790 636
3 790 659 636
3 759 637 638
3 760 759 638
3 760 638 762
3 638 640 762
3 639 641 764
3 639 764 640
3 640 764 762
3 641 763 764
3 768 643 770
3 643 642 644
3 643 644 770
3 770 644 771
3 771 644 772
3 644 645 772
3 772 645 775
3 645 646 775
3 648 774 775
3 648 775 647
3 647 775 646
3 650 648 647
3 649 650 647
3 777 650 649
3 777 649 778
3 778 649 651
3 778 651 780
3 651 653 780
3 652 654 782
3 652 782 653
3 653 782 780
3 654 655 784
3 782 654 784
3 655 783 784
3 786 657 788
3 657 656 658
3 657 658 788
3 788 658 789
3 789 658 791
3 658 660 791
3 791 660 659
3 790 791 659
3 671 806 792
3 661 671 792
3 792 793 661
3 661 793 662
3 674 673 662
3 674 662 794
3 794 662 793
3 794 795 675
3 674 794 675
3 795 796 676
3 675 795 676
3 796 797 679
3 676 796 679
3 677 679 797
3 677 797 663
3 663 797 798
3 798 799 663
3 663 799 664
3 808 680 665
3 808 665 799
3 799 665 664
3 666 665 680
3 682 666 680
3 666 682 681
3 667 684 686
3 668 667 686
3 687 668 686
3 687 811 800
3 687 800 668
3 668 800 669
3 690 688 669
3 690 669 801
3 801 669 800
3 801 802 691
3 690 801 691
3 802 803 692
3 691 802 692
3 803 804 695
3 692 803 695
3 693 695 804
3 693 804 670
3 670 804 805
3 670 805 814
3 696 670 814
3 672 698 699
3 699 671 672
3 699 816 671
3 816 806 671
3 702 673 674
3 700 673 702
3 674 675 702
3 675 703 702
3 675 676 703
3 676 705 703
3 704 679 678
3 704 705 679
3 705 676 679
3 679 677 678
3 808 810 680
3 818 680 810
3 818 706 680
3 706 682 680
3 683 681 682
3 683 682 707
3 707 682 706
3 685 683 707
3 708 685 707
3 684 685 708
3 684 708 686
3 686 708 709
3 812 709 821
3 812 687 709
3 687 686 709
3 687 812 811
3 690 689 688
3 689 712 710
3 689 690 712
3 690 691 712
3 691 692 712
3 692 714 712
3 713 695 694
3 713 714 695
3 714 692 695
3 695 693 694
3 814 697 696
3 815 697 814
3 697 815 824
3 715 697 824
3 817 699 698
3 817 698 825
3 825 698 716
3 699 817 816
3 702 701 700
3 701 719 717
3 701 702 719
3 702 703 719
3 703 705 719
3 705 721 719
3 705 720 721
3 704 720 705
3 818 820 706
3 827 706 820
3 827 722 706
3 722 707 706
3 707 722 708
3 708 722 723
3 822 723 829
3 822 709 723
3 709 708 723
3 709 822 821
3 712 711 710
3 711 726 724
3 711 712 726
3 712 714 726
3 714 725 726
3 713 725 714
3 824 832 715
3 832 727 715
3 825 716 833
3 833 716 728
3 718 730 729
3 717 730 718
3 717 719 730
3 719 731 730
3 719 721 731
3 721 733 731
3 721 732 733
3 720 732 721
3 835 722 827
3 734 722 835
3 722 734 723
3 723 734 735
3 829 735 838
3 723 735 829
3 739 724 726
3 736 724 739
3 726 738 739
3 725 738 726
3 832 842 727
3 842 740 727
3 833 728 843
3 843 728 741
3 743 729 730
3 742 729 743
3 730 731 743
3 731 744 743
3 731 733 744
3 733 746 744
3 733 745 746
3 732 745 733
3 846 748 836
3 836 734 835
3 836 748 734
3 748 750 734
3 734 750 735
3 735 750 752
3 838 753 839
3 838 735 753
3 735 752 753
3 839 753 849
3 737 755 754
3 736 755 737
3 736 739 755
3 739 757 755
3 739 756 757
3 738 756 739
3 842 852 740
3 852 758 740
3 761 844 843
3 761 843 759
3 759 843 741
3 844 761 853
3 765 742 743
3 763 742 765
3 743 744 765
3 744 766 765
3 744 746 766
3 746 767 766
3 747 746 745
3 747 769 746
3 769 767 746
3 747 768 769
3 862 773 847
3 847 748 846
3 847 773 748
3 773 776 748
3 774 749 750
3 774 750 776
3 776 750 748
3 752 750 749
3 751 752 749
3 751 777 779
3 751 779 752
3 752 779 753
3 849 781 850
3 849 753 781
3 753 779 781
3 850 781 865
3 785 754 755
3 783 754 785
3 755 757 785
3 757 787 785
3 757 786 787
3 756 786 757
3 852 873 758
3 873 790 758
3 761 759 760
3 853 761 760
3 853 760 854
3 854 760 762
3 854 762 856
3 762 764 856
3 763 765 857
3 763 857 764
3 764 857 856
3 765 766 858
3 857 765 858
3 766 767 859
3 858 766 859
3 767 769 860
3 859 767 860
3 769 768 770
3 769 770 860
3 860 770 861
3 861 770 863
3 770 771 863
3 773 862 863
3 773 863 772
3 772 863 771
3 776 773 772
3 775 776 772
3 776 775 774
3 779 777 778
3 781 779 778
3 780 781 778
3 865 781 780
3 865 780 866
3 866 780 782
3 866 782 868
3 782 784 868
3 783 785 869
3 783 869 784
3 784 869 868
3 785 787 870
3 869 785 870
3 787 786 788
3 787 788 870
3 870 788 871
3 871 788 872
3 788 789 872
3 872 789 874
3 789 791 874
3 874 791 790
3 873 874 790
3 792 806 807
3 807 887 876
3 807 876 792
3 792 876 793
3 876 877 793
3 793 877 794
3 877 878 794
3 794 878 795
3 878 879 795
3 795 879 796
3 879 880 796
3 796 880 797
3 880 881 797
3 797 881 798
3 892 809 799
3 892 799 881
3 881 799 798
3 799 809 808
3 800 811 813
3 813 895 882
3 813 882 800
3 800 882 801
3 882 883 801
3 801 883 802
3 883 884 802
3 802 884 803
3 884 885 803
3 803 885 804
3 885 886 804
3 804 886 805
3 805 886 901
3 814 805 901
3 888 807 806
3 888 806 904
3 904 806 816
3 807 888 887
3 892 894 809
3 907 819 810
3 894 907 810
3 894 810 808
3 894 808 809
3 810 819 818
3 812 821 823
3 823 910 896
3 812 823 896
3 812 896 813
3 812 813 811
3 813 896 895
3 901 815 814
3 903 815 901
3 815 903 913
3 824 815 913
3 817 825 826
3 826 816 817
3 826 915 816
3 915 904 816
3 907 909 819
3 918 828 820
3 909 918 820
3 909 820 818
3 909 818 819
3 820 828 827
3 822 829 830
3 821 822 830
3 821 830 823
3 823 830 831
3 910 831 920
3 823 831 910
3 913 922 824
3 922 832 824
3 834 826 825
3 833 834 825
3 915 834 924
3 826 834 915
3 927 828 918
3 837 828 927
3 828 837 835
3 827 828 835
3 840 830 829
3 838 840 829
3 830 840 831
3 831 840 841
3 920 841 930
3 831 841 920
3 922 932 832
3 932 842 832
3 845 834 833
3 843 845 833
3 924 845 934
3 834 845 924
3 938 848 928
3 837 846 836
3 927 846 837
3 927 848 846
3 927 928 848
3 837 836 835
3 840 838 839
3 839 849 851
3 839 851 840
3 840 851 841
3 930 851 941
3 841 851 930
3 932 949 842
3 949 852 842
3 845 843 844
3 844 853 855
3 845 844 855
3 845 855 935
3 845 935 934
3 935 855 952
3 962 864 939
3 848 862 847
3 938 862 848
3 938 864 862
3 938 939 864
3 848 847 846
3 851 849 850
3 850 865 867
3 851 850 867
3 851 867 942
3 851 942 941
3 942 867 965
3 974 875 950
3 950 875 873
3 950 873 949
3 949 873 852
3 855 853 854
3 952 855 854
3 952 854 953
3 953 854 856
3 953 856 955
3 856 857 955
3 955 857 957
3 857 858 957
3 957 858 959
3 858 859 959
3 959 859 960
3 859 860 960
3 960 860 963
3 860 861 963
3 864 962 963
3 864 963 863
3 863 963 861
3 864 863 862
3 867 865 866
3 965 867 866
3 965 866 966
3 966 866 868
3 966 868 968
3 868 869 968
3 968 869 970
3 869 870 970
3 970 870 972
3 870 871 972
3 972 871 975
3 871 872 975
3 875 974 975
3 875 975 874
3 874 975 872
3 875 874 873
3 876 887 889
3 877 876 889
3 890 877 889
3 890 979 977
3 890 977 877
3 877 977 878
3 977 978 878
3 878 978 879
3 982 891 880
3 982 880 978
3 978 880 879
3 881 880 891
3 893 881 891
3 881 893 892
3 882 895 897
3 883 882 897
3 898 883 897
3 884 883 898
3 899 884 898
3 885 884 899
3 900 885 899
3 886 885 900
3 902 886 900
3 886 902 901
3 888 904 905
3 887 888 905
3 887 905 889
3 889 905 906
3 980 906 990
3 980 890 906
3 890 889 906
3 890 980 979
3 982 984 891
3 891 985 893
3 984 985 891
3 994 908 894
3 985 994 894
3 985 894 892
3 985 892 893
3 894 908 907
3 896 910 911
3 895 896 911
3 895 911 897
3 897 911 912
3 986 912 996
3 986 898 912
3 898 897 912
3 898 987 899
3 986 987 898
3 899 988 900
3 987 988 899
3 900 989 902
3 988 989 900
3 1001 914 903
3 989 1001 903
3 989 903 901
3 989 901 902
3 903 914 913
3 916 905 904
3 915 916 904
3 991 916 1003
3 991 906 916
3 906 905 916
3 906 991 990
3 1007 908 994
3 917 908 1007
3 909 907 908
3 909 908 919
3 919 908 917
3 909 919 918
3 921 911 910
3 920 921 910
3 997 921 1009
3 997 912 921
3 912 911 921
3 912 997 996
3 1014 914 1001
3 923 914 1014
3 914 923 922
3 913 914 922
3 925 916 915
3 924 925 915
3 1003 925 1016
3 916 925 1003
3 1021 917 1007
3 926 917 1021
3 917 926 919
3 919 926 929
3 919 929 927
3 918 919 927
3 931 921 920
3 930 931 920
3 1009 931 1023
3 921 931 1009
3 1032 923 1014
3 933 923 1032
3 923 933 932
3 922 923 932
3 936 925 924
3 934 936 924
3 1016 937 1017
3 1016 925 937
3 925 936 937
3 1017 937 1035
3 1043 926 1021
3 940 926 1043
3 938 928 929
3 938 929 940
3 940 929 926
3 929 928 927
3 943 931 930
3 941 943 930
3 1023 944 1024
3 1023 931 944
3 931 943 944
3 1024 945 1026
3 944 945 1024
3 1026 946 1028
3 945 946 1026
3 1028 947 1030
3 946 947 1028
3 1030 948 1033
3 947 948 1030
3 1033 933 1032
3 1033 948 933
3 948 951 933
3 933 951 949
3 932 933 949
3 936 934 935
3 935 952 954
3 935 954 936
3 936 954 937
3 1035 956 1036
3 1035 937 956
3 937 954 956
3 1036 958 1038
3 956 958 1036
3 1038 958 1046
3 1047 961 1041
3 1041 964 1044
3 961 964 1041
3 940 962 939
3 1043 962 940
3 1043 964 962
3 1043 1044 964
3 940 939 938
3 943 941 942
3 942 965 967
3 942 967 943
3 943 967 944
3 944 967 945
3 945 967 969
3 945 969 946
3 946 969 971
3 946 971 947
3 947 971 973
3 947 973 948
3 948 973 976
3 974 950 951
3 974 951 976
3 976 951 948
3 951 950 949
3 954 952 953
3 956 954 953
3 955 956 953
3 958 956 955
3 957 958 955
3 1046 958 957
3 1046 957 1048
3 1048 957 959
3 961 1047 1048
3 961 1048 960
3 960 1048 959
3 964 961 960
3 963 964 960
3 964 963 962
3 967 965 966
3 969 967 966
3 968 969 966
3 971 969 968
3 970 971 968
3 973 971 970
3 972 973 970
3 976 973 972
3 975 976 972
3 976 975 974
3 977 979 981
3 978 977 981
3 983 978 981
3 978 983 982
3 980 990 992
3 992 1052 1050
3 980 992 1050
3 980 1050 981
3 980 981 979
3 981 1051 983
3 1050 1051 981
3 1054 993 984
3 1051 1054 984
3 1051 984 982
3 1051 982 983
3 985 984 993
3 995 985 993
3 985 995 994
3 986 996 998
3 987 986 998
3 999 987 998
3 988 987 999
3 1000 988 999
3 989 988 1000
3 1002 989 1000
3 989 1002 1001
3 991 1003 1004
3 990 991 1004
3 990 1004 992
3 992 1004 1005
3 1052 1005 1056
3 992 1005 1052
3 1058 993 1054
3 1006 993 1058
3 993 1006 995
3 995 1006 1008
3 995 1008 1007
3 994 995 1007
3 997 1009 1010
3 996 997 1010
3 996 1010 998
3 998 1010 1011
3 998 1011 999
3 999 1011 1012
3 999 1012 1000
3 1000 1012 1013
3 1000 1013 1002
3 1002 1013 1015
3 1002 1015 1014
3 1001 1002 1014
3 1018 1004 1003
3 1016 1018 1003
3 1004 1018 1005
3 1005 1018 1019
3 1056 1019 1060
3 1005 1019 1056
3 1063 1006 1058
3 1020 1006 1063
3 1006 1020 1008
3 1008 1020 1022
3 1008 1022 1021
3 1007 1008 1021
3 1025 1010 1009
3 1023 1025 1009
3 1010 1025 1011
3 1011 1025 1027
3 1011 1027 1012
3 1012 1027 1029
3 1012 1029 1013
3 1013 1029 1031
3 1013 1031 1015
3 1015 1031 1034
3 1015 1034 1032
3 1014 1015 1032
3 1018 1016 1017
3 1017 1035 1037
3 1017 1037 1018
3 1018 1037 1019
3 1060 1039 1061
3 1060 1019 1039
3 1019 1037 1039
3 1061 1040 1064
3 1039 1040 1061
3 1064 1020 1063
3 1064 1040 1020
3 1040 1042 1020
3 1020 1042 1022
3 1022 1042 1045
3 1022 1045 1043
3 1021 1022 1043
3 1025 1023 1024
3 1027 1025 1024
3 1026 1027 1024
3 1029 1027 1026
3 1028 1029 1026
3 1031 1029 1028
3 1030 1031 1028
3 1034 1031 1030
3 1033 1034 1030
3 1034 1033 1032
3 1037 1035 1036
3 1039 1037 1036
3 1038 1039 1036
3 1038 1046 1049
3 1038 1049 1039
3 1039 1049 1040
3 1047 1041 1042
3 1047 1042 1049
3 1049 1042 1040
3 1045 1042 1041
3 1044 1045 1041
3 1045 1044 1043
3 1049 1046 1048
3 1049 1048 1047
3 1050 1052 1053
3 1051 1050 1053
3 1055 1051 1053
3 1057 1053 1052
3 1056 1057 1052
3 1053 1057 1055
3 1055 1057 1059
3 1055 1059 1058
3 1054 1055 1058
3 1062 1057 1056
3 1060 1062 1056
3 1057 1062 1059
3 1059 1062 1065
3 1059 1065 1063
3 1058 1059 1063
3 1062 1060 1061
3 1065 1062 1061
3 1064 1065 1061
3 1065 1064 1063
