ply
format ascii 1.0
element vertex 512
property float x
property float y
property float z
property float nx
property float ny
property float nz
end_header
-0.166410 -0.022239 -0.479221 0.988424 0.152713 0.039747
-0.434207 0.061345 0.116434 0.949242 -0.164172 -0.270599
0.033640 0.192644 -0.618080 -0.708962 -0.707055 -0.019714
0.421584 -0.172666 0.107863 -0.673803 0.729762 0.128098
-0.009477 0.072739 0.094836 -0.586861 -0.436101 -0.684243
0.399466 0.034658 0.514050 -0.985235 -0.179768 -0.001635
-0.064224 0.211296 -0.788091 0.162819 -0.981238 0.109220
0.404721 -0.085395 -0.040708 -0.806468 0.140650 0.576802
-0.009442 -0.234475 0.599717 0.179385 0.984542 -0.006618
0.276917 0.176696 0.077216 0.485226 -0.588255 -0.648697
-0.165005 0.084462 -0.474967 0.906384 -0.406787 -0.113605
-0.022329 0.225402 -0.543438 0.062480 -0.995634 -0.083415
0.303825 0.044239 -0.553310 -0.948587 -0.091493 -0.307652
-0.236935 -0.035780 0.545162 0.697423 0.236028 -0.677249
0.265653 -0.225249 0.669783 -0.360399 0.844243 -0.397757
0.298637 -0.126823 0.754059 -0.490405 0.331647 -0.807187
0.305538 0.208001 0.457625 -0.527496 -0.849371 0.048806
0.228576 -0.178857 -0.658612 -0.584996 0.751077 -0.309733
0.234475 -0.055631 0.819939 -0.470215 0.310704 -0.827720
0.128654 -0.081850 0.021271 0.606245 0.191765 -0.772369
0.117400 0.223513 0.746656 0.079187 -0.715556 -0.695592
0.041028 -0.214172 -0.607718 -0.832137 0.557091 0.006326
-0.006284 0.047979 0.425644 -0.453601 -0.102606 0.885971
-0.012951 -0.132875 0.071053 -0.526427 0.561697 -0.640171
0.270504 -0.159584 -0.458390 -0.516057 0.780355 0.358259
0.002394 0.198566 0.704920 0.327053 -0.831182 -0.451879
-0.201644 -0.158807 0.518979 0.659528 0.563758 -0.498526
0.402368 0.038015 0.410040 -0.984994 -0.179567 -0.001117
0.243297 -0.177186 -0.540548 -0.018414 0.998021 0.072822
-0.099872 0.002692 0.218253 -0.884893 0.268674 -0.384555
-0.242850 0.074296 0.520271 0.666055 -0.319352 -0.675923
0.054525 -0.087708 0.454707 -0.218851 0.249771 0.944072
-0.064344 -0.233788 0.016536 -0.143965 0.920097 -0.365805
-0.204549 -0.230107 0.141642 -0.230691 0.969034 0.095789
-0.042879 -0.254973 -0.176863 0.556564 0.831236 0.011095
-0.052654 -0.241646 -0.674810 0.073882 0.991642 -0.112630
0.302395 0.067928 -0.434263 -0.979352 -0.137634 0.157355
-0.191885 0.177046 -0.130336 0.686165 -0.363736 0.631700
0.158498 0.272471 -0.187237 -0.482941 -0.853192 0.204398
0.353162 -0.162395 0.405750 -0.873459 0.484939 0.062710
0.310650 -0.082241 -0.694777 -0.728616 0.328397 0.603433
-0.376751 0.146992 0.159910 0.795618 -0.607032 0.009709
0.224447 -0.227759 0.701084 -0.360196 0.845020 -0.397973
-0.139947 -0.151645 -0.194575 0.602739 0.324128 0.730001
0.399666 -0.038080 0.437404 -0.977039 0.208644 0.056546
0.201761 0.240702 0.578029 0.042539 -0.995219 0.108715
0.123759 -0.172146 -0.841290 -0.303965 0.368814 0.879315
0.313294 -0.085817 -0.545771 -0.946479 0.326793 -0.020767
-0.050633 -0.178647 0.659716 0.536874 0.470189 -0.701438
0.300202 -0.187767 0.363226 0.073325 0.916800 0.394827
-0.141858 0.085077 0.614580 0.641288 -0.372449 -0.672346
0.214716 -0.039386 -0.835446 -0.683332 0.093214 0.725828
-0.060543 -0.223894 0.532239 0.179858 0.984602 -0.005655
0.231356 -0.199562 0.754810 -0.360147 0.844920 -0.397990
0.374019 0.075064 0.670432 -0.909341 -0.312146 -0.277134
-0.035143 -0.248467 -0.746854 0.071160 0.991777 -0.113858
0.321010 -0.199395 0.409624 -0.534654 0.843485 0.069583
0.274061 -0.132048 0.102405 0.312415 0.370943 -0.875710
-0.113067 -0.051430 -0.853198 0.861452 0.078414 0.502656
-0.085107 -0.003416 0.356542 -0.955417 0.002212 0.299817
-0.144777 -0.177833 0.357799 -0.661067 0.743306 0.118668
0.335309 -0.051159 -0.303577 -0.787245 0.163539 -0.597085
-0.291899 0.145490 -0.048841 0.583612 -0.457274 0.672041
0.368960 -0.099974 0.181117 0.523417 0.470458 -0.710232
0.304767 -0.113683 -0.470092 -0.945960 0.327945 -0.019849
0.400500 0.042981 0.436544 -0.984610 -0.179271 -0.001101
0.050726 0.178709 -0.688682 -0.708910 -0.706945 -0.019454
-0.412050 0.023930 -0.011390 0.662459 -0.066686 0.746704
-0.065976 0.220200 -0.672327 0.120129 -0.993903 0.008445
0.092949 0.264151 -0.082670 0.013694 -0.854188 -0.522351
-0.033914 0.154126 0.456863 -0.536401 -0.421483 0.732886
0.041651 -0.212113 -0.575577 -0.832388 0.557051 0.005782
-0.040692 -0.241498 -0.339715 0.575527 0.817246 -0.043328
-0.185855 0.192395 -0.127779 0.670305 -0.361983 0.648514
0.233428 -0.133110 0.077450 0.581746 0.391469 -0.713279
0.239930 0.240474 -0.031048 -0.361393 -0.921749 -0.150818
0.192444 -0.192906 0.771580 -0.095483 0.420348 -0.902922
0.346043 0.115595 0.726010 -0.683818 -0.221671 -0.696773
0.354050 0.009659 0.747104 -0.800551 0.009321 -0.601064
0.079065 -0.186718 0.747156 0.489917 0.481835 -0.727019
-0.150292 -0.246774 0.031291 -0.039584 1.000122 -0.000915
-0.092139 -0.257775 -0.072592 0.059997 0.990437 -0.131714
-0.121825 0.159058 -0.778099 0.688826 -0.511996 0.515037
0.081918 0.122105 -0.853083 -0.025400 -0.500482 0.866466
0.023352 0.192404 -0.008331 -0.475595 -0.551213 -0.687869
0.114055 -0.256222 -0.086492 0.010419 0.846429 -0.534391
-0.112438 -0.065363 0.662323 0.733073 -0.072233 -0.676708
0.112235 0.143775 -0.464030 -0.650921 -0.649015 0.396652
-0.016838 -0.238402 -0.483963 0.097885 0.992874 -0.079997
0.022178 0.075614 -0.881502 -0.025316 -0.500651 0.866394
0.307446 -0.116641 -0.152088 -0.710210 0.390009 0.589008
0.081954 0.147636 -0.638806 -0.708502 -0.707534 -0.019622
-0.054701 -0.236849 -0.683860 0.496730 0.856119 0.145165
-0.333680 0.121218 0.345967 0.775125 -0.495030 -0.393241
0.240918 -0.196317 0.752310 -0.360708 0.845354 -0.397906
0.048357 0.285076 -0.246023 -0.094265 -0.985182 0.150931
0.034708 -0.162438 -0.860313 -0.016411 0.506455 0.863068
-0.196861 -0.237914 -0.016303 0.332603 0.890661 0.313026
0.293161 -0.115245 -0.460204 -0.737852 0.324079 0.593919
-0.120218 -0.145677 -0.724387 0.880625 0.466766 0.083722
0.196073 0.063445 0.086494 0.536224 -0.281931 -0.796771
-0.441217 -0.061473 0.111696 0.921187 0.232209 -0.314176
-0.135963 0.094536 -0.797362 0.956607 -0.224498 0.188411
0.207844 -0.123616 -0.811452 -0.576571 0.582033 0.575569
0.299665 0.078675 -0.551873 -0.947812 -0.091288 -0.307966
0.302765 0.114867 -0.281554 -0.814852 -0.217725 -0.540306
0.391723 -0.008946 0.628906 -0.983426 0.177312 -0.067571
0.021418 -0.197732 0.701202 0.489298 0.482335 -0.727167
0.141204 -0.077118 0.032013 0.606223 0.191502 -0.771948
-0.093041 0.237929 -0.193548 0.357752 -0.887950 0.292833
0.313985 -0.036724 0.164903 0.629038 0.044091 -0.777367
0.171187 -0.223038 0.725128 -0.081246 0.884856 -0.460572
-0.207121 0.227625 0.096931 -0.204344 -0.962354 -0.189170
-0.028162 0.054126 0.742145 0.731747 -0.070703 -0.678252
0.043839 0.189308 -0.748305 -0.708923 -0.706361 -0.019566
-0.157639 -0.031919 0.611438 0.734755 -0.074192 -0.674957
0.270925 0.137106 -0.581066 -0.941419 -0.336676 -0.054133
-0.363439 -0.060180 -0.050475 0.632816 0.249027 0.734636
0.005632 0.127602 0.054822 -0.468060 -0.575229 -0.673502
0.315852 0.184894 0.660438 -0.534212 -0.835625 -0.137519
-0.160689 0.041287 -0.678123 0.998026 -0.063661 0.028913
0.343075 0.171600 0.623100 -0.891434 -0.455190 -0.030517
0.167684 0.138019 -0.648581 0.718002 -0.288852 -0.633967
-0.140838 0.095581 0.609453 0.642282 -0.371242 -0.672275
0.227439 0.193179 0.770726 -0.313755 -0.605240 -0.732838
0.231666 -0.136715 -0.756713 -0.868507 0.483151 0.119834
0.017030 0.179685 0.007505 -0.544114 -0.474808 -0.693839
0.085026 0.086025 -0.873860 -0.025102 -0.500182 0.866356
0.043381 -0.279059 -0.257147 0.415997 0.862197 0.290491
-0.024126 -0.091589 0.731696 0.603766 0.290066 -0.744305
-0.354115 0.126462 0.297691 0.776393 -0.495086 -0.392355
-0.090769 -0.125015 -0.858184 0.829428 0.295955 0.474230
-0.209307 -0.058781 -0.179514 0.595194 0.340471 0.728044
0.311558 0.051607 -0.399300 -0.979426 -0.136897 0.157878
-0.273109 -0.078478 0.493865 0.696793 0.236837 -0.677980
0.155666 0.146742 -0.684460 0.642455 -0.642675 -0.418642
-0.157391 -0.181375 0.553457 0.658380 0.563668 -0.499000
-0.106191 0.104285 0.342903 -0.933329 -0.329687 0.153450
0.179189 0.247570 -0.299004 -0.495767 -0.854659 0.161292
-0.427236 -0.066500 0.024766 0.929716 0.333566 0.159403
0.173714 0.117917 -0.581035 0.748332 -0.616459 0.246826
0.370016 0.015907 0.717267 -0.908384 0.271367 -0.322156
-0.333041 -0.175637 0.259503 0.750556 0.590762 -0.298063
0.032773 -0.204199 -0.816299 0.040596 0.777721 0.629281
0.028049 -0.248297 -0.363794 0.111626 0.959378 0.260357
-0.142432 0.123680 -0.432936 0.905981 -0.407735 -0.113571
0.223128 -0.225096 0.473385 0.144728 0.905443 0.399872
0.186828 -0.178679 0.014743 0.583300 0.390928 -0.713784
0.095239 0.027069 -0.539392 -0.695802 0.112547 0.711271
0.191669 0.140646 -0.621233 0.718827 -0.288876 -0.632590
-0.200414 0.098639 -0.164810 0.693378 -0.300779 0.657269
0.048647 -0.270242 -0.296040 0.112123 0.959593 0.261104
-0.150409 0.037593 -0.254575 0.965427 -0.125547 0.230794
0.127391 0.030274 -0.622311 -0.888794 0.053378 -0.459383
0.117211 0.144511 -0.664100 -0.485071 -0.049298 -0.874312
-0.194925 0.194355 0.258911 -0.675027 -0.729629 0.123364
-0.246230 -0.230697 0.018538 0.402289 0.767583 0.500162
0.184405 0.174138 0.024077 0.424466 -0.529169 -0.735917
0.255894 0.108749 0.807122 -0.624775 -0.242051 -0.744532
-0.087016 -0.155710 -0.837901 0.467235 0.653327 0.596296
0.073513 -0.109358 -0.881172 -0.063339 0.266397 0.962827
0.111860 0.252038 0.631306 -0.005110 -0.970532 0.243542
0.127442 -0.151004 -0.444252 -0.692869 0.355515 0.628887
-0.137738 0.151272 0.320529 -0.717284 -0.647486 0.263777
0.107415 0.060245 -0.588390 -0.987264 -0.166440 -0.014359
0.370889 0.148634 0.351731 -0.900995 -0.436166 -0.016157
-0.154357 -0.079186 -0.215942 0.595580 0.341276 0.727664
-0.160552 0.045331 -0.684499 0.998106 -0.063465 0.029353
0.064529 0.194881 0.513528 -0.096969 -0.664259 0.742354
-0.143220 -0.190067 0.561906 0.659236 0.563625 -0.498782
-0.007368 0.254821 -0.269252 0.357764 -0.885834 0.297566
0.275306 0.089802 -0.479282 -0.778331 -0.290212 0.558756
0.388044 -0.104224 -0.042765 -0.812810 0.404736 0.423489
-0.140088 -0.143538 0.288724 -0.874435 0.383133 0.303412
-0.199324 -0.211496 0.427842 0.353946 0.897503 -0.266644
-0.062270 0.145733 0.431655 -0.536706 -0.420560 0.732898
0.278559 0.119990 -0.513418 -0.940597 -0.340359 -0.052449
-0.353272 -0.164565 0.233169 0.759681 0.561894 -0.328475
0.227980 -0.237247 -0.135517 -0.605871 0.694578 0.391448
-0.093932 0.207677 -0.470535 0.633777 -0.771169 -0.074657
0.096935 0.290744 -0.153129 -0.330623 -0.941437 -0.085566
-0.106421 -0.184001 -0.652480 0.878636 0.470716 0.083419
0.254211 0.192298 -0.351661 -0.647617 -0.729615 0.223935
0.026122 -0.198484 -0.822627 0.040937 0.777075 0.629025
0.065833 0.225418 -0.409091 -0.489213 -0.717668 0.497929
0.194482 0.154886 0.801953 -0.028918 -0.546499 -0.838476
-0.143782 -0.104661 -0.683031 0.882347 0.463172 0.082989
0.060612 0.265593 -0.344689 -0.217319 -0.957129 0.195710
-0.152560 -0.180863 0.560917 0.658266 0.564015 -0.498942
0.206800 -0.150927 0.789214 -0.095609 0.421185 -0.903505
0.294461 0.052525 -0.748773 -0.859435 -0.269551 0.438448
-0.094713 -0.040031 0.325415 -0.954919 0.001978 0.299761
-0.232732 -0.211347 0.331660 0.068595 0.982691 -0.177713
0.231579 -0.064788 -0.810966 -0.729149 0.328499 0.602822
0.312469 0.023898 -0.416745 -0.980041 -0.134235 0.157043
0.296235 -0.127668 -0.669059 -0.803876 0.596304 -0.029480
0.121480 -0.284966 -0.185796 -0.273283 0.962122 -0.042241
0.093970 -0.224544 -0.050777 -0.262101 0.749656 -0.609779
0.494238 0.043266 0.192427 -1.000306 -0.030153 0.001668
-0.260147 -0.203157 0.353807 0.449410 0.870717 -0.203097
-0.169396 -0.239981 0.067080 -0.168948 0.938585 -0.303330
0.137007 -0.098313 0.023726 0.606110 0.192265 -0.771926
0.155059 0.139962 0.027400 0.572254 -0.310330 -0.760098
0.360335 -0.037640 0.701356 -0.908489 0.271876 -0.322254
0.281081 -0.096512 0.301423 0.593478 0.252872 0.764170
0.355978 0.158566 0.137424 0.589199 -0.537306 -0.605143
-0.219191 -0.231628 0.123511 -0.230448 0.969606 0.096102
0.200823 0.235853 -0.300103 -0.496207 -0.854994 0.160909
0.298178 -0.130577 -0.463729 -0.939554 0.345308 -0.014580
0.278921 -0.179788 -0.144561 -0.714303 0.390366 0.583791
0.183093 -0.146484 -0.555066 0.834794 0.261502 0.484665
-0.037158 0.105877 0.096119 -0.475811 -0.544123 -0.691560
0.182428 -0.106009 -0.853985 -0.575681 0.583071 0.575968
0.326254 0.196217 0.492298 -0.527307 -0.849649 0.049404
-0.027613 -0.219962 -0.785533 0.350439 0.844112 0.407363
0.225883 0.203135 0.762422 -0.277379 -0.631171 -0.724349
0.217688 -0.065154 0.341822 0.573244 0.149341 0.806311
-0.023584 -0.216773 0.659357 0.305578 0.742397 -0.598200
0.355184 0.009171 0.204832 0.526881 -0.138134 -0.839344
-0.155086 0.108950 -0.583241 0.980615 -0.184206 0.072762
-0.065759 -0.226947 0.587376 0.283358 0.947715 -0.153381
0.012944 -0.107846 0.450328 -0.219699 0.250046 0.944057
0.399759 0.031136 0.523380 -0.985163 -0.179981 -0.001812
0.186788 0.155405 -0.818846 -0.696425 -0.487063 0.529606
0.030306 -0.248225 0.657126 0.312750 0.949070 0.045423
-0.140947 0.154421 0.139301 -0.797410 -0.539195 -0.276564
0.084620 -0.010087 0.064916 -0.150317 -0.454251 -0.878624
0.289071 -0.109765 -0.179029 -0.710850 0.388979 0.588017
0.350833 0.201209 0.051299 -0.417959 -0.867259 0.276418
0.007730 -0.243778 0.647149 0.145825 0.948147 -0.284735
0.268242 -0.022600 0.812635 -0.417539 0.220131 -0.882674
0.138351 -0.078168 -0.477050 -0.693063 0.356362 0.629033
-0.200464 -0.218223 0.143681 -0.476674 0.654855 -0.588727
-0.091645 0.015663 0.331367 -0.860048 -0.004223 0.513297
-0.004159 0.228263 -0.732800 0.169775 -0.982986 0.078559
-0.001997 -0.238720 -0.359565 0.133319 0.839863 0.527945
0.426801 0.086683 0.025430 -0.880732 -0.287681 0.379859
-0.280084 -0.192043 0.357777 0.449460 0.870612 -0.203033
0.333996 -0.054601 0.762185 -0.908268 0.272162 -0.322563
-0.223988 -0.020879 -0.168625 0.697569 0.160973 0.698931
-0.072763 -0.220499 -0.373602 0.581255 0.812810 -0.045936
-0.128415 0.170486 -0.658718 0.924679 -0.380980 0.038999
0.339003 0.182726 0.426251 -0.658873 -0.751114 0.059785
0.190404 0.118727 0.824454 0.041467 -0.298741 -0.954346
0.186493 -0.182210 0.777609 -0.095742 0.421271 -0.903316
0.226622 -0.155508 -0.716573 -0.868821 0.482526 0.119694
0.164932 -0.050991 0.375685 0.537163 0.153927 0.830064
-0.299198 -0.230857 0.081263 0.553326 0.825208 0.117003
-0.035067 -0.260568 -0.179045 0.555601 0.831284 0.010345
0.134492 0.261954 -0.077328 0.012676 -0.853831 -0.521950
-0.380504 0.075558 -0.025845 0.573318 -0.490361 0.657154
0.211355 0.226042 -0.356660 -0.647922 -0.728819 0.224442
-0.334720 0.145370 -0.011912 0.581998 -0.461707 0.671197
0.099695 0.176136 -0.463028 -0.719872 -0.292324 0.630992
-0.100637 -0.166402 0.111934 -0.563350 0.515804 -0.646914
-0.090920 0.243622 -0.037708 -0.109224 -0.945519 -0.310515
-0.160678 -0.005737 -0.666541 0.987631 0.154242 0.039577
0.150854 0.125260 0.405266 0.451363 -0.227427 0.862999
-0.002111 0.125094 0.058035 -0.587767 -0.436743 -0.682694
0.323884 -0.201125 0.614930 -0.874623 0.444111 -0.197710
0.083794 0.196756 0.770944 0.079070 -0.715339 -0.695478
0.311147 0.061293 -0.391754 -0.979234 -0.135529 0.157805
-0.399047 0.094910 0.003920 0.542660 -0.493453 0.681187
-0.395440 -0.068511 0.241084 0.905206 0.208685 -0.372909
0.334308 -0.170749 0.119114 0.374633 0.533892 -0.758523
0.300181 -0.207169 -0.073086 -0.604304 0.695429 0.390262
0.455888 0.120809 0.180096 -0.422491 -0.767258 -0.484762
-0.087368 0.209597 -0.540807 0.335637 -0.935944 0.113999
0.006795 -0.223822 0.508316 0.188571 0.334175 0.924228
0.139700 -0.222871 0.730009 0.155004 0.732721 -0.663232
-0.405449 0.122155 0.145894 0.850090 -0.468139 -0.243373
-0.347371 0.185250 0.163727 0.499905 -0.832961 -0.240726
0.454652 -0.145758 0.124533 -0.673227 0.728584 0.128983
0.392315 -0.066831 0.405164 -0.977377 0.208770 0.055638
-0.191734 -0.240764 -0.014134 0.332290 0.890166 0.313526
-0.190425 -0.214144 -0.089605 0.367346 0.856419 0.364261
0.036294 0.258857 -0.371488 -0.107979 -0.964065 0.247517
0.381119 0.112208 0.480885 -0.902345 -0.434625 -0.015410
0.124392 0.082986 0.406433 0.461290 -0.134831 0.877704
-0.026036 -0.129757 0.439820 -0.420160 0.530082 0.738505
0.362465 -0.205878 0.041740 -0.393542 0.914436 0.100766
0.154234 0.061073 0.842243 0.041715 -0.298668 -0.954611
0.169754 0.140543 0.812280 -0.028593 -0.546397 -0.838252
-0.138426 0.152867 -0.596726 0.924009 -0.381894 0.039579
-0.117855 -0.144487 -0.264885 0.840583 0.463676 -0.278326
0.297394 -0.131308 -0.154033 -0.709899 0.388347 0.588176
0.197472 -0.143931 0.385742 0.451867 0.550383 0.702590
-0.212682 0.233829 -0.034860 0.374516 -0.904916 0.211329
-0.050572 0.129768 0.681322 0.777818 -0.322451 -0.541544
0.073767 0.212253 -0.421004 -0.489701 -0.717650 0.497574
0.118082 0.171103 -0.010322 0.421938 -0.530192 -0.735636
0.248400 0.179454 0.060606 0.434979 -0.515004 -0.739664
0.264864 -0.117519 0.779187 -0.467861 0.152275 -0.872130
-0.044509 0.174934 0.055231 -0.536878 -0.481867 -0.694509
-0.374720 -0.165833 0.030442 0.536978 0.684264 0.495590
-0.312402 0.089249 -0.069735 0.621135 -0.302855 0.723869
-0.220162 -0.159666 0.492461 0.659186 0.563891 -0.498836
0.250914 -0.143794 0.351810 0.433120 0.540434 0.722081
0.353840 -0.148727 0.593615 -0.859231 0.492493 -0.148781
-0.166816 0.006072 -0.566992 0.988365 0.153703 0.040136
0.234495 0.216061 -0.277597 -0.730538 -0.647693 -0.221261
-0.101974 0.097323 0.151793 -0.467983 -0.573494 -0.673510
-0.435195 0.023038 0.014698 0.963111 -0.210197 0.174368
-0.259177 0.218250 0.184766 -0.044559 -0.976637 -0.218127
-0.095371 0.091283 0.654799 0.642056 -0.371156 -0.672037
-0.098537 0.175884 -0.239764 0.692634 -0.306575 0.653953
0.290301 0.180336 0.734783 -0.611045 -0.675192 -0.416122
-0.152279 0.053537 -0.769329 0.980562 -0.185877 0.073102
0.205977 -0.217912 -0.007159 0.483819 0.654054 -0.582828
-0.395386 0.038318 0.258943 0.923016 -0.034128 -0.385718
-0.120757 -0.163270 -0.579947 0.924589 0.380508 0.030439
0.070458 -0.106195 -0.880442 -0.085745 0.348961 0.934023
0.497521 -0.020680 0.129218 -0.977779 -0.088309 0.195680
0.070535 0.143977 -0.512352 -0.776941 -0.625922 -0.094770
0.013986 -0.099677 0.448413 -0.219518 0.249705 0.943971
0.253161 -0.243401 0.595443 -0.150062 0.988083 -0.052541
0.298910 -0.061376 -0.726989 -0.728559 0.328401 0.603183
0.021158 0.161310 0.017164 -0.476838 -0.545554 -0.690142
0.337270 -0.178115 -0.066479 -0.727842 0.392000 0.564742
-0.176950 0.244108 -0.054994 0.360211 -0.906607 0.226378
-0.054084 -0.119623 -0.873493 0.357022 0.500817 0.788611
-0.394279 0.005731 0.264404 0.928873 -0.046720 -0.368956
0.048055 0.070153 0.049229 -0.510137 -0.310059 -0.804086
0.043620 -0.210011 -0.613769 -0.831710 0.556794 0.005766
-0.079555 0.126449 0.649964 0.642554 -0.370957 -0.672428
0.219846 -0.179162 -0.479617 -0.516090 0.779493 0.358347
0.319579 -0.031046 -0.419713 -0.979125 -0.137023 0.157612
0.274155 -0.162486 -0.443787 -0.514582 0.779504 0.358198
-0.152519 0.114415 -0.597670 0.980411 -0.184854 0.072903
-0.083884 -0.171425 0.419421 -0.516680 0.775324 0.367212
-0.187751 0.229574 0.067750 -0.204197 -0.962606 -0.189990
0.066508 -0.176839 -0.573805 -0.832400 0.556103 0.005456
-0.306038 0.215640 0.144421 0.500240 -0.832026 -0.241771
0.014220 0.004664 0.431337 -0.453888 -0.101558 0.887137
-0.164415 -0.009124 -0.569189 0.987986 0.153661 0.039698
0.036168 0.198248 0.512868 -0.096827 -0.664240 0.742207
0.293991 -0.166284 0.094925 0.312508 0.369869 -0.876102
-0.036523 -0.190254 0.038707 -0.561216 0.515991 -0.648654
-0.153913 -0.076148 -0.549967 0.987909 0.153055 0.039233
0.162613 -0.097501 -0.545567 0.835278 0.261247 0.484248
-0.085270 -0.018376 0.159819 -0.733256 0.154827 -0.664766
-0.073084 0.219678 0.590210 0.462520 -0.799395 -0.385625
0.113234 0.034310 0.406045 0.423564 0.006827 0.906379
0.123098 -0.042974 -0.897976 -0.086228 0.350652 0.933949
0.239105 -0.229417 0.684943 -0.360284 0.844899 -0.397721
-0.054294 -0.230167 -0.726453 0.497033 0.856207 0.145629
0.191015 -0.246046 0.676721 -0.082352 0.884514 -0.460315
0.035797 0.208898 -0.028552 -0.475798 -0.547835 -0.690002
0.245704 0.203578 -0.277197 -0.730726 -0.647725 -0.221314
-0.028055 -0.144850 0.449077 -0.420597 0.529867 0.738492
0.321464 0.049411 -0.284684 -0.814632 -0.217840 -0.539935
0.020675 0.158156 -0.834473 -0.015043 -0.509433 0.861461
-0.201795 0.196906 0.332961 0.304082 -0.940169 0.157505
0.188258 -0.184011 -0.487973 0.441880 0.823269 0.357261
0.091578 0.008057 0.836709 0.677501 -0.052913 -0.734012
0.414867 -0.057561 -0.033607 -0.806185 0.140004 0.576982
0.342541 0.183566 0.510696 -0.890564 -0.455941 -0.030012
0.016153 -0.049419 0.779526 0.603267 0.289107 -0.743729
-0.407193 0.108913 0.032525 0.949249 -0.312344 0.048462
-0.064937 0.220968 0.597808 0.461455 -0.798222 -0.389725
-0.304696 -0.130144 -0.055845 0.515096 0.423407 0.746037
0.278612 0.164263 -0.273667 -0.730601 -0.647769 -0.221184
0.148385 0.063370 -0.877949 -0.393496 -0.203726 0.898108
0.305729 0.020404 0.174773 0.526377 -0.139291 -0.839380
0.011961 -0.073613 0.073005 -0.598588 0.155298 -0.788402
0.171062 0.237203 0.712952 -0.008128 -0.938645 -0.348612
0.139365 0.278679 -0.172627 -0.331043 -0.941247 -0.085718
-0.169582 -0.120895 0.584170 0.697130 0.237201 -0.677854
0.219357 -0.021914 0.093765 0.689416 -0.098731 -0.718362
-0.204337 0.106503 -0.156830 0.688457 -0.291121 0.665124
0.365824 -0.139996 0.152614 0.524278 0.470991 -0.710583
0.047688 0.249841 -0.398443 -0.109169 -0.963675 0.247132
0.135191 0.111905 0.824332 0.231850 -0.301333 -0.925497
0.198555 0.041988 -0.863502 -0.469896 -0.145674 0.872047
0.053968 -0.049018 0.434797 0.423779 0.006927 0.907034
0.091697 0.283964 -0.228047 -0.094310 -0.985110 0.151395
-0.093724 -0.202076 -0.288857 0.574951 0.817576 -0.042116
0.299499 0.216801 0.022093 -0.417880 -0.866669 0.276604
-0.151250 0.203549 0.483836 0.255710 -0.937951 -0.236279
-0.314756 0.075918 -0.073052 0.622274 -0.303317 0.723086
0.008604 -0.242478 -0.049802 -0.413240 0.786664 -0.462843
0.118863 -0.194260 -0.731460 -0.158366 0.921794 -0.353699
-0.038652 -0.243130 -0.249797 0.411557 0.863969 0.291041
0.131644 -0.148451 -0.689667 0.493623 0.208529 -0.845977
-0.408103 0.104854 0.136709 0.796260 -0.606375 0.010286
0.039084 0.280900 -0.275221 -0.094738 -0.984854 0.150199
0.126471 0.102201 -0.459732 0.783271 -0.083916 0.616547
0.468144 -0.105254 0.097007 -0.918848 0.358369 0.172365
-0.144206 0.155495 0.320315 -0.739638 -0.586150 0.334157
0.344440 0.185262 0.464927 -0.891446 -0.454331 -0.028582
0.414966 -0.184005 0.137271 -0.674115 0.729678 0.127667
0.157894 0.059804 0.383956 0.450825 -0.229173 0.863653
0.327862 -0.078224 -0.153196 -0.710128 0.389215 0.588074
0.049102 0.133295 -0.847289 -0.025567 -0.500043 0.866485
-0.270353 0.224111 0.131805 -0.040541 -0.994527 -0.105505
0.473522 0.097033 0.142657 -0.824534 -0.547622 0.150399
0.294832 0.016451 -0.498057 -0.778720 -0.290112 0.559481
0.070402 -0.266182 -0.326269 0.416438 0.861838 0.290588
0.239144 0.091002 0.339467 0.498009 -0.243499 0.832912
-0.183575 0.195587 0.351256 -0.377436 -0.925686 0.057651
0.224616 0.006462 0.832850 -0.577370 -0.013820 -0.817848
-0.329120 0.152549 0.315500 0.775668 -0.494738 -0.393140
0.179570 0.238224 0.525542 0.382141 -0.878231 0.289413
-0.151063 -0.170731 0.269195 -0.660998 0.743462 0.117890
0.448813 0.138045 0.155669 -0.824310 -0.547528 0.150052
0.146816 0.184005 -0.436337 0.309951 -0.788318 0.533198
0.021539 0.108757 0.051193 -0.562273 -0.455047 -0.692703
-0.058801 -0.241183 -0.578089 0.372111 0.927647 0.039048
0.104722 -0.262283 0.607862 0.250330 0.966441 0.056187
-0.070146 -0.093964 0.382228 -0.728481 0.127791 0.674873
-0.176307 -0.072446 0.593638 0.696316 0.236879 -0.677821
-0.194677 -0.228704 -0.046652 0.332608 0.889610 0.313764
-0.373799 0.130581 0.238867 0.851133 -0.466720 -0.243301
-0.167859 -0.209799 0.500006 0.640750 0.631215 -0.438565
0.212161 -0.000656 0.842142 -0.576330 -0.013844 -0.818554
0.041729 -0.214077 -0.605332 -0.527197 0.850071 -0.023934
0.320700 -0.180458 0.687056 -0.890640 0.272624 -0.369318
0.160498 -0.258942 0.657466 -0.082602 0.885416 -0.460567
0.125139 0.154327 -0.718439 0.096913 -0.682441 -0.726141
-0.014194 -0.025129 -0.902281 0.125273 -0.160246 0.980084
0.227254 -0.151171 0.372745 0.432481 0.540821 0.722332
0.131072 -0.043765 0.843097 0.127656 0.067031 -0.991274
0.205714 0.227971 0.731727 -0.434791 -0.870493 -0.235779
-0.382338 0.084432 0.296915 0.804392 -0.408540 -0.433000
-0.011628 -0.142743 0.060266 -0.548431 0.545680 -0.636161
0.238437 0.017716 0.826722 -0.476001 -0.086028 -0.876382
-0.030677 -0.242376 -0.018718 -0.143495 0.920000 -0.367057
0.091379 -0.239293 -0.057350 -0.134079 0.702171 -0.699454
-0.138166 0.141081 -0.461723 0.906838 -0.407417 -0.113257
0.146470 0.140040 -0.688648 0.643347 -0.642598 -0.418924
0.043461 -0.208532 -0.537003 -0.832464 0.557082 0.006185
-0.084982 -0.258197 -0.066679 0.059387 0.990482 -0.131377
0.381648 0.151562 -0.022058 -0.864878 -0.303643 0.402845
0.025023 0.221760 -0.791559 0.084587 -0.613143 0.787311
0.235116 -0.247776 0.557001 -0.127555 0.977689 0.173300
0.009129 -0.231471 -0.032593 -0.412525 0.786024 -0.463705
-0.188347 0.059385 -0.192965 0.683767 -0.284249 0.673233
0.283092 0.086880 0.308297 0.506459 -0.261647 0.821339
0.142208 0.112264 -0.476955 -0.650311 -0.649458 0.396028
0.036206 -0.016535 0.067065 -0.598085 0.155511 -0.788132
0.295258 -0.118400 0.116205 0.312703 0.369746 -0.876155
-0.017282 0.241988 -0.049533 -0.127297 -0.878065 -0.463182
-0.398333 -0.118392 0.031757 0.785176 0.583956 0.209380
0.078205 -0.202385 -0.734291 -0.158836 0.922746 -0.354235
-0.152475 0.116129 -0.490506 0.906703 -0.407024 -0.113357
0.156173 0.114895 0.039701 0.552494 -0.293538 -0.780866
-0.415364 -0.025078 0.214064 0.929077 -0.046043 -0.368423
-0.218263 -0.248097 0.071013 -0.170076 0.939062 -0.301844
-0.146040 0.052439 -0.313388 0.958687 -0.194192 -0.206393
0.379392 0.113675 0.498207 -0.901144 -0.436794 -0.015944
-0.155863 0.054627 0.603988 0.735410 -0.075178 -0.674108
0.378363 -0.080484 0.586103 -0.953146 0.271174 -0.142752
-0.135229 -0.057557 0.634087 0.677109 0.051900 -0.734514
0.396434 0.053010 0.524357 -0.985294 -0.178803 -0.003070
-0.079422 -0.214189 -0.284375 0.594211 0.788900 0.160783
-0.190204 -0.213598 0.316155 -0.660173 0.743404 0.117220
0.215405 -0.206325 -0.221892 -0.866402 0.451199 0.219482
0.218754 0.112078 0.827758 0.042126 -0.298429 -0.954405
0.401953 0.035279 0.436989 -0.984648 -0.180214 -0.001478
-0.116842 -0.146960 -0.737845 0.880610 0.466943 0.083709
0.130392 -0.130084 0.807777 0.222513 0.458156 -0.861362
-0.096783 0.071364 0.330687 -0.932945 -0.329689 0.153380
0.123641 -0.102932 0.820835 0.222582 0.458545 -0.861710
-0.092012 -0.100165 -0.872555 0.829198 0.295932 0.473852
-0.007047 -0.107507 -0.887015 -0.087245 0.350230 0.933537
0.049066 -0.141796 -0.869004 -0.086699 0.350221 0.933284
0.390275 0.148098 -0.005006 -0.864926 -0.303395 0.402881
0.240959 0.133188 -0.767023 -0.696602 -0.486460 0.529827
0.016710 -0.138475 0.043319 -0.527068 0.562540 -0.639756
0.037703 0.184865 -0.534972 -0.776403 -0.625555 -0.095263
-0.256158 0.195569 -0.046210 0.583189 -0.458902 0.671416
0.253205 0.014658 0.123546 0.568070 -0.080249 -0.820705
0.179538 -0.182956 -0.480681 0.441384 0.823928 0.357270
0.216520 0.172038 0.043612 0.426269 -0.535259 -0.730910
0.094619 -0.229716 -0.048498 -0.134395 0.702397 -0.699738
0.404222 0.157535 0.033050 -0.865158 -0.303223 0.401925
0.230007 0.151939 0.803320 -0.313733 -0.605658 -0.732491
0.274640 0.187599 0.065464 0.484952 -0.588610 -0.648389
0.489496 0.027034 0.129292 -0.987035 -0.158535 0.049371
-0.141632 -0.224162 -0.116769 0.331852 0.890688 0.312625
-0.150463 -0.090774 -0.383564 0.976043 0.212330 -0.056581
-0.146431 0.247223 -0.034358 -0.014761 -0.979759 -0.204750
0.215426 -0.248039 0.634058 -0.149494 0.988170 -0.053113
-0.241775 0.075259 0.520076 0.665316 -0.318848 -0.676164
0.219568 -0.250774 0.562070 -0.127340 0.977262 0.173346
-0.164938 -0.006875 -0.551813 0.987654 0.153316 0.039721
0.094809 -0.014123 0.415926 0.423552 0.005730 0.906847
0.267426 -0.037489 0.303247 0.536756 0.153289 0.830003
-0.125601 -0.159060 -0.505479 0.921118 0.388842 0.035769
-0.234211 0.214754 0.209277 -0.040435 -0.994723 -0.104693
0.081848 0.150639 -0.706608 -0.708738 -0.707177 -0.019695
0.359216 0.008262 0.204335 0.629055 0.045444 -0.776596
0.254371 0.150539 0.793882 -0.315257 -0.604279 -0.733223
0.031014 -0.055398 0.791330 0.682312 0.279141 -0.676885
-0.128579 -0.140346 -0.209227 0.599903 0.330221 0.729323
-0.031318 0.226526 -0.578676 -0.263952 -0.965562 -0.016203
-0.180790 -0.238795 -0.030665 0.332697 0.890351 0.313100
-0.124917 0.136623 -0.350651 0.920000 -0.353181 -0.178504
0.257808 0.208807 0.397773 0.306704 -0.819712 0.484877
-0.190029 -0.201372 0.238673 -0.660321 0.743810 0.116885
-0.133156 -0.114881 -0.788623 0.829751 0.295200 0.473989
-0.099392 -0.211172 -0.535000 0.584961 0.809810 -0.048368
0.369146 0.088363 0.207425 0.433817 -0.515357 -0.739141
-0.102743 0.063520 0.180220 -0.466630 -0.573384 -0.674145
-0.121987 -0.168775 -0.557949 0.954978 0.297813 0.019205
0.261527 -0.214650 0.693824 -0.360443 0.844710 -0.397968
-0.192379 0.224615 0.098449 -0.204761 -0.962477 -0.190550
0.114861 0.051234 -0.454265 0.783572 -0.084643 0.616568
-0.119573 0.208016 -0.185685 0.612392 -0.496364 0.616716
0.102363 0.278638 -0.123105 -0.130785 -0.961953 -0.244278
-0.029173 0.204500 -0.805131 0.342194 -0.762789 0.551081
-0.159056 0.158381 0.295109 -0.740351 -0.586421 0.334299
