ply
format ascii 1.0
element vertex 512
property float x
property float y
property float z
property float nx
property float ny
property float nz
end_header
-0.696131 -0.228389 -0.690798 0.081909 0.872810 0.481913
-0.768047 0.206594 -0.734211 -0.008767 -0.792789 0.610746
-0.588387 -0.154155 0.013055 0.165973 0.437450 0.884473
0.145070 -0.114077 -0.715450 -0.212109 0.317472 0.924962
0.422589 -0.245214 -0.314675 0.372706 0.787984 -0.491441
0.641859 0.071323 0.467174 -0.229669 -0.304411 -0.925388
-0.126679 -0.260501 0.500630 0.183728 0.902521 -0.391137
0.332029 -0.064131 0.544894 -0.230788 -0.020359 -0.973611
-0.806029 -0.189118 -0.726634 0.743605 0.658637 -0.117084
-0.139156 0.256317 0.477939 0.300892 -0.816017 -0.495550
-0.647213 0.217221 0.215477 0.467263 -0.814673 -0.345163
0.433867 0.285793 0.356744 -0.176142 -0.925250 -0.339319
-0.348217 0.023198 -0.828191 0.022068 -0.066669 0.998031
-0.303845 0.143186 0.009568 -0.131566 -0.548771 0.826033
0.220191 -0.069953 0.565593 -0.152070 -0.029800 -0.987772
0.313106 -0.137717 -0.662217 -0.147913 0.380273 0.913423
0.183406 0.251862 0.133722 0.175651 -0.805948 0.565848
0.387333 0.239450 -0.544673 -0.261043 -0.844582 0.468996
0.002269 -0.166870 0.584316 -0.221067 0.657589 -0.721059
0.344012 0.200412 -0.306427 0.580027 -0.301677 -0.758400
-0.840322 0.082401 -0.771580 0.626328 -0.383670 0.678984
0.041640 0.289399 0.185295 -0.059782 -0.816014 0.574937
-0.462629 0.190373 0.024066 0.134441 -0.528936 0.838246
-0.198938 -0.253116 0.478074 0.260591 0.886064 -0.384537
-0.168348 -0.228638 0.074996 -0.167053 0.642031 0.749351
-0.631662 0.231044 0.124021 0.844769 -0.468548 0.260219
0.686745 0.220944 0.096054 -0.526509 -0.839693 0.136310
0.200563 -0.120755 0.036411 0.472329 0.503224 0.725050
-0.140954 0.299611 0.172399 -0.106519 -0.831257 0.547460
-0.472554 -0.114692 0.446445 0.438067 0.193117 -0.877931
-0.734617 -0.230984 -0.620331 0.222376 0.943178 -0.248753
0.694075 -0.129053 0.411668 -0.383155 0.754999 -0.534066
-0.371026 0.052275 -0.826371 0.021694 -0.066767 0.998137
0.013969 -0.319834 0.408724 -0.131398 0.930748 -0.342044
0.462391 -0.259755 -0.307348 0.371990 0.788460 -0.491165
0.654642 0.250402 -0.035600 -0.322143 -0.947815 -0.003191
0.741516 0.021487 -0.342695 -0.997833 0.040409 0.063724
0.346664 -0.138495 0.529515 -0.171993 0.618724 -0.767484
-0.236538 0.225423 -0.505582 -0.015968 -0.865322 -0.503634
0.220357 -0.127755 0.031069 0.470999 0.502504 0.725932
-0.803210 -0.023781 -0.502605 0.544692 -0.410424 -0.732097
0.736307 -0.197780 -0.005939 -0.719726 0.644381 0.260676
-0.186806 -0.013335 -0.395385 0.049863 0.334542 -0.941887
-0.166092 0.318077 0.358095 0.209751 -0.929103 -0.307348
0.452651 0.218300 -0.119958 0.840072 -0.545089 0.004597
-0.048437 0.029409 0.006548 -0.097300 -0.253521 0.963473
-0.590421 -0.233807 -0.551201 0.051476 0.886434 -0.460849
-0.400464 -0.091569 -0.034266 -0.146436 0.129808 0.981405
0.594648 -0.080928 -0.558079 -0.632449 0.212469 0.745363
0.763845 0.159571 0.020467 -0.872524 -0.375554 0.314599
0.700079 0.158620 0.370975 -0.445191 -0.719815 -0.533882
0.518425 0.271217 -0.194916 0.001004 -0.999703 0.048361
-0.413506 0.117740 0.470809 0.506808 -0.214069 -0.835533
0.699131 -0.220877 -0.058333 -0.719705 0.644554 0.261072
-0.066314 -0.056634 -0.405611 0.031530 0.374000 -0.927892
0.563870 0.184243 0.430258 -0.246117 -0.676987 -0.695277
0.094151 -0.096823 -0.733143 -0.201915 0.344811 0.917230
0.459398 0.255485 -0.510341 0.237207 -0.938953 0.251507
0.661349 0.122017 0.444927 -0.229621 -0.304190 -0.925388
0.357465 -0.228971 -0.586932 -0.086874 0.754440 0.651433
-0.588078 0.266050 0.192707 0.493802 -0.773709 -0.398299
-0.055311 -0.326098 0.259000 -0.001308 0.987301 0.161792
0.356117 -0.245228 -0.568002 -0.086961 0.753677 0.652018
-0.373203 -0.278550 -0.640413 0.050684 0.997794 0.057900
-0.557747 0.098197 -0.002748 0.065815 -0.311862 0.948301
0.436214 0.296244 0.202262 -0.356734 -0.895281 0.270034
0.253947 -0.055262 -0.289667 0.318740 -0.011138 -0.948566
-0.125636 0.206427 -0.471029 0.057086 -0.534530 -0.844009
0.120739 0.067615 0.024832 0.197928 -0.168446 0.966509
-0.181605 -0.259914 0.110370 -0.101778 0.826584 0.555293
-0.440803 0.120434 -0.005030 0.067502 -0.310419 0.948491
-0.067757 0.012874 -0.798230 -0.246308 -0.044204 0.968278
0.017714 -0.168973 -0.725934 -0.376806 0.464526 0.802048
-0.689691 -0.104067 -0.792043 0.049543 0.491500 0.870088
0.471795 0.248378 -0.105875 0.840209 -0.544744 0.003984
-0.755213 -0.196737 -0.566434 0.386202 0.830327 -0.402460
0.289054 0.213845 0.044549 0.307893 -0.412337 0.858825
-0.392613 -0.106858 0.487069 0.386751 0.184919 -0.903752
-0.128277 -0.246943 0.527847 0.098920 0.904150 -0.416896
0.346093 -0.147616 0.523945 -0.059655 0.522779 -0.851106
0.702070 -0.231688 0.082856 -0.535350 0.834401 -0.140327
-0.606181 0.229080 0.102650 0.189670 -0.914168 0.359841
0.418578 0.274959 0.391799 -0.176294 -0.925432 -0.339058
-0.119667 0.132020 -0.791598 -0.192746 -0.331929 0.923858
-0.306012 -0.107964 -0.014270 -0.189482 0.390301 0.901964
-0.104456 0.027897 0.004761 0.050588 -0.346739 0.937549
0.235880 -0.174174 0.522392 -0.158364 0.553251 -0.818895
0.413205 0.252187 0.024716 0.330686 -0.904754 0.272462
0.531490 0.183470 -0.557447 -0.598405 -0.450672 0.663186
0.040208 -0.327242 0.381913 -0.132901 0.932451 -0.336784
0.374229 0.025198 -0.677884 -0.175361 -0.157095 0.972410
0.703481 -0.028914 -0.470204 -0.710380 0.110838 0.696035
0.154251 0.271607 0.169730 0.175906 -0.806738 0.566220
-0.685775 -0.233769 -0.682191 0.082317 0.872413 0.482329
0.375571 0.186222 -0.276620 0.580000 -0.301118 -0.758482
0.434546 0.299264 0.208491 -0.356668 -0.894668 0.269992
0.599599 -0.227824 0.342112 -0.449416 0.792259 -0.414812
0.136139 -0.332336 0.335530 -0.135253 0.933705 -0.332748
-0.658620 -0.182742 0.081843 0.612078 0.443663 0.655364
-0.342331 -0.056940 -0.418431 0.050187 0.334498 -0.941673
-0.006997 0.302738 0.431284 -0.070148 -0.909213 -0.411764
-0.023322 0.227351 0.107341 -0.161326 -0.651482 0.741872
0.398253 -0.213048 -0.279779 0.371083 0.788351 -0.492057
0.154049 -0.142970 0.560591 -0.154701 0.534147 -0.831475
0.145848 -0.146943 -0.688698 -0.148273 0.379572 0.913743
0.238489 0.096179 -0.694339 -0.175701 -0.156402 0.972401
0.553496 0.107303 -0.589983 -0.598539 -0.447456 0.665345
-0.311624 -0.259894 -0.562206 0.021400 0.864599 -0.503319
-0.472745 -0.071538 0.455842 0.435735 0.192267 -0.879103
-0.251900 -0.091552 -0.818202 0.045458 0.455148 0.889928
-0.084432 -0.331981 0.365749 0.261315 0.918614 -0.294904
0.216150 -0.113049 0.021558 0.470800 0.503362 0.726039
0.294745 0.093398 -0.683919 -0.175180 -0.157023 0.972277
-0.193088 -0.195322 0.568744 0.576625 0.512559 -0.636088
-0.527557 -0.229606 0.069716 0.195173 0.792302 0.579496
-0.222607 -0.286843 -0.617274 0.037324 0.996258 0.082437
-0.029956 0.266379 -0.600302 -0.150096 -0.953353 0.264650
0.516818 0.193525 -0.563640 -0.597780 -0.452219 0.662503
-0.082849 0.027210 0.003527 -0.096753 -0.254208 0.963192
0.067806 -0.077788 0.031299 -0.108262 0.262823 0.959771
-0.362158 0.125878 -0.436459 0.061633 -0.534730 -0.844083
-0.044234 -0.170942 0.050788 -0.166047 0.641868 0.749889
-0.565346 -0.281368 0.195930 0.382772 0.811002 -0.442881
0.766173 0.082636 -0.082703 -0.897670 -0.430317 0.107228
-0.062548 -0.038048 -0.798259 -0.248240 -0.042812 0.967922
-0.106713 0.266327 0.481722 0.301476 -0.804176 -0.513217
0.359565 0.308451 0.333960 -0.177038 -0.925087 -0.338570
-0.862512 0.068333 -0.653817 0.986458 -0.103983 -0.127769
-0.229695 0.129599 0.565185 0.518243 -0.445938 -0.730561
-0.107205 0.272459 0.472345 0.300039 -0.804217 -0.513865
0.374691 0.313659 0.188632 -0.262033 -0.879430 0.399390
0.266345 0.024422 -0.285924 0.653770 0.048362 -0.756418
0.740376 0.075601 -0.314834 -0.877520 -0.464044 0.127023
-0.715420 -0.250307 -0.648403 0.082386 0.872249 0.482066
0.062325 0.306009 0.212152 -0.059603 -0.816654 0.575338
0.256066 0.085198 -0.301501 0.454933 -0.335939 -0.826227
0.450088 0.233130 0.433553 -0.218239 -0.609487 -0.763471
0.330932 -0.294171 0.170473 0.058968 0.884346 0.465322
0.440024 -0.208195 -0.207743 0.934776 0.354423 -0.050257
-0.385602 0.182182 -0.479950 0.014842 -0.499307 -0.867681
-0.185365 0.222373 0.506078 0.297628 -0.816975 -0.495554
0.129039 0.101803 0.581964 -0.285762 -0.455673 -0.844554
-0.341981 0.020351 -0.406916 0.135952 -0.169728 -0.977136
0.572126 0.262745 -0.397069 -0.266642 -0.929397 -0.259343
0.801514 -0.029229 0.190300 -0.932622 0.010700 -0.363783
-0.198089 0.258221 -0.562329 -0.016167 -0.865207 -0.503598
-0.537923 -0.288225 0.184013 0.164832 0.982705 0.088527
-0.207998 -0.047353 0.635894 0.180571 0.223278 -0.958431
-0.158021 -0.140990 0.027530 -0.178510 0.403468 0.898575
0.607235 0.144496 -0.516440 -0.598154 -0.451242 0.662709
0.640987 0.215479 -0.385018 -0.753283 -0.650684 0.106916
0.132353 0.300755 0.405135 -0.133420 -0.908895 -0.396841
0.432661 0.186972 -0.131265 0.840039 -0.545252 0.004529
0.667763 -0.016873 -0.508766 -0.709952 0.110491 0.696122
-0.109810 0.200353 -0.745311 -0.197556 -0.687979 0.699229
0.042069 -0.024564 0.615300 -0.266251 0.002523 -0.964568
0.461566 -0.299770 0.167946 0.059711 0.882214 0.468461
0.104738 0.289952 0.193481 -0.058170 -0.815531 0.576565
-0.344667 -0.283961 0.307616 0.239380 0.899165 -0.367619
-0.344047 0.118985 -0.013191 -0.131521 -0.550885 0.824830
-0.262145 0.210359 -0.759199 -0.029606 -0.740185 0.672548
0.682814 -0.180984 -0.355725 -0.851052 0.494607 0.177778
-0.513403 0.238651 -0.524951 -0.015779 -0.864651 -0.504215
0.521749 -0.286014 0.201780 0.018552 0.991469 0.135840
0.605486 0.011479 0.498898 -0.311800 0.190542 -0.931969
0.116578 0.262304 -0.543448 0.076436 -0.965360 0.252255
-0.070375 0.217639 0.571215 -0.215195 -0.744151 -0.633563
0.655985 0.064417 -0.533347 -0.709636 0.111779 0.696342
-0.385856 0.015136 -0.828002 0.021764 -0.065205 0.998039
0.438315 -0.266866 -0.523590 -0.126825 0.834982 0.536241
0.482940 0.291866 0.267106 -0.575729 -0.817293 -0.034761
0.270876 0.070052 0.556026 -0.231518 -0.019937 -0.973452
0.235935 -0.104050 0.548684 -0.082007 0.329636 -0.941032
-0.146153 -0.324763 0.333229 0.261366 0.919222 -0.294584
-0.240580 0.314221 0.321027 0.209244 -0.929343 -0.306997
0.510738 0.281033 0.065990 0.201238 -0.973927 0.115128
0.249479 0.213720 -0.382578 0.224080 -0.723389 -0.654986
-0.831618 0.113184 -0.767695 0.670869 -0.284280 0.685332
-0.098466 -0.136277 -0.437492 0.031001 0.369045 -0.929838
-0.561098 -0.187842 0.339728 0.482363 0.615355 -0.623731
-0.143210 0.009826 -0.818823 -0.245094 -0.045505 0.968535
0.329292 0.015107 -0.230940 0.654006 0.048304 -0.756313
0.719690 0.112063 -0.322488 -0.864149 -0.490967 0.112930
-0.116778 -0.212759 -0.735217 -0.196115 0.694339 0.693225
-0.623799 -0.159402 0.035232 0.611406 0.444108 0.655643
0.044799 0.186695 -0.422787 0.266498 -0.518894 -0.813731
0.487816 -0.301692 0.226967 -0.227618 0.942723 0.246488
-0.359304 -0.219757 0.050685 -0.109480 0.556247 0.824648
-0.239787 -0.316015 0.207206 -0.000811 0.987314 0.162168
0.783002 0.109330 0.192642 -0.827172 -0.444528 -0.348146
0.334995 -0.105901 0.539765 -0.081627 0.329657 -0.941057
0.105559 0.047833 0.023728 0.197843 -0.168324 0.966625
0.554612 -0.072661 0.501962 -0.451826 0.193088 -0.871909
0.798440 -0.115974 0.079678 -0.831852 0.547485 0.101215
0.019450 0.018695 -0.372296 0.295470 -0.138381 -0.946471
0.263224 0.228805 0.475687 -0.088491 -0.569394 -0.817918
-0.739326 -0.047932 -0.467228 0.416834 0.192678 -0.889088
-0.725868 -0.113886 0.233520 0.863236 0.144881 -0.484423
0.380029 0.257353 -0.516223 -0.260559 -0.844641 0.469337
-0.604758 -0.204743 0.060611 0.194449 0.792243 0.579683
0.245263 0.117293 -0.689812 -0.175577 -0.156534 0.972341
0.439764 -0.235916 -0.086994 0.452246 0.832216 0.323259
0.577119 -0.258331 -0.390989 -0.327821 0.944348 0.049490
0.415746 0.162157 -0.069923 0.840049 -0.544445 0.003992
0.010077 -0.103738 -0.405136 0.335132 0.258604 -0.907158
0.689514 -0.190745 0.326452 -0.385042 0.755912 -0.531604
0.352575 -0.274153 -0.470895 0.091048 0.995787 -0.028525
0.213446 0.283798 0.168976 0.175693 -0.806723 0.566284
-0.052516 0.233982 -0.698835 -0.164602 -0.792441 0.588087
0.364802 0.324663 0.260158 0.018449 -0.992736 -0.127055
-0.455724 -0.099932 -0.803739 0.045712 0.452602 0.891337
0.201000 0.265867 -0.519442 -0.121415 -0.980549 -0.160615
-0.083582 0.335955 0.251115 0.041711 -0.987548 0.156917
-0.652437 -0.227465 -0.698511 0.082424 0.872186 0.482755
-0.251496 -0.160188 0.020987 -0.125741 0.465015 0.877225
0.342986 0.026881 0.540305 -0.230443 -0.020813 -0.973771
-0.062609 -0.050252 -0.799205 -0.247679 -0.043205 0.968177
-0.653702 -0.102091 0.030857 0.365611 0.097697 0.926557
-0.278441 -0.030205 -0.017980 -0.200824 -0.017471 0.980029
0.537038 -0.090274 -0.604672 -0.632645 0.212535 0.745138
-0.391839 -0.261331 0.322473 0.290022 0.784382 -0.548208
0.633742 -0.222053 -0.429164 -0.596806 0.662654 0.453898
-0.470905 -0.254814 -0.683015 0.110821 0.857743 0.503183
-0.044174 0.039291 0.646950 -0.085517 0.054401 -0.995077
-0.166538 0.246033 0.477407 0.297528 -0.818690 -0.492657
-0.390376 0.262409 0.088423 -0.042185 -0.701700 0.712168
0.235586 0.124640 0.013161 0.333796 -0.555566 0.762539
0.306744 0.326894 0.314525 -0.176757 -0.925353 -0.338374
-0.209415 -0.263984 -0.565117 0.021113 0.864611 -0.502977
-0.523639 0.286887 0.216939 0.468034 -0.814576 -0.344252
0.426531 0.294668 0.184723 -0.356475 -0.895373 0.270137
-0.656551 -0.089474 0.330594 0.578299 0.256353 -0.774601
-0.550971 -0.273336 0.226682 0.291569 0.807732 -0.512755
0.611231 -0.246910 0.303355 -0.387173 0.756326 -0.529688
0.384758 -0.007274 -0.183774 0.653613 0.049232 -0.756024
0.187351 -0.090882 0.024381 0.466281 0.503541 0.728802
0.105650 -0.236122 -0.463728 0.242288 0.779236 -0.579162
-0.272838 -0.219012 0.059579 -0.109410 0.556089 0.824983
0.697516 0.085457 0.431146 -0.689848 -0.118605 -0.715133
0.474582 0.272159 0.180821 -0.356517 -0.895223 0.269674
-0.196885 0.292359 0.395263 0.256035 -0.823919 -0.507416
-0.126995 0.177521 -0.452339 0.058702 -0.534504 -0.844596
-0.133876 -0.077213 -0.416337 0.031768 0.378897 -0.925735
0.502177 -0.118375 0.508478 -0.215038 0.389616 -0.896270
0.337043 0.259987 -0.470460 0.015075 -1.000625 -0.025571
-0.740530 0.082618 -0.473663 0.125283 -0.281285 -0.952184
0.049001 0.020722 -0.766143 -0.246458 -0.043447 0.968179
0.676302 0.109378 0.447455 -0.689893 -0.119043 -0.715268
0.019985 0.339958 0.304972 0.010236 -0.998994 0.058451
0.707170 0.169179 0.353629 -0.437767 -0.594849 -0.676230
-0.844294 0.125938 -0.682228 0.902156 -0.430761 -0.037556
0.067460 -0.256881 0.483024 -0.163964 0.647795 -0.744311
0.549600 -0.173077 0.464907 -0.221095 0.689531 -0.690796
-0.042547 -0.208004 -0.479357 0.229445 0.439021 -0.869462
-0.049316 -0.227802 -0.492157 0.034929 0.789608 -0.613958
-0.697647 0.137825 0.253182 0.595722 -0.576768 -0.560173
-0.099723 -0.149573 0.610178 -0.153060 0.519061 -0.841340
-0.565458 0.016182 0.414815 0.498106 -0.014127 -0.867422
-0.135109 0.039929 0.002600 -0.150448 -0.065390 0.987482
0.766717 -0.149800 0.236477 -0.878857 0.283840 -0.385959
-0.331834 0.147861 0.494223 0.334948 -0.495077 -0.802387
-0.238014 0.172764 0.546942 0.294334 -0.831300 -0.472691
-0.548640 0.273485 -0.583442 -0.015467 -0.864407 -0.504464
-0.075392 0.039688 0.007134 -0.096987 -0.254408 0.963227
0.701163 -0.134835 -0.413911 -0.872716 0.174487 0.457496
-0.046023 0.142046 0.614274 -0.191255 -0.483242 -0.855383
0.592148 -0.273327 0.207763 -0.226492 0.943332 0.245025
-0.162095 -0.225511 -0.503728 0.109597 0.665951 -0.739130
0.098571 0.330009 0.248850 -0.058882 -0.816635 0.575460
0.113749 -0.080566 0.585409 -0.244568 0.266912 -0.932581
0.242081 -0.006774 -0.294028 0.318914 -0.011526 -0.948944
-0.101809 -0.208315 0.070898 -0.166833 0.642364 0.749041
-0.359486 0.162921 -0.792334 0.013959 -0.493080 0.870760
0.630980 0.092782 0.462443 -0.229109 -0.304084 -0.925340
-0.314671 0.158008 0.496253 0.329230 -0.495197 -0.804709
0.606878 -0.251990 -0.221592 -0.399798 0.914375 0.076550
0.362289 0.192316 0.491152 -0.207400 -0.605629 -0.769315
-0.171730 -0.113780 0.013462 -0.191027 0.388727 0.902150
-0.367179 0.004157 -0.407794 0.136205 -0.169452 -0.977657
0.221769 0.257456 0.460933 -0.086216 -0.569397 -0.818266
0.183418 -0.295261 0.215714 0.252523 0.867143 0.430692
-0.506079 0.038066 0.432247 0.517818 -0.206634 -0.830979
-0.659979 -0.229549 0.168794 0.659388 0.750844 -0.037940
0.154119 0.255446 0.146392 0.175819 -0.805878 0.566670
-0.248239 0.200486 0.497644 0.329208 -0.495124 -0.804702
0.013591 -0.192647 0.558952 -0.153241 0.520812 -0.840196
-0.232779 0.110162 -0.416616 0.061638 -0.534529 -0.844221
-0.298281 -0.258759 -0.559952 0.021153 0.864486 -0.503216
-0.237759 0.090471 -0.405406 0.136563 -0.169554 -0.977039
-0.589559 -0.259134 -0.650920 0.092935 0.868564 0.486583
0.279846 -0.045998 -0.278394 0.654149 0.049142 -0.755858
0.612420 -0.183214 0.413435 -0.448442 0.791638 -0.414885
-0.151287 0.243690 -0.541423 -0.015515 -0.865047 -0.503884
-0.157326 -0.283207 0.143121 -0.033317 0.821420 0.570827
-0.722410 0.099700 -0.504324 0.546463 -0.407281 -0.731973
0.277989 -0.128496 -0.007696 0.494245 0.492744 0.717409
-0.041219 -0.303613 0.439339 -0.114202 0.867678 -0.484418
-0.596320 -0.185545 0.031563 0.194580 0.792068 0.579818
-0.272327 -0.009129 -0.016374 -0.200047 -0.016971 0.980055
0.127823 0.187308 0.079253 0.198419 -0.607410 0.769815
-0.675382 0.146824 0.060549 0.282957 -0.515186 0.809772
0.473469 0.251319 -0.096355 0.840169 -0.544917 0.004003
0.158854 -0.252756 0.143217 0.117709 0.793986 0.598105
-0.839697 0.096919 -0.763945 0.625928 -0.384504 0.679062
0.458213 -0.271993 -0.398366 -0.083575 0.986631 -0.145687
0.309579 0.260171 -0.541373 -0.237157 -0.786922 0.570818
0.308539 0.252863 0.440673 -0.046986 -0.722451 -0.690839
-0.056413 0.043598 0.010283 0.048712 -0.348601 0.936877
-0.402724 0.036925 -0.826893 0.022049 -0.065907 0.998181
-0.626382 0.247433 -0.553103 0.343179 -0.733877 -0.587653
0.228977 0.141683 0.030487 0.308126 -0.412453 0.858424
-0.379575 -0.048083 -0.417415 0.049355 0.334614 -0.941619
-0.508061 -0.145368 -0.005578 0.165242 0.437786 0.884648
-0.525571 0.150699 -0.799400 0.013995 -0.492698 0.870709
0.521201 0.072229 -0.620490 -0.384048 -0.143974 0.912622
0.179481 -0.018233 -0.313593 0.318474 -0.011238 -0.948859
0.799903 0.120252 0.095903 -0.814374 -0.566608 -0.135696
-0.433737 -0.143858 -0.453174 0.031343 0.383276 -0.924160
0.714326 0.125879 -0.303409 -0.863790 -0.491832 0.112477
-0.296229 -0.270316 0.370072 0.265594 0.884426 -0.384897
-0.249163 -0.240117 -0.520609 0.056579 0.625964 -0.778460
0.520971 0.217125 -0.544017 -0.597462 -0.452461 0.662364
0.667427 -0.062047 -0.500424 -0.710110 0.110610 0.696022
0.334875 0.017019 -0.078054 0.685152 -0.257626 0.683092
-0.116914 0.342699 0.316530 0.208803 -0.928997 -0.307235
0.012488 -0.193786 0.082610 -0.166593 0.641504 0.750052
-0.010711 -0.170066 -0.451699 0.229584 0.438893 -0.869085
-0.356442 0.220910 0.052042 -0.128763 -0.558690 0.820073
0.716263 0.145370 -0.208129 -0.884502 -0.452221 0.122806
-0.564150 -0.103411 -0.004899 0.344664 0.256795 0.903929
-0.863024 -0.091511 -0.709507 0.901295 0.433005 0.021378
0.151848 0.136423 0.044868 0.017534 -0.315542 0.949545
0.487931 -0.260182 -0.221719 0.086558 0.996788 -0.002549
-0.142273 -0.234317 -0.510755 0.021335 0.865001 -0.502871
0.102704 0.253294 -0.501378 0.155057 -0.867860 -0.474767
-0.542747 0.049564 -0.018640 0.277406 0.054109 0.960154
-0.030525 -0.241715 -0.520675 0.021187 0.864844 -0.502401
0.573589 0.281714 -0.000061 -0.074761 -0.986615 0.150472
0.276311 -0.316382 0.346784 -0.073201 0.914248 -0.400230
0.426354 0.284922 0.160595 -0.261597 -0.879582 0.399240
0.325522 -0.241145 -0.382716 0.371134 0.788828 -0.491338
-0.253707 -0.133882 0.567329 0.449458 0.454621 -0.768922
0.725930 -0.093642 -0.247615 -0.943400 0.195837 0.270975
0.423745 0.150062 -0.215995 0.893165 -0.440957 0.104728
0.066510 0.160742 0.073621 0.215463 -0.625811 0.751024
0.735229 -0.202123 0.153790 -0.567513 0.819925 -0.088609
-0.208220 -0.303533 0.344671 0.260682 0.919438 -0.295282
0.652913 0.229353 -0.178940 -0.760441 -0.642043 0.105824
-0.268651 -0.313869 0.273988 0.137482 0.960309 -0.244270
-0.223582 0.320498 0.216436 0.021666 -0.957302 0.291212
-0.050775 -0.320957 0.227622 -0.000879 0.987099 0.162531
-0.498674 -0.200508 -0.502419 0.041132 0.624727 -0.780940
0.189359 -0.105822 -0.337270 0.336640 0.370171 -0.866229
-0.327266 0.179942 0.027164 -0.132264 -0.587639 0.799234
0.358373 0.295527 0.122108 -0.082218 -0.973027 0.218479
-0.156503 0.039220 0.001231 -0.096415 -0.254007 0.963142
-0.098746 0.176977 0.607132 -0.190941 -0.482899 -0.855490
0.651372 0.252894 0.241295 -0.526255 -0.840792 0.136874
0.831853 -0.014042 0.055512 -0.979700 0.041800 -0.198145
0.012755 -0.191391 0.080162 -0.156905 0.641572 0.752074
0.004256 -0.101313 0.608200 -0.246771 0.265596 -0.932210
-0.039136 -0.268542 -0.609811 -0.114189 0.985727 0.125755
0.270825 0.247935 0.092382 0.229812 -0.778732 0.585361
0.707919 -0.194210 -0.133510 -0.793410 0.583829 0.173607
-0.875401 0.038369 -0.724322 0.986412 -0.104344 -0.128588
0.380956 -0.275802 -0.447627 0.090737 0.995930 -0.028451
-0.277768 -0.055935 -0.415083 0.050873 0.334857 -0.941851
0.121850 0.202831 -0.414346 0.197239 -0.725840 -0.660523
-0.602709 -0.237314 -0.690116 0.081955 0.872508 0.482331
0.130893 -0.149920 0.562657 -0.222309 0.658558 -0.719692
-0.572062 0.094091 0.373943 0.521113 -0.396351 -0.756587
0.069910 -0.159817 -0.716723 -0.305608 0.702348 0.643979
-0.410742 -0.041965 -0.418534 0.061821 0.333382 -0.941357
-0.588539 0.102800 -0.456090 0.124383 -0.281468 -0.952610
0.584384 0.206670 0.399549 -0.245066 -0.676879 -0.695428
-0.265600 -0.040557 0.595642 0.481456 0.302724 -0.823086
-0.172139 0.212561 0.074812 -0.132642 -0.588293 0.798736
-0.828324 0.189811 -0.627303 0.669377 -0.240709 -0.704022
0.126579 0.092761 -0.736357 -0.260129 -0.039110 0.965607
0.709078 0.157867 -0.216940 -0.877714 -0.463961 0.126855
0.125940 -0.263168 -0.492293 0.242860 0.779283 -0.578880
0.116642 -0.261501 -0.503895 0.089760 0.974857 0.205169
-0.584578 0.107950 -0.457386 0.124586 -0.281533 -0.952605
0.376686 0.316800 0.218642 -0.074830 -0.972969 0.222998
0.795670 -0.077522 0.270061 -0.948526 0.317130 0.040728
-0.337742 0.297162 0.327863 0.272716 -0.732947 -0.623779
0.656733 0.234781 0.290942 -0.498899 -0.722415 -0.481261
0.353191 -0.249484 0.087968 0.062497 0.876790 0.478103
0.683482 0.229922 0.185306 -0.526180 -0.840405 0.136171
0.192468 0.191009 0.067297 0.199287 -0.607537 0.770002
0.639295 -0.075262 -0.522709 -0.632791 0.212101 0.745188
-0.245255 -0.299498 0.323220 0.261214 0.919512 -0.294119
0.300388 -0.116737 0.539058 -0.082283 0.330082 -0.941092
0.495416 -0.271702 -0.466142 -0.233274 0.948106 0.219517
0.784683 -0.103990 0.195800 -0.948793 0.314152 0.044393
-0.798688 -0.170787 -0.624601 0.874381 0.444912 -0.194719
0.654093 -0.199722 -0.436195 -0.596734 0.662804 0.453804
0.775575 -0.065989 -0.084275 -0.883979 0.199530 0.424989
-0.001336 0.274163 0.158004 -0.067921 -0.821998 0.566789
0.048352 0.306194 0.418298 -0.131269 -0.908771 -0.397927
0.686253 -0.104167 0.423946 -0.383842 0.501548 -0.776731
0.453710 0.105779 0.504606 -0.132694 -0.440955 -0.888556
-0.186410 0.007841 0.661817 -0.147090 -0.071006 -0.986372
0.309067 -0.143691 -0.287638 0.484424 0.411546 -0.773088
-0.081955 0.298467 0.445551 0.299067 -0.809052 -0.506915
-0.038175 0.234062 -0.694851 -0.164315 -0.792659 0.588073
-0.757964 -0.149421 -0.506734 0.588298 0.559894 -0.583912
-0.408499 -0.143494 -0.009153 -0.115345 0.464369 0.878772
-0.319549 0.084003 -0.023245 -0.200281 -0.016899 0.979932
0.641574 0.144828 -0.487252 -0.598393 -0.450412 0.663659
-0.140208 0.240503 -0.712286 -0.196430 -0.695602 0.691759
-0.242077 -0.131683 -0.797692 0.045405 0.455499 0.889882
-0.472508 0.054736 0.450295 0.505566 -0.215306 -0.836075
0.457796 0.103188 -0.645929 -0.211905 -0.252684 0.944674
-0.329715 -0.295762 0.289415 0.232302 0.901822 -0.364989
0.181584 -0.314227 0.252252 0.252715 0.867409 0.430140
-0.226752 0.315565 0.326048 0.208889 -0.929175 -0.307347
-0.074163 0.338064 0.272318 0.011323 -0.998812 0.060937
-0.134773 -0.146595 0.034379 -0.187578 0.392273 0.901602
-0.284571 0.069899 -0.017259 -0.201339 -0.016828 0.979954
0.402425 -0.058221 0.537501 -0.152027 -0.029171 -0.988469
0.427261 -0.164791 -0.100092 0.635512 0.291590 0.715327
-0.449980 0.199593 -0.495980 0.047738 -0.763898 -0.645712
-0.421722 -0.232961 -0.723704 0.087308 0.871059 0.484206
0.392676 -0.103748 -0.659568 -0.222887 0.306127 0.926252
0.108549 -0.196313 0.526816 -0.222105 0.658617 -0.719677
0.354679 0.157708 -0.042949 0.685616 -0.257338 0.682410
0.183970 0.184687 0.064234 0.198757 -0.608047 0.769820
-0.110183 -0.010907 0.650640 -0.146933 -0.068009 -0.986583
0.766181 -0.009062 -0.369750 -0.302924 -0.198659 -0.932696
-0.561606 0.264789 -0.567200 0.132968 -0.984470 -0.121838
0.679212 -0.183161 0.344717 -0.385690 0.755707 -0.531503
0.536266 -0.279792 0.160087 0.019915 0.991136 0.136448
-0.449615 -0.274153 -0.634184 0.054530 0.997097 0.053684
0.455325 -0.254173 -0.030236 0.073018 0.998004 0.003428
0.629884 -0.097140 -0.523984 -0.633021 0.211939 0.744978
-0.375329 -0.146627 -0.783412 0.045287 0.455533 0.889916
0.305327 -0.336309 0.276489 -0.156054 0.983453 0.099686
-0.476146 -0.048141 -0.037131 0.025524 0.086161 0.996631
-0.254940 0.256680 -0.689822 0.048831 -0.921796 0.387141
0.679847 0.215626 -0.076790 -0.654939 -0.756339 0.036450
0.573948 -0.211391 0.402296 -0.448563 0.792717 -0.414282
0.266191 0.250817 -0.482033 -0.119678 -0.980516 -0.161082
0.489908 -0.209559 -0.570128 -0.444120 0.511690 0.736306
0.294971 -0.007508 -0.262982 0.653562 0.048665 -0.756721
0.068857 -0.178977 -0.702450 -0.300527 0.826373 0.478101
-0.719802 0.050535 -0.470885 0.350658 -0.352738 -0.868221
0.320167 0.323456 0.315338 -0.177264 -0.925015 -0.339375
0.403037 0.296835 0.342707 -0.176395 -0.925145 -0.339184
0.140286 -0.125257 -0.369043 0.408554 0.457923 -0.790627
-0.164657 0.063378 0.660076 -0.086589 0.054631 -0.995038
0.286387 -0.080423 -0.691281 -0.147607 0.380355 0.913453
-0.152358 -0.195037 -0.759399 -0.123778 0.648231 0.751803
0.000519 -0.094795 0.030283 -0.196565 0.244288 0.950134
0.422047 0.303053 0.205226 -0.356159 -0.895441 0.270453
-0.768661 -0.221057 -0.683176 0.384508 0.900654 0.203777
-0.606594 0.225737 -0.522257 0.008650 -0.494691 -0.870593
0.350823 0.071063 -0.236602 0.540240 -0.369549 -0.758124
0.126485 0.312271 0.391961 -0.071357 -0.910214 -0.409993
0.404170 0.298584 0.167145 -0.357028 -0.894832 0.270351
0.568372 0.265617 0.330360 -0.431501 -0.902921 -0.011560
0.256810 0.133124 0.011060 0.358702 -0.589148 0.725977
0.779739 -0.118959 0.221959 -0.948956 0.316152 0.042014
0.693847 0.208385 -0.016646 -0.776761 -0.451989 0.439866
0.237418 -0.223030 -0.612128 -0.115994 0.723213 0.681916
-0.603666 -0.227866 -0.531942 0.039955 0.625138 -0.780526
-0.024530 -0.268062 -0.598937 -0.114134 0.985861 0.125663
0.061714 0.332961 0.356816 -0.072766 -0.909592 -0.410428
-0.782163 0.222295 -0.671107 0.370813 -0.872350 -0.321389
0.066543 0.041016 -0.758233 -0.251990 -0.041457 0.967136
-0.111382 -0.043561 -0.400898 0.030047 0.373352 -0.928046
-0.354546 -0.143112 -0.786374 0.045645 0.455964 0.889672
0.404185 0.323384 0.280320 0.017658 -0.992717 -0.126887
0.151997 0.095750 0.030903 0.018134 -0.315699 0.949649
-0.731638 0.014983 0.223454 0.938597 -0.153518 -0.310244
-0.673501 0.114560 -0.472712 0.124803 -0.281515 -0.952486
-0.282866 0.233345 0.073271 -0.132068 -0.585495 0.800644
0.372593 -0.168520 0.509377 -0.060209 0.522284 -0.851365
-0.148717 0.226104 0.521692 0.300367 -0.804529 -0.512993
0.438117 0.265139 -0.347222 0.002901 -1.000222 0.039422
0.576163 0.262694 -0.253408 -0.126406 -0.992104 -0.037692
0.772277 0.140121 0.020469 -0.872712 -0.375128 0.314783
-0.257103 0.040574 -0.399021 0.137286 -0.169474 -0.977072
0.512273 -0.300325 0.269496 -0.339056 0.928890 -0.154064
0.646277 0.207666 0.372514 -0.128458 -0.669530 -0.732540
-0.755672 0.013745 0.089598 0.623266 0.072378 0.779652
0.230780 -0.173404 -0.354253 0.326222 0.418391 -0.848532
0.697256 -0.111780 -0.429524 -0.872895 0.173419 0.457340
0.410082 0.133075 -0.166675 0.893234 -0.440899 0.105600
-0.398870 0.251664 0.355356 0.298831 -0.770546 -0.564495
-0.439066 -0.241669 0.064067 -0.037024 0.840715 0.541470
0.244192 -0.018338 -0.293210 0.318510 -0.010484 -0.948716
-0.185708 0.256898 -0.694115 0.023205 -0.916084 0.402604
-0.409686 0.251168 -0.689786 0.165555 -0.760976 0.627786
0.560352 -0.258534 -0.315470 0.062855 0.990938 -0.126912
0.756266 -0.048484 -0.169228 -0.942829 0.196185 0.271489
-0.651771 0.076319 -0.457388 0.125561 -0.281727 -0.952266
0.001371 -0.054337 0.018789 -0.108543 0.262950 0.959649
-0.149708 0.230767 -0.725829 -0.197567 -0.688190 0.698762
0.527837 -0.118419 0.501074 -0.232898 0.401593 -0.886294
0.311726 0.065911 -0.261593 0.540262 -0.368509 -0.757735
0.695206 0.172284 -0.247810 -0.864011 -0.491467 0.112317
0.721485 0.180320 -0.060450 -0.654534 -0.756730 0.036737
0.012450 -0.119902 -0.742660 -0.178439 0.363136 0.914499
0.178138 -0.117846 0.025872 0.209677 0.331613 0.921231
0.151928 0.272752 0.459233 -0.130249 -0.907990 -0.400774
0.323064 0.126438 -0.672816 -0.175527 -0.156906 0.972171
-0.740961 0.108931 0.182065 0.885003 -0.059166 -0.463264
0.131604 -0.332867 0.334306 -0.137040 0.934402 -0.330579
-0.208257 -0.145322 0.018536 -0.125877 0.464669 0.877457
0.176992 0.323622 0.242812 -0.061708 -0.983689 0.173937
-0.807633 -0.005569 -0.808158 0.097007 -0.160368 0.982861
