ply
format ascii 1.0
element vertex 512
property float x
property float y
property float z
property float nx
property float ny
property float nz
end_header
-0.593006 -0.010231 -1.040900 0.559179 0.025215 0.829662
-0.090391 -0.145271 -0.485478 0.574735 0.341995 -0.743024
0.306509 0.073088 -0.553785 -0.674016 -0.285602 0.682251
-0.448682 -0.243100 -0.013204 0.514207 0.776658 -0.363789
0.586421 0.006001 0.670931 -0.043983 -0.003511 -0.999013
-0.278498 -0.133985 0.307255 0.643915 0.265505 -0.717565
-0.452458 -0.284315 -0.903338 0.104617 0.988189 0.112880
-0.323651 0.157949 -1.028912 -0.111954 -0.518586 0.847495
-0.078441 -0.286655 0.275278 0.161324 0.978287 -0.128089
0.458118 0.196412 -0.016971 0.816105 -0.456238 -0.352897
-0.711637 -0.094009 -0.763271 0.997510 0.076770 0.006121
0.342125 -0.099996 -0.105424 0.817472 0.473275 -0.332147
0.059753 0.079277 -0.782158 -0.813860 -0.427177 0.394204
-0.633017 0.198995 -0.413226 0.773451 -0.631684 0.059858
0.713575 0.264048 0.521707 -0.327056 -0.836450 -0.440260
-0.368805 0.014327 0.263193 0.658873 0.102756 -0.744734
-0.230790 0.243292 0.250677 0.416720 -0.778562 -0.469559
-0.148876 0.220773 0.367068 0.415668 -0.779289 -0.468842
0.524150 -0.007593 0.672512 -0.041103 0.010467 -0.998809
-0.428480 0.234486 0.063628 0.467256 -0.744290 -0.477465
-0.111419 0.155669 -0.962319 -0.617142 -0.414669 0.668991
-0.117726 -0.249512 0.333521 0.363044 0.772231 -0.520258
0.228912 0.176930 -0.287099 0.414996 -0.493608 -0.764513
-0.272483 0.208226 0.260814 0.606601 -0.427021 -0.669400
0.585580 0.121527 0.658983 -0.026777 -0.218559 -0.974788
0.848696 -0.103603 0.149846 -0.908902 0.179210 0.377118
0.859038 0.066043 0.233314 -0.963426 -0.213960 0.164694
0.808872 -0.003995 0.029514 -0.923904 -0.125269 0.363203
0.524596 0.216404 0.324004 0.508466 -0.852414 0.119344
0.410127 -0.135722 0.649866 -0.025867 0.390082 -0.919787
0.782434 -0.097036 0.003573 -0.878792 0.079334 0.471826
-0.602085 -0.138263 -1.018280 0.589755 0.295439 0.752620
0.444510 -0.010767 -0.437178 -0.685202 -0.057875 0.726162
0.073728 0.179645 -0.368766 0.446492 -0.506619 -0.738141
-0.572719 -0.257009 -0.741978 0.450024 0.891704 -0.047931
0.013903 -0.105691 -0.842430 -0.715417 0.400813 0.572568
-0.455843 0.073678 -0.568443 -0.346779 -0.101394 -0.932661
0.434544 -0.198736 0.617440 0.020898 0.539309 -0.842478
0.193616 0.002625 0.134168 -0.738245 0.213581 0.641114
-0.314344 0.066489 0.299725 0.637632 -0.127988 -0.758009
-0.118488 0.080683 -0.085358 -0.747011 -0.305903 0.590786
-0.101777 -0.164292 0.454923 0.643173 0.266007 -0.717268
-0.708815 -0.078410 -0.483496 0.783417 0.290101 -0.549320
0.023608 -0.184672 -0.413997 0.468421 0.635497 -0.613622
0.543506 0.301389 0.458185 0.242839 -0.923212 0.298714
-0.312908 -0.094877 -1.047609 -0.023406 0.138019 0.989995
0.587056 0.254526 0.191829 0.569712 -0.814411 -0.112264
0.291135 -0.070313 -0.144554 0.750574 0.136926 -0.646843
0.605478 -0.261913 -0.000131 -0.020358 0.999853 -0.020812
0.753531 0.251897 0.382562 -0.507667 -0.861058 0.046923
-0.180350 0.251150 -0.893710 -0.319656 -0.862609 0.392301
-0.528001 0.274164 -0.247405 0.206516 -0.977518 0.050615
0.213214 -0.000424 -0.657505 -0.693424 -0.054108 0.719197
-0.304016 -0.262193 0.145154 0.219117 0.950148 -0.221538
-0.667158 -0.013330 -0.305052 0.972813 0.203293 -0.116556
0.455569 0.147628 0.008047 0.658210 -0.502277 -0.560696
-0.356496 0.182012 -0.632184 0.138978 -0.699995 -0.700517
0.006877 0.271227 0.416104 0.313934 -0.857536 -0.406979
0.632005 -0.236467 -0.036184 -0.564221 0.686989 0.460614
-0.262104 0.152394 0.305389 0.608293 -0.425284 -0.669800
0.768809 0.156098 0.026573 -0.857495 -0.295474 0.422301
-0.457797 0.203557 0.083489 0.468302 -0.758476 -0.452706
-0.460159 -0.076128 -1.055068 -0.000516 0.208135 0.978857
-0.558666 0.271171 -0.761684 0.741041 -0.668600 0.069489
-0.286092 0.120615 -0.269808 -0.683714 -0.475203 0.553802
-0.208234 0.159017 0.352502 0.607809 -0.425101 -0.669279
-0.382434 -0.196417 -0.614350 0.080387 0.799362 -0.595821
0.080517 0.147456 -0.345500 0.413075 -0.497044 -0.763454
0.723693 0.266289 0.310598 -0.507374 -0.861443 0.046703
0.192765 -0.111170 -0.236574 0.564961 0.234305 -0.790893
-0.710611 -0.101618 -0.618348 0.997347 0.075575 0.005360
-0.408370 -0.000433 -0.581115 0.191546 0.228214 -0.954403
-0.491198 -0.223006 -0.996781 -0.081118 0.500707 0.862953
-0.139592 -0.152495 -0.985881 -0.652516 0.438582 0.618019
-0.051655 0.144335 0.510134 0.621329 -0.233259 -0.747313
-0.566555 0.250134 -0.909788 0.447833 -0.840931 0.304854
0.141496 -0.256478 -0.480252 0.181460 0.944603 -0.276370
0.214081 0.104093 -0.248935 0.412649 -0.498082 -0.763269
0.675561 -0.032663 0.665019 -0.040468 0.012759 -0.998786
-0.200399 0.164684 -1.008918 -0.112131 -0.518078 0.847881
0.597826 -0.227225 -0.091462 -0.563305 0.686382 0.460355
-0.060009 0.222313 0.445354 0.413724 -0.779173 -0.469795
0.512546 -0.109168 0.287269 0.610578 0.474309 -0.634354
0.640148 -0.258751 0.058269 -0.020370 0.999852 -0.021643
0.032830 -0.077239 0.022492 -0.054036 0.321630 0.945672
0.683611 -0.255417 0.121407 -0.019642 0.999690 -0.019563
0.156712 0.159435 -0.313167 0.413193 -0.496595 -0.762743
-0.006579 -0.121703 -0.401128 0.594738 0.357505 -0.720808
0.747312 0.261131 0.463560 -0.506867 -0.861213 0.046733
-0.082039 -0.165698 -0.507601 0.324532 0.530263 -0.782772
-0.016352 -0.259900 -0.676085 -0.359869 0.889682 0.282357
-0.424192 -0.067920 -0.455319 -0.750309 0.096500 0.654816
0.020731 -0.282521 0.240633 0.036607 0.969362 0.243492
0.102842 -0.016300 -0.279913 0.614453 0.047219 -0.788438
0.824119 -0.184201 0.405263 -0.928588 0.367996 -0.042106
0.320880 -0.232307 -0.382615 -0.396846 0.801490 0.448837
0.739925 -0.251731 0.251384 -0.345337 0.925885 0.153115
-0.540928 0.212681 -0.081044 0.807589 -0.270077 -0.523797
-0.000381 0.142701 0.005530 -0.607163 -0.519645 0.602012
-0.007106 0.028980 0.581694 0.620901 -0.232151 -0.747528
-0.174591 -0.174230 0.385745 0.643302 0.266443 -0.717649
-0.148839 -0.000367 -0.483518 0.583045 0.074465 -0.809804
-0.129009 0.046419 -0.111601 -0.657015 -0.210215 0.725068
-0.475824 -0.275415 -0.185654 0.289266 0.957839 0.017128
0.648347 -0.041932 -0.186601 -0.726370 0.073586 0.684971
0.497969 -0.213744 -0.227051 -0.345171 0.816537 0.463056
-0.541703 -0.203993 -0.091815 0.775082 0.452271 -0.442738
0.011470 -0.178324 0.538041 0.508502 0.450351 -0.733029
0.687337 0.256456 0.556852 -0.194413 -0.764852 -0.613491
0.172273 -0.063477 -0.692892 -0.689943 0.108683 0.716166
-0.673241 0.144117 -0.569088 0.943564 -0.333339 -0.017193
-0.313133 -0.208347 -0.217916 -0.666972 0.469090 0.579245
-0.572500 -0.122844 -0.042545 0.952181 0.300693 -0.065940
0.570191 -0.236665 0.155139 0.536617 0.778109 -0.326732
-0.293251 -0.054387 0.319074 0.660474 0.100904 -0.743857
-0.047157 -0.130733 0.010856 -0.345561 0.542537 0.766763
0.300762 0.104184 0.210534 -0.503260 -0.640937 -0.579839
0.541383 0.032353 0.672664 -0.044042 -0.006143 -0.998930
-0.326365 -0.029775 -0.359229 -0.757017 -0.112957 0.644911
0.041023 0.114422 0.594217 0.620869 -0.232195 -0.748368
0.479085 0.232275 -0.237382 -0.448500 -0.764477 0.466529
-0.357612 -0.288902 -0.820047 -0.112532 0.994035 0.021757
0.832201 -0.151603 0.510164 -0.928433 0.368515 -0.042107
-0.135331 -0.050384 -1.026232 -0.684139 0.085866 0.725187
0.125392 -0.058470 0.064588 -0.533355 0.080659 0.842288
-0.267697 0.283891 0.121121 -0.030410 -0.986419 -0.163513
-0.517492 0.163836 0.027179 0.724515 -0.474231 -0.501334
-0.449419 0.138025 0.148798 0.565542 -0.409031 -0.716542
0.256740 -0.181038 -0.242374 0.453759 0.658371 -0.601611
0.027565 -0.277851 0.381057 0.296829 0.850916 -0.432037
-0.284917 0.234967 -0.667090 0.141649 -0.699991 -0.700029
0.320053 -0.218347 0.600517 0.020380 0.538408 -0.841758
0.278932 -0.023190 0.192499 -0.522247 0.158872 0.838201
0.761689 0.207703 0.092857 -0.537830 -0.737129 0.409824
-0.248995 0.258953 0.207975 0.418363 -0.777997 -0.468438
-0.092392 -0.286367 0.260700 0.161416 0.978249 -0.128058
0.542727 -0.219128 0.152673 0.535237 0.780461 -0.325966
-0.337136 0.275284 0.052918 0.020444 -0.954103 0.300479
0.234120 0.186170 0.078149 -0.137099 -0.622867 0.771727
-0.610863 -0.238860 -0.754843 0.449945 0.891638 -0.047625
0.241804 -0.252661 0.567351 0.050934 0.837330 -0.543023
-0.225728 0.215848 -0.980935 -0.111842 -0.518677 0.847804
0.006359 0.274417 0.403532 0.314069 -0.858412 -0.406950
0.332613 0.294435 0.487191 0.015432 -0.997836 -0.064119
0.784091 -0.006451 -0.016750 -0.837561 0.145951 0.526683
-0.483044 0.115548 0.125154 0.723897 -0.473444 -0.501218
-0.195212 -0.272197 -0.810629 -0.242601 0.951989 0.187052
-0.440454 0.066388 -0.472583 -0.723637 -0.284800 0.628970
-0.583827 0.236040 -0.425859 0.618699 -0.781828 0.081048
0.513220 -0.000895 0.673674 -0.044473 -0.003530 -0.998948
-0.219616 0.276011 0.173091 0.007380 -0.990532 -0.146081
0.879385 -0.050190 0.353947 -0.933542 0.353986 -0.041162
0.729100 0.136849 -0.050053 -0.726387 -0.381033 0.572904
-0.626787 0.139444 -0.233789 0.866719 -0.276895 -0.416793
-0.152438 0.013592 -0.147673 -0.701081 -0.000916 0.713735
-0.108152 -0.255013 -0.803433 -0.244308 0.951194 0.188146
-0.103789 -0.056236 0.491346 0.643319 0.266024 -0.716754
0.491835 0.083844 0.668910 -0.026730 -0.219176 -0.975334
0.074200 -0.225230 -0.657107 -0.500364 0.760036 0.415984
-0.325998 -0.008867 -0.565124 0.192377 0.227965 -0.954425
-0.435094 -0.245078 -0.679646 0.048520 0.932869 -0.357166
0.316181 0.063244 -0.120378 0.714784 -0.199372 -0.670926
-0.088394 0.078357 -0.989689 -0.703681 0.078668 0.705780
0.874761 -0.017049 0.405404 -0.999805 -0.010259 -0.027648
0.582070 0.280407 0.383297 0.399279 -0.794087 0.459202
0.772840 0.124589 0.012482 -0.857341 -0.294703 0.421858
0.505553 0.074155 -0.364649 -0.594881 -0.092285 0.799077
0.473169 -0.277750 0.512331 0.009820 0.998815 -0.029657
-0.659750 -0.101988 -0.381906 0.972042 0.205908 -0.114436
0.527060 0.214873 0.291311 0.508414 -0.853071 0.118486
0.525850 0.233169 0.342940 0.393825 -0.795246 0.460412
0.712869 0.204698 0.020030 -0.539073 -0.734303 0.414307
-0.191726 0.214664 -0.038912 -0.332609 -0.550794 0.765402
0.241232 -0.119839 0.187597 -0.523063 0.158268 0.838855
0.129462 -0.231154 -0.403352 0.064264 0.986266 -0.157419
-0.101814 -0.121538 -0.050040 -0.641774 0.257341 0.722884
0.459341 0.027039 0.266702 -0.118779 -0.297824 0.947657
-0.411805 0.014505 -0.453381 -0.750152 0.096574 0.654774
0.049976 0.296124 0.290437 -0.210500 -0.919239 0.333341
-0.118660 0.285162 0.277541 0.102908 -0.985170 -0.139167
-0.663899 -0.204979 -0.791008 0.614203 0.788951 0.023912
0.051921 0.175994 -0.725886 -0.725596 -0.389825 0.567146
-0.060826 -0.025108 0.531999 0.649961 -0.035335 -0.759211
-0.428042 0.247298 -0.706555 0.025460 -0.707187 -0.707124
0.104130 -0.100720 -0.300827 0.584744 0.367363 -0.723126
0.109387 -0.045436 -0.751938 -0.736615 0.025020 0.675961
-0.713120 -0.024555 -0.622161 0.995628 -0.092535 -0.014321
-0.242215 -0.140400 -1.021882 -0.068456 0.482113 0.873727
0.541353 -0.235668 0.079867 0.506223 0.808815 -0.301406
-0.702932 0.078255 -0.697522 0.986596 -0.165001 0.006065
-0.092387 -0.100776 0.485870 0.642797 0.265095 -0.717669
-0.588898 0.234039 -0.563545 -0.038347 -0.999544 -0.034297
-0.716431 -0.029563 -0.748787 0.997049 0.076633 0.006495
0.137931 0.012029 0.068016 -0.738085 0.214219 0.641031
-0.460681 0.291575 -0.879547 0.056946 -0.935041 0.352085
0.193023 0.055616 -0.233171 0.566023 -0.423992 -0.707583
0.531137 0.122693 -0.314673 -0.571444 -0.609523 0.551729
0.827746 -0.120970 0.110351 -0.907555 0.180329 0.379095
-0.434453 0.175003 -0.639336 0.114147 -0.698487 -0.706725
0.021953 0.079868 0.591675 0.628469 -0.212772 -0.748235
0.249664 -0.155436 -0.573636 -0.614479 0.541368 0.574304
0.857921 -0.098896 0.419159 -0.932645 0.357000 -0.041379
0.417732 0.184994 0.647553 -0.026996 -0.218911 -0.975025
0.597227 -0.259131 0.114170 0.206949 0.975814 0.080274
0.132800 0.241536 0.174312 -0.182782 -0.663002 0.726633
0.096348 -0.073664 0.630334 0.426585 0.328380 -0.842859
-0.311251 0.092595 0.299673 0.605821 -0.428711 -0.670185
-0.439707 -0.233487 -0.672997 0.071894 0.808269 -0.583199
0.607558 0.018067 -0.237168 -0.725400 0.073335 0.684491
0.417908 -0.122572 0.302049 -0.156141 0.597496 0.787304
-0.485230 0.282368 -0.263524 0.207761 -0.978395 0.050705
0.871665 -0.008787 0.515237 -0.999621 -0.010118 -0.027569
0.845508 -0.030180 0.130237 -0.964498 -0.025469 0.263493
-0.526399 -0.264111 -0.757123 -0.254319 0.918910 -0.302985
0.301452 -0.282274 0.420273 -0.140865 0.969753 0.198479
-0.331592 0.141402 0.249471 0.605042 -0.428220 -0.671659
0.202304 0.186318 -0.583735 -0.579202 -0.562273 0.590552
0.000026 -0.285957 0.197853 -0.370830 0.794074 0.482091
0.408274 0.084517 0.670267 -0.026704 -0.218675 -0.974723
0.822636 0.175085 0.229085 -0.915993 -0.376225 0.140456
0.228540 -0.214785 -0.505525 -0.473238 0.727304 0.498750
0.061107 0.013786 0.631813 0.519840 -0.119839 -0.844748
-0.047058 -0.220132 -0.532569 0.396634 0.843108 -0.363400
-0.612314 -0.134990 -0.196185 0.908247 0.238627 -0.344779
-0.075849 -0.083343 0.507446 0.729267 0.110568 -0.674466
0.827045 0.173665 0.252524 -0.916302 -0.376245 0.139771
-0.422363 0.186504 0.147868 0.531337 -0.426575 -0.731290
-0.091240 -0.103246 -0.970705 -0.652951 0.438567 0.618201
0.705492 -0.274654 0.345948 -0.357889 0.933799 -0.000990
0.381718 -0.032138 -0.500333 -0.689321 -0.056102 0.723066
0.411573 -0.186454 0.624204 0.020637 0.538547 -0.841713
0.489517 0.175919 0.297115 0.539889 -0.552513 -0.634878
0.339270 0.048090 0.215236 -0.572549 -0.223380 0.788538
-0.191529 -0.285733 0.111020 -0.087170 0.991076 0.094629
-0.188461 -0.253631 -0.650831 0.058025 0.876721 -0.477967
-0.336719 0.286142 -0.801282 -0.083244 -0.996780 -0.029866
0.650037 0.268215 0.218089 0.075111 -0.996269 -0.031038
-0.206860 0.221382 -0.620772 0.300399 -0.665906 -0.684255
0.742657 -0.042580 0.660672 -0.099501 0.062443 -0.992471
-0.019085 0.260461 -0.557251 0.486398 -0.721735 -0.494082
0.304152 0.178606 0.272767 -0.513616 -0.581280 0.631746
-0.330349 0.283600 -0.765213 -0.083985 -0.996959 -0.030301
-0.715134 -0.028266 -0.776456 0.995648 -0.097658 -0.012848
-0.205579 -0.097368 -0.166984 -0.641317 0.184743 0.746314
-0.101726 0.055995 -0.078770 -0.740710 -0.304348 0.599244
0.783311 0.087474 0.007854 -0.857681 -0.295434 0.422090
-0.601213 0.121707 -0.122680 0.952007 -0.271735 -0.145569
-0.051184 0.273374 0.182266 -0.336289 -0.906501 0.257177
0.466842 0.064109 0.675585 -0.043840 -0.006801 -0.997980
-0.476677 -0.232135 -0.029577 0.514241 0.776347 -0.364111
-0.156202 0.246446 -0.632528 0.160255 -0.795614 -0.584043
0.040151 0.232964 -0.678683 -0.487843 -0.797658 0.355802
-0.337772 0.039226 -1.063961 -0.022833 0.127034 0.992312
-0.208815 0.026200 -1.060585 -0.022583 0.127078 0.992575
-0.495180 0.279808 -0.241705 0.206873 -0.977528 0.050804
0.610074 0.268506 0.309691 0.510214 -0.851903 0.118251
-0.497921 -0.008026 -1.063818 -0.014937 0.147961 0.990161
-0.480341 -0.295923 -0.844504 -0.069611 0.986660 0.152437
-0.657454 -0.194908 -0.564230 0.815675 0.577641 -0.036740
0.293002 -0.000241 0.681827 -0.042753 0.004936 -0.999073
0.566303 -0.150201 -0.237123 -0.700500 0.446126 0.559474
-0.401201 -0.146760 0.195731 0.641215 0.276239 -0.714918
0.356598 0.027207 0.680194 -0.042050 -0.005074 -0.997532
0.144087 0.187826 0.617564 0.263699 -0.351848 -0.898182
-0.318383 -0.285475 -0.798223 -0.112658 0.993749 0.021804
0.692808 -0.031503 -0.142485 -0.811544 0.162390 0.561794
0.256645 -0.085347 -0.180622 0.568566 0.236143 -0.788660
0.720382 -0.074644 -0.091070 -0.811209 0.162739 0.562564
0.130471 0.137171 -0.692204 -0.593145 -0.519202 0.615297
-0.542872 -0.259798 -0.354324 0.321747 0.946878 -0.025877
-0.197294 -0.272649 0.048389 -0.467785 0.816593 0.339746
-0.033886 -0.044303 -0.927247 -0.702398 0.072596 0.708188
0.867822 -0.091561 0.271307 -0.928427 0.369637 -0.041179
-0.624756 -0.218977 -0.370244 0.791265 0.570472 -0.219495
0.378616 0.100770 -0.070360 0.817457 -0.460264 -0.349388
-0.206782 0.100078 -0.187197 -0.609457 -0.467849 0.641329
0.408366 0.241783 -0.168907 0.437519 -0.853692 -0.281616
0.007933 0.300272 0.285819 0.102819 -0.986310 -0.137606
0.770710 0.239328 0.526084 -0.326523 -0.835408 -0.440624
0.519969 0.241310 -0.171447 -0.228033 -0.916922 0.326987
0.678384 0.270713 0.534742 -0.326653 -0.835618 -0.440673
0.679887 0.301224 0.466966 -0.506635 -0.861249 0.045759
0.873592 0.004224 0.475949 -0.999001 -0.010292 -0.028204
-0.050823 -0.004860 -0.033781 -0.419581 -0.017575 0.907814
0.166692 -0.291846 0.359099 -0.140783 0.969950 0.198947
0.400581 0.120194 -0.044750 0.816381 -0.460219 -0.348944
0.144680 -0.152659 0.088951 0.093027 0.839891 0.535781
0.077179 0.181624 -0.690793 -0.726392 -0.389999 0.566833
-0.618524 -0.234082 -0.488804 0.701620 0.712053 0.030620
0.767518 -0.212043 0.119404 -0.565963 0.790755 0.233241
0.075875 0.036318 0.638305 0.618058 -0.150521 -0.770544
-0.217513 -0.231504 0.279525 0.495433 0.723537 -0.480253
-0.287968 0.036807 -0.562284 0.247425 -0.157697 -0.955990
0.775048 0.241210 0.408594 -0.506793 -0.861098 0.046564
0.681625 -0.059727 0.666519 -0.038979 0.014074 -0.998613
-0.576225 -0.238925 -0.566468 0.224836 0.968731 -0.105235
-0.154077 -0.027965 -1.047048 -0.690999 0.080856 0.718458
-0.576520 -0.244696 -0.628883 0.242014 0.964654 -0.104168
0.510529 -0.007111 0.673222 -0.041875 0.008366 -0.998204
0.089812 0.130932 -0.330301 0.411278 -0.496131 -0.762812
-0.581067 0.093263 -0.031240 0.895110 -0.042746 -0.443611
-0.504364 -0.131234 0.066866 0.736872 0.480533 -0.475449
0.019290 -0.091107 -0.365311 0.587397 0.365136 -0.722929
-0.281168 -0.089923 -1.048307 -0.022579 0.137050 0.990338
0.401725 0.019271 0.257332 -0.119023 -0.297777 0.948036
-0.366096 -0.269101 -0.952605 -0.089967 0.594671 0.799391
-0.332972 -0.204862 0.200521 0.623504 0.520523 -0.583348
-0.508030 0.212916 -0.624554 -0.452007 -0.831273 -0.325258
-0.112636 -0.212999 0.028651 -0.692817 0.516153 0.504696
-0.701421 0.088652 -0.720026 0.986860 -0.164844 0.005797
-0.652179 -0.214888 -0.699723 0.611018 0.792041 0.021809
-0.117082 0.022425 -0.473729 0.611136 -0.234263 -0.756660
0.482226 0.218887 0.362261 -0.129641 -0.536161 0.834577
0.561227 0.050147 0.672914 -0.042884 -0.006324 -0.999075
-0.068562 0.228585 0.061781 -0.368295 -0.889451 0.270390
-0.625774 0.203457 -0.481200 0.773030 -0.632764 0.060400
0.635403 -0.258618 0.071002 -0.019468 0.999491 -0.018484
0.838745 -0.010531 0.109803 -0.964162 -0.025066 0.263693
-0.343749 -0.066903 -0.582774 0.192255 0.228151 -0.954772
-0.672781 -0.083529 -0.976278 0.952259 0.131870 0.278656
0.473439 -0.184440 -0.287501 -0.677022 0.679457 0.284619
-0.187832 -0.265037 0.258711 0.494984 0.724227 -0.478594
0.262103 -0.202167 0.265721 -0.518832 0.828643 0.208323
0.036859 -0.080655 -0.338558 0.613288 0.047389 -0.788130
-0.453378 0.238316 -0.342895 -0.497377 -0.784827 0.371200
-0.054908 0.080648 0.525895 0.621864 -0.230892 -0.747516
0.601941 -0.287485 0.413613 0.222999 0.915613 0.335249
0.311101 0.222117 0.316234 -0.392224 -0.817397 0.423153
0.520640 -0.279109 0.502285 0.016155 0.999309 -0.032692
-0.217665 -0.273265 -0.696272 0.057782 0.876807 -0.476825
-0.232504 0.275405 0.158497 -0.031572 -0.986088 -0.164075
0.400341 0.160269 -0.408731 -0.565585 -0.497582 0.659412
0.650753 -0.240014 0.583857 -0.005893 0.814780 -0.579772
-0.641861 0.027377 -1.007095 0.541330 -0.151973 0.827070
-0.030627 -0.265643 -0.674977 -0.359892 0.889940 0.282478
-0.597343 0.165576 -0.991562 0.747988 -0.243155 0.619807
-0.132996 0.013014 0.463000 0.636886 -0.131449 -0.758942
-0.079871 -0.088416 -0.035528 -0.337180 0.540425 0.771222
0.181377 0.277261 0.314914 -0.159572 -0.954284 0.255180
0.326703 0.122533 0.663234 -0.026858 -0.219324 -0.974858
0.012746 0.284709 0.232399 -0.221914 -0.916694 0.331955
0.073985 0.124753 0.049750 -0.672760 -0.573988 0.465909
-0.606464 -0.212999 -0.286220 0.604502 0.747357 -0.277758
-0.400593 0.086299 -1.072408 -0.022730 0.127179 0.992628
-0.276133 -0.279913 -0.826674 -0.112758 0.993560 0.021944
-0.489213 -0.028864 0.127068 0.808699 0.028284 -0.586811
0.375576 0.281052 0.447250 -0.037570 -0.861230 0.506735
-0.131405 0.147906 -0.060551 -0.332559 -0.550382 0.766279
-0.671234 -0.184562 -0.913379 0.625291 0.774297 0.102674
-0.135650 -0.188908 -0.956026 -0.652861 0.438723 0.618092
0.433734 0.294680 0.524783 0.016034 -0.997744 -0.065010
0.668600 -0.122134 0.648182 -0.026277 0.390156 -0.920292
-0.592915 -0.001082 -0.048352 0.895584 -0.042812 -0.443423
0.005761 -0.189351 -0.793230 -0.716255 0.400126 0.571697
-0.143375 -0.202007 -0.975356 -0.313561 0.761273 0.568426
-0.037509 0.240504 0.101546 -0.358110 -0.758988 0.545984
-0.298101 -0.281330 -0.829444 -0.113072 0.993671 0.022494
0.006320 -0.295243 0.262400 0.103054 0.991513 0.076221
0.236871 0.209669 0.246119 -0.512955 -0.581177 0.631581
-0.013881 0.052447 -0.016553 -0.407813 -0.013599 0.912762
0.367011 0.296516 0.473374 -0.037734 -0.860285 0.507498
0.495212 -0.243123 -0.043373 0.536581 0.798534 -0.273441
0.539743 -0.192293 -0.219236 -0.518700 0.736277 0.436471
-0.400715 -0.192070 -1.005896 -0.081079 0.500287 0.862076
0.363650 -0.134503 -0.474568 -0.627051 0.393793 0.673894
0.571874 0.291998 0.411687 0.268478 -0.806238 0.526510
-0.609000 -0.237256 -0.361225 0.791528 0.569904 -0.219234
0.250667 -0.126870 0.658434 -0.026073 0.391697 -0.919580
-0.161588 0.169169 -0.554531 0.562860 -0.271385 -0.780553
-0.181851 0.192772 -0.079659 -0.605402 -0.543779 0.581543
0.283913 -0.040283 0.199641 -0.522042 0.158772 0.837848
0.712440 -0.021969 -0.119318 -0.725559 0.073808 0.684729
-0.245336 0.019750 -0.255005 -0.781521 -0.075681 0.621122
0.421458 -0.243414 -0.152222 0.655714 0.611287 -0.444964
-0.256225 0.022007 -0.266059 -0.754995 -0.113554 0.646537
-0.241639 0.277708 0.152181 -0.030671 -0.986230 -0.163987
-0.621308 0.117455 -0.204898 0.866391 -0.276998 -0.417011
-0.298792 -0.142557 -0.256170 -0.667074 0.469845 0.580979
-0.262598 0.098335 0.342863 0.605248 -0.428095 -0.670736
-0.201019 -0.109592 0.385441 0.643485 0.267028 -0.717307
-0.264070 -0.262121 -0.680234 0.057680 0.876533 -0.477580
-0.323579 -0.287493 -0.762485 -0.112591 0.993499 0.021725
0.729014 0.269487 0.427419 -0.506712 -0.860730 0.046523
0.072733 -0.098251 0.031264 -0.054065 0.321739 0.945451
0.510023 -0.230163 -0.187957 -0.345687 0.817431 0.463545
-0.411668 0.236621 -0.696236 0.027177 -0.707125 -0.706098
0.485261 0.093098 0.249529 0.731818 -0.407005 0.547699
0.378553 -0.276760 0.552556 0.007412 0.999405 -0.029840
0.604497 0.199439 -0.149826 -0.571988 -0.612723 0.547872
-0.183595 -0.208010 -0.979503 -0.048591 0.480574 0.876618
-0.388447 -0.286925 -0.857734 -0.069803 0.986659 0.148773
0.298404 0.210442 -0.468099 -0.579267 -0.567918 0.586426
-0.167835 0.200991 -0.583392 0.300760 -0.665937 -0.683278
-0.000193 -0.116262 -0.853053 -0.715146 0.401256 0.572827
0.507355 0.140214 -0.320896 -0.572161 -0.610058 0.549868
0.610178 0.263999 0.246699 0.075229 -0.996686 -0.031102
-0.621009 0.044279 -0.123492 0.896343 -0.042913 -0.443195
0.785337 0.148171 0.054286 -0.857441 -0.295005 0.421198
-0.490784 0.175006 0.056123 0.724190 -0.474178 -0.501403
0.483595 0.191570 0.050504 0.816773 -0.460506 -0.349180
0.241789 0.207841 0.247561 -0.513343 -0.582186 0.632514
-0.322616 0.225697 -0.192958 -0.507463 -0.783254 0.360519
-0.297520 -0.284786 -0.001545 -0.087202 0.992071 0.094786
-0.411952 0.064096 0.213790 0.634161 -0.289413 -0.716736
0.809301 -0.114367 0.620793 -0.573613 0.169894 -0.801290
0.270245 0.197322 -0.275670 0.345077 -0.781884 -0.520231
-0.133875 -0.194185 -0.552039 0.321761 0.524287 -0.788072
-0.181891 -0.210506 -0.014091 -0.314443 0.524365 0.790636
0.566187 -0.200506 -0.172805 -0.518875 0.736216 0.436280
0.461406 -0.032346 0.266194 0.727539 0.056519 -0.683799
-0.251718 0.114131 -1.046235 -0.111778 -0.518386 0.848200
-0.563675 0.108298 -1.034119 0.375817 -0.197674 0.906162
0.351799 -0.200843 0.615274 0.018171 0.539098 -0.842146
-0.406407 0.033468 0.227811 0.638729 -0.127353 -0.758640
-0.149923 -0.279135 0.245966 0.161626 0.978253 -0.127506
-0.217034 0.115562 -1.041564 -0.111500 -0.518207 0.848177
0.132834 0.182178 -0.337400 0.414199 -0.494204 -0.763913
0.845048 -0.150916 0.253591 -0.929455 0.365349 -0.042085
-0.564782 -0.228621 -0.192693 0.723793 0.475197 -0.501536
-0.523741 0.011782 0.079376 0.831541 0.016027 -0.555178
0.177202 -0.274196 0.300836 -0.339864 0.791678 0.507230
-0.060303 0.282414 -0.643954 0.363176 -0.873798 -0.323210
0.385829 -0.122944 -0.459339 -0.626484 0.395468 0.672998
-0.281850 -0.265323 -0.056585 -0.121495 0.919411 0.375973
0.108936 0.178837 0.611847 0.263882 -0.351765 -0.897616
0.266325 -0.281567 0.532837 0.017887 0.987793 -0.153294
-0.418573 0.230351 -0.980743 -0.008174 -0.684755 0.728460
0.326856 0.240235 -0.368279 -0.250252 -0.956926 0.153337
0.363637 -0.238676 -0.290277 0.227894 0.969253 -0.092693
-0.676478 0.154016 -0.755549 0.650893 -0.758713 0.026778
-0.682880 0.143063 -0.775274 0.885637 -0.461158 0.061508
0.098171 0.294343 0.314944 -0.206876 -0.919781 0.334085
0.621019 0.252705 -0.024088 -0.529579 -0.754236 0.389619
-0.714844 -0.036345 -0.652452 0.995593 -0.092081 -0.014476
-0.013933 0.077821 -0.899418 -0.845464 -0.144742 0.514187
-0.242334 -0.033982 0.377604 0.643287 0.266878 -0.717220
0.878780 -0.014357 0.275186 -0.999961 -0.010141 -0.027366
-0.105603 0.253596 -0.622564 0.363352 -0.873332 -0.325387
-0.417566 0.182481 0.150784 0.567192 -0.408680 -0.714712
-0.248134 -0.278434 -0.804016 -0.113005 0.993764 0.021770
-0.395631 0.166168 -0.366003 -0.685579 -0.472998 0.553808
-0.352002 0.167871 -0.615596 0.136714 -0.699418 -0.701374
-0.146459 0.105143 -0.525789 0.612755 -0.232650 -0.755779
-0.165716 0.254220 0.295282 0.418395 -0.781397 -0.463169
0.035384 0.101520 -0.806948 -0.813545 -0.426817 0.393927
-0.192580 -0.165587 0.371846 0.643769 0.265668 -0.717777
-0.394409 0.128177 -0.603923 0.148409 -0.256959 -0.954541
-0.047023 0.267912 -0.720519 -0.487745 -0.797578 0.355782
-0.247558 -0.200425 -0.132783 -0.455071 0.485573 0.748003
0.625370 0.233941 -0.055097 -0.603850 -0.704262 0.374847
0.043527 0.240294 0.510229 0.314450 -0.857276 -0.407689
-0.122644 -0.165824 -0.032456 -0.692661 0.516434 0.503311
0.556408 0.308115 0.468079 0.242398 -0.923067 0.297825
0.179477 -0.255201 0.268732 -0.340041 0.792589 0.507030
0.153395 0.160772 0.093200 -0.249301 -0.683642 0.687669
0.049612 0.209279 -0.415859 0.472387 -0.670141 -0.572348
0.627043 -0.253688 0.564923 -0.005570 0.814780 -0.578714
0.467775 0.112115 -0.385774 -0.564626 -0.494992 0.660628
-0.270859 -0.171699 0.300728 0.643070 0.266748 -0.717095
0.685211 -0.126712 -0.128533 -0.597427 0.681571 0.424847
-0.199935 -0.252142 -0.006907 -0.468548 0.816334 0.339438
0.296836 0.134280 0.661157 -0.026725 -0.218865 -0.975434
0.027425 -0.125852 -0.374615 0.559777 0.365235 -0.744599
0.001488 -0.235347 0.449630 0.294460 0.851554 -0.432269
0.468993 -0.134974 0.650432 -0.026346 0.391691 -0.918620
0.002285 0.258163 0.158625 -0.222938 -0.916625 0.330993
-0.119853 -0.113818 -0.993509 -0.652967 0.438587 0.618333
-0.321623 -0.226995 -0.644165 0.072375 0.808441 -0.585350
-0.414648 0.233700 0.076959 0.467151 -0.745027 -0.477545
-0.677931 0.057445 -0.346811 0.940039 -0.198265 -0.277295
0.629686 0.269326 0.175826 0.075283 -0.996261 -0.031071
-0.458673 0.050610 0.165226 0.782786 0.017211 -0.622279
0.722175 -0.239980 0.113615 -0.566175 0.790894 0.233704
-0.083709 -0.154944 -0.482780 0.593832 0.358527 -0.720277
-0.413779 0.212082 -0.671866 0.027375 -0.707514 -0.706694
-0.329498 0.167076 0.235873 0.605805 -0.428511 -0.671926
0.299141 -0.054358 0.681339 -0.042553 0.005389 -0.998987
0.685739 -0.067983 0.666980 -0.046912 0.068883 -0.995976
0.017176 0.185993 -0.413005 0.472628 -0.669852 -0.572829
0.514638 -0.137223 -0.302381 -0.731609 0.276309 0.623778
0.340089 0.048294 0.680379 -0.043197 -0.007033 -0.999008
-0.011401 -0.217999 -0.488071 0.396758 0.843482 -0.363715
-0.534395 -0.067187 0.061434 0.798472 0.032073 -0.600447
0.628522 -0.264938 0.242887 0.193044 0.978719 -0.064912
0.146135 0.298201 0.368029 -0.160519 -0.953644 0.256954
0.357833 -0.240127 0.590548 -0.005349 0.814657 -0.579889
-0.185916 -0.085031 0.406757 0.643627 0.267496 -0.717477
0.205100 -0.036631 -0.214135 0.528094 -0.027071 -0.847993
-0.512402 0.207558 -0.516862 -0.788256 -0.526994 0.318633
-0.076994 0.231548 0.057432 -0.368487 -0.888613 0.270027
0.250559 0.106650 0.027968 0.221661 -0.389075 0.895368
0.142637 -0.057758 0.099835 -0.738019 0.214188 0.640687
0.512654 0.186124 0.645744 -0.026877 -0.218731 -0.974435
0.628113 -0.259916 0.029598 0.205748 0.975507 0.079822
-0.547277 0.028833 0.047609 0.796957 0.029813 -0.602171
0.318342 0.029421 -0.557163 -0.689132 -0.055715 0.722940
-0.386564 -0.242480 0.076112 0.514414 0.776781 -0.363517
-0.003770 0.115300 -0.875419 -0.712897 -0.468090 0.521782
-0.287913 0.125870 0.300348 0.605795 -0.427682 -0.670817
-0.438645 0.288173 -0.895435 0.056753 -0.935580 0.351609
0.507511 -0.177307 0.307504 0.856594 0.225990 0.463712
0.135831 0.248471 -0.425530 0.400955 -0.828600 -0.391265
-0.497581 -0.230593 -0.057510 0.514344 0.776762 -0.364071
0.531353 -0.014585 0.673330 -0.044172 -0.004848 -0.998728
-0.254139 0.083664 0.347262 0.638129 -0.128653 -0.758644
-0.065558 -0.229443 0.408560 0.314581 0.842977 -0.437233
-0.368703 0.210469 -0.667447 0.029307 -0.707916 -0.705872
-0.255955 -0.277381 -0.022114 -0.467280 0.816348 0.339899
-0.472579 0.188249 -0.434543 -0.422125 -0.740013 0.525045
0.414094 -0.209123 -0.095032 0.504642 0.796133 -0.336116
-0.065766 -0.011232 0.525779 0.649882 -0.035536 -0.759231
0.526791 0.153335 -0.286943 -0.570858 -0.607662 0.553109
