ply
format ascii 1.0
element vertex 512
property float x
property float y
property float z
property float nx
property float ny
property float nz
property uchar red
property uchar green
property uchar blue
end_header
0.043328 -0.104664 -0.118707 0.833367 0.234247 0.500628 233 157 191
-0.232482 -0.040444 0.264766 0.836804 0.175828 -0.518502 234 149 61
0.278904 0.252076 -0.412206 0.234709 -0.968287 -0.085632 157 4 116
-0.388876 -0.062274 -0.698358 0.588844 0.528470 0.611542 202 194 205
-0.120309 -0.209521 -0.714027 -0.010261 0.803247 0.595558 126 229 203
0.374781 -0.208958 0.868135 -0.291481 0.938954 -0.182769 90 247 104
0.297661 -0.111228 0.538455 -0.730150 0.236647 0.640998 34 157 209
0.427758 0.242075 -0.163562 -0.279893 -0.933146 -0.225608 91 8 98
-0.171751 0.098559 0.342021 0.828458 -0.212011 -0.518371 233 100 61
-0.145934 -0.206273 -0.718849 -0.010261 0.803247 0.595558 126 229 203
0.290314 -0.199098 0.615062 -0.638365 0.564512 0.523275 46 199 194
0.190468 0.212314 0.807468 0.639173 -0.640600 -0.425546 208 45 73
-0.170523 0.194613 -0.099035 -0.685837 -0.698413 0.204565 40 38 153
-0.206113 0.239506 -0.018826 -0.402039 -0.894939 0.193514 76 13 152
-0.068461 0.056633 0.504000 0.771409 -0.227254 -0.594377 225 98 51
-0.184469 0.073044 -0.297861 -0.984490 -0.153404 0.085122 1 107 138
0.280367 0.260817 -0.553253 0.228333 -0.972815 -0.038653 156 3 122
-0.287138 -0.223563 -0.239007 0.287571 0.956837 -0.042008 164 249 122
0.151011 0.186529 0.452914 -0.619490 -0.565352 0.544618 48 55 196
0.052533 0.210489 0.548476 0.595915 -0.707169 -0.380523 203 37 78
0.510102 0.055342 -0.465275 -0.949398 -0.178450 0.258456 6 104 160
0.509978 0.013173 0.908700 -0.852809 -0.361932 -0.376459 18 81 79
0.285948 -0.005701 0.487823 -0.723245 -0.144232 0.675362 35 109 213
-0.276623 -0.208730 -0.017663 0.532457 0.843415 -0.071700 195 235 118
0.110672 -0.243463 -0.617842 0.035794 0.822966 -0.566962 132 232 55
0.367091 -0.220888 0.777428 -0.436819 0.885063 0.160790 71 240 148
0.227640 -0.087038 0.449765 -0.730150 0.236647 0.640998 34 157 209
0.098010 -0.209314 0.424159 -0.436705 0.761733 0.478593 71 224 188
-0.130812 -0.242180 0.179724 0.099874 0.982525 -0.157068 140 252 107
-0.444262 0.024078 -0.227888 0.998402 -0.053311 -0.018772 254 120 125
0.107144 -0.232909 0.513309 0.244806 0.969478 0.013516 158 251 129
-0.166444 -0.053762 0.372680 0.856404 0.178734 -0.484383 236 150 65
-0.301397 0.097870 0.097526 0.836273 -0.339780 -0.430345 234 84 72
0.136025 -0.081722 0.851701 0.762000 0.159144 -0.627718 224 147 47
-0.008253 0.198045 -0.560704 -0.083124 -0.928792 -0.361159 116 9 81
-0.447316 0.020147 -0.379156 0.998402 -0.053311 -0.018772 254 120 125
0.089279 0.036658 0.270127 -0.815693 -0.113328 0.567276 23 113 199
0.243316 0.211988 -0.417826 0.894311 -0.446693 -0.025943 241 70 124
-0.381300 -0.169398 -0.448818 0.879713 0.474922 -0.023541 239 188 124
0.254136 0.102771 0.934410 0.270109 -0.411545 -0.870444 161 75 16
-0.075885 -0.060564 0.505268 0.800219 0.165773 -0.576340 229 148 54
-0.169244 -0.011650 0.383268 0.856404 0.178734 -0.484383 236 150 65
0.029594 0.162100 0.596508 0.850845 -0.261724 -0.455590 235 94 69
0.458810 -0.209583 -0.124071 -0.647500 0.740117 -0.181579 44 221 104
-0.405250 0.122341 -0.646356 0.917991 -0.347751 0.190688 244 83 151
-0.258300 -0.197383 0.095203 0.749003 0.518800 -0.412118 222 193 74
0.200049 0.142307 -0.276190 0.906654 -0.353284 0.230584 243 82 156
-0.297092 0.084084 0.117382 0.850526 -0.344260 -0.397607 235 83 76
0.160958 -0.247726 0.601377 0.244806 0.969478 0.013516 158 251 129
0.493140 -0.105149 -0.025928 -0.666133 0.140189 -0.732540 42 145 34
0.317350 0.054759 0.055660 0.133328 -0.352288 -0.926346 144 82 9
0.314994 -0.007727 0.518495 -0.723245 -0.144232 0.675362 35 109 213
0.153580 -0.083222 0.872630 0.762000 0.159144 -0.627718 224 147 47
-0.448069 -0.014563 -0.320647 0.998402 -0.053311 -0.018772 254 120 125
-0.050487 -0.018833 -0.012786 -0.869882 -0.058160 0.489819 16 120 189
0.494261 -0.192812 -0.182131 -0.647500 0.740117 -0.181579 44 221 104
0.370572 -0.240680 -0.073850 -0.168259 0.781214 -0.601160 106 227 50
0.178324 0.252878 -0.593785 0.101349 -0.992662 -0.065965 140 0 119
-0.431233 0.100833 -0.249444 0.944651 -0.324936 0.045285 247 86 133
-0.098214 -0.222448 0.301351 0.140801 0.950491 -0.277023 145 248 92
-0.164778 0.106688 -0.429433 -0.783184 -0.266472 -0.561797 27 93 55
0.494373 -0.190813 -0.174378 -0.647500 0.740117 -0.181579 44 221 104
-0.368571 0.153356 -0.085994 0.626164 -0.695925 -0.351578 207 38 82
0.308506 0.095948 0.544144 -0.724992 -0.266897 0.634942 35 93 208
0.228327 -0.118461 0.921175 0.457375 0.291366 -0.840187 185 164 20
-0.238296 0.227974 0.059648 0.427244 -0.840807 -0.332424 181 20 85
-0.214762 0.156129 -0.315166 -0.926310 -0.324942 -0.190690 9 86 103
-0.445925 -0.018544 -0.195318 0.998402 -0.053311 -0.018772 254 120 125
0.314234 -0.243220 0.761062 -0.377994 0.907899 0.181218 79 243 150
0.221066 -0.008503 0.038748 0.272114 -0.105427 -0.956472 162 114 5
-0.345203 0.218380 -0.212387 0.702701 -0.709518 -0.052869 217 37 120
-0.170181 0.142748 -0.768615 0.029173 -0.455058 0.889984 131 69 240
0.469524 -0.168642 -0.452781 -0.767633 0.526605 0.365278 29 194 174
-0.180332 0.157956 -0.432067 -0.783184 -0.266472 -0.561797 27 93 55
-0.387750 0.003986 -0.040195 0.830772 -0.197848 -0.520264 233 102 61
0.122463 0.035938 0.009637 0.225156 -0.104477 -0.968705 156 114 3
0.085866 -0.191467 -0.733201 0.013609 0.430519 0.902479 129 182 242
0.073572 0.207907 0.372446 -0.350779 -0.879968 0.320328 82 15 168
0.425797 -0.124470 0.713833 -0.634772 0.655223 0.409571 46 211 179
0.075026 0.034541 -0.161944 0.569645 0.003386 0.821884 200 127 232
-0.089025 -0.245350 -0.577153 -0.267197 0.823247 -0.500869 93 232 63
0.415690 0.161700 0.896206 -0.470956 -0.604985 -0.642023 67 50 45
0.326545 0.141583 0.605922 -0.619490 -0.565352 0.544618 48 55 196
-0.351477 0.218693 -0.371074 0.419970 -0.907461 -0.011798 181 11 125
0.170791 -0.229180 0.749027 0.567182 0.733511 -0.374521 199 221 79
0.169331 -0.105320 -0.778098 0.020797 0.457342 0.889048 130 185 240
-0.290855 -0.052670 -0.757518 0.219985 0.237326 0.946194 155 157 248
-0.076348 0.058545 0.493032 0.771409 -0.227254 -0.594377 225 98 51
-0.446064 -0.027991 -0.480368 0.944188 0.329382 0.004002 247 169 128
0.308776 0.232263 0.853159 -0.048646 -0.864351 -0.500530 121 17 63
-0.195070 -0.232560 0.133326 0.472429 0.847253 -0.242845 187 235 96
-0.240146 -0.203535 -0.168225 -0.483096 0.803482 0.347902 65 229 171
0.222864 0.124160 0.013645 0.252971 -0.538125 -0.804007 159 58 24
-0.421829 0.130957 -0.229455 0.944651 -0.324936 0.045285 247 86 133
-0.108272 -0.065570 0.458861 0.800219 0.165773 -0.576340 229 148 54
-0.391045 -0.043235 -0.712723 0.588844 0.528470 0.611542 202 194 205
0.040755 -0.068921 -0.131150 0.833367 0.234247 0.500628 233 157 191
0.357205 -0.130156 0.622224 -0.638337 0.566223 0.521457 46 199 193
0.369570 -0.169157 -0.672612 -0.715121 0.522895 0.463877 36 194 186
0.439896 0.002059 -0.648452 -0.885806 0.160435 0.435441 14 147 183
-0.060189 0.046441 -0.481434 -0.594846 -0.038428 -0.802921 51 122 25
0.303406 0.247524 -0.241063 0.329232 -0.943035 -0.047877 169 7 121
0.492535 0.188423 -0.241519 -0.687899 -0.724237 0.047709 39 35 133
-0.399699 0.153217 -0.593546 0.967012 -0.251498 0.040456 250 95 132
0.107077 0.222466 0.653820 0.724398 -0.666129 -0.177537 219 42 104
0.163872 0.243641 -0.640870 0.022060 -0.915824 0.400973 130 10 178
-0.016353 -0.076014 0.078580 -0.954122 0.248437 0.167126 5 159 148
0.509679 0.145700 -0.072310 -0.880645 -0.297800 -0.368483 15 89 80
0.529811 0.028657 -0.411302 -0.949398 -0.178450 0.258456 6 104 160
0.189809 -0.100333 -0.351874 0.872867 0.397850 -0.282521 238 178 91
-0.301468 -0.218096 -0.212581 0.287571 0.956837 -0.042008 164 249 122
-0.226476 0.241146 -0.549168 0.088427 -0.983252 -0.159361 138 2 107
0.016652 -0.027478 -0.081178 0.951139 0.275196 -0.140008 248 162 109
-0.403730 -0.142605 -0.223693 0.795917 0.605151 0.017591 228 204 129
-0.062160 0.230456 0.317343 0.303327 -0.935328 -0.182084 166 8 104
0.240504 0.223925 -0.167642 0.614473 -0.785664 0.071795 205 27 136
0.221961 0.207952 -0.183733 0.614473 -0.785664 0.071795 205 27 136
0.367539 0.219150 0.800796 -0.473901 -0.880498 -0.011868 67 15 125
-0.246714 -0.218376 -0.013735 -0.040505 0.998266 -0.042723 122 254 122
-0.200381 -0.246236 -0.541820 0.099767 0.903107 -0.417665 140 242 74
0.372531 -0.256902 -0.505211 -0.531363 0.793711 0.296103 59 228 165
-0.430564 -0.016447 -0.139733 0.945409 0.085359 -0.314508 248 138 87
-0.156661 0.232838 0.171782 0.435116 -0.870610 -0.229592 182 16 98
0.156687 0.072656 -0.212408 0.906654 -0.353284 0.230584 243 82 156
-0.193048 0.139753 -0.392174 -0.914433 -0.345654 -0.210559 10 83 100
0.287482 0.184541 -0.735751 -0.468969 -0.559217 0.683626 67 56 214
-0.250859 0.214852 -0.288701 -0.828292 -0.543964 -0.134294 21 58 110
0.378381 -0.257415 -0.488455 -0.348170 0.934756 0.070773 83 246 136
0.443350 -0.155556 0.807480 -0.793144 0.592661 0.140267 26 203 145
0.036049 0.156892 0.611556 0.850845 -0.261724 -0.455590 235 94 69
0.119832 0.098271 -0.011418 0.359149 -0.413451 -0.836702 173 74 20
-0.368732 0.205904 -0.357673 0.702701 -0.709518 -0.052869 217 37 120
0.532850 -0.057037 -0.414643 -0.977678 0.099176 0.185230 2 140 151
0.193244 0.193850 0.837243 0.464942 -0.732189 -0.497723 186 34 64
0.456135 0.052611 -0.587719 -0.888650 -0.171444 0.425333 14 105 181
-0.202183 -0.250189 -0.550798 0.099767 0.903107 -0.417665 140 242 74
-0.121081 0.066359 0.430073 0.794072 -0.185021 -0.578980 228 103 53
-0.405221 -0.018556 -0.069211 0.934328 0.086935 -0.345650 246 138 83
-0.117566 0.063608 -0.452113 -0.400210 -0.344191 -0.849331 76 83 19
0.513961 -0.140005 -0.099686 -0.740426 0.615768 -0.269441 33 206 93
-0.052525 -0.018981 -0.016423 -0.869882 -0.058160 0.489819 16 120 189
0.005982 -0.201905 0.294167 -0.369838 0.869571 0.327210 80 238 169
-0.390227 0.093362 -0.081349 0.862968 -0.297106 -0.408674 237 89 75
-0.151637 0.100625 0.373322 0.828458 -0.212011 -0.518371 233 100 61
-0.424738 -0.111924 -0.295237 0.973933 0.225239 0.026871 251 156 130
0.133820 -0.127512 -0.149827 0.715318 0.269604 0.644697 218 161 209
0.200886 0.248910 0.673547 0.118066 -0.985657 -0.120582 142 1 112
-0.085893 0.235091 0.261648 0.308513 -0.925398 -0.220134 166 9 99
0.068113 -0.180628 0.333455 -0.621824 0.703497 0.344134 48 217 171
-0.008898 0.143594 -0.532067 -0.143420 -0.448789 -0.882054 109 70 15
0.114753 0.235366 0.621979 0.238148 -0.969845 -0.051826 157 3 120
0.121636 -0.192569 -0.732723 -0.010261 0.803247 0.595558 126 229 203
0.213094 0.232176 0.588605 -0.252686 -0.927201 0.276491 95 9 162
0.394163 -0.170455 -0.635094 -0.704961 0.518804 0.483604 37 193 189
0.393552 -0.031712 0.615962 -0.723761 0.256069 0.640779 35 160 209
0.283766 0.137481 0.925814 0.068031 -0.423195 -0.903481 136 73 12
0.285538 0.099691 0.519492 -0.724992 -0.266897 0.634942 35 93 208
0.010914 -0.227931 0.399824 -0.132535 0.988700 0.070053 110 253 136
0.208431 0.205932 -0.056876 0.400591 -0.896124 -0.191021 178 13 103
-0.408625 0.151684 -0.389716 0.967012 -0.251498 0.040456 250 95 132
0.391529 -0.205350 0.859961 -0.291481 0.938954 -0.182769 90 247 104
-0.232904 0.222152 -0.130484 -0.126763 -0.990242 -0.057896 111 1 120
0.227340 -0.200981 -0.430198 0.795363 0.599445 -0.089800 228 203 116
0.139070 -0.218617 -0.549418 0.409152 0.879074 -0.244589 179 239 96
0.289749 -0.139312 -0.758756 -0.184049 0.566979 0.802908 104 199 229
-0.078091 -0.013016 0.514400 0.794072 -0.185021 -0.578980 228 103 53
0.412350 -0.101738 -0.666246 -0.885806 0.160435 0.435441 14 147 183
0.459889 0.121362 0.801303 -0.795804 -0.595067 0.112207 26 51 141
-0.391081 -0.030787 -0.034064 0.934328 0.086935 -0.345650 246 138 83
-0.138818 -0.192601 -0.729272 0.013609 0.430519 0.902479 129 182 242
-0.355759 -0.052866 -0.733214 0.399574 0.067567 0.914207 178 136 244
0.195505 0.048964 -0.795650 0.015494 -0.089022 0.995909 129 116 254
0.164256 0.040062 -0.395291 0.928614 -0.077894 -0.362779 245 117 81
-0.140414 0.205599 0.289159 0.718326 -0.499403 -0.484360 219 63 65
0.561974 0.012259 -0.239272 -0.992970 0.070370 0.095178 0 136 139
0.534840 0.151161 -0.181792 -0.692389 -0.721142 -0.023485 39 35 124
-0.149486 0.167694 0.314786 0.718326 -0.499403 -0.484360 219 63 65
0.013892 -0.230425 -0.605027 0.035794 0.822966 -0.566962 132 232 55
0.307335 -0.203122 -0.690164 -0.258119 0.726633 0.636694 94 220 208
0.282934 0.088325 0.948776 0.068031 -0.423195 -0.903481 136 73 12
0.479837 0.053844 -0.001075 -0.705969 -0.071463 -0.704628 37 118 37
0.261948 -0.058807 0.045773 0.189343 0.094269 -0.977375 151 139 2
0.269214 -0.164373 0.913188 0.195735 0.624903 -0.755768 152 207 31
0.468958 0.000231 -0.578651 -0.945601 0.067300 0.318293 6 136 168
0.452080 -0.145260 0.813344 -0.793144 0.592661 0.140267 26 203 145
0.026612 -0.026371 0.152657 -0.954626 -0.047657 0.293971 5 121 164
0.357042 0.222206 0.753128 -0.491978 -0.848375 0.195496 64 19 152
0.390656 -0.216678 -0.048280 -0.168259 0.781214 -0.601160 106 227 50
0.431957 -0.179266 -0.018967 -0.265085 0.686262 -0.677329 93 214 41
0.263253 -0.258219 -0.487497 0.143674 0.989387 -0.021724 145 253 124
0.396164 0.254674 -0.299233 -0.178219 -0.983490 -0.031387 104 2 123
-0.272651 -0.130752 0.152999 0.749003 0.518800 -0.412118 222 193 74
0.004477 -0.158348 0.196598 -0.797836 0.402311 0.449002 25 178 184
0.198611 -0.161148 -0.017317 0.236280 0.389976 -0.889995 157 177 14
0.162863 -0.050541 -0.246577 0.899712 0.312202 0.305039 242 167 166
0.259589 0.150725 -0.776363 0.010000 -0.218051 0.975886 128 99 251
0.189447 0.199478 -0.484512 0.538577 -0.591532 -0.600021 196 52 50
0.234380 0.186121 -0.280499 0.894311 -0.446693 -0.025943 241 70 124
-0.140202 0.031522 -0.791418 0.020628 -0.134252 0.990733 130 110 253
-0.383958 0.186852 -0.304367 0.702701 -0.709518 -0.052869 217 37 120
-0.451895 0.001449 -0.569582 0.998402 -0.053311 -0.018772 254 120 125
0.494636 -0.161674 -0.096102 -0.740426 0.615768 -0.269441 33 206 93
0.435792 -0.172270 0.835369 -0.793144 0.592661 0.140267 26 203 145
-0.130223 -0.137701 -0.464498 -0.631660 0.178600 -0.754392 46 150 31
0.116386 -0.011753 -0.187070 0.258940 0.387664 0.884684 160 176 240
0.124421 -0.233448 0.666846 0.218216 0.967795 -0.125521 155 250 111
-0.182782 0.083980 -0.258646 -0.984490 -0.153404 0.085122 1 107 138
-0.092241 -0.121382 -0.041457 -0.848341 0.292537 0.441293 19 164 183
-0.203353 -0.156982 -0.250491 -0.916350 0.357629 0.180010 10 173 150
0.156298 -0.237112 -0.637851 -0.091428 0.918794 0.384004 115 244 176
-0.008459 -0.176859 0.542244 0.758021 0.474530 -0.447465 224 188 70
0.507895 -0.016586 0.827798 -0.959996 -0.137584 0.243882 5 109 158
-0.159077 -0.193903 -0.728346 0.013609 0.430519 0.902479 129 182 242
-0.036944 -0.064385 0.020178 -0.829921 0.280056 0.482493 21 163 189
0.087553 0.246474 -0.627261 0.072045 -0.787142 -0.612549 136 27 49
0.098980 -0.214188 0.432802 -0.436705 0.761733 0.478593 71 224 188
0.207869 -0.011289 -0.799957 0.026759 0.177308 0.983792 130 150 252
-0.017277 0.244924 -0.644761 -0.020513 -0.938270 0.345296 124 7 171
0.273732 -0.261135 -0.551025 0.143674 0.989387 -0.021724 145 253 124
0.038276 -0.238884 -0.615766 0.035794 0.822966 -0.566962 132 232 55
0.118933 -0.165733 -0.745976 0.013609 0.430519 0.902479 129 182 242
0.245915 -0.152324 0.510061 -0.638337 0.566223 0.521457 46 199 193
0.282003 -0.126774 0.526494 -0.638337 0.566223 0.521457 46 199 193
0.037016 -0.066528 -0.046784 0.824839 0.304912 -0.476097 232 166 66
0.172656 0.096959 -0.787485 0.010000 -0.218051 0.975886 128 99 251
-0.362248 -0.123483 -0.038953 0.838950 0.334838 -0.429006 234 170 72
-0.087120 0.187749 0.050855 -0.751011 -0.462277 0.471468 31 68 187
0.247446 0.210978 -0.722047 -0.019736 -0.938835 0.343802 124 7 171
-0.165739 0.226403 0.178980 0.435116 -0.870610 -0.229592 182 16 98
-0.034742 0.223542 -0.612176 0.072045 -0.787142 -0.612549 136 27 49
0.311763 -0.201841 0.644187 -0.638365 0.564512 0.523275 46 199 194
0.063516 0.230338 -0.679740 -0.019736 -0.938835 0.343802 124 7 171
0.283497 -0.036947 0.493747 -0.723761 0.256069 0.640779 35 160 209
0.487298 0.193637 -0.237887 -0.687899 -0.724237 0.047709 39 35 133
-0.091547 -0.251816 -0.606796 -0.325597 0.939173 -0.109273 85 247 113
0.093033 0.106358 -0.489850 0.567450 -0.340900 -0.749525 199 84 31
-0.100412 -0.137993 -0.482485 -0.475246 0.310906 -0.823091 66 167 22
-0.182096 0.167888 -0.162378 -0.618452 -0.665159 0.418425 48 42 180
0.164031 -0.009231 -0.397189 0.970472 0.185795 -0.153832 251 151 107
0.027348 -0.052694 -0.058080 0.951139 0.275196 -0.140008 248 162 109
0.415276 0.237302 -0.415182 -0.422692 -0.903881 0.065801 73 12 135
0.521357 -0.102475 -0.074936 -0.872251 0.172421 -0.457657 16 149 69
0.209071 0.137410 -0.314204 0.894311 -0.446693 -0.025943 241 70 124
0.200010 -0.170143 0.473215 -0.638337 0.566223 0.521457 46 199 193
-0.035519 0.223630 0.269278 -0.386348 -0.914352 0.121228 78 10 142
0.104193 0.107872 -0.142933 0.271837 -0.407011 0.872036 162 75 238
-0.043866 -0.189631 0.169021 -0.600182 0.777936 0.186002 50 226 151
0.355762 -0.096664 -0.737937 -0.755480 0.148256 0.638178 31 146 208
-0.093013 0.178725 0.028694 -0.816855 -0.500477 0.286828 23 63 164
-0.061938 0.131122 0.034132 -0.816855 -0.500477 0.286828 23 63 164
0.545934 0.023662 -0.355375 -0.960100 -0.183512 0.211023 5 104 154
0.236247 0.137387 0.009004 0.252971 -0.538125 -0.804007 159 58 24
-0.002829 -0.232020 -0.681658 -0.010261 0.803247 0.595558 126 229 203
0.044638 -0.076692 0.674593 0.875056 0.178382 -0.449952 239 150 70
0.161217 -0.037243 0.893559 0.762000 0.159144 -0.627718 224 147 47
0.131530 -0.171375 0.394360 -0.436705 0.761733 0.478593 71 224 188
0.517643 -0.155849 -0.146011 -0.740426 0.615768 -0.269441 33 206 93
0.429483 -0.248931 -0.293350 -0.724504 0.684065 0.084550 35 214 138
-0.324453 0.220120 -0.149292 0.634581 -0.723237 -0.272462 208 35 92
-0.429699 0.064474 -0.588128 0.929891 -0.365487 0.041486 246 80 132
-0.361722 -0.190273 -0.656865 0.733213 0.269331 0.624387 220 161 207
0.039114 0.123402 -0.081902 0.755143 -0.399937 -0.519432 223 76 61
0.536681 -0.001599 -0.082183 -0.924957 0.094167 -0.368221 9 139 80
-0.346614 -0.217305 -0.626943 0.346471 0.872008 0.345774 171 238 171
-0.043178 0.166957 0.100463 -0.751011 -0.462277 0.471468 31 68 187
-0.390114 -0.155355 -0.401150 0.795917 0.605151 0.017591 228 204 129
-0.424299 0.075148 -0.615137 0.929891 -0.365487 0.041486 246 80 132
0.478738 -0.079626 0.770767 -0.898284 0.222965 0.378645 12 155 175
-0.063093 -0.216500 -0.547133 -0.329488 0.531075 -0.780639 85 195 27
0.040115 0.222444 0.374375 -0.370466 -0.870615 0.323704 80 16 168
0.156294 -0.040736 0.351403 -0.730150 0.236647 0.640998 34 157 209
0.282506 0.247092 -0.345977 0.234709 -0.968287 -0.085632 157 4 116
0.162116 0.066826 -0.417198 0.945084 -0.161551 -0.284109 247 106 91
-0.161200 0.053861 -0.389487 -0.914433 -0.345654 -0.210559 10 83 100
0.172254 -0.031053 -0.371669 0.970472 0.185795 -0.153832 251 151 107
0.232902 -0.219903 -0.150209 0.638056 0.765908 0.079186 208 225 137
-0.215630 -0.179526 -0.231869 -0.611156 0.789979 0.049209 49 228 133
0.101132 -0.139153 -0.126778 0.258940 0.387664 0.884684 160 176 240
-0.247701 -0.084377 -0.759598 0.219985 0.237326 0.946194 155 157 248
-0.234302 0.239574 -0.040486 -0.133130 -0.950409 0.281069 110 6 163
0.561231 -0.018420 -0.224346 -0.992970 0.070370 0.095178 0 136 139
-0.364255 -0.205946 -0.549163 0.879713 0.474922 -0.023541 239 188 124
0.396868 0.201229 0.777903 -0.795804 -0.595067 0.112207 26 51 141
-0.151801 0.005338 0.406974 0.821372 -0.186140 -0.539166 232 103 58
-0.169883 0.045902 -0.198411 -0.807598 -0.173916 0.563506 24 105 199
-0.305145 -0.219726 -0.274887 0.287571 0.956837 -0.042008 164 249 122
0.277693 0.127205 -0.776193 -0.421254 -0.258701 0.869263 73 94 238
-0.125839 -0.224938 0.278766 0.140801 0.950491 -0.277023 145 248 92
0.124473 0.140210 -0.777328 0.010000 -0.218051 0.975886 128 99 251
-0.272684 -0.215740 -0.070867 0.532457 0.843415 -0.071700 195 235 118
-0.320993 0.205263 -0.104001 0.626164 -0.695925 -0.351578 207 38 82
0.182735 0.089638 0.902492 0.605487 -0.199284 -0.770501 204 102 29
0.087876 0.131756 -0.778842 0.010000 -0.218051 0.975886 128 99 251
0.166524 -0.165505 0.427187 -0.638337 0.566223 0.521457 46 199 193
0.170844 0.163228 0.451285 -0.619490 -0.565352 0.544618 48 55 196
0.426575 -0.155327 0.764404 -0.634772 0.655223 0.409571 46 211 179
0.042795 0.175280 -0.557397 -0.194321 -0.413871 -0.889354 102 74 14
0.295611 0.260868 -0.597444 -0.488184 -0.847627 0.207857 65 19 154
-0.342074 -0.158676 -0.690193 0.386950 0.453935 0.802628 176 185 229
0.369264 0.005638 -0.738263 -0.723865 -0.122132 0.679046 35 111 214
0.133952 -0.014324 -0.198374 0.899712 0.312202 0.305039 242 167 166
0.311152 -0.192851 -0.022421 0.112311 0.858582 -0.500223 141 236 63
0.109978 0.171524 -0.096979 0.372755 -0.915921 -0.148802 175 10 108
-0.319011 0.011174 -0.753882 0.330567 0.079133 0.940459 169 137 247
0.519292 -0.156055 -0.271342 -0.859751 0.500682 0.100723 17 191 140
-0.004004 0.014212 0.613837 0.876418 -0.242576 -0.415991 239 96 74
-0.119206 0.085123 -0.112715 -0.837590 -0.189118 0.512520 20 103 192
-0.088673 0.202867 0.368860 0.719077 -0.498793 -0.483874 219 63 65
-0.213789 -0.238815 -0.504436 -0.166617 0.977620 -0.128445 106 252 111
-0.108443 -0.192143 -0.511422 -0.329488 0.531075 -0.780639 85 195 27
0.190334 0.063998 0.400314 -0.723245 -0.144232 0.675362 35 109 213
0.008570 0.042775 0.122267 -0.846745 -0.266413 0.460485 19 93 186
-0.270947 -0.228354 -0.237309 0.287571 0.956837 -0.042008 164 249 122
-0.147222 -0.002133 -0.400594 -0.917121 -0.025109 -0.397817 10 124 76
-0.197295 0.178586 -0.432978 -0.546278 -0.659556 -0.516301 57 43 61
0.406557 0.031027 0.058427 -0.182026 -0.117044 -0.976303 104 112 3
0.248916 -0.068205 0.467047 -0.730150 0.236647 0.640998 34 157 209
-0.445726 -0.004776 -0.223792 0.998402 -0.053311 -0.018772 254 120 125
-0.180741 -0.131192 -0.755580 0.221102 0.421409 0.879505 155 181 239
0.034747 -0.233879 -0.674526 -0.091428 0.918794 0.384004 115 244 176
-0.007053 -0.002917 0.069060 -0.893652 -0.065936 0.443890 13 119 184
-0.009377 0.226595 -0.694144 -0.019736 -0.938835 0.343802 124 7 171
0.085445 -0.131447 0.730364 0.867615 0.184118 -0.461893 238 150 68
-0.048907 0.183855 -0.546046 -0.143420 -0.448789 -0.882054 109 70 15
0.129960 0.012362 0.868191 0.762000 0.159144 -0.627718 224 147 47
0.214211 0.164412 -0.378899 0.685945 -0.669770 -0.284407 214 42 91
-0.104113 0.015433 0.469619 0.794072 -0.185021 -0.578980 228 103 53
0.372271 0.006282 0.962500 -0.086777 -0.058859 -0.994488 116 119 0
-0.244141 -0.144921 0.186977 0.749003 0.518800 -0.412118 222 193 74
-0.174534 0.027206 -0.265565 -0.984490 -0.153404 0.085122 1 107 138
-0.370602 -0.015499 0.003463 0.917498 -0.197150 -0.345440 244 102 83
0.446994 0.113779 0.020985 -0.658263 -0.127601 -0.741894 43 111 32
0.174801 -0.201901 0.482430 -0.436705 0.761733 0.478593 71 224 188
0.315779 -0.260966 -0.208944 0.228006 0.971504 -0.064755 156 251 119
0.262088 0.084300 0.486247 -0.724992 -0.266897 0.634942 35 93 208
0.263560 -0.208785 0.592873 -0.638365 0.564512 0.523275 46 199 194
-0.119606 -0.199235 -0.726397 0.013609 0.430519 0.902479 129 182 242
0.054158 -0.170980 0.651207 0.650334 0.603234 -0.461708 210 204 68
0.048267 -0.197371 0.331824 -0.621824 0.703497 0.344134 48 217 171
-0.003652 -0.206465 -0.565395 -0.329488 0.531075 -0.780639 85 195 27
0.212709 -0.084846 0.023692 0.418821 0.379927 -0.824769 180 175 22
0.334106 -0.081388 0.044818 -0.186905 0.243182 -0.951803 103 158 6
0.119555 0.224529 0.468463 -0.350779 -0.879968 0.320328 82 15 168
0.416106 0.105062 0.949271 -0.470956 -0.604985 -0.642023 67 50 45
-0.226671 -0.086825 -0.763874 0.219985 0.237326 0.946194 155 157 248
-0.340212 0.025583 0.060731 0.917498 -0.197150 -0.345440 244 102 83
-0.008387 0.040476 -0.792949 0.020628 -0.134252 0.990733 130 110 253
0.052913 0.152366 -0.771010 0.029173 -0.455058 0.889984 131 69 240
0.229853 -0.227331 -0.110989 0.384119 0.851300 -0.357408 176 236 81
-0.221348 -0.009923 0.293084 0.836804 0.175828 -0.518502 234 149 61
0.563856 0.024840 -0.228945 -0.992970 0.070370 0.095178 0 136 139
0.114289 -0.154643 -0.751438 0.020797 0.457342 0.889048 130 185 240
-0.439335 -0.054387 -0.248457 0.973933 0.225239 0.026871 251 156 130
0.184640 -0.057408 0.389846 -0.730150 0.236647 0.640998 34 157 209
0.247234 -0.077337 -0.786136 0.017388 0.220540 0.975223 129 155 251
-0.408408 -0.132518 -0.359049 0.795917 0.605151 0.017591 228 204 129
0.275181 0.248719 -0.384449 0.234709 -0.968287 -0.085632 157 4 116
-0.441519 0.056118 -0.396804 0.929891 -0.365487 0.041486 246 80 132
0.266448 -0.237086 -0.245403 0.610643 0.787621 0.082275 205 227 137
-0.076471 -0.025948 -0.465907 -0.594846 -0.038428 -0.802921 51 122 25
0.207187 -0.030846 0.405117 -0.723761 0.256069 0.640779 35 160 209
-0.037621 -0.042805 0.007218 -0.869882 -0.058160 0.489819 16 120 189
-0.117700 -0.237250 0.218818 0.087668 0.982822 -0.162403 138 252 106
0.012325 -0.071801 0.152620 -0.772592 0.303746 0.557530 28 166 198
0.228222 -0.170614 0.897412 0.195735 0.624903 -0.755768 152 207 31
0.372403 -0.172907 0.918429 0.049119 0.617163 -0.785301 133 206 27
0.202162 -0.144332 -0.375668 0.872867 0.397850 -0.282521 238 178 91
0.547319 -0.048262 -0.337378 -0.989934 0.093141 0.106560 1 139 141
0.368954 -0.260664 -0.103878 -0.466147 0.856726 -0.220743 68 236 99
0.446229 -0.199296 -0.048661 -0.540557 0.594034 -0.595752 58 203 51
-0.255989 -0.223343 -0.121021 -0.040505 0.998266 -0.042723 122 254 122
-0.128742 -0.006187 -0.144625 -0.918374 0.127424 0.374635 10 143 175
-0.046168 -0.006544 0.556113 0.794072 -0.185021 -0.578980 228 103 53
0.121389 0.225333 0.479561 -0.254951 -0.966625 0.025204 94 4 130
0.460099 -0.212246 -0.327802 -0.724504 0.684065 0.084550 35 214 138
0.291641 -0.205292 -0.690906 -0.050995 0.911869 0.407301 120 243 179
0.118045 -0.139092 -0.495992 0.629001 0.505796 -0.590363 207 191 52
-0.293274 0.106199 -0.744588 0.351515 -0.386121 0.852847 172 78 236
0.560125 0.011871 -0.162327 -0.988367 0.052170 -0.142863 1 134 109
0.285546 0.264165 -0.600687 0.022060 -0.915824 0.400973 130 10 178
0.135895 0.116118 0.844038 0.747836 -0.300857 -0.591799 222 89 52
0.325935 0.234979 -0.628535 -0.346300 -0.841940 0.413780 83 20 180
-0.417230 -0.120551 -0.371561 0.795917 0.605151 0.017591 228 204 129
-0.154351 -0.020030 -0.385458 -0.944615 0.295083 -0.143629 7 165 109
-0.005948 -0.007301 -0.498590 0.059014 0.018687 -0.998082 135 129 0
0.161527 -0.242059 -0.596107 0.409152 0.879074 -0.244589 179 239 96
0.399087 -0.262808 -0.259345 -0.189007 0.981345 -0.035192 103 252 123
0.434049 -0.223666 -0.448006 -0.767633 0.526605 0.365278 29 194 174
-0.330830 0.041701 0.076453 0.917498 -0.197150 -0.345440 244 102 83
-0.335846 -0.187085 -0.677127 0.386950 0.453935 0.802628 176 185 229
0.182101 0.204658 -0.496212 0.538577 -0.591532 -0.600021 196 52 50
0.456029 -0.225136 -0.261035 -0.702927 0.703685 0.103542 37 217 140
0.190298 -0.122362 -0.381384 0.872867 0.397850 -0.282521 238 178 91
0.273712 -0.021843 0.476660 -0.723761 0.256069 0.640779 35 160 209
0.295272 -0.249510 0.762586 0.129699 0.988454 -0.078344 144 253 117
-0.188877 -0.184663 -0.727915 0.221102 0.421409 0.879505 155 181 239
0.367481 -0.266159 -0.183043 -0.189007 0.981345 -0.035192 103 252 123
0.157635 -0.177370 0.429190 -0.638337 0.566223 0.521457 46 199 193
-0.277879 -0.051482 0.184664 0.888116 0.028590 -0.458729 240 131 69
0.167750 -0.058453 -0.788990 0.017388 0.220540 0.975223 129 155 251
0.386308 0.130095 0.935824 -0.100218 -0.577660 -0.810102 114 53 24
0.500000 0.003673 0.940290 -0.896327 0.286084 -0.338752 13 163 84
0.501822 0.117109 -0.436211 -0.900252 -0.296865 0.318462 12 89 168
0.219292 -0.162688 -0.348595 0.872867 0.397850 -0.282521 238 178 91
-0.403002 0.005335 -0.716214 0.573671 -0.404550 0.712208 200 75 218
-0.169462 0.081694 -0.399296 -0.914433 -0.345654 -0.210559 10 83 100
-0.148865 -0.113180 -0.149125 -0.806402 0.295315 0.512352 24 165 192
0.559286 0.062836 -0.137911 -0.988367 0.052170 -0.142863 1 134 109
0.106724 -0.152749 -0.519754 0.629001 0.505796 -0.590363 207 191 52
-0.162293 -0.124615 0.349372 0.710633 0.501003 -0.493961 218 191 64
0.333222 -0.089784 0.571026 -0.723761 0.256069 0.640779 35 160 209
0.339544 -0.076772 0.044930 -0.186905 0.243182 -0.951803 103 158 6
-0.069485 0.174329 0.065787 -0.751011 -0.462277 0.471468 31 68 187
0.487810 -0.171175 -0.099057 -0.740426 0.615768 -0.269441 33 206 93
0.315519 -0.119366 0.038765 -0.186905 0.243182 -0.951803 103 158 6
0.207292 -0.169687 -0.254941 0.897455 0.315628 0.308146 241 167 166
-0.362628 -0.199180 -0.625132 0.834918 0.528027 0.155237 233 194 147
0.162391 -0.018839 0.899650 0.762000 0.159144 -0.627718 224 147 47
-0.261676 0.044782 -0.773903 0.239710 -0.158609 0.957801 158 107 249
0.042218 0.226723 0.388289 -0.370466 -0.870615 0.323704 80 16 168
-0.201062 -0.106955 -0.761862 0.230894 0.412918 0.881015 156 180 239
0.043829 -0.122275 -0.079668 0.942640 0.248743 -0.222612 247 159 99
0.520318 -0.161379 -0.236122 -0.859751 0.500682 0.100723 17 191 140
-0.287057 0.233678 -0.321577 -0.139150 -0.990269 -0.001917 109 1 127
0.499856 -0.157957 -0.101953 -0.740426 0.615768 -0.269441 33 206 93
0.206476 0.068668 0.922937 0.478815 -0.226035 -0.848318 188 98 19
0.394103 0.122224 0.661105 -0.630135 -0.480985 0.609576 47 66 205
0.322361 0.245121 -0.598831 -0.488184 -0.847627 0.207857 65 19 154
-0.127291 0.192005 -0.744835 0.029173 -0.455058 0.889984 131 69 240
-0.118143 0.050784 -0.446644 -0.400210 -0.344191 -0.849331 76 83 19
-0.108572 0.062254 -0.103774 -0.837590 -0.189118 0.512520 20 103 192
0.156693 0.233566 0.552869 0.082581 -0.975624 0.203319 138 3 153
-0.024554 0.106735 0.085422 -0.927617 -0.280065 0.247165 9 91 159
0.319631 -0.010107 0.061644 0.189343 0.094269 -0.977375 151 139 2
0.295331 -0.263792 -0.497092 0.202205 0.977821 0.054576 153 252 134
-0.436729 -0.056513 -0.335318 0.944188 0.329382 0.004002 247 169 128
-0.098557 -0.142364 0.426195 0.758021 0.474530 -0.447465 224 188 70
0.167293 -0.028861 0.903059 0.762000 0.159144 -0.627718 224 147 47
-0.231727 0.037570 -0.782593 0.239710 -0.158609 0.957801 158 107 249
-0.004499 0.041371 -0.497593 0.059014 0.018687 -0.998082 135 129 0
-0.292794 -0.247384 -0.537021 0.261672 0.954245 -0.144725 160 249 109
-0.230355 0.079073 0.252584 0.855791 -0.201663 -0.476396 236 101 66
0.223689 -0.205853 -0.461430 0.512657 0.628965 -0.584453 192 207 52
0.097594 0.153961 0.736729 0.922209 -0.220154 -0.317903 245 99 86
-0.150123 -0.156505 -0.453786 -0.586648 0.609680 -0.533043 52 205 59
-0.028128 -0.097586 0.064641 -0.897463 0.335522 0.286329 13 170 164
-0.450540 -0.000132 -0.493048 0.998402 -0.053311 -0.018772 254 120 125
-0.447093 -0.016649 -0.262799 0.998402 -0.053311 -0.018772 254 120 125
-0.451052 0.012895 -0.563924 0.929891 -0.365487 0.041486 246 80 132
-0.118291 -0.110787 -0.465406 -0.431596 0.235354 -0.870823 72 157 16
-0.286375 -0.018049 0.170299 0.888116 0.028590 -0.458729 240 131 69
-0.207222 -0.113315 0.280821 0.836804 0.175828 -0.518502 234 149 61
0.183998 -0.048877 -0.296570 0.854657 -0.041963 0.517494 236 122 193
-0.062900 -0.023349 0.534002 0.800219 0.165773 -0.576340 229 148 54
-0.100613 -0.142407 0.422667 0.758021 0.474530 -0.447465 224 188 70
-0.173066 0.224753 -0.018395 -0.402039 -0.894939 0.193514 76 13 152
-0.230706 0.243492 -0.586197 0.068388 -0.994816 0.075265 136 0 137
-0.085734 -0.016941 -0.459476 -0.594846 -0.038428 -0.802921 51 122 25
-0.218452 -0.078569 0.274480 0.836804 0.175828 -0.518502 234 149 61
-0.117710 0.106159 -0.102507 -0.837590 -0.189118 0.512520 20 103 192
-0.078619 0.168983 0.045995 -0.751011 -0.462277 0.471468 31 68 187
-0.149742 0.095238 0.378554 0.828458 -0.212011 -0.518371 233 100 61
0.228664 0.210504 -0.724421 -0.019736 -0.938835 0.343802 124 7 171
-0.200691 0.132862 -0.769215 0.208011 -0.564740 0.798624 154 55 229
0.397779 0.158478 0.713266 -0.713929 -0.575478 0.398912 36 54 178
-0.043654 -0.247512 -0.633461 0.035794 0.822966 -0.566962 132 232 55
0.236258 0.257115 -0.568532 0.101349 -0.992662 -0.065965 140 0 119
-0.178016 -0.227028 0.185805 0.472429 0.847253 -0.242845 187 235 96
0.564889 0.056611 -0.178946 -0.988367 0.052170 -0.142863 1 134 109
-0.426323 -0.089519 -0.425618 0.973933 0.225239 0.026871 251 156 130
-0.346760 -0.222781 -0.422398 0.178605 0.978932 -0.098960 150 252 114
-0.015811 -0.181402 0.197301 -0.408171 0.875842 0.257485 75 239 160
-0.362818 0.193250 -0.170785 0.704851 -0.685138 -0.183768 217 40 104
0.308943 0.247260 -0.197780 0.329232 -0.943035 -0.047877 169 7 121
0.034338 -0.015133 -0.500085 -0.102308 0.121848 -0.987262 114 143 1
0.270143 0.259347 -0.610843 0.022060 -0.915824 0.400973 130 10 178
-0.221763 -0.203416 0.151000 0.707686 0.568968 -0.418875 217 200 74
0.250963 0.217705 -0.252671 0.894311 -0.446693 -0.025943 241 70 124
0.055656 0.117495 -0.523212 0.567450 -0.340900 -0.749525 199 84 31
0.414058 0.240207 -0.138839 -0.279893 -0.933146 -0.225608 91 8 98
0.415339 0.151880 0.738704 -0.761960 -0.542086 0.354345 30 58 172
-0.126804 0.148785 -0.101640 -0.837590 -0.189118 0.512520 20 103 192
0.160433 -0.147488 0.856324 0.663244 0.267054 -0.699135 212 161 38
0.311241 -0.192855 0.633856 -0.638365 0.564512 0.523275 46 199 194
-0.318247 -0.017671 0.108702 0.883825 0.028427 -0.466953 240 131 67
0.038106 -0.121446 -0.766733 0.020797 0.457342 0.889048 130 185 240
-0.189624 0.236831 0.099801 0.427244 -0.840807 -0.332424 181 20 85
-0.166960 0.241964 0.096537 -0.385154 -0.911299 0.145568 78 11 146
0.514907 -0.170346 -0.233690 -0.702927 0.703685 0.103542 37 217 140
0.076162 0.233296 0.513544 0.081942 -0.996423 -0.020673 137 0 124
0.436616 0.119867 -0.601721 -0.934451 -0.175820 0.309659 8 105 166
0.077753 -0.151103 -0.752405 0.020797 0.457342 0.889048 130 185 240
0.416864 0.235929 -0.423835 -0.422692 -0.903881 0.065801 73 12 135
0.440554 -0.166217 -0.540263 -0.817299 0.524715 0.238112 23 194 157
0.509656 0.028126 0.859952 -0.959996 -0.137584 0.243882 5 109 158
-0.449964 -0.004640 -0.449606 0.998402 -0.053311 -0.018772 254 120 125
0.420712 -0.249071 -0.367370 -0.724504 0.684065 0.084550 35 214 138
0.444340 -0.202587 -0.456768 -0.767633 0.526605 0.365278 29 194 174
-0.154539 -0.066322 -0.185063 -0.806402 0.295315 0.512352 24 165 192
0.400542 0.236387 -0.470337 -0.449851 -0.879692 0.154195 70 15 147
0.235385 0.131637 0.491906 -0.619490 -0.565352 0.544618 48 55 196
0.004552 -0.236770 -0.614826 0.035794 0.822966 -0.566962 132 232 55
-0.442265 0.035346 -0.563082 0.929891 -0.365487 0.041486 246 80 132
0.340229 -0.141815 0.938390 -0.074838 0.454964 -0.887359 117 185 14
0.423207 -0.182063 0.885958 -0.692836 0.714183 -0.099607 39 218 114
0.174943 0.140445 -0.417164 0.685945 -0.669770 -0.284407 214 42 91
0.272655 -0.231852 -0.348463 0.470375 0.859854 -0.198490 187 237 102
0.320300 0.235956 0.720336 -0.491978 -0.848375 0.195496 64 19 152
-0.208180 0.158062 -0.274768 -0.915492 -0.343777 0.209026 10 83 154
-0.414810 -0.121126 -0.461284 0.795917 0.605151 0.017591 228 204 129
-0.433001 0.101995 -0.204224 0.944651 -0.324936 0.045285 247 86 133
0.261056 0.253104 0.698173 0.118066 -0.985657 -0.120582 142 1 112
