ply
format ascii 1.0
element vertex 512
property float x
property float y
property float z
property float nx
property float ny
property float nz
property uchar red
property uchar green
property uchar blue
end_header
-0.841086 -0.771395 -1.580448 -0.855482 -0.517821 0.003481 18 61 127
-0.515791 -1.589221 -0.216239 -0.481506 0.440879 -0.757481 66 183 30
-0.871546 -1.527618 -1.077112 -0.883886 0.268996 -0.382605 14 161 78
0.072810 0.197579 -0.150759 -0.529654 -0.618289 0.580676 59 48 201
-1.999659 -0.841422 -2.822751 0.420765 -0.765205 -0.487256 181 29 65
-0.804027 -0.432785 -0.776941 -0.344726 -0.833093 -0.432575 83 21 72
0.351632 0.028328 0.323691 -0.994402 -0.061906 -0.085629 0 119 116
0.007298 -0.024123 0.959901 -0.064530 -0.107632 -0.992094 119 113 1
-1.007547 -1.282190 -2.034760 -0.997820 0.065415 -0.008694 0 135 126
-0.322336 0.045266 0.850675 0.887506 -0.266066 -0.376220 240 93 79
0.064768 -0.188749 0.086257 0.654415 0.558173 -0.510082 210 198 62
-0.258573 -0.223702 0.713549 0.593985 0.801089 -0.073749 203 229 118
-0.323383 0.079360 0.654368 0.992479 -0.069882 0.100506 254 118 140
-1.327822 -0.747387 -1.111938 0.547816 -0.321434 -0.772384 197 86 29
-0.665532 -0.375625 -0.397960 -0.448446 -0.864055 -0.228702 70 17 98
-1.192567 -0.729165 -1.084134 0.247515 -0.733784 -0.632690 159 33 46
0.177028 0.183538 0.847057 -0.449437 -0.680173 -0.579113 70 40 53
0.053574 -0.202247 0.888664 0.004006 0.622465 -0.782638 128 206 27
-0.072617 0.000705 -0.013301 0.617381 -0.099000 -0.780410 206 114 27
0.115595 -0.165972 0.242765 0.504358 0.788593 -0.351774 191 228 82
-1.647835 -0.653824 -1.721097 0.441068 -0.720786 -0.534721 183 35 59
0.026071 -0.137978 0.066091 0.835812 0.280142 -0.472164 234 163 67
0.087439 -0.015291 0.389653 0.991169 0.108177 0.076694 253 141 137
-0.575304 -0.878696 -1.597386 -0.873405 -0.486910 -0.009075 16 65 126
0.208351 -0.236069 0.301592 -0.070060 0.997249 -0.024203 118 254 124
-0.250826 -0.746705 -0.367794 -0.592401 -0.792884 -0.142813 51 26 109
-1.071683 -1.598997 -1.265858 -0.862904 0.474097 -0.175012 17 187 105
-1.152788 -1.230937 -0.632155 0.275489 -0.175421 -0.945163 162 105 6
-0.477913 -1.533846 -0.712500 -0.947729 0.251490 -0.196375 6 159 102
-1.044159 -1.249704 -0.690659 -0.007207 0.221387 -0.975159 126 155 3
-1.119235 -1.553758 -1.446225 -0.524866 0.540974 -0.657162 60 196 43
-0.847165 -0.729138 -1.522345 -0.823331 -0.566990 -0.025480 22 55 124
-0.141140 0.142009 0.929085 -0.052248 -0.510494 -0.858293 120 62 18
-1.562528 -0.636877 -1.781494 0.232244 -0.850088 -0.472666 157 19 67
-0.293505 -0.077129 0.902947 0.864118 0.191199 -0.465558 237 151 68
0.148334 -0.231450 0.691052 -0.023492 0.916900 0.398424 124 244 178
-0.086240 -0.077152 -0.035063 0.702443 0.122381 -0.701139 217 143 38
-0.236546 -0.009233 0.961617 0.436215 -0.315814 -0.842602 183 87 20
0.004306 -0.085952 0.058430 0.835812 0.280142 -0.472164 234 163 67
-1.392774 -0.954889 -1.330744 0.585472 -0.131075 -0.800026 202 110 25
0.028293 0.264525 0.803860 0.005976 -0.997372 -0.072205 128 0 118
-0.119862 -0.265439 0.738790 -0.077398 0.962643 0.259478 117 250 160
-1.630863 -0.833925 -1.866178 0.567731 -0.088674 -0.818424 199 116 23
0.263494 0.172037 0.774356 -0.871448 -0.325214 -0.367172 16 86 80
0.304463 0.006543 0.769622 -0.964872 -0.044074 -0.258997 4 121 94
-0.863231 -0.391819 -0.939776 -0.199596 -0.935546 -0.291403 102 8 90
0.301356 -0.161757 0.620249 -0.918650 0.391826 -0.050540 10 177 121
0.198284 -0.235468 0.355494 -0.070060 0.997249 -0.024203 118 254 124
-0.714055 -1.631213 -1.108832 -0.497973 0.663063 -0.558901 64 212 56
0.165285 -0.149526 0.902820 -0.446910 0.664548 -0.598872 70 212 51
0.105383 -0.218333 -0.097050 -0.400466 0.841228 0.363267 76 234 173
0.110168 0.248183 0.807477 -0.394821 -0.781396 -0.483256 77 27 65
0.115730 -0.171552 0.599932 0.470715 0.749347 0.465731 187 223 186
0.095549 0.047382 0.327426 0.961963 -0.268644 0.049582 250 93 133
0.211457 0.235943 0.083831 -0.182533 -0.977791 -0.102984 104 2 114
-0.566962 -1.464681 -1.134126 -0.905556 0.362462 -0.220433 12 173 99
-0.643686 -0.660920 -1.027630 -0.647277 -0.733521 -0.207315 44 33 101
-1.492720 -1.096549 -1.631602 0.478454 -0.616391 -0.625414 188 48 47
-0.652558 -0.434486 -0.573525 -0.458545 -0.858072 -0.231192 69 18 98
-1.288373 -1.501112 -1.043502 0.372451 -0.013727 -0.927951 174 125 9
0.058932 0.098537 0.626910 0.710112 -0.158064 0.686117 218 107 214
-0.806731 -1.543744 -1.206121 -0.957433 0.270357 -0.101139 5 161 114
0.120353 0.219576 0.117483 0.604244 -0.694752 -0.390140 204 38 77
0.054307 0.122408 0.637196 0.710112 -0.158064 0.686117 218 107 214
-0.133469 -0.153250 0.926676 0.004006 0.622465 -0.782638 128 206 27
-0.020791 0.038406 0.022916 0.617381 -0.099000 -0.780410 206 114 27
-0.088242 -0.635517 -0.225571 -0.787815 -0.615723 -0.015265 27 48 125
-1.230434 -1.338769 -2.024257 -0.981584 0.159324 -0.105399 2 147 114
0.164177 0.232444 0.655675 0.227430 -0.954376 0.193498 156 5 152
-0.487539 -0.466051 -0.402135 -0.458635 -0.868625 -0.187468 69 16 103
0.357225 0.024825 0.261268 -0.994402 -0.061906 -0.085629 0 119 116
-1.071381 -1.426361 -0.554258 -0.144706 0.400635 -0.904738 109 178 12
-0.297958 0.077656 0.580792 0.791532 -0.080112 0.605855 228 117 204
-0.874086 -1.667823 -1.052759 -0.512148 0.564612 -0.647239 62 199 44
0.161232 0.133786 0.899132 -0.379500 -0.548703 -0.744920 79 57 32
-1.332378 -1.225271 -0.854585 -0.052227 0.264761 -0.962899 120 161 4
-1.390730 -1.489194 -1.927998 -0.359211 0.659325 -0.660498 81 211 43
0.362409 0.017913 0.206064 -0.994402 -0.061906 -0.085629 0 119 116
-0.791269 -0.706952 -1.463925 -0.743359 -0.668002 0.034504 32 42 131
-0.155390 0.063911 0.562189 -0.120358 -0.235845 0.964309 112 97 250
-0.201426 -0.091431 -0.129286 0.600927 0.288269 -0.745512 204 164 32
-0.504120 -1.098553 -1.021055 -0.949153 -0.313512 -0.028601 6 87 123
0.332762 0.098176 0.371513 -0.948094 -0.313449 -0.053545 6 87 120
0.111258 0.199443 0.650888 0.357743 -0.723634 0.590232 173 35 202
-0.877311 -0.578416 -0.843609 -0.058834 -0.860235 -0.506492 119 17 62
-0.844597 -1.490366 -0.422758 -0.370989 0.330296 -0.867913 80 169 16
-0.615976 -0.590736 -0.175335 -0.224504 -0.716915 -0.660023 98 36 43
-1.207767 -0.560028 -1.338580 -0.422358 -0.897768 -0.125008 73 13 111
-1.382249 -0.902835 -1.259864 0.356555 -0.678527 -0.642238 172 40 45
-1.412783 -1.245643 -1.954293 0.326079 0.292676 -0.898896 169 164 12
-0.326343 -0.083862 0.612769 0.987580 0.143380 0.064252 253 145 135
-1.172253 -0.631253 -1.973912 -0.693988 -0.718537 -0.045663 39 35 121
0.060493 -0.212035 0.695286 0.339022 0.715680 0.610627 170 218 205
-0.026919 -0.176253 0.657852 -0.038337 0.709882 0.703276 122 218 217
-1.182677 -1.509877 -1.566194 -0.562927 0.584914 -0.583943 55 202 53
-1.195859 -1.573683 -1.415526 0.108005 0.367040 -0.923914 141 174 9
0.285146 0.198606 0.166522 -0.799634 -0.596645 -0.067818 25 51 118
-0.842210 -0.494837 -0.701582 -0.447020 -0.848475 -0.283309 70 19 91
0.161737 0.213691 0.202594 0.752605 -0.655931 -0.057802 223 43 120
-1.206390 -0.490076 -1.481796 -0.109490 -0.939571 -0.324375 113 7 86
-0.229105 -0.032539 -0.147179 0.738107 0.110289 -0.665608 221 141 42
-1.226593 -0.655972 -2.025057 -0.673256 -0.738838 -0.029072 41 33 123
-1.126764 -0.524694 -1.388885 -0.569696 -0.816671 -0.092169 54 23 115
-1.423368 -1.359610 -1.703706 0.090803 0.495267 -0.863982 139 190 17
0.194855 -0.026780 -0.127151 -0.750684 0.114395 0.650682 31 142 210
0.359316 0.039543 0.226346 -0.994402 -0.061906 -0.085629 0 119 116
-1.126348 -1.330332 -0.723513 0.247345 -0.035838 -0.968264 159 122 4
0.106266 -0.161623 0.569512 0.965580 0.259002 0.023929 250 160 130
0.007910 0.138800 0.032886 0.617381 -0.099000 -0.780410 206 114 27
-0.977462 -0.529703 -0.726751 0.047571 -0.870285 -0.490246 133 16 64
0.216976 -0.236170 0.076709 -0.187315 0.982283 -0.005742 103 252 126
0.104664 0.010011 0.949270 -0.071559 -0.123295 -0.989787 118 111 1
-0.553244 -1.136658 -1.070126 -0.963629 -0.260957 -0.057627 4 94 120
-1.443109 -1.093592 -1.087922 0.450015 -0.150012 -0.880331 184 108 15
0.315139 -0.073081 0.743401 -0.964872 -0.044074 -0.258997 4 121 94
-1.104468 -0.998062 -0.235109 0.332343 -0.213692 -0.918632 169 100 10
-0.869586 -1.608312 -0.456925 -0.503501 0.519513 -0.690357 63 193 39
-1.541842 -0.771712 -1.533867 0.417238 -0.765193 -0.490298 180 29 64
0.346677 0.090775 0.168445 -0.948094 -0.313449 -0.053545 6 87 120
-0.315008 0.081049 0.603516 0.791532 -0.080112 0.605855 228 117 204
0.318579 0.070804 0.676826 -0.994402 -0.061906 -0.085629 0 119 116
-0.748071 -0.758193 0.119849 -0.071825 -0.110125 -0.991319 118 113 1
-0.914409 -1.473194 -1.493916 -0.912275 0.385180 -0.139250 11 176 109
-0.032507 0.228302 -0.109904 -0.129206 -0.989118 0.070371 111 1 136
-1.503192 -1.303190 -1.985784 0.632094 -0.066747 -0.772011 208 118 29
-0.352313 -1.143941 -1.036301 -0.934085 0.351434 -0.063080 8 172 119
0.159398 -0.203130 0.527114 0.608828 0.793069 0.019254 205 228 129
-1.586542 -1.026867 -2.467444 -0.950626 0.143288 0.275278 6 145 162
0.074746 -0.130557 0.160445 0.923682 0.126696 -0.361607 245 143 81
-0.030489 0.018876 0.017721 0.617381 -0.099000 -0.780410 206 114 27
-0.817139 -0.573160 -1.325518 -0.516110 -0.849178 -0.111924 61 19 113
-0.160792 -1.397657 -0.317436 -0.991879 -0.113827 -0.056744 1 112 120
-1.570428 -0.807867 -1.274350 0.354606 -0.534174 -0.767406 172 59 29
-1.471037 -1.061372 -0.988394 0.357386 -0.205137 -0.911150 173 101 11
0.106222 0.123156 0.562153 0.988485 -0.151308 0.001603 253 108 127
0.248322 -0.105390 0.874179 -0.866917 0.329071 -0.374389 16 169 79
-0.836466 -0.617215 -1.217254 -0.587739 -0.794762 -0.151380 52 26 108
-0.666541 -0.402644 -0.371164 -0.129652 -0.782866 -0.608533 110 27 49
0.308781 -0.175000 0.288852 -0.818202 0.574926 -0.002202 23 200 127
-0.940035 -1.429552 -1.467669 -0.973948 0.163354 -0.157291 3 148 107
0.064017 -0.061537 0.594714 0.891201 0.095049 0.443539 241 139 184
0.359762 0.050257 0.173943 -0.948094 -0.313449 -0.053545 6 87 120
0.042404 -0.192562 0.053394 0.654415 0.558173 -0.510082 210 198 62
-0.753685 -0.529090 -1.124113 -0.590221 -0.780654 -0.205471 52 27 101
0.164749 -0.210135 0.233534 0.689891 0.723837 -0.010539 215 219 126
-0.593287 -0.550110 -0.636327 -0.454886 -0.846354 -0.277063 69 19 92
-0.051499 0.075709 -0.006109 0.617381 -0.099000 -0.780410 206 114 27
-0.754328 -1.604576 -0.795531 -0.917207 0.281336 -0.282101 10 163 91
-0.900238 -1.506032 -1.297959 -0.891805 0.406984 -0.197607 13 179 102
-1.554678 -0.514589 -1.933719 -0.221814 -0.974293 -0.039397 99 3 122
-1.184032 -1.080266 -0.399271 0.197207 -0.576097 -0.793235 152 54 26
-0.325736 -0.715487 -0.405609 -0.546150 -0.823474 -0.153658 57 22 107
-0.315259 0.035898 0.873997 0.887506 -0.266066 -0.376220 240 93 79
-1.597938 -1.371889 -1.767407 0.507640 -0.594260 -0.623824 192 51 47
-0.156939 0.253135 0.770662 0.488245 -0.856088 -0.169499 189 18 105
0.352892 -0.053310 0.378624 -0.991474 -0.092469 -0.091811 1 115 115
0.097123 0.062910 0.486394 0.988485 -0.151308 0.001603 253 108 127
-0.313815 0.090905 0.802038 0.884708 -0.464321 -0.041201 240 68 122
-1.373062 -1.293518 -0.801939 0.135947 -0.119363 -0.983499 144 112 2
-0.206708 0.131919 -0.160115 0.656969 -0.456416 -0.600064 211 69 50
-0.142556 0.180638 0.613365 -0.281194 -0.447668 0.848837 91 70 235
-0.562689 -1.543577 -0.186681 -0.455437 0.458576 -0.763076 69 185 30
-1.520783 -1.231842 -1.327993 0.583061 -0.171526 -0.794115 201 105 26
0.063962 0.004136 0.598098 0.736085 -0.178540 0.652919 221 104 210
0.096528 -0.046618 0.316375 0.991169 0.108177 0.076694 253 141 137
-1.170059 -0.660561 -0.594115 0.131510 -0.751713 -0.646245 144 31 45
-0.646432 -0.490019 -0.089849 -0.212033 -0.718054 -0.662903 100 35 42
-1.294044 -1.481840 -2.054761 -0.868373 0.399028 -0.294459 16 178 89
0.027120 -0.182671 0.667276 -0.038337 0.709882 0.703276 122 218 217
-0.170764 -0.079234 0.560566 -0.291043 0.314020 0.903706 90 167 242
-0.128967 0.237456 0.679718 -0.261493 -0.786676 0.559252 94 27 198
0.069042 -0.230039 0.711640 0.339022 0.715680 0.610627 170 218 205
-0.728875 -1.098620 0.245667 -0.139943 -0.444043 -0.885009 109 70 14
-0.725272 -1.142188 -1.381191 -0.979783 -0.199084 0.019764 2 102 130
-1.788155 -0.897095 -2.585479 -0.778977 -0.495823 0.383867 28 64 176
0.208361 0.232158 0.604014 0.663341 -0.748013 -0.021333 212 32 124
-0.398970 -1.035954 -0.833330 -0.999229 -0.018954 -0.034380 0 125 123
0.009081 0.017497 0.955248 -0.071559 -0.123295 -0.989787 118 111 1
0.338471 -0.103809 0.387407 -0.945515 0.322043 -0.047860 6 168 121
-0.829514 -1.650828 -1.052443 -0.874902 0.418754 -0.243291 15 180 96
0.339704 0.065046 0.057155 -0.910890 -0.122424 0.394070 11 111 177
0.216626 0.202232 0.794370 -0.449437 -0.680173 -0.579113 70 40 53
-0.491404 -0.633071 -1.047960 -0.830932 -0.551945 -0.070058 21 57 118
-0.329723 0.064591 0.756990 0.884708 -0.464321 -0.041201 240 68 122
-1.372847 -1.586748 -1.800299 -0.421802 0.729329 -0.538667 73 220 58
-0.460759 -1.477547 0.299169 -0.221643 -0.199120 -0.954581 99 102 5
-0.840990 -0.382453 -0.816672 -0.093212 -0.788309 -0.608178 115 26 49
-1.532406 -1.212787 -0.875410 0.298878 -0.204018 -0.932228 165 101 8
-1.355195 -1.279717 -1.055545 0.253552 0.003449 -0.967316 159 127 4
-1.065708 -0.810654 -0.524630 0.211209 -0.632645 -0.745085 154 46 32
-1.105823 -1.018537 -0.585422 0.242474 -0.518465 -0.820001 158 61 22
-1.367665 -1.497849 -1.947798 -0.479940 0.670346 -0.565945 66 212 55
-0.302368 -0.158223 0.778775 0.840300 0.515114 -0.168977 234 193 105
-0.797493 -1.429366 -1.472344 -0.983291 0.133509 -0.123747 2 144 111
-1.110254 -0.891423 -0.711797 0.261898 -0.273113 -0.925645 160 92 9
-0.288188 -1.120081 -0.787967 -0.972152 -0.231315 -0.037604 3 98 122
0.293966 -0.196176 0.264732 -0.818202 0.574926 -0.002202 23 200 127
-1.443552 -0.611889 -1.098786 0.238472 -0.736814 -0.632643 157 33 46
-0.438687 -0.984983 -0.886223 -0.958792 -0.276435 -0.065588 5 92 119
-0.880338 -1.418036 -0.837357 -0.469192 0.589755 -0.657304 67 202 43
0.076868 -0.264915 0.781945 -0.030744 0.967918 0.249377 123 250 159
0.156290 -0.160912 0.896898 -0.446910 0.664548 -0.598872 70 212 51
0.074115 -0.039593 0.190704 0.923682 0.126696 -0.361607 245 143 81
0.068334 0.257534 0.762270 -0.089159 -0.979609 0.180049 116 2 150
-0.111740 0.213765 0.882295 -0.027182 -0.828508 -0.559318 124 21 56
-0.760687 -0.858200 -1.578776 -0.861729 -0.507061 0.017662 17 62 129
0.110005 -0.227051 0.083984 0.121241 0.981201 -0.150151 142 252 108
0.168207 0.218427 0.233086 0.752605 -0.655931 -0.057802 223 43 120
-0.165848 -0.826163 -0.382991 -0.883945 -0.457814 0.095117 14 69 139
-0.675650 -1.596139 -0.173583 -0.442895 0.518782 -0.731238 71 193 34
-1.258315 -0.470870 -0.766063 -0.113685 -0.850755 -0.513119 113 19 62
-0.150682 0.039904 -0.082344 0.625312 -0.145399 -0.766710 207 108 29
-0.159287 0.152252 -0.126378 0.622735 -0.472817 -0.623415 206 67 48
-0.178772 -0.030683 -0.091868 0.625312 -0.145399 -0.766710 207 108 29
-0.977026 -1.506127 -1.358584 -0.972297 0.208467 -0.105734 3 154 114
-0.275531 -1.482137 0.169227 -0.273025 -0.219594 -0.936609 92 99 8
-0.091716 0.007541 0.962906 -0.064530 -0.107632 -0.992094 119 113 1
-0.265706 -0.146754 0.881563 0.602153 0.619945 -0.503070 204 206 63
-0.810248 -0.781481 -0.057824 -0.017429 -0.530661 -0.847405 125 59 19
0.325916 0.072315 0.590529 -0.994402 -0.061906 -0.085629 0 119 116
-1.377202 -0.943531 -1.064109 0.552783 -0.297573 -0.778384 197 89 28
-0.659509 -1.443983 -1.276189 -0.987262 0.121456 -0.102773 1 142 114
-1.189641 -1.328314 -0.883620 0.417479 -0.042403 -0.907697 180 122 11
-1.043098 -1.475158 -1.576866 -0.882544 0.367389 -0.293501 14 174 90
-0.445920 -0.694784 -0.488825 -0.569327 -0.810051 -0.140303 54 24 109
-0.435446 -0.561627 -0.620157 -0.574917 -0.809623 -0.118242 54 24 112
-0.854933 -0.705963 -0.583530 0.156401 -0.563242 -0.811355 147 55 24
-1.384777 -1.146837 -0.832843 0.258584 -0.128618 -0.957388 160 111 5
-0.650947 -1.568462 -0.196053 -0.476483 0.481292 -0.735745 66 188 33
-0.016876 -0.202521 -0.037945 0.598670 0.656781 -0.458511 203 211 69
-0.879014 -0.543227 -0.563002 0.065791 -0.845551 -0.529826 135 19 59
-0.131889 -0.264005 0.811833 0.367107 0.857583 -0.360255 174 236 81
-0.640710 -0.598854 0.010257 -0.212243 -0.718452 -0.662404 100 35 43
-0.928341 -0.611119 -0.620142 0.046490 -0.865116 -0.499413 133 17 63
-1.325849 -1.578257 -1.879048 -0.869361 0.357922 -0.340740 16 173 84
-1.159123 -1.014779 -2.141039 -0.932702 -0.347624 0.096047 8 83 139
-0.658599 -0.541664 -1.123536 -0.606748 -0.791722 -0.070950 50 26 118
0.134044 -0.180157 0.382573 0.608828 0.793069 0.019254 205 228 129
0.068862 0.226702 -0.049925 -0.245673 -0.952663 0.179105 96 6 150
0.113756 0.203384 0.136100 0.604244 -0.694752 -0.390140 204 38 77
0.278631 -0.183863 0.037187 -0.672854 0.436513 0.597263 41 183 203
-0.794661 -0.975398 -0.010045 0.004283 -0.687427 -0.726241 128 39 34
0.151766 0.029472 0.933009 -0.385378 -0.037918 -0.921980 78 122 9
-0.876108 -1.677490 -1.207738 -0.490134 0.584398 -0.646721 65 202 45
-0.998415 -1.631868 -1.126778 -0.884564 0.380594 -0.269621 14 176 93
-1.451190 -0.738000 -1.133838 0.223398 -0.733784 -0.641603 155 33 45
-0.622460 -1.575627 -0.756255 -0.920441 0.314241 -0.232466 10 167 97
-0.126510 -0.823883 -0.382673 -0.857388 -0.498855 -0.126608 18 63 111
-1.406554 -0.572159 -1.276496 0.257906 -0.744905 -0.615306 160 32 49
-0.909633 -1.608530 -0.901086 -0.544483 0.540000 -0.641825 58 196 45
0.044585 0.189688 0.889420 -0.056796 -0.503201 -0.862301 120 63 17
0.042445 -0.236921 -0.049416 0.081925 0.994257 -0.068855 137 254 118
-0.295585 0.093905 0.879384 0.887506 -0.266066 -0.376220 240 93 79
-1.814969 -0.959851 -2.084369 0.610317 -0.473963 -0.634722 205 67 46
-1.272483 -1.449349 -1.035081 0.108390 0.309910 -0.944567 141 167 7
-1.605496 -0.596273 -1.276111 0.447969 -0.729838 -0.516392 184 34 61
-1.398423 -1.491420 -1.733837 -0.804343 0.574962 -0.149839 24 200 108
-1.528592 -0.422063 -1.846451 -0.136048 -0.932173 -0.335477 110 8 84
-0.176481 -1.065894 -0.309996 -0.912187 -0.305059 -0.273593 11 88 92
-0.203740 -0.860748 -0.632954 -0.834742 -0.549019 -0.042241 21 57 122
-1.563794 -1.384527 -1.695492 0.589335 -0.166226 -0.790603 202 106 26
-1.081333 -1.571189 -0.862216 0.051419 0.325527 -0.944133 134 169 7
0.062346 0.200521 0.047115 0.603743 -0.733472 -0.312271 204 33 87
-1.298473 -1.369310 -2.023079 -0.978219 0.197645 -0.063436 2 152 119
0.141735 0.185185 0.265638 0.752605 -0.655931 -0.057802 223 43 120
-0.241109 -0.549149 -0.149073 -0.637512 -0.734852 -0.231455 46 33 97
-0.913885 -0.511320 -1.318453 -0.613900 -0.774216 -0.154000 49 28 107
0.125804 -0.172322 0.281225 0.689891 0.723837 -0.010539 215 219 126
-0.549438 -0.839323 -0.921406 -0.912492 -0.408417 -0.023537 11 75 124
0.016754 0.256739 0.817016 -0.004715 -0.791242 -0.611485 126 26 49
0.079237 -0.226187 -0.105360 -0.335424 0.883328 0.327450 84 240 169
-0.796916 -1.669326 -1.021729 -0.513541 0.590776 -0.622301 62 202 48
0.339349 0.028047 0.466536 -0.994402 -0.061906 -0.085629 0 119 116
-0.224169 -0.920230 -0.405493 -0.908365 -0.417261 0.027693 11 74 131
0.089652 -0.091598 0.482003 0.965580 0.259002 0.023929 250 160 130
0.116885 0.137814 0.403453 0.961963 -0.268644 0.049582 250 93 133
0.101395 0.247591 0.815602 -0.394821 -0.781396 -0.483256 77 27 65
-1.165947 -0.526925 -0.959157 0.078247 -0.860514 -0.503381 137 17 63
-0.151476 -0.003861 0.968030 -0.064530 -0.107632 -0.992094 119 113 1
0.340656 -0.047787 0.506176 -0.994402 -0.061906 -0.085629 0 119 116
-0.827475 -0.512810 -1.330900 -0.618290 -0.767394 -0.169774 48 29 105
-1.316378 -1.384258 -1.243208 0.278343 0.038052 -0.959728 162 132 5
-0.986389 -1.297828 -0.192049 0.155526 -0.070188 -0.985335 147 118 1
-1.640243 -0.818521 -1.673871 -0.021392 -0.936588 -0.349778 124 8 82
-0.156831 -0.250450 0.682935 -0.337588 0.679872 0.651006 84 214 210
-1.085610 -1.462174 -0.698427 0.022230 0.361418 -0.932139 130 173 8
-1.107878 -1.314420 -2.086040 -0.991401 -0.130855 0.000809 1 110 127
-0.033051 0.150760 0.917250 -0.056796 -0.503201 -0.862301 120 63 17
-1.305242 -0.453145 -1.551119 -0.146368 -0.922092 -0.358221 108 9 81
0.222238 -0.238395 0.693029 -0.124571 0.978482 0.164485 111 252 148
-0.659773 -0.613718 0.063549 -0.001774 -0.512492 -0.858690 127 62 18
-1.439073 -0.840084 -1.474174 0.549187 -0.332510 -0.766701 197 85 29
-0.327925 -0.068409 0.602603 0.987580 0.143380 0.064252 253 145 135
0.318324 0.097533 0.630919 -0.948094 -0.313449 -0.053545 6 87 120
-1.011918 -0.442193 -1.178031 -0.139947 -0.937750 -0.317867 109 7 86
-0.838225 -1.568526 -0.477263 -0.483410 0.536165 -0.691984 65 195 39
0.204494 -0.235700 0.327942 -0.070060 0.997249 -0.024203 118 254 124
-1.483055 -0.923136 -1.631684 0.587173 -0.147591 -0.795893 202 108 26
0.335933 -0.118157 0.329781 -0.918650 0.391826 -0.050540 10 177 121
0.220270 0.076360 0.896830 -0.480981 -0.331102 -0.811806 66 85 23
-0.128856 -0.260183 0.716610 -0.077398 0.962643 0.259478 117 250 160
0.188082 -0.232356 0.234777 0.689891 0.723837 -0.010539 215 219 126
-0.825670 -0.438536 -0.950864 -0.483528 -0.850219 -0.208155 65 19 100
-0.204234 0.113413 0.933587 0.322293 -0.468435 -0.822616 168 67 22
-0.810055 -0.576632 -0.846464 -0.577371 -0.804083 -0.141751 53 24 109
-0.074392 -0.204093 0.677272 -0.337588 0.679872 0.651006 84 214 210
-0.195368 0.101364 -0.129978 0.753958 -0.266216 -0.600564 223 93 50
-0.490948 -1.381462 -0.659859 -0.928116 0.282007 -0.243049 9 163 96
0.094821 0.039156 0.296982 0.961963 -0.268644 0.049582 250 93 133
0.092180 0.030606 0.485196 0.988485 -0.151308 0.001603 253 108 127
0.275377 0.003987 0.858690 -0.895583 -0.210142 -0.392137 13 100 77
-0.468609 -0.992982 -1.137280 -0.958995 -0.283406 -0.003107 5 91 127
0.201084 0.236462 0.097293 -0.182533 -0.977791 -0.102984 104 2 114
-0.108089 -0.267141 0.810906 0.026793 0.995512 0.090767 130 254 139
-0.270889 -0.162242 0.856271 0.602153 0.619945 -0.503070 204 206 63
-1.046974 -0.663200 -0.844762 0.112652 -0.739267 -0.663923 141 33 42
-0.830198 -1.646268 -1.232378 -0.505325 0.592517 -0.627352 63 203 47
-1.283514 -1.414836 -1.229390 0.270392 0.317123 -0.909022 161 167 11
-0.590006 -1.637513 -0.780677 -0.506261 0.571205 -0.646084 62 200 45
0.322258 0.019675 0.671062 -0.994402 -0.061906 -0.085629 0 119 116
-0.856238 -1.328396 -1.646309 -0.990042 -0.136887 0.032845 1 110 131
-1.620753 -0.773020 -1.866480 0.346770 -0.908025 0.235034 171 11 157
0.113477 -0.166011 0.450217 0.608828 0.793069 0.019254 205 228 129
-0.519250 -0.561403 -0.631741 -0.665260 -0.716526 -0.209808 42 36 100
-0.722449 -1.269304 -0.115819 0.108252 -0.138408 -0.984441 141 109 1
-0.834343 -1.499098 -0.929571 -0.913997 0.330897 -0.234769 10 169 97
0.323222 0.010554 0.666457 -0.994402 -0.061906 -0.085629 0 119 116
-0.758946 -1.584830 -0.780639 -0.479495 0.589130 -0.650392 66 202 44
-0.189409 -0.227575 0.837829 0.365192 0.848638 -0.382687 174 235 78
0.105592 0.085072 0.336787 0.961963 -0.268644 0.049582 250 93 133
0.121166 -0.236825 -0.033712 -0.335424 0.883328 0.327450 84 240 169
-1.725098 -1.338009 -1.734379 0.366326 0.364545 -0.856103 174 173 18
-0.023098 -1.063137 -0.170520 -0.997066 -0.059186 -0.048542 0 119 121
-1.052472 -1.499031 -1.507413 -0.886960 0.379994 -0.262502 14 175 94
-0.492981 -0.957800 -0.731448 -0.908927 -0.413921 -0.050210 11 74 121
-1.015950 -1.080135 -0.336390 0.227208 -0.563459 -0.794286 156 55 26
-0.752313 -0.883927 -1.272823 -0.923731 -0.382458 0.021134 9 78 130
-1.474920 -1.284639 -1.906466 0.558961 -0.583907 -0.588741 198 53 52
0.336886 -0.025525 0.533864 -0.994402 -0.061906 -0.085629 0 119 116
-0.198337 0.063232 -0.124489 0.580620 -0.155599 -0.799168 201 107 25
0.304640 -0.083877 0.009545 -0.750684 0.114395 0.650682 31 142 210
-0.317420 0.070330 0.839424 0.866788 -0.456514 -0.200685 238 69 101
-0.323083 0.072252 0.646460 0.992479 -0.069882 0.100506 254 118 140
-0.552377 -0.912551 -1.463099 -0.920666 -0.388659 0.036304 10 77 132
0.202019 -0.233043 0.444583 -0.070060 0.997249 -0.024203 118 254 124
0.231084 -0.147260 0.857415 -0.438159 0.650806 -0.620055 71 210 48
-0.203896 -0.171143 0.907342 0.313002 0.469156 -0.825786 167 187 22
0.042373 -0.956125 0.171706 -0.801877 -0.558139 -0.213247 25 56 100
-0.918200 -0.384966 -1.364852 -0.341874 -0.913382 -0.221032 83 11 99
-0.066867 -0.069886 -0.014386 0.702443 0.122381 -0.701139 217 143 38
-1.405077 -1.014639 -1.103653 0.553057 -0.349541 -0.756273 198 82 31
-0.601438 -1.355705 -0.011150 0.116198 -0.089726 -0.989165 142 116 1
-0.859216 -1.507435 -1.195738 -0.921165 0.305028 -0.241686 10 166 96
-1.949679 -1.193469 -2.849956 0.554850 0.215269 -0.803617 198 154 25
-0.270345 -1.391074 -0.323126 -0.930830 0.363874 0.033939 8 173 131
0.066402 -0.091266 0.152898 0.923682 0.126696 -0.361607 245 143 81
-0.197630 -1.413863 0.159307 -0.570273 0.145483 -0.808470 54 146 24
-1.098349 -1.479590 -0.733319 0.140241 0.368134 -0.919136 145 174 10
-0.216514 -0.077457 0.951091 0.326358 0.357387 -0.875080 169 173 15
0.185180 0.234078 0.148110 -0.182533 -0.977791 -0.102984 104 2 114
-0.396121 -1.112203 -0.878282 -0.973127 -0.211242 -0.091658 3 100 115
-1.634220 -1.244997 -1.981215 0.353372 0.356080 -0.865064 172 172 17
-0.119025 -0.254233 0.828519 0.016215 0.748843 -0.662550 129 222 43
0.227152 0.067774 -0.076363 -0.737633 -0.049742 0.673367 33 121 213
-0.064742 -0.013238 -0.005302 0.617381 -0.099000 -0.780410 206 114 27
0.113162 0.113754 0.345324 0.961963 -0.268644 0.049582 250 93 133
0.280357 0.157848 0.026079 -0.648391 -0.357397 0.672202 44 81 213
-0.789428 -0.969098 -1.476593 -0.924430 -0.381321 -0.004923 9 78 126
0.147277 -0.192804 0.485035 0.608828 0.793069 0.019254 205 228 129
-0.886400 -0.641315 -1.655624 -0.685719 -0.727867 -0.000409 40 34 127
0.175089 0.059893 0.922009 -0.385378 -0.037918 -0.921980 78 122 9
0.106008 -0.137439 0.321956 0.991169 0.108177 0.076694 253 141 137
0.162112 0.195039 0.467480 0.663341 -0.748013 -0.021333 212 32 124
-0.855233 -1.601042 -1.187111 -0.839341 0.520917 -0.155408 20 193 107
-0.630116 -0.596773 -0.118438 -0.208671 -0.712526 -0.669898 100 36 42
-0.826110 -0.486511 -1.264973 -0.592634 -0.804395 -0.041633 51 24 122
-0.553510 -0.640196 0.380423 -0.301929 -0.062562 -0.951276 89 119 6
0.114524 -0.163422 0.310485 0.608828 0.793069 0.019254 205 228 129
-0.232372 -1.185800 -0.459668 -0.998539 -0.029323 0.045391 0 123 133
-0.129279 -0.265283 0.735402 -0.077398 0.962643 0.259478 117 250 160
0.274894 0.212859 0.162005 -0.799634 -0.596645 -0.067818 25 51 118
-0.911897 -0.584268 -1.249854 -0.621277 -0.778760 -0.086879 48 28 116
0.290590 0.180731 0.600135 -0.971883 -0.234678 0.019240 3 97 129
-1.566784 -1.136134 -1.185125 0.606307 -0.182682 -0.773964 204 104 28
-0.966697 -1.558768 -1.388796 -0.850441 0.485576 -0.202399 19 189 101
0.084480 -0.142600 0.605447 0.622283 0.373620 0.687875 206 175 215
0.092070 0.219489 0.061474 0.631910 -0.716924 -0.294465 208 36 89
0.008944 -0.251668 0.828357 -0.036998 0.833582 -0.551155 122 233 57
-0.768297 -1.565400 -1.366715 -0.890446 0.369828 -0.265206 13 174 93
0.137801 0.143978 -0.137223 -0.663139 -0.475061 0.578414 42 66 201
0.297471 0.157902 0.669271 -0.971883 -0.234678 0.019240 3 97 129
-0.106405 0.187327 0.628869 -0.281194 -0.447668 0.848837 91 70 235
-0.304093 -0.031119 0.902191 0.864118 0.191199 -0.465558 237 151 68
-1.147160 -0.716385 -0.576922 0.208840 -0.539547 -0.815644 154 58 23
-0.732986 -0.514367 -1.102258 -0.489317 -0.845822 -0.212493 65 19 100
-0.476861 -1.125347 -1.130159 -0.987018 -0.155366 -0.040712 1 107 122
-0.984829 -1.310513 -1.890936 -0.997947 0.050165 -0.039822 0 133 122
-0.051681 0.121353 0.935638 -0.056796 -0.503201 -0.862301 120 63 17
-0.137440 -0.756823 -0.198462 -0.612704 -0.770313 -0.176667 49 29 104
-0.215505 0.181222 0.880988 0.578596 -0.697976 -0.421968 201 38 73
-0.333003 -0.024257 0.677325 0.992479 -0.069882 0.100506 254 118 140
-0.297944 0.109157 0.835221 0.866788 -0.456514 -0.200685 238 69 101
-0.153621 0.074701 -0.092618 0.513569 -0.260747 -0.817470 192 94 23
-0.645233 -0.729084 0.134134 0.209928 -0.556162 -0.804123 154 56 24
0.170057 -0.244633 0.760638 -0.295764 0.868208 -0.398419 89 238 76
0.106591 0.101307 0.405365 0.961963 -0.268644 0.049582 250 93 133
-0.179391 0.068868 0.961934 0.436215 -0.315814 -0.842602 183 87 20
-1.259198 -0.552074 -1.971603 -0.522747 -0.833277 -0.179958 60 21 104
-1.291069 -1.449200 -1.391394 0.505445 0.016991 -0.862692 191 129 17
-1.078882 -0.763383 -0.160613 0.156614 -0.299148 -0.941266 147 89 7
0.183163 -0.239933 0.694934 0.222599 0.963235 0.150427 155 250 146
0.114368 0.255676 0.759681 0.015004 -0.979670 0.200052 129 2 153
0.102594 0.098549 0.476812 0.988485 -0.151308 0.001603 253 108 127
0.341425 -0.124840 0.178141 -0.918650 0.391826 -0.050540 10 177 121
-1.354590 -0.791723 -1.946414 -0.027956 -0.945221 -0.325231 123 6 86
0.106388 0.179045 0.168032 0.604244 -0.694752 -0.390140 204 38 77
-0.056976 -1.320852 0.138214 -0.380612 0.153374 -0.911927 78 147 11
-0.877474 -1.683592 -1.136853 -0.508015 0.598595 -0.619358 62 203 48
0.185375 -0.111252 -0.120940 -0.672854 0.436513 0.597263 41 183 203
-1.200090 -0.573665 -0.739442 0.114284 -0.731007 -0.672732 142 34 41
0.320723 -0.044123 0.021110 -0.750684 0.114395 0.650682 31 142 210
-0.239535 -0.013782 0.540041 0.141740 -0.031090 0.989416 145 123 253
-0.991324 -0.759348 -0.390217 0.088283 -0.719791 -0.688555 138 35 39
-0.022703 0.193721 0.658308 -0.115848 -0.665127 0.737689 112 42 221
-0.184891 0.247348 0.729724 0.743872 -0.492159 -0.452144 222 64 69
-0.287673 0.145139 0.752186 0.884708 -0.464321 -0.041201 240 68 122
0.286892 0.199155 0.638048 -0.971883 -0.234678 0.019240 3 97 129
-0.747372 -0.693258 0.104929 -0.122563 -0.332507 -0.935103 111 85 8
-0.334691 -1.442692 -0.399819 -0.957651 0.202541 -0.204652 5 153 101
-1.678684 -0.676965 -1.584855 0.456406 -0.734025 -0.502893 185 33 63
-0.225552 0.156009 0.900979 0.322293 -0.468435 -0.822616 168 67 22
-0.779334 -0.689675 -0.102966 0.019387 -0.474541 -0.880020 129 66 15
-1.041585 -0.775872 -1.940309 -0.744114 -0.661560 -0.092917 32 43 115
0.143031 0.178984 0.437120 0.663341 -0.748013 -0.021333 212 32 124
-1.594986 -0.723496 -1.545101 0.394744 -0.782561 -0.481430 177 27 66
-1.169527 -1.158219 -2.069140 -0.934162 -0.333739 0.126333 8 84 143
0.142535 -0.173762 0.892904 -0.446910 0.664548 -0.598872 70 212 51
-1.214230 -0.789299 -0.722392 0.235699 -0.728121 -0.643651 157 34 45
-0.797804 -1.388563 -0.095750 0.138083 -0.041267 -0.989561 145 122 1
-0.077521 -0.195752 -0.107431 0.598670 0.656781 -0.458511 203 211 69
-0.944589 -1.443872 -0.240081 0.196857 -0.056645 -0.978795 152 120 2
-0.174812 0.057663 0.558237 -0.120358 -0.235845 0.964309 112 97 250
0.288526 0.178103 0.463829 -0.971883 -0.234678 0.019240 3 97 129
0.080743 -0.207127 0.678290 0.339022 0.715680 0.610627 170 218 205
0.322223 -0.031231 0.708265 -0.994402 -0.061906 -0.085629 0 119 116
-0.026856 -1.009424 -0.326024 -0.804568 -0.593617 -0.016975 24 51 125
0.049843 0.186129 0.056748 0.603743 -0.733472 -0.312271 204 33 87
-0.771740 -0.523930 -1.338107 -0.665594 -0.742366 -0.076667 42 32 117
-0.236367 -0.237969 0.737429 0.593985 0.801089 -0.073749 203 229 118
0.057411 -0.004146 0.156042 0.939811 0.107828 -0.324235 247 141 86
-0.109882 0.183208 -0.107423 0.513532 -0.735568 -0.441843 192 33 71
-0.529257 -1.103923 0.088531 -0.294482 -0.255989 -0.920733 89 94 10
-0.035135 -0.262080 0.748955 -0.050786 0.969260 0.240739 121 251 158
-1.038471 -1.223974 -0.589647 0.254100 -0.161166 -0.953655 159 106 5
-0.183256 0.239229 0.765093 0.488245 -0.856088 -0.169499 189 18 105
-0.106170 -0.115510 0.591321 -0.606763 0.152498 0.780117 50 146 226
0.327412 -0.148809 0.204595 -0.818202 0.574926 -0.002202 23 200 127
-0.423238 -1.383252 0.072613 -0.121211 0.063014 -0.990625 112 135 1
0.193303 -0.233150 0.465413 -0.070060 0.997249 -0.024203 118 254 124
-0.218084 -0.066802 0.954858 0.326358 0.357387 -0.875080 169 173 15
0.312479 -0.162277 0.092753 -0.793508 0.563959 0.228681 26 199 156
0.257221 0.222623 0.310485 -0.220521 -0.975372 0.004519 99 3 128
-0.004443 0.061209 0.950781 -0.071559 -0.123295 -0.989787 118 111 1
-0.787946 -0.636840 -1.078428 -0.563119 -0.807202 -0.176979 55 24 104
-1.211876 -0.637247 -1.044951 0.065338 -0.868684 -0.491039 135 16 64
-0.069517 -0.006462 0.962982 -0.064530 -0.107632 -0.992094 119 113 1
-0.288612 -0.091573 0.560564 0.763410 0.200725 0.613934 224 153 205
0.208842 0.177716 -0.032341 -0.648391 -0.357397 0.672202 44 81 213
-0.305528 0.120555 0.628909 0.858431 -0.512733 -0.014201 236 62 125
0.011468 -0.228772 -0.049670 0.501356 0.754245 -0.423978 191 223 73
-0.835147 -0.668905 -1.234683 -0.534991 -0.839343 -0.096374 59 20 115
0.236462 0.216303 0.045642 -0.414618 -0.819024 0.396601 74 23 178
-1.027695 -0.612563 -0.727607 0.159614 -0.737953 -0.655705 147 33 43
-1.085075 -1.387913 -1.782587 -0.891007 0.415227 -0.183555 13 180 104
0.153077 0.221429 -0.013420 -0.023449 -0.952303 0.304251 124 6 166
-0.683418 -0.363330 -0.988458 -0.243242 -0.923749 -0.295841 96 9 89
0.180022 -0.214525 0.817568 -0.306570 0.861929 -0.403848 88 237 76
0.080164 0.128789 0.611904 0.710112 -0.158064 0.686117 218 107 214
0.298628 -0.121171 0.751203 -0.890432 0.203654 -0.407008 13 153 75
0.131412 -0.177324 0.304742 0.689891 0.723837 -0.010539 215 219 126
-0.233402 -0.213046 0.828066 0.365192 0.848638 -0.382687 174 235 78
0.045915 0.222956 -0.101323 -0.245673 -0.952663 0.179105 96 6 150
-0.152722 0.238495 0.839028 0.478153 -0.837155 -0.265597 188 20 93
0.258592 -0.225463 0.593144 -0.070060 0.997249 -0.024203 118 254 124
-0.464402 -1.133222 -1.071673 -0.972085 -0.224468 -0.068304 3 98 118
0.330836 0.008488 0.032837 -0.737633 -0.049742 0.673367 33 121 213
-0.171259 -0.059738 0.967313 -0.058661 0.094302 -0.993814 120 139 0
0.050510 0.160953 0.646030 -0.194326 -0.149224 0.969520 102 108 251
-1.343862 -0.601769 -2.097541 -0.662274 -0.747996 0.043540 43 32 133
0.065167 -0.243608 0.836773 -0.036998 0.833582 -0.551155 122 233 57
0.101177 -0.134327 0.479431 0.965580 0.259002 0.023929 250 160 130
-1.057520 -1.252810 -1.813891 -0.987319 -0.157983 0.015596 1 107 129
-0.185307 0.250443 0.672053 -0.144789 -0.897557 0.416446 109 13 180
-1.003896 -0.893960 -1.875364 -0.903371 -0.427865 0.029189 12 72 131
-0.035485 -1.449261 0.058260 -0.555471 0.230707 -0.798891 56 156 25
-1.187271 -1.404947 -2.030099 -0.789973 0.602666 -0.112856 26 204 113
-0.172356 0.243999 0.772400 0.488245 -0.856088 -0.169499 189 18 105
-0.102456 -0.102777 -0.055782 0.702443 0.122381 -0.701139 217 143 38
-0.518318 -1.051771 -1.116975 -0.966823 -0.254747 0.018908 4 95 129
0.136185 0.069275 0.937885 -0.385378 -0.037918 -0.921980 78 122 9
0.258196 0.217698 0.101792 -0.462409 -0.868672 0.177724 68 16 150
0.247202 0.224349 0.280032 -0.168289 -0.985668 0.011713 106 1 128
-0.305110 -0.607991 -0.022732 -0.267251 -0.623453 -0.734768 93 48 33
0.306161 -0.176781 0.106598 -0.793508 0.563959 0.228681 26 199 156
-0.535153 -0.493042 -0.061198 -0.331243 -0.922681 -0.197327 85 9 102
-0.088594 -1.426355 -0.230122 -0.932880 0.118131 -0.340266 8 142 84
0.081351 0.022609 0.230371 0.951129 -0.246769 -0.185629 248 96 103
-0.838446 -1.647647 -0.806952 -0.903017 0.301961 -0.305580 12 165 88
0.012547 0.225121 -0.082365 0.120021 -0.992771 -0.000205 142 0 127
-1.086740 -1.350123 -1.853511 -0.892670 0.380086 -0.242231 13 175 96
-1.394047 -1.020967 -0.951004 0.200871 -0.509834 -0.836493 153 62 20
-0.288505 -1.581361 -0.086437 -0.433275 0.309813 -0.846338 72 167 19
