ply
format ascii 1.0
element vertex 512
property float x
property float y
property float z
property float nx
property float ny
property float nz
end_header
0.237204 -0.232167 0.101587 -0.187315 0.982283 -0.005742
-0.446202 0.207028 -0.729286 0.023704 -0.823517 0.566796
0.506983 0.199742 -0.499125 -0.025241 -0.755465 -0.654703
-0.391216 0.017364 -0.320198 0.742882 0.073676 -0.665356
0.271284 -0.039463 -0.036747 -0.750684 0.114395 0.650682
0.341726 -0.125270 0.169331 -0.918650 0.391826 -0.050540
-0.165390 -0.178873 -0.740841 -0.010919 0.571918 0.820238
-0.529190 0.138815 -0.483845 0.590020 -0.481289 -0.648257
0.129893 0.160666 0.274900 0.961963 -0.268644 0.049582
0.027657 -0.190992 -0.232174 -0.643484 0.487405 0.590224
0.305235 -0.180078 0.280936 -0.818203 0.574926 -0.002202
0.224906 0.228772 0.331906 -0.168289 -0.985668 0.011713
-0.432247 0.228463 -0.698726 0.023704 -0.823517 0.566796
0.845056 0.035381 -0.504593 -0.634955 -0.268726 0.724306
-0.148381 -0.200512 0.636198 -0.325523 0.669719 0.667467
-0.255703 -0.183000 0.848869 0.602153 0.619945 -0.503070
0.067718 0.098464 0.940923 -0.071559 -0.123295 -0.989787
-0.022576 -0.020616 0.028991 0.617381 -0.099000 -0.780410
0.322104 -0.128333 0.502238 -0.918650 0.391826 -0.050540
-0.421587 -0.219094 -0.711944 -0.015868 0.755449 0.655015
0.118809 0.155813 0.463644 0.961963 -0.268644 0.049582
0.169871 -0.215052 0.231128 0.689891 0.723837 -0.010539
0.028920 -0.103955 0.086747 0.758121 0.068449 -0.648512
0.352714 0.004901 -0.700858 -0.375603 0.023311 0.926487
0.026877 -0.177147 0.044278 0.835812 0.280142 -0.472164
-0.158507 0.105198 -0.105415 0.513569 -0.260747 -0.817470
0.341006 0.026453 0.448443 -0.994402 -0.061906 -0.085629
-0.163739 -0.159224 -0.469127 -0.786447 0.307220 0.535832
-0.503848 0.147967 -0.467574 0.590020 -0.481289 -0.648257
0.076852 -0.114934 0.171298 0.923682 0.126696 -0.361607
0.675787 -0.205955 -0.496325 -0.028662 0.892769 -0.449601
0.437779 0.206013 -0.552881 -0.138357 -0.922615 0.360053
-0.059261 -0.091675 -0.011465 0.646923 0.236655 -0.724903
0.281185 0.069994 0.810053 -0.895583 -0.210142 -0.392137
-0.604742 0.108463 -0.694903 0.937263 -0.337148 -0.088708
0.275878 0.075967 -0.022381 -0.737633 -0.049742 0.673367
0.210413 -0.232941 0.424494 -0.070060 0.997249 -0.024203
-0.619220 0.044486 -0.712981 0.999709 0.016969 -0.017171
0.018606 -0.068274 0.631617 -0.167309 0.203450 0.964684
0.088370 -0.075314 0.462280 0.991169 0.108177 0.076694
0.024398 0.226738 -0.027414 -0.129206 -0.989118 0.070371
0.277026 -0.211344 0.668560 -0.913372 0.400541 -0.072931
-0.550776 0.163786 -0.522734 0.612912 -0.561512 -0.555916
0.488887 0.011983 -0.646014 -0.296935 -0.077015 0.951787
-0.157841 -0.262789 0.717633 -0.077398 0.962643 0.259478
0.248168 0.223205 0.197638 -0.168289 -0.985668 0.011713
0.588859 -0.096467 -0.588351 -0.230290 0.327249 0.916447
0.433146 -0.192024 -0.545490 -0.132541 0.908792 0.395639
-0.440474 0.165488 -0.415844 0.618684 -0.430285 -0.657332
0.158009 0.075235 -0.472051 0.206915 -0.390385 -0.897098
-0.109499 -0.043179 0.574974 -0.618219 0.140963 0.773262
0.010757 -0.214665 -0.025416 0.501356 0.754245 -0.423978
0.129415 0.213886 -0.038852 -0.023449 -0.952303 0.304251
-0.308371 -0.104548 -0.261829 0.722280 0.373275 -0.582218
-0.080883 -0.175398 -0.082666 0.598670 0.656781 -0.458511
-0.288255 -0.000948 -0.802196 -0.034718 -0.059095 0.997648
-0.213979 -0.006125 -0.799918 -0.034718 -0.059095 0.997648
-0.508313 0.042640 -0.800289 0.240370 -0.189804 0.951944
-0.295707 -0.059201 0.906222 0.864118 0.191199 -0.465558
-0.180649 -0.188144 -0.734581 -0.010919 0.571918 0.820238
-0.599524 -0.035945 -0.496352 0.831071 0.097278 -0.547593
-0.332114 0.266906 -0.628891 -0.072776 -0.986708 -0.145297
-0.033199 0.199593 -0.739670 -0.040645 -0.398022 0.916475
0.244175 0.112292 -0.472277 0.140394 -0.394250 -0.908216
0.449678 0.001720 -0.420150 0.051662 0.249811 -0.966915
-0.165886 0.166778 -0.143986 0.622735 -0.472817 -0.623415
-0.100552 0.060138 -0.449263 -0.599705 -0.269033 0.753641
0.163735 -0.206252 0.433787 0.689891 0.723837 -0.010539
-0.292930 -0.156939 0.587305 0.763410 0.200725 0.613934
0.020803 -0.077278 -0.316935 -0.762516 0.140709 0.631483
-0.053535 0.227693 -0.157081 -0.129206 -0.989118 0.070371
0.353600 0.057322 0.241695 -0.948094 -0.313449 -0.053545
0.225105 -0.061098 -0.448359 0.050991 0.246936 -0.967689
-0.082400 0.213600 -0.126079 0.513532 -0.735568 -0.441843
-0.051760 -0.218627 -0.684059 -0.132009 0.987800 0.082619
-0.285007 0.148429 0.772359 0.884708 -0.464321 -0.041201
-0.162491 0.236571 0.663369 -0.222648 -0.724614 0.652199
0.072788 0.113988 -0.522307 0.538570 -0.271234 -0.797731
-0.544035 -0.145773 -0.487935 0.347377 0.472636 -0.809904
0.083824 -0.020208 -0.790388 -0.034718 -0.059095 0.997648
-0.159557 -0.171402 0.912105 0.004006 0.622465 -0.782638
-0.231887 0.022825 -0.141091 0.738107 0.110289 -0.665608
0.092543 0.188765 0.649141 0.357743 -0.723634 0.590232
-0.309468 0.075435 0.595536 0.791532 -0.080112 0.605855
0.189128 -0.035812 0.911769 -0.451449 0.079395 -0.888757
0.473089 -0.141066 -0.462095 0.020114 0.599028 -0.800475
0.353801 -0.017467 0.332712 -0.991474 -0.092469 -0.091811
-0.209493 -0.193976 -0.458570 -0.485453 0.867404 0.109298
0.355891 -0.179688 -0.634428 -0.251943 0.833578 0.491602
0.323791 0.113847 0.438605 -0.948094 -0.313449 -0.053545
0.001374 0.203341 -0.018114 0.536287 -0.650402 -0.537934
0.287513 0.038259 -0.012421 -0.737633 -0.049742 0.673367
-0.173670 0.217704 0.638591 -0.222648 -0.724614 0.652199
0.155807 -0.202107 0.598495 0.608828 0.793069 0.019254
0.758268 -0.183973 -0.468929 -0.309000 0.936955 0.163201
0.298001 0.155938 0.672065 -0.971883 -0.234678 0.019240
0.650231 -0.099815 -0.416517 0.430383 0.443182 -0.786359
0.051076 0.216240 0.690198 -0.115848 -0.665127 0.737689
-0.049171 0.235844 -0.685635 -0.020689 -0.950386 0.310385
0.129453 0.163677 0.299751 0.961963 -0.268644 0.049582
-0.329263 -0.107864 -0.285208 0.668859 0.348018 -0.656895
0.506887 0.003999 -0.416505 0.051662 0.249811 -0.966915
-0.268722 0.135508 -0.777948 -0.040645 -0.398022 0.916475
0.283764 -0.181819 0.746332 -0.913372 0.400541 -0.072931
-0.568725 0.175538 -0.572931 0.932978 -0.348337 -0.090628
-0.192420 0.224785 -0.577252 -0.442482 -0.748538 -0.493863
-0.304318 0.106471 0.594549 0.764753 -0.146417 0.627467
-0.032367 -0.237271 -0.632364 -0.039668 0.853499 -0.519583
-0.064705 0.120789 -0.385791 -0.654365 -0.492983 0.573389
-0.475140 -0.034408 -0.394152 0.667766 -0.070858 -0.740991
-0.203026 0.093549 0.942807 0.395824 -0.230776 -0.888856
-0.575294 0.033376 -0.463185 0.642096 -0.393336 -0.658027
-0.075684 0.186054 -0.074035 0.536287 -0.650402 -0.537934
-0.178113 0.095395 -0.115240 0.625312 -0.145399 -0.766710
-0.069089 0.103782 -0.552066 0.074334 -0.239997 -0.967923
-0.216722 0.231416 -0.316539 0.013753 -0.999881 -0.007047
-0.197709 -0.211029 0.866599 0.365192 0.848638 -0.382687
0.092107 0.004079 0.301997 0.991169 0.108177 0.076694
-0.323028 -0.137808 0.738265 0.840300 0.515114 -0.168977
0.761232 -0.000637 -0.390319 -0.013469 -0.006990 -0.999885
-0.598855 -0.095298 -0.736752 0.835628 0.339582 0.431751
-0.080374 0.195520 0.645794 -0.222648 -0.724614 0.652199
0.290936 -0.200155 0.351880 -0.818203 0.574926 -0.002202
0.776071 0.123254 -0.508475 -0.393878 -0.411238 0.822036
0.087152 0.099542 0.180119 0.840532 -0.240856 -0.485277
0.171832 0.119368 -0.743645 -0.560065 -0.482009 0.673791
0.300656 0.139789 0.609207 -0.971883 -0.234678 0.019240
0.119314 0.194839 -0.731392 -0.075225 -0.417977 0.905338
0.524413 0.051774 -0.628784 -0.488988 -0.403025 0.773602
0.095870 -0.029638 0.300928 0.991169 0.108177 0.076694
0.092843 0.004624 0.291715 0.991169 0.108177 0.076694
0.304374 -0.181375 0.262193 -0.818203 0.574926 -0.002202
-0.004957 -0.069530 -0.349562 -0.729249 0.203396 0.653319
0.387269 0.198207 -0.599298 -0.176023 -0.832598 0.525164
-0.471911 -0.133481 -0.775823 -0.009768 0.566351 0.824106
0.274515 0.101315 -0.015523 -0.663139 -0.475061 0.578414
-0.283256 0.081141 -0.232493 0.764253 -0.255598 -0.592103
0.518899 0.023504 -0.411999 0.121475 -0.054813 -0.991080
0.237726 -0.067740 -0.070491 -0.750684 0.114395 0.650682
-0.177928 -0.214313 -0.239613 0.149978 0.953725 -0.260604
-0.291765 -0.245722 -0.556745 -0.319947 0.935535 -0.149693
-0.384808 0.214138 -0.721523 0.023704 -0.823517 0.566796
-0.271130 0.020903 0.545657 0.141740 -0.031090 0.989416
-0.211133 -0.085729 -0.135714 0.751828 0.111520 -0.649861
-0.295766 0.236593 -0.446457 0.029109 -0.990992 -0.130717
0.074843 -0.066940 -0.256357 -0.743918 0.137974 0.653873
0.409063 -0.004655 -0.674374 -0.436934 -0.061485 0.897390
0.154797 -0.200932 0.582066 0.608828 0.793069 0.019254
0.084776 -0.028603 0.442834 0.991169 0.108177 0.076694
0.277924 -0.081319 0.826792 -0.866917 0.329071 -0.374389
0.032425 -0.162868 -0.250200 -0.643484 0.487405 0.590224
0.173106 -0.233140 0.011898 -0.400466 0.841228 0.363267
0.721690 -0.106812 -0.538813 -0.333946 0.278311 0.900568
0.072901 0.238911 -0.652906 0.418980 -0.811375 -0.407586
-0.594060 -0.147487 -0.640360 0.869298 0.475464 0.135112
0.045842 0.213617 -0.151101 -0.245673 -0.952663 0.179105
0.209623 0.197531 -0.671736 -0.203230 -0.517235 0.831364
-0.097882 -0.168693 0.628899 -0.325523 0.669719 0.667467
-0.000238 -0.179524 -0.272057 -0.643484 0.487405 0.590224
0.345290 -0.215935 -0.551296 -0.300757 0.951160 0.069571
-0.000027 0.181039 0.007455 0.536287 -0.650402 -0.537934
-0.277711 -0.166490 -0.263507 0.722280 0.373275 -0.582218
0.268791 -0.168419 0.014815 -0.672854 0.436513 0.597263
0.445185 0.214974 -0.527074 -0.138357 -0.922615 0.360053
0.347772 0.183435 -0.491097 0.076735 -0.639050 -0.765328
-0.251781 0.261342 -0.635898 -0.084372 -0.977531 0.193170
0.155471 -0.104668 -0.479363 0.460167 0.398019 -0.793617
-0.225280 0.229191 -0.311861 0.501820 -0.731389 -0.461786
0.773303 -0.138359 -0.420285 -0.090094 0.615820 -0.782719
0.000235 -0.227858 -0.658060 0.039840 0.891331 0.451600
-0.223025 -0.224356 -0.324868 -0.014254 0.999674 0.021158
0.059811 -0.122894 0.123508 0.939811 0.107828 -0.324235
0.150561 -0.125851 -0.492817 0.377035 0.386402 -0.841747
0.214097 0.078738 -0.089854 -0.737633 -0.049742 0.673367
0.394543 -0.035480 -0.682885 -0.375603 0.023311 0.926487
0.316573 -0.093417 0.726664 -0.866917 0.329071 -0.374389
0.475122 0.214477 -0.516843 -0.138357 -0.922615 0.360053
-0.023341 0.195727 -0.740912 -0.040645 -0.398022 0.916475
0.293102 -0.197094 0.346205 -0.818203 0.574926 -0.002202
0.093999 0.043467 0.267444 0.951129 -0.246769 -0.185629
0.125257 0.068522 -0.779080 -0.289219 -0.109823 0.950942
-0.137898 0.020706 0.964482 -0.064530 -0.107632 -0.992094
0.623670 -0.043888 -0.406726 0.263934 0.178496 -0.947881
-0.492908 0.105855 -0.426352 0.590020 -0.481289 -0.648257
0.141937 -0.015144 -0.469711 0.356520 -0.038786 -0.933482
-0.586829 0.068451 -0.775293 0.327076 -0.083807 0.941274
0.105243 0.153377 -0.166831 -0.663139 -0.475061 0.578414
-0.066143 -0.149300 -0.760140 -0.010919 0.571918 0.820238
0.808254 0.052567 -0.528416 -0.393878 -0.411238 0.822036
-0.113184 0.206639 0.888943 -0.052248 -0.510494 -0.858293
-0.214923 0.252768 -0.663186 -0.084372 -0.977531 0.193170
-0.260517 0.187845 0.802069 0.488245 -0.856088 -0.169499
0.392081 0.026807 -0.680486 -0.436934 -0.061485 0.897390
0.294887 0.153844 0.445468 -0.799634 -0.596645 -0.067818
0.019563 -0.138171 -0.562615 -0.015413 0.274671 -0.961415
-0.057388 0.134440 -0.769039 -0.040645 -0.398022 0.916475
-0.326285 0.067364 0.799569 0.884708 -0.464321 -0.041201
-0.288651 0.258462 -0.593317 -0.072776 -0.986708 -0.145297
0.180884 0.251664 0.739580 -0.407091 -0.913005 0.026455
-0.211653 0.049098 -0.795764 -0.022017 -0.146488 0.988967
0.166204 -0.084197 -0.467020 0.288900 0.239349 -0.926957
-0.190776 -0.252105 0.675260 0.200059 0.934757 0.293607
0.094552 -0.116095 0.549431 0.965580 0.259002 0.023929
-0.350838 -0.261983 -0.634325 -0.126038 0.991297 0.038009
0.030313 0.222968 -0.013520 0.467661 -0.682303 -0.561921
0.205743 0.240009 0.719873 -0.407091 -0.913005 0.026455
-0.340900 0.257738 -0.660011 0.023704 -0.823517 0.566796
0.005703 0.002883 0.067818 0.913206 -0.172287 -0.369286
0.243924 0.225611 0.339124 -0.168289 -0.985668 0.011713
-0.176073 -0.111563 -0.116634 0.600927 0.288269 -0.745512
-0.091437 0.147820 -0.066713 0.689000 -0.221106 -0.690211
0.363679 0.038410 0.173941 -0.948094 -0.313449 -0.053545
0.065816 0.104228 -0.250405 -0.737633 -0.049742 0.673367
-0.168394 -0.217226 -0.244786 0.149978 0.953725 -0.260604
-0.204957 -0.216089 -0.710161 -0.015868 0.755449 0.655015
0.182187 0.219773 0.399839 0.752605 -0.655931 -0.057802
0.125450 -0.153228 -0.156742 -0.643484 0.487405 0.590224
0.241370 0.219670 0.067653 -0.462409 -0.868672 0.177724
0.093813 0.221133 0.862494 -0.004715 -0.791242 -0.611485
0.097274 -0.074349 0.242716 0.947888 0.159681 -0.275700
-0.059542 -0.103637 -0.015621 0.646923 0.236655 -0.724903
0.118864 0.184199 0.883582 -0.379500 -0.548703 -0.744920
-0.035611 -0.202113 0.683481 -0.038337 0.709882 0.703276
0.535642 -0.189371 -0.517247 -0.132541 0.908792 0.395639
0.064683 -0.226022 -0.611306 0.307884 0.888259 -0.340887
0.197801 0.241509 0.748879 -0.360434 -0.805845 -0.469788
0.664559 -0.019151 -0.592246 -0.314174 -0.244471 0.917349
0.289608 -0.202426 0.252601 -0.818203 0.574926 -0.002202
0.613776 -0.143081 -0.565445 -0.230290 0.327249 0.916447
0.166563 -0.218424 0.623970 0.470715 0.749347 0.465731
0.330620 -0.194662 -0.621988 -0.251943 0.833578 0.491602
-0.221204 -0.244967 -0.639878 -0.132009 0.987800 0.082619
0.270207 -0.224213 0.644991 -0.124571 0.978482 0.164485
-0.147027 0.124381 -0.474104 -0.731222 -0.250640 0.634424
0.149976 0.237799 0.093435 0.043502 -0.996930 -0.065100
0.437262 -0.204940 -0.514442 -0.132541 0.908792 0.395639
0.342490 -0.027338 0.470100 -0.994402 -0.061906 -0.085629
0.807420 0.151363 -0.470794 -0.425560 -0.748615 0.508404
0.346764 -0.071979 0.437746 -0.945515 0.322043 -0.047860
-0.237806 0.151087 0.898981 0.322293 -0.468435 -0.822616
0.876953 0.051467 -0.464528 -0.762521 -0.292388 0.577123
0.384838 -0.068339 -0.441715 0.051662 0.249811 -0.966915
-0.559899 -0.180941 -0.692102 0.525335 0.777400 0.345935
0.286787 -0.187942 0.066897 -0.793508 0.563959 0.228681
0.368143 -0.038011 0.198529 -0.991474 -0.092469 -0.091811
0.660422 -0.185515 -0.464504 0.192568 0.852648 -0.485704
-0.238319 0.223857 -0.317582 0.501820 -0.731389 -0.461786
-0.038310 0.055675 0.953919 -0.071559 -0.123295 -0.989787
0.134317 -0.104535 -0.180760 -0.743918 0.137974 0.653873
0.228235 -0.170028 -0.490397 0.030786 0.613982 -0.788719
0.268409 -0.175599 0.019631 -0.672854 0.436513 0.597263
-0.384302 0.214718 -0.435950 0.377973 -0.757672 -0.532042
-0.334965 0.193545 -0.744782 0.008639 -0.590607 0.806913
0.764818 0.163065 -0.489224 -0.425560 -0.748615 0.508404
0.156018 -0.202235 0.597136 0.608828 0.793069 0.019254
0.295274 -0.194723 0.158335 -0.818203 0.574926 -0.002202
-0.167237 0.174100 0.601741 -0.281194 -0.447668 0.848837
-0.092305 -0.093956 -0.044073 0.702443 0.122381 -0.701139
-0.310832 0.211539 -0.374076 0.385011 -0.795870 -0.467287
-0.451978 0.187594 -0.747885 0.008639 -0.590607 0.806913
0.358542 -0.078989 0.157901 -0.945515 0.322043 -0.047860
-0.260679 -0.117431 -0.210924 0.722280 0.373275 -0.582218
-0.261281 0.140452 0.885658 0.578596 -0.697976 -0.421968
0.298417 0.152517 0.415532 -0.799634 -0.596645 -0.067818
0.364300 0.018028 0.184021 -0.994402 -0.061906 -0.085629
0.254678 -0.149240 0.833311 -0.890432 0.203654 -0.407008
0.127901 -0.096168 -0.189824 -0.743918 0.137974 0.653873
0.134727 0.128413 -0.501979 0.309859 -0.449575 -0.837776
0.038970 0.264748 0.786981 -0.089159 -0.979609 0.180049
0.067384 -0.046663 0.584761 0.891201 0.095049 0.443539
-0.050992 -0.104563 0.632941 -0.618219 0.140963 0.773262
0.081446 0.099791 0.939452 -0.056796 -0.503201 -0.862301
0.317011 0.120430 -0.684256 -0.399048 -0.301370 0.865989
0.011538 -0.208930 -0.014290 0.501356 0.754245 -0.423978
0.327473 -0.121768 0.455551 -0.918650 0.391826 -0.050540
-0.066838 0.198250 -0.576183 -0.077206 -0.865420 -0.495064
0.058642 -0.044798 0.146092 0.939811 0.107828 -0.324235
-0.614752 -0.066571 -0.714113 0.918023 0.367732 0.148348
-0.248944 -0.215803 -0.508862 -0.541914 0.757520 -0.363996
0.141453 -0.190373 0.569111 0.608828 0.793069 0.019254
0.339600 -0.009097 0.490475 -0.994402 -0.061906 -0.085629
-0.102310 -0.069093 0.585446 -0.618219 0.140963 0.773262
-0.576880 0.135331 -0.730075 0.577195 -0.527773 0.623138
-0.098409 -0.171339 -0.745203 -0.010919 0.571918 0.820238
0.338272 0.110563 0.201432 -0.948094 -0.313449 -0.053545
0.818938 0.119999 -0.489564 -0.393878 -0.411238 0.822036
0.422740 0.162650 -0.466534 0.140394 -0.394250 -0.908216
-0.107496 -0.246383 0.837673 0.016215 0.748843 -0.662550
0.764403 -0.117235 -0.402641 -0.090094 0.615820 -0.782719
-0.027119 0.204233 -0.047598 0.536287 -0.650402 -0.537934
0.201334 -0.235273 0.354686 -0.070060 0.997249 -0.024203
-0.012599 -0.155031 0.926892 0.029913 0.660411 -0.750309
-0.416359 -0.239433 -0.688359 -0.015868 0.755449 0.655015
-0.599247 0.098069 -0.731029 0.786079 -0.413268 0.459662
0.123331 0.167169 -0.526992 0.309859 -0.449575 -0.837776
-0.145878 0.156628 0.599602 -0.281194 -0.447668 0.848837
0.464466 -0.101597 -0.627999 -0.499595 0.263874 0.825091
0.460773 0.212289 -0.527963 -0.138357 -0.922615 0.360053
0.079095 0.253431 0.745273 -0.089159 -0.979609 0.180049
0.172362 0.032253 -0.460060 0.356520 -0.038786 -0.933482
-0.238536 -0.166434 -0.750410 -0.009768 0.566351 0.824106
-0.266354 0.108036 0.561615 -0.156726 -0.278499 0.947563
0.433405 -0.048964 -0.434114 0.051662 0.249811 -0.966915
-0.158447 0.230810 -0.608083 -0.147982 -0.747432 -0.647647
-0.004898 -0.019641 0.625008 0.055334 0.066772 0.996233
-0.507444 0.215715 -0.710292 0.085722 -0.856497 0.508984
0.200698 0.186170 -0.511067 0.140394 -0.394250 -0.908216
0.297732 0.186003 -0.498259 0.076735 -0.639050 -0.765328
0.534475 -0.154019 -0.581466 -0.230290 0.327249 0.916447
0.274227 -0.122180 0.804082 -0.890432 0.203654 -0.407008
0.272396 -0.054250 -0.726949 -0.317176 0.033931 0.947759
0.128776 0.186007 0.877201 -0.379500 -0.548703 -0.744920
-0.303352 0.072523 -0.248692 0.628847 -0.269972 -0.729155
-0.276281 -0.209005 -0.330244 0.448434 0.798659 -0.401311
0.572991 0.037154 -0.613785 -0.373762 -0.239421 0.896091
-0.305197 -0.235954 -0.493556 -0.193690 0.955198 -0.223788
-0.048260 -0.197937 -0.072357 0.598670 0.656781 -0.458511
-0.410683 -0.247350 -0.551732 0.071714 0.976391 -0.203758
0.011910 0.057796 0.622416 -0.194326 -0.149224 0.969520
0.263425 -0.111018 0.834261 -0.866917 0.329071 -0.374389
0.200216 -0.228604 -0.630565 -0.065800 0.973426 0.219343
0.219333 0.060502 -0.453635 0.140394 -0.394250 -0.908216
0.128543 -0.100547 -0.188170 -0.743918 0.137974 0.653873
-0.235903 -0.091185 -0.788607 -0.022437 0.146184 0.989003
0.040591 0.215598 -0.147764 -0.245673 -0.952663 0.179105
0.513063 -0.165867 -0.581511 0.003238 0.963842 0.266455
-0.137532 -0.227810 -0.265758 0.149978 0.953725 -0.260604
-0.185979 0.211267 -0.398485 -0.418890 -0.863268 0.281603
0.144183 -0.021231 0.936221 -0.449420 0.116465 -0.885696
-0.225880 0.020671 0.955931 0.436215 -0.315814 -0.842602
0.093219 -0.111702 0.555680 0.965580 0.259002 0.023929
0.238194 0.227730 0.640379 -0.165096 -0.983743 -0.070657
-0.110783 -0.165279 0.619182 -0.325523 0.669719 0.667467
-0.291378 0.136814 0.766433 0.884708 -0.464321 -0.041201
-0.617517 0.019764 -0.638272 0.999709 0.016969 -0.017171
0.261174 -0.123495 -0.026599 -0.672854 0.436513 0.597263
0.700214 0.108534 -0.542268 -0.407134 -0.293758 0.864840
0.316092 0.142198 0.297902 -0.799634 -0.596645 -0.067818
0.048948 0.053592 -0.517867 0.538570 -0.271234 -0.797731
0.159690 0.208999 0.624466 0.489514 -0.701552 0.517880
0.217450 -0.230507 0.504420 -0.070060 0.997249 -0.024203
0.460763 0.154812 -0.457254 0.140394 -0.394250 -0.908216
0.281803 0.084042 -0.015294 -0.737633 -0.049742 0.673367
0.084642 -0.046655 -0.495590 0.507349 0.276970 -0.816018
-0.332957 -0.057132 0.685194 0.998192 0.027542 0.053420
0.222143 0.192134 0.801948 -0.449437 -0.680173 -0.579113
-0.440682 -0.241110 -0.686515 0.084277 0.827596 0.554961
-0.314267 -0.174867 0.647783 0.885927 0.272848 0.375084
0.600102 -0.142003 -0.569266 -0.230290 0.327249 0.916447
0.081103 -0.047543 0.517023 0.991169 0.108177 0.076694
-0.577382 0.137228 -0.527604 0.878565 -0.258442 -0.401660
0.189251 0.235451 -0.602053 -0.028906 -0.983349 0.179412
0.473464 0.126064 -0.442811 0.140394 -0.394250 -0.908216
0.087047 -0.106024 0.200464 0.923682 0.126696 -0.361607
0.137277 -0.182702 0.385157 0.608828 0.793069 0.019254
0.010201 0.106687 0.940121 -0.056796 -0.503201 -0.862301
0.050729 -0.121170 0.110425 0.758121 0.068449 -0.648512
0.239917 -0.229781 0.469284 -0.070060 0.997249 -0.024203
-0.231079 0.035190 0.947798 0.436215 -0.315814 -0.842602
0.108400 -0.192634 0.639287 0.388743 0.769942 0.506032
-0.299448 0.036488 0.577295 0.791532 -0.080112 0.605855
-0.282849 -0.108355 -0.232609 0.722280 0.373275 -0.582218
-0.591709 -0.123792 -0.714874 0.918023 0.367732 0.148348
-0.619560 0.056649 -0.720796 0.870430 -0.054525 0.489263
0.115988 -0.205722 0.154217 0.504358 0.788593 -0.351774
-0.447428 0.182776 -0.435308 0.377973 -0.757672 -0.532042
-0.136248 0.059932 -0.076992 0.513569 -0.260747 -0.817470
-0.026318 0.219323 -0.070424 0.513532 -0.735568 -0.441843
0.153256 0.091753 0.929825 -0.385378 -0.037918 -0.921979
0.003226 0.070506 0.622631 -0.194326 -0.149224 0.969520
-0.229699 -0.141834 0.568573 0.047926 0.456503 0.888430
0.441960 -0.183234 -0.580478 -0.300757 0.951160 0.069571
-0.571757 -0.178123 -0.676047 0.869298 0.475464 0.135112
0.043303 -0.187246 -0.569043 0.377035 0.386402 -0.841747
-0.038706 -0.200591 -0.297784 -0.324476 0.901668 0.285849
-0.141364 0.186544 -0.137494 0.311039 -0.813398 -0.491567
0.331938 -0.219664 -0.558036 -0.300757 0.951160 0.069571
0.233336 -0.110390 0.882651 -0.451449 0.079395 -0.888757
0.842896 -0.088900 -0.404050 -0.235937 0.195319 -0.951937
-0.037434 0.183787 -0.033160 0.536287 -0.650402 -0.537934
-0.583706 0.061032 -0.492412 0.878565 -0.258442 -0.401660
-0.085434 -0.056959 0.596727 -0.618219 0.140963 0.773262
-0.167622 -0.226651 -0.697075 -0.015868 0.755449 0.655015
0.113892 0.025175 -0.482259 0.386439 -0.033661 -0.921701
-0.300315 0.128928 0.641703 0.858431 -0.512733 -0.014201
0.414701 0.074900 -0.666178 -0.436934 -0.061485 0.897390
0.150117 0.135448 -0.130109 -0.663139 -0.475061 0.578414
0.038237 -0.107898 0.949160 -0.064946 0.114838 -0.991259
0.032068 0.123657 0.075850 0.829180 -0.252126 -0.498892
0.759204 -0.174980 -0.492072 -0.566059 0.751395 0.339091
0.221427 -0.019365 0.897271 -0.449420 0.116465 -0.885696
-0.205575 -0.208704 -0.561181 -0.632961 0.708118 -0.312936
0.192916 0.245024 0.695554 -0.407091 -0.913005 0.026455
0.520064 0.171712 -0.581567 -0.249888 -0.349970 0.902816
-0.105356 -0.130217 0.945139 0.004006 0.622465 -0.782638
0.269596 -0.106631 -0.026408 -0.743918 0.137974 0.653873
0.087841 -0.125708 0.593231 0.622283 0.373620 0.687875
0.141752 0.222618 0.824286 -0.360434 -0.805845 -0.469788
0.258697 -0.116815 -0.034272 -0.672854 0.436513 0.597263
0.039304 -0.142878 -0.259208 -0.643484 0.487405 0.590224
0.107714 0.259863 0.780688 0.015004 -0.979670 0.200052
0.192177 0.233807 0.285313 -0.168289 -0.985668 0.011713
0.272425 -0.224915 0.242827 -0.185203 0.982694 -0.003505
0.013352 -0.181419 -0.255675 -0.643484 0.487405 0.590224
0.285043 -0.117360 -0.708789 -0.359128 0.435739 0.825323
-0.527623 0.205840 -0.539685 0.612912 -0.561512 -0.555916
0.142675 0.197785 -0.541295 0.272564 -0.724358 -0.633257
0.291215 -0.197525 0.527263 -0.918650 0.391826 -0.050540
-0.179551 -0.222087 0.859404 0.365192 0.848638 -0.382687
-0.260973 0.240775 -0.470416 0.029109 -0.990992 -0.130717
-0.153016 -0.012492 -0.798173 -0.034718 -0.059095 0.997648
0.034619 -0.059140 -0.787206 -0.022437 0.146184 0.989003
-0.108411 -0.074336 -0.550636 0.158331 0.103216 -0.981976
-0.056391 -0.168081 -0.569942 -0.015413 0.274671 -0.961415
0.292795 -0.167405 0.712388 -0.913372 0.400541 -0.072931
-0.152555 -0.231085 -0.691596 -0.015868 0.755449 0.655015
-0.008687 -0.239740 0.722069 -0.018172 0.697449 0.716404
0.093827 -0.113301 0.548451 0.965580 0.259002 0.023929
0.183689 0.086963 -0.122557 -0.737633 -0.049742 0.673367
-0.138309 0.019519 -0.795765 -0.034718 -0.059095 0.997648
-0.318794 0.029688 0.870048 0.887506 -0.266066 -0.376220
0.068008 0.080174 0.613286 0.710112 -0.158064 0.686117
0.325314 0.060462 -0.701299 -0.399048 -0.301370 0.865989
0.102053 -0.100794 0.321388 0.991169 0.108177 0.076694
0.341360 -0.016880 0.475656 -0.994402 -0.061906 -0.085629
0.218175 -0.042573 -0.745967 -0.324687 0.041285 0.944920
-0.183359 0.148850 -0.504703 -0.612945 -0.669524 0.419567
0.246510 -0.224594 0.722783 -0.441542 0.887108 -0.134462
0.758680 -0.181390 -0.478743 -0.566059 0.751395 0.339091
0.331534 0.087508 0.455701 -0.948094 -0.313449 -0.053545
-0.016260 0.175645 -0.565827 0.074334 -0.239997 -0.967923
-0.184940 -0.134498 -0.771723 -0.009768 0.566351 0.824106
0.882050 0.042800 -0.401772 -0.681556 -0.251882 -0.687049
0.584893 0.032524 -0.404453 0.115704 0.084100 -0.989717
-0.494327 0.008045 -0.415503 0.667766 -0.070858 -0.740991
-0.069605 -0.196490 -0.098153 0.598670 0.656781 -0.458511
0.234722 -0.218474 -0.638400 -0.297560 0.835103 0.462667
0.280775 -0.214267 0.110959 -0.793508 0.563959 0.228681
0.085932 -0.203905 0.887802 0.029913 0.660411 -0.750309
0.243692 0.038642 0.893601 -0.449420 0.116465 -0.885696
0.007643 -0.044393 0.958209 -0.058661 0.094302 -0.993814
0.075207 -0.205214 -0.709367 0.039840 0.891331 0.451600
-0.105611 -0.103399 0.589388 -0.606763 0.152498 0.780117
0.316716 0.144987 0.266012 -0.799634 -0.596645 -0.067818
-0.246445 -0.228826 0.755573 0.593985 0.801089 -0.073749
0.290895 0.181976 0.630730 -0.971883 -0.234678 0.019240
0.067138 -0.042684 0.954821 -0.064946 0.114838 -0.991259
0.286475 -0.053387 0.831541 -0.866917 0.329071 -0.374389
-0.187591 0.159003 -0.159787 0.656969 -0.456416 -0.600064
0.008668 0.007281 0.073098 0.913206 -0.172287 -0.369286
0.139635 -0.225062 -0.663290 -0.042125 0.896076 0.441898
-0.005573 0.246434 0.722674 -0.005296 -0.779099 0.626878
0.404784 0.109726 -0.446335 0.140394 -0.394250 -0.908216
-0.158238 0.153211 -0.126057 0.622735 -0.472817 -0.623415
0.317143 0.120548 0.045349 -0.807863 -0.396585 0.435979
-0.253161 -0.192512 0.840189 0.602153 0.619945 -0.503070
0.059540 -0.211006 0.049745 0.583759 0.724319 -0.366862
0.334314 0.092865 0.375118 -0.948094 -0.313449 -0.053545
0.128382 -0.131050 -0.505138 0.377035 0.386402 -0.841747
-0.531396 -0.219859 -0.575708 0.458477 0.821279 -0.339559
0.029388 -0.071976 0.090669 0.758121 0.068449 -0.648512
0.150663 0.081573 -0.768062 -0.318127 -0.365617 0.874711
-0.544854 -0.086527 -0.455100 0.598081 0.176814 -0.781688
-0.433285 0.122790 -0.381127 0.618684 -0.430285 -0.657332
0.068371 -0.214044 -0.581523 0.236449 0.800649 -0.550502
0.183974 0.229019 0.318182 0.752605 -0.655931 -0.057802
-0.136022 0.125923 -0.097899 0.513569 -0.260747 -0.817470
-0.508418 -0.239410 -0.677990 0.791943 0.376446 0.480744
-0.527473 -0.111140 -0.784325 0.354055 0.535002 0.767084
0.218462 0.221353 0.037253 -0.414618 -0.819024 0.396601
-0.114015 0.038480 -0.793797 -0.034718 -0.059095 0.997648
-0.270826 -0.048557 -0.796220 -0.024421 0.161988 0.986491
0.322540 0.097120 0.558681 -0.948094 -0.313449 -0.053545
-0.081842 -0.261462 0.819638 -0.036998 0.833582 -0.551155
0.136757 -0.201170 -0.533575 0.377035 0.386402 -0.841747
0.155723 0.191994 0.375586 0.663341 -0.748013 -0.021333
0.018326 -0.268923 0.793139 0.026793 0.995512 0.090767
0.780123 0.013879 -0.544772 -0.482375 0.216577 0.848769
-0.206725 0.247826 -0.680024 0.023704 -0.823517 0.566796
-0.608146 0.102742 -0.709120 0.937263 -0.337148 -0.088708
0.781151 0.158400 -0.422511 -0.026129 -0.812015 -0.583052
0.728556 -0.154556 -0.427878 -0.090094 0.615820 -0.782719
-0.180466 -0.180470 -0.436827 -0.485453 0.867404 0.109298
-0.060217 -0.069159 -0.787876 -0.022437 0.146184 0.989003
-0.115047 -0.036648 -0.056854 0.702443 0.122381 -0.701139
0.155815 -0.212737 -0.054410 -0.400466 0.841228 0.363267
0.266566 0.220478 0.303584 -0.220521 -0.975372 0.004519
-0.167066 0.114058 0.947289 -0.052248 -0.510494 -0.858293
-0.429442 -0.223964 -0.499530 0.374177 0.785592 -0.492784
-0.072430 -0.215996 -0.287471 -0.324476 0.901668 0.285849
-0.097714 0.096453 0.953134 -0.071559 -0.123295 -0.989787
0.279816 0.196219 0.053060 -0.462409 -0.868672 0.177724
-0.342527 0.077701 -0.794441 -0.022017 -0.146488 0.988967
0.231626 0.228833 0.433591 -0.168289 -0.985668 0.011713
0.276433 -0.199160 0.058637 -0.793508 0.563959 0.228681
0.305669 0.010090 0.764526 -0.964872 -0.044074 -0.258997
-0.185522 0.026376 -0.108003 0.580620 -0.155599 -0.799168
-0.350743 -0.231236 -0.453420 0.071714 0.976391 -0.203758
0.597465 0.195042 -0.494602 0.183500 -0.797399 -0.574876
0.206031 0.240316 0.734913 -0.407091 -0.913005 0.026455
0.236452 0.045347 -0.067832 -0.737633 -0.049742 0.673367
-0.568482 0.098723 -0.767765 0.365355 -0.449196 0.815315
-0.067470 -0.203742 -0.721072 -0.015868 0.755449 0.655015
-0.149035 -0.037615 -0.076822 0.414270 0.183748 -0.891413
0.682873 0.122563 -0.545666 -0.407134 -0.293758 0.864840
0.100697 0.085982 0.460576 0.988485 -0.151308 0.001603
0.343763 -0.078233 0.454944 -0.945515 0.322043 -0.047860
0.326682 -0.021402 0.024500 -0.753920 -0.197572 0.626554
0.137418 -0.078966 0.934837 -0.462848 0.059542 -0.884435
0.497542 0.206289 -0.529208 -0.138357 -0.922615 0.360053
-0.055836 0.044949 -0.005638 0.617381 -0.099000 -0.780410
-0.052627 0.194943 -0.061795 0.536287 -0.650402 -0.537934
