ply
format ascii 1.0
element vertex 1020
property float x
property float y
property float z
element face 2003
property list uchar int vertex_indices
end_header
-0.526959 -0.150000 0.075000
-0.531808 -0.150000 0.150000
-0.533837 -0.150000 0.225000
-0.534725 -0.150000 0.300000
-0.531988 -0.150000 0.375000
-0.541506 -0.075000 0.000000
-0.554454 -0.075000 0.075000
-0.557596 -0.075000 0.150000
-0.555703 -0.075000 0.225000
-0.555700 -0.075000 0.300000
-0.556156 -0.075000 0.375000
-0.532322 -0.075000 0.450000
-0.536991 0.000000 0.000000
-0.551307 0.000000 0.075000
-0.553664 0.000000 0.150000
-0.552944 0.000000 0.225000
-0.552548 0.000000 0.300000
-0.551555 0.000000 0.375000
-0.541459 0.000000 0.450000
-0.527739 0.075000 0.075000
-0.528121 0.075000 0.150000
-0.526892 0.075000 0.225000
-0.525327 0.075000 0.300000
-0.527441 0.075000 0.375000
-0.479560 -0.225000 0.000000
-0.525000 -0.154361 0.075000
-0.490808 -0.225000 0.075000
-0.525000 -0.164438 0.150000
-0.494353 -0.225000 0.150000
-0.525000 -0.168553 0.225000
-0.496951 -0.225000 0.225000
-0.525000 -0.171457 0.300000
-0.498928 -0.225000 0.300000
-0.525000 -0.165698 0.375000
-0.494268 -0.225000 0.375000
-0.470021 -0.225000 0.450000
-0.479180 -0.150000 -0.075000
-0.525000 -0.150000 0.050051
-0.525000 -0.135195 0.000000
-0.520893 -0.150000 0.000000
-0.525000 -0.150000 0.411187
-0.525000 -0.111240 0.450000
-0.514342 -0.150000 0.450000
-0.525000 -0.075000 -0.029311
-0.495271 -0.075000 -0.075000
-0.525000 -0.075000 0.461428
-0.478700 -0.075000 0.525000
-0.525000 0.000000 -0.019807
-0.487952 0.000000 -0.075000
-0.525000 0.045226 0.000000
-0.525000 0.000000 0.476055
-0.525000 0.044128 0.450000
-0.479469 0.000000 0.525000
-0.463048 0.075000 -0.075000
-0.525000 0.075000 0.055225
-0.516107 0.075000 0.000000
-0.525000 0.080936 0.075000
-0.525000 0.081942 0.150000
-0.525000 0.079202 0.225000
-0.525000 0.075691 0.300000
-0.525000 0.075000 0.387763
-0.525000 0.079561 0.375000
-0.507540 0.075000 0.450000
-0.472576 0.150000 0.000000
-0.490094 0.150000 0.075000
-0.491553 0.150000 0.150000
-0.489967 0.150000 0.225000
-0.486161 0.150000 0.300000
-0.480142 0.150000 0.375000
-0.454249 0.150000 0.450000
-0.450000 -0.254900 0.000000
-0.450000 -0.280958 0.075000
-0.417276 -0.300000 0.075000
-0.450000 -0.282343 0.150000
-0.428254 -0.300000 0.150000
-0.450000 -0.282065 0.225000
-0.428548 -0.300000 0.225000
-0.450000 -0.280213 0.300000
-0.424951 -0.300000 0.300000
-0.450000 -0.272521 0.375000
-0.412156 -0.300000 0.375000
-0.450000 -0.245251 0.450000
-0.450000 -0.225000 -0.049795
-0.450000 -0.199856 -0.075000
-0.415030 -0.225000 -0.075000
-0.450000 -0.225000 0.470582
-0.450000 -0.150000 -0.099878
-0.450000 -0.150000 0.512416
-0.450000 -0.129446 0.525000
-0.435154 -0.150000 0.525000
-0.450000 -0.075000 -0.117314
-0.450000 -0.075000 0.561470
-0.408682 -0.075000 0.600000
-0.450000 0.000000 -0.111560
-0.450000 0.000000 0.551756
-0.450000 0.046481 0.525000
-0.392862 0.000000 0.600000
-0.450000 0.075000 -0.089034
-0.450000 0.098536 -0.075000
-0.450000 0.075000 0.506666
-0.428443 0.075000 0.525000
-0.450000 0.150000 -0.030424
-0.392934 0.150000 -0.075000
-0.450000 0.171379 0.000000
-0.450000 0.200460 0.075000
-0.450000 0.208047 0.150000
-0.450000 0.207681 0.225000
-0.450000 0.200812 0.300000
-0.450000 0.187656 0.375000
-0.450000 0.150000 0.454423
-0.450000 0.155000 0.450000
-0.414632 0.225000 0.075000
-0.430626 0.225000 0.150000
-0.431790 0.225000 0.225000
-0.422375 0.225000 0.300000
-0.396315 0.225000 0.375000
-0.375000 -0.316586 0.075000
-0.375000 -0.331123 0.150000
-0.375000 -0.333891 0.225000
-0.375000 -0.330886 0.300000
-0.375000 -0.320893 0.375000
-0.375000 -0.242743 -0.075000
-0.375000 -0.300000 0.016964
-0.375000 -0.294708 0.000000
-0.354594 -0.300000 0.000000
-0.375000 -0.300000 0.435687
-0.375000 -0.293418 0.450000
-0.350496 -0.300000 0.450000
-0.375000 -0.225000 -0.090382
-0.375000 -0.225000 0.516698
-0.375000 -0.213654 0.525000
-0.350040 -0.225000 0.525000
-0.375000 -0.150000 -0.128902
-0.304254 -0.150000 -0.150000
-0.375000 -0.150000 0.579689
-0.375000 -0.120190 0.600000
-0.327988 -0.150000 0.600000
-0.375000 -0.075000 -0.149090
-0.372239 -0.075000 -0.150000
-0.375000 -0.075000 0.619800
-0.375000 0.000000 -0.143135
-0.358130 0.000000 -0.150000
-0.375000 0.000000 0.611202
-0.375000 0.025928 0.600000
-0.375000 0.075000 -0.128895
-0.303089 0.075000 -0.150000
-0.375000 0.075000 0.569083
-0.375000 0.129507 0.525000
-0.308825 0.075000 0.600000
-0.375000 0.150000 -0.084243
-0.375000 0.159391 -0.075000
-0.375000 0.216465 0.000000
-0.375000 0.150000 0.508648
-0.375000 0.201710 0.450000
-0.346656 0.150000 0.525000
-0.375000 0.225000 0.019806
-0.346108 0.225000 0.000000
-0.375000 0.245352 0.075000
-0.375000 0.256749 0.150000
-0.375000 0.260211 0.225000
-0.375000 0.251665 0.300000
-0.375000 0.225000 0.400718
-0.375000 0.234761 0.375000
-0.304547 0.225000 0.450000
-0.300000 -0.313742 0.000000
-0.300000 -0.341581 0.075000
-0.300000 -0.348883 0.150000
-0.300000 -0.344912 0.225000
-0.300000 -0.340875 0.300000
-0.300000 -0.331423 0.375000
-0.300000 -0.311104 0.450000
-0.300000 -0.300000 -0.021904
-0.300000 -0.258102 -0.075000
-0.300000 -0.300000 0.465516
-0.300000 -0.243539 0.525000
-0.300000 -0.225000 -0.105000
-0.300000 -0.152361 -0.150000
-0.300000 -0.225000 0.542942
-0.300000 -0.162215 0.600000
-0.242165 -0.150000 -0.975000
-0.300000 -0.150000 -0.151261
-0.300000 -0.150000 0.608232
-0.227925 -0.075000 -1.050000
-0.259010 -0.075000 -0.975000
-0.240198 -0.075000 -0.900000
-0.300000 -0.075000 -0.173218
-0.300000 -0.075000 0.626203
-0.230824 0.000000 -1.050000
-0.265459 0.000000 -0.975000
-0.242493 0.000000 -0.900000
-0.300000 0.000000 -0.173298
-0.300000 0.000000 0.621417
-0.245667 0.075000 -0.975000
-0.300000 0.075000 -0.150932
-0.300000 0.076874 -0.150000
-0.300000 0.075000 0.602999
-0.300000 0.080546 0.600000
-0.300000 0.150000 -0.106763
-0.300000 0.181254 -0.075000
-0.300000 0.150000 0.550929
-0.300000 0.174287 0.525000
-0.300000 0.225000 -0.017879
-0.300000 0.237478 0.000000
-0.300000 0.270155 0.075000
-0.300000 0.274218 0.150000
-0.300000 0.267924 0.225000
-0.300000 0.261540 0.300000
-0.300000 0.251030 0.375000
-0.300000 0.225000 0.452208
-0.300000 0.226300 0.450000
-0.225000 -0.325841 0.000000
-0.225000 -0.339857 0.075000
-0.225000 -0.338135 0.150000
-0.225000 -0.332487 0.225000
-0.225000 -0.319124 0.300000
-0.225000 -0.320005 0.375000
-0.225000 -0.317269 0.450000
-0.225000 -0.300000 -0.043769
-0.225000 -0.276144 -0.075000
-0.166464 -0.300000 0.225000
-0.191397 -0.300000 0.300000
-0.161867 -0.300000 0.375000
-0.225000 -0.300000 0.483506
-0.225000 -0.268947 0.525000
-0.225000 -0.178831 -0.975000
-0.164260 -0.225000 -0.975000
-0.178514 -0.225000 -0.900000
-0.162016 -0.225000 -0.825000
-0.225000 -0.225000 -0.122613
-0.225000 -0.183118 -0.150000
-0.158519 -0.225000 -0.150000
-0.225000 -0.225000 0.569925
-0.225000 -0.182718 0.600000
-0.225000 -0.150000 -1.011308
-0.225000 -0.084073 -1.050000
-0.225000 -0.150000 -0.922262
-0.225000 -0.126397 -0.900000
-0.217688 -0.150000 -0.900000
-0.197481 -0.150000 -0.825000
-0.175781 -0.150000 -0.750000
-0.155405 -0.150000 -0.675000
-0.225000 -0.150000 -0.168776
-0.225000 -0.150000 0.616741
-0.225000 -0.075000 -1.052490
-0.225000 -0.075000 -0.844987
-0.219446 -0.075000 -0.825000
-0.195697 -0.075000 -0.750000
-0.172311 -0.075000 -0.675000
-0.225000 -0.075000 -0.193006
-0.153188 -0.075000 -0.225000
-0.225000 -0.075000 0.641184
-0.225000 0.000000 -1.054673
-0.225000 0.011406 -1.050000
-0.225000 0.000000 -0.843091
-0.225000 0.060850 -0.900000
-0.219430 0.000000 -0.825000
-0.196135 0.000000 -0.750000
-0.169956 0.000000 -0.675000
-0.225000 0.000000 -0.194477
-0.159911 0.000000 -0.225000
-0.225000 0.000000 0.642574
-0.225000 0.075000 -1.007805
-0.225000 0.075000 -0.913046
-0.225000 0.109053 -0.975000
-0.220659 0.075000 -0.900000
-0.194601 0.075000 -0.825000
-0.170650 0.075000 -0.750000
-0.225000 0.075000 -0.168753
-0.225000 0.114841 -0.150000
-0.225000 0.075000 0.628902
-0.225000 0.125012 0.600000
-0.165849 0.150000 -0.975000
-0.175870 0.150000 -0.900000
-0.156291 0.150000 -0.825000
-0.225000 0.150000 -0.129766
-0.164387 0.150000 -0.150000
-0.225000 0.201666 -0.075000
-0.225000 0.150000 0.581503
-0.225000 0.204024 0.525000
-0.225000 0.225000 -0.040209
-0.225000 0.247600 0.000000
-0.225000 0.270750 0.075000
-0.225000 0.261766 0.150000
-0.225000 0.252623 0.225000
-0.177213 0.225000 0.225000
-0.225000 0.244425 0.300000
-0.189525 0.225000 0.300000
-0.225000 0.243436 0.375000
-0.164534 0.225000 0.375000
-0.225000 0.225000 0.488075
-0.225000 0.241746 0.450000
-0.150000 -0.332858 0.000000
-0.150000 -0.333690 0.075000
-0.150000 -0.322224 0.150000
-0.150000 -0.304092 0.450000
-0.150000 -0.233703 -0.975000
-0.150000 -0.254477 -0.900000
-0.150000 -0.238464 -0.825000
-0.079863 -0.300000 -0.825000
-0.150000 -0.228724 -0.150000
-0.150000 -0.300000 -0.062770
-0.150000 -0.292098 -0.075000
-0.150000 -0.300000 0.201745
-0.101361 -0.300000 0.150000
-0.150000 -0.288114 0.225000
-0.150000 -0.273669 0.300000
-0.150000 -0.300000 0.410432
-0.150000 -0.295768 0.375000
-0.150000 -0.300000 0.468560
-0.096263 -0.300000 0.450000
-0.150000 -0.280745 0.525000
-0.150000 -0.225000 -0.982729
-0.150000 -0.225000 -0.773740
-0.150000 -0.212727 -0.750000
-0.142315 -0.225000 -0.750000
-0.150000 -0.162860 -0.675000
-0.111546 -0.225000 -0.675000
-0.090914 -0.225000 -0.600000
-0.080270 -0.225000 -0.525000
-0.150000 -0.225000 -0.153395
-0.079476 -0.225000 0.225000
-0.095470 -0.225000 0.300000
-0.150000 -0.225000 0.575293
-0.150000 -0.186885 0.600000
-0.150000 -0.150000 -1.034256
-0.150000 -0.091459 -1.050000
-0.150000 -0.150000 -0.653442
-0.136050 -0.150000 -0.600000
-0.124475 -0.150000 -0.525000
-0.110578 -0.150000 -0.450000
-0.091295 -0.150000 -0.375000
-0.150000 -0.150000 -0.197328
-0.150000 -0.079097 -0.225000
-0.113235 -0.150000 -0.225000
-0.150000 -0.150000 0.618385
-0.150000 -0.075000 -1.054063
-0.150000 -0.075000 -0.601750
-0.149473 -0.075000 -0.600000
-0.136989 -0.075000 -0.525000
-0.128247 -0.075000 -0.450000
-0.116580 -0.075000 -0.375000
-0.150000 -0.075000 -0.227378
-0.106255 -0.075000 -0.300000
-0.150000 -0.075000 0.645997
-0.150000 0.000000 -1.058424
-0.150000 0.030939 -1.050000
-0.150000 0.000000 -0.614710
-0.150000 0.071919 -0.675000
-0.145280 0.000000 -0.600000
-0.133890 0.000000 -0.525000
-0.124077 0.000000 -0.450000
-0.111843 0.000000 -0.375000
-0.150000 0.000000 -0.232364
-0.106688 0.000000 -0.300000
-0.150000 0.011347 -0.225000
-0.150000 0.000000 0.647542
-0.150000 0.075000 -1.036202
-0.150000 0.075000 -0.678021
-0.150000 0.123315 -0.750000
-0.149147 0.075000 -0.675000
-0.132169 0.075000 -0.600000
-0.116333 0.075000 -0.525000
-0.104341 0.075000 -0.450000
-0.092447 0.075000 -0.375000
-0.084397 0.075000 -0.300000
-0.150000 0.075000 -0.196418
-0.114043 0.075000 -0.225000
-0.150000 0.075000 0.632974
-0.150000 0.129825 0.600000
-0.150000 0.150000 -0.982425
-0.150000 0.157512 -0.975000
-0.150000 0.177689 -0.900000
-0.150000 0.150000 -0.800268
-0.150000 0.157418 -0.825000
-0.135302 0.150000 -0.750000
-0.114769 0.150000 -0.675000
-0.092250 0.150000 -0.600000
-0.076014 0.150000 -0.525000
-0.150000 0.150000 -0.154369
-0.150000 0.155519 -0.150000
-0.150000 0.222754 -0.075000
-0.150000 0.206151 0.225000
-0.084267 0.150000 0.225000
-0.150000 0.200052 0.300000
-0.090362 0.150000 0.300000
-0.150000 0.220033 0.375000
-0.150000 0.150000 0.582999
-0.150000 0.209272 0.525000
-0.076468 0.225000 -0.825000
-0.150000 0.225000 -0.070493
-0.136848 0.225000 -0.075000
-0.150000 0.255857 0.000000
-0.150000 0.256128 0.075000
-0.150000 0.225000 0.184286
-0.150000 0.240026 0.150000
-0.120593 0.225000 0.150000
-0.150000 0.225000 0.403200
-0.150000 0.225000 0.480020
-0.150000 0.232283 0.450000
-0.086884 0.225000 0.450000
-0.075000 -0.303372 -0.825000
-0.075000 -0.336723 0.000000
-0.075000 -0.324284 0.075000
-0.075000 -0.248441 -0.975000
-0.075000 -0.300000 -0.883489
-0.075000 -0.299038 -0.900000
-0.007766 -0.300000 -0.900000
-0.075000 -0.300000 -0.814179
-0.075000 -0.276254 -0.750000
-0.026599 -0.300000 -0.750000
-0.075000 -0.251867 -0.675000
-0.002190 -0.300000 -0.675000
-0.075000 -0.239818 -0.600000
-0.000102 -0.300000 -0.600000
-0.075000 -0.230631 -0.525000
-0.075000 -0.253080 -0.150000
-0.075000 -0.300000 -0.073077
-0.075000 -0.298891 -0.075000
-0.071823 -0.300000 -0.075000
-0.075000 -0.300000 0.126062
-0.075000 -0.284434 0.150000
-0.075000 -0.265809 0.375000
-0.075000 -0.298399 0.450000
-0.075000 -0.287895 0.525000
-0.075000 -0.225000 -0.994669
-0.075000 -0.225000 -0.501149
-0.075000 -0.207621 -0.450000
-0.061710 -0.225000 -0.450000
-0.075000 -0.178067 -0.375000
-0.041831 -0.225000 -0.375000
-0.025908 -0.225000 -0.300000
-0.075000 -0.225000 -0.187510
-0.075000 -0.188831 -0.225000
-0.038967 -0.225000 -0.225000
-0.075000 -0.225000 0.219886
-0.075000 -0.219697 0.225000
-0.075000 -0.225000 0.327430
-0.075000 -0.199058 0.300000
-0.075000 -0.225000 0.579375
-0.075000 -0.191008 0.600000
-0.075000 -0.150000 -1.037430
-0.075000 -0.099648 -1.050000
-0.075000 -0.150000 -0.301964
-0.075000 -0.150000 -0.298797
-0.075000 -0.149005 -0.300000
-0.074567 -0.150000 -0.300000
-0.019413 -0.150000 0.225000
-0.036429 -0.150000 0.300000
-0.075000 -0.150000 0.620312
-0.075000 -0.075000 -1.056068
-0.003813 -0.075000 0.300000
-0.075000 -0.075000 0.648619
-0.075000 0.000000 -1.059484
-0.075000 0.044929 -1.050000
-0.002115 0.000000 0.300000
-0.075000 0.000000 0.650691
-0.075000 0.075000 -1.043322
-0.075000 0.138151 -0.450000
-0.075000 0.118798 -0.375000
-0.075000 0.096655 -0.300000
-0.075000 0.123940 -0.225000
-0.075000 0.136755 0.225000
-0.016804 0.075000 0.225000
-0.075000 0.129016 0.300000
-0.034495 0.075000 0.300000
-0.075000 0.075000 0.634321
-0.075000 0.131531 0.600000
-0.075000 0.150000 -0.988819
-0.075000 0.163110 -0.975000
-0.075000 0.220618 -0.900000
-0.075000 0.207501 -0.750000
-0.075000 0.189209 -0.675000
-0.075000 0.168485 -0.600000
-0.075000 0.150000 -0.514444
-0.075000 0.151222 -0.525000
-0.067647 0.150000 -0.450000
-0.057155 0.150000 -0.375000
-0.044401 0.150000 -0.300000
-0.075000 0.150000 -0.201545
-0.054877 0.150000 -0.225000
-0.075000 0.187832 -0.150000
-0.075000 0.150000 0.214003
-0.075000 0.198886 0.150000
-0.075000 0.150000 0.319911
-0.075000 0.184994 0.375000
-0.075000 0.223428 0.450000
-0.075000 0.150000 0.584272
-0.075000 0.205520 0.525000
-0.075000 0.225000 -0.839782
-0.075000 0.225000 -0.819983
-0.075000 0.225948 -0.825000
-0.029304 0.225000 -0.750000
-0.009437 0.225000 -0.675000
-0.075000 0.225000 -0.091721
-0.075000 0.234826 -0.075000
-0.075000 0.264602 0.000000
-0.075000 0.225000 0.111986
-0.075000 0.247167 0.075000
0.000000 -0.300108 -0.900000
0.000000 -0.314091 -0.825000
0.000000 -0.310373 -0.750000
0.000000 -0.301290 -0.675000
0.000000 -0.300068 -0.600000
0.000000 -0.324307 -0.075000
0.000000 -0.336949 0.000000
0.000000 -0.308932 0.075000
0.000000 -0.300000 -0.900221
0.000000 -0.250243 -0.975000
0.000213 -0.300000 -0.900000
0.033387 -0.300000 -0.825000
0.033967 -0.300000 -0.750000
0.020116 -0.300000 -0.675000
0.000000 -0.300000 -0.598428
0.000000 -0.295676 -0.525000
0.042014 -0.300000 -0.525000
0.000000 -0.284180 -0.450000
0.047633 -0.300000 -0.450000
0.000000 -0.263592 -0.375000
0.059799 -0.300000 -0.375000
0.000000 -0.250207 -0.300000
0.067508 -0.300000 -0.300000
0.000000 -0.256830 -0.225000
0.053266 -0.300000 -0.225000
0.000000 -0.300000 -0.127110
0.000000 -0.288103 -0.150000
0.019854 -0.300000 -0.150000
0.000000 -0.300000 0.087257
0.000000 -0.234446 0.150000
0.000000 -0.233204 0.375000
0.000000 -0.297102 0.450000
0.026114 -0.300000 0.450000
0.000000 -0.292410 0.525000
0.000000 -0.225000 -0.997470
0.060971 -0.225000 -0.975000
0.000000 -0.225000 0.158166
0.000000 -0.225000 0.368210
0.000000 -0.225000 0.582055
0.000000 -0.194121 0.600000
0.000000 -0.150000 -1.040483
0.000000 -0.116926 -1.050000
0.000000 -0.150000 0.205125
0.000000 -0.106459 0.225000
0.026010 -0.150000 0.225000
0.000000 -0.150000 0.330969
0.042386 -0.150000 0.300000
0.000000 -0.150000 0.621886
0.000000 -0.075000 -1.061610
0.000000 -0.075000 0.282549
0.000000 -0.075000 0.303753
0.004184 -0.075000 0.300000
0.000000 -0.075000 0.650412
0.000000 0.000000 -1.064604
0.000000 0.064070 -1.050000
0.000000 0.000000 0.290500
0.000000 0.043783 0.225000
0.000000 0.000000 0.302067
0.002687 0.000000 0.300000
0.000000 0.000000 0.653816
0.000000 0.075000 -1.047488
0.000000 0.075000 0.214374
0.016471 0.075000 0.225000
0.000000 0.075000 0.328667
0.038897 0.075000 0.300000
0.000000 0.075000 0.634782
0.000000 0.134564 0.600000
0.000000 0.150000 -1.003646
0.000000 0.175988 -0.975000
0.000000 0.224122 -0.900000
0.000000 0.224651 -0.600000
0.000000 0.218426 -0.525000
0.000000 0.209418 -0.450000
0.000000 0.194370 -0.375000
0.000000 0.188141 -0.300000
0.000000 0.198939 -0.225000
0.000000 0.222995 -0.150000
0.000000 0.150000 0.166673
0.000000 0.169739 0.150000
0.000000 0.150000 0.365079
0.000000 0.159641 0.375000
0.000000 0.218636 0.450000
0.000000 0.150000 0.586714
0.000000 0.201830 0.525000
0.000000 0.225000 -0.896598
0.000000 0.241278 -0.825000
0.031381 0.225000 -0.825000
0.000000 0.233349 -0.750000
0.029249 0.225000 -0.750000
0.000000 0.225000 -0.604957
0.000000 0.229077 -0.675000
0.036511 0.225000 -0.675000
0.069582 0.225000 -0.375000
0.065567 0.225000 -0.300000
0.050109 0.225000 -0.225000
0.000000 0.225000 -0.146009
0.004520 0.225000 -0.150000
0.000000 0.256719 -0.075000
0.000000 0.268528 0.000000
0.000000 0.225000 0.076255
0.000000 0.225738 0.075000
0.054191 0.225000 0.450000
0.075000 -0.300092 -0.600000
0.075000 -0.302507 -0.525000
0.075000 -0.306742 -0.450000
0.075000 -0.307346 -0.375000
0.075000 -0.304327 -0.300000
0.075000 -0.314692 -0.225000
0.075000 -0.329750 -0.150000
0.075000 -0.342375 -0.075000
0.075000 -0.330666 0.000000
0.075000 -0.308715 0.075000
0.075000 -0.304819 0.450000
0.075000 -0.253964 -0.900000
0.075000 -0.278558 -0.825000
0.075000 -0.285903 -0.750000
0.075000 -0.300000 -0.601961
0.075000 -0.296091 -0.675000
0.075182 -0.300000 -0.600000
0.081045 -0.300000 -0.525000
0.098767 -0.300000 -0.450000
0.075000 -0.300000 0.093165
0.075000 -0.263116 0.150000
0.075000 -0.300000 0.439798
0.075000 -0.261260 0.375000
0.075000 -0.300000 0.506252
0.075000 -0.297611 0.525000
0.075000 -0.225000 -0.963608
0.075000 -0.216880 -0.975000
0.107156 -0.225000 -0.900000
0.134679 -0.225000 -0.825000
0.075000 -0.225000 0.195849
0.075000 -0.195814 0.225000
0.095421 -0.225000 0.225000
0.075000 -0.225000 0.323846
0.075000 -0.195300 0.300000
0.092815 -0.225000 0.300000
0.075000 -0.225000 0.583768
0.075000 -0.195869 0.600000
0.075000 -0.150000 -1.031734
0.075000 -0.120070 -1.050000
0.124833 -0.150000 -0.975000
0.075000 -0.150000 0.623313
0.075000 -0.075000 -1.067271
0.112689 -0.075000 -1.050000
0.075000 -0.075000 0.651585
0.075000 0.000000 -1.070293
0.075000 0.057639 -1.050000
0.115298 0.000000 -1.050000
0.075000 0.000000 0.656316
0.075000 0.075000 -1.041820
0.131859 0.075000 -0.975000
0.075000 0.126202 0.225000
0.075000 0.119645 0.300000
0.075000 0.075000 0.634724
0.075000 0.135959 0.600000
0.075000 0.150000 -0.982663
0.075000 0.156534 -0.975000
0.082186 0.150000 -0.975000
0.075000 0.182266 -0.900000
0.108062 0.150000 -0.900000
0.075000 0.199159 -0.825000
0.135012 0.150000 -0.825000
0.075000 0.210402 -0.750000
0.075000 0.220063 -0.675000
0.075000 0.221722 -0.600000
0.075000 0.219006 -0.525000
0.075000 0.223367 -0.450000
0.075000 0.150000 0.200049
0.075000 0.186158 0.150000
0.095175 0.150000 0.225000
0.075000 0.150000 0.323463
0.095118 0.150000 0.300000
0.075000 0.186974 0.375000
0.075000 0.150000 0.588898
0.075000 0.205862 0.525000
0.075000 0.225000 -0.419150
0.075000 0.227106 -0.375000
0.082415 0.225000 -0.375000
0.075000 0.229570 -0.300000
0.075000 0.235299 -0.225000
0.075000 0.251988 -0.150000
0.075000 0.271699 -0.075000
0.075000 0.272138 0.000000
0.075000 0.225000 0.088929
0.075000 0.233583 0.075000
0.075000 0.225000 0.445881
0.075000 0.225000 0.458345
0.075000 0.226916 0.450000
0.150000 -0.303269 -0.375000
0.150000 -0.322117 -0.300000
0.150000 -0.334513 -0.225000
0.150000 -0.343340 -0.150000
0.150000 -0.348334 -0.075000
0.150000 -0.342203 0.000000
0.150000 -0.322998 0.075000
0.150000 -0.302560 0.450000
0.150000 -0.229321 -0.750000
0.150000 -0.239582 -0.675000
0.150000 -0.252314 -0.600000
0.150000 -0.266139 -0.525000
0.150000 -0.300000 -0.387827
0.150000 -0.283330 -0.450000
0.156163 -0.300000 -0.375000
0.195330 -0.300000 -0.300000
0.150000 -0.300000 0.139556
0.150000 -0.296099 0.150000
0.167872 -0.300000 0.150000
0.150000 -0.276900 0.225000
0.205271 -0.300000 0.225000
0.150000 -0.274888 0.300000
0.215732 -0.300000 0.300000
0.150000 -0.300000 0.427873
0.150000 -0.293221 0.375000
0.150000 -0.300000 0.471230
0.156588 -0.300000 0.450000
0.150000 -0.291715 0.525000
0.150000 -0.153324 -0.900000
0.150000 -0.225000 -0.766065
0.150000 -0.199660 -0.825000
0.153730 -0.225000 -0.750000
0.162858 -0.225000 -0.675000
0.174957 -0.225000 -0.600000
0.189039 -0.225000 -0.525000
0.214200 -0.225000 -0.450000
0.150000 -0.225000 0.586113
0.150000 -0.199489 0.600000
0.150000 -0.150000 -0.905745
0.150000 -0.107786 -0.975000
0.151625 -0.150000 -0.900000
0.175475 -0.150000 -0.825000
0.198555 -0.150000 -0.750000
0.206207 -0.150000 -0.675000
0.214309 -0.150000 -0.600000
0.150000 -0.150000 0.625217
0.150000 -0.075000 -1.008728
0.164387 -0.075000 -0.975000
0.187144 -0.075000 -0.900000
0.211331 -0.075000 -0.825000
0.150000 -0.075000 0.652244
0.150000 0.000000 -0.997265
0.150000 0.023742 -0.975000
0.157564 0.000000 -0.975000
0.181790 0.000000 -0.900000
0.205931 0.000000 -0.825000
0.219507 0.000000 -0.750000
0.150000 0.000000 0.658301
0.150000 0.075000 -0.928686
0.150000 0.091231 -0.900000
0.160516 0.075000 -0.900000
0.150000 0.131163 -0.825000
0.183506 0.075000 -0.825000
0.201496 0.075000 -0.750000
0.210305 0.075000 -0.675000
0.215594 0.075000 -0.600000
0.150000 0.075000 0.634268
0.150000 0.138163 0.600000
0.216603 0.075000 0.600000
0.150000 0.150000 -0.786513
0.150000 0.162896 -0.750000
0.162479 0.150000 -0.750000
0.150000 0.169773 -0.675000
0.169647 0.150000 -0.675000
0.150000 0.172904 -0.600000
0.173694 0.150000 -0.600000
0.150000 0.174321 -0.525000
0.176900 0.150000 -0.525000
0.150000 0.182420 -0.450000
0.192238 0.150000 -0.450000
0.150000 0.203326 -0.375000
0.150000 0.221130 0.150000
0.150000 0.204493 0.225000
0.150000 0.207145 0.300000
0.150000 0.217864 0.375000
0.150000 0.150000 0.591538
0.150000 0.214437 0.525000
0.150000 0.225000 -0.317704
0.150000 0.231277 -0.300000
0.164301 0.225000 -0.300000
0.150000 0.252629 -0.225000
0.222388 0.225000 -0.225000
0.150000 0.267273 -0.150000
0.150000 0.276852 -0.075000
0.150000 0.273194 0.000000
0.150000 0.225000 0.140077
0.150000 0.250662 0.075000
0.164904 0.225000 0.150000
0.198555 0.225000 0.225000
0.210426 0.225000 0.300000
0.150000 0.225000 0.424001
0.150000 0.225000 0.472561
0.150000 0.228272 0.450000
0.162875 0.225000 0.450000
0.225000 -0.305148 -0.225000
0.225000 -0.319430 -0.150000
0.225000 -0.327890 -0.075000
0.225000 -0.322399 0.000000
0.225000 -0.317745 0.075000
0.225000 -0.311856 0.150000
0.225000 -0.307089 0.225000
0.225000 -0.303035 0.300000
0.225000 -0.254368 -0.375000
0.225000 -0.300000 -0.243337
0.225000 -0.283284 -0.300000
0.233445 -0.300000 -0.225000
0.256920 -0.300000 -0.150000
0.270300 -0.300000 -0.075000
0.265378 -0.300000 0.000000
0.259789 -0.300000 0.075000
0.253234 -0.300000 0.150000
0.246401 -0.300000 0.225000
0.225000 -0.300000 0.339068
0.233977 -0.300000 0.300000
0.225000 -0.296490 0.375000
0.225000 -0.265782 0.450000
0.225000 -0.231821 0.525000
0.225000 -0.155174 -0.525000
0.225000 -0.225000 -0.428691
0.225000 -0.203481 -0.450000
0.252131 -0.225000 -0.375000
0.285603 -0.225000 -0.300000
0.281275 -0.225000 0.450000
0.225000 -0.225000 0.534977
0.232181 -0.225000 0.525000
0.225000 -0.173067 0.600000
0.225000 -0.078483 -0.750000
0.225000 -0.086369 -0.675000
0.225000 -0.150000 -0.539375
0.225000 -0.107106 -0.600000
0.227538 -0.150000 -0.525000
0.248984 -0.150000 -0.450000
0.286413 -0.150000 -0.375000
0.282020 -0.150000 0.525000
0.225000 -0.150000 0.615815
0.240977 -0.150000 0.600000
0.225000 -0.075000 -0.756581
0.225000 -0.061848 -0.750000
0.226155 -0.075000 -0.750000
0.228141 -0.075000 -0.675000
0.232426 -0.075000 -0.600000
0.243934 -0.075000 -0.525000
0.267472 -0.075000 -0.450000
0.225000 -0.075000 0.627854
0.253342 -0.075000 0.600000
0.225000 0.000000 -0.678543
0.225000 0.001366 -0.675000
0.225266 0.000000 -0.675000
0.225000 0.032094 -0.600000
0.231682 0.000000 -0.600000
0.245201 0.000000 -0.525000
0.268543 0.000000 -0.450000
0.225000 0.000000 0.625940
0.225000 0.062090 0.600000
0.250198 0.000000 0.600000
0.225000 0.075000 -0.540393
0.225000 0.079329 -0.525000
0.227504 0.075000 -0.525000
0.225000 0.111918 -0.450000
0.249218 0.075000 -0.450000
0.283115 0.075000 -0.375000
0.225000 0.075000 0.593433
0.278953 0.075000 0.525000
0.225000 0.150000 -0.402022
0.225000 0.164477 -0.375000
0.241556 0.150000 -0.375000
0.225000 0.195472 -0.300000
0.287409 0.150000 -0.300000
0.225000 0.223872 -0.225000
0.225000 0.222218 0.375000
0.225000 0.206150 0.450000
0.293480 0.150000 0.450000
0.225000 0.150000 0.543687
0.225000 0.168613 0.525000
0.242968 0.150000 0.525000
0.225000 0.225000 -0.220497
0.225000 0.241272 -0.150000
0.257516 0.225000 -0.150000
0.225000 0.255568 -0.075000
0.277207 0.225000 -0.075000
0.225000 0.254473 0.000000
0.276211 0.225000 0.000000
0.225000 0.247829 0.075000
0.270349 0.225000 0.075000
0.225000 0.239942 0.150000
0.260514 0.225000 0.150000
0.225000 0.233076 0.225000
0.250595 0.225000 0.225000
0.225000 0.225000 0.339626
0.225000 0.228004 0.300000
0.235785 0.225000 0.300000
0.300000 -0.252091 -0.225000
0.300000 -0.270115 -0.150000
0.300000 -0.278568 -0.075000
0.300000 -0.278666 0.000000
0.300000 -0.277122 0.075000
0.300000 -0.277919 0.150000
0.300000 -0.279214 0.225000
0.300000 -0.272352 0.300000
0.300000 -0.246906 0.375000
0.300000 -0.225000 -0.272637
0.300000 -0.200058 -0.300000
0.326506 -0.225000 -0.225000
0.344882 -0.225000 -0.150000
0.352073 -0.225000 -0.075000
0.356005 -0.225000 0.000000
0.358147 -0.225000 0.075000
0.359738 -0.225000 0.150000
0.360393 -0.225000 0.225000
0.357757 -0.225000 0.300000
0.300000 -0.225000 0.421568
0.327702 -0.225000 0.375000
0.300000 -0.206131 0.450000
0.300000 -0.150000 -0.350015
0.300000 -0.096436 -0.375000
0.329153 -0.150000 -0.300000
0.300000 -0.150000 0.501537
0.342753 -0.150000 0.450000
0.300000 -0.093114 0.525000
0.300000 -0.075000 -0.385028
0.305405 -0.075000 -0.375000
0.355094 -0.075000 -0.300000
0.300000 -0.075000 0.533082
0.306240 -0.075000 0.525000
0.300000 0.000000 -0.390301
0.300000 0.026459 -0.375000
0.308708 0.000000 -0.375000
0.356071 0.000000 -0.300000
0.300000 0.000000 0.536683
0.300000 0.022607 0.525000
0.309076 0.000000 0.525000
0.300000 0.075000 -0.345598
0.300000 0.130262 -0.300000
0.328168 0.075000 -0.300000
0.374213 0.075000 -0.225000
0.300000 0.075000 0.499728
0.300000 0.140729 0.450000
0.344360 0.075000 0.450000
0.300000 0.150000 -0.277553
0.300000 0.173956 -0.225000
0.323692 0.150000 -0.225000
0.300000 0.197704 -0.150000
0.341047 0.150000 -0.150000
0.300000 0.207009 -0.075000
0.346708 0.150000 -0.075000
0.300000 0.207631 0.000000
0.349816 0.150000 0.000000
0.300000 0.207324 0.075000
0.352198 0.150000 0.075000
0.300000 0.205478 0.150000
0.354295 0.150000 0.150000
0.300000 0.205403 0.225000
0.356297 0.150000 0.225000
0.300000 0.200842 0.300000
0.356157 0.150000 0.300000
0.300000 0.150000 0.436118
0.300000 0.180161 0.375000
0.330161 0.150000 0.375000
0.375000 -0.151105 -0.225000
0.375000 -0.176997 -0.150000
0.375000 -0.184618 -0.075000
0.375000 -0.189714 0.000000
0.375000 -0.194379 0.075000
0.375000 -0.196623 0.150000
0.375000 -0.197375 0.225000
0.375000 -0.198175 0.300000
0.375000 -0.174960 0.375000
0.375000 -0.150000 -0.226115
0.375612 -0.150000 -0.225000
0.388662 -0.150000 -0.150000
0.391007 -0.150000 -0.075000
0.392238 -0.150000 0.000000
0.393973 -0.150000 0.075000
0.394558 -0.150000 0.150000
0.394682 -0.150000 0.225000
0.396122 -0.150000 0.300000
0.375000 -0.150000 0.403750
0.391412 -0.150000 0.375000
0.375000 -0.077212 0.450000
0.375000 -0.075000 -0.270131
0.400449 -0.075000 -0.225000
0.409949 -0.075000 -0.150000
0.412234 -0.075000 -0.075000
0.411916 -0.075000 0.000000
0.409836 -0.075000 0.075000
0.408073 -0.075000 0.150000
0.407599 -0.075000 0.225000
0.409606 -0.075000 0.300000
0.412045 -0.075000 0.375000
0.375000 -0.075000 0.451061
0.375879 -0.075000 0.450000
0.375000 0.000000 -0.263564
0.375000 0.072271 -0.225000
0.392731 0.000000 -0.225000
0.402705 0.000000 -0.150000
0.405753 0.000000 -0.075000
0.405812 0.000000 0.000000
0.404460 0.000000 0.075000
0.404616 0.000000 0.150000
0.406162 0.000000 0.225000
0.407922 0.000000 0.300000
0.407037 0.000000 0.375000
0.375000 0.000000 0.450196
0.375000 0.000450 0.450000
0.375159 0.000000 0.450000
0.375000 0.075000 -0.219602
0.375000 0.091954 -0.150000
0.383663 0.075000 -0.150000
0.375000 0.098642 -0.075000
0.386523 0.075000 -0.075000
0.375000 0.102587 0.000000
0.387890 0.075000 0.000000
0.375000 0.104085 0.075000
0.387828 0.075000 0.075000
0.375000 0.105729 0.150000
0.387312 0.075000 0.150000
0.375000 0.107819 0.225000
0.386537 0.075000 0.225000
0.375000 0.111230 0.300000
0.387156 0.075000 0.300000
0.375000 0.075000 0.400546
0.375000 0.095907 0.375000
0.386790 0.075000 0.375000
3 37 25 0
3 25 27 1
3 0 25 1
3 27 29 2
3 1 27 2
3 29 31 3
3 2 29 3
3 31 33 4
3 3 31 4
3 33 40 4
3 43 38 5
3 38 37 0
3 38 0 5
3 5 0 6
3 0 1 6
3 1 7 6
3 1 2 7
3 2 8 7
3 2 3 8
3 3 9 8
3 3 4 9
3 4 10 9
3 40 41 11
3 40 11 4
3 4 11 10
3 41 45 11
3 47 43 5
3 12 47 5
3 5 6 12
3 6 13 12
3 6 7 13
3 7 14 13
3 7 8 14
3 8 15 14
3 8 9 15
3 9 16 15
3 9 10 16
3 10 17 16
3 10 11 17
3 11 18 17
3 45 50 18
3 11 45 18
3 47 12 49
3 54 49 12
3 54 12 19
3 19 12 13
3 13 14 19
3 14 20 19
3 14 15 20
3 15 21 20
3 15 16 21
3 16 22 21
3 16 17 22
3 17 23 22
3 51 60 23
3 51 23 18
3 18 23 17
3 18 50 51
3 54 19 56
3 19 20 57
3 56 19 57
3 20 21 58
3 57 20 58
3 21 22 59
3 58 21 59
3 22 23 61
3 59 22 61
3 23 60 61
3 82 70 24
3 70 71 26
3 24 70 26
3 71 73 28
3 26 71 28
3 73 75 30
3 28 73 30
3 75 77 32
3 30 75 32
3 77 79 34
3 32 77 34
3 79 81 35
3 34 79 35
3 81 85 35
3 86 83 36
3 83 82 24
3 83 24 36
3 36 24 39
3 37 26 25
3 37 39 26
3 39 24 26
3 28 25 26
3 27 25 28
3 30 27 28
3 29 27 30
3 32 29 30
3 31 29 32
3 34 31 32
3 33 31 34
3 33 42 40
3 33 34 42
3 34 35 42
3 85 87 42
3 35 85 42
3 90 86 36
3 44 90 36
3 43 39 38
3 43 44 39
3 44 36 39
3 42 41 40
3 41 46 45
3 42 46 41
3 42 88 46
3 42 87 88
3 88 91 46
3 93 90 44
3 48 93 44
3 44 47 48
3 43 47 44
3 52 45 46
3 50 45 52
3 91 94 52
3 46 91 52
3 97 93 48
3 53 97 48
3 49 48 47
3 49 55 48
3 55 53 48
3 49 54 55
3 51 62 60
3 62 95 99
3 51 95 62
3 51 52 95
3 51 50 52
3 52 94 95
3 97 53 98
3 101 98 53
3 101 53 63
3 63 53 55
3 56 55 54
3 56 64 55
3 64 63 55
3 57 64 56
3 65 64 57
3 58 65 57
3 66 65 58
3 59 66 58
3 67 66 59
3 61 67 59
3 68 67 61
3 60 68 61
3 60 62 68
3 62 69 68
3 99 109 69
3 62 99 69
3 101 63 103
3 63 64 104
3 103 63 104
3 64 65 105
3 104 64 105
3 65 66 106
3 105 65 106
3 66 67 107
3 106 66 107
3 67 68 108
3 107 67 108
3 68 69 110
3 108 68 110
3 69 109 110
3 122 116 72
3 116 117 74
3 72 116 74
3 117 118 76
3 74 117 76
3 118 119 78
3 76 118 78
3 119 120 80
3 78 119 80
3 120 125 80
3 128 121 84
3 82 84 121
3 82 121 70
3 70 121 123
3 72 123 122
3 72 71 123
3 71 70 123
3 74 71 72
3 73 71 74
3 76 73 74
3 75 73 76
3 78 75 76
3 77 75 78
3 80 77 78
3 79 77 80
3 125 79 80
3 125 126 79
3 126 81 79
3 81 126 129
3 85 81 129
3 84 83 86
3 84 86 128
3 128 86 132
3 84 82 83
3 89 129 130
3 89 87 129
3 87 85 129
3 130 134 89
3 132 86 137
3 137 86 90
3 89 88 87
3 88 92 91
3 89 92 88
3 89 135 92
3 89 134 135
3 135 139 92
3 137 90 140
3 140 90 93
3 96 91 92
3 94 91 96
3 139 142 96
3 92 139 96
3 140 93 144
3 144 93 97
3 95 100 99
3 100 143 146
3 95 143 100
3 95 96 143
3 95 94 96
3 96 142 143
3 98 102 149
3 98 149 97
3 97 149 144
3 98 101 102
3 147 99 100
3 147 152 99
3 152 109 99
3 100 146 147
3 149 102 150
3 102 101 103
3 102 103 150
3 150 103 151
3 155 104 111
3 155 151 104
3 151 103 104
3 105 111 104
3 112 111 105
3 106 112 105
3 113 112 106
3 107 113 106
3 114 113 107
3 108 114 107
3 115 114 108
3 115 153 161
3 115 108 153
3 108 110 153
3 153 110 109
3 152 153 109
3 155 111 157
3 111 112 158
3 157 111 158
3 112 113 159
3 158 112 159
3 113 114 160
3 159 113 160
3 114 115 162
3 160 114 162
3 115 161 162
3 122 124 164
3 122 164 116
3 116 164 165
3 165 166 116
3 116 166 117
3 166 167 117
3 117 167 118
3 167 168 118
3 118 168 119
3 168 169 119
3 119 169 120
3 127 125 120
3 127 120 170
3 170 120 169
3 170 173 127
3 128 175 172
3 121 128 172
3 124 172 171
3 124 123 172
3 123 121 172
3 124 122 123
3 127 126 125
3 126 131 129
3 127 131 126
3 127 174 131
3 127 173 174
3 174 177 131
3 176 132 133
3 176 175 132
3 175 128 132
3 131 130 129
3 130 136 134
3 131 136 130
3 131 178 136
3 131 177 178
3 178 181 136
3 185 180 133
3 138 185 133
3 133 137 138
3 132 137 133
3 136 135 134
3 135 136 181
3 135 181 139
3 139 181 186
3 190 185 138
3 141 190 138
3 138 140 141
3 137 140 138
3 186 191 139
3 191 142 139
3 193 190 141
3 145 193 141
3 141 144 145
3 140 144 141
3 143 148 146
3 148 143 142
3 148 142 195
3 195 142 191
3 193 145 194
3 145 197 194
3 145 144 197
3 144 149 197
3 147 154 152
3 154 196 199
3 147 196 154
3 147 148 196
3 147 146 148
3 148 195 196
3 197 149 150
3 198 197 150
3 201 151 156
3 201 198 151
3 198 150 151
3 151 155 156
3 153 163 161
3 163 200 208
3 153 200 163
3 153 154 200
3 153 152 154
3 154 199 200
3 156 155 157
3 156 157 202
3 202 157 203
3 203 157 204
3 157 158 204
3 204 158 205
3 158 159 205
3 205 159 206
3 159 160 206
3 206 160 207
3 160 162 207
3 161 163 209
3 161 209 162
3 162 209 207
3 171 217 210
3 164 171 210
3 210 211 164
3 164 211 165
3 211 212 165
3 165 212 166
3 212 213 166
3 166 213 167
3 213 214 167
3 167 214 168
3 214 215 168
3 168 215 169
3 215 216 169
3 169 216 170
3 170 216 222
3 173 170 222
3 175 228 218
3 172 175 218
3 218 171 172
3 217 171 218
3 222 174 173
3 223 174 222
3 174 223 231
3 177 174 231
3 233 224 179
3 224 235 179
3 180 241 229
3 176 180 229
3 229 175 176
3 228 175 229
3 231 178 177
3 232 178 231
3 178 232 242
3 181 178 242
3 243 234 182
3 234 233 179
3 234 179 182
3 182 179 183
3 235 236 184
3 235 184 179
3 179 184 183
3 236 244 184
3 241 180 248
3 248 180 185
3 242 250 181
3 250 186 181
3 251 243 182
3 187 251 182
3 182 183 187
3 183 188 187
3 183 184 188
3 184 189 188
3 244 253 189
3 184 244 189
3 248 185 258
3 258 185 190
3 250 260 186
3 260 191 186
3 251 187 252
3 261 252 187
3 261 187 192
3 192 187 188
3 254 262 192
3 254 192 189
3 189 192 188
3 189 253 254
3 258 190 267
3 267 190 193
3 260 269 191
3 269 195 191
3 261 192 263
3 192 262 263
3 267 193 194
3 268 267 194
3 194 274 268
3 197 274 194
3 199 270 277
3 196 270 199
3 270 196 195
3 269 270 195
3 274 197 198
3 276 274 198
3 198 279 276
3 201 279 198
3 208 278 289
3 200 278 208
3 278 200 199
3 277 278 199
3 279 201 202
3 280 279 202
3 280 202 281
3 202 203 281
3 281 203 282
3 203 204 282
3 282 204 283
3 204 205 283
3 283 205 285
3 205 206 285
3 285 206 287
3 206 207 287
3 287 207 290
3 207 209 290
3 290 209 208
3 289 290 208
3 217 300 291
3 210 217 291
3 291 292 210
3 210 292 211
3 292 293 211
3 211 293 212
3 302 219 213
3 302 213 293
3 293 213 212
3 214 213 219
3 220 214 219
3 215 214 220
3 221 215 220
3 221 306 294
3 221 294 215
3 215 294 216
3 216 294 308
3 222 216 308
3 311 295 225
3 295 296 226
3 225 295 226
3 296 297 227
3 226 296 227
3 297 312 227
3 319 299 230
3 228 230 299
3 228 299 218
3 218 299 301
3 301 217 218
3 300 217 301
3 302 304 219
3 219 305 220
3 304 305 219
3 220 307 221
3 305 307 220
3 308 223 222
3 310 223 308
3 223 310 322
3 231 223 322
3 225 224 233
3 225 233 311
3 311 233 324
3 224 237 235
3 224 225 237
3 225 226 237
3 226 227 237
3 227 238 237
3 312 313 239
3 312 239 227
3 227 239 238
3 313 315 240
3 239 313 240
3 315 326 240
3 230 229 241
3 230 241 319
3 319 241 331
3 230 228 229
3 322 232 231
3 323 232 322
3 232 323 334
3 242 232 334
3 243 335 325
3 234 243 325
3 325 233 234
3 324 233 325
3 237 236 235
3 236 245 244
3 236 237 245
3 237 238 245
3 238 239 245
3 239 246 245
3 239 240 246
3 240 247 246
3 326 336 247
3 240 326 247
3 341 332 249
3 332 248 249
3 332 331 248
3 331 241 248
3 334 343 242
3 343 250 242
3 335 243 344
3 344 243 251
3 255 244 245
3 253 244 255
3 245 246 255
3 246 256 255
3 246 247 256
3 247 257 256
3 336 346 257
3 247 336 257
3 352 341 249
3 259 352 249
3 249 258 259
3 248 258 249
3 343 355 250
3 355 260 250
3 344 251 252
3 345 344 252
3 252 356 345
3 261 356 252
3 253 264 254
3 253 255 264
3 255 265 264
3 255 256 265
3 256 266 265
3 347 357 266
3 347 266 257
3 257 266 256
3 257 346 347
3 259 365 354
3 259 258 365
3 258 267 365
3 355 367 260
3 367 269 260
3 263 271 369
3 263 369 261
3 261 369 356
3 262 271 263
3 262 264 271
3 264 272 271
3 264 265 272
3 265 273 272
3 358 372 273
3 358 273 266
3 266 273 265
3 266 357 358
3 268 275 378
3 268 378 267
3 267 378 365
3 268 274 275
3 277 368 386
3 270 368 277
3 368 270 269
3 367 368 269
3 369 271 370
3 271 272 371
3 370 271 371
3 272 273 373
3 371 272 373
3 378 275 379
3 275 274 276
3 275 276 379
3 379 276 380
3 276 389 380
3 279 389 276
3 393 284 381
3 381 286 383
3 284 286 381
3 383 288 385
3 286 288 383
3 385 288 396
3 289 387 397
3 278 387 289
3 387 278 277
3 386 387 277
3 389 279 280
3 391 389 280
3 391 280 392
3 280 281 392
3 392 281 394
3 281 282 394
3 284 393 394
3 284 394 283
3 283 394 282
3 286 284 283
3 285 286 283
3 288 286 285
3 287 288 285
3 396 288 287
3 396 287 398
3 398 287 290
3 398 290 289
3 397 398 289
3 404 400 298
3 400 407 298
3 300 416 401
3 291 300 401
3 401 402 291
3 291 402 292
3 419 303 293
3 419 293 402
3 402 293 292
3 293 303 302
3 294 306 309
3 294 309 308
3 311 424 403
3 295 311 403
3 403 405 295
3 295 405 296
3 298 405 404
3 298 297 405
3 297 296 405
3 297 314 312
3 298 314 297
3 298 408 314
3 298 407 408
3 408 410 316
3 314 408 316
3 410 412 317
3 316 410 317
3 412 414 318
3 317 412 318
3 414 425 318
3 319 431 415
3 299 319 415
3 415 417 299
3 299 417 301
3 417 300 301
3 416 300 417
3 419 420 303
3 434 320 304
3 420 434 304
3 420 304 302
3 420 302 303
3 305 304 320
3 321 305 320
3 321 436 421
3 321 421 305
3 305 421 307
3 306 422 309
3 306 307 422
3 307 421 422
3 309 310 308
3 309 422 310
3 422 423 310
3 310 423 438
3 322 310 438
3 424 311 440
3 440 311 324
3 314 313 312
3 316 313 314
3 315 313 316
3 315 327 326
3 315 316 327
3 316 317 327
3 317 318 327
3 318 328 327
3 425 426 329
3 425 329 318
3 318 329 328
3 426 428 330
3 329 426 330
3 428 442 330
3 443 432 333
3 432 331 333
3 432 431 331
3 431 319 331
3 434 435 320
3 320 437 321
3 435 437 320
3 321 437 436
3 438 323 322
3 439 323 438
3 323 439 448
3 334 323 448
3 335 449 441
3 325 335 441
3 441 324 325
3 440 324 441
3 337 326 327
3 336 326 337
3 327 328 337
3 328 338 337
3 328 329 338
3 329 339 338
3 329 330 339
3 330 340 339
3 442 444 342
3 442 342 330
3 330 342 340
3 333 332 341
3 443 333 341
3 443 341 342
3 443 342 444
3 333 331 332
3 448 451 334
3 451 343 334
3 449 335 452
3 452 335 344
3 348 336 337
3 346 336 348
3 337 338 348
3 338 349 348
3 338 339 349
3 339 350 349
3 339 340 350
3 340 351 350
3 340 342 351
3 342 353 351
3 342 352 353
3 341 352 342
3 451 455 343
3 455 355 343
3 452 344 345
3 453 452 345
3 345 456 453
3 356 456 345
3 346 359 347
3 346 348 359
3 348 360 359
3 348 349 360
3 349 361 360
3 349 350 361
3 350 362 361
3 350 351 362
3 351 363 362
3 351 353 363
3 353 364 363
3 354 353 352
3 354 366 353
3 366 364 353
3 354 365 366
3 455 465 355
3 465 367 355
3 456 356 467
3 467 356 369
3 358 374 372
3 357 374 358
3 357 359 374
3 359 375 374
3 359 360 375
3 360 376 375
3 360 361 376
3 361 377 376
3 457 473 377
3 457 377 362
3 362 377 361
3 362 363 458
3 457 362 458
3 363 364 459
3 458 363 459
3 364 366 460
3 459 364 460
3 366 478 460
3 366 365 478
3 365 378 478
3 481 382 461
3 461 384 463
3 382 384 461
3 463 384 483
3 386 466 486
3 368 466 386
3 466 368 367
3 465 466 367
3 467 369 370
3 468 467 370
3 468 370 469
3 370 371 469
3 488 373 388
3 488 469 373
3 469 371 373
3 388 470 489
3 373 470 388
3 373 374 470
3 373 372 374
3 374 375 471
3 470 374 471
3 375 376 472
3 471 375 472
3 376 377 474
3 472 376 474
3 377 473 474
3 478 378 379
3 480 478 379
3 493 380 390
3 493 480 380
3 480 379 380
3 380 389 390
3 496 395 482
3 382 393 381
3 481 393 382
3 481 395 393
3 481 482 395
3 384 382 381
3 383 384 381
3 483 384 383
3 483 383 484
3 484 383 385
3 399 385 396
3 399 485 385
3 485 484 385
3 397 485 399
3 397 387 485
3 387 487 485
3 487 387 386
3 486 487 386
3 390 389 391
3 390 391 494
3 494 391 495
3 495 391 497
3 391 392 497
3 395 496 497
3 395 497 394
3 394 497 392
3 395 394 393
3 399 396 398
3 399 398 397
3 404 406 498
3 404 498 400
3 400 498 499
3 409 407 400
3 409 400 500
3 500 400 499
3 500 501 411
3 409 500 411
3 501 502 413
3 411 501 413
3 502 512 413
3 523 503 418
3 416 418 503
3 416 503 401
3 401 503 504
3 504 505 401
3 401 505 402
3 402 505 526
3 419 402 526
3 424 532 507
3 403 424 507
3 406 507 506
3 406 405 507
3 405 403 507
3 406 404 405
3 409 408 407
3 411 408 409
3 410 408 411
3 413 410 411
3 412 410 413
3 512 412 413
3 512 513 412
3 513 414 412
3 427 425 414
3 427 414 515
3 515 414 513
3 515 517 429
3 427 515 429
3 517 519 430
3 429 517 430
3 519 521 433
3 430 519 433
3 431 433 521
3 431 521 415
3 415 521 524
3 418 524 523
3 418 417 524
3 417 415 524
3 418 416 417
3 526 420 419
3 527 420 526
3 420 527 534
3 434 420 534
3 436 535 528
3 421 436 528
3 528 529 421
3 421 529 422
3 529 531 422
3 422 531 423
3 423 531 536
3 438 423 536
3 532 424 538
3 538 424 440
3 427 426 425
3 429 426 427
3 428 426 429
3 428 445 442
3 428 429 445
3 429 430 445
3 443 433 432
3 443 445 433
3 445 430 433
3 433 431 432
3 435 540 446
3 435 434 540
3 434 534 540
3 437 435 446
3 447 437 446
3 447 436 437
3 447 543 436
3 543 535 436
3 536 439 438
3 537 439 536
3 439 537 545
3 448 439 545
3 449 546 539
3 441 449 539
3 539 440 441
3 538 440 539
3 540 541 446
3 547 446 541
3 547 450 446
3 450 447 446
3 543 450 548
3 447 450 543
3 545 550 448
3 550 451 448
3 546 449 551
3 551 449 452
3 553 450 547
3 454 450 553
3 550 557 451
3 557 455 451
3 551 452 453
3 552 551 453
3 453 558 552
3 456 558 453
3 559 462 554
3 554 454 553
3 554 462 454
3 462 464 454
3 555 464 561
3 454 464 555
3 557 563 455
3 563 465 455
3 558 456 565
3 565 456 467
3 457 475 473
3 458 475 457
3 476 475 458
3 459 476 458
3 477 476 459
3 460 477 459
3 479 477 460
3 460 478 479
3 462 481 461
3 462 559 481
3 559 575 481
3 464 462 461
3 463 464 461
3 463 561 464
3 463 483 561
3 483 577 561
3 486 564 580
3 466 564 486
3 564 466 465
3 563 564 465
3 565 467 468
3 566 565 468
3 566 468 567
3 468 469 567
3 469 582 567
3 488 582 469
3 470 491 489
3 471 491 470
3 492 491 471
3 492 568 587
3 492 471 568
3 471 472 568
3 568 472 569
3 472 474 569
3 473 475 570
3 473 570 474
3 474 570 569
3 475 476 571
3 570 475 571
3 476 477 572
3 571 476 572
3 477 479 573
3 572 477 573
3 479 478 480
3 479 480 573
3 573 480 574
3 480 593 574
3 493 593 480
3 496 576 597
3 482 576 496
3 576 482 481
3 575 576 481
3 577 483 484
3 578 577 484
3 578 484 579
3 484 485 579
3 579 485 581
3 485 487 581
3 581 487 486
3 580 581 486
3 582 488 490
3 583 582 490
3 489 491 585
3 489 585 490
3 490 585 583
3 491 492 588
3 585 491 588
3 492 587 588
3 593 493 494
3 595 593 494
3 595 494 596
3 494 495 596
3 596 495 598
3 495 497 598
3 598 497 496
3 597 598 496
3 499 498 508
3 509 499 508
3 500 499 509
3 510 500 509
3 501 500 510
3 511 501 510
3 511 614 600
3 511 600 501
3 501 600 502
3 514 512 502
3 514 502 601
3 601 502 600
3 601 602 516
3 514 601 516
3 604 605 522
3 520 604 522
3 605 606 525
3 522 605 525
3 523 525 606
3 523 606 503
3 503 606 607
3 607 608 503
3 503 608 504
3 608 609 504
3 504 609 505
3 505 609 619
3 526 505 619
3 621 610 530
3 610 623 530
3 507 532 533
3 533 625 611
3 507 533 611
3 507 611 508
3 507 508 506
3 508 612 509
3 611 612 508
3 509 613 510
3 612 613 509
3 510 615 511
3 613 615 510
3 511 615 614
3 514 513 512
3 516 513 514
3 515 513 516
3 518 515 516
3 517 515 518
3 520 517 518
3 519 517 520
3 522 519 520
3 521 519 522
3 525 521 522
3 524 521 525
3 525 523 524
3 619 527 526
3 620 527 619
3 527 620 629
3 534 527 629
3 535 632 622
3 528 535 622
3 530 622 621
3 530 529 622
3 529 528 622
3 623 529 530
3 623 624 529
3 624 531 529
3 531 624 635
3 536 531 635
3 626 533 532
3 626 532 637
3 637 532 538
3 533 626 625
3 542 629 630
3 542 540 629
3 540 534 629
3 630 633 544
3 542 630 544
3 633 543 544
3 633 632 543
3 632 535 543
3 635 537 536
3 636 537 635
3 537 636 640
3 545 537 640
3 546 641 638
3 539 546 638
3 638 538 539
3 637 538 638
3 542 541 540
3 541 549 547
3 541 542 549
3 542 544 549
3 544 548 549
3 543 548 544
3 640 643 545
3 643 550 545
3 641 546 644
3 644 546 551
3 556 547 549
3 553 547 556
3 643 647 550
3 647 557 550
3 644 551 552
3 645 644 552
3 552 648 645
3 558 648 552
3 554 560 559
3 553 560 554
3 553 556 560
3 556 562 560
3 556 561 562
3 555 561 556
3 647 652 557
3 652 563 557
3 648 558 654
3 654 558 565
3 650 559 560
3 650 666 559
3 666 575 559
3 560 562 651
3 650 560 651
3 562 669 651
3 562 561 669
3 561 577 669
3 580 653 672
3 564 653 580
3 653 564 563
3 652 653 563
3 654 565 566
3 655 654 566
3 655 566 657
3 566 567 657
3 584 567 582
3 584 659 567
3 659 657 567
3 659 586 661
3 584 586 659
3 661 589 662
3 586 589 661
3 587 662 589
3 587 568 662
3 568 663 662
3 663 568 664
3 568 569 664
3 664 569 665
3 569 570 665
3 674 571 590
3 674 665 571
3 665 570 571
3 572 590 571
3 591 590 572
3 573 591 572
3 592 591 573
3 574 592 573
3 594 592 574
3 574 593 594
3 597 667 682
3 576 667 597
3 667 576 575
3 666 667 575
3 669 577 578
3 671 669 578
3 684 579 599
3 684 671 579
3 671 578 579
3 599 673 685
3 599 579 673
3 579 581 673
3 673 581 580
3 672 673 580
3 584 582 583
3 586 584 583
3 585 586 583
3 589 586 585
3 588 589 585
3 589 588 587
3 591 592 678
3 677 591 678
3 592 594 679
3 678 592 679
3 594 593 595
3 594 595 679
3 679 595 680
3 680 595 681
3 595 596 681
3 681 596 683
3 596 598 683
3 683 598 597
3 682 683 597
3 684 599 686
3 599 685 686
3 601 600 616
3 617 601 616
3 602 601 617
3 618 602 617
3 618 699 687
3 618 687 602
3 602 687 603
3 687 688 603
3 603 688 604
3 688 689 604
3 604 689 605
3 689 690 605
3 605 690 606
3 690 691 606
3 606 691 607
3 691 692 607
3 607 692 608
3 692 693 608
3 608 693 609
3 609 693 703
3 619 609 703
3 621 710 694
3 610 621 694
3 610 694 712
3 623 610 712
3 611 625 627
3 612 611 627
3 628 612 627
3 628 716 695
3 628 695 612
3 612 695 613
3 695 696 613
3 613 696 615
3 614 697 616
3 614 615 697
3 615 696 697
3 616 698 617
3 697 698 616
3 617 700 618
3 698 700 617
3 618 700 699
3 703 620 619
3 704 620 703
3 631 629 620
3 631 620 706
3 706 620 704
3 706 708 634
3 631 706 634
3 632 634 708
3 632 708 622
3 622 708 711
3 711 621 622
3 710 621 711
3 712 624 623
3 714 624 712
3 624 714 723
3 635 624 723
3 626 637 639
3 639 725 715
3 626 639 715
3 626 715 627
3 626 627 625
3 627 717 628
3 715 717 627
3 628 717 716
3 631 630 629
3 634 630 631
3 633 630 634
3 634 632 633
3 723 636 635
3 724 636 723
3 636 724 732
3 640 636 732
3 638 641 642
3 642 733 726
3 638 642 726
3 638 726 639
3 638 639 637
3 639 726 725
3 732 737 640
3 737 643 640
3 646 642 641
3 644 646 641
3 733 646 738
3 642 646 733
3 737 744 643
3 744 647 643
3 646 644 645
3 645 648 649
3 646 645 649
3 646 649 739
3 646 739 738
3 739 649 745
3 744 753 647
3 753 652 647
3 656 649 648
3 654 656 648
3 745 658 746
3 745 649 658
3 649 656 658
3 746 660 748
3 658 660 746
3 748 660 756
3 650 668 666
3 651 668 650
3 670 668 651
3 651 669 670
3 672 754 772
3 653 754 672
3 754 653 652
3 753 754 652
3 656 654 655
3 658 656 655
3 657 658 655
3 660 658 657
3 659 660 657
3 756 660 659
3 756 659 757
3 757 659 661
3 757 661 759
3 661 662 759
3 759 662 761
3 662 663 761
3 761 663 763
3 663 664 763
3 763 664 765
3 664 665 765
3 676 665 674
3 676 767 665
3 767 765 665
3 767 676 774
3 682 768 782
3 667 768 682
3 666 668 769
3 666 769 667
3 667 769 768
3 668 670 770
3 769 668 770
3 670 669 671
3 670 671 770
3 770 671 771
3 671 787 771
3 684 787 671
3 685 773 788
3 673 773 685
3 773 673 672
3 772 773 672
3 774 676 675
3 774 675 775
3 775 675 677
3 775 677 777
3 677 678 777
3 777 678 779
3 678 679 779
3 779 679 780
3 679 680 780
3 780 680 781
3 680 681 781
3 781 681 783
3 681 683 783
3 783 683 682
3 782 783 682
3 787 684 686
3 789 787 686
3 789 686 685
3 788 789 685
3 687 699 701
3 688 687 701
3 702 688 701
3 702 800 791
3 702 791 688
3 688 791 689
3 791 792 689
3 689 792 690
3 792 793 690
3 690 793 691
3 793 794 691
3 691 794 692
3 794 795 692
3 692 795 693
3 705 703 693
3 705 693 796
3 796 693 795
3 796 797 707
3 705 796 707
3 797 798 709
3 707 797 709
3 798 809 709
3 694 710 713
3 694 713 712
3 695 716 718
3 696 695 718
3 719 696 718
3 697 696 719
3 720 697 719
3 698 697 720
3 721 698 720
3 700 698 721
3 722 700 721
3 722 815 799
3 700 722 799
3 700 799 701
3 700 701 699
3 701 801 702
3 799 801 701
3 702 801 800
3 705 704 703
3 707 704 705
3 706 704 707
3 709 706 707
3 708 706 709
3 809 708 709
3 809 811 708
3 811 711 708
3 710 812 713
3 710 711 812
3 711 811 812
3 713 714 712
3 713 812 714
3 812 813 714
3 714 813 820
3 723 714 820
3 715 725 727
3 717 715 727
3 728 717 727
3 716 717 728
3 716 728 718
3 718 728 729
3 718 729 719
3 719 729 730
3 719 730 720
3 720 730 731
3 814 731 825
3 814 721 731
3 721 720 731
3 721 816 722
3 814 816 721
3 722 816 815
3 820 724 723
3 822 724 820
3 724 822 831
3 732 724 831
3 726 733 734
3 725 726 734
3 725 734 727
3 727 734 735
3 727 735 728
3 728 735 736
3 823 736 833
3 823 729 736
3 729 728 736
3 729 824 730
3 823 824 729
3 730 826 731
3 824 826 730
3 731 826 825
3 831 840 732
3 840 737 732
3 740 734 733
3 738 740 733
3 734 740 735
3 735 740 741
3 735 741 736
3 736 741 742
3 833 743 834
3 833 736 743
3 736 742 743
3 834 743 842
3 840 849 737
3 849 744 737
3 740 738 739
3 739 745 747
3 739 747 740
3 740 747 741
3 741 747 742
3 742 747 749
3 742 749 743
3 743 749 750
3 842 751 843
3 842 743 751
3 743 750 751
3 843 752 845
3 751 752 843
3 845 752 852
3 858 755 850
3 850 755 753
3 850 753 849
3 849 753 744
3 747 745 746
3 749 747 746
3 748 749 746
3 748 756 758
3 748 758 749
3 749 758 750
3 750 758 751
3 751 758 760
3 751 760 752
3 752 760 762
3 852 764 853
3 852 752 764
3 752 762 764
3 853 766 855
3 764 766 853
3 855 766 860
3 755 772 754
3 755 858 772
3 858 869 772
3 755 754 753
3 758 756 757
3 760 758 757
3 759 760 757
3 762 760 759
3 761 762 759
3 764 762 761
3 763 764 761
3 766 764 763
3 765 766 763
3 860 766 765
3 860 765 861
3 861 765 767
3 776 767 774
3 776 863 767
3 863 861 767
3 863 778 865
3 776 778 863
3 769 784 768
3 785 784 769
3 770 785 769
3 786 785 770
3 786 866 885
3 786 770 866
3 770 771 866
3 790 771 787
3 790 867 771
3 867 866 771
3 788 867 790
3 788 773 867
3 773 870 867
3 870 773 772
3 869 870 772
3 776 774 775
3 778 776 775
3 777 778 775
3 872 778 777
3 872 777 873
3 873 777 779
3 873 779 875
3 779 780 875
3 875 780 877
3 780 781 877
3 877 781 879
3 781 783 879
3 782 784 881
3 782 881 783
3 783 881 879
3 784 785 883
3 881 784 883
3 785 786 886
3 883 785 886
3 786 885 886
3 790 787 789
3 790 789 788
3 791 800 802
3 792 791 802
3 803 792 802
3 793 792 803
3 804 793 803
3 794 793 804
3 805 794 804
3 795 794 805
3 806 795 805
3 796 795 806
3 807 796 806
3 797 796 807
3 808 797 807
3 798 797 808
3 810 798 808
3 798 810 809
3 799 815 817
3 801 799 817
3 818 801 817
3 818 897 888
3 801 818 888
3 801 888 802
3 801 802 800
3 802 889 803
3 888 889 802
3 803 890 804
3 889 890 803
3 804 891 805
3 890 891 804
3 805 892 806
3 891 892 805
3 806 893 807
3 892 893 806
3 807 894 808
3 893 894 807
3 808 895 810
3 894 895 808
3 810 811 809
3 810 895 811
3 895 896 811
3 907 819 812
3 907 812 896
3 896 812 811
3 813 812 819
3 821 813 819
3 813 821 820
3 814 825 827
3 816 814 827
3 828 816 827
3 815 816 828
3 815 828 817
3 817 828 829
3 898 829 910
3 898 818 829
3 818 817 829
3 818 898 897
3 907 909 819
3 913 819 909
3 913 830 819
3 830 821 819
3 822 820 821
3 822 821 832
3 832 821 830
3 822 832 831
3 823 833 835
3 824 823 835
3 836 824 835
3 826 824 836
3 837 826 836
3 825 826 837
3 825 837 827
3 827 837 838
3 827 838 828
3 828 838 839
3 911 839 916
3 911 829 839
3 829 828 839
3 829 911 910
3 913 915 830
3 919 830 915
3 919 841 830
3 841 832 830
3 832 841 840
3 831 832 840
3 835 833 834
3 834 842 844
3 834 844 835
3 835 844 836
3 836 844 837
3 837 844 846
3 837 846 838
3 838 846 847
3 838 847 839
3 839 847 848
3 916 848 921
3 839 848 916
3 925 841 919
3 851 841 925
3 841 851 849
3 840 841 849
3 844 842 843
3 846 844 843
3 845 846 843
3 845 852 854
3 845 854 846
3 846 854 847
3 847 854 848
3 848 854 856
3 921 857 922
3 921 848 857
3 848 856 857
3 922 857 928
3 932 859 926
3 851 858 850
3 925 858 851
3 925 859 858
3 925 926 859
3 851 850 849
3 856 854 853
3 855 856 853
3 855 860 862
3 855 862 856
3 856 862 857
3 928 864 929
3 928 857 864
3 857 862 864
3 929 864 935
3 952 868 933
3 933 859 932
3 933 868 859
3 868 871 859
3 859 871 869
3 858 859 869
3 862 860 861
3 864 862 861
3 863 864 861
3 935 864 863
3 935 863 936
3 936 863 865
3 874 865 872
3 874 938 865
3 938 936 865
3 938 876 940
3 874 876 938
3 940 878 942
3 876 878 940
3 942 880 944
3 878 880 942
3 944 882 946
3 880 882 944
3 946 884 948
3 882 884 946
3 948 887 950
3 884 887 948
3 885 950 887
3 885 866 950
3 866 953 950
3 868 952 953
3 868 953 867
3 867 953 866
3 871 868 867
3 870 871 867
3 871 870 869
3 874 872 873
3 876 874 873
3 875 876 873
3 878 876 875
3 877 878 875
3 880 878 877
3 879 880 877
3 882 880 879
3 881 882 879
3 884 882 881
3 883 884 881
3 887 884 883
3 886 887 883
3 887 886 885
3 888 897 899
3 889 888 899
3 900 889 899
3 890 889 900
3 901 890 900
3 891 890 901
3 902 891 901
3 892 891 902
3 903 892 902
3 893 892 903
3 904 893 903
3 894 893 904
3 905 894 904
3 895 894 905
3 906 895 905
3 896 895 906
3 908 896 906
3 896 908 907
3 898 910 912
3 912 964 955
3 898 912 955
3 898 955 899
3 898 899 897
3 899 956 900
3 955 956 899
3 900 957 901
3 956 957 900
3 901 958 902
3 957 958 901
3 902 959 903
3 958 959 902
3 903 960 904
3 959 960 903
3 904 961 905
3 960 961 904
3 905 962 906
3 961 962 905
3 906 963 908
3 962 963 906
3 973 914 909
3 963 973 909
3 963 909 907
3 963 907 908
3 909 914 913
3 911 916 917
3 910 911 917
3 910 917 912
3 912 917 918
3 964 918 976
3 912 918 964
3 973 975 914
3 986 920 915
3 975 986 915
3 975 915 913
3 975 913 914
3 915 920 919
3 923 917 916
3 921 923 916
3 917 923 918
3 918 923 924
3 976 924 988
3 918 924 976
3 999 920 986
3 927 920 999
3 920 927 925
3 919 920 925
3 923 921 922
3 922 928 930
3 922 930 923
3 923 930 924
3 988 931 989
3 988 924 931
3 924 930 931
3 989 931 1002
3 1017 934 1000
3 927 932 926
3 999 932 927
3 999 934 932
3 999 1000 934
3 927 926 925
3 930 928 929
3 929 935 937
3 929 937 930
3 930 937 931
3 1002 939 1003
3 1002 931 939
3 931 937 939
3 1003 941 1005
3 939 941 1003
3 1005 943 1007
3 941 943 1005
3 1007 945 1009
3 943 945 1007
3 1009 947 1011
3 945 947 1009
3 1011 949 1013
3 947 949 1011
3 1013 951 1015
3 949 951 1013
3 1015 954 1018
3 951 954 1015
3 934 952 933
3 1017 952 934
3 1017 954 952
3 1017 1018 954
3 934 933 932
3 937 935 936
3 939 937 936
3 938 939 936
3 941 939 938
3 940 941 938
3 943 941 940
3 942 943 940
3 945 943 942
3 944 945 942
3 947 945 944
3 946 947 944
3 949 947 946
3 948 949 946
3 951 949 948
3 950 951 948
3 954 951 950
3 953 954 950
3 954 953 952
3 955 964 965
3 956 955 965
3 966 956 965
3 957 956 966
3 967 957 966
3 958 957 967
3 968 958 967
3 959 958 968
3 969 959 968
3 960 959 969
3 970 960 969
3 961 960 970
3 971 961 970
3 962 961 971
3 972 962 971
3 963 962 972
3 974 963 972
3 963 974 973
3 977 965 964
3 976 977 964
3 965 977 966
3 966 977 978
3 966 978 967
3 967 978 979
3 967 979 968
3 968 979 980
3 968 980 969
3 969 980 981
3 969 981 970
3 970 981 982
3 970 982 971
3 971 982 983
3 971 983 972
3 972 983 984
3 972 984 974
3 974 984 985
3 975 973 974
3 975 974 987
3 987 974 985
3 990 977 976
3 988 990 976
3 977 990 978
3 978 990 991
3 978 991 979
3 979 991 992
3 979 992 980
3 980 992 993
3 980 993 981
3 981 993 994
3 981 994 982
3 982 994 995
3 982 995 983
3 983 995 996
3 983 996 984
3 984 996 997
3 984 997 985
3 985 997 998
3 985 998 987
3 987 998 1001
3 990 988 989
3 989 1002 1004
3 989 1004 990
3 990 1004 991
3 991 1004 992
3 992 1004 1006
3 992 1006 993
3 993 1006 1008
3 993 1008 994
3 994 1008 1010
3 994 1010 995
3 995 1010 1012
3 995 1012 996
3 996 1012 1014
3 996 1014 997
3 997 1014 1016
3 997 1016 998
3 998 1016 1019
3 1017 1000 1001
3 1017 1001 1019
3 1019 1001 998
3 1004 1002 1003
3 1006 1004 1003
3 1005 1006 1003
3 1008 1006 1005
3 1007 1008 1005
3 1010 1008 1007
3 1009 1010 1007
3 1012 1010 1009
3 1011 1012 1009
3 1014 1012 1011
3 1013 1014 1011
3 1016 1014 1013
3 1015 1016 1013
3 1019 1016 1015
3 1018 1019 1015
3 1019 1018 1017
