ply
format ascii 1.0
element vertex 1327
property float x
property float y
property float z
element face 2561
property list uchar int vertex_indices
end_header
-0.525607 -0.150000 0.375000
-0.529200 -0.075000 0.225000
-0.535110 -0.075000 0.300000
-0.541047 -0.075000 0.375000
-0.527955 0.000000 0.225000
-0.542162 0.000000 0.300000
-0.536646 0.000000 0.375000
-0.455983 -0.225000 0.225000
-0.463053 -0.225000 0.300000
-0.525000 -0.151049 0.375000
-0.459420 -0.225000 0.375000
-0.467328 -0.150000 0.075000
-0.492657 -0.150000 0.150000
-0.525000 -0.097145 0.225000
-0.513369 -0.150000 0.225000
-0.525000 -0.150000 0.362399
-0.525000 -0.132825 0.300000
-0.521747 -0.150000 0.300000
-0.525000 -0.150000 0.377389
-0.499779 -0.150000 0.450000
-0.453075 -0.075000 -0.600000
-0.456044 -0.075000 -0.525000
-0.455240 -0.075000 -0.450000
-0.451125 -0.075000 -0.375000
-0.466058 -0.075000 0.000000
-0.489348 -0.075000 0.075000
-0.525000 -0.075000 0.202716
-0.514524 -0.075000 0.150000
-0.525000 -0.075000 0.447382
-0.524250 -0.075000 0.450000
-0.458470 -0.075000 0.525000
-0.455471 0.000000 -0.600000
-0.456227 0.000000 -0.525000
-0.454142 0.000000 -0.450000
-0.458828 0.000000 0.000000
-0.484744 0.000000 0.075000
-0.525000 0.000000 0.211928
-0.510499 0.000000 0.150000
-0.525000 0.010523 0.225000
-0.525000 0.056993 0.300000
-0.525000 0.000000 0.422137
-0.525000 0.036941 0.375000
-0.516578 0.000000 0.450000
-0.455378 0.000000 0.525000
-0.465738 0.075000 0.075000
-0.489339 0.075000 0.150000
-0.506619 0.075000 0.225000
-0.519114 0.075000 0.300000
-0.511493 0.075000 0.375000
-0.487721 0.075000 0.450000
-0.466620 0.150000 0.225000
-0.463987 0.150000 0.300000
-0.452808 0.150000 0.375000
-0.450000 -0.231251 0.225000
-0.450000 -0.236193 0.300000
-0.450000 -0.232359 0.375000
-0.385208 -0.225000 -0.675000
-0.387614 -0.225000 -0.600000
-0.386536 -0.225000 -0.525000
-0.387450 -0.225000 -0.450000
-0.388256 -0.225000 -0.375000
-0.391133 -0.225000 -0.300000
-0.379817 -0.225000 0.000000
-0.450000 -0.174456 0.075000
-0.398860 -0.225000 0.075000
-0.450000 -0.225000 0.202817
-0.450000 -0.208139 0.150000
-0.435298 -0.225000 0.150000
-0.450000 -0.225000 0.394158
-0.450000 -0.200261 0.450000
-0.418096 -0.225000 0.450000
-0.403438 -0.150000 -0.750000
-0.422691 -0.150000 -0.675000
-0.450000 -0.084332 -0.600000
-0.427081 -0.150000 -0.600000
-0.450000 -0.093390 -0.525000
-0.429974 -0.150000 -0.525000
-0.450000 -0.092121 -0.450000
-0.430578 -0.150000 -0.450000
-0.450000 -0.079756 -0.375000
-0.432370 -0.150000 -0.375000
-0.431611 -0.150000 -0.300000
-0.421986 -0.150000 -0.225000
-0.407743 -0.150000 -0.150000
-0.421220 -0.150000 -0.075000
-0.450000 -0.150000 0.016639
-0.450000 -0.133602 0.000000
-0.444550 -0.150000 0.000000
-0.450000 -0.150000 0.518498
-0.450000 -0.123948 0.525000
-0.444250 -0.150000 0.525000
-0.429385 -0.075000 -0.750000
-0.450000 -0.075000 -0.630748
-0.445535 -0.075000 -0.675000
-0.450000 -0.075000 -0.350288
-0.450000 -0.042210 -0.375000
-0.447734 -0.075000 -0.300000
-0.438583 -0.075000 -0.225000
-0.433242 -0.075000 -0.150000
-0.450000 -0.075000 -0.058171
-0.445332 -0.075000 -0.075000
-0.450000 -0.075000 0.533722
-0.436469 0.000000 -0.750000
-0.450000 0.000000 -0.664723
-0.449103 0.000000 -0.675000
-0.450000 0.015086 -0.600000
-0.450000 0.017089 -0.525000
-0.450000 0.000000 -0.394433
-0.450000 0.012428 -0.450000
-0.448536 0.000000 -0.375000
-0.441799 0.000000 -0.300000
-0.427005 0.000000 -0.225000
-0.413413 0.000000 -0.150000
-0.450000 0.000000 -0.022243
-0.428966 0.000000 -0.075000
-0.450000 0.033615 0.000000
-0.450000 0.000000 0.531178
-0.450000 0.015083 0.525000
-0.382020 0.000000 0.600000
-0.418808 0.075000 -0.750000
-0.423034 0.075000 -0.675000
-0.425683 0.075000 -0.600000
-0.427694 0.075000 -0.525000
-0.427729 0.075000 -0.450000
-0.426232 0.075000 -0.375000
-0.421949 0.075000 -0.300000
-0.409536 0.075000 -0.225000
-0.393243 0.075000 -0.150000
-0.406190 0.075000 -0.075000
-0.450000 0.075000 0.031542
-0.437522 0.075000 0.000000
-0.450000 0.101649 0.075000
-0.450000 0.148710 0.150000
-0.450000 0.075000 0.499342
-0.450000 0.123530 0.450000
-0.422710 0.075000 0.525000
-0.382471 0.150000 -0.675000
-0.384978 0.150000 -0.600000
-0.385612 0.150000 -0.525000
-0.389719 0.150000 -0.450000
-0.394780 0.150000 -0.375000
-0.393637 0.150000 -0.300000
-0.384406 0.150000 0.000000
-0.414127 0.150000 0.075000
-0.450000 0.150000 0.153312
-0.449009 0.150000 0.150000
-0.450000 0.168151 0.225000
-0.450000 0.163201 0.300000
-0.450000 0.150000 0.382947
-0.450000 0.152538 0.375000
-0.421326 0.150000 0.450000
-0.375000 -0.235190 -0.675000
-0.375000 -0.238080 -0.600000
-0.375000 -0.237575 -0.525000
-0.375000 -0.238772 -0.450000
-0.375000 -0.240119 -0.375000
-0.375000 -0.241638 -0.300000
-0.375000 -0.229824 0.000000
-0.375000 -0.247450 0.075000
-0.375000 -0.274209 0.150000
-0.375000 -0.279773 0.225000
-0.375000 -0.280493 0.300000
-0.375000 -0.273402 0.375000
-0.375000 -0.253128 0.450000
-0.375000 -0.225000 -0.704678
-0.375000 -0.195437 -0.750000
-0.347708 -0.225000 -0.750000
-0.375000 -0.225000 -0.244212
-0.375000 -0.217572 -0.225000
-0.367809 -0.225000 -0.225000
-0.375000 -0.198640 -0.150000
-0.354677 -0.225000 -0.150000
-0.375000 -0.225000 -0.022554
-0.375000 -0.212534 -0.075000
-0.363749 -0.225000 -0.075000
-0.375000 -0.225000 0.507756
-0.375000 -0.213904 0.525000
-0.361305 -0.225000 0.525000
-0.375000 -0.150000 -0.778627
-0.323740 -0.150000 -0.825000
-0.375000 -0.150000 0.583256
-0.348971 -0.150000 0.600000
-0.375000 -0.075000 -0.820324
-0.370204 -0.075000 -0.825000
-0.375000 -0.075000 0.598252
-0.375000 -0.057955 0.600000
-0.371781 -0.075000 0.600000
-0.375000 0.000000 -0.822042
-0.371765 0.000000 -0.825000
-0.375000 0.000000 0.605191
-0.375000 0.011005 0.600000
-0.375000 0.075000 -0.806303
-0.349903 0.075000 -0.825000
-0.375000 0.136138 -0.750000
-0.375000 0.132660 -0.225000
-0.375000 0.102419 -0.150000
-0.375000 0.120668 -0.075000
-0.375000 0.075000 0.563204
-0.375000 0.142581 0.525000
-0.316456 0.075000 0.600000
-0.375000 0.150000 -0.705987
-0.349337 0.150000 -0.750000
-0.375000 0.157311 -0.675000
-0.375000 0.161287 -0.600000
-0.375000 0.162436 -0.525000
-0.375000 0.167411 -0.450000
-0.375000 0.172464 -0.375000
-0.375000 0.150000 -0.253952
-0.375000 0.168581 -0.300000
-0.357487 0.150000 -0.225000
-0.338105 0.150000 -0.150000
-0.375000 0.150000 -0.022466
-0.346299 0.150000 -0.075000
-0.375000 0.161162 0.000000
-0.375000 0.185277 0.075000
-0.375000 0.200717 0.150000
-0.375000 0.204066 0.225000
-0.375000 0.203409 0.300000
-0.375000 0.196699 0.375000
-0.375000 0.150000 0.517370
-0.375000 0.181761 0.450000
-0.368633 0.150000 0.525000
-0.300000 -0.251852 -0.750000
-0.300000 -0.266168 -0.675000
-0.300000 -0.251455 -0.600000
-0.300000 -0.239022 -0.525000
-0.300000 -0.252595 -0.450000
-0.300000 -0.265661 -0.375000
-0.300000 -0.276818 -0.300000
-0.300000 -0.270627 -0.225000
-0.300000 -0.269728 -0.150000
-0.300000 -0.277397 -0.075000
-0.231921 -0.300000 -0.075000
-0.300000 -0.288993 0.000000
-0.300000 -0.273687 0.075000
-0.300000 -0.259394 0.150000
-0.300000 -0.245510 0.225000
-0.300000 -0.253729 0.300000
-0.300000 -0.286128 0.375000
-0.300000 -0.275635 0.450000
-0.300000 -0.260175 0.525000
-0.300000 -0.225000 -0.790802
-0.300000 -0.183029 -0.825000
-0.245872 -0.225000 -0.825000
-0.262565 -0.225000 -0.600000
-0.282905 -0.225000 -0.525000
-0.259123 -0.225000 -0.450000
-0.240790 -0.225000 0.075000
-0.265552 -0.225000 0.150000
-0.279864 -0.225000 0.225000
-0.264175 -0.225000 0.300000
-0.300000 -0.225000 0.580089
-0.300000 -0.199356 0.600000
-0.261599 -0.225000 0.600000
-0.300000 -0.150000 -0.844315
-0.236277 -0.150000 0.225000
-0.226415 -0.150000 0.300000
-0.300000 -0.150000 0.624358
-0.300000 -0.075000 -0.876756
-0.247761 -0.075000 -0.900000
-0.231655 -0.075000 0.225000
-0.300000 -0.075000 0.635456
-0.300000 0.000000 -0.880103
-0.262849 0.000000 -0.900000
-0.240810 0.000000 0.225000
-0.300000 0.000000 0.633798
-0.300000 0.075000 -0.862317
-0.300000 0.116152 -0.825000
-0.227109 0.075000 -0.525000
-0.229007 0.075000 0.150000
-0.255674 0.075000 0.225000
-0.236039 0.075000 0.300000
-0.300000 0.075000 0.608965
-0.300000 0.098079 0.600000
-0.300000 0.150000 -0.783394
-0.241796 0.150000 -0.825000
-0.300000 0.170144 -0.750000
-0.300000 0.187398 -0.675000
-0.300000 0.182464 -0.600000
-0.258634 0.150000 -0.600000
-0.300000 0.171768 -0.525000
-0.277906 0.150000 -0.525000
-0.300000 0.180216 -0.450000
-0.248109 0.150000 -0.450000
-0.300000 0.192607 -0.375000
-0.300000 0.205753 -0.300000
-0.300000 0.187224 -0.225000
-0.300000 0.189712 -0.150000
-0.300000 0.193367 -0.075000
-0.300000 0.218151 0.000000
-0.300000 0.210240 0.075000
-0.300000 0.185864 0.150000
-0.262470 0.150000 0.150000
-0.300000 0.158918 0.225000
-0.293343 0.150000 0.225000
-0.300000 0.177089 0.300000
-0.271186 0.150000 0.300000
-0.300000 0.192852 0.375000
-0.238362 0.150000 0.375000
-0.300000 0.200609 0.450000
-0.300000 0.150000 0.574515
-0.300000 0.190530 0.525000
-0.259233 0.150000 0.600000
-0.237894 0.225000 -0.150000
-0.244200 0.225000 -0.075000
-0.225000 -0.301985 -0.075000
-0.225000 -0.233197 -0.825000
-0.225000 -0.265136 -0.750000
-0.225000 -0.241197 -0.675000
-0.225000 -0.230637 -0.375000
-0.225000 -0.276256 -0.300000
-0.225000 -0.297174 -0.225000
-0.204965 -0.300000 -0.225000
-0.225000 -0.300000 -0.138063
-0.225000 -0.299611 -0.150000
-0.223549 -0.300000 -0.150000
-0.225000 -0.300000 -0.070684
-0.213323 -0.300000 -0.075000
-0.225000 -0.259618 0.000000
-0.225000 -0.231154 0.375000
-0.225000 -0.271973 0.450000
-0.225000 -0.275803 0.525000
-0.225000 -0.239048 0.600000
-0.225000 -0.225000 -0.833808
-0.225000 -0.225000 -0.650298
-0.199264 -0.225000 -0.675000
-0.225000 -0.180962 -0.600000
-0.225000 -0.157754 -0.525000
-0.225000 -0.225000 -0.387084
-0.225000 -0.183508 -0.450000
-0.213881 -0.225000 -0.375000
-0.225000 -0.225000 0.054838
-0.225000 -0.210707 0.075000
-0.225000 -0.165643 0.150000
-0.225000 -0.225000 0.362947
-0.218816 -0.225000 0.375000
-0.158483 -0.225000 0.450000
-0.225000 -0.225000 0.615174
-0.225000 -0.150000 -0.875695
-0.225000 -0.097260 -0.900000
-0.204626 -0.150000 -0.600000
-0.219820 -0.150000 -0.525000
-0.203314 -0.150000 -0.450000
-0.166403 -0.150000 0.075000
-0.225000 -0.150000 0.182481
-0.215884 -0.150000 0.150000
-0.225000 -0.150000 0.302443
-0.225000 -0.135752 0.300000
-0.171695 -0.150000 0.375000
-0.225000 -0.150000 0.661473
-0.194204 -0.150000 0.675000
-0.225000 -0.075000 -0.909149
-0.182216 -0.075000 -0.600000
-0.195326 -0.075000 -0.525000
-0.173928 -0.075000 -0.450000
-0.225000 -0.075000 0.202526
-0.207883 -0.075000 0.150000
-0.225000 -0.075000 0.264441
-0.217249 -0.075000 0.300000
-0.225000 -0.075000 0.671823
-0.218461 -0.075000 0.675000
-0.225000 0.000000 -0.918530
-0.225000 0.074161 -0.900000
-0.177582 0.000000 -0.600000
-0.225000 0.070868 -0.525000
-0.195929 0.000000 -0.525000
-0.167556 0.000000 -0.450000
-0.160168 0.000000 0.075000
-0.225000 0.000000 0.181566
-0.225000 0.056240 0.150000
-0.212294 0.000000 0.150000
-0.225000 0.000000 0.286461
-0.225000 0.018489 0.300000
-0.220593 0.000000 0.300000
-0.225000 0.000000 0.671880
-0.219565 0.000000 0.675000
-0.225000 0.075000 -0.899721
-0.224419 0.075000 -0.900000
-0.225000 0.075000 -0.532133
-0.225000 0.104405 -0.600000
-0.204100 0.075000 -0.600000
-0.225000 0.075000 -0.519592
-0.225000 0.121436 -0.450000
-0.196720 0.075000 -0.450000
-0.225000 0.075000 0.141625
-0.185849 0.075000 0.075000
-0.225000 0.075000 0.317670
-0.225000 0.134092 0.375000
-0.174547 0.075000 0.375000
-0.225000 0.075000 0.648426
-0.175717 0.075000 0.675000
-0.225000 0.150000 -0.833891
-0.225000 0.159015 -0.825000
-0.225000 0.200673 -0.750000
-0.225000 0.150000 -0.645440
-0.225000 0.173960 -0.675000
-0.193288 0.150000 -0.675000
-0.225000 0.150000 -0.421493
-0.225000 0.173380 -0.375000
-0.170441 0.150000 -0.375000
-0.225000 0.211235 -0.300000
-0.225000 0.223246 -0.225000
-0.225000 0.194277 0.000000
-0.225000 0.150000 0.089305
-0.225000 0.158159 0.075000
-0.216605 0.150000 0.075000
-0.225000 0.150000 0.392196
-0.225000 0.187411 0.450000
-0.225000 0.203153 0.525000
-0.225000 0.150000 0.618448
-0.225000 0.168496 0.600000
-0.225000 0.225000 -0.206812
-0.212466 0.225000 -0.225000
-0.225000 0.230397 -0.150000
-0.225000 0.225000 -0.058661
-0.225000 0.231700 -0.075000
-0.185676 0.225000 -0.075000
-0.150000 -0.307945 -0.225000
-0.150000 -0.319332 -0.150000
-0.150000 -0.248967 -0.825000
-0.150000 -0.232972 -0.750000
-0.150000 -0.300000 -0.238591
-0.150000 -0.256491 -0.300000
-0.150000 -0.300000 -0.102088
-0.150000 -0.286851 -0.075000
-0.150000 -0.234333 0.000000
-0.150000 -0.260789 0.525000
-0.150000 -0.265333 0.600000
-0.150000 -0.225000 -0.855176
-0.150000 -0.225000 -0.735394
-0.135174 -0.225000 -0.750000
-0.150000 -0.152289 -0.675000
-0.150000 -0.225000 -0.336882
-0.150000 -0.177582 -0.375000
-0.092956 -0.225000 -0.375000
-0.150000 -0.225000 0.011065
-0.082237 -0.225000 0.000000
-0.150000 -0.225000 0.459167
-0.150000 -0.217617 0.450000
-0.150000 -0.225000 0.650790
-0.150000 -0.189050 0.675000
-0.150000 -0.150000 -0.899394
-0.150000 -0.148814 -0.900000
-0.148653 -0.150000 -0.900000
-0.150000 -0.150000 -0.673841
-0.149030 -0.150000 -0.675000
-0.150000 -0.150000 -0.393323
-0.079372 -0.150000 -0.450000
-0.150000 -0.150000 0.061784
-0.150000 -0.077072 0.075000
-0.150000 -0.150000 0.397997
-0.150000 -0.094875 0.375000
-0.089745 -0.150000 0.450000
-0.150000 -0.150000 0.693171
-0.150000 -0.075000 -0.932952
-0.150000 -0.075000 -0.645741
-0.127543 -0.075000 -0.675000
-0.150000 -0.075000 -0.423286
-0.115258 -0.075000 -0.450000
-0.150000 -0.075000 0.075489
-0.150000 -0.071737 0.075000
-0.148821 -0.075000 0.075000
-0.150000 -0.075000 0.367096
-0.139598 -0.075000 0.375000
-0.150000 -0.075000 0.708003
-0.150000 0.000000 -0.945447
-0.150000 0.000000 -0.643513
-0.129371 0.000000 -0.675000
-0.150000 0.000000 -0.432905
-0.118181 0.000000 -0.450000
-0.150000 0.000000 0.067249
-0.150000 0.000000 0.366015
-0.150000 0.023344 0.375000
-0.137607 0.000000 0.375000
-0.150000 0.000000 0.712898
-0.150000 0.075000 -0.927622
-0.150000 0.117172 -0.900000
-0.150000 0.075000 -0.664573
-0.150000 0.092465 -0.675000
-0.140473 0.075000 -0.675000
-0.150000 0.075000 -0.409387
-0.089862 0.075000 -0.450000
-0.150000 0.134115 -0.375000
-0.150000 0.075000 0.046398
-0.150000 0.075000 0.396418
-0.083081 0.075000 0.450000
-0.150000 0.075000 0.689050
-0.150000 0.105773 0.675000
-0.150000 0.150000 -0.870437
-0.150000 0.186673 -0.825000
-0.150000 0.150000 -0.716969
-0.150000 0.175856 -0.750000
-0.115770 0.150000 -0.750000
-0.150000 0.150000 -0.364257
-0.125533 0.150000 -0.375000
-0.150000 0.215864 -0.300000
-0.150000 0.217072 -0.075000
-0.150000 0.150000 0.012830
-0.150000 0.162471 0.000000
-0.150000 0.150000 0.445937
-0.150000 0.153617 0.450000
-0.143067 0.150000 0.450000
-0.150000 0.194609 0.525000
-0.150000 0.150000 0.649713
-0.150000 0.192901 0.600000
-0.150000 0.225000 -0.266763
-0.150000 0.233583 -0.225000
-0.150000 0.225000 -0.092319
-0.150000 0.245477 -0.150000
-0.075000 -0.323360 -0.225000
-0.075000 -0.333585 -0.150000
-0.075000 -0.258762 -0.825000
-0.075000 -0.236408 -0.375000
-0.075000 -0.300000 -0.281304
-0.075000 -0.289402 -0.300000
-0.024192 -0.300000 -0.300000
-0.075000 -0.300000 -0.088148
-0.075000 -0.290664 -0.075000
-0.075000 -0.234357 0.525000
-0.075000 -0.268699 0.600000
-0.075000 -0.225000 -0.890426
-0.075000 -0.214173 -0.900000
-0.026587 -0.225000 -0.900000
-0.075000 -0.225000 -0.780941
-0.075000 -0.166445 -0.750000
-0.075000 -0.225000 -0.390518
-0.075000 -0.156338 -0.450000
-0.023734 -0.225000 -0.450000
-0.075000 -0.225000 -0.001247
-0.075000 -0.223391 0.000000
-0.068035 -0.225000 0.000000
-0.075000 -0.225000 0.511931
-0.027348 -0.225000 0.525000
-0.075000 -0.225000 0.672064
-0.075000 -0.221803 0.675000
-0.075000 -0.150000 -0.933109
-0.075000 -0.150000 -0.742281
-0.075000 -0.150000 -0.454731
-0.019690 -0.150000 -0.525000
-0.075000 -0.150000 0.039814
-0.075000 -0.150000 0.462572
-0.075000 -0.127155 0.450000
-0.075000 -0.150000 0.715109
-0.075000 -0.075000 -0.956804
-0.075000 -0.075000 -0.729495
-0.075000 -0.075000 -0.491544
-0.047158 -0.075000 -0.525000
-0.075000 -0.075000 0.052716
-0.026382 -0.075000 0.075000
-0.075000 -0.075000 0.422947
-0.029463 -0.075000 0.450000
-0.075000 -0.075000 0.723074
-0.075000 0.000000 -0.965245
-0.075000 0.000000 -0.735553
-0.075000 0.000000 -0.479222
-0.030000 0.000000 -0.525000
-0.075000 0.000000 0.054829
-0.017769 0.000000 0.075000
-0.075000 0.000000 0.420828
-0.075000 0.062093 0.450000
-0.075000 0.000000 0.720650
-0.075000 0.075000 -0.954139
-0.075000 0.149132 -0.900000
-0.075000 0.075000 -0.736522
-0.075000 0.099581 -0.750000
-0.075000 0.075000 -0.462402
-0.012913 0.075000 -0.525000
-0.075000 0.091713 -0.450000
-0.075000 0.075000 0.038525
-0.075000 0.075000 0.455764
-0.075000 0.075000 0.695583
-0.075000 0.126939 0.675000
-0.075000 0.150000 -0.898896
-0.066407 0.150000 -0.900000
-0.075000 0.150000 -0.777138
-0.075000 0.191988 -0.825000
-0.075000 0.150000 -0.401462
-0.027763 0.150000 -0.450000
-0.075000 0.174935 -0.375000
-0.075000 0.222555 -0.300000
-0.075000 0.214044 -0.075000
-0.075000 0.150000 0.006820
-0.075000 0.157381 0.000000
-0.075000 0.150000 0.499534
-0.075000 0.166659 0.525000
-0.075000 0.150000 0.662139
-0.075000 0.196197 0.600000
-0.075000 0.225000 -0.292911
-0.041064 0.225000 -0.300000
-0.075000 0.247148 -0.225000
-0.075000 0.225000 -0.091828
-0.075000 0.257165 -0.150000
0.000000 -0.303624 -0.300000
0.000000 -0.315792 -0.225000
0.000000 -0.324507 -0.150000
0.000000 -0.227822 -0.900000
0.000000 -0.265685 -0.825000
0.000000 -0.244236 -0.450000
0.000000 -0.300000 -0.316385
0.000000 -0.284816 -0.375000
0.008521 -0.300000 -0.300000
0.037119 -0.300000 -0.225000
0.000000 -0.300000 -0.098588
0.000000 -0.286239 -0.075000
0.049341 -0.300000 -0.075000
0.000000 -0.234644 0.000000
0.000000 -0.267173 0.600000
0.000000 -0.225000 -0.904054
0.000000 -0.225000 -0.772768
0.000000 -0.178146 -0.750000
0.037171 -0.225000 -0.750000
0.000000 -0.225000 -0.478708
0.000000 -0.179648 -0.525000
0.057635 -0.225000 -0.525000
0.000000 -0.225000 0.014132
0.065828 -0.225000 0.075000
0.000000 -0.225000 0.532531
0.000000 -0.214150 0.525000
0.000000 -0.225000 0.674383
0.000000 -0.224291 0.675000
0.000000 -0.150000 -0.959246
0.000000 -0.150000 -0.737415
0.058941 -0.150000 -0.675000
0.000000 -0.150000 -0.546137
0.049503 -0.150000 -0.600000
0.000000 -0.150000 0.059571
0.000000 -0.109277 0.075000
0.021287 -0.150000 0.075000
0.000000 -0.150000 0.496404
0.000000 -0.150000 0.710686
0.000000 -0.075000 -0.965881
0.000000 -0.075000 -0.715670
0.034549 -0.075000 -0.675000
0.000000 -0.075000 -0.570318
0.031230 -0.075000 -0.600000
0.000000 -0.075000 0.090187
0.066248 -0.075000 0.150000
0.000000 -0.075000 0.465590
0.000000 -0.040601 0.450000
0.000000 -0.075000 0.720942
0.000000 0.000000 -0.971002
0.000000 0.000000 -0.733225
0.046378 0.000000 -0.675000
0.000000 0.000000 -0.553957
0.044341 0.000000 -0.600000
0.000000 0.000000 0.082677
0.000000 0.033052 0.075000
0.073839 0.000000 0.150000
0.000000 0.000000 0.433869
0.000000 0.058089 0.450000
0.000000 0.000000 0.719895
0.000000 0.075000 -0.967430
0.000000 0.075000 -0.742862
0.000000 0.087435 -0.750000
0.055396 0.075000 -0.675000
0.000000 0.075000 -0.539061
0.050455 0.075000 -0.600000
0.000000 0.095904 -0.525000
0.000000 0.075000 0.066130
0.014902 0.075000 0.075000
0.000000 0.075000 0.455902
0.000000 0.075000 0.692854
0.000000 0.123765 0.675000
0.000000 0.150000 -0.905187
0.000000 0.154873 -0.900000
0.000000 0.150000 -0.782629
0.000000 0.191953 -0.825000
0.065331 0.150000 -0.750000
0.000000 0.150000 -0.482253
0.047470 0.150000 -0.525000
0.000000 0.172204 -0.450000
0.000000 0.208302 -0.375000
0.000000 0.209272 -0.075000
0.000000 0.150000 0.014984
0.000000 0.161534 0.000000
0.000000 0.150000 0.518549
0.000000 0.155210 0.525000
0.043916 0.150000 0.525000
0.000000 0.150000 0.661024
0.000000 0.192179 0.600000
0.000000 0.225000 -0.311584
0.000000 0.227809 -0.300000
0.008238 0.225000 -0.300000
0.000000 0.240640 -0.225000
0.038361 0.225000 -0.225000
0.000000 0.225000 -0.104749
0.000000 0.246348 -0.150000
0.068815 0.225000 -0.150000
0.072555 0.225000 -0.075000
0.075000 -0.304833 -0.150000
0.075000 -0.305623 -0.075000
0.075000 -0.234322 -0.900000
0.075000 -0.271673 -0.825000
0.075000 -0.242692 -0.750000
0.075000 -0.233737 -0.525000
0.075000 -0.275923 -0.450000
0.075000 -0.278284 -0.375000
0.075000 -0.261443 -0.300000
0.075000 -0.300000 -0.166321
0.075000 -0.278259 -0.225000
0.082753 -0.300000 -0.150000
0.075000 -0.300000 -0.061639
0.110733 -0.300000 -0.075000
0.075000 -0.266240 0.000000
0.075000 -0.230735 0.075000
0.075000 -0.266778 0.600000
0.075000 -0.225000 -0.915007
0.075000 -0.225000 -0.708460
0.075000 -0.187315 -0.675000
0.099541 -0.225000 -0.675000
0.075000 -0.225000 -0.557414
0.075000 -0.201323 -0.600000
0.089960 -0.225000 -0.600000
0.144814 -0.225000 -0.375000
0.107093 -0.225000 -0.300000
0.120514 -0.225000 -0.225000
0.075000 -0.225000 0.083585
0.133680 -0.225000 0.150000
0.075000 -0.225000 0.538904
0.075000 -0.202552 0.525000
0.122787 -0.225000 0.525000
0.075000 -0.225000 0.665910
0.075000 -0.213506 0.675000
0.075000 -0.150000 -0.965178
0.075000 -0.150000 0.125338
0.075000 -0.094619 0.150000
0.097694 -0.150000 0.150000
0.075000 -0.150000 0.501860
0.075000 -0.150000 0.706228
0.075000 -0.075000 -0.970265
0.075000 -0.075000 0.158751
0.135833 -0.075000 0.225000
0.075000 -0.075000 0.464037
0.075000 -0.030510 0.450000
0.075000 -0.075000 0.717914
0.075000 0.000000 -0.972038
0.075000 0.000000 0.151244
0.075000 0.003254 0.150000
0.135584 0.000000 0.225000
0.075000 0.021410 0.450000
0.113461 0.000000 0.450000
0.075000 0.000000 0.717503
0.075000 0.075000 -0.962898
0.075000 0.110913 -0.675000
0.075000 0.126447 -0.600000
0.148780 0.075000 -0.300000
0.075000 0.075000 0.122057
0.075000 0.128215 0.075000
0.102100 0.075000 0.150000
0.075000 0.075000 0.475484
0.075000 0.144847 0.525000
0.075000 0.075000 0.689917
0.075000 0.117835 0.675000
0.075000 0.150000 -0.902660
0.075000 0.152587 -0.900000
0.122229 0.150000 -0.900000
0.075000 0.192885 -0.825000
0.075000 0.150000 -0.737325
0.075000 0.155609 -0.750000
0.100713 0.150000 -0.675000
0.075000 0.150000 -0.570644
0.088183 0.150000 -0.600000
0.075000 0.167591 -0.525000
0.075000 0.196524 -0.450000
0.075000 0.196648 -0.375000
0.126273 0.150000 -0.375000
0.075000 0.189585 -0.300000
0.103622 0.150000 -0.300000
0.075000 0.207932 -0.225000
0.136224 0.150000 -0.225000
0.075000 0.222868 -0.150000
0.075000 0.150000 0.051249
0.075000 0.184785 0.000000
0.101967 0.150000 0.075000
0.075000 0.150000 0.530807
0.075000 0.150000 0.658151
0.075000 0.189357 0.600000
0.075000 0.225000 -0.089832
0.075000 0.225000 -0.073926
0.075000 0.225470 -0.075000
0.077801 0.225000 -0.075000
0.150000 -0.240577 -0.900000
0.150000 -0.279770 -0.825000
0.150000 -0.272193 -0.750000
0.150000 -0.261976 -0.675000
0.150000 -0.268997 -0.600000
0.150000 -0.268580 -0.525000
0.150000 -0.257749 -0.450000
0.150000 -0.227327 -0.150000
0.150000 -0.291822 -0.075000
0.150000 -0.293853 0.000000
0.150000 -0.272167 0.075000
0.150000 -0.237939 0.150000
0.150000 -0.231334 0.525000
0.150000 -0.266760 0.600000
0.150000 -0.225000 -0.924325
0.150000 -0.225000 -0.384463
0.188202 -0.225000 -0.450000
0.150000 -0.214724 -0.375000
0.150000 -0.157119 -0.300000
0.150000 -0.225000 -0.153482
0.150000 -0.179118 -0.225000
0.152595 -0.225000 -0.150000
0.150000 -0.225000 0.170578
0.193026 -0.225000 0.225000
0.150000 -0.225000 0.519387
0.150000 -0.225000 0.659415
0.150000 -0.202183 0.675000
0.150000 -0.150000 -0.965672
0.179973 -0.150000 -0.375000
0.153939 -0.150000 -0.300000
0.168327 -0.150000 -0.225000
0.224140 -0.150000 -0.150000
0.150000 -0.150000 0.214028
0.150000 -0.120944 0.225000
0.158383 -0.150000 0.225000
0.221316 -0.150000 0.300000
0.150000 -0.150000 0.489126
0.150000 -0.150000 0.699261
0.150000 -0.075000 -0.971148
0.209931 -0.075000 -0.375000
0.170983 -0.075000 -0.300000
0.180140 -0.075000 -0.225000
0.150000 -0.075000 0.242189
0.196942 -0.075000 0.300000
0.150000 -0.075000 0.464138
0.208285 -0.075000 0.450000
0.150000 -0.075000 0.713105
0.150000 0.000000 -0.971321
0.208863 0.000000 -0.375000
0.150000 0.071440 -0.300000
0.172968 0.000000 -0.300000
0.189345 0.000000 -0.225000
0.150000 0.000000 0.243857
0.150000 0.047315 0.225000
0.196043 0.000000 0.300000
0.150000 0.000000 0.460024
0.183159 0.000000 0.450000
0.150000 0.000000 0.712566
0.150000 0.075000 -0.958007
0.150000 0.147901 -0.900000
0.150000 0.075000 -0.302912
0.150000 0.119299 -0.375000
0.184180 0.075000 -0.375000
0.150000 0.075000 -0.296487
0.150000 0.123918 -0.225000
0.175960 0.075000 -0.225000
0.150000 0.075000 0.211886
0.150000 0.129385 0.150000
0.159372 0.075000 0.225000
0.207323 0.075000 0.300000
0.150000 0.075000 0.503704
0.150000 0.128543 0.525000
0.150000 0.075000 0.685846
0.150000 0.107231 0.675000
0.150000 0.150000 -0.896930
0.150000 0.180178 -0.825000
0.150000 0.194432 -0.750000
0.150000 0.190553 -0.675000
0.150000 0.192935 -0.600000
0.150000 0.194796 -0.525000
0.216324 0.150000 -0.525000
0.150000 0.150000 -0.417016
0.150000 0.168689 -0.450000
0.169743 0.150000 -0.450000
0.150000 0.150000 -0.198355
0.150000 0.175581 -0.150000
0.184409 0.150000 -0.150000
0.150000 0.211050 -0.075000
0.150000 0.218714 0.000000
0.150000 0.150000 0.123523
0.150000 0.182883 0.075000
0.169574 0.150000 0.150000
0.223147 0.150000 0.225000
0.150000 0.150000 0.538991
0.189291 0.150000 0.525000
0.150000 0.150000 0.653870
0.150000 0.187042 0.600000
0.225000 -0.240898 -0.900000
0.225000 -0.255480 -0.825000
0.225000 -0.264277 -0.750000
0.225000 -0.264103 -0.675000
0.225000 -0.255546 -0.600000
0.225000 -0.237903 -0.525000
0.225000 -0.246225 -0.075000
0.225000 -0.294407 0.000000
0.225000 -0.297742 0.075000
0.260250 -0.300000 0.075000
0.225000 -0.284758 0.150000
0.268468 -0.300000 0.150000
0.225000 -0.252342 0.225000
0.225000 -0.252304 0.525000
0.225000 -0.262316 0.600000
0.225000 -0.225000 -0.923995
0.247066 -0.225000 -0.900000
0.264799 -0.225000 -0.825000
0.282598 -0.225000 -0.750000
0.285067 -0.225000 -0.675000
0.264127 -0.225000 -0.600000
0.225000 -0.225000 -0.503243
0.237928 -0.225000 -0.525000
0.225000 -0.153692 -0.450000
0.225000 -0.225000 -0.097432
0.256646 -0.225000 -0.075000
0.225000 -0.225000 0.272157
0.225000 -0.164080 0.300000
0.244924 -0.225000 0.300000
0.269496 -0.225000 0.375000
0.225000 -0.225000 0.496481
0.273302 -0.225000 0.450000
0.225000 -0.225000 0.644406
0.225000 -0.175769 0.675000
0.225000 -0.150000 -0.963452
0.276079 -0.150000 -0.525000
0.225000 -0.150000 -0.447359
0.226636 -0.150000 -0.450000
0.225000 -0.150000 -0.149429
0.225000 -0.148617 -0.150000
0.225000 -0.150000 0.311195
0.240500 -0.150000 0.375000
0.225000 -0.150000 0.461123
0.225000 -0.098087 0.450000
0.235251 -0.150000 0.450000
0.225000 -0.150000 0.687976
0.265862 -0.150000 0.675000
0.225000 -0.075000 -0.970229
0.225000 -0.075000 -0.399949
0.255566 -0.075000 -0.450000
0.225000 -0.075000 -0.178801
0.265011 -0.075000 -0.150000
0.225000 -0.075000 0.368618
0.225000 -0.075000 0.400101
0.227012 -0.075000 0.375000
0.225000 -0.075000 0.705752
0.225000 0.000000 -0.969161
0.297943 0.000000 -0.525000
0.225000 0.000000 -0.406834
0.248530 0.000000 -0.450000
0.225000 0.000000 -0.180261
0.262562 0.000000 -0.150000
0.225000 0.000000 0.371018
0.225000 0.000000 0.383029
0.226215 0.000000 0.375000
0.225000 0.029651 0.450000
0.225000 0.000000 0.701559
0.225000 0.075000 -0.949429
0.225000 0.135892 -0.900000
0.225000 0.140015 -0.525000
0.272218 0.075000 -0.525000
0.225000 0.075000 -0.446355
0.225000 0.077889 -0.450000
0.226954 0.075000 -0.450000
0.225000 0.075000 -0.160304
0.225000 0.090645 -0.150000
0.235925 0.075000 -0.150000
0.225000 0.075000 0.344569
0.225000 0.097693 0.300000
0.236005 0.075000 0.375000
0.225000 0.075000 0.468954
0.244108 0.075000 0.450000
0.225000 0.075000 0.678164
0.225000 0.084325 0.675000
0.237226 0.075000 0.675000
0.225000 0.150000 -0.881349
0.225000 0.177375 -0.825000
0.278818 0.150000 -0.825000
0.225000 0.194683 -0.750000
0.225000 0.196298 -0.675000
0.290458 0.150000 -0.675000
0.225000 0.150000 -0.539002
0.225000 0.181071 -0.600000
0.258518 0.150000 -0.600000
0.225000 0.150000 -0.109384
0.225000 0.174790 -0.075000
0.269360 0.150000 -0.075000
0.225000 0.208545 0.000000
0.225000 0.221933 0.075000
0.225000 0.197285 0.150000
0.225000 0.150000 0.227879
0.225000 0.151834 0.225000
0.268725 0.150000 0.300000
0.295747 0.150000 0.375000
0.225000 0.150000 0.515485
0.290439 0.150000 0.450000
0.225000 0.158246 0.525000
0.225000 0.150000 0.644034
0.225000 0.182307 0.600000
0.280992 0.225000 0.150000
0.300000 -0.302515 0.075000
0.300000 -0.308792 0.150000
0.300000 -0.300000 0.068929
0.300000 -0.262360 0.000000
0.309240 -0.300000 0.075000
0.300000 -0.300000 0.217479
0.300000 -0.298884 0.225000
0.303114 -0.300000 0.225000
0.300000 -0.273467 0.300000
0.344906 -0.300000 0.300000
0.300000 -0.257668 0.375000
0.366556 -0.300000 0.375000
0.300000 -0.253323 0.450000
0.300000 -0.260987 0.525000
0.300000 -0.249665 0.600000
0.300000 -0.176357 -0.900000
0.300000 -0.186454 -0.825000
0.300000 -0.209653 -0.750000
0.300000 -0.210634 -0.675000
0.300000 -0.182105 -0.600000
0.300000 -0.225000 -0.043971
0.300000 -0.184159 -0.075000
0.366038 -0.225000 0.000000
0.300000 -0.225000 0.623876
0.300000 -0.150000 -0.928595
0.324329 -0.150000 -0.900000
0.336045 -0.150000 -0.825000
0.353994 -0.150000 -0.750000
0.349878 -0.150000 -0.675000
0.300000 -0.150000 -0.562765
0.322915 -0.150000 -0.600000
0.300000 -0.089213 -0.525000
0.300000 -0.150000 -0.097790
0.333313 -0.150000 -0.075000
0.300000 -0.150000 0.663414
0.300000 -0.112227 0.675000
0.300000 -0.075000 -0.949269
0.344898 -0.075000 -0.900000
0.359495 -0.075000 -0.825000
0.367545 -0.075000 -0.750000
0.367723 -0.075000 -0.675000
0.341857 -0.075000 -0.600000
0.300000 -0.075000 -0.517113
0.300000 -0.020989 -0.525000
0.304926 -0.075000 -0.525000
0.300000 -0.075000 -0.125748
0.374332 -0.075000 -0.075000
0.300000 -0.075000 0.685364
0.334938 -0.075000 0.675000
0.300000 0.000000 -0.953167
0.344479 0.000000 -0.900000
0.364008 0.000000 -0.825000
0.371361 0.000000 -0.750000
0.370037 0.000000 -0.675000
0.300000 0.000000 -0.528552
0.338882 0.000000 -0.600000
0.300000 0.000000 -0.122992
0.364165 0.000000 -0.075000
0.300000 0.000000 0.682331
0.300000 0.023387 0.675000
0.323739 0.000000 0.675000
0.300000 0.075000 -0.926020
0.300000 0.097620 -0.900000
0.323159 0.075000 -0.900000
0.300000 0.135027 -0.825000
0.347410 0.075000 -0.825000
0.359131 0.075000 -0.750000
0.300000 0.139517 -0.675000
0.356248 0.075000 -0.675000
0.300000 0.075000 -0.568992
0.300000 0.100029 -0.600000
0.319873 0.075000 -0.600000
0.300000 0.075000 -0.100961
0.300000 0.118745 -0.075000
0.336143 0.075000 -0.075000
0.300000 0.075000 0.658255
0.300000 0.150000 -0.775898
0.300000 0.150000 -0.716392
0.300000 0.157740 -0.750000
0.307465 0.150000 -0.750000
0.300000 0.150000 -0.049679
0.300000 0.183929 0.000000
0.300000 0.221590 0.075000
0.300000 0.215372 0.225000
0.300000 0.180018 0.300000
0.300000 0.155270 0.375000
0.300000 0.163059 0.450000
0.300000 0.184478 0.525000
0.300000 0.150000 0.618022
0.300000 0.166926 0.600000
0.300000 0.225000 0.098171
0.300000 0.225000 0.186652
0.300000 0.232069 0.150000
0.318015 0.225000 0.225000
0.349690 0.225000 0.300000
0.367102 0.225000 0.375000
0.375000 -0.313159 0.150000
0.375000 -0.323072 0.225000
0.375000 -0.313179 0.300000
0.375000 -0.303909 0.375000
0.375000 -0.300000 0.118493
0.375000 -0.278666 0.075000
0.425890 -0.300000 0.150000
0.375000 -0.300000 0.400690
0.375000 -0.292574 0.450000
0.397387 -0.300000 0.450000
0.375000 -0.275702 0.525000
0.375000 -0.232173 0.600000
0.375000 -0.225000 0.005903
0.375000 -0.218163 0.000000
0.375000 -0.225000 0.606000
0.401402 -0.225000 0.600000
0.375000 -0.150000 -0.048514
0.375000 -0.150000 0.640960
0.375000 -0.075000 -0.074540
0.375000 -0.075000 0.663150
0.375000 0.000000 -0.067328
0.375000 0.000000 0.659510
0.375000 0.075000 -0.046956
0.445126 0.075000 0.000000
0.375000 0.075000 0.641937
0.375000 0.150000 -0.001405
0.375000 0.151310 0.000000
0.377211 0.150000 0.000000
0.375000 0.199115 0.075000
0.375000 0.221022 0.450000
0.375000 0.200417 0.525000
0.375000 0.150000 0.601597
0.375000 0.151731 0.600000
0.440811 0.150000 0.600000
0.375000 0.225000 0.127562
0.375000 0.235059 0.150000
0.436464 0.225000 0.150000
0.375000 0.247824 0.225000
0.375000 0.243538 0.300000
0.375000 0.225000 0.418054
0.375000 0.230805 0.375000
0.391811 0.225000 0.450000
0.450000 -0.313671 0.225000
0.450000 -0.333397 0.300000
0.450000 -0.331580 0.375000
0.450000 -0.317228 0.450000
0.450000 -0.247107 0.075000
0.450000 -0.300000 0.173928
0.450000 -0.293373 0.150000
0.517993 -0.300000 0.225000
0.450000 -0.300000 0.492715
0.450000 -0.285526 0.525000
0.450000 -0.225000 0.054471
0.450000 -0.155222 0.000000
0.480203 -0.225000 0.075000
0.450000 -0.225000 0.587928
0.450000 -0.201119 0.600000
0.450000 -0.150000 -0.003492
0.454530 -0.150000 0.000000
0.450000 -0.150000 0.623410
0.520156 -0.150000 0.600000
0.450000 -0.075000 -0.019178
0.473070 -0.075000 0.000000
0.450000 -0.075000 0.643933
0.450000 0.000000 -0.019214
0.450000 0.065300 0.000000
0.478137 0.000000 0.000000
0.450000 0.000000 0.642061
0.450000 0.075000 0.003094
0.450000 0.075000 0.629301
0.450000 0.149522 0.600000
0.450000 0.150000 0.049792
0.450000 0.173503 0.075000
0.486941 0.150000 0.075000
0.450000 0.222593 0.150000
0.450000 0.150000 0.599686
0.450000 0.201863 0.525000
0.450000 0.225000 0.157025
0.450000 0.246541 0.225000
0.516698 0.225000 0.225000
0.450000 0.260830 0.300000
0.450000 0.256078 0.375000
0.450000 0.225000 0.479724
0.450000 0.238296 0.450000
0.525000 -0.324989 0.300000
0.525000 -0.340971 0.375000
0.525000 -0.316698 0.450000
0.525000 -0.261561 0.150000
0.525000 -0.300000 0.228967
0.525000 -0.298412 0.225000
0.584035 -0.300000 0.300000
0.525000 -0.300000 0.482517
0.552581 -0.300000 0.450000
0.525000 -0.269360 0.525000
0.525000 -0.225000 0.109019
0.525000 -0.174605 0.075000
0.563748 -0.225000 0.150000
0.525000 -0.225000 0.560738
0.582026 -0.225000 0.525000
0.525000 -0.150000 0.060757
0.540903 -0.150000 0.075000
0.525000 -0.150000 0.598271
0.525000 -0.145586 0.600000
0.525000 -0.075000 0.045382
0.557744 -0.075000 0.075000
0.525000 -0.075000 0.624548
0.587403 -0.075000 0.600000
0.525000 0.000000 0.036441
0.564322 0.000000 0.075000
0.525000 0.000000 0.628259
0.525000 0.075000 0.062680
0.525000 0.100068 0.075000
0.537077 0.075000 0.075000
0.525000 0.075000 0.618252
0.525000 0.133473 0.600000
0.573695 0.075000 0.600000
0.525000 0.150000 0.105248
0.525000 0.188001 0.150000
0.563951 0.150000 0.150000
0.525000 0.222226 0.225000
0.525000 0.150000 0.591561
0.525000 0.199269 0.525000
0.525000 0.225000 0.233428
0.525000 0.245879 0.300000
0.584679 0.225000 0.300000
0.525000 0.250759 0.375000
0.592328 0.225000 0.375000
0.525000 0.225000 0.479625
0.525000 0.239274 0.450000
0.561046 0.225000 0.450000
0.600000 -0.313964 0.375000
0.600000 -0.253513 0.225000
0.600000 -0.300000 0.327147
0.600000 -0.291771 0.300000
0.600000 -0.300000 0.398489
0.621067 -0.300000 0.375000
0.600000 -0.266153 0.450000
0.600000 -0.225000 0.190364
0.600000 -0.180200 0.150000
0.638090 -0.225000 0.225000
0.600000 -0.225000 0.508356
0.600000 -0.206827 0.525000
0.600000 -0.150000 0.127863
0.630106 -0.150000 0.150000
0.600000 -0.150000 0.559423
0.645941 -0.150000 0.525000
0.600000 -0.075000 0.111634
0.652506 -0.075000 0.150000
0.600000 -0.075000 0.594091
0.600000 -0.024356 0.600000
0.600000 0.000000 0.111178
0.650378 0.000000 0.150000
0.600000 0.000000 0.602484
0.600000 0.014292 0.600000
0.604210 0.000000 0.600000
0.600000 0.075000 0.143211
0.600000 0.086982 0.150000
0.608580 0.075000 0.150000
0.600000 0.075000 0.587280
0.668888 0.075000 0.525000
0.600000 0.150000 0.187556
0.600000 0.184855 0.225000
0.637230 0.150000 0.225000
0.600000 0.218874 0.300000
0.600000 0.221712 0.375000
0.600000 0.207190 0.450000
0.600000 0.150000 0.545888
0.600000 0.167259 0.525000
0.623693 0.150000 0.525000
0.675000 -0.245829 0.300000
0.675000 -0.264797 0.375000
0.675000 -0.227482 0.450000
0.675000 -0.225000 0.265273
0.675000 -0.196340 0.225000
0.703071 -0.225000 0.300000
0.675000 -0.225000 0.453292
0.680688 -0.225000 0.450000
0.675000 -0.150000 0.182086
0.741293 -0.150000 0.225000
0.675000 -0.150000 0.504670
0.675000 -0.098399 0.525000
0.675000 -0.075000 0.165967
0.675000 -0.075000 0.535693
0.694168 -0.075000 0.525000
0.675000 0.000000 0.166028
0.675000 0.000000 0.538781
0.675000 0.050419 0.525000
0.701567 0.000000 0.525000
0.675000 0.075000 0.201379
0.675000 0.105063 0.225000
0.701009 0.075000 0.225000
0.749080 0.075000 0.300000
0.675000 0.075000 0.519868
0.675000 0.150000 0.280180
0.675000 0.162021 0.300000
0.686474 0.150000 0.300000
0.675000 0.181121 0.375000
0.714600 0.150000 0.375000
0.675000 0.150000 0.474466
0.675000 0.168163 0.450000
0.702942 0.150000 0.450000
0.750000 -0.228753 0.375000
0.750000 -0.225000 0.367041
0.750000 -0.179373 0.300000
0.750000 -0.225000 0.384029
0.756683 -0.225000 0.375000
0.750000 -0.188712 0.450000
0.750000 -0.150000 0.238967
0.750000 -0.116759 0.225000
0.777958 -0.150000 0.300000
0.750000 -0.150000 0.477918
0.818930 -0.150000 0.450000
0.750000 -0.075000 0.218412
0.757601 -0.075000 0.225000
0.816713 -0.075000 0.300000
0.750000 -0.075000 0.501215
0.750000 0.000000 0.213769
0.750000 0.016633 0.225000
0.760741 0.000000 0.225000
0.750000 0.073830 0.300000
0.803402 0.000000 0.300000
0.750000 0.000000 0.507065
0.750000 0.075000 0.301620
0.750000 0.115795 0.375000
0.793304 0.075000 0.375000
0.750000 0.075000 0.475291
0.750000 0.107979 0.450000
0.779130 0.075000 0.450000
0.825000 -0.161506 0.375000
0.825000 -0.150000 0.362343
0.825000 -0.150000 0.429722
0.833640 -0.150000 0.375000
0.825000 -0.141919 0.450000
0.825000 -0.075000 0.312851
0.863976 -0.075000 0.375000
0.825000 -0.075000 0.473261
0.859494 -0.075000 0.450000
0.825000 0.000000 0.337440
0.825000 0.032683 0.375000
0.842938 0.000000 0.375000
0.825000 0.000000 0.451539
0.825000 0.002568 0.450000
0.826560 0.000000 0.450000
3 15 9 0
3 9 18 0
3 26 13 1
3 13 16 2
3 1 13 2
3 16 15 0
3 16 0 2
3 2 0 3
3 18 28 3
3 0 18 3
3 36 26 1
3 4 36 1
3 1 2 4
3 2 5 4
3 2 3 5
3 3 6 5
3 28 40 6
3 3 28 6
3 36 4 38
3 4 5 39
3 38 4 39
3 5 6 41
3 39 5 41
3 6 40 41
3 65 53 7
3 53 54 8
3 7 53 8
3 54 55 10
3 8 54 10
3 55 68 10
3 85 63 11
3 63 66 12
3 11 63 12
3 66 65 7
3 66 7 12
3 12 7 14
3 7 8 14
3 8 17 14
3 15 10 9
3 15 17 10
3 17 8 10
3 9 19 18
3 10 19 9
3 10 69 19
3 10 68 69
3 69 88 19
3 99 86 24
3 86 85 11
3 86 11 24
3 24 11 25
3 11 12 25
3 12 27 25
3 26 14 13
3 26 27 14
3 27 12 14
3 17 13 14
3 16 13 17
3 29 18 19
3 28 18 29
3 88 89 30
3 88 30 19
3 19 30 29
3 89 101 30
3 20 21 31
3 21 32 31
3 21 22 32
3 22 33 32
3 95 107 33
3 95 33 23
3 23 33 22
3 113 99 24
3 34 113 24
3 24 25 34
3 25 35 34
3 25 27 35
3 27 37 35
3 27 36 37
3 26 36 27
3 42 28 29
3 40 28 42
3 29 30 42
3 30 43 42
3 101 116 43
3 30 101 43
3 31 32 106
3 105 31 106
3 32 33 108
3 106 32 108
3 33 107 108
3 113 34 115
3 129 115 34
3 129 34 44
3 44 34 35
3 35 37 44
3 37 45 44
3 38 37 36
3 38 46 37
3 46 45 37
3 39 46 38
3 47 46 39
3 41 47 39
3 48 47 41
3 40 48 41
3 40 42 48
3 42 49 48
3 117 133 49
3 117 49 43
3 43 49 42
3 43 116 117
3 129 44 131
3 44 45 132
3 131 44 132
3 144 132 45
3 144 45 50
3 50 45 46
3 46 47 50
3 47 51 50
3 47 48 51
3 48 52 51
3 134 148 52
3 134 52 49
3 49 52 48
3 49 133 134
3 144 50 146
3 50 51 147
3 146 50 147
3 51 52 149
3 147 51 149
3 52 148 149
3 164 151 56
3 151 152 57
3 56 151 57
3 152 153 58
3 57 152 58
3 153 154 59
3 58 153 59
3 154 155 60
3 59 154 60
3 155 156 61
3 60 155 61
3 172 157 62
3 157 158 64
3 62 157 64
3 158 159 67
3 64 158 67
3 65 67 159
3 65 159 53
3 53 159 160
3 160 161 53
3 53 161 54
3 161 162 54
3 54 162 55
3 70 68 55
3 70 55 163
3 163 55 162
3 163 175 70
3 178 165 71
3 165 164 56
3 165 56 71
3 71 56 72
3 56 57 72
3 57 74 72
3 57 58 74
3 58 76 74
3 58 59 76
3 59 78 76
3 59 60 78
3 60 80 78
3 60 61 80
3 61 81 80
3 167 168 82
3 167 82 61
3 61 82 81
3 168 170 83
3 82 168 83
3 170 173 84
3 83 170 84
3 173 172 62
3 173 62 84
3 84 62 87
3 85 64 63
3 85 87 64
3 87 62 64
3 67 63 64
3 66 63 67
3 67 65 66
3 70 69 68
3 69 90 88
3 70 90 69
3 70 176 90
3 70 175 176
3 176 180 90
3 182 178 71
3 91 182 71
3 71 72 91
3 72 93 91
3 92 74 73
3 92 93 74
3 93 72 74
3 76 73 74
3 75 73 76
3 78 75 76
3 77 75 78
3 80 77 78
3 79 77 80
3 79 96 94
3 79 80 96
3 80 81 96
3 81 82 96
3 82 97 96
3 82 83 97
3 83 98 97
3 83 84 98
3 84 100 98
3 99 87 86
3 99 100 87
3 100 84 87
3 87 85 86
3 90 89 88
3 89 90 180
3 89 180 101
3 101 180 184
3 187 182 91
3 102 187 91
3 91 93 102
3 93 104 102
3 93 103 104
3 92 103 93
3 95 109 107
3 94 109 95
3 94 96 109
3 96 110 109
3 96 97 110
3 97 111 110
3 97 98 111
3 98 112 111
3 98 100 112
3 100 114 112
3 100 113 114
3 99 113 100
3 118 184 185
3 118 116 184
3 116 101 184
3 185 189 118
3 191 187 102
3 119 191 102
3 102 104 119
3 104 120 119
3 105 104 103
3 105 121 104
3 121 120 104
3 106 121 105
3 122 121 106
3 108 122 106
3 123 122 108
3 107 123 108
3 107 109 123
3 109 124 123
3 109 110 124
3 110 125 124
3 110 111 125
3 111 126 125
3 111 112 126
3 112 127 126
3 112 114 127
3 114 128 127
3 115 114 113
3 115 130 114
3 130 128 114
3 115 129 130
3 135 190 197
3 117 190 135
3 117 118 190
3 117 116 118
3 118 189 190
3 191 119 193
3 200 193 119
3 200 119 136
3 136 119 120
3 120 121 136
3 121 137 136
3 121 122 137
3 122 138 137
3 122 123 138
3 123 139 138
3 123 124 139
3 124 140 139
3 124 125 140
3 125 141 140
3 194 207 141
3 194 141 126
3 126 141 125
3 126 127 195
3 194 126 195
3 127 128 196
3 195 127 196
3 211 196 128
3 211 128 142
3 142 128 130
3 131 130 129
3 131 143 130
3 143 142 130
3 132 143 131
3 145 143 132
3 132 144 145
3 134 150 148
3 150 198 219
3 134 198 150
3 134 135 198
3 134 133 135
3 135 197 198
3 136 137 203
3 202 136 203
3 137 138 204
3 203 137 204
3 138 139 205
3 204 138 205
3 139 140 206
3 205 139 206
3 140 141 208
3 206 140 208
3 142 143 214
3 213 142 214
3 143 145 215
3 214 143 215
3 145 144 146
3 145 146 215
3 215 146 216
3 216 146 217
3 146 147 217
3 217 147 218
3 147 149 218
3 148 150 220
3 148 220 149
3 149 220 218
3 150 219 220
3 241 222 166
3 164 166 222
3 164 222 151
3 151 222 223
3 223 224 151
3 151 224 152
3 224 225 152
3 152 225 153
3 225 226 153
3 153 226 154
3 226 227 154
3 154 227 155
3 227 228 155
3 155 228 156
3 169 167 156
3 169 156 229
3 229 156 228
3 229 230 171
3 169 229 171
3 230 231 174
3 171 230 174
3 172 174 231
3 172 231 157
3 157 231 233
3 233 234 157
3 157 234 158
3 234 235 158
3 158 235 159
3 235 236 159
3 159 236 160
3 236 237 160
3 160 237 161
3 237 238 161
3 161 238 162
3 238 239 162
3 162 239 163
3 177 175 163
3 177 163 240
3 240 163 239
3 240 251 177
3 254 242 179
3 166 165 178
3 241 166 178
3 241 178 179
3 241 179 242
3 166 164 165
3 169 168 167
3 171 168 169
3 170 168 171
3 174 170 171
3 173 170 174
3 174 172 173
3 177 176 175
3 176 181 180
3 177 181 176
3 177 252 181
3 177 251 252
3 252 257 181
3 258 254 179
3 183 258 179
3 179 182 183
3 178 182 179
3 186 180 181
3 184 180 186
3 257 261 186
3 181 257 186
3 262 258 183
3 188 262 183
3 183 187 188
3 182 187 183
3 185 186 261
3 185 261 189
3 189 261 265
3 266 262 188
3 192 266 188
3 188 191 192
3 187 191 188
3 190 199 197
3 199 190 189
3 199 189 272
3 272 189 265
3 266 192 267
3 274 193 201
3 267 193 274
3 267 191 193
3 267 192 191
3 193 200 201
3 194 209 207
3 195 209 194
3 210 209 195
3 196 210 195
3 212 210 196
3 196 211 212
3 198 221 219
3 221 273 300
3 198 273 221
3 198 199 273
3 198 197 199
3 199 272 273
3 274 201 276
3 201 200 202
3 201 202 276
3 276 202 277
3 277 202 278
3 202 203 278
3 278 203 280
3 203 204 280
3 280 204 282
3 204 205 282
3 282 205 284
3 205 206 284
3 284 206 285
3 206 208 285
3 207 209 286
3 207 286 208
3 208 286 285
3 209 210 287
3 286 209 287
3 210 212 288
3 287 210 288
3 212 211 213
3 212 213 288
3 288 213 289
3 289 213 290
3 213 214 290
3 290 214 291
3 214 215 291
3 291 215 293
3 215 216 293
3 293 216 295
3 216 217 295
3 295 217 297
3 217 218 297
3 297 218 299
3 218 220 299
3 219 221 301
3 219 301 220
3 220 301 299
3 221 300 301
3 313 305 232
3 305 316 232
3 323 306 243
3 241 243 306
3 241 306 222
3 222 306 307
3 307 308 222
3 222 308 223
3 324 244 224
3 324 224 308
3 308 224 223
3 225 224 244
3 245 225 244
3 226 225 245
3 246 226 245
3 246 328 309
3 246 309 226
3 226 309 227
3 309 310 227
3 227 310 228
3 310 311 228
3 228 311 229
3 311 314 229
3 229 314 230
3 232 314 313
3 232 231 314
3 231 230 314
3 316 231 232
3 316 318 231
3 318 233 231
3 331 247 234
3 331 234 318
3 318 234 233
3 235 234 247
3 248 235 247
3 236 235 248
3 249 236 248
3 237 236 249
3 250 237 249
3 250 334 319
3 250 319 237
3 237 319 238
3 319 320 238
3 238 320 239
3 320 321 239
3 239 321 240
3 253 251 240
3 253 240 322
3 322 240 321
3 322 337 253
3 243 242 254
3 243 254 323
3 323 254 338
3 243 241 242
3 324 326 244
3 244 327 245
3 326 327 244
3 245 329 246
3 327 329 245
3 246 329 328
3 331 332 247
3 247 333 248
3 332 333 247
3 344 248 333
3 344 255 248
3 255 249 248
3 249 255 250
3 250 255 256
3 334 256 346
3 250 256 334
3 253 252 251
3 252 253 337
3 252 337 257
3 257 337 349
3 351 339 259
3 339 258 259
3 339 338 258
3 338 254 258
3 355 255 344
3 260 255 355
3 347 260 357
3 347 256 260
3 256 255 260
3 256 347 346
3 349 359 257
3 359 261 257
3 361 351 259
3 263 361 259
3 359 374 261
3 374 265 261
3 361 263 362
3 263 376 362
3 263 262 376
3 262 266 376
3 369 264 368
3 369 269 264
3 269 270 264
3 371 271 372
3 371 264 271
3 264 270 271
3 372 271 386
3 374 389 265
3 389 272 265
3 267 275 391
3 267 391 266
3 266 391 376
3 267 274 275
3 394 279 379
3 379 268 378
3 379 279 268
3 279 281 268
3 381 283 382
3 381 268 283
3 268 281 283
3 382 283 397
3 403 269 384
3 292 269 403
3 269 292 270
3 270 292 294
3 270 294 271
3 271 294 296
3 386 298 387
3 386 271 298
3 271 296 298
3 387 298 406
3 273 302 300
3 302 273 272
3 302 272 409
3 409 272 389
3 391 275 392
3 275 274 276
3 275 276 392
3 392 276 393
3 393 276 395
3 276 277 395
3 279 394 395
3 279 395 278
3 278 395 277
3 281 279 278
3 280 281 278
3 283 281 280
3 282 283 280
3 397 283 282
3 397 282 398
3 398 282 284
3 398 284 400
3 284 285 400
3 400 285 401
3 285 286 401
3 411 287 303
3 411 401 287
3 401 286 287
3 288 303 287
3 304 303 288
3 304 402 414
3 304 288 402
3 288 289 402
3 402 289 404
3 289 290 404
3 292 403 404
3 292 404 291
3 291 404 290
3 294 292 291
3 293 294 291
3 296 294 293
3 295 296 293
3 298 296 295
3 297 298 295
3 406 298 297
3 406 297 407
3 407 297 299
3 407 299 408
3 299 301 408
3 300 302 410
3 300 410 301
3 301 410 408
3 302 409 410
3 411 303 413
3 303 304 415
3 413 303 415
3 304 414 415
3 421 417 312
3 417 418 315
3 312 417 315
3 313 315 418
3 313 418 305
3 423 317 418
3 317 305 418
3 305 317 316
3 323 428 419
3 306 323 419
3 419 420 306
3 306 420 307
3 429 325 308
3 429 308 420
3 420 308 307
3 308 325 324
3 330 432 422
3 330 422 309
3 309 422 310
3 312 422 421
3 312 311 422
3 311 310 422
3 423 424 317
3 315 313 314
3 317 318 316
3 317 424 318
3 424 425 318
3 318 425 435
3 331 318 435
3 320 319 335
3 336 320 335
3 336 437 426
3 336 426 320
3 320 426 321
3 426 427 321
3 321 427 322
3 322 427 439
3 337 322 439
3 428 323 441
3 441 323 338
3 429 431 325
3 444 340 326
3 431 444 326
3 431 326 324
3 431 324 325
3 327 326 340
3 341 327 340
3 329 327 341
3 342 329 341
3 342 446 433
3 329 342 433
3 329 433 330
3 329 330 328
3 330 433 432
3 332 448 343
3 332 331 448
3 331 435 448
3 333 332 343
3 345 333 343
3 333 345 344
3 348 335 334
3 346 348 334
3 438 348 450
3 438 336 348
3 336 335 348
3 336 438 437
3 350 439 440
3 350 349 439
3 349 337 439
3 440 453 350
3 351 454 442
3 339 351 442
3 442 338 339
3 441 338 442
3 455 340 444
3 352 340 455
3 340 352 341
3 341 352 353
3 341 353 342
3 342 353 354
3 446 354 457
3 342 354 446
3 448 449 343
3 459 343 449
3 459 356 343
3 356 345 343
3 345 356 355
3 344 345 355
3 347 357 358
3 358 462 451
3 347 358 451
3 347 451 348
3 347 348 346
3 348 451 450
3 360 349 350
3 359 349 360
3 453 464 360
3 350 453 360
3 454 351 465
3 465 351 361
3 466 352 455
3 363 352 466
3 352 363 353
3 353 363 365
3 353 365 354
3 354 365 366
3 457 366 468
3 354 366 457
3 470 367 460
3 460 356 459
3 460 367 356
3 367 370 356
3 356 370 368
3 355 356 368
3 373 358 357
3 371 373 357
3 462 373 471
3 358 373 462
3 375 359 360
3 374 359 375
3 464 474 375
3 360 464 375
3 362 377 475
3 362 475 361
3 361 475 465
3 362 376 377
3 477 363 466
3 380 363 477
3 378 364 365
3 378 365 380
3 380 365 363
3 364 381 383
3 364 383 365
3 365 383 366
3 468 383 480
3 366 383 468
3 483 367 470
3 385 367 483
3 384 369 370
3 384 370 385
3 385 370 367
3 370 369 368
3 373 371 372
3 372 386 388
3 373 372 388
3 373 388 472
3 373 472 471
3 472 388 484
3 390 374 375
3 389 374 390
3 474 486 390
3 375 474 390
3 475 377 476
3 377 488 476
3 377 376 488
3 376 391 488
3 490 396 478
3 380 394 379
3 477 394 380
3 477 396 394
3 477 478 396
3 380 379 378
3 383 381 382
3 382 397 399
3 383 382 399
3 383 399 482
3 383 482 480
3 482 399 493
3 497 385 483
3 405 385 497
3 385 405 403
3 384 385 403
3 388 386 387
3 387 484 388
3 387 406 484
3 406 499 484
3 487 389 390
3 487 503 389
3 503 409 389
3 390 486 487
3 488 391 392
3 489 488 392
3 489 392 491
3 392 393 491
3 396 490 491
3 396 491 395
3 395 491 393
3 396 395 394
3 399 397 398
3 493 399 398
3 493 398 495
3 495 398 400
3 505 401 412
3 505 495 401
3 495 400 401
3 401 411 412
3 507 416 496
3 414 496 416
3 414 402 496
3 402 498 496
3 405 497 498
3 405 498 404
3 404 498 402
3 499 406 407
3 500 499 407
3 500 407 502
3 407 408 502
3 502 408 504
3 408 410 504
3 504 410 409
3 503 504 409
3 505 412 506
3 412 411 413
3 412 413 506
3 506 413 508
3 416 507 508
3 416 508 415
3 415 508 413
3 416 415 414
3 421 513 509
3 417 421 509
3 509 510 417
3 417 510 418
3 418 510 516
3 423 418 516
3 428 520 511
3 419 428 511
3 523 430 420
3 523 420 511
3 511 420 419
3 420 430 429
3 525 512 434
3 432 434 512
3 432 512 422
3 422 512 514
3 514 421 422
3 513 421 514
3 516 424 423
3 517 424 516
3 528 436 425
3 528 425 517
3 517 425 424
3 425 436 435
3 437 531 518
3 426 437 518
3 518 519 426
3 426 519 427
3 427 519 533
3 439 427 533
3 535 521 443
3 521 441 443
3 521 520 441
3 520 428 441
3 523 524 430
3 536 445 431
3 524 536 431
3 524 431 429
3 524 429 430
3 431 445 444
3 537 526 447
3 434 433 446
3 525 434 446
3 525 446 447
3 525 447 526
3 434 432 433
3 528 529 436
3 436 529 539
3 436 539 435
3 435 539 448
3 438 450 452
3 452 437 438
3 452 540 437
3 540 531 437
3 533 440 439
3 534 440 533
3 440 534 542
3 453 440 542
3 443 442 454
3 443 454 535
3 535 454 543
3 443 441 442
3 544 445 536
3 456 445 544
3 445 456 455
3 444 445 455
3 545 537 447
3 458 545 447
3 447 457 458
3 446 457 447
3 449 547 461
3 449 448 547
3 448 539 547
3 451 462 463
3 463 549 541
3 451 463 541
3 451 541 452
3 451 452 450
3 452 541 540
3 542 551 453
3 551 464 453
3 543 454 552
3 552 454 465
3 553 456 544
3 467 456 553
3 456 467 466
3 455 456 466
3 554 545 458
3 469 554 458
3 458 468 469
3 457 468 458
3 461 470 460
3 461 547 470
3 547 556 470
3 473 463 462
3 471 473 462
3 549 473 558
3 463 473 549
3 551 560 464
3 560 474 464
3 552 465 561
3 561 465 475
3 563 467 553
3 479 467 563
3 467 479 477
3 466 467 477
3 565 554 469
3 481 565 469
3 469 480 481
3 468 480 469
3 556 568 470
3 568 483 470
3 473 471 472
3 472 484 485
3 473 472 485
3 473 485 559
3 473 559 558
3 560 570 474
3 570 486 474
3 561 475 476
3 562 561 476
3 476 572 562
3 488 572 476
3 479 490 478
3 563 490 479
3 563 492 490
3 563 564 492
3 479 478 477
3 565 481 567
3 576 482 494
3 567 482 576
3 567 480 482
3 567 481 480
3 482 493 494
3 568 581 483
3 581 497 483
3 501 485 484
3 499 501 484
3 569 501 583
3 485 501 569
3 503 571 585
3 487 571 503
3 571 487 486
3 570 571 486
3 572 488 489
3 575 572 489
3 492 574 575
3 492 575 491
3 491 575 489
3 492 491 490
3 576 494 578
3 494 493 495
3 494 495 578
3 578 495 579
3 495 587 579
3 505 587 495
3 507 580 590
3 496 580 507
3 580 496 582
3 496 498 582
3 582 498 497
3 581 582 497
3 583 501 500
3 583 500 584
3 584 500 502
3 584 502 586
3 502 504 586
3 586 504 503
3 585 586 503
3 587 505 506
3 589 587 506
3 589 506 591
3 506 508 591
3 591 508 507
3 590 591 507
3 513 515 592
3 513 592 509
3 509 592 593
3 593 594 509
3 509 594 510
3 510 594 602
3 516 510 602
3 520 522 595
3 520 595 511
3 511 595 596
3 511 596 608
3 523 511 608
3 611 597 527
3 525 527 597
3 525 597 512
3 512 597 599
3 515 599 598
3 515 514 599
3 514 512 599
3 515 513 514
3 602 517 516
3 603 517 602
3 530 528 517
3 530 517 605
3 605 517 603
3 605 614 530
3 532 616 606
3 532 606 518
3 518 606 519
3 519 606 618
3 533 519 618
3 522 521 535
3 522 535 607
3 607 535 620
3 522 520 521
3 608 524 523
3 609 524 608
3 524 609 621
3 536 524 621
3 623 612 538
3 527 526 537
3 611 527 537
3 611 537 538
3 611 538 612
3 527 525 526
3 530 529 528
3 529 530 614
3 529 614 539
3 539 614 625
3 617 532 531
3 617 531 628
3 628 531 540
3 532 617 616
3 534 619 629
3 542 534 629
3 620 535 630
3 630 535 543
3 621 631 536
3 631 544 536
3 633 623 538
3 546 633 538
3 538 545 546
3 537 545 538
3 548 625 626
3 548 547 625
3 547 539 625
3 626 635 548
3 541 549 550
3 550 540 541
3 550 637 540
3 637 628 540
3 629 639 542
3 639 551 542
3 630 543 640
3 640 543 552
3 631 641 544
3 641 553 544
3 643 633 546
3 555 643 546
3 546 554 555
3 545 554 546
3 557 547 548
3 556 547 557
3 635 645 557
3 548 635 557
3 638 550 549
3 638 549 648
3 648 549 558
3 550 638 637
3 639 650 551
3 650 560 551
3 640 552 651
3 651 552 561
3 641 652 553
3 652 563 553
3 655 643 555
3 566 655 555
3 555 565 566
3 554 565 555
3 646 556 557
3 646 658 556
3 658 568 556
3 557 645 646
3 648 558 559
3 649 648 559
3 650 661 560
3 661 570 560
3 562 573 663
3 562 663 561
3 561 663 651
3 562 572 573
3 574 653 665
3 564 653 574
3 653 564 563
3 652 653 563
3 655 566 657
3 668 567 577
3 657 567 668
3 657 565 567
3 657 566 565
3 567 576 577
3 658 673 568
3 673 581 568
3 660 569 675
3 675 569 583
3 585 662 678
3 571 662 585
3 662 571 570
3 661 662 570
3 663 573 664
3 573 572 575
3 573 575 664
3 664 575 666
3 666 575 574
3 665 666 574
3 668 577 670
3 577 576 578
3 577 578 670
3 670 578 671
3 680 579 588
3 680 671 579
3 671 578 579
3 590 672 685
3 580 672 590
3 672 580 674
3 580 582 674
3 674 582 581
3 673 674 581
3 675 583 584
3 676 675 584
3 676 584 679
3 584 586 679
3 679 586 585
3 678 679 585
3 680 588 681
3 588 587 589
3 588 589 681
3 681 589 683
3 683 589 686
3 589 591 686
3 686 591 590
3 685 686 590
3 592 598 600
3 593 592 600
3 601 593 600
3 601 698 689
3 601 689 593
3 593 689 594
3 604 602 594
3 604 594 690
3 690 594 689
3 690 701 604
3 607 706 691
3 595 607 691
3 691 692 595
3 595 692 596
3 610 608 596
3 610 596 693
3 693 596 692
3 693 707 610
3 710 694 613
3 611 613 694
3 611 694 597
3 597 694 695
3 695 696 597
3 597 696 599
3 598 697 600
3 598 599 697
3 599 696 697
3 600 699 601
3 697 699 600
3 601 699 698
3 604 603 602
3 701 603 604
3 701 703 603
3 703 605 603
3 615 614 605
3 615 605 704
3 704 605 703
3 704 716 615
3 616 718 705
3 606 616 705
3 606 705 721
3 618 606 721
3 706 607 723
3 723 607 620
3 610 609 608
3 609 622 621
3 610 622 609
3 610 708 622
3 610 707 708
3 708 711 624
3 622 708 624
3 613 612 623
3 710 613 623
3 710 623 624
3 710 624 711
3 613 611 612
3 627 614 615
3 625 614 627
3 716 724 627
3 615 716 627
3 628 727 719
3 617 628 719
3 719 616 617
3 718 616 719
3 721 619 618
3 722 619 721
3 619 722 728
3 629 619 728
3 723 620 729
3 729 620 630
3 632 621 622
3 631 621 632
3 622 624 632
3 624 634 632
3 624 633 634
3 623 633 624
3 627 626 625
3 626 636 635
3 627 636 626
3 627 725 636
3 627 724 725
3 725 730 636
3 727 628 732
3 732 628 637
3 728 734 629
3 734 639 629
3 729 630 735
3 735 630 640
3 642 631 632
3 641 631 642
3 632 634 642
3 634 644 642
3 634 643 644
3 633 643 634
3 647 635 636
3 645 635 647
3 730 736 647
3 636 730 647
3 733 637 638
3 732 637 733
3 734 741 639
3 741 650 639
3 735 640 742
3 742 640 651
3 654 641 642
3 652 641 654
3 642 644 654
3 644 656 654
3 644 655 656
3 643 655 644
3 646 659 658
3 659 737 746
3 646 737 659
3 646 647 737
3 646 645 647
3 647 736 737
3 649 749 739
3 660 749 649
3 741 751 650
3 751 661 650
3 742 651 753
3 753 651 663
3 653 667 665
3 667 743 757
3 653 743 667
3 653 654 743
3 653 652 654
3 654 656 744
3 743 654 744
3 760 657 669
3 744 657 760
3 744 655 657
3 744 656 655
3 657 668 669
3 747 658 659
3 747 771 658
3 771 673 658
3 659 746 747
3 677 750 749
3 677 749 675
3 675 749 660
3 750 677 774
3 678 752 775
3 662 752 678
3 752 662 661
3 751 752 661
3 754 664 756
3 664 666 756
3 665 667 758
3 665 758 666
3 666 758 756
3 667 757 758
3 760 669 762
3 669 668 670
3 669 670 762
3 762 670 763
3 763 670 764
3 670 671 764
3 682 671 680
3 682 766 671
3 766 764 671
3 766 684 768
3 682 684 766
3 768 687 770
3 684 687 768
3 777 770 687
3 688 685 672
3 688 772 778
3 688 672 772
3 672 674 772
3 772 674 673
3 771 772 673
3 774 677 676
3 774 676 776
3 776 676 679
3 776 679 678
3 775 776 678
3 682 680 681
3 684 682 681
3 683 684 681
3 687 684 683
3 686 687 683
3 685 688 779
3 685 779 686
3 777 687 779
3 687 686 779
3 689 698 700
3 690 689 700
3 702 690 700
3 690 702 701
3 706 795 781
3 691 706 781
3 781 782 691
3 691 782 692
3 782 783 692
3 692 783 693
3 709 707 693
3 709 693 784
3 784 693 783
3 784 785 712
3 709 784 712
3 710 712 785
3 710 785 694
3 694 785 786
3 786 787 694
3 694 787 695
3 796 713 696
3 796 696 787
3 787 696 695
3 697 696 713
3 714 697 713
3 699 697 714
3 715 699 714
3 715 800 788
3 699 715 788
3 699 788 700
3 699 700 698
3 700 789 702
3 788 789 700
3 702 703 701
3 702 789 703
3 789 790 703
3 790 791 703
3 703 791 704
3 717 716 704
3 717 704 792
3 792 704 791
3 792 803 717
3 718 720 793
3 718 793 705
3 705 793 794
3 705 794 806
3 721 705 806
3 795 706 808
3 808 706 723
3 709 708 707
3 712 708 709
3 711 708 712
3 712 710 711
3 796 798 713
3 713 799 714
3 798 799 713
3 714 801 715
3 799 801 714
3 715 801 800
3 726 716 717
3 724 716 726
3 803 813 726
3 717 803 726
3 720 719 727
3 720 727 805
3 805 727 817
3 720 718 719
3 806 722 721
3 807 722 806
3 722 807 818
3 728 722 818
3 808 723 819
3 819 723 729
3 726 725 724
3 725 731 730
3 726 731 725
3 726 814 731
3 726 813 814
3 814 823 731
3 817 727 825
3 825 727 732
3 818 827 728
3 827 734 728
3 819 729 828
3 828 729 735
3 738 730 731
3 736 730 738
3 823 833 738
3 731 823 738
3 740 732 733
3 740 836 732
3 836 825 732
3 827 838 734
3 838 741 734
3 828 735 839
3 839 735 742
3 737 748 746
3 748 834 847
3 737 834 748
3 737 738 834
3 737 736 738
3 738 833 834
3 739 836 740
3 739 749 836
3 749 851 836
3 838 853 741
3 853 751 741
3 755 840 839
3 755 839 753
3 753 839 742
3 840 755 855
3 743 759 757
3 744 759 743
3 761 759 744
3 744 760 761
3 862 765 842
3 842 745 841
3 842 765 745
3 765 767 745
3 844 769 845
3 844 745 769
3 745 767 769
3 845 769 865
3 747 773 771
3 773 848 870
3 747 848 773
3 747 748 848
3 747 746 748
3 748 847 848
3 851 749 750
3 852 851 750
3 750 874 852
3 774 874 750
3 775 854 876
3 752 854 775
3 854 752 751
3 853 854 751
3 855 755 754
3 855 754 856
3 856 754 756
3 856 756 857
3 756 758 857
3 757 759 858
3 757 858 758
3 758 858 857
3 759 761 859
3 858 759 859
3 761 760 762
3 761 762 859
3 859 762 860
3 860 762 863
3 762 763 863
3 765 862 863
3 765 863 764
3 764 863 763
3 767 765 764
3 766 767 764
3 769 767 766
3 768 769 766
3 865 769 768
3 865 768 866
3 866 768 770
3 780 770 777
3 780 868 770
3 868 866 770
3 778 868 780
3 778 772 868
3 772 869 868
3 771 773 871
3 771 871 772
3 772 871 869
3 773 870 871
3 874 774 776
3 877 874 776
3 877 776 775
3 876 877 775
3 795 893 878
3 781 795 878
3 878 879 781
3 781 879 782
3 879 880 782
3 782 880 783
3 880 881 783
3 783 881 784
3 881 882 784
3 784 882 785
3 882 883 785
3 785 883 786
3 899 797 787
3 899 787 883
3 883 787 786
3 787 797 796
3 788 800 802
3 802 902 884
3 802 884 788
3 788 884 789
3 884 885 789
3 789 885 790
3 885 886 790
3 790 886 791
3 886 888 791
3 791 888 792
3 804 803 792
3 804 792 890
3 890 792 888
3 890 904 804
3 805 908 891
3 793 805 891
3 891 892 793
3 793 892 794
3 794 892 910
3 806 794 910
3 893 795 912
3 912 795 808
3 899 901 797
3 914 809 798
3 901 914 798
3 901 798 796
3 901 796 797
3 799 798 809
3 810 799 809
3 800 801 811
3 800 811 802
3 802 811 812
3 902 812 916
3 802 812 902
3 815 803 804
3 813 803 815
3 904 905 816
3 904 816 804
3 804 816 815
3 908 805 920
3 920 805 817
3 910 807 806
3 911 807 910
3 807 911 923
3 818 807 923
3 912 808 925
3 925 808 819
3 926 809 914
3 820 809 926
3 809 820 810
3 810 820 821
3 810 821 811
3 811 821 822
3 917 822 928
3 917 812 822
3 812 811 822
3 815 814 813
3 814 824 823
3 814 815 824
3 815 816 824
3 918 930 824
3 816 918 824
3 931 921 826
3 921 825 826
3 921 920 825
3 920 817 825
3 923 933 818
3 933 827 818
3 925 819 934
3 934 819 828
3 936 820 926
3 829 820 936
3 820 829 821
3 821 829 831
3 821 831 822
3 822 831 832
3 928 832 938
3 822 832 928
3 835 823 824
3 833 823 835
3 930 940 835
3 824 930 835
3 941 931 826
3 837 941 826
3 826 836 837
3 825 836 826
3 933 944 827
3 944 838 827
3 934 828 945
3 945 828 839
3 949 829 936
3 843 829 949
3 841 830 831
3 841 831 843
3 843 831 829
3 830 844 846
3 830 846 831
3 831 846 832
3 938 846 952
3 832 846 938
3 834 849 847
3 833 849 834
3 833 835 849
3 835 850 849
3 940 955 850
3 835 940 850
3 941 837 943
3 837 958 943
3 837 836 958
3 836 851 958
3 944 960 838
3 960 853 838
3 945 839 840
3 946 945 840
3 840 963 946
3 855 963 840
3 969 861 947
3 947 864 950
3 861 864 947
3 843 862 842
3 949 862 843
3 949 864 862
3 949 950 864
3 843 842 841
3 846 844 845
3 845 865 867
3 846 845 867
3 846 867 953
3 846 953 952
3 953 867 972
3 848 872 870
3 847 872 848
3 847 849 872
3 849 873 872
3 956 978 873
3 956 873 850
3 850 873 849
3 850 955 956
3 852 875 982
3 852 982 851
3 851 982 958
3 852 874 875
3 876 961 985
3 854 961 876
3 961 854 853
3 960 961 853
3 963 855 856
3 964 963 856
3 964 856 966
3 856 857 966
3 966 857 967
3 857 858 967
3 967 858 970
3 858 859 970
3 861 969 970
3 861 970 860
3 860 970 859
3 864 861 860
3 863 864 860
3 864 863 862
3 867 865 866
3 972 867 866
3 972 866 973
3 973 866 868
3 973 868 975
3 868 869 975
3 975 869 976
3 869 871 976
3 870 872 977
3 870 977 871
3 871 977 976
3 872 873 979
3 977 872 979
3 873 978 979
3 875 874 877
3 875 877 984
3 984 877 986
3 986 877 876
3 985 986 876
3 988 989 889
3 887 988 889
3 989 993 889
3 878 893 894
3 879 878 894
3 895 879 894
3 880 879 895
3 896 880 895
3 881 880 896
3 897 881 896
3 882 881 897
3 898 882 897
3 883 882 898
3 900 883 898
3 883 900 899
3 884 902 903
3 903 1008 991
3 903 991 884
3 884 991 885
3 887 991 990
3 887 886 991
3 886 885 991
3 889 886 887
3 888 886 889
3 993 888 889
3 993 994 888
3 994 890 888
3 906 904 890
3 906 890 996
3 996 890 994
3 996 998 907
3 906 996 907
3 998 1000 909
3 907 998 909
3 908 909 1000
3 908 1000 891
3 891 1000 1001
3 1001 1002 891
3 891 1002 892
3 892 1002 1011
3 910 892 1011
3 1003 894 893
3 1003 893 1012
3 1012 893 912
3 894 1004 895
3 1003 1004 894
3 895 1005 896
3 1004 1005 895
3 896 1006 897
3 1005 1006 896
3 897 1007 898
3 1006 1007 897
3 1017 898 1007
3 1017 913 898
3 913 900 898
3 901 899 900
3 901 900 915
3 915 900 913
3 901 915 914
3 1009 903 902
3 1009 902 1020
3 1020 902 916
3 903 1009 1008
3 906 905 904
3 905 919 918
3 905 906 919
3 906 907 919
3 907 909 919
3 909 922 919
3 909 920 922
3 908 920 909
3 911 1022 924
3 911 910 1022
3 910 1011 1022
3 911 924 923
3 1012 912 1024
3 1024 912 925
3 1017 1019 913
3 1030 913 1019
3 1030 927 913
3 927 915 913
3 915 927 926
3 914 915 926
3 917 928 929
3 929 916 917
3 929 1033 916
3 1033 1020 916
3 932 918 919
3 930 918 932
3 931 922 921
3 931 932 922
3 932 919 922
3 1022 1023 924
3 924 1023 1035
3 924 1035 923
3 923 1035 933
3 1024 925 1037
3 1037 925 934
3 1042 935 1031
3 1031 927 1030
3 1031 935 927
3 935 937 927
3 927 937 936
3 926 927 936
3 939 929 928
3 938 939 928
3 1033 939 1044
3 929 939 1033
3 1035 1046 933
3 1046 944 933
3 1037 934 1049
3 1049 934 945
3 1057 935 1042
3 948 935 1057
3 935 948 937
3 937 948 951
3 937 951 949
3 936 937 949
3 954 939 938
3 952 954 938
3 1044 954 1060
3 939 954 1044
3 957 940 942
3 955 940 957
3 943 942 941
3 943 959 942
3 959 957 942
3 943 958 959
3 1063 962 1047
3 1047 962 960
3 1047 960 1046
3 1046 960 944
3 1049 945 946
3 1050 1049 946
3 965 946 963
3 965 1052 946
3 1052 1050 946
3 1052 965 1064
3 1065 968 1055
3 1055 971 1058
3 968 971 1055
3 948 969 947
3 1057 969 948
3 1057 971 969
3 1057 1058 971
3 951 948 947
3 950 951 947
3 951 950 949
3 954 952 953
3 953 972 974
3 954 953 974
3 954 974 1061
3 954 1061 1060
3 1061 974 1068
3 956 980 978
3 955 980 956
3 955 957 980
3 957 981 980
3 957 959 981
3 959 983 981
3 959 982 983
3 958 982 959
3 962 985 961
3 962 1063 985
3 1063 1076 985
3 962 961 960
3 965 963 964
3 1064 965 964
3 1064 964 1066
3 1066 964 966
3 968 1065 1066
3 968 1066 967
3 967 1066 966
3 971 968 967
3 970 971 967
3 971 970 969
3 974 972 973
3 1068 974 973
3 1068 973 1069
3 1069 973 975
3 1069 975 1070
3 975 976 1070
3 1078 977 987
3 1078 1070 977
3 1070 976 977
3 987 1071 1079
3 987 977 1071
3 977 979 1071
3 978 980 1072
3 978 1072 979
3 979 1072 1071
3 980 981 1073
3 1072 980 1073
3 981 983 1074
3 1073 981 1074
3 983 982 984
3 983 984 1074
3 1074 984 1075
3 1075 984 1077
3 984 986 1077
3 1077 986 985
3 1076 1077 985
3 1078 987 1080
3 987 1079 1080
3 992 1088 1084
3 992 1084 988
3 988 1084 989
3 995 993 989
3 995 989 1085
3 1085 989 1084
3 1085 1086 997
3 995 1085 997
3 1086 1087 999
3 997 1086 999
3 991 1008 1010
3 1010 1096 1089
3 991 1010 1089
3 991 1089 992
3 991 992 990
3 992 1089 1088
3 997 994 995
3 996 994 997
3 999 996 997
3 998 996 999
3 1091 998 999
3 1091 1092 998
3 1092 1000 998
3 1092 1094 1000
3 1000 1094 1001
3 1094 1095 1001
3 1001 1095 1002
3 1002 1095 1098
3 1011 1002 1098
3 1003 1012 1013
3 1004 1003 1013
3 1014 1004 1013
3 1005 1004 1014
3 1015 1005 1014
3 1006 1005 1015
3 1016 1006 1015
3 1007 1006 1016
3 1018 1007 1016
3 1007 1018 1017
3 1009 1020 1021
3 1021 1100 1097
3 1009 1021 1097
3 1009 1097 1010
3 1009 1010 1008
3 1010 1097 1096
3 1098 1101 1011
3 1101 1022 1011
3 1025 1013 1012
3 1024 1025 1012
3 1013 1025 1014
3 1014 1025 1026
3 1014 1026 1015
3 1015 1026 1027
3 1015 1027 1016
3 1016 1027 1028
3 1016 1028 1018
3 1018 1028 1029
3 1019 1017 1018
3 1019 1018 1032
3 1032 1018 1029
3 1034 1021 1020
3 1033 1034 1020
3 1100 1034 1102
3 1021 1034 1100
3 1023 1103 1036
3 1023 1022 1103
3 1022 1101 1103
3 1023 1036 1035
3 1038 1025 1024
3 1037 1038 1024
3 1025 1038 1026
3 1026 1038 1039
3 1026 1039 1027
3 1027 1039 1040
3 1027 1040 1028
3 1028 1040 1041
3 1028 1041 1029
3 1029 1041 1043
3 1042 1031 1032
3 1042 1032 1043
3 1043 1032 1029
3 1045 1034 1033
3 1044 1045 1033
3 1102 1045 1104
3 1034 1045 1102
3 1105 1036 1103
3 1048 1036 1105
3 1036 1048 1046
3 1035 1036 1046
3 1051 1038 1037
3 1049 1051 1037
3 1038 1051 1039
3 1039 1051 1053
3 1039 1053 1040
3 1040 1053 1054
3 1040 1054 1041
3 1041 1054 1056
3 1041 1056 1043
3 1043 1056 1059
3 1043 1059 1057
3 1042 1043 1057
3 1062 1045 1044
3 1060 1062 1044
3 1104 1062 1106
3 1045 1062 1104
3 1048 1063 1047
3 1048 1105 1063
3 1105 1108 1063
3 1048 1047 1046
3 1051 1049 1050
3 1053 1051 1050
3 1052 1053 1050
3 1052 1064 1067
3 1052 1067 1053
3 1053 1067 1054
3 1065 1055 1056
3 1065 1056 1067
3 1067 1056 1054
3 1059 1056 1055
3 1058 1059 1055
3 1059 1058 1057
3 1062 1060 1061
3 1061 1106 1062
3 1061 1068 1106
3 1068 1109 1106
3 1108 1115 1063
3 1115 1076 1063
3 1109 1068 1069
3 1110 1109 1069
3 1110 1069 1112
3 1069 1070 1112
3 1070 1118 1112
3 1078 1118 1070
3 1071 1081 1079
3 1072 1081 1071
3 1082 1081 1072
3 1073 1082 1072
3 1083 1082 1073
3 1083 1113 1123
3 1083 1073 1113
3 1073 1074 1113
3 1113 1074 1114
3 1074 1075 1114
3 1114 1075 1116
3 1075 1077 1116
3 1116 1077 1076
3 1115 1116 1076
3 1118 1078 1080
3 1119 1118 1080
3 1079 1081 1121
3 1079 1121 1080
3 1080 1121 1119
3 1081 1082 1122
3 1121 1081 1122
3 1082 1083 1124
3 1122 1082 1124
3 1084 1088 1090
3 1090 1131 1126
3 1090 1126 1084
3 1084 1126 1085
3 1126 1127 1085
3 1085 1127 1086
3 1127 1128 1086
3 1086 1128 1087
3 1093 1091 1087
3 1093 1087 1129
3 1129 1087 1128
3 1129 1134 1093
3 1096 1136 1130
3 1089 1096 1130
3 1088 1132 1090
3 1088 1089 1132
3 1089 1130 1132
3 1090 1132 1131
3 1093 1092 1091
3 1134 1092 1093
3 1134 1135 1092
3 1135 1094 1092
3 1139 1099 1095
3 1139 1095 1135
3 1135 1095 1094
3 1100 1141 1137
3 1097 1100 1137
3 1137 1096 1097
3 1136 1096 1137
3 1139 1140 1099
3 1099 1140 1143
3 1099 1143 1098
3 1098 1143 1101
3 1141 1100 1145
3 1145 1100 1102
3 1143 1147 1101
3 1147 1103 1101
3 1145 1102 1148
3 1148 1102 1104
3 1147 1151 1103
3 1151 1105 1103
3 1107 1149 1148
3 1107 1148 1106
3 1106 1148 1104
3 1151 1153 1105
3 1153 1108 1105
3 1111 1107 1106
3 1109 1111 1106
3 1152 1111 1155
3 1107 1111 1152
3 1159 1117 1154
3 1154 1117 1115
3 1154 1115 1153
3 1153 1115 1108
3 1111 1109 1110
3 1155 1111 1110
3 1155 1110 1156
3 1156 1110 1112
3 1120 1112 1118
3 1120 1158 1112
3 1158 1156 1112
3 1113 1125 1123
3 1125 1160 1166
3 1125 1113 1160
3 1113 1114 1160
3 1117 1159 1160
3 1117 1160 1116
3 1116 1160 1114
3 1117 1116 1115
3 1120 1118 1119
3 1161 1120 1119
3 1161 1119 1162
3 1162 1119 1121
3 1162 1121 1164
3 1121 1122 1164
3 1164 1122 1165
3 1122 1124 1165
3 1123 1125 1167
3 1123 1167 1124
3 1124 1167 1165
3 1125 1166 1167
3 1126 1131 1133
3 1133 1172 1168
3 1133 1168 1126
3 1126 1168 1127
3 1168 1169 1127
3 1127 1169 1128
3 1169 1170 1128
3 1128 1170 1129
3 1129 1170 1175
3 1134 1129 1175
3 1130 1136 1138
3 1138 1178 1171
3 1138 1171 1130
3 1130 1171 1132
3 1131 1173 1133
3 1131 1132 1173
3 1132 1171 1173
3 1175 1135 1134
3 1177 1135 1175
3 1135 1177 1181
3 1139 1135 1181
3 1142 1183 1179
3 1137 1142 1179
3 1137 1179 1138
3 1137 1138 1136
3 1138 1179 1178
3 1140 1185 1144
3 1140 1139 1185
3 1139 1181 1185
3 1140 1144 1143
3 1146 1142 1141
3 1145 1146 1141
3 1183 1146 1187
3 1142 1146 1183
3 1185 1186 1144
3 1144 1186 1189
3 1144 1189 1143
3 1143 1189 1147
3 1150 1146 1145
3 1148 1150 1145
3 1187 1150 1191
3 1146 1150 1187
3 1189 1193 1147
3 1193 1151 1147
3 1150 1148 1149
3 1149 1191 1150
3 1149 1152 1191
3 1152 1194 1191
3 1193 1197 1151
3 1197 1153 1151
3 1157 1195 1194
3 1157 1194 1155
3 1155 1194 1152
3 1195 1157 1200
3 1159 1198 1204
3 1154 1198 1159
3 1198 1154 1153
3 1197 1198 1153
3 1157 1155 1156
3 1200 1157 1156
3 1200 1156 1201
3 1201 1156 1158
3 1163 1158 1161
3 1163 1203 1158
3 1203 1201 1158
3 1166 1205 1211
3 1160 1205 1166
3 1205 1160 1159
3 1204 1205 1159
3 1163 1161 1162
3 1206 1163 1162
3 1206 1162 1207
3 1207 1162 1164
3 1207 1164 1209
3 1164 1165 1209
3 1209 1165 1212
3 1165 1167 1212
3 1212 1167 1166
3 1211 1212 1166
3 1168 1172 1174
3 1174 1216 1214
3 1174 1214 1168
3 1168 1214 1169
3 1218 1176 1170
3 1218 1170 1214
3 1214 1170 1169
3 1170 1176 1175
3 1171 1178 1180
3 1180 1221 1215
3 1180 1215 1171
3 1171 1215 1173
3 1172 1217 1174
3 1172 1173 1217
3 1173 1215 1217
3 1174 1217 1216
3 1218 1220 1176
3 1224 1182 1177
3 1220 1224 1177
3 1220 1177 1175
3 1220 1175 1176
3 1177 1182 1181
3 1179 1183 1184
3 1184 1226 1222
3 1179 1184 1222
3 1179 1222 1180
3 1179 1180 1178
3 1180 1222 1221
3 1182 1225 1228
3 1182 1228 1181
3 1181 1228 1185
3 1188 1184 1183
3 1187 1188 1183
3 1226 1188 1230
3 1184 1188 1226
3 1186 1232 1190
3 1186 1185 1232
3 1185 1228 1232
3 1186 1190 1189
3 1192 1188 1187
3 1191 1192 1187
3 1230 1192 1234
3 1188 1192 1230
3 1232 1233 1190
3 1190 1233 1236
3 1190 1236 1189
3 1189 1236 1193
3 1196 1192 1191
3 1194 1196 1191
3 1234 1196 1239
3 1192 1196 1234
3 1242 1199 1237
3 1237 1199 1197
3 1237 1197 1236
3 1236 1197 1193
3 1196 1194 1195
3 1195 1200 1202
3 1196 1195 1202
3 1196 1202 1240
3 1196 1240 1239
3 1240 1202 1244
3 1199 1204 1198
3 1199 1242 1204
3 1242 1250 1204
3 1199 1198 1197
3 1202 1200 1201
3 1244 1202 1201
3 1244 1201 1245
3 1245 1201 1203
3 1208 1203 1206
3 1208 1247 1203
3 1247 1245 1203
3 1247 1210 1248
3 1208 1210 1247
3 1248 1213 1249
3 1210 1213 1248
3 1211 1249 1213
3 1211 1205 1249
3 1205 1251 1249
3 1251 1205 1204
3 1250 1251 1204
3 1208 1206 1207
3 1210 1208 1207
3 1209 1210 1207
3 1213 1210 1209
3 1212 1213 1209
3 1214 1216 1219
3 1214 1219 1218
3 1215 1221 1223
3 1223 1256 1253
3 1223 1253 1215
3 1215 1253 1217
3 1216 1254 1219
3 1216 1217 1254
3 1217 1253 1254
3 1219 1220 1218
3 1219 1254 1220
3 1254 1255 1220
3 1220 1255 1259
3 1224 1220 1259
3 1222 1226 1227
3 1227 1261 1257
3 1222 1227 1257
3 1222 1257 1223
3 1222 1223 1221
3 1223 1257 1256
3 1225 1263 1229
3 1225 1224 1263
3 1224 1259 1263
3 1225 1229 1228
3 1231 1227 1226
3 1230 1231 1226
3 1261 1231 1265
3 1227 1231 1261
3 1263 1264 1229
3 1229 1264 1266
3 1229 1266 1228
3 1228 1266 1232
3 1235 1231 1230
3 1234 1235 1230
3 1265 1235 1268
3 1231 1235 1265
3 1233 1269 1238
3 1233 1232 1269
3 1232 1266 1269
3 1233 1238 1236
3 1241 1235 1234
3 1239 1241 1234
3 1268 1241 1272
3 1235 1241 1268
3 1238 1242 1237
3 1269 1242 1238
3 1269 1243 1242
3 1269 1270 1243
3 1238 1237 1236
3 1241 1239 1240
3 1240 1244 1246
3 1241 1240 1246
3 1241 1246 1273
3 1241 1273 1272
3 1273 1246 1277
3 1243 1252 1250
3 1242 1243 1250
3 1246 1244 1245
3 1277 1246 1245
3 1277 1245 1278
3 1278 1245 1247
3 1278 1247 1280
3 1247 1248 1280
3 1280 1248 1283
3 1248 1249 1283
3 1252 1282 1283
3 1252 1283 1251
3 1251 1283 1249
3 1252 1251 1250
3 1253 1256 1258
3 1258 1286 1285
3 1258 1285 1253
3 1253 1285 1254
3 1288 1260 1255
3 1288 1255 1285
3 1285 1255 1254
3 1255 1260 1259
3 1257 1261 1262
3 1262 1291 1287
3 1257 1262 1287
3 1257 1287 1258
3 1257 1258 1256
3 1258 1287 1286
3 1288 1290 1260
3 1260 1290 1294
3 1260 1294 1259
3 1259 1294 1263
3 1292 1262 1261
3 1292 1261 1296
3 1296 1261 1265
3 1262 1292 1291
3 1264 1299 1267
3 1264 1263 1299
3 1263 1294 1299
3 1296 1265 1300
3 1300 1265 1268
3 1305 1267 1299
3 1271 1267 1305
3 1267 1271 1269
3 1266 1267 1269
3 1274 1301 1300
3 1274 1300 1272
3 1272 1300 1268
3 1301 1275 1303
3 1274 1275 1301
3 1303 1275 1306
3 1271 1276 1270
3 1271 1305 1276
3 1305 1309 1276
3 1271 1270 1269
3 1274 1272 1273
3 1273 1277 1279
3 1273 1279 1274
3 1274 1279 1275
3 1306 1281 1307
3 1306 1275 1281
3 1275 1279 1281
3 1307 1284 1310
3 1281 1284 1307
3 1310 1284 1282
3 1310 1282 1309
3 1309 1282 1276
3 1279 1277 1278
3 1281 1279 1278
3 1280 1281 1278
3 1284 1281 1280
3 1283 1284 1280
3 1284 1283 1282
3 1293 1313 1312
3 1287 1293 1312
3 1287 1312 1289
3 1287 1289 1286
3 1314 1295 1290
3 1312 1314 1290
3 1312 1290 1288
3 1312 1288 1289
3 1290 1295 1294
3 1292 1296 1297
3 1291 1292 1297
3 1291 1297 1293
3 1293 1297 1298
3 1313 1298 1317
3 1293 1298 1313
3 1314 1316 1295
3 1295 1316 1319
3 1295 1319 1294
3 1294 1319 1299
3 1302 1297 1296
3 1300 1302 1296
3 1297 1302 1298
3 1298 1302 1304
3 1317 1304 1321
3 1298 1304 1317
3 1319 1324 1299
3 1324 1305 1299
3 1302 1300 1301
3 1304 1302 1301
3 1303 1304 1301
3 1303 1306 1308
3 1304 1303 1308
3 1304 1308 1322
3 1304 1322 1321
3 1322 1311 1325
3 1308 1311 1322
3 1325 1311 1309
3 1325 1309 1324
3 1324 1309 1305
3 1308 1306 1307
3 1311 1308 1307
3 1310 1311 1307
3 1311 1310 1309
3 1312 1315 1314
3 1318 1315 1313
3 1317 1318 1313
3 1316 1314 1315
3 1316 1315 1320
3 1320 1315 1318
3 1316 1320 1319
3 1323 1318 1317
3 1321 1323 1317
3 1318 1323 1320
3 1320 1323 1326
3 1320 1326 1324
3 1319 1320 1324
3 1326 1323 1322
3 1325 1326 1322
