ply
format ascii 1.0
element vertex 252
property float x
property float y
property float z
element face 500
property list uchar int vertex_indices
end_header
-0.726802 -0.168242 0.352839
-0.741741 -0.198709 0.494662
-0.731378 -0.189290 0.596359
-0.780043 -0.074619 0.357234
-0.760810 -0.104440 0.602167
-0.726077 -0.084390 0.287772
-0.797715 -0.000677 0.572912
-0.739074 -0.011243 0.278995
-0.791304 0.019219 0.341736
-0.814463 0.043740 0.508372
-0.730305 0.091484 0.297836
-0.764082 0.110597 0.596790
-0.779110 0.111081 0.371961
-0.738485 0.174522 0.359416
-0.743325 0.200446 0.482368
-0.733366 0.195007 0.577862
-0.655607 -0.247758 0.496643
-0.717870 -0.218006 0.419388
-0.689639 -0.226150 0.588358
-0.654477 -0.195760 0.639250
-0.681985 -0.031465 0.710479
-0.662706 -0.038305 0.278694
-0.674118 0.039145 0.273552
-0.696059 0.037238 0.711198
-0.629668 0.126057 0.695987
-0.705276 0.219995 0.402418
-0.675477 0.190262 0.643063
-0.674200 0.242782 0.520665
-0.604641 -0.263194 0.572923
-0.668979 -0.190126 0.369218
-0.643400 -0.125684 0.688491
-0.674906 -0.119821 0.302526
-0.579185 -0.079665 0.338324
-0.583759 0.066955 0.333636
-0.636923 0.003250 0.734924
-0.662133 0.097759 0.292721
-0.670654 0.185018 0.350177
-0.655520 0.230094 0.402978
-0.575305 0.259181 0.588323
-0.568423 -0.270427 0.531164
-0.573536 -0.207843 0.431254
-0.579654 0.216596 0.420688
-0.581817 0.204309 0.664995
-0.577407 0.267056 0.516263
-0.513900 0.256862 0.510776
-0.443994 -0.252035 0.555666
-0.511630 -0.250897 0.506046
-0.497146 -0.198396 0.450156
-0.442369 -0.222147 0.501005
-0.512384 -0.102898 0.387775
-0.411842 -0.153977 0.458126
-0.438145 -0.052646 0.416475
-0.503213 0.023967 0.380396
-0.404389 0.036520 0.432621
-0.433673 0.132699 0.447247
-0.502328 0.182772 0.441203
-0.421012 0.208112 0.494307
-0.485493 0.268391 0.545976
-0.044711 -0.205352 0.657947
0.026628 -0.054250 0.717465
0.030493 0.077217 0.690436
-0.038261 0.214367 0.644829
-0.135274 0.246489 0.592740
-0.287102 -0.185218 0.495179
-0.329007 -0.145072 0.474372
-0.354775 -0.059774 0.448970
-0.331352 0.045902 0.451262
-0.371560 0.110997 0.458601
-0.101755 -0.226915 0.510409
-0.196821 -0.099425 0.463576
0.013305 -0.135957 0.695767
-0.183654 0.014780 0.451574
-0.201461 0.124296 0.471332
-0.108264 0.213259 0.503648
-0.046916 -0.245126 0.580888
0.060835 -0.007911 0.705136
0.028773 0.144197 0.688175
-0.021569 -0.188202 -0.974910
-0.036641 -0.199322 -0.767132
-0.017229 -0.174571 0.351866
-0.053067 -0.205893 0.448582
-0.072926 -0.107325 -0.969799
-0.082725 -0.093446 -0.736731
-0.037283 -0.160008 -0.667868
-0.072025 -0.062633 0.363833
-0.121792 -0.139565 0.458377
-0.094020 -0.111184 0.427520
-0.031687 -0.105177 -1.051768
-0.070331 -0.036617 -0.656490
-0.029581 -0.048673 0.273277
-0.116866 -0.011507 0.424765
-0.076211 0.044626 -1.051648
-0.097717 0.007910 -0.961992
-0.092737 -0.009486 -0.734401
-0.030195 0.033976 0.268205
-0.071747 0.082462 0.355378
-0.083488 0.088182 -0.969565
-0.059049 0.080041 -0.656032
-0.115958 0.119040 0.451207
-0.086061 0.139656 0.426943
-0.033654 0.179040 -0.702595
-0.031030 0.190514 -0.950964
-0.018613 0.180880 0.349109
0.041655 -0.257911 -0.869090
0.037986 -0.249775 -0.707770
0.018115 -0.253599 0.424499
-0.019145 -0.255463 0.515175
0.035964 -0.196733 -0.576017
0.052947 -0.153182 -0.503491
0.058056 -0.209110 0.282476
-0.004453 -0.071975 -1.073954
-0.011253 -0.094068 -0.571795
0.052837 -0.126665 0.203838
0.012579 -0.032292 -0.513237
0.057687 -0.035975 0.117318
-0.038504 0.049429 -1.076845
-0.022183 0.039180 -0.567676
0.021475 0.069525 -0.505143
0.070488 0.050611 0.103500
-0.044354 0.121852 -1.044021
-0.041136 0.115782 0.310252
0.010811 0.164631 -0.582079
-0.008971 0.232093 -0.757453
0.060377 0.173994 -0.512297
-0.045288 0.219775 0.440654
0.039382 0.249601 -0.701107
-0.018751 0.251829 0.510601
0.044088 0.258855 -0.877593
0.018514 0.251605 0.420005
-0.045557 0.247749 0.576903
0.025229 0.233440 0.592107
0.050743 -0.266619 0.481513
0.056753 -0.224877 -0.971221
0.098224 -0.254610 -0.908904
0.142572 -0.276907 -0.645167
0.097364 -0.255030 -0.587112
0.198543 -0.227065 0.441578
0.018189 -0.239699 0.591340
0.092954 -0.213952 -0.505676
0.068864 -0.185647 0.637413
0.011686 -0.169957 -1.029135
0.110386 -0.189018 0.184109
0.086969 -0.135611 -1.029976
0.116786 -0.175370 -0.424224
0.128112 -0.157294 -0.332190
0.104082 -0.136945 0.106181
0.093922 -0.080682 -0.349199
0.064938 -0.040237 -0.423898
0.113871 0.012076 -1.048219
0.080682 -0.006294 -0.355113
0.069078 0.052835 -0.419182
0.093007 0.074383 -0.351823
0.049835 0.129198 0.207486
0.101124 0.132008 -1.030597
0.120331 0.176286 -0.419743
0.113095 0.150038 0.097937
0.121011 0.151102 -0.358684
0.045837 0.223452 -0.977904
0.045951 0.188252 0.656358
0.104734 0.251058 -0.577163
0.107722 0.222013 -0.501582
0.109966 0.180921 0.593471
0.099237 0.255640 -0.913461
0.126267 0.276763 -0.659551
0.067392 0.253738 0.492970
0.117482 -0.267177 -0.774234
0.166539 -0.272943 0.306895
0.130434 -0.212275 -0.962418
0.185463 -0.257678 -0.474722
0.148734 -0.249021 0.230175
0.173685 -0.213848 -0.894321
0.192824 -0.235979 -0.358127
0.150287 -0.206305 0.114893
0.200751 -0.084617 0.572130
0.237504 -0.014830 0.543916
0.242978 0.070906 0.520805
0.127254 0.215494 -0.965164
0.148761 0.192065 -0.317316
0.149117 0.210286 0.137627
0.113356 0.193381 0.188291
0.183518 0.196542 -0.869432
0.160950 0.251251 0.224698
0.177923 0.223369 0.463121
0.119664 0.265588 -0.777083
0.203078 0.233023 -0.732073
0.194773 0.267228 -0.663518
0.179210 0.256241 -0.472395
0.159803 0.275065 0.316303
0.251606 -0.247177 0.314347
0.206439 -0.226293 -0.744959
0.196332 -0.264429 -0.675153
0.208909 -0.250929 0.106372
0.265488 -0.173664 0.427008
0.199784 -0.146177 -0.950625
0.226681 -0.152298 -0.867982
0.252303 -0.159838 -0.735794
0.251176 -0.076242 -0.907499
0.268607 -0.036964 -0.810958
0.295168 -0.069151 -0.745096
0.223862 -0.041711 -0.970484
0.312756 -0.089563 0.424438
0.262387 -0.005355 -0.909945
0.224850 0.051566 -0.972697
0.253395 0.059488 -0.896038
0.265714 0.066993 -0.789920
0.200500 0.131251 -0.965136
0.291830 0.061347 -0.748064
0.244660 0.159686 -0.748736
0.276796 0.149975 0.427182
0.196798 0.241206 -0.361892
0.195659 0.244766 0.101720
0.194698 0.278903 -0.576158
0.193234 0.264011 0.349897
0.259598 -0.264609 -0.580368
0.254261 -0.267201 -0.377117
0.266123 -0.259817 0.172765
0.270335 -0.222980 -0.663802
0.331598 -0.230730 -0.562562
0.351105 -0.234238 0.108968
0.270381 -0.222675 0.354572
0.348551 -0.175030 0.284456
0.283581 -0.159429 -0.707628
0.389728 -0.106499 0.282731
0.335070 -0.004375 0.413311
0.315020 0.074100 0.432264
0.384237 0.077689 0.304764
0.275659 0.216647 -0.664355
0.346835 0.186652 0.264535
0.263597 0.224135 0.347120
0.285076 0.256110 0.215970
0.267680 0.264299 -0.588109
0.336966 0.232123 -0.576418
0.249782 0.270338 -0.433188
0.270406 0.265233 0.120290
0.339057 0.243775 0.111480
0.352997 -0.217173 0.188331
0.357262 -0.176789 -0.656743
0.378551 -0.209014 0.111081
0.435321 -0.116041 -0.642217
0.409527 -0.127092 0.191592
0.439197 -0.080303 -0.687796
0.427619 -0.011133 0.246284
0.440697 0.034256 -0.697707
0.378345 0.163998 -0.648383
0.429968 0.112489 -0.649966
0.393604 0.186797 -0.579952
0.413295 0.112574 0.174523
0.353521 0.223571 0.190894
0.456121 -0.063627 -0.675388
0.443473 -0.033419 0.176748
0.453621 0.037280 -0.678231
0.444147 0.024100 0.195006
3 0 1 17
3 3 0 5
3 0 3 1
3 1 3 4
3 1 4 2
3 4 3 6
3 5 7 3
3 3 7 8
3 3 8 6
3 4 6 20
3 6 8 9
3 20 6 23
3 7 10 8
3 6 9 11
3 6 11 23
3 12 8 10
3 8 12 9
3 9 12 11
3 23 11 24
3 13 12 10
3 12 13 14
3 12 14 11
3 11 14 15
3 13 25 14
3 29 17 16
3 17 1 16
3 16 1 18
3 17 29 0
3 2 18 1
3 18 2 19
3 29 31 0
3 31 5 0
3 4 19 2
3 30 4 20
3 19 4 30
3 21 5 31
3 7 5 21
3 22 7 21
3 20 23 34
3 10 7 22
3 10 22 35
3 35 36 10
3 36 13 10
3 26 24 11
3 15 26 11
3 37 25 36
3 36 25 13
3 27 25 37
3 27 14 25
3 26 15 27
3 15 14 27
3 28 39 16
3 16 40 29
3 39 40 16
3 28 16 18
3 18 19 28
3 31 29 32
3 29 40 32
3 21 31 32
3 33 21 32
3 22 21 33
3 35 22 33
3 36 35 33
3 33 41 36
3 42 24 26
3 36 41 37
3 37 41 43
3 27 37 43
3 26 27 38
3 38 42 26
3 27 43 38
3 39 45 46
3 39 28 45
3 40 46 47
3 40 39 46
3 47 49 40
3 49 32 40
3 49 52 32
3 52 33 32
3 52 55 33
3 55 41 33
3 41 44 43
3 41 55 44
3 44 57 43
3 57 38 43
3 46 48 47
3 48 46 45
3 47 48 50
3 19 30 58
3 49 47 50
3 51 49 50
3 51 52 49
3 59 20 34
3 51 53 52
3 54 52 53
3 60 23 24
3 55 52 54
3 55 54 56
3 56 44 55
3 44 56 57
3 61 42 62
3 62 42 38
3 62 38 57
3 63 48 45
3 45 28 19
3 50 63 64
3 48 63 50
3 64 65 50
3 65 51 50
3 65 66 53
3 51 65 53
3 60 34 23
3 66 67 53
3 67 54 53
3 67 56 54
3 68 63 45
3 58 45 19
3 69 65 64
3 70 30 20
3 71 66 65
3 72 67 66
3 73 57 56
3 45 74 68
3 63 69 64
3 71 65 69
3 75 59 34
3 71 72 66
3 76 60 24
3 72 56 67
3 76 24 61
3 61 24 42
3 73 56 72
3 62 57 73
3 68 85 63
3 85 69 63
3 58 30 70
3 85 90 69
3 90 71 69
3 70 20 59
3 75 34 60
3 90 98 71
3 98 72 71
3 98 73 72
3 80 68 106
3 106 68 74
3 74 45 58
3 81 77 87
3 77 81 78
3 78 81 82
3 78 82 83
3 79 84 80
3 80 84 86
3 80 86 85
3 68 80 85
3 83 82 88
3 89 84 79
3 86 84 90
3 85 86 90
3 115 87 110
3 91 87 115
3 87 91 81
3 81 91 92
3 81 92 82
3 82 92 93
3 82 93 88
3 89 94 84
3 84 94 95
3 84 95 90
3 92 91 96
3 92 96 93
3 93 96 97
3 93 97 88
3 88 97 116
3 120 95 94
3 90 95 99
3 90 99 98
3 115 119 91
3 119 96 91
3 97 96 100
3 101 96 119
3 96 101 100
3 102 95 120
3 95 102 99
3 98 99 73
3 101 122 100
3 102 124 99
3 124 73 99
3 124 126 73
3 73 126 129
3 73 129 62
3 129 61 62
3 105 106 131
3 132 77 103
3 103 77 78
3 103 78 104
3 109 79 105
3 79 80 105
3 80 106 105
3 74 137 106
3 131 106 137
3 74 58 137
3 132 140 77
3 78 83 104
3 104 83 107
3 139 137 58
3 140 87 77
3 79 109 112
3 139 58 70
3 87 142 110
3 140 142 87
3 111 107 83
3 88 111 83
3 107 111 108
3 108 111 113
3 108 113 147
3 112 114 89
3 112 89 79
3 148 115 110
3 116 111 88
3 111 116 113
3 113 116 117
3 147 117 150
3 113 117 147
3 114 118 94
3 89 114 94
3 150 117 123
3 152 120 94
3 152 94 118
3 153 119 115
3 121 116 97
3 100 121 97
3 116 121 117
3 153 157 119
3 117 121 123
3 102 120 152
3 158 76 61
3 101 119 157
3 100 122 125
3 121 100 125
3 61 130 158
3 127 101 157
3 101 127 122
3 122 127 125
3 128 124 102
3 126 124 128
3 130 129 126
3 164 130 126
3 130 61 129
3 128 164 126
3 133 103 165
3 103 104 165
3 134 165 104
3 169 105 166
3 105 131 166
3 103 133 132
3 132 133 167
3 104 135 134
3 141 109 169
3 169 109 105
3 136 137 139
3 136 131 137
3 167 142 132
3 142 140 132
3 135 104 107
3 138 135 107
3 108 138 107
3 108 143 138
3 145 112 141
3 109 141 112
3 70 173 139
3 144 143 146
3 144 146 145
3 147 143 108
3 143 147 146
3 145 146 114
3 114 112 145
3 142 148 110
3 146 147 149
3 146 149 114
3 147 150 149
3 114 149 118
3 149 150 151
3 149 151 118
3 148 153 115
3 123 154 150
3 150 154 151
3 151 155 118
3 152 118 155
3 151 154 156
3 151 156 155
3 76 161 60
3 158 161 76
3 153 176 157
3 121 125 159
3 123 121 159
3 160 123 159
3 160 154 123
3 155 179 152
3 179 102 152
3 161 158 130
3 162 127 157
3 162 157 176
3 125 163 159
3 179 181 102
3 181 128 102
3 161 130 164
3 182 161 164
3 162 183 127
3 127 183 125
3 125 183 163
3 181 187 128
3 187 164 128
3 168 134 135
3 188 166 131
3 170 167 133
3 133 165 170
3 170 165 189
3 165 134 190
3 189 165 190
3 168 135 138
3 171 172 191
3 191 172 169
3 172 141 169
3 188 131 136
3 170 193 167
3 143 168 138
3 168 143 171
3 171 143 144
3 171 144 172
3 192 136 139
3 193 142 167
3 145 172 144
3 172 145 141
3 173 192 139
3 193 199 142
3 70 59 173
3 142 199 148
3 173 75 174
3 59 75 173
3 199 202 148
3 148 202 153
3 174 60 175
3 75 60 174
3 202 205 153
3 60 161 175
3 176 153 205
3 205 180 176
3 177 156 154
3 155 156 177
3 178 155 177
3 179 155 178
3 162 176 180
3 180 183 162
3 183 180 184
3 160 159 186
3 160 186 154
3 154 209 177
3 186 209 154
3 209 210 177
3 177 210 178
3 210 181 178
3 181 179 178
3 212 182 164
3 185 183 184
3 163 183 185
3 185 211 163
3 211 159 163
3 159 211 186
3 164 187 212
3 134 213 190
3 134 168 213
3 214 213 168
3 168 171 214
3 171 191 214
3 214 191 215
3 169 215 191
3 215 166 188
3 215 169 166
3 189 190 216
3 213 216 190
3 219 188 136
3 170 194 193
3 170 189 194
3 189 195 194
3 216 221 195
3 189 216 195
3 192 219 136
3 200 192 173
3 194 196 193
3 194 197 196
3 194 195 197
3 195 198 197
3 195 221 198
3 193 196 199
3 173 174 200
3 196 201 199
3 196 197 201
3 199 201 202
3 201 203 202
3 201 197 203
3 197 204 203
3 202 203 205
3 203 180 205
3 203 204 180
3 204 207 180
3 204 206 207
3 206 226 207
3 161 208 175
3 207 184 180
3 207 226 184
3 182 228 208
3 182 208 161
3 226 185 184
3 185 226 230
3 229 228 212
3 187 229 212
3 228 182 212
3 230 211 185
3 230 232 211
3 211 232 186
3 186 232 209
3 232 233 209
3 209 233 210
3 210 233 181
3 233 229 181
3 187 181 229
3 215 218 214
3 216 217 236
3 216 213 217
3 213 214 217
3 214 218 217
3 218 215 235
3 235 188 220
3 235 215 188
3 219 220 188
3 236 221 216
3 219 192 220
3 222 220 200
3 200 220 192
3 236 240 221
3 240 198 221
3 223 222 200
3 240 242 198
3 200 174 223
3 206 197 198
3 204 197 206
3 198 242 206
3 224 225 223
3 223 175 224
3 174 175 223
3 243 226 206
3 208 227 225
3 225 224 208
3 175 208 224
3 227 208 228
3 226 231 230
3 226 243 231
3 231 234 232
3 234 247 229
3 247 227 229
3 228 229 227
3 232 230 231
3 234 233 232
3 229 233 234
3 218 237 217
3 235 237 218
3 217 238 236
3 217 237 238
3 235 239 237
3 235 220 239
3 238 237 239
3 222 239 220
3 238 240 236
3 241 239 222
3 223 241 222
3 241 223 225
3 246 241 225
3 244 243 242
3 243 206 242
3 245 244 246
3 246 225 227
3 244 245 243
3 247 246 227
3 243 245 231
3 245 234 231
3 245 246 234
3 246 247 234
3 248 240 238
3 238 239 248
3 239 249 248
3 242 240 248
3 239 241 249
3 250 242 248
3 248 249 250
3 249 251 250
3 249 241 251
3 241 246 251
3 244 242 250
3 250 246 244
3 250 251 246
