ply
format ascii 1.0
element vertex 512
property float x
property float y
property float z
property float nx
property float ny
property float nz
end_header
-0.015109 -0.218122 0.311621 0.717477 0.721129 -0.170828
0.055539 0.261773 -0.362432 -0.015238 -1.032225 0.044829
0.167176 0.150363 -0.229845 -0.887408 -0.525850 0.019784
0.187748 -0.045714 -0.192227 -0.997662 0.269226 -0.025094
-0.038159 0.194857 -0.845073 0.663300 -0.672649 0.424104
0.215470 0.069597 -0.438292 -0.995417 -0.275651 0.009287
0.118484 0.242304 -0.463035 -0.551884 -0.866642 -0.099366
-0.033051 0.182051 0.374432 0.907598 -0.419248 -0.264466
-0.038885 0.171512 -0.657433 0.957959 -0.389694 0.028030
-0.080597 0.038833 -0.610250 1.036188 0.013210 -0.001342
0.209494 -0.103710 -0.477943 -0.955471 0.396136 0.018613
0.038444 -0.260220 -0.560936 0.318790 0.980832 0.032195
0.128854 -0.193957 -0.124894 -0.847583 0.588145 -0.003450
-0.083520 0.020997 -0.592699 1.033504 0.053826 0.012940
-0.057297 -0.139466 -0.589483 0.972826 0.355218 0.011897
0.182237 -0.070848 0.378913 -1.036596 -0.002442 0.015567
0.058295 0.262273 -0.611039 0.306086 -0.986154 -0.011012
-0.074151 0.109976 -0.847985 0.938946 -0.419518 0.003996
-0.000140 0.152658 0.757702 0.901101 -0.431976 -0.272246
0.124668 -0.246514 0.654366 -0.115562 1.028577 0.059753
0.168058 -0.219727 0.645898 -0.771458 0.681847 0.071489
-0.060593 0.141670 -0.703379 0.965275 -0.370314 0.027978
0.000163 0.126285 0.795088 0.902080 -0.393378 -0.321742
0.239139 0.088027 0.678799 -1.020508 -0.168892 0.073098
0.056495 0.251900 0.649200 0.226463 -1.011130 -0.047709
0.122404 -0.204440 0.230680 -0.810958 0.645321 -0.004429
0.073440 -0.256427 0.160211 -0.497152 0.904648 -0.057563
-0.058767 0.053029 0.517491 1.023011 -0.140994 -0.034357
0.118040 -0.227232 -0.278909 -0.550354 0.870411 -0.066859
0.229048 0.111580 0.840017 -0.899941 -0.370524 -0.372084
-0.067641 -0.120453 -0.380484 1.021678 0.137566 0.059083
0.169273 0.101530 -0.099039 -1.019709 -0.189567 -0.028863
0.040861 -0.237066 0.643209 0.692707 0.768691 0.013584
-0.018379 -0.048418 0.796465 0.973767 0.230414 -0.260553
0.201422 -0.144352 -0.875480 -0.769971 0.522809 0.450746
-0.060906 0.172136 0.257315 0.930811 -0.328859 -0.316938
-0.071411 -0.100812 -0.431537 1.013539 0.197514 0.047873
0.165774 0.131958 -0.195092 -0.995838 -0.277324 -0.049453
0.134015 -0.147880 -0.944213 -0.481832 0.581404 0.710929
-0.080329 -0.097329 -0.280017 1.021524 0.155030 0.069534
0.185641 0.156930 -0.731735 -0.904301 -0.476434 -0.160269
0.101718 0.254053 0.590908 -0.238415 -0.999392 0.119563
-0.020907 -0.054788 0.785920 0.964149 0.183012 -0.332451
-0.060703 0.146621 -0.753282 0.928124 -0.437024 0.062392
0.214969 -0.048167 0.880387 -0.459020 0.120126 -0.919072
0.008000 -0.212813 0.437471 0.765094 0.699972 -0.029800
0.054719 0.228655 0.744089 0.636340 -0.797567 -0.172094
-0.041102 0.228425 0.009842 0.701388 -0.756680 0.016589
0.171318 0.141752 0.430235 -0.916911 -0.470822 0.100530
0.185075 -0.072342 -0.979292 -0.636818 0.153504 0.787041
-0.066865 0.167409 0.216543 0.861422 -0.565813 -0.023097
0.194565 -0.116450 -0.888303 -0.934484 0.426204 0.044175
0.248600 -0.037591 0.705579 -1.032603 -0.085459 0.047630
-0.027919 0.233834 0.051061 0.734057 -0.724854 0.007846
-0.086434 0.030319 -0.804393 1.031536 -0.077897 -0.019586
0.222063 0.022574 -0.778188 -1.022863 -0.144460 0.023465
-0.057187 0.131738 -0.888996 0.851528 -0.342543 0.478386
0.247104 0.024622 0.634445 -1.034294 -0.049841 0.042173
0.064480 0.271430 -0.587085 0.140335 -1.016136 0.139066
0.221742 0.155865 0.783145 -0.990330 -0.299939 0.076107
0.215786 0.079685 -0.533443 -0.997705 -0.268937 0.029415
0.186998 0.058464 0.435025 -1.035657 -0.033453 0.039186
-0.049798 0.087302 0.588046 1.014237 -0.199002 -0.031273
-0.091202 -0.100388 -0.147147 1.017486 0.161081 0.079554
0.162592 0.201559 -0.752714 -0.731653 -0.728860 0.040713
-0.100999 -0.000629 0.166980 1.030392 -0.016517 -0.080600
0.020185 0.249207 0.262144 0.302050 -0.994872 -0.080093
-0.009672 -0.233998 0.256118 0.712662 0.722580 -0.188763
0.058006 0.097238 -0.963394 0.165255 -0.309079 0.973451
0.244840 -0.035040 0.750781 -1.010355 0.197287 0.096797
0.205332 0.178739 0.772496 -0.746623 -0.717683 -0.042986
0.005424 -0.246781 -0.551163 0.552146 0.869338 -0.007233
0.217434 -0.032142 -0.552310 -1.019200 0.167401 0.022226
0.036929 0.264755 -0.763418 0.585685 -0.851334 0.015791
0.205663 -0.193116 0.775132 -0.914687 0.476284 0.036887
-0.052822 0.149868 -0.632683 0.960126 -0.384040 0.031633
0.220372 -0.139980 0.678618 -0.907511 0.467608 0.128000
-0.072093 -0.133585 0.253776 0.981331 0.308666 -0.026682
0.215780 -0.138457 0.618117 -0.916309 0.458196 0.110036
-0.045981 -0.098324 0.566506 0.960414 0.376681 -0.021173
-0.086806 0.119561 -0.010667 0.946722 -0.412332 0.027656
0.127059 -0.085913 0.884385 -0.098128 0.195452 -1.010700
0.017578 -0.018125 0.855400 0.874311 0.011260 -0.550378
0.157999 -0.191086 -0.371815 -0.848072 0.587265 -0.016843
0.134553 -0.231314 -0.854518 -0.412128 0.913406 0.254082
-0.016132 0.230223 -0.383321 0.896308 -0.517441 0.038640
0.126711 0.038444 0.902915 -0.050146 0.029843 -1.027406
-0.032342 -0.086783 0.717462 0.997196 0.252103 -0.069243
0.181186 0.065596 0.156902 -1.019260 -0.183121 -0.040086
0.155243 -0.155086 -0.188874 -0.840917 0.600604 -0.001695
0.156116 -0.162782 0.255966 -0.813437 0.638755 -0.003508
0.204646 -0.079321 0.503709 -1.003594 0.229153 0.117324
0.110470 -0.251331 -0.515945 -0.486729 0.908809 -0.079283
0.201699 0.117544 -0.848956 -0.994322 -0.273178 0.023479
-0.048844 0.051191 0.663858 1.017212 -0.173438 -0.107628
0.180530 0.134088 -0.305897 -0.973576 -0.338840 -0.056360
0.181007 -0.065485 -0.008402 -1.033085 0.092885 -0.010760
-0.075179 -0.049295 -0.716386 1.023436 0.144072 -0.005551
-0.066044 -0.126887 -0.328548 1.015178 0.202282 0.045736
0.030595 -0.012027 -0.977527 0.154823 -0.184212 1.003274
0.110275 0.225501 0.066033 -0.712051 -0.751542 -0.039907
0.103825 0.252665 0.729612 -0.032745 -1.012290 -0.223931
-0.021268 0.217669 -0.773511 0.550302 -0.873092 0.035566
-0.032593 -0.226757 -0.195183 0.847786 0.580859 0.088283
0.217951 0.007942 0.518076 -1.006022 -0.025225 0.235267
0.036347 -0.263292 -0.455171 0.355764 0.970581 0.009725
-0.068772 0.150788 -0.171959 0.980733 -0.327781 0.053186
0.169155 -0.111302 -0.125223 -1.001633 0.265536 -0.049972
-0.080771 -0.040403 -0.578618 1.013374 0.196987 0.025591
0.058067 -0.177330 0.834116 0.372419 0.649033 -0.713933
0.149973 0.183138 0.437756 -0.906200 -0.485709 0.125394
0.207380 -0.122172 -0.812590 -0.981733 0.322411 0.007585
-0.032390 0.194878 -0.793873 0.670513 -0.779443 0.001875
0.051955 0.110963 -0.950395 0.144295 -0.297819 0.984636
0.167408 0.211479 0.806159 -0.083870 -0.959205 -0.383334
0.153223 0.239323 0.661126 -0.467288 -0.921715 0.012169
0.185839 0.136653 0.858626 -0.384045 -0.330346 -0.903055
0.059913 0.257824 -0.223735 -0.414052 -0.944898 -0.068953
0.159248 -0.145499 -0.141814 -0.824206 0.622361 0.012415
-0.060579 0.018793 0.491571 1.034307 -0.053071 -0.036108
0.180525 0.169462 0.536574 -0.869686 -0.525424 0.176710
0.080262 -0.248192 0.555446 0.059247 1.032374 0.086340
0.025943 0.185549 0.774227 0.673963 -0.766917 -0.154320
-0.054826 0.015668 0.647125 1.030675 -0.055531 -0.036212
-0.082154 0.138389 0.081817 0.951215 -0.406231 0.016780
0.117547 -0.150921 0.861594 0.036894 0.410050 -0.949939
-0.052945 0.059402 0.538328 1.031936 -0.069228 -0.035959
0.071110 0.266369 -0.495744 0.152966 -1.003465 -0.223295
0.162884 -0.127491 -0.113027 -1.006383 0.252422 -0.021121
0.197375 -0.127357 -0.680437 -0.865577 0.576635 -0.003432
0.068910 -0.168858 0.838526 0.330169 0.674455 -0.708987
-0.088117 0.042506 -0.800801 1.021190 -0.160453 -0.019703
0.182727 0.205925 0.783989 -0.703184 -0.751580 -0.114278
-0.085089 0.075812 0.282835 0.946101 -0.296402 -0.299330
0.030302 0.270124 -0.243054 0.361250 -0.966983 -0.026384
0.185139 -0.155727 -0.701122 -0.885267 0.538188 0.011739
-0.010110 0.222820 -0.699254 0.638569 -0.812749 0.009284
0.084623 0.254975 0.580404 -0.071124 -1.030585 0.096575
-0.074461 -0.079060 -0.813288 1.023317 0.134685 -0.009401
-0.078024 -0.075775 -0.354249 1.015564 0.196749 0.054460
0.011316 -0.205888 0.649028 0.763190 0.695660 0.017453
0.039215 -0.130592 -0.947673 0.138631 0.457913 0.916896
-0.030390 -0.043118 0.768876 0.968497 0.159023 -0.332186
0.165325 -0.183060 0.507637 -0.879894 0.533527 0.099801
0.150666 0.153407 0.186456 -0.952261 -0.407042 -0.002328
-0.082410 -0.115172 0.251613 0.912461 0.402012 -0.272897
0.010626 -0.207042 0.569527 0.769519 0.690964 0.017191
0.154788 -0.156452 0.133978 -0.969097 0.357901 -0.027984
-0.097118 0.033263 -0.156232 1.030306 -0.046583 0.082395
0.169162 0.119201 -0.936355 -0.682360 -0.447772 0.631063
0.176307 -0.154033 0.473298 -0.898272 0.503008 0.106735
0.234287 0.099392 0.806148 -0.971184 -0.358567 -0.092246
0.121829 0.105914 -0.974752 -0.554267 -0.427631 0.763403
-0.058470 -0.128624 -0.674659 0.990539 0.292933 0.004548
0.061637 0.269844 -0.749555 0.248172 -0.999657 0.005627
0.057896 0.136635 -0.956264 0.158226 -0.398795 0.940825
0.130161 0.243126 0.748177 -0.018373 -1.019861 -0.205051
-0.090604 0.058286 0.082613 1.014910 -0.073478 -0.114950
0.016605 0.220414 0.559438 0.791643 -0.666565 0.000700
0.167249 -0.109577 -0.160044 -1.001598 0.265418 0.000379
-0.044208 -0.221440 -0.089307 0.820720 0.616154 0.092286
-0.087559 0.015643 -0.858427 1.034762 -0.007571 -0.022120
-0.059390 -0.189063 -0.100140 0.980170 0.314562 0.054684
0.203815 -0.116045 -0.702524 -0.996013 0.277895 0.003380
0.006672 0.250980 -0.397077 0.550456 -0.876148 -0.024809
0.101032 0.243323 0.501464 -0.074641 -1.032873 0.107905
-0.078127 -0.011639 -0.865472 1.036588 0.080226 -0.024312
0.212386 0.086699 -0.498281 -0.996563 -0.266537 0.032781
-0.071981 0.108593 -0.861685 1.015927 -0.161010 0.007610
0.095410 -0.129937 0.870368 0.018134 0.352350 -0.974207
-0.095183 -0.099675 0.021912 1.007651 0.216340 0.045960
-0.030046 -0.204857 -0.363976 0.879367 0.536130 0.072433
0.146816 -0.179190 0.016312 -0.938779 0.431424 -0.051647
0.183027 0.021275 0.294276 -1.036989 -0.049329 0.001240
0.151991 -0.184231 0.456153 -0.876924 0.538439 0.100167
0.168797 0.109710 0.090815 -1.020732 -0.183310 -0.036514
-0.058658 0.161334 -0.286815 0.980025 -0.339716 0.043721
0.128103 -0.112546 0.875907 0.035747 0.411535 -0.952341
0.173103 0.098593 0.264286 -0.965971 -0.371402 0.000365
0.136144 0.194500 0.275505 -0.717937 -0.745988 -0.038776
0.003286 0.090226 0.821453 0.920368 -0.217814 -0.427799
-0.025665 -0.070474 0.765860 0.959940 0.178267 -0.346678
-0.060104 -0.003080 0.576231 1.032923 -0.044971 -0.030865
0.025176 0.230314 0.474481 0.793850 -0.664846 -0.019701
0.218961 0.009279 -0.366869 -1.029843 0.104213 -0.028055
-0.090802 -0.066316 -0.195654 1.017004 0.168224 0.082097
0.057605 -0.214868 0.778672 0.563623 0.808113 -0.317228
0.166219 0.192927 0.522610 -0.881310 -0.517403 0.156207
0.156672 -0.185479 0.489271 -0.877096 0.535462 0.111360
-0.034382 0.052511 0.760612 0.981076 -0.020991 -0.335296
0.103784 -0.244974 -0.831964 -0.439728 0.911140 0.218659
0.215526 -0.032598 -0.923724 -0.845131 -0.153501 0.572054
-0.044246 -0.109242 0.545174 1.001918 0.239244 -0.041862
0.208404 0.101540 -0.671892 -0.981362 -0.317315 0.023408
-0.046265 0.191845 0.246388 0.885298 -0.525161 -0.020193
0.182977 -0.032624 0.200485 -1.038775 -0.001834 -0.009734
-0.068142 -0.097028 -0.747454 1.023064 0.139241 -0.008327
-0.021760 0.136826 0.711870 0.911210 -0.430889 -0.242763
0.120213 -0.218041 -0.234345 -0.877828 0.540746 -0.034192
-0.070179 -0.072096 -0.647869 1.028195 0.117243 0.002050
0.186329 -0.039661 0.368003 -1.038766 -0.027558 0.010527
0.099728 -0.251211 -0.492975 -0.555261 0.872509 -0.010849
0.003332 0.241890 0.278813 0.398114 -0.905859 -0.306036
0.076469 -0.248896 0.230222 -0.535860 0.882553 -0.045197
0.158873 0.145275 0.158403 -0.945656 -0.423178 -0.018343
0.170126 0.106317 0.171090 -0.986708 -0.314033 -0.028350
-0.046007 0.177419 -0.859174 0.688540 -0.660954 0.401206
0.164653 0.174217 -0.345478 -0.827823 -0.584295 -0.207867
0.079599 -0.110263 -0.967645 0.113908 0.403420 0.943088
0.190514 -0.141082 -0.351532 -0.848147 0.588562 -0.029105
0.197499 0.122637 -0.837241 -0.999421 -0.255257 0.049318
0.120587 -0.197262 -0.101389 -0.805261 0.648121 0.018997
0.094493 0.237974 0.435481 -0.529342 -0.887787 -0.051451
-0.079273 0.084382 -0.317519 1.004373 -0.256129 0.047086
0.201049 0.119683 -0.727887 -0.984801 -0.310453 0.025859
0.215474 0.074027 -0.565794 -0.995531 -0.265591 0.036232
0.199772 0.135263 -0.371400 -0.815980 -0.594516 -0.221023
0.018049 -0.211079 0.645557 0.781632 0.676395 0.017519
-0.075760 0.080012 -0.445834 1.031686 -0.081092 0.061396
0.242517 0.039882 0.634014 -1.006877 -0.153203 0.168869
-0.007172 -0.199871 0.432406 0.768182 0.694893 -0.034119
0.198050 0.122632 -0.463883 -0.990841 -0.290880 0.021273
0.126363 -0.236104 -0.478393 -0.556542 0.869424 -0.009693
0.193893 0.081680 -0.919808 -0.821832 -0.245945 0.575480
0.122475 -0.243120 -0.731445 -0.693305 0.753163 -0.141834
-0.000144 0.193521 0.566259 0.847197 -0.597522 -0.024199
0.015421 0.259811 -0.624264 0.242049 -1.002132 0.051135
0.181710 0.022968 0.237647 -1.037995 -0.034155 -0.005744
0.202249 -0.060066 0.473153 -1.001071 0.243991 0.108085
0.224362 -0.110838 0.842867 -1.005450 0.242684 -0.077811
0.182793 0.017279 0.385629 -1.038848 -0.029061 0.015776
0.020827 0.225376 0.591547 0.811957 -0.640188 -0.008074
0.146704 -0.163831 -0.130127 -0.933929 0.439529 -0.034060
-0.060071 0.142187 -0.460397 0.982745 -0.319750 0.045745
0.127906 0.202272 -0.894749 -0.415123 -0.828789 0.458943
0.132256 0.227563 -0.373536 -0.749398 -0.709595 0.023642
-0.010057 -0.128684 0.755207 0.975908 0.294904 -0.166551
-0.078727 -0.045041 -0.523496 1.023987 0.149337 0.025261
0.179661 -0.168469 -0.789685 -0.867425 0.566411 0.010843
-0.094643 0.057809 -0.139071 1.028407 -0.110487 0.069692
0.182525 0.020801 -0.118036 -1.031075 -0.105561 -0.030984
-0.020013 -0.250054 0.127469 0.287570 0.986610 -0.067896
0.221735 -0.037932 -0.635784 -1.036071 -0.003586 0.011616
-0.059119 0.198294 0.006075 0.914818 -0.479465 0.023113
0.018148 0.224242 0.594882 0.764472 -0.696251 0.010456
-0.066839 0.100475 -0.875468 0.983690 -0.277200 0.196986
0.167172 -0.145686 -0.205666 -0.862937 0.566781 -0.016920
0.094447 0.252383 -0.797841 -0.521810 -0.890286 0.028429
0.181836 0.043360 0.325390 -1.038103 -0.041673 0.015730
-0.035309 -0.052006 0.732276 0.986871 0.264666 -0.156448
0.034546 -0.001406 0.873135 0.330814 -0.171166 -0.967274
0.231452 0.118012 0.741962 -0.984249 -0.326134 -0.000882
-0.065043 0.178138 -0.029284 0.939208 -0.431316 0.033510
-0.066862 0.118855 -0.780801 0.943156 -0.412613 0.037720
0.063058 0.266115 -0.612387 0.254072 -1.001290 0.037740
0.004164 0.236264 -0.742612 0.611757 -0.831382 0.017440
0.013378 0.242932 -0.752348 0.575662 -0.856277 0.021598
-0.019089 -0.217677 0.293627 0.711586 0.721116 -0.196948
0.191182 -0.092823 0.458437 -0.996715 0.261098 0.114163
-0.082905 -0.006354 0.353766 1.025844 -0.110186 -0.066845
0.179136 0.155450 -0.370724 -0.894966 -0.496360 -0.141272
0.199709 -0.124107 -0.603141 -0.962693 0.375278 0.022578
0.169869 -0.112013 0.085664 -0.988131 0.309252 -0.028480
0.189920 -0.162225 -0.807160 -0.870003 0.563412 0.014010
-0.084504 0.009105 -0.828277 1.032924 0.062589 -0.019858
0.172555 -0.131182 0.433766 -0.987332 0.310353 0.054910
0.194485 -0.009922 0.422065 -1.036449 -0.047590 0.028879
0.118981 -0.201930 -0.086635 -0.818237 0.633669 0.003392
0.202536 0.155769 0.613184 -0.912934 -0.464505 0.117366
0.049047 0.236427 0.695655 0.647384 -0.790612 -0.165084
0.180050 0.158968 -0.653443 -0.932045 -0.445087 -0.007913
0.108369 0.243360 -0.338312 -0.399135 -0.944795 -0.120655
0.213117 -0.072063 -0.527618 -1.018465 0.177687 0.017674
0.141426 0.220129 -0.445987 -0.735153 -0.723747 0.020871
-0.057215 0.188962 -0.079554 0.939427 -0.431969 0.038795
-0.049023 -0.157878 0.364564 0.993046 0.271401 -0.048421
-0.029245 0.107237 0.727718 0.921165 -0.407442 -0.237406
-0.032610 -0.143464 0.503951 0.957334 0.390443 -0.030746
-0.071095 0.117828 -0.568935 0.969931 -0.349583 0.036467
0.178360 -0.151221 -0.352231 -0.843473 0.531484 -0.273713
0.182029 -0.149878 0.501017 -0.889129 0.516271 0.121335
0.001908 -0.116833 -0.945093 0.349253 0.463491 0.856266
0.179305 -0.104401 0.405509 -0.993877 0.263619 0.124670
0.029874 0.117777 -0.950013 0.178113 -0.304182 0.974369
0.155717 -0.171347 0.408308 -0.875943 0.540348 0.110315
-0.030982 0.106936 0.709976 0.941822 -0.320462 -0.291287
0.216786 -0.045008 -0.852273 -1.010756 0.123719 0.201312
0.082792 -0.251455 0.652275 0.105226 1.028057 0.077728
0.006395 0.247305 -0.574056 0.644062 -0.808355 0.015826
0.059704 0.260599 -0.193417 -0.384347 -0.958121 -0.084028
-0.029412 -0.054005 0.760564 0.975653 0.281869 -0.192774
0.126064 -0.248961 0.673468 -0.177806 1.015449 0.109289
-0.086312 -0.084974 0.234934 1.007425 0.222137 -0.041450
0.092644 -0.254390 -0.405715 -0.457723 0.924472 -0.053917
0.067800 -0.227921 0.770919 0.546066 0.816354 -0.321543
0.146524 -0.076912 0.889876 -0.022263 0.337258 -0.980866
0.126896 -0.225102 0.526796 -0.528275 0.860435 0.217326
0.011395 0.262646 -0.152850 0.493849 -0.902756 0.062061
0.154800 -0.157108 0.234523 -0.969713 0.364539 -0.028560
0.162555 -0.055819 -0.977255 -0.519791 0.220541 0.867402
-0.005770 0.207801 -0.868914 0.588741 -0.743385 0.413044
0.178202 -0.187708 -0.865791 -0.685596 0.622784 0.463162
0.242913 0.091388 0.732722 -1.005721 -0.218769 0.113500
-0.025181 -0.229012 -0.206216 0.819661 0.624128 0.069930
0.151989 0.211743 -0.465896 -0.723376 -0.735096 0.019180
0.063650 -0.270165 -0.501305 0.305658 0.985020 0.029574
0.242610 -0.085431 0.716952 -1.010839 0.204837 0.078649
0.027638 -0.269360 -0.022593 -0.079435 1.033710 -0.022639
0.102852 0.229972 0.096656 -0.715672 -0.746599 -0.036475
0.079464 -0.252160 0.143132 -0.495471 0.906813 -0.053414
-0.097957 -0.069318 -0.026595 1.015030 0.190252 0.054492
0.227420 -0.005353 -0.439394 -1.003664 -0.106202 -0.240001
0.011308 0.211168 0.522977 0.834801 -0.613053 -0.020544
-0.023586 0.242426 -0.077758 0.708598 -0.748806 0.036567
0.065160 -0.259121 0.167044 -0.505964 0.901029 -0.053461
-0.023131 0.158221 0.665193 0.915623 -0.436488 -0.207267
-0.082072 -0.079486 -0.499773 1.024686 0.130031 0.035116
0.123867 0.194052 0.838261 0.007872 -0.489633 -0.905874
0.095906 0.254499 -0.397153 -0.465317 -0.898406 -0.216638
0.135854 0.168237 0.331887 -0.901615 -0.514753 0.060518
-0.020312 0.222527 0.275047 0.829838 -0.614563 -0.036540
0.007123 0.211705 0.519206 0.787292 -0.671015 -0.003758
-0.099585 0.038266 0.013863 1.031911 -0.039622 0.054478
-0.016577 0.134801 0.710803 0.970452 -0.317328 -0.181211
0.236823 0.026955 0.868170 -0.590768 -0.187769 -0.826514
0.218545 -0.069786 -0.517092 -1.014039 0.196456 0.019822
0.204868 0.059016 -0.329892 -0.995804 -0.270563 -0.039868
0.148142 0.201271 -0.358248 -0.743666 -0.698621 -0.177818
0.183171 -0.042466 0.261133 -1.037980 0.012594 -0.007288
-0.056959 -0.127548 -0.636407 0.961069 0.378659 0.007774
0.138491 0.066239 -0.977906 -0.051836 -0.238811 1.002652
-0.081408 0.002426 -0.563012 1.035111 0.050712 0.010280
-0.014923 0.196764 -0.878674 0.612993 -0.711856 0.431799
0.192181 0.149165 -0.470534 -0.927707 -0.451998 -0.039375
0.125530 0.031593 0.899771 -0.064561 -0.198456 -1.017709
-0.067931 -0.109069 0.334178 1.010641 0.200284 -0.061974
0.185341 -0.024965 0.358909 -1.037419 -0.033911 0.013223
0.156540 -0.199499 -0.853458 -0.670040 0.653459 0.450753
0.037243 -0.002685 -0.978815 0.102736 -0.123234 1.021333
0.201506 0.108963 -0.734080 -0.884820 -0.362749 -0.413770
-0.039795 -0.090237 0.684864 0.998387 0.245239 -0.080756
0.100833 0.095375 0.885327 -0.048922 -0.284967 -0.996364
0.209508 -0.027503 0.478360 -1.006860 -0.026792 0.230749
-0.081457 -0.050900 -0.386470 1.026719 0.140496 0.045085
0.045600 0.267696 -0.236687 -0.035277 -1.031348 0.067863
0.132556 -0.190910 0.306670 -0.830060 0.616623 0.007527
-0.036067 0.222063 0.145270 0.753207 -0.705161 -0.023911
0.222337 0.052057 -0.628359 -1.036560 -0.033305 0.022985
-0.073257 0.172465 -0.122318 0.926299 -0.456692 0.040375
0.055539 0.262009 -0.285742 -0.347673 -0.968631 -0.093490
0.251526 0.017356 0.677244 -1.010738 -0.184716 0.120218
-0.077685 -0.032461 -0.590510 1.028058 0.111667 0.005958
0.164715 -0.138910 0.121950 -0.957638 0.391279 -0.046964
-0.068147 -0.125851 0.294909 1.003834 0.233394 -0.049308
0.094255 -0.251105 0.649588 0.164675 1.021250 0.091568
0.116805 0.216018 -0.874468 -0.430523 -0.820080 0.461553
0.154720 0.190205 -0.841588 -0.976881 -0.336117 0.018778
-0.101125 0.034535 0.056464 1.021635 -0.141726 0.043057
0.210601 0.173952 0.763409 -0.985302 -0.330130 0.012628
0.222175 0.003754 -0.683466 -1.035277 0.010697 0.020732
0.194341 0.123237 -0.796576 -0.981656 -0.299697 0.108881
-0.054300 -0.141185 -0.431525 1.001520 0.260542 0.033935
-0.006091 0.205659 -0.874970 0.588250 -0.718169 0.454963
-0.008497 -0.145806 -0.936236 0.345449 0.500685 0.839552
0.053413 0.091932 -0.961799 0.163319 -0.315498 0.973915
0.224240 -0.049175 -0.810493 -1.032957 -0.007721 -0.006251
-0.026771 0.211427 0.290128 0.855055 -0.578008 -0.035037
-0.030648 -0.074797 0.737328 0.975103 0.281548 -0.202265
-0.081916 0.063523 -0.863151 0.966216 -0.272296 0.247570
0.051151 0.259551 0.277477 -0.451688 -0.929823 -0.079649
0.159839 0.134335 -0.071833 -0.994988 -0.288141 -0.034018
-0.091847 0.025929 0.288780 1.025304 0.077748 -0.077308
0.151299 -0.190372 0.473210 -0.880829 0.535064 0.107771
-0.094706 0.006957 -0.095240 1.030811 -0.013634 0.075810
-0.019397 -0.223354 0.243157 0.721849 0.720221 -0.144710
0.195001 -0.082900 -0.330963 -0.961992 0.259253 -0.282987
0.177598 0.137635 -0.319051 -0.921082 -0.350794 -0.323507
-0.051693 0.085353 -0.941393 0.761401 -0.338831 0.610080
0.231030 0.108029 0.697793 -1.003204 -0.261884 0.008040
0.139837 -0.218653 0.527254 -0.809516 0.635833 0.100249
0.045010 -0.178584 0.821836 0.367573 0.656924 -0.708998
-0.073487 -0.065742 -0.776497 1.018639 0.173688 -0.004704
-0.042116 0.204991 -0.300729 0.878929 -0.541364 0.050517
-0.079532 -0.071570 -0.850927 1.017113 0.151456 0.015238
0.118638 -0.241851 -0.803255 -0.483094 0.901334 0.156338
-0.067184 -0.184575 -0.127022 0.890814 0.511144 0.097499
0.001640 -0.151496 -0.927447 0.387320 0.420500 0.857668
0.181485 0.075310 -0.198514 -1.012684 -0.200395 -0.072919
0.080620 -0.250856 -0.143622 -0.494043 0.908057 -0.034526
0.049066 0.128039 0.853881 0.789243 -0.451652 -0.491687
-0.086789 -0.073607 -0.276352 1.022789 0.149556 0.069765
0.251122 0.030900 0.728106 -1.025962 -0.138196 0.064269
0.218700 -0.071892 -0.458730 -0.971530 0.354010 0.016738
0.036292 -0.268935 0.144242 -0.084436 1.032774 -0.051977
0.018464 0.207927 0.656506 0.844064 -0.594457 -0.072906
-0.087451 0.095921 0.185476 0.962160 -0.378041 0.003895
-0.097041 0.023727 -0.169386 1.031204 -0.011882 0.083146
0.093243 0.265270 0.661665 -0.049724 -1.018597 -0.197630
0.053213 0.261678 0.174802 -0.436424 -0.937603 -0.033293
0.047830 0.268667 0.074988 -0.400381 -0.952321 -0.040150
-0.060640 0.073617 0.438512 1.031911 -0.103720 -0.041838
0.174783 -0.093550 0.243901 -0.996355 0.276775 -0.007098
-0.073993 -0.069349 -0.812192 1.022268 0.143458 -0.013945
0.002767 0.243697 -0.455015 0.642036 -0.812647 0.007873
-0.046207 0.212106 -0.244329 0.834419 -0.607051 0.056291
-0.069898 -0.095433 -0.495743 1.025110 0.144910 0.025821
0.092025 0.251617 0.537515 -0.297539 -0.983944 0.116320
0.167232 -0.171666 -0.829717 -0.859860 0.572295 0.006706
-0.048708 0.108437 -0.916778 0.762960 -0.334476 0.615201
-0.021377 -0.178525 0.499735 0.956868 0.388936 -0.036004
0.117070 -0.218795 0.454004 -0.531944 0.864965 0.193520
0.160995 0.169485 0.452252 -0.899793 -0.497083 0.120739
-0.064049 -0.158138 0.254851 0.822014 0.488038 -0.392944
0.189223 -0.219085 0.733498 -0.911069 0.483335 0.028621
0.203846 -0.016622 0.890457 -0.353174 0.188800 -0.954362
-0.082163 0.026934 -0.435650 1.032634 0.117110 0.034490
-0.014900 -0.154483 0.715347 0.962249 0.278795 -0.260269
-0.036743 0.169127 -0.612694 0.968950 -0.368459 0.035016
0.117962 -0.234384 -0.867451 -0.447589 0.926140 0.134306
0.214831 -0.079928 -0.545235 -0.997966 0.266775 0.016688
0.178235 -0.072265 0.165087 -1.016036 0.198500 -0.014697
-0.054456 -0.138176 -0.581234 1.020496 0.160935 0.016550
-0.062826 -0.195475 0.125670 0.751847 0.706057 -0.018132
0.216221 -0.085169 -0.581448 -1.023061 0.140884 0.018808
0.198109 -0.179617 0.617748 -0.925040 0.453043 0.076127
0.189207 -0.019492 0.142196 -1.033416 -0.089251 -0.042195
0.201610 0.103884 -0.292393 -0.911241 -0.478141 -0.088825
-0.072186 -0.024342 -0.941464 0.804115 0.139631 0.632407
0.125744 0.182654 0.843923 0.001197 -0.460205 -0.923462
-0.068874 -0.114143 0.293892 1.007307 0.225095 -0.068621
-0.086388 -0.108761 0.149358 0.995874 0.261634 -0.003622
0.151112 -0.095801 0.876295 -0.011986 0.335754 -0.983531
-0.040903 0.188148 -0.435180 0.958272 -0.389982 0.039673
0.162591 -0.172893 -0.903912 -0.459071 0.621676 0.691947
0.074483 -0.247054 0.518457 0.084766 1.031388 0.094262
0.233505 -0.008908 0.583831 -1.006341 -0.054297 0.225807
-0.029049 0.202516 -0.860811 0.559476 -0.770516 0.394918
0.043915 0.266963 -0.351928 0.165875 -1.018459 -0.071977
0.028638 0.038013 -0.978417 0.177322 -0.241264 0.987107
-0.076889 -0.084804 -0.809960 1.026005 0.121031 -0.015315
0.127567 -0.236365 -0.602053 -0.628839 0.817992 -0.017154
0.247555 0.085339 0.747021 -1.002589 -0.212113 0.140189
-0.030866 0.207841 -0.484570 0.916144 -0.488516 0.017298
-0.035775 -0.175165 -0.562178 0.868951 0.561571 -0.002863
0.211660 0.066189 -0.567743 -0.999787 -0.252262 0.038210
0.162577 0.129976 0.360186 -0.997041 -0.280532 -0.002760
-0.056577 0.059310 0.517258 1.024441 -0.143737 -0.041763
-0.094084 0.086037 0.107148 1.021243 -0.155819 0.026215
-0.067612 0.167803 0.058081 0.943297 -0.421882 0.020515
0.070202 -0.241673 0.614228 0.155382 1.023437 0.093976
0.157653 -0.181312 -0.326033 -0.855299 0.566568 -0.111757
0.068485 -0.246817 0.541147 0.064513 1.031523 0.096010
0.184830 0.028051 0.189090 -1.030462 -0.125683 -0.038218
0.186848 0.151664 -0.686413 -0.923670 -0.469315 -0.003453
-0.086211 0.102959 0.199491 0.956518 -0.385868 0.005724
0.236611 -0.032285 0.861200 -0.925062 0.094685 -0.463970
0.248162 0.016008 0.668479 -1.034339 -0.062486 0.040407
0.165555 0.113737 0.251067 -1.002465 -0.267860 -0.021057
0.157046 0.101420 -0.962597 -0.557650 -0.422188 0.757788
-0.067859 -0.110999 -0.407612 1.016374 0.184249 0.050917
0.207819 0.070411 -0.909293 -0.823719 -0.248011 0.572717
-0.040829 0.190172 -0.321533 0.951929 -0.404225 0.048801
0.138302 0.181191 0.256500 -0.903612 -0.505084 0.021432
0.164787 -0.196412 -0.609163 -0.867668 0.564288 0.014905
0.176076 -0.084478 0.313257 -1.026855 0.145458 0.010002
-0.093338 -0.105647 -0.060822 0.995352 0.267389 0.054820
0.218462 0.047676 -0.396436 -1.002872 -0.250107 0.014200
-0.089686 0.041729 -0.212255 1.031598 -0.060253 0.080307
0.180363 -0.197941 0.616351 -0.674108 0.727521 0.280657
0.129945 -0.198841 0.136231 -0.852251 0.584844 -0.015196
0.082767 0.246403 0.469593 -0.098553 -1.029990 0.103090
0.009820 0.263187 -0.226851 0.364194 -0.964324 -0.011031
-0.045086 0.203050 -0.232330 0.894491 -0.519750 0.048403
-0.092686 0.062851 0.178883 1.025333 -0.132613 -0.046923
0.097284 -0.256608 -0.851484 -0.236884 0.877108 0.493118
-0.049097 -0.169138 -0.330217 0.935035 0.436488 0.073067
0.041589 -0.261839 -0.299545 -0.031713 1.034784 0.076202
0.072183 0.251221 0.222282 -0.477417 -0.918567 -0.069048
-0.034002 -0.190219 -0.402439 0.919075 0.474762 0.044784
-0.103910 0.003861 0.148364 1.025180 0.009522 -0.144327
0.171620 0.098810 -0.047004 -1.005268 -0.250422 -0.045280
-0.022161 0.210305 -0.707749 0.653690 -0.796083 0.015438
0.188824 -0.127347 0.497640 -0.949999 0.340991 0.210833
0.200818 -0.189109 0.810660 -0.700635 0.749694 -0.072254
0.193697 -0.151013 -0.649518 -0.899508 0.513869 0.014567
-0.063983 -0.056415 -0.655894 1.028377 -0.028305 0.026374
0.060491 0.233177 0.745421 0.634854 -0.801248 -0.152262
0.177294 -0.221485 0.744449 -0.749340 0.703194 0.060004
0.168646 0.131612 0.863990 -0.331793 -0.394475 -0.896906
-0.033094 -0.103345 0.697449 0.977336 0.285484 -0.186217
-0.068474 0.166356 0.027182 0.946744 -0.409302 0.026027
0.026437 -0.255526 -0.483008 0.339729 0.977607 0.015704
0.179007 -0.004887 -0.021025 -1.032590 -0.104035 -0.040455
-0.062282 0.142253 -0.468899 0.977215 -0.331445 0.046466
0.008972 0.258968 0.155452 0.628709 -0.815355 0.031109
0.067473 -0.262882 -0.325411 -0.255144 0.986252 -0.185734
0.171146 -0.105556 0.191698 -0.981907 0.324163 -0.017079
0.193299 -0.144129 -0.607629 -0.921380 0.470169 0.021710
0.044620 0.262708 -0.576428 0.262978 -1.000263 0.021736
0.160216 -0.162377 0.427830 -0.976630 0.340784 0.033045
0.098538 -0.097839 0.878433 0.029663 0.409404 -0.955392
-0.063569 0.134395 0.317729 0.938945 -0.332605 -0.272493
-0.049718 0.069718 0.629154 1.029575 -0.081882 -0.029341
0.170641 -0.099209 0.101505 -0.986944 0.307132 -0.020747
-0.055099 -0.137028 -0.635741 0.974407 0.352215 0.013826
-0.053428 -0.116422 0.429582 0.973633 0.328783 -0.106633
0.223954 0.127454 0.683321 -0.965932 -0.368173 0.054139
0.139497 0.194191 -0.281806 -0.788802 -0.641253 -0.197328
-0.038877 -0.113145 -0.917060 0.822008 0.282205 0.560923
-0.076868 0.118871 0.255600 0.944971 -0.411641 -0.003362
-0.061241 -0.134783 -0.353324 1.007312 0.233193 0.046493
0.195283 -0.134441 -0.633335 -0.964377 0.374734 0.030640
