ply
format ascii 1.0
element vertex 512
property float x
property float y
property float z
property float nx
property float ny
property float nz
end_header
0.131986 0.173403 -0.094716 0.655460 -0.600249 -0.537852
0.019272 0.283751 -0.441926 0.482059 -0.855687 -0.341134
0.341286 0.143437 -0.421323 -0.848103 -0.312404 0.510017
-0.130986 -0.246847 -1.035459 -0.507629 0.841906 0.363689
0.166525 -0.164415 -0.037247 0.640085 0.643774 -0.509557
-0.780085 -0.081411 0.581466 1.035716 0.014700 0.088375
0.618672 0.112281 0.026425 -0.879721 -0.307293 0.464522
-0.322459 -0.025682 0.688352 -0.037484 0.375046 -0.966504
0.303338 -0.051146 0.635688 -0.012355 0.036356 -1.039456
0.011779 0.010736 -0.176744 0.875850 0.096743 -0.546599
-0.355425 0.122841 0.657889 -0.054337 -0.183389 -1.016371
0.249514 0.300344 -0.258227 0.032251 -1.043756 0.052825
-0.269233 0.250565 0.579118 -0.011406 -0.765923 -0.696980
0.014504 -0.167383 0.310292 0.104672 0.494068 0.910937
0.057635 -0.073447 -0.872068 -0.917731 0.167161 0.461123
-0.199226 -0.097338 0.661936 -0.032143 0.012678 -1.039893
0.353985 0.201532 -0.337418 -0.758995 -0.556475 0.446499
-0.652869 -0.136754 0.355393 0.218396 0.277034 0.985782
0.269521 -0.075027 -0.563471 -0.802238 0.259127 0.612869
-0.396958 -0.229227 -0.962290 0.540096 0.862555 -0.240032
0.010719 -0.279763 -0.669264 -0.380261 0.929472 0.297258
0.707638 -0.176507 0.579992 -0.042295 0.438667 -0.943841
-0.408816 0.152533 -0.877932 0.763227 -0.505707 -0.499339
-0.372176 0.159424 0.651423 -0.028604 -0.419869 -0.945088
-0.458374 -0.112177 0.670948 -0.056318 0.160526 -1.018415
-0.154390 0.070692 0.278961 0.046069 -0.335471 0.987538
-0.723044 0.140137 0.406377 0.582688 -0.445521 0.744728
-0.775216 0.019698 0.656993 0.934708 -0.251572 -0.376130
0.517105 -0.025017 -0.168931 -0.899195 -0.023511 0.526973
-0.315082 -0.245578 -1.125134 -0.031712 0.949764 0.428593
0.656966 -0.071777 0.614998 -0.042288 0.159545 -1.029169
0.362415 -0.286650 0.504449 -0.035294 0.808365 -0.651492
0.622849 -0.202308 0.569989 -0.030788 0.429592 -0.947804
-0.330369 -0.010100 0.674704 -0.044798 0.058395 -1.034857
0.790950 -0.061558 0.257557 -0.877267 0.498474 0.278238
0.628194 0.288129 0.270049 -0.529522 -0.847687 0.289764
-0.270360 0.275195 -0.900069 0.466114 -0.898922 -0.263525
0.163774 -0.083535 -0.701324 -0.784572 0.276067 0.628743
-0.436749 0.143507 -1.205064 -0.037541 -0.501977 0.917801
-0.160735 -0.255918 -0.691401 0.562698 0.859539 -0.187563
0.649994 0.287462 0.320437 -0.561121 -0.831133 0.278604
0.042571 0.021686 0.266893 0.126766 -0.134140 1.033268
-0.236486 -0.044505 0.666913 -0.030460 0.028640 -1.036939
0.447824 -0.276463 -0.026417 -0.432005 0.918985 0.247514
-0.671093 0.237803 0.543253 0.463623 -0.920963 -0.152598
-0.533740 -0.087573 0.670447 -0.066707 0.323844 -0.979802
-0.651234 0.239139 0.591633 0.469765 -0.917461 -0.147414
0.212766 -0.136855 0.622382 -0.033458 0.376502 -0.965535
0.604540 -0.259064 0.517155 -0.100884 0.832235 -0.623919
-0.536748 -0.139620 0.659631 -0.065546 0.355567 -0.967721
0.233365 0.058863 0.169081 1.006357 -0.183056 -0.199465
-0.267357 0.281848 -1.062553 -0.091226 -1.019764 0.222183
0.040111 0.205826 0.604852 -0.012787 -0.413798 -0.946259
-0.118864 -0.243091 -1.008994 -0.513073 0.837411 0.365312
0.182909 -0.219236 0.583965 -0.006096 0.610340 -0.842165
0.645464 0.255004 0.220559 -0.542497 -0.841804 0.280555
-0.140589 0.241658 -1.050208 -0.329114 -0.845147 0.523597
0.603327 -0.054571 0.615106 -0.035787 0.166216 -1.026678
0.103261 -0.071969 -0.785407 -0.785806 0.280307 0.624890
0.212618 -0.304209 0.490743 0.036108 1.025267 -0.179476
-0.645173 -0.261169 0.528646 0.294066 0.997273 0.069573
0.460665 -0.216521 -0.135077 -0.764727 0.586176 0.395297
-0.350778 -0.269634 -0.986532 0.531100 0.867456 -0.243914
-0.467314 -0.012550 -0.900657 0.935262 0.106155 -0.444638
0.720443 -0.050537 0.611948 -0.077668 0.116897 -1.032022
0.086947 0.270988 0.543908 -0.002028 -0.815349 -0.639405
-0.335669 -0.082923 0.289845 0.201142 0.260771 0.998035
0.637453 0.300746 0.434248 -0.323044 -0.988419 0.028318
-0.677118 -0.183191 0.386975 0.312459 0.439460 0.890878
-0.047466 -0.263672 -0.494884 0.644140 0.735542 -0.362275
0.769789 0.028539 0.622388 -0.156079 0.093869 -1.025004
-0.203048 -0.260814 -1.067347 -0.262783 0.898332 0.469811
0.376221 0.305349 0.012339 0.418246 -0.924094 -0.236388
-0.334020 -0.269991 0.421975 0.069511 0.857389 0.590547
-0.324994 -0.167171 -0.776636 0.795536 0.409115 -0.534787
-0.633209 -0.080228 0.329116 0.252199 0.209575 0.998388
-0.048371 -0.012262 -1.105128 -0.927533 0.137690 0.460811
-0.616578 -0.022412 0.314967 0.464448 -0.044498 0.941386
0.307749 0.278280 -0.270463 -0.405183 -0.929346 0.233770
-0.632776 0.251050 0.555596 0.435012 -0.936743 -0.136303
0.514322 0.001744 -0.171450 -0.909833 -0.009994 0.508079
0.095121 -0.292880 -0.533838 -0.246345 0.972894 0.303316
-0.085458 -0.288393 -0.690411 0.284205 0.992530 -0.161446
-0.290635 -0.198888 -1.179851 -0.058536 0.728740 0.742291
-0.714642 0.171625 0.402153 0.637044 -0.405001 0.721232
0.123826 -0.231088 -0.636877 -0.677532 0.696215 0.390287
0.149966 -0.240321 -0.170396 0.527138 0.833401 -0.339943
0.803711 -0.094223 0.554382 -0.932075 0.306477 -0.364111
0.339256 0.284727 -0.203425 -0.387637 -0.936485 0.242051
0.527241 -0.196612 -0.044148 -0.806053 0.516926 0.407670
0.182827 0.284548 -0.214008 0.371805 -0.927256 -0.293643
0.330819 -0.270115 0.066146 0.665762 0.751196 -0.292040
0.010493 0.293937 -0.474867 0.301628 -0.975443 -0.197198
0.468646 0.216539 -0.127647 -0.731139 -0.599277 0.432041
-0.754702 0.021114 0.375568 0.572664 -0.031279 0.886454
-0.068416 -0.178580 -0.383376 0.636440 0.690975 -0.450506
0.020260 0.236815 0.352173 0.137632 -0.648414 0.795513
0.098766 -0.264626 0.374892 0.099145 0.688227 0.775704
-0.268942 0.134556 -0.667528 0.799749 -0.467709 -0.474737
-0.110437 0.008342 -1.224223 -0.415003 -0.048558 0.958024
0.777833 -0.078188 0.603637 -0.098790 0.113338 -1.031561
0.254715 0.106079 0.182534 1.009297 -0.174330 -0.197174
-0.372089 -0.241179 0.591098 -0.044516 0.747489 -0.716434
-0.106824 -0.247983 -0.984775 -0.536496 0.822040 0.364481
0.509028 0.068204 -0.177802 -0.881174 -0.270125 0.489189
0.063450 -0.152743 0.296281 0.123600 0.487947 0.911234
0.197795 -0.280863 -0.191458 0.527484 0.832439 -0.340912
0.318960 0.319869 0.433502 0.153840 -1.027925 -0.061518
-0.003984 -0.119357 -0.962682 -0.928893 0.155158 0.448392
-0.648990 -0.217139 0.421815 0.371933 0.820016 0.525509
-0.231190 0.224639 -1.146146 -0.292908 -0.873335 0.527600
0.586721 -0.285706 0.223406 -0.527885 0.868526 0.249497
0.837219 0.061264 0.549354 -0.901302 -0.010491 -0.518957
-0.691813 -0.205355 0.636389 0.562808 0.695058 -0.518273
0.274826 -0.191527 0.226308 0.777593 0.671256 0.184028
0.296915 -0.213051 0.220373 0.773297 0.683936 0.158717
0.451041 0.129110 -0.243334 -0.869585 -0.260455 0.506589
-0.597511 -0.280853 0.521683 0.299903 0.993458 0.004245
0.496644 0.007377 -0.201810 -0.901877 0.007994 0.521089
-0.199541 -0.165154 0.633970 -0.025885 0.350802 -0.974037
-0.258364 0.154438 -1.213177 -0.070769 -0.596944 0.850005
0.392852 0.177482 0.610524 -0.191173 -0.414898 -0.932532
-0.110174 0.108990 -0.378973 0.829259 -0.323639 -0.529162
0.361033 0.288921 -0.157437 -0.361306 -0.948487 0.220968
0.255175 -0.194075 -0.511192 -0.651776 0.655761 0.488355
-0.439545 0.172912 -1.161400 0.409076 -0.788654 0.548224
-0.751545 -0.129504 0.615812 1.001697 0.249146 -0.103351
0.705905 0.010588 0.128829 -0.923905 -0.005382 0.479849
0.480307 0.343819 0.357792 0.245135 -1.008182 0.073087
0.082563 0.158376 -0.766786 -0.695663 -0.510583 0.585398
-0.759391 -0.096182 0.638650 1.004938 0.243014 -0.111546
0.415921 0.318007 0.322057 0.490271 -0.898365 0.194948
0.035441 0.127951 0.287094 0.089386 -0.479863 0.916951
0.396227 -0.123881 -0.329152 -0.842993 0.279486 0.540376
-0.429861 0.023993 0.673906 -0.052965 -0.022220 -1.031887
0.106836 0.074840 -0.790378 -0.803198 -0.220604 0.627193
0.564216 -0.156796 -0.022032 -0.819461 0.496534 0.408216
0.236764 0.287220 0.522094 -0.008929 -0.822092 -0.632873
0.309345 0.290530 -0.038792 0.437299 -0.937324 -0.145220
-0.494909 -0.006708 -0.962442 0.931317 0.151296 -0.430413
-0.358593 0.300371 0.491582 0.015695 -1.034385 -0.102619
-0.476718 0.003482 -0.925921 0.938102 0.105061 -0.437804
-0.106239 -0.294727 0.450074 0.082023 0.892266 0.529084
-0.035576 0.164261 -0.975115 -0.866741 -0.368280 0.444377
-0.255610 -0.026728 -0.593136 0.873693 0.151740 -0.542658
0.402427 0.107801 -0.337454 -0.870083 -0.253596 0.510693
-0.046415 0.182832 0.319403 0.081124 -0.476009 0.918082
0.133020 -0.214511 -0.143821 0.643350 0.634272 -0.520653
0.407991 0.305380 0.175446 0.476576 -0.908009 0.185083
-0.391165 0.162917 -0.864897 0.710824 -0.614113 -0.459516
0.435579 0.318123 0.225999 0.451757 -0.915072 0.208427
-0.184221 -0.293516 0.445884 0.080299 0.893395 0.524731
0.395376 0.089796 -0.360473 -0.879110 -0.171338 0.526919
-0.126194 0.018106 0.667933 -0.024055 0.010147 -1.036711
-0.607956 -0.094351 0.669229 -0.073831 0.323441 -0.979932
0.155049 0.175925 -0.058233 0.715241 -0.564964 -0.498978
0.312237 0.238003 0.229640 0.781359 -0.663467 0.185129
-0.290059 0.278449 -1.088485 -0.119507 -1.016631 0.220641
-0.422228 -0.155112 -1.186100 0.033388 0.543607 0.892101
0.147868 -0.217179 -0.627916 -0.679831 0.697192 0.382923
0.535885 -0.296946 0.167720 -0.494875 0.884740 0.259016
0.667399 -0.264252 0.319396 -0.549052 0.855286 0.245352
-0.182412 -0.133092 0.650401 -0.023045 0.346107 -0.975872
-0.571629 -0.282143 0.513926 0.298724 0.994893 0.018188
0.100665 -0.238518 -0.658449 -0.656722 0.718673 0.382830
-0.540775 0.214973 0.377632 0.198680 -0.556848 0.859978
-0.244127 0.139281 -1.223761 -0.048686 -0.576029 0.869460
-0.366916 0.270235 -1.067904 0.389679 -0.969314 0.047355
0.568699 0.298593 0.204096 -0.500325 -0.859457 0.305667
0.405190 0.204443 0.580378 0.002246 -0.652365 -0.808704
0.279970 -0.203070 -0.455757 -0.727523 0.455333 0.596316
-0.410909 0.155704 0.650881 -0.030482 -0.399200 -0.955413
-0.259995 -0.267851 0.562575 -0.020599 0.715111 -0.748494
-0.085308 0.063684 -1.163376 -0.897895 -0.128133 0.513541
-0.513929 -0.271662 0.439809 0.073127 0.912752 0.502968
-0.594408 0.172607 0.660601 -0.037845 -0.376013 -0.960152
-0.324402 -0.112330 -1.222763 -0.031749 0.191376 1.026845
-0.775177 0.013167 0.456839 1.031350 -0.058762 0.140793
-0.172513 -0.243803 0.575418 -0.009213 0.693315 -0.767511
0.044839 -0.017465 -0.131341 0.828136 0.311578 -0.544455
-0.758136 0.047486 0.691231 0.939456 -0.260739 -0.343694
-0.501399 0.157031 -1.086224 0.770119 -0.688371 -0.146949
0.014403 -0.301205 -0.600697 0.037693 1.044403 -0.019499
0.530880 -0.007942 -0.144774 -0.914777 -0.009610 0.499853
-0.457556 -0.149076 -0.958182 0.872424 0.372776 -0.429377
0.482680 -0.081011 0.620679 -0.023701 0.223025 -1.014782
-0.313546 0.126543 -1.221334 -0.041891 -0.519221 0.906016
-0.390378 0.109396 -0.812971 0.832430 -0.200933 -0.587334
-0.112160 -0.297638 0.498710 0.027877 1.032538 -0.120144
0.249600 -0.056229 -0.597507 -0.807421 0.250530 0.610887
-0.363801 -0.268565 0.562963 -0.045706 0.756255 -0.706857
0.123827 -0.078800 -0.755655 -0.788106 0.274536 0.626414
-0.356682 0.266647 -1.002721 0.408565 -0.926027 -0.278838
0.592755 -0.135123 0.010505 -0.810964 0.351664 0.550291
-0.408396 -0.033137 -0.817191 0.925351 0.135571 -0.456334
-0.069675 -0.190285 0.329814 0.092852 0.486278 0.916810
0.466001 0.303949 0.072494 -0.374213 -0.955792 0.171457
-0.379387 0.157802 0.323225 0.065053 -0.465797 0.928262
-0.334406 -0.247511 -1.100509 0.153880 0.881853 0.541592
0.019864 0.200605 -0.277317 0.613552 -0.670017 -0.508788
-0.368544 -0.112050 -1.223070 -0.022575 0.207470 1.019923
0.817632 0.146442 0.482895 -0.995079 -0.302146 0.102516
-0.330110 -0.273298 0.425735 0.076193 0.880016 0.552386
-0.041457 0.102816 0.290852 0.165324 -0.169849 1.014896
-0.569785 -0.111725 0.678615 -0.073021 0.347875 -0.970286
0.339610 0.084651 -0.459327 -0.867471 -0.204623 0.540151
-0.513307 0.066508 0.678678 -0.069625 -0.177656 -1.019357
-0.318553 0.260858 0.398546 0.060710 -0.772137 0.694336
0.043050 -0.304220 -0.540820 0.041655 1.043738 -0.006598
-0.346100 -0.209971 -1.168388 0.031826 0.546609 0.890669
-0.471275 0.096507 -0.932824 0.923345 -0.279565 -0.393668
0.654072 0.263371 0.250165 -0.571737 -0.809575 0.313626
-0.013198 -0.094758 -0.977073 -0.924362 0.145095 0.460977
-0.061541 0.191742 -1.004054 -0.810941 -0.470987 0.456672
0.216819 -0.014323 0.221461 0.864383 0.016695 0.594997
-0.222658 -0.261721 0.567415 -0.016601 0.722830 -0.741086
-0.360120 0.254615 0.392509 0.058604 -0.766701 0.701393
0.636293 -0.029067 0.027768 -0.914209 -0.016420 0.501163
0.156219 -0.138156 -0.682457 -0.782604 0.272424 0.631665
-0.648847 0.037745 0.322322 0.452065 -0.050332 0.946981
0.708226 0.219807 0.254040 -0.663102 -0.726748 0.337451
-0.388806 0.046525 0.277602 0.294912 -0.129418 1.002982
0.609062 0.287621 0.235848 -0.503393 -0.859388 0.300155
-0.544483 -0.026033 0.679796 -0.063037 0.210408 -1.005868
0.068563 0.122454 -0.815536 -0.813054 -0.198433 0.620002
0.534553 -0.017583 -0.141464 -0.903123 -0.007172 0.521906
-0.103340 0.124074 -0.376646 0.887075 -0.368833 -0.394029
-0.117639 -0.200359 -0.489225 0.633618 0.702937 -0.434314
0.486405 0.309774 0.127310 -0.349994 -0.947039 0.261914
-0.502982 0.000952 0.294525 0.205037 -0.028401 1.033458
0.211651 0.237531 -0.522711 -0.570578 -0.739565 0.462090
0.432694 0.013571 -0.315537 -0.906387 -0.022312 0.509991
-0.124009 0.287398 -0.737789 0.436136 -0.923963 -0.209063
-0.310452 -0.011427 -0.675560 0.843916 0.223434 -0.560039
-0.551073 -0.017972 -1.115836 1.034814 0.076429 -0.006057
0.280449 -0.081150 -0.541735 -0.821513 0.262714 0.583850
-0.294835 0.294887 -1.054440 -0.265680 -0.970937 0.287758
-0.141365 0.071970 0.669790 -0.021020 0.003040 -1.035110
-0.608701 0.253946 0.626578 -0.108917 -0.724457 -0.725841
-0.005325 0.252528 0.562535 -0.000238 -0.811189 -0.644222
0.423780 0.339543 0.380755 0.345425 -0.966950 0.160082
-0.771705 -0.019645 0.470527 1.039392 -0.009535 0.101474
-0.004072 -0.018674 -1.020207 -0.925707 0.144350 0.457597
0.347737 0.178328 -0.380195 -0.736690 -0.577162 0.452452
0.555526 -0.243646 0.536128 -0.043814 0.816977 -0.644956
-0.286141 0.144719 -0.704977 0.788639 -0.469964 -0.493739
-0.211091 0.146902 -1.213934 -0.112126 -0.581163 0.857686
-0.002134 -0.186786 -0.893277 -0.706614 0.665294 0.393422
0.324222 0.050887 0.640013 -0.009217 0.012529 -1.039914
-0.146970 0.033954 -0.411924 0.976233 -0.042739 -0.354505
0.002722 -0.189274 -0.849555 -0.690945 0.509924 0.591555
0.423540 0.104816 -0.304066 -0.871797 -0.266253 0.500442
0.727179 0.241828 0.345174 -0.549001 -0.834582 0.293864
-0.221796 -0.297081 0.514449 0.018638 1.031463 -0.138863
0.464088 0.338289 0.376148 0.254264 -1.003064 0.099731
0.700204 0.120080 0.604257 -0.015314 -0.368277 -0.972232
-0.743305 0.138276 0.459815 0.958384 -0.354165 0.204700
0.511180 0.177056 0.588457 -0.017872 -0.371041 -0.967278
-0.132360 0.282669 -0.727770 0.453180 -0.914253 -0.213847
-0.065940 -0.034701 0.656532 -0.020311 0.033516 -1.037256
-0.344777 0.265844 -0.957647 0.413026 -0.924123 -0.274431
-0.510158 0.026003 0.290850 0.244104 -0.076049 1.022914
0.754471 0.190727 0.292213 -0.663850 -0.723996 0.345124
-0.192973 -0.284724 -0.848956 0.110783 1.036708 -0.078008
-0.247577 0.125239 -0.624098 0.811062 -0.470527 -0.450833
-0.245795 0.148926 -1.217205 -0.051253 -0.553973 0.883597
-0.507779 -0.062543 -1.009607 0.901586 0.353285 -0.386980
-0.080581 0.211220 -0.441956 0.631412 -0.691315 -0.456416
-0.145842 0.138924 -0.457107 0.834878 -0.351409 -0.503097
0.340351 -0.277107 0.288088 0.527552 0.821634 0.359211
0.290714 -0.296005 -0.146661 0.467056 0.936019 -0.032449
0.085159 0.040389 -0.069829 0.859571 0.107205 -0.567245
-0.585496 0.063905 0.309437 0.426728 -0.118874 0.948788
0.411174 -0.310727 0.290325 0.456140 0.905734 0.240570
0.052273 -0.268878 -0.367685 0.472321 0.841209 -0.395106
0.181105 -0.124516 0.628929 -0.032449 0.377683 -0.965033
-0.125162 -0.231763 -1.051854 -0.511869 0.838158 0.366783
0.363314 -0.301225 0.343109 0.285682 0.944751 0.334571
0.795509 -0.129733 0.349355 -0.888111 0.516653 0.198969
0.785823 -0.118640 0.311984 -0.890701 0.523808 0.173629
0.621330 0.306837 0.358801 -0.314744 -0.988222 0.044804
0.385936 -0.251094 -0.208478 -0.751551 0.597535 0.407590
-0.415923 -0.250602 -1.040937 0.557566 0.850531 -0.247518
0.830119 -0.022794 0.388200 -1.039580 0.119795 0.076776
0.743124 0.144725 0.600239 -0.038736 -0.423181 -0.946549
0.535708 0.205274 -0.032347 -0.739532 -0.607346 0.408135
-0.431698 0.282188 0.527545 0.012372 -1.033449 -0.127248
0.449489 -0.304673 0.056256 -0.447095 0.916511 0.235848
0.007612 0.172674 0.622835 -0.013953 -0.388554 -0.958204
0.078430 0.297970 -0.562700 -0.087951 -1.020580 0.181994
0.214127 -0.090214 0.091282 0.806061 0.396599 -0.515403
-0.194341 0.000214 -0.486438 0.889829 0.101562 -0.525378
0.481199 -0.114563 -0.185334 -0.819475 0.332957 0.551273
0.484713 0.031677 0.635089 0.002166 0.011870 -1.040249
-0.783073 -0.032380 0.582126 1.034314 -0.043455 0.106758
-0.139828 0.268092 -0.981549 -0.351676 -0.919864 0.358642
0.728022 -0.015961 0.160108 -0.897106 0.025660 0.526914
0.749942 -0.147676 0.568616 -0.682500 0.645598 -0.462636
-0.051358 0.128613 -1.030958 -0.899839 -0.161268 0.493787
0.107811 0.134187 -0.084343 0.736689 -0.568316 -0.463496
0.065148 -0.301361 -0.542737 -0.086031 1.034154 0.136578
0.053660 0.122489 -0.833379 -0.805322 -0.232865 0.617164
-0.210807 0.052626 0.670759 -0.029828 0.013302 -1.034592
-0.593126 -0.106449 0.669432 -0.064700 0.258471 -0.997473
0.183705 -0.260125 -0.514931 -0.637989 0.730085 0.392309
-0.198927 0.070742 -0.515183 0.917309 -0.082319 -0.476756
0.129260 0.288571 -0.296311 0.352204 -0.932711 -0.293447
-0.550283 0.000574 0.686223 -0.070812 0.096909 -1.028760
0.283447 0.269039 -0.013401 0.655083 -0.777363 -0.235315
-0.428865 -0.216375 -0.985450 0.891517 0.482850 -0.241034
0.193053 -0.151034 -0.632764 -0.792942 0.240846 0.632690
-0.230740 0.288129 -1.017929 -0.092843 -1.019912 0.217293
-0.446098 -0.141367 -0.929015 0.890714 0.353416 -0.406750
-0.444593 -0.046000 0.290887 0.240084 0.037570 1.029406
0.619159 -0.123250 0.042327 -0.814665 0.334982 0.557001
-0.071055 0.008672 -1.156751 -0.777114 -0.073986 0.688339
-0.108364 -0.019499 -1.209255 -0.762979 0.070005 0.701387
-0.165868 0.272559 -0.747858 0.447082 -0.917629 -0.221993
0.522966 -0.110859 0.610279 -0.025318 0.378563 -0.968160
-0.476629 0.205866 0.348384 0.231057 -0.578841 0.835367
-0.440201 0.259235 0.406589 0.056365 -0.765183 0.705434
0.282399 0.066286 0.636807 -0.013508 -0.058147 -1.036237
0.158772 -0.281394 -0.485741 -0.410612 0.919070 0.291396
0.811084 0.156069 0.409198 -0.992649 -0.304195 0.113041
-0.199684 0.133972 -1.212755 -0.065937 -0.555885 0.881083
-0.129812 -0.292582 0.445383 0.071367 0.878492 0.554444
0.050221 -0.034018 0.654627 -0.016915 0.004064 -1.039090
-0.586599 -0.132052 0.661937 -0.076007 0.359538 -0.966990
-0.133158 -0.038546 -1.222404 -0.630852 0.254828 0.783007
-0.105740 0.023781 0.662568 -0.021415 0.023813 -1.037094
0.275599 0.026401 0.641979 -0.010726 0.024659 -1.039381
-0.039247 -0.026056 -1.080803 -0.920762 0.147588 0.468999
-0.213546 0.301954 0.508906 0.021846 -1.039617 -0.017685
-0.491741 0.138169 -1.014371 0.920685 -0.300900 -0.385452
0.175889 -0.236676 -0.562156 -0.649268 0.632558 0.525015
0.255605 0.240015 0.003538 0.651041 -0.781889 -0.231204
-0.304041 0.281023 -0.977088 0.412532 -0.924373 -0.271313
-0.677636 0.053973 0.332467 0.498562 -0.048075 0.920715
0.548183 -0.284030 0.497002 -0.051931 0.812177 -0.650321
0.434621 -0.312411 0.126074 0.106947 1.032228 0.140639
-0.308234 0.197366 -0.794432 0.720198 -0.569972 -0.493962
0.485391 -0.336025 0.390654 0.265380 1.004691 -0.007729
-0.290021 -0.261697 -1.088407 0.078387 0.975349 0.365322
-0.478145 0.183205 -1.095815 0.784086 -0.669658 -0.167830
-0.161025 -0.263180 -0.717992 0.565757 0.859279 -0.186534
0.534716 0.030879 0.628458 0.008076 -0.046603 -1.038418
-0.689346 -0.211390 0.594280 0.611687 0.834721 -0.118632
-0.490830 -0.000175 -1.221775 0.378197 -0.145971 0.962393
0.288958 -0.297582 0.426910 0.382116 0.953623 0.152961
-0.420515 -0.045648 -0.828363 0.834691 0.250788 -0.562813
0.741838 0.183969 0.575247 -0.040420 -0.422974 -0.946454
-0.635398 -0.218780 0.411801 0.363450 0.817643 0.534655
-0.159569 -0.142542 -0.491568 0.836196 0.398381 -0.473787
0.129653 0.188496 -0.685252 -0.703116 -0.537049 0.552621
-0.039080 0.251714 -0.840919 -0.689572 -0.699065 0.354875
0.360767 0.214630 0.574457 0.000402 -0.637166 -0.819771
-0.453096 0.278579 0.436491 0.055329 -0.825125 0.628578
-0.091203 -0.200373 0.339880 0.089952 0.488386 0.913430
-0.305544 0.095096 -0.695233 0.836376 -0.192333 -0.586938
-0.133537 0.042743 -0.385195 0.823133 -0.218253 -0.589114
0.147778 0.292494 -0.286709 0.350106 -0.933574 -0.292936
0.428022 0.304454 0.007738 -0.364034 -0.956691 0.184714
0.271988 0.252437 0.555076 -0.008797 -0.817244 -0.641483
-0.022516 0.105993 -0.993015 -0.892327 -0.172948 0.503875
-0.711812 0.152659 0.395301 0.362249 -0.432486 0.875490
-0.366013 -0.050316 -0.765531 0.828634 0.197979 -0.598409
-0.778309 -0.053898 0.493303 0.993761 0.268434 0.141469
-0.373774 -0.259124 0.399301 0.084721 0.901062 0.515007
-0.490118 -0.076616 -0.979863 0.887084 0.370784 -0.400620
0.723473 0.149907 0.594979 -0.030463 -0.397722 -0.958953
-0.286276 -0.112655 -0.682254 0.779644 0.427523 -0.538928
0.831628 0.088817 0.453059 -0.987769 -0.327523 0.097815
0.682003 -0.250671 0.299684 -0.567536 0.837008 0.265905
-0.141504 0.050280 0.282548 0.117290 -0.172325 1.025143
0.224091 -0.192080 0.014807 0.653832 0.757820 -0.300879
0.414392 0.218227 0.574225 -0.005880 -0.729730 -0.735711
-0.246632 0.056603 -1.261931 -0.330743 -0.089878 0.985921
0.620147 -0.273954 0.250485 -0.552718 0.858420 0.225670
-0.304394 0.258750 0.575056 -0.016536 -0.753227 -0.711223
0.783204 -0.093785 0.272318 -0.893053 0.229912 0.487096
-0.526891 0.007839 -1.023009 0.962873 0.034399 -0.392892
0.095839 0.185286 -0.150910 0.738523 -0.597541 -0.426781
-0.474785 -0.176187 -1.036746 0.749654 0.722755 -0.088591
0.724871 -0.100258 0.606250 -0.113422 0.273110 -0.998367
-0.319031 0.148155 -0.752982 0.762403 -0.510347 -0.495674
-0.537682 -0.021697 -1.213238 1.034243 0.067182 -0.014199
0.205033 -0.263249 -0.465095 -0.622704 0.746831 0.391658
0.598016 0.240807 0.115143 -0.531119 -0.841581 0.302400
-0.492953 0.095085 -0.994867 0.972763 -0.202294 -0.315505
-0.342240 0.178215 0.328604 0.064179 -0.460305 0.930910
0.093458 0.176371 -0.747730 -0.699339 -0.548933 0.545600
-0.765351 -0.096411 0.492580 0.994990 0.268759 0.122476
-0.239335 0.259526 0.570687 -0.008454 -0.776009 -0.684893
-0.348785 -0.136521 0.654242 -0.043535 0.356083 -0.970755
0.358142 -0.120641 -0.396322 -0.834390 0.258484 0.567470
0.020992 0.153856 0.629834 -0.012814 -0.398715 -0.954620
-0.065253 -0.238200 -0.470212 0.632435 0.695328 -0.451190
0.149555 0.270033 0.380311 0.113267 -0.861689 0.566401
0.810313 -0.145612 0.500629 -0.939070 0.443813 0.116052
-0.379753 0.105440 0.665824 -0.063884 -0.204436 -1.011466
-0.209945 0.021516 0.673769 -0.026171 0.011571 -1.035617
0.584004 -0.162589 0.015666 -0.808074 0.338848 0.562619
0.806714 -0.124730 0.413095 -0.914738 0.485705 0.152308
0.350039 -0.271620 0.214799 0.775944 0.682193 0.143194
-0.268897 0.270462 -0.880836 0.504666 -0.879318 -0.252377
-0.187371 0.256178 0.568972 -0.004570 -0.781023 -0.678981
0.555880 -0.274229 0.148863 -0.543818 0.857351 0.244411
-0.718958 -0.014324 0.354208 0.563093 -0.023240 0.886535
-0.133516 0.298759 0.467623 0.016444 -0.990956 0.320688
0.445602 0.315264 0.102909 -0.351273 -0.944506 0.272331
0.405801 0.302531 0.210030 0.485107 -0.903096 0.188284
0.425976 0.017235 0.633377 -0.001501 0.003464 -1.041408
-0.738807 -0.159181 0.598415 0.732138 0.739259 -0.025100
0.130135 0.039202 0.649495 -0.011252 0.008032 -1.038638
0.355540 -0.168921 0.597919 -0.033171 0.368614 -0.971044
-0.524994 -0.100224 -1.115845 0.979827 0.345195 -0.040287
0.742380 -0.200185 0.292762 -0.876355 0.482518 0.297351
-0.305498 -0.243712 -1.105708 0.120430 0.862446 0.580117
0.225550 -0.061649 0.125902 0.836346 -0.005502 -0.612024
-0.476106 0.137182 -0.977397 0.919408 -0.295777 -0.390468
-0.103596 0.229582 -1.040174 -0.672157 -0.743759 0.295509
0.762488 0.103327 0.611566 -0.023424 -0.381005 -0.966467
-0.764590 0.111103 0.590842 0.930911 -0.467191 -0.018065
-0.143172 0.008873 -0.402014 0.908861 0.085094 -0.494519
0.017407 -0.119740 -0.898137 -0.892647 0.242114 0.475032
0.746360 0.241309 0.529375 -0.738371 -0.598475 -0.425413
0.512668 0.211803 -0.061837 -0.723160 -0.615666 0.421408
0.634628 -0.130898 0.068961 -0.811325 0.343394 0.556902
-0.386872 0.234813 -0.950822 0.684407 -0.643946 -0.458810
-0.091474 -0.231388 0.585620 -0.005265 0.686116 -0.774442
-0.424711 0.135410 -0.881713 0.755506 -0.524200 -0.494362
-0.618339 0.155157 0.672153 -0.034369 -0.378673 -0.958461
0.074394 0.272932 0.536615 -0.001266 -0.807352 -0.649686
-0.227191 0.081988 -0.564289 0.917479 -0.081290 -0.477803
0.577901 -0.246963 0.537537 -0.082376 0.833924 -0.623088
-0.166579 0.266466 -1.020684 -0.347955 -0.926965 0.347019
0.093030 -0.209717 -0.186522 0.755621 0.529359 -0.480824
0.080148 0.113883 -0.808345 -0.804030 -0.240566 0.616776
0.112092 -0.298037 0.442649 0.169484 0.907554 0.476078
0.054231 -0.222501 0.586409 -0.004140 0.633215 -0.820950
0.631283 -0.089813 0.033252 -0.827389 0.502846 0.385162
0.835739 -0.006225 0.411315 -1.037031 0.122868 0.085257
-0.010212 0.227363 0.348079 0.115428 -0.589130 0.843665
0.101692 0.115588 -0.781934 -0.937373 -0.257269 0.379785
0.759496 -0.138249 0.264793 -0.888249 0.495174 0.245230
0.077436 -0.265889 -0.329901 0.466517 0.845142 -0.391189
0.027185 0.023736 0.267105 0.139094 -0.148237 1.028299
0.069796 -0.175508 -0.184902 0.748860 0.539530 -0.478296
0.726533 -0.034577 0.619716 -0.143666 0.118963 -1.022089
-0.237755 0.249101 -0.780169 0.701652 -0.677848 -0.365933
-0.472051 0.048673 -1.220762 0.362552 -0.132637 0.966962
0.141028 -0.089524 -0.729776 -0.787103 0.277078 0.624570
0.171747 -0.294293 -0.285181 0.255700 0.989519 -0.215256
-0.082636 0.180764 0.622753 -0.015261 -0.404574 -0.951534
0.845677 -0.032135 0.531377 -0.999694 0.288351 -0.110130
0.445230 0.172345 -0.221467 -0.762837 -0.535253 0.462387
-0.172971 -0.000729 -1.243701 -0.020682 0.172367 1.034208
-0.095177 0.218781 -0.474269 0.667067 -0.715641 -0.357731
0.110791 0.015908 0.648860 0.011924 -0.326971 -0.985515
0.820656 -0.098459 0.482171 -0.985316 0.351247 0.000262
-0.025594 0.195088 0.610810 -0.014172 -0.389316 -0.957575
0.343378 0.200763 -0.351122 -0.749896 -0.550871 0.466698
-0.301024 -0.240498 -1.120483 -0.032344 0.891604 0.542434
0.168684 0.072596 0.646239 -0.013532 -0.053531 -1.034422
0.388997 -0.074115 -0.368670 -0.842353 0.271084 0.548618
-0.210404 -0.220346 -0.687517 0.610330 0.728907 -0.431057
-0.546295 -0.015904 0.301485 0.192746 -0.054546 1.037304
-0.599661 -0.109484 0.665026 -0.075286 0.358031 -0.967476
0.562247 0.266524 0.523500 -0.010878 -0.771201 -0.694536
-0.660956 -0.241811 0.567308 0.601648 0.840334 -0.122518
0.210844 0.218446 -0.549864 -0.607695 -0.718191 0.453756
-0.708057 -0.204600 0.558148 0.743135 0.728699 0.010364
0.664056 -0.108947 0.097306 -0.837126 0.308018 0.539264
-0.184199 -0.058690 -1.240484 -0.025743 0.176550 1.031877
0.394291 0.297241 0.097476 0.550450 -0.876663 0.122433
0.736641 -0.198450 0.292770 -0.738741 0.585464 0.447095
0.824908 -0.006488 0.353541 -0.972031 -0.009150 0.375435
0.434376 -0.098954 -0.278726 -0.840498 0.286515 0.545210
-0.690031 0.216227 0.567016 0.609114 -0.826824 -0.181656
0.280709 -0.239667 0.033019 0.660713 0.754384 -0.296786
-0.086901 -0.268959 0.548298 -0.005913 0.727622 -0.735985
0.542417 -0.157426 -0.059868 -0.812492 0.509125 0.401728
-0.379152 0.064554 0.673187 -0.059805 -0.222476 -1.008729
-0.359980 -0.240480 0.591639 -0.039416 0.744500 -0.718920
-0.096727 -0.170328 -1.101523 -0.641295 0.573691 0.589002
-0.123832 0.215819 -0.520223 0.665491 -0.717033 -0.360645
-0.317093 -0.024282 0.674880 -0.040281 0.053989 -1.034084
-0.397644 0.020637 -0.790828 0.946643 0.029924 -0.432035
0.149027 -0.278579 -0.256788 0.496316 0.842923 -0.366282
-0.412040 -0.237732 -1.063947 0.496004 0.914798 0.082617
-0.264760 0.191135 0.333159 0.063646 -0.467528 0.925059
-0.347119 0.209286 -0.861860 0.701586 -0.623988 -0.460779
-0.100731 -0.228811 -1.045029 -0.627190 0.780287 0.304173
0.547668 -0.047896 -0.113748 -0.912583 -0.001028 0.505642
-0.168849 -0.255017 -1.061113 -0.513750 0.838552 0.362765
0.409814 -0.118601 -0.308748 -0.840647 0.287487 0.542675
-0.125929 0.116505 0.295227 0.072556 -0.470829 0.924604
-0.747659 0.082250 0.428429 1.026314 -0.086007 0.142732
0.556909 0.336124 0.367865 -0.115564 -1.032499 0.065979
0.428261 0.161354 -0.261561 -0.751023 -0.552653 0.460333
0.186339 -0.068311 -0.672698 -0.794956 0.247974 0.628056
-0.355770 0.174810 -1.209798 -0.038217 -0.520929 0.902537
0.019722 0.160236 -0.870142 -0.832015 -0.435130 0.448729
-0.300767 0.284452 -1.059203 -0.187824 -1.003177 0.242392
0.034941 0.091163 -0.153873 0.832602 -0.381291 -0.486700
-0.714761 -0.201699 0.526459 0.733236 0.738727 0.019698
-0.041325 0.287249 0.429183 0.019686 -0.990252 0.314242
0.080525 0.045711 0.266070 0.125505 -0.137381 1.031196
-0.108760 0.236982 -0.534391 0.635108 -0.688833 -0.448746
-0.740188 0.125908 0.639801 0.765045 -0.530042 -0.451794
0.002291 -0.119571 -0.238399 0.818015 0.297029 -0.563834
-0.236951 -0.252506 0.575496 -0.017972 0.728496 -0.732651
