ply
format ascii 1.0
element vertex 512
property float x
property float y
property float z
property float nx
property float ny
property float nz
end_header
0.450729 -0.269227 -0.653992 -0.163207 0.913529 0.463241
0.194773 -0.068399 0.891765 0.235021 0.111153 -1.000973
-0.210041 -0.224114 0.690318 0.136110 0.826879 -0.601960
-0.164217 -0.154993 -0.612212 0.067977 0.205530 -1.017383
0.331804 -0.201985 -0.806548 -0.247335 0.479687 0.873573
0.347431 -0.190081 -0.796503 -0.321256 0.496340 0.847255
0.240110 0.098091 -0.884401 -0.421884 -0.191486 0.924255
-0.459670 0.075616 0.726514 0.492004 -0.056158 -0.915554
0.652659 -0.248046 -0.185532 -0.525203 0.823568 -0.313277
0.736538 0.029318 0.950829 0.034043 -0.113459 -1.033106
0.470522 -0.237373 0.834385 0.085783 0.809177 -0.661956
-0.522452 -0.224010 -0.631772 -0.025261 0.565659 -0.860457
0.015107 0.130813 -0.915190 -0.017987 -0.272194 0.992357
0.778649 -0.133930 0.549417 -0.078819 0.288694 0.980985
0.858693 -0.289307 0.840931 0.014413 0.931006 -0.437563
0.758642 -0.026256 -0.407614 -1.017285 -0.181197 0.137354
0.075365 -0.039951 0.098778 0.080143 0.266829 0.994053
0.185345 -0.190507 -0.857328 -0.260247 0.479097 0.876931
0.458841 -0.195479 -0.364129 0.865294 0.431887 -0.382084
-0.160942 0.094597 -0.606025 0.087568 -0.332653 -0.986500
-0.412092 -0.252164 0.625002 0.250852 0.820578 -0.558451
0.028867 0.037668 0.849743 0.358440 0.045367 -0.972306
0.572746 -0.295562 -0.279173 0.532890 0.871558 -0.123667
-0.613971 -0.116970 0.597822 0.689791 0.407372 -0.653644
1.176828 -0.077853 0.875494 -0.727696 0.389794 -0.636254
-0.237094 -0.028105 -0.596233 0.068739 0.202778 -1.006221
0.108143 -0.139273 0.347294 -0.427755 0.166731 -0.929344
0.562455 -0.221842 0.880449 0.101383 0.769511 -0.691017
-0.421065 -0.305585 0.453558 -0.388117 0.957669 -0.018309
-0.023808 0.278217 -0.693922 0.051708 -0.836826 -0.603362
0.578953 -0.100041 0.052405 -0.682433 0.367737 -0.677919
0.750706 0.043051 -0.195057 -1.012376 -0.193528 0.120286
0.423905 0.219431 -0.026789 0.344064 -0.937508 0.278593
-0.055228 -0.135734 -0.923282 0.149794 0.251417 0.996096
0.692545 -0.105133 -0.623287 -0.690315 0.502624 0.579982
-0.667202 -0.090840 0.568797 0.688182 0.410930 -0.653811
0.516906 -0.254763 -0.355009 0.624162 0.770673 -0.266462
0.356437 -0.215623 -0.517377 0.376734 0.604282 -0.752608
0.483507 0.250143 -0.042324 0.348856 -0.933176 0.277815
-0.761785 0.206801 -0.848539 0.246551 -0.411848 0.901100
-0.915075 -0.224428 -0.646958 0.195119 0.710307 -0.730323
0.501019 -0.267233 0.626859 -0.073247 0.919993 0.450951
0.735253 -0.103931 -0.178729 -0.984467 0.328737 0.057898
-0.320076 0.123544 -0.901022 0.029137 -0.249245 0.997614
0.341492 -0.266503 -0.723584 -0.155923 0.908912 0.467600
1.045065 -0.123477 0.586358 -0.115828 0.262930 0.987416
0.115757 0.160715 0.321327 -0.511556 -0.436038 -0.774051
1.142697 0.167287 0.914856 -0.456876 -0.733088 -0.587459
0.245723 0.108297 -0.880560 -0.391791 -0.256692 0.922622
-0.743368 -0.083509 0.153663 0.667517 0.100860 0.769276
1.131919 -0.183023 0.886228 -0.261386 0.839300 -0.510015
0.638545 0.299793 0.728502 -0.028150 -0.979801 0.335582
0.932102 0.255746 0.653377 -0.064621 -0.679550 0.758759
0.500580 -0.013448 0.951537 0.083293 -0.034161 -1.040459
0.696173 -0.204568 -0.448618 -0.746521 0.695534 0.161832
-0.222265 -0.178761 0.755985 0.205353 0.440841 -0.906733
-0.758712 0.272744 -0.781113 0.025770 -0.939712 0.439575
0.123119 0.038830 -0.929509 -0.111829 -0.243218 0.989209
-0.511740 -0.271582 -0.763046 -0.033507 0.884706 0.533723
-0.229974 -0.254702 0.233671 0.027449 0.835765 0.597425
0.468501 0.261209 0.823603 0.100885 -0.752676 -0.723182
-0.090421 -0.102608 -0.589461 0.086371 0.228886 -1.008873
-0.946593 0.113293 -0.819979 0.314210 -0.354679 0.912669
0.515502 -0.266930 -0.422276 0.518590 0.878350 -0.130622
0.593601 0.288083 0.689934 -0.022258 -0.984178 0.324612
0.544161 0.097000 -0.748641 -0.399490 -0.328002 0.890447
-0.162112 -0.154557 0.786642 0.093433 0.510761 -0.889665
-0.491375 -0.038801 -0.550935 -0.527338 0.128977 -0.895857
1.126862 -0.043007 0.639673 -0.830489 -0.066812 0.598372
-0.762885 -0.085805 -0.521549 0.072369 0.296487 -0.992368
0.059434 -0.296416 -0.716783 0.070888 0.964975 -0.358028
-0.542453 -0.004009 0.689719 0.518053 -0.040740 -0.892781
0.970992 -0.197252 0.611624 -0.148294 0.388908 0.934575
-0.075145 0.077336 -0.926547 -0.001271 -0.262288 0.994065
0.092516 0.200247 0.796614 0.210923 -0.720855 -0.723962
-0.595985 -0.009944 0.666578 0.578944 -0.037107 -0.863254
0.146718 0.072807 0.323296 -0.523567 -0.046154 -0.890927
1.134074 0.146375 0.810357 -0.857129 -0.605322 0.043337
0.479787 0.067166 0.150986 -0.691964 -0.024169 -0.763967
0.971758 -0.182759 0.599878 -0.158565 0.432735 0.915336
0.072872 0.024180 0.861416 0.344598 0.077923 -0.972424
-0.924538 -0.215107 -0.785933 0.274723 0.977519 0.184340
0.592425 -0.031033 0.947575 0.050951 0.005930 -1.045786
-0.346225 0.259044 -0.662359 0.000738 -0.697676 -0.762142
-0.752775 0.004490 -0.907812 0.134178 0.082024 1.020482
0.499158 -0.235743 -0.252558 0.523291 0.894508 -0.091068
0.141270 0.177696 0.151747 0.058074 -0.786060 0.677111
-0.768188 -0.016310 -0.879471 0.109241 0.005452 1.027449
-0.421835 -0.270012 -0.779703 -0.008319 0.884179 0.537256
0.838930 0.163228 0.573006 -0.033588 -0.642440 0.809999
0.335917 0.119295 -0.840626 -0.382605 -0.275259 0.915316
-0.514344 0.156652 -0.868215 0.058534 -0.347148 0.972745
1.145369 -0.122190 0.898629 -0.746350 0.428379 -0.559508
-0.711037 -0.267704 -0.794976 -0.048907 0.875559 0.548303
0.655799 0.250982 -0.438141 -0.788253 -0.678385 0.059112
-0.454542 0.263212 -0.668154 -0.129287 -0.781974 -0.668440
0.676645 -0.236654 0.841869 0.061363 0.730586 -0.731699
0.688245 0.238487 0.609485 -0.062985 -0.701272 0.750080
-0.971726 0.070200 -0.827830 0.445492 -0.299120 0.869824
-0.051423 0.287264 -0.702532 0.045344 -0.837893 -0.603677
-0.467913 0.267162 0.267927 -0.052099 -0.892931 0.515829
1.062910 -0.221887 0.752489 -0.586928 0.843179 0.046828
0.204938 -0.286063 -0.727544 -0.161975 0.913810 0.462005
0.479895 -0.102004 0.156677 -0.612072 0.382665 -0.745835
-0.454291 -0.102140 -0.586953 0.046522 0.118177 -1.027891
-0.932812 0.187026 -0.790449 0.526308 -0.742499 0.486759
0.220452 -0.167925 0.262228 -0.477767 0.426796 -0.812871
0.507250 -0.070252 0.512695 -0.073635 0.254948 0.986684
-0.433273 -0.263608 -0.787213 -0.016767 0.883668 0.540531
0.791578 -0.112028 0.548917 -0.088856 0.265101 0.987648
0.074613 0.218593 0.198377 0.046893 -0.781403 0.688901
0.704771 0.226179 0.880602 0.090784 -0.730439 -0.742871
-0.330915 -0.239933 0.631895 0.219940 0.828717 -0.579254
0.504239 -0.099423 0.510333 -0.043498 0.230518 1.005448
1.122326 -0.101456 0.737012 -0.942197 0.341664 0.122864
-0.250644 -0.235919 0.381092 -0.484581 0.912325 -0.083916
-0.575484 -0.248181 0.518843 0.331004 0.834401 -0.506305
-0.153685 -0.165577 -0.613708 0.083335 0.229298 -1.010133
-0.060825 0.068405 0.808788 0.382514 0.055748 -0.961953
0.554499 0.102011 0.074807 -0.708674 -0.164749 -0.745631
0.793671 -0.083170 0.956908 0.028612 0.413446 -0.968877
0.714885 0.252592 0.858677 0.083074 -0.785251 -0.683356
-0.475637 -0.263418 0.586865 0.273207 0.822586 -0.547930
-0.319399 0.184549 0.188339 0.099087 -0.589342 0.834153
0.342119 0.014756 -0.041811 0.728192 -0.003015 0.740609
-0.473879 -0.222957 0.596456 0.238305 0.841313 -0.554015
0.744657 -0.117487 0.514978 -0.071920 0.282069 0.988376
0.365871 -0.193031 0.175303 -0.417118 0.653966 -0.682271
1.168562 -0.048769 0.840765 -0.954836 0.378743 0.098329
-0.429112 0.270873 -0.761404 -0.029678 -0.947178 0.415335
-0.772998 -0.067090 0.377644 1.005970 0.235302 -0.029284
0.903569 -0.034408 0.970247 0.015072 0.419958 -0.952838
0.836725 0.296930 0.699647 -0.101713 -0.933362 0.423229
1.113642 0.045613 0.639304 -0.863786 -0.094857 0.556617
-0.283505 -0.210015 -0.650419 0.024434 0.604592 -0.834422
-0.596426 0.082845 -0.879911 0.069464 -0.250011 0.981863
0.365872 -0.155062 -0.464233 0.686579 0.320378 -0.726569
-0.459051 -0.090007 0.709807 0.377615 0.316809 -0.908456
-0.261275 0.271175 -0.684413 0.004671 -0.698947 -0.756576
-0.066974 0.268783 0.571892 -0.058829 -1.033739 0.028148
0.426202 0.220208 0.862447 0.160762 -0.748796 -0.702945
-0.761865 -0.083384 0.363081 1.013895 0.227682 -0.020659
0.950314 -0.302643 0.809412 0.043746 1.005820 -0.162477
-0.665627 0.255192 0.388293 0.366457 -0.972118 -0.003448
1.125665 -0.123404 0.659339 -0.854401 0.498934 0.308319
-0.714568 -0.035846 0.557010 0.809150 0.160240 -0.616137
-0.253127 -0.269888 0.278239 0.023971 0.965365 0.359071
-0.776330 -0.057670 0.383628 1.007958 0.242537 -0.025296
-0.701035 0.082250 0.552149 0.817545 -0.041386 -0.637726
-0.739208 -0.163038 0.423951 0.991746 0.299097 -0.011821
0.244686 0.245139 -0.798009 -0.145801 -0.737209 0.705194
0.762763 -0.174553 0.563546 -0.076152 0.280963 0.983676
0.412657 -0.070826 0.934938 0.056077 0.437707 -0.946061
-0.092958 -0.240902 -0.659952 0.039837 0.792453 -0.662618
0.083372 0.120540 0.123729 0.062788 -0.461200 0.922498
-0.945783 0.125540 -0.615206 0.650048 -0.558325 -0.595743
0.206899 -0.159234 -0.869017 -0.362786 0.503594 0.822714
0.468938 -0.151285 0.129934 -0.636933 0.375988 -0.723316
0.469449 0.278060 -0.501763 0.364803 -0.937819 -0.247265
-0.255017 -0.288584 0.368939 -0.046442 1.018278 0.175052
-0.441765 -0.146957 0.715549 0.325371 0.338721 -0.924351
1.082500 0.090562 0.618423 -0.861157 -0.136394 0.542920
0.801864 -0.303274 0.800893 0.014927 0.937322 -0.443993
0.055960 0.259921 -0.823985 -0.058739 -0.955368 0.395457
0.134191 -0.243715 0.208031 -0.010062 1.017890 0.201543
-0.448974 0.225417 -0.636071 -0.016646 -0.745280 -0.719039
0.211590 -0.095761 0.315102 -0.433422 0.192987 -0.919919
-0.681890 0.133915 -0.898858 0.113598 0.066224 1.023902
0.648636 0.256312 -0.199374 -0.669792 -0.689702 -0.372090
-0.047634 -0.164588 0.151711 0.073074 0.291281 0.983992
-0.358286 -0.161057 0.723528 0.351793 0.319014 -0.922391
0.038338 -0.125559 0.119741 0.076266 0.279977 0.987560
1.151180 -0.114773 0.767686 -0.878490 0.487062 0.186860
-0.267744 -0.215519 0.484718 -0.804927 0.603117 0.193610
0.755277 -0.002740 -0.383474 -1.029025 -0.003112 0.125525
-0.219127 -0.178929 0.179143 0.072990 0.526935 0.878327
0.486833 -0.073538 -0.796715 -0.500203 -0.013239 0.902233
0.000298 -0.068345 0.831039 0.391317 0.041653 -0.960411
-0.202371 0.258180 -0.814191 -0.036865 -0.948723 0.408731
0.688637 -0.200739 -0.489333 -0.743857 0.704051 0.147841
-0.211046 -0.221365 0.723095 0.134512 0.834195 -0.599263
-0.506354 0.160574 0.662718 0.389513 -0.623981 -0.731384
0.352256 0.178487 -0.472251 0.662088 -0.300635 -0.743041
0.355411 -0.172187 0.015362 0.466473 0.667598 0.643219
0.203062 -0.283670 -0.742537 -0.169394 0.905285 0.477016
0.145285 -0.103581 0.858799 0.306683 0.507391 -0.852858
-0.685119 -0.243181 0.438179 0.585515 0.683031 -0.500892
0.499130 0.009411 0.502940 0.036738 -0.060671 1.034928
0.696612 0.311141 0.725489 -0.021491 -0.984145 0.319539
-0.294166 -0.268683 0.259818 0.014621 0.987864 0.293497
-0.529865 -0.041873 0.699374 0.462814 0.238227 -0.889778
0.441932 0.261254 -0.460250 0.348915 -0.947003 -0.229587
-0.717700 -0.056935 -0.890710 0.152272 0.110612 1.015831
-0.448195 -0.287342 0.552743 0.301619 0.893238 -0.416173
-0.584821 0.168328 -0.863766 -0.010451 -0.513184 0.885223
0.634085 0.050428 -0.009517 -0.760881 0.059690 -0.693765
-0.403989 0.236946 0.224674 -0.011761 -0.864594 0.565511
-0.587445 -0.108049 -0.904275 0.131417 0.030961 1.024971
-0.782281 -0.018967 -0.904078 0.094612 -0.022953 1.031150
-0.761656 0.067337 0.347767 1.023966 -0.118583 -0.010250
0.058169 0.135514 -0.599660 0.139905 -0.316221 -0.980451
0.098173 -0.297930 -0.718188 0.079267 0.961736 -0.366785
0.078954 0.214593 0.782191 0.196967 -0.752956 -0.684976
-0.762024 0.131002 0.431889 1.028839 -0.109234 -0.019177
-0.613044 -0.071084 0.623068 0.773762 0.284707 -0.627278
-0.777154 -0.008810 0.310617 1.027784 -0.138538 -0.014711
-0.032559 -0.210942 0.179086 0.062883 0.480499 0.906589
-0.469564 -0.240165 -0.821398 -0.020828 0.851367 0.604543
0.050050 -0.273079 -0.809515 -0.113116 0.934045 0.426179
-0.234279 -0.269527 0.255600 0.021898 0.843890 0.593461
-0.684476 -0.204204 -0.557674 -0.005394 0.589571 -0.844025
-0.551283 -0.210008 -0.588432 -0.402724 0.630834 -0.719286
1.065810 0.054978 0.966402 -0.026017 -0.293424 -1.003698
-0.760846 -0.121378 0.339010 0.993831 0.278550 -0.032424
0.568101 -0.298814 -0.471784 -0.194461 0.968050 0.278247
0.454189 -0.153603 0.895542 0.056360 0.439806 -0.943687
-0.447654 -0.317064 0.371687 -0.031402 1.027925 0.048789
0.078776 -0.128252 0.114646 0.061462 0.367632 0.959673
0.306962 -0.265555 -0.728758 -0.166175 0.912962 0.460255
-0.416881 -0.257882 0.594872 0.228824 0.858678 -0.518675
-0.254569 -0.216593 0.204250 0.030131 0.837189 0.604732
-0.713019 0.163383 -0.514517 -0.119608 -0.343715 -0.975658
0.062449 0.019616 0.857725 0.344455 0.080544 -0.974806
-0.694459 0.118838 0.560025 0.819972 -0.116651 -0.621544
0.435009 -0.226471 0.868247 0.287867 0.745425 -0.657528
0.566366 0.219363 0.884958 0.046370 -0.789810 -0.681602
-0.298994 0.120986 -0.904958 0.057182 -0.110713 1.018815
0.438320 0.014541 -0.196497 1.027569 0.157407 0.109884
0.807186 -0.166338 0.594493 -0.073910 0.289839 0.993608
-0.456614 -0.063495 0.112472 0.128882 0.056467 1.016773
0.377969 0.069330 -0.101691 0.789195 -0.019723 0.666493
-0.723221 0.120958 -0.503275 -0.146590 -0.362377 -0.975732
-0.142371 0.245198 0.695698 0.239057 -0.847159 -0.548455
0.352638 0.097256 0.915230 0.440284 -0.131553 -0.941585
0.267253 0.216942 -0.586365 0.044551 -0.741629 -0.739088
0.797004 0.133450 0.548891 -0.038729 -0.251696 1.009058
-0.214872 -0.281553 0.369310 -0.161989 0.902622 -0.480560
-0.340326 -0.081597 0.761080 0.357134 0.314381 -0.916128
-0.878516 -0.259272 -0.740512 0.388627 0.954803 0.062782
0.008077 -0.258642 0.730259 0.218369 0.816995 -0.591851
0.078291 0.246547 -0.829294 -0.049078 -0.923710 0.462541
-0.522582 0.197983 0.631722 0.389882 -0.628390 -0.722070
-0.036291 0.228836 0.334390 -0.236733 -0.860091 -0.531450
-0.268650 0.066488 -0.918367 0.051578 -0.187674 1.009878
0.893348 0.258500 0.665923 -0.063613 -0.683583 0.766813
-0.352891 -0.289092 0.370760 -0.332163 0.980846 -0.032426
0.952440 0.131281 0.967546 -0.015730 -0.319871 -0.991010
0.130451 0.278314 0.655668 0.053264 -1.034458 -0.080952
0.737717 0.111302 -0.257399 -0.985348 -0.303686 0.102455
0.514383 0.140023 -0.751745 -0.399927 -0.346299 0.886037
0.051026 -0.086577 -0.925675 -0.108315 0.410926 0.935317
0.230462 -0.185256 0.507403 -0.008283 0.416633 0.938418
-0.792308 -0.255280 -0.626723 0.142276 0.722661 -0.727246
1.092566 0.169559 0.937157 -0.366142 -0.762509 -0.575809
-0.510188 0.177511 -0.582689 -0.636287 -0.317582 -0.769517
-0.856349 -0.124698 -0.847992 0.163746 0.163023 1.002542
-0.248434 -0.165917 -0.624119 0.082628 0.238129 -1.009517
-0.522853 -0.032952 -0.529130 -0.582473 0.092128 -0.871647
0.641818 -0.062953 -0.023867 -0.845673 0.209265 -0.570192
0.344614 -0.271204 0.579584 0.005108 0.782907 0.662461
0.311694 0.306244 -0.666361 0.164398 -0.979328 -0.300185
0.658983 0.260843 -0.384814 -0.811015 -0.642009 0.062854
1.035677 -0.219118 0.912462 0.075224 0.704340 -0.772908
-0.835144 -0.049065 -0.875479 0.196710 0.145507 1.001498
0.655124 0.236595 0.587972 -0.070079 -0.693552 0.757533
0.391189 0.109950 -0.458644 0.324810 -0.401392 -0.912395
0.344298 0.191413 0.177145 -0.358129 -0.875597 -0.425891
-0.380754 0.131456 -0.614661 0.013593 -0.220468 -1.021836
0.169125 -0.182681 0.502438 -0.004683 0.398235 0.948799
0.229792 0.286799 -0.639142 0.122676 -0.983030 -0.307874
0.296697 -0.291407 0.725212 0.165781 0.968921 -0.314911
0.520436 -0.223097 0.535440 0.005598 0.324317 0.982250
0.007927 -0.242014 0.327424 -0.222814 0.897509 -0.465093
-0.261005 -0.265943 -0.794010 -0.013233 0.867045 0.566101
0.088504 0.198963 0.794838 0.141832 -0.728421 -0.719536
-0.697320 0.276594 -0.772905 0.029377 -0.889148 0.534125
0.922906 -0.258390 0.838184 0.036075 0.945669 -0.409111
-0.129521 0.238206 0.241167 0.036904 -0.818307 0.637129
-0.284059 0.032161 -0.604800 -0.017277 -0.069618 -1.040806
0.584298 0.261542 -0.183737 -0.450401 -0.851421 -0.368797
-0.533511 -0.281425 -0.770560 -0.021185 0.879378 0.542767
0.023253 -0.272554 -0.795255 -0.084006 0.944810 0.405972
0.988917 0.252287 0.645875 -0.059852 -0.601343 0.820955
-0.169862 0.090724 -0.918029 0.039378 -0.219732 1.004595
0.555513 0.219496 0.879564 0.038684 -0.795718 -0.666077
-0.597783 -0.215459 -0.543384 -0.547909 0.282219 -0.843337
0.340931 0.119619 0.914597 0.434190 -0.119989 -0.937536
0.046720 0.230518 -0.853782 -0.136777 -0.734341 0.715952
0.359022 -0.195865 0.176837 -0.499632 0.481889 -0.766776
-0.561701 0.120567 -0.886022 0.022584 -0.474710 0.912212
-0.685776 -0.127060 0.532208 0.708088 0.543536 -0.510399
-0.027034 0.030515 0.840857 0.352206 0.070242 -0.970502
-0.441268 -0.166897 0.690408 0.515104 0.613319 -0.651661
0.744215 -0.065052 -0.486865 -1.020568 -0.152460 0.146451
0.186290 -0.032402 -0.924254 -0.312289 0.148047 0.970961
0.584881 0.289590 0.691506 -0.024297 -0.979157 0.343571
-0.759943 0.138819 -0.545240 0.093535 -0.689798 -0.773866
0.685828 -0.239229 0.575006 0.018210 0.784391 0.665075
-0.368333 -0.274521 0.559865 -0.414293 0.950161 -0.000403
0.973650 -0.215638 0.918694 0.018591 0.438792 -0.941100
-0.658363 0.086620 0.117867 0.430994 -0.119451 0.916109
-0.077067 0.095912 0.825825 0.161865 -0.515115 -0.881091
0.339649 -0.104548 0.488086 -0.043247 0.241486 1.002132
-0.835227 0.064312 -0.872337 0.130084 0.122324 1.022077
0.128129 -0.290103 -0.703888 0.088397 0.955904 -0.382715
-0.360739 0.292810 0.426326 -0.372599 -0.971823 -0.081006
-0.847989 -0.235330 -0.626763 0.248745 0.700029 -0.716102
0.365773 0.137216 0.892409 0.190433 -0.266776 -0.988604
-0.792413 -0.199486 -0.571962 0.121513 0.726626 -0.732426
-0.941085 -0.214313 -0.697410 0.477343 0.891586 -0.213861
0.374204 0.019252 -0.105801 0.874645 -0.168695 0.534749
-0.367654 0.277873 0.482286 -0.530215 -0.900817 0.007685
0.608112 0.274235 -0.205875 -0.435637 -0.858572 -0.373286
-0.641276 0.051806 -0.493850 -0.367210 -0.220628 -0.951087
-0.091895 -0.226005 -0.864257 -0.048640 0.809072 0.648514
-0.327401 -0.139867 0.748900 0.246058 0.433324 -0.903852
0.643617 0.182961 -0.625784 -0.660618 -0.409819 0.674468
-0.380051 0.183839 0.709444 0.263795 -0.568471 -0.825347
-0.909045 0.251796 -0.718771 0.376144 -0.969065 0.005951
-0.084211 -0.229536 0.176250 0.072170 0.473602 0.909370
-0.343903 -0.007873 0.117611 0.118093 -0.260439 0.980809
0.225551 0.129583 -0.883212 -0.381108 -0.249742 0.925802
0.520660 0.243212 0.866147 0.063734 -0.767593 -0.698760
1.163214 -0.028384 0.926786 -0.687715 -0.013633 -0.767266
-0.427447 -0.272311 -0.740919 -0.016797 1.008021 0.233010
-0.204270 -0.229486 0.211781 0.033888 0.836996 0.608029
-0.760576 -0.107988 0.362900 1.004326 0.248382 -0.023692
-0.865822 0.140657 -0.847787 0.287448 -0.421890 0.885095
-0.499181 -0.072582 0.115882 0.134136 0.046471 1.014339
0.733186 0.043586 -0.543027 -1.015227 -0.134182 0.161267
0.683172 -0.206716 -0.222144 -0.811175 0.626750 -0.129061
0.737939 -0.031512 -0.168125 -0.989557 0.114376 -0.272577
0.211631 0.082276 -0.907466 -0.378407 -0.239707 0.930089
0.404029 -0.227255 0.025346 0.487703 0.742158 0.535179
0.433087 0.219158 0.577185 -0.088646 -0.694246 0.759966
0.131073 -0.107654 -0.571991 0.317679 0.108836 -0.981011
-0.369211 0.267265 -0.659399 -0.025495 -0.766890 -0.683599
0.892303 -0.239455 0.890157 0.085498 0.689288 -0.763126
-0.993693 -0.005484 -0.619938 0.656755 -0.031827 -0.810722
0.517443 -0.312055 0.769120 0.110240 0.789083 -0.658703
-0.027426 0.167122 0.162778 0.059982 -0.444282 0.932670
0.303893 0.069871 -0.475978 0.614571 0.040582 -0.851828
-0.548638 0.296791 0.344727 -0.019021 -1.031090 -0.017980
1.141945 0.157034 0.822178 -0.846555 -0.580223 0.047546
0.605296 -0.043201 -0.731232 -0.505064 -0.006982 0.899763
-0.003692 -0.243024 0.342288 -0.197728 0.907883 -0.473787
-0.119558 0.264691 0.563822 -0.074595 -1.037079 0.049999
-0.880720 -0.131118 -0.846985 0.177564 0.142197 1.014096
0.944939 0.282153 0.735873 -0.032903 -0.982817 0.324554
0.484348 -0.258726 -0.428193 0.630251 0.776883 -0.273425
0.292372 0.117929 0.245624 -0.449839 -0.348362 -0.868915
0.998050 0.143942 0.930807 0.075205 -0.549812 -0.887694
-0.170912 0.139999 -0.899663 0.043321 -0.349243 0.961406
0.668215 0.104728 -0.066502 -0.844255 -0.331993 -0.494604
0.139290 -0.047860 0.875989 0.349542 0.060469 -0.973815
-0.666200 0.090781 0.140509 0.442838 -0.123104 0.918238
-0.695251 0.153652 -0.859620 0.068128 -0.402255 0.935207
-0.298717 0.014975 -0.928101 -0.014817 0.222240 1.004527
0.600532 0.026225 0.960001 0.052754 0.017957 -1.047155
-0.171109 -0.256602 0.237157 0.030215 0.844559 0.585587
0.580167 -0.161420 0.909310 0.069824 0.780553 -0.701192
0.642702 -0.242195 0.843814 0.071404 0.842124 -0.613271
0.624438 -0.271633 -0.231425 -0.522606 0.833591 -0.307201
0.528423 -0.299274 -0.528891 0.389826 0.951040 -0.091084
-0.222748 -0.151744 -0.897327 -0.033197 0.793792 0.669941
-0.943638 0.095267 -0.602324 1.000287 -0.161540 -0.248485
0.823797 0.230110 0.904076 0.036356 -0.799945 -0.673469
-0.310338 -0.178097 -0.880414 -0.028689 0.792574 0.663410
-0.613227 0.285235 -0.618672 -0.362357 -0.692282 -0.690307
-0.788655 -0.236841 -0.606350 0.214549 0.744810 -0.683647
0.716604 0.273317 0.854097 0.007658 -0.848115 -0.631414
-0.319397 0.290672 -0.705359 -0.005528 -0.719418 -0.738180
0.751589 -0.012997 -0.204521 -1.007394 0.120939 -0.201599
-0.448186 -0.200036 -0.854302 0.078137 0.499135 0.897760
0.343706 0.290452 0.742746 0.136813 -0.998209 -0.267500
0.134726 -0.295946 -0.703555 0.080210 0.958725 -0.372336
0.739380 -0.116474 -0.243630 -0.980714 0.327862 0.065623
1.035419 -0.242688 0.863406 -0.313199 0.849510 -0.477414
-0.748873 0.259164 -0.587448 0.089652 -0.693924 -0.770015
0.409907 0.237601 0.096934 -0.378044 -0.871125 -0.406765
-0.093367 -0.220906 0.721548 0.230302 0.826337 -0.581078
0.056335 -0.086470 -0.934989 -0.112883 0.403867 0.938351
-0.255019 0.276255 0.398306 -0.063834 -1.033771 0.062710
-0.998359 -0.142186 -0.712336 0.885157 0.268161 -0.489340
-0.817421 -0.076862 -0.885804 0.123114 0.047319 1.025229
-0.433710 -0.133421 0.713613 0.298961 0.349489 -0.923251
0.328628 0.002101 0.928675 0.426833 -0.114589 -0.937540
0.694308 0.199238 -0.466622 -0.924064 -0.445726 0.122455
-0.196945 -0.282503 -0.696780 0.035023 0.809725 -0.642622
-0.226313 0.080021 0.121736 0.104424 -0.316310 0.967737
-0.809735 0.289999 -0.680318 0.406129 -0.951847 -0.028666
0.870839 0.265329 0.847989 0.038470 -0.787714 -0.685791
0.352272 0.217106 0.139662 -0.291047 -0.874473 -0.472325
-0.537376 0.026041 -0.507205 -0.545845 0.105617 -0.876597
-0.819384 -0.061496 -0.511833 0.145778 -0.027516 -1.024242
0.261220 0.143405 0.249945 -0.445788 -0.359201 -0.861995
0.422503 -0.045586 -0.325562 0.887502 0.051286 -0.541130
0.241726 -0.228357 0.167401 -0.008192 0.861900 0.576741
-0.281844 0.002861 -0.598796 0.060855 0.156582 -1.015713
-0.922980 0.234576 -0.684674 0.651421 -0.557049 -0.579332
-0.591206 -0.231117 -0.589027 0.006859 0.817170 -0.630344
-0.001164 0.132663 -0.604919 0.141406 -0.330834 -0.976513
-0.899585 0.026071 -0.540801 0.608129 -0.153023 -0.828646
-0.776000 -0.278789 -0.783952 -0.045875 0.879316 0.543286
-0.114512 -0.211892 -0.856435 -0.043571 0.827480 0.625031
0.344724 -0.293449 0.641970 -0.032605 0.950773 0.383697
0.813160 -0.081688 0.968349 0.027767 0.432339 -0.961614
1.095928 -0.188460 0.756796 -0.588452 0.851101 0.068232
-0.509328 0.009991 -0.516362 -0.536978 -0.334240 -0.829395
0.491521 -0.240986 0.027701 -0.420994 0.864071 -0.376378
0.601281 -0.129335 -0.716023 -0.551673 0.260611 0.831366
0.697060 0.010532 0.962341 0.065812 0.010465 -1.045014
-0.922167 -0.150368 -0.602122 0.498766 0.757705 -0.516185
-0.461043 0.239000 0.221953 -0.047447 -0.881718 0.521456
0.866428 0.220711 0.611277 -0.058114 -0.671779 0.774264
0.834038 0.060648 0.958645 0.069712 0.006866 -1.044857
0.479914 0.300538 -0.548454 -0.157872 -1.009412 0.118914
1.035133 0.260384 0.844563 -0.296431 -0.926565 -0.373359
0.309466 0.194138 0.866662 0.199930 -0.592939 -0.828879
-0.051894 0.288200 -0.807008 -0.036051 -0.967573 0.374842
0.325261 0.052727 0.492394 -0.060559 -0.167079 1.014620
0.236420 0.001898 -0.515434 0.540183 -0.049210 -0.888319
-0.064363 0.090432 -0.936681 0.039747 -0.225805 1.008170
-0.450030 -0.208985 -0.855907 0.076169 0.499137 0.901509
-0.005175 -0.224695 0.746506 0.210543 0.806807 -0.599555
-0.445232 0.302684 0.319391 -0.034720 -0.892479 0.520922
-1.009890 -0.175623 -0.756454 0.889436 0.272392 -0.474274
0.231942 0.027463 0.285482 -0.471606 -0.020894 -0.913841
0.424811 -0.115069 0.515346 -0.005429 0.290551 0.997214
-0.210943 -0.281561 -0.779061 -0.044540 0.963735 0.363691
0.319761 0.261452 0.798519 0.133900 -0.735896 -0.723111
-0.226660 -0.268978 0.680064 -0.284579 0.881963 0.450003
1.000584 0.060125 0.976101 -0.010883 -0.271964 -1.014003
-0.848687 0.013081 -0.885578 0.163063 -0.148872 1.003598
0.318199 -0.159277 -0.825364 -0.322181 0.485144 0.856132
1.139893 0.012977 0.968863 -0.704127 -0.008272 -0.755719
-0.901250 -0.153769 -0.580729 0.661346 0.477752 -0.636654
-0.411986 0.260404 -0.787900 -0.040145 -0.971965 0.354470
-0.042087 -0.042542 0.828535 0.370607 0.054268 -0.969574
-0.758073 0.049713 0.487573 0.927221 -0.325424 -0.324042
-0.727102 -0.047556 0.134987 0.793619 0.298673 0.588145
0.697580 0.154132 -0.536065 -0.955207 -0.386350 0.152948
0.024198 -0.139683 0.122630 0.086129 0.248667 0.994400
-0.050594 0.237095 -0.853579 -0.097228 -0.715976 0.734527
1.008161 -0.029971 0.968736 0.048898 0.014939 -1.042999
-0.239905 0.277950 0.573255 -0.074735 -1.038578 0.032705
-0.631680 -0.121742 0.586317 0.709852 0.378938 -0.645491
-0.186773 -0.104780 0.787538 0.283947 0.420227 -0.902682
0.058175 0.297916 -0.775814 -0.068008 -0.960181 0.383187
-0.887514 -0.052138 -0.864291 0.150761 0.098414 1.023416
0.687263 -0.199884 -0.495179 -0.752033 0.685460 0.184950
-0.255869 -0.229059 0.637846 -0.490730 0.913299 0.065202
0.525381 -0.204377 0.527024 0.021219 0.788613 0.670431
0.382705 -0.195223 0.149724 -0.474104 0.488785 -0.772967
-0.559243 -0.279920 0.495796 0.353818 0.872364 -0.424906
0.961084 -0.071998 0.943849 -0.001035 0.437317 -0.935458
0.565317 0.079424 0.944832 0.049434 -0.014302 -1.047422
0.341081 0.226192 -0.526546 0.358863 -0.688586 -0.680913
0.733555 0.077309 -0.510141 -0.963428 -0.334444 0.178644
-0.036045 -0.246499 -0.833179 -0.039352 0.794733 0.660702
-0.760652 0.007708 0.206631 1.005305 -0.012401 0.242569
0.862406 -0.001937 0.963585 0.080607 -0.021888 -1.038032
1.072968 -0.081428 0.579885 -0.587112 0.159767 0.815206
-0.765615 -0.008003 0.196074 1.007966 -0.017940 0.224646
0.723395 0.220511 0.589070 -0.065540 -0.698031 0.752441
0.545215 0.114130 0.075341 -0.703797 -0.208790 -0.731820
-0.028648 -0.003088 0.827846 0.332104 0.059461 -0.974192
-0.854481 0.010353 -0.519723 0.402572 -0.159048 -0.933734
-0.845421 0.098003 -0.876128 0.116473 0.039306 1.021256
0.656516 -0.277045 0.643897 0.024770 0.780292 0.672266
0.885710 -0.279041 0.859032 0.056894 0.791552 -0.659231
-0.194706 -0.158605 -0.616445 0.088309 0.240975 -1.007578
-0.618175 -0.205567 -0.586007 0.018109 0.628368 -0.830162
0.364918 0.020723 -0.067465 0.744871 -0.015400 0.719055
-0.632764 0.279620 0.376620 0.348248 -0.973725 0.001190
-0.679114 0.076991 0.145270 0.459042 -0.112470 0.908399
0.163342 0.177861 -0.576446 0.381741 -0.446941 -0.852191
0.360656 0.219371 -0.486671 0.662447 -0.301589 -0.735578
-0.710274 0.281535 -0.745323 -0.012448 -0.958128 0.434681
0.493544 -0.246122 0.576912 0.017994 0.792228 0.670688
0.948240 -0.122426 0.582970 -0.098518 0.248701 0.989994
-0.375919 0.022455 -0.607606 -0.006892 -0.068766 -1.040164
-0.377382 -0.043667 0.749706 0.364053 0.333219 -0.913218
-0.367684 0.254487 -0.818876 -0.034882 -0.965975 0.357696
-0.386379 0.235654 -0.659331 0.001140 -0.691523 -0.776508
0.223638 -0.138104 0.301757 -0.425017 -0.011071 -0.944816
0.177702 0.164166 0.279143 -0.484000 -0.402956 -0.818134
0.821733 0.204728 0.912192 0.046290 -0.521673 -0.897433
-0.801068 0.245388 -0.826991 0.255647 -0.459113 0.882071
0.739816 0.073137 -0.403537 -0.951536 -0.384905 0.142414
-0.051927 0.252496 0.278021 -0.061526 -1.030661 0.126660
-0.426871 -0.179636 -0.610089 -0.151769 0.289185 -0.989029
-0.753796 0.178746 0.329754 1.030084 -0.133164 -0.005322
0.402385 -0.112696 0.914954 0.058266 0.432533 -0.948648
0.497714 -0.226540 0.843506 0.053805 0.785250 -0.682170
0.308339 0.274589 0.785837 0.303483 -0.863379 -0.497965
-0.763032 0.042772 -0.894903 0.123768 0.018727 1.023127
-0.072263 0.090572 -0.598114 0.133410 -0.320272 -0.987893
0.701021 0.015213 0.959334 0.065107 -0.054797 -1.048559
-0.536046 0.256893 -0.778235 0.006303 -0.933277 0.457881
0.250726 0.298028 0.700445 0.037626 -1.036564 -0.061975
1.037940 -0.260924 0.783707 -0.578565 0.840550 0.077586
1.137856 0.151287 0.790309 -0.869568 -0.593542 0.036747
0.078800 0.029829 0.372806 -0.521599 -0.091902 -0.896612
-0.680651 -0.104435 -0.496445 -0.259921 0.328727 -0.948792
-0.875871 0.196340 -0.830134 0.263609 -0.484121 0.867934
0.471488 0.289207 0.783128 0.091783 -1.019668 -0.193870
-0.381668 -0.195428 0.704785 0.496195 0.609043 -0.664528
1.173470 -0.043405 0.811783 -1.025026 0.088006 0.075286
-0.671249 0.236128 0.414768 0.508855 -0.821856 -0.370350
0.755168 -0.153230 0.552976 -0.076258 0.283806 0.991885
0.697456 -0.152123 -0.597167 -0.746530 0.704020 0.166054
