ply
format ascii 1.0
element vertex 512
property float x
property float y
property float z
property float nx
property float ny
property float nz
end_header
0.039588 0.176361 -0.710937 0.059084 -0.707300 -0.780499
0.520476 -0.046611 0.803213 0.060128 0.082502 1.052807
0.628170 0.227877 0.908402 -0.091713 -0.890230 0.538032
-0.218562 -0.228425 0.065741 0.609749 0.602050 -0.616145
-0.362821 0.192757 -0.709432 0.101011 -0.444655 -0.944531
-0.489194 0.049403 -0.122022 0.727485 -0.105615 -0.737216
-0.897732 -0.235759 -0.745769 0.345858 0.898855 -0.446652
0.337265 0.008420 1.019044 -0.011851 -0.050733 -1.051855
1.030919 0.111487 0.894128 -0.841029 -0.627950 -0.016915
0.457071 0.186943 0.585732 0.448828 -0.858389 -0.417855
0.044989 0.252213 -0.769996 -0.062523 -1.036160 0.228644
0.308082 0.101689 -0.667302 0.114760 -0.141717 -1.042240
0.504170 -0.193490 0.628147 0.489212 0.741299 -0.557549
0.660688 0.080930 -0.607459 -0.181232 -0.398003 -0.967792
0.573287 -0.203100 0.905994 -0.009856 0.679156 0.823871
0.483914 -0.121047 1.017910 0.011634 0.479711 -0.935442
0.499673 -0.055146 1.027702 0.014243 0.027706 -1.061059
0.546635 -0.157877 0.379236 -0.615622 0.601952 0.604591
-0.122392 0.112626 0.990446 0.287226 0.026499 -0.994829
0.161787 0.094283 0.788089 -0.507953 -0.308650 0.863986
-0.498278 -0.020517 -0.141326 0.802659 -0.121199 -0.660639
0.080739 0.245235 -0.791226 -0.044737 -1.032867 0.241959
-0.102078 0.244302 -0.800928 -0.068657 -1.026113 0.246300
0.432699 -0.212013 -0.803156 -0.093341 0.869593 0.613180
0.299457 -0.172170 -0.859390 -0.038170 0.221090 1.022860
-0.298116 0.101707 -0.907284 -0.017771 -0.431204 0.971413
-0.456369 0.192362 -0.717358 0.048397 -0.786780 -0.701333
0.743784 0.219911 0.934878 0.031174 -1.062161 -0.055336
-0.396816 -0.197663 -0.263601 -0.444365 0.892579 0.388765
1.026430 0.068177 0.799917 -0.998926 -0.330646 0.060514
-0.113230 -0.062379 0.981417 0.379747 0.305145 -0.914179
0.518202 0.178696 0.970338 0.007076 -0.638009 -0.825978
-0.201150 -0.190673 -0.708869 0.011343 0.495435 -0.917155
0.802414 -0.114101 1.009172 0.059109 0.558523 -0.895644
0.346049 0.072151 -0.891333 -0.081591 -0.165553 1.035395
0.273471 0.114739 1.018963 0.001897 -0.382566 -0.979016
-0.114488 0.107020 -0.687788 0.019584 -0.099415 -1.038879
-0.724121 0.154944 -0.533441 0.570894 -0.502574 -0.708261
-0.932521 0.028880 -0.674523 0.697017 -0.094154 -0.774269
-0.052746 0.155644 0.053227 -0.715749 -0.514167 0.578468
-0.037861 -0.014292 -0.676433 0.002281 0.188089 -1.039508
-0.315933 -0.120326 0.853017 0.491168 0.272228 -0.876598
-0.093217 0.079548 -0.039230 -0.650687 -0.116190 0.825757
-0.572006 -0.218677 -0.433646 -0.476510 0.956736 0.072314
-0.622461 0.276832 -0.715327 -0.287652 -0.880693 -0.507540
-0.436275 0.143636 0.658118 0.024177 -0.780259 0.705532
0.037245 -0.230221 -0.841593 -0.077342 0.867677 0.618645
-0.278439 0.198656 -0.121284 -0.416807 -0.854824 0.459792
0.185225 -0.215543 -0.726810 0.129323 0.573863 -0.874707
-0.064941 -0.122004 0.966295 0.342909 0.290292 -0.941788
-0.300247 0.058792 -0.908727 -0.026023 -0.165505 1.047945
0.120542 0.205267 0.905397 -0.018728 -0.981536 -0.392889
-0.086043 0.002835 -0.029538 -0.812333 -0.005350 0.667235
0.016431 0.221453 0.241755 -0.076891 -1.043524 0.166450
-0.907072 -0.223711 -0.823137 0.624341 0.875123 -0.051580
0.285140 0.114835 -0.872358 -0.078070 -0.087480 1.053384
0.448960 -0.231982 0.473045 0.134832 1.046147 -0.117102
-0.241739 0.145574 0.104748 0.653950 -0.388857 -0.709810
-0.132454 0.052615 -0.915235 -0.038787 -0.193447 1.053048
-0.276846 -0.125257 -0.885498 -0.016735 0.218104 1.040614
0.096677 0.031773 0.783708 -0.384259 0.029923 0.982201
-0.463145 0.232039 -0.657089 -0.407140 -0.946954 -0.270168
-0.070359 -0.206143 0.090039 -0.289914 0.937609 0.405555
0.639215 -0.094412 -0.618891 -0.087463 0.274928 -1.009577
-0.162047 0.205413 0.757048 -0.138259 -0.775333 0.683843
0.519068 -0.246908 0.533255 -0.040169 1.068470 0.058278
-1.002892 0.061363 -0.722025 1.011832 -0.281364 -0.170584
-0.183148 0.010195 -0.915898 -0.015830 -0.142780 1.052654
-0.451802 0.095549 -0.103996 0.752083 -0.342465 -0.651707
0.788963 -0.074607 0.523458 -0.670687 0.156214 0.788234
0.857986 -0.221908 0.700194 -0.475153 0.685330 0.649584
0.372892 -0.176061 -0.852509 -0.067463 0.300924 1.007100
-0.393660 0.210264 -0.218826 -0.448499 -0.880826 0.383679
-0.511369 -0.175787 -0.890357 -0.017592 0.737956 0.807250
1.048726 -0.036863 0.908609 -0.927326 -0.090217 -0.462406
0.727027 -0.128151 -0.689614 -0.705100 0.549864 0.576777
0.428655 -0.106331 0.845250 0.058517 0.076579 1.058197
0.245149 0.232192 -0.794687 0.003519 -0.957061 0.446220
-0.821949 0.055031 -0.504354 0.738254 -0.170153 -0.709692
-0.412898 0.132699 -0.882880 -0.024091 -0.293086 1.015892
0.058422 -0.226229 -0.832717 -0.078646 0.861593 0.620853
0.319362 0.182542 0.454779 0.411544 -0.868154 -0.427234
0.461371 -0.025997 -0.861982 -0.135819 0.117468 1.042186
0.926721 0.095972 1.040545 -0.023599 -0.424609 -0.931934
-0.750056 0.121955 -0.882414 0.028989 -0.517229 0.920311
0.419310 -0.094355 1.010237 0.420239 0.043864 -0.944019
-0.795157 0.223510 -0.678469 0.614262 -0.698283 -0.483860
-0.799403 -0.204674 -0.834344 0.023690 0.583854 0.880902
-0.496018 -0.009706 -0.123357 0.723306 -0.113177 -0.744235
-0.855017 -0.236024 -0.793634 0.000921 0.567069 0.889923
0.448674 -0.140855 1.010488 0.029373 0.522607 -0.913194
0.000454 -0.147890 -0.704202 0.001852 0.513909 -0.930337
-0.498378 -0.109503 -0.130220 0.753192 0.302353 -0.658657
0.905604 0.056092 0.603698 -0.764969 -0.247770 0.681611
0.071792 0.145960 0.380452 0.704824 -0.301712 -0.708897
0.873898 -0.046402 1.008603 0.005429 0.150869 -1.041336
0.426814 0.110375 0.841964 0.011247 -0.256183 1.024460
-0.498920 0.199501 -0.214168 0.399752 -0.824856 -0.506224
0.593739 0.096090 1.025479 0.007878 -0.362182 -0.995875
-0.573068 0.129964 -0.387309 0.904358 -0.244281 -0.495979
0.353769 -0.204367 -0.826067 -0.074120 0.883095 0.588635
-0.048822 -0.262817 -0.789712 -0.046097 1.070184 0.016407
-0.929968 0.209441 -0.756553 0.589686 -0.738678 -0.455912
-0.147908 -0.081998 -0.913169 -0.019419 0.224879 1.031527
-0.053361 0.182716 -0.711312 -0.002167 -0.779140 -0.719281
0.250677 0.227491 -0.776769 -0.173995 -1.021837 -0.222401
0.135219 0.243696 -0.786641 -0.062440 -1.033043 0.242395
0.613150 -0.012995 1.040307 0.020188 0.070852 -1.055691
-0.198919 -0.044737 -0.676701 -0.001794 0.153083 -1.041764
-0.498363 -0.082679 -0.899683 -0.027239 0.184646 1.035664
0.362943 -0.241095 -0.791030 -0.113990 1.036517 0.235954
0.660151 0.222412 0.706704 0.118592 -1.046193 -0.097578
-0.378828 -0.209903 0.738486 0.416716 0.965395 0.032212
0.318972 -0.034053 -0.649789 0.357546 -0.087963 -0.988935
-0.931660 0.107724 -0.673395 0.299711 -0.280237 -0.952805
-0.594786 0.087684 -0.219679 0.678012 -0.136125 -0.777130
-0.091800 0.232722 0.898804 0.490940 -0.574907 -0.713613
1.054132 -0.004902 0.776190 -0.993557 -0.365233 0.052733
-0.539916 0.030368 -0.898486 -0.039216 -0.187223 1.044734
-0.114443 0.062079 0.686678 -0.434427 0.032515 0.957598
-0.379807 0.024762 0.818284 0.794023 -0.092890 -0.657702
-0.394354 -0.171194 0.753832 0.630799 0.517806 -0.647519
0.118229 -0.091350 -0.652921 0.172140 0.194542 -1.019094
-0.058051 0.077361 -0.911351 -0.041068 -0.424024 0.961090
-0.849513 0.220362 -0.694140 0.570504 -0.790065 -0.413758
-0.439924 -0.145683 -0.086728 0.603408 0.566751 -0.642507
-0.547313 -0.179669 -0.414546 0.779437 0.606882 -0.388621
-0.217164 -0.044678 0.161455 0.631099 0.227337 -0.795569
-0.392050 -0.226983 -0.174301 -0.423262 0.928516 0.311795
-1.011311 0.055718 -0.806219 1.013609 -0.259916 -0.168019
0.800990 -0.049150 0.522674 -0.676466 0.171426 0.792579
1.061827 -0.060203 0.873007 -0.976562 0.344079 0.150654
-0.496932 -0.066820 0.679676 0.925012 0.079356 -0.474988
-0.746393 0.014631 -0.588875 0.523760 -0.042339 -0.918145
0.468370 0.004507 0.659257 0.798632 0.143180 -0.661920
0.995343 -0.075304 0.984527 0.014480 0.484810 -0.905067
0.091566 -0.239288 -0.814147 -0.074404 0.860609 0.626287
-0.556021 -0.198978 -0.838812 -0.051897 0.738033 0.763398
-0.363363 0.187811 -0.235709 -0.445856 -0.891102 0.362496
0.033123 0.115437 0.339086 0.701783 -0.300035 -0.703550
0.090445 0.032281 -0.912084 -0.084339 -0.158814 1.041290
-0.284946 0.068411 0.079658 0.741422 -0.300930 -0.666429
0.912147 -0.020968 0.599187 -0.561316 0.021997 0.884858
0.053876 -0.258408 -0.814454 -0.055108 1.066590 0.018551
-0.026902 0.090142 0.042583 -0.733313 -0.525599 0.548668
-0.156560 -0.251177 0.826792 -0.006940 0.927769 0.516941
0.463589 0.010045 -0.620326 0.339642 -0.112492 -0.987239
-0.052807 -0.006545 -0.005808 -0.825833 0.019329 0.654150
-0.472442 0.255844 -0.764457 0.037887 -1.048598 -0.142092
-0.528780 -0.214600 -0.378885 0.786045 0.604947 -0.373694
-0.930990 0.181223 -0.833245 0.788288 -0.671322 -0.098443
-0.311047 -0.259676 -0.769697 -0.028551 1.064069 -0.066924
-0.371647 -0.213926 -0.186920 -0.437118 0.899774 0.377665
0.215166 -0.000050 0.252823 -0.803968 0.116348 0.669310
-0.000311 0.168582 0.123894 -0.675940 -0.517745 0.608944
-0.680633 -0.263104 -0.743323 0.018560 1.062868 -0.094614
0.655574 0.072435 0.410305 -0.616887 -0.567867 0.645882
-0.663895 0.192240 -0.842212 0.005267 -0.656761 0.834297
0.566808 0.174006 0.666241 0.328677 -0.959818 -0.278375
0.778749 0.038706 -0.654359 -1.050151 0.011187 -0.200548
0.126414 -0.263304 -0.752080 0.059784 1.031183 -0.237486
-0.448741 -0.221209 -0.265228 -0.437734 0.906961 0.388843
0.205830 0.084965 -0.682343 0.331789 -0.118433 -0.993364
-0.126131 0.132902 0.687372 -0.386520 -0.431315 0.881814
-0.941177 -0.111338 -0.876185 -0.001519 0.493453 0.939466
0.374117 -0.192999 0.480537 0.129395 0.918849 -0.496462
-0.367751 0.184062 0.757026 0.630223 -0.574579 -0.600860
0.397883 0.071828 -0.667728 0.265057 -0.147420 -1.009626
-0.352040 0.077065 -0.316996 -0.729097 -0.224788 0.721770
0.371512 -0.214005 0.893311 -0.007158 0.679116 0.820695
0.455191 -0.202230 0.871612 -0.032969 0.709022 0.788438
-0.581967 0.182537 -0.841567 0.036728 -0.619575 0.861914
-0.458808 -0.219256 -0.217056 -0.404904 0.964737 0.230242
0.975677 -0.051572 0.654723 -0.919832 0.026292 0.498108
1.022753 -0.068526 0.781591 -1.013857 0.217977 0.180675
0.911126 0.194142 0.914851 -0.560267 -0.866012 -0.179405
-0.012408 0.145188 0.307087 0.700324 -0.309385 -0.707464
-0.503616 0.034374 -0.907099 -0.028339 -0.353404 1.004061
0.064057 -0.224367 -0.841111 -0.051372 0.647974 0.839226
0.387694 0.139142 0.337680 -0.614573 -0.311903 0.792688
0.732374 0.057229 1.010754 -0.007325 -0.080103 -1.060233
0.441141 0.221736 -0.698661 0.075851 -0.717968 -0.773013
0.475475 -0.230102 0.538127 0.144657 1.042628 -0.113607
-0.894131 0.120401 -0.858519 0.028435 -0.473337 0.938187
-0.140599 -0.245107 0.845525 -0.094735 0.924033 0.518061
0.437192 -0.232597 0.510039 -0.078241 1.047238 0.105988
-0.414309 0.143808 -0.696361 0.109594 -0.450915 -0.943796
-0.423919 -0.195601 0.695274 0.078395 0.926084 0.498053
-0.531027 -0.161778 -0.859212 -0.017660 0.670687 0.829512
0.660528 -0.183644 -0.657542 -0.239998 0.813430 -0.638931
0.417494 0.068306 -0.644572 0.341442 -0.107642 -0.989000
0.032018 0.023406 0.733849 -0.516636 0.031204 0.920273
-0.756305 -0.082536 -0.887114 0.002281 0.122553 1.053995
-0.933403 0.031249 -0.611078 0.980061 -0.013982 -0.352644
-0.257930 0.253503 -0.808927 0.013391 -0.902971 0.548928
1.057839 -0.086599 0.859910 -0.940758 0.456799 0.087637
-0.241023 -0.012582 -0.205310 -0.825324 0.134140 0.639410
-0.945983 0.078672 -0.871394 0.031346 -0.470793 0.957558
0.667778 -0.151318 -0.760380 -0.656144 0.596350 0.583794
0.676080 0.154297 0.508555 -0.364580 -0.725746 0.666232
0.357560 -0.192932 0.382083 -0.198681 0.996754 0.314493
0.517080 0.144580 0.956112 0.324359 -0.564199 -0.813396
-0.435637 0.019515 -0.427464 -1.021252 -0.056289 0.296742
-0.572523 -0.213906 -0.835648 0.003457 0.647021 0.840676
-0.501251 0.030522 0.692875 0.925907 0.051661 -0.470357
0.406764 -0.236335 -0.758664 -0.161664 1.051298 -0.065119
-0.486650 0.165000 -0.583383 -0.822214 -0.622310 -0.290705
0.833134 -0.228670 0.964265 -0.071804 0.969019 -0.431396
-0.247195 -0.220762 -0.723031 -0.003287 0.503581 -0.930001
-0.265052 -0.154196 -0.159241 -0.601046 0.647084 0.580729
0.621550 -0.219976 0.890990 -0.046909 1.044455 0.215373
0.258190 -0.227797 0.912574 0.044069 0.866014 -0.590776
-0.956424 0.175625 -0.762444 0.809977 -0.673884 -0.057903
0.914546 -0.005000 0.609771 -0.587487 0.076288 0.872495
0.941372 -0.159416 0.763299 -0.078980 0.416887 0.975450
0.649973 0.112506 -0.827187 -0.162829 -0.417438 0.952129
-0.449196 -0.064262 -0.894825 -0.019413 0.187444 1.043212
0.778676 0.100224 -0.684531 -1.030843 -0.267608 0.005289
-0.447630 0.135298 -0.121081 0.716576 -0.343430 -0.676884
-0.826888 0.145544 -0.581999 0.657037 -0.634643 -0.525772
-0.030762 -0.110312 1.006602 0.446069 0.402353 -0.847676
0.981668 0.108698 0.885201 -0.929479 -0.486951 -0.061533
-0.100711 0.198989 0.913352 0.221908 -0.880537 -0.516246
0.531026 0.186468 -0.666164 0.044884 -0.701306 -0.799004
0.307897 0.113309 1.035670 0.006560 -0.398354 -0.963766
0.956138 -0.145424 0.985862 -0.515620 0.721688 -0.570663
0.837616 -0.140807 0.581716 -0.465397 0.685556 0.658223
0.581627 0.111330 -0.846965 -0.115643 -0.183545 1.036132
-0.768119 -0.082913 -0.647090 0.435638 -0.063282 -0.938973
-0.266071 0.155844 -0.703251 0.038736 -0.721182 -0.760769
0.844541 -0.020968 1.025172 0.026661 0.097005 -1.035244
0.984096 -0.131349 0.986765 -0.425656 0.680834 -0.669660
0.845574 0.148722 0.642704 -0.587295 -0.616762 0.619147
-0.541188 0.051156 -0.176373 0.655321 -0.112304 -0.808248
1.020186 -0.072079 0.765992 -1.025610 0.208015 0.176341
1.037442 -0.113547 0.821135 -0.893402 0.540147 0.178192
0.063267 -0.022411 0.389516 0.733998 0.056524 -0.755725
-0.071644 0.113632 0.007334 -0.795090 -0.191701 0.652823
-0.041133 0.169695 -0.693560 0.055570 -0.681397 -0.796817
0.726420 0.051365 -0.815716 -0.808075 0.094273 0.658411
-0.472848 0.053324 -0.124678 0.801590 -0.142630 -0.660620
0.792437 0.223650 0.700946 -0.353375 -0.740434 0.665864
1.045622 -0.053574 0.778344 -0.856015 0.564951 0.231726
-0.879738 0.187509 -0.686940 0.607167 -0.720593 -0.460236
0.087342 0.137727 1.012202 -0.010353 -0.315666 -0.992311
0.822296 -0.073370 0.753596 0.032758 0.178246 1.047313
0.073076 0.215054 0.337874 0.708795 -0.292811 -0.709932
-0.870199 0.185335 -0.685171 0.671199 -0.622284 -0.546281
0.756973 0.002689 1.034865 0.025481 0.094075 -1.038885
-0.940828 -0.079585 -0.653662 0.664189 0.237227 -0.776188
0.272437 -0.189509 0.471316 0.678632 0.420262 -0.683453
0.496416 -0.183910 -0.820295 -0.207285 0.883901 0.568464
-0.539326 0.170683 -0.226080 0.482782 -0.738403 -0.565499
0.018537 -0.180047 0.316285 0.623163 0.570804 -0.621583
0.241737 -0.158304 0.443203 0.678761 0.413434 -0.688128
0.523775 -0.191166 -0.803066 -0.196232 0.880496 0.585015
-0.776265 0.232788 -0.624379 0.608755 -0.707802 -0.482288
-0.195995 -0.183057 -0.716722 -0.000859 0.514366 -0.922176
0.113586 -0.182800 0.795979 -0.662178 0.427195 0.675793
-0.030037 0.097064 -0.893635 -0.017080 -0.430995 0.972062
-0.079404 -0.086950 -0.899832 -0.032460 0.245019 1.027697
-0.693998 -0.269149 -0.752944 0.024374 1.057886 -0.108047
0.188405 0.231906 -0.792034 -0.056500 -1.033117 0.213645
-0.268269 -0.168408 -0.149311 -0.582696 0.643159 0.601216
-0.292839 -0.146684 -0.704315 -0.009178 0.522501 -0.917564
0.465728 -0.249912 0.446910 -0.054887 1.057065 0.136736
0.058206 -0.022204 0.104326 -0.817961 0.036583 0.662096
-0.388518 -0.059951 0.715463 -0.058086 0.083616 1.100038
-0.303702 0.218936 -0.092615 0.450082 -0.825166 -0.468677
-0.520449 -0.261700 -0.724345 0.012026 1.053291 -0.115644
0.383884 -0.023246 -0.879438 -0.119120 0.131530 1.040847
0.316432 -0.086682 0.520370 0.782773 0.066123 -0.696458
0.240842 0.055898 -0.674740 0.083319 -0.091077 -1.046212
-0.267002 0.251141 -0.792075 -0.083659 -1.017123 0.252769
-0.595889 -0.268631 -0.763036 0.011570 1.059024 -0.116286
-0.113146 0.175453 0.748271 -0.295679 -0.425985 0.903448
0.636883 0.101206 -0.622392 -0.092244 -0.310801 -1.011966
0.424604 0.206689 0.976786 -0.023575 -0.614728 -0.857713
0.289395 0.236029 -0.779309 -0.068497 -1.033497 0.207475
0.161854 0.179009 0.853116 -0.116573 -0.870604 0.574497
0.852286 0.160328 0.991007 -0.025426 -0.525012 -0.884576
-0.146926 0.096257 -0.900867 -0.015589 -0.393079 0.987889
0.255640 -0.235282 0.892386 -0.043381 1.011651 0.310787
0.200822 0.200483 0.940644 0.021189 -0.709272 -0.779537
0.569871 -0.000112 0.762302 0.806249 0.142001 -0.651001
0.573697 -0.166265 0.983253 0.067779 0.577467 -0.884169
-0.085941 -0.194405 0.774416 -0.275487 0.789410 0.651017
0.398666 -0.072227 -0.646966 0.164923 0.302038 -0.991151
-0.230077 0.064895 -0.906939 -0.021152 -0.308058 1.007018
0.834480 -0.216322 0.978041 -0.024109 0.916977 -0.498472
0.388953 -0.004882 1.035509 -0.000691 -0.038106 -1.057571
0.810823 -0.026574 1.068126 0.044005 0.115717 -1.031628
0.472402 0.189164 -0.690135 0.049163 -0.715600 -0.781437
-0.956937 -0.070130 -0.661316 0.984597 -0.008256 -0.367643
0.061087 0.196951 -0.857026 -0.073716 -0.342448 0.999647
-0.635437 0.162594 -0.323636 0.559967 -0.589532 -0.657759
-0.359224 0.063970 0.011531 0.717955 -0.217813 -0.722689
0.375233 -0.248546 -0.764458 -0.093215 1.051019 0.081112
-0.357269 0.208111 0.747934 0.649372 -0.565129 -0.594351
-0.201250 0.245145 -0.814471 -0.064796 -1.021053 0.285794
-0.258078 -0.248862 -0.815906 -0.071381 1.026314 0.268108
0.312322 -0.228980 0.878804 -0.062620 0.877615 0.583836
-0.284988 -0.232367 0.756635 0.351635 0.875272 -0.459128
0.161241 -0.114777 0.428739 0.704252 0.308558 -0.717759
-0.391410 -0.106122 0.801101 0.611023 0.458953 -0.709088
-0.896955 0.104917 -0.859868 0.026472 -0.502349 0.931077
0.653356 0.218301 0.892914 0.035121 -1.047052 -0.086141
-0.503118 0.024667 -0.133755 0.743570 -0.101827 -0.725974
0.126386 0.214703 0.325343 0.330602 -0.907965 -0.402914
0.867683 0.041732 1.029274 -0.009808 -0.116307 -1.034033
-0.099120 0.228190 -0.775721 -0.124197 -1.052759 -0.116368
0.567849 -0.018227 1.035539 0.009921 0.076281 -1.049230
-0.595727 -0.275866 -0.749586 0.043433 1.050823 -0.128347
0.529862 -0.257741 0.918115 -0.009072 1.050831 0.040068
-1.002035 0.069156 -0.788969 0.995470 -0.213191 -0.274440
0.647052 0.236281 0.636428 0.094047 -1.040563 -0.079532
0.976554 -0.151494 0.766138 -0.877436 0.550751 0.186967
0.477013 0.106617 0.837303 0.012918 -0.263658 1.029226
0.660601 -0.125032 0.459743 -0.691773 0.533784 0.602052
0.211962 -0.108636 -0.671454 0.152767 0.171937 -1.028178
0.486259 -0.011051 1.034981 0.017717 -0.025884 -1.051476
-0.238858 -0.236381 -0.009867 -0.114383 1.029785 0.218871
0.853058 -0.241811 0.756004 -0.269552 1.010100 0.177019
0.454017 -0.241454 0.505184 -0.049692 1.052035 0.098076
-0.416191 0.035018 -0.042725 0.744385 -0.331566 -0.648178
-0.657579 -0.032892 -0.272466 0.652292 -0.107448 -0.813121
0.232867 0.125456 1.015506 -0.005980 -0.330528 -1.001986
-0.899848 0.095512 -0.871242 0.028282 -0.437198 0.966954
0.778327 0.080048 -0.634177 -1.036074 -0.245607 0.062885
-0.865495 0.125715 -0.842767 0.018887 -0.617325 0.875074
0.292302 -0.096536 -0.879638 -0.087150 0.139203 1.046860
-0.445293 0.195661 -0.217645 0.499976 -0.739748 -0.551182
-0.044458 0.096244 0.743603 -0.262123 -0.422589 0.930348
-0.062871 -0.030842 -0.012763 -0.740227 0.374635 0.665516
0.895635 0.135218 0.999472 -0.013560 -0.594243 -0.858370
-0.562553 -0.235434 -0.330166 0.228699 0.950942 -0.398658
0.015143 0.084515 -0.679543 0.017908 -0.120471 -1.046916
-0.508726 0.233711 -0.313790 -0.417791 -0.906476 0.341951
0.397415 -0.178495 0.870255 -0.006416 0.675289 0.819845
-0.986023 0.115703 -0.728517 1.003917 -0.268907 -0.166116
0.399152 0.212952 -0.703533 0.065198 -0.751908 -0.751098
0.030162 -0.017936 1.039798 0.308803 0.046030 -0.997600
0.132478 -0.067179 0.170338 -0.672880 -0.003191 0.809386
0.452642 0.008916 -0.631270 0.349745 -0.106170 -0.987327
-0.214447 0.150591 -0.883508 -0.022417 -0.395303 0.976861
-0.364752 -0.221100 0.713646 0.022834 0.951608 0.481129
0.225388 0.032529 -0.899870 -0.084371 -0.182153 1.037117
0.017052 0.223517 0.873580 -0.048611 -0.952577 -0.438919
0.024200 -0.084338 -0.681371 -0.004847 0.194745 -1.032520
-0.438046 -0.178129 -0.879554 -0.038250 0.736568 0.772014
-0.970073 0.185602 -0.716834 0.627842 -0.755179 -0.366119
1.013183 -0.063063 0.727501 -1.020298 0.213279 0.185842
-0.587643 -0.186150 -0.281644 0.467522 0.821642 -0.466739
0.387147 0.155015 0.844053 -0.003468 -0.587072 0.867068
0.158720 -0.202590 0.290620 -0.570592 0.742508 0.485490
0.838076 -0.239223 0.907482 -0.129771 1.068889 0.049421
0.310288 0.038952 1.034762 0.001634 -0.344161 -0.987407
0.137380 0.221912 0.292905 -0.558997 -0.668376 0.587861
0.149956 0.134611 1.001712 -0.031966 -0.603371 -0.847326
0.249031 0.179997 -0.848870 -0.072232 -0.516027 0.912140
0.587117 0.149302 0.721924 0.729147 -0.444998 -0.613274
-0.393203 0.183518 0.755912 0.589749 -0.587596 -0.611830
-0.707470 -0.220495 -0.572851 0.427517 0.833945 -0.477331
-0.369524 0.104147 -0.896632 -0.013466 -0.377884 0.990344
-0.593556 -0.221197 -0.505497 -0.569037 0.896810 0.056698
0.161721 -0.118162 -0.895559 -0.047765 0.269780 1.018778
-0.615201 -0.084267 -0.357346 0.944135 0.289170 -0.403099
-0.158080 0.196336 -0.015149 -0.724554 -0.508789 0.575066
0.246422 0.169368 0.842963 -0.001386 -0.598137 0.862758
-0.462254 0.252942 -0.659503 -0.012519 -1.047847 -0.152612
-0.283247 0.046277 0.083290 0.737070 -0.263393 -0.685088
0.525614 -0.076701 1.025965 0.026388 0.494477 -0.941334
-0.403718 0.171092 -0.715133 0.098938 -0.470630 -0.933200
-0.474447 -0.233802 -0.823500 -0.057760 0.754406 0.746701
-0.126078 -0.010526 -0.067466 -0.796683 -0.028439 0.699195
-0.220227 -0.042994 -0.914280 -0.022031 -0.127910 1.055735
0.539439 -0.240856 0.919597 -0.036051 1.023864 0.265995
0.507387 -0.164457 0.372240 -0.624369 0.566801 0.631178
-0.587409 0.187099 -0.300380 0.541608 -0.607728 -0.647700
-0.734425 0.246385 -0.808317 0.015556 -0.616949 0.862824
-0.281131 0.247415 -0.822537 0.008626 -0.918562 0.528078
0.115524 0.077113 0.387578 0.712824 -0.302493 -0.702577
-0.334735 0.087541 0.660903 -0.256462 -0.428640 0.934989
0.178636 -0.229601 -0.823953 -0.069382 0.853596 0.625219
-0.289943 -0.147901 0.854251 0.611940 0.515537 -0.663779
0.017274 -0.054764 0.718391 -0.519040 0.038423 0.913627
0.540287 -0.109598 1.014720 0.051095 0.559895 -0.885001
-0.048683 -0.209626 0.801243 -0.273025 0.789553 0.643802
-0.027771 -0.227692 0.828671 -0.051017 0.933130 0.515624
0.477340 0.162755 0.994029 -0.001308 -0.622869 -0.846846
0.019598 -0.185158 -0.881221 -0.095879 0.412839 0.962995
0.698467 0.160508 -0.708006 -0.578601 -0.843893 0.258603
-0.256937 -0.154814 -0.138598 -0.594840 0.644857 0.590086
-0.604955 -0.183816 -0.848257 -0.005998 0.615384 0.872393
0.433724 0.150493 0.989981 -0.008138 -0.628122 -0.842404
0.512523 -0.095835 0.823537 0.058117 0.081368 1.053766
0.532245 -0.008215 1.026776 0.001641 0.001310 -1.057553
-0.041428 -0.081122 -0.903537 -0.035248 0.236453 1.031616
-0.890300 -0.197705 -0.838491 0.005422 0.545747 0.912034
0.771663 0.094534 -0.687247 -1.031138 -0.278117 -0.001199
-0.904683 0.069273 -0.872890 0.017738 -0.398316 0.981185
0.667749 0.185846 -0.756723 -0.454816 -0.611848 0.720317
0.871999 -0.162252 0.774819 -0.062346 0.456436 0.952966
-0.451177 -0.131739 -0.100964 0.754868 0.252758 -0.675452
-0.274364 -0.074535 0.656964 -0.056050 0.126368 1.039735
-0.047638 0.144920 0.987805 0.291836 -0.531984 -0.845906
0.206157 -0.012830 0.204199 -0.644395 -0.006067 0.836206
-0.819968 0.082525 -0.883775 -0.040377 -0.233713 1.030007
0.604873 -0.234314 0.869238 -0.018315 0.675081 0.816863
0.253521 -0.037064 -0.667971 0.130003 0.073163 -1.047274
-0.763717 -0.146904 -0.449717 0.810303 0.493467 -0.447057
-0.051191 0.189222 0.095678 -0.696356 -0.519895 0.596101
0.139037 0.136343 0.221321 -0.697062 -0.532147 0.581718
-0.555358 0.011196 -0.894745 -0.038081 -0.148689 1.046338
-0.536835 0.066066 -0.909117 -0.046011 -0.151577 1.040933
0.129620 -0.242481 -0.684268 0.080226 1.029706 -0.229804
-0.418827 -0.138128 0.664224 0.086176 0.696206 0.806095
-0.334679 0.087471 0.854843 0.788610 -0.138781 -0.658171
-0.055556 -0.216708 0.907120 0.110001 0.982563 -0.374635
0.317018 -0.206612 0.937395 0.058510 0.903044 -0.536235
0.610494 0.189000 0.707663 0.726587 -0.440522 -0.619127
-0.225574 -0.196667 0.069222 0.611665 0.592432 -0.614108
-0.285651 -0.071656 -0.662013 -0.003664 0.163010 -1.039264
-0.379615 -0.131532 -0.885880 -0.017851 0.206396 1.038397
0.347463 0.151020 0.853939 -0.003086 -0.585898 0.875540
0.465888 0.056046 -0.622847 0.354909 -0.112793 -0.984499
1.018665 -0.090970 0.942352 -0.954073 0.067461 -0.445344
-0.443051 0.105890 -0.589304 -0.941009 -0.380902 -0.368479
1.033612 0.055561 0.819521 -1.009487 -0.303109 0.094593
-0.444045 -0.214886 -0.256418 -0.437593 0.893901 0.378695
0.496135 0.229402 -0.764402 -0.200137 -0.949626 0.409034
-0.424945 0.055183 -0.400911 -0.783394 -0.350330 0.605816
-0.016331 -0.259223 -0.777151 -0.038701 1.067484 0.021747
-0.314882 -0.090423 0.069330 0.764163 0.154542 -0.699902
-0.254375 -0.195449 0.807905 0.248518 0.856430 -0.550674
0.760984 0.076881 -0.607994 -0.845330 -0.129025 -0.633069
0.012469 -0.092133 -0.684445 -0.012433 0.190904 -1.034325
-0.262296 -0.115642 0.901755 0.551807 0.246070 -0.847412
0.139781 -0.130127 0.792000 -0.589308 0.179617 0.847966
-0.299304 -0.100534 0.074866 0.755921 0.155659 -0.706169
0.988772 0.115773 0.838569 -0.911710 -0.519606 -0.062734
0.538918 0.064691 0.353274 -0.704948 -0.070280 0.769409
0.561928 -0.060615 -0.860207 -0.135612 0.101879 1.042684
-0.268440 0.031290 -0.678476 -0.014132 0.119173 -1.050544
-0.871254 0.054208 -0.524740 0.710280 -0.166219 -0.731310
-0.383504 -0.117052 0.781704 0.514079 0.531094 -0.735119
-0.487922 0.038503 -0.902609 -0.046892 -0.183306 1.047763
0.304648 -0.229772 0.954576 0.039832 0.600430 -0.854097
0.781231 -0.030053 -0.635016 -1.035732 0.290772 -0.072094
0.980439 -0.148962 0.733284 -0.710051 0.691823 0.353753
-0.374925 0.237050 -0.809840 0.002795 -0.906790 0.537259
-0.058695 -0.149865 -0.698439 0.002301 0.505350 -0.928103
0.313806 -0.022775 1.044962 0.087722 0.001399 -1.031199
0.072568 0.187432 -0.714544 0.001167 -0.781108 -0.726235
-0.958284 0.109336 -0.694608 0.812120 -0.362951 -0.560185
0.616602 0.202183 -0.789027 -0.407967 -0.597307 0.764028
-0.076934 0.218669 -0.847100 -0.008389 -0.715075 0.776998
-0.357598 0.089025 -0.901693 -0.029625 -0.330896 1.003677
0.702684 -0.165357 0.971057 0.051536 0.541780 -0.896735
0.003942 0.204312 0.909456 -0.037705 -0.967210 -0.420407
1.031611 -0.122253 0.832888 -0.889902 0.533798 0.140632
0.654250 0.072838 -0.597807 -0.150344 -0.372007 -0.957592
0.475209 -0.028628 -0.618130 -0.065715 0.150268 -1.038133
0.170596 -0.098684 0.128438 -0.645378 0.423702 0.726263
-0.097950 -0.139900 -0.890324 -0.030418 0.236582 1.030610
-0.148834 -0.092088 0.977689 0.413329 0.317094 -0.905963
-0.351542 0.209189 -0.840856 0.098005 -0.610593 0.852275
0.177731 0.226830 0.342841 0.355852 -0.894255 -0.407802
-0.933622 0.220902 -0.775736 0.464033 -0.902391 -0.284861
-0.479049 0.230673 -0.677180 -0.446691 -0.925911 -0.296218
0.389791 0.107154 -0.634183 0.369545 -0.068566 -0.988184
0.839905 0.231313 0.747760 0.040809 -1.044330 -0.032622
-0.576322 -0.139798 -0.882406 -0.020267 0.179315 1.046565
0.371918 -0.079256 1.019770 0.000938 -0.001860 -1.056656
0.184981 -0.247078 -0.790983 -0.077466 1.066863 0.015610
-0.284404 -0.021230 -0.260286 -0.837307 0.130773 0.632302
0.254657 -0.079949 -0.679298 0.033755 0.201150 -1.030287
-0.492770 0.100681 -0.129475 0.663471 -0.119909 -0.797650
0.427206 -0.105123 1.016166 0.062194 0.593234 -0.867143
-0.478787 -0.148820 -0.152023 0.759485 0.259794 -0.674827
-0.739777 -0.150520 -0.510054 0.670264 0.426728 -0.683069
-0.079343 -0.228855 0.174961 0.496354 0.766183 -0.519738
-0.105616 -0.111169 -0.682968 0.003126 0.507166 -0.924060
0.203341 -0.069215 0.135535 -0.630943 0.415470 0.727551
0.747968 -0.053370 0.779175 0.039534 0.155051 1.054774
0.594066 -0.117548 -0.836105 -0.236506 0.169323 1.008052
0.688506 0.153880 0.520449 -0.595262 -0.567733 0.655251
-0.693591 -0.159867 -0.880141 0.004287 0.586916 0.877922
-1.015602 0.035363 -0.739731 0.999319 -0.246103 -0.179064
-0.807410 -0.015355 -0.476847 0.742358 -0.123282 -0.720419
-0.335472 -0.145952 0.809659 0.617682 0.508202 -0.667459
-0.574146 0.236416 -0.812813 0.011482 -0.660942 0.821467
-0.434057 -0.044920 -0.529445 -1.049663 0.197363 -0.094495
-0.344955 -0.102538 0.024150 0.741515 0.136725 -0.723623
-0.978628 0.087236 -0.772073 1.004202 -0.251550 -0.162829
-0.348526 -0.169184 -0.706088 -0.006929 0.496329 -0.932986
0.999801 0.116455 0.867285 -0.945473 -0.483958 -0.057752
-0.297199 -0.215283 0.760759 0.445073 0.835606 -0.446376
0.155627 0.150026 -0.874555 -0.084740 -0.496931 0.927892
0.829682 -0.242249 0.889578 -0.059815 1.042935 0.214242
-0.048231 -0.209659 0.954741 0.516342 0.701039 -0.565302
0.064364 -0.048795 0.766258 -0.425943 0.042974 0.957472
0.258249 -0.180387 0.453678 0.688406 0.356453 -0.702617
-0.314968 -0.139835 -0.896687 -0.013544 0.205207 1.043580
0.993553 0.040605 0.977161 -0.984420 -0.111576 -0.362945
0.769351 -0.006227 -0.629079 -0.421158 0.084813 -0.983211
-0.131252 0.017419 -0.073127 -0.790555 -0.077727 0.687276
0.191466 0.059637 -0.901244 -0.089779 -0.190427 1.033146
0.948755 0.080051 1.007722 -0.649148 -0.341486 -0.747539
-0.116286 0.186805 0.908488 0.383294 -0.617902 -0.741242
0.554470 0.184711 0.879208 0.001733 -0.586559 0.881758
-0.071773 -0.093332 0.721178 -0.457853 0.050763 0.941765
