ply
format ascii 1.0
element vertex 512
property float x
property float y
property float z
property float nx
property float ny
property float nz
end_header
0.963680 0.127813 0.118950 -0.958697 -0.440841 -0.053456
-0.235880 0.235018 0.500378 0.527482 -0.770970 -0.466101
-0.836129 -0.203545 -0.839005 -0.037041 0.515988 0.897851
-0.945845 0.218640 -0.824340 0.034113 -0.475716 0.924056
0.813351 -0.137859 -0.684645 -0.588583 0.649761 0.583946
-0.913424 -0.150582 -0.866073 -0.023244 0.462674 0.935361
-0.166215 0.103441 0.686630 0.781101 -0.244506 -0.649276
-0.818556 0.192569 -0.025214 0.776854 -0.387861 -0.588503
0.711833 -0.318494 -0.311399 -0.585083 0.852453 0.179700
0.689029 0.254453 -0.635620 -0.114531 -0.871738 0.566208
-0.235995 0.381931 -0.180026 -0.356762 -0.973949 0.182434
0.402690 0.307337 -0.571656 0.400118 -0.924863 0.301913
-0.037386 0.259751 0.647587 0.358821 -0.892149 -0.431965
0.479784 0.344374 0.030765 0.288698 -0.936476 -0.370555
0.951988 0.159076 0.178853 -0.869215 -0.596797 -0.059980
-0.156403 0.104891 0.682636 0.818391 -0.252124 -0.594558
-0.108834 -0.104186 0.766664 0.711070 0.450722 -0.609432
0.872027 0.240263 -0.043964 -0.640918 -0.817234 0.159392
-0.736626 -0.364784 -0.530377 0.073684 1.047408 -0.104767
0.865841 0.268841 0.117047 -0.647475 -0.831596 0.040301
-0.519271 0.063191 0.300151 0.661837 -0.074909 -0.821139
0.825830 -0.242220 -0.209509 -0.835017 0.621943 0.153975
0.598222 -0.170645 0.588395 0.876495 0.527894 -0.220717
-0.149774 -0.069626 -0.465708 -0.524520 0.382494 0.816999
-0.996296 -0.231309 -0.397623 0.912460 0.366669 -0.347265
-0.679820 -0.080779 0.180126 0.640246 0.046047 -0.835771
-0.794560 0.306594 -0.155911 0.459875 -0.829705 -0.444804
0.809970 0.303670 0.678006 -0.201587 -1.042249 -0.087912
-0.266303 0.280684 -0.398047 -0.417772 -0.728543 0.614085
-0.234625 -0.375271 -0.175501 -0.309911 1.002697 0.052317
0.679911 0.367143 -0.128722 -0.604175 -0.856927 0.106105
-0.280382 -0.043318 -0.628466 -0.677919 0.077676 0.773000
0.933628 -0.197358 0.463687 -0.954494 0.447336 0.044104
0.553864 0.369040 0.034101 0.333512 -0.944812 -0.323607
-1.017947 0.172879 -0.856806 0.019875 -0.513923 0.917639
-0.912945 -0.299668 -0.474694 0.635346 0.810338 -0.213671
-0.815875 -0.020338 0.039536 0.747454 0.177794 -0.712599
0.676828 -0.339219 0.327955 0.230267 1.022210 -0.069984
-0.478011 -0.105078 0.338637 0.606632 0.124734 -0.852985
0.785452 0.037138 -0.732953 -0.472682 -0.205425 0.896860
0.090675 0.196813 0.830291 -0.217308 -0.516148 -0.878169
-0.453223 0.012923 -0.741691 -0.641451 0.037406 0.811943
0.758289 -0.339654 -0.082434 -0.570011 0.873789 0.106148
0.929030 0.201116 0.791978 -0.676144 -0.786144 -0.203210
0.604746 0.082560 0.734327 0.869285 -0.152897 -0.564287
-0.630634 0.039693 -0.884265 -0.448670 -0.058089 0.931091
-0.649020 0.253832 0.051822 0.461607 -0.792576 -0.505395
-0.923146 -0.309144 -0.518547 0.525904 0.876445 -0.239780
0.322182 -0.390001 -0.343256 0.224430 0.976538 0.305277
-0.693331 -0.292941 -0.748159 -0.062889 0.851351 0.601299
-0.732172 0.044515 0.128126 0.699841 -0.214345 -0.750105
-0.820031 -0.358312 -0.643871 0.043810 1.049141 -0.111134
-0.585570 0.222749 -0.727247 -0.354358 -0.745602 0.628425
-0.587132 -0.385625 -0.156308 0.301742 0.906151 -0.432074
-0.517495 0.292799 0.052414 0.397898 -0.847240 -0.482683
0.805842 -0.212555 -0.456393 -0.967055 0.418828 0.001794
0.621620 0.341515 0.198038 0.380505 -0.925430 -0.308426
0.075345 -0.197887 0.805696 -0.074970 0.688089 -0.789245
0.931712 0.213491 0.592333 -0.830724 -0.640566 0.104568
-0.255502 0.174695 -0.476137 -0.616162 -0.446727 0.713615
-0.975276 0.034870 -0.211314 0.887821 -0.119707 -0.537065
0.152933 -0.098822 0.404821 -0.948135 0.298745 0.321816
-0.859204 -0.134150 -0.896519 0.033970 0.046596 1.045323
-0.630897 0.074367 -0.877873 -0.044793 -0.263517 1.009439
0.372786 0.386878 -0.347636 0.194287 -0.957668 0.376447
-0.456044 -0.084432 0.374035 0.608433 0.149285 -0.845041
0.783907 0.239293 -0.416133 -0.675335 -0.804542 0.029837
0.490443 0.356615 0.000657 0.305047 -0.938756 -0.337478
-0.422266 -0.000440 -0.723061 -0.632445 0.015388 0.814852
-0.530141 0.317014 -0.568315 -0.401634 -0.858519 0.455140
0.735016 -0.360506 0.209765 -0.489855 0.924078 0.018798
-0.887618 -0.060435 -0.029745 0.731186 0.145264 -0.725726
0.561269 0.263860 -0.648936 0.045201 -0.768641 0.705655
0.956615 0.112973 0.434820 -0.975744 -0.412527 0.043207
0.323677 0.299646 -0.510483 0.642053 -0.798345 0.224147
0.990066 -0.113133 0.658634 -1.010790 0.264371 0.058187
0.302845 -0.383444 -0.356959 0.236048 0.981261 0.309030
0.798709 0.006495 -0.736259 -0.536012 -0.127878 0.888996
-0.678524 -0.003036 -0.889893 -0.447667 -0.031860 0.942303
-0.100010 0.045130 -0.420368 -0.590299 -0.016671 0.840788
0.049067 0.245706 -0.333336 0.374372 -0.531438 0.814361
0.721606 0.341288 -0.127535 -0.598853 -0.878263 0.045550
-0.370678 0.147474 0.436985 0.768202 -0.271592 -0.645356
-1.027297 0.168248 -0.425769 0.807152 -0.615445 -0.276601
-0.216596 0.034830 -0.541979 -0.538652 -0.041188 0.886838
0.596864 -0.341663 0.145212 0.383697 0.934192 -0.270436
0.598302 -0.156411 -0.733269 0.083106 0.306691 1.003305
0.625840 -0.395026 0.039238 0.121730 1.027635 -0.174811
-0.887710 -0.104704 -0.048910 0.764166 0.191743 -0.693982
0.634163 -0.176640 0.807215 0.545958 0.885479 -0.080190
-0.271237 0.243677 -0.454772 -0.458704 -0.716018 0.593212
0.999658 0.014250 0.663122 -1.051603 -0.129198 0.051782
0.958520 -0.107788 0.192462 -0.972097 0.408671 -0.048718
0.802544 0.321101 0.365046 -0.256572 -1.017615 -0.081407
-0.747535 -0.357278 -0.225719 0.390309 0.912973 -0.315197
0.378277 -0.203220 0.122658 -0.201124 0.648866 -0.798754
0.725132 0.134650 0.889781 -0.034497 -0.432817 -0.953305
0.131027 -0.344515 -0.218554 0.187986 0.780565 0.677187
-0.823351 0.147330 -0.879638 -0.006063 -0.341297 0.985682
-0.600648 0.171682 0.207812 0.612997 -0.549908 -0.655286
-0.515369 0.299209 -0.582455 -0.388340 -0.800439 0.536035
0.869035 -0.066100 -0.336462 -0.995142 0.232107 0.257488
-0.276381 0.266735 -0.407220 -0.412673 -0.741556 0.631347
0.579719 0.179928 0.548377 0.906306 -0.439708 -0.275172
0.946724 0.148076 0.032469 -0.954746 -0.437747 -0.044369
0.659164 0.247431 0.644840 0.710314 -0.757306 -0.199858
-0.745061 -0.328341 -0.147511 0.399463 0.911716 -0.313695
0.405101 0.158681 0.153075 0.706790 -0.347912 -0.691980
-0.083990 0.358063 -0.000872 -0.377153 -0.982337 -0.123546
0.614087 0.346818 0.196982 0.367553 -0.929523 -0.305604
-0.341432 0.334447 0.245949 0.460782 -0.836374 -0.475198
0.817336 -0.261494 -0.261820 -0.584174 0.855364 0.159047
-0.555471 0.270012 -0.658875 -0.424359 -0.797481 0.533700
-0.185694 0.153467 -0.444794 -0.436978 -0.415507 0.852805
0.330217 0.352706 -0.078601 0.239864 -0.978656 -0.293467
0.456343 -0.183266 -0.692976 0.048088 0.322879 0.986180
-0.343491 0.051538 0.487371 0.723536 -0.191328 -0.731836
-0.567856 -0.099137 0.285469 0.569142 0.142225 -0.876913
-0.260681 -0.318761 -0.376914 -0.331697 0.800144 0.561898
0.079674 -0.257077 0.755151 -0.323810 0.954416 -0.300764
0.162733 0.066072 0.392429 -0.956465 -0.194695 0.402451
0.667961 -0.235600 0.699271 0.873974 0.532096 -0.211718
0.025165 0.297791 0.619532 -0.019745 -1.018737 -0.267026
0.535508 0.226278 0.292996 0.901377 -0.359077 -0.399099
0.543726 -0.320115 -0.629325 -0.203033 0.993951 0.249800
-0.045571 -0.113440 0.834545 0.705221 0.428640 -0.633906
-1.058598 -0.133046 -0.678049 0.998353 0.302949 0.009868
-1.004201 0.049146 -0.252171 0.895686 -0.104587 -0.544898
0.992247 0.077398 0.687619 -0.966954 -0.419317 0.062168
-0.238713 -0.392165 -0.107039 -0.319236 1.004394 0.033816
-0.254316 0.311290 -0.335792 -0.417390 -0.744477 0.587191
0.876822 -0.159385 -0.248892 -0.988639 0.298868 0.174281
-0.428269 0.245309 -0.601724 -0.442601 -0.784433 0.512142
-0.835838 0.346930 -0.589031 0.123062 -1.054136 -0.033624
-0.583607 -0.388155 -0.409184 -0.200154 0.971215 0.334082
-0.616380 -0.153951 -0.834770 -0.556574 0.336293 0.807934
-0.395670 0.288886 0.273827 0.388916 -0.855185 -0.475684
0.711109 -0.308347 0.592598 0.239755 1.020880 -0.021424
-0.964192 -0.158464 -0.255813 0.917857 0.375613 -0.311499
0.803660 -0.314086 0.652300 0.052266 1.030279 -0.200637
0.995123 -0.066769 0.782065 -1.012849 0.245181 0.035455
0.782922 -0.281274 -0.264617 -0.811289 0.643109 0.158622
0.952159 -0.076114 0.017631 -1.052165 0.081486 0.029387
-0.359259 -0.087685 -0.688887 -0.664851 0.148988 0.764973
-0.695483 -0.088251 0.168034 0.610208 0.473351 -0.702151
0.602460 0.186307 -0.709067 -0.001586 -0.575148 0.873226
0.743208 -0.151374 0.909828 0.053316 0.334961 -0.983036
0.994665 -0.051111 0.226049 -0.999659 0.318323 -0.032591
-1.008022 -0.199055 -0.618131 0.940269 0.481501 0.027889
-0.446250 -0.209635 0.313462 0.574451 0.520456 -0.708428
0.507112 0.204970 0.292304 0.903676 -0.351974 -0.401018
0.561303 -0.157544 0.477157 0.865983 0.519219 -0.260005
-0.832040 -0.330709 -0.340836 0.457111 0.897269 -0.280537
0.794352 -0.157166 -0.646092 -0.603751 0.648465 0.567342
-0.881822 -0.341785 -0.531050 0.453205 0.910527 -0.235938
0.494652 -0.227099 0.249697 0.775048 0.460686 -0.524708
-0.935275 0.158642 -0.173772 0.756499 -0.551501 -0.477508
0.887135 0.229354 0.792326 -0.688803 -0.775465 -0.187701
0.836138 -0.287431 0.082905 -0.595288 0.864898 0.023882
0.385111 0.396442 -0.199478 0.204709 -1.016431 -0.188477
-0.960789 0.098725 -0.182534 0.933407 -0.177998 -0.450529
0.212523 0.323599 -0.352851 0.398938 -0.869636 0.417341
-0.519315 0.288972 -0.604289 -0.404163 -0.792580 0.534107
-0.770227 -0.180527 -0.841461 -0.072785 0.535648 0.892039
0.811004 -0.303567 -0.021901 -0.619098 0.838829 0.114500
-0.968798 -0.083815 -0.213439 0.871246 0.127403 -0.561605
0.047750 -0.141773 0.850709 -0.080056 0.681200 -0.795558
-0.074693 0.040961 -0.425591 -0.582685 -0.046564 0.868481
0.910990 -0.232899 0.175174 -0.817244 0.653786 -0.068635
0.211210 -0.122921 0.811732 -0.913028 0.259697 -0.450771
0.919056 -0.207328 0.175459 -0.946122 0.460431 -0.049833
-0.926192 -0.105490 -0.125246 0.775455 0.286041 -0.648368
0.362766 0.371100 -0.403882 0.398268 -0.908290 0.311316
0.645389 -0.267187 0.577575 0.570949 0.860096 -0.174135
0.181275 0.179860 0.548904 -0.965542 -0.312583 0.266821
0.918682 0.215878 0.424669 -0.800631 -0.673146 0.112244
-0.427718 0.016340 0.373205 0.669139 -0.089676 -0.801506
-0.333816 0.084114 0.491832 0.729454 -0.198095 -0.726259
0.866281 0.246660 0.078046 -0.874081 -0.609627 -0.072340
-0.166125 0.372791 0.152203 -0.361011 -0.979817 -0.130440
-0.116952 -0.164014 0.708367 0.693594 0.464434 -0.639216
-0.739038 -0.376583 -0.286731 0.376316 0.934625 -0.311750
0.009142 -0.313191 0.109653 -0.528136 0.827691 -0.373006
-0.456405 -0.391978 -0.320206 -0.170753 0.977149 0.349450
-1.042320 -0.093344 -0.652835 1.005773 0.299175 0.013405
0.952435 0.180637 0.519703 -0.829351 -0.644911 0.099907
-0.352532 0.008690 0.487367 0.729038 -0.186617 -0.730607
0.782603 0.270911 -0.219137 -0.710951 -0.773679 0.073961
0.862198 -0.084976 -0.422445 -1.054574 0.055361 -0.031974
-0.416170 -0.322358 0.127629 0.318021 0.860703 -0.505735
0.474557 -0.413949 -0.340410 0.058038 0.998763 0.266768
-0.804808 0.051425 -0.887059 -0.008672 -0.215343 1.030264
-0.078384 -0.275554 -0.256634 0.030040 0.704016 0.777749
0.873171 -0.128394 -0.590418 -0.963579 0.433598 -0.047793
0.510839 0.142772 -0.755769 -0.009336 -0.563726 0.870092
-0.833556 0.330798 -0.301106 0.639050 -0.804840 -0.188083
0.829789 0.300841 0.726269 0.048483 -0.958191 -0.429580
0.813726 0.209302 -0.483369 -0.669253 -0.804916 0.016312
0.451212 -0.053517 -0.763519 0.099185 0.277250 1.002275
-0.541163 0.225925 0.155720 0.752282 -0.626977 -0.355669
-0.291094 0.388179 0.050705 0.153227 -1.023619 -0.219298
-0.213737 -0.183222 -0.449417 -0.517660 0.464174 0.763575
-0.148690 0.314301 0.449434 0.324099 -0.918363 -0.400365
-0.200509 0.226100 0.551003 0.567287 -0.744590 -0.480488
0.714314 0.122611 0.847115 0.710106 -0.469718 -0.611841
-0.891757 0.313822 -0.472610 0.575437 -0.871964 -0.045840
-0.718176 -0.326917 -0.673940 0.036720 1.035007 0.179756
-0.235568 0.258751 0.457352 0.554750 -0.780084 -0.431062
0.536539 0.407786 -0.318411 -0.123893 -1.008970 0.271374
0.910130 -0.162412 0.886648 -0.639128 0.531032 -0.624408
0.171337 -0.110130 -0.490251 0.605900 0.421084 0.746166
0.801959 0.313417 0.579968 -0.204142 -1.027191 -0.076005
0.626862 0.120827 0.768815 0.917676 -0.449268 -0.226496
-0.092690 -0.317121 -0.219366 0.061814 0.726181 0.755580
-0.624055 0.187836 -0.803251 -0.276302 -0.667628 0.760608
0.787950 -0.272030 0.808488 0.075399 1.030995 -0.204279
-0.084875 0.020886 -0.404395 -0.592432 -0.047066 0.857783
-0.216141 -0.138855 -0.489318 -0.509170 0.484551 0.776483
0.649233 0.034384 -0.766421 -0.049275 0.035820 1.046537
-0.593825 -0.042326 0.262004 0.668736 -0.045940 -0.812829
0.691848 0.027202 0.927812 0.618942 0.177723 -0.809872
-0.199646 0.225887 0.521689 0.636933 -0.668802 -0.497894
-0.380485 0.321446 0.181453 0.461713 -0.848504 -0.419610
0.964461 0.111986 0.190645 -0.951845 -0.426271 -0.047693
0.626455 -0.328229 -0.529745 -0.322801 0.912253 0.397990
0.004585 0.272813 0.135465 -0.777070 -0.695236 -0.097128
0.464402 -0.188336 -0.713017 0.186139 0.459626 0.920019
-0.963819 0.261207 -0.714050 0.594384 -0.849893 -0.014616
0.602130 0.225137 0.499175 0.790496 -0.584904 -0.392009
-0.132244 -0.323775 0.463454 0.240214 0.965099 -0.326066
0.874153 -0.101986 -0.502596 -1.071511 0.121330 -0.220273
0.409429 -0.175109 -0.711537 0.042193 0.324460 0.995626
0.348125 0.156089 -0.722865 0.006679 -0.705436 0.766944
0.396259 -0.341253 -0.557416 0.529517 0.886184 0.132948
0.279226 -0.201307 -0.634492 0.737699 0.691779 0.283991
-1.057351 0.082924 -0.570790 0.980951 -0.345396 -0.089726
-0.130097 -0.088322 0.733132 0.707637 0.455874 -0.618657
0.209021 0.307636 -0.382367 0.410831 -0.866390 0.424297
0.662876 0.180027 0.711285 0.883513 -0.456599 -0.337672
-0.016784 -0.163010 0.836491 0.678104 0.452137 -0.643418
-0.613505 -0.004378 -0.873559 -0.454467 -0.028772 0.936879
-0.839672 0.351656 -0.430490 0.574312 -0.891802 0.011811
0.037431 0.250738 0.264924 -0.718650 -0.723055 0.246746
-0.493622 -0.172633 0.299809 0.546877 0.530271 -0.725128
0.037044 0.267740 0.338180 -0.682021 -0.766504 0.221687
0.603591 0.345905 0.150211 0.366351 -0.927213 -0.321215
0.793072 -0.297773 -0.187418 -0.674392 0.793616 0.144060
0.004926 -0.307284 0.335916 -0.675348 0.768293 0.194005
0.671303 0.372624 -0.218416 -0.631837 -0.831008 0.097815
-0.285060 -0.366555 -0.283778 -0.326547 0.934350 0.337096
0.934493 -0.171312 0.340080 -0.958861 0.438101 -0.017389
0.186771 -0.367261 -0.081376 -0.056989 0.990699 -0.338242
0.595670 -0.074599 0.767285 0.795902 0.613919 -0.305816
0.145806 -0.283108 0.097208 -0.498066 0.681812 -0.646287
0.927686 0.196044 0.821145 -0.682732 -0.775410 -0.229242
0.134441 0.150016 0.378931 -0.820147 -0.635946 0.164850
0.163491 -0.130802 0.488263 -0.953387 0.305404 0.319091
-0.599352 0.321549 -0.610223 -0.370582 -0.834352 0.493129
0.943498 0.007773 0.899654 -1.025594 0.127511 -0.191644
0.381550 0.341598 -0.504378 0.425314 -0.906268 0.298767
-0.455255 0.091003 -0.719908 -0.590017 -0.346482 0.776839
-0.908870 -0.304762 -0.484183 0.550997 0.851282 -0.257551
-0.603315 0.382374 -0.416152 -0.321874 -0.940005 0.331242
-0.023670 -0.330605 -0.210710 0.034673 0.711640 0.771275
0.935746 0.158676 -0.056602 -0.949098 -0.323392 0.306874
0.781582 0.289439 0.729671 -0.004008 -1.008119 -0.325215
-0.722016 0.217574 -0.805890 -0.289072 -0.705388 0.708978
-0.845231 0.277222 -0.170958 0.499273 -0.841003 -0.378895
0.952248 -0.196166 0.654405 -0.858391 0.588297 0.085870
-0.945222 -0.030564 -0.892882 0.020856 -0.075511 1.051546
0.618450 0.102143 0.780136 0.867312 -0.160855 -0.566639
0.830458 -0.138990 0.928763 0.056610 0.330455 -0.987660
0.425382 -0.383779 -0.449933 0.184022 0.988577 0.289294
-0.844258 -0.116574 -0.873283 0.038753 0.090553 1.030702
-0.519698 -0.271186 -0.648569 -0.449138 0.772430 0.543165
-0.640093 -0.362540 -0.538401 -0.200997 0.965132 0.354613
0.112961 0.044339 0.193511 -1.016202 -0.124597 0.224140
-0.455832 -0.301273 -0.544883 -0.461763 0.844297 0.395828
0.262056 0.094128 -0.770352 -0.159173 0.019429 1.021177
0.114162 0.094683 0.248219 -1.003495 -0.198014 0.245330
-0.239219 -0.054354 -0.534045 -0.614389 0.193375 0.802515
-0.182012 -0.378808 0.137341 -0.051263 0.996730 -0.318137
-0.617821 -0.397374 -0.405751 -0.180465 0.993331 0.292351
0.123217 0.261873 0.548856 -0.392638 -0.976704 -0.002233
0.248684 -0.062516 0.655078 -1.052033 0.050168 0.046261
-0.117789 -0.146409 0.723732 0.705137 0.495303 -0.585360
-0.001267 0.306701 0.384002 -0.661783 -0.802687 0.152126
-0.624474 0.298489 -0.026356 0.437275 -0.835995 -0.475842
-0.215242 -0.141410 -0.474330 -0.505439 0.461795 0.768751
-0.052516 -0.315786 0.061552 -0.373371 0.955321 -0.273020
0.611261 0.053690 -0.773495 -0.051439 0.032483 1.035725
0.591619 0.048270 0.749467 0.863130 -0.160008 -0.559841
0.860228 0.155625 -0.299418 -0.962717 -0.348789 0.208856
0.938077 0.180043 0.571283 -0.822806 -0.655275 0.108273
-0.749414 0.284847 -0.759772 -0.343351 -0.840050 0.515732
0.008843 0.252724 0.228028 -0.727118 -0.726742 0.218256
-0.422066 0.297510 0.155225 0.376484 -0.854625 -0.487946
0.154725 0.186264 0.571539 -0.945299 -0.398233 0.258517
0.337317 -0.237072 0.098882 -0.200195 0.646622 -0.801667
-0.435287 -0.151037 0.367217 0.601043 0.182400 -0.841369
-1.054373 -0.112088 -0.732449 1.010811 0.259863 0.006105
0.437807 0.107595 -0.761088 0.158125 -0.266230 0.989342
-0.992934 0.074167 -0.304218 0.932318 -0.174013 -0.461989
0.954281 -0.184432 0.798904 -0.960329 0.402879 0.063653
-0.642850 0.047735 -0.867535 -0.460895 -0.044441 0.936588
0.189851 0.123657 0.160315 -0.628697 -0.295461 -0.790946
0.078319 0.383423 -0.093736 -0.067488 -1.042457 -0.113198
-0.389106 0.300239 0.243170 0.417958 -0.866369 -0.422201
-0.540846 0.154606 0.281422 0.570790 -0.358269 -0.810982
0.581989 -0.267264 0.426081 0.842058 0.465691 -0.404875
0.664962 0.143797 0.832174 0.931119 -0.455921 -0.212717
-0.505365 -0.151235 0.303033 0.586277 0.208853 -0.851909
-0.961574 -0.089567 -0.194616 0.836484 0.173747 -0.600401
-0.515311 -0.268219 0.223641 0.350150 0.861876 -0.494367
0.742353 -0.106368 0.915361 0.437024 0.369644 -0.871535
-0.405873 -0.166456 0.375818 0.474927 0.566185 -0.742670
-0.537319 0.369723 -0.100730 0.377671 -0.857194 -0.473736
-0.712601 -0.004521 -0.905910 0.033271 -0.028690 1.046128
0.304895 -0.166567 0.129103 0.518791 0.347380 -0.856045
0.625716 -0.120449 -0.742871 0.087239 0.293211 0.995470
0.128017 0.223352 0.547447 -0.646022 -0.811233 0.156833
-0.413809 -0.437873 -0.165424 -0.291735 1.013463 0.065987
0.464906 -0.420422 -0.341795 -0.063547 1.021197 0.206991
0.261757 0.332987 -0.362299 0.288111 -0.882804 0.492527
-0.300457 -0.060266 0.531038 0.709060 0.153784 -0.757170
-0.650863 -0.293221 -0.758910 -0.074882 0.848822 0.589554
-0.358894 0.325620 0.226505 0.385512 -0.840893 -0.483636
0.191257 0.050773 0.453947 -0.935853 -0.177903 0.418849
-0.225630 0.253127 -0.391737 -0.465553 -0.728559 0.581173
-0.912916 -0.002357 -0.893009 0.011154 -0.133691 1.035536
-0.088399 0.342785 0.211990 -0.416123 -0.961740 0.033719
-0.544924 -0.389799 -0.426801 -0.205173 0.975065 0.341927
0.177818 -0.303515 0.058601 -0.246272 0.856077 -0.560241
0.926921 -0.018365 -0.207784 -1.025479 0.001032 0.207487
0.774050 0.129236 -0.718342 -0.393083 -0.283129 0.919278
-0.884425 0.319308 -0.489458 0.587739 -0.864882 -0.024326
0.434308 0.279106 0.093154 0.539701 -0.762276 -0.475637
0.655455 -0.290925 0.464269 0.578954 0.842952 -0.266144
-0.889307 0.311368 -0.564072 0.602976 -0.851120 -0.007930
-0.950512 0.280040 -0.586940 0.775754 -0.687999 -0.161299
0.838274 0.192111 -0.596201 -0.752228 -0.717591 -0.059568
-0.899316 0.309369 -0.489198 0.577137 -0.872460 -0.035619
-0.771763 0.143520 -0.878158 -0.011950 -0.238293 1.018077
0.789214 0.285189 0.771100 0.115259 -0.938478 -0.442830
0.915551 0.061200 -0.240358 -1.042675 -0.006233 0.160814
0.762521 0.334505 0.261659 -0.386092 -0.977948 -0.095195
-0.567397 -0.256380 -0.707034 -0.469330 0.760394 0.522063
-0.707886 -0.041808 0.147482 0.628492 0.076986 -0.838579
-0.302437 -0.150933 -0.593077 -0.647579 0.186953 0.774826
0.406300 0.138852 0.191351 0.715010 -0.332873 -0.680180
-0.237897 -0.322891 0.358268 0.226607 0.971738 -0.337658
0.858204 0.291067 0.413071 -0.564475 -0.886836 0.054012
-0.444419 0.362641 -0.014887 0.372736 -0.872225 -0.455179
0.860671 -0.094815 -0.478756 -1.050176 0.070820 -0.067867
-0.732201 0.273897 -0.747631 -0.353112 -0.761921 0.617756
-0.191911 -0.033178 -0.497955 -0.581219 -0.053773 0.860714
0.244034 -0.032027 0.675563 -1.058073 0.053172 0.049359
0.802876 -0.305310 0.013113 -0.659684 0.811673 0.092040
-0.736698 0.209897 -0.006199 0.450378 -0.734992 -0.607377
-0.443581 0.270011 -0.558959 -0.444161 -0.755433 0.547222
-0.763107 -0.148389 -0.863615 -0.038366 0.504749 0.924862
-0.435973 0.331579 0.038403 0.275165 -0.885431 -0.489931
0.543915 0.403731 -0.365574 -0.136051 -1.001687 0.280831
0.784239 0.329612 0.291995 -0.418334 -0.962729 -0.091471
-0.890009 -0.109965 -0.072035 0.775075 0.184395 -0.683006
0.822911 -0.108009 -0.703177 -0.609131 0.617346 0.581495
0.538744 0.405225 -0.370511 -0.108785 -1.002508 0.285672
0.587623 -0.380754 -0.465188 -0.187165 1.003460 0.238624
0.358325 -0.127612 -0.704022 0.034385 0.327725 0.995738
0.055776 -0.301517 -0.229582 0.160434 0.753826 0.710552
0.946800 -0.209463 0.489160 -0.765884 0.718046 0.062310
-0.770378 0.128008 0.038224 0.717806 -0.232422 -0.734734
-0.319370 -0.279809 -0.450794 -0.406296 0.844872 0.470690
0.217758 -0.129223 0.717418 -1.001034 0.289992 0.126381
-0.565114 0.190179 -0.686649 -0.357961 -0.752683 0.620422
-0.730822 -0.068975 0.129314 0.631031 0.064442 -0.838165
0.473702 -0.048324 0.366001 0.952694 0.236655 -0.352968
-0.650918 0.359302 -0.579682 0.002084 -1.009221 0.264821
0.881813 0.054537 -0.556271 -1.052773 -0.071106 -0.013378
0.181357 -0.348722 -0.319717 0.306659 0.939426 0.336490
-0.270768 -0.341995 0.287402 0.213951 0.969884 -0.338065
0.763271 -0.286291 0.788553 0.122886 1.038116 -0.123510
-0.030200 0.312146 -0.241906 0.031776 -0.760147 0.706146
-0.753979 0.274546 -0.059503 0.722487 -0.590252 -0.482806
0.961869 -0.091443 0.857970 -1.005412 0.270752 0.043330
0.178795 0.140827 0.501265 -0.832124 -0.550501 0.316688
0.510408 -0.321697 -0.611679 -0.157685 0.911978 0.482406
-0.137005 0.043872 0.720236 0.845052 -0.240439 -0.559567
-0.014124 -0.309842 0.286367 -0.676045 0.774372 0.196997
-0.146702 -0.371915 0.053845 -0.433567 0.946084 -0.126068
-0.076169 0.331668 0.215765 -0.707368 -0.742293 0.186129
-0.016639 -0.359242 0.066156 -0.492653 0.855775 -0.351860
-0.557686 0.343515 -0.511056 -0.357122 -0.925543 0.339333
-0.148359 -0.384769 -0.017077 -0.435042 0.953220 -0.039580
-0.235868 -0.230433 0.527075 0.624726 0.647559 -0.535347
0.644308 -0.041682 0.819536 0.872070 -0.115423 -0.569202
0.410569 0.407931 -0.297398 0.314213 -0.961822 0.268828
0.066049 0.255935 0.154153 -0.762688 -0.662255 -0.288050
-0.575127 0.334779 -0.053369 0.379932 -0.858373 -0.487067
0.866478 0.121657 -0.308496 -0.979336 -0.340941 0.202817
0.016109 0.013955 0.895214 0.578587 -0.145542 -0.855530
0.863981 -0.291220 0.369114 -0.773187 0.695402 0.015711
-0.082906 -0.340443 0.090430 -0.433629 0.940814 -0.169362
0.163745 -0.150090 0.450962 -0.953561 0.359040 0.252619
-0.391510 0.362007 0.027365 0.371267 -0.867838 -0.467776
-0.255320 -0.397843 0.121614 -0.069036 1.023486 -0.258199
-0.002600 0.308984 0.383498 -0.663418 -0.796242 0.170223
0.270893 0.010630 0.875593 -0.214614 -0.189132 -1.017217
0.045160 0.285538 -0.267567 0.169615 -0.821802 0.629070
0.991841 -0.089858 0.737032 -1.010258 0.257279 0.041552
-0.435583 -0.037131 -0.755624 -0.685272 0.125484 0.777338
-0.297563 0.153611 -0.562690 -0.645280 -0.420604 0.696103
0.088152 -0.235286 -0.346950 0.403456 0.467193 0.857511
-0.703891 -0.018383 -0.910307 0.033518 -0.012068 1.048739
0.606990 -0.209211 0.558887 0.835754 0.473254 -0.419178
-0.447952 0.368047 -0.057725 0.335082 -0.872712 -0.510050
-0.129440 -0.214068 0.659630 0.626980 0.608469 -0.564369
-0.054914 0.070159 0.839269 0.765069 -0.231090 -0.669631
-0.667449 -0.234889 -0.822608 -0.205488 0.724031 0.717224
0.273091 0.217905 0.098495 0.139480 -0.560289 -0.873687
-0.113628 -0.357529 0.143335 -0.654553 0.796017 0.160881
-0.662607 -0.398476 -0.303267 0.363854 0.945378 -0.284776
0.460382 0.221496 0.182813 0.624459 -0.730920 -0.427419
-1.044363 0.013853 -0.428653 1.003394 -0.263220 -0.138915
0.530946 0.117238 -0.747257 0.182967 -0.223782 1.007694
-0.491282 0.023629 -0.791437 -0.604261 0.008672 0.831587
0.628528 -0.152483 0.733323 0.887544 0.542888 -0.183903
-0.320651 0.275733 0.369130 0.417685 -0.843167 -0.475650
-0.866362 -0.180083 -0.042890 0.701422 0.468473 -0.613460
0.741438 0.298051 -0.312789 -0.669134 -0.799888 0.135551
0.743499 -0.318005 -0.242835 -0.642408 0.815801 0.156337
-0.988735 -0.234189 -0.672865 0.924245 0.504628 0.047947
-0.210320 0.283680 -0.352380 -0.426825 -0.726121 0.615510
-0.871800 -0.123266 -0.067201 0.744304 0.109685 -0.720006
-0.793313 0.239327 -0.814394 0.044717 -0.584233 0.867003
-0.601423 -0.313003 -0.635971 -0.392855 0.781652 0.561257
-0.807609 0.296962 -0.200201 0.462497 -0.843402 -0.419822
-0.721402 0.322311 -0.155677 0.419484 -0.835154 -0.471278
0.293602 0.186955 0.114287 0.138531 -0.561348 -0.868291
-0.861020 0.337576 -0.611149 0.117217 -1.044295 -0.068634
-1.037713 -0.125946 -0.324100 0.855657 0.205138 -0.562220
0.175976 0.168079 0.546587 -0.826846 -0.587803 0.297008
-0.536837 -0.342134 -0.503887 -0.270052 0.864332 0.508712
0.940491 0.165422 -0.019027 -0.819986 -0.654234 -0.007088
-0.802120 0.313954 -0.232837 0.434332 -0.850250 -0.448329
-0.227901 -0.060299 -0.516173 -0.649276 0.102062 0.808773
0.508450 0.197876 -0.705308 0.042877 -0.751475 0.722471
0.619736 -0.414021 -0.064435 -0.335103 0.987931 -0.058823
-0.936006 0.040438 -0.105249 0.883547 -0.104242 -0.559737
-0.972465 0.338384 -0.694021 0.113799 -1.056987 -0.113700
0.986166 0.073731 0.377297 -0.987985 -0.342057 0.120954
-0.814486 0.315646 -0.214085 0.445091 -0.833280 -0.455997
0.849858 -0.264986 -0.083930 -0.562119 0.879069 0.107654
-0.183873 0.313429 0.429884 0.338063 -0.900936 -0.432645
0.113593 -0.156566 0.345396 -0.947633 0.347072 0.275041
-0.503098 -0.372141 -0.370315 -0.318193 0.916311 0.376369
0.290410 -0.291544 0.006015 0.184566 0.843398 -0.588700
-0.268750 0.385988 -0.166653 -0.262835 -0.960970 0.343598
0.718551 0.327072 -0.206203 -0.824520 -0.650397 -0.020068
-0.724918 -0.360550 -0.663145 0.170913 1.012100 0.206474
0.349727 -0.319350 -0.005419 0.192213 0.858164 -0.578010
-0.793377 -0.071269 0.062754 0.737457 0.141368 -0.730175
0.873594 0.232921 0.397144 -0.826042 -0.645972 0.100957
0.800877 -0.120983 0.951275 0.048198 0.316866 -0.976675
-0.117582 -0.275433 0.577641 0.333496 0.940624 -0.340296
-0.498161 -0.288513 -0.582410 -0.440014 0.783960 0.520555
1.003114 -0.008941 0.707744 -1.020812 0.247852 0.024307
0.216798 -0.389472 -0.173697 0.044839 1.039488 -0.179772
-0.732740 0.325778 -0.185072 0.460999 -0.845310 -0.421018
-0.672187 0.370195 -0.520923 0.091566 -1.045912 0.077577
0.467139 0.040264 0.323969 0.861175 -0.383678 -0.452793
0.159420 0.116833 0.858147 -0.239993 -0.498392 -0.885525
0.846056 -0.300905 0.771014 0.026811 1.031815 -0.201489
-0.330496 -0.379580 0.153325 0.218897 0.995717 -0.299233
-0.964889 -0.297832 -0.635514 0.656916 0.801565 -0.173886
0.445368 0.342292 0.012678 0.315761 -0.938054 -0.351684
-0.208385 0.185937 -0.468659 -0.502559 -0.686306 0.593957
-0.685307 0.282254 -0.054070 0.395483 -0.854949 -0.464181
-1.000868 0.064445 -0.277449 0.887694 -0.134234 -0.530417
-0.348643 0.359930 -0.299322 -0.401364 -0.833063 0.492400
-1.004457 -0.121876 -0.275390 0.902521 0.396582 -0.351626
-0.240763 0.275718 -0.371006 -0.420333 -0.733796 0.604903
-0.280723 0.004888 -0.614579 -0.666378 0.108606 0.773420
0.958325 -0.159563 0.187564 -0.915976 0.520436 -0.052598
-1.008062 0.250296 -0.534066 0.682104 -0.790752 -0.058534
0.579846 -0.296777 0.234710 0.547722 0.820743 -0.336042
-0.945611 0.033678 -0.884121 0.005078 -0.214150 1.015192
0.801220 -0.291451 0.669797 -0.023131 1.054603 -0.098082
-0.222437 -0.200131 0.561969 0.677075 0.449736 -0.662016
-1.017135 -0.170434 -0.624079 0.952325 0.442380 0.029272
-0.947950 0.120077 -0.872797 -0.005646 -0.225646 1.025314
0.890180 -0.261770 0.114259 -0.817368 0.660732 -0.077526
0.670546 0.163659 0.795863 0.698460 -0.480265 -0.616142
-0.372706 0.401261 -0.235294 -0.264373 -0.975397 0.281589
0.832227 0.149368 -0.452752 -0.971021 -0.412200 -0.031962
-0.850981 0.202226 -0.841300 0.039362 -0.526578 0.901957
-0.460379 0.189278 0.322571 0.588645 -0.345156 -0.796451
-0.318407 -0.355698 -0.323610 -0.219242 0.964945 0.349564
0.015339 -0.309744 0.403463 -0.675259 0.780828 0.174312
-0.698863 -0.121401 -0.870516 -0.041807 0.509306 0.910387
0.411641 -0.353953 -0.029616 0.192866 0.858812 -0.562896
0.191590 -0.145526 0.589569 -0.939280 0.357168 0.288905
-1.051355 -0.108167 -0.732987 0.985572 0.366349 0.015140
-0.236196 0.278168 0.455266 0.510531 -0.807431 -0.418804
-0.882871 -0.334564 -0.456853 0.504278 0.886612 -0.253252
0.289918 -0.109428 -0.722844 0.485774 0.352833 0.860516
0.964368 0.024686 0.886682 -0.915845 -0.244020 -0.451552
-0.384127 -0.318313 -0.453980 -0.336180 0.830979 0.531807
-0.951383 -0.267967 -0.436329 0.524568 0.869273 -0.241741
-1.038379 -0.166205 -0.550533 0.929511 0.469266 0.021340
-0.991366 -0.127688 -0.249510 0.885158 0.157221 -0.539266
0.431947 -0.397815 -0.327241 0.201317 0.992872 0.283078
