ply
format ascii 1.0
element vertex 256
property float x
property float y
property float z
property float nx
property float ny
property float nz
property uchar red
property uchar green
property uchar blue
end_header
0.334360 -0.016510 0.640382 -0.986301 -0.112760 -0.120398 1 113 112
0.134713 -0.137829 0.667702 0.012577 0.464386 -0.885544 129 186 14
-0.127677 0.219612 -0.694931 0.417159 -0.908033 -0.038152 180 11 122
0.125605 -0.184262 0.064257 -0.739192 0.665178 0.105517 33 212 140
0.094138 -0.063458 -0.343135 -0.967552 0.100570 0.231796 4 140 157
-0.074287 0.084667 0.230658 0.757282 -0.106251 -0.644387 224 113 45
0.090256 0.181166 0.667923 0.009672 -0.374443 -0.927199 128 79 9
0.269841 0.077126 0.276437 -0.836559 -0.316272 0.447372 20 87 184
-0.259124 -0.006325 -0.711842 0.997464 -0.071121 0.002725 254 118 127
0.010494 -0.228277 -0.333320 -0.606660 0.780196 0.152504 50 226 146
-0.312910 0.092181 0.496596 0.915171 -0.239056 -0.324523 244 97 86
-0.197952 0.111058 -0.240487 0.834555 -0.423106 -0.352845 233 73 82
0.329817 -0.103762 0.561051 -0.987093 0.158206 0.024885 1 147 130
0.334046 -0.083695 0.601212 -0.987093 0.158206 0.024885 1 147 130
0.032612 0.127988 -0.497043 -0.871975 -0.360542 0.331162 16 81 169
0.021607 0.134473 -0.518959 -0.871975 -0.360542 0.331162 16 81 169
-0.309393 0.001674 0.526212 0.727738 0.025199 -0.685393 220 130 40
0.139119 -0.176936 0.112748 -0.739192 0.665178 0.105517 33 212 140
-0.255749 0.037136 -0.694639 0.990792 -0.135317 -0.004521 253 110 126
-0.298325 0.032131 0.386934 0.431669 -0.153435 0.888887 182 107 240
0.021791 -0.041361 -0.561978 -0.875279 0.128114 0.466340 15 143 186
-0.025284 -0.042544 0.695191 0.033842 0.176446 -0.983728 131 149 2
0.098240 0.167048 -0.227563 -0.795109 -0.478583 0.372507 26 66 174
0.351638 0.036420 0.448008 -0.933371 -0.354891 -0.053577 8 82 120
0.058199 0.090837 -0.464107 -0.890045 -0.356245 0.284446 14 82 163
-0.223123 -0.178653 -0.645989 0.879978 0.424616 0.212931 239 181 154
0.186035 0.054754 0.029711 -0.975660 -0.201625 0.086228 3 101 138
0.017337 -0.207031 -0.414160 -0.589045 0.789274 0.173414 52 228 149
-0.215302 -0.113956 0.586746 0.465866 0.422257 -0.777604 186 181 28
-0.329061 -0.057558 0.486977 0.871586 0.176095 -0.457525 238 149 69
0.036491 0.023234 0.704063 0.062156 -0.075064 -0.995240 135 117 0
0.291296 0.026742 0.299765 -0.870247 0.024615 0.492001 16 130 190
-0.244663 0.091364 -0.736798 0.979023 -0.203748 0.000948 252 101 127
0.072168 0.057308 -0.801085 -0.895400 -0.360554 -0.261267 13 81 94
-0.000757 -0.110482 -0.601909 -0.986125 0.137027 -0.093706 1 144 115
0.045521 0.179840 0.337860 0.599306 -0.683168 -0.417270 203 40 74
-0.075448 0.236683 -0.843332 0.164824 -0.984693 0.056681 148 1 134
0.003256 -0.089246 -0.613091 -0.986125 0.137027 -0.093706 1 144 115
-0.194242 -0.162118 0.573301 0.511581 0.411303 -0.754397 192 179 31
-0.003793 -0.126969 -0.586478 -0.875279 0.128114 0.466340 15 143 186
0.235053 0.224380 0.607037 -0.438566 -0.834816 -0.332780 71 21 85
0.101957 0.184988 -0.196229 -0.803488 -0.473255 0.361161 25 67 173
-0.168832 0.031082 0.022227 0.989838 -0.035507 -0.137699 253 122 109
0.140131 0.178672 0.099707 -0.798507 -0.594023 0.097584 25 51 139
0.043945 -0.155061 0.656198 0.020007 0.486225 -0.873605 130 189 16
0.229068 0.233721 0.591491 -0.438566 -0.834816 -0.332780 71 21 85
-0.172193 -0.086808 -0.904385 0.900748 0.287717 0.325381 242 164 168
-0.089292 -0.192496 0.110793 0.777980 0.412500 -0.473910 226 180 67
-0.050398 -0.010795 0.272143 0.826213 0.182103 -0.533114 232 150 59
0.030581 -0.178113 0.412135 0.865340 0.495180 0.077351 237 190 137
0.003007 -0.061348 0.390701 0.989597 0.141139 -0.027881 253 145 123
-0.069657 -0.246806 0.006136 0.348563 0.935331 -0.060504 171 246 119
0.051537 -0.231605 0.221874 0.293754 0.929005 -0.225074 164 245 98
-0.032366 0.255127 -0.174368 0.059466 -0.998020 -0.020471 135 0 124
-0.116956 0.246752 -0.531905 0.451864 -0.875047 0.173525 185 15 149
0.023357 -0.169729 0.435135 0.462883 0.524396 0.714666 186 194 218
-0.078948 -0.247736 -0.061755 0.348563 0.935331 -0.060504 171 246 119
-0.225013 -0.126064 0.574353 0.465866 0.422257 -0.777604 186 181 28
-0.105126 -0.238368 -0.231988 0.786637 0.616114 -0.040071 227 206 122
-0.191942 -0.214696 -0.604836 0.313310 0.942377 0.117316 167 247 142
0.075707 0.105610 -0.891605 -0.905034 -0.362872 -0.221897 12 81 99
-0.176223 0.090410 0.381500 -0.106129 -0.469470 0.876547 113 67 239
-0.068761 0.238556 -0.059074 0.475381 -0.879703 -0.011677 188 15 126
0.164170 0.256931 0.426022 -0.252725 -0.918578 0.303883 95 10 166
-0.049774 0.059300 0.263648 0.757282 -0.106251 -0.644387 224 113 45
0.094969 -0.002356 -0.837358 -0.958510 0.045790 -0.281356 5 133 91
-0.122606 0.225214 -0.772831 0.417159 -0.908033 -0.038152 180 11 122
0.072518 0.230220 -0.072596 -0.628721 -0.772025 0.093208 47 29 139
-0.093042 -0.214467 -0.897491 0.450376 0.858685 0.244586 184 236 158
0.114357 0.072456 -0.972692 -0.947937 -0.272332 -0.165079 6 92 106
0.343711 -0.021311 0.530490 -0.981345 0.190836 0.023323 2 151 130
-0.078137 -0.225976 -0.569367 -0.453635 0.879026 0.146729 69 239 146
0.334251 -0.083273 0.606653 -0.987093 0.158206 0.024885 1 147 130
0.178077 -0.249764 0.417423 -0.113514 0.967323 0.226717 113 250 156
-0.143124 -0.180904 -0.182529 0.919570 0.391169 -0.037110 244 177 122
0.021766 -0.199459 -0.906726 -0.545727 0.836964 -0.040897 57 234 122
-0.121832 0.193165 -0.000952 0.893024 -0.445782 -0.061533 241 70 119
0.193032 0.161234 0.231666 -0.840285 -0.485043 0.242186 20 65 158
-0.174561 0.119183 -0.172857 0.872698 -0.482870 -0.072355 238 65 118
0.157970 0.218648 0.264650 -0.434127 -0.893055 0.118266 72 13 142
0.000285 -0.039039 0.407014 0.989597 0.141139 -0.027881 253 145 123
-0.142255 0.144762 0.053304 0.893024 -0.445782 -0.061533 241 70 119
0.193771 -0.031559 0.704698 0.033842 0.176446 -0.983728 131 149 2
-0.151229 -0.156280 -0.123816 0.919570 0.391169 -0.037110 244 177 122
0.188039 0.137280 0.686666 0.009672 -0.374443 -0.927199 128 79 9
0.156058 -0.076083 0.693870 0.015272 0.242815 -0.969952 129 158 3
-0.227987 -0.162565 0.415448 0.039190 0.572304 0.819105 132 200 231
-0.047201 0.256942 -0.307180 -0.020333 -0.999685 -0.014695 124 0 125
-0.200146 -0.035736 -0.859532 0.896326 0.120341 0.426752 241 142 181
-0.058069 0.243203 0.026106 0.475381 -0.879703 -0.011677 188 15 126
-0.007047 0.248331 -0.330690 -0.664935 -0.684894 0.297963 42 40 165
-0.196846 -0.023237 -0.173750 0.977113 0.142441 -0.157987 252 145 107
0.023813 0.164160 0.419130 0.882798 -0.449458 0.136582 240 70 144
-0.246096 0.085119 -0.599226 0.979023 -0.203748 0.000948 252 101 127
0.104190 -0.055514 -0.878285 -0.939765 0.293781 -0.174742 7 164 105
-0.216588 0.078622 -0.820049 0.918527 -0.175077 0.354481 244 105 172
-0.252399 -0.093359 -0.443124 0.993818 0.090795 0.063885 254 139 135
-0.205899 -0.194392 -0.526901 0.801739 0.591413 -0.086281 229 202 116
-0.031744 -0.160262 0.233322 0.777980 0.412500 -0.473910 226 180 67
-0.257152 0.019911 -0.486418 0.990792 -0.135317 -0.004521 253 110 126
-0.015400 -0.116396 -1.038982 -0.144313 0.314236 0.938312 109 167 247
-0.259746 -0.003314 -0.359806 0.990792 -0.135317 -0.004521 253 110 126
-0.149478 -0.183600 0.576963 0.343629 0.880653 -0.326143 171 239 85
0.042557 0.146771 -0.433080 -0.892578 -0.390797 0.224906 13 77 156
0.014327 0.163735 -0.501484 -0.763666 -0.566237 0.310143 30 55 167
0.150371 0.147368 -0.007064 -0.798507 -0.594023 0.097584 25 51 139
0.125821 -0.260248 0.547198 0.106819 0.970115 -0.217869 141 251 99
0.007262 -0.059719 -0.612068 -0.986125 0.137027 -0.093706 1 144 115
0.054029 0.091953 -0.475758 -0.890045 -0.356245 0.284446 14 82 163
0.323768 -0.133511 0.559822 -0.909756 0.393415 0.132549 11 177 144
-0.051077 -0.173438 -1.010411 -0.053766 0.610388 0.790276 120 205 228
-0.279538 0.075184 0.538964 0.644733 -0.316703 -0.695714 209 87 38
-0.195605 0.200292 -0.407829 0.835273 -0.546863 -0.057093 233 57 120
0.059800 0.231412 -0.149223 -0.669055 -0.741953 0.043260 42 32 133
-0.073233 -0.235716 -0.856923 0.242141 0.969263 0.043557 158 251 133
0.017517 0.087450 0.698035 0.062156 -0.075064 -0.995240 135 117 0
-0.147050 -0.018880 -1.010865 0.923028 -0.259977 0.283603 245 94 163
-0.217977 -0.161488 -0.413594 0.801739 0.591413 -0.086281 229 202 116
-0.202657 0.167114 -0.756198 0.825733 -0.513982 0.232351 232 61 157
0.306129 -0.139280 0.455739 -0.919092 0.381258 0.099562 10 176 140
-0.171756 0.113153 0.611267 0.486475 -0.369154 -0.791875 189 80 26
0.105009 0.233114 0.191861 -0.206828 -0.970450 0.124298 101 3 143
-0.191177 -0.205233 0.476083 0.270042 0.942339 0.197672 161 247 152
-0.158304 -0.235241 -0.443259 0.566299 0.811834 -0.142237 199 231 109
-0.242395 -0.147500 0.538257 0.611217 0.582996 -0.535285 205 201 59
0.086492 0.089851 -1.046383 0.082365 -0.287991 0.954085 138 90 249
-0.128066 -0.143697 -0.966525 0.916897 0.320968 0.237232 244 168 157
-0.174990 -0.043436 -0.924661 0.968270 0.088843 0.233582 250 138 157
-0.081477 0.200094 0.119933 0.461037 -0.822020 -0.334258 186 22 84
-0.193121 0.194126 -0.704633 0.306099 -0.944958 0.115576 166 7 142
-0.036523 -0.074510 0.435912 -0.467115 0.067828 0.881591 67 136 239
-0.225844 -0.037524 0.359825 0.172237 0.253467 0.951887 149 159 248
-0.033677 0.255193 -0.219448 -0.063768 -0.996024 0.062215 119 0 135
0.302892 -0.144543 0.446013 -0.919092 0.381258 0.099562 10 176 140
0.101078 0.173927 0.670959 0.009672 -0.374443 -0.927199 128 79 9
0.066725 0.105064 -0.406846 -0.925734 -0.349746 0.143856 9 82 145
-0.240322 -0.094913 -0.670771 0.963476 0.265511 0.034891 250 161 131
0.015484 -0.113423 0.374532 0.952529 0.256307 0.164304 248 160 148
0.183705 0.158427 0.193685 -0.840285 -0.485043 0.242186 20 65 158
-0.099789 0.011129 0.194648 0.860761 0.087396 -0.501450 237 138 63
-0.027048 -0.227722 0.118450 0.476479 0.747303 -0.463148 188 222 68
-0.304837 -0.118442 0.498606 0.611217 0.582996 -0.535285 205 201 59
-0.049236 -0.225791 0.098738 0.476479 0.747303 -0.463148 188 222 68
0.217528 0.103119 0.200267 -0.840285 -0.485043 0.242186 20 65 158
-0.256781 0.021154 -0.442431 0.990792 -0.135317 -0.004521 253 110 126
-0.252759 0.053087 -0.602805 0.979023 -0.203748 0.000948 252 101 127
0.062136 -0.243459 0.126240 -0.376179 0.920356 -0.106929 79 244 113
0.049415 -0.068520 -0.725406 -0.824139 0.237023 -0.514407 22 157 61
-0.149567 -0.037863 -1.020075 0.923028 -0.259977 0.283603 245 94 163
-0.135353 -0.238754 -0.368348 0.594630 0.796688 -0.108177 203 229 113
0.015201 -0.202152 -0.874221 -0.545727 0.836964 -0.040897 57 234 122
-0.049719 0.100179 0.252349 0.721724 -0.272510 -0.636281 219 92 46
0.305718 -0.013557 0.335192 -0.939540 0.080994 0.332724 7 137 169
0.015882 -0.164176 -0.504216 -0.782761 0.500121 0.370357 27 191 174
-0.144394 -0.000214 -1.002399 0.923028 -0.259977 0.283603 245 94 163
-0.142572 -0.144158 -0.929832 0.870623 0.317375 0.375883 238 167 175
-0.186146 0.094052 0.611331 0.486475 -0.369154 -0.791875 189 80 26
-0.194260 0.055771 -0.877482 0.844872 -0.271208 0.461127 235 92 186
-0.037703 0.234902 0.094710 0.461037 -0.822020 -0.334258 186 22 84
0.141022 -0.065929 -0.217880 -0.837475 0.460464 0.294292 20 186 165
-0.077972 0.087102 0.674144 0.358894 -0.130218 -0.924250 173 110 9
-0.228278 0.144049 -0.419073 0.947686 -0.313801 -0.058490 248 87 120
-0.257932 0.013362 -0.461357 0.990792 -0.135317 -0.004521 253 110 126
-0.079342 0.213108 -0.663384 -0.590346 -0.718859 -0.367062 52 35 80
0.185661 -0.166589 0.218671 -0.737245 0.568943 0.364383 33 200 173
0.093977 -0.053393 -0.842286 -0.958510 0.045790 -0.281356 5 133 91
-0.020928 -0.165825 -1.014239 -0.053766 0.610388 0.790276 120 205 228
0.194616 0.225749 0.357086 -0.252725 -0.918578 0.303883 95 10 166
0.101918 0.249602 0.586205 0.160251 -0.895777 -0.414612 147 13 74
0.231599 0.178515 0.659115 -0.077433 -0.517572 -0.852129 117 61 18
-0.119006 0.028315 0.661150 0.458254 -0.004903 -0.888808 185 126 14
-0.093505 0.139081 0.429595 -0.513746 -0.324961 0.794018 61 86 228
-0.153986 0.128423 0.609681 0.310156 -0.534296 -0.786341 167 59 27
-0.006363 0.078422 0.427018 0.200087 -0.111831 0.973375 153 113 251
0.251177 0.066822 0.239361 -0.845706 -0.167483 0.506687 19 106 192
-0.155492 -0.025309 0.643849 0.419348 -0.001828 -0.907824 180 127 11
-0.000789 0.093181 -0.597537 -0.966640 -0.192383 0.169103 4 102 149
-0.259889 -0.024661 -0.617141 0.999973 0.007346 0.000730 254 128 127
-0.317304 -0.075875 0.403617 0.574156 0.410561 0.708368 200 179 217
-0.179662 -0.199085 0.468750 -0.218124 0.865826 0.450297 99 237 184
0.303170 -0.105306 0.683169 -0.295702 0.550711 -0.780562 89 197 27
-0.168868 -0.233807 -0.512945 0.313310 0.942377 0.117316 167 247 142
-0.145262 0.204397 -0.809238 0.592870 -0.768492 0.240676 203 29 158
-0.146317 -0.119034 0.627155 0.393793 0.508293 -0.765875 177 192 29
0.095131 -0.128219 -0.285236 -0.893676 0.358151 0.270316 13 173 161
0.227468 0.133447 0.252719 -0.686649 -0.559440 0.464264 39 56 186
-0.082878 0.230652 -0.038340 0.475381 -0.879703 -0.011677 188 15 126
-0.226705 -0.174973 -0.587126 0.801739 0.591413 -0.086281 229 202 116
-0.043718 0.256313 -0.269228 -0.020333 -0.999685 -0.014695 124 0 125
-0.069642 0.118797 0.436733 -0.513746 -0.324961 0.794018 61 86 228
-0.192596 -0.214202 -0.598504 0.733697 0.679458 -0.005098 221 214 126
-0.339734 -0.018169 0.481806 0.871586 0.176095 -0.457525 238 149 69
-0.020429 0.187956 0.227775 0.627703 -0.602700 -0.492688 207 50 64
0.013568 0.073605 -1.051274 -0.014678 -0.309147 0.950901 125 88 248
0.232384 0.149287 0.279077 -0.686649 -0.559440 0.464264 39 56 186
-0.139156 0.246929 -0.444159 0.402420 -0.914967 0.029900 178 10 131
-0.196533 -0.187120 -0.720236 0.827122 0.470166 0.307918 232 187 166
-0.074763 -0.102582 0.665141 0.283188 0.504084 -0.815907 163 191 23
-0.237315 -0.151659 -0.558777 0.928752 0.365837 -0.059864 245 174 119
0.252538 0.225201 0.436699 -0.434743 -0.864489 0.252303 72 17 159
0.107482 0.088159 -0.972241 -0.867819 -0.413202 -0.275961 16 74 92
0.095430 -0.179652 -0.167594 -0.873396 0.465169 0.144209 16 186 145
0.239465 0.046290 0.213026 -0.845706 -0.167483 0.506687 19 106 192
-0.158745 -0.063283 0.014602 0.969835 0.175519 -0.169157 251 149 105
0.348287 0.007122 0.490400 -0.981345 0.190836 0.023323 2 151 130
-0.119946 0.175711 0.442357 -0.308700 -0.548573 0.777028 88 57 226
0.150520 0.052819 -0.229059 -0.909282 -0.185163 0.372721 11 103 175
0.090812 -0.227793 0.108965 -0.535152 0.834882 0.128782 59 233 143
0.039007 0.099176 -0.737413 -0.856132 -0.285296 -0.430864 18 91 72
-0.316432 0.099454 0.468635 0.857511 -0.509713 -0.069772 236 62 118
0.104453 -0.242990 0.346343 0.295382 0.948891 0.111156 165 248 141
0.302684 -0.158382 0.488928 -0.909756 0.393415 0.132549 11 177 144
0.322207 0.089006 0.612411 -0.933371 -0.354891 -0.053577 8 82 120
-0.003438 0.069777 -0.644739 -0.968503 -0.205318 0.140877 4 101 145
-0.236576 0.186685 0.506349 0.643438 -0.527015 -0.555196 209 60 56
-0.046094 -0.195959 -0.626875 -0.505709 0.837844 0.205610 63 234 153
0.298180 0.159401 0.431316 -0.750722 -0.547291 0.369985 31 57 174
-0.240583 0.135121 0.406703 0.084457 -0.451476 0.888277 138 69 240
0.284245 -0.185346 0.430120 -0.919092 0.381258 0.099562 10 176 140
0.085870 -0.197487 -0.108045 -0.535152 0.834882 0.128782 59 233 143
-0.031554 0.243729 0.081484 0.461037 -0.822020 -0.334258 186 22 84
-0.037267 -0.254613 0.005696 0.076897 0.994343 -0.073271 137 254 118
0.199190 -0.231931 0.372278 -0.731348 0.619013 0.286275 34 206 164
0.043600 -0.174513 -0.869603 -0.789262 0.610522 -0.065792 26 205 119
-0.056485 0.219701 -0.950312 0.506916 -0.841471 0.186985 192 20 151
0.164946 -0.158747 0.147602 -0.875690 0.358076 0.323957 15 173 168
0.214290 0.008647 0.149022 -0.934047 0.123318 0.335186 8 143 170
0.145551 0.190022 0.153142 -0.753477 -0.585889 0.298341 31 52 165
-0.023960 -0.196940 0.202687 0.669232 0.590562 -0.450959 212 202 70
-0.040496 0.251540 -0.023091 0.059466 -0.998020 -0.020471 135 0 124
-0.041309 0.190660 0.640979 0.242122 -0.873244 -0.422874 158 16 73
0.100739 -0.062396 -0.871293 -0.939765 0.293781 -0.174742 7 164 105
0.204237 0.063280 0.137253 -0.894581 -0.243989 0.374425 13 96 175
0.234627 -0.062730 0.222599 -0.828152 0.322681 0.458303 21 168 185
0.317138 -0.027520 0.370837 -0.939540 0.080994 0.332724 7 137 169
-0.258519 0.006478 -0.383927 0.990792 -0.135317 -0.004521 253 110 126
0.061996 0.110455 -0.419035 -0.892578 -0.390797 0.224906 13 77 156
-0.020122 -0.219056 -0.934620 -0.362562 0.889266 0.278847 81 240 163
-0.267509 0.053789 0.559851 0.644733 -0.316703 -0.695714 209 87 38
-0.139465 -0.053053 0.121455 0.861438 0.041714 -0.506146 237 132 62
0.049996 0.250588 0.132572 -0.403159 -0.908797 -0.107474 76 11 113
-0.302244 -0.110550 0.509269 0.613582 0.507353 -0.605070 205 192 50
-0.127916 -0.115979 0.422223 -0.548333 0.307644 0.777616 57 166 226
-0.133800 -0.084944 0.128468 0.861438 0.041714 -0.506146 237 132 62
0.064723 -0.218184 0.325475 0.691641 0.664813 -0.282236 215 212 91
-0.183782 -0.063376 -0.129143 0.977113 0.142441 -0.157987 252 145 107
0.123558 -0.257215 0.559592 0.106819 0.970115 -0.217869 141 251 99
0.125428 -0.153464 -0.070382 -0.873396 0.465169 0.144209 16 186 145
-0.170169 -0.116181 -0.170486 0.919570 0.391169 -0.037110 244 177 122
0.129806 0.237861 0.335261 -0.436623 -0.897138 0.067115 71 13 136
0.279508 0.192552 0.452092 -0.839469 -0.538517 0.072747 20 58 136
-0.247262 0.079576 -0.587028 0.979023 -0.203748 0.000948 252 101 127
-0.058745 -0.217446 -0.947204 0.435810 0.860684 0.263234 183 237 161
-0.171153 -0.203137 -0.335299 0.806999 0.493282 -0.324693 230 190 86
0.028590 0.047820 -0.697004 -0.828512 -0.181830 -0.529628 21 104 59
0.033586 -0.238441 -0.213917 -0.462275 0.846447 0.264251 68 235 161
