ply
format ascii 1.0
element vertex 1024
property float x
property float y
property float z
property float nx
property float ny
property float nz
property uchar red
property uchar green
property uchar blue
end_header
-0.187829 0.211945 -0.565819 0.705472 -0.706070 0.061439 217 37 135
0.335862 -0.010195 0.414967 -0.923768 0.110464 0.366676 9 141 174
0.065905 -0.217271 -0.149027 -0.773224 0.633411 0.030243 28 208 131
-0.145712 -0.246340 -0.474593 0.368521 0.928495 0.045705 174 245 133
0.331009 0.090624 0.448336 -0.933371 -0.354891 -0.053577 8 82 120
-0.221450 -0.148076 -0.712922 0.827122 0.470166 0.307918 232 187 166
-0.148573 0.190013 -0.847584 0.593714 -0.769013 0.236901 203 29 157
0.059328 -0.240897 0.063082 -0.535152 0.834882 0.128782 59 233 143
0.091066 0.207873 -0.132578 -0.628721 -0.772025 0.093208 47 29 139
-0.033331 0.234387 -0.846824 -0.673376 -0.735628 0.073598 41 33 136
0.057301 -0.231887 -0.062875 -0.773224 0.633411 0.030243 28 208 131
-0.169057 -0.017884 0.002584 0.969835 0.175519 -0.169157 251 149 105
-0.181249 0.004300 -0.060127 0.989838 -0.035507 -0.137699 253 122 109
0.207591 0.128315 0.216250 -0.840285 -0.485043 0.242186 20 65 158
-0.029964 -0.195741 -0.991748 -0.053766 0.610388 0.790276 120 205 228
-0.116950 0.243704 -0.547291 0.451864 -0.875047 0.173525 185 15 149
0.205928 0.075582 0.149311 -0.894581 -0.243989 0.374425 13 96 175
0.132096 0.038412 -1.036734 -0.991191 0.003568 -0.132395 1 127 110
-0.129659 0.221190 -0.754175 0.417159 -0.908033 -0.038152 180 11 122
-0.080344 0.256701 -0.403706 -0.063608 -0.995085 0.075888 119 0 137
-0.203486 0.159117 -0.311205 0.834555 -0.423106 -0.352845 233 73 82
-0.152279 0.100975 -0.956069 0.925103 -0.366125 0.100682 245 80 140
-0.176904 0.222425 -0.516214 0.306099 -0.944958 0.115576 166 7 142
0.238389 -0.070573 0.696545 0.015272 0.242815 -0.969952 129 158 3
-0.150242 0.151066 -0.092312 0.872698 -0.482870 -0.072355 238 65 118
0.036011 0.256492 -0.099805 -0.440309 -0.897711 0.015617 71 13 129
0.246863 0.077175 0.707055 0.012069 -0.258614 -0.965905 129 94 4
-0.029878 0.198421 0.500707 0.352217 -0.911159 0.213852 172 11 154
0.111253 0.223796 0.132847 -0.753477 -0.585889 0.298341 31 52 165
-0.108441 0.085902 -1.044375 0.968263 -0.249702 -0.010711 250 95 126
0.153487 0.129513 -0.090257 -0.798507 -0.594023 0.097584 25 51 139
0.176369 -0.103817 0.112902 -0.908908 0.400083 0.117556 11 178 142
-0.157907 -0.139783 -0.115422 0.919570 0.391169 -0.037110 244 177 122
-0.061513 -0.187241 0.486081 -0.385701 0.469742 0.794089 78 187 228
0.106270 0.187090 -0.150994 -0.822399 -0.562505 0.085135 22 55 138
0.148694 -0.061576 -0.202858 -0.837475 0.460464 0.294292 20 186 165
-0.049969 0.187023 -1.007793 0.350803 -0.586249 0.730239 172 52 220
-0.056641 0.082163 0.430152 -0.513746 -0.324961 0.794018 61 86 228
-0.173572 -0.143122 -0.845684 0.911143 0.291555 0.291228 243 164 164
0.194820 0.136440 0.188214 -0.840285 -0.485043 0.242186 20 65 158
-0.312043 0.099438 0.493698 0.915171 -0.239056 -0.324523 244 97 86
0.124537 -0.107562 -0.199652 -0.837475 0.460464 0.294292 20 186 165
0.013357 0.134704 -1.031413 -0.014678 -0.309147 0.950901 125 88 248
0.211894 -0.183453 0.299913 -0.731348 0.619013 0.286275 34 206 164
-0.165582 -0.116128 -0.056241 0.919570 0.391169 -0.037110 244 177 122
0.023886 -0.239013 -0.229054 -0.462275 0.846447 0.264251 68 235 161
-0.130592 -0.202648 -0.182696 0.786637 0.616114 -0.040071 227 206 122
-0.135257 -0.248564 -0.503567 0.367610 0.920090 0.135265 174 244 144
0.128438 -0.039963 0.700943 0.033842 0.176446 -0.983728 131 149 2
-0.239466 0.083044 -0.758586 0.918527 -0.175077 0.354481 244 105 172
0.046035 -0.154599 -0.404737 -0.895790 0.397584 0.198715 13 178 152
0.241376 0.190975 0.650659 -0.077433 -0.517572 -0.852129 117 61 18
0.093927 0.108465 -0.960016 -0.867819 -0.413202 -0.275961 16 74 92
-0.073314 0.183096 -0.997383 0.637243 -0.585431 0.501190 208 52 191
0.008665 0.185020 -0.773671 -0.672273 -0.709145 -0.212517 41 37 100
-0.035590 -0.230073 0.105867 0.476479 0.747303 -0.463148 188 222 68
-0.061860 0.242612 -0.083612 0.475381 -0.879703 -0.011677 188 15 126
0.048696 0.232149 0.603341 0.160251 -0.895777 -0.414612 147 13 74
0.055703 -0.029644 -0.496748 -0.936451 -0.022663 0.350066 8 124 172
-0.005985 -0.215257 -0.859724 -0.545727 0.836964 -0.040897 57 234 122
-0.289763 0.030313 0.543154 0.741374 -0.201295 -0.640191 222 101 45
0.067323 -0.051631 -0.450114 -0.969001 0.040843 0.243658 3 132 158
-0.015871 -0.188665 -0.714628 -0.692700 0.679197 -0.242607 39 214 96
0.109369 0.149374 -0.226408 -0.803488 -0.473255 0.361161 25 67 173
0.271943 0.115609 0.307573 -0.836559 -0.316272 0.447372 20 87 184
-0.005663 -0.244802 0.112890 0.476479 0.747303 -0.463148 188 222 68
-0.057545 0.189999 0.485185 -0.418139 -0.902891 -0.099734 74 12 114
0.036954 -0.059070 -1.048118 -0.155875 0.245511 0.956780 107 158 249
-0.049625 0.250072 -0.147524 0.475381 -0.879703 -0.011677 188 15 126
-0.112346 0.070952 -1.048793 0.968263 -0.249702 -0.010711 250 95 126
-0.025114 0.137397 0.450742 0.500029 -0.239284 0.832295 191 96 233
-0.277750 0.129614 0.415142 0.262335 -0.557741 0.787468 160 56 227
-0.058587 -0.074988 0.241000 0.811850 0.164790 -0.560128 231 148 56
0.003314 -0.064943 0.383421 0.989597 0.141139 -0.027881 253 145 123
-0.129568 -0.065353 -1.048440 0.759477 0.447324 0.472330 224 184 187
0.183621 0.157121 0.190774 -0.840285 -0.485043 0.242186 20 65 158
0.295284 -0.165237 0.455024 -0.919092 0.381258 0.099562 10 176 140
-0.241446 0.129544 -0.600832 0.997372 -0.070245 0.017756 254 118 129
-0.026495 0.211689 0.539130 0.238406 -0.922720 0.302904 157 9 166
-0.020441 0.030076 -1.066598 -0.026689 -0.046374 0.998568 124 121 254
0.217148 0.251180 0.541272 -0.447830 -0.881689 -0.148569 70 15 108
0.081452 0.238483 0.463526 0.498821 -0.853585 0.150234 191 18 146
0.187813 0.156162 0.203398 -0.840285 -0.485043 0.242186 20 65 158
-0.144730 0.228405 -0.552532 0.306099 -0.944958 0.115576 166 7 142
-0.107802 0.012783 -1.069736 -0.026689 -0.046374 0.998568 124 121 254
-0.018620 -0.179165 -1.003778 -0.053766 0.610388 0.790276 120 205 228
-0.137775 -0.189363 -0.166660 0.759104 0.640650 -0.115453 224 209 112
-0.169385 -0.184402 0.445495 -0.218124 0.865826 0.450297 99 237 184
-0.317342 -0.075838 0.403626 0.574156 0.410561 0.708368 200 179 217
-0.042013 -0.255723 -0.391526 -0.153026 0.976323 0.152891 107 251 146
0.225065 -0.143636 0.262557 -0.737245 0.568943 0.364383 33 200 173
0.023353 -0.163073 -0.752283 -0.682788 0.664116 -0.304550 40 212 88
-0.249176 0.070623 -0.534330 0.979023 -0.203748 0.000948 252 101 127
0.221337 -0.242097 0.448994 -0.510213 0.834920 0.206376 62 233 153
0.040906 -0.253746 -0.009631 -0.366742 0.930063 0.021983 80 246 130
0.021718 0.230432 0.552117 0.352217 -0.911159 0.213852 172 11 154
-0.303060 -0.135384 0.461082 0.760449 0.604787 -0.236538 224 204 97
-0.047400 0.183937 -0.649021 -0.627521 -0.739938 0.242300 47 33 158
-0.179259 -0.013964 -0.918172 0.968270 0.088843 0.233582 250 138 157
-0.073645 -0.095995 0.431659 -0.243060 0.346500 0.906013 96 171 243
-0.158618 -0.131558 0.612518 0.393793 0.508293 -0.765875 177 192 29
-0.164492 0.188529 -0.264384 0.695872 -0.685118 -0.215351 216 40 100
0.131912 -0.068842 0.695302 0.015272 0.242815 -0.969952 129 158 3
-0.153049 0.240622 -0.450197 0.402420 -0.914967 0.029900 178 10 131
-0.222465 0.091514 -0.798342 0.852518 -0.338640 0.398166 236 84 178
-0.026925 -0.132763 -1.035274 -0.144313 0.314236 0.938312 109 167 247
0.181531 -0.030814 0.003512 -0.986334 0.136104 0.092853 1 144 139
0.168665 -0.085959 -0.007448 -0.908908 0.400083 0.117556 11 178 142
0.165568 0.198979 0.221286 -0.753477 -0.585889 0.298341 31 52 165
-0.161633 0.220407 -0.573155 0.306099 -0.944958 0.115576 166 7 142
-0.057518 -0.207684 -0.607194 -0.505709 0.837844 0.205610 63 234 153
-0.183577 -0.057493 -0.888197 0.896326 0.120341 0.426752 241 142 181
0.043151 -0.126343 -0.747186 -0.875237 0.271076 -0.400598 15 162 76
-0.259711 -0.006010 -0.488586 0.997464 -0.071121 0.002725 254 118 127
0.102323 -0.146671 -0.203135 -0.917741 0.367460 0.150749 10 174 146
-0.246083 -0.103492 -0.526973 0.993818 0.090795 0.063885 254 139 135
0.171349 0.270903 0.490863 -0.029216 -0.978251 0.205358 123 2 153
-0.187908 -0.072005 0.626726 0.511581 0.411303 -0.754397 192 179 31
0.107829 0.197546 -0.066842 -0.822399 -0.562505 0.085135 22 55 138
0.104280 -0.228059 0.200598 -0.353238 0.912989 0.204141 82 243 153
0.035168 0.045297 -0.706429 -0.828512 -0.181830 -0.529628 21 104 59
-0.127390 -0.242459 -0.566474 0.367610 0.920090 0.135265 174 244 144
-0.015425 0.215090 -0.940900 -0.269401 -0.905522 0.327801 93 12 169
0.287589 -0.195010 0.494034 -0.909756 0.393415 0.132549 11 177 144
-0.063573 -0.177395 0.166158 0.777980 0.412500 -0.473910 226 180 67
0.071047 -0.236679 0.153249 -0.376179 0.920356 -0.106929 79 244 113
0.348400 0.011416 0.460006 -0.981345 0.190836 0.023323 2 151 130
0.044829 -0.243274 0.167239 0.103143 0.983665 -0.147527 140 252 108
-0.001029 -0.039101 0.360070 0.989597 0.141139 -0.027881 253 145 123
0.287364 -0.009496 0.700393 -0.772750 -0.060007 -0.631868 28 119 46
0.062816 0.153168 -0.961643 -0.683553 -0.729450 -0.025644 40 34 124
-0.149873 0.165331 0.427685 -0.169861 -0.551577 0.816646 105 57 231
-0.066317 0.240236 -0.214847 0.449372 -0.850478 -0.273408 184 19 92
-0.237448 -0.166629 0.523072 0.611217 0.582996 -0.535285 205 201 59
-0.179489 -0.048972 -0.089603 0.977113 0.142441 -0.157987 252 145 107
0.052571 -0.017205 -0.503745 -0.921391 -0.019797 0.388132 10 124 176
-0.190756 -0.015410 -0.129029 0.977113 0.142441 -0.157987 252 145 107
0.261803 0.130632 0.300109 -0.686649 -0.559440 0.464264 39 56 186
-0.224077 -0.158688 -0.451080 0.801739 0.591413 -0.086281 229 202 116
-0.025081 -0.009022 0.311321 0.797688 -0.147631 -0.584721 229 108 52
-0.187973 -0.107717 -0.215207 0.861585 0.430366 -0.269178 237 182 93
0.334769 -0.077432 0.647955 -0.720054 -0.060334 -0.691290 35 119 39
0.000917 -0.195486 0.468569 0.462883 0.524396 0.714666 186 194 218
-0.113969 -0.181011 0.036212 0.759104 0.640650 -0.115453 224 209 112
-0.171020 -0.175851 -0.293515 0.806999 0.493282 -0.324693 230 190 86
-0.122379 -0.075555 0.659948 0.284528 0.221258 -0.932785 163 155 8
-0.241932 0.114402 -0.481240 0.947686 -0.313801 -0.058490 248 87 120
0.148559 -0.142218 0.033428 -0.873396 0.465169 0.144209 16 186 145
0.055364 -0.068202 -1.042775 -0.155875 0.245511 0.956780 107 158 249
-0.038240 -0.255618 -0.008963 0.076897 0.994343 -0.073271 137 254 118
0.043497 0.232561 0.520135 0.453436 -0.863924 0.219160 185 17 155
0.195996 -0.086584 0.153998 -0.889712 0.338557 0.306253 14 170 166
-0.167251 -0.020718 0.009995 0.969835 0.175519 -0.169157 251 149 105
-0.225742 -0.014000 0.360884 0.003114 -0.088312 0.996088 127 116 254
0.079145 0.043526 -1.060041 -0.014678 -0.309147 0.950901 125 88 248
-0.143928 0.146945 0.013208 0.893024 -0.445782 -0.061533 241 70 119
-0.073422 -0.134581 0.187255 0.777980 0.412500 -0.473910 226 180 67
-0.069486 -0.175312 -1.008190 0.454231 0.702906 0.547355 185 217 197
-0.047234 -0.152206 -1.026548 -0.053766 0.610388 0.790276 120 205 228
0.111315 0.081897 -0.974917 -0.867819 -0.413202 -0.275961 16 74 92
-0.076955 -0.216922 -0.678277 -0.456604 0.819141 -0.347161 69 231 83
-0.206719 0.095443 -0.245923 0.918209 -0.275774 -0.284325 244 92 91
0.126255 0.095450 -0.259501 -0.803488 -0.473255 0.361161 25 67 173
-0.156620 -0.228995 -0.584313 0.313310 0.942377 0.117316 167 247 142
-0.155395 0.192413 0.556229 0.396281 -0.763295 -0.510238 178 30 62
0.180239 0.100461 0.071006 -0.975660 -0.201625 0.086228 3 101 138
-0.224153 0.038738 0.605593 0.574717 -0.002850 -0.818348 200 127 23
-0.136228 0.152689 0.076644 0.795414 -0.542656 -0.269891 228 58 93
0.124115 -0.026347 -0.997163 -0.843052 0.537784 -0.007155 20 196 126
-0.218187 -0.021673 0.609993 0.574717 -0.002850 -0.818348 200 127 23
-0.208937 0.185173 -0.631112 0.705472 -0.706070 0.061439 217 37 135
-0.032478 -0.165522 0.644014 0.335228 0.459936 -0.822241 170 186 22
0.187312 0.039945 0.009534 -0.975660 -0.201625 0.086228 3 101 138
-0.092883 0.174315 -0.982760 0.637243 -0.585431 0.501190 208 52 191
-0.139620 0.180720 -0.162101 0.872698 -0.482870 -0.072355 238 65 118
-0.101961 -0.241649 -0.220310 0.786637 0.616114 -0.040071 227 206 122
-0.046812 0.230123 -0.925170 -0.269401 -0.905522 0.327801 93 12 169
-0.202449 0.031288 -0.207157 0.903697 -0.054349 -0.424709 242 120 73
0.168250 0.065362 -0.146712 -0.975660 -0.201625 0.086228 3 101 138
-0.175953 0.222259 -0.520087 0.306099 -0.944958 0.115576 166 7 142
-0.196121 -0.210120 -0.630441 0.313310 0.942377 0.117316 167 247 142
-0.061437 0.108230 0.437717 -0.513746 -0.324961 0.794018 61 86 228
-0.257536 -0.075758 0.578425 0.727738 0.025199 -0.685393 220 130 40
0.207991 0.004501 0.132996 -0.934047 0.123318 0.335186 8 143 170
-0.157046 0.064979 0.382086 -0.396479 -0.132979 0.908362 76 110 243
0.044823 -0.246398 -0.077980 -0.773224 0.633411 0.030243 28 208 131
-0.141601 0.025146 0.125319 0.860761 0.087396 -0.501450 237 138 63
0.017210 0.257163 -0.129615 0.059466 -0.998020 -0.020471 135 0 124
-0.025762 0.050241 -1.065804 -0.026689 -0.046374 0.998568 124 121 254
0.094967 -0.218426 0.065500 -0.535152 0.834882 0.128782 59 233 143
0.002807 -0.053223 0.694242 0.033842 0.176446 -0.983728 131 149 2
-0.004360 -0.178810 0.255515 0.669232 0.590562 -0.450959 212 202 70
0.016869 0.020757 -0.669378 -0.828512 -0.181830 -0.529628 21 104 59
-0.138623 -0.124255 0.417947 -0.548333 0.307644 0.777616 57 166 226
-0.165730 -0.022155 0.017226 0.969835 0.175519 -0.169157 251 149 105
-0.125621 -0.236334 -0.612945 0.367610 0.920090 0.135265 174 244 144
0.314143 -0.096359 0.671091 -0.720054 -0.060334 -0.691290 35 119 39
0.029748 -0.049060 -0.684930 -0.824139 0.237023 -0.514407 22 157 61
0.085025 0.098693 -0.916131 -0.873194 -0.410215 -0.263165 16 75 93
0.127036 -0.142482 -0.096067 -0.873396 0.465169 0.144209 16 186 145
-0.120587 -0.073634 -1.052377 0.629243 0.384567 0.675398 207 176 213
0.168856 0.227110 0.333872 -0.248772 -0.945313 0.210938 95 6 154
0.010839 0.063451 0.363228 0.972401 -0.215342 0.089805 251 100 138
0.005566 -0.195417 -0.782937 -0.682788 0.664116 -0.304550 40 212 88
-0.132833 0.193392 -0.876065 0.593714 -0.769013 0.236901 203 29 157
-0.248260 0.017424 -0.755369 0.926350 0.042371 0.374272 245 132 175
-0.193889 0.187437 0.534029 0.351913 -0.768784 -0.533974 172 29 59
0.063601 -0.217659 0.388487 0.631523 0.735038 0.246776 208 221 158
-0.236382 0.143043 -0.544971 0.947686 -0.313801 -0.058490 248 87 120
0.091669 -0.061735 -0.835781 -0.958510 0.045790 -0.281356 5 133 91
0.005920 -0.173895 0.644845 0.020007 0.486225 -0.873605 130 189 16
0.058577 0.070618 -1.051550 -0.014678 -0.309147 0.950901 125 88 248
0.061688 -0.142031 -1.010244 -0.741779 0.504605 0.441745 32 191 183
-0.139478 0.080624 0.646261 0.486475 -0.369154 -0.791875 189 80 26
-0.156044 0.215735 -0.626157 0.306099 -0.944958 0.115576 166 7 142
-0.239050 0.105686 0.391597 0.084457 -0.451476 0.888277 138 69 240
-0.057678 -0.224329 0.092411 0.476479 0.747303 -0.463148 188 222 68
-0.066383 -0.235465 0.063821 0.575798 0.730911 -0.366368 200 220 80
0.071449 0.200843 0.358124 0.636021 -0.707697 0.307640 208 37 166
0.145321 -0.020957 0.704932 0.033842 0.176446 -0.983728 131 149 2
0.177008 0.116499 0.071953 -0.975660 -0.201625 0.086228 3 101 138
-0.174970 -0.077197 -0.905196 0.900748 0.287717 0.325381 242 164 168
0.224286 0.188082 0.653969 -0.077433 -0.517572 -0.852129 117 61 18
0.294248 0.043684 0.304138 -0.870247 0.024615 0.492001 16 130 190
0.085811 -0.239916 0.397943 0.631523 0.735038 0.246776 208 221 158
0.248538 -0.239448 0.519068 -0.584617 0.811266 -0.008413 52 230 126
0.011991 -0.092694 -0.566270 -0.875279 0.128114 0.466340 15 143 186
0.021468 -0.147177 -0.508969 -0.900771 0.260163 0.347746 12 160 171
-0.030811 -0.179444 -0.594625 -0.861046 0.507078 -0.038355 17 192 122
0.016572 -0.029179 -1.059108 -0.155875 0.245511 0.956780 107 158 249
0.036441 -0.021912 -0.539824 -0.875279 0.128114 0.466340 15 143 186
-0.264190 0.021212 0.369625 0.158092 -0.215508 0.963620 147 100 250
-0.185221 0.192687 -0.318868 0.792227 -0.531042 -0.300618 228 59 89
-0.079187 -0.137392 -1.040164 -0.053766 0.610388 0.790276 120 205 228
-0.166385 0.117584 -0.063577 0.872698 -0.482870 -0.072355 238 65 118
-0.240403 0.048676 -0.318209 0.939499 -0.161999 -0.301824 247 106 89
0.129649 -0.214112 0.186252 -0.686595 0.678014 0.262458 39 213 160
0.165055 -0.214557 0.260278 -0.412623 0.890787 0.190370 74 241 151
-0.032861 -0.185491 -0.628547 -0.861046 0.507078 -0.038355 17 192 122
-0.242402 -0.116662 -0.423842 0.928752 0.365837 -0.059864 245 174 119
-0.094099 -0.198622 -0.950221 0.435810 0.860684 0.263234 183 237 161
0.172289 0.014553 -0.148743 -0.993127 -0.049032 0.106279 0 121 141
-0.185097 -0.008535 -0.087827 0.977113 0.142441 -0.157987 252 145 107
0.033594 0.179839 0.407509 0.882798 -0.449458 0.136582 240 70 144
0.156343 0.145326 0.029373 -0.798507 -0.594023 0.097584 25 51 139
0.077672 0.058200 -0.822087 -0.905034 -0.362872 -0.221897 12 81 99
0.127134 -0.001459 -1.000662 -0.991191 0.003568 -0.132395 1 127 110
-0.322279 0.090201 0.464371 0.857511 -0.509713 -0.069772 236 62 118
0.135116 -0.155191 0.658214 0.020007 0.486225 -0.873605 130 189 16
-0.022233 -0.234232 -0.424765 -0.589045 0.789274 0.173414 52 228 149
-0.125291 -0.227198 -0.264758 0.669530 0.711726 -0.212545 212 218 100
0.252657 0.208786 0.411999 -0.750722 -0.547291 0.369985 31 57 174
-0.148812 -0.018640 -1.004909 0.923028 -0.259977 0.283603 245 94 163
0.128156 -0.110531 0.681925 0.012577 0.464386 -0.885544 129 186 14
-0.058515 0.113976 -1.039262 -0.014678 -0.309147 0.950901 125 88 248
0.058230 0.068529 -0.768801 -0.895400 -0.360554 -0.261267 13 81 94
0.010962 -0.186851 -0.776355 -0.682788 0.664116 -0.304550 40 212 88
0.145862 -0.051950 -0.225978 -0.837475 0.460464 0.294292 20 186 165
0.226916 -0.134458 0.670780 0.012577 0.464386 -0.885544 129 186 14
0.133312 -0.041022 -0.270319 -0.823398 -0.038906 0.566130 22 122 199
-0.165371 0.145115 -0.874797 0.851945 -0.338637 0.399392 236 84 178
-0.085744 -0.221019 -0.622278 -0.505709 0.837844 0.205610 63 234 153
-0.133096 -0.125380 0.629741 0.393793 0.508293 -0.765875 177 192 29
-0.046980 -0.196457 -0.669416 -0.456604 0.819141 -0.347161 69 231 83
-0.033044 -0.121706 0.668293 0.335228 0.459936 -0.822241 170 186 22
-0.036332 0.189044 0.473584 0.433016 -0.316055 0.844160 182 87 235
-0.232193 0.042085 0.597263 0.632216 -0.313108 -0.708707 208 87 37
-0.277331 0.117458 0.406393 0.262335 -0.557741 0.787468 160 56 227
-0.117683 0.148680 0.610236 0.310156 -0.534296 -0.786341 167 59 27
-0.037762 0.143235 0.247471 0.721724 -0.272510 -0.636281 219 92 46
0.209623 0.244429 0.428634 -0.434743 -0.864489 0.252303 72 17 159
0.259725 -0.124786 0.311624 -0.832134 0.316078 0.455684 21 167 185
0.178208 -0.221905 0.610364 -0.006543 0.658010 -0.752980 126 211 31
-0.129872 -0.132574 0.090871 0.819361 0.413191 -0.397393 231 180 76
0.284418 -0.201448 0.491386 -0.909756 0.393415 0.132549 11 177 144
-0.122698 0.024009 0.659270 0.458254 -0.004903 -0.888808 185 126 14
0.088340 0.215011 -0.091846 -0.628721 -0.772025 0.093208 47 29 139
0.235599 -0.109121 0.684190 0.012577 0.464386 -0.885544 129 186 14
-0.120992 0.224498 -0.738133 0.417159 -0.908033 -0.038152 180 11 122
0.180063 0.249005 0.599523 -0.071535 -0.737819 -0.671197 118 33 41
-0.009696 0.214034 -0.933547 -0.607444 -0.793757 -0.031002 50 26 123
0.257016 0.135908 0.299386 -0.686649 -0.559440 0.464264 39 56 186
-0.154094 0.147397 -0.114284 0.872698 -0.482870 -0.072355 238 65 118
-0.033957 0.054216 0.695869 0.358894 -0.130218 -0.924250 173 110 9
-0.202577 -0.203344 -0.587877 0.733697 0.679458 -0.005098 221 214 126
0.342754 0.037932 0.520631 -0.986301 -0.112760 -0.120398 1 113 112
0.012343 -0.035067 -0.629493 -0.986125 0.137027 -0.093706 1 144 115
0.300959 0.149114 0.421739 -0.750722 -0.547291 0.369985 31 57 174
0.260293 0.031731 0.244678 -0.870247 0.024615 0.492001 16 130 190
0.102512 0.151100 0.680193 0.009672 -0.374443 -0.927199 128 79 9
0.045868 0.116853 -0.470109 -0.890045 -0.356245 0.284446 14 82 163
-0.183123 0.026339 -0.915274 0.929284 -0.043747 0.366766 245 121 174
-0.187082 0.201247 0.479112 0.064857 -0.926925 0.369598 135 9 174
0.156819 0.159246 0.117999 -0.798507 -0.594023 0.097584 25 51 139
-0.051334 -0.261147 -0.174171 0.233607 0.971222 -0.046424 157 251 121
0.225136 0.096555 0.206578 -0.836559 -0.316272 0.447372 20 87 184
0.082760 0.128464 -1.019483 -0.510969 -0.853969 0.098220 62 18 140
0.048724 0.239191 -0.187097 -0.669055 -0.741953 0.043260 42 32 133
0.078446 -0.203101 -0.125161 -0.773224 0.633411 0.030243 28 208 131
-0.153268 0.148403 -0.111039 0.872698 -0.482870 -0.072355 238 65 118
-0.261413 0.048697 0.567818 0.644733 -0.316703 -0.695714 209 87 38
-0.127043 0.025319 -1.035464 0.923028 -0.259977 0.283603 245 94 163
-0.148204 0.229664 -0.346188 0.498523 -0.849057 -0.174866 191 19 105
-0.179928 -0.003513 -0.051332 0.977113 0.142441 -0.157987 252 145 107
-0.107927 0.232756 -0.260621 0.419406 -0.886100 -0.197295 180 14 102
0.043256 -0.248859 -0.066509 -0.773224 0.633411 0.030243 28 208 131
0.029291 -0.162879 -0.462811 -0.895057 0.397463 0.202226 13 178 153
-0.077805 0.198695 0.603490 0.242122 -0.873244 -0.422874 158 16 73
0.092817 -0.146600 -0.261184 -0.917741 0.367460 0.150749 10 174 146
0.239975 -0.170498 0.343636 -0.731348 0.619013 0.286275 34 206 164
0.246487 0.225139 0.426061 -0.434743 -0.864489 0.252303 72 17 159
0.040126 -0.185622 0.353428 0.865340 0.495180 0.077351 237 190 137
0.005593 -0.239404 -0.292937 -0.599433 0.789403 0.132374 51 228 144
-0.023173 0.251990 0.008667 0.083692 -0.996457 -0.008368 138 0 126
0.126094 -0.186200 0.640748 0.020007 0.486225 -0.873605 130 189 16
0.317856 0.091077 0.393416 -0.907529 -0.283513 0.309857 11 91 167
0.279835 0.190280 0.598290 -0.768725 -0.499138 -0.399903 29 63 76
-0.210080 0.076949 0.374236 0.084457 -0.451476 0.888277 138 69 240
0.008726 0.099953 -0.683830 -0.828512 -0.181830 -0.529628 21 104 59
0.134597 -0.130989 -0.087351 -0.873396 0.465169 0.144209 16 186 145
-0.201194 -0.009952 -0.864601 0.896326 0.120341 0.426752 241 142 181
0.070866 0.244399 0.510176 0.453436 -0.863924 0.219160 185 17 155
0.329658 -0.014125 0.649108 -0.772750 -0.060007 -0.631868 28 119 46
-0.299591 -0.006219 0.380929 0.431669 -0.153435 0.888887 182 107 240
-0.160371 0.084557 -0.941422 0.925103 -0.366125 0.100682 245 80 140
0.320822 -0.143061 0.567943 -0.909756 0.393415 0.132549 11 177 144
-0.018882 -0.262404 -0.266617 -0.599433 0.789403 0.132374 51 228 144
-0.218293 -0.038831 -0.816129 0.872467 0.282199 0.398955 238 163 178
-0.153797 0.196805 -0.256154 0.695872 -0.685118 -0.215351 216 40 100
-0.165847 -0.203867 -0.765939 0.655120 0.641122 0.399725 211 209 178
0.099795 -0.068354 -0.939492 -0.984731 0.088987 0.149621 1 138 146
-0.111663 0.211625 0.516297 -0.418139 -0.902891 -0.099734 74 12 114
0.054133 -0.116348 -0.764416 -0.875237 0.271076 -0.400598 15 162 76
0.020103 0.219330 0.507472 0.352217 -0.911159 0.213852 172 11 154
-0.086981 0.153746 0.171595 0.730887 -0.428768 -0.531001 220 72 59
0.010656 0.062468 0.341984 0.797390 -0.147870 -0.585067 229 108 52
-0.172572 0.176877 0.566129 0.396281 -0.763295 -0.510238 178 30 62
-0.181330 0.028391 -0.066919 0.989838 -0.035507 -0.137699 253 122 109
-0.327358 -0.089351 0.473476 0.888225 0.397587 -0.230174 240 178 98
0.269267 -0.163335 0.655071 -0.295702 0.550711 -0.780562 89 197 27
0.113972 -0.150670 -0.148781 -0.873396 0.465169 0.144209 16 186 145
-0.073830 0.083701 -1.055848 -0.124557 -0.511404 0.850266 111 62 235
-0.133265 0.184786 -0.106178 0.893024 -0.445782 -0.061533 241 70 119
-0.058477 0.223524 -0.739039 -0.161924 -0.986579 -0.021031 106 1 124
-0.133993 -0.012951 -1.049665 0.968263 -0.249702 -0.010711 250 95 126
0.075247 -0.187463 -0.235017 -0.794380 0.579633 0.181620 26 201 150
-0.120971 0.085888 -1.015625 0.722546 0.004976 0.691305 219 128 215
-0.099395 -0.080218 0.180314 0.811850 0.164790 -0.560128 231 148 56
0.045986 0.227604 -0.251092 -0.673482 -0.710137 0.205250 41 36 153
0.074477 -0.143181 -0.942969 -0.784101 0.616064 -0.075168 27 206 117
-0.034448 -0.234836 -0.902922 -0.362562 0.889266 0.278847 81 240 163
0.193780 -0.203374 0.296710 -0.731348 0.619013 0.286275 34 206 164
-0.136854 -0.214949 -0.795681 0.655120 0.641122 0.399725 211 209 178
0.191366 0.147650 0.198679 -0.840285 -0.485043 0.242186 20 65 158
-0.098535 -0.166343 -0.995601 0.454231 0.702906 0.547355 185 217 197
-0.117932 -0.161393 0.444789 -0.243060 0.346500 0.906013 96 171 243
0.181083 -0.132216 0.161897 -0.875690 0.358076 0.323957 15 173 168
0.130663 -0.263714 0.534135 0.106819 0.970115 -0.217869 141 251 99
0.066184 0.112496 -0.392261 -0.925734 -0.349746 0.143856 9 82 145
0.102999 -0.239893 0.323771 0.295382 0.948891 0.111156 165 248 141
-0.124578 0.166184 0.433791 -0.308700 -0.548573 0.777028 88 57 226
-0.049160 0.166472 0.659949 0.403480 -0.312624 -0.859924 178 87 17
-0.126183 -0.207694 -0.832894 0.720107 0.662565 0.206042 219 211 153
-0.252172 -0.110294 0.560260 0.613582 0.507353 -0.605070 205 192 50
-0.231306 0.112839 -0.342201 0.918209 -0.275774 -0.284325 244 92 91
-0.097191 0.169221 0.446815 -0.308700 -0.548573 0.777028 88 57 226
-0.179009 0.055313 -0.059319 0.985660 -0.082507 -0.147197 253 116 108
-0.132157 0.104593 0.141646 0.919400 -0.072261 -0.386629 244 118 78
-0.174380 0.054683 0.635031 0.418008 -0.000987 -0.908443 180 127 11
0.122585 -0.178443 0.006418 -0.739192 0.665178 0.105517 33 212 140
-0.173738 0.008319 -0.007175 0.989838 -0.035507 -0.137699 253 122 109
0.284287 0.072708 0.688284 -0.646432 -0.279139 -0.710075 45 91 36
-0.283984 0.106915 0.404591 0.664680 -0.419983 0.617912 212 73 206
-0.193643 0.193942 -0.704756 0.306099 -0.944958 0.115576 166 7 142
0.045976 0.190555 0.663670 0.009672 -0.374443 -0.927199 128 79 9
0.003553 -0.182853 -0.999422 -0.053766 0.610388 0.790276 120 205 228
0.272416 0.090660 0.692034 -0.646432 -0.279139 -0.710075 45 91 36
0.269717 0.116151 0.303794 -0.836559 -0.316272 0.447372 20 87 184
-0.010505 0.094234 0.695773 0.062156 -0.075064 -0.995240 135 117 0
-0.018062 -0.256118 0.005434 0.076897 0.994343 -0.073271 137 254 118
-0.010615 0.209305 -0.794346 -0.668689 -0.714200 -0.206815 42 36 101
0.177888 -0.240557 0.361049 -0.393012 0.873477 0.287367 77 238 164
0.098337 -0.002122 -0.352260 -0.887417 0.127132 0.443090 14 143 183
-0.002739 0.061839 -1.058583 -0.124557 -0.511404 0.850266 111 62 235
0.305894 0.116195 0.386421 -0.866809 -0.345473 0.359571 16 83 173
-0.199648 -0.011549 -0.188301 0.989838 -0.035507 -0.137699 253 122 109
0.021438 0.114758 -0.540868 -0.871975 -0.360542 0.331162 16 81 169
0.267929 -0.099598 0.308734 -0.828152 0.322681 0.458303 21 168 185
0.001611 -0.077670 -0.647858 -0.951688 0.269803 0.146618 6 161 146
0.060422 -0.198079 -0.265979 -0.794380 0.579633 0.181620 26 201 150
-0.161782 -0.134666 -0.157484 0.919570 0.391169 -0.037110 244 177 122
0.117068 -0.025848 -0.940188 -0.987853 0.043295 -0.149238 1 133 108
0.006099 -0.005663 0.702793 0.031643 0.129405 -0.991087 131 143 1
0.201460 -0.198372 0.630727 -0.006543 0.658010 -0.752980 126 211 31
0.117741 0.096100 -1.043513 -0.947048 -0.316439 -0.054459 6 87 120
0.072008 0.133325 -1.028177 -0.517844 -0.788825 0.331050 61 26 169
0.150818 -0.022710 -0.243599 -0.823398 -0.038906 0.566130 22 122 199
0.327410 -0.123284 0.589675 -0.987093 0.158206 0.024885 1 147 130
0.004053 0.028961 -1.065995 -0.026689 -0.046374 0.998568 124 121 254
0.107079 -0.001682 -0.883126 -0.967633 0.012540 -0.252049 4 129 95
-0.029261 -0.205252 -0.722832 -0.692700 0.679197 -0.242607 39 214 96
-0.018595 -0.091688 0.291482 0.852336 0.266920 -0.449752 236 161 70
0.278415 0.050649 0.702300 -0.646432 -0.279139 -0.710075 45 91 36
0.035475 -0.189248 0.321486 0.706938 0.651510 -0.275270 217 210 92
-0.285926 0.014970 0.377951 0.431669 -0.153435 0.888887 182 107 240
0.055219 -0.134666 -0.810204 -0.862321 0.476414 -0.171561 17 188 105
-0.062098 0.127643 -1.035439 -0.040180 -0.137700 0.989659 122 109 253
0.156555 0.269581 0.547382 -0.093008 -0.992036 -0.084931 115 1 116
0.053223 -0.117103 -0.446860 -0.895057 0.397463 0.202226 13 178 153
0.286214 -0.135666 0.668172 -0.295702 0.550711 -0.780562 89 197 27
0.067869 0.056971 -0.785887 -0.895400 -0.360554 -0.261267 13 81 94
0.060565 -0.055799 0.695767 0.033842 0.176446 -0.983728 131 149 2
-0.260001 -0.021984 -0.490496 0.999973 0.007346 0.000730 254 128 127
-0.077898 -0.247809 -0.056844 0.348563 0.935331 -0.060504 171 246 119
0.164903 0.006199 -0.217131 -0.909282 -0.185163 0.372721 11 103 175
0.059819 -0.135577 -0.380661 -0.895790 0.397584 0.198715 13 178 152
-0.166065 -0.224986 -0.591288 0.313310 0.942377 0.117316 167 247 142
0.232512 0.114261 0.237060 -0.686649 -0.559440 0.464264 39 56 186
0.330819 0.070608 0.412654 -0.907529 -0.283513 0.309857 11 91 167
-0.201859 0.010969 0.363023 0.003114 -0.088312 0.996088 127 116 254
-0.129854 0.227247 -0.282488 0.419406 -0.886100 -0.197295 180 14 102
0.309263 -0.027842 0.348680 -0.939540 0.080994 0.332724 7 137 169
0.264795 0.222677 0.545265 -0.573258 -0.819230 0.015416 54 23 129
-0.178097 -0.169014 -0.300717 0.806999 0.493282 -0.324693 230 190 86
-0.249855 -0.078905 -0.529349 0.963476 0.265511 0.034891 250 161 131
0.260759 0.133624 0.678218 -0.645152 -0.435892 -0.627516 45 71 47
0.307559 0.157623 0.492926 -0.760120 -0.632430 0.149167 30 46 146
-0.160880 0.088982 0.043209 0.985660 -0.082507 -0.147197 253 116 108
-0.217332 0.180231 -0.560965 0.842099 -0.537120 -0.048694 234 59 121
0.088497 -0.183134 -0.190883 -0.794380 0.579633 0.181620 26 201 150
-0.207560 0.177163 -0.361197 0.835273 -0.546863 -0.057093 233 57 120
-0.035567 -0.195147 -0.681335 -0.456604 0.819141 -0.347161 69 231 83
0.178626 -0.242740 0.386270 -0.055620 0.996643 0.060077 120 254 135
-0.244373 0.103258 -0.460997 0.947686 -0.313801 -0.058490 248 87 120
-0.074460 -0.011366 0.410953 -0.467115 0.067828 0.881591 67 136 239
-0.066775 -0.131356 0.450466 -0.385701 0.469742 0.794089 78 187 228
0.030892 -0.118009 0.676521 0.020007 0.486225 -0.873605 130 189 16
-0.012700 0.151515 -0.599263 -0.966640 -0.192383 0.169103 4 102 149
-0.200872 0.057805 0.618258 0.632216 -0.313108 -0.708707 208 87 37
-0.042236 0.199331 0.622541 0.242122 -0.873244 -0.422874 158 16 73
-0.194531 0.001470 0.625816 0.418008 -0.000987 -0.908443 180 127 11
-0.282422 -0.033147 0.553568 0.727738 0.025199 -0.685393 220 130 40
0.145935 0.034676 -0.246757 -0.823398 -0.038906 0.566130 22 122 199
0.003091 -0.210864 -0.890933 -0.545727 0.836964 -0.040897 57 234 122
0.114571 -0.170512 -0.081151 -0.873396 0.465169 0.144209 16 186 145
0.274650 0.054046 0.274315 -0.845706 -0.167483 0.506687 19 106 192
0.216382 -0.186264 0.317455 -0.731348 0.619013 0.286275 34 206 164
-0.228626 -0.164901 -0.535940 0.801739 0.591413 -0.086281 229 202 116
-0.256085 0.025745 -0.427208 0.990792 -0.135317 -0.004521 253 110 126
0.327488 0.150134 0.567140 -0.986527 0.154801 0.052925 1 147 134
-0.057266 -0.197455 -0.658242 -0.456604 0.819141 -0.347161 69 231 83
0.289336 -0.098152 0.352275 -0.864400 0.320539 0.387386 17 168 176
-0.085398 -0.098063 0.664243 0.283188 0.504084 -0.815907 163 191 23
0.255585 -0.045719 0.248492 -0.828152 0.322681 0.458303 21 168 185
-0.069230 0.152261 0.450695 -0.513746 -0.324961 0.794018 61 86 228
0.021190 -0.219090 0.472758 0.462883 0.524396 0.714666 186 194 218
-0.253744 -0.074594 -0.454748 0.963476 0.265511 0.034891 250 161 131
0.100827 0.178734 -0.206938 -0.803488 -0.473255 0.361161 25 67 173
0.102025 -0.217832 0.110694 -0.739192 0.665178 0.105517 33 212 140
-0.231009 0.105264 -0.768354 0.852518 -0.338640 0.398166 236 84 178
-0.165983 -0.112844 -0.031569 0.919570 0.391169 -0.037110 244 177 122
-0.073785 0.055957 0.235982 0.757282 -0.106251 -0.644387 224 113 45
0.044016 -0.220442 0.458966 0.462883 0.524396 0.714666 186 194 218
0.045139 0.188926 0.664318 0.009672 -0.374443 -0.927199 128 79 9
0.183818 0.103278 0.114533 -0.894581 -0.243989 0.374425 13 96 175
-0.165514 0.209847 -0.649217 0.306099 -0.944958 0.115576 166 7 142
0.272298 0.200052 0.600581 -0.768725 -0.499138 -0.399903 29 63 76
-0.062731 -0.163254 -1.019069 -0.053766 0.610388 0.790276 120 205 228
0.296962 0.172832 0.503411 -0.760120 -0.632430 0.149167 30 46 146
0.253984 0.023452 0.233933 -0.870247 0.024615 0.492001 16 130 190
-0.091747 0.026230 -1.068682 -0.026689 -0.046374 0.998568 124 121 254
-0.209182 0.020193 -0.220063 0.903697 -0.054349 -0.424709 242 120 73
0.188407 -0.057416 0.115542 -0.986334 0.136104 0.092853 1 144 139
-0.130552 -0.245908 -0.393649 0.566299 0.811834 -0.142237 199 231 109
-0.105297 0.079241 0.406093 -0.359094 -0.135038 0.923481 81 110 245
0.334688 -0.014060 0.635400 -0.986301 -0.112760 -0.120398 1 113 112
-0.213325 -0.117660 0.585919 0.465866 0.422257 -0.777604 186 181 28
0.085102 -0.022311 -0.807405 -0.940004 0.036805 -0.339172 7 132 84
0.220108 0.124238 0.692267 0.009672 -0.374443 -0.927199 128 79 9
0.006423 -0.244607 -0.258153 -0.599433 0.789403 0.132374 51 228 144
-0.084451 -0.139923 -1.038567 -0.053766 0.610388 0.790276 120 205 228
0.186155 -0.233614 0.600062 -0.006543 0.658010 -0.752980 126 211 31
-0.228995 0.162336 -0.565265 0.842099 -0.537120 -0.048694 234 59 121
-0.199256 -0.204503 0.483636 0.270042 0.942339 0.197672 161 247 152
0.304712 -0.071300 0.680923 -0.753313 0.016316 -0.657459 31 129 43
-0.144983 0.195580 0.559577 0.396281 -0.763295 -0.510238 178 30 62
-0.165977 0.129145 -0.135805 0.872698 -0.482870 -0.072355 238 65 118
-0.213170 -0.080876 -0.266419 0.925231 0.188049 -0.329524 245 151 85
0.219201 0.194859 0.321335 -0.689575 -0.609124 0.391733 39 49 177
-0.073998 0.226065 -0.738732 -0.161924 -0.986579 -0.021031 106 1 124
0.033324 -0.169586 0.358722 0.952529 0.256307 0.164304 248 160 148
-0.297164 0.103128 0.416195 0.664680 -0.419983 0.617912 212 73 206
-0.067522 -0.182055 0.155618 0.777980 0.412500 -0.473910 226 180 67
-0.122955 -0.180738 -0.021361 0.759104 0.640650 -0.115453 224 209 112
0.139754 0.260919 0.571362 0.167912 -0.957298 -0.235345 148 5 97
0.241971 -0.068990 0.696998 0.015272 0.242815 -0.969952 129 158 3
-0.088140 0.043558 0.676331 0.358894 -0.130218 -0.924250 173 110 9
-0.105813 0.258297 -0.417877 -0.103186 -0.994501 0.017884 114 0 129
-0.101786 -0.198003 0.569106 -0.084587 0.969552 -0.229815 116 251 98
0.285582 0.175066 0.428926 -0.750722 -0.547291 0.369985 31 57 174
0.067490 -0.208250 0.623259 -0.006543 0.658010 -0.752980 126 211 31
0.006105 -0.244371 -0.261004 -0.599433 0.789403 0.132374 51 228 144
-0.020835 0.224899 -0.827342 -0.673376 -0.735628 0.073598 41 33 136
-0.009392 0.213992 -0.938409 -0.607444 -0.793757 -0.031002 50 26 123
0.024936 -0.062015 -0.550401 -0.875279 0.128114 0.466340 15 143 186
0.047602 0.242670 -0.144784 -0.669055 -0.741953 0.043260 42 32 133
-0.072897 0.236113 -0.147126 0.547773 -0.836507 0.014149 197 20 129
0.277852 -0.129063 0.353780 -0.861076 0.362916 0.356146 17 173 172
-0.034080 -0.262312 -0.111729 0.233607 0.971222 -0.046424 157 251 121
0.163027 -0.053558 0.699618 0.015272 0.242815 -0.969952 129 158 3
0.125898 0.012010 -0.280360 -0.953676 -0.030678 0.299266 5 123 165
-0.143988 0.045135 0.649026 0.418008 -0.000987 -0.908443 180 127 11
-0.069252 0.229188 -0.537877 -0.323209 -0.909009 0.263132 86 11 161
-0.180826 -0.087117 -0.128185 0.919570 0.391169 -0.037110 244 177 122
0.297564 0.168445 0.481997 -0.839469 -0.538517 0.072747 20 58 136
0.227558 -0.049544 0.201990 -0.850049 0.091531 0.518689 19 139 193
-0.205053 0.046072 -0.854012 0.938325 -0.032585 0.344215 247 123 171
-0.078245 0.154854 0.182725 0.730887 -0.428768 -0.531001 220 72 59
0.039950 -0.232654 -0.221322 -0.462275 0.846447 0.264251 68 235 161
0.018786 -0.007236 -0.662767 -0.828512 -0.181830 -0.529628 21 104 59
0.028400 0.184532 -0.405129 -0.679670 -0.688591 0.252769 40 39 159
0.328041 0.044805 0.634720 -0.986301 -0.112760 -0.120398 1 113 112
-0.070785 -0.237733 -0.825644 0.242141 0.969263 0.043557 158 251 133
0.046023 -0.217813 0.271608 0.293754 0.929005 -0.225074 164 245 98
-0.061299 0.246572 -0.468053 -0.323209 -0.909009 0.263132 86 11 161
-0.139971 -0.050771 0.120782 0.861438 0.041714 -0.506146 237 132 62
-0.339038 0.002885 0.487321 0.933805 -0.202494 -0.294965 246 101 89
-0.057275 0.057189 0.686395 0.358894 -0.130218 -0.924250 173 110 9
-0.132414 0.219087 -0.734247 0.417159 -0.908033 -0.038152 180 11 122
0.107136 0.224330 0.112135 -0.628721 -0.772025 0.093208 47 29 139
-0.115151 -0.189483 0.476305 0.027411 0.883716 0.467220 130 240 187
-0.318488 0.094967 0.433586 0.664680 -0.419983 0.617912 212 73 206
-0.161001 -0.004758 0.062390 0.969835 0.175519 -0.169157 251 149 105
0.313690 0.082122 0.657815 -0.646432 -0.279139 -0.710075 45 91 36
-0.160372 -0.137343 0.407789 -0.548333 0.307644 0.777616 57 166 226
0.168340 0.270463 0.488338 -0.029216 -0.978251 0.205358 123 2 153
-0.197794 -0.144049 -0.784012 0.828831 0.472311 0.299934 233 187 165
0.203562 0.191451 0.288507 -0.689575 -0.609124 0.391733 39 49 177
-0.154477 0.080131 0.091042 0.985660 -0.082507 -0.147197 253 116 108
0.227105 -0.037549 0.199130 -0.850049 0.091531 0.518689 19 139 193
0.140864 -0.024355 -0.258189 -0.823398 -0.038906 0.566130 22 122 199
0.002317 0.061983 -0.660768 -0.828512 -0.181830 -0.529628 21 104 59
0.331482 0.038587 0.612356 -0.986301 -0.112760 -0.120398 1 113 112
0.036407 -0.120342 -0.490351 -0.900698 0.260150 0.347945 12 160 171
0.314546 0.096484 0.648636 -0.768725 -0.499138 -0.399903 29 63 76
0.069793 -0.236722 0.159661 -0.310135 0.950554 -0.016247 87 248 125
-0.118989 0.202994 0.479356 -0.208158 -0.904763 0.371584 100 12 174
0.006275 0.224464 0.552124 0.352217 -0.911159 0.213852 172 11 154
-0.068170 -0.052255 0.417432 -0.467115 0.067828 0.881591 67 136 239
-0.173544 0.098320 -0.046831 0.985660 -0.082507 -0.147197 253 116 108
0.241228 0.225362 0.417762 -0.434743 -0.864489 0.252303 72 17 159
-0.092395 0.237295 -0.248558 0.449372 -0.850478 -0.273408 184 19 92
0.277359 -0.101655 0.328448 -0.864400 0.320539 0.387386 17 168 176
-0.205372 0.107270 -0.253494 0.834555 -0.423106 -0.352845 233 73 82
0.007603 -0.053385 -0.585304 -0.875279 0.128114 0.466340 15 143 186
-0.090178 0.039691 0.216123 0.860761 0.087396 -0.501450 237 138 63
-0.183300 0.055964 0.630835 0.486475 -0.369154 -0.791875 189 80 26
-0.257974 0.011982 -0.655094 0.997464 -0.071121 0.002725 254 118 127
0.321214 0.118814 0.541798 -0.986527 0.154801 0.052925 1 147 134
0.023990 -0.110431 -0.529928 -0.900771 0.260163 0.347746 12 160 171
0.143187 0.257427 0.422660 -0.029216 -0.978251 0.205358 123 2 153
-0.057741 -0.225352 -0.536170 -0.323847 0.906906 0.269526 86 243 161
-0.108052 0.025506 0.397164 -0.359094 -0.135038 0.923481 81 110 245
0.314582 -0.036304 0.365758 -0.939540 0.080994 0.332724 7 137 169
0.258511 0.086089 0.261588 -0.836559 -0.316272 0.447372 20 87 184
-0.188184 -0.179570 -0.754632 0.828831 0.472311 0.299934 233 187 165
-0.053265 -0.204444 0.138774 0.401254 0.892301 -0.206869 178 241 101
0.083230 0.050136 -0.831572 -0.905034 -0.362872 -0.221897 12 81 99
0.023840 0.082228 -0.549998 -0.856393 -0.185216 0.481961 18 103 188
-0.125837 0.019361 -1.044853 0.923028 -0.259977 0.283603 245 94 163
0.034665 -0.161812 -0.441123 -0.895057 0.397463 0.202226 13 178 153
0.222338 -0.240608 0.445446 -0.510213 0.834920 0.206376 62 233 153
0.065516 -0.228422 0.007923 -0.535152 0.834882 0.128782 59 233 143
0.284823 -0.135529 0.377222 -0.861076 0.362916 0.356146 17 173 172
-0.180786 -0.063782 -0.112289 0.969835 0.175519 -0.169157 251 149 105
0.223890 0.045116 0.714116 0.062156 -0.075064 -0.995240 135 117 0
-0.010504 -0.209864 0.198339 0.401254 0.892301 -0.206869 178 241 101
-0.184915 -0.067507 -0.139872 0.977113 0.142441 -0.157987 252 145 107
0.187008 -0.249212 0.585587 -0.190031 0.748676 -0.635116 103 222 46
0.130652 -0.028818 0.703018 0.033842 0.176446 -0.983728 131 149 2
-0.313597 -0.115266 0.478646 0.760449 0.604787 -0.236538 224 204 97
-0.061037 -0.162769 0.183052 0.777980 0.412500 -0.473910 226 180 67
0.126178 0.233803 0.262383 -0.434127 -0.893055 0.118266 72 13 142
0.162456 -0.050311 -0.170540 -0.986334 0.136104 0.092853 1 144 139
-0.081776 -0.226816 -0.708681 -0.109779 0.993646 0.024822 113 254 130
-0.148943 0.176088 -0.883578 0.851945 -0.338637 0.399392 236 84 178
0.145821 -0.058750 -0.215456 -0.837475 0.460464 0.294292 20 186 165
0.044865 0.227820 -0.254024 -0.673482 -0.710137 0.205250 41 36 153
-0.038437 -0.097365 0.259323 0.785733 0.279535 -0.551801 227 163 57
0.024025 -0.198457 -0.916367 -0.545727 0.836964 -0.040897 57 234 122
-0.114819 0.211808 -0.206135 0.449372 -0.850478 -0.273408 184 19 92
0.248759 0.164385 0.325981 -0.689575 -0.609124 0.391733 39 49 177
-0.096904 0.228964 -0.698347 -0.161924 -0.986579 -0.021031 106 1 124
0.349151 0.013323 0.475994 -0.981345 0.190836 0.023323 2 151 130
-0.284117 0.138644 0.496854 0.643438 -0.527015 -0.555196 209 60 56
-0.047808 -0.198313 -0.672706 -0.456604 0.819141 -0.347161 69 231 83
0.079096 -0.243204 0.426370 0.355368 0.927208 0.118319 172 245 142
-0.178406 0.183881 0.551120 0.396281 -0.763295 -0.510238 178 30 62
0.025923 -0.119155 -0.712329 -0.834045 0.267317 -0.482609 21 161 65
-0.143972 -0.080291 -0.990835 0.916897 0.320968 0.237232 244 168 157
-0.162005 0.110950 -0.904126 0.844872 -0.271208 0.461127 235 92 186
0.253109 0.179574 0.365270 -0.744696 -0.597264 0.297830 32 51 165
-0.206426 -0.109026 -0.279990 0.806999 0.493282 -0.324693 230 190 86
-0.122995 0.234206 -0.299164 0.419406 -0.886100 -0.197295 180 14 102
0.167756 0.179460 0.664342 -0.077433 -0.517572 -0.852129 117 61 18
-0.062836 -0.156868 -1.024009 -0.053766 0.610388 0.790276 120 205 228
0.242352 0.014715 0.214895 -0.850049 0.091531 0.518689 19 139 193
-0.185920 -0.195290 -0.736269 0.827122 0.470166 0.307918 232 187 166
-0.109958 -0.185672 0.036712 0.759104 0.640650 -0.115453 224 209 112
-0.008281 -0.201806 -0.971723 -0.380710 0.852139 0.359054 78 236 173
-0.234382 -0.140125 -0.442799 0.928752 0.365837 -0.059864 245 174 119
-0.114201 0.225867 -0.696482 0.417159 -0.908033 -0.038152 180 11 122
-0.290397 0.139170 0.433414 0.664680 -0.419983 0.617912 212 73 206
0.248097 0.091006 0.245590 -0.836559 -0.316272 0.447372 20 87 184
-0.196553 0.194417 0.522223 0.351913 -0.768784 -0.533974 172 29 59
-0.068724 0.208031 -0.969654 0.506916 -0.841471 0.186985 192 20 151
-0.164281 0.049336 -0.960270 0.929284 -0.043747 0.366766 245 121 174
-0.127646 0.170244 0.066637 0.795414 -0.542656 -0.269891 228 58 93
0.061024 -0.081643 -0.455562 -0.900698 0.260150 0.347945 12 160 171
0.119191 -0.022400 -0.953244 -0.987853 0.043295 -0.149238 1 133 108
-0.141688 -0.241489 -0.534215 0.367610 0.920090 0.135265 174 244 144
-0.121667 0.202977 -0.069650 0.893024 -0.445782 -0.061533 241 70 119
0.002257 0.154680 0.440923 0.433016 -0.316055 0.844160 182 87 235
-0.127135 -0.144567 0.084045 0.819361 0.413191 -0.397393 231 180 76
0.118310 -0.010136 -0.943850 -0.987853 0.043295 -0.149238 1 133 108
0.210670 0.126764 0.219821 -0.686649 -0.559440 0.464264 39 56 186
-0.002987 0.074938 -0.634122 -0.968503 -0.205318 0.140877 4 101 145
-0.230310 -0.074699 -0.304817 0.904687 0.206546 -0.372667 242 153 79
0.113531 -0.200965 0.084965 -0.739192 0.665178 0.105517 33 212 140
-0.048498 -0.222386 -0.738839 -0.109779 0.993646 0.024822 113 254 130
-0.245840 -0.094484 -0.543568 0.993818 0.090795 0.063885 254 139 135
-0.063897 -0.165485 0.631226 0.335228 0.459936 -0.822241 170 186 22
-0.193905 0.022400 -0.886643 0.938325 -0.032585 0.344215 247 123 171
-0.060527 0.085982 0.681076 0.358894 -0.130218 -0.924250 173 110 9
0.042408 0.121828 -1.035151 -0.014678 -0.309147 0.950901 125 88 248
0.030986 -0.182198 0.433760 0.865340 0.495180 0.077351 237 190 137
-0.169679 0.093560 -0.900294 0.844872 -0.271208 0.461127 235 92 186
0.052678 -0.238326 0.580802 0.140214 0.893294 -0.427044 145 241 73
0.297110 0.116800 0.652532 -0.645152 -0.435892 -0.627516 45 71 47
-0.204149 -0.030559 0.359348 0.003114 -0.088312 0.996088 127 116 254
0.241517 0.098834 0.238820 -0.836559 -0.316272 0.447372 20 87 184
0.140379 0.172960 0.066960 -0.798507 -0.594023 0.097584 25 51 139
-0.239849 0.130231 -0.532418 0.947686 -0.313801 -0.058490 248 87 120
0.077201 0.077890 -1.049192 0.082365 -0.287991 0.954085 138 90 249
-0.028614 -0.231278 -0.885633 -0.545727 0.836964 -0.040897 57 234 122
-0.083981 0.247862 -0.277560 0.419406 -0.886100 -0.197295 180 14 102
0.146968 0.157138 0.024567 -0.798507 -0.594023 0.097584 25 51 139
0.220759 0.048603 0.171498 -0.919036 -0.193003 0.343689 10 102 171
-0.024158 -0.223672 -0.454661 -0.621037 0.690601 0.370652 48 215 174
0.005518 0.032048 0.345543 0.972401 -0.215342 0.089805 251 100 138
0.125029 -0.191307 0.104637 -0.739192 0.665178 0.105517 33 212 140
-0.065698 -0.253317 -0.082647 0.233607 0.971222 -0.046424 157 251 121
-0.156732 -0.183678 -0.269894 0.806999 0.493282 -0.324693 230 190 86
-0.096361 0.220097 -0.185632 0.547773 -0.836507 0.014149 197 20 129
0.061356 -0.203785 -0.241206 -0.758982 0.631975 0.156695 30 208 147
0.258788 0.164637 0.349515 -0.744696 -0.597264 0.297830 32 51 165
-0.058183 -0.191424 0.159123 0.669232 0.590562 -0.450959 212 202 70
0.336872 0.068497 0.492763 -0.933371 -0.354891 -0.053577 8 82 120
0.185281 0.081085 0.082756 -0.975660 -0.201625 0.086228 3 101 138
-0.175501 -0.012933 -0.934142 0.968270 0.088843 0.233582 250 138 157
0.196275 -0.151092 0.661622 0.012577 0.464386 -0.885544 129 186 14
0.317419 0.091649 0.392662 -0.907529 -0.283513 0.309857 11 91 167
-0.067168 0.239258 -0.822676 0.164824 -0.984693 0.056681 148 1 134
-0.163467 -0.130887 -0.159406 0.919570 0.391169 -0.037110 244 177 122
-0.173297 0.057923 -0.022532 0.985660 -0.082507 -0.147197 253 116 108
0.137080 -0.113700 0.680389 0.012577 0.464386 -0.885544 129 186 14
-0.056231 0.134413 0.668287 0.403480 -0.312624 -0.859924 178 87 17
-0.128098 0.010872 0.386800 -0.396479 -0.132979 0.908362 76 110 243
0.150028 0.142277 -0.040858 -0.798507 -0.594023 0.097584 25 51 139
-0.000272 0.059937 -0.637319 -0.968503 -0.205318 0.140877 4 101 145
-0.179782 -0.141577 0.594306 0.511581 0.411303 -0.754397 192 179 31
0.233236 -0.124224 0.262863 -0.832134 0.316078 0.455684 21 167 185
-0.162101 -0.047658 0.640841 0.419348 -0.001828 -0.907824 180 127 11
0.137950 0.038493 0.709249 0.062156 -0.075064 -0.995240 135 117 0
-0.181767 -0.186431 -0.761560 0.828831 0.472311 0.299934 233 187 165
0.280107 -0.144433 0.664300 -0.295702 0.550711 -0.780562 89 197 27
0.181336 -0.016963 -0.018867 -0.986334 0.136104 0.092853 1 144 139
0.208249 -0.104230 0.203364 -0.832134 0.316078 0.455684 21 167 185
-0.227423 -0.168233 -0.648999 0.879978 0.424616 0.212931 239 181 154
-0.260287 -0.020848 0.361617 0.172237 0.253467 0.951887 149 159 248
-0.042979 -0.263663 -0.184764 0.233607 0.971222 -0.046424 157 251 121
0.319004 0.038314 0.657157 -0.772750 -0.060007 -0.631868 28 119 46
0.234347 0.108302 0.232592 -0.686649 -0.559440 0.464264 39 56 186
0.211131 -0.169756 0.651848 0.020007 0.486225 -0.873605 130 189 16
-0.203502 -0.105936 0.379926 0.055821 0.340950 0.938423 134 170 247
-0.020371 -0.153662 0.256530 0.785733 0.279535 -0.551801 227 163 57
0.264122 -0.128543 0.322233 -0.828152 0.322681 0.458303 21 168 185
-0.010456 0.206954 0.216237 0.444240 -0.862700 -0.241661 184 17 96
0.225707 0.140105 0.258137 -0.686649 -0.559440 0.464264 39 56 186
-0.242238 -0.093796 -0.626356 0.963476 0.265511 0.034891 250 161 131
0.115757 0.183732 -0.081530 -0.822399 -0.562505 0.085135 22 55 138
-0.143141 -0.190393 -0.211566 0.841131 0.523750 -0.134852 234 194 110
-0.081855 -0.031179 0.680633 0.458254 -0.004903 -0.888808 185 126 14
0.052415 0.192705 0.326699 0.599306 -0.683168 -0.417270 203 40 74
0.053028 -0.106775 -1.031680 -0.144313 0.314236 0.938312 109 167 247
-0.061674 -0.124725 0.212376 0.785733 0.279535 -0.551801 227 163 57
0.081232 0.151146 -0.292797 -0.834960 -0.511610 0.202723 21 62 153
-0.044076 0.250258 0.029025 0.059466 -0.998020 -0.020471 135 0 124
-0.217879 0.153913 -0.730565 0.832570 -0.514385 0.205513 233 61 153
0.278231 0.117714 0.321194 -0.866809 -0.345473 0.359571 16 83 173
-0.259962 -0.005499 -0.383561 0.997464 -0.071121 0.002725 254 118 127
0.045111 -0.242684 -0.148423 -0.773224 0.633411 0.030243 28 208 131
-0.223743 -0.027591 -0.810692 0.910113 0.226668 0.346867 243 156 171
0.133730 0.022333 -0.265357 -0.823398 -0.038906 0.566130 22 122 199
0.157019 0.013685 0.710137 0.031643 0.129405 -0.991087 131 143 1
0.143439 0.133853 -0.146053 -0.798507 -0.594023 0.097584 25 51 139
0.096607 -0.244284 0.383328 0.631523 0.735038 0.246776 208 221 158
-0.208903 0.096391 -0.253897 0.918209 -0.275774 -0.284325 244 92 91
-0.230742 -0.115766 -0.734484 0.872467 0.282199 0.398955 238 163 178
-0.054602 -0.024033 0.692843 0.284528 0.221258 -0.932785 163 155 8
-0.117513 -0.257549 -0.474241 0.368521 0.928495 0.045705 174 245 133
-0.208669 0.136401 -0.296224 0.834555 -0.423106 -0.352845 233 73 82
0.000139 0.131942 -0.573006 -0.856393 -0.185216 0.481961 18 103 188
0.016549 -0.229361 -0.303219 -0.599433 0.789403 0.132374 51 228 144
0.210337 -0.171339 0.276015 -0.737245 0.568943 0.364383 33 200 173
-0.003330 0.159627 -0.552460 -0.763666 -0.566237 0.310143 30 55 167
-0.056683 0.172677 0.652509 0.627236 -0.474717 -0.617429 207 66 48
-0.141882 0.211696 0.520660 0.031678 -0.985205 -0.168429 131 1 106
0.121257 -0.240181 0.290703 -0.055620 0.996643 0.060077 120 254 135
0.015610 -0.140640 0.326784 0.815119 0.195836 -0.545187 231 152 57
-0.014810 -0.155469 0.263533 0.785733 0.279535 -0.551801 227 163 57
0.131461 -0.194819 0.634440 -0.006543 0.658010 -0.752980 126 211 31
-0.091939 0.162096 0.443872 -0.308700 -0.548573 0.777028 88 57 226
-0.187591 0.184367 -0.310418 0.792227 -0.531042 -0.300618 228 59 89
0.116153 0.180907 -0.096374 -0.822399 -0.562505 0.085135 22 55 138
-0.102101 0.097343 0.409982 -0.359094 -0.135038 0.923481 81 110 245
0.115669 -0.123063 -0.200633 -0.837475 0.460464 0.294292 20 186 165
-0.015546 0.216288 -0.865007 -0.673376 -0.735628 0.073598 41 33 136
-0.002889 0.196868 -0.455657 -0.679670 -0.688591 0.252769 40 39 159
-0.246955 -0.085148 -0.355329 0.892491 0.298846 -0.337864 241 165 84
-0.130480 0.026865 0.388102 -0.396479 -0.132979 0.908362 76 110 243
0.275233 0.155107 0.371522 -0.744696 -0.597264 0.297830 32 51 165
-0.260379 0.180696 0.462355 0.262884 -0.854973 0.447116 161 18 184
0.010352 -0.085531 0.360776 0.952529 0.256307 0.164304 248 160 148
0.015957 -0.230000 0.586161 0.140214 0.893294 -0.427044 145 241 73
-0.016135 -0.097520 0.433114 0.250504 0.103310 0.962588 159 140 250
-0.234275 0.053173 -0.301548 0.939499 -0.161999 -0.301824 247 106 89
0.070163 -0.094145 -0.416925 -0.895790 0.397584 0.198715 13 178 152
0.016642 0.256571 -0.145808 -0.063768 -0.996024 0.062215 119 0 135
-0.019430 0.096023 0.288731 0.847391 -0.267735 -0.458527 235 93 69
-0.099508 -0.229090 -0.007536 0.952507 0.266544 -0.147257 248 161 108
0.021621 0.168866 -0.466034 -0.679670 -0.688591 0.252769 40 39 159
-0.103167 0.122966 0.174170 0.730887 -0.428768 -0.531001 220 72 59
0.217715 -0.035556 0.704804 0.033842 0.176446 -0.983728 131 149 2
0.102133 0.236823 0.385425 0.498821 -0.853585 0.150234 191 18 146
-0.055611 -0.149858 0.643345 0.335228 0.459936 -0.822241 170 186 22
-0.064829 0.080031 0.680244 0.358894 -0.130218 -0.924250 173 110 9
-0.274475 0.095768 0.390079 0.262335 -0.557741 0.787468 160 56 227
-0.030742 0.158436 0.245218 0.730887 -0.428768 -0.531001 220 72 59
-0.014562 -0.244916 -0.347873 -0.606660 0.780196 0.152504 50 226 146
-0.033911 -0.220994 -0.753353 -0.606544 0.766576 -0.210870 50 225 100
-0.188723 -0.129589 0.594779 0.511581 0.411303 -0.754397 192 179 31
-0.096285 -0.138099 0.635729 0.283188 0.504084 -0.815907 163 191 23
-0.138399 0.008896 -1.013560 0.923028 -0.259977 0.283603 245 94 163
0.079876 0.233762 0.611906 0.160251 -0.895777 -0.414612 147 13 74
0.170599 0.008769 -0.167198 -0.993127 -0.049032 0.106279 0 121 141
0.136178 0.206914 0.650469 -0.071535 -0.737819 -0.671197 118 33 41
0.106345 -0.089036 -0.300078 -0.893676 0.358151 0.270316 13 173 161
-0.232041 0.027914 0.600091 0.574717 -0.002850 -0.818348 200 127 23
0.005635 0.082969 0.410316 0.950733 -0.120051 0.285821 248 112 163
0.126679 -0.178877 0.037831 -0.739192 0.665178 0.105517 33 212 140
-0.196091 -0.166584 -0.334245 0.738735 0.525061 -0.422589 221 194 73
-0.009613 0.252889 0.037310 0.083692 -0.996457 -0.008368 138 0 126
-0.173817 0.105897 -0.075224 0.872698 -0.482870 -0.072355 238 65 118
0.275593 -0.094090 0.318704 -0.828152 0.322681 0.458303 21 168 185
0.108327 0.222130 0.101943 -0.628721 -0.772025 0.093208 47 29 139
-0.141702 -0.005765 0.380310 -0.309841 -0.046521 0.949649 87 121 248
-0.053822 0.239216 -0.862214 0.164824 -0.984693 0.056681 148 1 134
0.017175 -0.104182 0.342221 0.815119 0.195836 -0.545187 231 152 57
0.280097 0.134919 0.343200 -0.744696 -0.597264 0.297830 32 51 165
0.082129 -0.232784 0.105237 -0.535152 0.834882 0.128782 59 233 143
-0.143061 -0.175904 0.443678 -0.224797 0.631732 0.741876 98 208 222
0.234442 -0.249642 0.515638 -0.584617 0.811266 -0.008413 52 230 126
0.014183 0.254962 0.028438 0.083692 -0.996457 -0.008368 138 0 126
0.327393 -0.118678 0.559701 -0.987093 0.158206 0.024885 1 147 130
-0.148063 -0.188815 -0.236133 0.841131 0.523750 -0.134852 234 194 110
-0.096809 -0.235976 -0.031931 0.786637 0.616114 -0.040071 227 206 122
0.001082 0.043378 0.408830 0.950733 -0.120051 0.285821 248 112 163
0.070522 -0.200918 -0.208375 -0.758982 0.631975 0.156695 30 208 147
-0.159549 0.211503 0.502211 0.013903 -0.943738 0.330402 129 7 169
-0.002607 -0.094028 -0.645130 -0.951688 0.269803 0.146618 6 161 146
0.305528 -0.160414 0.514477 -0.909756 0.393415 0.132549 11 177 144
-0.198476 0.048311 -0.871727 0.938325 -0.032585 0.344215 247 123 171
0.018087 0.218305 0.506428 0.352217 -0.911159 0.213852 172 11 154
0.309862 0.062462 0.665707 -0.742302 -0.089828 -0.664017 32 116 42
0.012095 0.175891 -0.472511 -0.679670 -0.688591 0.252769 40 39 159
-0.067818 0.253838 -0.270042 0.419406 -0.886100 -0.197295 180 14 102
-0.311433 -0.042024 0.518088 0.783918 0.154766 -0.601265 227 147 50
-0.076001 -0.259965 -0.398461 -0.153026 0.976323 0.152891 107 251 146
-0.036438 -0.210553 0.145059 0.401254 0.892301 -0.206869 178 241 101
-0.224051 0.007184 -0.250037 0.903697 -0.054349 -0.424709 242 120 73
0.044641 0.174363 0.352633 0.636021 -0.707697 0.307640 208 37 166
0.121092 -0.017159 -0.298663 -0.953676 -0.030678 0.299266 5 123 165
-0.237404 -0.088285 -0.735186 0.910113 0.226668 0.346867 243 156 171
-0.187034 -0.162900 -0.313641 0.806999 0.493282 -0.324693 230 190 86
-0.174855 -0.071398 -0.086185 0.969835 0.175519 -0.169157 251 149 105
0.335361 -0.074157 0.647052 -0.720054 -0.060334 -0.691290 35 119 39
-0.166910 -0.228297 -0.437890 0.566299 0.811834 -0.142237 199 231 109
-0.293862 0.004602 0.380015 0.431669 -0.153435 0.888887 182 107 240
-0.259977 -0.033945 -0.403101 0.999973 0.007346 0.000730 254 128 127
-0.073771 -0.047470 0.414096 -0.467115 0.067828 0.881591 67 136 239
-0.119768 0.009430 -1.070032 0.815430 -0.128346 0.564447 231 111 199
-0.118673 0.187807 -0.927961 0.464050 -0.840879 0.278533 186 20 163
0.077972 -0.087069 -0.796688 -0.875237 0.271076 -0.400598 15 162 76
-0.185714 0.149334 0.411910 -0.106129 -0.469470 0.876547 113 67 239
0.146027 0.168432 0.085618 -0.798507 -0.594023 0.097584 25 51 139
0.011159 0.254616 0.039417 0.083692 -0.996457 -0.008368 138 0 126
0.148589 -0.191382 0.184452 -0.746130 0.629066 0.218096 32 207 155
0.253744 0.159854 0.327710 -0.689575 -0.609124 0.391733 39 49 177
-0.259977 -0.030865 -0.434335 0.999973 0.007346 0.000730 254 128 127
-0.132454 0.210962 -0.819983 0.593714 -0.769013 0.236901 203 29 157
-0.002489 -0.148607 0.442386 0.591779 0.365412 0.718521 202 174 219
-0.228171 0.136689 -0.377847 0.947686 -0.313801 -0.058490 248 87 120
-0.015906 0.158245 -0.596202 -0.806161 -0.587343 0.071644 24 52 136
0.055845 0.159897 0.676153 0.009672 -0.374443 -0.927199 128 79 9
0.079014 0.005775 -0.417748 -0.945740 0.047930 0.321369 6 133 168
0.104199 0.033702 -0.878444 -0.873194 -0.410215 -0.263165 16 75 93
0.175715 0.154855 0.160259 -0.753477 -0.585889 0.298341 31 52 165
0.011332 0.256903 -0.134010 0.059466 -0.998020 -0.020471 135 0 124
0.139814 0.144875 -0.108618 -0.798507 -0.594023 0.097584 25 51 139
-0.178481 -0.067858 -0.103300 0.969835 0.175519 -0.169157 251 149 105
0.184150 -0.057079 0.069834 -0.986334 0.136104 0.092853 1 144 139
-0.093572 -0.258829 -0.423301 -0.153026 0.976323 0.152891 107 251 146
-0.308776 0.072783 0.507782 0.741374 -0.201295 -0.640191 222 101 45
-0.200126 0.069976 -0.858379 0.844872 -0.271208 0.461127 235 92 186
-0.092400 0.229081 -0.738551 -0.161924 -0.986579 -0.021031 106 1 124
0.233781 -0.165740 0.317524 -0.731348 0.619013 0.286275 34 206 164
0.015099 -0.106747 -1.037523 -0.144313 0.314236 0.938312 109 167 247
-0.091182 0.140746 0.176310 0.730887 -0.428768 -0.531001 220 72 59
-0.053099 -0.252904 -0.010598 0.233607 0.971222 -0.046424 157 251 121
0.202328 0.248990 0.588429 -0.438566 -0.834816 -0.332780 71 21 85
0.096561 -0.233658 0.212282 -0.353238 0.912989 0.204141 82 243 153
0.056223 -0.156530 -0.354947 -0.895790 0.397584 0.198715 13 178 152
-0.234315 -0.153088 -0.639566 0.993818 0.090795 0.063885 254 139 135
0.115528 0.011250 -0.919235 -0.987853 0.043295 -0.149238 1 133 108
0.123140 -0.028247 -1.025164 -0.843052 0.537784 -0.007155 20 196 126
-0.022976 -0.227622 -0.859918 -0.604413 0.795482 0.043516 50 228 133
-0.152617 -0.039008 0.379001 -0.392092 0.210012 0.895633 77 154 241
-0.099303 -0.037608 0.191082 0.861438 0.041714 -0.506146 237 132 62
-0.187258 -0.203517 0.473592 -0.218124 0.865826 0.450297 99 237 184
0.123492 0.236358 0.274100 -0.436623 -0.897138 0.067115 71 13 136
-0.114966 0.228800 -0.774628 0.417159 -0.908033 -0.038152 180 11 122
-0.008514 0.193361 0.236343 0.627703 -0.602700 -0.492688 207 50 64
0.092118 -0.087034 -0.341337 -0.967552 0.100570 0.231796 4 140 157
0.025822 -0.194346 -0.416317 -0.895057 0.397463 0.202226 13 178 153
0.265236 0.197922 0.421451 -0.750722 -0.547291 0.369985 31 57 174
0.012149 -0.196301 0.632517 0.020007 0.486225 -0.873605 130 189 16
-0.129236 -0.072335 -1.042362 0.759477 0.447324 0.472330 224 184 187
0.139352 -0.067857 0.695666 0.015272 0.242815 -0.969952 129 158 3
-0.174518 -0.152606 0.414307 -0.224797 0.631732 0.741876 98 208 222
-0.070223 0.186942 0.165576 0.627703 -0.602700 -0.492688 207 50 64
-0.145108 0.197676 -0.230849 0.695872 -0.685118 -0.215351 216 40 100
0.246473 0.133176 0.280501 -0.686649 -0.559440 0.464264 39 56 186
0.129302 -0.050205 -0.275834 -0.837475 0.460464 0.294292 20 186 165
-0.010445 0.000707 0.328832 0.797688 -0.147631 -0.584721 229 108 52
0.182562 0.262088 0.580790 -0.447830 -0.881689 -0.148569 70 15 108
-0.154092 0.067930 0.096339 0.919400 -0.072261 -0.386629 244 118 78
-0.121612 0.064408 -1.017306 0.923028 -0.259977 0.283603 245 94 163
-0.240983 0.081696 0.571729 0.644733 -0.316703 -0.695714 209 87 38
0.299623 -0.051715 0.687240 -0.753313 0.016316 -0.657459 31 129 43
-0.011128 0.111740 -0.636455 -0.968503 -0.205318 0.140877 4 101 145
-0.155860 -0.147333 -0.144276 0.919570 0.391169 -0.037110 244 177 122
0.104061 -0.190239 -0.048984 -0.739192 0.665178 0.105517 33 212 140
-0.075736 0.249810 -0.268784 0.419406 -0.886100 -0.197295 180 14 102
0.128522 0.082421 -0.268019 -0.909282 -0.185163 0.372721 11 103 175
-0.098242 0.063482 0.406532 -0.359094 -0.135038 0.923481 81 110 245
-0.129482 0.245008 -0.367315 0.498523 -0.849057 -0.174866 191 19 105
0.032298 -0.255316 0.069172 0.076897 0.994343 -0.073271 137 254 118
0.048729 -0.238657 0.476374 0.362000 0.915696 0.174517 173 244 149
0.315490 -0.041821 0.369665 -0.939540 0.080994 0.332724 7 137 169
0.047185 0.100832 -0.486053 -0.890045 -0.356245 0.284446 14 82 163
-0.201365 0.135078 0.402953 0.084457 -0.451476 0.888277 138 69 240
0.189052 -0.021766 0.070140 -0.986334 0.136104 0.092853 1 144 139
0.093173 -0.211126 0.010722 -0.535152 0.834882 0.128782 59 233 143
-0.196325 -0.000589 -0.167241 0.989838 -0.035507 -0.137699 253 122 109
-0.224504 0.029954 -0.258672 0.939499 -0.161999 -0.301824 247 106 89
0.184886 0.009586 -0.024938 -0.983240 0.160931 0.085673 2 148 138
-0.091392 -0.226295 -0.772054 -0.109779 0.993646 0.024822 113 254 130
0.086245 0.246855 0.488039 0.453436 -0.863924 0.219160 185 17 155
-0.087547 0.224498 0.044195 0.507861 -0.807581 -0.299816 192 24 89
0.304719 -0.090317 0.380117 -0.864400 0.320539 0.387386 17 168 176
0.228536 -0.100689 0.237955 -0.832134 0.316078 0.455684 21 167 185
-0.112430 -0.229835 -0.662088 -0.456604 0.819141 -0.347161 69 231 83
-0.005630 -0.199784 -0.973709 -0.380710 0.852139 0.359054 78 236 173
-0.240543 -0.136528 -0.566204 0.993818 0.090795 0.063885 254 139 135
-0.020389 -0.201008 -0.736283 -0.692700 0.679197 -0.242607 39 214 96
0.105503 -0.179476 -0.106737 -0.739192 0.665178 0.105517 33 212 140
0.045521 -0.152521 0.657648 0.020007 0.486225 -0.873605 130 189 16
0.280541 0.141252 0.357010 -0.744696 -0.597264 0.297830 32 51 165
-0.285053 0.018191 0.552420 0.741374 -0.201295 -0.640191 222 101 45
-0.236637 0.111738 0.562080 0.644733 -0.316703 -0.695714 209 87 38
-0.161102 -0.133374 -0.893912 0.900748 0.287717 0.325381 242 164 168
0.012645 -0.123579 0.417758 0.989597 0.141139 -0.027881 253 145 123
0.311320 -0.067415 0.673448 -0.753313 0.016316 -0.657459 31 129 43
-0.048768 -0.261052 -0.317592 0.173889 0.984306 0.030076 149 252 131
0.295111 -0.166764 0.622496 -0.585453 0.599855 -0.545362 52 203 57
0.136420 0.235730 0.334249 -0.248772 -0.945313 0.210938 95 6 154
-0.128005 0.212411 -0.826424 0.593714 -0.769013 0.236901 203 29 157
0.012436 0.076799 0.377936 0.972401 -0.215342 0.089805 251 100 138
0.081178 0.188623 -0.236263 -0.795109 -0.478583 0.372507 26 66 174
0.107331 0.054059 -0.331593 -0.847667 -0.307004 0.432677 19 88 182
-0.049928 -0.248014 -0.450136 -0.193348 0.977973 0.078646 102 252 137
-0.170221 0.076060 -0.909593 0.844872 -0.271208 0.461127 235 92 186
-0.176235 -0.083841 -0.895819 0.900748 0.287717 0.325381 242 164 168
-0.056141 0.145697 0.456478 -0.513746 -0.324961 0.794018 61 86 228
-0.081456 0.017949 0.227306 0.860761 0.087396 -0.501450 237 138 63
-0.313684 -0.064532 0.509360 0.783918 0.154766 -0.601265 227 147 50
-0.018476 0.004222 0.316989 0.797688 -0.147631 -0.584721 229 108 52
-0.312205 0.063051 0.407389 0.661600 -0.319501 0.678384 211 86 213
-0.192878 -0.079272 -0.185614 0.967639 0.086952 -0.236884 250 138 97
0.010272 0.257038 -0.143649 0.059466 -0.998020 -0.020471 135 0 124
0.209109 0.059777 0.146620 -0.919036 -0.193003 0.343689 10 102 171
-0.015840 -0.239898 -0.377260 -0.589045 0.789274 0.173414 52 228 149
-0.188617 -0.136309 -0.277177 0.806999 0.493282 -0.324693 230 190 86
0.042908 -0.215666 0.276403 0.293754 0.929005 -0.225074 164 245 98
0.084584 0.000129 -0.400515 -0.945740 0.047930 0.321369 6 133 168
-0.243819 -0.085657 0.585029 0.465866 0.422257 -0.777604 186 181 28
-0.214071 0.069969 -0.247676 0.939499 -0.161999 -0.301824 247 106 89
-0.123913 0.062671 0.658431 0.458254 -0.004903 -0.888808 185 126 14
-0.225073 -0.096985 -0.760166 0.872467 0.282199 0.398955 238 163 178
-0.205751 -0.123725 -0.297880 0.738735 0.525061 -0.422589 221 194 73
0.023618 -0.180925 -0.452451 -0.895057 0.397463 0.202226 13 178 153
-0.226206 0.078965 -0.794957 0.918527 -0.175077 0.354481 244 105 172
0.063871 0.101538 -0.836669 -0.905034 -0.362872 -0.221897 12 81 99
-0.153329 -0.199471 -0.793505 0.655120 0.641122 0.399725 211 209 178
-0.026716 0.169008 -0.629607 -0.806161 -0.587343 0.071644 24 52 136
0.039604 0.174100 -0.938325 -0.683553 -0.729450 -0.025644 40 34 124
-0.219647 -0.060124 0.608007 0.604727 0.027692 -0.795951 204 131 26
-0.216933 -0.104442 0.590935 0.465866 0.422257 -0.777604 186 181 28
-0.201868 0.099201 -0.835875 0.851945 -0.338637 0.399392 236 84 178
0.097830 -0.239349 0.250330 0.293754 0.929005 -0.225074 164 245 98
0.202429 -0.244247 0.410948 -0.510213 0.834920 0.206376 62 233 153
-0.160251 -0.035509 -0.983144 0.923028 -0.259977 0.283603 245 94 163
-0.054205 -0.141520 0.212762 0.777980 0.412500 -0.473910 226 180 67
-0.117162 0.207300 -0.136866 0.547773 -0.836507 0.014149 197 20 129
0.102681 0.215503 0.008963 -0.628721 -0.772025 0.093208 47 29 139
0.198044 -0.223488 0.608808 -0.006543 0.658010 -0.752980 126 211 31
-0.254379 0.036925 -0.387957 0.990792 -0.135317 -0.004521 253 110 126
0.183732 0.045109 -0.018899 -0.975660 -0.201625 0.086228 3 101 138
-0.086837 -0.025043 0.213335 0.861438 0.041714 -0.506146 237 132 62
-0.014443 0.094479 0.431992 0.500029 -0.239284 0.832295 191 96 233
0.068486 -0.150671 -0.941855 -0.784101 0.616064 -0.075168 27 206 117
-0.101977 0.179791 0.123093 0.795414 -0.542656 -0.269891 228 58 93
-0.138828 -0.072616 0.119104 0.969835 0.175519 -0.169157 251 149 105
-0.000360 0.206664 0.230459 0.627703 -0.602700 -0.492688 207 50 64
0.325016 0.133524 0.569642 -0.986527 0.154801 0.052925 1 147 134
0.142162 0.264461 0.456020 -0.029216 -0.978251 0.205358 123 2 153
0.249011 0.163088 0.324408 -0.689575 -0.609124 0.391733 39 49 177
-0.222779 0.023312 0.606611 0.574717 -0.002850 -0.818348 200 127 23
0.306220 -0.122513 0.415692 -0.861076 0.362916 0.356146 17 173 172
0.025537 -0.145069 0.340036 0.815119 0.195836 -0.545187 231 152 57
-0.238760 -0.097816 -0.691815 0.963476 0.265511 0.034891 250 161 131
-0.191028 -0.008384 0.364089 -0.309841 -0.046521 0.949649 87 121 248
-0.131721 -0.252163 -0.469118 0.368521 0.928495 0.045705 174 245 133
-0.113814 0.209693 -0.869985 0.464050 -0.840879 0.278533 186 20 163
0.022433 -0.254190 0.074098 0.076897 0.994343 -0.073271 137 254 118
0.202051 -0.063252 0.151063 -0.904117 0.189882 0.382777 12 151 176
0.293782 -0.065807 0.335431 -0.864400 0.320539 0.387386 17 168 176
-0.221999 -0.070509 0.368154 0.055821 0.340950 0.938423 134 170 247
-0.312936 0.041455 0.397931 0.661600 -0.319501 0.678384 211 86 213
-0.180579 -0.060440 -0.895025 0.968270 0.088843 0.233582 250 138 157
0.131669 -0.246640 0.589153 -0.006543 0.658010 -0.752980 126 211 31
-0.314667 -0.036606 0.388878 0.388537 0.227774 0.892837 177 156 241
-0.193819 -0.053767 -0.867736 0.896326 0.120341 0.426752 241 142 181
-0.011151 -0.110864 0.433249 0.250504 0.103310 0.962588 159 140 250
0.032487 -0.045626 -1.052295 -0.155875 0.245511 0.956780 107 158 249
-0.218313 0.175982 -0.629082 0.705472 -0.706070 0.061439 217 37 135
0.105386 0.200761 0.657072 -0.077433 -0.517572 -0.852129 117 61 18
0.042055 -0.238487 -0.194736 -0.758982 0.631975 0.156695 30 208 147
-0.061187 -0.237600 -0.499098 -0.323847 0.906906 0.269526 86 243 161
-0.005999 -0.187021 -0.505871 -0.707184 0.676075 0.206912 37 213 153
-0.131644 0.000448 0.383896 -0.309841 -0.046521 0.949649 87 121 248
0.113075 0.086649 -0.297216 -0.847667 -0.307004 0.432677 19 88 182
-0.185534 0.004596 -0.901595 0.896326 0.120341 0.426752 241 142 181
-0.166993 0.017232 0.039014 0.989838 -0.035507 -0.137699 253 122 109
0.047084 -0.180919 -0.347348 -0.895790 0.397584 0.198715 13 178 152
0.013412 -0.239092 0.141726 0.476479 0.747303 -0.463148 188 222 68
0.090065 -0.108143 -0.901407 -0.948447 0.310275 -0.064633 6 167 119
-0.185176 -0.173836 0.429155 -0.224797 0.631732 0.741876 98 208 222
0.177362 -0.144316 0.165214 -0.875690 0.358076 0.323957 15 173 168
-0.025785 -0.174075 -0.648277 -0.951688 0.269803 0.146618 6 161 146
0.197101 -0.121320 0.194860 -0.832134 0.316078 0.455684 21 167 185
0.282065 0.155267 0.637703 -0.768725 -0.499138 -0.399903 29 63 76
0.048346 -0.138832 -0.425737 -0.895057 0.397463 0.202226 13 178 153
0.185577 -0.004120 0.007356 -0.986334 0.136104 0.092853 1 144 139
0.193082 0.265641 0.527992 -0.447830 -0.881689 -0.148569 70 15 108
0.126946 0.169162 -0.069710 -0.822399 -0.562505 0.085135 22 55 138
-0.348231 0.031803 0.438365 0.933805 -0.202494 -0.294965 246 101 89
0.208742 -0.218998 0.368717 -0.731348 0.619013 0.286275 34 206 164
0.113197 -0.114594 -0.220919 -0.837475 0.460464 0.294292 20 186 165
-0.017391 0.170893 -0.566514 -0.763666 -0.566237 0.310143 30 55 167
0.076555 0.239804 0.196745 -0.206828 -0.970450 0.124298 101 3 143
0.110562 -0.132305 -0.200705 -0.837475 0.460464 0.294292 20 186 165
-0.089659 0.226827 -0.673657 -0.590346 -0.718859 -0.367062 52 35 80
0.186456 0.131316 0.148929 -0.840285 -0.485043 0.242186 20 65 158
-0.214962 -0.188653 -0.571779 0.801739 0.591413 -0.086281 229 202 116
-0.026986 -0.217552 0.522859 0.364461 0.915564 0.170033 173 244 149
0.160589 0.215252 0.248619 -0.434127 -0.893055 0.118266 72 13 142
-0.032417 -0.251386 0.054580 0.076897 0.994343 -0.073271 137 254 118
-0.230593 -0.139992 0.399801 0.039190 0.572304 0.819105 132 200 231
0.062595 -0.203485 -0.236417 -0.758982 0.631975 0.156695 30 208 147
0.192034 0.163288 0.232318 -0.840285 -0.485043 0.242186 20 65 158
-0.149869 0.213054 0.506233 0.013903 -0.943738 0.330402 129 7 169
0.297507 -0.087589 0.361768 -0.864400 0.320539 0.387386 17 168 176
0.091957 -0.139871 -0.280291 -0.893676 0.358151 0.270316 13 173 161
-0.188829 -0.083676 -0.179513 0.861585 0.430366 -0.269178 237 182 93
0.283181 0.179870 0.604850 -0.768725 -0.499138 -0.399903 29 63 76
0.070330 0.093791 -0.411051 -0.925734 -0.349746 0.143856 9 82 145
-0.109457 0.245283 -0.558838 0.451864 -0.875047 0.173525 185 15 149
0.027902 0.173176 -1.002077 -0.374623 -0.783613 0.495589 79 27 190
0.132886 -0.135657 -0.082657 -0.873396 0.465169 0.144209 16 186 145
-0.187452 -0.070241 -0.158029 0.977113 0.142441 -0.157987 252 145 107
-0.053923 0.247067 -0.096202 0.475381 -0.879703 -0.011677 188 15 126
0.010919 0.109170 0.330538 0.797390 -0.147870 -0.585067 229 108 52
-0.108469 -0.256310 -0.490898 -0.193348 0.977973 0.078646 102 252 137
0.137484 -0.252611 0.578764 0.140214 0.893294 -0.427044 145 241 73
0.021367 0.093199 -0.550176 -0.856393 -0.185216 0.481961 18 103 188
0.035931 0.254866 0.110860 0.180172 -0.971576 -0.153552 150 3 107
-0.093156 0.240740 -0.535032 -0.495329 -0.859747 0.124432 64 17 143
-0.168529 -0.227421 -0.439338 0.566299 0.811834 -0.142237 199 231 109
-0.171648 -0.109454 -0.136205 0.919570 0.391169 -0.037110 244 177 122
0.043940 -0.115246 -0.474662 -0.900698 0.260150 0.347945 12 160 171
-0.156605 0.087677 -0.964682 0.925103 -0.366125 0.100682 245 80 140
0.093974 0.249094 0.584232 0.160251 -0.895777 -0.414612 147 13 74
