ply
format ascii 1.0
element vertex 512
property float x
property float y
property float z
property float nx
property float ny
property float nz
property uchar red
property uchar green
property uchar blue
end_header
0.212358 -0.019070 0.421255 0.884206 0.333815 0.326722 240 170 169
0.045385 0.028489 0.765153 0.063563 -0.199465 -0.977841 135 102 2
0.374548 0.030806 -0.037610 -0.630803 0.011869 0.775853 47 129 226
0.407480 0.086021 -0.766799 -0.947642 -0.317489 0.034282 6 87 131
0.245639 -0.214081 -0.863296 -0.449426 0.568543 0.689039 70 199 215
0.064294 -0.213215 0.684591 -0.056733 0.828782 -0.556689 120 233 56
-0.411190 -0.079564 0.040732 0.854647 0.334910 0.396754 236 170 178
0.100779 0.156920 0.081118 0.895845 -0.300684 -0.327186 241 89 85
0.072415 0.166562 -0.709412 0.483227 -0.379504 -0.788967 189 79 26
0.593155 0.201215 0.164646 -0.335654 -0.693052 0.637978 84 39 208
-0.018369 -0.234648 -0.774488 -0.010414 0.961835 -0.273432 126 250 92
-0.388736 0.080893 -0.671652 0.801097 -0.218985 0.557036 229 99 198
0.272859 0.120795 -0.466267 -0.720296 -0.487601 -0.493375 35 65 64
-0.144807 0.144604 0.711432 0.289420 -0.386788 -0.875575 164 78 15
0.315341 0.230276 0.617904 -0.130258 -0.898032 -0.420204 110 13 73
-0.464322 0.187290 0.348819 0.802604 -0.581320 0.133769 229 53 144
-0.007822 -0.201551 0.029324 0.042731 0.782264 -0.621479 132 227 48
0.049568 -0.210146 0.025470 0.113140 0.737424 -0.665887 141 221 42
0.166385 0.235088 -0.409510 -0.571456 -0.819223 -0.048074 54 23 121
0.736869 -0.218027 0.402189 -0.552474 0.831257 0.061522 57 233 135
0.819410 -0.070071 0.343918 -0.915360 0.360879 0.178559 10 173 150
0.293209 0.152315 -0.527128 -0.720296 -0.487601 -0.493375 35 65 64
0.162112 -0.229701 -0.820671 0.044557 0.913821 0.403665 133 244 178
0.091692 0.139000 0.559783 0.072514 -0.199668 0.977177 136 102 252
0.272070 -0.182245 0.294388 0.653221 0.654908 -0.379998 210 211 79
0.013690 -0.053297 -0.954338 0.060078 0.227450 0.971935 135 156 251
0.031713 0.041703 -0.695962 -0.414990 0.083766 -0.905962 74 138 11
0.339789 0.266316 0.297568 0.374476 -0.903763 -0.207316 175 12 101
0.086260 0.172631 0.723722 -0.037609 -0.516999 -0.855159 122 61 18
-0.324927 0.169103 -0.233420 0.689803 -0.478898 -0.542981 215 66 58
-0.066094 0.279736 -0.222763 0.218964 -0.973463 -0.066512 155 3 119
0.047399 -0.066747 -0.953275 0.060078 0.227450 0.971935 135 156 251
0.043809 0.275390 -0.264970 0.020451 -0.978084 0.207206 130 2 153
0.062499 -0.169196 -0.906224 0.063732 0.523449 0.849670 135 194 235
0.229751 0.067859 -0.968378 -0.009200 0.017700 0.999801 126 129 254
-0.025924 -0.271282 -0.055060 0.113140 0.737424 -0.665887 141 221 42
-0.360356 0.199821 0.144788 0.664790 -0.646778 0.373808 212 45 175
0.278119 -0.160342 -0.886194 -0.449333 0.561158 0.695127 70 199 216
0.699392 0.170105 0.186744 -0.335654 -0.693052 0.637978 84 39 208
0.016128 -0.054818 -0.505364 0.476741 0.313914 0.821082 188 167 232
-0.013009 -0.104759 -0.937551 0.036624 0.449949 0.892303 132 184 241
0.417289 -0.001315 0.734244 -0.647391 -0.023891 -0.761784 44 124 30
-0.390845 -0.205931 0.190856 0.706499 0.682590 0.186894 217 214 151
-0.468229 0.145498 0.505132 0.686571 -0.577370 -0.441887 215 53 71
0.061604 -0.243355 -0.405651 0.176036 0.884812 0.431416 149 240 182
0.389153 -0.282149 0.316251 0.419890 0.904453 -0.075213 181 242 117
0.274884 0.185959 0.705212 -0.015970 -0.784251 -0.620238 125 27 48
-0.352246 0.235212 0.336054 0.193322 -0.979800 0.051173 152 2 134
0.733082 -0.194186 0.219631 -0.868124 0.442265 0.225304 16 183 156
0.602986 -0.289442 0.366050 -0.446258 0.890224 0.091406 70 241 139
0.164620 -0.206562 -0.617867 0.720613 0.658398 -0.217322 219 211 99
0.033246 -0.139220 -0.922073 0.036624 0.449949 0.892303 132 184 241
-0.138047 0.129432 -0.424294 0.016813 -0.264897 0.964130 129 93 250
0.837770 0.088090 0.441127 -0.803416 -0.593027 -0.053317 25 51 120
-0.338725 -0.033357 -0.751278 0.643202 0.171695 0.746198 209 149 222
0.335110 -0.181129 -0.633743 -0.777227 0.482187 -0.404245 28 188 75
0.059648 0.050581 0.095044 0.400158 -0.287530 -0.870172 178 90 16
-0.214044 0.197699 -0.466713 -0.484001 -0.837974 0.252076 65 20 159
-0.104111 -0.158336 -0.431216 0.163718 0.159286 0.973563 148 147 251
0.216976 0.213325 -0.514449 -0.467049 -0.881876 -0.064503 67 15 119
0.219973 0.191477 0.507050 0.819805 -0.301587 0.486790 232 89 189
0.454281 -0.308898 0.353742 0.243971 0.951468 0.187581 158 248 151
-0.042999 0.080364 0.079997 -0.126545 -0.283006 -0.950733 111 91 6
0.252219 0.100770 -0.417513 -0.678447 -0.531723 -0.506931 40 59 62
0.113458 0.252323 -0.164788 -0.540693 -0.834421 -0.106736 58 21 113
-0.143433 0.257946 -0.039003 0.290259 -0.941022 0.173862 164 7 149
0.171962 -0.207039 -0.242001 -0.869978 0.488413 -0.067757 16 189 118
0.246069 0.154646 0.436193 0.855047 -0.455941 0.247008 236 69 158
-0.398011 0.027026 -0.679490 0.801097 -0.218985 0.557036 229 99 198
0.236041 0.002318 -0.967159 -0.009200 0.017700 0.999801 126 129 254
-0.301499 0.072231 -0.800516 0.801097 -0.218985 0.557036 229 99 198
0.416804 0.278014 0.203885 -0.174666 -0.923122 0.342545 105 9 171
0.152314 0.241120 -0.020258 -0.124436 -0.948975 -0.289763 111 6 90
0.779065 -0.104980 0.221701 -0.868124 0.442265 0.225304 16 183 156
0.234321 -0.211942 -0.868844 0.044557 0.913821 0.403665 133 244 178
-0.143090 0.100290 -0.634429 -0.264925 -0.460576 -0.847163 93 68 19
0.303974 -0.196261 0.682906 -0.068771 0.852187 -0.518698 118 236 61
0.252214 -0.215031 0.507214 0.413742 0.904288 0.105264 180 242 140
0.030299 -0.185979 -0.446184 0.494907 0.690579 0.527416 190 215 194
0.141208 -0.179801 -0.614422 0.720613 0.658398 -0.217322 219 211 99
0.795080 0.075981 0.187917 -0.965494 0.023303 0.259381 4 130 160
0.230764 -0.108189 -0.945827 0.036624 0.449949 0.892303 132 184 241
-0.471976 -0.061806 0.501638 0.800930 0.180209 -0.570995 229 150 54
-0.091125 0.243449 0.587791 -0.251193 -0.953843 0.164575 95 5 148
-0.077209 -0.209286 0.704861 -0.056733 0.828782 -0.556689 120 233 56
-0.408188 0.112879 -0.326998 0.888863 -0.458074 -0.009528 240 69 126
-0.069787 -0.076421 0.101127 -0.509755 0.243494 -0.825143 62 158 22
0.091202 0.041144 0.765550 0.063563 -0.199465 -0.977841 135 102 2
0.200593 -0.063770 0.295342 0.859464 0.252400 -0.444539 237 159 70
0.612720 0.290108 0.428305 -0.507132 -0.859941 0.057606 62 17 134
0.032311 0.151314 -0.494779 0.728234 -0.196963 0.656415 220 102 211
-0.070110 0.174705 0.522060 -0.355058 -0.521656 0.775764 82 60 226
-0.209903 0.026421 0.742123 0.289420 -0.386788 -0.875575 164 78 15
-0.338007 -0.155150 -0.017355 0.776000 0.383292 0.500911 226 176 191
-0.150334 -0.225265 0.558213 -0.457784 0.814057 0.357416 69 231 173
-0.486127 0.161454 0.367367 0.802604 -0.581320 0.133769 229 53 144
0.144510 0.123792 0.213114 0.921820 -0.097066 -0.375268 245 115 79
0.375343 0.236470 0.565183 0.260938 -0.964511 -0.040361 160 4 122
-0.446658 0.010671 -0.278906 0.848884 -0.307942 -0.429614 235 88 72
0.229809 0.101570 0.386176 0.822037 -0.317905 -0.472433 232 86 67
-0.246899 -0.254627 0.051628 -0.360361 0.881625 -0.304759 81 239 88
0.650935 -0.271228 0.422755 -0.446258 0.890224 0.091406 70 241 139
0.832718 -0.137417 0.480384 -0.875473 0.362173 0.319966 15 173 168
0.229236 0.121150 -0.337380 -0.925265 -0.315396 -0.210735 9 87 100
0.050781 0.178488 -0.507116 0.728234 -0.196963 0.656415 220 102 211
-0.432960 0.160910 0.183713 0.663593 -0.728508 0.170057 212 34 149
0.856078 -0.039229 0.552611 -0.993559 0.113313 -0.000134 0 141 127
0.381619 0.044177 -0.893149 -0.870635 -0.096548 0.482362 16 115 189
-0.245716 -0.192314 0.383673 -0.916949 0.386754 -0.098114 10 176 114
-0.088062 -0.085466 -0.663319 -0.405159 0.209566 -0.889904 75 154 14
-0.014964 0.177508 -0.726344 -0.210491 -0.621309 -0.754764 100 48 31
-0.080634 -0.037380 0.463605 -0.561744 0.308583 0.767607 55 166 225
-0.410936 -0.220237 0.441522 0.620185 0.672164 -0.404433 206 213 75
0.314644 0.225658 0.043250 -0.244373 -0.818261 0.520318 96 23 193
-0.040771 0.098191 -0.949643 0.021437 -0.432646 0.901309 130 72 242
0.099835 0.122984 -0.668019 0.962250 0.022052 0.271271 250 130 162
-0.097697 0.261881 -0.281374 -0.170870 -0.884714 0.433688 105 14 182
-0.418248 -0.071486 -0.656790 0.982654 0.177580 0.053438 252 150 134
0.462258 -0.270134 0.185523 -0.378246 0.793269 0.477131 79 228 188
-0.077601 0.124616 -0.932128 0.189346 -0.511354 0.838251 151 62 234
0.459790 -0.259346 0.534209 -0.156122 0.825708 -0.542063 107 232 58
0.711060 -0.232432 0.365057 -0.552474 0.831257 0.061522 57 233 135
0.309344 0.138109 -0.541927 -0.895624 -0.375640 -0.238226 13 79 97
0.312672 -0.113558 0.748669 -0.002423 0.499203 -0.866482 127 191 17
-0.337726 -0.189780 -0.665819 0.559889 0.779164 0.281830 198 226 163
-0.107055 -0.092102 0.468897 -0.403782 0.419034 0.813247 76 180 231
0.617593 0.277912 0.480011 0.000344 -0.858408 -0.512967 127 18 62
-0.361861 -0.007854 -0.745191 0.801097 -0.218985 0.557036 229 99 198
0.272907 0.088327 -0.434249 -0.720296 -0.487601 -0.493375 35 65 64
-0.071909 0.218345 0.008801 -0.020190 -0.858609 -0.512233 124 18 62
-0.291101 -0.246163 0.128382 -0.360361 0.881625 -0.304759 81 239 88
0.832421 -0.056404 0.594131 -0.530926 0.132797 -0.836948 59 144 20
-0.035831 0.153683 0.057218 -0.126545 -0.283006 -0.950733 111 91 6
-0.124292 0.264119 -0.174809 0.224269 -0.973670 -0.040866 156 3 122
0.112529 -0.143160 -0.923340 0.036624 0.449949 0.892303 132 184 241
-0.398065 -0.150159 -0.501357 0.815345 0.578878 0.010614 231 201 128
-0.475968 0.063643 0.520106 0.797227 -0.011099 -0.603577 229 126 50
-0.064530 0.176558 0.054228 -0.126545 -0.283006 -0.950733 111 91 6
0.767343 0.168796 0.548561 -0.795507 -0.597468 -0.100999 26 51 114
-0.407870 -0.134410 -0.607170 0.815345 0.578878 0.010614 231 201 128
-0.119094 0.264654 -0.159043 0.224269 -0.973670 -0.040866 156 3 122
-0.183340 0.115564 0.398843 -0.926714 -0.332150 0.175720 9 85 149
-0.031982 0.185597 0.547103 -0.560088 -0.320171 0.764063 56 86 224
0.644099 -0.053411 0.664512 -0.042028 0.298779 -0.953396 122 165 5
0.043830 -0.290106 -0.157097 -0.422382 0.906283 0.015619 73 243 129
-0.043213 0.006845 0.484327 -0.505800 -0.204889 0.837966 63 101 234
0.286165 -0.095822 -0.475971 -0.815509 0.065174 -0.575063 23 135 54
-0.482850 0.055055 0.179804 0.969264 -0.074532 0.234462 251 117 157
0.103088 0.163102 -0.691409 0.133684 -0.710509 -0.690874 144 36 39
0.371633 -0.131217 -0.849137 -0.489750 0.511672 0.705930 65 192 217
0.535809 -0.023031 0.075020 -0.253356 -0.103086 0.961865 95 114 250
-0.388730 -0.173761 0.075465 0.776000 0.383292 0.500911 226 176 191
0.320897 0.239996 0.595409 -0.130258 -0.898032 -0.420204 110 13 73
-0.302595 0.052277 0.700543 0.549300 0.027076 -0.835186 197 130 21
0.382215 -0.076681 -0.029732 -0.630803 0.011869 0.775853 47 129 226
-0.289029 0.213125 -0.730433 0.113306 -0.964751 0.237525 141 4 157
-0.083409 0.047501 0.470005 -0.505800 -0.204889 0.837966 63 101 234
0.291223 0.254450 0.077530 -0.244373 -0.818261 0.520318 96 23 193
-0.317490 -0.243440 0.332395 -0.165785 0.985582 0.033822 106 253 131
0.345705 -0.255556 0.523942 0.300904 0.951069 0.070172 165 248 136
0.279634 -0.220003 0.479686 0.571780 0.425550 0.701409 200 181 216
-0.426271 -0.162654 0.166718 0.706499 0.682590 0.186894 217 214 151
0.303675 -0.244648 -0.769098 -0.435178 0.897370 0.073122 72 241 136
0.013458 0.226384 -0.835756 0.119952 -0.992452 0.025507 142 0 130
0.372692 0.017554 -0.914591 -0.870635 -0.096548 0.482362 16 115 189
-0.428586 -0.122401 0.118009 0.871374 0.361320 0.331895 238 173 169
-0.259249 -0.059605 0.703578 0.510149 0.317556 -0.799316 192 167 25
-0.314691 0.071911 0.693224 0.549300 0.027076 -0.835186 197 130 21
0.141382 0.252767 -0.053708 -0.124436 -0.948975 -0.289763 111 6 90
-0.142117 0.227274 0.524453 -0.355058 -0.521656 0.775764 82 60 226
0.351429 -0.266876 0.289311 0.419890 0.904453 -0.075213 181 242 117
-0.349462 0.144498 -0.694094 0.675018 -0.506190 0.536770 213 62 195
-0.108675 -0.179831 0.734417 -0.052147 0.349111 -0.935629 120 172 8
-0.099732 -0.028540 0.446075 -0.561744 0.308583 0.767607 55 166 225
0.762510 0.167607 0.576792 -0.234329 -0.886838 -0.398256 97 14 76
-0.229812 -0.134355 0.705987 0.725723 0.199560 -0.658409 220 152 43
0.213015 -0.127381 -0.231134 -0.994083 0.108572 -0.003227 0 141 127
0.371194 -0.188718 -0.712172 -0.777227 0.482187 -0.404245 28 188 75
-0.238880 -0.227283 -0.537295 0.119909 0.992097 0.036944 142 253 132
0.314280 0.199763 -0.002406 -0.425209 -0.840811 0.335014 73 20 170
0.114256 0.077363 -0.963328 0.021437 -0.432646 0.901309 130 72 242
0.261103 0.072625 -0.138989 -0.900994 -0.076750 0.426989 12 117 181
-0.128154 0.247913 0.557145 -0.251193 -0.953843 0.164575 95 5 148
0.162080 -0.228184 -0.456259 -0.014261 0.976362 0.215670 125 251 154
0.539389 0.247291 0.196537 -0.307829 -0.855428 0.416515 88 18 180
-0.402106 -0.145543 -0.442736 0.815345 0.578878 0.010614 231 201 128
0.471368 -0.116310 0.657529 -0.434923 0.403820 -0.804843 72 178 24
0.714677 -0.223522 0.277159 -0.552474 0.831257 0.061522 57 233 135
0.618403 -0.274343 0.300444 -0.419881 0.899321 0.122151 73 242 143
0.091641 0.105973 -0.637414 0.957025 -0.283963 -0.058898 249 91 119
0.347240 -0.199382 0.664031 -0.164585 0.851593 -0.497696 106 236 64
-0.236429 -0.248181 -0.270180 0.228225 0.965481 0.125538 156 250 143
-0.291915 0.146156 0.663471 0.510154 -0.565616 -0.647937 192 55 44
-0.144074 -0.009265 0.392321 -0.848631 0.142065 0.509552 19 145 192
0.046700 0.226865 -0.009281 0.351586 -0.842726 -0.407676 172 20 75
0.416028 -0.263348 0.540717 -0.156122 0.825708 -0.542063 107 232 58
-0.016134 0.213836 -0.374046 0.357447 -0.822049 0.443246 173 22 184
0.797101 -0.054764 0.207185 -0.965494 0.023303 0.259381 4 130 160
-0.177155 -0.043271 -0.493461 -0.510618 0.105316 0.853333 62 140 236
0.625832 0.164661 0.143710 -0.221365 -0.526020 0.821158 99 60 232
0.109356 -0.175893 -0.680734 0.730484 0.420129 -0.538409 220 181 58
-0.016435 0.006162 0.498381 -0.448005 -0.194479 0.872622 70 102 238
0.160743 0.180083 0.192271 0.750746 -0.566631 -0.339572 223 55 84
0.006361 -0.224344 -0.767756 -0.186142 0.550121 -0.814075 103 197 23
-0.186949 -0.265885 -0.243018 0.286351 0.949974 0.124713 164 248 143
-0.248177 -0.247737 0.016044 0.541482 0.785655 0.299238 196 227 165
0.400608 -0.271827 0.450955 0.363155 0.913891 -0.181442 173 244 104
0.694535 -0.219017 0.545583 -0.072228 0.891028 -0.448165 118 241 70
-0.249442 0.220207 0.385381 -0.401174 -0.887223 0.227804 76 14 156
-0.148808 -0.066837 0.418855 -0.840456 0.395253 0.370687 20 177 174
0.830059 0.100758 0.416422 -0.803416 -0.593027 -0.053317 25 51 120
0.764120 -0.129691 0.212620 -0.868124 0.442265 0.225304 16 183 156
0.327574 -0.214132 0.645295 -0.164585 0.851593 -0.497696 106 236 64
-0.359010 0.209986 -0.596258 0.862473 -0.504043 0.045621 237 63 133
0.087062 -0.206900 0.691672 -0.056733 0.828782 -0.556689 120 233 56
0.209601 0.221258 0.662259 -0.015970 -0.784251 -0.620238 125 27 48
-0.413668 -0.016180 0.043923 0.796663 -0.103947 0.595418 229 114 203
0.027495 0.143298 -0.491841 0.728234 -0.196963 0.656415 220 102 211
-0.271711 -0.233852 -0.316240 0.228225 0.965481 0.125538 156 250 143
0.614142 -0.277625 0.440259 -0.112051 0.936554 -0.332132 113 246 85
-0.251259 0.213090 -0.486566 -0.218696 -0.944385 0.245577 99 7 158
-0.069321 -0.003692 0.465992 -0.505800 -0.204889 0.837966 63 101 234
-0.389854 0.068964 -0.674734 0.801097 -0.218985 0.557036 229 99 198
0.239024 0.160297 0.455647 0.819805 -0.301587 0.486790 232 89 189
0.812544 0.071560 0.267503 -0.975767 -0.110178 0.189047 3 113 151
0.590748 -0.043490 0.656672 0.393119 -0.093345 -0.914737 177 115 10
0.066297 0.227949 0.665178 -0.089461 -0.671719 -0.735384 116 41 33
0.266722 0.260412 0.090963 0.305484 -0.951838 -0.026142 166 6 124
0.407875 -0.231605 0.591419 -0.156122 0.825708 -0.542063 107 232 58
0.228235 -0.130458 0.739168 -0.002423 0.499203 -0.866482 127 191 17
-0.173977 -0.255258 0.024409 0.068364 0.954219 -0.291193 136 249 90
0.775411 -0.207097 0.529642 -0.731139 0.680054 0.054425 34 214 134
-0.369729 -0.075261 -0.026880 0.772742 0.359010 0.523433 226 173 194
0.586682 -0.243982 0.539196 -0.205364 0.869565 -0.449091 101 238 70
-0.144953 -0.117486 -0.636243 -0.768883 0.153251 -0.620752 29 147 48
-0.427175 0.066277 -0.379345 0.934187 -0.356714 0.007005 246 82 128
-0.009550 0.152548 -0.707308 -0.210491 -0.621309 -0.754764 100 48 31
-0.207202 0.253617 -0.305029 0.218964 -0.973463 -0.066512 155 3 119
-0.123101 -0.037533 0.153283 -0.577209 0.325180 -0.749058 53 168 31
-0.190832 0.135663 0.175985 -0.947794 -0.285737 -0.141563 6 91 109
-0.024405 0.116763 -0.457729 0.543236 -0.418019 0.728118 196 74 220
-0.107908 -0.004151 -0.627203 -0.486103 0.256588 -0.835384 65 160 20
0.262083 -0.214563 -0.551458 -0.222891 0.973062 -0.058905 99 251 119
-0.199270 0.148206 0.202783 -0.622334 -0.640930 -0.449342 48 45 70
0.495169 0.309442 0.344982 0.061466 -0.998073 0.008468 135 0 128
0.534501 -0.086217 0.660051 -0.330677 -0.009170 -0.943699 85 126 7
0.456103 0.073142 0.672635 -0.784164 -0.200425 -0.587296 27 101 52
-0.352113 -0.247732 0.480938 0.559874 0.647855 -0.516551 198 210 61
-0.027450 0.245295 0.657336 -0.006295 -0.943974 0.329961 126 7 169
-0.106233 0.225278 -0.844670 0.207025 -0.822119 0.530340 153 22 195
-0.184376 -0.212219 0.485695 -0.623514 0.547958 0.557649 48 197 198
-0.053965 -0.195690 0.039687 -0.350026 0.798256 -0.490172 82 229 65
0.321075 -0.070067 -0.519306 -0.837036 0.362293 -0.410018 20 173 75
-0.373585 0.185434 -0.587104 0.888863 -0.458074 -0.009528 240 69 126
-0.107573 0.145293 0.723436 0.289420 -0.386788 -0.875575 164 78 15
0.142190 0.208129 -0.646306 0.772865 -0.631938 0.057738 226 46 134
0.693195 -0.205839 0.571998 -0.072228 0.891028 -0.448165 118 241 70
0.071645 0.082222 -0.681220 0.394212 -0.223509 -0.891426 177 99 13
-0.106184 -0.123648 0.109676 -0.509755 0.243494 -0.825143 62 158 22
0.485124 0.309041 0.370634 0.061466 -0.998073 0.008468 135 0 128
0.298581 -0.232151 0.253950 0.653221 0.654908 -0.379998 210 211 79
0.740655 -0.214154 0.383858 -0.552474 0.831257 0.061522 57 233 135
-0.489493 0.050983 0.215257 0.992032 0.058310 0.111682 253 134 141
0.229100 -0.062325 0.407293 0.958571 0.258137 0.120444 249 160 142
0.286715 -0.186062 -0.859624 -0.449426 0.568543 0.689039 70 199 215
-0.229280 -0.139747 0.704939 0.725723 0.199560 -0.658409 220 152 43
0.078213 0.037867 -0.584403 0.962250 0.022052 0.271271 250 130 162
0.244901 -0.090967 -0.166666 -0.818148 0.102688 0.565765 23 140 199
0.096097 -0.225121 0.663052 -0.068771 0.852187 -0.518698 118 236 61
-0.362603 0.069658 -0.713652 0.801097 -0.218985 0.557036 229 99 198
-0.294509 0.228688 0.077631 0.664790 -0.646778 0.373808 212 45 175
-0.372975 -0.116381 -0.232728 0.709424 0.507501 -0.489040 217 192 65
-0.267894 -0.227717 -0.699664 0.559889 0.779164 0.281830 198 226 163
0.471851 0.110263 0.649617 -0.651093 -0.174874 -0.738578 44 105 33
-0.202058 0.199149 -0.658646 -0.279500 -0.825608 -0.490155 91 22 65
-0.182966 -0.220464 0.651036 0.360400 0.914653 -0.183087 173 244 104
-0.234150 -0.157673 0.694138 0.725723 0.199560 -0.658409 220 152 43
0.092229 0.269737 -0.193387 -0.540693 -0.834421 -0.106736 58 21 113
-0.422567 0.079157 -0.337968 0.934187 -0.356714 0.007005 246 82 128
0.629615 0.150178 0.619153 0.243754 -0.487717 -0.838282 158 65 20
0.367961 0.157149 -0.834336 -0.607395 -0.599343 0.521401 50 51 193
0.641773 -0.262664 0.294793 -0.419881 0.899321 0.122151 73 242 143
-0.278416 0.227955 -0.317300 0.402122 -0.910170 -0.099439 178 11 114
-0.019144 0.197510 -0.401897 0.357447 -0.822049 0.443246 173 22 184
0.039714 -0.172177 -0.740129 -0.186142 0.550121 -0.814075 103 197 23
-0.011465 0.245406 0.657958 -0.006295 -0.943974 0.329961 126 7 169
-0.446889 0.063181 0.103250 0.805133 -0.118706 0.581094 230 112 201
-0.198919 0.168998 0.162842 -0.947794 -0.285737 -0.141563 6 91 109
0.160526 0.086688 0.262055 0.921820 -0.097066 -0.375268 245 115 79
0.044605 -0.028047 -0.698194 0.674332 -0.044472 -0.737088 213 121 33
0.205892 0.148949 0.504415 0.819805 -0.301587 0.486790 232 89 189
0.055737 -0.209977 -0.438633 0.494907 0.690579 0.527416 190 215 194
0.334782 0.200670 0.675150 -0.130258 -0.898032 -0.420204 110 13 73
-0.078096 -0.061949 -0.946640 0.060078 0.227450 0.971935 135 156 251
0.648478 -0.029020 0.671963 -0.042028 0.298779 -0.953396 122 165 5
0.219224 -0.202867 0.173005 0.657727 0.620228 -0.427448 211 206 73
-0.360741 -0.167884 -0.680632 0.559889 0.779164 0.281830 198 226 163
-0.227091 0.198205 0.330439 -0.919583 -0.343825 0.190135 10 83 151
-0.048620 0.017706 -0.667919 -0.160726 -0.133099 -0.977984 107 110 2
0.582243 0.301335 0.345531 -0.533245 -0.838768 0.110085 59 20 141
0.176852 0.230273 -0.500310 0.640879 -0.766796 -0.036025 209 29 122
0.270561 0.241572 -0.822721 0.248951 -0.846636 0.470351 159 19 187
-0.166043 0.208625 0.471850 -0.592614 -0.671027 0.445568 51 41 184
0.590725 0.215312 0.178681 -0.335654 -0.693052 0.637978 84 39 208
0.201819 -0.192276 0.526297 0.571780 0.425550 0.701409 200 181 216
0.725592 0.066105 0.137202 -0.004278 -0.000260 0.999991 126 127 254
-0.091627 -0.020182 0.766175 0.063563 -0.199465 -0.977841 135 102 2
0.116594 0.186709 -0.575071 0.388743 -0.850528 0.354234 177 19 172
-0.468896 0.186302 0.426345 0.611438 -0.770204 -0.181462 205 29 104
0.354117 -0.144851 -0.031711 -0.537757 0.318105 0.780786 58 168 227
0.085497 -0.270242 -0.182914 -0.422382 0.906283 0.015619 73 243 129
-0.324539 0.102674 -0.159952 0.779032 -0.258301 -0.571305 226 94 54
-0.419864 -0.121554 -0.335568 0.723393 0.687912 -0.058994 219 215 119
0.206893 0.106456 -0.207400 -0.771759 -0.289094 0.566403 29 90 199
-0.139849 0.094587 -0.440950 -0.749890 -0.390815 0.533787 31 77 195
-0.036505 0.231720 -0.855058 -0.144138 -0.988714 0.040839 109 1 132
0.156470 -0.216675 -0.365233 -0.723059 0.596869 -0.347756 35 203 83
-0.281495 0.206983 0.618405 0.510013 -0.569898 -0.644285 192 54 45
0.087442 -0.178545 -0.902335 0.063732 0.523449 0.849670 135 194 235
-0.113239 0.239888 -0.332361 -0.170870 -0.884714 0.433688 105 14 182
-0.434388 -0.091563 0.544971 0.800930 0.180209 -0.570995 229 150 54
-0.227017 0.241300 0.477973 -0.116235 -0.915338 0.385546 112 10 176
0.514998 -0.157491 0.632305 -0.301738 0.576789 -0.759124 89 201 30
0.115923 0.179996 0.101376 0.895845 -0.300684 -0.327186 241 89 85
-0.381979 0.166632 0.125818 0.664790 -0.646778 0.373808 212 45 175
-0.025498 0.225129 0.581780 -0.251193 -0.953843 0.164575 95 5 148
-0.454879 -0.071278 0.522631 0.800930 0.180209 -0.570995 229 150 54
-0.370723 0.190411 -0.559404 0.888863 -0.458074 -0.009528 240 69 126
0.551141 0.173313 0.592051 -0.272446 -0.570716 -0.774633 92 54 28
0.817365 0.077484 0.295840 -0.975767 -0.110178 0.189047 3 113 151
-0.021273 0.263953 -0.276955 0.357447 -0.822049 0.443246 173 22 184
-0.091796 -0.205235 0.053543 -0.376096 0.810358 -0.449301 79 230 70
0.086944 0.138274 -0.559302 0.728234 -0.196963 0.656415 220 102 211
0.049237 0.196126 0.574606 0.072514 -0.199668 0.977177 136 102 252
0.034857 0.034229 0.095953 0.061161 -0.348606 -0.935272 135 83 8
-0.167548 0.078719 0.180162 -0.505176 -0.457557 -0.731737 63 69 34
-0.241824 -0.203684 0.627821 0.151368 0.843161 -0.515914 146 235 61
0.736658 0.024603 0.663642 -0.248521 0.138205 -0.958716 95 145 5
-0.104793 -0.234945 -0.372815 -0.140772 0.815311 0.561651 109 231 199
0.586735 0.285224 0.467754 0.000344 -0.858408 -0.512967 127 18 62
0.157281 -0.221848 -0.837915 0.044557 0.913821 0.403665 133 244 178
0.265149 -0.111651 0.749901 -0.002423 0.499203 -0.866482 127 191 17
0.290287 -0.002434 -0.959073 -0.298677 0.016043 0.954219 89 129 249
0.809173 0.110158 0.565970 -0.795507 -0.597468 -0.100999 26 51 114
-0.043392 0.211427 0.558982 -0.355058 -0.521656 0.775764 82 60 226
-0.320254 0.146506 -0.040072 0.772916 -0.299639 0.559300 226 89 198
-0.262194 -0.012733 -0.821991 0.643202 0.171695 0.746198 209 149 222
-0.275988 0.251788 0.461632 -0.401174 -0.887223 0.227804 76 14 156
0.402923 0.093148 -0.682089 -0.765865 -0.587558 -0.261203 29 52 94
0.144749 -0.229656 -0.450743 -0.014261 0.976362 0.215670 125 251 154
-0.200425 -0.152142 0.406434 -0.642651 0.572064 0.509650 45 200 192
-0.259412 -0.006130 -0.825908 0.643202 0.171695 0.746198 209 149 222
-0.148009 -0.034360 0.392764 -0.848631 0.142065 0.509552 19 145 192
0.488349 -0.235281 0.567773 -0.032271 0.834490 -0.550078 123 233 57
-0.294244 0.144361 -0.077166 0.772916 -0.299639 0.559300 226 89 198
0.322143 -0.226427 -0.790239 -0.687641 0.654336 0.314633 39 210 167
0.299048 -0.160761 -0.555481 -0.729003 0.459161 -0.507667 34 186 62
-0.129837 -0.081901 -0.442307 -0.687205 0.287446 0.667176 39 164 212
0.014769 -0.212011 -0.761343 -0.186142 0.550121 -0.814075 103 197 23
0.694225 -0.240492 0.502936 -0.072228 0.891028 -0.448165 118 241 70
0.632306 0.040513 0.108174 -0.332922 0.001484 0.942953 85 127 247
-0.032779 0.236200 -0.319147 0.357447 -0.822049 0.443246 173 22 184
-0.245812 -0.243233 -0.291177 0.228225 0.965481 0.125538 156 250 143
-0.386093 0.064919 0.009955 0.892028 -0.089132 0.443105 241 116 183
-0.174827 -0.213405 0.108309 -0.376096 0.810358 -0.449301 79 230 70
-0.477890 0.133064 0.239747 0.663593 -0.728508 0.170057 212 34 149
-0.146923 0.213957 -0.846336 0.207025 -0.822119 0.530340 153 22 195
0.163316 0.020286 0.275271 0.866009 0.292470 -0.405574 237 164 75
0.270533 0.059808 -0.121394 -0.900994 -0.076750 0.426989 12 117 181
-0.119845 0.048524 0.156113 -0.671748 -0.320994 -0.667621 41 86 42
0.180941 -0.246715 -0.030451 -0.284635 0.953390 0.100149 91 249 140
0.692381 0.039130 0.669771 0.073154 -0.331373 -0.940660 136 85 7
0.213151 -0.134763 -0.366149 -0.980352 0.168632 -0.102339 2 149 114
0.717760 0.124694 0.147830 -0.513610 -0.621638 0.591414 62 48 202
-0.223378 -0.144206 0.364542 -0.916949 0.386754 -0.098114 10 176 114
-0.092187 0.050020 -0.446912 0.016813 -0.264897 0.964130 129 93 250
0.175687 0.233052 0.114346 0.259443 -0.964166 -0.055439 160 4 120
0.096966 -0.034349 -0.610646 0.961540 0.173579 0.212864 250 149 154
0.230718 -0.150253 -0.416586 -0.791880 0.531396 -0.300906 26 195 89
0.259412 -0.196456 0.688494 -0.068771 0.852187 -0.518698 118 236 61
0.299980 -0.060010 0.769807 -0.014377 0.021516 -0.999665 125 130 0
0.794506 0.066365 0.186642 -0.965494 0.023303 0.259381 4 130 160
0.342506 0.190765 -0.724525 -0.765865 -0.587558 -0.261203 29 52 94
0.229736 -0.105786 0.451503 0.749679 0.101233 0.654013 223 140 210
-0.415128 0.089726 -0.537197 0.982519 -0.150883 0.109043 252 108 141
-0.336468 0.037198 -0.146615 0.779032 -0.258301 -0.571305 226 94 54
-0.237084 0.099045 -0.878279 0.675018 -0.506190 0.536770 213 62 195
0.636669 -0.260497 0.261294 -0.419881 0.899321 0.122151 73 242 143
0.224007 -0.008315 0.772012 -0.014377 0.021516 -0.999665 125 130 0
0.491880 -0.232122 0.145807 -0.378246 0.793269 0.477131 79 228 188
-0.285969 0.222452 0.329802 -0.401174 -0.887223 0.227804 76 14 156
-0.348162 0.214384 -0.475133 0.402122 -0.910170 -0.099439 178 11 114
-0.397218 -0.082773 0.018992 0.776000 0.383292 0.500911 226 176 191
-0.381307 -0.173562 -0.512354 0.815345 0.578878 0.010614 231 201 128
0.771965 0.162437 0.356013 -0.740815 -0.663062 0.107434 33 42 141
-0.313433 0.223492 -0.637202 0.114218 -0.993373 0.012848 142 0 129
-0.128270 0.216473 0.675372 0.202564 -0.606643 -0.768734 153 50 29
0.773016 -0.102574 0.624489 -0.530926 0.132797 -0.836948 59 144 20
-0.211131 -0.104596 -0.846882 0.642731 0.101704 0.759311 209 140 224
-0.249365 -0.224618 -0.574836 0.119909 0.992097 0.036944 142 253 132
0.252557 -0.111970 -0.142949 -0.822831 0.394770 0.408786 22 177 179
0.576752 -0.123862 0.099023 -0.265139 0.146931 0.952950 93 146 249
0.204748 -0.099892 0.756844 -0.002423 0.499203 -0.866482 127 191 17
0.662526 0.248082 0.328670 -0.533245 -0.838768 0.110085 59 20 141
0.380910 -0.145510 -0.679313 -0.777227 0.482187 -0.404245 28 188 75
-0.352858 -0.072068 -0.053977 0.772742 0.359010 0.523433 226 173 194
-0.196271 -0.239803 -0.086126 0.308079 0.895316 0.321708 166 241 168
-0.228491 -0.057699 0.730677 0.725723 0.199560 -0.658409 220 152 43
-0.276544 -0.206385 0.608636 0.349597 0.808228 -0.473865 172 230 67
-0.170928 -0.012975 -0.900604 0.643202 0.171695 0.746198 209 149 222
-0.409305 0.102990 -0.571314 0.982519 -0.150883 0.109043 252 108 141
0.580778 -0.100476 0.652554 -0.042028 0.298779 -0.953396 122 165 5
0.531124 0.292058 0.448469 0.157267 -0.852851 -0.497908 147 18 64
-0.341002 -0.207762 -0.609595 0.559889 0.779164 0.281830 198 226 163
-0.442621 -0.048815 -0.276127 0.868552 0.358175 -0.342532 238 173 83
0.414647 0.280407 0.396235 0.415766 -0.895010 -0.161542 180 13 106
0.146623 -0.041470 0.203659 0.859464 0.252400 -0.444539 237 159 70
-0.004126 -0.047699 -0.687811 -0.414990 0.083766 -0.905962 74 138 11
0.089169 0.269092 -0.299178 0.020451 -0.978084 0.207206 130 2 153
0.178205 0.208957 0.596765 -0.088974 -0.826406 0.556000 116 22 198
0.312948 -0.082754 0.766415 -0.002423 0.499203 -0.866482 127 191 17
0.353301 0.112557 0.738088 -0.314898 -0.412989 -0.854564 87 74 18
0.463953 0.307479 0.340184 0.061466 -0.998073 0.008468 135 0 128
-0.236696 0.229023 0.442166 -0.401174 -0.887223 0.227804 76 14 156
0.346136 0.234266 0.477469 0.416174 -0.895589 -0.157222 180 13 107
0.339781 0.238369 0.437275 0.416174 -0.895589 -0.157222 180 13 107
-0.386199 -0.101848 -0.699061 0.642731 0.101704 0.759311 209 140 224
0.788730 -0.082978 0.215752 -0.868124 0.442265 0.225304 16 183 156
0.764088 -0.169619 0.601197 -0.242621 0.773030 -0.586139 96 226 52
0.359027 -0.264518 0.360080 0.419890 0.904453 -0.075213 181 242 117
0.618941 -0.149110 0.635631 -0.042028 0.298779 -0.953396 122 165 5
0.197169 -0.257878 0.038699 -0.021056 0.999410 0.027123 124 254 130
-0.269818 -0.253832 0.504474 -0.085493 0.980859 0.174946 116 252 149
-0.443292 -0.206064 0.415461 0.620185 0.672164 -0.404433 206 213 75
-0.422395 -0.179776 0.489993 0.559874 0.647855 -0.516551 198 210 61
0.103215 -0.072935 -0.607406 0.961540 0.173579 0.212864 250 149 154
0.180278 -0.228692 -0.512678 -0.117644 0.990560 -0.070363 112 253 118
-0.366482 -0.136599 0.585323 0.627249 0.388889 -0.674777 207 177 41
-0.040614 0.013125 -0.966526 0.060078 0.227450 0.971935 135 156 251
-0.104699 0.122535 -0.426770 0.016813 -0.264897 0.964130 129 93 250
-0.336117 -0.241307 0.158291 0.541482 0.785655 0.299238 196 227 165
0.247985 0.230475 0.287987 0.374476 -0.903763 -0.207316 175 12 101
0.510206 0.249146 0.530312 -0.076788 -0.909692 -0.408123 117 11 75
-0.333590 0.215352 0.124059 0.664790 -0.646778 0.373808 212 45 175
0.505452 -0.295730 0.267121 -0.221515 0.945432 0.238934 99 248 157
0.708663 0.228381 0.402048 -0.533245 -0.838768 0.110085 59 20 141
-0.198188 0.099128 0.291066 -0.919583 -0.343825 0.190135 10 83 151
-0.349938 0.190226 -0.334521 0.785952 -0.609796 -0.102117 227 49 114
0.192491 -0.080779 -0.958078 0.036624 0.449949 0.892303 132 184 241
0.228678 -0.213887 -0.088246 -0.694450 0.537471 0.478397 38 196 188
0.222332 -0.038058 -0.257338 -0.994953 0.099969 -0.008596 0 140 126
0.517585 -0.127457 0.083116 -0.265139 0.146931 0.952950 93 146 249
-0.083450 0.137486 -0.922956 0.189346 -0.511354 0.838251 151 62 234
0.242759 0.238913 0.241763 0.374476 -0.903763 -0.207316 175 12 101
-0.276237 -0.190095 -0.133350 0.752565 0.654262 -0.074748 223 210 117
0.792032 0.063966 0.173056 -0.993936 0.013798 0.109095 0 129 141
0.309104 -0.130426 -0.890315 -0.449333 0.561158 0.695127 70 199 216
-0.320475 -0.079925 -0.096394 0.772742 0.359010 0.523433 226 173 194
0.646255 0.271536 0.481536 -0.460457 -0.766904 -0.447033 68 29 70
0.381927 -0.273332 0.381942 0.419890 0.904453 -0.075213 181 242 117
-0.181229 -0.204188 -0.672261 -0.413724 0.640654 -0.646835 74 209 45
0.241730 -0.231321 0.633556 -0.068771 0.852187 -0.518698 118 236 61
0.371113 -0.267589 0.390620 0.419890 0.904453 -0.075213 181 242 117
0.294269 0.147927 -0.524339 -0.720296 -0.487601 -0.493375 35 65 64
0.252333 0.253420 0.177388 0.305484 -0.951838 -0.026142 166 6 124
0.357667 -0.118342 -0.620542 -0.753360 0.357220 -0.552126 31 173 57
0.203728 -0.158663 0.217549 0.653221 0.654908 -0.379998 210 211 79
-0.407868 -0.043878 0.031327 0.796663 -0.103947 0.595418 229 114 203
-0.434704 0.008852 -0.472716 0.982519 -0.150883 0.109043 252 108 141
0.421141 -0.050562 -0.710946 -0.989026 -0.037515 -0.142896 1 122 109
-0.081775 0.098157 -0.947326 0.189346 -0.511354 0.838251 151 62 234
0.187214 -0.184852 -0.330356 -0.691460 0.717443 0.084602 39 218 138
-0.405991 -0.145968 0.085586 0.854647 0.334910 0.396754 236 170 178
-0.465154 -0.037130 0.121187 0.871374 0.361320 0.331895 238 173 169
0.367277 0.013651 -0.925146 -0.870635 -0.096548 0.482362 16 115 189
-0.188639 -0.168210 -0.440871 -0.345905 0.590864 0.728855 83 202 220
-0.055532 -0.170710 -0.424958 0.053958 0.616817 0.785255 134 206 227
0.219446 0.097155 -0.258481 -0.925265 -0.315396 -0.210735 9 87 100
-0.423268 -0.227361 0.321943 0.720343 0.615803 0.319207 219 206 168
-0.295059 0.155346 -0.177903 0.808990 -0.584596 -0.061503 230 52 119
0.460350 -0.284991 0.208712 -0.378246 0.793269 0.477131 79 228 188
0.136308 0.252949 -0.358352 -0.070252 -0.974947 0.211054 118 3 154
-0.225099 0.182429 -0.608181 -0.762489 -0.639509 -0.098175 30 45 114
-0.173612 0.184189 0.684424 0.289420 -0.386788 -0.875575 164 78 15
0.405656 0.263799 0.466791 0.416174 -0.895589 -0.157222 180 13 107
-0.242723 -0.203847 0.310239 -0.916949 0.386754 -0.098114 10 176 114
0.767328 -0.191739 0.570682 -0.242621 0.773030 -0.586139 96 226 52
0.337270 -0.254356 0.360822 0.419890 0.904453 -0.075213 181 242 117
-0.163207 -0.127684 -0.874030 0.551047 0.450919 0.702153 197 184 217
0.025269 -0.215182 -0.863297 -0.030241 0.947980 0.316891 123 248 167
-0.106585 0.212117 0.030200 -0.230568 -0.829658 -0.508436 98 21 62
-0.017073 0.213331 -0.374226 0.357447 -0.822049 0.443246 173 22 184
-0.381932 0.168107 0.128286 0.664790 -0.646778 0.373808 212 45 175
-0.408052 0.095327 -0.593207 0.982519 -0.150883 0.109043 252 108 141
0.112060 0.038788 0.529277 0.310888 -0.353713 0.882177 167 82 239
-0.254964 0.205031 -0.122767 0.808990 -0.584596 -0.061503 230 52 119
0.429295 0.113534 0.035106 -0.631801 -0.364913 0.683861 46 80 214
0.084914 -0.263784 -0.314504 -0.182089 0.972093 0.147916 104 251 146
-0.436835 -0.076282 -0.351354 0.956476 0.283441 0.069389 249 163 136
-0.320036 -0.193594 -0.690417 0.559889 0.779164 0.281830 198 226 163
0.821505 0.109707 0.372180 -0.740815 -0.663062 0.107434 33 42 141
-0.017540 0.070820 -0.680255 -0.160726 -0.133099 -0.977984 107 110 2
0.061604 0.160467 0.732160 -0.037609 -0.516999 -0.855159 122 61 18
0.578613 0.147428 0.605923 0.243754 -0.487717 -0.838282 158 65 20
0.323436 -0.229327 0.016161 -0.383773 0.713926 0.585686 78 218 202
0.360131 -0.025669 -0.559806 -0.837036 0.362293 -0.410018 20 173 75
0.048645 -0.219727 0.676491 -0.056733 0.828782 -0.556689 120 233 56
-0.221577 0.212376 -0.669796 -0.279500 -0.825608 -0.490155 91 22 65
0.553553 0.141109 0.109139 -0.221365 -0.526020 0.821158 99 60 232
0.239375 0.158324 -0.460692 -0.678447 -0.531723 -0.506931 40 59 62
0.760363 -0.040701 0.147520 -0.676401 0.295961 0.674455 41 165 213
-0.025710 0.204251 0.698018 -0.089461 -0.671719 -0.735384 116 41 33
