ply
format ascii 1.0
element vertex 1024
property float x
property float y
property float z
property float nx
property float ny
property float nz
property uchar red
property uchar green
property uchar blue
end_header
0.247675 0.179805 -0.673461 -0.203230 -0.517235 0.831364 101 61 233
0.079242 -0.224192 0.055061 0.583759 0.724319 -0.366862 201 219 80
0.369874 -0.209913 -0.527359 -0.300757 0.951160 0.069571 89 248 136
0.071660 -0.063687 0.175994 0.923682 0.126696 -0.361607 245 143 81
0.389904 0.157660 -0.469444 0.140394 -0.394250 -0.908216 145 77 11
-0.311487 0.077687 -0.257619 0.628847 -0.269972 -0.729155 207 93 34
0.237657 -0.232739 0.671059 -0.124571 0.978482 0.164485 111 252 148
-0.468476 0.152199 -0.435276 0.653440 -0.449697 -0.608925 210 70 49
-0.033248 0.231759 0.851827 -0.027182 -0.828508 -0.559318 124 21 56
-0.111427 -0.153807 -0.091619 0.598670 0.656781 -0.458511 203 211 69
-0.598245 -0.001394 -0.763029 0.832474 -0.024217 0.553535 233 124 198
0.051743 -0.006412 0.608988 0.736085 -0.178540 0.652919 221 104 210
0.447296 -0.192966 -0.538586 -0.132541 0.908792 0.395639 110 243 177
0.150820 -0.153497 -0.128861 -0.643484 0.487405 0.590224 45 189 202
0.519815 -0.195810 -0.503324 0.010929 0.610008 -0.792320 128 205 26
-0.510672 -0.244818 -0.621910 0.429210 0.878426 -0.210110 182 239 100
0.169181 -0.238653 -0.590921 0.009650 0.890612 -0.454661 128 241 69
0.318836 0.108360 0.037401 -0.807863 -0.396585 0.435979 24 76 183
0.082477 -0.131364 0.601156 0.622283 0.373620 0.687875 206 175 215
0.680984 0.110927 -0.412397 0.049740 -0.478597 -0.876624 133 66 15
0.069167 -0.201826 -0.715521 0.039840 0.891331 0.451600 132 241 185
-0.095495 0.050889 -0.541161 0.059756 -0.223325 -0.972911 135 99 3
-0.482367 0.025813 -0.805240 -0.022017 -0.146488 0.988967 124 108 253
0.301683 -0.146276 0.717118 -0.913372 0.400541 -0.072931 11 178 118
-0.113793 -0.097763 0.960295 -0.064946 0.114838 -0.991259 119 142 1
-0.610721 -0.086941 -0.688566 0.918023 0.367732 0.148348 244 174 146
-0.481967 -0.061865 -0.397679 0.667766 -0.070858 -0.740991 212 118 33
0.244317 0.045103 -0.059235 -0.737633 -0.049742 0.673367 33 121 213
-0.183077 0.203584 -0.562293 -0.456306 -0.617455 -0.640729 69 48 45
-0.330938 -0.053981 0.645861 0.998192 0.027542 0.053420 254 131 134
0.041605 0.191968 0.888246 -0.052248 -0.510494 -0.858293 120 62 18
-0.443857 0.261128 -0.629232 0.169656 -0.974466 0.147084 149 3 146
-0.267229 0.031391 0.930507 0.436215 -0.315814 -0.842602 183 87 20
-0.046049 0.127677 -0.014951 0.689000 -0.221106 -0.690211 215 99 39
0.205665 0.062876 0.909106 -0.385378 -0.037918 -0.921980 78 122 9
-0.367758 0.269653 -0.626800 -0.174246 -0.983989 -0.037472 105 2 122
-0.571885 0.053773 -0.472051 0.642096 -0.393336 -0.658027 209 77 43
-0.211479 0.160682 -0.187217 0.656969 -0.456416 -0.600064 211 69 50
0.812201 -0.132977 -0.420447 -0.088403 0.615860 -0.782880 116 206 27
0.292927 -0.197525 0.298902 -0.818203 0.574926 -0.002202 23 200 127
-0.182525 0.158815 0.588616 -0.281194 -0.447668 0.848837 91 70 235
-0.385574 -0.261767 -0.625212 0.074165 0.986766 -0.144197 136 253 109
-0.243763 0.222454 -0.515740 -0.765367 -0.580399 0.278120 29 53 162
0.335441 0.109670 0.256779 -0.948094 -0.313449 -0.053545 6 87 120
0.167254 -0.231427 -0.627925 -0.065800 0.973426 0.219343 119 251 155
-0.232836 0.254056 -0.591351 -0.072776 -0.986708 -0.145297 118 1 108
-0.303394 -0.170083 -0.748671 -0.009768 0.566351 0.824106 126 199 232
0.613093 0.011887 -0.603809 -0.373762 -0.239421 0.896091 79 96 241
0.210590 -0.184192 -0.502111 0.030786 0.613982 -0.788719 131 205 26
0.075347 0.119246 -0.522367 0.538570 -0.271234 -0.797731 196 92 25
0.164403 0.147444 -0.103878 -0.663139 -0.475061 0.578414 42 66 201
-0.177057 0.142715 0.927550 0.322293 -0.468435 -0.822616 168 67 22
-0.141876 -0.031329 -0.509514 -0.618167 -0.138069 -0.773826 48 109 28
-0.359458 0.148438 -0.328430 0.618684 -0.430285 -0.657332 206 72 43
-0.223453 -0.228519 -0.578806 -0.242931 0.819931 -0.518360 96 232 61
0.209170 -0.243665 0.714484 -0.124571 0.978482 0.164485 111 252 148
-0.497058 -0.207311 -0.724653 0.319906 0.573514 0.754150 168 200 223
-0.269894 -0.219954 0.648209 0.668619 0.740753 -0.065075 212 221 119
-0.250670 0.251807 -0.672402 0.023704 -0.823517 0.566796 130 22 199
-0.489591 -0.029030 -0.407689 0.667766 -0.070858 -0.740991 212 118 33
0.659228 -0.175517 -0.540743 -0.333946 0.278311 0.900568 84 162 242
-0.481239 -0.160756 -0.757189 -0.009768 0.566351 0.824106 126 199 232
-0.449881 -0.107687 -0.396999 0.593690 0.436629 -0.675934 203 183 41
-0.324728 -0.217702 -0.711203 -0.015868 0.755449 0.655015 125 223 211
0.015961 0.241154 0.837188 -0.004715 -0.791242 -0.611485 126 26 49
-0.419040 0.176450 -0.403469 0.385011 -0.795870 -0.467287 176 26 67
-0.384556 -0.224227 -0.465866 0.374177 0.785592 -0.492784 175 227 64
-0.513622 -0.028332 -0.428532 0.411733 -0.010034 -0.911249 179 126 11
0.042748 0.006168 -0.511393 0.386439 -0.033661 -0.921701 176 123 9
0.086009 0.193999 0.659792 0.375845 -0.738627 0.559617 175 33 198
0.552991 0.034315 -0.408569 0.107941 -0.260009 -0.959554 141 94 5
0.042996 -0.212643 0.697000 -0.018172 0.697449 0.716404 125 216 218
0.192165 0.079179 -0.753968 -0.318127 -0.365617 0.874711 86 80 239
-0.440273 -0.139229 -0.408935 0.593690 0.436629 -0.675934 203 183 41
-0.030093 -0.117124 -0.780104 -0.022437 0.146184 0.989003 124 146 253
-0.195685 0.071876 0.952371 0.436215 -0.315814 -0.842602 183 87 20
0.055578 -0.060072 0.132130 0.939811 0.107828 -0.324235 247 141 86
0.032664 -0.221863 0.705714 -0.018172 0.697449 0.716404 125 216 218
0.131554 0.165011 0.570171 0.663341 -0.748013 -0.021333 212 32 124
-0.323423 -0.055432 -0.252856 0.727830 0.091544 -0.679619 220 139 40
-0.281720 0.115703 0.890404 0.866788 -0.456514 -0.200685 238 69 101
0.587596 -0.111410 -0.434216 0.044062 0.631062 -0.774480 133 207 28
-0.060461 -0.222399 -0.256068 -0.315921 0.887818 0.334623 87 240 170
-0.120277 0.213866 0.652555 -0.222648 -0.724614 0.652199 99 35 210
-0.129254 -0.156154 -0.110730 0.426303 0.668671 -0.609216 181 212 49
-0.026291 0.168321 -0.008248 0.689000 -0.221106 -0.690211 215 99 39
0.063211 0.152934 0.909641 -0.056796 -0.503201 -0.862301 120 63 17
0.063052 -0.067029 0.151480 0.939811 0.107828 -0.324235 247 141 86
0.251752 0.038541 -0.051575 -0.737633 -0.049742 0.673367 33 121 213
-0.121100 0.061271 -0.067903 0.513569 -0.260747 -0.817470 192 94 23
-0.158710 0.085335 -0.516882 -0.618167 -0.138069 -0.773826 48 109 28
-0.044033 -0.247503 0.837959 0.016215 0.748843 -0.662550 129 222 43
0.224959 0.226921 0.176864 -0.168289 -0.985668 0.011713 106 1 128
-0.181418 0.259363 0.692630 -0.144789 -0.897557 0.416446 109 13 180
0.394556 -0.058811 -0.438734 0.051662 0.249811 -0.966915 134 159 4
-0.064636 0.131004 -0.034572 0.689000 -0.221106 -0.690211 215 99 39
-0.263783 -0.046413 0.937990 0.569264 0.141006 -0.809973 200 145 24
-0.605003 -0.125266 -0.531532 0.917333 0.132261 -0.375510 244 144 79
0.102233 0.165903 0.173304 0.840532 -0.240856 -0.485277 234 96 65
0.340362 -0.005419 0.478965 -0.994402 -0.061906 -0.085629 0 119 116
0.137295 -0.222811 -0.564670 0.236449 0.800649 -0.550502 157 229 57
0.898092 0.006487 -0.416480 -0.827888 0.028890 -0.560149 21 131 56
-0.102829 0.230166 -0.177399 0.513532 -0.735568 -0.441843 192 33 71
-0.144777 0.101253 -0.095530 0.513569 -0.260747 -0.817470 192 94 23
-0.447418 0.147409 -0.777346 0.008639 -0.590607 0.806913 128 52 230
0.211084 0.233462 0.527922 -0.168289 -0.985668 0.011713 106 1 128
-0.365920 0.253717 -0.515149 0.300167 -0.890606 -0.341645 165 13 83
-0.270009 -0.207568 0.788009 0.668619 0.740753 -0.065075 212 221 119
0.284998 0.035065 0.820064 -0.895583 -0.210142 -0.392137 13 100 77
-0.194454 0.241083 0.723470 0.488245 -0.856088 -0.169499 189 18 105
0.346954 -0.012040 0.407196 -0.994402 -0.061906 -0.085629 0 119 116
-0.203212 -0.031389 -0.797365 -0.024421 0.161988 0.986491 124 148 253
0.485846 -0.086192 -0.440931 0.051662 0.249811 -0.966915 134 159 4
-0.149678 0.155670 -0.444616 -0.612945 -0.669524 0.419567 49 42 180
0.241348 0.224357 0.196602 -0.168289 -0.985668 0.011713 106 1 128
0.340506 -0.035650 0.499146 -0.994402 -0.061906 -0.085629 0 119 116
0.176887 -0.219395 0.392078 0.689891 0.723837 -0.010539 215 219 126
0.326546 0.009556 0.628578 -0.994402 -0.061906 -0.085629 0 119 116
0.617076 -0.112251 -0.575624 -0.230290 0.327249 0.916447 98 169 244
0.023186 -0.158013 0.049096 0.835812 0.280142 -0.472164 234 163 67
0.189297 0.098626 -0.743965 -0.560065 -0.482009 0.673791 56 66 213
-0.283854 -0.226791 -0.374102 0.448434 0.798659 -0.401311 184 229 76
0.303533 0.131283 0.650781 -0.971883 -0.234678 0.019240 3 97 129
0.155552 0.187083 0.542453 0.663341 -0.748013 -0.021333 212 32 124
0.141887 -0.033996 0.935928 -0.451449 0.079395 -0.888757 69 137 14
0.160088 -0.020218 -0.168416 -0.750684 0.114395 0.650682 31 142 210
-0.151987 -0.256373 0.809518 0.367107 0.857583 -0.360255 174 236 81
-0.222809 -0.018213 -0.137636 0.751828 0.111520 -0.649861 223 141 44
-0.297662 -0.140732 0.829444 0.785048 0.499673 -0.366097 227 191 80
0.254450 -0.177642 -0.678592 -0.231653 0.599545 0.766083 97 203 225
-0.268933 0.186888 -0.292296 0.501820 -0.731389 -0.461786 191 34 68
0.245457 0.207569 -0.651374 -0.291965 -0.849505 0.439430 90 19 183
0.445922 -0.058500 -0.435909 0.051662 0.249811 -0.966915 134 159 4
-0.618628 0.022349 -0.700421 0.999709 0.016969 -0.017171 254 129 125
-0.049700 0.053091 -0.405213 -0.744778 -0.097572 0.660140 32 115 211
0.204800 -0.158770 -0.064328 -0.672854 0.436513 0.597263 41 183 203
-0.102583 -0.221615 -0.607088 0.078788 0.567911 -0.819310 137 199 23
-0.379723 0.218250 -0.437727 0.377973 -0.757672 -0.532042 175 30 59
-0.087460 -0.170052 0.635345 -0.325523 0.669719 0.667467 85 212 212
0.009762 -0.135188 -0.298822 -0.669093 0.492859 0.556241 42 190 198
-0.236912 -0.222713 -0.411816 -0.014254 0.999674 0.021158 125 254 130
-0.600749 -0.146749 -0.542385 0.627829 0.692429 -0.355490 207 215 82
0.474631 0.170815 -0.598233 -0.488989 -0.403025 0.773603 65 76 226
0.053586 -0.016533 -0.506020 0.386439 -0.033661 -0.921701 176 123 9
0.138132 -0.104866 -0.770971 -0.314317 0.189006 0.930313 87 151 246
0.526644 0.112226 -0.602805 -0.249888 -0.349970 0.902816 95 82 242
0.030336 -0.035155 0.957746 -0.058661 0.094302 -0.993814 120 139 0
-0.410682 -0.149620 -0.764006 -0.009768 0.566351 0.824106 126 199 232
-0.270559 0.177407 0.690082 0.858431 -0.512733 -0.014201 236 62 125
-0.595100 -0.019124 -0.486649 0.831071 0.097278 -0.547593 233 139 57
-0.064311 -0.125808 -0.776265 -0.009768 0.566351 0.824106 126 199 232
0.088903 -0.240823 0.829183 -0.295764 0.868208 -0.398419 89 238 76
0.250915 -0.066483 -0.055496 -0.750684 0.114395 0.650682 31 142 210
-0.140601 -0.212227 -0.184466 0.291409 0.950350 -0.109154 164 248 113
-0.213747 -0.213729 -0.713097 -0.015868 0.755449 0.655015 125 223 211
0.248226 -0.224205 0.719715 -0.441542 0.887108 -0.134462 71 240 110
0.135780 0.045327 -0.184167 -0.753920 -0.197572 0.626554 31 102 207
-0.014153 -0.206696 -0.040695 0.501356 0.754245 -0.423978 191 223 73
-0.596428 -0.146265 -0.629423 0.869298 0.475464 0.135112 238 188 144
-0.384324 0.065554 -0.797171 -0.022017 -0.146488 0.988967 124 108 253
0.261392 -0.219394 -0.619588 -0.297560 0.835103 0.462667 89 233 186
0.036118 0.232399 -0.690499 -0.020689 -0.950386 0.310385 124 6 167
0.144550 -0.146305 0.921869 -0.446910 0.664548 -0.598872 70 212 51
-0.016003 -0.158128 0.924031 0.029913 0.660411 -0.750309 131 211 31
-0.129319 0.125011 0.588413 -0.281194 -0.447668 0.848837 91 70 235
0.768822 -0.154712 -0.502630 -0.426207 0.266999 0.864326 73 161 237
-0.330723 0.260653 -0.562678 -0.174246 -0.983989 -0.037472 105 2 122
-0.106511 0.181573 -0.371301 -0.418890 -0.863268 0.281603 74 17 163
-0.541303 0.020061 -0.441572 0.411733 -0.010034 -0.911249 179 126 11
-0.493305 -0.194882 -0.493237 0.284591 0.829225 -0.481035 163 233 66
0.183732 -0.114487 0.908209 -0.462848 0.059542 -0.884435 68 135 14
-0.351975 0.033842 -0.801148 -0.022017 -0.146488 0.988967 124 108 253
0.064442 -0.073976 0.951373 -0.064946 0.114838 -0.991259 119 142 1
-0.595280 0.051521 -0.511607 0.878565 -0.258442 -0.401660 239 94 76
0.278997 0.087261 -0.018131 -0.737633 -0.049742 0.673367 33 121 213
0.169745 0.128643 0.898583 -0.379500 -0.548703 -0.744920 79 57 32
0.563553 0.073496 -0.607602 -0.249888 -0.349970 0.902816 95 82 242
-0.104276 0.100835 0.586856 -0.413265 -0.328971 0.849112 74 85 235
0.031581 0.031301 -0.315116 -0.767933 -0.192963 0.610774 29 102 205
0.050241 -0.227415 -0.131749 -0.335424 0.883328 0.327450 84 240 169
-0.388303 0.207014 -0.731728 0.023704 -0.823517 0.566796 130 22 199
-0.506031 -0.157368 -0.470230 0.549540 0.396069 -0.735619 197 177 33
0.309434 0.204459 -0.615475 -0.176023 -0.832598 0.525164 105 21 194
-0.328139 -0.115714 0.780202 0.840300 0.515114 -0.168977 234 193 105
-0.226435 0.191038 0.597555 0.197345 -0.822808 0.532956 152 22 195
-0.308045 -0.042152 0.890324 0.864118 0.191199 -0.465558 237 151 68
-0.515308 -0.159117 -0.478103 0.549540 0.396069 -0.735619 197 177 33
-0.438744 -0.195394 -0.732881 -0.009768 0.566351 0.824106 126 199 232
0.711300 0.081016 -0.546396 -0.407134 -0.293758 0.864840 75 90 237
0.226848 0.228690 0.352918 -0.168289 -0.985668 0.011713 106 1 128
0.264285 0.146680 0.004637 -0.648391 -0.357397 0.672202 44 81 213
-0.419136 0.246798 -0.672634 0.023704 -0.823517 0.566796 130 22 199
0.736063 -0.101311 -0.398601 0.171894 0.390379 -0.904465 149 177 12
-0.407886 0.265037 -0.644063 0.085722 -0.856497 0.508984 138 18 192
-0.116756 0.241153 -0.274208 0.093932 -0.966731 0.237925 139 4 157
-0.256226 0.169446 -0.762654 -0.040645 -0.398022 0.916475 122 76 244
0.159041 0.202814 0.290925 0.752605 -0.655931 -0.057802 223 43 120
-0.497845 -0.120114 -0.785317 -0.009768 0.566351 0.824106 126 199 232
-0.189475 0.231799 -0.313670 0.015783 -0.999847 -0.007606 129 0 126
0.238171 -0.034590 -0.443194 0.121475 -0.054813 -0.991080 142 120 1
0.587855 0.168060 -0.564218 -0.249888 -0.349970 0.902816 95 82 242
-0.029309 0.001516 -0.529909 0.158331 0.103216 -0.981977 147 140 2
0.103384 -0.182070 0.174985 0.756914 0.595325 -0.269574 224 203 93
0.204298 -0.229540 0.582328 -0.070060 0.997249 -0.024203 118 254 124
0.222056 0.092001 -0.466888 0.140394 -0.394250 -0.908216 145 77 11
-0.114135 0.246456 0.833987 -0.027182 -0.828508 -0.559318 124 21 56
0.097886 -0.037174 0.285498 0.991169 0.108177 0.076694 253 141 137
0.048536 0.011244 -0.300134 -0.767933 -0.192963 0.610774 29 102 205
-0.159219 0.093019 -0.788091 -0.022017 -0.146488 0.988967 124 108 253
0.076081 -0.097818 -0.780548 -0.022437 0.146184 0.989003 124 146 253
-0.581452 0.079392 -0.499294 0.878565 -0.258442 -0.401660 239 94 76
-0.192550 0.109722 0.940267 0.322293 -0.468435 -0.822616 168 67 22
0.021364 -0.068232 0.632086 -0.167309 0.203450 0.964684 106 153 250
0.289982 0.180717 0.569255 -0.971883 -0.234678 0.019240 3 97 129
-0.250809 0.141794 0.574108 -0.156726 -0.278499 0.947563 107 91 248
0.296606 -0.191991 0.376577 -0.818203 0.574926 -0.002202 23 200 127
-0.095015 0.225336 -0.616260 -0.147982 -0.747432 -0.647647 108 32 44
0.044973 0.251865 0.729851 -0.005296 -0.779099 0.626878 126 28 207
-0.575179 0.174732 -0.636280 0.932978 -0.348337 -0.090628 246 83 115
0.174829 -0.101161 -0.135380 -0.743918 0.137974 0.653873 32 145 210
0.369419 0.015780 0.130570 -0.991474 -0.092469 -0.091811 1 115 115
-0.141748 0.108282 -0.095869 0.513569 -0.260747 -0.817470 192 94 23
0.176527 -0.216891 0.540474 0.689891 0.723837 -0.010539 215 219 126
-0.194704 0.213457 -0.563527 -0.456306 -0.617455 -0.640729 69 48 45
-0.305381 -0.048315 0.892737 0.864118 0.191199 -0.465558 237 151 68
0.373187 -0.029401 0.108273 -0.919876 -0.101282 0.378907 10 114 175
-0.613821 -0.058335 -0.550762 0.999075 0.037571 -0.020904 254 132 124
-0.590039 0.121454 -0.588924 0.937263 -0.337148 -0.088708 247 84 116
0.144876 0.186967 0.286310 0.752605 -0.655931 -0.057802 223 43 120
-0.602741 0.018586 -0.754960 0.870430 -0.054525 0.489263 238 120 189
0.227517 0.132640 -0.043678 -0.663139 -0.475061 0.578414 42 66 201
0.352073 -0.171258 -0.650678 -0.251943 0.833578 0.491602 95 233 190
-0.192844 0.215561 0.839082 0.478153 -0.837155 -0.265597 188 20 93
-0.210484 -0.054109 -0.129537 0.751828 0.111520 -0.649861 223 141 44
-0.413369 -0.251010 -0.570216 0.071714 0.976391 -0.203758 136 251 101
0.053362 0.228949 -0.691639 -0.191203 -0.882051 0.430613 103 15 182
-0.191347 -0.220227 0.635218 0.022369 0.746588 0.664910 130 222 212
-0.364804 0.246222 -0.675743 0.023704 -0.823517 0.566796 130 22 199
-0.022585 0.194534 -0.246704 -0.628098 -0.636238 0.447989 47 46 184
-0.338103 0.081688 -0.282055 0.628847 -0.269972 -0.729155 207 93 34
0.165037 -0.130773 -0.486908 0.460167 0.398019 -0.793617 186 178 26
0.010353 -0.027964 -0.792640 -0.024421 0.161988 0.986491 124 148 253
-0.138834 -0.215796 0.871476 0.016215 0.748843 -0.662550 129 222 43
0.861894 -0.037320 -0.484821 -0.677745 0.287346 0.676826 41 164 213
-0.203104 0.229976 -0.378756 -0.424848 -0.743827 0.515970 73 32 193
-0.340532 0.197181 -0.374093 0.385011 -0.795870 -0.467287 176 26 67
-0.309290 -0.257045 -0.625320 -0.126038 0.991297 0.038009 111 253 132
0.162115 0.206933 0.284207 0.752605 -0.655931 -0.057802 223 43 120
-0.281825 -0.124819 0.885123 0.785048 0.499673 -0.366097 227 191 80
-0.225444 -0.075133 -0.790742 -0.022437 0.146184 0.989003 124 146 253
-0.228010 -0.216765 -0.542032 -0.541914 0.757520 -0.363996 58 224 81
0.314161 -0.157464 0.086720 -0.793508 0.563959 0.228681 26 199 156
-0.139830 0.008528 -0.491624 -0.609296 -0.103343 0.786180 49 114 227
-0.107216 0.240061 -0.680447 -0.084372 -0.977531 0.193170 116 2 152
0.156079 -0.031856 -0.170994 -0.750684 0.114395 0.650682 31 142 210
0.288354 0.176886 0.440302 -0.971883 -0.234678 0.019240 3 97 129
0.225365 0.230770 0.514359 -0.220521 -0.975372 0.004519 99 3 128
0.132076 0.153865 -0.516618 0.309859 -0.449575 -0.837776 167 70 20
-0.605780 0.050754 -0.566877 0.959673 -0.251644 -0.125309 249 95 111
-0.537316 -0.201799 -0.540020 0.458477 0.821279 -0.339559 185 232 84
-0.259681 -0.199511 0.823760 0.602153 0.619945 -0.503070 204 206 63
0.053158 -0.255537 0.819537 -0.036998 0.833582 -0.551155 122 233 57
-0.201812 0.170218 -0.183886 0.656969 -0.456416 -0.600064 211 69 50
-0.108995 -0.211690 0.667262 -0.337588 0.679872 0.651006 84 214 210
-0.236880 0.184323 -0.243537 0.575213 -0.760368 -0.301613 200 30 89
0.392128 0.210400 -0.572458 -0.222507 -0.948015 0.227504 99 6 156
0.459030 -0.002120 -0.656470 -0.296935 -0.077015 0.951787 89 117 248
-0.051787 -0.039400 0.006043 0.702443 0.122381 -0.701139 217 143 38
0.573216 0.185592 -0.485351 -0.025241 -0.755465 -0.654703 124 31 44
-0.133293 0.042241 0.961846 -0.064530 -0.107632 -0.992094 119 113 1
0.108962 0.134105 0.221017 0.934061 -0.272740 -0.230527 246 92 98
-0.268738 -0.037568 0.543477 0.141740 -0.031090 0.989416 145 123 253
0.347525 -0.079950 -0.446708 0.051662 0.249811 -0.966915 134 159 4
0.103777 0.107652 -0.772935 -0.075225 -0.417977 0.905338 117 74 242
0.279408 -0.217333 0.150553 -0.818203 0.574926 -0.002202 23 200 127
-0.158554 0.026812 -0.086282 0.625312 -0.145399 -0.766710 207 108 29
-0.033443 -0.146546 0.639097 -0.167309 0.203450 0.964684 106 153 250
-0.177194 0.248841 0.740764 0.743872 -0.492159 -0.452144 222 64 69
0.162699 -0.213035 0.619206 0.470715 0.749347 0.465731 187 223 186
0.616993 -0.167361 -0.555966 -0.230290 0.327249 0.916447 98 169 244
-0.338024 0.011098 -0.261502 0.742882 0.073676 -0.665356 222 136 42
0.285014 -0.005056 -0.724640 -0.324687 0.041285 0.944920 86 132 247
0.073707 -0.049917 0.186045 0.923682 0.126696 -0.361607 245 143 81
0.038703 -0.072920 -0.296291 -0.762516 0.140709 0.631483 30 145 208
0.164322 -0.235073 0.111877 0.220978 0.974844 -0.029106 155 251 123
-0.082089 0.236457 -0.632048 -0.147982 -0.747432 -0.647647 108 32 44
0.227096 -0.233854 0.142713 -0.187315 0.982283 -0.005742 103 252 126
0.089113 -0.181505 0.136161 0.756914 0.595325 -0.269574 224 203 93
0.110356 -0.151329 0.293056 0.965580 0.259002 0.023929 250 160 130
-0.229787 0.232200 0.661639 0.317522 -0.897051 0.307374 167 13 166
-0.012250 0.095278 0.022458 0.617381 -0.099000 -0.780410 206 114 27
-0.449501 -0.232298 -0.697391 -0.015868 0.755449 0.655015 125 223 211
0.355027 -0.022850 0.065937 -0.919876 -0.101282 0.378907 10 114 175
0.776690 0.126659 -0.399246 0.195878 -0.464521 -0.863627 152 68 17
0.037151 0.202160 -0.178406 -0.529654 -0.618289 0.580676 59 48 201
0.302642 0.017803 0.774491 -0.964872 -0.044074 -0.258997 4 121 94
-0.081503 0.160804 -0.060955 0.689000 -0.221106 -0.690211 215 99 39
-0.007726 -0.217632 -0.217519 -0.335424 0.883328 0.327450 84 240 169
0.312235 0.144167 0.057740 -0.807863 -0.396585 0.435979 24 76 183
0.161032 0.135835 -0.740842 -0.560065 -0.482009 0.673791 56 66 213
0.499090 -0.136509 -0.458031 0.020114 0.599028 -0.800475 130 203 25
-0.281140 0.160215 0.671186 0.858431 -0.512733 -0.014201 236 62 125
-0.010486 -0.129098 -0.559541 -0.015413 0.274671 -0.961415 125 162 4
-0.617944 -0.014071 -0.696591 0.999709 0.016969 -0.017171 254 129 125
0.180575 0.222731 0.345284 0.752605 -0.655931 -0.057802 223 43 120
0.281605 0.195042 0.320828 -0.971883 -0.234678 0.019240 3 97 129
-0.238484 0.223010 0.687924 0.488245 -0.856088 -0.169499 189 18 105
-0.088352 0.077477 -0.433365 -0.599705 -0.269033 0.753642 51 93 223
0.291079 -0.000820 0.820737 -0.964872 -0.044074 -0.258997 4 121 94
0.036155 0.178672 0.896404 -0.056796 -0.503201 -0.862301 120 63 17
0.822583 0.001704 -0.517559 -0.480793 0.216970 0.849566 66 155 235
-0.044100 -0.192346 -0.058917 0.598670 0.656781 -0.458511 203 211 69
-0.112111 -0.150388 0.929061 0.004006 0.622465 -0.782638 128 206 27
-0.251059 -0.196225 -0.276020 0.473562 0.798344 -0.372002 187 229 80
-0.298225 -0.156228 -0.279227 0.668859 0.348018 -0.656895 212 171 43
-0.464830 -0.071299 -0.386623 0.593690 0.436629 -0.675934 203 183 41
0.104347 0.110432 0.517562 0.988485 -0.151308 0.001603 253 108 127
0.104290 -0.207576 0.121200 0.756914 0.595325 -0.269574 224 203 93
-0.100227 -0.050720 -0.455270 -0.611659 0.016038 0.790959 49 129 228
0.098801 -0.089120 -0.224420 -0.743918 0.137974 0.653873 32 145 210
0.342042 -0.019216 0.469422 -0.994402 -0.061906 -0.085629 0 119 116
-0.433598 -0.197036 -0.731692 -0.009768 0.566351 0.824106 126 199 232
-0.428508 -0.166438 -0.416177 0.593690 0.436629 -0.675934 203 183 41
0.332468 0.121984 0.237350 -0.948094 -0.313449 -0.053545 6 87 120
0.245900 -0.069966 -0.449526 0.050991 0.246936 -0.967689 134 158 4
0.620379 -0.098848 -0.579580 -0.230290 0.327249 0.916447 98 169 244
0.104724 -0.161765 -0.172288 -0.643484 0.487405 0.590224 45 189 202
-0.216419 0.214418 0.794880 0.488245 -0.856088 -0.169499 189 18 105
-0.428601 -0.030476 -0.803095 -0.024421 0.161988 0.986491 124 148 253
-0.148898 0.225997 0.865981 -0.027182 -0.828508 -0.559318 124 21 56
0.099148 -0.253750 0.793409 -0.295764 0.868208 -0.398419 89 238 76
0.258858 -0.226124 0.647768 -0.124571 0.978482 0.164485 111 252 148
0.325047 0.014343 0.642528 -0.994402 -0.061906 -0.085629 0 119 116
-0.354221 -0.205800 -0.724580 -0.010919 0.571918 0.820238 126 200 232
-0.176954 -0.215423 -0.243115 0.149978 0.953725 -0.260604 146 249 94
-0.297829 0.028224 0.917550 0.395824 -0.230776 -0.888857 177 98 14
0.078210 -0.052045 0.196803 0.923682 0.126696 -0.361607 245 143 81
0.305835 0.101300 0.736518 -0.871448 -0.325214 -0.367172 16 86 80
0.083984 0.082301 -0.784265 -0.022017 -0.146488 0.988967 124 108 253
0.111397 -0.095296 -0.496333 0.377035 0.386402 -0.841747 175 176 20
0.845821 0.091918 -0.482945 -0.634955 -0.268726 0.724306 46 93 219
-0.035378 -0.098396 0.007655 0.646923 0.236655 -0.724903 209 157 35
-0.061183 -0.235612 -0.221692 -0.315921 0.887818 0.334623 87 240 170
0.366300 0.039054 0.123765 -0.948094 -0.313449 -0.053545 6 87 120
0.323098 -0.042292 0.023527 -0.750684 0.114395 0.650682 31 142 210
-0.294325 0.156679 -0.769889 -0.040645 -0.398022 0.916475 122 76 244
-0.251371 -0.037854 -0.172751 0.738107 0.110289 -0.665608 221 141 42
0.288958 -0.203804 0.134011 -0.818203 0.574926 -0.002202 23 200 127
0.225752 0.230169 0.688192 -0.407091 -0.913005 0.026455 75 11 130
0.069815 -0.107482 0.155936 0.923682 0.126696 -0.361607 245 143 81
0.573229 -0.133470 -0.453008 0.044062 0.631062 -0.774480 133 207 28
-0.041133 -0.208210 -0.715280 -0.015868 0.755449 0.655015 125 223 211
0.402710 -0.190505 -0.500860 0.020114 0.599028 -0.800475 130 203 25
0.194480 -0.240130 0.133216 -0.187315 0.982283 -0.005742 103 252 126
-0.616861 0.005501 -0.614160 0.999709 0.016969 -0.017171 254 129 125
0.291960 0.167821 0.511848 -0.971883 -0.234678 0.019240 3 97 129
-0.016409 -0.021692 0.034006 0.617381 -0.099000 -0.780410 206 114 27
-0.016851 0.227777 -0.088548 -0.129206 -0.989118 0.070371 111 1 136
0.358824 0.181978 -0.488773 0.076735 -0.639050 -0.765328 137 46 29
-0.412908 0.267065 -0.624145 0.105370 -0.993647 -0.039546 140 0 122
-0.020662 0.095794 -0.784194 -0.040645 -0.398022 0.916475 122 76 244
0.140587 -0.190351 -0.109583 -0.643484 0.487405 0.590224 45 189 202
0.091866 -0.055257 0.388808 0.991169 0.108177 0.076694 253 141 137
-0.409066 0.215659 -0.454882 0.377973 -0.757672 -0.532042 175 30 59
0.313850 -0.104888 0.023864 -0.750684 0.114395 0.650682 31 142 210
-0.007646 -0.185098 -0.275540 -0.669093 0.492859 0.556241 42 190 198
0.290859 0.180682 0.613131 -0.971883 -0.234678 0.019240 3 97 129
0.249993 -0.023940 -0.064039 -0.750684 0.114395 0.650682 31 142 210
-0.309810 -0.142784 0.788826 0.840300 0.515114 -0.168977 234 193 105
-0.201302 -0.196294 -0.212827 0.473562 0.798344 -0.372002 187 229 80
0.004183 0.265408 0.789677 0.005976 -0.997372 -0.072205 128 0 118
0.378645 0.043541 -0.685882 -0.436934 -0.061485 0.897390 71 119 241
-0.216847 -0.185029 0.892877 0.602153 0.619945 -0.503070 204 206 63
0.129270 -0.214565 -0.685564 -0.042125 0.896076 0.441898 122 241 183
-0.560816 -0.126605 -0.758149 0.354055 0.535002 0.767084 172 195 225
0.087103 0.087557 0.940880 -0.071559 -0.123295 -0.989787 118 111 1
-0.400940 0.019222 -0.330850 0.742882 0.073676 -0.665356 222 136 42
-0.170696 -0.180935 -0.169719 0.604748 0.523341 -0.600328 204 194 50
-0.046775 -0.221379 0.867419 0.016215 0.748843 -0.662550 129 222 43
0.365112 0.031391 0.164933 -0.994402 -0.061906 -0.085629 0 119 116
-0.595408 0.131011 -0.707977 0.786079 -0.413268 0.459662 227 74 186
-0.068615 0.093714 0.951371 -0.071559 -0.123295 -0.989787 118 111 1
-0.235033 0.234765 -0.425362 -0.662576 -0.738250 0.126408 43 33 143
0.332758 0.077453 0.492878 -0.948094 -0.313449 -0.053545 6 87 120
-0.272179 -0.225898 -0.375507 -0.077369 0.996377 0.035305 117 254 132
-0.160207 -0.268304 0.748945 -0.064927 0.997731 0.017806 119 254 129
0.518722 -0.169006 -0.482703 0.010929 0.610008 -0.792320 128 205 26
-0.364558 0.267782 -0.592555 -0.174246 -0.983989 -0.037472 105 2 122
-0.420651 0.086127 -0.354891 0.628847 -0.269972 -0.729155 207 93 34
0.630512 -0.137294 -0.448432 0.430383 0.443182 -0.786359 182 184 27
-0.296193 -0.157944 0.809101 0.785048 0.499673 -0.366097 227 191 80
-0.312223 -0.172310 0.686824 0.840300 0.515114 -0.168977 234 193 105
-0.074461 -0.261941 0.739358 -0.077398 0.962643 0.259478 117 250 160
-0.131379 -0.067712 -0.480012 -0.645857 0.396946 0.652152 45 178 210
-0.490367 -0.222251 -0.538678 0.284591 0.829225 -0.481035 163 233 66
0.289473 0.186739 0.684209 -0.895526 -0.353778 -0.269951 13 82 93
-0.283520 -0.046128 0.924167 0.569264 0.141006 -0.809973 200 145 24
0.451712 0.006276 -0.658073 -0.296935 -0.077015 0.951787 89 117 248
-0.261908 0.190117 0.754112 0.858431 -0.512733 -0.014201 236 62 125
0.061326 -0.130847 0.125253 0.939811 0.107828 -0.324235 247 141 86
0.880593 0.045103 -0.462943 -0.762521 -0.292388 0.577123 30 90 201
0.181736 -0.234621 -0.609406 -0.065800 0.973426 0.219343 119 251 155
0.127280 0.213927 -0.566386 0.272564 -0.724358 -0.633257 162 35 46
0.052217 0.224126 -0.086460 -0.245673 -0.952663 0.179105 96 6 150
0.246907 0.223775 0.227452 -0.168289 -0.985668 0.011713 106 1 128
0.456726 -0.185257 -0.553134 -0.132541 0.908792 0.395639 110 243 177
-0.586514 0.079093 -0.768783 0.577195 -0.527773 0.623138 201 60 206
-0.031284 -0.218281 -0.601254 -0.039668 0.853499 -0.519583 122 236 61
0.308328 0.041537 0.749268 -0.964872 -0.044074 -0.258997 4 121 94
0.864793 0.103076 -0.409171 -0.317871 -0.244340 -0.916109 86 96 10
-0.188812 0.168489 -0.524389 -0.456306 -0.617455 -0.640729 69 48 45
0.161218 0.237056 0.681903 0.227430 -0.954376 0.193498 156 5 152
0.024204 -0.123749 0.071229 0.835812 0.280142 -0.472164 234 163 67
-0.418755 0.134929 -0.784853 -0.040645 -0.398022 0.916475 122 76 244
0.112474 0.131731 0.456073 0.961963 -0.268644 0.049582 250 93 133
-0.289876 0.139924 0.763656 0.884708 -0.464321 -0.041201 240 68 122
-0.092350 0.170963 -0.372891 -0.562849 -0.585138 0.583793 55 52 201
0.386196 -0.201331 -0.574126 -0.300757 0.951160 0.069571 89 248 136
0.315499 0.108610 -0.459653 0.140394 -0.394250 -0.908216 145 77 11
-0.294854 -0.178288 0.754971 0.840300 0.515114 -0.168977 234 193 105
0.243654 -0.159011 -0.481289 0.020114 0.599028 -0.800475 130 203 25
0.282429 0.206183 0.498316 -0.971883 -0.234678 0.019240 3 97 129
-0.112367 -0.135153 -0.559638 -0.015413 0.274671 -0.961415 125 162 4
0.112000 0.125716 -0.763672 -0.318127 -0.365617 0.874711 86 80 239
-0.139909 -0.176867 -0.140921 0.426303 0.668671 -0.609216 181 212 49
-0.225952 -0.024563 0.968381 0.569264 0.141006 -0.809973 200 145 24
0.588767 -0.181031 -0.490878 0.044062 0.631062 -0.774480 133 207 28
0.155431 -0.024123 -0.776327 -0.444834 0.034261 0.894957 70 131 241
-0.389337 -0.223700 -0.705851 -0.015868 0.755449 0.655015 125 223 211
-0.089817 -0.164420 -0.384373 -0.549772 0.538233 0.638793 57 196 208
0.006588 -0.159535 0.923693 0.029913 0.660411 -0.750309 131 211 31
-0.020015 -0.200623 0.889579 0.004006 0.622465 -0.782638 128 206 27
0.176599 0.213159 -0.023434 -0.414618 -0.819024 0.396601 74 23 178
0.319982 0.122315 0.426963 -0.799634 -0.596645 -0.067818 25 51 118
-0.232284 -0.245425 -0.652098 -0.132009 0.987800 0.082619 110 253 138
-0.189309 -0.006070 -0.104437 0.580620 -0.155599 -0.799168 201 107 25
0.168035 0.214882 0.271075 0.752605 -0.655931 -0.057802 223 43 120
0.267549 0.183052 0.754977 -0.871448 -0.325214 -0.367172 16 86 80
-0.547605 -0.187040 -0.525128 0.639686 0.685842 -0.347022 209 214 83
-0.230909 0.228962 0.656970 0.236210 -0.808237 0.539405 157 24 196
-0.007608 0.141100 -0.763939 -0.040645 -0.398022 0.916475 122 76 244
-0.248864 -0.239495 -0.584258 -0.242931 0.819931 -0.518360 96 232 61
0.811269 0.025436 -0.530023 -0.480793 0.216970 0.849566 66 155 235
0.355213 0.050236 -0.435131 0.107941 -0.260009 -0.959554 141 94 5
-0.280385 0.167395 -0.273804 0.385011 -0.795870 -0.467287 176 26 67
0.082652 -0.081523 0.197821 0.923682 0.126696 -0.361607 245 143 81
0.616566 -0.164506 -0.557093 -0.230290 0.327249 0.916447 98 169 244
-0.375280 0.177784 -0.369686 0.385011 -0.795870 -0.467287 176 26 67
-0.121608 -0.034592 0.568299 -0.411509 -0.054806 0.909757 75 120 243
-0.036444 -0.217126 -0.247382 -0.315921 0.887818 0.334623 87 240 170
0.282920 0.209133 0.559133 -0.971883 -0.234678 0.019240 3 97 129
0.682345 -0.059603 -0.570149 -0.393649 0.306799 0.866553 77 166 237
0.258081 -0.136739 -0.020405 -0.672854 0.436513 0.597263 41 183 203
-0.602628 -0.136722 -0.615252 0.918023 0.367732 0.148348 244 174 146
-0.207948 0.183625 0.887376 0.578596 -0.697976 -0.421968 201 38 73
0.160621 0.200265 0.840144 -0.449437 -0.680173 -0.579113 70 40 53
0.245862 0.044100 -0.740241 -0.324687 0.041285 0.944920 86 132 247
0.044077 -0.006359 0.622954 0.891201 0.095049 0.443539 241 139 184
-0.135218 -0.094733 -0.785798 -0.022437 0.146184 0.989003 124 146 253
-0.203250 -0.211346 -0.405256 -0.399046 0.743007 0.537311 76 222 196
0.084319 -0.139072 -0.528557 0.377035 0.386402 -0.841747 175 176 20
0.107180 -0.230966 -0.063844 -0.335424 0.883328 0.327450 84 240 169
-0.027932 -0.222817 -0.085667 0.501356 0.754245 -0.423978 191 223 73
0.196551 0.041401 0.913799 -0.385378 -0.037918 -0.921980 78 122 9
-0.042279 0.154250 -0.331528 -0.628098 -0.636238 0.447989 47 46 184
-0.233507 0.187377 0.594521 0.197345 -0.822808 0.532956 152 22 195
0.144751 0.257129 0.764518 0.015004 -0.979670 0.200052 129 2 153
-0.322996 -0.128030 0.659893 0.987580 0.143380 0.064252 253 145 135
-0.103564 0.004031 0.964058 -0.064530 -0.107632 -0.992094 119 113 1
0.210869 -0.046480 0.899772 -0.451449 0.079395 -0.888757 69 137 14
0.247839 -0.049864 -0.061966 -0.750684 0.114395 0.650682 31 142 210
-0.447894 0.013123 -0.806352 -0.022017 -0.146488 0.988967 124 108 253
0.166775 0.033737 -0.462255 0.356520 -0.038786 -0.933482 172 122 8
0.346816 -0.005753 0.404260 -0.994402 -0.061906 -0.085629 0 119 116
-0.261233 0.049753 0.928257 0.395824 -0.230776 -0.888857 177 98 14
-0.203073 0.210103 0.837871 0.478153 -0.837155 -0.265597 188 20 93
0.035048 -0.040826 0.628680 -0.167309 0.203450 0.964684 106 153 250
0.301818 -0.027592 0.785284 -0.964872 -0.044074 -0.258997 4 121 94
-0.280250 0.159111 0.754110 0.884708 -0.464321 -0.041201 240 68 122
-0.502466 0.108301 -0.788674 0.240370 -0.189804 0.951944 158 103 248
-0.061580 -0.003631 0.962158 -0.064530 -0.107632 -0.992094 119 113 1
-0.207955 -0.011702 0.972555 -0.064530 -0.107632 -0.992094 119 113 1
0.322086 -0.156171 0.261354 -0.818203 0.574926 -0.002202 23 200 127
0.105537 0.031778 -0.486004 0.386439 -0.033661 -0.921701 176 123 9
0.357858 0.182183 -0.489041 0.076735 -0.639050 -0.765328 137 46 29
-0.468529 0.093280 -0.794939 -0.022017 -0.146488 0.988967 124 108 253
0.228465 -0.183490 -0.500868 0.030786 0.613982 -0.788719 131 205 26
0.187248 -0.070359 0.909638 -0.451449 0.079395 -0.888757 69 137 14
0.099011 -0.091834 -0.501991 0.507349 0.276970 -0.816018 192 162 23
0.106743 -0.153702 0.464563 0.965580 0.259002 0.023929 250 160 130
0.322377 -0.157251 -0.477993 0.020114 0.599028 -0.800475 130 203 25
0.558491 -0.191976 -0.503610 -0.132541 0.908792 0.395639 110 243 177
0.215602 0.109551 -0.076301 -0.663139 -0.475061 0.578414 42 66 201
0.443383 -0.203050 -0.509952 0.010929 0.610008 -0.792320 128 205 26
-0.483296 0.113858 -0.792219 -0.022017 -0.146488 0.988967 124 108 253
0.284136 0.192569 0.231543 -0.799634 -0.596645 -0.067818 25 51 118
-0.612557 -0.088203 -0.544031 0.999075 0.037571 -0.020904 254 132 124
0.279954 -0.213117 0.611072 -0.918650 0.391826 -0.050540 10 177 121
-0.262935 0.007985 0.941503 0.436215 -0.315814 -0.842602 183 87 20
-0.093713 0.233913 -0.704966 0.023704 -0.823517 0.566796 130 22 199
-0.493485 0.152814 -0.461741 0.590020 -0.481289 -0.648257 202 66 44
-0.597420 0.017967 -0.763422 0.832474 -0.024217 0.553535 233 124 198
0.043560 -0.212299 -0.692592 0.039840 0.891331 0.451600 132 241 185
-0.209116 -0.213961 0.628779 0.022369 0.746588 0.664910 130 222 212
-0.408775 -0.022380 -0.335495 0.667766 -0.070858 -0.740991 212 118 33
0.234814 0.107245 0.875617 -0.480981 -0.331102 -0.811806 66 85 23
-0.127371 -0.134692 -0.435947 -0.534172 0.387603 0.751282 59 176 223
-0.007200 -0.039897 0.626493 0.055334 0.066772 0.996233 134 136 254
-0.121951 -0.231843 -0.274111 0.031565 0.992710 0.116318 131 254 142
0.037104 -0.104705 -0.544849 0.507349 0.276970 -0.816018 192 162 23
0.063949 -0.126229 -0.535465 0.507349 0.276970 -0.816018 192 162 23
0.382407 -0.185619 -0.610783 -0.251943 0.833578 0.491602 95 233 190
0.285134 -0.180331 0.737350 -0.913372 0.400541 -0.072931 11 178 118
0.168702 -0.174271 -0.092209 -0.643484 0.487405 0.590224 45 189 202
0.079306 0.072271 -0.243624 -0.753920 -0.197572 0.626554 31 102 207
-0.321587 -0.045370 -0.249534 0.727830 0.091544 -0.679619 220 139 40
-0.042992 -0.153939 0.639000 -0.167309 0.203450 0.964684 106 153 250
-0.396472 0.217724 -0.448877 0.377973 -0.757672 -0.532042 175 30 59
0.191430 -0.148544 -0.480517 0.460167 0.398019 -0.793617 186 178 26
-0.543353 0.199212 -0.550334 0.612912 -0.561512 -0.555916 205 55 56
0.162264 0.011100 -0.463038 0.356520 -0.038786 -0.933482 172 122 8
0.386064 -0.153161 -0.473333 0.020114 0.599028 -0.800475 130 203 25
0.124386 0.156629 0.359864 0.961963 -0.268644 0.049582 250 93 133
0.300588 0.137071 0.572646 -0.971883 -0.234678 0.019240 3 97 129
0.262145 -0.227221 0.139320 -0.185203 0.982694 -0.003505 103 252 127
-0.526772 -0.227214 -0.657305 0.791943 0.376446 0.480744 228 175 188
0.084865 0.045227 -0.245463 -0.753920 -0.197572 0.626554 31 102 207
-0.617268 0.017385 -0.626137 0.999709 0.016969 -0.017171 254 129 125
-0.083182 0.222766 -0.615998 -0.147982 -0.747432 -0.647647 108 32 44
-0.194632 0.006880 -0.110825 0.580620 -0.155599 -0.799168 201 107 25
-0.207967 0.006319 -0.798971 -0.034718 -0.059095 0.997648 123 119 254
-0.587756 0.077959 -0.512160 0.878565 -0.258442 -0.401660 239 94 76
-0.168124 0.063991 -0.101138 0.625312 -0.145399 -0.766710 207 108 29
0.045518 -0.187556 -0.215537 -0.643484 0.487405 0.590224 45 189 202
-0.158226 -0.225232 -0.268233 0.149978 0.953725 -0.260604 146 249 94
0.841012 0.126690 -0.473906 -0.762521 -0.292388 0.577123 30 90 201
0.247389 -0.090196 -0.734031 -0.317176 0.033931 0.947759 87 131 248
-0.380095 -0.235723 -0.691760 -0.015868 0.755449 0.655015 125 223 211
-0.299798 0.084110 -0.792541 -0.022017 -0.146488 0.988967 124 108 253
-0.408193 0.198152 -0.429332 0.377973 -0.757672 -0.532042 175 30 59
-0.291246 0.060110 -0.233655 0.628847 -0.269972 -0.729155 207 93 34
-0.069973 -0.221609 -0.677508 -0.132009 0.987800 0.082619 110 253 138
-0.075907 0.000533 -0.794718 -0.034718 -0.059095 0.997648 123 119 254
0.694912 -0.001715 -0.393810 0.140377 0.078327 -0.986995 145 137 1
0.352375 -0.008775 -0.700652 -0.375603 0.023311 0.926487 79 130 245
0.334272 -0.054132 0.584908 -0.994402 -0.061906 -0.085629 0 119 116
0.123891 0.154016 0.355315 0.961963 -0.268644 0.049582 250 93 133
0.780840 0.163917 -0.430180 -0.026129 -0.812015 -0.583052 124 23 53
-0.502155 0.049203 -0.800536 0.240370 -0.189804 0.951944 158 103 248
-0.079605 0.116534 -0.556036 0.074334 -0.239997 -0.967923 136 96 4
-0.038384 0.048542 0.954812 -0.071559 -0.123295 -0.989787 118 111 1
0.108667 -0.186315 -0.539338 0.377035 0.386402 -0.841747 175 176 20
-0.172912 -0.269279 0.757262 -0.064927 0.997731 0.017806 119 254 129
-0.322318 0.062834 0.632359 0.992479 -0.069882 0.100506 254 118 140
-0.536167 0.153350 -0.500987 0.590020 -0.481289 -0.648257 202 66 44
0.216360 0.230083 0.053475 -0.462409 -0.868672 0.177724 68 16 150
-0.118882 -0.058319 -0.550641 0.158331 0.103216 -0.981977 147 140 2
-0.166861 -0.226011 -0.311697 0.031565 0.992710 0.116318 131 254 142
-0.072361 -0.262482 0.743006 -0.064927 0.997731 0.017806 119 254 129
-0.088543 -0.172767 0.911383 0.004006 0.622465 -0.782638 128 206 27
-0.592376 0.139501 -0.682215 0.937263 -0.337148 -0.088708 247 84 116
-0.423601 0.176217 -0.406986 0.618684 -0.430285 -0.657332 206 72 43
0.805830 0.050026 -0.530849 -0.393878 -0.411238 0.822036 77 75 232
0.246932 0.214840 -0.538441 0.136447 -0.875938 -0.462725 144 15 68
-0.387108 0.171865 -0.760092 0.008639 -0.590607 0.806913 128 52 230
-0.121801 -0.138026 -0.082559 0.598670 0.656781 -0.458511 203 211 69
-0.457009 0.177650 -0.755109 0.008639 -0.590607 0.806913 128 52 230
-0.500163 -0.019413 -0.806683 -0.024421 0.161988 0.986491 124 148 253
0.436314 0.207595 -0.505463 -0.025241 -0.755465 -0.654703 124 31 44
0.085988 -0.009199 0.546212 0.988485 -0.151308 0.001603 253 108 127
0.432615 -0.145358 -0.625155 -0.385513 0.362246 0.848621 78 173 235
0.149489 0.095399 -0.762710 -0.318127 -0.365617 0.874711 86 80 239
-0.109814 0.075875 -0.548274 0.074334 -0.239997 -0.967923 136 96 4
0.242994 0.210325 -0.647683 -0.291965 -0.849505 0.439430 90 19 183
-0.542018 -0.119214 -0.771981 0.354055 0.535002 0.767084 172 195 225
-0.218685 -0.206702 -0.534972 -0.541914 0.757520 -0.363996 58 224 81
-0.241566 0.193680 -0.273314 0.501820 -0.731389 -0.461786 191 34 68
0.031752 0.016518 0.953731 -0.071559 -0.123295 -0.989787 118 111 1
-0.250875 0.030998 -0.169053 0.764253 -0.255598 -0.592103 224 94 52
-0.226010 0.210258 -0.282668 0.501820 -0.731389 -0.461786 191 34 68
0.255189 -0.115621 0.849287 -0.866917 0.329071 -0.374389 16 169 79
-0.209411 0.046360 0.954829 0.436215 -0.315814 -0.842602 183 87 20
-0.279714 0.122085 0.884547 0.866788 -0.456514 -0.200685 238 69 101
0.097035 -0.119425 0.485280 0.965580 0.259002 0.023929 250 160 130
-0.140699 0.257164 0.797094 0.488245 -0.856088 -0.169499 189 18 105
0.116720 -0.184082 0.900716 -0.446910 0.664548 -0.598872 70 212 51
-0.151024 -0.212025 -0.210531 0.291409 0.950350 -0.109154 164 248 113
-0.398906 -0.235412 -0.494593 0.374177 0.785592 -0.492784 175 227 64
-0.016412 0.247687 0.828984 -0.004715 -0.791242 -0.611485 126 26 49
0.202365 -0.245285 0.731233 -0.441542 0.887108 -0.134462 71 240 110
-0.023488 -0.134234 -0.339664 -0.669093 0.492859 0.556241 42 190 198
-0.008734 0.104682 0.942538 -0.056796 -0.503201 -0.862301 120 63 17
-0.039796 -0.263966 0.813028 -0.036998 0.833582 -0.551155 122 233 57
-0.029753 0.209642 0.676743 -0.005296 -0.779099 0.626878 126 28 207
-0.049894 -0.060204 0.625732 -0.618219 0.140963 0.773262 48 145 226
0.259208 -0.075396 -0.044362 -0.750684 0.114395 0.650682 31 142 210
-0.578512 -0.008290 -0.463155 0.598081 0.176814 -0.781688 203 150 27
-0.281249 0.227458 -0.706501 0.023704 -0.823517 0.566796 130 22 199
0.549957 0.139570 -0.437431 0.107941 -0.260009 -0.959554 141 94 5
0.090757 0.073779 -0.229370 -0.753920 -0.197572 0.626554 31 102 207
-0.298679 -0.063492 -0.794457 -0.024421 0.161988 0.986491 124 148 253
0.057691 0.118609 -0.248635 -0.529654 -0.618289 0.580676 59 48 201
0.257333 -0.226165 0.567889 -0.070060 0.997249 -0.024203 118 254 124
-0.233994 -0.243651 0.677794 0.200059 0.934757 0.293607 153 246 164
-0.365579 -0.012955 -0.294931 0.742882 0.073676 -0.665356 222 136 42
-0.231358 -0.113356 0.558347 -0.134742 0.323365 0.936632 110 168 246
-0.044263 0.266558 0.769781 0.005976 -0.997372 -0.072205 128 0 118
0.318593 -0.055302 0.727508 -0.964872 -0.044074 -0.258997 4 121 94
0.180131 -0.118293 0.909837 -0.462848 0.059542 -0.884435 68 135 14
0.447485 -0.130202 -0.454608 0.020114 0.599028 -0.800475 130 203 25
-0.331331 -0.076656 0.673359 0.987580 0.143380 0.064252 253 145 135
0.301440 -0.086777 -0.450889 0.050991 0.246936 -0.967689 134 158 4
0.284810 -0.108270 0.787889 -0.890432 0.203654 -0.407008 13 153 75
0.502956 -0.173431 -0.486327 0.010929 0.610008 -0.792320 128 205 26
-0.093867 0.004647 -0.539989 0.158331 0.103216 -0.981977 147 140 2
-0.327681 -0.077162 0.618377 0.987580 0.143380 0.064252 253 145 135
-0.139230 -0.121224 -0.780303 -0.009768 0.566351 0.824106 126 199 232
0.079566 -0.208886 0.083208 0.654415 0.558173 -0.510082 210 198 62
-0.112692 -0.223566 -0.208683 0.291409 0.950350 -0.109154 164 248 113
0.229000 -0.229662 0.068739 -0.410887 0.853634 0.320126 75 236 168
-0.585274 0.093397 -0.516665 0.878565 -0.258442 -0.401660 239 94 76
-0.265189 0.185028 0.739517 0.858431 -0.512733 -0.014201 236 62 125
0.083360 -0.026858 0.500444 0.988485 -0.151308 0.001603 253 108 127
-0.230713 0.203689 0.807893 0.488245 -0.856088 -0.169499 189 18 105
0.019059 0.137974 0.921279 -0.056796 -0.503201 -0.862301 120 63 17
-0.192494 0.216294 -0.239487 0.575213 -0.760368 -0.301613 200 30 89
-0.219032 -0.251223 0.733072 0.593985 0.801089 -0.073749 203 229 118
0.608492 0.034119 -0.599788 -0.373762 -0.239421 0.896091 79 96 241
-0.108501 0.198257 -0.346586 -0.424848 -0.743827 0.515970 73 32 193
-0.287236 0.087063 0.903919 0.887506 -0.266066 -0.376220 240 93 79
0.107937 0.215532 -0.697621 -0.127406 -0.866546 0.482562 111 17 189
0.109992 -0.189523 0.177082 0.756914 0.595325 -0.269574 224 203 93
-0.010123 -0.226075 0.708730 -0.018172 0.697449 0.716404 125 216 218
0.316978 0.005026 -0.435726 0.121475 -0.054813 -0.991080 142 120 1
-0.154795 0.149910 -0.120114 0.622735 -0.472817 -0.623415 206 67 48
-0.284477 -0.085268 0.916361 0.864118 0.191199 -0.465558 237 151 68
-0.524859 0.239284 -0.651564 0.510701 -0.856577 -0.073890 192 18 118
-0.038935 0.091172 0.949542 -0.071559 -0.123295 -0.989787 118 111 1
-0.094661 -0.183818 0.645646 -0.325523 0.669719 0.667467 85 212 212
0.272613 0.218225 0.149379 -0.971883 -0.234678 0.019240 3 97 129
0.024642 0.086707 -0.306335 -0.767933 -0.192963 0.610774 29 102 205
0.608275 0.111007 -0.579336 -0.373762 -0.239421 0.896091 79 96 241
0.416412 -0.066187 -0.666311 -0.385513 0.362246 0.848621 78 173 235
-0.089752 -0.188283 -0.364210 -0.549772 0.538233 0.638793 57 196 208
0.103612 -0.099661 0.249848 0.947888 0.159681 -0.275700 248 147 92
0.026179 -0.143827 -0.762727 -0.010919 0.571918 0.820238 126 200 232
-0.383807 -0.062141 -0.796786 -0.024421 0.161988 0.986491 124 148 253
0.240683 0.204664 0.772843 -0.449437 -0.680173 -0.579113 70 40 53
0.096685 0.058086 0.363385 0.961963 -0.268644 0.049582 250 93 133
-0.213251 0.018270 0.963369 0.436215 -0.315814 -0.842602 183 87 20
0.563722 0.071407 -0.608365 -0.249888 -0.349970 0.902816 95 82 242
-0.247780 -0.197877 0.840019 0.602153 0.619945 -0.503070 204 206 63
0.079604 -0.050871 0.549525 0.988485 -0.151308 0.001603 253 108 127
-0.031062 -0.145602 0.934456 0.029913 0.660411 -0.750309 131 211 31
0.362125 -0.035199 0.260682 -0.991474 -0.092469 -0.091811 1 115 115
-0.256933 0.209467 -0.733658 0.023704 -0.823517 0.566796 130 22 199
0.444639 -0.165982 -0.610888 -0.385513 0.362246 0.848621 78 173 235
0.161918 -0.206799 0.598522 0.608828 0.793069 0.019254 205 228 129
0.839136 0.139204 -0.448877 -0.639400 -0.730103 0.241073 45 34 158
-0.255364 -0.161458 0.875822 0.602153 0.619945 -0.503070 204 206 63
0.174781 0.244583 0.703082 0.227430 -0.954376 0.193498 156 5 152
-0.061079 -0.165059 -0.749085 -0.010919 0.571918 0.820238 126 200 232
0.329891 0.171780 -0.658357 -0.203230 -0.517235 0.831364 101 61 233
0.094301 -0.113628 0.532842 0.965580 0.259002 0.023929 250 160 130
-0.256112 0.077800 0.553773 -0.102940 -0.302452 0.947590 114 88 248
-0.134304 0.146413 0.926050 -0.052248 -0.510494 -0.858293 120 62 18
0.244952 -0.229758 0.336438 -0.185203 0.982694 -0.003505 103 252 127
0.528701 0.193019 -0.551239 -0.138357 -0.922616 0.360053 109 9 173
0.284368 0.072510 -0.715974 -0.399048 -0.301370 0.865989 76 89 237
0.173814 -0.005019 0.923317 -0.449420 0.116465 -0.885696 70 142 14
-0.600239 0.120191 -0.691901 0.937263 -0.337148 -0.088708 247 84 116
0.087888 0.212136 -0.101302 -0.245673 -0.952663 0.179105 96 6 150
0.082036 0.072342 0.943142 -0.071559 -0.123295 -0.989787 118 111 1
0.296472 0.152677 0.555036 -0.971883 -0.234678 0.019240 3 97 129
-0.094144 0.170990 -0.570654 0.074334 -0.239997 -0.967923 136 96 4
-0.615059 -0.047206 -0.589923 0.999075 0.037571 -0.020904 254 132 124
-0.288376 -0.229761 -0.474429 -0.061866 0.992654 -0.103979 119 254 114
0.032529 -0.255202 0.738167 -0.018172 0.697449 0.716404 125 216 218
0.047264 -0.085293 0.633468 0.891201 0.095049 0.443539 241 139 184
0.395661 -0.159220 -0.477626 0.020114 0.599028 -0.800475 130 203 25
0.061379 0.127942 0.631151 0.710112 -0.158064 0.686117 218 107 214
0.073601 -0.044019 -0.501560 0.507349 0.276970 -0.816018 192 162 23
0.805695 0.122152 -0.398186 -0.033482 -0.081973 -0.996072 123 117 0
0.522781 0.046008 -0.632686 -0.296935 -0.077015 0.951787 89 117 248
-0.267041 -0.216100 0.721383 0.668619 0.740753 -0.065075 212 221 119
-0.227009 -0.235125 0.653145 0.022369 0.746588 0.664910 130 222 212
0.156756 -0.164466 -0.113330 -0.643484 0.487405 0.590224 45 189 202
0.260950 -0.178013 -0.676336 -0.231653 0.599545 0.766083 97 203 225
0.263042 0.150313 0.005370 -0.648391 -0.357397 0.672202 44 81 213
0.005215 -0.232649 -0.063962 0.501356 0.754245 -0.423978 191 223 73
-0.075976 0.020996 -0.793509 -0.034718 -0.059095 0.997648 123 119 254
0.351534 0.130528 -0.463597 0.140394 -0.394250 -0.908216 145 77 11
0.304299 0.130139 0.675510 -0.971883 -0.234678 0.019240 3 97 129
-0.395521 0.023513 -0.803647 -0.022017 -0.146488 0.988967 124 108 253
0.773131 -0.128043 -0.412149 -0.090094 0.615820 -0.782719 116 206 27
-0.131689 0.017119 -0.526296 -0.618167 -0.138069 -0.773826 48 109 28
-0.070525 0.259102 0.737492 -0.261493 -0.786676 0.559252 94 27 198
0.287262 0.178962 0.410443 -0.971883 -0.234678 0.019240 3 97 129
0.073684 -0.083752 0.583250 0.622283 0.373620 0.687875 206 175 215
-0.569652 -0.179917 -0.551691 0.639686 0.685842 -0.347022 209 214 83
0.072021 0.188276 -0.560829 0.272564 -0.724358 -0.633257 162 35 46
-0.103915 0.218897 -0.159902 0.513532 -0.735568 -0.441843 192 33 71
0.266718 -0.032326 -0.043269 -0.750684 0.114395 0.650682 31 142 210
-0.402439 0.030587 -0.802754 -0.022017 -0.146488 0.988967 124 108 253
0.551008 -0.094547 -0.436498 0.263934 0.178496 -0.947881 161 150 6
0.145556 0.182822 0.381037 0.663341 -0.748013 -0.021333 212 32 124
-0.364482 -0.170592 -0.354301 0.668859 0.348018 -0.656895 212 171 43
0.183356 -0.227630 0.249976 0.689891 0.723837 -0.010539 215 219 126
0.897808 -0.009210 -0.445967 -0.896011 0.002344 0.444025 13 127 184
-0.059786 -0.239510 0.846608 0.016215 0.748843 -0.662550 129 222 43
-0.335917 -0.259582 -0.584724 0.074165 0.986766 -0.144197 136 253 109
0.249931 0.095949 -0.048115 -0.663139 -0.475061 0.578414 42 66 201
0.133038 -0.141745 -0.507962 0.377035 0.386402 -0.841747 175 176 20
0.291582 -0.196935 0.525171 -0.918650 0.391826 -0.050540 10 177 121
-0.554013 -0.198600 -0.559787 0.639686 0.685842 -0.347022 209 214 83
-0.243120 0.231969 -0.484079 -0.662576 -0.738250 0.126408 43 33 143
-0.167983 0.077865 0.564030 -0.120358 -0.235845 0.964309 112 97 250
-0.378341 -0.190088 -0.399611 0.409837 0.822579 -0.394204 179 232 77
-0.350619 -0.111241 -0.788245 -0.022437 0.146184 0.989003 124 146 253
0.310449 0.126533 -0.468213 0.140394 -0.394250 -0.908216 145 77 11
0.256781 0.211388 -0.636467 -0.291965 -0.849505 0.439430 90 19 183
0.736463 -0.082581 -0.394318 0.140377 0.078327 -0.986995 145 137 1
0.691237 0.045829 -0.565792 -0.314174 -0.244471 0.917349 87 96 244
0.295118 0.155167 0.517051 -0.971883 -0.234678 0.019240 3 97 129
-0.175176 -0.015117 0.970793 -0.064530 -0.107632 -0.992094 119 113 1
-0.041845 0.117084 -0.363165 -0.650736 -0.493262 0.577265 44 64 201
-0.359411 0.202211 -0.398215 0.385011 -0.795870 -0.467287 176 26 67
0.323742 0.051992 0.630463 -0.994402 -0.061906 -0.085629 0 119 116
0.422448 0.016292 -0.423422 0.121475 -0.054813 -0.991080 142 120 1
-0.133435 -0.193979 0.894282 0.004006 0.622465 -0.782638 128 206 27
-0.249144 0.207982 0.733118 0.488245 -0.856088 -0.169499 189 18 105
-0.045574 0.227950 -0.630574 -0.147982 -0.747432 -0.647647 108 32 44
0.054540 -0.031479 0.138630 0.939811 0.107828 -0.324235 247 141 86
0.110223 0.124047 0.458117 0.961963 -0.268644 0.049582 250 93 133
-0.023595 -0.148119 -0.760397 -0.010919 0.571918 0.820238 126 200 232
-0.180147 -0.143456 -0.514090 -0.722693 0.344747 -0.599053 35 171 51
-0.417962 0.166310 -0.395194 0.618684 -0.430285 -0.657332 206 72 43
-0.278269 0.163238 0.735576 0.858431 -0.512733 -0.014201 236 62 125
0.292587 -0.197330 0.475749 -0.818203 0.574926 -0.002202 23 200 127
-0.094767 0.187275 -0.574740 0.074334 -0.239997 -0.967923 136 96 4
0.090340 0.238959 -0.635077 0.418980 -0.811375 -0.407586 180 24 75
-0.131746 0.223555 -0.192651 0.311039 -0.813398 -0.491567 167 23 64
-0.223194 -0.149417 -0.193585 0.585574 0.524596 -0.617983 202 194 48
0.035044 0.199007 -0.593396 -0.077206 -0.865420 -0.495064 117 17 64
-0.460938 -0.158361 -0.758595 -0.009768 0.566351 0.824106 126 199 232
-0.230853 -0.104881 -0.165877 0.722280 0.373275 -0.582218 219 175 53
0.179522 0.174003 0.856320 -0.449437 -0.680173 -0.579113 70 40 53
0.445515 0.078766 -0.432704 0.107941 -0.260009 -0.959554 141 94 5
-0.151436 -0.161359 0.589051 -0.262821 0.857794 0.441718 93 236 183
-0.272783 -0.026803 0.935078 0.569264 0.141006 -0.809973 200 145 24
-0.026534 0.087394 -0.785971 -0.022017 -0.146488 0.988967 124 108 253
-0.108294 -0.102976 0.959331 -0.064946 0.114838 -0.991259 119 142 1
0.102715 -0.138788 0.465638 0.965580 0.259002 0.023929 250 160 130
0.703003 0.058712 -0.389950 -0.013469 -0.006990 -0.999885 125 126 0
0.123851 0.235982 -0.625213 -0.125147 -0.985788 0.112072 111 1 141
0.273726 0.215910 0.135258 -0.749934 -0.654772 0.094190 31 44 139
0.013342 0.019290 0.079054 0.913206 -0.172287 -0.369286 243 105 80
-0.147560 -0.246812 0.835105 0.365192 0.848638 -0.382687 174 235 78
0.485950 -0.130888 -0.454155 0.020114 0.599028 -0.800475 130 203 25
0.181130 -0.198690 -0.058494 -0.643484 0.487405 0.590224 45 189 202
-0.329218 0.023780 0.847095 0.944168 0.013071 -0.329205 247 129 85
-0.543402 0.139272 -0.497119 0.590020 -0.481289 -0.648257 202 66 44
-0.486041 -0.167124 -0.460550 0.549540 0.396069 -0.735619 197 177 33
-0.040571 -0.157108 -0.016147 0.646923 0.236655 -0.724903 209 157 35
0.048064 0.068084 -0.282770 -0.767933 -0.192963 0.610774 29 102 205
0.663270 -0.150950 -0.438200 0.430383 0.443182 -0.786359 182 184 27
0.202911 -0.062830 -0.450063 0.288900 0.239349 -0.926957 164 158 9
0.280968 0.189066 -0.502498 0.076735 -0.639050 -0.765328 137 46 29
-0.187142 0.167881 -0.479861 -0.612945 -0.669524 0.419567 49 42 180
-0.097795 -0.053281 -0.042473 0.702443 0.122381 -0.701139 217 143 38
0.288718 0.196822 0.140091 -0.799634 -0.596645 -0.067818 25 51 118
-0.023440 -0.234669 -0.187657 -0.335424 0.883328 0.327450 84 240 169
-0.424037 -0.165509 -0.411650 0.593690 0.436629 -0.675934 203 183 41
0.342933 -0.184308 -0.633235 -0.251943 0.833578 0.491602 95 233 190
0.490707 -0.148212 -0.467080 0.010929 0.610008 -0.792320 128 205 26
0.269474 -0.129517 -0.709145 -0.359128 0.435739 0.825323 81 183 232
-0.249195 0.170827 0.851987 0.578596 -0.697976 -0.421968 201 38 73
0.392181 -0.146595 -0.642995 -0.385513 0.362246 0.848621 78 173 235
0.492300 -0.193936 -0.521281 -0.132541 0.908792 0.395639 110 243 177
0.209201 0.057890 -0.753440 -0.324687 0.041285 0.944920 86 132 247
-0.118430 -0.202109 -0.361089 -0.275937 0.773611 0.570425 92 226 200
-0.008694 -0.227165 -0.658640 0.039840 0.891331 0.451600 132 241 185
-0.578570 -0.157124 -0.706113 0.869298 0.475464 0.135112 238 188 144
0.305141 -0.147356 0.663089 -0.918650 0.391826 -0.050540 10 177 121
0.305977 -0.042697 0.003847 -0.750684 0.114395 0.650682 31 142 210
0.097283 -0.118709 0.467516 0.965580 0.259002 0.023929 250 160 130
0.301853 -0.162910 0.602267 -0.918650 0.391826 -0.050540 10 177 121
0.268177 -0.225118 0.410141 -0.185203 0.982694 -0.003505 103 252 127
0.710765 0.037317 -0.561373 -0.314174 -0.244471 0.917349 87 96 244
0.192473 0.011769 -0.126531 -0.753920 -0.197572 0.626554 31 102 207
-0.036519 -0.187782 -0.042479 0.598670 0.656781 -0.458511 203 211 69
-0.075220 -0.043934 -0.433679 -0.692799 0.209678 0.689974 39 154 215
-0.614165 0.028823 -0.587047 0.959673 -0.251644 -0.125309 249 95 111
0.037579 0.020624 0.110019 0.758121 0.068449 -0.648512 224 136 44
0.188720 0.109996 0.901805 -0.480981 -0.331102 -0.811806 66 85 23
-0.141872 -0.077847 -0.484235 -0.645857 0.396946 0.652152 45 178 210
0.493604 0.126057 -0.440108 0.107941 -0.260009 -0.959554 141 94 5
-0.419340 -0.004289 -0.346747 0.667766 -0.070858 -0.740991 212 118 33
0.225395 0.213862 0.773905 -0.449437 -0.680173 -0.579113 70 40 53
0.679164 0.185603 -0.467555 -0.388983 -0.901307 -0.190626 77 12 103
0.114190 -0.099026 -0.779505 -0.022437 0.146184 0.989003 124 146 253
-0.184663 0.231795 -0.704240 0.023704 -0.823517 0.566796 130 22 199
0.430542 0.206345 -0.554812 -0.138357 -0.922616 0.360053 109 9 173
-0.191271 0.183973 -0.182808 0.656969 -0.456416 -0.600064 211 69 50
0.142210 0.250614 0.777367 -0.394821 -0.781396 -0.483256 77 27 65
0.213279 0.209085 0.006500 -0.414618 -0.819024 0.396601 74 23 178
-0.064155 -0.035416 -0.005653 0.702443 0.122381 -0.701139 217 143 38
0.408633 0.186607 -0.487644 0.076735 -0.639050 -0.765328 137 46 29
-0.514731 0.022557 -0.429594 0.411733 -0.010034 -0.911249 179 126 11
0.001869 0.008064 0.055920 0.913206 -0.172287 -0.369286 243 105 80
0.214959 0.073299 -0.089312 -0.737633 -0.049742 0.673367 33 121 213
0.376659 -0.068570 -0.688726 -0.492596 0.426932 0.758339 64 181 224
-0.329870 -0.009098 0.656925 0.992479 -0.069882 0.100506 254 118 140
0.106311 -0.160634 0.557007 0.965580 0.259002 0.023929 250 160 130
-0.182363 0.016245 -0.103696 0.625312 -0.145399 -0.766710 207 108 29
-0.302590 -0.254289 -0.658454 -0.132009 0.987800 0.082619 110 253 138
0.319495 -0.160371 0.127543 -0.818203 0.574926 -0.002202 23 200 127
-0.265628 -0.203144 -0.306675 0.448434 0.798659 -0.401311 184 229 76
0.330297 0.227951 -0.538677 0.136447 -0.875938 -0.462725 144 15 68
0.675771 -0.146300 -0.543638 -0.333946 0.278311 0.900568 84 162 242
-0.160665 0.230831 0.657615 -0.222648 -0.724614 0.652199 99 35 210
0.786149 0.137018 -0.496760 -0.393878 -0.411238 0.822036 77 75 232
-0.169021 -0.115911 -0.511660 -0.722693 0.344747 -0.599053 35 171 51
0.202784 0.068160 0.910093 -0.385378 -0.037918 -0.921980 78 122 9
0.201182 0.232116 0.041416 -0.414618 -0.819024 0.396601 74 23 178
-0.472358 0.003083 -0.395230 0.667766 -0.070858 -0.740991 212 118 33
0.226939 0.141210 -0.702543 -0.203230 -0.517235 0.831364 101 61 233
0.145658 -0.167242 -0.723569 -0.284485 0.599661 0.747981 91 203 222
0.257172 -0.178909 -0.496181 0.030786 0.613982 -0.788719 131 205 26
-0.181534 0.200378 -0.425253 -0.418890 -0.863268 0.281603 74 17 163
-0.109450 0.240977 -0.249501 -0.185150 -0.965463 -0.183303 103 4 104
0.644356 -0.141330 -0.443130 0.430383 0.443182 -0.786359 182 184 27
-0.376570 0.187468 -0.748784 0.008639 -0.590607 0.806913 128 52 230
-0.150320 -0.024107 0.969458 -0.058661 0.094302 -0.993814 120 139 0
-0.616429 -0.026473 -0.620632 0.999709 0.016969 -0.017171 254 129 125
0.091803 0.165273 0.620787 0.357743 -0.723634 0.590232 173 35 202
0.308313 0.168529 0.157968 -0.799634 -0.596645 -0.067818 25 51 118
0.044853 -0.145876 0.651295 0.891201 0.095049 0.443539 241 139 184
0.274768 0.015387 -0.441472 0.121475 -0.054813 -0.991080 142 120 1
-0.306600 -0.025728 -0.230838 0.727830 0.091544 -0.679619 220 139 40
-0.004714 0.156090 0.641698 -0.038966 -0.290953 0.955944 122 90 249
-0.241203 0.060655 0.934346 0.395824 -0.230776 -0.888857 177 98 14
0.872023 0.090467 -0.450462 -0.817128 -0.470464 0.333116 23 67 169
0.107731 0.229202 0.071437 0.631910 -0.716924 -0.294465 208 36 89
0.090403 -0.027077 -0.247065 -0.743918 0.137974 0.653873 32 145 210
-0.078023 0.179826 -0.068837 0.536287 -0.650402 -0.537934 195 44 58
-0.538610 -0.199248 -0.683291 0.525335 0.777400 0.345935 194 226 171
-0.268877 0.231220 -0.390594 0.013753 -0.999881 -0.007047 129 0 126
-0.287190 0.118695 0.576525 0.764753 -0.146417 0.627467 225 108 207
-0.299809 0.054448 0.580141 0.791532 -0.080112 0.605855 228 117 204
0.749200 0.166914 -0.496629 -0.425560 -0.748615 0.508404 73 32 192
0.273953 0.086357 -0.456415 0.140394 -0.394250 -0.908216 145 77 11
-0.212505 0.201926 -0.241427 0.575213 -0.760368 -0.301613 200 30 89
-0.153474 0.268531 0.742745 -0.001806 -0.996880 -0.078917 127 0 117
0.320228 0.056094 0.668302 -0.994402 -0.061906 -0.085629 0 119 116
-0.586735 -0.038796 -0.477449 0.831071 0.097278 -0.547593 233 139 57
-0.130810 0.131547 0.934679 -0.052248 -0.510494 -0.858293 120 62 18
0.346452 -0.110600 -0.454597 0.050991 0.246936 -0.967689 134 158 4
0.317440 0.135705 0.339127 -0.799634 -0.596645 -0.067818 25 51 118
0.308389 -0.045567 -0.439916 0.051662 0.249811 -0.966915 134 159 4
0.332280 -0.114474 0.424732 -0.918650 0.391826 -0.050540 10 177 121
0.050677 -0.222132 -0.673813 0.039840 0.891331 0.451600 132 241 185
-0.165321 -0.139825 0.937190 0.004006 0.622465 -0.782638 128 206 27
0.282087 -0.041572 0.852089 -0.866917 0.329071 -0.374389 16 169 79
0.305246 -0.161254 0.553430 -0.918650 0.391826 -0.050540 10 177 121
0.709879 -0.156506 -0.427400 0.171894 0.390379 -0.904465 149 177 12
-0.175311 0.015156 -0.097738 0.625312 -0.145399 -0.766710 207 108 29
0.211234 0.099749 -0.732177 -0.203230 -0.517235 0.831364 101 61 233
0.558221 0.146299 -0.439433 -0.025241 -0.755465 -0.654703 124 31 44
-0.294642 0.138645 0.610966 0.854063 -0.520053 0.010991 236 61 128
0.123178 -0.130814 -0.764455 -0.311119 0.630257 0.711323 87 207 218
0.500146 0.195246 -0.556505 -0.138357 -0.922616 0.360053 109 9 173
-0.090232 -0.019804 -0.029053 0.702443 0.122381 -0.701139 217 143 38
-0.521505 -0.050135 -0.431854 0.411733 -0.010034 -0.911249 179 126 11
0.294031 -0.213202 -0.609773 -0.297560 0.835103 0.462667 89 233 186
-0.617528 -0.033365 -0.691441 0.999709 0.016969 -0.017171 254 129 125
-0.460905 0.001781 -0.808042 -0.034718 -0.059095 0.997648 123 119 254
0.816855 -0.148751 -0.446828 -0.607034 0.750199 0.262127 50 223 160
-0.306539 0.083966 0.855398 0.866788 -0.456514 -0.200685 238 69 101
-0.468802 -0.082395 -0.795564 -0.024421 0.161988 0.986491 124 148 253
0.162690 0.233721 0.025797 -0.023449 -0.952303 0.304251 124 6 166
-0.329538 -0.187085 -0.342605 0.409837 0.822579 -0.394204 179 232 77
0.018008 0.127596 -0.284858 -0.628098 -0.636238 0.447989 47 46 184
-0.408026 -0.245136 -0.540191 0.071714 0.976391 -0.203758 136 251 101
0.891570 -0.052942 -0.448473 -0.677745 0.287346 0.676826 41 164 213
0.130841 0.164524 0.277413 0.961963 -0.268644 0.049582 250 93 133
-0.196431 0.186056 -0.535891 -0.456306 -0.617455 -0.640729 69 48 45
-0.066351 -0.159808 0.635362 -0.325523 0.669719 0.667467 85 212 212
0.186522 0.235598 0.131308 -0.182533 -0.977791 -0.102984 104 2 114
0.542627 -0.021804 -0.614540 -0.128264 0.228635 0.965026 111 156 250
-0.068332 0.023315 0.959674 -0.064530 -0.107632 -0.992094 119 113 1
-0.338278 0.041345 0.815267 0.866788 -0.456514 -0.200685 238 69 101
0.151705 -0.209658 0.196602 0.504358 0.788593 -0.351774 191 228 82
-0.279276 0.161703 0.730127 0.858431 -0.512733 -0.014201 236 62 125
-0.239263 0.038074 0.942480 0.436215 -0.315814 -0.842602 183 87 20
-0.049038 0.027333 0.957983 -0.064530 -0.107632 -0.992094 119 113 1
-0.182534 -0.216837 -0.590206 -0.463855 0.570003 -0.678186 68 200 41
-0.368575 0.206752 -0.413433 0.377973 -0.757672 -0.532042 175 30 59
0.613353 0.092214 -0.582238 -0.373762 -0.239421 0.896091 79 96 241
0.075231 0.017397 -0.498185 0.386439 -0.033661 -0.921701 176 123 9
0.254270 0.203002 0.764251 -0.449437 -0.680173 -0.579113 70 40 53
0.023011 0.011981 0.092077 0.758121 0.068449 -0.648512 224 136 44
-0.340081 -0.228614 -0.439090 0.374177 0.785592 -0.492784 175 227 64
0.356395 -0.081357 0.184371 -0.945515 0.322043 -0.047860 6 168 121
-0.231774 -0.192575 -0.243636 0.473562 0.798344 -0.372002 187 229 80
0.126883 -0.085857 -0.485063 0.377035 0.386402 -0.841747 175 176 20
-0.467711 0.258836 -0.591189 0.229980 -0.867182 -0.441707 156 16 71
0.271179 0.122419 -0.002015 -0.663139 -0.475061 0.578414 42 66 201
-0.176674 0.163687 -0.530070 -0.798913 -0.330218 -0.502687 25 85 63
0.305867 0.060764 0.009347 -0.737633 -0.049742 0.673367 33 121 213
0.072358 0.152750 0.128087 0.840532 -0.240856 -0.485277 234 96 65
-0.159103 0.218594 0.644552 -0.222648 -0.724614 0.652199 99 35 210
-0.111884 -0.218204 -0.705468 -0.015868 0.755449 0.655015 125 223 211
0.109061 0.097876 0.338849 0.961963 -0.268644 0.049582 250 93 133
0.099346 0.211106 -0.707836 -0.127406 -0.866546 0.482562 111 17 189
0.051910 0.193407 0.043649 0.603743 -0.733472 -0.312271 204 33 87
0.056621 -0.224322 0.018811 0.583759 0.724319 -0.366862 201 219 80
0.206907 0.132634 -0.067312 -0.663139 -0.475061 0.578414 42 66 201
-0.348428 0.256418 -0.516587 -0.145419 -0.974159 -0.172821 108 3 105
0.160768 -0.203700 0.414851 0.689891 0.723837 -0.010539 215 219 126
0.135162 -0.069799 0.936635 -0.462848 0.059542 -0.884435 68 135 14
-0.228962 0.230960 -0.555997 -0.456306 -0.617455 -0.640729 69 48 45
0.238797 -0.226822 0.073742 -0.410887 0.853634 0.320126 75 236 168
-0.237397 -0.181913 0.872120 0.602153 0.619945 -0.503070 204 206 63
0.108463 -0.154759 0.406590 0.965580 0.259002 0.023929 250 160 130
-0.031071 0.030066 -0.791409 -0.034718 -0.059095 0.997648 123 119 254
-0.176585 0.156941 0.919633 0.322293 -0.468435 -0.822616 168 67 22
0.079307 -0.086309 -0.782176 -0.022437 0.146184 0.989003 124 146 253
-0.191376 -0.114756 0.944123 0.313002 0.469156 -0.825786 167 187 22
0.549550 0.039377 -0.622968 -0.373762 -0.239421 0.896091 79 96 241
0.299327 0.020327 0.786411 -0.964872 -0.044074 -0.258997 4 121 94
-0.033937 0.114348 0.626326 -0.413265 -0.328971 0.849112 74 85 235
-0.617833 -0.023178 -0.699142 0.999709 0.016969 -0.017171 254 129 125
0.284264 -0.208845 0.562007 -0.818203 0.574926 -0.002202 23 200 127
-0.340351 0.069636 -0.795587 -0.022017 -0.146488 0.988967 124 108 253
0.304013 0.145477 0.411478 -0.799634 -0.596645 -0.067818 25 51 118
0.327497 -0.195797 -0.621664 -0.251943 0.833578 0.491602 95 233 190
0.221671 0.126531 -0.481936 0.140394 -0.394250 -0.908216 145 77 11
-0.188982 -0.030663 -0.797132 -0.024421 0.161988 0.986491 124 148 253
0.174444 0.025553 -0.768778 -0.444834 0.034261 0.894957 70 131 241
0.269161 0.220069 0.342031 -0.220521 -0.975372 0.004519 99 3 128
0.624578 0.058846 -0.400816 0.221242 -0.236923 -0.946002 155 97 6
0.114672 -0.028758 -0.219100 -0.743918 0.137974 0.653873 32 145 210
-0.032046 -0.150133 -0.759106 -0.010919 0.571918 0.820238 126 200 232
0.315725 0.156052 0.180342 -0.799634 -0.596645 -0.067818 25 51 118
-0.247129 -0.019559 0.954369 0.569264 0.141006 -0.809973 200 145 24
-0.292343 -0.216643 -0.363393 0.448434 0.798659 -0.401311 184 229 76
0.335819 -0.083381 0.577258 -0.945515 0.322043 -0.047860 6 168 121
-0.097105 -0.207794 0.669359 -0.337588 0.679872 0.651006 84 214 210
0.327101 -0.081291 -0.707674 -0.317176 0.033931 0.947759 87 131 248
0.785847 -0.170217 -0.457199 -0.607034 0.750199 0.262127 50 223 160
0.089707 -0.144916 0.193631 0.923682 0.126696 -0.361607 245 143 81
-0.085421 0.238098 -0.681150 -0.020689 -0.950386 0.310385 124 6 167
-0.200325 0.014624 -0.116470 0.580620 -0.155599 -0.799168 201 107 25
-0.028853 0.241298 -0.667582 -0.020689 -0.950386 0.310385 124 6 167
0.309937 0.117522 -0.464381 0.140394 -0.394250 -0.908216 145 77 11
-0.410837 -0.142609 -0.385264 0.593690 0.436629 -0.675934 203 183 41
0.588917 -0.169683 -0.562192 -0.230290 0.327249 0.916447 98 169 244
-0.160347 -0.106427 -0.516666 -0.722693 0.344747 -0.599053 35 171 51
-0.339172 -0.033753 0.816261 0.944168 0.013071 -0.329205 247 129 85
0.448273 0.208204 -0.543235 -0.138357 -0.922616 0.360053 109 9 173
-0.404249 0.152327 -0.774208 0.008639 -0.590607 0.806913 128 52 230
0.507829 0.122845 -0.603896 -0.249888 -0.349970 0.902816 95 82 242
0.151408 0.142108 0.898006 -0.379500 -0.548703 -0.744920 79 57 32
0.333097 -0.093868 0.059206 -0.898969 0.249965 0.359683 12 159 173
-0.334753 -0.042603 0.711273 0.998192 0.027542 0.053420 254 131 134
-0.347851 0.263653 -0.561821 -0.174246 -0.983989 -0.037472 105 2 122
0.308553 0.040752 0.748563 -0.964872 -0.044074 -0.258997 4 121 94
-0.018108 0.113450 0.938038 -0.056796 -0.503201 -0.862301 120 63 17
-0.245084 0.031336 0.941992 0.436215 -0.315814 -0.842602 183 87 20
0.300304 0.139713 0.590521 -0.971883 -0.234678 0.019240 3 97 129
0.328934 -0.120452 0.439201 -0.918650 0.391826 -0.050540 10 177 121
0.214710 -0.138707 -0.468711 0.050991 0.246936 -0.967689 134 158 4
-0.100672 -0.234341 -0.622337 -0.039668 0.853499 -0.519583 122 236 61
-0.015121 0.205354 0.671538 -0.005296 -0.779099 0.626878 126 28 207
-0.406648 0.264092 -0.569714 0.229980 -0.867182 -0.441707 156 16 71
-0.098579 -0.194768 -0.588094 0.078788 0.567911 -0.819310 137 199 23
0.842335 -0.046515 -0.395214 -0.235937 0.195319 -0.951937 97 152 6
-0.123516 0.063578 0.958895 -0.064530 -0.107632 -0.992094 119 113 1
0.214812 -0.134056 -0.724689 -0.231653 0.599545 0.766083 97 203 225
0.315986 -0.004009 0.015646 -0.737633 -0.049742 0.673367 33 121 213
0.206824 0.223984 0.030521 -0.414618 -0.819024 0.396601 74 23 178
0.082964 -0.040100 0.213353 0.947888 0.159681 -0.275700 248 147 92
-0.146460 0.152357 0.923255 -0.052248 -0.510494 -0.858293 120 62 18
-0.086781 -0.086560 0.959781 -0.058661 0.094302 -0.993814 120 139 0
0.047589 -0.138588 -0.253718 -0.643484 0.487405 0.590224 45 189 202
0.083010 -0.150806 -0.757105 -0.010919 0.571918 0.820238 126 200 232
0.323211 -0.120536 0.542575 -0.918650 0.391826 -0.050540 10 177 121
-0.105961 -0.244216 0.840159 0.016215 0.748843 -0.662550 129 222 43
-0.217723 0.063370 -0.141201 0.753958 -0.266216 -0.600564 223 93 50
0.301714 0.159207 0.051926 -0.807863 -0.396585 0.435979 24 76 183
0.230998 -0.028486 -0.444411 0.121475 -0.054813 -0.991080 142 120 1
0.085703 -0.099411 0.580882 0.622283 0.373620 0.687875 206 175 215
0.046720 -0.117383 0.641437 0.891201 0.095049 0.443539 241 139 184
0.553164 -0.018093 -0.419740 0.051662 0.249811 -0.966915 134 159 4
0.187222 0.212205 0.805477 -0.449437 -0.680173 -0.579113 70 40 53
0.151018 -0.223880 -0.033896 -0.400466 0.841228 0.363267 76 234 173
-0.012798 0.157360 -0.757107 -0.040645 -0.398022 0.916475 122 76 244
0.231539 0.133209 -0.706396 -0.203230 -0.517235 0.831364 101 61 233
0.357147 -0.038957 0.318226 -0.991474 -0.092469 -0.091811 1 115 115
0.065379 0.180149 -0.742655 -0.075225 -0.417977 0.905338 117 74 242
0.354047 0.014339 0.305758 -0.994402 -0.061906 -0.085629 0 119 116
0.030201 0.050130 -0.310902 -0.767933 -0.192963 0.610774 29 102 205
-0.109138 0.213972 0.881861 -0.027182 -0.828508 -0.559318 124 21 56
-0.347761 -0.049287 -0.277938 0.667766 -0.070858 -0.740991 212 118 33
0.602149 -0.070414 -0.594315 -0.230290 0.327249 0.916447 98 169 244
-0.475000 0.134590 -0.786433 0.008639 -0.590607 0.806913 128 52 230
0.621903 -0.008922 -0.605694 -0.373762 -0.239421 0.896091 79 96 241
-0.231669 -0.224030 -0.346073 -0.014254 0.999674 0.021158 125 254 130
0.067581 0.215130 0.027014 0.467661 -0.682303 -0.561921 187 40 55
0.106678 0.090630 0.345822 0.961963 -0.268644 0.049582 250 93 133
-0.341606 -0.107911 -0.297801 0.668859 0.348018 -0.656895 212 171 43
0.863985 -0.021719 -0.488146 -0.480793 0.216970 0.849566 66 155 235
0.088707 0.104536 0.936205 -0.056796 -0.503201 -0.862301 120 63 17
0.116576 0.010882 -0.480612 0.386439 -0.033661 -0.921701 176 123 9
-0.353496 0.058375 -0.797548 -0.022017 -0.146488 0.988967 124 108 253
0.198993 0.212586 -0.664967 -0.203230 -0.517235 0.831364 101 61 233
0.459868 0.088871 -0.433827 0.107941 -0.260009 -0.959554 141 94 5
-0.186610 0.137394 0.580344 -0.102940 -0.302452 0.947590 114 88 248
0.015215 0.265727 0.786175 0.005976 -0.997372 -0.072205 128 0 118
0.342935 0.113525 0.100263 -0.918546 -0.237487 0.316028 10 97 167
0.183214 0.100845 0.908799 -0.480981 -0.331102 -0.811806 66 85 23
0.105617 0.118849 0.528820 0.988485 -0.151308 0.001603 253 108 127
-0.109213 -0.196353 0.892518 0.004006 0.622465 -0.782638 128 206 27
