ply
format ascii 1.0
element vertex 1024
property float x
property float y
property float z
property float nx
property float ny
property float nz
property uchar red
property uchar green
property uchar blue
end_header
-0.287310 0.150474 0.682740 0.004282 -0.522575 -0.852583 128 60 18
0.294605 0.257004 -0.158588 -0.298063 -0.954543 0.002302 89 5 127
0.043483 0.137289 0.223926 0.680364 -0.518426 0.518015 214 61 193
0.193544 0.271109 -0.533368 0.280388 -0.945655 -0.164681 163 6 106
0.200782 -0.132369 0.533148 -0.655401 0.477379 -0.585286 43 188 52
-0.057812 0.136568 -0.893729 0.890682 -0.454480 -0.011586 241 69 126
-0.066889 0.119773 -0.932668 0.890682 -0.454480 -0.011586 241 69 126
0.327907 -0.193467 -0.656549 -0.462408 0.817878 0.342425 68 231 171
0.051979 0.069572 0.674812 -0.618108 -0.167565 -0.768027 48 106 29
0.452719 -0.029842 -0.492506 -0.999586 -0.025158 -0.013945 0 124 125
-0.408280 -0.225401 0.602994 0.029093 0.861567 -0.506809 131 237 62
0.404977 0.161487 -0.553599 -0.904747 -0.425557 -0.018252 12 73 125
0.166062 0.269574 0.340368 -0.133538 -0.973178 -0.187332 110 3 103
0.454673 -0.050004 -0.596168 -0.999586 -0.025158 -0.013945 0 124 125
0.397829 -0.173607 -0.234848 -0.731260 0.681482 0.029000 34 214 131
0.391053 -0.059331 0.295722 -0.861090 0.157348 -0.483493 17 147 65
-0.104320 -0.221794 0.507434 0.046647 0.519079 0.853453 133 193 236
-0.155076 0.168171 0.487185 0.171108 -0.489790 0.854885 149 65 236
0.036292 0.251224 -0.770786 0.379419 -0.924430 -0.038355 175 9 122
-0.280470 -0.226896 0.607788 0.029093 0.861567 -0.506809 131 237 62
-0.203342 0.248681 0.591220 -0.025176 -0.964427 -0.263147 124 4 93
0.378342 0.198326 -0.303898 -0.864440 -0.502020 -0.026826 17 63 124
-0.137715 -0.014686 0.715919 -0.045154 -0.225591 -0.973175 121 98 3
0.288673 -0.254947 -0.125117 -0.292703 0.956181 -0.006526 90 249 126
0.254410 -0.026610 -0.917914 -0.872885 0.154025 0.462977 16 147 186
0.269521 -0.259270 0.100425 -0.292703 0.956181 -0.006526 90 249 126
-0.052509 -0.140576 -0.698439 0.885897 0.433221 -0.165850 240 182 106
-0.410931 0.209309 0.655638 -0.003495 -0.854057 -0.520167 127 18 61
-0.202817 0.140031 0.476614 -0.023024 -0.319938 0.947159 124 86 248
0.227849 -0.213079 0.422533 -0.610295 0.636359 -0.471792 49 208 67
0.107615 -0.107740 0.634493 -0.581102 0.296065 -0.758068 53 165 30
0.224035 0.252490 0.103251 0.262225 -0.964973 0.008054 160 4 128
0.272067 0.010361 -0.793468 -0.849114 -0.127371 0.512623 19 111 192
0.446411 0.015852 -0.029868 -0.999830 0.015086 -0.010620 0 129 126
-0.306589 -0.074380 0.706081 0.017699 0.253926 -0.967062 129 159 4
0.433634 0.065290 -0.052676 -0.943024 -0.332374 -0.015248 7 85 125
0.313177 -0.068157 0.428710 -0.799117 0.132733 -0.586340 25 144 52
-0.009425 0.150228 -0.614368 0.849125 -0.386925 -0.359550 235 78 81
0.215475 0.250075 0.092652 0.262225 -0.964973 0.008054 160 4 128
0.389879 -0.182812 0.081325 -0.927168 0.373895 -0.023727 9 175 124
0.449291 0.001762 -0.303800 -0.999586 -0.025158 -0.013945 0 124 125
0.175645 0.249758 -0.732663 -0.495234 -0.799853 0.339086 64 25 170
-0.121021 -0.072935 0.709857 0.017699 0.253926 -0.967062 129 159 4
0.365311 -0.032539 0.350287 -0.861090 0.157348 -0.483493 17 147 65
0.190139 -0.015707 -0.994613 -0.568606 0.025530 0.822214 55 130 232
-0.695616 0.038062 0.278536 0.230807 -0.194555 0.953350 156 102 249
-0.051066 0.121752 -0.707360 0.955450 -0.283581 -0.081838 249 91 117
0.213747 0.137140 0.507249 -0.678000 -0.422359 -0.601605 41 73 50
0.028667 -0.247202 0.397247 0.549092 0.741002 0.386541 197 221 176
-0.471517 0.103437 0.696364 -0.019730 -0.154422 -0.987808 124 107 1
0.172981 -0.222906 -0.004673 0.606114 0.795364 0.004610 204 228 128
0.068803 0.012758 0.011242 0.989370 -0.139988 0.039361 253 109 132
0.197407 -0.240314 -0.212788 0.606114 0.795364 0.004610 204 228 128
0.028444 0.100856 0.221241 0.803586 -0.387074 0.452132 229 78 185
0.442379 0.039276 -0.026470 -0.943024 -0.332374 -0.015248 7 85 125
0.100770 0.102190 -0.209524 0.939708 -0.341627 0.015495 247 83 129
0.300696 0.137225 0.396659 -0.788789 -0.432137 -0.437115 26 72 71
0.287055 -0.254782 -0.028332 -0.292703 0.956181 -0.006526 90 249 126
-0.353375 -0.063879 0.707982 0.017699 0.253926 -0.967062 129 159 4
0.247958 -0.180903 0.438627 -0.597860 0.606481 -0.524161 51 204 60
0.264426 -0.179550 0.420442 -0.610295 0.636359 -0.471792 49 208 67
0.313788 -0.010917 -0.739670 -0.318211 0.013419 0.947925 86 129 248
0.277183 0.088751 0.467807 -0.705613 -0.394879 -0.588372 37 77 52
0.246778 0.251570 0.294941 -0.481523 -0.830084 -0.281240 66 21 91
0.092460 0.074653 -0.327435 0.919379 -0.392580 0.024974 244 77 130
0.128828 0.175472 0.092580 0.852173 -0.522867 0.020275 236 60 130
0.114782 -0.137552 -0.202670 0.910203 0.413021 0.030722 243 180 131
0.375621 -0.199052 -0.196887 -0.731260 0.681482 0.029000 34 214 131
-0.028397 -0.056857 -0.593059 0.843477 0.085581 -0.530305 235 138 59
0.357112 -0.164331 -0.666249 -0.378147 0.558687 0.738156 79 198 221
0.419230 0.117600 -0.236875 -0.904747 -0.425557 -0.018252 12 73 125
-0.068490 0.036943 -0.672637 0.948288 -0.090515 -0.304233 248 115 88
0.447761 0.039168 -0.356984 -0.943024 -0.332374 -0.015248 7 85 125
0.417495 -0.113477 0.079263 -0.941162 0.336960 -0.025915 7 170 124
0.432755 0.086620 -0.394784 -0.955811 -0.293347 -0.019298 5 90 125
-0.026201 0.083304 0.690848 -0.010920 -0.034015 -0.999362 126 123 0
0.145669 0.236541 0.461348 -0.336052 -0.871100 -0.358127 84 16 81
-0.268696 -0.248425 0.564844 -0.034178 0.960873 0.274873 123 250 162
0.319527 -0.084526 0.414142 -0.858970 0.161533 -0.485878 17 148 65
0.186045 -0.266622 -0.564132 -0.049212 0.993797 -0.099733 121 254 114
0.316516 0.248562 -0.131643 -0.378078 -0.925621 0.016828 79 9 129
0.036195 -0.252181 -0.814249 0.575132 0.817576 -0.028153 200 231 123
0.321508 -0.242210 -0.158434 -0.394328 0.918826 0.016255 77 244 129
0.241391 -0.261244 -0.332674 0.456164 0.889803 0.012842 185 240 129
-0.056986 0.091611 -0.672036 0.955450 -0.283581 -0.081838 249 91 117
0.157325 -0.203596 -0.120929 0.776888 0.628904 0.030410 226 207 131
0.284810 -0.244840 -0.592740 -0.468142 0.813291 0.345543 67 231 171
0.394524 -0.176906 -0.240656 -0.731260 0.681482 0.029000 34 214 131
0.030795 -0.247744 -0.795691 0.575132 0.817576 -0.028153 200 231 123
0.240160 -0.126484 0.492343 -0.726899 0.391299 -0.564361 34 177 55
0.085740 0.080453 0.011140 0.919379 -0.392580 0.024974 244 77 130
0.092095 -0.251471 0.316392 0.296206 0.929206 0.220992 165 245 155
0.401071 -0.072332 -0.703424 -0.362627 0.085038 0.928047 81 138 245
0.116129 0.144300 -0.212566 0.939708 -0.341627 0.015495 247 83 129
-0.544733 0.223130 0.452904 -0.447103 -0.648423 0.616155 70 44 206
-0.430874 -0.161513 0.672394 0.034133 0.570980 -0.820254 131 200 22
0.102204 -0.265351 -0.707698 0.235596 0.971464 0.027437 157 251 130
-0.267546 0.051501 0.705311 0.007414 -0.563679 -0.825960 128 55 22
-0.280517 -0.027342 0.450102 -0.006383 -0.020269 0.999774 126 124 254
-0.328468 0.203981 0.657490 -0.028159 -0.353147 -0.935144 123 82 8
-0.109952 0.072749 0.693940 -0.019730 -0.154422 -0.987808 124 107 1
-0.311207 0.195934 0.660009 -0.028159 -0.353147 -0.935144 123 82 8
0.196800 -0.251385 0.153144 0.110006 0.993198 0.038162 141 254 132
0.031293 0.032623 0.698826 -0.044874 -0.185501 -0.981619 121 103 2
0.299878 -0.043258 -0.743881 -0.318211 0.013419 0.947925 86 129 248
-0.130366 0.138817 0.690097 -0.010920 -0.034015 -0.999362 126 123 0
-0.553759 -0.099589 0.696068 0.014416 0.232836 -0.972409 129 157 3
0.140484 0.208991 0.518428 -0.347456 -0.823108 -0.449186 83 22 70
0.116512 0.143599 -0.251227 0.939708 -0.341627 0.015495 247 83 129
-0.601696 -0.263058 0.572341 -0.093638 0.964169 -0.248215 115 250 95
0.023100 -0.241014 -0.757449 0.575132 0.817576 -0.028153 200 231 123
0.017093 -0.220005 -0.937959 0.386567 0.859242 0.335066 176 237 170
-0.076763 0.045328 -0.740662 0.954294 -0.287443 -0.081848 249 90 117
-0.727613 0.097860 0.301744 0.196933 -0.571412 0.796684 152 54 229
-0.301715 -0.100962 0.462014 -0.018395 0.280259 0.959748 125 163 249
0.042533 0.051110 0.153613 0.803586 -0.387074 0.452132 229 78 185
-0.681593 0.028344 0.274532 0.028897 0.070456 0.997096 131 136 254
-0.350240 -0.146325 0.469970 -0.210469 0.220078 0.952506 100 155 248
0.036158 -0.111165 -0.510820 0.798939 0.221714 -0.559052 229 155 56
-0.055789 0.070736 0.323805 0.863356 -0.134503 0.486339 237 110 189
0.346456 0.200979 0.239556 -0.510707 -0.749106 -0.421923 62 31 73
-0.411625 0.147087 0.684192 0.004282 -0.522575 -0.852583 128 60 18
-0.210582 0.229120 0.517796 -0.101686 -0.941793 0.320447 114 7 168
0.439397 0.050388 -0.084248 -0.943024 -0.332374 -0.015248 7 85 125
0.123167 -0.259190 -0.801162 -0.492203 0.857390 0.150395 64 236 146
0.370639 -0.198721 -0.330298 -0.731260 0.681482 0.029000 34 214 131
0.026922 -0.022836 0.170986 0.870816 0.036555 0.490248 238 132 190
0.215945 0.264445 0.292733 -0.223891 -0.969843 -0.096320 98 3 115
0.430611 -0.122426 -0.610949 -0.731260 0.681482 0.029000 34 214 131
-0.591127 0.188725 0.398279 -0.449688 -0.439883 0.777357 70 71 226
0.240883 0.263802 -0.363134 0.455421 -0.889920 -0.025178 185 14 124
0.445513 0.016133 0.055073 -0.999830 0.015086 -0.010620 0 129 126
0.035074 0.050717 0.166532 0.803586 -0.387074 0.452132 229 78 185
0.355508 -0.210108 -0.444245 -0.731260 0.681482 0.029000 34 214 131
-0.754567 -0.146529 0.506188 0.967684 0.247971 -0.045795 250 159 121
0.426473 -0.091504 0.038900 -0.941162 0.336960 -0.025915 7 170 124
0.007094 -0.146636 0.291669 0.779946 0.384681 0.493665 226 176 190
0.158279 0.207021 -0.124269 0.610427 -0.791457 0.031221 205 26 131
0.382217 -0.201399 0.024581 -0.731260 0.681482 0.029000 34 214 131
-0.053318 -0.243384 0.537775 0.327140 0.944919 -0.010388 169 247 126
-0.015761 0.060810 0.695651 -0.044874 -0.185501 -0.981619 121 103 2
0.039498 0.109880 0.209320 0.803586 -0.387074 0.452132 229 78 185
-0.344694 0.184350 0.665392 -0.028159 -0.353147 -0.935144 123 82 8
0.108507 0.159650 -0.427382 0.795285 -0.332481 -0.506931 228 85 62
0.080090 0.245883 0.325995 0.566275 -0.712539 0.414272 199 36 180
0.042277 0.247528 0.524533 -0.021144 -0.977652 -0.209164 124 2 100
0.431659 0.096975 -0.497915 -0.955811 -0.293347 -0.019298 5 90 125
0.373248 0.201235 -0.194195 -0.864440 -0.502020 -0.026826 17 63 124
-0.059983 0.114864 0.362849 0.787455 -0.394992 0.473176 227 77 187
0.369801 0.209065 -0.412266 -0.624179 -0.781135 0.015129 47 27 129
-0.509420 0.227455 0.630552 -0.017581 -0.812367 -0.582881 125 23 53
-0.115785 0.230114 0.619496 -0.003495 -0.854057 -0.520167 127 18 61
0.077788 -0.042570 -0.196787 0.981987 0.179476 0.059073 252 150 135
0.197714 -0.090004 -0.971381 -0.535715 0.275229 0.798285 59 162 229
-0.039474 0.005997 0.707093 -0.044874 -0.185501 -0.981619 121 103 2
-0.625534 0.166052 0.673578 0.267770 -0.491861 -0.828476 161 64 21
-0.688982 0.119300 0.310231 0.112240 -0.538798 0.834924 141 58 233
0.429827 -0.098129 -0.169068 -0.941162 0.336960 -0.025915 7 170 124
0.394094 0.069396 0.280005 -0.922605 -0.267853 -0.277586 9 93 92
0.448240 -0.072093 -0.499239 -0.941162 0.336960 -0.025915 7 170 124
-0.577030 0.186107 0.404729 -0.407828 -0.450740 0.794046 75 70 228
-0.421055 0.138714 0.455395 -0.313619 -0.464246 0.828323 87 68 233
0.271244 -0.260194 -0.112119 -0.292703 0.956181 -0.006526 90 249 126
-0.311380 0.075747 0.457046 -0.062156 -0.149645 0.986784 119 108 253
-0.160485 -0.221311 0.623600 0.013693 0.888370 -0.458924 129 240 68
-0.092191 -0.028586 -0.870837 0.992844 0.118745 -0.012648 254 142 125
0.274384 -0.034080 0.489295 -0.799117 0.132733 -0.586340 25 144 52
-0.357141 0.223056 0.508353 -0.011663 -0.657919 0.752999 126 43 223
0.116788 -0.141982 0.616017 -0.580222 0.258328 -0.772405 53 160 29
0.431242 0.105400 -0.605321 -0.955811 -0.293347 -0.019298 5 90 125
0.440652 -0.065547 -0.138561 -0.941162 0.336960 -0.025915 7 170 124
0.183909 -0.236280 -0.395487 0.701458 0.691405 -0.172960 216 215 105
-0.788719 -0.022377 0.410952 0.991381 0.125292 0.038276 253 143 132
0.091812 -0.104280 0.647959 -0.581102 0.296065 -0.758068 53 165 30
-0.583562 0.113463 0.360067 -0.449688 -0.439883 0.777357 70 71 226
0.102103 0.260278 -0.850763 -0.009863 -0.997193 0.074217 126 0 136
0.091519 0.097143 0.060745 0.919379 -0.392580 0.024974 244 77 130
0.271014 -0.260545 -0.153306 -0.292703 0.956181 -0.006526 90 249 126
0.163500 -0.021381 -1.011016 -0.500528 0.195353 0.843392 63 152 235
-0.210551 0.229003 0.621956 -0.003495 -0.854057 -0.520167 127 18 61
0.065149 0.056411 -0.427717 0.796688 -0.331286 -0.505507 229 85 63
0.081659 -0.214037 -0.973125 -0.194083 0.584334 0.787963 102 202 227
-0.055266 0.010902 -0.633599 0.904747 -0.085860 -0.417207 242 116 74
0.115777 0.166543 0.126122 0.719523 -0.626960 0.298676 219 47 165
-0.780030 0.043923 0.339339 0.761741 -0.291492 0.578605 224 90 201
0.124162 -0.187714 0.147115 0.773613 0.553988 0.307604 226 198 166
0.023579 0.067295 -0.501301 0.873558 -0.014205 -0.486512 238 125 65
0.182876 0.227158 -0.329934 0.718291 -0.695707 0.007107 219 38 128
0.154897 0.218133 -0.876501 -0.618700 -0.771381 0.148938 48 29 146
0.167304 0.249342 0.200027 0.687757 -0.688404 0.230412 215 39 156
-0.071739 0.043560 -1.054325 0.534590 0.158225 0.830167 195 147 233
0.454206 0.012671 -0.675781 -0.999586 -0.025158 -0.013945 0 124 125
-0.095073 0.015130 -0.924460 0.983469 -0.177641 -0.035098 252 104 123
0.303130 -0.250533 -0.126777 -0.292703 0.956181 -0.006526 90 249 126
-0.629156 -0.254641 0.507257 0.237423 0.970671 0.037792 157 251 132
0.180390 0.229048 0.001796 0.610427 -0.791457 0.031221 205 26 131
-0.102693 0.120631 0.438860 0.683198 -0.149525 0.714761 214 108 218
-0.629007 0.246676 0.560067 0.387144 -0.848767 -0.360160 176 19 81
0.316595 0.208977 0.271573 -0.611490 -0.739854 -0.280526 49 33 91
0.096197 -0.194844 0.211379 0.562473 0.698782 0.441959 199 216 183
0.249659 -0.164086 -0.736004 -0.720768 0.421551 0.550262 35 181 197
0.074259 -0.050195 -0.114962 0.981987 0.179476 0.059073 252 150 135
-0.447200 -0.228713 0.509871 -0.314705 0.836729 0.448158 87 234 184
-0.254054 -0.211860 0.511697 0.064420 0.582348 0.810383 135 201 230
0.105562 0.132254 -0.403732 0.904417 -0.376399 -0.200881 242 79 101
-0.574174 0.075788 0.702737 -0.019730 -0.154422 -0.987808 124 107 1
0.036614 -0.180587 -0.559919 0.814983 0.392359 -0.426447 231 177 73
-0.679167 -0.131379 0.313900 0.056495 0.689623 0.721962 134 215 219
0.447538 0.013012 -0.140033 -0.999830 0.015086 -0.010620 0 129 126
-0.375155 0.012833 0.441068 -0.251336 0.034729 0.967277 95 131 250
-0.039428 -0.175163 -0.883859 0.843342 0.529866 0.089533 235 195 138
0.145164 0.189889 -0.222245 0.852173 -0.522867 0.020275 236 60 130
0.057913 -0.226285 -0.602374 0.633764 0.720880 -0.280491 208 219 91
0.034891 0.146556 -0.533753 0.790031 -0.329590 -0.516934 228 85 61
0.394647 0.149894 0.077034 -0.864440 -0.502020 -0.026826 17 63 124
0.142368 -0.181910 -0.359988 0.717217 0.661792 -0.218243 218 211 99
0.210083 0.145641 -0.875340 -0.871982 -0.470693 0.134515 16 67 144
0.242434 -0.264306 -0.568884 -0.049212 0.993797 -0.099733 121 254 114
0.082881 -0.261649 -0.831588 0.006626 0.995740 0.091972 128 254 139
-0.062429 -0.158567 0.682345 0.017105 0.467409 -0.883876 129 187 14
0.070737 -0.059438 0.047991 0.909520 0.414508 0.030921 243 180 131
0.398335 0.090726 0.245327 -0.922605 -0.267853 -0.277586 9 93 92
-0.347523 0.049954 0.705648 0.007414 -0.563679 -0.825960 128 55 22
0.428607 0.083604 -0.140948 -0.943024 -0.332374 -0.015248 7 85 125
-0.095476 -0.001519 -0.874620 0.992844 0.118745 -0.012648 254 142 125
0.010844 -0.110804 0.257823 0.779946 0.384681 0.493665 226 176 190
0.075411 0.241307 0.509546 -0.347456 -0.823108 -0.449186 83 22 70
0.235406 0.253921 -0.095535 0.262225 -0.964973 0.008054 160 4 128
0.385950 0.171477 -0.046605 -0.864440 -0.502020 -0.026826 17 63 124
0.182154 -0.204677 -0.888359 -0.783812 0.580624 0.220262 27 201 155
-0.088779 0.057508 0.387560 0.921168 -0.192594 0.338166 244 102 170
0.111949 -0.137414 -0.120594 0.910203 0.413021 0.030722 243 180 131
0.435678 -0.093250 -0.321116 -0.934369 0.355484 -0.024193 8 172 124
0.321294 0.210630 0.256970 -0.611490 -0.739854 -0.280526 49 33 91
-0.614374 -0.253212 0.581883 0.221696 0.762134 -0.608279 155 224 49
0.434714 0.083313 -0.441516 -0.955811 -0.293347 -0.019298 5 90 125
-0.086035 -0.240352 0.559334 -0.034178 0.960873 0.274873 123 250 162
-0.744801 0.174640 0.550654 0.924530 -0.362681 -0.117075 245 81 112
0.138329 0.178950 -0.978878 -0.498179 -0.432897 0.751277 63 72 223
0.060436 -0.255555 -0.745215 0.177125 0.983134 -0.045555 150 252 121
0.436620 -0.101204 -0.474387 -0.934369 0.355484 -0.024193 8 172 124
0.241114 0.257427 -0.133648 0.455421 -0.889920 -0.025178 185 14 124
0.070623 -0.011861 -0.122083 0.989370 -0.139988 0.039361 253 109 132
0.435524 0.067329 -0.214012 -0.943024 -0.332374 -0.015248 7 85 125
0.207743 -0.240323 0.387370 -0.317331 0.907331 -0.275772 87 243 92
0.079950 0.248480 -0.620008 0.647761 -0.684973 -0.333493 210 40 84
-0.063534 0.020302 0.705490 -0.044874 -0.185501 -0.981619 121 103 2
0.091006 0.068129 -0.326818 0.987455 -0.152520 0.040874 253 108 132
-0.677598 0.012964 0.275503 0.028897 0.070456 0.997096 131 136 254
0.186762 0.256711 -0.700028 -0.495234 -0.799853 0.339086 64 25 170
0.091718 0.188101 -0.481339 0.688627 -0.582644 -0.431646 215 53 72
0.033043 0.250846 -0.793817 0.379419 -0.924430 -0.038355 175 9 122
-0.638360 -0.185198 0.647273 0.034133 0.570980 -0.820254 131 200 22
-0.704266 0.046041 0.282258 0.230807 -0.194555 0.953350 156 102 249
-0.017702 0.142690 0.688734 -0.010920 -0.034015 -0.999362 126 123 0
0.287272 0.254130 -0.510386 -0.419342 -0.907734 -0.013062 74 11 125
-0.266975 0.137735 0.690651 0.004282 -0.522575 -0.852583 128 60 18
0.072561 -0.003716 -0.141813 0.989370 -0.139988 0.039361 253 109 132
-0.365841 -0.204088 0.498397 -0.188000 0.864100 0.466891 103 237 187
0.440002 -0.067785 -0.144034 -0.941162 0.336960 -0.025915 7 170 124
0.351944 -0.231454 0.119440 -0.663861 0.734241 -0.142054 42 221 109
0.082255 0.123357 0.138144 0.841657 -0.337066 0.421900 234 84 181
0.224415 -0.033470 -0.969930 -0.849266 0.021511 0.527526 19 130 194
0.289073 0.205495 -0.664776 -0.366221 -0.470776 0.802653 80 67 229
0.416135 -0.136044 -0.207692 -0.927168 0.373895 -0.023727 9 175 124
-0.095793 -0.004776 -0.930044 0.992844 0.118745 -0.012648 254 142 125
0.274658 0.260949 -0.579353 -0.419342 -0.907734 -0.013062 74 11 125
-0.542758 -0.153711 0.408448 -0.375785 0.533038 0.758061 79 195 224
0.253193 -0.230599 0.356859 -0.431624 0.845748 -0.313705 72 235 87
-0.717420 -0.212935 0.490210 0.494922 0.866490 -0.065180 190 237 119
-0.621812 0.213302 0.633878 0.248345 -0.797583 -0.549715 159 25 57
0.160275 -0.009504 0.613229 -0.639686 -0.346481 -0.686114 45 83 40
0.317380 0.127244 0.376420 -0.788789 -0.432137 -0.437115 26 72 71
-0.575306 0.246633 0.605811 -0.017581 -0.812367 -0.582881 125 23 53
0.159458 -0.127889 -0.983992 -0.535715 0.275229 0.798285 59 162 229
-0.396614 -0.242949 0.573831 0.029093 0.861567 -0.506809 131 237 62
-0.322483 0.219780 0.637851 -0.003495 -0.854057 -0.520167 127 18 61
0.082718 0.035597 -0.247989 0.987455 -0.152520 0.040874 253 108 132
-0.521767 0.068806 0.702782 -0.019730 -0.154422 -0.987808 124 107 1
0.100699 -0.233189 -0.941315 -0.204085 0.823799 0.528870 101 232 194
0.386267 -0.177934 0.156941 -0.823299 0.524512 -0.216946 22 194 99
-0.111526 -0.006585 0.712826 -0.045154 -0.225591 -0.973175 121 98 3
-0.587598 0.136741 0.370905 -0.449688 -0.439883 0.777357 70 71 226
-0.490080 -0.256944 0.553983 -0.093638 0.964169 -0.248215 115 250 95
-0.030412 -0.203618 -0.764637 0.575132 0.817576 -0.028153 200 231 123
-0.398082 -0.188090 0.483225 -0.102931 0.562223 0.820555 114 199 232
-0.606764 -0.187142 0.399453 -0.391368 0.528784 0.753140 77 194 223
-0.365849 -0.065149 0.707420 0.017699 0.253926 -0.967062 129 159 4
0.107152 -0.142481 0.108430 0.773613 0.553988 0.307604 226 198 166
-0.215629 -0.166476 0.479874 0.046647 0.519079 0.853453 133 193 236
-0.467633 -0.133746 0.423870 -0.326030 0.479986 0.814443 85 188 231
-0.060135 0.092437 -0.711665 0.955450 -0.283581 -0.081838 249 91 117
-0.454613 -0.236478 0.581502 0.029093 0.861567 -0.506809 131 237 62
-0.758474 -0.115108 0.361801 0.856798 0.478180 0.192976 236 188 152
-0.684153 0.236648 0.514112 0.509081 -0.860125 0.031962 192 17 131
-0.127888 0.076727 0.693676 -0.019730 -0.154422 -0.987808 124 107 1
0.124915 -0.204364 0.182395 0.716821 0.650616 0.250732 218 210 159
-0.531578 0.075813 0.701882 -0.019730 -0.154422 -0.987808 124 107 1
0.097297 -0.119161 0.067363 0.909520 0.414508 0.030921 243 180 131
-0.047718 0.088369 0.690911 -0.010920 -0.034015 -0.999362 126 123 0
0.119100 0.236684 -0.919357 -0.636008 -0.737282 0.227838 46 33 156
0.012865 0.095359 0.690011 -0.010920 -0.034015 -0.999362 126 123 0
-0.052790 0.141749 -0.971757 0.848340 -0.476742 0.230297 235 66 156
0.082187 -0.261218 -0.682173 0.235596 0.971464 0.027437 157 251 130
-0.349909 -0.171691 0.668678 0.034133 0.570980 -0.820254 131 200 22
0.039974 0.244140 0.540605 -0.021144 -0.977652 -0.209164 124 2 100
0.394754 0.089405 -0.685421 -0.358282 -0.477240 0.802419 81 66 229
0.313874 -0.221115 -0.609461 -0.462408 0.817878 0.342425 68 231 171
0.163836 -0.231121 0.150934 0.606606 0.742776 0.283396 204 222 163
-0.351256 0.249834 0.534033 -0.101686 -0.941793 0.320447 114 7 168
-0.382852 0.195292 0.490904 -0.023024 -0.319938 0.947159 124 86 248
-0.327330 0.167314 0.482539 -0.041265 -0.363232 0.930785 122 81 246
0.129543 0.081060 -1.024158 -0.509588 -0.177855 0.841836 62 104 234
0.211197 0.248981 0.100845 0.262225 -0.964973 0.008054 160 4 128
-0.719357 0.113654 0.631447 0.545099 -0.520068 -0.657568 197 61 43
-0.080355 -0.095450 -0.802923 0.977628 0.208377 0.028694 252 154 131
0.242207 0.256332 0.200035 0.031919 -0.994504 -0.099719 131 0 114
-0.054152 0.053266 -0.639903 0.904747 -0.085860 -0.417207 242 116 74
0.149547 0.222041 0.170930 0.670726 -0.702087 0.239165 213 37 157
0.074314 0.054071 0.023977 0.987455 -0.152520 0.040874 253 108 132
0.066978 -0.253217 -0.656207 0.312066 0.943378 -0.112486 167 247 113
0.036211 0.136147 0.232200 0.664405 -0.538943 0.517789 212 58 193
0.030943 0.044330 0.696630 -0.044874 -0.185501 -0.981619 121 103 2
0.214070 0.193397 0.453552 -0.623492 -0.587145 -0.516254 48 52 61
-0.003910 -0.184268 0.345598 0.654812 0.648935 0.387433 210 210 176
0.037026 0.057220 0.168632 0.803586 -0.387074 0.452132 229 78 185
-0.023149 0.053526 0.697365 -0.044874 -0.185501 -0.981619 121 103 2
0.083605 -0.228002 -0.554100 0.619041 0.714172 -0.326720 206 218 85
-0.422575 0.059649 0.430676 -0.424876 -0.261172 0.866758 73 94 238
0.044801 0.049697 0.148373 0.803586 -0.387074 0.452132 229 78 185
-0.478088 0.198675 0.465321 -0.236974 -0.684450 0.689472 97 40 215
0.250049 0.051041 -0.909272 -0.910471 -0.203480 0.360054 11 101 173
0.438182 -0.089765 -0.366628 -0.934369 0.355484 -0.024193 8 172 124
0.322443 -0.243906 -0.021995 -0.292703 0.956181 -0.006526 90 249 126
0.351643 0.222985 0.094981 -0.864440 -0.502020 -0.026826 17 63 124
-0.024111 0.212167 0.643300 -0.185877 -0.830913 -0.524436 103 21 60
-0.633659 -0.206627 0.413585 -0.104874 0.901939 0.418936 114 242 180
-0.647024 -0.146951 0.347345 -0.487347 0.578983 0.653660 65 201 210
0.137542 0.274909 -0.662976 -0.131401 -0.986156 0.101146 110 1 140
0.047199 0.025324 -0.457663 0.873558 -0.014205 -0.486512 238 125 65
0.301522 0.218003 0.280624 -0.611490 -0.739854 -0.280526 49 33 91
-0.356705 -0.110937 0.696272 0.014416 0.232836 -0.972409 129 157 3
0.014509 -0.236887 -0.839707 0.667726 0.739188 0.087996 212 221 138
-0.638155 -0.253025 0.522290 0.237423 0.970671 0.037792 157 251 132
0.285740 0.256464 -0.388456 -0.378078 -0.925621 0.016828 79 9 129
-0.046035 -0.097953 0.343805 0.823815 0.356126 0.441026 232 172 183
-0.756846 -0.059443 0.614043 0.772230 0.097656 -0.627793 225 139 47
-0.535347 0.250106 0.493410 -0.100775 -0.878835 0.466361 114 15 186
0.426504 -0.090827 -0.686333 -0.378147 0.558687 0.738156 79 198 221
0.068426 0.256815 -0.710644 0.263949 -0.961491 0.076590 161 4 137
0.210302 0.252396 0.135154 0.235077 -0.964881 0.117229 157 4 142
0.455656 -0.054874 -0.657829 -0.999586 -0.025158 -0.013945 0 124 125
-0.187681 -0.134512 0.692641 0.017105 0.467409 -0.883876 129 187 14
-0.568424 0.105019 0.363119 -0.407828 -0.450740 0.794046 75 70 228
-0.249291 0.070476 0.459271 -0.040808 -0.183820 0.982112 122 104 252
0.212167 -0.265017 -0.646680 -0.164984 0.979919 0.111982 106 252 141
0.001861 -0.002521 0.213985 0.870816 0.036555 0.490248 238 132 190
-0.620361 0.247502 0.459155 0.246860 -0.958513 0.142522 158 5 145
0.095148 0.087982 -0.216875 0.919379 -0.392580 0.024974 244 77 130
0.087596 -0.251690 -0.911498 0.175501 0.928809 0.326365 149 245 169
0.060729 -0.030820 0.059180 0.989370 -0.139988 0.039361 253 109 132
-0.647806 0.037762 0.711274 0.007414 -0.563679 -0.825960 128 55 22
-0.077058 0.060339 -0.796812 0.954294 -0.287443 -0.081848 249 90 117
0.178116 -0.227217 0.063994 0.606114 0.795364 0.004610 204 228 128
0.109843 0.152698 -0.420726 0.795285 -0.332481 -0.506931 228 85 62
0.449162 -0.023125 -0.249596 -0.999586 -0.025158 -0.013945 0 124 125
-0.626291 -0.109667 0.329778 -0.487347 0.578983 0.653660 65 201 210
-0.021967 -0.075960 0.282510 0.779946 0.384681 0.493665 226 176 190
0.194136 -0.143052 -0.955493 -0.535715 0.275229 0.798285 59 162 229
0.264254 0.003784 -0.829587 -0.991580 -0.051629 0.118762 1 120 142
-0.049107 0.024397 -0.623019 0.904747 -0.085860 -0.417207 242 116 74
0.274168 0.263542 -0.093667 -0.298063 -0.954543 0.002302 89 5 127
0.032426 -0.023917 -0.480155 0.860869 -0.034862 -0.507631 237 123 62
0.125473 0.227376 0.231637 0.563499 -0.719180 0.406509 199 35 179
0.420552 -0.125105 -0.207941 -0.927168 0.373895 -0.023727 9 175 124
-0.075585 -0.059336 -0.990567 0.936879 0.181300 0.298978 246 150 165
-0.770970 -0.076234 0.590717 0.944650 0.326266 -0.034454 247 169 123
-0.406998 0.170581 0.672468 -0.028159 -0.353147 -0.935144 123 82 8
0.383052 -0.192191 -0.170740 -0.731260 0.681482 0.029000 34 214 131
-0.387590 -0.201759 0.644372 0.029093 0.861567 -0.506809 131 237 62
0.380477 -0.197661 -0.107154 -0.731260 0.681482 0.029000 34 214 131
0.031834 -0.248259 -0.875648 0.667726 0.739188 0.087996 212 221 138
0.400875 -0.009128 0.294539 -0.871220 -0.110631 -0.478263 16 113 66
0.067655 0.020514 0.067676 0.989370 -0.139988 0.039361 253 109 132
0.261400 -0.263957 -0.387337 -0.394328 0.918826 0.016255 77 244 129
-0.521186 -0.221435 0.467741 -0.246773 0.737414 0.628748 96 221 207
0.091459 -0.089321 -0.381311 0.920591 0.353613 -0.165739 244 172 106
0.227799 -0.262219 -0.498158 0.115219 0.993216 0.015692 142 254 129
0.063605 0.181137 -0.519863 0.640805 -0.675650 -0.364507 209 41 81
0.089913 -0.103007 0.067987 0.909520 0.414508 0.030921 243 180 131
-0.544389 -0.078366 0.362623 -0.572501 0.088794 0.815082 54 138 231
0.440564 0.037714 0.119820 -0.943024 -0.332374 -0.015248 7 85 125
0.256082 0.007125 -0.918834 -0.910471 -0.203480 0.360054 11 101 173
-0.487905 0.153619 0.435376 -0.323480 -0.336788 0.884271 86 84 240
0.093457 -0.081269 -0.327670 0.909520 0.414508 0.030921 243 180 131
-0.197945 -0.208429 0.643920 0.029093 0.861567 -0.506809 131 237 62
-0.134037 -0.245668 0.571949 -0.034178 0.960873 0.274873 123 250 162
0.436298 -0.061959 0.066217 -0.941162 0.336960 -0.025915 7 170 124
0.344013 -0.217634 -0.557253 -0.731260 0.681482 0.029000 34 214 131
-0.714664 -0.124861 0.316265 0.192077 0.600600 0.776135 151 204 226
0.182585 0.265868 0.347840 -0.133538 -0.973178 -0.187332 110 3 103
-0.509498 -0.006743 0.379327 -0.572501 0.088794 0.815082 54 138 231
0.412363 -0.149376 -0.437772 -0.731260 0.681482 0.029000 34 214 131
0.325758 0.238752 -0.463613 -0.378078 -0.925621 0.016828 79 9 129
0.039602 -0.205200 -0.589556 0.633764 0.720880 -0.280491 208 219 91
0.040003 0.098024 -1.049850 -0.054735 -0.415853 0.907783 120 74 243
0.217838 -0.137602 -0.912987 -0.847298 0.432821 0.307819 19 182 166
0.239873 0.269757 -0.446724 0.280388 -0.945655 -0.164681 163 6 106
0.282589 0.060816 0.472971 -0.774080 -0.045264 -0.631468 28 121 46
0.066475 0.123365 0.169630 0.841657 -0.337066 0.421900 234 84 181
0.176798 0.224224 -0.377002 0.677944 -0.731224 -0.075527 213 34 117
-0.248716 0.123828 0.691900 -0.010920 -0.034015 -0.999362 126 123 0
-0.043765 -0.091966 0.334732 0.823815 0.356126 0.441026 232 172 183
0.132679 -0.268794 -0.735394 -0.168036 0.980006 0.106545 106 252 141
-0.667143 0.238203 0.477648 0.246860 -0.958513 0.142522 158 5 145
0.356022 -0.104323 0.339781 -0.762790 0.446552 -0.467699 30 184 67
0.188930 -0.097957 -0.974534 -0.535715 0.275229 0.798285 59 162 229
0.055302 0.200590 -0.991295 -0.042663 -0.518058 0.854281 122 61 236
-0.573804 -0.173610 0.407049 -0.375785 0.533038 0.758061 79 195 224
-0.046554 0.231600 0.610430 -0.064100 -0.898339 -0.434601 119 12 72
-0.357787 0.251355 0.592670 -0.017581 -0.812367 -0.582881 125 23 53
0.227738 0.125453 -0.831534 -0.871982 -0.470693 0.134515 16 67 144
-0.034336 0.048884 0.279679 0.863356 -0.134503 0.486339 237 110 189
-0.020194 -0.175040 0.358063 0.830282 0.361049 0.424588 233 173 181
-0.775758 0.111952 0.417514 0.951279 -0.301568 -0.064234 248 89 119
0.391598 0.188338 -0.544158 -0.864440 -0.502020 -0.026826 17 63 124
0.148885 -0.190739 -0.171214 0.776888 0.628904 0.030410 226 207 131
-0.712112 0.211060 0.395256 0.711140 -0.681752 0.171739 218 40 149
0.064623 -0.259019 0.384954 0.296206 0.929206 0.220992 165 245 155
0.436819 0.029692 0.201760 -0.766979 -0.386108 -0.512507 29 78 62
-0.254275 0.199546 0.495467 -0.023024 -0.319938 0.947159 124 86 248
0.327589 0.036554 0.417749 -0.872450 -0.107784 -0.476669 16 113 66
0.449968 0.047596 -0.654102 -0.955811 -0.293347 -0.019298 5 90 125
0.304742 -0.243383 -0.529222 -0.425835 0.904801 0.000357 73 242 127
-0.380137 -0.127347 0.691996 0.014416 0.232836 -0.972409 129 157 3
0.359783 0.208727 0.148901 -0.877448 -0.478151 0.038165 15 66 132
-0.648804 -0.235933 0.472888 -0.104874 0.901939 0.418936 114 242 180
0.143429 -0.162702 0.572630 -0.655401 0.477379 -0.585286 43 188 52
0.306198 -0.245934 -0.319283 -0.394328 0.918826 0.016255 77 244 129
-0.274928 -0.212425 0.632707 0.029093 0.861567 -0.506809 131 237 62
-0.390059 -0.187411 0.483767 -0.102931 0.562223 0.820555 114 199 232
-0.299766 0.208396 0.497350 -0.023024 -0.319938 0.947159 124 86 248
0.452193 0.000345 -0.509243 -0.999586 -0.025158 -0.013945 0 124 125
0.326993 -0.240550 -0.119190 -0.394328 0.918826 0.016255 77 244 129
0.430483 0.107074 -0.593170 -0.955811 -0.293347 -0.019298 5 90 125
0.170996 0.218785 -0.074707 0.610427 -0.791457 0.031221 205 26 131
0.192148 -0.185237 -0.898436 -0.782842 0.547658 0.295346 27 197 165
-0.049685 0.141185 -0.758576 0.955450 -0.283581 -0.081838 249 91 117
0.297137 0.251711 -0.393827 -0.378078 -0.925621 0.016828 79 9 129
-0.026490 0.198803 -0.899970 0.902487 -0.430593 -0.010358 242 72 126
0.045257 0.211841 0.315056 0.566275 -0.712539 0.414272 199 36 180
-0.544768 0.072248 0.366153 -0.590604 -0.285686 0.754699 52 91 223
0.090709 0.071679 0.643182 -0.618108 -0.167565 -0.768027 48 106 29
0.041000 -0.248414 -0.892688 0.386567 0.859242 0.335066 176 237 170
0.202864 0.210721 0.446322 -0.629933 -0.618799 -0.469331 47 48 67
0.123206 0.243494 -0.876797 -0.618700 -0.771381 0.148938 48 29 146
0.234405 -0.235639 -0.685718 -0.497378 0.789605 0.359359 64 228 173
0.358849 -0.202978 -0.527570 -0.731260 0.681482 0.029000 34 214 131
0.427715 0.096994 -0.302850 -0.955811 -0.293347 -0.019298 5 90 125
0.041407 0.133763 -0.515639 0.790031 -0.329590 -0.516934 228 85 61
-0.051296 0.147983 -0.840554 0.890682 -0.454480 -0.011586 241 69 126
-0.635399 0.107221 0.321410 -0.547006 -0.496979 0.673644 57 64 213
0.229718 0.074099 -0.941747 -0.882179 -0.303722 0.359878 15 88 173
-0.624390 -0.191457 0.643497 0.034133 0.570980 -0.820254 131 200 22
0.108013 0.133732 0.028702 0.919379 -0.392580 0.024974 244 77 130
0.068517 0.010177 0.009237 0.989370 -0.139988 0.039361 253 109 132
-0.099552 -0.201230 0.658534 0.034133 0.570980 -0.820254 131 200 22
-0.001118 0.021373 -1.070407 -0.191749 -0.030421 0.980973 103 123 252
0.001514 0.210186 0.372003 0.566275 -0.712539 0.414272 199 36 180
0.353393 -0.218794 -0.293484 -0.731260 0.681482 0.029000 34 214 131
0.099606 0.257727 0.332723 0.328825 -0.913000 0.241464 169 11 158
0.149191 0.222733 0.486511 -0.347456 -0.823108 -0.449186 83 22 70
-0.447879 0.073569 0.422466 -0.424876 -0.261172 0.866758 73 94 238
0.352113 -0.192431 -0.623806 -0.623020 0.739832 0.253959 48 221 159
-0.027672 0.015254 0.704804 -0.044874 -0.185501 -0.981619 121 103 2
0.211507 0.224657 0.415393 -0.471700 -0.807704 -0.353714 67 24 82
-0.716536 0.078948 0.661236 0.545099 -0.520068 -0.657568 197 61 43
0.159547 0.196213 -0.927794 -0.720102 -0.626001 0.299292 35 47 165
0.208662 -0.264657 -0.555714 -0.049212 0.993797 -0.099733 121 254 114
-0.002364 0.138607 -1.031763 -0.042663 -0.518058 0.854281 122 61 236
-0.006067 0.184087 -0.986296 0.481940 -0.736604 0.474498 188 33 187
0.102678 -0.166407 -1.003269 -0.194083 0.584334 0.787963 102 202 227
0.016704 0.202075 -0.648158 0.660591 -0.676916 -0.324661 211 41 86
-0.620963 -0.100145 0.694939 0.014416 0.232836 -0.972409 129 157 3
-0.013943 0.164298 -1.009017 0.481940 -0.736604 0.474498 188 33 187
-0.389308 0.255003 0.585839 -0.025176 -0.964427 -0.263147 124 4 93
0.428492 0.077651 -0.004065 -0.943024 -0.332374 -0.015248 7 85 125
-0.736070 0.189353 0.408289 0.711140 -0.681752 0.171739 218 40 149
0.121399 -0.148804 -0.348556 0.912139 0.366176 -0.184170 243 174 104
-0.500315 0.104443 0.412107 -0.323480 -0.336788 0.884271 86 84 240
0.182464 0.075851 0.568120 -0.610173 -0.238746 -0.755440 49 97 31
0.399402 0.099444 0.231998 -0.862153 -0.407225 -0.301430 17 75 89
-0.775329 -0.079198 0.443134 0.944650 0.326266 -0.034454 247 169 123
0.376886 0.082675 0.313099 -0.788789 -0.432137 -0.437115 26 72 71
-0.193561 0.144540 0.686849 0.004282 -0.522575 -0.852583 128 60 18
0.090072 0.119785 -0.430157 0.795285 -0.332481 -0.506931 228 85 62
-0.200252 -0.149941 0.473710 0.165156 0.183187 0.969106 148 150 251
-0.293704 0.179734 0.665600 -0.028159 -0.353147 -0.935144 123 82 8
0.178256 -0.246847 0.161285 0.606606 0.742776 0.283396 204 222 163
0.129968 0.190178 0.141548 0.719523 -0.626960 0.298676 219 47 165
0.427045 0.020212 -0.701755 -0.362627 0.085038 0.928047 81 138 245
0.110101 -0.128649 -0.183681 0.910203 0.413021 0.030722 243 180 131
0.227751 0.265006 -0.440371 0.284759 -0.942750 -0.173593 163 7 105
-0.266316 -0.217116 0.625228 0.029093 0.861567 -0.506809 131 237 62
0.265059 -0.038740 -0.839402 -0.980858 0.159005 0.112408 2 147 141
-0.389710 0.255107 0.537329 -0.101686 -0.941793 0.320447 114 7 168
0.245727 0.262951 -0.245427 0.455421 -0.889920 -0.025178 185 14 124
0.269996 0.186458 -0.693427 -0.767207 -0.364397 0.527833 29 81 194
0.169416 0.239584 -0.769153 -0.479243 -0.828945 0.288403 66 21 164
-0.346428 0.013716 0.719666 -0.044874 -0.185501 -0.981619 121 103 2
0.417704 0.123634 -0.301902 -0.904747 -0.425557 -0.018252 12 73 125
-0.330266 0.012130 0.719227 -0.044874 -0.185501 -0.981619 121 103 2
0.053871 -0.251022 -0.895265 0.175501 0.928809 0.326365 149 245 169
0.363177 -0.221013 0.043321 -0.677468 0.735176 0.023520 41 221 130
0.090824 0.173874 0.198362 0.680364 -0.518426 0.518015 214 61 193
-0.218389 0.043201 0.708242 -0.044874 -0.185501 -0.981619 121 103 2
0.155471 0.200815 -0.226690 0.610427 -0.791457 0.031221 205 26 131
0.252165 -0.257934 0.164006 0.110006 0.993198 0.038162 141 254 132
0.360923 0.217487 -0.343706 -0.624179 -0.781135 0.015129 47 27 129
-0.085984 0.031622 -1.007504 0.973055 -0.156510 0.169315 251 107 149
-0.639875 0.181501 0.365991 -0.449688 -0.439883 0.777357 70 71 226
-0.041676 0.168383 -0.901291 0.890682 -0.454480 -0.011586 241 69 126
-0.043430 0.107925 -0.649153 0.849125 -0.386925 -0.359550 235 78 81
0.174497 0.213302 -0.836250 -0.479243 -0.828945 0.288403 66 21 164
0.297940 0.255149 0.148532 -0.303212 -0.951894 -0.044273 88 6 121
0.241642 0.262284 0.254767 -0.223891 -0.969843 -0.096320 98 3 115
0.382013 -0.176745 -0.559909 -0.731260 0.681482 0.029000 34 214 131
-0.797473 0.015966 0.453975 0.900838 0.429711 0.061965 242 182 135
0.355871 0.217286 0.193047 -0.860044 -0.420538 -0.288916 17 73 90
-0.661510 -0.244893 0.489224 -0.086644 0.904270 0.418077 116 242 180
0.049828 0.061975 0.680107 -0.639686 -0.346481 -0.686114 45 83 40
0.398098 0.142087 0.111939 -0.864440 -0.502020 -0.026826 17 63 124
-0.437877 0.265077 0.551345 -0.101686 -0.941793 0.320447 114 7 168
0.196576 -0.269876 -0.627132 -0.164984 0.979919 0.111982 106 252 141
-0.383423 -0.066623 0.440751 -0.326752 0.285510 0.900953 85 163 242
0.452721 -0.042648 -0.469496 -0.999586 -0.025158 -0.013945 0 124 125
-0.250208 0.134965 0.473334 -0.041265 -0.363232 0.930785 122 81 246
-0.308514 0.217868 0.640897 -0.003495 -0.854057 -0.520167 127 18 61
0.085536 0.095931 -1.040363 -0.220971 -0.164728 0.961268 99 106 250
0.047527 0.126551 0.667946 -0.750514 -0.041536 -0.659548 31 122 43
0.263636 0.266532 -0.217483 -0.298063 -0.954543 0.002302 89 5 127
-0.227808 -0.078725 0.459257 -0.063698 0.111565 0.991714 119 141 253
-0.014836 -0.110080 0.297832 0.779946 0.384681 0.493665 226 176 190
-0.718893 -0.217108 0.422457 0.897017 0.403190 0.181103 241 178 150
-0.593383 -0.264231 0.528831 0.237423 0.970671 0.037792 157 251 132
-0.081201 0.089496 0.385137 0.921168 -0.192594 0.338166 244 102 170
0.136787 -0.265570 0.315774 0.296206 0.929206 0.220992 165 245 155
0.367565 0.062853 -0.713353 -0.358282 -0.477240 0.802419 81 66 229
-0.071103 0.158363 0.420211 0.775505 -0.467308 0.424518 226 67 181
0.450133 -0.029247 -0.308200 -0.999586 -0.025158 -0.013945 0 124 125
0.063375 0.256324 -0.764048 0.151438 -0.987314 -0.047731 146 1 121
0.289994 0.146417 0.406884 -0.788789 -0.432137 -0.437115 26 72 71
0.044221 -0.160374 -0.526785 0.814983 0.392359 -0.426447 231 177 73
-0.402701 -0.004390 0.725827 -0.045154 -0.225591 -0.973175 121 98 3
-0.233606 0.116339 0.468101 -0.062156 -0.149645 0.986784 119 108 253
0.163578 -0.105241 0.593157 -0.580222 0.258328 -0.772405 53 160 29
-0.242868 0.067178 0.458921 -0.040808 -0.183820 0.982112 122 104 252
0.159665 -0.268629 0.297969 0.296206 0.929206 0.220992 165 245 155
0.269225 -0.261249 -0.176148 -0.292703 0.956181 -0.006526 90 249 126
0.176307 -0.267827 -0.571333 -0.049212 0.993797 -0.099733 121 254 114
0.296927 0.255598 -0.184739 -0.378078 -0.925621 0.016828 79 9 129
-0.725550 -0.097166 0.635973 0.588143 0.404321 -0.700437 202 179 38
-0.462663 0.037897 0.712843 0.007414 -0.563679 -0.825960 128 55 22
-0.412124 0.262026 0.550550 -0.101686 -0.941793 0.320447 114 7 168
0.362693 0.133911 -0.673266 -0.358282 -0.477240 0.802419 81 66 229
0.340828 -0.230797 -0.294613 -0.677468 0.735176 0.023520 41 221 130
-0.471724 -0.222258 0.604695 0.029093 0.861567 -0.506809 131 237 62
0.114224 -0.207237 0.556516 -0.427997 0.784205 -0.449268 72 227 70
0.246600 0.261362 -0.173495 0.455421 -0.889920 -0.025178 185 14 124
0.098499 0.115621 0.094233 0.919379 -0.392580 0.024974 244 77 130
-0.032229 -0.150490 0.360721 0.830282 0.361049 0.424588 233 173 181
0.337211 0.231671 0.194669 -0.465920 -0.874075 -0.137517 68 16 109
0.071458 0.253896 -0.904842 0.161050 -0.929799 0.330964 148 8 169
-0.771564 -0.095541 0.423109 0.967684 0.247971 -0.045795 250 159 121
0.126909 0.082296 -1.025491 -0.509588 -0.177855 0.841836 62 104 234
0.133557 -0.213669 -0.954434 -0.497121 0.800723 0.334237 64 229 170
-0.009046 0.075473 0.691498 -0.019730 -0.154422 -0.987808 124 107 1
0.326344 0.247601 0.051909 -0.298063 -0.954543 0.002302 89 5 127
-0.113711 -0.232733 0.529262 -0.034178 0.960873 0.274873 123 250 162
0.138888 -0.177586 -0.187835 0.776888 0.628904 0.030410 226 207 131
0.070376 -0.018875 -0.140800 0.989370 -0.139988 0.039361 253 109 132
0.039152 0.115115 -0.507161 0.796688 -0.331286 -0.505507 229 85 63
0.443957 0.048949 -0.334919 -0.943024 -0.332374 -0.015248 7 85 125
-0.026056 -0.066929 0.281933 0.779946 0.384681 0.493665 226 176 190
-0.498060 -0.119763 0.692063 0.014416 0.232836 -0.972409 129 157 3
0.361752 0.205431 0.097715 -0.864440 -0.502020 -0.026826 17 63 124
-0.222456 -0.002503 0.451026 -0.063698 0.111565 0.991714 119 141 253
0.218967 0.249150 -0.131880 0.262225 -0.964973 0.008054 160 4 128
0.228626 0.271549 -0.476165 0.280388 -0.945655 -0.164681 163 6 106
-0.505129 -0.253526 0.519031 -0.195230 0.937636 0.287617 102 247 164
0.119600 -0.144554 -0.251290 0.910203 0.413021 0.030722 243 180 131
-0.589511 -0.084303 0.334733 -0.487347 0.578983 0.653660 65 201 210
-0.649778 0.023976 0.289052 -0.548129 -0.025261 0.836012 57 124 234
-0.767453 0.062200 0.331989 0.761741 -0.291492 0.578605 224 90 201
0.171570 -0.221660 -0.034190 0.606114 0.795364 0.004610 204 228 128
0.083553 0.068944 -0.089293 0.919379 -0.392580 0.024974 244 77 130
0.129269 -0.162721 -0.228005 0.830936 0.556017 0.019739 233 198 130
0.202877 -0.247557 -0.391462 0.396775 0.897590 -0.192096 178 241 103
0.003537 0.016514 0.211082 0.854356 -0.043667 0.517851 236 121 193
0.064124 -0.030648 -0.425639 0.873558 -0.014205 -0.486512 238 125 65
-0.024244 -0.171360 -0.663941 0.677276 0.686039 -0.265796 213 214 93
-0.265857 -0.217623 0.516777 0.064420 0.582348 0.810383 135 201 230
-0.220047 0.139048 0.475863 -0.023024 -0.319938 0.947159 124 86 248
0.159927 0.203811 -0.296073 0.718291 -0.695707 0.007107 219 38 128
0.056404 0.203710 0.285510 0.563499 -0.719180 0.406509 199 35 179
0.451588 0.036306 -0.531231 -0.943024 -0.332374 -0.015248 7 85 125
-0.745902 -0.183975 0.486524 0.967684 0.247971 -0.045795 250 159 121
-0.724895 0.096819 0.640172 0.545099 -0.520068 -0.657568 197 61 43
-0.075640 0.054600 -0.760127 0.954294 -0.287443 -0.081848 249 90 117
-0.247279 0.237742 0.608309 -0.017581 -0.812367 -0.582881 125 23 53
0.287784 0.109528 0.441150 -0.705613 -0.394879 -0.588372 37 77 52
0.187016 -0.179212 0.510094 -0.597860 0.606481 -0.524161 51 204 60
-0.702467 0.102663 0.654141 0.545099 -0.520068 -0.657568 197 61 43
0.399331 0.166258 -0.384954 -0.904747 -0.425557 -0.018252 12 73 125
0.008724 -0.048542 0.209530 0.782399 0.407476 0.470973 227 179 187
-0.669917 0.228119 0.559824 0.387144 -0.848767 -0.360160 176 19 81
0.324606 0.206267 -0.632146 -0.461240 -0.761395 0.455560 68 30 185
0.089141 -0.054892 -0.348078 0.981987 0.179476 0.059073 252 150 135
0.164857 0.266335 0.281701 0.055531 -0.966168 0.251864 134 4 159
0.114321 -0.203295 -0.467929 0.501071 0.716163 -0.485839 191 218 65
0.081423 0.052212 0.655580 -0.639686 -0.346481 -0.686114 45 83 40
-0.595789 0.198928 0.663674 0.267770 -0.491861 -0.828476 161 64 21
0.284149 -0.240808 0.250113 -0.419394 0.899392 -0.123297 74 242 111
0.203520 0.133634 -0.943107 -0.864240 -0.473583 0.169733 17 67 149
0.195525 -0.167040 0.510756 -0.655401 0.477379 -0.585286 43 188 52
-0.089411 0.189111 0.466051 0.657602 -0.439385 0.611965 211 71 205
-0.776579 -0.028274 0.594618 0.772230 0.097656 -0.627793 225 139 47
-0.422870 -0.142264 0.448795 -0.479693 0.224175 0.848316 66 156 235
0.173953 0.172850 -0.942000 -0.720102 -0.626001 0.299292 35 47 165
0.082425 0.258578 0.439297 0.124530 -0.990720 -0.054459 143 1 120
0.190134 0.267267 -0.517110 0.280388 -0.945655 -0.164681 163 6 106
0.105226 0.120420 -0.077961 0.919379 -0.392580 0.024974 244 77 130
-0.401449 0.049315 0.436371 -0.249055 -0.219285 0.943338 95 99 247
-0.003429 -0.082704 -1.066685 -0.008394 0.560322 0.828233 126 198 233
-0.596829 0.183397 0.391967 -0.449688 -0.439883 0.777357 70 71 226
0.149553 0.261405 0.394573 -0.133538 -0.973178 -0.187332 110 3 103
0.255325 -0.264854 -0.229911 0.172660 0.984836 -0.016949 149 253 125
-0.765385 0.121362 0.526948 0.951279 -0.301568 -0.064234 248 89 119
0.148516 -0.159844 0.569265 -0.655401 0.477379 -0.585286 43 188 52
-0.018012 0.007928 -1.074126 -0.191749 -0.030421 0.980973 103 123 252
0.452727 -0.029936 -0.492885 -0.999586 -0.025158 -0.013945 0 124 125
0.106759 -0.193372 0.195610 0.562473 0.698782 0.441959 199 216 183
-0.727173 -0.165178 0.351029 0.749701 0.401646 0.525955 223 178 194
0.260637 0.001799 -0.910328 -0.910471 -0.203480 0.360054 11 101 173
0.420336 0.103910 -0.042496 -0.955811 -0.293347 -0.019298 5 90 125
0.450243 -0.000752 -0.367485 -0.999586 -0.025158 -0.013945 0 124 125
0.019457 -0.207523 -0.972695 0.386567 0.859242 0.335066 176 237 170
-0.399180 -0.154421 0.461118 -0.212939 0.265128 0.940406 100 161 247
0.173995 -0.017739 0.601468 -0.671863 0.055221 -0.738614 41 134 33
0.159478 0.275460 -0.608917 0.290960 -0.932303 -0.214832 164 8 100
0.110417 -0.140415 -0.034869 0.910203 0.413021 0.030722 243 180 131
-0.627816 -0.215401 0.617901 -0.125732 0.646884 -0.752152 111 209 31
0.151111 0.251236 0.238121 0.566275 -0.712539 0.414272 199 36 180
-0.443155 -0.149545 0.442979 -0.326030 0.479986 0.814443 85 188 231
-0.705671 -0.150074 0.622377 0.588732 0.400368 -0.702211 202 178 37
-0.636901 -0.064421 0.703256 0.014416 0.232836 -0.972409 129 157 3
0.111189 0.184305 0.174492 0.721553 -0.625061 0.297759 219 47 165
-0.069834 -0.191763 0.452627 0.582716 0.510382 0.632418 201 192 208
-0.765761 -0.021553 0.608971 0.772230 0.097656 -0.627793 225 139 47
0.115631 -0.105092 -1.020035 -0.500528 0.195353 0.843392 63 152 235
0.390540 -0.187837 -0.023704 -0.927168 0.373895 -0.023727 9 175 124
0.146126 0.198424 -0.401001 0.718896 -0.664262 -0.204801 219 42 101
0.428806 -0.080261 0.100354 -0.941162 0.336960 -0.025915 7 170 124
-0.208225 -0.001327 0.451808 -0.063698 0.111565 0.991714 119 141 253
-0.214882 0.189063 0.492883 -0.023024 -0.319938 0.947159 124 86 248
0.424026 -0.088736 0.163743 -0.941162 0.336960 -0.025915 7 170 124
0.076393 0.258837 -0.873546 -0.009863 -0.997193 0.074217 126 0 136
-0.082930 -0.207242 0.477186 0.582716 0.510382 0.632418 201 192 208
-0.668801 -0.237214 0.471103 -0.086644 0.904270 0.418077 116 242 180
0.061988 -0.036583 0.047664 0.981987 0.179476 0.059073 252 150 135
0.311052 0.051089 0.438778 -0.774080 -0.045264 -0.631468 28 121 46
0.323126 -0.242794 0.110234 -0.292703 0.956181 -0.006526 90 249 126
0.320932 0.010671 -0.737577 -0.318211 0.013419 0.947925 86 129 248
0.137136 -0.179079 -0.098421 0.830936 0.556017 0.019739 233 198 130
-0.019873 0.130692 0.689166 -0.010920 -0.034015 -0.999362 126 123 0
-0.699842 0.117191 0.310330 0.112240 -0.538798 0.834924 141 58 233
-0.214968 -0.074635 0.707691 0.017699 0.253926 -0.967062 129 159 4
-0.089873 -0.043854 -0.853312 0.977628 0.208377 0.028694 252 154 131
0.125099 0.042909 0.621783 -0.618108 -0.167565 -0.768027 48 106 29
0.074223 -0.258623 -0.863723 0.006626 0.995740 0.091972 128 254 139
0.398906 -0.173686 -0.127645 -0.927168 0.373895 -0.023727 9 175 124
0.419642 0.112752 -0.144211 -0.904747 -0.425557 -0.018252 12 73 125
-0.716840 0.206427 0.396440 0.711140 -0.681752 0.171739 218 40 149
0.002639 0.109732 -0.564181 0.845845 -0.274941 -0.457115 235 92 69
0.157320 -0.091197 0.602853 -0.581102 0.296065 -0.758068 53 165 30
-0.069778 -0.120149 -0.825101 0.918380 0.395412 0.015066 244 177 129
0.100900 -0.259065 0.448651 -0.317331 0.907331 -0.275772 87 243 92
0.426584 0.076709 0.134441 -0.943024 -0.332374 -0.015248 7 85 125
0.324663 -0.048015 -0.735494 -0.318211 0.013419 0.947925 86 129 248
0.129343 -0.170770 -0.004393 0.830936 0.556017 0.019739 233 198 130
-0.778240 -0.061304 0.532758 0.944650 0.326266 -0.034454 247 169 123
-0.180341 -0.028472 0.721093 -0.045154 -0.225591 -0.973175 121 98 3
0.056870 0.255540 0.382649 0.328825 -0.913000 0.241464 169 11 158
-0.656157 0.044723 0.709231 -0.019730 -0.154422 -0.987808 124 107 1
0.271143 -0.245904 -0.608752 -0.468142 0.813291 0.345543 67 231 171
0.071538 -0.257932 -0.707071 0.235596 0.971464 0.027437 157 251 130
0.022364 -0.260999 0.485035 0.205659 0.973027 0.104511 153 251 140
0.389232 -0.128490 0.247052 -0.823753 0.487676 -0.289143 22 189 90
0.448760 -0.048971 -0.217478 -0.941162 0.336960 -0.025915 7 170 124
-0.529574 0.032241 0.716102 0.007414 -0.563679 -0.825960 128 55 22
-0.107344 0.234944 0.557859 0.078163 -0.926091 0.369115 137 9 174
0.322912 0.098074 0.394877 -0.789499 -0.427243 -0.440629 26 73 71
-0.016380 -0.214218 -0.785809 0.575132 0.817576 -0.028153 200 231 123
0.194463 -0.239912 0.104959 0.606114 0.795364 0.004610 204 228 128
0.422682 -0.008879 0.254756 -0.871220 -0.110631 -0.478263 16 113 66
-0.682618 -0.216022 0.422402 -0.086644 0.904270 0.418077 116 242 180
0.434881 -0.080415 -0.122281 -0.941162 0.336960 -0.025915 7 170 124
-0.587979 0.024565 0.331061 -0.578400 0.008038 0.815714 53 128 231
-0.269999 -0.004740 0.450627 -0.006383 -0.020269 0.999774 126 124 254
-0.470964 0.195135 0.665121 -0.028159 -0.353147 -0.935144 123 82 8
0.066170 -0.006268 0.009752 0.989370 -0.139988 0.039361 253 109 132
0.439151 -0.085531 -0.343877 -0.941162 0.336960 -0.025915 7 170 124
0.250483 -0.251069 0.284470 -0.278866 0.953573 -0.113725 91 249 113
0.232672 0.234574 -0.685043 -0.496346 -0.799330 0.338691 64 25 170
0.166496 0.275203 -0.598298 0.290960 -0.932303 -0.214832 164 8 100
0.199985 0.082430 -0.979970 -0.535242 -0.240395 0.809769 59 96 230
-0.559911 -0.090919 0.698053 0.014416 0.232836 -0.972409 129 157 3
-0.505302 -0.238347 0.577687 -0.125732 0.646884 -0.752152 111 209 31
0.139429 -0.190145 0.113097 0.773613 0.553988 0.307604 226 198 166
0.207540 0.255344 -0.421053 0.284759 -0.942750 -0.173593 163 7 105
0.112195 0.014499 -1.048189 -0.220971 -0.164728 0.961268 99 106 250
-0.709759 -0.126127 0.632603 0.588732 0.400368 -0.702211 202 178 37
0.034763 -0.090303 0.202403 0.782399 0.407476 0.470973 227 179 187
0.442566 0.066671 -0.577457 -0.955811 -0.293347 -0.019298 5 90 125
0.084274 0.065314 -0.172903 0.919379 -0.392580 0.024974 244 77 130
-0.546531 -0.224221 0.461061 -0.246773 0.737414 0.628748 96 221 207
-0.734576 0.110828 0.315188 0.734466 -0.356082 0.577724 221 82 201
-0.760581 -0.091154 0.604515 0.772230 0.097656 -0.627793 225 139 47
0.094661 -0.259540 0.346880 0.296206 0.929206 0.220992 165 245 155
-0.409233 -0.095463 0.440529 -0.326752 0.285510 0.900953 85 163 242
0.229521 -0.060912 0.541276 -0.782459 0.169877 -0.599082 27 149 51
0.090460 0.072008 -0.295386 0.919379 -0.392580 0.024974 244 77 130
0.294962 0.256982 -0.121320 -0.298063 -0.954543 0.002302 89 5 127
0.307421 0.252294 0.144983 -0.303212 -0.951894 -0.044273 88 6 121
0.449350 0.014416 -0.308606 -0.999830 0.015086 -0.010620 0 129 126
0.017631 -0.122517 0.256229 0.779946 0.384681 0.493665 226 176 190
0.178285 0.223855 -0.189351 0.718291 -0.695707 0.007107 219 38 128
-0.749542 -0.167693 0.497763 0.967684 0.247971 -0.045795 250 159 121
0.345528 0.226808 -0.497590 -0.624179 -0.781135 0.015129 47 27 129
0.426421 0.097895 -0.252465 -0.955811 -0.293347 -0.019298 5 90 125
0.300947 0.169352 -0.680557 -0.366221 -0.470776 0.802653 80 67 229
0.139156 0.255875 -0.772611 -0.479243 -0.828945 0.288403 66 21 164
0.089361 0.066228 -0.294180 0.987455 -0.152520 0.040874 253 108 132
0.443680 -0.075221 -0.374311 -0.941162 0.336960 -0.025915 7 170 124
0.362957 -0.131117 0.302888 -0.762790 0.446552 -0.467699 30 184 67
0.364939 -0.214690 -0.098765 -0.731260 0.681482 0.029000 34 214 131
0.351891 -0.204314 -0.589734 -0.623020 0.739832 0.253959 48 221 159
0.244027 -0.063254 0.521664 -0.782459 0.169877 -0.599082 27 149 51
0.027609 -0.242942 -0.721326 0.575132 0.817576 -0.028153 200 231 123
0.142255 -0.095255 -1.006513 -0.500528 0.195353 0.843392 63 152 235
-0.041518 -0.158239 -0.964330 0.843342 0.529866 0.089533 235 195 138
-0.683504 -0.231419 0.514806 0.495097 0.868586 -0.020926 190 238 124
-0.150414 0.145302 0.686598 0.004282 -0.522575 -0.852583 128 60 18
0.445758 -0.080969 -0.529955 -0.934369 0.355484 -0.024193 8 172 124
-0.203666 -0.180259 0.487602 0.046647 0.519079 0.853453 133 193 236
0.138013 0.039925 0.612040 -0.618108 -0.167565 -0.768027 48 106 29
-0.074786 0.104928 -0.966954 0.848340 -0.476742 0.230297 235 66 156
0.145729 0.261620 -0.564333 0.293420 -0.942162 -0.161973 164 7 106
0.201752 0.172586 0.492098 -0.623492 -0.587145 -0.516254 48 52 61
-0.529388 0.249658 0.493854 -0.100775 -0.878835 0.466361 114 15 186
0.447377 -0.039213 -0.092654 -0.999586 -0.025158 -0.013945 0 124 125
0.168549 0.213052 -0.262859 0.718291 -0.695707 0.007107 219 38 128
0.063699 -0.024818 0.005893 0.989370 -0.139988 0.039361 253 109 132
0.238260 -0.261155 -0.227672 0.456164 0.889803 0.012842 185 240 129
0.188572 -0.029973 -0.994146 -0.500528 0.195353 0.843392 63 152 235
-0.023692 -0.243075 0.489541 0.596801 0.758812 0.260832 203 224 160
0.060911 0.209849 -0.984193 -0.181109 -0.570930 0.800774 104 54 229
0.409737 -0.127845 0.171520 -0.927168 0.373895 -0.023727 9 175 124
0.101533 -0.104407 -0.255742 0.910203 0.413021 0.030722 243 180 131
-0.098988 0.046286 0.408979 0.921168 -0.192594 0.338166 244 102 170
-0.110036 -0.229722 0.519191 -0.034178 0.960873 0.274873 123 250 162
0.155032 -0.224515 -0.894554 -0.492203 0.857390 0.150395 64 236 146
0.447965 0.011535 -0.182342 -0.999830 0.015086 -0.010620 0 129 126
0.165364 0.214334 0.488565 -0.623492 -0.587145 -0.516254 48 52 61
0.444174 -0.026707 0.120307 -0.999830 0.015086 -0.010620 0 129 126
0.050884 -0.067718 0.156082 0.782399 0.407476 0.470973 227 179 187
0.414457 -0.147794 -0.327297 -0.927168 0.373895 -0.023727 9 175 124
-0.074478 0.016016 -1.038419 0.860951 0.255537 0.439845 237 160 183
-0.050166 0.158423 0.382872 0.787455 -0.394992 0.473176 227 77 187
0.365272 0.096941 0.319954 -0.788789 -0.432137 -0.437115 26 72 71
-0.726464 0.105411 0.632075 0.545099 -0.520068 -0.657568 197 61 43
-0.528908 -0.241913 0.489987 -0.055222 0.844896 0.532072 120 235 195
-0.082399 -0.092907 0.705319 0.017699 0.253926 -0.967062 129 159 4
0.041560 -0.242466 0.559447 -0.323811 0.892256 -0.314684 86 241 87
0.448380 0.041601 -0.448287 -0.943024 -0.332374 -0.015248 7 85 125
0.452021 0.010535 -0.515323 -0.999586 -0.025158 -0.013945 0 124 125
0.054816 0.211332 -0.592527 0.647761 -0.684973 -0.333493 210 40 84
-0.574593 0.240407 0.466652 -0.100775 -0.878835 0.466361 114 15 186
-0.043604 -0.044026 -1.055749 0.534590 0.158225 0.830167 195 147 233
-0.518593 -0.029298 0.375396 -0.572501 0.088794 0.815082 54 138 231
0.141571 -0.180957 -0.186656 0.776888 0.628904 0.030410 226 207 131
-0.504492 0.096020 0.406670 -0.590604 -0.285686 0.754699 52 91 223
0.302587 -0.236611 -0.588026 -0.468142 0.813291 0.345543 67 231 171
0.443444 -0.094330 -0.636929 -0.934369 0.355484 -0.024193 8 172 124
0.322272 0.244042 -0.250943 -0.378078 -0.925621 0.016828 79 9 129
0.047353 0.060803 -0.458643 0.796688 -0.331286 -0.505507 229 85 63
0.068954 -0.011996 -0.409466 0.977678 -0.032974 -0.207506 252 123 101
0.274381 0.263684 -0.007271 -0.298063 -0.954543 0.002302 89 5 127
0.445244 0.013138 0.076161 -0.999830 0.015086 -0.010620 0 129 126
0.072121 -0.258905 -0.772087 0.177125 0.983134 -0.045555 150 252 121
-0.039729 -0.185376 0.668607 0.017105 0.467409 -0.883876 129 187 14
0.110091 0.259852 -0.846559 -0.618700 -0.771381 0.148938 48 29 146
0.149293 0.199210 -0.381713 0.677944 -0.731224 -0.075527 213 34 117
-0.035758 -0.102594 0.703629 0.017699 0.253926 -0.967062 129 159 4
-0.034730 0.124096 0.310686 0.664405 -0.538943 0.517789 212 58 193
0.124417 0.115309 -1.020025 -0.509588 -0.177855 0.841836 62 104 234
0.266360 -0.262946 -0.296387 -0.292703 0.956181 -0.006526 90 249 126
-0.656561 -0.037976 0.283048 -0.578400 0.008038 0.815714 53 128 231
-0.716977 -0.174868 0.608609 0.488872 0.227227 -0.842242 189 156 20
-0.412862 0.200354 0.661401 -0.028159 -0.353147 -0.935144 123 82 8
0.134848 0.175042 -0.183057 0.821735 -0.569723 0.012918 232 54 129
0.444489 -0.067400 -0.301993 -0.941162 0.336960 -0.025915 7 170 124
0.293675 0.251858 -0.558080 -0.419342 -0.907734 -0.013062 74 11 125
0.162528 0.207348 -0.212652 0.718291 -0.695707 0.007107 219 38 128
0.236249 0.261829 -0.377233 0.455421 -0.889920 -0.025178 185 14 124
-0.360882 -0.236116 0.587499 0.029093 0.861567 -0.506809 131 237 62
-0.081556 -0.166123 0.446659 0.482583 0.383758 0.787301 189 176 227
0.091236 -0.101734 0.012020 0.909520 0.414508 0.030921 243 180 131
0.073809 0.115660 0.148844 0.841657 -0.337066 0.421900 234 84 181
-0.086818 -0.010002 -0.985282 0.936879 0.181300 0.298978 246 150 165
-0.670668 -0.239735 0.488942 0.494922 0.866490 -0.065180 190 237 119
0.156224 0.110370 -1.000600 -0.535242 -0.240395 0.809769 59 96 230
-0.306786 0.046375 0.452371 -0.040808 -0.183820 0.982112 122 104 252
0.150444 0.193724 -0.954904 -0.720102 -0.626001 0.299292 35 47 165
-0.060651 -0.142019 -0.807511 0.918380 0.395412 0.015066 244 177 129
-0.595728 0.096936 0.699862 -0.019730 -0.154422 -0.987808 124 107 1
0.395390 -0.179872 -0.087712 -0.927168 0.373895 -0.023727 9 175 124
0.410774 0.130567 -0.120002 -0.904747 -0.425557 -0.018252 12 73 125
0.030606 0.228918 0.594544 -0.479049 -0.783217 -0.396338 66 27 76
-0.768115 -0.090942 0.529695 0.944650 0.326266 -0.034454 247 169 123
-0.017645 -0.173763 -0.994258 0.586602 0.587511 0.557430 202 202 198
-0.664553 0.244351 0.527339 0.387144 -0.848767 -0.360160 176 19 81
0.104105 -0.114808 -1.024625 -0.500528 0.195353 0.843392 63 152 235
-0.581213 0.041119 0.335459 -0.497138 0.012231 0.867585 64 129 238
-0.318911 0.237721 0.521758 -0.011663 -0.657919 0.752999 126 43 223
0.127568 -0.265370 0.389963 -0.266419 0.940538 -0.210736 93 247 100
-0.027455 0.194496 -0.804968 0.902487 -0.430593 -0.010358 242 72 126
0.089654 -0.256949 0.342699 0.296206 0.929206 0.220992 165 245 155
-0.597172 -0.030876 0.325089 -0.578400 0.008038 0.815714 53 128 231
0.104137 -0.222587 -0.956503 -0.204085 0.823799 0.528870 101 232 194
-0.367457 0.201153 0.659732 -0.028159 -0.353147 -0.935144 123 82 8
-0.194011 0.245409 0.570927 -0.101686 -0.941793 0.320447 114 7 168
-0.200469 -0.166635 0.675407 0.017105 0.467409 -0.883876 129 187 14
0.418237 0.103325 0.070468 -0.943024 -0.332374 -0.015248 7 85 125
0.200811 -0.011015 0.576200 -0.639686 -0.346481 -0.686114 45 83 40
-0.389635 -0.250076 0.555576 -0.034178 0.960873 0.274873 123 250 162
0.352141 -0.222619 -0.224348 -0.677468 0.735176 0.023520 41 221 130
0.228936 -0.256911 -0.037228 0.172660 0.984836 -0.016949 149 253 125
0.449837 0.044548 -0.601294 -0.955811 -0.293347 -0.019298 5 90 125
0.090991 -0.262233 -0.721821 0.235596 0.971464 0.027437 157 251 130
-0.083676 0.050750 0.700657 -0.044874 -0.185501 -0.981619 121 103 2
0.080527 -0.079937 0.034811 0.909520 0.414508 0.030921 243 180 131
-0.044759 0.200184 0.418122 0.775505 -0.467308 0.424518 226 67 181
0.304174 -0.243659 -0.506825 -0.425835 0.904801 0.000357 73 242 127
-0.151067 -0.113478 0.457752 0.195301 0.241951 0.950430 152 158 248
0.058175 -0.043765 -0.437784 0.845936 0.244260 -0.474056 235 158 67
0.141951 -0.242100 -0.837116 -0.492203 0.857390 0.150395 64 236 146
-0.440847 0.201933 0.661647 -0.028159 -0.353147 -0.935144 123 82 8
0.405212 0.028719 0.277882 -0.871220 -0.110631 -0.478263 16 113 66
0.048114 0.055589 -0.456905 0.873558 -0.014205 -0.486512 238 125 65
-0.079288 0.167119 0.673583 0.004282 -0.522575 -0.852583 128 60 18
-0.201077 0.193965 0.657436 -0.028159 -0.353147 -0.935144 123 82 8
0.357540 -0.221666 -0.098637 -0.677468 0.735176 0.023520 41 221 130
0.100610 0.254497 0.459954 -0.336052 -0.871100 -0.358127 84 16 81
-0.648711 -0.180400 0.650182 0.034133 0.570980 -0.820254 131 200 22
0.090105 -0.222155 -0.962592 -0.204085 0.823799 0.528870 101 232 194
0.278683 -0.245676 -0.599073 -0.468142 0.813291 0.345543 67 231 171
0.079966 0.157318 0.193498 0.721553 -0.625061 0.297759 219 47 165
0.417688 0.065778 -0.689233 -0.358282 -0.477240 0.802419 81 66 229
0.107499 0.117076 -0.289419 0.939708 -0.341627 0.015495 247 83 129
0.371399 -0.211322 -0.015030 -0.731260 0.681482 0.029000 34 214 131
-0.321917 -0.148993 0.476619 -0.065238 0.404651 0.912141 119 179 243
0.394148 -0.111851 -0.686996 -0.378147 0.558687 0.738156 79 198 221
0.205962 -0.123354 -0.953495 -0.813013 0.284012 0.508278 23 163 192
0.011604 0.021979 -0.517304 0.825820 -0.027376 -0.563269 232 124 55
0.307654 -0.146095 0.380798 -0.780478 0.424637 -0.458843 27 181 68
-0.448996 0.004783 0.726044 -0.044874 -0.185501 -0.981619 121 103 2
0.418362 0.119960 -0.248861 -0.904747 -0.425557 -0.018252 12 73 125
-0.003869 0.086547 -0.562278 0.845845 -0.274941 -0.457115 235 92 69
0.309186 0.199179 0.307933 -0.688554 -0.585089 -0.428443 39 52 72
0.167574 -0.249806 0.402391 -0.317331 0.907331 -0.275772 87 243 92
-0.681000 -0.019222 0.712219 0.417190 0.094921 -0.903849 180 139 12
0.243118 -0.157882 0.464931 -0.655401 0.477379 -0.585286 43 188 52
-0.067636 0.118132 -0.925757 0.890682 -0.454480 -0.011586 241 69 126
0.446079 -0.064650 -0.323983 -0.941162 0.336960 -0.025915 7 170 124
-0.038403 0.063040 -1.070604 -0.054735 -0.415853 0.907783 120 74 243
0.281199 0.261296 -0.114797 -0.298063 -0.954543 0.002302 89 5 127
0.195344 0.204054 0.464049 -0.623492 -0.587145 -0.516254 48 52 61
0.426309 0.117610 -0.587990 -0.904747 -0.425557 -0.018252 12 73 125
-0.092051 -0.230260 0.511778 0.327140 0.944919 -0.010388 169 247 126
-0.444495 -0.160783 0.449066 -0.326030 0.479986 0.814443 85 188 231
-0.524786 0.220874 0.465004 -0.447103 -0.648423 0.616155 70 44 206
-0.091398 0.037593 -0.935174 0.983469 -0.177641 -0.035098 252 104 123
0.131468 -0.218758 -0.945348 -0.497121 0.800723 0.334237 64 229 170
-0.785227 -0.049159 0.408163 0.991381 0.125292 0.038276 253 143 132
0.310186 0.014968 -0.741245 -0.318211 0.013419 0.947925 86 129 248
0.122677 -0.231793 -0.927196 -0.497121 0.800723 0.334237 64 229 170
0.404873 -0.082973 0.253226 -0.927051 0.268209 -0.261994 9 161 94
0.189841 0.266185 0.335893 -0.223891 -0.969843 -0.096320 98 3 115
0.438312 0.025492 -0.697836 -0.362627 0.085038 0.928047 81 138 245
0.059989 -0.154485 0.222408 0.714206 0.506243 0.483351 218 192 189
0.112725 0.105586 -1.029157 -0.509588 -0.177855 0.841836 62 104 234
0.444243 -0.036885 0.103729 -0.941162 0.336960 -0.025915 7 170 124
0.301755 -0.229998 0.256894 -0.626761 0.702565 -0.337007 47 217 84
0.256500 0.166556 0.432562 -0.629933 -0.618799 -0.469331 47 48 67
0.395967 0.038772 -0.712786 -0.318211 0.013419 0.947925 86 129 248
0.229740 -0.263730 -0.416749 0.115219 0.993216 0.015692 142 254 129
-0.245472 0.242608 0.601473 -0.017581 -0.812367 -0.582881 125 23 53
-0.655678 -0.160891 0.353240 -0.487347 0.578983 0.653660 65 201 210
0.284017 0.260196 -0.205929 -0.298063 -0.954543 0.002302 89 5 127
0.204964 0.244011 -0.291758 0.262225 -0.964973 0.008054 160 4 128
-0.576706 0.105774 0.359294 -0.407828 -0.450740 0.794046 75 70 228
0.049192 -0.250568 -0.894039 0.175501 0.928809 0.326365 149 245 169
-0.199327 0.218615 0.638937 -0.003495 -0.854057 -0.520167 127 18 61
-0.729905 0.143691 0.613182 0.675501 -0.386604 -0.627882 213 78 47
0.346931 -0.129350 -0.697940 -0.378147 0.558687 0.738156 79 198 221
0.239114 -0.261306 0.201202 0.207797 0.946499 0.246902 153 248 158
0.263352 0.056806 -0.814070 -0.991580 -0.051629 0.118762 1 120 142
-0.005664 -0.179691 0.666266 -0.242304 0.612595 -0.752340 96 205 31
0.357220 0.168845 0.258888 -0.862153 -0.407225 -0.301430 17 75 89
0.415011 0.131310 -0.347356 -0.904747 -0.425557 -0.018252 12 73 125
0.188092 0.234229 -0.165033 0.718291 -0.695707 0.007107 219 38 128
0.054946 0.223758 -0.617795 0.647761 -0.684973 -0.333493 210 40 84
0.098982 0.092875 -0.306502 0.939708 -0.341627 0.015495 247 83 129
0.251042 0.136862 0.465412 -0.678000 -0.422359 -0.601605 41 73 50
0.128720 0.051146 -1.030976 -0.509588 -0.177855 0.841836 62 104 234
-0.791861 0.010652 0.384201 0.991381 0.125292 0.038276 253 143 132
0.163951 -0.227699 0.141719 0.606606 0.742776 0.283396 204 222 163
-0.136806 0.046825 0.703827 -0.044874 -0.185501 -0.981619 121 103 2
0.175419 0.266992 -0.541796 0.293420 -0.942162 -0.161973 164 7 106
0.424897 0.108839 -0.343320 -0.955811 -0.293347 -0.019298 5 90 125
0.244853 0.102761 -0.807111 -0.874784 -0.348329 0.336780 15 83 170
-0.630415 -0.139217 0.679611 0.034133 0.570980 -0.820254 131 200 22
0.071907 -0.219595 0.282900 0.549092 0.741002 0.386541 197 221 176
-0.353106 0.133126 0.692724 -0.010920 -0.034015 -0.999362 126 123 0
0.008531 0.016922 0.202876 0.854356 -0.043667 0.517851 236 121 193
0.042915 -0.183229 -0.550910 0.729649 0.497232 -0.469439 220 190 67
0.444000 -0.073746 -0.366741 -0.941162 0.336960 -0.025915 7 170 124
-0.647952 0.028226 0.717780 0.007414 -0.563679 -0.825960 128 55 22
0.447636 0.052840 -0.618347 -0.955811 -0.293347 -0.019298 5 90 125
0.325123 0.209247 0.252270 -0.611490 -0.739854 -0.280526 49 33 91
-0.671906 0.100074 0.295529 0.112240 -0.538798 0.834924 141 58 233
0.431142 -0.069935 0.149773 -0.941162 0.336960 -0.025915 7 170 124
-0.675278 0.201293 0.617291 0.342930 -0.864538 -0.367388 171 17 80
0.042337 0.026049 0.699564 -0.044874 -0.185501 -0.981619 121 103 2
0.432500 -0.073365 0.055840 -0.941162 0.336960 -0.025915 7 170 124
0.421758 -0.117093 -0.133852 -0.934369 0.355484 -0.024193 8 172 124
0.079524 0.238259 0.313654 0.566275 -0.712539 0.414272 199 36 180
0.014931 -0.042923 0.715382 -0.045154 -0.225591 -0.973175 121 98 3
0.237025 -0.260277 -0.150365 0.172660 0.984836 -0.016949 149 253 125
0.151798 -0.172631 0.555161 -0.655401 0.477379 -0.585286 43 188 52
-0.371449 -0.190776 0.654497 0.034133 0.570980 -0.820254 131 200 22
0.174870 -0.230671 -0.806406 -0.457748 0.872079 0.173043 69 238 149
0.134698 0.185265 -0.377710 0.677944 -0.731224 -0.075527 213 34 117
0.427405 0.105985 -0.424149 -0.955811 -0.293347 -0.019298 5 90 125
-0.428509 0.032252 0.717003 0.007414 -0.563679 -0.825960 128 55 22
-0.013000 -0.063556 0.258608 0.782399 0.407476 0.470973 227 179 187
-0.595066 -0.205896 0.625429 0.029093 0.861567 -0.506809 131 237 62
-0.284072 0.034727 0.712845 -0.044874 -0.185501 -0.981619 121 103 2
0.236776 -0.039109 -0.947002 -0.872885 0.154025 0.462977 16 147 186
0.095197 -0.182173 -0.466862 0.736988 0.501479 -0.453175 221 191 69
0.440190 -0.071954 -0.205094 -0.941162 0.336960 -0.025915 7 170 124
-0.466358 0.030125 0.400318 -0.424876 -0.261172 0.866758 73 94 238
0.125676 0.257559 0.296585 0.328825 -0.913000 0.241464 169 11 158
0.112103 -0.204602 0.206565 0.562473 0.698782 0.441959 199 216 183
-0.604764 -0.038160 0.710134 0.017699 0.253926 -0.967062 129 159 4
0.000038 -0.041957 -0.539674 0.887419 0.086787 -0.452720 240 138 69
-0.743786 0.178398 0.405142 0.846127 -0.513816 0.141644 235 61 145
0.354349 0.222760 -0.342643 -0.624179 -0.781135 0.015129 47 27 129
-0.399681 -0.211264 0.627520 0.029093 0.861567 -0.506809 131 237 62
0.350734 -0.214505 -0.461312 -0.731260 0.681482 0.029000 34 214 131
0.237622 -0.235218 0.365828 -0.431624 0.845748 -0.313705 72 235 87
-0.182373 -0.165256 0.676486 0.017105 0.467409 -0.883876 129 187 14
0.259348 0.267453 -0.158210 0.455421 -0.889920 -0.025178 185 14 124
0.038722 0.144594 -0.526648 0.790031 -0.329590 -0.516934 228 85 61
0.062096 -0.204006 0.611815 -0.427997 0.784205 -0.449268 72 227 70
0.422916 -0.011981 0.254384 -0.861090 0.157348 -0.483493 17 147 65
-0.543634 -0.045155 0.709416 0.017699 0.253926 -0.967062 129 159 4
0.079428 0.049106 -0.384158 0.946605 -0.132629 -0.293850 248 110 90
-0.795868 0.034764 0.386638 0.969949 -0.181915 0.161573 251 104 148
0.006611 0.220996 0.383628 0.566275 -0.712539 0.414272 199 36 180
0.208940 0.245592 -0.693819 -0.496346 -0.799330 0.338691 64 25 170
0.112719 -0.268245 0.371429 0.208303 0.972636 0.102908 154 251 140
-0.688956 -0.183794 0.622465 0.488872 0.227227 -0.842242 189 156 20
0.022476 -0.042767 0.181689 0.782399 0.407476 0.470973 227 179 187
-0.293995 0.173807 0.668405 0.004282 -0.522575 -0.852583 128 60 18
0.380678 0.176418 0.030811 -0.864440 -0.502020 -0.026826 17 63 124
-0.052568 -0.019360 0.713052 -0.045154 -0.225591 -0.973175 121 98 3
0.442865 -0.079461 -0.399827 -0.941162 0.336960 -0.025915 7 170 124
-0.400207 0.219532 0.638781 -0.003495 -0.854057 -0.520167 127 18 61
0.208857 0.010728 -0.982489 -0.568606 0.025530 0.822214 55 130 232
0.152378 0.201228 -0.155755 0.610427 -0.791457 0.031221 205 26 131
0.418790 -0.041757 0.246176 -0.927051 0.268209 -0.261994 9 161 94
-0.272084 -0.190549 0.658790 0.034133 0.570980 -0.820254 131 200 22
0.157421 -0.159914 0.559236 -0.655401 0.477379 -0.585286 43 188 52
-0.063748 0.227368 0.621715 -0.064100 -0.898339 -0.434601 119 12 72
0.148027 0.272538 0.335348 0.124530 -0.990720 -0.054459 143 1 120
-0.647259 -0.127614 0.330041 -0.487347 0.578983 0.653660 65 201 210
0.246998 -0.025431 -0.932280 -0.872885 0.154025 0.462977 16 147 186
-0.682069 0.155906 0.332925 0.112240 -0.538798 0.834924 141 58 233
-0.551789 0.162148 0.680013 -0.028159 -0.353147 -0.935144 123 82 8
-0.044718 0.224802 0.456439 0.363114 -0.891527 0.270792 173 13 162
-0.596040 -0.056909 0.705661 0.014416 0.232836 -0.972409 129 157 3
-0.725318 0.198979 0.576027 0.342930 -0.864538 -0.367388 171 17 80
-0.083725 -0.035469 0.378964 0.817604 0.031934 0.574895 231 131 200
0.239874 0.256364 0.051717 0.262225 -0.964973 0.008054 160 4 128
-0.096095 -0.131797 0.695141 0.014416 0.232836 -0.972409 129 157 3
0.400604 0.168100 -0.490986 -0.904747 -0.425557 -0.018252 12 73 125
0.234452 -0.061591 -0.942437 -0.813013 0.284012 0.508278 23 163 192
-0.354139 -0.079298 0.453622 -0.210469 0.220078 0.952506 100 155 248
0.428286 -0.080368 0.117825 -0.941162 0.336960 -0.025915 7 170 124
-0.571731 0.187872 0.670899 -0.028159 -0.353147 -0.935144 123 82 8
0.355593 0.219455 0.033740 -0.864440 -0.502020 -0.026826 17 63 124
0.312958 -0.219083 0.258813 -0.626761 0.702565 -0.337007 47 217 84
0.179683 -0.223944 -0.271300 0.776888 0.628904 0.030410 226 207 131
0.211327 0.248918 0.089015 0.262225 -0.964973 0.008054 160 4 128
0.022091 -0.036912 0.180615 0.870816 0.036555 0.490248 238 132 190
-0.011210 0.223778 -0.809830 0.615774 -0.781830 0.097795 206 27 139
-0.679128 -0.003894 0.714693 0.417190 0.094921 -0.903849 180 139 12
0.434321 0.095496 -0.607281 -0.955811 -0.293347 -0.019298 5 90 125
0.283758 -0.072687 -0.759318 -0.758371 0.410402 0.506403 30 179 192
0.093664 -0.234963 -0.550260 0.619041 0.714172 -0.326720 206 218 85
0.206592 -0.176128 -0.876652 -0.783812 0.580624 0.220262 27 201 155
-0.029504 -0.177037 -0.966240 0.843342 0.529866 0.089533 235 195 138
