ply
format ascii 1.0
element vertex 256
property float x
property float y
property float z
property float nx
property float ny
property float nz
property uchar red
property uchar green
property uchar blue
end_header
-0.298651 0.306649 0.358954 0.181730 -0.978298 -0.099540 150 2 114
0.129839 -0.256385 0.449290 0.471673 0.856107 0.211201 187 236 154
0.109881 -0.268543 0.158080 0.217697 0.756158 -0.617117 155 223 48
0.443056 0.104937 0.247155 -0.970997 -0.235249 0.042686 3 97 132
-0.166490 0.162318 -0.853998 0.851219 -0.406711 -0.331681 236 75 85
-0.177095 0.104943 -1.041007 0.013644 -0.420028 0.907409 129 73 243
0.268149 0.290978 -0.034017 -0.418612 -0.906749 0.050704 74 11 133
0.120158 -0.086666 0.698309 -0.033495 0.286439 -0.957513 123 164 5
0.036781 0.228414 -0.971028 -0.202508 -0.605384 0.769740 101 50 225
0.439269 -0.064245 -0.102181 -0.954230 0.297859 0.026909 5 165 130
0.425422 -0.061027 -0.206220 -0.886354 0.189780 0.422327 14 151 181
0.189286 -0.191999 -0.805112 -0.634995 0.754750 0.164723 46 223 148
0.359315 0.189705 0.492285 -0.646317 -0.664354 -0.375377 45 42 79
-0.283324 0.134283 0.655909 0.273036 -0.637566 -0.720389 162 46 35
-0.528443 0.000230 0.498235 0.971719 -0.052650 -0.230195 251 120 98
0.369832 -0.214111 0.259046 -0.791864 0.610679 -0.004731 26 205 126
-0.348911 -0.302985 0.310844 0.352504 0.930718 0.097492 172 246 139
-0.289066 0.060335 -0.111295 0.349076 -0.077754 0.933863 172 117 246
-0.170496 0.300379 0.425664 -0.142186 -0.989496 -0.026105 109 1 124
0.358364 0.223971 -0.022415 -0.618070 -0.786004 0.013653 48 27 129
-0.247546 0.163727 0.643411 0.273036 -0.637566 -0.720389 162 46 35
-0.158324 -0.181065 -0.879716 0.737702 0.647608 -0.190787 221 210 103
0.150190 0.037023 0.692953 -0.002420 -0.269132 -0.963100 127 93 4
-0.017641 0.231061 0.221201 -0.145643 -0.854293 -0.498970 108 18 63
-0.081090 -0.066379 -1.053488 0.067989 0.325485 0.943100 136 168 247
0.314855 0.047463 0.607059 -0.536886 -0.404064 -0.740598 59 75 33
0.252475 0.065666 -0.729589 -0.976608 -0.188984 0.102578 2 103 140
-0.074371 -0.251404 -0.044738 0.302458 0.759109 0.576431 166 224 200
0.344207 -0.107833 0.573692 -0.518743 0.630348 -0.577552 61 207 53
0.467940 0.006042 0.338443 -0.966288 0.256794 0.018578 4 160 129
0.464084 0.040213 0.368780 -0.970997 -0.235249 0.042686 3 97 132
0.243920 -0.144261 0.624009 -0.518743 0.630348 -0.577552 61 207 53
0.143988 0.217390 0.351387 0.585407 -0.795512 0.156394 202 26 147
-0.496185 0.142526 0.243737 0.906412 -0.418321 0.058521 243 74 134
-0.126136 -0.146110 -0.726737 0.831159 0.441664 -0.337800 233 183 84
0.425163 -0.108788 -0.109357 -0.954230 0.297859 0.026909 5 165 130
0.212773 0.256958 0.438187 0.049639 -0.998666 -0.014201 133 0 125
0.074464 0.133012 0.349547 0.566147 -0.323001 0.758385 199 86 224
-0.139063 -0.298162 0.248812 -0.557761 0.712040 -0.426499 56 218 73
0.271793 -0.099826 0.645753 -0.607004 0.319487 -0.727650 50 168 34
0.168116 -0.051507 0.707149 -0.033495 0.286439 -0.957513 123 164 5
-0.265723 -0.230147 -0.010805 0.155989 0.770533 0.618018 147 225 206
0.068508 0.117421 0.347353 0.566147 -0.323001 0.758385 199 86 224
-0.204483 0.109431 -1.006183 0.721433 -0.604400 0.337987 219 50 170
-0.093151 -0.145478 -0.136594 0.156879 0.461363 0.873232 147 186 238
0.018552 -0.234072 -0.497374 0.697218 0.703850 -0.135951 216 217 110
-0.135303 -0.297193 0.411388 -0.378726 0.910900 0.163791 79 243 148
-0.042430 -0.273803 0.494818 -0.114167 0.819549 0.561520 112 231 199
-0.265738 0.298606 0.433725 0.203587 -0.936373 -0.285935 153 8 91
0.082936 0.283587 -0.709033 -0.127143 -0.990920 -0.043735 111 1 121
-0.021216 -0.262079 -0.058571 0.302458 0.759109 0.576431 166 224 200
0.219885 -0.263996 -0.276405 -0.395339 0.917074 0.051786 77 244 134
-0.018792 -0.121287 -0.267041 0.831922 0.554815 0.009235 233 198 128
0.167075 -0.010788 0.706271 -0.002420 -0.269132 -0.963100 127 93 4
0.343301 -0.152850 0.542319 -0.496175 0.432981 -0.752554 64 182 31
0.110182 -0.270448 -0.744166 -0.452909 0.867117 0.207322 69 238 153
0.201481 -0.271564 -0.282870 -0.395339 0.917074 0.051786 77 244 134
0.106397 -0.248213 -0.167027 0.571287 0.810626 -0.128521 200 230 111
0.082904 -0.175998 0.651222 -0.054318 0.560079 -0.826656 120 198 22
0.434677 0.048963 -0.177596 -0.922817 -0.197450 0.330791 9 102 169
0.070101 -0.229185 -0.218037 0.592065 0.802442 -0.074469 202 229 118
-0.062502 -0.195687 -0.613952 0.795422 0.540474 -0.274212 228 196 92
0.101565 0.309877 -0.007407 0.123938 -0.989678 0.071949 143 1 136
-0.181769 0.304114 0.345495 -0.142186 -0.989496 -0.026105 109 1 124
0.113368 0.295859 -0.103822 0.323820 -0.917804 0.229731 168 10 156
-0.027339 -0.239753 0.599576 -0.035020 0.703597 -0.709736 123 217 37
0.212867 0.186541 -0.632635 -0.872779 -0.469669 0.132922 16 67 144
-0.352279 0.225355 -0.000253 0.403539 -0.726613 0.556049 178 34 198
0.286522 -0.088698 -0.481545 -0.928578 0.286857 0.235491 9 164 157
0.385584 0.131938 0.532333 -0.523644 -0.271338 -0.807572 60 92 24
0.419482 -0.127876 0.456233 -0.864546 0.404416 -0.298342 17 179 89
0.098962 0.211171 0.374013 0.273649 -0.829918 0.486161 162 21 189
-0.097302 -0.279921 0.224650 -0.557761 0.712040 -0.426499 56 218 73
0.019017 0.209434 0.215991 -0.440773 -0.541939 -0.715556 71 58 36
0.199726 -0.207812 -0.675890 -0.637873 0.762083 0.111119 46 224 141
-0.050448 -0.035517 -0.288448 0.995707 0.003123 -0.092509 254 127 115
-0.041608 0.248030 -0.928529 0.027247 -0.933733 0.356932 130 8 173
-0.401450 -0.098405 0.598860 0.476783 0.259216 -0.839932 188 160 20
0.458121 0.057976 0.454094 -0.943026 -0.264074 -0.202403 7 93 101
0.185654 -0.090902 -0.943734 -0.720469 0.212867 0.660010 35 154 211
-0.168983 -0.176324 -0.905663 0.758957 0.626354 -0.177945 224 207 104
0.029157 -0.214755 -0.343493 0.696674 0.704100 -0.137435 216 217 109
-0.285586 0.061062 -0.112535 0.349076 -0.077754 0.933863 172 117 246
0.449478 -0.061329 0.309427 -0.966288 0.256794 0.018578 4 160 129
-0.110507 0.122013 -1.034107 0.013644 -0.420028 0.907409 129 73 243
-0.298066 0.152892 -0.084792 0.371448 -0.394970 0.840253 174 77 234
-0.200314 0.317344 0.147018 -0.020785 -0.998742 0.045626 124 0 133
0.202381 0.190115 -0.688859 -0.872779 -0.469669 0.132922 16 67 144
-0.435701 -0.193815 0.459848 0.661959 0.629574 -0.406752 211 207 75
-0.008730 -0.193979 0.382841 -0.504840 0.347888 0.790006 63 171 228
0.146623 0.237216 -0.650085 -0.670465 -0.740714 0.042659 42 33 132
-0.124313 0.122164 -0.649129 0.926707 -0.248886 -0.281548 245 95 91
-0.378339 0.278198 0.287401 0.578160 -0.815875 0.008893 201 23 128
0.162541 0.281773 0.146683 0.119833 -0.844778 -0.521527 142 19 61
0.065131 0.120357 0.351124 0.566147 -0.323001 0.758385 199 86 224
-0.327023 -0.276886 0.444189 0.085797 0.825625 -0.557657 138 232 56
-0.277382 -0.295934 0.437787 0.287646 0.852682 -0.436111 164 236 71
-0.525254 -0.091502 0.307060 0.938514 0.333378 -0.089726 247 170 116
0.135456 -0.267278 0.480903 0.471673 0.856107 0.211201 187 236 154
-0.409069 -0.210775 0.476940 0.661959 0.629574 -0.406752 211 207 75
-0.110680 0.242609 0.585724 0.069240 -0.796983 -0.600020 136 25 50
-0.022562 -0.267011 0.570292 -0.045933 0.731051 -0.680775 121 220 40
0.372998 -0.081206 -0.295911 -0.864311 0.221488 0.451564 17 155 185
-0.490785 -0.154881 0.436585 0.947078 0.315727 -0.057956 248 167 120
-0.083019 -0.238933 -0.897865 0.419730 0.868856 0.262519 181 238 160
0.047720 0.049583 0.298379 0.562435 -0.363997 -0.742410 199 81 32
-0.010174 -0.269188 0.558553 0.017712 0.987735 -0.155129 129 253 107
0.419947 0.143386 0.426804 -0.723284 -0.688696 -0.050572 35 39 121
-0.445447 0.220035 0.160316 0.859841 -0.506749 0.062283 237 62 135
-0.461081 -0.202308 0.134129 0.822850 0.568218 0.006877 232 199 128
0.166569 0.199868 -0.849885 -0.844156 -0.475742 0.247123 19 66 159
-0.047076 -0.106988 -0.379162 0.900192 0.389960 -0.193868 242 177 102
-0.001758 -0.274272 -0.827087 0.117591 0.990981 0.064262 142 253 135
0.236799 -0.229702 -0.408175 -0.461169 0.852983 0.244425 68 236 158
-0.529991 0.007185 0.130645 0.995906 -0.059523 0.068027 254 119 136
-0.420277 0.248406 0.434647 0.359571 -0.903581 -0.232917 173 12 97
0.425526 0.100661 -0.170051 -0.975600 -0.214635 0.046232 3 100 133
-0.097548 0.137096 -0.589948 0.787750 -0.500567 -0.359002 227 63 81
-0.094098 -0.075640 0.698893 0.043009 0.050703 -0.997787 132 133 0
0.153645 0.235243 -0.605790 -0.566616 -0.820289 0.077923 55 22 137
0.399150 0.010398 -0.283924 -0.850152 -0.033340 0.525481 19 123 194
0.115765 -0.274809 -0.565134 -0.001203 0.999834 0.018177 127 254 129
0.390548 0.175769 0.406277 -0.723284 -0.688696 -0.050572 35 39 121
-0.404998 -0.111873 0.592689 0.476783 0.259216 -0.839932 188 160 20
-0.046364 -0.248939 0.437981 -0.609923 0.732552 0.302261 49 220 166
-0.019705 0.139231 -0.328140 0.923461 -0.374269 -0.084509 245 79 116
0.209511 -0.188805 -0.741783 -0.634995 0.754750 0.164723 46 223 148
-0.440661 0.228642 0.190493 0.756687 -0.653766 0.003911 223 44 127
-0.525294 0.000593 0.056104 0.995906 -0.059523 0.068027 254 119 136
0.283931 0.279314 -0.112328 -0.418612 -0.906749 0.050704 74 11 133
0.005111 -0.211306 0.626176 -0.035020 0.703597 -0.709736 123 217 37
0.213742 -0.168894 -0.772656 -0.891528 0.420034 0.169554 13 181 149
-0.013200 0.173287 0.656197 -0.053947 -0.381007 -0.922997 120 78 9
-0.387500 -0.181486 0.550776 0.476318 0.653593 -0.588164 188 210 52
-0.279679 0.164881 0.630211 0.273036 -0.637566 -0.720389 162 46 35
-0.475436 -0.181793 0.156686 0.822850 0.568218 0.006877 232 199 128
-0.100912 0.261709 0.332392 -0.500755 -0.863653 0.057857 63 17 134
0.442678 0.029719 -0.137466 -0.975600 -0.214635 0.046232 3 100 133
-0.329526 -0.090512 -0.092418 0.316351 0.429774 0.845705 167 182 235
0.158816 0.284183 -0.187135 0.201487 -0.942597 0.266296 153 7 161
0.201895 0.041661 0.682750 -0.331303 -0.230431 -0.914953 85 98 10
0.078199 0.237842 -0.301737 0.622548 -0.773818 -0.116787 206 28 112
0.447187 0.115030 0.423378 -0.723284 -0.688696 -0.050572 35 39 121
-0.047788 0.083260 -0.355380 0.875939 -0.394378 -0.277842 239 77 92
-0.467888 0.196001 0.274576 0.859841 -0.506749 0.062283 237 62 135
0.151443 0.148191 -0.964585 -0.713928 -0.369878 0.594557 36 80 203
0.343333 0.070705 -0.356583 -0.853607 -0.277192 0.441043 18 92 183
-0.076736 -0.241922 0.599863 -0.035020 0.703597 -0.709736 123 217 37
0.310543 0.154314 -0.366450 -0.765041 -0.489426 0.418538 29 65 180
-0.123548 -0.128113 -0.140308 0.156879 0.461363 0.873232 147 186 238
0.171960 0.233643 -0.489457 -0.566616 -0.820289 0.077923 55 22 137
-0.364456 -0.133763 0.607216 0.421976 0.409751 -0.808727 181 179 24
0.354367 -0.236053 0.015271 -0.791864 0.610679 -0.004731 26 205 126
0.143006 0.316460 0.011753 0.123938 -0.989678 0.071949 143 1 136
-0.175561 -0.083550 -0.140631 0.261097 0.144225 0.954478 160 145 249
-0.019088 -0.276244 0.511205 -0.113219 0.979303 0.167771 113 252 148
0.031433 -0.076388 -1.053967 -0.011003 0.526584 0.850052 126 194 235
0.202078 0.273946 -0.234444 -0.085373 -0.918988 0.384932 116 10 176
-0.052866 -0.290665 0.105518 0.111859 0.983719 -0.140657 141 252 109
0.024875 0.273748 -0.636861 0.569914 -0.813571 -0.115323 200 23 112
-0.131194 0.020388 -0.611520 0.910992 -0.076710 -0.405227 243 117 75
0.284123 0.005477 -0.531108 -0.987845 0.111416 0.108389 1 141 141
0.086361 -0.037727 -1.072913 -0.014420 0.018301 0.999729 125 129 254
0.388209 0.046140 0.554604 -0.536886 -0.404064 -0.740598 59 75 33
-0.222229 0.027033 -0.935978 0.976979 -0.054539 -0.206247 252 120 101
0.139804 0.315363 0.002178 0.123938 -0.989678 0.071949 143 1 136
0.056042 0.227009 -0.227450 0.627366 -0.776153 0.063232 207 28 135
0.043758 -0.187485 0.646173 -0.057004 0.551309 -0.832352 120 197 21
0.263535 -0.112013 -0.550234 -0.903100 0.423192 0.072928 12 181 136
-0.184055 -0.132532 -0.872720 0.934555 0.278059 -0.222013 246 162 99
-0.125875 0.197791 -0.809054 0.694015 -0.702557 -0.157344 215 37 107
0.063194 0.179311 0.649246 -0.053947 -0.381007 -0.922997 120 78 9
-0.356044 -0.301524 0.324694 0.448279 0.888586 0.097267 184 240 139
-0.045974 -0.086531 -0.328129 0.907012 0.388563 -0.162319 243 177 106
-0.437608 -0.235126 0.115681 0.709415 0.659719 0.247996 217 211 159
0.349194 0.072503 0.569808 -0.545766 -0.178667 -0.818668 57 104 23
-0.195951 -0.093962 -0.134097 0.229252 0.142178 0.962927 156 145 250
0.421024 -0.120876 -0.083986 -0.869136 0.493601 0.030978 16 190 131
-0.340442 0.024158 -0.094089 0.375289 -0.082692 0.923212 175 116 245
0.076437 0.123468 0.275975 0.338796 -0.479807 -0.809322 170 66 24
-0.122766 -0.292341 0.496240 -0.191057 0.972048 -0.136457 103 251 110
-0.220915 0.183676 0.635849 0.273036 -0.637566 -0.720389 162 46 35
0.289104 -0.057611 0.649847 -0.607004 0.319487 -0.727650 50 168 34
0.303692 -0.274771 0.130690 -0.606766 0.794861 -0.005547 50 228 126
-0.371643 0.048084 0.626337 0.522480 -0.079619 -0.848926 194 117 19
-0.003964 -0.053511 -1.063489 0.067989 0.325485 0.943100 136 168 247
-0.295708 0.112576 -0.104229 0.439012 -0.208807 0.873881 183 100 238
-0.205287 -0.097634 -0.920039 0.931671 0.316830 -0.177785 246 167 104
0.252832 -0.094029 -0.716521 -0.921677 0.374434 0.101543 9 175 140
0.155054 0.246715 -0.479870 -0.534403 -0.792528 0.293792 59 26 164
0.188445 -0.303282 0.099690 0.140343 0.968494 -0.205724 145 250 101
0.219323 0.119593 -0.814458 -0.862171 -0.452165 0.228489 17 69 156
-0.056785 -0.148785 -0.505502 0.824606 0.504964 -0.255023 232 191 94
0.264125 -0.214047 -0.370931 -0.792804 0.513362 0.328513 26 192 169
-0.005838 -0.230630 0.428895 -0.268061 0.870021 0.413772 93 238 180
0.000138 0.121461 0.313374 -0.936954 -0.340389 0.079070 8 84 137
0.413801 0.155248 0.055611 -0.913946 -0.403784 0.040761 10 76 132
0.214764 0.314805 -0.031672 -0.269208 -0.962879 0.019773 93 4 130
0.275451 -0.024972 -0.578839 -0.987845 0.111416 0.108389 1 141 141
0.187810 -0.223240 0.578529 -0.312935 0.818188 -0.482328 87 231 66
0.223238 -0.207601 -0.494569 -0.903100 0.423192 0.072928 12 181 136
-0.057270 -0.242646 -0.926745 0.419730 0.868856 0.262519 181 238 160
-0.110228 0.004846 -0.178531 0.340557 0.569853 0.747856 170 200 222
-0.006495 0.257799 -0.677910 0.539335 -0.830442 -0.139582 196 21 109
-0.114142 -0.267254 0.267820 -0.557761 0.712040 -0.426499 56 218 73
0.024177 0.041392 -1.072373 0.007429 -0.404448 0.914531 128 75 244
-0.194505 -0.132999 -0.986603 0.796526 0.160330 0.582958 229 147 201
-0.205316 -0.277591 0.033101 0.155989 0.770533 0.618018 147 225 206
-0.195621 -0.064236 -0.138565 0.229252 0.142178 0.962927 156 145 250
-0.009029 0.259027 -0.088300 0.199634 -0.586342 0.785079 152 52 227
-0.061897 -0.246641 -0.906124 0.419730 0.868856 0.262519 181 238 160
0.152498 0.092023 -1.002791 -0.687262 -0.473285 0.551065 39 67 197
0.211544 -0.198739 0.601444 -0.360350 0.789001 -0.497620 81 228 64
-0.052554 -0.041609 -0.311319 0.995707 0.003123 -0.092509 254 127 115
0.361374 -0.072986 -0.322190 -0.864311 0.221488 0.451564 17 155 185
0.187587 -0.288062 -0.166092 -0.092632 0.954192 0.284493 115 249 163
0.382928 0.195334 0.156625 -0.743008 -0.668911 -0.022303 32 42 124
-0.158770 0.159874 -0.831189 0.851219 -0.406711 -0.331681 236 75 85
0.458808 -0.020580 0.231457 -0.966288 0.256794 0.018578 4 160 129
-0.266085 0.202570 0.595209 0.199572 -0.792491 -0.576306 152 26 54
-0.099886 0.220357 -0.808349 0.456442 -0.874091 -0.166208 185 16 106
-0.001646 0.249344 -0.928141 0.027247 -0.933733 0.356932 130 8 173
-0.371125 0.140480 0.586011 0.508759 -0.450163 -0.733837 192 70 33
0.028557 -0.222807 -0.387783 0.696674 0.704100 -0.137435 216 217 109
0.298313 -0.234202 -0.264323 -0.546190 0.807535 0.222631 57 230 155
0.167574 -0.254315 -0.452960 -0.461446 0.852861 0.244326 68 236 158
0.059584 -0.263218 -0.884937 -0.452909 0.867117 0.207322 69 238 153
0.028791 -0.240454 -0.477904 0.697218 0.703850 -0.135951 216 217 110
-0.287977 -0.315742 0.385473 0.201373 0.978987 -0.032148 153 252 123
0.447268 -0.075956 0.396675 -0.966288 0.256794 0.018578 4 160 129
-0.033737 0.108725 -0.346371 0.923461 -0.374269 -0.084509 245 79 116
-0.249665 0.238150 -0.022263 0.188928 -0.787682 0.586398 151 27 202
0.322534 0.251601 -0.053801 -0.618070 -0.786004 0.013653 48 27 129
-0.335120 0.296138 0.131758 0.251120 -0.966347 0.055779 159 4 134
0.397353 -0.088808 0.545849 -0.607004 0.319487 -0.727650 50 168 34
0.372111 0.024712 0.577965 -0.536886 -0.404064 -0.740598 59 75 33
-0.091315 0.252069 0.270496 -0.560291 -0.822257 -0.099832 56 22 114
0.160339 0.219016 -0.750548 -0.670465 -0.740714 0.042659 42 33 132
0.221009 -0.093341 -0.858499 -0.864085 0.339955 0.371197 17 170 174
0.416084 0.147499 0.030052 -0.913946 -0.403784 0.040761 10 76 132
-0.544113 0.043842 0.412950 0.989429 0.130058 -0.064151 253 144 119
0.213844 -0.022977 0.694702 -0.331303 -0.230431 -0.914953 85 98 10
-0.236112 -0.109108 0.674272 0.280618 0.087294 -0.955842 163 138 5
0.211117 0.095945 -0.890569 -0.927287 -0.260370 0.268972 9 94 161
0.012429 0.260053 -0.601752 0.569914 -0.813571 -0.115323 200 23 112
0.063154 0.285344 -0.740925 -0.024821 -0.997620 0.064329 124 0 135
-0.070482 -0.091413 -0.162286 0.176217 0.255139 0.950711 149 160 248
-0.067757 0.278240 0.494650 -0.097242 -0.970150 -0.222154 115 3 99
-0.133193 -0.310451 0.131034 -0.289616 0.954474 0.071423 90 249 136
0.137625 -0.201688 0.301880 0.708713 0.685141 0.168248 217 214 148
0.051474 0.076842 -1.056917 0.007429 -0.404448 0.914531 128 75 244
-0.384439 -0.223512 0.497308 0.661959 0.629574 -0.406752 211 207 75
-0.200444 0.128258 -0.927536 0.906492 -0.353248 -0.231274 243 82 98
-0.493529 -0.157415 0.307287 0.822850 0.568218 0.006877 232 199 128
-0.376998 -0.272397 0.155182 0.448279 0.888586 0.097267 184 240 139
0.013448 0.250773 0.589205 0.069240 -0.796983 -0.600020 136 25 50
