ply
format ascii 1.0
element vertex 512
property float x
property float y
property float z
property float nx
property float ny
property float nz
property uchar red
property uchar green
property uchar blue
end_header
-0.018464 0.021523 0.582312 0.771409 -0.227254 -0.594377 225 98 51
-1.191979 -0.738446 -1.390213 -0.040876 -0.944531 -0.325869 122 7 85
-0.750873 -1.391644 -1.233251 -0.768453 0.163816 -0.618583 29 148 48
-0.120179 -0.204015 0.011717 -0.543819 0.760433 0.354968 58 224 172
-1.286786 -0.931238 -0.730326 0.508999 -0.645196 -0.569773 192 45 54
-1.323127 -0.741674 -0.790109 -0.017867 -0.852644 -0.522186 125 18 60
0.199643 0.209093 0.820798 0.464942 -0.732189 -0.497723 186 34 64
-0.859717 -0.764376 -1.400603 -0.013069 -0.634073 -0.773163 125 46 28
0.100630 -0.195521 0.404596 -0.436705 0.761733 0.478593 71 224 188
-0.395842 -0.839951 0.523672 -0.195653 -0.866255 -0.459698 102 17 68
0.405471 0.065638 0.054480 -0.182026 -0.117044 -0.976303 104 112 3
0.059032 -0.129144 0.681667 0.867615 0.184118 -0.461893 238 150 68
-1.357803 -1.295338 -1.482984 -0.710860 0.405034 -0.575000 36 179 54
-0.052165 -0.107955 0.019288 -0.829921 0.280056 0.482493 21 163 189
0.036593 0.000892 0.689705 0.875056 0.178382 -0.449952 239 150 70
0.398619 -1.215155 0.272249 -0.681597 0.308790 -0.663381 40 166 42
-0.106230 -0.165293 0.388882 0.758021 0.474530 -0.447465 224 188 70
-0.752745 -0.849807 -0.915109 -0.692024 -0.450477 -0.564070 39 70 55
-0.104668 0.068310 -0.095063 -0.896918 -0.119153 0.425841 13 112 181
0.139076 0.171605 0.422628 -0.710313 -0.499069 0.496374 36 63 190
0.297316 -0.101545 0.954933 0.046310 0.099443 -0.993965 133 140 0
-0.937518 -1.259257 -1.342038 0.593842 -0.206820 -0.777546 203 101 28
-1.486326 -1.167235 -1.105302 -0.574589 -0.037639 -0.817576 54 122 23
0.297194 -0.088729 0.529617 -0.730150 0.236647 0.640998 34 157 209
-1.450145 -0.731656 -1.289075 0.163753 -0.915041 -0.368625 148 10 80
0.027337 0.021139 0.162711 -0.954626 -0.047657 0.293971 5 121 164
0.184444 -0.121061 0.889196 0.663244 0.267054 -0.699135 212 161 38
-0.656133 -0.734195 -1.687128 -0.650014 -0.758867 -0.040033 44 30 122
0.275674 -0.943257 0.598533 -0.413546 -0.230284 -0.880880 74 98 15
0.018780 -0.035251 -0.082003 0.951139 0.275196 -0.140008 248 162 109
0.314055 0.139727 0.589790 -0.619490 -0.565352 0.544618 48 55 196
0.452584 0.210264 -0.090024 -0.562546 -0.801307 -0.203592 55 25 101
-0.521996 -0.782044 0.587300 -0.299765 -0.865402 -0.401522 89 17 76
0.625632 -1.049703 0.274346 -0.938675 -0.277420 -0.204760 7 92 101
0.448937 -0.200801 -0.059938 -0.740426 0.615768 -0.269441 33 206 93
0.390142 -0.230413 -0.065985 -0.168259 0.781214 -0.601160 106 227 50
0.044888 -0.196108 0.323134 -0.621824 0.703497 0.344134 48 217 171
-1.205025 -0.850147 -1.606382 -0.392769 -0.606902 -0.690943 77 50 39
0.556047 -1.112952 0.477835 -0.450427 -0.213689 -0.866863 70 100 16
0.408274 0.154506 0.727530 -0.761960 -0.542086 0.354345 30 58 172
-1.477741 -1.308582 -1.251645 0.510720 0.236239 -0.826654 192 157 22
-0.156799 -0.170426 -0.090113 -0.529103 0.656960 0.537080 60 211 195
-0.921186 -1.404716 -0.862106 -0.444091 0.379965 -0.811425 70 175 24
-0.792647 -0.695515 -1.297597 -0.403726 -0.806832 -0.431309 76 24 72
0.163199 0.041423 0.018513 0.225156 -0.104477 -0.968705 156 114 3
-0.224982 -0.023078 0.282758 0.836804 0.175828 -0.518502 234 149 61
0.074254 -0.077292 0.730930 0.867615 0.184118 -0.461893 238 150 68
0.061172 -1.003511 0.617763 -0.600324 -0.025755 -0.799342 50 124 25
-1.453853 -1.297841 -1.546595 0.484477 0.274361 -0.830668 189 162 21
0.441525 0.189201 -0.026084 -0.599363 -0.534313 -0.596048 51 59 51
0.197031 0.191136 0.510043 -0.619490 -0.565352 0.544618 48 55 196
-0.737532 -1.108484 -1.029222 -0.724836 -0.269189 -0.634153 35 93 46
0.361904 -0.214919 0.858050 -0.291481 0.938954 -0.182769 90 247 104
0.034507 0.031994 -0.130274 0.718161 0.007691 0.695834 219 128 216
-1.160895 -1.283369 -1.577082 -0.456620 0.234467 -0.858210 69 157 18
-0.010246 -0.961572 0.540776 -0.500613 -0.515462 -0.695475 63 61 38
0.150104 -0.045586 0.019770 0.307481 0.095291 -0.946771 166 139 6
-1.480523 -1.249675 -1.539621 0.336717 0.856773 -0.390592 170 236 77
-0.292297 -0.154999 0.085400 0.767321 0.518719 -0.377028 225 193 79
0.366605 -0.002847 0.963535 -0.086777 -0.058859 -0.994488 116 119 0
-0.987519 -0.666211 -1.835659 -0.311800 -0.937499 0.154522 87 7 147
-0.300040 -0.146756 0.080982 0.767321 0.518719 -0.377028 225 193 79
0.050268 -0.228241 0.482859 -0.135248 0.988678 0.064985 110 253 135
-0.751204 -0.723605 -1.101108 -0.669354 -0.470444 -0.575020 42 67 54
-0.883120 -1.027520 -1.982306 -0.728694 -0.479568 0.488895 34 66 189
-1.343066 -1.333051 -1.515079 0.212827 0.567209 -0.795599 154 199 26
-0.005145 -0.056237 0.113171 -0.954122 0.248437 0.167126 5 159 148
0.128547 0.037816 0.872930 0.762000 0.159144 -0.627718 224 147 47
-1.001756 -1.079891 -0.724867 -0.486197 -0.266496 -0.832221 65 93 21
-0.328871 0.165633 -0.022464 0.752534 -0.632808 -0.182336 223 46 104
-1.170195 -0.891213 -1.903347 -0.408231 -0.808537 0.423810 75 24 181
-0.260880 0.107232 0.174801 0.850526 -0.344260 -0.397607 235 83 76
0.114775 -0.183811 0.750915 0.562514 0.673556 -0.479479 199 213 66
0.315066 -1.167682 0.144795 -0.538516 -0.560191 0.629434 58 56 207
-0.074027 -0.006174 -0.051365 -0.896918 -0.119153 0.425841 13 112 181
0.367910 -0.087345 0.609232 -0.723761 0.256069 0.640779 35 160 209
-1.568990 -0.912162 -1.166241 0.430404 -0.771402 -0.468713 182 29 67
0.063428 0.154266 0.663103 0.826953 -0.254977 -0.501133 232 94 63
-0.085663 -0.084604 -0.053191 -0.848341 0.292537 0.441293 19 164 183
-1.148286 -1.363081 -1.565819 -0.493411 0.258434 -0.830517 64 160 21
-0.040074 -0.062211 0.013533 -0.829921 0.280056 0.482493 21 163 189
0.034417 0.111772 0.634427 0.850845 -0.261724 -0.455590 235 94 69
-1.314407 -1.304807 -1.507215 -0.276927 0.180376 -0.943809 92 150 7
0.393386 -0.204021 0.784846 -0.743325 0.566063 0.356429 32 199 172
-0.643979 -0.699428 -1.478087 -0.620986 -0.764443 -0.173217 48 30 105
0.321109 -0.055121 0.960686 0.046310 0.099443 -0.993965 133 140 0
-0.281269 -0.021046 0.179998 0.888116 0.028590 -0.458729 240 131 69
-1.173201 -0.682067 -1.722822 -0.174317 -0.960447 -0.217154 105 5 99
-0.117316 0.217216 0.293471 0.303327 -0.935328 -0.182084 166 8 104
0.199319 -0.039953 0.932609 0.457375 0.291366 -0.840187 185 164 20
0.022839 0.124901 0.605263 0.850845 -0.261724 -0.455590 235 94 69
-0.321875 -0.108970 0.083909 0.886745 0.333940 -0.319637 240 170 86
-0.809802 -0.666708 -0.961372 -0.311045 -0.858428 -0.407863 87 18 75
0.528627 -1.228530 0.392915 -0.776425 0.291566 -0.558707 28 164 56
-0.575184 -0.886510 -1.756001 -0.787195 -0.612687 -0.070277 27 49 118
0.488527 0.032984 0.933758 -0.590233 -0.433188 -0.681156 52 72 40
-0.610653 -1.313212 -1.602550 -0.991358 -0.014049 -0.130429 1 125 110
0.348942 -0.092202 0.589748 -0.723761 0.256069 0.640779 35 160 209
-0.490860 -0.970558 0.363269 -0.109957 -0.892401 0.437641 113 13 183
-0.674026 -0.639646 -1.477374 -0.612799 -0.767478 -0.188295 49 29 103
-0.846804 -0.671317 -1.483467 -0.068776 -0.898622 -0.433300 118 12 72
0.108403 -0.234291 0.589588 0.244806 0.969478 0.013516 158 251 129
-0.069830 -0.207792 0.158472 -0.616634 0.773544 0.146261 48 226 146
-1.467431 -1.316805 -1.264367 0.176193 0.609481 -0.772974 149 205 28
-1.075739 -0.758043 -0.810088 -0.325868 -0.837087 -0.439427 85 20 71
-0.534391 -1.136828 -1.489198 -0.930564 -0.269349 -0.247996 8 93 95
-0.042058 -1.076613 0.204740 0.548558 -0.720814 -0.423687 197 35 73
-0.355669 0.011761 0.027566 0.917498 -0.197150 -0.345440 244 102 83
-0.650869 -0.813080 -1.161418 -0.733683 -0.455348 -0.504348 33 69 63
0.098434 -0.075363 0.287442 -0.827793 0.241290 0.506496 21 158 192
0.159703 -0.185924 0.800654 0.562514 0.673556 -0.479479 199 213 66
-1.260674 -0.885118 -1.857853 -0.382994 -0.801711 0.458884 78 25 186
-1.348774 -0.708439 -1.128971 0.189085 -0.884936 -0.425600 151 14 73
0.347524 -1.140936 0.413330 -0.498702 -0.198112 -0.843830 63 102 19
-1.153837 -0.920529 0.165770 0.424777 -0.223488 -0.877279 181 99 15
0.304764 0.088949 0.950128 0.068031 -0.423195 -0.903481 136 73 12
-0.992957 -1.349545 -0.732309 -0.769813 -0.001393 -0.638268 29 127 46
-1.131157 -0.906888 -1.943642 -0.385371 -0.807925 0.445810 78 24 184
0.269820 0.181814 0.901906 0.270109 -0.411545 -0.870444 161 75 16
-0.640495 -0.762459 -1.652242 -0.781923 -0.617946 -0.082098 27 48 117
-0.215184 -0.051456 0.288948 0.836804 0.175828 -0.518502 234 149 61
-0.286445 0.195375 0.030905 0.758207 -0.591900 -0.273454 224 52 92
-1.068440 -1.229354 -1.934855 -0.604694 -0.379615 0.700170 50 79 216
0.446691 -1.329490 0.366183 -0.751728 0.246272 -0.611764 31 158 49
0.256024 0.159618 0.000347 0.252971 -0.538125 -0.804007 159 58 24
0.037559 -0.057552 0.668414 0.875056 0.178382 -0.449952 239 150 70
-1.003325 -1.133298 -0.662784 -0.491989 -0.236807 -0.837776 64 97 20
0.042817 -0.131918 0.652293 0.806630 0.159742 -0.569062 230 147 54
0.197011 0.154419 0.892264 0.270109 -0.411545 -0.870444 161 75 16
-0.821853 -1.073104 0.183285 0.369596 -0.211859 -0.904718 174 100 12
0.024639 0.087584 0.630062 0.850845 -0.261724 -0.455590 235 94 69
0.258081 -0.101759 0.489875 -0.730150 0.236647 0.640998 34 157 209
0.094154 -0.177304 0.728210 0.742506 0.590602 -0.316029 222 202 87
0.198283 0.195698 0.839232 0.464942 -0.732189 -0.497723 186 34 64
-1.576601 -0.954018 -1.249292 0.426166 -0.777334 -0.462746 181 28 68
0.426695 -0.036249 0.959863 -0.184597 -0.062461 -0.980828 103 119 2
-0.722807 -0.925869 -1.896555 -0.766301 -0.593336 0.246445 29 51 158
-1.613230 -1.107308 -1.388377 0.612954 -0.664222 -0.427899 205 42 72
-0.598952 -1.195847 -1.189150 -0.869933 -0.037076 -0.491774 16 122 64
-1.063127 -1.334602 -1.429626 -0.062976 0.297652 -0.952595 119 165 6
-1.642612 -1.052942 -1.671012 0.635841 -0.597299 -0.488815 208 51 65
-0.531513 -1.038931 -1.605426 -0.939072 -0.249434 -0.236488 7 95 97
0.172175 0.225034 0.527257 -0.252686 -0.927201 0.276491 95 9 162
-0.781909 -1.341006 -1.191819 -0.784171 0.179309 -0.594074 27 150 51
-0.729860 -0.925832 0.258126 -0.682550 -0.701166 0.206134 40 38 153
-0.876392 -0.660137 -1.504218 -0.057148 -0.896804 -0.438722 120 13 71
0.394597 0.176572 0.897665 -0.470956 -0.604985 -0.642023 67 50 45
-1.345151 -0.703572 -0.912653 0.200143 -0.888328 -0.413299 153 14 74
-1.530304 -1.079313 -1.636025 -0.811725 -0.142146 -0.566478 24 109 55
0.245095 -0.203699 -0.055872 0.112311 0.858582 -0.500223 141 236 63
-0.065760 -0.089308 -0.014838 -0.827403 0.282057 0.485642 22 163 189
-0.222329 0.159604 0.208123 0.732429 -0.515484 -0.444775 220 61 70
-0.909470 -1.165680 0.378596 0.385673 -0.166118 -0.907558 176 106 11
0.529352 -1.181722 0.221372 -0.927378 -0.296160 0.228603 9 89 156
-0.960491 -0.943028 0.067203 -0.673046 -0.720737 0.165972 41 35 148
-1.137831 -0.671330 -1.670161 -0.353226 -0.649141 -0.673682 82 44 41
0.346638 0.132758 0.932760 0.068031 -0.423195 -0.903481 136 73 12
-0.375613 0.021821 -0.027597 0.830772 -0.197848 -0.520264 233 102 61
-1.382706 -0.908953 -0.758102 -0.423077 -0.331014 -0.843466 73 85 19
0.096363 -0.230553 0.539548 0.244806 0.969478 0.013516 158 251 129
0.363650 -0.192735 0.704910 -0.743325 0.566063 0.356429 32 199 172
-0.079622 -0.213517 0.147462 -0.616634 0.773544 0.146261 48 226 146
-1.200131 -1.014616 -0.545047 -0.454804 -0.381277 -0.804849 69 78 24
0.033458 0.122672 0.224330 -0.749797 -0.460319 0.475300 31 68 188
-0.986874 -0.625347 -0.842345 -0.530738 -0.602321 -0.596260 59 50 51
0.315548 -0.159066 0.021202 0.197829 0.610409 -0.766984 152 205 29
-0.321955 -0.122799 0.069240 0.886745 0.333940 -0.319637 240 170 86
-1.303821 -1.279991 -0.768539 0.506247 0.032997 -0.861757 192 131 17
-0.002442 -0.148542 0.565727 0.768124 0.235021 -0.595610 225 157 51
-0.092403 -0.108035 -0.050615 -0.848341 0.292537 0.441293 19 164 183
0.550790 -0.018432 -0.129514 -0.965532 0.106379 -0.237552 4 141 97
-0.359493 0.016553 0.014674 0.917498 -0.197150 -0.345440 244 102 83
0.155226 -0.035254 0.348161 -0.730150 0.236647 0.640998 34 157 209
-0.189961 0.167758 0.251974 0.732429 -0.515484 -0.444775 220 61 70
-0.143813 -0.133106 -0.129687 -0.806402 0.295315 0.512352 24 165 192
-1.046074 -1.069951 0.335062 0.280613 -0.407925 -0.868823 163 75 16
0.274307 -0.876612 0.120264 -0.800595 -0.577001 0.161608 25 53 148
-0.340672 -0.948630 0.681303 -0.226059 -0.283544 -0.931934 98 91 8
-0.897455 -1.089318 -0.120667 -0.955965 -0.162358 0.244482 5 106 158
-0.385983 0.049982 -0.054865 0.830772 -0.197848 -0.520264 233 102 61
-0.721231 -1.343245 -0.986813 -0.764924 -0.013340 -0.643983 29 125 45
-1.199863 -1.010379 -1.552473 -0.434587 -0.357864 -0.826479 72 81 22
0.159134 -0.018806 0.349219 -0.723245 -0.144232 0.675362 35 109 213
-0.957698 -0.731541 0.264690 -0.370799 -0.926484 -0.064311 80 9 119
-0.731766 -0.893588 -0.842906 -0.707637 -0.451207 -0.543748 37 69 58
0.094203 0.223380 0.437545 -0.350779 -0.879968 0.320328 82 15 168
0.404259 -0.207464 -0.040113 -0.168259 0.781214 -0.601160 106 227 50
0.270360 -0.135995 0.936950 0.195735 0.624903 -0.755768 152 207 31
0.014925 0.204608 0.286572 -0.386348 -0.914352 0.121228 78 10 142
-0.294698 -0.122198 0.123699 0.749003 0.518800 -0.412118 222 193 74
0.198724 0.127263 0.445665 -0.619490 -0.565352 0.544618 48 55 196
-0.662868 -1.216085 -1.210524 -0.694631 -0.038865 -0.718316 38 122 35
-0.763263 -0.854141 0.550518 -0.095326 -0.932750 0.347692 115 8 171
0.431317 0.047579 0.046281 -0.658263 -0.127601 -0.741894 43 111 32
0.295463 -0.210895 0.634069 -0.638365 0.564512 0.523275 46 199 194
-0.360780 -1.206896 0.490025 -0.671800 0.544133 -0.502598 41 196 63
-0.320251 0.097570 0.061125 0.836273 -0.339780 -0.430345 234 84 72
-0.912189 -0.975389 -0.568885 -0.514968 -0.295517 -0.804660 61 89 24
0.427787 -0.986757 0.398959 -0.377037 -0.544906 -0.748946 79 58 32
-1.041125 -0.683316 -1.603713 -0.139125 -0.982576 -0.123240 109 2 111
0.316329 -0.134403 0.944206 -0.074838 0.454964 -0.887359 117 185 14
0.400095 0.191367 0.865315 -0.677459 -0.733056 -0.060651 41 34 119
0.106862 0.125767 -0.030572 0.359149 -0.413451 -0.836702 173 74 20
0.277842 0.236445 0.835171 0.283893 -0.876132 -0.389613 163 15 77
-0.727730 -0.988673 0.152227 -0.616543 -0.773054 0.149205 48 28 146
-1.319006 -1.061473 -0.565531 -0.283554 -0.323445 -0.902763 91 86 12
-0.770456 -1.110004 -0.921226 -0.728660 -0.285823 -0.622383 34 91 48
-0.307452 -0.188118 -0.004147 0.532457 0.843415 -0.071700 195 235 118
-0.329830 -1.377811 0.657611 -0.269898 0.071556 -0.960226 93 136 5
0.283981 -0.153613 0.925910 0.195735 0.624903 -0.755768 152 207 31
0.466833 -0.064704 0.933856 -0.614290 0.386678 -0.687843 49 176 39
-1.107653 -1.169668 0.256989 -0.013898 -0.282651 -0.959122 125 91 5
0.453741 0.140834 0.876862 -0.677459 -0.733056 -0.060651 41 34 119
-0.230084 -0.132300 0.228413 0.749003 0.518800 -0.412118 222 193 74
-1.030661 -0.825451 -1.408987 -0.282806 -0.567001 -0.773648 91 55 28
0.243526 0.213718 -0.064834 0.074744 -0.909323 -0.409323 137 11 75
-1.222921 -1.371021 -1.350512 -0.711207 0.448774 0.541098 36 184 196
-0.149971 -0.237458 0.197082 0.099874 0.982525 -0.157068 140 252 107
-0.648623 -1.208658 -1.819106 -0.893798 -0.304306 0.329428 13 88 169
-0.169070 -0.098112 0.350808 0.841924 0.199222 -0.501472 234 152 63
-1.091856 -1.289056 -0.639671 -0.463550 -0.080191 -0.882435 68 117 14
0.277488 0.005144 0.481079 -0.723245 -0.144232 0.675362 35 109 213
-0.150967 -0.021886 0.411483 0.841924 0.199222 -0.501472 234 152 63
0.179338 -0.194088 0.815894 0.613309 0.667568 -0.422145 205 212 73
0.214479 -0.212881 -0.093093 0.384119 0.851300 -0.357408 176 236 81
-0.024004 -1.075792 0.650946 -0.590275 -0.250118 -0.767474 52 95 29
0.261974 -0.205473 0.874077 0.352599 0.811074 -0.466727 172 230 67
0.260563 -0.118198 0.938814 0.457375 0.291366 -0.840187 185 164 20
-1.212737 -1.261188 -1.885954 -0.475451 -0.261988 0.839827 66 94 234
-1.355968 -0.880634 -1.879308 -0.376128 -0.798034 0.470817 79 25 187
-0.021154 0.211633 0.224571 -0.386348 -0.914352 0.121228 78 10 142
0.230054 0.086869 0.030792 0.272114 -0.105427 -0.956472 162 114 5
-0.098713 0.231093 0.119424 -0.183927 -0.981743 -0.048486 104 2 121
-0.906234 -1.379755 -0.921067 -0.695737 0.495227 -0.520288 38 190 61
-0.713689 -0.755614 -1.173300 -0.606466 -0.637364 -0.475358 50 46 66
-1.096305 -1.426782 -0.891064 -0.610543 0.505354 -0.609800 49 191 49
-1.551026 -1.153093 -1.803187 0.340703 -0.850433 0.400855 170 19 178
0.082908 -0.131672 0.725508 0.867615 0.184118 -0.461893 238 150 68
0.467899 -1.143851 0.542777 -0.419290 -0.199196 -0.885730 74 102 14
0.031875 -1.197073 0.139337 0.317884 0.388721 -0.864781 168 177 17
0.182957 0.104946 0.012380 0.359149 -0.413451 -0.836702 173 74 20
-1.613449 -1.209460 -1.236094 0.654742 -0.052180 -0.754049 210 120 31
0.169804 0.140333 -0.015528 0.292024 -0.533256 -0.793952 164 59 26
-0.777226 -0.993933 0.512894 0.123204 -0.627941 -0.768447 143 47 29
-1.012550 -0.820553 -0.646839 -0.286341 -0.593802 -0.751936 90 51 31
0.001058 0.075867 0.127598 -0.846745 -0.266413 0.460485 19 93 186
0.010899 -1.058748 0.657778 -0.624119 -0.230955 -0.746415 47 98 32
0.021369 0.213721 0.329459 -0.370466 -0.870615 0.323704 80 16 168
-1.016160 -1.366276 -0.829992 -0.450208 0.397342 -0.799645 70 178 25
-1.419876 -0.768421 -1.786959 -0.139556 -0.948785 0.283426 109 6 163
-1.347520 -1.033879 -1.885057 -0.290468 -0.636681 0.714329 90 46 218
-0.050123 0.227122 0.355277 0.308867 -0.933984 -0.179650 166 8 104
0.093360 -0.026062 0.812586 0.772209 0.156839 -0.615707 225 147 48
0.192165 -1.039813 0.517346 -0.497921 -0.537824 -0.680309 64 58 40
0.279099 -0.246043 0.779553 0.129699 0.988454 -0.078344 144 253 117
-1.209885 -0.687468 -0.901568 -0.303582 -0.866175 -0.396963 88 17 76
0.238149 -0.148947 0.496886 -0.638337 0.566223 0.521457 46 199 193
-1.185934 -1.430663 -0.860974 -0.378825 0.237535 -0.894466 79 157 13
-1.348588 -0.731281 -1.498043 0.150298 -0.946561 -0.285364 146 6 91
-0.956443 -1.404131 -1.068753 -0.673935 0.437816 -0.595087 41 183 51
-0.087557 -0.186497 0.040751 -0.674967 0.672004 0.304680 41 213 166
0.164281 0.032151 0.902859 0.605487 -0.199284 -0.770501 204 102 29
0.394769 0.080672 0.636221 -0.724992 -0.266897 0.634942 35 93 208
-0.982451 -1.339409 -1.488695 -0.118675 0.242276 -0.962922 112 158 4
0.263558 -0.695190 0.424785 -0.034179 -0.899286 -0.436024 123 12 71
-0.093050 -1.006194 -0.130980 -0.405432 -0.820094 0.403820 75 22 178
0.166203 -0.180544 -0.067955 0.384119 0.851300 -0.357408 176 236 81
-0.864594 -1.027583 0.306017 -0.032582 -0.237400 -0.970865 123 97 3
-0.333169 -1.219445 0.601969 -0.203788 -0.348330 -0.914952 101 83 10
-1.507385 -0.895875 -0.950973 -0.602898 -0.065999 -0.795084 50 119 26
0.232417 0.196662 0.869700 0.464942 -0.732189 -0.497723 186 34 64
0.348906 -0.955545 0.539472 -0.405169 -0.246157 -0.880480 75 96 15
0.216334 -0.249515 0.662947 0.087592 0.989959 -0.110942 138 253 113
0.036263 -0.827024 0.069098 -0.437485 -0.887696 0.143537 71 14 145
-0.263759 -0.974766 0.705088 -0.493981 0.498991 0.712033 64 191 218
0.480231 -0.001917 0.947601 -0.184597 -0.062461 -0.980828 103 119 2
-0.070854 -0.230366 0.252309 -0.600182 0.777936 0.186002 50 226 151
0.000871 0.231771 0.418777 0.308867 -0.933984 -0.179650 166 8 104
-1.201888 -1.239909 -1.076061 0.540338 -0.822490 0.177609 196 22 150
0.239184 -0.232912 -0.118304 0.388903 0.841816 0.374300 177 234 175
-0.162908 -0.167173 -0.109084 -0.721416 0.629011 0.289663 35 207 164
-0.024221 -0.227229 0.389482 0.323891 0.936163 -0.136724 168 246 110
0.146514 -0.114092 0.855877 0.663244 0.267054 -0.699135 212 161 38
-0.145754 0.067339 0.394781 0.821372 -0.186140 -0.539166 232 103 58
0.053259 -0.216477 0.577527 0.611965 0.740021 -0.279047 205 221 91
-0.963125 -0.959875 -1.954309 -0.561087 -0.556380 0.612880 55 56 205
0.282556 -0.191857 -0.027135 0.112311 0.858582 -0.500223 141 236 63
0.372616 0.146044 0.031167 0.206208 -0.347364 -0.914777 153 83 10
0.030200 0.210684 0.331397 -0.370466 -0.870615 0.323704 80 16 168
-0.446296 -0.736410 0.415738 -0.404811 -0.850094 -0.336849 75 19 84
0.279176 -0.092715 0.045840 0.189343 0.094269 -0.977375 151 139 2
-1.054016 -0.988243 -0.665783 -0.519606 -0.248036 -0.817611 61 95 23
-1.218410 -0.921253 -0.518981 -0.295826 -0.476253 -0.828052 89 66 21
0.274554 -0.248242 0.744287 0.129699 0.988454 -0.078344 144 253 117
0.219106 -0.181714 -0.023971 0.112311 0.858582 -0.500223 141 236 63
0.448855 0.076005 0.714849 -0.851556 -0.271216 0.448658 18 92 184
-0.026277 0.106256 0.539776 0.771409 -0.227254 -0.594377 225 98 51
-0.898755 -1.190530 -1.951261 -0.676200 -0.390373 0.624790 41 77 207
-1.036425 -1.376431 -1.797698 -0.293565 0.855674 -0.426195 90 236 73
-0.341006 0.034408 0.053586 0.917498 -0.197150 -0.345440 244 102 83
-0.809496 -1.142882 0.258101 0.255983 -0.131035 -0.957759 160 110 5
-0.012586 -0.923572 0.560909 -0.871276 0.214588 0.441395 16 154 183
-0.152265 0.068713 0.384386 0.821372 -0.186140 -0.539166 232 103 58
0.473989 0.084204 0.001705 -0.705969 -0.071463 -0.704628 37 118 37
-0.081165 0.011543 0.502335 0.794072 -0.185021 -0.578980 228 103 53
0.005730 -0.833164 0.354941 -0.152291 -0.889288 -0.431248 108 14 72
0.604859 -0.906536 0.409368 -0.438135 -0.369237 -0.819574 71 80 23
-0.992105 -0.681539 -0.924948 -0.315824 -0.842034 -0.437303 87 20 71
-0.377297 -0.088009 -0.040696 0.838950 0.334838 -0.429006 234 170 72
0.413206 -0.034621 0.961349 -0.086777 -0.058859 -0.994488 116 119 0
-1.161798 -0.748176 -1.898823 -0.171796 -0.979798 0.102377 105 2 140
-1.490114 -1.009649 -1.049322 -0.554375 -0.409680 -0.724453 56 75 35
-0.490785 -0.941874 -1.717784 -0.812684 -0.527228 -0.248143 23 60 95
0.454233 0.201635 -0.060618 -0.562546 -0.801307 -0.203592 55 25 101
-0.844147 -1.322655 0.240481 -0.975820 -0.084550 0.201561 3 116 153
0.305534 0.221683 0.648027 -0.630135 -0.480985 0.609576 47 66 205
-1.345383 -1.393040 -1.181184 -0.591872 0.380473 -0.710583 52 176 36
0.141687 -1.223136 0.441137 -0.536506 -0.032157 -0.843284 59 123 19
0.459013 -0.128688 0.000600 -0.666133 0.140189 -0.732540 42 145 34
0.502167 0.042065 0.898618 -0.852809 -0.361932 -0.376459 18 81 79
0.277711 -1.311871 0.176560 -0.701567 0.657110 -0.275699 38 211 92
-0.352877 0.142214 -0.037996 0.862968 -0.297106 -0.408674 237 89 75
-1.147249 -0.760039 -1.490685 -0.038568 -0.771642 -0.634887 122 29 46
-0.164145 0.189124 0.269723 0.732429 -0.515484 -0.444775 220 61 70
0.318581 -0.903431 0.190246 0.070259 -0.855347 0.513270 136 18 192
-0.066448 0.111886 -0.012279 -0.816855 -0.500477 0.286828 23 63 164
0.071064 -0.199550 0.377470 -0.621824 0.703497 0.344134 48 217 171
0.113973 -0.113818 0.330176 -0.730150 0.236647 0.640998 34 157 209
-0.658384 -0.749342 -1.134525 -0.703218 -0.437276 -0.560602 37 71 56
0.386841 -0.115918 0.947737 -0.074838 0.454964 -0.887359 117 185 14
-0.049334 0.038175 -0.001900 -0.835928 -0.097306 0.540144 20 115 196
-1.493970 -1.247427 -1.144856 0.487662 0.189017 -0.852325 189 151 18
-0.221854 -0.068416 0.272432 0.836804 0.175828 -0.518502 234 149 61
0.093722 0.133753 0.320048 -0.708192 -0.491601 0.506747 37 64 192
-0.083766 -0.042775 0.499443 0.800219 0.165773 -0.576340 229 148 54
0.012103 0.067451 0.616726 0.876418 -0.242576 -0.415991 239 96 74
-0.131797 -1.124490 0.533774 -0.940690 0.000836 -0.339265 7 127 84
-0.020178 -0.925012 0.087167 0.294104 -0.853400 -0.430362 164 18 72
-1.153386 -1.387176 -1.643916 -0.276931 0.848251 -0.451420 92 235 69
-0.819091 -1.413007 -0.968670 -0.795784 -0.030634 -0.604806 26 123 50
-0.702997 -0.835997 -0.946301 -0.702988 -0.453644 -0.547737 37 69 57
-0.601311 -0.811628 0.616911 -0.193561 -0.933005 0.303375 102 8 166
-0.078691 0.144133 0.009122 -0.816855 -0.500477 0.286828 23 63 164
-0.789099 -0.638834 -1.430623 -0.215402 -0.813129 -0.540762 100 23 58
0.243229 0.036297 0.040115 0.272114 -0.105427 -0.956472 162 114 5
0.415937 -0.807751 0.162972 -0.374499 -0.909933 -0.178249 79 11 104
-0.921799 -1.444766 -1.598385 -0.469083 0.680486 -0.562938 67 214 55
0.338681 0.217096 -0.050434 0.112760 -0.892597 -0.436526 141 13 71
-0.725839 -1.198325 0.636439 -0.036945 -0.338607 -0.940202 122 84 7
-1.109047 -1.025514 -1.940935 -0.567329 -0.540550 0.621244 55 58 206
-0.808655 -1.083812 -0.843229 -0.732773 -0.254396 -0.631131 34 95 47
-1.514602 -1.146012 -1.832469 0.527856 -0.185632 0.828800 194 103 233
-0.029457 -0.961302 0.459358 -0.887016 -0.404513 -0.222649 14 75 99
0.128250 0.125013 0.360290 -0.710313 -0.499069 0.496374 36 63 190
0.051604 -0.181898 0.306222 -0.621824 0.703497 0.344134 48 217 171
0.092626 0.218719 0.423014 -0.350779 -0.879968 0.320328 82 15 168
-1.044164 -1.425841 -1.696432 -0.268666 0.840726 -0.470104 93 234 67
-1.185093 -1.239017 -0.849737 -0.652520 0.472043 -0.592785 44 187 51
0.030158 0.021983 0.172009 -0.954626 -0.047657 0.293971 5 121 164
-0.818528 -1.086110 -0.744797 -0.703692 -0.254215 -0.663470 37 95 42
0.145387 0.243246 0.603913 0.082581 -0.975624 0.203319 138 3 153
-0.605278 -1.246054 -1.716404 -0.998399 -0.054336 -0.015740 0 120 125
-0.022632 -0.862962 0.535332 -0.875032 0.478847 0.070887 15 188 136
-0.079996 -1.135649 0.697227 -0.614133 -0.238777 -0.752214 49 97 31
-1.046725 -0.836684 0.104723 -0.707538 -0.649881 0.277569 37 44 162
-0.317483 -0.166997 0.017634 0.767321 0.518719 -0.377028 225 193 79
-0.300500 -1.165999 0.222856 0.359834 -0.903167 -0.234112 173 12 97
0.553036 0.015970 -0.123238 -0.965532 0.106379 -0.237552 4 141 97
-0.340035 0.065575 0.038378 0.917498 -0.197150 -0.345440 244 102 83
-0.693203 -0.716384 -1.640234 -0.653513 -0.753923 -0.067242 44 31 118
-0.217261 -0.872483 0.467094 -0.874904 -0.413792 -0.251635 15 74 95
-0.419846 -0.677733 0.561176 -0.235265 -0.969432 -0.069653 97 3 118
-1.099251 -0.766720 -1.339981 0.457366 -0.888176 -0.044265 185 14 121
-0.863411 -0.990387 0.208214 -0.710441 -0.660039 0.244175 36 43 158
0.094624 0.163092 0.350457 -0.710313 -0.499069 0.496374 36 63 190
-1.169380 -0.676521 -1.662546 -0.146937 -0.975454 -0.164009 108 3 106
-1.091295 -1.039007 -1.391499 0.116209 -0.911746 0.393974 142 11 177
0.239088 -0.146699 0.495594 -0.638337 0.566223 0.521457 46 199 193
-0.094187 0.003298 -0.086944 -0.794557 0.108893 0.597345 26 141 203
0.063437 -0.945284 0.705794 -0.586902 -0.388098 -0.710581 52 78 36
0.110755 0.178213 0.753044 0.582734 -0.632050 -0.510817 201 46 62
-0.050950 -1.171579 0.471835 -0.859418 -0.041872 -0.509556 17 122 62
-0.375179 -0.819570 0.226954 -0.769869 -0.170381 0.615038 29 105 205
-1.003177 -0.896655 -1.938184 -0.500373 -0.782740 0.370060 63 27 174
0.635770 -0.985257 0.210128 -0.706575 -0.692863 0.143849 37 39 145
0.441634 -0.024125 0.036099 -0.664410 0.138420 -0.734438 42 145 33
-1.012840 -1.358148 -1.020622 -0.655311 0.550787 -0.516916 43 197 61
-0.274440 0.226808 -0.119180 -0.126763 -0.990242 -0.057896 111 1 120
-1.520547 -0.762317 -1.524206 0.195962 -0.900733 -0.387657 152 12 78
-0.900898 -0.806359 0.389776 0.214723 -0.693358 -0.687858 154 39 39
0.383293 0.185028 0.897026 -0.100218 -0.577660 -0.810102 114 53 24
0.220749 -0.022779 0.417211 -0.723761 0.256069 0.640779 35 160 209
-0.237759 -1.116034 0.644282 -0.259775 -0.384593 -0.885779 94 78 14
-0.601601 -1.306391 -1.625061 -0.994011 -0.045624 -0.099298 0 121 114
-0.818661 -1.362280 -0.765882 -0.648303 0.652909 -0.391681 44 210 77
0.140539 0.213777 0.737003 0.573579 -0.737431 -0.356654 200 33 82
0.352637 -0.175728 0.015577 -0.168259 0.781214 -0.601160 106 227 50
-0.261935 0.120979 0.160640 0.850526 -0.344260 -0.397607 235 83 76
0.505387 -0.122947 -0.052210 -0.872251 0.172421 -0.457657 16 149 69
0.231207 -1.063856 0.038438 -0.428034 -0.716527 0.550797 72 36 197
0.216961 -0.122635 0.450743 -0.730150 0.236647 0.640998 34 157 209
-1.125856 -0.711546 -1.473927 -0.041127 -0.780784 -0.623446 122 27 48
-0.064467 -0.193850 0.112813 -0.684961 0.670501 0.285055 40 212 163
-0.071290 -0.964497 0.443473 -0.896471 -0.402251 -0.185831 13 76 103
-1.471672 -0.788587 -1.803761 0.093121 -0.948282 -0.303464 139 6 88
-1.037664 -1.389753 0.217082 0.298225 -0.082577 -0.950917 165 116 6
0.248371 0.237921 0.640112 -0.252686 -0.927201 0.276491 95 9 162
-1.519256 -0.873836 -1.094571 0.447237 -0.773186 -0.449626 184 28 70
-0.957683 -1.232054 -1.911437 -0.662334 -0.404739 0.630477 43 75 207
-1.117513 -1.348314 -1.837534 -0.312828 -0.663389 0.679745 87 42 214
0.551015 -0.026957 -0.134249 -0.965532 0.106379 -0.237552 4 141 97
0.268474 -1.148181 0.253627 0.346465 -0.682811 -0.643219 171 40 45
-1.080408 -1.421919 -0.976008 -0.495049 0.484177 -0.721456 64 189 35
-1.175901 -0.953745 -1.068464 0.466810 -0.883833 -0.030472 187 14 123
0.308208 -0.024948 0.058000 0.189343 0.094269 -0.977375 151 139 2
-1.440012 -0.878028 -1.809910 0.108375 -0.968836 0.222737 141 3 155
0.078031 -0.797729 0.544025 -0.321839 -0.784909 -0.529469 86 27 59
-1.222948 -1.375784 -0.653823 0.496841 -0.060333 -0.865742 190 119 17
-0.084974 -0.009093 -0.072430 -0.794557 0.108893 0.597345 26 141 203
-0.966005 -0.863187 -1.901183 -0.505842 -0.791292 0.343483 63 26 171
-1.353266 -1.236892 -0.607411 0.429602 -0.068210 -0.900438 182 118 12
-0.620188 -0.743916 -1.449604 -0.629738 -0.716732 -0.299542 47 36 89
-0.115440 -0.214559 0.041566 -0.543819 0.760433 0.354968 58 224 172
-1.226044 -0.709033 -1.684551 -0.155084 -0.970704 -0.183531 107 3 104
-0.170098 -0.891687 -0.143576 -0.434050 -0.812136 0.389918 72 23 177
-1.477385 -1.066806 -0.723157 0.468163 -0.394417 -0.790733 187 77 26
0.171603 0.219811 0.770988 0.582734 -0.632050 -0.510817 201 46 62
-1.456179 -1.308555 -1.700116 0.245997 0.500025 -0.830338 158 191 21
0.273839 -1.295159 0.367828 -0.836261 0.539971 -0.095384 20 196 115
-0.018577 -0.082722 0.077161 -0.897463 0.335522 0.286329 13 170 164
0.542245 0.101707 -0.121112 -0.919886 -0.339929 -0.195596 10 84 102
-0.068979 0.048628 -0.030419 -0.835928 -0.097306 0.540144 20 115 196
0.324713 -0.049908 0.054706 -0.186905 0.243182 -0.951803 103 158 6
-0.759221 -1.079684 0.392232 -0.430540 -0.757743 0.490369 72 30 190
-1.284480 -1.182454 -1.878719 -0.596904 -0.366477 0.713723 51 80 218
-0.301112 0.079491 0.112758 0.850526 -0.344260 -0.397607 235 83 76
-0.073299 -0.084483 -0.030486 -0.827403 0.282057 0.485642 22 163 189
-1.201442 -1.344764 -1.318129 -0.636578 0.560995 0.529200 46 199 194
0.087535 0.094104 0.749001 0.922209 -0.220154 -0.317903 245 99 86
-1.248098 -0.761274 -0.819044 -0.321021 -0.846454 -0.424808 86 19 73
-0.115973 -1.211125 0.643659 -0.331934 0.067027 -0.940918 85 136 7
-0.879804 -0.605676 0.415055 -0.777577 -0.622090 0.091536 28 48 139
-0.125616 0.237933 0.158492 -0.295466 -0.946016 0.133240 89 6 144
-0.180143 -0.191839 0.237044 0.707686 0.568968 -0.418875 217 200 74
0.012657 -0.226717 0.385978 -0.132535 0.988700 0.070053 110 253 136
-1.425904 -1.344485 -1.524428 -0.974056 0.061491 -0.217794 3 135 99
-0.909596 -0.734562 0.178420 -0.546716 -0.836232 0.042636 57 20 132
-0.749034 -0.662833 0.380942 -0.347582 -0.895479 -0.278036 83 13 92
0.325911 -0.170937 0.628108 -0.638365 0.564512 0.523275 46 199 194
-0.305396 -0.091039 0.128925 0.888116 0.028590 -0.458729 240 131 69
-0.052349 -0.199465 0.443918 0.758021 0.474530 -0.447465 224 188 70
-0.589489 -1.225316 -1.683974 -0.997595 -0.057223 -0.039119 0 120 122
0.463483 -0.199888 -0.101218 -0.647500 0.740117 -0.181579 44 221 104
0.015693 -0.208933 0.323821 -0.369838 0.869571 0.327210 80 238 169
0.435706 -0.153062 0.774931 -0.634772 0.655223 0.409571 46 211 179
-0.543788 -1.128561 -1.598922 -0.939244 -0.248432 -0.236860 7 95 97
0.006424 -0.832488 0.386328 -0.172587 -0.843468 -0.508700 105 19 62
0.262352 0.047246 0.960183 0.478815 -0.226035 -0.848318 188 98 19
-1.376412 -1.013957 -0.678668 0.558757 -0.540888 -0.628674 198 58 47
-0.042811 -0.209770 0.250995 -0.408171 0.875842 0.257485 75 239 160
-0.257889 0.120032 0.170115 0.850526 -0.344260 -0.397607 235 83 76
-0.282079 -0.208395 -0.054241 0.532457 0.843415 -0.071700 195 235 118
-0.059026 -0.040228 -0.030491 -0.869882 -0.058160 0.489819 16 120 189
0.065249 0.233359 0.470519 0.052454 -0.997243 -0.052492 134 0 120
0.416543 -0.062127 0.654120 -0.797998 0.267607 0.539986 25 161 196
-1.081458 -1.143897 -0.621584 -0.486421 -0.250190 -0.837138 65 95 20
-1.253495 -1.360281 -1.524830 -0.193862 0.981005 -0.006912 102 252 126
0.271166 -0.202246 -0.047524 0.112311 0.858582 -0.500223 141 236 63
-1.124098 -0.646423 -0.905594 -0.276203 -0.750014 -0.600992 92 31 50
0.180176 -0.763266 0.522955 0.358937 0.905417 -0.226680 173 242 98
0.579400 -0.852267 0.382754 -0.668707 -0.572408 -0.474532 42 54 66
-0.204711 -0.153561 0.247528 0.707686 0.568968 -0.418875 217 200 74
-0.369749 0.076599 -0.039065 0.830772 -0.197848 -0.520264 233 102 61
-0.202559 -0.218476 -0.057945 -0.040505 0.998266 -0.042723 122 254 122
-0.985579 -1.486135 -0.949820 -0.622099 0.782761 -0.016706 48 227 125
0.505942 0.002635 0.830951 -0.959996 -0.137584 0.243882 5 109 158
-1.062602 -0.697796 -1.693325 -0.156874 -0.974594 -0.159866 107 3 107
0.139779 -0.197088 0.442812 -0.436705 0.761733 0.478593 71 224 188
-0.064947 -0.174449 0.066025 -0.684961 0.670501 0.285055 40 212 163
-0.707800 -1.379767 -1.663666 -0.967272 0.253743 0.000470 4 159 127
-0.623337 -1.353744 -1.583307 -0.971119 0.013837 -0.238192 3 129 97
-0.031079 -1.066079 0.206081 0.576621 -0.666002 -0.473234 201 42 67
-0.505065 -1.047556 0.651551 -0.320926 -0.367555 -0.872875 86 80 16
-0.019182 -0.214072 0.298061 -0.369838 0.869571 0.327210 80 238 169
-0.020933 0.188051 0.490494 0.730330 -0.499165 -0.466318 220 63 68
0.410458 0.051627 0.956485 -0.086777 -0.058859 -0.994488 116 119 0
0.496882 0.186357 -0.143433 -0.692389 -0.721142 -0.023485 39 35 124
-0.225365 -0.147094 0.218367 0.749003 0.518800 -0.412118 222 193 74
0.398684 0.148470 0.036122 0.206208 -0.347364 -0.914777 153 83 10
0.391300 -0.245077 -0.090570 -0.466147 0.856726 -0.220743 68 236 99
0.170751 0.115368 0.886420 0.605487 -0.199284 -0.770501 204 102 29
-0.044452 -0.216540 0.271421 -0.408171 0.875842 0.257485 75 239 160
0.429412 0.101241 0.693201 -0.851556 -0.271216 0.448658 18 92 184
0.524998 -0.059608 -0.067670 -0.924957 0.094167 -0.368221 9 139 80
0.308010 0.202408 0.635378 -0.630135 -0.480985 0.609576 47 66 205
-1.418408 -1.102009 -1.884926 -0.574810 -0.329070 0.749203 54 85 223
-0.700367 -0.954054 -0.881720 -0.708821 -0.446945 -0.545723 37 70 57
0.088963 -1.251750 0.060885 -0.979728 -0.195259 0.044794 2 102 133
-0.771091 -1.348380 0.507457 0.007605 0.294583 -0.955596 128 165 5
-1.256091 -0.724129 -1.531388 -0.620041 -0.721794 -0.307509 48 35 88
-1.070629 -1.088219 0.143552 0.413944 -0.243874 -0.877027 180 96 15
0.097038 -0.014751 0.818906 0.918725 -0.153057 -0.364031 244 107 81
0.584441 -1.166308 0.204736 -0.918502 -0.299190 0.258535 10 89 160
-0.619395 -0.965241 -1.043748 -0.822961 -0.271312 -0.499124 22 92 63
0.145000 0.218729 0.733937 0.573579 -0.737431 -0.356654 200 33 82
-1.569929 -1.179899 -1.726808 0.694717 -0.611922 -0.378047 216 49 79
-1.448902 -0.764874 -1.176727 0.172099 -0.900017 -0.400439 149 12 76
-1.294136 -0.733356 -1.311193 -0.036131 -0.948460 -0.314832 122 6 87
-0.092652 -0.161617 -0.018660 -0.827403 0.282057 0.485642 22 163 189
-1.152706 -1.099463 -0.559660 -0.396257 -0.331112 -0.856356 76 85 18
0.087885 0.207028 0.385707 -0.350779 -0.879968 0.320328 82 15 168
0.052437 0.138818 -0.074403 0.755143 -0.399937 -0.519432 223 76 61
