ply
format ascii 1.0
element vertex 512
property float x
property float y
property float z
property float nx
property float ny
property float nz
property uchar red
property uchar green
property uchar blue
end_header
0.010245 -0.034429 -0.606482 -0.986125 0.137027 -0.093706 1 144 115
0.154199 0.228579 0.323171 -0.248772 -0.945313 0.210938 95 6 154
0.149916 0.140289 0.685053 0.009672 -0.374443 -0.927199 128 79 9
-0.021377 0.169893 -0.578155 -0.763666 -0.566237 0.310143 30 55 167
0.337207 -0.049646 0.488678 -0.981345 0.190836 0.023323 2 151 130
0.053652 0.175145 -0.345823 -0.834960 -0.511610 0.202723 21 62 153
0.169963 0.108415 -0.013820 -0.941446 -0.318065 0.111869 7 86 141
-0.151677 0.197064 -0.250129 0.695872 -0.685118 -0.215351 216 40 100
-0.189777 0.121843 0.396694 -0.106129 -0.469470 0.876547 113 67 239
-0.087410 -0.169318 0.134057 0.777980 0.412500 -0.473910 226 180 67
-0.224381 -0.161345 -0.472121 0.801739 0.591413 -0.086281 229 202 116
0.020599 0.219705 0.615635 0.229595 -0.871355 -0.433621 156 16 72
-0.255278 0.029751 -0.370364 0.990792 -0.135317 -0.004521 253 110 126
0.011893 0.168427 0.670513 0.122988 -0.447608 -0.885732 143 70 14
0.030688 -0.225647 -0.261343 -0.599433 0.789403 0.132374 51 228 144
0.146507 -0.108503 0.683249 0.012577 0.464386 -0.885544 129 186 14
-0.234921 -0.151331 -0.519641 0.928752 0.365837 -0.059864 245 174 119
-0.041832 -0.256093 -0.020618 0.233607 0.971222 -0.046424 157 251 121
-0.236117 0.129122 -0.465993 0.947686 -0.313801 -0.058490 248 87 120
-0.178705 0.082952 -0.072771 0.985660 -0.082507 -0.147197 253 116 108
-0.043927 -0.194099 0.176776 0.669232 0.590562 -0.450959 212 202 70
0.142185 -0.227197 0.269855 -0.412623 0.890787 0.190370 74 241 151
-0.260023 -0.070094 0.374682 0.172237 0.253467 0.951887 149 159 248
-0.206493 -0.189654 -0.499950 0.801739 0.591413 -0.086281 229 202 116
-0.064963 0.195664 0.617102 0.242122 -0.873244 -0.422874 158 16 73
-0.138100 0.206838 0.487983 0.013903 -0.943738 0.330402 129 7 169
-0.101562 -0.188398 0.076794 0.759104 0.640650 -0.115453 224 209 112
-0.007948 0.176661 0.257494 0.627703 -0.602700 -0.492688 207 50 64
-0.014933 0.178423 -0.546716 -0.763666 -0.566237 0.310143 30 55 167
-0.181303 -0.184207 -0.766345 0.828831 0.472311 0.299934 233 187 165
-0.115876 -0.204552 -0.068993 0.952507 0.266544 -0.147257 248 161 108
0.109070 -0.263166 0.525990 0.106819 0.970115 -0.217869 141 251 99
-0.078088 -0.218448 -0.680388 -0.456604 0.819141 -0.347161 69 231 83
0.047813 0.053928 -0.511412 -0.921391 -0.019797 0.388132 10 124 176
-0.258620 0.003641 -0.636209 0.997464 -0.071121 0.002725 254 118 127
-0.148567 0.019708 0.379318 -0.309841 -0.046521 0.949649 87 121 248
0.068831 -0.109509 -1.028334 -0.144313 0.314236 0.938312 109 167 247
-0.164607 -0.146305 -0.870546 0.911143 0.291555 0.291228 243 164 164
0.120767 -0.142233 -0.134842 -0.873396 0.465169 0.144209 16 186 145
-0.083778 -0.256391 -0.273126 0.050478 0.997118 -0.056629 133 254 120
-0.238229 0.136212 -0.538253 0.947686 -0.313801 -0.058490 248 87 120
0.166497 -0.193440 0.224422 -0.704979 0.594181 0.387239 37 203 176
-0.112749 -0.193188 -0.023339 0.759104 0.640650 -0.115453 224 209 112
-0.220094 0.173542 -0.534951 0.842099 -0.537120 -0.048694 234 59 121
-0.209640 -0.193178 0.443834 0.270042 0.942339 0.197672 161 247 152
-0.042672 0.225862 -0.933536 -0.269401 -0.905522 0.327801 93 12 169
-0.257554 0.147213 0.420879 0.262335 -0.557741 0.787468 160 56 227
0.046162 0.157298 -0.855627 -0.905034 -0.362872 -0.221897 12 81 99
-0.101104 0.153782 -0.996290 0.637243 -0.585431 0.501190 208 52 191
-0.129593 -0.082577 0.135824 0.861438 0.041714 -0.506146 237 132 62
-0.235408 -0.108678 -0.701712 0.963476 0.265511 0.034891 250 161 131
0.016812 -0.064181 -0.671173 -0.824139 0.237023 -0.514407 22 157 61
-0.131547 -0.163027 -0.939438 0.870623 0.317375 0.375883 238 167 175
-0.232927 -0.158261 -0.646138 0.879978 0.424616 0.212931 239 181 154
0.030545 0.106731 -0.525629 -0.871975 -0.360542 0.331162 16 81 169
0.074373 0.171610 -0.272646 -0.795109 -0.478583 0.372507 26 66 174
0.225334 0.236065 0.427048 -0.434743 -0.864489 0.252303 72 17 159
-0.015513 0.114545 -1.038413 -0.014678 -0.309147 0.950901 125 88 248
0.009695 -0.164458 0.301907 0.852336 0.266920 -0.449752 236 161 70
-0.028041 -0.081923 0.281950 0.785733 0.279535 -0.551801 227 163 57
-0.007369 0.252840 0.065613 0.083692 -0.996457 -0.008368 138 0 126
-0.236448 -0.127034 -0.643415 0.993818 0.090795 0.063885 254 139 135
-0.190387 0.170508 0.561821 0.396281 -0.763295 -0.510238 178 30 62
0.112526 -0.182554 -0.038132 -0.739192 0.665178 0.105517 33 212 140
-0.104146 -0.225176 -0.661991 -0.456604 0.819141 -0.347161 69 231 83
0.019019 0.022226 -0.673245 -0.828512 -0.181830 -0.529628 21 104 59
0.083177 -0.260061 0.527123 0.106819 0.970115 -0.217869 141 251 99
0.281804 0.125135 0.336937 -0.866809 -0.345473 0.359571 16 83 173
0.261215 -0.067064 0.273694 -0.828152 0.322681 0.458303 21 168 185
-0.039506 -0.198885 -0.989969 -0.053766 0.610388 0.790276 120 205 228
0.169492 -0.019576 -0.146833 -0.983240 0.160931 0.085673 2 148 138
-0.200162 -0.199500 0.461027 0.270042 0.942339 0.197672 161 247 152
0.254641 -0.028254 0.242617 -0.850049 0.091531 0.518689 19 139 193
0.101511 -0.071347 -0.892728 -0.948447 0.310275 -0.064633 6 167 119
0.224648 0.000296 0.180960 -0.934047 0.123318 0.335186 8 143 170
0.115798 -0.083751 0.691316 0.015272 0.242815 -0.969952 129 158 3
0.054051 0.192551 0.375017 0.636021 -0.707697 0.307640 208 37 166
-0.293597 -0.025561 0.376891 0.388537 0.227774 0.892837 177 156 241
0.054044 0.138661 -0.401583 -0.892578 -0.390797 0.224906 13 77 156
0.004148 -0.208256 -0.851669 -0.545727 0.836964 -0.040897 57 234 122
-0.208784 0.182083 -0.433565 0.842099 -0.537120 -0.048694 234 59 121
0.233924 0.073540 0.707867 0.012069 -0.258614 -0.965905 129 94 4
-0.087693 -0.133252 0.442139 -0.243060 0.346500 0.906013 96 171 243
-0.172206 0.027143 -0.001012 0.989838 -0.035507 -0.137699 253 122 109
-0.027918 -0.177757 -0.637271 -0.861046 0.507078 -0.038355 17 192 122
-0.068658 -0.216985 0.092965 0.476479 0.747303 -0.463148 188 222 68
-0.128184 0.017065 0.146942 0.860761 0.087396 -0.501450 237 138 63
0.098187 0.157762 -0.239607 -0.795109 -0.478583 0.372507 26 66 174
-0.012151 -0.144929 -0.613413 -0.951688 0.269803 0.146618 6 161 146
0.214265 -0.074035 0.695299 0.015272 0.242815 -0.969952 129 158 3
0.072917 0.057744 -0.804253 -0.895400 -0.360554 -0.261267 13 81 94
-0.356749 -0.011627 0.423456 0.863563 -0.242430 0.442139 237 96 183
-0.113481 0.135729 -0.998686 0.748488 -0.478915 0.458700 222 66 185
-0.196116 -0.210112 -0.560017 0.733697 0.679458 -0.005098 221 214 126
-0.045803 0.033941 0.422651 -0.467115 0.067828 0.881591 67 136 239
0.293219 0.175447 0.594961 -0.548609 -0.550783 -0.629020 57 57 47
-0.025571 -0.141568 0.457817 0.591779 0.365412 0.718521 202 174 219
-0.245538 -0.076469 -0.667085 0.963476 0.265511 0.034891 250 161 131
0.285138 0.122185 0.661099 -0.645152 -0.435892 -0.627516 45 71 47
0.213277 0.109756 0.198809 -0.840285 -0.485043 0.242186 20 65 158
-0.158735 0.090328 -0.935469 0.925103 -0.366125 0.100682 245 80 140
-0.213252 -0.000571 -0.226067 0.903697 -0.054349 -0.424709 242 120 73
0.319948 0.116511 0.524926 -0.986527 0.154801 0.052925 1 147 134
0.107684 0.072098 -0.948828 -0.867819 -0.413202 -0.275961 16 74 92
0.021417 -0.149849 0.396961 0.952529 0.256307 0.164304 248 160 148
0.179131 0.058689 -0.039206 -0.975660 -0.201625 0.086228 3 101 138
0.161910 0.176126 0.167169 -0.753477 -0.585889 0.298341 31 52 165
-0.148690 -0.218910 -0.308499 0.669515 0.708134 -0.224267 212 217 98
-0.027257 0.255010 -0.153833 0.059466 -0.998020 -0.020471 135 0 124
-0.177848 -0.202898 -0.360442 0.776215 0.619667 -0.116200 226 206 112
0.193725 0.223083 0.345155 -0.248772 -0.945313 0.210938 95 6 154
0.041755 -0.188340 0.357066 0.631523 0.735038 0.246776 208 221 158
-0.073846 -0.256200 -0.183952 0.233607 0.971222 -0.046424 157 251 121
0.165636 0.144709 0.101661 -0.798507 -0.594023 0.097584 25 51 139
0.203112 -0.226487 0.606144 -0.006543 0.658010 -0.752980 126 211 31
-0.260002 -0.017621 -0.532849 0.999973 0.007346 0.000730 254 128 127
0.284822 0.175845 0.428536 -0.750722 -0.547291 0.369985 31 57 174
-0.000760 -0.243698 -0.296105 -0.599433 0.789403 0.132374 51 228 144
-0.147553 0.151549 -0.063097 0.872698 -0.482870 -0.072355 238 65 118
-0.128698 -0.157894 0.438254 -0.548333 0.307644 0.777616 57 166 226
0.067777 0.230788 -0.099874 -0.628721 -0.772025 0.093208 47 29 139
-0.206089 -0.167294 -0.724840 0.827122 0.470166 0.307918 232 187 166
-0.247294 0.079336 -0.605243 0.979023 -0.203748 0.000948 252 101 127
-0.018071 0.099450 -1.043360 -0.014678 -0.309147 0.950901 125 88 248
0.129913 -0.084071 -0.221108 -0.837475 0.460464 0.294292 20 186 165
0.176116 0.027124 -0.107179 -0.993127 -0.049032 0.106279 0 121 141
0.025859 -0.043806 -1.053842 -0.155875 0.245511 0.956780 107 158 249
0.087566 -0.112377 -0.885064 -0.948447 0.310275 -0.064633 6 167 119
0.244355 0.102647 0.700204 0.012069 -0.258614 -0.965905 129 94 4
-0.166872 0.088288 0.003472 0.985660 -0.082507 -0.147197 253 116 108
-0.028527 -0.250557 0.067393 0.103143 0.983665 -0.147527 140 252 108
0.151953 0.269987 0.543180 0.167912 -0.957298 -0.235345 148 5 97
0.004817 -0.070317 0.409565 0.989597 0.141139 -0.027881 253 145 123
-0.155036 0.144345 -0.105280 0.872698 -0.482870 -0.072355 238 65 118
-0.066011 -0.203405 0.499754 0.027411 0.883716 0.467220 130 240 187
0.094237 0.251594 0.576818 0.167912 -0.957298 -0.235345 148 5 97
0.323162 0.114962 0.589371 -0.986527 0.154801 0.052925 1 147 134
0.013719 -0.131511 0.415722 0.989597 0.141139 -0.027881 253 145 123
-0.158420 0.090843 -0.936493 0.925103 -0.366125 0.100682 245 80 140
-0.141467 -0.026942 0.381053 -0.392092 0.210012 0.895633 77 154 241
-0.255459 0.038866 -0.682866 0.990792 -0.135317 -0.004521 253 110 126
0.099511 0.263147 0.533587 0.167912 -0.957298 -0.235345 148 5 97
0.034558 -0.187524 -0.881878 -0.789262 0.610522 -0.065792 26 205 119
-0.130881 -0.179182 -0.916876 0.745369 0.643239 0.175122 222 209 149
0.170016 -0.087280 0.691286 0.015272 0.242815 -0.969952 129 158 3
0.088834 -0.189113 -0.152544 -0.773224 0.633411 0.030243 28 208 131
-0.082184 -0.257181 -0.251106 0.173889 0.984306 0.030076 149 252 131
-0.239206 -0.121611 -0.608211 0.993818 0.090795 0.063885 254 139 135
-0.129644 -0.185480 -0.899007 0.745369 0.643239 0.175122 222 209 149
-0.189489 -0.061685 -0.162912 0.977113 0.142441 -0.157987 252 145 107
0.056818 -0.197917 -0.282259 -0.794380 0.579633 0.181620 26 201 150
-0.118414 0.223538 -0.687111 0.417159 -0.908033 -0.038152 180 11 122
-0.213750 0.157335 0.560662 0.643438 -0.527015 -0.555196 209 60 56
0.016723 0.105635 0.382955 0.950733 -0.120051 0.285821 248 112 163
-0.156122 -0.165805 0.591073 0.393793 0.508293 -0.765875 177 192 29
-0.027213 -0.098492 0.683536 0.284528 0.221258 -0.932785 163 155 8
0.039623 0.233132 0.214844 0.444240 -0.862700 -0.241661 184 17 96
0.221546 -0.240610 0.443494 -0.510213 0.834920 0.206376 62 233 153
0.082185 -0.092262 -0.378310 -0.856381 0.450176 0.252889 18 184 159
-0.020216 0.221028 -0.803786 -0.668689 -0.714200 -0.206815 42 36 101
-0.274558 -0.145605 0.503596 0.611217 0.582996 -0.535285 205 201 59
-0.164141 -0.231777 -0.446729 0.566299 0.811834 -0.142237 199 231 109
0.072679 0.240569 0.018712 -0.440309 -0.897711 0.015617 71 13 129
-0.225384 -0.171555 0.531482 0.611217 0.582996 -0.535285 205 201 59
0.266227 -0.225707 0.584637 -0.785105 0.617380 -0.049524 27 206 121
0.042782 0.185604 0.665636 0.009672 -0.374443 -0.927199 128 79 9
-0.245829 0.049323 0.372900 0.158092 -0.215508 0.963620 147 100 250
0.122061 -0.223294 0.210055 -0.353238 0.912989 0.204141 82 243 153
0.038076 0.163390 -0.832611 -0.905034 -0.362872 -0.221897 12 81 99
0.027641 -0.227233 -0.265681 -0.599433 0.789403 0.132374 51 228 144
-0.172014 -0.154878 -0.838789 0.911143 0.291555 0.291228 243 164 164
0.008099 0.241222 -0.312916 -0.373021 -0.926122 -0.056159 79 9 120
-0.163523 -0.223073 -0.394588 0.566299 0.811834 -0.142237 199 231 109
-0.166416 -0.112629 -0.040025 0.919570 0.391169 -0.037110 244 177 122
-0.025307 -0.174326 -0.577565 -0.782761 0.500121 0.370357 27 191 174
-0.067251 -0.023233 -1.068304 -0.048281 0.049662 0.997598 121 133 254
0.169308 -0.242624 0.375720 -0.055620 0.996643 0.060077 120 254 135
0.155146 -0.167145 0.136974 -0.746130 0.629066 0.218096 32 207 155
0.081723 0.156958 -0.276107 -0.834960 -0.511610 0.202723 21 62 153
-0.121702 0.116843 0.149929 0.788445 -0.412121 -0.456630 228 74 69
0.058640 -0.151467 -0.354180 -0.895790 0.397584 0.198715 13 178 152
-0.120440 -0.247916 -0.353854 0.594630 0.796688 -0.108177 203 229 113
0.341218 -0.029079 0.489132 -0.981345 0.190836 0.023323 2 151 130
0.150000 -0.002555 0.707793 0.031643 0.129405 -0.991087 131 143 1
-0.190422 0.144579 -0.821814 0.851945 -0.338637 0.399392 236 84 178
-0.015617 0.255188 -0.128670 0.059466 -0.998020 -0.020471 135 0 124
0.216500 0.242546 0.434035 -0.434743 -0.864489 0.252303 72 17 159
-0.150838 0.190397 -0.840663 0.593714 -0.769013 0.236901 203 29 157
-0.001888 0.058083 0.699038 0.062156 -0.075064 -0.995240 135 117 0
-0.275682 -0.062781 0.559357 0.783918 0.154766 -0.601265 227 147 50
0.024064 0.255615 0.049485 0.083692 -0.996457 -0.008368 138 0 126
-0.125180 0.017251 0.152130 0.860761 0.087396 -0.501450 237 138 63
0.044372 -0.150795 -0.419811 -0.895057 0.397463 0.202226 13 178 153
-0.118591 0.211985 -0.212885 0.449372 -0.850478 -0.273408 184 19 92
-0.123949 -0.163666 0.066838 0.759104 0.640650 -0.115453 224 209 112
0.005936 -0.265102 -0.112611 -0.366742 0.930063 0.021983 80 246 130
-0.188618 -0.194092 -0.385430 0.776215 0.619667 -0.116200 226 206 112
-0.191077 0.056237 -0.144166 0.989838 -0.035507 -0.137699 253 122 109
0.051208 -0.030116 -0.725857 -0.902292 -0.047082 -0.428547 12 121 72
-0.041130 -0.166260 -1.015278 -0.053766 0.610388 0.790276 120 205 228
0.014142 0.001412 -0.595085 -0.986125 0.137027 -0.093706 1 144 115
0.062036 -0.125439 -0.390951 -0.895790 0.397584 0.198715 13 178 152
0.011560 0.194710 -0.855256 -0.607444 -0.793757 -0.031002 50 26 123
0.323902 0.149713 0.542674 -0.760120 -0.632430 0.149167 30 46 146
-0.226915 0.134847 -0.741368 0.825733 -0.513982 0.232351 232 61 157
-0.045014 0.229914 -0.488312 -0.705006 -0.680483 0.199772 37 40 152
0.040447 0.231780 -0.254820 -0.673482 -0.710137 0.205250 41 36 153
-0.037115 0.031395 -1.066982 -0.026689 -0.046374 0.998568 124 121 254
0.186632 -0.265763 0.534923 -0.008555 0.986197 -0.165356 126 253 106
0.323859 0.102581 0.493696 -0.933371 -0.354891 -0.053577 8 82 120
-0.305948 -0.086908 0.513686 0.783918 0.154766 -0.601265 227 147 50
0.060136 0.229831 0.257521 0.262537 -0.932287 -0.248828 160 8 95
0.031767 0.171780 -0.430813 -0.679670 -0.688591 0.252769 40 39 159
0.114512 0.265520 0.503131 0.453436 -0.863924 0.219160 185 17 155
-0.099094 -0.031826 0.671748 0.458254 -0.004903 -0.888808 185 126 14
-0.323016 0.026970 0.505696 0.741374 -0.201295 -0.640191 222 101 45
-0.072811 0.030841 0.684075 0.358894 -0.130218 -0.924250 173 110 9
0.025059 0.205602 0.264143 0.627703 -0.602700 -0.492688 207 50 64
-0.055553 0.009024 -1.068514 -0.026689 -0.046374 0.998568 124 121 254
-0.067836 -0.041082 0.237570 0.811850 0.164790 -0.560128 231 148 56
-0.149422 0.125990 0.085277 0.893024 -0.445782 -0.061533 241 70 119
0.282215 -0.179619 0.622201 -0.585453 0.599855 -0.545362 52 203 57
0.333189 -0.086697 0.586307 -0.987093 0.158206 0.024885 1 147 130
0.283910 -0.151124 0.658139 -0.295702 0.550711 -0.780562 89 197 27
0.036971 0.171629 0.362200 0.636021 -0.707697 0.307640 208 37 166
-0.231028 -0.139347 -0.386000 0.928752 0.365837 -0.059864 245 174 119
-0.146110 0.106314 0.393664 -0.106129 -0.469470 0.876547 113 67 239
0.162564 -0.044636 -0.179267 -0.983240 0.160931 0.085673 2 148 138
-0.057914 0.076223 0.251292 0.757282 -0.106251 -0.644387 224 113 45
0.330379 0.057260 0.603904 -0.986301 -0.112760 -0.120398 1 113 112
-0.085825 0.227233 -0.171619 0.547773 -0.836507 0.014149 197 20 129
0.321617 0.094662 0.585213 -0.933371 -0.354891 -0.053577 8 82 120
0.297253 0.176199 0.519172 -0.760120 -0.632430 0.149167 30 46 146
0.077335 -0.230125 0.068075 -0.535152 0.834882 0.128782 59 233 143
-0.106424 0.215924 -0.042779 0.547773 -0.836507 0.014149 197 20 129
-0.162448 -0.199616 -0.778328 0.655120 0.641122 0.399725 211 209 178
0.116830 0.061469 0.706197 0.062156 -0.075064 -0.995240 135 117 0
0.339763 -0.045393 0.623167 -0.986301 -0.112760 -0.120398 1 113 112
-0.108786 0.233819 -0.618397 0.451864 -0.875047 0.173525 185 15 149
0.109755 -0.053570 -0.314631 -0.887417 0.127132 0.443090 14 143 183
0.158019 0.132749 0.688183 0.009672 -0.374443 -0.927199 128 79 9
-0.122373 -0.205378 0.545567 -0.084587 0.969552 -0.229815 116 251 98
-0.009546 -0.201921 -0.470704 -0.621037 0.690601 0.370652 48 215 174
-0.240891 0.126014 -0.645957 0.997372 -0.070245 0.017756 254 118 129
0.079397 -0.125413 -0.999490 -0.741779 0.504605 0.441745 32 191 183
-0.184720 0.059618 -0.892698 0.844872 -0.271208 0.461127 235 92 186
0.064994 0.245385 0.120313 -0.403159 -0.908797 -0.107474 76 11 113
-0.158697 -0.137803 0.409151 -0.548333 0.307644 0.777616 57 166 226
0.101322 -0.253085 0.437048 0.355368 0.927208 0.118319 172 245 142
-0.008705 0.143418 -0.585636 -0.966640 -0.192383 0.169103 4 102 149
0.329744 0.096060 0.434372 -0.933371 -0.354891 -0.053577 8 82 120
0.297604 0.157487 0.427315 -0.750722 -0.547291 0.369985 31 57 174
0.181924 0.086943 0.058470 -0.975660 -0.201625 0.086228 3 101 138
0.119950 0.203422 0.654132 -0.077433 -0.517572 -0.852129 117 61 18
-0.260086 -0.011899 -0.476054 0.999973 0.007346 0.000730 254 128 127
0.329488 -0.101172 0.531533 -0.987093 0.158206 0.024885 1 147 130
0.137842 -0.169316 0.055930 -0.873396 0.465169 0.144209 16 186 145
-0.241965 0.042278 -0.319530 0.923549 -0.204701 -0.324275 245 101 86
0.215371 0.052110 0.159060 -0.919036 -0.193003 0.343689 10 102 171
0.041181 0.254503 -0.068400 -0.440309 -0.897711 0.015617 71 13 129
0.092764 0.012665 -0.827455 -0.967633 0.012540 -0.252049 4 129 95
0.030170 -0.182444 0.640642 0.020007 0.486225 -0.873605 130 189 16
0.295280 -0.166681 0.460522 -0.919092 0.381258 0.099562 10 176 140
0.315796 -0.005836 0.361769 -0.939540 0.080994 0.332724 7 137 169
0.219581 -0.081606 0.693487 0.015272 0.242815 -0.969952 129 158 3
0.001963 -0.091897 -0.603359 -0.986125 0.137027 -0.093706 1 144 115
-0.165918 0.044181 0.034586 0.985660 -0.082507 -0.147197 253 116 108
-0.313931 0.030406 0.394215 0.431669 -0.153435 0.888887 182 107 240
0.067105 -0.023432 -0.455710 -0.969001 0.040843 0.243658 3 132 158
-0.305600 0.097902 0.421718 0.664680 -0.419983 0.617912 212 73 206
-0.137639 0.238031 -0.522021 0.451864 -0.875047 0.173525 185 15 149
-0.020442 0.209880 -0.469835 -0.705006 -0.680483 0.199772 37 40 152
-0.130443 -0.226285 -0.277314 0.669515 0.708134 -0.224267 212 217 98
-0.245106 -0.184651 0.446096 0.218217 0.964440 0.149121 155 250 146
0.056839 -0.030836 -0.493788 -0.936451 -0.022663 0.350066 8 124 172
-0.041652 0.158371 0.666417 0.403480 -0.312624 -0.859924 178 87 17
0.099765 0.124239 -0.284371 -0.834960 -0.511610 0.202723 21 62 153
-0.128458 -0.195563 0.488051 -0.231792 0.869421 0.436325 97 238 183
0.066833 0.243710 0.034452 -0.440309 -0.897711 0.015617 71 13 129
0.082776 -0.203180 -0.083999 -0.535152 0.834882 0.128782 59 233 143
-0.256959 0.026451 -0.639997 0.990792 -0.135317 -0.004521 253 110 126
-0.270335 -0.169890 0.478067 0.760449 0.604787 -0.236538 224 204 97
0.037095 0.148510 -0.806744 -0.895400 -0.360554 -0.261267 13 81 94
-0.001054 0.193317 0.656137 0.122988 -0.447608 -0.885732 143 70 14
-0.109196 0.041639 0.183818 0.860761 0.087396 -0.501450 237 138 63
0.080445 0.025386 -0.795202 -0.907212 -0.047014 -0.418038 11 121 74
-0.260404 0.077263 0.381539 0.158092 -0.215508 0.963620 147 100 250
-0.122665 -0.099783 0.136705 0.777980 0.412500 -0.473910 226 180 67
0.039775 -0.112249 -0.487684 -0.900698 0.260150 0.347945 12 160 171
0.173255 -0.018467 -0.105732 -0.983240 0.160931 0.085673 2 148 138
-0.144451 -0.028170 0.115021 0.861438 0.041714 -0.506146 237 132 62
0.336443 -0.056171 0.509917 -0.981345 0.190836 0.023323 2 151 130
0.129594 -0.018088 -1.022021 -0.843052 0.537784 -0.007155 20 196 126
0.242897 0.056321 0.222068 -0.845706 -0.167483 0.506687 19 106 192
-0.186957 0.217540 -0.511533 0.705472 -0.706070 0.061439 217 37 135
0.225977 -0.139895 0.667915 0.012577 0.464386 -0.885544 129 186 14
0.080753 -0.039475 -0.797213 -0.940004 0.036805 -0.339172 7 132 84
0.242621 -0.040187 0.225024 -0.850049 0.091531 0.518689 19 139 193
-0.151603 0.144599 -0.065572 0.872698 -0.482870 -0.072355 238 65 118
-0.224324 -0.180029 -0.610227 0.733697 0.679458 -0.005098 221 214 126
-0.133358 0.165118 0.034949 0.893024 -0.445782 -0.061533 241 70 119
-0.175945 0.139810 -0.222384 0.839074 -0.419777 -0.346038 234 73 83
-0.033245 -0.065833 -1.057819 -0.155875 0.245511 0.956780 107 158 249
-0.221318 -0.156820 -0.412645 0.801739 0.591413 -0.086281 229 202 116
0.144085 0.228954 0.309098 -0.436623 -0.897138 0.067115 71 13 136
0.236805 0.241623 0.511252 -0.573258 -0.819230 0.015416 54 23 129
-0.094999 0.256731 -0.442563 -0.103186 -0.994501 0.017884 114 0 129
-0.157035 0.159851 -0.880082 0.851945 -0.338637 0.399392 236 84 178
0.331449 0.087469 0.461569 -0.933371 -0.354891 -0.053577 8 82 120
0.071818 0.227754 0.284058 0.309391 -0.950338 -0.033677 166 6 123
-0.100454 0.231940 -0.245147 0.449372 -0.850478 -0.273408 184 19 92
-0.224559 0.142051 -0.733191 0.832570 -0.514385 0.205513 233 61 153
-0.210782 0.127771 -0.792521 0.852518 -0.338640 0.398166 236 84 178
0.174489 -0.099388 0.083289 -0.908908 0.400083 0.117556 11 178 142
-0.251105 0.061303 -0.400189 0.990792 -0.135317 -0.004521 253 110 126
-0.191027 -0.153927 0.579946 0.511581 0.411303 -0.754397 192 179 31
-0.139222 -0.078175 0.111080 0.969835 0.175519 -0.169157 251 149 105
0.125110 -0.123990 -0.167384 -0.873396 0.465169 0.144209 16 186 145
0.053750 -0.219184 0.276032 0.293754 0.929005 -0.225074 164 245 98
-0.232859 0.138409 -0.463038 0.947686 -0.313801 -0.058490 248 87 120
-0.178835 0.100688 -0.100981 0.872698 -0.482870 -0.072355 238 65 118
0.345007 0.017258 0.521537 -0.986301 -0.112760 -0.120398 1 113 112
0.042064 -0.181025 -0.911611 -0.789262 0.610522 -0.065792 26 205 119
0.299151 0.050030 0.313882 -0.845706 -0.167483 0.506687 19 106 192
-0.006706 0.141724 0.681426 0.122988 -0.447608 -0.885732 143 70 14
-0.296634 -0.114019 0.408971 0.574156 0.410561 0.708368 200 179 217
-0.049362 -0.074650 0.430010 -0.243060 0.346500 0.906013 96 171 243
0.143833 0.045134 -0.249096 -0.823398 -0.038906 0.566130 22 122 199
-0.146950 -0.029211 0.110682 0.861438 0.041714 -0.506146 237 132 62
-0.022416 -0.025099 -1.066041 -0.048281 0.049662 0.997598 121 133 254
0.263390 -0.025483 0.708182 0.033842 0.176446 -0.983728 131 149 2
-0.153801 -0.190241 -0.272579 0.806999 0.493282 -0.324693 230 190 86
-0.037347 0.174931 -1.023564 0.350803 -0.586249 0.730239 172 52 220
-0.073695 -0.259539 -0.319577 0.050478 0.997118 -0.056629 133 254 120
-0.282321 -0.026758 0.553910 0.727738 0.025199 -0.685393 220 130 40
-0.350860 0.017401 0.439931 0.933805 -0.202494 -0.294965 246 101 89
0.115483 0.198370 0.012541 -0.822399 -0.562505 0.085135 22 55 138
0.122261 -0.245961 0.373248 -0.113514 0.967323 0.226717 113 250 156
-0.032246 -0.266467 -0.189409 0.233607 0.971222 -0.046424 157 251 121
0.023502 -0.248423 0.117999 0.103143 0.983665 -0.147527 140 252 108
-0.175433 0.070467 -0.043863 0.985660 -0.082507 -0.147197 253 116 108
-0.045671 -0.091969 -1.051987 -0.145324 0.319177 0.936486 108 168 246
0.010711 -0.204934 0.469158 0.462883 0.524396 0.714666 186 194 218
-0.252167 0.131598 0.538648 0.644733 -0.316703 -0.695714 209 87 38
0.259733 -0.180448 0.383616 -0.572293 0.653717 0.495111 54 210 190
0.153526 -0.153206 0.104374 -0.908908 0.400083 0.117556 11 178 142
-0.162544 -0.217542 -0.359122 0.566299 0.811834 -0.142237 199 231 109
0.188116 0.161000 0.214140 -0.840285 -0.485043 0.242186 20 65 158
0.215704 0.211298 0.637174 -0.071535 -0.737819 -0.671197 118 33 41
0.273603 0.130933 0.666882 -0.645152 -0.435892 -0.627516 45 71 47
0.244115 0.235670 0.466719 -0.573258 -0.819230 0.015416 54 23 129
-0.224492 0.132317 -0.755574 0.825733 -0.513982 0.232351 232 61 157
-0.000944 -0.056566 0.693514 0.033842 0.176446 -0.983728 131 149 2
0.037534 -0.156974 -0.437935 -0.895057 0.397463 0.202226 13 178 153
0.121493 -0.016971 -0.966906 -0.987853 0.043295 -0.149238 1 133 108
-0.101077 -0.229159 -0.700237 -0.109779 0.993646 0.024822 113 254 130
-0.032849 0.235186 -0.834436 -0.673376 -0.735628 0.073598 41 33 136
-0.189915 0.215426 -0.475044 0.842099 -0.537120 -0.048694 234 59 121
0.327103 -0.124086 0.629517 -0.977100 0.195183 -0.084733 2 152 116
-0.148466 0.116716 -0.933869 0.925103 -0.366125 0.100682 245 80 140
0.087095 -0.203338 0.627381 -0.006543 0.658010 -0.752980 126 211 31
0.098242 -0.236128 0.226238 -0.353238 0.912989 0.204141 82 243 153
0.177836 -0.154534 0.659555 0.012577 0.464386 -0.885544 129 186 14
-0.090157 0.225637 -0.098264 0.547773 -0.836507 0.014149 197 20 129
-0.072760 -0.107333 0.436232 -0.243060 0.346500 0.906013 96 171 243
-0.172309 0.032351 -0.003097 0.989838 -0.035507 -0.137699 253 122 109
0.175514 0.062697 -0.070761 -0.975660 -0.201625 0.086228 3 101 138
-0.249433 0.069644 -0.479196 0.979023 -0.203748 0.000948 252 101 127
0.295903 0.039550 0.684411 -0.742302 -0.089828 -0.664017 32 116 42
0.198086 -0.102208 0.177342 -0.889712 0.338557 0.306253 14 170 166
-0.200312 0.188839 -0.688022 0.705472 -0.706070 0.061439 217 37 135
0.148276 0.271631 0.532509 -0.093008 -0.992036 -0.084931 115 1 116
0.055227 0.220892 -0.243992 -0.673482 -0.710137 0.205250 41 36 153
-0.139575 -0.193676 -0.202067 0.841131 0.523750 -0.134852 234 194 110
0.330223 -0.104938 0.584616 -0.987093 0.158206 0.024885 1 147 130
-0.265687 -0.092126 0.561790 0.613582 0.507353 -0.605070 205 192 50
0.250366 -0.208326 0.409597 -0.572293 0.653717 0.495111 54 210 190
-0.316842 -0.028475 0.387751 0.388537 0.227774 0.892837 177 156 241
0.017517 0.155492 0.431303 0.882798 -0.449458 0.136582 240 70 144
-0.304420 0.018937 0.387617 0.431669 -0.153435 0.888887 182 107 240
0.238313 -0.241461 0.570800 -0.279892 0.903946 -0.323330 91 242 86
-0.084509 -0.172343 -0.999536 0.454231 0.702906 0.547355 185 217 197
-0.151234 -0.149437 0.419017 -0.548333 0.307644 0.777616 57 166 226
0.046362 -0.209625 0.437323 0.865340 0.495180 0.077351 237 190 137
-0.195549 -0.210976 -0.593524 0.733697 0.679458 -0.005098 221 214 126
0.026734 -0.175460 0.644450 0.020007 0.486225 -0.873605 130 189 16
0.018927 0.208195 -0.365961 -0.679038 -0.690000 0.250616 40 39 159
-0.183614 -0.223421 -0.534606 0.733697 0.679458 -0.005098 221 214 126
-0.118613 -0.208011 0.533075 -0.084587 0.969552 -0.229815 116 251 98
0.018486 -0.163836 -0.497941 -0.707184 0.676075 0.206912 37 213 153
-0.258666 0.001490 -0.675670 0.997464 -0.071121 0.002725 254 118 127
-0.064450 0.083618 0.425694 -0.513746 -0.324961 0.794018 61 86 228
-0.094672 0.221209 -0.185285 0.547773 -0.836507 0.014149 197 20 129
0.099798 -0.262953 0.522394 0.106819 0.970115 -0.217869 141 251 99
-0.106079 -0.234486 -0.191002 0.786637 0.616114 -0.040071 227 206 122
0.254923 0.229501 0.556060 -0.447830 -0.881689 -0.148569 70 15 108
0.277736 -0.215076 0.483886 -0.919092 0.381258 0.099562 10 176 140
0.272693 0.206670 0.477963 -0.839469 -0.538517 0.072747 20 58 136
0.202280 -0.247461 0.423582 -0.510213 0.834920 0.206376 62 233 153
0.040061 -0.244618 0.154944 0.103143 0.983665 -0.147527 140 252 108
-0.041121 0.210040 -0.718847 -0.590346 -0.718859 -0.367062 52 35 80
0.168150 -0.161167 0.164223 -0.746130 0.629066 0.218096 32 207 155
-0.168185 -0.057623 0.638051 0.419348 -0.001828 -0.907824 180 127 11
0.139871 -0.103961 -0.142592 -0.873396 0.465169 0.144209 16 186 145
0.239896 0.062456 0.710909 0.012069 -0.258614 -0.965905 129 94 4
-0.038296 0.244810 0.069526 0.461037 -0.822020 -0.334258 186 22 84
0.210100 -0.045228 0.161131 -0.904117 0.189882 0.382777 12 151 176
-0.138184 -0.078533 0.400168 -0.548333 0.307644 0.777616 57 166 226
-0.001138 0.128415 0.303621 0.847391 -0.267735 -0.458527 235 93 69
0.007745 0.177754 -0.479796 -0.705006 -0.680483 0.199772 37 40 152
-0.214396 0.170454 0.544964 0.351913 -0.768784 -0.533974 172 29 59
-0.003280 -0.183826 -0.507014 -0.707184 0.676075 0.206912 37 213 153
-0.193688 -0.104401 0.605144 0.511581 0.411303 -0.754397 192 179 31
0.063457 -0.150929 -0.888973 -0.789262 0.610522 -0.065792 26 205 119
-0.178681 0.083159 -0.072731 0.985660 -0.082507 -0.147197 253 116 108
0.087738 -0.231308 0.140761 -0.376179 0.920356 -0.106929 79 244 113
0.186206 -0.108777 0.683669 0.012577 0.464386 -0.885544 129 186 14
0.027196 0.256840 -0.065116 0.083692 -0.996457 -0.008368 138 0 126
0.153410 0.025313 -0.235673 -0.909282 -0.185163 0.372721 11 103 175
0.309733 0.058322 0.340072 -0.866809 -0.345473 0.359571 16 83 173
-0.214848 -0.095687 0.376877 0.055821 0.340950 0.938423 134 170 247
-0.100316 0.167896 0.611859 0.627236 -0.474717 -0.617429 207 66 48
-0.087551 0.180355 -0.982483 0.637243 -0.585431 0.501190 208 52 191
-0.163221 0.109868 0.015821 0.985660 -0.082507 -0.147197 253 116 108
-0.129453 0.004815 -1.053411 0.968263 -0.249702 -0.010711 250 95 126
-0.255995 0.034092 -0.657303 0.990792 -0.135317 -0.004521 253 110 126
-0.187741 -0.139276 -0.811893 0.872467 0.282199 0.398955 238 163 178
-0.151067 0.156262 -0.136939 0.872698 -0.482870 -0.072355 238 65 118
0.047775 -0.205282 -0.295491 -0.895790 0.397584 0.198715 13 178 152
0.090290 0.199981 -0.201291 -0.673482 -0.710137 0.205250 41 36 153
-0.257408 0.020745 -0.633380 0.997464 -0.071121 0.002725 254 118 127
0.084435 -0.121567 0.675516 0.012577 0.464386 -0.885544 129 186 14
0.329273 0.078831 0.556696 -0.933371 -0.354891 -0.053577 8 82 120
0.083473 0.059782 -0.409161 -0.925734 -0.349746 0.143856 9 82 145
0.147125 0.247064 0.605167 -0.071535 -0.737819 -0.671197 118 33 41
0.348302 0.039558 0.435450 -0.907529 -0.283513 0.309857 11 91 167
0.107629 0.086734 -0.970568 -0.867819 -0.413202 -0.275961 16 74 92
-0.065420 -0.070062 0.232546 0.811850 0.164790 -0.560128 231 148 56
-0.221007 -0.058573 -0.796230 0.872467 0.282199 0.398955 238 163 178
0.151042 -0.037874 -0.226746 -0.890585 0.332256 0.310586 13 169 167
-0.098691 -0.228505 -0.715896 -0.109779 0.993646 0.024822 113 254 130
-0.154319 0.232261 -0.378636 0.522813 -0.842762 -0.128138 194 20 111
-0.149962 -0.226314 -0.357040 0.594630 0.796688 -0.108177 203 229 113
0.114162 0.093509 0.701024 0.012069 -0.258614 -0.965905 129 94 4
-0.115339 0.205417 0.004518 0.893024 -0.445782 -0.061533 241 70 119
-0.086205 0.221508 -0.634786 -0.627521 -0.739938 0.242300 47 33 158
-0.120757 0.135426 -0.987132 0.748488 -0.478915 0.458700 222 66 185
-0.252962 -0.052034 -0.347247 0.904687 0.206546 -0.372667 242 153 79
0.060811 0.003802 0.705775 0.031643 0.129405 -0.991087 131 143 1
-0.197541 -0.204349 -0.673002 0.313310 0.942377 0.117316 167 247 142
0.060565 -0.237744 0.047783 -0.535152 0.834882 0.128782 59 233 143
-0.212290 0.029639 -0.835838 0.938325 -0.032585 0.344215 247 123 171
0.335334 -0.066755 0.544588 -0.987093 0.158206 0.024885 1 147 130
0.116128 -0.263413 0.528353 0.106819 0.970115 -0.217869 141 251 99
-0.185724 -0.123888 -0.827996 0.905044 0.299657 0.301831 242 165 165
0.007964 0.019002 0.702601 0.062156 -0.075064 -0.995240 135 117 0
0.050861 -0.249435 0.083250 -0.535152 0.834882 0.128782 59 233 143
-0.130875 0.249554 -0.475304 0.402420 -0.914967 0.029900 178 10 131
-0.230231 0.126253 -0.355233 0.947686 -0.313801 -0.058490 248 87 120
-0.253115 0.154970 0.517286 0.643438 -0.527015 -0.555196 209 60 56
-0.122079 -0.115214 0.124236 0.777980 0.412500 -0.473910 226 180 67
-0.071065 0.146110 0.199669 0.730887 -0.428768 -0.531001 220 72 59
0.011827 0.201188 0.648199 0.229595 -0.871355 -0.433621 156 16 72
0.252987 0.092042 0.703151 0.012069 -0.258614 -0.965905 129 94 4
-0.033483 0.204920 -0.532757 -0.705006 -0.680483 0.199772 37 40 152
-0.274864 -0.113010 0.534971 0.613582 0.507353 -0.605070 205 192 50
0.017076 0.188725 -0.985301 -0.266364 -0.873801 0.406844 93 16 179
0.277804 0.158415 0.384584 -0.744696 -0.597264 0.297830 32 51 165
-0.066583 0.039866 0.685221 0.358894 -0.130218 -0.924250 173 110 9
0.175522 0.143337 0.137155 -0.753477 -0.585889 0.298341 31 52 165
-0.090288 0.224692 -0.149048 0.547773 -0.836507 0.014149 197 20 129
0.027354 -0.256530 -0.117946 -0.366742 0.930063 0.021983 80 246 130
0.052807 -0.241219 0.017684 -0.773224 0.633411 0.030243 28 208 131
-0.035341 0.063327 0.435591 0.500029 -0.239284 0.832295 191 96 233
0.001811 -0.096135 -0.607953 -0.986125 0.137027 -0.093706 1 144 115
-0.098361 0.008587 0.671903 0.458254 -0.004903 -0.888808 185 126 14
0.012529 -0.193751 -0.448941 -0.621037 0.690601 0.370652 48 215 174
0.303818 -0.044790 0.340436 -0.864400 0.320539 0.387386 17 168 176
-0.219406 0.147163 -0.337059 0.918209 -0.275774 -0.284325 244 92 91
-0.062077 -0.008229 0.255583 0.811850 0.164790 -0.560128 231 148 56
-0.093812 -0.066202 0.192530 0.811850 0.164790 -0.560128 231 148 56
0.012414 -0.183476 -0.993279 -0.380710 0.852139 0.359054 78 236 173
0.014364 -0.201356 -0.846775 -0.545727 0.836964 -0.040897 57 234 122
0.088201 0.159412 0.676687 0.009672 -0.374443 -0.927199 128 79 9
-0.076070 -0.207223 0.520741 -0.084587 0.969552 -0.229815 116 251 98
-0.151775 -0.156890 -0.143785 0.919570 0.391169 -0.037110 244 177 122
-0.212331 0.179473 0.431766 0.262884 -0.854973 0.447116 161 18 184
0.313297 -0.099122 0.408967 -0.861076 0.362916 0.356146 17 173 172
-0.216576 -0.153943 -0.717056 0.827122 0.470166 0.307918 232 187 166
-0.254932 0.042245 -0.668326 0.990792 -0.135317 -0.004521 253 110 126
0.110772 0.195741 -0.050337 -0.822399 -0.562505 0.085135 22 55 138
-0.193420 0.096540 0.382702 -0.106129 -0.469470 0.876547 113 67 239
-0.031680 -0.186663 0.204690 0.669232 0.590562 -0.450959 212 202 70
-0.305484 -0.129111 0.469330 0.760449 0.604787 -0.236538 224 204 97
0.047688 0.159742 -0.390180 -0.892578 -0.390797 0.224906 13 77 156
-0.114275 -0.219084 -0.115083 0.786637 0.616114 -0.040071 227 206 122
0.117140 0.116459 -0.252216 -0.795109 -0.478583 0.372507 26 66 174
-0.244500 -0.116526 -0.455559 0.928752 0.365837 -0.059864 245 174 119
0.066138 -0.152794 -0.934766 -0.784101 0.616064 -0.075168 27 206 117
0.323397 0.139581 0.521741 -0.986527 0.154801 0.052925 1 147 134
-0.018175 0.251541 0.068412 0.180172 -0.971576 -0.153552 150 3 107
-0.003758 0.110166 0.430130 0.200087 -0.111831 0.973375 153 113 251
-0.152350 -0.151816 -0.104540 0.919570 0.391169 -0.037110 244 177 122
0.026308 0.246890 -0.224788 -0.104338 -0.940772 0.322584 114 7 168
-0.103666 0.025571 0.190511 0.860761 0.087396 -0.501450 237 138 63
-0.165136 0.188422 0.554633 0.396281 -0.763295 -0.510238 178 30 62
-0.181311 -0.134822 0.397105 -0.224797 0.631732 0.741876 98 208 222
-0.002147 -0.095966 -0.638579 -0.951688 0.269803 0.146618 6 161 146
0.205307 0.256562 0.462770 -0.434743 -0.864489 0.252303 72 17 159
-0.011724 0.018186 -1.066917 -0.026689 -0.046374 0.998568 124 121 254
0.027673 -0.167818 0.648725 0.020007 0.486225 -0.873605 130 189 16
-0.116926 -0.079295 0.660724 0.284528 0.221258 -0.932785 163 155 8
