ply
format ascii 1.0
element vertex 256
property float x
property float y
property float z
property float nx
property float ny
property float nz
property uchar red
property uchar green
property uchar blue
end_header
-0.093799 0.034808 0.585059 -0.411509 -0.054806 0.909757 75 120 243
-0.080846 -0.061621 0.961797 -0.058661 0.094302 -0.993814 120 139 0
0.157510 -0.215666 0.191458 0.504358 0.788593 -0.351774 191 228 82
0.259905 -0.077211 -0.043239 -0.750684 0.114395 0.650682 31 142 210
-0.291893 0.062213 -0.234992 0.628847 -0.269972 -0.729155 207 93 34
-0.198113 0.078277 0.560370 -0.120358 -0.235845 0.964309 112 97 250
0.357435 0.008231 0.270824 -0.994402 -0.061906 -0.085629 0 119 116
0.076219 -0.085393 0.949278 -0.064946 0.114838 -0.991259 119 142 1
-0.092029 -0.243131 0.841727 0.016215 0.748843 -0.662550 129 222 43
0.087656 -0.261638 0.770554 -0.030744 0.967918 0.249377 123 250 159
-0.018416 0.215319 -0.215080 -0.529654 -0.618289 0.580676 59 48 201
-0.288581 -0.198559 0.699741 0.668619 0.740753 -0.065075 212 221 119
0.052071 -0.004204 0.140545 0.939811 0.107828 -0.324235 247 141 86
-0.236184 0.100894 0.926134 0.395824 -0.230776 -0.888857 177 98 14
0.298014 -0.189895 0.400611 -0.818203 0.574926 -0.002202 23 200 127
0.278770 -0.078085 0.827676 -0.866917 0.329071 -0.374389 16 169 79
0.275775 -0.222117 0.251291 -0.818203 0.574926 -0.002202 23 200 127
-0.104905 -0.223174 -0.184483 0.291409 0.950350 -0.109154 164 248 113
0.265401 0.221899 0.553510 -0.220521 -0.975372 0.004519 99 3 128
0.293858 -0.194779 0.500531 -0.918650 0.391826 -0.050540 10 177 121
-0.300072 -0.087095 0.573351 0.763410 0.200725 0.613934 224 153 205
-0.259151 0.117620 0.909676 0.322293 -0.468435 -0.822616 168 67 22
0.107857 0.170064 0.180979 0.840532 -0.240856 -0.485277 234 96 65
-0.336201 -0.012269 0.722694 0.998192 0.027542 0.053420 254 131 134
0.091555 0.205639 0.671431 0.375845 -0.738627 0.559617 175 33 198
0.050782 0.231119 0.849904 -0.004715 -0.791242 -0.611485 126 26 49
-0.091526 -0.092350 -0.043012 0.702443 0.122381 -0.701139 217 143 38
-0.306756 0.110318 0.734829 0.884708 -0.464321 -0.041201 240 68 122
0.102084 -0.096790 0.946264 -0.064946 0.114838 -0.991259 119 142 1
0.239495 0.224749 0.202982 -0.168289 -0.985668 0.011713 106 1 128
0.098921 0.072552 0.398379 0.961963 -0.268644 0.049582 250 93 133
-0.141631 0.206273 -0.170308 0.311039 -0.813398 -0.491567 167 23 64
0.241701 -0.226417 0.602723 -0.070060 0.997249 -0.024203 118 254 124
0.042026 0.017763 0.952833 -0.071559 -0.123295 -0.989787 118 111 1
0.078601 -0.254545 0.741906 -0.030744 0.967918 0.249377 123 250 159
0.267431 0.008994 0.874155 -0.895583 -0.210142 -0.392137 13 100 77
0.357844 0.045340 0.236688 -0.948094 -0.313449 -0.053545 6 87 120
-0.059326 -0.022926 0.000211 0.617381 -0.099000 -0.780410 206 114 27
0.099404 -0.123015 0.428545 0.965580 0.259002 0.023929 250 160 130
0.295765 0.166413 0.686906 -0.971883 -0.234678 0.019240 3 97 129
0.082975 0.226369 -0.032338 -0.245673 -0.952663 0.179105 96 6 150
-0.281656 0.159541 0.590613 0.854063 -0.520053 0.010991 236 61 128
0.090637 0.219924 0.057342 0.631910 -0.716924 -0.294465 208 36 89
-0.081772 -0.267209 0.803882 0.026793 0.995512 0.090767 130 254 139
0.355803 -0.027207 0.320900 -0.991474 -0.092469 -0.091811 1 115 115
-0.034660 0.064405 0.615196 -0.618219 0.140963 0.773262 48 145 226
0.098922 -0.007507 0.951868 -0.071559 -0.123295 -0.989787 118 111 1
0.149294 -0.203626 -0.082700 -0.400466 0.841228 0.363267 76 234 173
-0.281995 0.139993 0.575164 0.764753 -0.146417 0.627467 225 108 207
0.074281 -0.130886 0.159144 0.923682 0.126696 -0.361607 245 143 81
0.174575 0.225132 0.239925 0.752605 -0.655931 -0.057802 223 43 120
0.104520 0.083810 0.350757 0.961963 -0.268644 0.049582 250 93 133
0.111089 -0.145011 0.249288 0.947888 0.159681 -0.275700 248 147 92
0.334873 -0.092159 0.536886 -0.945515 0.322043 -0.047860 6 168 121
0.016785 -0.191034 -0.243992 -0.643484 0.487405 0.590224 45 189 202
0.326081 -0.132283 0.399324 -0.918650 0.391826 -0.050540 10 177 121
0.012985 -0.110872 0.059009 0.835812 0.280142 -0.472164 234 163 67
0.204317 -0.235769 0.325604 -0.070060 0.997249 -0.024203 118 254 124
0.250818 0.225482 0.615106 -0.220521 -0.975372 0.004519 99 3 128
-0.128925 -0.246841 0.836630 0.016215 0.748843 -0.662550 129 222 43
0.054315 0.215121 -0.131476 -0.245673 -0.952663 0.179105 96 6 150
-0.280909 0.077171 0.559181 0.764753 -0.146417 0.627467 225 108 207
0.049541 -0.081957 0.951425 -0.064946 0.114838 -0.991259 119 142 1
0.283711 0.054425 -0.015392 -0.737633 -0.049742 0.673367 33 121 213
-0.306137 -0.165300 0.738458 0.840300 0.515114 -0.168977 234 193 105
0.053563 -0.013528 0.605432 0.891201 0.095049 0.443539 241 139 184
-0.023836 0.116271 0.936770 -0.056796 -0.503201 -0.862301 120 63 17
0.082460 0.083668 0.179870 0.840532 -0.240856 -0.485277 234 96 65
-0.004826 -0.234426 -0.092325 0.186089 0.975204 -0.119784 151 251 112
0.130110 0.013592 -0.200996 -0.753920 -0.197572 0.626554 31 102 207
-0.108928 0.084764 0.581225 -0.411509 -0.054806 0.909757 75 120 243
0.050635 -0.178135 0.079740 0.654415 0.558173 -0.510082 210 198 62
0.097921 0.068229 0.496445 0.988485 -0.151308 0.001603 253 108 127
0.077187 -0.185465 0.652359 0.388743 0.769942 0.506032 177 225 192
0.179407 -0.219746 0.578820 0.608828 0.793069 0.019254 205 228 129
-0.321995 -0.135318 0.660757 0.987580 0.143380 0.064252 253 145 135
-0.240533 0.177338 -0.232893 0.575213 -0.760368 -0.301613 200 30 89
0.122829 -0.062675 -0.202663 -0.743918 0.137974 0.653873 32 145 210
0.271647 -0.102858 0.822393 -0.866917 0.329071 -0.374389 16 169 79
-0.053845 0.214444 0.878475 -0.027182 -0.828508 -0.559318 124 21 56
0.353223 -0.079878 0.256992 -0.945515 0.322043 -0.047860 6 168 121
-0.020975 -0.233363 -0.108763 0.186089 0.975204 -0.119784 151 251 112
-0.298355 0.014339 -0.222839 0.628847 -0.269972 -0.729155 207 93 34
-0.295231 0.001044 0.568150 0.737701 -0.028869 0.674510 221 123 213
0.288071 0.045407 -0.011282 -0.737633 -0.049742 0.673367 33 121 213
-0.277071 -0.046308 0.546261 0.737701 -0.028869 0.674510 221 123 213
0.285514 0.197034 0.542570 -0.971883 -0.234678 0.019240 3 97 129
0.248562 0.210260 0.045813 -0.414618 -0.819024 0.396601 74 23 178
0.367157 0.034398 0.135850 -0.948094 -0.313449 -0.053545 6 87 120
0.283914 0.203510 0.540747 -0.971883 -0.234678 0.019240 3 97 129
-0.224036 -0.125864 -0.174388 0.585574 0.524596 -0.617983 202 194 48
-0.322592 0.078900 0.748865 0.884708 -0.464321 -0.041201 240 68 122
0.255745 -0.182563 0.802935 -0.438159 0.650806 -0.620055 71 210 48
0.249787 -0.036074 -0.062144 -0.750684 0.114395 0.650682 31 142 210
-0.339505 0.038214 0.784967 0.992479 -0.069882 0.100506 254 118 140
0.139194 0.075545 -0.172142 -0.737633 -0.049742 0.673367 33 121 213
0.336820 -0.045610 0.549155 -0.994402 -0.061906 -0.085629 0 119 116
0.331239 0.125710 0.076167 -0.807863 -0.396585 0.435979 24 76 183
0.349664 0.005108 0.363333 -0.994402 -0.061906 -0.085629 0 119 116
0.209170 -0.169521 0.849536 -0.438159 0.650806 -0.620055 71 210 48
0.135660 -0.133273 -0.160853 -0.672854 0.436513 0.597263 41 183 203
0.103870 -0.154635 0.590584 0.965580 0.259002 0.023929 250 160 130
0.127275 0.235636 0.097714 0.631910 -0.716924 -0.294465 208 36 89
-0.227512 -0.011267 0.967057 0.436215 -0.315814 -0.842602 183 87 20
-0.219006 0.198134 -0.244267 0.575213 -0.760368 -0.301613 200 30 89
-0.036479 0.041206 0.955589 -0.071559 -0.123295 -0.989787 118 111 1
-0.158194 0.156457 -0.128474 0.622735 -0.472817 -0.623415 206 67 48
0.158456 0.206390 0.242733 0.752605 -0.655931 -0.057802 223 43 120
0.285199 -0.208841 0.215559 -0.818203 0.574926 -0.002202 23 200 127
-0.066573 -0.109124 0.955885 -0.064946 0.114838 -0.991259 119 142 1
0.090712 0.021054 0.488876 0.988485 -0.151308 0.001603 253 108 127
0.029494 0.133437 0.923240 -0.056796 -0.503201 -0.862301 120 63 17
0.208798 -0.230137 0.544692 -0.070060 0.997249 -0.024203 118 254 124
0.267527 0.221212 0.508869 -0.220521 -0.975372 0.004519 99 3 128
-0.294334 -0.195908 0.670809 0.668619 0.740753 -0.065075 212 221 119
-0.245181 -0.230593 0.746562 0.593985 0.801089 -0.073749 203 229 118
0.155011 0.082935 -0.154270 -0.737633 -0.049742 0.673367 33 121 213
-0.255771 0.188089 0.812386 0.478153 -0.837155 -0.265597 188 20 93
-0.313543 -0.112731 0.833605 0.785048 0.499673 -0.366097 227 191 80
-0.238048 0.122722 0.570073 -0.102940 -0.302452 0.947590 114 88 248
-0.101490 -0.146346 0.932330 0.004006 0.622465 -0.782638 128 206 27
-0.065229 0.227575 0.695622 -0.261493 -0.786676 0.559252 94 27 198
0.088183 -0.103624 0.204206 0.923682 0.126696 -0.361607 245 143 81
0.340889 -0.089289 0.437328 -0.945515 0.322043 -0.047860 6 168 121
-0.086768 0.147205 -0.061854 0.689000 -0.221106 -0.690211 215 99 39
-0.201580 0.011340 0.543567 -0.120358 -0.235845 0.964309 112 97 250
0.074377 0.226691 0.855453 -0.004715 -0.791242 -0.611485 126 26 49
0.019125 0.018219 0.621136 0.055334 0.066772 0.996233 134 136 254
0.047137 -0.080485 0.632691 0.891201 0.095049 0.443539 241 139 184
0.327269 0.116873 0.359309 -0.948094 -0.313449 -0.053545 6 87 120
-0.193348 -0.022362 0.537133 -0.405651 -0.054655 0.912392 75 120 243
0.086676 0.039595 0.235074 0.951129 -0.246769 -0.185629 248 96 103
-0.006571 0.012715 0.622932 0.055334 0.066772 0.996233 134 136 254
0.055636 -0.047543 0.136464 0.939811 0.107828 -0.324235 247 141 86
0.095793 -0.017392 0.284645 0.991169 0.108177 0.076694 253 141 137
0.345291 0.056540 0.376931 -0.994402 -0.061906 -0.085629 0 119 116
0.328569 0.140962 0.161665 -0.799634 -0.596645 -0.067818 25 51 118
-0.302006 -0.190517 0.653348 0.668619 0.740753 -0.065075 212 221 119
0.140926 0.206050 0.164305 0.487645 -0.744660 -0.455725 189 32 69
0.106022 0.086648 0.939626 -0.071559 -0.123295 -0.989787 118 111 1
-0.323761 0.071025 0.810453 0.866788 -0.456514 -0.200685 238 69 101
-0.240109 -0.069560 0.541967 -0.134742 0.323365 0.936632 110 168 246
0.102645 -0.103804 0.244122 0.947888 0.159681 -0.275700 248 147 92
-0.074479 0.158125 0.624044 -0.281194 -0.447668 0.848837 91 70 235
0.106828 0.183636 0.634194 0.357743 -0.723634 0.590232 173 35 202
-0.310941 -0.124644 0.822927 0.785048 0.499673 -0.366097 227 191 80
-0.137950 -0.127317 -0.091996 0.600927 0.288269 -0.745512 204 164 32
0.003945 0.224605 -0.094944 -0.129206 -0.989118 0.070371 111 1 136
0.216004 -0.235563 0.238560 -0.185203 0.982694 -0.003505 103 252 127
0.212393 -0.230571 0.639032 -0.124571 0.978482 0.164485 111 252 148
0.088150 -0.200830 -0.156579 -0.400466 0.841228 0.363267 76 234 173
-0.245422 -0.235402 0.692384 0.593985 0.801089 -0.073749 203 229 118
0.098205 -0.124085 0.488499 0.965580 0.259002 0.023929 250 160 130
0.093523 0.086698 0.207538 0.951129 -0.246769 -0.185629 248 96 103
-0.073489 0.011659 0.593768 -0.618219 0.140963 0.773262 48 145 226
-0.052930 -0.136105 -0.020320 0.646923 0.236655 -0.724903 209 157 35
0.215377 0.232266 0.488953 -0.168289 -0.985668 0.011713 106 1 128
0.048756 -0.140256 0.942343 0.029913 0.660411 -0.750309 131 211 31
0.156475 -0.199958 0.390878 0.689891 0.723837 -0.010539 215 219 126
0.154901 0.204987 -0.062992 -0.414618 -0.819024 0.396601 74 23 178
0.199393 0.121400 0.888814 -0.379500 -0.548703 -0.744920 79 57 32
0.031772 0.015512 0.102691 0.758121 0.068449 -0.648512 224 136 44
0.212724 0.233208 0.107555 -0.182533 -0.977791 -0.102984 104 2 114
-0.071205 -0.163931 0.918499 0.004006 0.622465 -0.782638 128 206 27
0.135013 -0.117352 0.933512 -0.462848 0.059542 -0.884435 68 135 14
0.055369 0.191471 -0.173171 -0.529654 -0.618289 0.580676 59 48 201
-0.196450 0.164498 0.907546 0.322293 -0.468435 -0.822616 168 67 22
-0.236312 0.103725 0.564199 -0.102940 -0.302452 0.947590 114 88 248
-0.176693 -0.125655 0.574786 -0.291043 0.314020 0.903706 90 167 242
-0.305289 -0.177246 0.706254 0.840300 0.515114 -0.168977 234 193 105
-0.172953 -0.030447 -0.087167 0.625312 -0.145399 -0.766710 207 108 29
0.215742 -0.235482 0.745724 -0.306570 0.861929 -0.403848 88 237 76
-0.282127 -0.131922 0.874782 0.785048 0.499673 -0.366097 227 191 80
0.302367 -0.184189 0.272878 -0.818203 0.574926 -0.002202 23 200 127
-0.093838 -0.210625 0.878423 0.016215 0.748843 -0.662550 129 222 43
0.337085 0.024753 0.040884 -0.737633 -0.049742 0.673367 33 121 213
0.020026 -0.018780 0.958494 -0.064530 -0.107632 -0.992094 119 113 1
-0.270333 -0.005100 -0.188351 0.738107 0.110289 -0.665608 221 141 42
0.271525 0.160824 0.765228 -0.871448 -0.325214 -0.367172 16 86 80
0.346490 -0.059336 0.453829 -0.991474 -0.092469 -0.091811 1 115 115
0.099025 -0.076267 0.247626 0.947888 0.159681 -0.275700 248 147 92
0.138216 -0.202747 0.864802 -0.438159 0.650806 -0.620055 71 210 48
-0.039967 0.161269 0.911471 -0.052248 -0.510494 -0.858293 120 62 18
-0.258591 -0.130868 -0.216949 0.722280 0.373275 -0.582218 219 175 53
0.085554 -0.012545 0.498115 0.988485 -0.151308 0.001603 253 108 127
0.062821 -0.117521 0.946434 -0.064946 0.114838 -0.991259 119 142 1
-0.254672 -0.089183 -0.185362 0.722280 0.373275 -0.582218 219 175 53
0.003762 -0.251131 0.733474 -0.018172 0.697449 0.716404 125 216 218
-0.095986 -0.033528 0.584019 -0.618219 0.140963 0.773262 48 145 226
0.091861 -0.000459 0.311578 0.991169 0.108177 0.076694 253 141 137
0.094874 -0.110108 0.471650 0.965580 0.259002 0.023929 250 160 130
0.283695 0.191611 0.245162 -0.799634 -0.596645 -0.067818 25 51 118
0.349360 -0.074831 0.367266 -0.945515 0.322043 -0.047860 6 168 121
0.080190 -0.182913 0.646169 0.388743 0.769942 0.506032 177 225 192
0.283568 0.189703 0.354854 -0.971883 -0.234678 0.019240 3 97 129
-0.067146 -0.252976 0.732080 -0.337588 0.679872 0.651006 84 214 210
0.314464 0.079004 0.718676 -0.994402 -0.061906 -0.085629 0 119 116
0.268735 0.221055 0.533973 -0.220521 -0.975372 0.004519 99 3 128
0.180106 0.234847 0.199462 -0.168289 -0.985668 0.011713 106 1 128
0.298820 0.109437 0.018148 -0.648391 -0.357397 0.672202 44 81 213
0.186929 -0.233226 0.027336 -0.400466 0.841228 0.363267 76 234 173
0.185967 -0.230155 0.247417 0.689891 0.723837 -0.010539 215 219 126
-0.240299 0.023649 -0.152229 0.764253 -0.255598 -0.592103 224 94 52
-0.333935 0.011541 -0.256887 0.742882 0.073676 -0.665356 222 136 42
0.015357 0.234696 0.845549 -0.004715 -0.791242 -0.611485 126 26 49
0.296315 -0.193388 0.120003 -0.818203 0.574926 -0.002202 23 200 127
-0.246405 0.120495 0.913032 0.322293 -0.468435 -0.822616 168 67 22
-0.070297 -0.017244 -0.009188 0.617381 -0.099000 -0.780410 206 114 27
0.047713 -0.099997 0.949454 -0.064946 0.114838 -0.991259 119 142 1
0.348486 -0.075034 0.383177 -0.945515 0.322043 -0.047860 6 168 121
0.246296 0.005537 0.887926 -0.449420 0.116465 -0.885696 70 142 14
0.054768 0.134609 0.920891 -0.056796 -0.503201 -0.862301 120 63 17
0.072854 -0.019249 0.194611 0.923682 0.126696 -0.361607 245 143 81
-0.225162 -0.061906 0.954218 0.326358 0.357387 -0.875080 169 173 15
-0.241152 -0.150582 -0.211590 0.585574 0.524596 -0.617983 202 194 48
-0.260228 -0.223311 0.704460 0.593985 0.801089 -0.073749 203 229 118
0.127749 -0.162170 0.916802 -0.446910 0.664548 -0.598872 70 212 51
-0.157931 0.251275 0.777198 0.488245 -0.856088 -0.169499 189 18 105
0.308583 -0.027225 0.004133 -0.750684 0.114395 0.650682 31 142 210
-0.071822 0.145430 -0.046366 0.689000 -0.221106 -0.690211 215 99 39
0.216626 -0.199902 -0.017097 -0.400466 0.841228 0.363267 76 234 173
-0.226636 0.188735 -0.235122 0.575213 -0.760368 -0.301613 200 30 89
0.122596 0.236083 0.077830 0.079748 -0.996633 -0.019052 137 0 125
-0.053410 0.159120 0.913568 -0.052248 -0.510494 -0.858293 120 62 18
0.052080 0.055161 0.624009 0.710112 -0.158064 0.686117 218 107 214
-0.268627 -0.219953 0.661237 0.668619 0.740753 -0.065075 212 221 119
0.092203 0.031298 0.536394 0.988485 -0.151308 0.001603 253 108 127
0.043105 0.265241 0.795206 0.005976 -0.997372 -0.072205 128 0 118
-0.266157 0.161661 0.843891 0.578596 -0.697976 -0.421968 201 38 73
0.302543 -0.172429 0.515930 -0.918650 0.391826 -0.050540 10 177 121
0.009643 0.265959 0.782509 0.005976 -0.997372 -0.072205 128 0 118
-0.335848 0.019225 0.827899 0.944168 0.013071 -0.329205 247 129 85
0.338484 -0.003047 0.040363 -0.737633 -0.049742 0.673367 33 121 213
-0.164685 -0.267410 0.732733 -0.077398 0.962643 0.259478 117 250 160
0.099518 0.224840 0.064430 0.631910 -0.716924 -0.294465 208 36 89
0.227326 0.197338 0.791814 -0.449437 -0.680173 -0.579113 70 40 53
0.106608 -0.238427 0.005179 0.081925 0.994257 -0.068855 137 254 118
0.219353 -0.230092 0.515996 -0.070060 0.997249 -0.024203 118 254 124
0.290495 0.127069 0.750100 -0.871448 -0.325214 -0.367172 16 86 80
0.166683 -0.176641 0.872086 -0.438159 0.650806 -0.620055 71 210 48
-0.241259 -0.091407 -0.170148 0.722280 0.373275 -0.582218 219 175 53
0.010599 -0.149544 0.932647 0.029913 0.660411 -0.750309 131 211 31
-0.108494 0.226544 0.673942 -0.261493 -0.786676 0.559252 94 27 198
0.267062 -0.225666 0.315461 -0.185203 0.982694 -0.003505 103 252 127
0.069561 -0.254384 0.740058 -0.050786 0.969260 0.240739 121 251 158
0.283170 0.213190 0.670454 -0.895526 -0.353778 -0.269951 13 82 93
0.099641 -0.220032 -0.099444 -0.400466 0.841228 0.363267 76 234 173
-0.002892 0.116699 0.027144 0.617381 -0.099000 -0.780410 206 114 27
-0.032279 0.190908 -0.036632 0.536287 -0.650402 -0.537934 195 44 58
0.001595 -0.223020 -0.193435 -0.335424 0.883328 0.327450 84 240 169
-0.192055 0.213662 -0.232012 0.575213 -0.760368 -0.301613 200 30 89
0.164401 0.214810 0.820128 -0.449437 -0.680173 -0.579113 70 40 53
0.334622 0.098365 0.337473 -0.948094 -0.313449 -0.053545 6 87 120
-0.050253 0.229472 -0.126051 -0.129206 -0.989118 0.070371 111 1 136
-0.152434 -0.015462 0.555737 -0.405651 -0.054655 0.912392 75 120 243
0.340369 -0.003106 0.477209 -0.994402 -0.061906 -0.085629 0 119 116
