ply
format ascii 1.0
element vertex 252
property float x
property float y
property float z
element face 500
property list uchar int vertex_indices
end_header
-0.578124 -0.150073 -0.733793
-0.610674 -0.142387 -0.551416
-0.618004 -0.049853 -0.735433
-0.614898 -0.009827 -0.515045
-0.619797 0.072838 -0.718570
-0.576937 0.142354 -0.529930
-0.581693 0.172367 -0.694249
-0.513913 -0.252105 -0.658998
-0.483789 -0.247542 -0.578384
-0.560729 -0.217302 -0.609129
-0.591427 -0.134223 -0.501522
-0.583084 -0.068002 -0.788744
-0.581653 0.017287 -0.459773
-0.588492 0.070098 -0.774569
-0.509215 0.198156 -0.739541
-0.554424 0.215387 -0.578877
-0.520731 0.242701 -0.662643
-0.485240 0.258413 -0.599485
-0.494681 -0.211495 -0.722479
-0.536367 -0.190139 -0.510537
-0.511621 -0.110648 -0.791985
-0.428473 -0.175993 -0.422319
-0.518723 -0.065826 -0.430424
-0.505472 -0.001357 -0.809779
-0.487187 0.101645 -0.418019
-0.480980 0.129918 -0.789789
-0.438582 0.178041 -0.422280
-0.489678 0.205072 -0.497074
-0.389919 -0.266083 -0.656983
-0.335880 -0.228700 -0.436037
-0.332208 -0.060078 -0.262890
-0.328234 -0.065736 0.601386
-0.339061 -0.086653 0.814479
-0.342222 0.036047 0.810285
-0.317245 0.101486 0.609141
-0.276757 0.159942 -0.258122
-0.308928 0.230773 -0.405266
-0.375971 0.271552 -0.638474
-0.322278 -0.260327 -0.582804
-0.277656 -0.231684 -0.499167
-0.226316 -0.224805 -0.305856
-0.261343 -0.227854 0.646136
-0.265456 -0.210314 0.803535
-0.273097 -0.178133 -0.265247
-0.289320 -0.174415 0.588530
-0.315174 -0.178688 0.652704
0.112300 -0.123179 -0.775978
-0.280271 -0.104415 0.916304
-0.303702 0.009796 0.919719
-0.299348 0.002417 -0.219281
0.104759 0.084711 -0.783445
-0.279103 0.114973 0.903366
-0.264522 0.184226 0.808808
0.008770 0.220510 -0.728725
-0.278213 0.164894 0.576365
-0.241381 0.227124 0.658801
-0.375509 0.268569 -0.562291
-0.253591 -0.222629 -0.427040
-0.193257 -0.270198 0.734554
0.079098 -0.197764 -0.724415
-0.206140 -0.195704 0.892538
-0.201524 -0.182909 -0.511005
-0.177230 -0.202185 -0.194825
-0.216799 -0.098734 -0.144501
-0.275596 -0.087060 0.542904
-0.153602 -0.109243 0.961573
0.128689 -0.029864 -0.789399
-0.231788 0.022980 -0.140955
-0.219351 -0.018652 0.974050
-0.273790 0.063807 0.547386
-0.167125 0.095626 0.958255
-0.184158 0.147714 -0.507683
-0.188425 0.115242 -0.127414
-0.186461 0.201607 -0.190954
-0.274091 0.249839 -0.542051
-0.225961 0.231841 -0.394887
-0.205767 0.204519 -0.448605
-0.195045 0.231475 -0.282622
-0.173542 0.210290 0.890446
-0.176481 0.270503 0.718357
-0.159286 -0.238027 -0.623917
-0.214796 -0.221904 -0.572399
-0.101894 -0.233446 -0.265874
-0.183632 -0.252279 0.670947
-0.137162 -0.156913 -0.431445
-0.201597 -0.173882 0.583524
-0.144977 -0.051287 -0.503476
-0.179702 -0.038216 -0.091198
-0.199781 -0.029270 0.533859
-0.117442 0.130582 -0.437556
-0.217137 0.191069 0.594160
-0.161546 0.212366 -0.586090
-0.188121 0.249444 0.668922
-0.125756 0.263173 0.809789
-0.185444 0.256478 -0.631538
-0.114856 0.244367 -0.261898
-0.065624 -0.262031 0.742326
-0.122735 -0.267026 0.813968
-0.143936 -0.222794 -0.345374
-0.077064 -0.228118 -0.153197
-0.143584 -0.154880 -0.564773
-0.078369 -0.200056 -0.344494
-0.015876 -0.200660 -0.271651
-0.128256 -0.135478 -0.087338
0.023760 -0.192281 0.029781
-0.057747 -0.157437 0.637179
-0.118295 -0.151100 0.588847
-0.104858 -0.059622 -0.458671
-0.121231 -0.052899 0.567367
-0.119430 0.040785 -0.540312
-0.119393 0.015247 -0.052150
0.107638 -0.028328 0.953831
-0.107560 0.038006 -0.462740
-0.127741 0.095479 0.573361
-0.118802 0.173966 -0.102405
-0.083000 0.173376 -0.361457
-0.117679 0.233056 -0.199471
0.028657 0.173749 0.044865
-0.044361 0.188076 0.649817
-0.120425 0.232835 -0.306556
-0.029495 0.220067 -0.220130
0.026993 0.226855 -0.021003
-0.072847 0.267906 0.748791
0.067018 -0.238770 -0.642415
-0.037604 -0.239922 -0.187995
0.100820 -0.213444 0.880000
0.032100 -0.203255 -0.581410
0.044275 -0.235194 -0.022301
0.062449 -0.154654 0.120592
-0.060032 -0.121583 -0.394832
0.034008 -0.107403 -0.294277
-0.017717 -0.055852 0.037305
-0.053132 -0.017532 -0.419524
0.053067 0.005187 -0.296351
0.034007 0.062035 0.110214
-0.025104 0.084696 0.619137
0.014919 0.000713 -0.522862
-0.048917 0.083497 -0.399836
0.051923 0.107846 -0.265356
0.138591 0.099910 0.935619
0.047186 0.179981 -0.562030
0.069215 0.179719 0.109257
0.059349 0.239341 -0.667694
0.099207 0.214067 0.871596
0.072028 -0.253662 0.737670
0.044889 -0.270089 0.798083
0.124526 -0.241280 -0.597015
0.186825 -0.242089 0.047745
0.112702 -0.223434 0.109800
0.044326 -0.172639 0.658088
0.120217 -0.146997 0.939259
0.129872 -0.061198 -0.472405
0.114201 -0.161713 0.250313
0.106215 -0.164009 0.597413
0.078525 -0.057761 0.564754
0.314353 -0.113415 0.025943
0.070764 0.006049 0.198137
0.091566 0.024422 0.280298
0.044050 0.004575 0.620666
0.109537 0.145056 0.585252
0.110662 0.081431 -0.485668
0.111922 0.173625 0.186253
0.054219 0.168884 0.647994
0.134168 0.175780 0.273841
0.148531 0.200837 -0.078222
0.130481 0.238756 -0.593409
0.091389 0.234631 0.023149
0.131122 0.236256 0.104458
0.094410 0.248513 0.726102
0.079019 0.264653 0.806295
0.182834 -0.221878 -0.665628
0.279787 -0.234514 -0.580466
0.191058 -0.229623 0.617233
0.194926 -0.248659 0.733403
0.271622 -0.198313 0.039852
0.195097 -0.239671 0.191535
0.127638 -0.223418 0.671348
0.174766 -0.200617 -0.516296
0.210518 -0.108865 -0.745702
0.240678 -0.121234 0.877953
0.204385 0.065097 -0.755410
0.348597 -0.024654 0.049845
0.121898 0.194776 -0.731206
0.193097 0.194532 -0.515872
0.326446 0.089101 0.033983
0.243274 0.126351 0.862812
0.141749 0.229970 0.669834
0.179019 0.224765 -0.662273
0.211128 0.234433 0.610301
0.272206 0.237985 -0.574801
0.177115 0.253479 0.744218
0.271804 -0.205172 0.767857
0.204206 -0.143125 -0.470392
0.203115 -0.049848 -0.446647
0.280305 -0.030520 0.865928
0.191068 0.050529 -0.453675
0.251484 0.046195 0.890640
0.259607 0.216692 0.744030
0.194061 0.242240 0.054878
0.281901 0.193805 0.046685
0.176608 0.234920 0.155313
0.274074 -0.225062 0.114327
0.273961 -0.223202 0.641822
0.331961 -0.172174 -0.659433
0.358111 -0.214192 -0.519707
0.345997 -0.122716 0.111496
0.346846 -0.081033 -0.701075
0.326300 -0.092330 0.705096
0.330544 0.027353 -0.710411
0.557701 0.145133 -0.438067
0.334223 0.140903 0.095515
0.312950 0.098157 0.722415
0.340972 0.172887 -0.654959
0.369623 0.227003 -0.525286
0.272429 0.218405 0.142279
0.282754 0.218492 0.664884
0.499938 -0.164467 -0.586414
0.527696 -0.125043 -0.448732
0.375780 -0.035041 0.113061
0.369406 0.031110 0.115269
0.429550 0.114130 -0.656260
0.479315 0.186412 -0.587147
0.418004 -0.048728 -0.673040
0.594394 0.201430 -0.504443
0.594778 -0.189405 -0.497359
0.535309 0.037196 -0.629491
0.576742 0.032507 -0.405407
0.670542 -0.207616 -0.499290
0.645301 -0.176213 -0.545692
0.685387 -0.177938 -0.441305
0.649885 -0.081833 -0.406572
0.643014 -0.023523 -0.600790
0.641318 0.160681 -0.552281
0.678124 0.182709 -0.451749
0.736939 -0.183973 -0.509313
0.736753 -0.006636 -0.564186
0.683493 0.069732 -0.389764
0.737245 0.168354 -0.504516
0.656366 0.203468 -0.505502
0.772911 -0.181687 -0.454329
0.777133 -0.099109 -0.389845
0.808603 0.141249 -0.399855
0.803283 0.172498 -0.443137
0.824762 -0.129804 -0.482740
0.865991 -0.119728 -0.416099
0.877244 0.005288 -0.487540
0.809064 0.039107 -0.534762
0.881928 0.016654 -0.392066
0.838921 0.130924 -0.474523
0.864723 0.127742 -0.415725
0.905262 -0.062645 -0.430643
0.907026 0.045820 -0.427656
3 0 1 9
3 9 1 10
3 2 0 11
3 0 2 1
3 1 2 3
3 10 3 12
3 1 3 10
3 13 2 11
3 4 2 13
3 2 4 3
3 3 4 5
3 3 5 12
3 6 4 13
3 4 6 5
3 14 6 13
3 6 15 5
3 9 7 18
3 7 9 8
3 8 9 19
3 9 18 0
3 19 9 10
3 18 20 0
3 20 11 0
3 19 10 22
3 22 10 12
3 20 23 11
3 23 13 11
3 22 12 24
3 23 25 13
3 24 12 5
3 25 14 13
3 24 5 27
3 15 27 5
3 16 6 14
3 6 16 15
3 15 16 17
3 15 17 27
3 28 7 8
3 28 18 7
3 19 21 8
3 22 21 19
3 22 24 30
3 26 24 27
3 37 16 14
3 37 17 16
3 28 8 38
3 29 38 8
3 29 8 21
3 29 21 43
3 46 20 18
3 22 30 21
3 32 31 33
3 30 24 49
3 50 25 23
3 31 34 33
3 24 35 49
3 26 35 24
3 53 14 25
3 27 36 26
3 26 36 35
3 27 56 36
3 37 56 17
3 27 17 56
3 38 29 39
3 59 18 28
3 39 29 57
3 40 57 29
3 43 40 29
3 44 45 41
3 41 45 42
3 31 44 64
3 44 31 45
3 42 45 32
3 42 32 47
3 30 43 21
3 43 30 63
3 45 31 32
3 63 30 49
3 66 23 20
3 48 47 32
3 33 48 32
3 64 69 31
3 69 34 31
3 51 48 33
3 33 34 52
3 33 52 51
3 54 34 69
3 34 55 52
3 55 34 54
3 56 74 36
3 36 74 75
3 37 74 56
3 80 28 38
3 80 59 28
3 80 38 81
3 81 38 39
3 41 83 85
3 58 83 41
3 42 58 41
3 61 81 39
3 84 61 57
3 57 61 39
3 40 43 62
3 85 44 41
3 47 60 42
3 43 63 62
3 85 64 44
3 47 65 60
3 85 88 64
3 63 49 67
3 63 67 87
3 68 65 47
3 48 68 47
3 88 69 64
3 87 67 72
3 70 68 48
3 51 70 48
3 49 35 67
3 67 35 72
3 72 35 73
3 90 54 69
3 74 91 71
3 71 76 74
3 36 77 35
3 73 35 77
3 55 54 90
3 78 51 52
3 51 78 70
3 94 91 74
3 75 74 76
3 36 75 77
3 92 55 90
3 92 79 55
3 79 93 55
3 55 93 52
3 52 93 78
3 74 37 94
3 58 96 83
3 42 97 58
3 97 96 58
3 81 100 80
3 57 98 84
3 82 98 40
3 40 98 57
3 82 40 62
3 82 62 99
3 97 42 60
3 62 103 99
3 85 83 105
3 100 81 61
3 103 62 63
3 85 105 106
3 61 86 100
3 86 84 107
3 61 84 86
3 103 63 87
3 106 108 85
3 108 88 85
3 109 100 86
3 103 87 110
3 107 112 86
3 111 65 68
3 66 50 23
3 71 109 86
3 86 112 71
3 110 87 72
3 108 113 88
3 113 69 88
3 112 89 71
3 110 72 114
3 53 25 50
3 109 71 91
3 76 71 89
3 89 115 76
3 73 116 114
3 72 73 114
3 90 69 113
3 113 118 90
3 37 14 53
3 76 115 75
3 75 115 119
3 90 118 92
3 53 94 37
3 119 95 77
3 119 77 75
3 77 95 116
3 77 116 73
3 122 79 92
3 79 122 93
3 123 59 80
3 126 80 100
3 82 101 98
3 82 102 101
3 82 124 102
3 82 99 124
3 125 97 60
3 18 59 46
3 101 84 98
3 99 103 104
3 105 83 96
3 125 60 65
3 101 129 84
3 84 129 107
3 106 105 108
3 129 132 107
3 105 135 108
3 132 112 107
3 131 110 117
3 108 135 113
3 132 137 112
3 137 89 112
3 110 114 117
3 140 109 91
3 137 115 89
3 113 135 118
3 91 142 140
3 119 115 120
3 121 114 116
3 117 114 121
3 142 91 94
3 119 120 95
3 120 116 95
3 116 120 121
3 118 122 92
3 93 143 78
3 144 96 145
3 96 97 145
3 123 80 126
3 127 124 99
3 145 97 125
3 127 99 104
3 144 149 96
3 149 105 96
3 150 125 65
3 101 102 129
3 102 130 129
3 131 104 103
3 104 131 128
3 66 20 46
3 126 100 136
3 136 100 109
3 110 131 103
3 128 131 134
3 128 134 156
3 149 158 105
3 158 135 105
3 129 130 132
3 130 133 132
3 132 133 137
3 133 138 137
3 131 117 134
3 111 68 70
3 156 134 141
3 158 162 135
3 136 109 140
3 137 138 115
3 138 120 115
3 138 164 120
3 134 117 141
3 162 118 135
3 162 168 118
3 139 70 143
3 143 70 78
3 168 122 118
3 142 94 53
3 168 169 122
3 122 169 93
3 169 143 93
3 170 59 123
3 123 126 146
3 123 146 170
3 124 147 102
3 124 127 147
3 126 177 146
3 102 147 174
3 148 127 104
3 128 148 104
3 128 152 148
3 153 149 176
3 176 149 144
3 151 177 126
3 174 155 130
3 102 174 130
3 153 152 154
3 153 154 149
3 111 150 65
3 136 151 126
3 133 130 155
3 156 152 128
3 152 156 157
3 152 157 154
3 149 154 158
3 151 136 160
3 157 159 154
3 154 159 158
3 139 111 70
3 141 161 156
3 156 161 157
3 158 159 162
3 182 53 50
3 140 160 136
3 157 161 163
3 157 163 159
3 183 160 140
3 140 142 165
3 165 183 140
3 117 121 166
3 141 117 166
3 167 141 166
3 167 161 141
3 159 186 162
3 162 186 168
3 142 53 182
3 164 166 120
3 166 121 120
3 144 145 173
3 170 146 171
3 146 177 171
3 147 127 148
3 175 147 148
3 172 176 173
3 176 144 173
3 173 145 125
3 59 170 178
3 152 175 148
3 175 152 172
3 153 176 172
3 46 59 178
3 177 151 192
3 172 152 153
3 179 125 150
3 150 111 179
3 66 46 178
3 192 151 193
3 111 194 179
3 180 66 178
3 133 155 181
3 193 151 195
3 195 151 160
3 196 194 111
3 50 66 180
3 138 133 181
3 139 196 111
3 196 139 185
3 182 50 180
3 180 187 182
3 195 160 183
3 164 138 184
3 185 139 143
3 163 188 159
3 186 159 188
3 187 142 182
3 187 165 142
3 187 189 165
3 189 183 165
3 164 198 166
3 166 198 167
3 167 198 200
3 167 200 161
3 161 200 163
3 200 188 163
3 168 186 190
3 186 188 190
3 169 190 143
3 190 169 168
3 203 170 171
3 174 147 201
3 147 175 201
3 201 175 202
3 175 172 202
3 202 173 191
3 202 172 173
3 125 191 173
3 170 203 178
3 192 204 177
3 203 206 178
3 179 191 125
3 206 208 178
3 208 180 178
3 138 181 184
3 208 212 180
3 212 187 180
3 209 195 183
3 209 183 213
3 184 199 164
3 185 143 197
3 213 183 189
3 199 198 164
3 214 198 199
3 214 200 198
3 200 214 188
3 214 215 188
3 197 190 188
3 197 188 215
3 143 190 197
3 171 177 204
3 201 205 174
3 201 202 205
3 217 204 192
3 174 205 155
3 191 207 202
3 191 179 207
3 202 207 205
3 217 192 193
3 218 181 205
3 205 181 155
3 218 205 207
3 194 207 179
3 211 207 194
3 196 211 194
3 184 219 210
3 219 211 210
3 211 196 185
3 184 210 199
3 185 197 211
3 199 210 214
3 210 211 214
3 211 215 214
3 197 215 211
3 189 187 212
3 171 216 203
3 171 204 216
3 203 222 206
3 222 208 206
3 218 219 181
3 218 207 219
3 207 211 219
3 222 220 208
3 181 219 184
3 212 208 220
3 223 209 213
3 212 220 221
3 221 189 212
3 221 213 189
3 216 204 224
3 224 204 217
3 222 203 216
3 216 225 222
3 226 193 195
3 222 225 220
3 225 221 220
3 226 195 209
3 221 223 213
3 228 231 216
3 231 225 216
3 217 193 226
3 231 232 225
3 232 221 225
3 232 223 221
3 227 228 224
3 224 228 216
3 227 224 229
3 230 229 224
3 217 230 224
3 217 226 230
3 230 226 236
3 226 209 236
3 209 233 236
3 223 233 209
3 238 223 232
3 223 238 233
3 227 234 228
3 227 239 234
3 227 229 239
3 239 229 240
3 240 229 230
3 231 228 235
3 228 234 235
3 240 230 236
3 232 231 235
3 235 237 232
3 241 236 233
3 241 233 242
3 232 237 238
3 237 242 233
3 237 233 238
3 239 243 234
3 243 235 234
3 243 246 235
3 247 240 236
3 246 237 235
3 247 236 241
3 246 248 237
3 237 248 242
3 243 244 250
3 243 239 244
3 239 240 244
3 243 250 245
3 244 240 247
3 246 243 245
3 248 246 245
3 249 247 241
3 248 249 242
3 249 241 242
3 244 247 250
3 251 245 250
3 250 247 251
3 248 245 251
3 247 249 251
3 249 248 251
