ply
format ascii 1.0
element vertex 252
property float x
property float y
property float z
element face 500
property list uchar int vertex_indices
end_header
-0.564726 -0.157550 -0.548732
-0.543015 -0.170896 -0.407739
-0.578575 -0.019656 -0.421678
-0.594777 0.050906 -0.563446
-0.550268 0.162767 -0.436977
-0.560897 0.173395 -0.583745
-0.510487 -0.219436 -0.604508
-0.488912 -0.138012 -0.805978
-0.531405 -0.189543 -0.652882
-0.524047 -0.157687 -0.368230
-0.504020 -0.140688 0.206274
-0.501741 -0.150570 0.350054
-0.524865 -0.060340 -0.331736
-0.463371 -0.112434 0.112330
-0.526534 -0.053555 0.340353
-0.572345 -0.035295 -0.678251
-0.510374 0.005079 0.120468
-0.504499 -0.080596 0.425477
-0.537501 0.039572 -0.809957
-0.535245 0.025604 0.190449
-0.494341 0.036929 0.441363
-0.498161 0.131375 0.325305
-0.539011 0.154509 -0.681278
-0.529590 0.068186 -0.332480
-0.492395 0.144386 0.179155
-0.498499 0.144774 -0.803718
-0.492383 0.230877 -0.613535
-0.489150 0.200531 -0.458836
-0.442104 -0.236697 -0.722804
-0.494705 -0.183329 -0.450616
-0.415584 -0.258605 0.308800
-0.450251 -0.141640 0.503006
-0.495024 -0.051918 -0.864737
-0.484187 -0.013046 -0.335010
-0.466390 -0.034057 0.520544
-0.412423 -0.094238 0.596265
-0.411257 -0.027177 -0.409472
-0.482176 0.081498 -0.861352
-0.397477 0.103278 0.601526
-0.424241 0.099168 -0.422105
-0.455169 0.089746 0.520825
-0.511584 0.139360 -0.361863
-0.436206 0.134148 0.109268
-0.422032 0.185500 0.487432
-0.426221 0.244258 0.292498
-0.408393 0.253791 -0.728575
-0.419611 0.227140 0.186058
-0.300528 -0.252159 -0.694246
-0.400057 -0.241781 0.194596
-0.370082 -0.212477 0.543103
-0.406923 -0.232462 -0.792772
-0.269196 -0.213048 -0.645234
-0.428810 -0.101432 -0.895606
-0.238876 -0.107579 -0.593529
-0.256158 -0.178411 0.636069
-0.442095 0.010556 0.069104
-0.342327 -0.020405 0.686054
-0.358622 -0.030948 0.053922
-0.296995 0.128749 -0.574409
-0.366127 0.192675 -0.558552
-0.350587 0.213506 0.584005
-0.375064 0.259440 -0.667165
-0.331037 0.283386 0.244261
-0.283610 -0.267058 -0.792279
-0.293289 -0.305552 0.264209
-0.318767 -0.315663 0.351581
-0.246070 -0.300405 0.502452
-0.253400 -0.202604 -0.919396
-0.355051 -0.160184 0.100875
-0.225060 -0.032427 -1.014807
-0.330367 0.010028 -0.965291
-0.233739 0.035369 -0.587755
-0.350954 0.088029 0.058684
-0.322755 0.190743 0.120697
-0.232327 0.205657 0.625829
-0.339537 0.232971 -0.834258
-0.265627 0.196743 -0.658450
-0.142328 0.257632 -0.893596
-0.286414 0.265300 -0.753604
-0.243722 0.323307 0.445466
-0.255021 -0.214307 0.141409
-0.140350 -0.163635 -0.688312
-0.271133 -0.084904 0.071423
-0.253755 -0.063359 0.707086
-0.290301 0.000951 0.716003
-0.279975 0.069718 0.059760
-0.281087 0.065732 0.696048
-0.211532 0.155075 -0.972972
-0.225862 0.245753 0.171199
-0.216595 0.308021 0.262115
-0.208537 0.343434 0.355553
-0.146849 -0.341710 0.370276
-0.126157 -0.337218 0.440871
-0.114965 -0.290015 0.557964
-0.074123 -0.270341 -0.889642
-0.029300 -0.238882 -0.966116
-0.073031 -0.245059 -0.792164
-0.177276 -0.102829 0.086227
-0.097341 -0.039108 -1.058826
-0.121625 -0.042621 -0.660068
-0.197865 0.009575 0.069265
-0.067751 0.118439 -1.033136
-0.194829 0.138492 0.094418
-0.133987 0.100892 -0.674767
-0.062151 0.226687 -0.974833
-0.153935 0.206206 -0.724592
-0.023051 -0.309735 0.505652
-0.014764 -0.257716 0.183947
-0.135480 -0.133111 -1.026079
-0.018515 -0.119151 -0.718940
-0.044872 -0.149349 0.096010
0.782431 -0.104689 0.695804
-0.055312 0.042869 0.069789
0.729857 0.127373 0.705534
-0.033199 0.096523 -0.718515
-0.043012 0.268321 0.201523
0.152445 0.289981 0.557917
-0.072203 0.332058 0.494013
-0.082654 0.324107 0.325077
-0.122710 0.352777 0.428387
0.012760 -0.291250 0.269434
0.023039 -0.298694 0.374235
0.056522 -0.190855 0.089783
0.322708 -0.128052 -1.033773
0.047443 -0.014359 0.036744
0.337848 0.016026 -1.078435
0.049443 0.165289 0.069734
0.010459 0.211836 0.125567
-0.035114 0.237627 -0.799146
0.019275 0.303762 0.381842
0.160517 -0.266140 0.470140
0.048556 -0.293731 0.543591
0.297585 -0.237561 -0.974538
0.318844 -0.256455 -0.810974
0.092489 -0.253483 0.186457
0.114641 -0.230916 0.285837
0.247118 -0.181607 -0.739977
0.112704 -0.157516 0.034631
0.199301 -0.016953 -0.703421
0.374129 0.110850 -1.051495
0.187162 0.165159 -0.751300
0.118006 0.154623 0.031175
0.304556 0.223417 -0.972552
0.234395 0.238357 -0.804572
0.239237 0.263925 -0.889242
0.033821 0.264876 0.216740
0.107535 0.232720 0.213239
0.116735 0.283485 0.492266
0.120890 -0.234143 0.371758
0.264348 -0.262289 -0.934379
0.137616 -0.222693 0.094255
0.215805 -0.082569 0.333741
0.225498 -0.081782 0.266474
0.224511 -0.089678 -0.260922
0.179810 -0.137816 -0.041788
0.142182 0.014237 -0.053260
0.113624 -0.014208 -0.012163
0.209599 0.073031 -0.272252
0.192906 0.168085 -0.059803
0.202820 0.115297 0.276117
0.180055 0.152354 0.332071
0.118603 0.221592 0.098015
0.131808 0.228203 0.375887
0.223472 -0.208482 0.122776
0.198051 -0.193738 0.407377
0.299041 -0.195671 -0.302842
0.285561 -0.208492 -0.142666
0.211245 -0.211068 0.043995
0.270745 -0.215809 -0.020881
0.276852 -0.114861 -0.442403
0.312823 -0.135894 0.108580
0.262479 -0.058668 -0.647306
0.249826 0.017033 -0.443145
0.226083 0.020393 0.291583
0.232763 0.063670 0.330602
0.266027 0.099016 -0.651636
0.291288 0.160665 -0.407824
0.228691 0.145147 -0.260460
0.281076 0.209428 -0.742214
0.258396 0.219023 -0.027769
0.210012 0.219436 0.048658
0.226264 0.210983 0.107229
0.769713 0.182962 0.653896
0.281517 0.206280 -0.212261
0.246160 0.180628 0.402383
0.360618 -0.226291 -0.945732
0.351547 -0.224755 -0.711276
0.373287 -0.217150 -0.447733
0.298589 -0.194174 0.041085
0.283284 -0.118182 0.381573
0.378843 -0.068064 0.051140
0.339157 -0.021768 0.122188
0.381357 0.059746 0.048445
0.311484 0.106769 0.121126
0.295823 0.195021 0.035631
0.346963 0.217931 -0.665073
0.376291 0.214431 -0.439290
0.414955 0.219485 -0.870459
0.522867 -0.241539 0.513251
0.334098 -0.212122 -0.187587
0.521931 -0.240684 0.509081
0.512119 -0.207282 0.478524
0.447966 -0.143292 -0.951527
0.347719 -0.213519 -0.320225
0.315985 -0.213923 -0.055305
0.426687 -0.165452 -0.329315
0.396638 -0.114650 -0.059448
0.567101 -0.008431 0.398877
0.422822 0.144490 -0.994059
0.426674 0.167190 -0.321137
0.406544 0.111121 -0.066047
0.567121 0.117635 0.402854
0.349538 0.209761 -0.323269
0.343681 0.249643 -0.780050
0.334573 0.211716 -0.152064
0.585101 0.205610 0.465257
0.484365 0.256108 0.517710
0.412552 -0.237704 -0.769046
0.432854 -0.213092 -0.484341
0.722018 -0.241601 0.573474
0.497897 -0.164386 -0.782264
0.497335 -0.130644 -0.443418
0.502247 -0.055746 -0.353760
0.433744 0.003955 -1.028138
0.521999 -0.075577 -0.831770
0.470644 0.018028 -0.243631
0.425027 0.009573 -0.025410
0.511796 0.082237 -0.814754
0.505555 0.044838 -0.354299
0.485372 0.179620 -0.755146
0.436210 0.205157 -0.469692
0.495916 0.129355 -0.441502
0.407473 0.237977 -0.704824
0.801796 -0.197809 0.646842
0.523992 -0.041909 -0.430579
0.523245 0.054793 -0.421780
0.599327 0.256104 0.538173
0.669828 -0.195460 0.494728
0.695534 -0.023226 0.422667
0.661842 0.118713 0.423969
0.668566 0.226281 0.498838
0.758398 0.238035 0.566183
0.794859 -0.179610 0.521878
0.786284 0.042879 0.703461
0.823809 0.039331 0.465175
0.793208 0.183287 0.510973
0.829653 -0.203276 0.591329
0.874832 -0.043157 0.521778
0.868946 -0.049814 0.647354
0.874930 0.080337 0.532154
0.866796 0.099859 0.649911
0.831159 0.196363 0.587073
3 1 0 2
3 3 0 15
3 0 3 2
3 3 4 2
3 3 5 4
3 6 8 0
3 29 6 0
3 29 0 1
3 1 9 29
3 12 9 1
3 11 10 14
3 11 14 17
3 8 7 15
3 0 8 15
3 2 12 1
3 13 16 10
3 18 7 32
3 7 18 15
3 10 16 19
3 10 19 14
3 17 14 20
3 37 18 32
3 12 2 23
3 14 19 21
3 14 21 20
3 15 18 22
3 15 22 3
3 4 23 2
3 16 24 19
3 25 18 37
3 18 25 22
3 3 22 5
3 19 24 21
3 41 23 4
3 5 22 26
3 4 5 26
3 27 4 26
3 41 4 27
3 6 47 28
3 29 47 6
3 10 30 48
3 50 7 28
3 28 7 8
3 6 28 8
3 13 10 48
3 30 11 31
3 7 52 32
3 11 30 10
3 11 17 31
3 9 33 29
3 9 12 33
3 31 17 34
3 34 35 31
3 29 33 36
3 55 16 13
3 20 34 17
3 12 23 33
3 35 34 38
3 39 36 33
3 40 34 20
3 34 40 38
3 33 41 39
3 33 23 41
3 55 42 16
3 42 24 16
3 43 20 21
3 40 20 43
3 43 38 40
3 27 59 39
3 27 39 41
3 44 21 24
3 25 45 22
3 22 45 26
3 46 24 42
3 24 46 44
3 43 21 44
3 27 61 59
3 27 26 61
3 63 28 47
3 48 30 64
3 64 30 65
3 30 49 65
3 63 50 28
3 47 29 51
3 50 67 7
3 68 13 48
3 30 31 49
3 67 52 7
3 53 51 29
3 35 49 31
3 49 35 54
3 29 36 53
3 68 57 13
3 57 55 13
3 56 54 35
3 53 36 71
3 38 56 35
3 71 36 39
3 57 72 55
3 37 32 70
3 72 42 55
3 39 59 58
3 42 72 73
3 38 43 60
3 25 37 75
3 42 73 46
3 75 45 25
3 45 61 26
3 46 73 62
3 44 46 62
3 75 78 45
3 45 78 61
3 62 79 44
3 79 43 44
3 64 80 48
3 49 66 65
3 63 67 50
3 80 68 48
3 66 49 54
3 80 82 68
3 67 69 52
3 82 57 68
3 83 54 56
3 69 70 52
3 83 56 84
3 52 70 32
3 82 85 57
3 71 39 58
3 85 72 57
3 84 56 86
3 86 56 38
3 87 37 70
3 59 76 58
3 85 73 72
3 60 74 38
3 38 74 86
3 75 37 87
3 76 61 78
3 76 59 61
3 88 62 73
3 77 78 75
3 89 62 88
3 43 79 60
3 62 90 79
3 89 90 62
3 65 66 91
3 65 91 64
3 92 66 93
3 94 67 63
3 66 54 93
3 51 81 47
3 51 53 81
3 97 82 80
3 81 53 99
3 97 100 82
3 71 99 53
3 82 100 85
3 70 69 87
3 100 102 85
3 71 58 76
3 73 85 102
3 102 88 73
3 77 75 87
3 105 76 78
3 60 79 74
3 91 66 92
3 93 106 92
3 63 96 94
3 47 96 63
3 107 80 64
3 94 95 67
3 67 95 108
3 96 47 81
3 110 97 80
3 111 54 83
3 108 98 69
3 108 69 67
3 97 112 100
3 98 101 69
3 99 71 103
3 69 101 87
3 112 102 100
3 103 71 76
3 103 76 105
3 113 86 74
3 104 87 101
3 104 77 87
3 115 89 88
3 90 89 118
3 117 74 79
3 116 74 117
3 118 119 90
3 90 119 79
3 117 79 119
3 64 91 120
3 120 107 64
3 96 81 109
3 110 80 107
3 81 99 109
3 123 98 108
3 110 112 97
3 114 109 99
3 125 101 98
3 103 114 99
3 127 102 112
3 114 103 105
3 88 102 127
3 114 105 128
3 127 115 88
3 128 105 78
3 78 77 128
3 118 89 115
3 121 120 91
3 91 92 121
3 92 106 121
3 121 106 130
3 106 131 130
3 106 93 131
3 133 94 96
3 123 108 95
3 107 122 110
3 136 96 109
3 122 124 110
3 110 124 112
3 138 109 114
3 124 126 112
3 112 126 127
3 128 140 114
3 142 104 101
3 127 145 115
3 144 77 104
3 144 128 77
3 143 128 144
3 115 145 118
3 118 145 129
3 129 119 118
3 119 129 117
3 117 129 147
3 147 116 117
3 95 94 149
3 120 134 107
3 135 134 120
3 121 135 120
3 148 121 130
3 149 132 95
3 107 134 122
3 122 134 150
3 135 121 148
3 137 122 150
3 136 109 138
3 137 124 122
3 137 156 124
3 156 141 124
3 141 126 124
3 141 161 126
3 126 161 127
3 146 145 127
3 146 127 161
3 146 162 129
3 145 146 129
3 129 162 147
3 94 133 149
3 148 130 164
3 96 136 133
3 150 134 163
3 163 134 135
3 132 123 95
3 167 137 150
3 148 151 135
3 148 164 151
3 167 154 137
3 135 151 152
3 154 153 155
3 154 155 156
3 137 154 156
3 153 157 155
3 138 114 140
3 155 157 158
3 155 158 141
3 156 155 141
3 182 113 74
3 143 140 128
3 180 141 158
3 161 141 180
3 146 181 159
3 159 160 146
3 160 162 146
3 160 184 162
3 104 142 144
3 161 181 146
3 184 147 162
3 150 163 167
3 165 153 166
3 166 153 154
3 166 154 168
3 167 188 168
3 167 163 188
3 189 151 164
3 165 169 153
3 167 168 154
3 163 152 170
3 135 152 163
3 171 136 138
3 169 171 172
3 169 172 153
3 153 172 157
3 152 151 173
3 151 174 173
3 175 171 138
3 140 175 138
3 171 175 172
3 176 157 172
3 173 174 159
3 174 160 159
3 157 176 177
3 158 157 177
3 160 174 184
3 178 175 140
3 139 142 101
3 178 140 143
3 183 177 176
3 177 183 158
3 179 158 183
3 179 180 158
3 179 194 180
3 181 180 194
3 181 161 180
3 149 185 132
3 185 149 133
3 130 131 198
3 131 93 198
3 136 186 133
3 165 199 203
3 165 166 199
3 166 204 199
3 168 204 166
3 201 164 130
3 200 201 130
3 185 123 132
3 187 186 169
3 187 165 203
3 169 165 187
3 204 168 188
3 170 188 163
3 171 186 136
3 186 171 169
3 188 170 190
3 170 191 190
3 152 191 170
3 123 125 98
3 207 151 189
3 173 191 152
3 193 191 173
3 139 101 125
3 176 172 175
3 193 173 159
3 192 193 194
3 211 184 174
3 178 195 175
3 175 195 176
3 193 181 194
3 159 181 193
3 176 195 196
3 196 212 176
3 176 212 183
3 197 144 142
3 213 178 143
3 213 195 178
3 212 214 183
3 214 179 183
3 194 179 214
3 147 184 216
3 197 213 144
3 213 143 144
3 216 116 147
3 200 130 198
3 93 219 198
3 185 217 202
3 185 133 217
3 133 186 217
3 186 187 217
3 217 187 218
3 219 93 54
3 187 203 205
3 187 205 218
3 203 199 205
3 199 206 205
3 204 206 199
3 201 189 164
3 202 123 185
3 204 188 206
3 188 190 206
3 201 207 189
3 223 125 123
3 123 202 223
3 226 206 190
3 192 226 190
3 190 191 192
3 139 125 223
3 223 208 139
3 210 226 192
3 191 193 192
3 207 174 151
3 210 192 194
3 142 139 208
3 208 197 142
3 196 230 209
3 196 209 212
3 209 214 212
3 209 210 214
3 194 214 210
3 213 197 232
3 213 232 195
3 195 232 196
3 232 230 196
3 184 215 216
3 182 74 116
3 218 220 217
3 233 219 54
3 202 217 220
3 218 205 221
3 220 218 221
3 221 205 222
3 202 224 223
3 202 220 224
3 205 225 222
3 205 206 225
3 206 226 225
3 224 227 223
3 222 225 228
3 226 210 225
3 223 227 208
3 225 209 228
3 210 209 225
3 227 197 208
3 227 229 197
3 229 231 230
3 231 228 209
3 209 230 231
3 215 184 211
3 232 197 229
3 230 232 229
3 216 236 116
3 236 182 116
3 198 201 200
3 220 221 224
3 221 234 224
3 221 222 234
3 224 234 227
3 234 235 227
3 234 228 235
3 222 228 234
3 235 231 227
3 235 228 231
3 207 211 174
3 227 231 229
3 216 215 236
3 198 237 201
3 237 198 219
3 207 201 237
3 238 207 237
3 239 207 238
3 211 207 239
3 211 239 215
3 215 239 240
3 240 236 215
3 236 240 241
3 242 237 219
3 54 111 233
3 242 238 237
3 111 83 243
3 243 83 84
3 244 239 238
3 243 84 86
3 243 86 113
3 245 240 239
3 245 241 240
3 241 182 236
3 246 242 219
3 219 233 246
3 244 238 242
3 243 113 182
3 244 245 239
3 241 245 251
3 251 182 241
3 242 246 247
3 246 248 247
3 246 233 248
3 233 111 248
3 244 242 247
3 111 243 248
3 249 244 247
3 247 248 249
3 248 250 249
3 248 243 250
3 245 244 249
3 249 251 245
3 249 250 251
3 243 182 250
3 251 250 182
