ply
format ascii 1.0
element vertex 1348
property float x
property float y
property float z
element face 2635
property list uchar int vertex_indices
end_header
-0.825429 -0.225000 -0.600000
-0.828855 -0.150000 -0.750000
-0.840703 -0.150000 -0.675000
-0.840094 -0.150000 -0.600000
-0.837673 -0.150000 -0.525000
-0.855512 -0.075000 -0.750000
-0.861100 -0.075000 -0.675000
-0.862025 -0.075000 -0.600000
-0.858656 -0.075000 -0.525000
-0.830822 -0.075000 -0.450000
-0.860952 0.000000 -0.750000
-0.868675 0.000000 -0.675000
-0.858488 0.000000 -0.600000
-0.848487 0.000000 -0.525000
-0.835104 0.075000 -0.750000
-0.850052 0.075000 -0.675000
-0.844964 0.075000 -0.600000
-0.838635 0.075000 -0.525000
-0.825000 -0.225599 -0.600000
-0.825000 -0.158121 -0.750000
-0.785095 -0.225000 -0.750000
-0.825000 -0.225000 -0.604251
-0.825000 -0.201618 -0.675000
-0.815320 -0.225000 -0.675000
-0.825000 -0.225000 -0.596975
-0.825000 -0.191193 -0.525000
-0.809373 -0.225000 -0.525000
-0.758541 -0.225000 -0.450000
-0.825000 -0.150000 -0.758290
-0.778561 -0.150000 -0.825000
-0.825000 -0.150000 -0.490483
-0.825000 -0.094946 -0.450000
-0.807929 -0.150000 -0.450000
-0.769935 -0.150000 -0.375000
-0.825000 -0.075000 -0.813819
-0.815674 -0.075000 -0.825000
-0.825000 -0.075000 -0.437919
-0.825000 -0.013839 -0.450000
-0.792152 -0.075000 -0.375000
-0.825000 0.000000 -0.812584
-0.814112 0.000000 -0.825000
-0.825000 0.000000 -0.453742
-0.823669 0.000000 -0.450000
-0.789124 0.000000 -0.375000
-0.825000 0.075000 -0.768198
-0.776971 0.075000 -0.825000
-0.825000 0.098720 -0.750000
-0.825000 0.135082 -0.675000
-0.825000 0.127383 -0.600000
-0.825000 0.075000 -0.495755
-0.825000 0.114462 -0.525000
-0.801281 0.075000 -0.450000
-0.764935 0.075000 -0.375000
-0.794344 0.150000 -0.750000
-0.816285 0.150000 -0.675000
-0.811826 0.150000 -0.600000
-0.804380 0.150000 -0.525000
-0.761999 0.150000 -0.450000
-0.750000 -0.261919 -0.750000
-0.750000 -0.285499 -0.675000
-0.750000 -0.291481 -0.600000
-0.750000 -0.274281 -0.525000
-0.750000 -0.233162 -0.450000
-0.750000 -0.225000 -0.793228
-0.750000 -0.186132 -0.825000
-0.750000 -0.225000 -0.434378
-0.750000 -0.183249 -0.375000
-0.713625 -0.225000 -0.375000
-0.750000 -0.150000 -0.845925
-0.750000 -0.150000 -0.339646
-0.725537 -0.150000 -0.300000
-0.750000 -0.075000 -0.868818
-0.750000 -0.075000 -0.311976
-0.741065 -0.075000 -0.300000
-0.683350 -0.075000 -0.225000
-0.750000 0.000000 -0.871624
-0.750000 0.000000 -0.313634
-0.740333 0.000000 -0.300000
-0.684644 0.000000 -0.225000
-0.750000 0.075000 -0.843033
-0.750000 0.109850 -0.825000
-0.750000 0.075000 -0.353211
-0.750000 0.105649 -0.375000
-0.707240 0.075000 -0.300000
-0.750000 0.150000 -0.795571
-0.750000 0.185776 -0.750000
-0.750000 0.197013 -0.675000
-0.750000 0.191209 -0.600000
-0.750000 0.184003 -0.525000
-0.750000 0.150000 -0.424681
-0.750000 0.162295 -0.450000
-0.719806 0.150000 -0.375000
-0.675000 -0.274879 -0.750000
-0.675000 -0.296581 -0.675000
-0.675000 -0.294935 -0.600000
-0.675000 -0.284262 -0.525000
-0.675000 -0.266893 -0.450000
-0.675000 -0.249771 -0.375000
-0.675000 -0.225000 -0.816149
-0.675000 -0.211472 -0.825000
-0.608490 -0.225000 -0.825000
-0.675000 -0.225000 -0.317570
-0.675000 -0.213770 -0.300000
-0.657452 -0.225000 -0.300000
-0.675000 -0.150000 -0.858786
-0.675000 -0.150000 -0.232270
-0.675000 -0.121269 -0.225000
-0.669479 -0.150000 -0.225000
-0.613245 -0.150000 -0.150000
-0.675000 -0.075000 -0.887519
-0.675000 -0.075000 -0.212832
-0.632090 -0.075000 -0.150000
-0.675000 0.000000 -0.886219
-0.675000 0.000000 -0.212060
-0.675000 0.025597 -0.225000
-0.628326 0.000000 -0.150000
-0.675000 0.075000 -0.857859
-0.675000 0.138113 -0.825000
-0.675000 0.075000 -0.254846
-0.675000 0.129836 -0.300000
-0.655551 0.075000 -0.225000
-0.611343 0.075000 -0.150000
-0.675000 0.150000 -0.816016
-0.601834 0.150000 -0.825000
-0.675000 0.201600 -0.750000
-0.675000 0.222778 -0.675000
-0.675000 0.219629 -0.600000
-0.675000 0.208029 -0.525000
-0.675000 0.201606 -0.450000
-0.675000 0.150000 -0.317979
-0.675000 0.179565 -0.375000
-0.650552 0.150000 -0.300000
-0.605633 0.150000 -0.225000
-0.600000 -0.226115 -0.825000
-0.600000 -0.261037 -0.750000
-0.600000 -0.251554 -0.675000
-0.600000 -0.241418 -0.600000
-0.600000 -0.245011 -0.525000
-0.600000 -0.271782 -0.450000
-0.600000 -0.269173 -0.375000
-0.600000 -0.250041 -0.300000
-0.600000 -0.225000 -0.825810
-0.580791 -0.225000 -0.600000
-0.573289 -0.225000 -0.525000
-0.600000 -0.225000 -0.230601
-0.600000 -0.222502 -0.225000
-0.595973 -0.225000 -0.225000
-0.600000 -0.169239 -0.150000
-0.543126 -0.225000 -0.150000
-0.600000 -0.150000 -0.868913
-0.558412 -0.150000 -0.600000
-0.600000 -0.150000 -0.129076
-0.566713 -0.150000 -0.075000
-0.600000 -0.075000 -0.890156
-0.541199 -0.075000 -0.600000
-0.600000 -0.075000 -0.097162
-0.586568 -0.075000 -0.075000
-0.537000 -0.075000 0.000000
-0.600000 0.000000 -0.888737
-0.536121 0.000000 -0.600000
-0.600000 0.000000 -0.104024
-0.583355 0.000000 -0.075000
-0.539097 0.000000 0.000000
-0.600000 0.075000 -0.864673
-0.551106 0.075000 -0.600000
-0.534687 0.075000 -0.525000
-0.600000 0.075000 -0.130744
-0.600000 0.091310 -0.150000
-0.563096 0.075000 -0.075000
-0.600000 0.150000 -0.825157
-0.600000 0.150173 -0.825000
-0.600000 0.192780 -0.750000
-0.600000 0.182386 -0.675000
-0.600000 0.164148 -0.600000
-0.587590 0.150000 -0.600000
-0.600000 0.167791 -0.525000
-0.578037 0.150000 -0.525000
-0.600000 0.196883 -0.450000
-0.534095 0.150000 -0.450000
-0.600000 0.197416 -0.375000
-0.600000 0.169074 -0.300000
-0.600000 0.150000 -0.217348
-0.600000 0.153854 -0.225000
-0.549297 0.150000 -0.150000
-0.525000 -0.227501 -0.825000
-0.525000 -0.262467 -0.750000
-0.525000 -0.232287 -0.675000
-0.525000 -0.227570 -0.450000
-0.525000 -0.257975 -0.375000
-0.525000 -0.266980 -0.300000
-0.525000 -0.261382 -0.225000
-0.525000 -0.238865 -0.150000
-0.525000 -0.225000 -0.826767
-0.525000 -0.225000 -0.665405
-0.466465 -0.225000 -0.675000
-0.525000 -0.225000 -0.454890
-0.525000 -0.153366 -0.525000
-0.521797 -0.225000 -0.450000
-0.475618 -0.225000 -0.375000
-0.525000 -0.225000 -0.118878
-0.525000 -0.203491 -0.075000
-0.502702 -0.225000 -0.075000
-0.455654 -0.225000 0.000000
-0.525000 -0.150000 -0.870992
-0.525000 -0.150000 -0.654564
-0.475178 -0.150000 -0.675000
-0.525000 -0.150000 -0.528058
-0.523197 -0.150000 -0.525000
-0.476883 -0.150000 -0.450000
-0.525000 -0.150000 -0.003958
-0.525000 -0.137831 0.000000
-0.522195 -0.150000 0.000000
-0.468879 -0.150000 0.075000
-0.525000 -0.075000 -0.887368
-0.525000 -0.075000 -0.625565
-0.525000 -0.075000 -0.541937
-0.519097 -0.075000 -0.525000
-0.453805 -0.075000 -0.450000
-0.525000 -0.075000 0.017167
-0.485603 -0.075000 0.075000
-0.525000 0.000000 -0.887780
-0.525000 0.000000 -0.614546
-0.525000 0.000000 -0.542677
-0.525000 0.020347 -0.525000
-0.520732 0.000000 -0.525000
-0.466681 0.000000 -0.450000
-0.525000 0.000000 0.021725
-0.525000 0.043448 0.000000
-0.487692 0.000000 0.075000
-0.525000 0.075000 -0.868705
-0.525000 0.075000 -0.635657
-0.525000 0.075000 -0.507653
-0.525000 0.139135 -0.450000
-0.482516 0.075000 -0.450000
-0.525000 0.075000 -0.018142
-0.525000 0.123273 -0.075000
-0.512988 0.075000 0.000000
-0.455888 0.075000 0.075000
-0.525000 0.150000 -0.826819
-0.525000 0.151875 -0.825000
-0.525000 0.191850 -0.750000
-0.525000 0.150000 -0.663392
-0.525000 0.163592 -0.675000
-0.525000 0.150000 -0.429431
-0.525000 0.167203 -0.375000
-0.489485 0.150000 -0.375000
-0.525000 0.188520 -0.300000
-0.525000 0.180830 -0.225000
-0.525000 0.150000 -0.111725
-0.525000 0.167985 -0.150000
-0.499295 0.150000 -0.075000
-0.452976 0.150000 0.000000
-0.450000 -0.227132 -0.825000
-0.450000 -0.262616 -0.750000
-0.450000 -0.241690 -0.300000
-0.450000 -0.269412 -0.225000
-0.450000 -0.275818 -0.150000
-0.450000 -0.271760 -0.075000
-0.450000 -0.230220 0.000000
-0.450000 -0.225000 -0.826533
-0.450000 -0.225000 -0.678428
-0.438060 -0.225000 -0.675000
-0.450000 -0.225000 -0.336437
-0.450000 -0.198605 -0.375000
-0.429080 -0.225000 -0.300000
-0.450000 -0.225000 0.008638
-0.450000 -0.174693 0.075000
-0.405082 -0.225000 0.075000
-0.450000 -0.150000 -0.872155
-0.450000 -0.102413 -0.675000
-0.430789 -0.150000 -0.675000
-0.450000 -0.150000 -0.419566
-0.416212 -0.150000 -0.375000
-0.450000 -0.150000 0.099060
-0.403175 -0.150000 0.150000
-0.450000 -0.075000 -0.887294
-0.450000 -0.075000 -0.670884
-0.450000 -0.075000 -0.445757
-0.397756 -0.075000 -0.375000
-0.450000 -0.075000 0.123402
-0.426348 -0.075000 0.150000
-0.450000 0.000000 -0.886266
-0.450000 0.000000 -0.648728
-0.450000 0.000000 -0.431746
-0.393177 0.000000 -0.375000
-0.450000 0.000000 0.121416
-0.424385 0.000000 0.150000
-0.450000 0.075000 -0.871586
-0.450000 0.075000 -0.657592
-0.450000 0.075000 -0.411416
-0.450000 0.119378 -0.375000
-0.418940 0.075000 -0.375000
-0.450000 0.075000 0.082372
-0.450000 0.083617 0.075000
-0.393844 0.075000 0.150000
-0.450000 0.150000 -0.828438
-0.450000 0.153486 -0.825000
-0.450000 0.189640 -0.750000
-0.450000 0.150000 -0.674592
-0.450000 0.150556 -0.675000
-0.450000 0.150000 -0.331349
-0.450000 0.162516 -0.300000
-0.427329 0.150000 -0.300000
-0.450000 0.198452 -0.225000
-0.450000 0.200741 -0.150000
-0.450000 0.185366 -0.075000
-0.450000 0.150000 0.004111
-0.450000 0.152507 0.000000
-0.392789 0.150000 0.075000
-0.375000 -0.227204 -0.825000
-0.375000 -0.263716 -0.750000
-0.375000 -0.234913 -0.675000
-0.375000 -0.231465 -0.225000
-0.375000 -0.265521 -0.150000
-0.375000 -0.291623 -0.075000
-0.375000 -0.288755 0.000000
-0.375000 -0.249689 0.075000
-0.375000 -0.225000 -0.826726
-0.375000 -0.225000 -0.665791
-0.375000 -0.225000 -0.234415
-0.375000 -0.161036 -0.300000
-0.368033 -0.225000 -0.225000
-0.323255 -0.225000 -0.150000
-0.375000 -0.225000 0.109191
-0.375000 -0.182919 0.150000
-0.331931 -0.225000 0.150000
-0.375000 -0.150000 -0.872024
-0.375000 -0.150000 -0.656096
-0.375000 -0.150000 -0.311849
-0.368281 -0.150000 -0.300000
-0.321642 -0.150000 -0.225000
-0.375000 -0.150000 0.176201
-0.323307 -0.150000 0.225000
-0.375000 -0.075000 -0.886393
-0.375000 -0.075000 -0.643027
-0.375000 -0.075000 -0.335519
-0.354934 -0.075000 -0.300000
-0.375000 -0.075000 0.197321
-0.343278 -0.075000 0.225000
-0.375000 0.000000 -0.887453
-0.375000 0.000000 -0.627846
-0.375000 0.000000 -0.348746
-0.346489 0.000000 -0.300000
-0.375000 0.000000 0.199008
-0.346201 0.000000 0.225000
-0.375000 0.075000 -0.873415
-0.375000 0.075000 -0.640082
-0.375000 0.075000 -0.316581
-0.375000 0.094487 -0.300000
-0.363940 0.075000 -0.300000
-0.311116 0.075000 -0.225000
-0.375000 0.075000 0.168854
-0.375000 0.099552 0.150000
-0.306406 0.075000 0.225000
-0.375000 0.150000 -0.829911
-0.375000 0.154708 -0.825000
-0.375000 0.189682 -0.750000
-0.375000 0.150000 -0.666063
-0.375000 0.160623 -0.675000
-0.375000 0.150000 -0.239215
-0.375000 0.157844 -0.225000
-0.365569 0.150000 -0.225000
-0.375000 0.191917 -0.150000
-0.326851 0.150000 -0.150000
-0.375000 0.210178 -0.075000
-0.375000 0.202991 0.000000
-0.375000 0.150000 0.095600
-0.375000 0.164631 0.075000
-0.325426 0.150000 0.150000
-0.300000 -0.227684 -0.825000
-0.300000 -0.262383 -0.750000
-0.300000 -0.238579 -0.675000
-0.300000 -0.248991 -0.075000
-0.300000 -0.285396 0.000000
-0.300000 -0.282329 0.075000
-0.300000 -0.245437 0.150000
-0.300000 -0.225000 -0.827347
-0.300000 -0.225000 -0.661374
-0.300000 -0.225000 -0.112635
-0.300000 -0.191710 -0.150000
-0.270929 -0.225000 -0.075000
-0.300000 -0.225000 0.179655
-0.300000 -0.177516 0.225000
-0.248748 -0.225000 0.225000
-0.300000 -0.150000 -0.871920
-0.300000 -0.150000 -0.650973
-0.300000 -0.150000 -0.188561
-0.300000 -0.079296 -0.225000
-0.274471 -0.150000 -0.150000
-0.300000 -0.150000 0.247512
-0.252091 -0.150000 0.300000
-0.300000 -0.075000 -0.889667
-0.300000 -0.075000 -0.637112
-0.300000 -0.075000 -0.226771
-0.298697 -0.075000 -0.225000
-0.249431 -0.075000 -0.150000
-0.300000 -0.075000 0.265743
-0.268558 -0.075000 0.300000
-0.300000 0.000000 -0.887898
-0.300000 0.000000 -0.623041
-0.300000 0.000000 -0.230315
-0.300000 0.018980 -0.225000
-0.296606 0.000000 -0.225000
-0.252426 0.000000 -0.150000
-0.300000 0.000000 0.269115
-0.272123 0.000000 0.300000
-0.300000 0.075000 -0.873552
-0.300000 0.075000 -0.643537
-0.300000 0.075000 -0.205235
-0.300000 0.118566 -0.150000
-0.270393 0.075000 -0.150000
-0.300000 0.075000 0.230391
-0.300000 0.083623 0.225000
-0.234235 0.075000 0.300000
-0.300000 0.150000 -0.832096
-0.300000 0.156712 -0.825000
-0.300000 0.191081 -0.750000
-0.300000 0.150000 -0.666145
-0.300000 0.160961 -0.675000
-0.300000 0.150000 -0.109242
-0.300000 0.174625 -0.075000
-0.272756 0.150000 -0.075000
-0.300000 0.206680 0.000000
-0.300000 0.209338 0.075000
-0.300000 0.150000 0.174741
-0.300000 0.170891 0.150000
-0.240170 0.150000 0.225000
-0.225000 -0.226268 -0.825000
-0.225000 -0.259665 -0.750000
-0.225000 -0.247057 -0.675000
-0.225000 -0.236559 0.000000
-0.225000 -0.276148 0.075000
-0.225000 -0.267315 0.150000
-0.225000 -0.239792 0.225000
-0.225000 -0.225000 -0.826238
-0.193498 -0.225000 -0.825000
-0.225000 -0.225000 -0.647495
-0.225000 -0.225000 -0.017258
-0.225000 -0.170549 -0.075000
-0.207697 -0.225000 0.000000
-0.225000 -0.225000 0.249744
-0.225000 -0.183606 0.300000
-0.176110 -0.225000 0.300000
-0.225000 -0.150000 -0.871623
-0.225000 -0.150000 -0.620049
-0.177137 -0.150000 -0.600000
-0.225000 -0.150000 -0.089872
-0.211895 -0.150000 -0.075000
-0.225000 -0.150000 0.328142
-0.175804 -0.150000 0.375000
-0.225000 -0.075000 -0.891130
-0.225000 -0.075000 -0.609284
-0.202208 -0.075000 -0.600000
-0.225000 -0.075000 -0.120322
-0.181272 -0.075000 -0.075000
-0.225000 -0.075000 0.348906
-0.200483 -0.075000 0.375000
-0.225000 0.000000 -0.889541
-0.225000 0.000000 -0.600998
-0.222109 0.000000 -0.600000
-0.225000 0.000000 -0.118406
-0.180194 0.000000 -0.075000
-0.225000 0.000000 0.356202
-0.209159 0.000000 0.375000
-0.225000 0.075000 -0.871558
-0.225000 0.075000 -0.627823
-0.161024 0.075000 -0.600000
-0.225000 0.075000 -0.088633
-0.225000 0.093206 -0.075000
-0.212317 0.075000 -0.075000
-0.225000 0.075000 0.311491
-0.225000 0.086691 0.300000
-0.175063 0.075000 0.375000
-0.225000 0.150000 -0.833379
-0.225000 0.157963 -0.825000
-0.225000 0.191918 -0.750000
-0.225000 0.150000 -0.649442
-0.225000 0.175656 -0.675000
-0.225000 0.150000 -0.029372
-0.225000 0.175167 0.000000
-0.189990 0.150000 0.000000
-0.225000 0.203420 0.075000
-0.225000 0.209360 0.150000
-0.225000 0.150000 0.237437
-0.225000 0.160540 0.225000
-0.169768 0.150000 0.300000
-0.150000 -0.256215 -0.750000
-0.150000 -0.261427 -0.675000
-0.150000 -0.247582 0.075000
-0.150000 -0.271729 0.150000
-0.150000 -0.268985 0.225000
-0.150000 -0.239608 0.300000
-0.150000 -0.225000 -0.821133
-0.150000 -0.221983 -0.825000
-0.150000 -0.225000 -0.619380
-0.150000 -0.185872 -0.600000
-0.150000 -0.225000 0.042887
-0.150000 -0.177332 0.000000
-0.106348 -0.225000 0.075000
-0.150000 -0.225000 0.329114
-0.150000 -0.184291 0.375000
-0.105960 -0.225000 0.375000
-0.150000 -0.150000 -0.870040
-0.150000 -0.150000 -0.589656
-0.150000 -0.150000 -0.018208
-0.126390 -0.150000 0.000000
-0.150000 -0.150000 0.397601
-0.082030 -0.150000 0.450000
-0.150000 -0.075000 -0.894394
-0.150000 -0.075000 -0.579340
-0.150000 -0.075000 -0.047921
-0.087274 -0.075000 0.000000
-0.150000 -0.075000 0.422820
-0.115046 -0.075000 0.450000
-0.150000 0.000000 -0.891078
-0.150000 0.000000 -0.576137
-0.150000 0.000000 -0.047044
-0.097162 0.000000 0.000000
-0.150000 0.000000 0.436460
-0.133105 0.000000 0.450000
-0.150000 0.075000 -0.868449
-0.150000 0.075000 -0.595200
-0.150000 0.092633 -0.600000
-0.150000 0.075000 -0.020553
-0.150000 0.108530 0.000000
-0.124846 0.075000 0.000000
-0.150000 0.075000 0.399857
-0.150000 0.108886 0.375000
-0.083800 0.075000 0.450000
-0.150000 0.150000 -0.826726
-0.150000 0.151684 -0.825000
-0.145908 0.150000 -0.825000
-0.150000 0.188000 -0.750000
-0.150000 0.150000 -0.621185
-0.150000 0.191758 -0.675000
-0.087497 0.150000 -0.600000
-0.150000 0.150000 0.031056
-0.150000 0.181970 0.075000
-0.084633 0.150000 0.075000
-0.150000 0.208229 0.150000
-0.150000 0.214759 0.225000
-0.150000 0.150000 0.327407
-0.150000 0.169535 0.300000
-0.109669 0.150000 0.375000
-0.075000 -0.245047 -0.750000
-0.075000 -0.270976 -0.675000
-0.075000 -0.252781 0.150000
-0.075000 -0.272803 0.225000
-0.075000 -0.262472 0.300000
-0.075000 -0.241519 0.375000
-0.075000 -0.225000 -0.788887
-0.075000 -0.195057 -0.825000
-0.012070 -0.225000 -0.750000
-0.075000 -0.225000 -0.601080
-0.075000 -0.223706 -0.600000
-0.070744 -0.225000 -0.600000
-0.075000 -0.225000 0.100712
-0.075000 -0.202291 0.075000
-0.005553 -0.225000 0.150000
-0.075000 -0.225000 0.399321
-0.075000 -0.159088 0.450000
-0.016213 -0.225000 0.450000
-0.075000 -0.150000 -0.860362
-0.037320 -0.150000 -0.825000
-0.075000 -0.150000 -0.562817
-0.075000 -0.150000 0.037648
-0.025696 -0.150000 0.075000
-0.075000 -0.150000 0.455992
-0.012436 -0.150000 0.525000
-0.016701 -0.150000 0.600000
-0.005538 -0.150000 0.675000
-0.075000 -0.075000 -0.877587
-0.010826 -0.075000 -0.825000
-0.075000 -0.075000 -0.553683
-0.017124 -0.075000 -0.525000
-0.075000 -0.075000 0.009292
-0.075000 -0.075000 0.482827
-0.033621 -0.075000 0.525000
-0.033597 -0.075000 0.600000
-0.021991 -0.075000 0.675000
-0.075000 0.000000 -0.875028
-0.011832 0.000000 -0.825000
-0.075000 0.000000 -0.550764
-0.018840 0.000000 -0.525000
-0.075000 0.000000 0.017976
-0.008876 0.000000 0.075000
-0.075000 0.000000 0.495990
-0.045255 0.000000 0.525000
-0.031015 0.000000 0.600000
-0.021411 0.000000 0.675000
-0.075000 0.075000 -0.840594
-0.075000 0.098869 -0.825000
-0.056711 0.075000 -0.825000
-0.075000 0.075000 -0.564396
-0.075000 0.075000 0.041213
-0.075000 0.139725 0.075000
-0.039414 0.075000 0.075000
-0.075000 0.075000 0.458553
-0.075000 0.089866 0.450000
-0.031547 0.075000 0.525000
-0.023881 0.075000 0.600000
-0.007938 0.075000 0.675000
-0.075000 0.150000 -0.777100
-0.075000 0.165366 -0.750000
-0.034715 0.150000 -0.750000
-0.075000 0.195496 -0.675000
-0.075000 0.150000 -0.596457
-0.075000 0.153509 -0.600000
-0.075000 0.150000 0.084882
-0.075000 0.181574 0.150000
-0.005826 0.150000 0.150000
-0.075000 0.208969 0.225000
-0.075000 0.223129 0.300000
-0.075000 0.150000 0.411765
-0.075000 0.176885 0.375000
-0.041671 0.150000 0.450000
0.000000 -0.259165 -0.675000
0.000000 -0.237766 -0.600000
0.000000 -0.266544 0.225000
0.000000 -0.280933 0.300000
0.000000 -0.272174 0.375000
0.000000 -0.236085 0.450000
0.000000 -0.225000 -0.742391
0.000000 -0.215655 -0.750000
0.000000 -0.225000 -0.585105
0.000000 -0.225000 0.153848
0.000000 -0.221380 0.150000
0.000000 -0.225000 0.480378
0.000000 -0.182844 0.525000
0.015614 -0.225000 0.525000
0.000000 -0.185588 0.600000
0.026494 -0.225000 0.600000
0.000000 -0.159185 0.675000
0.068459 -0.225000 0.675000
0.000000 -0.150000 -0.787000
0.038698 -0.150000 -0.750000
0.000000 -0.150000 -0.533484
0.000000 -0.113912 -0.525000
0.016350 -0.150000 -0.525000
0.000000 -0.150000 0.096316
0.000000 -0.083140 0.075000
0.059553 -0.150000 0.150000
0.000000 -0.150000 0.686222
0.049546 -0.150000 0.750000
0.000000 -0.075000 -0.816504
0.000000 -0.075000 -0.515533
0.000000 -0.075000 0.072575
0.000000 -0.056960 0.075000
0.002919 -0.075000 0.075000
0.000000 -0.075000 0.710675
0.032359 -0.075000 0.750000
0.000000 0.000000 -0.814263
0.062983 0.000000 -0.750000
0.000000 0.000000 -0.514830
0.000000 0.032385 -0.525000
0.000000 0.000000 0.082635
0.000000 0.000000 0.709959
0.034092 0.000000 0.750000
0.000000 0.075000 -0.771687
0.000000 0.116029 -0.750000
0.024254 0.075000 -0.750000
0.000000 0.075000 -0.537118
0.020030 0.075000 -0.525000
0.000000 0.075000 0.109924
0.000000 0.145138 0.150000
0.056497 0.075000 0.150000
0.000000 0.146022 0.525000
0.000000 0.138123 0.600000
0.000000 0.075000 0.687687
0.000000 0.093651 0.675000
0.057665 0.075000 0.750000
0.000000 0.150000 -0.729501
0.000000 0.183967 -0.675000
0.000000 0.150000 -0.576905
0.000000 0.164270 -0.600000
0.070318 0.150000 -0.525000
0.000000 0.150000 0.154681
0.000000 0.191673 0.225000
0.000000 0.221354 0.300000
0.000000 0.221337 0.375000
0.000000 0.150000 0.520590
0.000000 0.181950 0.450000
0.002459 0.150000 0.525000
0.006899 0.150000 0.600000
0.040126 0.150000 0.675000
0.075000 -0.233611 -0.675000
0.075000 -0.263685 -0.600000
0.075000 -0.237481 0.225000
0.075000 -0.268347 0.300000
0.075000 -0.291037 0.375000
0.075000 -0.285702 0.450000
0.075000 -0.276506 0.525000
0.075000 -0.266178 0.600000
0.075000 -0.229556 0.675000
0.075000 -0.225000 -0.684910
0.089021 -0.225000 -0.675000
0.075000 -0.225000 -0.538338
0.075000 -0.208313 -0.525000
0.090286 -0.225000 -0.525000
0.075000 -0.225000 0.208107
0.089747 -0.225000 0.225000
0.142339 -0.225000 0.300000
0.075000 -0.225000 0.682868
0.075000 -0.174995 0.750000
0.075000 -0.150000 -0.719947
0.075000 -0.091064 -0.750000
0.138527 -0.150000 -0.675000
0.075000 -0.150000 -0.490102
0.122601 -0.150000 -0.450000
0.075000 -0.150000 0.165344
0.075000 -0.114358 0.150000
0.126286 -0.150000 0.225000
0.075000 -0.150000 0.768378
0.075000 -0.075000 -0.758693
0.075000 -0.042537 -0.750000
0.085746 -0.075000 -0.750000
0.075000 -0.075000 -0.465918
0.093353 -0.075000 -0.450000
0.075000 -0.075000 0.135487
0.092038 -0.075000 0.150000
0.075000 -0.075000 0.787278
0.075000 0.000000 -0.740261
0.075000 0.000000 -0.462699
0.091496 0.000000 -0.450000
0.075000 0.000000 0.138134
0.075000 0.035356 0.150000
0.090265 0.000000 0.150000
0.075000 0.000000 0.788652
0.075000 0.075000 -0.713955
0.075000 0.075000 -0.485243
0.118933 0.075000 -0.450000
0.075000 0.075000 0.164972
0.146386 0.075000 0.225000
0.075000 0.075000 0.763670
0.075000 0.105336 0.750000
0.075000 0.150000 -0.688698
0.075000 0.163272 -0.675000
0.109087 0.150000 -0.675000
0.075000 0.184105 -0.600000
0.075000 0.150000 -0.522408
0.075000 0.152443 -0.525000
0.075000 0.150000 0.218142
0.075000 0.155764 0.225000
0.081874 0.150000 0.225000
0.075000 0.195594 0.300000
0.138165 0.150000 0.300000
0.075000 0.224037 0.375000
0.075000 0.212606 0.450000
0.075000 0.199703 0.525000
0.075000 0.203092 0.600000
0.075000 0.150000 0.716031
0.075000 0.172779 0.675000
0.150000 -0.238225 -0.600000
0.150000 -0.258466 -0.525000
0.150000 -0.264036 0.375000
0.150000 -0.289380 0.450000
0.150000 -0.285681 0.525000
0.150000 -0.280151 0.600000
0.150000 -0.260822 0.675000
0.150000 -0.225000 -0.619619
0.175605 -0.225000 -0.600000
0.150000 -0.225000 -0.477569
0.150000 -0.187833 -0.450000
0.187776 -0.225000 -0.450000
0.150000 -0.225000 0.309075
0.150000 -0.213881 0.300000
0.196664 -0.225000 0.375000
0.150000 -0.225000 0.735144
0.150000 -0.212920 0.750000
0.150000 -0.150000 -0.666832
0.150000 -0.131187 -0.675000
0.150000 -0.150000 -0.424233
0.200709 -0.150000 -0.375000
0.150000 -0.150000 0.256874
0.150000 -0.103824 0.225000
0.184116 -0.150000 0.300000
0.150000 -0.150000 0.801219
0.150000 -0.075000 -0.699832
0.180108 -0.075000 -0.675000
0.150000 -0.075000 -0.395251
0.171933 -0.075000 -0.375000
0.150000 -0.075000 0.207749
0.165173 -0.075000 0.225000
0.218618 -0.075000 0.300000
0.150000 -0.075000 0.814285
0.150000 0.000000 -0.705009
0.195284 0.000000 -0.675000
0.150000 0.000000 -0.400911
0.178059 0.000000 -0.375000
0.150000 0.000000 0.207372
0.150000 0.063064 0.225000
0.164003 0.000000 0.225000
0.211629 0.000000 0.300000
0.150000 0.000000 0.812003
0.150000 0.075000 -0.679644
0.150000 0.094581 -0.675000
0.158664 0.075000 -0.675000
0.150000 0.075000 -0.420641
0.150000 0.120142 -0.450000
0.198728 0.075000 -0.375000
0.150000 0.075000 0.230885
0.150000 0.133956 0.300000
0.179655 0.075000 0.300000
0.215890 0.075000 0.375000
0.150000 0.075000 0.787847
0.150000 0.142380 0.750000
0.150000 0.150000 -0.649149
0.150000 0.174911 -0.600000
0.190963 0.150000 -0.600000
0.150000 0.150000 -0.472420
0.150000 0.183317 -0.525000
0.179917 0.150000 -0.450000
0.150000 0.150000 0.318710
0.150000 0.175728 0.375000
0.176221 0.150000 0.375000
0.150000 0.203775 0.450000
0.211150 0.150000 0.450000
0.150000 0.204276 0.525000
0.150000 0.208355 0.600000
0.150000 0.150000 0.743393
0.150000 0.192839 0.675000
0.225000 -0.245540 -0.525000
0.225000 -0.247116 -0.450000
0.225000 -0.245240 0.450000
0.225000 -0.268578 0.525000
0.225000 -0.274682 0.600000
0.225000 -0.254561 0.675000
0.225000 -0.225000 -0.558338
0.225000 -0.170106 -0.600000
0.268685 -0.225000 -0.525000
0.225000 -0.225000 -0.420352
0.225000 -0.178650 -0.375000
0.269612 -0.225000 -0.375000
0.225000 -0.225000 0.417060
0.225000 -0.185976 0.375000
0.244461 -0.225000 0.450000
0.277051 -0.225000 0.525000
0.225000 -0.225000 0.723324
0.225000 -0.205795 0.750000
0.225000 -0.150000 -0.610401
0.240000 -0.150000 -0.600000
0.225000 -0.150000 -0.348826
0.267908 -0.150000 -0.300000
0.225000 -0.150000 0.347150
0.247169 -0.150000 0.375000
0.283939 -0.150000 0.450000
0.225000 -0.150000 0.802856
0.225000 -0.075000 -0.640150
0.276115 -0.075000 -0.600000
0.225000 -0.075000 -0.324644
0.248302 -0.075000 -0.300000
0.225000 -0.075000 0.309630
0.264808 -0.075000 0.375000
0.225000 -0.075000 0.811548
0.225000 0.000000 -0.654350
0.293106 0.000000 -0.600000
0.225000 0.000000 -0.325751
0.247958 0.000000 -0.300000
0.225000 0.000000 0.321683
0.225000 0.059406 0.375000
0.258027 0.000000 0.375000
0.225000 0.000000 0.810581
0.225000 0.075000 -0.630212
0.225000 0.115199 -0.600000
0.260169 0.075000 -0.600000
0.225000 0.075000 -0.348941
0.225000 0.104770 -0.375000
0.278613 0.075000 -0.300000
0.225000 0.075000 0.391413
0.225000 0.130280 0.450000
0.259498 0.075000 0.450000
0.225000 0.075000 0.788747
0.225000 0.136348 0.750000
0.225000 0.150000 -0.559227
0.225000 0.169054 -0.525000
0.258825 0.150000 -0.525000
0.225000 0.150000 -0.417070
0.225000 0.173555 -0.450000
0.281133 0.150000 -0.375000
0.225000 0.150000 0.473601
0.225000 0.177118 0.525000
0.254019 0.150000 0.525000
0.225000 0.200081 0.600000
0.225000 0.150000 0.737158
0.225000 0.189727 0.675000
0.300000 -0.240882 -0.450000
0.300000 -0.246004 -0.375000
0.300000 -0.253718 0.600000
0.300000 -0.246429 0.675000
0.300000 -0.225000 -0.490634
0.300000 -0.199933 -0.525000
0.348457 -0.225000 -0.450000
0.300000 -0.225000 -0.334741
0.300000 -0.194601 -0.300000
0.333252 -0.225000 -0.300000
0.300000 -0.225000 0.556859
0.300000 -0.173902 0.525000
0.368515 -0.225000 0.600000
0.300000 -0.225000 0.711521
0.300000 -0.199630 0.750000
0.300000 -0.150000 -0.557863
0.338085 -0.150000 -0.525000
0.300000 -0.150000 -0.264885
0.337803 -0.150000 -0.225000
0.300000 -0.150000 0.497811
0.300000 -0.089552 0.450000
0.312033 -0.150000 0.525000
0.300000 -0.150000 0.800304
0.300000 -0.075000 -0.580799
0.354234 -0.075000 -0.525000
0.300000 -0.075000 -0.244017
0.319544 -0.075000 -0.225000
0.300000 -0.075000 0.442443
0.303729 -0.075000 0.450000
0.339105 -0.075000 0.525000
0.300000 -0.075000 0.807126
0.300000 0.000000 -0.593796
0.361975 0.000000 -0.525000
0.300000 0.000000 -0.242613
0.317971 0.000000 -0.225000
0.300000 0.000000 0.446766
0.300000 0.003712 0.450000
0.301910 0.000000 0.450000
0.359980 0.000000 0.525000
0.300000 0.000000 0.809028
0.300000 0.075000 -0.563141
0.300000 0.117738 -0.525000
0.338293 0.075000 -0.525000
0.300000 0.075000 -0.280945
0.300000 0.097059 -0.300000
0.356784 0.075000 -0.225000
0.300000 0.075000 0.514471
0.300000 0.085107 0.525000
0.310735 0.075000 0.525000
0.300000 0.075000 0.787449
0.300000 0.127895 0.750000
0.300000 0.150000 -0.483005
0.300000 0.167548 -0.450000
0.333487 0.150000 -0.450000
0.300000 0.150000 -0.358411
0.300000 0.159295 -0.375000
0.357228 0.150000 -0.300000
0.300000 0.150000 0.578092
0.300000 0.166935 0.600000
0.349904 0.150000 0.600000
0.300000 0.150000 0.728182
0.300000 0.182436 0.675000
0.375000 -0.251050 -0.375000
0.375000 -0.244929 -0.300000
0.375000 -0.240258 0.675000
0.375000 -0.225000 -0.431054
0.375000 -0.207572 -0.450000
0.375000 -0.225000 -0.256946
0.375000 -0.197828 -0.225000
0.411371 -0.225000 -0.225000
0.375000 -0.225000 0.609932
0.375000 -0.219315 0.600000
0.375000 -0.225000 0.708023
0.375000 -0.200911 0.750000
0.375000 -0.150000 -0.489424
0.421256 -0.150000 -0.450000
0.375000 -0.150000 -0.191755
0.430998 -0.150000 -0.150000
0.375000 -0.150000 0.570776
0.375000 -0.150000 0.795942
0.375000 -0.075000 -0.503003
0.440691 -0.075000 -0.450000
0.375000 -0.075000 -0.177304
0.404608 -0.075000 -0.150000
0.375000 -0.075000 0.550911
0.375000 -0.075000 0.804030
0.375000 0.000000 -0.509407
0.443210 0.000000 -0.450000
0.375000 0.000000 -0.177201
0.408199 0.000000 -0.150000
0.375000 0.000000 0.534502
0.375000 0.000000 0.808408
0.375000 0.075000 -0.485657
0.375000 0.115616 -0.450000
0.412503 0.075000 -0.450000
0.375000 0.075000 -0.209991
0.375000 0.097516 -0.225000
0.442088 0.075000 -0.150000
0.375000 0.075000 0.558791
0.375000 0.138425 0.600000
0.375000 0.075000 0.784590
0.375000 0.122680 0.750000
0.375000 0.150000 -0.414434
0.375000 0.170988 -0.375000
0.414793 0.150000 -0.375000
0.375000 0.150000 -0.280992
0.375000 0.159417 -0.300000
0.428283 0.150000 -0.225000
0.375000 0.150000 0.616137
0.375000 0.150000 0.720244
0.375000 0.175244 0.675000
0.450000 -0.225317 -0.375000
0.450000 -0.259034 -0.300000
0.450000 -0.242091 -0.225000
0.450000 -0.233068 0.675000
0.450000 -0.225000 -0.375423
0.450510 -0.225000 -0.375000
0.450000 -0.225000 -0.190397
0.450000 -0.178272 -0.150000
0.482213 -0.225000 -0.150000
0.509707 -0.225000 -0.075000
0.450000 -0.225000 0.649780
0.450000 -0.194302 0.600000
0.450000 -0.225000 0.701636
0.450000 -0.204858 0.750000
0.450000 -0.150000 -0.427802
0.522767 -0.150000 -0.375000
0.450000 -0.150000 -0.127653
0.476845 -0.150000 -0.075000
0.507065 -0.150000 0.000000
0.450000 -0.150000 0.574369
0.450000 -0.150000 0.792582
0.450000 -0.075000 -0.443419
0.450000 -0.075000 -0.085109
0.455360 -0.075000 -0.075000
0.479144 -0.075000 0.000000
0.517195 -0.075000 0.075000
0.520985 -0.075000 0.225000
0.509015 -0.075000 0.300000
0.450000 -0.075000 0.548618
0.450000 -0.075000 0.801802
0.450000 0.000000 -0.445169
0.450000 0.000000 -0.103739
0.468133 0.000000 -0.075000
0.493501 0.000000 0.000000
0.520945 0.000000 0.075000
0.514629 0.000000 0.150000
0.505449 0.000000 0.225000
0.505309 0.000000 0.300000
0.450000 0.000000 0.552857
0.450000 0.000000 0.808177
0.450000 0.075000 -0.417517
0.450000 0.120883 -0.375000
0.495778 0.075000 -0.375000
0.450000 0.075000 -0.140783
0.450000 0.086666 -0.150000
0.491991 0.075000 -0.075000
0.513887 0.075000 0.000000
0.522915 0.075000 0.300000
0.450000 0.075000 0.581404
0.450000 0.108931 0.600000
0.450000 0.075000 0.782342
0.450000 0.123697 0.750000
0.450000 0.150000 -0.335033
0.450000 0.169202 -0.300000
0.482776 0.150000 -0.300000
0.450000 0.150000 -0.204695
0.450000 0.162230 -0.225000
0.501618 0.150000 -0.150000
0.450000 0.150000 0.637692
0.450000 0.150000 0.719549
0.450000 0.170824 0.675000
0.525000 -0.233106 -0.300000
0.525000 -0.251021 -0.225000
0.525000 -0.249998 -0.150000
0.525000 -0.238164 -0.075000
0.525000 -0.228375 0.675000
0.525000 -0.225000 -0.312905
0.538929 -0.225000 -0.300000
0.573850 -0.225000 -0.225000
0.525000 -0.225000 -0.042748
0.525000 -0.186720 0.000000
0.552379 -0.225000 0.000000
0.591772 -0.225000 0.075000
0.597918 -0.225000 0.300000
0.596257 -0.225000 0.375000
0.525000 -0.225000 0.664466
0.525000 -0.187501 0.600000
0.596234 -0.225000 0.600000
0.525000 -0.225000 0.694546
0.525000 -0.210065 0.750000
0.525000 -0.150000 -0.373399
0.525000 -0.146441 -0.375000
0.525000 -0.150000 0.036446
0.525000 -0.096306 0.075000
0.543367 -0.150000 0.075000
0.540665 -0.150000 0.150000
0.525000 -0.115703 0.225000
0.529136 -0.150000 0.225000
0.525000 -0.144717 0.300000
0.526585 -0.150000 0.300000
0.555416 -0.150000 0.375000
0.575558 -0.150000 0.450000
0.525000 -0.150000 0.570001
0.566274 -0.150000 0.525000
0.525000 -0.150000 0.791460
0.525000 -0.075000 -0.402599
0.577526 -0.075000 -0.375000
0.525000 -0.075000 0.142240
0.525000 -0.075000 0.162240
0.525000 -0.069807 0.150000
0.525000 -0.075000 0.346378
0.535823 -0.075000 0.375000
0.555722 -0.075000 0.450000
0.525000 -0.075000 0.540855
0.545784 -0.075000 0.525000
0.525000 -0.075000 0.802943
0.525000 0.000000 -0.389008
0.525000 0.028614 -0.375000
0.545109 0.000000 -0.375000
0.525000 0.022216 0.075000
0.525000 0.040235 0.150000
0.525000 0.046517 0.225000
0.525000 0.000000 0.361036
0.529668 0.000000 0.375000
0.543203 0.000000 0.450000
0.525000 0.000000 0.550324
0.554123 0.000000 0.525000
0.525000 0.000000 0.810614
0.525000 0.075000 -0.346003
0.525000 0.118922 -0.300000
0.573296 0.075000 -0.300000
0.525000 0.145690 -0.075000
0.525000 0.075000 0.040888
0.525000 0.099170 0.000000
0.535016 0.075000 0.075000
0.536029 0.075000 0.150000
0.525000 0.075000 0.290025
0.538983 0.075000 0.225000
0.525000 0.075000 0.317542
0.525000 0.077518 0.300000
0.532160 0.075000 0.375000
0.546026 0.075000 0.450000
0.525000 0.075000 0.575851
0.595270 0.075000 0.525000
0.525000 0.110875 0.600000
0.525000 0.075000 0.781634
0.525000 0.124151 0.750000
0.525000 0.150000 -0.258146
0.525000 0.168520 -0.225000
0.552725 0.150000 -0.225000
0.525000 0.150000 -0.084159
0.525000 0.162995 -0.150000
0.529988 0.150000 -0.075000
0.556768 0.150000 0.000000
0.581662 0.150000 0.075000
0.591589 0.150000 0.150000
0.594545 0.150000 0.225000
0.594599 0.150000 0.300000
0.597073 0.150000 0.375000
0.525000 0.150000 0.640710
0.583051 0.150000 0.600000
0.525000 0.150000 0.717795
0.525000 0.168186 0.675000
0.600000 -0.231555 -0.150000
0.600000 -0.249333 -0.075000
0.600000 -0.254407 0.000000
0.600000 -0.232168 0.075000
0.600000 -0.226492 0.300000
0.600000 -0.228295 0.375000
0.600000 -0.226084 0.600000
0.600000 -0.231608 0.675000
0.600000 -0.163242 -0.300000
0.600000 -0.225000 -0.174608
0.600000 -0.197560 -0.225000
0.608263 -0.225000 -0.150000
0.642174 -0.225000 -0.075000
0.600000 -0.225000 0.108232
0.600000 -0.214649 0.150000
0.618480 -0.225000 0.150000
0.600000 -0.225000 0.288021
0.600000 -0.216555 0.225000
0.615265 -0.225000 0.225000
0.600000 -0.225000 0.401617
0.600000 -0.210054 0.450000
0.621179 -0.225000 0.450000
0.600000 -0.225000 0.594647
0.600000 -0.198044 0.525000
0.604174 -0.225000 0.600000
0.600000 -0.225000 0.698477
0.610985 -0.225000 0.675000
0.600000 -0.194942 0.750000
0.600000 -0.150000 -0.315365
0.607808 -0.150000 -0.300000
0.624296 -0.150000 -0.225000
0.645860 -0.150000 -0.150000
0.669926 -0.150000 0.675000
0.600000 -0.150000 0.778201
0.627008 -0.150000 0.750000
0.600000 -0.075000 -0.356171
0.632999 -0.075000 -0.300000
0.657907 -0.075000 -0.225000
0.600000 -0.075000 0.797109
0.639386 -0.075000 0.750000
0.600000 0.000000 -0.327196
0.600000 0.039149 -0.300000
0.619383 0.000000 -0.300000
0.652826 0.000000 -0.225000
0.600000 0.000000 0.801301
0.637356 0.000000 0.750000
0.600000 0.075000 -0.264494
0.600000 0.104370 -0.225000
0.622426 0.075000 -0.225000
0.656216 0.075000 -0.150000
0.600000 0.136647 0.450000
0.600000 0.085783 0.525000
0.600000 0.075000 0.775990
0.600000 0.110676 0.750000
0.623398 0.075000 0.750000
0.600000 0.150000 -0.157415
0.600000 0.153890 -0.150000
0.604317 0.150000 -0.150000
0.600000 0.177510 -0.075000
0.636719 0.150000 -0.075000
0.600000 0.182322 0.000000
0.670774 0.150000 0.000000
0.600000 0.167896 0.075000
0.600000 0.157533 0.150000
0.600000 0.154694 0.225000
0.600000 0.154745 0.300000
0.600000 0.150000 0.388906
0.600000 0.152743 0.375000
0.621688 0.150000 0.450000
0.600000 0.150000 0.579459
0.652719 0.150000 0.525000
0.600000 0.156368 0.600000
0.635387 0.150000 0.600000
0.600000 0.150000 0.687902
0.600000 0.154872 0.675000
0.609549 0.150000 0.675000
0.675000 -0.229893 0.000000
0.675000 -0.239703 0.075000
0.675000 -0.249557 0.150000
0.675000 -0.253585 0.225000
0.675000 -0.254381 0.300000
0.675000 -0.251599 0.375000
0.675000 -0.239641 0.450000
0.675000 -0.225000 -0.014623
0.675000 -0.181628 -0.075000
0.681355 -0.225000 0.000000
0.706001 -0.225000 0.075000
0.735648 -0.225000 0.150000
0.747903 -0.225000 0.225000
0.747089 -0.225000 0.375000
0.675000 -0.225000 0.514622
0.710499 -0.225000 0.450000
0.675000 -0.222151 0.525000
0.675000 -0.192440 0.600000
0.675000 -0.150000 -0.100991
0.675000 -0.084892 -0.150000
0.690928 -0.150000 -0.075000
0.734503 -0.150000 0.000000
0.675000 -0.150000 0.663458
0.704505 -0.150000 0.600000
0.675000 -0.110684 0.675000
0.675000 -0.075000 -0.164596
0.679430 -0.075000 -0.150000
0.723271 -0.075000 -0.075000
0.724776 -0.075000 0.600000
0.675000 -0.075000 0.682822
0.679367 -0.075000 0.675000
0.675000 0.000000 -0.163167
0.675000 0.016512 -0.150000
0.679983 0.000000 -0.150000
0.720689 0.000000 -0.075000
0.729671 0.000000 0.600000
0.675000 0.000000 0.688152
0.682953 0.000000 0.675000
0.675000 0.075000 -0.109773
0.675000 0.100538 -0.075000
0.690790 0.075000 -0.075000
0.675000 0.146975 0.000000
0.728085 0.075000 0.000000
0.675000 0.137803 0.600000
0.718886 0.075000 0.600000
0.675000 0.075000 0.675033
0.675000 0.075046 0.675000
0.675022 0.075000 0.675000
0.675000 0.150000 0.005812
0.675000 0.174992 0.075000
0.706846 0.150000 0.075000
0.675000 0.193486 0.150000
0.731378 0.150000 0.150000
0.675000 0.194425 0.225000
0.744706 0.150000 0.225000
0.675000 0.192085 0.300000
0.749276 0.150000 0.300000
0.675000 0.189554 0.375000
0.675000 0.173911 0.450000
0.675000 0.150000 0.562519
0.675000 0.157139 0.525000
0.703089 0.150000 0.525000
0.750000 -0.226520 0.300000
0.750000 -0.195421 0.075000
0.750000 -0.215134 0.150000
0.750000 -0.225000 0.253844
0.750000 -0.223547 0.225000
0.750000 -0.225000 0.341061
0.751539 -0.225000 0.300000
0.750000 -0.223031 0.375000
0.750000 -0.198012 0.450000
0.750000 -0.156621 0.525000
0.750000 -0.150000 0.021387
0.750000 -0.117929 0.000000
0.784604 -0.150000 0.075000
0.790693 -0.150000 0.150000
0.795576 -0.150000 0.225000
0.798116 -0.150000 0.300000
0.792684 -0.150000 0.375000
0.780823 -0.150000 0.450000
0.750000 -0.150000 0.531154
0.753900 -0.150000 0.525000
0.750000 -0.075000 -0.031183
0.770927 -0.075000 0.000000
0.810741 -0.075000 0.075000
0.813993 -0.075000 0.150000
0.816300 -0.075000 0.225000
0.816553 -0.075000 0.300000
0.814912 -0.075000 0.375000
0.809278 -0.075000 0.450000
0.750000 -0.075000 0.562263
0.774086 -0.075000 0.525000
0.750000 0.000000 -0.029968
0.750000 0.036793 0.000000
0.773891 0.000000 0.000000
0.806273 0.000000 0.075000
0.809144 0.000000 0.150000
0.812907 0.000000 0.225000
0.812816 0.000000 0.300000
0.808280 0.000000 0.375000
0.801478 0.000000 0.450000
0.750000 0.000000 0.570219
0.780046 0.000000 0.525000
0.750000 0.075000 0.045016
0.750000 0.096641 0.075000
0.765223 0.075000 0.075000
0.750000 0.126828 0.150000
0.782596 0.075000 0.150000
0.750000 0.143376 0.225000
0.789401 0.075000 0.225000
0.750000 0.149200 0.300000
0.792265 0.075000 0.300000
0.791127 0.075000 0.375000
0.789907 0.075000 0.450000
0.750000 0.075000 0.553944
0.750000 0.118386 0.525000
0.769451 0.075000 0.525000
0.750000 0.150000 0.315399
0.750000 0.152132 0.375000
0.751714 0.150000 0.375000
0.750000 0.150000 0.470010
0.750000 0.154957 0.450000
0.754547 0.150000 0.450000
3 21 18 0
3 18 24 0
3 28 19 1
3 19 22 2
3 1 19 2
3 22 21 0
3 22 0 2
3 2 0 3
3 24 25 4
3 24 4 0
3 0 4 3
3 25 30 4
3 34 28 1
3 5 34 1
3 1 2 5
3 2 6 5
3 2 3 6
3 3 7 6
3 3 4 7
3 4 8 7
3 30 31 9
3 30 9 4
3 4 9 8
3 31 36 9
3 39 34 5
3 10 39 5
3 5 6 10
3 6 11 10
3 6 7 11
3 7 12 11
3 7 8 12
3 8 13 12
3 37 41 13
3 37 13 9
3 9 13 8
3 9 36 37
3 44 39 10
3 14 44 10
3 10 11 14
3 11 15 14
3 11 12 15
3 12 16 15
3 12 13 16
3 13 17 16
3 41 49 17
3 13 41 17
3 44 14 46
3 14 15 47
3 46 14 47
3 15 16 48
3 47 15 48
3 16 17 50
3 48 16 50
3 17 49 50
3 63 58 20
3 58 59 23
3 20 58 23
3 21 23 59
3 21 59 18
3 18 59 60
3 26 24 18
3 26 18 61
3 61 18 60
3 61 62 27
3 26 61 27
3 62 65 27
3 68 64 29
3 20 19 28
3 63 20 28
3 63 28 29
3 63 29 64
3 23 19 20
3 22 19 23
3 26 25 24
3 25 32 30
3 25 26 32
3 26 27 32
3 65 66 33
3 65 33 27
3 27 33 32
3 66 69 33
3 71 68 29
3 35 71 29
3 29 34 35
3 28 34 29
3 32 31 30
3 31 38 36
3 31 32 38
3 32 33 38
3 69 72 38
3 33 69 38
3 75 71 35
3 40 75 35
3 35 39 40
3 34 39 35
3 37 42 41
3 36 42 37
3 36 38 42
3 38 43 42
3 72 76 43
3 38 72 43
3 79 75 40
3 45 79 40
3 40 44 45
3 39 44 40
3 51 41 42
3 49 41 51
3 42 43 51
3 43 52 51
3 76 81 52
3 43 76 52
3 79 45 80
3 84 46 53
3 80 46 84
3 80 44 46
3 80 45 44
3 47 53 46
3 54 53 47
3 48 54 47
3 55 54 48
3 50 55 48
3 56 55 50
3 49 56 50
3 49 51 56
3 51 57 56
3 82 89 57
3 82 57 52
3 52 57 51
3 52 81 82
3 84 53 85
3 53 54 86
3 85 53 86
3 54 55 87
3 86 54 87
3 55 56 88
3 87 55 88
3 56 57 90
3 88 56 90
3 57 89 90
3 63 98 92
3 58 63 92
3 92 93 58
3 58 93 59
3 93 94 59
3 59 94 60
3 94 95 60
3 60 95 61
3 95 96 61
3 61 96 62
3 67 65 62
3 67 62 97
3 97 62 96
3 97 101 67
3 68 104 99
3 64 68 99
3 99 63 64
3 98 63 99
3 67 66 65
3 66 70 69
3 67 70 66
3 67 102 70
3 67 101 102
3 102 105 70
3 104 68 109
3 109 68 71
3 73 69 70
3 72 69 73
3 105 106 74
3 105 74 70
3 70 74 73
3 106 110 74
3 109 71 112
3 112 71 75
3 77 72 73
3 76 72 77
3 73 74 77
3 74 78 77
3 110 113 78
3 74 110 78
3 112 75 116
3 116 75 79
3 83 76 77
3 81 76 83
3 114 118 83
3 114 83 78
3 78 83 77
3 78 113 114
3 116 79 80
3 117 116 80
3 80 122 117
3 84 122 80
3 82 91 89
3 91 119 129
3 82 119 91
3 82 83 119
3 82 81 83
3 83 118 119
3 122 84 85
3 124 122 85
3 124 85 125
3 85 86 125
3 125 86 126
3 86 87 126
3 126 87 127
3 87 88 127
3 127 88 128
3 88 90 128
3 89 91 130
3 89 130 90
3 90 130 128
3 91 129 130
3 141 133 100
3 98 100 133
3 98 133 92
3 92 133 134
3 134 135 92
3 92 135 93
3 135 136 93
3 93 136 94
3 136 137 94
3 94 137 95
3 137 138 95
3 95 138 96
3 138 139 96
3 96 139 97
3 103 101 97
3 103 97 140
3 140 97 139
3 140 144 103
3 100 99 104
3 100 104 141
3 141 104 149
3 100 98 99
3 102 107 105
3 103 107 102
3 103 145 107
3 103 144 145
3 145 147 108
3 107 145 108
3 147 151 108
3 149 104 153
3 153 104 109
3 107 106 105
3 106 111 110
3 106 107 111
3 107 108 111
3 151 155 111
3 108 151 111
3 153 109 158
3 158 109 112
3 115 110 111
3 113 110 115
3 155 160 115
3 111 155 115
3 158 112 163
3 163 112 116
3 114 120 118
3 113 120 114
3 113 115 120
3 115 121 120
3 160 166 121
3 115 160 121
3 117 123 169
3 117 169 116
3 116 169 163
3 117 122 123
3 119 131 129
3 118 131 119
3 118 120 131
3 120 132 131
3 167 181 132
3 167 132 121
3 121 132 120
3 121 166 167
3 169 123 170
3 123 122 124
3 123 124 170
3 170 124 171
3 171 124 172
3 124 125 172
3 172 125 173
3 125 126 173
3 173 126 175
3 126 127 175
3 175 127 177
3 127 128 177
3 177 128 179
3 128 130 179
3 129 131 180
3 129 180 130
3 130 180 179
3 131 132 182
3 180 131 182
3 141 192 184
3 133 141 184
3 184 185 133
3 133 185 134
3 185 186 134
3 134 186 135
3 193 142 136
3 193 136 186
3 186 136 135
3 137 136 142
3 143 137 142
3 143 195 187
3 143 187 137
3 137 187 138
3 187 188 138
3 138 188 139
3 188 189 139
3 139 189 140
3 146 144 140
3 146 140 190
3 190 140 189
3 190 191 148
3 146 190 148
3 191 199 148
3 192 141 203
3 203 141 149
3 204 142 193
3 150 142 204
3 196 150 206
3 196 143 150
3 143 142 150
3 143 196 195
3 146 145 144
3 148 145 146
3 147 145 148
3 147 152 151
3 148 152 147
3 148 200 152
3 148 199 200
3 200 209 152
3 203 149 213
3 213 149 153
3 206 154 215
3 150 154 206
3 156 151 152
3 155 151 156
3 209 210 157
3 209 157 152
3 152 157 156
3 210 218 157
3 213 153 220
3 220 153 158
3 221 154 214
3 159 154 221
3 215 159 222
3 154 159 215
3 161 155 156
3 160 155 161
3 156 157 161
3 157 162 161
3 218 226 162
3 157 218 162
3 220 158 229
3 229 158 163
3 230 159 221
3 164 159 230
3 222 165 223
3 222 159 165
3 159 164 165
3 223 165 231
3 168 160 161
3 166 160 168
3 227 234 168
3 227 168 162
3 162 168 161
3 229 163 238
3 238 163 169
3 241 164 230
3 174 164 241
3 164 174 165
3 165 174 176
3 167 183 181
3 183 235 248
3 167 235 183
3 167 168 235
3 167 166 168
3 168 234 235
3 238 169 170
3 239 238 170
3 239 170 240
3 170 171 240
3 240 171 242
3 171 172 242
3 174 241 242
3 174 242 173
3 173 242 172
3 176 174 173
3 175 176 173
3 178 176 175
3 177 178 175
3 243 178 177
3 243 177 244
3 244 177 179
3 244 179 246
3 179 180 246
3 246 180 247
3 180 182 247
3 181 183 249
3 181 249 182
3 182 249 247
3 183 248 249
3 192 259 252
3 184 192 252
3 252 253 184
3 184 253 185
3 260 194 186
3 260 186 253
3 253 186 185
3 186 194 193
3 187 195 197
3 188 187 197
3 198 188 197
3 198 262 254
3 198 254 188
3 188 254 189
3 254 255 189
3 189 255 190
3 255 256 190
3 190 256 191
3 201 199 191
3 201 191 257
3 257 191 256
3 257 258 202
3 201 257 202
3 258 265 202
3 259 192 268
3 268 192 203
3 194 205 204
3 193 194 204
3 196 206 207
3 195 196 207
3 195 207 197
3 197 207 208
3 263 208 271
3 263 198 208
3 198 197 208
3 198 263 262
3 201 200 199
3 200 211 209
3 200 201 211
3 201 202 211
3 265 266 212
3 265 212 202
3 202 212 211
3 266 273 212
3 268 203 275
3 275 203 213
3 205 269 276
3 205 276 204
3 204 276 214
3 216 207 206
3 215 216 206
3 207 216 208
3 208 216 217
3 271 217 277
3 208 217 271
3 211 210 209
3 210 219 218
3 210 211 219
3 211 212 219
3 273 279 219
3 212 273 219
3 275 213 281
3 281 213 220
3 276 282 214
3 282 221 214
3 224 216 215
3 222 224 215
3 216 224 217
3 217 224 225
3 277 225 283
3 217 225 277
3 228 218 219
3 226 218 228
3 279 285 228
3 219 279 228
3 281 220 287
3 287 220 229
3 282 288 221
3 288 230 221
3 224 222 223
3 223 231 233
3 223 233 224
3 224 233 225
3 283 233 289
3 225 233 283
3 227 236 234
3 226 236 227
3 226 228 236
3 228 237 236
3 285 292 237
3 228 285 237
3 287 229 295
3 295 229 238
3 288 298 230
3 298 241 230
3 233 231 232
3 232 243 245
3 233 232 245
3 233 245 290
3 233 290 289
3 290 245 300
3 235 250 248
3 234 250 235
3 234 236 250
3 236 251 250
3 293 306 251
3 293 251 237
3 237 251 236
3 237 292 293
3 295 238 239
3 296 295 239
3 296 239 297
3 239 240 297
3 297 240 299
3 240 242 299
3 299 242 241
3 298 299 241
3 245 243 244
3 300 245 244
3 300 244 301
3 301 244 246
3 301 246 303
3 246 247 303
3 303 247 304
3 247 249 304
3 248 250 305
3 248 305 249
3 249 305 304
3 250 251 307
3 305 250 307
3 259 317 309
3 252 259 309
3 309 310 252
3 252 310 253
3 261 260 253
3 261 253 311
3 311 253 310
3 311 318 261
3 254 262 264
3 264 319 312
3 264 312 254
3 254 312 255
3 312 313 255
3 255 313 256
3 313 314 256
3 256 314 257
3 314 315 257
3 257 315 258
3 267 265 258
3 267 258 316
3 316 258 315
3 316 323 267
3 317 259 326
3 326 259 268
3 318 327 270
3 261 318 270
3 263 271 272
3 272 328 320
3 263 272 320
3 263 320 264
3 263 264 262
3 264 320 319
3 267 266 265
3 266 274 273
3 267 274 266
3 267 324 274
3 267 323 324
3 324 331 274
3 326 268 333
3 333 268 275
3 269 270 327
3 269 327 276
3 276 327 334
3 278 272 271
3 277 278 271
3 328 278 335
3 272 278 328
3 280 273 274
3 279 273 280
3 331 337 280
3 274 331 280
3 333 275 339
3 339 275 281
3 334 340 276
3 340 282 276
3 284 278 277
3 283 284 277
3 335 284 341
3 278 284 335
3 286 279 280
3 285 279 286
3 337 343 286
3 280 337 286
3 339 281 345
3 345 281 287
3 340 346 282
3 346 288 282
3 291 284 283
3 289 291 283
3 341 291 347
3 284 291 341
3 294 285 286
3 292 285 294
3 343 351 294
3 286 343 294
3 345 287 354
3 354 287 295
3 346 357 288
3 357 298 288
3 291 289 290
3 290 300 302
3 291 290 302
3 291 302 348
3 291 348 347
3 348 302 359
3 293 308 306
3 308 352 366
3 293 352 308
3 293 294 352
3 293 292 294
3 294 351 352
3 354 295 296
3 355 354 296
3 355 296 356
3 296 297 356
3 356 297 358
3 297 299 358
3 358 299 298
3 357 358 298
3 302 300 301
3 359 302 301
3 359 301 360
3 360 301 303
3 360 303 362
3 303 304 362
3 362 304 364
3 304 305 364
3 364 305 365
3 305 307 365
3 306 308 367
3 306 367 307
3 307 367 365
3 308 366 367
3 317 376 369
3 309 317 369
3 369 370 309
3 309 370 310
3 370 371 310
3 310 371 311
3 311 371 377
3 318 311 377
3 312 319 321
3 313 312 321
3 322 313 321
3 322 378 372
3 322 372 313
3 313 372 314
3 372 373 314
3 314 373 315
3 373 374 315
3 315 374 316
3 325 323 316
3 325 316 375
3 375 316 374
3 375 381 325
3 376 317 384
3 384 317 326
3 377 385 318
3 385 327 318
3 320 328 329
3 319 320 329
3 319 329 321
3 321 329 330
3 379 330 386
3 379 322 330
3 322 321 330
3 322 379 378
3 325 324 323
3 324 332 331
3 325 332 324
3 325 382 332
3 325 381 382
3 382 389 332
3 384 326 391
3 391 326 333
3 385 392 327
3 392 334 327
3 336 329 328
3 335 336 328
3 387 336 393
3 387 330 336
3 330 329 336
3 330 387 386
3 338 331 332
3 337 331 338
3 389 396 338
3 332 389 338
3 391 333 398
3 398 333 339
3 392 399 334
3 399 340 334
3 342 336 335
3 341 342 335
3 393 342 400
3 336 342 393
3 344 337 338
3 343 337 344
3 396 404 344
3 338 396 344
3 398 339 406
3 406 339 345
3 399 407 340
3 407 346 340
3 349 342 341
3 347 349 341
3 400 350 401
3 400 342 350
3 342 349 350
3 401 350 408
3 353 343 344
3 351 343 353
3 404 411 353
3 344 404 353
3 406 345 414
3 414 345 354
3 407 417 346
3 417 357 346
3 349 347 348
3 348 359 361
3 348 361 349
3 349 361 350
3 408 363 409
3 408 350 363
3 350 361 363
3 409 363 419
3 352 368 366
3 368 412 424
3 352 412 368
3 352 353 412
3 352 351 353
3 353 411 412
3 414 354 355
3 415 414 355
3 415 355 416
3 355 356 416
3 416 356 418
3 356 358 418
3 418 358 357
3 417 418 357
3 363 361 360
3 362 363 360
3 419 363 362
3 419 362 420
3 420 362 364
3 420 364 422
3 364 365 422
3 422 365 423
3 365 367 423
3 366 368 425
3 366 425 367
3 367 425 423
3 368 424 425
3 376 434 427
3 369 376 427
3 427 428 369
3 369 428 370
3 428 429 370
3 370 429 371
3 371 429 436
3 377 371 436
3 372 378 380
3 380 437 430
3 380 430 372
3 372 430 373
3 430 431 373
3 373 431 374
3 431 432 374
3 374 432 375
3 383 381 375
3 383 375 433
3 433 375 432
3 433 440 383
3 434 376 443
3 443 376 384
3 436 444 377
3 444 385 377
3 379 386 388
3 388 446 438
3 379 388 438
3 379 438 380
3 379 380 378
3 380 438 437
3 383 382 381
3 382 390 389
3 383 390 382
3 383 441 390
3 383 440 441
3 441 448 390
3 443 384 450
3 450 384 391
3 444 451 385
3 451 392 385
3 386 387 394
3 386 394 388
3 388 394 395
3 446 395 453
3 388 395 446
3 397 389 390
3 396 389 397
3 448 455 397
3 390 448 397
3 450 391 457
3 457 391 398
3 451 458 392
3 458 399 392
3 394 402 395
3 395 402 403
3 453 403 460
3 395 403 453
3 405 396 397
3 404 396 405
3 455 462 405
3 397 455 405
3 457 398 464
3 464 398 406
3 458 465 399
3 465 407 399
3 401 408 410
3 401 410 402
3 402 410 403
3 460 410 467
3 403 410 460
3 413 404 405
3 411 404 413
3 462 470 413
3 405 462 413
3 464 406 473
3 473 406 414
3 465 476 407
3 476 417 407
3 410 408 409
3 409 419 421
3 410 409 421
3 410 421 468
3 410 468 467
3 468 421 478
3 412 426 424
3 426 471 483
3 412 471 426
3 412 413 471
3 412 411 413
3 413 470 471
3 473 414 415
3 474 473 415
3 474 415 475
3 415 416 475
3 475 416 477
3 416 418 477
3 477 418 417
3 476 477 417
3 421 419 420
3 478 421 420
3 478 420 479
3 479 420 422
3 479 422 481
3 422 423 481
3 481 423 482
3 423 425 482
3 424 426 484
3 424 484 425
3 425 484 482
3 426 483 484
3 435 492 486
3 435 486 427
3 427 486 428
3 486 487 428
3 428 487 429
3 429 487 494
3 436 429 494
3 430 437 439
3 439 496 488
3 439 488 430
3 430 488 431
3 488 489 431
3 431 489 432
3 489 490 432
3 432 490 433
3 442 440 433
3 442 433 491
3 491 433 490
3 491 499 442
3 493 435 434
3 493 434 502
3 502 434 443
3 435 493 492
3 445 494 495
3 445 444 494
3 444 436 494
3 495 503 445
3 438 446 447
3 447 504 497
3 438 447 497
3 438 497 439
3 438 439 437
3 439 497 496
3 442 441 440
3 441 449 448
3 442 449 441
3 442 500 449
3 442 499 500
3 500 506 449
3 502 443 508
3 508 443 450
3 452 444 445
3 451 444 452
3 503 509 452
3 445 503 452
3 454 447 446
3 453 454 446
3 504 454 510
3 447 454 504
3 456 448 449
3 455 448 456
3 506 512 456
3 449 506 456
3 508 450 514
3 514 450 457
3 459 451 452
3 458 451 459
3 509 515 459
3 452 509 459
3 461 454 453
3 460 461 453
3 510 461 516
3 454 461 510
3 463 455 456
3 462 455 463
3 512 518 463
3 456 512 463
3 514 457 520
3 520 457 464
3 466 458 459
3 465 458 466
3 515 521 466
3 459 515 466
3 469 461 460
3 467 469 460
3 516 469 523
3 461 469 516
3 472 462 463
3 470 462 472
3 518 526 472
3 463 518 472
3 520 464 529
3 529 464 473
3 522 465 466
3 522 533 465
3 533 476 465
3 466 521 522
3 469 467 468
3 468 478 480
3 469 468 480
3 469 480 524
3 469 524 523
3 524 480 536
3 471 485 483
3 485 527 541
3 471 527 485
3 471 472 527
3 471 470 472
3 472 526 527
3 529 473 474
3 530 529 474
3 530 474 532
3 474 475 532
3 532 475 534
3 475 477 534
3 534 477 476
3 533 534 476
3 480 478 479
3 536 480 479
3 536 479 537
3 537 479 481
3 537 481 539
3 481 482 539
3 539 482 540
3 482 484 540
3 483 485 542
3 483 542 484
3 484 542 540
3 485 541 542
3 492 550 544
3 486 492 544
3 544 545 486
3 486 545 487
3 487 545 553
3 494 487 553
3 488 496 498
3 498 556 546
3 498 546 488
3 488 546 489
3 546 547 489
3 489 547 490
3 547 548 490
3 490 548 491
3 501 499 491
3 501 491 549
3 549 491 548
3 549 559 501
3 502 562 551
3 493 502 551
3 551 492 493
3 550 492 551
3 553 495 494
3 554 495 553
3 495 554 564
3 503 495 564
3 497 504 505
3 505 565 557
3 497 505 557
3 497 557 498
3 497 498 496
3 498 557 556
3 501 500 499
3 500 507 506
3 501 507 500
3 501 560 507
3 501 559 560
3 562 502 571
3 571 502 508
3 564 573 503
3 573 509 503
3 511 505 504
3 510 511 504
3 565 511 575
3 505 511 565
3 513 506 507
3 512 506 513
3 567 576 513
3 507 567 513
3 571 508 580
3 580 508 514
3 573 582 509
3 582 515 509
3 517 511 510
3 516 517 510
3 575 517 584
3 511 517 575
3 519 512 513
3 518 512 519
3 576 586 519
3 513 576 519
3 580 514 590
3 590 514 520
3 582 593 515
3 593 521 515
3 525 517 516
3 523 525 516
3 584 525 594
3 517 525 584
3 528 518 519
3 526 518 528
3 586 597 528
3 519 586 528
3 531 591 590
3 531 590 529
3 529 590 520
3 591 531 602
3 522 535 533
3 535 522 521
3 535 521 606
3 606 521 593
3 525 523 524
3 524 536 538
3 525 524 538
3 525 538 595
3 525 595 594
3 527 543 541
3 543 598 613
3 527 598 543
3 527 528 598
3 527 526 528
3 531 529 530
3 602 531 530
3 602 530 603
3 603 530 532
3 603 532 605
3 532 534 605
3 533 535 607
3 533 607 534
3 534 607 605
3 535 606 607
3 538 536 537
3 608 538 537
3 608 537 609
3 609 537 539
3 609 539 611
3 539 540 611
3 611 540 612
3 540 542 612
3 541 543 614
3 541 614 542
3 542 614 612
3 543 613 614
3 544 550 552
3 552 622 616
3 552 616 544
3 544 616 545
3 555 553 545
3 555 545 617
3 617 545 616
3 617 624 555
3 546 556 558
3 558 625 618
3 558 618 546
3 546 618 547
3 618 619 547
3 547 619 548
3 619 620 548
3 548 620 549
3 561 559 549
3 561 549 621
3 621 549 620
3 621 627 561
3 551 562 563
3 563 634 623
3 551 563 623
3 551 623 552
3 551 552 550
3 552 623 622
3 554 555 624
3 554 624 564
3 564 624 636
3 557 565 566
3 566 639 626
3 557 566 626
3 557 626 558
3 557 558 556
3 558 626 625
3 561 560 559
3 560 568 567
3 561 568 560
3 561 628 568
3 561 627 628
3 628 630 569
3 568 628 569
3 630 632 570
3 569 630 570
3 632 642 570
3 572 563 562
3 571 572 562
3 634 572 644
3 563 572 634
3 574 636 637
3 574 573 636
3 573 564 636
3 637 645 574
3 640 566 565
3 640 565 646
3 646 565 575
3 566 640 639
3 577 567 568
3 576 567 577
3 568 569 577
3 569 578 577
3 569 570 578
3 570 579 578
3 642 649 579
3 570 642 579
3 581 572 571
3 580 581 571
3 644 581 651
3 572 581 644
3 583 573 574
3 582 573 583
3 645 653 583
3 574 645 583
3 585 647 646
3 585 646 584
3 584 646 575
3 647 585 655
3 587 576 577
3 586 576 587
3 577 578 587
3 578 588 587
3 578 579 588
3 579 589 588
3 649 656 589
3 579 649 589
3 592 581 580
3 590 592 580
3 651 592 658
3 581 592 651
3 654 582 583
3 654 661 582
3 661 593 582
3 583 653 654
3 596 585 584
3 594 596 584
3 655 596 663
3 585 596 655
3 599 586 587
3 597 586 599
3 587 588 599
3 588 600 599
3 588 589 600
3 589 601 600
3 656 668 601
3 589 656 601
3 592 590 591
3 591 602 604
3 592 591 604
3 592 604 659
3 592 659 658
3 659 604 671
3 661 673 593
3 673 606 593
3 596 594 595
3 595 608 610
3 596 595 610
3 596 610 664
3 596 664 663
3 664 610 676
3 598 615 613
3 615 666 680
3 598 666 615
3 598 599 666
3 598 597 599
3 599 600 667
3 666 599 667
3 600 601 669
3 667 600 669
3 601 668 669
3 604 602 603
3 671 604 603
3 671 603 672
3 672 603 605
3 672 605 674
3 605 607 674
3 674 607 606
3 673 674 606
3 610 608 609
3 676 610 609
3 676 609 677
3 677 609 611
3 677 611 678
3 611 612 678
3 678 612 679
3 612 614 679
3 613 615 681
3 613 681 614
3 614 681 679
3 615 680 681
3 622 694 685
3 616 622 685
3 685 686 616
3 616 686 617
3 617 686 696
3 624 617 696
3 625 699 687
3 618 625 687
3 687 688 618
3 618 688 619
3 688 689 619
3 619 689 620
3 689 690 620
3 620 690 621
3 629 627 621
3 629 621 691
3 691 621 690
3 691 692 631
3 629 691 631
3 692 693 633
3 631 692 633
3 693 702 633
3 623 634 635
3 635 622 623
3 635 704 622
3 704 694 622
3 638 696 697
3 638 636 696
3 636 624 696
3 697 707 638
3 626 639 641
3 641 625 626
3 641 709 625
3 709 699 625
3 629 628 627
3 631 628 629
3 630 628 631
3 633 630 631
3 632 630 633
3 632 643 642
3 633 643 632
3 633 703 643
3 633 702 703
3 703 712 643
3 705 635 634
3 705 634 713
3 713 634 644
3 635 705 704
3 638 637 636
3 637 638 707
3 637 707 645
3 645 707 716
3 640 646 648
3 648 718 710
3 640 648 710
3 640 710 641
3 640 641 639
3 641 710 709
3 650 642 643
3 649 642 650
3 712 720 650
3 643 712 650
3 652 714 713
3 652 713 651
3 651 713 644
3 714 652 721
3 716 722 645
3 722 653 645
3 648 646 647
3 647 718 648
3 647 655 718
3 655 724 718
3 657 649 650
3 656 649 657
3 720 727 657
3 650 720 657
3 660 652 651
3 658 660 651
3 721 660 728
3 652 660 721
3 654 662 661
3 662 654 653
3 662 653 729
3 729 653 722
3 665 725 724
3 665 724 663
3 663 724 655
3 725 665 731
3 670 656 657
3 668 656 670
3 727 733 670
3 657 727 670
3 660 658 659
3 659 728 660
3 659 671 728
3 671 735 728
3 675 661 662
3 673 661 675
3 729 739 675
3 662 729 675
3 665 663 664
3 664 731 665
3 664 676 731
3 676 741 731
3 666 682 680
3 667 682 666
3 683 682 667
3 669 683 667
3 684 683 669
3 684 734 750
3 669 734 684
3 669 670 734
3 669 668 670
3 670 733 734
3 735 671 672
3 736 735 672
3 736 672 738
3 672 674 738
3 673 675 740
3 673 740 674
3 674 740 738
3 675 739 740
3 741 676 677
3 742 741 677
3 742 677 744
3 677 678 744
3 744 678 746
3 678 679 746
3 746 679 747
3 679 681 747
3 680 682 748
3 680 748 681
3 681 748 747
3 682 683 749
3 748 682 749
3 683 684 751
3 749 683 751
3 684 750 751
3 685 694 695
3 695 759 752
3 695 752 685
3 685 752 686
3 698 696 686
3 698 686 753
3 753 686 752
3 753 761 698
3 687 699 700
3 688 687 700
3 701 688 700
3 701 764 754
3 701 754 688
3 688 754 689
3 754 755 689
3 689 755 690
3 755 756 690
3 690 756 691
3 756 757 691
3 691 757 692
3 757 758 692
3 692 758 693
3 693 758 767
3 702 693 767
3 706 695 694
3 704 706 694
3 759 706 769
3 695 706 759
3 698 697 696
3 697 708 707
3 698 708 697
3 698 762 708
3 698 761 762
3 762 771 708
3 711 700 699
3 709 711 699
3 765 711 773
3 765 701 711
3 701 700 711
3 701 765 764
3 767 703 702
3 768 703 767
3 703 768 776
3 712 703 776
3 705 713 715
3 715 777 770
3 705 715 770
3 705 770 706
3 705 706 704
3 717 707 708
3 716 707 717
3 771 779 717
3 708 771 717
3 710 718 719
3 719 781 774
3 710 719 774
3 710 774 711
3 710 711 709
3 711 774 773
3 776 784 712
3 784 720 712
3 715 713 714
3 714 777 715
3 714 721 777
3 721 785 777
3 723 716 717
3 722 716 723
3 779 787 723
3 717 779 723
3 726 719 718
3 724 726 718
3 781 726 789
3 719 726 781
3 784 793 720
3 793 727 720
3 785 721 794
3 794 721 728
3 730 722 723
3 729 722 730
3 787 797 730
3 723 787 730
3 726 724 725
3 725 731 732
3 726 725 732
3 726 732 790
3 726 790 789
3 793 804 727
3 804 733 727
3 737 795 794
3 737 794 735
3 735 794 728
3 795 737 806
3 798 729 730
3 798 809 729
3 809 739 729
3 730 797 798
3 743 732 731
3 741 743 731
3 800 745 801
3 800 732 745
3 732 743 745
3 801 745 812
3 750 805 819
3 734 805 750
3 805 734 733
3 804 805 733
3 737 735 736
3 806 737 736
3 806 736 807
3 807 736 738
3 807 738 810
3 738 740 810
3 810 740 739
3 809 810 739
3 743 741 742
3 745 743 742
3 744 745 742
3 812 745 744
3 812 744 813
3 813 744 746
3 813 746 815
3 746 747 815
3 815 747 817
3 747 748 817
3 817 748 818
3 748 749 818
3 818 749 820
3 749 751 820
3 820 751 750
3 819 820 750
3 752 759 760
3 760 827 821
3 760 821 752
3 752 821 753
3 763 761 753
3 763 753 822
3 822 753 821
3 822 830 763
3 754 764 766
3 766 833 823
3 766 823 754
3 754 823 755
3 823 824 755
3 755 824 756
3 824 825 756
3 756 825 757
3 825 826 757
3 757 826 758
3 758 826 837
3 767 758 837
3 828 760 759
3 828 759 839
3 839 759 769
3 760 828 827
3 763 762 761
3 762 772 771
3 763 772 762
3 763 831 772
3 763 830 831
3 831 841 772
3 765 773 775
3 775 843 834
3 765 775 834
3 765 834 766
3 765 766 764
3 766 834 833
3 837 768 767
3 838 768 837
3 768 838 846
3 776 768 846
3 770 777 778
3 778 769 770
3 778 847 769
3 847 839 769
3 780 771 772
3 779 771 780
3 841 849 780
3 772 841 780
3 774 781 782
3 773 774 782
3 773 782 775
3 775 782 783
3 843 783 851
3 775 783 843
3 846 853 776
3 853 784 776
3 786 778 777
3 785 786 777
3 847 786 854
3 778 786 847
3 788 779 780
3 787 779 788
3 849 856 788
3 780 849 788
3 791 782 781
3 789 791 781
3 782 791 783
3 783 791 792
3 851 792 858
3 783 792 851
3 853 861 784
3 861 793 784
3 796 786 785
3 794 796 785
3 854 796 862
3 786 796 854
3 799 787 788
3 797 787 799
3 856 865 799
3 788 856 799
3 791 789 790
3 790 800 802
3 790 802 791
3 791 802 792
3 858 803 859
3 858 792 803
3 792 802 803
3 859 803 868
3 861 871 793
3 871 804 793
3 796 794 795
3 795 806 808
3 796 795 808
3 796 808 863
3 796 863 862
3 863 808 873
3 798 811 809
3 811 866 876
3 798 866 811
3 798 799 866
3 798 797 799
3 799 865 866
3 802 800 801
3 801 812 814
3 801 814 802
3 802 814 803
3 868 816 869
3 868 803 816
3 803 814 816
3 819 872 883
3 805 872 819
3 872 805 804
3 871 872 804
3 808 806 807
3 873 808 807
3 873 807 874
3 874 807 810
3 809 811 877
3 809 877 810
3 810 877 874
3 811 876 877
3 814 812 813
3 816 814 813
3 815 816 813
3 879 816 815
3 879 815 880
3 880 815 817
3 880 817 882
3 817 818 882
3 882 818 884
3 818 820 884
3 884 820 819
3 883 884 819
3 829 889 885
3 829 885 821
3 821 885 822
3 832 830 822
3 832 822 886
3 886 822 885
3 886 892 832
3 823 833 835
3 824 823 835
3 836 824 835
3 836 895 887
3 836 887 824
3 824 887 825
3 887 888 825
3 825 888 826
3 826 888 898
3 837 826 898
3 828 839 840
3 840 900 890
3 828 840 890
3 828 890 829
3 828 829 827
3 829 890 889
3 832 831 830
3 831 842 841
3 832 842 831
3 832 893 842
3 832 892 893
3 893 902 842
3 834 843 844
3 833 834 844
3 833 844 835
3 835 844 845
3 896 845 904
3 896 836 845
3 836 835 845
3 836 896 895
3 898 838 837
3 899 838 898
3 838 899 907
3 846 838 907
3 848 840 839
3 847 848 839
3 900 848 908
3 840 848 900
3 850 841 842
3 849 841 850
3 902 910 850
3 842 902 850
3 852 844 843
3 851 852 843
3 905 852 912
3 905 845 852
3 845 844 852
3 845 905 904
3 907 915 846
3 915 853 846
3 855 848 847
3 854 855 847
3 857 849 850
3 856 849 857
3 910 918 857
3 850 910 857
3 860 852 851
3 858 860 851
3 912 860 920
3 852 860 912
3 915 924 853
3 924 861 853
3 864 855 854
3 862 864 854
3 916 864 925
3 855 864 916
3 867 856 857
3 865 856 867
3 918 928 867
3 857 918 867
3 860 858 859
3 859 868 870
3 860 859 870
3 860 870 921
3 860 921 920
3 921 870 931
3 924 934 861
3 934 871 861
3 864 862 863
3 863 873 875
3 864 863 875
3 864 875 926
3 864 926 925
3 926 875 936
3 866 878 876
3 878 929 939
3 866 929 878
3 866 867 929
3 866 865 867
3 867 928 929
3 870 868 869
3 869 879 881
3 870 869 881
3 870 881 932
3 870 932 931
3 932 881 942
3 883 935 945
3 872 935 883
3 935 872 871
3 934 935 871
3 875 873 874
3 936 875 874
3 936 874 937
3 937 874 877
3 876 878 940
3 876 940 877
3 877 940 937
3 881 879 880
3 942 881 880
3 942 880 943
3 943 880 882
3 943 882 946
3 882 884 946
3 946 884 883
3 945 946 883
3 885 889 891
3 891 950 947
3 891 947 885
3 885 947 886
3 894 892 886
3 894 886 948
3 948 886 947
3 948 952 894
3 887 895 897
3 897 955 949
3 897 949 887
3 887 949 888
3 888 949 957
3 898 888 957
3 890 900 901
3 901 959 951
3 890 901 951
3 890 951 891
3 890 891 889
3 891 951 950
3 894 893 892
3 893 903 902
3 894 903 893
3 894 953 903
3 894 952 953
3 953 961 903
3 896 904 906
3 906 963 956
3 896 906 956
3 896 956 897
3 896 897 895
3 897 956 955
3 957 899 898
3 958 899 957
3 899 958 964
3 907 899 964
3 909 901 900
3 908 909 900
3 959 909 965
3 901 909 959
3 911 902 903
3 910 902 911
3 961 967 911
3 903 961 911
3 905 912 913
3 904 905 913
3 904 913 906
3 906 913 914
3 963 914 969
3 906 914 963
3 964 970 907
3 970 915 907
3 917 909 908
3 916 917 908
3 965 917 971
3 909 917 965
3 919 910 911
3 918 910 919
3 967 973 919
3 911 967 919
3 922 913 912
3 920 922 912
3 913 922 914
3 914 922 923
3 969 923 975
3 914 923 969
3 970 976 915
3 976 924 915
3 927 917 916
3 925 927 916
3 971 927 977
3 917 927 971
3 930 918 919
3 928 918 930
3 973 980 930
3 919 973 930
3 922 920 921
3 921 931 933
3 921 933 922
3 922 933 923
3 975 933 983
3 923 933 975
3 976 985 924
3 985 934 924
3 927 925 926
3 926 936 938
3 927 926 938
3 927 938 978
3 927 978 977
3 978 938 987
3 929 941 939
3 941 981 990
3 929 981 941
3 929 930 981
3 929 928 930
3 930 980 981
3 933 931 932
3 932 942 944
3 933 932 944
3 933 944 984
3 933 984 983
3 984 944 993
3 945 986 994
3 935 986 945
3 986 935 934
3 985 986 934
3 938 936 937
3 987 938 937
3 987 937 988
3 988 937 940
3 939 941 991
3 939 991 940
3 940 991 988
3 941 990 991
3 944 942 943
3 993 944 943
3 993 943 995
3 995 943 946
3 995 946 945
3 994 995 945
3 950 1000 996
3 947 950 996
3 996 997 947
3 947 997 948
3 954 952 948
3 954 948 998
3 998 948 997
3 998 1002 954
3 955 1006 999
3 949 955 999
3 949 999 1008
3 957 949 1008
3 951 959 960
3 960 950 951
3 960 1010 950
3 1010 1000 950
3 954 953 952
3 953 962 961
3 954 962 953
3 954 1003 962
3 954 1002 1003
3 1003 1012 962
3 963 1015 1007
3 956 963 1007
3 1007 955 956
3 1006 955 1007
3 1008 958 957
3 1009 958 1008
3 958 1009 1016
3 964 958 1016
3 966 960 959
3 965 966 959
3 1010 966 1017
3 960 966 1010
3 968 961 962
3 967 961 968
3 1012 1018 968
3 962 1012 968
3 1015 963 1024
3 1024 963 969
3 1016 1025 964
3 1025 970 964
3 972 966 965
3 971 972 965
3 1017 972 1026
3 966 972 1017
3 974 967 968
3 973 967 974
3 1018 1027 974
3 968 1018 974
3 1024 969 1034
3 1034 969 975
3 1025 1035 970
3 1035 976 970
3 979 972 971
3 977 979 971
3 1026 979 1036
3 972 979 1026
3 982 973 974
3 980 973 982
3 1027 1039 982
3 974 1027 982
3 1034 975 1044
3 1044 975 983
3 1035 1046 976
3 1046 985 976
3 979 977 978
3 978 987 989
3 979 978 989
3 979 989 1037
3 979 1037 1036
3 1037 989 1048
3 981 992 990
3 992 1040 1051
3 981 1040 992
3 981 982 1040
3 981 980 982
3 982 1039 1040
3 1044 983 984
3 1045 1044 984
3 984 1054 1045
3 993 1054 984
3 994 1047 1055
3 986 1047 994
3 1047 986 985
3 1046 1047 985
3 989 987 988
3 1048 989 988
3 1048 988 1049
3 1049 988 991
3 990 992 1052
3 990 1052 991
3 991 1052 1049
3 992 1051 1052
3 1054 993 995
3 1056 1054 995
3 1056 995 994
3 1055 1056 994
3 996 1000 1001
3 1001 1062 1057
3 1001 1057 996
3 996 1057 997
3 1057 1058 997
3 997 1058 998
3 1004 1002 998
3 1004 998 1059
3 1059 998 1058
3 1059 1060 1005
3 1004 1059 1005
3 1006 1071 1061
3 999 1006 1061
3 999 1061 1074
3 1008 999 1074
3 1011 1001 1000
3 1010 1011 1000
3 1062 1011 1076
3 1001 1011 1062
3 1004 1003 1002
3 1003 1013 1012
3 1003 1004 1013
3 1004 1005 1013
3 1065 1066 1014
3 1065 1014 1005
3 1005 1014 1013
3 1066 1078 1014
3 1015 1088 1072
3 1007 1015 1072
3 1072 1006 1007
3 1071 1006 1072
3 1074 1009 1008
3 1075 1009 1074
3 1009 1075 1090
3 1016 1009 1090
3 1077 1011 1010
3 1077 1010 1091
3 1091 1010 1017
3 1019 1012 1013
3 1018 1012 1019
3 1013 1014 1019
3 1014 1020 1019
3 1078 1079 1021
3 1078 1021 1014
3 1014 1021 1020
3 1079 1093 1021
3 1094 1082 1022
3 1082 1084 1023
3 1022 1082 1023
3 1084 1096 1023
3 1088 1015 1099
3 1099 1015 1024
3 1090 1101 1016
3 1101 1025 1016
3 1091 1017 1102
3 1102 1017 1026
3 1028 1018 1019
3 1027 1018 1028
3 1019 1020 1028
3 1020 1029 1028
3 1020 1021 1029
3 1021 1030 1029
3 1093 1095 1031
3 1093 1031 1021
3 1021 1031 1030
3 1095 1094 1022
3 1095 1022 1031
3 1031 1022 1032
3 1022 1023 1032
3 1023 1033 1032
3 1096 1108 1033
3 1023 1096 1033
3 1099 1024 1111
3 1111 1024 1034
3 1101 1113 1025
3 1113 1035 1025
3 1038 1103 1102
3 1038 1102 1036
3 1036 1102 1026
3 1103 1038 1114
3 1041 1027 1028
3 1039 1027 1041
3 1028 1029 1041
3 1029 1042 1041
3 1105 1118 1042
3 1105 1042 1030
3 1030 1042 1029
3 1030 1031 1106
3 1105 1030 1106
3 1031 1032 1107
3 1106 1031 1107
3 1122 1107 1032
3 1122 1032 1043
3 1043 1032 1033
3 1108 1124 1043
3 1033 1108 1043
3 1111 1034 1128
3 1128 1034 1044
3 1113 1131 1035
3 1131 1046 1035
3 1038 1036 1037
3 1037 1048 1050
3 1038 1037 1050
3 1038 1050 1115
3 1038 1115 1114
3 1115 1050 1133
3 1040 1053 1051
3 1053 1117 1136
3 1040 1117 1053
3 1040 1041 1117
3 1040 1039 1041
3 1041 1042 1119
3 1117 1041 1119
3 1042 1118 1119
3 1122 1043 1125
3 1043 1124 1125
3 1128 1044 1045
3 1130 1128 1045
3 1045 1145 1130
3 1054 1145 1045
3 1055 1132 1147
3 1047 1132 1055
3 1132 1047 1046
3 1131 1132 1046
3 1050 1048 1049
3 1133 1050 1049
3 1133 1049 1134
3 1134 1049 1052
3 1051 1053 1137
3 1051 1137 1052
3 1052 1137 1134
3 1053 1136 1137
3 1145 1054 1056
3 1148 1145 1056
3 1148 1056 1055
3 1147 1148 1055
3 1057 1062 1063
3 1058 1057 1063
3 1064 1058 1063
3 1064 1158 1149
3 1064 1149 1058
3 1058 1149 1059
3 1149 1150 1059
3 1059 1150 1060
3 1067 1065 1060
3 1067 1060 1151
3 1151 1060 1150
3 1151 1152 1068
3 1067 1151 1068
3 1152 1162 1068
3 1165 1153 1069
3 1153 1154 1070
3 1069 1153 1070
3 1171 1155 1073
3 1071 1073 1155
3 1071 1155 1061
3 1061 1155 1156
3 1061 1156 1174
3 1074 1061 1174
3 1157 1063 1062
3 1157 1062 1177
3 1177 1062 1076
3 1063 1159 1064
3 1157 1159 1063
3 1064 1159 1158
3 1067 1066 1065
3 1066 1080 1078
3 1066 1067 1080
3 1067 1068 1080
3 1162 1163 1081
3 1162 1081 1068
3 1068 1081 1080
3 1163 1166 1083
3 1081 1163 1083
3 1166 1165 1069
3 1166 1069 1083
3 1083 1069 1085
3 1069 1070 1085
3 1070 1086 1085
3 1168 1169 1087
3 1168 1087 1070
3 1070 1087 1086
3 1169 1172 1089
3 1087 1169 1089
3 1073 1072 1088
3 1171 1073 1088
3 1171 1088 1089
3 1171 1089 1172
3 1174 1075 1074
3 1176 1075 1174
3 1075 1176 1182
3 1090 1075 1182
3 1077 1091 1092
3 1092 1076 1077
3 1092 1184 1076
3 1184 1177 1076
3 1080 1079 1078
3 1085 1082 1083
3 1084 1082 1085
3 1084 1097 1096
3 1084 1085 1097
3 1085 1086 1097
3 1086 1087 1097
3 1087 1098 1097
3 1087 1089 1098
3 1089 1100 1098
3 1089 1099 1100
3 1088 1099 1089
3 1182 1187 1090
3 1187 1101 1090
3 1104 1092 1091
3 1102 1104 1091
3 1184 1104 1189
3 1092 1104 1184
3 1109 1096 1097
3 1108 1096 1109
3 1097 1098 1109
3 1098 1110 1109
3 1098 1100 1110
3 1100 1112 1110
3 1100 1111 1112
3 1099 1111 1100
3 1187 1193 1101
3 1193 1113 1101
3 1104 1102 1103
3 1103 1114 1116
3 1104 1103 1116
3 1104 1116 1190
3 1104 1190 1189
3 1190 1116 1195
3 1105 1120 1118
3 1106 1120 1105
3 1121 1120 1106
3 1107 1121 1106
3 1123 1121 1107
3 1126 1108 1109
3 1124 1108 1126
3 1109 1110 1126
3 1110 1127 1126
3 1110 1112 1127
3 1112 1129 1127
3 1112 1128 1129
3 1111 1128 1112
3 1193 1201 1113
3 1201 1131 1113
3 1116 1114 1115
3 1115 1133 1135
3 1116 1115 1135
3 1116 1135 1196
3 1116 1196 1195
3 1196 1135 1204
3 1117 1138 1136
3 1119 1138 1117
3 1139 1138 1119
3 1118 1139 1119
3 1118 1120 1139
3 1120 1140 1139
3 1120 1121 1140
3 1121 1141 1140
3 1121 1123 1141
3 1123 1142 1141
3 1125 1123 1122
3 1125 1143 1123
3 1143 1142 1123
3 1124 1143 1125
3 1124 1126 1143
3 1126 1144 1143
3 1199 1215 1144
3 1199 1144 1127
3 1127 1144 1126
3 1127 1129 1200
3 1199 1127 1200
3 1218 1130 1146
3 1200 1130 1218
3 1200 1128 1130
3 1200 1129 1128
3 1130 1145 1146
3 1147 1202 1222
3 1132 1202 1147
3 1202 1132 1131
3 1201 1202 1131
3 1135 1133 1134
3 1204 1135 1134
3 1204 1134 1205
3 1205 1134 1137
3 1136 1138 1207
3 1136 1207 1137
3 1137 1207 1205
3 1138 1139 1209
3 1207 1138 1209
3 1139 1140 1211
3 1209 1139 1211
3 1140 1141 1212
3 1211 1140 1212
3 1141 1142 1213
3 1212 1141 1213
3 1142 1143 1214
3 1213 1142 1214
3 1143 1144 1216
3 1214 1143 1216
3 1144 1215 1216
3 1218 1146 1220
3 1146 1145 1148
3 1146 1148 1220
3 1220 1148 1223
3 1223 1148 1147
3 1222 1223 1147
3 1149 1158 1160
3 1150 1149 1160
3 1161 1150 1160
3 1161 1232 1225
3 1161 1225 1150
3 1150 1225 1151
3 1225 1226 1151
3 1151 1226 1152
3 1164 1162 1152
3 1164 1152 1227
3 1227 1152 1226
3 1227 1228 1167
3 1164 1227 1167
3 1165 1167 1228
3 1165 1228 1153
3 1153 1228 1229
3 1229 1230 1153
3 1153 1230 1154
3 1170 1168 1154
3 1170 1154 1231
3 1231 1154 1230
3 1231 1239 1170
3 1155 1171 1173
3 1156 1155 1173
3 1175 1156 1173
3 1156 1175 1174
3 1157 1177 1178
3 1159 1157 1178
3 1179 1159 1178
3 1158 1159 1179
3 1158 1179 1160
3 1160 1179 1180
3 1233 1180 1243
3 1233 1161 1180
3 1161 1160 1180
3 1161 1233 1232
3 1170 1169 1168
3 1239 1169 1170
3 1239 1241 1169
3 1241 1172 1169
3 1171 1242 1173
3 1171 1172 1242
3 1172 1241 1242
3 1247 1173 1242
3 1247 1181 1173
3 1181 1175 1173
3 1176 1174 1175
3 1176 1175 1183
3 1183 1175 1181
3 1176 1183 1182
3 1185 1178 1177
3 1184 1185 1177
3 1178 1185 1179
3 1179 1185 1186
3 1244 1186 1250
3 1244 1180 1186
3 1180 1179 1186
3 1180 1244 1243
3 1247 1249 1181
3 1254 1181 1249
3 1254 1188 1181
3 1188 1183 1181
3 1183 1188 1187
3 1182 1183 1187
3 1191 1185 1184
3 1189 1191 1184
3 1185 1191 1186
3 1186 1191 1192
3 1250 1192 1256
3 1186 1192 1250
3 1261 1188 1254
3 1194 1188 1261
3 1188 1194 1193
3 1187 1188 1193
3 1191 1189 1190
3 1190 1195 1197
3 1190 1197 1191
3 1191 1197 1192
3 1256 1198 1257
3 1256 1192 1198
3 1192 1197 1198
3 1257 1198 1263
3 1270 1194 1261
3 1203 1194 1270
3 1194 1203 1201
3 1193 1194 1201
3 1197 1195 1196
3 1196 1204 1206
3 1196 1206 1197
3 1197 1206 1198
3 1263 1208 1264
3 1263 1198 1208
3 1198 1206 1208
3 1264 1210 1266
3 1208 1210 1264
3 1200 1217 1199
3 1219 1217 1200
3 1219 1200 1218
3 1284 1221 1268
3 1268 1224 1271
3 1221 1224 1268
3 1203 1222 1202
3 1270 1222 1203
3 1270 1224 1222
3 1270 1271 1224
3 1203 1202 1201
3 1206 1204 1205
3 1208 1206 1205
3 1207 1208 1205
3 1210 1208 1207
3 1209 1210 1207
3 1273 1210 1209
3 1273 1209 1274
3 1274 1209 1211
3 1274 1211 1276
3 1211 1212 1276
3 1276 1212 1278
3 1212 1213 1278
3 1278 1213 1280
3 1213 1214 1280
3 1280 1214 1282
3 1214 1216 1282
3 1215 1217 1283
3 1215 1283 1216
3 1216 1283 1282
3 1217 1219 1285
3 1283 1217 1285
3 1221 1284 1285
3 1221 1285 1220
3 1219 1218 1285
3 1218 1220 1285
3 1224 1221 1220
3 1223 1224 1220
3 1224 1223 1222
3 1225 1232 1234
3 1226 1225 1234
3 1235 1226 1234
3 1227 1226 1235
3 1236 1227 1235
3 1228 1227 1236
3 1237 1228 1236
3 1237 1290 1287
3 1237 1287 1228
3 1228 1287 1229
3 1292 1238 1230
3 1292 1230 1287
3 1287 1230 1229
3 1231 1230 1238
3 1240 1231 1238
3 1231 1240 1239
3 1233 1243 1245
3 1232 1233 1245
3 1232 1245 1234
3 1234 1245 1246
3 1288 1246 1297
3 1288 1235 1246
3 1235 1234 1246
3 1235 1289 1236
3 1288 1289 1235
3 1236 1291 1237
3 1289 1291 1236
3 1238 1295 1240
3 1294 1295 1238
3 1240 1241 1239
3 1240 1295 1241
3 1295 1296 1241
3 1305 1248 1242
3 1305 1242 1296
3 1296 1242 1241
3 1242 1248 1247
3 1243 1244 1251
3 1243 1251 1245
3 1245 1251 1252
3 1298 1252 1307
3 1298 1246 1252
3 1246 1245 1252
3 1246 1298 1297
3 1315 1248 1305
3 1253 1248 1315
3 1249 1247 1248
3 1249 1248 1255
3 1255 1248 1253
3 1251 1258 1252
3 1252 1258 1259
3 1307 1259 1317
3 1252 1259 1307
3 1326 1253 1315
3 1260 1253 1326
3 1253 1260 1255
3 1255 1260 1262
3 1255 1262 1261
3 1254 1255 1261
3 1257 1263 1265
3 1257 1265 1258
3 1258 1265 1259
3 1317 1267 1318
3 1317 1259 1267
3 1259 1265 1267
3 1318 1267 1328
3 1339 1260 1326
3 1269 1260 1339
3 1260 1269 1262
3 1262 1269 1272
3 1262 1272 1270
3 1261 1262 1270
3 1265 1263 1264
3 1267 1265 1264
3 1266 1267 1264
3 1266 1273 1275
3 1267 1266 1275
3 1267 1275 1329
3 1267 1329 1328
3 1329 1277 1331
3 1275 1277 1329
3 1331 1279 1333
3 1277 1279 1331
3 1333 1281 1335
3 1279 1281 1333
3 1345 1286 1340
3 1269 1284 1268
3 1339 1284 1269
3 1339 1286 1284
3 1339 1340 1286
3 1272 1269 1268
3 1271 1272 1268
3 1275 1273 1274
3 1277 1275 1274
3 1276 1277 1274
3 1279 1277 1276
3 1278 1279 1276
3 1281 1279 1278
3 1280 1281 1278
3 1342 1281 1280
3 1342 1280 1343
3 1343 1280 1282
3 1343 1282 1346
3 1282 1283 1346
3 1286 1345 1346
3 1286 1346 1285
3 1285 1346 1283
3 1287 1290 1293
3 1287 1293 1292
3 1288 1297 1299
3 1289 1288 1299
3 1300 1289 1299
3 1291 1289 1300
3 1301 1291 1300
3 1290 1291 1301
3 1290 1301 1293
3 1293 1301 1302
3 1294 1292 1293
3 1294 1293 1303
3 1303 1293 1302
3 1295 1294 1303
3 1304 1295 1303
3 1296 1295 1304
3 1306 1296 1304
3 1298 1307 1308
3 1297 1298 1308
3 1297 1308 1299
3 1299 1308 1309
3 1299 1309 1300
3 1300 1309 1310
3 1300 1310 1301
3 1301 1310 1311
3 1301 1311 1302
3 1302 1311 1312
3 1302 1312 1303
3 1303 1312 1313
3 1303 1313 1304
3 1304 1313 1314
3 1304 1314 1306
3 1306 1314 1316
3 1306 1316 1315
3 1305 1306 1315
3 1319 1308 1307
3 1317 1319 1307
3 1308 1319 1309
3 1309 1319 1320
3 1309 1320 1310
3 1310 1320 1321
3 1310 1321 1311
3 1311 1321 1322
3 1311 1322 1312
3 1312 1322 1323
3 1312 1323 1313
3 1313 1323 1324
3 1313 1324 1314
3 1314 1324 1325
3 1314 1325 1316
3 1316 1325 1327
3 1316 1327 1326
3 1315 1316 1326
3 1319 1317 1318
3 1318 1328 1330
3 1318 1330 1319
3 1319 1330 1320
3 1320 1330 1321
3 1321 1330 1332
3 1321 1332 1322
3 1322 1332 1334
3 1322 1334 1323
3 1323 1334 1336
3 1323 1336 1324
3 1324 1336 1337
3 1324 1337 1325
3 1325 1337 1338
3 1325 1338 1327
3 1327 1338 1341
3 1327 1341 1339
3 1326 1327 1339
3 1330 1328 1329
3 1332 1330 1329
3 1331 1332 1329
3 1334 1332 1331
3 1333 1334 1331
3 1336 1334 1333
3 1335 1336 1333
3 1335 1342 1344
3 1335 1344 1336
3 1336 1344 1337
3 1337 1344 1338
3 1338 1344 1347
3 1345 1340 1341
3 1345 1341 1347
3 1347 1341 1338
3 1341 1340 1339
3 1344 1342 1343
3 1347 1344 1343
3 1346 1347 1343
