ply
format ascii 1.0
element vertex 1024
property float x
property float y
property float z
property float nx
property float ny
property float nz
property uchar red
property uchar green
property uchar blue
end_header
-0.274219 0.291189 -0.443635 0.332552 -0.943051 -0.007968 169 7 126
-0.011947 -0.177215 0.627509 0.779986 0.547892 -0.302385 226 197 88
-0.118340 -0.236601 -0.186782 -0.539829 0.833915 0.114766 58 233 142
0.512144 -0.206377 -0.185862 -0.660178 0.695610 -0.283359 43 216 91
0.254900 -0.028216 0.523468 -0.819059 0.077153 0.568498 23 137 199
-0.329372 0.236218 -0.571532 0.646369 -0.716147 0.263327 209 36 161
-0.183572 0.301479 -0.609074 -0.078423 -0.979707 0.184455 117 2 151
0.347252 -0.187731 0.086864 -0.271426 0.627812 -0.729506 92 207 34
-0.374161 -0.067356 -0.035597 0.982122 0.097287 -0.161155 252 139 106
0.602618 -0.053467 -0.310347 -0.957559 0.133727 -0.255338 5 144 94
-0.387131 0.049338 -0.083151 0.952638 -0.204553 -0.225030 248 101 98
0.398160 -0.141225 0.956402 -0.849441 0.408456 -0.334085 19 179 84
0.454663 0.212224 -0.660066 -0.574895 -0.577582 0.579565 54 53 201
0.304621 0.295252 -0.238756 -0.046995 -0.996745 0.065513 121 0 135
-0.039779 -0.016385 0.611396 0.903473 0.064583 -0.423751 242 135 73
-0.246220 0.176981 -0.724566 0.392966 -0.617821 0.681083 177 48 214
0.006531 -0.009580 -0.849586 -0.016588 -0.005145 0.999849 125 126 254
0.568987 0.162620 -0.276514 -0.843964 -0.488602 -0.221345 19 65 99
-0.236875 -0.006055 0.362496 0.744627 0.149772 -0.650460 222 146 44
-0.152175 -0.134627 0.437725 0.820894 0.352479 -0.449323 232 172 70
0.340844 0.276022 0.950087 -0.007240 -0.900655 -0.434475 126 12 72
0.409876 0.157765 0.069426 -0.616588 -0.359878 -0.700219 48 81 38
0.057369 -0.003018 0.155481 -0.953315 0.083666 0.290155 5 138 164
-0.108703 -0.248411 -0.418326 -0.672678 0.696206 -0.250605 41 216 95
0.005657 -0.188824 0.184389 -0.803497 0.595169 -0.012913 25 203 125
-0.265015 -0.182630 -0.706114 0.393942 0.588233 0.706252 177 202 217
0.429190 0.148203 1.127799 -0.302108 -0.451474 -0.839584 88 69 20
-0.384514 0.173346 -0.192346 0.852893 -0.484246 -0.195138 236 65 102
0.112639 -0.244310 0.584075 -0.521548 0.852892 0.023721 61 236 130
0.157845 -0.256081 -0.180745 0.043120 0.982007 0.183857 132 252 150
0.001009 0.194444 0.620123 0.724371 -0.488421 -0.486551 219 65 65
0.432510 0.094157 0.787945 -0.783190 -0.182980 0.594249 27 104 203
0.140213 0.090297 0.394390 -0.866576 -0.222747 0.446575 17 99 184
-0.395737 0.184780 -0.370934 0.793470 -0.608599 -0.003456 228 49 127
0.359248 0.261541 -0.024058 -0.166549 -0.793387 -0.585490 106 26 52
-0.394331 -0.058588 -0.644214 0.937410 0.123262 0.325683 247 143 169
0.055593 -0.029118 -0.852171 -0.043733 0.036422 0.998379 121 132 254
0.052898 0.274473 -0.610455 -0.096600 -0.737500 -0.668403 115 33 42
-0.002302 0.109388 -0.841835 -0.063488 -0.393345 0.917196 119 77 244
0.281916 0.237509 0.670410 -0.686824 -0.623811 0.373004 39 47 175
0.439392 0.132075 -0.718838 -0.555774 -0.447099 0.700870 56 70 216
0.278782 -0.157638 0.657270 -0.666455 0.605277 0.435291 42 204 182
0.334595 0.252140 0.986941 0.132102 -0.802448 -0.581916 144 25 53
0.523938 -0.162730 -0.148007 -0.798659 0.491333 -0.347472 25 190 83
0.608348 0.056331 -0.374099 -0.984810 -0.103060 -0.139743 1 114 109
-0.263553 0.026149 0.291234 0.830833 -0.162597 -0.532240 233 106 59
0.530484 0.223476 -0.522760 -0.652804 -0.696829 0.297115 44 38 165
-0.216113 0.015463 0.362650 0.865520 -0.051686 -0.498200 237 120 63
-0.269392 -0.244912 -0.163753 0.386860 0.904832 -0.177816 176 242 104
-0.099372 -0.038832 0.562907 0.908696 0.121002 -0.399538 243 142 76
0.511824 -0.139795 -0.521203 -0.872627 0.488323 -0.007920 16 189 126
0.297168 0.048205 -0.817253 -0.413536 -0.170110 0.894456 74 105 241
0.211573 -0.175742 0.989660 0.735102 0.586728 -0.339669 221 202 84
0.072489 0.150330 0.246496 -0.791980 -0.336700 0.509314 26 84 192
-0.045817 0.239148 0.428963 0.596996 -0.763560 -0.246115 203 30 96
0.327464 0.100685 -0.460996 0.964694 -0.263117 0.011636 250 93 128
0.627900 0.034419 -0.420820 -0.999395 -0.016284 -0.030735 0 125 123
0.318512 -0.105561 0.633488 -0.819843 0.278293 0.500411 22 162 191
0.273871 -0.231381 0.874770 0.091933 0.995408 -0.026687 139 254 124
0.101745 0.111605 -0.561614 0.077128 -0.364616 -0.927958 137 81 9
-0.241507 0.002877 0.304115 0.869453 -0.067343 -0.489405 238 118 65
0.460713 -0.187170 -0.088248 -0.617872 0.728713 -0.295317 48 220 89
0.274858 -0.157852 -0.268905 0.471034 0.506492 0.722214 187 192 219
-0.089997 0.150463 0.506707 0.715482 -0.333346 -0.613976 218 84 49
0.357516 0.279864 0.995648 -0.041950 -0.791060 -0.610298 122 26 49
0.359454 0.128951 -0.478744 0.909227 -0.412100 0.058994 243 74 135
-0.021204 -0.199946 -0.523896 -0.374043 0.598569 -0.708384 79 203 37
-0.176763 -0.244310 -0.661507 0.215644 0.885164 0.412289 154 240 180
0.483365 0.297530 -0.419482 -0.233196 -0.968387 0.088582 97 4 138
-0.408043 -0.098432 -0.628372 0.957657 0.226167 0.178159 249 156 150
-0.008370 0.020270 0.708869 0.884847 -0.031312 -0.464829 240 123 68
-0.281939 0.181761 -0.703868 0.528298 -0.671330 0.519824 194 41 193
-0.297035 0.099711 -0.792815 0.704156 -0.271793 0.655967 217 92 211
-0.003601 0.184999 0.598402 0.703637 -0.571495 -0.422243 217 54 73
0.157741 0.034203 -0.832548 -0.197094 -0.186588 0.962465 102 103 250
0.328107 0.293802 -0.018528 -0.314231 -0.901248 -0.298346 87 12 89
0.469693 0.109802 0.936028 -0.934436 -0.285124 0.213386 8 91 154
0.297383 0.059599 0.576473 -0.794919 -0.154731 0.586654 26 107 202
-0.134509 -0.265936 -0.678024 -0.028206 0.848669 0.528172 123 235 194
-0.325320 0.133745 0.046907 0.868187 -0.381003 -0.317942 238 78 86
0.403311 -0.215393 -0.521146 0.564662 0.809582 -0.160417 199 230 107
-0.417689 -0.066438 -0.193680 0.982644 0.017461 -0.184676 252 129 103
0.338779 -0.129848 -0.462526 0.801456 0.597365 -0.028676 229 203 123
-0.145825 -0.283993 -0.085302 -0.197891 0.979770 0.029843 102 252 131
-0.385642 -0.103333 -0.053937 0.918520 0.187130 -0.348288 244 151 83
0.244417 0.203406 0.975600 0.430158 -0.594144 -0.679675 182 51 40
-0.137823 0.283839 0.057856 0.210769 -0.971857 -0.105217 154 3 114
0.113952 -0.025622 -0.837439 -0.012555 0.183414 0.982956 125 150 252
0.383247 0.148693 1.070246 -0.124655 -0.394394 -0.910447 111 77 11
-0.169896 -0.094548 0.462865 0.741194 0.223216 -0.633092 222 155 46
0.308459 0.279453 -0.217262 0.006173 -0.986346 0.164570 128 1 148
-0.131075 0.081130 -0.808397 0.440351 -0.278207 0.853635 183 92 236
0.601594 0.055726 -0.344204 -0.962695 -0.258035 -0.081464 4 94 117
-0.034071 -0.237728 -0.717693 -0.136662 0.782938 0.606903 110 227 204
0.608386 -0.031678 -0.310118 -0.972415 0.187263 -0.139073 3 151 109
-0.298412 0.031043 0.174238 0.903068 -0.174428 -0.392484 242 105 77
-0.104713 0.253839 -0.745611 -0.060055 -0.857459 0.511035 119 18 192
0.240708 0.287213 0.730655 -0.305475 -0.947723 0.092225 88 6 139
0.027500 -0.029612 0.797202 0.885199 0.198651 -0.420666 240 152 73
0.104931 -0.009206 0.943204 0.802819 0.027947 -0.595567 229 131 51
0.016355 0.056105 -0.475639 -0.053720 -0.048379 -0.997383 120 121 0
0.259365 -0.136808 -0.292840 0.665734 0.264556 0.697716 212 161 216
-0.098113 0.206833 -0.390323 -0.837726 -0.518632 -0.170984 20 61 105
0.503881 -0.045268 -0.718399 -0.681386 0.204516 0.702770 40 153 217
-0.120680 -0.265103 0.313183 0.526096 0.819127 -0.228592 194 231 98
-0.336102 0.259750 -0.330329 0.570569 -0.810421 -0.132924 200 24 110
-0.396632 -0.059107 -0.060827 0.939543 0.166534 -0.299209 247 148 89
-0.138812 -0.251476 -0.040343 0.322348 0.946475 -0.016643 168 248 125
-0.003260 0.217808 0.572195 0.603843 -0.624151 -0.495792 204 47 64
0.207175 0.272711 0.813503 0.350242 -0.887229 -0.300259 172 14 89
-0.126819 0.299005 0.016772 -0.141254 -0.989970 0.002685 109 1 127
0.332445 -0.140950 -0.471184 0.945320 0.307428 -0.108894 248 166 113
0.185619 -0.095271 -0.163149 0.273863 0.262173 -0.925346 162 160 9
0.611585 -0.029799 -0.261923 -0.956328 0.062320 -0.285575 5 135 91
0.534743 -0.196906 -0.436155 -0.567444 0.749512 0.340939 55 223 170
0.296143 -0.264444 -0.172609 -0.026703 0.991736 0.125487 124 253 143
-0.417751 0.075301 -0.234321 0.925313 -0.351424 -0.142468 245 82 109
-0.420537 -0.131527 -0.221181 0.906080 0.322272 -0.274152 243 168 92
0.288479 -0.209008 -0.238191 0.365408 0.623342 0.691319 174 206 215
-0.272657 -0.245881 -0.566333 0.390992 0.897082 0.205837 177 241 153
-0.438269 0.052990 -0.462099 0.956032 -0.173020 0.236785 249 105 157
0.091269 -0.173087 0.416862 -0.736682 0.612193 0.287264 33 205 164
0.193128 0.083060 0.446051 -0.872727 -0.118869 0.473516 16 112 187
0.025098 -0.093983 -0.813265 -0.152367 0.246615 0.957061 108 158 249
-0.403458 0.044616 -0.135497 0.963043 -0.230656 -0.139092 250 98 109
-0.044997 -0.069959 0.619271 0.788912 0.233631 -0.568361 228 157 55
0.408278 -0.215328 0.000718 -0.439948 0.780758 -0.443693 71 227 70
0.101107 -0.167309 -0.805982 -0.311123 0.398770 0.862661 87 178 237
-0.331481 0.233921 -0.179154 0.672074 -0.706535 -0.221641 213 37 99
0.139288 0.022193 -0.472550 0.197275 -0.014099 -0.980247 152 125 2
-0.126523 -0.255476 0.259688 0.465770 0.856168 -0.223684 186 236 98
0.592403 -0.021286 -0.573169 -0.801556 0.134397 0.582619 25 144 201
0.572470 0.068168 -0.210472 -0.954598 -0.068158 -0.289995 5 118 90
0.391636 0.147539 -0.766300 -0.608766 -0.393244 0.689031 49 77 215
-0.040685 -0.075545 -0.447136 -0.822507 0.421394 -0.381981 22 181 78
0.450182 0.054736 0.036418 -0.697480 -0.257402 -0.668779 38 94 42
-0.406507 0.181884 -0.443666 0.874400 -0.484332 0.029119 238 65 131
0.354915 0.183090 1.052835 0.022312 -0.612461 -0.790186 130 49 26
0.505567 0.126298 -0.661636 -0.687330 -0.419480 0.592971 39 74 203
0.376867 -0.264152 -0.257987 0.048757 0.997194 0.056804 133 254 134
-0.052892 0.151278 -0.098546 -0.859649 -0.493289 0.132928 17 64 144
0.089917 -0.013706 -0.502899 0.047064 0.094693 -0.994393 133 139 0
0.493435 0.100090 0.987211 -0.983827 -0.055750 0.170222 2 120 149
-0.097877 0.087433 -0.378809 -0.588600 -0.220261 -0.777840 52 99 28
-0.305023 -0.160229 -0.696859 0.540291 0.639982 0.546360 196 209 197
0.424680 -0.094598 0.858460 -0.887259 0.422423 0.185282 14 181 151
0.471128 -0.117532 -0.013817 -0.704770 0.454781 -0.544494 37 185 58
-0.056121 -0.215971 -0.488165 -0.465902 0.843408 0.267579 68 235 161
-0.039105 0.250762 -0.531516 -0.607625 -0.593266 -0.528041 50 51 60
-0.373780 0.197911 -0.479424 0.745505 -0.666499 0.000675 222 42 127
0.269579 -0.237835 0.929985 0.060897 0.995720 -0.069527 135 254 118
-0.124783 -0.174822 -0.791066 0.058838 0.475828 0.877568 135 188 239
0.233231 -0.215329 -0.724640 -0.244667 0.709496 0.660873 96 217 211
-0.392829 -0.226641 -0.367469 0.849038 0.527824 -0.023157 235 194 124
0.349765 0.258283 0.875968 -0.456512 -0.872486 0.174258 69 16 149
0.210966 -0.276807 -0.059298 0.038332 0.997633 0.057086 132 254 134
0.529243 0.077319 -0.655219 -0.760760 -0.204789 0.615878 30 101 206
-0.289530 0.275329 -0.316964 0.409528 -0.912004 -0.023150 179 11 124
0.055517 0.120412 -0.822410 -0.049544 -0.320535 0.945940 121 86 248
0.257678 0.023020 0.497743 -0.773731 0.027710 0.632908 28 131 208
0.140002 0.195299 0.858776 0.694966 -0.603833 -0.390395 216 50 77
-0.398177 0.112702 -0.552245 0.904208 -0.407068 0.129238 242 75 143
0.453272 -0.231824 -0.417806 -0.281258 0.936010 0.211609 91 246 154
0.548578 -0.212234 -0.453005 -0.532734 0.845413 -0.038362 59 235 122
-0.442081 -0.076723 -0.370569 0.978621 0.196295 -0.061395 252 152 119
0.096911 -0.091485 -0.833787 -0.067602 0.167669 0.983523 118 148 252
0.474753 -0.199302 -0.097314 -0.573588 0.739187 -0.352987 54 221 82
0.322864 0.244160 -0.089748 0.111917 -0.991310 0.069129 141 1 136
-0.397736 0.100904 -0.131948 0.943939 -0.192913 -0.267889 247 102 93
-0.209478 -0.230104 -0.641923 0.324046 0.865942 0.380969 168 237 176
-0.197756 0.270836 0.051296 0.387901 -0.887568 -0.248507 176 14 95
0.268598 -0.155699 -0.311333 0.618444 0.357848 0.699623 206 173 216
-0.258421 0.160454 0.204643 0.711604 -0.457688 -0.533049 218 69 59
0.601290 -0.032432 -0.271276 -0.963344 0.099516 -0.249128 4 140 95
-0.250542 0.146373 0.179579 0.839742 -0.468243 -0.274923 234 67 92
-0.085886 0.164098 -0.393729 -0.850158 -0.389035 -0.354801 19 77 82
-0.226346 0.298110 -0.299494 0.070579 -0.996840 0.036440 136 0 132
-0.059988 0.149512 -0.401546 -0.918120 -0.337381 -0.207917 10 84 100
0.525500 -0.222532 -0.519517 -0.455061 0.814657 0.359518 69 231 173
-0.386704 0.159746 -0.389845 0.822738 -0.568419 -0.001338 232 55 127
0.315314 -0.156540 -0.371700 0.905315 0.415537 0.087937 242 180 138
0.208221 -0.152748 0.148440 -0.014783 0.353429 -0.935345 125 172 8
0.382648 -0.107691 0.737510 -0.825962 0.236465 0.511733 22 157 192
0.386726 0.205252 -0.481921 0.811395 -0.584373 0.012124 230 52 129
0.444463 -0.259921 -0.364395 0.021804 0.998418 -0.051827 130 254 120
-0.077447 0.294010 0.262569 0.134696 -0.975926 -0.171538 144 3 105
0.034100 -0.183497 0.728094 0.760769 0.361121 -0.539280 224 173 58
0.366729 -0.200242 -0.718345 -0.416873 0.720819 0.553748 74 219 198
0.262641 0.181990 -0.430625 0.246082 -0.442341 -0.862426 158 71 17
-0.143847 -0.237276 0.301456 0.438348 0.814273 -0.380540 183 231 78
0.068140 -0.243753 0.616069 0.507446 0.845099 -0.168244 192 235 106
-0.421826 0.098509 -0.227800 0.977435 -0.183476 -0.104680 252 104 114
-0.189168 -0.247087 0.132709 0.419177 0.872531 -0.250957 180 238 95
0.532092 -0.100466 -0.095203 -0.832937 0.292572 -0.469700 21 164 67
-0.387150 -0.137725 -0.144520 0.936576 0.335712 -0.100613 246 170 114
-0.061821 0.079403 0.587624 0.859754 -0.214252 -0.463595 237 100 68
-0.137453 -0.056124 -0.855774 -0.030124 0.207001 0.977877 123 153 252
-0.211638 0.265268 -0.054276 0.409636 -0.896811 -0.167117 179 13 106
0.061794 -0.171439 0.293057 -0.692316 0.590953 0.414092 39 202 180
0.212249 -0.206754 -0.497712 0.123750 0.496698 -0.859056 143 190 17
-0.141466 -0.230010 0.306576 0.423265 0.804716 -0.416268 181 230 74
0.491984 -0.110650 -0.681686 -0.686962 0.190978 0.701150 39 151 216
0.431874 0.293234 -0.280810 0.037072 -0.983813 -0.175323 132 2 105
-0.234456 0.007696 -0.805725 0.463015 -0.168586 0.870170 186 106 238
0.075188 -0.089152 0.849217 0.855406 0.297709 -0.423851 236 165 73
-0.183865 0.049254 0.379604 0.932782 -0.103470 -0.345272 246 114 83
0.055280 0.006377 -0.842027 -0.008842 -0.016172 0.999830 126 125 254
-0.176771 -0.268206 -0.402704 -0.420029 0.906080 -0.050950 73 243 121
-0.301132 0.224658 -0.082871 0.677374 -0.720317 -0.149356 213 35 108
-0.058933 0.243846 0.438889 0.538632 -0.727976 -0.424178 196 34 73
0.322111 0.034108 1.085746 0.144122 -0.065898 -0.987363 145 119 1
-0.061460 0.252933 0.378558 0.521591 -0.794410 -0.311215 194 26 87
0.131895 -0.000139 0.353187 -0.895852 0.023466 0.443733 13 130 184
-0.426109 0.097514 -0.519091 0.973024 -0.159276 0.166898 251 107 148
0.161605 0.279442 -0.621840 -0.053738 -0.869654 -0.490728 120 16 64
0.234406 -0.056287 -0.801379 -0.142256 0.322242 0.935908 109 168 246
-0.055510 0.133048 -0.181642 -0.953619 -0.259042 0.153325 5 94 147
0.357738 -0.150617 -0.458178 0.411379 0.477827 -0.776176 179 188 28
0.211323 0.169074 -0.543533 0.142298 -0.538920 -0.830251 145 58 21
0.150943 -0.240980 0.739697 0.300393 0.947415 -0.110313 165 248 113
0.476904 0.122703 -0.055204 -0.746948 -0.447877 -0.491400 32 70 64
-0.215264 0.132919 -0.782333 0.401041 -0.377683 0.834579 178 79 233
0.037626 -0.146390 -0.812104 -0.073001 0.466480 0.881514 118 186 239
-0.189526 0.153153 -0.806067 0.212727 -0.475042 0.853863 154 66 236
-0.429550 -0.102623 -0.259984 0.959232 0.277579 -0.053136 249 162 120
0.509371 0.130070 -0.050064 -0.810130 -0.170764 -0.560829 24 105 55
0.283697 -0.240025 0.860129 -0.379317 0.916372 0.127985 79 244 143
-0.031972 -0.152519 -0.054618 -0.888601 0.392747 0.236933 14 177 157
-0.089705 -0.189877 0.498083 0.626212 0.570138 -0.531790 207 200 59
0.235951 -0.182767 -0.762138 -0.178515 0.501515 0.846531 104 191 235
0.274429 -0.200289 -0.200162 0.372247 0.784175 0.496489 174 227 190
-0.447961 -0.053902 -0.405901 0.997690 0.061340 -0.029187 254 135 123
0.222783 -0.228097 0.702072 -0.476827 0.863182 0.165989 66 237 148
0.335019 -0.254133 -0.159725 0.190612 0.973641 0.125263 151 251 143
-0.399248 -0.156830 -0.214322 0.883396 0.462061 -0.078178 240 186 117
-0.159456 -0.176799 -0.792977 0.222632 0.441598 0.869153 155 183 238
-0.160225 0.219095 0.262435 0.615551 -0.684051 -0.391370 205 40 77
0.318412 0.219613 0.728873 -0.651301 -0.671497 0.353411 44 41 172
0.361944 0.169532 0.721932 -0.706163 -0.461121 0.537310 37 68 196
0.454911 0.303906 -0.577902 -0.041827 -0.998293 -0.040760 122 0 122
-0.338004 -0.007983 -0.734476 0.723764 -0.006022 0.690022 219 126 215
0.281371 0.080567 1.057804 0.298244 -0.052298 -0.953056 165 120 5
0.051436 0.209425 0.689520 0.729104 -0.593598 -0.340659 220 51 84
0.454958 0.047356 1.070131 -0.877770 -0.049298 -0.476540 15 121 66
0.321913 0.245412 -0.255976 0.364557 -0.731318 0.576431 173 34 200
0.424270 -0.227563 -0.080746 -0.456715 0.823798 -0.335810 69 232 84
0.370858 -0.146320 0.105290 -0.469424 0.475930 -0.743728 67 188 32
0.053426 0.212076 -0.541304 -0.106410 -0.476436 -0.872746 113 66 16
-0.049210 0.285078 0.125914 -0.267922 -0.956119 0.118555 93 5 142
0.233323 -0.226345 0.887034 0.298964 0.953486 -0.038526 165 249 122
-0.296310 0.247962 -0.205230 0.552188 -0.827814 -0.099060 197 21 114
0.347559 -0.159022 0.096778 -0.365533 0.613648 -0.699872 80 205 38
0.362658 -0.114998 -0.783354 -0.447689 0.334184 0.829395 70 170 233
0.330707 -0.220539 0.829517 -0.675158 0.724362 0.139508 41 219 145
-0.225194 0.321902 -0.441942 -0.246332 -0.968739 0.029415 96 3 131
0.287413 0.054665 -0.793771 -0.309936 -0.066564 0.948424 87 119 248
-0.328478 0.273825 -0.308916 0.589668 -0.803306 -0.083608 202 25 116
0.096658 0.155669 -0.798901 -0.095295 -0.590314 0.801529 115 52 229
0.105554 -0.146401 0.337756 -0.750061 0.323349 0.576934 31 168 201
-0.301415 0.264213 -0.167998 0.590893 -0.792891 -0.148893 202 26 108
0.162926 -0.089058 0.406941 -0.766369 0.263440 0.585899 29 161 202
0.288979 -0.073552 -0.341828 0.557763 0.327154 0.762804 198 169 224
0.010108 -0.191205 0.217429 -0.726123 0.676818 -0.121090 34 213 112
0.346294 -0.022800 1.066066 -0.033134 0.064994 -0.997335 123 135 0
0.086860 0.228860 -0.787687 -0.117610 -0.900606 0.418421 112 12 180
0.204214 -0.199655 -0.456055 0.024907 0.776748 -0.629319 130 226 47
-0.191931 0.292420 -0.405632 -0.390500 -0.920176 -0.028032 77 10 123
0.120683 -0.198900 -0.553923 -0.003851 0.556223 -0.831024 127 198 21
0.173383 0.285937 -0.216557 -0.061495 -0.991294 0.116427 119 1 142
0.263517 -0.087179 1.053388 0.533059 0.376293 -0.757794 195 175 30
-0.173384 0.211320 -0.745967 0.103829 -0.645616 0.756571 140 45 223
0.329107 0.009980 -0.808387 -0.399858 -0.061274 0.914527 76 119 244
0.007100 0.191268 0.620915 0.705766 -0.529299 -0.470889 217 60 67
0.085768 0.240113 0.396407 -0.638606 -0.693569 0.333383 46 39 170
-0.235353 0.207963 -0.739525 0.390387 -0.699197 0.598934 177 38 203
-0.063821 0.040244 -0.386005 -0.862198 -0.108843 -0.494741 17 113 64
0.477633 -0.003040 -0.697411 -0.663804 -0.035998 0.747040 42 122 222
0.110716 0.271952 0.660599 0.407773 -0.854323 -0.322262 179 18 86
-0.333986 0.163299 -0.677560 0.743212 -0.490041 0.455518 222 65 185
0.365409 0.282206 -0.089086 -0.274925 -0.947702 -0.162103 92 6 106
0.218837 0.274507 0.743981 -0.151061 -0.985877 -0.072294 108 1 118
0.069433 0.012021 -0.841365 -0.099138 -0.049730 0.993830 114 121 254
0.407218 -0.234977 -0.356772 0.614879 0.783393 -0.090661 205 227 115
-0.190488 -0.235401 0.226999 0.626838 0.685145 -0.371012 207 214 80
0.161974 0.123747 -0.532935 0.076813 -0.223628 -0.971643 137 98 3
0.604415 0.049740 -0.308919 -0.990507 -0.084001 -0.108808 1 116 113
-0.101066 -0.195533 -0.776080 -0.096142 0.547630 0.831179 115 197 233
0.418516 0.217039 -0.697471 -0.493116 -0.677223 0.546082 64 41 197
0.085363 -0.166769 0.804157 0.842710 0.413156 -0.345168 234 180 83
-0.187340 -0.265191 0.114487 0.408947 0.875539 -0.257281 179 239 94
-0.060740 -0.017003 -0.293369 -0.964071 0.104048 -0.244422 4 140 96
-0.071823 0.290071 -0.563150 -0.155065 -0.887560 -0.433812 107 14 72
0.331569 0.013395 1.106558 0.018866 -0.010987 -0.999762 129 126 0
-0.034187 -0.243093 -0.555795 -0.225446 0.924938 -0.306045 98 245 88
-0.187513 -0.229521 0.268668 0.660989 0.626174 -0.413520 211 207 74
-0.170332 -0.252725 0.111512 0.335956 0.915382 -0.221830 170 244 99
-0.079297 -0.131985 -0.288417 -0.817484 0.265194 0.511266 23 161 192
0.156394 -0.210343 -0.525437 0.031343 0.517514 -0.855101 131 193 18
0.445382 -0.139608 0.987225 -0.813396 0.562983 -0.146413 23 199 108
0.354791 0.102886 1.087924 -0.133589 -0.173134 -0.975796 110 105 3
0.223927 -0.267393 -0.080426 0.123712 0.971385 -0.202747 143 251 101
-0.396993 0.151887 -0.250462 0.845215 -0.513049 -0.149640 235 62 108
-0.365359 -0.170724 -0.038157 0.774763 0.437602 -0.456341 226 183 69
0.146602 0.033877 0.967549 0.830410 -0.101104 -0.547903 233 114 57
0.460187 -0.050640 -0.743154 -0.606470 0.095050 0.789405 50 139 228
-0.079527 -0.208230 -0.102854 -0.650731 0.746839 0.137040 44 222 144
-0.014171 0.108187 0.661382 0.805779 -0.337572 -0.486585 230 84 65
-0.274937 -0.026834 0.224982 0.919120 -0.010241 -0.393845 244 126 77
-0.029784 -0.240170 -0.733121 -0.074199 0.793579 0.603926 118 228 204
0.282862 -0.065071 0.567020 -0.811995 0.195989 0.549774 23 152 197
0.317389 -0.147581 0.146017 -0.368837 0.412875 -0.832763 80 180 21
0.504798 0.093299 -0.660022 -0.647000 -0.230000 0.726974 45 98 220
-0.382244 0.060041 -0.012344 0.876684 -0.205227 -0.435094 239 101 72
0.377969 0.139084 0.725068 -0.810976 -0.344931 0.472590 24 83 187
-0.435954 -0.080577 -0.286894 0.949871 0.250897 -0.186538 248 159 103
0.079915 -0.196783 -0.525279 -0.085275 0.599980 -0.795457 116 203 26
-0.349928 0.157374 -0.654613 0.808473 -0.412804 0.419481 230 74 180
0.308050 -0.260860 -0.218013 0.207757 0.931637 0.298144 153 246 165
0.200125 -0.134410 -0.515618 0.147120 0.431042 -0.890257 146 182 13
-0.354019 -0.124322 0.039537 0.909955 0.246528 -0.333477 243 158 84
0.557398 -0.210962 -0.356321 -0.623263 0.781114 -0.037467 48 227 122
-0.402161 0.035879 -0.093441 0.911269 -0.161738 -0.378720 243 106 79
0.349589 -0.104302 0.720976 -0.747015 0.451094 0.488347 32 185 189
-0.314565 -0.244141 -0.534790 0.546237 0.831591 0.100405 197 233 140
-0.291112 0.074984 0.217039 0.864791 -0.187178 -0.465941 237 103 68
0.026924 -0.234099 -0.186946 -0.347700 0.776010 0.526226 83 226 194
0.209158 0.054404 0.456914 -0.755862 -0.246376 0.606607 31 96 204
0.517548 -0.076284 -0.677746 -0.662530 0.292765 0.689451 43 164 215
-0.034575 0.050888 -0.428059 -0.815667 -0.016258 -0.578293 23 125 53
-0.189361 0.299600 -0.620224 -0.093566 -0.982328 0.162101 115 2 148
0.167870 0.103623 0.964610 0.814240 -0.305633 -0.493560 231 88 64
0.388180 -0.099423 0.745123 -0.772126 0.380098 0.509261 29 175 192
-0.192049 0.090532 0.358983 0.821992 -0.320494 -0.470758 232 86 67
-0.063270 -0.178889 -0.469357 -0.661485 0.584783 -0.469537 43 202 67
-0.232188 0.264082 -0.705932 0.283861 -0.779627 0.558215 163 28 198
-0.129428 -0.285197 0.039631 -0.113828 0.992217 -0.050494 112 254 121
-0.049039 -0.253113 0.128791 -0.393794 0.911912 0.115515 77 243 142
-0.294609 -0.239123 -0.012987 0.662842 0.681142 -0.310945 212 214 87
0.314622 -0.145790 0.681270 -0.771876 0.452964 0.446130 29 185 184
-0.213358 -0.281198 -0.396017 0.011146 0.995772 -0.091179 128 254 115
0.152912 0.240994 0.540097 -0.672521 -0.735821 0.079266 41 33 137
0.228919 0.126546 0.520756 -0.793493 -0.363549 0.488059 26 81 189
0.015336 0.177069 0.691569 0.821208 -0.385758 -0.420487 232 78 73
-0.156660 0.258749 -0.348458 -0.610353 -0.788763 0.072953 49 26 136
-0.422548 0.012081 -0.582729 0.984810 -0.047114 0.167121 253 121 148
-0.127287 -0.246166 -0.475451 -0.410575 0.862482 -0.295894 75 237 89
-0.019471 -0.055018 -0.124463 -0.956976 0.146064 0.250724 5 146 159
-0.308619 0.262839 -0.207974 0.524000 -0.827445 -0.201888 194 22 101
0.007784 -0.136029 -0.487067 -0.201821 0.303598 -0.931180 101 166 8
0.262205 0.035813 -0.802722 -0.337611 -0.043091 0.940299 84 122 247
-0.441272 0.033721 -0.273537 0.997001 -0.004363 -0.077265 254 126 117
0.246447 0.230927 -0.223736 0.359314 -0.764453 0.535261 173 30 195
0.232142 0.097759 -0.290526 0.625627 -0.300458 0.719941 207 89 219
-0.040988 -0.130674 -0.348255 -0.628728 0.377932 0.679609 47 175 214
0.543992 -0.040705 -0.097367 -0.834305 0.238470 -0.497058 21 157 64
0.037167 0.126450 0.739615 0.836353 -0.352102 -0.420164 234 82 73
-0.411312 0.083654 -0.169116 0.948150 -0.224750 -0.224720 248 98 98
0.382058 -0.182648 0.852806 -0.756726 0.630005 0.174529 31 207 149
0.383150 -0.187314 -0.396094 0.713056 0.635539 0.296042 218 208 165
0.031061 -0.225818 0.394224 -0.551040 0.828050 0.103387 57 233 140
0.301374 -0.198411 -0.250387 0.336629 0.641263 0.689538 170 209 215
0.366358 -0.068429 -0.488868 0.520397 0.182519 -0.834191 193 150 21
0.359843 0.080217 1.102118 -0.091614 -0.152994 -0.983971 115 107 2
-0.224010 -0.131262 0.291872 0.851196 0.383777 -0.358023 236 176 81
0.498350 -0.113243 -0.659757 -0.718893 0.339583 0.606528 35 170 204
-0.068795 -0.187425 -0.481085 -0.572310 0.542302 -0.615118 54 196 49
0.124992 0.047829 0.934824 0.831737 -0.122452 -0.541497 233 111 58
-0.253372 -0.250280 -0.531751 0.281240 0.952140 0.119723 163 248 142
0.148951 0.123514 -0.386724 0.213676 -0.394469 -0.893721 154 77 13
-0.074994 -0.175408 0.533118 0.697790 0.490457 -0.522054 216 190 60
-0.060866 -0.250712 -0.579179 -0.315150 0.947061 -0.061284 87 248 119
0.278529 0.255741 0.953883 0.337937 -0.740141 -0.581369 170 33 53
-0.048262 0.242161 -0.562665 -0.146380 -0.636863 -0.756953 108 46 30
-0.192623 -0.012668 0.415573 0.826496 -0.051014 -0.560626 232 120 56
-0.043145 -0.129093 -0.796175 -0.068448 0.492435 0.867654 118 190 238
-0.429398 -0.001128 -0.559318 0.982039 0.048015 0.182466 252 133 150
-0.211155 -0.154566 0.298087 0.857730 0.449900 -0.248775 236 184 95
-0.045887 -0.135736 0.596061 0.881420 0.302005 -0.363169 239 166 81
0.139254 -0.024409 0.990166 0.861778 -0.008770 -0.507210 237 126 62
-0.135916 0.270921 -0.414461 -0.637849 -0.698373 -0.324689 46 38 86
-0.098979 -0.032700 -0.848166 0.164848 0.148409 0.975090 148 146 251
0.248147 0.165827 -0.251821 0.362066 -0.511439 0.779319 173 62 226
0.039709 -0.222071 -0.727791 -0.144214 0.720230 0.678581 109 219 214
0.270350 0.259480 -0.226585 0.121370 -0.792487 0.597690 142 26 203
-0.057686 -0.274411 0.181941 -0.204740 0.978788 -0.007518 101 252 126
-0.200998 0.036174 -0.809720 0.369593 -0.016812 0.929042 174 125 245
-0.181659 0.096949 0.384213 0.787868 -0.300466 -0.537573 227 89 58
0.081125 0.048293 0.889913 0.852028 -0.036251 -0.522239 236 122 60
-0.398329 -0.031364 -0.652129 0.908551 -0.014702 0.417516 243 125 180
-0.278734 0.206899 0.052208 0.791879 -0.576943 -0.200160 228 53 101
0.388407 -0.193321 0.890468 -0.702575 0.642930 0.305009 37 209 166
-0.086789 -0.228271 -0.153875 -0.789961 0.599009 -0.130957 26 203 110
-0.166429 -0.271866 -0.247777 -0.270103 0.959685 -0.077777 93 249 117
0.497886 0.213263 -0.169339 -0.649115 -0.665376 -0.368680 44 42 80
-0.366507 -0.117767 -0.673878 0.813589 0.256190 0.521958 231 160 194
0.074186 0.166752 0.749261 0.776282 -0.488099 -0.398931 226 65 76
0.069647 -0.151361 0.758694 0.788927 0.495367 -0.363601 228 190 81
0.287318 -0.251053 -0.007584 -0.070189 0.994399 -0.079023 118 254 117
0.512845 0.297993 -0.439243 -0.421771 -0.906153 0.031573 73 11 131
0.337970 0.259692 -0.285353 0.344511 -0.843640 0.411806 171 19 180
0.327138 -0.249441 -0.222150 0.212159 0.868962 0.447095 154 238 184
-0.032657 -0.280366 0.261562 -0.383336 0.921186 -0.066865 78 244 118
0.370603 0.293458 -0.578687 -0.026673 -0.982421 0.184762 124 2 151
-0.079375 -0.276592 -0.070907 -0.219437 0.970340 0.101425 99 251 140
0.190490 0.291897 0.758677 0.260364 -0.961786 -0.084728 160 4 116
-0.272480 -0.064955 0.248642 0.847231 0.146196 -0.510712 235 146 62
0.533697 -0.224672 -0.281409 -0.669123 0.728574 -0.146469 42 220 108
-0.376506 -0.083912 -0.656600 0.847460 0.178338 0.500008 235 150 191
-0.030492 0.248863 0.101584 -0.586888 -0.772881 0.241283 52 28 158
0.447848 0.181354 -0.678464 -0.547168 -0.491239 0.677711 57 64 213
0.639090 0.045832 -0.424915 -0.992856 0.094874 -0.072363 0 139 118
0.119389 0.248235 0.719385 0.613588 -0.753934 -0.234721 205 31 97
0.445103 -0.002381 -0.747358 -0.563039 0.015130 0.826292 55 129 232
-0.029705 0.176181 -0.029372 -0.891917 -0.432910 0.130663 13 72 144
0.569294 0.172588 -0.550528 -0.723384 -0.462703 0.512467 35 68 192
-0.385645 0.158629 -0.168353 0.862382 -0.459455 -0.212601 237 68 100
-0.150576 0.018169 0.476628 0.852076 -0.087547 -0.516044 236 116 61
-0.150924 0.299275 -0.230891 -0.185286 -0.982516 0.018215 103 2 129
0.511270 -0.049029 -0.661427 -0.651125 0.092047 0.753368 44 139 223
0.443309 0.281714 -0.334167 0.024500 -0.994941 0.097424 130 0 139
-0.055450 -0.145527 -0.794067 -0.024608 0.479632 0.877125 124 188 239
-0.235324 0.316244 -0.430379 -0.189031 -0.949755 -0.249466 103 6 95
-0.429729 -0.112196 -0.272632 0.961103 0.258597 -0.096997 250 160 115
0.237605 -0.223477 -0.185919 0.342937 0.699147 0.627365 171 216 207
0.224798 0.282943 -0.195915 0.177158 -0.956925 0.230019 150 5 156
-0.287431 -0.228301 -0.644625 0.535627 0.726385 0.430661 195 220 182
0.309167 0.122605 0.628662 -0.748020 -0.408414 0.523129 32 75 194
0.212592 -0.226789 0.915978 0.329355 0.909628 -0.253184 169 243 95
-0.029265 -0.259699 0.199578 -0.465642 0.884905 0.011034 68 240 128
0.320306 -0.144183 -0.390594 0.965729 0.238693 0.101948 250 157 140
0.525720 0.168588 -0.634167 -0.702260 -0.374973 0.605166 37 79 204
-0.050215 0.039767 -0.381276 -0.924793 -0.147520 -0.350706 9 108 82
-0.313935 0.114732 0.088307 0.897281 -0.342515 -0.278513 241 83 91
-0.210759 0.300798 -0.553479 -0.092165 -0.967528 0.235362 115 4 157
0.090525 -0.027187 0.909152 0.802598 -0.010676 -0.596425 229 126 51
0.242622 -0.012211 1.080538 0.637248 -0.037440 -0.769749 208 122 29
0.430891 -0.166354 0.893662 -0.756242 0.544327 0.363051 31 196 173
-0.328942 0.210225 -0.068985 0.703923 -0.621129 -0.344516 217 48 83
0.173437 0.318055 -0.709529 -0.101289 -0.984909 0.140340 114 1 145
0.357945 0.032220 1.080841 0.007883 -0.037428 -0.999268 128 122 0
0.322929 0.028766 0.590704 -0.770864 -0.066163 0.633554 29 119 208
0.027595 -0.230310 -0.714471 -0.079289 0.799412 0.595528 117 229 203
-0.069984 0.290245 -0.601032 -0.229716 -0.965638 -0.121546 98 4 112
0.335819 -0.132564 -0.422670 0.471378 0.417206 -0.777008 187 180 28
0.209020 -0.071009 0.475738 -0.780348 0.230666 0.581248 28 156 201
0.003171 0.308031 -0.642293 -0.123241 -0.988468 -0.087992 111 1 116
0.331806 -0.255795 -0.014897 -0.142035 0.968418 -0.204920 109 250 101
0.437647 0.020130 0.939101 -0.972925 -0.037189 -0.228110 3 122 98
0.174348 -0.129427 1.006309 0.785787 0.341376 -0.515753 227 171 61
-0.018136 -0.174595 0.612407 0.745696 0.559293 -0.362116 222 198 81
0.153185 0.153496 0.925383 0.815767 -0.359240 -0.453290 231 81 69
-0.385390 0.186551 -0.257515 0.872759 -0.465493 -0.146998 238 68 108
0.522494 0.135511 -0.628549 -0.620546 -0.360205 0.696545 48 81 216
-0.352532 0.153018 -0.629306 0.747719 -0.542186 0.383341 222 58 176
0.389149 0.156303 0.783263 -0.774635 -0.506253 0.379011 28 62 175
0.553717 0.121570 -0.159569 -0.907375 -0.229602 -0.352072 11 98 82
-0.408736 -0.060873 -0.129508 0.970794 0.106779 -0.214844 251 141 100
0.012445 0.264677 -0.588394 -0.147021 -0.676202 -0.721898 108 41 35
0.509000 0.122667 -0.032278 -0.801721 -0.091860 -0.590597 25 115 52
0.350252 0.043016 1.104302 -0.077866 -0.141199 -0.986914 117 109 1
0.357837 -0.093605 0.686270 -0.837814 0.203552 0.506591 20 153 192
0.104222 0.211286 0.374098 -0.690720 -0.521787 0.500645 39 60 191
0.488090 -0.089469 1.029418 -0.945400 0.288828 -0.150989 6 164 108
0.417425 0.310882 -0.580853 -0.085695 -0.996299 -0.006658 116 0 126
0.143169 -0.146056 -0.802036 -0.155027 0.344361 0.925950 107 171 245
-0.366330 -0.003088 0.037988 0.950543 -0.036593 -0.308431 248 122 88
0.359592 -0.126762 0.143717 -0.529039 0.178973 -0.829510 60 150 21
0.316923 0.208458 1.014476 0.139442 -0.632062 -0.762269 145 46 30
0.347074 0.181370 0.714413 -0.721294 -0.495122 0.484344 35 64 189
-0.210832 -0.001072 0.396925 0.747531 0.077810 -0.659653 222 137 43
-0.199370 0.004314 0.400890 0.826083 -0.000915 -0.563547 232 127 55
0.077875 -0.049676 0.876868 0.884897 0.281284 -0.371264 240 163 80
-0.417637 0.042896 -0.168558 0.951048 -0.177895 -0.252709 248 104 95
0.243366 -0.241137 0.732480 -0.504881 0.834422 0.220985 63 233 155
-0.123203 -0.031310 0.515588 0.816849 0.111644 -0.565945 231 141 55
0.479389 -0.094838 1.006536 -0.869133 0.451151 -0.202658 16 185 101
0.483391 -0.060895 -0.710664 -0.681616 0.164764 0.712918 40 148 218
-0.335070 0.210459 -0.019033 0.777149 -0.503261 -0.377846 226 63 79
-0.389022 -0.155531 -0.190589 0.838954 0.508054 -0.195035 234 192 102
0.626603 -0.060609 -0.480895 -0.968890 0.186535 0.162659 3 151 148
0.321946 0.267933 0.833050 -0.290394 -0.948731 0.124823 90 6 143
0.258078 0.004141 -0.789525 -0.271733 0.123137 0.954462 92 143 249
-0.344296 -0.214327 -0.139288 0.728007 0.668137 -0.153620 220 212 107
0.504438 0.014733 -0.692645 -0.741294 -0.189301 0.643932 32 103 209
0.423789 0.194978 0.008421 -0.634942 -0.536187 -0.556195 46 59 56
-0.379144 -0.089965 -0.023362 0.903347 0.247643 -0.350195 242 159 82
0.279874 0.248556 -0.727726 -0.255870 -0.829881 0.495810 94 21 190
-0.099131 0.283618 -0.548404 -0.371534 -0.786859 -0.492764 80 27 64
0.157903 -0.185870 0.891775 0.512534 0.653239 -0.557304 192 210 56
-0.324033 0.022422 -0.743909 0.702028 -0.101763 0.704841 217 114 217
0.017940 -0.170457 0.646939 0.765781 0.523559 -0.373450 225 194 79
-0.333788 0.054330 0.075939 0.921914 -0.202015 -0.330552 245 101 85
0.400551 0.040611 1.036867 0.017101 -0.182802 -0.983001 129 104 2
0.321739 -0.087560 -0.422508 0.915931 0.323154 0.237997 244 168 157
-0.201402 0.184210 -0.761784 0.363384 -0.689599 0.626422 173 39 207
-0.320769 -0.055917 -0.748055 0.702446 0.112094 0.702854 217 141 217
-0.356635 -0.150066 -0.008638 0.876423 0.354032 -0.326409 239 172 85
0.473316 -0.186105 -0.607525 -0.466134 0.728518 0.501976 68 220 191
0.511735 0.139506 -0.651748 -0.615238 -0.451750 0.646068 49 69 209
0.177468 0.297806 0.679590 -0.143928 -0.988641 0.043286 109 1 133
-0.006076 -0.239301 0.585112 0.686008 0.595370 -0.418244 214 203 74
0.192922 -0.003097 -0.812332 -0.306916 -0.020531 0.951515 88 124 248
0.406442 -0.038598 1.085954 -0.268385 0.387794 -0.881808 93 176 15
-0.271052 0.046193 0.231518 0.889917 -0.232136 -0.392632 240 97 77
-0.298015 0.085903 0.193007 0.851885 -0.203561 -0.482550 236 101 65
0.300454 -0.102234 1.053589 0.254765 0.562142 -0.786823 159 199 27
0.278654 0.071321 -0.340999 0.617490 -0.326588 0.715575 206 85 218
-0.062414 0.107627 -0.331342 -0.769269 -0.209307 0.603669 29 100 204
0.133636 0.206418 0.802408 0.694606 -0.627946 -0.351008 216 47 82
-0.030430 -0.188092 -0.517903 -0.539552 0.633728 -0.554322 58 208 56
0.394127 -0.168106 0.985471 -0.584675 0.757602 -0.290163 52 224 90
0.550790 -0.174728 -0.247699 -0.716061 0.651745 -0.249969 36 210 95
-0.423199 -0.091710 -0.526933 0.940972 0.306011 0.144669 247 166 145
-0.020200 -0.049368 -0.097413 -0.960517 0.159516 0.227949 5 147 156
-0.290622 -0.246803 -0.440928 0.418245 0.906611 0.055930 180 243 134
0.137977 0.286536 0.555676 -0.306453 -0.937018 0.167582 88 8 148
-0.446078 -0.003139 -0.327417 0.999532 -0.010470 -0.028737 254 126 123
0.330681 -0.216527 0.924549 -0.304852 0.946210 0.108406 88 248 141
0.338585 -0.178693 0.757564 -0.686648 0.620522 0.378770 39 206 175
0.295045 0.295344 -0.047395 -0.171178 -0.962277 -0.211475 105 4 100
0.345894 -0.157178 -0.435025 0.919312 0.393497 0.004996 244 177 128
-0.327967 0.068646 0.102788 0.898809 -0.208559 -0.385545 242 100 78
-0.101642 -0.293836 0.082040 -0.171780 0.985096 0.008810 105 253 128
0.341025 -0.209742 0.067259 -0.208881 0.765121 -0.609064 100 225 49
-0.078476 -0.158840 -0.380365 -0.725007 0.495788 -0.478078 35 190 66
0.083578 0.258149 0.635945 0.540595 -0.787811 -0.295146 196 27 89
0.063880 -0.150065 0.253723 -0.854186 0.375681 0.359487 18 175 173
0.444163 -0.016871 0.083956 -0.625673 0.150815 -0.765368 47 146 29
-0.113709 0.271548 0.233297 0.374160 -0.886160 -0.273358 175 14 92
-0.201992 0.304580 -0.472000 -0.228333 -0.967963 0.104464 98 4 140
-0.061618 0.291835 -0.581461 -0.357292 -0.826867 -0.434320 81 22 72
0.437601 0.292123 -0.571623 -0.165745 -0.974464 0.151488 106 3 146
0.602492 -0.051783 -0.257638 -0.927887 0.230708 -0.292916 9 156 90
0.389576 0.295802 -0.650354 0.216795 -0.973944 -0.066576 155 3 119
0.186490 0.138971 -0.821981 -0.238433 -0.393906 0.887687 97 77 240
0.361552 0.223883 0.816868 -0.619545 -0.695707 0.363532 48 38 173
0.195382 -0.145535 -0.721332 -0.096236 0.442951 0.891366 115 183 241
0.563122 0.206876 -0.342095 -0.783487 -0.615767 -0.083537 27 48 116
0.162193 -0.077145 1.016571 0.795941 0.198083 -0.572049 228 152 54
0.448435 -0.237930 -0.649354 -0.158504 0.985320 0.063417 107 253 135
-0.070109 -0.183345 -0.462330 -0.651142 0.591409 -0.475657 44 202 66
-0.424876 -0.030723 -0.567731 0.987216 0.066428 0.144883 253 135 145
0.290902 0.278912 -0.480751 0.012171 -0.905705 -0.423734 129 12 73
-0.244442 0.303989 -0.540851 0.166830 -0.982050 0.088009 148 2 138
0.353117 0.173988 0.079789 -0.466897 -0.550606 -0.691983 67 57 39
-0.051784 0.271188 0.134690 -0.512326 -0.857993 0.037025 62 18 132
0.469224 -0.161446 -0.678723 -0.604266 0.533786 0.591553 50 195 202
0.424804 -0.059737 -0.744795 -0.533653 0.264638 0.803232 59 161 229
0.043498 -0.249811 0.532625 0.320009 0.933903 -0.159437 168 246 107
0.042418 0.166617 -0.534716 -0.049748 -0.398535 -0.915803 121 76 10
-0.097603 0.188138 -0.337355 -0.767100 -0.381124 -0.516045 29 78 61
0.369228 0.061627 0.137989 -0.499687 -0.202589 -0.842182 63 101 20
-0.342446 -0.231697 -0.109277 0.692656 0.640345 -0.331942 215 209 85
-0.054019 0.230587 0.016498 -0.702685 -0.704768 0.097655 37 37 139
0.342870 0.162783 -0.374580 0.655908 -0.514591 0.552251 211 61 197
0.023223 -0.256188 0.385329 -0.563637 0.807641 0.173292 55 230 149
0.016716 -0.047822 0.016542 -0.978721 0.149970 0.140048 2 146 145
0.224877 -0.070983 -0.471296 0.241780 0.162499 -0.956628 158 148 5
-0.098919 -0.163193 -0.350038 -0.730099 0.670757 0.130539 34 213 144
0.330148 0.175507 -0.357350 0.476057 -0.505903 0.719327 188 62 219
-0.138804 0.275880 -0.222694 -0.529577 -0.836981 0.137878 59 20 145
-0.204015 -0.009345 0.378487 0.801840 0.040115 -0.596191 229 132 51
0.079047 0.058065 0.236549 -0.848878 -0.135940 0.510809 19 110 192
0.233896 -0.244107 0.074475 0.103926 0.653805 -0.749492 140 210 31
0.250154 0.029213 -0.369829 0.244110 -0.148870 -0.958253 158 108 5
-0.181126 0.113410 0.378950 0.774154 -0.377711 -0.507956 226 79 62
0.152917 -0.095270 -0.341280 0.199842 0.316449 -0.927321 152 167 9
0.363791 -0.241143 -0.658900 -0.134349 0.990727 -0.020251 110 253 124
0.274029 0.051484 0.550161 -0.821125 -0.067557 0.566736 22 118 199
0.352240 0.214136 1.009603 0.043651 -0.702746 -0.710101 133 37 36
0.283422 -0.219985 -0.576117 0.026873 0.806592 -0.590497 130 230 52
0.347683 -0.235808 -0.253514 0.343980 0.825873 0.446780 171 232 184
-0.342646 0.235847 -0.467580 0.656003 -0.752072 0.063624 211 31 135
0.523667 -0.072363 -0.669267 -0.788255 0.236481 0.568095 26 157 199
0.143301 0.006686 0.366236 -0.857398 0.025187 0.514037 18 130 193
-0.174767 -0.139233 0.413596 0.829112 0.306355 -0.467675 233 166 67
0.357782 -0.028436 1.089385 -0.064029 0.085733 -0.994259 119 138 0
-0.018882 0.279780 0.312729 -0.166376 -0.986052 -0.004500 106 1 126
0.077444 -0.079752 -0.453278 -0.969691 0.089376 -0.227401 3 138 98
0.425944 0.073605 0.080384 -0.661487 -0.188579 -0.725860 43 103 34
0.087416 0.025470 0.249673 -0.848314 -0.044652 0.527608 19 121 194
0.361771 0.068827 1.105673 -0.059890 -0.129516 -0.989767 119 110 1
-0.009762 -0.229454 -0.545249 -0.083999 0.679549 -0.728806 116 214 34
0.429354 0.187440 0.897094 -0.818161 -0.492646 0.296499 23 64 165
-0.413163 -0.143175 -0.303261 0.912782 0.406141 -0.043338 243 179 121
0.383470 0.070037 0.724940 -0.851594 -0.246225 0.462775 18 96 186
0.376287 0.248276 -0.311778 0.230759 -0.861051 0.453147 156 17 185
0.253835 -0.258485 -0.137133 0.283284 0.899944 0.331438 163 242 169
-0.259686 0.193604 -0.717819 0.449151 -0.763282 0.464395 184 30 186
-0.116490 0.263379 -0.228807 -0.497211 -0.842347 0.207925 64 20 154
-0.057103 -0.189081 -0.510348 -0.708415 0.590827 -0.386098 37 202 78
0.354250 -0.165943 -0.531330 0.879568 0.444114 -0.170653 239 184 105
0.165053 0.280204 -0.612207 -0.019536 -0.729910 -0.683264 125 34 40
0.135876 0.044352 0.351205 -0.835428 -0.179993 0.519291 20 104 193
0.451829 -0.173222 -0.000400 -0.727092 0.430879 -0.534491 34 182 59
-0.057658 -0.142427 -0.455858 -0.676773 0.410968 -0.610806 41 179 49
0.445375 0.294308 -0.377101 -0.139522 -0.989638 0.033907 109 1 131
0.379292 -0.089332 0.741563 -0.883800 0.188538 0.428194 14 151 182
-0.249746 -0.120630 -0.756011 0.531529 0.478217 0.699132 195 188 216
0.479014 -0.052690 -0.700324 -0.765459 0.223638 0.603373 29 156 204
-0.090115 0.245578 -0.505887 -0.444649 -0.705607 -0.551730 70 37 57
0.527117 -0.258104 -0.512180 -0.156437 0.985165 0.070555 107 253 136
0.272095 0.282879 0.778463 -0.303510 -0.948576 0.089923 88 6 138
0.300678 -0.188348 0.703031 -0.693413 0.567496 0.443989 39 199 184
0.184431 -0.231486 -0.759149 -0.145543 0.496142 0.855956 108 190 236
0.318797 0.262464 0.046316 -0.315424 -0.770222 -0.554315 87 29 56
-0.182426 0.296783 -0.498639 -0.320604 -0.944058 -0.077252 86 7 117
-0.045933 -0.037038 -0.390001 -0.983515 0.067785 -0.167642 2 136 106
0.134876 0.230368 0.766251 0.608361 -0.759364 -0.230787 205 30 98
0.460341 -0.138477 -0.707719 -0.613088 0.433950 0.660159 49 182 211
0.472120 0.067763 0.913719 -0.902210 -0.113668 0.416049 12 113 180
0.582299 0.172742 -0.404557 -0.864683 -0.502170 0.012153 17 63 129
0.013052 0.182342 0.613458 0.798626 -0.531621 -0.282090 229 59 91
0.623533 0.021281 -0.449640 -0.987960 -0.036328 0.150386 1 122 146
0.331373 -0.093631 -0.469994 0.946525 0.322130 -0.017972 248 168 125
-0.133873 -0.233877 -0.244316 -0.675030 0.737677 0.012963 41 221 129
-0.179427 -0.270883 -0.224675 -0.291986 0.956133 0.023554 90 249 130
0.444411 -0.188470 -0.017925 -0.496942 0.689546 -0.526854 64 215 60
0.507272 0.088952 -0.688078 -0.726290 -0.201003 0.657343 34 101 211
0.125720 -0.125098 0.923178 0.820589 0.334133 -0.463669 232 170 68
0.407768 0.067737 1.103621 -0.361011 -0.258204 -0.896103 81 94 13
0.335700 0.267677 0.913774 -0.241396 -0.960979 -0.135085 96 4 110
0.039864 -0.221410 -0.596145 -0.106345 0.865100 -0.490197 113 237 64
-0.086385 0.105402 -0.370134 -0.801064 -0.271011 -0.533713 25 92 59
-0.225095 -0.253435 -0.597639 0.277482 0.912335 0.301080 162 243 165
0.043230 -0.103029 0.785053 0.879691 0.189007 -0.436372 239 151 71
0.356544 -0.134697 0.727070 -0.794549 0.413392 0.444745 26 180 184
0.113828 -0.253912 0.588900 -0.244358 0.957972 0.150262 96 249 146
-0.222388 0.065974 -0.783952 0.473515 -0.253872 0.843405 187 95 235
0.009928 -0.095245 0.741647 0.877389 0.288350 -0.383461 239 164 78
0.338315 -0.223968 0.949568 -0.217127 0.976138 -0.003267 99 251 127
-0.005554 0.194012 -0.510330 -0.254969 -0.404716 -0.878178 94 75 15
0.269920 0.040658 1.066929 0.481326 -0.262722 -0.836243 188 94 20
0.291708 0.078890 -0.347166 0.600332 -0.192571 0.776221 204 102 226
0.051769 -0.004348 0.829475 0.885625 0.098794 -0.453771 240 140 69
0.342789 0.216991 -0.729247 -0.371005 -0.608796 0.701230 80 49 216
-0.169509 0.161730 0.329015 0.784018 -0.502016 -0.365098 227 63 80
0.011208 0.235488 -0.473223 -0.185642 -0.715639 -0.673348 103 36 41
-0.377024 -0.212485 -0.383010 0.758816 0.650869 -0.023821 224 210 124
-0.087211 -0.230854 -0.534909 -0.316892 0.830868 -0.457425 87 233 69
0.367792 0.297708 -0.678146 -0.155259 -0.982549 0.102436 107 2 140
0.247020 -0.133299 0.574973 -0.758270 0.385359 0.525856 30 176 194
0.421123 -0.207235 -0.286604 -0.610729 0.731511 -0.303154 49 220 88
-0.103622 -0.247014 -0.258462 -0.264547 0.960689 0.084213 93 249 138
0.357761 -0.008178 1.119633 -0.014325 0.093680 -0.995499 125 139 0
-0.186507 -0.285392 -0.079370 -0.001646 0.998825 -0.048433 127 254 121
-0.103377 0.223117 -0.201106 -0.637338 -0.728588 0.250919 46 34 159
-0.100340 -0.195865 -0.385569 -0.713878 0.637667 -0.289411 36 208 90
-0.439073 0.042096 -0.361625 0.984068 -0.175495 -0.028496 252 105 123
-0.036694 -0.076638 -0.367079 -0.928332 0.212779 -0.304836 9 154 88
0.410082 -0.231882 -0.353876 0.058851 0.970594 0.233420 135 251 157
-0.268508 0.103012 -0.773040 0.538167 -0.274713 0.796812 196 92 229
0.354918 0.085016 -0.555466 0.966940 -0.247121 -0.062915 250 95 119
0.393113 0.170659 0.085671 -0.602351 -0.365084 -0.709850 50 80 36
0.175996 -0.240143 -0.584207 -0.009126 0.778381 -0.627725 126 226 47
0.505432 0.271611 -0.227240 -0.636528 -0.721621 -0.272206 46 35 92
-0.217291 -0.004643 0.369463 0.834980 -0.060959 -0.546893 233 119 57
-0.245429 -0.120058 -0.773060 0.371606 0.393875 0.840697 174 177 234
-0.060608 -0.255909 0.361989 0.397865 0.834102 -0.382071 178 233 78
-0.114135 -0.208663 -0.309646 -0.692019 0.714638 -0.101997 39 218 114
-0.195967 -0.272608 -0.103422 0.066256 0.957454 -0.280876 135 249 91
0.499411 0.033216 -0.697466 -0.670212 -0.014868 0.742021 42 125 222
0.118991 -0.096962 0.375521 -0.892312 0.266512 0.364350 13 161 173
-0.400670 -0.091362 -0.105863 0.867708 0.316260 -0.383487 238 167 78
-0.029643 0.300197 0.345275 -0.030606 -0.997253 -0.067450 123 0 118
0.404317 -0.128494 0.813542 -0.807732 0.418836 0.414903 24 180 180
0.221637 -0.028925 -0.496450 0.141978 0.076142 -0.986937 145 137 1
0.331952 -0.063419 1.097623 0.014692 0.223332 -0.974632 129 155 3
-0.083427 -0.263905 -0.039356 -0.692557 0.705145 0.152101 39 217 146
-0.378542 0.064376 -0.010299 0.922093 -0.187737 -0.338378 245 103 84
-0.015797 0.088623 0.661934 0.928207 -0.215403 -0.303371 245 100 88
-0.405009 -0.020358 -0.095914 0.986740 -0.008559 -0.162083 253 126 106
0.064368 0.052854 -0.474092 -0.172791 -0.112315 -0.978534 105 113 2
0.091620 -0.048486 0.301874 -0.949393 0.180006 0.257392 6 150 160
0.046285 -0.189447 0.273049 -0.776626 0.507356 0.373420 28 192 175
0.066572 -0.014420 0.867467 0.852159 0.005331 -0.523256 236 128 60
-0.369893 0.198198 -0.263121 0.801035 -0.584251 -0.130361 229 53 110
0.347519 -0.128171 -0.370805 0.750677 0.576739 0.322266 223 201 168
0.355755 0.216873 0.799406 -0.589222 -0.722810 0.361059 52 35 173
0.491700 -0.015576 -0.001451 -0.759953 0.038105 -0.648860 30 132 44
0.213436 -0.280676 -0.137083 0.164053 0.957865 0.235757 148 249 157
0.161161 0.254913 0.755124 0.548135 -0.823823 -0.144444 197 22 109
-0.150020 0.255155 -0.234946 -0.613973 -0.783469 -0.095986 49 27 115
-0.398671 -0.047936 -0.634495 0.939938 0.117017 0.320662 247 142 168
-0.059247 0.294602 -0.206665 -0.105040 -0.935741 0.336683 114 8 170
-0.031693 0.031508 -0.347795 -0.919222 0.026620 -0.392838 10 130 77
-0.035066 -0.088717 -0.122123 -0.900239 0.291421 0.323486 12 164 168
0.228738 -0.269965 -0.033991 0.109975 0.982054 -0.153218 141 252 107
0.316575 0.302048 -0.527279 0.044953 -0.894479 -0.444845 133 13 70
-0.248079 -0.250132 -0.586112 0.315127 0.929784 0.190254 167 246 151
0.184629 -0.152869 -0.514853 -0.040586 0.286945 -0.957087 122 164 5
0.112758 0.288100 0.619947 0.225943 -0.969491 -0.095059 156 3 115
0.077511 0.072416 -0.494900 0.021518 -0.121360 -0.992375 130 112 0
0.402225 0.291544 -0.291713 0.128209 -0.990466 0.050388 143 1 133
0.425216 0.246247 -0.080770 -0.435800 -0.818232 -0.374933 71 23 79
-0.016720 -0.240200 0.187057 -0.582301 0.774473 0.247217 53 226 159
0.152376 -0.197006 0.502372 -0.585361 0.681151 0.439758 52 214 183
0.189370 0.105422 0.996505 0.797244 -0.303391 -0.521877 229 88 60
-0.033296 -0.180126 -0.788541 -0.010986 0.493833 0.869488 126 190 238
-0.103916 -0.277174 0.030272 -0.226540 0.972803 0.048313 98 251 133
0.483240 0.097422 -0.687212 -0.724513 -0.217865 0.653923 35 99 210
0.155129 0.024392 0.382507 -0.842222 -0.081211 0.532979 20 117 195
0.117737 -0.236389 0.516738 -0.410317 0.864117 0.291447 75 237 164
-0.191313 0.136326 -0.786228 0.274093 -0.541160 0.794996 162 58 228
-0.378498 0.020084 0.026081 0.860187 -0.104034 -0.499256 237 114 63
-0.203850 0.092292 0.374415 0.824749 -0.179446 -0.536272 232 104 59
0.382705 0.068787 0.713126 -0.847644 -0.023709 0.530036 19 124 195
0.400662 0.284786 -0.155914 -0.278550 -0.948839 -0.148711 91 6 108
-0.038713 0.128508 -0.465337 -0.740863 -0.256587 -0.620713 33 94 48
0.613898 -0.076586 -0.347768 -0.946811 0.306552 -0.097851 6 166 115
0.320565 -0.125244 0.654954 -0.766766 0.369467 0.524942 29 174 194
0.224103 -0.083246 1.044205 0.668403 0.211591 -0.713068 212 154 36
-0.402204 -0.176338 -0.491231 0.881478 0.460811 0.103200 239 186 140
0.301062 -0.210786 -0.738517 -0.150129 0.620958 0.769333 108 206 225
0.025291 0.241554 0.333720 -0.646604 -0.762778 -0.008622 45 30 126
0.096319 -0.043312 -0.829962 -0.082758 0.165644 0.982707 116 148 252
0.279888 0.018963 -0.740294 -0.120012 0.019735 0.992576 112 130 254
0.568324 0.221863 -0.352491 -0.795915 -0.600282 -0.078610 26 50 117
-0.306746 0.258574 -0.147717 0.634654 -0.755456 -0.162792 208 31 106
-0.185924 0.012868 -0.815965 0.404250 -0.055680 0.912952 179 120 243
0.262624 0.271019 -0.603903 0.095662 -0.704762 -0.702965 139 37 37
0.263768 -0.219199 0.941116 0.158781 0.929673 -0.332412 147 246 85
0.345270 -0.205160 -0.218297 0.432538 0.887994 0.156136 182 240 147
0.024182 -0.101091 0.101764 -0.825389 0.309238 0.472339 22 166 187
0.424394 -0.240884 -0.095112 -0.336208 0.919084 -0.205544 84 244 101
0.374841 -0.117347 -0.508805 0.710414 0.306755 -0.633414 218 166 46
-0.141750 0.080368 -0.820714 0.396850 -0.355994 0.846037 178 82 235
-0.281330 0.203212 -0.712735 0.558148 -0.692562 0.456977 198 39 185
0.185531 0.071913 0.452273 -0.836431 -0.189171 0.514390 20 103 193
0.294623 0.136676 -0.525991 0.429742 -0.299841 -0.851714 182 89 18
0.234581 -0.237791 -0.133345 0.277445 0.928655 0.246221 162 245 158
-0.007883 -0.248054 -0.574225 -0.181080 0.956704 -0.227875 104 249 98
-0.095489 -0.241854 -0.655673 -0.194142 0.893448 0.405042 102 241 179
-0.040468 -0.261438 0.169401 -0.507220 0.827522 0.240698 62 233 158
0.482354 0.091032 0.019736 -0.736525 -0.160023 -0.657209 33 107 43
0.332484 0.167339 0.686992 -0.755952 -0.460106 0.465660 31 68 186
0.163282 -0.171178 0.928340 0.716194 0.484583 -0.502240 218 189 63
0.432424 0.183881 0.006204 -0.638947 -0.506829 -0.578680 46 62 53
0.043922 -0.186579 -0.770918 -0.101783 0.582570 0.806383 114 201 230
0.533162 0.266433 -0.400043 -0.485964 -0.873963 -0.005320 65 16 126
-0.328672 0.213208 -0.592408 0.632665 -0.748928 0.197084 208 32 152
0.176682 -0.150523 0.918940 0.583834 0.527723 -0.616966 201 194 48
0.113431 -0.236491 -0.693163 -0.207926 0.864201 0.458174 100 237 185
0.422034 0.235222 0.930995 -0.715559 -0.698059 0.026255 36 38 130
-0.195779 0.066531 0.381595 0.883948 -0.052865 -0.464587 240 120 68
-0.399163 -0.171996 -0.226746 0.911185 0.402406 -0.088385 243 178 116
0.496536 -0.052406 0.979604 -0.990032 0.136016 0.036558 1 144 132
0.102978 -0.089704 -0.272318 0.026832 0.068604 -0.997283 130 136 0
-0.003053 0.113952 -0.510725 -0.918087 -0.188197 -0.348852 10 103 83
0.396429 0.215264 0.851348 -0.669860 -0.648396 0.361759 42 44 173
-0.334082 -0.000899 -0.753254 0.680362 -0.004238 0.732864 214 126 220
0.621171 0.011930 -0.479273 -0.958006 -0.037409 0.284299 5 122 163
-0.056192 0.242720 0.423774 0.661227 -0.679963 -0.316906 211 40 87
0.235769 0.075749 0.167804 -0.123068 -0.136394 -0.982981 111 110 2
-0.220657 0.164339 -0.765979 0.264387 -0.555854 0.788115 161 56 227
0.330007 0.176007 -0.350206 0.671245 -0.548307 0.498788 213 57 191
-0.328683 0.196569 -0.684170 0.710845 -0.628922 0.314891 218 47 167
-0.139037 -0.256211 0.209298 0.450949 0.863670 -0.225210 184 237 98
-0.147472 0.254957 -0.256711 -0.665346 -0.739765 -0.100308 42 33 114
0.121824 0.033980 -0.470927 0.086485 -0.115992 -0.989478 138 112 1
0.483808 -0.108216 -0.691065 -0.655694 0.334526 0.676873 43 170 213
-0.053123 0.285336 -0.611658 -0.069888 -0.923248 -0.377795 118 9 79
0.108499 0.163723 0.811794 0.742543 -0.483687 -0.463332 222 65 68
0.195777 -0.248755 0.779209 0.329706 0.943025 -0.044697 169 247 121
0.013131 -0.215872 0.189068 -0.789578 0.605126 0.101922 26 204 140
0.301973 -0.222999 -0.220615 0.294472 0.845604 0.445241 165 235 184
-0.399890 0.066290 -0.102713 0.961378 -0.153117 -0.228707 250 107 98
-0.046475 0.129052 -0.180371 -0.859507 -0.229481 0.456712 17 98 185
0.207751 0.158934 -0.229875 0.231121 -0.547145 0.804497 156 57 230
-0.061142 -0.183345 -0.477166 -0.755913 0.621282 -0.206407 31 206 101
0.355131 0.031299 1.080516 -0.139396 -0.101009 -0.985072 109 114 1
-0.300925 0.087124 -0.766824 0.661311 -0.152984 0.734346 211 107 221
-0.066391 0.256256 0.011742 -0.510422 -0.826806 0.236348 62 22 157
-0.239729 -0.108692 0.287929 0.772807 0.320136 -0.547981 226 168 57
0.096429 0.214819 -0.182257 -0.021568 -0.596967 0.801976 124 51 229
-0.098067 0.280789 -0.568586 -0.439240 -0.850052 -0.290655 71 19 90
0.383816 -0.195865 -0.332993 0.495038 0.743763 0.449171 190 222 184
-0.024128 0.099180 0.608649 0.876377 -0.305280 -0.372516 239 88 80
0.252978 -0.099767 0.540840 -0.772557 0.276137 0.571755 28 162 200
0.290111 0.305400 -0.099173 0.044943 -0.998166 0.040556 133 0 132
0.087588 -0.213428 0.427530 -0.558290 0.737637 0.379742 56 221 175
0.105540 -0.012697 0.290912 -0.865192 0.054678 0.498451 17 134 191
-0.098096 0.261490 -0.466720 -0.638556 -0.741046 -0.207600 46 33 101
0.171500 -0.019816 -0.243475 0.091879 0.024434 0.995470 139 130 254
-0.359266 -0.063171 -0.711576 0.859704 0.130277 0.493900 237 144 190
0.057061 0.076306 -0.463008 -0.072972 -0.166800 -0.983287 118 106 2
0.050246 -0.178947 0.714262 0.795887 0.533591 -0.286085 228 195 91
-0.311440 -0.120978 0.117598 0.894302 0.252514 -0.369407 241 159 80
-0.174274 0.291971 -0.281017 -0.298653 -0.952748 0.055477 89 6 134
-0.246566 0.030406 0.325748 0.806961 -0.040890 -0.589187 230 122 52
0.477438 0.287485 -0.478512 -0.153757 -0.973168 0.171182 107 3 149
0.389499 -0.147349 0.851987 -0.739053 0.620770 0.261621 33 206 160
0.519723 0.175186 -0.152761 -0.783243 -0.471133 -0.405664 27 67 75
0.320481 0.059728 -0.803553 -0.527756 -0.163916 0.833430 60 106 233
-0.420919 -0.075774 -0.206733 0.978937 0.171894 -0.110156 252 149 113
-0.423848 -0.088265 -0.506336 0.944586 0.244576 0.218950 247 158 155
-0.393286 -0.149324 -0.170102 0.826707 0.462659 -0.320161 232 186 86
0.358601 0.270605 -0.032145 -0.206731 -0.923233 -0.323886 101 9 86
0.381377 -0.263252 -0.098788 -0.283224 0.953332 -0.104605 91 249 114
0.101193 0.148299 0.815902 0.764662 -0.528473 -0.368792 224 60 80
-0.155572 -0.151465 -0.784853 0.141198 0.439941 0.886856 145 183 240
-0.300604 -0.255353 -0.438775 0.464550 0.885017 0.030626 186 240 131
-0.125395 0.292207 -0.626056 -0.084437 -0.986551 0.139953 116 1 145
0.285056 0.185385 0.096483 -0.287046 -0.685410 -0.669192 90 40 42
-0.015505 -0.239760 -0.740477 -0.060060 0.771800 0.633023 119 225 208
0.422018 -0.181854 0.055459 -0.609894 0.424661 -0.669098 49 181 42
0.538801 -0.192360 -0.467102 -0.844842 0.529061 -0.079602 19 194 117
-0.061368 0.163401 -0.462910 -0.931701 -0.347759 -0.104866 8 83 114
-0.042411 0.252929 -0.558435 -0.344982 -0.708421 -0.615732 83 37 48
0.140936 -0.238743 -0.576844 -0.041550 0.659237 -0.750787 122 211 31
0.611748 0.103310 -0.361208 -0.954102 -0.296116 -0.044766 5 89 121
-0.258553 -0.085142 -0.787998 0.495562 0.284714 0.820583 190 163 232
-0.255185 0.033722 -0.803424 0.487216 -0.125731 0.864183 189 111 237
0.428327 -0.247366 -0.373866 -0.215108 0.970112 0.112300 100 251 141
-0.119251 0.224691 -0.267109 -0.819113 -0.500008 -0.281152 23 63 91
-0.379599 0.177888 -0.235607 0.851867 -0.518898 -0.071180 236 61 118
-0.254638 0.043328 -0.793417 0.476535 -0.179070 0.860725 188 104 237
-0.217479 0.084504 0.322123 0.843768 -0.248693 -0.475613 235 95 66
-0.092030 0.068840 -0.361644 -0.743733 -0.052629 -0.666402 32 120 42
0.382693 -0.207670 0.002532 -0.273299 0.908275 -0.316772 92 243 87
0.387027 0.267599 -0.067803 -0.383223 -0.876940 -0.290027 78 15 90
0.288248 0.219987 0.659092 -0.746244 -0.569652 0.344407 32 54 171
0.323770 0.182742 0.681181 -0.693451 -0.551235 0.463968 39 57 186
0.004704 0.267758 0.459851 0.468143 -0.869837 -0.155644 187 16 107
-0.243014 -0.266523 -0.148654 0.334377 0.898803 -0.283451 170 242 91
-0.251888 -0.267091 -0.496927 0.287789 0.956741 0.042710 164 249 132
0.240786 -0.069096 -0.288909 0.518520 0.173357 0.837308 193 149 234
0.271159 0.198716 0.638533 -0.800409 -0.488617 0.347273 25 65 171
-0.370701 0.098871 -0.667839 0.849831 -0.354849 0.389706 235 82 177
0.106410 -0.015026 -0.462965 0.038773 0.117738 -0.992287 132 142 0
0.588512 -0.160353 -0.451832 -0.813089 0.581665 0.023495 23 201 130
-0.380167 -0.187795 -0.166225 0.807489 0.555932 -0.197235 230 198 102
0.375222 -0.276203 -0.088065 -0.228696 0.961472 -0.152547 98 250 108
-0.155936 -0.139331 0.417184 0.849552 0.358551 -0.386913 235 173 78
-0.290418 -0.096649 0.190200 0.880987 0.141782 -0.451398 239 145 69
-0.389283 -0.128883 -0.534967 0.824409 0.540915 0.166616 232 196 148
0.007954 -0.241529 -0.701003 -0.182934 0.846149 0.500568 104 235 191
0.612005 0.075813 -0.338722 -0.982687 -0.145582 -0.114594 2 108 112
0.155854 -0.139365 -0.833779 -0.048110 0.241656 0.969169 121 158 251
0.371691 0.179218 0.111993 -0.503528 -0.343950 -0.792564 63 83 26
-0.357443 0.053762 -0.717742 0.838887 -0.165643 0.518489 234 106 193
-0.421085 -0.056610 -0.541166 0.954297 0.233367 0.186700 249 157 151
0.528669 0.040806 -0.084732 -0.866276 -0.048892 -0.497168 17 121 64
-0.289695 0.062713 0.188457 0.892426 -0.156500 -0.423182 241 107 73
0.102441 -0.035432 0.887612 0.768780 0.019135 -0.639227 225 129 45
0.451481 0.168012 -0.012282 -0.723285 -0.430852 -0.539653 35 72 58
-0.062999 -0.233018 0.454387 0.545760 0.774838 -0.319018 197 226 86
0.375670 0.267407 0.020731 -0.492598 -0.701214 -0.515409 64 38 61
-0.340001 0.214147 -0.155877 0.708364 -0.666747 -0.231666 217 42 97
-0.094371 -0.162352 -0.802862 0.084469 0.477695 0.874456 138 188 238
-0.140101 -0.262141 -0.391762 -0.592472 0.761639 -0.262457 51 224 94
-0.094090 0.199200 -0.798872 -0.006021 -0.629009 0.777375 126 47 226
-0.090243 -0.259951 0.050613 -0.228020 0.971456 0.065425 98 251 135
-0.049167 -0.241435 -0.526416 -0.029980 0.904844 -0.424685 123 242 73
0.315845 -0.109076 0.648175 -0.754814 0.329026 0.567449 31 169 199
0.375526 0.135524 -0.775538 -0.475351 -0.427859 0.768751 66 72 225
0.180092 0.289603 0.670296 -0.072515 -0.995155 0.066401 118 0 135
-0.301438 -0.165384 0.145562 0.809163 0.298436 -0.506153 230 165 62
0.226097 -0.133070 -0.801903 -0.245897 0.414467 0.876214 96 180 239
-0.234479 -0.027528 0.294565 0.923622 0.133255 -0.359396 245 144 81
0.617300 -0.034887 -0.382207 -0.993251 -0.073612 -0.089629 0 118 116
0.419564 0.275743 -0.335896 0.232609 -0.909378 -0.344853 157 11 83
-0.013544 0.293726 0.307151 -0.157411 -0.986139 0.052467 107 1 134
-0.190022 0.298714 -0.251459 -0.432836 -0.900764 0.035732 72 12 132
-0.113090 -0.218324 -0.751228 -0.036121 0.665380 0.745631 122 212 222
-0.377018 -0.098990 0.032032 0.888642 0.093916 -0.448883 240 139 70
0.325184 0.189584 -0.337356 0.608873 -0.586313 0.534332 205 52 195
0.214009 0.298158 0.742519 0.009368 -0.999955 -0.001524 128 0 127
0.145990 0.210492 -0.540035 0.039256 -0.441334 -0.896484 132 71 13
-0.291654 0.021415 0.181514 0.927973 -0.154598 -0.339067 245 107 84
-0.069153 -0.107372 -0.335014 -0.888647 0.400663 -0.223104 14 178 99
-0.121180 -0.205548 0.420280 0.579616 0.651525 -0.489449 201 210 65
-0.012281 0.305859 -0.214429 -0.006620 -0.965926 0.258733 126 4 160
-0.281091 -0.034475 -0.797059 0.518938 -0.018005 0.854622 193 125 236
0.300346 -0.067890 -0.488659 0.290031 0.154383 -0.944483 164 147 7
-0.056837 0.035989 -0.853840 -0.045674 -0.154552 0.986928 121 107 253
-0.352563 0.210312 -0.202457 0.762138 -0.631128 -0.144301 224 47 109
0.474727 0.010538 0.915153 -0.924782 0.009196 0.380385 9 128 175
-0.346208 0.205103 -0.625202 0.742580 -0.598911 0.299802 222 51 165
0.107664 0.003590 0.923286 0.835712 0.030052 -0.548346 234 131 57
0.419554 0.243999 -0.033640 -0.558963 -0.681860 -0.471834 56 40 67
0.474730 -0.260089 -0.397207 -0.144414 0.988815 0.037265 109 253 132
-0.293996 0.244691 -0.588977 0.428436 -0.862989 0.267753 182 17 161
-0.314056 0.015037 0.171675 0.869782 -0.134309 -0.474805 238 110 66
-0.143052 0.253898 -0.274260 -0.458314 -0.854318 0.245129 69 18 158
-0.087896 -0.179797 -0.272087 -0.864371 0.502794 0.007771 17 191 128
-0.204567 0.037069 -0.811840 0.322257 -0.206784 0.923791 168 101 245
0.021063 0.242726 0.234998 -0.690297 -0.721553 0.053392 39 35 134
-0.095239 0.173900 0.475556 0.749882 -0.462994 -0.472560 223 68 67
0.356129 -0.030632 1.098110 -0.181755 0.252974 -0.950247 104 159 6
0.004712 -0.282874 -0.595830 0.108730 0.968337 -0.224724 141 250 98
0.254313 0.278747 0.761042 -0.343588 -0.937220 0.059724 83 8 135
0.117881 -0.073216 0.934671 0.884254 0.247805 -0.395838 240 159 77
-0.381200 -0.207480 -0.275110 0.802216 0.596016 -0.034835 229 203 123
0.194851 0.145392 -0.794778 -0.095364 -0.420664 0.902190 115 73 242
0.552226 0.139109 -0.177296 -0.826782 -0.406124 -0.389224 22 75 77
-0.254511 -0.205482 0.129360 0.697381 0.640882 -0.320829 216 209 86
-0.391819 -0.154450 -0.604502 0.880169 0.401843 0.252635 239 178 159
0.414820 0.054431 0.103282 -0.643762 -0.067920 -0.762205 45 118 30
0.023730 -0.253862 -0.598204 -0.181661 0.890138 -0.417916 104 240 74
-0.007736 -0.176604 -0.788652 -0.052852 0.556321 0.829285 120 198 233
-0.393172 0.160668 -0.347718 0.842885 -0.535532 -0.052457 234 59 120
0.473222 -0.057824 0.962357 -0.958946 0.254387 -0.125343 5 159 111
-0.416232 0.039417 -0.171927 0.983321 -0.112696 -0.142754 252 113 109
0.124498 0.286044 -0.625477 -0.042526 -0.892739 -0.448564 122 13 70
0.388754 0.063676 0.136245 -0.581151 0.070829 -0.810708 53 136 24
-0.020908 -0.035996 -0.450582 -0.644432 0.082858 -0.760159 45 138 30
-0.288534 -0.156951 -0.704711 0.551126 0.557321 0.621010 197 198 206
0.464743 -0.120129 0.917657 -0.843990 0.338508 0.416045 19 170 180
-0.088347 0.268623 -0.535560 -0.353647 -0.781089 -0.514620 82 27 61
0.007330 -0.140547 0.077926 -0.853570 0.315715 0.414418 18 167 180
0.617227 0.027164 -0.492440 -0.932238 -0.170086 0.319378 8 105 168
0.227866 -0.237758 0.859912 0.290986 0.954931 0.058608 164 249 134
0.187548 -0.230764 -0.593826 -0.118120 0.877049 -0.465653 112 239 68
0.382837 -0.086184 0.751290 -0.812307 0.303844 0.497832 23 166 190
-0.043693 -0.245624 0.186768 -0.503979 0.850258 -0.151876 63 235 108
-0.080083 0.189627 -0.175750 -0.778859 -0.576597 0.246807 28 53 158
-0.006124 -0.241329 0.518974 0.456742 0.822137 -0.339820 185 232 84
0.001037 0.013754 0.724627 0.864125 -0.049466 -0.500841 237 121 63
-0.432854 -0.027579 -0.477187 0.997084 0.030124 0.070116 254 131 136
0.360839 0.123277 0.801306 -0.888542 -0.458735 -0.007375 14 69 126
-0.000771 -0.098369 -0.817158 -0.041134 0.250659 0.967201 122 159 250
0.563091 -0.023709 -0.144657 -0.883044 -0.016017 -0.469017 14 125 67
-0.387081 -0.063362 -0.011488 0.892434 0.126764 -0.433005 241 143 72
0.376502 0.086864 -0.535033 0.656869 -0.218418 -0.721676 211 99 35
-0.351262 -0.211679 -0.107575 0.694321 0.674808 -0.250106 216 213 95
-0.059086 0.109382 -0.287332 -0.716011 -0.388176 0.580213 36 78 201
-0.061250 -0.195802 -0.475037 -0.730363 0.635952 -0.249270 34 208 95
0.092136 -0.267874 -0.567009 -0.152201 0.968026 -0.199399 108 250 102
-0.117124 -0.005734 0.577702 0.873374 0.068097 -0.482266 238 136 66
-0.036338 0.306518 -0.675358 -0.043375 -0.983681 -0.174616 121 2 105
-0.069265 0.281769 0.283740 0.436753 -0.888254 -0.142310 183 14 109
0.162507 0.297146 -0.089098 -0.026033 -0.939411 -0.341803 124 7 83
-0.420219 0.067571 -0.536670 0.967408 -0.027653 0.251709 250 123 159
-0.072444 -0.209592 -0.072974 -0.808286 0.578292 0.110688 24 201 141
0.242821 0.256978 -0.242181 0.106830 -0.789302 -0.604640 141 26 50
-0.333401 -0.160058 0.023264 0.870181 0.431342 -0.238178 238 182 97
-0.203706 0.251075 -0.706293 0.445389 -0.822039 0.354797 184 22 172
0.345673 -0.184560 -0.568476 0.611630 0.304263 -0.730296 205 166 34
0.219115 -0.149920 1.023816 0.718917 0.402025 -0.567040 219 178 55
0.306245 0.026590 1.117893 -0.009870 0.087926 -0.996078 126 138 0
-0.055373 -0.161240 0.519315 0.800705 0.504147 -0.323585 229 191 86
-0.001127 -0.035710 -0.833891 -0.044321 0.068839 0.996643 121 136 254
-0.006624 0.035294 0.693344 0.893899 -0.030900 -0.447202 241 123 70
0.003940 0.254338 -0.256636 -0.103834 -0.937960 0.330831 114 7 169
-0.019131 0.279007 0.388553 0.244802 -0.966395 -0.078439 158 4 117
-0.205658 0.023620 0.365354 0.868139 -0.109956 -0.483989 238 113 65
0.415114 0.216786 -0.526866 0.799823 -0.579168 0.157630 229 53 147
-0.018656 -0.066081 -0.476348 -0.490650 0.288527 -0.822201 64 164 22
0.495537 0.025736 1.033813 -0.962153 -0.018981 -0.271849 4 125 92
0.007491 0.077512 0.029256 -0.879106 -0.177571 0.442314 15 104 183
0.551300 0.232470 -0.411106 -0.596198 -0.787507 0.156140 51 27 147
0.444358 0.146711 1.039380 -0.741242 -0.519919 -0.424553 32 61 73
0.319362 -0.016448 1.085610 -0.011877 0.126707 -0.991869 125 143 1
0.399504 0.268155 -0.090427 -0.357034 -0.886285 -0.295000 81 14 89
0.109505 -0.125994 0.342747 -0.819297 0.303319 0.486569 23 166 189
0.536502 -0.208846 -0.314040 -0.577431 0.812040 -0.084641 53 231 116
0.010416 0.173719 0.632129 0.845536 -0.420432 -0.329097 235 73 85
0.321634 0.262509 0.789723 -0.438059 -0.867873 0.234311 71 16 157
0.580948 0.182194 -0.359881 -0.891109 -0.445946 -0.084006 13 70 116
-0.419326 0.086408 -0.496976 0.957843 -0.273053 0.089328 249 92 138
0.415386 -0.163372 1.013791 -0.783212 0.530922 -0.323574 27 195 86
-0.312041 0.120126 -0.740987 0.658300 -0.368240 0.656537 211 80 211
0.514764 -0.071696 -0.076745 -0.855697 0.278929 -0.435869 18 163 71
0.368368 0.307719 -0.241899 -0.032762 -0.998672 0.039753 123 0 132
0.007579 0.252884 0.488821 0.567990 -0.792230 -0.223068 199 26 99
-0.045136 -0.140856 -0.475999 -0.292301 0.386168 -0.874891 90 176 15
-0.128838 -0.251277 -0.169136 -0.372855 0.914722 0.155765 79 244 147
0.043302 -0.065633 -0.837088 -0.035510 0.143233 0.989052 122 145 253
-0.268687 0.150441 0.183860 0.856651 -0.353933 -0.375342 236 82 79
0.027855 -0.210005 -0.565076 -0.434791 0.713249 -0.549757 72 218 57
-0.251374 0.261844 -0.024625 0.616168 -0.761287 -0.201939 206 30 101
0.002992 0.270863 -0.051309 0.032744 -0.872104 0.488224 131 16 189
-0.191059 0.271226 -0.689019 0.258860 -0.942414 0.211771 160 7 154
-0.248738 0.308447 -0.365885 0.219386 -0.975399 -0.021612 155 3 124
-0.006335 0.187266 0.120489 -0.684363 -0.510234 0.520874 40 62 193
0.065076 -0.135089 0.244704 -0.808917 0.298867 0.506292 24 165 192
-0.338150 -0.151695 0.045296 0.789436 0.433987 -0.434105 228 182 72
-0.285459 -0.176485 -0.724946 0.493033 0.536701 0.684741 190 195 214
-0.116435 -0.235036 -0.196353 -0.590140 0.807017 -0.021406 52 230 124
-0.075596 0.153989 -0.356134 -0.927675 -0.357910 -0.106393 9 81 113
-0.418549 -0.028285 -0.168831 0.988915 0.004004 -0.148428 253 128 108
-0.336639 -0.225025 -0.531841 0.610056 0.780990 0.133738 205 227 144
-0.339455 0.248232 -0.289158 0.682721 -0.729739 -0.037041 214 34 122
-0.271862 0.204493 0.073185 0.704604 -0.621466 -0.342511 217 48 83
0.160773 0.084032 -0.238958 0.053403 -0.174572 0.983195 134 105 252
0.621667 0.025011 -0.500898 -0.915144 -0.042830 0.400846 10 122 178
-0.323544 -0.249680 -0.227849 0.558173 0.820613 -0.122629 198 232 111
0.612838 -0.118263 -0.471268 -0.933947 0.309114 0.179419 8 166 150
-0.028405 0.050942 -0.104696 -0.893429 -0.253638 0.370746 13 95 174
-0.079936 -0.274190 -0.100914 -0.241063 0.960017 0.142325 96 249 145
0.120597 -0.078648 -0.841657 -0.076783 0.131464 0.988343 117 144 253
-0.099000 -0.237445 -0.108926 -0.477517 0.878505 -0.014374 66 239 125
0.024554 -0.234555 0.321795 -0.604482 0.708990 0.363229 50 217 173
0.437374 0.188506 -0.693421 -0.493796 -0.629716 0.599686 64 47 203
-0.128246 -0.268101 0.194216 0.358422 0.913140 -0.194189 173 243 102
-0.171811 0.280959 -0.702207 0.197357 -0.914104 0.354210 152 10 172
-0.389144 0.103825 -0.131256 0.881135 -0.371727 -0.292269 239 80 90
-0.059496 -0.117517 0.542904 0.716358 0.471815 -0.514025 218 187 61
0.261538 0.288453 -0.594943 -0.018680 -0.848956 -0.528133 125 19 60
-0.059531 0.161830 -0.415561 -0.839691 -0.267342 -0.472701 20 93 67
-0.416357 0.124291 -0.331023 0.918121 -0.393446 -0.047488 244 77 121
0.540523 -0.051718 -0.091736 -0.809420 0.258975 -0.527040 24 160 60
-0.132546 0.172871 -0.340205 -0.711487 -0.445914 -0.543090 36 70 58
-0.267246 0.280273 -0.613785 0.319633 -0.868989 0.377747 168 16 175
-0.138586 -0.188826 -0.771041 0.164762 0.635318 0.754470 148 208 223
-0.153105 -0.125683 0.431381 0.881066 0.307019 -0.359807 239 166 81
0.284143 0.160429 -0.318069 0.575346 -0.437152 0.691286 200 71 215
-0.094736 0.232730 -0.783581 0.201710 -0.780159 0.592170 153 28 203
0.036665 0.212318 0.610486 0.751463 -0.589055 -0.297182 223 52 89
-0.422977 0.023596 -0.564505 0.986112 -0.103534 0.129860 253 114 144
0.607928 0.087465 -0.348725 -0.949410 -0.249712 -0.190430 6 95 103
-0.243049 0.003242 0.309513 0.828604 -0.081462 -0.553876 233 117 56
0.488532 -0.066052 1.000013 -0.957825 0.287323 0.004048 5 164 128
-0.002160 0.221125 0.079579 -0.840528 -0.480961 0.249380 20 66 159
0.493703 -0.037499 0.981271 -0.968142 0.241541 0.066020 4 158 135
-0.303338 -0.020410 -0.764014 0.621416 0.125246 0.773406 206 143 226
-0.129173 0.305842 0.010601 -0.209665 -0.977747 0.007130 100 2 128
-0.383945 -0.216620 -0.327955 0.804555 0.592409 -0.041740 230 203 122
-0.414699 0.013530 -0.183136 0.986690 -0.059253 -0.151431 253 119 108
-0.416076 -0.103631 -0.210852 0.931694 0.360469 -0.044823 246 173 121
0.095547 0.005303 -0.510503 0.047290 -0.096009 -0.994256 133 115 0
-0.068618 -0.115697 -0.218143 -0.900695 0.386019 0.199344 12 176 152
-0.261273 -0.129629 -0.776936 0.410033 0.372837 0.832385 179 175 233
