ply
format ascii 1.0
element vertex 1024
property float x
property float y
property float z
property float nx
property float ny
property float nz
property uchar red
property uchar green
property uchar blue
end_header
0.363126 -0.270145 -0.106854 -0.606490 0.784220 0.131032 50 227 144
0.089759 -0.325991 0.025151 0.402461 0.902113 -0.155618 178 242 107
0.191594 0.009662 -1.147685 -0.647831 -0.135952 0.749554 44 110 223
0.150670 0.330277 0.526269 -0.046885 -0.947220 -0.317136 121 6 87
0.330023 -0.064164 -0.798877 -0.922023 0.113450 0.370140 9 141 174
-0.080895 0.323199 0.552673 0.019858 -0.852789 -0.521879 130 18 60
-0.095552 -0.278671 -0.853976 0.670338 0.734040 -0.108779 212 221 113
-0.403887 0.094502 0.678393 0.669424 -0.258656 -0.696397 212 94 38
0.013579 -0.308211 -0.868677 0.315691 0.948775 0.012832 167 248 129
0.028039 -0.319968 -0.145603 0.265957 0.907876 0.324081 161 243 168
0.273497 0.259981 0.600642 -0.487024 -0.663686 -0.567740 65 42 55
-0.141988 -0.307427 0.458667 -0.247791 0.871931 -0.422298 95 238 73
-0.062029 -0.276991 0.287987 -0.234993 0.554976 0.797985 97 198 229
-0.520381 -0.047167 0.292944 0.996202 -0.006996 0.086796 254 126 138
-0.243380 0.056104 -0.035092 0.339772 -0.236974 0.910164 170 97 243
-0.199081 0.015256 -0.960106 0.998348 -0.057136 -0.006000 254 120 126
-0.111032 -0.232583 -0.985562 0.748484 0.646307 0.148521 222 209 146
0.093611 0.318924 -0.657664 0.179394 -0.983297 0.030734 150 2 131
-0.171009 -0.188259 0.546917 -0.801993 0.574478 -0.163654 25 200 106
0.002784 -0.025182 -1.182428 -0.084014 -0.060893 0.994602 116 119 254
-0.301071 0.209737 0.654639 0.451758 -0.663703 -0.596166 185 42 51
0.108107 -0.328497 0.253562 -0.095893 0.983340 0.154424 115 252 147
0.461448 -0.125930 0.393409 -0.958875 0.274875 -0.070722 5 162 118
-0.155643 0.113051 -1.086944 0.826109 -0.409694 0.386904 232 75 176
-0.164817 -0.107479 -0.426239 0.860833 0.248414 -0.444136 237 159 70
0.130396 0.002418 0.771901 -0.100691 -0.042560 -0.994007 114 122 0
0.064014 -0.301412 -1.028563 0.023347 0.857640 0.513720 130 236 192
-0.184877 -0.113016 -0.973789 0.986628 0.161707 0.020409 253 148 130
0.367481 0.102244 -0.412722 -0.941039 -0.337168 0.027649 7 84 131
-0.292024 -0.307928 0.385961 0.444363 0.869719 0.214778 184 238 154
-0.021505 0.248517 -0.345985 0.721608 -0.692079 -0.017587 219 39 125
-0.183814 0.099158 -0.993952 0.949823 -0.307710 0.056134 248 88 134
0.109866 -0.181435 0.755469 -0.011646 0.262227 -0.964936 126 160 4
-0.046327 0.226738 -1.045015 0.151350 -0.823408 0.546894 146 22 197
0.341524 0.294732 0.252529 -0.475840 -0.878797 -0.035940 66 15 122
-0.042718 0.262035 0.686004 0.019283 -0.584763 -0.810975 129 52 24
0.418862 -0.247605 0.071838 -0.778843 0.619707 0.096784 28 206 139
-0.179826 0.116293 -0.998836 0.952665 -0.291783 0.085391 248 90 138
0.423584 -0.216281 0.307348 -0.863595 0.503430 0.027606 17 191 131
-0.304412 0.330665 0.292192 0.122921 -0.991319 0.046667 143 1 133
0.396696 -0.263449 0.085812 -0.653169 0.751589 0.092110 44 223 139
-0.464370 -0.228964 0.256074 0.704971 0.650747 0.282036 217 210 163
0.105883 0.296427 0.042361 0.556186 -0.826349 -0.088345 198 22 116
0.091347 -0.105233 -1.169459 -0.248950 0.262559 0.932248 95 160 246
-0.299393 0.026681 0.772913 0.578280 -0.034928 -0.815090 201 123 23
-0.250369 0.296509 0.184617 0.208453 -0.889861 0.405826 154 14 179
-0.060584 0.244616 -0.625194 0.694629 -0.706081 -0.137628 216 37 109
-0.184036 -0.101212 -1.037212 0.943709 0.297536 0.144520 247 165 145
-0.007755 -0.050005 0.782656 -0.018982 0.102750 -0.994526 125 140 0
0.119866 0.321718 -0.732407 -0.220630 -0.973191 0.064974 99 3 135
0.386742 0.230043 0.492852 -0.750590 -0.623950 -0.217489 31 47 99
0.012899 0.297173 -0.798945 0.419846 -0.907536 -0.010367 181 11 126
0.260601 0.165541 0.724226 -0.353732 -0.437682 -0.826625 82 71 22
-0.097812 -0.214916 0.722013 0.231856 0.665929 -0.709071 157 212 37
-0.078196 0.249607 0.167665 -0.052462 -0.738636 0.672060 120 33 213
-0.131152 0.039621 -0.601882 0.954956 -0.222533 -0.196313 249 99 102
0.374709 -0.289291 0.353348 -0.591151 0.802953 -0.076205 52 229 117
-0.138150 -0.187938 -0.848121 0.819319 0.570498 -0.056998 231 200 120
-0.390985 0.147970 -0.018782 0.327343 -0.244342 0.912767 169 96 243
-0.007091 -0.309207 -0.674621 0.453898 0.884267 -0.109766 185 240 113
0.273187 0.168756 -0.854446 -0.899556 -0.435439 0.034532 12 71 131
0.298861 0.288386 -0.156424 -0.473714 -0.863208 0.174552 67 17 149
-0.152601 -0.371037 0.478434 -0.036431 0.997770 0.055920 122 254 134
-0.193550 -0.193997 0.730578 0.269801 0.502350 -0.821494 161 191 22
0.305277 0.315068 0.397069 -0.366831 -0.907959 -0.202595 80 11 101
-0.118360 0.328632 0.459579 -0.043341 -0.946146 -0.320825 121 6 86
0.059685 -0.158216 0.323764 0.885384 0.330577 0.326824 240 169 169
0.482640 0.093028 0.363228 -0.985565 -0.166768 0.029152 1 106 131
0.297734 0.285708 0.510692 -0.391901 -0.830094 -0.396684 77 21 76
0.063804 -0.144049 0.449590 0.853049 0.498398 0.154617 236 191 147
-0.073035 -0.090060 -0.066489 0.936376 0.082911 -0.341067 246 138 84
-0.128815 0.329033 0.463929 -0.211897 -0.965791 0.149494 100 4 146
0.152399 0.337385 0.164396 0.402250 -0.914132 0.050575 178 10 133
0.117991 -0.170706 0.754333 -0.115352 0.361987 -0.925018 112 173 9
0.453027 0.115266 -0.058790 -0.943650 -0.304362 0.129953 7 88 144
-0.489313 -0.144060 0.228744 0.929927 0.261933 0.258124 246 160 160
-0.138327 0.181348 -0.828889 0.795715 -0.599976 -0.082862 228 51 116
0.293473 0.154776 -0.785641 -0.884389 -0.465778 0.030128 14 68 131
-0.222053 0.123129 0.774455 0.194415 -0.211561 -0.957833 152 100 5
-0.122358 -0.178466 -0.443174 0.865637 0.435866 -0.246362 237 183 96
-0.117656 0.010839 -1.137936 0.613196 -0.121716 0.780497 205 111 227
0.250498 -0.351591 0.363207 0.040568 0.999162 0.005448 132 254 128
-0.433717 -0.279961 0.421950 0.631491 0.763955 -0.132634 208 224 110
0.147320 0.221659 -1.074903 -0.429766 -0.694501 0.577035 72 38 201
0.265726 -0.326694 -0.308173 -0.428595 0.896815 0.109679 72 241 141
-0.374555 0.094633 0.692291 0.689180 -0.230082 -0.687090 215 98 39
-0.183713 -0.035738 0.723957 0.078139 0.279928 -0.956836 137 163 5
0.253213 0.236158 -0.623232 -0.679848 -0.732741 0.029945 40 34 131
0.404676 -0.265591 0.218506 -0.673587 0.734238 0.084700 41 221 138
0.491990 0.031228 0.352879 -0.993526 0.042178 -0.105486 0 132 114
-0.026108 -0.190073 0.709059 -0.108802 0.418738 -0.901566 113 180 12
-0.237504 0.274958 0.145800 0.155534 -0.840492 0.519020 147 20 193
-0.195560 0.116808 0.770247 0.246623 -0.125784 -0.960914 158 111 4
0.287746 0.108328 -0.922233 -0.977670 -0.193783 0.081298 2 102 137
-0.190649 -0.117808 -1.070867 0.951879 0.275733 0.133783 248 162 144
-0.323821 -0.310916 0.547728 0.389306 0.882047 -0.265396 177 239 93
0.268981 0.317809 0.462883 -0.280591 -0.907500 -0.312589 91 11 87
0.023483 -0.266074 -1.099972 -0.113117 0.611229 0.783328 113 205 227
0.042942 0.251084 -1.019063 -0.019137 -0.864601 0.502095 125 17 191
0.218305 0.264513 0.623489 -0.140189 -0.750834 -0.645443 109 31 45
-0.344781 -0.307021 0.260706 0.266298 0.923550 0.275936 161 245 162
0.393851 -0.144362 0.590183 -0.793932 0.401708 -0.456402 26 178 69
0.432528 0.199057 0.293439 -0.842996 -0.537346 -0.024830 20 58 124
-0.476586 0.167751 0.466584 0.859868 -0.503404 -0.084923 237 63 116
-0.490133 -0.036908 0.052542 0.596488 0.220923 0.771619 203 155 225
0.285731 -0.158304 -0.870352 -0.916065 0.397437 0.053568 10 178 134
-0.025606 -0.106234 0.743938 0.029106 0.213274 -0.976559 131 154 2
0.072857 -0.054330 0.780642 -0.020621 0.073821 -0.997058 124 136 0
-0.048017 0.261934 -0.598920 0.692194 -0.713683 -0.107351 215 36 113
0.281092 -0.246717 -0.576463 -0.791993 0.609351 0.037922 26 205 132
0.174070 0.276929 -0.887423 -0.493494 -0.859168 0.135259 64 17 144
0.286454 0.252771 -0.470957 -0.733764 -0.678969 0.024324 33 40 130
0.320113 -0.086724 -0.820388 -0.973740 0.214005 0.077664 3 154 137
-0.132686 -0.335020 0.398329 -0.239575 0.904911 0.351767 96 242 172
0.094513 -0.333950 -0.321124 0.230512 0.968953 0.089408 156 251 138
0.298079 0.085381 -1.030389 -0.949112 -0.149596 0.277143 6 108 162
0.368210 -0.266097 -0.252369 -0.754422 0.649909 0.092014 31 210 139
0.093345 -0.283761 -1.025820 -0.203263 0.781380 0.590024 101 227 202
-0.307559 0.112989 0.728275 0.472636 -0.268031 -0.839509 187 93 20
-0.069345 0.329156 0.519276 -0.160884 -0.973987 0.159580 106 3 147
-0.168436 -0.129904 -0.724760 0.925734 0.295054 -0.236560 245 165 97
0.239879 0.233118 -0.948019 -0.523017 -0.755396 0.394755 60 31 177
-0.492560 0.140316 0.201666 0.946577 -0.286865 0.147310 248 90 146
0.160851 -0.359240 -0.299936 -0.100345 0.989775 0.101377 114 253 140
-0.348991 -0.225715 0.660733 0.487832 0.533994 -0.690558 189 195 39
0.329133 0.196203 0.621755 -0.498528 -0.549884 -0.670148 63 57 42
0.038094 0.098075 -1.138824 0.022787 -0.541013 0.840705 130 58 234
-0.454134 0.227995 0.271519 0.829067 -0.551459 0.092413 233 57 139
0.025250 0.293008 -0.324768 0.536662 -0.843682 -0.013953 195 19 125
0.204700 0.293350 0.561650 -0.103551 -0.880755 -0.462112 114 15 68
0.373432 0.248327 0.456873 -0.665966 -0.704564 -0.245109 42 37 96
0.085244 0.305765 -0.928714 -0.102514 -0.962565 0.250917 114 4 159
0.329196 -0.021010 -0.748914 -0.984967 0.036470 0.168849 1 132 149
0.111272 0.286427 0.392231 0.637442 -0.768892 -0.049719 208 29 121
-0.032710 -0.225351 -0.351819 0.829749 0.552913 0.076177 233 197 137
0.350416 -0.184455 0.635391 -0.677956 0.442050 -0.587339 41 183 52
0.046922 0.201693 -1.090034 -0.043331 -0.663638 0.746798 121 42 222
0.130224 -0.057473 0.769334 -0.008041 0.199193 -0.979927 126 152 2
-0.064390 -0.286435 -0.802050 0.598782 0.797121 -0.077834 203 229 117
-0.189148 0.308174 0.163475 0.079994 -0.827277 0.556070 137 22 198
0.358663 0.223505 0.585116 -0.685188 -0.598567 -0.415012 40 51 74
0.027833 -0.042479 0.192545 0.998414 0.049887 -0.026094 254 133 124
0.465075 0.114476 0.340426 -0.940491 -0.333620 -0.064607 7 84 119
-0.174669 -0.158651 0.714410 0.211709 0.568447 -0.795014 154 199 26
0.296328 -0.208423 -0.672829 -0.923563 0.382680 -0.024244 9 176 124
-0.395870 -0.292968 0.309274 0.484748 0.871639 0.072565 189 238 136
-0.085630 0.240499 -0.880119 0.586753 -0.806630 -0.071199 202 24 118
-0.152852 -0.258564 0.708103 0.173370 0.638120 -0.750163 149 208 31
0.324251 -0.093580 0.672645 -0.591290 0.180209 -0.786067 52 150 27
-0.142999 -0.158630 -0.690906 0.891404 0.415786 -0.180334 241 180 104
0.235609 -0.137143 0.746096 -0.248670 0.384715 -0.888908 95 176 14
0.246880 -0.280244 -0.630592 -0.658874 0.750043 0.057618 43 223 134
0.379430 -0.022365 -0.481351 -0.997182 -0.063442 0.040052 0 119 132
0.434469 -0.252615 0.351264 -0.770034 0.631807 0.088702 29 208 138
-0.503938 -0.057747 0.036826 0.610008 -0.044222 0.791160 205 121 228
-0.396070 0.262284 0.277852 0.528702 -0.810216 0.253029 194 24 159
0.377696 0.251181 0.302667 -0.623932 -0.780602 -0.037001 47 27 122
0.119735 -0.304375 0.572242 -0.055976 0.867030 -0.495102 120 238 64
0.459158 -0.115608 -0.073379 -0.952078 0.214729 0.217802 6 154 155
-0.042760 -0.279920 -0.532915 0.570023 0.790930 -0.222493 200 228 99
0.369519 0.187783 0.561116 -0.704239 -0.577229 -0.413346 37 53 74
0.183311 0.070980 0.776210 -0.027593 -0.179709 -0.983333 123 104 2
-0.173829 0.310845 0.181591 0.042935 -0.879092 0.474714 132 15 188
-0.274182 -0.329484 0.530675 0.230540 0.937829 -0.259478 156 247 94
-0.071562 0.222794 -0.428774 0.669804 -0.690193 -0.273854 212 39 92
-0.138041 -0.048050 -0.288788 0.942076 -0.030435 -0.334017 247 123 84
-0.331770 -0.333432 0.241178 0.257182 0.899120 0.354176 160 242 172
-0.169281 -0.159943 -0.843474 0.939555 0.315861 -0.132171 247 167 110
0.254741 -0.316111 0.486228 -0.401209 0.862978 -0.307083 76 237 88
0.372633 -0.017354 -0.484526 -0.993641 0.100929 0.049912 0 140 133
0.093010 0.254578 -1.019375 -0.205421 -0.852670 0.480371 101 18 188
0.142337 0.294603 0.362020 0.498761 -0.856897 0.130247 191 18 144
0.038038 -0.308457 0.168346 0.129375 0.819571 0.558181 143 231 198
0.319436 -0.140204 -0.773272 -0.949498 0.300424 0.090553 6 165 139
0.213706 0.246761 -0.861595 -0.633200 -0.756441 0.163875 46 31 148
-0.337784 0.281889 0.514101 0.431042 -0.879488 -0.201750 182 15 101
-0.189080 -0.022926 -1.088284 0.933148 0.046050 0.356531 246 133 172
0.055285 -0.317565 -0.050374 0.418008 0.905542 -0.072547 180 242 118
-0.334525 -0.276823 0.090127 0.246725 0.719027 0.649713 158 219 210
-0.263199 -0.049706 0.789116 0.453842 0.098008 -0.885676 185 139 14
-0.060166 -0.254533 -1.053067 0.369632 0.768827 0.521802 174 225 194
-0.076642 0.180808 -0.220979 0.900588 -0.408438 -0.148726 242 75 108
-0.050002 0.024086 -0.136692 0.992305 -0.047562 -0.114316 254 121 112
-0.100940 0.101296 -1.123078 0.442005 -0.281772 0.851608 183 91 236
-0.224414 0.330205 0.365948 0.279048 -0.953426 0.114501 163 5 142
-0.114315 -0.070917 -0.419441 0.996876 -0.060734 -0.050492 254 119 121
0.258827 -0.314738 -0.379291 -0.505508 0.852978 0.129962 63 236 144
0.312058 0.136220 -0.754748 -0.929082 -0.366738 0.048054 9 80 133
0.294851 0.184074 -0.779137 -0.852030 -0.518585 0.071521 18 61 136
0.406020 -0.251015 0.420939 -0.726734 0.680144 -0.096236 34 214 115
-0.151117 0.274370 0.663414 0.033373 -0.697845 -0.715471 131 38 36
0.104254 -0.254805 -1.090845 -0.257688 0.629887 0.732693 94 207 220
0.423587 0.139453 0.461780 -0.885324 -0.397876 -0.240614 14 76 96
0.262176 -0.285306 -0.588574 -0.649587 0.756602 0.074771 44 223 137
-0.122355 -0.180722 -1.094284 0.634913 0.525124 0.566683 208 194 199
0.143282 -0.311479 0.402482 0.386048 0.886034 0.256730 176 240 160
0.188975 0.325591 0.131701 0.196158 -0.972638 0.124485 152 3 143
-0.362980 -0.220077 0.644030 0.533487 0.613093 -0.582674 195 205 53
0.270104 -0.223882 -0.796907 -0.833000 0.552569 0.027908 21 197 131
0.337484 0.171673 -0.353077 -0.831855 -0.554481 0.023845 21 56 130
-0.450895 -0.275296 0.451089 0.709410 0.683303 -0.172726 217 214 105
0.122621 0.338523 -0.300143 0.031742 -0.998508 0.044442 131 0 133
-0.062696 0.100026 -0.159720 0.655500 -0.410143 0.634115 211 75 208
0.055815 -0.345905 0.303576 0.158325 0.923238 0.350092 147 245 172
-0.346749 0.093798 0.685195 0.555333 -0.445781 -0.702058 198 70 37
-0.062500 -0.273602 -0.879548 0.515317 0.856370 -0.032847 193 236 123
0.002241 -0.200327 -1.134148 -0.052352 0.491865 0.869096 120 190 238
-0.519617 0.065736 0.262805 0.945472 -0.256226 0.201075 248 94 153
0.167439 0.257956 0.659880 -0.080123 -0.612761 -0.786196 117 49 27
0.481950 0.045642 0.086839 -0.956563 -0.285226 0.060271 5 91 135
0.334276 0.001316 -0.759060 -0.991671 -0.069365 0.108523 1 118 141
-0.397186 -0.274161 0.106993 0.315023 0.786188 0.531666 167 227 195
-0.052625 0.165330 -0.201485 0.910162 -0.375968 -0.173933 243 79 105
0.032883 0.176252 0.421769 0.766856 -0.546737 0.336170 225 57 170
-0.113086 0.090001 0.411295 -0.960202 -0.142586 -0.240170 5 109 96
-0.101932 0.117894 -0.276000 0.869952 -0.417806 -0.261957 238 74 94
-0.036743 0.179153 0.730205 0.013351 -0.456402 -0.889673 129 69 14
-0.360957 0.218227 0.093722 0.465094 -0.645368 0.605960 186 45 204
-0.345327 0.323535 0.406959 0.224474 -0.949513 -0.219173 156 6 99
0.157970 -0.356378 -0.035070 0.158139 0.987301 -0.015144 147 253 125
-0.456369 -0.271844 0.362019 0.690350 0.691330 0.213259 215 215 154
-0.042249 0.227854 -0.192850 0.767493 -0.562460 -0.307558 225 55 88
0.344824 -0.195577 -0.485482 -0.864205 0.500657 0.049918 17 191 133
-0.004087 0.025221 -1.156932 0.029983 -0.384942 0.922454 131 78 245
0.040601 0.317064 -0.637923 0.395066 -0.918648 -0.003084 177 10 127
0.422093 -0.017993 -0.383782 -0.993917 0.070212 0.084851 0 136 138
-0.123527 0.092565 0.443646 -0.968341 -0.166893 -0.185643 4 106 103
-0.144102 -0.098479 -1.125249 0.655814 0.259999 0.708737 211 160 217
0.048000 0.268517 0.235195 0.519195 -0.851213 -0.076629 193 18 117
0.143934 0.331456 -0.531776 -0.048715 -0.998102 0.037664 121 0 132
-0.461732 0.212942 0.346046 0.817177 -0.571331 0.076174 231 54 137
-0.111753 0.289152 0.412200 -0.443973 -0.813643 0.375330 70 23 175
0.489019 -0.079824 0.018024 -0.891083 0.196218 0.409230 13 152 179
0.346867 -0.252881 -0.294905 -0.738201 0.671669 0.062611 33 213 135
-0.079256 0.294674 0.606361 0.073413 -0.856841 -0.510327 136 18 62
0.240125 -0.105326 0.738683 -0.335816 0.355375 -0.872317 84 172 16
0.045378 -0.331636 -0.241365 0.319796 0.946975 0.031142 168 248 131
0.264427 0.001269 0.769705 -0.143513 -0.018243 -0.989480 109 125 1
-0.086177 0.240222 -0.986400 0.646029 -0.756478 0.101920 209 31 140
-0.143642 0.001430 -1.125643 0.705165 -0.122713 0.698344 217 111 216
0.172630 0.346846 0.209522 -0.018592 -0.999468 -0.026788 125 0 124
0.286908 0.025387 -1.019811 -0.866720 0.005780 0.498762 16 128 191
0.431758 0.055577 0.536118 -0.897097 -0.259220 -0.357802 13 94 81
0.400090 0.209369 0.468022 -0.796732 -0.589754 -0.131943 25 52 110
-0.150930 -0.038017 -0.596826 0.994648 0.011627 -0.102661 254 128 114
-0.135729 -0.283361 0.626700 0.128666 0.788708 -0.601153 143 228 50
0.118925 0.261469 0.279581 0.779345 -0.618425 0.100857 226 48 140
0.252371 -0.330678 -0.066260 -0.185370 0.982669 -0.000067 103 252 127
-0.026116 -0.284933 0.584353 0.016951 0.857724 -0.513831 129 236 61
-0.538086 -0.049783 0.412265 0.998839 0.047463 0.008289 254 133 128
0.320624 -0.288279 -0.303888 -0.569987 0.817482 0.082699 54 231 138
0.455450 -0.145637 -0.058596 -0.770749 0.383597 0.508724 29 176 192
0.036167 0.114026 0.447403 0.829452 -0.463348 0.311960 233 68 167
0.320247 0.093948 -0.725145 -0.939461 -0.333577 0.078359 7 84 137
0.016395 0.010109 0.768668 -0.000702 -0.042215 -0.999108 127 122 0
-0.196442 -0.300332 0.637034 0.286266 0.822118 -0.492111 163 232 64
-0.047931 -0.255300 0.110988 0.032832 0.638723 0.768736 131 208 225
-0.545448 0.034211 0.333030 0.989417 -0.079856 0.121145 253 117 142
-0.185693 0.339868 0.411471 -0.306334 -0.951923 0.001524 88 6 127
-0.031651 0.303901 0.128915 0.243066 -0.873138 0.422550 158 16 181
0.250230 0.322012 -0.228258 -0.361345 -0.930887 0.053661 81 8 134
0.379747 0.220917 -0.139895 -0.736117 -0.652598 0.179573 33 44 150
0.285434 -0.338839 -0.280420 -0.339206 0.938331 0.066891 84 247 136
-0.168179 0.343571 0.473537 -0.223497 -0.974501 0.019925 99 3 130
0.054062 -0.344680 -0.469102 0.343702 0.938988 0.013021 171 247 129
-0.323547 -0.077460 0.000047 0.017739 0.249744 0.968149 129 159 250
0.200575 0.297707 -0.646541 -0.461690 -0.885850 0.045963 68 14 133
0.364295 -0.235468 -0.189734 -0.588532 0.671916 0.449621 52 213 184
-0.526132 0.001084 0.137973 0.888742 0.082146 0.450987 240 137 185
0.009065 -0.284012 -0.304101 0.670080 0.742185 0.012401 212 222 129
0.354535 0.003613 0.685185 -0.686378 0.132270 -0.715115 39 144 36
-0.495471 0.130349 0.201294 0.890906 -0.300363 0.340689 241 89 170
-0.535354 -0.002675 0.382579 0.997723 0.037421 0.056120 254 132 134
-0.198768 -0.037009 -1.023842 0.994716 0.076073 0.068943 254 137 136
0.369200 -0.295463 -0.036736 -0.624031 0.732050 0.273291 47 220 162
0.145652 0.278512 0.240650 0.328904 -0.823146 0.462874 169 22 186
-0.350896 -0.306641 0.188836 0.127808 0.879402 0.458603 143 239 185
-0.161607 0.058515 -0.619566 0.955778 -0.205460 -0.210415 249 101 100
-0.107553 0.081816 -0.416468 0.977718 -0.199018 -0.066779 252 102 118
0.303537 -0.311505 -0.111227 -0.344227 0.932787 0.106850 83 246 141
0.186800 0.161286 -1.090154 -0.621159 -0.532863 0.574647 48 59 200
0.195562 -0.360491 0.228077 0.184705 0.982743 -0.010033 151 252 126
-0.154760 -0.063840 -0.398639 0.936807 0.192326 -0.292238 246 152 90
-0.297455 -0.311036 0.134919 0.162626 0.883152 0.439994 148 240 183
-0.016863 -0.228404 -1.095342 0.063689 0.654494 0.753380 135 210 223
-0.513928 0.130493 0.439453 0.971245 -0.205630 -0.120000 251 101 112
0.374643 -0.213893 -0.402219 -0.766594 0.641266 -0.033336 29 209 123
-0.006183 -0.281669 -0.148150 0.584293 0.780935 -0.220775 201 227 99
-0.126009 -0.213465 -0.892172 0.809973 0.586022 -0.022840 230 202 124
0.206650 -0.346349 0.061101 -0.082586 0.995493 0.046616 116 254 133
0.426818 -0.050309 -0.327947 -0.996804 0.047936 0.063901 0 133 135
-0.068473 -0.065469 0.772538 0.058944 0.182825 -0.981377 135 150 2
0.440238 0.108412 0.486737 -0.935660 -0.273413 -0.223125 8 92 99
-0.081163 0.294999 0.377124 -0.320866 -0.841249 0.435139 86 20 182
0.164584 0.346817 0.333660 -0.170264 -0.983931 -0.053755 105 2 120
-0.076649 -0.260520 -0.918492 0.612079 0.790269 0.028899 205 228 131
0.265039 -0.330082 -0.318188 -0.391246 0.915198 0.096636 77 244 139
-0.002365 0.337955 0.487316 -0.057555 -0.968299 -0.243073 120 4 96
-0.131984 -0.344427 0.515712 -0.295724 0.952593 0.071516 89 248 136
0.459567 0.101410 0.335235 -0.906497 -0.419520 -0.047602 11 74 121
-0.282974 0.325879 0.427790 0.144696 -0.976750 -0.158183 145 2 107
0.451771 -0.174777 0.204106 -0.832014 0.544515 0.106096 21 196 141
0.350289 -0.244657 -0.322993 -0.687201 0.626876 0.367127 39 207 174
0.073311 -0.331818 -0.366007 0.287990 0.956834 0.039128 164 249 132
0.275975 -0.313327 -0.376369 -0.619270 0.784246 0.038253 48 227 132
-0.447998 -0.098343 0.011429 0.377031 0.160788 0.912138 175 148 243
-0.232066 0.265697 0.646661 0.187887 -0.740706 -0.645021 151 33 45
0.101632 -0.348151 -0.191192 0.170558 0.968703 0.180346 149 251 150
-0.032050 0.196372 -0.147593 0.713966 -0.612859 -0.338609 218 49 84
0.406671 0.046258 0.593420 -0.879557 -0.163110 -0.446962 15 106 70
-0.170923 0.147704 -0.939503 0.894986 -0.439181 -0.078234 241 71 117
-0.014602 -0.256480 -0.190355 0.589843 0.630362 0.504707 202 207 191
0.411888 0.220571 0.082246 -0.759400 -0.600925 0.249399 30 50 159
0.377522 0.162825 0.604154 -0.708625 -0.233780 -0.665731 37 97 42
0.259946 -0.065791 -1.100920 -0.864428 0.151913 0.479256 17 146 188
-0.315291 -0.202711 0.732934 0.659147 0.513473 -0.549427 211 192 57
0.208284 0.304394 -0.590772 -0.476100 -0.879058 0.024196 66 15 130
0.308846 -0.321797 -0.088982 -0.369008 0.922708 0.111551 80 245 141
-0.123575 0.171310 -1.051232 0.618382 -0.646780 0.446406 206 45 184
-0.187047 0.337200 0.409998 -0.322066 -0.946684 0.007963 86 6 128
-0.278539 0.321635 0.463708 0.222400 -0.962250 -0.156883 155 4 107
-0.208285 -0.015969 -0.923263 0.996787 -0.073087 -0.032767 254 118 123
-0.202994 -0.029275 -0.914303 0.991437 0.091062 -0.093602 253 139 115
0.274170 0.087439 -0.973233 -0.821470 -0.213203 0.528897 22 100 194
0.300695 0.154658 -0.830374 -0.908827 -0.413838 0.052641 11 74 134
-0.002706 -0.298106 -0.304033 0.676086 0.734228 -0.061775 213 221 119
0.314887 -0.321820 0.227719 -0.280704 0.959745 0.009684 91 249 128
-0.256713 0.292654 0.600524 0.439202 -0.793563 -0.421140 183 26 73
-0.504121 0.022276 0.545160 0.913879 -0.010265 -0.405857 244 126 75
0.299554 -0.165617 -0.660960 -0.922483 0.385688 0.016438 9 176 129
-0.432975 -0.255952 0.301346 0.556986 0.812750 0.170892 198 231 149
-0.477285 -0.188144 0.515549 0.818467 0.458978 -0.345616 231 186 83
0.277141 0.162801 0.697359 -0.396657 -0.451571 -0.799216 76 69 25
0.309018 0.114431 -0.680736 -0.848170 -0.528384 0.037657 19 60 132
-0.107449 -0.031235 0.074838 -0.413135 0.078906 0.907245 74 137 243
0.367957 -0.106331 -0.503491 -0.995377 0.092607 0.025447 0 139 130
-0.115887 0.214660 -0.968127 0.725965 -0.683771 0.073699 220 40 136
0.088386 0.321966 -0.173000 0.352021 -0.933777 -0.064357 172 8 119
0.353966 -0.321669 0.140465 -0.478398 0.853011 0.208583 66 236 154
-0.011954 -0.287739 -0.495106 0.591355 0.806410 0.001151 202 230 127
-0.116598 0.323835 0.224173 0.100405 -0.874890 0.473800 140 15 187
0.057156 0.326652 -0.403141 0.356189 -0.933745 -0.035343 172 8 122
-0.082803 -0.029293 -0.063100 0.878524 0.108291 -0.465262 239 141 68
0.344714 0.171228 0.650269 -0.754823 -0.409886 -0.512089 31 75 62
0.253711 0.232370 0.616244 -0.287205 -0.750468 -0.595240 90 31 51
-0.145292 0.319535 0.568499 0.010902 -0.891217 -0.453446 128 13 69
-0.033544 -0.319748 0.206050 0.212937 0.847474 0.486257 154 235 189
-0.185651 0.324161 0.305173 -0.338382 -0.941009 -0.000582 84 7 127
-0.125160 0.227697 0.297671 -0.722250 -0.677474 -0.139222 35 41 109
0.208906 0.316607 -0.476921 -0.374240 -0.926206 0.045689 79 9 133
0.327633 0.283837 -0.013110 -0.532234 -0.842761 0.080506 59 20 137
-0.097246 -0.273416 -0.800104 0.743868 0.664665 -0.069870 222 212 118
-0.099425 -0.179284 -0.515200 0.909158 0.414334 -0.041951 243 180 122
0.306802 -0.001657 0.720767 -0.521398 -0.063093 -0.850978 61 119 19
0.050468 0.296341 -0.962117 -0.006544 -0.980278 0.197518 126 2 152
0.494428 -0.012865 0.237420 -0.998784 -0.048393 0.009461 0 121 128
0.316289 0.291955 -0.181199 -0.529639 -0.839010 0.124681 59 20 143
0.151406 0.258341 -0.965548 -0.482371 -0.830123 0.279667 65 21 163
0.342877 -0.308847 0.147662 -0.523595 0.851967 0.000085 60 236 127
0.345800 -0.295328 0.045563 -0.488931 0.858698 0.153571 65 236 147
0.050792 0.315223 -0.904549 0.130107 -0.988138 0.081582 144 1 137
-0.434824 -0.129590 0.624313 0.709761 0.306882 -0.634084 217 166 46
-0.516389 0.058707 0.127271 0.818984 -0.147832 0.554447 231 108 198
-0.519167 0.139895 0.237089 0.924895 -0.258935 0.278429 245 94 162
0.287675 0.142265 -0.942357 -0.866104 -0.469444 0.171714 17 67 149
-0.097547 0.090184 0.764618 0.063007 -0.334673 -0.940226 135 84 7
0.217308 0.337218 -0.226726 -0.238453 -0.968478 0.072040 97 4 136
0.064281 0.080336 -1.148553 -0.171017 -0.462549 0.869944 105 68 238
0.409959 0.064900 -0.327113 -0.958193 -0.275436 0.077471 5 92 137
-0.058095 -0.245883 -0.482559 0.758107 0.651055 -0.037431 224 210 122
-0.097471 0.243836 -0.872321 0.710869 -0.702996 -0.021485 218 37 124
-0.191057 0.011058 -1.036387 0.988607 -0.038400 0.145537 253 122 146
0.368301 0.279099 0.355981 -0.462707 -0.879568 -0.110732 68 15 113
-0.067392 -0.111922 0.089797 -0.062765 0.253273 0.965357 119 159 250
0.194811 0.281992 -0.721748 -0.365097 -0.928193 0.071842 80 9 136
-0.474885 -0.021523 0.604926 0.886778 -0.028102 -0.461340 240 123 68
0.238766 0.264603 0.599787 -0.278230 -0.770944 -0.572917 92 29 54
-0.064692 0.261046 0.170287 0.040637 -0.712679 0.700312 132 36 216
0.268095 -0.330575 -0.085204 -0.389800 0.910301 0.139312 77 243 145
0.332351 -0.333907 0.272135 -0.427497 0.901263 -0.070514 72 242 118
-0.037261 -0.290708 -0.477667 0.677383 0.719929 -0.151177 213 219 108
-0.448530 0.207396 0.396732 0.724926 -0.688727 -0.011699 219 39 126
0.064024 -0.337167 -0.539279 0.311399 0.949476 -0.039077 167 248 122
0.422964 0.177412 0.179726 -0.774654 -0.630330 0.050939 28 47 133
-0.312672 -0.236819 0.668264 0.533214 0.685207 -0.496160 195 214 64
0.382645 0.225595 0.520953 -0.742626 -0.620980 -0.250781 32 48 95
0.255566 0.103720 -1.045049 -0.828092 -0.266075 0.493424 21 93 190
0.317928 -0.224360 -0.593947 -0.714785 0.601844 0.356183 36 204 172
-0.124682 -0.183228 -0.041810 0.208572 0.437831 0.874529 154 183 239
0.248102 0.218572 -0.799310 -0.773879 -0.629884 0.066009 28 47 135
-0.168453 0.074566 -0.644468 0.958566 -0.145349 -0.244999 249 108 96
0.038631 0.315799 -0.227387 0.574167 -0.818198 -0.029725 200 23 123
0.275003 0.319114 0.464802 -0.296385 -0.923863 -0.242145 89 9 96
-0.341830 0.164097 -0.004164 0.447520 -0.485311 0.751132 184 65 223
0.030743 -0.321155 -0.757782 0.347830 0.937540 0.005700 171 247 128
0.293146 -0.282716 -0.433740 -0.676184 0.731243 0.089770 41 220 138
-0.192369 0.111252 -0.015932 -0.002580 -0.185052 0.982725 127 103 252
0.308504 -0.260822 -0.448644 -0.673739 0.735082 0.075694 41 221 137
0.154398 0.333679 -0.562017 -0.132868 -0.990835 0.024335 110 1 130
-0.122636 0.177152 -0.684911 0.798164 -0.557932 -0.227257 229 56 98
-0.481070 -0.199184 0.241371 0.811498 0.514313 0.277405 230 193 162
0.247738 0.225530 0.664064 -0.142266 -0.660617 -0.737120 109 43 33
0.148755 0.338902 -0.251243 0.162296 -0.986741 0.001782 148 1 127
0.300051 -0.132964 -0.985353 -0.971171 0.199737 0.130122 3 152 144
0.183410 0.307665 0.371776 0.374741 -0.926739 0.026913 175 9 130
-0.103796 -0.035678 0.787617 0.047395 0.118633 -0.991806 133 142 1
0.077410 0.207853 0.286880 0.618539 -0.559925 0.551266 206 56 197
-0.029749 -0.257336 -0.160466 0.659504 0.696056 -0.283833 211 216 91
0.340399 -0.331529 0.164722 -0.434831 0.900434 -0.011842 72 242 125
0.294425 -0.254232 -0.463614 -0.690721 0.715085 0.107513 39 218 141
0.361690 -0.318289 0.093539 -0.453269 0.884264 0.112362 69 240 141
-0.366095 0.119478 0.709245 0.674652 -0.101357 -0.731144 213 114 34
-0.527021 -0.060267 0.486154 0.964785 0.192599 -0.179153 250 152 104
0.061358 0.332705 -0.369058 0.359702 -0.932996 -0.011507 173 8 126
-0.315929 -0.017853 0.019597 0.499137 0.131911 0.856424 191 144 236
0.358963 0.224921 0.546830 -0.665798 -0.637064 -0.388410 42 46 77
-0.187713 -0.336226 0.419162 -0.394766 0.911820 -0.112888 77 243 113
0.087102 0.254045 0.665952 -0.271140 -0.635000 -0.723366 92 46 35
0.426853 0.087114 -0.237045 -0.942205 -0.318835 0.102925 7 86 140
0.411856 -0.023345 0.604527 -0.836753 0.157414 -0.524467 20 147 60
0.328656 -0.122926 -0.738401 -0.952098 0.303616 0.036416 6 166 132
-0.020638 0.060867 0.758548 0.050945 -0.121746 -0.991253 133 111 1
-0.105267 -0.248793 0.695809 0.186331 0.662930 -0.725124 151 212 35
0.237128 -0.210697 -0.970068 -0.819632 0.551903 0.153646 22 197 147
-0.254005 -0.105518 0.752967 0.438451 0.217126 -0.872134 183 155 16
-0.339694 0.057763 0.709661 0.512192 -0.245433 -0.823056 192 96 22
0.063024 0.014528 -1.164979 -0.178524 -0.130066 0.975301 104 110 251
0.135519 0.294707 0.242458 0.690374 -0.721188 0.057200 215 35 134
-0.168266 0.315789 0.548494 0.052917 -0.968721 -0.242444 134 3 96
0.187456 0.308553 -0.689914 -0.450812 -0.889896 0.069664 70 14 136
-0.325732 -0.013127 -0.028610 0.539107 0.054542 0.840469 196 134 234
-0.006119 0.193549 0.171456 0.254837 -0.495519 0.830373 159 64 233
-0.058826 0.154587 -1.120043 0.063889 -0.581425 0.811087 135 53 230
-0.176671 0.337736 0.520947 0.043950 -0.950520 -0.307540 133 6 88
-0.136684 0.254016 0.160016 -0.164946 -0.746444 0.644682 106 32 209
-0.146752 -0.099965 -0.593609 0.972042 0.214247 -0.096090 251 154 115
0.332981 -0.300523 -0.068772 -0.498871 0.857986 0.122427 63 236 143
-0.051845 0.157483 -1.116490 0.167644 -0.520907 0.836989 148 61 234
-0.531616 0.045783 0.432467 0.982916 -0.184031 -0.002899 252 104 127
-0.054812 -0.260529 -0.804297 0.575565 0.817391 -0.024433 200 231 124
0.410094 0.211308 -0.033101 -0.771558 -0.630936 0.081349 29 47 137
0.281603 0.279202 0.556196 -0.376789 -0.793516 -0.477873 79 26 66
0.003292 -0.310806 -0.774552 0.391879 0.919525 -0.030083 177 244 123
0.371758 -0.036118 -0.630009 -0.990090 0.136416 0.033341 1 144 131
0.081390 -0.195209 -1.133709 -0.184861 0.443441 0.877033 103 184 239
-0.194528 -0.374190 0.447354 -0.204512 0.978338 0.032086 101 252 131
0.099962 -0.262051 0.295391 0.707095 0.703210 -0.074248 217 217 118
0.399151 0.148846 0.593185 -0.789638 -0.342857 -0.508842 26 83 62
0.224423 -0.268652 -0.899023 -0.601536 0.788550 0.127845 50 228 143
-0.390588 0.246325 0.459580 0.549460 -0.809156 -0.208230 197 24 100
0.338807 -0.029272 -0.882737 -0.979076 0.031532 0.201035 2 131 153
0.327092 0.175765 -0.571850 -0.851257 -0.523072 0.041916 18 60 132
0.446435 -0.022762 -0.112944 -0.866881 0.041302 0.496801 16 132 190
0.359028 -0.317648 0.136651 -0.551487 0.830404 0.079313 57 233 137
0.145060 -0.285734 -1.008904 -0.427003 0.838170 0.339323 73 234 170
0.156929 0.200085 0.715729 -0.158889 -0.404940 -0.900432 107 75 12
0.152703 -0.309004 -0.696506 -0.192907 0.979561 0.056976 102 252 134
-0.148754 0.274391 0.186784 0.261789 -0.726030 0.635882 160 34 208
0.340997 0.302804 0.303245 -0.620483 -0.772006 -0.137870 48 29 109
0.048988 -0.110405 0.310634 0.954455 0.296726 0.031131 249 165 131
-0.173995 0.052476 -0.991716 0.984808 -0.158282 0.071409 253 107 136
0.310532 -0.334110 0.231246 -0.321995 0.946732 0.004081 86 248 128
-0.375607 -0.312803 0.192872 0.352353 0.825640 0.440643 172 232 183
-0.002028 0.107356 -1.157710 0.008866 -0.496640 0.867911 128 64 238
0.127326 -0.305904 0.411011 0.611554 0.790202 0.039777 205 228 132
-0.530426 -0.026459 0.334159 0.990063 0.037862 0.135431 253 132 144
-0.145703 0.336972 0.411091 -0.120801 -0.942688 0.311040 112 7 167
-0.177606 -0.160246 -1.029809 0.931105 0.363188 0.033746 246 173 131
-0.001223 -0.006692 0.160220 0.931097 -0.132701 -0.339778 246 110 84
-0.144417 0.141389 -1.057960 0.816832 -0.556450 0.152147 231 56 146
0.023860 0.307583 0.541518 -0.179908 -0.811461 -0.556025 104 24 56
-0.138453 -0.040709 -0.364575 0.982025 -0.017433 -0.187944 252 125 103
0.195612 0.305170 0.557344 -0.131819 -0.897051 -0.421809 110 13 73
-0.467249 -0.034092 0.028742 0.581097 0.219550 0.783661 201 155 227
-0.014497 0.142145 0.261723 0.391457 -0.333892 0.857483 177 84 236
0.208109 -0.218997 -1.048585 -0.725069 0.626367 0.286251 35 207 163
0.282346 -0.173608 0.696844 -0.231144 0.397611 -0.887963 98 178 14
0.303102 -0.008317 -0.956555 -0.861066 0.027195 0.507766 17 130 192
-0.043425 -0.240606 -0.442583 0.808862 0.587361 0.027376 230 202 130
0.120433 0.021141 -1.161586 -0.405684 -0.059492 0.912075 75 119 243
-0.332382 -0.328746 0.250458 0.222413 0.949330 0.222046 155 248 155
0.224393 -0.316675 -0.536761 -0.521765 0.843156 0.129805 60 235 144
0.282354 -0.053915 -1.050300 -0.946642 0.115996 0.300690 6 142 165
-0.227849 -0.249336 0.075371 0.075065 0.662913 0.744924 137 212 222
0.153737 0.350279 0.316356 0.133961 -0.988245 0.073662 144 1 136
-0.017680 0.123698 0.197395 -0.023878 -0.334488 0.942097 124 84 247
0.114334 0.332363 -0.639522 -0.097895 -0.995170 0.007240 115 0 128
0.004402 0.297888 -0.626826 0.532966 -0.843534 -0.066316 195 19 119
-0.055483 -0.284853 0.360583 -0.342556 0.792732 0.504213 83 228 191
-0.111118 0.247036 0.712780 -0.018199 -0.563259 -0.826080 125 55 22
0.068300 -0.125752 -1.146404 -0.211488 0.276565 0.937435 100 162 247
0.460749 0.150648 0.054062 -0.858397 -0.398981 0.322441 18 76 168
-0.401468 0.266776 0.462688 0.582396 -0.788430 -0.197973 201 26 102
0.396631 -0.246335 -0.026190 -0.761852 0.632592 0.139312 30 208 145
0.207965 0.029046 0.687242 -0.551519 -0.090846 -0.829201 57 115 21
-0.188127 0.301784 0.246316 0.056409 -0.908196 0.414726 134 11 180
-0.179793 0.173433 0.755011 0.263421 -0.342348 -0.901891 161 83 12
0.177920 0.316780 0.511485 -0.106198 -0.929231 -0.353909 113 9 82
-0.196610 0.078129 -0.912002 0.952035 -0.267351 -0.148841 248 93 108
-0.001316 -0.281398 -0.355843 0.721869 0.690637 0.043876 219 215 133
-0.087746 -0.067112 0.770877 0.091298 0.124074 -0.988064 139 143 1
0.264121 0.074608 0.738214 -0.384350 -0.286259 -0.877685 78 91 15
0.386053 -0.230036 0.516011 -0.712338 0.663912 -0.227587 36 212 98
0.194782 -0.356794 0.247479 0.101667 0.994777 0.009042 140 254 128
0.229918 0.138719 0.730359 -0.072321 -0.367730 -0.927116 118 80 9
-0.000207 -0.353280 0.463200 -0.134784 0.988511 0.068406 110 253 136
-0.036063 -0.167772 0.255128 0.200692 0.309829 0.929370 153 167 245
0.201775 -0.252949 -0.952438 -0.666827 0.732161 0.138859 42 220 145
-0.349065 0.184903 0.686817 0.530738 -0.454772 -0.715192 195 69 36
-0.187107 0.170379 -0.055159 0.248179 -0.523030 0.815381 159 60 231
0.097945 -0.267075 0.655249 -0.010899 0.693134 -0.720727 126 215 35
0.386509 -0.289228 0.162165 -0.663429 0.744083 0.078761 42 222 137
-0.091953 0.245494 -1.000643 0.578186 -0.788182 0.210880 201 27 154
-0.498050 -0.161933 0.237954 0.834036 0.479667 0.272588 233 188 162
0.209849 -0.234041 -0.973148 -0.703057 0.702213 0.112285 37 217 141
-0.259552 -0.238994 0.031411 0.342144 0.576628 0.741915 171 201 222
0.051461 0.293838 -0.249589 0.565032 -0.819382 -0.096707 199 23 115
-0.049720 -0.064181 0.153516 -0.081555 0.090204 0.992578 117 139 254
0.038511 -0.295459 -1.001705 0.029675 0.910217 0.413067 131 243 180
0.053052 0.297839 -0.160971 0.597660 -0.786706 0.154582 203 27 147
0.321643 -0.086415 0.684413 -0.602920 0.143065 -0.784869 50 145 27
0.242172 -0.241014 -0.934516 -0.674655 0.657613 0.335239 41 211 170
0.174393 0.317862 0.313273 0.381331 -0.923558 0.040331 176 9 132
-0.006251 0.325893 0.523579 0.009026 -0.897341 -0.441247 128 13 71
0.412043 0.079082 -0.324670 -0.956617 -0.282875 0.069756 5 91 136
-0.061218 -0.067623 0.786638 0.033046 0.205601 -0.978078 131 153 2
-0.323731 0.272230 0.652503 0.530474 -0.624717 -0.572997 195 47 54
0.140551 0.318843 -0.872951 -0.314773 -0.944732 0.091644 87 7 139
0.281842 0.179772 -0.849043 -0.870993 -0.490214 0.032588 16 64 131
0.499982 0.034352 0.141688 -0.998887 0.033678 0.033015 0 131 131
0.270025 0.223823 -0.798273 -0.840895 -0.540953 0.016288 20 58 129
-0.207970 -0.091935 -0.948694 0.967171 0.232774 -0.101963 250 157 114
0.307370 0.289062 -0.225254 -0.542656 -0.837343 0.066200 58 20 135
0.106062 0.197971 0.226631 0.807250 -0.590161 -0.007568 230 52 126
-0.052232 0.254253 0.618542 -0.037259 -0.745004 -0.666018 122 32 42
-0.089134 0.161212 0.739194 0.052739 -0.461995 -0.885313 134 68 14
0.023001 0.279958 -0.250339 0.653289 -0.754623 -0.061303 210 31 119
0.279230 0.261498 0.533209 -0.397424 -0.807279 -0.436296 76 24 71
0.144308 -0.308993 -0.886514 -0.440745 0.887495 0.134524 71 240 144
0.217021 -0.322363 -0.538793 -0.486801 0.873510 0.002242 65 238 127
-0.115175 0.228028 -0.969577 0.721381 -0.692504 -0.006915 219 39 126
0.217401 0.197016 -1.047636 -0.727283 -0.571101 0.380660 34 54 176
0.288818 0.203009 -0.666883 -0.811641 -0.581892 0.051393 24 53 134
-0.158407 0.280720 0.381322 -0.647666 -0.761878 -0.008399 44 30 126
0.433333 -0.223001 0.075223 -0.822271 0.563714 0.078085 22 199 137
0.413878 0.180079 -0.116152 -0.838474 -0.461472 0.289837 20 68 164
0.081352 0.330780 -0.539899 0.206016 -0.978325 0.020899 153 2 130
-0.437535 0.152449 0.632535 0.749875 -0.474540 -0.460976 223 66 68
-0.273113 0.221626 0.688638 0.387125 -0.607825 -0.693313 176 50 39
0.329394 -0.288546 0.566617 -0.309552 0.826633 -0.469952 88 232 67
-0.133376 -0.063799 -0.551067 0.995331 0.095732 -0.012298 254 139 125
0.040486 0.296598 -0.489995 0.417057 -0.908851 0.007341 180 11 128
0.412087 0.033933 0.580763 -0.793400 -0.201264 -0.574465 26 101 54
0.367571 0.255694 -0.032522 -0.626004 -0.749332 0.215917 47 31 155
0.161414 -0.305504 -0.771859 -0.349818 0.933801 0.075127 82 246 137
-0.007671 0.247663 0.726126 0.001751 -0.550484 -0.834844 127 57 21
-0.261906 0.260413 0.664543 0.432236 -0.715984 -0.548214 182 36 57
-0.125299 0.098322 -1.117120 0.549135 -0.380505 0.744088 197 78 222
-0.052919 -0.087632 -0.180185 0.796346 0.187391 0.575080 229 151 200
0.090909 -0.324981 -0.807723 0.097228 0.988918 0.112197 139 253 141
0.426898 -0.137130 0.420725 -0.959911 0.170311 -0.222632 5 149 99
-0.208409 0.028589 -0.953618 0.995351 -0.094047 -0.020793 254 115 124
0.105488 0.289136 0.618368 0.009505 -0.768449 -0.639840 128 29 45
0.037035 -0.329205 -0.799052 0.337761 0.939859 -0.050825 170 247 121
-0.013325 0.321725 0.228006 0.115799 -0.801766 0.586313 142 25 202
-0.188778 0.110234 -0.993261 0.926600 -0.372299 -0.052964 245 80 120
-0.290006 -0.344644 0.285409 0.111241 0.988441 0.103002 141 253 140
-0.272994 -0.134836 0.751580 0.356332 0.235893 -0.904092 172 157 12
0.249992 0.258149 -0.583945 -0.665641 -0.745872 0.024435 42 32 130
0.373230 -0.283272 0.443576 -0.539103 0.809600 -0.232198 58 230 97
0.376842 0.266038 0.085194 -0.613021 -0.785072 0.088693 49 27 138
0.155168 -0.247283 -1.072454 -0.442825 0.703029 0.556468 71 217 198
-0.042812 -0.288437 0.175162 0.085326 0.800091 0.593780 138 229 203
-0.123839 0.217358 0.085054 0.094692 -0.644193 0.758978 139 45 224
0.439671 0.163966 0.099363 -0.855989 -0.515675 0.036908 18 61 132
0.347021 0.038706 -0.733404 -0.980192 -0.162249 0.113575 2 106 141
0.103146 -0.313087 -0.994700 -0.340080 0.937673 0.071519 84 247 136
0.098521 -0.264213 -1.041567 -0.166467 0.827937 0.535545 106 233 195
-0.220491 -0.247177 0.687048 0.380735 0.656741 -0.650947 176 211 44
0.198801 0.316608 0.312944 0.387425 -0.921788 0.014432 176 9 129
-0.174153 -0.037350 -1.077032 0.955569 0.099683 0.277400 249 140 162
0.014387 0.311315 -0.931448 0.255747 -0.963185 0.082877 160 4 138
-0.042044 0.228812 0.709673 0.046044 -0.589165 -0.806700 133 52 24
0.021243 -0.051437 0.302765 0.975381 0.083530 -0.204093 251 138 101
0.454681 -0.115030 0.546142 -0.965484 0.226688 -0.128270 4 156 111
-0.227966 0.047959 0.770424 0.042659 -0.059489 -0.997317 132 119 0
-0.094906 0.216612 -1.030816 0.582268 -0.671138 0.458843 201 41 186
0.195569 -0.305947 -0.738991 -0.583159 0.807396 0.089650 53 230 138
0.105371 0.342298 -0.608744 0.031791 -0.998376 0.047279 131 0 133
-0.265088 0.326245 0.492984 0.178544 -0.942500 -0.282518 150 7 91
0.458166 -0.167296 -0.059508 -0.876189 0.470509 0.104472 15 187 140
0.161416 -0.332933 0.274258 0.223593 0.936127 0.271428 156 246 162
0.179771 -0.012849 -1.151112 -0.627712 -0.006332 0.778420 47 126 226
-0.288909 0.133573 -0.043395 0.197479 -0.462754 0.864211 152 68 237
-0.491268 0.169772 0.411144 0.848825 -0.513284 -0.126634 235 62 111
-0.193318 0.279846 0.652871 0.188093 -0.762831 -0.618635 151 30 48
0.040187 0.317957 -0.390804 0.402518 -0.910846 -0.091316 178 11 115
-0.118476 0.222484 0.707246 0.105322 -0.573405 -0.812474 140 54 23
0.271242 -0.273655 0.622951 -0.248681 0.712114 -0.656545 95 218 43
0.024515 0.186791 -1.099957 -0.065334 -0.635968 0.768945 119 46 225
-0.336248 0.257336 0.608774 0.515655 -0.664779 -0.540527 193 42 58
0.455033 -0.112700 0.486933 -0.964746 0.232061 -0.124150 4 157 111
-0.146345 -0.275561 0.428195 -0.843281 0.508330 -0.174580 19 192 105
0.050674 -0.276635 0.065626 0.692041 0.711322 -0.122882 215 218 111
0.254807 -0.241259 -0.858443 -0.704487 0.553237 0.444553 37 198 184
0.260026 0.044581 -1.045744 -0.876709 -0.230443 0.422229 15 98 181
0.117384 -0.310829 -0.910306 -0.176061 0.979183 0.101014 105 252 140
0.259811 -0.285544 -0.568087 -0.719104 0.693758 0.039871 35 215 132
0.020266 -0.288347 0.635919 0.010858 0.772936 -0.634391 128 226 46
0.256278 0.277784 0.562498 -0.241710 -0.851723 -0.464913 96 18 68
-0.116269 -0.312626 0.422605 -0.459739 0.841510 0.283727 68 234 163
0.261396 0.209369 -0.864868 -0.887669 -0.459887 0.023402 14 68 130
0.367077 0.265287 0.237428 -0.652630 -0.755447 -0.058085 44 31 120
-0.029302 -0.324282 0.303538 -0.182839 0.792960 0.581193 104 228 201
-0.001777 0.175648 -0.019329 0.838596 -0.510387 -0.190426 234 62 103
0.309635 -0.330634 -0.003185 -0.387778 0.911853 0.134730 78 243 144
-0.420206 -0.279186 0.318244 0.563020 0.808462 0.171456 199 230 149
0.309862 -0.139280 -0.818055 -0.950929 0.304498 0.054906 6 166 134
-0.228277 -0.036109 -0.073994 0.051044 0.038364 0.997959 134 132 254
0.395806 0.231139 0.156354 -0.699079 -0.714791 0.019045 38 36 129
-0.141228 -0.332259 0.378508 -0.416577 0.899164 0.134047 74 242 144
-0.323957 -0.333873 0.312609 0.244699 0.951222 0.187883 158 248 151
-0.053624 -0.212859 -0.116030 0.890881 0.335447 -0.306279 241 170 88
0.284251 -0.222289 -0.687430 -0.762324 0.647171 0.005605 30 210 128
-0.014296 0.187228 -0.148039 0.582243 -0.586067 0.563488 201 52 199
0.069486 0.322055 -0.745558 0.185370 -0.982354 0.024872 151 2 130
0.264804 -0.053615 -1.068843 -0.909233 0.228051 0.348264 11 156 171
-0.002776 -0.309784 -0.732371 0.428182 0.901874 -0.057294 182 242 120
0.020718 0.134272 -1.123164 -0.055883 -0.558923 0.827334 120 56 232
-0.119442 0.328350 0.443542 -0.289754 -0.913117 0.286810 90 11 164
-0.192759 -0.040870 -0.842412 0.999013 -0.024805 -0.036846 254 124 122
0.005348 -0.314241 -0.350744 0.536799 0.819599 -0.200260 195 231 101
0.470431 -0.078633 -0.077582 -0.828921 0.158874 0.536328 21 147 195
0.384349 -0.305245 0.238819 -0.544090 0.830015 0.122639 58 233 143
0.331724 0.250813 0.544833 -0.627577 -0.663445 -0.407415 47 42 75
-0.526050 0.034854 0.321126 0.962495 -0.185458 0.198012 250 103 152
0.422329 -0.225124 -0.136659 -0.746411 0.642838 0.172135 32 209 149
-0.004351 -0.297638 -0.465225 0.558076 0.829158 -0.032370 198 233 123
-0.297241 0.025942 0.743834 0.534283 0.088181 -0.840694 195 138 20
0.293367 -0.199649 -0.708776 -0.901177 0.428617 0.064548 12 182 135
0.028820 0.154577 0.740287 -0.025445 -0.353413 -0.935121 124 82 8
0.361467 0.012538 0.706884 -0.682752 0.068499 -0.727433 40 136 34
-0.123984 -0.046578 -0.244997 0.950124 0.078635 -0.301797 248 137 89
0.015810 -0.301376 -0.993894 0.163039 0.949891 0.266695 148 248 161
0.000644 -0.311528 -0.710937 0.448162 0.888699 -0.096771 184 240 115
-0.038261 -0.063161 0.796369 0.044296 0.054279 -0.997543 133 134 0
-0.475150 0.054994 0.594562 0.813607 -0.240220 -0.529470 231 96 59
-0.076959 0.070067 -0.228044 0.968734 -0.242154 -0.053999 251 96 120
0.439968 -0.061388 0.486866 -0.935541 0.129179 -0.328750 8 143 85
-0.478342 -0.205985 0.248676 0.773038 0.597002 0.214481 226 203 154
0.284832 -0.119845 0.693856 -0.298108 0.408911 -0.862510 89 179 17
-0.059886 0.241313 -1.008690 0.501849 -0.839540 0.208138 191 20 154
-0.253878 -0.301234 0.136742 0.109033 0.748109 0.654557 141 222 210
-0.003328 0.264194 -0.351938 0.734108 -0.679012 -0.005212 221 40 126
0.113232 -0.023578 -1.173338 -0.121022 0.138108 0.982995 112 145 252
0.442773 0.018928 -0.259715 -0.991039 -0.094916 0.093986 1 115 139
-0.071959 0.045675 -0.288718 0.963095 -0.268428 -0.019877 250 93 124
-0.263454 -0.054997 -0.067817 0.091482 0.110215 0.989689 139 141 253
-0.245365 -0.299007 0.127032 0.131027 0.813240 0.566985 144 231 199
-0.387742 0.244555 0.453069 0.516907 -0.841551 -0.156842 193 20 107
0.475632 0.120744 0.362652 -0.890261 -0.324456 -0.319632 13 86 86
-0.014219 -0.007132 0.771365 0.024237 -0.094898 -0.995192 130 115 0
-0.120689 0.169597 0.377844 -0.868757 -0.491908 -0.057336 16 64 120
0.221973 0.027716 -1.123126 -0.690403 -0.094589 0.717215 39 115 218
-0.103070 -0.056410 -0.185422 0.933759 0.046600 -0.354856 246 133 82
0.039235 -0.320453 -0.315169 0.400132 0.902380 -0.160017 178 242 107
-0.041424 -0.260399 0.174881 -0.054896 0.569314 0.820285 120 200 232
-0.107258 0.300226 0.414714 -0.416209 -0.866127 0.276757 74 17 162
0.074578 -0.342677 0.208647 0.058204 0.949899 0.307090 134 248 166
-0.142768 -0.143663 0.028531 -0.119623 0.272505 0.954689 112 162 249
-0.168389 -0.015775 -0.555301 0.966013 -0.003059 -0.258475 250 127 94
-0.365229 -0.216016 0.681886 0.652893 0.364547 -0.663955 210 173 42
0.360743 0.180499 0.570873 -0.740625 -0.521539 -0.423641 33 61 73
0.265742 0.237128 -0.762755 -0.835973 -0.548753 -0.004356 20 57 126
-0.353940 0.264900 0.583933 0.530866 -0.702729 -0.473660 195 37 67
0.483749 0.130476 0.214946 -0.951262 -0.303860 0.052627 6 88 134
0.134203 -0.348474 0.174313 0.404652 0.912948 0.052759 179 243 134
-0.175602 0.026162 -0.438343 0.901240 -0.135355 -0.411637 242 110 75
0.232511 -0.036518 0.755936 -0.277509 0.024752 -0.960404 92 130 5
0.047122 -0.273906 0.054861 0.799768 0.593505 -0.090131 229 203 116
-0.031297 0.045202 0.010961 0.988085 -0.131841 -0.079406 253 110 117
0.033785 0.309624 -0.329081 0.445327 -0.894680 -0.035093 184 13 123
0.425867 -0.040003 0.561520 -0.931282 0.053252 -0.360385 8 134 81
0.348287 -0.290346 0.488088 -0.543200 0.791201 -0.280954 58 228 91
-0.116169 -0.163769 0.392576 -0.941548 0.299778 -0.153690 7 165 107
0.135828 0.135863 0.731911 -0.059762 -0.277577 -0.958843 119 92 5
-0.543197 -0.017383 0.462775 0.999328 0.022792 -0.028697 254 130 123
-0.015863 0.133698 -0.106110 0.891607 -0.430266 -0.141097 241 72 109
0.315737 0.009019 0.710956 -0.567778 -0.082143 -0.819073 55 117 23
0.073785 -0.329124 -0.830233 0.100024 0.994795 0.019469 140 254 129
-0.115544 -0.232650 -0.973741 0.751392 0.637003 0.172154 223 208 149
-0.488434 0.183747 0.209432 0.811188 -0.457866 0.363776 230 69 173
0.206194 -0.276882 -0.890851 -0.559155 0.811149 0.171415 56 230 149
0.294458 -0.350983 0.269689 -0.241888 0.970293 0.004692 96 251 128
-0.121453 0.190213 -0.636543 0.901147 -0.408642 -0.144728 242 75 109
-0.076598 0.284721 0.502019 -0.486493 -0.865397 -0.120057 65 17 112
-0.024631 0.040868 -1.150679 -0.017488 -0.300446 0.953638 125 89 249
0.332085 -0.304554 0.471727 -0.392186 0.868552 -0.302998 77 238 88
0.056646 0.295038 -0.115575 0.537241 -0.827063 -0.165345 195 22 106
-0.084546 0.130829 -1.131251 0.418554 -0.366785 0.830831 180 80 233
0.008316 -0.349604 0.394872 -0.047916 0.911933 0.407532 121 243 179
0.230991 -0.060287 -1.143506 -0.605919 0.099118 0.789327 50 140 228
0.183428 -0.014846 -1.145365 -0.533185 -0.082970 0.841920 59 116 234
-0.030102 0.042376 0.201414 0.468069 0.025370 0.883328 187 130 240
-0.353174 0.266858 0.547188 0.512579 -0.806028 -0.295942 192 24 89
-0.358057 -0.217422 0.636755 0.562665 0.577706 -0.591324 199 201 52
-0.336310 0.257896 0.584588 0.517668 -0.763200 -0.386712 193 30 78
-0.055145 0.009681 -0.168909 0.959169 -0.170915 0.225351 249 105 156
-0.149687 -0.196457 -0.833292 0.861427 0.499933 -0.089504 237 191 116
-0.299776 0.006541 0.738569 0.439902 -0.029389 -0.897565 183 123 13
-0.102330 0.192793 -1.078040 0.716881 -0.555600 0.421178 218 56 181
0.306528 0.296350 -0.085002 -0.515197 -0.854354 0.068202 61 18 136
0.064442 0.308416 -0.951628 -0.122004 -0.978163 0.168262 111 2 148
-0.029114 0.217617 -0.331675 0.825596 -0.563524 0.028844 232 55 131
0.237918 -0.201391 0.714548 -0.051965 0.441625 -0.895694 120 183 13
-0.538234 0.014190 0.338226 0.998180 -0.023768 0.055422 254 124 134
0.260395 -0.321807 -0.302490 -0.398967 0.902068 0.164620 76 242 148
0.317880 0.116494 0.724514 -0.409462 -0.204057 -0.889214 75 101 14
0.171701 -0.353166 -0.482109 -0.171765 0.976912 0.127043 105 252 143
-0.165217 -0.176734 -0.966829 0.873617 0.486581 -0.005700 238 189 126
-0.212441 0.304698 0.585571 0.280079 -0.850506 -0.445192 163 19 70
-0.529209 0.018390 0.175257 0.876288 -0.009133 0.481702 239 126 188
0.504164 -0.067739 0.200883 -0.983666 0.090636 0.155518 2 139 147
0.398434 -0.267130 0.072044 -0.685763 0.713128 0.145525 40 218 146
-0.463592 0.150495 0.530683 0.833378 -0.355782 -0.422965 233 82 73
-0.081922 0.223229 -0.576771 0.762265 -0.624238 -0.171110 224 47 105
0.433405 -0.072211 0.638412 -0.927850 -0.000134 -0.372952 9 127 79
-0.475401 0.136323 0.583170 0.873004 -0.342328 -0.347383 238 83 83
-0.289183 -0.331560 0.487806 0.300970 0.932707 -0.198680 165 246 102
0.123329 -0.193712 -1.107663 -0.304826 0.577003 0.757726 88 201 224
0.356292 0.091781 -0.484348 -0.926245 -0.370051 0.071649 9 80 136
0.321792 -0.349366 0.015114 -0.304902 0.952179 0.019758 88 248 130
0.231040 0.247979 -0.802422 -0.610293 -0.781482 0.129723 49 27 144
0.083051 0.336532 0.509253 -0.025280 -0.963215 -0.267539 124 4 93
0.428752 -0.170137 0.515075 -0.886557 0.406487 -0.220872 14 179 99
-0.390660 -0.315533 0.434781 0.380141 0.912865 -0.148898 175 243 108
-0.155475 0.293025 0.374358 -0.443900 -0.886571 -0.130173 70 14 110
0.106211 -0.342369 -0.760089 -0.186480 0.980395 0.063644 103 252 135
-0.080815 -0.001628 0.753485 0.011621 -0.035523 -0.999301 128 122 0
-0.371616 0.113128 0.676054 0.616761 -0.314107 -0.721763 206 87 35
0.485989 -0.046764 -0.044160 -0.993256 -0.003348 0.115897 0 127 142
-0.450404 -0.253678 0.484537 0.692039 0.711531 -0.121676 215 218 111
0.053297 -0.229621 0.260791 0.287383 0.628837 0.722479 164 207 219
-0.003042 -0.337499 0.179015 -0.030256 0.928223 0.370791 123 245 174
0.159396 0.337135 0.408139 0.107317 -0.991918 -0.067683 141 1 118
0.354212 -0.049878 -0.643396 -0.979702 0.191825 0.058199 2 151 134
0.381509 0.181975 0.554184 -0.765651 -0.545347 -0.341138 29 57 84
0.239048 0.260123 -0.703364 -0.607504 -0.789365 0.088551 50 26 138
0.168159 0.314996 -0.709953 -0.480076 -0.877224 -0.002147 66 15 127
-0.018586 -0.242648 -1.090146 -0.032546 0.636506 0.770585 123 208 225
0.062186 0.260479 0.247860 0.334012 -0.776466 0.534356 170 28 195
-0.119688 0.212883 0.751346 -0.012700 -0.236640 -0.971515 125 97 3
0.254961 -0.117049 0.757696 -0.144458 0.252380 -0.956784 109 159 5
0.360527 0.124894 -0.471980 -0.910565 -0.410249 0.050678 11 75 133
-0.069893 0.215997 0.306696 -0.588601 -0.556582 0.586316 52 56 202
-0.206542 -0.173185 0.036455 0.272006 0.435607 0.858055 162 183 236
0.504856 -0.019471 0.244528 -0.998105 -0.034552 0.050913 0 123 133
-0.007448 0.238779 -0.127920 0.665768 -0.671687 -0.324945 212 41 86
-0.513432 0.083703 0.409713 0.952622 -0.299401 -0.053573 248 89 120
-0.167939 0.115703 -0.910067 0.939915 -0.337947 -0.048500 247 84 121
0.197225 0.179124 0.716290 -0.155434 -0.489810 -0.857862 107 65 18
0.458589 0.124412 0.307703 -0.909089 -0.414097 -0.045619 11 74 121
0.146432 -0.339656 -0.591390 -0.226558 0.973832 -0.017971 98 251 125
0.288124 0.321585 0.008480 -0.360485 -0.931144 0.054963 81 8 134
0.050900 0.191323 -1.103535 -0.105053 -0.724464 0.681260 114 35 214
-0.021454 -0.013314 -0.025389 0.997448 0.050812 -0.050153 254 133 121
0.373575 -0.276626 0.437922 -0.599767 0.771786 -0.211250 51 225 100
0.415567 -0.229771 0.331808 -0.820535 0.562097 -0.103773 22 199 114
0.025350 0.058276 -1.152514 -0.094792 -0.212522 0.972548 115 100 251
0.292492 -0.200106 -0.782477 -0.883623 0.462565 0.072414 14 186 136
0.357266 0.268917 0.147953 -0.548035 -0.836336 0.014141 57 20 129
-0.084410 -0.014317 -0.249257 0.990018 -0.081780 -0.114790 253 117 112
-0.134427 -0.100156 -0.562924 0.955849 0.281373 -0.084742 249 163 116
0.363383 -0.259299 0.596584 -0.630270 0.679614 -0.375347 47 214 79
-0.500337 0.096915 0.461080 0.903532 -0.415798 -0.103643 242 74 114
0.268512 -0.055016 -1.047962 -0.972402 0.091485 0.214626 3 139 154
0.397222 0.255546 0.174135 -0.708848 -0.705293 0.009840 37 37 128
0.297586 0.129985 -0.793712 -0.788069 -0.477056 0.389055 27 66 177
0.457588 0.039058 -0.067314 -0.742394 -0.139305 0.655321 32 109 211
0.036652 -0.297259 -0.947180 0.026539 0.992783 0.116954 130 254 142
0.118928 -0.354355 -0.370573 0.199652 0.978765 -0.046456 152 252 121
-0.122070 -0.164997 -0.336970 0.872750 0.375854 -0.311516 238 175 87
-0.184939 -0.054246 -0.866697 0.995697 0.076506 -0.052300 254 137 120
0.362855 0.037413 -0.623802 -0.990908 -0.114969 0.069881 1 112 136
-0.189948 0.136049 0.047960 -0.030545 -0.338168 0.940590 123 84 247
0.030424 -0.277411 -0.992624 0.120097 0.898887 0.421400 142 242 181
0.223003 0.134016 0.740583 -0.287195 -0.326956 -0.900344 90 85 12
0.281334 0.131278 -0.757120 -0.940484 -0.316679 0.123302 7 87 143
-0.077271 0.015220 0.213527 0.429735 -0.062273 0.900805 182 119 242
0.332796 -0.257513 -0.358457 -0.751288 0.656366 0.068923 31 211 136
-0.186344 0.095617 -1.019564 0.936212 -0.347571 -0.051978 246 83 120
-0.192362 -0.106483 -0.822249 0.959195 0.244227 -0.142469 249 158 109
0.378305 -0.298139 0.237388 -0.630194 0.776367 0.010475 47 226 128
0.452594 0.186435 0.122116 -0.854287 -0.510887 0.095857 18 62 139
0.305062 -0.345804 0.410169 -0.445831 0.894125 -0.042125 70 241 122
0.144479 -0.364611 0.503026 0.091724 0.980169 -0.175656 139 252 105
0.337337 -0.232537 -0.510619 -0.833441 0.541555 0.109974 21 196 141
-0.037907 -0.117826 -0.039525 0.891331 0.327654 -0.313323 241 169 87
0.287507 0.297550 0.519490 -0.532797 -0.757133 -0.377991 59 30 79
0.048607 -0.014055 0.307341 0.979120 0.054390 0.195873 252 134 152
-0.132967 -0.083865 -0.485597 0.973745 0.205977 -0.096919 251 153 115
-0.530597 -0.025309 0.388199 0.993983 0.097687 0.049559 254 139 133
-0.111886 -0.103271 0.404938 -0.992581 0.121046 -0.011443 0 142 126
-0.363760 -0.161270 0.005539 0.330394 0.370956 0.867889 169 174 238
0.478969 0.035965 0.395660 -0.994640 -0.103263 -0.005300 0 114 126
0.035249 -0.316410 -0.825989 0.233153 0.972090 0.026086 157 251 130
-0.152176 0.146766 -0.498879 0.830346 -0.354866 -0.429645 233 82 72
-0.205535 -0.098204 -0.919972 0.984401 0.163255 -0.065593 253 148 119
0.330826 -0.061618 -0.724728 -0.991405 0.115840 0.060804 1 142 135
0.111870 0.337884 -0.302191 0.185706 -0.982248 0.026497 151 2 130
0.418660 -0.217541 0.450198 -0.806816 0.579165 -0.116686 24 201 112
0.032982 0.314951 -0.590128 0.393057 -0.917040 -0.067409 177 10 118
-0.181877 -0.053157 0.774538 0.232414 0.093079 -0.968153 157 139 4
-0.391196 -0.272619 0.547503 0.459671 0.790033 -0.405648 186 228 75
0.056960 0.302139 0.603763 0.000788 -0.820140 -0.572162 127 22 54
0.314021 -0.281816 -0.370793 -0.633644 0.766528 0.104547 46 225 140
0.040428 -0.015842 0.277842 0.942777 0.063734 0.327276 247 135 169
0.133166 -0.205282 -1.106454 -0.285993 0.549471 0.785042 91 197 227
-0.020647 -0.293037 0.480290 0.478536 0.872465 -0.099032 188 238 114
-0.176475 0.261239 0.110852 0.216085 -0.692710 0.688084 155 39 215
-0.149699 -0.147693 -1.125839 0.792307 0.379043 0.478095 228 175 188
-0.124460 0.003984 -0.253473 0.990434 -0.000336 -0.137984 253 127 109
0.022693 0.207229 -1.079123 -0.146898 -0.757034 0.636648 108 30 208
-0.058032 -0.164061 -0.184543 0.810079 0.345196 0.473933 230 171 187
0.219735 -0.272026 -0.840241 -0.642666 0.741799 0.191608 45 222 151
-0.529026 -0.086059 0.320924 0.961596 0.273517 0.022843 250 162 130
-0.528241 -0.113610 0.406509 0.949635 0.311956 0.029624 248 167 131
-0.190955 -0.000905 -1.048670 0.975830 -0.076447 0.204723 251 117 153
-0.523443 -0.009046 0.477177 0.979921 0.049634 -0.193108 252 133 102
-0.100400 -0.266126 -0.924981 0.663961 0.747577 0.016836 212 222 129
0.067983 -0.213064 0.323250 0.603559 0.583085 0.543809 204 201 196
0.329360 -0.054674 0.706611 -0.640644 0.249397 -0.726207 45 159 34
0.128912 -0.334308 -0.396122 0.066045 0.996738 0.046384 135 254 133
-0.451508 -0.055297 0.618127 0.821780 0.229154 -0.521696 232 156 60
0.125148 0.343834 -0.730849 -0.070938 -0.996658 0.040511 118 0 132
0.039432 -0.053185 0.256125 0.999833 0.016916 -0.006950 254 129 126
-0.145483 -0.147140 -1.099020 0.572658 0.445856 0.687950 200 184 215
0.351556 -0.320046 0.370602 -0.514538 0.857467 0.000617 61 236 127
0.487643 0.061102 0.150082 -0.963249 -0.264326 0.047785 4 93 133
0.287171 0.060177 -1.024498 -0.917110 -0.121730 0.379594 10 111 175
0.253489 -0.283035 -0.504991 -0.625987 0.778502 0.045548 47 226 133
-0.109965 0.040206 -1.129002 0.370317 -0.312966 0.874596 174 87 239
-0.037738 -0.263401 -0.361453 0.791225 0.609827 -0.045537 228 205 121
-0.015963 0.287417 0.091829 0.112639 -0.879719 0.461960 141 15 186
0.269536 0.057289 -1.026378 -0.842052 -0.224516 0.490450 20 98 190
-0.052154 0.308212 0.420505 -0.315793 -0.906888 -0.278979 87 11 91
-0.195859 -0.036479 -0.952783 0.995417 0.091493 -0.027807 254 139 123
0.364245 -0.037319 -0.580935 -0.985153 0.157540 0.068226 1 147 136
-0.144481 0.040623 -0.536755 0.989332 -0.095385 -0.110104 253 115 113
-0.106469 0.061360 0.400220 -0.980543 -0.189336 -0.051844 2 103 120
-0.105479 -0.252415 -0.935562 0.719291 0.694459 0.018639 219 216 129
0.152656 -0.325057 -0.713310 -0.435941 0.892176 0.118230 71 241 142
0.086571 0.298558 0.008960 0.531213 -0.836992 -0.131366 195 20 110
-0.114078 0.347793 0.501066 0.079791 -0.996069 -0.038459 137 0 122
-0.314968 0.319965 0.223711 0.389528 -0.920129 0.040383 177 10 132
-0.058976 -0.222585 -1.099847 0.229490 0.613673 0.755474 156 205 223
0.154114 0.292778 -0.884348 -0.516336 -0.852903 0.077168 61 18 137
0.329384 0.116280 -0.735226 -0.908260 -0.412262 0.071450 11 74 136
-0.110814 -0.142672 -0.228196 0.906359 0.244855 -0.344323 243 158 83
0.050853 -0.337348 -0.452564 0.353826 0.934336 -0.042696 172 246 122
0.169967 -0.177973 -1.134412 -0.663418 0.442436 0.603429 42 183 204
0.075898 0.152534 0.732974 -0.082595 -0.456852 -0.885700 116 69 14
-0.007017 -0.306127 -0.894310 0.372044 0.927856 -0.025801 174 245 124
0.149537 0.103546 -1.144660 -0.496607 -0.380390 0.780182 64 79 226
0.255787 -0.148158 -1.054288 -0.834309 0.486485 0.259346 21 189 160
-0.506428 0.133383 0.386167 0.930163 -0.360761 0.068183 246 81 136
0.252412 0.065927 -1.057525 -0.795923 -0.237790 0.556744 26 97 198
0.360592 0.212901 -0.232334 -0.750249 -0.617664 0.235834 31 48 157
-0.173184 -0.136343 -1.038977 0.930087 0.347722 0.118434 246 171 142
0.379735 0.254248 0.403283 -0.688683 -0.702772 -0.178401 39 37 104
-0.516856 0.065542 0.241577 0.952276 -0.186542 0.241604 248 103 158
0.009003 0.181868 -0.021802 0.846308 -0.512320 -0.145916 235 62 108
-0.158162 -0.302347 0.521105 -0.624695 0.780512 -0.023585 47 227 124
0.161029 -0.307355 -0.801560 -0.462379 0.884768 0.058237 68 240 134
0.282981 -0.275322 -0.607156 -0.771802 0.629915 0.086764 29 207 138
0.101823 0.334758 -0.274493 0.235352 -0.970642 0.049627 157 3 133
0.245159 -0.167854 -1.048066 -0.735406 0.426389 0.526659 33 181 194
0.043107 -0.259092 0.626425 -0.168525 0.670941 -0.722107 106 213 35
-0.470417 -0.057766 0.610897 0.904136 0.137819 -0.404405 242 145 75
-0.118411 -0.332223 0.342147 0.401930 0.906665 0.128103 178 243 143
0.087608 -0.308430 -0.810917 0.014089 0.994716 0.101694 129 254 140
0.482380 0.044188 0.261691 -0.976785 -0.212242 0.029072 2 100 131
0.085799 -0.348496 -0.760831 0.002590 0.999955 0.009099 127 254 128
0.044201 0.177313 0.229860 0.405524 -0.562708 0.720355 179 55 219
0.185982 -0.353323 0.535707 -0.011050 0.962514 -0.271008 126 250 92
-0.049785 0.246738 -0.356374 0.733261 -0.637865 -0.235490 220 46 97
0.215409 -0.280139 -0.723256 -0.546572 0.836748 0.033357 57 234 131
-0.393210 0.287406 0.308006 0.521862 -0.823781 0.221462 194 22 155
0.003630 -0.286402 0.225546 0.274079 0.764470 0.583495 162 224 201
-0.129941 0.178482 -1.042345 0.814480 -0.528056 0.240371 231 60 158
0.296904 0.079118 -0.885348 -0.980042 -0.100285 0.171644 2 114 149
-0.164263 0.059557 -1.134101 0.774889 -0.253963 0.578834 226 95 201
-0.214949 0.130143 -0.121044 0.768954 -0.129441 0.626063 225 110 207
-0.108160 -0.087067 -0.407225 0.962027 0.272840 0.007933 250 162 128
0.097416 0.223464 0.698288 -0.065492 -0.527148 -0.847246 119 60 19
0.077331 -0.259939 0.262524 0.279900 0.649179 0.707264 163 210 217
-0.116201 -0.206306 0.709530 -0.018165 0.435114 -0.900192 125 182 12
0.316226 -0.165679 0.716914 -0.217833 0.371373 -0.902569 99 174 12
-0.222064 0.248305 0.705955 0.412049 -0.566422 -0.713710 180 55 36
0.279691 -0.295842 -0.448392 -0.601678 0.794405 0.083092 50 228 138
0.144193 0.299437 -0.818664 -0.414212 -0.907349 0.071732 74 11 136
-0.248131 0.165386 0.727224 0.387377 -0.482422 -0.785626 176 65 27
0.121477 -0.355153 -0.699775 -0.234939 0.971899 -0.014676 97 251 125
-0.363121 0.185388 0.632353 0.627242 -0.586851 -0.512029 207 52 62
0.368545 -0.291298 0.368272 -0.647631 0.753876 -0.110657 44 223 113
0.021256 0.153429 -1.122914 0.057873 -0.584997 0.808968 134 52 230
0.157740 -0.293821 -0.945068 -0.514861 0.844054 0.149970 61 235 146
-0.136801 -0.358060 0.502521 -0.025050 0.999414 0.023343 124 254 130
0.131681 -0.323478 0.546397 0.060837 0.975377 -0.211989 135 251 100
0.158118 0.176767 -1.085638 -0.502961 -0.610656 0.611661 63 49 205
-0.097607 -0.262296 -0.759425 0.668953 0.717614 -0.193733 212 218 102
0.424210 0.200249 0.141360 -0.792257 -0.602510 0.096487 26 50 139
0.197844 -0.243315 -1.018689 -0.524166 0.599839 0.604519 60 203 204
0.322568 0.171323 -0.527405 -0.843408 -0.536813 0.022243 19 59 130
-0.382140 0.280561 0.255310 0.536287 -0.797968 0.275034 195 25 162
-0.381797 -0.311784 0.401842 0.441576 0.896410 0.038193 183 241 132
-0.158996 0.121979 -1.062166 0.799963 -0.360951 0.479347 229 81 188
-0.048069 0.265153 -0.976083 0.480199 -0.875644 0.051535 188 15 134
0.362468 0.241301 0.489136 -0.698669 -0.659343 -0.277719 38 43 92
0.170171 0.308093 0.246623 0.522633 -0.848170 0.086384 194 19 138
0.227573 0.346064 0.305561 -0.067538 -0.996476 0.049742 118 0 133
0.285342 0.256091 -0.405980 -0.647973 -0.760855 0.035081 44 30 131
0.300711 -0.002749 -0.958567 -0.993761 -0.067261 0.088970 0 118 138
-0.099609 0.163655 -1.087729 0.505167 -0.614857 0.605605 191 49 204
-0.146142 -0.159852 -0.810921 0.886609 0.460430 -0.043922 240 186 121
0.049396 -0.095868 0.753585 0.025293 0.212930 -0.976740 130 154 2
0.085941 0.320808 -0.171606 0.335023 -0.942203 0.003637 170 7 127
0.441035 -0.215417 0.142542 -0.855377 0.515919 0.046446 18 193 133
-0.529081 0.075374 0.320454 0.966129 -0.180579 0.184355 250 104 151
0.241608 -0.358700 0.316789 -0.274238 0.944200 -0.182429 92 247 104
0.237482 -0.367279 0.407467 -0.074950 0.978839 -0.190413 117 252 103
0.454387 -0.125458 -0.079871 -0.954362 0.273319 0.120375 5 162 142
-0.017129 -0.148333 0.178140 -0.029921 0.354305 0.934651 123 172 246
-0.162879 -0.187111 -0.866683 0.861893 0.491888 -0.123232 237 190 111
-0.294903 -0.346324 0.369024 0.067886 0.997060 0.035540 136 254 132
0.363448 0.044478 0.718828 -0.236943 -0.067900 -0.969148 97 118 3
-0.245485 0.337605 0.460815 0.122666 -0.992055 -0.027931 143 1 123
0.373830 0.122868 0.634166 -0.748722 -0.395860 -0.531705 32 77 59
-0.109460 -0.316454 0.364357 -0.391487 0.911697 -0.124682 77 243 111
0.217032 -0.203056 -1.070914 -0.648762 0.546737 0.529326 44 197 194
0.028365 -0.324641 0.365956 -0.237531 0.909011 0.342460 97 243 171
0.063907 -0.161848 0.264352 0.898853 0.437252 0.029545 242 183 131
-0.379333 -0.082881 -0.044882 0.421222 0.049477 0.905607 181 133 242
-0.490761 0.157768 0.396142 0.887046 -0.448463 0.109681 240 70 141
0.330461 0.321987 -0.029302 -0.504576 -0.858210 0.094227 63 18 139
0.388219 -0.134894 -0.331904 -0.948503 0.308929 0.070031 6 166 136
0.109175 -0.337453 -0.179047 0.266103 0.963042 0.041712 161 250 132
-0.347866 -0.329060 0.401135 0.369412 0.929226 0.008590 174 245 128
0.446018 -0.201237 0.305599 -0.846204 0.532562 0.017780 19 195 129
-0.112140 -0.049441 -0.115935 0.906535 -0.005144 -0.422100 243 126 73
-0.410837 0.255453 0.440943 0.664807 -0.729301 -0.161715 212 34 106
-0.515255 -0.093281 0.301606 0.972594 0.230007 0.034024 251 156 131
0.202207 -0.226836 -1.067723 -0.726080 0.587421 0.357413 34 202 173
0.380249 -0.104749 0.637811 -0.791429 0.217985 -0.571071 26 155 54
-0.439237 0.142619 0.590417 0.779739 -0.487895 -0.392385 226 65 77
0.304764 -0.311509 -0.299687 -0.499340 0.863112 0.075480 63 237 137
-0.458342 -0.231682 0.548635 0.799988 0.527518 -0.285910 229 194 91
0.110595 0.250355 0.274416 0.779291 -0.603844 0.167563 226 50 148
-0.078783 -0.264857 -0.797435 0.701629 0.712375 -0.015451 216 218 125
-0.278497 0.231718 0.050064 0.048945 -0.684159 0.727689 133 40 220
0.381050 0.245449 0.359097 -0.700459 -0.695308 -0.160947 38 38 106
0.142019 -0.276085 0.188558 0.617503 0.778341 0.113467 206 226 141
0.217074 0.069219 0.744625 -0.155982 -0.241773 -0.957714 107 96 5
-0.190523 -0.130641 -0.852457 0.974155 0.213086 -0.074944 251 154 117
0.452516 0.117035 0.470428 -0.908718 -0.350421 -0.226795 11 82 98
0.427501 0.195484 0.330616 -0.837850 -0.542661 -0.059382 20 58 119
-0.135322 0.202238 -0.885255 0.828942 -0.553155 -0.082908 233 56 116
-0.360071 0.299078 0.412336 0.431916 -0.892907 -0.127146 182 13 111
0.359387 -0.317113 0.314235 -0.535557 0.844371 0.014723 59 235 129
-0.284548 -0.344124 0.299292 0.206748 0.949693 0.235240 153 248 157
-0.245473 -0.321430 0.585595 0.286654 0.881918 -0.374234 164 239 79
0.008654 -0.195514 -1.126825 -0.059349 0.564729 0.823140 119 199 232
0.414443 0.086303 0.560586 -0.967603 -0.099428 -0.232074 4 114 97
0.073490 -0.247964 0.659996 -0.111094 0.654051 -0.748248 113 210 32
0.096781 -0.340637 -0.061107 0.386570 0.919647 -0.069376 176 244 118
-0.069679 -0.334771 0.461306 0.332938 0.940946 -0.061422 169 247 119
0.371859 -0.203751 -0.317830 -0.868752 0.491188 0.063274 16 190 135
-0.171622 -0.090140 -1.091472 0.835395 0.225132 0.501429 234 156 191
0.429787 0.174883 0.034043 -0.793955 -0.601141 0.090907 26 50 139
-0.175072 0.317418 0.399246 -0.529173 -0.845576 -0.070553 60 19 118
-0.244194 0.010261 0.767502 0.392801 -0.082243 -0.915938 177 117 10
-0.125765 0.280162 0.259027 -0.621643 -0.782994 -0.021903 48 27 124
0.402382 -0.251734 -0.061760 -0.654379 0.738163 0.164025 44 221 148
-0.511988 0.111075 0.323558 0.925904 -0.347436 0.148291 245 83 146
-0.525497 0.054717 0.378785 0.989091 -0.140303 0.044878 253 109 133
-0.498581 -0.140494 0.522480 0.947188 0.150331 -0.283258 248 146 91
-0.162528 -0.183999 -0.847886 0.853630 0.503756 -0.132458 236 191 110
0.001370 0.223718 -1.049770 0.215742 -0.820712 0.529043 155 22 194
-0.071311 -0.058041 0.757232 0.036136 0.158913 -0.986631 132 147 1
0.017271 0.296034 -0.417031 0.460117 -0.883662 -0.086217 186 14 116
-0.107942 -0.205286 0.710465 0.108376 0.558710 -0.822251 141 198 22
-0.057804 0.172267 -0.257190 0.844664 -0.520182 -0.126310 235 61 111
-0.439603 0.216044 0.425783 0.729254 -0.683504 -0.031810 220 40 123
0.430154 0.176615 0.460415 -0.897052 -0.380515 -0.224737 13 78 98
0.146439 -0.361991 -0.521600 -0.032731 0.997565 0.061585 123 254 135
0.295423 -0.303709 -0.234974 -0.469993 0.876056 0.107854 67 239 141
0.322370 0.118979 -0.802093 -0.967211 -0.242445 0.075648 4 96 137
0.373436 -0.117159 -0.498108 -0.989642 0.139077 0.035576 1 145 132
0.194370 -0.329611 -0.516069 -0.348201 0.936960 0.029371 83 246 131
0.254778 -0.195445 -1.026677 -0.752753 0.503652 0.423908 31 191 181
0.047116 -0.064362 -1.167539 -0.057239 0.075688 0.995487 120 137 254
0.270193 -0.297080 -0.521591 -0.621971 0.779907 0.069987 48 226 136
0.317264 -0.080903 -0.832667 -0.976176 0.215623 0.024217 3 154 130
0.189368 0.260149 -0.889912 -0.562724 -0.806371 0.181956 55 24 150
-0.082805 -0.272423 -0.851209 0.575042 0.814179 -0.080249 200 231 117
-0.361493 0.154571 0.676003 0.584767 -0.395829 -0.708073 202 77 37
-0.350371 -0.321412 0.287506 0.282541 0.920697 0.269235 163 244 161
0.170252 -0.164982 -1.121312 -0.550122 0.334674 0.765088 57 170 225
0.117845 -0.287550 -0.951309 -0.419227 0.902119 0.102125 74 242 140
0.166428 0.277073 -0.864343 -0.428560 -0.884715 0.183344 72 14 150
-0.004724 0.068918 0.286055 0.596446 -0.175060 0.783330 203 105 227
0.304145 -0.191419 -0.767464 -0.817682 0.565728 0.106526 23 199 141
-0.315509 0.313368 0.315145 0.306371 -0.951812 0.013838 166 6 129
-0.420734 -0.207310 0.579904 0.644827 0.632277 -0.429447 209 208 72
-0.097637 0.320820 0.594098 0.077243 -0.843850 -0.530990 137 19 59
-0.071321 0.235005 -0.521840 0.750860 -0.641461 -0.157281 223 45 107
-0.082028 0.011177 -0.277451 0.986127 -0.164647 -0.021101 253 106 124
-0.180349 -0.077706 -1.052295 0.882851 0.174994 0.435834 240 149 183
-0.261316 -0.181833 0.725819 0.360413 0.411041 -0.837346 173 179 20
0.067298 0.287641 -0.186554 0.485356 -0.873704 -0.032733 189 16 123
0.344096 -0.000396 -0.787403 -0.996723 -0.050965 0.062819 0 121 135
-0.332528 0.301940 0.435947 0.419424 -0.902503 -0.097841 180 12 115
0.189986 -0.270286 -0.895401 -0.542065 0.835495 0.090074 58 234 138
0.040151 0.232189 0.022070 0.662944 -0.695045 -0.278240 212 38 92
