ply
format ascii 1.0
element vertex 512
property float x
property float y
property float z
property float nx
property float ny
property float nz
end_header
-0.111445 -0.024489 0.171498 0.861438 0.041714 -0.506146
-0.063284 -0.260568 -0.328408 0.050478 0.997118 -0.056629
0.313871 0.140576 0.607482 -0.548609 -0.550783 -0.629020
-0.059446 -0.258709 -0.163990 0.233607 0.971222 -0.046424
0.323975 0.103511 0.422714 -0.907529 -0.283513 0.309857
0.148046 0.173627 0.127246 -0.753477 -0.585889 0.298341
-0.079396 0.199153 -0.970894 0.637243 -0.585431 0.501190
0.133128 -0.072605 -0.229900 -0.837475 0.460464 0.294292
-0.001926 -0.094038 -0.640692 -0.951688 0.269803 0.146618
0.321479 0.089970 0.403015 -0.907529 -0.283513 0.309857
0.048395 -0.070254 0.692756 0.033842 0.176446 -0.983728
0.106117 -0.167725 -0.141340 -0.873396 0.465169 0.144209
-0.120939 -0.029496 -1.068434 0.557263 0.223704 0.799634
-0.038729 -0.194331 0.495487 0.591779 0.365412 0.718521
-0.195131 0.134875 0.586781 0.486475 -0.369154 -0.791875
0.216985 -0.239935 0.429487 -0.510213 0.834920 0.206376
-0.008660 0.253404 -0.014540 0.083692 -0.996457 -0.008368
0.209389 -0.186254 0.641247 -0.006543 0.658010 -0.752980
-0.186305 0.158215 -0.819035 0.851945 -0.338637 0.399392
0.040034 0.016175 0.704817 0.062156 -0.075064 -0.995240
-0.189639 -0.044925 -0.148733 0.977113 0.142441 -0.157987
-0.299512 -0.008598 0.380481 0.431669 -0.153435 0.888887
-0.044885 0.189595 0.641130 0.242122 -0.873244 -0.422874
-0.148161 0.107613 -0.969768 0.925103 -0.366125 0.100682
0.014125 0.233903 0.574829 0.238406 -0.922720 0.302904
0.072864 0.122601 -0.907794 -0.905034 -0.362872 -0.221897
-0.018921 0.219560 0.594117 0.242122 -0.873244 -0.422874
-0.167766 -0.038358 0.638206 0.419348 -0.001828 -0.907824
-0.297718 -0.142628 0.459737 0.760449 0.604787 -0.236538
0.081493 0.240378 0.598238 0.160251 -0.895777 -0.414612
0.149623 0.146040 -0.021269 -0.798507 -0.594023 0.097584
-0.165692 -0.223662 -0.602920 0.313310 0.942377 0.117316
0.008668 -0.053808 -0.618227 -0.986125 0.137027 -0.093706
-0.179425 -0.047185 0.369183 -0.392092 0.210012 0.895633
-0.228785 -0.081279 -0.304764 0.904687 0.206546 -0.372667
0.178118 0.256180 0.591843 -0.071535 -0.737819 -0.671197
-0.220421 -0.187100 0.510010 0.350817 0.840915 -0.412056
-0.124080 0.252512 -0.476256 0.402420 -0.914967 0.029900
0.133819 0.271237 0.487111 -0.029216 -0.978251 0.205358
-0.339854 0.015269 0.476237 0.933805 -0.202494 -0.294965
-0.324941 0.069007 0.479741 0.915171 -0.239056 -0.324523
-0.130249 0.184173 -0.057973 0.893024 -0.445782 -0.061533
0.238685 -0.243967 0.563473 -0.279892 0.903946 -0.323330
0.100540 -0.225170 0.608186 -0.006543 0.658010 -0.752980
0.275353 0.209824 0.532007 -0.839469 -0.538517 0.072747
-0.274904 0.060213 0.550073 0.644733 -0.316703 -0.695714
-0.027647 0.182157 -0.686234 -0.636424 -0.691031 -0.342695
-0.236020 0.139748 -0.692525 0.832570 -0.514385 0.205513
-0.212991 0.079902 -0.251107 0.918209 -0.275774 -0.284325
-0.257189 -0.063269 -0.445802 0.963476 0.265511 0.034891
0.144065 0.142928 -0.085696 -0.798507 -0.594023 0.097584
-0.030009 -0.234963 -0.823411 -0.604413 0.795482 0.043516
0.073473 0.107469 -0.885533 -0.905034 -0.362872 -0.221897
0.110939 0.191557 -0.076372 -0.822399 -0.562505 0.085135
0.097508 0.222731 0.354601 0.636021 -0.707697 0.307640
-0.198339 0.027417 -0.874079 0.938325 -0.032585 0.344215
-0.302098 -0.058618 0.525988 0.783918 0.154766 -0.601265
0.083735 -0.079509 -0.811646 -0.958510 0.045790 -0.281356
-0.262121 -0.016559 0.575733 0.727738 0.025199 -0.685393
0.019270 0.006750 -0.668325 -0.828512 -0.181830 -0.529628
-0.028182 -0.176520 -0.614999 -0.861046 0.507078 -0.038355
-0.067869 0.234360 -0.518310 -0.323209 -0.909009 0.263132
-0.208021 -0.107723 -0.281966 0.738735 0.525061 -0.422589
0.010864 0.114784 -0.560543 -0.856393 -0.185216 0.481961
-0.089191 -0.001186 0.676685 0.458254 -0.004903 -0.888808
0.018059 0.230821 0.183455 0.444240 -0.862700 -0.241661
-0.109823 0.242597 -0.571432 0.451864 -0.875047 0.173525
-0.150114 -0.211892 0.509872 0.240346 0.862057 -0.446196
-0.232952 0.146806 -0.509593 0.947686 -0.313801 -0.058490
-0.186272 0.022443 -0.100916 0.989838 -0.035507 -0.137699
-0.016687 -0.207203 -0.476452 -0.707184 0.676075 0.206912
0.273592 0.009840 0.269297 -0.870247 0.024615 0.492001
-0.125955 0.177342 0.053839 0.893024 -0.445782 -0.061533
0.173588 0.140462 0.685230 0.009672 -0.374443 -0.927199
0.061409 -0.157164 -0.921255 -0.784101 0.616064 -0.075168
0.334283 -0.070608 0.527393 -0.987093 0.158206 0.024885
-0.253002 -0.044432 -0.704772 0.963476 0.265511 0.034891
-0.119413 0.225203 -0.645758 0.306099 -0.944958 0.115576
-0.179549 0.076092 -0.074582 0.985660 -0.082507 -0.147197
0.162198 -0.114255 0.038855 -0.908908 0.400083 0.117556
0.246295 0.235595 0.545903 -0.447830 -0.881689 -0.148569
0.092901 -0.106015 -0.932821 -0.948447 0.310275 -0.064633
-0.241122 -0.101268 -0.607322 0.993818 0.090795 0.063885
-0.188286 0.012482 -0.898040 0.896326 0.120341 0.426752
0.053605 0.153399 0.678754 0.009672 -0.374443 -0.927199
0.174982 0.092059 -0.008125 -0.975660 -0.201625 0.086228
-0.107700 0.239298 -0.289519 0.419406 -0.886100 -0.197295
0.115256 -0.044957 -0.306085 -0.887417 0.127132 0.443090
-0.119088 0.139221 0.416936 -0.308700 -0.548573 0.777028
0.162882 -0.047149 -0.170900 -0.983240 0.160931 0.085673
0.099266 -0.151440 -0.210125 -0.917741 0.367460 0.150749
0.281244 0.036685 0.701186 -0.742302 -0.089828 -0.664017
-0.018467 0.028972 0.310751 0.797688 -0.147631 -0.584721
-0.035014 -0.250104 -0.395939 -0.589045 0.789274 0.173414
0.133918 -0.098517 -0.187106 -0.837475 0.460464 0.294292
0.219468 0.236519 0.418495 -0.434743 -0.864489 0.252303
-0.029047 -0.178944 -0.579233 -0.782761 0.500121 0.370357
0.189609 -0.153073 0.205556 -0.737245 0.568943 0.364383
-0.050449 0.144740 0.667245 0.403480 -0.312624 -0.859924
-0.043452 -0.194448 0.177025 0.669232 0.590562 -0.450959
0.292613 -0.018720 0.694848 -0.772750 -0.060007 -0.631868
-0.039691 -0.000795 0.701118 0.062156 -0.075064 -0.995240
0.017801 0.101010 -0.698388 -0.828512 -0.181830 -0.529628
-0.041362 0.192491 0.492351 0.238406 -0.922720 0.302904
-0.134494 -0.117428 -0.977222 0.916897 0.320968 0.237232
-0.182797 -0.122542 -0.838109 0.905044 0.299657 0.301831
0.159746 0.076742 -0.187125 -0.888508 -0.333648 0.315011
0.344078 0.026530 0.520462 -0.986301 -0.112760 -0.120398
0.281582 0.040524 0.700289 -0.742302 -0.089828 -0.664017
-0.159567 0.073670 -0.969312 0.929284 -0.043747 0.366766
-0.121573 0.176724 0.071509 0.795414 -0.542656 -0.269891
-0.229258 0.065064 -0.292315 0.939499 -0.161999 -0.301824
0.224888 0.229856 0.606696 -0.438566 -0.834816 -0.332780
0.063355 0.089585 -0.815423 -0.895400 -0.360554 -0.261267
-0.019011 0.254220 -0.091327 0.059466 -0.998020 -0.020471
-0.160308 -0.209092 -0.317392 0.806999 0.493282 -0.324693
-0.059522 -0.245114 0.055354 0.575798 0.730911 -0.366368
0.067284 -0.216392 0.375286 0.631523 0.735038 0.246776
0.104015 0.097159 -1.045690 0.082365 -0.287991 0.954085
-0.006000 -0.170343 -1.009734 -0.053766 0.610388 0.790276
-0.157741 0.005968 -0.976618 0.722546 0.004976 0.691305
0.078394 -0.100414 -1.029732 -0.741779 0.504605 0.441745
-0.240679 0.109103 -0.432508 0.947686 -0.313801 -0.058490
-0.147755 0.145667 -0.026295 0.872698 -0.482870 -0.072355
-0.005771 -0.249337 0.091438 0.103143 0.983665 -0.147527
-0.094981 -0.157518 0.131898 0.777980 0.412500 -0.473910
-0.179958 -0.090298 -0.140211 0.919570 0.391169 -0.037110
-0.171888 0.099898 -0.036626 0.985660 -0.082507 -0.147197
-0.190840 -0.108402 0.604894 0.511581 0.411303 -0.754397
-0.249522 -0.181722 0.433616 0.218217 0.964440 0.149121
0.064687 0.119871 -0.869980 -0.905034 -0.362872 -0.221897
-0.224082 -0.004630 -0.253546 0.925231 0.188049 -0.329524
0.052347 -0.160502 -0.995053 -0.685669 0.690146 0.231424
-0.039228 -0.250915 0.053827 0.076897 0.994343 -0.073271
-0.156165 0.131143 -0.030795 0.872698 -0.482870 -0.072355
0.320529 0.098451 0.579080 -0.933371 -0.354891 -0.053577
0.343960 0.028027 0.423853 -0.923767 0.110464 0.366676
0.204374 -0.215603 0.350218 -0.731348 0.619013 0.286275
0.115208 0.070383 -0.974158 -0.947937 -0.272332 -0.165079
0.059179 -0.167785 0.649465 0.020007 0.486225 -0.873605
0.163345 0.156097 0.131460 -0.753477 -0.585889 0.298341
-0.066800 -0.073393 0.424851 -0.243060 0.346500 0.906013
0.107757 0.108971 0.696804 0.012069 -0.258614 -0.965905
0.026010 0.240699 -0.242940 -0.104338 -0.940772 0.322584
0.242681 0.173470 0.329408 -0.689575 -0.609123 0.391733
0.186144 0.230578 0.364637 -0.252725 -0.918578 0.303883
-0.198041 0.180674 0.429441 0.064857 -0.926925 0.369598
-0.093739 0.108064 0.416749 -0.513746 -0.324961 0.794018
-0.288405 0.064896 0.533853 0.741374 -0.201295 -0.640191
0.189909 0.159617 0.217592 -0.840285 -0.485043 0.242186
-0.108049 -0.227613 -0.809930 0.225564 0.929622 -0.291418
-0.081119 -0.252968 -0.155154 0.348563 0.935331 -0.060504
-0.257776 -0.137457 0.531632 0.611217 0.582996 -0.535285
0.090741 -0.055429 -0.831592 -0.958510 0.045790 -0.281356
0.120592 0.018319 -0.951149 -0.991191 0.003568 -0.132395
0.321865 0.094566 0.581526 -0.933371 -0.354891 -0.053577
-0.193448 0.182145 -0.755677 0.825733 -0.513982 0.232351
-0.040507 -0.043210 0.692594 0.284528 0.221258 -0.932785
-0.306988 -0.019562 0.527985 0.727738 0.025199 -0.685393
0.177362 0.234854 0.615366 -0.071535 -0.737819 -0.671197
0.060287 0.096097 -0.813895 -0.895400 -0.360554 -0.261267
0.052435 -0.001243 -0.503254 -0.921391 -0.019797 0.388132
-0.195262 0.188557 0.531511 0.351913 -0.768784 -0.533974
0.119388 -0.025015 -0.955306 -0.987853 0.043295 -0.149238
0.344132 -0.012250 0.474081 -0.981345 0.190836 0.023323
0.332875 -0.090854 0.639502 -0.977100 0.195183 -0.084733
0.155608 -0.123381 0.018962 -0.908908 0.400083 0.117556
-0.100249 -0.236914 -0.572203 -0.453635 0.879025 0.146729
-0.170376 0.218150 -0.353488 0.498523 -0.849057 -0.174866
0.269415 -0.220641 0.481817 -0.562566 0.785015 0.259368
0.191371 -0.262555 0.486044 -0.146038 0.967750 0.205264
-0.165290 -0.078088 -0.038286 0.969835 0.175519 -0.169157
0.176721 0.102332 0.035576 -0.975660 -0.201625 0.086228
0.088345 -0.017969 -0.817335 -0.958510 0.045790 -0.281356
0.259651 0.169305 0.654571 -0.645152 -0.435892 -0.627516
-0.150903 -0.222435 -0.333649 0.594630 0.796688 -0.108177
0.010786 -0.033004 -0.584930 -0.875279 0.128114 0.466340
-0.012390 -0.249045 0.088754 0.103143 0.983665 -0.147527
0.077261 -0.244914 0.445285 0.355368 0.927208 0.118319
0.027941 0.151508 -0.769661 -0.929904 -0.316930 -0.186641
-0.068894 -0.245477 0.031081 0.348563 0.935331 -0.060504
0.289538 -0.028638 0.699368 -0.753313 0.016316 -0.657459
0.046769 0.117060 -0.467029 -0.890045 -0.356245 0.284446
0.070972 0.163637 -0.303533 -0.834960 -0.511610 0.202723
-0.096790 -0.169335 0.616255 0.283188 0.504084 -0.815907
-0.191468 -0.215415 -0.597827 0.733697 0.679458 -0.005098
0.061704 -0.021256 -0.477555 -0.969001 0.040843 0.243658
-0.309951 0.005788 0.388033 0.431669 -0.153435 0.888887
0.033924 0.209056 0.644088 0.229595 -0.871355 -0.433621
0.061183 0.247707 0.104893 -0.440309 -0.897711 0.015617
-0.145978 0.166337 -0.898169 0.851945 -0.338637 0.399392
-0.256442 0.029093 -0.605752 0.990792 -0.135317 -0.004521
-0.244661 0.102849 -0.525830 0.997372 -0.070245 0.017756
0.005314 -0.059505 -0.591256 -0.986125 0.137027 -0.093706
0.046289 -0.154323 -0.404146 -0.895790 0.397584 0.198715
-0.119517 -0.008842 -1.071053 -0.026689 -0.046374 0.998568
-0.085378 -0.005239 0.404697 -0.467115 0.067828 0.881591
0.165933 -0.259300 0.571086 0.106819 0.970115 -0.217869
0.098853 -0.227251 0.159052 -0.310135 0.950554 -0.016247
-0.140962 -0.041601 -1.051017 0.815430 -0.128346 0.564447
0.193642 -0.186577 0.641102 -0.006543 0.658010 -0.752980
0.149179 0.242086 0.368682 -0.252725 -0.918578 0.303883
-0.002594 -0.084328 0.428174 0.250504 0.103310 0.962588
0.184456 -0.154454 0.659691 0.012577 0.464386 -0.885544
-0.127802 -0.013125 0.384485 -0.309841 -0.046521 0.949649
-0.260679 -0.049422 0.576057 0.727738 0.025199 -0.685393
-0.168371 -0.145155 -0.212325 0.861585 0.430366 -0.269178
0.182504 0.027300 -0.047408 -0.993127 -0.049032 0.106279
0.013202 -0.167344 0.439962 0.462883 0.524396 0.714666
0.065251 0.125871 -1.033677 0.082365 -0.287991 0.954085
0.212600 0.225259 0.622158 -0.071535 -0.737819 -0.671197
-0.030613 0.079162 0.693652 0.358894 -0.130218 -0.924250
-0.098360 -0.019942 0.194143 0.861438 0.041714 -0.506146
-0.058294 0.245140 -0.178812 0.547773 -0.836507 0.014149
-0.042493 0.214027 -0.533529 -0.705006 -0.680483 0.199772
0.101736 0.204126 -0.082232 -0.822399 -0.562505 0.085135
0.061882 -0.151163 -0.872248 -0.789262 0.610522 -0.065792
-0.151085 -0.030629 0.092395 0.969835 0.175519 -0.169157
0.013312 0.227304 0.596505 0.229595 -0.871355 -0.433621
-0.057690 0.195558 -0.997232 0.350803 -0.586249 0.730239
-0.349422 0.018011 0.444064 0.933805 -0.202494 -0.294965
0.178424 -0.057032 0.698991 0.015272 0.242815 -0.969952
-0.147703 -0.219345 -0.711670 0.346114 0.937317 0.040531
-0.106136 0.228490 -0.654049 0.306099 -0.944958 0.115576
-0.052831 0.212161 0.129769 0.461037 -0.822020 -0.334258
0.338376 -0.056829 0.596644 -0.981345 0.190836 0.023323
0.059420 0.243894 0.153823 -0.403159 -0.908797 -0.107474
-0.093842 0.083790 0.668448 0.358894 -0.130218 -0.924250
-0.074708 0.138182 0.441388 -0.513746 -0.324961 0.794018
0.004897 -0.108848 -0.575146 -0.875279 0.128114 0.466340
0.330706 -0.106931 0.616444 -0.987093 0.158206 0.024885
0.046685 -0.075663 -1.042275 -0.155875 0.245511 0.956780
0.008326 0.165124 -0.720116 -0.856132 -0.285296 -0.430864
-0.127171 0.213029 0.505207 0.013903 -0.943738 0.330402
-0.098759 -0.001522 0.671754 0.458254 -0.004903 -0.888808
-0.259960 -0.032035 -0.445320 0.999973 0.007346 0.000730
-0.164285 0.124624 -0.085233 0.872698 -0.482870 -0.072355
0.321105 0.104788 0.527069 -0.933371 -0.354891 -0.053577
0.168858 0.022786 -0.177000 -0.993127 -0.049032 0.106279
-0.229068 -0.162777 -0.525484 0.801739 0.591413 -0.086281
-0.172844 0.120967 0.606956 0.486475 -0.369154 -0.791875
-0.023856 -0.167382 -0.648074 -0.951688 0.269803 0.146618
0.272396 0.072251 0.277769 -0.836559 -0.316272 0.447372
0.065541 0.192448 0.345972 0.599306 -0.683168 -0.417270
-0.230380 0.106822 0.570117 0.644733 -0.316703 -0.695714
0.122970 0.187350 0.012044 -0.822399 -0.562505 0.085135
0.270732 0.215548 0.521062 -0.839469 -0.538517 0.072747
-0.324519 -0.112893 0.443764 0.888225 0.397587 -0.230174
0.171024 0.191566 0.656693 -0.077433 -0.517572 -0.852129
0.035414 0.028385 -0.542149 -0.921391 -0.019797 0.388132
-0.087718 0.110924 -1.041508 -0.124557 -0.511404 0.850266
0.018756 -0.225511 0.479046 0.462883 0.524396 0.714666
-0.214823 -0.101783 -0.779189 0.872467 0.282199 0.398955
0.059158 0.193282 0.662706 0.009672 -0.374443 -0.927199
0.048809 -0.168731 -0.980994 -0.685669 0.690146 0.231424
-0.246089 -0.182569 0.495844 0.611217 0.582996 -0.535285
0.218266 0.190583 0.652997 -0.077433 -0.517572 -0.852129
0.189041 -0.074808 0.694708 0.015272 0.242815 -0.969952
0.053386 0.152291 -0.377861 -0.925734 -0.349746 0.143856
0.010753 0.238947 -0.293028 -0.373021 -0.926122 -0.056159
-0.316719 0.059305 0.410028 0.661600 -0.319501 0.678384
0.125650 0.090607 -0.267192 -0.803488 -0.473255 0.361161
-0.023813 -0.211961 -0.753147 -0.682788 0.664116 -0.304550
-0.035791 0.168149 0.664033 0.122988 -0.447608 -0.885732
0.250002 -0.034235 0.705825 0.015272 0.242815 -0.969952
0.003311 0.151769 -0.548303 -0.871975 -0.360542 0.331162
-0.291152 0.120301 0.506112 0.643438 -0.527015 -0.555196
-0.211415 -0.192780 0.444363 0.270042 0.942339 0.197672
-0.065988 -0.231601 -0.525051 -0.323847 0.906906 0.269526
-0.186023 -0.058220 -0.138350 0.977113 0.142441 -0.157987
0.120091 0.163705 -0.171984 -0.822399 -0.562505 0.085135
-0.198536 0.145487 -0.283154 0.834555 -0.423106 -0.352845
-0.129231 0.243808 -0.360774 0.498523 -0.849057 -0.174866
0.146301 0.213953 0.202033 -0.753477 -0.585889 0.298341
0.088314 0.044311 -0.842274 -0.873194 -0.410215 -0.263165
-0.084780 0.001501 0.219023 0.861438 0.041714 -0.506146
0.052097 0.004671 -0.503756 -0.921391 -0.019797 0.388132
-0.241067 0.135690 -0.597777 0.997372 -0.070245 0.017756
-0.142701 -0.056707 -1.027655 0.916897 0.320968 0.237232
0.279444 -0.109429 0.684651 0.012577 0.464386 -0.885544
-0.006863 -0.112278 0.301495 0.852336 0.266920 -0.449752
0.227566 -0.069065 0.214248 -0.832134 0.316078 0.455684
0.262701 -0.149483 0.663409 0.012577 0.464386 -0.885544
0.012940 -0.193336 -0.449025 -0.621037 0.690601 0.370652
-0.039117 -0.196589 0.180654 0.669232 0.590562 -0.450959
0.166590 0.056017 -0.182868 -0.993127 -0.049032 0.106279
0.168803 0.080278 -0.103580 -0.941446 -0.318065 0.111869
0.095782 -0.092838 -0.911837 -0.948447 0.310275 -0.064633
0.111007 0.193337 -0.063949 -0.822399 -0.562505 0.085135
-0.152360 0.116783 -0.918366 0.844872 -0.271208 0.461127
-0.150064 0.002129 0.107965 0.861438 0.041714 -0.506146
0.340592 0.000689 0.573223 -0.986301 -0.112760 -0.120398
-0.246432 0.079043 0.567887 0.644733 -0.316703 -0.695714
0.190283 -0.025180 0.088221 -0.986334 0.136104 0.092853
-0.041969 -0.197395 -0.610877 -0.505709 0.837844 0.205610
0.076407 -0.205840 -0.119917 -0.773224 0.633411 0.030243
-0.152353 -0.243872 -0.471192 0.368521 0.928495 0.045705
0.000034 0.023523 0.384471 0.972401 -0.215342 0.089805
-0.250702 -0.098039 -0.462877 0.993818 0.090795 0.063885
-0.218466 0.140097 -0.759780 0.825733 -0.513982 0.232351
0.134669 -0.090946 -0.196816 -0.837475 0.460464 0.294292
-0.218908 -0.103268 -0.297269 0.892491 0.298846 -0.337864
0.170307 0.271018 0.491260 -0.029216 -0.978251 0.205358
0.043634 -0.226130 0.603344 0.140214 0.893294 -0.427044
-0.202849 0.146403 -0.793661 0.852518 -0.338640 0.398166
0.319777 0.136378 0.606007 -0.548609 -0.550783 -0.629020
0.061438 0.098524 -0.441982 -0.892578 -0.390797 0.224906
-0.106209 0.207598 0.529883 -0.418139 -0.902891 -0.099734
0.175921 -0.220889 0.298576 -0.393011 0.873477 0.287367
-0.030410 0.040538 0.291538 0.797688 -0.147631 -0.584721
0.298811 -0.183271 0.597104 -0.785105 0.617380 -0.049524
0.044732 -0.158893 -0.821401 -0.837727 0.480842 -0.258852
0.155175 0.058610 -0.214826 -0.909282 -0.185163 0.372721
-0.259776 -0.010096 -0.571657 0.997464 -0.071121 0.002725
-0.206012 0.156174 -0.768475 0.825733 -0.513982 0.232351
-0.251208 -0.068588 -0.570495 0.963476 0.265511 0.034891
-0.280314 -0.166119 0.439949 0.732013 0.675788 -0.086417
0.043228 -0.170834 -0.990611 -0.380709 0.852139 0.359054
0.125708 0.005825 -0.989787 -0.991191 0.003568 -0.132395
-0.197305 -0.033004 -0.866269 0.896326 0.120341 0.426752
0.005480 -0.208648 -0.877464 -0.545727 0.836964 -0.040897
-0.027653 0.254370 -0.292273 -0.373021 -0.926122 -0.056159
0.259341 0.100513 0.273337 -0.836559 -0.316272 0.447372
-0.135600 0.247526 -0.473773 0.402420 -0.914967 0.029900
-0.266023 0.026929 0.571710 0.741374 -0.201295 -0.640191
-0.071618 0.200136 0.604056 0.242122 -0.873244 -0.422874
-0.114534 0.235758 -0.593652 0.451864 -0.875047 0.173525
-0.066329 0.052299 -1.066792 -0.026689 -0.046374 0.998568
0.095531 -0.154123 0.657901 0.020007 0.486225 -0.873605
-0.014931 -0.137875 -0.644442 -0.951688 0.269803 0.146618
0.025425 0.140045 0.368462 0.950733 -0.120051 0.285821
0.147495 0.021749 0.710886 0.031643 0.129405 -0.991087
0.015085 0.224459 0.603162 0.229595 -0.871355 -0.433621
0.148919 0.122826 -0.149944 -0.941446 -0.318065 0.111869
-0.070951 -0.183695 0.479399 -0.385701 0.469742 0.794089
0.071927 0.072392 0.702569 0.062156 -0.075064 -0.995240
-0.215199 -0.019240 -0.236942 0.925231 0.188049 -0.329524
0.141974 -0.008911 0.706707 0.031643 0.129405 -0.991087
-0.250874 0.062586 -0.508392 0.979023 -0.203748 0.000948
0.189807 0.127524 0.152963 -0.840285 -0.485043 0.242186
-0.186367 0.107086 -0.861762 0.844872 -0.271208 0.461127
-0.037521 -0.252988 -0.391329 -0.589045 0.789274 0.173414
0.242807 0.111073 0.697821 0.009672 -0.374443 -0.927199
-0.132498 -0.233066 -0.310767 0.594630 0.796688 -0.108177
0.105599 -0.197887 0.009998 -0.739192 0.665178 0.105517
-0.210225 -0.128201 0.582052 0.465866 0.422257 -0.777604
0.137545 -0.153556 0.003301 -0.873396 0.465169 0.144209
0.290027 0.183601 0.507219 -0.839469 -0.538517 0.072747
0.057464 0.106746 -0.443468 -0.892578 -0.390797 0.224906
-0.107900 -0.228801 -0.139339 0.786637 0.616114 -0.040071
-0.001866 0.205625 -0.871635 -0.607444 -0.793757 -0.031002
-0.152516 -0.046318 0.067916 0.969835 0.175519 -0.169157
-0.048928 -0.253848 -0.410423 -0.153026 0.976323 0.152891
-0.184947 0.046052 -0.097473 0.989838 -0.035507 -0.137699
0.129053 -0.119603 -0.157653 -0.873396 0.465169 0.144209
0.018684 0.188330 -0.831275 -0.673376 -0.735628 0.073598
-0.078821 -0.261195 -0.353306 0.050478 0.997118 -0.056629
-0.256119 0.033753 -0.674421 0.990792 -0.135317 -0.004521
-0.125392 -0.058311 0.401188 -0.548333 0.307644 0.777616
-0.155357 -0.019464 0.643900 0.419348 -0.001828 -0.907824
0.259184 0.206664 0.617535 -0.768725 -0.499138 -0.399903
-0.287219 0.152237 0.442070 0.857511 -0.509713 -0.069772
0.335218 -0.077187 0.643973 -0.977100 0.195183 -0.084733
0.043382 -0.107391 -0.481979 -0.900698 0.260150 0.347945
-0.200388 0.158525 0.415056 -0.106129 -0.469470 0.876547
0.134852 -0.093144 0.689265 0.015272 0.242815 -0.969952
-0.025634 -0.149095 0.655994 0.335228 0.459936 -0.822241
0.346689 0.034188 0.491903 -0.986301 -0.112760 -0.120398
0.066077 0.139643 -1.009083 -0.510969 -0.853969 0.098220
0.006553 0.035814 0.343357 0.972401 -0.215342 0.089805
0.145879 0.173903 0.117704 -0.798507 -0.594023 0.097584
0.027409 -0.195193 -0.407480 -0.895790 0.397584 0.198715
-0.061016 0.217223 -0.569587 -0.495329 -0.859747 0.124432
0.020424 0.103099 0.354506 0.972401 -0.215342 0.089805
0.165609 0.122671 -0.009928 -0.941446 -0.318065 0.111869
-0.150656 -0.156595 -0.112937 0.919570 0.391169 -0.037110
-0.193611 -0.077180 -0.187841 0.967639 0.086952 -0.236884
0.285302 -0.107386 0.350915 -0.864400 0.320539 0.387386
-0.021941 0.139663 0.266946 0.721724 -0.272510 -0.636281
-0.034066 0.254886 -0.167531 0.059466 -0.998020 -0.020471
-0.253466 0.044084 -0.402075 0.990792 -0.135317 -0.004521
-0.203135 0.183879 -0.712611 0.705472 -0.706070 0.061439
0.325892 0.070419 0.628337 -0.986301 -0.112760 -0.120398
0.048407 0.048223 -0.510293 -0.921391 -0.019797 0.388132
0.347175 0.003277 0.475060 -0.981345 0.190836 0.023323
-0.033911 0.254961 -0.170746 0.059466 -0.998020 -0.020471
0.259217 -0.024039 0.249373 -0.850049 0.091531 0.518689
0.057622 0.207346 0.401668 0.636021 -0.707697 0.307640
-0.294007 0.079725 0.522702 0.741374 -0.201295 -0.640191
0.010828 0.131054 -0.702528 -0.856132 -0.285296 -0.430864
-0.195925 0.197188 -0.382777 0.835273 -0.546863 -0.057093
0.284029 0.136634 0.652203 -0.645152 -0.435892 -0.627516
-0.090706 0.084281 -1.057971 -0.124557 -0.511404 0.850266
0.321342 0.105548 0.582978 -0.986527 0.154801 0.052925
-0.255783 0.031554 -0.534907 0.990792 -0.135317 -0.004521
0.088509 0.036150 -0.830201 -0.873194 -0.410215 -0.263165
-0.008050 -0.201642 -0.971866 -0.380709 0.852139 0.359054
-0.240503 0.096013 -0.359424 0.947686 -0.313801 -0.058490
0.035681 -0.033467 -0.692797 -0.902292 -0.047082 -0.428547
-0.048231 0.090313 0.258262 0.721724 -0.272510 -0.636281
-0.011376 -0.221664 0.595835 0.107120 0.886839 -0.449490
0.137512 0.045477 0.708695 0.062156 -0.075064 -0.995240
-0.086365 -0.221700 -0.620419 -0.453635 0.879025 0.146729
0.080974 0.097333 -0.899550 -0.905034 -0.362872 -0.221897
0.014417 0.012855 -0.604954 -0.968503 -0.205318 0.140877
0.022630 -0.049164 -1.052993 -0.155875 0.245511 0.956780
0.270719 0.142518 0.334991 -0.744696 -0.597264 0.297830
0.151738 0.073275 -0.213384 -0.888508 -0.333648 0.315011
0.123257 -0.223377 0.212495 -0.353238 0.912989 0.204141
0.276384 -0.069678 0.697368 0.015272 0.242815 -0.969952
0.039462 -0.042095 -0.699809 -0.902292 -0.047082 -0.428547
0.061966 0.067570 -0.473702 -0.936451 -0.022663 0.350066
0.274080 0.171351 0.400092 -0.750722 -0.547291 0.369985
-0.157921 -0.056196 -0.969522 0.916897 0.320968 0.237232
0.044096 0.195004 -0.335068 -0.834960 -0.511610 0.202723
-0.244935 -0.027636 0.589925 0.604727 0.027692 -0.795951
-0.093158 -0.226060 -0.789302 -0.109779 0.993646 0.024822
-0.068058 -0.143772 0.188061 0.777980 0.412500 -0.473910
-0.154430 -0.062652 -0.974280 0.916897 0.320968 0.237232
0.170438 -0.006351 -0.160821 -0.983240 0.160931 0.085673
-0.131087 0.168547 -0.926897 0.844872 -0.271208 0.461127
-0.137110 -0.222237 -0.735243 0.346114 0.937317 0.040531
-0.074526 -0.251458 -0.467784 -0.193348 0.977973 0.078646
-0.133055 -0.195508 -0.848063 0.720107 0.662565 0.206042
0.212015 0.042517 0.713571 0.062156 -0.075064 -0.995240
0.033595 0.061571 -1.054877 -0.014678 -0.309147 0.950901
-0.150972 0.033706 0.110154 0.919400 -0.072261 -0.386629
-0.079119 -0.170591 0.146559 0.777980 0.412500 -0.473910
0.187681 0.228123 0.621666 -0.071535 -0.737819 -0.671197
0.049375 -0.235352 -0.171924 -0.758982 0.631975 0.156695
0.283785 0.194897 0.518808 -0.839469 -0.538517 0.072747
0.099192 -0.245354 0.581371 0.140214 0.893294 -0.427044
-0.225952 0.158351 -0.468693 0.842099 -0.537120 -0.048694
0.067039 0.212449 0.393940 0.636021 -0.707697 0.307640
-0.036072 -0.190316 -0.620273 -0.861046 0.507078 -0.038355
-0.227612 0.015819 -0.260761 0.939499 -0.161999 -0.301824
-0.154525 0.152163 -0.891956 0.851945 -0.338637 0.399392
-0.294871 0.120100 0.425265 0.664680 -0.419983 0.617912
0.089369 -0.165727 -0.235550 -0.917741 0.367460 0.150749
-0.050339 0.001470 0.422746 -0.467115 0.067828 0.881591
0.099272 0.202858 -0.114403 -0.822399 -0.562505 0.085135
-0.138594 0.041642 0.133356 0.860761 0.087396 -0.501450
-0.013872 0.255854 -0.156053 0.059466 -0.998020 -0.020471
0.120529 0.088184 -1.045984 -0.947048 -0.316439 -0.054459
0.059111 0.044901 -1.059903 -0.014678 -0.309147 0.950901
0.033234 -0.105831 -0.509423 -0.900771 0.260163 0.347746
-0.244367 0.101578 -0.547418 0.997372 -0.070245 0.017756
0.011772 -0.253959 0.066046 0.076897 0.994343 -0.073271
0.114406 -0.242239 0.318502 -0.055620 0.996643 0.060077
-0.180235 0.067532 -0.896261 0.844872 -0.271208 0.461127
-0.047892 -0.106755 0.241104 0.785733 0.279535 -0.551801
-0.122657 0.252636 -0.384893 0.498523 -0.849057 -0.174866
-0.340152 -0.024739 0.478480 0.871586 0.176095 -0.457525
-0.035691 0.217794 0.588163 0.242122 -0.873244 -0.422874
0.004699 -0.211179 -0.918848 -0.545727 0.836964 -0.040897
-0.225556 -0.127162 -0.733886 0.828831 0.472311 0.299934
-0.058684 -0.239853 -0.810768 0.225564 0.929622 -0.291418
-0.117722 -0.083949 -1.049172 0.629243 0.384567 0.675398
0.104073 0.039235 -0.886652 -0.873194 -0.410215 -0.263165
-0.211056 0.091823 0.594144 0.632216 -0.313108 -0.708707
0.118831 -0.027902 -0.303820 -0.887417 0.127132 0.443090
-0.219852 -0.134420 -0.335819 0.738735 0.525061 -0.422589
-0.027236 -0.099683 0.437887 0.591779 0.365412 0.718521
-0.027840 -0.240208 -0.416608 -0.589045 0.789274 0.173414
-0.219519 -0.114927 -0.759622 0.872467 0.282199 0.398955
-0.178307 0.197819 -0.729850 0.417159 -0.908033 -0.038152
0.079985 -0.233979 0.104075 -0.535152 0.834882 0.128782
0.162610 0.067544 0.708581 0.012069 -0.258614 -0.965905
-0.246379 0.083781 -0.595082 0.979023 -0.203748 0.000948
-0.254278 0.043211 -0.553896 0.990792 -0.135317 -0.004521
-0.131534 0.076697 0.148343 0.919400 -0.072261 -0.386629
-0.259601 -0.009353 -0.616163 0.997464 -0.071121 0.002725
0.206025 0.006588 0.126750 -0.934047 0.123318 0.335186
-0.022290 -0.200960 -0.730724 -0.692700 0.679197 -0.242607
-0.024217 0.221356 -0.446294 -0.679669 -0.688591 0.252769
-0.100005 -0.103088 0.168756 0.785733 0.279535 -0.551801
-0.192380 -0.186522 0.438432 -0.218124 0.865826 0.450297
-0.190791 0.026353 -0.894755 0.938325 -0.032585 0.344215
0.322677 0.094963 0.638832 -0.986527 0.154801 0.052925
0.135772 -0.041257 0.700963 0.033842 0.176446 -0.983728
-0.103042 0.231017 -0.641571 -0.495329 -0.859747 0.124432
0.167684 -0.095852 0.018643 -0.908908 0.400083 0.117556
-0.033150 0.250956 0.032110 0.083692 -0.996457 -0.008368
0.115442 -0.259448 0.444499 0.355368 0.927208 0.118319
0.139727 0.169958 0.043353 -0.798507 -0.594023 0.097584
-0.111000 -0.228457 -0.772233 -0.109779 0.993646 0.024822
-0.204793 -0.110636 -0.794861 0.872467 0.282199 0.398955
-0.111017 -0.241799 -0.576227 -0.453635 0.879025 0.146729
-0.159206 0.126146 -0.034129 0.872698 -0.482870 -0.072355
-0.195124 -0.006787 -0.157007 0.989838 -0.035507 -0.137699
0.078098 0.145312 0.682275 0.009672 -0.374443 -0.927199
0.050685 0.182958 -0.338329 -0.834960 -0.511610 0.202723
-0.216441 -0.040100 -0.819281 0.872467 0.282199 0.398955
0.333519 -0.012899 0.409879 -0.923767 0.110464 0.366676
0.073609 0.088152 -0.403662 -0.925734 -0.349746 0.143856
0.026987 -0.197382 -0.942486 -0.362562 0.889266 0.278847
-0.205245 0.195135 -0.559031 0.705472 -0.706070 0.061439
-0.070159 0.203249 -0.658844 -0.590345 -0.718859 -0.367062
0.010146 -0.054727 -0.656137 -0.824139 0.237023 -0.514407
-0.175239 -0.082611 0.379322 -0.392092 0.210012 0.895633
0.022399 -0.252708 0.088653 0.103143 0.983665 -0.147527
-0.225663 0.165995 -0.659464 0.705472 -0.706070 0.061439
-0.180775 0.137778 0.406319 -0.106129 -0.469470 0.876547
0.286471 0.186511 0.591158 -0.548609 -0.550783 -0.629020
-0.049328 0.206100 0.149506 0.461037 -0.822020 -0.334258
-0.016467 -0.204500 -0.974007 -0.380709 0.852139 0.359054
-0.242863 -0.085223 -0.674334 0.963476 0.265511 0.034891
0.067767 0.012345 -0.766223 -0.907212 -0.047014 -0.418038
0.258985 0.158152 0.663003 -0.645152 -0.435892 -0.627516
0.269679 -0.024430 0.266587 -0.850049 0.091531 0.518689
-0.009504 0.096354 0.305944 0.797390 -0.147870 -0.585067
-0.147405 -0.218362 -0.736930 0.346114 0.937317 0.040531
