ply
format ascii 1.0
element vertex 512
property float x
property float y
property float z
property float nx
property float ny
property float nz
end_header
0.098723 0.105139 0.299277 -0.708192 -0.491601 0.506747
-0.164931 -0.013506 -0.227869 -0.984490 -0.153404 0.085122
-0.423990 0.051516 -0.666808 0.835871 -0.331864 0.437249
-0.068474 -0.136165 -0.757255 0.013609 0.430519 0.902479
0.284190 0.237696 -0.106633 0.112760 -0.892597 -0.436526
0.062051 0.067170 0.237072 -0.815693 -0.113328 0.567276
-0.160206 0.187556 -0.741083 0.208011 -0.564740 0.798624
-0.243834 0.205500 -0.294148 -0.828292 -0.543964 -0.134294
0.133126 -0.201962 -0.536681 0.512657 0.628965 -0.584453
0.534108 -0.073592 -0.399141 -0.977678 0.099176 0.185230
0.385237 0.123952 -0.692759 -0.689190 -0.491615 0.532289
-0.026867 0.159517 -0.764738 0.029173 -0.455058 0.889984
-0.206892 -0.230079 0.057805 0.373555 0.916231 0.144837
0.404624 0.134368 0.690733 -0.713929 -0.575478 0.398912
0.028265 -0.193585 0.297243 -0.369838 0.869571 0.327210
-0.172934 0.005521 -0.262267 -0.968924 0.002522 0.247345
0.253584 0.228177 0.836090 0.283893 -0.876132 -0.389613
0.528485 -0.104543 -0.089299 -0.872251 0.172421 -0.457657
0.051553 0.096554 -0.516795 0.567450 -0.340900 -0.749525
0.424042 0.186141 -0.558646 -0.764302 -0.542559 0.348529
0.197161 0.125696 -0.290284 0.906654 -0.353284 0.230584
0.408799 -0.245651 -0.470285 -0.531363 0.793711 0.296103
-0.079344 -0.071053 -0.050027 -0.848341 0.292537 0.441293
0.367208 -0.266974 -0.204323 -0.189007 0.981345 -0.035192
-0.155798 0.244979 -0.634609 0.068388 -0.994816 0.075265
0.014229 0.068930 0.147803 -0.846745 -0.266413 0.460485
0.231555 -0.245574 0.710133 0.087592 0.989959 -0.110942
0.108279 -0.055665 0.004922 0.236280 0.389976 -0.889995
0.507174 -0.124052 -0.056034 -0.872251 0.172421 -0.457657
-0.067929 -0.065249 0.514138 0.768124 0.235021 -0.595610
0.192846 0.253033 -0.573803 0.101349 -0.992662 -0.065965
-0.050386 -0.186172 -0.531864 -0.329488 0.531075 -0.780639
0.416393 0.011062 0.057889 -0.112302 0.247616 -0.962328
-0.283863 0.093458 0.137563 0.850526 -0.344260 -0.397607
-0.077513 -0.110347 0.483983 0.768124 0.235021 -0.595610
-0.202828 0.121580 0.282938 0.828458 -0.212011 -0.518371
0.418108 0.213095 -0.043799 -0.021201 -0.896404 -0.442730
-0.071103 0.058333 -0.031957 -0.835928 -0.097306 0.540144
0.181148 -0.026871 -0.290079 0.854657 -0.041963 0.517494
0.053101 -0.181794 0.635590 0.650334 0.603234 -0.461708
0.524407 -0.146502 -0.275165 -0.859751 0.500682 0.100723
0.167674 -0.157829 -0.174712 0.715318 0.269604 0.644697
-0.204708 0.168751 -0.392251 -0.838364 -0.529556 -0.129288
-0.417941 0.106687 -0.155017 0.884844 -0.298830 -0.357425
0.411030 0.112663 0.945196 -0.100218 -0.577660 -0.810102
0.257205 -0.225105 -0.291504 0.610643 0.787621 0.082275
-0.360617 0.071846 -0.019869 0.917498 -0.197150 -0.345440
0.002132 -0.208974 0.308603 -0.369838 0.869571 0.327210
-0.335836 -0.201980 -0.188985 0.399024 0.899536 -0.177804
0.485372 0.000415 -0.529925 -0.945601 0.067300 0.318293
0.057663 -0.023108 -0.149672 0.569645 0.003386 0.821884
-0.285263 -0.228313 -0.334374 0.287571 0.956837 -0.042008
0.069618 -0.158237 0.689956 0.867615 0.184118 -0.461893
0.418857 -0.222655 -0.490366 -0.817299 0.524715 0.238112
0.160787 0.150939 0.855279 0.639173 -0.640600 -0.425546
0.114736 0.131545 0.801979 0.922209 -0.220154 -0.317903
-0.287565 0.234145 -0.526028 -0.139150 -0.990269 -0.001917
0.410228 0.188937 -0.583528 -0.730254 -0.554050 0.399696
0.208946 0.155857 -0.271618 0.704807 -0.619372 0.345870
-0.076814 -0.229366 -0.686512 -0.010261 0.803247 0.595558
0.192401 0.169948 -0.444537 0.685945 -0.669770 -0.284407
-0.333903 0.229560 -0.581295 0.419970 -0.907461 -0.011798
0.422728 0.200077 -0.539833 -0.764302 -0.542559 0.348529
0.444845 -0.000200 0.037703 -0.664410 0.138420 -0.734438
0.541900 0.045527 -0.087603 -0.858502 -0.092726 -0.504357
-0.186868 0.221596 0.157165 0.435116 -0.870610 -0.229592
-0.355559 0.218715 -0.518028 0.419970 -0.907461 -0.011798
0.452674 0.192056 -0.474907 -0.719906 -0.653668 0.233352
-0.056462 -0.043848 0.537045 0.800219 0.165773 -0.576340
-0.040963 -0.167858 -0.742552 0.013609 0.430519 0.902479
0.228951 -0.081815 0.449330 -0.730150 0.236647 0.640998
0.438490 0.082250 0.945784 -0.590233 -0.433188 -0.681156
0.354746 0.263271 -0.447291 -0.422692 -0.903881 0.065801
-0.205007 -0.218078 -0.022976 0.373555 0.916231 0.144837
0.023253 -0.034763 -0.050656 0.951139 0.275196 -0.140008
-0.357476 -0.200685 -0.647721 0.834918 0.528027 0.155237
0.125782 -0.219749 -0.686661 -0.091428 0.918794 0.384004
-0.271003 -0.233007 -0.343674 0.287571 0.956837 -0.042008
-0.425125 -0.087324 -0.537079 0.944188 0.329382 0.004002
-0.348284 -0.087344 0.033238 0.886745 0.333940 -0.319637
-0.151890 0.223954 0.023665 -0.385154 -0.911299 0.145568
-0.131758 0.236635 0.109692 -0.174056 -0.931291 0.320002
-0.388303 -0.088037 -0.062241 0.838950 0.334838 -0.429006
-0.056980 -0.145306 0.493509 0.758021 0.474530 -0.447465
-0.016836 0.113766 0.549157 0.771409 -0.227254 -0.594377
-0.003159 -0.171902 0.195175 -0.797836 0.402311 0.449002
-0.318818 -0.172877 0.006828 0.767321 0.518719 -0.377028
0.517054 -0.147598 -0.332479 -0.859751 0.500682 0.100723
0.070291 -0.127076 0.703641 0.867615 0.184118 -0.461893
-0.246665 -0.248485 -0.620805 0.133441 0.874969 0.465427
-0.231965 -0.185728 0.157738 0.749003 0.518800 -0.412118
-0.316975 -0.093890 0.106470 0.883825 0.028427 -0.466953
0.197984 0.246816 0.687816 0.118066 -0.985657 -0.120582
-0.199825 -0.232134 -0.664973 0.133441 0.874969 0.465427
-0.443659 -0.037671 -0.251038 0.944188 0.329382 0.004002
-0.355293 -0.175554 -0.126808 0.796851 0.583647 -0.156157
0.385675 0.075275 0.623567 -0.724992 -0.266897 0.634942
-0.184638 0.157159 0.273024 0.732429 -0.515484 -0.444775
0.020353 -0.216880 -0.701678 -0.010261 0.803247 0.595558
0.257251 0.179001 -0.012240 0.252971 -0.538125 -0.804007
-0.028060 -0.204953 -0.554064 -0.329488 0.531075 -0.780639
-0.133440 -0.124819 0.390675 0.710633 0.501003 -0.493961
-0.356867 0.130984 -0.683541 0.587984 -0.382765 0.712577
-0.147179 -0.094596 -0.775201 0.017388 0.220540 0.975223
-0.333607 -0.119008 -0.716709 0.386950 0.453935 0.802628
-0.294123 0.203205 -0.009450 0.752534 -0.632808 -0.182336
0.551666 0.048838 -0.106925 -0.924957 0.094167 -0.368221
0.559202 -0.077040 -0.201828 -0.989934 0.093141 0.106560
-0.047876 0.087612 -0.494679 -0.400210 -0.344191 -0.849331
0.040728 -0.075893 -0.046351 0.824839 0.304912 -0.476097
0.459057 -0.045601 -0.583333 -0.821067 0.289888 0.491746
-0.163074 0.125718 -0.163821 -0.813097 -0.185152 0.551898
-0.103417 -0.206552 -0.523345 -0.329488 0.531075 -0.780639
-0.430735 -0.086327 -0.292467 0.973933 0.225239 0.026871
0.077214 -0.120062 0.274324 -0.714677 0.435130 0.547630
0.411547 -0.030902 -0.685322 -0.765389 0.134367 0.629384
0.285725 -0.149953 0.020763 0.197829 0.610409 -0.766984
-0.010574 -0.076574 -0.781712 0.017388 0.220540 0.975223
0.086646 -0.231538 -0.602048 0.035794 0.822966 -0.566962
-0.020655 0.155465 -0.767014 0.029173 -0.455058 0.889984
-0.050004 -0.104817 -0.773226 0.020797 0.457342 0.889048
-0.091000 -0.215370 0.329303 0.140801 0.950491 -0.277023
-0.237474 0.018550 0.265415 0.855791 -0.201663 -0.476396
-0.301373 -0.224283 -0.352852 0.287571 0.956837 -0.042008
-0.414329 0.108864 -0.544423 0.944651 -0.324936 0.045285
0.405336 -0.119761 -0.673190 -0.704961 0.518804 0.483604
-0.324706 -0.189448 -0.100600 0.399024 0.899536 -0.177804
-0.426455 0.085636 -0.474426 0.929891 -0.365487 0.041486
-0.198848 0.169181 -0.419320 -0.546278 -0.659556 -0.516301
0.064617 -0.115194 0.697718 0.867615 0.184118 -0.461893
0.223761 -0.051472 0.432079 -0.723761 0.256069 0.640779
-0.412707 0.128762 -0.435481 0.944651 -0.324936 0.045285
0.163877 -0.142522 -0.758833 0.020797 0.457342 0.889048
-0.001338 0.203801 0.248011 -0.749797 -0.460319 0.475300
-0.410717 0.124801 -0.506854 0.967012 -0.251498 0.040456
-0.223333 0.218212 -0.144574 -0.628327 -0.658871 0.413636
0.291992 0.008328 0.497292 -0.723245 -0.144232 0.675362
-0.082031 0.228583 0.188762 -0.295466 -0.946016 0.133240
0.048818 0.140253 -0.082023 0.451304 -0.889483 -0.071725
0.195552 0.250418 -0.540433 0.386186 -0.857077 -0.340997
0.080748 -0.193615 0.382835 -0.621824 0.703497 0.344134
0.233962 0.204886 -0.234795 0.704807 -0.619372 0.345870
0.505499 0.040512 0.865943 -0.918663 -0.393788 0.031455
-0.154025 0.005348 0.403581 0.821372 -0.186140 -0.539166
-0.372832 -0.186934 -0.486127 0.879713 0.474922 -0.023541
0.515632 -0.118590 -0.070096 -0.872251 0.172421 -0.457657
-0.138502 0.235924 0.184418 0.308513 -0.925398 -0.220134
-0.402333 -0.142284 -0.297920 0.795917 0.605150 0.017591
0.127478 0.093983 -0.006017 0.359149 -0.413451 -0.836702
0.092483 -0.229567 0.539147 0.244806 0.969478 0.013516
-0.250840 0.233814 -0.517453 0.088427 -0.983252 -0.159361
-0.023491 -0.108972 -0.771709 0.020797 0.457342 0.889048
0.135296 -0.030531 0.323716 -0.730150 0.236647 0.640998
-0.256925 0.240381 -0.603477 0.204932 -0.881630 0.425125
0.092701 -0.229725 0.546503 0.244806 0.969478 0.013516
-0.197246 -0.219068 -0.036731 0.373555 0.916231 0.144837
0.097704 -0.227390 0.464440 -0.248313 0.931248 0.266679
0.446190 0.232953 -0.233765 -0.687899 -0.724237 0.047709
0.195336 0.156614 -0.235739 0.906654 -0.353284 0.230584
-0.040779 0.070417 0.017149 -0.835928 -0.097306 0.540144
0.375354 0.205135 -0.025635 -0.021201 -0.896404 -0.442730
-0.371729 -0.169195 -0.654206 0.733213 0.269331 0.624387
-0.426065 -0.095985 -0.380758 0.973933 0.225239 0.026871
0.532935 -0.125501 -0.306771 -0.859751 0.500682 0.100723
0.471810 0.187026 -0.061957 -0.664663 -0.566773 -0.486818
0.051892 0.233037 0.463292 0.052454 -0.997243 -0.052492
0.469172 -0.007638 -0.576351 -0.945601 0.067300 0.318293
0.559102 -0.033883 -0.235126 -0.992970 0.070370 0.095178
-0.203818 -0.020935 -0.785714 0.219985 0.237326 0.946194
0.023014 0.213032 -0.591877 0.072045 -0.787142 -0.612549
0.508249 0.055921 -0.471683 -0.949398 -0.178450 0.258456
-0.359725 -0.120718 -0.031862 0.838950 0.334838 -0.429006
-0.204968 0.239580 -0.527575 0.088427 -0.983252 -0.159361
-0.245245 -0.228811 -0.438971 -0.540452 0.639926 -0.546266
-0.177963 0.012745 -0.282041 -0.968924 0.002522 0.247345
0.027161 0.047325 -0.113835 0.898373 -0.181308 0.400067
-0.093164 0.229507 0.110947 -0.696703 -0.637823 0.328309
-0.283853 -0.210163 -0.088213 0.532457 0.843415 -0.071700
-0.177933 0.074708 -0.219266 -0.984490 -0.153404 0.085122
-0.218050 -0.243416 -0.533929 -0.166617 0.977620 -0.128445
0.446364 0.051782 0.032207 -0.658263 -0.127601 -0.741894
0.048269 0.017785 0.707530 0.826953 -0.254977 -0.501133
0.317082 0.204827 0.646665 -0.630135 -0.480985 0.609576
0.291849 -0.263356 -0.532323 0.143674 0.989387 -0.021724
0.444620 0.237619 -0.176705 -0.692389 -0.721142 -0.023485
-0.220137 -0.219700 0.026308 0.373555 0.916231 0.144837
0.276338 0.218462 -0.703650 -0.346300 -0.841940 0.413780
0.140397 -0.103506 0.851485 0.762000 0.159144 -0.627718
-0.077631 0.024765 0.502957 0.794072 -0.185021 -0.578980
-0.175883 0.132234 -0.773804 0.029173 -0.455058 0.889984
0.008772 0.137011 0.573505 0.771409 -0.227254 -0.594377
-0.295269 0.228790 -0.187159 0.160149 -0.987091 0.001693
-0.192930 -0.213415 -0.472694 -0.540452 0.639926 -0.546266
0.196763 -0.244198 -0.544848 0.409152 0.879074 -0.244589
0.062164 -0.035721 0.231506 -0.778250 -0.033890 0.627040
0.112116 0.023604 -0.447316 0.601089 0.193855 -0.775314
0.026350 0.232454 0.448837 0.052454 -0.997243 -0.052492
0.045712 0.170180 -0.761665 0.029173 -0.455058 0.889984
0.302654 0.017545 0.967096 0.046310 0.099443 -0.993965
-0.125902 -0.185733 0.339056 0.714639 0.568012 -0.408232
0.130790 0.117933 -0.154559 0.668358 -0.287251 0.686137
-0.251196 -0.176277 0.134683 0.749003 0.518800 -0.412118
-0.161167 0.003488 -0.368801 -0.917121 -0.025109 -0.397817
0.162894 0.126881 0.404512 -0.619490 -0.565352 0.544618
0.403749 0.141783 0.039803 0.206208 -0.347364 -0.914777
0.336455 0.144800 0.619327 -0.630135 -0.480985 0.609576
0.143794 0.103925 0.860218 0.747836 -0.300857 -0.591799
0.312601 -0.109096 0.554686 -0.730150 0.236647 0.640998
0.102344 0.042599 0.290099 -0.815693 -0.113328 0.567276
0.167295 0.086540 -0.789758 0.010000 -0.218051 0.975886
0.054695 -0.116072 0.241766 -0.714677 0.435130 0.547630
-0.192738 0.093437 -0.781934 0.020628 -0.134252 0.990732
0.167530 -0.016387 -0.383762 0.970472 0.185795 -0.153832
-0.391212 0.022058 -0.716212 0.573671 -0.404550 0.712208
-0.006774 0.236719 -0.666432 -0.020513 -0.938270 0.345296
-0.234182 -0.192890 -0.247733 -0.611156 0.789979 0.049209
-0.264557 0.089154 0.182588 0.850526 -0.344260 -0.397607
-0.101829 -0.188207 -0.731926 0.013609 0.430519 0.902479
0.484809 0.058879 0.781793 -0.946740 -0.124371 0.297009
0.066958 -0.009938 0.750218 0.946659 0.205868 -0.247901
-0.138441 0.043026 0.413720 0.794072 -0.185021 -0.578980
0.049115 0.187470 0.309845 -0.710313 -0.499069 0.496374
0.157988 0.245389 0.633084 0.238148 -0.969845 -0.051826
0.382203 0.025818 0.960478 -0.086777 -0.058859 -0.994487
0.051360 -0.248221 -0.628493 0.035794 0.822966 -0.566962
-0.087738 -0.150369 0.436034 0.758021 0.474530 -0.447465
-0.447116 0.019251 -0.365983 0.998402 -0.053311 -0.018772
-0.169706 -0.224516 -0.008320 -0.214853 0.958829 0.185701
-0.348100 0.221236 -0.446420 0.419970 -0.907461 -0.011798
-0.309654 -0.230971 -0.436448 0.178605 0.978932 -0.098960
-0.049299 -0.210208 0.237553 -0.600182 0.777936 0.186002
-0.134881 -0.238192 0.202084 0.099874 0.982525 -0.157068
0.103000 -0.245207 -0.631172 -0.091428 0.918794 0.384004
0.086121 -0.087544 -0.014934 0.367382 0.547052 -0.752173
0.271734 -0.184181 -0.726214 -0.258119 0.726633 0.636694
-0.387986 -0.159393 -0.358540 0.795917 0.605150 0.017591
-0.047571 0.111048 -0.508101 -0.487021 -0.468461 -0.737126
-0.337969 -0.088141 0.061023 0.886745 0.333940 -0.319637
0.176465 -0.003803 0.920546 0.762000 0.159144 -0.627718
0.485823 -0.078583 -0.511885 -0.945601 0.067300 0.318293
0.362349 0.105623 0.946654 0.068031 -0.423195 -0.903481
-0.247221 0.226199 -0.357100 -0.828292 -0.543964 -0.134294
0.044551 0.030160 0.695099 0.826953 -0.254977 -0.501133
-0.133681 -0.124211 -0.116588 -0.918374 0.127424 0.374635
-0.193292 0.002376 0.344787 0.821372 -0.186140 -0.539166
0.327216 -0.027445 0.539331 -0.723761 0.256069 0.640779
0.094670 0.000480 -0.798415 0.015494 -0.089022 0.995909
0.289419 0.218483 -0.692660 -0.346300 -0.841940 0.413780
0.024659 -0.087190 0.639110 0.806630 0.159742 -0.569062
0.243733 0.052471 0.455038 -0.723245 -0.144232 0.675362
-0.281542 -0.232669 -0.638885 0.240092 0.857105 0.455771
0.416244 0.038881 -0.681354 -0.759294 -0.184344 0.624092
-0.402107 -0.135524 -0.540720 0.795917 0.605150 0.017591
0.021826 0.146600 -0.772939 0.029173 -0.455058 0.889984
0.170209 0.077097 -0.258772 0.906654 -0.353284 0.230584
-0.030185 0.094856 0.050826 -0.927617 -0.280065 0.247165
0.254098 0.182812 0.896555 0.270109 -0.411545 -0.870444
-0.433374 -0.063099 -0.584601 0.944188 0.329382 0.004002
0.034705 0.111999 -0.101466 0.898373 -0.181308 0.400067
0.450797 0.231424 -0.168597 -0.692389 -0.721142 -0.023485
-0.436567 -0.057113 -0.325939 0.973933 0.225239 0.026871
0.203425 -0.175299 0.482994 -0.638337 0.566223 0.521457
0.385917 -0.061066 0.619069 -0.723761 0.256069 0.640779
0.125214 -0.159698 0.370313 -0.638337 0.566223 0.521457
-0.335260 -0.104301 -0.724230 0.386950 0.453935 0.802628
-0.429864 -0.074433 -0.479969 0.944188 0.329382 0.004002
0.155292 -0.051934 -0.222824 0.899712 0.312202 0.305039
0.165574 -0.245515 -0.601758 0.409152 0.879074 -0.244589
-0.086185 -0.150960 0.438038 0.758021 0.474530 -0.447465
0.177878 -0.027554 0.916240 0.762000 0.159144 -0.627718
-0.014439 0.108873 -0.782906 0.010000 -0.218051 0.975886
0.188469 0.125708 -0.363017 0.945084 -0.161551 -0.284109
0.049600 -0.123876 0.241318 -0.714677 0.435130 0.547630
0.422709 -0.177760 -0.013821 -0.265085 0.686262 -0.677329
-0.064408 -0.157240 0.468270 0.758021 0.474530 -0.447465
-0.436958 -0.053148 -0.558067 0.944188 0.329382 0.004002
0.225600 -0.208547 -0.691889 -0.050995 0.911869 0.407301
0.159303 0.235880 0.716592 0.206148 -0.970801 -0.122675
0.168761 -0.092525 0.384723 -0.730150 0.236647 0.640998
-0.183697 0.218918 -0.067464 -0.402039 -0.894939 0.193514
-0.000196 0.008382 0.084543 -0.893652 -0.065936 0.443890
-0.336589 0.215227 -0.164571 0.634581 -0.723237 -0.272461
-0.038544 0.038770 0.549657 0.771409 -0.227254 -0.594377
-0.222377 0.169504 0.196570 0.732429 -0.515484 -0.444775
-0.450992 0.007498 -0.538756 0.998402 -0.053311 -0.018772
-0.024740 0.200180 -0.562402 -0.083124 -0.928792 -0.361159
0.322403 0.140395 -0.747908 -0.468969 -0.559217 0.683626
0.189986 0.153695 -0.017079 0.292024 -0.533256 -0.793952
-0.012998 0.118792 -0.518919 -0.194321 -0.413871 -0.889354
0.012623 -0.180905 0.572385 0.768124 0.235021 -0.595610
0.382935 -0.214418 0.784862 -0.436819 0.885063 0.160790
-0.317512 0.178186 -0.019149 0.752534 -0.632808 -0.182336
-0.222846 0.181199 -0.263311 -0.658152 -0.751137 0.051277
0.087582 -0.115251 0.288708 -0.827793 0.241290 0.506496
-0.131174 0.121348 -0.469100 -0.400210 -0.344191 -0.849331
-0.105443 -0.008592 0.475472 0.794072 -0.185021 -0.578980
-0.178822 -0.058901 -0.284678 -0.968924 0.002522 0.247345
-0.198454 -0.148487 -0.369341 -0.911828 0.359234 -0.198798
0.442750 0.226711 -0.378126 -0.687899 -0.724237 0.047709
0.189280 0.200173 -0.485347 0.538577 -0.591532 -0.600021
0.196753 -0.184976 -0.045678 0.384119 0.851300 -0.357408
0.053722 -0.047339 0.703895 0.875056 0.178382 -0.449952
0.061437 0.210210 -0.731821 -0.024160 -0.692844 0.720683
0.115920 0.144114 -0.489695 0.567450 -0.340900 -0.749525
0.234381 -0.185880 -0.334636 0.872867 0.397850 -0.282521
-0.137707 0.002346 -0.165741 -0.807598 -0.173916 0.563506
0.546836 0.073659 -0.307791 -0.960100 -0.183512 0.211023
-0.179522 -0.218904 -0.693826 0.120776 0.859365 0.496895
0.179743 -0.114631 -0.425371 0.970472 0.185795 -0.153832
-0.017547 0.212789 -0.731990 -0.024160 -0.692844 0.720683
0.110270 -0.234478 0.569194 0.244806 0.969478 0.013516
0.139313 0.179672 0.783816 0.582734 -0.632050 -0.510817
0.305808 0.259641 -0.424005 0.234709 -0.968287 -0.085632
0.364826 -0.266015 -0.164769 -0.189007 0.981345 -0.035192
-0.010578 -0.113308 0.143496 -0.772592 0.303746 0.557530
0.032753 -0.043518 0.664630 0.875056 0.178382 -0.449952
-0.437316 0.043949 -0.167406 0.974819 -0.050272 -0.217256
-0.101604 0.176873 -0.514234 -0.487021 -0.468461 -0.737126
0.179025 -0.239125 -0.556289 0.409152 0.879074 -0.244589
0.102174 -0.121106 -0.134992 0.258940 0.387664 0.884684
0.143181 0.148392 0.832669 0.639173 -0.640600 -0.425546
0.218575 -0.105845 -0.778980 0.020797 0.457342 0.889048
0.094143 0.039978 0.791889 0.888929 -0.142428 -0.435339
0.053779 -0.240706 -0.653660 -0.091428 0.918794 0.384004
0.472445 -0.066721 0.927710 -0.614290 0.386678 -0.687843
0.177897 0.201099 -0.098238 0.400591 -0.896124 -0.191021
0.128895 -0.165666 -0.064496 0.326345 0.894711 -0.304945
-0.218152 0.133533 -0.763176 0.351515 -0.386121 0.852847
0.099029 0.059473 -0.466299 0.537733 -0.291672 -0.791056
-0.054336 -0.217044 0.249892 -0.600182 0.777936 0.186002
0.242476 0.243829 0.778573 0.166349 -0.985207 -0.041182
0.149359 -0.134616 -0.458793 0.629001 0.505796 -0.590363
0.177935 -0.174362 0.450773 -0.638337 0.566223 0.521457
-0.217393 -0.097305 -0.762105 0.230894 0.412918 0.881015
0.033948 -0.229278 0.464671 -0.135248 0.988678 0.064985
0.561417 -0.049024 -0.199776 -0.992970 0.070370 0.095178
0.292465 0.207276 -0.710024 -0.533799 -0.595663 0.600204
-0.381740 0.203919 -0.503923 0.702701 -0.709518 -0.052869
0.022382 0.073065 0.634186 0.850845 -0.261724 -0.455590
0.269872 -0.189469 -0.025884 0.112311 0.858582 -0.500223
0.166783 0.108878 0.884980 0.605487 -0.199284 -0.770501
0.158659 0.242092 0.592983 0.082581 -0.975624 0.203319
0.486909 -0.021168 0.940401 -0.614290 0.386678 -0.687843
0.441711 -0.207981 -0.454515 -0.767633 0.526605 0.365278
0.132833 0.164611 0.406662 -0.710313 -0.499069 0.496374
0.239274 -0.098728 0.933978 0.457375 0.291366 -0.840187
-0.034654 -0.197168 0.221059 -0.408171 0.875842 0.257485
0.146755 -0.024616 -0.225603 0.899712 0.312202 0.305039
0.019419 0.044108 -0.086932 0.980648 -0.175431 0.086912
0.424714 0.073740 0.953231 -0.184597 -0.062461 -0.980828
0.173946 -0.095376 0.004955 0.236280 0.389976 -0.889995
0.327778 -0.272373 -0.337823 0.228006 0.971504 -0.064755
-0.010109 0.116085 0.557000 0.771409 -0.227254 -0.594377
0.345903 -0.169805 -0.708365 -0.715121 0.522895 0.463877
-0.348853 -0.217442 -0.624355 0.346471 0.872008 0.345774
0.460335 0.126061 0.829388 -0.795804 -0.595067 0.112207
-0.446638 -0.002716 -0.278140 0.998402 -0.053311 -0.018772
-0.153229 0.114189 -0.449090 -0.783184 -0.266472 -0.561797
0.116349 0.232095 0.655523 0.724398 -0.666129 -0.177537
0.063199 0.020701 0.731385 0.887317 -0.212720 -0.409168
-0.089431 -0.091931 0.475880 0.768124 0.235021 -0.595610
0.189798 -0.149533 -0.755833 0.020797 0.457342 0.889048
-0.361148 0.145927 -0.673472 0.551155 -0.236735 0.800116
-0.434310 -0.073014 -0.274461 0.973933 0.225239 0.026871
-0.135794 -0.236073 0.214759 0.099874 0.982525 -0.157068
-0.417579 -0.085306 -0.650818 0.588844 0.528470 0.611542
0.310015 -0.224767 0.674547 -0.385723 0.866536 0.316754
-0.038811 -0.216050 -0.557076 -0.329488 0.531075 -0.780639
-0.354825 -0.127418 -0.026773 0.886745 0.333940 -0.319637
0.379285 0.121207 0.042101 0.206208 -0.347364 -0.914777
0.236584 0.095640 -0.788435 0.010000 -0.218051 0.975886
-0.270576 0.226122 -0.103154 -0.133130 -0.950409 0.281069
-0.012512 0.019433 0.592868 0.876418 -0.242576 -0.415991
0.245965 -0.243652 0.754863 0.129699 0.988453 -0.078344
-0.123710 0.120458 -0.107038 -0.837590 -0.189118 0.512520
0.189581 0.242310 -0.526815 0.386186 -0.857077 -0.340997
-0.183747 0.053896 -0.305120 -0.968924 0.002522 0.247345
0.431488 -0.145461 0.756233 -0.634772 0.655223 0.409571
-0.279483 0.229726 -0.158049 -0.126763 -0.990242 -0.057896
0.454470 0.026890 0.695815 -0.851556 -0.271216 0.448658
0.115716 -0.240985 -0.613927 0.035794 0.822966 -0.566962
0.051986 0.204251 0.338767 -0.350779 -0.879968 0.320328
0.125130 -0.057769 0.322192 -0.730150 0.236647 0.640998
0.032924 -0.229677 0.468612 -0.135248 0.988678 0.064985
-0.255338 0.237608 -0.543356 0.088427 -0.983252 -0.159361
0.106929 -0.069872 0.298710 -0.827793 0.241290 0.506496
-0.392775 0.182490 -0.577091 0.967012 -0.251498 0.040456
-0.020007 -0.207760 0.280306 -0.408171 0.875842 0.257485
0.359995 0.115822 -0.727062 -0.759294 -0.184344 0.624092
0.019856 -0.130382 0.609918 0.864547 0.258142 -0.431186
-0.352302 -0.223897 -0.464661 0.879713 0.474922 -0.023541
-0.294133 -0.239498 -0.487448 0.261671 0.954245 -0.144725
-0.044759 0.226927 0.264693 -0.386348 -0.914352 0.121228
0.031174 0.005187 -0.023497 0.665953 0.122156 -0.735924
0.336269 -0.144736 0.028208 -0.186905 0.243182 -0.951803
0.024154 -0.192945 0.576471 0.430176 0.853819 -0.293158
-0.113499 -0.079066 0.447721 0.800219 0.165773 -0.576340
0.013387 0.071327 0.147642 -0.846745 -0.266413 0.460485
0.207443 -0.231542 -0.503326 0.512657 0.628965 -0.584453
0.162295 -0.082892 -0.783366 0.017388 0.220540 0.975223
0.220895 0.205115 -0.205656 0.614473 -0.785664 0.071795
0.016823 0.032708 -0.080653 0.980648 -0.175431 0.086912
0.111113 -0.216921 0.448221 -0.436705 0.761733 0.478593
0.418397 -0.163166 -0.581918 -0.821067 0.289888 0.491746
0.078805 0.006382 -0.164448 0.569645 0.003386 0.821884
0.403581 0.054683 -0.692093 -0.759294 -0.184344 0.624092
0.472155 0.067908 0.754177 -0.851556 -0.271216 0.448658
-0.091294 -0.255439 -0.651596 -0.010261 0.803247 0.595558
-0.340790 -0.054715 -0.739620 0.399574 0.067567 0.914207
-0.159285 0.091414 -0.169176 -0.807598 -0.173916 0.563506
-0.284096 -0.203612 -0.012958 0.532457 0.843415 -0.071700
-0.073146 -0.197224 0.099893 -0.684961 0.670501 0.285055
0.034899 0.069531 -0.789913 0.020628 -0.134252 0.990732
0.036395 0.080245 -0.788492 0.020628 -0.134252 0.990732
0.135675 0.021513 -0.208145 0.906654 -0.353284 0.230584
0.126327 0.109293 -0.784255 0.010000 -0.218051 0.975886
-0.378381 -0.015194 -0.017373 0.917498 -0.197150 -0.345440
0.254471 0.230922 -0.359299 0.894311 -0.446693 -0.025943
-0.204393 -0.173143 -0.194776 -0.611156 0.789979 0.049209
0.066277 -0.115392 -0.044879 0.367382 0.547052 -0.752173
0.368647 0.173549 0.019020 -0.173882 -0.725096 -0.666333
0.083888 0.107181 -0.497148 0.567450 -0.340900 -0.749525
0.222071 -0.189885 -0.402799 0.795363 0.599445 -0.089800
0.122891 -0.144576 0.809528 0.872821 0.265142 -0.409735
0.436647 0.014234 0.658650 -0.835014 -0.252441 0.488902
0.260737 -0.250326 0.695118 0.129699 0.988453 -0.078344
-0.141009 0.150155 -0.765784 0.029173 -0.455058 0.889984
-0.446200 -0.022513 -0.198658 0.998402 -0.053311 -0.018772
-0.336204 0.013625 -0.746675 0.399574 0.067567 0.914207
-0.408659 -0.058161 -0.088465 0.934328 0.086935 -0.345650
-0.161785 0.037923 -0.369548 -0.917121 -0.025109 -0.397817
-0.281876 -0.198593 -0.696638 0.386950 0.453935 0.802628
-0.069559 -0.172769 0.050992 -0.684961 0.670501 0.285055
-0.391291 -0.134659 -0.157654 0.796851 0.583647 -0.156157
0.487530 -0.014397 -0.520383 -0.945601 0.067300 0.318293
0.223242 0.179623 -0.023357 0.252971 -0.538125 -0.804007
-0.436837 -0.052808 -0.614686 0.944188 0.329382 0.004002
-0.018656 0.208759 0.225494 -0.749797 -0.460319 0.475300
0.417114 0.244110 -0.309847 -0.422692 -0.903881 0.065801
0.127225 -0.057387 0.847080 0.772209 0.156839 -0.615707
-0.380058 -0.172438 -0.463690 0.879713 0.474922 -0.023541
-0.180206 -0.055134 -0.321208 -0.917121 -0.025109 -0.397817
0.159563 0.178241 0.454038 -0.619490 -0.565352 0.544618
0.511494 -0.064427 -0.041803 -0.872251 0.172421 -0.457657
-0.044011 0.221906 0.229212 -0.386348 -0.914352 0.121228
-0.365276 0.207533 -0.333610 0.702701 -0.709518 -0.052869
0.102449 -0.184135 -0.551199 0.629001 0.505796 -0.590363
-0.380741 0.185466 -0.243005 0.702701 -0.709518 -0.052869
0.015074 0.103994 0.169645 -0.846745 -0.266413 0.460485
-0.203043 -0.159229 -0.367708 -0.911828 0.359234 -0.198798
0.347238 0.267088 -0.410416 -0.178219 -0.983490 -0.031387
-0.226172 0.078110 0.260505 0.855791 -0.201663 -0.476396
0.443941 -0.071107 -0.593538 -0.821067 0.289888 0.491746
0.187628 -0.214353 0.513952 -0.436705 0.761733 0.478593
-0.400418 0.087326 -0.098481 0.862968 -0.297106 -0.408674
-0.357092 0.218347 -0.585772 0.402220 -0.899232 0.172051
-0.215005 -0.218621 -0.049521 -0.040505 0.998266 -0.042723
0.234184 0.103405 0.025190 0.133328 -0.352288 -0.926346
0.475910 0.202465 -0.268064 -0.687899 -0.724237 0.047709
0.348815 -0.167263 -0.706742 -0.715121 0.522895 0.463877
0.418609 0.203680 -0.026805 -0.173882 -0.725096 -0.666333
-0.170675 0.062943 0.358307 0.828458 -0.212011 -0.518371
0.353257 0.226128 0.853354 -0.473901 -0.880498 -0.011868
0.047958 0.080231 -0.137871 0.446306 -0.493159 0.746730
-0.166315 -0.020883 -0.788050 0.026759 0.177308 0.983792
0.080582 0.154303 -0.064619 0.372755 -0.915921 -0.148802
0.280656 -0.242535 -0.298698 0.610643 0.787621 0.082275
0.050610 -0.009233 -0.796050 0.026759 0.177308 0.983792
-0.053615 0.154356 -0.766500 0.029173 -0.455058 0.889984
-0.101693 0.062093 -0.788077 0.020628 -0.134252 0.990732
0.244088 0.228386 0.828700 0.283893 -0.876132 -0.389613
0.339813 0.265134 -0.337566 0.329232 -0.943035 -0.047877
-0.245707 0.203082 -0.236184 -0.658152 -0.751137 0.051277
0.262250 0.222972 -0.693491 0.022060 -0.915824 0.400973
0.317894 -0.091488 0.554214 -0.730150 0.236647 0.640998
0.167700 0.208593 -0.513019 0.538577 -0.591532 -0.600021
0.529770 0.149708 -0.145866 -0.919886 -0.339929 -0.195596
0.242430 0.220734 0.843642 0.464942 -0.732189 -0.497723
-0.342390 0.086365 0.020258 0.917498 -0.197150 -0.345440
0.364831 0.170152 0.909918 -0.100218 -0.577660 -0.810102
-0.102058 -0.088174 -0.467339 -0.431596 0.235354 -0.870823
0.306936 -0.240023 0.729824 -0.377994 0.907899 0.181218
-0.329441 0.113511 -0.715558 0.587984 -0.382765 0.712577
-0.444770 0.048039 -0.322945 0.998402 -0.053311 -0.018772
-0.342119 0.222190 -0.306961 0.419970 -0.907461 -0.011798
0.375867 0.249554 -0.467201 -0.449851 -0.879692 0.154195
0.163319 0.112953 -0.000006 0.359149 -0.413451 -0.836702
-0.066067 0.226849 0.211850 -0.295466 -0.946016 0.133240
0.256077 -0.257711 -0.511832 0.143674 0.989387 -0.021724
-0.446881 0.010823 -0.329552 0.998402 -0.053311 -0.018772
0.182243 -0.133714 0.882276 0.663244 0.267054 -0.699135
-0.207256 -0.212187 -0.102571 -0.483096 0.803482 0.347902
0.370767 -0.266768 -0.399021 -0.357204 0.932084 0.060202
-0.121057 -0.143916 -0.081914 -0.848341 0.292537 0.441293
0.082908 0.017011 0.002484 0.225156 -0.104477 -0.968705
0.452421 -0.185806 -0.463977 -0.767633 0.526605 0.365278
0.034502 0.135441 0.620989 0.850845 -0.261724 -0.455590
-0.159155 -0.116957 0.359968 0.841924 0.199222 -0.501472
-0.184870 0.161354 -0.427352 -0.783184 -0.266472 -0.561797
-0.441431 -0.045262 -0.249000 0.973933 0.225239 0.026871
0.427392 -0.082719 -0.635236 -0.922877 0.296245 0.246041
0.162116 -0.210607 -0.699882 -0.091428 0.918794 0.384004
0.450213 0.133363 -0.563674 -0.896377 -0.295182 0.330722
-0.057292 0.032647 0.527666 0.771409 -0.227254 -0.594377
0.483333 0.200441 -0.191754 -0.687899 -0.724237 0.047709
0.213182 -0.202037 -0.708231 -0.091428 0.918794 0.384004
0.176481 -0.061317 -0.381559 0.970472 0.185795 -0.153832
0.231906 0.158717 -0.773630 0.029173 -0.455058 0.889984
0.329075 -0.273825 -0.396589 0.470375 0.859854 -0.198490
0.427573 0.243042 -0.257337 -0.422692 -0.903881 0.065801
0.059976 0.114085 0.253805 -0.708192 -0.491601 0.506747
0.296916 -0.157574 -0.744217 -0.184049 0.566979 0.802908
