ply
format ascii 1.0
element vertex 512
property float x
property float y
property float z
property float nx
property float ny
property float nz
end_header
-0.291944 0.108156 0.438836 -0.719200 -0.691632 0.003600
0.154821 0.215389 0.523692 0.413282 -0.891343 -0.183264
0.116824 -0.162019 -0.898151 -0.007015 0.722350 0.690229
-0.485391 -0.138201 0.077051 0.902477 0.422697 0.070473
0.180524 0.228088 0.521944 0.413258 -0.890744 -0.183897
-0.018253 0.250748 -0.282950 0.352888 -0.817185 0.454545
0.400165 -0.131756 -0.202777 -0.715387 0.250245 0.651029
0.339303 0.147228 -0.263888 -0.688903 -0.365791 0.625072
-0.310435 -0.098615 0.026590 -0.947525 0.310001 0.068025
-0.001249 -0.032494 -0.715998 0.978513 0.155230 0.130273
-0.409762 -0.209644 0.523516 -0.010884 0.875325 -0.482109
0.299005 -0.259028 -0.149315 -0.530422 0.763955 0.364722
0.622741 0.044126 -0.083074 -0.883904 -0.185236 0.429006
-0.294375 -0.091991 0.272117 -0.857030 0.512711 0.027590
-0.129111 -0.212512 -0.280771 0.225068 0.891654 0.390683
-0.115899 -0.118955 -0.362456 0.398623 0.383961 0.831744
0.064807 -0.135872 0.209915 0.946135 0.316342 -0.048712
0.081161 0.136103 0.569800 0.707082 -0.660155 -0.250224
0.344791 0.114540 0.709583 -0.677788 -0.445398 -0.584664
-0.350426 -0.160968 0.445876 -0.570840 0.820973 0.001936
0.045430 0.177169 -0.731014 0.745326 -0.655571 0.116275
0.329604 -0.000372 -0.314355 -0.676579 -0.084605 0.730640
-0.320831 0.114400 -0.224244 0.657078 -0.601524 0.453275
0.224618 -0.180729 -0.400143 -0.669185 0.653117 0.351364
0.528678 0.094098 0.043767 -0.416825 -0.376067 -0.827177
0.313659 -0.040666 0.735704 -0.675840 0.283964 -0.679033
0.190085 0.160701 -0.775320 -0.864437 -0.419732 0.274165
0.236686 0.004915 -0.579092 -0.993640 -0.103502 0.022044
0.038143 0.173436 -0.703297 0.745277 -0.655661 0.116232
-0.538513 -0.027386 0.512123 0.993430 0.107625 0.028708
-0.092355 -0.104087 -0.395971 0.626853 0.363095 0.688247
-0.518718 0.053415 0.603095 0.897133 -0.081704 -0.432962
-0.368862 -0.123531 -0.175016 0.762349 0.436051 0.477163
-0.138598 0.001961 -0.063429 0.079921 -0.133160 -0.987480
-0.452140 0.203473 0.146451 0.641269 -0.735107 0.218845
0.000651 0.139908 -0.555086 0.887770 -0.443677 0.117048
-0.509499 0.122505 0.495053 0.932907 -0.355243 0.042384
-0.340455 0.187317 0.202211 -0.865534 -0.500048 -0.008032
0.020878 0.026100 0.113793 0.948402 -0.304402 -0.078345
0.038200 -0.143233 -0.817425 0.726329 0.679787 0.086895
-0.188715 -0.140323 -0.309017 0.591507 0.301588 0.746742
0.395967 -0.044525 -0.243832 -0.718431 0.242461 0.650138
0.039259 0.205136 -0.080805 0.375408 -0.795647 -0.474286
-0.457381 0.152064 0.004087 0.653252 -0.716004 0.243320
0.192155 0.098918 -0.839898 -0.877604 -0.314283 0.359300
-0.254688 0.182467 -0.082726 -0.639439 -0.289611 -0.711995
0.636885 -0.025884 0.010185 -0.938362 0.188940 -0.287942
-0.333423 0.167669 0.256570 -0.779921 -0.625325 -0.008380
-0.429548 0.060775 -0.110002 0.760041 -0.197166 -0.618397
0.042233 -0.146858 -0.736346 0.862256 0.492620 0.107559
-0.524842 -0.089378 0.364184 0.937002 0.348089 0.018576
0.157777 -0.236007 0.373334 -0.072742 0.996439 -0.010892
-0.389526 -0.209237 0.128203 -0.285534 0.952640 0.097661
0.336416 0.185370 -0.221049 -0.517390 -0.685200 0.511570
0.128271 0.213556 0.246402 0.770694 -0.636776 -0.013143
0.329735 -0.079177 0.713338 -0.626016 0.610523 -0.484133
0.303393 -0.095707 0.413299 -0.947048 0.317154 -0.002487
-0.471814 0.161794 0.227686 0.316388 -0.910160 -0.264945
0.050651 -0.038799 -0.927331 0.820910 0.135238 0.552946
-0.068717 0.106715 -0.413264 0.648470 -0.234636 0.723765
0.167678 -0.199615 -0.678769 -0.789810 0.606435 0.084071
0.336268 0.139175 -0.271259 -0.598751 -0.407299 0.688588
-0.502709 0.117991 0.238800 0.933558 -0.355331 0.042076
-0.238680 -0.071886 -0.041201 -0.537861 0.158034 -0.827404
0.209623 0.159219 -0.409816 -0.955612 -0.288822 0.051117
0.172559 0.163420 -0.686410 -0.673003 -0.700936 -0.236434
0.243324 -0.072456 -0.441179 -0.989714 0.132259 0.038748
0.295041 -0.121902 0.246005 -0.924838 0.379968 0.008915
-0.433211 -0.124797 -0.068246 0.733132 0.470569 0.489293
0.335038 0.230369 -0.160594 -0.516838 -0.685157 0.511649
-0.530741 0.031223 0.581074 0.940482 -0.118612 -0.316833
0.240366 -0.120427 0.740232 -0.145698 0.654263 -0.740864
0.272369 0.196675 0.630562 -0.311927 -0.900972 -0.301074
0.288872 -0.140521 0.048475 -0.852921 0.461300 -0.242963
0.640684 0.053524 -0.041665 -0.999067 -0.029170 0.024713
0.356629 -0.101519 0.035702 0.252584 0.258286 -0.931913
0.102825 0.196540 0.119993 0.674587 -0.727866 -0.116069
-0.418326 -0.143082 0.617337 0.029354 0.484276 -0.874007
0.223577 -0.167754 -0.432445 -0.753890 0.604755 0.253921
0.090723 -0.190170 0.215635 0.711094 0.696748 -0.080650
0.157601 -0.266044 -0.076979 0.341822 0.783032 -0.517956
-0.448697 -0.210322 0.505064 0.711249 0.699370 0.067542
-0.317675 -0.115044 0.161472 -0.887862 0.458539 0.022474
-0.296413 -0.099926 0.347312 -0.857448 0.512094 0.026673
0.083221 0.276393 -0.273101 0.125690 -0.976222 0.172213
0.313991 -0.021944 0.090740 -0.886114 0.232366 -0.399128
-0.107185 -0.070128 -0.073205 0.276766 0.184373 -0.942552
0.146856 -0.221437 0.457599 0.693232 0.715772 -0.068693
0.045222 -0.154086 -0.810922 0.957520 0.277564 0.054089
0.200462 0.210747 0.664191 0.520984 -0.834282 -0.176884
0.215129 0.195246 -0.340307 -0.678516 -0.728986 0.086127
-0.281959 0.011261 0.513886 -0.984312 -0.173705 -0.009548
0.079284 -0.210150 -0.607450 0.646978 0.750543 0.121832
0.148439 -0.038072 0.762447 0.927080 0.027639 -0.371241
0.480412 -0.154560 -0.108912 -0.487103 0.561996 0.666972
0.071316 -0.216102 -0.528984 0.646508 0.750918 0.122104
-0.130858 0.063955 -0.380867 0.543611 -0.035485 0.837981
0.081243 -0.148801 0.376799 0.841936 0.528381 -0.103846
0.122874 0.223312 -0.649019 -0.774641 -0.620136 -0.119860
0.328933 -0.061705 0.547889 -0.919255 0.101726 0.378845
0.286677 0.137834 0.062309 -0.942124 -0.333324 0.002965
0.311687 -0.068006 0.171850 -0.974378 0.219319 -0.034784
0.198624 0.224572 0.280125 -0.263046 -0.964427 -0.019101
0.196176 0.152562 -0.609912 -0.955172 -0.288172 0.051361
0.206200 -0.225874 0.278037 -0.584577 0.810551 0.001299
0.153872 0.227557 0.303709 0.685651 -0.718630 -0.114319
-0.192064 0.142194 -0.098053 0.086030 -0.246675 -0.964870
-0.056424 0.062648 -0.062883 0.088798 -0.248981 -0.963936
-0.370552 -0.192111 0.158394 -0.593848 0.802813 -0.000830
0.001108 0.128859 -0.602324 0.888074 -0.442913 0.116510
0.068602 0.126422 0.305612 0.955531 -0.293319 -0.013826
-0.284605 0.027455 0.320779 -0.997273 -0.069464 -0.012990
0.179668 0.131027 -0.841488 -0.877749 -0.313283 0.359940
-0.432806 -0.200210 0.246339 0.711365 0.698895 0.067025
0.266821 0.151788 0.313356 -0.886582 -0.460363 -0.031291
0.120087 -0.077186 -0.928650 -0.112431 0.222611 0.967391
0.093153 0.256210 -0.108786 0.528160 -0.781244 -0.330250
-0.158802 -0.208680 -0.272074 0.225083 0.891340 0.390692
-0.287747 -0.110903 -0.263036 0.427443 0.261908 0.865054
0.346885 0.033285 0.730716 -0.674941 0.276620 -0.682831
-0.522778 0.071068 0.201991 0.995549 -0.094504 0.015592
-0.331147 0.149102 0.534696 -0.710679 -0.703749 -0.009119
-0.041195 0.179607 -0.389724 0.649864 -0.427240 0.628038
0.246794 -0.209477 0.464006 -0.537380 0.838742 0.080305
0.048335 0.075405 0.290764 0.949110 -0.304425 -0.076185
-0.490995 0.146852 0.214782 0.932877 -0.355541 0.041831
0.056713 -0.080625 -0.926227 0.820697 0.135660 0.552836
0.334590 -0.091426 -0.295312 -0.718165 0.245236 0.650322
0.057000 0.044448 0.664301 0.597188 -0.138349 -0.788704
-0.411747 -0.189380 -0.029165 0.495322 0.807637 0.316707
0.059617 -0.133212 0.113664 0.946154 0.316822 -0.049462
-0.339180 0.163143 0.356338 -0.710276 -0.704005 -0.009827
0.341003 -0.229840 -0.069858 -0.214073 0.890794 -0.398556
0.013279 -0.109738 -0.671936 0.964881 0.230592 0.115006
-0.536738 0.028905 0.422352 0.998146 -0.024256 0.039254
-0.015836 0.118977 -0.492182 0.935178 -0.191110 0.296337
-0.486958 -0.156275 0.266613 0.657307 0.748199 0.090017
-0.283821 -0.037785 0.142784 -0.989206 -0.140276 0.028145
-0.444590 0.084532 0.626298 0.011378 -0.324122 -0.945806
-0.013905 0.051001 -0.587621 0.995272 -0.014591 0.086611
-0.511445 -0.127509 0.496262 0.936296 0.349224 0.018350
0.284262 -0.147159 -0.324425 -0.679827 0.431157 0.592228
0.154453 0.186383 0.629300 0.706422 -0.660990 -0.250428
0.221148 -0.204602 -0.360360 -0.670081 0.652968 0.351126
-0.415357 -0.103670 -0.118339 0.843177 0.208431 0.494089
-0.302548 -0.088320 -0.261918 0.445974 0.264321 0.854117
0.034223 -0.268221 -0.272905 0.324739 0.943052 0.057222
-0.441302 -0.130475 0.623025 0.029772 0.484728 -0.874148
0.584142 0.147543 -0.063674 -0.875238 -0.384973 0.292131
0.322961 -0.008659 0.451063 -0.971609 -0.136471 0.189432
0.064604 -0.142099 0.159879 0.946519 0.316465 -0.049361
-0.414739 -0.116701 -0.112317 0.844452 0.211420 0.490106
0.638002 0.032784 0.024401 -0.975317 0.020081 -0.219821
-0.493902 -0.135585 0.163340 0.903185 0.422609 0.069475
-0.038732 0.122006 -0.066538 0.595207 -0.186217 -0.780941
0.361536 -0.010029 0.691469 -0.885912 0.086929 -0.454045
-0.440325 -0.209400 0.417522 0.479878 0.876760 0.010449
0.233620 -0.005774 -0.805460 -0.989188 0.135896 0.038577
0.624053 -0.074088 -0.000997 -0.849493 0.393745 -0.350070
0.008902 0.108111 -0.026123 0.595379 -0.186157 -0.780818
0.114582 0.101476 0.699250 0.877867 -0.174959 -0.443632
0.123983 0.074252 -0.937798 -0.365318 -0.272264 0.889242
0.029170 0.064196 0.060047 0.948961 -0.303940 -0.077697
-0.113784 0.025922 -0.396801 0.590330 -0.139120 0.794359
-0.279140 -0.037704 0.239471 -0.998165 -0.050131 -0.011096
0.022983 0.182499 -0.057015 0.375934 -0.795446 -0.474582
-0.051271 -0.238130 -0.288469 0.389728 0.832206 0.391420
0.343979 -0.229810 -0.069882 -0.213961 0.891069 -0.398435
0.289536 -0.041789 -0.348496 -0.154058 -0.134291 0.977955
0.003285 -0.024133 -0.805112 0.993805 -0.041873 0.087702
-0.532996 0.028639 0.479545 0.994640 -0.092164 0.016426
0.074232 -0.151517 0.294808 0.946288 0.315814 -0.049014
0.408000 0.035348 0.050431 0.235704 -0.334023 -0.912257
-0.336028 0.155944 0.481227 -0.710676 -0.703644 -0.009398
-0.210293 -0.093394 -0.071167 -0.147650 0.228932 -0.961330
0.214181 0.212448 0.330495 -0.701717 -0.711735 -0.032187
0.449527 -0.047895 -0.179886 -0.719478 0.243371 0.649156
0.336823 -0.104876 0.668848 -0.734662 0.512049 -0.443701
0.554788 -0.141405 -0.074025 -0.167204 0.583393 0.793554
0.153620 0.206289 -0.701205 -0.866623 -0.497740 0.006333
0.148998 0.211157 0.396051 0.685907 -0.718609 -0.113890
-0.201279 0.230118 -0.153415 0.171345 -0.982077 0.073463
0.056039 -0.111045 0.209133 0.946359 0.315795 -0.050611
-0.537188 0.004821 0.418094 0.998385 -0.025061 0.039042
0.265471 0.080997 -0.365028 -0.771210 -0.351941 0.528762
0.317609 0.064097 0.477833 -0.971448 -0.136420 0.189436
0.624611 -0.066280 -0.073972 -0.595868 0.262170 0.758594
-0.044950 -0.240713 -0.172428 0.050421 0.816149 -0.573925
0.053632 0.269137 -0.292697 0.197616 -0.973708 0.106191
0.230187 0.026768 -0.662110 -0.996183 -0.055712 0.050474
0.043316 -0.049489 0.386966 0.986815 0.138795 -0.074491
-0.284418 0.017659 0.369577 -0.984147 -0.172659 -0.009563
-0.069394 -0.211527 -0.327321 0.503484 0.701321 0.501876
0.222426 -0.169931 -0.424217 -0.669742 0.652740 0.350943
0.002770 0.099480 -0.721363 0.889010 -0.440341 0.115993
-0.515251 -0.121256 0.412304 0.891046 0.448741 0.054829
-0.275804 -0.108912 -0.270037 0.426936 0.261998 0.864917
0.076248 -0.178721 -0.863918 0.726291 0.679364 0.086595
-0.005394 -0.024691 -0.021647 0.636545 0.110136 -0.762227
0.100394 0.088198 -0.927449 0.097882 -0.239641 0.965275
-0.142093 0.193017 -0.123672 0.111688 -0.541886 -0.832355
-0.094606 0.074253 -0.402750 0.639482 -0.251387 0.725659
0.495651 0.167209 -0.001461 0.199315 -0.819841 -0.535966
-0.307446 0.128065 0.263285 -0.932323 -0.359910 -0.003573
-0.195128 -0.126547 -0.079493 -0.185639 0.239861 -0.951987
0.086789 0.140117 0.476805 0.703215 -0.700305 -0.118116
-0.087262 0.052949 -0.412368 0.588097 -0.138329 0.795771
0.147538 0.235486 0.158953 0.693616 -0.714870 -0.081797
0.122495 -0.063078 0.707602 0.927135 0.028491 -0.370584
0.398086 -0.008995 0.064795 0.182410 -0.236094 -0.954119
0.096488 0.253705 -0.455943 0.487635 -0.836065 0.249669
0.145799 0.197984 0.485010 0.685593 -0.718429 -0.113618
0.042903 -0.211692 -0.431518 0.392338 0.829242 0.394292
0.267333 -0.156986 0.692037 -0.602528 0.635387 -0.481100
-0.296668 -0.064990 0.065856 -0.947276 0.309406 0.067540
-0.078602 -0.145253 -0.385421 0.627815 0.361627 0.688585
0.323339 -0.154355 -0.279139 -0.702127 0.288561 0.649708
-0.503326 -0.060914 0.020243 0.876112 0.326771 0.352606
0.046854 -0.095794 -0.906989 0.820791 0.135773 0.552782
-0.364977 0.143681 0.575849 -0.430572 -0.468387 -0.771595
0.001584 0.120860 -0.633406 0.887546 -0.444116 0.116479
0.236003 0.066722 -0.518986 -0.996557 -0.055346 0.050407
0.303596 0.016955 -0.336199 -0.154029 -0.135242 0.978396
-0.230483 -0.226746 -0.166983 0.276799 0.949966 0.138966
0.117841 0.108856 -0.917217 0.106953 -0.358671 0.926583
0.202175 0.172063 -0.467024 -0.820361 -0.504952 0.265481
0.257728 -0.167853 -0.339908 -0.679797 0.432461 0.591468
0.245065 -0.054230 -0.449065 -0.989826 0.132267 0.039146
0.641046 -0.053245 -0.018933 -0.849382 0.393835 -0.349770
-0.211014 0.215715 -0.134397 -0.283059 -0.885535 -0.368110
0.041625 -0.243338 -0.370408 0.431493 0.749640 0.498770
0.047950 0.049705 0.463565 0.993153 0.000971 -0.114202
0.279734 -0.103042 -0.351806 -0.700757 0.290483 0.650224
-0.270721 -0.143586 -0.045837 -0.429237 0.661968 -0.613167
-0.495766 0.141582 0.317205 0.932954 -0.357011 0.041733
0.341257 -0.194770 -0.011399 0.107259 0.574835 -0.810520
-0.514167 -0.001456 0.623551 0.896721 -0.081612 -0.432971
-0.110930 -0.145947 -0.352372 0.398084 0.383523 0.832445
-0.254172 -0.219721 -0.174224 0.218487 0.960339 0.168755
0.047601 -0.266374 -0.167598 0.226667 0.950528 -0.207199
0.245713 0.185962 0.252683 -0.700856 -0.712510 -0.032591
0.305637 0.119170 0.497711 -0.733030 -0.621414 0.276491
0.135781 -0.218560 -0.673099 -0.419276 0.903494 0.077786
0.140152 -0.213304 0.477854 0.693758 0.715704 -0.068554
-0.281579 -0.212165 -0.112143 -0.254719 0.945174 -0.201490
-0.177730 0.220166 -0.240849 0.199069 -0.900211 0.385338
0.340584 0.225296 -0.162243 -0.517036 -0.685640 0.511115
-0.304361 -0.101260 0.129918 -0.947739 0.309197 0.068132
0.073900 0.052887 0.646192 0.878210 -0.173720 -0.441792
-0.364364 0.077629 0.614305 -0.418249 -0.487615 -0.766655
0.042342 0.174943 -0.723194 0.745359 -0.655483 0.115766
0.293620 0.184102 -0.273367 -0.539139 -0.650554 0.532831
0.152706 0.239287 0.028900 0.441809 -0.896204 -0.019599
-0.306380 0.126352 0.231473 -0.929839 -0.365459 -0.000866
0.544308 -0.132859 -0.083499 -0.167117 0.583358 0.793667
0.042955 -0.069512 0.277585 0.972930 0.220361 -0.055481
-0.412767 -0.219363 0.468660 -0.284931 0.957495 -0.022802
-0.324958 -0.121844 0.005099 -0.392593 0.655421 -0.643261
0.080523 0.263616 -0.391695 0.488143 -0.835161 0.250077
-0.213445 0.210575 -0.243826 0.164131 -0.906486 0.388043
-0.294442 -0.193738 -0.088023 -0.468390 0.794261 -0.384574
0.302490 -0.105218 0.349276 -0.924657 0.379038 0.009067
-0.297502 -0.194629 -0.198595 0.490063 0.684435 0.538191
0.493880 0.077911 -0.140257 -0.666232 -0.186546 0.720907
0.086627 -0.266672 -0.326832 0.070073 0.991230 0.100383
0.236122 -0.018128 -0.695995 -0.989124 0.134319 0.038416
-0.403299 0.190999 0.567029 -0.428646 -0.469743 -0.772069
0.469558 0.083613 0.076689 -0.416153 -0.376407 -0.827589
0.006744 -0.110524 -0.615096 0.964850 0.231265 0.115692
0.156162 -0.256652 -0.036981 -0.029597 0.973953 -0.221002
-0.489800 0.154253 0.281263 0.933578 -0.355440 0.041673
-0.379521 0.198582 0.079898 -0.214463 -0.972975 0.080107
0.546430 0.123634 0.021654 -0.415667 -0.376592 -0.827715
0.019482 0.027989 0.092591 0.948622 -0.305612 -0.077956
0.054501 -0.080181 -0.922876 0.820530 0.135183 0.552792
0.214019 -0.140882 -0.615448 -0.976528 0.209088 0.034690
0.399552 0.055550 -0.232924 -0.665634 -0.187168 0.721387
-0.348504 0.096407 0.594000 -0.407946 -0.491826 -0.769634
-0.291621 0.057212 0.269989 -0.983988 -0.173414 -0.009587
0.045028 -0.089948 0.144029 0.946328 0.316341 -0.050071
0.114756 0.226700 -0.661071 0.187710 -0.980060 0.053439
-0.343979 0.181199 0.226902 -0.782359 -0.623101 -0.008302
0.318251 0.020756 0.243800 -0.986594 -0.161494 0.006748
-0.317164 0.151960 0.132476 -0.918874 -0.394690 -0.012534
-0.066285 0.060542 -0.065338 0.079624 -0.129730 -0.987948
-0.482595 0.160116 0.501883 0.734373 -0.631568 -0.246861
0.213160 0.232458 -0.012107 -0.201917 -0.948845 -0.241919
-0.366107 -0.012048 -0.213417 0.733507 0.145700 0.663465
0.559470 0.133518 -0.081769 -0.176858 -0.492112 0.851928
0.235587 -0.148938 0.716908 -0.145528 0.654672 -0.740149
0.146586 0.150842 0.685979 0.750754 -0.583353 -0.307138
0.410686 0.051302 0.045655 0.235404 -0.333834 -0.912426
0.058857 0.102703 0.559124 0.710877 -0.696637 -0.060793
0.041148 0.270239 -0.259594 0.197457 -0.973713 0.105987
-0.487137 -0.110600 0.630496 0.028779 0.483102 -0.873791
-0.503321 0.048886 -0.029554 0.982627 0.031810 0.180092
-0.300152 0.083802 0.159431 -0.978714 0.017157 0.200356
-0.459270 -0.186177 0.099199 0.505377 0.860981 -0.022347
0.101115 -0.261653 -0.107307 0.341958 0.782496 -0.518636
-0.239505 -0.123237 -0.284092 0.428496 0.262291 0.863478
0.222357 0.053867 -0.808153 -0.878171 -0.313374 0.359378
0.537467 0.050759 -0.127424 -0.608178 -0.076614 0.789698
0.399206 -0.012345 -0.245799 -0.708922 0.011700 0.704227
-0.493933 0.089970 -0.014553 0.883214 -0.395146 0.250445
0.099500 -0.192604 -0.866622 -0.007154 0.722278 0.690368
0.080050 -0.203230 0.012930 0.716060 0.680551 -0.150052
-0.535153 -0.009820 0.332987 0.998103 -0.025208 0.039281
0.063269 -0.280716 -0.233673 0.325265 0.942434 0.056956
-0.312376 0.142217 0.271257 -0.929751 -0.366822 -0.000723
0.227295 0.026004 -0.807250 -0.901220 -0.277597 0.329117
-0.285140 -0.022088 0.143546 -0.989534 -0.135949 0.025151
-0.019687 0.240315 -0.304670 0.470456 -0.788718 0.394059
0.239527 0.008742 -0.521908 -0.994193 -0.103558 0.022363
-0.329528 -0.146356 0.198219 -0.857989 0.511263 0.027976
0.220726 -0.117186 -0.575335 -0.971280 0.232496 0.031656
0.304187 -0.104768 -0.323816 -0.702341 0.289014 0.649428
0.199046 0.119564 -0.806401 -0.877861 -0.313859 0.359346
-0.182328 -0.218052 -0.146053 0.049714 0.758764 -0.648143
-0.333611 -0.099308 -0.231465 0.637720 0.321467 0.699000
-0.277617 -0.064542 0.296295 -0.998155 -0.049894 -0.010509
0.041277 -0.005803 0.476185 0.974463 0.216680 -0.055493
0.180588 -0.232578 0.458355 -0.074033 0.996006 -0.009981
-0.350300 0.187719 0.261291 -0.784161 -0.620449 -0.008181
-0.305022 0.195398 -0.030919 -0.379381 -0.856169 -0.349905
-0.443214 -0.052140 -0.089688 0.859645 0.185324 0.474455
-0.335806 0.156846 0.449140 -0.710502 -0.704123 -0.009318
-0.031217 0.129327 -0.422845 0.481823 -0.435406 0.760506
0.045173 0.121078 -0.886458 0.706448 -0.564559 0.424608
-0.290405 0.007902 0.057966 -0.990773 -0.125269 0.011802
-0.094598 0.079044 -0.402138 0.630317 -0.259917 0.730536
-0.292546 0.061857 0.248821 -0.983912 -0.173099 -0.011261
0.152060 0.060564 -0.919807 -0.523307 -0.307803 0.793680
0.027259 -0.008014 0.325042 0.983209 0.162390 -0.066621
0.037526 0.218900 -0.471622 0.489669 -0.855769 0.163452
-0.395791 -0.199179 -0.031017 0.494370 0.807351 0.319499
-0.284592 -0.130166 -0.029007 -0.392380 0.655889 -0.643844
0.008909 0.257385 -0.178779 0.196268 -0.960666 -0.192392
0.065690 0.203023 -0.733467 0.408661 -0.907707 0.089007
0.204290 0.180490 -0.394170 -0.955404 -0.288652 0.051046
0.076682 -0.106634 0.555840 0.841705 0.527710 -0.104065
-0.385983 0.206754 0.041670 -0.113328 -0.918288 -0.379018
-0.048302 0.245634 -0.210016 0.261172 -0.957031 -0.119911
0.050905 -0.034177 0.508173 0.973204 0.219293 -0.056710
0.128861 0.260268 -0.369333 -0.607603 -0.791045 0.060213
0.499537 0.048911 -0.142290 -0.666527 -0.186364 0.721020
-0.327445 -0.132511 -0.221600 0.641014 0.324585 0.694947
-0.278880 -0.039088 0.290631 -0.997391 -0.053783 -0.009421
0.537456 0.163278 -0.063998 -0.453047 -0.801020 0.390850
0.068146 0.037398 0.642245 0.877944 -0.173499 -0.443701
-0.278368 -0.045676 0.344267 -0.997777 -0.050765 -0.010392
0.108059 0.155977 0.523443 0.706146 -0.705604 -0.065568
-0.011988 0.051013 -0.609449 0.995024 -0.014641 0.086676
0.062565 -0.199594 -0.045750 0.612108 0.548386 -0.567930
0.066888 -0.251789 -0.373509 0.391964 0.829808 0.393649
-0.502981 -0.111908 0.134709 0.902536 0.422609 0.070564
0.191022 -0.191879 -0.558418 -0.899531 0.433431 0.036828
0.323058 0.002567 0.487708 -0.988801 0.141346 -0.031966
0.118250 0.083447 -0.930876 0.097849 -0.239276 0.965194
-0.184644 -0.162456 -0.303056 0.591227 0.301296 0.746619
0.223831 0.203873 0.323171 -0.700946 -0.712666 -0.032197
0.357197 -0.020364 0.632683 -0.977604 0.141872 -0.150712
-0.430731 0.015913 -0.136353 0.712512 0.171190 0.679573
0.003508 0.172328 -0.483464 0.878069 -0.433457 0.198312
0.045851 0.196018 -0.060631 0.376019 -0.795301 -0.474421
0.018232 -0.113469 -0.034685 0.877022 0.294327 -0.377211
-0.370677 -0.003911 0.650860 -0.097571 0.041031 -0.993825
0.216601 -0.195800 -0.386751 -0.669785 0.652893 0.351096
-0.535363 -0.019537 0.342567 0.998410 -0.025648 0.038838
0.174081 0.157478 -0.672097 -0.673088 -0.700886 -0.236290
0.402881 0.132415 0.012998 0.234994 -0.333626 -0.912358
-0.292191 -0.089599 0.286900 -0.857913 0.512100 0.027076
-0.293642 0.070471 0.381758 -0.984589 -0.172273 -0.010388
-0.094385 0.222639 -0.272700 0.206325 -0.895378 0.393302
0.214373 0.217842 0.228995 -0.700891 -0.712495 -0.032782
0.013185 0.132448 -0.679696 0.888200 -0.442589 0.115798
0.137263 0.195359 0.426949 0.685633 -0.718637 -0.113493
0.027541 -0.266856 -0.256410 0.324510 0.943130 0.057443
-0.387763 -0.176499 -0.101894 0.494527 0.806974 0.320424
0.016094 0.152936 -0.622816 0.888726 -0.442776 0.115883
-0.186154 -0.159324 -0.304022 0.591361 0.301313 0.746678
0.055945 -0.274439 -0.222979 0.258420 0.962671 -0.068497
0.291863 -0.177019 0.626357 -0.601090 0.752701 -0.266212
-0.209625 0.066493 -0.331192 0.543428 -0.033975 0.838276
-0.346464 -0.166256 0.159638 -0.857287 0.511359 0.027679
-0.304718 -0.117541 0.402823 -0.857203 0.512764 0.026595
0.425649 -0.116886 0.042624 0.150904 0.399822 -0.903432
0.091566 0.223067 -0.653916 0.187138 -0.980205 0.053792
-0.286308 -0.045604 0.568009 -0.950364 0.306148 -0.045754
0.128922 -0.268755 -0.099338 0.341947 0.782828 -0.518045
0.382783 0.037357 0.712003 -0.912555 0.052159 0.404787
0.147448 0.266964 -0.291868 -0.212377 -0.931159 0.294846
0.201631 0.235490 -0.014473 -0.202266 -0.948684 -0.241748
0.109924 0.195221 -0.863872 -0.469312 -0.745292 0.472153
0.142266 0.251178 -0.362769 -0.607930 -0.790882 0.060291
-0.401783 -0.036616 0.656935 -0.146350 0.369726 -0.917295
-0.493782 -0.096046 0.029293 0.876192 0.326699 0.352533
0.262290 0.177566 0.105647 -0.700598 -0.711951 -0.033399
-0.208571 0.076321 -0.081952 0.086289 -0.246464 -0.964763
0.026008 0.164755 -0.652893 0.887871 -0.443914 0.116070
-0.287825 0.077751 0.449832 -0.932620 -0.360156 -0.002599
0.113662 0.268217 -0.124132 0.186020 -0.961898 -0.195993
-0.348947 -0.207816 -0.095860 0.196469 0.918163 0.341424
-0.281075 -0.018696 0.293525 -0.989197 -0.139216 0.030503
-0.166132 0.078221 -0.075968 0.080106 -0.132560 -0.987799
-0.052304 0.175280 -0.098946 0.111225 -0.542723 -0.831622
-0.295117 0.097124 0.176026 -0.932250 -0.361005 -0.003688
-0.207471 0.225239 -0.203636 0.270486 -0.948803 0.160843
-0.535264 -0.046313 0.159452 0.903301 0.422367 0.069166
0.200110 0.223610 0.297382 -0.262634 -0.964596 -0.018618
0.059660 0.034715 0.667770 0.597619 -0.138233 -0.788339
0.231377 -0.006278 -0.738380 -0.980885 -0.146095 -0.125524
0.064582 0.226435 -0.513619 0.489229 -0.856502 0.161469
-0.203447 0.219971 -0.154373 -0.283162 -0.885086 -0.368460
-0.326572 0.051622 0.612902 -0.671627 -0.352820 -0.651610
-0.044835 0.146158 -0.408547 0.649739 -0.426697 0.627702
0.333061 0.227838 -0.166253 -0.516737 -0.685614 0.512055
0.190980 0.121121 -0.823295 -0.877826 -0.313856 0.359364
0.271400 -0.212448 -0.023440 -0.559452 0.601851 -0.569320
0.221422 0.020420 -0.837147 -0.877731 -0.313999 0.359502
-0.451667 0.194542 0.140865 0.317853 -0.910399 -0.264668
0.063402 -0.217357 -0.476390 0.646344 0.751501 0.122091
0.004123 -0.009362 -0.788958 0.978026 0.155972 0.129926
0.225240 0.198590 0.411159 -0.701357 -0.712258 -0.031893
0.357411 0.102904 0.688888 -0.868198 -0.491947 -0.058787
0.245890 -0.042067 -0.463560 -0.989480 0.131992 0.038531
0.331232 -0.151426 -0.271690 -0.702545 0.287932 0.649002
0.058077 0.223390 -0.509462 0.490201 -0.855182 0.163903
0.080423 -0.229161 -0.497096 0.646742 0.751222 0.122177
0.362524 0.214616 -0.154224 -0.516887 -0.685476 0.511516
0.029301 -0.039646 0.199985 0.986959 0.139765 -0.073834
0.006741 -0.260483 -0.227814 0.323843 0.943295 0.057273
0.153089 -0.206509 -0.768845 -0.063849 0.992869 0.090939
-0.411447 -0.191289 0.562793 0.041726 0.860528 -0.507654
-0.303657 0.095145 0.537804 -0.829147 -0.533509 -0.167524
-0.458204 0.080585 -0.065316 0.654627 -0.359869 0.664320
0.276295 0.248541 -0.146813 -0.265864 -0.963511 -0.003874
0.268870 0.164049 0.126078 -0.888305 -0.456939 -0.035423
0.257746 0.185797 0.040436 -0.700478 -0.712064 -0.033578
0.120383 -0.219840 -0.729762 -0.418885 0.903514 0.077954
-0.193987 0.106934 -0.329726 0.440259 -0.408298 0.799203
0.191346 0.141512 -0.673387 -0.673285 -0.700740 -0.235778
-0.448576 -0.121726 0.626900 0.029820 0.485893 -0.873377
0.320895 0.002999 0.314120 -0.985726 -0.162164 0.006799
0.152028 -0.237069 0.308397 -0.072294 0.996382 -0.011138
0.583485 -0.161440 -0.058026 -0.769735 0.638096 -0.002505
-0.295858 -0.092828 0.239876 -0.857849 0.511574 0.027302
0.129499 -0.238337 -0.584040 0.248890 0.966677 0.030556
0.072249 -0.156889 0.211862 0.946524 0.316390 -0.048870
0.390005 0.014921 -0.256654 -0.676022 -0.084651 0.730972
-0.525309 0.062196 0.591502 0.794412 -0.498228 -0.345933
-0.503975 -0.145728 0.450793 0.875083 0.480811 0.045719
0.248062 -0.018516 -0.473079 -0.990447 0.124563 0.035119
-0.034480 0.211528 -0.132235 0.503142 -0.555308 -0.661098
0.043771 -0.016111 0.460486 0.968196 0.236576 -0.066616
0.151840 -0.202317 0.572667 0.751564 0.616037 -0.230603
0.576050 -0.070104 0.035770 -0.462428 0.320989 -0.826247
0.254338 -0.213739 0.561609 -0.578984 0.814264 0.026806
0.316098 0.043431 0.252751 -0.978267 -0.205153 -0.011882
0.362646 0.206869 -0.165351 -0.516917 -0.685460 0.511511
-0.125390 -0.094819 -0.374443 0.591073 0.300186 0.747322
0.043809 0.035528 -0.916115 0.749217 -0.087328 0.654728
-0.025541 0.127827 -0.427616 0.481135 -0.435037 0.759686
-0.511919 0.116575 0.486126 0.932909 -0.355036 0.042508
-0.018281 0.005741 -0.027797 0.636493 0.110321 -0.762408
0.306420 -0.086831 0.266123 -0.951673 0.304420 -0.001947
-0.439719 -0.202766 0.353888 0.711293 0.698595 0.067126
-0.483865 0.166201 0.213784 0.933291 -0.355803 0.041529
-0.095673 0.019022 -0.412654 0.588659 -0.138572 0.795833
-0.018879 -0.224946 -0.348039 0.391370 0.831069 0.392682
0.269910 0.153638 0.220945 -0.888617 -0.457130 -0.034964
0.297350 -0.112750 0.132755 -0.947883 0.318667 -0.004304
-0.288490 0.082748 -0.008593 -0.916665 -0.117081 -0.380193
-0.057433 0.157055 -0.088638 0.090676 -0.249845 -0.963707
-0.444951 0.185701 0.177778 0.316539 -0.910139 -0.265170
0.053155 0.259899 -0.348063 0.488466 -0.835537 0.250246
0.111797 -0.282812 -0.225222 0.069859 0.991151 0.100838
0.148384 -0.068952 -0.926865 -0.113058 0.222441 0.967434
-0.200782 0.094071 -0.332327 0.440192 -0.407887 0.799228
0.344644 -0.086861 -0.287543 -0.745451 0.214713 0.629854
-0.422504 -0.187664 -0.017408 0.494757 0.807475 0.318077
0.085380 0.103083 -0.915599 0.106060 -0.355682 0.927603
0.287426 -0.052645 -0.357761 -0.807744 0.163922 0.564848
-0.063807 0.155186 -0.385122 0.648467 -0.427635 0.629233
0.092381 -0.274541 -0.282093 0.069982 0.991499 0.100439
0.155810 0.181222 -0.817558 -0.736337 -0.607722 0.295094
-0.455921 0.057800 -0.080576 0.653574 -0.360354 0.665048
0.111212 0.212656 0.025283 0.678358 -0.724190 -0.113527
0.150740 0.030461 -0.932225 -0.523110 -0.307732 0.793534
0.310944 0.059378 0.339562 -0.986223 -0.162188 0.007859
0.176044 0.220620 0.519943 0.686353 -0.717860 -0.113016
0.219399 0.083673 -0.745031 -0.980815 -0.146595 -0.126031
-0.394520 0.152939 0.586703 -0.430338 -0.469752 -0.770413
0.200364 -0.134875 -0.812298 -0.813288 0.580540 0.025989
0.087327 -0.122519 -0.927087 -0.053097 0.205881 0.975941
0.154970 0.217882 0.386682 0.689846 -0.715296 -0.107681
0.208057 -0.004949 -0.867211 -0.962558 0.028864 0.267950
0.100342 -0.248636 -0.089749 0.342180 0.782424 -0.518122
0.335154 0.154798 0.635651 -0.804665 -0.342114 0.484809
0.262796 0.251760 -0.169871 -0.266246 -0.963575 -0.003746
0.014082 0.259496 -0.199356 0.260918 -0.957265 -0.119646
0.161692 -0.223635 -0.445872 -0.522825 0.849938 -0.053247
-0.305992 -0.109628 0.254144 -0.857797 0.512042 0.027183
-0.277976 -0.045089 0.498852 -0.997654 -0.050928 -0.009564
0.613214 0.101823 -0.044544 -0.875377 -0.384921 0.291991
0.523644 -0.034934 0.061070 -0.302226 -0.035713 -0.952313
0.185962 -0.257032 -0.045037 0.341231 0.782986 -0.518431
0.141917 -0.216627 -0.667318 -0.418834 0.903800 0.077676
0.100689 0.120281 0.637046 0.758398 -0.576828 -0.300647
0.068142 -0.172068 -0.843084 0.725703 0.679395 0.086882
-0.402452 0.207326 0.399829 -0.234179 -0.972007 -0.000016
0.110445 0.286056 -0.238071 -0.297398 -0.953424 -0.006346
0.027121 0.054333 -0.895473 0.933286 -0.016730 0.356610
