ply
format ascii 1.0
element vertex 512
property float x
property float y
property float z
property float nx
property float ny
property float nz
end_header
0.013249 -0.194845 -0.963271 0.025061 0.766614 0.642533
-0.039055 -0.011762 -0.262306 0.995747 -0.077721 -0.058387
-0.161672 -0.299976 0.453878 -0.403354 0.912261 -0.061893
-0.346782 -0.234468 0.524195 0.533718 0.689307 -0.490677
-0.048672 0.253956 -0.597233 0.531465 -0.830212 -0.159335
-0.130051 -0.023251 0.715921 -0.005542 -0.154718 -0.986591
0.244300 -0.181584 0.590448 -0.596992 0.639225 -0.485184
0.063509 -0.254596 -0.890657 -0.353842 0.833556 0.424351
-0.057579 -0.274103 -0.806522 0.147409 0.982963 0.107670
0.258174 -0.123334 0.621966 -0.773443 0.344635 -0.532410
-0.067649 0.243394 0.326120 -0.715688 -0.636628 -0.284919
-0.100042 0.136103 -0.491400 0.908476 -0.190155 -0.370647
0.009283 -0.182797 0.257944 0.345157 0.717240 -0.605931
-0.004963 -0.170545 -0.159453 0.874557 0.423090 0.239556
0.163359 0.309120 -0.199969 0.247184 -0.962917 0.100220
0.222476 -0.248127 0.475077 -0.507375 0.801424 -0.318523
0.131503 -0.285698 -0.441644 -0.110797 0.986136 0.123020
-0.099385 -0.280790 0.414189 -0.640872 0.765215 0.050642
0.094399 -0.281919 -0.675936 -0.625181 0.742504 0.239813
-0.478466 -0.175992 0.459514 0.593202 0.727494 -0.347421
0.367845 -0.179733 -0.295508 -0.853628 0.469688 0.223214
-0.042169 -0.082902 -0.177169 0.874771 0.423512 0.239748
0.049811 0.241755 0.611056 0.002923 -0.698348 -0.714481
0.282503 0.325220 0.017163 -0.734635 -0.669626 0.101327
0.237684 0.149540 0.630903 -0.758526 -0.435579 -0.483473
-0.038164 -0.227349 0.370393 -0.464404 0.842329 0.272798
-0.420255 0.113859 0.579460 0.658402 -0.214480 -0.721269
-0.148491 0.172785 -0.931369 0.275921 -0.534867 0.797497
-0.099278 0.137916 -0.478189 0.800613 -0.104592 -0.590085
0.358526 0.072306 0.517575 -0.748448 -0.441189 -0.492342
0.472005 -0.017707 0.273907 -0.936182 0.309763 -0.162127
-0.225064 0.215231 0.620186 0.180674 -0.765670 -0.616159
0.381055 -0.031363 -0.469419 -0.988251 -0.078672 0.119829
-0.293256 0.011318 -0.037322 0.260049 -0.077613 0.962517
-0.031626 0.222636 0.330708 -0.548694 -0.716655 0.428454
-0.250731 -0.040970 0.707348 0.478419 0.061453 -0.875802
-0.278051 0.210348 0.613305 0.437204 -0.680744 -0.587482
0.368317 0.240451 0.054873 -0.699319 -0.709236 0.083477
-0.013938 0.212570 0.264198 -0.606601 -0.705137 -0.364810
0.086347 -0.283062 -0.469288 0.066618 0.974367 0.217292
0.083721 -0.269048 -0.205315 0.509232 0.860916 0.043934
0.356649 0.127441 -0.458545 -0.913373 -0.390718 0.110350
-0.308666 -0.140981 0.648225 0.407803 0.382038 -0.829494
-0.099507 -0.010661 -0.452918 0.927774 0.055564 -0.370249
-0.264455 0.328640 0.390054 0.034146 -0.987110 -0.150879
0.271573 -0.146108 -0.575273 -0.701835 0.196048 0.684047
0.346007 0.233416 -0.153402 -0.738605 -0.662348 0.123466
-0.209950 -0.126126 0.694561 -0.004116 0.232098 -0.972024
0.436966 0.018391 -0.176869 -0.978320 -0.014350 0.206310
-0.408932 -0.108937 0.595129 0.563002 0.169035 -0.809466
-0.145170 -0.221977 0.634663 -0.031923 0.587420 -0.806771
-0.057847 0.283414 0.203569 -0.367859 -0.876900 -0.306728
0.420270 -0.114251 0.337545 -0.837584 0.458175 -0.298244
-0.533926 0.043081 0.191364 0.978300 -0.155494 0.142678
-0.406245 -0.197171 0.513675 0.534167 0.690022 -0.491293
0.171551 -0.312674 -0.166353 0.071479 0.989105 0.132173
0.194533 -0.272048 0.328083 0.530104 0.848060 -0.036133
0.030378 0.232592 -0.231502 0.757717 -0.649276 -0.054315
0.353083 0.255099 0.277085 -0.636914 -0.760921 -0.120923
0.418336 0.168313 0.175818 -0.857553 -0.510332 0.038672
-0.008555 0.174395 -0.981117 0.272309 -0.533271 0.800107
0.229884 -0.153553 -0.623784 -0.665401 0.471004 0.578331
0.227940 0.285251 0.291860 0.411789 -0.902489 -0.118978
0.229404 0.053208 -0.681561 -0.905190 -0.106969 0.410505
-0.343030 0.064680 0.655300 0.538552 -0.050353 -0.840609
0.234420 0.162942 0.624208 -0.666133 -0.627652 -0.400193
-0.085545 -0.190364 -0.938562 0.372623 0.442327 0.815765
0.138147 -0.271114 -0.570301 -0.525072 0.820844 0.224073
0.337627 -0.241427 -0.177583 -0.577681 0.810198 0.101479
0.356423 0.128588 -0.433283 -0.886612 -0.382484 0.256978
0.458747 0.075503 0.028304 -0.955337 -0.278287 0.094370
0.321182 0.084822 0.561332 -0.750666 -0.440501 -0.489881
-0.421448 -0.268381 0.332608 0.602625 0.779871 -0.177974
0.441968 0.130013 0.144445 -0.858360 -0.510807 0.039219
-0.084435 -0.214843 -0.594095 0.477121 0.808138 -0.346132
0.126252 -0.255209 0.521586 0.515776 0.830993 0.211619
0.240433 -0.047048 -0.675825 -0.943084 0.068614 0.323803
-0.200414 -0.123887 -0.665863 0.947541 0.207924 -0.246369
0.294752 0.098323 -0.588661 -0.611687 -0.276188 0.741459
0.348275 0.176580 0.436311 -0.664349 -0.631447 -0.396717
-0.071990 -0.160608 -0.961053 0.333836 0.460438 0.822436
-0.114884 0.285481 0.105519 -0.193596 -0.935063 0.292209
-0.058423 -0.162733 0.674277 -0.032248 0.547241 -0.835178
0.042201 0.147970 -1.010667 0.057456 -0.384006 0.921539
-0.041255 -0.070900 0.707448 -0.004349 0.232161 -0.971375
-0.531472 0.111410 0.452667 0.883812 -0.466760 0.032787
0.130520 0.244753 -0.726364 -0.647911 -0.743108 0.159495
-0.169945 -0.310088 0.157086 0.009642 0.956774 0.292431
-0.031667 0.065259 -0.198745 0.995566 -0.065466 -0.073711
-0.501439 -0.195800 0.308914 0.951081 0.309940 0.039895
0.097665 0.211890 -0.944464 -0.447065 -0.721677 0.526257
-0.533702 -0.006183 0.477432 0.878578 0.289522 -0.382018
0.133712 0.024318 0.705499 -0.013183 -0.230663 -0.972665
0.145112 0.315420 0.161873 0.233980 -0.807626 -0.538769
0.404483 -0.007798 -0.324483 -0.972883 0.019643 0.228043
0.410082 -0.039106 -0.299197 -0.972989 0.019515 0.227955
0.348658 -0.255136 0.221626 -0.565473 0.804921 -0.176218
0.157107 0.206363 0.645427 0.007037 -0.719604 -0.691327
0.173817 -0.310430 -0.179120 0.072542 0.988880 0.132579
0.056182 0.284243 -0.788451 -0.424802 -0.882233 0.196640
0.234664 -0.080764 -0.704174 -0.994771 -0.027268 0.095579
-0.059954 -0.135133 0.692225 -0.031131 0.545927 -0.835973
0.160299 -0.249627 0.322645 0.530167 0.847918 -0.036408
0.193970 0.263479 0.342842 0.412552 -0.903215 -0.118511
0.428430 0.080968 0.370607 -0.875469 -0.294227 -0.380772
0.409583 -0.064396 0.405084 -0.850628 0.128771 -0.508587
-0.194567 -0.179939 -0.777800 0.950230 0.311615 0.000526
0.332232 0.283430 0.208216 -0.633076 -0.766809 -0.100418
-0.080051 -0.048105 0.718531 -0.005251 -0.154137 -0.986814
-0.086334 0.088883 -0.452215 0.800715 -0.105266 -0.589205
-0.156132 -0.073581 0.707512 -0.004826 0.232011 -0.972692
-0.292197 0.013288 -0.037538 0.259301 -0.077328 0.962685
0.059003 -0.275886 -0.449790 0.544984 0.821834 -0.167909
-0.106183 -0.282449 0.339601 -0.403670 0.912254 -0.059591
-0.089475 -0.006710 0.712453 -0.005367 -0.153695 -0.986979
-0.013914 0.290436 0.011630 0.154752 -0.966263 0.206234
-0.036933 0.122666 -1.002640 0.411543 -0.316817 0.855018
0.024042 -0.215351 -0.261124 0.748682 0.663754 -0.013133
0.282727 0.292335 0.255348 -0.091771 -0.951840 -0.289635
0.373900 0.259413 0.172146 -0.791609 -0.563090 0.233301
-0.201034 -0.308120 0.149431 0.009447 0.956865 0.292639
0.457482 0.011968 0.313235 -0.934753 0.089306 -0.341045
0.124815 0.239262 0.618772 -0.258362 -0.885280 -0.381708
-0.455970 0.152392 0.126040 0.596376 -0.537774 0.596312
-0.124703 -0.139369 -0.051350 0.700907 0.149896 0.697925
-0.407594 -0.057602 0.607264 0.557397 0.186346 -0.808808
-0.178422 -0.188960 -0.738811 0.692531 0.719181 -0.057446
-0.374015 0.212457 0.085263 0.641201 -0.527816 0.556946
-0.045081 0.260001 0.229792 -0.144545 -0.738167 -0.656800
-0.387272 0.285932 0.254707 0.435639 -0.889778 0.136112
-0.261890 -0.286288 0.495480 0.400350 0.804708 -0.439377
-0.170214 -0.168073 -0.913537 0.374013 0.443035 0.815920
-0.401659 0.247511 0.173967 0.609297 -0.678324 0.411388
0.089862 -0.269675 -0.249246 0.509883 0.860210 0.043900
-0.033812 -0.115395 -0.346905 0.859138 0.223846 -0.460155
0.449445 0.113451 0.101742 -0.857966 -0.510146 0.039118
-0.340921 -0.011903 -0.026361 0.259781 -0.077264 0.962786
-0.079913 0.111539 -0.103207 0.697270 -0.336597 0.633332
0.295090 -0.133525 0.549709 -0.752806 0.496002 -0.430311
-0.016412 -0.272467 -0.620131 0.524375 0.833691 -0.173837
0.314391 0.266279 -0.161677 -0.738048 -0.662311 0.123491
0.191660 0.338174 -0.010791 0.200346 -0.976501 0.071870
-0.251999 -0.032326 0.707181 0.478837 0.061385 -0.876721
0.323075 0.212576 -0.401051 -0.776649 -0.491444 0.393047
-0.153663 0.203529 -0.698316 0.711112 -0.651357 -0.263047
0.032305 0.210496 -0.965163 0.083537 -0.711523 0.696088
0.238561 -0.317463 0.186540 -0.280577 0.936077 -0.213050
-0.246611 -0.301736 0.139288 0.124522 0.850951 0.511737
-0.013130 0.200444 0.649507 0.027253 -0.671422 -0.738050
-0.208623 -0.137010 -0.833318 0.950964 0.311963 0.000443
-0.036654 0.291360 0.035811 0.154021 -0.964777 0.206636
0.037626 -0.296501 -0.003135 0.492410 0.778471 0.392459
0.254311 -0.273659 -0.278293 -0.547173 0.822976 0.151512
-0.160041 -0.208599 0.646274 -0.011980 0.752153 -0.658140
0.308097 0.009788 0.579640 -0.815348 0.083368 -0.572674
-0.036755 0.098919 -0.324930 0.889476 -0.280824 -0.361629
0.158051 0.256129 0.273205 0.411829 -0.902450 -0.118579
0.299767 -0.256379 -0.224531 -0.547760 0.823653 0.142385
0.020519 0.245606 0.434987 -0.155888 -0.952681 0.258237
0.098561 0.319063 0.016102 0.193712 -0.977934 0.068964
0.127509 0.239762 0.391479 0.465618 -0.851789 0.238516
0.293337 -0.025093 0.596611 -0.852143 0.080458 -0.514087
0.205377 -0.102317 -0.855477 -0.913855 0.370154 0.167844
0.181505 0.184996 -0.788799 -0.859925 -0.442316 0.251513
-0.226860 -0.184565 -0.015872 0.147473 0.630810 0.761877
-0.303756 -0.319444 0.219086 0.294248 0.912353 0.286234
-0.191164 -0.124378 -0.932625 0.856699 0.398434 0.329340
0.137631 -0.263486 -0.623966 -0.622663 0.743848 0.241065
0.415028 0.168478 0.054559 -0.858343 -0.510877 0.039067
0.245126 0.233178 -0.489163 -0.522927 -0.787299 0.322058
-0.460257 -0.240927 0.317593 0.645925 0.759675 -0.092511
0.127202 -0.148561 -0.971810 -0.606181 0.336647 0.721294
0.201758 -0.084815 -0.903660 -0.967692 0.183269 0.169996
0.424349 -0.137658 0.046636 -0.918758 0.392699 0.046685
-0.065036 -0.091094 -0.997652 0.323434 0.205534 0.923737
0.424771 -0.128198 -0.019284 -0.918857 0.392831 0.046469
-0.106303 0.118789 -0.971194 0.407164 -0.312974 0.857044
0.108821 0.109411 -1.029567 -0.421191 -0.429624 0.797977
0.237152 0.231388 0.526959 -0.613313 -0.648304 -0.449999
0.427760 -0.105081 -0.108145 -0.918383 0.392737 0.046773
0.180516 -0.300680 -0.243491 0.063282 0.992286 0.110782
0.167964 -0.223747 0.608166 -0.509868 0.726659 -0.459765
0.202210 0.137014 -0.798275 -0.948626 -0.240858 0.200695
-0.023859 0.228391 -0.938600 0.276676 -0.558403 0.782059
0.203483 -0.302501 0.225045 0.281823 0.928148 -0.245296
0.025879 0.142130 0.346938 -0.008312 -0.138765 0.990500
0.102929 -0.213299 0.330873 0.530274 0.848088 -0.036121
-0.041843 0.074881 -1.013850 0.362823 -0.237495 0.901507
-0.074024 -0.125338 -0.106225 0.700683 0.151156 0.697972
0.229652 -0.276675 -0.309236 -0.497812 0.846325 0.188769
-0.037282 0.002639 -0.262057 0.996322 -0.077882 -0.035838
-0.071617 0.083888 -0.419736 0.924384 -0.116133 -0.364759
-0.037112 -0.248974 -0.011840 0.318772 0.736742 0.596564
0.062557 -0.305697 0.014174 0.197806 0.976995 0.085853
-0.282682 0.312261 0.179255 0.351774 -0.909196 0.221291
0.253430 0.306041 -0.196807 -0.264938 -0.930535 0.249112
-0.102734 -0.002968 -0.103984 0.714574 0.127825 0.687998
0.324631 0.006550 0.553659 -0.835159 0.093938 -0.540949
0.444871 -0.004536 0.342925 -0.934653 0.088890 -0.340584
-0.234214 -0.082034 0.707417 0.420779 0.185809 -0.888212
0.060705 -0.284185 -0.057732 0.492206 0.777287 0.392043
-0.304506 0.187804 0.017121 0.311499 -0.597351 0.738403
0.310063 0.272824 0.309180 -0.305523 -0.926512 -0.213926
-0.148341 0.313781 0.227996 -0.349165 -0.935762 0.037553
-0.233742 -0.025628 -0.726758 0.948886 0.091174 -0.302539
0.106318 -0.252727 -0.843513 -0.313640 0.940974 0.124409
-0.123811 0.023372 -0.083016 0.412628 -0.204121 0.888394
-0.007264 -0.273778 0.501734 -0.120009 0.990111 -0.081600
-0.226322 -0.218317 0.010980 0.147559 0.631743 0.762202
0.274717 -0.139133 -0.580459 -0.717282 0.449099 0.533358
-0.016882 0.131025 -1.007759 0.272135 -0.534182 0.799892
0.199578 0.270417 0.309691 0.411915 -0.902150 -0.118780
-0.024736 -0.022829 0.339717 0.636835 0.414845 -0.650674
0.357005 -0.219015 -0.150537 -0.805034 0.589413 0.072567
0.064888 0.198661 0.372059 0.507134 -0.840435 0.188312
-0.437230 -0.147376 0.082249 0.677594 0.442778 0.588003
0.452192 -0.089547 0.149324 -0.976911 0.200059 0.064691
0.359290 0.229491 0.329961 -0.596104 -0.724453 -0.343139
0.416672 0.146552 -0.134296 -0.916950 -0.342921 0.200454
0.093318 -0.262619 0.490654 -0.137322 0.984714 -0.113592
0.204547 -0.127320 -0.814437 -0.899431 0.388209 0.197383
0.358224 -0.031630 -0.502567 -0.821657 0.164973 0.544108
0.469278 -0.022023 0.199327 -0.976727 0.200495 0.065019
0.442064 -0.075788 -0.040509 -0.977664 0.200019 0.064075
-0.525850 0.067479 0.146053 0.700445 -0.164625 0.695394
0.233590 -0.268508 0.413455 0.269150 0.953537 -0.141578
0.341703 0.161391 0.468258 -0.666928 -0.631643 -0.392417
-0.076695 -0.259899 0.369249 -0.639620 0.765447 0.050147
0.099111 0.285938 -0.549521 -0.018712 -0.996900 -0.042630
-0.035665 -0.126092 0.694695 -0.005397 0.231935 -0.971885
-0.053101 0.265299 -0.873308 0.027338 -0.877600 0.476677
-0.345091 0.162856 0.618272 0.431072 -0.606392 -0.665519
0.434650 0.099119 0.342522 -0.875349 -0.294505 -0.380765
-0.160679 -0.165107 -0.027660 0.147808 0.348285 0.925475
0.182637 -0.221410 -0.643882 -0.622433 0.744729 0.241089
-0.218161 0.113018 -0.789394 0.948136 -0.313791 0.056988
0.206848 0.289751 -0.350779 -0.240313 -0.940365 0.240282
0.204815 -0.159806 -0.725994 -0.913233 0.388386 0.119302
-0.378078 -0.235614 0.077567 0.602566 0.408070 0.686860
0.388578 -0.008932 -0.393603 -0.987638 0.017846 0.156330
0.327424 -0.270591 0.222725 -0.562716 0.807454 -0.178392
0.409389 -0.205761 0.246614 -0.573716 0.801161 -0.171910
-0.079241 0.160792 -0.079086 0.696437 -0.336938 0.633112
0.341438 -0.085496 0.520921 -0.753779 0.493079 -0.432400
0.326264 0.039313 -0.542896 -0.812955 0.103320 0.572194
-0.173578 0.052212 -0.055786 0.094408 -0.168419 0.981623
-0.098025 0.182360 -0.052123 0.649018 -0.269230 0.712025
-0.393710 -0.222633 0.490153 0.533581 0.689456 -0.491997
0.361865 -0.112094 -0.416083 -0.778881 0.515261 0.356461
0.207733 -0.323027 -0.109239 0.071090 0.988884 0.131924
0.432433 -0.124365 0.079686 -0.917992 0.393435 0.047612
0.446446 0.093736 -0.060095 -0.954930 -0.272720 0.111581
0.254600 -0.229456 0.499774 -0.311333 0.914328 -0.261771
0.176591 0.329938 0.170786 0.014774 -0.945289 -0.323278
-0.193098 -0.251894 0.051163 0.119377 0.822197 0.556190
0.347954 -0.254372 0.229080 -0.568702 0.804814 -0.174526
-0.494128 0.076378 0.116556 0.700494 -0.164261 0.694817
-0.141167 0.071438 -0.971590 0.386229 -0.273137 0.880314
0.316268 0.261416 -0.215428 -0.462658 -0.833311 0.298817
0.040667 -0.281159 -0.038375 0.492128 0.777308 0.392101
-0.356392 0.153078 0.021275 0.642679 -0.294993 0.707488
-0.499601 0.166869 0.330672 0.884118 -0.466822 0.032437
-0.218723 -0.328624 0.394336 -0.403458 0.912395 -0.061579
-0.073929 -0.202283 0.646666 -0.029962 0.589538 -0.806087
0.262687 0.157850 0.589264 -0.666853 -0.629665 -0.395524
-0.451701 0.192688 0.159231 0.640037 -0.527715 0.559581
-0.480156 -0.215685 0.384275 0.832548 0.555704 -0.030630
0.447953 -0.077460 0.044826 -0.977936 0.200542 0.064513
0.242035 0.308318 0.217836 -0.092230 -0.952502 -0.288261
0.045479 0.119499 -1.023219 0.057746 -0.383740 0.921755
0.003221 0.247352 -0.922707 0.168975 -0.873083 0.455210
0.363547 -0.059187 -0.485353 -0.821915 0.165336 0.544154
-0.364037 0.137665 0.624261 0.659063 -0.214052 -0.721415
-0.081475 0.011429 -1.006303 0.359066 -0.129423 0.924115
-0.104699 -0.196392 -0.026608 0.251297 0.385668 0.887540
0.295630 -0.277738 -0.132137 -0.575797 0.810024 0.104014
0.359255 0.208414 0.369921 -0.635390 -0.683915 -0.357048
-0.322193 0.059158 -0.026145 0.255820 -0.074046 0.963804
-0.111975 0.247126 -0.771312 0.547637 -0.826805 -0.125998
-0.510020 -0.168245 0.271583 0.951740 0.306131 0.043458
0.042299 -0.024596 -1.050167 0.323682 0.205425 0.923770
0.026378 0.303098 0.039159 0.154938 -0.966141 0.206239
0.039530 -0.132479 0.330906 0.345169 0.717819 -0.605078
-0.118473 -0.288161 0.369818 -0.316706 0.946163 0.061520
-0.099141 -0.268453 0.280675 -0.744581 0.661049 0.081335
0.314383 0.289878 0.011213 -0.699849 -0.707570 0.085754
0.396522 0.159749 -0.210130 -0.860406 -0.486090 0.150095
-0.031835 0.155973 -0.128959 0.878010 -0.334265 0.344677
-0.235041 0.080721 -0.045586 0.222237 -0.194114 0.955328
0.084219 0.280176 -0.399063 0.558299 -0.828528 -0.030485
0.319129 0.275918 -0.066639 -0.700662 -0.707028 0.085919
-0.083610 0.155943 -0.476491 0.783285 -0.404554 -0.470509
-0.063938 -0.148442 -0.445594 0.864250 0.370296 -0.341619
0.319978 0.054409 0.565591 -0.835459 0.089960 -0.541320
0.445381 0.009655 0.346108 -0.908819 -0.038889 -0.412475
0.000317 -0.194778 -0.330369 0.864613 0.469006 -0.183290
0.188308 -0.321550 -0.112011 0.094326 0.983050 0.159238
-0.186022 -0.285366 0.548498 -0.326698 0.794257 -0.510898
-0.190283 -0.099364 -0.044157 0.158646 0.162852 0.974094
-0.402164 -0.184748 0.070239 0.677118 0.442736 0.588174
0.279763 -0.227853 -0.397185 -0.560077 0.808104 0.182550
0.367546 0.015745 0.489714 -0.813687 0.084536 -0.573251
-0.267885 0.209742 0.615667 0.180238 -0.765411 -0.616034
0.438835 0.030758 0.371619 -0.935142 0.088631 -0.340885
0.174350 -0.216115 -0.697480 -0.834983 0.527424 0.154596
0.163832 -0.289932 0.228387 0.281892 0.928273 -0.245162
-0.065150 0.195315 0.651110 0.027804 -0.672842 -0.738880
-0.191020 0.152835 -0.032132 0.347437 -0.379385 0.857766
-0.024538 0.208017 -0.105414 0.449187 -0.760699 0.467302
0.439281 0.137030 -0.044814 -0.917536 -0.342651 0.200291
0.436758 0.124294 -0.082321 -0.857649 -0.510512 0.039371
0.275099 -0.245272 0.407972 -0.440340 0.870841 -0.218576
0.466214 0.075195 0.138092 -0.992135 -0.050124 0.108282
-0.193092 0.321610 0.171317 0.021947 -0.937247 0.345773
0.306866 -0.138832 0.522016 -0.772464 0.476061 -0.420333
-0.099676 0.239976 -0.689389 0.519570 -0.835483 -0.173357
-0.156904 -0.028403 -0.551096 0.888581 0.039770 -0.457382
0.254044 0.191855 0.557659 -0.615419 -0.647230 -0.447600
-0.065136 0.240773 0.323305 -0.715118 -0.636893 -0.285417
-0.373587 0.295423 0.278448 0.434374 -0.889692 0.136291
-0.394218 -0.090690 0.609017 0.562925 0.168845 -0.809330
-0.011469 0.112350 -1.015875 0.362207 -0.236280 0.901609
-0.101043 0.225774 -0.627373 0.520401 -0.834597 -0.172516
-0.168256 0.141148 -0.619763 0.764634 -0.436293 -0.474643
0.178956 -0.239023 -0.598338 -0.524876 0.820984 0.225402
0.307882 0.280817 -0.117184 -0.738792 -0.660744 0.124169
-0.022918 0.291304 -0.760954 0.163764 -0.984501 0.036245
0.083401 -0.214784 0.288090 0.567243 0.548105 -0.615108
-0.112348 -0.197789 -0.592945 0.476160 0.808438 -0.347097
0.449483 -0.107888 0.236605 -0.935719 0.315769 -0.155103
-0.225257 0.288041 0.090715 0.058983 -0.874980 0.479918
-0.405356 0.280457 0.307603 0.505927 -0.862207 0.025348
0.074757 0.198824 0.352190 0.506108 -0.840982 0.189325
-0.070182 0.164565 -0.082207 0.649499 -0.269062 0.711502
0.000152 0.069646 0.308391 -0.370122 -0.224898 -0.900347
0.324091 -0.261967 0.270813 -0.565328 0.806384 -0.176322
0.374080 0.196901 -0.216581 -0.665436 -0.727660 0.162816
0.214701 -0.228905 -0.548751 -0.501654 0.800558 0.326450
-0.144351 -0.063828 0.709730 -0.005203 0.232153 -0.971425
-0.063813 -0.263243 0.019895 0.318998 0.736917 0.596901
0.085242 -0.260608 0.517835 -0.119366 0.989580 -0.081611
0.043502 -0.242939 -0.341018 0.706710 0.680970 -0.193634
0.403605 0.107552 -0.265396 -0.917014 -0.343535 0.200367
0.426927 0.144783 -0.022175 -0.858080 -0.510871 0.039143
-0.034887 -0.276135 -0.682632 0.524424 0.834366 -0.173672
-0.098844 -0.193598 0.653943 -0.027734 0.593874 -0.804514
-0.216620 -0.044858 -0.664000 0.946652 0.208120 -0.246117
0.061972 -0.229202 0.255950 0.566928 0.547900 -0.615164
0.426412 0.144687 -0.029092 -0.858277 -0.511006 0.039460
0.389223 0.074313 -0.388668 -0.987084 0.018096 0.155010
-0.301185 -0.326232 0.310958 0.339336 0.931933 -0.129425
0.312629 -0.275018 -0.069709 -0.575619 0.811361 0.105081
0.030453 0.216853 0.399002 -0.312418 -0.836680 0.447417
0.150407 -0.212022 -0.795779 -0.649716 0.729790 0.216070
-0.125530 0.274231 0.062641 -0.194983 -0.936142 0.292653
-0.391509 -0.123565 0.026724 0.559502 0.321841 0.764407
-0.192093 -0.304153 0.135836 0.009098 0.956434 0.293279
0.454736 -0.035346 0.025393 -0.976800 0.200062 0.065319
-0.171865 -0.270473 0.073410 0.119489 0.823050 0.556950
0.193023 0.271154 0.281217 0.412208 -0.902981 -0.118686
-0.053453 0.089935 -0.372339 0.880516 -0.101565 -0.462656
0.469420 0.006841 0.124564 -0.977213 0.199694 0.064739
0.219745 -0.084513 0.685832 -0.405897 0.335810 -0.849952
0.049776 -0.038629 -1.050610 0.323741 0.204794 0.924207
0.084364 0.266659 -0.810246 -0.647486 -0.743122 0.159172
0.193145 -0.122471 -0.897273 -0.915957 0.379657 0.125143
-0.447973 -0.254465 0.275630 0.635815 0.770132 -0.071683
0.166660 -0.333007 0.066051 0.214440 0.973770 0.077261
0.099483 0.292246 -0.204581 0.245743 -0.963116 0.100263
0.220008 -0.018826 -0.825412 -0.990838 0.126986 0.035647
-0.295107 0.246393 0.546631 0.299457 -0.810182 -0.502823
-0.198758 0.327540 0.188946 -0.346031 -0.934687 0.067495
-0.103484 -0.284344 0.141385 -0.244316 0.967344 0.072817
0.267073 0.245987 0.432444 -0.031400 -0.962696 -0.259285
-0.128238 0.199814 -0.030899 0.310757 -0.583491 0.749177
0.177977 0.163048 -0.882236 -0.948393 -0.240894 0.201216
0.376351 0.057982 -0.457636 -0.989548 -0.079120 0.119835
0.236412 -0.180753 0.601041 -0.596112 0.638794 -0.485183
-0.449724 0.042951 0.580130 0.585772 -0.140096 -0.797839
0.357524 0.178698 0.421795 -0.643060 -0.671662 -0.365798
-0.061054 0.300085 0.092200 -0.032682 -0.995143 0.083426
-0.068213 0.032140 -0.388864 0.922710 -0.113771 -0.369005
0.406340 -0.101734 -0.281278 -0.938345 0.204058 0.275670
-0.172032 -0.172842 -0.659619 0.711165 0.629141 -0.315019
-0.147247 -0.265202 0.061232 0.119292 0.822140 0.556149
0.061437 -0.290773 -0.045338 0.492607 0.777815 0.392137
0.191988 0.162177 0.662310 -0.336551 -0.509100 -0.791703
-0.159562 -0.017537 -0.551285 0.756229 0.155406 -0.635281
-0.321035 0.103670 -0.022496 0.256466 -0.075721 0.963727
-0.254710 0.084147 0.699831 0.425843 -0.175321 -0.887419
-0.380903 0.235481 0.131417 0.553331 -0.681185 0.478813
-0.082151 0.045057 -1.003890 0.397066 -0.007200 0.917354
-0.258763 -0.292591 0.485653 0.400984 0.806044 -0.437065
-0.082389 0.206887 0.640369 0.026422 -0.671991 -0.738312
0.011055 0.297440 -0.751360 0.163760 -0.984439 0.036336
-0.184125 -0.013524 -0.598668 0.888286 0.039814 -0.457281
0.222511 0.187272 -0.615391 -0.648827 -0.586423 0.485213
0.212597 0.187130 -0.645406 -0.719649 -0.670599 0.175433
-0.226776 0.294499 0.102796 0.058518 -0.874391 0.479567
-0.123801 -0.238811 -0.725221 0.693224 0.718746 -0.057424
-0.167254 -0.131969 -0.596992 0.805752 0.182860 -0.563441
0.064696 0.042891 -1.048046 -0.021197 -0.170379 0.985145
-0.124270 0.123927 -0.058228 0.609922 -0.151988 0.778289
0.237601 -0.325664 0.149971 -0.280151 0.935712 -0.213458
-0.086736 0.275848 0.546087 -0.116430 -0.959054 -0.255020
-0.055435 -0.015326 -0.148209 0.715619 0.127544 0.687126
0.468656 -0.011302 0.166978 -0.977338 0.200656 0.064789
0.381861 -0.140610 -0.321756 -0.768982 0.482852 0.418963
-0.020052 -0.234723 -0.524169 0.513856 0.806927 -0.292410
-0.315600 0.026882 -0.030361 0.256709 -0.075283 0.963440
0.461052 -0.045987 0.121144 -0.964336 0.249137 0.080734
0.023690 0.241047 -0.417701 0.605109 -0.795503 -0.023425
0.147913 0.040856 0.701703 -0.013153 -0.230091 -0.972997
-0.281562 0.227550 0.040305 0.311474 -0.596955 0.738401
0.160253 0.282530 -0.442054 -0.240268 -0.939981 0.240117
0.320885 -0.141858 0.492359 -0.755894 0.488381 -0.433848
0.112815 -0.221126 0.302753 0.530409 0.848552 -0.036399
0.022348 0.290268 -0.640779 -0.013659 -0.997907 -0.044749
-0.030067 -0.289926 0.046970 0.156039 0.950028 0.271984
-0.034041 0.278283 0.209588 -0.144704 -0.738365 -0.657148
0.004566 0.305446 0.073514 0.200878 -0.971245 0.124196
0.060674 -0.279070 -0.548372 -0.039496 0.996429 -0.072411
0.390955 0.013790 -0.376359 -0.987138 0.018315 0.155508
0.159919 0.146643 -0.943461 -0.781445 -0.507409 0.362360
0.088613 0.228243 0.263582 0.222793 -0.777030 -0.588307
-0.121842 -0.054506 -0.074217 0.700272 0.149769 0.698949
0.029352 -0.239369 -0.128608 0.509195 0.859988 0.044332
0.173619 -0.200955 -0.750629 -0.835779 0.526076 0.154345
-0.545569 0.004234 0.300038 0.999566 0.059088 -0.001967
0.415689 -0.130505 -0.154130 -0.918454 0.393065 0.046831
0.306530 0.092010 0.576799 -0.753146 -0.440084 -0.488161
0.254426 0.137911 -0.604290 -0.788201 -0.143898 0.597182
0.389183 -0.101828 -0.338741 -0.938649 0.204269 0.276312
-0.246721 -0.331342 0.362337 0.244206 0.950847 -0.195101
-0.077962 0.010244 -0.131435 0.714662 0.128360 0.687709
-0.133697 0.228703 0.004229 0.275265 -0.753130 0.597961
0.026399 -0.002034 0.710519 -0.005515 -0.152996 -0.987390
-0.397283 0.280037 0.384495 0.568152 -0.770882 -0.288403
-0.131499 -0.291908 0.375553 -0.403806 0.912091 -0.061563
-0.195763 0.160064 -0.802198 0.879040 -0.477455 0.015332
0.265347 0.325954 0.014097 -0.348640 -0.934853 0.052482
-0.349584 0.122947 0.002310 0.359873 -0.481825 0.798590
0.130196 -0.242329 -0.726490 -0.619845 0.781865 0.069709
-0.442222 0.234739 0.420538 0.567835 -0.771052 -0.288011
0.366746 0.233444 0.316122 -0.645234 -0.747900 -0.149396
0.232082 0.225508 -0.532436 -0.523820 -0.788397 0.322454
0.008562 -0.289675 -0.739439 0.091851 0.996214 -0.027479
-0.215204 -0.116321 -0.834706 0.950300 0.313689 0.000651
-0.109834 0.198341 -0.573053 0.694788 -0.630690 -0.342069
-0.019866 -0.175274 -0.375407 0.864710 0.469356 -0.183462
-0.497438 0.166291 0.252586 0.884395 -0.466917 0.032378
-0.070558 0.143663 -0.427473 0.805954 -0.443997 -0.390846
-0.107969 0.138573 0.685473 -0.009334 -0.215052 -0.975418
0.412781 -0.021278 -0.289292 -0.972975 0.019342 0.228175
0.184576 -0.254303 -0.533731 -0.502174 0.801423 0.326598
-0.222793 -0.095524 -0.752575 0.950011 0.312270 0.000384
0.095234 -0.195562 0.643813 -0.033225 0.586083 -0.809391
-0.008321 0.247474 -0.477127 0.541882 -0.801057 -0.252382
0.208849 -0.025815 -0.924206 -0.967746 0.182370 0.170179
0.015757 0.260185 0.572089 0.350807 -0.800263 -0.485825
-0.050906 0.114444 -0.118150 0.878289 -0.334250 0.344442
0.030542 -0.239282 -0.146899 0.508913 0.859816 0.044019
0.239266 -0.129542 0.645023 -0.773100 0.344179 -0.531749
0.395666 0.047653 -0.348605 -0.987586 0.018083 0.155469
-0.422880 -0.022145 0.603015 0.562410 0.168851 -0.809108
0.356846 0.140038 -0.414729 -0.884917 -0.384554 0.259593
-0.157575 0.192058 -0.682781 0.787551 -0.536488 -0.302828
0.031971 0.247223 0.604447 0.002225 -0.699777 -0.713971
0.435498 -0.076197 0.352372 -0.836840 0.457363 -0.298737
-0.039813 -0.035772 -0.248524 0.996615 -0.077863 -0.032322
-0.214092 -0.119673 -0.834637 0.950706 0.311593 0.000507
-0.005473 0.163666 -0.280582 0.797372 -0.544301 -0.259185
0.276752 -0.223168 -0.421856 -0.556126 0.809492 0.189991
0.433327 0.151206 0.248086 -0.858137 -0.511138 0.038980
-0.293760 0.201148 0.616910 0.432085 -0.607460 -0.666719
-0.295284 0.047942 0.686772 0.535668 -0.019533 -0.844612
-0.195409 -0.125581 -0.650928 0.940064 0.128357 -0.316918
-0.112916 0.112543 0.691405 -0.008998 -0.217344 -0.975750
0.114065 -0.286984 -0.190273 0.417032 0.908987 -0.002205
-0.183854 0.174957 -0.708962 0.711298 -0.651497 -0.263140
0.308349 -0.131703 0.531058 -0.771235 0.308282 -0.556160
-0.150593 -0.305840 0.272210 -0.402518 0.913310 -0.060084
0.054269 -0.306917 0.021650 0.160799 0.966189 0.203146
-0.022986 0.279011 -0.627186 0.542826 -0.828999 -0.119881
0.082506 -0.275702 -0.765493 -0.619292 0.781296 0.070426
0.326709 0.182657 -0.433351 -0.775867 -0.491214 0.392120
0.353806 0.261116 0.235541 -0.640821 -0.751949 -0.149117
-0.273695 0.320543 0.194671 0.282824 -0.892306 0.349459
0.110455 0.274184 0.550986 -0.258010 -0.885416 -0.382717
-0.084780 -0.257525 0.582062 0.034360 0.825185 -0.564554
-0.294478 0.324408 0.257317 0.385307 -0.909655 0.152086
-0.003996 -0.190027 0.340078 -0.819508 0.464241 0.333912
-0.177170 -0.315435 0.327172 -0.404042 0.912594 -0.060983
-0.048008 -0.190635 0.655530 -0.033700 0.546030 -0.836624
0.272824 0.283339 0.312827 -0.305303 -0.926952 -0.213730
-0.002055 -0.183461 -0.146798 0.874383 0.422890 0.239611
-0.450329 0.215103 0.192994 0.607847 -0.678392 0.412312
0.316539 0.254203 -0.236785 -0.462228 -0.834497 0.299122
-0.017054 0.289082 -0.819153 0.163466 -0.985142 0.036056
-0.074018 0.298401 0.182397 -0.189977 -0.969334 -0.148635
-0.426772 0.164050 0.560708 0.476367 -0.657776 -0.582551
0.192349 -0.150736 -0.829801 -0.830019 0.485710 0.273030
0.219638 0.025462 0.701945 -0.012727 -0.176232 -0.982885
0.415484 0.062594 -0.256343 -0.969692 -0.122079 0.208640
-0.419017 0.053963 0.029036 0.718259 -0.230763 0.656547
-0.133614 0.178510 -0.932517 0.411014 -0.317735 0.854076
0.196224 -0.251173 0.497004 0.334234 0.930768 -0.151298
-0.044819 -0.276942 -0.801212 0.146959 0.983200 0.107943
-0.152866 0.315090 0.373553 -0.322302 -0.945805 0.000271
0.027097 0.297022 -0.801717 0.163376 -0.984119 0.036797
-0.119668 0.242525 -0.771578 0.547263 -0.826413 -0.126543
0.147094 -0.293284 -0.320800 0.141991 0.987000 -0.083787
