ply
format ascii 1.0
element vertex 512
property float x
property float y
property float z
property float nx
property float ny
property float nz
end_header
0.297574 0.210152 -0.082856 0.622610 -0.595742 -0.505113
0.516312 -0.223829 0.054037 -0.521499 0.852461 0.001357
0.570716 -0.101746 -0.157054 -0.983735 0.155595 0.076999
0.450572 -0.179580 0.800762 0.809703 0.575171 -0.106206
0.525804 -0.194642 -0.158747 -0.709182 0.703919 -0.001047
-0.509357 0.086927 0.074769 -0.975099 -0.158428 0.147543
0.639519 -0.105512 0.440157 -0.900669 0.409345 0.140491
0.570071 -0.049874 -0.287852 -0.982973 0.157459 0.075920
0.254324 0.171758 -0.560471 0.834538 -0.544327 0.075109
0.194136 0.048829 -0.557413 0.949674 -0.298850 0.092033
0.578536 -0.234904 0.761884 -0.364230 0.930521 -0.017277
-0.655790 0.038985 0.325609 0.986452 -0.136207 -0.080168
0.450181 0.248874 -0.278026 -0.475300 -0.876703 0.050668
0.202951 -0.082205 -0.627280 0.853112 0.509854 0.102664
0.461837 0.228311 -0.461402 -0.730142 -0.679542 0.036380
-0.543222 0.235148 0.461550 0.211167 -0.976706 0.012518
-0.361842 0.015651 -0.084048 -0.748920 -0.102527 -0.653167
-0.512537 -0.192410 0.660670 0.372467 0.895051 -0.249346
0.668276 -0.069966 0.526852 -0.900456 0.409828 0.139938
-0.574769 0.203934 0.123142 -0.612246 -0.789535 -0.010602
0.136588 -0.199259 -0.349471 -0.018473 0.913119 0.406147
0.195709 -0.172634 -0.166515 -0.004677 0.675314 -0.736586
-0.364744 -0.028379 -0.082431 -0.721235 0.313972 -0.615772
0.415388 0.264626 -0.032496 0.023092 -0.992277 -0.109365
-0.673322 -0.034532 0.131969 0.976918 0.210121 0.008799
0.072446 0.217897 -0.329090 0.010420 -0.933490 0.354202
-0.663826 -0.066673 0.263737 0.973521 0.225588 0.007243
-0.549147 0.115066 0.738936 0.913751 -0.205248 -0.348485
-0.133392 0.215685 -0.221306 0.044240 -0.784104 -0.616012
0.606154 0.007957 0.137486 -0.981988 0.174163 0.057407
0.650388 -0.143063 0.761233 -0.885838 0.460090 0.041162
-0.586781 0.210491 0.163004 -0.075876 -0.993920 -0.064762
0.458664 -0.232653 -0.483144 -0.601485 0.797801 0.007528
0.386407 0.222586 0.151138 0.803716 -0.577644 -0.139943
0.443282 0.197788 0.579621 0.546058 -0.835845 -0.020001
0.512133 -0.201652 -0.508230 -0.982557 0.170367 0.026670
0.548147 0.238507 0.534257 -0.143054 -0.989115 0.002958
0.190299 0.035297 -0.574158 0.960934 -0.255479 0.102091
-0.640413 -0.090628 0.421254 0.955778 0.269708 -0.111580
-0.436989 -0.212518 0.637719 -0.170152 0.941569 -0.290541
0.035068 0.223423 -0.212906 0.064844 -0.804569 -0.588263
0.061013 0.027267 -0.108441 0.310518 -0.244412 -0.917678
-0.463407 0.054999 0.249727 -0.897078 -0.288825 0.332682
-0.081408 0.117450 -0.152178 0.020711 -0.307976 -0.949798
0.328494 0.102784 0.176236 0.959533 -0.251028 -0.120273
-0.655711 0.027487 0.384960 0.993156 -0.097436 -0.047970
0.249530 0.101509 -0.010523 0.902949 -0.235980 -0.357623
-0.603930 -0.192673 0.224757 0.866448 0.493711 -0.062982
0.046870 0.156786 -0.161074 0.020178 -0.444945 -0.894051
-0.585369 -0.221947 0.034225 0.468140 0.882696 -0.023042
0.246031 -0.139402 -0.728162 0.858820 0.501674 0.091550
0.513504 -0.206629 -0.195968 -0.709405 0.703737 -0.001525
0.400496 0.082029 0.757505 0.976643 -0.187158 -0.103653
0.513615 -0.225534 0.063524 -0.521556 0.852501 0.001642
0.552689 0.206766 0.260527 -0.348086 -0.928577 0.119315
0.559480 0.133932 -0.033654 -0.895680 -0.440171 0.039935
0.335614 -0.061325 0.271760 0.961033 0.216058 -0.167979
0.654491 -0.137794 0.799149 -0.886517 0.460237 0.041530
0.663994 0.103799 0.764873 -0.996354 0.056486 0.042895
0.457506 0.177166 -0.722935 -0.729522 -0.222977 0.644543
0.546157 0.012667 -0.635033 -0.982950 0.154689 0.080488
0.275713 -0.055734 0.076433 0.837442 0.235638 -0.492135
0.512785 0.221800 -0.060560 -0.894666 -0.442137 0.039273
0.657296 0.004011 0.667463 -0.998083 0.027844 0.045181
0.236947 -0.070927 -0.778697 0.707925 0.471093 0.524816
0.280019 -0.073479 -0.820994 0.248594 0.370177 0.893966
0.492035 -0.027679 -0.771125 -0.628630 0.269566 0.728237
0.465073 -0.229586 -0.485504 -0.320226 0.945896 0.035656
0.162830 -0.173880 -0.159735 -0.008065 0.612819 -0.788411
-0.604558 0.139279 -0.204140 0.898639 -0.292762 0.324273
0.353596 0.233968 -0.665632 0.500459 -0.764367 0.404969
-0.625340 -0.137517 0.403215 0.825256 0.556481 -0.095538
0.562367 -0.019044 -0.410507 -0.983581 0.154507 0.080069
0.464780 0.092116 0.882416 0.517914 -0.425632 -0.741390
0.376510 -0.191940 0.219942 0.798191 0.568928 -0.196087
0.294323 -0.217045 -0.606030 0.539985 0.837260 0.073909
0.267436 -0.176699 -0.667117 0.770302 0.611895 0.174268
0.579848 0.060945 -0.197476 -0.990910 -0.102532 0.065073
-0.285691 0.033805 -0.135681 0.019416 0.009791 -0.998824
-0.632040 0.148845 0.436359 0.972425 -0.227110 -0.033243
0.664614 0.072767 0.808575 -0.996541 0.055825 0.042952
-0.441179 -0.103537 0.310449 -0.840915 0.302874 0.447067
-0.552202 0.118942 0.733437 0.826653 -0.509534 -0.237126
-0.499211 0.110885 0.815635 0.728358 -0.354484 -0.585314
0.013058 -0.237456 -0.270310 -0.017496 0.912150 0.407397
0.157030 0.201523 -0.176420 -0.032292 -0.789755 -0.609446
0.221592 0.186880 -0.146041 0.590610 -0.702660 -0.393577
-0.673754 -0.033521 -0.008027 0.979368 0.193194 0.038858
0.447735 0.251900 0.079347 0.023207 -0.992288 -0.109239
0.453319 0.222068 -0.602290 -0.722604 -0.684688 0.071545
-0.505512 0.141669 0.201571 -0.678170 -0.634100 0.369607
0.348723 0.216295 -0.713792 0.139020 -0.929456 0.336819
0.443049 0.207146 0.658547 0.919964 -0.385428 -0.053804
0.346749 0.026043 0.368907 0.973613 0.064602 -0.217368
-0.134887 0.106658 -0.412378 0.003046 -0.262207 0.963776
-0.464880 -0.218878 0.415883 -0.708439 0.640269 0.295596
0.551576 -0.109947 0.905298 -0.060892 0.061369 -0.996446
0.661924 0.055138 0.779338 -0.995948 0.055280 0.042539
0.654159 0.061024 0.524457 -0.992042 -0.115245 0.019602
-0.467344 -0.115730 -0.005731 -0.767778 0.255431 -0.585960
0.504370 0.174813 -0.539463 -0.722614 -0.685417 0.070572
0.329243 0.098607 0.190315 0.961045 -0.247155 -0.119802
-0.084561 -0.034414 -0.134648 0.016269 0.004353 -0.998573
-0.446585 -0.187204 0.712466 0.175595 0.851315 -0.495071
-0.006942 0.053960 -0.427534 -0.001803 -0.304733 0.950928
-0.554083 0.205612 0.227953 -0.672292 -0.646609 0.358270
-0.551400 0.056405 0.779755 0.868751 -0.218246 -0.443753
0.159689 -0.114505 -0.407611 -0.013286 0.519472 0.853850
-0.548251 0.182665 0.107498 -0.612165 -0.789537 -0.010995
-0.347485 0.007697 -0.099727 -0.762976 -0.097052 -0.637486
0.559224 -0.135300 -0.126913 -0.918916 0.386807 0.064202
-0.089239 -0.000507 -0.136329 0.004420 -0.031735 -0.998324
-0.434380 0.130414 0.339747 -0.792282 -0.469271 0.388429
-0.488134 -0.211448 -0.048598 -0.711003 0.422596 -0.560164
0.450177 0.209825 -0.663725 -0.769397 -0.616495 0.155743
0.354983 -0.033562 0.387058 0.973229 0.064682 -0.217289
0.662505 -0.102384 0.754082 -0.997972 -0.012863 0.044570
-0.613313 -0.192462 0.094103 0.757103 0.652251 -0.008140
-0.474227 0.035471 0.204206 -0.896997 -0.288991 0.332283
0.442298 0.259425 -0.160617 -0.477203 -0.875999 0.041994
-0.586404 -0.131526 0.619755 0.948147 0.198032 -0.245956
0.529755 -0.190951 -0.103416 -0.709602 0.704285 -0.000653
0.232440 -0.154416 -0.505044 0.894266 0.438824 0.084167
-0.620183 0.059951 -0.219867 0.868450 -0.060976 0.489692
0.279891 -0.070371 0.080759 0.876352 0.215732 -0.429092
-0.116972 0.038673 -0.431846 0.000269 -0.236587 0.969944
-0.514875 0.114465 0.111807 -0.895480 -0.414082 0.156195
-0.376261 -0.029718 -0.071709 -0.722494 0.313571 -0.614284
0.221175 0.015217 -0.026302 0.917796 -0.088531 -0.384419
-0.574960 0.209263 0.167788 -0.075662 -0.994413 -0.064547
-0.614067 -0.157013 0.373518 0.867786 0.492397 -0.062330
-0.506332 0.209315 0.311016 -0.636870 -0.655198 0.404942
-0.617250 0.125285 -0.181638 0.898698 -0.292491 0.323616
0.298921 0.141132 -0.764279 0.508084 -0.639071 0.576644
0.543063 0.104596 -0.492448 -0.916270 -0.390411 0.072057
-0.346742 0.006180 0.647917 -0.974085 -0.225527 -0.019423
0.430666 -0.211838 0.421963 0.561164 0.812953 -0.153394
0.444443 0.255289 -0.346711 -0.729882 -0.679980 0.035734
-0.623391 -0.158711 0.232431 0.868161 0.492049 -0.061848
0.566674 -0.119685 -0.023196 -0.943501 0.324974 0.051756
0.072901 -0.199435 -0.195176 -0.006367 0.674511 -0.736796
0.544908 -0.003600 -0.621895 -0.983081 0.154955 0.080587
-0.417122 0.131198 -0.066842 -0.719646 -0.383543 -0.575651
0.293856 0.274067 -0.256912 0.155042 -0.976023 0.144178
-0.223627 -0.163647 -0.390918 -0.034434 0.642965 0.763471
0.360918 -0.079234 0.389003 0.966852 0.166491 -0.190709
0.207644 0.079389 -0.695313 0.836080 -0.541646 0.073301
0.464490 -0.152779 0.854578 0.565982 0.353937 -0.744015
-0.636930 0.149861 0.314847 0.968846 -0.241785 -0.029006
-0.525728 -0.013445 0.831979 0.814742 0.222295 -0.534456
0.366804 -0.233299 -0.705614 -0.085291 0.851449 0.516075
0.407099 0.129981 0.626527 0.884413 -0.459385 -0.086595
0.568951 -0.185402 0.280745 -0.750702 0.606262 0.260510
-0.644248 -0.122211 0.256460 0.958573 0.281700 -0.021827
-0.011166 -0.174743 -0.174684 -0.006153 0.674808 -0.736589
-0.411577 -0.047230 -0.047826 -0.767882 0.254469 -0.585490
-0.642171 -0.136188 0.169081 0.958795 0.281078 -0.021755
-0.661237 -0.072497 0.240046 0.991009 0.105320 -0.070187
-0.374141 0.138588 0.631240 -0.969494 -0.232153 -0.058393
0.510502 -0.027266 -0.739381 -0.880060 0.051934 0.469632
-0.540413 0.223581 -0.087465 0.431009 -0.896197 0.094826
0.657084 0.089489 0.619633 -0.996127 0.057613 0.042509
-0.577928 -0.207923 0.402351 0.820210 0.562419 -0.097872
-0.566963 0.161681 -0.240499 0.742183 -0.574691 0.341844
0.503858 0.230978 0.217864 -0.523764 -0.848668 0.036562
0.565528 0.011865 -0.427189 -0.983331 0.154191 0.079855
0.583554 -0.012911 -0.183971 -0.982849 0.158978 0.076553
0.325643 0.211424 -0.012249 0.646254 -0.673692 -0.356474
-0.522883 -0.233096 0.431579 0.388316 0.920798 0.018824
-0.655951 0.026680 0.357431 0.982646 -0.162333 -0.079938
-0.002513 -0.236699 -0.272950 -0.017861 0.912177 0.407103
-0.631310 0.150656 0.444834 0.972854 -0.225750 -0.033790
0.332554 0.201009 0.024744 0.632473 -0.732318 -0.246069
-0.576721 -0.189824 0.518400 0.823815 0.558896 -0.096257
0.575518 0.136082 0.212166 -0.910046 -0.315918 0.262855
-0.572859 0.186166 -0.169514 0.471700 -0.827466 0.300348
0.606583 0.016785 0.118351 -0.981776 0.174497 0.057814
0.576575 0.047715 -0.274779 -0.991625 -0.102239 0.063661
-0.480110 0.209152 0.683183 -0.014172 -0.922755 -0.383968
-0.057709 -0.128275 -0.403907 -0.011195 0.518827 0.853680
-0.043478 0.051385 -0.428268 -0.001997 -0.304847 0.950858
-0.482500 0.127887 -0.371021 0.590300 -0.350922 0.724804
-0.366724 0.130348 0.515984 -0.969959 -0.231750 -0.058408
-0.519118 0.181392 0.009399 -0.134223 -0.841894 -0.521688
-0.399091 0.011114 0.364961 -0.901390 0.037776 0.430646
0.539497 -0.032268 -0.628291 -0.982883 0.155265 0.081160
0.379725 -0.254989 -0.563961 0.269019 0.962664 -0.013239
0.653419 0.044172 0.412771 -0.908666 -0.352678 0.218586
0.422455 -0.246101 0.217471 0.627617 0.765528 -0.136513
0.418539 -0.187320 0.532882 0.898745 0.422781 -0.115005
-0.532125 0.140995 -0.310804 0.530475 -0.666808 0.521333
-0.562085 -0.047248 0.739777 0.916998 0.203337 -0.343107
-0.413733 -0.174866 0.441960 -0.708526 0.640182 0.295493
-0.546488 -0.181912 0.167635 -0.827150 0.349032 0.438896
-0.560215 -0.216187 0.367306 0.388614 0.920780 0.018492
0.488217 0.166789 -0.654095 -0.769671 -0.616858 0.156285
-0.246881 -0.036742 -0.140591 0.047128 0.184797 -0.980643
-0.476006 -0.117565 0.003455 -0.767414 0.255756 -0.585927
-0.577832 0.207696 0.053844 -0.611649 -0.789070 -0.010713
0.337145 0.268095 -0.401561 -0.025195 -0.997503 0.033300
-0.482705 -0.132846 0.253900 -0.822201 0.386071 0.415910
0.460856 -0.258104 -0.142304 -0.307716 0.949965 -0.033083
-0.535933 0.067912 0.799317 0.728088 -0.353835 -0.585577
0.209255 -0.052028 -0.063952 0.896744 0.084473 -0.432473
0.602258 -0.163914 0.368720 -0.842736 0.517475 0.144448
0.525514 0.208465 0.046933 -0.894895 -0.442221 0.039150
-0.576745 0.157423 0.626441 0.907907 -0.172054 -0.379650
-0.463513 -0.144451 0.303650 -0.823039 0.391608 0.410130
0.664376 -0.098892 0.843053 -0.998641 -0.013698 0.044884
0.404947 0.192839 0.336589 0.517633 -0.845912 -0.116084
0.464978 -0.117218 -0.777149 -0.792763 0.146016 0.589271
-0.202874 0.225611 -0.227824 0.029527 -0.760806 -0.643045
0.566313 0.121912 -0.034392 -0.901597 -0.426311 0.048895
0.663558 0.097583 0.753877 -0.996536 0.055581 0.042841
-0.144805 0.096491 -0.143906 0.007380 -0.355204 -0.933600
-0.022609 0.199614 -0.188791 0.063352 -0.800960 -0.591951
0.238526 -0.054248 -0.796587 0.711724 0.469889 0.521046
-0.473714 0.134006 0.001601 -0.735841 -0.402424 -0.542771
-0.588772 -0.135448 -0.245231 0.648300 0.606774 0.457256
-0.510582 0.194506 -0.015418 -0.134450 -0.841181 -0.521099
-0.202550 -0.003820 -0.439747 0.029006 0.074912 0.995686
-0.101507 0.066184 -0.423499 -0.002750 -0.305725 0.950249
0.565054 -0.240150 0.665320 -0.674442 0.735869 0.052782
0.656495 0.075300 0.693255 -0.983485 -0.177022 -0.008982
-0.677304 -0.004387 -0.105716 0.979406 0.194283 0.038636
-0.554620 0.212431 -0.125673 0.431414 -0.896010 0.093295
-0.390349 -0.170349 0.744583 -0.010106 0.838236 -0.545486
0.450987 0.122847 -0.770852 -0.789895 -0.392286 0.466731
-0.516827 0.220072 0.341205 -0.200638 -0.963982 0.170325
-0.588983 -0.220438 -0.006861 0.468496 0.882532 -0.023154
-0.154560 0.149485 -0.161585 0.001197 -0.407490 -0.911684
0.356654 0.127071 -0.791885 -0.001286 -0.503930 0.862231
-0.469573 -0.134325 -0.012079 -0.767965 0.255359 -0.585801
0.636611 -0.108366 0.423168 -0.895499 0.424282 0.131308
0.121524 0.227350 -0.304755 -0.069031 -0.967924 0.234630
0.514809 -0.238487 0.362803 -0.417335 0.904310 0.084830
-0.659663 0.036163 0.290257 0.993154 -0.097348 -0.048681
0.652516 0.076631 0.462865 -0.908851 -0.353487 0.218682
-0.617334 -0.155927 0.335893 0.865779 0.494384 -0.066300
-0.119463 0.197905 -0.197314 0.045199 -0.783101 -0.618647
0.563399 0.105621 -0.253250 -0.910281 -0.405577 0.063898
0.315733 0.076710 0.162501 0.871557 -0.272392 -0.406158
-0.144220 -0.061759 -0.436707 -0.018112 0.239611 0.969829
-0.195636 0.178751 -0.365540 -0.005841 -0.691046 0.721261
-0.220182 -0.221003 -0.327423 -0.001588 0.958589 0.282521
0.479864 0.233415 -0.213952 -0.654329 -0.748222 0.100168
-0.355094 -0.144731 0.560972 -0.867338 0.494491 0.042657
0.576725 0.030629 -0.300017 -0.991698 -0.102820 0.063740
0.505704 -0.028869 -0.748913 -0.879758 0.052027 0.469868
0.551452 0.088877 -0.473209 -0.915957 -0.390839 0.072024
0.005401 -0.087148 -0.427518 -0.012841 0.519072 0.853646
-0.414766 0.208557 0.614524 -0.735644 -0.671789 -0.078257
-0.551456 0.173913 0.646902 0.642565 -0.653909 -0.397376
0.564496 0.009324 -0.436434 -0.983320 0.154357 0.080587
-0.046398 -0.123089 -0.148022 0.053704 0.247887 -0.966268
-0.152767 0.108989 -0.151044 0.020160 -0.306515 -0.949831
0.388052 0.235542 0.065817 0.647434 -0.752061 -0.111485
-0.216830 0.155824 -0.167950 0.020354 -0.306230 -0.950148
-0.644429 0.096476 -0.132497 0.898898 -0.292360 0.324549
0.268235 0.220809 -0.403613 0.855154 -0.509793 0.063109
-0.610732 0.184698 -0.107851 0.730957 -0.676133 0.079845
0.300773 0.245288 -0.477790 0.401615 -0.912248 0.059764
0.436630 0.253355 0.063966 0.023379 -0.992618 -0.109223
0.584175 0.182147 0.343395 -0.911402 -0.345034 0.221193
0.566475 0.234462 0.561937 -0.239069 -0.969665 -0.029200
-0.189188 -0.086292 -0.430899 -0.021225 0.220567 0.974348
0.658752 -0.054789 0.535254 -0.984411 0.166563 0.035993
0.326854 0.119473 0.157550 0.898249 -0.372167 -0.230330
-0.557001 -0.163199 -0.262107 0.575766 0.749682 0.323370
0.369551 0.180666 0.216367 0.845187 -0.520428 -0.118398
0.665641 -0.081360 0.837541 -0.996425 -0.013338 0.044993
0.455679 -0.250852 0.336555 0.626978 0.766536 -0.135920
-0.376014 -0.087919 -0.425816 0.127059 0.050297 0.989801
0.275239 -0.097662 -0.810000 0.248931 0.370155 0.894122
0.291659 -0.190317 -0.717237 0.740227 0.642085 0.195659
0.009181 -0.028883 -0.133481 0.016921 0.005432 -0.999332
-0.027329 0.039456 -0.136329 0.005113 -0.026993 -0.998940
0.663517 -0.089417 0.818772 -0.997593 -0.013928 0.044714
0.043977 -0.083381 -0.426154 -0.025396 0.264632 0.962695
-0.623126 -0.025105 -0.242210 0.920233 -0.104802 0.374443
0.577704 -0.012011 -0.256608 -0.983311 0.155265 0.080200
0.373463 -0.213470 0.143095 0.522801 0.803773 -0.281292
0.351434 -0.269468 -0.369446 -0.115995 0.990696 0.065756
0.244082 0.164772 -0.556144 0.857752 -0.507954 0.061918
0.249161 -0.132494 -0.025401 0.819952 0.287253 -0.494433
0.462781 -0.256909 0.010880 -0.297451 0.950574 -0.083911
0.335268 -0.119291 0.175873 0.935754 0.327395 -0.126112
-0.381552 0.204261 -0.162527 -0.359748 -0.866265 -0.341773
0.552528 -0.124901 -0.286534 -0.919307 0.386321 0.063843
0.411034 -0.068183 0.821201 0.983228 0.146664 -0.101683
-0.449618 0.221027 0.525819 -0.428563 -0.888893 0.158729
0.306210 0.238991 -0.114208 0.515771 -0.734055 -0.438756
-0.528971 0.231812 0.541895 0.641185 -0.743714 -0.187052
-0.341349 -0.095981 0.621430 -0.993942 0.101128 0.020770
-0.526171 -0.216708 -0.033865 -0.414658 0.856115 -0.307964
-0.518848 0.044136 -0.383639 0.590845 -0.350479 0.724451
-0.645504 0.086982 0.435724 0.992800 -0.099622 -0.049453
-0.439508 -0.093981 0.826908 -0.015511 0.325062 -0.945141
0.642527 0.080946 0.425928 -0.908539 -0.352767 0.218552
-0.472399 0.241609 -0.154813 0.411003 -0.892619 0.175683
-0.140287 0.223917 -0.321213 -0.002337 -0.685760 0.725729
0.278996 -0.031231 0.097578 0.879525 0.210990 -0.425250
0.653989 -0.103613 0.534405 -0.996946 -0.013120 0.043801
0.659446 -0.111223 0.677234 -0.997241 -0.013439 0.043808
-0.568264 0.210986 0.514626 0.624090 -0.740288 -0.245879
0.571057 0.133409 0.156948 -0.905481 -0.418821 0.049740
0.311998 -0.235454 -0.505376 0.539838 0.837607 0.074147
0.391594 0.243999 -0.645546 -0.492575 -0.850588 0.178567
0.428360 0.185375 0.572672 0.920234 -0.385429 -0.054069
0.385405 0.095278 0.578752 0.975017 -0.194750 -0.106460
0.572096 0.099630 0.901734 -0.121896 -0.587412 -0.800051
0.442802 0.082524 0.882295 0.862182 -0.191070 -0.466381
-0.117955 -0.021075 -0.134499 0.016130 0.005320 -0.998475
0.121325 0.019092 -0.422059 -0.567682 -0.155633 0.806377
0.536350 0.205323 0.170636 -0.551145 -0.832741 -0.004235
-0.409790 0.190238 0.693129 -0.736071 -0.671143 -0.077527
0.413590 0.128170 -0.790981 -0.004139 -0.508024 0.859274
0.334498 0.018389 0.311993 0.973581 0.064167 -0.216954
-0.660546 0.038137 0.278670 0.987824 -0.129413 -0.079526
0.408641 0.145443 0.562849 0.921824 -0.383430 -0.054334
0.377836 -0.021182 0.570931 0.988692 0.049681 -0.139389
0.606237 0.130539 0.873592 -0.121750 -0.587347 -0.800313
0.553808 -0.064385 -0.432444 -0.983536 0.154756 0.080231
-0.575068 0.209697 0.187287 -0.209422 -0.956945 0.194698
-0.496881 -0.240309 -0.139103 0.301775 0.951186 0.051968
-0.408652 -0.235326 -0.207389 -0.376181 0.852905 -0.358842
0.620181 0.192847 0.508603 -0.567050 -0.812267 0.131913
-0.419012 0.117485 -0.413370 0.165854 -0.224486 0.959219
-0.459813 0.231160 0.550586 -0.428505 -0.888642 0.158848
0.038165 -0.102369 -0.417849 -0.013525 0.519052 0.853466
-0.585422 -0.192566 0.436748 0.830909 0.548367 -0.092532
-0.522416 -0.220792 -0.189802 0.570319 0.756174 0.318173
-0.608580 -0.167356 0.379861 0.821178 0.560766 -0.098035
0.580988 -0.217786 0.459278 -0.416691 0.904294 0.084983
0.663100 -0.028214 0.705333 -0.989025 -0.136577 0.028106
0.355857 0.264868 -0.486991 -0.026319 -0.997362 0.031241
0.267741 -0.255797 -0.284280 0.355975 0.926989 0.114701
-0.597331 -0.079410 0.618533 0.913448 0.178276 -0.364636
-0.059188 0.156164 -0.377776 0.012456 -0.643971 0.763382
-0.368507 -0.134929 0.484063 -0.827646 0.394661 0.397581
-0.415008 -0.008825 0.328711 -0.833897 0.003166 0.551509
-0.007285 0.139768 -0.158517 0.019700 -0.307072 -0.950531
-0.442572 -0.163757 0.749279 0.024841 0.858717 -0.512128
0.115004 0.152298 -0.385650 0.011851 -0.646558 0.760254
-0.391153 -0.200684 -0.334591 0.130579 0.822661 0.551340
-0.674468 -0.027805 0.212689 0.977433 0.207972 0.008580
0.272509 -0.174831 -0.693009 0.738441 0.644098 0.196561
0.372901 0.239613 -0.647653 0.200970 -0.940279 0.270436
-0.342326 -0.063401 0.565095 -0.998257 0.040838 0.032114
0.192060 -0.024824 -0.657884 0.991775 0.037726 0.115129
-0.486826 0.002622 0.175138 -0.963280 0.010456 0.265643
-0.232689 0.125605 -0.402738 0.011930 -0.644527 0.761979
0.660258 -0.027550 0.488914 -0.984596 0.167459 0.037773
0.473362 0.220833 0.705631 0.515022 -0.856580 -0.004559
0.368504 0.197696 0.148176 0.803460 -0.577100 -0.139524
-0.609224 0.193661 0.426571 0.716030 -0.697269 0.005952
0.659236 -0.093394 0.633345 -0.997976 -0.013319 0.045832
0.271782 0.236654 -0.356362 0.639027 -0.729488 0.240689
-0.606897 0.006130 -0.274618 0.930537 -0.084982 0.353018
0.590885 0.050903 0.907608 -0.217668 -0.142695 -0.964861
-0.647843 -0.112609 0.293026 0.961450 0.273159 -0.020265
-0.375296 0.153542 0.592898 -0.970280 -0.231984 -0.058132
-0.402911 -0.113552 0.820338 -0.165478 0.284373 -0.943631
-0.446371 -0.164553 0.747691 0.024698 0.858815 -0.511951
0.403852 -0.140385 0.589831 0.970256 0.222580 -0.090488
-0.644209 -0.091577 0.385747 0.956144 0.269962 -0.111712
0.564030 0.131486 0.023202 -0.899426 -0.430583 0.045557
0.524621 -0.215511 0.166551 -0.436070 0.897697 0.050055
-0.581300 -0.129013 0.635399 0.913079 0.177639 -0.365173
0.409601 -0.261182 0.021683 0.158135 0.971462 -0.173769
-0.384396 0.123354 -0.101296 -0.720102 -0.384189 -0.575536
0.351145 0.123698 0.292364 0.956732 -0.259609 -0.123324
0.227617 -0.135490 -0.564797 0.859457 0.502182 0.091757
0.307388 0.277968 -0.246855 0.155066 -0.976086 0.144514
-0.550470 0.192417 0.617824 0.642535 -0.654441 -0.397490
0.659761 -0.129128 0.832962 -0.886292 0.460442 0.041516
0.251543 -0.177372 -0.540067 0.828068 0.540249 0.147801
-0.627077 0.178315 -0.017059 0.731285 -0.676344 0.079479
-0.520864 -0.234077 0.431630 0.388635 0.921095 0.018545
-0.638414 -0.111605 0.385578 0.955905 0.269940 -0.111972
0.644882 0.142280 0.542347 -0.958417 -0.281540 0.012587
-0.441470 0.215784 0.518248 -0.428598 -0.888585 0.159064
-0.369192 -0.088318 0.434831 -0.844781 0.282425 0.453075
0.445884 0.247601 -0.371437 -0.671915 -0.732720 0.091570
0.034291 -0.128545 -0.402277 -0.012703 0.518890 0.853470
-0.434203 0.105824 -0.412736 0.001607 -0.266085 0.962560
-0.534335 -0.162790 -0.286824 0.648825 0.607289 0.457385
0.383912 0.034657 0.663563 0.988029 -0.038812 -0.145319
-0.604082 0.150323 -0.195714 0.896424 -0.292648 0.329961
-0.282875 -0.142058 -0.169760 -0.256287 0.610458 -0.748046
-0.525182 0.153325 0.186146 -0.676805 -0.638589 0.364300
-0.239354 0.079340 -0.141927 0.016091 -0.318491 -0.947085
0.209012 -0.094946 -0.617232 0.854094 0.508670 0.100921
0.438740 -0.192498 0.645560 0.657377 0.748481 -0.088651
0.539482 0.187666 0.062470 -0.904675 -0.419900 0.050914
0.615735 0.048316 0.214749 -0.926583 -0.372464 0.020413
0.637682 0.167468 0.559474 -0.958869 -0.281063 0.012117
-0.307849 -0.232278 -0.290983 -0.002462 0.958487 0.282223
-0.538823 -0.193249 -0.225915 0.572251 0.754672 0.318757
0.576462 -0.221250 0.560188 -0.674187 0.735332 0.052714
-0.114488 0.117320 -0.406918 0.004019 -0.535334 0.842961
-0.071983 0.013025 -0.134345 0.016383 0.005424 -0.998907
0.563011 -0.029587 -0.390752 -0.983590 0.154620 0.080603
-0.493252 0.174477 -0.306300 0.530438 -0.666668 0.520915
-0.649721 0.130543 0.127638 0.968700 -0.242351 -0.027712
-0.361371 -0.155033 0.674042 -0.803570 0.594053 -0.010869
0.306958 -0.233802 -0.483570 0.540131 0.837714 0.074180
0.324848 0.055997 0.236694 0.961657 -0.243238 -0.120360
0.425584 0.215973 0.305658 0.413448 -0.883746 -0.211168
0.385023 -0.102917 0.491428 0.967625 0.142363 -0.204914
0.572055 -0.118760 0.082706 -0.943915 0.323858 0.052168
-0.574222 -0.140271 0.634006 0.740045 0.510386 -0.437760
-0.173087 -0.090107 -0.430115 -0.014052 0.517790 0.853798
-0.489471 0.105163 0.042748 -0.907548 -0.287392 -0.302116
0.555160 -0.012241 -0.498164 -0.983401 0.154655 0.081231
0.152469 0.169462 -0.161391 0.019305 -0.443339 -0.895374
0.146092 -0.207434 -0.331184 -0.017998 0.912613 0.407255
0.569145 0.063017 -0.363364 -0.991248 -0.102307 0.062783
-0.480764 0.207078 0.687715 -0.014168 -0.922976 -0.384140
0.495028 0.233298 0.131606 -0.554465 -0.830416 -0.018181
-0.243297 0.143553 -0.163748 0.008287 -0.352522 -0.934596
-0.560119 0.176033 -0.230436 0.742037 -0.574345 0.341608
0.647143 0.132620 0.618857 -0.965667 -0.258475 -0.007480
0.279948 0.190209 -0.057332 0.644822 -0.673493 -0.356547
0.326907 0.276372 -0.175748 0.287327 -0.941790 -0.168516
-0.276537 0.193836 -0.208118 0.063876 -0.802866 -0.589944
0.529628 0.123739 -0.549463 -0.916600 -0.389520 0.072411
0.432985 0.205432 0.374842 0.517878 -0.847218 -0.116462
0.004319 -0.137353 -0.397192 -0.013051 0.519096 0.853685
0.241559 -0.203379 -0.130769 0.560339 0.502077 -0.657602
-0.441994 0.049334 0.824656 -0.042706 -0.210856 -0.976139
0.579453 -0.076307 0.907098 -0.083119 0.077080 -0.992739
-0.395906 -0.164963 -0.388287 0.130816 0.822527 0.551497
0.290301 -0.214582 -0.604700 0.540401 0.837130 0.073797
-0.433753 0.047810 0.824472 -0.042489 -0.210649 -0.976173
0.249784 0.226758 -0.172059 0.230785 -0.799813 -0.551876
-0.133337 -0.113089 -0.150787 0.053524 0.248496 -0.965974
0.591920 -0.031553 0.013290 -0.982427 0.172361 0.061088
-0.449120 -0.065183 0.837384 -0.016722 0.324615 -0.944717
0.388389 -0.133588 0.485496 0.898051 0.423198 -0.113790
0.617329 -0.048191 0.241716 -0.893591 0.370848 0.251679
0.497900 0.232205 0.061631 -0.553941 -0.830223 -0.017490
-0.498805 -0.093642 0.184024 -0.828727 0.370890 0.418106
-0.673555 -0.028835 -0.067591 0.979109 0.194956 0.037890
-0.501742 -0.099752 0.187469 -0.839151 0.336527 0.425412
-0.364823 0.204887 -0.181609 -0.359827 -0.866220 -0.341931
-0.294229 -0.040371 -0.435356 0.027914 0.075037 0.995357
-0.343190 -0.085576 0.607831 -0.998301 0.039362 0.032458
0.247375 0.237175 -0.189434 0.230385 -0.799416 -0.551532
-0.613136 -0.190394 -0.092085 0.752585 0.657519 -0.012877
-0.415469 0.023332 0.331551 -0.901256 0.037809 0.430676
0.355802 -0.059438 0.382216 0.973757 0.064719 -0.217384
0.267779 0.201401 -0.502797 0.829245 -0.553325 0.063616
-0.604744 -0.111180 -0.231164 0.838115 0.393914 0.375158
-0.111568 -0.089580 -0.143525 0.054003 0.248124 -0.966275
-0.547044 0.018033 0.818368 0.727442 -0.353973 -0.585671
0.662390 0.030114 0.801062 -0.997151 0.054943 0.043088
-0.395608 0.078307 -0.058110 -0.720154 -0.383409 -0.576388
0.439347 0.197852 0.678588 0.921201 -0.385986 -0.053046
-0.648330 -0.146496 -0.007497 0.866898 0.481004 -0.129977
0.397888 -0.175824 -0.782969 0.154315 0.681837 0.714092
0.590134 -0.210454 0.611525 -0.673937 0.736203 0.051201
-0.534937 0.065222 -0.358248 0.632770 -0.352314 0.688834
0.550760 -0.228733 0.800641 0.216205 0.849245 -0.480853
-0.545107 -0.187077 0.619756 0.712233 0.593167 -0.375569
0.213968 0.126370 -0.444291 0.859141 -0.505251 0.062154
-0.435871 -0.235153 -0.178506 -0.376801 0.852970 -0.358059
0.212104 0.108332 -0.537536 0.835439 -0.543508 0.074961
-0.603912 -0.063945 -0.275672 0.899076 0.069706 0.429882
0.566097 -0.059909 -0.305023 -0.983603 0.155082 0.079875
0.513717 0.230560 0.786540 0.226224 -0.867915 -0.439502
-0.490034 0.223378 -0.209044 0.410692 -0.892726 0.177788
-0.590096 0.209405 0.008802 0.441190 -0.895790 0.028967
-0.571599 -0.208050 0.449017 0.821794 0.561145 -0.097395
-0.395626 0.200339 -0.343748 0.079063 -0.789647 0.606000
0.057695 0.160616 -0.377017 0.011857 -0.648667 0.758722
0.403197 0.256450 -0.555263 -0.492061 -0.849817 0.178751
-0.478599 0.001434 0.205711 -0.963371 0.009495 0.265583
0.350765 -0.159929 -0.795872 0.203401 0.551803 0.807520
-0.346199 -0.134358 0.595357 -0.993792 0.104041 0.021888
-0.236341 0.074149 -0.140368 0.017517 -0.315997 -0.947370
0.481372 0.199708 -0.529306 -0.722402 -0.684699 0.071588
-0.546976 -0.212780 -0.165536 0.565447 0.759548 0.318179
-0.521244 -0.149649 0.050966 -0.860056 0.500879 -0.084744
-0.242956 -0.196931 -0.364243 -0.034497 0.642782 0.763951
0.390669 0.283404 -0.117360 0.261611 -0.949654 -0.163103
-0.467864 0.145007 -0.378639 0.251642 -0.739304 0.621919
0.408352 0.267339 -0.405687 0.012418 -0.994344 0.089629
-0.061314 -0.196698 -0.195568 -0.005237 0.675043 -0.736283
0.601245 0.006608 0.073097 -0.982116 0.173289 0.059065
-0.676610 -0.018665 0.115943 0.977242 0.208976 0.008266
0.479882 -0.122539 0.880726 0.565776 0.354136 -0.743719
0.278293 -0.065537 -0.824473 0.248613 0.369866 0.894017
0.564171 -0.217727 0.381213 -0.416883 0.904151 0.085886
0.295322 -0.074900 0.109056 0.880977 0.209503 -0.423509
0.431092 0.080547 -0.807465 -0.476192 -0.113853 0.870439
0.227453 0.113827 -0.671565 0.835723 -0.542267 0.073554
0.154097 0.230670 -0.283886 -0.068987 -0.968112 0.234441
0.387858 -0.258356 -0.585016 0.269062 0.962735 -0.013338
-0.364336 -0.159156 0.673207 -0.803686 0.593212 -0.010968
0.615916 -0.208978 0.738265 -0.886209 0.459802 0.041976
0.314450 0.060099 0.202343 0.984300 -0.008061 -0.171463
0.560642 -0.130679 -0.065957 -0.943042 0.325537 0.051671
0.377275 0.159873 0.351983 0.851981 -0.509049 -0.113714
-0.035583 0.135404 -0.396650 0.012173 -0.643490 0.763667
0.248820 -0.208287 -0.128435 0.560346 0.502149 -0.657597
-0.308860 -0.151458 -0.167972 -0.256010 0.610511 -0.747874
-0.380338 -0.030433 0.812034 -0.828461 0.023136 -0.557833
-0.131610 -0.109961 -0.416701 -0.012738 0.518529 0.853754
-0.542184 -0.196325 0.605215 0.372201 0.894149 -0.249695
0.511653 0.173850 -0.374617 -0.831062 -0.550347 0.049930
-0.100161 0.141615 -0.389508 0.012388 -0.644953 0.762067
